<?xml version="1.0" encoding="UTF-8" standalone="no"?>
<?xml-stylesheet href="./styles.css" type="text/css"?>
<!DOCTYPE svg PUBLIC "-//W3C//DTD SVG 1.1//EN"
 "http://www.w3.org/Graphics/SVG/1.1/DTD/svg11.dtd">
<!-- Generated by graphviz version 2.47.3 (20210619.1520)
 -->
<!-- Title: G Pages: 1 -->
<svg width="6187pt" height="3196pt"
 viewBox="0.00 0.00 6187.00 3196.00" xmlns="http://www.w3.org/2000/svg" xmlns:xlink="http://www.w3.org/1999/xlink">
<g id="graph0" class="graph" transform="scale(1 1) rotate(0) translate(4 3192)">
<title>G</title>
<polygon fill="white" stroke="transparent" points="-4,4 -4,-3192 6183,-3192 6183,4 -4,4"/>
<!-- Entity3 -->
<g id="node1" class="node entity">
<title>Entity3</title>
<ellipse fill="none" stroke="black" cx="4275.11" cy="-1754.02" rx="64.19" ry="18"/>
<text text-anchor="start" x="4233.61" y="-1750.32" font-family="Times New Roman,serif" font-size="14.00">john f kennedy</text>
</g>
<!-- Entity22 -->
<g id="node2" class="node entity">
<title>Entity22</title>
<ellipse fill="none" stroke="black" cx="3721.81" cy="-1612.54" rx="27" ry="18"/>
<text text-anchor="start" x="3713.81" y="-1608.84" font-family="Times New Roman,serif" font-size="14.00">cia</text>
</g>
<!-- Entity3&#45;&gt;Entity22 -->
<g id="edge1" class="edge verb">
<title>Entity3&#45;&gt;Entity22</title>
<path fill="none" stroke="black" d="M4227.46,-1741.84C4118.45,-1713.96 3852.95,-1646.08 3757.08,-1621.56"/>
<polygon fill="black" stroke="black" points="3757.84,-1618.15 3747.29,-1619.06 3756.11,-1624.93 3757.84,-1618.15"/>
<text text-anchor="start" x="3888.27" y="-1685.5" font-family="Times New Roman,serif" font-size="14.00">heads (1961&#45;1963)</text>
</g>
<!-- Entity66 -->
<g id="node20" class="node entity">
<title>Entity66</title>
<ellipse fill="none" stroke="black" cx="4865.88" cy="-1717.31" rx="31.4" ry="18"/>
<text text-anchor="start" x="4849.88" y="-1713.61" font-family="Times New Roman,serif" font-size="14.00">potus</text>
</g>
<!-- Entity3&#45;&gt;Entity66 -->
<g id="edge23" class="edge verb">
<title>Entity3&#45;&gt;Entity66</title>
<path fill="none" stroke="black" d="M4338.06,-1750.11C4459.38,-1742.57 4722.59,-1726.21 4824.46,-1719.88"/>
<polygon fill="black" stroke="black" points="4824.89,-1723.36 4834.65,-1719.25 4824.45,-1716.38 4824.89,-1723.36"/>
<text text-anchor="start" x="4494.26" y="-1738.8" font-family="Times New Roman,serif" font-size="14.00">isa (1961&#45;1963)</text>
</g>
<!-- Entity67 -->
<g id="node25" class="node entity">
<title>Entity67</title>
<ellipse fill="none" stroke="black" cx="2985.58" cy="-1656.93" rx="77.19" ry="18"/>
<text text-anchor="start" x="2934.08" y="-1653.23" font-family="Times New Roman,serif" font-size="14.00">psi&#45;consciousness</text>
</g>
<!-- Entity22&#45;&gt;Entity67 -->
<g id="edge43" class="edge verb">
<title>Entity22&#45;&gt;Entity67</title>
<path fill="none" stroke="black" d="M3694.73,-1614.18C3593.73,-1620.27 3236.25,-1641.82 3070.78,-1651.79"/>
<polygon fill="black" stroke="black" points="3070.41,-1648.31 3060.64,-1652.4 3070.83,-1655.3 3070.41,-1648.31"/>
<text text-anchor="start" x="3318.76" y="-1636.78" font-family="Times New Roman,serif" font-size="14.00">investigates</text>
</g>
<!-- Entity90 -->
<g id="node52" class="node entity">
<title>Entity90</title>
<ellipse fill="none" stroke="black" cx="4072.57" cy="-1646.1" rx="27" ry="18"/>
<text text-anchor="start" x="4063.07" y="-1642.4" font-family="Times New Roman,serif" font-size="14.00">ufo</text>
</g>
<!-- Entity22&#45;&gt;Entity90 -->
<g id="edge62" class="edge verb">
<title>Entity22&#45;&gt;Entity90</title>
<path fill="none" stroke="black" d="M3748.75,-1615.12C3810.85,-1621.06 3964.17,-1635.73 4035.26,-1642.53"/>
<polygon fill="black" stroke="black" points="4035.25,-1646.04 4045.54,-1643.51 4035.92,-1639.08 4035.25,-1646.04"/>
<text text-anchor="start" x="3828.01" y="-1632.63" font-family="Times New Roman,serif" font-size="14.00">investigates</text>
</g>
<!-- Entity14 -->
<g id="node3" class="node entity">
<title>Entity14</title>
<ellipse fill="none" stroke="black" cx="1220.17" cy="-1529.44" rx="74.99" ry="18"/>
<text text-anchor="start" x="1170.67" y="-1525.74" font-family="Times New Roman,serif" font-size="14.00">gene roddenberry</text>
</g>
<!-- Entity8 -->
<g id="node4" class="node entity">
<title>Entity8</title>
<ellipse fill="none" stroke="black" cx="1711.11" cy="-1577.14" rx="38.19" ry="18"/>
<text text-anchor="start" x="1689.61" y="-1573.44" font-family="Times New Roman,serif" font-size="14.00">the nine</text>
</g>
<!-- Entity14&#45;&gt;Entity8 -->
<g id="edge2" class="edge verb">
<title>Entity14&#45;&gt;Entity8</title>
<path fill="none" stroke="black" d="M1289.73,-1536.2C1390.9,-1546.03 1576.04,-1564.01 1663.26,-1572.49"/>
<polygon fill="black" stroke="black" points="1663.11,-1575.99 1673.4,-1573.47 1663.78,-1569.02 1663.11,-1575.99"/>
<text text-anchor="start" x="1372.5" y="-1558.14" font-family="Times New Roman,serif" font-size="14.00">claiemd to channel</text>
</g>
<!-- Entity70 -->
<g id="node23" class="node entity">
<title>Entity70</title>
<ellipse fill="none" stroke="black" cx="1196.9" cy="-1234.45" rx="94.48" ry="18"/>
<text text-anchor="start" x="1132.4" y="-1230.75" font-family="Times New Roman,serif" font-size="14.00">egyptian gods in a ship</text>
</g>
<!-- Entity8&#45;&gt;Entity70 -->
<g id="edge16" class="edge verb">
<title>Entity8&#45;&gt;Entity70</title>
<path fill="none" stroke="black" d="M1689.01,-1562.41C1608.4,-1508.69 1329.72,-1322.97 1231.5,-1257.51"/>
<polygon fill="black" stroke="black" points="1233.37,-1254.55 1223.11,-1251.92 1229.49,-1260.38 1233.37,-1254.55"/>
<text text-anchor="start" x="1356.26" y="-1413.76" font-family="Times New Roman,serif" font-size="14.00">claimed to channel</text>
</g>
<!-- Entity16 -->
<g id="node5" class="node entity">
<title>Entity16</title>
<ellipse fill="none" stroke="black" cx="4896.32" cy="-1923.49" rx="68.49" ry="18"/>
<text text-anchor="start" x="4851.82" y="-1919.79" font-family="Times New Roman,serif" font-size="14.00">george hw bush</text>
</g>
<!-- Entity20 -->
<g id="node6" class="node entity">
<title>Entity20</title>
<ellipse fill="none" stroke="black" cx="4910.35" cy="-2031.44" rx="63.89" ry="18"/>
<text text-anchor="start" x="4869.35" y="-2027.74" font-family="Times New Roman,serif" font-size="14.00">george w bush</text>
</g>
<!-- Entity16&#45;&gt;Entity20 -->
<g id="edge3" class="edge verb">
<title>Entity16&#45;&gt;Entity20</title>
<path fill="none" stroke="black" d="M4898.7,-1941.8C4900.89,-1958.65 4904.17,-1983.9 4906.7,-2003.3"/>
<polygon fill="black" stroke="black" points="4903.25,-2003.93 4908.01,-2013.4 4910.19,-2003.03 4903.25,-2003.93"/>
<text text-anchor="start" x="4870.7" y="-1976.35" font-family="Times New Roman,serif" font-size="14.00">father</text>
</g>
<!-- Entity16&#45;&gt;Entity66 -->
<g id="edge20" class="edge verb">
<title>Entity16&#45;&gt;Entity66</title>
<path fill="none" stroke="black" d="M4893.62,-1905.19C4888.28,-1869.03 4876.35,-1788.21 4870.02,-1745.31"/>
<polygon fill="black" stroke="black" points="4873.46,-1744.65 4868.54,-1735.27 4866.53,-1745.68 4873.46,-1744.65"/>
<text text-anchor="start" x="4865.82" y="-1829.05" font-family="Times New Roman,serif" font-size="14.00">isa</text>
</g>
<!-- Entity20&#45;&gt;Entity66 -->
<g id="edge42" class="edge verb">
<title>Entity20&#45;&gt;Entity66</title>
<path fill="none" stroke="black" d="M4907.77,-2013.19C4900.34,-1960.71 4878.87,-1809.07 4869.9,-1745.69"/>
<polygon fill="black" stroke="black" points="4873.34,-1745.02 4868.47,-1735.61 4866.41,-1746 4873.34,-1745.02"/>
<text text-anchor="start" x="4872.84" y="-1883.24" font-family="Times New Roman,serif" font-size="14.00">isa</text>
</g>
<!-- Entity2 -->
<g id="node7" class="node entity">
<title>Entity2</title>
<ellipse fill="none" stroke="black" cx="1990.45" cy="-1329.31" rx="41.69" ry="18"/>
<text text-anchor="start" x="1966.45" y="-1325.61" font-family="Times New Roman,serif" font-size="14.00">uri geller</text>
</g>
<!-- Entity2&#45;&gt;Entity8 -->
<g id="edge4" class="edge verb">
<title>Entity2&#45;&gt;Entity8</title>
<path fill="none" stroke="black" d="M1972.13,-1345.57C1923.77,-1388.47 1792.62,-1504.82 1736.81,-1554.33"/>
<polygon fill="black" stroke="black" points="1734.3,-1551.88 1729.14,-1561.14 1738.94,-1557.12 1734.3,-1551.88"/>
<text text-anchor="start" x="1750.47" y="-1453.75" font-family="Times New Roman,serif" font-size="14.00">claiemd to channel</text>
</g>
<!-- Entity26 -->
<g id="node8" class="node entity">
<title>Entity26</title>
<ellipse fill="none" stroke="black" cx="210.74" cy="-2653.43" rx="49.29" ry="18"/>
<text text-anchor="start" x="180.74" y="-2649.73" font-family="Times New Roman,serif" font-size="14.00">adolf hitler</text>
</g>
<!-- Entity28 -->
<g id="node9" class="node entity">
<title>Entity28</title>
<ellipse fill="none" stroke="black" cx="583.85" cy="-2476.57" rx="32.49" ry="18"/>
<text text-anchor="start" x="566.85" y="-2472.87" font-family="Times New Roman,serif" font-size="14.00">nsdap</text>
</g>
<!-- Entity26&#45;&gt;Entity28 -->
<g id="edge5" class="edge verb">
<title>Entity26&#45;&gt;Entity28</title>
<path fill="none" stroke="black" d="M240.95,-2639.11C309.69,-2606.52 477.38,-2527.04 549.71,-2492.75"/>
<polygon fill="black" stroke="black" points="551.32,-2495.86 558.86,-2488.41 548.33,-2489.53 551.32,-2495.86"/>
<text text-anchor="start" x="354.33" y="-2569.73" font-family="Times New Roman,serif" font-size="14.00">created</text>
</g>
<!-- Entity75 -->
<g id="node31" class="node entity">
<title>Entity75</title>
<ellipse fill="none" stroke="black" cx="291.72" cy="-2120.81" rx="38.99" ry="18"/>
<text text-anchor="start" x="269.72" y="-2117.11" font-family="Times New Roman,serif" font-size="14.00">far right</text>
</g>
<!-- Entity28&#45;&gt;Entity75 -->
<g id="edge29" class="edge verb">
<title>Entity28&#45;&gt;Entity75</title>
<path fill="none" stroke="black" d="M570.15,-2459.89C523.2,-2402.71 368.6,-2214.43 312.39,-2145.97"/>
<polygon fill="black" stroke="black" points="314.78,-2143.38 305.73,-2137.87 309.37,-2147.82 314.78,-2143.38"/>
<text text-anchor="start" x="380.27" y="-2306.73" font-family="Times New Roman,serif" font-size="14.00">member of</text>
</g>
<!-- Entity15 -->
<g id="node10" class="node entity">
<title>Entity15</title>
<ellipse fill="none" stroke="black" cx="4792.01" cy="-1209.84" rx="59.59" ry="18"/>
<text text-anchor="start" x="4754.01" y="-1206.14" font-family="Times New Roman,serif" font-size="14.00">donald trump</text>
</g>
<!-- Entity48 -->
<g id="node11" class="node entity">
<title>Entity48</title>
<ellipse fill="none" stroke="black" cx="4162.67" cy="-1354.4" rx="50.09" ry="18"/>
<text text-anchor="start" x="4132.17" y="-1350.7" font-family="Times New Roman,serif" font-size="14.00">john trump</text>
</g>
<!-- Entity15&#45;&gt;Entity48 -->
<g id="edge6" class="edge verb">
<title>Entity15&#45;&gt;Entity48</title>
<path fill="none" stroke="black" d="M4744.44,-1220.76C4629.11,-1247.25 4335.22,-1314.76 4215.07,-1342.36"/>
<polygon fill="black" stroke="black" points="4213.98,-1339.02 4205.01,-1344.67 4215.54,-1345.84 4213.98,-1339.02"/>
<text text-anchor="start" x="4420.76" y="-1285.36" font-family="Times New Roman,serif" font-size="14.00">nephew of</text>
</g>
<!-- Entity15&#45;&gt;Entity66 -->
<g id="edge27" class="edge verb">
<title>Entity15&#45;&gt;Entity66</title>
<path fill="none" stroke="black" d="M4794.63,-1227.9C4805.67,-1303.73 4848.33,-1596.73 4861.79,-1689.19"/>
<polygon fill="black" stroke="black" points="4858.34,-1689.81 4863.25,-1699.2 4865.27,-1688.8 4858.34,-1689.81"/>
<text text-anchor="start" x="4812.21" y="-1462.34" font-family="Times New Roman,serif" font-size="14.00">isa</text>
</g>
<!-- Entity48&#45;&gt;Entity22 -->
<g id="edge10" class="edge verb">
<title>Entity48&#45;&gt;Entity22</title>
<path fill="none" stroke="black" d="M4136.41,-1369.77C4058.95,-1415.13 3831.73,-1548.18 3750.83,-1595.55"/>
<polygon fill="black" stroke="black" points="3749,-1592.56 3742.14,-1600.64 3752.54,-1598.61 3749,-1592.56"/>
<text text-anchor="start" x="3882.62" y="-1486.46" font-family="Times New Roman,serif" font-size="14.00">member of</text>
</g>
<!-- Entity82 -->
<g id="node41" class="node entity">
<title>Entity82</title>
<ellipse fill="none" stroke="black" cx="3817.16" cy="-1074.57" rx="50.89" ry="18"/>
<text text-anchor="start" x="3786.16" y="-1070.87" font-family="Times New Roman,serif" font-size="14.00">nikola tesla</text>
</g>
<!-- Entity48&#45;&gt;Entity82 -->
<g id="edge40" class="edge verb">
<title>Entity48&#45;&gt;Entity82</title>
<path fill="none" stroke="black" d="M4142.35,-1337.94C4083.67,-1290.41 3913.85,-1152.88 3845.83,-1097.79"/>
<polygon fill="black" stroke="black" points="3847.65,-1094.76 3837.68,-1091.19 3843.24,-1100.2 3847.65,-1094.76"/>
<text text-anchor="start" x="3953.09" y="-1221.66" font-family="Times New Roman,serif" font-size="14.00">studied</text>
</g>
<!-- Entity5 -->
<g id="node12" class="node entity">
<title>Entity5</title>
<ellipse fill="none" stroke="black" cx="2195.16" cy="-1878.73" rx="65.79" ry="18"/>
<text text-anchor="start" x="2152.66" y="-1875.03" font-family="Times New Roman,serif" font-size="14.00">arthur m young</text>
</g>
<!-- Entity5&#45;&gt;Entity8 -->
<g id="edge7" class="edge verb">
<title>Entity5&#45;&gt;Entity8</title>
<path fill="none" stroke="black" d="M2168.45,-1862.09C2085.48,-1810.39 1832.45,-1652.74 1742.92,-1596.95"/>
<polygon fill="black" stroke="black" points="1744.62,-1593.89 1734.28,-1591.57 1740.92,-1599.83 1744.62,-1593.89"/>
<text text-anchor="start" x="1893.68" y="-1733.32" font-family="Times New Roman,serif" font-size="14.00">member&#45;of</text>
</g>
<!-- Entity5&#45;&gt;Entity67 -->
<g id="edge18" class="edge verb">
<title>Entity5&#45;&gt;Entity67</title>
<path fill="none" stroke="black" d="M2241.08,-1865.85C2376.51,-1827.84 2774.35,-1716.2 2925.96,-1673.66"/>
<polygon fill="black" stroke="black" points="2927.34,-1676.91 2936.02,-1670.84 2925.45,-1670.17 2927.34,-1676.91"/>
<text text-anchor="start" x="2542.52" y="-1773.55" font-family="Times New Roman,serif" font-size="14.00">studied</text>
</g>
<!-- Entity72 -->
<g id="node28" class="node entity">
<title>Entity72</title>
<ellipse fill="none" stroke="black" cx="1705" cy="-2338.08" rx="53.89" ry="18"/>
<text text-anchor="start" x="1671.5" y="-2334.38" font-family="Times New Roman,serif" font-size="14.00">bell aviation</text>
</g>
<!-- Entity5&#45;&gt;Entity72 -->
<g id="edge24" class="edge verb">
<title>Entity5&#45;&gt;Entity72</title>
<path fill="none" stroke="black" d="M2176.55,-1896.18C2101.01,-1966.97 1817.29,-2232.85 1730.43,-2314.25"/>
<polygon fill="black" stroke="black" points="1728.02,-2311.71 1723.11,-2321.1 1732.8,-2316.82 1728.02,-2311.71"/>
<text text-anchor="start" x="1912.49" y="-2109.01" font-family="Times New Roman,serif" font-size="14.00">created</text>
</g>
<!-- Entity1 -->
<g id="node13" class="node entity">
<title>Entity1</title>
<ellipse fill="none" stroke="black" cx="1672.63" cy="-1232.16" rx="64.19" ry="18"/>
<text text-anchor="start" x="1631.13" y="-1228.46" font-family="Times New Roman,serif" font-size="14.00">andre puharich</text>
</g>
<!-- Entity1&#45;&gt;Entity2 -->
<g id="edge8" class="edge verb">
<title>Entity1&#45;&gt;Entity2</title>
<path fill="none" stroke="black" d="M1716.16,-1245.46C1776.71,-1263.97 1885.76,-1297.3 1946.52,-1315.88"/>
<polygon fill="black" stroke="black" points="1945.62,-1319.26 1956.21,-1318.84 1947.67,-1312.57 1945.62,-1319.26"/>
<text text-anchor="start" x="1771.34" y="-1284.47" font-family="Times New Roman,serif" font-size="14.00">sponsored</text>
</g>
<!-- Entity7 -->
<g id="node14" class="node entity">
<title>Entity7</title>
<ellipse fill="none" stroke="black" cx="2436.35" cy="-1402.79" rx="68.49" ry="18"/>
<text text-anchor="start" x="2391.85" y="-1399.09" font-family="Times New Roman,serif" font-size="14.00">jeffrey mishlove</text>
</g>
<!-- Entity7&#45;&gt;Entity2 -->
<g id="edge9" class="edge verb">
<title>Entity7&#45;&gt;Entity2</title>
<path fill="none" stroke="black" d="M2378.06,-1393.19C2289.34,-1378.56 2122.02,-1350.99 2039.3,-1337.36"/>
<polygon fill="black" stroke="black" points="2039.84,-1333.9 2029.4,-1335.73 2038.7,-1340.81 2039.84,-1333.9"/>
<text text-anchor="start" x="2153.68" y="-1369.07" font-family="Times New Roman,serif" font-size="14.00">promoted</text>
</g>
<!-- Entity7&#45;&gt;Entity67 -->
<g id="edge19" class="edge verb">
<title>Entity7&#45;&gt;Entity67</title>
<path fill="none" stroke="black" d="M2464.51,-1419.42C2552.1,-1464.75 2820.5,-1589.24 2934.03,-1637.58"/>
<polygon fill="black" stroke="black" points="2932.98,-1640.93 2943.55,-1641.61 2935.71,-1634.49 2932.98,-1640.93"/>
<text text-anchor="start" x="2658.27" y="-1532.3" font-family="Times New Roman,serif" font-size="14.00">studied</text>
</g>
<!-- Entity7&#45;&gt;Entity67 -->
<g id="edge26" class="edge verb">
<title>Entity7&#45;&gt;Entity67</title>
<path fill="none" stroke="black" d="M2476.96,-1417.52C2579.69,-1460.56 2848.73,-1585.04 2948.05,-1635.5"/>
<polygon fill="black" stroke="black" points="2946.62,-1638.7 2957.12,-1640.15 2949.82,-1632.47 2946.62,-1638.7"/>
<text text-anchor="start" x="2648.5" y="-1515.31" font-family="Times New Roman,serif" font-size="14.00">investigates</text>
</g>
<!-- Entity30 -->
<g id="node15" class="node entity">
<title>Entity30</title>
<ellipse fill="none" stroke="black" cx="1165.87" cy="-2707.82" rx="74.99" ry="18"/>
<text text-anchor="start" x="1116.37" y="-2704.12" font-family="Times New Roman,serif" font-size="14.00">walter dornberger</text>
</g>
<!-- Entity30&#45;&gt;Entity28 -->
<g id="edge11" class="edge verb">
<title>Entity30&#45;&gt;Entity28</title>
<path fill="none" stroke="black" d="M1126.78,-2692.29C1019.74,-2649.76 723.03,-2531.87 619.8,-2490.86"/>
<polygon fill="black" stroke="black" points="621.01,-2487.57 610.43,-2487.13 618.43,-2494.08 621.01,-2487.57"/>
<text text-anchor="start" x="812.29" y="-2595.37" font-family="Times New Roman,serif" font-size="14.00">member of</text>
</g>
<!-- Entity30&#45;&gt;Entity72 -->
<g id="edge35" class="edge verb">
<title>Entity30&#45;&gt;Entity72</title>
<path fill="none" stroke="black" d="M1195.92,-2691.12C1291.22,-2631.44 1585.54,-2429.62 1677.37,-2361.01"/>
<polygon fill="black" stroke="black" points="1679.49,-2363.8 1685.37,-2354.99 1675.28,-2358.21 1679.49,-2363.8"/>
<text text-anchor="start" x="1357.64" y="-2529.87" font-family="Times New Roman,serif" font-size="14.00">vice&#45;president</text>
</g>
<!-- Entity30&#45;&gt;Entity72 -->
<g id="edge49" class="edge verb">
<title>Entity30&#45;&gt;Entity72</title>
<path fill="none" stroke="black" d="M1186.37,-2690.25C1267.15,-2628.89 1563.67,-2425.27 1668.23,-2359.01"/>
<polygon fill="black" stroke="black" points="1670.28,-2361.86 1676.88,-2353.57 1666.55,-2355.93 1670.28,-2361.86"/>
<text text-anchor="start" x="1371.3" y="-2513.43" font-family="Times New Roman,serif" font-size="14.00">worked at</text>
</g>
<!-- Entity76 -->
<g id="node35" class="node entity">
<title>Entity76</title>
<ellipse fill="none" stroke="black" cx="1867.16" cy="-2705.17" rx="90.98" ry="18"/>
<text text-anchor="start" x="1805.16" y="-2701.47" font-family="Times New Roman,serif" font-size="14.00">nsdap rocket program</text>
</g>
<!-- Entity30&#45;&gt;Entity76 -->
<g id="edge36" class="edge verb">
<title>Entity30&#45;&gt;Entity76</title>
<path fill="none" stroke="black" d="M1240.92,-2707.54C1367.56,-2707.06 1623.76,-2706.09 1766.08,-2705.55"/>
<polygon fill="black" stroke="black" points="1766.14,-2709.05 1776.13,-2705.51 1766.11,-2702.05 1766.14,-2709.05"/>
<text text-anchor="start" x="1462.5" y="-2710.34" font-family="Times New Roman,serif" font-size="14.00">created</text>
</g>
<!-- Entity104 -->
<g id="node55" class="node entity">
<title>Entity104</title>
<ellipse fill="none" stroke="black" cx="783.82" cy="-3170.47" rx="65.79" ry="18"/>
<text text-anchor="start" x="741.32" y="-3166.77" font-family="Times New Roman,serif" font-size="14.00">x series aircraft</text>
</g>
<!-- Entity30&#45;&gt;Entity104 -->
<g id="edge59" class="edge verb">
<title>Entity30&#45;&gt;Entity104</title>
<path fill="none" stroke="black" d="M1151.13,-2725.67C1092.27,-2796.95 873.97,-3061.3 804.91,-3144.93"/>
<polygon fill="black" stroke="black" points="802.19,-3142.73 798.52,-3152.67 807.59,-3147.19 802.19,-3142.73"/>
<text text-anchor="start" x="937.02" y="-2939.1" font-family="Times New Roman,serif" font-size="14.00">created</text>
</g>
<!-- Entity32 -->
<g id="node16" class="node entity">
<title>Entity32</title>
<ellipse fill="none" stroke="black" cx="1253.31" cy="-2815.86" rx="46.29" ry="18"/>
<text text-anchor="start" x="1225.81" y="-2812.16" font-family="Times New Roman,serif" font-size="14.00">van braun</text>
</g>
<!-- Entity32&#45;&gt;Entity30 -->
<g id="edge12" class="edge verb">
<title>Entity32&#45;&gt;Entity30</title>
<path fill="none" stroke="black" d="M1239.26,-2798.5C1225,-2780.89 1202.78,-2753.42 1186.52,-2733.33"/>
<polygon fill="black" stroke="black" points="1189.18,-2731.07 1180.17,-2725.5 1183.74,-2735.47 1189.18,-2731.07"/>
<text text-anchor="start" x="1149.89" y="-2769.72" font-family="Times New Roman,serif" font-size="14.00">worked for</text>
</g>
<!-- Entity32&#45;&gt;Entity76 -->
<g id="edge48" class="edge verb">
<title>Entity32&#45;&gt;Entity76</title>
<path fill="none" stroke="black" d="M1295.5,-2808.25C1397.53,-2789.85 1658.86,-2742.73 1789.86,-2719.11"/>
<polygon fill="black" stroke="black" points="1790.61,-2722.53 1799.83,-2717.31 1789.36,-2715.64 1790.61,-2722.53"/>
<text text-anchor="start" x="1486.68" y="-2767.48" font-family="Times New Roman,serif" font-size="14.00">worked at</text>
</g>
<!-- Entity29 -->
<g id="node17" class="node entity">
<title>Entity29</title>
<ellipse fill="none" stroke="black" cx="4457.25" cy="-2155.59" rx="37.89" ry="18"/>
<text text-anchor="start" x="4436.25" y="-2151.89" font-family="Times New Roman,serif" font-size="14.00">hunt oil</text>
</g>
<!-- Entity36 -->
<g id="node18" class="node entity">
<title>Entity36</title>
<ellipse fill="none" stroke="black" cx="4485" cy="-2047.52" rx="77.99" ry="18"/>
<text text-anchor="start" x="4433" y="-2043.82" font-family="Times New Roman,serif" font-size="14.00">dwight eisenhower</text>
</g>
<!-- Entity29&#45;&gt;Entity36 -->
<g id="edge13" class="edge verb">
<title>Entity29&#45;&gt;Entity36</title>
<path fill="none" stroke="black" d="M4461.96,-2137.26C4466.31,-2120.31 4472.84,-2094.88 4477.83,-2075.42"/>
<polygon fill="black" stroke="black" points="4481.26,-2076.14 4480.36,-2065.58 4474.48,-2074.4 4481.26,-2076.14"/>
<text text-anchor="start" x="4429.9" y="-2110.14" font-family="Times New Roman,serif" font-size="14.00">funded</text>
</g>
<!-- Entity36&#45;&gt;Entity66 -->
<g id="edge34" class="edge verb">
<title>Entity36&#45;&gt;Entity66</title>
<path fill="none" stroke="black" d="M4505.2,-2030C4569.62,-1974.15 4770.03,-1800.41 4840.81,-1739.05"/>
<polygon fill="black" stroke="black" points="4843.14,-1741.66 4848.4,-1732.46 4838.56,-1736.37 4843.14,-1741.66"/>
<text text-anchor="start" x="4654.01" y="-1888.32" font-family="Times New Roman,serif" font-size="14.00">is a</text>
</g>
<!-- Entity11 -->
<g id="node19" class="node entity">
<title>Entity11</title>
<ellipse fill="none" stroke="black" cx="5367.14" cy="-1841.93" rx="56.59" ry="18"/>
<text text-anchor="start" x="5331.64" y="-1838.23" font-family="Times New Roman,serif" font-size="14.00">harry truman</text>
</g>
<!-- Entity11&#45;&gt;Entity66 -->
<g id="edge14" class="edge verb">
<title>Entity11&#45;&gt;Entity66</title>
<path fill="none" stroke="black" d="M5322.21,-1830.76C5224.92,-1806.57 4996.13,-1749.69 4904.66,-1726.95"/>
<polygon fill="black" stroke="black" points="4905.26,-1723.49 4894.72,-1724.48 4903.58,-1730.29 4905.26,-1723.49"/>
<text text-anchor="start" x="5097.44" y="-1782.66" font-family="Times New Roman,serif" font-size="14.00">isa</text>
</g>
<!-- Entity69 -->
<g id="node24" class="node entity">
<title>Entity69</title>
<ellipse fill="none" stroke="black" cx="5865.98" cy="-2043.42" rx="55.79" ry="18"/>
<text text-anchor="start" x="5830.98" y="-2039.72" font-family="Times New Roman,serif" font-size="14.00">freemasonry</text>
</g>
<!-- Entity11&#45;&gt;Entity69 -->
<g id="edge17" class="edge verb">
<title>Entity11&#45;&gt;Entity69</title>
<path fill="none" stroke="black" d="M5402.21,-1856.1C5490.85,-1891.9 5723.72,-1985.96 5821.62,-2025.5"/>
<polygon fill="black" stroke="black" points="5820.36,-2028.77 5830.94,-2029.27 5822.98,-2022.28 5820.36,-2028.77"/>
<text text-anchor="start" x="5550.92" y="-1944.6" font-family="Times New Roman,serif" font-size="14.00">member of</text>
</g>
<!-- Entity63 -->
<g id="node21" class="node entity">
<title>Entity63</title>
<ellipse fill="none" stroke="black" cx="5697.36" cy="-2433.45" rx="53.89" ry="18"/>
<text text-anchor="start" x="5663.86" y="-2429.75" font-family="Times New Roman,serif" font-size="14.00">edgar casey</text>
</g>
<!-- Entity59 -->
<g id="node22" class="node entity">
<title>Entity59</title>
<ellipse fill="none" stroke="black" cx="5316.26" cy="-1990.74" rx="71.49" ry="18"/>
<text text-anchor="start" x="5269.26" y="-1987.04" font-family="Times New Roman,serif" font-size="14.00">woodrow wilson</text>
</g>
<!-- Entity63&#45;&gt;Entity59 -->
<g id="edge15" class="edge verb">
<title>Entity63&#45;&gt;Entity59</title>
<path fill="none" stroke="black" d="M5682.42,-2416.1C5623.61,-2347.78 5407.91,-2097.2 5338.17,-2016.19"/>
<polygon fill="black" stroke="black" points="5340.69,-2013.75 5331.51,-2008.46 5335.38,-2018.32 5340.69,-2013.75"/>
<text text-anchor="start" x="5468.29" y="-2219.94" font-family="Times New Roman,serif" font-size="14.00">advises</text>
</g>
<!-- Entity59&#45;&gt;Entity66 -->
<g id="edge30" class="edge verb">
<title>Entity59&#45;&gt;Entity66</title>
<path fill="none" stroke="black" d="M5288.77,-1974.05C5209.24,-1925.77 4979.37,-1786.21 4896.3,-1735.77"/>
<polygon fill="black" stroke="black" points="4897.95,-1732.68 4887.59,-1730.49 4894.32,-1738.67 4897.95,-1732.68"/>
<text text-anchor="start" x="5076.53" y="-1858.71" font-family="Times New Roman,serif" font-size="14.00">isa</text>
</g>
<!-- Entity92 -->
<g id="node50" class="node entity">
<title>Entity92</title>
<ellipse fill="none" stroke="black" cx="5431.29" cy="-2098.76" rx="71.49" ry="18"/>
<text text-anchor="start" x="5384.29" y="-2095.06" font-family="Times New Roman,serif" font-size="14.00">leauge of nations</text>
</g>
<!-- Entity59&#45;&gt;Entity92 -->
<g id="edge54" class="edge verb">
<title>Entity59&#45;&gt;Entity92</title>
<path fill="none" stroke="black" d="M5335,-2008.34C5354.05,-2026.23 5383.72,-2054.09 5405.1,-2074.17"/>
<polygon fill="black" stroke="black" points="5402.88,-2076.88 5412.56,-2081.17 5407.67,-2071.78 5402.88,-2076.88"/>
<text text-anchor="start" x="5329.05" y="-2045.05" font-family="Times New Roman,serif" font-size="14.00">created</text>
</g>
<!-- Entity18 -->
<g id="node26" class="node entity">
<title>Entity18</title>
<ellipse fill="none" stroke="black" cx="5201.15" cy="-1665.4" rx="35.19" ry="18"/>
<text text-anchor="start" x="5182.15" y="-1661.7" font-family="Times New Roman,serif" font-size="14.00">obama</text>
</g>
<!-- Entity18&#45;&gt;Entity66 -->
<g id="edge21" class="edge verb">
<title>Entity18&#45;&gt;Entity66</title>
<path fill="none" stroke="black" d="M5167.46,-1670.61C5105.36,-1680.23 4973.07,-1700.71 4906.27,-1711.06"/>
<polygon fill="black" stroke="black" points="4905.48,-1707.64 4896.13,-1712.63 4906.55,-1714.56 4905.48,-1707.64"/>
<text text-anchor="start" x="5020.87" y="-1694.64" font-family="Times New Roman,serif" font-size="14.00">isa</text>
</g>
<!-- Entity12 -->
<g id="node27" class="node entity">
<title>Entity12</title>
<ellipse fill="none" stroke="black" cx="5002.77" cy="-2173.3" rx="58.49" ry="18"/>
<text text-anchor="start" x="4965.77" y="-2169.6" font-family="Times New Roman,serif" font-size="14.00">richard nixon</text>
</g>
<!-- Entity12&#45;&gt;Entity66 -->
<g id="edge22" class="edge verb">
<title>Entity12&#45;&gt;Entity66</title>
<path fill="none" stroke="black" d="M4997.32,-2155.15C4976.22,-2084.86 4899.82,-1830.38 4874.27,-1745.26"/>
<polygon fill="black" stroke="black" points="4877.58,-1744.09 4871.35,-1735.52 4870.87,-1746.1 4877.58,-1744.09"/>
<text text-anchor="start" x="4919.79" y="-1954" font-family="Times New Roman,serif" font-size="14.00">isa</text>
</g>
<!-- Entity24 -->
<g id="node29" class="node entity">
<title>Entity24</title>
<ellipse fill="none" stroke="black" cx="2831.75" cy="-1548.94" rx="63.89" ry="18"/>
<text text-anchor="start" x="2790.75" y="-1545.24" font-family="Times New Roman,serif" font-size="14.00">robert bigelow</text>
</g>
<!-- Entity24&#45;&gt;Entity7 -->
<g id="edge25" class="edge verb">
<title>Entity24&#45;&gt;Entity7</title>
<path fill="none" stroke="black" d="M2792.76,-1534.53C2720.45,-1507.8 2565.71,-1450.61 2486.03,-1421.15"/>
<polygon fill="black" stroke="black" points="2486.82,-1417.72 2476.23,-1417.53 2484.39,-1424.28 2486.82,-1417.72"/>
<text text-anchor="start" x="2607.39" y="-1481.64" font-family="Times New Roman,serif" font-size="14.00">funds</text>
</g>
<!-- Entity24&#45;&gt;Entity67 -->
<g id="edge45" class="edge verb">
<title>Entity24&#45;&gt;Entity67</title>
<path fill="none" stroke="black" d="M2855.79,-1565.82C2881.94,-1584.17 2923.89,-1613.62 2952.99,-1634.05"/>
<polygon fill="black" stroke="black" points="2951.01,-1636.94 2961.2,-1639.82 2955.03,-1631.21 2951.01,-1636.94"/>
<text text-anchor="start" x="2840.39" y="-1603.73" font-family="Times New Roman,serif" font-size="14.00">investigates</text>
</g>
<!-- Entity44 -->
<g id="node30" class="node entity">
<title>Entity44</title>
<ellipse fill="none" stroke="black" cx="5509.86" cy="-949.18" rx="58.49" ry="18"/>
<text text-anchor="start" x="5472.86" y="-945.48" font-family="Times New Roman,serif" font-size="14.00">steve bannon</text>
</g>
<!-- Entity44&#45;&gt;Entity15 -->
<g id="edge28" class="edge verb">
<title>Entity44&#45;&gt;Entity15</title>
<path fill="none" stroke="black" d="M5466.47,-961.32C5338.12,-1003.18 4961.37,-1139.97 4834.36,-1190.8"/>
<polygon fill="black" stroke="black" points="4832.91,-1187.61 4824.95,-1194.59 4835.53,-1194.1 4832.91,-1187.61"/>
<text text-anchor="start" x="5095.42" y="-1079.86" font-family="Times New Roman,serif" font-size="14.00">promoted</text>
</g>
<!-- Entity44&#45;&gt;Entity15 -->
<g id="edge64" class="edge verb">
<title>Entity44&#45;&gt;Entity15</title>
<path fill="none" stroke="black" d="M5477.25,-964.29C5363.93,-1010.41 4986.64,-1147.64 4845.71,-1194.3"/>
<polygon fill="black" stroke="black" points="4844.38,-1191.05 4835.98,-1197.5 4846.57,-1197.7 4844.38,-1191.05"/>
<text text-anchor="start" x="5161.48" y="-1083.1" font-family="Times New Roman,serif" font-size="14.00">advises</text>
</g>
<!-- Entity83 -->
<g id="node40" class="node entity">
<title>Entity83</title>
<ellipse fill="none" stroke="black" cx="5489.94" cy="-483.11" rx="61.99" ry="18"/>
<text text-anchor="start" x="5450.44" y="-479.41" font-family="Times New Roman,serif" font-size="14.00">breitbart news</text>
</g>
<!-- Entity44&#45;&gt;Entity83 -->
<g id="edge46" class="edge verb">
<title>Entity44&#45;&gt;Entity83</title>
<path fill="none" stroke="black" d="M5509.08,-930.91C5506.02,-859.41 5494.86,-598.26 5491.15,-511.41"/>
<polygon fill="black" stroke="black" points="5494.64,-511.09 5490.72,-501.25 5487.65,-511.39 5494.64,-511.09"/>
<text text-anchor="start" x="5459.12" y="-724.96" font-family="Times New Roman,serif" font-size="14.00">created</text>
</g>
<!-- Entity89 -->
<g id="node49" class="node entity">
<title>Entity89</title>
<ellipse fill="none" stroke="black" cx="5860.83" cy="-607.86" rx="35.19" ry="18"/>
<text text-anchor="start" x="5841.83" y="-604.16" font-family="Times New Roman,serif" font-size="14.00">gurgev</text>
</g>
<!-- Entity44&#45;&gt;Entity89 -->
<g id="edge53" class="edge verb">
<title>Entity44&#45;&gt;Entity89</title>
<path fill="none" stroke="black" d="M5527.75,-931.79C5586,-875.13 5770.35,-695.86 5836.73,-631.31"/>
<polygon fill="black" stroke="black" points="5839.49,-633.5 5844.22,-624.02 5834.61,-628.48 5839.49,-633.5"/>
<text text-anchor="start" x="5641.24" y="-785.35" font-family="Times New Roman,serif" font-size="14.00">studied</text>
</g>
<!-- Entity91 -->
<g id="node51" class="node entity">
<title>Entity91</title>
<ellipse fill="none" stroke="black" cx="5974.17" cy="-901.33" rx="38.19" ry="18"/>
<text text-anchor="start" x="5952.67" y="-897.63" font-family="Times New Roman,serif" font-size="14.00">us navy</text>
</g>
<!-- Entity44&#45;&gt;Entity91 -->
<g id="edge55" class="edge verb">
<title>Entity44&#45;&gt;Entity91</title>
<path fill="none" stroke="black" d="M5565.4,-943.46C5657.46,-933.97 5840.07,-915.15 5926.58,-906.23"/>
<polygon fill="black" stroke="black" points="5927.06,-909.7 5936.64,-905.19 5926.34,-902.74 5927.06,-909.7"/>
<text text-anchor="start" x="5684.99" y="-928.64" font-family="Times New Roman,serif" font-size="14.00">member of</text>
</g>
<!-- Entity94 -->
<g id="node53" class="node entity">
<title>Entity94</title>
<ellipse fill="none" stroke="black" cx="5686.41" cy="-715.83" rx="53.09" ry="18"/>
<text text-anchor="start" x="5653.41" y="-712.13" font-family="Times New Roman,serif" font-size="14.00">biosphere 2</text>
</g>
<!-- Entity44&#45;&gt;Entity94 -->
<g id="edge57" class="edge verb">
<title>Entity44&#45;&gt;Entity94</title>
<path fill="none" stroke="black" d="M5523.13,-931.64C5553.99,-890.85 5630.73,-789.43 5666.92,-741.59"/>
<polygon fill="black" stroke="black" points="5669.74,-743.66 5672.99,-733.58 5664.16,-739.44 5669.74,-743.66"/>
<text text-anchor="start" x="5554.03" y="-840.42" font-family="Times New Roman,serif" font-size="14.00">created</text>
</g>
<!-- Entity107 -->
<g id="node58" class="node entity">
<title>Entity107</title>
<ellipse fill="none" stroke="black" cx="6101.37" cy="-715.83" rx="77.19" ry="18"/>
<text text-anchor="start" x="6049.87" y="-712.13" font-family="Times New Roman,serif" font-size="14.00">hollywood movies</text>
</g>
<!-- Entity44&#45;&gt;Entity107 -->
<g id="edge61" class="edge verb">
<title>Entity44&#45;&gt;Entity107</title>
<path fill="none" stroke="black" d="M5545.97,-934.93C5647.71,-894.8 5936.8,-780.75 6052.56,-735.09"/>
<polygon fill="black" stroke="black" points="6053.89,-738.33 6061.9,-731.4 6051.32,-731.81 6053.89,-738.33"/>
<text text-anchor="start" x="5744.26" y="-838.81" font-family="Times New Roman,serif" font-size="14.00">produced</text>
</g>
<!-- Entity111 -->
<g id="node59" class="node entity">
<title>Entity111</title>
<ellipse fill="none" stroke="black" cx="6072.21" cy="-1073.47" rx="64.99" ry="18"/>
<text text-anchor="start" x="6030.21" y="-1069.77" font-family="Times New Roman,serif" font-size="14.00">goldman sachs</text>
</g>
<!-- Entity44&#45;&gt;Entity111 -->
<g id="edge66" class="edge verb">
<title>Entity44&#45;&gt;Entity111</title>
<path fill="none" stroke="black" d="M5557.8,-959.78C5659.9,-982.34 5898.65,-1035.11 6011.31,-1060.01"/>
<polygon fill="black" stroke="black" points="6010.64,-1063.44 6021.16,-1062.18 6012.15,-1056.61 6010.64,-1063.44"/>
<text text-anchor="start" x="5721.56" y="-1013.69" font-family="Times New Roman,serif" font-size="14.00">worked for</text>
</g>
<!-- Entity33 -->
<g id="node32" class="node entity">
<title>Entity33</title>
<ellipse fill="none" stroke="black" cx="1565.18" cy="-2813.2" rx="57.69" ry="18"/>
<text text-anchor="start" x="1528.68" y="-2809.5" font-family="Times New Roman,serif" font-size="14.00">michael pane</text>
</g>
<!-- Entity33&#45;&gt;Entity30 -->
<g id="edge47" class="edge verb">
<title>Entity33&#45;&gt;Entity30</title>
<path fill="none" stroke="black" d="M1520.92,-2801.52C1449.16,-2782.58 1307.32,-2745.15 1226.32,-2723.78"/>
<polygon fill="black" stroke="black" points="1226.83,-2720.29 1216.27,-2721.12 1225.05,-2727.06 1226.83,-2720.29"/>
<text text-anchor="start" x="1310.62" y="-2766.45" font-family="Times New Roman,serif" font-size="14.00">worked for</text>
</g>
<!-- Entity33&#45;&gt;Entity72 -->
<g id="edge31" class="edge verb">
<title>Entity33&#45;&gt;Entity72</title>
<path fill="none" stroke="black" d="M1570.49,-2795.16C1591.77,-2722.84 1670.99,-2453.65 1696.81,-2365.92"/>
<polygon fill="black" stroke="black" points="1700.22,-2366.72 1699.68,-2356.14 1693.5,-2364.75 1700.22,-2366.72"/>
<text text-anchor="start" x="1577.65" y="-2584.34" font-family="Times New Roman,serif" font-size="14.00">worked at</text>
</g>
<!-- Entity45 -->
<g id="node33" class="node entity">
<title>Entity45</title>
<ellipse fill="none" stroke="black" cx="5174.22" cy="-1276.73" rx="67.69" ry="18"/>
<text text-anchor="start" x="5130.22" y="-1273.03" font-family="Times New Roman,serif" font-size="14.00">abraham lincoln</text>
</g>
<!-- Entity45&#45;&gt;Entity66 -->
<g id="edge32" class="edge verb">
<title>Entity45&#45;&gt;Entity66</title>
<path fill="none" stroke="black" d="M5161.75,-1294.54C5113.69,-1363.21 4940.35,-1610.9 4883.84,-1691.66"/>
<polygon fill="black" stroke="black" points="4880.7,-1690.03 4877.84,-1700.23 4886.44,-1694.04 4880.7,-1690.03"/>
<text text-anchor="start" x="5006.79" y="-1496.9" font-family="Times New Roman,serif" font-size="14.00">isa</text>
</g>
<!-- Entity38 -->
<g id="node34" class="node entity">
<title>Entity38</title>
<ellipse fill="none" stroke="black" cx="4927.02" cy="-600.01" rx="90.98" ry="18"/>
<text text-anchor="start" x="4865.02" y="-596.31" font-family="Times New Roman,serif" font-size="14.00">emma hardinge&#45;britten</text>
</g>
<!-- Entity38&#45;&gt;Entity45 -->
<g id="edge33" class="edge verb">
<title>Entity38&#45;&gt;Entity45</title>
<path fill="none" stroke="black" d="M4933.63,-618.11C4967.62,-711.16 5122.68,-1135.65 5164.05,-1248.89"/>
<polygon fill="black" stroke="black" points="5160.87,-1250.38 5167.58,-1258.57 5167.44,-1247.98 5160.87,-1250.38"/>
<text text-anchor="start" x="4949.84" y="-937.3" font-family="Times New Roman,serif" font-size="14.00">spokesperson for</text>
</g>
<!-- Entity79 -->
<g id="node38" class="node entity">
<title>Entity79</title>
<ellipse fill="none" stroke="black" cx="5028.23" cy="-18.01" rx="39.79" ry="18"/>
<text text-anchor="start" x="5005.73" y="-14.31" font-family="Times New Roman,serif" font-size="14.00">medium</text>
</g>
<!-- Entity38&#45;&gt;Entity79 -->
<g id="edge38" class="edge verb">
<title>Entity38&#45;&gt;Entity79</title>
<path fill="none" stroke="black" d="M4930.16,-581.95C4944.71,-498.29 5005.62,-148.07 5023.36,-46.03"/>
<polygon fill="black" stroke="black" points="5026.81,-46.6 5025.08,-36.15 5019.92,-45.4 5026.81,-46.6"/>
<text text-anchor="start" x="4960.76" y="-317.79" font-family="Times New Roman,serif" font-size="14.00">isa</text>
</g>
<!-- Entity86 -->
<g id="node48" class="node entity">
<title>Entity86</title>
<ellipse fill="none" stroke="black" cx="4246.45" cy="-473.48" rx="85.29" ry="18"/>
<text text-anchor="start" x="4188.95" y="-469.78" font-family="Times New Roman,serif" font-size="14.00">theosophical society</text>
</g>
<!-- Entity38&#45;&gt;Entity86 -->
<g id="edge65" class="edge verb">
<title>Entity38&#45;&gt;Entity86</title>
<path fill="none" stroke="black" d="M4860.52,-587.65C4732.9,-563.92 4454.46,-512.15 4320.86,-487.31"/>
<polygon fill="black" stroke="black" points="4321.19,-483.81 4310.72,-485.43 4319.92,-490.7 4321.19,-483.81"/>
<text text-anchor="start" x="4549.69" y="-541.28" font-family="Times New Roman,serif" font-size="14.00">created</text>
</g>
<!-- Entity99 -->
<g id="node54" class="node entity">
<title>Entity99</title>
<ellipse fill="none" stroke="black" cx="4897.16" cy="-491.92" rx="55.79" ry="18"/>
<text text-anchor="start" x="4862.16" y="-488.22" font-family="Times New Roman,serif" font-size="14.00">orphic circle</text>
</g>
<!-- Entity38&#45;&gt;Entity99 -->
<g id="edge58" class="edge verb">
<title>Entity38&#45;&gt;Entity99</title>
<path fill="none" stroke="black" d="M4921.95,-581.67C4917.27,-564.72 4910.25,-539.29 4904.87,-519.82"/>
<polygon fill="black" stroke="black" points="4908.19,-518.69 4902.15,-509.98 4901.44,-520.55 4908.19,-518.69"/>
<text text-anchor="start" x="4852.41" y="-554.55" font-family="Times New Roman,serif" font-size="14.00">member of</text>
</g>
<!-- Entity42 -->
<g id="node36" class="node entity">
<title>Entity42</title>
<ellipse fill="none" stroke="black" cx="3357.94" cy="-1433.66" rx="53.89" ry="18"/>
<text text-anchor="start" x="3324.44" y="-1429.96" font-family="Times New Roman,serif" font-size="14.00">black magic</text>
</g>
<!-- Entity81 -->
<g id="node37" class="node entity">
<title>Entity81</title>
<ellipse fill="none" stroke="black" cx="3445.66" cy="-1545.64" rx="28.7" ry="18"/>
<text text-anchor="start" x="3431.66" y="-1541.94" font-family="Times New Roman,serif" font-size="14.00">x left</text>
</g>
<!-- Entity42&#45;&gt;Entity81 -->
<g id="edge37" class="edge verb">
<title>Entity42&#45;&gt;Entity81</title>
<path fill="none" stroke="black" d="M3371.64,-1451.16C3386.45,-1470.05 3410.14,-1500.29 3426.72,-1521.45"/>
<polygon fill="black" stroke="black" points="3423.98,-1523.64 3432.9,-1529.36 3429.49,-1519.32 3423.98,-1523.64"/>
<text text-anchor="start" x="3338.18" y="-1490.11" font-family="Times New Roman,serif" font-size="14.00">member of</text>
</g>
<!-- Entity47 -->
<g id="node39" class="node entity">
<title>Entity47</title>
<ellipse fill="none" stroke="black" cx="5534.51" cy="-375.2" rx="69.59" ry="18"/>
<text text-anchor="start" x="5489.01" y="-371.5" font-family="Times New Roman,serif" font-size="14.00">andrew breitbart</text>
</g>
<!-- Entity47&#45;&gt;Entity83 -->
<g id="edge39" class="edge verb">
<title>Entity47&#45;&gt;Entity83</title>
<path fill="none" stroke="black" d="M5526.95,-393.5C5519.9,-410.58 5509.28,-436.28 5501.23,-455.79"/>
<polygon fill="black" stroke="black" points="5497.98,-454.49 5497.39,-465.07 5504.45,-457.17 5497.98,-454.49"/>
<text text-anchor="start" x="5473.09" y="-428.45" font-family="Times New Roman,serif" font-size="14.00">created</text>
</g>
<!-- Entity35 -->
<g id="node42" class="node entity">
<title>Entity35</title>
<ellipse fill="none" stroke="black" cx="3579.94" cy="-2141.66" rx="39.79" ry="18"/>
<text text-anchor="start" x="3557.44" y="-2137.96" font-family="Times New Roman,serif" font-size="14.00">crowley</text>
</g>
<!-- Entity80 -->
<g id="node43" class="node entity">
<title>Entity80</title>
<ellipse fill="none" stroke="black" cx="3667.66" cy="-2253.64" rx="38.99" ry="18"/>
<text text-anchor="start" x="3645.66" y="-2249.94" font-family="Times New Roman,serif" font-size="14.00">x magic</text>
</g>
<!-- Entity35&#45;&gt;Entity80 -->
<g id="edge41" class="edge verb">
<title>Entity35&#45;&gt;Entity80</title>
<path fill="none" stroke="black" d="M3593.26,-2158.67C3607.82,-2177.25 3631.28,-2207.2 3647.96,-2228.49"/>
<polygon fill="black" stroke="black" points="3645.29,-2230.76 3654.21,-2236.47 3650.8,-2226.44 3645.29,-2230.76"/>
<text text-anchor="start" x="3559.61" y="-2197.38" font-family="Times New Roman,serif" font-size="14.00">member of</text>
</g>
<!-- Entity19 -->
<g id="node44" class="node entity">
<title>Entity19</title>
<ellipse fill="none" stroke="black" cx="4476.96" cy="-1645.96" rx="31.4" ry="18"/>
<text text-anchor="start" x="4460.96" y="-1642.26" font-family="Times New Roman,serif" font-size="14.00">carter</text>
</g>
<!-- Entity19&#45;&gt;Entity66 -->
<g id="edge44" class="edge verb">
<title>Entity19&#45;&gt;Entity66</title>
<path fill="none" stroke="black" d="M4506.83,-1651.44C4576.12,-1664.15 4747.79,-1695.65 4825.96,-1709.99"/>
<polygon fill="black" stroke="black" points="4825.44,-1713.45 4835.91,-1711.81 4826.71,-1706.56 4825.44,-1713.45"/>
<text text-anchor="start" x="4650.4" y="-1684.52" font-family="Times New Roman,serif" font-size="14.00">isa</text>
</g>
<!-- Entity19&#45;&gt;Entity90 -->
<g id="edge56" class="edge verb">
<title>Entity19&#45;&gt;Entity90</title>
<path fill="none" stroke="black" d="M4445.57,-1645.97C4372.1,-1646 4189.25,-1646.06 4110.09,-1646.09"/>
<polygon fill="black" stroke="black" points="4109.63,-1642.59 4099.63,-1646.09 4109.63,-1649.59 4109.63,-1642.59"/>
<text text-anchor="start" x="4222.83" y="-1649.83" font-family="Times New Roman,serif" font-size="14.00">witnessed</text>
</g>
<!-- Entity27 -->
<g id="node45" class="node entity">
<title>Entity27</title>
<ellipse fill="none" stroke="black" cx="75.31" cy="-1516.32" rx="75.29" ry="18"/>
<text text-anchor="start" x="25.31" y="-1512.62" font-family="Times New Roman,serif" font-size="14.00">lee harvey oswald</text>
</g>
<!-- Entity34 -->
<g id="node46" class="node entity">
<title>Entity34</title>
<ellipse fill="none" stroke="black" cx="95.66" cy="-1624.38" rx="59.29" ry="18"/>
<text text-anchor="start" x="58.16" y="-1620.68" font-family="Times New Roman,serif" font-size="14.00">guy bannister</text>
</g>
<!-- Entity27&#45;&gt;Entity34 -->
<g id="edge50" class="edge verb">
<title>Entity27&#45;&gt;Entity34</title>
<path fill="none" stroke="black" d="M78.76,-1534.65C81.95,-1551.6 86.74,-1577.02 90.41,-1596.49"/>
<polygon fill="black" stroke="black" points="86.97,-1597.14 92.26,-1606.32 93.85,-1595.84 86.97,-1597.14"/>
<text text-anchor="start" x="21.59" y="-1569.37" font-family="Times New Roman,serif" font-size="14.00">worked for</text>
</g>
<!-- Entity34&#45;&gt;Entity75 -->
<g id="edge51" class="edge verb">
<title>Entity34&#45;&gt;Entity75</title>
<path fill="none" stroke="black" d="M102.76,-1642.34C132.24,-1716.99 245.21,-2003.03 280.87,-2093.33"/>
<polygon fill="black" stroke="black" points="277.71,-2094.86 284.64,-2102.87 284.22,-2092.28 277.71,-2094.86"/>
<text text-anchor="start" x="130.81" y="-1871.63" font-family="Times New Roman,serif" font-size="14.00">member of</text>
</g>
<!-- Entity64 -->
<g id="node47" class="node entity">
<title>Entity64</title>
<ellipse fill="none" stroke="black" cx="4163.39" cy="-365.4" rx="73.39" ry="18"/>
<text text-anchor="start" x="4114.89" y="-361.7" font-family="Times New Roman,serif" font-size="14.00">madam blavatsky</text>
</g>
<!-- Entity64&#45;&gt;Entity86 -->
<g id="edge52" class="edge verb">
<title>Entity64&#45;&gt;Entity86</title>
<path fill="none" stroke="black" d="M4177.1,-383.25C4190.57,-400.77 4211.26,-427.69 4226.54,-447.56"/>
<polygon fill="black" stroke="black" points="4223.85,-449.81 4232.71,-455.6 4229.4,-445.54 4223.85,-449.81"/>
<text text-anchor="start" x="4160.82" y="-419.21" font-family="Times New Roman,serif" font-size="14.00">created</text>
</g>
<!-- Entity60 -->
<g id="node56" class="node entity">
<title>Entity60</title>
<ellipse fill="none" stroke="black" cx="3693.35" cy="-357.63" rx="58.49" ry="18"/>
<text text-anchor="start" x="3656.35" y="-353.93" font-family="Times New Roman,serif" font-size="14.00">rudolf steiner</text>
</g>
<!-- Entity60&#45;&gt;Entity86 -->
<g id="edge63" class="edge verb">
<title>Entity60&#45;&gt;Entity86</title>
<path fill="none" stroke="black" d="M3741.95,-367.81C3839.95,-388.34 4061.64,-434.77 4175.71,-458.66"/>
<polygon fill="black" stroke="black" points="4175.23,-462.14 4185.74,-460.76 4176.67,-455.28 4175.23,-462.14"/>
<text text-anchor="start" x="3892.83" y="-417.04" font-family="Times New Roman,serif" font-size="14.00">memberr of</text>
</g>
<!-- Entity93 -->
<g id="node57" class="node entity">
<title>Entity93</title>
<ellipse fill="none" stroke="black" cx="3537.71" cy="-249.68" rx="102.08" ry="18"/>
<text text-anchor="start" x="3467.21" y="-245.98" font-family="Times New Roman,serif" font-size="14.00">anthroposophical society</text>
</g>
<!-- Entity60&#45;&gt;Entity93 -->
<g id="edge60" class="edge verb">
<title>Entity60&#45;&gt;Entity93</title>
<path fill="none" stroke="black" d="M3669.37,-341C3643.14,-322.81 3600.9,-293.51 3571.36,-273.02"/>
<polygon fill="black" stroke="black" points="3573.22,-270.05 3563.01,-267.23 3569.23,-275.8 3573.22,-270.05"/>
<text text-anchor="start" x="3579.37" y="-310.81" font-family="Times New Roman,serif" font-size="14.00">created</text>
</g>
<!-- Entity109 -->
<g id="node60" class="node entity">
<title>Entity109</title>
<ellipse fill="none" stroke="black" cx="2858.94" cy="-1197.66" rx="27" ry="18"/>
<text text-anchor="start" x="2855.44" y="-1193.96" font-family="Times New Roman,serif" font-size="14.00">s</text>
</g>
<!-- Entity112 -->
<g id="node61" class="node entity">
<title>Entity112</title>
<ellipse fill="none" stroke="black" cx="2946.66" cy="-1309.64" rx="27" ry="18"/>
<text text-anchor="start" x="2942.66" y="-1305.94" font-family="Times New Roman,serif" font-size="14.00">o</text>
</g>
<!-- Entity109&#45;&gt;Entity112 -->
<g id="edge67" class="edge verb">
<title>Entity109&#45;&gt;Entity112</title>
<path fill="none" stroke="black" d="M2871.51,-1213.7C2886.23,-1232.5 2910.76,-1263.82 2927.78,-1285.53"/>
<polygon fill="black" stroke="black" points="2925.19,-1287.91 2934.11,-1293.62 2930.7,-1283.59 2925.19,-1287.91"/>
<text text-anchor="start" x="2892.64" y="-1253.42" font-family="Times New Roman,serif" font-size="14.00">v</text>
</g>
</g>
</svg>
