<?xml version="1.0" encoding="UTF-8" standalone="no"?>
<?xml-stylesheet href="./styles.css" type="text/css"?>
<!DOCTYPE svg PUBLIC "-//W3C//DTD SVG 1.1//EN"
 "http://www.w3.org/Graphics/SVG/1.1/DTD/svg11.dtd">
<!-- Generated by graphviz version 2.47.3 (20210619.1520)
 -->
<!-- Title: G Pages: 1 -->
<svg width="7228pt" height="3744pt"
 viewBox="0.00 0.00 7228.00 3744.00" xmlns="http://www.w3.org/2000/svg" xmlns:xlink="http://www.w3.org/1999/xlink">
<g id="graph0" class="graph" transform="scale(1 1) rotate(0) translate(4 3740)">
<title>G</title>
<polygon fill="white" stroke="transparent" points="-4,4 -4,-3740 7224,-3740 7224,4 -4,4"/>
<!-- Entity3 -->
<g id="node1" class="node entity">
<title>Entity3</title>
<ellipse fill="none" stroke="black" cx="4555.36" cy="-1416.81" rx="64.19" ry="18"/>
<text text-anchor="start" x="4513.86" y="-1413.11" font-family="Times New Roman,serif" font-size="14.00">john f kennedy</text>
</g>
<!-- Entity22 -->
<g id="node2" class="node entity">
<title>Entity22</title>
<ellipse fill="none" stroke="black" cx="4350.6" cy="-1087.11" rx="27" ry="18"/>
<text text-anchor="start" x="4342.6" y="-1083.41" font-family="Times New Roman,serif" font-size="14.00">cia</text>
</g>
<!-- Entity3&#45;&gt;Entity22 -->
<g id="edge1" class="edge verb">
<title>Entity3&#45;&gt;Entity22</title>
<path fill="none" stroke="black" d="M4544.05,-1398.61C4509.7,-1343.29 4406.39,-1176.93 4366.53,-1112.75"/>
<polygon fill="black" stroke="black" points="4369.37,-1110.7 4361.12,-1104.05 4363.43,-1114.39 4369.37,-1110.7"/>
<text text-anchor="start" x="4351.29" y="-1259.48" font-family="Times New Roman,serif" font-size="14.00">heads (1961&#45;1963)</text>
</g>
<!-- Entity66 -->
<g id="node20" class="node entity">
<title>Entity66</title>
<ellipse fill="none" stroke="black" cx="4726.03" cy="-1855.58" rx="31.4" ry="18"/>
<text text-anchor="start" x="4710.03" y="-1851.88" font-family="Times New Roman,serif" font-size="14.00">potus</text>
</g>
<!-- Entity3&#45;&gt;Entity66 -->
<g id="edge23" class="edge verb">
<title>Entity3&#45;&gt;Entity66</title>
<path fill="none" stroke="black" d="M4562.36,-1434.83C4588.92,-1503.1 4683.45,-1746.13 4715.39,-1828.24"/>
<polygon fill="black" stroke="black" points="4712.17,-1829.6 4719.05,-1837.66 4718.69,-1827.07 4712.17,-1829.6"/>
<text text-anchor="start" x="4551.88" y="-1635.34" font-family="Times New Roman,serif" font-size="14.00">isa (1961&#45;1963)</text>
</g>
<!-- Entity67 -->
<g id="node25" class="node entity">
<title>Entity67</title>
<ellipse fill="none" stroke="black" cx="3705.44" cy="-1105.25" rx="77.19" ry="18"/>
<text text-anchor="start" x="3653.94" y="-1101.55" font-family="Times New Roman,serif" font-size="14.00">psi&#45;consciousness</text>
</g>
<!-- Entity22&#45;&gt;Entity67 -->
<g id="edge43" class="edge verb">
<title>Entity22&#45;&gt;Entity67</title>
<path fill="none" stroke="black" d="M4323.29,-1087.88C4232.89,-1090.42 3940.7,-1098.63 3792.85,-1102.79"/>
<polygon fill="black" stroke="black" points="3792.36,-1099.3 3782.46,-1103.08 3792.56,-1106.3 3792.36,-1099.3"/>
<text text-anchor="start" x="3994.07" y="-1099.13" font-family="Times New Roman,serif" font-size="14.00">investigates</text>
</g>
<!-- Entity90 -->
<g id="node52" class="node entity">
<title>Entity90</title>
<ellipse fill="none" stroke="black" cx="4648.28" cy="-1215.24" rx="27" ry="18"/>
<text text-anchor="start" x="4638.78" y="-1211.54" font-family="Times New Roman,serif" font-size="14.00">ufo</text>
</g>
<!-- Entity22&#45;&gt;Entity90 -->
<g id="edge62" class="edge verb">
<title>Entity22&#45;&gt;Entity90</title>
<path fill="none" stroke="black" d="M4373.47,-1096.95C4425.95,-1119.54 4555.22,-1175.18 4615.87,-1201.29"/>
<polygon fill="black" stroke="black" points="4614.77,-1204.63 4625.34,-1205.36 4617.54,-1198.2 4614.77,-1204.63"/>
<text text-anchor="start" x="4430.67" y="-1152.92" font-family="Times New Roman,serif" font-size="14.00">investigates</text>
</g>
<!-- Entity14 -->
<g id="node3" class="node entity">
<title>Entity14</title>
<ellipse fill="none" stroke="black" cx="3025.56" cy="-589.52" rx="74.99" ry="18"/>
<text text-anchor="start" x="2976.06" y="-585.82" font-family="Times New Roman,serif" font-size="14.00">gene roddenberry</text>
</g>
<!-- Entity8 -->
<g id="node4" class="node entity">
<title>Entity8</title>
<ellipse fill="none" stroke="black" cx="3015.34" cy="-697.49" rx="38.19" ry="18"/>
<text text-anchor="start" x="2993.84" y="-693.79" font-family="Times New Roman,serif" font-size="14.00">the nine</text>
</g>
<!-- Entity14&#45;&gt;Entity8 -->
<g id="edge2" class="edge verb">
<title>Entity14&#45;&gt;Entity8</title>
<path fill="none" stroke="black" d="M3023.82,-607.83C3022.23,-624.69 3019.84,-649.94 3018,-669.35"/>
<polygon fill="black" stroke="black" points="3014.5,-669.16 3017.04,-679.45 3021.47,-669.82 3014.5,-669.16"/>
<text text-anchor="start" x="2916.91" y="-642.39" font-family="Times New Roman,serif" font-size="14.00">claiemd to channel</text>
</g>
<!-- Entity70 -->
<g id="node23" class="node entity">
<title>Entity70</title>
<ellipse fill="none" stroke="black" cx="2709.29" cy="-190.84" rx="94.48" ry="18"/>
<text text-anchor="start" x="2644.79" y="-187.14" font-family="Times New Roman,serif" font-size="14.00">egyptian gods in a ship</text>
</g>
<!-- Entity8&#45;&gt;Entity70 -->
<g id="edge16" class="edge verb">
<title>Entity8&#45;&gt;Entity70</title>
<path fill="none" stroke="black" d="M3004.8,-680.05C2959.38,-604.86 2780.1,-308.07 2725.29,-217.33"/>
<polygon fill="black" stroke="black" points="2728.26,-215.48 2720.1,-208.73 2722.27,-219.1 2728.26,-215.48"/>
<text text-anchor="start" x="2761.05" y="-452.49" font-family="Times New Roman,serif" font-size="14.00">claimed to channel</text>
</g>
<!-- Entity16 -->
<g id="node5" class="node entity">
<title>Entity16</title>
<ellipse fill="none" stroke="black" cx="4323.5" cy="-1978.17" rx="68.49" ry="18"/>
<text text-anchor="start" x="4279" y="-1974.47" font-family="Times New Roman,serif" font-size="14.00">george hw bush</text>
</g>
<!-- Entity20 -->
<g id="node6" class="node entity">
<title>Entity20</title>
<ellipse fill="none" stroke="black" cx="4405.54" cy="-2086.15" rx="63.89" ry="18"/>
<text text-anchor="start" x="4364.54" y="-2082.45" font-family="Times New Roman,serif" font-size="14.00">george w bush</text>
</g>
<!-- Entity16&#45;&gt;Entity20 -->
<g id="edge3" class="edge verb">
<title>Entity16&#45;&gt;Entity20</title>
<path fill="none" stroke="black" d="M4337.04,-1996C4350.34,-2013.51 4370.78,-2040.4 4385.87,-2060.26"/>
<polygon fill="black" stroke="black" points="4383.13,-2062.45 4391.97,-2068.29 4388.71,-2058.21 4383.13,-2062.45"/>
<text text-anchor="start" x="4329.45" y="-2031.93" font-family="Times New Roman,serif" font-size="14.00">father</text>
</g>
<!-- Entity16&#45;&gt;Entity66 -->
<g id="edge20" class="edge verb">
<title>Entity16&#45;&gt;Entity66</title>
<path fill="none" stroke="black" d="M4368.5,-1964.47C4448.44,-1940.12 4613.79,-1889.76 4688.24,-1867.09"/>
<polygon fill="black" stroke="black" points="4689.58,-1870.34 4698.13,-1864.08 4687.54,-1863.64 4689.58,-1870.34"/>
<text text-anchor="start" x="4512.37" y="-1919.58" font-family="Times New Roman,serif" font-size="14.00">isa</text>
</g>
<!-- Entity20&#45;&gt;Entity66 -->
<g id="edge42" class="edge verb">
<title>Entity20&#45;&gt;Entity66</title>
<path fill="none" stroke="black" d="M4428.84,-2069.38C4486.49,-2027.91 4635.57,-1920.66 4697.94,-1875.79"/>
<polygon fill="black" stroke="black" points="4700.07,-1878.57 4706.15,-1869.88 4695.99,-1872.88 4700.07,-1878.57"/>
<text text-anchor="start" x="4547.39" y="-1976.39" font-family="Times New Roman,serif" font-size="14.00">isa</text>
</g>
<!-- Entity2 -->
<g id="node7" class="node entity">
<title>Entity2</title>
<ellipse fill="none" stroke="black" cx="3374.68" cy="-518.09" rx="41.69" ry="18"/>
<text text-anchor="start" x="3350.68" y="-514.39" font-family="Times New Roman,serif" font-size="14.00">uri geller</text>
</g>
<!-- Entity2&#45;&gt;Entity8 -->
<g id="edge4" class="edge verb">
<title>Entity2&#45;&gt;Entity8</title>
<path fill="none" stroke="black" d="M3347.38,-531.73C3283.11,-563.81 3122.33,-644.08 3050.71,-679.83"/>
<polygon fill="black" stroke="black" points="3049.01,-676.77 3041.62,-684.37 3052.13,-683.04 3049.01,-676.77"/>
<text text-anchor="start" x="3199.04" y="-609.58" font-family="Times New Roman,serif" font-size="14.00">claiemd to channel</text>
</g>
<!-- Entity26 -->
<g id="node8" class="node entity">
<title>Entity26</title>
<ellipse fill="none" stroke="black" cx="904.78" cy="-2871.79" rx="49.29" ry="18"/>
<text text-anchor="start" x="874.78" y="-2868.09" font-family="Times New Roman,serif" font-size="14.00">adolf hitler</text>
</g>
<!-- Entity28 -->
<g id="node9" class="node entity">
<title>Entity28</title>
<ellipse fill="none" stroke="black" cx="1303.31" cy="-2784.65" rx="32.49" ry="18"/>
<text text-anchor="start" x="1286.31" y="-2780.95" font-family="Times New Roman,serif" font-size="14.00">nsdap</text>
</g>
<!-- Entity26&#45;&gt;Entity28 -->
<g id="edge5" class="edge verb">
<title>Entity26&#45;&gt;Entity28</title>
<path fill="none" stroke="black" d="M947.43,-2862.46C1024.81,-2845.54 1187.32,-2810.01 1262.97,-2793.47"/>
<polygon fill="black" stroke="black" points="1264.03,-2796.82 1273.05,-2791.26 1262.53,-2789.98 1264.03,-2796.82"/>
<text text-anchor="start" x="1064.2" y="-2831.77" font-family="Times New Roman,serif" font-size="14.00">created</text>
</g>
<!-- Entity75 -->
<g id="node31" class="node entity">
<title>Entity75</title>
<ellipse fill="none" stroke="black" cx="953.84" cy="-3093.09" rx="38.99" ry="18"/>
<text text-anchor="start" x="931.84" y="-3089.39" font-family="Times New Roman,serif" font-size="14.00">far right</text>
</g>
<!-- Entity28&#45;&gt;Entity75 -->
<g id="edge29" class="edge verb">
<title>Entity28&#45;&gt;Entity75</title>
<path fill="none" stroke="black" d="M1285.98,-2799.94C1229.07,-2850.17 1047.69,-3010.26 979.81,-3070.17"/>
<polygon fill="black" stroke="black" points="977.29,-3067.72 972.11,-3076.96 981.93,-3072.97 977.29,-3067.72"/>
<text text-anchor="start" x="1071.89" y="-2938.86" font-family="Times New Roman,serif" font-size="14.00">member of</text>
</g>
<!-- Entity15 -->
<g id="node10" class="node entity">
<title>Entity15</title>
<ellipse fill="none" stroke="black" cx="5288.19" cy="-1481.58" rx="59.59" ry="18"/>
<text text-anchor="start" x="5250.19" y="-1477.88" font-family="Times New Roman,serif" font-size="14.00">donald trump</text>
</g>
<!-- Entity48 -->
<g id="node11" class="node entity">
<title>Entity48</title>
<ellipse fill="none" stroke="black" cx="4854.27" cy="-1075.93" rx="50.09" ry="18"/>
<text text-anchor="start" x="4823.77" y="-1072.23" font-family="Times New Roman,serif" font-size="14.00">john trump</text>
</g>
<!-- Entity15&#45;&gt;Entity48 -->
<g id="edge6" class="edge verb">
<title>Entity15&#45;&gt;Entity48</title>
<path fill="none" stroke="black" d="M5269.82,-1464.41C5201.2,-1400.26 4959.75,-1174.54 4880.03,-1100.01"/>
<polygon fill="black" stroke="black" points="4882.1,-1097.15 4872.4,-1092.88 4877.32,-1102.26 4882.1,-1097.15"/>
<text text-anchor="start" x="5015.92" y="-1286.01" font-family="Times New Roman,serif" font-size="14.00">nephew of</text>
</g>
<!-- Entity15&#45;&gt;Entity66 -->
<g id="edge27" class="edge verb">
<title>Entity15&#45;&gt;Entity66</title>
<path fill="none" stroke="black" d="M5263.31,-1498.13C5171.71,-1559.07 4853.54,-1770.75 4755.21,-1836.17"/>
<polygon fill="black" stroke="black" points="4753.04,-1833.41 4746.65,-1841.86 4756.92,-1839.23 4753.04,-1833.41"/>
<text text-anchor="start" x="4993.26" y="-1670.95" font-family="Times New Roman,serif" font-size="14.00">isa</text>
</g>
<!-- Entity48&#45;&gt;Entity22 -->
<g id="edge10" class="edge verb">
<title>Entity48&#45;&gt;Entity22</title>
<path fill="none" stroke="black" d="M4804.14,-1077.04C4703.12,-1079.28 4477.13,-1084.3 4387.88,-1086.28"/>
<polygon fill="black" stroke="black" points="4387.62,-1082.79 4377.7,-1086.51 4387.77,-1089.78 4387.62,-1082.79"/>
<text text-anchor="start" x="4535.01" y="-1085.46" font-family="Times New Roman,serif" font-size="14.00">member of</text>
</g>
<!-- Entity82 -->
<g id="node41" class="node entity">
<title>Entity82</title>
<ellipse fill="none" stroke="black" cx="5091.26" cy="-659.79" rx="50.89" ry="18"/>
<text text-anchor="start" x="5060.26" y="-656.09" font-family="Times New Roman,serif" font-size="14.00">nikola tesla</text>
</g>
<!-- Entity48&#45;&gt;Entity82 -->
<g id="edge40" class="edge verb">
<title>Entity48&#45;&gt;Entity82</title>
<path fill="none" stroke="black" d="M4864.45,-1058.05C4901.83,-992.42 5031.58,-764.58 5076.12,-686.38"/>
<polygon fill="black" stroke="black" points="5079.21,-688.03 5081.11,-677.61 5073.12,-684.56 5079.21,-688.03"/>
<text text-anchor="start" x="4929.29" y="-876.01" font-family="Times New Roman,serif" font-size="14.00">studied</text>
</g>
<!-- Entity5 -->
<g id="node12" class="node entity">
<title>Entity5</title>
<ellipse fill="none" stroke="black" cx="2924.79" cy="-1297.53" rx="65.79" ry="18"/>
<text text-anchor="start" x="2882.29" y="-1293.83" font-family="Times New Roman,serif" font-size="14.00">arthur m young</text>
</g>
<!-- Entity5&#45;&gt;Entity8 -->
<g id="edge7" class="edge verb">
<title>Entity5&#45;&gt;Entity8</title>
<path fill="none" stroke="black" d="M2927.55,-1279.25C2940.5,-1193.41 2995.3,-830.25 3011.07,-725.74"/>
<polygon fill="black" stroke="black" points="3014.57,-726.05 3012.6,-715.64 3007.65,-725 3014.57,-726.05"/>
<text text-anchor="start" x="2907.31" y="-1006.29" font-family="Times New Roman,serif" font-size="14.00">member&#45;of</text>
</g>
<!-- Entity5&#45;&gt;Entity67 -->
<g id="edge18" class="edge verb">
<title>Entity5&#45;&gt;Entity67</title>
<path fill="none" stroke="black" d="M2973.92,-1285.43C3109.77,-1251.97 3490.44,-1158.21 3642.01,-1120.87"/>
<polygon fill="black" stroke="black" points="3643.22,-1124.18 3652.09,-1118.39 3641.54,-1117.38 3643.22,-1124.18"/>
<text text-anchor="start" x="3266.96" y="-1206.95" font-family="Times New Roman,serif" font-size="14.00">studied</text>
</g>
<!-- Entity72 -->
<g id="node28" class="node entity">
<title>Entity72</title>
<ellipse fill="none" stroke="black" cx="2349.15" cy="-1812.81" rx="53.89" ry="18"/>
<text text-anchor="start" x="2315.65" y="-1809.11" font-family="Times New Roman,serif" font-size="14.00">bell aviation</text>
</g>
<!-- Entity5&#45;&gt;Entity72 -->
<g id="edge24" class="edge verb">
<title>Entity5&#45;&gt;Entity72</title>
<path fill="none" stroke="black" d="M2905.31,-1314.97C2819.44,-1391.83 2474.68,-1700.44 2375.78,-1788.96"/>
<polygon fill="black" stroke="black" points="2373.16,-1786.62 2368.04,-1795.9 2377.82,-1791.84 2373.16,-1786.62"/>
<text text-anchor="start" x="2599.54" y="-1555.77" font-family="Times New Roman,serif" font-size="14.00">created</text>
</g>
<!-- Entity1 -->
<g id="node13" class="node entity">
<title>Entity1</title>
<ellipse fill="none" stroke="black" cx="3329.94" cy="-18.04" rx="64.19" ry="18"/>
<text text-anchor="start" x="3288.44" y="-14.34" font-family="Times New Roman,serif" font-size="14.00">andre puharich</text>
</g>
<!-- Entity1&#45;&gt;Entity2 -->
<g id="edge8" class="edge verb">
<title>Entity1&#45;&gt;Entity2</title>
<path fill="none" stroke="black" d="M3331.56,-36.13C3338.28,-111.18 3363.96,-398.29 3372.15,-489.86"/>
<polygon fill="black" stroke="black" points="3368.69,-490.38 3373.06,-500.03 3375.66,-489.75 3368.69,-490.38"/>
<text text-anchor="start" x="3291.86" y="-266.79" font-family="Times New Roman,serif" font-size="14.00">sponsored</text>
</g>
<!-- Entity7 -->
<g id="node14" class="node entity">
<title>Entity7</title>
<ellipse fill="none" stroke="black" cx="3667.38" cy="-997.22" rx="68.49" ry="18"/>
<text text-anchor="start" x="3622.88" y="-993.52" font-family="Times New Roman,serif" font-size="14.00">jeffrey mishlove</text>
</g>
<!-- Entity7&#45;&gt;Entity2 -->
<g id="edge9" class="edge verb">
<title>Entity7&#45;&gt;Entity2</title>
<path fill="none" stroke="black" d="M3656.44,-979.31C3611.83,-906.29 3443.54,-630.81 3390.67,-544.27"/>
<polygon fill="black" stroke="black" points="3393.56,-542.29 3385.36,-535.59 3387.59,-545.94 3393.56,-542.29"/>
<text text-anchor="start" x="3468.56" y="-765.59" font-family="Times New Roman,serif" font-size="14.00">promoted</text>
</g>
<!-- Entity7&#45;&gt;Entity67 -->
<g id="edge19" class="edge verb">
<title>Entity7&#45;&gt;Entity67</title>
<path fill="none" stroke="black" d="M3668.44,-1015.29C3672.47,-1032.38 3681.19,-1058.21 3689.33,-1077.83"/>
<polygon fill="black" stroke="black" points="3686.19,-1079.38 3693.38,-1087.16 3692.61,-1076.6 3686.19,-1079.38"/>
<text text-anchor="start" x="3637.88" y="-1050.36" font-family="Times New Roman,serif" font-size="14.00">studied</text>
</g>
<!-- Entity7&#45;&gt;Entity67 -->
<g id="edge26" class="edge verb">
<title>Entity7&#45;&gt;Entity67</title>
<path fill="none" stroke="black" d="M3679.42,-1015.25C3687.14,-1032.15 3696.3,-1057.64 3701.79,-1077.19"/>
<polygon fill="black" stroke="black" points="3698.45,-1078.28 3704.36,-1087.08 3705.23,-1076.52 3698.45,-1078.28"/>
<text text-anchor="start" x="3626.61" y="-1035.02" font-family="Times New Roman,serif" font-size="14.00">investigates</text>
</g>
<!-- Entity30 -->
<g id="node15" class="node entity">
<title>Entity30</title>
<ellipse fill="none" stroke="black" cx="1831.69" cy="-2381.37" rx="74.99" ry="18"/>
<text text-anchor="start" x="1782.19" y="-2377.67" font-family="Times New Roman,serif" font-size="14.00">walter dornberger</text>
</g>
<!-- Entity30&#45;&gt;Entity28 -->
<g id="edge11" class="edge verb">
<title>Entity30&#45;&gt;Entity28</title>
<path fill="none" stroke="black" d="M1808.99,-2398.7C1723.75,-2463.76 1422.98,-2693.31 1330.54,-2763.87"/>
<polygon fill="black" stroke="black" points="1328.33,-2761.15 1322.5,-2770 1332.57,-2766.71 1328.33,-2761.15"/>
<text text-anchor="start" x="1508.76" y="-2585.08" font-family="Times New Roman,serif" font-size="14.00">member of</text>
</g>
<!-- Entity30&#45;&gt;Entity72 -->
<g id="edge35" class="edge verb">
<title>Entity30&#45;&gt;Entity72</title>
<path fill="none" stroke="black" d="M1851.17,-2363.92C1933.11,-2281.87 2248.6,-1935.35 2329.97,-1838.18"/>
<polygon fill="black" stroke="black" points="2332.79,-1840.27 2336.48,-1830.34 2327.4,-1835.8 2332.79,-1840.27"/>
<text text-anchor="start" x="2011.57" y="-2104.85" font-family="Times New Roman,serif" font-size="14.00">vice&#45;president</text>
</g>
<!-- Entity30&#45;&gt;Entity72 -->
<g id="edge49" class="edge verb">
<title>Entity30&#45;&gt;Entity72</title>
<path fill="none" stroke="black" d="M1844.54,-2363.63C1912.51,-2280.73 2229.28,-1932.37 2323.02,-1836.99"/>
<polygon fill="black" stroke="black" points="2325.58,-1839.38 2330.13,-1829.81 2320.61,-1834.45 2325.58,-1839.38"/>
<text text-anchor="start" x="2027.78" y="-2089.11" font-family="Times New Roman,serif" font-size="14.00">worked at</text>
</g>
<!-- Entity76 -->
<g id="node35" class="node entity">
<title>Entity76</title>
<ellipse fill="none" stroke="black" cx="1235.82" cy="-2500.58" rx="90.98" ry="18"/>
<text text-anchor="start" x="1173.82" y="-2496.88" font-family="Times New Roman,serif" font-size="14.00">nsdap rocket program</text>
</g>
<!-- Entity30&#45;&gt;Entity76 -->
<g id="edge36" class="edge verb">
<title>Entity30&#45;&gt;Entity76</title>
<path fill="none" stroke="black" d="M1774.02,-2392.91C1665.35,-2414.65 1430.44,-2461.65 1310.12,-2485.72"/>
<polygon fill="black" stroke="black" points="1309.37,-2482.3 1300.25,-2487.69 1310.75,-2489.16 1309.37,-2482.3"/>
<text text-anchor="start" x="1501.07" y="-2443.11" font-family="Times New Roman,serif" font-size="14.00">created</text>
</g>
<!-- Entity104 -->
<g id="node55" class="node entity">
<title>Entity104</title>
<ellipse fill="none" stroke="black" cx="1886.31" cy="-2489.29" rx="65.79" ry="18"/>
<text text-anchor="start" x="1843.81" y="-2485.59" font-family="Times New Roman,serif" font-size="14.00">x series aircraft</text>
</g>
<!-- Entity30&#45;&gt;Entity104 -->
<g id="edge59" class="edge verb">
<title>Entity30&#45;&gt;Entity104</title>
<path fill="none" stroke="black" d="M1840.96,-2399.68C1849.64,-2416.84 1862.73,-2442.7 1872.62,-2462.24"/>
<polygon fill="black" stroke="black" points="1869.55,-2463.91 1877.19,-2471.26 1875.79,-2460.75 1869.55,-2463.91"/>
<text text-anchor="start" x="1815.79" y="-2434.76" font-family="Times New Roman,serif" font-size="14.00">created</text>
</g>
<!-- Entity32 -->
<g id="node16" class="node entity">
<title>Entity32</title>
<ellipse fill="none" stroke="black" cx="1442.37" cy="-2608.59" rx="46.29" ry="18"/>
<text text-anchor="start" x="1414.87" y="-2604.89" font-family="Times New Roman,serif" font-size="14.00">van braun</text>
</g>
<!-- Entity32&#45;&gt;Entity30 -->
<g id="edge12" class="edge verb">
<title>Entity32&#45;&gt;Entity30</title>
<path fill="none" stroke="black" d="M1468.21,-2593.51C1535.29,-2554.36 1715.16,-2449.38 1793.9,-2403.43"/>
<polygon fill="black" stroke="black" points="1796.12,-2406.19 1802.99,-2398.13 1792.59,-2400.14 1796.12,-2406.19"/>
<text text-anchor="start" x="1568.06" y="-2502.27" font-family="Times New Roman,serif" font-size="14.00">worked for</text>
</g>
<!-- Entity32&#45;&gt;Entity76 -->
<g id="edge48" class="edge verb">
<title>Entity32&#45;&gt;Entity76</title>
<path fill="none" stroke="black" d="M1414.51,-2594.02C1379.19,-2575.55 1318,-2543.56 1277.21,-2522.23"/>
<polygon fill="black" stroke="black" points="1278.81,-2519.11 1268.33,-2517.58 1275.56,-2525.32 1278.81,-2519.11"/>
<text text-anchor="start" x="1289.86" y="-2561.92" font-family="Times New Roman,serif" font-size="14.00">worked at</text>
</g>
<!-- Entity29 -->
<g id="node17" class="node entity">
<title>Entity29</title>
<ellipse fill="none" stroke="black" cx="4193.08" cy="-2781.81" rx="37.89" ry="18"/>
<text text-anchor="start" x="4172.08" y="-2778.11" font-family="Times New Roman,serif" font-size="14.00">hunt oil</text>
</g>
<!-- Entity36 -->
<g id="node18" class="node entity">
<title>Entity36</title>
<ellipse fill="none" stroke="black" cx="4284.15" cy="-2253.98" rx="77.99" ry="18"/>
<text text-anchor="start" x="4232.15" y="-2250.28" font-family="Times New Roman,serif" font-size="14.00">dwight eisenhower</text>
</g>
<!-- Entity29&#45;&gt;Entity36 -->
<g id="edge13" class="edge verb">
<title>Entity29&#45;&gt;Entity36</title>
<path fill="none" stroke="black" d="M4196.21,-2763.64C4209.7,-2685.44 4262.89,-2377.22 4279.3,-2282.09"/>
<polygon fill="black" stroke="black" points="4282.78,-2282.52 4281.03,-2272.07 4275.88,-2281.33 4282.78,-2282.52"/>
<text text-anchor="start" x="4197.76" y="-2526.67" font-family="Times New Roman,serif" font-size="14.00">funded</text>
</g>
<!-- Entity36&#45;&gt;Entity66 -->
<g id="edge34" class="edge verb">
<title>Entity36&#45;&gt;Entity66</title>
<path fill="none" stroke="black" d="M4303.71,-2236.34C4375.25,-2171.85 4622.61,-1948.82 4701.59,-1877.62"/>
<polygon fill="black" stroke="black" points="4704.03,-1880.13 4709.11,-1870.83 4699.34,-1874.93 4704.03,-1880.13"/>
<text text-anchor="start" x="4483.65" y="-2060.78" font-family="Times New Roman,serif" font-size="14.00">is a</text>
</g>
<!-- Entity11 -->
<g id="node19" class="node entity">
<title>Entity11</title>
<ellipse fill="none" stroke="black" cx="5147.36" cy="-2145.83" rx="56.59" ry="18"/>
<text text-anchor="start" x="5111.86" y="-2142.13" font-family="Times New Roman,serif" font-size="14.00">harry truman</text>
</g>
<!-- Entity11&#45;&gt;Entity66 -->
<g id="edge14" class="edge verb">
<title>Entity11&#45;&gt;Entity66</title>
<path fill="none" stroke="black" d="M5123.5,-2129.4C5050.92,-2079.4 4832.97,-1929.26 4754.54,-1875.23"/>
<polygon fill="black" stroke="black" points="4756.33,-1872.21 4746.11,-1869.42 4752.36,-1877.97 4756.33,-1872.21"/>
<text text-anchor="start" x="4923.02" y="-2006.11" font-family="Times New Roman,serif" font-size="14.00">isa</text>
</g>
<!-- Entity69 -->
<g id="node24" class="node entity">
<title>Entity69</title>
<ellipse fill="none" stroke="black" cx="5559.99" cy="-2471.55" rx="55.79" ry="18"/>
<text text-anchor="start" x="5524.99" y="-2467.85" font-family="Times New Roman,serif" font-size="14.00">freemasonry</text>
</g>
<!-- Entity11&#45;&gt;Entity69 -->
<g id="edge17" class="edge verb">
<title>Entity11&#45;&gt;Entity69</title>
<path fill="none" stroke="black" d="M5168.67,-2162.66C5237.14,-2216.7 5451.6,-2385.98 5530.49,-2448.26"/>
<polygon fill="black" stroke="black" points="5528.54,-2451.18 5538.56,-2454.63 5532.88,-2445.68 5528.54,-2451.18"/>
<text text-anchor="start" x="5288.58" y="-2309.26" font-family="Times New Roman,serif" font-size="14.00">member of</text>
</g>
<!-- Entity63 -->
<g id="node21" class="node entity">
<title>Entity63</title>
<ellipse fill="none" stroke="black" cx="4870.34" cy="-2362" rx="53.89" ry="18"/>
<text text-anchor="start" x="4836.84" y="-2358.3" font-family="Times New Roman,serif" font-size="14.00">edgar casey</text>
</g>
<!-- Entity59 -->
<g id="node22" class="node entity">
<title>Entity59</title>
<ellipse fill="none" stroke="black" cx="4779.9" cy="-2253.92" rx="71.49" ry="18"/>
<text text-anchor="start" x="4732.9" y="-2250.22" font-family="Times New Roman,serif" font-size="14.00">woodrow wilson</text>
</g>
<!-- Entity63&#45;&gt;Entity59 -->
<g id="edge15" class="edge verb">
<title>Entity63&#45;&gt;Entity59</title>
<path fill="none" stroke="black" d="M4855.81,-2344.64C4841.06,-2327.01 4818.07,-2299.54 4801.26,-2279.44"/>
<polygon fill="black" stroke="black" points="4803.8,-2277.03 4794.69,-2271.6 4798.43,-2281.52 4803.8,-2277.03"/>
<text text-anchor="start" x="4786.53" y="-2315.84" font-family="Times New Roman,serif" font-size="14.00">advises</text>
</g>
<!-- Entity59&#45;&gt;Entity66 -->
<g id="edge30" class="edge verb">
<title>Entity59&#45;&gt;Entity66</title>
<path fill="none" stroke="black" d="M4777.45,-2235.77C4768.87,-2172.39 4740.23,-1960.62 4729.84,-1883.76"/>
<polygon fill="black" stroke="black" points="4733.3,-1883.28 4728.5,-1873.84 4726.37,-1884.22 4733.3,-1883.28"/>
<text text-anchor="start" x="4737.64" y="-2063.57" font-family="Times New Roman,serif" font-size="14.00">isa</text>
</g>
<!-- Entity92 -->
<g id="node50" class="node entity">
<title>Entity92</title>
<ellipse fill="none" stroke="black" cx="5038.89" cy="-2831.37" rx="71.49" ry="18"/>
<text text-anchor="start" x="4991.89" y="-2827.67" font-family="Times New Roman,serif" font-size="14.00">leauge of nations</text>
</g>
<!-- Entity59&#45;&gt;Entity92 -->
<g id="edge54" class="edge verb">
<title>Entity59&#45;&gt;Entity92</title>
<path fill="none" stroke="black" d="M4787.94,-2271.84C4825.24,-2355.02 4981.65,-2703.74 5026.7,-2804.19"/>
<polygon fill="black" stroke="black" points="5023.54,-2805.69 5030.82,-2813.38 5029.92,-2802.82 5023.54,-2805.69"/>
<text text-anchor="start" x="4866.32" y="-2541.81" font-family="Times New Roman,serif" font-size="14.00">created</text>
</g>
<!-- Entity18 -->
<g id="node26" class="node entity">
<title>Entity18</title>
<ellipse fill="none" stroke="black" cx="5078.3" cy="-1896.96" rx="35.19" ry="18"/>
<text text-anchor="start" x="5059.3" y="-1893.26" font-family="Times New Roman,serif" font-size="14.00">obama</text>
</g>
<!-- Entity18&#45;&gt;Entity66 -->
<g id="edge21" class="edge verb">
<title>Entity18&#45;&gt;Entity66</title>
<path fill="none" stroke="black" d="M5043.88,-1892.91C4978.67,-1885.25 4837.38,-1868.66 4767.24,-1860.42"/>
<polygon fill="black" stroke="black" points="4767.36,-1856.91 4757.02,-1859.22 4766.55,-1863.87 4767.36,-1856.91"/>
<text text-anchor="start" x="4889.56" y="-1880.47" font-family="Times New Roman,serif" font-size="14.00">isa</text>
</g>
<!-- Entity12 -->
<g id="node27" class="node entity">
<title>Entity12</title>
<ellipse fill="none" stroke="black" cx="4532.61" cy="-2361.92" rx="58.49" ry="18"/>
<text text-anchor="start" x="4495.61" y="-2358.22" font-family="Times New Roman,serif" font-size="14.00">richard nixon</text>
</g>
<!-- Entity12&#45;&gt;Entity66 -->
<g id="edge22" class="edge verb">
<title>Entity12&#45;&gt;Entity66</title>
<path fill="none" stroke="black" d="M4539.5,-2343.9C4568.49,-2268 4680.77,-1974.05 4715.64,-1882.78"/>
<polygon fill="black" stroke="black" points="4718.93,-1883.98 4719.23,-1873.39 4712.39,-1881.48 4718.93,-1883.98"/>
<text text-anchor="start" x="4611.57" y="-2117.14" font-family="Times New Roman,serif" font-size="14.00">isa</text>
</g>
<!-- Entity24 -->
<g id="node29" class="node entity">
<title>Entity24</title>
<ellipse fill="none" stroke="black" cx="3810.51" cy="-532.38" rx="63.89" ry="18"/>
<text text-anchor="start" x="3769.51" y="-528.68" font-family="Times New Roman,serif" font-size="14.00">robert bigelow</text>
</g>
<!-- Entity24&#45;&gt;Entity7 -->
<g id="edge25" class="edge verb">
<title>Entity24&#45;&gt;Entity7</title>
<path fill="none" stroke="black" d="M3804.99,-550.32C3783.12,-621.34 3702.49,-883.2 3675.93,-969.46"/>
<polygon fill="black" stroke="black" points="3672.56,-968.5 3672.97,-979.09 3679.25,-970.56 3672.56,-968.5"/>
<text text-anchor="start" x="3708.46" y="-763.69" font-family="Times New Roman,serif" font-size="14.00">funds</text>
</g>
<!-- Entity24&#45;&gt;Entity67 -->
<g id="edge45" class="edge verb">
<title>Entity24&#45;&gt;Entity67</title>
<path fill="none" stroke="black" d="M3807.19,-550.47C3792.01,-633.23 3729.14,-976.04 3710.61,-1077.1"/>
<polygon fill="black" stroke="black" points="3707.12,-1076.69 3708.76,-1087.15 3714.01,-1077.95 3707.12,-1076.69"/>
<text text-anchor="start" x="3694.9" y="-817.58" font-family="Times New Roman,serif" font-size="14.00">investigates</text>
</g>
<!-- Entity44 -->
<g id="node30" class="node entity">
<title>Entity44</title>
<ellipse fill="none" stroke="black" cx="6043.98" cy="-1283.7" rx="58.49" ry="18"/>
<text text-anchor="start" x="6006.98" y="-1280" font-family="Times New Roman,serif" font-size="14.00">steve bannon</text>
</g>
<!-- Entity44&#45;&gt;Entity15 -->
<g id="edge28" class="edge verb">
<title>Entity44&#45;&gt;Entity15</title>
<path fill="none" stroke="black" d="M5994.07,-1293.11C5856.73,-1324.66 5474.32,-1424.76 5337.58,-1464.94"/>
<polygon fill="black" stroke="black" points="5336.38,-1461.65 5327.78,-1467.85 5338.37,-1468.36 5336.38,-1461.65"/>
<text text-anchor="start" x="5610.83" y="-1382.82" font-family="Times New Roman,serif" font-size="14.00">promoted</text>
</g>
<!-- Entity44&#45;&gt;Entity15 -->
<g id="edge64" class="edge verb">
<title>Entity44&#45;&gt;Entity15</title>
<path fill="none" stroke="black" d="M6004.96,-1297.26C5881.47,-1334.21 5498.53,-1434.69 5348.94,-1469.66"/>
<polygon fill="black" stroke="black" points="5347.95,-1466.29 5339,-1471.96 5349.53,-1473.11 5347.95,-1466.29"/>
<text text-anchor="start" x="5676.95" y="-1387.26" font-family="Times New Roman,serif" font-size="14.00">advises</text>
</g>
<!-- Entity83 -->
<g id="node40" class="node entity">
<title>Entity83</title>
<ellipse fill="none" stroke="black" cx="6606.66" cy="-1015.54" rx="61.99" ry="18"/>
<text text-anchor="start" x="6567.16" y="-1011.84" font-family="Times New Roman,serif" font-size="14.00">breitbart news</text>
</g>
<!-- Entity44&#45;&gt;Entity83 -->
<g id="edge46" class="edge verb">
<title>Entity44&#45;&gt;Entity83</title>
<path fill="none" stroke="black" d="M6075.84,-1268.51C6171.64,-1222.86 6457.06,-1086.83 6564.83,-1035.47"/>
<polygon fill="black" stroke="black" points="6566.57,-1038.52 6574.09,-1031.06 6563.56,-1032.2 6566.57,-1038.52"/>
<text text-anchor="start" x="6279.34" y="-1155.79" font-family="Times New Roman,serif" font-size="14.00">created</text>
</g>
<!-- Entity89 -->
<g id="node49" class="node entity">
<title>Entity89</title>
<ellipse fill="none" stroke="black" cx="6316.15" cy="-921.22" rx="35.19" ry="18"/>
<text text-anchor="start" x="6297.15" y="-917.52" font-family="Times New Roman,serif" font-size="14.00">gurgev</text>
</g>
<!-- Entity44&#45;&gt;Entity89 -->
<g id="edge53" class="edge verb">
<title>Entity44&#45;&gt;Entity89</title>
<path fill="none" stroke="black" d="M6057.47,-1265.73C6102.22,-1206.13 6245.77,-1014.96 6297.42,-946.17"/>
<polygon fill="black" stroke="black" points="6300.32,-948.14 6303.52,-938.04 6294.72,-943.93 6300.32,-948.14"/>
<text text-anchor="start" x="6136.45" y="-1109.75" font-family="Times New Roman,serif" font-size="14.00">studied</text>
</g>
<!-- Entity91 -->
<g id="node51" class="node entity">
<title>Entity91</title>
<ellipse fill="none" stroke="black" cx="6484.84" cy="-1392.19" rx="38.19" ry="18"/>
<text text-anchor="start" x="6463.34" y="-1388.49" font-family="Times New Roman,serif" font-size="14.00">us navy</text>
</g>
<!-- Entity44&#45;&gt;Entity91 -->
<g id="edge55" class="edge verb">
<title>Entity44&#45;&gt;Entity91</title>
<path fill="none" stroke="black" d="M6089.91,-1295C6175.23,-1316 6357.09,-1360.75 6440.88,-1381.37"/>
<polygon fill="black" stroke="black" points="6440.3,-1384.83 6450.84,-1383.82 6441.97,-1378.03 6440.3,-1384.83"/>
<text text-anchor="start" x="6204.4" y="-1341.99" font-family="Times New Roman,serif" font-size="14.00">member of</text>
</g>
<!-- Entity94 -->
<g id="node53" class="node entity">
<title>Entity94</title>
<ellipse fill="none" stroke="black" cx="6556.22" cy="-1210.19" rx="53.09" ry="18"/>
<text text-anchor="start" x="6523.22" y="-1206.49" font-family="Times New Roman,serif" font-size="14.00">biosphere 2</text>
</g>
<!-- Entity44&#45;&gt;Entity94 -->
<g id="edge57" class="edge verb">
<title>Entity44&#45;&gt;Entity94</title>
<path fill="none" stroke="black" d="M6097.35,-1276.04C6193.84,-1262.19 6396.62,-1233.09 6497.14,-1218.67"/>
<polygon fill="black" stroke="black" points="6497.73,-1222.12 6507.13,-1217.24 6496.73,-1215.19 6497.73,-1222.12"/>
<text text-anchor="start" x="6256.24" y="-1251.16" font-family="Times New Roman,serif" font-size="14.00">created</text>
</g>
<!-- Entity107 -->
<g id="node58" class="node entity">
<title>Entity107</title>
<ellipse fill="none" stroke="black" cx="6117.86" cy="-1175.64" rx="77.19" ry="18"/>
<text text-anchor="start" x="6066.36" y="-1171.94" font-family="Times New Roman,serif" font-size="14.00">hollywood movies</text>
</g>
<!-- Entity44&#45;&gt;Entity107 -->
<g id="edge61" class="edge verb">
<title>Entity44&#45;&gt;Entity107</title>
<path fill="none" stroke="black" d="M6056.18,-1265.86C6068.1,-1248.42 6086.39,-1221.67 6099.96,-1201.82"/>
<polygon fill="black" stroke="black" points="6102.89,-1203.74 6105.64,-1193.51 6097.11,-1199.79 6102.89,-1203.74"/>
<text text-anchor="start" x="6023.07" y="-1237.64" font-family="Times New Roman,serif" font-size="14.00">produced</text>
</g>
<!-- Entity111 -->
<g id="node59" class="node entity">
<title>Entity111</title>
<ellipse fill="none" stroke="black" cx="6515.59" cy="-1589.31" rx="64.99" ry="18"/>
<text text-anchor="start" x="6473.59" y="-1585.61" font-family="Times New Roman,serif" font-size="14.00">goldman sachs</text>
</g>
<!-- Entity44&#45;&gt;Entity111 -->
<g id="edge66" class="edge verb">
<title>Entity44&#45;&gt;Entity111</title>
<path fill="none" stroke="black" d="M6069.33,-1300.13C6148.49,-1351.43 6391.1,-1508.64 6481.32,-1567.11"/>
<polygon fill="black" stroke="black" points="6479.52,-1570.11 6489.82,-1572.61 6483.33,-1564.24 6479.52,-1570.11"/>
<text text-anchor="start" x="6212.33" y="-1437.42" font-family="Times New Roman,serif" font-size="14.00">worked for</text>
</g>
<!-- Entity33 -->
<g id="node32" class="node entity">
<title>Entity33</title>
<ellipse fill="none" stroke="black" cx="1871.57" cy="-1905.88" rx="57.69" ry="18"/>
<text text-anchor="start" x="1835.07" y="-1902.18" font-family="Times New Roman,serif" font-size="14.00">michael pane</text>
</g>
<!-- Entity33&#45;&gt;Entity30 -->
<g id="edge47" class="edge verb">
<title>Entity33&#45;&gt;Entity30</title>
<path fill="none" stroke="black" d="M1870.06,-1923.94C1863.99,-1996.24 1841.44,-2265.17 1834.05,-2353.25"/>
<polygon fill="black" stroke="black" points="1830.56,-2353.04 1833.21,-2363.3 1837.53,-2353.62 1830.56,-2353.04"/>
<text text-anchor="start" x="1789.06" y="-2142.39" font-family="Times New Roman,serif" font-size="14.00">worked for</text>
</g>
<!-- Entity33&#45;&gt;Entity72 -->
<g id="edge31" class="edge verb">
<title>Entity33&#45;&gt;Entity72</title>
<path fill="none" stroke="black" d="M1920.88,-1896.27C2010.1,-1878.88 2197.81,-1842.3 2292.28,-1823.89"/>
<polygon fill="black" stroke="black" points="2293.08,-1827.3 2302.23,-1821.95 2291.74,-1820.43 2293.08,-1827.3"/>
<text text-anchor="start" x="2050.58" y="-1863.88" font-family="Times New Roman,serif" font-size="14.00">worked at</text>
</g>
<!-- Entity45 -->
<g id="node33" class="node entity">
<title>Entity45</title>
<ellipse fill="none" stroke="black" cx="4081.03" cy="-1737.9" rx="67.69" ry="18"/>
<text text-anchor="start" x="4037.03" y="-1734.2" font-family="Times New Roman,serif" font-size="14.00">abraham lincoln</text>
</g>
<!-- Entity45&#45;&gt;Entity66 -->
<g id="edge32" class="edge verb">
<title>Entity45&#45;&gt;Entity66</title>
<path fill="none" stroke="black" d="M4136.86,-1748.09C4264.49,-1771.37 4575.1,-1828.05 4685.92,-1848.27"/>
<polygon fill="black" stroke="black" points="4685.54,-1851.75 4696.01,-1850.11 4686.8,-1844.87 4685.54,-1851.75"/>
<text text-anchor="start" x="4395.39" y="-1801.98" font-family="Times New Roman,serif" font-size="14.00">isa</text>
</g>
<!-- Entity38 -->
<g id="node34" class="node entity">
<title>Entity38</title>
<ellipse fill="none" stroke="black" cx="3238.24" cy="-1559.21" rx="90.98" ry="18"/>
<text text-anchor="start" x="3176.24" y="-1555.51" font-family="Times New Roman,serif" font-size="14.00">emma hardinge&#45;britten</text>
</g>
<!-- Entity38&#45;&gt;Entity45 -->
<g id="edge33" class="edge verb">
<title>Entity38&#45;&gt;Entity45</title>
<path fill="none" stroke="black" d="M3300.55,-1572.42C3456.41,-1605.47 3861.78,-1691.42 4018.19,-1724.58"/>
<polygon fill="black" stroke="black" points="4017.62,-1728.04 4028.13,-1726.69 4019.07,-1721.19 4017.62,-1728.04"/>
<text text-anchor="start" x="3560.37" y="-1652.3" font-family="Times New Roman,serif" font-size="14.00">spokesperson for</text>
</g>
<!-- Entity79 -->
<g id="node38" class="node entity">
<title>Entity79</title>
<ellipse fill="none" stroke="black" cx="2973.48" cy="-2033.69" rx="39.79" ry="18"/>
<text text-anchor="start" x="2950.98" y="-2029.99" font-family="Times New Roman,serif" font-size="14.00">medium</text>
</g>
<!-- Entity38&#45;&gt;Entity79 -->
<g id="edge38" class="edge verb">
<title>Entity38&#45;&gt;Entity79</title>
<path fill="none" stroke="black" d="M3228.18,-1577.23C3187.67,-1649.84 3036.29,-1921.14 2988.22,-2007.27"/>
<polygon fill="black" stroke="black" points="2985.08,-2005.72 2983.26,-2016.16 2991.19,-2009.13 2985.08,-2005.72"/>
<text text-anchor="start" x="3092.2" y="-1796.05" font-family="Times New Roman,serif" font-size="14.00">isa</text>
</g>
<!-- Entity86 -->
<g id="node48" class="node entity">
<title>Entity86</title>
<ellipse fill="none" stroke="black" cx="2408.41" cy="-1238.19" rx="85.29" ry="18"/>
<text text-anchor="start" x="2350.91" y="-1234.49" font-family="Times New Roman,serif" font-size="14.00">theosophical society</text>
</g>
<!-- Entity38&#45;&gt;Entity86 -->
<g id="edge65" class="edge verb">
<title>Entity38&#45;&gt;Entity86</title>
<path fill="none" stroke="black" d="M3196.81,-1543.18C3058.06,-1489.51 2610.03,-1316.18 2458.8,-1257.68"/>
<polygon fill="black" stroke="black" points="2459.87,-1254.34 2449.28,-1254 2457.34,-1260.87 2459.87,-1254.34"/>
<text text-anchor="start" x="2786.8" y="-1404.23" font-family="Times New Roman,serif" font-size="14.00">created</text>
</g>
<!-- Entity99 -->
<g id="node54" class="node entity">
<title>Entity99</title>
<ellipse fill="none" stroke="black" cx="2831.61" cy="-1134.46" rx="55.79" ry="18"/>
<text text-anchor="start" x="2796.61" y="-1130.76" font-family="Times New Roman,serif" font-size="14.00">orphic circle</text>
</g>
<!-- Entity38&#45;&gt;Entity99 -->
<g id="edge58" class="edge verb">
<title>Entity38&#45;&gt;Entity99</title>
<path fill="none" stroke="black" d="M3221.29,-1541.5C3157.2,-1474.56 2929.63,-1236.85 2855.29,-1159.2"/>
<polygon fill="black" stroke="black" points="2857.63,-1156.58 2848.18,-1151.78 2852.57,-1161.42 2857.63,-1156.58"/>
<text text-anchor="start" x="2977.29" y="-1354.15" font-family="Times New Roman,serif" font-size="14.00">member of</text>
</g>
<!-- Entity42 -->
<g id="node36" class="node entity">
<title>Entity42</title>
<ellipse fill="none" stroke="black" cx="3365.94" cy="-2225.66" rx="53.89" ry="18"/>
<text text-anchor="start" x="3332.44" y="-2221.96" font-family="Times New Roman,serif" font-size="14.00">black magic</text>
</g>
<!-- Entity81 -->
<g id="node37" class="node entity">
<title>Entity81</title>
<ellipse fill="none" stroke="black" cx="3453.66" cy="-2337.64" rx="28.7" ry="18"/>
<text text-anchor="start" x="3439.66" y="-2333.94" font-family="Times New Roman,serif" font-size="14.00">x left</text>
</g>
<!-- Entity42&#45;&gt;Entity81 -->
<g id="edge37" class="edge verb">
<title>Entity42&#45;&gt;Entity81</title>
<path fill="none" stroke="black" d="M3379.64,-2243.16C3394.45,-2262.05 3418.14,-2292.29 3434.72,-2313.45"/>
<polygon fill="black" stroke="black" points="3431.98,-2315.64 3440.9,-2321.36 3437.49,-2311.32 3431.98,-2315.64"/>
<text text-anchor="start" x="3346.18" y="-2282.11" font-family="Times New Roman,serif" font-size="14.00">member of</text>
</g>
<!-- Entity47 -->
<g id="node39" class="node entity">
<title>Entity47</title>
<ellipse fill="none" stroke="black" cx="7150.41" cy="-816.74" rx="69.59" ry="18"/>
<text text-anchor="start" x="7104.91" y="-813.04" font-family="Times New Roman,serif" font-size="14.00">andrew breitbart</text>
</g>
<!-- Entity47&#45;&gt;Entity83 -->
<g id="edge39" class="edge verb">
<title>Entity47&#45;&gt;Entity83</title>
<path fill="none" stroke="black" d="M7109.99,-831.52C7011.65,-867.47 6760.3,-959.36 6654.62,-998"/>
<polygon fill="black" stroke="black" points="6653.34,-994.74 6645.15,-1001.46 6655.75,-1001.32 6653.34,-994.74"/>
<text text-anchor="start" x="6841.3" y="-918.56" font-family="Times New Roman,serif" font-size="14.00">created</text>
</g>
<!-- Entity35 -->
<g id="node42" class="node entity">
<title>Entity35</title>
<ellipse fill="none" stroke="black" cx="3903.94" cy="-2777.66" rx="39.79" ry="18"/>
<text text-anchor="start" x="3881.44" y="-2773.96" font-family="Times New Roman,serif" font-size="14.00">crowley</text>
</g>
<!-- Entity80 -->
<g id="node43" class="node entity">
<title>Entity80</title>
<ellipse fill="none" stroke="black" cx="3991.66" cy="-2889.64" rx="38.99" ry="18"/>
<text text-anchor="start" x="3969.66" y="-2885.94" font-family="Times New Roman,serif" font-size="14.00">x magic</text>
</g>
<!-- Entity35&#45;&gt;Entity80 -->
<g id="edge41" class="edge verb">
<title>Entity35&#45;&gt;Entity80</title>
<path fill="none" stroke="black" d="M3917.26,-2794.67C3931.82,-2813.25 3955.28,-2843.2 3971.96,-2864.49"/>
<polygon fill="black" stroke="black" points="3969.29,-2866.76 3978.21,-2872.47 3974.8,-2862.44 3969.29,-2866.76"/>
<text text-anchor="start" x="3883.61" y="-2833.38" font-family="Times New Roman,serif" font-size="14.00">member of</text>
</g>
<!-- Entity19 -->
<g id="node44" class="node entity">
<title>Entity19</title>
<ellipse fill="none" stroke="black" cx="4820.11" cy="-1524.81" rx="31.4" ry="18"/>
<text text-anchor="start" x="4804.11" y="-1521.11" font-family="Times New Roman,serif" font-size="14.00">carter</text>
</g>
<!-- Entity19&#45;&gt;Entity66 -->
<g id="edge44" class="edge verb">
<title>Entity19&#45;&gt;Entity66</title>
<path fill="none" stroke="black" d="M4815.05,-1542.59C4799.55,-1597.11 4752.6,-1762.18 4733.86,-1828.03"/>
<polygon fill="black" stroke="black" points="4730.48,-1827.13 4731.11,-1837.71 4737.21,-1829.05 4730.48,-1827.13"/>
<text text-anchor="start" x="4758.46" y="-1689.11" font-family="Times New Roman,serif" font-size="14.00">isa</text>
</g>
<!-- Entity19&#45;&gt;Entity90 -->
<g id="edge56" class="edge verb">
<title>Entity19&#45;&gt;Entity90</title>
<path fill="none" stroke="black" d="M4810.38,-1507.28C4781.61,-1455.44 4696.8,-1302.66 4662.71,-1241.24"/>
<polygon fill="black" stroke="black" points="4665.61,-1239.24 4657.69,-1232.2 4659.49,-1242.64 4665.61,-1239.24"/>
<text text-anchor="start" x="4681.55" y="-1378.06" font-family="Times New Roman,serif" font-size="14.00">witnessed</text>
</g>
<!-- Entity27 -->
<g id="node45" class="node entity">
<title>Entity27</title>
<ellipse fill="none" stroke="black" cx="75.88" cy="-3718" rx="75.29" ry="18"/>
<text text-anchor="start" x="25.88" y="-3714.3" font-family="Times New Roman,serif" font-size="14.00">lee harvey oswald</text>
</g>
<!-- Entity34 -->
<g id="node46" class="node entity">
<title>Entity34</title>
<ellipse fill="none" stroke="black" cx="542.05" cy="-3393.48" rx="59.29" ry="18"/>
<text text-anchor="start" x="504.55" y="-3389.78" font-family="Times New Roman,serif" font-size="14.00">guy bannister</text>
</g>
<!-- Entity27&#45;&gt;Entity34 -->
<g id="edge50" class="edge verb">
<title>Entity27&#45;&gt;Entity34</title>
<path fill="none" stroke="black" d="M100.61,-3700.78C179.04,-3646.19 422.13,-3476.96 509.97,-3415.81"/>
<polygon fill="black" stroke="black" points="512.01,-3418.66 518.22,-3410.07 508.01,-3412.91 512.01,-3418.66"/>
<text text-anchor="start" x="242.29" y="-3562.1" font-family="Times New Roman,serif" font-size="14.00">worked for</text>
</g>
<!-- Entity34&#45;&gt;Entity75 -->
<g id="edge51" class="edge verb">
<title>Entity34&#45;&gt;Entity75</title>
<path fill="none" stroke="black" d="M565.07,-3376.69C635.2,-3325.53 846.15,-3171.65 924.3,-3114.64"/>
<polygon fill="black" stroke="black" points="926.71,-3117.22 932.72,-3108.5 922.58,-3111.56 926.71,-3117.22"/>
<text text-anchor="start" x="683.68" y="-3249.47" font-family="Times New Roman,serif" font-size="14.00">member of</text>
</g>
<!-- Entity64 -->
<g id="node47" class="node entity">
<title>Entity64</title>
<ellipse fill="none" stroke="black" cx="2287.86" cy="-1130.17" rx="73.39" ry="18"/>
<text text-anchor="start" x="2239.36" y="-1126.47" font-family="Times New Roman,serif" font-size="14.00">madam blavatsky</text>
</g>
<!-- Entity64&#45;&gt;Entity86 -->
<g id="edge52" class="edge verb">
<title>Entity64&#45;&gt;Entity86</title>
<path fill="none" stroke="black" d="M2307.5,-1147.76C2327.55,-1165.73 2358.84,-1193.77 2381.26,-1213.86"/>
<polygon fill="black" stroke="black" points="2379,-1216.53 2388.79,-1220.6 2383.67,-1211.32 2379,-1216.53"/>
<text text-anchor="start" x="2303.38" y="-1184.61" font-family="Times New Roman,serif" font-size="14.00">created</text>
</g>
<!-- Entity60 -->
<g id="node56" class="node entity">
<title>Entity60</title>
<ellipse fill="none" stroke="black" cx="1818.97" cy="-900.58" rx="58.49" ry="18"/>
<text text-anchor="start" x="1781.97" y="-896.88" font-family="Times New Roman,serif" font-size="14.00">rudolf steiner</text>
</g>
<!-- Entity60&#45;&gt;Entity86 -->
<g id="edge63" class="edge verb">
<title>Entity60&#45;&gt;Entity86</title>
<path fill="none" stroke="black" d="M1847.01,-916.64C1943.14,-971.7 2259.6,-1152.95 2370,-1216.19"/>
<polygon fill="black" stroke="black" points="2368.4,-1219.3 2378.82,-1221.24 2371.88,-1213.23 2368.4,-1219.3"/>
<text text-anchor="start" x="2042.51" y="-1070.21" font-family="Times New Roman,serif" font-size="14.00">memberr of</text>
</g>
<!-- Entity93 -->
<g id="node57" class="node entity">
<title>Entity93</title>
<ellipse fill="none" stroke="black" cx="1251.33" cy="-553.79" rx="102.08" ry="18"/>
<text text-anchor="start" x="1180.83" y="-550.09" font-family="Times New Roman,serif" font-size="14.00">anthroposophical society</text>
</g>
<!-- Entity60&#45;&gt;Entity93 -->
<g id="edge60" class="edge verb">
<title>Entity60&#45;&gt;Entity93</title>
<path fill="none" stroke="black" d="M1792.36,-884.32C1700.35,-828.11 1395.55,-641.9 1288.72,-576.63"/>
<polygon fill="black" stroke="black" points="1290.25,-573.46 1279.89,-571.24 1286.6,-579.44 1290.25,-573.46"/>
<text text-anchor="start" x="1499.54" y="-734.27" font-family="Times New Roman,serif" font-size="14.00">created</text>
</g>
<!-- Entity109 -->
<g id="node60" class="node entity">
<title>Entity109</title>
<ellipse fill="none" stroke="black" cx="3890.94" cy="-2225.66" rx="27" ry="18"/>
<text text-anchor="start" x="3887.44" y="-2221.96" font-family="Times New Roman,serif" font-size="14.00">s</text>
</g>
<!-- Entity112 -->
<g id="node61" class="node entity">
<title>Entity112</title>
<ellipse fill="none" stroke="black" cx="3978.66" cy="-2337.64" rx="27" ry="18"/>
<text text-anchor="start" x="3974.66" y="-2333.94" font-family="Times New Roman,serif" font-size="14.00">o</text>
</g>
<!-- Entity109&#45;&gt;Entity112 -->
<g id="edge67" class="edge verb">
<title>Entity109&#45;&gt;Entity112</title>
<path fill="none" stroke="black" d="M3903.51,-2241.7C3918.23,-2260.5 3942.76,-2291.82 3959.78,-2313.53"/>
<polygon fill="black" stroke="black" points="3957.19,-2315.91 3966.11,-2321.62 3962.7,-2311.59 3957.19,-2315.91"/>
<text text-anchor="start" x="3924.64" y="-2281.42" font-family="Times New Roman,serif" font-size="14.00">v</text>
</g>
</g>
</svg>
