<?xml version="1.0" encoding="UTF-8" standalone="no"?>
<?xml-stylesheet href="./styles.css" type="text/css"?>
<!DOCTYPE svg PUBLIC "-//W3C//DTD SVG 1.1//EN"
 "http://www.w3.org/Graphics/SVG/1.1/DTD/svg11.dtd">
<!-- Generated by graphviz version 2.47.3 (20210619.1520)
 -->
<!-- Title: G Pages: 1 -->
<svg width="5055pt" height="3204pt"
 viewBox="0.00 0.00 5055.00 3204.00" xmlns="http://www.w3.org/2000/svg" xmlns:xlink="http://www.w3.org/1999/xlink">
<g id="graph0" class="graph" transform="scale(1 1) rotate(0) translate(4 3200)">
<title>G</title>
<polygon fill="white" stroke="transparent" points="-4,4 -4,-3200 5051,-3200 5051,4 -4,4"/>
<!-- Entity3 -->
<g id="node1" class="node entity">
<title>Entity3</title>
<ellipse fill="none" stroke="black" cx="3210.39" cy="-1957.96" rx="27" ry="18"/>
<text text-anchor="start" x="3202.89" y="-1954.26" font-family="Times New Roman,serif" font-size="14.00">jfk</text>
</g>
<!-- Entity22 -->
<g id="node2" class="node entity">
<title>Entity22</title>
<ellipse fill="none" stroke="black" cx="3059.41" cy="-1591.39" rx="27" ry="18"/>
<text text-anchor="start" x="3051.41" y="-1587.69" font-family="Times New Roman,serif" font-size="14.00">cia</text>
</g>
<!-- Entity3&#45;&gt;Entity22 -->
<g id="edge1" class="edge verb">
<title>Entity3&#45;&gt;Entity22</title>
<path fill="none" stroke="black" d="M3203.11,-1940.28C3178.74,-1881.12 3099.95,-1689.82 3070.58,-1618.52"/>
<polygon fill="black" stroke="black" points="3073.66,-1616.81 3066.62,-1608.9 3067.19,-1619.48 3073.66,-1616.81"/>
<text text-anchor="start" x="3032.84" y="-1783.2" font-family="Times New Roman,serif" font-size="14.00">heads (1961&#45;1963)</text>
</g>
<!-- Entity66 -->
<g id="node20" class="node entity">
<title>Entity66</title>
<ellipse fill="none" stroke="black" cx="3374.2" cy="-2315.45" rx="31.4" ry="18"/>
<text text-anchor="start" x="3358.2" y="-2311.75" font-family="Times New Roman,serif" font-size="14.00">potus</text>
</g>
<!-- Entity3&#45;&gt;Entity66 -->
<g id="edge23" class="edge verb">
<title>Entity3&#45;&gt;Entity66</title>
<path fill="none" stroke="black" d="M3218.29,-1975.2C3244.67,-2032.76 3329.82,-2218.6 3361.86,-2288.52"/>
<polygon fill="black" stroke="black" points="3358.84,-2290.33 3366.19,-2297.97 3365.21,-2287.42 3358.84,-2290.33"/>
<text text-anchor="start" x="3203.08" y="-2135.66" font-family="Times New Roman,serif" font-size="14.00">isa (1961&#45;1963)</text>
</g>
<!-- Entity67 -->
<g id="node25" class="node entity">
<title>Entity67</title>
<ellipse fill="none" stroke="black" cx="2521.44" cy="-1332.8" rx="77.19" ry="18"/>
<text text-anchor="start" x="2469.94" y="-1329.1" font-family="Times New Roman,serif" font-size="14.00">psi&#45;consciousness</text>
</g>
<!-- Entity22&#45;&gt;Entity67 -->
<g id="edge43" class="edge verb">
<title>Entity22&#45;&gt;Entity67</title>
<path fill="none" stroke="black" d="M3037.32,-1580.77C2956.05,-1541.71 2672.8,-1405.56 2564.24,-1353.38"/>
<polygon fill="black" stroke="black" points="2565.73,-1350.21 2555.2,-1349.03 2562.7,-1356.52 2565.73,-1350.21"/>
<text text-anchor="start" x="2736.78" y="-1470.88" font-family="Times New Roman,serif" font-size="14.00">investigates</text>
</g>
<!-- Entity90 -->
<g id="node52" class="node entity">
<title>Entity90</title>
<ellipse fill="none" stroke="black" cx="3329.18" cy="-1692.14" rx="27" ry="18"/>
<text text-anchor="start" x="3319.68" y="-1688.44" font-family="Times New Roman,serif" font-size="14.00">ufo</text>
</g>
<!-- Entity22&#45;&gt;Entity90 -->
<g id="edge62" class="edge verb">
<title>Entity22&#45;&gt;Entity90</title>
<path fill="none" stroke="black" d="M3083.35,-1600.33C3131.54,-1618.33 3240.37,-1658.97 3295.63,-1679.61"/>
<polygon fill="black" stroke="black" points="3294.7,-1683 3305.29,-1683.22 3297.15,-1676.44 3294.7,-1683"/>
<text text-anchor="start" x="3125.49" y="-1643.77" font-family="Times New Roman,serif" font-size="14.00">investigates</text>
</g>
<!-- Entity14 -->
<g id="node3" class="node entity">
<title>Entity14</title>
<ellipse fill="none" stroke="black" cx="1561.49" cy="-486.06" rx="74.99" ry="18"/>
<text text-anchor="start" x="1511.99" y="-482.36" font-family="Times New Roman,serif" font-size="14.00">gene roddenberry</text>
</g>
<!-- Entity8 -->
<g id="node4" class="node entity">
<title>Entity8</title>
<ellipse fill="none" stroke="black" cx="1844.98" cy="-920.3" rx="38.19" ry="18"/>
<text text-anchor="start" x="1823.48" y="-916.6" font-family="Times New Roman,serif" font-size="14.00">the nine</text>
</g>
<!-- Entity14&#45;&gt;Entity8 -->
<g id="edge2" class="edge verb">
<title>Entity14&#45;&gt;Entity8</title>
<path fill="none" stroke="black" d="M1573.13,-503.89C1617.48,-571.81 1775.94,-814.54 1828.15,-894.53"/>
<polygon fill="black" stroke="black" points="1825.31,-896.58 1833.71,-903.04 1831.17,-892.75 1825.31,-896.58"/>
<text text-anchor="start" x="1596.64" y="-703.01" font-family="Times New Roman,serif" font-size="14.00">claiemd to channel</text>
</g>
<!-- Entity70 -->
<g id="node23" class="node entity">
<title>Entity70</title>
<ellipse fill="none" stroke="black" cx="1838.94" cy="-811.21" rx="94.48" ry="18"/>
<text text-anchor="start" x="1774.44" y="-807.51" font-family="Times New Roman,serif" font-size="14.00">egyptian gods in a ship</text>
</g>
<!-- Entity8&#45;&gt;Entity70 -->
<g id="edge16" class="edge verb">
<title>Entity8&#45;&gt;Entity70</title>
<path fill="none" stroke="black" d="M1843.98,-902.29C1843.03,-885.16 1841.59,-859.12 1840.49,-839.27"/>
<polygon fill="black" stroke="black" points="1843.99,-839.04 1839.94,-829.25 1837,-839.43 1843.99,-839.04"/>
<text text-anchor="start" x="1738.24" y="-874.58" font-family="Times New Roman,serif" font-size="14.00">claimed to channel</text>
</g>
<!-- Entity16 -->
<g id="node5" class="node entity">
<title>Entity16</title>
<ellipse fill="none" stroke="black" cx="3806.89" cy="-2571.97" rx="68.49" ry="18"/>
<text text-anchor="start" x="3762.39" y="-2568.27" font-family="Times New Roman,serif" font-size="14.00">george hw bush</text>
</g>
<!-- Entity20 -->
<g id="node6" class="node entity">
<title>Entity20</title>
<ellipse fill="none" stroke="black" cx="3798.3" cy="-2458.38" rx="63.89" ry="18"/>
<text text-anchor="start" x="3757.3" y="-2454.68" font-family="Times New Roman,serif" font-size="14.00">george w bush</text>
</g>
<!-- Entity16&#45;&gt;Entity20 -->
<g id="edge3" class="edge verb">
<title>Entity16&#45;&gt;Entity20</title>
<path fill="none" stroke="black" d="M3805.53,-2553.97C3804.16,-2535.88 3802.03,-2507.74 3800.44,-2486.66"/>
<polygon fill="black" stroke="black" points="3803.93,-2486.38 3799.69,-2476.67 3796.95,-2486.9 3803.93,-2486.38"/>
<text text-anchor="start" x="3770.99" y="-2524.12" font-family="Times New Roman,serif" font-size="14.00">father</text>
</g>
<!-- Entity16&#45;&gt;Entity66 -->
<g id="edge20" class="edge verb">
<title>Entity16&#45;&gt;Entity66</title>
<path fill="none" stroke="black" d="M3778.83,-2555.34C3701.39,-2509.42 3485.06,-2381.17 3404.74,-2333.55"/>
<polygon fill="black" stroke="black" points="3406.46,-2330.51 3396.07,-2328.42 3402.89,-2336.53 3406.46,-2330.51"/>
<text text-anchor="start" x="3575.78" y="-2448.25" font-family="Times New Roman,serif" font-size="14.00">isa</text>
</g>
<!-- Entity20&#45;&gt;Entity66 -->
<g id="edge42" class="edge verb">
<title>Entity20&#45;&gt;Entity66</title>
<path fill="none" stroke="black" d="M3757.25,-2444.54C3674.62,-2416.7 3489.41,-2354.28 3410.71,-2327.76"/>
<polygon fill="black" stroke="black" points="3411.81,-2324.43 3401.21,-2324.56 3409.57,-2331.07 3411.81,-2324.43"/>
<text text-anchor="start" x="3567.98" y="-2389.95" font-family="Times New Roman,serif" font-size="14.00">isa</text>
</g>
<!-- Entity2 -->
<g id="node7" class="node entity">
<title>Entity2</title>
<ellipse fill="none" stroke="black" cx="1948.42" cy="-486.19" rx="41.69" ry="18"/>
<text text-anchor="start" x="1924.42" y="-482.49" font-family="Times New Roman,serif" font-size="14.00">uri geller</text>
</g>
<!-- Entity2&#45;&gt;Entity8 -->
<g id="edge4" class="edge verb">
<title>Entity2&#45;&gt;Entity8</title>
<path fill="none" stroke="black" d="M1944.11,-504.29C1927.99,-571.93 1871.22,-810.17 1851.66,-892.26"/>
<polygon fill="black" stroke="black" points="1848.22,-891.59 1849.31,-902.13 1855.03,-893.21 1848.22,-891.59"/>
<text text-anchor="start" x="1793.88" y="-702.07" font-family="Times New Roman,serif" font-size="14.00">claiemd to channel</text>
</g>
<!-- Entity26 -->
<g id="node8" class="node entity">
<title>Entity26</title>
<ellipse fill="none" stroke="black" cx="70.22" cy="-2734.4" rx="49.29" ry="18"/>
<text text-anchor="start" x="40.22" y="-2730.7" font-family="Times New Roman,serif" font-size="14.00">adolf hitler</text>
</g>
<!-- Entity28 -->
<g id="node9" class="node entity">
<title>Entity28</title>
<ellipse fill="none" stroke="black" cx="493.12" cy="-2687.97" rx="32.49" ry="18"/>
<text text-anchor="start" x="476.12" y="-2684.27" font-family="Times New Roman,serif" font-size="14.00">nsdap</text>
</g>
<!-- Entity26&#45;&gt;Entity28 -->
<g id="edge5" class="edge verb">
<title>Entity26&#45;&gt;Entity28</title>
<path fill="none" stroke="black" d="M117.91,-2729.17C201.22,-2720.02 371.93,-2701.28 451.09,-2692.59"/>
<polygon fill="black" stroke="black" points="451.62,-2696.05 461.18,-2691.48 450.86,-2689.09 451.62,-2696.05"/>
<text text-anchor="start" x="243.5" y="-2714.68" font-family="Times New Roman,serif" font-size="14.00">created</text>
</g>
<!-- Entity75 -->
<g id="node31" class="node entity">
<title>Entity75</title>
<ellipse fill="none" stroke="black" cx="207.49" cy="-2934.19" rx="38.99" ry="18"/>
<text text-anchor="start" x="185.49" y="-2930.49" font-family="Times New Roman,serif" font-size="14.00">far right</text>
</g>
<!-- Entity28&#45;&gt;Entity75 -->
<g id="edge29" class="edge verb">
<title>Entity28&#45;&gt;Entity75</title>
<path fill="none" stroke="black" d="M475.25,-2703.37C426.6,-2745.32 291.54,-2861.74 234,-2911.34"/>
<polygon fill="black" stroke="black" points="231.38,-2908.98 226.09,-2918.16 235.95,-2914.28 231.38,-2908.98"/>
<text text-anchor="start" x="293.63" y="-2811.16" font-family="Times New Roman,serif" font-size="14.00">member of</text>
</g>
<!-- Entity15 -->
<g id="node10" class="node entity">
<title>Entity15</title>
<ellipse fill="none" stroke="black" cx="3819.12" cy="-1962.8" rx="59.59" ry="18"/>
<text text-anchor="start" x="3781.12" y="-1959.1" font-family="Times New Roman,serif" font-size="14.00">donald trump</text>
</g>
<!-- Entity48 -->
<g id="node11" class="node entity">
<title>Entity48</title>
<ellipse fill="none" stroke="black" cx="3506.37" cy="-1529.95" rx="50.09" ry="18"/>
<text text-anchor="start" x="3475.87" y="-1526.25" font-family="Times New Roman,serif" font-size="14.00">john trump</text>
</g>
<!-- Entity15&#45;&gt;Entity48 -->
<g id="edge6" class="edge verb">
<title>Entity15&#45;&gt;Entity48</title>
<path fill="none" stroke="black" d="M3806.28,-1945.02C3757.47,-1877.47 3583.33,-1636.46 3525.32,-1556.18"/>
<polygon fill="black" stroke="black" points="3527.84,-1553.69 3519.14,-1547.63 3522.16,-1557.79 3527.84,-1553.69"/>
<text text-anchor="start" x="3606.8" y="-1754.4" font-family="Times New Roman,serif" font-size="14.00">nephew of</text>
</g>
<!-- Entity15&#45;&gt;Entity66 -->
<g id="edge27" class="edge verb">
<title>Entity15&#45;&gt;Entity66</title>
<path fill="none" stroke="black" d="M3797.66,-1979.81C3724.14,-2038.08 3482.45,-2229.65 3401.16,-2294.09"/>
<polygon fill="black" stroke="black" points="3398.59,-2291.66 3392.93,-2300.61 3402.94,-2297.14 3398.59,-2291.66"/>
<text text-anchor="start" x="3583.41" y="-2140.75" font-family="Times New Roman,serif" font-size="14.00">isa</text>
</g>
<!-- Entity48&#45;&gt;Entity22 -->
<g id="edge10" class="edge verb">
<title>Entity48&#45;&gt;Entity22</title>
<path fill="none" stroke="black" d="M3459.38,-1536.41C3369.93,-1548.7 3176.92,-1575.24 3096.14,-1586.34"/>
<polygon fill="black" stroke="black" points="3095.39,-1582.91 3085.96,-1587.74 3096.34,-1589.85 3095.39,-1582.91"/>
<text text-anchor="start" x="3216.76" y="-1565.18" font-family="Times New Roman,serif" font-size="14.00">member of</text>
</g>
<!-- Entity82 -->
<g id="node41" class="node entity">
<title>Entity82</title>
<ellipse fill="none" stroke="black" cx="3696.71" cy="-1112.19" rx="50.89" ry="18"/>
<text text-anchor="start" x="3665.71" y="-1108.49" font-family="Times New Roman,serif" font-size="14.00">nikola tesla</text>
</g>
<!-- Entity48&#45;&gt;Entity82 -->
<g id="edge40" class="edge verb">
<title>Entity48&#45;&gt;Entity82</title>
<path fill="none" stroke="black" d="M3514.54,-1512C3544.5,-1446.25 3648.36,-1218.31 3684.33,-1139.36"/>
<polygon fill="black" stroke="black" points="3687.6,-1140.62 3688.56,-1130.07 3681.23,-1137.72 3687.6,-1140.62"/>
<text text-anchor="start" x="3558.44" y="-1329.48" font-family="Times New Roman,serif" font-size="14.00">studied</text>
</g>
<!-- Entity5 -->
<g id="node12" class="node entity">
<title>Entity5</title>
<ellipse fill="none" stroke="black" cx="1845.73" cy="-1430.82" rx="56.59" ry="18"/>
<text text-anchor="start" x="1810.23" y="-1427.12" font-family="Times New Roman,serif" font-size="14.00">arthur young</text>
</g>
<!-- Entity5&#45;&gt;Entity8 -->
<g id="edge7" class="edge verb">
<title>Entity5&#45;&gt;Entity8</title>
<path fill="none" stroke="black" d="M1845.7,-1412.65C1845.59,-1336.36 1845.16,-1041.61 1845.02,-948.59"/>
<polygon fill="black" stroke="black" points="1848.52,-948.52 1845,-938.52 1841.52,-948.53 1848.52,-948.52"/>
<text text-anchor="start" x="1783.36" y="-1184.42" font-family="Times New Roman,serif" font-size="14.00">member&#45;of</text>
</g>
<!-- Entity5&#45;&gt;Entity67 -->
<g id="edge18" class="edge verb">
<title>Entity5&#45;&gt;Entity67</title>
<path fill="none" stroke="black" d="M1897.35,-1423.33C2015.63,-1406.17 2306.73,-1363.95 2445.49,-1343.82"/>
<polygon fill="black" stroke="black" points="2446.22,-1347.25 2455.62,-1342.35 2445.22,-1340.32 2446.22,-1347.25"/>
<text text-anchor="start" x="2130.42" y="-1387.38" font-family="Times New Roman,serif" font-size="14.00">studied</text>
</g>
<!-- Entity72 -->
<g id="node28" class="node entity">
<title>Entity72</title>
<ellipse fill="none" stroke="black" cx="1404.28" cy="-1936.95" rx="53.89" ry="18"/>
<text text-anchor="start" x="1370.78" y="-1933.25" font-family="Times New Roman,serif" font-size="14.00">bell aviation</text>
</g>
<!-- Entity5&#45;&gt;Entity72 -->
<g id="edge24" class="edge verb">
<title>Entity5&#45;&gt;Entity72</title>
<path fill="none" stroke="black" d="M1830.53,-1448.24C1764.67,-1523.76 1503.69,-1822.98 1426.13,-1911.9"/>
<polygon fill="black" stroke="black" points="1423.35,-1909.77 1419.41,-1919.6 1428.63,-1914.37 1423.35,-1909.77"/>
<text text-anchor="start" x="1587.33" y="-1683.87" font-family="Times New Roman,serif" font-size="14.00">created</text>
</g>
<!-- Entity1 -->
<g id="node13" class="node entity">
<title>Entity1</title>
<ellipse fill="none" stroke="black" cx="1876.38" cy="-18.28" rx="64.19" ry="18"/>
<text text-anchor="start" x="1834.88" y="-14.58" font-family="Times New Roman,serif" font-size="14.00">andre puharich</text>
</g>
<!-- Entity1&#45;&gt;Entity2 -->
<g id="edge8" class="edge verb">
<title>Entity1&#45;&gt;Entity2</title>
<path fill="none" stroke="black" d="M1879.16,-36.34C1890.16,-107.84 1930.76,-371.47 1944.12,-458.27"/>
<polygon fill="black" stroke="black" points="1940.67,-458.83 1945.65,-468.18 1947.58,-457.77 1940.67,-458.83"/>
<text text-anchor="start" x="1851.64" y="-251.1" font-family="Times New Roman,serif" font-size="14.00">sponsored</text>
</g>
<!-- Entity7 -->
<g id="node14" class="node entity">
<title>Entity7</title>
<ellipse fill="none" stroke="black" cx="2344.06" cy="-755.14" rx="68.49" ry="18"/>
<text text-anchor="start" x="2299.56" y="-751.44" font-family="Times New Roman,serif" font-size="14.00">jeffrey mishlove</text>
</g>
<!-- Entity7&#45;&gt;Entity2 -->
<g id="edge9" class="edge verb">
<title>Entity7&#45;&gt;Entity2</title>
<path fill="none" stroke="black" d="M2319.31,-738.31C2250.38,-691.46 2056.29,-559.51 1979.88,-507.58"/>
<polygon fill="black" stroke="black" points="1981.4,-504.38 1971.16,-501.65 1977.47,-510.17 1981.4,-504.38"/>
<text text-anchor="start" x="2094.59" y="-626.74" font-family="Times New Roman,serif" font-size="14.00">promoted</text>
</g>
<!-- Entity7&#45;&gt;Entity67 -->
<g id="edge19" class="edge verb">
<title>Entity7&#45;&gt;Entity67</title>
<path fill="none" stroke="black" d="M2346.97,-773.16C2366.85,-856.43 2473.35,-1203.98 2509.64,-1305.1"/>
<polygon fill="black" stroke="black" points="2506.4,-1306.44 2513.12,-1314.63 2512.97,-1304.03 2506.4,-1306.44"/>
<text text-anchor="start" x="2387.3" y="-1042.93" font-family="Times New Roman,serif" font-size="14.00">studied</text>
</g>
<!-- Entity7&#45;&gt;Entity67 -->
<g id="edge26" class="edge verb">
<title>Entity7&#45;&gt;Entity67</title>
<path fill="none" stroke="black" d="M2352.35,-773.26C2383.57,-856.67 2490.28,-1203.65 2516.09,-1304.94"/>
<polygon fill="black" stroke="black" points="2512.71,-1305.88 2518.51,-1314.75 2519.51,-1304.2 2512.71,-1305.88"/>
<text text-anchor="start" x="2370.22" y="-1027.9" font-family="Times New Roman,serif" font-size="14.00">investigates</text>
</g>
<!-- Entity30 -->
<g id="node15" class="node entity">
<title>Entity30</title>
<ellipse fill="none" stroke="black" cx="1039.37" cy="-2520.26" rx="74.99" ry="18"/>
<text text-anchor="start" x="989.87" y="-2516.56" font-family="Times New Roman,serif" font-size="14.00">walter dornberger</text>
</g>
<!-- Entity30&#45;&gt;Entity28 -->
<g id="edge11" class="edge verb">
<title>Entity30&#45;&gt;Entity28</title>
<path fill="none" stroke="black" d="M992.8,-2534.56C886.77,-2567.11 629.03,-2646.24 531.43,-2676.21"/>
<polygon fill="black" stroke="black" points="530.22,-2672.92 521.69,-2679.2 532.28,-2679.61 530.22,-2672.92"/>
<text text-anchor="start" x="701.12" y="-2609.18" font-family="Times New Roman,serif" font-size="14.00">member of</text>
</g>
<!-- Entity30&#45;&gt;Entity72 -->
<g id="edge35" class="edge verb">
<title>Entity30&#45;&gt;Entity72</title>
<path fill="none" stroke="black" d="M1053.51,-2502.56C1112.11,-2419.07 1333.89,-2064.8 1390.95,-1963.86"/>
<polygon fill="black" stroke="black" points="1394.13,-1965.34 1395.95,-1954.9 1388.02,-1961.93 1394.13,-1965.34"/>
<text text-anchor="start" x="1143.23" y="-2237.01" font-family="Times New Roman,serif" font-size="14.00">vice&#45;president</text>
</g>
<!-- Entity30&#45;&gt;Entity72 -->
<g id="edge49" class="edge verb">
<title>Entity30&#45;&gt;Entity72</title>
<path fill="none" stroke="black" d="M1047.81,-2502.12C1094.24,-2417.52 1316.4,-2062.02 1384.51,-1962.76"/>
<polygon fill="black" stroke="black" points="1387.42,-1964.7 1390.25,-1954.49 1381.67,-1960.71 1387.42,-1964.7"/>
<text text-anchor="start" x="1160.16" y="-2221.24" font-family="Times New Roman,serif" font-size="14.00">worked at</text>
</g>
<!-- Entity76 -->
<g id="node35" class="node entity">
<title>Entity76</title>
<ellipse fill="none" stroke="black" cx="1108.57" cy="-2629.97" rx="90.98" ry="18"/>
<text text-anchor="start" x="1046.57" y="-2626.27" font-family="Times New Roman,serif" font-size="14.00">nsdap rocket program</text>
</g>
<!-- Entity30&#45;&gt;Entity76 -->
<g id="edge36" class="edge verb">
<title>Entity30&#45;&gt;Entity76</title>
<path fill="none" stroke="black" d="M1050.8,-2538.37C1061.92,-2556 1078.94,-2583 1091.64,-2603.12"/>
<polygon fill="black" stroke="black" points="1088.83,-2605.23 1097.13,-2611.82 1094.75,-2601.5 1088.83,-2605.23"/>
<text text-anchor="start" x="1030.22" y="-2574.55" font-family="Times New Roman,serif" font-size="14.00">created</text>
</g>
<!-- Entity104 -->
<g id="node55" class="node entity">
<title>Entity104</title>
<ellipse fill="none" stroke="black" cx="927.65" cy="-3103.05" rx="65.79" ry="18"/>
<text text-anchor="start" x="885.15" y="-3099.35" font-family="Times New Roman,serif" font-size="14.00">x series aircraft</text>
</g>
<!-- Entity30&#45;&gt;Entity104 -->
<g id="edge59" class="edge verb">
<title>Entity30&#45;&gt;Entity104</title>
<path fill="none" stroke="black" d="M1035.9,-2538.34C1019.84,-2622.12 952.61,-2972.82 933.03,-3075"/>
<polygon fill="black" stroke="black" points="929.57,-3074.41 931.13,-3084.89 936.45,-3075.73 929.57,-3074.41"/>
<text text-anchor="start" x="943.46" y="-2810.47" font-family="Times New Roman,serif" font-size="14.00">created</text>
</g>
<!-- Entity32 -->
<g id="node16" class="node entity">
<title>Entity32</title>
<ellipse fill="none" stroke="black" cx="591.3" cy="-2479" rx="46.29" ry="18"/>
<text text-anchor="start" x="563.8" y="-2475.3" font-family="Times New Roman,serif" font-size="14.00">van braun</text>
</g>
<!-- Entity32&#45;&gt;Entity30 -->
<g id="edge12" class="edge verb">
<title>Entity32&#45;&gt;Entity30</title>
<path fill="none" stroke="black" d="M636.31,-2483.15C711.79,-2490.09 864.84,-2504.19 959.1,-2512.87"/>
<polygon fill="black" stroke="black" points="958.89,-2516.36 969.17,-2513.79 959.53,-2509.39 958.89,-2516.36"/>
<text text-anchor="start" x="734.71" y="-2501.81" font-family="Times New Roman,serif" font-size="14.00">worked for</text>
</g>
<!-- Entity32&#45;&gt;Entity76 -->
<g id="edge48" class="edge verb">
<title>Entity32&#45;&gt;Entity76</title>
<path fill="none" stroke="black" d="M628.5,-2489.86C716.67,-2515.59 939.05,-2580.49 1047.38,-2612.11"/>
<polygon fill="black" stroke="black" points="1046.6,-2615.53 1057.18,-2614.97 1048.56,-2608.81 1046.6,-2615.53"/>
<text text-anchor="start" x="781.94" y="-2554.78" font-family="Times New Roman,serif" font-size="14.00">worked at</text>
</g>
<!-- Entity29 -->
<g id="node17" class="node entity">
<title>Entity29</title>
<ellipse fill="none" stroke="black" cx="3089.6" cy="-2930.66" rx="37.89" ry="18"/>
<text text-anchor="start" x="3068.6" y="-2926.96" font-family="Times New Roman,serif" font-size="14.00">hunt oil</text>
</g>
<!-- Entity36 -->
<g id="node18" class="node entity">
<title>Entity36</title>
<ellipse fill="none" stroke="black" cx="3139.98" cy="-2815.6" rx="77.99" ry="18"/>
<text text-anchor="start" x="3087.98" y="-2811.9" font-family="Times New Roman,serif" font-size="14.00">dwight eisenhower</text>
</g>
<!-- Entity29&#45;&gt;Entity36 -->
<g id="edge13" class="edge verb">
<title>Entity29&#45;&gt;Entity36</title>
<path fill="none" stroke="black" d="M3097.47,-2912.68C3105.63,-2894.04 3118.49,-2864.68 3127.93,-2843.12"/>
<polygon fill="black" stroke="black" points="3131.19,-2844.4 3132,-2833.83 3124.78,-2841.59 3131.19,-2844.4"/>
<text text-anchor="start" x="3072.7" y="-2881.7" font-family="Times New Roman,serif" font-size="14.00">funded</text>
</g>
<!-- Entity36&#45;&gt;Entity66 -->
<g id="edge34" class="edge verb">
<title>Entity36&#45;&gt;Entity66</title>
<path fill="none" stroke="black" d="M3148.46,-2797.51C3183.79,-2722.05 3319.52,-2432.23 3361.65,-2342.26"/>
<polygon fill="black" stroke="black" points="3364.91,-2343.54 3365.99,-2333 3358.57,-2340.58 3364.91,-2343.54"/>
<text text-anchor="start" x="3236.05" y="-2573.68" font-family="Times New Roman,serif" font-size="14.00">is a</text>
</g>
<!-- Entity11 -->
<g id="node19" class="node entity">
<title>Entity11</title>
<ellipse fill="none" stroke="black" cx="3640.75" cy="-2752.79" rx="56.59" ry="18"/>
<text text-anchor="start" x="3605.25" y="-2749.09" font-family="Times New Roman,serif" font-size="14.00">harry truman</text>
</g>
<!-- Entity11&#45;&gt;Entity66 -->
<g id="edge14" class="edge verb">
<title>Entity11&#45;&gt;Entity66</title>
<path fill="none" stroke="black" d="M3629.97,-2735.1C3588.52,-2667.09 3439.25,-2422.18 3390.06,-2341.46"/>
<polygon fill="black" stroke="black" points="3393.02,-2339.6 3384.83,-2332.88 3387.04,-2343.24 3393.02,-2339.6"/>
<text text-anchor="start" x="3494.02" y="-2542.08" font-family="Times New Roman,serif" font-size="14.00">isa</text>
</g>
<!-- Entity69 -->
<g id="node24" class="node entity">
<title>Entity69</title>
<ellipse fill="none" stroke="black" cx="3920.2" cy="-3177.52" rx="55.79" ry="18"/>
<text text-anchor="start" x="3885.2" y="-3173.82" font-family="Times New Roman,serif" font-size="14.00">freemasonry</text>
</g>
<!-- Entity11&#45;&gt;Entity69 -->
<g id="edge17" class="edge verb">
<title>Entity11&#45;&gt;Entity69</title>
<path fill="none" stroke="black" d="M3652.41,-2770.5C3696.17,-2837.01 3850.87,-3072.15 3902.95,-3151.3"/>
<polygon fill="black" stroke="black" points="3900.08,-3153.31 3908.5,-3159.74 3905.93,-3149.46 3900.08,-3153.31"/>
<text text-anchor="start" x="3716.68" y="-2964.7" font-family="Times New Roman,serif" font-size="14.00">member of</text>
</g>
<!-- Entity63 -->
<g id="node21" class="node entity">
<title>Entity63</title>
<ellipse fill="none" stroke="black" cx="3509.03" cy="-3039.35" rx="53.89" ry="18"/>
<text text-anchor="start" x="3475.53" y="-3035.65" font-family="Times New Roman,serif" font-size="14.00">edgar casey</text>
</g>
<!-- Entity59 -->
<g id="node22" class="node entity">
<title>Entity59</title>
<ellipse fill="none" stroke="black" cx="3385.61" cy="-2475.85" rx="71.49" ry="18"/>
<text text-anchor="start" x="3338.61" y="-2472.15" font-family="Times New Roman,serif" font-size="14.00">woodrow wilson</text>
</g>
<!-- Entity63&#45;&gt;Entity59 -->
<g id="edge15" class="edge verb">
<title>Entity63&#45;&gt;Entity59</title>
<path fill="none" stroke="black" d="M3505.06,-3021.24C3487.13,-2939.36 3413.56,-2603.44 3391.74,-2503.82"/>
<polygon fill="black" stroke="black" points="3395.12,-2502.92 3389.56,-2493.9 3388.29,-2504.41 3395.12,-2502.92"/>
<text text-anchor="start" x="3406.4" y="-2766.33" font-family="Times New Roman,serif" font-size="14.00">advises</text>
</g>
<!-- Entity59&#45;&gt;Entity66 -->
<g id="edge30" class="edge verb">
<title>Entity59&#45;&gt;Entity66</title>
<path fill="none" stroke="black" d="M3384.33,-2457.76C3382.36,-2430.09 3378.58,-2376.98 3376.24,-2344.05"/>
<polygon fill="black" stroke="black" points="3379.7,-2343.45 3375.5,-2333.72 3372.72,-2343.95 3379.7,-2343.45"/>
<text text-anchor="start" x="3364.28" y="-2404.71" font-family="Times New Roman,serif" font-size="14.00">isa</text>
</g>
<!-- Entity92 -->
<g id="node50" class="node entity">
<title>Entity92</title>
<ellipse fill="none" stroke="black" cx="3382.16" cy="-2611.95" rx="71.49" ry="18"/>
<text text-anchor="start" x="3335.16" y="-2608.25" font-family="Times New Roman,serif" font-size="14.00">leauge of nations</text>
</g>
<!-- Entity59&#45;&gt;Entity92 -->
<g id="edge54" class="edge verb">
<title>Entity59&#45;&gt;Entity92</title>
<path fill="none" stroke="black" d="M3385.15,-2493.93C3384.57,-2516.8 3383.57,-2556.48 3382.88,-2583.45"/>
<polygon fill="black" stroke="black" points="3379.38,-2583.72 3382.62,-2593.8 3386.37,-2583.89 3379.38,-2583.72"/>
<text text-anchor="start" x="3343.02" y="-2542.49" font-family="Times New Roman,serif" font-size="14.00">created</text>
</g>
<!-- Entity18 -->
<g id="node26" class="node entity">
<title>Entity18</title>
<ellipse fill="none" stroke="black" cx="3715.22" cy="-2294.06" rx="35.19" ry="18"/>
<text text-anchor="start" x="3696.22" y="-2290.36" font-family="Times New Roman,serif" font-size="14.00">obama</text>
</g>
<!-- Entity18&#45;&gt;Entity66 -->
<g id="edge21" class="edge verb">
<title>Entity18&#45;&gt;Entity66</title>
<path fill="none" stroke="black" d="M3680.33,-2296.25C3617.01,-2300.22 3483.45,-2308.6 3415.62,-2312.86"/>
<polygon fill="black" stroke="black" points="3415.08,-2309.38 3405.32,-2313.5 3415.52,-2316.37 3415.08,-2309.38"/>
<text text-anchor="start" x="3531.97" y="-2308.35" font-family="Times New Roman,serif" font-size="14.00">isa</text>
</g>
<!-- Entity12 -->
<g id="node27" class="node entity">
<title>Entity12</title>
<ellipse fill="none" stroke="black" cx="2993.55" cy="-2501.6" rx="58.49" ry="18"/>
<text text-anchor="start" x="2956.55" y="-2497.9" font-family="Times New Roman,serif" font-size="14.00">richard nixon</text>
</g>
<!-- Entity12&#45;&gt;Entity66 -->
<g id="edge22" class="edge verb">
<title>Entity12&#45;&gt;Entity66</title>
<path fill="none" stroke="black" d="M3025.02,-2486.21C3096.11,-2451.45 3268.52,-2367.13 3341.12,-2331.63"/>
<polygon fill="black" stroke="black" points="3342.83,-2334.69 3350.27,-2327.16 3339.75,-2328.41 3342.83,-2334.69"/>
<text text-anchor="start" x="3167.07" y="-2412.72" font-family="Times New Roman,serif" font-size="14.00">isa</text>
</g>
<!-- Entity24 -->
<g id="node29" class="node entity">
<title>Entity24</title>
<ellipse fill="none" stroke="black" cx="2534.18" cy="-1224.75" rx="63.89" ry="18"/>
<text text-anchor="start" x="2493.18" y="-1221.05" font-family="Times New Roman,serif" font-size="14.00">robert bigelow</text>
</g>
<!-- Entity24&#45;&gt;Entity7 -->
<g id="edge25" class="edge verb">
<title>Entity24&#45;&gt;Entity7</title>
<path fill="none" stroke="black" d="M2526.84,-1206.63C2497.73,-1134.72 2390.23,-869.19 2355.18,-782.62"/>
<polygon fill="black" stroke="black" points="2358.37,-781.16 2351.37,-773.21 2351.88,-783.79 2358.37,-781.16"/>
<text text-anchor="start" x="2409.01" y="-998.43" font-family="Times New Roman,serif" font-size="14.00">funds</text>
</g>
<!-- Entity24&#45;&gt;Entity67 -->
<g id="edge45" class="edge verb">
<title>Entity24&#45;&gt;Entity67</title>
<path fill="none" stroke="black" d="M2532.02,-1243.08C2530.03,-1259.95 2527.05,-1285.22 2524.76,-1304.64"/>
<polygon fill="black" stroke="black" points="2521.26,-1304.4 2523.57,-1314.75 2528.21,-1305.22 2521.26,-1304.4"/>
<text text-anchor="start" x="2464.39" y="-1277.66" font-family="Times New Roman,serif" font-size="14.00">investigates</text>
</g>
<!-- Entity44 -->
<g id="node30" class="node entity">
<title>Entity44</title>
<ellipse fill="none" stroke="black" cx="4426.16" cy="-1856.4" rx="58.49" ry="18"/>
<text text-anchor="start" x="4389.16" y="-1852.7" font-family="Times New Roman,serif" font-size="14.00">steve bannon</text>
</g>
<!-- Entity44&#45;&gt;Entity15 -->
<g id="edge28" class="edge verb">
<title>Entity44&#45;&gt;Entity15</title>
<path fill="none" stroke="black" d="M4370.51,-1862.01C4254.88,-1878.68 3989.81,-1925.12 3874.45,-1948.92"/>
<polygon fill="black" stroke="black" points="3873.5,-1945.54 3864.43,-1951.01 3874.93,-1952.4 3873.5,-1945.54"/>
<text text-anchor="start" x="4067.48" y="-1909.27" font-family="Times New Roman,serif" font-size="14.00">promoted</text>
</g>
<!-- Entity44&#45;&gt;Entity15 -->
<g id="edge64" class="edge verb">
<title>Entity44&#45;&gt;Entity15</title>
<path fill="none" stroke="black" d="M4381.18,-1868.12C4275.49,-1890.44 4010.86,-1937.04 3886.14,-1955.52"/>
<polygon fill="black" stroke="black" points="3885.35,-1952.1 3875.96,-1957.01 3886.36,-1959.03 3885.35,-1952.1"/>
<text text-anchor="start" x="4133.66" y="-1915.62" font-family="Times New Roman,serif" font-size="14.00">advises</text>
</g>
<!-- Entity83 -->
<g id="node40" class="node entity">
<title>Entity83</title>
<ellipse fill="none" stroke="black" cx="4431.26" cy="-1297.97" rx="61.99" ry="18"/>
<text text-anchor="start" x="4391.76" y="-1294.27" font-family="Times New Roman,serif" font-size="14.00">breitbart news</text>
</g>
<!-- Entity44&#45;&gt;Entity83 -->
<g id="edge46" class="edge verb">
<title>Entity44&#45;&gt;Entity83</title>
<path fill="none" stroke="black" d="M4426.33,-1838.14C4427.07,-1756.61 4430.1,-1425.55 4431.01,-1326.26"/>
<polygon fill="black" stroke="black" points="4434.51,-1326.12 4431.1,-1316.09 4427.51,-1326.06 4434.51,-1326.12"/>
<text text-anchor="start" x="4387.67" y="-1586" font-family="Times New Roman,serif" font-size="14.00">created</text>
</g>
<!-- Entity89 -->
<g id="node49" class="node entity">
<title>Entity89</title>
<ellipse fill="none" stroke="black" cx="4799.29" cy="-2098.27" rx="35.19" ry="18"/>
<text text-anchor="start" x="4780.29" y="-2094.57" font-family="Times New Roman,serif" font-size="14.00">gurgev</text>
</g>
<!-- Entity44&#45;&gt;Entity89 -->
<g id="edge53" class="edge verb">
<title>Entity44&#45;&gt;Entity89</title>
<path fill="none" stroke="black" d="M4451.51,-1872.84C4517.89,-1915.86 4696.61,-2031.71 4768.61,-2078.38"/>
<polygon fill="black" stroke="black" points="4766.95,-2081.48 4777.24,-2083.98 4770.75,-2075.6 4766.95,-2081.48"/>
<text text-anchor="start" x="4569.06" y="-1979.41" font-family="Times New Roman,serif" font-size="14.00">studied</text>
</g>
<!-- Entity91 -->
<g id="node51" class="node entity">
<title>Entity91</title>
<ellipse fill="none" stroke="black" cx="4884.64" cy="-1784.81" rx="38.19" ry="18"/>
<text text-anchor="start" x="4863.14" y="-1781.11" font-family="Times New Roman,serif" font-size="14.00">us navy</text>
</g>
<!-- Entity44&#45;&gt;Entity91 -->
<g id="edge55" class="edge verb">
<title>Entity44&#45;&gt;Entity91</title>
<path fill="none" stroke="black" d="M4478.75,-1848.19C4569.05,-1834.09 4752.13,-1805.5 4838.09,-1792.08"/>
<polygon fill="black" stroke="black" points="4838.73,-1795.52 4848.08,-1790.52 4837.65,-1788.61 4838.73,-1795.52"/>
<text text-anchor="start" x="4597.42" y="-1823.94" font-family="Times New Roman,serif" font-size="14.00">member of</text>
</g>
<!-- Entity94 -->
<g id="node53" class="node entity">
<title>Entity94</title>
<ellipse fill="none" stroke="black" cx="4593.57" cy="-1746.29" rx="53.09" ry="18"/>
<text text-anchor="start" x="4560.57" y="-1742.59" font-family="Times New Roman,serif" font-size="14.00">biosphere 2</text>
</g>
<!-- Entity44&#45;&gt;Entity94 -->
<g id="edge57" class="edge verb">
<title>Entity44&#45;&gt;Entity94</title>
<path fill="none" stroke="black" d="M4451.22,-1839.92C4480.32,-1820.78 4528.42,-1789.14 4560.55,-1768.01"/>
<polygon fill="black" stroke="black" points="4562.73,-1770.77 4569.16,-1762.35 4558.88,-1764.92 4562.73,-1770.77"/>
<text text-anchor="start" x="4464.89" y="-1807.77" font-family="Times New Roman,serif" font-size="14.00">created</text>
</g>
<!-- Entity107 -->
<g id="node58" class="node entity">
<title>Entity107</title>
<ellipse fill="none" stroke="black" cx="4965.38" cy="-1579.17" rx="77.19" ry="18"/>
<text text-anchor="start" x="4913.88" y="-1575.47" font-family="Times New Roman,serif" font-size="14.00">hollywood movies</text>
</g>
<!-- Entity44&#45;&gt;Entity107 -->
<g id="edge61" class="edge verb">
<title>Entity44&#45;&gt;Entity107</title>
<path fill="none" stroke="black" d="M4456.3,-1840.9C4547.48,-1794.03 4820.43,-1653.69 4924.48,-1600.2"/>
<polygon fill="black" stroke="black" points="4926.14,-1603.28 4933.43,-1595.6 4922.94,-1597.06 4926.14,-1603.28"/>
<text text-anchor="start" x="4635.39" y="-1709.35" font-family="Times New Roman,serif" font-size="14.00">produced</text>
</g>
<!-- Entity111 -->
<g id="node59" class="node entity">
<title>Entity111</title>
<ellipse fill="none" stroke="black" cx="4981.81" cy="-1969.19" rx="64.99" ry="18"/>
<text text-anchor="start" x="4939.81" y="-1965.49" font-family="Times New Roman,serif" font-size="14.00">goldman sachs</text>
</g>
<!-- Entity44&#45;&gt;Entity111 -->
<g id="edge66" class="edge verb">
<title>Entity44&#45;&gt;Entity111</title>
<path fill="none" stroke="black" d="M4475.47,-1866.41C4576.69,-1886.96 4807.76,-1933.86 4919.29,-1956.5"/>
<polygon fill="black" stroke="black" points="4918.88,-1959.99 4929.38,-1958.55 4920.28,-1953.13 4918.88,-1959.99"/>
<text text-anchor="start" x="4634.38" y="-1915.26" font-family="Times New Roman,serif" font-size="14.00">worked for</text>
</g>
<!-- Entity33 -->
<g id="node32" class="node entity">
<title>Entity33</title>
<ellipse fill="none" stroke="black" cx="950.43" cy="-2053.99" rx="57.69" ry="18"/>
<text text-anchor="start" x="913.93" y="-2050.29" font-family="Times New Roman,serif" font-size="14.00">michael pane</text>
</g>
<!-- Entity33&#45;&gt;Entity30 -->
<g id="edge47" class="edge verb">
<title>Entity33&#45;&gt;Entity30</title>
<path fill="none" stroke="black" d="M953.86,-2071.98C967.44,-2143.16 1017.45,-2405.35 1034.01,-2492.15"/>
<polygon fill="black" stroke="black" points="1030.59,-2492.9 1035.9,-2502.07 1037.46,-2491.59 1030.59,-2492.9"/>
<text text-anchor="start" x="930.94" y="-2285.87" font-family="Times New Roman,serif" font-size="14.00">worked for</text>
</g>
<!-- Entity33&#45;&gt;Entity72 -->
<g id="edge31" class="edge verb">
<title>Entity33&#45;&gt;Entity72</title>
<path fill="none" stroke="black" d="M995.19,-2042.45C1079.58,-2020.69 1261.79,-1973.7 1351.8,-1950.49"/>
<polygon fill="black" stroke="black" points="1352.71,-1953.87 1361.52,-1947.98 1350.96,-1947.09 1352.71,-1953.87"/>
<text text-anchor="start" x="1117.49" y="-2000.27" font-family="Times New Roman,serif" font-size="14.00">worked at</text>
</g>
<!-- Entity45 -->
<g id="node33" class="node entity">
<title>Entity45</title>
<ellipse fill="none" stroke="black" cx="2817.04" cy="-2169.21" rx="67.69" ry="18"/>
<text text-anchor="start" x="2773.04" y="-2165.51" font-family="Times New Roman,serif" font-size="14.00">abraham lincoln</text>
</g>
<!-- Entity45&#45;&gt;Entity66 -->
<g id="edge32" class="edge verb">
<title>Entity45&#45;&gt;Entity66</title>
<path fill="none" stroke="black" d="M2865.51,-2181.94C2974.44,-2210.53 3236.79,-2279.39 3335.65,-2305.33"/>
<polygon fill="black" stroke="black" points="3334.95,-2308.77 3345.52,-2307.92 3336.73,-2302 3334.95,-2308.77"/>
<text text-anchor="start" x="3084.58" y="-2247.43" font-family="Times New Roman,serif" font-size="14.00">isa</text>
</g>
<!-- Entity38 -->
<g id="node34" class="node entity">
<title>Entity38</title>
<ellipse fill="none" stroke="black" cx="2053.83" cy="-1898.78" rx="90.98" ry="18"/>
<text text-anchor="start" x="1991.83" y="-1895.08" font-family="Times New Roman,serif" font-size="14.00">emma hardinge&#45;britten</text>
</g>
<!-- Entity38&#45;&gt;Entity45 -->
<g id="edge33" class="edge verb">
<title>Entity38&#45;&gt;Entity45</title>
<path fill="none" stroke="black" d="M2098.44,-1914.59C2231.7,-1961.81 2626.28,-2101.62 2766.71,-2151.38"/>
<polygon fill="black" stroke="black" points="2765.78,-2154.76 2776.38,-2154.81 2768.12,-2148.17 2765.78,-2154.76"/>
<text text-anchor="start" x="2333.58" y="-2036.78" font-family="Times New Roman,serif" font-size="14.00">spokesperson for</text>
</g>
<!-- Entity79 -->
<g id="node38" class="node entity">
<title>Entity79</title>
<ellipse fill="none" stroke="black" cx="1676.48" cy="-1578.62" rx="39.79" ry="18"/>
<text text-anchor="start" x="1653.98" y="-1574.92" font-family="Times New Roman,serif" font-size="14.00">medium</text>
</g>
<!-- Entity38&#45;&gt;Entity79 -->
<g id="edge38" class="edge verb">
<title>Entity38&#45;&gt;Entity79</title>
<path fill="none" stroke="black" d="M2033,-1881.11C1968.88,-1826.71 1774.47,-1661.76 1703.11,-1601.22"/>
<polygon fill="black" stroke="black" points="1705.32,-1598.49 1695.43,-1594.69 1700.79,-1603.83 1705.32,-1598.49"/>
<text text-anchor="start" x="1852.06" y="-1744.96" font-family="Times New Roman,serif" font-size="14.00">isa</text>
</g>
<!-- Entity86 -->
<g id="node48" class="node entity">
<title>Entity86</title>
<ellipse fill="none" stroke="black" cx="1289.06" cy="-1610.65" rx="85.29" ry="18"/>
<text text-anchor="start" x="1231.56" y="-1606.95" font-family="Times New Roman,serif" font-size="14.00">theosophical society</text>
</g>
<!-- Entity38&#45;&gt;Entity86 -->
<g id="edge65" class="edge verb">
<title>Entity38&#45;&gt;Entity86</title>
<path fill="none" stroke="black" d="M2011.35,-1882.78C1880.34,-1833.42 1482.88,-1683.68 1340.5,-1630.03"/>
<polygon fill="black" stroke="black" points="1341.68,-1626.74 1331.09,-1626.49 1339.21,-1633.29 1341.68,-1626.74"/>
<text text-anchor="start" x="1634.92" y="-1760.2" font-family="Times New Roman,serif" font-size="14.00">created</text>
</g>
<!-- Entity99 -->
<g id="node54" class="node entity">
<title>Entity99</title>
<ellipse fill="none" stroke="black" cx="1591.95" cy="-1816.01" rx="55.79" ry="18"/>
<text text-anchor="start" x="1556.95" y="-1812.31" font-family="Times New Roman,serif" font-size="14.00">orphic circle</text>
</g>
<!-- Entity38&#45;&gt;Entity99 -->
<g id="edge58" class="edge verb">
<title>Entity38&#45;&gt;Entity99</title>
<path fill="none" stroke="black" d="M1986.17,-1886.66C1895.76,-1870.45 1736.99,-1842 1651.11,-1826.61"/>
<polygon fill="black" stroke="black" points="1651.47,-1823.12 1641.01,-1824.8 1650.24,-1830.01 1651.47,-1823.12"/>
<text text-anchor="start" x="1757.64" y="-1860.43" font-family="Times New Roman,serif" font-size="14.00">member of</text>
</g>
<!-- Entity42 -->
<g id="node36" class="node entity">
<title>Entity42</title>
<ellipse fill="none" stroke="black" cx="2396.94" cy="-2360.66" rx="53.89" ry="18"/>
<text text-anchor="start" x="2363.44" y="-2356.96" font-family="Times New Roman,serif" font-size="14.00">black magic</text>
</g>
<!-- Entity81 -->
<g id="node37" class="node entity">
<title>Entity81</title>
<ellipse fill="none" stroke="black" cx="2484.66" cy="-2472.64" rx="28.7" ry="18"/>
<text text-anchor="start" x="2470.66" y="-2468.94" font-family="Times New Roman,serif" font-size="14.00">x left</text>
</g>
<!-- Entity42&#45;&gt;Entity81 -->
<g id="edge37" class="edge verb">
<title>Entity42&#45;&gt;Entity81</title>
<path fill="none" stroke="black" d="M2410.64,-2378.16C2425.45,-2397.05 2449.14,-2427.29 2465.72,-2448.45"/>
<polygon fill="black" stroke="black" points="2462.98,-2450.64 2471.9,-2456.36 2468.49,-2446.32 2462.98,-2450.64"/>
<text text-anchor="start" x="2377.18" y="-2417.11" font-family="Times New Roman,serif" font-size="14.00">member of</text>
</g>
<!-- Entity47 -->
<g id="node39" class="node entity">
<title>Entity47</title>
<ellipse fill="none" stroke="black" cx="4426.81" cy="-1176.82" rx="69.59" ry="18"/>
<text text-anchor="start" x="4381.31" y="-1173.12" font-family="Times New Roman,serif" font-size="14.00">andrew breitbart</text>
</g>
<!-- Entity47&#45;&gt;Entity83 -->
<g id="edge39" class="edge verb">
<title>Entity47&#45;&gt;Entity83</title>
<path fill="none" stroke="black" d="M4427.48,-1194.95C4428.2,-1214.67 4429.37,-1246.44 4430.22,-1269.49"/>
<polygon fill="black" stroke="black" points="4426.73,-1269.84 4430.59,-1279.71 4433.72,-1269.58 4426.73,-1269.84"/>
<text text-anchor="start" x="4387.85" y="-1236.02" font-family="Times New Roman,serif" font-size="14.00">created</text>
</g>
<!-- Entity35 -->
<g id="node42" class="node entity">
<title>Entity35</title>
<ellipse fill="none" stroke="black" cx="3021.94" cy="-1295.66" rx="39.79" ry="18"/>
<text text-anchor="start" x="2999.44" y="-1291.96" font-family="Times New Roman,serif" font-size="14.00">crowley</text>
</g>
<!-- Entity80 -->
<g id="node43" class="node entity">
<title>Entity80</title>
<ellipse fill="none" stroke="black" cx="3109.66" cy="-1407.64" rx="38.99" ry="18"/>
<text text-anchor="start" x="3087.66" y="-1403.94" font-family="Times New Roman,serif" font-size="14.00">x magic</text>
</g>
<!-- Entity35&#45;&gt;Entity80 -->
<g id="edge41" class="edge verb">
<title>Entity35&#45;&gt;Entity80</title>
<path fill="none" stroke="black" d="M3035.26,-1312.67C3049.82,-1331.25 3073.28,-1361.2 3089.96,-1382.49"/>
<polygon fill="black" stroke="black" points="3087.29,-1384.76 3096.21,-1390.47 3092.8,-1380.44 3087.29,-1384.76"/>
<text text-anchor="start" x="3001.61" y="-1351.38" font-family="Times New Roman,serif" font-size="14.00">member of</text>
</g>
<!-- Entity19 -->
<g id="node44" class="node entity">
<title>Entity19</title>
<ellipse fill="none" stroke="black" cx="3429.69" cy="-1988.14" rx="31.4" ry="18"/>
<text text-anchor="start" x="3413.69" y="-1984.44" font-family="Times New Roman,serif" font-size="14.00">carter</text>
</g>
<!-- Entity19&#45;&gt;Entity66 -->
<g id="edge44" class="edge verb">
<title>Entity19&#45;&gt;Entity66</title>
<path fill="none" stroke="black" d="M3426.63,-2006.21C3417.44,-2060.41 3390.05,-2221.98 3378.95,-2287.44"/>
<polygon fill="black" stroke="black" points="3375.48,-2287 3377.26,-2297.45 3382.38,-2288.17 3375.48,-2287"/>
<text text-anchor="start" x="3386.79" y="-2150.62" font-family="Times New Roman,serif" font-size="14.00">isa</text>
</g>
<!-- Entity19&#45;&gt;Entity90 -->
<g id="edge56" class="edge verb">
<title>Entity19&#45;&gt;Entity90</title>
<path fill="none" stroke="black" d="M3423.56,-1970.07C3406.55,-1920 3358.75,-1779.23 3338.47,-1719.5"/>
<polygon fill="black" stroke="black" points="3341.77,-1718.32 3335.24,-1709.98 3335.14,-1720.57 3341.77,-1718.32"/>
<text text-anchor="start" x="3326.01" y="-1848.58" font-family="Times New Roman,serif" font-size="14.00">witnessed</text>
</g>
<!-- Entity27 -->
<g id="node45" class="node entity">
<title>Entity27</title>
<ellipse fill="none" stroke="black" cx="519.47" cy="-2949.21" rx="36.29" ry="18"/>
<text text-anchor="start" x="499.47" y="-2945.51" font-family="Times New Roman,serif" font-size="14.00">oswald</text>
</g>
<!-- Entity34 -->
<g id="node46" class="node entity">
<title>Entity34</title>
<ellipse fill="none" stroke="black" cx="595.44" cy="-2831.35" rx="59.29" ry="18"/>
<text text-anchor="start" x="557.94" y="-2827.65" font-family="Times New Roman,serif" font-size="14.00">guy bannister</text>
</g>
<!-- Entity27&#45;&gt;Entity34 -->
<g id="edge50" class="edge verb">
<title>Entity27&#45;&gt;Entity34</title>
<path fill="none" stroke="black" d="M530.68,-2931.82C543.29,-2912.26 563.9,-2880.28 578.48,-2857.66"/>
<polygon fill="black" stroke="black" points="581.46,-2859.5 583.93,-2849.2 575.57,-2855.7 581.46,-2859.5"/>
<text text-anchor="start" x="491.58" y="-2898.54" font-family="Times New Roman,serif" font-size="14.00">worked for</text>
</g>
<!-- Entity34&#45;&gt;Entity75 -->
<g id="edge51" class="edge verb">
<title>Entity34&#45;&gt;Entity75</title>
<path fill="none" stroke="black" d="M550.55,-2843.24C475.6,-2863.12 325.84,-2902.82 251.48,-2922.53"/>
<polygon fill="black" stroke="black" points="250.28,-2919.23 241.51,-2925.17 252.07,-2925.99 250.28,-2919.23"/>
<text text-anchor="start" x="340.02" y="-2886.69" font-family="Times New Roman,serif" font-size="14.00">member of</text>
</g>
<!-- Entity64 -->
<g id="node47" class="node entity">
<title>Entity64</title>
<ellipse fill="none" stroke="black" cx="1067.35" cy="-1494.61" rx="73.39" ry="18"/>
<text text-anchor="start" x="1018.85" y="-1490.91" font-family="Times New Roman,serif" font-size="14.00">madam blavatsky</text>
</g>
<!-- Entity64&#45;&gt;Entity86 -->
<g id="edge52" class="edge verb">
<title>Entity64&#45;&gt;Entity86</title>
<path fill="none" stroke="black" d="M1098.65,-1510.99C1137.68,-1531.42 1204.53,-1566.41 1247.74,-1589.02"/>
<polygon fill="black" stroke="black" points="1246.36,-1592.26 1256.84,-1593.79 1249.61,-1586.05 1246.36,-1592.26"/>
<text text-anchor="start" x="1132.19" y="-1553.81" font-family="Times New Roman,serif" font-size="14.00">created</text>
</g>
<!-- Entity60 -->
<g id="node56" class="node entity">
<title>Entity60</title>
<ellipse fill="none" stroke="black" cx="680.73" cy="-1306.69" rx="58.49" ry="18"/>
<text text-anchor="start" x="643.73" y="-1302.99" font-family="Times New Roman,serif" font-size="14.00">rudolf steiner</text>
</g>
<!-- Entity60&#45;&gt;Entity86 -->
<g id="edge63" class="edge verb">
<title>Entity60&#45;&gt;Entity86</title>
<path fill="none" stroke="black" d="M711.73,-1322.18C812.41,-1372.49 1130.34,-1531.35 1246.25,-1589.26"/>
<polygon fill="black" stroke="black" points="1245.02,-1592.56 1255.53,-1593.9 1248.15,-1586.3 1245.02,-1592.56"/>
<text text-anchor="start" x="912.99" y="-1459.52" font-family="Times New Roman,serif" font-size="14.00">memberr of</text>
</g>
<!-- Entity93 -->
<g id="node57" class="node entity">
<title>Entity93</title>
<ellipse fill="none" stroke="black" cx="102.41" cy="-1022.99" rx="102.08" ry="18"/>
<text text-anchor="start" x="31.91" y="-1019.29" font-family="Times New Roman,serif" font-size="14.00">anthroposophical society</text>
</g>
<!-- Entity60&#45;&gt;Entity93 -->
<g id="edge60" class="edge verb">
<title>Entity60&#45;&gt;Entity93</title>
<path fill="none" stroke="black" d="M649.63,-1291.44C553.1,-1244.09 258.35,-1099.49 146.28,-1044.51"/>
<polygon fill="black" stroke="black" points="147.79,-1041.36 137.27,-1040.09 144.7,-1047.64 147.79,-1041.36"/>
<text text-anchor="start" x="356.96" y="-1171.78" font-family="Times New Roman,serif" font-size="14.00">created</text>
</g>
<!-- Entity109 -->
<g id="node60" class="node entity">
<title>Entity109</title>
<ellipse fill="none" stroke="black" cx="2582.94" cy="-1721.66" rx="27" ry="18"/>
<text text-anchor="start" x="2579.44" y="-1717.96" font-family="Times New Roman,serif" font-size="14.00">s</text>
</g>
<!-- Entity112 -->
<g id="node61" class="node entity">
<title>Entity112</title>
<ellipse fill="none" stroke="black" cx="2670.66" cy="-1833.64" rx="27" ry="18"/>
<text text-anchor="start" x="2666.66" y="-1829.94" font-family="Times New Roman,serif" font-size="14.00">o</text>
</g>
<!-- Entity109&#45;&gt;Entity112 -->
<g id="edge67" class="edge verb">
<title>Entity109&#45;&gt;Entity112</title>
<path fill="none" stroke="black" d="M2595.51,-1737.7C2610.23,-1756.5 2634.76,-1787.82 2651.78,-1809.53"/>
<polygon fill="black" stroke="black" points="2649.19,-1811.91 2658.11,-1817.62 2654.7,-1807.59 2649.19,-1811.91"/>
<text text-anchor="start" x="2616.64" y="-1777.42" font-family="Times New Roman,serif" font-size="14.00">v</text>
</g>
</g>
</svg>
