<?xml version="1.0" encoding="UTF-8" standalone="no"?>
<?xml-stylesheet href="./styles.css" type="text/css"?>
<!DOCTYPE svg PUBLIC "-//W3C//DTD SVG 1.1//EN"
 "http://www.w3.org/Graphics/SVG/1.1/DTD/svg11.dtd">
<!-- Generated by graphviz version 2.47.3 (20210619.1520)
 -->
<!-- Title: G Pages: 1 -->
<svg width="7719pt" height="3978pt"
 viewBox="0.00 0.00 7719.00 3978.00" xmlns="http://www.w3.org/2000/svg" xmlns:xlink="http://www.w3.org/1999/xlink">
<g id="graph0" class="graph" transform="scale(1 1) rotate(0) translate(4 3974)">
<title>G</title>
<polygon fill="white" stroke="transparent" points="-4,4 -4,-3974 7715,-3974 7715,4 -4,4"/>
<!-- Entity3 -->
<g id="node1" class="node entity">
<title>Entity3</title>
<ellipse fill="none" stroke="black" cx="5506.97" cy="-2963.08" rx="27" ry="18"/>
<text text-anchor="start" x="5499.47" y="-2959.38" font-family="Times New Roman,serif" font-size="14.00">jfk</text>
</g>
<!-- Entity22 -->
<g id="node2" class="node entity">
<title>Entity22</title>
<ellipse fill="none" stroke="black" cx="5058.96" cy="-2955.68" rx="27" ry="18"/>
<text text-anchor="start" x="5050.96" y="-2951.98" font-family="Times New Roman,serif" font-size="14.00">cia</text>
</g>
<!-- Entity3&#45;&gt;Entity22 -->
<g id="edge1" class="edge verb">
<title>Entity3&#45;&gt;Entity22</title>
<path fill="none" stroke="black" d="M5479.96,-2962.64C5403.24,-2961.37 5183.96,-2957.75 5096.06,-2956.29"/>
<polygon fill="black" stroke="black" points="5096.07,-2952.79 5086.01,-2956.13 5095.95,-2959.79 5096.07,-2952.79"/>
<text text-anchor="start" x="5184.01" y="-2963.27" font-family="Times New Roman,serif" font-size="14.00">heads (1961&#45;1963)</text>
</g>
<!-- Entity66 -->
<g id="node20" class="node entity">
<title>Entity66</title>
<ellipse fill="none" stroke="black" cx="5986.14" cy="-2991.55" rx="31.4" ry="18"/>
<text text-anchor="start" x="5970.14" y="-2987.85" font-family="Times New Roman,serif" font-size="14.00">potus</text>
</g>
<!-- Entity3&#45;&gt;Entity66 -->
<g id="edge23" class="edge verb">
<title>Entity3&#45;&gt;Entity66</title>
<path fill="none" stroke="black" d="M5534.11,-2964.7C5614.06,-2969.45 5849.13,-2983.41 5944.86,-2989.1"/>
<polygon fill="black" stroke="black" points="5944.84,-2992.6 5955.03,-2989.7 5945.25,-2985.62 5944.84,-2992.6"/>
<text text-anchor="start" x="5652.49" y="-2980.7" font-family="Times New Roman,serif" font-size="14.00">isa (1961&#45;1963)</text>
</g>
<!-- Entity67 -->
<g id="node25" class="node entity">
<title>Entity67</title>
<ellipse fill="none" stroke="black" cx="4303.87" cy="-3117.6" rx="77.19" ry="18"/>
<text text-anchor="start" x="4252.37" y="-3113.9" font-family="Times New Roman,serif" font-size="14.00">psi&#45;consciousness</text>
</g>
<!-- Entity22&#45;&gt;Entity67 -->
<g id="edge43" class="edge verb">
<title>Entity22&#45;&gt;Entity67</title>
<path fill="none" stroke="black" d="M5032.97,-2961.25C4927.66,-2983.84 4530.75,-3068.95 4371.04,-3103.19"/>
<polygon fill="black" stroke="black" points="4369.91,-3099.85 4360.87,-3105.37 4371.38,-3106.7 4369.91,-3099.85"/>
<text text-anchor="start" x="4638" y="-3036.02" font-family="Times New Roman,serif" font-size="14.00">investigates</text>
</g>
<!-- Entity90 -->
<g id="node52" class="node entity">
<title>Entity90</title>
<ellipse fill="none" stroke="black" cx="5283.58" cy="-3136.6" rx="27" ry="18"/>
<text text-anchor="start" x="5274.08" y="-3132.9" font-family="Times New Roman,serif" font-size="14.00">ufo</text>
</g>
<!-- Entity22&#45;&gt;Entity90 -->
<g id="edge62" class="edge verb">
<title>Entity22&#45;&gt;Entity90</title>
<path fill="none" stroke="black" d="M5076.21,-2969.58C5115.57,-3001.28 5212.15,-3079.07 5258.27,-3116.21"/>
<polygon fill="black" stroke="black" points="5256.29,-3119.11 5266.27,-3122.65 5260.68,-3113.66 5256.29,-3119.11"/>
<text text-anchor="start" x="5103.24" y="-3046.69" font-family="Times New Roman,serif" font-size="14.00">investigates</text>
</g>
<!-- Entity14 -->
<g id="node3" class="node entity">
<title>Entity14</title>
<ellipse fill="none" stroke="black" cx="3086.6" cy="-2831.91" rx="74.99" ry="18"/>
<text text-anchor="start" x="3037.1" y="-2828.21" font-family="Times New Roman,serif" font-size="14.00">gene roddenberry</text>
</g>
<!-- Entity8 -->
<g id="node4" class="node entity">
<title>Entity8</title>
<ellipse fill="none" stroke="black" cx="3115.53" cy="-2939.85" rx="38.19" ry="18"/>
<text text-anchor="start" x="3094.03" y="-2936.15" font-family="Times New Roman,serif" font-size="14.00">the nine</text>
</g>
<!-- Entity14&#45;&gt;Entity8 -->
<g id="edge2" class="edge verb">
<title>Entity14&#45;&gt;Entity8</title>
<path fill="none" stroke="black" d="M3091.51,-2850.22C3096.04,-2867.15 3102.85,-2892.55 3108.06,-2911.99"/>
<polygon fill="black" stroke="black" points="3104.73,-2913.06 3110.7,-2921.81 3111.49,-2911.24 3104.73,-2913.06"/>
<text text-anchor="start" x="2995.78" y="-2884.9" font-family="Times New Roman,serif" font-size="14.00">claiemd to channel</text>
</g>
<!-- Entity70 -->
<g id="node23" class="node entity">
<title>Entity70</title>
<ellipse fill="none" stroke="black" cx="2729.83" cy="-2527.85" rx="94.48" ry="18"/>
<text text-anchor="start" x="2665.33" y="-2524.15" font-family="Times New Roman,serif" font-size="14.00">egyptian gods in a ship</text>
</g>
<!-- Entity8&#45;&gt;Entity70 -->
<g id="edge16" class="edge verb">
<title>Entity8&#45;&gt;Entity70</title>
<path fill="none" stroke="black" d="M3099.93,-2923.19C3040.12,-2859.29 2825.15,-2629.67 2753.36,-2552.98"/>
<polygon fill="black" stroke="black" points="2755.87,-2550.55 2746.49,-2545.64 2750.76,-2555.33 2755.87,-2550.55"/>
<text text-anchor="start" x="2822.65" y="-2741.89" font-family="Times New Roman,serif" font-size="14.00">claimed to channel</text>
</g>
<!-- Entity16 -->
<g id="node5" class="node entity">
<title>Entity16</title>
<ellipse fill="none" stroke="black" cx="6089.45" cy="-3191.58" rx="68.49" ry="18"/>
<text text-anchor="start" x="6044.95" y="-3187.88" font-family="Times New Roman,serif" font-size="14.00">george hw bush</text>
</g>
<!-- Entity20 -->
<g id="node6" class="node entity">
<title>Entity20</title>
<ellipse fill="none" stroke="black" cx="6329.66" cy="-3299.67" rx="63.89" ry="18"/>
<text text-anchor="start" x="6288.66" y="-3295.97" font-family="Times New Roman,serif" font-size="14.00">george w bush</text>
</g>
<!-- Entity16&#45;&gt;Entity20 -->
<g id="edge3" class="edge verb">
<title>Entity16&#45;&gt;Entity20</title>
<path fill="none" stroke="black" d="M6124.12,-3207.18C6167.03,-3226.49 6240.1,-3259.37 6286.56,-3280.28"/>
<polygon fill="black" stroke="black" points="6285.22,-3283.51 6295.77,-3284.42 6288.09,-3277.13 6285.22,-3283.51"/>
<text text-anchor="start" x="6173.34" y="-3247.53" font-family="Times New Roman,serif" font-size="14.00">father</text>
</g>
<!-- Entity16&#45;&gt;Entity66 -->
<g id="edge20" class="edge verb">
<title>Entity16&#45;&gt;Entity66</title>
<path fill="none" stroke="black" d="M6080.1,-3173.47C6061.76,-3137.97 6021.01,-3059.06 5999.7,-3017.81"/>
<polygon fill="black" stroke="black" points="6002.8,-3016.18 5995.1,-3008.9 5996.58,-3019.39 6002.8,-3016.18"/>
<text text-anchor="start" x="6023.9" y="-3099.44" font-family="Times New Roman,serif" font-size="14.00">isa</text>
</g>
<!-- Entity20&#45;&gt;Entity66 -->
<g id="edge42" class="edge verb">
<title>Entity20&#45;&gt;Entity66</title>
<path fill="none" stroke="black" d="M6310.2,-3282.22C6251.54,-3229.61 6076.4,-3072.51 6011.08,-3013.92"/>
<polygon fill="black" stroke="black" points="6013.09,-3011.03 6003.31,-3006.95 6008.42,-3016.24 6013.09,-3011.03"/>
<text text-anchor="start" x="6144.64" y="-3151.87" font-family="Times New Roman,serif" font-size="14.00">isa</text>
</g>
<!-- Entity2 -->
<g id="node7" class="node entity">
<title>Entity2</title>
<ellipse fill="none" stroke="black" cx="3226.32" cy="-3342.9" rx="41.69" ry="18"/>
<text text-anchor="start" x="3202.32" y="-3339.2" font-family="Times New Roman,serif" font-size="14.00">uri geller</text>
</g>
<!-- Entity2&#45;&gt;Entity8 -->
<g id="edge4" class="edge verb">
<title>Entity2&#45;&gt;Entity8</title>
<path fill="none" stroke="black" d="M3221.34,-3324.8C3203.77,-3260.87 3144.53,-3045.37 3123.24,-2967.89"/>
<polygon fill="black" stroke="black" points="3126.52,-2966.62 3120.49,-2957.9 3119.77,-2968.47 3126.52,-2966.62"/>
<text text-anchor="start" x="3068.29" y="-3150.14" font-family="Times New Roman,serif" font-size="14.00">claiemd to channel</text>
</g>
<!-- Entity26 -->
<g id="node8" class="node entity">
<title>Entity26</title>
<ellipse fill="none" stroke="black" cx="985.27" cy="-3463.03" rx="49.29" ry="18"/>
<text text-anchor="start" x="955.27" y="-3459.33" font-family="Times New Roman,serif" font-size="14.00">adolf hitler</text>
</g>
<!-- Entity28 -->
<g id="node9" class="node entity">
<title>Entity28</title>
<ellipse fill="none" stroke="black" cx="1381.14" cy="-3540.51" rx="32.49" ry="18"/>
<text text-anchor="start" x="1364.14" y="-3536.81" font-family="Times New Roman,serif" font-size="14.00">nsdap</text>
</g>
<!-- Entity26&#45;&gt;Entity28 -->
<g id="edge5" class="edge verb">
<title>Entity26&#45;&gt;Entity28</title>
<path fill="none" stroke="black" d="M1029.15,-3471.62C1106.34,-3486.73 1265.35,-3517.85 1340.32,-3532.52"/>
<polygon fill="black" stroke="black" points="1339.84,-3535.99 1350.32,-3534.48 1341.18,-3529.12 1339.84,-3535.99"/>
<text text-anchor="start" x="1143.73" y="-3505.87" font-family="Times New Roman,serif" font-size="14.00">created</text>
</g>
<!-- Entity75 -->
<g id="node31" class="node entity">
<title>Entity75</title>
<ellipse fill="none" stroke="black" cx="951.9" cy="-3703.45" rx="38.99" ry="18"/>
<text text-anchor="start" x="929.9" y="-3699.75" font-family="Times New Roman,serif" font-size="14.00">far right</text>
</g>
<!-- Entity28&#45;&gt;Entity75 -->
<g id="edge29" class="edge verb">
<title>Entity28&#45;&gt;Entity75</title>
<path fill="none" stroke="black" d="M1354.29,-3550.7C1281.12,-3578.48 1077.96,-3655.6 991.59,-3688.39"/>
<polygon fill="black" stroke="black" points="990.24,-3685.15 982.13,-3691.98 992.72,-3691.7 990.24,-3685.15"/>
<text text-anchor="start" x="1111.94" y="-3623.34" font-family="Times New Roman,serif" font-size="14.00">member of</text>
</g>
<!-- Entity15 -->
<g id="node10" class="node entity">
<title>Entity15</title>
<ellipse fill="none" stroke="black" cx="6281.57" cy="-2618.79" rx="59.59" ry="18"/>
<text text-anchor="start" x="6243.57" y="-2615.09" font-family="Times New Roman,serif" font-size="14.00">donald trump</text>
</g>
<!-- Entity48 -->
<g id="node11" class="node entity">
<title>Entity48</title>
<ellipse fill="none" stroke="black" cx="5584.24" cy="-2724.12" rx="50.09" ry="18"/>
<text text-anchor="start" x="5553.74" y="-2720.42" font-family="Times New Roman,serif" font-size="14.00">john trump</text>
</g>
<!-- Entity15&#45;&gt;Entity48 -->
<g id="edge6" class="edge verb">
<title>Entity15&#45;&gt;Entity48</title>
<path fill="none" stroke="black" d="M6228.01,-2626.88C6099.15,-2646.35 5772.74,-2695.65 5640.83,-2715.57"/>
<polygon fill="black" stroke="black" points="5639.92,-2712.17 5630.55,-2717.13 5640.96,-2719.09 5639.92,-2712.17"/>
<text text-anchor="start" x="5875.42" y="-2675.03" font-family="Times New Roman,serif" font-size="14.00">nephew of</text>
</g>
<!-- Entity15&#45;&gt;Entity66 -->
<g id="edge27" class="edge verb">
<title>Entity15&#45;&gt;Entity66</title>
<path fill="none" stroke="black" d="M6267.33,-2636.77C6218.92,-2697.84 6060.77,-2897.39 6005.45,-2967.18"/>
<polygon fill="black" stroke="black" points="6002.7,-2965.02 5999.23,-2975.03 6008.19,-2969.37 6002.7,-2965.02"/>
<text text-anchor="start" x="6120.39" y="-2805.78" font-family="Times New Roman,serif" font-size="14.00">isa</text>
</g>
<!-- Entity48&#45;&gt;Entity22 -->
<g id="edge10" class="edge verb">
<title>Entity48&#45;&gt;Entity22</title>
<path fill="none" stroke="black" d="M5552.56,-2738.09C5459.05,-2779.31 5184.88,-2900.17 5090.96,-2941.58"/>
<polygon fill="black" stroke="black" points="5089.42,-2938.43 5081.68,-2945.67 5092.24,-2944.84 5089.42,-2938.43"/>
<text text-anchor="start" x="5260.76" y="-2843.63" font-family="Times New Roman,serif" font-size="14.00">member of</text>
</g>
<!-- Entity82 -->
<g id="node41" class="node entity">
<title>Entity82</title>
<ellipse fill="none" stroke="black" cx="5314.71" cy="-2357.6" rx="50.89" ry="18"/>
<text text-anchor="start" x="5283.71" y="-2353.9" font-family="Times New Roman,serif" font-size="14.00">nikola tesla</text>
</g>
<!-- Entity48&#45;&gt;Entity82 -->
<g id="edge40" class="edge verb">
<title>Entity48&#45;&gt;Entity82</title>
<path fill="none" stroke="black" d="M5571.24,-2706.44C5527.47,-2646.93 5385.35,-2453.66 5333.7,-2383.42"/>
<polygon fill="black" stroke="black" points="5336.32,-2381.08 5327.58,-2375.1 5330.68,-2385.23 5336.32,-2381.08"/>
<text text-anchor="start" x="5411.47" y="-2548.73" font-family="Times New Roman,serif" font-size="14.00">studied</text>
</g>
<!-- Entity5 -->
<g id="node12" class="node entity">
<title>Entity5</title>
<ellipse fill="none" stroke="black" cx="3472.81" cy="-3170.31" rx="56.59" ry="18"/>
<text text-anchor="start" x="3437.31" y="-3166.61" font-family="Times New Roman,serif" font-size="14.00">arthur young</text>
</g>
<!-- Entity5&#45;&gt;Entity8 -->
<g id="edge7" class="edge verb">
<title>Entity5&#45;&gt;Entity8</title>
<path fill="none" stroke="black" d="M3447.69,-3154.1C3384.15,-3113.12 3217.13,-3005.38 3147.12,-2960.22"/>
<polygon fill="black" stroke="black" points="3148.6,-2957.01 3138.29,-2954.53 3144.8,-2962.89 3148.6,-2957.01"/>
<text text-anchor="start" x="3235.4" y="-3060.96" font-family="Times New Roman,serif" font-size="14.00">member&#45;of</text>
</g>
<!-- Entity5&#45;&gt;Entity67 -->
<g id="edge18" class="edge verb">
<title>Entity5&#45;&gt;Entity67</title>
<path fill="none" stroke="black" d="M3528.3,-3166.79C3670.51,-3157.77 4048.71,-3133.78 4218.84,-3122.99"/>
<polygon fill="black" stroke="black" points="4219.25,-3126.47 4229.01,-3122.34 4218.8,-3119.48 4219.25,-3126.47"/>
<text text-anchor="start" x="3832.57" y="-3148.69" font-family="Times New Roman,serif" font-size="14.00">studied</text>
</g>
<!-- Entity72 -->
<g id="node28" class="node entity">
<title>Entity72</title>
<ellipse fill="none" stroke="black" cx="2758.85" cy="-3266.23" rx="53.89" ry="18"/>
<text text-anchor="start" x="2725.35" y="-3262.53" font-family="Times New Roman,serif" font-size="14.00">bell aviation</text>
</g>
<!-- Entity5&#45;&gt;Entity72 -->
<g id="edge24" class="edge verb">
<title>Entity5&#45;&gt;Entity72</title>
<path fill="none" stroke="black" d="M3420.6,-3177.32C3291.23,-3194.7 2956.41,-3239.69 2819.03,-3258.15"/>
<polygon fill="black" stroke="black" points="2818.53,-3254.68 2809.09,-3259.48 2819.47,-3261.62 2818.53,-3254.68"/>
<text text-anchor="start" x="3078.81" y="-3221.54" font-family="Times New Roman,serif" font-size="14.00">created</text>
</g>
<!-- Entity1 -->
<g id="node13" class="node entity">
<title>Entity1</title>
<ellipse fill="none" stroke="black" cx="3016.33" cy="-3768.55" rx="64.19" ry="18"/>
<text text-anchor="start" x="2974.83" y="-3764.85" font-family="Times New Roman,serif" font-size="14.00">andre puharich</text>
</g>
<!-- Entity1&#45;&gt;Entity2 -->
<g id="edge8" class="edge verb">
<title>Entity1&#45;&gt;Entity2</title>
<path fill="none" stroke="black" d="M3025.22,-3750.53C3058.16,-3683.77 3173.39,-3450.19 3212.9,-3370.1"/>
<polygon fill="black" stroke="black" points="3216.26,-3371.21 3217.54,-3360.69 3209.98,-3368.11 3216.26,-3371.21"/>
<text text-anchor="start" x="3059.06" y="-3564.12" font-family="Times New Roman,serif" font-size="14.00">sponsored</text>
</g>
<!-- Entity7 -->
<g id="node14" class="node entity">
<title>Entity7</title>
<ellipse fill="none" stroke="black" cx="3731.51" cy="-3338.15" rx="68.49" ry="18"/>
<text text-anchor="start" x="3687.01" y="-3334.45" font-family="Times New Roman,serif" font-size="14.00">jeffrey mishlove</text>
</g>
<!-- Entity7&#45;&gt;Entity2 -->
<g id="edge9" class="edge verb">
<title>Entity7&#45;&gt;Entity2</title>
<path fill="none" stroke="black" d="M3663.11,-3338.79C3560.72,-3339.76 3369.83,-3341.55 3278.12,-3342.42"/>
<polygon fill="black" stroke="black" points="3277.94,-3338.92 3267.97,-3342.51 3278,-3345.92 3277.94,-3338.92"/>
<text text-anchor="start" x="3415.62" y="-3344.4" font-family="Times New Roman,serif" font-size="14.00">promoted</text>
</g>
<!-- Entity7&#45;&gt;Entity67 -->
<g id="edge19" class="edge verb">
<title>Entity7&#45;&gt;Entity67</title>
<path fill="none" stroke="black" d="M3777.32,-3324.6C3885.7,-3287.02 4156.54,-3182.65 4261.44,-3138.02"/>
<polygon fill="black" stroke="black" points="4262.96,-3141.18 4270.77,-3134.02 4260.2,-3134.74 4262.96,-3141.18"/>
<text text-anchor="start" x="3978.38" y="-3235.11" font-family="Times New Roman,serif" font-size="14.00">studied</text>
</g>
<!-- Entity7&#45;&gt;Entity67 -->
<g id="edge26" class="edge verb">
<title>Entity7&#45;&gt;Entity67</title>
<path fill="none" stroke="black" d="M3763.54,-3322.19C3856.48,-3281.88 4127.06,-3177.31 4246.3,-3135.26"/>
<polygon fill="black" stroke="black" points="4247.71,-3138.47 4255.99,-3131.86 4245.4,-3131.87 4247.71,-3138.47"/>
<text text-anchor="start" x="3940.92" y="-3217.52" font-family="Times New Roman,serif" font-size="14.00">investigates</text>
</g>
<!-- Entity30 -->
<g id="node15" class="node entity">
<title>Entity30</title>
<ellipse fill="none" stroke="black" cx="2012.61" cy="-3362.22" rx="74.99" ry="18"/>
<text text-anchor="start" x="1963.11" y="-3358.52" font-family="Times New Roman,serif" font-size="14.00">walter dornberger</text>
</g>
<!-- Entity30&#45;&gt;Entity28 -->
<g id="edge11" class="edge verb">
<title>Entity30&#45;&gt;Entity28</title>
<path fill="none" stroke="black" d="M1963.85,-3375.99C1842.66,-3410.21 1529.68,-3498.57 1419.89,-3529.57"/>
<polygon fill="black" stroke="black" points="1418.89,-3526.21 1410.22,-3532.3 1420.79,-3532.95 1418.89,-3526.21"/>
<text text-anchor="start" x="1630.87" y="-3456.58" font-family="Times New Roman,serif" font-size="14.00">member of</text>
</g>
<!-- Entity30&#45;&gt;Entity72 -->
<g id="edge35" class="edge verb">
<title>Entity30&#45;&gt;Entity72</title>
<path fill="none" stroke="black" d="M2084.7,-3357.16C2232.88,-3341.69 2568.96,-3298.32 2702.56,-3277.3"/>
<polygon fill="black" stroke="black" points="2703.26,-3280.73 2712.58,-3275.7 2702.16,-3273.82 2703.26,-3280.73"/>
<text text-anchor="start" x="2314.63" y="-3321.03" font-family="Times New Roman,serif" font-size="14.00">vice&#45;president</text>
</g>
<!-- Entity30&#45;&gt;Entity72 -->
<g id="edge49" class="edge verb">
<title>Entity30&#45;&gt;Entity72</title>
<path fill="none" stroke="black" d="M2070.68,-3350.88C2208.13,-3329.33 2552.53,-3284.99 2695.3,-3270.41"/>
<polygon fill="black" stroke="black" points="2696.04,-3273.85 2705.64,-3269.37 2695.34,-3266.89 2696.04,-3273.85"/>
<text text-anchor="start" x="2326.99" y="-3299.45" font-family="Times New Roman,serif" font-size="14.00">worked at</text>
</g>
<!-- Entity76 -->
<g id="node35" class="node entity">
<title>Entity76</title>
<ellipse fill="none" stroke="black" cx="1514.65" cy="-3389.99" rx="90.98" ry="18"/>
<text text-anchor="start" x="1452.65" y="-3386.29" font-family="Times New Roman,serif" font-size="14.00">nsdap rocket program</text>
</g>
<!-- Entity30&#45;&gt;Entity76 -->
<g id="edge36" class="edge verb">
<title>Entity30&#45;&gt;Entity76</title>
<path fill="none" stroke="black" d="M1939.67,-3366.29C1853.18,-3371.11 1708.66,-3379.17 1612.5,-3384.53"/>
<polygon fill="black" stroke="black" points="1612.27,-3381.04 1602.48,-3385.09 1612.66,-3388.03 1612.27,-3381.04"/>
<text text-anchor="start" x="1735.09" y="-3379.21" font-family="Times New Roman,serif" font-size="14.00">created</text>
</g>
<!-- Entity104 -->
<g id="node55" class="node entity">
<title>Entity104</title>
<ellipse fill="none" stroke="black" cx="1556.25" cy="-2994.42" rx="65.79" ry="18"/>
<text text-anchor="start" x="1513.75" y="-2990.72" font-family="Times New Roman,serif" font-size="14.00">x series aircraft</text>
</g>
<!-- Entity30&#45;&gt;Entity104 -->
<g id="edge59" class="edge verb">
<title>Entity30&#45;&gt;Entity104</title>
<path fill="none" stroke="black" d="M1991.21,-3344.98C1917.03,-3285.19 1670.77,-3086.72 1585.57,-3018.05"/>
<polygon fill="black" stroke="black" points="1587.58,-3015.18 1577.6,-3011.63 1583.19,-3020.63 1587.58,-3015.18"/>
<text text-anchor="start" x="1747.39" y="-3185.31" font-family="Times New Roman,serif" font-size="14.00">created</text>
</g>
<!-- Entity32 -->
<g id="node16" class="node entity">
<title>Entity32</title>
<ellipse fill="none" stroke="black" cx="1650.92" cy="-3498.03" rx="46.29" ry="18"/>
<text text-anchor="start" x="1623.42" y="-3494.33" font-family="Times New Roman,serif" font-size="14.00">van braun</text>
</g>
<!-- Entity32&#45;&gt;Entity30 -->
<g id="edge12" class="edge verb">
<title>Entity32&#45;&gt;Entity30</title>
<path fill="none" stroke="black" d="M1684.3,-3485.5C1748.07,-3461.55 1887.52,-3409.19 1962.52,-3381.03"/>
<polygon fill="black" stroke="black" points="1964.09,-3384.18 1972.22,-3377.39 1961.63,-3377.63 1964.09,-3384.18"/>
<text text-anchor="start" x="1760.41" y="-3437.06" font-family="Times New Roman,serif" font-size="14.00">worked for</text>
</g>
<!-- Entity32&#45;&gt;Entity76 -->
<g id="edge48" class="edge verb">
<title>Entity32&#45;&gt;Entity76</title>
<path fill="none" stroke="black" d="M1630.52,-3481.85C1607.87,-3463.9 1571.09,-3434.74 1545.05,-3414.09"/>
<polygon fill="black" stroke="black" points="1547.01,-3411.18 1537,-3407.71 1542.67,-3416.67 1547.01,-3411.18"/>
<text text-anchor="start" x="1531.78" y="-3451.77" font-family="Times New Roman,serif" font-size="14.00">worked at</text>
</g>
<!-- Entity29 -->
<g id="node17" class="node entity">
<title>Entity29</title>
<ellipse fill="none" stroke="black" cx="6247.85" cy="-3697.88" rx="37.89" ry="18"/>
<text text-anchor="start" x="6226.85" y="-3694.18" font-family="Times New Roman,serif" font-size="14.00">hunt oil</text>
</g>
<!-- Entity36 -->
<g id="node18" class="node entity">
<title>Entity36</title>
<ellipse fill="none" stroke="black" cx="6212.17" cy="-3589.89" rx="77.99" ry="18"/>
<text text-anchor="start" x="6160.17" y="-3586.19" font-family="Times New Roman,serif" font-size="14.00">dwight eisenhower</text>
</g>
<!-- Entity29&#45;&gt;Entity36 -->
<g id="edge13" class="edge verb">
<title>Entity29&#45;&gt;Entity36</title>
<path fill="none" stroke="black" d="M6241.96,-3680.05C6236.36,-3663.11 6227.87,-3637.39 6221.38,-3617.75"/>
<polygon fill="black" stroke="black" points="6224.65,-3616.51 6218.19,-3608.11 6218.01,-3618.71 6224.65,-3616.51"/>
<text text-anchor="start" x="6191.67" y="-3652.7" font-family="Times New Roman,serif" font-size="14.00">funded</text>
</g>
<!-- Entity36&#45;&gt;Entity66 -->
<g id="edge34" class="edge verb">
<title>Entity36&#45;&gt;Entity66</title>
<path fill="none" stroke="black" d="M6205.29,-3571.66C6172.85,-3485.8 6035.29,-3121.66 5996.41,-3018.74"/>
<polygon fill="black" stroke="black" points="5999.67,-3017.47 5992.86,-3009.35 5993.12,-3019.94 5999.67,-3017.47"/>
<text text-anchor="start" x="6081.85" y="-3299" font-family="Times New Roman,serif" font-size="14.00">is a</text>
</g>
<!-- Entity11 -->
<g id="node19" class="node entity">
<title>Entity11</title>
<ellipse fill="none" stroke="black" cx="6463.9" cy="-3191.54" rx="56.59" ry="18"/>
<text text-anchor="start" x="6428.4" y="-3187.84" font-family="Times New Roman,serif" font-size="14.00">harry truman</text>
</g>
<!-- Entity11&#45;&gt;Entity66 -->
<g id="edge14" class="edge verb">
<title>Entity11&#45;&gt;Entity66</title>
<path fill="none" stroke="black" d="M6429.54,-3177.16C6341.58,-3140.34 6109.03,-3042.99 6020.77,-3006.05"/>
<polygon fill="black" stroke="black" points="6022.05,-3002.79 6011.47,-3002.15 6019.34,-3009.24 6022.05,-3002.79"/>
<text text-anchor="start" x="6209.15" y="-3095.4" font-family="Times New Roman,serif" font-size="14.00">isa</text>
</g>
<!-- Entity69 -->
<g id="node24" class="node entity">
<title>Entity69</title>
<ellipse fill="none" stroke="black" cx="6901.85" cy="-3491.09" rx="55.79" ry="18"/>
<text text-anchor="start" x="6866.85" y="-3487.39" font-family="Times New Roman,serif" font-size="14.00">freemasonry</text>
</g>
<!-- Entity11&#45;&gt;Entity69 -->
<g id="edge17" class="edge verb">
<title>Entity11&#45;&gt;Entity69</title>
<path fill="none" stroke="black" d="M6488.07,-3208.07C6562.1,-3258.72 6785.82,-3411.73 6869.66,-3469.07"/>
<polygon fill="black" stroke="black" points="6867.79,-3472.04 6878.02,-3474.79 6871.74,-3466.26 6867.79,-3472.04"/>
<text text-anchor="start" x="6617.86" y="-3342.37" font-family="Times New Roman,serif" font-size="14.00">member of</text>
</g>
<!-- Entity63 -->
<g id="node21" class="node entity">
<title>Entity63</title>
<ellipse fill="none" stroke="black" cx="5647.35" cy="-3940.73" rx="53.89" ry="18"/>
<text text-anchor="start" x="5613.85" y="-3937.03" font-family="Times New Roman,serif" font-size="14.00">edgar casey</text>
</g>
<!-- Entity59 -->
<g id="node22" class="node entity">
<title>Entity59</title>
<ellipse fill="none" stroke="black" cx="5711.94" cy="-3372.11" rx="71.49" ry="18"/>
<text text-anchor="start" x="5664.94" y="-3368.41" font-family="Times New Roman,serif" font-size="14.00">woodrow wilson</text>
</g>
<!-- Entity63&#45;&gt;Entity59 -->
<g id="edge15" class="edge verb">
<title>Entity63&#45;&gt;Entity59</title>
<path fill="none" stroke="black" d="M5649.43,-3922.46C5658.81,-3839.83 5697.32,-3500.86 5708.73,-3400.33"/>
<polygon fill="black" stroke="black" points="5712.22,-3400.65 5709.87,-3390.32 5705.26,-3399.86 5712.22,-3400.65"/>
<text text-anchor="start" x="5637.08" y="-3665.2" font-family="Times New Roman,serif" font-size="14.00">advises</text>
</g>
<!-- Entity59&#45;&gt;Entity66 -->
<g id="edge30" class="edge verb">
<title>Entity59&#45;&gt;Entity66</title>
<path fill="none" stroke="black" d="M5724.8,-3354.27C5769.17,-3292.68 5915.99,-3088.91 5967.82,-3016.97"/>
<polygon fill="black" stroke="black" points="5970.93,-3018.65 5973.94,-3008.49 5965.25,-3014.55 5970.93,-3018.65"/>
<text text-anchor="start" x="5830.31" y="-3189.42" font-family="Times New Roman,serif" font-size="14.00">isa</text>
</g>
<!-- Entity92 -->
<g id="node50" class="node entity">
<title>Entity92</title>
<ellipse fill="none" stroke="black" cx="5685.22" cy="-3480.09" rx="71.49" ry="18"/>
<text text-anchor="start" x="5638.22" y="-3476.39" font-family="Times New Roman,serif" font-size="14.00">leauge of nations</text>
</g>
<!-- Entity59&#45;&gt;Entity92 -->
<g id="edge54" class="edge verb">
<title>Entity59&#45;&gt;Entity92</title>
<path fill="none" stroke="black" d="M5707.41,-3390.43C5703.22,-3407.36 5696.93,-3432.77 5692.12,-3452.22"/>
<polygon fill="black" stroke="black" points="5688.69,-3451.5 5689.69,-3462.05 5695.49,-3453.18 5688.69,-3451.5"/>
<text text-anchor="start" x="5658.76" y="-3425.13" font-family="Times New Roman,serif" font-size="14.00">created</text>
</g>
<!-- Entity18 -->
<g id="node26" class="node entity">
<title>Entity18</title>
<ellipse fill="none" stroke="black" cx="6033.31" cy="-3343.53" rx="35.19" ry="18"/>
<text text-anchor="start" x="6014.31" y="-3339.83" font-family="Times New Roman,serif" font-size="14.00">obama</text>
</g>
<!-- Entity18&#45;&gt;Entity66 -->
<g id="edge21" class="edge verb">
<title>Entity18&#45;&gt;Entity66</title>
<path fill="none" stroke="black" d="M6030.84,-3325.1C6023.1,-3267.36 5999.29,-3089.7 5989.96,-3020.02"/>
<polygon fill="black" stroke="black" points="5993.38,-3019.24 5988.59,-3009.8 5986.44,-3020.17 5993.38,-3019.24"/>
<text text-anchor="start" x="5994.4" y="-3176.36" font-family="Times New Roman,serif" font-size="14.00">isa</text>
</g>
<!-- Entity12 -->
<g id="node27" class="node entity">
<title>Entity12</title>
<ellipse fill="none" stroke="black" cx="6400.79" cy="-2891.17" rx="58.49" ry="18"/>
<text text-anchor="start" x="6363.79" y="-2887.47" font-family="Times New Roman,serif" font-size="14.00">richard nixon</text>
</g>
<!-- Entity12&#45;&gt;Entity66 -->
<g id="edge22" class="edge verb">
<title>Entity12&#45;&gt;Entity66</title>
<path fill="none" stroke="black" d="M6354.43,-2902.39C6272.01,-2922.34 6101.47,-2963.63 6024.87,-2982.17"/>
<polygon fill="black" stroke="black" points="6024.04,-2978.78 6015.14,-2984.53 6025.68,-2985.58 6024.04,-2978.78"/>
<text text-anchor="start" x="6173.65" y="-2946.08" font-family="Times New Roman,serif" font-size="14.00">isa</text>
</g>
<!-- Entity24 -->
<g id="node29" class="node entity">
<title>Entity24</title>
<ellipse fill="none" stroke="black" cx="4216.35" cy="-3225.56" rx="63.89" ry="18"/>
<text text-anchor="start" x="4175.35" y="-3221.86" font-family="Times New Roman,serif" font-size="14.00">robert bigelow</text>
</g>
<!-- Entity24&#45;&gt;Entity7 -->
<g id="edge25" class="edge verb">
<title>Entity24&#45;&gt;Entity7</title>
<path fill="none" stroke="black" d="M4166.74,-3237.08C4077.46,-3257.81 3890.01,-3301.34 3792.84,-3323.91"/>
<polygon fill="black" stroke="black" points="3791.82,-3320.55 3782.87,-3326.22 3793.4,-3327.37 3791.82,-3320.55"/>
<text text-anchor="start" x="3947.79" y="-3284.29" font-family="Times New Roman,serif" font-size="14.00">funds</text>
</g>
<!-- Entity24&#45;&gt;Entity67 -->
<g id="edge45" class="edge verb">
<title>Entity24&#45;&gt;Entity67</title>
<path fill="none" stroke="black" d="M4230.8,-3207.73C4244.99,-3190.23 4266.79,-3163.34 4282.88,-3143.48"/>
<polygon fill="black" stroke="black" points="4285.81,-3145.42 4289.39,-3135.45 4280.38,-3141.01 4285.81,-3145.42"/>
<text text-anchor="start" x="4192.84" y="-3179.41" font-family="Times New Roman,serif" font-size="14.00">investigates</text>
</g>
<!-- Entity44 -->
<g id="node30" class="node entity">
<title>Entity44</title>
<ellipse fill="none" stroke="black" cx="7015.82" cy="-2437.95" rx="58.49" ry="18"/>
<text text-anchor="start" x="6978.82" y="-2434.25" font-family="Times New Roman,serif" font-size="14.00">steve bannon</text>
</g>
<!-- Entity44&#45;&gt;Entity15 -->
<g id="edge28" class="edge verb">
<title>Entity44&#45;&gt;Entity15</title>
<path fill="none" stroke="black" d="M6964.78,-2446.79C6829.99,-2475.71 6465.76,-2565.4 6331.85,-2602.65"/>
<polygon fill="black" stroke="black" points="6330.54,-2599.38 6321.86,-2605.45 6332.43,-2606.12 6330.54,-2599.38"/>
<text text-anchor="start" x="6593.31" y="-2528.52" font-family="Times New Roman,serif" font-size="14.00">promoted</text>
</g>
<!-- Entity44&#45;&gt;Entity15 -->
<g id="edge64" class="edge verb">
<title>Entity44&#45;&gt;Entity15</title>
<path fill="none" stroke="black" d="M6975.83,-2451.21C6854.53,-2485.58 6490.21,-2575.53 6343.64,-2607.56"/>
<polygon fill="black" stroke="black" points="6342.5,-2604.23 6333.47,-2609.77 6343.99,-2611.07 6342.5,-2604.23"/>
<text text-anchor="start" x="6659.73" y="-2533.19" font-family="Times New Roman,serif" font-size="14.00">advises</text>
</g>
<!-- Entity83 -->
<g id="node40" class="node entity">
<title>Entity83</title>
<ellipse fill="none" stroke="black" cx="7005.03" cy="-1918.72" rx="61.99" ry="18"/>
<text text-anchor="start" x="6965.53" y="-1915.02" font-family="Times New Roman,serif" font-size="14.00">breitbart news</text>
</g>
<!-- Entity44&#45;&gt;Entity83 -->
<g id="edge46" class="edge verb">
<title>Entity44&#45;&gt;Entity83</title>
<path fill="none" stroke="black" d="M7015.44,-2419.78C7013.84,-2342.51 7007.57,-2041 7005.62,-1946.92"/>
<polygon fill="black" stroke="black" points="7009.11,-1946.67 7005.41,-1936.75 7002.11,-1946.82 7009.11,-1946.67"/>
<text text-anchor="start" x="6969.53" y="-2187.15" font-family="Times New Roman,serif" font-size="14.00">created</text>
</g>
<!-- Entity89 -->
<g id="node49" class="node entity">
<title>Entity89</title>
<ellipse fill="none" stroke="black" cx="7331.54" cy="-2123.83" rx="35.19" ry="18"/>
<text text-anchor="start" x="7312.54" y="-2120.13" font-family="Times New Roman,serif" font-size="14.00">gurgev</text>
</g>
<!-- Entity44&#45;&gt;Entity89 -->
<g id="edge53" class="edge verb">
<title>Entity44&#45;&gt;Entity89</title>
<path fill="none" stroke="black" d="M7033.25,-2420.62C7086.55,-2367.58 7247.49,-2207.46 7308.1,-2147.15"/>
<polygon fill="black" stroke="black" points="7310.69,-2149.51 7315.31,-2139.97 7305.76,-2144.55 7310.69,-2149.51"/>
<text text-anchor="start" x="7129.67" y="-2287.68" font-family="Times New Roman,serif" font-size="14.00">studied</text>
</g>
<!-- Entity91 -->
<g id="node51" class="node entity">
<title>Entity91</title>
<ellipse fill="none" stroke="black" cx="7401.37" cy="-2677.35" rx="38.19" ry="18"/>
<text text-anchor="start" x="7379.87" y="-2673.65" font-family="Times New Roman,serif" font-size="14.00">us navy</text>
</g>
<!-- Entity44&#45;&gt;Entity91 -->
<g id="edge55" class="edge verb">
<title>Entity44&#45;&gt;Entity91</title>
<path fill="none" stroke="black" d="M7042.02,-2454.22C7110.59,-2496.79 7295.15,-2611.4 7369.6,-2657.62"/>
<polygon fill="black" stroke="black" points="7367.77,-2660.61 7378.12,-2662.91 7371.47,-2654.66 7367.77,-2660.61"/>
<text text-anchor="start" x="7144.81" y="-2559.72" font-family="Times New Roman,serif" font-size="14.00">member of</text>
</g>
<!-- Entity94 -->
<g id="node53" class="node entity">
<title>Entity94</title>
<ellipse fill="none" stroke="black" cx="7493.65" cy="-2231.8" rx="53.09" ry="18"/>
<text text-anchor="start" x="7460.65" y="-2228.1" font-family="Times New Roman,serif" font-size="14.00">biosphere 2</text>
</g>
<!-- Entity44&#45;&gt;Entity94 -->
<g id="edge57" class="edge verb">
<title>Entity44&#45;&gt;Entity94</title>
<path fill="none" stroke="black" d="M7049.8,-2423.29C7135.05,-2386.51 7357.85,-2290.39 7451.36,-2250.04"/>
<polygon fill="black" stroke="black" points="7453,-2253.15 7460.79,-2245.97 7450.23,-2246.72 7453,-2253.15"/>
<text text-anchor="start" x="7209.58" y="-2340.47" font-family="Times New Roman,serif" font-size="14.00">created</text>
</g>
<!-- Entity107 -->
<g id="node58" class="node entity">
<title>Entity107</title>
<ellipse fill="none" stroke="black" cx="7633.84" cy="-2362.58" rx="77.19" ry="18"/>
<text text-anchor="start" x="7582.34" y="-2358.88" font-family="Times New Roman,serif" font-size="14.00">hollywood movies</text>
</g>
<!-- Entity44&#45;&gt;Entity107 -->
<g id="edge61" class="edge verb">
<title>Entity44&#45;&gt;Entity107</title>
<path fill="none" stroke="black" d="M7070.4,-2431.3C7180.11,-2417.92 7427.75,-2387.72 7555.04,-2372.19"/>
<polygon fill="black" stroke="black" points="7555.61,-2375.65 7565.11,-2370.96 7554.76,-2368.7 7555.61,-2375.65"/>
<text text-anchor="start" x="7257.72" y="-2405.55" font-family="Times New Roman,serif" font-size="14.00">produced</text>
</g>
<!-- Entity111 -->
<g id="node59" class="node entity">
<title>Entity111</title>
<ellipse fill="none" stroke="black" cx="7569.17" cy="-2569.22" rx="64.99" ry="18"/>
<text text-anchor="start" x="7527.17" y="-2565.52" font-family="Times New Roman,serif" font-size="14.00">goldman sachs</text>
</g>
<!-- Entity44&#45;&gt;Entity111 -->
<g id="edge66" class="edge verb">
<title>Entity44&#45;&gt;Entity111</title>
<path fill="none" stroke="black" d="M7062.52,-2449.03C7162.83,-2472.83 7398.74,-2528.79 7509.61,-2555.09"/>
<polygon fill="black" stroke="black" points="7509.09,-2558.57 7519.62,-2557.47 7510.7,-2551.76 7509.09,-2558.57"/>
<text text-anchor="start" x="7223.07" y="-2505.86" font-family="Times New Roman,serif" font-size="14.00">worked for</text>
</g>
<!-- Entity33 -->
<g id="node32" class="node entity">
<title>Entity33</title>
<ellipse fill="none" stroke="black" cx="2293.53" cy="-3253.45" rx="57.69" ry="18"/>
<text text-anchor="start" x="2257.03" y="-3249.75" font-family="Times New Roman,serif" font-size="14.00">michael pane</text>
</g>
<!-- Entity33&#45;&gt;Entity30 -->
<g id="edge47" class="edge verb">
<title>Entity33&#45;&gt;Entity30</title>
<path fill="none" stroke="black" d="M2257.09,-3267.56C2207.24,-3286.87 2117.6,-3321.57 2061.82,-3343.17"/>
<polygon fill="black" stroke="black" points="2060.21,-3340.04 2052.15,-3346.91 2062.74,-3346.57 2060.21,-3340.04"/>
<text text-anchor="start" x="2096.46" y="-3309.17" font-family="Times New Roman,serif" font-size="14.00">worked for</text>
</g>
<!-- Entity33&#45;&gt;Entity72 -->
<g id="edge31" class="edge verb">
<title>Entity33&#45;&gt;Entity72</title>
<path fill="none" stroke="black" d="M2351.52,-3255.05C2438.91,-3257.45 2603.76,-3261.97 2694.65,-3264.47"/>
<polygon fill="black" stroke="black" points="2694.73,-3267.97 2704.82,-3264.75 2694.92,-3260.98 2694.73,-3267.97"/>
<text text-anchor="start" x="2467.09" y="-3263.56" font-family="Times New Roman,serif" font-size="14.00">worked at</text>
</g>
<!-- Entity45 -->
<g id="node33" class="node entity">
<title>Entity45</title>
<ellipse fill="none" stroke="black" cx="5918.46" cy="-2327.46" rx="67.69" ry="18"/>
<text text-anchor="start" x="5874.46" y="-2323.76" font-family="Times New Roman,serif" font-size="14.00">abraham lincoln</text>
</g>
<!-- Entity45&#45;&gt;Entity66 -->
<g id="edge32" class="edge verb">
<title>Entity45&#45;&gt;Entity66</title>
<path fill="none" stroke="black" d="M5920.3,-2345.57C5929.65,-2437.3 5971.8,-2850.81 5983.26,-2963.25"/>
<polygon fill="black" stroke="black" points="5979.8,-2963.87 5984.3,-2973.46 5986.76,-2963.16 5979.8,-2963.87"/>
<text text-anchor="start" x="5935.78" y="-2658.21" font-family="Times New Roman,serif" font-size="14.00">isa</text>
</g>
<!-- Entity38 -->
<g id="node34" class="node entity">
<title>Entity38</title>
<ellipse fill="none" stroke="black" cx="5800.6" cy="-1469.65" rx="90.98" ry="18"/>
<text text-anchor="start" x="5738.6" y="-1465.95" font-family="Times New Roman,serif" font-size="14.00">emma hardinge&#45;britten</text>
</g>
<!-- Entity38&#45;&gt;Entity45 -->
<g id="edge33" class="edge verb">
<title>Entity38&#45;&gt;Entity45</title>
<path fill="none" stroke="black" d="M5803.12,-1487.96C5818.15,-1597.43 5896.13,-2164.99 5914.55,-2299.06"/>
<polygon fill="black" stroke="black" points="5911.14,-2299.89 5915.96,-2309.32 5918.07,-2298.93 5911.14,-2299.89"/>
<text text-anchor="start" x="5759.83" y="-1897.31" font-family="Times New Roman,serif" font-size="14.00">spokesperson for</text>
</g>
<!-- Entity79 -->
<g id="node38" class="node entity">
<title>Entity79</title>
<ellipse fill="none" stroke="black" cx="5849.92" cy="-909.35" rx="39.79" ry="18"/>
<text text-anchor="start" x="5827.42" y="-905.65" font-family="Times New Roman,serif" font-size="14.00">medium</text>
</g>
<!-- Entity38&#45;&gt;Entity79 -->
<g id="edge38" class="edge verb">
<title>Entity38&#45;&gt;Entity79</title>
<path fill="none" stroke="black" d="M5802.18,-1451.64C5809.34,-1370.4 5838.63,-1037.62 5847.42,-937.79"/>
<polygon fill="black" stroke="black" points="5850.93,-937.84 5848.32,-927.57 5843.96,-937.23 5850.93,-937.84"/>
<text text-anchor="start" x="5808.8" y="-1198.52" font-family="Times New Roman,serif" font-size="14.00">isa</text>
</g>
<!-- Entity86 -->
<g id="node48" class="node entity">
<title>Entity86</title>
<ellipse fill="none" stroke="black" cx="5762.65" cy="-1361.73" rx="85.29" ry="18"/>
<text text-anchor="start" x="5705.15" y="-1358.03" font-family="Times New Roman,serif" font-size="14.00">theosophical society</text>
</g>
<!-- Entity38&#45;&gt;Entity86 -->
<g id="edge65" class="edge verb">
<title>Entity38&#45;&gt;Entity86</title>
<path fill="none" stroke="black" d="M5794.16,-1451.34C5788.18,-1434.34 5779.2,-1408.79 5772.35,-1389.32"/>
<polygon fill="black" stroke="black" points="5775.61,-1388.04 5768.99,-1379.77 5769.01,-1390.37 5775.61,-1388.04"/>
<text text-anchor="start" x="5742.26" y="-1424.13" font-family="Times New Roman,serif" font-size="14.00">created</text>
</g>
<!-- Entity99 -->
<g id="node54" class="node entity">
<title>Entity99</title>
<ellipse fill="none" stroke="black" cx="6144.27" cy="-946.91" rx="55.79" ry="18"/>
<text text-anchor="start" x="6109.27" y="-943.21" font-family="Times New Roman,serif" font-size="14.00">orphic circle</text>
</g>
<!-- Entity38&#45;&gt;Entity99 -->
<g id="edge58" class="edge verb">
<title>Entity38&#45;&gt;Entity99</title>
<path fill="none" stroke="black" d="M5812.43,-1451.66C5863.66,-1373.73 6066.52,-1065.18 6127.1,-973.03"/>
<polygon fill="black" stroke="black" points="6130.1,-974.84 6132.67,-964.56 6124.25,-970.99 6130.1,-974.84"/>
<text text-anchor="start" x="5908.76" y="-1216.14" font-family="Times New Roman,serif" font-size="14.00">member of</text>
</g>
<!-- Entity42 -->
<g id="node36" class="node entity">
<title>Entity42</title>
<ellipse fill="none" stroke="black" cx="4463.94" cy="-1487.66" rx="53.89" ry="18"/>
<text text-anchor="start" x="4430.44" y="-1483.96" font-family="Times New Roman,serif" font-size="14.00">black magic</text>
</g>
<!-- Entity81 -->
<g id="node37" class="node entity">
<title>Entity81</title>
<ellipse fill="none" stroke="black" cx="4551.66" cy="-1599.64" rx="28.7" ry="18"/>
<text text-anchor="start" x="4537.66" y="-1595.94" font-family="Times New Roman,serif" font-size="14.00">x left</text>
</g>
<!-- Entity42&#45;&gt;Entity81 -->
<g id="edge37" class="edge verb">
<title>Entity42&#45;&gt;Entity81</title>
<path fill="none" stroke="black" d="M4477.64,-1505.16C4492.45,-1524.05 4516.14,-1554.29 4532.72,-1575.45"/>
<polygon fill="black" stroke="black" points="4529.98,-1577.64 4538.9,-1583.36 4535.49,-1573.32 4529.98,-1577.64"/>
<text text-anchor="start" x="4444.18" y="-1544.11" font-family="Times New Roman,serif" font-size="14.00">member of</text>
</g>
<!-- Entity47 -->
<g id="node39" class="node entity">
<title>Entity47</title>
<ellipse fill="none" stroke="black" cx="7026.58" cy="-1810.77" rx="69.59" ry="18"/>
<text text-anchor="start" x="6981.08" y="-1807.07" font-family="Times New Roman,serif" font-size="14.00">andrew breitbart</text>
</g>
<!-- Entity47&#45;&gt;Entity83 -->
<g id="edge39" class="edge verb">
<title>Entity47&#45;&gt;Entity83</title>
<path fill="none" stroke="black" d="M7022.92,-1829.08C7019.54,-1846.01 7014.47,-1871.41 7010.59,-1890.85"/>
<polygon fill="black" stroke="black" points="7007.16,-1890.18 7008.63,-1900.68 7014.02,-1891.56 7007.16,-1890.18"/>
<text text-anchor="start" x="6975.76" y="-1863.77" font-family="Times New Roman,serif" font-size="14.00">created</text>
</g>
<!-- Entity35 -->
<g id="node42" class="node entity">
<title>Entity35</title>
<ellipse fill="none" stroke="black" cx="3861.94" cy="-1487.66" rx="39.79" ry="18"/>
<text text-anchor="start" x="3839.44" y="-1483.96" font-family="Times New Roman,serif" font-size="14.00">crowley</text>
</g>
<!-- Entity80 -->
<g id="node43" class="node entity">
<title>Entity80</title>
<ellipse fill="none" stroke="black" cx="3949.66" cy="-1599.64" rx="38.99" ry="18"/>
<text text-anchor="start" x="3927.66" y="-1595.94" font-family="Times New Roman,serif" font-size="14.00">x magic</text>
</g>
<!-- Entity35&#45;&gt;Entity80 -->
<g id="edge41" class="edge verb">
<title>Entity35&#45;&gt;Entity80</title>
<path fill="none" stroke="black" d="M3875.26,-1504.67C3889.82,-1523.25 3913.28,-1553.2 3929.96,-1574.49"/>
<polygon fill="black" stroke="black" points="3927.29,-1576.76 3936.21,-1582.47 3932.8,-1572.44 3927.29,-1576.76"/>
<text text-anchor="start" x="3841.61" y="-1543.38" font-family="Times New Roman,serif" font-size="14.00">member of</text>
</g>
<!-- Entity19 -->
<g id="node44" class="node entity">
<title>Entity19</title>
<ellipse fill="none" stroke="black" cx="5628" cy="-3096.8" rx="31.4" ry="18"/>
<text text-anchor="start" x="5612" y="-3093.1" font-family="Times New Roman,serif" font-size="14.00">carter</text>
</g>
<!-- Entity19&#45;&gt;Entity66 -->
<g id="edge44" class="edge verb">
<title>Entity19&#45;&gt;Entity66</title>
<path fill="none" stroke="black" d="M5655.81,-3088.63C5719.53,-3069.9 5876.21,-3023.86 5948.49,-3002.62"/>
<polygon fill="black" stroke="black" points="5949.5,-3005.97 5958.11,-2999.79 5947.53,-2999.25 5949.5,-3005.97"/>
<text text-anchor="start" x="5786.15" y="-3049.42" font-family="Times New Roman,serif" font-size="14.00">isa</text>
</g>
<!-- Entity19&#45;&gt;Entity90 -->
<g id="edge56" class="edge verb">
<title>Entity19&#45;&gt;Entity90</title>
<path fill="none" stroke="black" d="M5597.13,-3100.37C5533.82,-3107.69 5389.45,-3124.37 5320.96,-3132.28"/>
<polygon fill="black" stroke="black" points="5320.18,-3128.85 5310.65,-3133.47 5320.98,-3135.8 5320.18,-3128.85"/>
<text text-anchor="start" x="5404.05" y="-3120.12" font-family="Times New Roman,serif" font-size="14.00">witnessed</text>
</g>
<!-- Entity27 -->
<g id="node45" class="node entity">
<title>Entity27</title>
<ellipse fill="none" stroke="black" cx="36.69" cy="-3951.52" rx="36.29" ry="18"/>
<text text-anchor="start" x="16.69" y="-3947.82" font-family="Times New Roman,serif" font-size="14.00">oswald</text>
</g>
<!-- Entity34 -->
<g id="node46" class="node entity">
<title>Entity34</title>
<ellipse fill="none" stroke="black" cx="465.86" cy="-3840.09" rx="59.29" ry="18"/>
<text text-anchor="start" x="428.36" y="-3836.39" font-family="Times New Roman,serif" font-size="14.00">guy bannister</text>
</g>
<!-- Entity27&#45;&gt;Entity34 -->
<g id="edge50" class="edge verb">
<title>Entity27&#45;&gt;Entity34</title>
<path fill="none" stroke="black" d="M68.95,-3943.15C141.85,-3924.22 320.02,-3877.96 410.77,-3854.39"/>
<polygon fill="black" stroke="black" points="411.8,-3857.74 420.6,-3851.84 410.04,-3850.97 411.8,-3857.74"/>
<text text-anchor="start" x="176.86" y="-3902.57" font-family="Times New Roman,serif" font-size="14.00">worked for</text>
</g>
<!-- Entity34&#45;&gt;Entity75 -->
<g id="edge51" class="edge verb">
<title>Entity34&#45;&gt;Entity75</title>
<path fill="none" stroke="black" d="M509.42,-3827.85C601.84,-3801.86 816.61,-3741.49 908.71,-3715.6"/>
<polygon fill="black" stroke="black" points="909.85,-3718.91 918.53,-3712.83 907.96,-3712.17 909.85,-3718.91"/>
<text text-anchor="start" x="648.06" y="-3775.52" font-family="Times New Roman,serif" font-size="14.00">member of</text>
</g>
<!-- Entity64 -->
<g id="node47" class="node entity">
<title>Entity64</title>
<ellipse fill="none" stroke="black" cx="5598.39" cy="-1253.77" rx="73.39" ry="18"/>
<text text-anchor="start" x="5549.89" y="-1250.07" font-family="Times New Roman,serif" font-size="14.00">madam blavatsky</text>
</g>
<!-- Entity64&#45;&gt;Entity86 -->
<g id="edge52" class="edge verb">
<title>Entity64&#45;&gt;Entity86</title>
<path fill="none" stroke="black" d="M5624.06,-1270.64C5652.02,-1289.01 5696.9,-1318.51 5727.98,-1338.94"/>
<polygon fill="black" stroke="black" points="5726.07,-1341.88 5736.35,-1344.45 5729.92,-1336.03 5726.07,-1341.88"/>
<text text-anchor="start" x="5635.02" y="-1308.59" font-family="Times New Roman,serif" font-size="14.00">created</text>
</g>
<!-- Entity60 -->
<g id="node56" class="node entity">
<title>Entity60</title>
<ellipse fill="none" stroke="black" cx="5704.34" cy="-680.09" rx="58.49" ry="18"/>
<text text-anchor="start" x="5667.34" y="-676.39" font-family="Times New Roman,serif" font-size="14.00">rudolf steiner</text>
</g>
<!-- Entity60&#45;&gt;Entity86 -->
<g id="edge63" class="edge verb">
<title>Entity60&#45;&gt;Entity86</title>
<path fill="none" stroke="black" d="M5705.9,-698.32C5713.91,-791.95 5750.42,-1218.77 5760.22,-1333.35"/>
<polygon fill="black" stroke="black" points="5756.75,-1333.78 5761.09,-1343.45 5763.72,-1333.18 5756.75,-1333.78"/>
<text text-anchor="start" x="5667.06" y="-1019.64" font-family="Times New Roman,serif" font-size="14.00">memberr of</text>
</g>
<!-- Entity93 -->
<g id="node57" class="node entity">
<title>Entity93</title>
<ellipse fill="none" stroke="black" cx="5702.92" cy="-17.6" rx="102.08" ry="18"/>
<text text-anchor="start" x="5632.42" y="-13.9" font-family="Times New Roman,serif" font-size="14.00">anthroposophical society</text>
</g>
<!-- Entity60&#45;&gt;Entity93 -->
<g id="edge60" class="edge verb">
<title>Entity60&#45;&gt;Entity93</title>
<path fill="none" stroke="black" d="M5704.3,-662.03C5704.1,-570.51 5703.22,-158 5702.98,-45.83"/>
<polygon fill="black" stroke="black" points="5706.48,-45.64 5702.96,-35.65 5699.48,-45.65 5706.48,-45.64"/>
<text text-anchor="start" x="5662.64" y="-357.73" font-family="Times New Roman,serif" font-size="14.00">created</text>
</g>
<!-- Entity109 -->
<g id="node60" class="node entity">
<title>Entity109</title>
<ellipse fill="none" stroke="black" cx="3848.94" cy="-2075.66" rx="27" ry="18"/>
<text text-anchor="start" x="3845.44" y="-2071.96" font-family="Times New Roman,serif" font-size="14.00">s</text>
</g>
<!-- Entity112 -->
<g id="node61" class="node entity">
<title>Entity112</title>
<ellipse fill="none" stroke="black" cx="3936.66" cy="-2187.64" rx="27" ry="18"/>
<text text-anchor="start" x="3932.66" y="-2183.94" font-family="Times New Roman,serif" font-size="14.00">o</text>
</g>
<!-- Entity109&#45;&gt;Entity112 -->
<g id="edge67" class="edge verb">
<title>Entity109&#45;&gt;Entity112</title>
<path fill="none" stroke="black" d="M3861.51,-2091.7C3876.23,-2110.5 3900.76,-2141.82 3917.78,-2163.53"/>
<polygon fill="black" stroke="black" points="3915.19,-2165.91 3924.11,-2171.62 3920.7,-2161.59 3915.19,-2165.91"/>
<text text-anchor="start" x="3882.64" y="-2131.42" font-family="Times New Roman,serif" font-size="14.00">v</text>
</g>
</g>
</svg>
