<?xml version="1.0" encoding="UTF-8" standalone="no"?>
<?xml-stylesheet href="./styles.css" type="text/css"?>
<!DOCTYPE svg PUBLIC "-//W3C//DTD SVG 1.1//EN"
 "http://www.w3.org/Graphics/SVG/1.1/DTD/svg11.dtd">
<!-- Generated by graphviz version 2.47.3 (20210619.1520)
 -->
<!-- Title: G Pages: 1 -->
<svg width="7556pt" height="2796pt"
 viewBox="0.00 0.00 7556.00 2796.00" xmlns="http://www.w3.org/2000/svg" xmlns:xlink="http://www.w3.org/1999/xlink">
<g id="graph0" class="graph" transform="scale(1 1) rotate(0) translate(4 2792)">
<title>G</title>
<polygon fill="white" stroke="transparent" points="-4,4 -4,-2792 7552,-2792 7552,4 -4,4"/>
<!-- Entity3 -->
<g id="node1" class="node entity">
<title>Entity3</title>
<ellipse fill="none" stroke="black" cx="5120.13" cy="-1530.12" rx="27" ry="18"/>
<text text-anchor="start" x="5112.63" y="-1526.42" font-family="Times New Roman,serif" font-size="14.00">jfk</text>
</g>
<!-- Entity22 -->
<g id="node2" class="node entity">
<title>Entity22</title>
<ellipse fill="none" stroke="black" cx="4978.63" cy="-1638.62" rx="27" ry="18"/>
<text text-anchor="start" x="4970.63" y="-1634.92" font-family="Times New Roman,serif" font-size="14.00">cia</text>
</g>
<!-- Entity3&#45;&gt;Entity22 -->
<g id="edge1" class="edge verb">
<title>Entity3&#45;&gt;Entity22</title>
<path fill="none" stroke="black" d="M5102.21,-1543.87C5077.54,-1562.78 5032.97,-1596.96 5004.63,-1618.68"/>
<polygon fill="black" stroke="black" points="5002.21,-1616.13 4996.4,-1624.99 5006.47,-1621.69 5002.21,-1616.13"/>
<text text-anchor="start" x="4949.42" y="-1585.07" font-family="Times New Roman,serif" font-size="14.00">heads (1961&#45;1963)</text>
</g>
<!-- Entity66 -->
<g id="node20" class="node entity">
<title>Entity66</title>
<ellipse fill="none" stroke="black" cx="5528.46" cy="-1431" rx="31.4" ry="18"/>
<text text-anchor="start" x="5512.46" y="-1427.3" font-family="Times New Roman,serif" font-size="14.00">potus</text>
</g>
<!-- Entity3&#45;&gt;Entity66 -->
<g id="edge23" class="edge verb">
<title>Entity3&#45;&gt;Entity66</title>
<path fill="none" stroke="black" d="M5145.67,-1523.92C5215.06,-1507.08 5407.36,-1460.4 5489.96,-1440.35"/>
<polygon fill="black" stroke="black" points="5490.81,-1443.74 5499.7,-1437.98 5489.16,-1436.94 5490.81,-1443.74"/>
<text text-anchor="start" x="5230.81" y="-1485.94" font-family="Times New Roman,serif" font-size="14.00">isa (1961&#45;1963)</text>
</g>
<!-- Entity67 -->
<g id="node25" class="node entity">
<title>Entity67</title>
<ellipse fill="none" stroke="black" cx="4259.73" cy="-1494.74" rx="77.19" ry="18"/>
<text text-anchor="start" x="4208.23" y="-1491.04" font-family="Times New Roman,serif" font-size="14.00">psi&#45;consciousness</text>
</g>
<!-- Entity22&#45;&gt;Entity67 -->
<g id="edge43" class="edge verb">
<title>Entity22&#45;&gt;Entity67</title>
<path fill="none" stroke="black" d="M4952.62,-1633.42C4851.5,-1613.18 4482.58,-1539.34 4328.29,-1508.46"/>
<polygon fill="black" stroke="black" points="4328.94,-1505.02 4318.44,-1506.49 4327.56,-1511.88 4328.94,-1505.02"/>
<text text-anchor="start" x="4576.45" y="-1574.74" font-family="Times New Roman,serif" font-size="14.00">investigates</text>
</g>
<!-- Entity90 -->
<g id="node52" class="node entity">
<title>Entity90</title>
<ellipse fill="none" stroke="black" cx="4890.08" cy="-1530.7" rx="27" ry="18"/>
<text text-anchor="start" x="4880.58" y="-1527" font-family="Times New Roman,serif" font-size="14.00">ufo</text>
</g>
<!-- Entity22&#45;&gt;Entity90 -->
<g id="edge62" class="edge verb">
<title>Entity22&#45;&gt;Entity90</title>
<path fill="none" stroke="black" d="M4965.56,-1622.7C4950.78,-1604.69 4926.56,-1575.16 4909.55,-1554.43"/>
<polygon fill="black" stroke="black" points="4912.24,-1552.2 4903.2,-1546.69 4906.83,-1556.64 4912.24,-1552.2"/>
<text text-anchor="start" x="4873.55" y="-1592.37" font-family="Times New Roman,serif" font-size="14.00">investigates</text>
</g>
<!-- Entity14 -->
<g id="node3" class="node entity">
<title>Entity14</title>
<ellipse fill="none" stroke="black" cx="2668.4" cy="-795.29" rx="74.99" ry="18"/>
<text text-anchor="start" x="2618.9" y="-791.59" font-family="Times New Roman,serif" font-size="14.00">gene roddenberry</text>
</g>
<!-- Entity8 -->
<g id="node4" class="node entity">
<title>Entity8</title>
<ellipse fill="none" stroke="black" cx="3086.78" cy="-1098.6" rx="38.19" ry="18"/>
<text text-anchor="start" x="3065.28" y="-1094.9" font-family="Times New Roman,serif" font-size="14.00">the nine</text>
</g>
<!-- Entity14&#45;&gt;Entity8 -->
<g id="edge2" class="edge verb">
<title>Entity14&#45;&gt;Entity8</title>
<path fill="none" stroke="black" d="M2692.09,-812.46C2763.83,-864.47 2978.58,-1020.16 3057.38,-1077.28"/>
<polygon fill="black" stroke="black" points="3055.71,-1080.4 3065.86,-1083.44 3059.82,-1074.73 3055.71,-1080.4"/>
<text text-anchor="start" x="2770.73" y="-948.67" font-family="Times New Roman,serif" font-size="14.00">claiemd to channel</text>
</g>
<!-- Entity70 -->
<g id="node23" class="node entity">
<title>Entity70</title>
<ellipse fill="none" stroke="black" cx="3082.58" cy="-990.57" rx="94.48" ry="18"/>
<text text-anchor="start" x="3018.08" y="-986.87" font-family="Times New Roman,serif" font-size="14.00">egyptian gods in a ship</text>
</g>
<!-- Entity8&#45;&gt;Entity70 -->
<g id="edge16" class="edge verb">
<title>Entity8&#45;&gt;Entity70</title>
<path fill="none" stroke="black" d="M3086.07,-1080.27C3085.41,-1063.41 3084.43,-1038.14 3083.68,-1018.72"/>
<polygon fill="black" stroke="black" points="3087.17,-1018.48 3083.28,-1008.62 3080.18,-1018.75 3087.17,-1018.48"/>
<text text-anchor="start" x="2980.87" y="-1053.3" font-family="Times New Roman,serif" font-size="14.00">claimed to channel</text>
</g>
<!-- Entity16 -->
<g id="node5" class="node entity">
<title>Entity16</title>
<ellipse fill="none" stroke="black" cx="5115.01" cy="-1207.83" rx="68.49" ry="18"/>
<text text-anchor="start" x="5070.51" y="-1204.13" font-family="Times New Roman,serif" font-size="14.00">george hw bush</text>
</g>
<!-- Entity20 -->
<g id="node6" class="node entity">
<title>Entity20</title>
<ellipse fill="none" stroke="black" cx="4936.79" cy="-1315.83" rx="63.89" ry="18"/>
<text text-anchor="start" x="4895.79" y="-1312.13" font-family="Times New Roman,serif" font-size="14.00">george w bush</text>
</g>
<!-- Entity16&#45;&gt;Entity20 -->
<g id="edge3" class="edge verb">
<title>Entity16&#45;&gt;Entity20</title>
<path fill="none" stroke="black" d="M5087.56,-1224.47C5056.72,-1243.15 5006.57,-1273.54 4972.66,-1294.09"/>
<polygon fill="black" stroke="black" points="4970.72,-1291.18 4963.98,-1299.35 4974.35,-1297.16 4970.72,-1291.18"/>
<text text-anchor="start" x="4998.11" y="-1263.08" font-family="Times New Roman,serif" font-size="14.00">father</text>
</g>
<!-- Entity16&#45;&gt;Entity66 -->
<g id="edge20" class="edge verb">
<title>Entity16&#45;&gt;Entity66</title>
<path fill="none" stroke="black" d="M5145.08,-1224.06C5220.79,-1264.93 5418.78,-1371.8 5496.49,-1413.75"/>
<polygon fill="black" stroke="black" points="5494.9,-1416.86 5505.36,-1418.53 5498.22,-1410.7 5494.9,-1416.86"/>
<text text-anchor="start" x="5304.79" y="-1322.7" font-family="Times New Roman,serif" font-size="14.00">isa</text>
</g>
<!-- Entity20&#45;&gt;Entity66 -->
<g id="edge42" class="edge verb">
<title>Entity20&#45;&gt;Entity66</title>
<path fill="none" stroke="black" d="M4989.3,-1326.05C5106.05,-1348.78 5385.04,-1403.09 5488.75,-1423.27"/>
<polygon fill="black" stroke="black" points="5488.31,-1426.75 5498.8,-1425.23 5489.65,-1419.88 5488.31,-1426.75"/>
<text text-anchor="start" x="5223.02" y="-1378.46" font-family="Times New Roman,serif" font-size="14.00">isa</text>
</g>
<!-- Entity2 -->
<g id="node7" class="node entity">
<title>Entity2</title>
<ellipse fill="none" stroke="black" cx="3100.92" cy="-1508.19" rx="41.69" ry="18"/>
<text text-anchor="start" x="3076.92" y="-1504.49" font-family="Times New Roman,serif" font-size="14.00">uri geller</text>
</g>
<!-- Entity2&#45;&gt;Entity8 -->
<g id="edge4" class="edge verb">
<title>Entity2&#45;&gt;Entity8</title>
<path fill="none" stroke="black" d="M3100.29,-1490.07C3098.06,-1425.45 3090.49,-1206.05 3087.76,-1127.15"/>
<polygon fill="black" stroke="black" points="3091.26,-1126.86 3087.41,-1116.98 3084.26,-1127.1 3091.26,-1126.86"/>
<text text-anchor="start" x="2990.03" y="-1312.41" font-family="Times New Roman,serif" font-size="14.00">claiemd to channel</text>
</g>
<!-- Entity26 -->
<g id="node8" class="node entity">
<title>Entity26</title>
<ellipse fill="none" stroke="black" cx="942.35" cy="-2193.67" rx="49.29" ry="18"/>
<text text-anchor="start" x="912.35" y="-2189.97" font-family="Times New Roman,serif" font-size="14.00">adolf hitler</text>
</g>
<!-- Entity28 -->
<g id="node9" class="node entity">
<title>Entity28</title>
<ellipse fill="none" stroke="black" cx="1345.26" cy="-2232.62" rx="32.49" ry="18"/>
<text text-anchor="start" x="1328.26" y="-2228.92" font-family="Times New Roman,serif" font-size="14.00">nsdap</text>
</g>
<!-- Entity26&#45;&gt;Entity28 -->
<g id="edge5" class="edge verb">
<title>Entity26&#45;&gt;Entity28</title>
<path fill="none" stroke="black" d="M990.15,-2198.29C1069.59,-2205.97 1227.5,-2221.24 1303.06,-2228.54"/>
<polygon fill="black" stroke="black" points="1302.87,-2232.04 1313.16,-2229.52 1303.54,-2225.07 1302.87,-2232.04"/>
<text text-anchor="start" x="1105.61" y="-2217.21" font-family="Times New Roman,serif" font-size="14.00">created</text>
</g>
<!-- Entity75 -->
<g id="node31" class="node entity">
<title>Entity75</title>
<ellipse fill="none" stroke="black" cx="928.33" cy="-2433.21" rx="38.99" ry="18"/>
<text text-anchor="start" x="906.33" y="-2429.51" font-family="Times New Roman,serif" font-size="14.00">far right</text>
</g>
<!-- Entity28&#45;&gt;Entity75 -->
<g id="edge29" class="edge verb">
<title>Entity28&#45;&gt;Entity75</title>
<path fill="none" stroke="black" d="M1320.43,-2244.57C1249.78,-2278.56 1047.46,-2375.9 964.49,-2415.82"/>
<polygon fill="black" stroke="black" points="962.94,-2412.68 955.44,-2420.17 965.97,-2418.99 962.94,-2412.68"/>
<text text-anchor="start" x="1081.46" y="-2333.99" font-family="Times New Roman,serif" font-size="14.00">member of</text>
</g>
<!-- Entity15 -->
<g id="node10" class="node entity">
<title>Entity15</title>
<ellipse fill="none" stroke="black" cx="6127.65" cy="-1276.26" rx="59.59" ry="18"/>
<text text-anchor="start" x="6089.65" y="-1272.56" font-family="Times New Roman,serif" font-size="14.00">donald trump</text>
</g>
<!-- Entity48 -->
<g id="node11" class="node entity">
<title>Entity48</title>
<ellipse fill="none" stroke="black" cx="5616.62" cy="-1647.05" rx="50.09" ry="18"/>
<text text-anchor="start" x="5586.12" y="-1643.35" font-family="Times New Roman,serif" font-size="14.00">john trump</text>
</g>
<!-- Entity15&#45;&gt;Entity48 -->
<g id="edge6" class="edge verb">
<title>Entity15&#45;&gt;Entity48</title>
<path fill="none" stroke="black" d="M6104.7,-1292.91C6022.21,-1352.76 5740.69,-1557.02 5647.13,-1624.91"/>
<polygon fill="black" stroke="black" points="5644.97,-1622.15 5638.93,-1630.86 5649.08,-1627.82 5644.97,-1622.15"/>
<text text-anchor="start" x="5816.91" y="-1462.71" font-family="Times New Roman,serif" font-size="14.00">nephew of</text>
</g>
<!-- Entity15&#45;&gt;Entity66 -->
<g id="edge27" class="edge verb">
<title>Entity15&#45;&gt;Entity66</title>
<path fill="none" stroke="black" d="M6082.12,-1288.01C5968.34,-1317.4 5673.13,-1393.64 5567.09,-1421.03"/>
<polygon fill="black" stroke="black" points="5565.95,-1417.71 5557.14,-1423.6 5567.7,-1424.48 5565.95,-1417.71"/>
<text text-anchor="start" x="5808.61" y="-1358.32" font-family="Times New Roman,serif" font-size="14.00">isa</text>
</g>
<!-- Entity48&#45;&gt;Entity22 -->
<g id="edge10" class="edge verb">
<title>Entity48&#45;&gt;Entity22</title>
<path fill="none" stroke="black" d="M5566.56,-1646.39C5442.89,-1644.75 5125.11,-1640.56 5016.04,-1639.12"/>
<polygon fill="black" stroke="black" points="5015.89,-1635.62 5005.85,-1638.98 5015.8,-1642.62 5015.89,-1635.62"/>
<text text-anchor="start" x="5230.3" y="-1646.55" font-family="Times New Roman,serif" font-size="14.00">member of</text>
</g>
<!-- Entity82 -->
<g id="node41" class="node entity">
<title>Entity82</title>
<ellipse fill="none" stroke="black" cx="6135.21" cy="-1885.14" rx="50.89" ry="18"/>
<text text-anchor="start" x="6104.21" y="-1881.44" font-family="Times New Roman,serif" font-size="14.00">nikola tesla</text>
</g>
<!-- Entity48&#45;&gt;Entity82 -->
<g id="edge40" class="edge verb">
<title>Entity48&#45;&gt;Entity82</title>
<path fill="none" stroke="black" d="M5647.51,-1661.23C5736.76,-1702.2 5994.98,-1820.76 6094.99,-1866.67"/>
<polygon fill="black" stroke="black" points="6093.61,-1869.89 6104.16,-1870.88 6096.53,-1863.53 6093.61,-1869.89"/>
<text text-anchor="start" x="5830.25" y="-1767.75" font-family="Times New Roman,serif" font-size="14.00">studied</text>
</g>
<!-- Entity5 -->
<g id="node12" class="node entity">
<title>Entity5</title>
<ellipse fill="none" stroke="black" cx="3395.24" cy="-1512.63" rx="56.59" ry="18"/>
<text text-anchor="start" x="3359.74" y="-1508.93" font-family="Times New Roman,serif" font-size="14.00">arthur young</text>
</g>
<!-- Entity5&#45;&gt;Entity8 -->
<g id="edge7" class="edge verb">
<title>Entity5&#45;&gt;Entity8</title>
<path fill="none" stroke="black" d="M3382.18,-1495.1C3333.6,-1429.9 3163.15,-1201.11 3105.78,-1124.11"/>
<polygon fill="black" stroke="black" points="3108.45,-1121.83 3099.67,-1115.9 3102.84,-1126.01 3108.45,-1121.83"/>
<text text-anchor="start" x="3181.98" y="-1313.41" font-family="Times New Roman,serif" font-size="14.00">member&#45;of</text>
</g>
<!-- Entity5&#45;&gt;Entity67 -->
<g id="edge18" class="edge verb">
<title>Entity5&#45;&gt;Entity67</title>
<path fill="none" stroke="black" d="M3451.96,-1511.46C3599.45,-1508.4 3995.75,-1500.2 4172.53,-1496.54"/>
<polygon fill="black" stroke="black" points="4172.65,-1500.04 4182.58,-1496.33 4172.51,-1493.04 4172.65,-1500.04"/>
<text text-anchor="start" x="3771.25" y="-1507.8" font-family="Times New Roman,serif" font-size="14.00">studied</text>
</g>
<!-- Entity72 -->
<g id="node28" class="node entity">
<title>Entity72</title>
<ellipse fill="none" stroke="black" cx="2698.9" cy="-1778.41" rx="53.89" ry="18"/>
<text text-anchor="start" x="2665.4" y="-1774.71" font-family="Times New Roman,serif" font-size="14.00">bell aviation</text>
</g>
<!-- Entity5&#45;&gt;Entity72 -->
<g id="edge24" class="edge verb">
<title>Entity5&#45;&gt;Entity72</title>
<path fill="none" stroke="black" d="M3358.78,-1526.55C3241.37,-1571.36 2873.26,-1711.86 2744.18,-1761.13"/>
<polygon fill="black" stroke="black" points="2742.68,-1757.96 2734.58,-1764.79 2745.17,-1764.5 2742.68,-1757.96"/>
<text text-anchor="start" x="3010.48" y="-1647.64" font-family="Times New Roman,serif" font-size="14.00">created</text>
</g>
<!-- Entity1 -->
<g id="node13" class="node entity">
<title>Entity1</title>
<ellipse fill="none" stroke="black" cx="2893.83" cy="-1922.35" rx="64.19" ry="18"/>
<text text-anchor="start" x="2852.33" y="-1918.65" font-family="Times New Roman,serif" font-size="14.00">andre puharich</text>
</g>
<!-- Entity1&#45;&gt;Entity2 -->
<g id="edge8" class="edge verb">
<title>Entity1&#45;&gt;Entity2</title>
<path fill="none" stroke="black" d="M2902.86,-1904.29C2935.63,-1838.75 3048.42,-1613.19 3087.47,-1535.07"/>
<polygon fill="black" stroke="black" points="3090.73,-1536.4 3092.07,-1525.89 3084.47,-1533.26 3090.73,-1536.4"/>
<text text-anchor="start" x="2935.17" y="-1723.48" font-family="Times New Roman,serif" font-size="14.00">sponsored</text>
</g>
<!-- Entity7 -->
<g id="node14" class="node entity">
<title>Entity7</title>
<ellipse fill="none" stroke="black" cx="3636.68" cy="-1620.73" rx="68.49" ry="18"/>
<text text-anchor="start" x="3592.18" y="-1617.03" font-family="Times New Roman,serif" font-size="14.00">jeffrey mishlove</text>
</g>
<!-- Entity7&#45;&gt;Entity2 -->
<g id="edge9" class="edge verb">
<title>Entity7&#45;&gt;Entity2</title>
<path fill="none" stroke="black" d="M3582.86,-1609.42C3478.03,-1587.4 3248.08,-1539.1 3148.48,-1518.18"/>
<polygon fill="black" stroke="black" points="3148.91,-1514.7 3138.4,-1516.07 3147.47,-1521.55 3148.91,-1514.7"/>
<text text-anchor="start" x="3310.67" y="-1567.6" font-family="Times New Roman,serif" font-size="14.00">promoted</text>
</g>
<!-- Entity7&#45;&gt;Entity67 -->
<g id="edge19" class="edge verb">
<title>Entity7&#45;&gt;Entity67</title>
<path fill="none" stroke="black" d="M3697.82,-1612.64C3817.64,-1591.89 4081.94,-1538.44 4200.34,-1511.02"/>
<polygon fill="black" stroke="black" points="4201.37,-1514.38 4210.32,-1508.69 4199.78,-1507.56 4201.37,-1514.38"/>
<text text-anchor="start" x="3908.08" y="-1565.63" font-family="Times New Roman,serif" font-size="14.00">studied</text>
</g>
<!-- Entity7&#45;&gt;Entity67 -->
<g id="edge26" class="edge verb">
<title>Entity7&#45;&gt;Entity67</title>
<path fill="none" stroke="black" d="M3683.02,-1607.5C3789.36,-1582.26 4051.79,-1528.91 4182.79,-1505.6"/>
<polygon fill="black" stroke="black" points="4183.51,-1509.02 4192.75,-1503.84 4182.29,-1502.13 4183.51,-1509.02"/>
<text text-anchor="start" x="3868.9" y="-1545.35" font-family="Times New Roman,serif" font-size="14.00">investigates</text>
</g>
<!-- Entity30 -->
<g id="node15" class="node entity">
<title>Entity30</title>
<ellipse fill="none" stroke="black" cx="1966.08" cy="-2025.14" rx="74.99" ry="18"/>
<text text-anchor="start" x="1916.58" y="-2021.44" font-family="Times New Roman,serif" font-size="14.00">walter dornberger</text>
</g>
<!-- Entity30&#45;&gt;Entity28 -->
<g id="edge11" class="edge verb">
<title>Entity30&#45;&gt;Entity28</title>
<path fill="none" stroke="black" d="M1921.93,-2039.89C1805.48,-2078.81 1491.51,-2183.74 1382.86,-2220.05"/>
<polygon fill="black" stroke="black" points="1381.68,-2216.76 1373.3,-2223.25 1383.89,-2223.4 1381.68,-2216.76"/>
<text text-anchor="start" x="1591.4" y="-2133.77" font-family="Times New Roman,serif" font-size="14.00">member of</text>
</g>
<!-- Entity30&#45;&gt;Entity72 -->
<g id="edge35" class="edge verb">
<title>Entity30&#45;&gt;Entity72</title>
<path fill="none" stroke="black" d="M2016.74,-2011.89C2153.78,-1970.24 2529.99,-1843.51 2656.65,-1796.23"/>
<polygon fill="black" stroke="black" points="2657.91,-1799.49 2666.04,-1792.7 2655.45,-1792.94 2657.91,-1799.49"/>
<text text-anchor="start" x="2257.7" y="-1907.86" font-family="Times New Roman,serif" font-size="14.00">vice&#45;president</text>
</g>
<!-- Entity30&#45;&gt;Entity72 -->
<g id="edge49" class="edge verb">
<title>Entity30&#45;&gt;Entity72</title>
<path fill="none" stroke="black" d="M2002.91,-2009.35C2123.24,-1964.03 2505.05,-1835.32 2645.98,-1792.35"/>
<polygon fill="black" stroke="black" points="2647.15,-1795.66 2655.7,-1789.41 2645.12,-1788.96 2647.15,-1795.66"/>
<text text-anchor="start" x="2268.45" y="-1889.65" font-family="Times New Roman,serif" font-size="14.00">worked at</text>
</g>
<!-- Entity76 -->
<g id="node35" class="node entity">
<title>Entity76</title>
<ellipse fill="none" stroke="black" cx="1325.89" cy="-1905.69" rx="90.98" ry="18"/>
<text text-anchor="start" x="1263.89" y="-1901.99" font-family="Times New Roman,serif" font-size="14.00">nsdap rocket program</text>
</g>
<!-- Entity30&#45;&gt;Entity76 -->
<g id="edge36" class="edge verb">
<title>Entity30&#45;&gt;Entity76</title>
<path fill="none" stroke="black" d="M1906.71,-2014.06C1790.22,-1992.33 1531.8,-1944.11 1402.57,-1920"/>
<polygon fill="black" stroke="black" points="1402.84,-1916.49 1392.36,-1918.09 1401.55,-1923.37 1402.84,-1916.49"/>
<text text-anchor="start" x="1613.64" y="-1970.83" font-family="Times New Roman,serif" font-size="14.00">created</text>
</g>
<!-- Entity104 -->
<g id="node55" class="node entity">
<title>Entity104</title>
<ellipse fill="none" stroke="black" cx="1894.36" cy="-1917.17" rx="65.79" ry="18"/>
<text text-anchor="start" x="1851.86" y="-1913.47" font-family="Times New Roman,serif" font-size="14.00">x series aircraft</text>
</g>
<!-- Entity30&#45;&gt;Entity104 -->
<g id="edge59" class="edge verb">
<title>Entity30&#45;&gt;Entity104</title>
<path fill="none" stroke="black" d="M1954.24,-2007.31C1942.71,-1989.96 1925.07,-1963.39 1911.91,-1943.59"/>
<polygon fill="black" stroke="black" points="1914.67,-1941.42 1906.22,-1935.03 1908.84,-1945.29 1914.67,-1941.42"/>
<text text-anchor="start" x="1892.07" y="-1979.25" font-family="Times New Roman,serif" font-size="14.00">created</text>
</g>
<!-- Entity32 -->
<g id="node16" class="node entity">
<title>Entity32</title>
<ellipse fill="none" stroke="black" cx="1574.07" cy="-2345.24" rx="46.29" ry="18"/>
<text text-anchor="start" x="1546.57" y="-2341.54" font-family="Times New Roman,serif" font-size="14.00">van braun</text>
</g>
<!-- Entity32&#45;&gt;Entity30 -->
<g id="edge12" class="edge verb">
<title>Entity32&#45;&gt;Entity30</title>
<path fill="none" stroke="black" d="M1594.05,-2328.93C1658.48,-2276.32 1860.99,-2110.95 1936.93,-2048.94"/>
<polygon fill="black" stroke="black" points="1939.18,-2051.62 1944.72,-2042.58 1934.76,-2046.2 1939.18,-2051.62"/>
<text text-anchor="start" x="1702.49" y="-2192.73" font-family="Times New Roman,serif" font-size="14.00">worked for</text>
</g>
<!-- Entity32&#45;&gt;Entity76 -->
<g id="edge48" class="edge verb">
<title>Entity32&#45;&gt;Entity76</title>
<path fill="none" stroke="black" d="M1564.04,-2327.47C1525.61,-2259.41 1387.65,-2015.07 1341.24,-1932.88"/>
<polygon fill="black" stroke="black" points="1344.01,-1930.67 1336.05,-1923.69 1337.92,-1934.12 1344.01,-1930.67"/>
<text text-anchor="start" x="1396.64" y="-2133.98" font-family="Times New Roman,serif" font-size="14.00">worked at</text>
</g>
<!-- Entity29 -->
<g id="node17" class="node entity">
<title>Entity29</title>
<ellipse fill="none" stroke="black" cx="5352.86" cy="-1647.08" rx="37.89" ry="18"/>
<text text-anchor="start" x="5331.86" y="-1643.38" font-family="Times New Roman,serif" font-size="14.00">hunt oil</text>
</g>
<!-- Entity36 -->
<g id="node18" class="node entity">
<title>Entity36</title>
<ellipse fill="none" stroke="black" cx="5435.21" cy="-1539.02" rx="77.99" ry="18"/>
<text text-anchor="start" x="5383.21" y="-1535.32" font-family="Times New Roman,serif" font-size="14.00">dwight eisenhower</text>
</g>
<!-- Entity29&#45;&gt;Entity36 -->
<g id="edge13" class="edge verb">
<title>Entity29&#45;&gt;Entity36</title>
<path fill="none" stroke="black" d="M5366.09,-1629.72C5379.37,-1612.28 5400.01,-1585.2 5415.28,-1565.16"/>
<polygon fill="black" stroke="black" points="5418.18,-1567.13 5421.46,-1557.06 5412.62,-1562.89 5418.18,-1567.13"/>
<text text-anchor="start" x="5350.69" y="-1601.24" font-family="Times New Roman,serif" font-size="14.00">funded</text>
</g>
<!-- Entity36&#45;&gt;Entity66 -->
<g id="edge34" class="edge verb">
<title>Entity36&#45;&gt;Entity66</title>
<path fill="none" stroke="black" d="M5450.61,-1521.18C5466.16,-1503.17 5490.28,-1475.23 5507.55,-1455.22"/>
<polygon fill="black" stroke="black" points="5510.38,-1457.31 5514.26,-1447.45 5505.08,-1452.73 5510.38,-1457.31"/>
<text text-anchor="start" x="5460.08" y="-1492" font-family="Times New Roman,serif" font-size="14.00">is a</text>
</g>
<!-- Entity11 -->
<g id="node19" class="node entity">
<title>Entity11</title>
<ellipse fill="none" stroke="black" cx="6012.42" cy="-1595.18" rx="56.59" ry="18"/>
<text text-anchor="start" x="5976.92" y="-1591.48" font-family="Times New Roman,serif" font-size="14.00">harry truman</text>
</g>
<!-- Entity11&#45;&gt;Entity66 -->
<g id="edge14" class="edge verb">
<title>Entity11&#45;&gt;Entity66</title>
<path fill="none" stroke="black" d="M5973.64,-1582.02C5882.28,-1551.03 5654.55,-1473.78 5565.23,-1443.48"/>
<polygon fill="black" stroke="black" points="5566.13,-1440.09 5555.54,-1440.19 5563.88,-1446.72 5566.13,-1440.09"/>
<text text-anchor="start" x="5753.43" y="-1516.55" font-family="Times New Roman,serif" font-size="14.00">isa</text>
</g>
<!-- Entity69 -->
<g id="node24" class="node entity">
<title>Entity69</title>
<ellipse fill="none" stroke="black" cx="6493.9" cy="-1827.55" rx="55.79" ry="18"/>
<text text-anchor="start" x="6458.9" y="-1823.85" font-family="Times New Roman,serif" font-size="14.00">freemasonry</text>
</g>
<!-- Entity11&#45;&gt;Entity69 -->
<g id="edge17" class="edge verb">
<title>Entity11&#45;&gt;Entity69</title>
<path fill="none" stroke="black" d="M6043.64,-1610.25C6127.85,-1650.89 6359.64,-1762.75 6453.57,-1808.08"/>
<polygon fill="black" stroke="black" points="6452.22,-1811.32 6462.75,-1812.51 6455.26,-1805.01 6452.22,-1811.32"/>
<text text-anchor="start" x="6187.61" y="-1712.97" font-family="Times New Roman,serif" font-size="14.00">member of</text>
</g>
<!-- Entity63 -->
<g id="node21" class="node entity">
<title>Entity63</title>
<ellipse fill="none" stroke="black" cx="6030.52" cy="-2383.22" rx="53.89" ry="18"/>
<text text-anchor="start" x="5997.02" y="-2379.52" font-family="Times New Roman,serif" font-size="14.00">edgar casey</text>
</g>
<!-- Entity59 -->
<g id="node22" class="node entity">
<title>Entity59</title>
<ellipse fill="none" stroke="black" cx="5768.67" cy="-1861.77" rx="71.49" ry="18"/>
<text text-anchor="start" x="5721.67" y="-1858.07" font-family="Times New Roman,serif" font-size="14.00">woodrow wilson</text>
</g>
<!-- Entity63&#45;&gt;Entity59 -->
<g id="edge15" class="edge verb">
<title>Entity63&#45;&gt;Entity59</title>
<path fill="none" stroke="black" d="M6021.51,-2365.27C5982.6,-2287.78 5828.88,-1981.67 5782.2,-1888.69"/>
<polygon fill="black" stroke="black" points="5785.27,-1887.01 5777.65,-1879.64 5779.01,-1890.15 5785.27,-1887.01"/>
<text text-anchor="start" x="5859.85" y="-2130.78" font-family="Times New Roman,serif" font-size="14.00">advises</text>
</g>
<!-- Entity59&#45;&gt;Entity66 -->
<g id="edge30" class="edge verb">
<title>Entity59&#45;&gt;Entity66</title>
<path fill="none" stroke="black" d="M5758.66,-1843.81C5721.03,-1776.33 5587.99,-1537.76 5543.26,-1457.54"/>
<polygon fill="black" stroke="black" points="5546.18,-1455.59 5538.25,-1448.57 5540.07,-1459 5546.18,-1455.59"/>
<text text-anchor="start" x="5634.96" y="-1654.47" font-family="Times New Roman,serif" font-size="14.00">isa</text>
</g>
<!-- Entity92 -->
<g id="node50" class="node entity">
<title>Entity92</title>
<ellipse fill="none" stroke="black" cx="5768.13" cy="-1969.86" rx="71.49" ry="18"/>
<text text-anchor="start" x="5721.13" y="-1966.16" font-family="Times New Roman,serif" font-size="14.00">leauge of nations</text>
</g>
<!-- Entity59&#45;&gt;Entity92 -->
<g id="edge54" class="edge verb">
<title>Entity59&#45;&gt;Entity92</title>
<path fill="none" stroke="black" d="M5768.58,-1880.1C5768.5,-1896.98 5768.37,-1922.25 5768.27,-1941.69"/>
<polygon fill="black" stroke="black" points="5764.77,-1941.78 5768.22,-1951.79 5771.77,-1941.81 5764.77,-1941.78"/>
<text text-anchor="start" x="5727.43" y="-1914.7" font-family="Times New Roman,serif" font-size="14.00">created</text>
</g>
<!-- Entity18 -->
<g id="node26" class="node entity">
<title>Entity18</title>
<ellipse fill="none" stroke="black" cx="5448.94" cy="-1812.58" rx="35.19" ry="18"/>
<text text-anchor="start" x="5429.94" y="-1808.88" font-family="Times New Roman,serif" font-size="14.00">obama</text>
</g>
<!-- Entity18&#45;&gt;Entity66 -->
<g id="edge21" class="edge verb">
<title>Entity18&#45;&gt;Entity66</title>
<path fill="none" stroke="black" d="M5452.72,-1794.43C5465.49,-1733.17 5507.06,-1533.67 5522.56,-1459.3"/>
<polygon fill="black" stroke="black" points="5526.04,-1459.77 5524.65,-1449.26 5519.19,-1458.34 5526.04,-1459.77"/>
<text text-anchor="start" x="5471.64" y="-1630.67" font-family="Times New Roman,serif" font-size="14.00">isa</text>
</g>
<!-- Entity12 -->
<g id="node27" class="node entity">
<title>Entity12</title>
<ellipse fill="none" stroke="black" cx="5851.71" cy="-1135.69" rx="58.49" ry="18"/>
<text text-anchor="start" x="5814.71" y="-1131.99" font-family="Times New Roman,serif" font-size="14.00">richard nixon</text>
</g>
<!-- Entity12&#45;&gt;Entity66 -->
<g id="edge22" class="edge verb">
<title>Entity12&#45;&gt;Entity66</title>
<path fill="none" stroke="black" d="M5832.93,-1152.84C5777.61,-1203.38 5615.23,-1351.73 5553.06,-1408.53"/>
<polygon fill="black" stroke="black" points="5550.33,-1406.28 5545.31,-1415.61 5555.06,-1411.45 5550.33,-1406.28"/>
<text text-anchor="start" x="5676.99" y="-1284.48" font-family="Times New Roman,serif" font-size="14.00">isa</text>
</g>
<!-- Entity24 -->
<g id="node29" class="node entity">
<title>Entity24</title>
<ellipse fill="none" stroke="black" cx="4137.8" cy="-1602.67" rx="63.89" ry="18"/>
<text text-anchor="start" x="4096.8" y="-1598.97" font-family="Times New Roman,serif" font-size="14.00">robert bigelow</text>
</g>
<!-- Entity24&#45;&gt;Entity7 -->
<g id="edge25" class="edge verb">
<title>Entity24&#45;&gt;Entity7</title>
<path fill="none" stroke="black" d="M4074.59,-1604.95C3983.1,-1608.25 3813.92,-1614.34 3714.76,-1617.91"/>
<polygon fill="black" stroke="black" points="3714.37,-1614.43 3704.5,-1618.28 3714.62,-1621.42 3714.37,-1614.43"/>
<text text-anchor="start" x="3862.68" y="-1615.23" font-family="Times New Roman,serif" font-size="14.00">funds</text>
</g>
<!-- Entity24&#45;&gt;Entity67 -->
<g id="edge45" class="edge verb">
<title>Entity24&#45;&gt;Entity67</title>
<path fill="none" stroke="black" d="M4157.39,-1585.33C4177.63,-1567.42 4209.37,-1539.32 4232.14,-1519.16"/>
<polygon fill="black" stroke="black" points="4234.62,-1521.64 4239.79,-1512.39 4229.98,-1516.4 4234.62,-1521.64"/>
<text text-anchor="start" x="4130.77" y="-1556.05" font-family="Times New Roman,serif" font-size="14.00">investigates</text>
</g>
<!-- Entity44 -->
<g id="node30" class="node entity">
<title>Entity44</title>
<ellipse fill="none" stroke="black" cx="6845.63" cy="-949.27" rx="58.49" ry="18"/>
<text text-anchor="start" x="6808.63" y="-945.57" font-family="Times New Roman,serif" font-size="14.00">steve bannon</text>
</g>
<!-- Entity44&#45;&gt;Entity15 -->
<g id="edge28" class="edge verb">
<title>Entity44&#45;&gt;Entity15</title>
<path fill="none" stroke="black" d="M6807.72,-963.03C6683.22,-1014.54 6287.94,-1194.53 6164.7,-1255.8"/>
<polygon fill="black" stroke="black" points="6163,-1252.74 6155.63,-1260.35 6166.14,-1259 6163,-1252.74"/>
<text text-anchor="start" x="6431.21" y="-1113.22" font-family="Times New Roman,serif" font-size="14.00">promoted</text>
</g>
<!-- Entity44&#45;&gt;Entity15 -->
<g id="edge64" class="edge verb">
<title>Entity44&#45;&gt;Entity15</title>
<path fill="none" stroke="black" d="M6817.79,-965.1C6709.16,-1020.01 6313.21,-1200.57 6175.35,-1258.41"/>
<polygon fill="black" stroke="black" points="6173.76,-1255.28 6165.88,-1262.36 6176.46,-1261.74 6173.76,-1255.28"/>
<text text-anchor="start" x="6496.57" y="-1115.56" font-family="Times New Roman,serif" font-size="14.00">advises</text>
</g>
<!-- Entity83 -->
<g id="node40" class="node entity">
<title>Entity83</title>
<ellipse fill="none" stroke="black" cx="6666.25" cy="-495.53" rx="61.99" ry="18"/>
<text text-anchor="start" x="6626.75" y="-491.83" font-family="Times New Roman,serif" font-size="14.00">breitbart news</text>
</g>
<!-- Entity44&#45;&gt;Entity83 -->
<g id="edge46" class="edge verb">
<title>Entity44&#45;&gt;Entity83</title>
<path fill="none" stroke="black" d="M6838.49,-931.2C6810.81,-861.19 6710.52,-607.52 6677.14,-523.08"/>
<polygon fill="black" stroke="black" points="6680.34,-521.66 6673.41,-513.65 6673.83,-524.24 6680.34,-521.66"/>
<text text-anchor="start" x="6716.81" y="-730.94" font-family="Times New Roman,serif" font-size="14.00">created</text>
</g>
<!-- Entity89 -->
<g id="node49" class="node entity">
<title>Entity89</title>
<ellipse fill="none" stroke="black" cx="7286.54" cy="-829.86" rx="35.19" ry="18"/>
<text text-anchor="start" x="7267.54" y="-826.16" font-family="Times New Roman,serif" font-size="14.00">gurgev</text>
</g>
<!-- Entity44&#45;&gt;Entity89 -->
<g id="edge53" class="edge verb">
<title>Entity44&#45;&gt;Entity89</title>
<path fill="none" stroke="black" d="M6889.93,-937.27C6975.56,-914.08 7162.68,-863.41 7245.59,-840.95"/>
<polygon fill="black" stroke="black" points="7246.67,-844.29 7255.4,-838.3 7244.84,-837.53 7246.67,-844.29"/>
<text text-anchor="start" x="7026.76" y="-892.91" font-family="Times New Roman,serif" font-size="14.00">studied</text>
</g>
<!-- Entity91 -->
<g id="node51" class="node entity">
<title>Entity91</title>
<ellipse fill="none" stroke="black" cx="7277.99" cy="-1133.29" rx="38.19" ry="18"/>
<text text-anchor="start" x="7256.49" y="-1129.59" font-family="Times New Roman,serif" font-size="14.00">us navy</text>
</g>
<!-- Entity44&#45;&gt;Entity91 -->
<g id="edge55" class="edge verb">
<title>Entity44&#45;&gt;Entity91</title>
<path fill="none" stroke="black" d="M6879.92,-963.86C6959.65,-997.8 7157.04,-1081.81 7240.15,-1117.19"/>
<polygon fill="black" stroke="black" points="7238.89,-1120.46 7249.47,-1121.15 7241.64,-1114.02 7238.89,-1120.46"/>
<text text-anchor="start" x="6999.03" y="-1044.32" font-family="Times New Roman,serif" font-size="14.00">member of</text>
</g>
<!-- Entity94 -->
<g id="node53" class="node entity">
<title>Entity94</title>
<ellipse fill="none" stroke="black" cx="7256.52" cy="-609.73" rx="53.09" ry="18"/>
<text text-anchor="start" x="7223.52" y="-606.03" font-family="Times New Roman,serif" font-size="14.00">biosphere 2</text>
</g>
<!-- Entity44&#45;&gt;Entity94 -->
<g id="edge57" class="edge verb">
<title>Entity44&#45;&gt;Entity94</title>
<path fill="none" stroke="black" d="M6866.29,-932.2C6934.12,-876.14 7150.13,-697.64 7228.11,-633.21"/>
<polygon fill="black" stroke="black" points="7230.59,-635.7 7236.07,-626.63 7226.13,-630.3 7230.59,-635.7"/>
<text text-anchor="start" x="7006.2" y="-786.5" font-family="Times New Roman,serif" font-size="14.00">created</text>
</g>
<!-- Entity107 -->
<g id="node58" class="node entity">
<title>Entity107</title>
<ellipse fill="none" stroke="black" cx="7470.4" cy="-941.22" rx="77.19" ry="18"/>
<text text-anchor="start" x="7418.9" y="-937.52" font-family="Times New Roman,serif" font-size="14.00">hollywood movies</text>
</g>
<!-- Entity44&#45;&gt;Entity107 -->
<g id="edge61" class="edge verb">
<title>Entity44&#45;&gt;Entity107</title>
<path fill="none" stroke="black" d="M6904.13,-948.51C7014.37,-947.09 7253.4,-944.01 7382.85,-942.35"/>
<polygon fill="black" stroke="black" points="7383.17,-945.84 7393.12,-942.21 7383.08,-938.84 7383.17,-945.84"/>
<text text-anchor="start" x="7088.49" y="-949.23" font-family="Times New Roman,serif" font-size="14.00">produced</text>
</g>
<!-- Entity111 -->
<g id="node59" class="node entity">
<title>Entity111</title>
<ellipse fill="none" stroke="black" cx="6927.57" cy="-841.24" rx="64.99" ry="18"/>
<text text-anchor="start" x="6885.57" y="-837.54" font-family="Times New Roman,serif" font-size="14.00">goldman sachs</text>
</g>
<!-- Entity44&#45;&gt;Entity111 -->
<g id="edge66" class="edge verb">
<title>Entity44&#45;&gt;Entity111</title>
<path fill="none" stroke="black" d="M6859.16,-931.43C6872.44,-913.92 6892.85,-887.01 6907.92,-867.14"/>
<polygon fill="black" stroke="black" points="6910.76,-869.19 6914.02,-859.11 6905.18,-864.96 6910.76,-869.19"/>
<text text-anchor="start" x="6820.54" y="-903.09" font-family="Times New Roman,serif" font-size="14.00">worked for</text>
</g>
<!-- Entity33 -->
<g id="node32" class="node entity">
<title>Entity33</title>
<ellipse fill="none" stroke="black" cx="2392.51" cy="-2150.66" rx="57.69" ry="18"/>
<text text-anchor="start" x="2356.01" y="-2146.96" font-family="Times New Roman,serif" font-size="14.00">michael pane</text>
</g>
<!-- Entity33&#45;&gt;Entity30 -->
<g id="edge47" class="edge verb">
<title>Entity33&#45;&gt;Entity30</title>
<path fill="none" stroke="black" d="M2350.45,-2138.28C2273.57,-2115.65 2110.27,-2067.58 2023.33,-2041.99"/>
<polygon fill="black" stroke="black" points="2024.21,-2038.6 2013.63,-2039.13 2022.23,-2045.32 2024.21,-2038.6"/>
<text text-anchor="start" x="2123.89" y="-2093.94" font-family="Times New Roman,serif" font-size="14.00">worked for</text>
</g>
<!-- Entity33&#45;&gt;Entity72 -->
<g id="edge31" class="edge verb">
<title>Entity33&#45;&gt;Entity72</title>
<path fill="none" stroke="black" d="M2406.87,-2133.21C2456.33,-2073.12 2619.68,-1874.66 2677.99,-1803.82"/>
<polygon fill="black" stroke="black" points="2680.92,-1805.78 2684.57,-1795.83 2675.51,-1801.33 2680.92,-1805.78"/>
<text text-anchor="start" x="2486.43" y="-1972.31" font-family="Times New Roman,serif" font-size="14.00">worked at</text>
</g>
<!-- Entity45 -->
<g id="node33" class="node entity">
<title>Entity45</title>
<ellipse fill="none" stroke="black" cx="5538.85" cy="-949.63" rx="67.69" ry="18"/>
<text text-anchor="start" x="5494.85" y="-945.93" font-family="Times New Roman,serif" font-size="14.00">abraham lincoln</text>
</g>
<!-- Entity45&#45;&gt;Entity66 -->
<g id="edge32" class="edge verb">
<title>Entity45&#45;&gt;Entity66</title>
<path fill="none" stroke="black" d="M5538.46,-967.91C5536.88,-1041.19 5530.99,-1313.97 5529.07,-1402.83"/>
<polygon fill="black" stroke="black" points="5525.57,-1402.89 5528.85,-1412.96 5532.56,-1403.04 5525.57,-1402.89"/>
<text text-anchor="start" x="5517.76" y="-1189.17" font-family="Times New Roman,serif" font-size="14.00">isa</text>
</g>
<!-- Entity38 -->
<g id="node34" class="node entity">
<title>Entity38</title>
<ellipse fill="none" stroke="black" cx="5013.59" cy="-652.76" rx="90.98" ry="18"/>
<text text-anchor="start" x="4951.59" y="-649.06" font-family="Times New Roman,serif" font-size="14.00">emma hardinge&#45;britten</text>
</g>
<!-- Entity38&#45;&gt;Entity45 -->
<g id="edge33" class="edge verb">
<title>Entity38&#45;&gt;Entity45</title>
<path fill="none" stroke="black" d="M5043.72,-669.79C5133.88,-720.74 5401.47,-871.98 5501,-928.24"/>
<polygon fill="black" stroke="black" points="5499.39,-931.35 5509.82,-933.22 5502.84,-925.25 5499.39,-931.35"/>
<text text-anchor="start" x="5173.36" y="-802.81" font-family="Times New Roman,serif" font-size="14.00">spokesperson for</text>
</g>
<!-- Entity79 -->
<g id="node38" class="node entity">
<title>Entity79</title>
<ellipse fill="none" stroke="black" cx="4998.65" cy="-544.72" rx="39.79" ry="18"/>
<text text-anchor="start" x="4976.15" y="-541.02" font-family="Times New Roman,serif" font-size="14.00">medium</text>
</g>
<!-- Entity38&#45;&gt;Entity79 -->
<g id="edge38" class="edge verb">
<title>Entity38&#45;&gt;Entity79</title>
<path fill="none" stroke="black" d="M5011.06,-634.43C5008.73,-617.57 5005.23,-592.3 5002.54,-572.88"/>
<polygon fill="black" stroke="black" points="5005.98,-572.2 5001.15,-562.78 4999.05,-573.16 5005.98,-572.2"/>
<text text-anchor="start" x="4990.8" y="-607.46" font-family="Times New Roman,serif" font-size="14.00">isa</text>
</g>
<!-- Entity86 -->
<g id="node48" class="node entity">
<title>Entity86</title>
<ellipse fill="none" stroke="black" cx="4347.05" cy="-571.12" rx="85.29" ry="18"/>
<text text-anchor="start" x="4289.55" y="-567.42" font-family="Times New Roman,serif" font-size="14.00">theosophical society</text>
</g>
<!-- Entity38&#45;&gt;Entity86 -->
<g id="edge65" class="edge verb">
<title>Entity38&#45;&gt;Entity86</title>
<path fill="none" stroke="black" d="M4936.16,-643.28C4809.94,-627.82 4560.93,-597.32 4430.77,-581.37"/>
<polygon fill="black" stroke="black" points="4431.2,-577.9 4420.84,-580.16 4430.34,-584.85 4431.2,-577.9"/>
<text text-anchor="start" x="4642.46" y="-616.12" font-family="Times New Roman,serif" font-size="14.00">created</text>
</g>
<!-- Entity99 -->
<g id="node54" class="node entity">
<title>Entity99</title>
<ellipse fill="none" stroke="black" cx="5071.7" cy="-18.15" rx="55.79" ry="18"/>
<text text-anchor="start" x="5036.7" y="-14.45" font-family="Times New Roman,serif" font-size="14.00">orphic circle</text>
</g>
<!-- Entity38&#45;&gt;Entity99 -->
<g id="edge58" class="edge verb">
<title>Entity38&#45;&gt;Entity99</title>
<path fill="none" stroke="black" d="M5015.27,-634.45C5023.45,-545.15 5059.15,-155.2 5069.11,-46.41"/>
<polygon fill="black" stroke="black" points="5072.62,-46.5 5070.05,-36.23 5065.65,-45.86 5072.62,-46.5"/>
<text text-anchor="start" x="4981.19" y="-344.23" font-family="Times New Roman,serif" font-size="14.00">member of</text>
</g>
<!-- Entity42 -->
<g id="node36" class="node entity">
<title>Entity42</title>
<ellipse fill="none" stroke="black" cx="3728.94" cy="-1977.66" rx="53.89" ry="18"/>
<text text-anchor="start" x="3695.44" y="-1973.96" font-family="Times New Roman,serif" font-size="14.00">black magic</text>
</g>
<!-- Entity81 -->
<g id="node37" class="node entity">
<title>Entity81</title>
<ellipse fill="none" stroke="black" cx="3816.66" cy="-2089.64" rx="28.7" ry="18"/>
<text text-anchor="start" x="3802.66" y="-2085.94" font-family="Times New Roman,serif" font-size="14.00">x left</text>
</g>
<!-- Entity42&#45;&gt;Entity81 -->
<g id="edge37" class="edge verb">
<title>Entity42&#45;&gt;Entity81</title>
<path fill="none" stroke="black" d="M3742.64,-1995.16C3757.45,-2014.05 3781.14,-2044.29 3797.72,-2065.45"/>
<polygon fill="black" stroke="black" points="3794.98,-2067.64 3803.9,-2073.36 3800.49,-2063.32 3794.98,-2067.64"/>
<text text-anchor="start" x="3709.18" y="-2034.11" font-family="Times New Roman,serif" font-size="14.00">member of</text>
</g>
<!-- Entity47 -->
<g id="node39" class="node entity">
<title>Entity47</title>
<ellipse fill="none" stroke="black" cx="6698.85" cy="-387.5" rx="69.59" ry="18"/>
<text text-anchor="start" x="6653.35" y="-383.8" font-family="Times New Roman,serif" font-size="14.00">andrew breitbart</text>
</g>
<!-- Entity47&#45;&gt;Entity83 -->
<g id="edge39" class="edge verb">
<title>Entity47&#45;&gt;Entity83</title>
<path fill="none" stroke="black" d="M6693.32,-405.83C6688.2,-422.77 6680.53,-448.19 6674.66,-467.65"/>
<polygon fill="black" stroke="black" points="6671.23,-466.89 6671.7,-477.48 6677.94,-468.91 6671.23,-466.89"/>
<text text-anchor="start" x="6642.99" y="-440.54" font-family="Times New Roman,serif" font-size="14.00">created</text>
</g>
<!-- Entity35 -->
<g id="node42" class="node entity">
<title>Entity35</title>
<ellipse fill="none" stroke="black" cx="3714.94" cy="-997.66" rx="39.79" ry="18"/>
<text text-anchor="start" x="3692.44" y="-993.96" font-family="Times New Roman,serif" font-size="14.00">crowley</text>
</g>
<!-- Entity80 -->
<g id="node43" class="node entity">
<title>Entity80</title>
<ellipse fill="none" stroke="black" cx="3802.66" cy="-1109.64" rx="38.99" ry="18"/>
<text text-anchor="start" x="3780.66" y="-1105.94" font-family="Times New Roman,serif" font-size="14.00">x magic</text>
</g>
<!-- Entity35&#45;&gt;Entity80 -->
<g id="edge41" class="edge verb">
<title>Entity35&#45;&gt;Entity80</title>
<path fill="none" stroke="black" d="M3728.26,-1014.67C3742.82,-1033.25 3766.28,-1063.2 3782.96,-1084.49"/>
<polygon fill="black" stroke="black" points="3780.29,-1086.76 3789.21,-1092.47 3785.8,-1082.44 3780.29,-1086.76"/>
<text text-anchor="start" x="3694.61" y="-1053.38" font-family="Times New Roman,serif" font-size="14.00">member of</text>
</g>
<!-- Entity19 -->
<g id="node44" class="node entity">
<title>Entity19</title>
<ellipse fill="none" stroke="black" cx="5221.4" cy="-1421.96" rx="31.4" ry="18"/>
<text text-anchor="start" x="5205.4" y="-1418.26" font-family="Times New Roman,serif" font-size="14.00">carter</text>
</g>
<!-- Entity19&#45;&gt;Entity66 -->
<g id="edge44" class="edge verb">
<title>Entity19&#45;&gt;Entity66</title>
<path fill="none" stroke="black" d="M5252.82,-1422.89C5308.45,-1424.53 5424.27,-1427.94 5486.6,-1429.77"/>
<polygon fill="black" stroke="black" points="5486.76,-1433.28 5496.86,-1430.07 5486.96,-1426.28 5486.76,-1433.28"/>
<text text-anchor="start" x="5353.71" y="-1430.13" font-family="Times New Roman,serif" font-size="14.00">isa</text>
</g>
<!-- Entity19&#45;&gt;Entity90 -->
<g id="edge56" class="edge verb">
<title>Entity19&#45;&gt;Entity90</title>
<path fill="none" stroke="black" d="M5194.01,-1430.96C5133.82,-1450.71 4990.16,-1497.85 4924.22,-1519.49"/>
<polygon fill="black" stroke="black" points="4922.74,-1516.29 4914.33,-1522.74 4924.92,-1522.95 4922.74,-1516.29"/>
<text text-anchor="start" x="5004.11" y="-1479.02" font-family="Times New Roman,serif" font-size="14.00">witnessed</text>
</g>
<!-- Entity27 -->
<g id="node45" class="node entity">
<title>Entity27</title>
<ellipse fill="none" stroke="black" cx="36.77" cy="-2769.85" rx="36.29" ry="18"/>
<text text-anchor="start" x="16.77" y="-2766.15" font-family="Times New Roman,serif" font-size="14.00">oswald</text>
</g>
<!-- Entity34 -->
<g id="node46" class="node entity">
<title>Entity34</title>
<ellipse fill="none" stroke="black" cx="454.61" cy="-2616.06" rx="59.29" ry="18"/>
<text text-anchor="start" x="417.11" y="-2612.36" font-family="Times New Roman,serif" font-size="14.00">guy bannister</text>
</g>
<!-- Entity27&#45;&gt;Entity34 -->
<g id="edge50" class="edge verb">
<title>Entity27&#45;&gt;Entity34</title>
<path fill="none" stroke="black" d="M66.15,-2759.03C137.43,-2732.8 320.05,-2665.58 407.09,-2633.55"/>
<polygon fill="black" stroke="black" points="408.54,-2636.74 416.71,-2630.01 406.12,-2630.17 408.54,-2636.74"/>
<text text-anchor="start" x="173.62" y="-2700.09" font-family="Times New Roman,serif" font-size="14.00">worked for</text>
</g>
<!-- Entity34&#45;&gt;Entity75 -->
<g id="edge51" class="edge verb">
<title>Entity34&#45;&gt;Entity75</title>
<path fill="none" stroke="black" d="M491.38,-2601.86C578.76,-2568.14 798.23,-2483.43 888.55,-2448.57"/>
<polygon fill="black" stroke="black" points="890.08,-2451.73 898.15,-2444.86 887.56,-2445.2 890.08,-2451.73"/>
<text text-anchor="start" x="628.97" y="-2529.02" font-family="Times New Roman,serif" font-size="14.00">member of</text>
</g>
<!-- Entity64 -->
<g id="node47" class="node entity">
<title>Entity64</title>
<ellipse fill="none" stroke="black" cx="4269.79" cy="-463.16" rx="73.39" ry="18"/>
<text text-anchor="start" x="4221.29" y="-459.46" font-family="Times New Roman,serif" font-size="14.00">madam blavatsky</text>
</g>
<!-- Entity64&#45;&gt;Entity86 -->
<g id="edge52" class="edge verb">
<title>Entity64&#45;&gt;Entity86</title>
<path fill="none" stroke="black" d="M4282.55,-480.99C4295.02,-498.41 4314.15,-525.14 4328.34,-544.97"/>
<polygon fill="black" stroke="black" points="4325.61,-547.17 4334.28,-553.27 4331.3,-543.1 4325.61,-547.17"/>
<text text-anchor="start" x="4264.45" y="-516.78" font-family="Times New Roman,serif" font-size="14.00">created</text>
</g>
<!-- Entity60 -->
<g id="node56" class="node entity">
<title>Entity60</title>
<ellipse fill="none" stroke="black" cx="3813.29" cy="-479" rx="58.49" ry="18"/>
<text text-anchor="start" x="3776.29" y="-475.3" font-family="Times New Roman,serif" font-size="14.00">rudolf steiner</text>
</g>
<!-- Entity60&#45;&gt;Entity86 -->
<g id="edge63" class="edge verb">
<title>Entity60&#45;&gt;Entity86</title>
<path fill="none" stroke="black" d="M3864.47,-487.83C3958.72,-504.1 4160.19,-538.87 4270.67,-557.94"/>
<polygon fill="black" stroke="black" points="4270.3,-561.42 4280.75,-559.68 4271.49,-554.53 4270.3,-561.42"/>
<text text-anchor="start" x="4001.57" y="-526.68" font-family="Times New Roman,serif" font-size="14.00">memberr of</text>
</g>
<!-- Entity93 -->
<g id="node57" class="node entity">
<title>Entity93</title>
<ellipse fill="none" stroke="black" cx="3711.54" cy="-370.93" rx="102.08" ry="18"/>
<text text-anchor="start" x="3641.04" y="-367.23" font-family="Times New Roman,serif" font-size="14.00">anthroposophical society</text>
</g>
<!-- Entity60&#45;&gt;Entity93 -->
<g id="edge60" class="edge verb">
<title>Entity60&#45;&gt;Entity93</title>
<path fill="none" stroke="black" d="M3796.94,-461.64C3780.3,-443.97 3754.34,-416.39 3735.4,-396.28"/>
<polygon fill="black" stroke="black" points="3737.93,-393.86 3728.52,-388.97 3732.83,-398.65 3737.93,-393.86"/>
<text text-anchor="start" x="3725.17" y="-432.76" font-family="Times New Roman,serif" font-size="14.00">created</text>
</g>
<!-- Entity109 -->
<g id="node60" class="node entity">
<title>Entity109</title>
<ellipse fill="none" stroke="black" cx="4191.94" cy="-997.66" rx="27" ry="18"/>
<text text-anchor="start" x="4188.44" y="-993.96" font-family="Times New Roman,serif" font-size="14.00">s</text>
</g>
<!-- Entity112 -->
<g id="node61" class="node entity">
<title>Entity112</title>
<ellipse fill="none" stroke="black" cx="4279.66" cy="-1109.64" rx="27" ry="18"/>
<text text-anchor="start" x="4275.66" y="-1105.94" font-family="Times New Roman,serif" font-size="14.00">o</text>
</g>
<!-- Entity109&#45;&gt;Entity112 -->
<g id="edge67" class="edge verb">
<title>Entity109&#45;&gt;Entity112</title>
<path fill="none" stroke="black" d="M4204.51,-1013.7C4219.23,-1032.5 4243.76,-1063.82 4260.78,-1085.53"/>
<polygon fill="black" stroke="black" points="4258.19,-1087.91 4267.11,-1093.62 4263.7,-1083.59 4258.19,-1087.91"/>
<text text-anchor="start" x="4225.64" y="-1053.42" font-family="Times New Roman,serif" font-size="14.00">v</text>
</g>
</g>
</svg>
