<?xml version="1.0" encoding="UTF-8" standalone="no"?>
<?xml-stylesheet href="./styles.css" type="text/css"?>
<!DOCTYPE svg PUBLIC "-//W3C//DTD SVG 1.1//EN"
 "http://www.w3.org/Graphics/SVG/1.1/DTD/svg11.dtd">
<!-- Generated by graphviz version 2.47.3 (20210619.1520)
 -->
<!-- Title: G Pages: 1 -->
<svg width="7526pt" height="5352pt"
 viewBox="0.00 0.00 7526.00 5352.00" xmlns="http://www.w3.org/2000/svg" xmlns:xlink="http://www.w3.org/1999/xlink">
<g id="graph0" class="graph" transform="scale(1 1) rotate(0) translate(4 5348)">
<title>G</title>
<polygon fill="white" stroke="transparent" points="-4,4 -4,-5348 7522,-5348 7522,4 -4,4"/>
<!-- Entity8 -->
<g id="node1" class="node entity">
<title>Entity8</title>
<ellipse fill="none" stroke="black" cx="4147.57" cy="-1657.85" rx="41.69" ry="18"/>
<text text-anchor="start" x="4123.57" y="-1654.15" font-family="Times New Roman,serif" font-size="14.00">uri geller</text>
</g>
<!-- Entity16 -->
<g id="node2" class="node entity">
<title>Entity16</title>
<ellipse fill="none" stroke="black" cx="4530.66" cy="-1656.37" rx="38.19" ry="18"/>
<text text-anchor="start" x="4509.16" y="-1652.67" font-family="Times New Roman,serif" font-size="14.00">the nine</text>
</g>
<!-- Entity8&#45;&gt;Entity16 -->
<g id="edge1" class="edge verb">
<title>Entity8&#45;&gt;Entity16</title>
<path fill="none" stroke="black" d="M4189.3,-1657.69C4260.7,-1657.41 4405.93,-1656.85 4481.89,-1656.56"/>
<polygon fill="black" stroke="black" points="4482.15,-1660.06 4492.13,-1656.52 4482.12,-1653.06 4482.15,-1660.06"/>
<text text-anchor="start" x="4231.59" y="-1660.92" font-family="Times New Roman,serif" font-size="14.00">claiemd to channel</text>
</g>
<!-- Entity105 -->
<g id="node47" class="node entity">
<title>Entity105</title>
<ellipse fill="none" stroke="black" cx="4239.45" cy="-1148.92" rx="94.48" ry="18"/>
<text text-anchor="start" x="4174.95" y="-1145.22" font-family="Times New Roman,serif" font-size="14.00">egyptian gods in a ship</text>
</g>
<!-- Entity16&#45;&gt;Entity105 -->
<g id="edge53" class="edge verb">
<title>Entity16&#45;&gt;Entity105</title>
<path fill="none" stroke="black" d="M4520.64,-1638.91C4477.46,-1563.67 4307.18,-1266.93 4254.84,-1175.73"/>
<polygon fill="black" stroke="black" points="4257.75,-1173.77 4249.73,-1166.84 4251.68,-1177.25 4257.75,-1173.77"/>
<text text-anchor="start" x="4283.74" y="-1411.12" font-family="Times New Roman,serif" font-size="14.00">claimed to channel</text>
</g>
<!-- Entity9 -->
<g id="node3" class="node entity">
<title>Entity9</title>
<ellipse fill="none" stroke="black" cx="3293.42" cy="-3767.48" rx="27" ry="18"/>
<text text-anchor="start" x="3285.92" y="-3763.78" font-family="Times New Roman,serif" font-size="14.00">jfk</text>
</g>
<!-- Entity25 -->
<g id="node4" class="node entity">
<title>Entity25</title>
<ellipse fill="none" stroke="black" cx="3544.01" cy="-3390.43" rx="27" ry="18"/>
<text text-anchor="start" x="3536.01" y="-3386.73" font-family="Times New Roman,serif" font-size="14.00">cia</text>
</g>
<!-- Entity9&#45;&gt;Entity25 -->
<g id="edge2" class="edge verb">
<title>Entity9&#45;&gt;Entity25</title>
<path fill="none" stroke="black" d="M3304.52,-3750.79C3344.3,-3690.93 3479.99,-3486.75 3527.45,-3415.33"/>
<polygon fill="black" stroke="black" points="3530.43,-3417.19 3533.05,-3406.92 3524.6,-3413.31 3530.43,-3417.19"/>
<text text-anchor="start" x="3311.98" y="-3586.86" font-family="Times New Roman,serif" font-size="14.00">heads (1961&#45;1963)</text>
</g>
<!-- Entity77 -->
<g id="node28" class="node entity">
<title>Entity77</title>
<ellipse fill="none" stroke="black" cx="2990.48" cy="-4144.77" rx="31.4" ry="18"/>
<text text-anchor="start" x="2974.48" y="-4141.07" font-family="Times New Roman,serif" font-size="14.00">potus</text>
</g>
<!-- Entity9&#45;&gt;Entity77 -->
<g id="edge24" class="edge verb">
<title>Entity9&#45;&gt;Entity77</title>
<path fill="none" stroke="black" d="M3280.41,-3783.69C3232.74,-3843.06 3067.52,-4048.83 3010.23,-4120.18"/>
<polygon fill="black" stroke="black" points="3007.33,-4118.21 3003.79,-4128.2 3012.78,-4122.59 3007.33,-4118.21"/>
<text text-anchor="start" x="3058.32" y="-3955.74" font-family="Times New Roman,serif" font-size="14.00">isa (1961&#45;1963)</text>
</g>
<!-- Entity75 -->
<g id="node26" class="node entity">
<title>Entity75</title>
<ellipse fill="none" stroke="black" cx="4073.91" cy="-2788.11" rx="77.19" ry="18"/>
<text text-anchor="start" x="4022.41" y="-2784.41" font-family="Times New Roman,serif" font-size="14.00">psi&#45;consciousness</text>
</g>
<!-- Entity25&#45;&gt;Entity75 -->
<g id="edge45" class="edge verb">
<title>Entity25&#45;&gt;Entity75</title>
<path fill="none" stroke="black" d="M3557.91,-3374.62C3630.01,-3292.67 3961.51,-2915.87 4051.38,-2813.72"/>
<polygon fill="black" stroke="black" points="4054.17,-2815.86 4058.14,-2806.04 4048.91,-2811.23 4054.17,-2815.86"/>
<text text-anchor="start" x="3740.65" y="-3097.97" font-family="Times New Roman,serif" font-size="14.00">investigates</text>
</g>
<!-- Entity108 -->
<g id="node52" class="node entity">
<title>Entity108</title>
<ellipse fill="none" stroke="black" cx="3585.53" cy="-3711.65" rx="27" ry="18"/>
<text text-anchor="start" x="3576.03" y="-3707.95" font-family="Times New Roman,serif" font-size="14.00">ufo</text>
</g>
<!-- Entity25&#45;&gt;Entity108 -->
<g id="edge62" class="edge verb">
<title>Entity25&#45;&gt;Entity108</title>
<path fill="none" stroke="black" d="M3546.36,-3408.62C3553.27,-3462.06 3573.54,-3618.9 3581.89,-3683.42"/>
<polygon fill="black" stroke="black" points="3578.45,-3684.19 3583.21,-3693.65 3585.4,-3683.29 3578.45,-3684.19"/>
<text text-anchor="start" x="3500.12" y="-3549.82" font-family="Times New Roman,serif" font-size="14.00">investigates</text>
</g>
<!-- Entity2 -->
<g id="node5" class="node entity">
<title>Entity2</title>
<ellipse fill="none" stroke="black" cx="4681.76" cy="-2154.98" rx="56.59" ry="18"/>
<text text-anchor="start" x="4646.26" y="-2151.28" font-family="Times New Roman,serif" font-size="14.00">arthur young</text>
</g>
<!-- Entity2&#45;&gt;Entity16 -->
<g id="edge3" class="edge verb">
<title>Entity2&#45;&gt;Entity16</title>
<path fill="none" stroke="black" d="M4676.29,-2136.94C4653.57,-2061.96 4566.51,-1774.67 4539.03,-1683.98"/>
<polygon fill="black" stroke="black" points="4542.37,-1682.94 4536.12,-1674.39 4535.67,-1684.97 4542.37,-1682.94"/>
<text text-anchor="start" x="4545.66" y="-1914.26" font-family="Times New Roman,serif" font-size="14.00">member&#45;of</text>
</g>
<!-- Entity2&#45;&gt;Entity75 -->
<g id="edge18" class="edge verb">
<title>Entity2&#45;&gt;Entity75</title>
<path fill="none" stroke="black" d="M4665.19,-2172.24C4580.73,-2260.22 4198.29,-2658.56 4098.03,-2762.99"/>
<polygon fill="black" stroke="black" points="4095.45,-2760.63 4091.05,-2770.27 4100.5,-2765.48 4095.45,-2760.63"/>
<text text-anchor="start" x="4340.61" y="-2471.42" font-family="Times New Roman,serif" font-size="14.00">studied</text>
</g>
<!-- Entity76 -->
<g id="node29" class="node entity">
<title>Entity76</title>
<ellipse fill="none" stroke="black" cx="5310.95" cy="-1751.66" rx="53.89" ry="18"/>
<text text-anchor="start" x="5277.45" y="-1747.96" font-family="Times New Roman,serif" font-size="14.00">bell aviation</text>
</g>
<!-- Entity2&#45;&gt;Entity76 -->
<g id="edge20" class="edge verb">
<title>Entity2&#45;&gt;Entity76</title>
<path fill="none" stroke="black" d="M4707.2,-2138.67C4806.14,-2075.25 5165.29,-1845.03 5277.33,-1773.21"/>
<polygon fill="black" stroke="black" points="5279.35,-1776.07 5285.88,-1767.73 5275.57,-1770.18 5279.35,-1776.07"/>
<text text-anchor="start" x="4951.27" y="-1959.74" font-family="Times New Roman,serif" font-size="14.00">created</text>
</g>
<!-- Entity31 -->
<g id="node6" class="node entity">
<title>Entity31</title>
<ellipse fill="none" stroke="black" cx="1892.66" cy="-4716.57" rx="58.49" ry="18"/>
<text text-anchor="start" x="1855.66" y="-4712.87" font-family="Times New Roman,serif" font-size="14.00">steve bannon</text>
</g>
<!-- Entity22 -->
<g id="node7" class="node entity">
<title>Entity22</title>
<ellipse fill="none" stroke="black" cx="2515.37" cy="-4228.28" rx="59.59" ry="18"/>
<text text-anchor="start" x="2477.37" y="-4224.58" font-family="Times New Roman,serif" font-size="14.00">donald trump</text>
</g>
<!-- Entity31&#45;&gt;Entity22 -->
<g id="edge4" class="edge verb">
<title>Entity31&#45;&gt;Entity22</title>
<path fill="none" stroke="black" d="M1918.03,-4700.23C2018.59,-4627.99 2388.13,-4338.31 2489.52,-4252.36"/>
<polygon fill="black" stroke="black" points="2492.1,-4254.76 2497.42,-4245.6 2487.55,-4249.44 2492.1,-4254.76"/>
<text text-anchor="start" x="2148.78" y="-4480.09" font-family="Times New Roman,serif" font-size="14.00">promoted</text>
</g>
<!-- Entity31&#45;&gt;Entity22 -->
<g id="edge10" class="edge verb">
<title>Entity31&#45;&gt;Entity22</title>
<path fill="none" stroke="black" d="M1910.41,-4699.42C1996.12,-4625.37 2367.14,-4334.17 2481.63,-4250.69"/>
<polygon fill="black" stroke="black" points="2484,-4253.29 2490.04,-4244.59 2479.89,-4247.62 2484,-4253.29"/>
<text text-anchor="start" x="2154.02" y="-4463.85" font-family="Times New Roman,serif" font-size="14.00">advises</text>
</g>
<!-- Entity80 -->
<g id="node31" class="node entity">
<title>Entity80</title>
<ellipse fill="none" stroke="black" cx="1297.26" cy="-4902.71" rx="61.99" ry="18"/>
<text text-anchor="start" x="1257.76" y="-4899.01" font-family="Times New Roman,serif" font-size="14.00">breitbart news</text>
</g>
<!-- Entity31&#45;&gt;Entity80 -->
<g id="edge46" class="edge verb">
<title>Entity31&#45;&gt;Entity80</title>
<path fill="none" stroke="black" d="M1851.26,-4729.52C1745.56,-4762.56 1465.84,-4850.01 1349.34,-4886.43"/>
<polygon fill="black" stroke="black" points="1348.08,-4883.16 1339.58,-4889.48 1350.16,-4889.84 1348.08,-4883.16"/>
<text text-anchor="start" x="1559.3" y="-4811.77" font-family="Times New Roman,serif" font-size="14.00">created</text>
</g>
<!-- Entity92 -->
<g id="node33" class="node entity">
<title>Entity92</title>
<ellipse fill="none" stroke="black" cx="1873.14" cy="-5151.46" rx="35.19" ry="18"/>
<text text-anchor="start" x="1854.14" y="-5147.76" font-family="Times New Roman,serif" font-size="14.00">gurgev</text>
</g>
<!-- Entity31&#45;&gt;Entity92 -->
<g id="edge26" class="edge verb">
<title>Entity31&#45;&gt;Entity92</title>
<path fill="none" stroke="black" d="M1891.84,-4734.71C1888.81,-4802.4 1878.11,-5040.65 1874.41,-5123.12"/>
<polygon fill="black" stroke="black" points="1870.91,-5123.11 1873.95,-5133.25 1877.9,-5123.42 1870.91,-5123.11"/>
<text text-anchor="start" x="1842.13" y="-4932.71" font-family="Times New Roman,serif" font-size="14.00">studied</text>
</g>
<!-- Entity95 -->
<g id="node35" class="node entity">
<title>Entity95</title>
<ellipse fill="none" stroke="black" cx="1587.23" cy="-5119.5" rx="53.09" ry="18"/>
<text text-anchor="start" x="1554.23" y="-5115.8" font-family="Times New Roman,serif" font-size="14.00">biosphere 2</text>
</g>
<!-- Entity31&#45;&gt;Entity95 -->
<g id="edge29" class="edge verb">
<title>Entity31&#45;&gt;Entity95</title>
<path fill="none" stroke="black" d="M1879.34,-4734.15C1830.91,-4798.03 1664.07,-5018.14 1606.75,-5093.75"/>
<polygon fill="black" stroke="black" points="1603.88,-5091.75 1600.62,-5101.83 1609.45,-5095.98 1603.88,-5091.75"/>
<text text-anchor="start" x="1702.04" y="-4917.75" font-family="Times New Roman,serif" font-size="14.00">created</text>
</g>
<!-- Entity104 -->
<g id="node48" class="node entity">
<title>Entity104</title>
<ellipse fill="none" stroke="black" cx="1420.15" cy="-5011.13" rx="64.99" ry="18"/>
<text text-anchor="start" x="1378.15" y="-5007.43" font-family="Times New Roman,serif" font-size="14.00">goldman sachs</text>
</g>
<!-- Entity31&#45;&gt;Entity104 -->
<g id="edge54" class="edge verb">
<title>Entity31&#45;&gt;Entity104</title>
<path fill="none" stroke="black" d="M1866.58,-4732.83C1786.82,-4782.55 1546.05,-4932.64 1455.28,-4989.23"/>
<polygon fill="black" stroke="black" points="1453.36,-4986.3 1446.73,-4994.56 1457.07,-4992.24 1453.36,-4986.3"/>
<text text-anchor="start" x="1597.93" y="-4864.83" font-family="Times New Roman,serif" font-size="14.00">worked for</text>
</g>
<!-- Entity112 -->
<g id="node55" class="node entity">
<title>Entity112</title>
<ellipse fill="none" stroke="black" cx="1699.43" cy="-5301.76" rx="77.19" ry="18"/>
<text text-anchor="start" x="1647.93" y="-5298.06" font-family="Times New Roman,serif" font-size="14.00">hollywood movies</text>
</g>
<!-- Entity31&#45;&gt;Entity112 -->
<g id="edge60" class="edge verb">
<title>Entity31&#45;&gt;Entity112</title>
<path fill="none" stroke="black" d="M1886.66,-4734.73C1858.86,-4818.94 1742.37,-5171.71 1708.63,-5273.9"/>
<polygon fill="black" stroke="black" points="1705.26,-5272.93 1705.45,-5283.53 1711.91,-5275.13 1705.26,-5272.93"/>
<text text-anchor="start" x="1742.64" y="-5008.12" font-family="Times New Roman,serif" font-size="14.00">produced</text>
</g>
<!-- Entity117 -->
<g id="node61" class="node entity">
<title>Entity117</title>
<ellipse fill="none" stroke="black" cx="1450.93" cy="-4657.86" rx="38.19" ry="18"/>
<text text-anchor="start" x="1429.43" y="-4654.16" font-family="Times New Roman,serif" font-size="14.00">us navy</text>
</g>
<!-- Entity31&#45;&gt;Entity117 -->
<g id="edge67" class="edge verb">
<title>Entity31&#45;&gt;Entity117</title>
<path fill="none" stroke="black" d="M1838.93,-4709.43C1751.73,-4697.84 1580.8,-4675.12 1498.05,-4664.12"/>
<polygon fill="black" stroke="black" points="1498.3,-4660.63 1487.93,-4662.78 1497.38,-4667.56 1498.3,-4660.63"/>
<text text-anchor="start" x="1607.49" y="-4690.58" font-family="Times New Roman,serif" font-size="14.00">member of</text>
</g>
<!-- Entity44 -->
<g id="node15" class="node entity">
<title>Entity44</title>
<ellipse fill="none" stroke="black" cx="3058.84" cy="-3735.64" rx="50.09" ry="18"/>
<text text-anchor="start" x="3028.34" y="-3731.94" font-family="Times New Roman,serif" font-size="14.00">john trump</text>
</g>
<!-- Entity22&#45;&gt;Entity44 -->
<g id="edge11" class="edge verb">
<title>Entity22&#45;&gt;Entity44</title>
<path fill="none" stroke="black" d="M2534.39,-4211.04C2616.17,-4136.9 2938,-3845.17 3032.57,-3759.45"/>
<polygon fill="black" stroke="black" points="3035.19,-3761.8 3040.25,-3752.49 3030.49,-3756.61 3035.19,-3761.8"/>
<text text-anchor="start" x="2724.48" y="-3989.04" font-family="Times New Roman,serif" font-size="14.00">nephew of</text>
</g>
<!-- Entity22&#45;&gt;Entity77 -->
<g id="edge38" class="edge verb">
<title>Entity22&#45;&gt;Entity77</title>
<path fill="none" stroke="black" d="M2567.12,-4219.19C2662.68,-4202.39 2864.9,-4166.85 2950.68,-4151.77"/>
<polygon fill="black" stroke="black" points="2951.3,-4155.21 2960.55,-4150.03 2950.09,-4148.32 2951.3,-4155.21"/>
<text text-anchor="start" x="2742.9" y="-4189.28" font-family="Times New Roman,serif" font-size="14.00">isa</text>
</g>
<!-- Entity61 -->
<g id="node8" class="node entity">
<title>Entity61</title>
<ellipse fill="none" stroke="black" cx="6841.72" cy="-890.62" rx="49.29" ry="18"/>
<text text-anchor="start" x="6811.72" y="-886.92" font-family="Times New Roman,serif" font-size="14.00">adolf hitler</text>
</g>
<!-- Entity71 -->
<g id="node9" class="node entity">
<title>Entity71</title>
<ellipse fill="none" stroke="black" cx="6445.85" cy="-959.49" rx="32.49" ry="18"/>
<text text-anchor="start" x="6428.85" y="-955.79" font-family="Times New Roman,serif" font-size="14.00">nsdap</text>
</g>
<!-- Entity61&#45;&gt;Entity71 -->
<g id="edge5" class="edge verb">
<title>Entity61&#45;&gt;Entity71</title>
<path fill="none" stroke="black" d="M6797.08,-898.38C6719.73,-911.84 6561.92,-939.3 6487.04,-952.33"/>
<polygon fill="black" stroke="black" points="6486.3,-948.9 6477.04,-954.07 6487.49,-955.8 6486.3,-948.9"/>
<text text-anchor="start" x="6601.06" y="-929.15" font-family="Times New Roman,serif" font-size="14.00">created</text>
</g>
<!-- Entity115 -->
<g id="node58" class="node entity">
<title>Entity115</title>
<ellipse fill="none" stroke="black" cx="6769.52" cy="-638.34" rx="38.99" ry="18"/>
<text text-anchor="start" x="6747.52" y="-634.64" font-family="Times New Roman,serif" font-size="14.00">far right</text>
</g>
<!-- Entity71&#45;&gt;Entity115 -->
<g id="edge64" class="edge verb">
<title>Entity71&#45;&gt;Entity115</title>
<path fill="none" stroke="black" d="M6461.9,-943.57C6514.62,-891.25 6682.69,-724.49 6745.52,-662.16"/>
<polygon fill="black" stroke="black" points="6748.35,-664.28 6752.98,-654.75 6743.42,-659.31 6748.35,-664.28"/>
<text text-anchor="start" x="6542.71" y="-806.66" font-family="Times New Roman,serif" font-size="14.00">member of</text>
</g>
<!-- Entity6 -->
<g id="node10" class="node entity">
<title>Entity6</title>
<ellipse fill="none" stroke="black" cx="4077.59" cy="-1549.91" rx="64.19" ry="18"/>
<text text-anchor="start" x="4036.09" y="-1546.21" font-family="Times New Roman,serif" font-size="14.00">andre puharich</text>
</g>
<!-- Entity6&#45;&gt;Entity8 -->
<g id="edge6" class="edge verb">
<title>Entity6&#45;&gt;Entity8</title>
<path fill="none" stroke="black" d="M4089.15,-1567.73C4100.46,-1585.18 4117.81,-1611.95 4130.67,-1631.79"/>
<polygon fill="black" stroke="black" points="4127.85,-1633.87 4136.23,-1640.36 4133.73,-1630.06 4127.85,-1633.87"/>
<text text-anchor="start" x="4049.91" y="-1603.56" font-family="Times New Roman,serif" font-size="14.00">sponsored</text>
</g>
<!-- Entity3 -->
<g id="node11" class="node entity">
<title>Entity3</title>
<ellipse fill="none" stroke="black" cx="4172.45" cy="-2169.23" rx="68.49" ry="18"/>
<text text-anchor="start" x="4127.95" y="-2165.53" font-family="Times New Roman,serif" font-size="14.00">jeffrey mishlove</text>
</g>
<!-- Entity3&#45;&gt;Entity8 -->
<g id="edge7" class="edge verb">
<title>Entity3&#45;&gt;Entity8</title>
<path fill="none" stroke="black" d="M4171.56,-2151.03C4167.85,-2074.62 4153.48,-1779.36 4148.95,-1686.19"/>
<polygon fill="black" stroke="black" points="4152.44,-1685.91 4148.46,-1676.1 4145.45,-1686.25 4152.44,-1685.91"/>
<text text-anchor="start" x="4105.26" y="-1922.41" font-family="Times New Roman,serif" font-size="14.00">promoted</text>
</g>
<!-- Entity3&#45;&gt;Entity75 -->
<g id="edge22" class="edge verb">
<title>Entity3&#45;&gt;Entity75</title>
<path fill="none" stroke="black" d="M4167.03,-2187.36C4147.55,-2274.78 4087.18,-2652.89 4075.36,-2759.84"/>
<polygon fill="black" stroke="black" points="4071.87,-2759.57 4074.32,-2769.87 4078.84,-2760.29 4071.87,-2759.57"/>
<text text-anchor="start" x="4080.2" y="-2477.4" font-family="Times New Roman,serif" font-size="14.00">studied</text>
</g>
<!-- Entity3&#45;&gt;Entity75 -->
<g id="edge28" class="edge verb">
<title>Entity3&#45;&gt;Entity75</title>
<path fill="none" stroke="black" d="M4172.04,-2187.48C4163.66,-2275.14 4103.66,-2653.24 4081.48,-2759.97"/>
<polygon fill="black" stroke="black" points="4078.01,-2759.47 4079.34,-2769.98 4084.86,-2760.94 4078.01,-2759.47"/>
<text text-anchor="start" x="4126.76" y="-2477.52" font-family="Times New Roman,serif" font-size="14.00">investigates</text>
</g>
<!-- Entity20 -->
<g id="node12" class="node entity">
<title>Entity20</title>
<ellipse fill="none" stroke="black" cx="3341.6" cy="-4443.52" rx="68.49" ry="18"/>
<text text-anchor="start" x="3297.1" y="-4439.82" font-family="Times New Roman,serif" font-size="14.00">george hw bush</text>
</g>
<!-- Entity24 -->
<g id="node13" class="node entity">
<title>Entity24</title>
<ellipse fill="none" stroke="black" cx="3327.33" cy="-4551.49" rx="63.89" ry="18"/>
<text text-anchor="start" x="3286.33" y="-4547.79" font-family="Times New Roman,serif" font-size="14.00">george w bush</text>
</g>
<!-- Entity20&#45;&gt;Entity24 -->
<g id="edge8" class="edge verb">
<title>Entity20&#45;&gt;Entity24</title>
<path fill="none" stroke="black" d="M3339.18,-4461.84C3336.95,-4478.69 3333.62,-4503.94 3331.05,-4523.36"/>
<polygon fill="black" stroke="black" points="3327.56,-4523.08 3329.72,-4533.45 3334.5,-4523.99 3327.56,-4523.08"/>
<text text-anchor="start" x="3303.12" y="-4496.4" font-family="Times New Roman,serif" font-size="14.00">father</text>
</g>
<!-- Entity20&#45;&gt;Entity77 -->
<g id="edge40" class="edge verb">
<title>Entity20&#45;&gt;Entity77</title>
<path fill="none" stroke="black" d="M3321.2,-4426.17C3260.85,-4374.82 3083.19,-4223.65 3016.33,-4166.76"/>
<polygon fill="black" stroke="black" points="3018.26,-4163.81 3008.37,-4159.99 3013.72,-4169.14 3018.26,-4163.81"/>
<text text-anchor="start" x="3152.76" y="-4300.27" font-family="Times New Roman,serif" font-size="14.00">isa</text>
</g>
<!-- Entity24&#45;&gt;Entity77 -->
<g id="edge42" class="edge verb">
<title>Entity24&#45;&gt;Entity77</title>
<path fill="none" stroke="black" d="M3312.64,-4533.76C3258.87,-4468.83 3072.7,-4244.04 3010.73,-4169.21"/>
<polygon fill="black" stroke="black" points="3013.2,-4166.72 3004.13,-4161.25 3007.81,-4171.18 3013.2,-4166.72"/>
<text text-anchor="start" x="3145.69" y="-4355.29" font-family="Times New Roman,serif" font-size="14.00">isa</text>
</g>
<!-- Entity1 -->
<g id="node14" class="node entity">
<title>Entity1</title>
<ellipse fill="none" stroke="black" cx="4746.42" cy="-1212.77" rx="74.99" ry="18"/>
<text text-anchor="start" x="4696.92" y="-1209.07" font-family="Times New Roman,serif" font-size="14.00">gene roddenberry</text>
</g>
<!-- Entity1&#45;&gt;Entity16 -->
<g id="edge9" class="edge verb">
<title>Entity1&#45;&gt;Entity16</title>
<path fill="none" stroke="black" d="M4737.7,-1230.71C4704.21,-1299.56 4583.81,-1547.11 4543.74,-1629.49"/>
<polygon fill="black" stroke="black" points="4540.49,-1628.17 4539.26,-1638.7 4546.78,-1631.23 4540.49,-1628.17"/>
<text text-anchor="start" x="4536.72" y="-1433.9" font-family="Times New Roman,serif" font-size="14.00">claiemd to channel</text>
</g>
<!-- Entity44&#45;&gt;Entity25 -->
<g id="edge13" class="edge verb">
<title>Entity44&#45;&gt;Entity25</title>
<path fill="none" stroke="black" d="M3081.59,-3719.45C3161.74,-3662.42 3430.79,-3470.98 3517.11,-3409.56"/>
<polygon fill="black" stroke="black" points="3519.22,-3412.36 3525.34,-3403.71 3515.17,-3406.65 3519.22,-3412.36"/>
<text text-anchor="start" x="3238.35" y="-3568.31" font-family="Times New Roman,serif" font-size="14.00">member of</text>
</g>
<!-- Entity111 -->
<g id="node51" class="node entity">
<title>Entity111</title>
<ellipse fill="none" stroke="black" cx="3094.17" cy="-3627.68" rx="50.89" ry="18"/>
<text text-anchor="start" x="3063.17" y="-3623.98" font-family="Times New Roman,serif" font-size="14.00">nikola tesla</text>
</g>
<!-- Entity44&#45;&gt;Entity111 -->
<g id="edge56" class="edge verb">
<title>Entity44&#45;&gt;Entity111</title>
<path fill="none" stroke="black" d="M3064.83,-3717.32C3070.4,-3700.32 3078.76,-3674.76 3085.14,-3655.28"/>
<polygon fill="black" stroke="black" points="3088.48,-3656.32 3088.27,-3645.73 3081.83,-3654.14 3088.48,-3656.32"/>
<text text-anchor="start" x="3033.99" y="-3690.1" font-family="Times New Roman,serif" font-size="14.00">studied</text>
</g>
<!-- Entity34 -->
<g id="node16" class="node entity">
<title>Entity34</title>
<ellipse fill="none" stroke="black" cx="2015.38" cy="-3092.76" rx="90.98" ry="18"/>
<text text-anchor="start" x="1953.38" y="-3089.06" font-family="Times New Roman,serif" font-size="14.00">emma hardinge&#45;britten</text>
</g>
<!-- Entity28 -->
<g id="node17" class="node entity">
<title>Entity28</title>
<ellipse fill="none" stroke="black" cx="2515.44" cy="-3735.62" rx="67.69" ry="18"/>
<text text-anchor="start" x="2471.44" y="-3731.92" font-family="Times New Roman,serif" font-size="14.00">abraham lincoln</text>
</g>
<!-- Entity34&#45;&gt;Entity28 -->
<g id="edge12" class="edge verb">
<title>Entity34&#45;&gt;Entity28</title>
<path fill="none" stroke="black" d="M2029.28,-3110.62C2099.24,-3200.56 2412.76,-3603.61 2495.41,-3709.87"/>
<polygon fill="black" stroke="black" points="2492.71,-3712.09 2501.61,-3717.84 2498.23,-3707.79 2492.71,-3712.09"/>
<text text-anchor="start" x="2163.35" y="-3414.05" font-family="Times New Roman,serif" font-size="14.00">spokesperson for</text>
</g>
<!-- Entity97 -->
<g id="node36" class="node entity">
<title>Entity97</title>
<ellipse fill="none" stroke="black" cx="1667.02" cy="-2639.15" rx="39.79" ry="18"/>
<text text-anchor="start" x="1644.52" y="-2635.45" font-family="Times New Roman,serif" font-size="14.00">medium</text>
</g>
<!-- Entity34&#45;&gt;Entity97 -->
<g id="edge30" class="edge verb">
<title>Entity34&#45;&gt;Entity97</title>
<path fill="none" stroke="black" d="M2001.51,-3074.7C1947.3,-3004.11 1749.64,-2746.73 1686.53,-2664.55"/>
<polygon fill="black" stroke="black" points="1689.05,-2662.08 1680.18,-2656.28 1683.49,-2666.35 1689.05,-2662.08"/>
<text text-anchor="start" x="1828.02" y="-2873.42" font-family="Times New Roman,serif" font-size="14.00">isa</text>
</g>
<!-- Entity96 -->
<g id="node37" class="node entity">
<title>Entity96</title>
<ellipse fill="none" stroke="black" cx="1331.68" cy="-3163.02" rx="85.29" ry="18"/>
<text text-anchor="start" x="1274.18" y="-3159.32" font-family="Times New Roman,serif" font-size="14.00">theosophical society</text>
</g>
<!-- Entity34&#45;&gt;Entity96 -->
<g id="edge31" class="edge verb">
<title>Entity34&#45;&gt;Entity96</title>
<path fill="none" stroke="black" d="M1934.61,-3101.06C1805.03,-3114.38 1551.79,-3140.4 1418.49,-3154.1"/>
<polygon fill="black" stroke="black" points="1417.91,-3150.64 1408.32,-3155.15 1418.63,-3157.61 1417.91,-3150.64"/>
<text text-anchor="start" x="1635.55" y="-3131.38" font-family="Times New Roman,serif" font-size="14.00">created</text>
</g>
<!-- Entity118 -->
<g id="node60" class="node entity">
<title>Entity118</title>
<ellipse fill="none" stroke="black" cx="1978.02" cy="-2984.81" rx="55.79" ry="18"/>
<text text-anchor="start" x="1943.02" y="-2981.11" font-family="Times New Roman,serif" font-size="14.00">orphic circle</text>
</g>
<!-- Entity34&#45;&gt;Entity118 -->
<g id="edge66" class="edge verb">
<title>Entity34&#45;&gt;Entity118</title>
<path fill="none" stroke="black" d="M2009.05,-3074.45C2003.16,-3057.44 1994.31,-3031.88 1987.57,-3012.41"/>
<polygon fill="black" stroke="black" points="1990.84,-3011.16 1984.27,-3002.85 1984.23,-3013.45 1990.84,-3011.16"/>
<text text-anchor="start" x="1937.31" y="-3047.23" font-family="Times New Roman,serif" font-size="14.00">member of</text>
</g>
<!-- Entity28&#45;&gt;Entity77 -->
<g id="edge47" class="edge verb">
<title>Entity28&#45;&gt;Entity77</title>
<path fill="none" stroke="black" d="M2535.55,-3752.93C2611.43,-3818.29 2880.37,-4049.93 2964.88,-4122.72"/>
<polygon fill="black" stroke="black" points="2962.83,-4125.57 2972.69,-4129.45 2967.4,-4120.27 2962.83,-4125.57"/>
<text text-anchor="start" x="2734.21" y="-3941.63" font-family="Times New Roman,serif" font-size="14.00">isa</text>
</g>
<!-- Entity70 -->
<g id="node18" class="node entity">
<title>Entity70</title>
<ellipse fill="none" stroke="black" cx="7481.52" cy="-17.6" rx="36.29" ry="18"/>
<text text-anchor="start" x="7461.52" y="-13.9" font-family="Times New Roman,serif" font-size="14.00">oswald</text>
</g>
<!-- Entity69 -->
<g id="node19" class="node entity">
<title>Entity69</title>
<ellipse fill="none" stroke="black" cx="7147.39" cy="-306.94" rx="59.29" ry="18"/>
<text text-anchor="start" x="7109.89" y="-303.24" font-family="Times New Roman,serif" font-size="14.00">guy bannister</text>
</g>
<!-- Entity70&#45;&gt;Entity69 -->
<g id="edge14" class="edge verb">
<title>Entity70&#45;&gt;Entity69</title>
<path fill="none" stroke="black" d="M7463.08,-33.57C7407.45,-81.74 7241.08,-225.81 7174.94,-283.08"/>
<polygon fill="black" stroke="black" points="7172.29,-280.74 7167.02,-289.94 7176.87,-286.04 7172.29,-280.74"/>
<text text-anchor="start" x="7256.01" y="-162.12" font-family="Times New Roman,serif" font-size="14.00">worked for</text>
</g>
<!-- Entity69&#45;&gt;Entity115 -->
<g id="edge63" class="edge verb">
<title>Entity69&#45;&gt;Entity115</title>
<path fill="none" stroke="black" d="M7127.87,-324.06C7064.86,-379.32 6866.84,-552.99 6795.47,-615.58"/>
<polygon fill="black" stroke="black" points="6793.01,-613.08 6787.8,-622.3 6797.63,-618.34 6793.01,-613.08"/>
<text text-anchor="start" x="6900.67" y="-473.62" font-family="Times New Roman,serif" font-size="14.00">member of</text>
</g>
<!-- Entity68 -->
<g id="node20" class="node entity">
<title>Entity68</title>
<ellipse fill="none" stroke="black" cx="2547.91" cy="-3155.13" rx="37.89" ry="18"/>
<text text-anchor="start" x="2526.91" y="-3151.43" font-family="Times New Roman,serif" font-size="14.00">hunt oil</text>
</g>
<!-- Entity67 -->
<g id="node21" class="node entity">
<title>Entity67</title>
<ellipse fill="none" stroke="black" cx="2708.07" cy="-3627.63" rx="77.99" ry="18"/>
<text text-anchor="start" x="2656.07" y="-3623.93" font-family="Times New Roman,serif" font-size="14.00">dwight eisenhower</text>
</g>
<!-- Entity68&#45;&gt;Entity67 -->
<g id="edge15" class="edge verb">
<title>Entity68&#45;&gt;Entity67</title>
<path fill="none" stroke="black" d="M2553.99,-3173.08C2578.37,-3245 2669.11,-3512.7 2698.68,-3599.95"/>
<polygon fill="black" stroke="black" points="2695.45,-3601.32 2701.98,-3609.67 2702.08,-3599.07 2695.45,-3601.32"/>
<text text-anchor="start" x="2586.34" y="-3390.31" font-family="Times New Roman,serif" font-size="14.00">funded</text>
</g>
<!-- Entity67&#45;&gt;Entity77 -->
<g id="edge33" class="edge verb">
<title>Entity67&#45;&gt;Entity77</title>
<path fill="none" stroke="black" d="M2717.95,-3645.73C2760.24,-3723.17 2926.05,-4026.78 2976.1,-4118.43"/>
<polygon fill="black" stroke="black" points="2973.1,-4120.25 2980.97,-4127.35 2979.25,-4116.89 2973.1,-4120.25"/>
<text text-anchor="start" x="2828.03" y="-3885.88" font-family="Times New Roman,serif" font-size="14.00">is a</text>
</g>
<!-- Entity58 -->
<g id="node22" class="node entity">
<title>Entity58</title>
<ellipse fill="none" stroke="black" cx="6209.62" cy="-932.88" rx="46.29" ry="18"/>
<text text-anchor="start" x="6182.12" y="-929.18" font-family="Times New Roman,serif" font-size="14.00">van braun</text>
</g>
<!-- Entity35 -->
<g id="node23" class="node entity">
<title>Entity35</title>
<ellipse fill="none" stroke="black" cx="5920.53" cy="-1333.11" rx="74.99" ry="18"/>
<text text-anchor="start" x="5871.03" y="-1329.41" font-family="Times New Roman,serif" font-size="14.00">walter dornberger</text>
</g>
<!-- Entity58&#45;&gt;Entity35 -->
<g id="edge16" class="edge verb">
<title>Entity58&#45;&gt;Entity35</title>
<path fill="none" stroke="black" d="M6197.01,-950.34C6151.38,-1013.52 5994.61,-1230.55 5939.71,-1306.56"/>
<polygon fill="black" stroke="black" points="5936.55,-1304.95 5933.53,-1315.11 5942.22,-1309.05 5936.55,-1304.95"/>
<text text-anchor="start" x="6005.36" y="-1132.25" font-family="Times New Roman,serif" font-size="14.00">worked for</text>
</g>
<!-- Entity100 -->
<g id="node38" class="node entity">
<title>Entity100</title>
<ellipse fill="none" stroke="black" cx="6561.56" cy="-1304.16" rx="90.98" ry="18"/>
<text text-anchor="start" x="6499.56" y="-1300.46" font-family="Times New Roman,serif" font-size="14.00">nsdap rocket program</text>
</g>
<!-- Entity58&#45;&gt;Entity100 -->
<g id="edge51" class="edge verb">
<title>Entity58&#45;&gt;Entity100</title>
<path fill="none" stroke="black" d="M6225.66,-949.8C6281.85,-1009.09 6470.08,-1207.66 6537.38,-1278.66"/>
<polygon fill="black" stroke="black" points="6535.19,-1281.43 6544.61,-1286.28 6540.27,-1276.62 6535.19,-1281.43"/>
<text text-anchor="start" x="6325.52" y="-1118.03" font-family="Times New Roman,serif" font-size="14.00">worked at</text>
</g>
<!-- Entity35&#45;&gt;Entity71 -->
<g id="edge52" class="edge verb">
<title>Entity35&#45;&gt;Entity71</title>
<path fill="none" stroke="black" d="M5944.81,-1315.84C6031.41,-1254.25 6324.85,-1045.55 6417.54,-979.62"/>
<polygon fill="black" stroke="black" points="6419.75,-982.35 6425.87,-973.7 6415.69,-976.64 6419.75,-982.35"/>
<text text-anchor="start" x="6120.18" y="-1151.53" font-family="Times New Roman,serif" font-size="14.00">member of</text>
</g>
<!-- Entity35&#45;&gt;Entity76 -->
<g id="edge25" class="edge verb">
<title>Entity35&#45;&gt;Entity76</title>
<path fill="none" stroke="black" d="M5891.03,-1349.68C5787.31,-1414.93 5440.41,-1653.08 5338.99,-1728.61"/>
<polygon fill="black" stroke="black" points="5336.65,-1725.99 5330.76,-1734.79 5340.86,-1731.58 5336.65,-1725.99"/>
<text text-anchor="start" x="5559.01" y="-1542.95" font-family="Times New Roman,serif" font-size="14.00">worked at</text>
</g>
<!-- Entity35&#45;&gt;Entity76 -->
<g id="edge32" class="edge verb">
<title>Entity35&#45;&gt;Entity76</title>
<path fill="none" stroke="black" d="M5900.02,-1350.5C5811.5,-1417.52 5461.96,-1657.77 5347.45,-1730.65"/>
<polygon fill="black" stroke="black" points="5345.57,-1727.7 5338.99,-1736 5349.31,-1733.61 5345.57,-1727.7"/>
<text text-anchor="start" x="5623.74" y="-1544.38" font-family="Times New Roman,serif" font-size="14.00">vice&#45;president</text>
</g>
<!-- Entity35&#45;&gt;Entity100 -->
<g id="edge34" class="edge verb">
<title>Entity35&#45;&gt;Entity100</title>
<path fill="none" stroke="black" d="M5994.06,-1329.79C6109.41,-1324.58 6333.05,-1314.48 6462.47,-1308.64"/>
<polygon fill="black" stroke="black" points="6462.94,-1312.12 6472.77,-1308.17 6462.63,-1305.13 6462.94,-1312.12"/>
<text text-anchor="start" x="6187.27" y="-1323.01" font-family="Times New Roman,serif" font-size="14.00">created</text>
</g>
<!-- Entity99 -->
<g id="node42" class="node entity">
<title>Entity99</title>
<ellipse fill="none" stroke="black" cx="5863.48" cy="-1225.11" rx="65.79" ry="18"/>
<text text-anchor="start" x="5820.98" y="-1221.41" font-family="Times New Roman,serif" font-size="14.00">x series aircraft</text>
</g>
<!-- Entity35&#45;&gt;Entity99 -->
<g id="edge39" class="edge verb">
<title>Entity35&#45;&gt;Entity99</title>
<path fill="none" stroke="black" d="M5910.85,-1314.79C5901.78,-1297.62 5888.11,-1271.73 5877.78,-1252.18"/>
<polygon fill="black" stroke="black" points="5880.78,-1250.37 5873.02,-1243.16 5874.59,-1253.64 5880.78,-1250.37"/>
<text text-anchor="start" x="5853.32" y="-1287.28" font-family="Times New Roman,serif" font-size="14.00">created</text>
</g>
<!-- Entity72 -->
<g id="node24" class="node entity">
<title>Entity72</title>
<ellipse fill="none" stroke="black" cx="3041.94" cy="-2362.66" rx="27" ry="18"/>
<text text-anchor="start" x="3038.44" y="-2358.96" font-family="Times New Roman,serif" font-size="14.00">s</text>
</g>
<!-- Entity74 -->
<g id="node25" class="node entity">
<title>Entity74</title>
<ellipse fill="none" stroke="black" cx="3129.66" cy="-2474.64" rx="27" ry="18"/>
<text text-anchor="start" x="3125.66" y="-2470.94" font-family="Times New Roman,serif" font-size="14.00">o</text>
</g>
<!-- Entity72&#45;&gt;Entity74 -->
<g id="edge17" class="edge verb">
<title>Entity72&#45;&gt;Entity74</title>
<path fill="none" stroke="black" d="M3054.51,-2378.7C3069.23,-2397.5 3093.76,-2428.82 3110.78,-2450.53"/>
<polygon fill="black" stroke="black" points="3108.19,-2452.91 3117.11,-2458.62 3113.7,-2448.59 3108.19,-2452.91"/>
<text text-anchor="start" x="3075.64" y="-2418.42" font-family="Times New Roman,serif" font-size="14.00">v</text>
</g>
<!-- Entity21 -->
<g id="node27" class="node entity">
<title>Entity21</title>
<ellipse fill="none" stroke="black" cx="3030.97" cy="-4456.87" rx="35.19" ry="18"/>
<text text-anchor="start" x="3011.97" y="-4453.17" font-family="Times New Roman,serif" font-size="14.00">obama</text>
</g>
<!-- Entity21&#45;&gt;Entity77 -->
<g id="edge19" class="edge verb">
<title>Entity21&#45;&gt;Entity77</title>
<path fill="none" stroke="black" d="M3028.62,-4438.74C3021.86,-4386.6 3002.31,-4235.94 2994.14,-4172.96"/>
<polygon fill="black" stroke="black" points="2997.6,-4172.42 2992.84,-4162.95 2990.66,-4173.32 2997.6,-4172.42"/>
<text text-anchor="start" x="2995.38" y="-4309.65" font-family="Times New Roman,serif" font-size="14.00">isa</text>
</g>
<!-- Entity32 -->
<g id="node30" class="node entity">
<title>Entity32</title>
<ellipse fill="none" stroke="black" cx="782.6" cy="-5173.33" rx="69.59" ry="18"/>
<text text-anchor="start" x="737.1" y="-5169.63" font-family="Times New Roman,serif" font-size="14.00">andrew breitbart</text>
</g>
<!-- Entity32&#45;&gt;Entity80 -->
<g id="edge21" class="edge verb">
<title>Entity32&#45;&gt;Entity80</title>
<path fill="none" stroke="black" d="M813.64,-5157.01C902.8,-5110.13 1159.6,-4975.1 1258.13,-4923.29"/>
<polygon fill="black" stroke="black" points="1259.94,-4926.29 1267.16,-4918.54 1256.68,-4920.1 1259.94,-4926.29"/>
<text text-anchor="start" x="994.88" y="-5043.95" font-family="Times New Roman,serif" font-size="14.00">created</text>
</g>
<!-- Entity43 -->
<g id="node32" class="node entity">
<title>Entity43</title>
<ellipse fill="none" stroke="black" cx="3231.87" cy="-4715.42" rx="71.49" ry="18"/>
<text text-anchor="start" x="3184.87" y="-4711.72" font-family="Times New Roman,serif" font-size="14.00">woodrow wilson</text>
</g>
<!-- Entity43&#45;&gt;Entity77 -->
<g id="edge23" class="edge verb">
<title>Entity43&#45;&gt;Entity77</title>
<path fill="none" stroke="black" d="M3224.24,-4697.4C3189.26,-4614.7 3044.02,-4271.33 3001.95,-4171.88"/>
<polygon fill="black" stroke="black" points="3005.11,-4170.36 2997.99,-4162.51 2998.66,-4173.09 3005.11,-4170.36"/>
<text text-anchor="start" x="3097.1" y="-4438.44" font-family="Times New Roman,serif" font-size="14.00">isa</text>
</g>
<!-- Entity110 -->
<g id="node53" class="node entity">
<title>Entity110</title>
<ellipse fill="none" stroke="black" cx="3373.4" cy="-5326.36" rx="71.49" ry="18"/>
<text text-anchor="start" x="3326.4" y="-5322.66" font-family="Times New Roman,serif" font-size="14.00">leauge of nations</text>
</g>
<!-- Entity43&#45;&gt;Entity110 -->
<g id="edge58" class="edge verb">
<title>Entity43&#45;&gt;Entity110</title>
<path fill="none" stroke="black" d="M3236.1,-4733.7C3256.25,-4820.65 3342.39,-5192.49 3366.88,-5298.21"/>
<polygon fill="black" stroke="black" points="3363.51,-5299.19 3369.18,-5308.14 3370.33,-5297.61 3363.51,-5299.19"/>
<text text-anchor="start" x="3260.49" y="-5019.76" font-family="Times New Roman,serif" font-size="14.00">created</text>
</g>
<!-- Entity27 -->
<g id="node34" class="node entity">
<title>Entity27</title>
<ellipse fill="none" stroke="black" cx="4528.83" cy="-2530.39" rx="63.89" ry="18"/>
<text text-anchor="start" x="4487.83" y="-2526.69" font-family="Times New Roman,serif" font-size="14.00">robert bigelow</text>
</g>
<!-- Entity27&#45;&gt;Entity3 -->
<g id="edge27" class="edge verb">
<title>Entity27&#45;&gt;Entity3</title>
<path fill="none" stroke="black" d="M4511.64,-2512.97C4453.67,-2454.22 4265.19,-2263.22 4197.19,-2194.31"/>
<polygon fill="black" stroke="black" points="4199.4,-2191.56 4189.88,-2186.9 4194.42,-2196.48 4199.4,-2191.56"/>
<text text-anchor="start" x="4322.42" y="-2357.44" font-family="Times New Roman,serif" font-size="14.00">funds</text>
</g>
<!-- Entity27&#45;&gt;Entity75 -->
<g id="edge43" class="edge verb">
<title>Entity27&#45;&gt;Entity75</title>
<path fill="none" stroke="black" d="M4500.37,-2546.51C4421.76,-2591.04 4201.56,-2715.79 4112.26,-2766.39"/>
<polygon fill="black" stroke="black" points="4110.51,-2763.36 4103.54,-2771.33 4113.96,-2769.45 4110.51,-2763.36"/>
<text text-anchor="start" x="4242.32" y="-2660.25" font-family="Times New Roman,serif" font-size="14.00">investigates</text>
</g>
<!-- Entity48 -->
<g id="node39" class="node entity">
<title>Entity48</title>
<ellipse fill="none" stroke="black" cx="711.36" cy="-2925.38" rx="58.49" ry="18"/>
<text text-anchor="start" x="674.36" y="-2921.68" font-family="Times New Roman,serif" font-size="14.00">rudolf steiner</text>
</g>
<!-- Entity48&#45;&gt;Entity96 -->
<g id="edge35" class="edge verb">
<title>Entity48&#45;&gt;Entity96</title>
<path fill="none" stroke="black" d="M748.31,-2939.53C854.33,-2980.15 1159.72,-3097.14 1281.08,-3143.64"/>
<polygon fill="black" stroke="black" points="1279.94,-3146.95 1290.53,-3147.26 1282.44,-3140.41 1279.94,-3146.95"/>
<text text-anchor="start" x="948.69" y="-3045.38" font-family="Times New Roman,serif" font-size="14.00">memberr of</text>
</g>
<!-- Entity109 -->
<g id="node54" class="node entity">
<title>Entity109</title>
<ellipse fill="none" stroke="black" cx="101.59" cy="-2687.78" rx="102.08" ry="18"/>
<text text-anchor="start" x="31.09" y="-2684.08" font-family="Times New Roman,serif" font-size="14.00">anthroposophical society</text>
</g>
<!-- Entity48&#45;&gt;Entity109 -->
<g id="edge59" class="edge verb">
<title>Entity48&#45;&gt;Entity109</title>
<path fill="none" stroke="black" d="M675.05,-2911.23C571.45,-2870.86 274.22,-2755.04 153.5,-2708"/>
<polygon fill="black" stroke="black" points="154.67,-2704.7 144.09,-2704.33 152.13,-2711.22 154.67,-2704.7"/>
<text text-anchor="start" x="373.27" y="-2813.41" font-family="Times New Roman,serif" font-size="14.00">created</text>
</g>
<!-- Entity18 -->
<g id="node40" class="node entity">
<title>Entity18</title>
<ellipse fill="none" stroke="black" cx="2914.98" cy="-4581.33" rx="58.49" ry="18"/>
<text text-anchor="start" x="2877.98" y="-4577.63" font-family="Times New Roman,serif" font-size="14.00">richard nixon</text>
</g>
<!-- Entity18&#45;&gt;Entity77 -->
<g id="edge36" class="edge verb">
<title>Entity18&#45;&gt;Entity77</title>
<path fill="none" stroke="black" d="M2918.13,-4563.12C2929.89,-4495.1 2971.33,-4255.52 2985.61,-4172.98"/>
<polygon fill="black" stroke="black" points="2989.07,-4173.5 2987.32,-4163.05 2982.17,-4172.31 2989.07,-4173.5"/>
<text text-anchor="start" x="2935.87" y="-4371.85" font-family="Times New Roman,serif" font-size="14.00">isa</text>
</g>
<!-- Entity17 -->
<g id="node41" class="node entity">
<title>Entity17</title>
<ellipse fill="none" stroke="black" cx="2603.97" cy="-4473.31" rx="56.59" ry="18"/>
<text text-anchor="start" x="2568.47" y="-4469.61" font-family="Times New Roman,serif" font-size="14.00">harry truman</text>
</g>
<!-- Entity17&#45;&gt;Entity77 -->
<g id="edge37" class="edge verb">
<title>Entity17&#45;&gt;Entity77</title>
<path fill="none" stroke="black" d="M2623.93,-4456.34C2688.68,-4401.3 2892.81,-4227.8 2964.93,-4166.49"/>
<polygon fill="black" stroke="black" points="2967.32,-4169.06 2972.67,-4159.92 2962.78,-4163.73 2967.32,-4169.06"/>
<text text-anchor="start" x="2778.43" y="-4315.21" font-family="Times New Roman,serif" font-size="14.00">isa</text>
</g>
<!-- Entity116 -->
<g id="node59" class="node entity">
<title>Entity116</title>
<ellipse fill="none" stroke="black" cx="2508.25" cy="-4974.7" rx="55.79" ry="18"/>
<text text-anchor="start" x="2473.25" y="-4971" font-family="Times New Roman,serif" font-size="14.00">freemasonry</text>
</g>
<!-- Entity17&#45;&gt;Entity116 -->
<g id="edge65" class="edge verb">
<title>Entity17&#45;&gt;Entity116</title>
<path fill="none" stroke="black" d="M2600.5,-4491.45C2586.13,-4566.77 2531.07,-4855.16 2513.61,-4946.67"/>
<polygon fill="black" stroke="black" points="2510.15,-4946.11 2511.71,-4956.59 2517.03,-4947.42 2510.15,-4946.11"/>
<text text-anchor="start" x="2496.06" y="-4722.86" font-family="Times New Roman,serif" font-size="14.00">member of</text>
</g>
<!-- Entity23 -->
<g id="node43" class="node entity">
<title>Entity23</title>
<ellipse fill="none" stroke="black" cx="3353.37" cy="-3987.16" rx="31.4" ry="18"/>
<text text-anchor="start" x="3337.37" y="-3983.46" font-family="Times New Roman,serif" font-size="14.00">carter</text>
</g>
<!-- Entity23&#45;&gt;Entity77 -->
<g id="edge41" class="edge verb">
<title>Entity23&#45;&gt;Entity77</title>
<path fill="none" stroke="black" d="M3328.43,-3998C3264.98,-4025.55 3097.36,-4098.36 3024.78,-4129.88"/>
<polygon fill="black" stroke="black" points="3023.38,-4126.67 3015.6,-4133.86 3026.17,-4133.09 3023.38,-4126.67"/>
<text text-anchor="start" x="3160.6" y="-4067.74" font-family="Times New Roman,serif" font-size="14.00">isa</text>
</g>
<!-- Entity23&#45;&gt;Entity108 -->
<g id="edge57" class="edge verb">
<title>Entity23&#45;&gt;Entity108</title>
<path fill="none" stroke="black" d="M3367.2,-3970.75C3406.57,-3924.03 3519.38,-3790.15 3565.51,-3735.41"/>
<polygon fill="black" stroke="black" points="3568.3,-3737.53 3572.07,-3727.62 3562.95,-3733.02 3568.3,-3737.53"/>
<text text-anchor="start" x="3411.35" y="-3856.88" font-family="Times New Roman,serif" font-size="14.00">witnessed</text>
</g>
<!-- Entity50 -->
<g id="node44" class="node entity">
<title>Entity50</title>
<ellipse fill="none" stroke="black" cx="1528.31" cy="-3271.03" rx="73.39" ry="18"/>
<text text-anchor="start" x="1479.81" y="-3267.33" font-family="Times New Roman,serif" font-size="14.00">madam blavatsky</text>
</g>
<!-- Entity50&#45;&gt;Entity96 -->
<g id="edge44" class="edge verb">
<title>Entity50&#45;&gt;Entity96</title>
<path fill="none" stroke="black" d="M1498.02,-3254.39C1464.05,-3235.73 1408.85,-3205.41 1371.44,-3184.86"/>
<polygon fill="black" stroke="black" points="1372.78,-3181.61 1362.33,-3179.86 1369.41,-3187.74 1372.78,-3181.61"/>
<text text-anchor="start" x="1393.73" y="-3223.42" font-family="Times New Roman,serif" font-size="14.00">created</text>
</g>
<!-- Entity51 -->
<g id="node45" class="node entity">
<title>Entity51</title>
<ellipse fill="none" stroke="black" cx="3591.9" cy="-5151.46" rx="53.89" ry="18"/>
<text text-anchor="start" x="3558.4" y="-5147.76" font-family="Times New Roman,serif" font-size="14.00">edgar casey</text>
</g>
<!-- Entity51&#45;&gt;Entity43 -->
<g id="edge48" class="edge verb">
<title>Entity51&#45;&gt;Entity43</title>
<path fill="none" stroke="black" d="M3577.56,-5134.1C3521.91,-5066.7 3320.01,-4822.17 3253.37,-4741.46"/>
<polygon fill="black" stroke="black" points="3255.7,-4738.79 3246.64,-4733.31 3250.31,-4743.25 3255.7,-4738.79"/>
<text text-anchor="start" x="3373.47" y="-4941.58" font-family="Times New Roman,serif" font-size="14.00">advises</text>
</g>
<!-- Entity29 -->
<g id="node46" class="node entity">
<title>Entity29</title>
<ellipse fill="none" stroke="black" cx="5785.94" cy="-1441.07" rx="57.69" ry="18"/>
<text text-anchor="start" x="5749.44" y="-1437.37" font-family="Times New Roman,serif" font-size="14.00">michael pane</text>
</g>
<!-- Entity29&#45;&gt;Entity35 -->
<g id="edge50" class="edge verb">
<title>Entity29&#45;&gt;Entity35</title>
<path fill="none" stroke="black" d="M5806.97,-1424.2C5829.52,-1406.11 5865.5,-1377.25 5890.91,-1356.87"/>
<polygon fill="black" stroke="black" points="5893.14,-1359.56 5898.75,-1350.57 5888.76,-1354.1 5893.14,-1359.56"/>
<text text-anchor="start" x="5785.94" y="-1394.34" font-family="Times New Roman,serif" font-size="14.00">worked for</text>
</g>
<!-- Entity29&#45;&gt;Entity76 -->
<g id="edge49" class="edge verb">
<title>Entity29&#45;&gt;Entity76</title>
<path fill="none" stroke="black" d="M5761.08,-1457.33C5681.64,-1509.27 5433.98,-1671.22 5344.02,-1730.03"/>
<polygon fill="black" stroke="black" points="5342.03,-1727.16 5335.57,-1735.56 5345.86,-1733.01 5342.03,-1727.16"/>
<text text-anchor="start" x="5496.55" y="-1597.48" font-family="Times New Roman,serif" font-size="14.00">worked at</text>
</g>
<!-- Entity30 -->
<g id="node49" class="node entity">
<title>Entity30</title>
<ellipse fill="none" stroke="black" cx="3724.94" cy="-2362.66" rx="39.79" ry="18"/>
<text text-anchor="start" x="3702.44" y="-2358.96" font-family="Times New Roman,serif" font-size="14.00">crowley</text>
</g>
<!-- Entity106 -->
<g id="node50" class="node entity">
<title>Entity106</title>
<ellipse fill="none" stroke="black" cx="3812.66" cy="-2474.64" rx="38.99" ry="18"/>
<text text-anchor="start" x="3790.66" y="-2470.94" font-family="Times New Roman,serif" font-size="14.00">x magic</text>
</g>
<!-- Entity30&#45;&gt;Entity106 -->
<g id="edge55" class="edge verb">
<title>Entity30&#45;&gt;Entity106</title>
<path fill="none" stroke="black" d="M3738.26,-2379.67C3752.82,-2398.25 3776.28,-2428.2 3792.96,-2449.49"/>
<polygon fill="black" stroke="black" points="3790.29,-2451.76 3799.21,-2457.47 3795.8,-2447.44 3790.29,-2451.76"/>
<text text-anchor="start" x="3704.61" y="-2418.38" font-family="Times New Roman,serif" font-size="14.00">member of</text>
</g>
<!-- Entity56 -->
<g id="node56" class="node entity">
<title>Entity56</title>
<ellipse fill="none" stroke="black" cx="3403.94" cy="-3032.66" rx="53.89" ry="18"/>
<text text-anchor="start" x="3370.44" y="-3028.96" font-family="Times New Roman,serif" font-size="14.00">black magic</text>
</g>
<!-- Entity114 -->
<g id="node57" class="node entity">
<title>Entity114</title>
<ellipse fill="none" stroke="black" cx="3491.66" cy="-3144.64" rx="28.7" ry="18"/>
<text text-anchor="start" x="3477.66" y="-3140.94" font-family="Times New Roman,serif" font-size="14.00">x left</text>
</g>
<!-- Entity56&#45;&gt;Entity114 -->
<g id="edge61" class="edge verb">
<title>Entity56&#45;&gt;Entity114</title>
<path fill="none" stroke="black" d="M3417.64,-3050.16C3432.45,-3069.05 3456.14,-3099.29 3472.72,-3120.45"/>
<polygon fill="black" stroke="black" points="3469.98,-3122.64 3478.9,-3128.36 3475.49,-3118.32 3469.98,-3122.64"/>
<text text-anchor="start" x="3384.18" y="-3089.11" font-family="Times New Roman,serif" font-size="14.00">member of</text>
</g>
</g>
</svg>
