<?xml version="1.0" encoding="UTF-8" standalone="no"?>
<?xml-stylesheet href="./styles.css" type="text/css"?>
<!DOCTYPE svg PUBLIC "-//W3C//DTD SVG 1.1//EN"
 "http://www.w3.org/Graphics/SVG/1.1/DTD/svg11.dtd">
<!-- Generated by graphviz version 2.47.3 (20210619.1520)
 -->
<!-- Title: G Pages: 1 -->
<svg width="7265pt" height="3227pt"
 viewBox="0.00 0.00 7265.00 3227.00" xmlns="http://www.w3.org/2000/svg" xmlns:xlink="http://www.w3.org/1999/xlink">
<g id="graph0" class="graph" transform="scale(1 1) rotate(0) translate(4 3223)">
<title>G</title>
<polygon fill="white" stroke="transparent" points="-4,4 -4,-3223 7261,-3223 7261,4 -4,4"/>
<!-- Entity113 -->
<g id="node1" class="node entity">
<title>Entity113</title>
<ellipse fill="none" stroke="black" cx="4371" cy="-1506.47" rx="41.69" ry="18"/>
<text text-anchor="start" x="4347" y="-1502.77" font-family="Times New Roman,serif" font-size="14.00">uri geller</text>
</g>
<!-- Entity124 -->
<g id="node2" class="node entity">
<title>Entity124</title>
<ellipse fill="none" stroke="black" cx="4691.08" cy="-1562.25" rx="38.19" ry="18"/>
<text text-anchor="start" x="4669.58" y="-1558.55" font-family="Times New Roman,serif" font-size="14.00">the nine</text>
</g>
<!-- Entity113&#45;&gt;Entity124 -->
<g id="edge1" class="edge verb">
<title>Entity113&#45;&gt;Entity124</title>
<path fill="none" stroke="black" d="M4409.61,-1513.19C4468.67,-1523.49 4581.27,-1543.11 4644.68,-1554.16"/>
<polygon fill="black" stroke="black" points="4644.34,-1557.66 4654.8,-1555.93 4645.55,-1550.76 4644.34,-1557.66"/>
<text text-anchor="start" x="4423.14" y="-1537.48" font-family="Times New Roman,serif" font-size="14.00">claiemd to channel</text>
</g>
<!-- Entity181 -->
<g id="node11" class="node entity">
<title>Entity181</title>
<ellipse fill="none" stroke="black" cx="5241.38" cy="-1398.48" rx="94.48" ry="18"/>
<text text-anchor="start" x="5176.88" y="-1394.78" font-family="Times New Roman,serif" font-size="14.00">egyptian gods in a ship</text>
</g>
<!-- Entity124&#45;&gt;Entity181 -->
<g id="edge10" class="edge verb">
<title>Entity124&#45;&gt;Entity181</title>
<path fill="none" stroke="black" d="M4723.85,-1552.5C4813.56,-1525.8 5064.16,-1451.22 5180.54,-1416.59"/>
<polygon fill="black" stroke="black" points="5181.78,-1419.87 5190.37,-1413.66 5179.79,-1413.16 5181.78,-1419.87"/>
<text text-anchor="start" x="4848.2" y="-1488.34" font-family="Times New Roman,serif" font-size="14.00">claimed to channel</text>
</g>
<!-- Entity112 -->
<g id="node3" class="node entity">
<title>Entity112</title>
<ellipse fill="none" stroke="black" cx="4215.8" cy="-1807.49" rx="56.59" ry="18"/>
<text text-anchor="start" x="4180.3" y="-1803.79" font-family="Times New Roman,serif" font-size="14.00">arthur young</text>
</g>
<!-- Entity112&#45;&gt;Entity124 -->
<g id="edge7" class="edge verb">
<title>Entity112&#45;&gt;Entity124</title>
<path fill="none" stroke="black" d="M4245.53,-1792.15C4329.24,-1748.96 4566.65,-1626.45 4656.26,-1580.22"/>
<polygon fill="black" stroke="black" points="4657.92,-1583.3 4665.2,-1575.6 4654.71,-1577.08 4657.92,-1583.3"/>
<text text-anchor="start" x="4388.9" y="-1689.98" font-family="Times New Roman,serif" font-size="14.00">member&#45;of</text>
</g>
<!-- Entity178 -->
<g id="node4" class="node entity">
<title>Entity178</title>
<ellipse fill="none" stroke="black" cx="4750.88" cy="-2205.2" rx="53.89" ry="18"/>
<text text-anchor="start" x="4717.38" y="-2201.5" font-family="Times New Roman,serif" font-size="14.00">bell aviation</text>
</g>
<!-- Entity112&#45;&gt;Entity178 -->
<g id="edge2" class="edge verb">
<title>Entity112&#45;&gt;Entity178</title>
<path fill="none" stroke="black" d="M4238.11,-1824.08C4322.68,-1886.94 4623.63,-2110.63 4720.56,-2182.67"/>
<polygon fill="black" stroke="black" points="4718.65,-2185.61 4728.77,-2188.77 4722.83,-2180 4718.65,-2185.61"/>
<text text-anchor="start" x="4438.34" y="-2007.17" font-family="Times New Roman,serif" font-size="14.00">created</text>
</g>
<!-- Entity11 -->
<g id="node6" class="node entity">
<title>Entity11</title>
<ellipse fill="none" stroke="black" cx="3422.91" cy="-1583.3" rx="77.19" ry="18"/>
<text text-anchor="start" x="3371.41" y="-1579.6" font-family="Times New Roman,serif" font-size="14.00">psi&#45;consciousness</text>
</g>
<!-- Entity112&#45;&gt;Entity11 -->
<g id="edge9" class="edge verb">
<title>Entity112&#45;&gt;Entity11</title>
<path fill="none" stroke="black" d="M4173.45,-1795.52C4041.09,-1758.09 3634.94,-1643.25 3481.99,-1600.01"/>
<polygon fill="black" stroke="black" points="3482.86,-1596.62 3472.29,-1597.26 3480.96,-1603.35 3482.86,-1596.62"/>
<text text-anchor="start" x="3786.72" y="-1701.56" font-family="Times New Roman,serif" font-size="14.00">studied</text>
</g>
<!-- Entity115 -->
<g id="node5" class="node entity">
<title>Entity115</title>
<ellipse fill="none" stroke="black" cx="3948.66" cy="-1665.56" rx="68.49" ry="18"/>
<text text-anchor="start" x="3904.16" y="-1661.86" font-family="Times New Roman,serif" font-size="14.00">jeffrey mishlove</text>
</g>
<!-- Entity115&#45;&gt;Entity113 -->
<g id="edge5" class="edge verb">
<title>Entity115&#45;&gt;Entity113</title>
<path fill="none" stroke="black" d="M3988.01,-1650.73C4068,-1620.6 4248.86,-1552.47 4330.12,-1521.87"/>
<polygon fill="black" stroke="black" points="4331.39,-1525.12 4339.52,-1518.32 4328.93,-1518.57 4331.39,-1525.12"/>
<text text-anchor="start" x="4104.06" y="-1590.1" font-family="Times New Roman,serif" font-size="14.00">promoted</text>
</g>
<!-- Entity115&#45;&gt;Entity11 -->
<g id="edge3" class="edge verb">
<title>Entity115&#45;&gt;Entity11</title>
<path fill="none" stroke="black" d="M3897.94,-1653.36C3806.96,-1636.01 3615.29,-1605.74 3505.25,-1591.07"/>
<polygon fill="black" stroke="black" points="3505.56,-1587.58 3495.19,-1589.75 3504.64,-1594.52 3505.56,-1587.58"/>
<text text-anchor="start" x="3660.59" y="-1611.02" font-family="Times New Roman,serif" font-size="14.00">studied</text>
</g>
<!-- Entity115&#45;&gt;Entity11 -->
<g id="edge25" class="edge verb">
<title>Entity115&#45;&gt;Entity11</title>
<path fill="none" stroke="black" d="M3883.48,-1660.03C3782.17,-1647.06 3588.12,-1616.7 3487.3,-1598.06"/>
<polygon fill="black" stroke="black" points="3487.72,-1594.58 3477.25,-1596.19 3486.43,-1601.46 3487.72,-1594.58"/>
<text text-anchor="start" x="3621.39" y="-1632.85" font-family="Times New Roman,serif" font-size="14.00">investigates</text>
</g>
<!-- Entity114 -->
<g id="node7" class="node entity">
<title>Entity114</title>
<ellipse fill="none" stroke="black" cx="5048.33" cy="-1202.82" rx="74.99" ry="18"/>
<text text-anchor="start" x="4998.83" y="-1199.12" font-family="Times New Roman,serif" font-size="14.00">gene roddenberry</text>
</g>
<!-- Entity114&#45;&gt;Entity124 -->
<g id="edge4" class="edge verb">
<title>Entity114&#45;&gt;Entity124</title>
<path fill="none" stroke="black" d="M5030.62,-1220.65C4971.64,-1279.98 4781.92,-1470.85 4714.84,-1538.34"/>
<polygon fill="black" stroke="black" points="4712.22,-1536.02 4707.65,-1545.58 4717.18,-1540.95 4712.22,-1536.02"/>
<text text-anchor="start" x="4768.73" y="-1383.29" font-family="Times New Roman,serif" font-size="14.00">claiemd to channel</text>
</g>
<!-- Entity123 -->
<g id="node8" class="node entity">
<title>Entity123</title>
<ellipse fill="none" stroke="black" cx="4446.09" cy="-1398.51" rx="64.19" ry="18"/>
<text text-anchor="start" x="4404.59" y="-1394.81" font-family="Times New Roman,serif" font-size="14.00">andre puharich</text>
</g>
<!-- Entity123&#45;&gt;Entity113 -->
<g id="edge6" class="edge verb">
<title>Entity123&#45;&gt;Entity113</title>
<path fill="none" stroke="black" d="M4433.69,-1416.34C4421.5,-1433.87 4402.76,-1460.81 4388.94,-1480.67"/>
<polygon fill="black" stroke="black" points="4386,-1478.76 4383.17,-1488.97 4391.75,-1482.76 4386,-1478.76"/>
<text text-anchor="start" x="4351.31" y="-1452.31" font-family="Times New Roman,serif" font-size="14.00">sponsored</text>
</g>
<!-- Entity161 -->
<g id="node9" class="node entity">
<title>Entity161</title>
<ellipse fill="none" stroke="black" cx="1412.68" cy="-1561.68" rx="67.69" ry="18"/>
<text text-anchor="start" x="1368.68" y="-1557.98" font-family="Times New Roman,serif" font-size="14.00">abraham lincoln</text>
</g>
<!-- Entity180 -->
<g id="node10" class="node entity">
<title>Entity180</title>
<ellipse fill="none" stroke="black" cx="1395.64" cy="-927.08" rx="31.4" ry="18"/>
<text text-anchor="start" x="1379.64" y="-923.38" font-family="Times New Roman,serif" font-size="14.00">potus</text>
</g>
<!-- Entity161&#45;&gt;Entity180 -->
<g id="edge8" class="edge verb">
<title>Entity161&#45;&gt;Entity180</title>
<path fill="none" stroke="black" d="M1412.19,-1543.37C1409.79,-1454.08 1399.32,-1064.13 1396.4,-955.35"/>
<polygon fill="black" stroke="black" points="1399.89,-955.06 1396.13,-945.16 1392.89,-955.25 1399.89,-955.06"/>
<text text-anchor="start" x="1388.29" y="-1253.16" font-family="Times New Roman,serif" font-size="14.00">isa</text>
</g>
<!-- Entity116 -->
<g id="node12" class="node entity">
<title>Entity116</title>
<ellipse fill="none" stroke="black" cx="1086.51" cy="-490.96" rx="56.59" ry="18"/>
<text text-anchor="start" x="1051.01" y="-487.26" font-family="Times New Roman,serif" font-size="14.00">harry truman</text>
</g>
<!-- Entity116&#45;&gt;Entity180 -->
<g id="edge12" class="edge verb">
<title>Entity116&#45;&gt;Entity180</title>
<path fill="none" stroke="black" d="M1099.01,-508.6C1147.19,-576.57 1320.98,-821.76 1377.64,-901.69"/>
<polygon fill="black" stroke="black" points="1375.02,-904.04 1383.66,-910.18 1380.73,-900 1375.02,-904.04"/>
<text text-anchor="start" x="1222.32" y="-708.94" font-family="Times New Roman,serif" font-size="14.00">isa</text>
</g>
<!-- Entity179 -->
<g id="node13" class="node entity">
<title>Entity179</title>
<ellipse fill="none" stroke="black" cx="861.63" cy="-81.55" rx="34.39" ry="18"/>
<text text-anchor="start" x="843.13" y="-77.85" font-family="Times New Roman,serif" font-size="14.00">mason</text>
</g>
<!-- Entity116&#45;&gt;Entity179 -->
<g id="edge11" class="edge verb">
<title>Entity116&#45;&gt;Entity179</title>
<path fill="none" stroke="black" d="M1076.7,-473.11C1041.11,-408.31 918.64,-185.34 876.22,-108.13"/>
<polygon fill="black" stroke="black" points="879.12,-106.12 871.23,-99.04 872.98,-109.49 879.12,-106.12"/>
<text text-anchor="start" x="960.46" y="-294.42" font-family="Times New Roman,serif" font-size="14.00">isa</text>
</g>
<!-- Entity125 -->
<g id="node14" class="node entity">
<title>Entity125</title>
<ellipse fill="none" stroke="black" cx="1203.32" cy="-683.69" rx="27" ry="18"/>
<text text-anchor="start" x="1195.82" y="-679.99" font-family="Times New Roman,serif" font-size="14.00">jfk</text>
</g>
<!-- Entity125&#45;&gt;Entity180 -->
<g id="edge13" class="edge verb">
<title>Entity125&#45;&gt;Entity180</title>
<path fill="none" stroke="black" d="M1215.94,-699.66C1248.72,-741.15 1336.77,-852.58 1376.14,-902.41"/>
<polygon fill="black" stroke="black" points="1373.52,-904.74 1382.47,-910.41 1379.01,-900.4 1373.52,-904.74"/>
<text text-anchor="start" x="1280.04" y="-804.83" font-family="Times New Roman,serif" font-size="14.00">isa</text>
</g>
<!-- Entity132 -->
<g id="node15" class="node entity">
<title>Entity132</title>
<ellipse fill="none" stroke="black" cx="1502.66" cy="-1414.28" rx="59.59" ry="18"/>
<text text-anchor="start" x="1464.66" y="-1410.58" font-family="Times New Roman,serif" font-size="14.00">donald trump</text>
</g>
<!-- Entity132&#45;&gt;Entity180 -->
<g id="edge14" class="edge verb">
<title>Entity132&#45;&gt;Entity180</title>
<path fill="none" stroke="black" d="M1498.66,-1396.07C1482.43,-1322.2 1421.45,-1044.58 1401.79,-955.08"/>
<polygon fill="black" stroke="black" points="1405.17,-954.14 1399.6,-945.13 1398.33,-955.64 1405.17,-954.14"/>
<text text-anchor="start" x="1434.22" y="-1179.38" font-family="Times New Roman,serif" font-size="14.00">isa</text>
</g>
<!-- Entity154 -->
<g id="node39" class="node entity">
<title>Entity154</title>
<ellipse fill="none" stroke="black" cx="2185.09" cy="-1390.98" rx="50.09" ry="18"/>
<text text-anchor="start" x="2154.59" y="-1387.28" font-family="Times New Roman,serif" font-size="14.00">john trump</text>
</g>
<!-- Entity132&#45;&gt;Entity154 -->
<g id="edge41" class="edge verb">
<title>Entity132&#45;&gt;Entity154</title>
<path fill="none" stroke="black" d="M1562.32,-1412.24C1691.33,-1407.84 1995.04,-1397.47 2124.7,-1393.04"/>
<polygon fill="black" stroke="black" points="2124.97,-1396.53 2134.84,-1392.69 2124.73,-1389.54 2124.97,-1396.53"/>
<text text-anchor="start" x="1784.51" y="-1406.44" font-family="Times New Roman,serif" font-size="14.00">nephew of</text>
</g>
<!-- Entity126 -->
<g id="node16" class="node entity">
<title>Entity126</title>
<ellipse fill="none" stroke="black" cx="1760.71" cy="-701.33" rx="58.49" ry="18"/>
<text text-anchor="start" x="1723.71" y="-697.63" font-family="Times New Roman,serif" font-size="14.00">richard nixon</text>
</g>
<!-- Entity126&#45;&gt;Entity180 -->
<g id="edge15" class="edge verb">
<title>Entity126&#45;&gt;Entity180</title>
<path fill="none" stroke="black" d="M1734.45,-717.56C1668.42,-758.4 1495.75,-865.18 1425.76,-908.46"/>
<polygon fill="black" stroke="black" points="1423.63,-905.66 1416.97,-913.89 1427.32,-911.61 1423.63,-905.66"/>
<text text-anchor="start" x="1564.11" y="-816.81" font-family="Times New Roman,serif" font-size="14.00">isa</text>
</g>
<!-- Entity138 -->
<g id="node17" class="node entity">
<title>Entity138</title>
<ellipse fill="none" stroke="black" cx="941.42" cy="-881.32" rx="63.89" ry="18"/>
<text text-anchor="start" x="900.42" y="-877.62" font-family="Times New Roman,serif" font-size="14.00">george w bush</text>
</g>
<!-- Entity138&#45;&gt;Entity180 -->
<g id="edge16" class="edge verb">
<title>Entity138&#45;&gt;Entity180</title>
<path fill="none" stroke="black" d="M1001.74,-887.4C1095.62,-896.86 1274.25,-914.85 1354.64,-922.95"/>
<polygon fill="black" stroke="black" points="1354.55,-926.46 1364.85,-923.98 1355.25,-919.5 1354.55,-926.46"/>
<text text-anchor="start" x="1162.19" y="-908.98" font-family="Times New Roman,serif" font-size="14.00">isa</text>
</g>
<!-- Entity131 -->
<g id="node18" class="node entity">
<title>Entity131</title>
<ellipse fill="none" stroke="black" cx="1378.14" cy="-819" rx="68.49" ry="18"/>
<text text-anchor="start" x="1333.64" y="-815.3" font-family="Times New Roman,serif" font-size="14.00">george hw bush</text>
</g>
<!-- Entity131&#45;&gt;Entity180 -->
<g id="edge17" class="edge verb">
<title>Entity131&#45;&gt;Entity180</title>
<path fill="none" stroke="black" d="M1381.11,-837.34C1383.84,-854.21 1387.93,-879.48 1391.08,-898.92"/>
<polygon fill="black" stroke="black" points="1387.66,-899.71 1392.72,-909.02 1394.57,-898.59 1387.66,-899.71"/>
<text text-anchor="start" x="1370.1" y="-871.93" font-family="Times New Roman,serif" font-size="14.00">isa</text>
</g>
<!-- Entity127 -->
<g id="node19" class="node entity">
<title>Entity127</title>
<ellipse fill="none" stroke="black" cx="1872.14" cy="-1057.8" rx="31.4" ry="18"/>
<text text-anchor="start" x="1856.14" y="-1054.1" font-family="Times New Roman,serif" font-size="14.00">carter</text>
</g>
<!-- Entity127&#45;&gt;Entity180 -->
<g id="edge18" class="edge verb">
<title>Entity127&#45;&gt;Entity180</title>
<path fill="none" stroke="black" d="M1843.76,-1050.01C1762.07,-1027.6 1526.32,-962.93 1433.67,-937.52"/>
<polygon fill="black" stroke="black" points="1434.44,-934.1 1423.87,-934.83 1432.59,-940.85 1434.44,-934.1"/>
<text text-anchor="start" x="1622.71" y="-997.56" font-family="Times New Roman,serif" font-size="14.00">isa</text>
</g>
<!-- Entity184 -->
<g id="node23" class="node entity">
<title>Entity184</title>
<ellipse fill="none" stroke="black" cx="2315.41" cy="-1211.56" rx="27" ry="18"/>
<text text-anchor="start" x="2305.91" y="-1207.86" font-family="Times New Roman,serif" font-size="14.00">ufo</text>
</g>
<!-- Entity127&#45;&gt;Entity184 -->
<g id="edge22" class="edge verb">
<title>Entity127&#45;&gt;Entity184</title>
<path fill="none" stroke="black" d="M1899.2,-1067.18C1976.33,-1093.94 2197.14,-1170.53 2281.81,-1199.9"/>
<polygon fill="black" stroke="black" points="2280.84,-1203.27 2291.44,-1203.24 2283.14,-1196.66 2280.84,-1203.27"/>
<text text-anchor="start" x="2035.5" y="-1137.34" font-family="Times New Roman,serif" font-size="14.00">witnessed</text>
</g>
<!-- Entity130 -->
<g id="node20" class="node entity">
<title>Entity130</title>
<ellipse fill="none" stroke="black" cx="1357.67" cy="-382.58" rx="35.19" ry="18"/>
<text text-anchor="start" x="1338.67" y="-378.88" font-family="Times New Roman,serif" font-size="14.00">obama</text>
</g>
<!-- Entity130&#45;&gt;Entity180 -->
<g id="edge19" class="edge verb">
<title>Entity130&#45;&gt;Entity180</title>
<path fill="none" stroke="black" d="M1358.94,-400.69C1364.51,-480.55 1386.88,-801.5 1393.68,-898.91"/>
<polygon fill="black" stroke="black" points="1390.18,-899.17 1394.37,-908.9 1397.17,-898.68 1390.18,-899.17"/>
<text text-anchor="start" x="1360.31" y="-653.6" font-family="Times New Roman,serif" font-size="14.00">isa</text>
</g>
<!-- Entity128 -->
<g id="node21" class="node entity">
<title>Entity128</title>
<ellipse fill="none" stroke="black" cx="2716.05" cy="-1403.68" rx="27" ry="18"/>
<text text-anchor="start" x="2708.05" y="-1399.98" font-family="Times New Roman,serif" font-size="14.00">cia</text>
</g>
<!-- Entity128&#45;&gt;Entity11 -->
<g id="edge20" class="edge verb">
<title>Entity128&#45;&gt;Entity11</title>
<path fill="none" stroke="black" d="M2741.62,-1410.18C2842.21,-1435.74 3212.37,-1529.8 3360.77,-1567.51"/>
<polygon fill="black" stroke="black" points="3360.09,-1570.95 3370.64,-1570.02 3361.81,-1564.16 3360.09,-1570.95"/>
<text text-anchor="start" x="2987.19" y="-1492.65" font-family="Times New Roman,serif" font-size="14.00">investigates</text>
</g>
<!-- Entity128&#45;&gt;Entity184 -->
<g id="edge26" class="edge verb">
<title>Entity128&#45;&gt;Entity184</title>
<path fill="none" stroke="black" d="M2693.93,-1393.08C2626.76,-1360.87 2424.91,-1264.07 2346.78,-1226.6"/>
<polygon fill="black" stroke="black" points="2347.98,-1223.29 2337.45,-1222.13 2344.95,-1229.61 2347.98,-1223.29"/>
<text text-anchor="start" x="2456.36" y="-1313.64" font-family="Times New Roman,serif" font-size="14.00">investigates</text>
</g>
<!-- Entity134 -->
<g id="node22" class="node entity">
<title>Entity134</title>
<ellipse fill="none" stroke="black" cx="3854.93" cy="-1773.61" rx="63.89" ry="18"/>
<text text-anchor="start" x="3813.93" y="-1769.91" font-family="Times New Roman,serif" font-size="14.00">robert bigelow</text>
</g>
<!-- Entity134&#45;&gt;Entity115 -->
<g id="edge23" class="edge verb">
<title>Entity134&#45;&gt;Entity115</title>
<path fill="none" stroke="black" d="M3870.4,-1755.77C3885.67,-1738.17 3909.15,-1711.1 3926.41,-1691.2"/>
<polygon fill="black" stroke="black" points="3929.25,-1693.27 3933.16,-1683.43 3923.96,-1688.69 3929.25,-1693.27"/>
<text text-anchor="start" x="3866.41" y="-1727.28" font-family="Times New Roman,serif" font-size="14.00">funds</text>
</g>
<!-- Entity134&#45;&gt;Entity11 -->
<g id="edge21" class="edge verb">
<title>Entity134&#45;&gt;Entity11</title>
<path fill="none" stroke="black" d="M3820.3,-1758.36C3742.82,-1724.22 3555.43,-1641.68 3468.55,-1603.41"/>
<polygon fill="black" stroke="black" points="3469.78,-1600.12 3459.22,-1599.29 3466.96,-1606.53 3469.78,-1600.12"/>
<text text-anchor="start" x="3580.43" y="-1684.68" font-family="Times New Roman,serif" font-size="14.00">investigates</text>
</g>
<!-- Entity139 -->
<g id="node24" class="node entity">
<title>Entity139</title>
<ellipse fill="none" stroke="black" cx="1579.29" cy="-593.32" rx="71.49" ry="18"/>
<text text-anchor="start" x="1532.29" y="-589.62" font-family="Times New Roman,serif" font-size="14.00">woodrow wilson</text>
</g>
<!-- Entity139&#45;&gt;Entity180 -->
<g id="edge24" class="edge verb">
<title>Entity139&#45;&gt;Entity180</title>
<path fill="none" stroke="black" d="M1569.42,-611.26C1538.88,-666.76 1445.88,-835.77 1409.99,-901.01"/>
<polygon fill="black" stroke="black" points="1406.87,-899.41 1405.12,-909.86 1413.01,-902.78 1406.87,-899.41"/>
<text text-anchor="start" x="1473.7" y="-759.94" font-family="Times New Roman,serif" font-size="14.00">isa</text>
</g>
<!-- Entity189 -->
<g id="node28" class="node entity">
<title>Entity189</title>
<ellipse fill="none" stroke="black" cx="1961.98" cy="-354.1" rx="71.49" ry="18"/>
<text text-anchor="start" x="1914.98" y="-350.4" font-family="Times New Roman,serif" font-size="14.00">leauge of nations</text>
</g>
<!-- Entity139&#45;&gt;Entity189 -->
<g id="edge29" class="edge verb">
<title>Entity139&#45;&gt;Entity189</title>
<path fill="none" stroke="black" d="M1606.2,-576.5C1673.73,-534.29 1850.33,-423.89 1926.35,-376.38"/>
<polygon fill="black" stroke="black" points="1928.48,-379.17 1935.1,-370.9 1924.77,-373.24 1928.48,-379.17"/>
<text text-anchor="start" x="1725.28" y="-480.24" font-family="Times New Roman,serif" font-size="14.00">created</text>
</g>
<!-- Entity145 -->
<g id="node25" class="node entity">
<title>Entity145</title>
<ellipse fill="none" stroke="black" cx="1638.31" cy="-18.38" rx="53.89" ry="18"/>
<text text-anchor="start" x="1604.81" y="-14.68" font-family="Times New Roman,serif" font-size="14.00">edgar casey</text>
</g>
<!-- Entity145&#45;&gt;Entity139 -->
<g id="edge27" class="edge verb">
<title>Entity145&#45;&gt;Entity139</title>
<path fill="none" stroke="black" d="M1636.44,-36.54C1627.92,-119.6 1592.6,-463.65 1582.19,-565.06"/>
<polygon fill="black" stroke="black" points="1578.7,-564.85 1581.16,-575.16 1585.66,-565.57 1578.7,-564.85"/>
<text text-anchor="start" x="1567.32" y="-304.6" font-family="Times New Roman,serif" font-size="14.00">advises</text>
</g>
<!-- Entity137 -->
<g id="node26" class="node entity">
<title>Entity137</title>
<ellipse fill="none" stroke="black" cx="2566.99" cy="-2389.29" rx="58.49" ry="18"/>
<text text-anchor="start" x="2529.99" y="-2385.59" font-family="Times New Roman,serif" font-size="14.00">rudolf steiner</text>
</g>
<!-- Entity269 -->
<g id="node27" class="node entity">
<title>Entity269</title>
<ellipse fill="none" stroke="black" cx="2695.31" cy="-2497.32" rx="102.08" ry="18"/>
<text text-anchor="start" x="2624.81" y="-2493.62" font-family="Times New Roman,serif" font-size="14.00">anthroposophical society</text>
</g>
<!-- Entity137&#45;&gt;Entity269 -->
<g id="edge28" class="edge verb">
<title>Entity137&#45;&gt;Entity269</title>
<path fill="none" stroke="black" d="M2587.33,-2406.41C2608.66,-2424.37 2642.37,-2452.75 2666.45,-2473.03"/>
<polygon fill="black" stroke="black" points="2664.31,-2475.8 2674.22,-2479.56 2668.82,-2470.45 2664.31,-2475.8"/>
<text text-anchor="start" x="2585.89" y="-2443.52" font-family="Times New Roman,serif" font-size="14.00">created</text>
</g>
<!-- Entity188 -->
<g id="node30" class="node entity">
<title>Entity188</title>
<ellipse fill="none" stroke="black" cx="1856.53" cy="-2292.25" rx="85.29" ry="18"/>
<text text-anchor="start" x="1799.03" y="-2288.55" font-family="Times New Roman,serif" font-size="14.00">theosophical society</text>
</g>
<!-- Entity137&#45;&gt;Entity188 -->
<g id="edge31" class="edge verb">
<title>Entity137&#45;&gt;Entity188</title>
<path fill="none" stroke="black" d="M2513.3,-2381.96C2389.87,-2365.1 2085.26,-2323.49 1938.36,-2303.43"/>
<polygon fill="black" stroke="black" points="1938.44,-2299.91 1928.06,-2302.02 1937.49,-2306.84 1938.44,-2299.91"/>
<text text-anchor="start" x="2159.83" y="-2346.49" font-family="Times New Roman,serif" font-size="14.00">memberr of</text>
</g>
<!-- Entity142 -->
<g id="node29" class="node entity">
<title>Entity142</title>
<ellipse fill="none" stroke="black" cx="2332.36" cy="-2281.2" rx="73.39" ry="18"/>
<text text-anchor="start" x="2283.86" y="-2277.5" font-family="Times New Roman,serif" font-size="14.00">madam blavatsky</text>
</g>
<!-- Entity142&#45;&gt;Entity188 -->
<g id="edge30" class="edge verb">
<title>Entity142&#45;&gt;Entity188</title>
<path fill="none" stroke="black" d="M2259.05,-2282.9C2176.47,-2284.82 2041.98,-2287.94 1951.43,-2290.05"/>
<polygon fill="black" stroke="black" points="1951.08,-2286.55 1941.17,-2290.29 1951.24,-2293.55 1951.08,-2286.55"/>
<text text-anchor="start" x="2064.24" y="-2290.27" font-family="Times New Roman,serif" font-size="14.00">created</text>
</g>
<!-- Entity140 -->
<g id="node31" class="node entity">
<title>Entity140</title>
<ellipse fill="none" stroke="black" cx="921.45" cy="-1573.4" rx="58.49" ry="18"/>
<text text-anchor="start" x="884.45" y="-1569.7" font-family="Times New Roman,serif" font-size="14.00">steve bannon</text>
</g>
<!-- Entity140&#45;&gt;Entity132 -->
<g id="edge33" class="edge verb">
<title>Entity140&#45;&gt;Entity132</title>
<path fill="none" stroke="black" d="M971.3,-1563.85C1081.99,-1537.42 1346.99,-1464.86 1455.31,-1431.33"/>
<polygon fill="black" stroke="black" points="1456.49,-1434.63 1464.99,-1428.31 1454.4,-1427.95 1456.49,-1434.63"/>
<text text-anchor="start" x="1158.31" y="-1501.39" font-family="Times New Roman,serif" font-size="14.00">promoted</text>
</g>
<!-- Entity140&#45;&gt;Entity132 -->
<g id="edge40" class="edge verb">
<title>Entity140&#45;&gt;Entity132</title>
<path fill="none" stroke="black" d="M959.09,-1559.38C1057.42,-1528.34 1322.61,-1455.49 1442.44,-1426.33"/>
<polygon fill="black" stroke="black" points="1443.29,-1429.72 1452.19,-1423.98 1441.65,-1422.92 1443.29,-1429.72"/>
<text text-anchor="start" x="1158.77" y="-1481.66" font-family="Times New Roman,serif" font-size="14.00">advises</text>
</g>
<!-- Entity265 -->
<g id="node32" class="node entity">
<title>Entity265</title>
<ellipse fill="none" stroke="black" cx="473.89" cy="-1474.35" rx="35.19" ry="18"/>
<text text-anchor="start" x="454.89" y="-1470.65" font-family="Times New Roman,serif" font-size="14.00">gurgev</text>
</g>
<!-- Entity140&#45;&gt;Entity265 -->
<g id="edge32" class="edge verb">
<title>Entity140&#45;&gt;Entity265</title>
<path fill="none" stroke="black" d="M873.56,-1562.8C785.56,-1543.32 599.54,-1502.16 516.03,-1483.68"/>
<polygon fill="black" stroke="black" points="516.65,-1480.23 506.13,-1481.49 515.14,-1487.07 516.65,-1480.23"/>
<text text-anchor="start" x="653.79" y="-1527.04" font-family="Times New Roman,serif" font-size="14.00">studied</text>
</g>
<!-- Entity270 -->
<g id="node33" class="node entity">
<title>Entity270</title>
<ellipse fill="none" stroke="black" cx="348.67" cy="-1582.39" rx="38.19" ry="18"/>
<text text-anchor="start" x="327.17" y="-1578.69" font-family="Times New Roman,serif" font-size="14.00">us navy</text>
</g>
<!-- Entity140&#45;&gt;Entity270 -->
<g id="edge34" class="edge verb">
<title>Entity140&#45;&gt;Entity270</title>
<path fill="none" stroke="black" d="M862.85,-1574.32C749.55,-1576.09 502.42,-1579.97 397.43,-1581.62"/>
<polygon fill="black" stroke="black" points="397.07,-1578.13 387.12,-1581.78 397.18,-1585.13 397.07,-1578.13"/>
<text text-anchor="start" x="569.14" y="-1581.77" font-family="Times New Roman,serif" font-size="14.00">member of</text>
</g>
<!-- Entity267 -->
<g id="node34" class="node entity">
<title>Entity267</title>
<ellipse fill="none" stroke="black" cx="507.17" cy="-2133.52" rx="53.09" ry="18"/>
<text text-anchor="start" x="474.17" y="-2129.82" font-family="Times New Roman,serif" font-size="14.00">biosphere 2</text>
</g>
<!-- Entity140&#45;&gt;Entity267 -->
<g id="edge35" class="edge verb">
<title>Entity140&#45;&gt;Entity267</title>
<path fill="none" stroke="black" d="M908.37,-1591.08C848.16,-1672.49 597.59,-2011.27 526.22,-2107.77"/>
<polygon fill="black" stroke="black" points="523.39,-2105.71 520.26,-2115.83 529.02,-2109.87 523.39,-2105.71"/>
<text text-anchor="start" x="676.3" y="-1853.23" font-family="Times New Roman,serif" font-size="14.00">created</text>
</g>
<!-- Entity268 -->
<g id="node35" class="node entity">
<title>Entity268</title>
<ellipse fill="none" stroke="black" cx="847.12" cy="-1831.18" rx="64.99" ry="18"/>
<text text-anchor="start" x="805.12" y="-1827.48" font-family="Times New Roman,serif" font-size="14.00">goldman sachs</text>
</g>
<!-- Entity140&#45;&gt;Entity268 -->
<g id="edge36" class="edge verb">
<title>Entity140&#45;&gt;Entity268</title>
<path fill="none" stroke="black" d="M916.23,-1591.52C903.43,-1635.9 870.47,-1750.21 855.16,-1803.31"/>
<polygon fill="black" stroke="black" points="851.75,-1802.49 852.34,-1813.07 858.47,-1804.43 851.75,-1802.49"/>
<text text-anchor="start" x="822.69" y="-1701.21" font-family="Times New Roman,serif" font-size="14.00">worked for</text>
</g>
<!-- Entity191 -->
<g id="node36" class="node entity">
<title>Entity191</title>
<ellipse fill="none" stroke="black" cx="598.32" cy="-1680.08" rx="61.99" ry="18"/>
<text text-anchor="start" x="558.82" y="-1676.38" font-family="Times New Roman,serif" font-size="14.00">breitbart news</text>
</g>
<!-- Entity140&#45;&gt;Entity191 -->
<g id="edge37" class="edge verb">
<title>Entity140&#45;&gt;Entity191</title>
<path fill="none" stroke="black" d="M881.51,-1586.58C822.72,-1605.99 712.95,-1642.23 648.71,-1663.44"/>
<polygon fill="black" stroke="black" points="647.59,-1660.12 639.19,-1666.58 649.78,-1666.77 647.59,-1660.12"/>
<text text-anchor="start" x="724.11" y="-1628.81" font-family="Times New Roman,serif" font-size="14.00">created</text>
</g>
<!-- Entity266 -->
<g id="node37" class="node entity">
<title>Entity266</title>
<ellipse fill="none" stroke="black" cx="76.87" cy="-1690.38" rx="77.19" ry="18"/>
<text text-anchor="start" x="25.37" y="-1686.68" font-family="Times New Roman,serif" font-size="14.00">hollywood movies</text>
</g>
<!-- Entity140&#45;&gt;Entity266 -->
<g id="edge38" class="edge verb">
<title>Entity140&#45;&gt;Entity266</title>
<path fill="none" stroke="black" d="M867.98,-1580.8C723.09,-1600.87 322.49,-1656.36 153.57,-1679.76"/>
<polygon fill="black" stroke="black" points="152.94,-1676.31 143.52,-1681.15 153.9,-1683.24 152.94,-1676.31"/>
<text text-anchor="start" x="455.78" y="-1634.08" font-family="Times New Roman,serif" font-size="14.00">produced</text>
</g>
<!-- Entity151 -->
<g id="node38" class="node entity">
<title>Entity151</title>
<ellipse fill="none" stroke="black" cx="443.4" cy="-1798.33" rx="69.59" ry="18"/>
<text text-anchor="start" x="397.9" y="-1794.63" font-family="Times New Roman,serif" font-size="14.00">andrew breitbart</text>
</g>
<!-- Entity151&#45;&gt;Entity191 -->
<g id="edge39" class="edge verb">
<title>Entity151&#45;&gt;Entity191</title>
<path fill="none" stroke="black" d="M465.93,-1781.13C492.93,-1760.52 538.28,-1725.91 568.25,-1703.03"/>
<polygon fill="black" stroke="black" points="570.44,-1705.76 576.27,-1696.91 566.19,-1700.2 570.44,-1705.76"/>
<text text-anchor="start" x="476.09" y="-1745.88" font-family="Times New Roman,serif" font-size="14.00">created</text>
</g>
<!-- Entity154&#45;&gt;Entity128 -->
<g id="edge42" class="edge verb">
<title>Entity154&#45;&gt;Entity128</title>
<path fill="none" stroke="black" d="M2235.04,-1392.17C2340.81,-1394.7 2585.31,-1400.56 2678.78,-1402.79"/>
<polygon fill="black" stroke="black" points="2678.82,-1406.29 2688.9,-1403.03 2678.99,-1399.3 2678.82,-1406.29"/>
<text text-anchor="start" x="2395.91" y="-1401.28" font-family="Times New Roman,serif" font-size="14.00">member of</text>
</g>
<!-- Entity271 -->
<g id="node40" class="node entity">
<title>Entity271</title>
<ellipse fill="none" stroke="black" cx="2550.88" cy="-1108.53" rx="50.89" ry="18"/>
<text text-anchor="start" x="2519.88" y="-1104.83" font-family="Times New Roman,serif" font-size="14.00">nikola tesla</text>
</g>
<!-- Entity154&#45;&gt;Entity271 -->
<g id="edge43" class="edge verb">
<title>Entity154&#45;&gt;Entity271</title>
<path fill="none" stroke="black" d="M2206.34,-1374.57C2268.46,-1326.6 2449.9,-1186.51 2521.42,-1131.29"/>
<polygon fill="black" stroke="black" points="2523.8,-1133.87 2529.58,-1124.98 2519.52,-1128.33 2523.8,-1133.87"/>
<text text-anchor="start" x="2322.88" y="-1256.73" font-family="Times New Roman,serif" font-size="14.00">studied</text>
</g>
<!-- Entity152 -->
<g id="node41" class="node entity">
<title>Entity152</title>
<ellipse fill="none" stroke="black" cx="1420.92" cy="-1669.63" rx="90.98" ry="18"/>
<text text-anchor="start" x="1358.92" y="-1665.93" font-family="Times New Roman,serif" font-size="14.00">emma hardinge&#45;britten</text>
</g>
<!-- Entity152&#45;&gt;Entity161 -->
<g id="edge45" class="edge verb">
<title>Entity152&#45;&gt;Entity161</title>
<path fill="none" stroke="black" d="M1419.52,-1651.32C1418.24,-1634.47 1416.31,-1609.22 1414.83,-1589.81"/>
<polygon fill="black" stroke="black" points="1418.31,-1589.43 1414.06,-1579.72 1411.33,-1589.96 1418.31,-1589.43"/>
<text text-anchor="start" x="1318.18" y="-1624.37" font-family="Times New Roman,serif" font-size="14.00">spokesperson for</text>
</g>
<!-- Entity152&#45;&gt;Entity188 -->
<g id="edge44" class="edge verb">
<title>Entity152&#45;&gt;Entity188</title>
<path fill="none" stroke="black" d="M1433.49,-1687.59C1495.03,-1775.55 1764.57,-2160.82 1838,-2265.77"/>
<polygon fill="black" stroke="black" points="1835.31,-2268.03 1843.91,-2274.22 1841.05,-2264.02 1835.31,-2268.03"/>
<text text-anchor="start" x="1594.74" y="-1980.48" font-family="Times New Roman,serif" font-size="14.00">created</text>
</g>
<!-- Entity272 -->
<g id="node42" class="node entity">
<title>Entity272</title>
<ellipse fill="none" stroke="black" cx="1161.4" cy="-2180.65" rx="39.79" ry="18"/>
<text text-anchor="start" x="1138.9" y="-2176.95" font-family="Times New Roman,serif" font-size="14.00">medium</text>
</g>
<!-- Entity152&#45;&gt;Entity272 -->
<g id="edge46" class="edge verb">
<title>Entity152&#45;&gt;Entity272</title>
<path fill="none" stroke="black" d="M1411.69,-1687.82C1372.7,-1764.58 1221.48,-2062.36 1175.04,-2153.79"/>
<polygon fill="black" stroke="black" points="1171.8,-2152.45 1170.39,-2162.95 1178.04,-2155.62 1171.8,-2152.45"/>
<text text-anchor="start" x="1277.36" y="-1924.6" font-family="Times New Roman,serif" font-size="14.00">isa</text>
</g>
<!-- Entity192 -->
<g id="node43" class="node entity">
<title>Entity192</title>
<ellipse fill="none" stroke="black" cx="1362.42" cy="-2296.35" rx="55.79" ry="18"/>
<text text-anchor="start" x="1327.42" y="-2292.65" font-family="Times New Roman,serif" font-size="14.00">orphic circle</text>
</g>
<!-- Entity152&#45;&gt;Entity192 -->
<g id="edge47" class="edge verb">
<title>Entity152&#45;&gt;Entity192</title>
<path fill="none" stroke="black" d="M1419.23,-1687.71C1411.01,-1775.8 1375.14,-2160.16 1365.06,-2268.08"/>
<polygon fill="black" stroke="black" points="1361.56,-2267.91 1364.12,-2278.2 1368.53,-2268.56 1361.56,-2267.91"/>
<text text-anchor="start" x="1331.15" y="-1981.69" font-family="Times New Roman,serif" font-size="14.00">member of</text>
</g>
<!-- Entity160 -->
<g id="node44" class="node entity">
<title>Entity160</title>
<ellipse fill="none" stroke="black" cx="3651.94" cy="-1302.66" rx="53.89" ry="18"/>
<text text-anchor="start" x="3618.44" y="-1298.96" font-family="Times New Roman,serif" font-size="14.00">black magic</text>
</g>
<!-- Entity193 -->
<g id="node45" class="node entity">
<title>Entity193</title>
<ellipse fill="none" stroke="black" cx="3739.66" cy="-1414.64" rx="28.7" ry="18"/>
<text text-anchor="start" x="3725.66" y="-1410.94" font-family="Times New Roman,serif" font-size="14.00">x left</text>
</g>
<!-- Entity160&#45;&gt;Entity193 -->
<g id="edge48" class="edge verb">
<title>Entity160&#45;&gt;Entity193</title>
<path fill="none" stroke="black" d="M3665.64,-1320.16C3680.45,-1339.05 3704.14,-1369.29 3720.72,-1390.45"/>
<polygon fill="black" stroke="black" points="3717.98,-1392.64 3726.9,-1398.36 3723.49,-1388.32 3717.98,-1392.64"/>
<text text-anchor="start" x="3632.18" y="-1359.11" font-family="Times New Roman,serif" font-size="14.00">member of</text>
</g>
<!-- Entity162 -->
<g id="node46" class="node entity">
<title>Entity162</title>
<ellipse fill="none" stroke="black" cx="3380.94" cy="-2073.66" rx="39.79" ry="18"/>
<text text-anchor="start" x="3358.44" y="-2069.96" font-family="Times New Roman,serif" font-size="14.00">crowley</text>
</g>
<!-- Entity194 -->
<g id="node47" class="node entity">
<title>Entity194</title>
<ellipse fill="none" stroke="black" cx="3468.66" cy="-2185.64" rx="38.99" ry="18"/>
<text text-anchor="start" x="3446.66" y="-2181.94" font-family="Times New Roman,serif" font-size="14.00">x magic</text>
</g>
<!-- Entity162&#45;&gt;Entity194 -->
<g id="edge49" class="edge verb">
<title>Entity162&#45;&gt;Entity194</title>
<path fill="none" stroke="black" d="M3394.26,-2090.67C3408.82,-2109.25 3432.28,-2139.2 3448.96,-2160.49"/>
<polygon fill="black" stroke="black" points="3446.29,-2162.76 3455.21,-2168.47 3451.8,-2158.44 3446.29,-2162.76"/>
<text text-anchor="start" x="3360.61" y="-2129.38" font-family="Times New Roman,serif" font-size="14.00">member of</text>
</g>
<!-- Entity163 -->
<g id="node48" class="node entity">
<title>Entity163</title>
<ellipse fill="none" stroke="black" cx="5171.03" cy="-2507.77" rx="57.69" ry="18"/>
<text text-anchor="start" x="5134.53" y="-2504.07" font-family="Times New Roman,serif" font-size="14.00">michael pane</text>
</g>
<!-- Entity163&#45;&gt;Entity178 -->
<g id="edge50" class="edge verb">
<title>Entity163&#45;&gt;Entity178</title>
<path fill="none" stroke="black" d="M5147.84,-2491.07C5076.88,-2439.97 4862.62,-2285.68 4782,-2227.62"/>
<polygon fill="black" stroke="black" points="4783.9,-2224.67 4773.74,-2221.67 4779.8,-2230.35 4783.9,-2224.67"/>
<text text-anchor="start" x="4908.92" y="-2363.15" font-family="Times New Roman,serif" font-size="14.00">worked at</text>
</g>
<!-- Entity165 -->
<g id="node49" class="node entity">
<title>Entity165</title>
<ellipse fill="none" stroke="black" cx="5274.66" cy="-2615.77" rx="74.99" ry="18"/>
<text text-anchor="start" x="5225.16" y="-2612.07" font-family="Times New Roman,serif" font-size="14.00">walter dornberger</text>
</g>
<!-- Entity163&#45;&gt;Entity165 -->
<g id="edge51" class="edge verb">
<title>Entity163&#45;&gt;Entity165</title>
<path fill="none" stroke="black" d="M5187.68,-2525.12C5204.73,-2542.89 5231.39,-2570.67 5250.7,-2590.8"/>
<polygon fill="black" stroke="black" points="5248.26,-2593.31 5257.71,-2598.1 5253.31,-2588.46 5248.26,-2593.31"/>
<text text-anchor="start" x="5156.19" y="-2561.76" font-family="Times New Roman,serif" font-size="14.00">worked for</text>
</g>
<!-- Entity165&#45;&gt;Entity178 -->
<g id="edge52" class="edge verb">
<title>Entity165&#45;&gt;Entity178</title>
<path fill="none" stroke="black" d="M5256.79,-2598.24C5180.88,-2532.29 4884.99,-2300.08 4784.47,-2227.18"/>
<polygon fill="black" stroke="black" points="4786.35,-2224.22 4776.19,-2221.22 4782.26,-2229.9 4786.35,-2224.22"/>
<text text-anchor="start" x="4964.63" y="-2401.51" font-family="Times New Roman,serif" font-size="14.00">worked at</text>
</g>
<!-- Entity165&#45;&gt;Entity178 -->
<g id="edge53" class="edge verb">
<title>Entity165&#45;&gt;Entity178</title>
<path fill="none" stroke="black" d="M5247.84,-2598.67C5157.22,-2533.79 4863.54,-2303.64 4775.8,-2228.81"/>
<polygon fill="black" stroke="black" points="4778.06,-2226.13 4768.2,-2222.26 4773.5,-2231.44 4778.06,-2226.13"/>
<text text-anchor="start" x="4932.82" y="-2417.54" font-family="Times New Roman,serif" font-size="14.00">vice&#45;president</text>
</g>
<!-- Entity195 -->
<g id="node50" class="node entity">
<title>Entity195</title>
<ellipse fill="none" stroke="black" cx="4959.47" cy="-3195.63" rx="90.98" ry="18"/>
<text text-anchor="start" x="4897.47" y="-3191.93" font-family="Times New Roman,serif" font-size="14.00">nsdap rocket program</text>
</g>
<!-- Entity165&#45;&gt;Entity195 -->
<g id="edge54" class="edge verb">
<title>Entity165&#45;&gt;Entity195</title>
<path fill="none" stroke="black" d="M5264.88,-2633.76C5219.43,-2717.37 5028.75,-3068.18 4974.14,-3168.64"/>
<polygon fill="black" stroke="black" points="4970.99,-3167.11 4969.29,-3177.57 4977.14,-3170.45 4970.99,-3167.11"/>
<text text-anchor="start" x="5078.51" y="-2905" font-family="Times New Roman,serif" font-size="14.00">created</text>
</g>
<!-- Entity177 -->
<g id="node51" class="node entity">
<title>Entity177</title>
<ellipse fill="none" stroke="black" cx="5880.43" cy="-2812.55" rx="32.49" ry="18"/>
<text text-anchor="start" x="5863.43" y="-2808.85" font-family="Times New Roman,serif" font-size="14.00">nsdap</text>
</g>
<!-- Entity165&#45;&gt;Entity177 -->
<g id="edge55" class="edge verb">
<title>Entity165&#45;&gt;Entity177</title>
<path fill="none" stroke="black" d="M5319.2,-2630.24C5433.55,-2667.38 5735.93,-2765.61 5842.56,-2800.25"/>
<polygon fill="black" stroke="black" points="5841.66,-2803.64 5852.25,-2803.4 5843.82,-2796.98 5841.66,-2803.64"/>
<text text-anchor="start" x="5519.88" y="-2719.04" font-family="Times New Roman,serif" font-size="14.00">member of</text>
</g>
<!-- Entity273 -->
<g id="node53" class="node entity">
<title>Entity273</title>
<ellipse fill="none" stroke="black" cx="5626.77" cy="-3071.78" rx="65.79" ry="18"/>
<text text-anchor="start" x="5584.27" y="-3068.08" font-family="Times New Roman,serif" font-size="14.00">x series aircraft</text>
</g>
<!-- Entity165&#45;&gt;Entity273 -->
<g id="edge58" class="edge verb">
<title>Entity165&#45;&gt;Entity273</title>
<path fill="none" stroke="black" d="M5288.46,-2633.64C5342.86,-2704.1 5542.6,-2962.77 5606.77,-3045.88"/>
<polygon fill="black" stroke="black" points="5604.18,-3048.26 5613.07,-3054.03 5609.73,-3043.98 5604.18,-3048.26"/>
<text text-anchor="start" x="5406.62" y="-2843.56" font-family="Times New Roman,serif" font-size="14.00">created</text>
</g>
<!-- Entity102 -->
<g id="node59" class="node entity">
<title>Entity102</title>
<ellipse fill="none" stroke="black" cx="6323.44" cy="-2910.89" rx="38.99" ry="18"/>
<text text-anchor="start" x="6301.44" y="-2907.19" font-family="Times New Roman,serif" font-size="14.00">far right</text>
</g>
<!-- Entity177&#45;&gt;Entity102 -->
<g id="edge63" class="edge verb">
<title>Entity177&#45;&gt;Entity102</title>
<path fill="none" stroke="black" d="M5908.05,-2822.3C5981.55,-2842.71 6182.58,-2887.62 6275.36,-2904.69"/>
<polygon fill="black" stroke="black" points="6274.86,-2908.15 6285.32,-2906.48 6276.1,-2901.26 6274.86,-2908.15"/>
<text text-anchor="start" x="6036.71" y="-2867.29" font-family="Times New Roman,serif" font-size="14.00">member a</text>
</g>
<!-- Entity177&#45;&gt;Entity102 -->
<g id="edge67" class="edge verb">
<title>Entity177&#45;&gt;Entity102</title>
<path fill="none" stroke="black" d="M5912.38,-2815.89C5991.1,-2829.33 6194.31,-2874.27 6282.08,-2897.44"/>
<polygon fill="black" stroke="black" points="6281.38,-2900.87 6291.94,-2900.08 6283.19,-2894.11 6281.38,-2900.87"/>
<text text-anchor="start" x="6036.23" y="-2845.46" font-family="Times New Roman,serif" font-size="14.00">member of</text>
</g>
<!-- Entity170 -->
<g id="node52" class="node entity">
<title>Entity170</title>
<ellipse fill="none" stroke="black" cx="5036.95" cy="-3087.62" rx="46.29" ry="18"/>
<text text-anchor="start" x="5009.45" y="-3083.92" font-family="Times New Roman,serif" font-size="14.00">van braun</text>
</g>
<!-- Entity170&#45;&gt;Entity165 -->
<g id="edge56" class="edge verb">
<title>Entity170&#45;&gt;Entity165</title>
<path fill="none" stroke="black" d="M5045.98,-3069.7C5082.24,-2997.73 5217.39,-2729.45 5261,-2642.88"/>
<polygon fill="black" stroke="black" points="5264.25,-2644.21 5265.62,-2633.7 5258,-2641.06 5264.25,-2644.21"/>
<text text-anchor="start" x="5090.49" y="-2860.09" font-family="Times New Roman,serif" font-size="14.00">worked for</text>
</g>
<!-- Entity170&#45;&gt;Entity195 -->
<g id="edge57" class="edge verb">
<title>Entity170&#45;&gt;Entity195</title>
<path fill="none" stroke="black" d="M5024.5,-3104.98C5012.06,-3122.33 4992.75,-3149.23 4978.41,-3169.23"/>
<polygon fill="black" stroke="black" points="4975.39,-3167.44 4972.4,-3177.6 4981.07,-3171.52 4975.39,-3167.44"/>
<text text-anchor="start" x="4945.46" y="-3140.9" font-family="Times New Roman,serif" font-size="14.00">worked at</text>
</g>
<!-- Entity172 -->
<g id="node54" class="node entity">
<title>Entity172</title>
<ellipse fill="none" stroke="black" cx="6165.13" cy="-3089.32" rx="49.29" ry="18"/>
<text text-anchor="start" x="6135.13" y="-3085.62" font-family="Times New Roman,serif" font-size="14.00">adolf hitler</text>
</g>
<!-- Entity172&#45;&gt;Entity177 -->
<g id="edge59" class="edge verb">
<title>Entity172&#45;&gt;Entity177</title>
<path fill="none" stroke="black" d="M6147.75,-3072.42C6098.86,-3024.89 5960.08,-2889.99 5904.19,-2835.65"/>
<polygon fill="black" stroke="black" points="5906.48,-2833 5896.87,-2828.54 5901.6,-2838.02 5906.48,-2833"/>
<text text-anchor="start" x="5984.97" y="-2957.84" font-family="Times New Roman,serif" font-size="14.00">created</text>
</g>
<!-- Entity173 -->
<g id="node55" class="node entity">
<title>Entity173</title>
<ellipse fill="none" stroke="black" cx="888.41" cy="-601.02" rx="77.99" ry="18"/>
<text text-anchor="start" x="836.41" y="-597.32" font-family="Times New Roman,serif" font-size="14.00">dwight eisenhower</text>
</g>
<!-- Entity173&#45;&gt;Entity180 -->
<g id="edge60" class="edge verb">
<title>Entity173&#45;&gt;Entity180</title>
<path fill="none" stroke="black" d="M914.97,-618.09C1001.57,-673.76 1275.42,-849.8 1366.13,-908.11"/>
<polygon fill="black" stroke="black" points="1364.26,-911.08 1374.57,-913.54 1368.05,-905.19 1364.26,-911.08"/>
<text text-anchor="start" x="1121.55" y="-766.9" font-family="Times New Roman,serif" font-size="14.00">is a</text>
</g>
<!-- Entity174 -->
<g id="node56" class="node entity">
<title>Entity174</title>
<ellipse fill="none" stroke="black" cx="446.16" cy="-280.74" rx="37.89" ry="18"/>
<text text-anchor="start" x="425.16" y="-277.04" font-family="Times New Roman,serif" font-size="14.00">hunt oil</text>
</g>
<!-- Entity174&#45;&gt;Entity173 -->
<g id="edge61" class="edge verb">
<title>Entity174&#45;&gt;Entity173</title>
<path fill="none" stroke="black" d="M467.19,-295.97C538.39,-347.53 770.65,-515.74 856.3,-577.77"/>
<polygon fill="black" stroke="black" points="854.45,-580.75 864.6,-583.78 858.55,-575.08 854.45,-580.75"/>
<text text-anchor="start" x="621.75" y="-440.67" font-family="Times New Roman,serif" font-size="14.00">funded</text>
</g>
<!-- Entity175 -->
<g id="node57" class="node entity">
<title>Entity175</title>
<ellipse fill="none" stroke="black" cx="7220.79" cy="-3201.39" rx="36.29" ry="18"/>
<text text-anchor="start" x="7200.79" y="-3197.69" font-family="Times New Roman,serif" font-size="14.00">oswald</text>
</g>
<!-- Entity176 -->
<g id="node58" class="node entity">
<title>Entity176</title>
<ellipse fill="none" stroke="black" cx="6801.97" cy="-3061.73" rx="59.29" ry="18"/>
<text text-anchor="start" x="6764.47" y="-3058.03" font-family="Times New Roman,serif" font-size="14.00">guy bannister</text>
</g>
<!-- Entity175&#45;&gt;Entity176 -->
<g id="edge62" class="edge verb">
<title>Entity175&#45;&gt;Entity176</title>
<path fill="none" stroke="black" d="M7190.33,-3191.24C7118.74,-3167.36 6939.2,-3107.49 6851.6,-3078.28"/>
<polygon fill="black" stroke="black" points="6852.49,-3074.88 6841.89,-3075.04 6850.27,-3081.52 6852.49,-3074.88"/>
<text text-anchor="start" x="6957.97" y="-3138.56" font-family="Times New Roman,serif" font-size="14.00">worked for</text>
</g>
<!-- Entity176&#45;&gt;Entity102 -->
<g id="edge64" class="edge verb">
<title>Entity176&#45;&gt;Entity102</title>
<path fill="none" stroke="black" d="M6767.52,-3046.93C6682.79,-3016.17 6464.27,-2947.16 6368.99,-2920.93"/>
<polygon fill="black" stroke="black" points="6369.64,-2917.48 6359.08,-2918.24 6367.81,-2924.24 6369.64,-2917.48"/>
<text text-anchor="start" x="6513.26" y="-2972.73" font-family="Times New Roman,serif" font-size="14.00">member a</text>
</g>
<!-- Entity176&#45;&gt;Entity102 -->
<g id="edge66" class="edge verb">
<title>Entity176&#45;&gt;Entity102</title>
<path fill="none" stroke="black" d="M6753.95,-3051.01C6658.68,-3024.63 6447.57,-2957.98 6361.29,-2926.92"/>
<polygon fill="black" stroke="black" points="6362.24,-2923.54 6351.64,-2923.4 6359.84,-2930.11 6362.24,-2923.54"/>
<text text-anchor="start" x="6496.62" y="-2992.76" font-family="Times New Roman,serif" font-size="14.00">member of</text>
</g>
<!-- Entity1 -->
<g id="node60" class="node entity">
<title>Entity1</title>
<ellipse fill="none" stroke="black" cx="3110.94" cy="-1045.66" rx="27" ry="18"/>
<text text-anchor="start" x="3107.44" y="-1041.96" font-family="Times New Roman,serif" font-size="14.00">s</text>
</g>
<!-- Entity2 -->
<g id="node61" class="node entity">
<title>Entity2</title>
<ellipse fill="none" stroke="black" cx="3198.66" cy="-1157.64" rx="27" ry="18"/>
<text text-anchor="start" x="3194.66" y="-1153.94" font-family="Times New Roman,serif" font-size="14.00">o</text>
</g>
<!-- Entity1&#45;&gt;Entity2 -->
<g id="edge65" class="edge verb">
<title>Entity1&#45;&gt;Entity2</title>
<path fill="none" stroke="black" d="M3123.51,-1061.7C3138.23,-1080.5 3162.76,-1111.82 3179.78,-1133.53"/>
<polygon fill="black" stroke="black" points="3177.19,-1135.91 3186.11,-1141.62 3182.7,-1131.59 3177.19,-1135.91"/>
<text text-anchor="start" x="3144.64" y="-1101.42" font-family="Times New Roman,serif" font-size="14.00">v</text>
</g>
</g>
</svg>
