<?xml version="1.0" encoding="UTF-8" standalone="no"?>
<?xml-stylesheet href="./styles.css" type="text/css"?>
<!DOCTYPE svg PUBLIC "-//W3C//DTD SVG 1.1//EN"
 "http://www.w3.org/Graphics/SVG/1.1/DTD/svg11.dtd">
<!-- Generated by graphviz version 2.47.3 (20210619.1520)
 -->
<!-- Title: G Pages: 1 -->
<svg width="8245pt" height="4355pt"
 viewBox="0.00 0.00 8245.00 4355.00" xmlns="http://www.w3.org/2000/svg" xmlns:xlink="http://www.w3.org/1999/xlink">
<g id="graph0" class="graph" transform="scale(1 1) rotate(0) translate(4 4351)">
<title>G</title>
<polygon fill="white" stroke="transparent" points="-4,4 -4,-4351 8241,-4351 8241,4 -4,4"/>
<!-- Entity3 -->
<g id="node1" class="node entity">
<title>Entity3</title>
<ellipse fill="none" stroke="black" cx="5265.11" cy="-2841.47" rx="27" ry="18"/>
<text text-anchor="start" x="5257.61" y="-2837.77" font-family="Times New Roman,serif" font-size="14.00">jfk</text>
</g>
<!-- Entity22 -->
<g id="node2" class="node entity">
<title>Entity22</title>
<ellipse fill="none" stroke="black" cx="4927.5" cy="-2728.77" rx="27" ry="18"/>
<text text-anchor="start" x="4919.5" y="-2725.07" font-family="Times New Roman,serif" font-size="14.00">cia</text>
</g>
<!-- Entity3&#45;&gt;Entity22 -->
<g id="edge1" class="edge verb">
<title>Entity3&#45;&gt;Entity22</title>
<path fill="none" stroke="black" d="M5240.83,-2833.36C5181.72,-2813.63 5030.21,-2763.05 4961.86,-2740.24"/>
<polygon fill="black" stroke="black" points="4962.61,-2736.8 4952.01,-2736.95 4960.39,-2743.44 4962.61,-2736.8"/>
<text text-anchor="start" x="4997.34" y="-2790.6" font-family="Times New Roman,serif" font-size="14.00">heads (1961&#45;1963)</text>
</g>
<!-- Entity66 -->
<g id="node20" class="node entity">
<title>Entity66</title>
<ellipse fill="none" stroke="black" cx="5639.56" cy="-2897.36" rx="31.4" ry="18"/>
<text text-anchor="start" x="5623.56" y="-2893.66" font-family="Times New Roman,serif" font-size="14.00">potus</text>
</g>
<!-- Entity3&#45;&gt;Entity66 -->
<g id="edge23" class="edge verb">
<title>Entity3&#45;&gt;Entity66</title>
<path fill="none" stroke="black" d="M5291.74,-2845.44C5356.37,-2855.09 5521.87,-2879.79 5598.94,-2891.29"/>
<polygon fill="black" stroke="black" points="5598.8,-2894.81 5609.21,-2892.83 5599.83,-2887.89 5598.8,-2894.81"/>
<text text-anchor="start" x="5358.34" y="-2872.17" font-family="Times New Roman,serif" font-size="14.00">isa (1961&#45;1963)</text>
</g>
<!-- Entity67 -->
<g id="node25" class="node entity">
<title>Entity67</title>
<ellipse fill="none" stroke="black" cx="4185.17" cy="-2870.73" rx="77.19" ry="18"/>
<text text-anchor="start" x="4133.67" y="-2867.03" font-family="Times New Roman,serif" font-size="14.00">psi&#45;consciousness</text>
</g>
<!-- Entity22&#45;&gt;Entity67 -->
<g id="edge43" class="edge verb">
<title>Entity22&#45;&gt;Entity67</title>
<path fill="none" stroke="black" d="M4901.51,-2733.74C4798.18,-2753.5 4414.32,-2826.9 4255.08,-2857.36"/>
<polygon fill="black" stroke="black" points="4254.09,-2853.98 4244.93,-2859.3 4255.4,-2860.86 4254.09,-2853.98"/>
<text text-anchor="start" x="4514.3" y="-2799.35" font-family="Times New Roman,serif" font-size="14.00">investigates</text>
</g>
<!-- Entity90 -->
<g id="node52" class="node entity">
<title>Entity90</title>
<ellipse fill="none" stroke="black" cx="5049.58" cy="-2492.89" rx="27" ry="18"/>
<text text-anchor="start" x="5040.08" y="-2489.19" font-family="Times New Roman,serif" font-size="14.00">ufo</text>
</g>
<!-- Entity22&#45;&gt;Entity90 -->
<g id="edge62" class="edge verb">
<title>Entity22&#45;&gt;Entity90</title>
<path fill="none" stroke="black" d="M4936.47,-2711.42C4957.69,-2670.43 5011.03,-2567.37 5036.13,-2518.88"/>
<polygon fill="black" stroke="black" points="5039.26,-2520.44 5040.75,-2509.95 5033.05,-2517.22 5039.26,-2520.44"/>
<text text-anchor="start" x="4922.3" y="-2618.95" font-family="Times New Roman,serif" font-size="14.00">investigates</text>
</g>
<!-- Entity14 -->
<g id="node3" class="node entity">
<title>Entity14</title>
<ellipse fill="none" stroke="black" cx="3184.56" cy="-2400.13" rx="74.99" ry="18"/>
<text text-anchor="start" x="3135.06" y="-2396.43" font-family="Times New Roman,serif" font-size="14.00">gene roddenberry</text>
</g>
<!-- Entity8 -->
<g id="node4" class="node entity">
<title>Entity8</title>
<ellipse fill="none" stroke="black" cx="3231.22" cy="-2508.16" rx="38.19" ry="18"/>
<text text-anchor="start" x="3209.72" y="-2504.46" font-family="Times New Roman,serif" font-size="14.00">the nine</text>
</g>
<!-- Entity14&#45;&gt;Entity8 -->
<g id="edge2" class="edge verb">
<title>Entity14&#45;&gt;Entity8</title>
<path fill="none" stroke="black" d="M3192.47,-2418.45C3199.9,-2435.65 3211.11,-2461.59 3219.56,-2481.16"/>
<polygon fill="black" stroke="black" points="3216.4,-2482.67 3223.57,-2490.46 3222.82,-2479.89 3216.4,-2482.67"/>
<text text-anchor="start" x="3102.02" y="-2453.61" font-family="Times New Roman,serif" font-size="14.00">claiemd to channel</text>
</g>
<!-- Entity70 -->
<g id="node23" class="node entity">
<title>Entity70</title>
<ellipse fill="none" stroke="black" cx="2898.98" cy="-2037.19" rx="94.48" ry="18"/>
<text text-anchor="start" x="2834.48" y="-2033.49" font-family="Times New Roman,serif" font-size="14.00">egyptian gods in a ship</text>
</g>
<!-- Entity8&#45;&gt;Entity70 -->
<g id="edge16" class="edge verb">
<title>Entity8&#45;&gt;Entity70</title>
<path fill="none" stroke="black" d="M3219,-2490.84C3168.8,-2419.67 2978.2,-2149.49 2917.6,-2063.58"/>
<polygon fill="black" stroke="black" points="2920.29,-2061.33 2911.66,-2055.17 2914.57,-2065.36 2920.29,-2061.33"/>
<text text-anchor="start" x="2964.3" y="-2281.01" font-family="Times New Roman,serif" font-size="14.00">claimed to channel</text>
</g>
<!-- Entity16 -->
<g id="node5" class="node entity">
<title>Entity16</title>
<ellipse fill="none" stroke="black" cx="5001.5" cy="-2949.43" rx="68.49" ry="18"/>
<text text-anchor="start" x="4957" y="-2945.73" font-family="Times New Roman,serif" font-size="14.00">george hw bush</text>
</g>
<!-- Entity20 -->
<g id="node6" class="node entity">
<title>Entity20</title>
<ellipse fill="none" stroke="black" cx="5196.43" cy="-3057.47" rx="63.89" ry="18"/>
<text text-anchor="start" x="5155.43" y="-3053.77" font-family="Times New Roman,serif" font-size="14.00">george w bush</text>
</g>
<!-- Entity16&#45;&gt;Entity20 -->
<g id="edge3" class="edge verb">
<title>Entity16&#45;&gt;Entity20</title>
<path fill="none" stroke="black" d="M5031.1,-2965.84C5065.08,-2984.67 5120.89,-3015.6 5158.14,-3036.25"/>
<polygon fill="black" stroke="black" points="5156.74,-3039.47 5167.19,-3041.26 5160.14,-3033.35 5156.74,-3039.47"/>
<text text-anchor="start" x="5062.62" y="-3004.84" font-family="Times New Roman,serif" font-size="14.00">father</text>
</g>
<!-- Entity16&#45;&gt;Entity66 -->
<g id="edge20" class="edge verb">
<title>Entity16&#45;&gt;Entity66</title>
<path fill="none" stroke="black" d="M5066.78,-2944.1C5198.04,-2933.39 5490.54,-2909.52 5598.5,-2900.71"/>
<polygon fill="black" stroke="black" points="5598.98,-2904.18 5608.66,-2899.88 5598.41,-2897.2 5598.98,-2904.18"/>
<text text-anchor="start" x="5316.64" y="-2926.21" font-family="Times New Roman,serif" font-size="14.00">isa</text>
</g>
<!-- Entity20&#45;&gt;Entity66 -->
<g id="edge42" class="edge verb">
<title>Entity20&#45;&gt;Entity66</title>
<path fill="none" stroke="black" d="M5235.76,-3043.26C5320.94,-3012.48 5521.43,-2940.04 5603.54,-2910.37"/>
<polygon fill="black" stroke="black" points="5604.74,-2913.66 5612.95,-2906.97 5602.36,-2907.08 5604.74,-2913.66"/>
<text text-anchor="start" x="5403.65" y="-2980.62" font-family="Times New Roman,serif" font-size="14.00">isa</text>
</g>
<!-- Entity2 -->
<g id="node7" class="node entity">
<title>Entity2</title>
<ellipse fill="none" stroke="black" cx="2991.31" cy="-2535.19" rx="41.69" ry="18"/>
<text text-anchor="start" x="2967.31" y="-2531.49" font-family="Times New Roman,serif" font-size="14.00">uri geller</text>
</g>
<!-- Entity2&#45;&gt;Entity8 -->
<g id="edge4" class="edge verb">
<title>Entity2&#45;&gt;Entity8</title>
<path fill="none" stroke="black" d="M3031.74,-2530.64C3073.74,-2525.91 3139.41,-2518.51 3183.82,-2513.5"/>
<polygon fill="black" stroke="black" points="3184.24,-2516.97 3193.79,-2512.38 3183.46,-2510.02 3184.24,-2516.97"/>
<text text-anchor="start" x="3081.78" y="-2510.87" font-family="Times New Roman,serif" font-size="14.00">claiemd to channel</text>
</g>
<!-- Entity26 -->
<g id="node8" class="node entity">
<title>Entity26</title>
<ellipse fill="none" stroke="black" cx="920.08" cy="-3702.28" rx="49.29" ry="18"/>
<text text-anchor="start" x="890.08" y="-3698.58" font-family="Times New Roman,serif" font-size="14.00">adolf hitler</text>
</g>
<!-- Entity28 -->
<g id="node9" class="node entity">
<title>Entity28</title>
<ellipse fill="none" stroke="black" cx="1318.35" cy="-3760" rx="32.49" ry="18"/>
<text text-anchor="start" x="1301.35" y="-3756.3" font-family="Times New Roman,serif" font-size="14.00">nsdap</text>
</g>
<!-- Entity26&#45;&gt;Entity28 -->
<g id="edge5" class="edge verb">
<title>Entity26&#45;&gt;Entity28</title>
<path fill="none" stroke="black" d="M966.16,-3708.96C1044.28,-3720.28 1201.56,-3743.08 1276.63,-3753.96"/>
<polygon fill="black" stroke="black" points="1276.26,-3757.44 1286.66,-3755.41 1277.27,-3750.51 1276.26,-3757.44"/>
<text text-anchor="start" x="1080.39" y="-3735.26" font-family="Times New Roman,serif" font-size="14.00">created</text>
</g>
<!-- Entity75 -->
<g id="node31" class="node entity">
<title>Entity75</title>
<ellipse fill="none" stroke="black" cx="909.78" cy="-3965.47" rx="38.99" ry="18"/>
<text text-anchor="start" x="887.78" y="-3961.77" font-family="Times New Roman,serif" font-size="14.00">far right</text>
</g>
<!-- Entity28&#45;&gt;Entity75 -->
<g id="edge29" class="edge verb">
<title>Entity28&#45;&gt;Entity75</title>
<path fill="none" stroke="black" d="M1294.02,-3772.24C1224.93,-3806.98 1027.32,-3906.36 945.71,-3947.4"/>
<polygon fill="black" stroke="black" points="943.71,-3944.49 936.35,-3952.11 946.86,-3950.74 943.71,-3944.49"/>
<text text-anchor="start" x="1058.86" y="-3863.62" font-family="Times New Roman,serif" font-size="14.00">member of</text>
</g>
<!-- Entity15 -->
<g id="node10" class="node entity">
<title>Entity15</title>
<ellipse fill="none" stroke="black" cx="6190.84" cy="-2687.24" rx="59.59" ry="18"/>
<text text-anchor="start" x="6152.84" y="-2683.54" font-family="Times New Roman,serif" font-size="14.00">donald trump</text>
</g>
<!-- Entity48 -->
<g id="node11" class="node entity">
<title>Entity48</title>
<ellipse fill="none" stroke="black" cx="5541.38" cy="-2602.03" rx="50.09" ry="18"/>
<text text-anchor="start" x="5510.88" y="-2598.33" font-family="Times New Roman,serif" font-size="14.00">john trump</text>
</g>
<!-- Entity15&#45;&gt;Entity48 -->
<g id="edge6" class="edge verb">
<title>Entity15&#45;&gt;Entity48</title>
<path fill="none" stroke="black" d="M6135.75,-2680.01C6013.9,-2664.03 5722.58,-2625.8 5598.7,-2609.55"/>
<polygon fill="black" stroke="black" points="5599.03,-2606.06 5588.65,-2608.23 5598.11,-2613.01 5599.03,-2606.06"/>
<text text-anchor="start" x="5808.22" y="-2648.58" font-family="Times New Roman,serif" font-size="14.00">nephew of</text>
</g>
<!-- Entity15&#45;&gt;Entity66 -->
<g id="edge27" class="edge verb">
<title>Entity15&#45;&gt;Entity66</title>
<path fill="none" stroke="black" d="M6153.38,-2701.52C6052.17,-2740.09 5774.17,-2846.05 5675.16,-2883.79"/>
<polygon fill="black" stroke="black" points="5673.71,-2880.6 5665.61,-2887.43 5676.2,-2887.14 5673.71,-2880.6"/>
<text text-anchor="start" x="5898.27" y="-2796.45" font-family="Times New Roman,serif" font-size="14.00">isa</text>
</g>
<!-- Entity48&#45;&gt;Entity22 -->
<g id="edge10" class="edge verb">
<title>Entity48&#45;&gt;Entity22</title>
<path fill="none" stroke="black" d="M5497.72,-2611.04C5382.14,-2634.91 5069.79,-2699.39 4963.49,-2721.34"/>
<polygon fill="black" stroke="black" points="4962.65,-2717.94 4953.57,-2723.39 4964.07,-2724.79 4962.65,-2717.94"/>
<text text-anchor="start" x="5169.6" y="-2669.99" font-family="Times New Roman,serif" font-size="14.00">member of</text>
</g>
<!-- Entity82 -->
<g id="node41" class="node entity">
<title>Entity82</title>
<ellipse fill="none" stroke="black" cx="5911.92" cy="-2350.8" rx="50.89" ry="18"/>
<text text-anchor="start" x="5880.92" y="-2347.1" font-family="Times New Roman,serif" font-size="14.00">nikola tesla</text>
</g>
<!-- Entity48&#45;&gt;Entity82 -->
<g id="edge40" class="edge verb">
<title>Entity48&#45;&gt;Entity82</title>
<path fill="none" stroke="black" d="M5564.84,-2586.13C5628.89,-2542.7 5806.84,-2422.04 5879.94,-2372.48"/>
<polygon fill="black" stroke="black" points="5882.01,-2375.31 5888.32,-2366.8 5878.08,-2369.51 5882.01,-2375.31"/>
<text text-anchor="start" x="5681.39" y="-2483.1" font-family="Times New Roman,serif" font-size="14.00">studied</text>
</g>
<!-- Entity5 -->
<g id="node12" class="node entity">
<title>Entity5</title>
<ellipse fill="none" stroke="black" cx="3348.07" cy="-2999.73" rx="56.59" ry="18"/>
<text text-anchor="start" x="3312.57" y="-2996.03" font-family="Times New Roman,serif" font-size="14.00">arthur young</text>
</g>
<!-- Entity5&#45;&gt;Entity8 -->
<g id="edge7" class="edge verb">
<title>Entity5&#45;&gt;Entity8</title>
<path fill="none" stroke="black" d="M3343.77,-2981.65C3326.13,-2907.42 3259.17,-2625.75 3237.81,-2535.89"/>
<polygon fill="black" stroke="black" points="3241.21,-2535.06 3235.49,-2526.14 3234.4,-2536.68 3241.21,-2535.06"/>
<text text-anchor="start" x="3228.79" y="-2762.57" font-family="Times New Roman,serif" font-size="14.00">member&#45;of</text>
</g>
<!-- Entity5&#45;&gt;Entity67 -->
<g id="edge18" class="edge verb">
<title>Entity5&#45;&gt;Entity67</title>
<path fill="none" stroke="black" d="M3399.17,-2991.85C3541.54,-2969.91 3943.14,-2908.02 4110.5,-2882.23"/>
<polygon fill="black" stroke="black" points="4111.11,-2885.68 4120.46,-2880.7 4110.04,-2878.76 4111.11,-2885.68"/>
<text text-anchor="start" x="3713.83" y="-2940.84" font-family="Times New Roman,serif" font-size="14.00">studied</text>
</g>
<!-- Entity72 -->
<g id="node28" class="node entity">
<title>Entity72</title>
<ellipse fill="none" stroke="black" cx="2657.76" cy="-3271.69" rx="53.89" ry="18"/>
<text text-anchor="start" x="2624.26" y="-3267.99" font-family="Times New Roman,serif" font-size="14.00">bell aviation</text>
</g>
<!-- Entity5&#45;&gt;Entity72 -->
<g id="edge24" class="edge verb">
<title>Entity5&#45;&gt;Entity72</title>
<path fill="none" stroke="black" d="M3312.41,-3013.77C3196.44,-3059.47 2830.12,-3203.79 2702.3,-3254.15"/>
<polygon fill="black" stroke="black" points="2700.82,-3250.97 2692.8,-3257.89 2703.39,-3257.48 2700.82,-3250.97"/>
<text text-anchor="start" x="2966.35" y="-3137.76" font-family="Times New Roman,serif" font-size="14.00">created</text>
</g>
<!-- Entity1 -->
<g id="node13" class="node entity">
<title>Entity1</title>
<ellipse fill="none" stroke="black" cx="2555.97" cy="-2323.45" rx="64.19" ry="18"/>
<text text-anchor="start" x="2514.47" y="-2319.75" font-family="Times New Roman,serif" font-size="14.00">andre puharich</text>
</g>
<!-- Entity1&#45;&gt;Entity2 -->
<g id="edge8" class="edge verb">
<title>Entity1&#45;&gt;Entity2</title>
<path fill="none" stroke="black" d="M2588.34,-2339.19C2667.55,-2377.72 2870.8,-2476.58 2954.48,-2517.28"/>
<polygon fill="black" stroke="black" points="2953.08,-2520.49 2963.6,-2521.72 2956.14,-2514.2 2953.08,-2520.49"/>
<text text-anchor="start" x="2711.41" y="-2432.03" font-family="Times New Roman,serif" font-size="14.00">sponsored</text>
</g>
<!-- Entity7 -->
<g id="node14" class="node entity">
<title>Entity7</title>
<ellipse fill="none" stroke="black" cx="3526.99" cy="-2681.71" rx="68.49" ry="18"/>
<text text-anchor="start" x="3482.49" y="-2678.01" font-family="Times New Roman,serif" font-size="14.00">jeffrey mishlove</text>
</g>
<!-- Entity7&#45;&gt;Entity2 -->
<g id="edge9" class="edge verb">
<title>Entity7&#45;&gt;Entity2</title>
<path fill="none" stroke="black" d="M3479.45,-2668.7C3377.09,-2640.71 3136.98,-2575.04 3036.64,-2547.59"/>
<polygon fill="black" stroke="black" points="3037.37,-2544.16 3026.8,-2544.9 3035.53,-2550.92 3037.37,-2544.16"/>
<text text-anchor="start" x="3203.04" y="-2611.95" font-family="Times New Roman,serif" font-size="14.00">promoted</text>
</g>
<!-- Entity7&#45;&gt;Entity67 -->
<g id="edge19" class="edge verb">
<title>Entity7&#45;&gt;Entity67</title>
<path fill="none" stroke="black" d="M3566.22,-2696.56C3675.08,-2732.11 3981.87,-2820.49 4118.31,-2855.95"/>
<polygon fill="black" stroke="black" points="4117.67,-2859.4 4128.23,-2858.51 4119.42,-2852.62 4117.67,-2859.4"/>
<text text-anchor="start" x="3801.26" y="-2780.05" font-family="Times New Roman,serif" font-size="14.00">studied</text>
</g>
<!-- Entity7&#45;&gt;Entity67 -->
<g id="edge26" class="edge verb">
<title>Entity7&#45;&gt;Entity67</title>
<path fill="none" stroke="black" d="M3580.25,-2692.99C3704.64,-2724.69 4012.86,-2813.22 4134.57,-2852.2"/>
<polygon fill="black" stroke="black" points="4133.79,-2855.62 4144.38,-2855.36 4135.94,-2848.96 4133.79,-2855.62"/>
<text text-anchor="start" x="3793.41" y="-2761.39" font-family="Times New Roman,serif" font-size="14.00">investigates</text>
</g>
<!-- Entity30 -->
<g id="node15" class="node entity">
<title>Entity30</title>
<ellipse fill="none" stroke="black" cx="1941.12" cy="-3544.69" rx="74.99" ry="18"/>
<text text-anchor="start" x="1891.62" y="-3540.99" font-family="Times New Roman,serif" font-size="14.00">walter dornberger</text>
</g>
<!-- Entity30&#45;&gt;Entity28 -->
<g id="edge11" class="edge verb">
<title>Entity30&#45;&gt;Entity28</title>
<path fill="none" stroke="black" d="M1898.31,-3559.49C1782.53,-3599.52 1464.54,-3709.46 1355.57,-3747.14"/>
<polygon fill="black" stroke="black" points="1354.3,-3743.87 1345.99,-3750.45 1356.58,-3750.49 1354.3,-3743.87"/>
<text text-anchor="start" x="1626.94" y="-3657.11" font-family="Times New Roman,serif" font-size="14.00">member of</text>
</g>
<!-- Entity30&#45;&gt;Entity72 -->
<g id="edge35" class="edge verb">
<title>Entity30&#45;&gt;Entity72</title>
<path fill="none" stroke="black" d="M1988.02,-3530.59C2120.15,-3484.92 2493.82,-3342.52 2617.48,-3290.65"/>
<polygon fill="black" stroke="black" points="2619.12,-3293.75 2626.97,-3286.64 2616.39,-3287.31 2619.12,-3293.75"/>
<text text-anchor="start" x="2302.75" y="-3414.42" font-family="Times New Roman,serif" font-size="14.00">vice&#45;president</text>
</g>
<!-- Entity30&#45;&gt;Entity72 -->
<g id="edge49" class="edge verb">
<title>Entity30&#45;&gt;Entity72</title>
<path fill="none" stroke="black" d="M1975.06,-3528.42C2090.72,-3479.37 2469.82,-3334.78 2607.36,-3287.02"/>
<polygon fill="black" stroke="black" points="2608.52,-3290.32 2616.84,-3283.75 2606.24,-3283.7 2608.52,-3290.32"/>
<text text-anchor="start" x="2235.21" y="-3396.52" font-family="Times New Roman,serif" font-size="14.00">worked at</text>
</g>
<!-- Entity76 -->
<g id="node35" class="node entity">
<title>Entity76</title>
<ellipse fill="none" stroke="black" cx="1485.26" cy="-3651.98" rx="90.98" ry="18"/>
<text text-anchor="start" x="1423.26" y="-3648.28" font-family="Times New Roman,serif" font-size="14.00">nsdap rocket program</text>
</g>
<!-- Entity30&#45;&gt;Entity76 -->
<g id="edge36" class="edge verb">
<title>Entity30&#45;&gt;Entity76</title>
<path fill="none" stroke="black" d="M1887.49,-3557.31C1804.57,-3576.83 1645.33,-3614.3 1554.05,-3635.79"/>
<polygon fill="black" stroke="black" points="1553.01,-3632.43 1544.08,-3638.13 1554.62,-3639.25 1553.01,-3632.43"/>
<text text-anchor="start" x="1679.77" y="-3600.35" font-family="Times New Roman,serif" font-size="14.00">created</text>
</g>
<!-- Entity104 -->
<g id="node55" class="node entity">
<title>Entity104</title>
<ellipse fill="none" stroke="black" cx="2008.98" cy="-3652.68" rx="65.79" ry="18"/>
<text text-anchor="start" x="1966.48" y="-3648.98" font-family="Times New Roman,serif" font-size="14.00">x series aircraft</text>
</g>
<!-- Entity30&#45;&gt;Entity104 -->
<g id="edge59" class="edge verb">
<title>Entity30&#45;&gt;Entity104</title>
<path fill="none" stroke="black" d="M1952.33,-3562.52C1963.23,-3579.88 1979.93,-3606.45 1992.37,-3626.26"/>
<polygon fill="black" stroke="black" points="1989.47,-3628.22 1997.76,-3634.82 1995.4,-3624.49 1989.47,-3628.22"/>
<text text-anchor="start" x="1931.35" y="-3598.19" font-family="Times New Roman,serif" font-size="14.00">created</text>
</g>
<!-- Entity32 -->
<g id="node16" class="node entity">
<title>Entity32</title>
<ellipse fill="none" stroke="black" cx="1561.57" cy="-3760.02" rx="46.29" ry="18"/>
<text text-anchor="start" x="1534.07" y="-3756.32" font-family="Times New Roman,serif" font-size="14.00">van braun</text>
</g>
<!-- Entity32&#45;&gt;Entity30 -->
<g id="edge12" class="edge verb">
<title>Entity32&#45;&gt;Entity30</title>
<path fill="none" stroke="black" d="M1587.96,-3745.05C1653.87,-3707.66 1825.92,-3610.05 1902.91,-3566.37"/>
<polygon fill="black" stroke="black" points="1904.84,-3569.3 1911.82,-3561.32 1901.39,-3563.21 1904.84,-3569.3"/>
<text text-anchor="start" x="1745.43" y="-3659.51" font-family="Times New Roman,serif" font-size="14.00">worked for</text>
</g>
<!-- Entity32&#45;&gt;Entity76 -->
<g id="edge48" class="edge verb">
<title>Entity32&#45;&gt;Entity76</title>
<path fill="none" stroke="black" d="M1549.31,-3742.66C1537.05,-3725.31 1518.04,-3698.39 1503.91,-3678.39"/>
<polygon fill="black" stroke="black" points="1506.63,-3676.16 1498,-3670.01 1500.91,-3680.2 1506.63,-3676.16"/>
<text text-anchor="start" x="1470.61" y="-3714.32" font-family="Times New Roman,serif" font-size="14.00">worked at</text>
</g>
<!-- Entity29 -->
<g id="node17" class="node entity">
<title>Entity29</title>
<ellipse fill="none" stroke="black" cx="5445.1" cy="-3989.79" rx="37.89" ry="18"/>
<text text-anchor="start" x="5424.1" y="-3986.09" font-family="Times New Roman,serif" font-size="14.00">hunt oil</text>
</g>
<!-- Entity36 -->
<g id="node18" class="node entity">
<title>Entity36</title>
<ellipse fill="none" stroke="black" cx="5515.27" cy="-3463.84" rx="77.99" ry="18"/>
<text text-anchor="start" x="5463.27" y="-3460.14" font-family="Times New Roman,serif" font-size="14.00">dwight eisenhower</text>
</g>
<!-- Entity29&#45;&gt;Entity36 -->
<g id="edge13" class="edge verb">
<title>Entity29&#45;&gt;Entity36</title>
<path fill="none" stroke="black" d="M5447.51,-3971.68C5457.91,-3893.76 5498.88,-3586.64 5511.53,-3491.85"/>
<polygon fill="black" stroke="black" points="5515.01,-3492.24 5512.86,-3481.86 5508.07,-3491.31 5515.01,-3492.24"/>
<text text-anchor="start" x="5439.52" y="-3735.57" font-family="Times New Roman,serif" font-size="14.00">funded</text>
</g>
<!-- Entity36&#45;&gt;Entity66 -->
<g id="edge34" class="edge verb">
<title>Entity36&#45;&gt;Entity66</title>
<path fill="none" stroke="black" d="M5519.26,-3445.63C5537.32,-3363.31 5611.42,-3025.61 5633.39,-2925.47"/>
<polygon fill="black" stroke="black" points="5636.86,-2926.01 5635.58,-2915.49 5630.02,-2924.51 5636.86,-2926.01"/>
<text text-anchor="start" x="5557.33" y="-3189.35" font-family="Times New Roman,serif" font-size="14.00">is a</text>
</g>
<!-- Entity11 -->
<g id="node19" class="node entity">
<title>Entity11</title>
<ellipse fill="none" stroke="black" cx="6080.29" cy="-3096.81" rx="56.59" ry="18"/>
<text text-anchor="start" x="6044.79" y="-3093.11" font-family="Times New Roman,serif" font-size="14.00">harry truman</text>
</g>
<!-- Entity11&#45;&gt;Entity66 -->
<g id="edge14" class="edge verb">
<title>Entity11&#45;&gt;Entity66</title>
<path fill="none" stroke="black" d="M6047.53,-3081.98C5966.34,-3045.24 5756.48,-2950.27 5673.78,-2912.84"/>
<polygon fill="black" stroke="black" points="5674.9,-2909.51 5664.34,-2908.57 5672.01,-2915.88 5674.9,-2909.51"/>
<text text-anchor="start" x="5844.65" y="-3001.21" font-family="Times New Roman,serif" font-size="14.00">isa</text>
</g>
<!-- Entity69 -->
<g id="node24" class="node entity">
<title>Entity69</title>
<ellipse fill="none" stroke="black" cx="6503.73" cy="-3386.36" rx="55.79" ry="18"/>
<text text-anchor="start" x="6468.73" y="-3382.66" font-family="Times New Roman,serif" font-size="14.00">freemasonry</text>
</g>
<!-- Entity11&#45;&gt;Entity69 -->
<g id="edge17" class="edge verb">
<title>Entity11&#45;&gt;Entity69</title>
<path fill="none" stroke="black" d="M6104.27,-3113.21C6176.1,-3162.33 6389.57,-3308.3 6471.35,-3364.22"/>
<polygon fill="black" stroke="black" points="6469.52,-3367.21 6479.75,-3369.97 6473.47,-3361.43 6469.52,-3367.21"/>
<text text-anchor="start" x="6226.81" y="-3242.52" font-family="Times New Roman,serif" font-size="14.00">member of</text>
</g>
<!-- Entity63 -->
<g id="node21" class="node entity">
<title>Entity63</title>
<ellipse fill="none" stroke="black" cx="6311.14" cy="-3868.83" rx="53.89" ry="18"/>
<text text-anchor="start" x="6277.64" y="-3865.13" font-family="Times New Roman,serif" font-size="14.00">edgar casey</text>
</g>
<!-- Entity59 -->
<g id="node22" class="node entity">
<title>Entity59</title>
<ellipse fill="none" stroke="black" cx="5963.77" cy="-3424.72" rx="71.49" ry="18"/>
<text text-anchor="start" x="5916.77" y="-3421.02" font-family="Times New Roman,serif" font-size="14.00">woodrow wilson</text>
</g>
<!-- Entity63&#45;&gt;Entity59 -->
<g id="edge15" class="edge verb">
<title>Entity63&#45;&gt;Entity59</title>
<path fill="none" stroke="black" d="M6297.31,-3851.15C6243.5,-3782.35 6047.93,-3532.31 5984.09,-3450.68"/>
<polygon fill="black" stroke="black" points="5986.56,-3448.17 5977.64,-3442.45 5981.05,-3452.48 5986.56,-3448.17"/>
<text text-anchor="start" x="6098.7" y="-3654.72" font-family="Times New Roman,serif" font-size="14.00">advises</text>
</g>
<!-- Entity59&#45;&gt;Entity66 -->
<g id="edge30" class="edge verb">
<title>Entity59&#45;&gt;Entity66</title>
<path fill="none" stroke="black" d="M5952.8,-3406.87C5904.68,-3328.59 5712.17,-3015.46 5655.4,-2923.11"/>
<polygon fill="black" stroke="black" points="5658.26,-2921.08 5650.04,-2914.4 5652.3,-2924.75 5658.26,-2921.08"/>
<text text-anchor="start" x="5788.1" y="-3168.79" font-family="Times New Roman,serif" font-size="14.00">isa</text>
</g>
<!-- Entity92 -->
<g id="node50" class="node entity">
<title>Entity92</title>
<ellipse fill="none" stroke="black" cx="6108.37" cy="-4034.12" rx="71.49" ry="18"/>
<text text-anchor="start" x="6061.37" y="-4030.42" font-family="Times New Roman,serif" font-size="14.00">leauge of nations</text>
</g>
<!-- Entity59&#45;&gt;Entity92 -->
<g id="edge54" class="edge verb">
<title>Entity59&#45;&gt;Entity92</title>
<path fill="none" stroke="black" d="M5968.1,-3442.95C5988.68,-3529.69 6076.69,-3900.59 6101.71,-4006.05"/>
<polygon fill="black" stroke="black" points="6098.34,-4007.03 6104.06,-4015.95 6105.16,-4005.41 6098.34,-4007.03"/>
<text text-anchor="start" x="5993.9" y="-3728.3" font-family="Times New Roman,serif" font-size="14.00">created</text>
</g>
<!-- Entity18 -->
<g id="node26" class="node entity">
<title>Entity18</title>
<ellipse fill="none" stroke="black" cx="5611.78" cy="-3228.16" rx="35.19" ry="18"/>
<text text-anchor="start" x="5592.78" y="-3224.46" font-family="Times New Roman,serif" font-size="14.00">obama</text>
</g>
<!-- Entity18&#45;&gt;Entity66 -->
<g id="edge21" class="edge verb">
<title>Entity18&#45;&gt;Entity66</title>
<path fill="none" stroke="black" d="M5613.31,-3209.9C5617.92,-3155.11 5631.63,-2991.83 5637.19,-2925.67"/>
<polygon fill="black" stroke="black" points="5640.69,-2925.81 5638.04,-2915.56 5633.71,-2925.23 5640.69,-2925.81"/>
<text text-anchor="start" x="5609.25" y="-3071.58" font-family="Times New Roman,serif" font-size="14.00">isa</text>
</g>
<!-- Entity12 -->
<g id="node27" class="node entity">
<title>Entity12</title>
<ellipse fill="none" stroke="black" cx="5892.59" cy="-3211.59" rx="58.49" ry="18"/>
<text text-anchor="start" x="5855.59" y="-3207.89" font-family="Times New Roman,serif" font-size="14.00">richard nixon</text>
</g>
<!-- Entity12&#45;&gt;Entity66 -->
<g id="edge22" class="edge verb">
<title>Entity12&#45;&gt;Entity66</title>
<path fill="none" stroke="black" d="M5878.26,-3193.8C5835.43,-3140.6 5708.29,-2982.7 5659.2,-2921.75"/>
<polygon fill="black" stroke="black" points="5661.81,-2919.4 5652.81,-2913.81 5656.36,-2923.79 5661.81,-2919.4"/>
<text text-anchor="start" x="5752.73" y="-3061.57" font-family="Times New Roman,serif" font-size="14.00">isa</text>
</g>
<!-- Entity24 -->
<g id="node29" class="node entity">
<title>Entity24</title>
<ellipse fill="none" stroke="black" cx="3962.64" cy="-2762.76" rx="63.89" ry="18"/>
<text text-anchor="start" x="3921.64" y="-2759.06" font-family="Times New Roman,serif" font-size="14.00">robert bigelow</text>
</g>
<!-- Entity24&#45;&gt;Entity7 -->
<g id="edge25" class="edge verb">
<title>Entity24&#45;&gt;Entity7</title>
<path fill="none" stroke="black" d="M3909.22,-2752.82C3829.44,-2737.98 3679.34,-2710.05 3592.87,-2693.96"/>
<polygon fill="black" stroke="black" points="3593.38,-2690.5 3582.91,-2692.11 3592.1,-2697.38 3593.38,-2690.5"/>
<text text-anchor="start" x="3719.05" y="-2727.19" font-family="Times New Roman,serif" font-size="14.00">funds</text>
</g>
<!-- Entity24&#45;&gt;Entity67 -->
<g id="edge45" class="edge verb">
<title>Entity24&#45;&gt;Entity67</title>
<path fill="none" stroke="black" d="M3994.99,-2778.46C4033.96,-2797.37 4099.54,-2829.18 4142.58,-2850.07"/>
<polygon fill="black" stroke="black" points="4141.15,-2853.26 4151.68,-2854.48 4144.21,-2846.96 4141.15,-2853.26"/>
<text text-anchor="start" x="4004.79" y="-2818.06" font-family="Times New Roman,serif" font-size="14.00">investigates</text>
</g>
<!-- Entity44 -->
<g id="node30" class="node entity">
<title>Entity44</title>
<ellipse fill="none" stroke="black" cx="6976.19" cy="-2605.68" rx="58.49" ry="18"/>
<text text-anchor="start" x="6939.19" y="-2601.98" font-family="Times New Roman,serif" font-size="14.00">steve bannon</text>
</g>
<!-- Entity44&#45;&gt;Entity15 -->
<g id="edge28" class="edge verb">
<title>Entity44&#45;&gt;Entity15</title>
<path fill="none" stroke="black" d="M6918.06,-2607.96C6774,-2618.92 6401.46,-2657.57 6253.12,-2676.88"/>
<polygon fill="black" stroke="black" points="6252.29,-2673.46 6242.83,-2678.24 6253.21,-2680.4 6252.29,-2673.46"/>
<text text-anchor="start" x="6530.59" y="-2646.22" font-family="Times New Roman,serif" font-size="14.00">promoted</text>
</g>
<!-- Entity44&#45;&gt;Entity15 -->
<g id="edge64" class="edge verb">
<title>Entity44&#45;&gt;Entity15</title>
<path fill="none" stroke="black" d="M6925.03,-2614.57C6788.68,-2632.84 6416.39,-2671.66 6260.72,-2684.05"/>
<polygon fill="black" stroke="black" points="6260.03,-2680.59 6250.34,-2684.86 6260.58,-2687.57 6260.03,-2680.59"/>
<text text-anchor="start" x="6592.87" y="-2653.11" font-family="Times New Roman,serif" font-size="14.00">advises</text>
</g>
<!-- Entity83 -->
<g id="node40" class="node entity">
<title>Entity83</title>
<ellipse fill="none" stroke="black" cx="7591.11" cy="-2720.71" rx="61.99" ry="18"/>
<text text-anchor="start" x="7551.61" y="-2717.01" font-family="Times New Roman,serif" font-size="14.00">breitbart news</text>
</g>
<!-- Entity44&#45;&gt;Entity83 -->
<g id="edge46" class="edge verb">
<title>Entity44&#45;&gt;Entity83</title>
<path fill="none" stroke="black" d="M7026.25,-2615.04C7137.81,-2635.91 7406.6,-2686.19 7528.78,-2709.05"/>
<polygon fill="black" stroke="black" points="7528.26,-2712.51 7538.73,-2710.91 7529.55,-2705.63 7528.26,-2712.51"/>
<text text-anchor="start" x="7236.52" y="-2665.84" font-family="Times New Roman,serif" font-size="14.00">created</text>
</g>
<!-- Entity89 -->
<g id="node49" class="node entity">
<title>Entity89</title>
<ellipse fill="none" stroke="black" cx="7407.75" cy="-2612.56" rx="35.19" ry="18"/>
<text text-anchor="start" x="7388.75" y="-2608.86" font-family="Times New Roman,serif" font-size="14.00">gurgev</text>
</g>
<!-- Entity44&#45;&gt;Entity89 -->
<g id="edge53" class="edge verb">
<title>Entity44&#45;&gt;Entity89</title>
<path fill="none" stroke="black" d="M7034.84,-2606.61C7121.96,-2608 7283.72,-2610.58 7362.41,-2611.84"/>
<polygon fill="black" stroke="black" points="7362.44,-2615.34 7372.49,-2612 7362.55,-2608.34 7362.44,-2615.34"/>
<text text-anchor="start" x="7157.63" y="-2613.03" font-family="Times New Roman,serif" font-size="14.00">studied</text>
</g>
<!-- Entity91 -->
<g id="node51" class="node entity">
<title>Entity91</title>
<ellipse fill="none" stroke="black" cx="7322.89" cy="-2908.17" rx="38.19" ry="18"/>
<text text-anchor="start" x="7301.39" y="-2904.47" font-family="Times New Roman,serif" font-size="14.00">us navy</text>
</g>
<!-- Entity44&#45;&gt;Entity91 -->
<g id="edge55" class="edge verb">
<title>Entity44&#45;&gt;Entity91</title>
<path fill="none" stroke="black" d="M6995.82,-2622.81C7054.74,-2674.21 7230.05,-2827.16 7296.74,-2885.35"/>
<polygon fill="black" stroke="black" points="7294.48,-2888.03 7304.32,-2891.97 7299.09,-2882.75 7294.48,-2888.03"/>
<text text-anchor="start" x="7085.28" y="-2757.88" font-family="Times New Roman,serif" font-size="14.00">member of</text>
</g>
<!-- Entity94 -->
<g id="node53" class="node entity">
<title>Entity94</title>
<ellipse fill="none" stroke="black" cx="7114.45" cy="-2497.66" rx="53.09" ry="18"/>
<text text-anchor="start" x="7081.45" y="-2493.96" font-family="Times New Roman,serif" font-size="14.00">biosphere 2</text>
</g>
<!-- Entity44&#45;&gt;Entity94 -->
<g id="edge57" class="edge verb">
<title>Entity44&#45;&gt;Entity94</title>
<path fill="none" stroke="black" d="M6997.79,-2588.8C7021.23,-2570.49 7058.8,-2541.14 7084.94,-2520.71"/>
<polygon fill="black" stroke="black" points="7087.27,-2523.33 7093,-2514.42 7082.96,-2517.82 7087.27,-2523.33"/>
<text text-anchor="start" x="7000.37" y="-2558.55" font-family="Times New Roman,serif" font-size="14.00">created</text>
</g>
<!-- Entity107 -->
<g id="node58" class="node entity">
<title>Entity107</title>
<ellipse fill="none" stroke="black" cx="7400.27" cy="-2185.12" rx="77.19" ry="18"/>
<text text-anchor="start" x="7348.77" y="-2181.42" font-family="Times New Roman,serif" font-size="14.00">hollywood movies</text>
</g>
<!-- Entity44&#45;&gt;Entity107 -->
<g id="edge61" class="edge verb">
<title>Entity44&#45;&gt;Entity107</title>
<path fill="none" stroke="black" d="M6993.61,-2588.41C7059.91,-2522.65 7296.75,-2287.77 7374.99,-2210.19"/>
<polygon fill="black" stroke="black" points="7377.84,-2212.29 7382.47,-2202.77 7372.91,-2207.32 7377.84,-2212.29"/>
<text text-anchor="start" x="7129.3" y="-2403.1" font-family="Times New Roman,serif" font-size="14.00">produced</text>
</g>
<!-- Entity111 -->
<g id="node59" class="node entity">
<title>Entity111</title>
<ellipse fill="none" stroke="black" cx="7503.12" cy="-2406.23" rx="64.99" ry="18"/>
<text text-anchor="start" x="7461.12" y="-2402.53" font-family="Times New Roman,serif" font-size="14.00">goldman sachs</text>
</g>
<!-- Entity44&#45;&gt;Entity111 -->
<g id="edge66" class="edge verb">
<title>Entity44&#45;&gt;Entity111</title>
<path fill="none" stroke="black" d="M7013.24,-2591.65C7106.51,-2556.35 7350.97,-2463.82 7455.07,-2424.42"/>
<polygon fill="black" stroke="black" points="7456.58,-2427.59 7464.69,-2420.78 7454.1,-2421.04 7456.58,-2427.59"/>
<text text-anchor="start" x="7171.15" y="-2511.84" font-family="Times New Roman,serif" font-size="14.00">worked for</text>
</g>
<!-- Entity33 -->
<g id="node32" class="node entity">
<title>Entity33</title>
<ellipse fill="none" stroke="black" cx="2180.4" cy="-3436.69" rx="57.69" ry="18"/>
<text text-anchor="start" x="2143.9" y="-3432.99" font-family="Times New Roman,serif" font-size="14.00">michael pane</text>
</g>
<!-- Entity33&#45;&gt;Entity30 -->
<g id="edge47" class="edge verb">
<title>Entity33&#45;&gt;Entity30</title>
<path fill="none" stroke="black" d="M2147.13,-3451.71C2105.08,-3470.69 2032.56,-3503.42 1985.74,-3524.56"/>
<polygon fill="black" stroke="black" points="1984.12,-3521.45 1976.44,-3528.75 1987,-3527.83 1984.12,-3521.45"/>
<text text-anchor="start" x="2003.43" y="-3491.93" font-family="Times New Roman,serif" font-size="14.00">worked for</text>
</g>
<!-- Entity33&#45;&gt;Entity72 -->
<g id="edge31" class="edge verb">
<title>Entity33&#45;&gt;Entity72</title>
<path fill="none" stroke="black" d="M2219.47,-3423.19C2306.57,-3393.08 2516.4,-3320.56 2610.6,-3288"/>
<polygon fill="black" stroke="black" points="2611.85,-3291.27 2620.15,-3284.69 2609.56,-3284.65 2611.85,-3291.27"/>
<text text-anchor="start" x="2359.03" y="-3359.39" font-family="Times New Roman,serif" font-size="14.00">worked at</text>
</g>
<!-- Entity45 -->
<g id="node33" class="node entity">
<title>Entity45</title>
<ellipse fill="none" stroke="black" cx="5801.66" cy="-2242.78" rx="67.69" ry="18"/>
<text text-anchor="start" x="5757.66" y="-2239.08" font-family="Times New Roman,serif" font-size="14.00">abraham lincoln</text>
</g>
<!-- Entity45&#45;&gt;Entity66 -->
<g id="edge32" class="edge verb">
<title>Entity45&#45;&gt;Entity66</title>
<path fill="none" stroke="black" d="M5797.15,-2260.97C5774.59,-2352.08 5673.86,-2758.84 5646.46,-2869.49"/>
<polygon fill="black" stroke="black" points="5643.05,-2868.71 5644.05,-2879.25 5649.85,-2870.39 5643.05,-2868.71"/>
<text text-anchor="start" x="5705.81" y="-2569.03" font-family="Times New Roman,serif" font-size="14.00">isa</text>
</g>
<!-- Entity38 -->
<g id="node34" class="node entity">
<title>Entity38</title>
<ellipse fill="none" stroke="black" cx="6048.95" cy="-1413.05" rx="90.98" ry="18"/>
<text text-anchor="start" x="5986.95" y="-1409.35" font-family="Times New Roman,serif" font-size="14.00">emma hardinge&#45;britten</text>
</g>
<!-- Entity38&#45;&gt;Entity45 -->
<g id="edge33" class="edge verb">
<title>Entity38&#45;&gt;Entity45</title>
<path fill="none" stroke="black" d="M6043.56,-1431.15C6011.75,-1537.87 5848.78,-2084.68 5809.96,-2214.91"/>
<polygon fill="black" stroke="black" points="5806.59,-2213.97 5807.09,-2224.56 5813.3,-2215.97 5806.59,-2213.97"/>
<text text-anchor="start" x="5827.76" y="-1826.83" font-family="Times New Roman,serif" font-size="14.00">spokesperson for</text>
</g>
<!-- Entity79 -->
<g id="node38" class="node entity">
<title>Entity79</title>
<ellipse fill="none" stroke="black" cx="5990.04" cy="-843.57" rx="39.79" ry="18"/>
<text text-anchor="start" x="5967.54" y="-839.87" font-family="Times New Roman,serif" font-size="14.00">medium</text>
</g>
<!-- Entity38&#45;&gt;Entity79 -->
<g id="edge38" class="edge verb">
<title>Entity38&#45;&gt;Entity79</title>
<path fill="none" stroke="black" d="M6047.06,-1394.74C6038.5,-1311.99 6003.38,-972.51 5992.96,-871.84"/>
<polygon fill="black" stroke="black" points="5996.43,-871.39 5991.92,-861.81 5989.47,-872.11 5996.43,-871.39"/>
<text text-anchor="start" x="6004.01" y="-1137.09" font-family="Times New Roman,serif" font-size="14.00">isa</text>
</g>
<!-- Entity86 -->
<g id="node48" class="node entity">
<title>Entity86</title>
<ellipse fill="none" stroke="black" cx="6095.23" cy="-1304.98" rx="85.29" ry="18"/>
<text text-anchor="start" x="6037.73" y="-1301.28" font-family="Times New Roman,serif" font-size="14.00">theosophical society</text>
</g>
<!-- Entity38&#45;&gt;Entity86 -->
<g id="edge65" class="edge verb">
<title>Entity38&#45;&gt;Entity86</title>
<path fill="none" stroke="black" d="M6056.8,-1394.71C6064.13,-1377.61 6075.15,-1351.87 6083.52,-1332.34"/>
<polygon fill="black" stroke="black" points="6086.78,-1333.61 6087.5,-1323.04 6080.34,-1330.86 6086.78,-1333.61"/>
<text text-anchor="start" x="6029.16" y="-1367.33" font-family="Times New Roman,serif" font-size="14.00">created</text>
</g>
<!-- Entity99 -->
<g id="node54" class="node entity">
<title>Entity99</title>
<ellipse fill="none" stroke="black" cx="6477.37" cy="-963.92" rx="55.79" ry="18"/>
<text text-anchor="start" x="6442.37" y="-960.22" font-family="Times New Roman,serif" font-size="14.00">orphic circle</text>
</g>
<!-- Entity38&#45;&gt;Entity99 -->
<g id="edge58" class="edge verb">
<title>Entity38&#45;&gt;Entity99</title>
<path fill="none" stroke="black" d="M6066.01,-1395.16C6132.8,-1325.15 6376.63,-1069.53 6453.79,-988.64"/>
<polygon fill="black" stroke="black" points="6456.36,-991.02 6460.73,-981.37 6451.29,-986.19 6456.36,-991.02"/>
<text text-anchor="start" x="6198.9" y="-1195.7" font-family="Times New Roman,serif" font-size="14.00">member of</text>
</g>
<!-- Entity42 -->
<g id="node36" class="node entity">
<title>Entity42</title>
<ellipse fill="none" stroke="black" cx="4174.94" cy="-1602.66" rx="53.89" ry="18"/>
<text text-anchor="start" x="4141.44" y="-1598.96" font-family="Times New Roman,serif" font-size="14.00">black magic</text>
</g>
<!-- Entity81 -->
<g id="node37" class="node entity">
<title>Entity81</title>
<ellipse fill="none" stroke="black" cx="4262.66" cy="-1714.64" rx="28.7" ry="18"/>
<text text-anchor="start" x="4248.66" y="-1710.94" font-family="Times New Roman,serif" font-size="14.00">x left</text>
</g>
<!-- Entity42&#45;&gt;Entity81 -->
<g id="edge37" class="edge verb">
<title>Entity42&#45;&gt;Entity81</title>
<path fill="none" stroke="black" d="M4188.64,-1620.16C4203.45,-1639.05 4227.14,-1669.29 4243.72,-1690.45"/>
<polygon fill="black" stroke="black" points="4240.98,-1692.64 4249.9,-1698.36 4246.49,-1688.32 4240.98,-1692.64"/>
<text text-anchor="start" x="4155.18" y="-1659.11" font-family="Times New Roman,serif" font-size="14.00">member of</text>
</g>
<!-- Entity47 -->
<g id="node39" class="node entity">
<title>Entity47</title>
<ellipse fill="none" stroke="black" cx="8167.55" cy="-2786.19" rx="69.59" ry="18"/>
<text text-anchor="start" x="8122.05" y="-2782.49" font-family="Times New Roman,serif" font-size="14.00">andrew breitbart</text>
</g>
<!-- Entity47&#45;&gt;Entity83 -->
<g id="edge39" class="edge verb">
<title>Entity47&#45;&gt;Entity83</title>
<path fill="none" stroke="black" d="M8103.66,-2778.93C7994.08,-2766.48 7771.28,-2741.17 7659.01,-2728.42"/>
<polygon fill="black" stroke="black" points="7659.15,-2724.91 7648.82,-2727.26 7658.36,-2731.87 7659.15,-2724.91"/>
<text text-anchor="start" x="7840.33" y="-2757.47" font-family="Times New Roman,serif" font-size="14.00">created</text>
</g>
<!-- Entity35 -->
<g id="node42" class="node entity">
<title>Entity35</title>
<ellipse fill="none" stroke="black" cx="4794.94" cy="-1602.66" rx="39.79" ry="18"/>
<text text-anchor="start" x="4772.44" y="-1598.96" font-family="Times New Roman,serif" font-size="14.00">crowley</text>
</g>
<!-- Entity80 -->
<g id="node43" class="node entity">
<title>Entity80</title>
<ellipse fill="none" stroke="black" cx="4882.66" cy="-1714.64" rx="38.99" ry="18"/>
<text text-anchor="start" x="4860.66" y="-1710.94" font-family="Times New Roman,serif" font-size="14.00">x magic</text>
</g>
<!-- Entity35&#45;&gt;Entity80 -->
<g id="edge41" class="edge verb">
<title>Entity35&#45;&gt;Entity80</title>
<path fill="none" stroke="black" d="M4808.26,-1619.67C4822.82,-1638.25 4846.28,-1668.2 4862.96,-1689.49"/>
<polygon fill="black" stroke="black" points="4860.29,-1691.76 4869.21,-1697.47 4865.8,-1687.44 4860.29,-1691.76"/>
<text text-anchor="start" x="4774.61" y="-1658.38" font-family="Times New Roman,serif" font-size="14.00">member of</text>
</g>
<!-- Entity19 -->
<g id="node44" class="node entity">
<title>Entity19</title>
<ellipse fill="none" stroke="black" cx="5298.17" cy="-2709.99" rx="31.4" ry="18"/>
<text text-anchor="start" x="5282.17" y="-2706.29" font-family="Times New Roman,serif" font-size="14.00">carter</text>
</g>
<!-- Entity19&#45;&gt;Entity66 -->
<g id="edge44" class="edge verb">
<title>Entity19&#45;&gt;Entity66</title>
<path fill="none" stroke="black" d="M5320.83,-2722.43C5380,-2754.9 5539.27,-2842.31 5607.66,-2879.85"/>
<polygon fill="black" stroke="black" points="5606.23,-2883.06 5616.68,-2884.8 5609.6,-2876.92 5606.23,-2883.06"/>
<text text-anchor="start" x="5448.24" y="-2804.94" font-family="Times New Roman,serif" font-size="14.00">isa</text>
</g>
<!-- Entity19&#45;&gt;Entity90 -->
<g id="edge56" class="edge verb">
<title>Entity19&#45;&gt;Entity90</title>
<path fill="none" stroke="black" d="M5280.68,-2694.72C5237.13,-2656.69 5123.72,-2557.65 5073.78,-2514.03"/>
<polygon fill="black" stroke="black" points="5075.89,-2511.23 5066.06,-2507.29 5071.29,-2516.5 5075.89,-2511.23"/>
<text text-anchor="start" x="5122.23" y="-2608.18" font-family="Times New Roman,serif" font-size="14.00">witnessed</text>
</g>
<!-- Entity27 -->
<g id="node45" class="node entity">
<title>Entity27</title>
<ellipse fill="none" stroke="black" cx="36.28" cy="-4329.45" rx="36.29" ry="18"/>
<text text-anchor="start" x="16.28" y="-4325.75" font-family="Times New Roman,serif" font-size="14.00">oswald</text>
</g>
<!-- Entity34 -->
<g id="node46" class="node entity">
<title>Entity34</title>
<ellipse fill="none" stroke="black" cx="446" cy="-4161.74" rx="59.29" ry="18"/>
<text text-anchor="start" x="408.5" y="-4158.04" font-family="Times New Roman,serif" font-size="14.00">guy bannister</text>
</g>
<!-- Entity27&#45;&gt;Entity34 -->
<g id="edge50" class="edge verb">
<title>Entity27&#45;&gt;Entity34</title>
<path fill="none" stroke="black" d="M64.44,-4317.93C134.34,-4289.32 316.23,-4214.87 401.13,-4180.11"/>
<polygon fill="black" stroke="black" points="402.57,-4183.3 410.5,-4176.28 399.92,-4176.83 402.57,-4183.3"/>
<text text-anchor="start" x="169.79" y="-4252.82" font-family="Times New Roman,serif" font-size="14.00">worked for</text>
</g>
<!-- Entity34&#45;&gt;Entity75 -->
<g id="edge51" class="edge verb">
<title>Entity34&#45;&gt;Entity75</title>
<path fill="none" stroke="black" d="M480.86,-4146.99C565.84,-4111.03 783.15,-4019.06 871.53,-3981.66"/>
<polygon fill="black" stroke="black" points="873.07,-3984.81 880.91,-3977.69 870.34,-3978.36 873.07,-3984.81"/>
<text text-anchor="start" x="615.2" y="-4068.12" font-family="Times New Roman,serif" font-size="14.00">member of</text>
</g>
<!-- Entity64 -->
<g id="node47" class="node entity">
<title>Entity64</title>
<ellipse fill="none" stroke="black" cx="5955.19" cy="-1196.93" rx="73.39" ry="18"/>
<text text-anchor="start" x="5906.69" y="-1193.23" font-family="Times New Roman,serif" font-size="14.00">madam blavatsky</text>
</g>
<!-- Entity64&#45;&gt;Entity86 -->
<g id="edge52" class="edge verb">
<title>Entity64&#45;&gt;Entity86</title>
<path fill="none" stroke="black" d="M5977.69,-1214.29C6001.13,-1232.38 6038.03,-1260.84 6064.22,-1281.06"/>
<polygon fill="black" stroke="black" points="6062.27,-1283.97 6072.32,-1287.3 6066.54,-1278.42 6062.27,-1283.97"/>
<text text-anchor="start" x="5979.95" y="-1251.47" font-family="Times New Roman,serif" font-size="14.00">created</text>
</g>
<!-- Entity60 -->
<g id="node56" class="node entity">
<title>Entity60</title>
<ellipse fill="none" stroke="black" cx="6297.16" cy="-652.59" rx="58.49" ry="18"/>
<text text-anchor="start" x="6260.16" y="-648.89" font-family="Times New Roman,serif" font-size="14.00">rudolf steiner</text>
</g>
<!-- Entity60&#45;&gt;Entity86 -->
<g id="edge63" class="edge verb">
<title>Entity60&#45;&gt;Entity86</title>
<path fill="none" stroke="black" d="M6291.55,-670.72C6263.44,-761.53 6137.96,-1166.93 6103.83,-1277.21"/>
<polygon fill="black" stroke="black" points="6100.43,-1276.35 6100.81,-1286.94 6107.12,-1278.42 6100.43,-1276.35"/>
<text text-anchor="start" x="6131.69" y="-977.76" font-family="Times New Roman,serif" font-size="14.00">memberr of</text>
</g>
<!-- Entity93 -->
<g id="node57" class="node entity">
<title>Entity93</title>
<ellipse fill="none" stroke="black" cx="6487.65" cy="-18.21" rx="102.08" ry="18"/>
<text text-anchor="start" x="6417.15" y="-14.51" font-family="Times New Roman,serif" font-size="14.00">anthroposophical society</text>
</g>
<!-- Entity60&#45;&gt;Entity93 -->
<g id="edge60" class="edge verb">
<title>Entity60&#45;&gt;Entity93</title>
<path fill="none" stroke="black" d="M6302.55,-634.62C6329.18,-545.93 6446.67,-154.7 6479.25,-46.2"/>
<polygon fill="black" stroke="black" points="6482.69,-46.9 6482.22,-36.32 6475.99,-44.89 6482.69,-46.9"/>
<text text-anchor="start" x="6349.9" y="-344.21" font-family="Times New Roman,serif" font-size="14.00">created</text>
</g>
<!-- Entity109 -->
<g id="node60" class="node entity">
<title>Entity109</title>
<ellipse fill="none" stroke="black" cx="4147.94" cy="-2236.66" rx="27" ry="18"/>
<text text-anchor="start" x="4144.44" y="-2232.96" font-family="Times New Roman,serif" font-size="14.00">s</text>
</g>
<!-- Entity112 -->
<g id="node61" class="node entity">
<title>Entity112</title>
<ellipse fill="none" stroke="black" cx="4235.66" cy="-2348.64" rx="27" ry="18"/>
<text text-anchor="start" x="4231.66" y="-2344.94" font-family="Times New Roman,serif" font-size="14.00">o</text>
</g>
<!-- Entity109&#45;&gt;Entity112 -->
<g id="edge67" class="edge verb">
<title>Entity109&#45;&gt;Entity112</title>
<path fill="none" stroke="black" d="M4160.51,-2252.7C4175.23,-2271.5 4199.76,-2302.82 4216.78,-2324.53"/>
<polygon fill="black" stroke="black" points="4214.19,-2326.91 4223.11,-2332.62 4219.7,-2322.59 4214.19,-2326.91"/>
<text text-anchor="start" x="4181.64" y="-2292.42" font-family="Times New Roman,serif" font-size="14.00">v</text>
</g>
</g>
</svg>
