<?xml version="1.0" encoding="UTF-8" standalone="no"?>
<?xml-stylesheet href="./styles.css" type="text/css"?>
<!DOCTYPE svg PUBLIC "-//W3C//DTD SVG 1.1//EN"
 "http://www.w3.org/Graphics/SVG/1.1/DTD/svg11.dtd">
<!-- Generated by graphviz version 2.47.3 (20210619.1520)
 -->
<!-- Title: G Pages: 1 -->
<svg width="8221pt" height="4720pt"
 viewBox="0.00 0.00 8221.00 4720.00" xmlns="http://www.w3.org/2000/svg" xmlns:xlink="http://www.w3.org/1999/xlink">
<g id="graph0" class="graph" transform="scale(1 1) rotate(0) translate(4 4716)">
<title>G</title>
<polygon fill="white" stroke="transparent" points="-4,4 -4,-4716 8217,-4716 8217,4 -4,4"/>
<!-- Entity3 -->
<g id="node1" class="node entity">
<title>Entity3</title>
<ellipse fill="none" stroke="black" cx="5253.79" cy="-3665.62" rx="27" ry="18"/>
<text text-anchor="start" x="5246.29" y="-3661.92" font-family="Times New Roman,serif" font-size="14.00">jfk</text>
</g>
<!-- Entity22 -->
<g id="node2" class="node entity">
<title>Entity22</title>
<ellipse fill="none" stroke="black" cx="4933.81" cy="-3455.63" rx="27" ry="18"/>
<text text-anchor="start" x="4925.81" y="-3451.93" font-family="Times New Roman,serif" font-size="14.00">cia</text>
</g>
<!-- Entity3&#45;&gt;Entity22 -->
<g id="edge1" class="edge verb">
<title>Entity3&#45;&gt;Entity22</title>
<path fill="none" stroke="black" d="M5234.25,-3652.8C5179.68,-3616.98 5025.43,-3515.76 4961.79,-3473.99"/>
<polygon fill="black" stroke="black" points="4963.37,-3470.84 4953.09,-3468.28 4959.53,-3476.69 4963.37,-3470.84"/>
<text text-anchor="start" x="4994.02" y="-3567.2" font-family="Times New Roman,serif" font-size="14.00">heads (1961&#45;1963)</text>
</g>
<!-- Entity66 -->
<g id="node20" class="node entity">
<title>Entity66</title>
<ellipse fill="none" stroke="black" cx="5766.91" cy="-3542.39" rx="31.4" ry="18"/>
<text text-anchor="start" x="5750.91" y="-3538.69" font-family="Times New Roman,serif" font-size="14.00">potus</text>
</g>
<!-- Entity3&#45;&gt;Entity66 -->
<g id="edge23" class="edge verb">
<title>Entity3&#45;&gt;Entity66</title>
<path fill="none" stroke="black" d="M5279.23,-3659.51C5362.53,-3639.5 5627.46,-3575.88 5727.85,-3551.77"/>
<polygon fill="black" stroke="black" points="5728.97,-3555.1 5737.87,-3549.37 5727.33,-3548.3 5728.97,-3555.1"/>
<text text-anchor="start" x="5416.54" y="-3609.44" font-family="Times New Roman,serif" font-size="14.00">isa (1961&#45;1963)</text>
</g>
<!-- Entity67 -->
<g id="node25" class="node entity">
<title>Entity67</title>
<ellipse fill="none" stroke="black" cx="4201.41" cy="-3457.89" rx="77.19" ry="18"/>
<text text-anchor="start" x="4149.91" y="-3454.19" font-family="Times New Roman,serif" font-size="14.00">psi&#45;consciousness</text>
</g>
<!-- Entity22&#45;&gt;Entity67 -->
<g id="edge43" class="edge verb">
<title>Entity22&#45;&gt;Entity67</title>
<path fill="none" stroke="black" d="M4906.43,-3455.71C4805.96,-3456.02 4454.75,-3457.1 4289.12,-3457.62"/>
<polygon fill="black" stroke="black" points="4288.95,-3454.12 4278.97,-3457.65 4288.98,-3461.12 4288.95,-3454.12"/>
<text text-anchor="start" x="4533.78" y="-3460.46" font-family="Times New Roman,serif" font-size="14.00">investigates</text>
</g>
<!-- Entity90 -->
<g id="node52" class="node entity">
<title>Entity90</title>
<ellipse fill="none" stroke="black" cx="5091.49" cy="-3653.81" rx="27" ry="18"/>
<text text-anchor="start" x="5081.99" y="-3650.11" font-family="Times New Roman,serif" font-size="14.00">ufo</text>
</g>
<!-- Entity22&#45;&gt;Entity90 -->
<g id="edge62" class="edge verb">
<title>Entity22&#45;&gt;Entity90</title>
<path fill="none" stroke="black" d="M4946.71,-3471.84C4974.44,-3506.7 5039.84,-3588.89 5072.4,-3629.8"/>
<polygon fill="black" stroke="black" points="5069.67,-3632 5078.63,-3637.64 5075.15,-3627.64 5069.67,-3632"/>
<text text-anchor="start" x="4945.55" y="-3539.62" font-family="Times New Roman,serif" font-size="14.00">investigates</text>
</g>
<!-- Entity14 -->
<g id="node3" class="node entity">
<title>Entity14</title>
<ellipse fill="none" stroke="black" cx="3342.81" cy="-2940.21" rx="74.99" ry="18"/>
<text text-anchor="start" x="3293.31" y="-2936.51" font-family="Times New Roman,serif" font-size="14.00">gene roddenberry</text>
</g>
<!-- Entity8 -->
<g id="node4" class="node entity">
<title>Entity8</title>
<ellipse fill="none" stroke="black" cx="3425.96" cy="-3048.2" rx="38.19" ry="18"/>
<text text-anchor="start" x="3404.46" y="-3044.5" font-family="Times New Roman,serif" font-size="14.00">the nine</text>
</g>
<!-- Entity14&#45;&gt;Entity8 -->
<g id="edge2" class="edge verb">
<title>Entity14&#45;&gt;Entity8</title>
<path fill="none" stroke="black" d="M3356.54,-2958.04C3370.18,-2975.76 3391.22,-3003.09 3406.57,-3023.02"/>
<polygon fill="black" stroke="black" points="3403.88,-3025.27 3412.76,-3031.06 3409.43,-3021 3403.88,-3025.27"/>
<text text-anchor="start" x="3277.55" y="-2994.33" font-family="Times New Roman,serif" font-size="14.00">claiemd to channel</text>
</g>
<!-- Entity70 -->
<g id="node23" class="node entity">
<title>Entity70</title>
<ellipse fill="none" stroke="black" cx="3146.21" cy="-2554.28" rx="94.48" ry="18"/>
<text text-anchor="start" x="3081.71" y="-2550.58" font-family="Times New Roman,serif" font-size="14.00">egyptian gods in a ship</text>
</g>
<!-- Entity8&#45;&gt;Entity70 -->
<g id="edge16" class="edge verb">
<title>Entity8&#45;&gt;Entity70</title>
<path fill="none" stroke="black" d="M3416,-3030.62C3374.12,-2956.68 3212.09,-2670.61 3161.44,-2581.17"/>
<polygon fill="black" stroke="black" points="3164.46,-2579.41 3156.49,-2572.43 3158.37,-2582.86 3164.46,-2579.41"/>
<text text-anchor="start" x="3184.72" y="-2809.7" font-family="Times New Roman,serif" font-size="14.00">claimed to channel</text>
</g>
<!-- Entity16 -->
<g id="node5" class="node entity">
<title>Entity16</title>
<ellipse fill="none" stroke="black" cx="5387.78" cy="-3839.94" rx="68.49" ry="18"/>
<text text-anchor="start" x="5343.28" y="-3836.24" font-family="Times New Roman,serif" font-size="14.00">george hw bush</text>
</g>
<!-- Entity20 -->
<g id="node6" class="node entity">
<title>Entity20</title>
<ellipse fill="none" stroke="black" cx="5560.94" cy="-3947.88" rx="63.89" ry="18"/>
<text text-anchor="start" x="5519.94" y="-3944.18" font-family="Times New Roman,serif" font-size="14.00">george w bush</text>
</g>
<!-- Entity16&#45;&gt;Entity20 -->
<g id="edge3" class="edge verb">
<title>Entity16&#45;&gt;Entity20</title>
<path fill="none" stroke="black" d="M5414.45,-3856.57C5444.29,-3875.16 5492.73,-3905.36 5525.67,-3925.89"/>
<polygon fill="black" stroke="black" points="5524.18,-3929.09 5534.52,-3931.41 5527.88,-3923.15 5524.18,-3929.09"/>
<text text-anchor="start" x="5438.06" y="-3895.03" font-family="Times New Roman,serif" font-size="14.00">father</text>
</g>
<!-- Entity16&#45;&gt;Entity66 -->
<g id="edge20" class="edge verb">
<title>Entity16&#45;&gt;Entity66</title>
<path fill="none" stroke="black" d="M5409.52,-3822.87C5474.69,-3771.73 5668.28,-3619.8 5739.89,-3563.6"/>
<polygon fill="black" stroke="black" points="5742.3,-3566.16 5748,-3557.23 5737.97,-3560.66 5742.3,-3566.16"/>
<text text-anchor="start" x="5558.71" y="-3697.03" font-family="Times New Roman,serif" font-size="14.00">isa</text>
</g>
<!-- Entity20&#45;&gt;Entity66 -->
<g id="edge42" class="edge verb">
<title>Entity20&#45;&gt;Entity66</title>
<path fill="none" stroke="black" d="M5570.06,-3929.94C5602.83,-3865.41 5714.8,-3644.98 5753.57,-3568.66"/>
<polygon fill="black" stroke="black" points="5756.73,-3570.18 5758.13,-3559.68 5750.49,-3567.01 5756.73,-3570.18"/>
<text text-anchor="start" x="5645.82" y="-3753.1" font-family="Times New Roman,serif" font-size="14.00">isa</text>
</g>
<!-- Entity2 -->
<g id="node7" class="node entity">
<title>Entity2</title>
<ellipse fill="none" stroke="black" cx="3749.99" cy="-3270.57" rx="41.69" ry="18"/>
<text text-anchor="start" x="3725.99" y="-3266.87" font-family="Times New Roman,serif" font-size="14.00">uri geller</text>
</g>
<!-- Entity2&#45;&gt;Entity8 -->
<g id="edge4" class="edge verb">
<title>Entity2&#45;&gt;Entity8</title>
<path fill="none" stroke="black" d="M3727.72,-3255.28C3671.05,-3216.39 3521.28,-3113.61 3456.51,-3069.17"/>
<polygon fill="black" stroke="black" points="3458.18,-3066.07 3447.96,-3063.3 3454.22,-3071.84 3458.18,-3066.07"/>
<text text-anchor="start" x="3592.12" y="-3166.03" font-family="Times New Roman,serif" font-size="14.00">claiemd to channel</text>
</g>
<!-- Entity26 -->
<g id="node8" class="node entity">
<title>Entity26</title>
<ellipse fill="none" stroke="black" cx="1055.05" cy="-3083.43" rx="49.29" ry="18"/>
<text text-anchor="start" x="1025.05" y="-3079.73" font-family="Times New Roman,serif" font-size="14.00">adolf hitler</text>
</g>
<!-- Entity28 -->
<g id="node9" class="node entity">
<title>Entity28</title>
<ellipse fill="none" stroke="black" cx="1428.57" cy="-2947.39" rx="32.49" ry="18"/>
<text text-anchor="start" x="1411.57" y="-2943.69" font-family="Times New Roman,serif" font-size="14.00">nsdap</text>
</g>
<!-- Entity26&#45;&gt;Entity28 -->
<g id="edge5" class="edge verb">
<title>Entity26&#45;&gt;Entity28</title>
<path fill="none" stroke="black" d="M1090.19,-3070.63C1160.78,-3044.92 1319.23,-2987.21 1391.44,-2960.91"/>
<polygon fill="black" stroke="black" points="1392.84,-2964.13 1401.04,-2957.42 1390.44,-2957.55 1392.84,-2964.13"/>
<text text-anchor="start" x="1199.81" y="-3019.57" font-family="Times New Roman,serif" font-size="14.00">created</text>
</g>
<!-- Entity75 -->
<g id="node31" class="node entity">
<title>Entity75</title>
<ellipse fill="none" stroke="black" cx="980.41" cy="-2857.67" rx="38.99" ry="18"/>
<text text-anchor="start" x="958.41" y="-2853.97" font-family="Times New Roman,serif" font-size="14.00">far right</text>
</g>
<!-- Entity28&#45;&gt;Entity75 -->
<g id="edge29" class="edge verb">
<title>Entity28&#45;&gt;Entity75</title>
<path fill="none" stroke="black" d="M1397.76,-2941.22C1320.46,-2925.75 1117.89,-2885.2 1026.41,-2866.88"/>
<polygon fill="black" stroke="black" points="1026.84,-2863.4 1016.35,-2864.87 1025.46,-2870.26 1026.84,-2863.4"/>
<text text-anchor="start" x="1151.09" y="-2907.85" font-family="Times New Roman,serif" font-size="14.00">member of</text>
</g>
<!-- Entity15 -->
<g id="node10" class="node entity">
<title>Entity15</title>
<ellipse fill="none" stroke="black" cx="6228.44" cy="-3252.84" rx="59.59" ry="18"/>
<text text-anchor="start" x="6190.44" y="-3249.14" font-family="Times New Roman,serif" font-size="14.00">donald trump</text>
</g>
<!-- Entity48 -->
<g id="node11" class="node entity">
<title>Entity48</title>
<ellipse fill="none" stroke="black" cx="5517.75" cy="-3335.41" rx="50.09" ry="18"/>
<text text-anchor="start" x="5487.25" y="-3331.71" font-family="Times New Roman,serif" font-size="14.00">john trump</text>
</g>
<!-- Entity15&#45;&gt;Entity48 -->
<g id="edge6" class="edge verb">
<title>Entity15&#45;&gt;Entity48</title>
<path fill="none" stroke="black" d="M6172.37,-3259.36C6040.13,-3274.72 5709.77,-3313.1 5575.68,-3328.68"/>
<polygon fill="black" stroke="black" points="5575.13,-3325.22 5565.61,-3329.85 5575.94,-3332.18 5575.13,-3325.22"/>
<text text-anchor="start" x="5815.03" y="-3297.82" font-family="Times New Roman,serif" font-size="14.00">nephew of</text>
</g>
<!-- Entity15&#45;&gt;Entity66 -->
<g id="edge27" class="edge verb">
<title>Entity15&#45;&gt;Entity66</title>
<path fill="none" stroke="black" d="M6202.3,-3269.24C6122.36,-3319.39 5881.43,-3470.55 5796.75,-3523.68"/>
<polygon fill="black" stroke="black" points="5794.74,-3520.81 5788.13,-3529.08 5798.46,-3526.73 5794.74,-3520.81"/>
<text text-anchor="start" x="5983.52" y="-3400.26" font-family="Times New Roman,serif" font-size="14.00">isa</text>
</g>
<!-- Entity48&#45;&gt;Entity22 -->
<g id="edge10" class="edge verb">
<title>Entity48&#45;&gt;Entity22</title>
<path fill="none" stroke="black" d="M5473.86,-3344.45C5362.7,-3367.33 5071.66,-3427.25 4969.71,-3448.24"/>
<polygon fill="black" stroke="black" points="4968.98,-3444.81 4959.89,-3450.26 4970.39,-3451.67 4968.98,-3444.81"/>
<text text-anchor="start" x="5160.79" y="-3400.14" font-family="Times New Roman,serif" font-size="14.00">member of</text>
</g>
<!-- Entity82 -->
<g id="node41" class="node entity">
<title>Entity82</title>
<ellipse fill="none" stroke="black" cx="5897.02" cy="-3196.11" rx="50.89" ry="18"/>
<text text-anchor="start" x="5866.02" y="-3192.41" font-family="Times New Roman,serif" font-size="14.00">nikola tesla</text>
</g>
<!-- Entity48&#45;&gt;Entity82 -->
<g id="edge40" class="edge verb">
<title>Entity48&#45;&gt;Entity82</title>
<path fill="none" stroke="black" d="M5553.09,-3322.43C5622.26,-3297.03 5775.4,-3240.78 5851.82,-3212.72"/>
<polygon fill="black" stroke="black" points="5853.45,-3215.84 5861.63,-3209.11 5851.04,-3209.27 5853.45,-3215.84"/>
<text text-anchor="start" x="5661.45" y="-3271.37" font-family="Times New Roman,serif" font-size="14.00">studied</text>
</g>
<!-- Entity5 -->
<g id="node12" class="node entity">
<title>Entity5</title>
<ellipse fill="none" stroke="black" cx="3462.23" cy="-3156.13" rx="56.59" ry="18"/>
<text text-anchor="start" x="3426.73" y="-3152.43" font-family="Times New Roman,serif" font-size="14.00">arthur young</text>
</g>
<!-- Entity5&#45;&gt;Entity8 -->
<g id="edge7" class="edge verb">
<title>Entity5&#45;&gt;Entity8</title>
<path fill="none" stroke="black" d="M3456.08,-3137.82C3450.36,-3120.82 3441.77,-3095.27 3435.23,-3075.79"/>
<polygon fill="black" stroke="black" points="3438.52,-3074.6 3432.02,-3066.24 3431.89,-3076.83 3438.52,-3074.6"/>
<text text-anchor="start" x="3383.65" y="-3110.61" font-family="Times New Roman,serif" font-size="14.00">member&#45;of</text>
</g>
<!-- Entity5&#45;&gt;Entity67 -->
<g id="edge18" class="edge verb">
<title>Entity5&#45;&gt;Entity67</title>
<path fill="none" stroke="black" d="M3497.39,-3170.48C3618.01,-3219.72 4015.22,-3381.88 4153.47,-3438.31"/>
<polygon fill="black" stroke="black" points="4152.38,-3441.65 4162.97,-3442.19 4155.03,-3435.17 4152.38,-3441.65"/>
<text text-anchor="start" x="3784.43" y="-3308.2" font-family="Times New Roman,serif" font-size="14.00">studied</text>
</g>
<!-- Entity72 -->
<g id="node28" class="node entity">
<title>Entity72</title>
<ellipse fill="none" stroke="black" cx="2811.77" cy="-3015.04" rx="53.89" ry="18"/>
<text text-anchor="start" x="2778.27" y="-3011.34" font-family="Times New Roman,serif" font-size="14.00">bell aviation</text>
</g>
<!-- Entity5&#45;&gt;Entity72 -->
<g id="edge24" class="edge verb">
<title>Entity5&#45;&gt;Entity72</title>
<path fill="none" stroke="black" d="M3415.45,-3145.99C3298.32,-3120.58 2992.81,-3054.31 2867.07,-3027.04"/>
<polygon fill="black" stroke="black" points="2867.77,-3023.61 2857.26,-3024.91 2866.29,-3030.45 2867.77,-3023.61"/>
<text text-anchor="start" x="3100.26" y="-3090.31" font-family="Times New Roman,serif" font-size="14.00">created</text>
</g>
<!-- Entity1 -->
<g id="node13" class="node entity">
<title>Entity1</title>
<ellipse fill="none" stroke="black" cx="3641.09" cy="-3378.62" rx="64.19" ry="18"/>
<text text-anchor="start" x="3599.59" y="-3374.92" font-family="Times New Roman,serif" font-size="14.00">andre puharich</text>
</g>
<!-- Entity1&#45;&gt;Entity2 -->
<g id="edge8" class="edge verb">
<title>Entity1&#45;&gt;Entity2</title>
<path fill="none" stroke="black" d="M3658.59,-3361.26C3676.82,-3343.17 3705.52,-3314.69 3725.89,-3294.48"/>
<polygon fill="black" stroke="black" points="3728.62,-3296.7 3733.26,-3287.17 3723.69,-3291.73 3728.62,-3296.7"/>
<text text-anchor="start" x="3632.24" y="-3331.67" font-family="Times New Roman,serif" font-size="14.00">sponsored</text>
</g>
<!-- Entity7 -->
<g id="node14" class="node entity">
<title>Entity7</title>
<ellipse fill="none" stroke="black" cx="3710.71" cy="-3734.57" rx="68.49" ry="18"/>
<text text-anchor="start" x="3666.21" y="-3730.87" font-family="Times New Roman,serif" font-size="14.00">jeffrey mishlove</text>
</g>
<!-- Entity7&#45;&gt;Entity2 -->
<g id="edge9" class="edge verb">
<title>Entity7&#45;&gt;Entity2</title>
<path fill="none" stroke="black" d="M3712.25,-3716.38C3718.28,-3645.19 3740.29,-3385.21 3747.61,-3298.74"/>
<polygon fill="black" stroke="black" points="3751.11,-3298.89 3748.46,-3288.63 3744.13,-3298.3 3751.11,-3298.89"/>
<text text-anchor="start" x="3674.93" y="-3511.36" font-family="Times New Roman,serif" font-size="14.00">promoted</text>
</g>
<!-- Entity7&#45;&gt;Entity67 -->
<g id="edge19" class="edge verb">
<title>Entity7&#45;&gt;Entity67</title>
<path fill="none" stroke="black" d="M3745.83,-3718.91C3837.14,-3672.22 4080.85,-3534.81 4169.03,-3480.34"/>
<polygon fill="black" stroke="black" points="4170.92,-3483.29 4177.55,-3475.03 4167.22,-3477.35 4170.92,-3483.29"/>
<text text-anchor="start" x="3916.43" y="-3603.43" font-family="Times New Roman,serif" font-size="14.00">studied</text>
</g>
<!-- Entity7&#45;&gt;Entity67 -->
<g id="edge26" class="edge verb">
<title>Entity7&#45;&gt;Entity67</title>
<path fill="none" stroke="black" d="M3734.49,-3717.48C3811.57,-3668.92 4055.23,-3531.23 4156.56,-3478.56"/>
<polygon fill="black" stroke="black" points="4158.34,-3481.58 4165.62,-3473.88 4155.13,-3475.36 4158.34,-3481.58"/>
<text text-anchor="start" x="3881.52" y="-3586.82" font-family="Times New Roman,serif" font-size="14.00">investigates</text>
</g>
<!-- Entity30 -->
<g id="node15" class="node entity">
<title>Entity30</title>
<ellipse fill="none" stroke="black" cx="2066" cy="-3014.89" rx="74.99" ry="18"/>
<text text-anchor="start" x="2016.5" y="-3011.19" font-family="Times New Roman,serif" font-size="14.00">walter dornberger</text>
</g>
<!-- Entity30&#45;&gt;Entity28 -->
<g id="edge11" class="edge verb">
<title>Entity30&#45;&gt;Entity28</title>
<path fill="none" stroke="black" d="M1997.48,-3007.63C1865.38,-2993.65 1578.99,-2963.32 1470.96,-2951.88"/>
<polygon fill="black" stroke="black" points="1471.09,-2948.37 1460.78,-2950.8 1470.35,-2955.34 1471.09,-2948.37"/>
<text text-anchor="start" x="1673.22" y="-2983.56" font-family="Times New Roman,serif" font-size="14.00">member of</text>
</g>
<!-- Entity30&#45;&gt;Entity72 -->
<g id="edge35" class="edge verb">
<title>Entity30&#45;&gt;Entity72</title>
<path fill="none" stroke="black" d="M2138.86,-3019.12C2284.78,-3022.61 2610.64,-3022.6 2748.37,-3019"/>
<polygon fill="black" stroke="black" points="2748.85,-3022.49 2758.75,-3018.72 2748.65,-3015.49 2748.85,-3022.49"/>
<text text-anchor="start" x="2364.62" y="-3022.86" font-family="Times New Roman,serif" font-size="14.00">vice&#45;president</text>
</g>
<!-- Entity30&#45;&gt;Entity72 -->
<g id="edge49" class="edge verb">
<title>Entity30&#45;&gt;Entity72</title>
<path fill="none" stroke="black" d="M2138.87,-3010.69C2284.79,-3007.26 2610.65,-3007.41 2748.37,-3011.05"/>
<polygon fill="black" stroke="black" points="2748.65,-3014.56 2758.75,-3011.35 2748.85,-3007.57 2748.65,-3014.56"/>
<text text-anchor="start" x="2387.62" y="-2999.67" font-family="Times New Roman,serif" font-size="14.00">worked at</text>
</g>
<!-- Entity76 -->
<g id="node35" class="node entity">
<title>Entity76</title>
<ellipse fill="none" stroke="black" cx="2419.61" cy="-3123.05" rx="90.98" ry="18"/>
<text text-anchor="start" x="2357.61" y="-3119.35" font-family="Times New Roman,serif" font-size="14.00">nsdap rocket program</text>
</g>
<!-- Entity30&#45;&gt;Entity76 -->
<g id="edge36" class="edge verb">
<title>Entity30&#45;&gt;Entity76</title>
<path fill="none" stroke="black" d="M2112.59,-3029.14C2176.23,-3048.6 2290.36,-3083.51 2360.11,-3104.85"/>
<polygon fill="black" stroke="black" points="2359.48,-3108.32 2370.06,-3107.89 2361.52,-3101.62 2359.48,-3108.32"/>
<text text-anchor="start" x="2195.35" y="-3070.79" font-family="Times New Roman,serif" font-size="14.00">created</text>
</g>
<!-- Entity104 -->
<g id="node55" class="node entity">
<title>Entity104</title>
<ellipse fill="none" stroke="black" cx="1566.43" cy="-3305.8" rx="65.79" ry="18"/>
<text text-anchor="start" x="1523.93" y="-3302.1" font-family="Times New Roman,serif" font-size="14.00">x series aircraft</text>
</g>
<!-- Entity30&#45;&gt;Entity104 -->
<g id="edge59" class="edge verb">
<title>Entity30&#45;&gt;Entity104</title>
<path fill="none" stroke="black" d="M2037.35,-3031.57C1951.89,-3081.34 1698.8,-3228.72 1603.39,-3284.28"/>
<polygon fill="black" stroke="black" points="1601.54,-3281.3 1594.66,-3289.36 1605.06,-3287.35 1601.54,-3281.3"/>
<text text-anchor="start" x="1779.37" y="-3161.73" font-family="Times New Roman,serif" font-size="14.00">created</text>
</g>
<!-- Entity32 -->
<g id="node16" class="node entity">
<title>Entity32</title>
<ellipse fill="none" stroke="black" cx="2330.12" cy="-3231.02" rx="46.29" ry="18"/>
<text text-anchor="start" x="2302.62" y="-3227.32" font-family="Times New Roman,serif" font-size="14.00">van braun</text>
</g>
<!-- Entity32&#45;&gt;Entity30 -->
<g id="edge12" class="edge verb">
<title>Entity32&#45;&gt;Entity30</title>
<path fill="none" stroke="black" d="M2309.83,-3214.42C2263.41,-3176.43 2149.32,-3083.07 2095.29,-3038.85"/>
<polygon fill="black" stroke="black" points="2097.41,-3036.07 2087.46,-3032.45 2092.98,-3041.49 2097.41,-3036.07"/>
<text text-anchor="start" x="2139.56" y="-3130.44" font-family="Times New Roman,serif" font-size="14.00">worked for</text>
</g>
<!-- Entity32&#45;&gt;Entity76 -->
<g id="edge48" class="edge verb">
<title>Entity32&#45;&gt;Entity76</title>
<path fill="none" stroke="black" d="M2344.49,-3213.67C2359,-3196.17 2381.56,-3168.95 2398.18,-3148.9"/>
<polygon fill="black" stroke="black" points="2400.98,-3151.01 2404.67,-3141.07 2395.59,-3146.54 2400.98,-3151.01"/>
<text text-anchor="start" x="2315.34" y="-3185.09" font-family="Times New Roman,serif" font-size="14.00">worked at</text>
</g>
<!-- Entity29 -->
<g id="node17" class="node entity">
<title>Entity29</title>
<ellipse fill="none" stroke="black" cx="6227.63" cy="-4019.61" rx="37.89" ry="18"/>
<text text-anchor="start" x="6206.63" y="-4015.91" font-family="Times New Roman,serif" font-size="14.00">hunt oil</text>
</g>
<!-- Entity36 -->
<g id="node18" class="node entity">
<title>Entity36</title>
<ellipse fill="none" stroke="black" cx="5826.47" cy="-3650.49" rx="77.99" ry="18"/>
<text text-anchor="start" x="5774.47" y="-3646.79" font-family="Times New Roman,serif" font-size="14.00">dwight eisenhower</text>
</g>
<!-- Entity29&#45;&gt;Entity36 -->
<g id="edge13" class="edge verb">
<title>Entity29&#45;&gt;Entity36</title>
<path fill="none" stroke="black" d="M6210.14,-4003.51C6146.99,-3945.41 5930.5,-3746.21 5853.73,-3675.58"/>
<polygon fill="black" stroke="black" points="5855.64,-3672.57 5845.91,-3668.38 5850.9,-3677.73 5855.64,-3672.57"/>
<text text-anchor="start" x="5991.93" y="-3843.34" font-family="Times New Roman,serif" font-size="14.00">funded</text>
</g>
<!-- Entity36&#45;&gt;Entity66 -->
<g id="edge34" class="edge verb">
<title>Entity36&#45;&gt;Entity66</title>
<path fill="none" stroke="black" d="M5816.36,-3632.15C5806.74,-3614.68 5792.15,-3588.2 5781.31,-3568.52"/>
<polygon fill="black" stroke="black" points="5784.37,-3566.81 5776.47,-3559.74 5778.23,-3570.19 5784.37,-3566.81"/>
<text text-anchor="start" x="5779.84" y="-3604.14" font-family="Times New Roman,serif" font-size="14.00">is a</text>
</g>
<!-- Entity11 -->
<g id="node19" class="node entity">
<title>Entity11</title>
<ellipse fill="none" stroke="black" cx="5613.01" cy="-3088.23" rx="56.59" ry="18"/>
<text text-anchor="start" x="5577.51" y="-3084.53" font-family="Times New Roman,serif" font-size="14.00">harry truman</text>
</g>
<!-- Entity11&#45;&gt;Entity66 -->
<g id="edge14" class="edge verb">
<title>Entity11&#45;&gt;Entity66</title>
<path fill="none" stroke="black" d="M5619.14,-3106.31C5642.86,-3176.31 5728.75,-3429.78 5757.48,-3514.55"/>
<polygon fill="black" stroke="black" points="5754.24,-3515.91 5760.77,-3524.26 5760.87,-3513.66 5754.24,-3515.91"/>
<text text-anchor="start" x="5672.31" y="-3314.23" font-family="Times New Roman,serif" font-size="14.00">isa</text>
</g>
<!-- Entity69 -->
<g id="node24" class="node entity">
<title>Entity69</title>
<ellipse fill="none" stroke="black" cx="5484.02" cy="-2606.54" rx="55.79" ry="18"/>
<text text-anchor="start" x="5449.02" y="-2602.84" font-family="Times New Roman,serif" font-size="14.00">freemasonry</text>
</g>
<!-- Entity11&#45;&gt;Entity69 -->
<g id="edge17" class="edge verb">
<title>Entity11&#45;&gt;Entity69</title>
<path fill="none" stroke="black" d="M5608.19,-3070.22C5588.65,-2997.27 5515.3,-2723.33 5491.51,-2634.52"/>
<polygon fill="black" stroke="black" points="5494.83,-2633.39 5488.87,-2624.64 5488.07,-2635.2 5494.83,-2633.39"/>
<text text-anchor="start" x="5488.85" y="-2856.17" font-family="Times New Roman,serif" font-size="14.00">member of</text>
</g>
<!-- Entity63 -->
<g id="node21" class="node entity">
<title>Entity63</title>
<ellipse fill="none" stroke="black" cx="5973.48" cy="-4694.39" rx="53.89" ry="18"/>
<text text-anchor="start" x="5939.98" y="-4690.69" font-family="Times New Roman,serif" font-size="14.00">edgar casey</text>
</g>
<!-- Entity59 -->
<g id="node22" class="node entity">
<title>Entity59</title>
<ellipse fill="none" stroke="black" cx="5956.37" cy="-4127.62" rx="71.49" ry="18"/>
<text text-anchor="start" x="5909.37" y="-4123.92" font-family="Times New Roman,serif" font-size="14.00">woodrow wilson</text>
</g>
<!-- Entity63&#45;&gt;Entity59 -->
<g id="edge15" class="edge verb">
<title>Entity63&#45;&gt;Entity59</title>
<path fill="none" stroke="black" d="M5972.93,-4676.18C5970.45,-4593.9 5960.26,-4256.63 5957.23,-4156.06"/>
<polygon fill="black" stroke="black" points="5960.71,-4155.66 5956.91,-4145.77 5953.72,-4155.87 5960.71,-4155.66"/>
<text text-anchor="start" x="5923.08" y="-4419.92" font-family="Times New Roman,serif" font-size="14.00">advises</text>
</g>
<!-- Entity59&#45;&gt;Entity66 -->
<g id="edge30" class="edge verb">
<title>Entity59&#45;&gt;Entity66</title>
<path fill="none" stroke="black" d="M5950.49,-4109.47C5923.2,-4025.16 5808.76,-3671.67 5775.82,-3569.91"/>
<polygon fill="black" stroke="black" points="5779.13,-3568.77 5772.72,-3560.34 5772.47,-3570.93 5779.13,-3568.77"/>
<text text-anchor="start" x="5847.16" y="-3843.49" font-family="Times New Roman,serif" font-size="14.00">isa</text>
</g>
<!-- Entity92 -->
<g id="node50" class="node entity">
<title>Entity92</title>
<ellipse fill="none" stroke="black" cx="6349.7" cy="-4619.02" rx="71.49" ry="18"/>
<text text-anchor="start" x="6302.7" y="-4615.32" font-family="Times New Roman,serif" font-size="14.00">leauge of nations</text>
</g>
<!-- Entity59&#45;&gt;Entity92 -->
<g id="edge54" class="edge verb">
<title>Entity59&#45;&gt;Entity92</title>
<path fill="none" stroke="black" d="M5970.6,-4145.4C6030.1,-4219.75 6259.15,-4505.89 6329.21,-4593.42"/>
<polygon fill="black" stroke="black" points="6326.51,-4595.64 6335.49,-4601.26 6331.97,-4591.27 6326.51,-4595.64"/>
<text text-anchor="start" x="6108.91" y="-4373.21" font-family="Times New Roman,serif" font-size="14.00">created</text>
</g>
<!-- Entity18 -->
<g id="node26" class="node entity">
<title>Entity18</title>
<ellipse fill="none" stroke="black" cx="6000.71" cy="-3815.43" rx="35.19" ry="18"/>
<text text-anchor="start" x="5981.71" y="-3811.73" font-family="Times New Roman,serif" font-size="14.00">obama</text>
</g>
<!-- Entity18&#45;&gt;Entity66 -->
<g id="edge21" class="edge verb">
<title>Entity18&#45;&gt;Entity66</title>
<path fill="none" stroke="black" d="M5986.43,-3798.76C5946.64,-3752.29 5834.32,-3621.11 5787.65,-3566.61"/>
<polygon fill="black" stroke="black" points="5790.16,-3564.16 5781,-3558.84 5784.85,-3568.72 5790.16,-3564.16"/>
<text text-anchor="start" x="5871.04" y="-3686.49" font-family="Times New Roman,serif" font-size="14.00">isa</text>
</g>
<!-- Entity12 -->
<g id="node27" class="node entity">
<title>Entity12</title>
<ellipse fill="none" stroke="black" cx="6235.8" cy="-3597.07" rx="58.49" ry="18"/>
<text text-anchor="start" x="6198.8" y="-3593.37" font-family="Times New Roman,serif" font-size="14.00">richard nixon</text>
</g>
<!-- Entity12&#45;&gt;Entity66 -->
<g id="edge22" class="edge verb">
<title>Entity12&#45;&gt;Entity66</title>
<path fill="none" stroke="black" d="M6181.1,-3590.69C6085.9,-3579.59 5891.89,-3556.97 5807.56,-3547.13"/>
<polygon fill="black" stroke="black" points="5807.94,-3543.65 5797.6,-3545.97 5807.13,-3550.61 5807.94,-3543.65"/>
<text text-anchor="start" x="5978.33" y="-3572.71" font-family="Times New Roman,serif" font-size="14.00">isa</text>
</g>
<!-- Entity24 -->
<g id="node29" class="node entity">
<title>Entity24</title>
<ellipse fill="none" stroke="black" cx="4129.5" cy="-3565.97" rx="63.89" ry="18"/>
<text text-anchor="start" x="4088.5" y="-3562.27" font-family="Times New Roman,serif" font-size="14.00">robert bigelow</text>
</g>
<!-- Entity24&#45;&gt;Entity7 -->
<g id="edge25" class="edge verb">
<title>Entity24&#45;&gt;Entity7</title>
<path fill="none" stroke="black" d="M4092.7,-3580.79C4016.5,-3611.46 3841.55,-3681.9 3757.48,-3715.74"/>
<polygon fill="black" stroke="black" points="3756.15,-3712.5 3748.18,-3719.48 3758.76,-3719 3756.15,-3712.5"/>
<text text-anchor="start" x="3893.09" y="-3652.06" font-family="Times New Roman,serif" font-size="14.00">funds</text>
</g>
<!-- Entity24&#45;&gt;Entity67 -->
<g id="edge45" class="edge verb">
<title>Entity24&#45;&gt;Entity67</title>
<path fill="none" stroke="black" d="M4141.37,-3548.12C4152.93,-3530.76 4170.63,-3504.16 4183.82,-3484.34"/>
<polygon fill="black" stroke="black" points="4186.9,-3486.03 4189.52,-3475.76 4181.07,-3482.15 4186.9,-3486.03"/>
<text text-anchor="start" x="4098.6" y="-3520.03" font-family="Times New Roman,serif" font-size="14.00">investigates</text>
</g>
<!-- Entity44 -->
<g id="node30" class="node entity">
<title>Entity44</title>
<ellipse fill="none" stroke="black" cx="6986.62" cy="-3030.96" rx="58.49" ry="18"/>
<text text-anchor="start" x="6949.62" y="-3027.26" font-family="Times New Roman,serif" font-size="14.00">steve bannon</text>
</g>
<!-- Entity44&#45;&gt;Entity15 -->
<g id="edge28" class="edge verb">
<title>Entity44&#45;&gt;Entity15</title>
<path fill="none" stroke="black" d="M6938.79,-3041.34C6802.13,-3076.79 6411.1,-3191.21 6275.45,-3235.43"/>
<polygon fill="black" stroke="black" points="6274.16,-3232.17 6265.76,-3238.62 6276.35,-3238.82 6274.16,-3232.17"/>
<text text-anchor="start" x="6552.12" y="-3142.19" font-family="Times New Roman,serif" font-size="14.00">promoted</text>
</g>
<!-- Entity44&#45;&gt;Entity15 -->
<g id="edge64" class="edge verb">
<title>Entity44&#45;&gt;Entity15</title>
<path fill="none" stroke="black" d="M6949.9,-3044.99C6828,-3085.43 6436.04,-3200.36 6286.84,-3239.69"/>
<polygon fill="black" stroke="black" points="6285.73,-3236.36 6276.95,-3242.28 6287.51,-3243.14 6285.73,-3236.36"/>
<text text-anchor="start" x="6618.37" y="-3146.14" font-family="Times New Roman,serif" font-size="14.00">advises</text>
</g>
<!-- Entity83 -->
<g id="node40" class="node entity">
<title>Entity83</title>
<ellipse fill="none" stroke="black" cx="7575.58" cy="-3229.34" rx="61.99" ry="18"/>
<text text-anchor="start" x="7536.08" y="-3225.64" font-family="Times New Roman,serif" font-size="14.00">breitbart news</text>
</g>
<!-- Entity44&#45;&gt;Entity83 -->
<g id="edge46" class="edge verb">
<title>Entity44&#45;&gt;Entity83</title>
<path fill="none" stroke="black" d="M7026.18,-3044.29C7130.05,-3079.28 7410.47,-3173.73 7525.4,-3212.45"/>
<polygon fill="black" stroke="black" points="7524.43,-3215.81 7535.02,-3215.69 7526.66,-3209.18 7524.43,-3215.81"/>
<text text-anchor="start" x="7234.79" y="-3132.17" font-family="Times New Roman,serif" font-size="14.00">created</text>
</g>
<!-- Entity89 -->
<g id="node49" class="node entity">
<title>Entity89</title>
<ellipse fill="none" stroke="black" cx="7167.11" cy="-2627.9" rx="35.19" ry="18"/>
<text text-anchor="start" x="7148.11" y="-2624.2" font-family="Times New Roman,serif" font-size="14.00">gurgev</text>
</g>
<!-- Entity44&#45;&gt;Entity89 -->
<g id="edge53" class="edge verb">
<title>Entity44&#45;&gt;Entity89</title>
<path fill="none" stroke="black" d="M6994.61,-3013.12C7023.2,-2949.26 7120.6,-2731.76 7154.98,-2655"/>
<polygon fill="black" stroke="black" points="7158.32,-2656.09 7159.22,-2645.54 7151.93,-2653.23 7158.32,-2656.09"/>
<text text-anchor="start" x="7033.79" y="-2837.86" font-family="Times New Roman,serif" font-size="14.00">studied</text>
</g>
<!-- Entity91 -->
<g id="node51" class="node entity">
<title>Entity91</title>
<ellipse fill="none" stroke="black" cx="7393.36" cy="-3121.03" rx="38.19" ry="18"/>
<text text-anchor="start" x="7371.86" y="-3117.33" font-family="Times New Roman,serif" font-size="14.00">us navy</text>
</g>
<!-- Entity44&#45;&gt;Entity91 -->
<g id="edge55" class="edge verb">
<title>Entity44&#45;&gt;Entity91</title>
<path fill="none" stroke="black" d="M7034.47,-3041.56C7113.76,-3059.11 7271.26,-3093.99 7348.52,-3111.1"/>
<polygon fill="black" stroke="black" points="7347.9,-3114.55 7358.43,-3113.29 7349.42,-3107.71 7347.9,-3114.55"/>
<text text-anchor="start" x="7130.5" y="-3080.13" font-family="Times New Roman,serif" font-size="14.00">member of</text>
</g>
<!-- Entity94 -->
<g id="node53" class="node entity">
<title>Entity94</title>
<ellipse fill="none" stroke="black" cx="7069.49" cy="-2922.91" rx="53.09" ry="18"/>
<text text-anchor="start" x="7036.49" y="-2919.21" font-family="Times New Roman,serif" font-size="14.00">biosphere 2</text>
</g>
<!-- Entity44&#45;&gt;Entity94 -->
<g id="edge57" class="edge verb">
<title>Entity44&#45;&gt;Entity94</title>
<path fill="none" stroke="black" d="M7000.3,-3013.12C7013.82,-2995.5 7034.63,-2968.37 7049.89,-2948.46"/>
<polygon fill="black" stroke="black" points="7052.75,-2950.49 7056.06,-2940.42 7047.2,-2946.23 7052.75,-2950.49"/>
<text text-anchor="start" x="6984.1" y="-2984.59" font-family="Times New Roman,serif" font-size="14.00">created</text>
</g>
<!-- Entity107 -->
<g id="node58" class="node entity">
<title>Entity107</title>
<ellipse fill="none" stroke="black" cx="7504.5" cy="-2717.66" rx="77.19" ry="18"/>
<text text-anchor="start" x="7453" y="-2713.96" font-family="Times New Roman,serif" font-size="14.00">hollywood movies</text>
</g>
<!-- Entity44&#45;&gt;Entity107 -->
<g id="edge61" class="edge verb">
<title>Entity44&#45;&gt;Entity107</title>
<path fill="none" stroke="black" d="M7013.37,-3014.78C7099.44,-2962.71 7369.29,-2799.46 7467.93,-2739.79"/>
<polygon fill="black" stroke="black" points="7469.91,-2742.68 7476.66,-2734.51 7466.29,-2736.69 7469.91,-2742.68"/>
<text text-anchor="start" x="7185.65" y="-2881.08" font-family="Times New Roman,serif" font-size="14.00">produced</text>
</g>
<!-- Entity111 -->
<g id="node59" class="node entity">
<title>Entity111</title>
<ellipse fill="none" stroke="black" cx="7543.16" cy="-2951.11" rx="64.99" ry="18"/>
<text text-anchor="start" x="7501.16" y="-2947.41" font-family="Times New Roman,serif" font-size="14.00">goldman sachs</text>
</g>
<!-- Entity44&#45;&gt;Entity111 -->
<g id="edge66" class="edge verb">
<title>Entity44&#45;&gt;Entity111</title>
<path fill="none" stroke="black" d="M7039.73,-3023.34C7141.3,-3008.77 7362.93,-2976.97 7475.15,-2960.86"/>
<polygon fill="black" stroke="black" points="7475.94,-2964.29 7485.34,-2959.4 7474.94,-2957.36 7475.94,-2964.29"/>
<text text-anchor="start" x="7194.44" y="-2995.9" font-family="Times New Roman,serif" font-size="14.00">worked for</text>
</g>
<!-- Entity33 -->
<g id="node32" class="node entity">
<title>Entity33</title>
<ellipse fill="none" stroke="black" cx="2420.27" cy="-2712.87" rx="57.69" ry="18"/>
<text text-anchor="start" x="2383.77" y="-2709.17" font-family="Times New Roman,serif" font-size="14.00">michael pane</text>
</g>
<!-- Entity33&#45;&gt;Entity30 -->
<g id="edge47" class="edge verb">
<title>Entity33&#45;&gt;Entity30</title>
<path fill="none" stroke="black" d="M2400.21,-2729.98C2340.57,-2780.82 2164.21,-2931.17 2094.66,-2990.46"/>
<polygon fill="black" stroke="black" points="2092.06,-2988.07 2086.72,-2997.22 2096.6,-2993.4 2092.06,-2988.07"/>
<text text-anchor="start" x="2184.43" y="-2864.02" font-family="Times New Roman,serif" font-size="14.00">worked for</text>
</g>
<!-- Entity33&#45;&gt;Entity72 -->
<g id="edge31" class="edge verb">
<title>Entity33&#45;&gt;Entity72</title>
<path fill="none" stroke="black" d="M2442.16,-2729.77C2508.36,-2780.87 2706.59,-2933.86 2782.11,-2992.15"/>
<polygon fill="black" stroke="black" points="2780.22,-2995.11 2790.28,-2998.45 2784.5,-2989.57 2780.22,-2995.11"/>
<text text-anchor="start" x="2556.13" y="-2864.76" font-family="Times New Roman,serif" font-size="14.00">worked at</text>
</g>
<!-- Entity45 -->
<g id="node33" class="node entity">
<title>Entity45</title>
<ellipse fill="none" stroke="black" cx="5969.44" cy="-2885.62" rx="67.69" ry="18"/>
<text text-anchor="start" x="5925.44" y="-2881.92" font-family="Times New Roman,serif" font-size="14.00">abraham lincoln</text>
</g>
<!-- Entity45&#45;&gt;Entity66 -->
<g id="edge32" class="edge verb">
<title>Entity45&#45;&gt;Entity66</title>
<path fill="none" stroke="black" d="M5963.81,-2903.87C5935.59,-2995.39 5809.49,-3404.31 5775.42,-3514.8"/>
<polygon fill="black" stroke="black" points="5772.02,-3513.95 5772.42,-3524.54 5778.71,-3516.01 5772.02,-3513.95"/>
<text text-anchor="start" x="5853.62" y="-3213.14" font-family="Times New Roman,serif" font-size="14.00">isa</text>
</g>
<!-- Entity38 -->
<g id="node34" class="node entity">
<title>Entity38</title>
<ellipse fill="none" stroke="black" cx="6210.01" cy="-2036.55" rx="90.98" ry="18"/>
<text text-anchor="start" x="6148.01" y="-2032.85" font-family="Times New Roman,serif" font-size="14.00">emma hardinge&#45;britten</text>
</g>
<!-- Entity38&#45;&gt;Entity45 -->
<g id="edge33" class="edge verb">
<title>Entity38&#45;&gt;Entity45</title>
<path fill="none" stroke="black" d="M6204.87,-2054.67C6174.14,-2163.13 6014.68,-2725.94 5977.29,-2857.91"/>
<polygon fill="black" stroke="black" points="5973.89,-2857.09 5974.53,-2867.66 5980.62,-2859 5973.89,-2857.09"/>
<text text-anchor="start" x="5992.08" y="-2460.09" font-family="Times New Roman,serif" font-size="14.00">spokesperson for</text>
</g>
<!-- Entity79 -->
<g id="node38" class="node entity">
<title>Entity79</title>
<ellipse fill="none" stroke="black" cx="6563.09" cy="-1615.91" rx="39.79" ry="18"/>
<text text-anchor="start" x="6540.59" y="-1612.21" font-family="Times New Roman,serif" font-size="14.00">medium</text>
</g>
<!-- Entity38&#45;&gt;Entity79 -->
<g id="edge38" class="edge verb">
<title>Entity38&#45;&gt;Entity79</title>
<path fill="none" stroke="black" d="M6224.95,-2018.74C6280.8,-1952.21 6477.36,-1718.05 6542.18,-1640.83"/>
<polygon fill="black" stroke="black" points="6544.98,-1642.94 6548.73,-1633.03 6539.62,-1638.43 6544.98,-1642.94"/>
<text text-anchor="start" x="6367.57" y="-1833.58" font-family="Times New Roman,serif" font-size="14.00">isa</text>
</g>
<!-- Entity86 -->
<g id="node48" class="node entity">
<title>Entity86</title>
<ellipse fill="none" stroke="black" cx="6443.75" cy="-1205.87" rx="85.29" ry="18"/>
<text text-anchor="start" x="6386.25" y="-1202.17" font-family="Times New Roman,serif" font-size="14.00">theosophical society</text>
</g>
<!-- Entity38&#45;&gt;Entity86 -->
<g id="edge65" class="edge verb">
<title>Entity38&#45;&gt;Entity86</title>
<path fill="none" stroke="black" d="M6215.11,-2018.42C6245.17,-1911.58 6399.21,-1364.14 6435.9,-1233.76"/>
<polygon fill="black" stroke="black" points="6439.28,-1234.68 6438.62,-1224.11 6432.54,-1232.78 6439.28,-1234.68"/>
<text text-anchor="start" x="6284.5" y="-1629.89" font-family="Times New Roman,serif" font-size="14.00">created</text>
</g>
<!-- Entity99 -->
<g id="node54" class="node entity">
<title>Entity99</title>
<ellipse fill="none" stroke="black" cx="6125.9" cy="-1445.51" rx="55.79" ry="18"/>
<text text-anchor="start" x="6090.9" y="-1441.81" font-family="Times New Roman,serif" font-size="14.00">orphic circle</text>
</g>
<!-- Entity38&#45;&gt;Entity99 -->
<g id="edge58" class="edge verb">
<title>Entity38&#45;&gt;Entity99</title>
<path fill="none" stroke="black" d="M6207.44,-2018.54C6195.43,-1934.08 6144.62,-1577.06 6129.91,-1473.67"/>
<polygon fill="black" stroke="black" points="6133.36,-1473.08 6128.48,-1463.67 6126.43,-1474.07 6133.36,-1473.08"/>
<text text-anchor="start" x="6107.68" y="-1749.91" font-family="Times New Roman,serif" font-size="14.00">member of</text>
</g>
<!-- Entity42 -->
<g id="node36" class="node entity">
<title>Entity42</title>
<ellipse fill="none" stroke="black" cx="4013.94" cy="-2327.66" rx="53.89" ry="18"/>
<text text-anchor="start" x="3980.44" y="-2323.96" font-family="Times New Roman,serif" font-size="14.00">black magic</text>
</g>
<!-- Entity81 -->
<g id="node37" class="node entity">
<title>Entity81</title>
<ellipse fill="none" stroke="black" cx="4101.66" cy="-2439.64" rx="28.7" ry="18"/>
<text text-anchor="start" x="4087.66" y="-2435.94" font-family="Times New Roman,serif" font-size="14.00">x left</text>
</g>
<!-- Entity42&#45;&gt;Entity81 -->
<g id="edge37" class="edge verb">
<title>Entity42&#45;&gt;Entity81</title>
<path fill="none" stroke="black" d="M4027.64,-2345.16C4042.45,-2364.05 4066.14,-2394.29 4082.72,-2415.45"/>
<polygon fill="black" stroke="black" points="4079.98,-2417.64 4088.9,-2423.36 4085.49,-2413.32 4079.98,-2417.64"/>
<text text-anchor="start" x="3994.18" y="-2384.11" font-family="Times New Roman,serif" font-size="14.00">member of</text>
</g>
<!-- Entity47 -->
<g id="node39" class="node entity">
<title>Entity47</title>
<ellipse fill="none" stroke="black" cx="8143.6" cy="-3342.94" rx="69.59" ry="18"/>
<text text-anchor="start" x="8098.1" y="-3339.24" font-family="Times New Roman,serif" font-size="14.00">andrew breitbart</text>
</g>
<!-- Entity47&#45;&gt;Entity83 -->
<g id="edge39" class="edge verb">
<title>Entity47&#45;&gt;Entity83</title>
<path fill="none" stroke="black" d="M8088.36,-3331.9C7981.71,-3310.57 7748.16,-3263.86 7636.88,-3241.6"/>
<polygon fill="black" stroke="black" points="7637.31,-3238.12 7626.82,-3239.59 7635.94,-3244.99 7637.31,-3238.12"/>
<text text-anchor="start" x="7821.62" y="-3290.55" font-family="Times New Roman,serif" font-size="14.00">created</text>
</g>
<!-- Entity35 -->
<g id="node42" class="node entity">
<title>Entity35</title>
<ellipse fill="none" stroke="black" cx="3999.94" cy="-1667.66" rx="39.79" ry="18"/>
<text text-anchor="start" x="3977.44" y="-1663.96" font-family="Times New Roman,serif" font-size="14.00">crowley</text>
</g>
<!-- Entity80 -->
<g id="node43" class="node entity">
<title>Entity80</title>
<ellipse fill="none" stroke="black" cx="4087.66" cy="-1779.64" rx="38.99" ry="18"/>
<text text-anchor="start" x="4065.66" y="-1775.94" font-family="Times New Roman,serif" font-size="14.00">x magic</text>
</g>
<!-- Entity35&#45;&gt;Entity80 -->
<g id="edge41" class="edge verb">
<title>Entity35&#45;&gt;Entity80</title>
<path fill="none" stroke="black" d="M4013.26,-1684.67C4027.82,-1703.25 4051.28,-1733.2 4067.96,-1754.49"/>
<polygon fill="black" stroke="black" points="4065.29,-1756.76 4074.21,-1762.47 4070.8,-1752.44 4065.29,-1756.76"/>
<text text-anchor="start" x="3979.61" y="-1723.38" font-family="Times New Roman,serif" font-size="14.00">member of</text>
</g>
<!-- Entity19 -->
<g id="node44" class="node entity">
<title>Entity19</title>
<ellipse fill="none" stroke="black" cx="5423.52" cy="-3557.66" rx="31.4" ry="18"/>
<text text-anchor="start" x="5407.52" y="-3553.96" font-family="Times New Roman,serif" font-size="14.00">carter</text>
</g>
<!-- Entity19&#45;&gt;Entity66 -->
<g id="edge44" class="edge verb">
<title>Entity19&#45;&gt;Entity66</title>
<path fill="none" stroke="black" d="M5454.91,-3556.26C5517.11,-3553.5 5656.03,-3547.32 5725.58,-3544.23"/>
<polygon fill="black" stroke="black" points="5725.89,-3547.72 5735.73,-3543.78 5725.58,-3540.73 5725.89,-3547.72"/>
<text text-anchor="start" x="5574.25" y="-3554.05" font-family="Times New Roman,serif" font-size="14.00">isa</text>
</g>
<!-- Entity19&#45;&gt;Entity90 -->
<g id="edge56" class="edge verb">
<title>Entity19&#45;&gt;Entity90</title>
<path fill="none" stroke="black" d="M5395.5,-3565.77C5335.1,-3583.26 5192.76,-3624.48 5126.53,-3643.66"/>
<polygon fill="black" stroke="black" points="5125.21,-3640.4 5116.58,-3646.54 5127.16,-3647.12 5125.21,-3640.4"/>
<text text-anchor="start" x="5206.02" y="-3608.52" font-family="Times New Roman,serif" font-size="14.00">witnessed</text>
</g>
<!-- Entity27 -->
<g id="node45" class="node entity">
<title>Entity27</title>
<ellipse fill="none" stroke="black" cx="36.48" cy="-2765.88" rx="36.29" ry="18"/>
<text text-anchor="start" x="16.48" y="-2762.18" font-family="Times New Roman,serif" font-size="14.00">oswald</text>
</g>
<!-- Entity34 -->
<g id="node46" class="node entity">
<title>Entity34</title>
<ellipse fill="none" stroke="black" cx="478.59" cy="-2803.93" rx="59.29" ry="18"/>
<text text-anchor="start" x="441.09" y="-2800.23" font-family="Times New Roman,serif" font-size="14.00">guy bannister</text>
</g>
<!-- Entity27&#45;&gt;Entity34 -->
<g id="edge50" class="edge verb">
<title>Entity27&#45;&gt;Entity34</title>
<path fill="none" stroke="black" d="M72.66,-2769C146.68,-2775.37 316.41,-2789.97 411.28,-2798.14"/>
<polygon fill="black" stroke="black" points="411.08,-2801.63 421.35,-2799.01 411.68,-2794.66 411.08,-2801.63"/>
<text text-anchor="start" x="178.97" y="-2787.37" font-family="Times New Roman,serif" font-size="14.00">worked for</text>
</g>
<!-- Entity34&#45;&gt;Entity75 -->
<g id="edge51" class="edge verb">
<title>Entity34&#45;&gt;Entity75</title>
<path fill="none" stroke="black" d="M534.7,-2809.94C633.92,-2820.57 838.68,-2842.5 932.08,-2852.5"/>
<polygon fill="black" stroke="black" points="931.78,-2855.99 942.1,-2853.57 932.53,-2849.03 931.78,-2855.99"/>
<text text-anchor="start" x="672.39" y="-2835.02" font-family="Times New Roman,serif" font-size="14.00">member of</text>
</g>
<!-- Entity64 -->
<g id="node47" class="node entity">
<title>Entity64</title>
<ellipse fill="none" stroke="black" cx="6344.91" cy="-564.3" rx="73.39" ry="18"/>
<text text-anchor="start" x="6296.41" y="-560.6" font-family="Times New Roman,serif" font-size="14.00">madam blavatsky</text>
</g>
<!-- Entity64&#45;&gt;Entity86 -->
<g id="edge52" class="edge verb">
<title>Entity64&#45;&gt;Entity86</title>
<path fill="none" stroke="black" d="M6347.7,-582.47C6361.54,-672.26 6422.62,-1068.71 6439.45,-1177.92"/>
<polygon fill="black" stroke="black" points="6435.99,-1178.51 6440.98,-1187.86 6442.91,-1177.44 6435.99,-1178.51"/>
<text text-anchor="start" x="6352.58" y="-884" font-family="Times New Roman,serif" font-size="14.00">created</text>
</g>
<!-- Entity60 -->
<g id="node56" class="node entity">
<title>Entity60</title>
<ellipse fill="none" stroke="black" cx="6740.91" cy="-616.29" rx="58.49" ry="18"/>
<text text-anchor="start" x="6703.91" y="-612.59" font-family="Times New Roman,serif" font-size="14.00">rudolf steiner</text>
</g>
<!-- Entity60&#45;&gt;Entity86 -->
<g id="edge63" class="edge verb">
<title>Entity60&#45;&gt;Entity86</title>
<path fill="none" stroke="black" d="M6731.86,-634.26C6689.27,-718.76 6508.8,-1076.81 6457.44,-1178.71"/>
<polygon fill="black" stroke="black" points="6454.26,-1177.25 6452.88,-1187.75 6460.51,-1180.4 6454.26,-1177.25"/>
<text text-anchor="start" x="6528.65" y="-910.28" font-family="Times New Roman,serif" font-size="14.00">memberr of</text>
</g>
<!-- Entity93 -->
<g id="node57" class="node entity">
<title>Entity93</title>
<ellipse fill="none" stroke="black" cx="7002.16" cy="-17.84" rx="102.08" ry="18"/>
<text text-anchor="start" x="6931.66" y="-14.14" font-family="Times New Roman,serif" font-size="14.00">anthroposophical society</text>
</g>
<!-- Entity60&#45;&gt;Entity93 -->
<g id="edge60" class="edge verb">
<title>Entity60&#45;&gt;Entity93</title>
<path fill="none" stroke="black" d="M6748.73,-598.38C6785.91,-513.21 6944.89,-149.04 6990.12,-45.43"/>
<polygon fill="black" stroke="black" points="6993.46,-46.53 6994.25,-35.97 6987.04,-43.73 6993.46,-46.53"/>
<text text-anchor="start" x="6828.42" y="-325.71" font-family="Times New Roman,serif" font-size="14.00">created</text>
</g>
<!-- Entity109 -->
<g id="node60" class="node entity">
<title>Entity109</title>
<ellipse fill="none" stroke="black" cx="3326.94" cy="-1997.66" rx="27" ry="18"/>
<text text-anchor="start" x="3323.44" y="-1993.96" font-family="Times New Roman,serif" font-size="14.00">s</text>
</g>
<!-- Entity112 -->
<g id="node61" class="node entity">
<title>Entity112</title>
<ellipse fill="none" stroke="black" cx="3414.66" cy="-2109.64" rx="27" ry="18"/>
<text text-anchor="start" x="3410.66" y="-2105.94" font-family="Times New Roman,serif" font-size="14.00">o</text>
</g>
<!-- Entity109&#45;&gt;Entity112 -->
<g id="edge67" class="edge verb">
<title>Entity109&#45;&gt;Entity112</title>
<path fill="none" stroke="black" d="M3339.51,-2013.7C3354.23,-2032.5 3378.76,-2063.82 3395.78,-2085.53"/>
<polygon fill="black" stroke="black" points="3393.19,-2087.91 3402.11,-2093.62 3398.7,-2083.59 3393.19,-2087.91"/>
<text text-anchor="start" x="3360.64" y="-2053.42" font-family="Times New Roman,serif" font-size="14.00">v</text>
</g>
</g>
</svg>
