<?xml version="1.0" encoding="UTF-8" standalone="no"?>
<?xml-stylesheet href="./styles.css" type="text/css"?>
<!DOCTYPE svg PUBLIC "-//W3C//DTD SVG 1.1//EN"
 "http://www.w3.org/Graphics/SVG/1.1/DTD/svg11.dtd">
<!-- Generated by graphviz version 2.47.3 (20210619.1520)
 -->
<!-- Title: G Pages: 1 -->
<svg width="7140pt" height="4540pt"
 viewBox="0.00 0.00 7140.00 4540.00" xmlns="http://www.w3.org/2000/svg" xmlns:xlink="http://www.w3.org/1999/xlink">
<g id="graph0" class="graph" transform="scale(1 1) rotate(0) translate(4 4536)">
<title>G</title>
<polygon fill="white" stroke="transparent" points="-4,4 -4,-4536 7136,-4536 7136,4 -4,4"/>
<!-- Entity113 -->
<g id="node1" class="node entity">
<title>Entity113</title>
<ellipse fill="none" stroke="black" cx="4603.28" cy="-2658.25" rx="41.69" ry="18"/>
<text text-anchor="start" x="4579.28" y="-2654.55" font-family="Times New Roman,serif" font-size="14.00">uri geller</text>
</g>
<!-- Entity124 -->
<g id="node2" class="node entity">
<title>Entity124</title>
<ellipse fill="none" stroke="black" cx="4573.99" cy="-2550.29" rx="38.19" ry="18"/>
<text text-anchor="start" x="4552.49" y="-2546.59" font-family="Times New Roman,serif" font-size="14.00">the nine</text>
</g>
<!-- Entity113&#45;&gt;Entity124 -->
<g id="edge1" class="edge verb">
<title>Entity113&#45;&gt;Entity124</title>
<path fill="none" stroke="black" d="M4598.31,-2639.93C4593.72,-2623 4586.83,-2597.6 4581.55,-2578.15"/>
<polygon fill="black" stroke="black" points="4584.88,-2577.07 4578.89,-2568.33 4578.13,-2578.9 4584.88,-2577.07"/>
<text text-anchor="start" x="4485.93" y="-2612.84" font-family="Times New Roman,serif" font-size="14.00">claiemd to channel</text>
</g>
<!-- Entity181 -->
<g id="node11" class="node entity">
<title>Entity181</title>
<ellipse fill="none" stroke="black" cx="4884.39" cy="-2065.93" rx="94.48" ry="18"/>
<text text-anchor="start" x="4819.89" y="-2062.23" font-family="Times New Roman,serif" font-size="14.00">egyptian gods in a ship</text>
</g>
<!-- Entity124&#45;&gt;Entity181 -->
<g id="edge10" class="edge verb">
<title>Entity124&#45;&gt;Entity181</title>
<path fill="none" stroke="black" d="M4585.04,-2533.05C4631.45,-2460.62 4810.88,-2180.63 4867.3,-2092.59"/>
<polygon fill="black" stroke="black" points="4870.37,-2094.29 4872.82,-2083.98 4864.48,-2090.51 4870.37,-2094.29"/>
<text text-anchor="start" x="4622.17" y="-2316.62" font-family="Times New Roman,serif" font-size="14.00">claimed to channel</text>
</g>
<!-- Entity112 -->
<g id="node3" class="node entity">
<title>Entity112</title>
<ellipse fill="none" stroke="black" cx="4150.95" cy="-2870.28" rx="56.59" ry="18"/>
<text text-anchor="start" x="4115.45" y="-2866.58" font-family="Times New Roman,serif" font-size="14.00">arthur young</text>
</g>
<!-- Entity112&#45;&gt;Entity124 -->
<g id="edge7" class="edge verb">
<title>Entity112&#45;&gt;Entity124</title>
<path fill="none" stroke="black" d="M4173.1,-2853.53C4244.12,-2799.8 4466.16,-2631.85 4545.48,-2571.86"/>
<polygon fill="black" stroke="black" points="4547.7,-2574.57 4553.56,-2565.74 4543.48,-2568.98 4547.7,-2574.57"/>
<text text-anchor="start" x="4297.29" y="-2716.49" font-family="Times New Roman,serif" font-size="14.00">member&#45;of</text>
</g>
<!-- Entity178 -->
<g id="node4" class="node entity">
<title>Entity178</title>
<ellipse fill="none" stroke="black" cx="4639.94" cy="-3331.73" rx="53.89" ry="18"/>
<text text-anchor="start" x="4606.44" y="-3328.03" font-family="Times New Roman,serif" font-size="14.00">bell aviation</text>
</g>
<!-- Entity112&#45;&gt;Entity178 -->
<g id="edge2" class="edge verb">
<title>Entity112&#45;&gt;Entity178</title>
<path fill="none" stroke="black" d="M4169.23,-2887.53C4244.12,-2958.21 4527.7,-3225.8 4614.52,-3307.74"/>
<polygon fill="black" stroke="black" points="4612.16,-3310.32 4621.84,-3314.64 4616.97,-3305.23 4612.16,-3310.32"/>
<text text-anchor="start" x="4350.87" y="-3101.43" font-family="Times New Roman,serif" font-size="14.00">created</text>
</g>
<!-- Entity11 -->
<g id="node6" class="node entity">
<title>Entity11</title>
<ellipse fill="none" stroke="black" cx="3391" cy="-2608.69" rx="77.19" ry="18"/>
<text text-anchor="start" x="3339.5" y="-2604.99" font-family="Times New Roman,serif" font-size="14.00">psi&#45;consciousness</text>
</g>
<!-- Entity112&#45;&gt;Entity11 -->
<g id="edge9" class="edge verb">
<title>Entity112&#45;&gt;Entity11</title>
<path fill="none" stroke="black" d="M4112.48,-2857.04C3986.83,-2813.79 3588.29,-2676.6 3443.89,-2626.89"/>
<polygon fill="black" stroke="black" points="3444.94,-2623.55 3434.35,-2623.61 3442.66,-2630.17 3444.94,-2623.55"/>
<text text-anchor="start" x="3737.19" y="-2745.77" font-family="Times New Roman,serif" font-size="14.00">studied</text>
</g>
<!-- Entity115 -->
<g id="node5" class="node entity">
<title>Entity115</title>
<ellipse fill="none" stroke="black" cx="4049.78" cy="-2594.68" rx="68.49" ry="18"/>
<text text-anchor="start" x="4005.28" y="-2590.98" font-family="Times New Roman,serif" font-size="14.00">jeffrey mishlove</text>
</g>
<!-- Entity115&#45;&gt;Entity113 -->
<g id="edge5" class="edge verb">
<title>Entity115&#45;&gt;Entity113</title>
<path fill="none" stroke="black" d="M4112.46,-2601.88C4223.29,-2614.61 4451.66,-2640.83 4552.97,-2652.47"/>
<polygon fill="black" stroke="black" points="4552.62,-2655.95 4562.95,-2653.62 4553.42,-2649 4552.62,-2655.95"/>
<text text-anchor="start" x="4277.72" y="-2630.97" font-family="Times New Roman,serif" font-size="14.00">promoted</text>
</g>
<!-- Entity115&#45;&gt;Entity11 -->
<g id="edge3" class="edge verb">
<title>Entity115&#45;&gt;Entity11</title>
<path fill="none" stroke="black" d="M3982.28,-2591.82C3860.84,-2591.25 3605.92,-2596.55 3474.02,-2602.25"/>
<polygon fill="black" stroke="black" points="3473.8,-2598.76 3463.96,-2602.7 3474.11,-2605.75 3473.8,-2598.76"/>
<text text-anchor="start" x="3687.15" y="-2600.84" font-family="Times New Roman,serif" font-size="14.00">studied</text>
</g>
<!-- Entity115&#45;&gt;Entity11 -->
<g id="edge25" class="edge verb">
<title>Entity115&#45;&gt;Entity11</title>
<path fill="none" stroke="black" d="M3984.9,-2600.29C3865.61,-2606.01 3611.47,-2611.58 3477.6,-2611.59"/>
<polygon fill="black" stroke="black" points="3477.39,-2608.09 3467.39,-2611.57 3477.39,-2615.09 3477.39,-2608.09"/>
<text text-anchor="start" x="3731.25" y="-2609.74" font-family="Times New Roman,serif" font-size="14.00">investigates</text>
</g>
<!-- Entity114 -->
<g id="node7" class="node entity">
<title>Entity114</title>
<ellipse fill="none" stroke="black" cx="5011.15" cy="-2290.93" rx="74.99" ry="18"/>
<text text-anchor="start" x="4961.65" y="-2287.23" font-family="Times New Roman,serif" font-size="14.00">gene roddenberry</text>
</g>
<!-- Entity114&#45;&gt;Entity124 -->
<g id="edge4" class="edge verb">
<title>Entity114&#45;&gt;Entity124</title>
<path fill="none" stroke="black" d="M4982.81,-2307.75C4905.12,-2353.84 4689.11,-2481.99 4606.6,-2530.94"/>
<polygon fill="black" stroke="black" points="4604.71,-2527.99 4597.9,-2536.11 4608.28,-2534.01 4604.71,-2527.99"/>
<text text-anchor="start" x="4690.7" y="-2423.15" font-family="Times New Roman,serif" font-size="14.00">claiemd to channel</text>
</g>
<!-- Entity123 -->
<g id="node8" class="node entity">
<title>Entity123</title>
<ellipse fill="none" stroke="black" cx="5080.06" cy="-2598.34" rx="64.19" ry="18"/>
<text text-anchor="start" x="5038.56" y="-2594.64" font-family="Times New Roman,serif" font-size="14.00">andre puharich</text>
</g>
<!-- Entity123&#45;&gt;Entity113 -->
<g id="edge6" class="edge verb">
<title>Entity123&#45;&gt;Entity113</title>
<path fill="none" stroke="black" d="M5021.12,-2605.74C4926.46,-2617.64 4742.18,-2640.79 4653.43,-2651.95"/>
<polygon fill="black" stroke="black" points="4652.84,-2648.49 4643.35,-2653.21 4653.71,-2655.44 4652.84,-2648.49"/>
<text text-anchor="start" x="4777.28" y="-2632.64" font-family="Times New Roman,serif" font-size="14.00">sponsored</text>
</g>
<!-- Entity161 -->
<g id="node9" class="node entity">
<title>Entity161</title>
<ellipse fill="none" stroke="black" cx="1487.1" cy="-3037.18" rx="67.69" ry="18"/>
<text text-anchor="start" x="1443.1" y="-3033.48" font-family="Times New Roman,serif" font-size="14.00">abraham lincoln</text>
</g>
<!-- Entity180 -->
<g id="node10" class="node entity">
<title>Entity180</title>
<ellipse fill="none" stroke="black" cx="1261.49" cy="-2453.45" rx="31.4" ry="18"/>
<text text-anchor="start" x="1245.49" y="-2449.75" font-family="Times New Roman,serif" font-size="14.00">potus</text>
</g>
<!-- Entity161&#45;&gt;Entity180 -->
<g id="edge8" class="edge verb">
<title>Entity161&#45;&gt;Entity180</title>
<path fill="none" stroke="black" d="M1480.1,-3019.07C1447.56,-2934.88 1311.02,-2581.61 1271.97,-2480.56"/>
<polygon fill="black" stroke="black" points="1275.17,-2479.12 1268.3,-2471.06 1268.64,-2481.65 1275.17,-2479.12"/>
<text text-anchor="start" x="1360.03" y="-2753.61" font-family="Times New Roman,serif" font-size="14.00">isa</text>
</g>
<!-- Entity116 -->
<g id="node12" class="node entity">
<title>Entity116</title>
<ellipse fill="none" stroke="black" cx="765.76" cy="-2467.7" rx="56.59" ry="18"/>
<text text-anchor="start" x="730.26" y="-2464" font-family="Times New Roman,serif" font-size="14.00">harry truman</text>
</g>
<!-- Entity116&#45;&gt;Entity180 -->
<g id="edge12" class="edge verb">
<title>Entity116&#45;&gt;Entity180</title>
<path fill="none" stroke="black" d="M822.15,-2466.08C922.86,-2463.18 1131.41,-2457.19 1220.11,-2454.64"/>
<polygon fill="black" stroke="black" points="1220.42,-2458.13 1230.32,-2454.34 1220.22,-2451.13 1220.42,-2458.13"/>
<text text-anchor="start" x="1005.13" y="-2464.16" font-family="Times New Roman,serif" font-size="14.00">isa</text>
</g>
<!-- Entity179 -->
<g id="node13" class="node entity">
<title>Entity179</title>
<ellipse fill="none" stroke="black" cx="316.26" cy="-2538.11" rx="34.39" ry="18"/>
<text text-anchor="start" x="297.76" y="-2534.41" font-family="Times New Roman,serif" font-size="14.00">mason</text>
</g>
<!-- Entity116&#45;&gt;Entity179 -->
<g id="edge11" class="edge verb">
<title>Entity116&#45;&gt;Entity179</title>
<path fill="none" stroke="black" d="M714.64,-2475.71C625.38,-2489.69 442.7,-2518.3 359.39,-2531.35"/>
<polygon fill="black" stroke="black" points="358.6,-2527.94 349.26,-2532.94 359.68,-2534.85 358.6,-2527.94"/>
<text text-anchor="start" x="521.01" y="-2507.33" font-family="Times New Roman,serif" font-size="14.00">isa</text>
</g>
<!-- Entity125 -->
<g id="node14" class="node entity">
<title>Entity125</title>
<ellipse fill="none" stroke="black" cx="1135.34" cy="-2706.2" rx="27" ry="18"/>
<text text-anchor="start" x="1127.84" y="-2702.5" font-family="Times New Roman,serif" font-size="14.00">jfk</text>
</g>
<!-- Entity125&#45;&gt;Entity180 -->
<g id="edge13" class="edge verb">
<title>Entity125&#45;&gt;Entity180</title>
<path fill="none" stroke="black" d="M1144.01,-2688.82C1165.66,-2645.45 1222.21,-2532.15 1248.14,-2480.19"/>
<polygon fill="black" stroke="black" points="1251.42,-2481.45 1252.76,-2470.94 1245.16,-2478.32 1251.42,-2481.45"/>
<text text-anchor="start" x="1180.07" y="-2588.31" font-family="Times New Roman,serif" font-size="14.00">isa</text>
</g>
<!-- Entity132 -->
<g id="node15" class="node entity">
<title>Entity132</title>
<ellipse fill="none" stroke="black" cx="1592.33" cy="-1913.75" rx="59.59" ry="18"/>
<text text-anchor="start" x="1554.33" y="-1910.05" font-family="Times New Roman,serif" font-size="14.00">donald trump</text>
</g>
<!-- Entity132&#45;&gt;Entity180 -->
<g id="edge14" class="edge verb">
<title>Entity132&#45;&gt;Entity180</title>
<path fill="none" stroke="black" d="M1581.32,-1931.71C1532.44,-2011.45 1334.9,-2333.7 1277.31,-2427.63"/>
<polygon fill="black" stroke="black" points="1274.28,-2425.88 1272.04,-2436.24 1280.25,-2429.54 1274.28,-2425.88"/>
<text text-anchor="start" x="1413.32" y="-2183.47" font-family="Times New Roman,serif" font-size="14.00">isa</text>
</g>
<!-- Entity154 -->
<g id="node39" class="node entity">
<title>Entity154</title>
<ellipse fill="none" stroke="black" cx="2180.89" cy="-2218.67" rx="50.09" ry="18"/>
<text text-anchor="start" x="2150.39" y="-2214.97" font-family="Times New Roman,serif" font-size="14.00">john trump</text>
</g>
<!-- Entity132&#45;&gt;Entity154 -->
<g id="edge41" class="edge verb">
<title>Entity132&#45;&gt;Entity154</title>
<path fill="none" stroke="black" d="M1622.73,-1929.5C1721.66,-1980.75 2034.23,-2142.68 2143.07,-2199.08"/>
<polygon fill="black" stroke="black" points="2141.57,-2202.24 2152.06,-2203.73 2144.79,-2196.02 2141.57,-2202.24"/>
<text text-anchor="start" x="1823.9" y="-2068.09" font-family="Times New Roman,serif" font-size="14.00">nephew of</text>
</g>
<!-- Entity126 -->
<g id="node16" class="node entity">
<title>Entity126</title>
<ellipse fill="none" stroke="black" cx="1214.44" cy="-2872.85" rx="58.49" ry="18"/>
<text text-anchor="start" x="1177.44" y="-2869.15" font-family="Times New Roman,serif" font-size="14.00">richard nixon</text>
</g>
<!-- Entity126&#45;&gt;Entity180 -->
<g id="edge15" class="edge verb">
<title>Entity126&#45;&gt;Entity180</title>
<path fill="none" stroke="black" d="M1216.47,-2854.83C1223.82,-2789.24 1249.21,-2562.88 1258.26,-2482.25"/>
<polygon fill="black" stroke="black" points="1261.78,-2482.2 1259.42,-2471.87 1254.83,-2481.42 1261.78,-2482.2"/>
<text text-anchor="start" x="1221.36" y="-2672.34" font-family="Times New Roman,serif" font-size="14.00">isa</text>
</g>
<!-- Entity138 -->
<g id="node17" class="node entity">
<title>Entity138</title>
<ellipse fill="none" stroke="black" cx="978.82" cy="-2114.94" rx="63.89" ry="18"/>
<text text-anchor="start" x="937.82" y="-2111.24" font-family="Times New Roman,serif" font-size="14.00">george w bush</text>
</g>
<!-- Entity138&#45;&gt;Entity180 -->
<g id="edge16" class="edge verb">
<title>Entity138&#45;&gt;Entity180</title>
<path fill="none" stroke="black" d="M993.62,-2132.67C1040.7,-2189.04 1187.04,-2364.29 1241.13,-2429.06"/>
<polygon fill="black" stroke="black" points="1238.74,-2431.67 1247.84,-2437.1 1244.11,-2427.18 1238.74,-2431.67"/>
<text text-anchor="start" x="1101.38" y="-2284.66" font-family="Times New Roman,serif" font-size="14.00">isa</text>
</g>
<!-- Entity131 -->
<g id="node18" class="node entity">
<title>Entity131</title>
<ellipse fill="none" stroke="black" cx="849.37" cy="-2627.47" rx="68.49" ry="18"/>
<text text-anchor="start" x="804.87" y="-2623.77" font-family="Times New Roman,serif" font-size="14.00">george hw bush</text>
</g>
<!-- Entity131&#45;&gt;Entity180 -->
<g id="edge17" class="edge verb">
<title>Entity131&#45;&gt;Entity180</title>
<path fill="none" stroke="black" d="M885.59,-2612.18C964.22,-2578.97 1149.74,-2500.63 1226.89,-2468.06"/>
<polygon fill="black" stroke="black" points="1228.33,-2471.25 1236.18,-2464.13 1225.61,-2464.8 1228.33,-2471.25"/>
<text text-anchor="start" x="1040.24" y="-2543.92" font-family="Times New Roman,serif" font-size="14.00">isa</text>
</g>
<!-- Entity127 -->
<g id="node19" class="node entity">
<title>Entity127</title>
<ellipse fill="none" stroke="black" cx="1751.96" cy="-2465.02" rx="31.4" ry="18"/>
<text text-anchor="start" x="1735.96" y="-2461.32" font-family="Times New Roman,serif" font-size="14.00">carter</text>
</g>
<!-- Entity127&#45;&gt;Entity180 -->
<g id="edge18" class="edge verb">
<title>Entity127&#45;&gt;Entity180</title>
<path fill="none" stroke="black" d="M1720.53,-2464.28C1635.25,-2462.27 1399.41,-2456.7 1303.19,-2454.43"/>
<polygon fill="black" stroke="black" points="1303.05,-2450.93 1292.97,-2454.19 1302.89,-2457.92 1303.05,-2450.93"/>
<text text-anchor="start" x="1495.86" y="-2463.15" font-family="Times New Roman,serif" font-size="14.00">isa</text>
</g>
<!-- Entity184 -->
<g id="node23" class="node entity">
<title>Entity184</title>
<ellipse fill="none" stroke="black" cx="2223.27" cy="-2470.65" rx="27" ry="18"/>
<text text-anchor="start" x="2213.77" y="-2466.95" font-family="Times New Roman,serif" font-size="14.00">ufo</text>
</g>
<!-- Entity127&#45;&gt;Entity184 -->
<g id="edge22" class="edge verb">
<title>Entity127&#45;&gt;Entity184</title>
<path fill="none" stroke="black" d="M1783.25,-2465.39C1867,-2466.39 2096.04,-2469.13 2186.15,-2470.21"/>
<polygon fill="black" stroke="black" points="2186.14,-2473.71 2196.18,-2470.33 2186.22,-2466.71 2186.14,-2473.71"/>
<text text-anchor="start" x="1929.7" y="-2471.6" font-family="Times New Roman,serif" font-size="14.00">witnessed</text>
</g>
<!-- Entity130 -->
<g id="node20" class="node entity">
<title>Entity130</title>
<ellipse fill="none" stroke="black" cx="1275.3" cy="-2131.33" rx="35.19" ry="18"/>
<text text-anchor="start" x="1256.3" y="-2127.63" font-family="Times New Roman,serif" font-size="14.00">obama</text>
</g>
<!-- Entity130&#45;&gt;Entity180 -->
<g id="edge19" class="edge verb">
<title>Entity130&#45;&gt;Entity180</title>
<path fill="none" stroke="black" d="M1274.52,-2149.57C1272.22,-2203.16 1265.48,-2360.44 1262.7,-2425.14"/>
<polygon fill="black" stroke="black" points="1259.19,-2425.26 1262.26,-2435.4 1266.19,-2425.56 1259.19,-2425.26"/>
<text text-anchor="start" x="1252.61" y="-2291.16" font-family="Times New Roman,serif" font-size="14.00">isa</text>
</g>
<!-- Entity128 -->
<g id="node21" class="node entity">
<title>Entity128</title>
<ellipse fill="none" stroke="black" cx="2669.21" cy="-2446.23" rx="27" ry="18"/>
<text text-anchor="start" x="2661.21" y="-2442.53" font-family="Times New Roman,serif" font-size="14.00">cia</text>
</g>
<!-- Entity128&#45;&gt;Entity11 -->
<g id="edge20" class="edge verb">
<title>Entity128&#45;&gt;Entity11</title>
<path fill="none" stroke="black" d="M2694.9,-2452.02C2796.51,-2474.89 3172.25,-2559.45 3325.39,-2593.92"/>
<polygon fill="black" stroke="black" points="3324.63,-2597.34 3335.15,-2596.12 3326.16,-2590.51 3324.63,-2597.34"/>
<text text-anchor="start" x="2946.14" y="-2526.77" font-family="Times New Roman,serif" font-size="14.00">investigates</text>
</g>
<!-- Entity128&#45;&gt;Entity184 -->
<g id="edge26" class="edge verb">
<title>Entity128&#45;&gt;Entity184</title>
<path fill="none" stroke="black" d="M2641.98,-2447.73C2565.39,-2451.92 2347.95,-2463.83 2260.43,-2468.62"/>
<polygon fill="black" stroke="black" points="2260.22,-2465.12 2250.42,-2469.17 2260.6,-2472.11 2260.22,-2465.12"/>
<text text-anchor="start" x="2387.21" y="-2461.97" font-family="Times New Roman,serif" font-size="14.00">investigates</text>
</g>
<!-- Entity134 -->
<g id="node22" class="node entity">
<title>Entity134</title>
<ellipse fill="none" stroke="black" cx="3814.37" cy="-2702.67" rx="63.89" ry="18"/>
<text text-anchor="start" x="3773.37" y="-2698.97" font-family="Times New Roman,serif" font-size="14.00">robert bigelow</text>
</g>
<!-- Entity134&#45;&gt;Entity115 -->
<g id="edge23" class="edge verb">
<title>Entity134&#45;&gt;Entity115</title>
<path fill="none" stroke="black" d="M3848.1,-2687.19C3889.76,-2668.08 3960.71,-2635.54 4006.38,-2614.58"/>
<polygon fill="black" stroke="black" points="4008.1,-2617.65 4015.73,-2610.3 4005.18,-2611.29 4008.1,-2617.65"/>
<text text-anchor="start" x="3895.24" y="-2654.69" font-family="Times New Roman,serif" font-size="14.00">funds</text>
</g>
<!-- Entity134&#45;&gt;Entity11 -->
<g id="edge21" class="edge verb">
<title>Entity134&#45;&gt;Entity11</title>
<path fill="none" stroke="black" d="M3764.14,-2691.52C3687.66,-2674.54 3541.95,-2642.19 3457,-2623.34"/>
<polygon fill="black" stroke="black" points="3457.73,-2619.91 3447.21,-2621.16 3456.21,-2626.75 3457.73,-2619.91"/>
<text text-anchor="start" x="3546.57" y="-2661.23" font-family="Times New Roman,serif" font-size="14.00">investigates</text>
</g>
<!-- Entity139 -->
<g id="node24" class="node entity">
<title>Entity139</title>
<ellipse fill="none" stroke="black" cx="696.04" cy="-2234.17" rx="71.49" ry="18"/>
<text text-anchor="start" x="649.04" y="-2230.47" font-family="Times New Roman,serif" font-size="14.00">woodrow wilson</text>
</g>
<!-- Entity139&#45;&gt;Entity180 -->
<g id="edge24" class="edge verb">
<title>Entity139&#45;&gt;Entity180</title>
<path fill="none" stroke="black" d="M735.35,-2249.41C840.3,-2290.11 1125.9,-2400.86 1226.14,-2439.74"/>
<polygon fill="black" stroke="black" points="1224.93,-2443.02 1235.52,-2443.38 1227.46,-2436.5 1224.93,-2443.02"/>
<text text-anchor="start" x="964.75" y="-2348.38" font-family="Times New Roman,serif" font-size="14.00">isa</text>
</g>
<!-- Entity189 -->
<g id="node28" class="node entity">
<title>Entity189</title>
<ellipse fill="none" stroke="black" cx="71.08" cy="-2169.43" rx="71.49" ry="18"/>
<text text-anchor="start" x="24.08" y="-2165.73" font-family="Times New Roman,serif" font-size="14.00">leauge of nations</text>
</g>
<!-- Entity139&#45;&gt;Entity189 -->
<g id="edge29" class="edge verb">
<title>Entity139&#45;&gt;Entity189</title>
<path fill="none" stroke="black" d="M629.75,-2227.3C513.03,-2215.21 271.5,-2190.19 147.78,-2177.38"/>
<polygon fill="black" stroke="black" points="147.94,-2173.88 137.63,-2176.33 147.22,-2180.84 147.94,-2173.88"/>
<text text-anchor="start" x="347.77" y="-2206.14" font-family="Times New Roman,serif" font-size="14.00">created</text>
</g>
<!-- Entity145 -->
<g id="node25" class="node entity">
<title>Entity145</title>
<ellipse fill="none" stroke="black" cx="217.07" cy="-1942.54" rx="53.89" ry="18"/>
<text text-anchor="start" x="183.57" y="-1938.84" font-family="Times New Roman,serif" font-size="14.00">edgar casey</text>
</g>
<!-- Entity145&#45;&gt;Entity139 -->
<g id="edge27" class="edge verb">
<title>Entity145&#45;&gt;Entity139</title>
<path fill="none" stroke="black" d="M243.17,-1958.42C323.46,-2007.31 567,-2155.6 659.7,-2212.04"/>
<polygon fill="black" stroke="black" points="658.08,-2215.15 668.44,-2217.37 661.72,-2209.18 658.08,-2215.15"/>
<text text-anchor="start" x="409.43" y="-2089.03" font-family="Times New Roman,serif" font-size="14.00">advises</text>
</g>
<!-- Entity137 -->
<g id="node26" class="node entity">
<title>Entity137</title>
<ellipse fill="none" stroke="black" cx="2104.69" cy="-4368.6" rx="58.49" ry="18"/>
<text text-anchor="start" x="2067.69" y="-4364.9" font-family="Times New Roman,serif" font-size="14.00">rudolf steiner</text>
</g>
<!-- Entity269 -->
<g id="node27" class="node entity">
<title>Entity269</title>
<ellipse fill="none" stroke="black" cx="2213.03" cy="-4476.62" rx="102.08" ry="18"/>
<text text-anchor="start" x="2142.53" y="-4472.92" font-family="Times New Roman,serif" font-size="14.00">anthroposophical society</text>
</g>
<!-- Entity137&#45;&gt;Entity269 -->
<g id="edge28" class="edge verb">
<title>Entity137&#45;&gt;Entity269</title>
<path fill="none" stroke="black" d="M2122.1,-4385.96C2139.81,-4403.62 2167.46,-4431.18 2187.62,-4451.28"/>
<polygon fill="black" stroke="black" points="2185.39,-4454 2194.95,-4458.59 2190.34,-4449.05 2185.39,-4454"/>
<text text-anchor="start" x="2113.86" y="-4422.42" font-family="Times New Roman,serif" font-size="14.00">created</text>
</g>
<!-- Entity188 -->
<g id="node30" class="node entity">
<title>Entity188</title>
<ellipse fill="none" stroke="black" cx="1868.16" cy="-3891.36" rx="85.29" ry="18"/>
<text text-anchor="start" x="1810.66" y="-3887.66" font-family="Times New Roman,serif" font-size="14.00">theosophical society</text>
</g>
<!-- Entity137&#45;&gt;Entity188 -->
<g id="edge31" class="edge verb">
<title>Entity137&#45;&gt;Entity188</title>
<path fill="none" stroke="black" d="M2095.85,-4350.77C2059.92,-4278.27 1924.69,-4005.41 1881.51,-3918.28"/>
<polygon fill="black" stroke="black" points="1884.62,-3916.69 1877.05,-3909.28 1878.35,-3919.8 1884.62,-3916.69"/>
<text text-anchor="start" x="1922.68" y="-4138.32" font-family="Times New Roman,serif" font-size="14.00">memberr of</text>
</g>
<!-- Entity142 -->
<g id="node29" class="node entity">
<title>Entity142</title>
<ellipse fill="none" stroke="black" cx="1629.54" cy="-4513.51" rx="73.39" ry="18"/>
<text text-anchor="start" x="1581.04" y="-4509.81" font-family="Times New Roman,serif" font-size="14.00">madam blavatsky</text>
</g>
<!-- Entity142&#45;&gt;Entity188 -->
<g id="edge30" class="edge verb">
<title>Entity142&#45;&gt;Entity188</title>
<path fill="none" stroke="black" d="M1636.42,-4495.56C1670.03,-4407.94 1816.9,-4025.01 1857.65,-3918.78"/>
<polygon fill="black" stroke="black" points="1860.94,-3919.97 1861.25,-3909.38 1854.4,-3917.46 1860.94,-3919.97"/>
<text text-anchor="start" x="1706.04" y="-4210.97" font-family="Times New Roman,serif" font-size="14.00">created</text>
</g>
<!-- Entity140 -->
<g id="node31" class="node entity">
<title>Entity140</title>
<ellipse fill="none" stroke="black" cx="1461.15" cy="-1169.75" rx="58.49" ry="18"/>
<text text-anchor="start" x="1424.15" y="-1166.05" font-family="Times New Roman,serif" font-size="14.00">steve bannon</text>
</g>
<!-- Entity140&#45;&gt;Entity132 -->
<g id="edge33" class="edge verb">
<title>Entity140&#45;&gt;Entity132</title>
<path fill="none" stroke="black" d="M1462.04,-1187.8C1473.61,-1286.85 1557.61,-1764.33 1584.53,-1885.67"/>
<polygon fill="black" stroke="black" points="1581.17,-1886.69 1586.8,-1895.66 1587.99,-1885.13 1581.17,-1886.69"/>
<text text-anchor="start" x="1468.29" y="-1540.53" font-family="Times New Roman,serif" font-size="14.00">promoted</text>
</g>
<!-- Entity140&#45;&gt;Entity132 -->
<g id="edge40" class="edge verb">
<title>Entity140&#45;&gt;Entity132</title>
<path fill="none" stroke="black" d="M1466.65,-1187.75C1489.96,-1286.66 1574.31,-1764.16 1590.18,-1885.61"/>
<polygon fill="black" stroke="black" points="1586.71,-1886.12 1591.42,-1895.61 1593.66,-1885.25 1586.71,-1886.12"/>
<text text-anchor="start" x="1486.41" y="-1525.48" font-family="Times New Roman,serif" font-size="14.00">advises</text>
</g>
<!-- Entity265 -->
<g id="node32" class="node entity">
<title>Entity265</title>
<ellipse fill="none" stroke="black" cx="1420.35" cy="-746.61" rx="35.19" ry="18"/>
<text text-anchor="start" x="1401.35" y="-742.91" font-family="Times New Roman,serif" font-size="14.00">gurgev</text>
</g>
<!-- Entity140&#45;&gt;Entity265 -->
<g id="edge32" class="edge verb">
<title>Entity140&#45;&gt;Entity265</title>
<path fill="none" stroke="black" d="M1459.4,-1151.57C1453,-1085.25 1430.89,-855.98 1423.09,-775.12"/>
<polygon fill="black" stroke="black" points="1426.54,-774.35 1422.09,-764.73 1419.57,-775.02 1426.54,-774.35"/>
<text text-anchor="start" x="1400.24" y="-967.15" font-family="Times New Roman,serif" font-size="14.00">studied</text>
</g>
<!-- Entity270 -->
<g id="node33" class="node entity">
<title>Entity270</title>
<ellipse fill="none" stroke="black" cx="1640.74" cy="-754.26" rx="38.19" ry="18"/>
<text text-anchor="start" x="1619.24" y="-750.56" font-family="Times New Roman,serif" font-size="14.00">us navy</text>
</g>
<!-- Entity140&#45;&gt;Entity270 -->
<g id="edge34" class="edge verb">
<title>Entity140&#45;&gt;Entity270</title>
<path fill="none" stroke="black" d="M1468.87,-1151.9C1497.13,-1086.51 1595.12,-859.81 1629.06,-781.28"/>
<polygon fill="black" stroke="black" points="1632.3,-782.61 1633.05,-772.05 1625.87,-779.84 1632.3,-782.61"/>
<text text-anchor="start" x="1487.96" y="-970.39" font-family="Times New Roman,serif" font-size="14.00">member of</text>
</g>
<!-- Entity267 -->
<g id="node34" class="node entity">
<title>Entity267</title>
<ellipse fill="none" stroke="black" cx="1153.96" cy="-778.15" rx="53.09" ry="18"/>
<text text-anchor="start" x="1120.96" y="-774.45" font-family="Times New Roman,serif" font-size="14.00">biosphere 2</text>
</g>
<!-- Entity140&#45;&gt;Entity267 -->
<g id="edge35" class="edge verb">
<title>Entity140&#45;&gt;Entity267</title>
<path fill="none" stroke="black" d="M1447.35,-1152.17C1398.23,-1089.54 1231.68,-877.23 1173.9,-803.57"/>
<polygon fill="black" stroke="black" points="1176.64,-801.4 1167.72,-795.69 1171.14,-805.72 1176.64,-801.4"/>
<text text-anchor="start" x="1269.63" y="-981.67" font-family="Times New Roman,serif" font-size="14.00">created</text>
</g>
<!-- Entity268 -->
<g id="node35" class="node entity">
<title>Entity268</title>
<ellipse fill="none" stroke="black" cx="1906.72" cy="-862.33" rx="64.99" ry="18"/>
<text text-anchor="start" x="1864.72" y="-858.63" font-family="Times New Roman,serif" font-size="14.00">goldman sachs</text>
</g>
<!-- Entity140&#45;&gt;Entity268 -->
<g id="edge36" class="edge verb">
<title>Entity140&#45;&gt;Entity268</title>
<path fill="none" stroke="black" d="M1485.1,-1153.22C1559.81,-1101.68 1788.65,-943.79 1874.09,-884.84"/>
<polygon fill="black" stroke="black" points="1876.13,-887.69 1882.38,-879.13 1872.16,-881.92 1876.13,-887.69"/>
<text text-anchor="start" x="1616.6" y="-1022.83" font-family="Times New Roman,serif" font-size="14.00">worked for</text>
</g>
<!-- Entity191 -->
<g id="node36" class="node entity">
<title>Entity191</title>
<ellipse fill="none" stroke="black" cx="1307.67" cy="-570.97" rx="61.99" ry="18"/>
<text text-anchor="start" x="1268.17" y="-567.27" font-family="Times New Roman,serif" font-size="14.00">breitbart news</text>
</g>
<!-- Entity140&#45;&gt;Entity191 -->
<g id="edge37" class="edge verb">
<title>Entity140&#45;&gt;Entity191</title>
<path fill="none" stroke="black" d="M1456.47,-1151.51C1434.49,-1065.76 1341.44,-702.71 1314.81,-598.84"/>
<polygon fill="black" stroke="black" points="1318.18,-597.89 1312.31,-589.07 1311.4,-599.63 1318.18,-597.89"/>
<text text-anchor="start" x="1344.64" y="-878.97" font-family="Times New Roman,serif" font-size="14.00">created</text>
</g>
<!-- Entity266 -->
<g id="node37" class="node entity">
<title>Entity266</title>
<ellipse fill="none" stroke="black" cx="945.77" cy="-886.17" rx="77.19" ry="18"/>
<text text-anchor="start" x="894.27" y="-882.47" font-family="Times New Roman,serif" font-size="14.00">hollywood movies</text>
</g>
<!-- Entity140&#45;&gt;Entity266 -->
<g id="edge38" class="edge verb">
<title>Entity140&#45;&gt;Entity266</title>
<path fill="none" stroke="black" d="M1432.33,-1153.9C1345.17,-1105.94 1084.22,-962.35 984.81,-907.65"/>
<polygon fill="black" stroke="black" points="986.43,-904.55 975.98,-902.8 983.06,-910.68 986.43,-904.55"/>
<text text-anchor="start" x="1153.57" y="-1034.58" font-family="Times New Roman,serif" font-size="14.00">produced</text>
</g>
<!-- Entity151 -->
<g id="node38" class="node entity">
<title>Entity151</title>
<ellipse fill="none" stroke="black" cx="1151" cy="-17.9" rx="69.59" ry="18"/>
<text text-anchor="start" x="1105.5" y="-14.2" font-family="Times New Roman,serif" font-size="14.00">andrew breitbart</text>
</g>
<!-- Entity151&#45;&gt;Entity191 -->
<g id="edge39" class="edge verb">
<title>Entity151&#45;&gt;Entity191</title>
<path fill="none" stroke="black" d="M1156.12,-35.99C1179.02,-116.82 1272.06,-445.27 1299.82,-543.25"/>
<polygon fill="black" stroke="black" points="1296.49,-544.35 1302.58,-553.02 1303.23,-542.44 1296.49,-544.35"/>
<text text-anchor="start" x="1186.97" y="-293.42" font-family="Times New Roman,serif" font-size="14.00">created</text>
</g>
<!-- Entity154&#45;&gt;Entity128 -->
<g id="edge42" class="edge verb">
<title>Entity154&#45;&gt;Entity128</title>
<path fill="none" stroke="black" d="M2211.81,-2233.07C2299.51,-2273.95 2549.23,-2390.32 2637.68,-2431.54"/>
<polygon fill="black" stroke="black" points="2636.39,-2434.8 2646.93,-2435.85 2639.34,-2428.46 2636.39,-2434.8"/>
<text text-anchor="start" x="2363.74" y="-2336.11" font-family="Times New Roman,serif" font-size="14.00">member of</text>
</g>
<!-- Entity271 -->
<g id="node40" class="node entity">
<title>Entity271</title>
<ellipse fill="none" stroke="black" cx="2291.02" cy="-2110.61" rx="50.89" ry="18"/>
<text text-anchor="start" x="2260.02" y="-2106.91" font-family="Times New Roman,serif" font-size="14.00">nikola tesla</text>
</g>
<!-- Entity154&#45;&gt;Entity271 -->
<g id="edge43" class="edge verb">
<title>Entity154&#45;&gt;Entity271</title>
<path fill="none" stroke="black" d="M2198.59,-2201.31C2217,-2183.24 2245.96,-2154.82 2266.56,-2134.61"/>
<polygon fill="black" stroke="black" points="2269.05,-2137.07 2273.73,-2127.57 2264.14,-2132.07 2269.05,-2137.07"/>
<text text-anchor="start" x="2191.57" y="-2171.76" font-family="Times New Roman,serif" font-size="14.00">studied</text>
</g>
<!-- Entity152 -->
<g id="node41" class="node entity">
<title>Entity152</title>
<ellipse fill="none" stroke="black" cx="1819.6" cy="-3783.35" rx="90.98" ry="18"/>
<text text-anchor="start" x="1757.6" y="-3779.65" font-family="Times New Roman,serif" font-size="14.00">emma hardinge&#45;britten</text>
</g>
<!-- Entity152&#45;&gt;Entity161 -->
<g id="edge45" class="edge verb">
<title>Entity152&#45;&gt;Entity161</title>
<path fill="none" stroke="black" d="M1811.54,-3765.27C1767.22,-3665.8 1553.05,-3185.19 1499.34,-3064.65"/>
<polygon fill="black" stroke="black" points="1502.46,-3063.06 1495.19,-3055.35 1496.07,-3065.91 1502.46,-3063.06"/>
<text text-anchor="start" x="1556.44" y="-3418.76" font-family="Times New Roman,serif" font-size="14.00">spokesperson for</text>
</g>
<!-- Entity152&#45;&gt;Entity188 -->
<g id="edge44" class="edge verb">
<title>Entity152&#45;&gt;Entity188</title>
<path fill="none" stroke="black" d="M1827.84,-3801.67C1835.52,-3818.77 1847.09,-3844.49 1855.87,-3864.01"/>
<polygon fill="black" stroke="black" points="1852.75,-3865.62 1860.05,-3873.31 1859.14,-3862.75 1852.75,-3865.62"/>
<text text-anchor="start" x="1800.85" y="-3836.64" font-family="Times New Roman,serif" font-size="14.00">created</text>
</g>
<!-- Entity272 -->
<g id="node42" class="node entity">
<title>Entity272</title>
<ellipse fill="none" stroke="black" cx="1450.69" cy="-4209.31" rx="39.79" ry="18"/>
<text text-anchor="start" x="1428.19" y="-4205.61" font-family="Times New Roman,serif" font-size="14.00">medium</text>
</g>
<!-- Entity152&#45;&gt;Entity272 -->
<g id="edge46" class="edge verb">
<title>Entity152&#45;&gt;Entity272</title>
<path fill="none" stroke="black" d="M1804.22,-3801.11C1746.06,-3868.26 1539.52,-4106.75 1472.13,-4184.56"/>
<polygon fill="black" stroke="black" points="1469.23,-4182.56 1465.33,-4192.41 1474.52,-4187.14 1469.23,-4182.56"/>
<text text-anchor="start" x="1622.17" y="-3996.64" font-family="Times New Roman,serif" font-size="14.00">isa</text>
</g>
<!-- Entity192 -->
<g id="node43" class="node entity">
<title>Entity192</title>
<ellipse fill="none" stroke="black" cx="2221.49" cy="-4195.29" rx="55.79" ry="18"/>
<text text-anchor="start" x="2186.49" y="-4191.59" font-family="Times New Roman,serif" font-size="14.00">orphic circle</text>
</g>
<!-- Entity152&#45;&gt;Entity192 -->
<g id="edge47" class="edge verb">
<title>Entity152&#45;&gt;Entity192</title>
<path fill="none" stroke="black" d="M1836.87,-3801.05C1900.78,-3866.56 2123.99,-4095.36 2197.68,-4170.89"/>
<polygon fill="black" stroke="black" points="2195.24,-4173.4 2204.73,-4178.12 2200.25,-4168.51 2195.24,-4173.4"/>
<text text-anchor="start" x="1956.27" y="-3989.77" font-family="Times New Roman,serif" font-size="14.00">member of</text>
</g>
<!-- Entity160 -->
<g id="node44" class="node entity">
<title>Entity160</title>
<ellipse fill="none" stroke="black" cx="4267.94" cy="-1823.66" rx="53.89" ry="18"/>
<text text-anchor="start" x="4234.44" y="-1819.96" font-family="Times New Roman,serif" font-size="14.00">black magic</text>
</g>
<!-- Entity193 -->
<g id="node45" class="node entity">
<title>Entity193</title>
<ellipse fill="none" stroke="black" cx="4355.66" cy="-1935.64" rx="28.7" ry="18"/>
<text text-anchor="start" x="4341.66" y="-1931.94" font-family="Times New Roman,serif" font-size="14.00">x left</text>
</g>
<!-- Entity160&#45;&gt;Entity193 -->
<g id="edge48" class="edge verb">
<title>Entity160&#45;&gt;Entity193</title>
<path fill="none" stroke="black" d="M4281.64,-1841.16C4296.45,-1860.05 4320.14,-1890.29 4336.72,-1911.45"/>
<polygon fill="black" stroke="black" points="4333.98,-1913.64 4342.9,-1919.36 4339.49,-1909.32 4333.98,-1913.64"/>
<text text-anchor="start" x="4248.18" y="-1880.11" font-family="Times New Roman,serif" font-size="14.00">member of</text>
</g>
<!-- Entity162 -->
<g id="node46" class="node entity">
<title>Entity162</title>
<ellipse fill="none" stroke="black" cx="3651.94" cy="-2124.66" rx="39.79" ry="18"/>
<text text-anchor="start" x="3629.44" y="-2120.96" font-family="Times New Roman,serif" font-size="14.00">crowley</text>
</g>
<!-- Entity194 -->
<g id="node47" class="node entity">
<title>Entity194</title>
<ellipse fill="none" stroke="black" cx="3739.66" cy="-2236.64" rx="38.99" ry="18"/>
<text text-anchor="start" x="3717.66" y="-2232.94" font-family="Times New Roman,serif" font-size="14.00">x magic</text>
</g>
<!-- Entity162&#45;&gt;Entity194 -->
<g id="edge49" class="edge verb">
<title>Entity162&#45;&gt;Entity194</title>
<path fill="none" stroke="black" d="M3665.26,-2141.67C3679.82,-2160.25 3703.28,-2190.2 3719.96,-2211.49"/>
<polygon fill="black" stroke="black" points="3717.29,-2213.76 3726.21,-2219.47 3722.8,-2209.44 3717.29,-2213.76"/>
<text text-anchor="start" x="3631.61" y="-2180.38" font-family="Times New Roman,serif" font-size="14.00">member of</text>
</g>
<!-- Entity163 -->
<g id="node48" class="node entity">
<title>Entity163</title>
<ellipse fill="none" stroke="black" cx="4785.11" cy="-3814.09" rx="57.69" ry="18"/>
<text text-anchor="start" x="4748.61" y="-3810.39" font-family="Times New Roman,serif" font-size="14.00">michael pane</text>
</g>
<!-- Entity163&#45;&gt;Entity178 -->
<g id="edge50" class="edge verb">
<title>Entity163&#45;&gt;Entity178</title>
<path fill="none" stroke="black" d="M4779.68,-3796.06C4757.68,-3722.93 4674.97,-3448.12 4648.3,-3359.48"/>
<polygon fill="black" stroke="black" points="4651.63,-3358.42 4645.4,-3349.85 4644.93,-3360.43 4651.63,-3358.42"/>
<text text-anchor="start" x="4657.99" y="-3581.57" font-family="Times New Roman,serif" font-size="14.00">worked at</text>
</g>
<!-- Entity165 -->
<g id="node49" class="node entity">
<title>Entity165</title>
<ellipse fill="none" stroke="black" cx="5183.07" cy="-3762.71" rx="74.99" ry="18"/>
<text text-anchor="start" x="5133.57" y="-3759.01" font-family="Times New Roman,serif" font-size="14.00">walter dornberger</text>
</g>
<!-- Entity163&#45;&gt;Entity165 -->
<g id="edge51" class="edge verb">
<title>Entity163&#45;&gt;Entity165</title>
<path fill="none" stroke="black" d="M4838.78,-3807.16C4907.81,-3798.25 5028.16,-3782.71 5106.71,-3772.57"/>
<polygon fill="black" stroke="black" points="5107.56,-3775.99 5117.03,-3771.24 5106.67,-3769.04 5107.56,-3775.99"/>
<text text-anchor="start" x="4909.75" y="-3793.66" font-family="Times New Roman,serif" font-size="14.00">worked for</text>
</g>
<!-- Entity165&#45;&gt;Entity178 -->
<g id="edge52" class="edge verb">
<title>Entity165&#45;&gt;Entity178</title>
<path fill="none" stroke="black" d="M5165.11,-3744.98C5086.92,-3676.36 4775.98,-3429.36 4673.13,-3353.78"/>
<polygon fill="black" stroke="black" points="4675.1,-3350.88 4664.95,-3347.82 4670.97,-3356.54 4675.1,-3350.88"/>
<text text-anchor="start" x="4863.12" y="-3538.18" font-family="Times New Roman,serif" font-size="14.00">worked at</text>
</g>
<!-- Entity165&#45;&gt;Entity178 -->
<g id="edge53" class="edge verb">
<title>Entity165&#45;&gt;Entity178</title>
<path fill="none" stroke="black" d="M5156.8,-3745.71C5064.37,-3678.67 4755.22,-3433.41 4664.89,-3355.54"/>
<polygon fill="black" stroke="black" points="4667.16,-3352.88 4657.32,-3348.95 4662.57,-3358.16 4667.16,-3352.88"/>
<text text-anchor="start" x="4831.84" y="-3554.43" font-family="Times New Roman,serif" font-size="14.00">vice&#45;president</text>
</g>
<!-- Entity195 -->
<g id="node50" class="node entity">
<title>Entity195</title>
<ellipse fill="none" stroke="black" cx="4387.89" cy="-3706.01" rx="90.98" ry="18"/>
<text text-anchor="start" x="4325.89" y="-3702.31" font-family="Times New Roman,serif" font-size="14.00">nsdap rocket program</text>
</g>
<!-- Entity165&#45;&gt;Entity195 -->
<g id="edge54" class="edge verb">
<title>Entity165&#45;&gt;Entity195</title>
<path fill="none" stroke="black" d="M5111.1,-3757.58C4967.54,-3747.34 4645.55,-3724.38 4484.08,-3712.87"/>
<polygon fill="black" stroke="black" points="4483.9,-3709.34 4473.67,-3712.12 4483.4,-3716.33 4483.9,-3709.34"/>
<text text-anchor="start" x="4756.59" y="-3739.02" font-family="Times New Roman,serif" font-size="14.00">created</text>
</g>
<!-- Entity177 -->
<g id="node51" class="node entity">
<title>Entity177</title>
<ellipse fill="none" stroke="black" cx="5772.08" cy="-3994.65" rx="32.49" ry="18"/>
<text text-anchor="start" x="5755.08" y="-3990.95" font-family="Times New Roman,serif" font-size="14.00">nsdap</text>
</g>
<!-- Entity165&#45;&gt;Entity177 -->
<g id="edge55" class="edge verb">
<title>Entity165&#45;&gt;Entity177</title>
<path fill="none" stroke="black" d="M5222.17,-3778.11C5330.2,-3820.65 5631.62,-3939.34 5735.97,-3980.43"/>
<polygon fill="black" stroke="black" points="5734.86,-3983.75 5745.44,-3984.16 5737.42,-3977.24 5734.86,-3983.75"/>
<text text-anchor="start" x="5418.07" y="-3883.07" font-family="Times New Roman,serif" font-size="14.00">member of</text>
</g>
<!-- Entity273 -->
<g id="node53" class="node entity">
<title>Entity273</title>
<ellipse fill="none" stroke="black" cx="5465.88" cy="-4263.85" rx="65.79" ry="18"/>
<text text-anchor="start" x="5423.38" y="-4260.15" font-family="Times New Roman,serif" font-size="14.00">x series aircraft</text>
</g>
<!-- Entity165&#45;&gt;Entity273 -->
<g id="edge58" class="edge verb">
<title>Entity165&#45;&gt;Entity273</title>
<path fill="none" stroke="black" d="M5193.3,-3780.84C5236,-3856.51 5400.15,-4147.36 5450.86,-4237.24"/>
<polygon fill="black" stroke="black" points="5447.85,-4239.01 5455.81,-4246 5453.95,-4235.57 5447.85,-4239.01"/>
<text text-anchor="start" x="5281.08" y="-4012.84" font-family="Times New Roman,serif" font-size="14.00">created</text>
</g>
<!-- Entity102 -->
<g id="node59" class="node entity">
<title>Entity102</title>
<ellipse fill="none" stroke="black" cx="6208.62" cy="-4111.23" rx="38.99" ry="18"/>
<text text-anchor="start" x="6186.62" y="-4107.53" font-family="Times New Roman,serif" font-size="14.00">far right</text>
</g>
<!-- Entity177&#45;&gt;Entity102 -->
<g id="edge63" class="edge verb">
<title>Entity177&#45;&gt;Entity102</title>
<path fill="none" stroke="black" d="M5798.49,-4005.31C5870.4,-4028.71 6070.38,-4082.4 6161.86,-4103.22"/>
<polygon fill="black" stroke="black" points="6161.16,-4106.65 6171.68,-4105.42 6162.69,-4099.82 6161.16,-4106.65"/>
<text text-anchor="start" x="5925.18" y="-4058.07" font-family="Times New Roman,serif" font-size="14.00">member a</text>
</g>
<!-- Entity177&#45;&gt;Entity102 -->
<g id="edge67" class="edge verb">
<title>Entity177&#45;&gt;Entity102</title>
<path fill="none" stroke="black" d="M5803.72,-3999.31C5881.84,-4016.07 6083.67,-4069.82 6169.3,-4096.47"/>
<polygon fill="black" stroke="black" points="6168.32,-4099.83 6178.91,-4099.5 6170.42,-4093.15 6168.32,-4099.83"/>
<text text-anchor="start" x="5925.51" y="-4036.69" font-family="Times New Roman,serif" font-size="14.00">member of</text>
</g>
<!-- Entity170 -->
<g id="node52" class="node entity">
<title>Entity170</title>
<ellipse fill="none" stroke="black" cx="4820.3" cy="-3686.4" rx="46.29" ry="18"/>
<text text-anchor="start" x="4792.8" y="-3682.7" font-family="Times New Roman,serif" font-size="14.00">van braun</text>
</g>
<!-- Entity170&#45;&gt;Entity165 -->
<g id="edge56" class="edge verb">
<title>Entity170&#45;&gt;Entity165</title>
<path fill="none" stroke="black" d="M4861.21,-3695C4923.24,-3708.05 5041.74,-3732.98 5116.36,-3748.68"/>
<polygon fill="black" stroke="black" points="5116.08,-3752.19 5126.58,-3750.83 5117.52,-3745.34 5116.08,-3752.19"/>
<text text-anchor="start" x="4925.78" y="-3725.64" font-family="Times New Roman,serif" font-size="14.00">worked for</text>
</g>
<!-- Entity170&#45;&gt;Entity195 -->
<g id="edge57" class="edge verb">
<title>Entity170&#45;&gt;Entity195</title>
<path fill="none" stroke="black" d="M4774.43,-3688.48C4706.41,-3691.56 4577.14,-3697.42 4486.9,-3701.52"/>
<polygon fill="black" stroke="black" points="4486.48,-3698.03 4476.65,-3701.98 4486.79,-3705.03 4486.48,-3698.03"/>
<text text-anchor="start" x="4574.67" y="-3698.8" font-family="Times New Roman,serif" font-size="14.00">worked at</text>
</g>
<!-- Entity172 -->
<g id="node54" class="node entity">
<title>Entity172</title>
<ellipse fill="none" stroke="black" cx="6035.45" cy="-4289.95" rx="49.29" ry="18"/>
<text text-anchor="start" x="6005.45" y="-4286.25" font-family="Times New Roman,serif" font-size="14.00">adolf hitler</text>
</g>
<!-- Entity172&#45;&gt;Entity177 -->
<g id="edge59" class="edge verb">
<title>Entity172&#45;&gt;Entity177</title>
<path fill="none" stroke="black" d="M6020.15,-4272.8C5975.48,-4222.72 5845.15,-4076.59 5793.51,-4018.68"/>
<polygon fill="black" stroke="black" points="5796.03,-4016.25 5786.77,-4011.12 5790.81,-4020.91 5796.03,-4016.25"/>
<text text-anchor="start" x="5865.83" y="-4149.54" font-family="Times New Roman,serif" font-size="14.00">created</text>
</g>
<!-- Entity173 -->
<g id="node55" class="node entity">
<title>Entity173</title>
<ellipse fill="none" stroke="black" cx="804.91" cy="-2819.42" rx="77.99" ry="18"/>
<text text-anchor="start" x="752.91" y="-2815.72" font-family="Times New Roman,serif" font-size="14.00">dwight eisenhower</text>
</g>
<!-- Entity173&#45;&gt;Entity180 -->
<g id="edge60" class="edge verb">
<title>Entity173&#45;&gt;Entity180</title>
<path fill="none" stroke="black" d="M826.63,-2802.02C902.19,-2741.45 1153.45,-2540.04 1235.4,-2474.36"/>
<polygon fill="black" stroke="black" points="1237.62,-2477.07 1243.23,-2468.08 1233.24,-2471.61 1237.62,-2477.07"/>
<text text-anchor="start" x="1012.01" y="-2641.99" font-family="Times New Roman,serif" font-size="14.00">is a</text>
</g>
<!-- Entity174 -->
<g id="node56" class="node entity">
<title>Entity174</title>
<ellipse fill="none" stroke="black" cx="358.78" cy="-3114.2" rx="37.89" ry="18"/>
<text text-anchor="start" x="337.78" y="-3110.5" font-family="Times New Roman,serif" font-size="14.00">hunt oil</text>
</g>
<!-- Entity174&#45;&gt;Entity173 -->
<g id="edge61" class="edge verb">
<title>Entity174&#45;&gt;Entity173</title>
<path fill="none" stroke="black" d="M380.9,-3099.58C453.23,-3051.79 683.05,-2899.94 770.6,-2842.1"/>
<polygon fill="black" stroke="black" points="772.69,-2844.91 779.1,-2836.48 768.83,-2839.07 772.69,-2844.91"/>
<text text-anchor="start" x="535.75" y="-2974.64" font-family="Times New Roman,serif" font-size="14.00">funded</text>
</g>
<!-- Entity175 -->
<g id="node57" class="node entity">
<title>Entity175</title>
<ellipse fill="none" stroke="black" cx="7095.95" cy="-4425.25" rx="36.29" ry="18"/>
<text text-anchor="start" x="7075.95" y="-4421.55" font-family="Times New Roman,serif" font-size="14.00">oswald</text>
</g>
<!-- Entity176 -->
<g id="node58" class="node entity">
<title>Entity176</title>
<ellipse fill="none" stroke="black" cx="6681.19" cy="-4275.96" rx="59.29" ry="18"/>
<text text-anchor="start" x="6643.69" y="-4272.26" font-family="Times New Roman,serif" font-size="14.00">guy bannister</text>
</g>
<!-- Entity175&#45;&gt;Entity176 -->
<g id="edge62" class="edge verb">
<title>Entity175&#45;&gt;Entity176</title>
<path fill="none" stroke="black" d="M7066.45,-4414.63C6995.7,-4389.17 6815.84,-4324.43 6729.23,-4293.25"/>
<polygon fill="black" stroke="black" points="6730.24,-4289.89 6719.64,-4289.8 6727.87,-4296.48 6730.24,-4289.89"/>
<text text-anchor="start" x="6834.84" y="-4357.74" font-family="Times New Roman,serif" font-size="14.00">worked for</text>
</g>
<!-- Entity176&#45;&gt;Entity102 -->
<g id="edge64" class="edge verb">
<title>Entity176&#45;&gt;Entity102</title>
<path fill="none" stroke="black" d="M6648.79,-4260.76C6566.27,-4227.82 6348.05,-4151.61 6253.43,-4122.5"/>
<polygon fill="black" stroke="black" points="6254.18,-4119.07 6243.59,-4119.51 6252.14,-4125.77 6254.18,-4119.07"/>
<text text-anchor="start" x="6396.11" y="-4180.43" font-family="Times New Roman,serif" font-size="14.00">member a</text>
</g>
<!-- Entity176&#45;&gt;Entity102 -->
<g id="edge66" class="edge verb">
<title>Entity176&#45;&gt;Entity102</title>
<path fill="none" stroke="black" d="M6635.36,-4264.38C6541.81,-4235.53 6330.53,-4161.79 6245.29,-4128.12"/>
<polygon fill="black" stroke="black" points="6246.36,-4124.78 6235.78,-4124.32 6243.76,-4131.28 6246.36,-4124.78"/>
<text text-anchor="start" x="6379.33" y="-4200.05" font-family="Times New Roman,serif" font-size="14.00">member of</text>
</g>
<!-- Entity1 -->
<g id="node60" class="node entity">
<title>Entity1</title>
<ellipse fill="none" stroke="black" cx="3036.94" cy="-2124.66" rx="27" ry="18"/>
<text text-anchor="start" x="3033.44" y="-2120.96" font-family="Times New Roman,serif" font-size="14.00">s</text>
</g>
<!-- Entity2 -->
<g id="node61" class="node entity">
<title>Entity2</title>
<ellipse fill="none" stroke="black" cx="3124.66" cy="-2236.64" rx="27" ry="18"/>
<text text-anchor="start" x="3120.66" y="-2232.94" font-family="Times New Roman,serif" font-size="14.00">o</text>
</g>
<!-- Entity1&#45;&gt;Entity2 -->
<g id="edge65" class="edge verb">
<title>Entity1&#45;&gt;Entity2</title>
<path fill="none" stroke="black" d="M3049.51,-2140.7C3064.23,-2159.5 3088.76,-2190.82 3105.78,-2212.53"/>
<polygon fill="black" stroke="black" points="3103.19,-2214.91 3112.11,-2220.62 3108.7,-2210.59 3103.19,-2214.91"/>
<text text-anchor="start" x="3070.64" y="-2180.42" font-family="Times New Roman,serif" font-size="14.00">v</text>
</g>
</g>
</svg>
