<?xml version="1.0" encoding="UTF-8" standalone="no"?>
<?xml-stylesheet href="./styles.css" type="text/css"?>
<!DOCTYPE svg PUBLIC "-//W3C//DTD SVG 1.1//EN"
 "http://www.w3.org/Graphics/SVG/1.1/DTD/svg11.dtd">
<!-- Generated by graphviz version 2.47.3 (20210619.1520)
 -->
<!-- Title: G Pages: 1 -->
<svg width="5356pt" height="5418pt"
 viewBox="0.00 0.00 5356.00 5418.00" xmlns="http://www.w3.org/2000/svg" xmlns:xlink="http://www.w3.org/1999/xlink">
<g id="graph0" class="graph" transform="scale(1 1) rotate(0) translate(4 5414)">
<title>G</title>
<polygon fill="white" stroke="transparent" points="-4,4 -4,-5414 5352,-5414 5352,4 -4,4"/>
<!-- Entity8 -->
<g id="node1" class="node entity">
<title>Entity8</title>
<ellipse fill="none" stroke="black" cx="4081.04" cy="-1627.8" rx="41.69" ry="18"/>
<text text-anchor="start" x="4057.04" y="-1624.1" font-family="Times New Roman,serif" font-size="14.00">uri geller</text>
</g>
<!-- Entity16 -->
<g id="node2" class="node entity">
<title>Entity16</title>
<ellipse fill="none" stroke="black" cx="3649.43" cy="-1768.7" rx="38.19" ry="18"/>
<text text-anchor="start" x="3627.93" y="-1765" font-family="Times New Roman,serif" font-size="14.00">the nine</text>
</g>
<!-- Entity8&#45;&gt;Entity16 -->
<g id="edge1" class="edge verb">
<title>Entity8&#45;&gt;Entity16</title>
<path fill="none" stroke="black" d="M4047.53,-1638.74C3969.51,-1664.21 3775.91,-1727.41 3690.75,-1755.21"/>
<polygon fill="black" stroke="black" points="3689.58,-1751.91 3681.16,-1758.34 3691.75,-1758.56 3689.58,-1751.91"/>
<text text-anchor="start" x="3765.14" y="-1700.77" font-family="Times New Roman,serif" font-size="14.00">claiemd to channel</text>
</g>
<!-- Entity105 -->
<g id="node47" class="node entity">
<title>Entity105</title>
<ellipse fill="none" stroke="black" cx="3710.98" cy="-1185.09" rx="94.48" ry="18"/>
<text text-anchor="start" x="3646.48" y="-1181.39" font-family="Times New Roman,serif" font-size="14.00">egyptian gods in a ship</text>
</g>
<!-- Entity16&#45;&gt;Entity105 -->
<g id="edge53" class="edge verb">
<title>Entity16&#45;&gt;Entity105</title>
<path fill="none" stroke="black" d="M3651.34,-1750.59C3660.18,-1666.78 3697.15,-1316.21 3707.99,-1213.49"/>
<polygon fill="black" stroke="black" points="3711.5,-1213.59 3709.06,-1203.28 3704.54,-1212.85 3711.5,-1213.59"/>
<text text-anchor="start" x="3575.67" y="-1485.84" font-family="Times New Roman,serif" font-size="14.00">claimed to channel</text>
</g>
<!-- Entity9 -->
<g id="node3" class="node entity">
<title>Entity9</title>
<ellipse fill="none" stroke="black" cx="3908.4" cy="-3077.53" rx="27" ry="18"/>
<text text-anchor="start" x="3900.9" y="-3073.83" font-family="Times New Roman,serif" font-size="14.00">jfk</text>
</g>
<!-- Entity25 -->
<g id="node4" class="node entity">
<title>Entity25</title>
<ellipse fill="none" stroke="black" cx="3825.58" cy="-2699.42" rx="27" ry="18"/>
<text text-anchor="start" x="3817.58" y="-2695.72" font-family="Times New Roman,serif" font-size="14.00">cia</text>
</g>
<!-- Entity9&#45;&gt;Entity25 -->
<g id="edge2" class="edge verb">
<title>Entity9&#45;&gt;Entity25</title>
<path fill="none" stroke="black" d="M3904.46,-3059.55C3891.17,-2998.84 3847.86,-2801.16 3831.72,-2727.46"/>
<polygon fill="black" stroke="black" points="3835.1,-2726.53 3829.54,-2717.51 3828.26,-2728.03 3835.1,-2726.53"/>
<text text-anchor="start" x="3764.09" y="-2897.3" font-family="Times New Roman,serif" font-size="14.00">heads (1961&#45;1963)</text>
</g>
<!-- Entity77 -->
<g id="node28" class="node entity">
<title>Entity77</title>
<ellipse fill="none" stroke="black" cx="3988.88" cy="-3477.49" rx="31.4" ry="18"/>
<text text-anchor="start" x="3972.88" y="-3473.79" font-family="Times New Roman,serif" font-size="14.00">potus</text>
</g>
<!-- Entity9&#45;&gt;Entity77 -->
<g id="edge24" class="edge verb">
<title>Entity9&#45;&gt;Entity77</title>
<path fill="none" stroke="black" d="M3912.02,-3095.5C3924.78,-3158.94 3967.81,-3372.79 3983.28,-3449.67"/>
<polygon fill="black" stroke="black" points="3979.87,-3450.46 3985.27,-3459.58 3986.73,-3449.08 3979.87,-3450.46"/>
<text text-anchor="start" x="3860.65" y="-3276.38" font-family="Times New Roman,serif" font-size="14.00">isa (1961&#45;1963)</text>
</g>
<!-- Entity75 -->
<g id="node26" class="node entity">
<title>Entity75</title>
<ellipse fill="none" stroke="black" cx="3683.91" cy="-2120.2" rx="77.19" ry="18"/>
<text text-anchor="start" x="3632.41" y="-2116.5" font-family="Times New Roman,serif" font-size="14.00">psi&#45;consciousness</text>
</g>
<!-- Entity25&#45;&gt;Entity75 -->
<g id="edge45" class="edge verb">
<title>Entity25&#45;&gt;Entity75</title>
<path fill="none" stroke="black" d="M3821.18,-2681.45C3800.82,-2598.18 3715.57,-2249.63 3690.73,-2148.08"/>
<polygon fill="black" stroke="black" points="3694.1,-2147.13 3688.33,-2138.25 3687.3,-2148.79 3694.1,-2147.13"/>
<text text-anchor="start" x="3691.96" y="-2418.57" font-family="Times New Roman,serif" font-size="14.00">investigates</text>
</g>
<!-- Entity108 -->
<g id="node52" class="node entity">
<title>Entity108</title>
<ellipse fill="none" stroke="black" cx="4161.49" cy="-2799.42" rx="27" ry="18"/>
<text text-anchor="start" x="4151.99" y="-2795.72" font-family="Times New Roman,serif" font-size="14.00">ufo</text>
</g>
<!-- Entity25&#45;&gt;Entity108 -->
<g id="edge62" class="edge verb">
<title>Entity25&#45;&gt;Entity108</title>
<path fill="none" stroke="black" d="M3850.28,-2706.77C3909.37,-2724.36 4058.99,-2768.91 4126.95,-2789.14"/>
<polygon fill="black" stroke="black" points="4126.17,-2792.56 4136.75,-2792.06 4128.17,-2785.85 4126.17,-2792.56"/>
<text text-anchor="start" x="3924.62" y="-2751.76" font-family="Times New Roman,serif" font-size="14.00">investigates</text>
</g>
<!-- Entity2 -->
<g id="node5" class="node entity">
<title>Entity2</title>
<ellipse fill="none" stroke="black" cx="3124.95" cy="-1631.73" rx="56.59" ry="18"/>
<text text-anchor="start" x="3089.45" y="-1628.03" font-family="Times New Roman,serif" font-size="14.00">arthur young</text>
</g>
<!-- Entity2&#45;&gt;Entity16 -->
<g id="edge3" class="edge verb">
<title>Entity2&#45;&gt;Entity16</title>
<path fill="none" stroke="black" d="M3168.76,-1643.17C3267.68,-1669 3507.35,-1731.59 3605.95,-1757.34"/>
<polygon fill="black" stroke="black" points="3605.32,-1760.79 3615.88,-1759.93 3607.09,-1754.02 3605.32,-1760.79"/>
<text text-anchor="start" x="3325.36" y="-1704.06" font-family="Times New Roman,serif" font-size="14.00">member&#45;of</text>
</g>
<!-- Entity2&#45;&gt;Entity75 -->
<g id="edge18" class="edge verb">
<title>Entity2&#45;&gt;Entity75</title>
<path fill="none" stroke="black" d="M3144.51,-1648.83C3228.43,-1722.16 3558.08,-2010.24 3656.21,-2095.99"/>
<polygon fill="black" stroke="black" points="3654.09,-2098.79 3663.93,-2102.73 3658.7,-2093.52 3654.09,-2098.79"/>
<text text-anchor="start" x="3359.36" y="-1876.21" font-family="Times New Roman,serif" font-size="14.00">studied</text>
</g>
<!-- Entity76 -->
<g id="node29" class="node entity">
<title>Entity76</title>
<ellipse fill="none" stroke="black" cx="2488.61" cy="-1300.67" rx="53.89" ry="18"/>
<text text-anchor="start" x="2455.11" y="-1296.97" font-family="Times New Roman,serif" font-size="14.00">bell aviation</text>
</g>
<!-- Entity2&#45;&gt;Entity76 -->
<g id="edge20" class="edge verb">
<title>Entity2&#45;&gt;Entity76</title>
<path fill="none" stroke="black" d="M3095.11,-1616.2C2990.92,-1562 2643.34,-1381.16 2526.96,-1320.61"/>
<polygon fill="black" stroke="black" points="2528.51,-1317.48 2518.02,-1315.97 2525.28,-1323.69 2528.51,-1317.48"/>
<text text-anchor="start" x="2770.03" y="-1472.21" font-family="Times New Roman,serif" font-size="14.00">created</text>
</g>
<!-- Entity31 -->
<g id="node6" class="node entity">
<title>Entity31</title>
<ellipse fill="none" stroke="black" cx="2820.65" cy="-3937.86" rx="58.49" ry="18"/>
<text text-anchor="start" x="2783.65" y="-3934.16" font-family="Times New Roman,serif" font-size="14.00">steve bannon</text>
</g>
<!-- Entity22 -->
<g id="node7" class="node entity">
<title>Entity22</title>
<ellipse fill="none" stroke="black" cx="3421.23" cy="-3590.78" rx="59.59" ry="18"/>
<text text-anchor="start" x="3383.23" y="-3587.08" font-family="Times New Roman,serif" font-size="14.00">donald trump</text>
</g>
<!-- Entity31&#45;&gt;Entity22 -->
<g id="edge4" class="edge verb">
<title>Entity31&#45;&gt;Entity22</title>
<path fill="none" stroke="black" d="M2853.28,-3922.71C2958.2,-3867.49 3285.92,-3678.14 3389.52,-3612.93"/>
<polygon fill="black" stroke="black" points="3391.43,-3615.86 3398,-3607.55 3387.68,-3609.95 3391.43,-3615.86"/>
<text text-anchor="start" x="3066.4" y="-3771.62" font-family="Times New Roman,serif" font-size="14.00">promoted</text>
</g>
<!-- Entity31&#45;&gt;Entity22 -->
<g id="edge10" class="edge verb">
<title>Entity31&#45;&gt;Entity22</title>
<path fill="none" stroke="black" d="M2843.86,-3921.11C2934.14,-3863.27 3262.34,-3673.33 3379.41,-3610.81"/>
<polygon fill="black" stroke="black" points="3381.26,-3613.79 3388.45,-3606.02 3377.98,-3607.61 3381.26,-3613.79"/>
<text text-anchor="start" x="3069.64" y="-3754.76" font-family="Times New Roman,serif" font-size="14.00">advises</text>
</g>
<!-- Entity80 -->
<g id="node31" class="node entity">
<title>Entity80</title>
<ellipse fill="none" stroke="black" cx="2226.74" cy="-4131.92" rx="61.99" ry="18"/>
<text text-anchor="start" x="2187.24" y="-4128.22" font-family="Times New Roman,serif" font-size="14.00">breitbart news</text>
</g>
<!-- Entity31&#45;&gt;Entity80 -->
<g id="edge46" class="edge verb">
<title>Entity31&#45;&gt;Entity80</title>
<path fill="none" stroke="black" d="M2780.29,-3951.05C2675.27,-3985.37 2393.56,-4077.41 2277.65,-4115.28"/>
<polygon fill="black" stroke="black" points="2276.36,-4112.02 2267.94,-4118.46 2278.53,-4118.68 2276.36,-4112.02"/>
<text text-anchor="start" x="2487.97" y="-4036.97" font-family="Times New Roman,serif" font-size="14.00">created</text>
</g>
<!-- Entity92 -->
<g id="node33" class="node entity">
<title>Entity92</title>
<ellipse fill="none" stroke="black" cx="2379.76" cy="-3865.26" rx="35.19" ry="18"/>
<text text-anchor="start" x="2360.76" y="-3861.56" font-family="Times New Roman,serif" font-size="14.00">gurgev</text>
</g>
<!-- Entity31&#45;&gt;Entity92 -->
<g id="edge26" class="edge verb">
<title>Entity31&#45;&gt;Entity92</title>
<path fill="none" stroke="black" d="M2768.78,-3929.32C2681.02,-3914.87 2504.87,-3885.86 2423.19,-3872.41"/>
<polygon fill="black" stroke="black" points="2423.68,-3868.95 2413.24,-3870.78 2422.54,-3875.86 2423.68,-3868.95"/>
<text text-anchor="start" x="2554.98" y="-3904.67" font-family="Times New Roman,serif" font-size="14.00">studied</text>
</g>
<!-- Entity95 -->
<g id="node35" class="node entity">
<title>Entity95</title>
<ellipse fill="none" stroke="black" cx="2523.1" cy="-4381.35" rx="53.09" ry="18"/>
<text text-anchor="start" x="2490.1" y="-4377.65" font-family="Times New Roman,serif" font-size="14.00">biosphere 2</text>
</g>
<!-- Entity31&#45;&gt;Entity95 -->
<g id="edge29" class="edge verb">
<title>Entity31&#45;&gt;Entity95</title>
<path fill="none" stroke="black" d="M2808.8,-3955.52C2762.8,-4024.09 2595.86,-4272.9 2540.83,-4354.92"/>
<polygon fill="black" stroke="black" points="2537.64,-4353.39 2534.98,-4363.64 2543.46,-4357.29 2537.64,-4353.39"/>
<text text-anchor="start" x="2633.81" y="-4159.02" font-family="Times New Roman,serif" font-size="14.00">created</text>
</g>
<!-- Entity104 -->
<g id="node48" class="node entity">
<title>Entity104</title>
<ellipse fill="none" stroke="black" cx="2606.89" cy="-4045.83" rx="64.99" ry="18"/>
<text text-anchor="start" x="2564.89" y="-4042.13" font-family="Times New Roman,serif" font-size="14.00">goldman sachs</text>
</g>
<!-- Entity31&#45;&gt;Entity104 -->
<g id="edge54" class="edge verb">
<title>Entity31&#45;&gt;Entity104</title>
<path fill="none" stroke="black" d="M2790.02,-3953.33C2752.46,-3972.3 2688.67,-4004.52 2647.17,-4025.48"/>
<polygon fill="black" stroke="black" points="2645.5,-4022.4 2638.15,-4030.04 2648.66,-4028.65 2645.5,-4022.4"/>
<text text-anchor="start" x="2655.59" y="-3993.21" font-family="Times New Roman,serif" font-size="14.00">worked for</text>
</g>
<!-- Entity112 -->
<g id="node55" class="node entity">
<title>Entity112</title>
<ellipse fill="none" stroke="black" cx="2307.49" cy="-4273.33" rx="77.19" ry="18"/>
<text text-anchor="start" x="2255.99" y="-4269.63" font-family="Times New Roman,serif" font-size="14.00">hollywood movies</text>
</g>
<!-- Entity31&#45;&gt;Entity112 -->
<g id="edge60" class="edge verb">
<title>Entity31&#45;&gt;Entity112</title>
<path fill="none" stroke="black" d="M2795.55,-3954.27C2711.35,-4009.31 2438.79,-4187.49 2341.99,-4250.77"/>
<polygon fill="black" stroke="black" points="2339.91,-4247.95 2333.45,-4256.35 2343.74,-4253.81 2339.91,-4247.95"/>
<text text-anchor="start" x="2513.77" y="-4106.32" font-family="Times New Roman,serif" font-size="14.00">produced</text>
</g>
<!-- Entity117 -->
<g id="node61" class="node entity">
<title>Entity117</title>
<ellipse fill="none" stroke="black" cx="2798.07" cy="-4396.14" rx="38.19" ry="18"/>
<text text-anchor="start" x="2776.57" y="-4392.44" font-family="Times New Roman,serif" font-size="14.00">us navy</text>
</g>
<!-- Entity31&#45;&gt;Entity117 -->
<g id="edge67" class="edge verb">
<title>Entity31&#45;&gt;Entity117</title>
<path fill="none" stroke="black" d="M2819.75,-3956.11C2816.27,-4026.67 2803.7,-4281.98 2799.47,-4367.79"/>
<polygon fill="black" stroke="black" points="2795.97,-4367.68 2798.97,-4377.84 2802.96,-4368.02 2795.97,-4367.68"/>
<text text-anchor="start" x="2748.61" y="-4165.75" font-family="Times New Roman,serif" font-size="14.00">member of</text>
</g>
<!-- Entity44 -->
<g id="node15" class="node entity">
<title>Entity44</title>
<ellipse fill="none" stroke="black" cx="3590.36" cy="-3056.48" rx="50.09" ry="18"/>
<text text-anchor="start" x="3559.86" y="-3052.78" font-family="Times New Roman,serif" font-size="14.00">john trump</text>
</g>
<!-- Entity22&#45;&gt;Entity44 -->
<g id="edge11" class="edge verb">
<title>Entity22&#45;&gt;Entity44</title>
<path fill="none" stroke="black" d="M3426.95,-3572.7C3451.92,-3493.82 3551.41,-3179.53 3581.62,-3084.1"/>
<polygon fill="black" stroke="black" points="3584.96,-3085.15 3584.64,-3074.56 3578.29,-3083.04 3584.96,-3085.15"/>
<text text-anchor="start" x="3445.29" y="-3332.2" font-family="Times New Roman,serif" font-size="14.00">nephew of</text>
</g>
<!-- Entity22&#45;&gt;Entity77 -->
<g id="edge38" class="edge verb">
<title>Entity22&#45;&gt;Entity77</title>
<path fill="none" stroke="black" d="M3471.1,-3580.83C3582.28,-3558.64 3848.56,-3505.49 3949.33,-3485.38"/>
<polygon fill="black" stroke="black" points="3950.27,-3488.76 3959.39,-3483.37 3948.9,-3481.9 3950.27,-3488.76"/>
<text text-anchor="start" x="3694.22" y="-3536.91" font-family="Times New Roman,serif" font-size="14.00">isa</text>
</g>
<!-- Entity61 -->
<g id="node8" class="node entity">
<title>Entity61</title>
<ellipse fill="none" stroke="black" cx="846.61" cy="-691.58" rx="49.29" ry="18"/>
<text text-anchor="start" x="816.61" y="-687.88" font-family="Times New Roman,serif" font-size="14.00">adolf hitler</text>
</g>
<!-- Entity71 -->
<g id="node9" class="node entity">
<title>Entity71</title>
<ellipse fill="none" stroke="black" cx="1236.85" cy="-724.48" rx="32.49" ry="18"/>
<text text-anchor="start" x="1219.85" y="-720.78" font-family="Times New Roman,serif" font-size="14.00">nsdap</text>
</g>
<!-- Entity61&#45;&gt;Entity71 -->
<g id="edge5" class="edge verb">
<title>Entity61&#45;&gt;Entity71</title>
<path fill="none" stroke="black" d="M894.85,-695.65C971.82,-702.14 1121.16,-714.73 1194.34,-720.89"/>
<polygon fill="black" stroke="black" points="1194.31,-724.4 1204.57,-721.76 1194.9,-717.43 1194.31,-724.4"/>
<text text-anchor="start" x="1003.6" y="-712.07" font-family="Times New Roman,serif" font-size="14.00">created</text>
</g>
<!-- Entity115 -->
<g id="node58" class="node entity">
<title>Entity115</title>
<ellipse fill="none" stroke="black" cx="871.85" cy="-454.92" rx="38.99" ry="18"/>
<text text-anchor="start" x="849.85" y="-451.22" font-family="Times New Roman,serif" font-size="14.00">far right</text>
</g>
<!-- Entity71&#45;&gt;Entity115 -->
<g id="edge64" class="edge verb">
<title>Entity71&#45;&gt;Entity115</title>
<path fill="none" stroke="black" d="M1217.22,-709.98C1156.75,-665.33 973,-529.63 901.12,-476.54"/>
<polygon fill="black" stroke="black" points="903.05,-473.61 892.92,-470.49 898.89,-479.24 903.05,-473.61"/>
<text text-anchor="start" x="998.17" y="-597.06" font-family="Times New Roman,serif" font-size="14.00">member of</text>
</g>
<!-- Entity6 -->
<g id="node10" class="node entity">
<title>Entity6</title>
<ellipse fill="none" stroke="black" cx="4355.83" cy="-1210.09" rx="64.19" ry="18"/>
<text text-anchor="start" x="4314.33" y="-1206.39" font-family="Times New Roman,serif" font-size="14.00">andre puharich</text>
</g>
<!-- Entity6&#45;&gt;Entity8 -->
<g id="edge6" class="edge verb">
<title>Entity6&#45;&gt;Entity8</title>
<path fill="none" stroke="black" d="M4344.02,-1228.04C4300.59,-1294.07 4149.55,-1523.66 4098.24,-1601.64"/>
<polygon fill="black" stroke="black" points="4095.07,-1600.1 4092.49,-1610.38 4100.91,-1603.95 4095.07,-1600.1"/>
<text text-anchor="start" x="4161.13" y="-1418.64" font-family="Times New Roman,serif" font-size="14.00">sponsored</text>
</g>
<!-- Entity3 -->
<g id="node11" class="node entity">
<title>Entity3</title>
<ellipse fill="none" stroke="black" cx="4290.61" cy="-2113.32" rx="68.49" ry="18"/>
<text text-anchor="start" x="4246.11" y="-2109.62" font-family="Times New Roman,serif" font-size="14.00">jeffrey mishlove</text>
</g>
<!-- Entity3&#45;&gt;Entity8 -->
<g id="edge7" class="edge verb">
<title>Entity3&#45;&gt;Entity8</title>
<path fill="none" stroke="black" d="M4282.77,-2095.17C4250.9,-2021.32 4130.82,-1743.14 4092.72,-1654.86"/>
<polygon fill="black" stroke="black" points="4095.86,-1653.32 4088.69,-1645.52 4089.44,-1656.09 4095.86,-1653.32"/>
<text text-anchor="start" x="4132.75" y="-1878.82" font-family="Times New Roman,serif" font-size="14.00">promoted</text>
</g>
<!-- Entity3&#45;&gt;Entity75 -->
<g id="edge22" class="edge verb">
<title>Entity3&#45;&gt;Entity75</title>
<path fill="none" stroke="black" d="M4223.6,-2109.65C4112.37,-2107.96 3889.8,-2110.35 3768.12,-2114.4"/>
<polygon fill="black" stroke="black" points="3767.98,-2110.91 3758.11,-2114.75 3768.22,-2117.9 3767.98,-2110.91"/>
<text text-anchor="start" x="3954.86" y="-2115.83" font-family="Times New Roman,serif" font-size="14.00">studied</text>
</g>
<!-- Entity3&#45;&gt;Entity75 -->
<g id="edge28" class="edge verb">
<title>Entity3&#45;&gt;Entity75</title>
<path fill="none" stroke="black" d="M4225.15,-2118.45C4114.92,-2122.68 3892.29,-2125.37 3769.7,-2124.1"/>
<polygon fill="black" stroke="black" points="3769.64,-2120.6 3759.6,-2123.99 3769.56,-2127.6 3769.64,-2120.6"/>
<text text-anchor="start" x="3997.43" y="-2125.08" font-family="Times New Roman,serif" font-size="14.00">investigates</text>
</g>
<!-- Entity20 -->
<g id="node12" class="node entity">
<title>Entity20</title>
<ellipse fill="none" stroke="black" cx="3732.19" cy="-3846.46" rx="68.49" ry="18"/>
<text text-anchor="start" x="3687.69" y="-3842.76" font-family="Times New Roman,serif" font-size="14.00">george hw bush</text>
</g>
<!-- Entity24 -->
<g id="node13" class="node entity">
<title>Entity24</title>
<ellipse fill="none" stroke="black" cx="4070.97" cy="-3585.57" rx="63.89" ry="18"/>
<text text-anchor="start" x="4029.97" y="-3581.87" font-family="Times New Roman,serif" font-size="14.00">george w bush</text>
</g>
<!-- Entity20&#45;&gt;Entity24 -->
<g id="edge8" class="edge verb">
<title>Entity20&#45;&gt;Entity24</title>
<path fill="none" stroke="black" d="M3754.42,-3829.34C3813.29,-3784.01 3973.31,-3660.78 4040.56,-3608.99"/>
<polygon fill="black" stroke="black" points="4042.87,-3611.62 4048.66,-3602.75 4038.6,-3606.07 4042.87,-3611.62"/>
<text text-anchor="start" x="3865.49" y="-3722.96" font-family="Times New Roman,serif" font-size="14.00">father</text>
</g>
<!-- Entity20&#45;&gt;Entity77 -->
<g id="edge40" class="edge verb">
<title>Entity20&#45;&gt;Entity77</title>
<path fill="none" stroke="black" d="M3744.57,-3828.66C3786.44,-3768.47 3922.85,-3572.4 3971.47,-3502.51"/>
<polygon fill="black" stroke="black" points="3974.37,-3504.47 3977.21,-3494.26 3968.63,-3500.47 3974.37,-3504.47"/>
<text text-anchor="start" x="3842.02" y="-3669.39" font-family="Times New Roman,serif" font-size="14.00">isa</text>
</g>
<!-- Entity24&#45;&gt;Entity77 -->
<g id="edge42" class="edge verb">
<title>Entity24&#45;&gt;Entity77</title>
<path fill="none" stroke="black" d="M4057.41,-3567.72C4043.87,-3549.88 4022.92,-3522.31 4007.75,-3502.34"/>
<polygon fill="black" stroke="black" points="4010.48,-3500.14 4001.64,-3494.3 4004.9,-3504.38 4010.48,-3500.14"/>
<text text-anchor="start" x="4016.58" y="-3538.83" font-family="Times New Roman,serif" font-size="14.00">isa</text>
</g>
<!-- Entity1 -->
<g id="node14" class="node entity">
<title>Entity1</title>
<ellipse fill="none" stroke="black" cx="3630.55" cy="-1660.62" rx="74.99" ry="18"/>
<text text-anchor="start" x="3581.05" y="-1656.92" font-family="Times New Roman,serif" font-size="14.00">gene roddenberry</text>
</g>
<!-- Entity1&#45;&gt;Entity16 -->
<g id="edge9" class="edge verb">
<title>Entity1&#45;&gt;Entity16</title>
<path fill="none" stroke="black" d="M3633.75,-1678.95C3636.7,-1695.82 3641.12,-1721.1 3644.51,-1740.53"/>
<polygon fill="black" stroke="black" points="3641.11,-1741.39 3646.28,-1750.63 3648.01,-1740.18 3641.11,-1741.39"/>
<text text-anchor="start" x="3535.13" y="-1713.54" font-family="Times New Roman,serif" font-size="14.00">claiemd to channel</text>
</g>
<!-- Entity44&#45;&gt;Entity25 -->
<g id="edge13" class="edge verb">
<title>Entity44&#45;&gt;Entity25</title>
<path fill="none" stroke="black" d="M3602.03,-3038.78C3640.62,-2980.19 3764.25,-2792.52 3809.12,-2724.41"/>
<polygon fill="black" stroke="black" points="3812.09,-2726.26 3814.67,-2715.98 3806.24,-2722.41 3812.09,-2726.26"/>
<text text-anchor="start" x="3644.57" y="-2885.39" font-family="Times New Roman,serif" font-size="14.00">member of</text>
</g>
<!-- Entity111 -->
<g id="node51" class="node entity">
<title>Entity111</title>
<ellipse fill="none" stroke="black" cx="3928.28" cy="-2807.4" rx="50.89" ry="18"/>
<text text-anchor="start" x="3897.28" y="-2803.7" font-family="Times New Roman,serif" font-size="14.00">nikola tesla</text>
</g>
<!-- Entity44&#45;&gt;Entity111 -->
<g id="edge56" class="edge verb">
<title>Entity44&#45;&gt;Entity111</title>
<path fill="none" stroke="black" d="M3612.54,-3040.14C3671.25,-2996.86 3830.86,-2879.21 3897.94,-2829.76"/>
<polygon fill="black" stroke="black" points="3900.05,-2832.56 3906.03,-2823.81 3895.9,-2826.92 3900.05,-2832.56"/>
<text text-anchor="start" x="3714.24" y="-2938.75" font-family="Times New Roman,serif" font-size="14.00">studied</text>
</g>
<!-- Entity34 -->
<g id="node16" class="node entity">
<title>Entity34</title>
<ellipse fill="none" stroke="black" cx="4484.1" cy="-4813.65" rx="90.98" ry="18"/>
<text text-anchor="start" x="4422.1" y="-4809.95" font-family="Times New Roman,serif" font-size="14.00">emma hardinge&#45;britten</text>
</g>
<!-- Entity28 -->
<g id="node17" class="node entity">
<title>Entity28</title>
<ellipse fill="none" stroke="black" cx="4258.4" cy="-4050.9" rx="67.69" ry="18"/>
<text text-anchor="start" x="4214.4" y="-4047.2" font-family="Times New Roman,serif" font-size="14.00">abraham lincoln</text>
</g>
<!-- Entity34&#45;&gt;Entity28 -->
<g id="edge12" class="edge verb">
<title>Entity34&#45;&gt;Entity28</title>
<path fill="none" stroke="black" d="M4478.74,-4795.55C4448.91,-4694.71 4303.24,-4202.43 4266.72,-4079.01"/>
<polygon fill="black" stroke="black" points="4270,-4077.77 4263.81,-4069.17 4263.29,-4079.76 4270,-4077.77"/>
<text text-anchor="start" x="4273.73" y="-4441.08" font-family="Times New Roman,serif" font-size="14.00">spokesperson for</text>
</g>
<!-- Entity97 -->
<g id="node36" class="node entity">
<title>Entity97</title>
<ellipse fill="none" stroke="black" cx="4507.07" cy="-5391.59" rx="39.79" ry="18"/>
<text text-anchor="start" x="4484.57" y="-5387.89" font-family="Times New Roman,serif" font-size="14.00">medium</text>
</g>
<!-- Entity34&#45;&gt;Entity97 -->
<g id="edge30" class="edge verb">
<title>Entity34&#45;&gt;Entity97</title>
<path fill="none" stroke="black" d="M4484.82,-4831.9C4488.14,-4915.39 4501.89,-5261.24 4505.94,-5363.18"/>
<polygon fill="black" stroke="black" points="4502.45,-5363.48 4506.34,-5373.33 4509.44,-5363.2 4502.45,-5363.48"/>
<text text-anchor="start" x="4479.38" y="-5101.34" font-family="Times New Roman,serif" font-size="14.00">isa</text>
</g>
<!-- Entity96 -->
<g id="node37" class="node entity">
<title>Entity96</title>
<ellipse fill="none" stroke="black" cx="4644.11" cy="-4251.47" rx="85.29" ry="18"/>
<text text-anchor="start" x="4586.61" y="-4247.77" font-family="Times New Roman,serif" font-size="14.00">theosophical society</text>
</g>
<!-- Entity34&#45;&gt;Entity96 -->
<g id="edge31" class="edge verb">
<title>Entity34&#45;&gt;Entity96</title>
<path fill="none" stroke="black" d="M4489.24,-4795.58C4512.49,-4713.89 4607.88,-4378.76 4636.17,-4279.38"/>
<polygon fill="black" stroke="black" points="4639.62,-4280.05 4638.99,-4269.48 4632.88,-4278.13 4639.62,-4280.05"/>
<text text-anchor="start" x="4521.71" y="-4541.28" font-family="Times New Roman,serif" font-size="14.00">created</text>
</g>
<!-- Entity118 -->
<g id="node60" class="node entity">
<title>Entity118</title>
<ellipse fill="none" stroke="black" cx="4794.22" cy="-5369.17" rx="55.79" ry="18"/>
<text text-anchor="start" x="4759.22" y="-5365.47" font-family="Times New Roman,serif" font-size="14.00">orphic circle</text>
</g>
<!-- Entity34&#45;&gt;Entity118 -->
<g id="edge66" class="edge verb">
<title>Entity34&#45;&gt;Entity118</title>
<path fill="none" stroke="black" d="M4494.24,-4831.82C4539.75,-4913.34 4725.27,-5245.66 4779.36,-5342.54"/>
<polygon fill="black" stroke="black" points="4776.38,-5344.39 4784.31,-5351.42 4782.49,-5340.98 4776.38,-5344.39"/>
<text text-anchor="start" x="4575.8" y="-5090.98" font-family="Times New Roman,serif" font-size="14.00">member of</text>
</g>
<!-- Entity28&#45;&gt;Entity77 -->
<g id="edge47" class="edge verb">
<title>Entity28&#45;&gt;Entity77</title>
<path fill="none" stroke="black" d="M4249.89,-4032.79C4210.75,-3949.52 4047.97,-3603.2 4001.38,-3504.1"/>
<polygon fill="black" stroke="black" points="4004.54,-3502.6 3997.12,-3495.04 3998.21,-3505.57 4004.54,-3502.6"/>
<text text-anchor="start" x="4109.64" y="-3772.25" font-family="Times New Roman,serif" font-size="14.00">isa</text>
</g>
<!-- Entity70 -->
<g id="node18" class="node entity">
<title>Entity70</title>
<ellipse fill="none" stroke="black" cx="36.03" cy="-17.58" rx="36.29" ry="18"/>
<text text-anchor="start" x="16.03" y="-13.88" font-family="Times New Roman,serif" font-size="14.00">oswald</text>
</g>
<!-- Entity69 -->
<g id="node19" class="node entity">
<title>Entity69</title>
<ellipse fill="none" stroke="black" cx="431.32" cy="-215.17" rx="59.29" ry="18"/>
<text text-anchor="start" x="393.82" y="-211.47" font-family="Times New Roman,serif" font-size="14.00">guy bannister</text>
</g>
<!-- Entity70&#45;&gt;Entity69 -->
<g id="edge14" class="edge verb">
<title>Entity70&#45;&gt;Entity69</title>
<path fill="none" stroke="black" d="M61.66,-30.39C128.74,-63.92 309.84,-154.44 391.01,-195.02"/>
<polygon fill="black" stroke="black" points="389.89,-198.37 400.4,-199.71 393.02,-192.11 389.89,-198.37"/>
<text text-anchor="start" x="163.34" y="-116.5" font-family="Times New Roman,serif" font-size="14.00">worked for</text>
</g>
<!-- Entity69&#45;&gt;Entity115 -->
<g id="edge63" class="edge verb">
<title>Entity69&#45;&gt;Entity115</title>
<path fill="none" stroke="black" d="M460.23,-230.9C538.36,-273.42 753.55,-390.54 837.59,-436.28"/>
<polygon fill="black" stroke="black" points="836.01,-439.41 846.47,-441.11 839.36,-433.26 836.01,-439.41"/>
<text text-anchor="start" x="587.91" y="-337.39" font-family="Times New Roman,serif" font-size="14.00">member of</text>
</g>
<!-- Entity68 -->
<g id="node20" class="node entity">
<title>Entity68</title>
<ellipse fill="none" stroke="black" cx="2973.46" cy="-3260.25" rx="37.89" ry="18"/>
<text text-anchor="start" x="2952.46" y="-3256.55" font-family="Times New Roman,serif" font-size="14.00">hunt oil</text>
</g>
<!-- Entity67 -->
<g id="node21" class="node entity">
<title>Entity67</title>
<ellipse fill="none" stroke="black" cx="3468.7" cy="-3376.74" rx="77.99" ry="18"/>
<text text-anchor="start" x="3416.7" y="-3373.04" font-family="Times New Roman,serif" font-size="14.00">dwight eisenhower</text>
</g>
<!-- Entity68&#45;&gt;Entity67 -->
<g id="edge15" class="edge verb">
<title>Entity68&#45;&gt;Entity67</title>
<path fill="none" stroke="black" d="M3007.5,-3268.26C3089.22,-3287.48 3297.58,-3336.49 3404.01,-3361.52"/>
<polygon fill="black" stroke="black" points="3403.44,-3364.98 3413.98,-3363.87 3405.05,-3358.17 3403.44,-3364.98"/>
<text text-anchor="start" x="3165.75" y="-3318.69" font-family="Times New Roman,serif" font-size="14.00">funded</text>
</g>
<!-- Entity67&#45;&gt;Entity77 -->
<g id="edge33" class="edge verb">
<title>Entity67&#45;&gt;Entity77</title>
<path fill="none" stroke="black" d="M3528.62,-3388.34C3636.02,-3409.15 3858.51,-3452.24 3949.15,-3469.8"/>
<polygon fill="black" stroke="black" points="3948.54,-3473.24 3959.02,-3471.71 3949.87,-3466.37 3948.54,-3473.24"/>
<text text-anchor="start" x="3719.89" y="-3432.87" font-family="Times New Roman,serif" font-size="14.00">is a</text>
</g>
<!-- Entity58 -->
<g id="node22" class="node entity">
<title>Entity58</title>
<ellipse fill="none" stroke="black" cx="1443.34" cy="-1507.49" rx="46.29" ry="18"/>
<text text-anchor="start" x="1415.84" y="-1503.79" font-family="Times New Roman,serif" font-size="14.00">van braun</text>
</g>
<!-- Entity35 -->
<g id="node23" class="node entity">
<title>Entity35</title>
<ellipse fill="none" stroke="black" cx="1777.26" cy="-1054.56" rx="74.99" ry="18"/>
<text text-anchor="start" x="1727.76" y="-1050.86" font-family="Times New Roman,serif" font-size="14.00">walter dornberger</text>
</g>
<!-- Entity58&#45;&gt;Entity35 -->
<g id="edge16" class="edge verb">
<title>Entity58&#45;&gt;Entity35</title>
<path fill="none" stroke="black" d="M1456.23,-1490.01C1507.4,-1420.61 1696.42,-1164.22 1757.84,-1080.91"/>
<polygon fill="black" stroke="black" points="1760.75,-1082.85 1763.87,-1072.73 1755.12,-1078.7 1760.75,-1082.85"/>
<text text-anchor="start" x="1544.04" y="-1289.26" font-family="Times New Roman,serif" font-size="14.00">worked for</text>
</g>
<!-- Entity100 -->
<g id="node38" class="node entity">
<title>Entity100</title>
<ellipse fill="none" stroke="black" cx="1455.03" cy="-1615.54" rx="90.98" ry="18"/>
<text text-anchor="start" x="1393.03" y="-1611.84" font-family="Times New Roman,serif" font-size="14.00">nsdap rocket program</text>
</g>
<!-- Entity58&#45;&gt;Entity100 -->
<g id="edge51" class="edge verb">
<title>Entity58&#45;&gt;Entity100</title>
<path fill="none" stroke="black" d="M1445.33,-1525.82C1447.15,-1542.69 1449.88,-1567.95 1451.98,-1587.38"/>
<polygon fill="black" stroke="black" points="1448.52,-1587.91 1453.07,-1597.48 1455.48,-1587.16 1448.52,-1587.91"/>
<text text-anchor="start" x="1392.65" y="-1560.4" font-family="Times New Roman,serif" font-size="14.00">worked at</text>
</g>
<!-- Entity35&#45;&gt;Entity71 -->
<g id="edge52" class="edge verb">
<title>Entity35&#45;&gt;Entity71</title>
<path fill="none" stroke="black" d="M1749.72,-1037.74C1658.04,-981.74 1363.54,-801.86 1267.47,-743.18"/>
<polygon fill="black" stroke="black" points="1269.16,-740.12 1258.8,-737.89 1265.51,-746.09 1269.16,-740.12"/>
<text text-anchor="start" x="1447.59" y="-894.26" font-family="Times New Roman,serif" font-size="14.00">member of</text>
</g>
<!-- Entity35&#45;&gt;Entity76 -->
<g id="edge25" class="edge verb">
<title>Entity35&#45;&gt;Entity76</title>
<path fill="none" stroke="black" d="M1813.45,-1070.5C1930.36,-1115.74 2298.21,-1243.17 2435.91,-1286.36"/>
<polygon fill="black" stroke="black" points="2435.22,-1289.81 2445.8,-1289.44 2437.3,-1283.13 2435.22,-1289.81"/>
<text text-anchor="start" x="2068.68" y="-1182.23" font-family="Times New Roman,serif" font-size="14.00">worked at</text>
</g>
<!-- Entity35&#45;&gt;Entity76 -->
<g id="edge32" class="edge verb">
<title>Entity35&#45;&gt;Entity76</title>
<path fill="none" stroke="black" d="M1827.34,-1068.05C1960.75,-1109.74 2322.91,-1235.1 2446.57,-1282.48"/>
<polygon fill="black" stroke="black" points="2445.5,-1285.82 2456.09,-1286.16 2448.02,-1279.29 2445.5,-1285.82"/>
<text text-anchor="start" x="2057.96" y="-1164.06" font-family="Times New Roman,serif" font-size="14.00">vice&#45;president</text>
</g>
<!-- Entity35&#45;&gt;Entity100 -->
<g id="edge34" class="edge verb">
<title>Entity35&#45;&gt;Entity100</title>
<path fill="none" stroke="black" d="M1766.91,-1072.59C1719.89,-1154.44 1526.43,-1491.24 1470.34,-1588.89"/>
<polygon fill="black" stroke="black" points="1467.29,-1587.16 1465.35,-1597.57 1473.36,-1590.65 1467.29,-1587.16"/>
<text text-anchor="start" x="1577.62" y="-1334.54" font-family="Times New Roman,serif" font-size="14.00">created</text>
</g>
<!-- Entity99 -->
<g id="node42" class="node entity">
<title>Entity99</title>
<ellipse fill="none" stroke="black" cx="1631.44" cy="-489.1" rx="65.79" ry="18"/>
<text text-anchor="start" x="1588.94" y="-485.4" font-family="Times New Roman,serif" font-size="14.00">x series aircraft</text>
</g>
<!-- Entity35&#45;&gt;Entity99 -->
<g id="edge39" class="edge verb">
<title>Entity35&#45;&gt;Entity99</title>
<path fill="none" stroke="black" d="M1772.58,-1036.39C1751.39,-954.22 1664.46,-617.13 1638.68,-517.17"/>
<polygon fill="black" stroke="black" points="1642,-516.02 1636.11,-507.21 1635.22,-517.77 1642,-516.02"/>
<text text-anchor="start" x="1664.63" y="-780.58" font-family="Times New Roman,serif" font-size="14.00">created</text>
</g>
<!-- Entity72 -->
<g id="node24" class="node entity">
<title>Entity72</title>
<ellipse fill="none" stroke="black" cx="2591.94" cy="-2867.66" rx="27" ry="18"/>
<text text-anchor="start" x="2588.44" y="-2863.96" font-family="Times New Roman,serif" font-size="14.00">s</text>
</g>
<!-- Entity74 -->
<g id="node25" class="node entity">
<title>Entity74</title>
<ellipse fill="none" stroke="black" cx="2679.66" cy="-2979.64" rx="27" ry="18"/>
<text text-anchor="start" x="2675.66" y="-2975.94" font-family="Times New Roman,serif" font-size="14.00">o</text>
</g>
<!-- Entity72&#45;&gt;Entity74 -->
<g id="edge17" class="edge verb">
<title>Entity72&#45;&gt;Entity74</title>
<path fill="none" stroke="black" d="M2604.51,-2883.7C2619.23,-2902.5 2643.76,-2933.82 2660.78,-2955.53"/>
<polygon fill="black" stroke="black" points="2658.19,-2957.91 2667.11,-2963.62 2663.7,-2953.59 2658.19,-2957.91"/>
<text text-anchor="start" x="2625.64" y="-2923.42" font-family="Times New Roman,serif" font-size="14.00">v</text>
</g>
<!-- Entity21 -->
<g id="node27" class="node entity">
<title>Entity21</title>
<ellipse fill="none" stroke="black" cx="4337.18" cy="-3418.28" rx="35.19" ry="18"/>
<text text-anchor="start" x="4318.18" y="-3414.58" font-family="Times New Roman,serif" font-size="14.00">obama</text>
</g>
<!-- Entity21&#45;&gt;Entity77 -->
<g id="edge19" class="edge verb">
<title>Entity21&#45;&gt;Entity77</title>
<path fill="none" stroke="black" d="M4303.78,-3423.95C4239.49,-3434.88 4098.74,-3458.81 4029.28,-3470.62"/>
<polygon fill="black" stroke="black" points="4028.44,-3467.21 4019.17,-3472.34 4029.61,-3474.11 4028.44,-3467.21"/>
<text text-anchor="start" x="4150.53" y="-3451.09" font-family="Times New Roman,serif" font-size="14.00">isa</text>
</g>
<!-- Entity32 -->
<g id="node30" class="node entity">
<title>Entity32</title>
<ellipse fill="none" stroke="black" cx="1719.7" cy="-4418.32" rx="69.59" ry="18"/>
<text text-anchor="start" x="1674.2" y="-4414.62" font-family="Times New Roman,serif" font-size="14.00">andrew breitbart</text>
</g>
<!-- Entity32&#45;&gt;Entity80 -->
<g id="edge21" class="edge verb">
<title>Entity32&#45;&gt;Entity80</title>
<path fill="none" stroke="black" d="M1748.79,-4401.9C1835.63,-4352.84 2093,-4207.47 2189.57,-4152.91"/>
<polygon fill="black" stroke="black" points="2191.42,-4155.89 2198.41,-4147.92 2187.98,-4149.79 2191.42,-4155.89"/>
<text text-anchor="start" x="1928.18" y="-4281.2" font-family="Times New Roman,serif" font-size="14.00">created</text>
</g>
<!-- Entity43 -->
<g id="node32" class="node entity">
<title>Entity43</title>
<ellipse fill="none" stroke="black" cx="4657.04" cy="-3525.73" rx="71.49" ry="18"/>
<text text-anchor="start" x="4610.04" y="-3522.03" font-family="Times New Roman,serif" font-size="14.00">woodrow wilson</text>
</g>
<!-- Entity43&#45;&gt;Entity77 -->
<g id="edge23" class="edge verb">
<title>Entity43&#45;&gt;Entity77</title>
<path fill="none" stroke="black" d="M4588.05,-3520.75C4449.64,-3510.76 4141.81,-3488.53 4030.26,-3480.48"/>
<polygon fill="black" stroke="black" points="4030.31,-3476.97 4020.09,-3479.74 4029.81,-3483.95 4030.31,-3476.97"/>
<text text-anchor="start" x="4293.15" y="-3504.41" font-family="Times New Roman,serif" font-size="14.00">isa</text>
</g>
<!-- Entity110 -->
<g id="node53" class="node entity">
<title>Entity110</title>
<ellipse fill="none" stroke="black" cx="5276.31" cy="-3636.08" rx="71.49" ry="18"/>
<text text-anchor="start" x="5229.31" y="-3632.38" font-family="Times New Roman,serif" font-size="14.00">leauge of nations</text>
</g>
<!-- Entity43&#45;&gt;Entity110 -->
<g id="edge58" class="edge verb">
<title>Entity43&#45;&gt;Entity110</title>
<path fill="none" stroke="black" d="M4715.58,-3536.16C4830.53,-3556.65 5085.24,-3602.03 5207.8,-3623.87"/>
<polygon fill="black" stroke="black" points="5207.36,-3627.35 5217.82,-3625.66 5208.58,-3620.46 5207.36,-3627.35"/>
<text text-anchor="start" x="4920.69" y="-3583.82" font-family="Times New Roman,serif" font-size="14.00">created</text>
</g>
<!-- Entity27 -->
<g id="node34" class="node entity">
<title>Entity27</title>
<ellipse fill="none" stroke="black" cx="4320.64" cy="-2221.25" rx="63.89" ry="18"/>
<text text-anchor="start" x="4279.64" y="-2217.55" font-family="Times New Roman,serif" font-size="14.00">robert bigelow</text>
</g>
<!-- Entity27&#45;&gt;Entity3 -->
<g id="edge27" class="edge verb">
<title>Entity27&#45;&gt;Entity3</title>
<path fill="none" stroke="black" d="M4315.54,-2202.94C4310.83,-2186.01 4303.77,-2160.62 4298.36,-2141.18"/>
<polygon fill="black" stroke="black" points="4301.68,-2140.05 4295.63,-2131.36 4294.94,-2141.93 4301.68,-2140.05"/>
<text text-anchor="start" x="4274.95" y="-2175.86" font-family="Times New Roman,serif" font-size="14.00">funds</text>
</g>
<!-- Entity27&#45;&gt;Entity75 -->
<g id="edge43" class="edge verb">
<title>Entity27&#45;&gt;Entity75</title>
<path fill="none" stroke="black" d="M4264.97,-2212.42C4150.21,-2194.2 3887.27,-2152.48 3758.18,-2131.99"/>
<polygon fill="black" stroke="black" points="3758.42,-2128.48 3748,-2130.37 3757.32,-2135.4 3758.42,-2128.48"/>
<text text-anchor="start" x="3947.58" y="-2176" font-family="Times New Roman,serif" font-size="14.00">investigates</text>
</g>
<!-- Entity48 -->
<g id="node39" class="node entity">
<title>Entity48</title>
<ellipse fill="none" stroke="black" cx="4748.64" cy="-4359.42" rx="58.49" ry="18"/>
<text text-anchor="start" x="4711.64" y="-4355.72" font-family="Times New Roman,serif" font-size="14.00">rudolf steiner</text>
</g>
<!-- Entity48&#45;&gt;Entity96 -->
<g id="edge35" class="edge verb">
<title>Entity48&#45;&gt;Entity96</title>
<path fill="none" stroke="black" d="M4731.85,-4342.07C4714.65,-4324.32 4687.76,-4296.55 4668.28,-4276.43"/>
<polygon fill="black" stroke="black" points="4670.68,-4273.88 4661.21,-4269.13 4665.65,-4278.75 4670.68,-4273.88"/>
<text text-anchor="start" x="4634.06" y="-4313.05" font-family="Times New Roman,serif" font-size="14.00">memberr of</text>
</g>
<!-- Entity109 -->
<g id="node54" class="node entity">
<title>Entity109</title>
<ellipse fill="none" stroke="black" cx="5237.78" cy="-4841.62" rx="102.08" ry="18"/>
<text text-anchor="start" x="5167.28" y="-4837.92" font-family="Times New Roman,serif" font-size="14.00">anthroposophical society</text>
</g>
<!-- Entity48&#45;&gt;Entity109 -->
<g id="edge59" class="edge verb">
<title>Entity48&#45;&gt;Entity109</title>
<path fill="none" stroke="black" d="M4766.34,-4376.86C4840.33,-4449.8 5125.04,-4730.48 5212.25,-4816.45"/>
<polygon fill="black" stroke="black" points="5210.01,-4819.16 5219.59,-4823.69 5214.93,-4814.18 5210.01,-4819.16"/>
<text text-anchor="start" x="4948.29" y="-4600.45" font-family="Times New Roman,serif" font-size="14.00">created</text>
</g>
<!-- Entity18 -->
<g id="node40" class="node entity">
<title>Entity18</title>
<ellipse fill="none" stroke="black" cx="4357.03" cy="-3705.88" rx="58.49" ry="18"/>
<text text-anchor="start" x="4320.03" y="-3702.18" font-family="Times New Roman,serif" font-size="14.00">richard nixon</text>
</g>
<!-- Entity18&#45;&gt;Entity77 -->
<g id="edge36" class="edge verb">
<title>Entity18&#45;&gt;Entity77</title>
<path fill="none" stroke="black" d="M4330.85,-3689.64C4264.51,-3648.48 4090.05,-3540.25 4019.32,-3496.37"/>
<polygon fill="black" stroke="black" points="4020.78,-3493.16 4010.43,-3490.86 4017.09,-3499.11 4020.78,-3493.16"/>
<text text-anchor="start" x="4159.08" y="-3596.81" font-family="Times New Roman,serif" font-size="14.00">isa</text>
</g>
<!-- Entity17 -->
<g id="node41" class="node entity">
<title>Entity17</title>
<ellipse fill="none" stroke="black" cx="3885.98" cy="-3958.3" rx="56.59" ry="18"/>
<text text-anchor="start" x="3850.48" y="-3954.6" font-family="Times New Roman,serif" font-size="14.00">harry truman</text>
</g>
<!-- Entity17&#45;&gt;Entity77 -->
<g id="edge37" class="edge verb">
<title>Entity17&#45;&gt;Entity77</title>
<path fill="none" stroke="black" d="M3889.83,-3940.32C3905.41,-3867.51 3963.93,-3594.06 3982.9,-3505.42"/>
<polygon fill="black" stroke="black" points="3986.34,-3506.06 3985.01,-3495.55 3979.5,-3504.6 3986.34,-3506.06"/>
<text text-anchor="start" x="3920.36" y="-3726.67" font-family="Times New Roman,serif" font-size="14.00">isa</text>
</g>
<!-- Entity116 -->
<g id="node59" class="node entity">
<title>Entity116</title>
<ellipse fill="none" stroke="black" cx="3829.83" cy="-4472.67" rx="55.79" ry="18"/>
<text text-anchor="start" x="3794.83" y="-4468.97" font-family="Times New Roman,serif" font-size="14.00">freemasonry</text>
</g>
<!-- Entity17&#45;&gt;Entity116 -->
<g id="edge65" class="edge verb">
<title>Entity17&#45;&gt;Entity116</title>
<path fill="none" stroke="black" d="M3884.02,-3976.3C3875.67,-4052.76 3843.13,-4350.87 3832.91,-4444.42"/>
<polygon fill="black" stroke="black" points="3829.41,-4444.23 3831.81,-4454.55 3836.37,-4444.99 3829.41,-4444.23"/>
<text text-anchor="start" x="3797.46" y="-4214.16" font-family="Times New Roman,serif" font-size="14.00">member of</text>
</g>
<!-- Entity23 -->
<g id="node43" class="node entity">
<title>Entity23</title>
<ellipse fill="none" stroke="black" cx="4168.68" cy="-3140.73" rx="31.4" ry="18"/>
<text text-anchor="start" x="4152.68" y="-3137.03" font-family="Times New Roman,serif" font-size="14.00">carter</text>
</g>
<!-- Entity23&#45;&gt;Entity77 -->
<g id="edge41" class="edge verb">
<title>Entity23&#45;&gt;Entity77</title>
<path fill="none" stroke="black" d="M4159.26,-3158.36C4129.65,-3213.83 4038.27,-3384.98 4002.98,-3451.07"/>
<polygon fill="black" stroke="black" points="3999.82,-3449.56 3998.2,-3460.03 4005.99,-3452.86 3999.82,-3449.56"/>
<text text-anchor="start" x="4065.12" y="-3308.52" font-family="Times New Roman,serif" font-size="14.00">isa</text>
</g>
<!-- Entity23&#45;&gt;Entity108 -->
<g id="edge57" class="edge verb">
<title>Entity23&#45;&gt;Entity108</title>
<path fill="none" stroke="black" d="M4168.29,-3122.38C4167.1,-3066.11 4163.52,-2895.71 4162.09,-2827.8"/>
<polygon fill="black" stroke="black" points="4165.58,-2827.37 4161.87,-2817.45 4158.58,-2827.52 4165.58,-2827.37"/>
<text text-anchor="start" x="4110.19" y="-2978.89" font-family="Times New Roman,serif" font-size="14.00">witnessed</text>
</g>
<!-- Entity50 -->
<g id="node44" class="node entity">
<title>Entity50</title>
<ellipse fill="none" stroke="black" cx="5252.91" cy="-4533.88" rx="73.39" ry="18"/>
<text text-anchor="start" x="5204.41" y="-4530.18" font-family="Times New Roman,serif" font-size="14.00">madam blavatsky</text>
</g>
<!-- Entity50&#45;&gt;Entity96 -->
<g id="edge44" class="edge verb">
<title>Entity50&#45;&gt;Entity96</title>
<path fill="none" stroke="black" d="M5218.43,-4517.89C5114.7,-4469.77 4805.46,-4326.32 4689.07,-4272.33"/>
<polygon fill="black" stroke="black" points="4690.27,-4269.03 4679.73,-4268 4687.32,-4275.38 4690.27,-4269.03"/>
<text text-anchor="start" x="4912.75" y="-4398.91" font-family="Times New Roman,serif" font-size="14.00">created</text>
</g>
<!-- Entity51 -->
<g id="node45" class="node entity">
<title>Entity51</title>
<ellipse fill="none" stroke="black" cx="5205.57" cy="-3387.9" rx="53.89" ry="18"/>
<text text-anchor="start" x="5172.07" y="-3384.2" font-family="Times New Roman,serif" font-size="14.00">edgar casey</text>
</g>
<!-- Entity51&#45;&gt;Entity43 -->
<g id="edge48" class="edge verb">
<title>Entity51&#45;&gt;Entity43</title>
<path fill="none" stroke="black" d="M5162.07,-3398.83C5064.79,-3423.28 4829.44,-3482.41 4717.78,-3510.47"/>
<polygon fill="black" stroke="black" points="4716.86,-3507.09 4708.02,-3512.92 4718.57,-3513.88 4716.86,-3507.09"/>
<text text-anchor="start" x="4897.93" y="-3458.45" font-family="Times New Roman,serif" font-size="14.00">advises</text>
</g>
<!-- Entity29 -->
<g id="node46" class="node entity">
<title>Entity29</title>
<ellipse fill="none" stroke="black" cx="2242.58" cy="-883.87" rx="57.69" ry="18"/>
<text text-anchor="start" x="2206.08" y="-880.17" font-family="Times New Roman,serif" font-size="14.00">michael pane</text>
</g>
<!-- Entity29&#45;&gt;Entity35 -->
<g id="edge50" class="edge verb">
<title>Entity29&#45;&gt;Entity35</title>
<path fill="none" stroke="black" d="M2204.89,-897.7C2121.73,-928.21 1922.4,-1001.32 1828.21,-1035.87"/>
<polygon fill="black" stroke="black" points="1826.8,-1032.66 1818.62,-1039.39 1829.21,-1039.24 1826.8,-1032.66"/>
<text text-anchor="start" x="1953.55" y="-970.59" font-family="Times New Roman,serif" font-size="14.00">worked for</text>
</g>
<!-- Entity29&#45;&gt;Entity76 -->
<g id="edge49" class="edge verb">
<title>Entity29&#45;&gt;Entity76</title>
<path fill="none" stroke="black" d="M2253.15,-901.78C2291.95,-967.51 2426.66,-1195.71 2472.9,-1274.04"/>
<polygon fill="black" stroke="black" points="2469.98,-1275.99 2478.08,-1282.82 2476.01,-1272.43 2469.98,-1275.99"/>
<text text-anchor="start" x="2307.02" y="-1091.71" font-family="Times New Roman,serif" font-size="14.00">worked at</text>
</g>
<!-- Entity30 -->
<g id="node49" class="node entity">
<title>Entity30</title>
<ellipse fill="none" stroke="black" cx="3174.94" cy="-2297.66" rx="39.79" ry="18"/>
<text text-anchor="start" x="3152.44" y="-2293.96" font-family="Times New Roman,serif" font-size="14.00">crowley</text>
</g>
<!-- Entity106 -->
<g id="node50" class="node entity">
<title>Entity106</title>
<ellipse fill="none" stroke="black" cx="3262.66" cy="-2409.64" rx="38.99" ry="18"/>
<text text-anchor="start" x="3240.66" y="-2405.94" font-family="Times New Roman,serif" font-size="14.00">x magic</text>
</g>
<!-- Entity30&#45;&gt;Entity106 -->
<g id="edge55" class="edge verb">
<title>Entity30&#45;&gt;Entity106</title>
<path fill="none" stroke="black" d="M3188.26,-2314.67C3202.82,-2333.25 3226.28,-2363.2 3242.96,-2384.49"/>
<polygon fill="black" stroke="black" points="3240.29,-2386.76 3249.21,-2392.47 3245.8,-2382.44 3240.29,-2386.76"/>
<text text-anchor="start" x="3154.61" y="-2353.38" font-family="Times New Roman,serif" font-size="14.00">member of</text>
</g>
<!-- Entity56 -->
<g id="node56" class="node entity">
<title>Entity56</title>
<ellipse fill="none" stroke="black" cx="2618.94" cy="-2297.66" rx="53.89" ry="18"/>
<text text-anchor="start" x="2585.44" y="-2293.96" font-family="Times New Roman,serif" font-size="14.00">black magic</text>
</g>
<!-- Entity114 -->
<g id="node57" class="node entity">
<title>Entity114</title>
<ellipse fill="none" stroke="black" cx="2706.66" cy="-2409.64" rx="28.7" ry="18"/>
<text text-anchor="start" x="2692.66" y="-2405.94" font-family="Times New Roman,serif" font-size="14.00">x left</text>
</g>
<!-- Entity56&#45;&gt;Entity114 -->
<g id="edge61" class="edge verb">
<title>Entity56&#45;&gt;Entity114</title>
<path fill="none" stroke="black" d="M2632.64,-2315.16C2647.45,-2334.05 2671.14,-2364.29 2687.72,-2385.45"/>
<polygon fill="black" stroke="black" points="2684.98,-2387.64 2693.9,-2393.36 2690.49,-2383.32 2684.98,-2387.64"/>
<text text-anchor="start" x="2599.18" y="-2354.11" font-family="Times New Roman,serif" font-size="14.00">member of</text>
</g>
</g>
</svg>
