<?xml version="1.0" encoding="UTF-8" standalone="no"?>
<?xml-stylesheet href="./styles.css" type="text/css"?>
<!DOCTYPE svg PUBLIC "-//W3C//DTD SVG 1.1//EN"
 "http://www.w3.org/Graphics/SVG/1.1/DTD/svg11.dtd">
<!-- Generated by graphviz version 2.47.3 (20210619.1520)
 -->
<!-- Title: G Pages: 1 -->
<svg width="6771pt" height="4510pt"
 viewBox="0.00 0.00 6771.00 4510.00" xmlns="http://www.w3.org/2000/svg" xmlns:xlink="http://www.w3.org/1999/xlink">
<g id="graph0" class="graph" transform="scale(1 1) rotate(0) translate(4 4506)">
<title>G</title>
<polygon fill="white" stroke="transparent" points="-4,4 -4,-4506 6767,-4506 6767,4 -4,4"/>
<!-- Entity113 -->
<g id="node1" class="node entity">
<title>Entity113</title>
<ellipse fill="none" stroke="black" cx="2810.29" cy="-3822.79" rx="41.69" ry="18"/>
<text text-anchor="start" x="2786.29" y="-3819.09" font-family="Times New Roman,serif" font-size="14.00">uri geller</text>
</g>
<!-- Entity124 -->
<g id="node2" class="node entity">
<title>Entity124</title>
<ellipse fill="none" stroke="black" cx="3061.11" cy="-3916.79" rx="38.19" ry="18"/>
<text text-anchor="start" x="3039.61" y="-3913.09" font-family="Times New Roman,serif" font-size="14.00">the nine</text>
</g>
<!-- Entity113&#45;&gt;Entity124 -->
<g id="edge1" class="edge verb">
<title>Entity113&#45;&gt;Entity124</title>
<path fill="none" stroke="black" d="M2841.8,-3834.6C2887.44,-3851.7 2971.9,-3883.36 3021.63,-3902"/>
<polygon fill="black" stroke="black" points="3020.5,-3905.31 3031.09,-3905.54 3022.96,-3898.76 3020.5,-3905.31"/>
<text text-anchor="start" x="2827.71" y="-3872.1" font-family="Times New Roman,serif" font-size="14.00">claiemd to channel</text>
</g>
<!-- Entity181 -->
<g id="node11" class="node entity">
<title>Entity181</title>
<ellipse fill="none" stroke="black" cx="3200.47" cy="-4484.29" rx="94.48" ry="18"/>
<text text-anchor="start" x="3135.97" y="-4480.59" font-family="Times New Roman,serif" font-size="14.00">egyptian gods in a ship</text>
</g>
<!-- Entity124&#45;&gt;Entity181 -->
<g id="edge10" class="edge verb">
<title>Entity124&#45;&gt;Entity181</title>
<path fill="none" stroke="black" d="M3065.51,-3934.71C3085.62,-4016.61 3168.86,-4355.55 3193.54,-4456.07"/>
<polygon fill="black" stroke="black" points="3190.22,-4457.21 3196,-4466.09 3197.02,-4455.54 3190.22,-4457.21"/>
<text text-anchor="start" x="3025.53" y="-4199.19" font-family="Times New Roman,serif" font-size="14.00">claimed to channel</text>
</g>
<!-- Entity112 -->
<g id="node3" class="node entity">
<title>Entity112</title>
<ellipse fill="none" stroke="black" cx="3299.81" cy="-3685.6" rx="56.59" ry="18"/>
<text text-anchor="start" x="3264.31" y="-3681.9" font-family="Times New Roman,serif" font-size="14.00">arthur young</text>
</g>
<!-- Entity112&#45;&gt;Entity124 -->
<g id="edge7" class="edge verb">
<title>Entity112&#45;&gt;Entity124</title>
<path fill="none" stroke="black" d="M3281.87,-3702.97C3239.56,-3743.96 3133.48,-3846.7 3085.44,-3893.23"/>
<polygon fill="black" stroke="black" points="3082.72,-3890.99 3077.97,-3900.46 3087.59,-3896.02 3082.72,-3890.99"/>
<text text-anchor="start" x="3121.65" y="-3801.9" font-family="Times New Roman,serif" font-size="14.00">member&#45;of</text>
</g>
<!-- Entity178 -->
<g id="node4" class="node entity">
<title>Entity178</title>
<ellipse fill="none" stroke="black" cx="3990.09" cy="-3780.56" rx="53.89" ry="18"/>
<text text-anchor="start" x="3956.59" y="-3776.86" font-family="Times New Roman,serif" font-size="14.00">bell aviation</text>
</g>
<!-- Entity112&#45;&gt;Entity178 -->
<g id="edge2" class="edge verb">
<title>Entity112&#45;&gt;Entity178</title>
<path fill="none" stroke="black" d="M3351.98,-3692.77C3477.64,-3710.06 3796.54,-3753.93 3929.96,-3772.29"/>
<polygon fill="black" stroke="black" points="3929.62,-3775.77 3940,-3773.67 3930.57,-3768.84 3929.62,-3775.77"/>
<text text-anchor="start" x="3599.97" y="-3736.33" font-family="Times New Roman,serif" font-size="14.00">created</text>
</g>
<!-- Entity11 -->
<g id="node6" class="node entity">
<title>Entity11</title>
<ellipse fill="none" stroke="black" cx="2512.31" cy="-3582.13" rx="77.19" ry="18"/>
<text text-anchor="start" x="2460.81" y="-3578.43" font-family="Times New Roman,serif" font-size="14.00">psi&#45;consciousness</text>
</g>
<!-- Entity112&#45;&gt;Entity11 -->
<g id="edge9" class="edge verb">
<title>Entity112&#45;&gt;Entity11</title>
<path fill="none" stroke="black" d="M3247.53,-3678.73C3112.23,-3660.95 2750.03,-3613.36 2590.07,-3592.34"/>
<polygon fill="black" stroke="black" points="2590.21,-3588.83 2579.84,-3591 2589.29,-3595.77 2590.21,-3588.83"/>
<text text-anchor="start" x="2877.8" y="-3639.34" font-family="Times New Roman,serif" font-size="14.00">studied</text>
</g>
<!-- Entity115 -->
<g id="node5" class="node entity">
<title>Entity115</title>
<ellipse fill="none" stroke="black" cx="2438.07" cy="-3690.7" rx="68.49" ry="18"/>
<text text-anchor="start" x="2393.57" y="-3687" font-family="Times New Roman,serif" font-size="14.00">jeffrey mishlove</text>
</g>
<!-- Entity115&#45;&gt;Entity113 -->
<g id="edge5" class="edge verb">
<title>Entity115&#45;&gt;Entity113</title>
<path fill="none" stroke="black" d="M2478.97,-3705.21C2550.21,-3730.5 2696.34,-3782.35 2768.33,-3807.9"/>
<polygon fill="black" stroke="black" points="2767.38,-3811.27 2777.97,-3811.32 2769.72,-3804.68 2767.38,-3811.27"/>
<text text-anchor="start" x="2568.65" y="-3760.35" font-family="Times New Roman,serif" font-size="14.00">promoted</text>
</g>
<!-- Entity115&#45;&gt;Entity11 -->
<g id="edge3" class="edge verb">
<title>Entity115&#45;&gt;Entity11</title>
<path fill="none" stroke="black" d="M2456.5,-3673.33C2470.42,-3655.96 2488.89,-3629.12 2500.82,-3609.01"/>
<polygon fill="black" stroke="black" points="2503.87,-3610.72 2505.8,-3600.3 2497.79,-3607.24 2503.87,-3610.72"/>
<text text-anchor="start" x="2437.66" y="-3644.97" font-family="Times New Roman,serif" font-size="14.00">studied</text>
</g>
<!-- Entity115&#45;&gt;Entity11 -->
<g id="edge25" class="edge verb">
<title>Entity115&#45;&gt;Entity11</title>
<path fill="none" stroke="black" d="M2444.66,-3672.38C2454.39,-3654.63 2472.35,-3627.68 2487.4,-3607.82"/>
<polygon fill="black" stroke="black" points="2490.27,-3609.83 2493.64,-3599.79 2484.74,-3605.53 2490.27,-3609.83"/>
<text text-anchor="start" x="2402.03" y="-3628.9" font-family="Times New Roman,serif" font-size="14.00">investigates</text>
</g>
<!-- Entity114 -->
<g id="node7" class="node entity">
<title>Entity114</title>
<ellipse fill="none" stroke="black" cx="3166.67" cy="-4030.37" rx="74.99" ry="18"/>
<text text-anchor="start" x="3117.17" y="-4026.67" font-family="Times New Roman,serif" font-size="14.00">gene roddenberry</text>
</g>
<!-- Entity114&#45;&gt;Entity124 -->
<g id="edge4" class="edge verb">
<title>Entity114&#45;&gt;Entity124</title>
<path fill="none" stroke="black" d="M3150.18,-4012.63C3132.21,-3993.29 3103.35,-3962.25 3083.38,-3940.75"/>
<polygon fill="black" stroke="black" points="3085.83,-3938.25 3076.46,-3933.31 3080.7,-3943.02 3085.83,-3938.25"/>
<text text-anchor="start" x="3012.78" y="-3980.49" font-family="Times New Roman,serif" font-size="14.00">claiemd to channel</text>
</g>
<!-- Entity123 -->
<g id="node8" class="node entity">
<title>Entity123</title>
<ellipse fill="none" stroke="black" cx="2744.41" cy="-3933.02" rx="64.19" ry="18"/>
<text text-anchor="start" x="2702.91" y="-3929.32" font-family="Times New Roman,serif" font-size="14.00">andre puharich</text>
</g>
<!-- Entity123&#45;&gt;Entity113 -->
<g id="edge6" class="edge verb">
<title>Entity123&#45;&gt;Entity113</title>
<path fill="none" stroke="black" d="M2755.29,-3914.82C2766,-3896.89 2782.47,-3869.33 2794.6,-3849.04"/>
<polygon fill="black" stroke="black" points="2797.7,-3850.67 2799.83,-3840.29 2791.69,-3847.08 2797.7,-3850.67"/>
<text text-anchor="start" x="2714.94" y="-3885.73" font-family="Times New Roman,serif" font-size="14.00">sponsored</text>
</g>
<!-- Entity161 -->
<g id="node9" class="node entity">
<title>Entity161</title>
<ellipse fill="none" stroke="black" cx="1761.67" cy="-2006.78" rx="67.69" ry="18"/>
<text text-anchor="start" x="1717.67" y="-2003.08" font-family="Times New Roman,serif" font-size="14.00">abraham lincoln</text>
</g>
<!-- Entity180 -->
<g id="node10" class="node entity">
<title>Entity180</title>
<ellipse fill="none" stroke="black" cx="1145.21" cy="-2296.2" rx="31.4" ry="18"/>
<text text-anchor="start" x="1129.21" y="-2292.5" font-family="Times New Roman,serif" font-size="14.00">potus</text>
</g>
<!-- Entity161&#45;&gt;Entity180 -->
<g id="edge8" class="edge verb">
<title>Entity161&#45;&gt;Entity180</title>
<path fill="none" stroke="black" d="M1728.09,-2022.55C1620.65,-2072.99 1286.12,-2230.04 1178.75,-2280.45"/>
<polygon fill="black" stroke="black" points="1177.22,-2277.3 1169.66,-2284.72 1180.2,-2283.64 1177.22,-2277.3"/>
<text text-anchor="start" x="1437.42" y="-2155.3" font-family="Times New Roman,serif" font-size="14.00">isa</text>
</g>
<!-- Entity116 -->
<g id="node12" class="node entity">
<title>Entity116</title>
<ellipse fill="none" stroke="black" cx="573.62" cy="-2316.21" rx="56.59" ry="18"/>
<text text-anchor="start" x="538.12" y="-2312.51" font-family="Times New Roman,serif" font-size="14.00">harry truman</text>
</g>
<!-- Entity116&#45;&gt;Entity180 -->
<g id="edge12" class="edge verb">
<title>Entity116&#45;&gt;Entity180</title>
<path fill="none" stroke="black" d="M629.99,-2314.23C744.78,-2310.21 1003.3,-2301.17 1103.98,-2297.64"/>
<polygon fill="black" stroke="black" points="1104.19,-2301.14 1114.06,-2297.29 1103.95,-2294.14 1104.19,-2301.14"/>
<text text-anchor="start" x="850.99" y="-2309.74" font-family="Times New Roman,serif" font-size="14.00">isa</text>
</g>
<!-- Entity179 -->
<g id="node13" class="node entity">
<title>Entity179</title>
<ellipse fill="none" stroke="black" cx="133.27" cy="-2205.75" rx="34.39" ry="18"/>
<text text-anchor="start" x="114.77" y="-2202.05" font-family="Times New Roman,serif" font-size="14.00">mason</text>
</g>
<!-- Entity116&#45;&gt;Entity179 -->
<g id="edge11" class="edge verb">
<title>Entity116&#45;&gt;Entity179</title>
<path fill="none" stroke="black" d="M528.98,-2305.01C443.34,-2283.53 257.16,-2236.83 174.38,-2216.06"/>
<polygon fill="black" stroke="black" points="175.13,-2212.64 164.57,-2213.6 173.42,-2219.43 175.13,-2212.64"/>
<text text-anchor="start" x="335.68" y="-2264.33" font-family="Times New Roman,serif" font-size="14.00">isa</text>
</g>
<!-- Entity276 -->
<g id="node62" class="node entity">
<title>Entity276</title>
<ellipse fill="none" stroke="black" cx="55.4" cy="-2421.18" rx="55.79" ry="18"/>
<text text-anchor="start" x="20.4" y="-2417.48" font-family="Times New Roman,serif" font-size="14.00">freemasonry</text>
</g>
<!-- Entity116&#45;&gt;Entity276 -->
<g id="edge68" class="edge verb">
<title>Entity116&#45;&gt;Entity276</title>
<path fill="none" stroke="black" d="M525.8,-2325.89C430.14,-2345.27 215.58,-2388.74 112.64,-2409.59"/>
<polygon fill="black" stroke="black" points="111.84,-2406.18 102.74,-2411.6 113.23,-2413.04 111.84,-2406.18"/>
<text text-anchor="start" x="258.22" y="-2371.54" font-family="Times New Roman,serif" font-size="14.00">member of</text>
</g>
<!-- Entity125 -->
<g id="node14" class="node entity">
<title>Entity125</title>
<ellipse fill="none" stroke="black" cx="856.87" cy="-2476.57" rx="27" ry="18"/>
<text text-anchor="start" x="849.37" y="-2472.87" font-family="Times New Roman,serif" font-size="14.00">jfk</text>
</g>
<!-- Entity125&#45;&gt;Entity180 -->
<g id="edge13" class="edge verb">
<title>Entity125&#45;&gt;Entity180</title>
<path fill="none" stroke="black" d="M876.69,-2464.17C926.31,-2433.13 1056.12,-2351.93 1115.18,-2314.98"/>
<polygon fill="black" stroke="black" points="1117.07,-2317.93 1123.69,-2309.66 1113.36,-2311.99 1117.07,-2317.93"/>
<text text-anchor="start" x="979.94" y="-2393.38" font-family="Times New Roman,serif" font-size="14.00">isa</text>
</g>
<!-- Entity132 -->
<g id="node15" class="node entity">
<title>Entity132</title>
<ellipse fill="none" stroke="black" cx="1525.98" cy="-1895.54" rx="59.59" ry="18"/>
<text text-anchor="start" x="1487.98" y="-1891.84" font-family="Times New Roman,serif" font-size="14.00">donald trump</text>
</g>
<!-- Entity132&#45;&gt;Entity180 -->
<g id="edge14" class="edge verb">
<title>Entity132&#45;&gt;Entity180</title>
<path fill="none" stroke="black" d="M1509.37,-1913.01C1448.33,-1977.24 1236.33,-2200.32 1167.19,-2273.06"/>
<polygon fill="black" stroke="black" points="1164.57,-2270.74 1160.22,-2280.4 1169.65,-2275.56 1164.57,-2270.74"/>
<text text-anchor="start" x="1338.28" y="-2081.84" font-family="Times New Roman,serif" font-size="14.00">isa</text>
</g>
<!-- Entity154 -->
<g id="node39" class="node entity">
<title>Entity154</title>
<ellipse fill="none" stroke="black" cx="1885.07" cy="-2503.58" rx="50.09" ry="18"/>
<text text-anchor="start" x="1854.57" y="-2499.88" font-family="Times New Roman,serif" font-size="14.00">john trump</text>
</g>
<!-- Entity132&#45;&gt;Entity154 -->
<g id="edge41" class="edge verb">
<title>Entity132&#45;&gt;Entity154</title>
<path fill="none" stroke="black" d="M1536.53,-1913.41C1587.48,-1999.67 1808.04,-2373.15 1869.26,-2476.81"/>
<polygon fill="black" stroke="black" points="1866.42,-2478.88 1874.52,-2485.71 1872.44,-2475.32 1866.42,-2478.88"/>
<text text-anchor="start" x="1643.9" y="-2198.91" font-family="Times New Roman,serif" font-size="14.00">nephew of</text>
</g>
<!-- Entity126 -->
<g id="node16" class="node entity">
<title>Entity126</title>
<ellipse fill="none" stroke="black" cx="1121.03" cy="-2405.01" rx="58.49" ry="18"/>
<text text-anchor="start" x="1084.03" y="-2401.31" font-family="Times New Roman,serif" font-size="14.00">richard nixon</text>
</g>
<!-- Entity126&#45;&gt;Entity180 -->
<g id="edge15" class="edge verb">
<title>Entity126&#45;&gt;Entity180</title>
<path fill="none" stroke="black" d="M1125.02,-2387.04C1128.82,-2369.95 1134.59,-2343.99 1138.99,-2324.18"/>
<polygon fill="black" stroke="black" points="1142.46,-2324.71 1141.21,-2314.19 1135.62,-2323.2 1142.46,-2324.71"/>
<text text-anchor="start" x="1116.01" y="-2359.41" font-family="Times New Roman,serif" font-size="14.00">isa</text>
</g>
<!-- Entity138 -->
<g id="node17" class="node entity">
<title>Entity138</title>
<ellipse fill="none" stroke="black" cx="998.46" cy="-2738.16" rx="63.89" ry="18"/>
<text text-anchor="start" x="957.46" y="-2734.46" font-family="Times New Roman,serif" font-size="14.00">george w bush</text>
</g>
<!-- Entity138&#45;&gt;Entity180 -->
<g id="edge16" class="edge verb">
<title>Entity138&#45;&gt;Entity180</title>
<path fill="none" stroke="black" d="M1004.49,-2720.01C1027.3,-2651.32 1108.44,-2406.95 1135.98,-2323.99"/>
<polygon fill="black" stroke="black" points="1139.38,-2324.85 1139.21,-2314.26 1132.74,-2322.64 1139.38,-2324.85"/>
<text text-anchor="start" x="1054.23" y="-2525.8" font-family="Times New Roman,serif" font-size="14.00">isa</text>
</g>
<!-- Entity131 -->
<g id="node18" class="node entity">
<title>Entity131</title>
<ellipse fill="none" stroke="black" cx="674.31" cy="-2166.68" rx="68.49" ry="18"/>
<text text-anchor="start" x="629.81" y="-2162.98" font-family="Times New Roman,serif" font-size="14.00">george hw bush</text>
</g>
<!-- Entity131&#45;&gt;Entity180 -->
<g id="edge17" class="edge verb">
<title>Entity131&#45;&gt;Entity180</title>
<path fill="none" stroke="black" d="M721.62,-2179.69C815.07,-2205.4 1021.7,-2262.23 1107.12,-2285.72"/>
<polygon fill="black" stroke="black" points="1106.34,-2289.14 1116.91,-2288.42 1108.2,-2282.39 1106.34,-2289.14"/>
<text text-anchor="start" x="898.37" y="-2236.51" font-family="Times New Roman,serif" font-size="14.00">isa</text>
</g>
<!-- Entity127 -->
<g id="node19" class="node entity">
<title>Entity127</title>
<ellipse fill="none" stroke="black" cx="1428" cy="-2627.69" rx="31.4" ry="18"/>
<text text-anchor="start" x="1412" y="-2623.99" font-family="Times New Roman,serif" font-size="14.00">carter</text>
</g>
<!-- Entity127&#45;&gt;Entity180 -->
<g id="edge18" class="edge verb">
<title>Entity127&#45;&gt;Entity180</title>
<path fill="none" stroke="black" d="M1413.97,-2611.25C1367.9,-2557.24 1220.99,-2385.03 1166.13,-2320.72"/>
<polygon fill="black" stroke="black" points="1168.47,-2318.07 1159.32,-2312.74 1163.14,-2322.62 1168.47,-2318.07"/>
<text text-anchor="start" x="1274.05" y="-2469.79" font-family="Times New Roman,serif" font-size="14.00">isa</text>
</g>
<!-- Entity184 -->
<g id="node23" class="node entity">
<title>Entity184</title>
<ellipse fill="none" stroke="black" cx="1750.86" cy="-2884.63" rx="27" ry="18"/>
<text text-anchor="start" x="1741.36" y="-2880.93" font-family="Times New Roman,serif" font-size="14.00">ufo</text>
</g>
<!-- Entity127&#45;&gt;Entity184 -->
<g id="edge22" class="edge verb">
<title>Entity127&#45;&gt;Entity184</title>
<path fill="none" stroke="black" d="M1446.75,-2642.61C1501.75,-2686.38 1662.69,-2814.46 1725.41,-2864.38"/>
<polygon fill="black" stroke="black" points="1723.25,-2867.13 1733.25,-2870.62 1727.61,-2861.65 1723.25,-2867.13"/>
<text text-anchor="start" x="1531.08" y="-2757.3" font-family="Times New Roman,serif" font-size="14.00">witnessed</text>
</g>
<!-- Entity130 -->
<g id="node20" class="node entity">
<title>Entity130</title>
<ellipse fill="none" stroke="black" cx="892.25" cy="-2051.9" rx="35.19" ry="18"/>
<text text-anchor="start" x="873.25" y="-2048.2" font-family="Times New Roman,serif" font-size="14.00">obama</text>
</g>
<!-- Entity130&#45;&gt;Entity180 -->
<g id="edge19" class="edge verb">
<title>Entity130&#45;&gt;Entity180</title>
<path fill="none" stroke="black" d="M908.85,-2067.93C952.65,-2110.24 1071.47,-2224.99 1121.99,-2273.77"/>
<polygon fill="black" stroke="black" points="1119.58,-2276.31 1129.2,-2280.74 1124.44,-2271.28 1119.58,-2276.31"/>
<text text-anchor="start" x="999.42" y="-2174.65" font-family="Times New Roman,serif" font-size="14.00">isa</text>
</g>
<!-- Entity128 -->
<g id="node21" class="node entity">
<title>Entity128</title>
<ellipse fill="none" stroke="black" cx="2091.75" cy="-3016.54" rx="27" ry="18"/>
<text text-anchor="start" x="2083.75" y="-3012.84" font-family="Times New Roman,serif" font-size="14.00">cia</text>
</g>
<!-- Entity128&#45;&gt;Entity11 -->
<g id="edge20" class="edge verb">
<title>Entity128&#45;&gt;Entity11</title>
<path fill="none" stroke="black" d="M2103.88,-3032.86C2162.9,-3112.24 2420.15,-3458.19 2493.01,-3556.18"/>
<polygon fill="black" stroke="black" points="2490.32,-3558.42 2499.09,-3564.36 2495.93,-3554.24 2490.32,-3558.42"/>
<text text-anchor="start" x="2234.44" y="-3298.32" font-family="Times New Roman,serif" font-size="14.00">investigates</text>
</g>
<!-- Entity128&#45;&gt;Entity184 -->
<g id="edge26" class="edge verb">
<title>Entity128&#45;&gt;Entity184</title>
<path fill="none" stroke="black" d="M2068.31,-3007.47C2008.96,-2984.51 1852.54,-2923.98 1783.92,-2897.42"/>
<polygon fill="black" stroke="black" points="1785.04,-2894.11 1774.46,-2893.76 1782.52,-2900.63 1785.04,-2894.11"/>
<text text-anchor="start" x="1862.12" y="-2956.25" font-family="Times New Roman,serif" font-size="14.00">investigates</text>
</g>
<!-- Entity134 -->
<g id="node22" class="node entity">
<title>Entity134</title>
<ellipse fill="none" stroke="black" cx="2273.53" cy="-4127.64" rx="63.89" ry="18"/>
<text text-anchor="start" x="2232.53" y="-4123.94" font-family="Times New Roman,serif" font-size="14.00">robert bigelow</text>
</g>
<!-- Entity134&#45;&gt;Entity115 -->
<g id="edge23" class="edge verb">
<title>Entity134&#45;&gt;Entity115</title>
<path fill="none" stroke="black" d="M2280.29,-4109.7C2305.83,-4041.87 2396.61,-3800.8 2427.61,-3718.48"/>
<polygon fill="black" stroke="black" points="2430.92,-3719.63 2431.17,-3709.04 2424.37,-3717.16 2430.92,-3719.63"/>
<text text-anchor="start" x="2321.95" y="-3917.89" font-family="Times New Roman,serif" font-size="14.00">funds</text>
</g>
<!-- Entity134&#45;&gt;Entity11 -->
<g id="edge21" class="edge verb">
<title>Entity134&#45;&gt;Entity11</title>
<path fill="none" stroke="black" d="M2281.48,-4109.49C2316.61,-4029.23 2458.12,-3705.92 2500.35,-3609.44"/>
<polygon fill="black" stroke="black" points="2503.65,-3610.63 2504.45,-3600.07 2497.24,-3607.83 2503.65,-3610.63"/>
<text text-anchor="start" x="2326.91" y="-3863.27" font-family="Times New Roman,serif" font-size="14.00">investigates</text>
</g>
<!-- Entity139 -->
<g id="node24" class="node entity">
<title>Entity139</title>
<ellipse fill="none" stroke="black" cx="1272" cy="-2100.29" rx="71.49" ry="18"/>
<text text-anchor="start" x="1225" y="-2096.59" font-family="Times New Roman,serif" font-size="14.00">woodrow wilson</text>
</g>
<!-- Entity139&#45;&gt;Entity180 -->
<g id="edge24" class="edge verb">
<title>Entity139&#45;&gt;Entity180</title>
<path fill="none" stroke="black" d="M1260.3,-2118.37C1237.61,-2153.42 1187.61,-2230.69 1161.62,-2270.84"/>
<polygon fill="black" stroke="black" points="1158.65,-2268.99 1156.16,-2279.28 1164.53,-2272.79 1158.65,-2268.99"/>
<text text-anchor="start" x="1194.96" y="-2198.41" font-family="Times New Roman,serif" font-size="14.00">isa</text>
</g>
<!-- Entity189 -->
<g id="node28" class="node entity">
<title>Entity189</title>
<ellipse fill="none" stroke="black" cx="825.93" cy="-1661.2" rx="71.49" ry="18"/>
<text text-anchor="start" x="778.93" y="-1657.5" font-family="Times New Roman,serif" font-size="14.00">leauge of nations</text>
</g>
<!-- Entity139&#45;&gt;Entity189 -->
<g id="edge29" class="edge verb">
<title>Entity139&#45;&gt;Entity189</title>
<path fill="none" stroke="black" d="M1254.24,-2082.81C1184.85,-2014.51 931.96,-1765.58 851.03,-1685.91"/>
<polygon fill="black" stroke="black" points="853.33,-1683.26 843.75,-1678.74 848.42,-1688.25 853.33,-1683.26"/>
<text text-anchor="start" x="1011.63" y="-1888.16" font-family="Times New Roman,serif" font-size="14.00">created</text>
</g>
<!-- Entity145 -->
<g id="node25" class="node entity">
<title>Entity145</title>
<ellipse fill="none" stroke="black" cx="1179.92" cy="-1986.31" rx="53.89" ry="18"/>
<text text-anchor="start" x="1146.42" y="-1982.61" font-family="Times New Roman,serif" font-size="14.00">edgar casey</text>
</g>
<!-- Entity145&#45;&gt;Entity139 -->
<g id="edge27" class="edge verb">
<title>Entity145&#45;&gt;Entity139</title>
<path fill="none" stroke="black" d="M1194.3,-2004.12C1209.58,-2023.03 1233.85,-2053.08 1251.21,-2074.55"/>
<polygon fill="black" stroke="black" points="1248.7,-2077.03 1257.71,-2082.61 1254.15,-2072.63 1248.7,-2077.03"/>
<text text-anchor="start" x="1180.75" y="-2043.14" font-family="Times New Roman,serif" font-size="14.00">advises</text>
</g>
<!-- Entity137 -->
<g id="node26" class="node entity">
<title>Entity137</title>
<ellipse fill="none" stroke="black" cx="3875" cy="-902.59" rx="58.49" ry="18"/>
<text text-anchor="start" x="3838" y="-898.89" font-family="Times New Roman,serif" font-size="14.00">rudolf steiner</text>
</g>
<!-- Entity269 -->
<g id="node27" class="node entity">
<title>Entity269</title>
<ellipse fill="none" stroke="black" cx="4451.95" cy="-599.1" rx="102.08" ry="18"/>
<text text-anchor="start" x="4381.45" y="-595.4" font-family="Times New Roman,serif" font-size="14.00">anthroposophical society</text>
</g>
<!-- Entity137&#45;&gt;Entity269 -->
<g id="edge28" class="edge verb">
<title>Entity137&#45;&gt;Entity269</title>
<path fill="none" stroke="black" d="M3904.8,-886.91C4000.43,-836.61 4299.72,-679.18 4410.32,-621"/>
<polygon fill="black" stroke="black" points="4412.28,-623.92 4419.5,-616.17 4409.03,-617.72 4412.28,-623.92"/>
<text text-anchor="start" x="4116.56" y="-757.76" font-family="Times New Roman,serif" font-size="14.00">created</text>
</g>
<!-- Entity188 -->
<g id="node30" class="node entity">
<title>Entity188</title>
<ellipse fill="none" stroke="black" cx="3289.54" cy="-1171.08" rx="85.29" ry="18"/>
<text text-anchor="start" x="3232.04" y="-1167.38" font-family="Times New Roman,serif" font-size="14.00">theosophical society</text>
</g>
<!-- Entity137&#45;&gt;Entity188 -->
<g id="edge31" class="edge verb">
<title>Entity137&#45;&gt;Entity188</title>
<path fill="none" stroke="black" d="M3842.26,-917.6C3743.42,-962.93 3447.83,-1098.49 3334.47,-1150.47"/>
<polygon fill="black" stroke="black" points="3332.99,-1147.3 3325.35,-1154.65 3335.9,-1153.67 3332.99,-1147.3"/>
<text text-anchor="start" x="3522.37" y="-1037.84" font-family="Times New Roman,serif" font-size="14.00">memberr of</text>
</g>
<!-- Entity142 -->
<g id="node29" class="node entity">
<title>Entity142</title>
<ellipse fill="none" stroke="black" cx="3663.76" cy="-653.05" rx="73.39" ry="18"/>
<text text-anchor="start" x="3615.26" y="-649.35" font-family="Times New Roman,serif" font-size="14.00">madam blavatsky</text>
</g>
<!-- Entity142&#45;&gt;Entity188 -->
<g id="edge30" class="edge verb">
<title>Entity142&#45;&gt;Entity188</title>
<path fill="none" stroke="black" d="M3650.88,-670.88C3595.16,-748.01 3374.75,-1053.12 3308.48,-1144.86"/>
<polygon fill="black" stroke="black" points="3305.58,-1142.9 3302.56,-1153.05 3311.26,-1146.99 3305.58,-1142.9"/>
<text text-anchor="start" x="3438.68" y="-911.67" font-family="Times New Roman,serif" font-size="14.00">created</text>
</g>
<!-- Entity140 -->
<g id="node31" class="node entity">
<title>Entity140</title>
<ellipse fill="none" stroke="black" cx="1468.74" cy="-1133.85" rx="58.49" ry="18"/>
<text text-anchor="start" x="1431.74" y="-1130.15" font-family="Times New Roman,serif" font-size="14.00">steve bannon</text>
</g>
<!-- Entity140&#45;&gt;Entity132 -->
<g id="edge33" class="edge verb">
<title>Entity140&#45;&gt;Entity132</title>
<path fill="none" stroke="black" d="M1467.85,-1152.1C1469.61,-1253.13 1506.31,-1743.86 1521.08,-1867.31"/>
<polygon fill="black" stroke="black" points="1517.64,-1867.98 1522.35,-1877.46 1524.58,-1867.1 1517.64,-1867.98"/>
<text text-anchor="start" x="1439.47" y="-1513.5" font-family="Times New Roman,serif" font-size="14.00">promoted</text>
</g>
<!-- Entity140&#45;&gt;Entity132 -->
<g id="edge40" class="edge verb">
<title>Entity140&#45;&gt;Entity132</title>
<path fill="none" stroke="black" d="M1472.39,-1152.13C1485.81,-1253.25 1522.85,-1743.99 1526.62,-1867.36"/>
<polygon fill="black" stroke="black" points="1523.13,-1867.59 1526.87,-1877.5 1530.12,-1867.42 1523.13,-1867.59"/>
<text text-anchor="start" x="1499.51" y="-1513.54" font-family="Times New Roman,serif" font-size="14.00">advises</text>
</g>
<!-- Entity265 -->
<g id="node32" class="node entity">
<title>Entity265</title>
<ellipse fill="none" stroke="black" cx="1473.91" cy="-701.88" rx="35.19" ry="18"/>
<text text-anchor="start" x="1454.91" y="-698.18" font-family="Times New Roman,serif" font-size="14.00">gurgev</text>
</g>
<!-- Entity140&#45;&gt;Entity265 -->
<g id="edge32" class="edge verb">
<title>Entity140&#45;&gt;Entity265</title>
<path fill="none" stroke="black" d="M1468.95,-1115.84C1469.76,-1048.6 1472.59,-811.95 1473.57,-730.03"/>
<polygon fill="black" stroke="black" points="1477.07,-730.01 1473.69,-719.97 1470.07,-729.92 1477.07,-730.01"/>
<text text-anchor="start" x="1430.26" y="-926.74" font-family="Times New Roman,serif" font-size="14.00">studied</text>
</g>
<!-- Entity270 -->
<g id="node33" class="node entity">
<title>Entity270</title>
<ellipse fill="none" stroke="black" cx="1536.51" cy="-1019.5" rx="38.19" ry="18"/>
<text text-anchor="start" x="1515.01" y="-1015.8" font-family="Times New Roman,serif" font-size="14.00">us navy</text>
</g>
<!-- Entity140&#45;&gt;Entity270 -->
<g id="edge34" class="edge verb">
<title>Entity140&#45;&gt;Entity270</title>
<path fill="none" stroke="black" d="M1479.33,-1115.98C1490.53,-1097.07 1508.32,-1067.05 1521.09,-1045.52"/>
<polygon fill="black" stroke="black" points="1524.13,-1047.25 1526.21,-1036.87 1518.1,-1043.68 1524.13,-1047.25"/>
<text text-anchor="start" x="1439.21" y="-1084.55" font-family="Times New Roman,serif" font-size="14.00">member of</text>
</g>
<!-- Entity267 -->
<g id="node34" class="node entity">
<title>Entity267</title>
<ellipse fill="none" stroke="black" cx="1200.62" cy="-699.74" rx="53.09" ry="18"/>
<text text-anchor="start" x="1167.62" y="-696.04" font-family="Times New Roman,serif" font-size="14.00">biosphere 2</text>
</g>
<!-- Entity140&#45;&gt;Entity267 -->
<g id="edge35" class="edge verb">
<title>Entity140&#45;&gt;Entity267</title>
<path fill="none" stroke="black" d="M1457.73,-1116.02C1415.88,-1048.27 1266.59,-806.56 1216.87,-726.05"/>
<polygon fill="black" stroke="black" points="1219.8,-724.14 1211.57,-717.48 1213.85,-727.82 1219.8,-724.14"/>
<text text-anchor="start" x="1296.3" y="-924.84" font-family="Times New Roman,serif" font-size="14.00">created</text>
</g>
<!-- Entity268 -->
<g id="node35" class="node entity">
<title>Entity268</title>
<ellipse fill="none" stroke="black" cx="1337.28" cy="-572.09" rx="64.99" ry="18"/>
<text text-anchor="start" x="1295.28" y="-568.39" font-family="Times New Roman,serif" font-size="14.00">goldman sachs</text>
</g>
<!-- Entity140&#45;&gt;Entity268 -->
<g id="edge36" class="edge verb">
<title>Entity140&#45;&gt;Entity268</title>
<path fill="none" stroke="black" d="M1464.51,-1115.8C1445.41,-1034.17 1367.05,-699.28 1343.81,-599.97"/>
<polygon fill="black" stroke="black" points="1347.18,-599.02 1341.49,-590.08 1340.36,-600.61 1347.18,-599.02"/>
<text text-anchor="start" x="1341.16" y="-861.68" font-family="Times New Roman,serif" font-size="14.00">worked for</text>
</g>
<!-- Entity191 -->
<g id="node36" class="node entity">
<title>Entity191</title>
<ellipse fill="none" stroke="black" cx="1770.96" cy="-587.9" rx="61.99" ry="18"/>
<text text-anchor="start" x="1731.46" y="-584.2" font-family="Times New Roman,serif" font-size="14.00">breitbart news</text>
</g>
<!-- Entity140&#45;&gt;Entity191 -->
<g id="edge37" class="edge verb">
<title>Entity140&#45;&gt;Entity191</title>
<path fill="none" stroke="black" d="M1478.62,-1116C1522.88,-1036.05 1702.97,-710.73 1756.12,-614.71"/>
<polygon fill="black" stroke="black" points="1759.22,-616.34 1761,-605.9 1753.1,-612.95 1759.22,-616.34"/>
<text text-anchor="start" x="1576.37" y="-869.15" font-family="Times New Roman,serif" font-size="14.00">created</text>
</g>
<!-- Entity266 -->
<g id="node37" class="node entity">
<title>Entity266</title>
<ellipse fill="none" stroke="black" cx="961.34" cy="-810.09" rx="77.19" ry="18"/>
<text text-anchor="start" x="909.84" y="-806.39" font-family="Times New Roman,serif" font-size="14.00">hollywood movies</text>
</g>
<!-- Entity140&#45;&gt;Entity266 -->
<g id="edge38" class="edge verb">
<title>Entity140&#45;&gt;Entity266</title>
<path fill="none" stroke="black" d="M1443.23,-1117.57C1359.53,-1064.17 1093.12,-894.18 996.64,-832.62"/>
<polygon fill="black" stroke="black" points="998.43,-829.61 988.12,-827.18 994.66,-835.51 998.43,-829.61"/>
<text text-anchor="start" x="1164.94" y="-978.9" font-family="Times New Roman,serif" font-size="14.00">produced</text>
</g>
<!-- Entity151 -->
<g id="node38" class="node entity">
<title>Entity151</title>
<ellipse fill="none" stroke="black" cx="1826.57" cy="-18.17" rx="69.59" ry="18"/>
<text text-anchor="start" x="1781.07" y="-14.47" font-family="Times New Roman,serif" font-size="14.00">andrew breitbart</text>
</g>
<!-- Entity151&#45;&gt;Entity191 -->
<g id="edge39" class="edge verb">
<title>Entity151&#45;&gt;Entity191</title>
<path fill="none" stroke="black" d="M1824.79,-36.48C1816.71,-119.27 1783.55,-458.91 1773.72,-559.63"/>
<polygon fill="black" stroke="black" points="1770.23,-559.37 1772.74,-569.66 1777.2,-560.05 1770.23,-559.37"/>
<text text-anchor="start" x="1758.25" y="-301.86" font-family="Times New Roman,serif" font-size="14.00">created</text>
</g>
<!-- Entity154&#45;&gt;Entity128 -->
<g id="edge42" class="edge verb">
<title>Entity154&#45;&gt;Entity128</title>
<path fill="none" stroke="black" d="M1892.3,-2521.54C1923.15,-2598.11 2043.83,-2897.62 2080.87,-2989.55"/>
<polygon fill="black" stroke="black" points="2077.69,-2991.03 2084.68,-2999 2084.18,-2988.41 2077.69,-2991.03"/>
<text text-anchor="start" x="1925.59" y="-2759.34" font-family="Times New Roman,serif" font-size="14.00">member of</text>
</g>
<!-- Entity271 -->
<g id="node40" class="node entity">
<title>Entity271</title>
<ellipse fill="none" stroke="black" cx="2312.2" cy="-2535.72" rx="50.89" ry="18"/>
<text text-anchor="start" x="2281.2" y="-2532.02" font-family="Times New Roman,serif" font-size="14.00">nikola tesla</text>
</g>
<!-- Entity154&#45;&gt;Entity271 -->
<g id="edge43" class="edge verb">
<title>Entity154&#45;&gt;Entity271</title>
<path fill="none" stroke="black" d="M1934.07,-2507.27C2012.82,-2513.19 2167.32,-2524.82 2252.43,-2531.22"/>
<polygon fill="black" stroke="black" points="2252.22,-2534.71 2262.46,-2531.97 2252.75,-2527.73 2252.22,-2534.71"/>
<text text-anchor="start" x="2052.25" y="-2523.04" font-family="Times New Roman,serif" font-size="14.00">studied</text>
</g>
<!-- Entity152 -->
<g id="node41" class="node entity">
<title>Entity152</title>
<ellipse fill="none" stroke="black" cx="2495" cy="-1532.31" rx="90.98" ry="18"/>
<text text-anchor="start" x="2433" y="-1528.61" font-family="Times New Roman,serif" font-size="14.00">emma hardinge&#45;britten</text>
</g>
<!-- Entity152&#45;&gt;Entity161 -->
<g id="edge45" class="edge verb">
<title>Entity152&#45;&gt;Entity161</title>
<path fill="none" stroke="black" d="M2468.03,-1549.76C2355.36,-1622.66 1922.29,-1902.86 1796.26,-1984.4"/>
<polygon fill="black" stroke="black" points="1794.22,-1981.55 1787.73,-1989.92 1798.02,-1987.43 1794.22,-1981.55"/>
<text text-anchor="start" x="2033.15" y="-1770.88" font-family="Times New Roman,serif" font-size="14.00">spokesperson for</text>
</g>
<!-- Entity152&#45;&gt;Entity188 -->
<g id="edge44" class="edge verb">
<title>Entity152&#45;&gt;Entity188</title>
<path fill="none" stroke="black" d="M2531.47,-1515.73C2661.35,-1456.68 3101.26,-1256.68 3244.24,-1191.67"/>
<polygon fill="black" stroke="black" points="3245.97,-1194.73 3253.62,-1187.41 3243.07,-1188.36 3245.97,-1194.73"/>
<text text-anchor="start" x="2846.85" y="-1357.5" font-family="Times New Roman,serif" font-size="14.00">created</text>
</g>
<!-- Entity272 -->
<g id="node42" class="node entity">
<title>Entity272</title>
<ellipse fill="none" stroke="black" cx="2905.74" cy="-1221.2" rx="39.79" ry="18"/>
<text text-anchor="start" x="2883.24" y="-1217.5" font-family="Times New Roman,serif" font-size="14.00">medium</text>
</g>
<!-- Entity152&#45;&gt;Entity272 -->
<g id="edge46" class="edge verb">
<title>Entity152&#45;&gt;Entity272</title>
<path fill="none" stroke="black" d="M2518.26,-1514.7C2588.69,-1461.35 2799.52,-1301.66 2876.87,-1243.07"/>
<polygon fill="black" stroke="black" points="2879.35,-1245.58 2885.2,-1236.75 2875.12,-1240 2879.35,-1245.58"/>
<text text-anchor="start" x="2681.57" y="-1382.68" font-family="Times New Roman,serif" font-size="14.00">isa</text>
</g>
<!-- Entity192 -->
<g id="node43" class="node entity">
<title>Entity192</title>
<ellipse fill="none" stroke="black" cx="2726.54" cy="-980.64" rx="55.79" ry="18"/>
<text text-anchor="start" x="2691.54" y="-976.94" font-family="Times New Roman,serif" font-size="14.00">orphic circle</text>
</g>
<!-- Entity152&#45;&gt;Entity192 -->
<g id="edge47" class="edge verb">
<title>Entity152&#45;&gt;Entity192</title>
<path fill="none" stroke="black" d="M2502.57,-1514.27C2536.45,-1433.56 2674.19,-1105.36 2715.06,-1007.99"/>
<polygon fill="black" stroke="black" points="2718.38,-1009.12 2719.02,-998.55 2711.93,-1006.41 2718.38,-1009.12"/>
<text text-anchor="start" x="2547.82" y="-1264.93" font-family="Times New Roman,serif" font-size="14.00">member of</text>
</g>
<!-- Entity160 -->
<g id="node44" class="node entity">
<title>Entity160</title>
<ellipse fill="none" stroke="black" cx="3557.94" cy="-2353.66" rx="53.89" ry="18"/>
<text text-anchor="start" x="3524.44" y="-2349.96" font-family="Times New Roman,serif" font-size="14.00">black magic</text>
</g>
<!-- Entity193 -->
<g id="node45" class="node entity">
<title>Entity193</title>
<ellipse fill="none" stroke="black" cx="3645.66" cy="-2465.64" rx="28.7" ry="18"/>
<text text-anchor="start" x="3631.66" y="-2461.94" font-family="Times New Roman,serif" font-size="14.00">x left</text>
</g>
<!-- Entity160&#45;&gt;Entity193 -->
<g id="edge48" class="edge verb">
<title>Entity160&#45;&gt;Entity193</title>
<path fill="none" stroke="black" d="M3571.64,-2371.16C3586.45,-2390.05 3610.14,-2420.29 3626.72,-2441.45"/>
<polygon fill="black" stroke="black" points="3623.98,-2443.64 3632.9,-2449.36 3629.49,-2439.32 3623.98,-2443.64"/>
<text text-anchor="start" x="3538.18" y="-2410.11" font-family="Times New Roman,serif" font-size="14.00">member of</text>
</g>
<!-- Entity162 -->
<g id="node46" class="node entity">
<title>Entity162</title>
<ellipse fill="none" stroke="black" cx="3543.94" cy="-1769.66" rx="39.79" ry="18"/>
<text text-anchor="start" x="3521.44" y="-1765.96" font-family="Times New Roman,serif" font-size="14.00">crowley</text>
</g>
<!-- Entity194 -->
<g id="node47" class="node entity">
<title>Entity194</title>
<ellipse fill="none" stroke="black" cx="3631.66" cy="-1881.64" rx="38.99" ry="18"/>
<text text-anchor="start" x="3609.66" y="-1877.94" font-family="Times New Roman,serif" font-size="14.00">x magic</text>
</g>
<!-- Entity162&#45;&gt;Entity194 -->
<g id="edge49" class="edge verb">
<title>Entity162&#45;&gt;Entity194</title>
<path fill="none" stroke="black" d="M3557.26,-1786.67C3571.82,-1805.25 3595.28,-1835.2 3611.96,-1856.49"/>
<polygon fill="black" stroke="black" points="3609.29,-1858.76 3618.21,-1864.47 3614.8,-1854.44 3609.29,-1858.76"/>
<text text-anchor="start" x="3523.61" y="-1825.38" font-family="Times New Roman,serif" font-size="14.00">member of</text>
</g>
<!-- Entity163 -->
<g id="node48" class="node entity">
<title>Entity163</title>
<ellipse fill="none" stroke="black" cx="4399.11" cy="-3747.81" rx="57.69" ry="18"/>
<text text-anchor="start" x="4362.61" y="-3744.11" font-family="Times New Roman,serif" font-size="14.00">michael pane</text>
</g>
<!-- Entity163&#45;&gt;Entity178 -->
<g id="edge50" class="edge verb">
<title>Entity163&#45;&gt;Entity178</title>
<path fill="none" stroke="black" d="M4342.67,-3752.33C4266.75,-3758.41 4132.14,-3769.19 4053.03,-3775.52"/>
<polygon fill="black" stroke="black" points="4052.41,-3772.06 4042.72,-3776.35 4052.97,-3779.04 4052.41,-3772.06"/>
<text text-anchor="start" x="4141.85" y="-3767.73" font-family="Times New Roman,serif" font-size="14.00">worked at</text>
</g>
<!-- Entity165 -->
<g id="node49" class="node entity">
<title>Entity165</title>
<ellipse fill="none" stroke="black" cx="4731.4" cy="-3858.47" rx="74.99" ry="18"/>
<text text-anchor="start" x="4681.9" y="-3854.77" font-family="Times New Roman,serif" font-size="14.00">walter dornberger</text>
</g>
<!-- Entity163&#45;&gt;Entity165 -->
<g id="edge51" class="edge verb">
<title>Entity163&#45;&gt;Entity165</title>
<path fill="none" stroke="black" d="M4438.86,-3761.05C4498.47,-3780.9 4611.1,-3818.41 4677.88,-3840.65"/>
<polygon fill="black" stroke="black" points="4676.79,-3843.98 4687.39,-3843.81 4679,-3837.33 4676.79,-3843.98"/>
<text text-anchor="start" x="4495.37" y="-3804.65" font-family="Times New Roman,serif" font-size="14.00">worked for</text>
</g>
<!-- Entity165&#45;&gt;Entity178 -->
<g id="edge52" class="edge verb">
<title>Entity165&#45;&gt;Entity178</title>
<path fill="none" stroke="black" d="M4670.2,-3848.08C4531.79,-3829.78 4195.77,-3794.45 4054.43,-3783.3"/>
<polygon fill="black" stroke="black" points="4054.43,-3779.79 4044.19,-3782.51 4053.89,-3786.77 4054.43,-3779.79"/>
<text text-anchor="start" x="4306.32" y="-3804.49" font-family="Times New Roman,serif" font-size="14.00">worked at</text>
</g>
<!-- Entity165&#45;&gt;Entity178 -->
<g id="edge53" class="edge verb">
<title>Entity165&#45;&gt;Entity178</title>
<path fill="none" stroke="black" d="M4657.85,-3854.99C4510.28,-3842.99 4180.84,-3808.24 4047.63,-3790.47"/>
<polygon fill="black" stroke="black" points="4048.01,-3786.98 4037.63,-3789.11 4047.07,-3793.92 4048.01,-3786.98"/>
<text text-anchor="start" x="4273.74" y="-3826.53" font-family="Times New Roman,serif" font-size="14.00">vice&#45;president</text>
</g>
<!-- Entity195 -->
<g id="node50" class="node entity">
<title>Entity195</title>
<ellipse fill="none" stroke="black" cx="4814.84" cy="-4367.94" rx="90.98" ry="18"/>
<text text-anchor="start" x="4752.84" y="-4364.24" font-family="Times New Roman,serif" font-size="14.00">nsdap rocket program</text>
</g>
<!-- Entity165&#45;&gt;Entity195 -->
<g id="edge54" class="edge verb">
<title>Entity165&#45;&gt;Entity195</title>
<path fill="none" stroke="black" d="M4734.37,-3876.61C4746.84,-3952.74 4795.01,-4246.88 4810.21,-4339.7"/>
<polygon fill="black" stroke="black" points="4806.79,-4340.45 4811.86,-4349.76 4813.7,-4339.32 4806.79,-4340.45"/>
<text text-anchor="start" x="4731.29" y="-4111.95" font-family="Times New Roman,serif" font-size="14.00">created</text>
</g>
<!-- Entity177 -->
<g id="node51" class="node entity">
<title>Entity177</title>
<ellipse fill="none" stroke="black" cx="5348.45" cy="-3838.37" rx="32.49" ry="18"/>
<text text-anchor="start" x="5331.45" y="-3834.67" font-family="Times New Roman,serif" font-size="14.00">nsdap</text>
</g>
<!-- Entity165&#45;&gt;Entity177 -->
<g id="edge55" class="edge verb">
<title>Entity165&#45;&gt;Entity177</title>
<path fill="none" stroke="black" d="M4805.53,-3856.06C4935.86,-3851.81 5202.08,-3843.14 5305.77,-3839.76"/>
<polygon fill="black" stroke="black" points="5305.99,-3843.25 5315.87,-3839.43 5305.76,-3836.25 5305.99,-3843.25"/>
<text text-anchor="start" x="4994.65" y="-3851.71" font-family="Times New Roman,serif" font-size="14.00">member of</text>
</g>
<!-- Entity273 -->
<g id="node53" class="node entity">
<title>Entity273</title>
<ellipse fill="none" stroke="black" cx="5196.36" cy="-4206.64" rx="65.79" ry="18"/>
<text text-anchor="start" x="5153.86" y="-4202.94" font-family="Times New Roman,serif" font-size="14.00">x series aircraft</text>
</g>
<!-- Entity165&#45;&gt;Entity273 -->
<g id="edge58" class="edge verb">
<title>Entity165&#45;&gt;Entity273</title>
<path fill="none" stroke="black" d="M4754.46,-3875.74C4831.25,-3933.24 5078.35,-4118.27 5165.55,-4183.56"/>
<polygon fill="black" stroke="black" points="5163.61,-4186.48 5173.71,-4189.68 5167.81,-4180.88 5163.61,-4186.48"/>
<text text-anchor="start" x="4919" y="-4033.45" font-family="Times New Roman,serif" font-size="14.00">created</text>
</g>
<!-- Entity102 -->
<g id="node59" class="node entity">
<title>Entity102</title>
<ellipse fill="none" stroke="black" cx="5795.52" cy="-3878.53" rx="38.99" ry="18"/>
<text text-anchor="start" x="5773.52" y="-3874.83" font-family="Times New Roman,serif" font-size="14.00">far right</text>
</g>
<!-- Entity177&#45;&gt;Entity102 -->
<g id="edge63" class="edge verb">
<title>Entity177&#45;&gt;Entity102</title>
<path fill="none" stroke="black" d="M5378.85,-3844.74C5454.77,-3855.46 5653.22,-3873.55 5746.16,-3878.52"/>
<polygon fill="black" stroke="black" points="5746.26,-3882.03 5756.42,-3879.04 5746.61,-3875.04 5746.26,-3882.03"/>
<text text-anchor="start" x="5507.51" y="-3865.43" font-family="Times New Roman,serif" font-size="14.00">member a</text>
</g>
<!-- Entity177&#45;&gt;Entity102 -->
<g id="edge67" class="edge verb">
<title>Entity177&#45;&gt;Entity102</title>
<path fill="none" stroke="black" d="M5380.93,-3837.57C5459.35,-3840.75 5659.22,-3858.5 5749.74,-3870.09"/>
<polygon fill="black" stroke="black" points="5749.33,-3873.57 5759.7,-3871.4 5750.25,-3866.63 5749.33,-3873.57"/>
<text text-anchor="start" x="5504.34" y="-3842.63" font-family="Times New Roman,serif" font-size="14.00">member of</text>
</g>
<!-- Entity170 -->
<g id="node52" class="node entity">
<title>Entity170</title>
<ellipse fill="none" stroke="black" cx="4807.93" cy="-4257.11" rx="46.29" ry="18"/>
<text text-anchor="start" x="4780.43" y="-4253.41" font-family="Times New Roman,serif" font-size="14.00">van braun</text>
</g>
<!-- Entity170&#45;&gt;Entity165 -->
<g id="edge56" class="edge verb">
<title>Entity170&#45;&gt;Entity165</title>
<path fill="none" stroke="black" d="M4804.44,-4238.95C4792.27,-4175.52 4751.58,-3963.59 4736.82,-3886.67"/>
<polygon fill="black" stroke="black" points="4740.23,-3885.91 4734.91,-3876.74 4733.36,-3887.22 4740.23,-3885.91"/>
<text text-anchor="start" x="4707.63" y="-4066.61" font-family="Times New Roman,serif" font-size="14.00">worked for</text>
</g>
<!-- Entity170&#45;&gt;Entity195 -->
<g id="edge57" class="edge verb">
<title>Entity170&#45;&gt;Entity195</title>
<path fill="none" stroke="black" d="M4809.07,-4275.41C4810.15,-4292.82 4811.8,-4319.27 4813.06,-4339.43"/>
<polygon fill="black" stroke="black" points="4809.58,-4339.85 4813.69,-4349.61 4816.57,-4339.41 4809.58,-4339.85"/>
<text text-anchor="start" x="4755.06" y="-4311.22" font-family="Times New Roman,serif" font-size="14.00">worked at</text>
</g>
<!-- Entity172 -->
<g id="node54" class="node entity">
<title>Entity172</title>
<ellipse fill="none" stroke="black" cx="5694.69" cy="-3668.14" rx="49.29" ry="18"/>
<text text-anchor="start" x="5664.69" y="-3664.44" font-family="Times New Roman,serif" font-size="14.00">adolf hitler</text>
</g>
<!-- Entity172&#45;&gt;Entity177 -->
<g id="edge59" class="edge verb">
<title>Entity172&#45;&gt;Entity177</title>
<path fill="none" stroke="black" d="M5665.17,-3682.66C5601.26,-3714.07 5450.41,-3788.24 5382.55,-3821.6"/>
<polygon fill="black" stroke="black" points="5380.6,-3818.66 5373.17,-3826.21 5383.68,-3824.94 5380.6,-3818.66"/>
<text text-anchor="start" x="5482.86" y="-3755.93" font-family="Times New Roman,serif" font-size="14.00">created</text>
</g>
<!-- Entity173 -->
<g id="node55" class="node entity">
<title>Entity173</title>
<ellipse fill="none" stroke="black" cx="642.9" cy="-2625.71" rx="77.99" ry="18"/>
<text text-anchor="start" x="590.9" y="-2622.01" font-family="Times New Roman,serif" font-size="14.00">dwight eisenhower</text>
</g>
<!-- Entity173&#45;&gt;Entity180 -->
<g id="edge60" class="edge verb">
<title>Entity173&#45;&gt;Entity180</title>
<path fill="none" stroke="black" d="M668.84,-2608.69C754.21,-2552.69 1025.97,-2374.42 1115.96,-2315.39"/>
<polygon fill="black" stroke="black" points="1118.13,-2318.15 1124.57,-2309.74 1114.29,-2312.3 1118.13,-2318.15"/>
<text text-anchor="start" x="892.4" y="-2465.84" font-family="Times New Roman,serif" font-size="14.00">is a</text>
</g>
<!-- Entity174 -->
<g id="node56" class="node entity">
<title>Entity174</title>
<ellipse fill="none" stroke="black" cx="202.08" cy="-2930.92" rx="37.89" ry="18"/>
<text text-anchor="start" x="181.08" y="-2927.22" font-family="Times New Roman,serif" font-size="14.00">hunt oil</text>
</g>
<!-- Entity174&#45;&gt;Entity173 -->
<g id="edge61" class="edge verb">
<title>Entity174&#45;&gt;Entity173</title>
<path fill="none" stroke="black" d="M223.64,-2915.99C295,-2866.59 523.85,-2708.14 609.83,-2648.61"/>
<polygon fill="black" stroke="black" points="611.94,-2651.4 618.17,-2642.83 607.96,-2645.65 611.94,-2651.4"/>
<text text-anchor="start" x="376.74" y="-2786.1" font-family="Times New Roman,serif" font-size="14.00">funded</text>
</g>
<!-- Entity175 -->
<g id="node57" class="node entity">
<title>Entity175</title>
<ellipse fill="none" stroke="black" cx="6726.69" cy="-3821.09" rx="36.29" ry="18"/>
<text text-anchor="start" x="6706.69" y="-3817.39" font-family="Times New Roman,serif" font-size="14.00">oswald</text>
</g>
<!-- Entity176 -->
<g id="node58" class="node entity">
<title>Entity176</title>
<ellipse fill="none" stroke="black" cx="6288.38" cy="-3863.82" rx="59.29" ry="18"/>
<text text-anchor="start" x="6250.88" y="-3860.12" font-family="Times New Roman,serif" font-size="14.00">guy bannister</text>
</g>
<!-- Entity175&#45;&gt;Entity176 -->
<g id="edge62" class="edge verb">
<title>Entity175&#45;&gt;Entity176</title>
<path fill="none" stroke="black" d="M6690.82,-3824.58C6617.34,-3831.75 6448.71,-3848.19 6354.73,-3857.35"/>
<polygon fill="black" stroke="black" points="6354.38,-3853.87 6344.76,-3858.32 6355.06,-3860.83 6354.38,-3853.87"/>
<text text-anchor="start" x="6459.77" y="-3844.77" font-family="Times New Roman,serif" font-size="14.00">worked for</text>
</g>
<!-- Entity176&#45;&gt;Entity102 -->
<g id="edge64" class="edge verb">
<title>Entity176&#45;&gt;Entity102</title>
<path fill="none" stroke="black" d="M6229.77,-3861.01C6131.1,-3860.91 5933.73,-3866.92 5843.06,-3872.92"/>
<polygon fill="black" stroke="black" points="5842.8,-3869.42 5833.07,-3873.61 5843.29,-3876.41 5842.8,-3869.42"/>
<text text-anchor="start" x="5981.42" y="-3870.76" font-family="Times New Roman,serif" font-size="14.00">member a</text>
</g>
<!-- Entity176&#45;&gt;Entity102 -->
<g id="edge66" class="edge verb">
<title>Entity176&#45;&gt;Entity102</title>
<path fill="none" stroke="black" d="M6232.45,-3869.97C6135.25,-3875.98 5936.72,-3881.82 5844.55,-3881.31"/>
<polygon fill="black" stroke="black" points="5844.41,-3877.81 5834.38,-3881.22 5844.35,-3884.8 5844.41,-3877.81"/>
<text text-anchor="start" x="6038.5" y="-3879.44" font-family="Times New Roman,serif" font-size="14.00">member of</text>
</g>
<!-- Entity1 -->
<g id="node60" class="node entity">
<title>Entity1</title>
<ellipse fill="none" stroke="black" cx="2946.94" cy="-2353.66" rx="27" ry="18"/>
<text text-anchor="start" x="2943.44" y="-2349.96" font-family="Times New Roman,serif" font-size="14.00">s</text>
</g>
<!-- Entity2 -->
<g id="node61" class="node entity">
<title>Entity2</title>
<ellipse fill="none" stroke="black" cx="3034.66" cy="-2465.64" rx="27" ry="18"/>
<text text-anchor="start" x="3030.66" y="-2461.94" font-family="Times New Roman,serif" font-size="14.00">o</text>
</g>
<!-- Entity1&#45;&gt;Entity2 -->
<g id="edge65" class="edge verb">
<title>Entity1&#45;&gt;Entity2</title>
<path fill="none" stroke="black" d="M2959.51,-2369.7C2974.23,-2388.5 2998.76,-2419.82 3015.78,-2441.53"/>
<polygon fill="black" stroke="black" points="3013.19,-2443.91 3022.11,-2449.62 3018.7,-2439.59 3013.19,-2443.91"/>
<text text-anchor="start" x="2980.64" y="-2409.42" font-family="Times New Roman,serif" font-size="14.00">v</text>
</g>
</g>
</svg>
