<?xml version="1.0" encoding="UTF-8" standalone="no"?>
<?xml-stylesheet href="./styles.css" type="text/css"?>
<!DOCTYPE svg PUBLIC "-//W3C//DTD SVG 1.1//EN"
 "http://www.w3.org/Graphics/SVG/1.1/DTD/svg11.dtd">
<!-- Generated by graphviz version 2.47.3 (20210619.1520)
 -->
<!-- Title: G Pages: 1 -->
<svg width="7164pt" height="4455pt"
 viewBox="0.00 0.00 7164.00 4455.00" xmlns="http://www.w3.org/2000/svg" xmlns:xlink="http://www.w3.org/1999/xlink">
<g id="graph0" class="graph" transform="scale(1 1) rotate(0) translate(4 4451)">
<title>G</title>
<polygon fill="white" stroke="transparent" points="-4,4 -4,-4451 7160,-4451 7160,4 -4,4"/>
<!-- Entity113 -->
<g id="node1" class="node entity">
<title>Entity113</title>
<ellipse fill="none" stroke="black" cx="4168.6" cy="-2382.85" rx="41.69" ry="18"/>
<text text-anchor="start" x="4144.6" y="-2379.15" font-family="Times New Roman,serif" font-size="14.00">uri geller</text>
</g>
<!-- Entity124 -->
<g id="node2" class="node entity">
<title>Entity124</title>
<ellipse fill="none" stroke="black" cx="4462.49" cy="-2571.27" rx="38.19" ry="18"/>
<text text-anchor="start" x="4440.99" y="-2567.57" font-family="Times New Roman,serif" font-size="14.00">the nine</text>
</g>
<!-- Entity113&#45;&gt;Entity124 -->
<g id="edge1" class="edge verb">
<title>Entity113&#45;&gt;Entity124</title>
<path fill="none" stroke="black" d="M4192.15,-2397.95C4244.75,-2431.67 4371.8,-2513.13 4431.06,-2551.12"/>
<polygon fill="black" stroke="black" points="4429.33,-2554.17 4439.64,-2556.62 4433.11,-2548.27 4429.33,-2554.17"/>
<text text-anchor="start" x="4207.61" y="-2478.34" font-family="Times New Roman,serif" font-size="14.00">claiemd to channel</text>
</g>
<!-- Entity181 -->
<g id="node11" class="node entity">
<title>Entity181</title>
<ellipse fill="none" stroke="black" cx="4893.46" cy="-2190.65" rx="94.48" ry="18"/>
<text text-anchor="start" x="4828.96" y="-2186.95" font-family="Times New Roman,serif" font-size="14.00">egyptian gods in a ship</text>
</g>
<!-- Entity124&#45;&gt;Entity181 -->
<g id="edge10" class="edge verb">
<title>Entity124&#45;&gt;Entity181</title>
<path fill="none" stroke="black" d="M4480.73,-2555.16C4548.27,-2495.52 4784.35,-2287.02 4865.68,-2215.19"/>
<polygon fill="black" stroke="black" points="4868.32,-2217.53 4873.5,-2208.29 4863.68,-2212.28 4868.32,-2217.53"/>
<text text-anchor="start" x="4569.2" y="-2388.97" font-family="Times New Roman,serif" font-size="14.00">claimed to channel</text>
</g>
<!-- Entity112 -->
<g id="node3" class="node entity">
<title>Entity112</title>
<ellipse fill="none" stroke="black" cx="4011.29" cy="-2835.63" rx="56.59" ry="18"/>
<text text-anchor="start" x="3975.79" y="-2831.93" font-family="Times New Roman,serif" font-size="14.00">arthur young</text>
</g>
<!-- Entity112&#45;&gt;Entity124 -->
<g id="edge7" class="edge verb">
<title>Entity112&#45;&gt;Entity124</title>
<path fill="none" stroke="black" d="M4038.5,-2819.69C4117.08,-2773.64 4344.22,-2640.56 4429.56,-2590.56"/>
<polygon fill="black" stroke="black" points="4431.45,-2593.51 4438.31,-2585.44 4427.91,-2587.47 4431.45,-2593.51"/>
<text text-anchor="start" x="4172.03" y="-2708.93" font-family="Times New Roman,serif" font-size="14.00">member&#45;of</text>
</g>
<!-- Entity178 -->
<g id="node4" class="node entity">
<title>Entity178</title>
<ellipse fill="none" stroke="black" cx="4568.9" cy="-3235.66" rx="53.89" ry="18"/>
<text text-anchor="start" x="4535.4" y="-3231.96" font-family="Times New Roman,serif" font-size="14.00">bell aviation</text>
</g>
<!-- Entity112&#45;&gt;Entity178 -->
<g id="edge2" class="edge verb">
<title>Entity112&#45;&gt;Entity178</title>
<path fill="none" stroke="black" d="M4034.54,-2852.31C4122.76,-2915.6 4436.93,-3140.98 4537.61,-3213.21"/>
<polygon fill="black" stroke="black" points="4535.69,-3216.14 4545.86,-3219.13 4539.77,-3210.45 4535.69,-3216.14"/>
<text text-anchor="start" x="4245.07" y="-3036.56" font-family="Times New Roman,serif" font-size="14.00">created</text>
</g>
<!-- Entity11 -->
<g id="node6" class="node entity">
<title>Entity11</title>
<ellipse fill="none" stroke="black" cx="3224" cy="-2583.86" rx="77.19" ry="18"/>
<text text-anchor="start" x="3172.5" y="-2580.16" font-family="Times New Roman,serif" font-size="14.00">psi&#45;consciousness</text>
</g>
<!-- Entity112&#45;&gt;Entity11 -->
<g id="edge9" class="edge verb">
<title>Entity112&#45;&gt;Entity11</title>
<path fill="none" stroke="black" d="M3971.16,-2822.8C3840.98,-2781.17 3430.11,-2649.78 3279.79,-2601.71"/>
<polygon fill="black" stroke="black" points="3280.44,-2598.24 3269.85,-2598.53 3278.31,-2604.91 3280.44,-2598.24"/>
<text text-anchor="start" x="3584.48" y="-2716.05" font-family="Times New Roman,serif" font-size="14.00">studied</text>
</g>
<!-- Entity115 -->
<g id="node5" class="node entity">
<title>Entity115</title>
<ellipse fill="none" stroke="black" cx="3729.16" cy="-2328.12" rx="68.49" ry="18"/>
<text text-anchor="start" x="3684.66" y="-2324.42" font-family="Times New Roman,serif" font-size="14.00">jeffrey mishlove</text>
</g>
<!-- Entity115&#45;&gt;Entity113 -->
<g id="edge5" class="edge verb">
<title>Entity115&#45;&gt;Entity113</title>
<path fill="none" stroke="black" d="M3791.18,-2335.84C3878.81,-2346.76 4037.15,-2366.48 4118.05,-2376.55"/>
<polygon fill="black" stroke="black" points="4118.11,-2380.09 4128.47,-2377.85 4118.97,-2373.14 4118.11,-2380.09"/>
<text text-anchor="start" x="3899.62" y="-2360" font-family="Times New Roman,serif" font-size="14.00">promoted</text>
</g>
<!-- Entity115&#45;&gt;Entity11 -->
<g id="edge3" class="edge verb">
<title>Entity115&#45;&gt;Entity11</title>
<path fill="none" stroke="black" d="M3691.15,-2343.2C3596.37,-2386.65 3350.66,-2511.03 3259.07,-2561.94"/>
<polygon fill="black" stroke="black" points="3257.2,-2558.97 3250.19,-2566.91 3260.63,-2565.08 3257.2,-2558.97"/>
<text text-anchor="start" x="3434.11" y="-2456.37" font-family="Times New Roman,serif" font-size="14.00">studied</text>
</g>
<!-- Entity115&#45;&gt;Entity11 -->
<g id="edge25" class="edge verb">
<title>Entity115&#45;&gt;Entity11</title>
<path fill="none" stroke="black" d="M3703.12,-2344.98C3622.63,-2390.58 3377.13,-2515.18 3272.28,-2564.02"/>
<polygon fill="black" stroke="black" points="3270.78,-2560.86 3263.17,-2568.24 3273.72,-2567.21 3270.78,-2560.86"/>
<text text-anchor="start" x="3487.7" y="-2458.3" font-family="Times New Roman,serif" font-size="14.00">investigates</text>
</g>
<!-- Entity114 -->
<g id="node7" class="node entity">
<title>Entity114</title>
<ellipse fill="none" stroke="black" cx="4952.66" cy="-2467.08" rx="74.99" ry="18"/>
<text text-anchor="start" x="4903.16" y="-2463.38" font-family="Times New Roman,serif" font-size="14.00">gene roddenberry</text>
</g>
<!-- Entity114&#45;&gt;Entity124 -->
<g id="edge4" class="edge verb">
<title>Entity114&#45;&gt;Entity124</title>
<path fill="none" stroke="black" d="M4896.43,-2479.03C4798.12,-2499.93 4596.95,-2542.69 4507.31,-2561.74"/>
<polygon fill="black" stroke="black" points="4506.51,-2558.33 4497.46,-2563.84 4507.97,-2565.18 4506.51,-2558.33"/>
<text text-anchor="start" x="4597.87" y="-2524.19" font-family="Times New Roman,serif" font-size="14.00">claiemd to channel</text>
</g>
<!-- Entity123 -->
<g id="node8" class="node entity">
<title>Entity123</title>
<ellipse fill="none" stroke="black" cx="4230.69" cy="-2274.77" rx="64.19" ry="18"/>
<text text-anchor="start" x="4189.19" y="-2271.07" font-family="Times New Roman,serif" font-size="14.00">andre puharich</text>
</g>
<!-- Entity123&#45;&gt;Entity113 -->
<g id="edge6" class="edge verb">
<title>Entity123&#45;&gt;Entity113</title>
<path fill="none" stroke="black" d="M4220.44,-2292.62C4210.44,-2310.01 4195.14,-2336.66 4183.74,-2356.49"/>
<polygon fill="black" stroke="black" points="4180.61,-2354.92 4178.66,-2365.34 4186.67,-2358.41 4180.61,-2354.92"/>
<text text-anchor="start" x="4142.09" y="-2328.35" font-family="Times New Roman,serif" font-size="14.00">sponsored</text>
</g>
<!-- Entity161 -->
<g id="node9" class="node entity">
<title>Entity161</title>
<ellipse fill="none" stroke="black" cx="1215.25" cy="-2966.71" rx="67.69" ry="18"/>
<text text-anchor="start" x="1171.25" y="-2963.01" font-family="Times New Roman,serif" font-size="14.00">abraham lincoln</text>
</g>
<!-- Entity180 -->
<g id="node10" class="node entity">
<title>Entity180</title>
<ellipse fill="none" stroke="black" cx="1038.09" cy="-2401.8" rx="31.4" ry="18"/>
<text text-anchor="start" x="1022.09" y="-2398.1" font-family="Times New Roman,serif" font-size="14.00">potus</text>
</g>
<!-- Entity161&#45;&gt;Entity180 -->
<g id="edge8" class="edge verb">
<title>Entity161&#45;&gt;Entity180</title>
<path fill="none" stroke="black" d="M1209.56,-2948.55C1183.76,-2866.29 1077.75,-2528.27 1046.69,-2429.21"/>
<polygon fill="black" stroke="black" points="1050.01,-2428.1 1043.68,-2419.61 1043.33,-2430.2 1050.01,-2428.1"/>
<text text-anchor="start" x="1112.12" y="-2692.68" font-family="Times New Roman,serif" font-size="14.00">isa</text>
</g>
<!-- Entity116 -->
<g id="node12" class="node entity">
<title>Entity116</title>
<ellipse fill="none" stroke="black" cx="512.77" cy="-2412.01" rx="56.59" ry="18"/>
<text text-anchor="start" x="477.27" y="-2408.31" font-family="Times New Roman,serif" font-size="14.00">harry truman</text>
</g>
<!-- Entity116&#45;&gt;Entity180 -->
<g id="edge12" class="edge verb">
<title>Entity116&#45;&gt;Entity180</title>
<path fill="none" stroke="black" d="M569.24,-2410.91C675.51,-2408.85 902.96,-2404.43 996.55,-2402.61"/>
<polygon fill="black" stroke="black" points="996.83,-2406.11 1006.76,-2402.41 996.69,-2399.11 996.83,-2406.11"/>
<text text-anchor="start" x="766.89" y="-2410.56" font-family="Times New Roman,serif" font-size="14.00">isa</text>
</g>
<!-- Entity179 -->
<g id="node13" class="node entity">
<title>Entity179</title>
<ellipse fill="none" stroke="black" cx="48.59" cy="-2386.39" rx="34.39" ry="18"/>
<text text-anchor="start" x="30.09" y="-2382.69" font-family="Times New Roman,serif" font-size="14.00">mason</text>
</g>
<!-- Entity116&#45;&gt;Entity179 -->
<g id="edge11" class="edge verb">
<title>Entity116&#45;&gt;Entity179</title>
<path fill="none" stroke="black" d="M456.78,-2408.92C363.49,-2403.77 178.13,-2393.54 93.1,-2388.85"/>
<polygon fill="black" stroke="black" points="93.18,-2385.35 83,-2388.29 92.79,-2392.34 93.18,-2385.35"/>
<text text-anchor="start" x="258.94" y="-2402.68" font-family="Times New Roman,serif" font-size="14.00">isa</text>
</g>
<!-- Entity125 -->
<g id="node14" class="node entity">
<title>Entity125</title>
<ellipse fill="none" stroke="black" cx="911.81" cy="-2700.54" rx="27" ry="18"/>
<text text-anchor="start" x="904.31" y="-2696.84" font-family="Times New Roman,serif" font-size="14.00">jfk</text>
</g>
<!-- Entity125&#45;&gt;Entity180 -->
<g id="edge13" class="edge verb">
<title>Entity125&#45;&gt;Entity180</title>
<path fill="none" stroke="black" d="M919.15,-2683.18C940.24,-2633.29 1001.17,-2489.15 1026.66,-2428.84"/>
<polygon fill="black" stroke="black" points="1029.91,-2430.15 1030.58,-2419.58 1023.46,-2427.43 1029.91,-2430.15"/>
<text text-anchor="start" x="956.9" y="-2559.81" font-family="Times New Roman,serif" font-size="14.00">isa</text>
</g>
<!-- Entity132 -->
<g id="node15" class="node entity">
<title>Entity132</title>
<ellipse fill="none" stroke="black" cx="1397.4" cy="-1890.42" rx="59.59" ry="18"/>
<text text-anchor="start" x="1359.4" y="-1886.72" font-family="Times New Roman,serif" font-size="14.00">donald trump</text>
</g>
<!-- Entity132&#45;&gt;Entity180 -->
<g id="edge14" class="edge verb">
<title>Entity132&#45;&gt;Entity180</title>
<path fill="none" stroke="black" d="M1384.82,-1908.32C1330.79,-1985.22 1118.27,-2287.68 1055.59,-2376.9"/>
<polygon fill="black" stroke="black" points="1052.72,-2374.9 1049.83,-2385.09 1058.45,-2378.92 1052.72,-2374.9"/>
<text text-anchor="start" x="1204.21" y="-2146.41" font-family="Times New Roman,serif" font-size="14.00">isa</text>
</g>
<!-- Entity154 -->
<g id="node39" class="node entity">
<title>Entity154</title>
<ellipse fill="none" stroke="black" cx="2027.29" cy="-2131.71" rx="50.09" ry="18"/>
<text text-anchor="start" x="1996.79" y="-2128.01" font-family="Times New Roman,serif" font-size="14.00">john trump</text>
</g>
<!-- Entity132&#45;&gt;Entity154 -->
<g id="edge41" class="edge verb">
<title>Entity132&#45;&gt;Entity154</title>
<path fill="none" stroke="black" d="M1434.45,-1904.62C1543.98,-1946.57 1865.91,-2069.89 1983.58,-2114.97"/>
<polygon fill="black" stroke="black" points="1982.42,-2118.27 1993.01,-2118.58 1984.92,-2111.74 1982.42,-2118.27"/>
<text text-anchor="start" x="1650.01" y="-2013.59" font-family="Times New Roman,serif" font-size="14.00">nephew of</text>
</g>
<!-- Entity126 -->
<g id="node16" class="node entity">
<title>Entity126</title>
<ellipse fill="none" stroke="black" cx="655.37" cy="-2593.79" rx="58.49" ry="18"/>
<text text-anchor="start" x="618.37" y="-2590.09" font-family="Times New Roman,serif" font-size="14.00">richard nixon</text>
</g>
<!-- Entity126&#45;&gt;Entity180 -->
<g id="edge15" class="edge verb">
<title>Entity126&#45;&gt;Entity180</title>
<path fill="none" stroke="black" d="M686.05,-2578.4C757,-2542.81 931.99,-2455.03 1005.13,-2418.34"/>
<polygon fill="black" stroke="black" points="1006.98,-2421.33 1014.35,-2413.71 1003.84,-2415.07 1006.98,-2421.33"/>
<text text-anchor="start" x="829.59" y="-2502.17" font-family="Times New Roman,serif" font-size="14.00">isa</text>
</g>
<!-- Entity138 -->
<g id="node17" class="node entity">
<title>Entity138</title>
<ellipse fill="none" stroke="black" cx="608.72" cy="-2287.57" rx="63.89" ry="18"/>
<text text-anchor="start" x="567.72" y="-2283.87" font-family="Times New Roman,serif" font-size="14.00">george w bush</text>
</g>
<!-- Entity138&#45;&gt;Entity180 -->
<g id="edge16" class="edge verb">
<title>Entity138&#45;&gt;Entity180</title>
<path fill="none" stroke="black" d="M655.48,-2300.02C740.98,-2322.76 920.92,-2370.63 999.74,-2391.6"/>
<polygon fill="black" stroke="black" points="999.16,-2395.07 1009.73,-2394.26 1000.96,-2388.3 999.16,-2395.07"/>
<text text-anchor="start" x="811.61" y="-2349.61" font-family="Times New Roman,serif" font-size="14.00">isa</text>
</g>
<!-- Entity131 -->
<g id="node18" class="node entity">
<title>Entity131</title>
<ellipse fill="none" stroke="black" cx="592.58" cy="-2145.53" rx="68.49" ry="18"/>
<text text-anchor="start" x="548.08" y="-2141.83" font-family="Times New Roman,serif" font-size="14.00">george hw bush</text>
</g>
<!-- Entity131&#45;&gt;Entity180 -->
<g id="edge17" class="edge verb">
<title>Entity131&#45;&gt;Entity180</title>
<path fill="none" stroke="black" d="M621.13,-2161.95C700.64,-2207.69 924.23,-2336.31 1006.88,-2383.85"/>
<polygon fill="black" stroke="black" points="1005.37,-2387.02 1015.79,-2388.97 1008.86,-2380.95 1005.37,-2387.02"/>
<text text-anchor="start" x="798" y="-2276.7" font-family="Times New Roman,serif" font-size="14.00">isa</text>
</g>
<!-- Entity127 -->
<g id="node19" class="node entity">
<title>Entity127</title>
<ellipse fill="none" stroke="black" cx="1554.78" cy="-2388.53" rx="31.4" ry="18"/>
<text text-anchor="start" x="1538.78" y="-2384.83" font-family="Times New Roman,serif" font-size="14.00">carter</text>
</g>
<!-- Entity127&#45;&gt;Entity180 -->
<g id="edge18" class="edge verb">
<title>Entity127&#45;&gt;Entity180</title>
<path fill="none" stroke="black" d="M1523.24,-2389.34C1434.04,-2391.63 1179.98,-2398.16 1079.61,-2400.74"/>
<polygon fill="black" stroke="black" points="1079.46,-2397.24 1069.55,-2400.99 1079.64,-2404.24 1079.46,-2397.24"/>
<text text-anchor="start" x="1285.43" y="-2383.84" font-family="Times New Roman,serif" font-size="14.00">isa</text>
</g>
<!-- Entity184 -->
<g id="node23" class="node entity">
<title>Entity184</title>
<ellipse fill="none" stroke="black" cx="2041.83" cy="-2382.92" rx="27" ry="18"/>
<text text-anchor="start" x="2032.33" y="-2379.22" font-family="Times New Roman,serif" font-size="14.00">ufo</text>
</g>
<!-- Entity127&#45;&gt;Entity184 -->
<g id="edge22" class="edge verb">
<title>Entity127&#45;&gt;Entity184</title>
<path fill="none" stroke="black" d="M1585.99,-2388.17C1671.91,-2387.18 1911.69,-2384.42 2004.49,-2383.35"/>
<polygon fill="black" stroke="black" points="2004.59,-2386.85 2014.55,-2383.24 2004.51,-2379.85 2004.59,-2386.85"/>
<text text-anchor="start" x="1740.24" y="-2389.56" font-family="Times New Roman,serif" font-size="14.00">witnessed</text>
</g>
<!-- Entity130 -->
<g id="node20" class="node entity">
<title>Entity130</title>
<ellipse fill="none" stroke="black" cx="902.61" cy="-2106.73" rx="35.19" ry="18"/>
<text text-anchor="start" x="883.61" y="-2103.03" font-family="Times New Roman,serif" font-size="14.00">obama</text>
</g>
<!-- Entity130&#45;&gt;Entity180 -->
<g id="edge19" class="edge verb">
<title>Entity130&#45;&gt;Entity180</title>
<path fill="none" stroke="black" d="M910.68,-2124.31C933.51,-2174.02 998.64,-2315.88 1025.88,-2375.21"/>
<polygon fill="black" stroke="black" points="1022.71,-2376.69 1030.06,-2384.32 1029.07,-2373.77 1022.71,-2376.69"/>
<text text-anchor="start" x="952.28" y="-2253.56" font-family="Times New Roman,serif" font-size="14.00">isa</text>
</g>
<!-- Entity128 -->
<g id="node21" class="node entity">
<title>Entity128</title>
<ellipse fill="none" stroke="black" cx="2506.79" cy="-2375.25" rx="27" ry="18"/>
<text text-anchor="start" x="2498.79" y="-2371.55" font-family="Times New Roman,serif" font-size="14.00">cia</text>
</g>
<!-- Entity128&#45;&gt;Entity11 -->
<g id="edge20" class="edge verb">
<title>Entity128&#45;&gt;Entity11</title>
<path fill="none" stroke="black" d="M2531.89,-2382.55C2633.81,-2412.2 3018.18,-2524 3165.78,-2566.93"/>
<polygon fill="black" stroke="black" points="3164.99,-2570.35 3175.57,-2569.78 3166.95,-2563.63 3164.99,-2570.35"/>
<text text-anchor="start" x="2784.84" y="-2478.54" font-family="Times New Roman,serif" font-size="14.00">investigates</text>
</g>
<!-- Entity128&#45;&gt;Entity184 -->
<g id="edge26" class="edge verb">
<title>Entity128&#45;&gt;Entity184</title>
<path fill="none" stroke="black" d="M2479.78,-2375.7C2400.73,-2377 2169.72,-2380.81 2079.01,-2382.31"/>
<polygon fill="black" stroke="black" points="2078.85,-2378.81 2068.91,-2382.48 2078.97,-2385.81 2078.85,-2378.81"/>
<text text-anchor="start" x="2215.39" y="-2382.8" font-family="Times New Roman,serif" font-size="14.00">investigates</text>
</g>
<!-- Entity134 -->
<g id="node22" class="node entity">
<title>Entity134</title>
<ellipse fill="none" stroke="black" cx="3403.48" cy="-2691.86" rx="63.89" ry="18"/>
<text text-anchor="start" x="3362.48" y="-2688.16" font-family="Times New Roman,serif" font-size="14.00">robert bigelow</text>
</g>
<!-- Entity134&#45;&gt;Entity115 -->
<g id="edge23" class="edge verb">
<title>Entity134&#45;&gt;Entity115</title>
<path fill="none" stroke="black" d="M3419.19,-2674.31C3472.17,-2615.14 3644.41,-2422.77 3706.54,-2353.37"/>
<polygon fill="black" stroke="black" points="3709.16,-2355.69 3713.22,-2345.91 3703.95,-2351.03 3709.16,-2355.69"/>
<text text-anchor="start" x="3530.87" y="-2517.64" font-family="Times New Roman,serif" font-size="14.00">funds</text>
</g>
<!-- Entity134&#45;&gt;Entity11 -->
<g id="edge21" class="edge verb">
<title>Entity134&#45;&gt;Entity11</title>
<path fill="none" stroke="black" d="M3376.22,-2675.45C3345.44,-2656.93 3295.17,-2626.69 3260.89,-2606.06"/>
<polygon fill="black" stroke="black" points="3262.48,-2602.93 3252.11,-2600.78 3258.87,-2608.93 3262.48,-2602.93"/>
<text text-anchor="start" x="3254.56" y="-2644.56" font-family="Times New Roman,serif" font-size="14.00">investigates</text>
</g>
<!-- Entity139 -->
<g id="node24" class="node entity">
<title>Entity139</title>
<ellipse fill="none" stroke="black" cx="1347.27" cy="-2508.35" rx="71.49" ry="18"/>
<text text-anchor="start" x="1300.27" y="-2504.65" font-family="Times New Roman,serif" font-size="14.00">woodrow wilson</text>
</g>
<!-- Entity139&#45;&gt;Entity180 -->
<g id="edge24" class="edge verb">
<title>Entity139&#45;&gt;Entity180</title>
<path fill="none" stroke="black" d="M1304.93,-2493.76C1243.93,-2472.74 1132.33,-2434.28 1074.7,-2414.42"/>
<polygon fill="black" stroke="black" points="1075.52,-2411 1064.92,-2411.05 1073.24,-2417.62 1075.52,-2411"/>
<text text-anchor="start" x="1173.81" y="-2457.89" font-family="Times New Roman,serif" font-size="14.00">isa</text>
</g>
<!-- Entity189 -->
<g id="node28" class="node entity">
<title>Entity189</title>
<ellipse fill="none" stroke="black" cx="1022.78" cy="-1998.44" rx="71.49" ry="18"/>
<text text-anchor="start" x="975.78" y="-1994.74" font-family="Times New Roman,serif" font-size="14.00">leauge of nations</text>
</g>
<!-- Entity139&#45;&gt;Entity189 -->
<g id="edge29" class="edge verb">
<title>Entity139&#45;&gt;Entity189</title>
<path fill="none" stroke="black" d="M1335.91,-2490.5C1287.44,-2414.32 1097.71,-2116.18 1039.72,-2025.05"/>
<polygon fill="black" stroke="black" points="1042.54,-2022.96 1034.22,-2016.41 1036.63,-2026.72 1042.54,-2022.96"/>
<text text-anchor="start" x="1146.81" y="-2261.57" font-family="Times New Roman,serif" font-size="14.00">created</text>
</g>
<!-- Entity145 -->
<g id="node25" class="node entity">
<title>Entity145</title>
<ellipse fill="none" stroke="black" cx="1298.26" cy="-2400.4" rx="53.89" ry="18"/>
<text text-anchor="start" x="1264.76" y="-2396.7" font-family="Times New Roman,serif" font-size="14.00">edgar casey</text>
</g>
<!-- Entity145&#45;&gt;Entity139 -->
<g id="edge27" class="edge verb">
<title>Entity145&#45;&gt;Entity139</title>
<path fill="none" stroke="black" d="M1306.36,-2418.22C1314.08,-2435.23 1325.82,-2461.1 1334.75,-2480.77"/>
<polygon fill="black" stroke="black" points="1331.68,-2482.48 1339,-2490.14 1338.06,-2479.58 1331.68,-2482.48"/>
<text text-anchor="start" x="1278.55" y="-2453.3" font-family="Times New Roman,serif" font-size="14.00">advises</text>
</g>
<!-- Entity137 -->
<g id="node26" class="node entity">
<title>Entity137</title>
<ellipse fill="none" stroke="black" cx="1648" cy="-3938.97" rx="58.49" ry="18"/>
<text text-anchor="start" x="1611" y="-3935.27" font-family="Times New Roman,serif" font-size="14.00">rudolf steiner</text>
</g>
<!-- Entity269 -->
<g id="node27" class="node entity">
<title>Entity269</title>
<ellipse fill="none" stroke="black" cx="1675.14" cy="-4046.9" rx="102.08" ry="18"/>
<text text-anchor="start" x="1604.64" y="-4043.2" font-family="Times New Roman,serif" font-size="14.00">anthroposophical society</text>
</g>
<!-- Entity137&#45;&gt;Entity269 -->
<g id="edge28" class="edge verb">
<title>Entity137&#45;&gt;Entity269</title>
<path fill="none" stroke="black" d="M1652.6,-3957.28C1656.86,-3974.21 1663.24,-3999.6 1668.13,-4019.04"/>
<polygon fill="black" stroke="black" points="1664.77,-4020.02 1670.6,-4028.86 1671.56,-4018.31 1664.77,-4020.02"/>
<text text-anchor="start" x="1619.37" y="-3991.96" font-family="Times New Roman,serif" font-size="14.00">created</text>
</g>
<!-- Entity188 -->
<g id="node30" class="node entity">
<title>Entity188</title>
<ellipse fill="none" stroke="black" cx="1572.68" cy="-3771.76" rx="85.29" ry="18"/>
<text text-anchor="start" x="1515.18" y="-3768.06" font-family="Times New Roman,serif" font-size="14.00">theosophical society</text>
</g>
<!-- Entity137&#45;&gt;Entity188 -->
<g id="edge31" class="edge verb">
<title>Entity137&#45;&gt;Entity188</title>
<path fill="none" stroke="black" d="M1639.94,-3921.08C1626.78,-3891.86 1600.59,-3833.73 1585.06,-3799.25"/>
<polygon fill="black" stroke="black" points="1588.1,-3797.46 1580.8,-3789.78 1581.71,-3800.34 1588.1,-3797.46"/>
<text text-anchor="start" x="1546.5" y="-3863.96" font-family="Times New Roman,serif" font-size="14.00">memberr of</text>
</g>
<!-- Entity142 -->
<g id="node29" class="node entity">
<title>Entity142</title>
<ellipse fill="none" stroke="black" cx="1417.61" cy="-4428.5" rx="73.39" ry="18"/>
<text text-anchor="start" x="1369.11" y="-4424.8" font-family="Times New Roman,serif" font-size="14.00">madam blavatsky</text>
</g>
<!-- Entity142&#45;&gt;Entity188 -->
<g id="edge30" class="edge verb">
<title>Entity142&#45;&gt;Entity188</title>
<path fill="none" stroke="black" d="M1421.92,-4410.25C1443.51,-4318.84 1539.87,-3910.74 1566.08,-3799.72"/>
<polygon fill="black" stroke="black" points="1569.5,-3800.46 1568.39,-3789.92 1562.69,-3798.85 1569.5,-3800.46"/>
<text text-anchor="start" x="1453" y="-4108.79" font-family="Times New Roman,serif" font-size="14.00">created</text>
</g>
<!-- Entity140 -->
<g id="node31" class="node entity">
<title>Entity140</title>
<ellipse fill="none" stroke="black" cx="1175.87" cy="-1191.69" rx="58.49" ry="18"/>
<text text-anchor="start" x="1138.87" y="-1187.99" font-family="Times New Roman,serif" font-size="14.00">steve bannon</text>
</g>
<!-- Entity140&#45;&gt;Entity132 -->
<g id="edge33" class="edge verb">
<title>Entity140&#45;&gt;Entity132</title>
<path fill="none" stroke="black" d="M1179.25,-1210.01C1203.57,-1305.63 1343.38,-1747.25 1385.59,-1862.73"/>
<polygon fill="black" stroke="black" points="1382.38,-1864.13 1389.14,-1872.28 1388.94,-1861.69 1382.38,-1864.13"/>
<text text-anchor="start" x="1227.42" y="-1540.17" font-family="Times New Roman,serif" font-size="14.00">promoted</text>
</g>
<!-- Entity140&#45;&gt;Entity132 -->
<g id="edge40" class="edge verb">
<title>Entity140&#45;&gt;Entity132</title>
<path fill="none" stroke="black" d="M1184.06,-1209.66C1220.06,-1304.44 1360.26,-1746.13 1391.46,-1862.35"/>
<polygon fill="black" stroke="black" points="1388.14,-1863.48 1394.06,-1872.26 1394.91,-1861.7 1388.14,-1863.48"/>
<text text-anchor="start" x="1245.76" y="-1524.8" font-family="Times New Roman,serif" font-size="14.00">advises</text>
</g>
<!-- Entity265 -->
<g id="node32" class="node entity">
<title>Entity265</title>
<ellipse fill="none" stroke="black" cx="1247.69" cy="-767.1" rx="35.19" ry="18"/>
<text text-anchor="start" x="1228.69" y="-763.4" font-family="Times New Roman,serif" font-size="14.00">gurgev</text>
</g>
<!-- Entity140&#45;&gt;Entity265 -->
<g id="edge32" class="edge verb">
<title>Entity140&#45;&gt;Entity265</title>
<path fill="none" stroke="black" d="M1178.95,-1173.44C1190.23,-1106.76 1229.28,-875.9 1242.93,-795.21"/>
<polygon fill="black" stroke="black" points="1246.39,-795.72 1244.61,-785.28 1239.49,-794.55 1246.39,-795.72"/>
<text text-anchor="start" x="1169.94" y="-988.13" font-family="Times New Roman,serif" font-size="14.00">studied</text>
</g>
<!-- Entity270 -->
<g id="node33" class="node entity">
<title>Entity270</title>
<ellipse fill="none" stroke="black" cx="1173.2" cy="-1083.79" rx="38.19" ry="18"/>
<text text-anchor="start" x="1151.7" y="-1080.09" font-family="Times New Roman,serif" font-size="14.00">us navy</text>
</g>
<!-- Entity140&#45;&gt;Entity270 -->
<g id="edge34" class="edge verb">
<title>Entity140&#45;&gt;Entity270</title>
<path fill="none" stroke="black" d="M1175.41,-1173.38C1175,-1156.54 1174.37,-1131.31 1173.89,-1111.91"/>
<polygon fill="black" stroke="black" points="1177.39,-1111.73 1173.65,-1101.82 1170.39,-1111.91 1177.39,-1111.73"/>
<text text-anchor="start" x="1113.65" y="-1146.45" font-family="Times New Roman,serif" font-size="14.00">member of</text>
</g>
<!-- Entity267 -->
<g id="node34" class="node entity">
<title>Entity267</title>
<ellipse fill="none" stroke="black" cx="844.89" cy="-810.82" rx="53.09" ry="18"/>
<text text-anchor="start" x="811.89" y="-807.12" font-family="Times New Roman,serif" font-size="14.00">biosphere 2</text>
</g>
<!-- Entity140&#45;&gt;Entity267 -->
<g id="edge35" class="edge verb">
<title>Entity140&#45;&gt;Entity267</title>
<path fill="none" stroke="black" d="M1160.57,-1174.08C1107.19,-1112.66 929.11,-907.73 866.71,-835.93"/>
<polygon fill="black" stroke="black" points="869.23,-833.49 860.03,-828.24 863.95,-838.08 869.23,-833.49"/>
<text text-anchor="start" x="972.64" y="-1008.81" font-family="Times New Roman,serif" font-size="14.00">created</text>
</g>
<!-- Entity268 -->
<g id="node35" class="node entity">
<title>Entity268</title>
<ellipse fill="none" stroke="black" cx="947.33" cy="-669.99" rx="64.99" ry="18"/>
<text text-anchor="start" x="905.33" y="-666.29" font-family="Times New Roman,serif" font-size="14.00">goldman sachs</text>
</g>
<!-- Entity140&#45;&gt;Entity268 -->
<g id="edge36" class="edge verb">
<title>Entity140&#45;&gt;Entity268</title>
<path fill="none" stroke="black" d="M1168,-1173.73C1134.07,-1096.28 1000.15,-790.57 959.26,-697.21"/>
<polygon fill="black" stroke="black" points="962.38,-695.63 955.17,-687.87 955.97,-698.43 962.38,-695.63"/>
<text text-anchor="start" x="1000.63" y="-939.27" font-family="Times New Roman,serif" font-size="14.00">worked for</text>
</g>
<!-- Entity191 -->
<g id="node36" class="node entity">
<title>Entity191</title>
<ellipse fill="none" stroke="black" cx="1327.55" cy="-592.18" rx="61.99" ry="18"/>
<text text-anchor="start" x="1288.05" y="-588.48" font-family="Times New Roman,serif" font-size="14.00">breitbart news</text>
</g>
<!-- Entity140&#45;&gt;Entity191 -->
<g id="edge37" class="edge verb">
<title>Entity140&#45;&gt;Entity191</title>
<path fill="none" stroke="black" d="M1180.49,-1173.42C1202.21,-1087.57 1294.18,-724.08 1320.49,-620.08"/>
<polygon fill="black" stroke="black" points="1323.9,-620.86 1322.96,-610.31 1317.11,-619.15 1323.9,-620.86"/>
<text text-anchor="start" x="1209.49" y="-900.55" font-family="Times New Roman,serif" font-size="14.00">created</text>
</g>
<!-- Entity266 -->
<g id="node37" class="node entity">
<title>Entity266</title>
<ellipse fill="none" stroke="black" cx="639.22" cy="-918.81" rx="77.19" ry="18"/>
<text text-anchor="start" x="587.72" y="-915.11" font-family="Times New Roman,serif" font-size="14.00">hollywood movies</text>
</g>
<!-- Entity140&#45;&gt;Entity266 -->
<g id="edge38" class="edge verb">
<title>Entity140&#45;&gt;Entity266</title>
<path fill="none" stroke="black" d="M1145.48,-1176.24C1054.54,-1130 784.46,-992.66 680.58,-939.84"/>
<polygon fill="black" stroke="black" points="682.13,-936.71 671.63,-935.3 678.96,-942.95 682.13,-936.71"/>
<text text-anchor="start" x="858.03" y="-1061.84" font-family="Times New Roman,serif" font-size="14.00">produced</text>
</g>
<!-- Entity151 -->
<g id="node38" class="node entity">
<title>Entity151</title>
<ellipse fill="none" stroke="black" cx="1302.86" cy="-18.38" rx="69.59" ry="18"/>
<text text-anchor="start" x="1257.36" y="-14.68" font-family="Times New Roman,serif" font-size="14.00">andrew breitbart</text>
</g>
<!-- Entity151&#45;&gt;Entity191 -->
<g id="edge39" class="edge verb">
<title>Entity151&#45;&gt;Entity191</title>
<path fill="none" stroke="black" d="M1303.64,-36.5C1307.21,-119.4 1321.98,-462.77 1326.33,-563.98"/>
<polygon fill="black" stroke="black" points="1322.84,-564.22 1326.77,-574.06 1329.83,-563.92 1322.84,-564.22"/>
<text text-anchor="start" x="1273.99" y="-304.04" font-family="Times New Roman,serif" font-size="14.00">created</text>
</g>
<!-- Entity154&#45;&gt;Entity128 -->
<g id="edge42" class="edge verb">
<title>Entity154&#45;&gt;Entity128</title>
<path fill="none" stroke="black" d="M2056.56,-2146.58C2141.82,-2189.88 2389.37,-2315.61 2476.23,-2359.73"/>
<polygon fill="black" stroke="black" points="2474.8,-2362.93 2485.3,-2364.34 2477.97,-2356.69 2474.8,-2362.93"/>
<text text-anchor="start" x="2205.4" y="-2256.96" font-family="Times New Roman,serif" font-size="14.00">member of</text>
</g>
<!-- Entity271 -->
<g id="node40" class="node entity">
<title>Entity271</title>
<ellipse fill="none" stroke="black" cx="2275.17" cy="-2483.22" rx="50.89" ry="18"/>
<text text-anchor="start" x="2244.17" y="-2479.52" font-family="Times New Roman,serif" font-size="14.00">nikola tesla</text>
</g>
<!-- Entity154&#45;&gt;Entity271 -->
<g id="edge43" class="edge verb">
<title>Entity154&#45;&gt;Entity271</title>
<path fill="none" stroke="black" d="M2039.92,-2149.63C2080.71,-2207.47 2209.02,-2389.41 2256.91,-2457.32"/>
<polygon fill="black" stroke="black" points="2254.24,-2459.6 2262.86,-2465.76 2259.96,-2455.57 2254.24,-2459.6"/>
<text text-anchor="start" x="2107.42" y="-2307.27" font-family="Times New Roman,serif" font-size="14.00">studied</text>
</g>
<!-- Entity152 -->
<g id="node41" class="node entity">
<title>Entity152</title>
<ellipse fill="none" stroke="black" cx="1547.59" cy="-3663.84" rx="90.98" ry="18"/>
<text text-anchor="start" x="1485.59" y="-3660.14" font-family="Times New Roman,serif" font-size="14.00">emma hardinge&#45;britten</text>
</g>
<!-- Entity152&#45;&gt;Entity161 -->
<g id="edge45" class="edge verb">
<title>Entity152&#45;&gt;Entity161</title>
<path fill="none" stroke="black" d="M1539.04,-3645.91C1493.88,-3551.16 1283.05,-3108.92 1228.28,-2994.04"/>
<polygon fill="black" stroke="black" points="1231.36,-2992.36 1223.9,-2984.84 1225.04,-2995.37 1231.36,-2992.36"/>
<text text-anchor="start" x="1284.66" y="-3323.77" font-family="Times New Roman,serif" font-size="14.00">spokesperson for</text>
</g>
<!-- Entity152&#45;&gt;Entity188 -->
<g id="edge44" class="edge verb">
<title>Entity152&#45;&gt;Entity188</title>
<path fill="none" stroke="black" d="M1551.85,-3682.15C1555.78,-3699.07 1561.69,-3724.46 1566.21,-3743.9"/>
<polygon fill="black" stroke="black" points="1562.82,-3744.78 1568.49,-3753.73 1569.63,-3743.19 1562.82,-3744.78"/>
<text text-anchor="start" x="1518.03" y="-3716.83" font-family="Times New Roman,serif" font-size="14.00">created</text>
</g>
<!-- Entity272 -->
<g id="node42" class="node entity">
<title>Entity272</title>
<ellipse fill="none" stroke="black" cx="1185.03" cy="-4113.03" rx="39.79" ry="18"/>
<text text-anchor="start" x="1162.53" y="-4109.33" font-family="Times New Roman,serif" font-size="14.00">medium</text>
</g>
<!-- Entity152&#45;&gt;Entity272 -->
<g id="edge46" class="edge verb">
<title>Entity152&#45;&gt;Entity272</title>
<path fill="none" stroke="black" d="M1533.16,-3681.72C1476.74,-3751.63 1271.02,-4006.5 1205.34,-4087.87"/>
<polygon fill="black" stroke="black" points="1202.29,-4086.08 1198.73,-4096.06 1207.74,-4090.48 1202.29,-4086.08"/>
<text text-anchor="start" x="1353.25" y="-3888.6" font-family="Times New Roman,serif" font-size="14.00">isa</text>
</g>
<!-- Entity192 -->
<g id="node43" class="node entity">
<title>Entity192</title>
<ellipse fill="none" stroke="black" cx="2125.28" cy="-3938.76" rx="55.79" ry="18"/>
<text text-anchor="start" x="2090.28" y="-3935.06" font-family="Times New Roman,serif" font-size="14.00">orphic circle</text>
</g>
<!-- Entity152&#45;&gt;Entity192 -->
<g id="edge47" class="edge verb">
<title>Entity152&#45;&gt;Entity192</title>
<path fill="none" stroke="black" d="M1582.86,-3680.62C1684.28,-3728.89 1976.34,-3867.88 2084.42,-3919.31"/>
<polygon fill="black" stroke="black" points="2083.16,-3922.59 2093.69,-3923.72 2086.17,-3916.27 2083.16,-3922.59"/>
<text text-anchor="start" x="1772.64" y="-3803.77" font-family="Times New Roman,serif" font-size="14.00">member of</text>
</g>
<!-- Entity160 -->
<g id="node44" class="node entity">
<title>Entity160</title>
<ellipse fill="none" stroke="black" cx="4239.94" cy="-1512.66" rx="53.89" ry="18"/>
<text text-anchor="start" x="4206.44" y="-1508.96" font-family="Times New Roman,serif" font-size="14.00">black magic</text>
</g>
<!-- Entity193 -->
<g id="node45" class="node entity">
<title>Entity193</title>
<ellipse fill="none" stroke="black" cx="4327.66" cy="-1624.64" rx="28.7" ry="18"/>
<text text-anchor="start" x="4313.66" y="-1620.94" font-family="Times New Roman,serif" font-size="14.00">x left</text>
</g>
<!-- Entity160&#45;&gt;Entity193 -->
<g id="edge48" class="edge verb">
<title>Entity160&#45;&gt;Entity193</title>
<path fill="none" stroke="black" d="M4253.64,-1530.16C4268.45,-1549.05 4292.14,-1579.29 4308.72,-1600.45"/>
<polygon fill="black" stroke="black" points="4305.98,-1602.64 4314.9,-1608.36 4311.49,-1598.32 4305.98,-1602.64"/>
<text text-anchor="start" x="4220.18" y="-1569.11" font-family="Times New Roman,serif" font-size="14.00">member of</text>
</g>
<!-- Entity162 -->
<g id="node46" class="node entity">
<title>Entity162</title>
<ellipse fill="none" stroke="black" cx="3627.94" cy="-1811.66" rx="39.79" ry="18"/>
<text text-anchor="start" x="3605.44" y="-1807.96" font-family="Times New Roman,serif" font-size="14.00">crowley</text>
</g>
<!-- Entity194 -->
<g id="node47" class="node entity">
<title>Entity194</title>
<ellipse fill="none" stroke="black" cx="3715.66" cy="-1923.64" rx="38.99" ry="18"/>
<text text-anchor="start" x="3693.66" y="-1919.94" font-family="Times New Roman,serif" font-size="14.00">x magic</text>
</g>
<!-- Entity162&#45;&gt;Entity194 -->
<g id="edge49" class="edge verb">
<title>Entity162&#45;&gt;Entity194</title>
<path fill="none" stroke="black" d="M3641.26,-1828.67C3655.82,-1847.25 3679.28,-1877.2 3695.96,-1898.49"/>
<polygon fill="black" stroke="black" points="3693.29,-1900.76 3702.21,-1906.47 3698.8,-1896.44 3693.29,-1900.76"/>
<text text-anchor="start" x="3607.61" y="-1867.38" font-family="Times New Roman,serif" font-size="14.00">member of</text>
</g>
<!-- Entity163 -->
<g id="node48" class="node entity">
<title>Entity163</title>
<ellipse fill="none" stroke="black" cx="4730.08" cy="-3704.81" rx="57.69" ry="18"/>
<text text-anchor="start" x="4693.58" y="-3701.11" font-family="Times New Roman,serif" font-size="14.00">michael pane</text>
</g>
<!-- Entity163&#45;&gt;Entity178 -->
<g id="edge50" class="edge verb">
<title>Entity163&#45;&gt;Entity178</title>
<path fill="none" stroke="black" d="M4723.86,-3686.71C4699.2,-3614.94 4608.23,-3350.14 4578.42,-3263.38"/>
<polygon fill="black" stroke="black" points="4581.66,-3262.03 4575.1,-3253.71 4575.04,-3264.3 4581.66,-3262.03"/>
<text text-anchor="start" x="4595.14" y="-3478.84" font-family="Times New Roman,serif" font-size="14.00">worked at</text>
</g>
<!-- Entity165 -->
<g id="node49" class="node entity">
<title>Entity165</title>
<ellipse fill="none" stroke="black" cx="5182.59" cy="-3601.93" rx="74.99" ry="18"/>
<text text-anchor="start" x="5133.09" y="-3598.23" font-family="Times New Roman,serif" font-size="14.00">walter dornberger</text>
</g>
<!-- Entity163&#45;&gt;Entity165 -->
<g id="edge51" class="edge verb">
<title>Entity163&#45;&gt;Entity165</title>
<path fill="none" stroke="black" d="M4776.8,-3694.19C4858.18,-3675.69 5026.03,-3637.52 5118.31,-3616.54"/>
<polygon fill="black" stroke="black" points="5119.12,-3619.95 5128.09,-3614.32 5117.57,-3613.12 5119.12,-3619.95"/>
<text text-anchor="start" x="4884.56" y="-3659.17" font-family="Times New Roman,serif" font-size="14.00">worked for</text>
</g>
<!-- Entity165&#45;&gt;Entity178 -->
<g id="edge52" class="edge verb">
<title>Entity165&#45;&gt;Entity178</title>
<path fill="none" stroke="black" d="M5159.25,-3584.65C5066.82,-3523.71 4726.12,-3320.13 4608.84,-3255.45"/>
<polygon fill="black" stroke="black" points="4610.27,-3252.24 4599.82,-3250.5 4606.91,-3258.38 4610.27,-3252.24"/>
<text text-anchor="start" x="4828.05" y="-3408.85" font-family="Times New Roman,serif" font-size="14.00">worked at</text>
</g>
<!-- Entity165&#45;&gt;Entity178 -->
<g id="edge53" class="edge verb">
<title>Entity165&#45;&gt;Entity178</title>
<path fill="none" stroke="black" d="M5149.25,-3585.76C5041.42,-3526.89 4703.33,-3325.13 4599.51,-3257.69"/>
<polygon fill="black" stroke="black" points="4601.32,-3254.69 4591.04,-3252.14 4597.49,-3260.55 4601.32,-3254.69"/>
<text text-anchor="start" x="4795.38" y="-3425.52" font-family="Times New Roman,serif" font-size="14.00">vice&#45;president</text>
</g>
<!-- Entity195 -->
<g id="node50" class="node entity">
<title>Entity195</title>
<ellipse fill="none" stroke="black" cx="4406.35" cy="-3596.79" rx="90.98" ry="18"/>
<text text-anchor="start" x="4344.35" y="-3593.09" font-family="Times New Roman,serif" font-size="14.00">nsdap rocket program</text>
</g>
<!-- Entity165&#45;&gt;Entity195 -->
<g id="edge54" class="edge verb">
<title>Entity165&#45;&gt;Entity195</title>
<path fill="none" stroke="black" d="M5107.81,-3601.43C4967.73,-3600.51 4665.71,-3598.51 4507.57,-3597.46"/>
<polygon fill="black" stroke="black" points="4507.39,-3593.96 4497.37,-3597.39 4507.34,-3600.96 4507.39,-3593.96"/>
<text text-anchor="start" x="4766.69" y="-3603.25" font-family="Times New Roman,serif" font-size="14.00">created</text>
</g>
<!-- Entity177 -->
<g id="node51" class="node entity">
<title>Entity177</title>
<ellipse fill="none" stroke="black" cx="5781.72" cy="-3800.08" rx="32.49" ry="18"/>
<text text-anchor="start" x="5764.72" y="-3796.38" font-family="Times New Roman,serif" font-size="14.00">nsdap</text>
</g>
<!-- Entity165&#45;&gt;Entity177 -->
<g id="edge55" class="edge verb">
<title>Entity165&#45;&gt;Entity177</title>
<path fill="none" stroke="black" d="M5226.65,-3616.5C5339.61,-3653.86 5638.11,-3752.58 5743.9,-3787.57"/>
<polygon fill="black" stroke="black" points="5742.93,-3790.93 5753.52,-3790.75 5745.12,-3784.29 5742.93,-3790.93"/>
<text text-anchor="start" x="5424.27" y="-3705.83" font-family="Times New Roman,serif" font-size="14.00">member of</text>
</g>
<!-- Entity273 -->
<g id="node53" class="node entity">
<title>Entity273</title>
<ellipse fill="none" stroke="black" cx="5497.21" cy="-4082.04" rx="65.79" ry="18"/>
<text text-anchor="start" x="5454.71" y="-4078.34" font-family="Times New Roman,serif" font-size="14.00">x series aircraft</text>
</g>
<!-- Entity165&#45;&gt;Entity273 -->
<g id="edge58" class="edge verb">
<title>Entity165&#45;&gt;Entity273</title>
<path fill="none" stroke="black" d="M5194.35,-3619.87C5242.3,-3693.04 5423.16,-3969.03 5480,-4055.78"/>
<polygon fill="black" stroke="black" points="5477.15,-4057.81 5485.56,-4064.26 5483.01,-4053.98 5477.15,-4057.81"/>
<text text-anchor="start" x="5296.18" y="-3841.63" font-family="Times New Roman,serif" font-size="14.00">created</text>
</g>
<!-- Entity102 -->
<g id="node59" class="node entity">
<title>Entity102</title>
<ellipse fill="none" stroke="black" cx="6222.31" cy="-3894.98" rx="38.99" ry="18"/>
<text text-anchor="start" x="6200.31" y="-3891.28" font-family="Times New Roman,serif" font-size="14.00">far right</text>
</g>
<!-- Entity177&#45;&gt;Entity102 -->
<g id="edge63" class="edge verb">
<title>Entity177&#45;&gt;Entity102</title>
<path fill="none" stroke="black" d="M5809.54,-3809.69C5882.87,-3829.56 6082.04,-3872.74 6174.27,-3889.1"/>
<polygon fill="black" stroke="black" points="6173.72,-3892.56 6184.18,-3890.82 6174.92,-3885.66 6173.72,-3892.56"/>
<text text-anchor="start" x="5936.91" y="-3853.2" font-family="Times New Roman,serif" font-size="14.00">member a</text>
</g>
<!-- Entity177&#45;&gt;Entity102 -->
<g id="edge67" class="edge verb">
<title>Entity177&#45;&gt;Entity102</title>
<path fill="none" stroke="black" d="M5813.83,-3803.22C5892.28,-3816.12 6093.63,-3859.32 6180.92,-3881.79"/>
<polygon fill="black" stroke="black" points="6180.18,-3885.21 6190.74,-3884.36 6181.95,-3878.44 6180.18,-3885.21"/>
<text text-anchor="start" x="5936.38" y="-3831.31" font-family="Times New Roman,serif" font-size="14.00">member of</text>
</g>
<!-- Entity170 -->
<g id="node52" class="node entity">
<title>Entity170</title>
<ellipse fill="none" stroke="black" cx="4819.91" cy="-3596.59" rx="46.29" ry="18"/>
<text text-anchor="start" x="4792.41" y="-3592.89" font-family="Times New Roman,serif" font-size="14.00">van braun</text>
</g>
<!-- Entity170&#45;&gt;Entity165 -->
<g id="edge56" class="edge verb">
<title>Entity170&#45;&gt;Entity165</title>
<path fill="none" stroke="black" d="M4866.21,-3597.27C4924.37,-3598.13 5025.26,-3599.61 5097.49,-3600.67"/>
<polygon fill="black" stroke="black" points="5097.88,-3604.18 5107.93,-3600.83 5097.98,-3597.18 5097.88,-3604.18"/>
<text text-anchor="start" x="4918.85" y="-3602.77" font-family="Times New Roman,serif" font-size="14.00">worked for</text>
</g>
<!-- Entity170&#45;&gt;Entity195 -->
<g id="edge57" class="edge verb">
<title>Entity170&#45;&gt;Entity195</title>
<path fill="none" stroke="black" d="M4773.67,-3596.61C4709.67,-3596.64 4592.38,-3596.7 4507.52,-3596.74"/>
<polygon fill="black" stroke="black" points="4507.34,-3593.24 4497.34,-3596.75 4507.34,-3600.24 4507.34,-3593.24"/>
<text text-anchor="start" x="4584.6" y="-3600.48" font-family="Times New Roman,serif" font-size="14.00">worked at</text>
</g>
<!-- Entity172 -->
<g id="node54" class="node entity">
<title>Entity172</title>
<ellipse fill="none" stroke="black" cx="6059.95" cy="-4079.94" rx="49.29" ry="18"/>
<text text-anchor="start" x="6029.95" y="-4076.24" font-family="Times New Roman,serif" font-size="14.00">adolf hitler</text>
</g>
<!-- Entity172&#45;&gt;Entity177 -->
<g id="edge59" class="edge verb">
<title>Entity172&#45;&gt;Entity177</title>
<path fill="none" stroke="black" d="M6042.97,-4062.86C5995.08,-4014.68 5858.92,-3877.73 5804.55,-3823.04"/>
<polygon fill="black" stroke="black" points="5806.98,-3820.52 5797.44,-3815.89 5802.01,-3825.45 5806.98,-3820.52"/>
<text text-anchor="start" x="5882.76" y="-3946.75" font-family="Times New Roman,serif" font-size="14.00">created</text>
</g>
<!-- Entity173 -->
<g id="node55" class="node entity">
<title>Entity173</title>
<ellipse fill="none" stroke="black" cx="524.66" cy="-2712.3" rx="77.99" ry="18"/>
<text text-anchor="start" x="472.66" y="-2708.6" font-family="Times New Roman,serif" font-size="14.00">dwight eisenhower</text>
</g>
<!-- Entity173&#45;&gt;Entity180 -->
<g id="edge60" class="edge verb">
<title>Entity173&#45;&gt;Entity180</title>
<path fill="none" stroke="black" d="M552.63,-2695.39C641.33,-2641.74 915.9,-2475.69 1007.79,-2420.13"/>
<polygon fill="black" stroke="black" points="1009.6,-2423.12 1016.34,-2414.95 1005.98,-2417.13 1009.6,-2423.12"/>
<text text-anchor="start" x="761.21" y="-2561.56" font-family="Times New Roman,serif" font-size="14.00">is a</text>
</g>
<!-- Entity174 -->
<g id="node56" class="node entity">
<title>Entity174</title>
<ellipse fill="none" stroke="black" cx="38.02" cy="-2945.63" rx="37.89" ry="18"/>
<text text-anchor="start" x="17.02" y="-2941.93" font-family="Times New Roman,serif" font-size="14.00">hunt oil</text>
</g>
<!-- Entity174&#45;&gt;Entity173 -->
<g id="edge61" class="edge verb">
<title>Entity174&#45;&gt;Entity173</title>
<path fill="none" stroke="black" d="M64.88,-2932.76C145.08,-2894.3 383.35,-2780.06 481.58,-2732.96"/>
<polygon fill="black" stroke="black" points="483.14,-2736.09 490.64,-2728.61 480.11,-2729.78 483.14,-2736.09"/>
<text text-anchor="start" x="233.23" y="-2836.66" font-family="Times New Roman,serif" font-size="14.00">funded</text>
</g>
<!-- Entity175 -->
<g id="node57" class="node entity">
<title>Entity175</title>
<ellipse fill="none" stroke="black" cx="7119.93" cy="-4173.47" rx="36.29" ry="18"/>
<text text-anchor="start" x="7099.93" y="-4169.77" font-family="Times New Roman,serif" font-size="14.00">oswald</text>
</g>
<!-- Entity176 -->
<g id="node58" class="node entity">
<title>Entity176</title>
<ellipse fill="none" stroke="black" cx="6700.46" cy="-4039.75" rx="59.29" ry="18"/>
<text text-anchor="start" x="6662.96" y="-4036.05" font-family="Times New Roman,serif" font-size="14.00">guy bannister</text>
</g>
<!-- Entity175&#45;&gt;Entity176 -->
<g id="edge62" class="edge verb">
<title>Entity175&#45;&gt;Entity176</title>
<path fill="none" stroke="black" d="M7089.09,-4163.63C7017.4,-4140.78 6838.98,-4083.91 6751.06,-4055.88"/>
<polygon fill="black" stroke="black" points="6751.9,-4052.47 6741.31,-4052.77 6749.78,-4059.14 6751.9,-4052.47"/>
<text text-anchor="start" x="6857.08" y="-4113.56" font-family="Times New Roman,serif" font-size="14.00">worked for</text>
</g>
<!-- Entity176&#45;&gt;Entity102 -->
<g id="edge64" class="edge verb">
<title>Entity176&#45;&gt;Entity102</title>
<path fill="none" stroke="black" d="M6665.23,-4025.12C6580.13,-3995.36 6363.42,-3929.62 6268.28,-3904.57"/>
<polygon fill="black" stroke="black" points="6268.93,-3901.13 6258.37,-3902 6267.17,-3907.9 6268.93,-3901.13"/>
<text text-anchor="start" x="6411.75" y="-3953.65" font-family="Times New Roman,serif" font-size="14.00">member a</text>
</g>
<!-- Entity176&#45;&gt;Entity102 -->
<g id="edge66" class="edge verb">
<title>Entity176&#45;&gt;Entity102</title>
<path fill="none" stroke="black" d="M6651.64,-4029.4C6556.23,-4004.11 6346.88,-3940.62 6260.62,-3910.68"/>
<polygon fill="black" stroke="black" points="6261.56,-3907.3 6250.97,-3907.28 6259.24,-3913.9 6261.56,-3907.3"/>
<text text-anchor="start" x="6395.13" y="-3973.84" font-family="Times New Roman,serif" font-size="14.00">member of</text>
</g>
<!-- Entity1 -->
<g id="node60" class="node entity">
<title>Entity1</title>
<ellipse fill="none" stroke="black" cx="3016.94" cy="-2110.66" rx="27" ry="18"/>
<text text-anchor="start" x="3013.44" y="-2106.96" font-family="Times New Roman,serif" font-size="14.00">s</text>
</g>
<!-- Entity2 -->
<g id="node61" class="node entity">
<title>Entity2</title>
<ellipse fill="none" stroke="black" cx="3104.66" cy="-2222.64" rx="27" ry="18"/>
<text text-anchor="start" x="3100.66" y="-2218.94" font-family="Times New Roman,serif" font-size="14.00">o</text>
</g>
<!-- Entity1&#45;&gt;Entity2 -->
<g id="edge65" class="edge verb">
<title>Entity1&#45;&gt;Entity2</title>
<path fill="none" stroke="black" d="M3029.51,-2126.7C3044.23,-2145.5 3068.76,-2176.82 3085.78,-2198.53"/>
<polygon fill="black" stroke="black" points="3083.19,-2200.91 3092.11,-2206.62 3088.7,-2196.59 3083.19,-2200.91"/>
<text text-anchor="start" x="3050.64" y="-2166.42" font-family="Times New Roman,serif" font-size="14.00">v</text>
</g>
</g>
</svg>
