<?xml version="1.0" encoding="UTF-8" standalone="no"?>
<?xml-stylesheet href="./styles.css" type="text/css"?>
<!DOCTYPE svg PUBLIC "-//W3C//DTD SVG 1.1//EN"
 "http://www.w3.org/Graphics/SVG/1.1/DTD/svg11.dtd">
<!-- Generated by graphviz version 2.47.3 (20210619.1520)
 -->
<!-- Title: G Pages: 1 -->
<svg width="7814pt" height="4775pt"
 viewBox="0.00 0.00 7814.00 4775.00" xmlns="http://www.w3.org/2000/svg" xmlns:xlink="http://www.w3.org/1999/xlink">
<g id="graph0" class="graph" transform="scale(1 1) rotate(0) translate(4 4771)">
<title>G</title>
<polygon fill="white" stroke="transparent" points="-4,4 -4,-4771 7810,-4771 7810,4 -4,4"/>
<!-- Entity3 -->
<g id="node1" class="node entity">
<title>Entity3</title>
<ellipse fill="none" stroke="black" cx="5218.93" cy="-2817.49" rx="27" ry="18"/>
<text text-anchor="start" x="5211.43" y="-2813.79" font-family="Times New Roman,serif" font-size="14.00">jfk</text>
</g>
<!-- Entity22 -->
<g id="node2" class="node entity">
<title>Entity22</title>
<ellipse fill="none" stroke="black" cx="4761.11" cy="-2788.42" rx="27" ry="18"/>
<text text-anchor="start" x="4753.11" y="-2784.72" font-family="Times New Roman,serif" font-size="14.00">cia</text>
</g>
<!-- Entity3&#45;&gt;Entity22 -->
<g id="edge1" class="edge verb">
<title>Entity3&#45;&gt;Entity22</title>
<path fill="none" stroke="black" d="M5192,-2815.78C5114,-2810.82 4887.77,-2796.46 4798.23,-2790.78"/>
<polygon fill="black" stroke="black" points="4798.21,-2787.27 4788.01,-2790.13 4797.77,-2794.26 4798.21,-2787.27"/>
<text text-anchor="start" x="4891.12" y="-2807.08" font-family="Times New Roman,serif" font-size="14.00">heads (1961&#45;1963)</text>
</g>
<!-- Entity66 -->
<g id="node20" class="node entity">
<title>Entity66</title>
<ellipse fill="none" stroke="black" cx="5706.47" cy="-2851.67" rx="31.4" ry="18"/>
<text text-anchor="start" x="5690.47" y="-2847.97" font-family="Times New Roman,serif" font-size="14.00">potus</text>
</g>
<!-- Entity3&#45;&gt;Entity66 -->
<g id="edge23" class="edge verb">
<title>Entity3&#45;&gt;Entity66</title>
<path fill="none" stroke="black" d="M5245.84,-2819.37C5326.73,-2825.04 5568.13,-2841.97 5665.29,-2848.78"/>
<polygon fill="black" stroke="black" points="5665.1,-2852.27 5675.32,-2849.48 5665.59,-2845.29 5665.1,-2852.27"/>
<text text-anchor="start" x="5368.56" y="-2837.88" font-family="Times New Roman,serif" font-size="14.00">isa (1961&#45;1963)</text>
</g>
<!-- Entity67 -->
<g id="node25" class="node entity">
<title>Entity67</title>
<ellipse fill="none" stroke="black" cx="3995.62" cy="-2938.99" rx="77.19" ry="18"/>
<text text-anchor="start" x="3944.12" y="-2935.29" font-family="Times New Roman,serif" font-size="14.00">psi&#45;consciousness</text>
</g>
<!-- Entity22&#45;&gt;Entity67 -->
<g id="edge43" class="edge verb">
<title>Entity22&#45;&gt;Entity67</title>
<path fill="none" stroke="black" d="M4735.2,-2793.52C4629.36,-2814.34 4227.71,-2893.34 4064.84,-2925.38"/>
<polygon fill="black" stroke="black" points="4064.07,-2921.96 4054.93,-2927.33 4065.42,-2928.83 4064.07,-2921.96"/>
<text text-anchor="start" x="4336.02" y="-2863.25" font-family="Times New Roman,serif" font-size="14.00">investigates</text>
</g>
<!-- Entity90 -->
<g id="node52" class="node entity">
<title>Entity90</title>
<ellipse fill="none" stroke="black" cx="4986.82" cy="-3000.37" rx="27" ry="18"/>
<text text-anchor="start" x="4977.32" y="-2996.67" font-family="Times New Roman,serif" font-size="14.00">ufo</text>
</g>
<!-- Entity22&#45;&gt;Entity90 -->
<g id="edge62" class="edge verb">
<title>Entity22&#45;&gt;Entity90</title>
<path fill="none" stroke="black" d="M4776.98,-2803.33C4816.16,-2840.11 4917.6,-2935.37 4963.57,-2978.53"/>
<polygon fill="black" stroke="black" points="4961.28,-2981.19 4970.97,-2985.48 4966.07,-2976.08 4961.28,-2981.19"/>
<text text-anchor="start" x="4806.28" y="-2894.73" font-family="Times New Roman,serif" font-size="14.00">investigates</text>
</g>
<!-- Entity14 -->
<g id="node3" class="node entity">
<title>Entity14</title>
<ellipse fill="none" stroke="black" cx="2429.61" cy="-2338.53" rx="74.99" ry="18"/>
<text text-anchor="start" x="2380.11" y="-2334.83" font-family="Times New Roman,serif" font-size="14.00">gene roddenberry</text>
</g>
<!-- Entity8 -->
<g id="node4" class="node entity">
<title>Entity8</title>
<ellipse fill="none" stroke="black" cx="2826.6" cy="-2662.87" rx="38.19" ry="18"/>
<text text-anchor="start" x="2805.1" y="-2659.17" font-family="Times New Roman,serif" font-size="14.00">the nine</text>
</g>
<!-- Entity14&#45;&gt;Entity8 -->
<g id="edge2" class="edge verb">
<title>Entity14&#45;&gt;Entity8</title>
<path fill="none" stroke="black" d="M2450.95,-2355.97C2517.94,-2410.7 2724.03,-2579.07 2798.98,-2640.3"/>
<polygon fill="black" stroke="black" points="2797.09,-2643.28 2807.04,-2646.89 2801.51,-2637.85 2797.09,-2643.28"/>
<text text-anchor="start" x="2520.96" y="-2501.93" font-family="Times New Roman,serif" font-size="14.00">claiemd to channel</text>
</g>
<!-- Entity70 -->
<g id="node23" class="node entity">
<title>Entity70</title>
<ellipse fill="none" stroke="black" cx="2774.99" cy="-2554.83" rx="94.48" ry="18"/>
<text text-anchor="start" x="2710.49" y="-2551.13" font-family="Times New Roman,serif" font-size="14.00">egyptian gods in a ship</text>
</g>
<!-- Entity8&#45;&gt;Entity70 -->
<g id="edge16" class="edge verb">
<title>Entity8&#45;&gt;Entity70</title>
<path fill="none" stroke="black" d="M2818.07,-2645.02C2809.9,-2627.93 2797.46,-2601.87 2788.04,-2582.16"/>
<polygon fill="black" stroke="black" points="2791.16,-2580.57 2783.69,-2573.05 2784.85,-2583.59 2791.16,-2580.57"/>
<text text-anchor="start" x="2699.06" y="-2617.39" font-family="Times New Roman,serif" font-size="14.00">claimed to channel</text>
</g>
<!-- Entity16 -->
<g id="node5" class="node entity">
<title>Entity16</title>
<ellipse fill="none" stroke="black" cx="6106.45" cy="-3206.03" rx="68.49" ry="18"/>
<text text-anchor="start" x="6061.95" y="-3202.33" font-family="Times New Roman,serif" font-size="14.00">george hw bush</text>
</g>
<!-- Entity20 -->
<g id="node6" class="node entity">
<title>Entity20</title>
<ellipse fill="none" stroke="black" cx="6092.82" cy="-3098.03" rx="63.89" ry="18"/>
<text text-anchor="start" x="6051.82" y="-3094.33" font-family="Times New Roman,serif" font-size="14.00">george w bush</text>
</g>
<!-- Entity16&#45;&gt;Entity20 -->
<g id="edge3" class="edge verb">
<title>Entity16&#45;&gt;Entity20</title>
<path fill="none" stroke="black" d="M6104.14,-3187.71C6102.01,-3170.85 6098.83,-3145.59 6096.38,-3126.17"/>
<polygon fill="black" stroke="black" points="6099.83,-3125.56 6095.1,-3116.08 6092.88,-3126.44 6099.83,-3125.56"/>
<text text-anchor="start" x="6068.26" y="-3160.74" font-family="Times New Roman,serif" font-size="14.00">father</text>
</g>
<!-- Entity16&#45;&gt;Entity66 -->
<g id="edge20" class="edge verb">
<title>Entity16&#45;&gt;Entity66</title>
<path fill="none" stroke="black" d="M6086.89,-3188.7C6020.74,-3130.09 5805.45,-2939.35 5731.6,-2873.93"/>
<polygon fill="black" stroke="black" points="5733.51,-2870.95 5723.71,-2866.94 5728.87,-2876.19 5733.51,-2870.95"/>
<text text-anchor="start" x="5893.25" y="-3035.11" font-family="Times New Roman,serif" font-size="14.00">isa</text>
</g>
<!-- Entity20&#45;&gt;Entity66 -->
<g id="edge42" class="edge verb">
<title>Entity20&#45;&gt;Entity66</title>
<path fill="none" stroke="black" d="M6066.87,-3081.48C5997.76,-3037.41 5809.48,-2917.35 5736.21,-2870.63"/>
<polygon fill="black" stroke="black" points="5737.77,-2867.47 5727.46,-2865.05 5734.01,-2873.38 5737.77,-2867.47"/>
<text text-anchor="start" x="5885.54" y="-2979.86" font-family="Times New Roman,serif" font-size="14.00">isa</text>
</g>
<!-- Entity2 -->
<g id="node7" class="node entity">
<title>Entity2</title>
<ellipse fill="none" stroke="black" cx="2859.26" cy="-2969.28" rx="41.69" ry="18"/>
<text text-anchor="start" x="2835.26" y="-2965.58" font-family="Times New Roman,serif" font-size="14.00">uri geller</text>
</g>
<!-- Entity2&#45;&gt;Entity8 -->
<g id="edge4" class="edge verb">
<title>Entity2&#45;&gt;Entity8</title>
<path fill="none" stroke="black" d="M2857.32,-2951.03C2851.84,-2899.61 2836.24,-2753.3 2829.62,-2691.25"/>
<polygon fill="black" stroke="black" points="2833.07,-2690.59 2828.53,-2681.02 2826.11,-2691.33 2833.07,-2690.59"/>
<text text-anchor="start" x="2739.47" y="-2824.94" font-family="Times New Roman,serif" font-size="14.00">claiemd to channel</text>
</g>
<!-- Entity26 -->
<g id="node8" class="node entity">
<title>Entity26</title>
<ellipse fill="none" stroke="black" cx="1083.61" cy="-4505.78" rx="49.29" ry="18"/>
<text text-anchor="start" x="1053.61" y="-4502.08" font-family="Times New Roman,serif" font-size="14.00">adolf hitler</text>
</g>
<!-- Entity28 -->
<g id="node9" class="node entity">
<title>Entity28</title>
<ellipse fill="none" stroke="black" cx="1320.68" cy="-4185.02" rx="32.49" ry="18"/>
<text text-anchor="start" x="1303.68" y="-4181.32" font-family="Times New Roman,serif" font-size="14.00">nsdap</text>
</g>
<!-- Entity26&#45;&gt;Entity28 -->
<g id="edge5" class="edge verb">
<title>Entity26&#45;&gt;Entity28</title>
<path fill="none" stroke="black" d="M1096.69,-4488.08C1136.47,-4434.27 1256.02,-4272.5 1302.2,-4210.03"/>
<polygon fill="black" stroke="black" points="1305.08,-4212.01 1308.21,-4201.89 1299.45,-4207.85 1305.08,-4212.01"/>
<text text-anchor="start" x="1158.45" y="-4352.85" font-family="Times New Roman,serif" font-size="14.00">created</text>
</g>
<!-- Entity75 -->
<g id="node31" class="node entity">
<title>Entity75</title>
<ellipse fill="none" stroke="black" cx="893.13" cy="-4345.5" rx="38.99" ry="18"/>
<text text-anchor="start" x="871.13" y="-4341.8" font-family="Times New Roman,serif" font-size="14.00">far right</text>
</g>
<!-- Entity28&#45;&gt;Entity75 -->
<g id="edge29" class="edge verb">
<title>Entity28&#45;&gt;Entity75</title>
<path fill="none" stroke="black" d="M1293.61,-4195.18C1220.52,-4222.61 1018.92,-4298.28 932.88,-4330.58"/>
<polygon fill="black" stroke="black" points="931.6,-4327.32 923.47,-4334.11 934.06,-4333.88 931.6,-4327.32"/>
<text text-anchor="start" x="1052.25" y="-4266.68" font-family="Times New Roman,serif" font-size="14.00">member of</text>
</g>
<!-- Entity15 -->
<g id="node10" class="node entity">
<title>Entity15</title>
<ellipse fill="none" stroke="black" cx="5941.95" cy="-2323.58" rx="59.59" ry="18"/>
<text text-anchor="start" x="5903.95" y="-2319.88" font-family="Times New Roman,serif" font-size="14.00">donald trump</text>
</g>
<!-- Entity48 -->
<g id="node11" class="node entity">
<title>Entity48</title>
<ellipse fill="none" stroke="black" cx="5263.09" cy="-2511.1" rx="50.09" ry="18"/>
<text text-anchor="start" x="5232.59" y="-2507.4" font-family="Times New Roman,serif" font-size="14.00">john trump</text>
</g>
<!-- Entity15&#45;&gt;Entity48 -->
<g id="edge6" class="edge verb">
<title>Entity15&#45;&gt;Entity48</title>
<path fill="none" stroke="black" d="M5897.67,-2335.81C5776.57,-2369.26 5440.43,-2462.12 5312.97,-2497.33"/>
<polygon fill="black" stroke="black" points="5311.79,-2494.02 5303.08,-2500.06 5313.65,-2500.77 5311.79,-2494.02"/>
<text text-anchor="start" x="5546.32" y="-2420.37" font-family="Times New Roman,serif" font-size="14.00">nephew of</text>
</g>
<!-- Entity15&#45;&gt;Entity66 -->
<g id="edge27" class="edge verb">
<title>Entity15&#45;&gt;Entity66</title>
<path fill="none" stroke="black" d="M5933.98,-2341.45C5899.17,-2419.5 5760.39,-2730.75 5718.5,-2824.69"/>
<polygon fill="black" stroke="black" points="5715.19,-2823.51 5714.32,-2834.07 5721.59,-2826.36 5715.19,-2823.51"/>
<text text-anchor="start" x="5810.24" y="-2586.87" font-family="Times New Roman,serif" font-size="14.00">isa</text>
</g>
<!-- Entity48&#45;&gt;Entity22 -->
<g id="edge10" class="edge verb">
<title>Entity48&#45;&gt;Entity22</title>
<path fill="none" stroke="black" d="M5235.74,-2526.21C5149.1,-2574.08 4881.04,-2722.17 4790.98,-2771.92"/>
<polygon fill="black" stroke="black" points="4789.16,-2768.93 4782.1,-2776.83 4792.55,-2775.05 4789.16,-2768.93"/>
<text text-anchor="start" x="4952.36" y="-2652.87" font-family="Times New Roman,serif" font-size="14.00">member of</text>
</g>
<!-- Entity82 -->
<g id="node41" class="node entity">
<title>Entity82</title>
<ellipse fill="none" stroke="black" cx="4976.16" cy="-2164.95" rx="50.89" ry="18"/>
<text text-anchor="start" x="4945.16" y="-2161.25" font-family="Times New Roman,serif" font-size="14.00">nikola tesla</text>
</g>
<!-- Entity48&#45;&gt;Entity82 -->
<g id="edge40" class="edge verb">
<title>Entity48&#45;&gt;Entity82</title>
<path fill="none" stroke="black" d="M5248.47,-2493.46C5201.27,-2436.52 5052.82,-2257.43 4997.35,-2190.51"/>
<polygon fill="black" stroke="black" points="4999.83,-2188.02 4990.76,-2182.56 4994.44,-2192.49 4999.83,-2188.02"/>
<text text-anchor="start" x="5081.91" y="-2345.79" font-family="Times New Roman,serif" font-size="14.00">studied</text>
</g>
<!-- Entity5 -->
<g id="node12" class="node entity">
<title>Entity5</title>
<ellipse fill="none" stroke="black" cx="3157.43" cy="-3105.91" rx="56.59" ry="18"/>
<text text-anchor="start" x="3121.93" y="-3102.21" font-family="Times New Roman,serif" font-size="14.00">arthur young</text>
</g>
<!-- Entity5&#45;&gt;Entity8 -->
<g id="edge7" class="edge verb">
<title>Entity5&#45;&gt;Entity8</title>
<path fill="none" stroke="black" d="M3144.26,-3088.27C3092.89,-3019.48 2905.9,-2769.07 2845.53,-2688.22"/>
<polygon fill="black" stroke="black" points="2848.24,-2685.99 2839.45,-2680.08 2842.63,-2690.18 2848.24,-2685.99"/>
<text text-anchor="start" x="2932.89" y="-2892.04" font-family="Times New Roman,serif" font-size="14.00">member&#45;of</text>
</g>
<!-- Entity5&#45;&gt;Entity67 -->
<g id="edge18" class="edge verb">
<title>Entity5&#45;&gt;Entity67</title>
<path fill="none" stroke="black" d="M3205.5,-3096.33C3346.91,-3068.17 3761.8,-2985.55 3926.8,-2952.7"/>
<polygon fill="black" stroke="black" points="3927.71,-2956.09 3936.83,-2950.7 3926.34,-2949.22 3927.71,-2956.09"/>
<text text-anchor="start" x="3525.15" y="-3028.32" font-family="Times New Roman,serif" font-size="14.00">studied</text>
</g>
<!-- Entity72 -->
<g id="node28" class="node entity">
<title>Entity72</title>
<ellipse fill="none" stroke="black" cx="2551.57" cy="-3506.44" rx="53.89" ry="18"/>
<text text-anchor="start" x="2518.07" y="-3502.74" font-family="Times New Roman,serif" font-size="14.00">bell aviation</text>
</g>
<!-- Entity5&#45;&gt;Entity72 -->
<g id="edge24" class="edge verb">
<title>Entity5&#45;&gt;Entity72</title>
<path fill="none" stroke="black" d="M3132.55,-3122.35C3036.93,-3185.57 2693.01,-3412.93 2584.56,-3484.62"/>
<polygon fill="black" stroke="black" points="2582.4,-3481.86 2575.99,-3490.29 2586.26,-3487.7 2582.4,-3481.86"/>
<text text-anchor="start" x="2817.56" y="-3307.29" font-family="Times New Roman,serif" font-size="14.00">created</text>
</g>
<!-- Entity1 -->
<g id="node13" class="node entity">
<title>Entity1</title>
<ellipse fill="none" stroke="black" cx="2387.19" cy="-2913.37" rx="64.19" ry="18"/>
<text text-anchor="start" x="2345.69" y="-2909.67" font-family="Times New Roman,serif" font-size="14.00">andre puharich</text>
</g>
<!-- Entity1&#45;&gt;Entity2 -->
<g id="edge8" class="edge verb">
<title>Entity1&#45;&gt;Entity2</title>
<path fill="none" stroke="black" d="M2446.5,-2920.39C2540.23,-2931.5 2720.97,-2952.9 2808.84,-2963.3"/>
<polygon fill="black" stroke="black" points="2808.48,-2966.79 2818.83,-2964.49 2809.31,-2959.83 2808.48,-2966.79"/>
<text text-anchor="start" x="2567.67" y="-2945.65" font-family="Times New Roman,serif" font-size="14.00">sponsored</text>
</g>
<!-- Entity7 -->
<g id="node14" class="node entity">
<title>Entity7</title>
<ellipse fill="none" stroke="black" cx="3383.47" cy="-2996.65" rx="68.49" ry="18"/>
<text text-anchor="start" x="3338.97" y="-2992.95" font-family="Times New Roman,serif" font-size="14.00">jeffrey mishlove</text>
</g>
<!-- Entity7&#45;&gt;Entity2 -->
<g id="edge9" class="edge verb">
<title>Entity7&#45;&gt;Entity2</title>
<path fill="none" stroke="black" d="M3316.28,-2993.14C3210.3,-2987.6 3006.57,-2976.97 2911.07,-2971.98"/>
<polygon fill="black" stroke="black" points="2910.96,-2968.47 2900.79,-2971.44 2910.6,-2975.46 2910.96,-2968.47"/>
<text text-anchor="start" x="3058.67" y="-2986.36" font-family="Times New Roman,serif" font-size="14.00">promoted</text>
</g>
<!-- Entity7&#45;&gt;Entity67 -->
<g id="edge19" class="edge verb">
<title>Entity7&#45;&gt;Entity67</title>
<path fill="none" stroke="black" d="M3451.44,-2994.69C3567.29,-2986.83 3802.05,-2964.78 3921.79,-2950.56"/>
<polygon fill="black" stroke="black" points="3922.44,-2954.01 3931.96,-2949.34 3921.61,-2947.06 3922.44,-2954.01"/>
<text text-anchor="start" x="3645.61" y="-2976.43" font-family="Times New Roman,serif" font-size="14.00">studied</text>
</g>
<!-- Entity7&#45;&gt;Entity67 -->
<g id="edge26" class="edge verb">
<title>Entity7&#45;&gt;Entity67</title>
<path fill="none" stroke="black" d="M3441.22,-2987.03C3549.16,-2973.65 3782.02,-2951.48 3908.9,-2942.27"/>
<polygon fill="black" stroke="black" points="3909.25,-2945.75 3918.97,-2941.55 3908.75,-2938.77 3909.25,-2945.75"/>
<text text-anchor="start" x="3611.06" y="-2953.45" font-family="Times New Roman,serif" font-size="14.00">investigates</text>
</g>
<!-- Entity30 -->
<g id="node15" class="node entity">
<title>Entity30</title>
<ellipse fill="none" stroke="black" cx="1887.19" cy="-3884.9" rx="74.99" ry="18"/>
<text text-anchor="start" x="1837.69" y="-3881.2" font-family="Times New Roman,serif" font-size="14.00">walter dornberger</text>
</g>
<!-- Entity30&#45;&gt;Entity28 -->
<g id="edge11" class="edge verb">
<title>Entity30&#45;&gt;Entity28</title>
<path fill="none" stroke="black" d="M1855.92,-3901.46C1757.39,-3953.66 1453.91,-4114.44 1353.39,-4167.69"/>
<polygon fill="black" stroke="black" points="1351.51,-4164.73 1344.31,-4172.5 1354.79,-4170.91 1351.51,-4164.73"/>
<text text-anchor="start" x="1543.66" y="-4038.38" font-family="Times New Roman,serif" font-size="14.00">member of</text>
</g>
<!-- Entity30&#45;&gt;Entity72 -->
<g id="edge35" class="edge verb">
<title>Entity30&#45;&gt;Entity72</title>
<path fill="none" stroke="black" d="M1921.69,-3868.87C2037.01,-3808.69 2407.86,-3597.45 2519.5,-3528.36"/>
<polygon fill="black" stroke="black" points="2521.65,-3531.14 2528.29,-3522.88 2517.95,-3525.2 2521.65,-3531.14"/>
<text text-anchor="start" x="2141.59" y="-3702.41" font-family="Times New Roman,serif" font-size="14.00">vice&#45;president</text>
</g>
<!-- Entity30&#45;&gt;Entity72 -->
<g id="edge49" class="edge verb">
<title>Entity30&#45;&gt;Entity72</title>
<path fill="none" stroke="black" d="M1911.43,-3867.85C2010.6,-3805.55 2385.73,-3591.63 2510.76,-3525.77"/>
<polygon fill="black" stroke="black" points="2512.43,-3528.85 2519.67,-3521.11 2509.19,-3522.65 2512.43,-3528.85"/>
<text text-anchor="start" x="2155.1" y="-3685.61" font-family="Times New Roman,serif" font-size="14.00">worked at</text>
</g>
<!-- Entity76 -->
<g id="node35" class="node entity">
<title>Entity76</title>
<ellipse fill="none" stroke="black" cx="1668.25" cy="-4478.82" rx="90.98" ry="18"/>
<text text-anchor="start" x="1606.25" y="-4475.12" font-family="Times New Roman,serif" font-size="14.00">nsdap rocket program</text>
</g>
<!-- Entity30&#45;&gt;Entity76 -->
<g id="edge36" class="edge verb">
<title>Entity30&#45;&gt;Entity76</title>
<path fill="none" stroke="black" d="M1880.51,-3903C1849.16,-3988.05 1716.42,-4348.15 1678.44,-4451.18"/>
<polygon fill="black" stroke="black" points="1675.05,-4450.27 1674.87,-4460.87 1681.62,-4452.69 1675.05,-4450.27"/>
<text text-anchor="start" x="1738.48" y="-4180.89" font-family="Times New Roman,serif" font-size="14.00">created</text>
</g>
<!-- Entity104 -->
<g id="node55" class="node entity">
<title>Entity104</title>
<ellipse fill="none" stroke="black" cx="1321.96" cy="-3754.32" rx="65.79" ry="18"/>
<text text-anchor="start" x="1279.46" y="-3750.62" font-family="Times New Roman,serif" font-size="14.00">x series aircraft</text>
</g>
<!-- Entity30&#45;&gt;Entity104 -->
<g id="edge59" class="edge verb">
<title>Entity30&#45;&gt;Entity104</title>
<path fill="none" stroke="black" d="M1833.25,-3872.44C1727.42,-3847.99 1493.25,-3793.89 1382.39,-3768.28"/>
<polygon fill="black" stroke="black" points="1382.91,-3764.81 1372.38,-3765.97 1381.34,-3771.63 1382.91,-3764.81"/>
<text text-anchor="start" x="1566.82" y="-3824.16" font-family="Times New Roman,serif" font-size="14.00">created</text>
</g>
<!-- Entity32 -->
<g id="node16" class="node entity">
<title>Entity32</title>
<ellipse fill="none" stroke="black" cx="1833.44" cy="-3992.94" rx="46.29" ry="18"/>
<text text-anchor="start" x="1805.94" y="-3989.24" font-family="Times New Roman,serif" font-size="14.00">van braun</text>
</g>
<!-- Entity32&#45;&gt;Entity30 -->
<g id="edge12" class="edge verb">
<title>Entity32&#45;&gt;Entity30</title>
<path fill="none" stroke="black" d="M1842.32,-3975.1C1850.82,-3958 1863.78,-3931.95 1873.59,-3912.23"/>
<polygon fill="black" stroke="black" points="1876.8,-3913.64 1878.12,-3903.13 1870.53,-3910.52 1876.8,-3913.64"/>
<text text-anchor="start" x="1794.95" y="-3947.47" font-family="Times New Roman,serif" font-size="14.00">worked for</text>
</g>
<!-- Entity32&#45;&gt;Entity76 -->
<g id="edge48" class="edge verb">
<title>Entity32&#45;&gt;Entity76</title>
<path fill="none" stroke="black" d="M1827.37,-4010.81C1802.45,-4084.1 1707.98,-4361.97 1677.67,-4451.12"/>
<polygon fill="black" stroke="black" points="1674.29,-4450.2 1674.38,-4460.79 1680.92,-4452.45 1674.29,-4450.2"/>
<text text-anchor="start" x="1696.52" y="-4234.76" font-family="Times New Roman,serif" font-size="14.00">worked at</text>
</g>
<!-- Entity29 -->
<g id="node17" class="node entity">
<title>Entity29</title>
<ellipse fill="none" stroke="black" cx="5608.49" cy="-3067.78" rx="37.89" ry="18"/>
<text text-anchor="start" x="5587.49" y="-3064.08" font-family="Times New Roman,serif" font-size="14.00">hunt oil</text>
</g>
<!-- Entity36 -->
<g id="node18" class="node entity">
<title>Entity36</title>
<ellipse fill="none" stroke="black" cx="5676.63" cy="-2959.7" rx="77.99" ry="18"/>
<text text-anchor="start" x="5624.63" y="-2956" font-family="Times New Roman,serif" font-size="14.00">dwight eisenhower</text>
</g>
<!-- Entity29&#45;&gt;Entity36 -->
<g id="edge13" class="edge verb">
<title>Entity29&#45;&gt;Entity36</title>
<path fill="none" stroke="black" d="M5619.44,-3050.41C5630.34,-3033.13 5647.21,-3006.37 5659.81,-2986.39"/>
<polygon fill="black" stroke="black" points="5662.89,-2988.07 5665.26,-2977.74 5656.96,-2984.33 5662.89,-2988.07"/>
<text text-anchor="start" x="5599.62" y="-3022.2" font-family="Times New Roman,serif" font-size="14.00">funded</text>
</g>
<!-- Entity36&#45;&gt;Entity66 -->
<g id="edge34" class="edge verb">
<title>Entity36&#45;&gt;Entity66</title>
<path fill="none" stroke="black" d="M5681.69,-2941.37C5686.37,-2924.43 5693.39,-2899.01 5698.77,-2879.55"/>
<polygon fill="black" stroke="black" points="5702.19,-2880.29 5701.48,-2869.72 5695.45,-2878.43 5702.19,-2880.29"/>
<text text-anchor="start" x="5671.23" y="-2914.26" font-family="Times New Roman,serif" font-size="14.00">is a</text>
</g>
<!-- Entity11 -->
<g id="node19" class="node entity">
<title>Entity11</title>
<ellipse fill="none" stroke="black" cx="6210.31" cy="-2971.04" rx="56.59" ry="18"/>
<text text-anchor="start" x="6174.81" y="-2967.34" font-family="Times New Roman,serif" font-size="14.00">harry truman</text>
</g>
<!-- Entity11&#45;&gt;Entity66 -->
<g id="edge14" class="edge verb">
<title>Entity11&#45;&gt;Entity66</title>
<path fill="none" stroke="black" d="M6164.71,-2960.24C6066.63,-2937 5837.1,-2882.62 5745.36,-2860.88"/>
<polygon fill="black" stroke="black" points="5745.92,-2857.42 5735.38,-2858.52 5744.31,-2864.23 5745.92,-2857.42"/>
<text text-anchor="start" x="5939.04" y="-2914.36" font-family="Times New Roman,serif" font-size="14.00">isa</text>
</g>
<!-- Entity69 -->
<g id="node24" class="node entity">
<title>Entity69</title>
<ellipse fill="none" stroke="black" cx="6692.06" cy="-3192.56" rx="55.79" ry="18"/>
<text text-anchor="start" x="6657.06" y="-3188.86" font-family="Times New Roman,serif" font-size="14.00">freemasonry</text>
</g>
<!-- Entity11&#45;&gt;Entity69 -->
<g id="edge17" class="edge verb">
<title>Entity11&#45;&gt;Entity69</title>
<path fill="none" stroke="black" d="M6242.67,-2985.92C6327.52,-3024.94 6556.36,-3130.16 6650.62,-3173.5"/>
<polygon fill="black" stroke="black" points="6649.3,-3176.75 6659.85,-3177.74 6652.22,-3170.39 6649.3,-3176.75"/>
<text text-anchor="start" x="6385.65" y="-3083.51" font-family="Times New Roman,serif" font-size="14.00">member of</text>
</g>
<!-- Entity63 -->
<g id="node21" class="node entity">
<title>Entity63</title>
<ellipse fill="none" stroke="black" cx="5894.23" cy="-4000.54" rx="53.89" ry="18"/>
<text text-anchor="start" x="5860.73" y="-3996.84" font-family="Times New Roman,serif" font-size="14.00">edgar casey</text>
</g>
<!-- Entity59 -->
<g id="node22" class="node entity">
<title>Entity59</title>
<ellipse fill="none" stroke="black" cx="5718.16" cy="-3456.62" rx="71.49" ry="18"/>
<text text-anchor="start" x="5671.16" y="-3452.92" font-family="Times New Roman,serif" font-size="14.00">woodrow wilson</text>
</g>
<!-- Entity63&#45;&gt;Entity59 -->
<g id="edge15" class="edge verb">
<title>Entity63&#45;&gt;Entity59</title>
<path fill="none" stroke="black" d="M5888.37,-3982.45C5862.52,-3902.59 5758.56,-3581.42 5727.17,-3484.47"/>
<polygon fill="black" stroke="black" points="5730.45,-3483.23 5724.04,-3474.79 5723.79,-3485.38 5730.45,-3483.23"/>
<text text-anchor="start" x="5765.77" y="-3737.26" font-family="Times New Roman,serif" font-size="14.00">advises</text>
</g>
<!-- Entity59&#45;&gt;Entity66 -->
<g id="edge30" class="edge verb">
<title>Entity59&#45;&gt;Entity66</title>
<path fill="none" stroke="black" d="M5717.81,-3438.52C5716.15,-3352.5 5709.05,-2984.97 5707.01,-2879.85"/>
<polygon fill="black" stroke="black" points="5710.51,-2879.63 5706.82,-2869.7 5703.51,-2879.77 5710.51,-2879.63"/>
<text text-anchor="start" x="5696.41" y="-3162.98" font-family="Times New Roman,serif" font-size="14.00">isa</text>
</g>
<!-- Entity92 -->
<g id="node50" class="node entity">
<title>Entity92</title>
<ellipse fill="none" stroke="black" cx="5702.39" cy="-3564.6" rx="71.49" ry="18"/>
<text text-anchor="start" x="5655.39" y="-3560.9" font-family="Times New Roman,serif" font-size="14.00">leauge of nations</text>
</g>
<!-- Entity59&#45;&gt;Entity92 -->
<g id="edge54" class="edge verb">
<title>Entity59&#45;&gt;Entity92</title>
<path fill="none" stroke="black" d="M5715.49,-3474.94C5713.03,-3491.79 5709.34,-3517.04 5706.5,-3536.46"/>
<polygon fill="black" stroke="black" points="5703.01,-3536.15 5705.03,-3546.55 5709.94,-3537.16 5703.01,-3536.15"/>
<text text-anchor="start" x="5669.99" y="-3509.5" font-family="Times New Roman,serif" font-size="14.00">created</text>
</g>
<!-- Entity18 -->
<g id="node26" class="node entity">
<title>Entity18</title>
<ellipse fill="none" stroke="black" cx="5796.37" cy="-3195.81" rx="35.19" ry="18"/>
<text text-anchor="start" x="5777.37" y="-3192.11" font-family="Times New Roman,serif" font-size="14.00">obama</text>
</g>
<!-- Entity18&#45;&gt;Entity66 -->
<g id="edge21" class="edge verb">
<title>Entity18&#45;&gt;Entity66</title>
<path fill="none" stroke="black" d="M5791.66,-3177.79C5776.91,-3121.34 5731.54,-2947.64 5713.74,-2879.5"/>
<polygon fill="black" stroke="black" points="5717.04,-2878.3 5711.13,-2869.51 5710.27,-2880.07 5717.04,-2878.3"/>
<text text-anchor="start" x="5736.7" y="-3032.45" font-family="Times New Roman,serif" font-size="14.00">isa</text>
</g>
<!-- Entity12 -->
<g id="node27" class="node entity">
<title>Entity12</title>
<ellipse fill="none" stroke="black" cx="6111.74" cy="-2706.02" rx="58.49" ry="18"/>
<text text-anchor="start" x="6074.74" y="-2702.32" font-family="Times New Roman,serif" font-size="14.00">richard nixon</text>
</g>
<!-- Entity12&#45;&gt;Entity66 -->
<g id="edge22" class="edge verb">
<title>Entity12&#45;&gt;Entity66</title>
<path fill="none" stroke="black" d="M6073.61,-2719.72C5995.63,-2747.74 5818.87,-2811.27 5742.61,-2838.68"/>
<polygon fill="black" stroke="black" points="5741.19,-2835.47 5732.96,-2842.15 5743.55,-2842.06 5741.19,-2835.47"/>
<text text-anchor="start" x="5892.11" y="-2783" font-family="Times New Roman,serif" font-size="14.00">isa</text>
</g>
<!-- Entity24 -->
<g id="node29" class="node entity">
<title>Entity24</title>
<ellipse fill="none" stroke="black" cx="3522.14" cy="-3104.64" rx="63.89" ry="18"/>
<text text-anchor="start" x="3481.14" y="-3100.94" font-family="Times New Roman,serif" font-size="14.00">robert bigelow</text>
</g>
<!-- Entity24&#45;&gt;Entity7 -->
<g id="edge25" class="edge verb">
<title>Entity24&#45;&gt;Entity7</title>
<path fill="none" stroke="black" d="M3500.17,-3087.53C3476.87,-3069.39 3439.92,-3040.61 3413.85,-3020.31"/>
<polygon fill="black" stroke="black" points="3415.84,-3017.42 3405.8,-3014.04 3411.54,-3022.94 3415.84,-3017.42"/>
<text text-anchor="start" x="3425.01" y="-3057.72" font-family="Times New Roman,serif" font-size="14.00">funds</text>
</g>
<!-- Entity24&#45;&gt;Entity67 -->
<g id="edge45" class="edge verb">
<title>Entity24&#45;&gt;Entity67</title>
<path fill="none" stroke="black" d="M3562.51,-3090.52C3648.12,-3060.57 3847.87,-2990.68 3943.19,-2957.34"/>
<polygon fill="black" stroke="black" points="3944.35,-2960.64 3952.63,-2954.03 3942.04,-2954.03 3944.35,-2960.64"/>
<text text-anchor="start" x="3688.85" y="-3027.73" font-family="Times New Roman,serif" font-size="14.00">investigates</text>
</g>
<!-- Entity44 -->
<g id="node30" class="node entity">
<title>Entity44</title>
<ellipse fill="none" stroke="black" cx="6550.18" cy="-1817.52" rx="58.49" ry="18"/>
<text text-anchor="start" x="6513.18" y="-1813.82" font-family="Times New Roman,serif" font-size="14.00">steve bannon</text>
</g>
<!-- Entity44&#45;&gt;Entity15 -->
<g id="edge28" class="edge verb">
<title>Entity44&#45;&gt;Entity15</title>
<path fill="none" stroke="black" d="M6526.05,-1834.01C6428.57,-1908.28 6064.85,-2210.81 5966.53,-2299.26"/>
<polygon fill="black" stroke="black" points="5963.94,-2296.88 5958.88,-2306.2 5968.64,-2302.07 5963.94,-2296.88"/>
<text text-anchor="start" x="6191.29" y="-2070.43" font-family="Times New Roman,serif" font-size="14.00">promoted</text>
</g>
<!-- Entity44&#45;&gt;Entity15 -->
<g id="edge64" class="edge verb">
<title>Entity44&#45;&gt;Entity15</title>
<path fill="none" stroke="black" d="M6533.26,-1834.88C6450.18,-1911.04 6085.69,-2214.58 5974.33,-2300.74"/>
<polygon fill="black" stroke="black" points="5971.95,-2298.16 5966.15,-2307.02 5976.22,-2303.71 5971.95,-2298.16"/>
<text text-anchor="start" x="6253.8" y="-2071.61" font-family="Times New Roman,serif" font-size="14.00">advises</text>
</g>
<!-- Entity83 -->
<g id="node40" class="node entity">
<title>Entity83</title>
<ellipse fill="none" stroke="black" cx="7166.77" cy="-1822.67" rx="61.99" ry="18"/>
<text text-anchor="start" x="7127.27" y="-1818.97" font-family="Times New Roman,serif" font-size="14.00">breitbart news</text>
</g>
<!-- Entity44&#45;&gt;Entity83 -->
<g id="edge46" class="edge verb">
<title>Entity44&#45;&gt;Entity83</title>
<path fill="none" stroke="black" d="M6608.75,-1818.01C6722.19,-1818.95 6971.57,-1821.04 7094.86,-1822.07"/>
<polygon fill="black" stroke="black" points="7094.93,-1825.57 7104.96,-1822.15 7094.99,-1818.57 7094.93,-1825.57"/>
<text text-anchor="start" x="6810.8" y="-1823.84" font-family="Times New Roman,serif" font-size="14.00">created</text>
</g>
<!-- Entity89 -->
<g id="node49" class="node entity">
<title>Entity89</title>
<ellipse fill="none" stroke="black" cx="6585.54" cy="-1370.55" rx="35.19" ry="18"/>
<text text-anchor="start" x="6566.54" y="-1366.85" font-family="Times New Roman,serif" font-size="14.00">gurgev</text>
</g>
<!-- Entity44&#45;&gt;Entity89 -->
<g id="edge53" class="edge verb">
<title>Entity44&#45;&gt;Entity89</title>
<path fill="none" stroke="black" d="M6551.61,-1799.44C6557.07,-1730.44 6576.62,-1483.29 6583.29,-1398.97"/>
<polygon fill="black" stroke="black" points="6586.79,-1399.1 6584.09,-1388.85 6579.81,-1398.54 6586.79,-1399.1"/>
<text text-anchor="start" x="6526.45" y="-1603.01" font-family="Times New Roman,serif" font-size="14.00">studied</text>
</g>
<!-- Entity91 -->
<g id="node51" class="node entity">
<title>Entity91</title>
<ellipse fill="none" stroke="black" cx="6805.83" cy="-1412.44" rx="38.19" ry="18"/>
<text text-anchor="start" x="6784.33" y="-1408.74" font-family="Times New Roman,serif" font-size="14.00">us navy</text>
</g>
<!-- Entity44&#45;&gt;Entity91 -->
<g id="edge55" class="edge verb">
<title>Entity44&#45;&gt;Entity91</title>
<path fill="none" stroke="black" d="M6561.5,-1799.59C6602.26,-1735 6741.72,-1514.02 6789.57,-1438.21"/>
<polygon fill="black" stroke="black" points="6792.56,-1440.03 6794.94,-1429.71 6786.64,-1436.29 6792.56,-1440.03"/>
<text text-anchor="start" x="6614.53" y="-1622.7" font-family="Times New Roman,serif" font-size="14.00">member of</text>
</g>
<!-- Entity94 -->
<g id="node53" class="node entity">
<title>Entity94</title>
<ellipse fill="none" stroke="black" cx="6978.71" cy="-1520.38" rx="53.09" ry="18"/>
<text text-anchor="start" x="6945.71" y="-1516.68" font-family="Times New Roman,serif" font-size="14.00">biosphere 2</text>
</g>
<!-- Entity44&#45;&gt;Entity94 -->
<g id="edge57" class="edge verb">
<title>Entity44&#45;&gt;Entity94</title>
<path fill="none" stroke="black" d="M6574.14,-1800.9C6646.76,-1750.55 6864.46,-1599.6 6946.74,-1542.55"/>
<polygon fill="black" stroke="black" points="6948.96,-1545.27 6955.18,-1536.69 6944.97,-1539.52 6948.96,-1545.27"/>
<text text-anchor="start" x="6719.44" y="-1675.53" font-family="Times New Roman,serif" font-size="14.00">created</text>
</g>
<!-- Entity107 -->
<g id="node58" class="node entity">
<title>Entity107</title>
<ellipse fill="none" stroke="black" cx="6558.38" cy="-1709.44" rx="77.19" ry="18"/>
<text text-anchor="start" x="6506.88" y="-1705.74" font-family="Times New Roman,serif" font-size="14.00">hollywood movies</text>
</g>
<!-- Entity44&#45;&gt;Entity107 -->
<g id="edge61" class="edge verb">
<title>Entity44&#45;&gt;Entity107</title>
<path fill="none" stroke="black" d="M6551.57,-1799.18C6552.85,-1782.31 6554.77,-1757.04 6556.25,-1737.61"/>
<polygon fill="black" stroke="black" points="6559.75,-1737.74 6557.01,-1727.5 6552.77,-1737.21 6559.75,-1737.74"/>
<text text-anchor="start" x="6498.91" y="-1772.19" font-family="Times New Roman,serif" font-size="14.00">produced</text>
</g>
<!-- Entity111 -->
<g id="node59" class="node entity">
<title>Entity111</title>
<ellipse fill="none" stroke="black" cx="7084.01" cy="-1672.03" rx="64.99" ry="18"/>
<text text-anchor="start" x="7042.01" y="-1668.33" font-family="Times New Roman,serif" font-size="14.00">goldman sachs</text>
</g>
<!-- Entity44&#45;&gt;Entity111 -->
<g id="edge66" class="edge verb">
<title>Entity44&#45;&gt;Entity111</title>
<path fill="none" stroke="black" d="M6594.32,-1805.49C6690.88,-1779.17 6920.74,-1716.53 7027.6,-1687.41"/>
<polygon fill="black" stroke="black" points="7028.82,-1690.7 7037.54,-1684.69 7026.98,-1683.95 7028.82,-1690.7"/>
<text text-anchor="start" x="6747.96" y="-1750.25" font-family="Times New Roman,serif" font-size="14.00">worked for</text>
</g>
<!-- Entity33 -->
<g id="node32" class="node entity">
<title>Entity33</title>
<ellipse fill="none" stroke="black" cx="2344.18" cy="-3925.1" rx="57.69" ry="18"/>
<text text-anchor="start" x="2307.68" y="-3921.4" font-family="Times New Roman,serif" font-size="14.00">michael pane</text>
</g>
<!-- Entity33&#45;&gt;Entity30 -->
<g id="edge47" class="edge verb">
<title>Entity33&#45;&gt;Entity30</title>
<path fill="none" stroke="black" d="M2288.15,-3920.17C2207.86,-3913.11 2059.64,-3900.07 1967.65,-3891.98"/>
<polygon fill="black" stroke="black" points="1967.81,-3888.48 1957.54,-3891.09 1967.2,-3895.45 1967.81,-3888.48"/>
<text text-anchor="start" x="2064.9" y="-3909.87" font-family="Times New Roman,serif" font-size="14.00">worked for</text>
</g>
<!-- Entity33&#45;&gt;Entity72 -->
<g id="edge31" class="edge verb">
<title>Entity33&#45;&gt;Entity72</title>
<path fill="none" stroke="black" d="M2353.09,-3907.11C2385.73,-3841.22 2498.88,-3612.79 2538.08,-3533.67"/>
<polygon fill="black" stroke="black" points="2541.39,-3534.87 2542.69,-3524.36 2535.11,-3531.76 2541.39,-3534.87"/>
<text text-anchor="start" x="2389.59" y="-3724.19" font-family="Times New Roman,serif" font-size="14.00">worked at</text>
</g>
<!-- Entity45 -->
<g id="node33" class="node entity">
<title>Entity45</title>
<ellipse fill="none" stroke="black" cx="5559.68" cy="-2215.78" rx="67.69" ry="18"/>
<text text-anchor="start" x="5515.68" y="-2212.08" font-family="Times New Roman,serif" font-size="14.00">abraham lincoln</text>
</g>
<!-- Entity45&#45;&gt;Entity66 -->
<g id="edge32" class="edge verb">
<title>Entity45&#45;&gt;Entity66</title>
<path fill="none" stroke="black" d="M5563.84,-2233.78C5584.38,-2322.78 5675.09,-2715.72 5700.08,-2823.97"/>
<polygon fill="black" stroke="black" points="5696.69,-2824.86 5702.35,-2833.82 5703.51,-2823.29 5696.69,-2824.86"/>
<text text-anchor="start" x="5615.96" y="-2532.68" font-family="Times New Roman,serif" font-size="14.00">isa</text>
</g>
<!-- Entity38 -->
<g id="node34" class="node entity">
<title>Entity38</title>
<ellipse fill="none" stroke="black" cx="5501.57" cy="-1386.53" rx="90.98" ry="18"/>
<text text-anchor="start" x="5439.57" y="-1382.83" font-family="Times New Roman,serif" font-size="14.00">emma hardinge&#45;britten</text>
</g>
<!-- Entity38&#45;&gt;Entity45 -->
<g id="edge33" class="edge verb">
<title>Entity38&#45;&gt;Entity45</title>
<path fill="none" stroke="black" d="M5502.83,-1404.62C5510.3,-1511.17 5548.53,-2056.68 5557.7,-2187.54"/>
<polygon fill="black" stroke="black" points="5554.21,-2187.84 5558.4,-2197.57 5561.19,-2187.35 5554.21,-2187.84"/>
<text text-anchor="start" x="5431.27" y="-1799.88" font-family="Times New Roman,serif" font-size="14.00">spokesperson for</text>
</g>
<!-- Entity79 -->
<g id="node38" class="node entity">
<title>Entity79</title>
<ellipse fill="none" stroke="black" cx="5779.04" cy="-903.74" rx="39.79" ry="18"/>
<text text-anchor="start" x="5756.54" y="-900.04" font-family="Times New Roman,serif" font-size="14.00">medium</text>
</g>
<!-- Entity38&#45;&gt;Entity79 -->
<g id="edge38" class="edge verb">
<title>Entity38&#45;&gt;Entity79</title>
<path fill="none" stroke="black" d="M5511.94,-1368.48C5554.23,-1294.9 5713.76,-1017.31 5763.88,-930.11"/>
<polygon fill="black" stroke="black" points="5766.96,-931.77 5768.91,-921.36 5760.89,-928.29 5766.96,-931.77"/>
<text text-anchor="start" x="5621.91" y="-1153.1" font-family="Times New Roman,serif" font-size="14.00">isa</text>
</g>
<!-- Entity86 -->
<g id="node48" class="node entity">
<title>Entity86</title>
<ellipse fill="none" stroke="black" cx="5169.72" cy="-673.55" rx="85.29" ry="18"/>
<text text-anchor="start" x="5112.22" y="-669.85" font-family="Times New Roman,serif" font-size="14.00">theosophical society</text>
</g>
<!-- Entity38&#45;&gt;Entity86 -->
<g id="edge65" class="edge verb">
<title>Entity38&#45;&gt;Entity86</title>
<path fill="none" stroke="black" d="M5493.2,-1368.54C5448.37,-1272.22 5236.63,-817.31 5182.4,-700.79"/>
<polygon fill="black" stroke="black" points="5185.46,-699.07 5178.07,-691.48 5179.11,-702.03 5185.46,-699.07"/>
<text text-anchor="start" x="5296.8" y="-1038.47" font-family="Times New Roman,serif" font-size="14.00">created</text>
</g>
<!-- Entity99 -->
<g id="node54" class="node entity">
<title>Entity99</title>
<ellipse fill="none" stroke="black" cx="5592.83" cy="-775.45" rx="55.79" ry="18"/>
<text text-anchor="start" x="5557.83" y="-771.75" font-family="Times New Roman,serif" font-size="14.00">orphic circle</text>
</g>
<!-- Entity38&#45;&gt;Entity99 -->
<g id="edge58" class="edge verb">
<title>Entity38&#45;&gt;Entity99</title>
<path fill="none" stroke="black" d="M5504.3,-1368.24C5517.29,-1281.26 5572.83,-909.34 5588.62,-803.59"/>
<polygon fill="black" stroke="black" points="5592.09,-804.07 5590.11,-793.66 5585.17,-803.04 5592.09,-804.07"/>
<text text-anchor="start" x="5485.46" y="-1089.72" font-family="Times New Roman,serif" font-size="14.00">member of</text>
</g>
<!-- Entity42 -->
<g id="node36" class="node entity">
<title>Entity42</title>
<ellipse fill="none" stroke="black" cx="3929.94" cy="-2278.66" rx="53.89" ry="18"/>
<text text-anchor="start" x="3896.44" y="-2274.96" font-family="Times New Roman,serif" font-size="14.00">black magic</text>
</g>
<!-- Entity81 -->
<g id="node37" class="node entity">
<title>Entity81</title>
<ellipse fill="none" stroke="black" cx="4017.66" cy="-2390.64" rx="28.7" ry="18"/>
<text text-anchor="start" x="4003.66" y="-2386.94" font-family="Times New Roman,serif" font-size="14.00">x left</text>
</g>
<!-- Entity42&#45;&gt;Entity81 -->
<g id="edge37" class="edge verb">
<title>Entity42&#45;&gt;Entity81</title>
<path fill="none" stroke="black" d="M3943.64,-2296.16C3958.45,-2315.05 3982.14,-2345.29 3998.72,-2366.45"/>
<polygon fill="black" stroke="black" points="3995.98,-2368.64 4004.9,-2374.36 4001.49,-2364.32 3995.98,-2368.64"/>
<text text-anchor="start" x="3910.18" y="-2335.11" font-family="Times New Roman,serif" font-size="14.00">member of</text>
</g>
<!-- Entity47 -->
<g id="node39" class="node entity">
<title>Entity47</title>
<ellipse fill="none" stroke="black" cx="7736.89" cy="-1715.51" rx="69.59" ry="18"/>
<text text-anchor="start" x="7691.39" y="-1711.81" font-family="Times New Roman,serif" font-size="14.00">andrew breitbart</text>
</g>
<!-- Entity47&#45;&gt;Entity83 -->
<g id="edge39" class="edge verb">
<title>Entity47&#45;&gt;Entity83</title>
<path fill="none" stroke="black" d="M7680.4,-1726.13C7573.07,-1746.3 7340.43,-1790.03 7228.87,-1811"/>
<polygon fill="black" stroke="black" points="7227.97,-1807.61 7218.79,-1812.89 7229.26,-1814.48 7227.97,-1807.61"/>
<text text-anchor="start" x="7413.64" y="-1772.36" font-family="Times New Roman,serif" font-size="14.00">created</text>
</g>
<!-- Entity35 -->
<g id="node42" class="node entity">
<title>Entity35</title>
<ellipse fill="none" stroke="black" cx="3915.94" cy="-1632.66" rx="39.79" ry="18"/>
<text text-anchor="start" x="3893.44" y="-1628.96" font-family="Times New Roman,serif" font-size="14.00">crowley</text>
</g>
<!-- Entity80 -->
<g id="node43" class="node entity">
<title>Entity80</title>
<ellipse fill="none" stroke="black" cx="4003.66" cy="-1744.64" rx="38.99" ry="18"/>
<text text-anchor="start" x="3981.66" y="-1740.94" font-family="Times New Roman,serif" font-size="14.00">x magic</text>
</g>
<!-- Entity35&#45;&gt;Entity80 -->
<g id="edge41" class="edge verb">
<title>Entity35&#45;&gt;Entity80</title>
<path fill="none" stroke="black" d="M3929.26,-1649.67C3943.82,-1668.25 3967.28,-1698.2 3983.96,-1719.49"/>
<polygon fill="black" stroke="black" points="3981.29,-1721.76 3990.21,-1727.47 3986.8,-1717.44 3981.29,-1721.76"/>
<text text-anchor="start" x="3895.61" y="-1688.38" font-family="Times New Roman,serif" font-size="14.00">member of</text>
</g>
<!-- Entity19 -->
<g id="node44" class="node entity">
<title>Entity19</title>
<ellipse fill="none" stroke="black" cx="5338.4" cy="-2986.8" rx="31.4" ry="18"/>
<text text-anchor="start" x="5322.4" y="-2983.1" font-family="Times New Roman,serif" font-size="14.00">carter</text>
</g>
<!-- Entity19&#45;&gt;Entity66 -->
<g id="edge44" class="edge verb">
<title>Entity19&#45;&gt;Entity66</title>
<path fill="none" stroke="black" d="M5364.87,-2977.08C5429.58,-2953.33 5595.85,-2892.28 5669.92,-2865.08"/>
<polygon fill="black" stroke="black" points="5671.56,-2868.21 5679.74,-2861.48 5669.15,-2861.64 5671.56,-2868.21"/>
<text text-anchor="start" x="5501.4" y="-2924.88" font-family="Times New Roman,serif" font-size="14.00">isa</text>
</g>
<!-- Entity19&#45;&gt;Entity90 -->
<g id="edge56" class="edge verb">
<title>Entity19&#45;&gt;Entity90</title>
<path fill="none" stroke="black" d="M5307.2,-2988C5242.46,-2990.5 5093.78,-2996.24 5024.11,-2998.93"/>
<polygon fill="black" stroke="black" points="5023.89,-2995.43 5014.03,-2999.32 5024.16,-3002.43 5023.89,-2995.43"/>
<text text-anchor="start" x="5110.66" y="-2997.27" font-family="Times New Roman,serif" font-size="14.00">witnessed</text>
</g>
<!-- Entity27 -->
<g id="node45" class="node entity">
<title>Entity27</title>
<ellipse fill="none" stroke="black" cx="36.64" cy="-4748.55" rx="36.29" ry="18"/>
<text text-anchor="start" x="16.64" y="-4744.85" font-family="Times New Roman,serif" font-size="14.00">oswald</text>
</g>
<!-- Entity34 -->
<g id="node46" class="node entity">
<title>Entity34</title>
<ellipse fill="none" stroke="black" cx="435.89" cy="-4556.91" rx="59.29" ry="18"/>
<text text-anchor="start" x="398.39" y="-4553.21" font-family="Times New Roman,serif" font-size="14.00">guy bannister</text>
</g>
<!-- Entity27&#45;&gt;Entity34 -->
<g id="edge50" class="edge verb">
<title>Entity27&#45;&gt;Entity34</title>
<path fill="none" stroke="black" d="M62.84,-4735.98C130.69,-4703.41 312.56,-4616.11 394.66,-4576.7"/>
<polygon fill="black" stroke="black" points="396.67,-4579.62 404.17,-4572.14 393.64,-4573.31 396.67,-4579.62"/>
<text text-anchor="start" x="165.75" y="-4660.14" font-family="Times New Roman,serif" font-size="14.00">worked for</text>
</g>
<!-- Entity34&#45;&gt;Entity75 -->
<g id="edge51" class="edge verb">
<title>Entity34&#45;&gt;Entity75</title>
<path fill="none" stroke="black" d="M468.78,-4541.71C551.77,-4503.33 769.29,-4402.76 856.34,-4362.51"/>
<polygon fill="black" stroke="black" points="857.96,-4365.62 865.56,-4358.24 855.02,-4359.26 857.96,-4365.62"/>
<text text-anchor="start" x="601.56" y="-4455.91" font-family="Times New Roman,serif" font-size="14.00">member of</text>
</g>
<!-- Entity64 -->
<g id="node47" class="node entity">
<title>Entity64</title>
<ellipse fill="none" stroke="black" cx="5127.3" cy="-17.88" rx="73.39" ry="18"/>
<text text-anchor="start" x="5078.8" y="-14.18" font-family="Times New Roman,serif" font-size="14.00">madam blavatsky</text>
</g>
<!-- Entity64&#45;&gt;Entity86 -->
<g id="edge52" class="edge verb">
<title>Entity64&#45;&gt;Entity86</title>
<path fill="none" stroke="black" d="M5128.48,-36.1C5134.38,-127.27 5160.69,-533.98 5167.89,-645.3"/>
<polygon fill="black" stroke="black" points="5164.41,-645.66 5168.55,-655.42 5171.4,-645.21 5164.41,-645.66"/>
<text text-anchor="start" x="5107.19" y="-344.5" font-family="Times New Roman,serif" font-size="14.00">created</text>
</g>
<!-- Entity60 -->
<g id="node56" class="node entity">
<title>Entity60</title>
<ellipse fill="none" stroke="black" cx="4705.38" cy="-921.41" rx="58.49" ry="18"/>
<text text-anchor="start" x="4668.38" y="-917.71" font-family="Times New Roman,serif" font-size="14.00">rudolf steiner</text>
</g>
<!-- Entity60&#45;&gt;Entity86 -->
<g id="edge63" class="edge verb">
<title>Entity60&#45;&gt;Entity86</title>
<path fill="none" stroke="black" d="M4734.78,-905.72C4814.96,-862.92 5037.55,-744.1 5129.35,-695.1"/>
<polygon fill="black" stroke="black" points="5131.16,-698.1 5138.33,-690.31 5127.86,-691.93 5131.16,-698.1"/>
<text text-anchor="start" x="4866.06" y="-804.21" font-family="Times New Roman,serif" font-size="14.00">memberr of</text>
</g>
<!-- Entity93 -->
<g id="node57" class="node entity">
<title>Entity93</title>
<ellipse fill="none" stroke="black" cx="4479.4" cy="-813.41" rx="102.08" ry="18"/>
<text text-anchor="start" x="4408.9" y="-809.71" font-family="Times New Roman,serif" font-size="14.00">anthroposophical society</text>
</g>
<!-- Entity60&#45;&gt;Entity93 -->
<g id="edge60" class="edge verb">
<title>Entity60&#45;&gt;Entity93</title>
<path fill="none" stroke="black" d="M4673.48,-906.16C4634.41,-887.49 4567.99,-855.75 4523.9,-834.68"/>
<polygon fill="black" stroke="black" points="4525.39,-831.51 4514.85,-830.35 4522.37,-837.82 4525.39,-831.51"/>
<text text-anchor="start" x="4557.69" y="-874.22" font-family="Times New Roman,serif" font-size="14.00">created</text>
</g>
<!-- Entity109 -->
<g id="node60" class="node entity">
<title>Entity109</title>
<ellipse fill="none" stroke="black" cx="3256.94" cy="-2278.66" rx="27" ry="18"/>
<text text-anchor="start" x="3253.44" y="-2274.96" font-family="Times New Roman,serif" font-size="14.00">s</text>
</g>
<!-- Entity112 -->
<g id="node61" class="node entity">
<title>Entity112</title>
<ellipse fill="none" stroke="black" cx="3344.66" cy="-2390.64" rx="27" ry="18"/>
<text text-anchor="start" x="3340.66" y="-2386.94" font-family="Times New Roman,serif" font-size="14.00">o</text>
</g>
<!-- Entity109&#45;&gt;Entity112 -->
<g id="edge67" class="edge verb">
<title>Entity109&#45;&gt;Entity112</title>
<path fill="none" stroke="black" d="M3269.51,-2294.7C3284.23,-2313.5 3308.76,-2344.82 3325.78,-2366.53"/>
<polygon fill="black" stroke="black" points="3323.19,-2368.91 3332.11,-2374.62 3328.7,-2364.59 3323.19,-2368.91"/>
<text text-anchor="start" x="3290.64" y="-2334.42" font-family="Times New Roman,serif" font-size="14.00">v</text>
</g>
</g>
</svg>
