<?xml version="1.0" encoding="UTF-8" standalone="no"?>
<?xml-stylesheet href="./styles.css" type="text/css"?>
<!DOCTYPE svg PUBLIC "-//W3C//DTD SVG 1.1//EN"
 "http://www.w3.org/Graphics/SVG/1.1/DTD/svg11.dtd">
<!-- Generated by graphviz version 2.47.3 (20210619.1520)
 -->
<!-- Title: G Pages: 1 -->
<svg width="7683pt" height="3259pt"
 viewBox="0.00 0.00 7683.00 3259.00" xmlns="http://www.w3.org/2000/svg" xmlns:xlink="http://www.w3.org/1999/xlink">
<g id="graph0" class="graph" transform="scale(1 1) rotate(0) translate(4 3255)">
<title>G</title>
<polygon fill="white" stroke="transparent" points="-4,4 -4,-3255 7679,-3255 7679,4 -4,4"/>
<!-- Entity3 -->
<g id="node1" class="node entity">
<title>Entity3</title>
<ellipse fill="none" stroke="black" cx="5593" cy="-1754.4" rx="64.19" ry="18"/>
<text text-anchor="start" x="5551.5" y="-1750.7" font-family="Times New Roman,serif" font-size="14.00">john f kennedy</text>
</g>
<!-- Entity22 -->
<g id="node2" class="node entity">
<title>Entity22</title>
<ellipse fill="none" stroke="black" cx="5055.69" cy="-1721.09" rx="27" ry="18"/>
<text text-anchor="start" x="5047.69" y="-1717.39" font-family="Times New Roman,serif" font-size="14.00">cia</text>
</g>
<!-- Entity3&#45;&gt;Entity22 -->
<g id="edge1" class="edge verb">
<title>Entity3&#45;&gt;Entity22</title>
<path fill="none" stroke="black" d="M5530.04,-1750.5C5417.15,-1743.5 5183.61,-1729.02 5092.88,-1723.39"/>
<polygon fill="black" stroke="black" points="5092.98,-1719.89 5082.79,-1722.77 5092.55,-1726.88 5092.98,-1719.89"/>
<text text-anchor="start" x="5207.46" y="-1725.74" font-family="Times New Roman,serif" font-size="14.00">heads (1961&#45;1963)</text>
</g>
<!-- Entity66 -->
<g id="node20" class="node entity">
<title>Entity66</title>
<ellipse fill="none" stroke="black" cx="6098.6" cy="-1952.81" rx="31.4" ry="18"/>
<text text-anchor="start" x="6082.6" y="-1949.11" font-family="Times New Roman,serif" font-size="14.00">potus</text>
</g>
<!-- Entity3&#45;&gt;Entity66 -->
<g id="edge23" class="edge verb">
<title>Entity3&#45;&gt;Entity66</title>
<path fill="none" stroke="black" d="M5630.59,-1769.15C5724.98,-1806.19 5971.03,-1902.74 6063.12,-1938.88"/>
<polygon fill="black" stroke="black" points="6061.97,-1942.19 6072.56,-1942.59 6064.53,-1935.68 6061.97,-1942.19"/>
<text text-anchor="start" x="5759.85" y="-1857.82" font-family="Times New Roman,serif" font-size="14.00">isa (1961&#45;1963)</text>
</g>
<!-- Entity67 -->
<g id="node25" class="node entity">
<title>Entity67</title>
<ellipse fill="none" stroke="black" cx="4340.2" cy="-1840.85" rx="77.19" ry="18"/>
<text text-anchor="start" x="4288.7" y="-1837.15" font-family="Times New Roman,serif" font-size="14.00">psi&#45;consciousness</text>
</g>
<!-- Entity22&#45;&gt;Entity67 -->
<g id="edge43" class="edge verb">
<title>Entity22&#45;&gt;Entity67</title>
<path fill="none" stroke="black" d="M5029.37,-1725.49C4929.15,-1742.27 4569.11,-1802.53 4413.12,-1828.64"/>
<polygon fill="black" stroke="black" points="4412.43,-1825.21 4403.14,-1830.31 4413.59,-1832.11 4412.43,-1825.21"/>
<text text-anchor="start" x="4657.25" y="-1780.87" font-family="Times New Roman,serif" font-size="14.00">investigates</text>
</g>
<!-- Entity90 -->
<g id="node52" class="node entity">
<title>Entity90</title>
<ellipse fill="none" stroke="black" cx="5319.01" cy="-1753.56" rx="27" ry="18"/>
<text text-anchor="start" x="5309.51" y="-1749.86" font-family="Times New Roman,serif" font-size="14.00">ufo</text>
</g>
<!-- Entity22&#45;&gt;Entity90 -->
<g id="edge62" class="edge verb">
<title>Entity22&#45;&gt;Entity90</title>
<path fill="none" stroke="black" d="M5082.38,-1724.38C5129.7,-1730.22 5228.34,-1742.38 5282.11,-1749.01"/>
<polygon fill="black" stroke="black" points="5281.89,-1752.51 5292.24,-1750.26 5282.75,-1745.56 5281.89,-1752.51"/>
<text text-anchor="start" x="5118.25" y="-1740.5" font-family="Times New Roman,serif" font-size="14.00">investigates</text>
</g>
<!-- Entity14 -->
<g id="node3" class="node entity">
<title>Entity14</title>
<ellipse fill="none" stroke="black" cx="2748.16" cy="-1297.52" rx="74.99" ry="18"/>
<text text-anchor="start" x="2698.66" y="-1293.82" font-family="Times New Roman,serif" font-size="14.00">gene roddenberry</text>
</g>
<!-- Entity8 -->
<g id="node4" class="node entity">
<title>Entity8</title>
<ellipse fill="none" stroke="black" cx="3147.59" cy="-1616.33" rx="38.19" ry="18"/>
<text text-anchor="start" x="3126.09" y="-1612.63" font-family="Times New Roman,serif" font-size="14.00">the nine</text>
</g>
<!-- Entity14&#45;&gt;Entity8 -->
<g id="edge2" class="edge verb">
<title>Entity14&#45;&gt;Entity8</title>
<path fill="none" stroke="black" d="M2769.92,-1314.89C2837.64,-1368.94 3044.61,-1534.13 3119.86,-1594.2"/>
<polygon fill="black" stroke="black" points="3117.96,-1597.16 3127.96,-1600.67 3122.33,-1591.69 3117.96,-1597.16"/>
<text text-anchor="start" x="2840.89" y="-1458.34" font-family="Times New Roman,serif" font-size="14.00">claiemd to channel</text>
</g>
<!-- Entity70 -->
<g id="node23" class="node entity">
<title>Entity70</title>
<ellipse fill="none" stroke="black" cx="3084.39" cy="-1508.26" rx="94.48" ry="18"/>
<text text-anchor="start" x="3019.89" y="-1504.56" font-family="Times New Roman,serif" font-size="14.00">egyptian gods in a ship</text>
</g>
<!-- Entity8&#45;&gt;Entity70 -->
<g id="edge16" class="edge verb">
<title>Entity8&#45;&gt;Entity70</title>
<path fill="none" stroke="black" d="M3137.44,-1598.97C3127.33,-1581.69 3111.68,-1554.93 3100,-1534.95"/>
<polygon fill="black" stroke="black" points="3103.01,-1533.17 3094.94,-1526.3 3096.97,-1536.7 3103.01,-1533.17"/>
<text text-anchor="start" x="3014.72" y="-1570.76" font-family="Times New Roman,serif" font-size="14.00">claimed to channel</text>
</g>
<!-- Entity16 -->
<g id="node5" class="node entity">
<title>Entity16</title>
<ellipse fill="none" stroke="black" cx="6338.86" cy="-2378.96" rx="68.49" ry="18"/>
<text text-anchor="start" x="6294.36" y="-2375.26" font-family="Times New Roman,serif" font-size="14.00">george hw bush</text>
</g>
<!-- Entity20 -->
<g id="node6" class="node entity">
<title>Entity20</title>
<ellipse fill="none" stroke="black" cx="6149.24" cy="-2486.96" rx="63.89" ry="18"/>
<text text-anchor="start" x="6108.24" y="-2483.26" font-family="Times New Roman,serif" font-size="14.00">george w bush</text>
</g>
<!-- Entity16&#45;&gt;Entity20 -->
<g id="edge3" class="edge verb">
<title>Entity16&#45;&gt;Entity20</title>
<path fill="none" stroke="black" d="M6310.06,-2395.36C6277.02,-2414.18 6222.73,-2445.1 6186.49,-2465.74"/>
<polygon fill="black" stroke="black" points="6184.65,-2462.76 6177.69,-2470.75 6188.11,-2468.85 6184.65,-2462.76"/>
<text text-anchor="start" x="6216.28" y="-2434.35" font-family="Times New Roman,serif" font-size="14.00">father</text>
</g>
<!-- Entity16&#45;&gt;Entity66 -->
<g id="edge20" class="edge verb">
<title>Entity16&#45;&gt;Entity66</title>
<path fill="none" stroke="black" d="M6328.69,-2360.92C6290.84,-2293.78 6158.02,-2058.2 6113.37,-1979"/>
<polygon fill="black" stroke="black" points="6116.33,-1977.13 6108.37,-1970.14 6110.23,-1980.57 6116.33,-1977.13"/>
<text text-anchor="start" x="6205.03" y="-2173.76" font-family="Times New Roman,serif" font-size="14.00">isa</text>
</g>
<!-- Entity20&#45;&gt;Entity66 -->
<g id="edge42" class="edge verb">
<title>Entity20&#45;&gt;Entity66</title>
<path fill="none" stroke="black" d="M6147.53,-2468.88C6140.06,-2390.18 6110.38,-2077.08 6101.27,-1981"/>
<polygon fill="black" stroke="black" points="6104.74,-1980.5 6100.31,-1970.88 6097.77,-1981.16 6104.74,-1980.5"/>
<text text-anchor="start" x="6108.4" y="-2228.74" font-family="Times New Roman,serif" font-size="14.00">isa</text>
</g>
<!-- Entity2 -->
<g id="node7" class="node entity">
<title>Entity2</title>
<ellipse fill="none" stroke="black" cx="3220.62" cy="-1974.93" rx="41.69" ry="18"/>
<text text-anchor="start" x="3196.62" y="-1971.23" font-family="Times New Roman,serif" font-size="14.00">uri geller</text>
</g>
<!-- Entity2&#45;&gt;Entity8 -->
<g id="edge4" class="edge verb">
<title>Entity2&#45;&gt;Entity8</title>
<path fill="none" stroke="black" d="M3216.89,-1956.65C3204.98,-1898.14 3167.71,-1715.15 3153.33,-1644.53"/>
<polygon fill="black" stroke="black" points="3156.73,-1643.67 3151.3,-1634.57 3149.87,-1645.07 3156.73,-1643.67"/>
<text text-anchor="start" x="3081.11" y="-1804.39" font-family="Times New Roman,serif" font-size="14.00">claiemd to channel</text>
</g>
<!-- Entity26 -->
<g id="node8" class="node entity">
<title>Entity26</title>
<ellipse fill="none" stroke="black" cx="1083.63" cy="-2590.74" rx="49.29" ry="18"/>
<text text-anchor="start" x="1053.63" y="-2587.04" font-family="Times New Roman,serif" font-size="14.00">adolf hitler</text>
</g>
<!-- Entity28 -->
<g id="node9" class="node entity">
<title>Entity28</title>
<ellipse fill="none" stroke="black" cx="1481.29" cy="-2646.68" rx="32.49" ry="18"/>
<text text-anchor="start" x="1464.29" y="-2642.98" font-family="Times New Roman,serif" font-size="14.00">nsdap</text>
</g>
<!-- Entity26&#45;&gt;Entity28 -->
<g id="edge5" class="edge verb">
<title>Entity26&#45;&gt;Entity28</title>
<path fill="none" stroke="black" d="M1130.02,-2597.26C1208.19,-2608.26 1364.93,-2630.31 1439.73,-2640.83"/>
<polygon fill="black" stroke="black" points="1439.33,-2644.31 1449.72,-2642.24 1440.31,-2637.38 1439.33,-2644.31"/>
<text text-anchor="start" x="1243.87" y="-2622.85" font-family="Times New Roman,serif" font-size="14.00">created</text>
</g>
<!-- Entity75 -->
<g id="node31" class="node entity">
<title>Entity75</title>
<ellipse fill="none" stroke="black" cx="1068.13" cy="-2843.39" rx="38.99" ry="18"/>
<text text-anchor="start" x="1046.13" y="-2839.69" font-family="Times New Roman,serif" font-size="14.00">far right</text>
</g>
<!-- Entity28&#45;&gt;Entity75 -->
<g id="edge29" class="edge verb">
<title>Entity28&#45;&gt;Entity75</title>
<path fill="none" stroke="black" d="M1456.38,-2658.54C1386.31,-2691.9 1187.29,-2786.66 1104.72,-2825.97"/>
<polygon fill="black" stroke="black" points="1103,-2822.91 1095.48,-2830.37 1106.01,-2829.23 1103,-2822.91"/>
<text text-anchor="start" x="1219.55" y="-2746.05" font-family="Times New Roman,serif" font-size="14.00">member of</text>
</g>
<!-- Entity15 -->
<g id="node10" class="node entity">
<title>Entity15</title>
<ellipse fill="none" stroke="black" cx="6288.75" cy="-1488.08" rx="59.59" ry="18"/>
<text text-anchor="start" x="6250.75" y="-1484.38" font-family="Times New Roman,serif" font-size="14.00">donald trump</text>
</g>
<!-- Entity48 -->
<g id="node11" class="node entity">
<title>Entity48</title>
<ellipse fill="none" stroke="black" cx="5595.21" cy="-1588.54" rx="50.09" ry="18"/>
<text text-anchor="start" x="5564.71" y="-1584.84" font-family="Times New Roman,serif" font-size="14.00">john trump</text>
</g>
<!-- Entity15&#45;&gt;Entity48 -->
<g id="edge6" class="edge verb">
<title>Entity15&#45;&gt;Entity48</title>
<path fill="none" stroke="black" d="M6234.62,-1495.92C6106.12,-1514.53 5783.64,-1561.25 5652.26,-1580.28"/>
<polygon fill="black" stroke="black" points="5651.41,-1576.86 5642.01,-1581.76 5652.41,-1583.79 5651.41,-1576.86"/>
<text text-anchor="start" x="5884.44" y="-1541.9" font-family="Times New Roman,serif" font-size="14.00">nephew of</text>
</g>
<!-- Entity15&#45;&gt;Entity66 -->
<g id="edge27" class="edge verb">
<title>Entity15&#45;&gt;Entity66</title>
<path fill="none" stroke="black" d="M6281.41,-1506.01C6252.26,-1577.26 6144.54,-1840.53 6109.61,-1925.9"/>
<polygon fill="black" stroke="black" points="6106.36,-1924.59 6105.81,-1935.18 6112.84,-1927.25 6106.36,-1924.59"/>
<text text-anchor="start" x="6179.51" y="-1719.75" font-family="Times New Roman,serif" font-size="14.00">isa</text>
</g>
<!-- Entity48&#45;&gt;Entity22 -->
<g id="edge10" class="edge verb">
<title>Entity48&#45;&gt;Entity22</title>
<path fill="none" stroke="black" d="M5553.77,-1598.72C5451.16,-1623.93 5186.66,-1688.91 5090.93,-1712.43"/>
<polygon fill="black" stroke="black" points="5090.03,-1709.05 5081.16,-1714.83 5091.7,-1715.84 5090.03,-1709.05"/>
<text text-anchor="start" x="5261.35" y="-1659.38" font-family="Times New Roman,serif" font-size="14.00">member of</text>
</g>
<!-- Entity82 -->
<g id="node41" class="node entity">
<title>Entity82</title>
<ellipse fill="none" stroke="black" cx="5217.67" cy="-1861.64" rx="50.89" ry="18"/>
<text text-anchor="start" x="5186.67" y="-1857.94" font-family="Times New Roman,serif" font-size="14.00">nikola tesla</text>
</g>
<!-- Entity48&#45;&gt;Entity82 -->
<g id="edge40" class="edge verb">
<title>Entity48&#45;&gt;Entity82</title>
<path fill="none" stroke="black" d="M5572.72,-1604.81C5508.2,-1651.48 5322.35,-1785.92 5248.48,-1839.36"/>
<polygon fill="black" stroke="black" points="5246.09,-1836.77 5240.04,-1845.46 5250.19,-1842.44 5246.09,-1836.77"/>
<text text-anchor="start" x="5369.6" y="-1725.88" font-family="Times New Roman,serif" font-size="14.00">studied</text>
</g>
<!-- Entity5 -->
<g id="node12" class="node entity">
<title>Entity5</title>
<ellipse fill="none" stroke="black" cx="3542.39" cy="-2015.35" rx="65.79" ry="18"/>
<text text-anchor="start" x="3499.89" y="-2011.65" font-family="Times New Roman,serif" font-size="14.00">arthur m young</text>
</g>
<!-- Entity5&#45;&gt;Entity8 -->
<g id="edge7" class="edge verb">
<title>Entity5&#45;&gt;Entity8</title>
<path fill="none" stroke="black" d="M3525.17,-1997.95C3462.17,-1934.27 3244.05,-1713.83 3171.37,-1640.36"/>
<polygon fill="black" stroke="black" points="3173.54,-1637.58 3164.02,-1632.93 3168.56,-1642.51 3173.54,-1637.58"/>
<text text-anchor="start" x="3286.27" y="-1822.96" font-family="Times New Roman,serif" font-size="14.00">member&#45;of</text>
</g>
<!-- Entity5&#45;&gt;Entity67 -->
<g id="edge18" class="edge verb">
<title>Entity5&#45;&gt;Entity67</title>
<path fill="none" stroke="black" d="M3593.81,-2004.11C3733.25,-1973.61 4118.43,-1889.35 4273.87,-1855.35"/>
<polygon fill="black" stroke="black" points="4274.75,-1858.74 4283.77,-1853.19 4273.26,-1851.91 4274.75,-1858.74"/>
<text text-anchor="start" x="3892.84" y="-1933.53" font-family="Times New Roman,serif" font-size="14.00">studied</text>
</g>
<!-- Entity72 -->
<g id="node28" class="node entity">
<title>Entity72</title>
<ellipse fill="none" stroke="black" cx="2824.66" cy="-2259.34" rx="53.89" ry="18"/>
<text text-anchor="start" x="2791.16" y="-2255.64" font-family="Times New Roman,serif" font-size="14.00">bell aviation</text>
</g>
<!-- Entity5&#45;&gt;Entity72 -->
<g id="edge24" class="edge verb">
<title>Entity5&#45;&gt;Entity72</title>
<path fill="none" stroke="black" d="M3500.96,-2029.44C3376.17,-2071.86 3004.3,-2198.27 2872.02,-2243.24"/>
<polygon fill="black" stroke="black" points="2870.89,-2239.93 2862.55,-2246.46 2873.14,-2246.55 2870.89,-2239.93"/>
<text text-anchor="start" x="3145.49" y="-2140.14" font-family="Times New Roman,serif" font-size="14.00">created</text>
</g>
<!-- Entity1 -->
<g id="node13" class="node entity">
<title>Entity1</title>
<ellipse fill="none" stroke="black" cx="3064.55" cy="-2405.61" rx="64.19" ry="18"/>
<text text-anchor="start" x="3023.05" y="-2401.91" font-family="Times New Roman,serif" font-size="14.00">andre puharich</text>
</g>
<!-- Entity1&#45;&gt;Entity2 -->
<g id="edge8" class="edge verb">
<title>Entity1&#45;&gt;Entity2</title>
<path fill="none" stroke="black" d="M3071.06,-2387.65C3095.4,-2320.48 3181.2,-2083.71 3210.62,-2002.5"/>
<polygon fill="black" stroke="black" points="3213.96,-2003.56 3214.08,-1992.96 3207.38,-2001.17 3213.96,-2003.56"/>
<text text-anchor="start" x="3080.84" y="-2198.88" font-family="Times New Roman,serif" font-size="14.00">sponsored</text>
</g>
<!-- Entity7 -->
<g id="node14" class="node entity">
<title>Entity7</title>
<ellipse fill="none" stroke="black" cx="3720.5" cy="-1907.34" rx="68.49" ry="18"/>
<text text-anchor="start" x="3676" y="-1903.64" font-family="Times New Roman,serif" font-size="14.00">jeffrey mishlove</text>
</g>
<!-- Entity7&#45;&gt;Entity2 -->
<g id="edge9" class="edge verb">
<title>Entity7&#45;&gt;Entity2</title>
<path fill="none" stroke="black" d="M3659.7,-1915.56C3559.76,-1929.08 3362.66,-1955.73 3270.42,-1968.2"/>
<polygon fill="black" stroke="black" points="3269.94,-1964.73 3260.5,-1969.54 3270.87,-1971.67 3269.94,-1964.73"/>
<text text-anchor="start" x="3410.06" y="-1945.68" font-family="Times New Roman,serif" font-size="14.00">promoted</text>
</g>
<!-- Entity7&#45;&gt;Entity67 -->
<g id="edge19" class="edge verb">
<title>Entity7&#45;&gt;Entity67</title>
<path fill="none" stroke="black" d="M3788.17,-1904.5C3905.87,-1894.98 4147.23,-1869.13 4268.01,-1853.15"/>
<polygon fill="black" stroke="black" points="4268.81,-1856.58 4278.26,-1851.78 4267.88,-1849.64 4268.81,-1856.58"/>
<text text-anchor="start" x="3987.09" y="-1882.63" font-family="Times New Roman,serif" font-size="14.00">studied</text>
</g>
<!-- Entity7&#45;&gt;Entity67 -->
<g id="edge26" class="edge verb">
<title>Entity7&#45;&gt;Entity67</title>
<path fill="none" stroke="black" d="M3776.97,-1897.16C3885.8,-1882.19 4125.15,-1856.27 4254.01,-1845.23"/>
<polygon fill="black" stroke="black" points="4254.57,-1848.7 4264.24,-1844.37 4253.98,-1841.72 4254.57,-1848.7"/>
<text text-anchor="start" x="3951.49" y="-1859.99" font-family="Times New Roman,serif" font-size="14.00">investigates</text>
</g>
<!-- Entity30 -->
<g id="node15" class="node entity">
<title>Entity30</title>
<ellipse fill="none" stroke="black" cx="2097.96" cy="-2456.52" rx="74.99" ry="18"/>
<text text-anchor="start" x="2048.46" y="-2452.82" font-family="Times New Roman,serif" font-size="14.00">walter dornberger</text>
</g>
<!-- Entity30&#45;&gt;Entity28 -->
<g id="edge11" class="edge verb">
<title>Entity30&#45;&gt;Entity28</title>
<path fill="none" stroke="black" d="M2051.86,-2470.73C1934.84,-2506.82 1627.91,-2601.47 1519.72,-2634.83"/>
<polygon fill="black" stroke="black" points="1518.4,-2631.57 1509.88,-2637.86 1520.47,-2638.26 1518.4,-2631.57"/>
<text text-anchor="start" x="1724.79" y="-2556.58" font-family="Times New Roman,serif" font-size="14.00">member of</text>
</g>
<!-- Entity30&#45;&gt;Entity72 -->
<g id="edge35" class="edge verb">
<title>Entity30&#45;&gt;Entity72</title>
<path fill="none" stroke="black" d="M2155.38,-2444.9C2295.06,-2411.13 2650.47,-2314.6 2778.12,-2275.65"/>
<polygon fill="black" stroke="black" points="2779.46,-2278.9 2787.98,-2272.61 2777.4,-2272.21 2779.46,-2278.9"/>
<text text-anchor="start" x="2387.75" y="-2364.07" font-family="Times New Roman,serif" font-size="14.00">vice&#45;president</text>
</g>
<!-- Entity30&#45;&gt;Entity72 -->
<g id="edge49" class="edge verb">
<title>Entity30&#45;&gt;Entity72</title>
<path fill="none" stroke="black" d="M2140.08,-2441.56C2264,-2403.46 2627.41,-2304.71 2768.12,-2270.74"/>
<polygon fill="black" stroke="black" points="2768.95,-2274.14 2777.85,-2268.41 2767.31,-2267.33 2768.95,-2274.14"/>
<text text-anchor="start" x="2398.1" y="-2344.95" font-family="Times New Roman,serif" font-size="14.00">worked at</text>
</g>
<!-- Entity76 -->
<g id="node35" class="node entity">
<title>Entity76</title>
<ellipse fill="none" stroke="black" cx="2076.23" cy="-2564.47" rx="90.98" ry="18"/>
<text text-anchor="start" x="2014.23" y="-2560.77" font-family="Times New Roman,serif" font-size="14.00">nsdap rocket program</text>
</g>
<!-- Entity30&#45;&gt;Entity76 -->
<g id="edge36" class="edge verb">
<title>Entity30&#45;&gt;Entity76</title>
<path fill="none" stroke="black" d="M2094.27,-2474.83C2090.86,-2491.76 2085.75,-2517.16 2081.84,-2536.61"/>
<polygon fill="black" stroke="black" points="2078.4,-2535.93 2079.86,-2546.43 2085.27,-2537.32 2078.4,-2535.93"/>
<text text-anchor="start" x="2047.06" y="-2509.52" font-family="Times New Roman,serif" font-size="14.00">created</text>
</g>
<!-- Entity104 -->
<g id="node55" class="node entity">
<title>Entity104</title>
<ellipse fill="none" stroke="black" cx="1567.29" cy="-2218.35" rx="65.79" ry="18"/>
<text text-anchor="start" x="1524.79" y="-2214.65" font-family="Times New Roman,serif" font-size="14.00">x series aircraft</text>
</g>
<!-- Entity30&#45;&gt;Entity104 -->
<g id="edge59" class="edge verb">
<title>Entity30&#45;&gt;Entity104</title>
<path fill="none" stroke="black" d="M2062.31,-2440.52C1968.23,-2398.3 1713.41,-2283.93 1610.89,-2237.92"/>
<polygon fill="black" stroke="black" points="1612.29,-2234.71 1601.74,-2233.81 1609.43,-2241.1 1612.29,-2234.71"/>
<text text-anchor="start" x="1795.6" y="-2343.02" font-family="Times New Roman,serif" font-size="14.00">created</text>
</g>
<!-- Entity32 -->
<g id="node16" class="node entity">
<title>Entity32</title>
<ellipse fill="none" stroke="black" cx="1787.45" cy="-2876.27" rx="46.29" ry="18"/>
<text text-anchor="start" x="1759.95" y="-2872.57" font-family="Times New Roman,serif" font-size="14.00">van braun</text>
</g>
<!-- Entity32&#45;&gt;Entity30 -->
<g id="edge12" class="edge verb">
<title>Entity32&#45;&gt;Entity30</title>
<path fill="none" stroke="black" d="M1800.39,-2858.76C1848.91,-2793.18 2020.14,-2561.71 2078.39,-2482.97"/>
<polygon fill="black" stroke="black" points="2081.47,-2484.69 2084.61,-2474.56 2075.85,-2480.52 2081.47,-2484.69"/>
<text text-anchor="start" x="1876.39" y="-2674.67" font-family="Times New Roman,serif" font-size="14.00">worked for</text>
</g>
<!-- Entity32&#45;&gt;Entity76 -->
<g id="edge48" class="edge verb">
<title>Entity32&#45;&gt;Entity76</title>
<path fill="none" stroke="black" d="M1803.38,-2859.06C1851.58,-2807.03 1995.94,-2651.16 2052.82,-2589.74"/>
<polygon fill="black" stroke="black" points="2055.4,-2592.11 2059.63,-2582.4 2050.26,-2587.36 2055.4,-2592.11"/>
<text text-anchor="start" x="1872.1" y="-2728.2" font-family="Times New Roman,serif" font-size="14.00">worked at</text>
</g>
<!-- Entity29 -->
<g id="node17" class="node entity">
<title>Entity29</title>
<ellipse fill="none" stroke="black" cx="5851.99" cy="-2249.35" rx="37.89" ry="18"/>
<text text-anchor="start" x="5830.99" y="-2245.65" font-family="Times New Roman,serif" font-size="14.00">hunt oil</text>
</g>
<!-- Entity36 -->
<g id="node18" class="node entity">
<title>Entity36</title>
<ellipse fill="none" stroke="black" cx="5754.15" cy="-2141.3" rx="77.99" ry="18"/>
<text text-anchor="start" x="5702.15" y="-2137.6" font-family="Times New Roman,serif" font-size="14.00">dwight eisenhower</text>
</g>
<!-- Entity29&#45;&gt;Entity36 -->
<g id="edge13" class="edge verb">
<title>Entity29&#45;&gt;Entity36</title>
<path fill="none" stroke="black" d="M5836.7,-2232.46C5820.76,-2214.86 5795.58,-2187.06 5777.22,-2166.78"/>
<polygon fill="black" stroke="black" points="5779.61,-2164.21 5770.31,-2159.14 5774.42,-2168.91 5779.61,-2164.21"/>
<text text-anchor="start" x="5766.96" y="-2203.42" font-family="Times New Roman,serif" font-size="14.00">funded</text>
</g>
<!-- Entity36&#45;&gt;Entity66 -->
<g id="edge34" class="edge verb">
<title>Entity36&#45;&gt;Entity66</title>
<path fill="none" stroke="black" d="M5784.72,-2124.57C5849.53,-2089.11 6000.22,-2006.64 6066.42,-1970.41"/>
<polygon fill="black" stroke="black" points="6068.46,-1973.29 6075.56,-1965.41 6065.1,-1967.14 6068.46,-1973.29"/>
<text text-anchor="start" x="5906.57" y="-2051.29" font-family="Times New Roman,serif" font-size="14.00">is a</text>
</g>
<!-- Entity11 -->
<g id="node19" class="node entity">
<title>Entity11</title>
<ellipse fill="none" stroke="black" cx="6531.33" cy="-2250.57" rx="56.59" ry="18"/>
<text text-anchor="start" x="6495.83" y="-2246.87" font-family="Times New Roman,serif" font-size="14.00">harry truman</text>
</g>
<!-- Entity11&#45;&gt;Entity66 -->
<g id="edge14" class="edge verb">
<title>Entity11&#45;&gt;Entity66</title>
<path fill="none" stroke="black" d="M6507.45,-2234.13C6433.41,-2183.18 6207.86,-2027.99 6127.45,-1972.66"/>
<polygon fill="black" stroke="black" points="6129.04,-1969.5 6118.82,-1966.72 6125.07,-1975.27 6129.04,-1969.5"/>
<text text-anchor="start" x="6301.45" y="-2107.2" font-family="Times New Roman,serif" font-size="14.00">isa</text>
</g>
<!-- Entity69 -->
<g id="node24" class="node entity">
<title>Entity69</title>
<ellipse fill="none" stroke="black" cx="6949.28" cy="-2578.24" rx="55.79" ry="18"/>
<text text-anchor="start" x="6914.28" y="-2574.54" font-family="Times New Roman,serif" font-size="14.00">freemasonry</text>
</g>
<!-- Entity11&#45;&gt;Entity69 -->
<g id="edge17" class="edge verb">
<title>Entity11&#45;&gt;Entity69</title>
<path fill="none" stroke="black" d="M6552.63,-2267.27C6621.81,-2321.5 6840.28,-2492.78 6919.89,-2555.19"/>
<polygon fill="black" stroke="black" points="6918,-2558.16 6928.03,-2561.57 6922.32,-2552.65 6918,-2558.16"/>
<text text-anchor="start" x="6675.26" y="-2415.03" font-family="Times New Roman,serif" font-size="14.00">member of</text>
</g>
<!-- Entity63 -->
<g id="node21" class="node entity">
<title>Entity63</title>
<ellipse fill="none" stroke="black" cx="5756.06" cy="-2953.17" rx="53.89" ry="18"/>
<text text-anchor="start" x="5722.56" y="-2949.47" font-family="Times New Roman,serif" font-size="14.00">edgar casey</text>
</g>
<!-- Entity59 -->
<g id="node22" class="node entity">
<title>Entity59</title>
<ellipse fill="none" stroke="black" cx="5744.67" cy="-2379.04" rx="71.49" ry="18"/>
<text text-anchor="start" x="5697.67" y="-2375.34" font-family="Times New Roman,serif" font-size="14.00">woodrow wilson</text>
</g>
<!-- Entity63&#45;&gt;Entity59 -->
<g id="edge15" class="edge verb">
<title>Entity63&#45;&gt;Entity59</title>
<path fill="none" stroke="black" d="M5755.7,-2935.04C5754.05,-2852.1 5747.24,-2508.53 5745.23,-2407.26"/>
<polygon fill="black" stroke="black" points="5748.73,-2407.11 5745.03,-2397.18 5741.73,-2407.25 5748.73,-2407.11"/>
<text text-anchor="start" x="5708.46" y="-2674.95" font-family="Times New Roman,serif" font-size="14.00">advises</text>
</g>
<!-- Entity59&#45;&gt;Entity66 -->
<g id="edge30" class="edge verb">
<title>Entity59&#45;&gt;Entity66</title>
<path fill="none" stroke="black" d="M5759.43,-2361.27C5815.35,-2293.93 6014.28,-2054.36 6078.47,-1977.05"/>
<polygon fill="black" stroke="black" points="6081.24,-1979.19 6084.94,-1969.26 6075.85,-1974.72 6081.24,-1979.19"/>
<text text-anchor="start" x="5902.95" y="-2172.96" font-family="Times New Roman,serif" font-size="14.00">isa</text>
</g>
<!-- Entity92 -->
<g id="node50" class="node entity">
<title>Entity92</title>
<ellipse fill="none" stroke="black" cx="5719.95" cy="-2487.02" rx="71.49" ry="18"/>
<text text-anchor="start" x="5672.95" y="-2483.32" font-family="Times New Roman,serif" font-size="14.00">leauge of nations</text>
</g>
<!-- Entity59&#45;&gt;Entity92 -->
<g id="edge54" class="edge verb">
<title>Entity59&#45;&gt;Entity92</title>
<path fill="none" stroke="black" d="M5740.48,-2397.36C5736.6,-2414.29 5730.79,-2439.7 5726.33,-2459.15"/>
<polygon fill="black" stroke="black" points="5722.9,-2458.44 5724.08,-2468.97 5729.73,-2460 5722.9,-2458.44"/>
<text text-anchor="start" x="5692.41" y="-2432.05" font-family="Times New Roman,serif" font-size="14.00">created</text>
</g>
<!-- Entity18 -->
<g id="node26" class="node entity">
<title>Entity18</title>
<ellipse fill="none" stroke="black" cx="6431.01" cy="-2059.61" rx="35.19" ry="18"/>
<text text-anchor="start" x="6412.01" y="-2055.91" font-family="Times New Roman,serif" font-size="14.00">obama</text>
</g>
<!-- Entity18&#45;&gt;Entity66 -->
<g id="edge21" class="edge verb">
<title>Entity18&#45;&gt;Entity66</title>
<path fill="none" stroke="black" d="M6401.21,-2050.03C6340.43,-2030.51 6202.27,-1986.11 6135.75,-1964.74"/>
<polygon fill="black" stroke="black" points="6136.68,-1961.37 6126.09,-1961.64 6134.54,-1968.03 6136.68,-1961.37"/>
<text text-anchor="start" x="6252.48" y="-2011.19" font-family="Times New Roman,serif" font-size="14.00">isa</text>
</g>
<!-- Entity12 -->
<g id="node27" class="node entity">
<title>Entity12</title>
<ellipse fill="none" stroke="black" cx="6539.94" cy="-1891.46" rx="58.49" ry="18"/>
<text text-anchor="start" x="6502.94" y="-1887.76" font-family="Times New Roman,serif" font-size="14.00">richard nixon</text>
</g>
<!-- Entity12&#45;&gt;Entity66 -->
<g id="edge22" class="edge verb">
<title>Entity12&#45;&gt;Entity66</title>
<path fill="none" stroke="black" d="M6486.27,-1898.92C6396.78,-1911.36 6219.08,-1936.06 6139.18,-1947.16"/>
<polygon fill="black" stroke="black" points="6138.45,-1943.73 6129.03,-1948.58 6139.41,-1950.67 6138.45,-1943.73"/>
<text text-anchor="start" x="6296.72" y="-1926.84" font-family="Times New Roman,serif" font-size="14.00">isa</text>
</g>
<!-- Entity24 -->
<g id="node29" class="node entity">
<title>Entity24</title>
<ellipse fill="none" stroke="black" cx="4130.32" cy="-1732.84" rx="63.89" ry="18"/>
<text text-anchor="start" x="4089.32" y="-1729.14" font-family="Times New Roman,serif" font-size="14.00">robert bigelow</text>
</g>
<!-- Entity24&#45;&gt;Entity7 -->
<g id="edge25" class="edge verb">
<title>Entity24&#45;&gt;Entity7</title>
<path fill="none" stroke="black" d="M4095.02,-1747.87C4020.77,-1779.49 3848.47,-1852.85 3766.03,-1887.95"/>
<polygon fill="black" stroke="black" points="3764.27,-1884.9 3756.44,-1892.04 3767.01,-1891.34 3764.27,-1884.9"/>
<text text-anchor="start" x="3898.53" y="-1821.71" font-family="Times New Roman,serif" font-size="14.00">funds</text>
</g>
<!-- Entity24&#45;&gt;Entity67 -->
<g id="edge45" class="edge verb">
<title>Entity24&#45;&gt;Entity67</title>
<path fill="none" stroke="black" d="M4161.28,-1748.78C4197.78,-1767.56 4258.56,-1798.84 4299.01,-1819.65"/>
<polygon fill="black" stroke="black" points="4297.57,-1822.85 4308.07,-1824.31 4300.78,-1816.62 4297.57,-1822.85"/>
<text text-anchor="start" x="4166.15" y="-1788.01" font-family="Times New Roman,serif" font-size="14.00">investigates</text>
</g>
<!-- Entity44 -->
<g id="node30" class="node entity">
<title>Entity44</title>
<ellipse fill="none" stroke="black" cx="6981.86" cy="-1205.17" rx="58.49" ry="18"/>
<text text-anchor="start" x="6944.86" y="-1201.47" font-family="Times New Roman,serif" font-size="14.00">steve bannon</text>
</g>
<!-- Entity44&#45;&gt;Entity15 -->
<g id="edge28" class="edge verb">
<title>Entity44&#45;&gt;Entity15</title>
<path fill="none" stroke="black" d="M6941.09,-1218.2C6817.82,-1263.63 6450.12,-1413.7 6328.38,-1468.23"/>
<polygon fill="black" stroke="black" points="6326.71,-1465.15 6319.04,-1472.45 6329.59,-1471.53 6326.71,-1465.15"/>
<text text-anchor="start" x="6579.73" y="-1347.02" font-family="Times New Roman,serif" font-size="14.00">promoted</text>
</g>
<!-- Entity44&#45;&gt;Entity15 -->
<g id="edge64" class="edge verb">
<title>Entity44&#45;&gt;Entity15</title>
<path fill="none" stroke="black" d="M6951.87,-1220.67C6844.06,-1269.8 6475.49,-1420.48 6339.59,-1471.31"/>
<polygon fill="black" stroke="black" points="6337.99,-1468.17 6329.84,-1474.94 6340.43,-1474.74 6337.99,-1468.17"/>
<text text-anchor="start" x="6645.73" y="-1349.79" font-family="Times New Roman,serif" font-size="14.00">advises</text>
</g>
<!-- Entity83 -->
<g id="node40" class="node entity">
<title>Entity83</title>
<ellipse fill="none" stroke="black" cx="6972.16" cy="-673.78" rx="61.99" ry="18"/>
<text text-anchor="start" x="6932.66" y="-670.08" font-family="Times New Roman,serif" font-size="14.00">breitbart news</text>
</g>
<!-- Entity44&#45;&gt;Entity83 -->
<g id="edge46" class="edge verb">
<title>Entity44&#45;&gt;Entity83</title>
<path fill="none" stroke="black" d="M6981.52,-1186.88C6980.09,-1108.16 6974.42,-797.86 6972.68,-702.09"/>
<polygon fill="black" stroke="black" points="6976.17,-701.93 6972.49,-692 6969.18,-702.06 6976.17,-701.93"/>
<text text-anchor="start" x="6936.1" y="-948.29" font-family="Times New Roman,serif" font-size="14.00">created</text>
</g>
<!-- Entity89 -->
<g id="node49" class="node entity">
<title>Entity89</title>
<ellipse fill="none" stroke="black" cx="7162.52" cy="-819.4" rx="35.19" ry="18"/>
<text text-anchor="start" x="7143.52" y="-815.7" font-family="Times New Roman,serif" font-size="14.00">gurgev</text>
</g>
<!-- Entity44&#45;&gt;Entity89 -->
<g id="edge53" class="edge verb">
<title>Entity44&#45;&gt;Entity89</title>
<path fill="none" stroke="black" d="M6990.21,-1187.34C7019.16,-1125.51 7115.37,-920.08 7149.98,-846.18"/>
<polygon fill="black" stroke="black" points="7153.19,-847.59 7154.26,-837.05 7146.85,-844.62 7153.19,-847.59"/>
<text text-anchor="start" x="7029.09" y="-1020.56" font-family="Times New Roman,serif" font-size="14.00">studied</text>
</g>
<!-- Entity91 -->
<g id="node51" class="node entity">
<title>Entity91</title>
<ellipse fill="none" stroke="black" cx="7426.25" cy="-1209.24" rx="38.19" ry="18"/>
<text text-anchor="start" x="7404.75" y="-1205.54" font-family="Times New Roman,serif" font-size="14.00">us navy</text>
</g>
<!-- Entity44&#45;&gt;Entity91 -->
<g id="edge55" class="edge verb">
<title>Entity44&#45;&gt;Entity91</title>
<path fill="none" stroke="black" d="M7040.41,-1205.71C7129.01,-1206.52 7295.51,-1208.05 7377.75,-1208.8"/>
<polygon fill="black" stroke="black" points="7377.8,-1212.3 7387.83,-1208.89 7377.86,-1205.3 7377.8,-1212.3"/>
<text text-anchor="start" x="7148.08" y="-1211.06" font-family="Times New Roman,serif" font-size="14.00">member of</text>
</g>
<!-- Entity94 -->
<g id="node53" class="node entity">
<title>Entity94</title>
<ellipse fill="none" stroke="black" cx="7457.4" cy="-1417.4" rx="53.09" ry="18"/>
<text text-anchor="start" x="7424.4" y="-1413.7" font-family="Times New Roman,serif" font-size="14.00">biosphere 2</text>
</g>
<!-- Entity44&#45;&gt;Entity94 -->
<g id="edge57" class="edge verb">
<title>Entity44&#45;&gt;Entity94</title>
<path fill="none" stroke="black" d="M7015.29,-1220.1C7099.93,-1257.87 7322.5,-1357.2 7415.56,-1398.73"/>
<polygon fill="black" stroke="black" points="7414.39,-1402.04 7424.94,-1402.92 7417.24,-1395.64 7414.39,-1402.04"/>
<text text-anchor="start" x="7174.43" y="-1313.21" font-family="Times New Roman,serif" font-size="14.00">created</text>
</g>
<!-- Entity107 -->
<g id="node58" class="node entity">
<title>Entity107</title>
<ellipse fill="none" stroke="black" cx="7597.96" cy="-1101.3" rx="77.19" ry="18"/>
<text text-anchor="start" x="7546.46" y="-1097.6" font-family="Times New Roman,serif" font-size="14.00">hollywood movies</text>
</g>
<!-- Entity44&#45;&gt;Entity107 -->
<g id="edge61" class="edge verb">
<title>Entity44&#45;&gt;Entity107</title>
<path fill="none" stroke="black" d="M7033.32,-1196.5C7142.72,-1178.05 7398.66,-1134.9 7524.9,-1113.62"/>
<polygon fill="black" stroke="black" points="7525.59,-1117.05 7534.87,-1111.94 7524.43,-1110.15 7525.59,-1117.05"/>
<text text-anchor="start" x="7224.11" y="-1158.86" font-family="Times New Roman,serif" font-size="14.00">produced</text>
</g>
<!-- Entity111 -->
<g id="node59" class="node entity">
<title>Entity111</title>
<ellipse fill="none" stroke="black" cx="7462.77" cy="-902.38" rx="64.99" ry="18"/>
<text text-anchor="start" x="7420.77" y="-898.68" font-family="Times New Roman,serif" font-size="14.00">goldman sachs</text>
</g>
<!-- Entity44&#45;&gt;Entity111 -->
<g id="edge66" class="edge verb">
<title>Entity44&#45;&gt;Entity111</title>
<path fill="none" stroke="black" d="M7007.71,-1188.89C7088.43,-1138.07 7335.83,-982.3 7427.83,-924.38"/>
<polygon fill="black" stroke="black" points="7429.9,-927.21 7436.5,-918.92 7426.17,-921.29 7429.9,-927.21"/>
<text text-anchor="start" x="7154.77" y="-1060.44" font-family="Times New Roman,serif" font-size="14.00">worked for</text>
</g>
<!-- Entity33 -->
<g id="node32" class="node entity">
<title>Entity33</title>
<ellipse fill="none" stroke="black" cx="2525.62" cy="-2630.37" rx="57.69" ry="18"/>
<text text-anchor="start" x="2489.12" y="-2626.67" font-family="Times New Roman,serif" font-size="14.00">michael pane</text>
</g>
<!-- Entity33&#45;&gt;Entity30 -->
<g id="edge47" class="edge verb">
<title>Entity33&#45;&gt;Entity30</title>
<path fill="none" stroke="black" d="M2490.26,-2615.99C2413.58,-2584.82 2231.98,-2511 2145.43,-2475.82"/>
<polygon fill="black" stroke="black" points="2146.69,-2472.55 2136.11,-2472.03 2144.05,-2479.04 2146.69,-2472.55"/>
<text text-anchor="start" x="2254.84" y="-2549.7" font-family="Times New Roman,serif" font-size="14.00">worked for</text>
</g>
<!-- Entity33&#45;&gt;Entity72 -->
<g id="edge31" class="edge verb">
<title>Entity33&#45;&gt;Entity72</title>
<path fill="none" stroke="black" d="M2540.04,-2612.47C2588.7,-2552.1 2746.93,-2355.78 2803.94,-2285.04"/>
<polygon fill="black" stroke="black" points="2806.83,-2287.04 2810.38,-2277.05 2801.38,-2282.64 2806.83,-2287.04"/>
<text text-anchor="start" x="2615.99" y="-2452.56" font-family="Times New Roman,serif" font-size="14.00">worked at</text>
</g>
<!-- Entity45 -->
<g id="node33" class="node entity">
<title>Entity45</title>
<ellipse fill="none" stroke="black" cx="6015.44" cy="-1351.14" rx="67.69" ry="18"/>
<text text-anchor="start" x="5971.44" y="-1347.44" font-family="Times New Roman,serif" font-size="14.00">abraham lincoln</text>
</g>
<!-- Entity45&#45;&gt;Entity66 -->
<g id="edge32" class="edge verb">
<title>Entity45&#45;&gt;Entity66</title>
<path fill="none" stroke="black" d="M6017.92,-1369.15C6029.74,-1454.6 6080.16,-1819.43 6094.68,-1924.43"/>
<polygon fill="black" stroke="black" points="6091.24,-1925.15 6096.08,-1934.58 6098.18,-1924.19 6091.24,-1925.15"/>
<text text-anchor="start" x="6040.3" y="-1650.59" font-family="Times New Roman,serif" font-size="14.00">isa</text>
</g>
<!-- Entity38 -->
<g id="node34" class="node entity">
<title>Entity38</title>
<ellipse fill="none" stroke="black" cx="5823.77" cy="-581.32" rx="90.98" ry="18"/>
<text text-anchor="start" x="5761.77" y="-577.62" font-family="Times New Roman,serif" font-size="14.00">emma hardinge&#45;britten</text>
</g>
<!-- Entity38&#45;&gt;Entity45 -->
<g id="edge33" class="edge verb">
<title>Entity38&#45;&gt;Entity45</title>
<path fill="none" stroke="black" d="M5828.32,-599.59C5853.69,-701.47 5977.63,-1199.29 6008.47,-1323.18"/>
<polygon fill="black" stroke="black" points="6005.12,-1324.18 6010.93,-1333.04 6011.91,-1322.49 6005.12,-1324.18"/>
<text text-anchor="start" x="5819.4" y="-965.19" font-family="Times New Roman,serif" font-size="14.00">spokesperson for</text>
</g>
<!-- Entity79 -->
<g id="node38" class="node entity">
<title>Entity79</title>
<ellipse fill="none" stroke="black" cx="5959.79" cy="-18.04" rx="39.79" ry="18"/>
<text text-anchor="start" x="5937.29" y="-14.34" font-family="Times New Roman,serif" font-size="14.00">medium</text>
</g>
<!-- Entity38&#45;&gt;Entity79 -->
<g id="edge38" class="edge verb">
<title>Entity38&#45;&gt;Entity79</title>
<path fill="none" stroke="black" d="M5828.15,-563.22C5847.91,-481.37 5928.99,-145.57 5953.04,-45.99"/>
<polygon fill="black" stroke="black" points="5956.49,-46.61 5955.43,-36.07 5949.68,-44.97 5956.49,-46.61"/>
<text text-anchor="start" x="5874.59" y="-308.41" font-family="Times New Roman,serif" font-size="14.00">isa</text>
</g>
<!-- Entity86 -->
<g id="node48" class="node entity">
<title>Entity86</title>
<ellipse fill="none" stroke="black" cx="5155.18" cy="-420.48" rx="85.29" ry="18"/>
<text text-anchor="start" x="5097.68" y="-416.78" font-family="Times New Roman,serif" font-size="14.00">theosophical society</text>
</g>
<!-- Entity38&#45;&gt;Entity86 -->
<g id="edge65" class="edge verb">
<title>Entity38&#45;&gt;Entity86</title>
<path fill="none" stroke="black" d="M5765.9,-567.4C5642.23,-537.65 5352.82,-468.03 5221.76,-436.5"/>
<polygon fill="black" stroke="black" points="5222.39,-433.05 5211.85,-434.12 5220.75,-439.86 5222.39,-433.05"/>
<text text-anchor="start" x="5452.83" y="-505.75" font-family="Times New Roman,serif" font-size="14.00">created</text>
</g>
<!-- Entity99 -->
<g id="node54" class="node entity">
<title>Entity99</title>
<ellipse fill="none" stroke="black" cx="5800.04" cy="-473.23" rx="55.79" ry="18"/>
<text text-anchor="start" x="5765.04" y="-469.53" font-family="Times New Roman,serif" font-size="14.00">orphic circle</text>
</g>
<!-- Entity38&#45;&gt;Entity99 -->
<g id="edge58" class="edge verb">
<title>Entity38&#45;&gt;Entity99</title>
<path fill="none" stroke="black" d="M5819.75,-562.99C5816.03,-546.04 5810.44,-520.6 5806.17,-501.13"/>
<polygon fill="black" stroke="black" points="5809.57,-500.31 5804.01,-491.3 5802.73,-501.81 5809.57,-500.31"/>
<text text-anchor="start" x="5751.96" y="-535.86" font-family="Times New Roman,serif" font-size="14.00">member of</text>
</g>
<!-- Entity42 -->
<g id="node36" class="node entity">
<title>Entity42</title>
<ellipse fill="none" stroke="black" cx="4309.94" cy="-1081.66" rx="53.89" ry="18"/>
<text text-anchor="start" x="4276.44" y="-1077.96" font-family="Times New Roman,serif" font-size="14.00">black magic</text>
</g>
<!-- Entity81 -->
<g id="node37" class="node entity">
<title>Entity81</title>
<ellipse fill="none" stroke="black" cx="4397.66" cy="-1193.64" rx="28.7" ry="18"/>
<text text-anchor="start" x="4383.66" y="-1189.94" font-family="Times New Roman,serif" font-size="14.00">x left</text>
</g>
<!-- Entity42&#45;&gt;Entity81 -->
<g id="edge37" class="edge verb">
<title>Entity42&#45;&gt;Entity81</title>
<path fill="none" stroke="black" d="M4323.64,-1099.16C4338.45,-1118.05 4362.14,-1148.29 4378.72,-1169.45"/>
<polygon fill="black" stroke="black" points="4375.98,-1171.64 4384.9,-1177.36 4381.49,-1167.32 4375.98,-1171.64"/>
<text text-anchor="start" x="4290.18" y="-1138.11" font-family="Times New Roman,serif" font-size="14.00">member of</text>
</g>
<!-- Entity47 -->
<g id="node39" class="node entity">
<title>Entity47</title>
<ellipse fill="none" stroke="black" cx="6994.94" cy="-565.88" rx="69.59" ry="18"/>
<text text-anchor="start" x="6949.44" y="-562.18" font-family="Times New Roman,serif" font-size="14.00">andrew breitbart</text>
</g>
<!-- Entity47&#45;&gt;Entity83 -->
<g id="edge39" class="edge verb">
<title>Entity47&#45;&gt;Entity83</title>
<path fill="none" stroke="black" d="M6991.08,-584.18C6987.51,-601.1 6982.15,-626.49 6978.04,-645.93"/>
<polygon fill="black" stroke="black" points="6974.61,-645.24 6975.97,-655.75 6981.46,-646.69 6974.61,-645.24"/>
<text text-anchor="start" x="6943.56" y="-618.86" font-family="Times New Roman,serif" font-size="14.00">created</text>
</g>
<!-- Entity35 -->
<g id="node42" class="node entity">
<title>Entity35</title>
<ellipse fill="none" stroke="black" cx="3763.94" cy="-1081.66" rx="39.79" ry="18"/>
<text text-anchor="start" x="3741.44" y="-1077.96" font-family="Times New Roman,serif" font-size="14.00">crowley</text>
</g>
<!-- Entity80 -->
<g id="node43" class="node entity">
<title>Entity80</title>
<ellipse fill="none" stroke="black" cx="3851.66" cy="-1193.64" rx="38.99" ry="18"/>
<text text-anchor="start" x="3829.66" y="-1189.94" font-family="Times New Roman,serif" font-size="14.00">x magic</text>
</g>
<!-- Entity35&#45;&gt;Entity80 -->
<g id="edge41" class="edge verb">
<title>Entity35&#45;&gt;Entity80</title>
<path fill="none" stroke="black" d="M3777.26,-1098.67C3791.82,-1117.25 3815.28,-1147.2 3831.96,-1168.49"/>
<polygon fill="black" stroke="black" points="3829.29,-1170.76 3838.21,-1176.47 3834.8,-1166.44 3829.29,-1170.76"/>
<text text-anchor="start" x="3743.61" y="-1137.38" font-family="Times New Roman,serif" font-size="14.00">member of</text>
</g>
<!-- Entity19 -->
<g id="node44" class="node entity">
<title>Entity19</title>
<ellipse fill="none" stroke="black" cx="5705.15" cy="-1862.42" rx="31.4" ry="18"/>
<text text-anchor="start" x="5689.15" y="-1858.72" font-family="Times New Roman,serif" font-size="14.00">carter</text>
</g>
<!-- Entity19&#45;&gt;Entity66 -->
<g id="edge44" class="edge verb">
<title>Entity19&#45;&gt;Entity66</title>
<path fill="none" stroke="black" d="M5734.4,-1869.14C5804.2,-1885.17 5980.53,-1925.68 6059.4,-1943.8"/>
<polygon fill="black" stroke="black" points="6058.89,-1947.27 6069.42,-1946.1 6060.46,-1940.45 6058.89,-1947.27"/>
<text text-anchor="start" x="5880.9" y="-1910.27" font-family="Times New Roman,serif" font-size="14.00">isa</text>
</g>
<!-- Entity19&#45;&gt;Entity90 -->
<g id="edge56" class="edge verb">
<title>Entity19&#45;&gt;Entity90</title>
<path fill="none" stroke="black" d="M5677.07,-1854.5C5607.95,-1835.02 5429.71,-1784.77 5353.93,-1763.41"/>
<polygon fill="black" stroke="black" points="5354.52,-1759.94 5343.94,-1760.59 5352.62,-1766.67 5354.52,-1759.94"/>
<text text-anchor="start" x="5460.5" y="-1812.75" font-family="Times New Roman,serif" font-size="14.00">witnessed</text>
</g>
<!-- Entity27 -->
<g id="node45" class="node entity">
<title>Entity27</title>
<ellipse fill="none" stroke="black" cx="75.02" cy="-3233.44" rx="75.29" ry="18"/>
<text text-anchor="start" x="25.02" y="-3229.74" font-family="Times New Roman,serif" font-size="14.00">lee harvey oswald</text>
</g>
<!-- Entity34 -->
<g id="node46" class="node entity">
<title>Entity34</title>
<ellipse fill="none" stroke="black" cx="600.52" cy="-3029.85" rx="59.29" ry="18"/>
<text text-anchor="start" x="563.02" y="-3026.15" font-family="Times New Roman,serif" font-size="14.00">guy bannister</text>
</g>
<!-- Entity27&#45;&gt;Entity34 -->
<g id="edge50" class="edge verb">
<title>Entity27&#45;&gt;Entity34</title>
<path fill="none" stroke="black" d="M114.95,-3217.97C210.66,-3180.89 452.76,-3087.09 554.44,-3047.7"/>
<polygon fill="black" stroke="black" points="555.77,-3050.94 563.83,-3044.06 553.24,-3044.41 555.77,-3050.94"/>
<text text-anchor="start" x="271.69" y="-3136.64" font-family="Times New Roman,serif" font-size="14.00">worked for</text>
</g>
<!-- Entity34&#45;&gt;Entity75 -->
<g id="edge51" class="edge verb">
<title>Entity34&#45;&gt;Entity75</title>
<path fill="none" stroke="black" d="M636.44,-3015.53C722.5,-2981.21 939.95,-2894.5 1029.09,-2858.96"/>
<polygon fill="black" stroke="black" points="1030.57,-2862.14 1038.56,-2855.18 1027.98,-2855.63 1030.57,-2862.14"/>
<text text-anchor="start" x="771.76" y="-2941.04" font-family="Times New Roman,serif" font-size="14.00">member of</text>
</g>
<!-- Entity64 -->
<g id="node47" class="node entity">
<title>Entity64</title>
<ellipse fill="none" stroke="black" cx="5073.53" cy="-312.48" rx="73.39" ry="18"/>
<text text-anchor="start" x="5025.03" y="-308.78" font-family="Times New Roman,serif" font-size="14.00">madam blavatsky</text>
</g>
<!-- Entity64&#45;&gt;Entity86 -->
<g id="edge52" class="edge verb">
<title>Entity64&#45;&gt;Entity86</title>
<path fill="none" stroke="black" d="M5087.01,-330.31C5100.25,-347.82 5120.58,-374.72 5135.6,-394.59"/>
<polygon fill="black" stroke="black" points="5132.85,-396.76 5141.68,-402.62 5138.44,-392.53 5132.85,-396.76"/>
<text text-anchor="start" x="5070.3" y="-366.25" font-family="Times New Roman,serif" font-size="14.00">created</text>
</g>
<!-- Entity60 -->
<g id="node56" class="node entity">
<title>Entity60</title>
<ellipse fill="none" stroke="black" cx="4627.78" cy="-227.97" rx="58.49" ry="18"/>
<text text-anchor="start" x="4590.78" y="-224.27" font-family="Times New Roman,serif" font-size="14.00">rudolf steiner</text>
</g>
<!-- Entity60&#45;&gt;Entity86 -->
<g id="edge63" class="edge verb">
<title>Entity60&#45;&gt;Entity86</title>
<path fill="none" stroke="black" d="M4665.71,-241.82C4758.35,-275.63 4996.33,-362.5 5102.58,-401.29"/>
<polygon fill="black" stroke="black" points="5101.55,-404.63 5112.14,-404.78 5103.95,-398.06 5101.55,-404.63"/>
<text text-anchor="start" x="4818.14" y="-325.35" font-family="Times New Roman,serif" font-size="14.00">memberr of</text>
</g>
<!-- Entity93 -->
<g id="node57" class="node entity">
<title>Entity93</title>
<ellipse fill="none" stroke="black" cx="4502.41" cy="-120.03" rx="102.08" ry="18"/>
<text text-anchor="start" x="4431.91" y="-116.33" font-family="Times New Roman,serif" font-size="14.00">anthroposophical society</text>
</g>
<!-- Entity60&#45;&gt;Entity93 -->
<g id="edge60" class="edge verb">
<title>Entity60&#45;&gt;Entity93</title>
<path fill="none" stroke="black" d="M4607.91,-210.87C4587.07,-192.92 4554.13,-164.56 4530.61,-144.31"/>
<polygon fill="black" stroke="black" points="4532.88,-141.65 4523.02,-137.77 4528.31,-146.95 4532.88,-141.65"/>
<text text-anchor="start" x="4528.26" y="-181.39" font-family="Times New Roman,serif" font-size="14.00">created</text>
</g>
<!-- Entity109 -->
<g id="node60" class="node entity">
<title>Entity109</title>
<ellipse fill="none" stroke="black" cx="3750.94" cy="-1613.66" rx="27" ry="18"/>
<text text-anchor="start" x="3747.44" y="-1609.96" font-family="Times New Roman,serif" font-size="14.00">s</text>
</g>
<!-- Entity112 -->
<g id="node61" class="node entity">
<title>Entity112</title>
<ellipse fill="none" stroke="black" cx="3838.66" cy="-1725.64" rx="27" ry="18"/>
<text text-anchor="start" x="3834.66" y="-1721.94" font-family="Times New Roman,serif" font-size="14.00">o</text>
</g>
<!-- Entity109&#45;&gt;Entity112 -->
<g id="edge67" class="edge verb">
<title>Entity109&#45;&gt;Entity112</title>
<path fill="none" stroke="black" d="M3763.51,-1629.7C3778.23,-1648.5 3802.76,-1679.82 3819.78,-1701.53"/>
<polygon fill="black" stroke="black" points="3817.19,-1703.91 3826.11,-1709.62 3822.7,-1699.59 3817.19,-1703.91"/>
<text text-anchor="start" x="3784.64" y="-1669.42" font-family="Times New Roman,serif" font-size="14.00">v</text>
</g>
</g>
</svg>
