<?xml version="1.0" encoding="UTF-8" standalone="no"?>
<?xml-stylesheet href="./styles.css" type="text/css"?>
<!DOCTYPE svg PUBLIC "-//W3C//DTD SVG 1.1//EN"
 "http://www.w3.org/Graphics/SVG/1.1/DTD/svg11.dtd">
<!-- Generated by graphviz version 2.47.3 (20210619.1520)
 -->
<!-- Title: G Pages: 1 -->
<svg width="7725pt" height="3170pt"
 viewBox="0.00 0.00 7725.00 3170.00" xmlns="http://www.w3.org/2000/svg" xmlns:xlink="http://www.w3.org/1999/xlink">
<g id="graph0" class="graph" transform="scale(1 1) rotate(0) translate(4 3166)">
<title>G</title>
<polygon fill="white" stroke="transparent" points="-4,4 -4,-3166 7721,-3166 7721,4 -4,4"/>
<!-- Entity113 -->
<g id="node1" class="node entity">
<title>Entity113</title>
<ellipse fill="none" stroke="black" cx="4850.37" cy="-1001.1" rx="41.69" ry="18"/>
<text text-anchor="start" x="4826.37" y="-997.4" font-family="Times New Roman,serif" font-size="14.00">uri geller</text>
</g>
<!-- Entity124 -->
<g id="node2" class="node entity">
<title>Entity124</title>
<ellipse fill="none" stroke="black" cx="4932.69" cy="-695.52" rx="38.19" ry="18"/>
<text text-anchor="start" x="4911.19" y="-691.82" font-family="Times New Roman,serif" font-size="14.00">the nine</text>
</g>
<!-- Entity113&#45;&gt;Entity124 -->
<g id="edge1" class="edge verb">
<title>Entity113&#45;&gt;Entity124</title>
<path fill="none" stroke="black" d="M4855.27,-982.9C4869.11,-931.52 4908.55,-785.11 4925.17,-723.45"/>
<polygon fill="black" stroke="black" points="4928.59,-724.2 4927.81,-713.63 4921.83,-722.37 4928.59,-724.2"/>
<text text-anchor="start" x="4786.22" y="-856.97" font-family="Times New Roman,serif" font-size="14.00">claiemd to channel</text>
</g>
<!-- Entity181 -->
<g id="node11" class="node entity">
<title>Entity181</title>
<ellipse fill="none" stroke="black" cx="4947.81" cy="-587.51" rx="94.48" ry="18"/>
<text text-anchor="start" x="4883.31" y="-583.81" font-family="Times New Roman,serif" font-size="14.00">egyptian gods in a ship</text>
</g>
<!-- Entity124&#45;&gt;Entity181 -->
<g id="edge10" class="edge verb">
<title>Entity124&#45;&gt;Entity181</title>
<path fill="none" stroke="black" d="M4935.25,-677.2C4937.62,-660.34 4941.15,-635.08 4943.87,-615.66"/>
<polygon fill="black" stroke="black" points="4947.36,-615.95 4945.28,-605.56 4940.43,-614.98 4947.36,-615.95"/>
<text text-anchor="start" x="4835.56" y="-650.23" font-family="Times New Roman,serif" font-size="14.00">claimed to channel</text>
</g>
<!-- Entity112 -->
<g id="node3" class="node entity">
<title>Entity112</title>
<ellipse fill="none" stroke="black" cx="4738.96" cy="-1283.52" rx="56.59" ry="18"/>
<text text-anchor="start" x="4703.46" y="-1279.82" font-family="Times New Roman,serif" font-size="14.00">arthur young</text>
</g>
<!-- Entity112&#45;&gt;Entity124 -->
<g id="edge7" class="edge verb">
<title>Entity112&#45;&gt;Entity124</title>
<path fill="none" stroke="black" d="M4744.86,-1265.6C4772.58,-1181.5 4889.81,-825.68 4923.56,-723.23"/>
<polygon fill="black" stroke="black" points="4926.93,-724.19 4926.74,-713.59 4920.28,-721.99 4926.93,-724.19"/>
<text text-anchor="start" x="4772.21" y="-983.22" font-family="Times New Roman,serif" font-size="14.00">member&#45;of</text>
</g>
<!-- Entity178 -->
<g id="node4" class="node entity">
<title>Entity178</title>
<ellipse fill="none" stroke="black" cx="5328.31" cy="-1736.36" rx="53.89" ry="18"/>
<text text-anchor="start" x="5294.81" y="-1732.66" font-family="Times New Roman,serif" font-size="14.00">bell aviation</text>
</g>
<!-- Entity112&#45;&gt;Entity178 -->
<g id="edge2" class="edge verb">
<title>Entity112&#45;&gt;Entity178</title>
<path fill="none" stroke="black" d="M4760.63,-1300.18C4850.62,-1369.32 5194.9,-1633.85 5298.59,-1713.53"/>
<polygon fill="black" stroke="black" points="5296.69,-1716.48 5306.75,-1719.8 5300.96,-1710.93 5296.69,-1716.48"/>
<text text-anchor="start" x="4988.61" y="-1510.65" font-family="Times New Roman,serif" font-size="14.00">created</text>
</g>
<!-- Entity11 -->
<g id="node6" class="node entity">
<title>Entity11</title>
<ellipse fill="none" stroke="black" cx="3858.97" cy="-1295.41" rx="77.19" ry="18"/>
<text text-anchor="start" x="3807.47" y="-1291.71" font-family="Times New Roman,serif" font-size="14.00">psi&#45;consciousness</text>
</g>
<!-- Entity112&#45;&gt;Entity11 -->
<g id="edge9" class="edge verb">
<title>Entity112&#45;&gt;Entity11</title>
<path fill="none" stroke="black" d="M4682.24,-1284.29C4532.62,-1286.31 4126.49,-1291.79 3946.67,-1294.22"/>
<polygon fill="black" stroke="black" points="3946.41,-1290.72 3936.45,-1294.36 3946.5,-1297.72 3946.41,-1290.72"/>
<text text-anchor="start" x="4273.45" y="-1293.05" font-family="Times New Roman,serif" font-size="14.00">studied</text>
</g>
<!-- Entity115 -->
<g id="node5" class="node entity">
<title>Entity115</title>
<ellipse fill="none" stroke="black" cx="4364.67" cy="-1214.85" rx="68.49" ry="18"/>
<text text-anchor="start" x="4320.17" y="-1211.15" font-family="Times New Roman,serif" font-size="14.00">jeffrey mishlove</text>
</g>
<!-- Entity115&#45;&gt;Entity113 -->
<g id="edge5" class="edge verb">
<title>Entity115&#45;&gt;Entity113</title>
<path fill="none" stroke="black" d="M4399.99,-1199.3C4488.65,-1160.29 4720.03,-1058.46 4811.93,-1018.02"/>
<polygon fill="black" stroke="black" points="4813.41,-1021.19 4821.15,-1013.96 4810.59,-1014.78 4813.41,-1021.19"/>
<text text-anchor="start" x="4550.96" y="-1112.46" font-family="Times New Roman,serif" font-size="14.00">promoted</text>
</g>
<!-- Entity115&#45;&gt;Entity11 -->
<g id="edge3" class="edge verb">
<title>Entity115&#45;&gt;Entity11</title>
<path fill="none" stroke="black" d="M4299.63,-1220.47C4202.21,-1233.2 4019.52,-1262.3 3922.8,-1280.49"/>
<polygon fill="black" stroke="black" points="3922.03,-1277.07 3912.86,-1282.38 3923.34,-1283.95 3922.03,-1277.07"/>
<text text-anchor="start" x="4070.22" y="-1254.28" font-family="Times New Roman,serif" font-size="14.00">studied</text>
</g>
<!-- Entity115&#45;&gt;Entity11 -->
<g id="edge25" class="edge verb">
<title>Entity115&#45;&gt;Entity11</title>
<path fill="none" stroke="black" d="M4314.54,-1227.15C4227.3,-1244.09 4046.8,-1273.13 3941.06,-1287.51"/>
<polygon fill="black" stroke="black" points="3940.51,-1284.05 3931.07,-1288.85 3941.45,-1290.99 3940.51,-1284.05"/>
<text text-anchor="start" x="4127.8" y="-1261.13" font-family="Times New Roman,serif" font-size="14.00">investigates</text>
</g>
<!-- Entity114 -->
<g id="node7" class="node entity">
<title>Entity114</title>
<ellipse fill="none" stroke="black" cx="5259.27" cy="-298.73" rx="74.99" ry="18"/>
<text text-anchor="start" x="5209.77" y="-295.03" font-family="Times New Roman,serif" font-size="14.00">gene roddenberry</text>
</g>
<!-- Entity114&#45;&gt;Entity124 -->
<g id="edge4" class="edge verb">
<title>Entity114&#45;&gt;Entity124</title>
<path fill="none" stroke="black" d="M5244.6,-316.55C5192.14,-380.29 5013.7,-597.1 4953.05,-670.78"/>
<polygon fill="black" stroke="black" points="4950.23,-668.7 4946.58,-678.65 4955.64,-673.15 4950.23,-668.7"/>
<text text-anchor="start" x="4994.83" y="-497.47" font-family="Times New Roman,serif" font-size="14.00">claiemd to channel</text>
</g>
<!-- Entity123 -->
<g id="node8" class="node entity">
<title>Entity123</title>
<ellipse fill="none" stroke="black" cx="5307.32" cy="-857.05" rx="64.19" ry="18"/>
<text text-anchor="start" x="5265.82" y="-853.35" font-family="Times New Roman,serif" font-size="14.00">andre puharich</text>
</g>
<!-- Entity123&#45;&gt;Entity113 -->
<g id="edge6" class="edge verb">
<title>Entity123&#45;&gt;Entity113</title>
<path fill="none" stroke="black" d="M5264.33,-870.6C5177.26,-898.05 4980.95,-959.93 4893.64,-987.46"/>
<polygon fill="black" stroke="black" points="4892.53,-984.14 4884.05,-990.48 4894.64,-990.82 4892.53,-984.14"/>
<text text-anchor="start" x="5018.98" y="-932.83" font-family="Times New Roman,serif" font-size="14.00">sponsored</text>
</g>
<!-- Entity161 -->
<g id="node9" class="node entity">
<title>Entity161</title>
<ellipse fill="none" stroke="black" cx="1676.72" cy="-1069.9" rx="67.69" ry="18"/>
<text text-anchor="start" x="1632.72" y="-1066.2" font-family="Times New Roman,serif" font-size="14.00">abraham lincoln</text>
</g>
<!-- Entity180 -->
<g id="node10" class="node entity">
<title>Entity180</title>
<ellipse fill="none" stroke="black" cx="1592" cy="-961.87" rx="31.4" ry="18"/>
<text text-anchor="start" x="1576" y="-958.17" font-family="Times New Roman,serif" font-size="14.00">potus</text>
</g>
<!-- Entity161&#45;&gt;Entity180 -->
<g id="edge8" class="edge verb">
<title>Entity161&#45;&gt;Entity180</title>
<path fill="none" stroke="black" d="M1662.73,-1052.06C1648.67,-1034.12 1626.88,-1006.35 1611.2,-986.36"/>
<polygon fill="black" stroke="black" points="1613.82,-984.03 1604.9,-978.32 1608.32,-988.35 1613.82,-984.03"/>
<text text-anchor="start" x="1620.97" y="-1023.01" font-family="Times New Roman,serif" font-size="14.00">isa</text>
</g>
<!-- Entity116 -->
<g id="node12" class="node entity">
<title>Entity116</title>
<ellipse fill="none" stroke="black" cx="1188.33" cy="-610.23" rx="56.59" ry="18"/>
<text text-anchor="start" x="1152.83" y="-606.53" font-family="Times New Roman,serif" font-size="14.00">harry truman</text>
</g>
<!-- Entity116&#45;&gt;Entity180 -->
<g id="edge12" class="edge verb">
<title>Entity116&#45;&gt;Entity180</title>
<path fill="none" stroke="black" d="M1207.8,-627.19C1274.22,-685.05 1491.9,-874.67 1566.59,-939.73"/>
<polygon fill="black" stroke="black" points="1564.73,-942.75 1574.57,-946.68 1569.33,-937.48 1564.73,-942.75"/>
<text text-anchor="start" x="1371.19" y="-787.26" font-family="Times New Roman,serif" font-size="14.00">isa</text>
</g>
<!-- Entity179 -->
<g id="node13" class="node entity">
<title>Entity179</title>
<ellipse fill="none" stroke="black" cx="853.18" cy="-284.8" rx="34.39" ry="18"/>
<text text-anchor="start" x="834.68" y="-281.1" font-family="Times New Roman,serif" font-size="14.00">mason</text>
</g>
<!-- Entity116&#45;&gt;Entity179 -->
<g id="edge11" class="edge verb">
<title>Entity116&#45;&gt;Entity179</title>
<path fill="none" stroke="black" d="M1170.31,-592.73C1113.87,-537.93 940.48,-369.56 876.88,-307.81"/>
<polygon fill="black" stroke="black" points="879.3,-305.28 869.69,-300.83 874.42,-310.3 879.3,-305.28"/>
<text text-anchor="start" x="1007.6" y="-454.07" font-family="Times New Roman,serif" font-size="14.00">isa</text>
</g>
<!-- Entity125 -->
<g id="node14" class="node entity">
<title>Entity125</title>
<ellipse fill="none" stroke="black" cx="1439.16" cy="-714.88" rx="27" ry="18"/>
<text text-anchor="start" x="1431.66" y="-711.18" font-family="Times New Roman,serif" font-size="14.00">jfk</text>
</g>
<!-- Entity125&#45;&gt;Entity180 -->
<g id="edge13" class="edge verb">
<title>Entity125&#45;&gt;Entity180</title>
<path fill="none" stroke="black" d="M1449.67,-731.86C1475.95,-774.33 1544.69,-885.42 1576.03,-936.05"/>
<polygon fill="black" stroke="black" points="1573.18,-938.11 1581.42,-944.77 1579.14,-934.43 1573.18,-938.11"/>
<text text-anchor="start" x="1496.85" y="-837.76" font-family="Times New Roman,serif" font-size="14.00">isa</text>
</g>
<!-- Entity132 -->
<g id="node15" class="node entity">
<title>Entity132</title>
<ellipse fill="none" stroke="black" cx="1719.01" cy="-1557.74" rx="59.59" ry="18"/>
<text text-anchor="start" x="1681.01" y="-1554.04" font-family="Times New Roman,serif" font-size="14.00">donald trump</text>
</g>
<!-- Entity132&#45;&gt;Entity180 -->
<g id="edge14" class="edge verb">
<title>Entity132&#45;&gt;Entity180</title>
<path fill="none" stroke="black" d="M1715.14,-1539.58C1696.97,-1454.34 1620.1,-1093.7 1597.98,-989.92"/>
<polygon fill="black" stroke="black" points="1601.35,-988.94 1595.84,-979.89 1594.5,-990.4 1601.35,-988.94"/>
<text text-anchor="start" x="1640.56" y="-1268.55" font-family="Times New Roman,serif" font-size="14.00">isa</text>
</g>
<!-- Entity154 -->
<g id="node39" class="node entity">
<title>Entity154</title>
<ellipse fill="none" stroke="black" cx="2527.96" cy="-1470.55" rx="50.09" ry="18"/>
<text text-anchor="start" x="2497.46" y="-1466.85" font-family="Times New Roman,serif" font-size="14.00">john trump</text>
</g>
<!-- Entity132&#45;&gt;Entity154 -->
<g id="edge41" class="edge verb">
<title>Entity132&#45;&gt;Entity154</title>
<path fill="none" stroke="black" d="M1775.58,-1551.64C1923.34,-1535.72 2319.81,-1492.99 2469.58,-1476.84"/>
<polygon fill="black" stroke="black" points="2470.37,-1480.28 2479.93,-1475.73 2469.62,-1473.32 2470.37,-1480.28"/>
<text text-anchor="start" x="2063.58" y="-1518.04" font-family="Times New Roman,serif" font-size="14.00">nephew of</text>
</g>
<!-- Entity126 -->
<g id="node16" class="node entity">
<title>Entity126</title>
<ellipse fill="none" stroke="black" cx="1187.13" cy="-1130.64" rx="58.49" ry="18"/>
<text text-anchor="start" x="1150.13" y="-1126.94" font-family="Times New Roman,serif" font-size="14.00">richard nixon</text>
</g>
<!-- Entity126&#45;&gt;Entity180 -->
<g id="edge15" class="edge verb">
<title>Entity126&#45;&gt;Entity180</title>
<path fill="none" stroke="black" d="M1222,-1116.11C1298.52,-1084.21 1480.43,-1008.38 1557.04,-976.45"/>
<polygon fill="black" stroke="black" points="1558.39,-979.67 1566.27,-972.6 1555.69,-973.21 1558.39,-979.67"/>
<text text-anchor="start" x="1373.52" y="-1050.08" font-family="Times New Roman,serif" font-size="14.00">isa</text>
</g>
<!-- Entity138 -->
<g id="node17" class="node entity">
<title>Entity138</title>
<ellipse fill="none" stroke="black" cx="1415.43" cy="-502.22" rx="63.89" ry="18"/>
<text text-anchor="start" x="1374.43" y="-498.52" font-family="Times New Roman,serif" font-size="14.00">george w bush</text>
</g>
<!-- Entity138&#45;&gt;Entity180 -->
<g id="edge16" class="edge verb">
<title>Entity138&#45;&gt;Entity180</title>
<path fill="none" stroke="black" d="M1422.35,-520.24C1449.49,-590.89 1548.78,-849.35 1581.48,-934.48"/>
<polygon fill="black" stroke="black" points="1578.27,-935.9 1585.13,-943.98 1584.81,-933.39 1578.27,-935.9"/>
<text text-anchor="start" x="1485.91" y="-731.16" font-family="Times New Roman,serif" font-size="14.00">isa</text>
</g>
<!-- Entity131 -->
<g id="node18" class="node entity">
<title>Entity131</title>
<ellipse fill="none" stroke="black" cx="1153.42" cy="-784.82" rx="68.49" ry="18"/>
<text text-anchor="start" x="1108.92" y="-781.12" font-family="Times New Roman,serif" font-size="14.00">george hw bush</text>
</g>
<!-- Entity131&#45;&gt;Entity180 -->
<g id="edge17" class="edge verb">
<title>Entity131&#45;&gt;Entity180</title>
<path fill="none" stroke="black" d="M1190.81,-799.92C1274.42,-833.67 1475.5,-914.84 1556.91,-947.7"/>
<polygon fill="black" stroke="black" points="1555.64,-950.97 1566.22,-951.46 1558.26,-944.47 1555.64,-950.97"/>
<text text-anchor="start" x="1357.86" y="-877.61" font-family="Times New Roman,serif" font-size="14.00">isa</text>
</g>
<!-- Entity127 -->
<g id="node19" class="node entity">
<title>Entity127</title>
<ellipse fill="none" stroke="black" cx="2115.05" cy="-1039.52" rx="31.4" ry="18"/>
<text text-anchor="start" x="2099.05" y="-1035.82" font-family="Times New Roman,serif" font-size="14.00">carter</text>
</g>
<!-- Entity127&#45;&gt;Entity180 -->
<g id="edge18" class="edge verb">
<title>Entity127&#45;&gt;Entity180</title>
<path fill="none" stroke="black" d="M2084.67,-1035.01C1995.38,-1021.75 1733.76,-982.91 1632.59,-967.9"/>
<polygon fill="black" stroke="black" points="1632.87,-964.4 1622.47,-966.39 1631.84,-971.32 1632.87,-964.4"/>
<text text-anchor="start" x="1842.63" y="-1005.25" font-family="Times New Roman,serif" font-size="14.00">isa</text>
</g>
<!-- Entity184 -->
<g id="node23" class="node entity">
<title>Entity184</title>
<ellipse fill="none" stroke="black" cx="2617.42" cy="-1157.82" rx="27" ry="18"/>
<text text-anchor="start" x="2607.92" y="-1154.12" font-family="Times New Roman,serif" font-size="14.00">ufo</text>
</g>
<!-- Entity127&#45;&gt;Entity184 -->
<g id="edge22" class="edge verb">
<title>Entity127&#45;&gt;Entity184</title>
<path fill="none" stroke="black" d="M2144.23,-1046.39C2231.02,-1066.83 2487.38,-1127.19 2581.9,-1149.45"/>
<polygon fill="black" stroke="black" points="2581.29,-1152.9 2591.83,-1151.79 2582.9,-1146.09 2581.29,-1152.9"/>
<text text-anchor="start" x="2308.06" y="-1101.72" font-family="Times New Roman,serif" font-size="14.00">witnessed</text>
</g>
<!-- Entity130 -->
<g id="node20" class="node entity">
<title>Entity130</title>
<ellipse fill="none" stroke="black" cx="1625.83" cy="-610.37" rx="35.19" ry="18"/>
<text text-anchor="start" x="1606.83" y="-606.67" font-family="Times New Roman,serif" font-size="14.00">obama</text>
</g>
<!-- Entity130&#45;&gt;Entity180 -->
<g id="edge19" class="edge verb">
<title>Entity130&#45;&gt;Entity180</title>
<path fill="none" stroke="black" d="M1624.06,-628.78C1618.51,-686.43 1601.44,-863.85 1594.74,-933.44"/>
<polygon fill="black" stroke="black" points="1591.23,-933.36 1593.75,-943.65 1598.2,-934.03 1591.23,-933.36"/>
<text text-anchor="start" x="1593.4" y="-784.91" font-family="Times New Roman,serif" font-size="14.00">isa</text>
</g>
<!-- Entity128 -->
<g id="node21" class="node entity">
<title>Entity128</title>
<ellipse fill="none" stroke="black" cx="3075.5" cy="-1303.3" rx="27" ry="18"/>
<text text-anchor="start" x="3067.5" y="-1299.6" font-family="Times New Roman,serif" font-size="14.00">cia</text>
</g>
<!-- Entity128&#45;&gt;Entity11 -->
<g id="edge20" class="edge verb">
<title>Entity128&#45;&gt;Entity11</title>
<path fill="none" stroke="black" d="M3102.92,-1303.02C3209.07,-1301.95 3595.75,-1298.06 3771.26,-1296.29"/>
<polygon fill="black" stroke="black" points="3771.53,-1299.79 3781.49,-1296.19 3771.46,-1292.79 3771.53,-1299.79"/>
<text text-anchor="start" x="3373.09" y="-1303.46" font-family="Times New Roman,serif" font-size="14.00">investigates</text>
</g>
<!-- Entity128&#45;&gt;Entity184 -->
<g id="edge26" class="edge verb">
<title>Entity128&#45;&gt;Entity184</title>
<path fill="none" stroke="black" d="M3050.87,-1295.48C2974.27,-1271.15 2740.09,-1196.78 2651.69,-1168.7"/>
<polygon fill="black" stroke="black" points="2652.48,-1165.28 2641.89,-1165.59 2650.36,-1171.95 2652.48,-1165.28"/>
<text text-anchor="start" x="2787.28" y="-1235.89" font-family="Times New Roman,serif" font-size="14.00">investigates</text>
</g>
<!-- Entity134 -->
<g id="node22" class="node entity">
<title>Entity134</title>
<ellipse fill="none" stroke="black" cx="4377.43" cy="-1322.8" rx="63.89" ry="18"/>
<text text-anchor="start" x="4336.43" y="-1319.1" font-family="Times New Roman,serif" font-size="14.00">robert bigelow</text>
</g>
<!-- Entity134&#45;&gt;Entity115 -->
<g id="edge23" class="edge verb">
<title>Entity134&#45;&gt;Entity115</title>
<path fill="none" stroke="black" d="M4375.26,-1304.49C4373.27,-1287.64 4370.29,-1262.39 4368,-1242.98"/>
<polygon fill="black" stroke="black" points="4371.45,-1242.41 4366.8,-1232.89 4364.5,-1243.23 4371.45,-1242.41"/>
<text text-anchor="start" x="4339.63" y="-1277.54" font-family="Times New Roman,serif" font-size="14.00">funds</text>
</g>
<!-- Entity134&#45;&gt;Entity11 -->
<g id="edge21" class="edge verb">
<title>Entity134&#45;&gt;Entity11</title>
<path fill="none" stroke="black" d="M4314.63,-1319.48C4222.14,-1314.6 4049.01,-1305.45 3944.83,-1299.94"/>
<polygon fill="black" stroke="black" points="3944.83,-1296.44 3934.66,-1299.41 3944.46,-1303.43 3944.83,-1296.44"/>
<text text-anchor="start" x="4065.73" y="-1313.51" font-family="Times New Roman,serif" font-size="14.00">investigates</text>
</g>
<!-- Entity139 -->
<g id="node24" class="node entity">
<title>Entity139</title>
<ellipse fill="none" stroke="black" cx="1945.74" cy="-591.52" rx="71.49" ry="18"/>
<text text-anchor="start" x="1898.74" y="-587.82" font-family="Times New Roman,serif" font-size="14.00">woodrow wilson</text>
</g>
<!-- Entity139&#45;&gt;Entity180 -->
<g id="edge24" class="edge verb">
<title>Entity139&#45;&gt;Entity180</title>
<path fill="none" stroke="black" d="M1928.68,-609.38C1870.47,-670.32 1679.72,-870.04 1614.27,-938.55"/>
<polygon fill="black" stroke="black" points="1611.65,-936.23 1607.28,-945.87 1616.72,-941.06 1611.65,-936.23"/>
<text text-anchor="start" x="1755.47" y="-777.77" font-family="Times New Roman,serif" font-size="14.00">isa</text>
</g>
<!-- Entity189 -->
<g id="node28" class="node entity">
<title>Entity189</title>
<ellipse fill="none" stroke="black" cx="1992.74" cy="-483.61" rx="71.49" ry="18"/>
<text text-anchor="start" x="1945.74" y="-479.91" font-family="Times New Roman,serif" font-size="14.00">leauge of nations</text>
</g>
<!-- Entity139&#45;&gt;Entity189 -->
<g id="edge29" class="edge verb">
<title>Entity139&#45;&gt;Entity189</title>
<path fill="none" stroke="black" d="M1953.71,-573.21C1961.15,-556.14 1972.34,-530.43 1980.84,-510.93"/>
<polygon fill="black" stroke="black" points="1984.1,-512.21 1984.88,-501.65 1977.68,-509.42 1984.1,-512.21"/>
<text text-anchor="start" x="1926.28" y="-545.87" font-family="Times New Roman,serif" font-size="14.00">created</text>
</g>
<!-- Entity145 -->
<g id="node25" class="node entity">
<title>Entity145</title>
<ellipse fill="none" stroke="black" cx="1944.37" cy="-17.89" rx="53.89" ry="18"/>
<text text-anchor="start" x="1910.87" y="-14.19" font-family="Times New Roman,serif" font-size="14.00">edgar casey</text>
</g>
<!-- Entity145&#45;&gt;Entity139 -->
<g id="edge27" class="edge verb">
<title>Entity145&#45;&gt;Entity139</title>
<path fill="none" stroke="black" d="M1944.41,-36C1944.61,-118.87 1945.43,-462.14 1945.67,-563.33"/>
<polygon fill="black" stroke="black" points="1942.17,-563.41 1945.69,-573.4 1949.17,-563.39 1942.17,-563.41"/>
<text text-anchor="start" x="1903.04" y="-303.46" font-family="Times New Roman,serif" font-size="14.00">advises</text>
</g>
<!-- Entity137 -->
<g id="node26" class="node entity">
<title>Entity137</title>
<ellipse fill="none" stroke="black" cx="2099.09" cy="-1470.59" rx="58.49" ry="18"/>
<text text-anchor="start" x="2062.09" y="-1466.89" font-family="Times New Roman,serif" font-size="14.00">rudolf steiner</text>
</g>
<!-- Entity269 -->
<g id="node27" class="node entity">
<title>Entity269</title>
<ellipse fill="none" stroke="black" cx="2204.45" cy="-1578.62" rx="102.08" ry="18"/>
<text text-anchor="start" x="2133.95" y="-1574.92" font-family="Times New Roman,serif" font-size="14.00">anthroposophical society</text>
</g>
<!-- Entity137&#45;&gt;Entity269 -->
<g id="edge28" class="edge verb">
<title>Entity137&#45;&gt;Entity269</title>
<path fill="none" stroke="black" d="M2116.01,-1487.95C2133.24,-1505.61 2160.13,-1533.18 2179.74,-1553.28"/>
<polygon fill="black" stroke="black" points="2177.37,-1555.87 2186.86,-1560.59 2182.38,-1550.99 2177.37,-1555.87"/>
<text text-anchor="start" x="2147.87" y="-1524.41" font-family="Times New Roman,serif" font-size="14.00">created</text>
</g>
<!-- Entity188 -->
<g id="node30" class="node entity">
<title>Entity188</title>
<ellipse fill="none" stroke="black" cx="2233.94" cy="-1362.04" rx="85.29" ry="18"/>
<text text-anchor="start" x="2176.44" y="-1358.34" font-family="Times New Roman,serif" font-size="14.00">theosophical society</text>
</g>
<!-- Entity137&#45;&gt;Entity188 -->
<g id="edge31" class="edge verb">
<title>Entity137&#45;&gt;Entity188</title>
<path fill="none" stroke="black" d="M2120.16,-1453.63C2142.75,-1435.44 2178.8,-1406.42 2204.26,-1385.93"/>
<polygon fill="black" stroke="black" points="2206.53,-1388.6 2212.13,-1379.6 2202.14,-1383.14 2206.53,-1388.6"/>
<text text-anchor="start" x="2096.21" y="-1423.58" font-family="Times New Roman,serif" font-size="14.00">memberr of</text>
</g>
<!-- Entity142 -->
<g id="node29" class="node entity">
<title>Entity142</title>
<ellipse fill="none" stroke="black" cx="2326.02" cy="-2021.96" rx="73.39" ry="18"/>
<text text-anchor="start" x="2277.52" y="-2018.26" font-family="Times New Roman,serif" font-size="14.00">madam blavatsky</text>
</g>
<!-- Entity142&#45;&gt;Entity188 -->
<g id="edge30" class="edge verb">
<title>Entity142&#45;&gt;Entity188</title>
<path fill="none" stroke="black" d="M2323.51,-2003.97C2310.8,-1912.91 2253.58,-1502.8 2237.92,-1390.53"/>
<polygon fill="black" stroke="black" points="2241.34,-1389.75 2236.5,-1380.33 2234.41,-1390.72 2241.34,-1389.75"/>
<text text-anchor="start" x="2239.71" y="-1701.05" font-family="Times New Roman,serif" font-size="14.00">created</text>
</g>
<!-- Entity140 -->
<g id="node31" class="node entity">
<title>Entity140</title>
<ellipse fill="none" stroke="black" cx="1152.08" cy="-2108.02" rx="58.49" ry="18"/>
<text text-anchor="start" x="1115.08" y="-2104.32" font-family="Times New Roman,serif" font-size="14.00">steve bannon</text>
</g>
<!-- Entity140&#45;&gt;Entity132 -->
<g id="edge33" class="edge verb">
<title>Entity140&#45;&gt;Entity132</title>
<path fill="none" stroke="black" d="M1173.45,-2090.99C1263.07,-2011.48 1607.33,-1677.44 1697.4,-1582.78"/>
<polygon fill="black" stroke="black" points="1700.07,-1585.05 1704.38,-1575.37 1694.97,-1580.25 1700.07,-1585.05"/>
<text text-anchor="start" x="1380.43" y="-1840.69" font-family="Times New Roman,serif" font-size="14.00">promoted</text>
</g>
<!-- Entity140&#45;&gt;Entity132 -->
<g id="edge40" class="edge verb">
<title>Entity140&#45;&gt;Entity132</title>
<path fill="none" stroke="black" d="M1166.72,-2090.38C1242.25,-2009.4 1587.25,-1674.24 1690.07,-1581.54"/>
<polygon fill="black" stroke="black" points="1692.49,-1584.07 1697.6,-1574.8 1687.82,-1578.86 1692.49,-1584.07"/>
<text text-anchor="start" x="1386.39" y="-1824.76" font-family="Times New Roman,serif" font-size="14.00">advises</text>
</g>
<!-- Entity265 -->
<g id="node32" class="node entity">
<title>Entity265</title>
<ellipse fill="none" stroke="black" cx="1012.84" cy="-2546.57" rx="35.19" ry="18"/>
<text text-anchor="start" x="993.84" y="-2542.87" font-family="Times New Roman,serif" font-size="14.00">gurgev</text>
</g>
<!-- Entity140&#45;&gt;Entity265 -->
<g id="edge32" class="edge verb">
<title>Entity140&#45;&gt;Entity265</title>
<path fill="none" stroke="black" d="M1146.36,-2126.03C1124.72,-2194.19 1047.73,-2436.67 1021.59,-2518.99"/>
<polygon fill="black" stroke="black" points="1018.22,-2518.06 1018.53,-2528.65 1024.89,-2520.18 1018.22,-2518.06"/>
<text text-anchor="start" x="1042.98" y="-2326.31" font-family="Times New Roman,serif" font-size="14.00">studied</text>
</g>
<!-- Entity270 -->
<g id="node33" class="node entity">
<title>Entity270</title>
<ellipse fill="none" stroke="black" cx="840.89" cy="-2438.56" rx="38.19" ry="18"/>
<text text-anchor="start" x="819.39" y="-2434.86" font-family="Times New Roman,serif" font-size="14.00">us navy</text>
</g>
<!-- Entity140&#45;&gt;Entity270 -->
<g id="edge34" class="edge verb">
<title>Entity140&#45;&gt;Entity270</title>
<path fill="none" stroke="black" d="M1135.79,-2125.33C1084.1,-2180.23 923.68,-2350.62 863.77,-2414.25"/>
<polygon fill="black" stroke="black" points="860.96,-2412.14 856.65,-2421.82 866.05,-2416.93 860.96,-2412.14"/>
<text text-anchor="start" x="938.78" y="-2273.59" font-family="Times New Roman,serif" font-size="14.00">member of</text>
</g>
<!-- Entity267 -->
<g id="node34" class="node entity">
<title>Entity267</title>
<ellipse fill="none" stroke="black" cx="1278.03" cy="-2608.67" rx="53.09" ry="18"/>
<text text-anchor="start" x="1245.03" y="-2604.97" font-family="Times New Roman,serif" font-size="14.00">biosphere 2</text>
</g>
<!-- Entity140&#45;&gt;Entity267 -->
<g id="edge35" class="edge verb">
<title>Entity140&#45;&gt;Entity267</title>
<path fill="none" stroke="black" d="M1156.63,-2126.13C1175.56,-2201.34 1248,-2489.31 1270.99,-2580.68"/>
<polygon fill="black" stroke="black" points="1267.65,-2581.74 1273.48,-2590.58 1274.44,-2580.03 1267.65,-2581.74"/>
<text text-anchor="start" x="1172.81" y="-2357.21" font-family="Times New Roman,serif" font-size="14.00">created</text>
</g>
<!-- Entity268 -->
<g id="node35" class="node entity">
<title>Entity268</title>
<ellipse fill="none" stroke="black" cx="1153.14" cy="-2216.01" rx="64.99" ry="18"/>
<text text-anchor="start" x="1111.14" y="-2212.31" font-family="Times New Roman,serif" font-size="14.00">goldman sachs</text>
</g>
<!-- Entity140&#45;&gt;Entity268 -->
<g id="edge36" class="edge verb">
<title>Entity140&#45;&gt;Entity268</title>
<path fill="none" stroke="black" d="M1152.26,-2126.34C1152.42,-2143.2 1152.67,-2168.45 1152.86,-2187.87"/>
<polygon fill="black" stroke="black" points="1149.37,-2188 1152.96,-2197.96 1156.37,-2187.93 1149.37,-2188"/>
<text text-anchor="start" x="1089.56" y="-2160.9" font-family="Times New Roman,serif" font-size="14.00">worked for</text>
</g>
<!-- Entity191 -->
<g id="node36" class="node entity">
<title>Entity191</title>
<ellipse fill="none" stroke="black" cx="586.74" cy="-2277.43" rx="61.99" ry="18"/>
<text text-anchor="start" x="547.24" y="-2273.73" font-family="Times New Roman,serif" font-size="14.00">breitbart news</text>
</g>
<!-- Entity140&#45;&gt;Entity191 -->
<g id="edge37" class="edge verb">
<title>Entity140&#45;&gt;Entity191</title>
<path fill="none" stroke="black" d="M1110.05,-2120.61C1008.7,-2150.98 751.03,-2228.2 639.51,-2261.62"/>
<polygon fill="black" stroke="black" points="638.4,-2258.3 629.82,-2264.52 640.41,-2265 638.4,-2258.3"/>
<text text-anchor="start" x="833.78" y="-2194.92" font-family="Times New Roman,serif" font-size="14.00">created</text>
</g>
<!-- Entity266 -->
<g id="node37" class="node entity">
<title>Entity266</title>
<ellipse fill="none" stroke="black" cx="493.89" cy="-2385.41" rx="77.19" ry="18"/>
<text text-anchor="start" x="442.39" y="-2381.71" font-family="Times New Roman,serif" font-size="14.00">hollywood movies</text>
</g>
<!-- Entity140&#45;&gt;Entity266 -->
<g id="edge38" class="edge verb">
<title>Entity140&#45;&gt;Entity266</title>
<path fill="none" stroke="black" d="M1117.16,-2122.74C1006.94,-2169.19 666.38,-2312.71 540.92,-2365.59"/>
<polygon fill="black" stroke="black" points="539.42,-2362.42 531.56,-2369.53 542.14,-2368.87 539.42,-2362.42"/>
<text text-anchor="start" x="774.04" y="-2247.96" font-family="Times New Roman,serif" font-size="14.00">produced</text>
</g>
<!-- Entity151 -->
<g id="node38" class="node entity">
<title>Entity151</title>
<ellipse fill="none" stroke="black" cx="69.44" cy="-2544.47" rx="69.59" ry="18"/>
<text text-anchor="start" x="23.94" y="-2540.77" font-family="Times New Roman,serif" font-size="14.00">andrew breitbart</text>
</g>
<!-- Entity151&#45;&gt;Entity191 -->
<g id="edge39" class="edge verb">
<title>Entity151&#45;&gt;Entity191</title>
<path fill="none" stroke="black" d="M100.63,-2528.37C190.15,-2482.16 447.76,-2349.17 547.06,-2297.92"/>
<polygon fill="black" stroke="black" points="548.88,-2300.91 556.16,-2293.22 545.67,-2294.69 548.88,-2300.91"/>
<text text-anchor="start" x="282.84" y="-2416.94" font-family="Times New Roman,serif" font-size="14.00">created</text>
</g>
<!-- Entity154&#45;&gt;Entity128 -->
<g id="edge42" class="edge verb">
<title>Entity154&#45;&gt;Entity128</title>
<path fill="none" stroke="black" d="M2566.46,-1458.79C2668.38,-1427.66 2944,-1343.46 3041.09,-1313.81"/>
<polygon fill="black" stroke="black" points="3042.17,-1317.14 3050.71,-1310.87 3040.12,-1310.44 3042.17,-1317.14"/>
<text text-anchor="start" x="2742.78" y="-1390.1" font-family="Times New Roman,serif" font-size="14.00">member of</text>
</g>
<!-- Entity271 -->
<g id="node40" class="node entity">
<title>Entity271</title>
<ellipse fill="none" stroke="black" cx="2808.72" cy="-1845.18" rx="50.89" ry="18"/>
<text text-anchor="start" x="2777.72" y="-1841.48" font-family="Times New Roman,serif" font-size="14.00">nikola tesla</text>
</g>
<!-- Entity154&#45;&gt;Entity271 -->
<g id="edge43" class="edge verb">
<title>Entity154&#45;&gt;Entity271</title>
<path fill="none" stroke="black" d="M2541.13,-1488.12C2586.44,-1548.59 2736.13,-1748.32 2789.56,-1819.61"/>
<polygon fill="black" stroke="black" points="2786.78,-1821.75 2795.58,-1827.65 2792.39,-1817.55 2786.78,-1821.75"/>
<text text-anchor="start" x="2624.34" y="-1657.66" font-family="Times New Roman,serif" font-size="14.00">studied</text>
</g>
<!-- Entity152 -->
<g id="node41" class="node entity">
<title>Entity152</title>
<ellipse fill="none" stroke="black" cx="2263.41" cy="-1253.98" rx="90.98" ry="18"/>
<text text-anchor="start" x="2201.41" y="-1250.28" font-family="Times New Roman,serif" font-size="14.00">emma hardinge&#45;britten</text>
</g>
<!-- Entity152&#45;&gt;Entity161 -->
<g id="edge45" class="edge verb">
<title>Entity152&#45;&gt;Entity161</title>
<path fill="none" stroke="black" d="M2214.65,-1238.68C2105.88,-1204.55 1844.1,-1122.41 1730.65,-1086.82"/>
<polygon fill="black" stroke="black" points="1731.38,-1083.38 1720.79,-1083.73 1729.29,-1090.06 1731.38,-1083.38"/>
<text text-anchor="start" x="1873.65" y="-1166.55" font-family="Times New Roman,serif" font-size="14.00">spokesperson for</text>
</g>
<!-- Entity152&#45;&gt;Entity188 -->
<g id="edge44" class="edge verb">
<title>Entity152&#45;&gt;Entity188</title>
<path fill="none" stroke="black" d="M2258.41,-1272.31C2253.79,-1289.26 2246.86,-1314.68 2241.55,-1334.15"/>
<polygon fill="black" stroke="black" points="2238.12,-1333.41 2238.87,-1343.98 2244.88,-1335.25 2238.12,-1333.41"/>
<text text-anchor="start" x="2208.98" y="-1307.03" font-family="Times New Roman,serif" font-size="14.00">created</text>
</g>
<!-- Entity272 -->
<g id="node42" class="node entity">
<title>Entity272</title>
<ellipse fill="none" stroke="black" cx="2515.72" cy="-743.43" rx="39.79" ry="18"/>
<text text-anchor="start" x="2493.22" y="-739.73" font-family="Times New Roman,serif" font-size="14.00">medium</text>
</g>
<!-- Entity152&#45;&gt;Entity272 -->
<g id="edge46" class="edge verb">
<title>Entity152&#45;&gt;Entity272</title>
<path fill="none" stroke="black" d="M2272.39,-1235.81C2310.3,-1159.11 2457.32,-861.62 2502.46,-770.27"/>
<polygon fill="black" stroke="black" points="2505.69,-771.64 2506.98,-761.12 2499.41,-768.54 2505.69,-771.64"/>
<text text-anchor="start" x="2371.43" y="-1006.84" font-family="Times New Roman,serif" font-size="14.00">isa</text>
</g>
<!-- Entity192 -->
<g id="node43" class="node entity">
<title>Entity192</title>
<ellipse fill="none" stroke="black" cx="2759.1" cy="-875.42" rx="55.79" ry="18"/>
<text text-anchor="start" x="2724.1" y="-871.72" font-family="Times New Roman,serif" font-size="14.00">orphic circle</text>
</g>
<!-- Entity152&#45;&gt;Entity192 -->
<g id="edge47" class="edge verb">
<title>Entity152&#45;&gt;Entity192</title>
<path fill="none" stroke="black" d="M2286.33,-1236.48C2367.11,-1174.79 2638.63,-967.42 2729.32,-898.16"/>
<polygon fill="black" stroke="black" points="2731.45,-900.94 2737.27,-892.08 2727.2,-895.37 2731.45,-900.94"/>
<text text-anchor="start" x="2446.82" y="-1071.12" font-family="Times New Roman,serif" font-size="14.00">member of</text>
</g>
<!-- Entity160 -->
<g id="node44" class="node entity">
<title>Entity160</title>
<ellipse fill="none" stroke="black" cx="3998.94" cy="-806.66" rx="53.89" ry="18"/>
<text text-anchor="start" x="3965.44" y="-802.96" font-family="Times New Roman,serif" font-size="14.00">black magic</text>
</g>
<!-- Entity193 -->
<g id="node45" class="node entity">
<title>Entity193</title>
<ellipse fill="none" stroke="black" cx="4086.66" cy="-918.64" rx="28.7" ry="18"/>
<text text-anchor="start" x="4072.66" y="-914.94" font-family="Times New Roman,serif" font-size="14.00">x left</text>
</g>
<!-- Entity160&#45;&gt;Entity193 -->
<g id="edge48" class="edge verb">
<title>Entity160&#45;&gt;Entity193</title>
<path fill="none" stroke="black" d="M4012.64,-824.16C4027.45,-843.05 4051.14,-873.29 4067.72,-894.45"/>
<polygon fill="black" stroke="black" points="4064.98,-896.64 4073.9,-902.36 4070.49,-892.32 4064.98,-896.64"/>
<text text-anchor="start" x="3979.18" y="-863.11" font-family="Times New Roman,serif" font-size="14.00">member of</text>
</g>
<!-- Entity162 -->
<g id="node46" class="node entity">
<title>Entity162</title>
<ellipse fill="none" stroke="black" cx="4247.94" cy="-1858.66" rx="39.79" ry="18"/>
<text text-anchor="start" x="4225.44" y="-1854.96" font-family="Times New Roman,serif" font-size="14.00">crowley</text>
</g>
<!-- Entity194 -->
<g id="node47" class="node entity">
<title>Entity194</title>
<ellipse fill="none" stroke="black" cx="4335.66" cy="-1970.64" rx="38.99" ry="18"/>
<text text-anchor="start" x="4313.66" y="-1966.94" font-family="Times New Roman,serif" font-size="14.00">x magic</text>
</g>
<!-- Entity162&#45;&gt;Entity194 -->
<g id="edge49" class="edge verb">
<title>Entity162&#45;&gt;Entity194</title>
<path fill="none" stroke="black" d="M4261.26,-1875.67C4275.82,-1894.25 4299.28,-1924.2 4315.96,-1945.49"/>
<polygon fill="black" stroke="black" points="4313.29,-1947.76 4322.21,-1953.47 4318.8,-1943.44 4313.29,-1947.76"/>
<text text-anchor="start" x="4227.61" y="-1914.38" font-family="Times New Roman,serif" font-size="14.00">member of</text>
</g>
<!-- Entity163 -->
<g id="node48" class="node entity">
<title>Entity163</title>
<ellipse fill="none" stroke="black" cx="5773.7" cy="-2086.07" rx="57.69" ry="18"/>
<text text-anchor="start" x="5737.2" y="-2082.37" font-family="Times New Roman,serif" font-size="14.00">michael pane</text>
</g>
<!-- Entity163&#45;&gt;Entity178 -->
<g id="edge50" class="edge verb">
<title>Entity163&#45;&gt;Entity178</title>
<path fill="none" stroke="black" d="M5752.22,-2069.2C5679.31,-2011.96 5441.2,-1825 5357.63,-1759.38"/>
<polygon fill="black" stroke="black" points="5359.61,-1756.48 5349.58,-1753.06 5355.28,-1761.99 5359.61,-1756.48"/>
<text text-anchor="start" x="5498.92" y="-1918.09" font-family="Times New Roman,serif" font-size="14.00">worked at</text>
</g>
<!-- Entity165 -->
<g id="node49" class="node entity">
<title>Entity165</title>
<ellipse fill="none" stroke="black" cx="5904.05" cy="-2194.12" rx="74.99" ry="18"/>
<text text-anchor="start" x="5854.55" y="-2190.42" font-family="Times New Roman,serif" font-size="14.00">walter dornberger</text>
</g>
<!-- Entity163&#45;&gt;Entity165 -->
<g id="edge51" class="edge verb">
<title>Entity163&#45;&gt;Entity165</title>
<path fill="none" stroke="black" d="M5794.07,-2102.95C5815.81,-2120.98 5850.45,-2149.69 5875.04,-2170.07"/>
<polygon fill="black" stroke="black" points="5873.03,-2172.95 5882.96,-2176.64 5877.5,-2167.56 5873.03,-2172.95"/>
<text text-anchor="start" x="5771.55" y="-2140.31" font-family="Times New Roman,serif" font-size="14.00">worked for</text>
</g>
<!-- Entity165&#45;&gt;Entity178 -->
<g id="edge52" class="edge verb">
<title>Entity165&#45;&gt;Entity178</title>
<path fill="none" stroke="black" d="M5886.22,-2176.55C5804.86,-2105.16 5468.91,-1837.79 5361.47,-1758.55"/>
<polygon fill="black" stroke="black" points="5363.39,-1755.62 5353.26,-1752.53 5359.26,-1761.27 5363.39,-1755.62"/>
<text text-anchor="start" x="5567.85" y="-1956.35" font-family="Times New Roman,serif" font-size="14.00">worked at</text>
</g>
<!-- Entity165&#45;&gt;Entity178 -->
<g id="edge53" class="edge verb">
<title>Entity165&#45;&gt;Entity178</title>
<path fill="none" stroke="black" d="M5877.86,-2177.04C5781.44,-2106.83 5447.46,-1841.35 5353.21,-1760.07"/>
<polygon fill="black" stroke="black" points="5355.44,-1757.37 5345.6,-1753.45 5350.84,-1762.65 5355.44,-1757.37"/>
<text text-anchor="start" x="5536.53" y="-1972.36" font-family="Times New Roman,serif" font-size="14.00">vice&#45;president</text>
</g>
<!-- Entity195 -->
<g id="node50" class="node entity">
<title>Entity195</title>
<ellipse fill="none" stroke="black" cx="6486.02" cy="-1928" rx="90.98" ry="18"/>
<text text-anchor="start" x="6424.02" y="-1924.3" font-family="Times New Roman,serif" font-size="14.00">nsdap rocket program</text>
</g>
<!-- Entity165&#45;&gt;Entity195 -->
<g id="edge54" class="edge verb">
<title>Entity165&#45;&gt;Entity195</title>
<path fill="none" stroke="black" d="M5939.15,-2178.07C6039.56,-2132.16 6327.98,-2000.27 6440.39,-1948.87"/>
<polygon fill="black" stroke="black" points="6442.13,-1951.92 6449.76,-1944.58 6439.21,-1945.56 6442.13,-1951.92"/>
<text text-anchor="start" x="6148.77" y="-2067.27" font-family="Times New Roman,serif" font-size="14.00">created</text>
</g>
<!-- Entity177 -->
<g id="node51" class="node entity">
<title>Entity177</title>
<ellipse fill="none" stroke="black" cx="6435.31" cy="-2532.52" rx="32.49" ry="18"/>
<text text-anchor="start" x="6418.31" y="-2528.82" font-family="Times New Roman,serif" font-size="14.00">nsdap</text>
</g>
<!-- Entity165&#45;&gt;Entity177 -->
<g id="edge55" class="edge verb">
<title>Entity165&#45;&gt;Entity177</title>
<path fill="none" stroke="black" d="M5930.76,-2211.13C6020.55,-2268.33 6311.16,-2453.44 6405.46,-2513.5"/>
<polygon fill="black" stroke="black" points="6403.65,-2516.5 6413.96,-2518.92 6407.41,-2510.59 6403.65,-2516.5"/>
<text text-anchor="start" x="6107.11" y="-2366.12" font-family="Times New Roman,serif" font-size="14.00">member of</text>
</g>
<!-- Entity273 -->
<g id="node53" class="node entity">
<title>Entity273</title>
<ellipse fill="none" stroke="black" cx="5853.1" cy="-2302.11" rx="65.79" ry="18"/>
<text text-anchor="start" x="5810.6" y="-2298.41" font-family="Times New Roman,serif" font-size="14.00">x series aircraft</text>
</g>
<!-- Entity165&#45;&gt;Entity273 -->
<g id="edge58" class="edge verb">
<title>Entity165&#45;&gt;Entity273</title>
<path fill="none" stroke="black" d="M5895.41,-2212.44C5887.35,-2229.53 5875.21,-2255.25 5866,-2274.77"/>
<polygon fill="black" stroke="black" points="5862.72,-2273.52 5861.62,-2284.06 5869.05,-2276.51 5862.72,-2273.52"/>
<text text-anchor="start" x="5839.71" y="-2247.41" font-family="Times New Roman,serif" font-size="14.00">created</text>
</g>
<!-- Entity102 -->
<g id="node59" class="node entity">
<title>Entity102</title>
<ellipse fill="none" stroke="black" cx="6847.07" cy="-2713.69" rx="38.99" ry="18"/>
<text text-anchor="start" x="6825.07" y="-2709.99" font-family="Times New Roman,serif" font-size="14.00">far right</text>
</g>
<!-- Entity177&#45;&gt;Entity102 -->
<g id="edge63" class="edge verb">
<title>Entity177&#45;&gt;Entity102</title>
<path fill="none" stroke="black" d="M6457.29,-2545.83C6522.99,-2579.37 6718.58,-2665.75 6805.11,-2699.84"/>
<polygon fill="black" stroke="black" points="6804.03,-2703.17 6814.62,-2703.54 6806.57,-2696.65 6804.03,-2703.17"/>
<text text-anchor="start" x="6576.2" y="-2626.63" font-family="Times New Roman,serif" font-size="14.00">member a</text>
</g>
<!-- Entity177&#45;&gt;Entity102 -->
<g id="edge67" class="edge verb">
<title>Entity177&#45;&gt;Entity102</title>
<path fill="none" stroke="black" d="M6464.09,-2541.27C6538.32,-2569.45 6735.82,-2656.22 6814.29,-2694.96"/>
<polygon fill="black" stroke="black" points="6812.74,-2698.1 6823.25,-2699.44 6815.87,-2691.84 6812.74,-2698.1"/>
<text text-anchor="start" x="6578.19" y="-2606.92" font-family="Times New Roman,serif" font-size="14.00">member of</text>
</g>
<!-- Entity170 -->
<g id="node52" class="node entity">
<title>Entity170</title>
<ellipse fill="none" stroke="black" cx="6183.11" cy="-1819.99" rx="46.29" ry="18"/>
<text text-anchor="start" x="6155.61" y="-1816.29" font-family="Times New Roman,serif" font-size="14.00">van braun</text>
</g>
<!-- Entity170&#45;&gt;Entity165 -->
<g id="edge56" class="edge verb">
<title>Entity170&#45;&gt;Entity165</title>
<path fill="none" stroke="black" d="M6170.03,-1837.53C6125.09,-1897.78 5976.89,-2096.47 5923.47,-2168.09"/>
<polygon fill="black" stroke="black" points="5920.61,-2166.07 5917.43,-2176.18 5926.22,-2170.26 5920.61,-2166.07"/>
<text text-anchor="start" x="5983.75" y="-2006.61" font-family="Times New Roman,serif" font-size="14.00">worked for</text>
</g>
<!-- Entity170&#45;&gt;Entity195 -->
<g id="edge57" class="edge verb">
<title>Entity170&#45;&gt;Entity195</title>
<path fill="none" stroke="black" d="M6217.27,-1832.17C6269.56,-1850.81 6369.89,-1886.59 6432.07,-1908.77"/>
<polygon fill="black" stroke="black" points="6431.12,-1912.14 6441.71,-1912.21 6433.47,-1905.55 6431.12,-1912.14"/>
<text text-anchor="start" x="6268.67" y="-1874.27" font-family="Times New Roman,serif" font-size="14.00">worked at</text>
</g>
<!-- Entity172 -->
<g id="node54" class="node entity">
<title>Entity172</title>
<ellipse fill="none" stroke="black" cx="6633.53" cy="-2872.09" rx="49.29" ry="18"/>
<text text-anchor="start" x="6603.53" y="-2868.39" font-family="Times New Roman,serif" font-size="14.00">adolf hitler</text>
</g>
<!-- Entity172&#45;&gt;Entity177 -->
<g id="edge59" class="edge verb">
<title>Entity172&#45;&gt;Entity177</title>
<path fill="none" stroke="black" d="M6623.15,-2854.31C6590.43,-2798.25 6489.29,-2625 6450.59,-2558.69"/>
<polygon fill="black" stroke="black" points="6453.42,-2556.59 6445.35,-2549.71 6447.37,-2560.11 6453.42,-2556.59"/>
<text text-anchor="start" x="6495.87" y="-2710.3" font-family="Times New Roman,serif" font-size="14.00">created</text>
</g>
<!-- Entity173 -->
<g id="node55" class="node entity">
<title>Entity173</title>
<ellipse fill="none" stroke="black" cx="993.84" cy="-892.81" rx="77.99" ry="18"/>
<text text-anchor="start" x="941.84" y="-889.11" font-family="Times New Roman,serif" font-size="14.00">dwight eisenhower</text>
</g>
<!-- Entity173&#45;&gt;Entity180 -->
<g id="edge60" class="edge verb">
<title>Entity173&#45;&gt;Entity180</title>
<path fill="none" stroke="black" d="M1063.63,-900.87C1189.38,-915.39 1450.31,-945.51 1551.06,-957.14"/>
<polygon fill="black" stroke="black" points="1550.81,-960.64 1561.15,-958.31 1551.61,-953.68 1550.81,-960.64"/>
<text text-anchor="start" x="1288.35" y="-932.81" font-family="Times New Roman,serif" font-size="14.00">is a</text>
</g>
<!-- Entity174 -->
<g id="node56" class="node entity">
<title>Entity174</title>
<ellipse fill="none" stroke="black" cx="468.21" cy="-760.97" rx="37.89" ry="18"/>
<text text-anchor="start" x="447.21" y="-757.27" font-family="Times New Roman,serif" font-size="14.00">hunt oil</text>
</g>
<!-- Entity174&#45;&gt;Entity173 -->
<g id="edge61" class="edge verb">
<title>Entity174&#45;&gt;Entity173</title>
<path fill="none" stroke="black" d="M501.89,-769.42C588.33,-791.1 819.07,-848.98 931.09,-877.07"/>
<polygon fill="black" stroke="black" points="930.35,-880.5 940.9,-879.53 932.05,-873.71 930.35,-880.5"/>
<text text-anchor="start" x="676.49" y="-827.05" font-family="Times New Roman,serif" font-size="14.00">funded</text>
</g>
<!-- Entity175 -->
<g id="node57" class="node entity">
<title>Entity175</title>
<ellipse fill="none" stroke="black" cx="7680.77" cy="-3143.81" rx="36.29" ry="18"/>
<text text-anchor="start" x="7660.77" y="-3140.11" font-family="Times New Roman,serif" font-size="14.00">oswald</text>
</g>
<!-- Entity176 -->
<g id="node58" class="node entity">
<title>Entity176</title>
<ellipse fill="none" stroke="black" cx="7291.19" cy="-2940.34" rx="59.29" ry="18"/>
<text text-anchor="start" x="7253.69" y="-2936.64" font-family="Times New Roman,serif" font-size="14.00">guy bannister</text>
</g>
<!-- Entity175&#45;&gt;Entity176 -->
<g id="edge62" class="edge verb">
<title>Entity175&#45;&gt;Entity176</title>
<path fill="none" stroke="black" d="M7655.51,-3130.62C7589.24,-3096.01 7410.03,-3002.41 7330.33,-2960.78"/>
<polygon fill="black" stroke="black" points="7331.6,-2957.5 7321.11,-2955.97 7328.36,-2963.7 7331.6,-2957.5"/>
<text text-anchor="start" x="7429.92" y="-3049.5" font-family="Times New Roman,serif" font-size="14.00">worked for</text>
</g>
<!-- Entity176&#45;&gt;Entity102 -->
<g id="edge64" class="edge verb">
<title>Entity176&#45;&gt;Entity102</title>
<path fill="none" stroke="black" d="M7266.29,-2923.8C7192.73,-2881.48 6976.14,-2770.75 6886.54,-2729.38"/>
<polygon fill="black" stroke="black" points="6887.81,-2726.11 6877.26,-2725.14 6884.9,-2732.48 6887.81,-2726.11"/>
<text text-anchor="start" x="7021.41" y="-2815.39" font-family="Times New Roman,serif" font-size="14.00">member a</text>
</g>
<!-- Entity176&#45;&gt;Entity102 -->
<g id="edge66" class="edge verb">
<title>Entity176&#45;&gt;Entity102</title>
<path fill="none" stroke="black" d="M7254.59,-2925.98C7169.2,-2886.79 6958.14,-2779.04 6878.3,-2733.85"/>
<polygon fill="black" stroke="black" points="6879.65,-2730.59 6869.24,-2728.66 6876.18,-2736.66 6879.65,-2730.59"/>
<text text-anchor="start" x="7005.45" y="-2833.71" font-family="Times New Roman,serif" font-size="14.00">member of</text>
</g>
<!-- Entity1 -->
<g id="node60" class="node entity">
<title>Entity1</title>
<ellipse fill="none" stroke="black" cx="3708.94" cy="-1858.66" rx="27" ry="18"/>
<text text-anchor="start" x="3705.44" y="-1854.96" font-family="Times New Roman,serif" font-size="14.00">s</text>
</g>
<!-- Entity2 -->
<g id="node61" class="node entity">
<title>Entity2</title>
<ellipse fill="none" stroke="black" cx="3796.66" cy="-1970.64" rx="27" ry="18"/>
<text text-anchor="start" x="3792.66" y="-1966.94" font-family="Times New Roman,serif" font-size="14.00">o</text>
</g>
<!-- Entity1&#45;&gt;Entity2 -->
<g id="edge65" class="edge verb">
<title>Entity1&#45;&gt;Entity2</title>
<path fill="none" stroke="black" d="M3721.51,-1874.7C3736.23,-1893.5 3760.76,-1924.82 3777.78,-1946.53"/>
<polygon fill="black" stroke="black" points="3775.19,-1948.91 3784.11,-1954.62 3780.7,-1944.59 3775.19,-1948.91"/>
<text text-anchor="start" x="3742.64" y="-1914.42" font-family="Times New Roman,serif" font-size="14.00">v</text>
</g>
</g>
</svg>
