<?xml version="1.0" encoding="UTF-8" standalone="no"?>
<?xml-stylesheet href="./styles.css" type="text/css"?>
<!DOCTYPE svg PUBLIC "-//W3C//DTD SVG 1.1//EN"
 "http://www.w3.org/Graphics/SVG/1.1/DTD/svg11.dtd">
<!-- Generated by graphviz version 2.47.3 (20210619.1520)
 -->
<!-- Title: G Pages: 1 -->
<svg width="7653pt" height="4160pt"
 viewBox="0.00 0.00 7653.00 4160.00" xmlns="http://www.w3.org/2000/svg" xmlns:xlink="http://www.w3.org/1999/xlink">
<g id="graph0" class="graph" transform="scale(1 1) rotate(0) translate(4 4156)">
<title>G</title>
<polygon fill="white" stroke="transparent" points="-4,4 -4,-4156 7649,-4156 7649,4 -4,4"/>
<!-- Entity3 -->
<g id="node1" class="node entity">
<title>Entity3</title>
<ellipse fill="none" stroke="black" cx="5155.76" cy="-2038.49" rx="64.19" ry="18"/>
<text text-anchor="start" x="5114.26" y="-2034.79" font-family="Times New Roman,serif" font-size="14.00">john f kennedy</text>
</g>
<!-- Entity22 -->
<g id="node2" class="node entity">
<title>Entity22</title>
<ellipse fill="none" stroke="black" cx="4683.4" cy="-1863.55" rx="27" ry="18"/>
<text text-anchor="start" x="4675.4" y="-1859.85" font-family="Times New Roman,serif" font-size="14.00">cia</text>
</g>
<!-- Entity3&#45;&gt;Entity22 -->
<g id="edge1" class="edge verb">
<title>Entity3&#45;&gt;Entity22</title>
<path fill="none" stroke="black" d="M5116.7,-2024.02C5025.81,-1990.36 4801.41,-1907.25 4716.59,-1875.84"/>
<polygon fill="black" stroke="black" points="4717.78,-1872.55 4707.19,-1872.36 4715.35,-1879.11 4717.78,-1872.55"/>
<text text-anchor="start" x="4812.65" y="-1953.73" font-family="Times New Roman,serif" font-size="14.00">heads (1961&#45;1963)</text>
</g>
<!-- Entity66 -->
<g id="node20" class="node entity">
<title>Entity66</title>
<ellipse fill="none" stroke="black" cx="5693.93" cy="-1905" rx="31.4" ry="18"/>
<text text-anchor="start" x="5677.93" y="-1901.3" font-family="Times New Roman,serif" font-size="14.00">potus</text>
</g>
<!-- Entity3&#45;&gt;Entity66 -->
<g id="edge23" class="edge verb">
<title>Entity3&#45;&gt;Entity66</title>
<path fill="none" stroke="black" d="M5203.99,-2026.52C5309.53,-2000.35 5559.2,-1938.42 5655.3,-1914.59"/>
<polygon fill="black" stroke="black" points="5656.32,-1917.94 5665.18,-1912.14 5654.63,-1911.15 5656.32,-1917.94"/>
<text text-anchor="start" x="5342.65" y="-1974.35" font-family="Times New Roman,serif" font-size="14.00">isa (1961&#45;1963)</text>
</g>
<!-- Entity67 -->
<g id="node25" class="node entity">
<title>Entity67</title>
<ellipse fill="none" stroke="black" cx="3974.82" cy="-1965.82" rx="77.19" ry="18"/>
<text text-anchor="start" x="3923.32" y="-1962.12" font-family="Times New Roman,serif" font-size="14.00">psi&#45;consciousness</text>
</g>
<!-- Entity22&#45;&gt;Entity67 -->
<g id="edge43" class="edge verb">
<title>Entity22&#45;&gt;Entity67</title>
<path fill="none" stroke="black" d="M4656.92,-1867.37C4557.84,-1881.67 4206.75,-1932.34 4050.63,-1954.88"/>
<polygon fill="black" stroke="black" points="4050.03,-1951.43 4040.63,-1956.32 4051.03,-1958.35 4050.03,-1951.43"/>
<text text-anchor="start" x="4289.77" y="-1914.92" font-family="Times New Roman,serif" font-size="14.00">investigates</text>
</g>
<!-- Entity90 -->
<g id="node52" class="node entity">
<title>Entity90</title>
<ellipse fill="none" stroke="black" cx="4939.48" cy="-1930.5" rx="27" ry="18"/>
<text text-anchor="start" x="4929.98" y="-1926.8" font-family="Times New Roman,serif" font-size="14.00">ufo</text>
</g>
<!-- Entity22&#45;&gt;Entity90 -->
<g id="edge62" class="edge verb">
<title>Entity22&#45;&gt;Entity90</title>
<path fill="none" stroke="black" d="M4708.89,-1870.21C4754.91,-1882.24 4851.93,-1907.61 4904.25,-1921.29"/>
<polygon fill="black" stroke="black" points="4903.53,-1924.72 4914.09,-1923.86 4905.3,-1917.95 4903.53,-1924.72"/>
<text text-anchor="start" x="4742.57" y="-1899.55" font-family="Times New Roman,serif" font-size="14.00">investigates</text>
</g>
<!-- Entity14 -->
<g id="node3" class="node entity">
<title>Entity14</title>
<ellipse fill="none" stroke="black" cx="2871.6" cy="-1702.71" rx="74.99" ry="18"/>
<text text-anchor="start" x="2822.1" y="-1699.01" font-family="Times New Roman,serif" font-size="14.00">gene roddenberry</text>
</g>
<!-- Entity8 -->
<g id="node4" class="node entity">
<title>Entity8</title>
<ellipse fill="none" stroke="black" cx="2936.61" cy="-1810.71" rx="38.19" ry="18"/>
<text text-anchor="start" x="2915.11" y="-1807.01" font-family="Times New Roman,serif" font-size="14.00">the nine</text>
</g>
<!-- Entity14&#45;&gt;Entity8 -->
<g id="edge2" class="edge verb">
<title>Entity14&#45;&gt;Entity8</title>
<path fill="none" stroke="black" d="M2882.34,-1720.54C2892.85,-1738 2908.97,-1764.79 2920.92,-1784.64"/>
<polygon fill="black" stroke="black" points="2917.92,-1786.45 2926.08,-1793.21 2923.92,-1782.84 2917.92,-1786.45"/>
<text text-anchor="start" x="2797.63" y="-1756.39" font-family="Times New Roman,serif" font-size="14.00">claiemd to channel</text>
</g>
<!-- Entity70 -->
<g id="node23" class="node entity">
<title>Entity70</title>
<ellipse fill="none" stroke="black" cx="2515.55" cy="-1416.6" rx="94.48" ry="18"/>
<text text-anchor="start" x="2451.05" y="-1412.9" font-family="Times New Roman,serif" font-size="14.00">egyptian gods in a ship</text>
</g>
<!-- Entity8&#45;&gt;Entity70 -->
<g id="edge16" class="edge verb">
<title>Entity8&#45;&gt;Entity70</title>
<path fill="none" stroke="black" d="M2919.32,-1794.53C2853.94,-1733.33 2621.53,-1515.8 2542.27,-1441.61"/>
<polygon fill="black" stroke="black" points="2544.35,-1438.76 2534.65,-1434.48 2539.56,-1443.87 2544.35,-1438.76"/>
<text text-anchor="start" x="2626.79" y="-1621.87" font-family="Times New Roman,serif" font-size="14.00">claimed to channel</text>
</g>
<!-- Entity16 -->
<g id="node5" class="node entity">
<title>Entity16</title>
<ellipse fill="none" stroke="black" cx="5696.47" cy="-1797.01" rx="68.49" ry="18"/>
<text text-anchor="start" x="5651.97" y="-1793.31" font-family="Times New Roman,serif" font-size="14.00">george hw bush</text>
</g>
<!-- Entity20 -->
<g id="node6" class="node entity">
<title>Entity20</title>
<ellipse fill="none" stroke="black" cx="6157.27" cy="-1869.81" rx="63.89" ry="18"/>
<text text-anchor="start" x="6116.27" y="-1866.11" font-family="Times New Roman,serif" font-size="14.00">george w bush</text>
</g>
<!-- Entity16&#45;&gt;Entity20 -->
<g id="edge3" class="edge verb">
<title>Entity16&#45;&gt;Entity20</title>
<path fill="none" stroke="black" d="M5755.3,-1806.3C5841.51,-1819.92 6001.65,-1845.22 6091.59,-1859.43"/>
<polygon fill="black" stroke="black" points="6091.24,-1862.92 6101.67,-1861.03 6092.34,-1856.01 6091.24,-1862.92"/>
<text text-anchor="start" x="5891.45" y="-1836.67" font-family="Times New Roman,serif" font-size="14.00">father</text>
</g>
<!-- Entity16&#45;&gt;Entity66 -->
<g id="edge20" class="edge verb">
<title>Entity16&#45;&gt;Entity66</title>
<path fill="none" stroke="black" d="M5696.04,-1815.33C5695.64,-1832.19 5695.05,-1857.44 5694.59,-1876.86"/>
<polygon fill="black" stroke="black" points="5691.09,-1876.88 5694.35,-1886.95 5698.09,-1877.04 5691.09,-1876.88"/>
<text text-anchor="start" x="5679.32" y="-1849.89" font-family="Times New Roman,serif" font-size="14.00">isa</text>
</g>
<!-- Entity20&#45;&gt;Entity66 -->
<g id="edge42" class="edge verb">
<title>Entity20&#45;&gt;Entity66</title>
<path fill="none" stroke="black" d="M6095.74,-1874.48C5999.86,-1881.77 5817.31,-1895.63 5735.45,-1901.85"/>
<polygon fill="black" stroke="black" points="5734.76,-1898.39 5725.05,-1902.64 5735.29,-1905.37 5734.76,-1898.39"/>
<text text-anchor="start" x="5899.6" y="-1891.97" font-family="Times New Roman,serif" font-size="14.00">isa</text>
</g>
<!-- Entity2 -->
<g id="node7" class="node entity">
<title>Entity2</title>
<ellipse fill="none" stroke="black" cx="2696.68" cy="-1813.62" rx="41.69" ry="18"/>
<text text-anchor="start" x="2672.68" y="-1809.92" font-family="Times New Roman,serif" font-size="14.00">uri geller</text>
</g>
<!-- Entity2&#45;&gt;Entity8 -->
<g id="edge4" class="edge verb">
<title>Entity2&#45;&gt;Entity8</title>
<path fill="none" stroke="black" d="M2738.47,-1813.11C2780.11,-1812.61 2844.01,-1811.83 2887.92,-1811.3"/>
<polygon fill="black" stroke="black" points="2888.11,-1814.8 2898.07,-1811.18 2888.03,-1807.8 2888.11,-1814.8"/>
<text text-anchor="start" x="2787.19" y="-1801.01" font-family="Times New Roman,serif" font-size="14.00">claiemd to channel</text>
</g>
<!-- Entity26 -->
<g id="node8" class="node entity">
<title>Entity26</title>
<ellipse fill="none" stroke="black" cx="939.32" cy="-3308.78" rx="49.29" ry="18"/>
<text text-anchor="start" x="909.32" y="-3305.08" font-family="Times New Roman,serif" font-size="14.00">adolf hitler</text>
</g>
<!-- Entity28 -->
<g id="node9" class="node entity">
<title>Entity28</title>
<ellipse fill="none" stroke="black" cx="1338.09" cy="-3293.5" rx="32.49" ry="18"/>
<text text-anchor="start" x="1321.09" y="-3289.8" font-family="Times New Roman,serif" font-size="14.00">nsdap</text>
</g>
<!-- Entity26&#45;&gt;Entity28 -->
<g id="edge5" class="edge verb">
<title>Entity26&#45;&gt;Entity28</title>
<path fill="none" stroke="black" d="M988.62,-3306.89C1067.46,-3303.87 1220.65,-3298 1295.22,-3295.14"/>
<polygon fill="black" stroke="black" points="1295.78,-3298.62 1305.64,-3294.74 1295.51,-3291.63 1295.78,-3298.62"/>
<text text-anchor="start" x="1100.92" y="-3304.81" font-family="Times New Roman,serif" font-size="14.00">created</text>
</g>
<!-- Entity75 -->
<g id="node31" class="node entity">
<title>Entity75</title>
<ellipse fill="none" stroke="black" cx="972.18" cy="-3562.94" rx="38.99" ry="18"/>
<text text-anchor="start" x="950.18" y="-3559.24" font-family="Times New Roman,serif" font-size="14.00">far right</text>
</g>
<!-- Entity28&#45;&gt;Entity75 -->
<g id="edge29" class="edge verb">
<title>Entity28&#45;&gt;Entity75</title>
<path fill="none" stroke="black" d="M1318.42,-3307.98C1257.79,-3352.63 1073.59,-3488.27 1001.53,-3541.33"/>
<polygon fill="black" stroke="black" points="999.29,-3538.63 993.31,-3547.38 1003.44,-3544.27 999.29,-3538.63"/>
<text text-anchor="start" x="1098.97" y="-3428.46" font-family="Times New Roman,serif" font-size="14.00">member of</text>
</g>
<!-- Entity15 -->
<g id="node10" class="node entity">
<title>Entity15</title>
<ellipse fill="none" stroke="black" cx="5859.47" cy="-1392.16" rx="59.59" ry="18"/>
<text text-anchor="start" x="5821.47" y="-1388.46" font-family="Times New Roman,serif" font-size="14.00">donald trump</text>
</g>
<!-- Entity48 -->
<g id="node11" class="node entity">
<title>Entity48</title>
<ellipse fill="none" stroke="black" cx="5222.87" cy="-1666.4" rx="50.09" ry="18"/>
<text text-anchor="start" x="5192.37" y="-1662.7" font-family="Times New Roman,serif" font-size="14.00">john trump</text>
</g>
<!-- Entity15&#45;&gt;Entity48 -->
<g id="edge6" class="edge verb">
<title>Entity15&#45;&gt;Entity48</title>
<path fill="none" stroke="black" d="M5824.79,-1407.1C5716.15,-1453.9 5382.61,-1597.58 5264.7,-1648.38"/>
<polygon fill="black" stroke="black" points="5263.07,-1645.27 5255.27,-1652.44 5265.84,-1651.7 5263.07,-1645.27"/>
<text text-anchor="start" x="5485.74" y="-1531.54" font-family="Times New Roman,serif" font-size="14.00">nephew of</text>
</g>
<!-- Entity15&#45;&gt;Entity66 -->
<g id="edge27" class="edge verb">
<title>Entity15&#45;&gt;Entity66</title>
<path fill="none" stroke="black" d="M5853.67,-1410.11C5829.02,-1486.5 5732.72,-1784.83 5702.83,-1877.43"/>
<polygon fill="black" stroke="black" points="5699.42,-1876.61 5699.68,-1887.2 5706.08,-1878.76 5699.42,-1876.61"/>
<text text-anchor="start" x="5762.25" y="-1647.57" font-family="Times New Roman,serif" font-size="14.00">isa</text>
</g>
<!-- Entity48&#45;&gt;Entity22 -->
<g id="edge10" class="edge verb">
<title>Entity48&#45;&gt;Entity22</title>
<path fill="none" stroke="black" d="M5187.47,-1679.34C5088.99,-1715.33 4812.72,-1816.29 4716.75,-1851.36"/>
<polygon fill="black" stroke="black" points="4715.45,-1848.11 4707.26,-1854.83 4717.85,-1854.68 4715.45,-1848.11"/>
<text text-anchor="start" x="4891.11" y="-1769.15" font-family="Times New Roman,serif" font-size="14.00">member of</text>
</g>
<!-- Entity82 -->
<g id="node41" class="node entity">
<title>Entity82</title>
<ellipse fill="none" stroke="black" cx="5501.11" cy="-2038.47" rx="50.89" ry="18"/>
<text text-anchor="start" x="5470.11" y="-2034.77" font-family="Times New Roman,serif" font-size="14.00">nikola tesla</text>
</g>
<!-- Entity48&#45;&gt;Entity82 -->
<g id="edge40" class="edge verb">
<title>Entity48&#45;&gt;Entity82</title>
<path fill="none" stroke="black" d="M5235.91,-1683.85C5280.73,-1743.78 5428.57,-1941.47 5481.8,-2012.65"/>
<polygon fill="black" stroke="black" points="5479.3,-2015.15 5488.09,-2021.07 5484.91,-2010.96 5479.3,-2015.15"/>
<text text-anchor="start" x="5317.85" y="-1852.05" font-family="Times New Roman,serif" font-size="14.00">studied</text>
</g>
<!-- Entity5 -->
<g id="node12" class="node entity">
<title>Entity5</title>
<ellipse fill="none" stroke="black" cx="3178.63" cy="-2257.76" rx="65.79" ry="18"/>
<text text-anchor="start" x="3136.13" y="-2254.06" font-family="Times New Roman,serif" font-size="14.00">arthur m young</text>
</g>
<!-- Entity5&#45;&gt;Entity8 -->
<g id="edge7" class="edge verb">
<title>Entity5&#45;&gt;Entity8</title>
<path fill="none" stroke="black" d="M3168.85,-2239.68C3131.25,-2170.23 2995.95,-1920.32 2951.14,-1837.55"/>
<polygon fill="black" stroke="black" points="2954.09,-1835.65 2946.25,-1828.53 2947.94,-1838.99 2954.09,-1835.65"/>
<text text-anchor="start" x="2997.99" y="-2042.41" font-family="Times New Roman,serif" font-size="14.00">member&#45;of</text>
</g>
<!-- Entity5&#45;&gt;Entity67 -->
<g id="edge18" class="edge verb">
<title>Entity5&#45;&gt;Entity67</title>
<path fill="none" stroke="black" d="M3218.12,-2243.28C3350.01,-2194.92 3775.36,-2038.95 3923.43,-1984.66"/>
<polygon fill="black" stroke="black" points="3925,-1987.81 3933.19,-1981.08 3922.59,-1981.24 3925,-1987.81"/>
<text text-anchor="start" x="3529.77" y="-2117.77" font-family="Times New Roman,serif" font-size="14.00">studied</text>
</g>
<!-- Entity72 -->
<g id="node28" class="node entity">
<title>Entity72</title>
<ellipse fill="none" stroke="black" cx="2542.41" cy="-2634.76" rx="53.89" ry="18"/>
<text text-anchor="start" x="2508.91" y="-2631.06" font-family="Times New Roman,serif" font-size="14.00">bell aviation</text>
</g>
<!-- Entity5&#45;&gt;Entity72 -->
<g id="edge24" class="edge verb">
<title>Entity5&#45;&gt;Entity72</title>
<path fill="none" stroke="black" d="M3150.89,-2274.2C3048.43,-2334.91 2691.44,-2546.45 2577.59,-2613.91"/>
<polygon fill="black" stroke="black" points="2575.7,-2610.96 2568.88,-2619.07 2579.27,-2616.99 2575.7,-2610.96"/>
<text text-anchor="start" x="2823.24" y="-2447.86" font-family="Times New Roman,serif" font-size="14.00">created</text>
</g>
<!-- Entity1 -->
<g id="node13" class="node entity">
<title>Entity1</title>
<ellipse fill="none" stroke="black" cx="2227.3" cy="-1685.3" rx="64.19" ry="18"/>
<text text-anchor="start" x="2185.8" y="-1681.6" font-family="Times New Roman,serif" font-size="14.00">andre puharich</text>
</g>
<!-- Entity1&#45;&gt;Entity2 -->
<g id="edge8" class="edge verb">
<title>Entity1&#45;&gt;Entity2</title>
<path fill="none" stroke="black" d="M2273.59,-1697.96C2363.78,-1722.61 2562.03,-1776.81 2651.41,-1801.24"/>
<polygon fill="black" stroke="black" points="2650.67,-1804.67 2661.24,-1803.93 2652.52,-1797.91 2650.67,-1804.67"/>
<text text-anchor="start" x="2402.5" y="-1753.4" font-family="Times New Roman,serif" font-size="14.00">sponsored</text>
</g>
<!-- Entity7 -->
<g id="node14" class="node entity">
<title>Entity7</title>
<ellipse fill="none" stroke="black" cx="3274.39" cy="-1880.39" rx="68.49" ry="18"/>
<text text-anchor="start" x="3229.89" y="-1876.69" font-family="Times New Roman,serif" font-size="14.00">jeffrey mishlove</text>
</g>
<!-- Entity7&#45;&gt;Entity2 -->
<g id="edge9" class="edge verb">
<title>Entity7&#45;&gt;Entity2</title>
<path fill="none" stroke="black" d="M3211.74,-1873.15C3096.41,-1859.82 2852.63,-1831.64 2747.12,-1819.45"/>
<polygon fill="black" stroke="black" points="2747.38,-1815.95 2737.05,-1818.28 2746.58,-1822.91 2747.38,-1815.95"/>
<text text-anchor="start" x="2924.43" y="-1850.1" font-family="Times New Roman,serif" font-size="14.00">promoted</text>
</g>
<!-- Entity7&#45;&gt;Entity67 -->
<g id="edge19" class="edge verb">
<title>Entity7&#45;&gt;Entity67</title>
<path fill="none" stroke="black" d="M3329.76,-1891.04C3451.74,-1909.53 3744.27,-1945.45 3889.73,-1960.06"/>
<polygon fill="black" stroke="black" points="3889.64,-1963.57 3899.94,-1961.07 3890.34,-1956.6 3889.64,-1963.57"/>
<text text-anchor="start" x="3568.75" y="-1929.35" font-family="Times New Roman,serif" font-size="14.00">studied</text>
</g>
<!-- Entity7&#45;&gt;Entity67 -->
<g id="edge26" class="edge verb">
<title>Entity7&#45;&gt;Entity67</title>
<path fill="none" stroke="black" d="M3341.1,-1884.34C3473.63,-1897.06 3768.93,-1933.03 3904.41,-1952.93"/>
<polygon fill="black" stroke="black" points="3904.26,-1956.44 3914.67,-1954.45 3905.29,-1949.52 3904.26,-1956.44"/>
<text text-anchor="start" x="3558.76" y="-1907.43" font-family="Times New Roman,serif" font-size="14.00">investigates</text>
</g>
<!-- Entity30 -->
<g id="node15" class="node entity">
<title>Entity30</title>
<ellipse fill="none" stroke="black" cx="1900.24" cy="-2991.33" rx="74.99" ry="18"/>
<text text-anchor="start" x="1850.74" y="-2987.63" font-family="Times New Roman,serif" font-size="14.00">walter dornberger</text>
</g>
<!-- Entity30&#45;&gt;Entity28 -->
<g id="edge11" class="edge verb">
<title>Entity30&#45;&gt;Entity28</title>
<path fill="none" stroke="black" d="M1869.62,-3007.79C1772.29,-3060.11 1470.57,-3222.28 1370.62,-3276.01"/>
<polygon fill="black" stroke="black" points="1368.74,-3273.05 1361.59,-3280.86 1372.06,-3279.21 1368.74,-3273.05"/>
<text text-anchor="start" x="1559.12" y="-3145.7" font-family="Times New Roman,serif" font-size="14.00">member of</text>
</g>
<!-- Entity30&#45;&gt;Entity72 -->
<g id="edge35" class="edge verb">
<title>Entity30&#45;&gt;Entity72</title>
<path fill="none" stroke="black" d="M1935.89,-2975.25C2049.51,-2917.51 2401.85,-2721.87 2510.32,-2656.27"/>
<polygon fill="black" stroke="black" points="2512.16,-2659.24 2518.88,-2651.05 2508.52,-2653.27 2512.16,-2659.24"/>
<text text-anchor="start" x="2144.11" y="-2819.56" font-family="Times New Roman,serif" font-size="14.00">vice&#45;president</text>
</g>
<!-- Entity30&#45;&gt;Entity72 -->
<g id="edge49" class="edge verb">
<title>Entity30&#45;&gt;Entity72</title>
<path fill="none" stroke="black" d="M1925.21,-2974.16C2022.76,-2914.35 2378.53,-2716.57 2500.82,-2653.88"/>
<polygon fill="black" stroke="black" points="2502.57,-2656.91 2509.89,-2649.26 2499.4,-2650.67 2502.57,-2656.91"/>
<text text-anchor="start" x="2157.02" y="-2802.82" font-family="Times New Roman,serif" font-size="14.00">worked at</text>
</g>
<!-- Entity76 -->
<g id="node35" class="node entity">
<title>Entity76</title>
<ellipse fill="none" stroke="black" cx="1865.68" cy="-3579.25" rx="90.98" ry="18"/>
<text text-anchor="start" x="1803.68" y="-3575.55" font-family="Times New Roman,serif" font-size="14.00">nsdap rocket program</text>
</g>
<!-- Entity30&#45;&gt;Entity76 -->
<g id="edge36" class="edge verb">
<title>Entity30&#45;&gt;Entity76</title>
<path fill="none" stroke="black" d="M1899.17,-3009.57C1894.2,-3094.1 1873.4,-3447.94 1867.34,-3550.98"/>
<polygon fill="black" stroke="black" points="1863.83,-3551.03 1866.74,-3561.22 1870.82,-3551.44 1863.83,-3551.03"/>
<text text-anchor="start" x="1842.26" y="-3284.08" font-family="Times New Roman,serif" font-size="14.00">created</text>
</g>
<!-- Entity104 -->
<g id="node55" class="node entity">
<title>Entity104</title>
<ellipse fill="none" stroke="black" cx="1338.27" cy="-2867.35" rx="65.79" ry="18"/>
<text text-anchor="start" x="1295.77" y="-2863.65" font-family="Times New Roman,serif" font-size="14.00">x series aircraft</text>
</g>
<!-- Entity30&#45;&gt;Entity104 -->
<g id="edge59" class="edge verb">
<title>Entity30&#45;&gt;Entity104</title>
<path fill="none" stroke="black" d="M1845.08,-2979.16C1739.55,-2955.88 1509.81,-2905.19 1399.62,-2880.88"/>
<polygon fill="black" stroke="black" points="1400.18,-2877.42 1389.66,-2878.68 1398.67,-2884.26 1400.18,-2877.42"/>
<text text-anchor="start" x="1581.35" y="-2933.82" font-family="Times New Roman,serif" font-size="14.00">created</text>
</g>
<!-- Entity32 -->
<g id="node16" class="node entity">
<title>Entity32</title>
<ellipse fill="none" stroke="black" cx="1868.78" cy="-3471.25" rx="46.29" ry="18"/>
<text text-anchor="start" x="1841.28" y="-3467.55" font-family="Times New Roman,serif" font-size="14.00">van braun</text>
</g>
<!-- Entity32&#45;&gt;Entity30 -->
<g id="edge12" class="edge verb">
<title>Entity32&#45;&gt;Entity30</title>
<path fill="none" stroke="black" d="M1869.98,-3453.02C1874.76,-3380.05 1892.55,-3108.62 1898.38,-3019.72"/>
<polygon fill="black" stroke="black" points="1901.89,-3019.79 1899.05,-3009.58 1894.9,-3019.33 1901.89,-3019.79"/>
<text text-anchor="start" x="1821.18" y="-3240.17" font-family="Times New Roman,serif" font-size="14.00">worked for</text>
</g>
<!-- Entity32&#45;&gt;Entity76 -->
<g id="edge48" class="edge verb">
<title>Entity32&#45;&gt;Entity76</title>
<path fill="none" stroke="black" d="M1868.26,-3489.57C1867.77,-3506.43 1867.05,-3531.68 1866.49,-3551.1"/>
<polygon fill="black" stroke="black" points="1862.99,-3551.1 1866.2,-3561.2 1869.98,-3551.3 1862.99,-3551.1"/>
<text text-anchor="start" x="1811.37" y="-3524.13" font-family="Times New Roman,serif" font-size="14.00">worked at</text>
</g>
<!-- Entity29 -->
<g id="node17" class="node entity">
<title>Entity29</title>
<ellipse fill="none" stroke="black" cx="5694.56" cy="-2651.18" rx="37.89" ry="18"/>
<text text-anchor="start" x="5673.56" y="-2647.48" font-family="Times New Roman,serif" font-size="14.00">hunt oil</text>
</g>
<!-- Entity36 -->
<g id="node18" class="node entity">
<title>Entity36</title>
<ellipse fill="none" stroke="black" cx="5699.05" cy="-2543.16" rx="77.99" ry="18"/>
<text text-anchor="start" x="5647.05" y="-2539.46" font-family="Times New Roman,serif" font-size="14.00">dwight eisenhower</text>
</g>
<!-- Entity29&#45;&gt;Entity36 -->
<g id="edge13" class="edge verb">
<title>Entity29&#45;&gt;Entity36</title>
<path fill="none" stroke="black" d="M5695.32,-2632.85C5696.02,-2615.99 5697.07,-2590.73 5697.88,-2571.31"/>
<polygon fill="black" stroke="black" points="5701.38,-2571.35 5698.3,-2561.21 5694.39,-2571.05 5701.38,-2571.35"/>
<text text-anchor="start" x="5656.6" y="-2605.88" font-family="Times New Roman,serif" font-size="14.00">funded</text>
</g>
<!-- Entity36&#45;&gt;Entity66 -->
<g id="edge34" class="edge verb">
<title>Entity36&#45;&gt;Entity66</title>
<path fill="none" stroke="black" d="M5698.91,-2525.08C5698.19,-2435.96 5695.04,-2043.1 5694.16,-1933.49"/>
<polygon fill="black" stroke="black" points="5697.66,-1933.19 5694.08,-1923.22 5690.66,-1933.25 5697.66,-1933.19"/>
<text text-anchor="start" x="5677.53" y="-2233.09" font-family="Times New Roman,serif" font-size="14.00">is a</text>
</g>
<!-- Entity11 -->
<g id="node19" class="node entity">
<title>Entity11</title>
<ellipse fill="none" stroke="black" cx="6183.62" cy="-2093.54" rx="56.59" ry="18"/>
<text text-anchor="start" x="6148.12" y="-2089.84" font-family="Times New Roman,serif" font-size="14.00">harry truman</text>
</g>
<!-- Entity11&#45;&gt;Entity66 -->
<g id="edge14" class="edge verb">
<title>Entity11&#45;&gt;Entity66</title>
<path fill="none" stroke="black" d="M6147.22,-2079.53C6056.2,-2044.48 5819.64,-1953.4 5729.51,-1918.7"/>
<polygon fill="black" stroke="black" points="5730.6,-1915.37 5720.01,-1915.04 5728.08,-1921.9 5730.6,-1915.37"/>
<text text-anchor="start" x="5922.36" y="-2002.91" font-family="Times New Roman,serif" font-size="14.00">isa</text>
</g>
<!-- Entity69 -->
<g id="node24" class="node entity">
<title>Entity69</title>
<ellipse fill="none" stroke="black" cx="6675.79" cy="-2301.44" rx="55.79" ry="18"/>
<text text-anchor="start" x="6640.79" y="-2297.74" font-family="Times New Roman,serif" font-size="14.00">freemasonry</text>
</g>
<!-- Entity11&#45;&gt;Entity69 -->
<g id="edge17" class="edge verb">
<title>Entity11&#45;&gt;Entity69</title>
<path fill="none" stroke="black" d="M6217.84,-2108C6305.1,-2144.85 6535.8,-2242.3 6632.34,-2283.09"/>
<polygon fill="black" stroke="black" points="6631.23,-2286.41 6641.8,-2287.08 6633.95,-2279.97 6631.23,-2286.41"/>
<text text-anchor="start" x="6364.09" y="-2199.34" font-family="Times New Roman,serif" font-size="14.00">member of</text>
</g>
<!-- Entity63 -->
<g id="node21" class="node entity">
<title>Entity63</title>
<ellipse fill="none" stroke="black" cx="6282.19" cy="-2653.03" rx="53.89" ry="18"/>
<text text-anchor="start" x="6248.69" y="-2649.33" font-family="Times New Roman,serif" font-size="14.00">edgar casey</text>
</g>
<!-- Entity59 -->
<g id="node22" class="node entity">
<title>Entity59</title>
<ellipse fill="none" stroke="black" cx="5907.31" cy="-2203.93" rx="71.49" ry="18"/>
<text text-anchor="start" x="5860.31" y="-2200.23" font-family="Times New Roman,serif" font-size="14.00">woodrow wilson</text>
</g>
<!-- Entity63&#45;&gt;Entity59 -->
<g id="edge15" class="edge verb">
<title>Entity63&#45;&gt;Entity59</title>
<path fill="none" stroke="black" d="M6267.49,-2635.43C6209.64,-2566.13 5997.46,-2311.93 5928.86,-2229.75"/>
<polygon fill="black" stroke="black" points="5931.41,-2227.34 5922.31,-2221.91 5926.03,-2231.83 5931.41,-2227.34"/>
<text text-anchor="start" x="6056.18" y="-2436.39" font-family="Times New Roman,serif" font-size="14.00">advises</text>
</g>
<!-- Entity59&#45;&gt;Entity66 -->
<g id="edge30" class="edge verb">
<title>Entity59&#45;&gt;Entity66</title>
<path fill="none" stroke="black" d="M5894.6,-2186.13C5858.33,-2135.32 5754.24,-1989.49 5712.03,-1930.37"/>
<polygon fill="black" stroke="black" points="5714.7,-1928.08 5706.04,-1921.97 5709,-1932.14 5714.7,-1928.08"/>
<text text-anchor="start" x="5787.32" y="-2062.05" font-family="Times New Roman,serif" font-size="14.00">isa</text>
</g>
<!-- Entity92 -->
<g id="node50" class="node entity">
<title>Entity92</title>
<ellipse fill="none" stroke="black" cx="6027.09" cy="-2311.98" rx="71.49" ry="18"/>
<text text-anchor="start" x="5980.09" y="-2308.28" font-family="Times New Roman,serif" font-size="14.00">leauge of nations</text>
</g>
<!-- Entity59&#45;&gt;Entity92 -->
<g id="edge54" class="edge verb">
<title>Entity59&#45;&gt;Entity92</title>
<path fill="none" stroke="black" d="M5926.56,-2221.29C5946.43,-2239.22 5977.62,-2267.36 5999.98,-2287.53"/>
<polygon fill="black" stroke="black" points="5997.73,-2290.21 6007.49,-2294.31 6002.41,-2285.01 5997.73,-2290.21"/>
<text text-anchor="start" x="5922.27" y="-2258.21" font-family="Times New Roman,serif" font-size="14.00">created</text>
</g>
<!-- Entity18 -->
<g id="node26" class="node entity">
<title>Entity18</title>
<ellipse fill="none" stroke="black" cx="6008.38" cy="-1739.13" rx="35.19" ry="18"/>
<text text-anchor="start" x="5989.38" y="-1735.43" font-family="Times New Roman,serif" font-size="14.00">obama</text>
</g>
<!-- Entity18&#45;&gt;Entity66 -->
<g id="edge21" class="edge verb">
<title>Entity18&#45;&gt;Entity66</title>
<path fill="none" stroke="black" d="M5983.71,-1752.15C5927.38,-1781.86 5789.35,-1854.67 5726.3,-1887.93"/>
<polygon fill="black" stroke="black" points="5724.42,-1884.97 5717.2,-1892.73 5727.68,-1891.16 5724.42,-1884.97"/>
<text text-anchor="start" x="5839" y="-1823.84" font-family="Times New Roman,serif" font-size="14.00">isa</text>
</g>
<!-- Entity12 -->
<g id="node27" class="node entity">
<title>Entity12</title>
<ellipse fill="none" stroke="black" cx="5636.91" cy="-2329.35" rx="58.49" ry="18"/>
<text text-anchor="start" x="5599.91" y="-2325.65" font-family="Times New Roman,serif" font-size="14.00">richard nixon</text>
</g>
<!-- Entity12&#45;&gt;Entity66 -->
<g id="edge22" class="edge verb">
<title>Entity12&#45;&gt;Entity66</title>
<path fill="none" stroke="black" d="M5639.36,-2311.12C5648.31,-2244.47 5679.32,-2013.74 5690.15,-1933.1"/>
<polygon fill="black" stroke="black" points="5693.62,-1933.55 5691.49,-1923.17 5686.69,-1932.61 5693.62,-1933.55"/>
<text text-anchor="start" x="5648.76" y="-2125.91" font-family="Times New Roman,serif" font-size="14.00">isa</text>
</g>
<!-- Entity24 -->
<g id="node29" class="node entity">
<title>Entity24</title>
<ellipse fill="none" stroke="black" cx="3710.28" cy="-2073.82" rx="63.89" ry="18"/>
<text text-anchor="start" x="3669.28" y="-2070.12" font-family="Times New Roman,serif" font-size="14.00">robert bigelow</text>
</g>
<!-- Entity24&#45;&gt;Entity7 -->
<g id="edge25" class="edge verb">
<title>Entity24&#45;&gt;Entity7</title>
<path fill="none" stroke="black" d="M3675.71,-2058.48C3597.2,-2023.64 3405.55,-1938.59 3318.59,-1900"/>
<polygon fill="black" stroke="black" points="3319.83,-1896.72 3309.27,-1895.86 3316.99,-1903.12 3319.83,-1896.72"/>
<text text-anchor="start" x="3465.15" y="-1983.04" font-family="Times New Roman,serif" font-size="14.00">funds</text>
</g>
<!-- Entity24&#45;&gt;Entity67 -->
<g id="edge45" class="edge verb">
<title>Entity24&#45;&gt;Entity67</title>
<path fill="none" stroke="black" d="M3746.78,-2058.92C3793.62,-2039.8 3874.98,-2006.58 3926.79,-1985.42"/>
<polygon fill="black" stroke="black" points="3928.17,-1988.64 3936.11,-1981.62 3925.53,-1982.16 3928.17,-1988.64"/>
<text text-anchor="start" x="3772.79" y="-2025.97" font-family="Times New Roman,serif" font-size="14.00">investigates</text>
</g>
<!-- Entity44 -->
<g id="node30" class="node entity">
<title>Entity44</title>
<ellipse fill="none" stroke="black" cx="6460.85" cy="-916.91" rx="58.49" ry="18"/>
<text text-anchor="start" x="6423.85" y="-913.21" font-family="Times New Roman,serif" font-size="14.00">steve bannon</text>
</g>
<!-- Entity44&#45;&gt;Entity15 -->
<g id="edge28" class="edge verb">
<title>Entity44&#45;&gt;Entity15</title>
<path fill="none" stroke="black" d="M6435.52,-933.32C6337.38,-1004.3 5983.21,-1284.1 5884.9,-1368.21"/>
<polygon fill="black" stroke="black" points="5882.51,-1365.64 5877.23,-1374.83 5887.08,-1370.94 5882.51,-1365.64"/>
<text text-anchor="start" x="6105.21" y="-1154.56" font-family="Times New Roman,serif" font-size="14.00">promoted</text>
</g>
<!-- Entity44&#45;&gt;Entity15 -->
<g id="edge64" class="edge verb">
<title>Entity44&#45;&gt;Entity15</title>
<path fill="none" stroke="black" d="M6443.13,-934.22C6359.53,-1007.07 6004.66,-1287.79 5893.12,-1369.69"/>
<polygon fill="black" stroke="black" points="5890.93,-1366.96 5884.91,-1375.68 5895.05,-1372.61 5890.93,-1366.96"/>
<text text-anchor="start" x="6168.13" y="-1155.75" font-family="Times New Roman,serif" font-size="14.00">advises</text>
</g>
<!-- Entity83 -->
<g id="node40" class="node entity">
<title>Entity83</title>
<ellipse fill="none" stroke="black" cx="7049.48" cy="-701.95" rx="61.99" ry="18"/>
<text text-anchor="start" x="7009.98" y="-698.25" font-family="Times New Roman,serif" font-size="14.00">breitbart news</text>
</g>
<!-- Entity44&#45;&gt;Entity83 -->
<g id="edge46" class="edge verb">
<title>Entity44&#45;&gt;Entity83</title>
<path fill="none" stroke="black" d="M6498.57,-903.14C6601.51,-865.55 6887.18,-761.22 7001.39,-719.51"/>
<polygon fill="black" stroke="black" points="7002.74,-722.74 7010.93,-716.02 7000.34,-716.17 7002.74,-722.74"/>
<text text-anchor="start" x="6708.98" y="-815.12" font-family="Times New Roman,serif" font-size="14.00">created</text>
</g>
<!-- Entity89 -->
<g id="node49" class="node entity">
<title>Entity89</title>
<ellipse fill="none" stroke="black" cx="6460.51" cy="-463.02" rx="35.19" ry="18"/>
<text text-anchor="start" x="6441.51" y="-459.32" font-family="Times New Roman,serif" font-size="14.00">gurgev</text>
</g>
<!-- Entity44&#45;&gt;Entity89 -->
<g id="edge53" class="edge verb">
<title>Entity44&#45;&gt;Entity89</title>
<path fill="none" stroke="black" d="M6460.84,-898.84C6460.79,-829.02 6460.59,-576.6 6460.53,-491.36"/>
<polygon fill="black" stroke="black" points="6464.03,-491.14 6460.52,-481.14 6457.03,-491.15 6464.03,-491.14"/>
<text text-anchor="start" x="6419.68" y="-698.9" font-family="Times New Roman,serif" font-size="14.00">studied</text>
</g>
<!-- Entity91 -->
<g id="node51" class="node entity">
<title>Entity91</title>
<ellipse fill="none" stroke="black" cx="6680.84" cy="-485.95" rx="38.19" ry="18"/>
<text text-anchor="start" x="6659.34" y="-482.25" font-family="Times New Roman,serif" font-size="14.00">us navy</text>
</g>
<!-- Entity44&#45;&gt;Entity91 -->
<g id="edge55" class="edge verb">
<title>Entity44&#45;&gt;Entity91</title>
<path fill="none" stroke="black" d="M6470.03,-898.94C6504.49,-831.43 6626.32,-592.76 6667.29,-512.5"/>
<polygon fill="black" stroke="black" points="6670.45,-514.02 6671.87,-503.52 6664.21,-510.84 6670.45,-514.02"/>
<text text-anchor="start" x="6507.66" y="-709.52" font-family="Times New Roman,serif" font-size="14.00">member of</text>
</g>
<!-- Entity94 -->
<g id="node53" class="node entity">
<title>Entity94</title>
<ellipse fill="none" stroke="black" cx="6862.03" cy="-593.92" rx="53.09" ry="18"/>
<text text-anchor="start" x="6829.03" y="-590.22" font-family="Times New Roman,serif" font-size="14.00">biosphere 2</text>
</g>
<!-- Entity44&#45;&gt;Entity94 -->
<g id="edge57" class="edge verb">
<title>Entity44&#45;&gt;Entity94</title>
<path fill="none" stroke="black" d="M6481.86,-900C6548.75,-846.15 6756.86,-678.59 6833.41,-616.96"/>
<polygon fill="black" stroke="black" points="6835.64,-619.66 6841.24,-610.66 6831.25,-614.2 6835.64,-619.66"/>
<text text-anchor="start" x="6616.63" y="-762.28" font-family="Times New Roman,serif" font-size="14.00">created</text>
</g>
<!-- Entity107 -->
<g id="node58" class="node entity">
<title>Entity107</title>
<ellipse fill="none" stroke="black" cx="6475.97" cy="-808.9" rx="77.19" ry="18"/>
<text text-anchor="start" x="6424.47" y="-805.2" font-family="Times New Roman,serif" font-size="14.00">hollywood movies</text>
</g>
<!-- Entity44&#45;&gt;Entity107 -->
<g id="edge61" class="edge verb">
<title>Entity44&#45;&gt;Entity107</title>
<path fill="none" stroke="black" d="M6463.42,-898.59C6465.78,-881.73 6469.31,-856.47 6472.03,-837.05"/>
<polygon fill="black" stroke="black" points="6475.52,-837.34 6473.44,-826.96 6468.59,-836.37 6475.52,-837.34"/>
<text text-anchor="start" x="6412.72" y="-871.62" font-family="Times New Roman,serif" font-size="14.00">produced</text>
</g>
<!-- Entity111 -->
<g id="node59" class="node entity">
<title>Entity111</title>
<ellipse fill="none" stroke="black" cx="7010.61" cy="-968.35" rx="64.99" ry="18"/>
<text text-anchor="start" x="6968.61" y="-964.65" font-family="Times New Roman,serif" font-size="14.00">goldman sachs</text>
</g>
<!-- Entity44&#45;&gt;Entity111 -->
<g id="edge66" class="edge verb">
<title>Entity44&#45;&gt;Entity111</title>
<path fill="none" stroke="black" d="M6516.85,-922.15C6617.3,-931.55 6827.96,-951.26 6938.85,-961.63"/>
<polygon fill="black" stroke="black" points="6938.66,-965.13 6948.94,-962.58 6939.31,-958.16 6938.66,-965.13"/>
<text text-anchor="start" x="6664.85" y="-945.69" font-family="Times New Roman,serif" font-size="14.00">worked for</text>
</g>
<!-- Entity33 -->
<g id="node32" class="node entity">
<title>Entity33</title>
<ellipse fill="none" stroke="black" cx="2134.86" cy="-2883.33" rx="57.69" ry="18"/>
<text text-anchor="start" x="2098.36" y="-2879.63" font-family="Times New Roman,serif" font-size="14.00">michael pane</text>
</g>
<!-- Entity33&#45;&gt;Entity30 -->
<g id="edge47" class="edge verb">
<title>Entity33&#45;&gt;Entity30</title>
<path fill="none" stroke="black" d="M2102.23,-2898.35C2061.12,-2917.27 1990.3,-2949.88 1944.38,-2971.01"/>
<polygon fill="black" stroke="black" points="1942.88,-2967.85 1935.26,-2975.21 1945.81,-2974.21 1942.88,-2967.85"/>
<text text-anchor="start" x="1960.31" y="-2938.48" font-family="Times New Roman,serif" font-size="14.00">worked for</text>
</g>
<!-- Entity33&#45;&gt;Entity72 -->
<g id="edge31" class="edge verb">
<title>Entity33&#45;&gt;Entity72</title>
<path fill="none" stroke="black" d="M2161.28,-2867.22C2232.36,-2823.86 2427.65,-2704.76 2507.59,-2655.99"/>
<polygon fill="black" stroke="black" points="2509.59,-2658.87 2516.31,-2650.68 2505.95,-2652.9 2509.59,-2658.87"/>
<text text-anchor="start" x="2278.44" y="-2765.4" font-family="Times New Roman,serif" font-size="14.00">worked at</text>
</g>
<!-- Entity45 -->
<g id="node33" class="node entity">
<title>Entity45</title>
<ellipse fill="none" stroke="black" cx="5477.31" cy="-1386.4" rx="67.69" ry="18"/>
<text text-anchor="start" x="5433.31" y="-1382.7" font-family="Times New Roman,serif" font-size="14.00">abraham lincoln</text>
</g>
<!-- Entity45&#45;&gt;Entity66 -->
<g id="edge32" class="edge verb">
<title>Entity45&#45;&gt;Entity66</title>
<path fill="none" stroke="black" d="M5484.89,-1404.55C5517.26,-1482.04 5643.96,-1785.38 5682.65,-1878"/>
<polygon fill="black" stroke="black" points="5679.44,-1879.39 5686.52,-1887.27 5685.89,-1876.69 5679.44,-1879.39"/>
<text text-anchor="start" x="5567.77" y="-1645.08" font-family="Times New Roman,serif" font-size="14.00">isa</text>
</g>
<!-- Entity38 -->
<g id="node34" class="node entity">
<title>Entity38</title>
<ellipse fill="none" stroke="black" cx="5154.16" cy="-734.18" rx="90.98" ry="18"/>
<text text-anchor="start" x="5092.16" y="-730.48" font-family="Times New Roman,serif" font-size="14.00">emma hardinge&#45;britten</text>
</g>
<!-- Entity38&#45;&gt;Entity45 -->
<g id="edge33" class="edge verb">
<title>Entity38&#45;&gt;Entity45</title>
<path fill="none" stroke="black" d="M5163.14,-752.31C5208.21,-843.27 5409.74,-1250.01 5463.88,-1359.29"/>
<polygon fill="black" stroke="black" points="5460.8,-1360.95 5468.37,-1368.36 5467.07,-1357.84 5460.8,-1360.95"/>
<text text-anchor="start" x="5214.51" y="-1059.6" font-family="Times New Roman,serif" font-size="14.00">spokesperson for</text>
</g>
<!-- Entity79 -->
<g id="node38" class="node entity">
<title>Entity79</title>
<ellipse fill="none" stroke="black" cx="5191.93" cy="-158.46" rx="39.79" ry="18"/>
<text text-anchor="start" x="5169.43" y="-154.76" font-family="Times New Roman,serif" font-size="14.00">medium</text>
</g>
<!-- Entity38&#45;&gt;Entity79 -->
<g id="edge38" class="edge verb">
<title>Entity38&#45;&gt;Entity79</title>
<path fill="none" stroke="black" d="M5155.36,-716C5160.81,-632.83 5183.42,-288.31 5190.08,-186.75"/>
<polygon fill="black" stroke="black" points="5193.58,-186.85 5190.74,-176.64 5186.59,-186.39 5193.58,-186.85"/>
<text text-anchor="start" x="5156.72" y="-455.18" font-family="Times New Roman,serif" font-size="14.00">isa</text>
</g>
<!-- Entity86 -->
<g id="node48" class="node entity">
<title>Entity86</title>
<ellipse fill="none" stroke="black" cx="4470.89" cy="-774.98" rx="85.29" ry="18"/>
<text text-anchor="start" x="4413.39" y="-771.28" font-family="Times New Roman,serif" font-size="14.00">theosophical society</text>
</g>
<!-- Entity38&#45;&gt;Entity86 -->
<g id="edge65" class="edge verb">
<title>Entity38&#45;&gt;Entity86</title>
<path fill="none" stroke="black" d="M5066.93,-739.39C4937.46,-747.12 4695.52,-761.57 4563.19,-769.47"/>
<polygon fill="black" stroke="black" points="4562.84,-765.98 4553.07,-770.07 4563.26,-772.97 4562.84,-765.98"/>
<text text-anchor="start" x="4774.06" y="-758.23" font-family="Times New Roman,serif" font-size="14.00">created</text>
</g>
<!-- Entity99 -->
<g id="node54" class="node entity">
<title>Entity99</title>
<ellipse fill="none" stroke="black" cx="5125.86" cy="-626.17" rx="55.79" ry="18"/>
<text text-anchor="start" x="5090.86" y="-622.47" font-family="Times New Roman,serif" font-size="14.00">orphic circle</text>
</g>
<!-- Entity38&#45;&gt;Entity99 -->
<g id="edge58" class="edge verb">
<title>Entity38&#45;&gt;Entity99</title>
<path fill="none" stroke="black" d="M5149.36,-715.86C5144.92,-698.92 5138.26,-673.51 5133.17,-654.05"/>
<polygon fill="black" stroke="black" points="5136.51,-653.01 5130.59,-644.22 5129.74,-654.78 5136.51,-653.01"/>
<text text-anchor="start" x="5080.26" y="-688.76" font-family="Times New Roman,serif" font-size="14.00">member of</text>
</g>
<!-- Entity42 -->
<g id="node36" class="node entity">
<title>Entity42</title>
<ellipse fill="none" stroke="black" cx="4538.94" cy="-1512.66" rx="53.89" ry="18"/>
<text text-anchor="start" x="4505.44" y="-1508.96" font-family="Times New Roman,serif" font-size="14.00">black magic</text>
</g>
<!-- Entity81 -->
<g id="node37" class="node entity">
<title>Entity81</title>
<ellipse fill="none" stroke="black" cx="4626.66" cy="-1624.64" rx="28.7" ry="18"/>
<text text-anchor="start" x="4612.66" y="-1620.94" font-family="Times New Roman,serif" font-size="14.00">x left</text>
</g>
<!-- Entity42&#45;&gt;Entity81 -->
<g id="edge37" class="edge verb">
<title>Entity42&#45;&gt;Entity81</title>
<path fill="none" stroke="black" d="M4552.64,-1530.16C4567.45,-1549.05 4591.14,-1579.29 4607.72,-1600.45"/>
<polygon fill="black" stroke="black" points="4604.98,-1602.64 4613.9,-1608.36 4610.49,-1598.32 4604.98,-1602.64"/>
<text text-anchor="start" x="4519.18" y="-1569.11" font-family="Times New Roman,serif" font-size="14.00">member of</text>
</g>
<!-- Entity47 -->
<g id="node39" class="node entity">
<title>Entity47</title>
<ellipse fill="none" stroke="black" cx="7575.73" cy="-454.97" rx="69.59" ry="18"/>
<text text-anchor="start" x="7530.23" y="-451.27" font-family="Times New Roman,serif" font-size="14.00">andrew breitbart</text>
</g>
<!-- Entity47&#45;&gt;Entity83 -->
<g id="edge39" class="edge verb">
<title>Entity47&#45;&gt;Entity83</title>
<path fill="none" stroke="black" d="M7542.01,-470.8C7449.71,-514.12 7193.07,-634.56 7091.57,-682.19"/>
<polygon fill="black" stroke="black" points="7089.81,-679.15 7082.24,-686.57 7092.78,-685.49 7089.81,-679.15"/>
<text text-anchor="start" x="7275.79" y="-580.3" font-family="Times New Roman,serif" font-size="14.00">created</text>
</g>
<!-- Entity35 -->
<g id="node42" class="node entity">
<title>Entity35</title>
<ellipse fill="none" stroke="black" cx="3926.94" cy="-1512.66" rx="39.79" ry="18"/>
<text text-anchor="start" x="3904.44" y="-1508.96" font-family="Times New Roman,serif" font-size="14.00">crowley</text>
</g>
<!-- Entity80 -->
<g id="node43" class="node entity">
<title>Entity80</title>
<ellipse fill="none" stroke="black" cx="4014.66" cy="-1624.64" rx="38.99" ry="18"/>
<text text-anchor="start" x="3992.66" y="-1620.94" font-family="Times New Roman,serif" font-size="14.00">x magic</text>
</g>
<!-- Entity35&#45;&gt;Entity80 -->
<g id="edge41" class="edge verb">
<title>Entity35&#45;&gt;Entity80</title>
<path fill="none" stroke="black" d="M3940.26,-1529.67C3954.82,-1548.25 3978.28,-1578.2 3994.96,-1599.49"/>
<polygon fill="black" stroke="black" points="3992.29,-1601.76 4001.21,-1607.47 3997.8,-1597.44 3992.29,-1601.76"/>
<text text-anchor="start" x="3906.61" y="-1568.38" font-family="Times New Roman,serif" font-size="14.00">member of</text>
</g>
<!-- Entity19 -->
<g id="node44" class="node entity">
<title>Entity19</title>
<ellipse fill="none" stroke="black" cx="5303.17" cy="-1930.39" rx="31.4" ry="18"/>
<text text-anchor="start" x="5287.17" y="-1926.69" font-family="Times New Roman,serif" font-size="14.00">carter</text>
</g>
<!-- Entity19&#45;&gt;Entity66 -->
<g id="edge44" class="edge verb">
<title>Entity19&#45;&gt;Entity66</title>
<path fill="none" stroke="black" d="M5334.48,-1928.36C5404.59,-1923.8 5574.17,-1912.79 5652.72,-1907.68"/>
<polygon fill="black" stroke="black" points="5652.98,-1911.17 5662.73,-1907.03 5652.53,-1904.19 5652.98,-1911.17"/>
<text text-anchor="start" x="5477.6" y="-1921.82" font-family="Times New Roman,serif" font-size="14.00">isa</text>
</g>
<!-- Entity19&#45;&gt;Entity90 -->
<g id="edge56" class="edge verb">
<title>Entity19&#45;&gt;Entity90</title>
<path fill="none" stroke="black" d="M5271.84,-1930.4C5205.14,-1930.42 5049.3,-1930.47 4977.24,-1930.49"/>
<polygon fill="black" stroke="black" points="4976.83,-1926.99 4966.83,-1930.49 4976.83,-1933.99 4976.83,-1926.99"/>
<text text-anchor="start" x="5069.54" y="-1934.25" font-family="Times New Roman,serif" font-size="14.00">witnessed</text>
</g>
<!-- Entity27 -->
<g id="node45" class="node entity">
<title>Entity27</title>
<ellipse fill="none" stroke="black" cx="74.92" cy="-4133.71" rx="75.29" ry="18"/>
<text text-anchor="start" x="24.92" y="-4130.01" font-family="Times New Roman,serif" font-size="14.00">lee harvey oswald</text>
</g>
<!-- Entity34 -->
<g id="node46" class="node entity">
<title>Entity34</title>
<ellipse fill="none" stroke="black" cx="550.3" cy="-3833.74" rx="59.29" ry="18"/>
<text text-anchor="start" x="512.8" y="-3830.04" font-family="Times New Roman,serif" font-size="14.00">guy bannister</text>
</g>
<!-- Entity27&#45;&gt;Entity34 -->
<g id="edge50" class="edge verb">
<title>Entity27&#45;&gt;Entity34</title>
<path fill="none" stroke="black" d="M101.84,-4116.72C183.1,-4065.45 425.86,-3912.26 516.06,-3855.35"/>
<polygon fill="black" stroke="black" points="517.96,-3858.28 524.55,-3849.99 514.23,-3852.36 517.96,-3858.28"/>
<text text-anchor="start" x="245.95" y="-3989.84" font-family="Times New Roman,serif" font-size="14.00">worked for</text>
</g>
<!-- Entity34&#45;&gt;Entity75 -->
<g id="edge51" class="edge verb">
<title>Entity34&#45;&gt;Entity75</title>
<path fill="none" stroke="black" d="M575.74,-3817.41C648.99,-3770.39 860.25,-3634.79 940.62,-3583.19"/>
<polygon fill="black" stroke="black" points="942.79,-3585.96 949.32,-3577.61 939.01,-3580.07 942.79,-3585.96"/>
<text text-anchor="start" x="697.18" y="-3704.1" font-family="Times New Roman,serif" font-size="14.00">member of</text>
</g>
<!-- Entity64 -->
<g id="node47" class="node entity">
<title>Entity64</title>
<ellipse fill="none" stroke="black" cx="4053.1" cy="-272.93" rx="73.39" ry="18"/>
<text text-anchor="start" x="4004.6" y="-269.23" font-family="Times New Roman,serif" font-size="14.00">madam blavatsky</text>
</g>
<!-- Entity64&#45;&gt;Entity86 -->
<g id="edge52" class="edge verb">
<title>Entity64&#45;&gt;Entity86</title>
<path fill="none" stroke="black" d="M4067.97,-290.79C4130.91,-366.43 4375.54,-660.41 4449.56,-749.35"/>
<polygon fill="black" stroke="black" points="4446.89,-751.62 4455.98,-757.07 4452.27,-747.14 4446.89,-751.62"/>
<text text-anchor="start" x="4217.76" y="-523.87" font-family="Times New Roman,serif" font-size="14.00">created</text>
</g>
<!-- Entity60 -->
<g id="node56" class="node entity">
<title>Entity60</title>
<ellipse fill="none" stroke="black" cx="4417.19" cy="-666.91" rx="58.49" ry="18"/>
<text text-anchor="start" x="4380.19" y="-663.21" font-family="Times New Roman,serif" font-size="14.00">rudolf steiner</text>
</g>
<!-- Entity60&#45;&gt;Entity86 -->
<g id="edge63" class="edge verb">
<title>Entity60&#45;&gt;Entity86</title>
<path fill="none" stroke="black" d="M4426.06,-684.76C4434.56,-701.86 4447.5,-727.92 4457.3,-747.64"/>
<polygon fill="black" stroke="black" points="4454.24,-749.35 4461.83,-756.75 4460.51,-746.24 4454.24,-749.35"/>
<text text-anchor="start" x="4375.68" y="-720" font-family="Times New Roman,serif" font-size="14.00">memberr of</text>
</g>
<!-- Entity93 -->
<g id="node57" class="node entity">
<title>Entity93</title>
<ellipse fill="none" stroke="black" cx="4240.49" cy="-17.66" rx="102.08" ry="18"/>
<text text-anchor="start" x="4169.99" y="-13.96" font-family="Times New Roman,serif" font-size="14.00">anthroposophical society</text>
</g>
<!-- Entity60&#45;&gt;Entity93 -->
<g id="edge60" class="edge verb">
<title>Entity60&#45;&gt;Entity93</title>
<path fill="none" stroke="black" d="M4412.28,-648.87C4387.71,-558.6 4278.12,-155.94 4248.11,-45.67"/>
<polygon fill="black" stroke="black" points="4251.46,-44.66 4245.46,-35.93 4244.71,-46.5 4251.46,-44.66"/>
<text text-anchor="start" x="4289.2" y="-351.07" font-family="Times New Roman,serif" font-size="14.00">created</text>
</g>
<!-- Entity109 -->
<g id="node60" class="node entity">
<title>Entity109</title>
<ellipse fill="none" stroke="black" cx="3315.94" cy="-1512.66" rx="27" ry="18"/>
<text text-anchor="start" x="3312.44" y="-1508.96" font-family="Times New Roman,serif" font-size="14.00">s</text>
</g>
<!-- Entity112 -->
<g id="node61" class="node entity">
<title>Entity112</title>
<ellipse fill="none" stroke="black" cx="3403.66" cy="-1624.64" rx="27" ry="18"/>
<text text-anchor="start" x="3399.66" y="-1620.94" font-family="Times New Roman,serif" font-size="14.00">o</text>
</g>
<!-- Entity109&#45;&gt;Entity112 -->
<g id="edge67" class="edge verb">
<title>Entity109&#45;&gt;Entity112</title>
<path fill="none" stroke="black" d="M3328.51,-1528.7C3343.23,-1547.5 3367.76,-1578.82 3384.78,-1600.53"/>
<polygon fill="black" stroke="black" points="3382.19,-1602.91 3391.11,-1608.62 3387.7,-1598.59 3382.19,-1602.91"/>
<text text-anchor="start" x="3349.64" y="-1568.42" font-family="Times New Roman,serif" font-size="14.00">v</text>
</g>
</g>
</svg>
