<?xml version="1.0" encoding="UTF-8" standalone="no"?>
<?xml-stylesheet href="./styles.css" type="text/css"?>
<!DOCTYPE svg PUBLIC "-//W3C//DTD SVG 1.1//EN"
 "http://www.w3.org/Graphics/SVG/1.1/DTD/svg11.dtd">
<!-- Generated by graphviz version 2.47.3 (20210619.1520)
 -->
<!-- Title: G Pages: 1 -->
<svg width="6075pt" height="4331pt"
 viewBox="0.00 0.00 6075.00 4331.00" xmlns="http://www.w3.org/2000/svg" xmlns:xlink="http://www.w3.org/1999/xlink">
<g id="graph0" class="graph" transform="scale(1 1) rotate(0) translate(4 4327)">
<title>G</title>
<polygon fill="white" stroke="transparent" points="-4,4 -4,-4327 6071,-4327 6071,4 -4,4"/>
<!-- Entity3 -->
<g id="node1" class="node entity">
<title>Entity3</title>
<ellipse fill="none" stroke="black" cx="3749.41" cy="-2975.09" rx="27" ry="18"/>
<text text-anchor="start" x="3741.91" y="-2971.39" font-family="Times New Roman,serif" font-size="14.00">jfk</text>
</g>
<!-- Entity22 -->
<g id="node2" class="node entity">
<title>Entity22</title>
<ellipse fill="none" stroke="black" cx="3378.02" cy="-2795.28" rx="27" ry="18"/>
<text text-anchor="start" x="3370.02" y="-2791.58" font-family="Times New Roman,serif" font-size="14.00">cia</text>
</g>
<!-- Entity3&#45;&gt;Entity22 -->
<g id="edge1" class="edge verb">
<title>Entity3&#45;&gt;Entity22</title>
<path fill="none" stroke="black" d="M3727.29,-2964.38C3664.07,-2933.77 3482.47,-2845.85 3409.21,-2810.39"/>
<polygon fill="black" stroke="black" points="3410.55,-2807.14 3400.02,-2805.94 3407.5,-2813.44 3410.55,-2807.14"/>
<text text-anchor="start" x="3464.25" y="-2891.18" font-family="Times New Roman,serif" font-size="14.00">heads (1961&#45;1963)</text>
</g>
<!-- Entity66 -->
<g id="node20" class="node entity">
<title>Entity66</title>
<ellipse fill="none" stroke="black" cx="4186.22" cy="-3082.48" rx="31.4" ry="18"/>
<text text-anchor="start" x="4170.22" y="-3078.78" font-family="Times New Roman,serif" font-size="14.00">potus</text>
</g>
<!-- Entity3&#45;&gt;Entity66 -->
<g id="edge23" class="edge verb">
<title>Entity3&#45;&gt;Entity66</title>
<path fill="none" stroke="black" d="M3774.78,-2981.32C3848,-2999.32 4059.96,-3051.44 4147.59,-3072.99"/>
<polygon fill="black" stroke="black" points="4146.86,-3076.41 4157.4,-3075.4 4148.53,-3069.61 4146.86,-3076.41"/>
<text text-anchor="start" x="3874.19" y="-3030.96" font-family="Times New Roman,serif" font-size="14.00">isa (1961&#45;1963)</text>
</g>
<!-- Entity67 -->
<g id="node25" class="node entity">
<title>Entity67</title>
<ellipse fill="none" stroke="black" cx="2650.12" cy="-2681.71" rx="77.19" ry="18"/>
<text text-anchor="start" x="2598.62" y="-2678.01" font-family="Times New Roman,serif" font-size="14.00">psi&#45;consciousness</text>
</g>
<!-- Entity22&#45;&gt;Entity67 -->
<g id="edge43" class="edge verb">
<title>Entity22&#45;&gt;Entity67</title>
<path fill="none" stroke="black" d="M3351.68,-2791.17C3250.42,-2775.38 2883.92,-2718.19 2724.76,-2693.36"/>
<polygon fill="black" stroke="black" points="2725,-2689.85 2714.58,-2691.77 2723.92,-2696.77 2725,-2689.85"/>
<text text-anchor="start" x="2974.22" y="-2746.07" font-family="Times New Roman,serif" font-size="14.00">investigates</text>
</g>
<!-- Entity90 -->
<g id="node52" class="node entity">
<title>Entity90</title>
<ellipse fill="none" stroke="black" cx="3653.21" cy="-2644.77" rx="27" ry="18"/>
<text text-anchor="start" x="3643.71" y="-2641.07" font-family="Times New Roman,serif" font-size="14.00">ufo</text>
</g>
<!-- Entity22&#45;&gt;Entity90 -->
<g id="edge62" class="edge verb">
<title>Entity22&#45;&gt;Entity90</title>
<path fill="none" stroke="black" d="M3399.15,-2783.72C3447.58,-2757.24 3566.69,-2692.09 3622.9,-2661.35"/>
<polygon fill="black" stroke="black" points="3624.91,-2664.24 3632,-2656.37 3621.55,-2658.1 3624.91,-2664.24"/>
<text text-anchor="start" x="3447.03" y="-2726.33" font-family="Times New Roman,serif" font-size="14.00">investigates</text>
</g>
<!-- Entity14 -->
<g id="node3" class="node entity">
<title>Entity14</title>
<ellipse fill="none" stroke="black" cx="1102.89" cy="-1947.46" rx="74.99" ry="18"/>
<text text-anchor="start" x="1053.39" y="-1943.76" font-family="Times New Roman,serif" font-size="14.00">gene roddenberry</text>
</g>
<!-- Entity8 -->
<g id="node4" class="node entity">
<title>Entity8</title>
<ellipse fill="none" stroke="black" cx="1478.58" cy="-2290.57" rx="38.19" ry="18"/>
<text text-anchor="start" x="1457.08" y="-2286.87" font-family="Times New Roman,serif" font-size="14.00">the nine</text>
</g>
<!-- Entity14&#45;&gt;Entity8 -->
<g id="edge2" class="edge verb">
<title>Entity14&#45;&gt;Entity8</title>
<path fill="none" stroke="black" d="M1122.03,-1964.95C1184.52,-2022.02 1382.53,-2202.85 1453.21,-2267.4"/>
<polygon fill="black" stroke="black" points="1451.05,-2270.17 1460.8,-2274.33 1455.77,-2265 1451.05,-2270.17"/>
<text text-anchor="start" x="1183.62" y="-2119.97" font-family="Times New Roman,serif" font-size="14.00">claiemd to channel</text>
</g>
<!-- Entity70 -->
<g id="node23" class="node entity">
<title>Entity70</title>
<ellipse fill="none" stroke="black" cx="921.65" cy="-2127.35" rx="94.48" ry="18"/>
<text text-anchor="start" x="857.15" y="-2123.65" font-family="Times New Roman,serif" font-size="14.00">egyptian gods in a ship</text>
</g>
<!-- Entity8&#45;&gt;Entity70 -->
<g id="edge16" class="edge verb">
<title>Entity8&#45;&gt;Entity70</title>
<path fill="none" stroke="black" d="M1445.82,-2280.97C1355.33,-2254.45 1100.86,-2179.87 982.99,-2145.33"/>
<polygon fill="black" stroke="black" points="983.96,-2141.96 973.38,-2142.51 981.99,-2148.68 983.96,-2141.96"/>
<text text-anchor="start" x="1110.41" y="-2216.95" font-family="Times New Roman,serif" font-size="14.00">claimed to channel</text>
</g>
<!-- Entity16 -->
<g id="node5" class="node entity">
<title>Entity16</title>
<ellipse fill="none" stroke="black" cx="4532.91" cy="-3445.73" rx="68.49" ry="18"/>
<text text-anchor="start" x="4488.41" y="-3442.03" font-family="Times New Roman,serif" font-size="14.00">george hw bush</text>
</g>
<!-- Entity20 -->
<g id="node6" class="node entity">
<title>Entity20</title>
<ellipse fill="none" stroke="black" cx="4136.99" cy="-3342.43" rx="63.89" ry="18"/>
<text text-anchor="start" x="4095.99" y="-3338.73" font-family="Times New Roman,serif" font-size="14.00">george w bush</text>
</g>
<!-- Entity16&#45;&gt;Entity20 -->
<g id="edge3" class="edge verb">
<title>Entity16&#45;&gt;Entity20</title>
<path fill="none" stroke="black" d="M4484.36,-3433.06C4411.04,-3413.93 4272.36,-3377.75 4194.23,-3357.37"/>
<polygon fill="black" stroke="black" points="4194.64,-3353.86 4184.08,-3354.72 4192.88,-3360.63 4194.64,-3353.86"/>
<text text-anchor="start" x="4307.29" y="-3399.01" font-family="Times New Roman,serif" font-size="14.00">father</text>
</g>
<!-- Entity16&#45;&gt;Entity66 -->
<g id="edge20" class="edge verb">
<title>Entity16&#45;&gt;Entity66</title>
<path fill="none" stroke="black" d="M4516.19,-3428.21C4459.27,-3368.58 4273.04,-3173.45 4208.49,-3105.82"/>
<polygon fill="black" stroke="black" points="4211.02,-3103.4 4201.58,-3098.58 4205.95,-3108.23 4211.02,-3103.4"/>
<text text-anchor="start" x="4346.34" y="-3270.81" font-family="Times New Roman,serif" font-size="14.00">isa</text>
</g>
<!-- Entity20&#45;&gt;Entity66 -->
<g id="edge42" class="edge verb">
<title>Entity20&#45;&gt;Entity66</title>
<path fill="none" stroke="black" d="M4140.45,-3324.15C4148.93,-3279.39 4170.77,-3164.06 4180.91,-3110.54"/>
<polygon fill="black" stroke="black" points="4184.4,-3110.88 4182.83,-3100.4 4177.53,-3109.57 4184.4,-3110.88"/>
<text text-anchor="start" x="4144.68" y="-3221.14" font-family="Times New Roman,serif" font-size="14.00">isa</text>
</g>
<!-- Entity2 -->
<g id="node7" class="node entity">
<title>Entity2</title>
<ellipse fill="none" stroke="black" cx="1672.9" cy="-1950.88" rx="41.69" ry="18"/>
<text text-anchor="start" x="1648.9" y="-1947.18" font-family="Times New Roman,serif" font-size="14.00">uri geller</text>
</g>
<!-- Entity2&#45;&gt;Entity8 -->
<g id="edge4" class="edge verb">
<title>Entity2&#45;&gt;Entity8</title>
<path fill="none" stroke="black" d="M1662.73,-1968.67C1630.72,-2024.62 1531.96,-2197.26 1493.83,-2263.92"/>
<polygon fill="black" stroke="black" points="1490.58,-2262.55 1488.66,-2272.96 1496.66,-2266.02 1490.58,-2262.55"/>
<text text-anchor="start" x="1474.28" y="-2120.1" font-family="Times New Roman,serif" font-size="14.00">claiemd to channel</text>
</g>
<!-- Entity26 -->
<g id="node8" class="node entity">
<title>Entity26</title>
<ellipse fill="none" stroke="black" cx="49.5" cy="-4035.54" rx="49.29" ry="18"/>
<text text-anchor="start" x="19.5" y="-4031.84" font-family="Times New Roman,serif" font-size="14.00">adolf hitler</text>
</g>
<!-- Entity28 -->
<g id="node9" class="node entity">
<title>Entity28</title>
<ellipse fill="none" stroke="black" cx="424.99" cy="-3846.2" rx="32.49" ry="18"/>
<text text-anchor="start" x="407.99" y="-3842.5" font-family="Times New Roman,serif" font-size="14.00">nsdap</text>
</g>
<!-- Entity26&#45;&gt;Entity28 -->
<g id="edge5" class="edge verb">
<title>Entity26&#45;&gt;Entity28</title>
<path fill="none" stroke="black" d="M78.65,-4020.84C147.25,-3986.25 318.58,-3899.86 391.39,-3863.14"/>
<polygon fill="black" stroke="black" points="393.23,-3866.13 400.59,-3858.51 390.08,-3859.88 393.23,-3866.13"/>
<text text-anchor="start" x="194.02" y="-3945.79" font-family="Times New Roman,serif" font-size="14.00">created</text>
</g>
<!-- Entity75 -->
<g id="node31" class="node entity">
<title>Entity75</title>
<ellipse fill="none" stroke="black" cx="568.72" cy="-4155.47" rx="38.99" ry="18"/>
<text text-anchor="start" x="546.72" y="-4151.77" font-family="Times New Roman,serif" font-size="14.00">far right</text>
</g>
<!-- Entity28&#45;&gt;Entity75 -->
<g id="edge29" class="edge verb">
<title>Entity28&#45;&gt;Entity75</title>
<path fill="none" stroke="black" d="M433.13,-3863.72C457.09,-3915.27 527.47,-4066.71 556.24,-4128.63"/>
<polygon fill="black" stroke="black" points="553.1,-4130.17 560.49,-4137.77 559.45,-4127.22 553.1,-4130.17"/>
<text text-anchor="start" x="433.69" y="-3999.97" font-family="Times New Roman,serif" font-size="14.00">member of</text>
</g>
<!-- Entity15 -->
<g id="node10" class="node entity">
<title>Entity15</title>
<ellipse fill="none" stroke="black" cx="4624.25" cy="-2906.78" rx="59.59" ry="18"/>
<text text-anchor="start" x="4586.25" y="-2903.08" font-family="Times New Roman,serif" font-size="14.00">donald trump</text>
</g>
<!-- Entity48 -->
<g id="node11" class="node entity">
<title>Entity48</title>
<ellipse fill="none" stroke="black" cx="3927.2" cy="-2867.03" rx="50.09" ry="18"/>
<text text-anchor="start" x="3896.7" y="-2863.33" font-family="Times New Roman,serif" font-size="14.00">john trump</text>
</g>
<!-- Entity15&#45;&gt;Entity48 -->
<g id="edge6" class="edge verb">
<title>Entity15&#45;&gt;Entity48</title>
<path fill="none" stroke="black" d="M4565.42,-2903.42C4434.4,-2895.95 4119.72,-2878.01 3987.42,-2870.46"/>
<polygon fill="black" stroke="black" points="3987.26,-2866.95 3977.08,-2869.87 3986.86,-2873.94 3987.26,-2866.95"/>
<text text-anchor="start" x="4217.42" y="-2890.74" font-family="Times New Roman,serif" font-size="14.00">nephew of</text>
</g>
<!-- Entity15&#45;&gt;Entity66 -->
<g id="edge27" class="edge verb">
<title>Entity15&#45;&gt;Entity66</title>
<path fill="none" stroke="black" d="M4588.03,-2921.3C4505.21,-2954.53 4302.84,-3035.7 4221.21,-3068.45"/>
<polygon fill="black" stroke="black" points="4219.85,-3065.22 4211.87,-3072.19 4222.46,-3071.72 4219.85,-3065.22"/>
<text text-anchor="start" x="4388.62" y="-2998.68" font-family="Times New Roman,serif" font-size="14.00">isa</text>
</g>
<!-- Entity48&#45;&gt;Entity22 -->
<g id="edge10" class="edge verb">
<title>Entity48&#45;&gt;Entity22</title>
<path fill="none" stroke="black" d="M3879.91,-2860.85C3772.45,-2846.81 3511.77,-2812.76 3414.99,-2800.11"/>
<polygon fill="black" stroke="black" points="3415.18,-2796.61 3404.81,-2798.78 3414.28,-2803.55 3415.18,-2796.61"/>
<text text-anchor="start" x="3586.45" y="-2834.28" font-family="Times New Roman,serif" font-size="14.00">member of</text>
</g>
<!-- Entity82 -->
<g id="node41" class="node entity">
<title>Entity82</title>
<ellipse fill="none" stroke="black" cx="3498.32" cy="-3025.97" rx="50.89" ry="18"/>
<text text-anchor="start" x="3467.32" y="-3022.27" font-family="Times New Roman,serif" font-size="14.00">nikola tesla</text>
</g>
<!-- Entity48&#45;&gt;Entity82 -->
<g id="edge40" class="edge verb">
<title>Entity48&#45;&gt;Entity82</title>
<path fill="none" stroke="black" d="M3892.11,-2880.04C3814.57,-2908.77 3628.78,-2977.63 3543.05,-3009.4"/>
<polygon fill="black" stroke="black" points="3541.76,-3006.14 3533.6,-3012.9 3544.19,-3012.71 3541.76,-3006.14"/>
<text text-anchor="start" x="3676.58" y="-2948.52" font-family="Times New Roman,serif" font-size="14.00">studied</text>
</g>
<!-- Entity5 -->
<g id="node12" class="node entity">
<title>Entity5</title>
<ellipse fill="none" stroke="black" cx="1859.71" cy="-2680" rx="56.59" ry="18"/>
<text text-anchor="start" x="1824.21" y="-2676.3" font-family="Times New Roman,serif" font-size="14.00">arthur young</text>
</g>
<!-- Entity5&#45;&gt;Entity8 -->
<g id="edge7" class="edge verb">
<title>Entity5&#45;&gt;Entity8</title>
<path fill="none" stroke="black" d="M1842.84,-2662.76C1781.82,-2600.41 1572.47,-2386.5 1501.97,-2314.47"/>
<polygon fill="black" stroke="black" points="1504.33,-2311.87 1494.83,-2307.17 1499.32,-2316.77 1504.33,-2311.87"/>
<text text-anchor="start" x="1610.41" y="-2492.41" font-family="Times New Roman,serif" font-size="14.00">member&#45;of</text>
</g>
<!-- Entity5&#45;&gt;Entity67 -->
<g id="edge18" class="edge verb">
<title>Entity5&#45;&gt;Entity67</title>
<path fill="none" stroke="black" d="M1916.56,-2680.12C2052.9,-2680.41 2399.28,-2681.17 2562.5,-2681.52"/>
<polygon fill="black" stroke="black" points="2562.5,-2685.02 2572.51,-2681.54 2562.52,-2678.02 2562.5,-2685.02"/>
<text text-anchor="start" x="2198.53" y="-2684.62" font-family="Times New Roman,serif" font-size="14.00">studied</text>
</g>
<!-- Entity72 -->
<g id="node28" class="node entity">
<title>Entity72</title>
<ellipse fill="none" stroke="black" cx="1316.14" cy="-3013.08" rx="53.89" ry="18"/>
<text text-anchor="start" x="1282.64" y="-3009.38" font-family="Times New Roman,serif" font-size="14.00">bell aviation</text>
</g>
<!-- Entity5&#45;&gt;Entity72 -->
<g id="edge24" class="edge verb">
<title>Entity5&#45;&gt;Entity72</title>
<path fill="none" stroke="black" d="M1833.49,-2696.06C1744.15,-2750.81 1451.56,-2930.09 1350.69,-2991.91"/>
<polygon fill="black" stroke="black" points="1348.79,-2988.97 1342.09,-2997.18 1352.45,-2994.94 1348.79,-2988.97"/>
<text text-anchor="start" x="1551.09" y="-2847.78" font-family="Times New Roman,serif" font-size="14.00">created</text>
</g>
<!-- Entity1 -->
<g id="node13" class="node entity">
<title>Entity1</title>
<ellipse fill="none" stroke="black" cx="1421.95" cy="-1532.6" rx="64.19" ry="18"/>
<text text-anchor="start" x="1380.45" y="-1528.9" font-family="Times New Roman,serif" font-size="14.00">andre puharich</text>
</g>
<!-- Entity1&#45;&gt;Entity2 -->
<g id="edge8" class="edge verb">
<title>Entity1&#45;&gt;Entity2</title>
<path fill="none" stroke="black" d="M1432.73,-1550.58C1472.4,-1616.69 1610.33,-1846.6 1657.19,-1924.69"/>
<polygon fill="black" stroke="black" points="1654.29,-1926.67 1662.44,-1933.44 1660.29,-1923.07 1654.29,-1926.67"/>
<text text-anchor="start" x="1484.96" y="-1741.43" font-family="Times New Roman,serif" font-size="14.00">sponsored</text>
</g>
<!-- Entity7 -->
<g id="node14" class="node entity">
<title>Entity7</title>
<ellipse fill="none" stroke="black" cx="2127.98" cy="-2233.08" rx="68.49" ry="18"/>
<text text-anchor="start" x="2083.48" y="-2229.38" font-family="Times New Roman,serif" font-size="14.00">jeffrey mishlove</text>
</g>
<!-- Entity7&#45;&gt;Entity2 -->
<g id="edge9" class="edge verb">
<title>Entity7&#45;&gt;Entity2</title>
<path fill="none" stroke="black" d="M2101.21,-2216.48C2022.36,-2167.59 1791.14,-2024.2 1705.39,-1971.03"/>
<polygon fill="black" stroke="black" points="1707.19,-1968.03 1696.84,-1965.73 1703.5,-1973.98 1707.19,-1968.03"/>
<text text-anchor="start" x="1848.3" y="-2097.56" font-family="Times New Roman,serif" font-size="14.00">promoted</text>
</g>
<!-- Entity7&#45;&gt;Entity67 -->
<g id="edge19" class="edge verb">
<title>Entity7&#45;&gt;Entity67</title>
<path fill="none" stroke="black" d="M2144.5,-2250.83C2218.29,-2321.05 2517.7,-2578.6 2617.57,-2658.2"/>
<polygon fill="black" stroke="black" points="2615.5,-2661.02 2625.51,-2664.48 2619.84,-2655.53 2615.5,-2661.02"/>
<text text-anchor="start" x="2340.04" y="-2458.31" font-family="Times New Roman,serif" font-size="14.00">studied</text>
</g>
<!-- Entity7&#45;&gt;Entity67 -->
<g id="edge26" class="edge verb">
<title>Entity7&#45;&gt;Entity67</title>
<path fill="none" stroke="black" d="M2152.34,-2250.12C2240.11,-2318.95 2539.1,-2575.75 2626.19,-2656.99"/>
<polygon fill="black" stroke="black" points="2624.03,-2659.76 2633.71,-2664.07 2628.83,-2654.67 2624.03,-2659.76"/>
<text text-anchor="start" x="2325.26" y="-2442.35" font-family="Times New Roman,serif" font-size="14.00">investigates</text>
</g>
<!-- Entity30 -->
<g id="node15" class="node entity">
<title>Entity30</title>
<ellipse fill="none" stroke="black" cx="860.69" cy="-3488.19" rx="74.99" ry="18"/>
<text text-anchor="start" x="811.19" y="-3484.49" font-family="Times New Roman,serif" font-size="14.00">walter dornberger</text>
</g>
<!-- Entity30&#45;&gt;Entity28 -->
<g id="edge11" class="edge verb">
<title>Entity30&#45;&gt;Entity28</title>
<path fill="none" stroke="black" d="M839.38,-3505.7C767.01,-3565.16 530.78,-3759.28 451.33,-3824.56"/>
<polygon fill="black" stroke="black" points="448.79,-3822.12 443.29,-3831.17 453.23,-3827.53 448.79,-3822.12"/>
<text text-anchor="start" x="584.35" y="-3668.93" font-family="Times New Roman,serif" font-size="14.00">member of</text>
</g>
<!-- Entity30&#45;&gt;Entity72 -->
<g id="edge35" class="edge verb">
<title>Entity30&#45;&gt;Entity72</title>
<path fill="none" stroke="black" d="M881.48,-3470.68C957.78,-3398.4 1221.14,-3123.79 1296.13,-3038.47"/>
<polygon fill="black" stroke="black" points="1298.87,-3040.66 1302.79,-3030.81 1293.59,-3036.06 1298.87,-3040.66"/>
<text text-anchor="start" x="1009.81" y="-3258.37" font-family="Times New Roman,serif" font-size="14.00">vice&#45;president</text>
</g>
<!-- Entity30&#45;&gt;Entity72 -->
<g id="edge49" class="edge verb">
<title>Entity30&#45;&gt;Entity72</title>
<path fill="none" stroke="black" d="M874.19,-3470.27C937.23,-3396.94 1202.05,-3120.37 1288.66,-3036.97"/>
<polygon fill="black" stroke="black" points="1291.19,-3039.4 1296.01,-3029.96 1286.36,-3034.33 1291.19,-3039.4"/>
<text text-anchor="start" x="1025.43" y="-3242.42" font-family="Times New Roman,serif" font-size="14.00">worked at</text>
</g>
<!-- Entity76 -->
<g id="node35" class="node entity">
<title>Entity76</title>
<ellipse fill="none" stroke="black" cx="1538.13" cy="-3673.21" rx="90.98" ry="18"/>
<text text-anchor="start" x="1476.13" y="-3669.51" font-family="Times New Roman,serif" font-size="14.00">nsdap rocket program</text>
</g>
<!-- Entity30&#45;&gt;Entity76 -->
<g id="edge36" class="edge verb">
<title>Entity30&#45;&gt;Entity76</title>
<path fill="none" stroke="black" d="M910.23,-3501.72C1031.04,-3534.71 1340.71,-3619.29 1474.74,-3655.89"/>
<polygon fill="black" stroke="black" points="1473.89,-3659.29 1484.46,-3658.55 1475.74,-3652.54 1473.89,-3659.29"/>
<text text-anchor="start" x="1151.48" y="-3582.61" font-family="Times New Roman,serif" font-size="14.00">created</text>
</g>
<!-- Entity104 -->
<g id="node55" class="node entity">
<title>Entity104</title>
<ellipse fill="none" stroke="black" cx="260.9" cy="-3473.98" rx="65.79" ry="18"/>
<text text-anchor="start" x="218.4" y="-3470.28" font-family="Times New Roman,serif" font-size="14.00">x series aircraft</text>
</g>
<!-- Entity30&#45;&gt;Entity104 -->
<g id="edge59" class="edge verb">
<title>Entity30&#45;&gt;Entity104</title>
<path fill="none" stroke="black" d="M786.24,-3486.42C671.43,-3483.7 452.36,-3478.51 336.72,-3475.77"/>
<polygon fill="black" stroke="black" points="336.62,-3472.27 326.54,-3475.53 336.46,-3479.27 336.62,-3472.27"/>
<text text-anchor="start" x="520.48" y="-3484.9" font-family="Times New Roman,serif" font-size="14.00">created</text>
</g>
<!-- Entity32 -->
<g id="node16" class="node entity">
<title>Entity32</title>
<ellipse fill="none" stroke="black" cx="1242.99" cy="-3781.29" rx="46.29" ry="18"/>
<text text-anchor="start" x="1215.49" y="-3777.59" font-family="Times New Roman,serif" font-size="14.00">van braun</text>
</g>
<!-- Entity32&#45;&gt;Entity30 -->
<g id="edge12" class="edge verb">
<title>Entity32&#45;&gt;Entity30</title>
<path fill="none" stroke="black" d="M1221.9,-3765.12C1157.99,-3716.12 966.33,-3569.18 891.29,-3511.65"/>
<polygon fill="black" stroke="black" points="893.22,-3508.72 883.15,-3505.41 888.96,-3514.27 893.22,-3508.72"/>
<text text-anchor="start" x="993.59" y="-3642.18" font-family="Times New Roman,serif" font-size="14.00">worked for</text>
</g>
<!-- Entity32&#45;&gt;Entity76 -->
<g id="edge48" class="edge verb">
<title>Entity32&#45;&gt;Entity76</title>
<path fill="none" stroke="black" d="M1276.85,-3768.89C1327.77,-3750.25 1424.51,-3714.82 1484.92,-3692.69"/>
<polygon fill="black" stroke="black" points="1486.47,-3695.85 1494.66,-3689.13 1484.07,-3689.28 1486.47,-3695.85"/>
<text text-anchor="start" x="1324.89" y="-3734.59" font-family="Times New Roman,serif" font-size="14.00">worked at</text>
</g>
<!-- Entity29 -->
<g id="node17" class="node entity">
<title>Entity29</title>
<ellipse fill="none" stroke="black" cx="3643.64" cy="-3530.1" rx="37.89" ry="18"/>
<text text-anchor="start" x="3622.64" y="-3526.4" font-family="Times New Roman,serif" font-size="14.00">hunt oil</text>
</g>
<!-- Entity36 -->
<g id="node18" class="node entity">
<title>Entity36</title>
<ellipse fill="none" stroke="black" cx="3711.97" cy="-3422.16" rx="77.99" ry="18"/>
<text text-anchor="start" x="3659.97" y="-3418.46" font-family="Times New Roman,serif" font-size="14.00">dwight eisenhower</text>
</g>
<!-- Entity29&#45;&gt;Entity36 -->
<g id="edge13" class="edge verb">
<title>Entity29&#45;&gt;Entity36</title>
<path fill="none" stroke="black" d="M3654.61,-3512.76C3665.54,-3495.5 3682.46,-3468.77 3695.09,-3448.81"/>
<polygon fill="black" stroke="black" points="3698.17,-3450.5 3700.56,-3440.18 3692.25,-3446.75 3698.17,-3450.5"/>
<text text-anchor="start" x="3634.85" y="-3484.59" font-family="Times New Roman,serif" font-size="14.00">funded</text>
</g>
<!-- Entity36&#45;&gt;Entity66 -->
<g id="edge34" class="edge verb">
<title>Entity36&#45;&gt;Entity66</title>
<path fill="none" stroke="black" d="M3736.14,-3404.85C3816.25,-3347.47 4072.82,-3163.7 4158.25,-3102.52"/>
<polygon fill="black" stroke="black" points="4160.34,-3105.32 4166.43,-3096.66 4156.26,-3099.63 4160.34,-3105.32"/>
<text text-anchor="start" x="3928.19" y="-3257.48" font-family="Times New Roman,serif" font-size="14.00">is a</text>
</g>
<!-- Entity11 -->
<g id="node19" class="node entity">
<title>Entity11</title>
<ellipse fill="none" stroke="black" cx="4621.08" cy="-3337.14" rx="56.59" ry="18"/>
<text text-anchor="start" x="4585.58" y="-3333.44" font-family="Times New Roman,serif" font-size="14.00">harry truman</text>
</g>
<!-- Entity11&#45;&gt;Entity66 -->
<g id="edge14" class="edge verb">
<title>Entity11&#45;&gt;Entity66</title>
<path fill="none" stroke="black" d="M4593.88,-3321.21C4516.98,-3276.17 4298.34,-3148.14 4217.1,-3100.57"/>
<polygon fill="black" stroke="black" points="4218.74,-3097.47 4208.34,-3095.44 4215.2,-3103.51 4218.74,-3097.47"/>
<text text-anchor="start" x="4389.49" y="-3214.69" font-family="Times New Roman,serif" font-size="14.00">isa</text>
</g>
<!-- Entity69 -->
<g id="node24" class="node entity">
<title>Entity69</title>
<ellipse fill="none" stroke="black" cx="4997.79" cy="-3704.98" rx="55.79" ry="18"/>
<text text-anchor="start" x="4962.79" y="-3701.28" font-family="Times New Roman,serif" font-size="14.00">freemasonry</text>
</g>
<!-- Entity11&#45;&gt;Entity69 -->
<g id="edge17" class="edge verb">
<title>Entity11&#45;&gt;Entity69</title>
<path fill="none" stroke="black" d="M4638.75,-3354.38C4699.8,-3414 4902.02,-3611.47 4972.95,-3680.72"/>
<polygon fill="black" stroke="black" points="4970.56,-3683.29 4980.16,-3687.77 4975.45,-3678.28 4970.56,-3683.29"/>
<text text-anchor="start" x="4744.85" y="-3521.35" font-family="Times New Roman,serif" font-size="14.00">member of</text>
</g>
<!-- Entity63 -->
<g id="node21" class="node entity">
<title>Entity63</title>
<ellipse fill="none" stroke="black" cx="4397.57" cy="-4304.8" rx="53.89" ry="18"/>
<text text-anchor="start" x="4364.07" y="-4301.1" font-family="Times New Roman,serif" font-size="14.00">edgar casey</text>
</g>
<!-- Entity59 -->
<g id="node22" class="node entity">
<title>Entity59</title>
<ellipse fill="none" stroke="black" cx="4265.77" cy="-3745.97" rx="71.49" ry="18"/>
<text text-anchor="start" x="4218.77" y="-3742.27" font-family="Times New Roman,serif" font-size="14.00">woodrow wilson</text>
</g>
<!-- Entity63&#45;&gt;Entity59 -->
<g id="edge15" class="edge verb">
<title>Entity63&#45;&gt;Entity59</title>
<path fill="none" stroke="black" d="M4393.33,-4286.84C4374.2,-4205.72 4295.78,-3873.23 4272.39,-3774.03"/>
<polygon fill="black" stroke="black" points="4275.76,-3773.07 4270.06,-3764.14 4268.94,-3774.68 4275.76,-3773.07"/>
<text text-anchor="start" x="4290.86" y="-4034.23" font-family="Times New Roman,serif" font-size="14.00">advises</text>
</g>
<!-- Entity59&#45;&gt;Entity66 -->
<g id="edge30" class="edge verb">
<title>Entity59&#45;&gt;Entity66</title>
<path fill="none" stroke="black" d="M4263.6,-3727.88C4252.61,-3636.22 4203.08,-3223.1 4189.61,-3110.76"/>
<polygon fill="black" stroke="black" points="4193.05,-3110.07 4188.38,-3100.56 4186.1,-3110.9 4193.05,-3110.07"/>
<text text-anchor="start" x="4210.6" y="-3423.12" font-family="Times New Roman,serif" font-size="14.00">isa</text>
</g>
<!-- Entity92 -->
<g id="node50" class="node entity">
<title>Entity92</title>
<ellipse fill="none" stroke="black" cx="4270.85" cy="-3853.91" rx="71.49" ry="18"/>
<text text-anchor="start" x="4223.85" y="-3850.21" font-family="Times New Roman,serif" font-size="14.00">leauge of nations</text>
</g>
<!-- Entity59&#45;&gt;Entity92 -->
<g id="edge54" class="edge verb">
<title>Entity59&#45;&gt;Entity92</title>
<path fill="none" stroke="black" d="M4266.63,-3764.28C4267.42,-3781.13 4268.61,-3806.37 4269.53,-3825.78"/>
<polygon fill="black" stroke="black" points="4266.04,-3826.04 4270,-3835.87 4273.03,-3825.71 4266.04,-3826.04"/>
<text text-anchor="start" x="4227.08" y="-3798.83" font-family="Times New Roman,serif" font-size="14.00">created</text>
</g>
<!-- Entity18 -->
<g id="node26" class="node entity">
<title>Entity18</title>
<ellipse fill="none" stroke="black" cx="4515.71" cy="-3058.18" rx="35.19" ry="18"/>
<text text-anchor="start" x="4496.71" y="-3054.48" font-family="Times New Roman,serif" font-size="14.00">obama</text>
</g>
<!-- Entity18&#45;&gt;Entity66 -->
<g id="edge21" class="edge verb">
<title>Entity18&#45;&gt;Entity66</title>
<path fill="none" stroke="black" d="M4480.76,-3060.76C4419.57,-3065.27 4293.34,-3074.58 4227.78,-3079.42"/>
<polygon fill="black" stroke="black" points="4227.13,-3075.96 4217.42,-3080.18 4227.65,-3082.94 4227.13,-3075.96"/>
<text text-anchor="start" x="4338.27" y="-3073.89" font-family="Times New Roman,serif" font-size="14.00">isa</text>
</g>
<!-- Entity12 -->
<g id="node27" class="node entity">
<title>Entity12</title>
<ellipse fill="none" stroke="black" cx="4152.78" cy="-3515.02" rx="58.49" ry="18"/>
<text text-anchor="start" x="4115.78" y="-3511.32" font-family="Times New Roman,serif" font-size="14.00">richard nixon</text>
</g>
<!-- Entity12&#45;&gt;Entity66 -->
<g id="edge22" class="edge verb">
<title>Entity12&#45;&gt;Entity66</title>
<path fill="none" stroke="black" d="M4154.18,-3496.99C4159.38,-3429.66 4177.7,-3192.7 4184.04,-3110.68"/>
<polygon fill="black" stroke="black" points="4187.54,-3110.84 4184.82,-3100.6 4180.56,-3110.3 4187.54,-3110.84"/>
<text text-anchor="start" x="4153.11" y="-3307.63" font-family="Times New Roman,serif" font-size="14.00">isa</text>
</g>
<!-- Entity24 -->
<g id="node29" class="node entity">
<title>Entity24</title>
<ellipse fill="none" stroke="black" cx="2342.99" cy="-2573.73" rx="63.89" ry="18"/>
<text text-anchor="start" x="2301.99" y="-2570.03" font-family="Times New Roman,serif" font-size="14.00">robert bigelow</text>
</g>
<!-- Entity24&#45;&gt;Entity7 -->
<g id="edge25" class="edge verb">
<title>Entity24&#45;&gt;Entity7</title>
<path fill="none" stroke="black" d="M2331.73,-2555.9C2296.33,-2499.8 2187.1,-2326.76 2144.88,-2259.86"/>
<polygon fill="black" stroke="black" points="2147.68,-2257.74 2139.38,-2251.15 2141.76,-2261.47 2147.68,-2257.74"/>
<text text-anchor="start" x="2206.31" y="-2411.68" font-family="Times New Roman,serif" font-size="14.00">funds</text>
</g>
<!-- Entity24&#45;&gt;Entity67 -->
<g id="edge45" class="edge verb">
<title>Entity24&#45;&gt;Entity67</title>
<path fill="none" stroke="black" d="M2383.14,-2587.85C2437.97,-2607.13 2536.4,-2641.73 2597.2,-2663.11"/>
<polygon fill="black" stroke="black" points="2596.4,-2666.53 2606.99,-2666.55 2598.72,-2659.93 2596.4,-2666.53"/>
<text text-anchor="start" x="2426.17" y="-2629.28" font-family="Times New Roman,serif" font-size="14.00">investigates</text>
</g>
<!-- Entity44 -->
<g id="node30" class="node entity">
<title>Entity44</title>
<ellipse fill="none" stroke="black" cx="5369.77" cy="-2941.99" rx="58.49" ry="18"/>
<text text-anchor="start" x="5332.77" y="-2938.29" font-family="Times New Roman,serif" font-size="14.00">steve bannon</text>
</g>
<!-- Entity44&#45;&gt;Entity15 -->
<g id="edge28" class="edge verb">
<title>Entity44&#45;&gt;Entity15</title>
<path fill="none" stroke="black" d="M5314.83,-2935.64C5181.69,-2925.48 4841.99,-2909.31 4694.44,-2905.94"/>
<polygon fill="black" stroke="black" points="4694.22,-2902.44 4684.15,-2905.72 4694.07,-2909.44 4694.22,-2902.44"/>
<text text-anchor="start" x="4949.63" y="-2909.59" font-family="Times New Roman,serif" font-size="14.00">promoted</text>
</g>
<!-- Entity44&#45;&gt;Entity15 -->
<g id="edge64" class="edge verb">
<title>Entity44&#45;&gt;Entity15</title>
<path fill="none" stroke="black" d="M5311.09,-2943.07C5174.14,-2940.41 4834.18,-2924.42 4690.28,-2913.95"/>
<polygon fill="black" stroke="black" points="4690.49,-2910.45 4680.26,-2913.2 4689.97,-2917.43 4690.49,-2910.45"/>
<text text-anchor="start" x="4958.68" y="-2932.31" font-family="Times New Roman,serif" font-size="14.00">advises</text>
</g>
<!-- Entity83 -->
<g id="node40" class="node entity">
<title>Entity83</title>
<ellipse fill="none" stroke="black" cx="5334.26" cy="-2461.77" rx="61.99" ry="18"/>
<text text-anchor="start" x="5294.76" y="-2458.07" font-family="Times New Roman,serif" font-size="14.00">breitbart news</text>
</g>
<!-- Entity44&#45;&gt;Entity83 -->
<g id="edge46" class="edge verb">
<title>Entity44&#45;&gt;Entity83</title>
<path fill="none" stroke="black" d="M5368.42,-2923.75C5363.02,-2850.65 5342.9,-2578.52 5336.34,-2489.88"/>
<polygon fill="black" stroke="black" points="5339.82,-2489.48 5335.59,-2479.77 5332.84,-2490 5339.82,-2489.48"/>
<text text-anchor="start" x="5311.38" y="-2710.61" font-family="Times New Roman,serif" font-size="14.00">created</text>
</g>
<!-- Entity89 -->
<g id="node49" class="node entity">
<title>Entity89</title>
<ellipse fill="none" stroke="black" cx="5720.12" cy="-3149.32" rx="35.19" ry="18"/>
<text text-anchor="start" x="5701.12" y="-3145.62" font-family="Times New Roman,serif" font-size="14.00">gurgev</text>
</g>
<!-- Entity44&#45;&gt;Entity89 -->
<g id="edge53" class="edge verb">
<title>Entity44&#45;&gt;Entity89</title>
<path fill="none" stroke="black" d="M5396.97,-2958.09C5460.83,-2995.87 5620.07,-3090.11 5688.29,-3130.47"/>
<polygon fill="black" stroke="black" points="5686.52,-3133.5 5696.91,-3135.58 5690.08,-3127.47 5686.52,-3133.5"/>
<text text-anchor="start" x="5501.63" y="-3048.08" font-family="Times New Roman,serif" font-size="14.00">studied</text>
</g>
<!-- Entity91 -->
<g id="node51" class="node entity">
<title>Entity91</title>
<ellipse fill="none" stroke="black" cx="5691.08" cy="-3294.86" rx="38.19" ry="18"/>
<text text-anchor="start" x="5669.58" y="-3291.16" font-family="Times New Roman,serif" font-size="14.00">us navy</text>
</g>
<!-- Entity44&#45;&gt;Entity91 -->
<g id="edge55" class="edge verb">
<title>Entity44&#45;&gt;Entity91</title>
<path fill="none" stroke="black" d="M5385.71,-2959.49C5438.52,-3017.49 5607.91,-3203.51 5668.92,-3270.52"/>
<polygon fill="black" stroke="black" points="5666.49,-3273.04 5675.81,-3278.08 5671.66,-3268.33 5666.49,-3273.04"/>
<text text-anchor="start" x="5466.31" y="-3118.8" font-family="Times New Roman,serif" font-size="14.00">member of</text>
</g>
<!-- Entity94 -->
<g id="node53" class="node entity">
<title>Entity94</title>
<ellipse fill="none" stroke="black" cx="5817.15" cy="-2683.49" rx="53.09" ry="18"/>
<text text-anchor="start" x="5784.15" y="-2679.79" font-family="Times New Roman,serif" font-size="14.00">biosphere 2</text>
</g>
<!-- Entity44&#45;&gt;Entity94 -->
<g id="edge57" class="edge verb">
<title>Entity44&#45;&gt;Entity94</title>
<path fill="none" stroke="black" d="M5397.42,-2926.01C5475.07,-2881.15 5695.07,-2754.03 5781.59,-2704.04"/>
<polygon fill="black" stroke="black" points="5783.35,-2707.07 5790.26,-2699.03 5779.85,-2701.01 5783.35,-2707.07"/>
<text text-anchor="start" x="5548.5" y="-2818.83" font-family="Times New Roman,serif" font-size="14.00">created</text>
</g>
<!-- Entity107 -->
<g id="node58" class="node entity">
<title>Entity107</title>
<ellipse fill="none" stroke="black" cx="5989.94" cy="-3041.33" rx="77.19" ry="18"/>
<text text-anchor="start" x="5938.44" y="-3037.63" font-family="Times New Roman,serif" font-size="14.00">hollywood movies</text>
</g>
<!-- Entity44&#45;&gt;Entity107 -->
<g id="edge61" class="edge verb">
<title>Entity44&#45;&gt;Entity107</title>
<path fill="none" stroke="black" d="M5421.85,-2950.33C5531.99,-2967.97 5788.87,-3009.12 5915.98,-3029.48"/>
<polygon fill="black" stroke="black" points="5915.59,-3032.96 5926.02,-3031.09 5916.7,-3026.05 5915.59,-3032.96"/>
<text text-anchor="start" x="5613.92" y="-2993.71" font-family="Times New Roman,serif" font-size="14.00">produced</text>
</g>
<!-- Entity111 -->
<g id="node59" class="node entity">
<title>Entity111</title>
<ellipse fill="none" stroke="black" cx="5929.6" cy="-2853.5" rx="64.99" ry="18"/>
<text text-anchor="start" x="5887.6" y="-2849.8" font-family="Times New Roman,serif" font-size="14.00">goldman sachs</text>
</g>
<!-- Entity44&#45;&gt;Entity111 -->
<g id="edge66" class="edge verb">
<title>Entity44&#45;&gt;Entity111</title>
<path fill="none" stroke="black" d="M5421.94,-2933.74C5524.04,-2917.61 5750.12,-2881.87 5862.91,-2864.05"/>
<polygon fill="black" stroke="black" points="5863.47,-2867.5 5872.8,-2862.48 5862.38,-2860.59 5863.47,-2867.5"/>
<text text-anchor="start" x="5579.42" y="-2902.7" font-family="Times New Roman,serif" font-size="14.00">worked for</text>
</g>
<!-- Entity33 -->
<g id="node32" class="node entity">
<title>Entity33</title>
<ellipse fill="none" stroke="black" cx="826.21" cy="-3010.35" rx="57.69" ry="18"/>
<text text-anchor="start" x="789.71" y="-3006.65" font-family="Times New Roman,serif" font-size="14.00">michael pane</text>
</g>
<!-- Entity33&#45;&gt;Entity30 -->
<g id="edge47" class="edge verb">
<title>Entity33&#45;&gt;Entity30</title>
<path fill="none" stroke="black" d="M827.52,-3028.5C832.76,-3101.16 852.26,-3371.41 858.65,-3459.92"/>
<polygon fill="black" stroke="black" points="855.17,-3460.3 859.38,-3470.02 862.15,-3459.8 855.17,-3460.3"/>
<text text-anchor="start" x="780.09" y="-3248.01" font-family="Times New Roman,serif" font-size="14.00">worked for</text>
</g>
<!-- Entity33&#45;&gt;Entity72 -->
<g id="edge31" class="edge verb">
<title>Entity33&#45;&gt;Entity72</title>
<path fill="none" stroke="black" d="M884.34,-3010.67C976.53,-3011.19 1155.67,-3012.19 1251.68,-3012.72"/>
<polygon fill="black" stroke="black" points="1251.82,-3016.22 1261.84,-3012.78 1251.86,-3009.22 1251.82,-3016.22"/>
<text text-anchor="start" x="1012.01" y="-3015.5" font-family="Times New Roman,serif" font-size="14.00">worked at</text>
</g>
<!-- Entity45 -->
<g id="node33" class="node entity">
<title>Entity45</title>
<ellipse fill="none" stroke="black" cx="4222.17" cy="-2374.09" rx="67.69" ry="18"/>
<text text-anchor="start" x="4178.17" y="-2370.39" font-family="Times New Roman,serif" font-size="14.00">abraham lincoln</text>
</g>
<!-- Entity45&#45;&gt;Entity66 -->
<g id="edge32" class="edge verb">
<title>Entity45&#45;&gt;Entity66</title>
<path fill="none" stroke="black" d="M4221.24,-2392.31C4216.36,-2488.49 4193.59,-2937.14 4187.64,-3054.39"/>
<polygon fill="black" stroke="black" points="4184.15,-3054.22 4187.14,-3064.38 4191.14,-3054.57 4184.15,-3054.22"/>
<text text-anchor="start" x="4188.44" y="-2727.15" font-family="Times New Roman,serif" font-size="14.00">isa</text>
</g>
<!-- Entity38 -->
<g id="node34" class="node entity">
<title>Entity38</title>
<ellipse fill="none" stroke="black" cx="4228.49" cy="-1461.33" rx="90.98" ry="18"/>
<text text-anchor="start" x="4166.49" y="-1457.63" font-family="Times New Roman,serif" font-size="14.00">emma hardinge&#45;britten</text>
</g>
<!-- Entity38&#45;&gt;Entity45 -->
<g id="edge33" class="edge verb">
<title>Entity38&#45;&gt;Entity45</title>
<path fill="none" stroke="black" d="M4228.36,-1479.56C4227.58,-1593.32 4223.33,-2205.33 4222.36,-2345.48"/>
<polygon fill="black" stroke="black" points="4218.86,-2345.79 4222.29,-2355.81 4225.86,-2345.84 4218.86,-2345.79"/>
<text text-anchor="start" x="4126.36" y="-1916.32" font-family="Times New Roman,serif" font-size="14.00">spokesperson for</text>
</g>
<!-- Entity79 -->
<g id="node38" class="node entity">
<title>Entity79</title>
<ellipse fill="none" stroke="black" cx="4385.33" cy="-920.23" rx="39.79" ry="18"/>
<text text-anchor="start" x="4362.83" y="-916.53" font-family="Times New Roman,serif" font-size="14.00">medium</text>
</g>
<!-- Entity38&#45;&gt;Entity79 -->
<g id="edge38" class="edge verb">
<title>Entity38&#45;&gt;Entity79</title>
<path fill="none" stroke="black" d="M4233.71,-1443.33C4256.73,-1363.89 4349.34,-1044.38 4377.3,-947.93"/>
<polygon fill="black" stroke="black" points="4380.67,-948.88 4380.09,-938.3 4373.94,-946.93 4380.67,-948.88"/>
<text text-anchor="start" x="4289.5" y="-1199.43" font-family="Times New Roman,serif" font-size="14.00">isa</text>
</g>
<!-- Entity86 -->
<g id="node48" class="node entity">
<title>Entity86</title>
<ellipse fill="none" stroke="black" cx="4203.42" cy="-1353.4" rx="85.29" ry="18"/>
<text text-anchor="start" x="4145.92" y="-1349.7" font-family="Times New Roman,serif" font-size="14.00">theosophical society</text>
</g>
<!-- Entity38&#45;&gt;Entity86 -->
<g id="edge65" class="edge verb">
<title>Entity38&#45;&gt;Entity86</title>
<path fill="none" stroke="black" d="M4224.24,-1443.02C4220.31,-1426.1 4214.41,-1400.7 4209.89,-1381.26"/>
<polygon fill="black" stroke="black" points="4213.28,-1380.39 4207.61,-1371.44 4206.46,-1381.97 4213.28,-1380.39"/>
<text text-anchor="start" x="4176.06" y="-1415.94" font-family="Times New Roman,serif" font-size="14.00">created</text>
</g>
<!-- Entity99 -->
<g id="node54" class="node entity">
<title>Entity99</title>
<ellipse fill="none" stroke="black" cx="4671.97" cy="-1019.38" rx="55.79" ry="18"/>
<text text-anchor="start" x="4636.97" y="-1015.68" font-family="Times New Roman,serif" font-size="14.00">orphic circle</text>
</g>
<!-- Entity38&#45;&gt;Entity99 -->
<g id="edge58" class="edge verb">
<title>Entity38&#45;&gt;Entity99</title>
<path fill="none" stroke="black" d="M4246.42,-1443.46C4315.97,-1374.16 4567.91,-1123.09 4647.61,-1043.66"/>
<polygon fill="black" stroke="black" points="4650.17,-1046.05 4654.78,-1036.52 4645.22,-1041.1 4650.17,-1046.05"/>
<text text-anchor="start" x="4386.02" y="-1247.36" font-family="Times New Roman,serif" font-size="14.00">member of</text>
</g>
<!-- Entity42 -->
<g id="node36" class="node entity">
<title>Entity42</title>
<ellipse fill="none" stroke="black" cx="3034.94" cy="-2185.66" rx="53.89" ry="18"/>
<text text-anchor="start" x="3001.44" y="-2181.96" font-family="Times New Roman,serif" font-size="14.00">black magic</text>
</g>
<!-- Entity81 -->
<g id="node37" class="node entity">
<title>Entity81</title>
<ellipse fill="none" stroke="black" cx="3122.66" cy="-2297.64" rx="28.7" ry="18"/>
<text text-anchor="start" x="3108.66" y="-2293.94" font-family="Times New Roman,serif" font-size="14.00">x left</text>
</g>
<!-- Entity42&#45;&gt;Entity81 -->
<g id="edge37" class="edge verb">
<title>Entity42&#45;&gt;Entity81</title>
<path fill="none" stroke="black" d="M3048.64,-2203.16C3063.45,-2222.05 3087.14,-2252.29 3103.72,-2273.45"/>
<polygon fill="black" stroke="black" points="3100.98,-2275.64 3109.9,-2281.36 3106.49,-2271.32 3100.98,-2275.64"/>
<text text-anchor="start" x="3015.18" y="-2242.11" font-family="Times New Roman,serif" font-size="14.00">member of</text>
</g>
<!-- Entity47 -->
<g id="node39" class="node entity">
<title>Entity47</title>
<ellipse fill="none" stroke="black" cx="5393.91" cy="-2353.86" rx="69.59" ry="18"/>
<text text-anchor="start" x="5348.41" y="-2350.16" font-family="Times New Roman,serif" font-size="14.00">andrew breitbart</text>
</g>
<!-- Entity47&#45;&gt;Entity83 -->
<g id="edge39" class="edge verb">
<title>Entity47&#45;&gt;Entity83</title>
<path fill="none" stroke="black" d="M5384.06,-2371.68C5374.52,-2388.94 5359.93,-2415.33 5349.01,-2435.09"/>
<polygon fill="black" stroke="black" points="5345.9,-2433.48 5344.13,-2443.92 5352.03,-2436.86 5345.9,-2433.48"/>
<text text-anchor="start" x="5325.53" y="-2407.18" font-family="Times New Roman,serif" font-size="14.00">created</text>
</g>
<!-- Entity35 -->
<g id="node42" class="node entity">
<title>Entity35</title>
<ellipse fill="none" stroke="black" cx="3020.94" cy="-1643.66" rx="39.79" ry="18"/>
<text text-anchor="start" x="2998.44" y="-1639.96" font-family="Times New Roman,serif" font-size="14.00">crowley</text>
</g>
<!-- Entity80 -->
<g id="node43" class="node entity">
<title>Entity80</title>
<ellipse fill="none" stroke="black" cx="3108.66" cy="-1755.64" rx="38.99" ry="18"/>
<text text-anchor="start" x="3086.66" y="-1751.94" font-family="Times New Roman,serif" font-size="14.00">x magic</text>
</g>
<!-- Entity35&#45;&gt;Entity80 -->
<g id="edge41" class="edge verb">
<title>Entity35&#45;&gt;Entity80</title>
<path fill="none" stroke="black" d="M3034.26,-1660.67C3048.82,-1679.25 3072.28,-1709.2 3088.96,-1730.49"/>
<polygon fill="black" stroke="black" points="3086.29,-1732.76 3095.21,-1738.47 3091.8,-1728.44 3086.29,-1732.76"/>
<text text-anchor="start" x="3000.61" y="-1699.38" font-family="Times New Roman,serif" font-size="14.00">member of</text>
</g>
<!-- Entity19 -->
<g id="node44" class="node entity">
<title>Entity19</title>
<ellipse fill="none" stroke="black" cx="3984.07" cy="-2758.86" rx="31.4" ry="18"/>
<text text-anchor="start" x="3968.07" y="-2755.16" font-family="Times New Roman,serif" font-size="14.00">carter</text>
</g>
<!-- Entity19&#45;&gt;Entity66 -->
<g id="edge44" class="edge verb">
<title>Entity19&#45;&gt;Entity66</title>
<path fill="none" stroke="black" d="M3994.66,-2775.8C4027.87,-2828.98 4130.21,-2992.82 4170.08,-3056.65"/>
<polygon fill="black" stroke="black" points="4167.23,-3058.69 4175.5,-3065.32 4173.17,-3054.98 4167.23,-3058.69"/>
<text text-anchor="start" x="4066.37" y="-2920.03" font-family="Times New Roman,serif" font-size="14.00">isa</text>
</g>
<!-- Entity19&#45;&gt;Entity90 -->
<g id="edge56" class="edge verb">
<title>Entity19&#45;&gt;Entity90</title>
<path fill="none" stroke="black" d="M3957.28,-2749.62C3897.43,-2728.98 3752.98,-2679.17 3687.05,-2656.44"/>
<polygon fill="black" stroke="black" points="3688.13,-2653.11 3677.54,-2653.16 3685.85,-2659.73 3688.13,-2653.11"/>
<text text-anchor="start" x="3767.16" y="-2706.83" font-family="Times New Roman,serif" font-size="14.00">witnessed</text>
</g>
<!-- Entity27 -->
<g id="node45" class="node entity">
<title>Entity27</title>
<ellipse fill="none" stroke="black" cx="990.15" cy="-4112.19" rx="36.29" ry="18"/>
<text text-anchor="start" x="970.15" y="-4108.49" font-family="Times New Roman,serif" font-size="14.00">oswald</text>
</g>
<!-- Entity34 -->
<g id="node46" class="node entity">
<title>Entity34</title>
<ellipse fill="none" stroke="black" cx="1006.29" cy="-4004.16" rx="59.29" ry="18"/>
<text text-anchor="start" x="968.79" y="-4000.46" font-family="Times New Roman,serif" font-size="14.00">guy bannister</text>
</g>
<!-- Entity27&#45;&gt;Entity34 -->
<g id="edge50" class="edge verb">
<title>Entity27&#45;&gt;Entity34</title>
<path fill="none" stroke="black" d="M992.89,-4093.87C995.41,-4077 999.18,-4051.74 1002.09,-4032.32"/>
<polygon fill="black" stroke="black" points="1005.58,-4032.62 1003.6,-4022.22 998.66,-4031.59 1005.58,-4032.62"/>
<text text-anchor="start" x="934.49" y="-4066.89" font-family="Times New Roman,serif" font-size="14.00">worked for</text>
</g>
<!-- Entity34&#45;&gt;Entity75 -->
<g id="edge51" class="edge verb">
<title>Entity34&#45;&gt;Entity75</title>
<path fill="none" stroke="black" d="M967.08,-4017.72C884.55,-4046.26 693.64,-4112.27 609.64,-4141.32"/>
<polygon fill="black" stroke="black" points="608.49,-4138.02 600.18,-4144.59 610.78,-4144.63 608.49,-4138.02"/>
<text text-anchor="start" x="727.36" y="-4083.32" font-family="Times New Roman,serif" font-size="14.00">member of</text>
</g>
<!-- Entity64 -->
<g id="node47" class="node entity">
<title>Entity64</title>
<ellipse fill="none" stroke="black" cx="4061.42" cy="-1245.4" rx="73.39" ry="18"/>
<text text-anchor="start" x="4012.92" y="-1241.7" font-family="Times New Roman,serif" font-size="14.00">madam blavatsky</text>
</g>
<!-- Entity64&#45;&gt;Entity86 -->
<g id="edge52" class="edge verb">
<title>Entity64&#45;&gt;Entity86</title>
<path fill="none" stroke="black" d="M4084.24,-1262.75C4108.01,-1280.83 4145.42,-1309.28 4171.98,-1329.49"/>
<polygon fill="black" stroke="black" points="4170.11,-1332.46 4180.19,-1335.73 4174.35,-1326.89 4170.11,-1332.46"/>
<text text-anchor="start" x="4087.11" y="-1299.92" font-family="Times New Roman,serif" font-size="14.00">created</text>
</g>
<!-- Entity60 -->
<g id="node56" class="node entity">
<title>Entity60</title>
<ellipse fill="none" stroke="black" cx="4266.96" cy="-672.09" rx="58.49" ry="18"/>
<text text-anchor="start" x="4229.96" y="-668.39" font-family="Times New Roman,serif" font-size="14.00">rudolf steiner</text>
</g>
<!-- Entity60&#45;&gt;Entity86 -->
<g id="edge63" class="edge verb">
<title>Entity60&#45;&gt;Entity86</title>
<path fill="none" stroke="black" d="M4265.26,-690.32C4256.53,-783.9 4216.75,-1210.51 4206.07,-1325.03"/>
<polygon fill="black" stroke="black" points="4202.57,-1324.84 4205.13,-1335.12 4209.54,-1325.49 4202.57,-1324.84"/>
<text text-anchor="start" x="4169.66" y="-1011.47" font-family="Times New Roman,serif" font-size="14.00">memberr of</text>
</g>
<!-- Entity93 -->
<g id="node57" class="node entity">
<title>Entity93</title>
<ellipse fill="none" stroke="black" cx="4378.17" cy="-18.46" rx="102.08" ry="18"/>
<text text-anchor="start" x="4307.67" y="-14.76" font-family="Times New Roman,serif" font-size="14.00">anthroposophical society</text>
</g>
<!-- Entity60&#45;&gt;Entity93 -->
<g id="edge60" class="edge verb">
<title>Entity60&#45;&gt;Entity93</title>
<path fill="none" stroke="black" d="M4270.05,-653.93C4285.51,-563.04 4354.5,-157.6 4373.38,-46.62"/>
<polygon fill="black" stroke="black" points="4376.87,-46.98 4375.1,-36.54 4369.97,-45.81 4376.87,-46.98"/>
<text text-anchor="start" x="4280.71" y="-354.08" font-family="Times New Roman,serif" font-size="14.00">created</text>
</g>
<!-- Entity109 -->
<g id="node60" class="node entity">
<title>Entity109</title>
<ellipse fill="none" stroke="black" cx="2465.94" cy="-1914.66" rx="27" ry="18"/>
<text text-anchor="start" x="2462.44" y="-1910.96" font-family="Times New Roman,serif" font-size="14.00">s</text>
</g>
<!-- Entity112 -->
<g id="node61" class="node entity">
<title>Entity112</title>
<ellipse fill="none" stroke="black" cx="2553.66" cy="-2026.64" rx="27" ry="18"/>
<text text-anchor="start" x="2549.66" y="-2022.94" font-family="Times New Roman,serif" font-size="14.00">o</text>
</g>
<!-- Entity109&#45;&gt;Entity112 -->
<g id="edge67" class="edge verb">
<title>Entity109&#45;&gt;Entity112</title>
<path fill="none" stroke="black" d="M2478.51,-1930.7C2493.23,-1949.5 2517.76,-1980.82 2534.78,-2002.53"/>
<polygon fill="black" stroke="black" points="2532.19,-2004.91 2541.11,-2010.62 2537.7,-2000.59 2532.19,-2004.91"/>
<text text-anchor="start" x="2499.64" y="-1970.42" font-family="Times New Roman,serif" font-size="14.00">v</text>
</g>
</g>
</svg>
