<?xml version="1.0" encoding="UTF-8" standalone="no"?>
<?xml-stylesheet href="./styles.css" type="text/css"?>
<!DOCTYPE svg PUBLIC "-//W3C//DTD SVG 1.1//EN"
 "http://www.w3.org/Graphics/SVG/1.1/DTD/svg11.dtd">
<!-- Generated by graphviz version 2.47.3 (20210619.1520)
 -->
<!-- Title: G Pages: 1 -->
<svg width="6922pt" height="5795pt"
 viewBox="0.00 0.00 6922.00 5795.00" xmlns="http://www.w3.org/2000/svg" xmlns:xlink="http://www.w3.org/1999/xlink">
<g id="graph0" class="graph" transform="scale(1 1) rotate(0) translate(4 5791)">
<title>G</title>
<polygon fill="white" stroke="transparent" points="-4,4 -4,-5791 6918,-5791 6918,4 -4,4"/>
<!-- Entity3 -->
<g id="node1" class="node entity">
<title>Entity3</title>
<ellipse fill="none" stroke="black" cx="5113.49" cy="-3199.23" rx="64.19" ry="18"/>
<text text-anchor="start" x="5071.99" y="-3195.53" font-family="Times New Roman,serif" font-size="14.00">john f kennedy</text>
</g>
<!-- Entity22 -->
<g id="node2" class="node entity">
<title>Entity22</title>
<ellipse fill="none" stroke="black" cx="4569.6" cy="-3136.85" rx="27" ry="18"/>
<text text-anchor="start" x="4561.6" y="-3133.15" font-family="Times New Roman,serif" font-size="14.00">cia</text>
</g>
<!-- Entity3&#45;&gt;Entity22 -->
<g id="edge1" class="edge verb">
<title>Entity3&#45;&gt;Entity22</title>
<path fill="none" stroke="black" d="M5053.73,-3192.37C4940.67,-3179.41 4698.55,-3151.64 4606.32,-3141.06"/>
<polygon fill="black" stroke="black" points="4606.67,-3137.58 4596.34,-3139.92 4605.87,-3144.53 4606.67,-3137.58"/>
<text text-anchor="start" x="4726.02" y="-3170.52" font-family="Times New Roman,serif" font-size="14.00">heads (1961&#45;1963)</text>
</g>
<!-- Entity66 -->
<g id="node20" class="node entity">
<title>Entity66</title>
<ellipse fill="none" stroke="black" cx="5680.14" cy="-3095.74" rx="31.4" ry="18"/>
<text text-anchor="start" x="5664.14" y="-3092.04" font-family="Times New Roman,serif" font-size="14.00">potus</text>
</g>
<!-- Entity3&#45;&gt;Entity66 -->
<g id="edge23" class="edge verb">
<title>Entity3&#45;&gt;Entity66</title>
<path fill="none" stroke="black" d="M5167.56,-3189.35C5280.85,-3168.66 5540.82,-3121.18 5640.36,-3103"/>
<polygon fill="black" stroke="black" points="5641.1,-3106.43 5650.31,-3101.19 5639.84,-3099.54 5641.1,-3106.43"/>
<text text-anchor="start" x="5316.96" y="-3149.98" font-family="Times New Roman,serif" font-size="14.00">isa (1961&#45;1963)</text>
</g>
<!-- Entity67 -->
<g id="node25" class="node entity">
<title>Entity67</title>
<ellipse fill="none" stroke="black" cx="3836.33" cy="-3353.05" rx="77.19" ry="18"/>
<text text-anchor="start" x="3784.83" y="-3349.35" font-family="Times New Roman,serif" font-size="14.00">psi&#45;consciousness</text>
</g>
<!-- Entity22&#45;&gt;Entity67 -->
<g id="edge43" class="edge verb">
<title>Entity22&#45;&gt;Entity67</title>
<path fill="none" stroke="black" d="M4544.79,-3144.17C4441.52,-3174.62 4044.31,-3291.73 3894.21,-3335.98"/>
<polygon fill="black" stroke="black" points="3892.87,-3332.73 3884.26,-3338.91 3894.85,-3339.44 3892.87,-3332.73"/>
<text text-anchor="start" x="4155.5" y="-3243.88" font-family="Times New Roman,serif" font-size="14.00">investigates</text>
</g>
<!-- Entity90 -->
<g id="node52" class="node entity">
<title>Entity90</title>
<ellipse fill="none" stroke="black" cx="4883.33" cy="-3091.22" rx="27" ry="18"/>
<text text-anchor="start" x="4873.83" y="-3087.52" font-family="Times New Roman,serif" font-size="14.00">ufo</text>
</g>
<!-- Entity22&#45;&gt;Entity90 -->
<g id="edge62" class="edge verb">
<title>Entity22&#45;&gt;Entity90</title>
<path fill="none" stroke="black" d="M4596.08,-3133C4652.06,-3124.86 4782.5,-3105.88 4846.54,-3096.57"/>
<polygon fill="black" stroke="black" points="4847.2,-3100.01 4856.59,-3095.11 4846.19,-3093.08 4847.2,-3100.01"/>
<text text-anchor="start" x="4657.31" y="-3118.58" font-family="Times New Roman,serif" font-size="14.00">investigates</text>
</g>
<!-- Entity14 -->
<g id="node3" class="node entity">
<title>Entity14</title>
<ellipse fill="none" stroke="black" cx="2539.92" cy="-3033.8" rx="74.99" ry="18"/>
<text text-anchor="start" x="2490.42" y="-3030.1" font-family="Times New Roman,serif" font-size="14.00">gene roddenberry</text>
</g>
<!-- Entity8 -->
<g id="node4" class="node entity">
<title>Entity8</title>
<ellipse fill="none" stroke="black" cx="2594.33" cy="-3141.84" rx="38.19" ry="18"/>
<text text-anchor="start" x="2572.83" y="-3138.14" font-family="Times New Roman,serif" font-size="14.00">the nine</text>
</g>
<!-- Entity14&#45;&gt;Entity8 -->
<g id="edge2" class="edge verb">
<title>Entity14&#45;&gt;Entity8</title>
<path fill="none" stroke="black" d="M2549.15,-3052.13C2557.85,-3069.41 2571,-3095.51 2580.87,-3115.11"/>
<polygon fill="black" stroke="black" points="2577.79,-3116.79 2585.42,-3124.14 2584.05,-3113.64 2577.79,-3116.79"/>
<text text-anchor="start" x="2461.01" y="-3087.42" font-family="Times New Roman,serif" font-size="14.00">claiemd to channel</text>
</g>
<!-- Entity70 -->
<g id="node23" class="node entity">
<title>Entity70</title>
<ellipse fill="none" stroke="black" cx="2094.73" cy="-2856.7" rx="94.48" ry="18"/>
<text text-anchor="start" x="2030.23" y="-2853" font-family="Times New Roman,serif" font-size="14.00">egyptian gods in a ship</text>
</g>
<!-- Entity8&#45;&gt;Entity70 -->
<g id="edge16" class="edge verb">
<title>Entity8&#45;&gt;Entity70</title>
<path fill="none" stroke="black" d="M2569.9,-3127.89C2489.35,-3081.92 2231.74,-2934.89 2133.39,-2878.76"/>
<polygon fill="black" stroke="black" points="2135.08,-2875.69 2124.66,-2873.78 2131.61,-2881.77 2135.08,-2875.69"/>
<text text-anchor="start" x="2247.64" y="-3007.13" font-family="Times New Roman,serif" font-size="14.00">claimed to channel</text>
</g>
<!-- Entity16 -->
<g id="node5" class="node entity">
<title>Entity16</title>
<ellipse fill="none" stroke="black" cx="6104.26" cy="-3269.32" rx="68.49" ry="18"/>
<text text-anchor="start" x="6059.76" y="-3265.62" font-family="Times New Roman,serif" font-size="14.00">george hw bush</text>
</g>
<!-- Entity20 -->
<g id="node6" class="node entity">
<title>Entity20</title>
<ellipse fill="none" stroke="black" cx="5814.21" cy="-3544.12" rx="63.89" ry="18"/>
<text text-anchor="start" x="5773.21" y="-3540.42" font-family="Times New Roman,serif" font-size="14.00">george w bush</text>
</g>
<!-- Entity16&#45;&gt;Entity20 -->
<g id="edge3" class="edge verb">
<title>Entity16&#45;&gt;Entity20</title>
<path fill="none" stroke="black" d="M6085.68,-3286.93C6035.64,-3334.33 5897.98,-3464.75 5840.24,-3519.46"/>
<polygon fill="black" stroke="black" points="5837.49,-3517.24 5832.64,-3526.66 5842.31,-3522.32 5837.49,-3517.24"/>
<text text-anchor="start" x="5930.96" y="-3406.99" font-family="Times New Roman,serif" font-size="14.00">father</text>
</g>
<!-- Entity16&#45;&gt;Entity66 -->
<g id="edge20" class="edge verb">
<title>Entity16&#45;&gt;Entity66</title>
<path fill="none" stroke="black" d="M6067,-3254.07C5985.87,-3220.87 5794.23,-3142.43 5715.17,-3110.08"/>
<polygon fill="black" stroke="black" points="5716.24,-3106.74 5705.66,-3106.19 5713.59,-3113.21 5716.24,-3106.74"/>
<text text-anchor="start" x="5875.08" y="-3185.87" font-family="Times New Roman,serif" font-size="14.00">isa</text>
</g>
<!-- Entity20&#45;&gt;Entity66 -->
<g id="edge42" class="edge verb">
<title>Entity20&#45;&gt;Entity66</title>
<path fill="none" stroke="black" d="M5808.79,-3525.99C5788.02,-3456.54 5713.46,-3207.2 5688.41,-3123.42"/>
<polygon fill="black" stroke="black" points="5691.7,-3122.18 5685.48,-3113.61 5684.99,-3124.19 5691.7,-3122.18"/>
<text text-anchor="start" x="5732.6" y="-3328.5" font-family="Times New Roman,serif" font-size="14.00">isa</text>
</g>
<!-- Entity2 -->
<g id="node7" class="node entity">
<title>Entity2</title>
<ellipse fill="none" stroke="black" cx="2849.72" cy="-3414.93" rx="41.69" ry="18"/>
<text text-anchor="start" x="2825.72" y="-3411.23" font-family="Times New Roman,serif" font-size="14.00">uri geller</text>
</g>
<!-- Entity2&#45;&gt;Entity8 -->
<g id="edge4" class="edge verb">
<title>Entity2&#45;&gt;Entity8</title>
<path fill="none" stroke="black" d="M2833.75,-3397.85C2789.93,-3350.99 2667.74,-3220.34 2616.94,-3166.01"/>
<polygon fill="black" stroke="black" points="2619.36,-3163.48 2609.98,-3158.57 2614.25,-3168.26 2619.36,-3163.48"/>
<text text-anchor="start" x="2621.34" y="-3285.73" font-family="Times New Roman,serif" font-size="14.00">claiemd to channel</text>
</g>
<!-- Entity26 -->
<g id="node8" class="node entity">
<title>Entity26</title>
<ellipse fill="none" stroke="black" cx="944.7" cy="-4932.54" rx="49.29" ry="18"/>
<text text-anchor="start" x="914.7" y="-4928.84" font-family="Times New Roman,serif" font-size="14.00">adolf hitler</text>
</g>
<!-- Entity28 -->
<g id="node9" class="node entity">
<title>Entity28</title>
<ellipse fill="none" stroke="black" cx="1341.54" cy="-4932.73" rx="32.49" ry="18"/>
<text text-anchor="start" x="1324.54" y="-4929.03" font-family="Times New Roman,serif" font-size="14.00">nsdap</text>
</g>
<!-- Entity26&#45;&gt;Entity28 -->
<g id="edge5" class="edge verb">
<title>Entity26&#45;&gt;Entity28</title>
<path fill="none" stroke="black" d="M994.16,-4932.56C1072.58,-4932.6 1224.16,-4932.67 1298.42,-4932.71"/>
<polygon fill="black" stroke="black" points="1298.8,-4936.21 1308.8,-4932.71 1298.8,-4929.21 1298.8,-4936.21"/>
<text text-anchor="start" x="1105.29" y="-4936.43" font-family="Times New Roman,serif" font-size="14.00">created</text>
</g>
<!-- Entity75 -->
<g id="node31" class="node entity">
<title>Entity75</title>
<ellipse fill="none" stroke="black" cx="972.29" cy="-5197.59" rx="38.99" ry="18"/>
<text text-anchor="start" x="950.29" y="-5193.89" font-family="Times New Roman,serif" font-size="14.00">far right</text>
</g>
<!-- Entity28&#45;&gt;Entity75 -->
<g id="edge29" class="edge verb">
<title>Entity28&#45;&gt;Entity75</title>
<path fill="none" stroke="black" d="M1321.43,-4947.15C1259.97,-4991.24 1074.42,-5124.33 1001.84,-5176.39"/>
<polygon fill="black" stroke="black" points="999.66,-5173.65 993.57,-5182.32 1003.74,-5179.34 999.66,-5173.65"/>
<text text-anchor="start" x="1100.64" y="-5065.57" font-family="Times New Roman,serif" font-size="14.00">member of</text>
</g>
<!-- Entity15 -->
<g id="node10" class="node entity">
<title>Entity15</title>
<ellipse fill="none" stroke="black" cx="5727.3" cy="-2580.5" rx="59.59" ry="18"/>
<text text-anchor="start" x="5689.3" y="-2576.8" font-family="Times New Roman,serif" font-size="14.00">donald trump</text>
</g>
<!-- Entity48 -->
<g id="node11" class="node entity">
<title>Entity48</title>
<ellipse fill="none" stroke="black" cx="5067.86" cy="-2838.56" rx="50.09" ry="18"/>
<text text-anchor="start" x="5037.36" y="-2834.86" font-family="Times New Roman,serif" font-size="14.00">john trump</text>
</g>
<!-- Entity15&#45;&gt;Entity48 -->
<g id="edge6" class="edge verb">
<title>Entity15&#45;&gt;Entity48</title>
<path fill="none" stroke="black" d="M5690.44,-2594.93C5577.01,-2639.32 5233.56,-2773.72 5111.49,-2821.49"/>
<polygon fill="black" stroke="black" points="5110.11,-2818.27 5102.07,-2825.18 5112.66,-2824.79 5110.11,-2818.27"/>
<text text-anchor="start" x="5341.96" y="-2712.01" font-family="Times New Roman,serif" font-size="14.00">nephew of</text>
</g>
<!-- Entity15&#45;&gt;Entity66 -->
<g id="edge27" class="edge verb">
<title>Entity15&#45;&gt;Entity66</title>
<path fill="none" stroke="black" d="M5725.65,-2598.54C5718.64,-2675.12 5691.31,-2973.73 5682.73,-3067.44"/>
<polygon fill="black" stroke="black" points="5679.22,-3067.31 5681.8,-3077.58 5686.19,-3067.94 5679.22,-3067.31"/>
<text text-anchor="start" x="5688.19" y="-2836.79" font-family="Times New Roman,serif" font-size="14.00">isa</text>
</g>
<!-- Entity48&#45;&gt;Entity22 -->
<g id="edge10" class="edge verb">
<title>Entity48&#45;&gt;Entity22</title>
<path fill="none" stroke="black" d="M5041.77,-2854.18C4956.68,-2905.12 4687.56,-3066.23 4598.52,-3119.54"/>
<polygon fill="black" stroke="black" points="4596.55,-3116.64 4589.76,-3124.78 4600.14,-3122.65 4596.55,-3116.64"/>
<text text-anchor="start" x="4759.15" y="-2990.66" font-family="Times New Roman,serif" font-size="14.00">member of</text>
</g>
<!-- Entity82 -->
<g id="node41" class="node entity">
<title>Entity82</title>
<ellipse fill="none" stroke="black" cx="4852.53" cy="-2470.89" rx="50.89" ry="18"/>
<text text-anchor="start" x="4821.53" y="-2467.19" font-family="Times New Roman,serif" font-size="14.00">nikola tesla</text>
</g>
<!-- Entity48&#45;&gt;Entity82 -->
<g id="edge40" class="edge verb">
<title>Entity48&#45;&gt;Entity82</title>
<path fill="none" stroke="black" d="M5057.47,-2820.83C5022.66,-2761.39 4909.95,-2568.93 4868.24,-2497.71"/>
<polygon fill="black" stroke="black" points="4871.13,-2495.73 4863.06,-2488.87 4865.09,-2499.27 4871.13,-2495.73"/>
<text text-anchor="start" x="4921.85" y="-2663.07" font-family="Times New Roman,serif" font-size="14.00">studied</text>
</g>
<!-- Entity5 -->
<g id="node12" class="node entity">
<title>Entity5</title>
<ellipse fill="none" stroke="black" cx="2971.13" cy="-3590.06" rx="65.79" ry="18"/>
<text text-anchor="start" x="2928.63" y="-3586.36" font-family="Times New Roman,serif" font-size="14.00">arthur m young</text>
</g>
<!-- Entity5&#45;&gt;Entity8 -->
<g id="edge7" class="edge verb">
<title>Entity5&#45;&gt;Entity8</title>
<path fill="none" stroke="black" d="M2956.36,-3572.48C2897.95,-3503.01 2683.01,-3247.33 2615.06,-3166.5"/>
<polygon fill="black" stroke="black" points="2617.71,-3164.21 2608.6,-3158.81 2612.35,-3168.72 2617.71,-3164.21"/>
<text text-anchor="start" x="2723.71" y="-3373.29" font-family="Times New Roman,serif" font-size="14.00">member&#45;of</text>
</g>
<!-- Entity5&#45;&gt;Entity67 -->
<g id="edge18" class="edge verb">
<title>Entity5&#45;&gt;Entity67</title>
<path fill="none" stroke="black" d="M3017.65,-3577.31C3163.67,-3537.31 3612.94,-3414.24 3776.22,-3369.51"/>
<polygon fill="black" stroke="black" points="3777.37,-3372.83 3786.09,-3366.81 3775.52,-3366.08 3777.37,-3372.83"/>
<text text-anchor="start" x="3355.93" y="-3477.21" font-family="Times New Roman,serif" font-size="14.00">studied</text>
</g>
<!-- Entity72 -->
<g id="node28" class="node entity">
<title>Entity72</title>
<ellipse fill="none" stroke="black" cx="2425.83" cy="-4105.74" rx="53.89" ry="18"/>
<text text-anchor="start" x="2392.33" y="-4102.04" font-family="Times New Roman,serif" font-size="14.00">bell aviation</text>
</g>
<!-- Entity5&#45;&gt;Entity72 -->
<g id="edge24" class="edge verb">
<title>Entity5&#45;&gt;Entity72</title>
<path fill="none" stroke="black" d="M2952.67,-3607.51C2871.42,-3684.34 2545.47,-3992.6 2451.37,-4081.58"/>
<polygon fill="black" stroke="black" points="2448.86,-4079.14 2444,-4088.55 2453.67,-4084.23 2448.86,-4079.14"/>
<text text-anchor="start" x="2661.02" y="-3848.34" font-family="Times New Roman,serif" font-size="14.00">created</text>
</g>
<!-- Entity1 -->
<g id="node13" class="node entity">
<title>Entity1</title>
<ellipse fill="none" stroke="black" cx="2380.33" cy="-3457.35" rx="64.19" ry="18"/>
<text text-anchor="start" x="2338.83" y="-3453.65" font-family="Times New Roman,serif" font-size="14.00">andre puharich</text>
</g>
<!-- Entity1&#45;&gt;Entity2 -->
<g id="edge8" class="edge verb">
<title>Entity1&#45;&gt;Entity2</title>
<path fill="none" stroke="black" d="M2441.69,-3451.81C2535.18,-3443.36 2711.58,-3427.42 2798.57,-3419.55"/>
<polygon fill="black" stroke="black" points="2799.08,-3423.02 2808.73,-3418.64 2798.45,-3416.05 2799.08,-3423.02"/>
<text text-anchor="start" x="2560.13" y="-3439.48" font-family="Times New Roman,serif" font-size="14.00">sponsored</text>
</g>
<!-- Entity7 -->
<g id="node14" class="node entity">
<title>Entity7</title>
<ellipse fill="none" stroke="black" cx="3372.83" cy="-3576.12" rx="68.49" ry="18"/>
<text text-anchor="start" x="3328.33" y="-3572.42" font-family="Times New Roman,serif" font-size="14.00">jeffrey mishlove</text>
</g>
<!-- Entity7&#45;&gt;Entity2 -->
<g id="edge9" class="edge verb">
<title>Entity7&#45;&gt;Entity2</title>
<path fill="none" stroke="black" d="M3328.23,-3562.38C3229.1,-3531.83 2991.49,-3458.61 2893.31,-3428.36"/>
<polygon fill="black" stroke="black" points="2894.29,-3425 2883.7,-3425.4 2892.23,-3431.69 2894.29,-3425"/>
<text text-anchor="start" x="3055.77" y="-3499.17" font-family="Times New Roman,serif" font-size="14.00">promoted</text>
</g>
<!-- Entity7&#45;&gt;Entity67 -->
<g id="edge19" class="edge verb">
<title>Entity7&#45;&gt;Entity67</title>
<path fill="none" stroke="black" d="M3412.45,-3561.39C3501.2,-3522.88 3714.74,-3420.11 3800.15,-3374.8"/>
<polygon fill="black" stroke="black" points="3802.04,-3377.76 3809.2,-3369.95 3798.73,-3371.59 3802.04,-3377.76"/>
<text text-anchor="start" x="3565.3" y="-3471.89" font-family="Times New Roman,serif" font-size="14.00">studied</text>
</g>
<!-- Entity7&#45;&gt;Entity67 -->
<g id="edge26" class="edge verb">
<title>Entity7&#45;&gt;Entity67</title>
<path fill="none" stroke="black" d="M3399.63,-3559.39C3474.7,-3518.73 3687.84,-3415.82 3785.88,-3372.52"/>
<polygon fill="black" stroke="black" points="3787.53,-3375.62 3795.28,-3368.4 3784.72,-3369.21 3787.53,-3375.62"/>
<text text-anchor="start" x="3528.75" y="-3454.75" font-family="Times New Roman,serif" font-size="14.00">investigates</text>
</g>
<!-- Entity30 -->
<g id="node15" class="node entity">
<title>Entity30</title>
<ellipse fill="none" stroke="black" cx="1913.5" cy="-4655.99" rx="74.99" ry="18"/>
<text text-anchor="start" x="1864" y="-4652.29" font-family="Times New Roman,serif" font-size="14.00">walter dornberger</text>
</g>
<!-- Entity30&#45;&gt;Entity28 -->
<g id="edge11" class="edge verb">
<title>Entity30&#45;&gt;Entity28</title>
<path fill="none" stroke="black" d="M1879.85,-4672.27C1778.48,-4721.31 1476.72,-4867.32 1375.26,-4916.41"/>
<polygon fill="black" stroke="black" points="1373.55,-4913.35 1366.08,-4920.86 1376.6,-4919.65 1373.55,-4913.35"/>
<text text-anchor="start" x="1566.56" y="-4798.14" font-family="Times New Roman,serif" font-size="14.00">member of</text>
</g>
<!-- Entity30&#45;&gt;Entity72 -->
<g id="edge35" class="edge verb">
<title>Entity30&#45;&gt;Entity72</title>
<path fill="none" stroke="black" d="M1933.4,-4638.56C2015.35,-4558.37 2325.32,-4225.57 2406.39,-4130.91"/>
<polygon fill="black" stroke="black" points="2409.09,-4133.14 2412.89,-4123.25 2403.75,-4128.61 2409.09,-4133.14"/>
<text text-anchor="start" x="2090.9" y="-4388.53" font-family="Times New Roman,serif" font-size="14.00">vice&#45;president</text>
</g>
<!-- Entity30&#45;&gt;Entity72 -->
<g id="edge49" class="edge verb">
<title>Entity30&#45;&gt;Entity72</title>
<path fill="none" stroke="black" d="M1926.73,-4638.12C1994.91,-4556.87 2305.6,-4222.88 2399.16,-4129.84"/>
<polygon fill="black" stroke="black" points="2401.86,-4132.09 2406.52,-4122.58 2396.94,-4127.11 2401.86,-4132.09"/>
<text text-anchor="start" x="2106.95" y="-4372.78" font-family="Times New Roman,serif" font-size="14.00">worked at</text>
</g>
<!-- Entity76 -->
<g id="node35" class="node entity">
<title>Entity76</title>
<ellipse fill="none" stroke="black" cx="1560.88" cy="-5224.56" rx="90.98" ry="18"/>
<text text-anchor="start" x="1498.88" y="-5220.86" font-family="Times New Roman,serif" font-size="14.00">nsdap rocket program</text>
</g>
<!-- Entity30&#45;&gt;Entity76 -->
<g id="edge36" class="edge verb">
<title>Entity30&#45;&gt;Entity76</title>
<path fill="none" stroke="black" d="M1902.36,-4673.94C1851.21,-4756.41 1638.7,-5099.08 1577.47,-5197.82"/>
<polygon fill="black" stroke="black" points="1574.32,-5196.26 1572.02,-5206.6 1580.27,-5199.95 1574.32,-5196.26"/>
<text text-anchor="start" x="1698.91" y="-4939.68" font-family="Times New Roman,serif" font-size="14.00">created</text>
</g>
<!-- Entity104 -->
<g id="node55" class="node entity">
<title>Entity104</title>
<ellipse fill="none" stroke="black" cx="2021.31" cy="-4763.98" rx="65.79" ry="18"/>
<text text-anchor="start" x="1978.81" y="-4760.28" font-family="Times New Roman,serif" font-size="14.00">x series aircraft</text>
</g>
<!-- Entity30&#45;&gt;Entity104 -->
<g id="edge59" class="edge verb">
<title>Entity30&#45;&gt;Entity104</title>
<path fill="none" stroke="black" d="M1931.3,-4673.82C1949.12,-4691.67 1976.68,-4719.27 1996.61,-4739.24"/>
<polygon fill="black" stroke="black" points="1994.3,-4741.87 2003.84,-4746.48 1999.25,-4736.93 1994.3,-4741.87"/>
<text text-anchor="start" x="1922.95" y="-4710.33" font-family="Times New Roman,serif" font-size="14.00">created</text>
</g>
<!-- Entity32 -->
<g id="node16" class="node entity">
<title>Entity32</title>
<ellipse fill="none" stroke="black" cx="1972.3" cy="-5167.34" rx="46.29" ry="18"/>
<text text-anchor="start" x="1944.8" y="-5163.64" font-family="Times New Roman,serif" font-size="14.00">van braun</text>
</g>
<!-- Entity32&#45;&gt;Entity30 -->
<g id="edge12" class="edge verb">
<title>Entity32&#45;&gt;Entity30</title>
<path fill="none" stroke="black" d="M1970.2,-5149.14C1961.42,-5072.73 1927.47,-4777.49 1916.75,-4684.32"/>
<polygon fill="black" stroke="black" points="1920.21,-4683.77 1915.59,-4674.23 1913.26,-4684.57 1920.21,-4683.77"/>
<text text-anchor="start" x="1880.48" y="-4920.53" font-family="Times New Roman,serif" font-size="14.00">worked for</text>
</g>
<!-- Entity32&#45;&gt;Entity76 -->
<g id="edge48" class="edge verb">
<title>Entity32&#45;&gt;Entity76</title>
<path fill="none" stroke="black" d="M1928.66,-5173.41C1861.52,-5182.75 1731.66,-5200.81 1645.61,-5212.78"/>
<polygon fill="black" stroke="black" points="1645.02,-5209.33 1635.6,-5214.17 1645.99,-5216.26 1645.02,-5209.33"/>
<text text-anchor="start" x="1731.13" y="-5196.9" font-family="Times New Roman,serif" font-size="14.00">worked at</text>
</g>
<!-- Entity29 -->
<g id="node17" class="node entity">
<title>Entity29</title>
<ellipse fill="none" stroke="black" cx="5374.67" cy="-3553.83" rx="37.89" ry="18"/>
<text text-anchor="start" x="5353.67" y="-3550.13" font-family="Times New Roman,serif" font-size="14.00">hunt oil</text>
</g>
<!-- Entity36 -->
<g id="node18" class="node entity">
<title>Entity36</title>
<ellipse fill="none" stroke="black" cx="5389.08" cy="-3445.75" rx="77.99" ry="18"/>
<text text-anchor="start" x="5337.08" y="-3442.05" font-family="Times New Roman,serif" font-size="14.00">dwight eisenhower</text>
</g>
<!-- Entity29&#45;&gt;Entity36 -->
<g id="edge13" class="edge verb">
<title>Entity29&#45;&gt;Entity36</title>
<path fill="none" stroke="black" d="M5377.12,-3535.5C5379.37,-3518.63 5382.74,-3493.35 5385.33,-3473.92"/>
<polygon fill="black" stroke="black" points="5388.82,-3474.19 5386.68,-3463.82 5381.89,-3473.27 5388.82,-3474.19"/>
<text text-anchor="start" x="5341.22" y="-3508.51" font-family="Times New Roman,serif" font-size="14.00">funded</text>
</g>
<!-- Entity36&#45;&gt;Entity66 -->
<g id="edge34" class="edge verb">
<title>Entity36&#45;&gt;Entity66</title>
<path fill="none" stroke="black" d="M5403.92,-3427.92C5452.13,-3369.94 5604.48,-3186.72 5659.81,-3120.19"/>
<polygon fill="black" stroke="black" points="5662.65,-3122.24 5666.36,-3112.31 5657.27,-3117.76 5662.65,-3122.24"/>
<text text-anchor="start" x="5512.86" y="-3277.85" font-family="Times New Roman,serif" font-size="14.00">is a</text>
</g>
<!-- Entity11 -->
<g id="node19" class="node entity">
<title>Entity11</title>
<ellipse fill="none" stroke="black" cx="6191.25" cy="-3110.78" rx="56.59" ry="18"/>
<text text-anchor="start" x="6155.75" y="-3107.08" font-family="Times New Roman,serif" font-size="14.00">harry truman</text>
</g>
<!-- Entity11&#45;&gt;Entity66 -->
<g id="edge14" class="edge verb">
<title>Entity11&#45;&gt;Entity66</title>
<path fill="none" stroke="black" d="M6134.6,-3109.11C6030.97,-3106.06 5813.14,-3099.65 5721.82,-3096.97"/>
<polygon fill="black" stroke="black" points="5721.68,-3093.46 5711.58,-3096.66 5721.47,-3100.46 5721.68,-3093.46"/>
<text text-anchor="start" x="5912.21" y="-3106.84" font-family="Times New Roman,serif" font-size="14.00">isa</text>
</g>
<!-- Entity69 -->
<g id="node24" class="node entity">
<title>Entity69</title>
<ellipse fill="none" stroke="black" cx="6711.1" cy="-3212.95" rx="55.79" ry="18"/>
<text text-anchor="start" x="6676.1" y="-3209.25" font-family="Times New Roman,serif" font-size="14.00">freemasonry</text>
</g>
<!-- Entity11&#45;&gt;Entity69 -->
<g id="edge17" class="edge verb">
<title>Entity11&#45;&gt;Entity69</title>
<path fill="none" stroke="black" d="M6239.69,-3120.3C6335.8,-3139.19 6550.21,-3181.33 6653.41,-3201.62"/>
<polygon fill="black" stroke="black" points="6652.86,-3205.07 6663.34,-3203.57 6654.21,-3198.21 6652.86,-3205.07"/>
<text text-anchor="start" x="6385.55" y="-3164.76" font-family="Times New Roman,serif" font-size="14.00">member of</text>
</g>
<!-- Entity63 -->
<g id="node21" class="node entity">
<title>Entity63</title>
<ellipse fill="none" stroke="black" cx="6575.76" cy="-3829.97" rx="53.89" ry="18"/>
<text text-anchor="start" x="6542.26" y="-3826.27" font-family="Times New Roman,serif" font-size="14.00">edgar casey</text>
</g>
<!-- Entity59 -->
<g id="node22" class="node entity">
<title>Entity59</title>
<ellipse fill="none" stroke="black" cx="6154.45" cy="-3435.39" rx="71.49" ry="18"/>
<text text-anchor="start" x="6107.45" y="-3431.69" font-family="Times New Roman,serif" font-size="14.00">woodrow wilson</text>
</g>
<!-- Entity63&#45;&gt;Entity59 -->
<g id="edge15" class="edge verb">
<title>Entity63&#45;&gt;Entity59</title>
<path fill="none" stroke="black" d="M6557.39,-3812.76C6490.47,-3750.09 6259.63,-3533.89 6180.96,-3460.21"/>
<polygon fill="black" stroke="black" points="6183.09,-3457.42 6173.4,-3453.13 6178.31,-3462.52 6183.09,-3457.42"/>
<text text-anchor="start" x="6327.17" y="-3640.28" font-family="Times New Roman,serif" font-size="14.00">advises</text>
</g>
<!-- Entity59&#45;&gt;Entity66 -->
<g id="edge30" class="edge verb">
<title>Entity59&#45;&gt;Entity66</title>
<path fill="none" stroke="black" d="M6130.6,-3418.31C6050.87,-3361.22 5793.78,-3177.12 5708.17,-3115.81"/>
<polygon fill="black" stroke="black" points="5710.13,-3112.92 5699.97,-3109.94 5706.06,-3118.61 5710.13,-3112.92"/>
<text text-anchor="start" x="5903.39" y="-3270.86" font-family="Times New Roman,serif" font-size="14.00">isa</text>
</g>
<!-- Entity92 -->
<g id="node50" class="node entity">
<title>Entity92</title>
<ellipse fill="none" stroke="black" cx="6265.76" cy="-3543.4" rx="71.49" ry="18"/>
<text text-anchor="start" x="6218.76" y="-3539.7" font-family="Times New Roman,serif" font-size="14.00">leauge of nations</text>
</g>
<!-- Entity59&#45;&gt;Entity92 -->
<g id="edge54" class="edge verb">
<title>Entity59&#45;&gt;Entity92</title>
<path fill="none" stroke="black" d="M6172.83,-3453.22C6191.31,-3471.15 6219.93,-3498.93 6240.53,-3518.92"/>
<polygon fill="black" stroke="black" points="6238.1,-3521.44 6247.72,-3525.89 6242.98,-3516.42 6238.1,-3521.44"/>
<text text-anchor="start" x="6165.68" y="-3489.87" font-family="Times New Roman,serif" font-size="14.00">created</text>
</g>
<!-- Entity18 -->
<g id="node26" class="node entity">
<title>Entity18</title>
<ellipse fill="none" stroke="black" cx="5978.02" cy="-2918.04" rx="35.19" ry="18"/>
<text text-anchor="start" x="5959.02" y="-2914.34" font-family="Times New Roman,serif" font-size="14.00">obama</text>
</g>
<!-- Entity18&#45;&gt;Entity66 -->
<g id="edge21" class="edge verb">
<title>Entity18&#45;&gt;Entity66</title>
<path fill="none" stroke="black" d="M5954.65,-2931.98C5901.29,-2963.81 5770.53,-3041.81 5710.8,-3077.45"/>
<polygon fill="black" stroke="black" points="5708.98,-3074.46 5702.18,-3082.59 5712.56,-3080.47 5708.98,-3074.46"/>
<text text-anchor="start" x="5816.72" y="-3008.51" font-family="Times New Roman,serif" font-size="14.00">isa</text>
</g>
<!-- Entity12 -->
<g id="node27" class="node entity">
<title>Entity12</title>
<ellipse fill="none" stroke="black" cx="5724.06" cy="-3203.69" rx="58.49" ry="18"/>
<text text-anchor="start" x="5687.06" y="-3199.99" font-family="Times New Roman,serif" font-size="14.00">richard nixon</text>
</g>
<!-- Entity12&#45;&gt;Entity66 -->
<g id="edge22" class="edge verb">
<title>Entity12&#45;&gt;Entity66</title>
<path fill="none" stroke="black" d="M5716.61,-3185.38C5709.61,-3168.19 5699.07,-3142.27 5691.11,-3122.72"/>
<polygon fill="black" stroke="black" points="5694.34,-3121.37 5687.33,-3113.42 5687.86,-3124.01 5694.34,-3121.37"/>
<text text-anchor="start" x="5687.86" y="-3157.85" font-family="Times New Roman,serif" font-size="14.00">isa</text>
</g>
<!-- Entity24 -->
<g id="node29" class="node entity">
<title>Entity24</title>
<ellipse fill="none" stroke="black" cx="3453.61" cy="-3684.1" rx="63.89" ry="18"/>
<text text-anchor="start" x="3412.61" y="-3680.4" font-family="Times New Roman,serif" font-size="14.00">robert bigelow</text>
</g>
<!-- Entity24&#45;&gt;Entity7 -->
<g id="edge25" class="edge verb">
<title>Entity24&#45;&gt;Entity7</title>
<path fill="none" stroke="black" d="M3440.27,-3666.27C3427.17,-3648.76 3407.05,-3621.87 3392.2,-3602.01"/>
<polygon fill="black" stroke="black" points="3394.98,-3599.89 3386.19,-3593.98 3389.37,-3604.08 3394.98,-3599.89"/>
<text text-anchor="start" x="3384.23" y="-3637.94" font-family="Times New Roman,serif" font-size="14.00">funds</text>
</g>
<!-- Entity24&#45;&gt;Entity67 -->
<g id="edge45" class="edge verb">
<title>Entity24&#45;&gt;Entity67</title>
<path fill="none" stroke="black" d="M3473.65,-3666.77C3537.18,-3611.81 3734.27,-3441.33 3808.06,-3377.5"/>
<polygon fill="black" stroke="black" points="3810.75,-3379.8 3816.02,-3370.61 3806.17,-3374.5 3810.75,-3379.8"/>
<text text-anchor="start" x="3576.85" y="-3525.93" font-family="Times New Roman,serif" font-size="14.00">investigates</text>
</g>
<!-- Entity44 -->
<g id="node30" class="node entity">
<title>Entity44</title>
<ellipse fill="none" stroke="black" cx="6339.95" cy="-2128.64" rx="58.49" ry="18"/>
<text text-anchor="start" x="6302.95" y="-2124.94" font-family="Times New Roman,serif" font-size="14.00">steve bannon</text>
</g>
<!-- Entity44&#45;&gt;Entity15 -->
<g id="edge28" class="edge verb">
<title>Entity44&#45;&gt;Entity15</title>
<path fill="none" stroke="black" d="M6313.07,-2144.87C6211.94,-2213.14 5855.26,-2476.14 5754.16,-2556.88"/>
<polygon fill="black" stroke="black" points="5751.85,-2554.25 5746.25,-2563.25 5756.24,-2559.7 5751.85,-2554.25"/>
<text text-anchor="start" x="5978.62" y="-2354.67" font-family="Times New Roman,serif" font-size="14.00">promoted</text>
</g>
<!-- Entity44&#45;&gt;Entity15 -->
<g id="edge64" class="edge verb">
<title>Entity44&#45;&gt;Entity15</title>
<path fill="none" stroke="black" d="M6321.12,-2145.79C6234.81,-2216 5876.75,-2480.36 5762.48,-2558.63"/>
<polygon fill="black" stroke="black" points="5760.36,-2555.84 5754.06,-2564.36 5764.29,-2561.63 5760.36,-2555.84"/>
<text text-anchor="start" x="6041.8" y="-2356.01" font-family="Times New Roman,serif" font-size="14.00">advises</text>
</g>
<!-- Entity83 -->
<g id="node40" class="node entity">
<title>Entity83</title>
<ellipse fill="none" stroke="black" cx="6360.12" cy="-1570.46" rx="61.99" ry="18"/>
<text text-anchor="start" x="6320.62" y="-1566.76" font-family="Times New Roman,serif" font-size="14.00">breitbart news</text>
</g>
<!-- Entity44&#45;&gt;Entity83 -->
<g id="edge46" class="edge verb">
<title>Entity44&#45;&gt;Entity83</title>
<path fill="none" stroke="black" d="M6340.61,-2110.39C6343.55,-2028.89 6355.51,-1697.99 6359.1,-1598.73"/>
<polygon fill="black" stroke="black" points="6362.6,-1598.69 6359.47,-1588.57 6355.61,-1598.44 6362.6,-1598.69"/>
<text text-anchor="start" x="6308.85" y="-1858.36" font-family="Times New Roman,serif" font-size="14.00">created</text>
</g>
<!-- Entity89 -->
<g id="node49" class="node entity">
<title>Entity89</title>
<ellipse fill="none" stroke="black" cx="6769.34" cy="-2231.06" rx="35.19" ry="18"/>
<text text-anchor="start" x="6750.34" y="-2227.36" font-family="Times New Roman,serif" font-size="14.00">gurgev</text>
</g>
<!-- Entity44&#45;&gt;Entity89 -->
<g id="edge53" class="edge verb">
<title>Entity44&#45;&gt;Entity89</title>
<path fill="none" stroke="black" d="M6386.31,-2139.7C6470.43,-2159.76 6646.94,-2201.87 6727.57,-2221.1"/>
<polygon fill="black" stroke="black" points="6726.83,-2224.52 6737.37,-2223.44 6728.46,-2217.71 6726.83,-2224.52"/>
<text text-anchor="start" x="6515.94" y="-2184.2" font-family="Times New Roman,serif" font-size="14.00">studied</text>
</g>
<!-- Entity91 -->
<g id="node51" class="node entity">
<title>Entity91</title>
<ellipse fill="none" stroke="black" cx="6459.21" cy="-1728.99" rx="38.19" ry="18"/>
<text text-anchor="start" x="6437.71" y="-1725.29" font-family="Times New Roman,serif" font-size="14.00">us navy</text>
</g>
<!-- Entity44&#45;&gt;Entity91 -->
<g id="edge55" class="edge verb">
<title>Entity44&#45;&gt;Entity91</title>
<path fill="none" stroke="black" d="M6345.3,-2110.69C6364.22,-2047.3 6427.99,-1833.62 6450.91,-1756.79"/>
<polygon fill="black" stroke="black" points="6454.36,-1757.47 6453.87,-1746.89 6447.65,-1755.47 6454.36,-1757.47"/>
<text text-anchor="start" x="6337.11" y="-1937.54" font-family="Times New Roman,serif" font-size="14.00">member of</text>
</g>
<!-- Entity94 -->
<g id="node53" class="node entity">
<title>Entity94</title>
<ellipse fill="none" stroke="black" cx="6859.61" cy="-2068.43" rx="53.09" ry="18"/>
<text text-anchor="start" x="6826.61" y="-2064.73" font-family="Times New Roman,serif" font-size="14.00">biosphere 2</text>
</g>
<!-- Entity44&#45;&gt;Entity94 -->
<g id="edge57" class="edge verb">
<title>Entity44&#45;&gt;Entity94</title>
<path fill="none" stroke="black" d="M6395.07,-2122.25C6493.05,-2110.9 6696.82,-2087.29 6798.77,-2075.48"/>
<polygon fill="black" stroke="black" points="6799.37,-2078.93 6808.9,-2074.31 6798.57,-2071.98 6799.37,-2078.93"/>
<text text-anchor="start" x="6555.92" y="-2102.67" font-family="Times New Roman,serif" font-size="14.00">created</text>
</g>
<!-- Entity107 -->
<g id="node58" class="node entity">
<title>Entity107</title>
<ellipse fill="none" stroke="black" cx="6806.23" cy="-1706.64" rx="77.19" ry="18"/>
<text text-anchor="start" x="6754.73" y="-1702.94" font-family="Times New Roman,serif" font-size="14.00">hollywood movies</text>
</g>
<!-- Entity44&#45;&gt;Entity107 -->
<g id="edge61" class="edge verb">
<title>Entity44&#45;&gt;Entity107</title>
<path fill="none" stroke="black" d="M6358.8,-2111.58C6431.58,-2045.71 6694.36,-1807.89 6779.44,-1730.88"/>
<polygon fill="black" stroke="black" points="6781.81,-1733.46 6786.88,-1724.15 6777.11,-1728.27 6781.81,-1733.46"/>
<text text-anchor="start" x="6514.12" y="-1925.03" font-family="Times New Roman,serif" font-size="14.00">produced</text>
</g>
<!-- Entity111 -->
<g id="node59" class="node entity">
<title>Entity111</title>
<ellipse fill="none" stroke="black" cx="6849.24" cy="-1885.72" rx="64.99" ry="18"/>
<text text-anchor="start" x="6807.24" y="-1882.02" font-family="Times New Roman,serif" font-size="14.00">goldman sachs</text>
</g>
<!-- Entity44&#45;&gt;Entity111 -->
<g id="edge66" class="edge verb">
<title>Entity44&#45;&gt;Entity111</title>
<path fill="none" stroke="black" d="M6371.8,-2113.45C6460.09,-2071.33 6707.92,-1953.13 6807.27,-1905.74"/>
<polygon fill="black" stroke="black" points="6808.89,-1908.84 6816.41,-1901.38 6805.88,-1902.53 6808.89,-1908.84"/>
<text text-anchor="start" x="6526.54" y="-2013.39" font-family="Times New Roman,serif" font-size="14.00">worked for</text>
</g>
<!-- Entity33 -->
<g id="node32" class="node entity">
<title>Entity33</title>
<ellipse fill="none" stroke="black" cx="1960.79" cy="-4197.38" rx="57.69" ry="18"/>
<text text-anchor="start" x="1924.29" y="-4193.68" font-family="Times New Roman,serif" font-size="14.00">michael pane</text>
</g>
<!-- Entity33&#45;&gt;Entity30 -->
<g id="edge47" class="edge verb">
<title>Entity33&#45;&gt;Entity30</title>
<path fill="none" stroke="black" d="M1958.91,-4215.64C1951.63,-4286.26 1925.28,-4541.75 1916.42,-4627.62"/>
<polygon fill="black" stroke="black" points="1912.93,-4627.37 1915.38,-4637.67 1919.89,-4628.09 1912.93,-4627.37"/>
<text text-anchor="start" x="1874.67" y="-4425.43" font-family="Times New Roman,serif" font-size="14.00">worked for</text>
</g>
<!-- Entity33&#45;&gt;Entity72 -->
<g id="edge31" class="edge verb">
<title>Entity33&#45;&gt;Entity72</title>
<path fill="none" stroke="black" d="M2009.68,-4187.75C2096.55,-4170.63 2277.32,-4135 2369.35,-4116.87"/>
<polygon fill="black" stroke="black" points="2370.19,-4120.27 2379.32,-4114.9 2368.83,-4113.4 2370.19,-4120.27"/>
<text text-anchor="start" x="2133.52" y="-4156.11" font-family="Times New Roman,serif" font-size="14.00">worked at</text>
</g>
<!-- Entity45 -->
<g id="node33" class="node entity">
<title>Entity45</title>
<ellipse fill="none" stroke="black" cx="5307.31" cy="-2648.38" rx="67.69" ry="18"/>
<text text-anchor="start" x="5263.31" y="-2644.68" font-family="Times New Roman,serif" font-size="14.00">abraham lincoln</text>
</g>
<!-- Entity45&#45;&gt;Entity66 -->
<g id="edge32" class="edge verb">
<title>Entity45&#45;&gt;Entity66</title>
<path fill="none" stroke="black" d="M5322.15,-2666.2C5380.3,-2735.97 5592.67,-2990.79 5659.71,-3071.23"/>
<polygon fill="black" stroke="black" points="5657.35,-3073.87 5666.45,-3079.31 5662.73,-3069.39 5657.35,-3073.87"/>
<text text-anchor="start" x="5474.93" y="-2872.51" font-family="Times New Roman,serif" font-size="14.00">isa</text>
</g>
<!-- Entity38 -->
<g id="node34" class="node entity">
<title>Entity38</title>
<ellipse fill="none" stroke="black" cx="4719.12" cy="-2143.3" rx="90.98" ry="18"/>
<text text-anchor="start" x="4657.12" y="-2139.6" font-family="Times New Roman,serif" font-size="14.00">emma hardinge&#45;britten</text>
</g>
<!-- Entity38&#45;&gt;Entity45 -->
<g id="edge33" class="edge verb">
<title>Entity38&#45;&gt;Entity45</title>
<path fill="none" stroke="black" d="M4739.71,-2160.98C4828.4,-2237.14 5177.93,-2537.28 5279.49,-2624.5"/>
<polygon fill="black" stroke="black" points="5277.32,-2627.25 5287.19,-2631.11 5281.88,-2621.94 5277.32,-2627.25"/>
<text text-anchor="start" x="4910.6" y="-2396.54" font-family="Times New Roman,serif" font-size="14.00">spokesperson for</text>
</g>
<!-- Entity79 -->
<g id="node38" class="node entity">
<title>Entity79</title>
<ellipse fill="none" stroke="black" cx="4805.78" cy="-2035.36" rx="39.79" ry="18"/>
<text text-anchor="start" x="4783.28" y="-2031.66" font-family="Times New Roman,serif" font-size="14.00">medium</text>
</g>
<!-- Entity38&#45;&gt;Entity79 -->
<g id="edge38" class="edge verb">
<title>Entity38&#45;&gt;Entity79</title>
<path fill="none" stroke="black" d="M4733.43,-2125.47C4747.65,-2107.76 4769.58,-2080.45 4785.57,-2060.53"/>
<polygon fill="black" stroke="black" points="4788.49,-2062.48 4792.02,-2052.49 4783.03,-2058.1 4788.49,-2062.48"/>
<text text-anchor="start" x="4743.5" y="-2096.8" font-family="Times New Roman,serif" font-size="14.00">isa</text>
</g>
<!-- Entity86 -->
<g id="node48" class="node entity">
<title>Entity86</title>
<ellipse fill="none" stroke="black" cx="4476.07" cy="-1318.66" rx="85.29" ry="18"/>
<text text-anchor="start" x="4418.57" y="-1314.96" font-family="Times New Roman,serif" font-size="14.00">theosophical society</text>
</g>
<!-- Entity38&#45;&gt;Entity86 -->
<g id="edge65" class="edge verb">
<title>Entity38&#45;&gt;Entity86</title>
<path fill="none" stroke="black" d="M4713.82,-2125.31C4682.59,-2019.35 4522.7,-1476.88 4484.35,-1346.75"/>
<polygon fill="black" stroke="black" points="4487.59,-1345.37 4481.41,-1336.77 4480.88,-1347.35 4487.59,-1345.37"/>
<text text-anchor="start" x="4558.08" y="-1739.83" font-family="Times New Roman,serif" font-size="14.00">created</text>
</g>
<!-- Entity99 -->
<g id="node54" class="node entity">
<title>Entity99</title>
<ellipse fill="none" stroke="black" cx="4519" cy="-2035.3" rx="55.79" ry="18"/>
<text text-anchor="start" x="4484" y="-2031.6" font-family="Times New Roman,serif" font-size="14.00">orphic circle</text>
</g>
<!-- Entity38&#45;&gt;Entity99 -->
<g id="edge58" class="edge verb">
<title>Entity38&#45;&gt;Entity99</title>
<path fill="none" stroke="black" d="M4687.41,-2126.19C4651.95,-2107.05 4594.56,-2076.08 4556.8,-2055.7"/>
<polygon fill="black" stroke="black" points="4558.11,-2052.43 4547.65,-2050.76 4554.79,-2058.59 4558.11,-2052.43"/>
<text text-anchor="start" x="4561.1" y="-2094.74" font-family="Times New Roman,serif" font-size="14.00">member of</text>
</g>
<!-- Entity42 -->
<g id="node36" class="node entity">
<title>Entity42</title>
<ellipse fill="none" stroke="black" cx="3403.94" cy="-2362.66" rx="53.89" ry="18"/>
<text text-anchor="start" x="3370.44" y="-2358.96" font-family="Times New Roman,serif" font-size="14.00">black magic</text>
</g>
<!-- Entity81 -->
<g id="node37" class="node entity">
<title>Entity81</title>
<ellipse fill="none" stroke="black" cx="3491.66" cy="-2474.64" rx="28.7" ry="18"/>
<text text-anchor="start" x="3477.66" y="-2470.94" font-family="Times New Roman,serif" font-size="14.00">x left</text>
</g>
<!-- Entity42&#45;&gt;Entity81 -->
<g id="edge37" class="edge verb">
<title>Entity42&#45;&gt;Entity81</title>
<path fill="none" stroke="black" d="M3417.64,-2380.16C3432.45,-2399.05 3456.14,-2429.29 3472.72,-2450.45"/>
<polygon fill="black" stroke="black" points="3469.98,-2452.64 3478.9,-2458.36 3475.49,-2448.32 3469.98,-2452.64"/>
<text text-anchor="start" x="3384.18" y="-2419.11" font-family="Times New Roman,serif" font-size="14.00">member of</text>
</g>
<!-- Entity47 -->
<g id="node39" class="node entity">
<title>Entity47</title>
<ellipse fill="none" stroke="black" cx="6376.29" cy="-1462.5" rx="69.59" ry="18"/>
<text text-anchor="start" x="6330.79" y="-1458.8" font-family="Times New Roman,serif" font-size="14.00">andrew breitbart</text>
</g>
<!-- Entity47&#45;&gt;Entity83 -->
<g id="edge39" class="edge verb">
<title>Entity47&#45;&gt;Entity83</title>
<path fill="none" stroke="black" d="M6373.55,-1480.81C6371.02,-1497.67 6367.24,-1522.91 6364.34,-1542.32"/>
<polygon fill="black" stroke="black" points="6360.84,-1542.01 6362.82,-1552.42 6367.77,-1543.04 6360.84,-1542.01"/>
<text text-anchor="start" x="6327.94" y="-1515.37" font-family="Times New Roman,serif" font-size="14.00">created</text>
</g>
<!-- Entity35 -->
<g id="node42" class="node entity">
<title>Entity35</title>
<ellipse fill="none" stroke="black" cx="3389.94" cy="-3032.66" rx="39.79" ry="18"/>
<text text-anchor="start" x="3367.44" y="-3028.96" font-family="Times New Roman,serif" font-size="14.00">crowley</text>
</g>
<!-- Entity80 -->
<g id="node43" class="node entity">
<title>Entity80</title>
<ellipse fill="none" stroke="black" cx="3477.66" cy="-3144.64" rx="38.99" ry="18"/>
<text text-anchor="start" x="3455.66" y="-3140.94" font-family="Times New Roman,serif" font-size="14.00">x magic</text>
</g>
<!-- Entity35&#45;&gt;Entity80 -->
<g id="edge41" class="edge verb">
<title>Entity35&#45;&gt;Entity80</title>
<path fill="none" stroke="black" d="M3403.26,-3049.67C3417.82,-3068.25 3441.28,-3098.2 3457.96,-3119.49"/>
<polygon fill="black" stroke="black" points="3455.29,-3121.76 3464.21,-3127.47 3460.8,-3117.44 3455.29,-3121.76"/>
<text text-anchor="start" x="3369.61" y="-3088.38" font-family="Times New Roman,serif" font-size="14.00">member of</text>
</g>
<!-- Entity19 -->
<g id="node44" class="node entity">
<title>Entity19</title>
<ellipse fill="none" stroke="black" cx="5280.29" cy="-3091.23" rx="31.4" ry="18"/>
<text text-anchor="start" x="5264.29" y="-3087.53" font-family="Times New Roman,serif" font-size="14.00">carter</text>
</g>
<!-- Entity19&#45;&gt;Entity66 -->
<g id="edge44" class="edge verb">
<title>Entity19&#45;&gt;Entity66</title>
<path fill="none" stroke="black" d="M5311.67,-3091.58C5383.2,-3092.39 5558.37,-3094.36 5638.68,-3095.27"/>
<polygon fill="black" stroke="black" points="5638.87,-3098.77 5648.91,-3095.39 5638.95,-3091.77 5638.87,-3098.77"/>
<text text-anchor="start" x="5459.17" y="-3097.23" font-family="Times New Roman,serif" font-size="14.00">isa</text>
</g>
<!-- Entity19&#45;&gt;Entity90 -->
<g id="edge56" class="edge verb">
<title>Entity19&#45;&gt;Entity90</title>
<path fill="none" stroke="black" d="M5248.81,-3091.23C5176.48,-3091.22 4998.67,-3091.22 4920.84,-3091.22"/>
<polygon fill="black" stroke="black" points="4920.54,-3087.72 4910.54,-3091.22 4920.54,-3094.72 4920.54,-3087.72"/>
<text text-anchor="start" x="5029.83" y="-3095.02" font-family="Times New Roman,serif" font-size="14.00">witnessed</text>
</g>
<!-- Entity27 -->
<g id="node45" class="node entity">
<title>Entity27</title>
<ellipse fill="none" stroke="black" cx="75.26" cy="-5768.55" rx="75.29" ry="18"/>
<text text-anchor="start" x="25.26" y="-5764.85" font-family="Times New Roman,serif" font-size="14.00">lee harvey oswald</text>
</g>
<!-- Entity34 -->
<g id="node46" class="node entity">
<title>Entity34</title>
<ellipse fill="none" stroke="black" cx="550.96" cy="-5469.04" rx="59.29" ry="18"/>
<text text-anchor="start" x="513.46" y="-5465.34" font-family="Times New Roman,serif" font-size="14.00">guy bannister</text>
</g>
<!-- Entity27&#45;&gt;Entity34 -->
<g id="edge50" class="edge verb">
<title>Entity27&#45;&gt;Entity34</title>
<path fill="none" stroke="black" d="M102.2,-5751.59C183.51,-5700.39 426.44,-5547.45 516.7,-5490.62"/>
<polygon fill="black" stroke="black" points="518.6,-5493.55 525.19,-5485.26 514.87,-5487.63 518.6,-5493.55"/>
<text text-anchor="start" x="246.45" y="-5624.9" font-family="Times New Roman,serif" font-size="14.00">worked for</text>
</g>
<!-- Entity34&#45;&gt;Entity75 -->
<g id="edge51" class="edge verb">
<title>Entity34&#45;&gt;Entity75</title>
<path fill="none" stroke="black" d="M576.37,-5452.67C649.52,-5405.54 860.5,-5269.61 940.78,-5217.89"/>
<polygon fill="black" stroke="black" points="942.95,-5220.65 949.46,-5212.3 939.16,-5214.77 942.95,-5220.65"/>
<text text-anchor="start" x="697.58" y="-5339.08" font-family="Times New Roman,serif" font-size="14.00">member of</text>
</g>
<!-- Entity64 -->
<g id="node47" class="node entity">
<title>Entity64</title>
<ellipse fill="none" stroke="black" cx="4105.08" cy="-791.65" rx="73.39" ry="18"/>
<text text-anchor="start" x="4056.58" y="-787.95" font-family="Times New Roman,serif" font-size="14.00">madam blavatsky</text>
</g>
<!-- Entity64&#45;&gt;Entity86 -->
<g id="edge52" class="edge verb">
<title>Entity64&#45;&gt;Entity86</title>
<path fill="none" stroke="black" d="M4117.64,-809.49C4172.63,-887.61 4392.41,-1199.81 4457.69,-1292.55"/>
<polygon fill="black" stroke="black" points="4454.9,-1294.67 4463.52,-1300.83 4460.63,-1290.64 4454.9,-1294.67"/>
<text text-anchor="start" x="4246.67" y="-1054.82" font-family="Times New Roman,serif" font-size="14.00">created</text>
</g>
<!-- Entity60 -->
<g id="node56" class="node entity">
<title>Entity60</title>
<ellipse fill="none" stroke="black" cx="4397.95" cy="-661.69" rx="58.49" ry="18"/>
<text text-anchor="start" x="4360.95" y="-657.99" font-family="Times New Roman,serif" font-size="14.00">rudolf steiner</text>
</g>
<!-- Entity60&#45;&gt;Entity86 -->
<g id="edge63" class="edge verb">
<title>Entity60&#45;&gt;Entity86</title>
<path fill="none" stroke="black" d="M4400.13,-679.94C4410.99,-771.3 4459.44,-1178.82 4472.71,-1290.36"/>
<polygon fill="black" stroke="black" points="4469.26,-1290.98 4473.91,-1300.49 4476.21,-1290.15 4469.26,-1290.98"/>
<text text-anchor="start" x="4370.42" y="-988.95" font-family="Times New Roman,serif" font-size="14.00">memberr of</text>
</g>
<!-- Entity93 -->
<g id="node57" class="node entity">
<title>Entity93</title>
<ellipse fill="none" stroke="black" cx="4277.66" cy="-17.52" rx="102.08" ry="18"/>
<text text-anchor="start" x="4207.16" y="-13.82" font-family="Times New Roman,serif" font-size="14.00">anthroposophical society</text>
</g>
<!-- Entity60&#45;&gt;Entity93 -->
<g id="edge60" class="edge verb">
<title>Entity60&#45;&gt;Entity93</title>
<path fill="none" stroke="black" d="M4394.55,-643.45C4377.71,-553.29 4303.38,-155.24 4282.9,-45.57"/>
<polygon fill="black" stroke="black" points="4286.31,-44.79 4281.04,-35.6 4279.43,-46.07 4286.31,-44.79"/>
<text text-anchor="start" x="4297.72" y="-348.31" font-family="Times New Roman,serif" font-size="14.00">created</text>
</g>
<!-- Entity109 -->
<g id="node60" class="node entity">
<title>Entity109</title>
<ellipse fill="none" stroke="black" cx="2706.94" cy="-2362.66" rx="27" ry="18"/>
<text text-anchor="start" x="2703.44" y="-2358.96" font-family="Times New Roman,serif" font-size="14.00">s</text>
</g>
<!-- Entity112 -->
<g id="node61" class="node entity">
<title>Entity112</title>
<ellipse fill="none" stroke="black" cx="2794.66" cy="-2474.64" rx="27" ry="18"/>
<text text-anchor="start" x="2790.66" y="-2470.94" font-family="Times New Roman,serif" font-size="14.00">o</text>
</g>
<!-- Entity109&#45;&gt;Entity112 -->
<g id="edge67" class="edge verb">
<title>Entity109&#45;&gt;Entity112</title>
<path fill="none" stroke="black" d="M2719.51,-2378.7C2734.23,-2397.5 2758.76,-2428.82 2775.78,-2450.53"/>
<polygon fill="black" stroke="black" points="2773.19,-2452.91 2782.11,-2458.62 2778.7,-2448.59 2773.19,-2452.91"/>
<text text-anchor="start" x="2740.64" y="-2418.42" font-family="Times New Roman,serif" font-size="14.00">v</text>
</g>
</g>
</svg>
