<?xml version="1.0" encoding="UTF-8" standalone="no"?>
<?xml-stylesheet href="./styles.css" type="text/css"?>
<!DOCTYPE svg PUBLIC "-//W3C//DTD SVG 1.1//EN"
 "http://www.w3.org/Graphics/SVG/1.1/DTD/svg11.dtd">
<!-- Generated by graphviz version 2.47.3 (20210619.1520)
 -->
<!-- Title: G Pages: 1 -->
<svg width="8111pt" height="4098pt"
 viewBox="0.00 0.00 8111.00 4098.00" xmlns="http://www.w3.org/2000/svg" xmlns:xlink="http://www.w3.org/1999/xlink">
<g id="graph0" class="graph" transform="scale(1 1) rotate(0) translate(4 4094)">
<title>G</title>
<polygon fill="white" stroke="transparent" points="-4,4 -4,-4094 8107,-4094 8107,4 -4,4"/>
<!-- Entity3 -->
<g id="node1" class="node entity">
<title>Entity3</title>
<ellipse fill="none" stroke="black" cx="5770.69" cy="-3197.16" rx="64.19" ry="18"/>
<text text-anchor="start" x="5729.19" y="-3193.46" font-family="Times New Roman,serif" font-size="14.00">john f kennedy</text>
</g>
<!-- Entity22 -->
<g id="node2" class="node entity">
<title>Entity22</title>
<ellipse fill="none" stroke="black" cx="5314.31" cy="-3155.76" rx="27" ry="18"/>
<text text-anchor="start" x="5306.31" y="-3152.06" font-family="Times New Roman,serif" font-size="14.00">cia</text>
</g>
<!-- Entity3&#45;&gt;Entity22 -->
<g id="edge1" class="edge verb">
<title>Entity3&#45;&gt;Entity22</title>
<path fill="none" stroke="black" d="M5709.14,-3191.57C5612.94,-3182.85 5429.84,-3166.24 5351.44,-3159.13"/>
<polygon fill="black" stroke="black" points="5351.37,-3155.6 5341.1,-3158.19 5350.74,-3162.58 5351.37,-3155.6"/>
<text text-anchor="start" x="5426.29" y="-3179.15" font-family="Times New Roman,serif" font-size="14.00">heads (1961&#45;1963)</text>
</g>
<!-- Entity66 -->
<g id="node20" class="node entity">
<title>Entity66</title>
<ellipse fill="none" stroke="black" cx="6169.82" cy="-2881.28" rx="31.4" ry="18"/>
<text text-anchor="start" x="6153.82" y="-2877.58" font-family="Times New Roman,serif" font-size="14.00">potus</text>
</g>
<!-- Entity3&#45;&gt;Entity66 -->
<g id="edge23" class="edge verb">
<title>Entity3&#45;&gt;Entity66</title>
<path fill="none" stroke="black" d="M5792.15,-3180.17C5859.81,-3126.62 6068.62,-2961.37 6143.1,-2902.43"/>
<polygon fill="black" stroke="black" points="6145.42,-2905.05 6151.09,-2896.1 6141.08,-2899.57 6145.42,-2905.05"/>
<text text-anchor="start" x="5880.62" y="-3045.1" font-family="Times New Roman,serif" font-size="14.00">isa (1961&#45;1963)</text>
</g>
<!-- Entity67 -->
<g id="node25" class="node entity">
<title>Entity67</title>
<ellipse fill="none" stroke="black" cx="4584.01" cy="-3266.82" rx="77.19" ry="18"/>
<text text-anchor="start" x="4532.51" y="-3263.12" font-family="Times New Roman,serif" font-size="14.00">psi&#45;consciousness</text>
</g>
<!-- Entity22&#45;&gt;Entity67 -->
<g id="edge43" class="edge verb">
<title>Entity22&#45;&gt;Entity67</title>
<path fill="none" stroke="black" d="M5287.89,-3159.78C5186.36,-3175.22 4819.03,-3231.08 4659.18,-3255.38"/>
<polygon fill="black" stroke="black" points="4658.32,-3251.98 4648.96,-3256.94 4659.37,-3258.9 4658.32,-3251.98"/>
<text text-anchor="start" x="4909.53" y="-3211.38" font-family="Times New Roman,serif" font-size="14.00">investigates</text>
</g>
<!-- Entity90 -->
<g id="node52" class="node entity">
<title>Entity90</title>
<ellipse fill="none" stroke="black" cx="5451.18" cy="-2854" rx="27" ry="18"/>
<text text-anchor="start" x="5441.68" y="-2850.3" font-family="Times New Roman,serif" font-size="14.00">ufo</text>
</g>
<!-- Entity22&#45;&gt;Entity90 -->
<g id="edge62" class="edge verb">
<title>Entity22&#45;&gt;Entity90</title>
<path fill="none" stroke="black" d="M5322.26,-3138.23C5345.17,-3087.71 5411.47,-2941.55 5438.98,-2880.89"/>
<polygon fill="black" stroke="black" points="5442.26,-2882.13 5443.2,-2871.58 5435.89,-2879.24 5442.26,-2882.13"/>
<text text-anchor="start" x="5316.62" y="-3013.36" font-family="Times New Roman,serif" font-size="14.00">investigates</text>
</g>
<!-- Entity14 -->
<g id="node3" class="node entity">
<title>Entity14</title>
<ellipse fill="none" stroke="black" cx="3684.81" cy="-2983.58" rx="74.99" ry="18"/>
<text text-anchor="start" x="3635.31" y="-2979.88" font-family="Times New Roman,serif" font-size="14.00">gene roddenberry</text>
</g>
<!-- Entity8 -->
<g id="node4" class="node entity">
<title>Entity8</title>
<ellipse fill="none" stroke="black" cx="4120.9" cy="-3243.6" rx="38.19" ry="18"/>
<text text-anchor="start" x="4099.4" y="-3239.9" font-family="Times New Roman,serif" font-size="14.00">the nine</text>
</g>
<!-- Entity14&#45;&gt;Entity8 -->
<g id="edge2" class="edge verb">
<title>Entity14&#45;&gt;Entity8</title>
<path fill="none" stroke="black" d="M3713.09,-3000.44C3790.59,-3046.65 4006.07,-3175.13 4088.37,-3224.21"/>
<polygon fill="black" stroke="black" points="4086.67,-3227.27 4097.05,-3229.38 4090.26,-3221.26 4086.67,-3227.27"/>
<text text-anchor="start" x="3796.73" y="-3116.12" font-family="Times New Roman,serif" font-size="14.00">claiemd to channel</text>
</g>
<!-- Entity70 -->
<g id="node23" class="node entity">
<title>Entity70</title>
<ellipse fill="none" stroke="black" cx="4015.56" cy="-3135.54" rx="94.48" ry="18"/>
<text text-anchor="start" x="3951.06" y="-3131.84" font-family="Times New Roman,serif" font-size="14.00">egyptian gods in a ship</text>
</g>
<!-- Entity8&#45;&gt;Entity70 -->
<g id="edge16" class="edge verb">
<title>Entity8&#45;&gt;Entity70</title>
<path fill="none" stroke="black" d="M4104.9,-3227.19C4087.75,-3209.6 4060.31,-3181.45 4040.36,-3160.98"/>
<polygon fill="black" stroke="black" points="4042.61,-3158.27 4033.12,-3153.55 4037.59,-3163.16 4042.61,-3158.27"/>
<text text-anchor="start" x="3968.63" y="-3197.89" font-family="Times New Roman,serif" font-size="14.00">claimed to channel</text>
</g>
<!-- Entity16 -->
<g id="node5" class="node entity">
<title>Entity16</title>
<ellipse fill="none" stroke="black" cx="5600.06" cy="-3089.06" rx="68.49" ry="18"/>
<text text-anchor="start" x="5555.56" y="-3085.36" font-family="Times New Roman,serif" font-size="14.00">george hw bush</text>
</g>
<!-- Entity20 -->
<g id="node6" class="node entity">
<title>Entity20</title>
<ellipse fill="none" stroke="black" cx="5667.82" cy="-2981.08" rx="63.89" ry="18"/>
<text text-anchor="start" x="5626.82" y="-2977.38" font-family="Times New Roman,serif" font-size="14.00">george w bush</text>
</g>
<!-- Entity16&#45;&gt;Entity20 -->
<g id="edge3" class="edge verb">
<title>Entity16&#45;&gt;Entity20</title>
<path fill="none" stroke="black" d="M5611.25,-3071.23C5622.14,-3053.88 5638.81,-3027.31 5651.24,-3007.51"/>
<polygon fill="black" stroke="black" points="5654.26,-3009.27 5656.61,-2998.94 5648.33,-3005.55 5654.26,-3009.27"/>
<text text-anchor="start" x="5599.24" y="-3043.17" font-family="Times New Roman,serif" font-size="14.00">father</text>
</g>
<!-- Entity16&#45;&gt;Entity66 -->
<g id="edge20" class="edge verb">
<title>Entity16&#45;&gt;Entity66</title>
<path fill="none" stroke="black" d="M5640.12,-3074.45C5746.15,-3035.79 6032.83,-2931.24 6133.93,-2894.37"/>
<polygon fill="black" stroke="black" points="6135.21,-2897.63 6143.4,-2890.92 6132.81,-2891.05 6135.21,-2897.63"/>
<text text-anchor="start" x="5871.03" y="-2988.21" font-family="Times New Roman,serif" font-size="14.00">isa</text>
</g>
<!-- Entity20&#45;&gt;Entity66 -->
<g id="edge42" class="edge verb">
<title>Entity20&#45;&gt;Entity66</title>
<path fill="none" stroke="black" d="M5720.12,-2970.68C5820.97,-2950.63 6040.29,-2907.03 6130.18,-2889.16"/>
<polygon fill="black" stroke="black" points="6131.11,-2892.55 6140.24,-2887.16 6129.74,-2885.68 6131.11,-2892.55"/>
<text text-anchor="start" x="5909.15" y="-2933.72" font-family="Times New Roman,serif" font-size="14.00">isa</text>
</g>
<!-- Entity2 -->
<g id="node7" class="node entity">
<title>Entity2</title>
<ellipse fill="none" stroke="black" cx="4407.22" cy="-3460" rx="41.69" ry="18"/>
<text text-anchor="start" x="4383.22" y="-3456.3" font-family="Times New Roman,serif" font-size="14.00">uri geller</text>
</g>
<!-- Entity2&#45;&gt;Entity8 -->
<g id="edge4" class="edge verb">
<title>Entity2&#45;&gt;Entity8</title>
<path fill="none" stroke="black" d="M4386.17,-3444.09C4335.56,-3405.84 4207.02,-3308.69 4149.49,-3265.21"/>
<polygon fill="black" stroke="black" points="4151.3,-3262.19 4141.21,-3258.96 4147.08,-3267.78 4151.3,-3262.19"/>
<text text-anchor="start" x="4163.83" y="-3358.45" font-family="Times New Roman,serif" font-size="14.00">claiemd to channel</text>
</g>
<!-- Entity26 -->
<g id="node8" class="node entity">
<title>Entity26</title>
<ellipse fill="none" stroke="black" cx="1267.52" cy="-4072.25" rx="49.29" ry="18"/>
<text text-anchor="start" x="1237.52" y="-4068.55" font-family="Times New Roman,serif" font-size="14.00">adolf hitler</text>
</g>
<!-- Entity28 -->
<g id="node9" class="node entity">
<title>Entity28</title>
<ellipse fill="none" stroke="black" cx="1567.37" cy="-3805.98" rx="32.49" ry="18"/>
<text text-anchor="start" x="1550.37" y="-3802.28" font-family="Times New Roman,serif" font-size="14.00">nsdap</text>
</g>
<!-- Entity26&#45;&gt;Entity28 -->
<g id="edge5" class="edge verb">
<title>Entity26&#45;&gt;Entity28</title>
<path fill="none" stroke="black" d="M1286.28,-4055.59C1338.2,-4009.49 1483.83,-3880.16 1542.46,-3828.1"/>
<polygon fill="black" stroke="black" points="1544.98,-3830.54 1550.13,-3821.28 1540.33,-3825.31 1544.98,-3830.54"/>
<text text-anchor="start" x="1373.37" y="-3945.65" font-family="Times New Roman,serif" font-size="14.00">created</text>
</g>
<!-- Entity75 -->
<g id="node31" class="node entity">
<title>Entity75</title>
<ellipse fill="none" stroke="black" cx="1115.88" cy="-3858.71" rx="38.99" ry="18"/>
<text text-anchor="start" x="1093.88" y="-3855.01" font-family="Times New Roman,serif" font-size="14.00">far right</text>
</g>
<!-- Entity28&#45;&gt;Entity75 -->
<g id="edge29" class="edge verb">
<title>Entity28&#45;&gt;Entity75</title>
<path fill="none" stroke="black" d="M1535.26,-3809.73C1457.09,-3818.86 1256.51,-3842.28 1163.97,-3853.09"/>
<polygon fill="black" stroke="black" points="1163.29,-3849.65 1153.77,-3854.29 1164.11,-3856.6 1163.29,-3849.65"/>
<text text-anchor="start" x="1288.62" y="-3835.21" font-family="Times New Roman,serif" font-size="14.00">member of</text>
</g>
<!-- Entity15 -->
<g id="node10" class="node entity">
<title>Entity15</title>
<ellipse fill="none" stroke="black" cx="6654.03" cy="-2895.48" rx="59.59" ry="18"/>
<text text-anchor="start" x="6616.03" y="-2891.78" font-family="Times New Roman,serif" font-size="14.00">donald trump</text>
</g>
<!-- Entity48 -->
<g id="node11" class="node entity">
<title>Entity48</title>
<ellipse fill="none" stroke="black" cx="5958.82" cy="-3089.19" rx="50.09" ry="18"/>
<text text-anchor="start" x="5928.32" y="-3085.49" font-family="Times New Roman,serif" font-size="14.00">john trump</text>
</g>
<!-- Entity15&#45;&gt;Entity48 -->
<g id="edge6" class="edge verb">
<title>Entity15&#45;&gt;Entity48</title>
<path fill="none" stroke="black" d="M6610.01,-2907.74C6486.67,-2942.11 6138.23,-3039.2 6008.39,-3075.38"/>
<polygon fill="black" stroke="black" points="6007.39,-3072.02 5998.7,-3078.08 6009.27,-3078.77 6007.39,-3072.02"/>
<text text-anchor="start" x="6309.2" y="-2995.36" font-family="Times New Roman,serif" font-size="14.00">nephew of</text>
</g>
<!-- Entity15&#45;&gt;Entity66 -->
<g id="edge27" class="edge verb">
<title>Entity15&#45;&gt;Entity66</title>
<path fill="none" stroke="black" d="M6594.17,-2893.72C6494.46,-2890.8 6296.86,-2885.01 6211.13,-2882.49"/>
<polygon fill="black" stroke="black" points="6211.09,-2878.99 6201,-2882.19 6210.89,-2885.99 6211.09,-2878.99"/>
<text text-anchor="start" x="6386.65" y="-2891.91" font-family="Times New Roman,serif" font-size="14.00">isa</text>
</g>
<!-- Entity48&#45;&gt;Entity22 -->
<g id="edge10" class="edge verb">
<title>Entity48&#45;&gt;Entity22</title>
<path fill="none" stroke="black" d="M5910.64,-3094.17C5787.19,-3106.92 5461.51,-3140.55 5351.34,-3151.93"/>
<polygon fill="black" stroke="black" points="5350.65,-3148.48 5341.06,-3152.99 5351.37,-3155.45 5350.65,-3148.48"/>
<text text-anchor="start" x="5569.99" y="-3126.85" font-family="Times New Roman,serif" font-size="14.00">member of</text>
</g>
<!-- Entity82 -->
<g id="node41" class="node entity">
<title>Entity82</title>
<ellipse fill="none" stroke="black" cx="5914.25" cy="-3578.43" rx="50.89" ry="18"/>
<text text-anchor="start" x="5883.25" y="-3574.73" font-family="Times New Roman,serif" font-size="14.00">nikola tesla</text>
</g>
<!-- Entity48&#45;&gt;Entity82 -->
<g id="edge40" class="edge verb">
<title>Entity48&#45;&gt;Entity82</title>
<path fill="none" stroke="black" d="M5957.18,-3107.18C5950.46,-3180.9 5925.02,-3460.2 5916.81,-3550.25"/>
<polygon fill="black" stroke="black" points="5913.32,-3550 5915.9,-3560.27 5920.29,-3550.63 5913.32,-3550"/>
<text text-anchor="start" x="5896" y="-3332.52" font-family="Times New Roman,serif" font-size="14.00">studied</text>
</g>
<!-- Entity5 -->
<g id="node12" class="node entity">
<title>Entity5</title>
<ellipse fill="none" stroke="black" cx="3721.01" cy="-3391.97" rx="65.79" ry="18"/>
<text text-anchor="start" x="3678.51" y="-3388.27" font-family="Times New Roman,serif" font-size="14.00">arthur m young</text>
</g>
<!-- Entity5&#45;&gt;Entity8 -->
<g id="edge7" class="edge verb">
<title>Entity5&#45;&gt;Entity8</title>
<path fill="none" stroke="black" d="M3760.08,-3377.47C3836.26,-3349.21 4003.88,-3287.02 4080.84,-3258.47"/>
<polygon fill="black" stroke="black" points="4082.48,-3261.59 4090.64,-3254.83 4080.05,-3255.03 4082.48,-3261.59"/>
<text text-anchor="start" x="3858.46" y="-3321.77" font-family="Times New Roman,serif" font-size="14.00">member&#45;of</text>
</g>
<!-- Entity5&#45;&gt;Entity67 -->
<g id="edge18" class="edge verb">
<title>Entity5&#45;&gt;Entity67</title>
<path fill="none" stroke="black" d="M3779.31,-3383.51C3931.08,-3361.5 4338.37,-3302.44 4508.11,-3277.82"/>
<polygon fill="black" stroke="black" points="4508.82,-3281.26 4518.22,-3276.36 4507.82,-3274.33 4508.82,-3281.26"/>
<text text-anchor="start" x="4102.71" y="-3334.47" font-family="Times New Roman,serif" font-size="14.00">studied</text>
</g>
<!-- Entity72 -->
<g id="node28" class="node entity">
<title>Entity72</title>
<ellipse fill="none" stroke="black" cx="2962.21" cy="-3493.42" rx="53.89" ry="18"/>
<text text-anchor="start" x="2928.71" y="-3489.72" font-family="Times New Roman,serif" font-size="14.00">bell aviation</text>
</g>
<!-- Entity5&#45;&gt;Entity72 -->
<g id="edge24" class="edge verb">
<title>Entity5&#45;&gt;Entity72</title>
<path fill="none" stroke="black" d="M3661.79,-3399.88C3520.57,-3418.77 3165.25,-3466.28 3022.73,-3485.33"/>
<polygon fill="black" stroke="black" points="3021.89,-3481.91 3012.44,-3486.71 3022.82,-3488.85 3021.89,-3481.91"/>
<text text-anchor="start" x="3301.26" y="-3446.41" font-family="Times New Roman,serif" font-size="14.00">created</text>
</g>
<!-- Entity1 -->
<g id="node13" class="node entity">
<title>Entity1</title>
<ellipse fill="none" stroke="black" cx="4611.88" cy="-3569.88" rx="64.19" ry="18"/>
<text text-anchor="start" x="4570.38" y="-3566.18" font-family="Times New Roman,serif" font-size="14.00">andre puharich</text>
</g>
<!-- Entity1&#45;&gt;Entity2 -->
<g id="edge8" class="edge verb">
<title>Entity1&#45;&gt;Entity2</title>
<path fill="none" stroke="black" d="M4582.12,-3553.91C4545.07,-3534.01 4481.87,-3500.08 4442.44,-3478.91"/>
<polygon fill="black" stroke="black" points="4443.91,-3475.73 4433.44,-3474.08 4440.6,-3481.89 4443.91,-3475.73"/>
<text text-anchor="start" x="4452.28" y="-3520.21" font-family="Times New Roman,serif" font-size="14.00">sponsored</text>
</g>
<!-- Entity7 -->
<g id="node14" class="node entity">
<title>Entity7</title>
<ellipse fill="none" stroke="black" cx="4213.99" cy="-3578.23" rx="68.49" ry="18"/>
<text text-anchor="start" x="4169.49" y="-3574.53" font-family="Times New Roman,serif" font-size="14.00">jeffrey mishlove</text>
</g>
<!-- Entity7&#45;&gt;Entity2 -->
<g id="edge9" class="edge verb">
<title>Entity7&#45;&gt;Entity2</title>
<path fill="none" stroke="black" d="M4241.26,-3561.55C4276.32,-3540.09 4337.12,-3502.89 4374.59,-3479.96"/>
<polygon fill="black" stroke="black" points="4376.42,-3482.95 4383.13,-3474.74 4372.77,-3476.98 4376.42,-3482.95"/>
<text text-anchor="start" x="4252.93" y="-3524.55" font-family="Times New Roman,serif" font-size="14.00">promoted</text>
</g>
<!-- Entity7&#45;&gt;Entity67 -->
<g id="edge19" class="edge verb">
<title>Entity7&#45;&gt;Entity67</title>
<path fill="none" stroke="black" d="M4239.38,-3561.42C4307.67,-3509.56 4494.2,-3352.65 4560.39,-3291.49"/>
<polygon fill="black" stroke="black" points="4562.93,-3293.9 4567.85,-3284.51 4558.15,-3288.78 4562.93,-3293.9"/>
<text text-anchor="start" x="4358.89" y="-3430.25" font-family="Times New Roman,serif" font-size="14.00">studied</text>
</g>
<!-- Entity7&#45;&gt;Entity67 -->
<g id="edge26" class="edge verb">
<title>Entity7&#45;&gt;Entity67</title>
<path fill="none" stroke="black" d="M4230.31,-3560.38C4286.64,-3507.08 4473.06,-3349.83 4550.2,-3290.09"/>
<polygon fill="black" stroke="black" points="4552.39,-3292.82 4558.19,-3283.96 4548.12,-3287.27 4552.39,-3292.82"/>
<text text-anchor="start" x="4326.26" y="-3414.04" font-family="Times New Roman,serif" font-size="14.00">investigates</text>
</g>
<!-- Entity30 -->
<g id="node15" class="node entity">
<title>Entity30</title>
<ellipse fill="none" stroke="black" cx="2203.2" cy="-3599.77" rx="74.99" ry="18"/>
<text text-anchor="start" x="2153.7" y="-3596.07" font-family="Times New Roman,serif" font-size="14.00">walter dornberger</text>
</g>
<!-- Entity30&#45;&gt;Entity28 -->
<g id="edge11" class="edge verb">
<title>Entity30&#45;&gt;Entity28</title>
<path fill="none" stroke="black" d="M2158.49,-3614.27C2039.39,-3652.89 1715.99,-3757.78 1605.2,-3793.71"/>
<polygon fill="black" stroke="black" points="1603.89,-3790.45 1595.46,-3796.87 1606.05,-3797.11 1603.89,-3790.45"/>
<text text-anchor="start" x="1820.84" y="-3707.79" font-family="Times New Roman,serif" font-size="14.00">member of</text>
</g>
<!-- Entity30&#45;&gt;Entity72 -->
<g id="edge35" class="edge verb">
<title>Entity30&#45;&gt;Entity72</title>
<path fill="none" stroke="black" d="M2274.15,-3593.99C2424.2,-3576.63 2770.96,-3527.92 2906.5,-3505.02"/>
<polygon fill="black" stroke="black" points="2907.39,-3508.42 2916.65,-3503.28 2906.21,-3501.52 2907.39,-3508.42"/>
<text text-anchor="start" x="2511.33" y="-3553.3" font-family="Times New Roman,serif" font-size="14.00">vice&#45;president</text>
</g>
<!-- Entity30&#45;&gt;Entity72 -->
<g id="edge49" class="edge verb">
<title>Entity30&#45;&gt;Entity72</title>
<path fill="none" stroke="black" d="M2260.03,-3587.99C2398.87,-3564.58 2754.44,-3514.72 2899.34,-3498.28"/>
<polygon fill="black" stroke="black" points="2899.85,-3501.74 2909.4,-3497.15 2899.07,-3494.79 2899.85,-3501.74"/>
<text text-anchor="start" x="2523.69" y="-3531.93" font-family="Times New Roman,serif" font-size="14.00">worked at</text>
</g>
<!-- Entity76 -->
<g id="node35" class="node entity">
<title>Entity76</title>
<ellipse fill="none" stroke="black" cx="1706.38" cy="-3697.97" rx="90.98" ry="18"/>
<text text-anchor="start" x="1644.38" y="-3694.27" font-family="Times New Roman,serif" font-size="14.00">nsdap rocket program</text>
</g>
<!-- Entity30&#45;&gt;Entity76 -->
<g id="edge36" class="edge verb">
<title>Entity30&#45;&gt;Entity76</title>
<path fill="none" stroke="black" d="M2145.23,-3611.22C2054.91,-3629.08 1880.62,-3663.53 1781.02,-3683.21"/>
<polygon fill="black" stroke="black" points="1780.16,-3679.82 1771.03,-3685.19 1781.52,-3686.68 1780.16,-3679.82"/>
<text text-anchor="start" x="1922.13" y="-3651.02" font-family="Times New Roman,serif" font-size="14.00">created</text>
</g>
<!-- Entity104 -->
<g id="node55" class="node entity">
<title>Entity104</title>
<ellipse fill="none" stroke="black" cx="2225.96" cy="-3707.72" rx="65.79" ry="18"/>
<text text-anchor="start" x="2183.46" y="-3704.02" font-family="Times New Roman,serif" font-size="14.00">x series aircraft</text>
</g>
<!-- Entity30&#45;&gt;Entity104 -->
<g id="edge59" class="edge verb">
<title>Entity30&#45;&gt;Entity104</title>
<path fill="none" stroke="black" d="M2207.06,-3618.08C2210.63,-3635.01 2215.98,-3660.41 2220.08,-3679.85"/>
<polygon fill="black" stroke="black" points="2216.67,-3680.61 2222.15,-3689.67 2223.52,-3679.17 2216.67,-3680.61"/>
<text text-anchor="start" x="2172.57" y="-3652.77" font-family="Times New Roman,serif" font-size="14.00">created</text>
</g>
<!-- Entity32 -->
<g id="node16" class="node entity">
<title>Entity32</title>
<ellipse fill="none" stroke="black" cx="1803.42" cy="-3805.89" rx="46.29" ry="18"/>
<text text-anchor="start" x="1775.92" y="-3802.19" font-family="Times New Roman,serif" font-size="14.00">van braun</text>
</g>
<!-- Entity32&#45;&gt;Entity30 -->
<g id="edge12" class="edge verb">
<title>Entity32&#45;&gt;Entity30</title>
<path fill="none" stroke="black" d="M1831.54,-3791.39C1901.1,-3755.53 2081.52,-3662.51 2162.64,-3620.68"/>
<polygon fill="black" stroke="black" points="2164.28,-3623.77 2171.56,-3616.08 2161.07,-3617.55 2164.28,-3623.77"/>
<text text-anchor="start" x="1934.09" y="-3709.84" font-family="Times New Roman,serif" font-size="14.00">worked for</text>
</g>
<!-- Entity32&#45;&gt;Entity76 -->
<g id="edge48" class="edge verb">
<title>Entity32&#45;&gt;Entity76</title>
<path fill="none" stroke="black" d="M1787.83,-3788.55C1772.03,-3770.98 1747.42,-3743.6 1729.38,-3723.54"/>
<polygon fill="black" stroke="black" points="1731.87,-3721.08 1722.58,-3715.98 1726.66,-3725.76 1731.87,-3721.08"/>
<text text-anchor="start" x="1702.61" y="-3759.85" font-family="Times New Roman,serif" font-size="14.00">worked at</text>
</g>
<!-- Entity29 -->
<g id="node17" class="node entity">
<title>Entity29</title>
<ellipse fill="none" stroke="black" cx="6220.97" cy="-3305.48" rx="37.89" ry="18"/>
<text text-anchor="start" x="6199.97" y="-3301.78" font-family="Times New Roman,serif" font-size="14.00">hunt oil</text>
</g>
<!-- Entity36 -->
<g id="node18" class="node entity">
<title>Entity36</title>
<ellipse fill="none" stroke="black" cx="6224.18" cy="-3197.51" rx="77.99" ry="18"/>
<text text-anchor="start" x="6172.18" y="-3193.81" font-family="Times New Roman,serif" font-size="14.00">dwight eisenhower</text>
</g>
<!-- Entity29&#45;&gt;Entity36 -->
<g id="edge13" class="edge verb">
<title>Entity29&#45;&gt;Entity36</title>
<path fill="none" stroke="black" d="M6221.51,-3287.17C6222.01,-3270.31 6222.77,-3245.06 6223.34,-3225.65"/>
<polygon fill="black" stroke="black" points="6226.85,-3225.65 6223.64,-3215.55 6219.85,-3225.44 6226.85,-3225.65"/>
<text text-anchor="start" x="6182.43" y="-3260.21" font-family="Times New Roman,serif" font-size="14.00">funded</text>
</g>
<!-- Entity36&#45;&gt;Entity66 -->
<g id="edge34" class="edge verb">
<title>Entity36&#45;&gt;Entity66</title>
<path fill="none" stroke="black" d="M6221.02,-3179.14C6211.92,-3126.18 6185.58,-2972.93 6174.66,-2909.39"/>
<polygon fill="black" stroke="black" points="6178.07,-2908.57 6172.92,-2899.31 6171.17,-2909.75 6178.07,-2908.57"/>
<text text-anchor="start" x="6178.84" y="-3048.07" font-family="Times New Roman,serif" font-size="14.00">is a</text>
</g>
<!-- Entity11 -->
<g id="node19" class="node entity">
<title>Entity11</title>
<ellipse fill="none" stroke="black" cx="6639.1" cy="-3050.56" rx="56.59" ry="18"/>
<text text-anchor="start" x="6603.6" y="-3046.86" font-family="Times New Roman,serif" font-size="14.00">harry truman</text>
</g>
<!-- Entity11&#45;&gt;Entity66 -->
<g id="edge14" class="edge verb">
<title>Entity11&#45;&gt;Entity66</title>
<path fill="none" stroke="black" d="M6601.49,-3036.99C6513.01,-3005.07 6292.61,-2925.57 6205.79,-2894.25"/>
<polygon fill="black" stroke="black" points="6206.95,-2890.95 6196.36,-2890.85 6204.58,-2897.54 6206.95,-2890.95"/>
<text text-anchor="start" x="6387.64" y="-2969.42" font-family="Times New Roman,serif" font-size="14.00">isa</text>
</g>
<!-- Entity69 -->
<g id="node24" class="node entity">
<title>Entity69</title>
<ellipse fill="none" stroke="black" cx="7096.88" cy="-3294.19" rx="55.79" ry="18"/>
<text text-anchor="start" x="7061.88" y="-3290.49" font-family="Times New Roman,serif" font-size="14.00">freemasonry</text>
</g>
<!-- Entity11&#45;&gt;Entity69 -->
<g id="edge17" class="edge verb">
<title>Entity11&#45;&gt;Entity69</title>
<path fill="none" stroke="black" d="M6668.43,-3066.17C6748.29,-3108.67 6969.57,-3226.44 7058.83,-3273.94"/>
<polygon fill="black" stroke="black" points="7057.32,-3277.1 7067.79,-3278.71 7060.61,-3270.92 7057.32,-3277.1"/>
<text text-anchor="start" x="6802.63" y="-3173.85" font-family="Times New Roman,serif" font-size="14.00">member of</text>
</g>
<!-- Entity63 -->
<g id="node21" class="node entity">
<title>Entity63</title>
<ellipse fill="none" stroke="black" cx="6985.85" cy="-3767.73" rx="53.89" ry="18"/>
<text text-anchor="start" x="6952.35" y="-3764.03" font-family="Times New Roman,serif" font-size="14.00">edgar casey</text>
</g>
<!-- Entity59 -->
<g id="node22" class="node entity">
<title>Entity59</title>
<ellipse fill="none" stroke="black" cx="6670.39" cy="-3286.64" rx="71.49" ry="18"/>
<text text-anchor="start" x="6623.39" y="-3282.94" font-family="Times New Roman,serif" font-size="14.00">woodrow wilson</text>
</g>
<!-- Entity63&#45;&gt;Entity59 -->
<g id="edge15" class="edge verb">
<title>Entity63&#45;&gt;Entity59</title>
<path fill="none" stroke="black" d="M6974.24,-3750.03C6926.47,-3677.17 6744.79,-3400.11 6687.68,-3313.01"/>
<polygon fill="black" stroke="black" points="6690.51,-3310.94 6682.1,-3304.49 6684.65,-3314.78 6690.51,-3310.94"/>
<text text-anchor="start" x="6788.96" y="-3535.32" font-family="Times New Roman,serif" font-size="14.00">advises</text>
</g>
<!-- Entity59&#45;&gt;Entity66 -->
<g id="edge30" class="edge verb">
<title>Entity59&#45;&gt;Entity66</title>
<path fill="none" stroke="black" d="M6648.88,-3269.22C6568.21,-3203.89 6283.77,-2973.55 6195.89,-2902.39"/>
<polygon fill="black" stroke="black" points="6197.98,-2899.58 6188.01,-2896.01 6193.58,-2905.02 6197.98,-2899.58"/>
<text text-anchor="start" x="6406.38" y="-3089.6" font-family="Times New Roman,serif" font-size="14.00">isa</text>
</g>
<!-- Entity92 -->
<g id="node50" class="node entity">
<title>Entity92</title>
<ellipse fill="none" stroke="black" cx="6683.28" cy="-3394.55" rx="71.49" ry="18"/>
<text text-anchor="start" x="6636.28" y="-3390.85" font-family="Times New Roman,serif" font-size="14.00">leauge of nations</text>
</g>
<!-- Entity59&#45;&gt;Entity92 -->
<g id="edge54" class="edge verb">
<title>Entity59&#45;&gt;Entity92</title>
<path fill="none" stroke="black" d="M6672.57,-3304.95C6674.59,-3321.79 6677.6,-3347.03 6679.92,-3366.43"/>
<polygon fill="black" stroke="black" points="6676.46,-3367 6681.12,-3376.52 6683.41,-3366.17 6676.46,-3367"/>
<text text-anchor="start" x="6635.25" y="-3339.49" font-family="Times New Roman,serif" font-size="14.00">created</text>
</g>
<!-- Entity18 -->
<g id="node26" class="node entity">
<title>Entity18</title>
<ellipse fill="none" stroke="black" cx="6298.03" cy="-2551.56" rx="35.19" ry="18"/>
<text text-anchor="start" x="6279.03" y="-2547.86" font-family="Times New Roman,serif" font-size="14.00">obama</text>
</g>
<!-- Entity18&#45;&gt;Entity66 -->
<g id="edge21" class="edge verb">
<title>Entity18&#45;&gt;Entity66</title>
<path fill="none" stroke="black" d="M6291.14,-2569.28C6270.01,-2623.63 6206.03,-2788.17 6180.51,-2853.81"/>
<polygon fill="black" stroke="black" points="6177.11,-2852.88 6176.75,-2863.46 6183.64,-2855.41 6177.11,-2852.88"/>
<text text-anchor="start" x="6219.82" y="-2715.35" font-family="Times New Roman,serif" font-size="14.00">isa</text>
</g>
<!-- Entity12 -->
<g id="node27" class="node entity">
<title>Entity12</title>
<ellipse fill="none" stroke="black" cx="6294.04" cy="-2989.3" rx="58.49" ry="18"/>
<text text-anchor="start" x="6257.04" y="-2985.6" font-family="Times New Roman,serif" font-size="14.00">richard nixon</text>
</g>
<!-- Entity12&#45;&gt;Entity66 -->
<g id="edge22" class="edge verb">
<title>Entity12&#45;&gt;Entity66</title>
<path fill="none" stroke="black" d="M6274.36,-2972.18C6252.94,-2953.56 6218.63,-2923.72 6195.2,-2903.35"/>
<polygon fill="black" stroke="black" points="6197.25,-2900.49 6187.41,-2896.57 6192.66,-2905.77 6197.25,-2900.49"/>
<text text-anchor="start" x="6218.78" y="-2941.56" font-family="Times New Roman,serif" font-size="14.00">isa</text>
</g>
<!-- Entity24 -->
<g id="node29" class="node entity">
<title>Entity24</title>
<ellipse fill="none" stroke="black" cx="4241.37" cy="-3686.24" rx="63.89" ry="18"/>
<text text-anchor="start" x="4200.37" y="-3682.54" font-family="Times New Roman,serif" font-size="14.00">robert bigelow</text>
</g>
<!-- Entity24&#45;&gt;Entity7 -->
<g id="edge25" class="edge verb">
<title>Entity24&#45;&gt;Entity7</title>
<path fill="none" stroke="black" d="M4236.72,-3667.92C4232.43,-3650.98 4225.99,-3625.57 4221.06,-3606.11"/>
<polygon fill="black" stroke="black" points="4224.41,-3605.12 4218.56,-3596.29 4217.63,-3606.84 4224.41,-3605.12"/>
<text text-anchor="start" x="4196.89" y="-3640.82" font-family="Times New Roman,serif" font-size="14.00">funds</text>
</g>
<!-- Entity24&#45;&gt;Entity67 -->
<g id="edge45" class="edge verb">
<title>Entity24&#45;&gt;Entity67</title>
<path fill="none" stroke="black" d="M4255.87,-3668.49C4309.82,-3602.44 4499.08,-3370.77 4562.85,-3292.72"/>
<polygon fill="black" stroke="black" points="4565.69,-3294.77 4569.31,-3284.81 4560.27,-3290.34 4565.69,-3294.77"/>
<text text-anchor="start" x="4345.36" y="-3484.4" font-family="Times New Roman,serif" font-size="14.00">investigates</text>
</g>
<!-- Entity44 -->
<g id="node30" class="node entity">
<title>Entity44</title>
<ellipse fill="none" stroke="black" cx="7421.45" cy="-2787.2" rx="58.49" ry="18"/>
<text text-anchor="start" x="7384.45" y="-2783.5" font-family="Times New Roman,serif" font-size="14.00">steve bannon</text>
</g>
<!-- Entity44&#45;&gt;Entity15 -->
<g id="edge28" class="edge verb">
<title>Entity44&#45;&gt;Entity15</title>
<path fill="none" stroke="black" d="M7364.5,-2791.46C7222.98,-2807.4 6856.47,-2859.09 6712.92,-2883.31"/>
<polygon fill="black" stroke="black" points="6712.24,-2879.87 6702.97,-2885.01 6713.42,-2886.77 6712.24,-2879.87"/>
<text text-anchor="start" x="6983.71" y="-2841.19" font-family="Times New Roman,serif" font-size="14.00">promoted</text>
</g>
<!-- Entity44&#45;&gt;Entity15 -->
<g id="edge64" class="edge verb">
<title>Entity44&#45;&gt;Entity15</title>
<path fill="none" stroke="black" d="M7373.35,-2797.53C7241.71,-2820.28 6875.22,-2872.17 6722.35,-2889.92"/>
<polygon fill="black" stroke="black" points="6721.69,-2886.47 6712.16,-2891.09 6722.49,-2893.42 6721.69,-2886.47"/>
<text text-anchor="start" x="7047.85" y="-2847.52" font-family="Times New Roman,serif" font-size="14.00">advises</text>
</g>
<!-- Entity83 -->
<g id="node40" class="node entity">
<title>Entity83</title>
<ellipse fill="none" stroke="black" cx="7585.83" cy="-2257.02" rx="61.99" ry="18"/>
<text text-anchor="start" x="7546.33" y="-2253.32" font-family="Times New Roman,serif" font-size="14.00">breitbart news</text>
</g>
<!-- Entity44&#45;&gt;Entity83 -->
<g id="edge46" class="edge verb">
<title>Entity44&#45;&gt;Entity83</title>
<path fill="none" stroke="black" d="M7427.01,-2769.26C7451.26,-2691.06 7547.78,-2379.74 7577.25,-2284.71"/>
<polygon fill="black" stroke="black" points="7580.65,-2285.55 7580.27,-2274.96 7573.96,-2283.47 7580.65,-2285.55"/>
<text text-anchor="start" x="7461.13" y="-2530.78" font-family="Times New Roman,serif" font-size="14.00">created</text>
</g>
<!-- Entity89 -->
<g id="node49" class="node entity">
<title>Entity89</title>
<ellipse fill="none" stroke="black" cx="7838.51" cy="-2939.38" rx="35.19" ry="18"/>
<text text-anchor="start" x="7819.51" y="-2935.68" font-family="Times New Roman,serif" font-size="14.00">gurgev</text>
</g>
<!-- Entity44&#45;&gt;Entity89 -->
<g id="edge53" class="edge verb">
<title>Entity44&#45;&gt;Entity89</title>
<path fill="none" stroke="black" d="M7459.19,-2800.98C7538.22,-2829.81 7720.36,-2896.27 7800.02,-2925.34"/>
<polygon fill="black" stroke="black" points="7799.07,-2928.72 7809.67,-2928.86 7801.47,-2922.14 7799.07,-2928.72"/>
<text text-anchor="start" x="7588.61" y="-2866.96" font-family="Times New Roman,serif" font-size="14.00">studied</text>
</g>
<!-- Entity91 -->
<g id="node51" class="node entity">
<title>Entity91</title>
<ellipse fill="none" stroke="black" cx="7762.42" cy="-3110.34" rx="38.19" ry="18"/>
<text text-anchor="start" x="7740.92" y="-3106.64" font-family="Times New Roman,serif" font-size="14.00">us navy</text>
</g>
<!-- Entity44&#45;&gt;Entity91 -->
<g id="edge55" class="edge verb">
<title>Entity44&#45;&gt;Entity91</title>
<path fill="none" stroke="black" d="M7439.78,-2804.58C7497.07,-2858.87 7672.79,-3025.4 7737.86,-3087.06"/>
<polygon fill="black" stroke="black" points="7735.56,-3089.71 7745.23,-3094.05 7740.38,-3084.63 7735.56,-3089.71"/>
<text text-anchor="start" x="7527.82" y="-2949.62" font-family="Times New Roman,serif" font-size="14.00">member of</text>
</g>
<!-- Entity94 -->
<g id="node53" class="node entity">
<title>Entity94</title>
<ellipse fill="none" stroke="black" cx="7857.45" cy="-2527.22" rx="53.09" ry="18"/>
<text text-anchor="start" x="7824.45" y="-2523.52" font-family="Times New Roman,serif" font-size="14.00">biosphere 2</text>
</g>
<!-- Entity44&#45;&gt;Entity94 -->
<g id="edge57" class="edge verb">
<title>Entity44&#45;&gt;Entity94</title>
<path fill="none" stroke="black" d="M7448.39,-2771.14C7523.9,-2726.11 7737.53,-2598.72 7822.23,-2548.22"/>
<polygon fill="black" stroke="black" points="7824.16,-2551.14 7830.96,-2543.01 7820.58,-2545.13 7824.16,-2551.14"/>
<text text-anchor="start" x="7594.31" y="-2663.48" font-family="Times New Roman,serif" font-size="14.00">created</text>
</g>
<!-- Entity107 -->
<g id="node58" class="node entity">
<title>Entity107</title>
<ellipse fill="none" stroke="black" cx="8025.29" cy="-2643.84" rx="77.19" ry="18"/>
<text text-anchor="start" x="7973.79" y="-2640.14" font-family="Times New Roman,serif" font-size="14.00">hollywood movies</text>
</g>
<!-- Entity44&#45;&gt;Entity107 -->
<g id="edge61" class="edge verb">
<title>Entity44&#45;&gt;Entity107</title>
<path fill="none" stroke="black" d="M7467.83,-2776.19C7574.74,-2750.81 7838.67,-2688.15 7961.06,-2659.09"/>
<polygon fill="black" stroke="black" points="7962.12,-2662.43 7971.04,-2656.72 7960.5,-2655.62 7962.12,-2662.43"/>
<text text-anchor="start" x="7659.44" y="-2721.44" font-family="Times New Roman,serif" font-size="14.00">produced</text>
</g>
<!-- Entity111 -->
<g id="node59" class="node entity">
<title>Entity111</title>
<ellipse fill="none" stroke="black" cx="8006.06" cy="-2831.38" rx="64.99" ry="18"/>
<text text-anchor="start" x="7964.06" y="-2827.68" font-family="Times New Roman,serif" font-size="14.00">goldman sachs</text>
</g>
<!-- Entity44&#45;&gt;Entity111 -->
<g id="edge66" class="edge verb">
<title>Entity44&#45;&gt;Entity111</title>
<path fill="none" stroke="black" d="M7478.3,-2791.5C7584.95,-2799.56 7814.87,-2816.93 7932.89,-2825.85"/>
<polygon fill="black" stroke="black" points="7932.68,-2829.35 7942.92,-2826.61 7933.21,-2822.37 7932.68,-2829.35"/>
<text text-anchor="start" x="7642.6" y="-2812.48" font-family="Times New Roman,serif" font-size="14.00">worked for</text>
</g>
<!-- Entity33 -->
<g id="node32" class="node entity">
<title>Entity33</title>
<ellipse fill="none" stroke="black" cx="2489.9" cy="-3491.82" rx="57.69" ry="18"/>
<text text-anchor="start" x="2453.4" y="-3488.12" font-family="Times New Roman,serif" font-size="14.00">michael pane</text>
</g>
<!-- Entity33&#45;&gt;Entity30 -->
<g id="edge47" class="edge verb">
<title>Entity33&#45;&gt;Entity30</title>
<path fill="none" stroke="black" d="M2453.01,-3505.71C2402.11,-3524.87 2310.2,-3559.48 2253.17,-3580.95"/>
<polygon fill="black" stroke="black" points="2251.77,-3577.74 2243.64,-3584.54 2254.24,-3584.29 2251.77,-3577.74"/>
<text text-anchor="start" x="2290.09" y="-3547.13" font-family="Times New Roman,serif" font-size="14.00">worked for</text>
</g>
<!-- Entity33&#45;&gt;Entity72 -->
<g id="edge31" class="edge verb">
<title>Entity33&#45;&gt;Entity72</title>
<path fill="none" stroke="black" d="M2547.82,-3492.02C2636.61,-3492.32 2805.8,-3492.89 2898.15,-3493.21"/>
<polygon fill="black" stroke="black" points="2898.19,-3496.71 2908.21,-3493.24 2898.22,-3489.71 2898.19,-3496.71"/>
<text text-anchor="start" x="2666.98" y="-3496.41" font-family="Times New Roman,serif" font-size="14.00">worked at</text>
</g>
<!-- Entity45 -->
<g id="node33" class="node entity">
<title>Entity45</title>
<ellipse fill="none" stroke="black" cx="6224.12" cy="-2237.46" rx="67.69" ry="18"/>
<text text-anchor="start" x="6180.12" y="-2233.76" font-family="Times New Roman,serif" font-size="14.00">abraham lincoln</text>
</g>
<!-- Entity45&#45;&gt;Entity66 -->
<g id="edge32" class="edge verb">
<title>Entity45&#45;&gt;Entity66</title>
<path fill="none" stroke="black" d="M6222.58,-2255.69C6214.99,-2345.8 6181.43,-2743.64 6172.19,-2853.24"/>
<polygon fill="black" stroke="black" points="6168.7,-2852.95 6171.35,-2863.21 6175.68,-2853.54 6168.7,-2852.95"/>
<text text-anchor="start" x="6181.39" y="-2558.27" font-family="Times New Roman,serif" font-size="14.00">isa</text>
</g>
<!-- Entity38 -->
<g id="node34" class="node entity">
<title>Entity38</title>
<ellipse fill="none" stroke="black" cx="6288.51" cy="-1413.69" rx="90.98" ry="18"/>
<text text-anchor="start" x="6226.51" y="-1409.99" font-family="Times New Roman,serif" font-size="14.00">emma hardinge&#45;britten</text>
</g>
<!-- Entity38&#45;&gt;Entity45 -->
<g id="edge33" class="edge verb">
<title>Entity38&#45;&gt;Entity45</title>
<path fill="none" stroke="black" d="M6287.08,-1432.05C6278.74,-1538.73 6236.54,-2078.64 6226.34,-2209.07"/>
<polygon fill="black" stroke="black" points="6222.82,-2209.17 6225.53,-2219.41 6229.8,-2209.71 6222.82,-2209.17"/>
<text text-anchor="start" x="6157.71" y="-1824.36" font-family="Times New Roman,serif" font-size="14.00">spokesperson for</text>
</g>
<!-- Entity79 -->
<g id="node38" class="node entity">
<title>Entity79</title>
<ellipse fill="none" stroke="black" cx="6405.82" cy="-872.8" rx="39.79" ry="18"/>
<text text-anchor="start" x="6383.32" y="-869.1" font-family="Times New Roman,serif" font-size="14.00">medium</text>
</g>
<!-- Entity38&#45;&gt;Entity79 -->
<g id="edge38" class="edge verb">
<title>Entity38&#45;&gt;Entity79</title>
<path fill="none" stroke="black" d="M6292.41,-1395.69C6309.62,-1316.36 6378.76,-997.54 6399.75,-900.78"/>
<polygon fill="black" stroke="black" points="6403.2,-901.37 6401.9,-890.86 6396.36,-899.89 6403.2,-901.37"/>
<text text-anchor="start" x="6330.08" y="-1152.04" font-family="Times New Roman,serif" font-size="14.00">isa</text>
</g>
<!-- Entity86 -->
<g id="node48" class="node entity">
<title>Entity86</title>
<ellipse fill="none" stroke="black" cx="6035.79" cy="-673.38" rx="85.29" ry="18"/>
<text text-anchor="start" x="5978.29" y="-669.68" font-family="Times New Roman,serif" font-size="14.00">theosophical society</text>
</g>
<!-- Entity38&#45;&gt;Entity86 -->
<g id="edge65" class="edge verb">
<title>Entity38&#45;&gt;Entity86</title>
<path fill="none" stroke="black" d="M6282.26,-1395.39C6248.33,-1295.97 6086.15,-820.89 6045.2,-700.94"/>
<polygon fill="black" stroke="black" points="6048.48,-699.71 6041.93,-691.37 6041.85,-701.97 6048.48,-699.71"/>
<text text-anchor="start" x="6122.73" y="-1051.96" font-family="Times New Roman,serif" font-size="14.00">created</text>
</g>
<!-- Entity99 -->
<g id="node54" class="node entity">
<title>Entity99</title>
<ellipse fill="none" stroke="black" cx="6692.52" cy="-947.36" rx="55.79" ry="18"/>
<text text-anchor="start" x="6657.52" y="-943.66" font-family="Times New Roman,serif" font-size="14.00">orphic circle</text>
</g>
<!-- Entity38&#45;&gt;Entity99 -->
<g id="edge58" class="edge verb">
<title>Entity38&#45;&gt;Entity99</title>
<path fill="none" stroke="black" d="M6304.1,-1395.69C6366.41,-1323.77 6597.71,-1056.79 6670.47,-972.81"/>
<polygon fill="black" stroke="black" points="6673.29,-974.9 6677.2,-965.05 6668,-970.31 6673.29,-974.9"/>
<text text-anchor="start" x="6426.29" y="-1188.05" font-family="Times New Roman,serif" font-size="14.00">member of</text>
</g>
<!-- Entity42 -->
<g id="node36" class="node entity">
<title>Entity42</title>
<ellipse fill="none" stroke="black" cx="4018.94" cy="-1542.66" rx="53.89" ry="18"/>
<text text-anchor="start" x="3985.44" y="-1538.96" font-family="Times New Roman,serif" font-size="14.00">black magic</text>
</g>
<!-- Entity81 -->
<g id="node37" class="node entity">
<title>Entity81</title>
<ellipse fill="none" stroke="black" cx="4106.66" cy="-1654.64" rx="28.7" ry="18"/>
<text text-anchor="start" x="4092.66" y="-1650.94" font-family="Times New Roman,serif" font-size="14.00">x left</text>
</g>
<!-- Entity42&#45;&gt;Entity81 -->
<g id="edge37" class="edge verb">
<title>Entity42&#45;&gt;Entity81</title>
<path fill="none" stroke="black" d="M4032.64,-1560.16C4047.45,-1579.05 4071.14,-1609.29 4087.72,-1630.45"/>
<polygon fill="black" stroke="black" points="4084.98,-1632.64 4093.9,-1638.36 4090.49,-1628.32 4084.98,-1632.64"/>
<text text-anchor="start" x="3999.18" y="-1599.11" font-family="Times New Roman,serif" font-size="14.00">member of</text>
</g>
<!-- Entity47 -->
<g id="node39" class="node entity">
<title>Entity47</title>
<ellipse fill="none" stroke="black" cx="7632.28" cy="-2149.05" rx="69.59" ry="18"/>
<text text-anchor="start" x="7586.78" y="-2145.35" font-family="Times New Roman,serif" font-size="14.00">andrew breitbart</text>
</g>
<!-- Entity47&#45;&gt;Entity83 -->
<g id="edge39" class="edge verb">
<title>Entity47&#45;&gt;Entity83</title>
<path fill="none" stroke="black" d="M7624.4,-2167.36C7617.05,-2184.45 7605.99,-2210.17 7597.59,-2229.68"/>
<polygon fill="black" stroke="black" points="7594.33,-2228.4 7593.59,-2238.97 7600.76,-2231.17 7594.33,-2228.4"/>
<text text-anchor="start" x="7570" y="-2202.32" font-family="Times New Roman,serif" font-size="14.00">created</text>
</g>
<!-- Entity35 -->
<g id="node42" class="node entity">
<title>Entity35</title>
<ellipse fill="none" stroke="black" cx="4614.94" cy="-1542.66" rx="39.79" ry="18"/>
<text text-anchor="start" x="4592.44" y="-1538.96" font-family="Times New Roman,serif" font-size="14.00">crowley</text>
</g>
<!-- Entity80 -->
<g id="node43" class="node entity">
<title>Entity80</title>
<ellipse fill="none" stroke="black" cx="4702.66" cy="-1654.64" rx="38.99" ry="18"/>
<text text-anchor="start" x="4680.66" y="-1650.94" font-family="Times New Roman,serif" font-size="14.00">x magic</text>
</g>
<!-- Entity35&#45;&gt;Entity80 -->
<g id="edge41" class="edge verb">
<title>Entity35&#45;&gt;Entity80</title>
<path fill="none" stroke="black" d="M4628.26,-1559.67C4642.82,-1578.25 4666.28,-1608.2 4682.96,-1629.49"/>
<polygon fill="black" stroke="black" points="4680.29,-1631.76 4689.21,-1637.47 4685.8,-1627.44 4680.29,-1631.76"/>
<text text-anchor="start" x="4594.61" y="-1598.38" font-family="Times New Roman,serif" font-size="14.00">member of</text>
</g>
<!-- Entity19 -->
<g id="node44" class="node entity">
<title>Entity19</title>
<ellipse fill="none" stroke="black" cx="5799.6" cy="-2759.89" rx="31.4" ry="18"/>
<text text-anchor="start" x="5783.6" y="-2756.19" font-family="Times New Roman,serif" font-size="14.00">carter</text>
</g>
<!-- Entity19&#45;&gt;Entity66 -->
<g id="edge44" class="edge verb">
<title>Entity19&#45;&gt;Entity66</title>
<path fill="none" stroke="black" d="M5826.82,-2768.82C5892.21,-2790.26 6058.21,-2844.69 6132.68,-2869.1"/>
<polygon fill="black" stroke="black" points="6131.97,-2872.55 6142.56,-2872.34 6134.15,-2865.9 6131.97,-2872.55"/>
<text text-anchor="start" x="5963.75" y="-2822.76" font-family="Times New Roman,serif" font-size="14.00">isa</text>
</g>
<!-- Entity19&#45;&gt;Entity90 -->
<g id="edge56" class="edge verb">
<title>Entity19&#45;&gt;Entity90</title>
<path fill="none" stroke="black" d="M5771.09,-2767.6C5707.7,-2784.72 5555.28,-2825.89 5486.23,-2844.54"/>
<polygon fill="black" stroke="black" points="5485.02,-2841.24 5476.27,-2847.23 5486.84,-2848 5485.02,-2841.24"/>
<text text-anchor="start" x="5573.66" y="-2809.87" font-family="Times New Roman,serif" font-size="14.00">witnessed</text>
</g>
<!-- Entity27 -->
<g id="node45" class="node entity">
<title>Entity27</title>
<ellipse fill="none" stroke="black" cx="75.78" cy="-4071.45" rx="75.29" ry="18"/>
<text text-anchor="start" x="25.78" y="-4067.75" font-family="Times New Roman,serif" font-size="14.00">lee harvey oswald</text>
</g>
<!-- Entity34 -->
<g id="node46" class="node entity">
<title>Entity34</title>
<ellipse fill="none" stroke="black" cx="624.63" cy="-3953.49" rx="59.29" ry="18"/>
<text text-anchor="start" x="587.13" y="-3949.79" font-family="Times New Roman,serif" font-size="14.00">guy bannister</text>
</g>
<!-- Entity27&#45;&gt;Entity34 -->
<g id="edge50" class="edge verb">
<title>Entity27&#45;&gt;Entity34</title>
<path fill="none" stroke="black" d="M131.93,-4059.38C236.48,-4036.91 459.96,-3988.88 566.21,-3966.04"/>
<polygon fill="black" stroke="black" points="567.07,-3969.44 576.11,-3963.91 565.6,-3962.59 567.07,-3969.44"/>
<text text-anchor="start" x="286.07" y="-4016.51" font-family="Times New Roman,serif" font-size="14.00">worked for</text>
</g>
<!-- Entity34&#45;&gt;Entity75 -->
<g id="edge51" class="edge verb">
<title>Entity34&#45;&gt;Entity75</title>
<path fill="none" stroke="black" d="M674.9,-3943.79C770.59,-3925.33 977.62,-3885.39 1069.88,-3867.58"/>
<polygon fill="black" stroke="black" points="1070.61,-3871.01 1079.77,-3865.68 1069.28,-3864.14 1070.61,-3871.01"/>
<text text-anchor="start" x="811.39" y="-3909.49" font-family="Times New Roman,serif" font-size="14.00">member of</text>
</g>
<!-- Entity64 -->
<g id="node47" class="node entity">
<title>Entity64</title>
<ellipse fill="none" stroke="black" cx="6060.84" cy="-18.46" rx="73.39" ry="18"/>
<text text-anchor="start" x="6012.34" y="-14.76" font-family="Times New Roman,serif" font-size="14.00">madam blavatsky</text>
</g>
<!-- Entity64&#45;&gt;Entity86 -->
<g id="edge52" class="edge verb">
<title>Entity64&#45;&gt;Entity86</title>
<path fill="none" stroke="black" d="M6060.15,-36.66C6056.66,-127.73 6041.12,-533.97 6036.87,-645.17"/>
<polygon fill="black" stroke="black" points="6033.37,-645.14 6036.48,-655.27 6040.36,-645.41 6033.37,-645.14"/>
<text text-anchor="start" x="6007.51" y="-344.71" font-family="Times New Roman,serif" font-size="14.00">created</text>
</g>
<!-- Entity60 -->
<g id="node56" class="node entity">
<title>Entity60</title>
<ellipse fill="none" stroke="black" cx="5454.57" cy="-652.98" rx="58.49" ry="18"/>
<text text-anchor="start" x="5417.57" y="-649.28" font-family="Times New Roman,serif" font-size="14.00">rudolf steiner</text>
</g>
<!-- Entity60&#45;&gt;Entity86 -->
<g id="edge63" class="edge verb">
<title>Entity60&#45;&gt;Entity86</title>
<path fill="none" stroke="black" d="M5512.69,-655.02C5613.22,-658.55 5820.42,-665.82 5941.7,-670.08"/>
<polygon fill="black" stroke="black" points="5941.61,-673.58 5951.72,-670.43 5941.85,-666.58 5941.61,-673.58"/>
<text text-anchor="start" x="5661.2" y="-666.35" font-family="Times New Roman,serif" font-size="14.00">memberr of</text>
</g>
<!-- Entity93 -->
<g id="node57" class="node entity">
<title>Entity93</title>
<ellipse fill="none" stroke="black" cx="5603.02" cy="-544.99" rx="102.08" ry="18"/>
<text text-anchor="start" x="5532.52" y="-541.29" font-family="Times New Roman,serif" font-size="14.00">anthroposophical society</text>
</g>
<!-- Entity60&#45;&gt;Entity93 -->
<g id="edge60" class="edge verb">
<title>Entity60&#45;&gt;Entity93</title>
<path fill="none" stroke="black" d="M5477.44,-636.34C5502.35,-618.22 5542.4,-589.09 5570.56,-568.6"/>
<polygon fill="black" stroke="black" points="5572.86,-571.26 5578.89,-562.54 5568.74,-565.6 5572.86,-571.26"/>
<text text-anchor="start" x="5483" y="-606.27" font-family="Times New Roman,serif" font-size="14.00">created</text>
</g>
<!-- Entity109 -->
<g id="node60" class="node entity">
<title>Entity109</title>
<ellipse fill="none" stroke="black" cx="3991.94" cy="-2152.66" rx="27" ry="18"/>
<text text-anchor="start" x="3988.44" y="-2148.96" font-family="Times New Roman,serif" font-size="14.00">s</text>
</g>
<!-- Entity112 -->
<g id="node61" class="node entity">
<title>Entity112</title>
<ellipse fill="none" stroke="black" cx="4079.66" cy="-2264.64" rx="27" ry="18"/>
<text text-anchor="start" x="4075.66" y="-2260.94" font-family="Times New Roman,serif" font-size="14.00">o</text>
</g>
<!-- Entity109&#45;&gt;Entity112 -->
<g id="edge67" class="edge verb">
<title>Entity109&#45;&gt;Entity112</title>
<path fill="none" stroke="black" d="M4004.51,-2168.7C4019.23,-2187.5 4043.76,-2218.82 4060.78,-2240.53"/>
<polygon fill="black" stroke="black" points="4058.19,-2242.91 4067.11,-2248.62 4063.7,-2238.59 4058.19,-2242.91"/>
<text text-anchor="start" x="4025.64" y="-2208.42" font-family="Times New Roman,serif" font-size="14.00">v</text>
</g>
</g>
</svg>
