<?xml version="1.0" encoding="UTF-8" standalone="no"?>
<?xml-stylesheet href="./styles.css" type="text/css"?>
<!DOCTYPE svg PUBLIC "-//W3C//DTD SVG 1.1//EN"
 "http://www.w3.org/Graphics/SVG/1.1/DTD/svg11.dtd">
<!-- Generated by graphviz version 2.47.3 (20210619.1520)
 -->
<!-- Title: G Pages: 1 -->
<svg width="7788pt" height="4718pt"
 viewBox="0.00 0.00 7788.00 4718.00" xmlns="http://www.w3.org/2000/svg" xmlns:xlink="http://www.w3.org/1999/xlink">
<g id="graph0" class="graph" transform="scale(1 1) rotate(0) translate(4 4714)">
<title>G</title>
<polygon fill="white" stroke="transparent" points="-4,4 -4,-4714 7784,-4714 7784,4 -4,4"/>
<!-- Entity3 -->
<g id="node1" class="node entity">
<title>Entity3</title>
<ellipse fill="none" stroke="black" cx="5468.25" cy="-2893.64" rx="64.19" ry="18"/>
<text text-anchor="start" x="5426.75" y="-2889.94" font-family="Times New Roman,serif" font-size="14.00">john f kennedy</text>
</g>
<!-- Entity22 -->
<g id="node2" class="node entity">
<title>Entity22</title>
<ellipse fill="none" stroke="black" cx="4961.64" cy="-3022.85" rx="27" ry="18"/>
<text text-anchor="start" x="4953.64" y="-3019.15" font-family="Times New Roman,serif" font-size="14.00">cia</text>
</g>
<!-- Entity3&#45;&gt;Entity22 -->
<g id="edge1" class="edge verb">
<title>Entity3&#45;&gt;Entity22</title>
<path fill="none" stroke="black" d="M5420.59,-2905.8C5319.54,-2931.57 5085.76,-2991.2 4996.83,-3013.88"/>
<polygon fill="black" stroke="black" points="4995.79,-3010.53 4986.97,-3016.39 4997.52,-3017.31 4995.79,-3010.53"/>
<text text-anchor="start" x="5104.71" y="-2963.64" font-family="Times New Roman,serif" font-size="14.00">heads (1961&#45;1963)</text>
</g>
<!-- Entity66 -->
<g id="node20" class="node entity">
<title>Entity66</title>
<ellipse fill="none" stroke="black" cx="6011.63" cy="-2803.35" rx="31.4" ry="18"/>
<text text-anchor="start" x="5995.63" y="-2799.65" font-family="Times New Roman,serif" font-size="14.00">potus</text>
</g>
<!-- Entity3&#45;&gt;Entity66 -->
<g id="edge23" class="edge verb">
<title>Entity3&#45;&gt;Entity66</title>
<path fill="none" stroke="black" d="M5523.6,-2884.45C5633.22,-2866.23 5875.63,-2825.95 5971.49,-2810.02"/>
<polygon fill="black" stroke="black" points="5972.34,-2813.43 5981.63,-2808.33 5971.2,-2806.52 5972.34,-2813.43"/>
<text text-anchor="start" x="5660.54" y="-2851.03" font-family="Times New Roman,serif" font-size="14.00">isa (1961&#45;1963)</text>
</g>
<!-- Entity67 -->
<g id="node25" class="node entity">
<title>Entity67</title>
<ellipse fill="none" stroke="black" cx="4170.23" cy="-3090.85" rx="77.19" ry="18"/>
<text text-anchor="start" x="4118.73" y="-3087.15" font-family="Times New Roman,serif" font-size="14.00">psi&#45;consciousness</text>
</g>
<!-- Entity22&#45;&gt;Entity67 -->
<g id="edge43" class="edge verb">
<title>Entity22&#45;&gt;Entity67</title>
<path fill="none" stroke="black" d="M4934.85,-3025.15C4827.83,-3034.35 4428.29,-3068.68 4253.26,-3083.72"/>
<polygon fill="black" stroke="black" points="4252.73,-3080.25 4243.07,-3084.6 4253.33,-3087.23 4252.73,-3080.25"/>
<text text-anchor="start" x="4530.06" y="-3058.24" font-family="Times New Roman,serif" font-size="14.00">investigates</text>
</g>
<!-- Entity90 -->
<g id="node52" class="node entity">
<title>Entity90</title>
<ellipse fill="none" stroke="black" cx="5216" cy="-2785.62" rx="27" ry="18"/>
<text text-anchor="start" x="5206.5" y="-2781.92" font-family="Times New Roman,serif" font-size="14.00">ufo</text>
</g>
<!-- Entity22&#45;&gt;Entity90 -->
<g id="edge62" class="edge verb">
<title>Entity22&#45;&gt;Entity90</title>
<path fill="none" stroke="black" d="M4977.55,-3008.01C5020.91,-2967.57 5141.32,-2855.27 5192.5,-2807.54"/>
<polygon fill="black" stroke="black" points="5195.17,-2809.83 5200.1,-2800.45 5190.4,-2804.72 5195.17,-2809.83"/>
<text text-anchor="start" x="5021.02" y="-2911.58" font-family="Times New Roman,serif" font-size="14.00">investigates</text>
</g>
<!-- Entity14 -->
<g id="node3" class="node entity">
<title>Entity14</title>
<ellipse fill="none" stroke="black" cx="3692.98" cy="-3276.01" rx="74.99" ry="18"/>
<text text-anchor="start" x="3643.48" y="-3272.31" font-family="Times New Roman,serif" font-size="14.00">gene roddenberry</text>
</g>
<!-- Entity8 -->
<g id="node4" class="node entity">
<title>Entity8</title>
<ellipse fill="none" stroke="black" cx="3583.66" cy="-3167.96" rx="38.19" ry="18"/>
<text text-anchor="start" x="3562.16" y="-3164.26" font-family="Times New Roman,serif" font-size="14.00">the nine</text>
</g>
<!-- Entity14&#45;&gt;Entity8 -->
<g id="edge2" class="edge verb">
<title>Entity14&#45;&gt;Entity8</title>
<path fill="none" stroke="black" d="M3674.93,-3258.17C3656.54,-3239.99 3627.91,-3211.7 3607.63,-3191.65"/>
<polygon fill="black" stroke="black" points="3609.88,-3188.95 3600.31,-3184.41 3604.96,-3193.93 3609.88,-3188.95"/>
<text text-anchor="start" x="3537.28" y="-3228.71" font-family="Times New Roman,serif" font-size="14.00">claiemd to channel</text>
</g>
<!-- Entity70 -->
<g id="node23" class="node entity">
<title>Entity70</title>
<ellipse fill="none" stroke="black" cx="3330.96" cy="-3665.71" rx="94.48" ry="18"/>
<text text-anchor="start" x="3266.46" y="-3662.01" font-family="Times New Roman,serif" font-size="14.00">egyptian gods in a ship</text>
</g>
<!-- Entity8&#45;&gt;Entity70 -->
<g id="edge16" class="edge verb">
<title>Entity8&#45;&gt;Entity70</title>
<path fill="none" stroke="black" d="M3574.67,-3185.67C3536.83,-3260.2 3390.45,-3548.54 3344.7,-3638.64"/>
<polygon fill="black" stroke="black" points="3341.52,-3637.18 3340.11,-3647.68 3347.76,-3640.35 3341.52,-3637.18"/>
<text text-anchor="start" x="3355.68" y="-3415.96" font-family="Times New Roman,serif" font-size="14.00">claimed to channel</text>
</g>
<!-- Entity16 -->
<g id="node5" class="node entity">
<title>Entity16</title>
<ellipse fill="none" stroke="black" cx="6426.33" cy="-2671.94" rx="68.49" ry="18"/>
<text text-anchor="start" x="6381.83" y="-2668.24" font-family="Times New Roman,serif" font-size="14.00">george hw bush</text>
</g>
<!-- Entity20 -->
<g id="node6" class="node entity">
<title>Entity20</title>
<ellipse fill="none" stroke="black" cx="6438.05" cy="-2779.91" rx="63.89" ry="18"/>
<text text-anchor="start" x="6397.05" y="-2776.21" font-family="Times New Roman,serif" font-size="14.00">george w bush</text>
</g>
<!-- Entity16&#45;&gt;Entity20 -->
<g id="edge3" class="edge verb">
<title>Entity16&#45;&gt;Entity20</title>
<path fill="none" stroke="black" d="M6428.32,-2690.25C6430.15,-2707.11 6432.89,-2732.36 6435,-2751.77"/>
<polygon fill="black" stroke="black" points="6431.54,-2752.3 6436.09,-2761.86 6438.5,-2751.55 6431.54,-2752.3"/>
<text text-anchor="start" x="6399.66" y="-2724.81" font-family="Times New Roman,serif" font-size="14.00">father</text>
</g>
<!-- Entity16&#45;&gt;Entity66 -->
<g id="edge20" class="edge verb">
<title>Entity16&#45;&gt;Entity66</title>
<path fill="none" stroke="black" d="M6382.34,-2685.87C6300.35,-2711.86 6125.54,-2767.25 6048.92,-2791.53"/>
<polygon fill="black" stroke="black" points="6047.69,-2788.25 6039.21,-2794.61 6049.8,-2794.92 6047.69,-2788.25"/>
<text text-anchor="start" x="6199.63" y="-2742.5" font-family="Times New Roman,serif" font-size="14.00">isa</text>
</g>
<!-- Entity20&#45;&gt;Entity66 -->
<g id="edge42" class="edge verb">
<title>Entity20&#45;&gt;Entity66</title>
<path fill="none" stroke="black" d="M6375.13,-2783.37C6286.63,-2788.23 6127.82,-2796.96 6052.89,-2801.08"/>
<polygon fill="black" stroke="black" points="6052.69,-2797.59 6042.9,-2801.63 6053.07,-2804.58 6052.69,-2797.59"/>
<text text-anchor="start" x="6198.01" y="-2796.03" font-family="Times New Roman,serif" font-size="14.00">isa</text>
</g>
<!-- Entity2 -->
<g id="node7" class="node entity">
<title>Entity2</title>
<ellipse fill="none" stroke="black" cx="3265.98" cy="-2870.06" rx="41.69" ry="18"/>
<text text-anchor="start" x="3241.98" y="-2866.36" font-family="Times New Roman,serif" font-size="14.00">uri geller</text>
</g>
<!-- Entity2&#45;&gt;Entity8 -->
<g id="edge4" class="edge verb">
<title>Entity2&#45;&gt;Entity8</title>
<path fill="none" stroke="black" d="M3283.51,-2886.5C3336.78,-2936.44 3496.83,-3086.53 3558.79,-3144.63"/>
<polygon fill="black" stroke="black" points="3556.5,-3147.28 3566.18,-3151.57 3561.28,-3142.18 3556.5,-3147.28"/>
<text text-anchor="start" x="3317.15" y="-3019.37" font-family="Times New Roman,serif" font-size="14.00">claiemd to channel</text>
</g>
<!-- Entity26 -->
<g id="node8" class="node entity">
<title>Entity26</title>
<ellipse fill="none" stroke="black" cx="1018.12" cy="-3973.54" rx="49.29" ry="18"/>
<text text-anchor="start" x="988.12" y="-3969.84" font-family="Times New Roman,serif" font-size="14.00">adolf hitler</text>
</g>
<!-- Entity28 -->
<g id="node9" class="node entity">
<title>Entity28</title>
<ellipse fill="none" stroke="black" cx="1416.33" cy="-3993.07" rx="32.49" ry="18"/>
<text text-anchor="start" x="1399.33" y="-3989.37" font-family="Times New Roman,serif" font-size="14.00">nsdap</text>
</g>
<!-- Entity26&#45;&gt;Entity28 -->
<g id="edge5" class="edge verb">
<title>Entity26&#45;&gt;Entity28</title>
<path fill="none" stroke="black" d="M1067.35,-3975.96C1146.09,-3979.82 1299.05,-3987.32 1373.53,-3990.97"/>
<polygon fill="black" stroke="black" points="1373.77,-3994.49 1383.93,-3991.48 1374.11,-3987.5 1373.77,-3994.49"/>
<text text-anchor="start" x="1179.44" y="-3987.26" font-family="Times New Roman,serif" font-size="14.00">created</text>
</g>
<!-- Entity75 -->
<g id="node31" class="node entity">
<title>Entity75</title>
<ellipse fill="none" stroke="black" cx="1028.22" cy="-4225.65" rx="38.99" ry="18"/>
<text text-anchor="start" x="1006.22" y="-4221.95" font-family="Times New Roman,serif" font-size="14.00">far right</text>
</g>
<!-- Entity28&#45;&gt;Entity75 -->
<g id="edge29" class="edge verb">
<title>Entity28&#45;&gt;Entity75</title>
<path fill="none" stroke="black" d="M1394.07,-4006.41C1328.91,-4045.46 1138.31,-4159.68 1061.18,-4205.9"/>
<polygon fill="black" stroke="black" points="1059.14,-4203.05 1052.36,-4211.19 1062.73,-4209.05 1059.14,-4203.05"/>
<text text-anchor="start" x="1166.63" y="-4109.95" font-family="Times New Roman,serif" font-size="14.00">member of</text>
</g>
<!-- Entity15 -->
<g id="node10" class="node entity">
<title>Entity15</title>
<ellipse fill="none" stroke="black" cx="6343.72" cy="-3048.65" rx="59.59" ry="18"/>
<text text-anchor="start" x="6305.72" y="-3044.95" font-family="Times New Roman,serif" font-size="14.00">donald trump</text>
</g>
<!-- Entity48 -->
<g id="node11" class="node entity">
<title>Entity48</title>
<ellipse fill="none" stroke="black" cx="5574.27" cy="-3085.27" rx="50.09" ry="18"/>
<text text-anchor="start" x="5543.77" y="-3081.57" font-family="Times New Roman,serif" font-size="14.00">john trump</text>
</g>
<!-- Entity15&#45;&gt;Entity48 -->
<g id="edge6" class="edge verb">
<title>Entity15&#45;&gt;Entity48</title>
<path fill="none" stroke="black" d="M6284.62,-3051.46C6141.63,-3058.27 5778.2,-3075.57 5634.28,-3082.42"/>
<polygon fill="black" stroke="black" points="5633.71,-3078.94 5623.89,-3082.91 5634.05,-3085.93 5633.71,-3078.94"/>
<text text-anchor="start" x="5900.45" y="-3070.74" font-family="Times New Roman,serif" font-size="14.00">nephew of</text>
</g>
<!-- Entity15&#45;&gt;Entity66 -->
<g id="edge27" class="edge verb">
<title>Entity15&#45;&gt;Entity66</title>
<path fill="none" stroke="black" d="M6320.89,-3031.79C6261.71,-2988.07 6103.47,-2871.19 6039.26,-2823.76"/>
<polygon fill="black" stroke="black" points="6041.32,-2820.94 6031.2,-2817.81 6037.17,-2826.57 6041.32,-2820.94"/>
<text text-anchor="start" x="6164.08" y="-2931.58" font-family="Times New Roman,serif" font-size="14.00">isa</text>
</g>
<!-- Entity48&#45;&gt;Entity22 -->
<g id="edge10" class="edge verb">
<title>Entity48&#45;&gt;Entity22</title>
<path fill="none" stroke="black" d="M5525.94,-3080.35C5407.39,-3068.27 5104.16,-3037.37 4998.56,-3026.61"/>
<polygon fill="black" stroke="black" points="4998.7,-3023.11 4988.4,-3025.58 4997.99,-3030.07 4998.7,-3023.11"/>
<text text-anchor="start" x="5201.25" y="-3057.28" font-family="Times New Roman,serif" font-size="14.00">member of</text>
</g>
<!-- Entity82 -->
<g id="node41" class="node entity">
<title>Entity82</title>
<ellipse fill="none" stroke="black" cx="5282.43" cy="-3454.64" rx="50.89" ry="18"/>
<text text-anchor="start" x="5251.43" y="-3450.94" font-family="Times New Roman,serif" font-size="14.00">nikola tesla</text>
</g>
<!-- Entity48&#45;&gt;Entity82 -->
<g id="edge40" class="edge verb">
<title>Entity48&#45;&gt;Entity82</title>
<path fill="none" stroke="black" d="M5560.58,-3102.59C5513.59,-3162.08 5358.6,-3358.24 5302.73,-3428.95"/>
<polygon fill="black" stroke="black" points="5299.88,-3426.92 5296.42,-3436.93 5305.37,-3431.26 5299.88,-3426.92"/>
<text text-anchor="start" x="5390.66" y="-3269.57" font-family="Times New Roman,serif" font-size="14.00">studied</text>
</g>
<!-- Entity5 -->
<g id="node12" class="node entity">
<title>Entity5</title>
<ellipse fill="none" stroke="black" cx="3271.73" cy="-3270.59" rx="65.79" ry="18"/>
<text text-anchor="start" x="3229.23" y="-3266.89" font-family="Times New Roman,serif" font-size="14.00">arthur m young</text>
</g>
<!-- Entity5&#45;&gt;Entity8 -->
<g id="edge7" class="edge verb">
<title>Entity5&#45;&gt;Entity8</title>
<path fill="none" stroke="black" d="M3313.8,-3256.75C3373.69,-3237.04 3482.86,-3201.12 3542.34,-3181.55"/>
<polygon fill="black" stroke="black" points="3543.74,-3184.78 3552.15,-3178.33 3541.55,-3178.13 3543.74,-3184.78"/>
<text text-anchor="start" x="3366.07" y="-3222.95" font-family="Times New Roman,serif" font-size="14.00">member&#45;of</text>
</g>
<!-- Entity5&#45;&gt;Entity67 -->
<g id="edge18" class="edge verb">
<title>Entity5&#45;&gt;Entity67</title>
<path fill="none" stroke="black" d="M3324.91,-3259.95C3479.51,-3229.02 3928.74,-3139.16 4101.46,-3104.61"/>
<polygon fill="black" stroke="black" points="4102.33,-3108.01 4111.45,-3102.61 4100.96,-3101.14 4102.33,-3108.01"/>
<text text-anchor="start" x="3672.19" y="-3186.08" font-family="Times New Roman,serif" font-size="14.00">studied</text>
</g>
<!-- Entity72 -->
<g id="node28" class="node entity">
<title>Entity72</title>
<ellipse fill="none" stroke="black" cx="2616.83" cy="-3461.04" rx="53.89" ry="18"/>
<text text-anchor="start" x="2583.33" y="-3457.34" font-family="Times New Roman,serif" font-size="14.00">bell aviation</text>
</g>
<!-- Entity5&#45;&gt;Entity72 -->
<g id="edge24" class="edge verb">
<title>Entity5&#45;&gt;Entity72</title>
<path fill="none" stroke="black" d="M3226.46,-3283.75C3108.34,-3318.1 2791.42,-3410.27 2667.49,-3446.31"/>
<polygon fill="black" stroke="black" points="2666.48,-3442.96 2657.86,-3449.11 2668.44,-3449.68 2666.48,-3442.96"/>
<text text-anchor="start" x="2905.98" y="-3368.83" font-family="Times New Roman,serif" font-size="14.00">created</text>
</g>
<!-- Entity1 -->
<g id="node13" class="node entity">
<title>Entity1</title>
<ellipse fill="none" stroke="black" cx="2899.53" cy="-2560.32" rx="64.19" ry="18"/>
<text text-anchor="start" x="2858.03" y="-2556.62" font-family="Times New Roman,serif" font-size="14.00">andre puharich</text>
</g>
<!-- Entity1&#45;&gt;Entity2 -->
<g id="edge8" class="edge verb">
<title>Entity1&#45;&gt;Entity2</title>
<path fill="none" stroke="black" d="M2919.76,-2577.41C2981.61,-2629.69 3168.31,-2787.5 3238.72,-2847.01"/>
<polygon fill="black" stroke="black" points="3236.81,-2849.98 3246.71,-2853.77 3241.33,-2844.64 3236.81,-2849.98"/>
<text text-anchor="start" x="3019.24" y="-2716.01" font-family="Times New Roman,serif" font-size="14.00">sponsored</text>
</g>
<!-- Entity7 -->
<g id="node14" class="node entity">
<title>Entity7</title>
<ellipse fill="none" stroke="black" cx="3677.98" cy="-2767.1" rx="68.49" ry="18"/>
<text text-anchor="start" x="3633.48" y="-2763.4" font-family="Times New Roman,serif" font-size="14.00">jeffrey mishlove</text>
</g>
<!-- Entity7&#45;&gt;Entity2 -->
<g id="edge9" class="edge verb">
<title>Entity7&#45;&gt;Entity2</title>
<path fill="none" stroke="black" d="M3628.29,-2779.52C3547.89,-2799.61 3390.45,-2838.95 3312.28,-2858.49"/>
<polygon fill="black" stroke="black" points="3311.1,-2855.17 3302.25,-2860.99 3312.8,-2861.96 3311.1,-2855.17"/>
<text text-anchor="start" x="3415.29" y="-2822.8" font-family="Times New Roman,serif" font-size="14.00">promoted</text>
</g>
<!-- Entity7&#45;&gt;Entity67 -->
<g id="edge19" class="edge verb">
<title>Entity7&#45;&gt;Entity67</title>
<path fill="none" stroke="black" d="M3698.75,-2784.39C3773.68,-2839.27 4030.6,-3008.56 4130.29,-3069.14"/>
<polygon fill="black" stroke="black" points="4128.51,-3072.15 4138.88,-3074.32 4132.12,-3066.16 4128.51,-3072.15"/>
<text text-anchor="start" x="3873.52" y="-2930.56" font-family="Times New Roman,serif" font-size="14.00">studied</text>
</g>
<!-- Entity7&#45;&gt;Entity67 -->
<g id="edge26" class="edge verb">
<title>Entity7&#45;&gt;Entity67</title>
<path fill="none" stroke="black" d="M3708.8,-2783.31C3797.8,-2836.53 4054.14,-3005.08 4141.05,-3067.47"/>
<polygon fill="black" stroke="black" points="4139.01,-3070.31 4149.16,-3073.34 4143.11,-3064.64 4139.01,-3070.31"/>
<text text-anchor="start" x="3860.93" y="-2914.19" font-family="Times New Roman,serif" font-size="14.00">investigates</text>
</g>
<!-- Entity30 -->
<g id="node15" class="node entity">
<title>Entity30</title>
<ellipse fill="none" stroke="black" cx="1999.87" cy="-3734.29" rx="74.99" ry="18"/>
<text text-anchor="start" x="1950.37" y="-3730.59" font-family="Times New Roman,serif" font-size="14.00">walter dornberger</text>
</g>
<!-- Entity30&#45;&gt;Entity28 -->
<g id="edge11" class="edge verb">
<title>Entity30&#45;&gt;Entity28</title>
<path fill="none" stroke="black" d="M1963.81,-3750.29C1858.85,-3796.83 1554.48,-3931.81 1451.14,-3977.64"/>
<polygon fill="black" stroke="black" points="1449.5,-3974.53 1441.78,-3981.79 1452.34,-3980.93 1449.5,-3974.53"/>
<text text-anchor="start" x="1646.47" y="-3867.76" font-family="Times New Roman,serif" font-size="14.00">member of</text>
</g>
<!-- Entity30&#45;&gt;Entity72 -->
<g id="edge35" class="edge verb">
<title>Entity30&#45;&gt;Entity72</title>
<path fill="none" stroke="black" d="M2042.27,-3719.42C2156.99,-3673.28 2471.95,-3533.75 2579.94,-3481.18"/>
<polygon fill="black" stroke="black" points="2581.71,-3484.21 2589.14,-3476.67 2578.63,-3477.93 2581.71,-3484.21"/>
<text text-anchor="start" x="2232.11" y="-3604.1" font-family="Times New Roman,serif" font-size="14.00">vice&#45;president</text>
</g>
<!-- Entity30&#45;&gt;Entity72 -->
<g id="edge49" class="edge verb">
<title>Entity30&#45;&gt;Entity72</title>
<path fill="none" stroke="black" d="M2029.6,-3717.66C2128.74,-3668.75 2448.43,-3526.95 2569.65,-3477.84"/>
<polygon fill="black" stroke="black" points="2571.08,-3481.04 2579.05,-3474.06 2568.47,-3474.54 2571.08,-3481.04"/>
<text text-anchor="start" x="2243.63" y="-3586.55" font-family="Times New Roman,serif" font-size="14.00">worked at</text>
</g>
<!-- Entity76 -->
<g id="node35" class="node entity">
<title>Entity76</title>
<ellipse fill="none" stroke="black" cx="2222.85" cy="-3842.36" rx="90.98" ry="18"/>
<text text-anchor="start" x="2160.85" y="-3838.66" font-family="Times New Roman,serif" font-size="14.00">nsdap rocket program</text>
</g>
<!-- Entity30&#45;&gt;Entity76 -->
<g id="edge36" class="edge verb">
<title>Entity30&#45;&gt;Entity76</title>
<path fill="none" stroke="black" d="M2033.25,-3750.47C2072.07,-3769.29 2136.29,-3800.41 2179.08,-3821.15"/>
<polygon fill="black" stroke="black" points="2177.61,-3824.32 2188.14,-3825.53 2180.66,-3818.02 2177.61,-3824.32"/>
<text text-anchor="start" x="2065.17" y="-3789.61" font-family="Times New Roman,serif" font-size="14.00">created</text>
</g>
<!-- Entity104 -->
<g id="node55" class="node entity">
<title>Entity104</title>
<ellipse fill="none" stroke="black" cx="1448.58" cy="-3539.93" rx="65.79" ry="18"/>
<text text-anchor="start" x="1406.08" y="-3536.23" font-family="Times New Roman,serif" font-size="14.00">x series aircraft</text>
</g>
<!-- Entity30&#45;&gt;Entity104 -->
<g id="edge59" class="edge verb">
<title>Entity30&#45;&gt;Entity104</title>
<path fill="none" stroke="black" d="M1957.52,-3719.36C1857.4,-3684.06 1606.44,-3595.58 1498.84,-3557.65"/>
<polygon fill="black" stroke="black" points="1499.79,-3554.27 1489.19,-3554.24 1497.46,-3560.87 1499.79,-3554.27"/>
<text text-anchor="start" x="1687.18" y="-3642.31" font-family="Times New Roman,serif" font-size="14.00">created</text>
</g>
<!-- Entity32 -->
<g id="node16" class="node entity">
<title>Entity32</title>
<ellipse fill="none" stroke="black" cx="1811.34" cy="-3842.3" rx="46.29" ry="18"/>
<text text-anchor="start" x="1783.84" y="-3838.6" font-family="Times New Roman,serif" font-size="14.00">van braun</text>
</g>
<!-- Entity32&#45;&gt;Entity30 -->
<g id="edge12" class="edge verb">
<title>Entity32&#45;&gt;Entity30</title>
<path fill="none" stroke="black" d="M1837.55,-3827.28C1869.82,-3808.79 1924.88,-3777.25 1961.81,-3756.1"/>
<polygon fill="black" stroke="black" points="1963.85,-3758.96 1970.78,-3750.95 1960.37,-3752.89 1963.85,-3758.96"/>
<text text-anchor="start" x="1836.68" y="-3795.49" font-family="Times New Roman,serif" font-size="14.00">worked for</text>
</g>
<!-- Entity32&#45;&gt;Entity76 -->
<g id="edge48" class="edge verb">
<title>Entity32&#45;&gt;Entity76</title>
<path fill="none" stroke="black" d="M1857.74,-3842.31C1921.37,-3842.32 2037.38,-3842.33 2121.59,-3842.34"/>
<polygon fill="black" stroke="black" points="2121.69,-3845.84 2131.7,-3842.35 2121.7,-3838.84 2121.69,-3845.84"/>
<text text-anchor="start" x="1933.67" y="-3846.13" font-family="Times New Roman,serif" font-size="14.00">worked at</text>
</g>
<!-- Entity29 -->
<g id="node17" class="node entity">
<title>Entity29</title>
<ellipse fill="none" stroke="black" cx="6186.62" cy="-3509.43" rx="37.89" ry="18"/>
<text text-anchor="start" x="6165.62" y="-3505.73" font-family="Times New Roman,serif" font-size="14.00">hunt oil</text>
</g>
<!-- Entity36 -->
<g id="node18" class="node entity">
<title>Entity36</title>
<ellipse fill="none" stroke="black" cx="6162.4" cy="-3401.44" rx="77.99" ry="18"/>
<text text-anchor="start" x="6110.4" y="-3397.74" font-family="Times New Roman,serif" font-size="14.00">dwight eisenhower</text>
</g>
<!-- Entity29&#45;&gt;Entity36 -->
<g id="edge13" class="edge verb">
<title>Entity29&#45;&gt;Entity36</title>
<path fill="none" stroke="black" d="M6182.52,-3491.11C6178.72,-3474.18 6173.02,-3448.77 6168.65,-3429.31"/>
<polygon fill="black" stroke="black" points="6172.05,-3428.48 6166.45,-3419.49 6165.22,-3430.01 6172.05,-3428.48"/>
<text text-anchor="start" x="6135.58" y="-3464.01" font-family="Times New Roman,serif" font-size="14.00">funded</text>
</g>
<!-- Entity36&#45;&gt;Entity66 -->
<g id="edge34" class="edge verb">
<title>Entity36&#45;&gt;Entity66</title>
<path fill="none" stroke="black" d="M6157.81,-3383.21C6136.21,-3297.57 6044.8,-2934.94 6018.64,-2831.19"/>
<polygon fill="black" stroke="black" points="6022.02,-2830.28 6016.18,-2821.43 6015.24,-2831.99 6022.02,-2830.28"/>
<text text-anchor="start" x="6069.22" y="-3111" font-family="Times New Roman,serif" font-size="14.00">is a</text>
</g>
<!-- Entity11 -->
<g id="node19" class="node entity">
<title>Entity11</title>
<ellipse fill="none" stroke="black" cx="6350.03" cy="-3176.54" rx="56.59" ry="18"/>
<text text-anchor="start" x="6314.53" y="-3172.84" font-family="Times New Roman,serif" font-size="14.00">harry truman</text>
</g>
<!-- Entity11&#45;&gt;Entity66 -->
<g id="edge14" class="edge verb">
<title>Entity11&#45;&gt;Entity66</title>
<path fill="none" stroke="black" d="M6334.17,-3159.04C6279.05,-3098.27 6095.89,-2896.27 6033.02,-2826.95"/>
<polygon fill="black" stroke="black" points="6035.61,-2824.59 6026.3,-2819.54 6030.43,-2829.3 6035.61,-2824.59"/>
<text text-anchor="start" x="6167.59" y="-2996.8" font-family="Times New Roman,serif" font-size="14.00">isa</text>
</g>
<!-- Entity69 -->
<g id="node24" class="node entity">
<title>Entity69</title>
<ellipse fill="none" stroke="black" cx="6664.46" cy="-3595.49" rx="55.79" ry="18"/>
<text text-anchor="start" x="6629.46" y="-3591.79" font-family="Times New Roman,serif" font-size="14.00">freemasonry</text>
</g>
<!-- Entity11&#45;&gt;Entity69 -->
<g id="edge17" class="edge verb">
<title>Entity11&#45;&gt;Entity69</title>
<path fill="none" stroke="black" d="M6363.34,-3194.28C6412.87,-3260.26 6586.62,-3491.76 6645.09,-3569.68"/>
<polygon fill="black" stroke="black" points="6642.52,-3572.09 6651.32,-3577.98 6648.12,-3567.88 6642.52,-3572.09"/>
<text text-anchor="start" x="6443.22" y="-3385.78" font-family="Times New Roman,serif" font-size="14.00">member of</text>
</g>
<!-- Entity63 -->
<g id="node21" class="node entity">
<title>Entity63</title>
<ellipse fill="none" stroke="black" cx="5749.92" cy="-3836.19" rx="53.89" ry="18"/>
<text text-anchor="start" x="5716.42" y="-3832.49" font-family="Times New Roman,serif" font-size="14.00">edgar casey</text>
</g>
<!-- Entity59 -->
<g id="node22" class="node entity">
<title>Entity59</title>
<ellipse fill="none" stroke="black" cx="5797.95" cy="-3267.33" rx="71.49" ry="18"/>
<text text-anchor="start" x="5750.95" y="-3263.63" font-family="Times New Roman,serif" font-size="14.00">woodrow wilson</text>
</g>
<!-- Entity63&#45;&gt;Entity59 -->
<g id="edge15" class="edge verb">
<title>Entity63&#45;&gt;Entity59</title>
<path fill="none" stroke="black" d="M5751.46,-3817.91C5758.44,-3735.25 5787.07,-3396.13 5795.57,-3295.56"/>
<polygon fill="black" stroke="black" points="5799.06,-3295.8 5796.41,-3285.55 5792.08,-3295.22 5799.06,-3295.8"/>
<text text-anchor="start" x="5731.51" y="-3560.54" font-family="Times New Roman,serif" font-size="14.00">advises</text>
</g>
<!-- Entity59&#45;&gt;Entity66 -->
<g id="edge30" class="edge verb">
<title>Entity59&#45;&gt;Entity66</title>
<path fill="none" stroke="black" d="M5806.2,-3249.43C5838.95,-3178.3 5960,-2915.44 5999.25,-2830.22"/>
<polygon fill="black" stroke="black" points="6002.52,-2831.5 6003.52,-2820.95 5996.16,-2828.57 6002.52,-2831.5"/>
<text text-anchor="start" x="5886.72" y="-3043.62" font-family="Times New Roman,serif" font-size="14.00">isa</text>
</g>
<!-- Entity92 -->
<g id="node50" class="node entity">
<title>Entity92</title>
<ellipse fill="none" stroke="black" cx="5713.29" cy="-3375.3" rx="71.49" ry="18"/>
<text text-anchor="start" x="5666.29" y="-3371.6" font-family="Times New Roman,serif" font-size="14.00">leauge of nations</text>
</g>
<!-- Entity59&#45;&gt;Entity92 -->
<g id="edge54" class="edge verb">
<title>Entity59&#45;&gt;Entity92</title>
<path fill="none" stroke="black" d="M5783.97,-3285.16C5770.25,-3302.66 5749.16,-3329.55 5733.59,-3349.41"/>
<polygon fill="black" stroke="black" points="5730.71,-3347.42 5727.29,-3357.44 5736.22,-3351.73 5730.71,-3347.42"/>
<text text-anchor="start" x="5717.78" y="-3321.09" font-family="Times New Roman,serif" font-size="14.00">created</text>
</g>
<!-- Entity18 -->
<g id="node26" class="node entity">
<title>Entity18</title>
<ellipse fill="none" stroke="black" cx="6059.03" cy="-3073.49" rx="35.19" ry="18"/>
<text text-anchor="start" x="6040.03" y="-3069.79" font-family="Times New Roman,serif" font-size="14.00">obama</text>
</g>
<!-- Entity18&#45;&gt;Entity66 -->
<g id="edge21" class="edge verb">
<title>Entity18&#45;&gt;Entity66</title>
<path fill="none" stroke="black" d="M6055.84,-3055.35C6047.75,-3009.21 6026.33,-2887.15 6016.58,-2831.6"/>
<polygon fill="black" stroke="black" points="6019.97,-2830.66 6014.8,-2821.42 6013.08,-2831.87 6019.97,-2830.66"/>
<text text-anchor="start" x="6020.21" y="-2947.27" font-family="Times New Roman,serif" font-size="14.00">isa</text>
</g>
<!-- Entity12 -->
<g id="node27" class="node entity">
<title>Entity12</title>
<ellipse fill="none" stroke="black" cx="5949.73" cy="-2382.27" rx="58.49" ry="18"/>
<text text-anchor="start" x="5912.73" y="-2378.57" font-family="Times New Roman,serif" font-size="14.00">richard nixon</text>
</g>
<!-- Entity12&#45;&gt;Entity66 -->
<g id="edge22" class="edge verb">
<title>Entity12&#45;&gt;Entity66</title>
<path fill="none" stroke="black" d="M5952.39,-2400.36C5962.09,-2466.36 5995.63,-2694.51 6007.46,-2774.98"/>
<polygon fill="black" stroke="black" points="6004.06,-2775.94 6008.98,-2785.32 6010.98,-2774.92 6004.06,-2775.94"/>
<text text-anchor="start" x="5963.92" y="-2591.47" font-family="Times New Roman,serif" font-size="14.00">isa</text>
</g>
<!-- Entity24 -->
<g id="node29" class="node entity">
<title>Entity24</title>
<ellipse fill="none" stroke="black" cx="3791.82" cy="-2659.06" rx="63.89" ry="18"/>
<text text-anchor="start" x="3750.82" y="-2655.36" font-family="Times New Roman,serif" font-size="14.00">robert bigelow</text>
</g>
<!-- Entity24&#45;&gt;Entity7 -->
<g id="edge25" class="edge verb">
<title>Entity24&#45;&gt;Entity7</title>
<path fill="none" stroke="black" d="M3773.53,-2676.42C3754.72,-2694.27 3725.26,-2722.23 3704.02,-2742.39"/>
<polygon fill="black" stroke="black" points="3701.45,-2740 3696.61,-2749.43 3706.27,-2745.08 3701.45,-2740"/>
<text text-anchor="start" x="3706.78" y="-2713.2" font-family="Times New Roman,serif" font-size="14.00">funds</text>
</g>
<!-- Entity24&#45;&gt;Entity67 -->
<g id="edge45" class="edge verb">
<title>Entity24&#45;&gt;Entity67</title>
<path fill="none" stroke="black" d="M3807.36,-2676.79C3866.66,-2744.45 4078.83,-2986.55 4148.15,-3065.65"/>
<polygon fill="black" stroke="black" points="4145.55,-3068 4154.77,-3073.21 4150.82,-3063.38 4145.55,-3068"/>
<text text-anchor="start" x="3913.75" y="-2875.02" font-family="Times New Roman,serif" font-size="14.00">investigates</text>
</g>
<!-- Entity44 -->
<g id="node30" class="node entity">
<title>Entity44</title>
<ellipse fill="none" stroke="black" cx="7127.12" cy="-3081.19" rx="58.49" ry="18"/>
<text text-anchor="start" x="7090.12" y="-3077.49" font-family="Times New Roman,serif" font-size="14.00">steve bannon</text>
</g>
<!-- Entity44&#45;&gt;Entity15 -->
<g id="edge28" class="edge verb">
<title>Entity44&#45;&gt;Entity15</title>
<path fill="none" stroke="black" d="M7071.87,-3075.22C6932.71,-3065.46 6567.88,-3050.18 6413.9,-3047.5"/>
<polygon fill="black" stroke="black" points="6413.68,-3044 6403.62,-3047.33 6413.57,-3050.99 6413.68,-3044"/>
<text text-anchor="start" x="6687.89" y="-3050.16" font-family="Times New Roman,serif" font-size="14.00">promoted</text>
</g>
<!-- Entity44&#45;&gt;Entity15 -->
<g id="edge64" class="edge verb">
<title>Entity44&#45;&gt;Entity15</title>
<path fill="none" stroke="black" d="M7068.72,-3082.52C6926.09,-3080.52 6560.69,-3065.41 6410.11,-3055.38"/>
<polygon fill="black" stroke="black" points="6410.29,-3051.89 6400.08,-3054.7 6409.81,-3058.87 6410.29,-3051.89"/>
<text text-anchor="start" x="6697.42" y="-3072.75" font-family="Times New Roman,serif" font-size="14.00">advises</text>
</g>
<!-- Entity83 -->
<g id="node40" class="node entity">
<title>Entity83</title>
<ellipse fill="none" stroke="black" cx="7590.53" cy="-2651.01" rx="61.99" ry="18"/>
<text text-anchor="start" x="7551.03" y="-2647.31" font-family="Times New Roman,serif" font-size="14.00">breitbart news</text>
</g>
<!-- Entity44&#45;&gt;Entity83 -->
<g id="edge46" class="edge verb">
<title>Entity44&#45;&gt;Entity83</title>
<path fill="none" stroke="black" d="M7145.57,-3064.06C7217.65,-2997.15 7480.38,-2753.27 7564.46,-2675.21"/>
<polygon fill="black" stroke="black" points="7567.08,-2677.56 7572.03,-2668.19 7562.32,-2672.43 7567.08,-2677.56"/>
<text text-anchor="start" x="7314.02" y="-2873.44" font-family="Times New Roman,serif" font-size="14.00">created</text>
</g>
<!-- Entity89 -->
<g id="node49" class="node entity">
<title>Entity89</title>
<ellipse fill="none" stroke="black" cx="7566.09" cy="-3081.28" rx="35.19" ry="18"/>
<text text-anchor="start" x="7547.09" y="-3077.58" font-family="Times New Roman,serif" font-size="14.00">gurgev</text>
</g>
<!-- Entity44&#45;&gt;Entity89 -->
<g id="edge53" class="edge verb">
<title>Entity44&#45;&gt;Entity89</title>
<path fill="none" stroke="black" d="M7185.87,-3081.2C7274.52,-3081.22 7440.62,-3081.25 7520.67,-3081.27"/>
<polygon fill="black" stroke="black" points="7520.92,-3084.77 7530.92,-3081.27 7520.92,-3077.77 7520.92,-3084.77"/>
<text text-anchor="start" x="7312.27" y="-3085.03" font-family="Times New Roman,serif" font-size="14.00">studied</text>
</g>
<!-- Entity91 -->
<g id="node51" class="node entity">
<title>Entity91</title>
<ellipse fill="none" stroke="black" cx="7393.45" cy="-3462.18" rx="38.19" ry="18"/>
<text text-anchor="start" x="7371.95" y="-3458.48" font-family="Times New Roman,serif" font-size="14.00">us navy</text>
</g>
<!-- Entity44&#45;&gt;Entity91 -->
<g id="edge55" class="edge verb">
<title>Entity44&#45;&gt;Entity91</title>
<path fill="none" stroke="black" d="M7139.43,-3098.8C7182.21,-3159.99 7324.52,-3363.58 7375.27,-3436.18"/>
<polygon fill="black" stroke="black" points="7372.67,-3438.57 7381.27,-3444.76 7378.4,-3434.56 7372.67,-3438.57"/>
<text text-anchor="start" x="7196.35" y="-3271.29" font-family="Times New Roman,serif" font-size="14.00">member of</text>
</g>
<!-- Entity94 -->
<g id="node53" class="node entity">
<title>Entity94</title>
<ellipse fill="none" stroke="black" cx="7436.09" cy="-2910.33" rx="53.09" ry="18"/>
<text text-anchor="start" x="7403.09" y="-2906.63" font-family="Times New Roman,serif" font-size="14.00">biosphere 2</text>
</g>
<!-- Entity44&#45;&gt;Entity94 -->
<g id="edge57" class="edge verb">
<title>Entity44&#45;&gt;Entity94</title>
<path fill="none" stroke="black" d="M7155.63,-3065.42C7211.76,-3034.38 7336.54,-2965.38 7398.99,-2930.85"/>
<polygon fill="black" stroke="black" points="7401.03,-2933.71 7408.09,-2925.81 7397.65,-2927.59 7401.03,-2933.71"/>
<text text-anchor="start" x="7236.31" y="-3001.93" font-family="Times New Roman,serif" font-size="14.00">created</text>
</g>
<!-- Entity107 -->
<g id="node58" class="node entity">
<title>Entity107</title>
<ellipse fill="none" stroke="black" cx="7702.71" cy="-3354.18" rx="77.19" ry="18"/>
<text text-anchor="start" x="7651.21" y="-3350.48" font-family="Times New Roman,serif" font-size="14.00">hollywood movies</text>
</g>
<!-- Entity44&#45;&gt;Entity107 -->
<g id="edge61" class="edge verb">
<title>Entity44&#45;&gt;Entity107</title>
<path fill="none" stroke="black" d="M7159.3,-3096.45C7256.72,-3142.66 7548.57,-3281.08 7659.39,-3333.63"/>
<polygon fill="black" stroke="black" points="7658.07,-3336.88 7668.6,-3338 7661.07,-3330.56 7658.07,-3336.88"/>
<text text-anchor="start" x="7354.34" y="-3218.84" font-family="Times New Roman,serif" font-size="14.00">produced</text>
</g>
<!-- Entity111 -->
<g id="node59" class="node entity">
<title>Entity111</title>
<ellipse fill="none" stroke="black" cx="7694.07" cy="-3189.33" rx="64.99" ry="18"/>
<text text-anchor="start" x="7652.07" y="-3185.63" font-family="Times New Roman,serif" font-size="14.00">goldman sachs</text>
</g>
<!-- Entity44&#45;&gt;Entity111 -->
<g id="edge66" class="edge verb">
<title>Entity44&#45;&gt;Entity111</title>
<path fill="none" stroke="black" d="M7176.94,-3090.69C7280.02,-3110.35 7516.58,-3155.48 7630.49,-3177.2"/>
<polygon fill="black" stroke="black" points="7629.98,-3180.67 7640.46,-3179.11 7631.29,-3173.8 7629.98,-3180.67"/>
<text text-anchor="start" x="7340.71" y="-3137.75" font-family="Times New Roman,serif" font-size="14.00">worked for</text>
</g>
<!-- Entity33 -->
<g id="node32" class="node entity">
<title>Entity33</title>
<ellipse fill="none" stroke="black" cx="2167.29" cy="-3301.44" rx="57.69" ry="18"/>
<text text-anchor="start" x="2130.79" y="-3297.74" font-family="Times New Roman,serif" font-size="14.00">michael pane</text>
</g>
<!-- Entity33&#45;&gt;Entity30 -->
<g id="edge47" class="edge verb">
<title>Entity33&#45;&gt;Entity30</title>
<path fill="none" stroke="black" d="M2160.31,-3319.49C2134.17,-3387.07 2041.97,-3625.45 2010.49,-3706.83"/>
<polygon fill="black" stroke="black" points="2007.22,-3705.58 2006.88,-3716.17 2013.75,-3708.1 2007.22,-3705.58"/>
<text text-anchor="start" x="2022.4" y="-3516.96" font-family="Times New Roman,serif" font-size="14.00">worked for</text>
</g>
<!-- Entity33&#45;&gt;Entity72 -->
<g id="edge31" class="edge verb">
<title>Entity33&#45;&gt;Entity72</title>
<path fill="none" stroke="black" d="M2205.62,-3315.05C2287.89,-3344.26 2481.15,-3412.87 2570.29,-3444.52"/>
<polygon fill="black" stroke="black" points="2569.27,-3447.87 2579.86,-3447.92 2571.61,-3441.28 2569.27,-3447.87"/>
<text text-anchor="start" x="2331.96" y="-3383.59" font-family="Times New Roman,serif" font-size="14.00">worked at</text>
</g>
<!-- Entity45 -->
<g id="node33" class="node entity">
<title>Entity45</title>
<ellipse fill="none" stroke="black" cx="6207.93" cy="-2177.05" rx="67.69" ry="18"/>
<text text-anchor="start" x="6163.93" y="-2173.35" font-family="Times New Roman,serif" font-size="14.00">abraham lincoln</text>
</g>
<!-- Entity45&#45;&gt;Entity66 -->
<g id="edge32" class="edge verb">
<title>Entity45&#45;&gt;Entity66</title>
<path fill="none" stroke="black" d="M6202.26,-2195.12C6174.61,-2283.34 6053.77,-2668.88 6020.27,-2775.78"/>
<polygon fill="black" stroke="black" points="6016.87,-2774.92 6017.22,-2785.51 6023.55,-2777.01 6016.87,-2774.92"/>
<text text-anchor="start" x="6095.27" y="-2489.25" font-family="Times New Roman,serif" font-size="14.00">isa</text>
</g>
<!-- Entity38 -->
<g id="node34" class="node entity">
<title>Entity38</title>
<ellipse fill="none" stroke="black" cx="6461.68" cy="-1374.48" rx="90.98" ry="18"/>
<text text-anchor="start" x="6399.68" y="-1370.78" font-family="Times New Roman,serif" font-size="14.00">emma hardinge&#45;britten</text>
</g>
<!-- Entity38&#45;&gt;Entity45 -->
<g id="edge33" class="edge verb">
<title>Entity38&#45;&gt;Entity45</title>
<path fill="none" stroke="black" d="M6455.9,-1392.75C6422.79,-1497.49 6257.13,-2021.42 6216.79,-2149"/>
<polygon fill="black" stroke="black" points="6213.37,-2148.22 6213.69,-2158.81 6220.05,-2150.33 6213.37,-2148.22"/>
<text text-anchor="start" x="6237.35" y="-1774.68" font-family="Times New Roman,serif" font-size="14.00">spokesperson for</text>
</g>
<!-- Entity79 -->
<g id="node38" class="node entity">
<title>Entity79</title>
<ellipse fill="none" stroke="black" cx="6421.37" cy="-802.99" rx="39.79" ry="18"/>
<text text-anchor="start" x="6398.87" y="-799.29" font-family="Times New Roman,serif" font-size="14.00">medium</text>
</g>
<!-- Entity38&#45;&gt;Entity79 -->
<g id="edge38" class="edge verb">
<title>Entity38&#45;&gt;Entity79</title>
<path fill="none" stroke="black" d="M6460.4,-1356.43C6454.58,-1273.87 6430.46,-931.88 6423.35,-831.07"/>
<polygon fill="black" stroke="black" points="6426.84,-830.77 6422.64,-821.04 6419.85,-831.26 6426.84,-830.77"/>
<text text-anchor="start" x="6425.88" y="-1097.55" font-family="Times New Roman,serif" font-size="14.00">isa</text>
</g>
<!-- Entity86 -->
<g id="node48" class="node entity">
<title>Entity86</title>
<ellipse fill="none" stroke="black" cx="6527.47" cy="-1266.41" rx="85.29" ry="18"/>
<text text-anchor="start" x="6469.97" y="-1262.71" font-family="Times New Roman,serif" font-size="14.00">theosophical society</text>
</g>
<!-- Entity38&#45;&gt;Entity86 -->
<g id="edge65" class="edge verb">
<title>Entity38&#45;&gt;Entity86</title>
<path fill="none" stroke="black" d="M6472.84,-1356.15C6483.35,-1338.89 6499.21,-1312.83 6511.14,-1293.23"/>
<polygon fill="black" stroke="black" points="6514.26,-1294.83 6516.47,-1284.47 6508.28,-1291.19 6514.26,-1294.83"/>
<text text-anchor="start" x="6450.99" y="-1328.49" font-family="Times New Roman,serif" font-size="14.00">created</text>
</g>
<!-- Entity99 -->
<g id="node54" class="node entity">
<title>Entity99</title>
<ellipse fill="none" stroke="black" cx="6918.73" cy="-955.99" rx="55.79" ry="18"/>
<text text-anchor="start" x="6883.73" y="-952.29" font-family="Times New Roman,serif" font-size="14.00">orphic circle</text>
</g>
<!-- Entity38&#45;&gt;Entity99 -->
<g id="edge58" class="edge verb">
<title>Entity38&#45;&gt;Entity99</title>
<path fill="none" stroke="black" d="M6481.02,-1356.77C6553.61,-1290.3 6809.81,-1055.72 6892.67,-979.85"/>
<polygon fill="black" stroke="black" points="6895.12,-982.35 6900.14,-973.02 6890.4,-977.19 6895.12,-982.35"/>
<text text-anchor="start" x="6625.85" y="-1172.11" font-family="Times New Roman,serif" font-size="14.00">member of</text>
</g>
<!-- Entity42 -->
<g id="node36" class="node entity">
<title>Entity42</title>
<ellipse fill="none" stroke="black" cx="3905.94" cy="-2264.66" rx="53.89" ry="18"/>
<text text-anchor="start" x="3872.44" y="-2260.96" font-family="Times New Roman,serif" font-size="14.00">black magic</text>
</g>
<!-- Entity81 -->
<g id="node37" class="node entity">
<title>Entity81</title>
<ellipse fill="none" stroke="black" cx="3993.66" cy="-2376.64" rx="28.7" ry="18"/>
<text text-anchor="start" x="3979.66" y="-2372.94" font-family="Times New Roman,serif" font-size="14.00">x left</text>
</g>
<!-- Entity42&#45;&gt;Entity81 -->
<g id="edge37" class="edge verb">
<title>Entity42&#45;&gt;Entity81</title>
<path fill="none" stroke="black" d="M3919.64,-2282.16C3934.45,-2301.05 3958.14,-2331.29 3974.72,-2352.45"/>
<polygon fill="black" stroke="black" points="3971.98,-2354.64 3980.9,-2360.36 3977.49,-2350.32 3971.98,-2354.64"/>
<text text-anchor="start" x="3886.18" y="-2321.11" font-family="Times New Roman,serif" font-size="14.00">member of</text>
</g>
<!-- Entity47 -->
<g id="node39" class="node entity">
<title>Entity47</title>
<ellipse fill="none" stroke="black" cx="7701.75" cy="-2542.97" rx="69.59" ry="18"/>
<text text-anchor="start" x="7656.25" y="-2539.27" font-family="Times New Roman,serif" font-size="14.00">andrew breitbart</text>
</g>
<!-- Entity47&#45;&gt;Entity83 -->
<g id="edge39" class="edge verb">
<title>Entity47&#45;&gt;Entity83</title>
<path fill="none" stroke="black" d="M7683.38,-2560.81C7664.92,-2578.75 7636.32,-2606.53 7615.74,-2626.52"/>
<polygon fill="black" stroke="black" points="7613.29,-2624.02 7608.56,-2633.5 7618.17,-2629.05 7613.29,-2624.02"/>
<text text-anchor="start" x="7608.56" y="-2597.47" font-family="Times New Roman,serif" font-size="14.00">created</text>
</g>
<!-- Entity35 -->
<g id="node42" class="node entity">
<title>Entity35</title>
<ellipse fill="none" stroke="black" cx="3891.94" cy="-1622.66" rx="39.79" ry="18"/>
<text text-anchor="start" x="3869.44" y="-1618.96" font-family="Times New Roman,serif" font-size="14.00">crowley</text>
</g>
<!-- Entity80 -->
<g id="node43" class="node entity">
<title>Entity80</title>
<ellipse fill="none" stroke="black" cx="3979.66" cy="-1734.64" rx="38.99" ry="18"/>
<text text-anchor="start" x="3957.66" y="-1730.94" font-family="Times New Roman,serif" font-size="14.00">x magic</text>
</g>
<!-- Entity35&#45;&gt;Entity80 -->
<g id="edge41" class="edge verb">
<title>Entity35&#45;&gt;Entity80</title>
<path fill="none" stroke="black" d="M3905.26,-1639.67C3919.82,-1658.25 3943.28,-1688.2 3959.96,-1709.49"/>
<polygon fill="black" stroke="black" points="3957.29,-1711.76 3966.21,-1717.47 3962.8,-1707.44 3957.29,-1711.76"/>
<text text-anchor="start" x="3871.61" y="-1678.38" font-family="Times New Roman,serif" font-size="14.00">member of</text>
</g>
<!-- Entity19 -->
<g id="node44" class="node entity">
<title>Entity19</title>
<ellipse fill="none" stroke="black" cx="5602.11" cy="-2723.01" rx="31.4" ry="18"/>
<text text-anchor="start" x="5586.11" y="-2719.31" font-family="Times New Roman,serif" font-size="14.00">carter</text>
</g>
<!-- Entity19&#45;&gt;Entity66 -->
<g id="edge44" class="edge verb">
<title>Entity19&#45;&gt;Entity66</title>
<path fill="none" stroke="black" d="M5631.89,-2728.86C5704.44,-2743.09 5890.32,-2779.55 5972.06,-2795.59"/>
<polygon fill="black" stroke="black" points="5971.47,-2799.04 5981.96,-2797.53 5972.82,-2792.17 5971.47,-2799.04"/>
<text text-anchor="start" x="5785.97" y="-2766.02" font-family="Times New Roman,serif" font-size="14.00">isa</text>
</g>
<!-- Entity19&#45;&gt;Entity90 -->
<g id="edge56" class="edge verb">
<title>Entity19&#45;&gt;Entity90</title>
<path fill="none" stroke="black" d="M5571.81,-2727.93C5501.61,-2739.31 5328.01,-2767.46 5252.3,-2779.74"/>
<polygon fill="black" stroke="black" points="5251.59,-2776.3 5242.28,-2781.36 5252.71,-2783.21 5251.59,-2776.3"/>
<text text-anchor="start" x="5357.05" y="-2757.63" font-family="Times New Roman,serif" font-size="14.00">witnessed</text>
</g>
<!-- Entity27 -->
<g id="node45" class="node entity">
<title>Entity27</title>
<ellipse fill="none" stroke="black" cx="75.59" cy="-4691.84" rx="75.29" ry="18"/>
<text text-anchor="start" x="25.59" y="-4688.14" font-family="Times New Roman,serif" font-size="14.00">lee harvey oswald</text>
</g>
<!-- Entity34 -->
<g id="node46" class="node entity">
<title>Entity34</title>
<ellipse fill="none" stroke="black" cx="580.94" cy="-4448.28" rx="59.29" ry="18"/>
<text text-anchor="start" x="543.44" y="-4444.58" font-family="Times New Roman,serif" font-size="14.00">guy bannister</text>
</g>
<!-- Entity27&#45;&gt;Entity34 -->
<g id="edge50" class="edge verb">
<title>Entity27&#45;&gt;Entity34</title>
<path fill="none" stroke="black" d="M109.14,-4675.67C198.64,-4632.53 442.85,-4514.84 540.14,-4467.94"/>
<polygon fill="black" stroke="black" points="541.88,-4470.99 549.36,-4463.5 538.84,-4464.69 541.88,-4470.99"/>
<text text-anchor="start" x="261.64" y="-4575.6" font-family="Times New Roman,serif" font-size="14.00">worked for</text>
</g>
<!-- Entity34&#45;&gt;Entity75 -->
<g id="edge51" class="edge verb">
<title>Entity34&#45;&gt;Entity75</title>
<path fill="none" stroke="black" d="M612.04,-4432.8C692.53,-4392.74 907.32,-4285.83 992.6,-4243.38"/>
<polygon fill="black" stroke="black" points="994.24,-4246.47 1001.64,-4238.88 991.12,-4240.21 994.24,-4246.47"/>
<text text-anchor="start" x="741.32" y="-4341.89" font-family="Times New Roman,serif" font-size="14.00">member of</text>
</g>
<!-- Entity64 -->
<g id="node47" class="node entity">
<title>Entity64</title>
<ellipse fill="none" stroke="black" cx="6396.57" cy="-1158.31" rx="73.39" ry="18"/>
<text text-anchor="start" x="6348.07" y="-1154.61" font-family="Times New Roman,serif" font-size="14.00">madam blavatsky</text>
</g>
<!-- Entity64&#45;&gt;Entity86 -->
<g id="edge52" class="edge verb">
<title>Entity64&#45;&gt;Entity86</title>
<path fill="none" stroke="black" d="M6417.6,-1175.67C6439.42,-1193.69 6473.7,-1222 6498.17,-1242.21"/>
<polygon fill="black" stroke="black" points="6496.12,-1245.05 6506.06,-1248.72 6500.57,-1239.66 6496.12,-1245.05"/>
<text text-anchor="start" x="6416.88" y="-1212.74" font-family="Times New Roman,serif" font-size="14.00">created</text>
</g>
<!-- Entity60 -->
<g id="node56" class="node entity">
<title>Entity60</title>
<ellipse fill="none" stroke="black" cx="6776.31" cy="-633.16" rx="58.49" ry="18"/>
<text text-anchor="start" x="6739.31" y="-629.46" font-family="Times New Roman,serif" font-size="14.00">rudolf steiner</text>
</g>
<!-- Entity60&#45;&gt;Entity86 -->
<g id="edge63" class="edge verb">
<title>Entity60&#45;&gt;Entity86</title>
<path fill="none" stroke="black" d="M6769.27,-651.09C6734.44,-739.71 6580.7,-1130.95 6538.32,-1238.8"/>
<polygon fill="black" stroke="black" points="6534.97,-1237.74 6534.57,-1248.33 6541.49,-1240.3 6534.97,-1237.74"/>
<text text-anchor="start" x="6587.79" y="-948.74" font-family="Times New Roman,serif" font-size="14.00">memberr of</text>
</g>
<!-- Entity93 -->
<g id="node57" class="node entity">
<title>Entity93</title>
<ellipse fill="none" stroke="black" cx="7017.99" cy="-18.41" rx="102.08" ry="18"/>
<text text-anchor="start" x="6947.49" y="-14.71" font-family="Times New Roman,serif" font-size="14.00">anthroposophical society</text>
</g>
<!-- Entity60&#45;&gt;Entity93 -->
<g id="edge60" class="edge verb">
<title>Entity60&#45;&gt;Entity93</title>
<path fill="none" stroke="black" d="M6783.41,-615.09C6817.67,-527.96 6965.85,-151.04 7007.23,-45.79"/>
<polygon fill="black" stroke="black" points="7010.49,-47.06 7010.89,-36.47 7003.97,-44.5 7010.49,-47.06"/>
<text text-anchor="start" x="6854.32" y="-334.24" font-family="Times New Roman,serif" font-size="14.00">created</text>
</g>
<!-- Entity109 -->
<g id="node60" class="node entity">
<title>Entity109</title>
<ellipse fill="none" stroke="black" cx="3236.94" cy="-1943.66" rx="27" ry="18"/>
<text text-anchor="start" x="3233.44" y="-1939.96" font-family="Times New Roman,serif" font-size="14.00">s</text>
</g>
<!-- Entity112 -->
<g id="node61" class="node entity">
<title>Entity112</title>
<ellipse fill="none" stroke="black" cx="3324.66" cy="-2055.64" rx="27" ry="18"/>
<text text-anchor="start" x="3320.66" y="-2051.94" font-family="Times New Roman,serif" font-size="14.00">o</text>
</g>
<!-- Entity109&#45;&gt;Entity112 -->
<g id="edge67" class="edge verb">
<title>Entity109&#45;&gt;Entity112</title>
<path fill="none" stroke="black" d="M3249.51,-1959.7C3264.23,-1978.5 3288.76,-2009.82 3305.78,-2031.53"/>
<polygon fill="black" stroke="black" points="3303.19,-2033.91 3312.11,-2039.62 3308.7,-2029.59 3303.19,-2033.91"/>
<text text-anchor="start" x="3270.64" y="-1999.42" font-family="Times New Roman,serif" font-size="14.00">v</text>
</g>
</g>
</svg>
