<?xml version="1.0" encoding="UTF-8" standalone="no"?>
<?xml-stylesheet href="./styles.css" type="text/css"?>
<!DOCTYPE svg PUBLIC "-//W3C//DTD SVG 1.1//EN"
 "http://www.w3.org/Graphics/SVG/1.1/DTD/svg11.dtd">
<!-- Generated by graphviz version 2.47.3 (20210619.1520)
 -->
<!-- Title: G Pages: 1 -->
<svg width="4343pt" height="8254pt"
 viewBox="0.00 0.00 4343.00 8254.00" xmlns="http://www.w3.org/2000/svg" xmlns:xlink="http://www.w3.org/1999/xlink">
<g id="graph0" class="graph" transform="scale(1 1) rotate(0) translate(4 8250)">
<title>G</title>
<polygon fill="white" stroke="transparent" points="-4,4 -4,-8250 4339,-8250 4339,4 -4,4"/>
<!-- Entity8 -->
<g id="node1" class="node entity">
<title>Entity8</title>
<ellipse fill="none" stroke="black" cx="2768.87" cy="-3859.57" rx="41.69" ry="18"/>
<text text-anchor="start" x="2744.87" y="-3855.87" font-family="Times New Roman,serif" font-size="14.00">uri geller</text>
</g>
<!-- Entity16 -->
<g id="node2" class="node entity">
<title>Entity16</title>
<ellipse fill="none" stroke="black" cx="3008.71" cy="-3759.07" rx="38.19" ry="18"/>
<text text-anchor="start" x="2987.21" y="-3755.37" font-family="Times New Roman,serif" font-size="14.00">the nine</text>
</g>
<!-- Entity8&#45;&gt;Entity16 -->
<g id="edge1" class="edge verb">
<title>Entity8&#45;&gt;Entity16</title>
<path fill="none" stroke="black" d="M2798.76,-3847.04C2842.23,-3828.83 2922.89,-3795.03 2970.58,-3775.05"/>
<polygon fill="black" stroke="black" points="2972.07,-3778.22 2979.94,-3771.13 2969.37,-3771.76 2972.07,-3778.22"/>
<text text-anchor="start" x="2780.67" y="-3814.85" font-family="Times New Roman,serif" font-size="14.00">claiemd to channel</text>
</g>
<!-- Entity105 -->
<g id="node47" class="node entity">
<title>Entity105</title>
<ellipse fill="none" stroke="black" cx="2904.38" cy="-3651.09" rx="94.48" ry="18"/>
<text text-anchor="start" x="2839.88" y="-3647.39" font-family="Times New Roman,serif" font-size="14.00">egyptian gods in a ship</text>
</g>
<!-- Entity16&#45;&gt;Entity105 -->
<g id="edge53" class="edge verb">
<title>Entity16&#45;&gt;Entity105</title>
<path fill="none" stroke="black" d="M2992.87,-3742.67C2975.88,-3725.09 2948.7,-3696.96 2928.94,-3676.51"/>
<polygon fill="black" stroke="black" points="2931.23,-3673.85 2921.77,-3669.09 2926.2,-3678.71 2931.23,-3673.85"/>
<text text-anchor="start" x="2856.9" y="-3713.39" font-family="Times New Roman,serif" font-size="14.00">claimed to channel</text>
</g>
<!-- Entity9 -->
<g id="node3" class="node entity">
<title>Entity9</title>
<ellipse fill="none" stroke="black" cx="3024.14" cy="-5464.39" rx="27" ry="18"/>
<text text-anchor="start" x="3016.64" y="-5460.69" font-family="Times New Roman,serif" font-size="14.00">jfk</text>
</g>
<!-- Entity25 -->
<g id="node4" class="node entity">
<title>Entity25</title>
<ellipse fill="none" stroke="black" cx="3048.86" cy="-5061.48" rx="27" ry="18"/>
<text text-anchor="start" x="3040.86" y="-5057.78" font-family="Times New Roman,serif" font-size="14.00">cia</text>
</g>
<!-- Entity9&#45;&gt;Entity25 -->
<g id="edge2" class="edge verb">
<title>Entity9&#45;&gt;Entity25</title>
<path fill="none" stroke="black" d="M3025.25,-5446.3C3029.17,-5382.39 3042.39,-5166.96 3047.14,-5089.51"/>
<polygon fill="black" stroke="black" points="3050.63,-5089.72 3047.75,-5079.52 3043.64,-5089.29 3050.63,-5089.72"/>
<text text-anchor="start" x="2932.19" y="-5271.7" font-family="Times New Roman,serif" font-size="14.00">heads (1961&#45;1963)</text>
</g>
<!-- Entity77 -->
<g id="node28" class="node entity">
<title>Entity77</title>
<ellipse fill="none" stroke="black" cx="3021.76" cy="-5906.43" rx="31.4" ry="18"/>
<text text-anchor="start" x="3005.76" y="-5902.73" font-family="Times New Roman,serif" font-size="14.00">potus</text>
</g>
<!-- Entity9&#45;&gt;Entity77 -->
<g id="edge24" class="edge verb">
<title>Entity9&#45;&gt;Entity77</title>
<path fill="none" stroke="black" d="M3024.04,-5482.54C3023.67,-5551.11 3022.36,-5794.67 3021.91,-5878.13"/>
<polygon fill="black" stroke="black" points="3018.41,-5878.35 3021.85,-5888.37 3025.41,-5878.39 3018.41,-5878.35"/>
<text text-anchor="start" x="2935.98" y="-5684.14" font-family="Times New Roman,serif" font-size="14.00">isa (1961&#45;1963)</text>
</g>
<!-- Entity75 -->
<g id="node26" class="node entity">
<title>Entity75</title>
<ellipse fill="none" stroke="black" cx="3068.09" cy="-4324.05" rx="77.19" ry="18"/>
<text text-anchor="start" x="3016.59" y="-4320.35" font-family="Times New Roman,serif" font-size="14.00">psi&#45;consciousness</text>
</g>
<!-- Entity25&#45;&gt;Entity75 -->
<g id="edge45" class="edge verb">
<title>Entity25&#45;&gt;Entity75</title>
<path fill="none" stroke="black" d="M3049.33,-5043.25C3051.91,-4944.53 3064.18,-4473.91 3067.35,-4352.62"/>
<polygon fill="black" stroke="black" points="3070.85,-4352.39 3067.61,-4342.3 3063.86,-4352.21 3070.85,-4352.39"/>
<text text-anchor="start" x="2994.34" y="-4701.74" font-family="Times New Roman,serif" font-size="14.00">investigates</text>
</g>
<!-- Entity108 -->
<g id="node52" class="node entity">
<title>Entity108</title>
<ellipse fill="none" stroke="black" cx="2795.44" cy="-5237.68" rx="27" ry="18"/>
<text text-anchor="start" x="2785.94" y="-5233.98" font-family="Times New Roman,serif" font-size="14.00">ufo</text>
</g>
<!-- Entity25&#45;&gt;Entity108 -->
<g id="edge62" class="edge verb">
<title>Entity25&#45;&gt;Entity108</title>
<path fill="none" stroke="black" d="M3029.81,-5074.72C2985.3,-5105.67 2874.37,-5182.8 2822.71,-5218.72"/>
<polygon fill="black" stroke="black" points="2820.58,-5215.95 2814.36,-5224.53 2824.57,-5221.69 2820.58,-5215.95"/>
<text text-anchor="start" x="2862.26" y="-5150.52" font-family="Times New Roman,serif" font-size="14.00">investigates</text>
</g>
<!-- Entity2 -->
<g id="node5" class="node entity">
<title>Entity2</title>
<ellipse fill="none" stroke="black" cx="3126.08" cy="-3492.78" rx="56.59" ry="18"/>
<text text-anchor="start" x="3090.58" y="-3489.08" font-family="Times New Roman,serif" font-size="14.00">arthur young</text>
</g>
<!-- Entity2&#45;&gt;Entity16 -->
<g id="edge3" class="edge verb">
<title>Entity2&#45;&gt;Entity16</title>
<path fill="none" stroke="black" d="M3118.2,-3510.66C3098.07,-3556.33 3044.68,-3677.47 3020.69,-3731.91"/>
<polygon fill="black" stroke="black" points="3017.39,-3730.7 3016.56,-3741.27 3023.8,-3733.53 3017.39,-3730.7"/>
<text text-anchor="start" x="3007.44" y="-3625.09" font-family="Times New Roman,serif" font-size="14.00">member&#45;of</text>
</g>
<!-- Entity2&#45;&gt;Entity75 -->
<g id="edge18" class="edge verb">
<title>Entity2&#45;&gt;Entity75</title>
<path fill="none" stroke="black" d="M3124.82,-3510.91C3117.37,-3617.72 3079.22,-4164.57 3070.07,-4295.74"/>
<polygon fill="black" stroke="black" points="3066.57,-4295.58 3069.36,-4305.8 3073.55,-4296.07 3066.57,-4295.58"/>
<text text-anchor="start" x="3056.44" y="-3907.13" font-family="Times New Roman,serif" font-size="14.00">studied</text>
</g>
<!-- Entity76 -->
<g id="node29" class="node entity">
<title>Entity76</title>
<ellipse fill="none" stroke="black" cx="3128.78" cy="-2777.81" rx="53.89" ry="18"/>
<text text-anchor="start" x="3095.28" y="-2774.11" font-family="Times New Roman,serif" font-size="14.00">bell aviation</text>
</g>
<!-- Entity2&#45;&gt;Entity76 -->
<g id="edge20" class="edge verb">
<title>Entity2&#45;&gt;Entity76</title>
<path fill="none" stroke="black" d="M3126.15,-3474.75C3126.51,-3378.45 3128.22,-2924.79 3128.67,-2806.22"/>
<polygon fill="black" stroke="black" points="3132.17,-2806.13 3128.71,-2796.11 3125.17,-2806.1 3132.17,-2806.13"/>
<text text-anchor="start" x="3086.41" y="-3144.28" font-family="Times New Roman,serif" font-size="14.00">created</text>
</g>
<!-- Entity31 -->
<g id="node6" class="node entity">
<title>Entity31</title>
<ellipse fill="none" stroke="black" cx="3622.63" cy="-7008.07" rx="58.49" ry="18"/>
<text text-anchor="start" x="3585.63" y="-7004.37" font-family="Times New Roman,serif" font-size="14.00">steve bannon</text>
</g>
<!-- Entity22 -->
<g id="node7" class="node entity">
<title>Entity22</title>
<ellipse fill="none" stroke="black" cx="3320.53" cy="-6304.16" rx="59.59" ry="18"/>
<text text-anchor="start" x="3282.53" y="-6300.46" font-family="Times New Roman,serif" font-size="14.00">donald trump</text>
</g>
<!-- Entity31&#45;&gt;Entity22 -->
<g id="edge4" class="edge verb">
<title>Entity31&#45;&gt;Entity22</title>
<path fill="none" stroke="black" d="M3617.4,-6990.12C3582.68,-6894.61 3390.52,-6446.37 3335.24,-6331.18"/>
<polygon fill="black" stroke="black" points="3338.28,-6329.44 3330.76,-6321.98 3331.99,-6332.5 3338.28,-6329.44"/>
<text text-anchor="start" x="3421.32" y="-6649.45" font-family="Times New Roman,serif" font-size="14.00">promoted</text>
</g>
<!-- Entity31&#45;&gt;Entity22 -->
<g id="edge10" class="edge verb">
<title>Entity31&#45;&gt;Entity22</title>
<path fill="none" stroke="black" d="M3612.36,-6990.18C3565.33,-6895.01 3373.5,-6448.39 3329.42,-6331.96"/>
<polygon fill="black" stroke="black" points="3332.61,-6330.49 3325.84,-6322.34 3326.05,-6332.93 3332.61,-6330.49"/>
<text text-anchor="start" x="3428.89" y="-6664.87" font-family="Times New Roman,serif" font-size="14.00">advises</text>
</g>
<!-- Entity80 -->
<g id="node31" class="node entity">
<title>Entity80</title>
<ellipse fill="none" stroke="black" cx="3881.18" cy="-7573.84" rx="61.99" ry="18"/>
<text text-anchor="start" x="3841.68" y="-7570.14" font-family="Times New Roman,serif" font-size="14.00">breitbart news</text>
</g>
<!-- Entity31&#45;&gt;Entity80 -->
<g id="edge46" class="edge verb">
<title>Entity31&#45;&gt;Entity80</title>
<path fill="none" stroke="black" d="M3630.79,-7025.94C3668.22,-7107.84 3823.49,-7447.61 3868.75,-7546.64"/>
<polygon fill="black" stroke="black" points="3865.67,-7548.33 3873.01,-7555.97 3872.04,-7545.42 3865.67,-7548.33"/>
<text text-anchor="start" x="3708.77" y="-7290.09" font-family="Times New Roman,serif" font-size="14.00">created</text>
</g>
<!-- Entity92 -->
<g id="node33" class="node entity">
<title>Entity92</title>
<ellipse fill="none" stroke="black" cx="3792.9" cy="-7359.68" rx="35.19" ry="18"/>
<text text-anchor="start" x="3773.9" y="-7355.98" font-family="Times New Roman,serif" font-size="14.00">gurgev</text>
</g>
<!-- Entity31&#45;&gt;Entity92 -->
<g id="edge26" class="edge verb">
<title>Entity31&#45;&gt;Entity92</title>
<path fill="none" stroke="black" d="M3631.3,-7025.99C3659.14,-7083.48 3746.33,-7263.53 3779.72,-7332.46"/>
<polygon fill="black" stroke="black" points="3776.73,-7334.32 3784.24,-7341.8 3783.03,-7331.27 3776.73,-7334.32"/>
<text text-anchor="start" x="3664.51" y="-7183.03" font-family="Times New Roman,serif" font-size="14.00">studied</text>
</g>
<!-- Entity95 -->
<g id="node35" class="node entity">
<title>Entity95</title>
<ellipse fill="none" stroke="black" cx="4111.5" cy="-7123.48" rx="53.09" ry="18"/>
<text text-anchor="start" x="4078.5" y="-7119.78" font-family="Times New Roman,serif" font-size="14.00">biosphere 2</text>
</g>
<!-- Entity31&#45;&gt;Entity95 -->
<g id="edge29" class="edge verb">
<title>Entity31&#45;&gt;Entity95</title>
<path fill="none" stroke="black" d="M3669.06,-7019.03C3759.99,-7040.5 3961.06,-7087.96 4057.65,-7110.77"/>
<polygon fill="black" stroke="black" points="4056.96,-7114.2 4067.5,-7113.09 4058.57,-7107.39 4056.96,-7114.2"/>
<text text-anchor="start" x="3822.35" y="-7068.7" font-family="Times New Roman,serif" font-size="14.00">created</text>
</g>
<!-- Entity104 -->
<g id="node48" class="node entity">
<title>Entity104</title>
<ellipse fill="none" stroke="black" cx="4093.24" cy="-7327.46" rx="64.99" ry="18"/>
<text text-anchor="start" x="4051.24" y="-7323.76" font-family="Times New Roman,serif" font-size="14.00">goldman sachs</text>
</g>
<!-- Entity31&#45;&gt;Entity104 -->
<g id="edge54" class="edge verb">
<title>Entity31&#45;&gt;Entity104</title>
<path fill="none" stroke="black" d="M3646.94,-7024.57C3725.17,-7077.67 3970.53,-7244.18 4060.09,-7304.96"/>
<polygon fill="black" stroke="black" points="4058.27,-7307.96 4068.51,-7310.68 4062.2,-7302.16 4058.27,-7307.96"/>
<text text-anchor="start" x="3790.52" y="-7168.57" font-family="Times New Roman,serif" font-size="14.00">worked for</text>
</g>
<!-- Entity112 -->
<g id="node55" class="node entity">
<title>Entity112</title>
<ellipse fill="none" stroke="black" cx="3225.71" cy="-7455.53" rx="77.19" ry="18"/>
<text text-anchor="start" x="3174.21" y="-7451.83" font-family="Times New Roman,serif" font-size="14.00">hollywood movies</text>
</g>
<!-- Entity31&#45;&gt;Entity112 -->
<g id="edge60" class="edge verb">
<title>Entity31&#45;&gt;Entity112</title>
<path fill="none" stroke="black" d="M3607.07,-7025.61C3545.82,-7094.66 3321.16,-7347.92 3248.53,-7429.8"/>
<polygon fill="black" stroke="black" points="3245.62,-7427.82 3241.6,-7437.62 3250.85,-7432.46 3245.62,-7427.82"/>
<text text-anchor="start" x="3372.8" y="-7231.51" font-family="Times New Roman,serif" font-size="14.00">produced</text>
</g>
<!-- Entity117 -->
<g id="node61" class="node entity">
<title>Entity117</title>
<ellipse fill="none" stroke="black" cx="3572.78" cy="-7467.63" rx="38.19" ry="18"/>
<text text-anchor="start" x="3551.28" y="-7463.93" font-family="Times New Roman,serif" font-size="14.00">us navy</text>
</g>
<!-- Entity31&#45;&gt;Entity117 -->
<g id="edge67" class="edge verb">
<title>Entity31&#45;&gt;Entity117</title>
<path fill="none" stroke="black" d="M3620.67,-7026.09C3613.04,-7096.43 3585.22,-7352.92 3575.87,-7439.14"/>
<polygon fill="black" stroke="black" points="3572.37,-7438.92 3574.77,-7449.24 3579.33,-7439.67 3572.37,-7438.92"/>
<text text-anchor="start" x="3537.27" y="-7236.41" font-family="Times New Roman,serif" font-size="14.00">member of</text>
</g>
<!-- Entity44 -->
<g id="node15" class="node entity">
<title>Entity44</title>
<ellipse fill="none" stroke="black" cx="3116.68" cy="-5621.4" rx="50.09" ry="18"/>
<text text-anchor="start" x="3086.18" y="-5617.7" font-family="Times New Roman,serif" font-size="14.00">john trump</text>
</g>
<!-- Entity22&#45;&gt;Entity44 -->
<g id="edge11" class="edge verb">
<title>Entity22&#45;&gt;Entity44</title>
<path fill="none" stroke="black" d="M3315.07,-6285.9C3287.02,-6191.92 3158.89,-5762.79 3124.95,-5649.11"/>
<polygon fill="black" stroke="black" points="3128.27,-5647.98 3122.05,-5639.4 3121.56,-5649.99 3128.27,-5647.98"/>
<text text-anchor="start" x="3161.01" y="-5971.3" font-family="Times New Roman,serif" font-size="14.00">nephew of</text>
</g>
<!-- Entity22&#45;&gt;Entity77 -->
<g id="edge38" class="edge verb">
<title>Entity22&#45;&gt;Entity77</title>
<path fill="none" stroke="black" d="M3307.3,-6286.56C3259.66,-6223.14 3096.68,-6006.17 3040.76,-5931.74"/>
<polygon fill="black" stroke="black" points="3043.3,-5929.28 3034.49,-5923.39 3037.7,-5933.49 3043.3,-5929.28"/>
<text text-anchor="start" x="3158.03" y="-6112.95" font-family="Times New Roman,serif" font-size="14.00">isa</text>
</g>
<!-- Entity61 -->
<g id="node8" class="node entity">
<title>Entity61</title>
<ellipse fill="none" stroke="black" cx="3351.99" cy="-1062.57" rx="49.29" ry="18"/>
<text text-anchor="start" x="3321.99" y="-1058.87" font-family="Times New Roman,serif" font-size="14.00">adolf hitler</text>
</g>
<!-- Entity71 -->
<g id="node9" class="node entity">
<title>Entity71</title>
<ellipse fill="none" stroke="black" cx="3154.15" cy="-1403.12" rx="32.49" ry="18"/>
<text text-anchor="start" x="3137.15" y="-1399.42" font-family="Times New Roman,serif" font-size="14.00">nsdap</text>
</g>
<!-- Entity61&#45;&gt;Entity71 -->
<g id="edge5" class="edge verb">
<title>Entity61&#45;&gt;Entity71</title>
<path fill="none" stroke="black" d="M3341.63,-1080.4C3308.97,-1136.62 3208.03,-1310.37 3169.41,-1376.87"/>
<polygon fill="black" stroke="black" points="3166.17,-1375.47 3164.17,-1385.87 3172.22,-1378.98 3166.17,-1375.47"/>
<text text-anchor="start" x="3214.52" y="-1232.44" font-family="Times New Roman,serif" font-size="14.00">created</text>
</g>
<!-- Entity115 -->
<g id="node58" class="node entity">
<title>Entity115</title>
<ellipse fill="none" stroke="black" cx="3086.78" cy="-957.41" rx="38.99" ry="18"/>
<text text-anchor="start" x="3064.78" y="-953.71" font-family="Times New Roman,serif" font-size="14.00">far right</text>
</g>
<!-- Entity71&#45;&gt;Entity115 -->
<g id="edge64" class="edge verb">
<title>Entity71&#45;&gt;Entity115</title>
<path fill="none" stroke="black" d="M3151.43,-1385.09C3141.03,-1316.29 3103.77,-1069.83 3091.06,-985.75"/>
<polygon fill="black" stroke="black" points="3094.49,-985.02 3089.53,-975.66 3087.57,-986.07 3094.49,-985.02"/>
<text text-anchor="start" x="3060.24" y="-1189.22" font-family="Times New Roman,serif" font-size="14.00">member of</text>
</g>
<!-- Entity6 -->
<g id="node10" class="node entity">
<title>Entity6</title>
<ellipse fill="none" stroke="black" cx="3316.73" cy="-3780.65" rx="64.19" ry="18"/>
<text text-anchor="start" x="3275.23" y="-3776.95" font-family="Times New Roman,serif" font-size="14.00">andre puharich</text>
</g>
<!-- Entity6&#45;&gt;Entity8 -->
<g id="edge6" class="edge verb">
<title>Entity6&#45;&gt;Entity8</title>
<path fill="none" stroke="black" d="M3259.4,-3788.91C3151.56,-3804.44 2920.26,-3837.76 2818.57,-3852.41"/>
<polygon fill="black" stroke="black" points="2817.96,-3848.96 2808.56,-3853.85 2818.96,-3855.89 2817.96,-3848.96"/>
<text text-anchor="start" x="2978.98" y="-3824.46" font-family="Times New Roman,serif" font-size="14.00">sponsored</text>
</g>
<!-- Entity3 -->
<g id="node11" class="node entity">
<title>Entity3</title>
<ellipse fill="none" stroke="black" cx="2643.64" cy="-3967.73" rx="68.49" ry="18"/>
<text text-anchor="start" x="2599.14" y="-3964.03" font-family="Times New Roman,serif" font-size="14.00">jeffrey mishlove</text>
</g>
<!-- Entity3&#45;&gt;Entity8 -->
<g id="edge7" class="edge verb">
<title>Entity3&#45;&gt;Entity8</title>
<path fill="none" stroke="black" d="M2663.76,-3950.35C2685.04,-3931.98 2718.71,-3902.9 2742.19,-3882.62"/>
<polygon fill="black" stroke="black" points="2744.75,-3885.03 2750.03,-3875.84 2740.17,-3879.73 2744.75,-3885.03"/>
<text text-anchor="start" x="2647.97" y="-3920.28" font-family="Times New Roman,serif" font-size="14.00">promoted</text>
</g>
<!-- Entity3&#45;&gt;Entity75 -->
<g id="edge22" class="edge verb">
<title>Entity3&#45;&gt;Entity75</title>
<path fill="none" stroke="black" d="M2659.98,-3985.3C2722.71,-4044.21 2948.23,-4233.87 3034.37,-4300.64"/>
<polygon fill="black" stroke="black" points="3032.44,-4303.57 3042.5,-4306.89 3036.71,-4298.02 3032.44,-4303.57"/>
<text text-anchor="start" x="2806.18" y="-4146.77" font-family="Times New Roman,serif" font-size="14.00">studied</text>
</g>
<!-- Entity3&#45;&gt;Entity75 -->
<g id="edge28" class="edge verb">
<title>Entity3&#45;&gt;Entity75</title>
<path fill="none" stroke="black" d="M2668.88,-3984.63C2744.75,-4042.37 2969.76,-4231.18 3044.05,-4299.34"/>
<polygon fill="black" stroke="black" points="3041.84,-4302.06 3051.55,-4306.3 3046.6,-4296.93 3041.84,-4302.06"/>
<text text-anchor="start" x="2792.46" y="-4130.78" font-family="Times New Roman,serif" font-size="14.00">investigates</text>
</g>
<!-- Entity20 -->
<g id="node12" class="node entity">
<title>Entity20</title>
<ellipse fill="none" stroke="black" cx="3471.53" cy="-5568.03" rx="68.49" ry="18"/>
<text text-anchor="start" x="3427.03" y="-5564.33" font-family="Times New Roman,serif" font-size="14.00">george hw bush</text>
</g>
<!-- Entity24 -->
<g id="node13" class="node entity">
<title>Entity24</title>
<ellipse fill="none" stroke="black" cx="3457.97" cy="-5675.93" rx="63.89" ry="18"/>
<text text-anchor="start" x="3416.97" y="-5672.23" font-family="Times New Roman,serif" font-size="14.00">george w bush</text>
</g>
<!-- Entity20&#45;&gt;Entity24 -->
<g id="edge8" class="edge verb">
<title>Entity20&#45;&gt;Entity24</title>
<path fill="none" stroke="black" d="M3469.23,-5586.33C3467.11,-5603.17 3463.94,-5628.41 3461.5,-5647.81"/>
<polygon fill="black" stroke="black" points="3458.01,-5647.54 3460.24,-5657.9 3464.96,-5648.41 3458.01,-5647.54"/>
<text text-anchor="start" x="3433.36" y="-5620.87" font-family="Times New Roman,serif" font-size="14.00">father</text>
</g>
<!-- Entity20&#45;&gt;Entity77 -->
<g id="edge40" class="edge verb">
<title>Entity20&#45;&gt;Entity77</title>
<path fill="none" stroke="black" d="M3448.91,-5585.04C3373.63,-5641.68 3131.61,-5823.78 3049.39,-5885.64"/>
<polygon fill="black" stroke="black" points="3046.94,-5883.1 3041.06,-5891.91 3051.15,-5888.7 3046.94,-5883.1"/>
<text text-anchor="start" x="3233.15" y="-5739.14" font-family="Times New Roman,serif" font-size="14.00">isa</text>
</g>
<!-- Entity24&#45;&gt;Entity77 -->
<g id="edge42" class="edge verb">
<title>Entity24&#45;&gt;Entity77</title>
<path fill="none" stroke="black" d="M3427.64,-5691.96C3348.37,-5733.85 3135.47,-5846.34 3054.04,-5889.37"/>
<polygon fill="black" stroke="black" points="3051.99,-5886.5 3044.78,-5894.27 3055.26,-5892.69 3051.99,-5886.5"/>
<text text-anchor="start" x="3224.84" y="-5794.46" font-family="Times New Roman,serif" font-size="14.00">isa</text>
</g>
<!-- Entity1 -->
<g id="node14" class="node entity">
<title>Entity1</title>
<ellipse fill="none" stroke="black" cx="2756.57" cy="-3314.3" rx="74.99" ry="18"/>
<text text-anchor="start" x="2707.07" y="-3310.6" font-family="Times New Roman,serif" font-size="14.00">gene roddenberry</text>
</g>
<!-- Entity1&#45;&gt;Entity16 -->
<g id="edge9" class="edge verb">
<title>Entity1&#45;&gt;Entity16</title>
<path fill="none" stroke="black" d="M2766.76,-3332.28C2805.98,-3401.45 2947.18,-3650.53 2993.72,-3732.62"/>
<polygon fill="black" stroke="black" points="2990.69,-3734.38 2998.67,-3741.35 2996.78,-3730.93 2990.69,-3734.38"/>
<text text-anchor="start" x="2776.24" y="-3536.25" font-family="Times New Roman,serif" font-size="14.00">claiemd to channel</text>
</g>
<!-- Entity44&#45;&gt;Entity25 -->
<g id="edge13" class="edge verb">
<title>Entity44&#45;&gt;Entity25</title>
<path fill="none" stroke="black" d="M3114.5,-5603.41C3104.67,-5522.22 3064.38,-5189.67 3052.3,-5089.9"/>
<polygon fill="black" stroke="black" points="3055.74,-5089.2 3051.06,-5079.69 3048.79,-5090.04 3055.74,-5089.2"/>
<text text-anchor="start" x="3022.4" y="-5350.45" font-family="Times New Roman,serif" font-size="14.00">member of</text>
</g>
<!-- Entity111 -->
<g id="node51" class="node entity">
<title>Entity111</title>
<ellipse fill="none" stroke="black" cx="3479.24" cy="-5310.38" rx="50.89" ry="18"/>
<text text-anchor="start" x="3448.24" y="-5306.68" font-family="Times New Roman,serif" font-size="14.00">nikola tesla</text>
</g>
<!-- Entity44&#45;&gt;Entity111 -->
<g id="edge56" class="edge verb">
<title>Entity44&#45;&gt;Entity111</title>
<path fill="none" stroke="black" d="M3136.17,-5604.68C3196.67,-5552.79 3381.34,-5394.36 3451.66,-5334.04"/>
<polygon fill="black" stroke="black" points="3454.34,-5336.35 3459.65,-5327.19 3449.78,-5331.04 3454.34,-5336.35"/>
<text text-anchor="start" x="3252.92" y="-5473.16" font-family="Times New Roman,serif" font-size="14.00">studied</text>
</g>
<!-- Entity34 -->
<g id="node16" class="node entity">
<title>Entity34</title>
<ellipse fill="none" stroke="black" cx="1776.99" cy="-6866.24" rx="90.98" ry="18"/>
<text text-anchor="start" x="1714.99" y="-6862.54" font-family="Times New Roman,serif" font-size="14.00">emma hardinge&#45;britten</text>
</g>
<!-- Entity28 -->
<g id="node17" class="node entity">
<title>Entity28</title>
<ellipse fill="none" stroke="black" cx="2484.82" cy="-6342.77" rx="67.69" ry="18"/>
<text text-anchor="start" x="2440.82" y="-6339.07" font-family="Times New Roman,serif" font-size="14.00">abraham lincoln</text>
</g>
<!-- Entity34&#45;&gt;Entity28 -->
<g id="edge12" class="edge verb">
<title>Entity34&#45;&gt;Entity28</title>
<path fill="none" stroke="black" d="M1800.54,-6848.82C1905.95,-6770.86 2334.51,-6453.93 2453.85,-6365.68"/>
<polygon fill="black" stroke="black" points="2455.94,-6368.49 2461.89,-6359.73 2451.77,-6362.86 2455.94,-6368.49"/>
<text text-anchor="start" x="2028.19" y="-6611.05" font-family="Times New Roman,serif" font-size="14.00">spokesperson for</text>
</g>
<!-- Entity97 -->
<g id="node36" class="node entity">
<title>Entity97</title>
<ellipse fill="none" stroke="black" cx="1246.45" cy="-6992.46" rx="39.79" ry="18"/>
<text text-anchor="start" x="1223.95" y="-6988.76" font-family="Times New Roman,serif" font-size="14.00">medium</text>
</g>
<!-- Entity34&#45;&gt;Entity97 -->
<g id="edge30" class="edge verb">
<title>Entity34&#45;&gt;Entity97</title>
<path fill="none" stroke="black" d="M1718.69,-6880.11C1612.08,-6905.47 1387.82,-6958.82 1291.72,-6981.69"/>
<polygon fill="black" stroke="black" points="1290.66,-6978.34 1281.74,-6984.06 1292.28,-6985.15 1290.66,-6978.34"/>
<text text-anchor="start" x="1489.21" y="-6934.7" font-family="Times New Roman,serif" font-size="14.00">isa</text>
</g>
<!-- Entity96 -->
<g id="node37" class="node entity">
<title>Entity96</title>
<ellipse fill="none" stroke="black" cx="1072.02" cy="-7354.09" rx="85.29" ry="18"/>
<text text-anchor="start" x="1014.52" y="-7350.39" font-family="Times New Roman,serif" font-size="14.00">theosophical society</text>
</g>
<!-- Entity34&#45;&gt;Entity96 -->
<g id="edge31" class="edge verb">
<title>Entity34&#45;&gt;Entity96</title>
<path fill="none" stroke="black" d="M1751.9,-6883.6C1644.95,-6957.61 1227.06,-7246.8 1105.41,-7330.98"/>
<polygon fill="black" stroke="black" points="1103.41,-7328.11 1097.17,-7336.68 1107.39,-7333.87 1103.41,-7328.11"/>
<text text-anchor="start" x="1387.65" y="-7111.09" font-family="Times New Roman,serif" font-size="14.00">created</text>
</g>
<!-- Entity118 -->
<g id="node60" class="node entity">
<title>Entity118</title>
<ellipse fill="none" stroke="black" cx="1512.1" cy="-7406.54" rx="55.79" ry="18"/>
<text text-anchor="start" x="1477.1" y="-7402.84" font-family="Times New Roman,serif" font-size="14.00">orphic circle</text>
</g>
<!-- Entity34&#45;&gt;Entity118 -->
<g id="edge66" class="edge verb">
<title>Entity34&#45;&gt;Entity118</title>
<path fill="none" stroke="black" d="M1768.17,-6884.22C1729.21,-6963.7 1572.24,-7283.87 1525.38,-7379.46"/>
<polygon fill="black" stroke="black" points="1522.21,-7377.98 1520.95,-7388.5 1528.49,-7381.06 1522.21,-7377.98"/>
<text text-anchor="start" x="1585.78" y="-7135.64" font-family="Times New Roman,serif" font-size="14.00">member of</text>
</g>
<!-- Entity28&#45;&gt;Entity77 -->
<g id="edge47" class="edge verb">
<title>Entity28&#45;&gt;Entity77</title>
<path fill="none" stroke="black" d="M2506.2,-6325.4C2590.92,-6256.55 2902.99,-6002.95 2995.65,-5927.65"/>
<polygon fill="black" stroke="black" points="2997.87,-5930.35 3003.43,-5921.33 2993.46,-5924.92 2997.87,-5930.35"/>
<text text-anchor="start" x="2734.92" y="-6130.32" font-family="Times New Roman,serif" font-size="14.00">isa</text>
</g>
<!-- Entity70 -->
<g id="node18" class="node entity">
<title>Entity70</title>
<ellipse fill="none" stroke="black" cx="3030.25" cy="-17.69" rx="36.29" ry="18"/>
<text text-anchor="start" x="3010.25" y="-13.99" font-family="Times New Roman,serif" font-size="14.00">oswald</text>
</g>
<!-- Entity69 -->
<g id="node19" class="node entity">
<title>Entity69</title>
<ellipse fill="none" stroke="black" cx="3052.33" cy="-458.15" rx="59.29" ry="18"/>
<text text-anchor="start" x="3014.83" y="-454.45" font-family="Times New Roman,serif" font-size="14.00">guy bannister</text>
</g>
<!-- Entity70&#45;&gt;Entity69 -->
<g id="edge14" class="edge verb">
<title>Entity70&#45;&gt;Entity69</title>
<path fill="none" stroke="black" d="M3031.16,-35.78C3034.58,-104.01 3046.72,-346.18 3050.9,-429.63"/>
<polygon fill="black" stroke="black" points="3047.41,-429.85 3051.41,-439.66 3054.4,-429.5 3047.41,-429.85"/>
<text text-anchor="start" x="2978.03" y="-236.51" font-family="Times New Roman,serif" font-size="14.00">worked for</text>
</g>
<!-- Entity69&#45;&gt;Entity115 -->
<g id="edge63" class="edge verb">
<title>Entity69&#45;&gt;Entity115</title>
<path fill="none" stroke="black" d="M3053.58,-476.21C3058.75,-551.14 3078.52,-837.79 3084.83,-929.22"/>
<polygon fill="black" stroke="black" points="3081.35,-929.63 3085.53,-939.37 3088.33,-929.15 3081.35,-929.63"/>
<text text-anchor="start" x="3008.21" y="-706.51" font-family="Times New Roman,serif" font-size="14.00">member of</text>
</g>
<!-- Entity68 -->
<g id="node20" class="node entity">
<title>Entity68</title>
<ellipse fill="none" stroke="black" cx="3322.42" cy="-6122.04" rx="37.89" ry="18"/>
<text text-anchor="start" x="3301.42" y="-6118.34" font-family="Times New Roman,serif" font-size="14.00">hunt oil</text>
</g>
<!-- Entity67 -->
<g id="node21" class="node entity">
<title>Entity67</title>
<ellipse fill="none" stroke="black" cx="3349.37" cy="-6013.96" rx="77.99" ry="18"/>
<text text-anchor="start" x="3297.37" y="-6010.26" font-family="Times New Roman,serif" font-size="14.00">dwight eisenhower</text>
</g>
<!-- Entity68&#45;&gt;Entity67 -->
<g id="edge15" class="edge verb">
<title>Entity68&#45;&gt;Entity67</title>
<path fill="none" stroke="black" d="M3326.99,-6103.7C3331.22,-6086.76 3337.56,-6061.33 3342.42,-6041.86"/>
<polygon fill="black" stroke="black" points="3345.84,-6042.58 3344.87,-6032.03 3339.05,-6040.88 3345.84,-6042.58"/>
<text text-anchor="start" x="3294.7" y="-6076.58" font-family="Times New Roman,serif" font-size="14.00">funded</text>
</g>
<!-- Entity67&#45;&gt;Entity77 -->
<g id="edge33" class="edge verb">
<title>Entity67&#45;&gt;Entity77</title>
<path fill="none" stroke="black" d="M3304.51,-5999.24C3239.1,-5977.77 3118.81,-5938.29 3058.4,-5918.46"/>
<polygon fill="black" stroke="black" points="3059.48,-5915.13 3048.89,-5915.34 3057.3,-5921.78 3059.48,-5915.13"/>
<text text-anchor="start" x="3162.45" y="-5947.65" font-family="Times New Roman,serif" font-size="14.00">is a</text>
</g>
<!-- Entity58 -->
<g id="node22" class="node entity">
<title>Entity58</title>
<ellipse fill="none" stroke="black" cx="3526.15" cy="-2311.13" rx="46.29" ry="18"/>
<text text-anchor="start" x="3498.65" y="-2307.43" font-family="Times New Roman,serif" font-size="14.00">van braun</text>
</g>
<!-- Entity35 -->
<g id="node23" class="node entity">
<title>Entity35</title>
<ellipse fill="none" stroke="black" cx="3179.23" cy="-2032.52" rx="74.99" ry="18"/>
<text text-anchor="start" x="3129.73" y="-2028.82" font-family="Times New Roman,serif" font-size="14.00">walter dornberger</text>
</g>
<!-- Entity58&#45;&gt;Entity35 -->
<g id="edge16" class="edge verb">
<title>Entity58&#45;&gt;Entity35</title>
<path fill="none" stroke="black" d="M3505.74,-2294.74C3446.98,-2247.56 3277.23,-2111.23 3208.57,-2056.08"/>
<polygon fill="black" stroke="black" points="3210.7,-2053.31 3200.71,-2049.77 3206.32,-2058.76 3210.7,-2053.31"/>
<text text-anchor="start" x="3294.16" y="-2179.21" font-family="Times New Roman,serif" font-size="14.00">worked for</text>
</g>
<!-- Entity100 -->
<g id="node38" class="node entity">
<title>Entity100</title>
<ellipse fill="none" stroke="black" cx="3698.73" cy="-2203.12" rx="90.98" ry="18"/>
<text text-anchor="start" x="3636.73" y="-2199.42" font-family="Times New Roman,serif" font-size="14.00">nsdap rocket program</text>
</g>
<!-- Entity58&#45;&gt;Entity100 -->
<g id="edge51" class="edge verb">
<title>Entity58&#45;&gt;Entity100</title>
<path fill="none" stroke="black" d="M3550.87,-2295.66C3580.14,-2277.34 3629.11,-2246.7 3662.61,-2225.73"/>
<polygon fill="black" stroke="black" points="3664.58,-2228.62 3671.2,-2220.35 3660.87,-2222.69 3664.58,-2228.62"/>
<text text-anchor="start" x="3550.74" y="-2264.49" font-family="Times New Roman,serif" font-size="14.00">worked at</text>
</g>
<!-- Entity35&#45;&gt;Entity71 -->
<g id="edge52" class="edge verb">
<title>Entity35&#45;&gt;Entity71</title>
<path fill="none" stroke="black" d="M3178.51,-2014.36C3174.98,-1925.89 3159.6,-1539.89 3155.29,-1431.51"/>
<polygon fill="black" stroke="black" points="3158.78,-1431.2 3154.88,-1421.35 3151.78,-1431.48 3158.78,-1431.2"/>
<text text-anchor="start" x="3105.9" y="-1726.74" font-family="Times New Roman,serif" font-size="14.00">member of</text>
</g>
<!-- Entity35&#45;&gt;Entity76 -->
<g id="edge25" class="edge verb">
<title>Entity35&#45;&gt;Entity76</title>
<path fill="none" stroke="black" d="M3175.7,-2050.79C3163.17,-2150.38 3130.68,-2627.79 3127.9,-2749.51"/>
<polygon fill="black" stroke="black" points="3124.4,-2749.48 3127.73,-2759.54 3131.4,-2749.6 3124.4,-2749.48"/>
<text text-anchor="start" x="3095.8" y="-2403.95" font-family="Times New Roman,serif" font-size="14.00">worked at</text>
</g>
<!-- Entity35&#45;&gt;Entity76 -->
<g id="edge32" class="edge verb">
<title>Entity35&#45;&gt;Entity76</title>
<path fill="none" stroke="black" d="M3180.28,-2050.73C3179.34,-2150.27 3147.13,-2628.6 3133.46,-2749.83"/>
<polygon fill="black" stroke="black" points="3129.98,-2749.47 3132.28,-2759.81 3136.93,-2750.29 3129.98,-2749.47"/>
<text text-anchor="start" x="3156.87" y="-2404.08" font-family="Times New Roman,serif" font-size="14.00">vice&#45;president</text>
</g>
<!-- Entity35&#45;&gt;Entity100 -->
<g id="edge34" class="edge verb">
<title>Entity35&#45;&gt;Entity100</title>
<path fill="none" stroke="black" d="M3223.52,-2047.07C3317.66,-2077.98 3537.51,-2150.18 3641.84,-2184.44"/>
<polygon fill="black" stroke="black" points="3640.98,-2187.84 3651.57,-2187.63 3643.16,-2181.19 3640.98,-2187.84"/>
<text text-anchor="start" x="3391.68" y="-2119.55" font-family="Times New Roman,serif" font-size="14.00">created</text>
</g>
<!-- Entity99 -->
<g id="node42" class="node entity">
<title>Entity99</title>
<ellipse fill="none" stroke="black" cx="3498.05" cy="-1555.6" rx="65.79" ry="18"/>
<text text-anchor="start" x="3455.55" y="-1551.9" font-family="Times New Roman,serif" font-size="14.00">x series aircraft</text>
</g>
<!-- Entity35&#45;&gt;Entity99 -->
<g id="edge39" class="edge verb">
<title>Entity35&#45;&gt;Entity99</title>
<path fill="none" stroke="black" d="M3191.15,-2014.7C3239.68,-1942.1 3422.6,-1668.47 3480.41,-1581.97"/>
<polygon fill="black" stroke="black" points="3483.42,-1583.77 3486.07,-1573.51 3477.6,-1579.88 3483.42,-1583.77"/>
<text text-anchor="start" x="3294.78" y="-1802.14" font-family="Times New Roman,serif" font-size="14.00">created</text>
</g>
<!-- Entity72 -->
<g id="node24" class="node entity">
<title>Entity72</title>
<ellipse fill="none" stroke="black" cx="1611.94" cy="-4138.66" rx="27" ry="18"/>
<text text-anchor="start" x="1608.44" y="-4134.96" font-family="Times New Roman,serif" font-size="14.00">s</text>
</g>
<!-- Entity74 -->
<g id="node25" class="node entity">
<title>Entity74</title>
<ellipse fill="none" stroke="black" cx="1699.66" cy="-4250.64" rx="27" ry="18"/>
<text text-anchor="start" x="1695.66" y="-4246.94" font-family="Times New Roman,serif" font-size="14.00">o</text>
</g>
<!-- Entity72&#45;&gt;Entity74 -->
<g id="edge17" class="edge verb">
<title>Entity72&#45;&gt;Entity74</title>
<path fill="none" stroke="black" d="M1624.51,-4154.7C1639.23,-4173.5 1663.76,-4204.82 1680.78,-4226.53"/>
<polygon fill="black" stroke="black" points="1678.19,-4228.91 1687.11,-4234.62 1683.7,-4224.59 1678.19,-4228.91"/>
<text text-anchor="start" x="1645.64" y="-4194.42" font-family="Times New Roman,serif" font-size="14.00">v</text>
</g>
<!-- Entity21 -->
<g id="node27" class="node entity">
<title>Entity21</title>
<ellipse fill="none" stroke="black" cx="2686.14" cy="-5848.81" rx="35.19" ry="18"/>
<text text-anchor="start" x="2667.14" y="-5845.11" font-family="Times New Roman,serif" font-size="14.00">obama</text>
</g>
<!-- Entity21&#45;&gt;Entity77 -->
<g id="edge19" class="edge verb">
<title>Entity21&#45;&gt;Entity77</title>
<path fill="none" stroke="black" d="M2719.54,-5854.55C2781.55,-5865.19 2914.22,-5887.97 2981.24,-5899.48"/>
<polygon fill="black" stroke="black" points="2980.96,-5902.98 2991.41,-5901.22 2982.14,-5896.08 2980.96,-5902.98"/>
<text text-anchor="start" x="2834.39" y="-5880.81" font-family="Times New Roman,serif" font-size="14.00">isa</text>
</g>
<!-- Entity32 -->
<g id="node30" class="node entity">
<title>Entity32</title>
<ellipse fill="none" stroke="black" cx="4136.84" cy="-8092.74" rx="69.59" ry="18"/>
<text text-anchor="start" x="4091.34" y="-8089.04" font-family="Times New Roman,serif" font-size="14.00">andrew breitbart</text>
</g>
<!-- Entity32&#45;&gt;Entity80 -->
<g id="edge21" class="edge verb">
<title>Entity32&#45;&gt;Entity80</title>
<path fill="none" stroke="black" d="M4128.04,-8074.88C4090.09,-7997.86 3940.3,-7693.84 3894.53,-7600.95"/>
<polygon fill="black" stroke="black" points="3897.63,-7599.32 3890.07,-7591.9 3891.35,-7602.41 3897.63,-7599.32"/>
<text text-anchor="start" x="3970.29" y="-7841.71" font-family="Times New Roman,serif" font-size="14.00">created</text>
</g>
<!-- Entity43 -->
<g id="node32" class="node entity">
<title>Entity43</title>
<ellipse fill="none" stroke="black" cx="3673.85" cy="-5906.04" rx="71.49" ry="18"/>
<text text-anchor="start" x="3626.85" y="-5902.34" font-family="Times New Roman,serif" font-size="14.00">woodrow wilson</text>
</g>
<!-- Entity43&#45;&gt;Entity77 -->
<g id="edge23" class="edge verb">
<title>Entity43&#45;&gt;Entity77</title>
<path fill="none" stroke="black" d="M3602.2,-5906.08C3465.64,-5906.17 3172.03,-5906.34 3063.33,-5906.41"/>
<polygon fill="black" stroke="black" points="3063.1,-5902.91 3053.1,-5906.42 3063.11,-5909.91 3063.1,-5902.91"/>
<text text-anchor="start" x="3316.77" y="-5910.05" font-family="Times New Roman,serif" font-size="14.00">isa</text>
</g>
<!-- Entity110 -->
<g id="node53" class="node entity">
<title>Entity110</title>
<ellipse fill="none" stroke="black" cx="4263.76" cy="-6097.35" rx="71.49" ry="18"/>
<text text-anchor="start" x="4216.76" y="-6093.65" font-family="Times New Roman,serif" font-size="14.00">leauge of nations</text>
</g>
<!-- Entity43&#45;&gt;Entity110 -->
<g id="edge58" class="edge verb">
<title>Entity43&#45;&gt;Entity110</title>
<path fill="none" stroke="black" d="M3717.71,-5920.26C3823.83,-5954.68 4094.2,-6042.36 4209.9,-6079.88"/>
<polygon fill="black" stroke="black" points="4209.03,-6083.28 4219.62,-6083.03 4211.19,-6076.62 4209.03,-6083.28"/>
<text text-anchor="start" x="3922.81" y="-6003.87" font-family="Times New Roman,serif" font-size="14.00">created</text>
</g>
<!-- Entity27 -->
<g id="node34" class="node entity">
<title>Entity27</title>
<ellipse fill="none" stroke="black" cx="2622.33" cy="-4075.63" rx="63.89" ry="18"/>
<text text-anchor="start" x="2581.33" y="-4071.93" font-family="Times New Roman,serif" font-size="14.00">robert bigelow</text>
</g>
<!-- Entity27&#45;&gt;Entity3 -->
<g id="edge27" class="edge verb">
<title>Entity27&#45;&gt;Entity3</title>
<path fill="none" stroke="black" d="M2625.95,-4057.32C2629.29,-4040.4 2634.3,-4015.02 2638.14,-3995.58"/>
<polygon fill="black" stroke="black" points="2641.58,-3996.25 2640.08,-3985.76 2634.71,-3994.9 2641.58,-3996.25"/>
<text text-anchor="start" x="2600.04" y="-4030.25" font-family="Times New Roman,serif" font-size="14.00">funds</text>
</g>
<!-- Entity27&#45;&gt;Entity75 -->
<g id="edge43" class="edge verb">
<title>Entity27&#45;&gt;Entity75</title>
<path fill="none" stroke="black" d="M2651.23,-4091.74C2728.75,-4134.94 2941.31,-4253.4 3029.23,-4302.4"/>
<polygon fill="black" stroke="black" points="3027.65,-4305.52 3038.09,-4307.33 3031.05,-4299.41 3027.65,-4305.52"/>
<text text-anchor="start" x="2776.23" y="-4200.87" font-family="Times New Roman,serif" font-size="14.00">investigates</text>
</g>
<!-- Entity48 -->
<g id="node39" class="node entity">
<title>Entity48</title>
<ellipse fill="none" stroke="black" cx="602.82" cy="-7813.19" rx="58.49" ry="18"/>
<text text-anchor="start" x="565.82" y="-7809.49" font-family="Times New Roman,serif" font-size="14.00">rudolf steiner</text>
</g>
<!-- Entity48&#45;&gt;Entity96 -->
<g id="edge35" class="edge verb">
<title>Entity48&#45;&gt;Entity96</title>
<path fill="none" stroke="black" d="M620.64,-7795.76C692.63,-7725.31 962.16,-7461.58 1046.57,-7378.98"/>
<polygon fill="black" stroke="black" points="1049.23,-7381.28 1053.93,-7371.79 1044.33,-7376.28 1049.23,-7381.28"/>
<text text-anchor="start" x="767.61" y="-7591.17" font-family="Times New Roman,serif" font-size="14.00">memberr of</text>
</g>
<!-- Entity109 -->
<g id="node54" class="node entity">
<title>Entity109</title>
<ellipse fill="none" stroke="black" cx="101.96" cy="-8228.32" rx="102.08" ry="18"/>
<text text-anchor="start" x="31.46" y="-8224.62" font-family="Times New Roman,serif" font-size="14.00">anthroposophical society</text>
</g>
<!-- Entity48&#45;&gt;Entity109 -->
<g id="edge59" class="edge verb">
<title>Entity48&#45;&gt;Entity109</title>
<path fill="none" stroke="black" d="M582.26,-7830.24C503.72,-7895.33 222.59,-8128.33 131.02,-8204.23"/>
<polygon fill="black" stroke="black" points="128.73,-8201.59 123.26,-8210.66 133.19,-8206.98 128.73,-8201.59"/>
<text text-anchor="start" x="315.64" y="-8021.03" font-family="Times New Roman,serif" font-size="14.00">created</text>
</g>
<!-- Entity18 -->
<g id="node40" class="node entity">
<title>Entity18</title>
<ellipse fill="none" stroke="black" cx="2600" cy="-5998.88" rx="58.49" ry="18"/>
<text text-anchor="start" x="2563" y="-5995.18" font-family="Times New Roman,serif" font-size="14.00">richard nixon</text>
</g>
<!-- Entity18&#45;&gt;Entity77 -->
<g id="edge36" class="edge verb">
<title>Entity18&#45;&gt;Entity77</title>
<path fill="none" stroke="black" d="M2647.97,-5988.37C2732.17,-5969.91 2904.97,-5932.03 2982.54,-5915.03"/>
<polygon fill="black" stroke="black" points="2983.38,-5918.43 2992.39,-5912.87 2981.88,-5911.59 2983.38,-5918.43"/>
<text text-anchor="start" x="2799.25" y="-5955.5" font-family="Times New Roman,serif" font-size="14.00">isa</text>
</g>
<!-- Entity17 -->
<g id="node41" class="node entity">
<title>Entity17</title>
<ellipse fill="none" stroke="black" cx="2614.64" cy="-6167.74" rx="56.59" ry="18"/>
<text text-anchor="start" x="2579.14" y="-6164.04" font-family="Times New Roman,serif" font-size="14.00">harry truman</text>
</g>
<!-- Entity17&#45;&gt;Entity77 -->
<g id="edge37" class="edge verb">
<title>Entity17&#45;&gt;Entity77</title>
<path fill="none" stroke="black" d="M2639.8,-6151.59C2711.27,-6105.72 2915.27,-5974.78 2992.05,-5925.5"/>
<polygon fill="black" stroke="black" points="2994.24,-5928.26 3000.76,-5919.91 2990.45,-5922.37 2994.24,-5928.26"/>
<text text-anchor="start" x="2799.92" y="-6042.35" font-family="Times New Roman,serif" font-size="14.00">isa</text>
</g>
<!-- Entity116 -->
<g id="node59" class="node entity">
<title>Entity116</title>
<ellipse fill="none" stroke="black" cx="2114.07" cy="-6295.46" rx="55.79" ry="18"/>
<text text-anchor="start" x="2079.07" y="-6291.76" font-family="Times New Roman,serif" font-size="14.00">freemasonry</text>
</g>
<!-- Entity17&#45;&gt;Entity116 -->
<g id="edge65" class="edge verb">
<title>Entity17&#45;&gt;Entity116</title>
<path fill="none" stroke="black" d="M2570.22,-6179.07C2478.27,-6202.53 2267.36,-6256.34 2167.88,-6281.73"/>
<polygon fill="black" stroke="black" points="2166.86,-6278.38 2158.03,-6284.24 2168.59,-6285.16 2166.86,-6278.38"/>
<text text-anchor="start" x="2308.05" y="-6234.2" font-family="Times New Roman,serif" font-size="14.00">member of</text>
</g>
<!-- Entity23 -->
<g id="node43" class="node entity">
<title>Entity23</title>
<ellipse fill="none" stroke="black" cx="2817.5" cy="-5579.93" rx="31.4" ry="18"/>
<text text-anchor="start" x="2801.5" y="-5576.23" font-family="Times New Roman,serif" font-size="14.00">carter</text>
</g>
<!-- Entity23&#45;&gt;Entity77 -->
<g id="edge41" class="edge verb">
<title>Entity23&#45;&gt;Entity77</title>
<path fill="none" stroke="black" d="M2828.2,-5597.02C2861.76,-5650.67 2965.16,-5815.97 3005.45,-5880.37"/>
<polygon fill="black" stroke="black" points="3002.65,-5882.49 3010.92,-5889.11 3008.58,-5878.78 3002.65,-5882.49"/>
<text text-anchor="start" x="2900.82" y="-5742.5" font-family="Times New Roman,serif" font-size="14.00">isa</text>
</g>
<!-- Entity23&#45;&gt;Entity108 -->
<g id="edge57" class="edge verb">
<title>Entity23&#45;&gt;Entity108</title>
<path fill="none" stroke="black" d="M2816.32,-5561.53C2812.68,-5505.1 2801.67,-5334.24 2797.28,-5266.14"/>
<polygon fill="black" stroke="black" points="2800.74,-5265.52 2796.61,-5255.76 2793.76,-5265.97 2800.74,-5265.52"/>
<text text-anchor="start" x="2751.8" y="-5417.63" font-family="Times New Roman,serif" font-size="14.00">witnessed</text>
</g>
<!-- Entity50 -->
<g id="node44" class="node entity">
<title>Entity50</title>
<ellipse fill="none" stroke="black" cx="450.39" cy="-7519.45" rx="73.39" ry="18"/>
<text text-anchor="start" x="401.89" y="-7515.75" font-family="Times New Roman,serif" font-size="14.00">madam blavatsky</text>
</g>
<!-- Entity50&#45;&gt;Entity96 -->
<g id="edge44" class="edge verb">
<title>Entity50&#45;&gt;Entity96</title>
<path fill="none" stroke="black" d="M500.21,-7506.2C612.55,-7476.31 885.44,-7403.72 1009.17,-7370.81"/>
<polygon fill="black" stroke="black" points="1010.13,-7374.17 1018.89,-7368.22 1008.33,-7367.41 1010.13,-7374.17"/>
<text text-anchor="start" x="713.69" y="-7442.3" font-family="Times New Roman,serif" font-size="14.00">created</text>
</g>
<!-- Entity51 -->
<g id="node45" class="node entity">
<title>Entity51</title>
<ellipse fill="none" stroke="black" cx="4227.95" cy="-5828.11" rx="53.89" ry="18"/>
<text text-anchor="start" x="4194.45" y="-5824.41" font-family="Times New Roman,serif" font-size="14.00">edgar casey</text>
</g>
<!-- Entity51&#45;&gt;Entity43 -->
<g id="edge48" class="edge verb">
<title>Entity51&#45;&gt;Entity43</title>
<path fill="none" stroke="black" d="M4177.8,-5835.16C4079.41,-5849 3860.72,-5879.76 3746.5,-5895.82"/>
<polygon fill="black" stroke="black" points="3745.86,-5892.38 3736.45,-5897.24 3746.84,-5899.31 3745.86,-5892.38"/>
<text text-anchor="start" x="3920.15" y="-5869.29" font-family="Times New Roman,serif" font-size="14.00">advises</text>
</g>
<!-- Entity29 -->
<g id="node46" class="node entity">
<title>Entity29</title>
<ellipse fill="none" stroke="black" cx="2884.91" cy="-2364.97" rx="57.69" ry="18"/>
<text text-anchor="start" x="2848.41" y="-2361.27" font-family="Times New Roman,serif" font-size="14.00">michael pane</text>
</g>
<!-- Entity29&#45;&gt;Entity35 -->
<g id="edge50" class="edge verb">
<title>Entity29&#45;&gt;Entity35</title>
<path fill="none" stroke="black" d="M2900.32,-2347.56C2948.98,-2292.6 3099.52,-2122.56 3156.8,-2057.86"/>
<polygon fill="black" stroke="black" points="3159.61,-2059.96 3163.62,-2050.16 3154.37,-2055.32 3159.61,-2059.96"/>
<text text-anchor="start" x="2965.56" y="-2206.51" font-family="Times New Roman,serif" font-size="14.00">worked for</text>
</g>
<!-- Entity29&#45;&gt;Entity76 -->
<g id="edge49" class="edge verb">
<title>Entity29&#45;&gt;Entity76</title>
<path fill="none" stroke="black" d="M2895.39,-2382.71C2933.85,-2447.81 3067.37,-2673.85 3113.2,-2751.43"/>
<polygon fill="black" stroke="black" points="3110.24,-2753.3 3118.34,-2760.13 3116.27,-2749.74 3110.24,-2753.3"/>
<text text-anchor="start" x="2948.29" y="-2570.87" font-family="Times New Roman,serif" font-size="14.00">worked at</text>
</g>
<!-- Entity30 -->
<g id="node49" class="node entity">
<title>Entity30</title>
<ellipse fill="none" stroke="black" cx="2258.94" cy="-4138.66" rx="39.79" ry="18"/>
<text text-anchor="start" x="2236.44" y="-4134.96" font-family="Times New Roman,serif" font-size="14.00">crowley</text>
</g>
<!-- Entity106 -->
<g id="node50" class="node entity">
<title>Entity106</title>
<ellipse fill="none" stroke="black" cx="2346.66" cy="-4250.64" rx="38.99" ry="18"/>
<text text-anchor="start" x="2324.66" y="-4246.94" font-family="Times New Roman,serif" font-size="14.00">x magic</text>
</g>
<!-- Entity30&#45;&gt;Entity106 -->
<g id="edge55" class="edge verb">
<title>Entity30&#45;&gt;Entity106</title>
<path fill="none" stroke="black" d="M2272.26,-4155.67C2286.82,-4174.25 2310.28,-4204.2 2326.96,-4225.49"/>
<polygon fill="black" stroke="black" points="2324.29,-4227.76 2333.21,-4233.47 2329.8,-4223.44 2324.29,-4227.76"/>
<text text-anchor="start" x="2238.61" y="-4194.38" font-family="Times New Roman,serif" font-size="14.00">member of</text>
</g>
<!-- Entity56 -->
<g id="node56" class="node entity">
<title>Entity56</title>
<ellipse fill="none" stroke="black" cx="2272.94" cy="-3504.66" rx="53.89" ry="18"/>
<text text-anchor="start" x="2239.44" y="-3500.96" font-family="Times New Roman,serif" font-size="14.00">black magic</text>
</g>
<!-- Entity114 -->
<g id="node57" class="node entity">
<title>Entity114</title>
<ellipse fill="none" stroke="black" cx="2360.66" cy="-3616.64" rx="28.7" ry="18"/>
<text text-anchor="start" x="2346.66" y="-3612.94" font-family="Times New Roman,serif" font-size="14.00">x left</text>
</g>
<!-- Entity56&#45;&gt;Entity114 -->
<g id="edge61" class="edge verb">
<title>Entity56&#45;&gt;Entity114</title>
<path fill="none" stroke="black" d="M2286.64,-3522.16C2301.45,-3541.05 2325.14,-3571.29 2341.72,-3592.45"/>
<polygon fill="black" stroke="black" points="2338.98,-3594.64 2347.9,-3600.36 2344.49,-3590.32 2338.98,-3594.64"/>
<text text-anchor="start" x="2253.18" y="-3561.11" font-family="Times New Roman,serif" font-size="14.00">member of</text>
</g>
</g>
</svg>
