<?xml version="1.0" encoding="UTF-8" standalone="no"?>
<?xml-stylesheet href="./styles.css" type="text/css"?>
<!DOCTYPE svg PUBLIC "-//W3C//DTD SVG 1.1//EN"
 "http://www.w3.org/Graphics/SVG/1.1/DTD/svg11.dtd">
<!-- Generated by graphviz version 2.47.3 (20210619.1520)
 -->
<!-- Title: G Pages: 1 -->
<svg width="6062pt" height="3851pt"
 viewBox="0.00 0.00 6062.00 3851.00" xmlns="http://www.w3.org/2000/svg" xmlns:xlink="http://www.w3.org/1999/xlink">
<g id="graph0" class="graph" transform="scale(1 1) rotate(0) translate(4 3847)">
<title>G</title>
<polygon fill="white" stroke="transparent" points="-4,4 -4,-3847 6058,-3847 6058,4 -4,4"/>
<!-- Entity3 -->
<g id="node1" class="node entity">
<title>Entity3</title>
<ellipse fill="none" stroke="black" cx="4171.62" cy="-1149.58" rx="27" ry="18"/>
<text text-anchor="start" x="4164.12" y="-1145.88" font-family="Times New Roman,serif" font-size="14.00">jfk</text>
</g>
<!-- Entity22 -->
<g id="node2" class="node entity">
<title>Entity22</title>
<ellipse fill="none" stroke="black" cx="4042.35" cy="-827.25" rx="27" ry="18"/>
<text text-anchor="start" x="4034.35" y="-823.55" font-family="Times New Roman,serif" font-size="14.00">cia</text>
</g>
<!-- Entity3&#45;&gt;Entity22 -->
<g id="edge1" class="edge verb">
<title>Entity3&#45;&gt;Entity22</title>
<path fill="none" stroke="black" d="M4164.49,-1131.79C4143.04,-1078.3 4079.01,-918.65 4053.26,-854.44"/>
<polygon fill="black" stroke="black" points="4056.44,-852.96 4049.47,-844.98 4049.94,-855.57 4056.44,-852.96"/>
<text text-anchor="start" x="4004.87" y="-996.91" font-family="Times New Roman,serif" font-size="14.00">heads (1961&#45;1963)</text>
</g>
<!-- Entity66 -->
<g id="node20" class="node entity">
<title>Entity66</title>
<ellipse fill="none" stroke="black" cx="4287.54" cy="-1507.31" rx="31.4" ry="18"/>
<text text-anchor="start" x="4271.54" y="-1503.61" font-family="Times New Roman,serif" font-size="14.00">potus</text>
</g>
<!-- Entity3&#45;&gt;Entity66 -->
<g id="edge23" class="edge verb">
<title>Entity3&#45;&gt;Entity66</title>
<path fill="none" stroke="black" d="M4177.37,-1167.32C4196.14,-1225.25 4255.74,-1409.18 4278.55,-1479.55"/>
<polygon fill="black" stroke="black" points="4275.34,-1481.02 4281.76,-1489.46 4282,-1478.87 4275.34,-1481.02"/>
<text text-anchor="start" x="4140.96" y="-1327.23" font-family="Times New Roman,serif" font-size="14.00">isa (1961&#45;1963)</text>
</g>
<!-- Entity67 -->
<g id="node25" class="node entity">
<title>Entity67</title>
<ellipse fill="none" stroke="black" cx="3456.86" cy="-919.68" rx="77.19" ry="18"/>
<text text-anchor="start" x="3405.36" y="-915.98" font-family="Times New Roman,serif" font-size="14.00">psi&#45;consciousness</text>
</g>
<!-- Entity22&#45;&gt;Entity67 -->
<g id="edge43" class="edge verb">
<title>Entity22&#45;&gt;Entity67</title>
<path fill="none" stroke="black" d="M4016.06,-831.4C3931.27,-844.79 3662.92,-887.15 3531.22,-907.94"/>
<polygon fill="black" stroke="black" points="3530.55,-904.5 3521.22,-909.52 3531.64,-911.41 3530.55,-904.5"/>
<text text-anchor="start" x="3709.64" y="-873.47" font-family="Times New Roman,serif" font-size="14.00">investigates</text>
</g>
<!-- Entity90 -->
<g id="node52" class="node entity">
<title>Entity90</title>
<ellipse fill="none" stroke="black" cx="4338.24" cy="-852.27" rx="27" ry="18"/>
<text text-anchor="start" x="4328.74" y="-848.57" font-family="Times New Roman,serif" font-size="14.00">ufo</text>
</g>
<!-- Entity22&#45;&gt;Entity90 -->
<g id="edge62" class="edge verb">
<title>Entity22&#45;&gt;Entity90</title>
<path fill="none" stroke="black" d="M4069.4,-829.54C4122.56,-834.03 4240.74,-844.03 4301.14,-849.14"/>
<polygon fill="black" stroke="black" points="4301.11,-852.65 4311.37,-850 4301.7,-845.67 4301.11,-852.65"/>
<text text-anchor="start" x="4121.27" y="-843.14" font-family="Times New Roman,serif" font-size="14.00">investigates</text>
</g>
<!-- Entity14 -->
<g id="node3" class="node entity">
<title>Entity14</title>
<ellipse fill="none" stroke="black" cx="3043.62" cy="-1027.21" rx="74.99" ry="18"/>
<text text-anchor="start" x="2994.12" y="-1023.51" font-family="Times New Roman,serif" font-size="14.00">gene roddenberry</text>
</g>
<!-- Entity8 -->
<g id="node4" class="node entity">
<title>Entity8</title>
<ellipse fill="none" stroke="black" cx="2693.69" cy="-1027.42" rx="38.19" ry="18"/>
<text text-anchor="start" x="2672.19" y="-1023.72" font-family="Times New Roman,serif" font-size="14.00">the nine</text>
</g>
<!-- Entity14&#45;&gt;Entity8 -->
<g id="edge2" class="edge verb">
<title>Entity14&#45;&gt;Entity8</title>
<path fill="none" stroke="black" d="M2968.55,-1027.25C2900.16,-1027.3 2801.14,-1027.35 2742.5,-1027.39"/>
<polygon fill="black" stroke="black" points="2742.39,-1023.89 2732.39,-1027.4 2742.39,-1030.89 2742.39,-1023.89"/>
<text text-anchor="start" x="2751.53" y="-1031.12" font-family="Times New Roman,serif" font-size="14.00">claiemd to channel</text>
</g>
<!-- Entity70 -->
<g id="node23" class="node entity">
<title>Entity70</title>
<ellipse fill="none" stroke="black" cx="3120.3" cy="-1345.36" rx="94.48" ry="18"/>
<text text-anchor="start" x="3055.8" y="-1341.66" font-family="Times New Roman,serif" font-size="14.00">egyptian gods in a ship</text>
</g>
<!-- Entity8&#45;&gt;Entity70 -->
<g id="edge16" class="edge verb">
<title>Entity8&#45;&gt;Entity70</title>
<path fill="none" stroke="black" d="M2714.26,-1042.75C2783.13,-1094.08 3005.89,-1260.1 3088.81,-1321.9"/>
<polygon fill="black" stroke="black" points="3086.74,-1324.72 3096.85,-1327.89 3090.92,-1319.1 3086.74,-1324.72"/>
<text text-anchor="start" x="2797.54" y="-1186.12" font-family="Times New Roman,serif" font-size="14.00">claimed to channel</text>
</g>
<!-- Entity16 -->
<g id="node5" class="node entity">
<title>Entity16</title>
<ellipse fill="none" stroke="black" cx="3885.89" cy="-1775.69" rx="68.49" ry="18"/>
<text text-anchor="start" x="3841.39" y="-1771.99" font-family="Times New Roman,serif" font-size="14.00">george hw bush</text>
</g>
<!-- Entity20 -->
<g id="node6" class="node entity">
<title>Entity20</title>
<ellipse fill="none" stroke="black" cx="3858.41" cy="-1667.7" rx="63.89" ry="18"/>
<text text-anchor="start" x="3817.41" y="-1664" font-family="Times New Roman,serif" font-size="14.00">george w bush</text>
</g>
<!-- Entity16&#45;&gt;Entity20 -->
<g id="edge3" class="edge verb">
<title>Entity16&#45;&gt;Entity20</title>
<path fill="none" stroke="black" d="M3881.23,-1757.37C3876.92,-1740.44 3870.46,-1715.03 3865.51,-1695.57"/>
<polygon fill="black" stroke="black" points="3868.87,-1694.58 3863.01,-1685.75 3862.08,-1696.3 3868.87,-1694.58"/>
<text text-anchor="start" x="3841.37" y="-1730.27" font-family="Times New Roman,serif" font-size="14.00">father</text>
</g>
<!-- Entity16&#45;&gt;Entity66 -->
<g id="edge20" class="edge verb">
<title>Entity16&#45;&gt;Entity66</title>
<path fill="none" stroke="black" d="M3911.02,-1758.9C3981.82,-1711.59 4182.7,-1577.36 4258.29,-1526.85"/>
<polygon fill="black" stroke="black" points="4260.5,-1529.58 4266.87,-1521.12 4256.61,-1523.76 4260.5,-1529.58"/>
<text text-anchor="start" x="4068.65" y="-1646.68" font-family="Times New Roman,serif" font-size="14.00">isa</text>
</g>
<!-- Entity20&#45;&gt;Entity66 -->
<g id="edge42" class="edge verb">
<title>Entity20&#45;&gt;Entity66</title>
<path fill="none" stroke="black" d="M3896.87,-1653.32C3979.24,-1622.54 4171.68,-1550.61 4251.67,-1520.71"/>
<polygon fill="black" stroke="black" points="4253.16,-1523.89 4261.3,-1517.11 4250.71,-1517.33 4253.16,-1523.89"/>
<text text-anchor="start" x="4058.27" y="-1590.82" font-family="Times New Roman,serif" font-size="14.00">isa</text>
</g>
<!-- Entity2 -->
<g id="node7" class="node entity">
<title>Entity2</title>
<ellipse fill="none" stroke="black" cx="3068.12" cy="-918.43" rx="41.69" ry="18"/>
<text text-anchor="start" x="3044.12" y="-914.73" font-family="Times New Roman,serif" font-size="14.00">uri geller</text>
</g>
<!-- Entity2&#45;&gt;Entity8 -->
<g id="edge4" class="edge verb">
<title>Entity2&#45;&gt;Entity8</title>
<path fill="none" stroke="black" d="M3033.56,-928.49C2964.83,-948.49 2811.16,-993.22 2736.3,-1015.01"/>
<polygon fill="black" stroke="black" points="2734.9,-1011.78 2726.28,-1017.93 2736.86,-1018.5 2734.9,-1011.78"/>
<text text-anchor="start" x="2780.93" y="-975.55" font-family="Times New Roman,serif" font-size="14.00">claiemd to channel</text>
</g>
<!-- Entity26 -->
<g id="node8" class="node entity">
<title>Entity26</title>
<ellipse fill="none" stroke="black" cx="722.81" cy="-2996.49" rx="49.29" ry="18"/>
<text text-anchor="start" x="692.81" y="-2992.79" font-family="Times New Roman,serif" font-size="14.00">adolf hitler</text>
</g>
<!-- Entity28 -->
<g id="node9" class="node entity">
<title>Entity28</title>
<ellipse fill="none" stroke="black" cx="1116.86" cy="-2898.31" rx="32.49" ry="18"/>
<text text-anchor="start" x="1099.86" y="-2894.61" font-family="Times New Roman,serif" font-size="14.00">nsdap</text>
</g>
<!-- Entity26&#45;&gt;Entity28 -->
<g id="edge5" class="edge verb">
<title>Entity26&#45;&gt;Entity28</title>
<path fill="none" stroke="black" d="M763.87,-2986.26C839.93,-2967.31 1001.83,-2926.97 1076.99,-2908.24"/>
<polygon fill="black" stroke="black" points="1078.14,-2911.56 1087,-2905.75 1076.45,-2904.77 1078.14,-2911.56"/>
<text text-anchor="start" x="879.43" y="-2951.05" font-family="Times New Roman,serif" font-size="14.00">created</text>
</g>
<!-- Entity75 -->
<g id="node31" class="node entity">
<title>Entity75</title>
<ellipse fill="none" stroke="black" cx="781.37" cy="-3222.18" rx="38.99" ry="18"/>
<text text-anchor="start" x="759.37" y="-3218.48" font-family="Times New Roman,serif" font-size="14.00">far right</text>
</g>
<!-- Entity28&#45;&gt;Entity75 -->
<g id="edge29" class="edge verb">
<title>Entity28&#45;&gt;Entity75</title>
<path fill="none" stroke="black" d="M1100.68,-2913.93C1046.47,-2966.26 871.03,-3135.63 805.95,-3198.45"/>
<polygon fill="black" stroke="black" points="803.35,-3196.1 798.58,-3205.56 808.21,-3201.14 803.35,-3196.1"/>
<text text-anchor="start" x="892.32" y="-3059.99" font-family="Times New Roman,serif" font-size="14.00">member of</text>
</g>
<!-- Entity15 -->
<g id="node10" class="node entity">
<title>Entity15</title>
<ellipse fill="none" stroke="black" cx="4743.01" cy="-1083.12" rx="59.59" ry="18"/>
<text text-anchor="start" x="4705.01" y="-1079.42" font-family="Times New Roman,serif" font-size="14.00">donald trump</text>
</g>
<!-- Entity48 -->
<g id="node11" class="node entity">
<title>Entity48</title>
<ellipse fill="none" stroke="black" cx="4448.41" cy="-623.67" rx="50.09" ry="18"/>
<text text-anchor="start" x="4417.91" y="-619.97" font-family="Times New Roman,serif" font-size="14.00">john trump</text>
</g>
<!-- Entity15&#45;&gt;Entity48 -->
<g id="edge6" class="edge verb">
<title>Entity15&#45;&gt;Entity48</title>
<path fill="none" stroke="black" d="M4731.65,-1065.39C4686.4,-994.82 4518.94,-733.67 4465.16,-649.79"/>
<polygon fill="black" stroke="black" points="4468.09,-647.88 4459.74,-641.35 4462.19,-651.65 4468.09,-647.88"/>
<text text-anchor="start" x="4539.4" y="-861.39" font-family="Times New Roman,serif" font-size="14.00">nephew of</text>
</g>
<!-- Entity15&#45;&gt;Entity66 -->
<g id="edge27" class="edge verb">
<title>Entity15&#45;&gt;Entity66</title>
<path fill="none" stroke="black" d="M4724.6,-1100.27C4652.99,-1166.96 4393.13,-1408.97 4311.95,-1484.58"/>
<polygon fill="black" stroke="black" points="4309.16,-1482.39 4304.23,-1491.76 4313.93,-1487.51 4309.16,-1482.39"/>
<text text-anchor="start" x="4502.27" y="-1296.22" font-family="Times New Roman,serif" font-size="14.00">isa</text>
</g>
<!-- Entity48&#45;&gt;Entity22 -->
<g id="edge10" class="edge verb">
<title>Entity48&#45;&gt;Entity22</title>
<path fill="none" stroke="black" d="M4419.21,-638.31C4344.92,-675.56 4149.26,-773.65 4073.21,-811.78"/>
<polygon fill="black" stroke="black" points="4071.49,-808.72 4064.12,-816.34 4074.63,-814.98 4071.49,-808.72"/>
<text text-anchor="start" x="4185.21" y="-728.85" font-family="Times New Roman,serif" font-size="14.00">member of</text>
</g>
<!-- Entity82 -->
<g id="node41" class="node entity">
<title>Entity82</title>
<ellipse fill="none" stroke="black" cx="4594.75" cy="-158.83" rx="50.89" ry="18"/>
<text text-anchor="start" x="4563.75" y="-155.13" font-family="Times New Roman,serif" font-size="14.00">nikola tesla</text>
</g>
<!-- Entity48&#45;&gt;Entity82 -->
<g id="edge40" class="edge verb">
<title>Entity48&#45;&gt;Entity82</title>
<path fill="none" stroke="black" d="M4454.06,-605.73C4476.42,-534.71 4558.85,-272.85 4586.01,-186.59"/>
<polygon fill="black" stroke="black" points="4589.38,-187.56 4589.04,-176.97 4582.7,-185.45 4589.38,-187.56"/>
<text text-anchor="start" x="4479.03" y="-399.96" font-family="Times New Roman,serif" font-size="14.00">studied</text>
</g>
<!-- Entity5 -->
<g id="node12" class="node entity">
<title>Entity5</title>
<ellipse fill="none" stroke="black" cx="2777.77" cy="-1453.69" rx="56.59" ry="18"/>
<text text-anchor="start" x="2742.27" y="-1449.99" font-family="Times New Roman,serif" font-size="14.00">arthur young</text>
</g>
<!-- Entity5&#45;&gt;Entity8 -->
<g id="edge7" class="edge verb">
<title>Entity5&#45;&gt;Entity8</title>
<path fill="none" stroke="black" d="M2774.21,-1435.65C2761.08,-1369.07 2715.28,-1136.88 2699.26,-1055.7"/>
<polygon fill="black" stroke="black" points="2702.66,-1054.84 2697.29,-1045.71 2695.79,-1056.19 2702.66,-1054.84"/>
<text text-anchor="start" x="2674.74" y="-1249.47" font-family="Times New Roman,serif" font-size="14.00">member&#45;of</text>
</g>
<!-- Entity5&#45;&gt;Entity67 -->
<g id="edge18" class="edge verb">
<title>Entity5&#45;&gt;Entity67</title>
<path fill="none" stroke="black" d="M2799.21,-1436.83C2898.19,-1358.99 3310.95,-1034.42 3426.61,-943.46"/>
<polygon fill="black" stroke="black" points="3429.03,-946.01 3434.73,-937.08 3424.7,-940.51 3429.03,-946.01"/>
<text text-anchor="start" x="3071.91" y="-1193.94" font-family="Times New Roman,serif" font-size="14.00">studied</text>
</g>
<!-- Entity72 -->
<g id="node28" class="node entity">
<title>Entity72</title>
<ellipse fill="none" stroke="black" cx="2225.92" cy="-1967.21" rx="53.89" ry="18"/>
<text text-anchor="start" x="2192.42" y="-1963.51" font-family="Times New Roman,serif" font-size="14.00">bell aviation</text>
</g>
<!-- Entity5&#45;&gt;Entity72 -->
<g id="edge24" class="edge verb">
<title>Entity5&#45;&gt;Entity72</title>
<path fill="none" stroke="black" d="M2759.41,-1470.78C2677.73,-1546.78 2347.24,-1854.31 2251.83,-1943.1"/>
<polygon fill="black" stroke="black" points="2249.28,-1940.68 2244.35,-1950.06 2254.05,-1945.81 2249.28,-1940.68"/>
<text text-anchor="start" x="2464.62" y="-1710.74" font-family="Times New Roman,serif" font-size="14.00">created</text>
</g>
<!-- Entity1 -->
<g id="node13" class="node entity">
<title>Entity1</title>
<ellipse fill="none" stroke="black" cx="3025.9" cy="-810.4" rx="64.19" ry="18"/>
<text text-anchor="start" x="2984.4" y="-806.7" font-family="Times New Roman,serif" font-size="14.00">andre puharich</text>
</g>
<!-- Entity1&#45;&gt;Entity2 -->
<g id="edge8" class="edge verb">
<title>Entity1&#45;&gt;Entity2</title>
<path fill="none" stroke="black" d="M3033.07,-828.73C3039.72,-845.75 3049.71,-871.32 3057.33,-890.81"/>
<polygon fill="black" stroke="black" points="3054.16,-892.34 3061.06,-900.38 3060.68,-889.79 3054.16,-892.34"/>
<text text-anchor="start" x="2985.2" y="-863.57" font-family="Times New Roman,serif" font-size="14.00">sponsored</text>
</g>
<!-- Entity7 -->
<g id="node14" class="node entity">
<title>Entity7</title>
<ellipse fill="none" stroke="black" cx="3469.13" cy="-811.6" rx="68.49" ry="18"/>
<text text-anchor="start" x="3424.63" y="-807.9" font-family="Times New Roman,serif" font-size="14.00">jeffrey mishlove</text>
</g>
<!-- Entity7&#45;&gt;Entity2 -->
<g id="edge9" class="edge verb">
<title>Entity7&#45;&gt;Entity2</title>
<path fill="none" stroke="black" d="M3420.76,-824.49C3342.61,-845.31 3189.66,-886.05 3113.48,-906.35"/>
<polygon fill="black" stroke="black" points="3112.46,-903 3103.69,-908.95 3114.26,-909.76 3112.46,-903"/>
<text text-anchor="start" x="3212.12" y="-869.22" font-family="Times New Roman,serif" font-size="14.00">promoted</text>
</g>
<!-- Entity7&#45;&gt;Entity67 -->
<g id="edge19" class="edge verb">
<title>Entity7&#45;&gt;Entity67</title>
<path fill="none" stroke="black" d="M3461.76,-829.83C3458.13,-846.68 3455.02,-871.98 3454.06,-891.44"/>
<polygon fill="black" stroke="black" points="3450.55,-891.46 3453.75,-901.56 3457.55,-891.67 3450.55,-891.46"/>
<text text-anchor="start" x="3416.91" y="-864.44" font-family="Times New Roman,serif" font-size="14.00">studied</text>
</g>
<!-- Entity7&#45;&gt;Entity67 -->
<g id="edge26" class="edge verb">
<title>Entity7&#45;&gt;Entity67</title>
<path fill="none" stroke="black" d="M3472.24,-830.03C3472.09,-847 3469.5,-872.41 3466.09,-891.85"/>
<polygon fill="black" stroke="black" points="3462.65,-891.19 3464.18,-901.67 3469.52,-892.52 3462.65,-891.19"/>
<text text-anchor="start" x="3469.16" y="-864.74" font-family="Times New Roman,serif" font-size="14.00">investigates</text>
</g>
<!-- Entity30 -->
<g id="node15" class="node entity">
<title>Entity30</title>
<ellipse fill="none" stroke="black" cx="1634.18" cy="-2488.44" rx="74.99" ry="18"/>
<text text-anchor="start" x="1584.68" y="-2484.74" font-family="Times New Roman,serif" font-size="14.00">walter dornberger</text>
</g>
<!-- Entity30&#45;&gt;Entity28 -->
<g id="edge11" class="edge verb">
<title>Entity30&#45;&gt;Entity28</title>
<path fill="none" stroke="black" d="M1612.29,-2505.79C1529.3,-2571.54 1234.27,-2805.29 1143.58,-2877.14"/>
<polygon fill="black" stroke="black" points="1141.36,-2874.43 1135.7,-2883.39 1145.71,-2879.92 1141.36,-2874.43"/>
<text text-anchor="start" x="1316.93" y="-2695.27" font-family="Times New Roman,serif" font-size="14.00">member of</text>
</g>
<!-- Entity30&#45;&gt;Entity72 -->
<g id="edge35" class="edge verb">
<title>Entity30&#45;&gt;Entity72</title>
<path fill="none" stroke="black" d="M1657.77,-2471.34C1753.02,-2394.45 2108.23,-2081.64 2202.74,-1991.54"/>
<polygon fill="black" stroke="black" points="2205.3,-1993.93 2210.08,-1984.47 2200.45,-1988.88 2205.3,-1993.93"/>
<text text-anchor="start" x="1851.25" y="-2235.24" font-family="Times New Roman,serif" font-size="14.00">vice&#45;president</text>
</g>
<!-- Entity30&#45;&gt;Entity72 -->
<g id="edge49" class="edge verb">
<title>Entity30&#45;&gt;Entity72</title>
<path fill="none" stroke="black" d="M1650.55,-2470.66C1731.43,-2392.18 2088.15,-2077.7 2195.37,-1989.97"/>
<polygon fill="black" stroke="black" points="2197.68,-1992.61 2203.24,-1983.58 2193.27,-1987.17 2197.68,-1992.61"/>
<text text-anchor="start" x="1866.96" y="-2219.12" font-family="Times New Roman,serif" font-size="14.00">worked at</text>
</g>
<!-- Entity76 -->
<g id="node35" class="node entity">
<title>Entity76</title>
<ellipse fill="none" stroke="black" cx="1024.16" cy="-2529.84" rx="90.98" ry="18"/>
<text text-anchor="start" x="962.16" y="-2526.14" font-family="Times New Roman,serif" font-size="14.00">nsdap rocket program</text>
</g>
<!-- Entity30&#45;&gt;Entity76 -->
<g id="edge36" class="edge verb">
<title>Entity30&#45;&gt;Entity76</title>
<path fill="none" stroke="black" d="M1562.11,-2493.33C1452.33,-2500.78 1243.05,-2514.98 1120.39,-2523.31"/>
<polygon fill="black" stroke="black" points="1119.99,-2519.82 1110.25,-2523.99 1120.47,-2526.81 1119.99,-2519.82"/>
<text text-anchor="start" x="1300.25" y="-2512.12" font-family="Times New Roman,serif" font-size="14.00">created</text>
</g>
<!-- Entity104 -->
<g id="node55" class="node entity">
<title>Entity104</title>
<ellipse fill="none" stroke="black" cx="1522.74" cy="-3063.18" rx="65.79" ry="18"/>
<text text-anchor="start" x="1480.24" y="-3059.48" font-family="Times New Roman,serif" font-size="14.00">x series aircraft</text>
</g>
<!-- Entity30&#45;&gt;Entity104 -->
<g id="edge59" class="edge verb">
<title>Entity30&#45;&gt;Entity104</title>
<path fill="none" stroke="black" d="M1630.66,-2506.59C1614.56,-2589.62 1547.87,-2933.55 1528.22,-3034.94"/>
<polygon fill="black" stroke="black" points="1524.73,-3034.55 1526.26,-3045.03 1531.6,-3035.88 1524.73,-3034.55"/>
<text text-anchor="start" x="1538.44" y="-2774.56" font-family="Times New Roman,serif" font-size="14.00">created</text>
</g>
<!-- Entity32 -->
<g id="node16" class="node entity">
<title>Entity32</title>
<ellipse fill="none" stroke="black" cx="1247.81" cy="-2637.86" rx="46.29" ry="18"/>
<text text-anchor="start" x="1220.31" y="-2634.16" font-family="Times New Roman,serif" font-size="14.00">van braun</text>
</g>
<!-- Entity32&#45;&gt;Entity30 -->
<g id="edge12" class="edge verb">
<title>Entity32&#45;&gt;Entity30</title>
<path fill="none" stroke="black" d="M1280.75,-2625.12C1348.79,-2598.8 1505.16,-2538.34 1585.13,-2507.41"/>
<polygon fill="black" stroke="black" points="1586.43,-2510.66 1594.49,-2503.79 1583.9,-2504.13 1586.43,-2510.66"/>
<text text-anchor="start" x="1369.94" y="-2570.06" font-family="Times New Roman,serif" font-size="14.00">worked for</text>
</g>
<!-- Entity32&#45;&gt;Entity76 -->
<g id="edge48" class="edge verb">
<title>Entity32&#45;&gt;Entity76</title>
<path fill="none" stroke="black" d="M1218.57,-2623.73C1180.21,-2605.21 1112.57,-2572.53 1068.05,-2551.03"/>
<polygon fill="black" stroke="black" points="1069.45,-2547.82 1058.92,-2546.62 1066.4,-2554.12 1069.45,-2547.82"/>
<text text-anchor="start" x="1087.31" y="-2591.18" font-family="Times New Roman,serif" font-size="14.00">worked at</text>
</g>
<!-- Entity29 -->
<g id="node17" class="node entity">
<title>Entity29</title>
<ellipse fill="none" stroke="black" cx="4283.85" cy="-1755.13" rx="37.89" ry="18"/>
<text text-anchor="start" x="4262.85" y="-1751.43" font-family="Times New Roman,serif" font-size="14.00">hunt oil</text>
</g>
<!-- Entity36 -->
<g id="node18" class="node entity">
<title>Entity36</title>
<ellipse fill="none" stroke="black" cx="4291.01" cy="-1647.22" rx="77.99" ry="18"/>
<text text-anchor="start" x="4239.01" y="-1643.52" font-family="Times New Roman,serif" font-size="14.00">dwight eisenhower</text>
</g>
<!-- Entity29&#45;&gt;Entity36 -->
<g id="edge13" class="edge verb">
<title>Entity29&#45;&gt;Entity36</title>
<path fill="none" stroke="black" d="M4285.07,-1736.83C4286.18,-1719.98 4287.86,-1694.75 4289.14,-1675.35"/>
<polygon fill="black" stroke="black" points="4292.64,-1675.47 4289.81,-1665.26 4285.66,-1675 4292.64,-1675.47"/>
<text text-anchor="start" x="4247.11" y="-1709.89" font-family="Times New Roman,serif" font-size="14.00">funded</text>
</g>
<!-- Entity36&#45;&gt;Entity66 -->
<g id="edge34" class="edge verb">
<title>Entity36&#45;&gt;Entity66</title>
<path fill="none" stroke="black" d="M4290.56,-1629.22C4289.98,-1605.63 4288.94,-1563.99 4288.25,-1536.03"/>
<polygon fill="black" stroke="black" points="4291.74,-1535.6 4287.99,-1525.69 4284.74,-1535.77 4291.74,-1535.6"/>
<text text-anchor="start" x="4270.41" y="-1586.42" font-family="Times New Roman,serif" font-size="14.00">is a</text>
</g>
<!-- Entity11 -->
<g id="node19" class="node entity">
<title>Entity11</title>
<ellipse fill="none" stroke="black" cx="4778.63" cy="-1659.81" rx="56.59" ry="18"/>
<text text-anchor="start" x="4743.13" y="-1656.11" font-family="Times New Roman,serif" font-size="14.00">harry truman</text>
</g>
<!-- Entity11&#45;&gt;Entity66 -->
<g id="edge14" class="edge verb">
<title>Entity11&#45;&gt;Entity66</title>
<path fill="none" stroke="black" d="M4738.02,-1647.2C4644.53,-1618.17 4415.2,-1546.95 4324.92,-1518.91"/>
<polygon fill="black" stroke="black" points="4325.71,-1515.49 4315.12,-1515.87 4323.63,-1522.18 4325.71,-1515.49"/>
<text text-anchor="start" x="4515.47" y="-1586.86" font-family="Times New Roman,serif" font-size="14.00">isa</text>
</g>
<!-- Entity69 -->
<g id="node24" class="node entity">
<title>Entity69</title>
<ellipse fill="none" stroke="black" cx="5249.84" cy="-1910.31" rx="55.79" ry="18"/>
<text text-anchor="start" x="5214.84" y="-1906.61" font-family="Times New Roman,serif" font-size="14.00">freemasonry</text>
</g>
<!-- Entity11&#45;&gt;Entity69 -->
<g id="edge17" class="edge verb">
<title>Entity11&#45;&gt;Entity69</title>
<path fill="none" stroke="black" d="M4807.75,-1675.29C4889.32,-1718.65 5120.08,-1841.33 5211.68,-1890.03"/>
<polygon fill="black" stroke="black" points="5210.14,-1893.17 5220.61,-1894.78 5213.42,-1886.99 5210.14,-1893.17"/>
<text text-anchor="start" x="4948.71" y="-1786.46" font-family="Times New Roman,serif" font-size="14.00">member of</text>
</g>
<!-- Entity63 -->
<g id="node21" class="node entity">
<title>Entity63</title>
<ellipse fill="none" stroke="black" cx="5035.85" cy="-2296.77" rx="53.89" ry="18"/>
<text text-anchor="start" x="5002.35" y="-2293.07" font-family="Times New Roman,serif" font-size="14.00">edgar casey</text>
</g>
<!-- Entity59 -->
<g id="node22" class="node entity">
<title>Entity59</title>
<ellipse fill="none" stroke="black" cx="4689.1" cy="-1829.01" rx="71.49" ry="18"/>
<text text-anchor="start" x="4642.1" y="-1825.31" font-family="Times New Roman,serif" font-size="14.00">woodrow wilson</text>
</g>
<!-- Entity63&#45;&gt;Entity59 -->
<g id="edge15" class="edge verb">
<title>Entity63&#45;&gt;Entity59</title>
<path fill="none" stroke="black" d="M5022.89,-2279.29C4970.12,-2208.09 4771.21,-1939.78 4708.3,-1854.91"/>
<polygon fill="black" stroke="black" points="4711.08,-1852.78 4702.31,-1846.83 4705.45,-1856.95 4711.08,-1852.78"/>
<text text-anchor="start" x="4823.6" y="-2070.9" font-family="Times New Roman,serif" font-size="14.00">advises</text>
</g>
<!-- Entity59&#45;&gt;Entity66 -->
<g id="edge30" class="edge verb">
<title>Entity59&#45;&gt;Entity66</title>
<path fill="none" stroke="black" d="M4667.51,-1811.72C4599.27,-1757.05 4388.39,-1588.1 4313.91,-1528.44"/>
<polygon fill="black" stroke="black" points="4315.92,-1525.56 4305.93,-1522.04 4311.54,-1531.02 4315.92,-1525.56"/>
<text text-anchor="start" x="4474.71" y="-1673.88" font-family="Times New Roman,serif" font-size="14.00">isa</text>
</g>
<!-- Entity92 -->
<g id="node50" class="node entity">
<title>Entity92</title>
<ellipse fill="none" stroke="black" cx="4693.42" cy="-1937.11" rx="71.49" ry="18"/>
<text text-anchor="start" x="4646.42" y="-1933.41" font-family="Times New Roman,serif" font-size="14.00">leauge of nations</text>
</g>
<!-- Entity59&#45;&gt;Entity92 -->
<g id="edge54" class="edge verb">
<title>Entity59&#45;&gt;Entity92</title>
<path fill="none" stroke="black" d="M4689.83,-1847.35C4690.51,-1864.22 4691.52,-1889.5 4692.29,-1908.94"/>
<polygon fill="black" stroke="black" points="4688.8,-1909.19 4692.7,-1919.04 4695.8,-1908.91 4688.8,-1909.19"/>
<text text-anchor="start" x="4650.06" y="-1881.94" font-family="Times New Roman,serif" font-size="14.00">created</text>
</g>
<!-- Entity18 -->
<g id="node26" class="node entity">
<title>Entity18</title>
<ellipse fill="none" stroke="black" cx="4369.28" cy="-1894.02" rx="35.19" ry="18"/>
<text text-anchor="start" x="4350.28" y="-1890.32" font-family="Times New Roman,serif" font-size="14.00">obama</text>
</g>
<!-- Entity18&#45;&gt;Entity66 -->
<g id="edge21" class="edge verb">
<title>Entity18&#45;&gt;Entity66</title>
<path fill="none" stroke="black" d="M4365.45,-1875.89C4352.36,-1813.98 4309.38,-1610.64 4293.5,-1535.52"/>
<polygon fill="black" stroke="black" points="4296.86,-1534.46 4291.36,-1525.4 4290.01,-1535.91 4296.86,-1534.46"/>
<text text-anchor="start" x="4313.48" y="-1709.5" font-family="Times New Roman,serif" font-size="14.00">isa</text>
</g>
<!-- Entity12 -->
<g id="node27" class="node entity">
<title>Entity12</title>
<ellipse fill="none" stroke="black" cx="4088.45" cy="-1941.37" rx="58.49" ry="18"/>
<text text-anchor="start" x="4051.45" y="-1937.67" font-family="Times New Roman,serif" font-size="14.00">richard nixon</text>
</g>
<!-- Entity12&#45;&gt;Entity66 -->
<g id="edge22" class="edge verb">
<title>Entity12&#45;&gt;Entity66</title>
<path fill="none" stroke="black" d="M4096.62,-1923.55C4127.57,-1856.08 4237.65,-1616.08 4275.02,-1534.6"/>
<polygon fill="black" stroke="black" points="4278.42,-1535.59 4279.4,-1525.04 4272.05,-1532.67 4278.42,-1535.59"/>
<text text-anchor="start" x="4169.82" y="-1732.87" font-family="Times New Roman,serif" font-size="14.00">isa</text>
</g>
<!-- Entity24 -->
<g id="node29" class="node entity">
<title>Entity24</title>
<ellipse fill="none" stroke="black" cx="3391.45" cy="-320.42" rx="63.89" ry="18"/>
<text text-anchor="start" x="3350.45" y="-316.72" font-family="Times New Roman,serif" font-size="14.00">robert bigelow</text>
</g>
<!-- Entity24&#45;&gt;Entity7 -->
<g id="edge25" class="edge verb">
<title>Entity24&#45;&gt;Entity7</title>
<path fill="none" stroke="black" d="M3394.31,-338.49C3406.01,-412.5 3450.36,-692.9 3464.66,-783.31"/>
<polygon fill="black" stroke="black" points="3461.23,-784.04 3466.25,-793.37 3468.15,-782.95 3461.23,-784.04"/>
<text text-anchor="start" x="3397.48" y="-564.7" font-family="Times New Roman,serif" font-size="14.00">funds</text>
</g>
<!-- Entity24&#45;&gt;Entity67 -->
<g id="edge45" class="edge verb">
<title>Entity24&#45;&gt;Entity67</title>
<path fill="none" stroke="black" d="M3393.44,-338.69C3402.8,-424.41 3442.39,-787.1 3453.78,-891.47"/>
<polygon fill="black" stroke="black" points="3450.32,-892 3454.88,-901.56 3457.28,-891.24 3450.32,-892"/>
<text text-anchor="start" x="3359.61" y="-618.88" font-family="Times New Roman,serif" font-size="14.00">investigates</text>
</g>
<!-- Entity44 -->
<g id="node30" class="node entity">
<title>Entity44</title>
<ellipse fill="none" stroke="black" cx="5366.1" cy="-798.64" rx="58.49" ry="18"/>
<text text-anchor="start" x="5329.1" y="-794.94" font-family="Times New Roman,serif" font-size="14.00">steve bannon</text>
</g>
<!-- Entity44&#45;&gt;Entity15 -->
<g id="edge28" class="edge verb">
<title>Entity44&#45;&gt;Entity15</title>
<path fill="none" stroke="black" d="M5327.57,-812.48C5215.37,-858.83 4889.98,-1007.38 4779.9,-1062.47"/>
<polygon fill="black" stroke="black" points="4778.18,-1059.42 4770.83,-1067.05 4781.34,-1065.67 4778.18,-1059.42"/>
<text text-anchor="start" x="4998.73" y="-941.28" font-family="Times New Roman,serif" font-size="14.00">promoted</text>
</g>
<!-- Entity44&#45;&gt;Entity15 -->
<g id="edge64" class="edge verb">
<title>Entity44&#45;&gt;Entity15</title>
<path fill="none" stroke="black" d="M5338.56,-814.57C5241.49,-864.04 4914.56,-1013.56 4790.91,-1065.38"/>
<polygon fill="black" stroke="black" points="4789.56,-1062.15 4781.67,-1069.23 4792.25,-1068.61 4789.56,-1062.15"/>
<text text-anchor="start" x="5064.74" y="-943.77" font-family="Times New Roman,serif" font-size="14.00">advises</text>
</g>
<!-- Entity83 -->
<g id="node40" class="node entity">
<title>Entity83</title>
<ellipse fill="none" stroke="black" cx="5607.74" cy="-690.41" rx="61.99" ry="18"/>
<text text-anchor="start" x="5568.24" y="-686.71" font-family="Times New Roman,serif" font-size="14.00">breitbart news</text>
</g>
<!-- Entity44&#45;&gt;Entity83 -->
<g id="edge46" class="edge verb">
<title>Entity44&#45;&gt;Entity83</title>
<path fill="none" stroke="black" d="M5399.44,-783.71C5442.44,-764.45 5517.3,-730.92 5564.6,-709.74"/>
<polygon fill="black" stroke="black" points="5566.27,-712.82 5573.96,-705.54 5563.4,-706.44 5566.27,-712.82"/>
<text text-anchor="start" x="5441.02" y="-750.52" font-family="Times New Roman,serif" font-size="14.00">created</text>
</g>
<!-- Entity89 -->
<g id="node49" class="node entity">
<title>Entity89</title>
<ellipse fill="none" stroke="black" cx="5848.45" cy="-798.61" rx="35.19" ry="18"/>
<text text-anchor="start" x="5829.45" y="-794.91" font-family="Times New Roman,serif" font-size="14.00">gurgev</text>
</g>
<!-- Entity44&#45;&gt;Entity89 -->
<g id="edge53" class="edge verb">
<title>Entity44&#45;&gt;Entity89</title>
<path fill="none" stroke="black" d="M5424.76,-798.64C5522.11,-798.63 5715,-798.62 5802.9,-798.62"/>
<polygon fill="black" stroke="black" points="5803.08,-802.12 5813.08,-798.62 5803.08,-795.12 5803.08,-802.12"/>
<text text-anchor="start" x="5572.83" y="-802.43" font-family="Times New Roman,serif" font-size="14.00">studied</text>
</g>
<!-- Entity91 -->
<g id="node51" class="node entity">
<title>Entity91</title>
<ellipse fill="none" stroke="black" cx="5616.01" cy="-372.53" rx="38.19" ry="18"/>
<text text-anchor="start" x="5594.51" y="-368.83" font-family="Times New Roman,serif" font-size="14.00">us navy</text>
</g>
<!-- Entity44&#45;&gt;Entity91 -->
<g id="edge55" class="edge verb">
<title>Entity44&#45;&gt;Entity91</title>
<path fill="none" stroke="black" d="M5376.52,-780.88C5415.66,-714.13 5554.07,-478.13 5600.61,-398.78"/>
<polygon fill="black" stroke="black" points="5603.78,-400.3 5605.82,-389.9 5597.74,-396.76 5603.78,-400.3"/>
<text text-anchor="start" x="5427.56" y="-593.63" font-family="Times New Roman,serif" font-size="14.00">member of</text>
</g>
<!-- Entity94 -->
<g id="node53" class="node entity">
<title>Entity94</title>
<ellipse fill="none" stroke="black" cx="5952.95" cy="-587.09" rx="53.09" ry="18"/>
<text text-anchor="start" x="5919.95" y="-583.39" font-family="Times New Roman,serif" font-size="14.00">biosphere 2</text>
</g>
<!-- Entity44&#45;&gt;Entity94 -->
<g id="edge57" class="edge verb">
<title>Entity44&#45;&gt;Entity94</title>
<path fill="none" stroke="black" d="M5404.15,-784.92C5507.7,-747.59 5794.31,-644.27 5906.79,-603.72"/>
<polygon fill="black" stroke="black" points="5908.27,-606.91 5916.49,-600.23 5905.89,-600.33 5908.27,-606.91"/>
<text text-anchor="start" x="5655.47" y="-698.12" font-family="Times New Roman,serif" font-size="14.00">created</text>
</g>
<!-- Entity107 -->
<g id="node58" class="node entity">
<title>Entity107</title>
<ellipse fill="none" stroke="black" cx="5977" cy="-943.58" rx="77.19" ry="18"/>
<text text-anchor="start" x="5925.5" y="-939.88" font-family="Times New Roman,serif" font-size="14.00">hollywood movies</text>
</g>
<!-- Entity44&#45;&gt;Entity107 -->
<g id="edge61" class="edge verb">
<title>Entity44&#45;&gt;Entity107</title>
<path fill="none" stroke="black" d="M5412.52,-809.66C5520.44,-835.26 5788.47,-898.85 5912.34,-928.24"/>
<polygon fill="black" stroke="black" points="5911.9,-931.73 5922.44,-930.64 5913.52,-924.92 5911.9,-931.73"/>
<text text-anchor="start" x="5607.43" y="-872.75" font-family="Times New Roman,serif" font-size="14.00">produced</text>
</g>
<!-- Entity111 -->
<g id="node59" class="node entity">
<title>Entity111</title>
<ellipse fill="none" stroke="black" cx="5548.55" cy="-906.7" rx="64.99" ry="18"/>
<text text-anchor="start" x="5506.55" y="-903" font-family="Times New Roman,serif" font-size="14.00">goldman sachs</text>
</g>
<!-- Entity44&#45;&gt;Entity111 -->
<g id="edge66" class="edge verb">
<title>Entity44&#45;&gt;Entity111</title>
<path fill="none" stroke="black" d="M5393.41,-814.82C5424.89,-833.47 5476.79,-864.2 5511.79,-884.93"/>
<polygon fill="black" stroke="black" points="5510.36,-888.15 5520.74,-890.24 5513.92,-882.13 5510.36,-888.15"/>
<text text-anchor="start" x="5389.6" y="-853.68" font-family="Times New Roman,serif" font-size="14.00">worked for</text>
</g>
<!-- Entity33 -->
<g id="node32" class="node entity">
<title>Entity33</title>
<ellipse fill="none" stroke="black" cx="2031.98" cy="-2392.97" rx="57.69" ry="18"/>
<text text-anchor="start" x="1995.48" y="-2389.27" font-family="Times New Roman,serif" font-size="14.00">michael pane</text>
</g>
<!-- Entity33&#45;&gt;Entity30 -->
<g id="edge47" class="edge verb">
<title>Entity33&#45;&gt;Entity30</title>
<path fill="none" stroke="black" d="M1985.96,-2404.02C1914.76,-2421.1 1777.76,-2453.98 1697.35,-2473.28"/>
<polygon fill="black" stroke="black" points="1696.26,-2469.94 1687.36,-2475.68 1697.9,-2476.75 1696.26,-2469.94"/>
<text text-anchor="start" x="1778.66" y="-2442.45" font-family="Times New Roman,serif" font-size="14.00">worked for</text>
</g>
<!-- Entity33&#45;&gt;Entity72 -->
<g id="edge31" class="edge verb">
<title>Entity33&#45;&gt;Entity72</title>
<path fill="none" stroke="black" d="M2040.19,-2374.95C2070.54,-2308.32 2176.55,-2075.59 2213.28,-1994.96"/>
<polygon fill="black" stroke="black" points="2216.64,-1996.02 2217.6,-1985.47 2210.27,-1993.12 2216.64,-1996.02"/>
<text text-anchor="start" x="2070.73" y="-2188.75" font-family="Times New Roman,serif" font-size="14.00">worked at</text>
</g>
<!-- Entity45 -->
<g id="node33" class="node entity">
<title>Entity45</title>
<ellipse fill="none" stroke="black" cx="3642.22" cy="-1363.28" rx="67.69" ry="18"/>
<text text-anchor="start" x="3598.22" y="-1359.58" font-family="Times New Roman,serif" font-size="14.00">abraham lincoln</text>
</g>
<!-- Entity45&#45;&gt;Entity66 -->
<g id="edge32" class="edge verb">
<title>Entity45&#45;&gt;Entity66</title>
<path fill="none" stroke="black" d="M3694.21,-1374.88C3819.85,-1402.93 4137.78,-1473.88 4248.67,-1498.63"/>
<polygon fill="black" stroke="black" points="4247.91,-1502.05 4258.44,-1500.81 4249.44,-1495.22 4247.91,-1502.05"/>
<text text-anchor="start" x="3955.44" y="-1440.56" font-family="Times New Roman,serif" font-size="14.00">isa</text>
</g>
<!-- Entity38 -->
<g id="node34" class="node entity">
<title>Entity38</title>
<ellipse fill="none" stroke="black" cx="2797.23" cy="-1135.42" rx="90.98" ry="18"/>
<text text-anchor="start" x="2735.23" y="-1131.72" font-family="Times New Roman,serif" font-size="14.00">emma hardinge&#45;britten</text>
</g>
<!-- Entity38&#45;&gt;Entity45 -->
<g id="edge33" class="edge verb">
<title>Entity38&#45;&gt;Entity45</title>
<path fill="none" stroke="black" d="M2851.37,-1150.02C3002.76,-1190.85 3429.5,-1305.92 3584.79,-1347.8"/>
<polygon fill="black" stroke="black" points="3584.06,-1351.22 3594.62,-1350.45 3585.88,-1344.46 3584.06,-1351.22"/>
<text text-anchor="start" x="3119.08" y="-1252.71" font-family="Times New Roman,serif" font-size="14.00">spokesperson for</text>
</g>
<!-- Entity79 -->
<g id="node38" class="node entity">
<title>Entity79</title>
<ellipse fill="none" stroke="black" cx="2413.84" cy="-703.13" rx="39.79" ry="18"/>
<text text-anchor="start" x="2391.34" y="-699.43" font-family="Times New Roman,serif" font-size="14.00">medium</text>
</g>
<!-- Entity38&#45;&gt;Entity79 -->
<g id="edge38" class="edge verb">
<title>Entity38&#45;&gt;Entity79</title>
<path fill="none" stroke="black" d="M2781.48,-1117.67C2721.26,-1049.76 2505.37,-806.33 2435.69,-727.76"/>
<polygon fill="black" stroke="black" points="2437.93,-725.01 2428.67,-719.85 2432.69,-729.65 2437.93,-725.01"/>
<text text-anchor="start" x="2592.59" y="-926.52" font-family="Times New Roman,serif" font-size="14.00">isa</text>
</g>
<!-- Entity86 -->
<g id="node48" class="node entity">
<title>Entity86</title>
<ellipse fill="none" stroke="black" cx="2039.05" cy="-780.39" rx="85.29" ry="18"/>
<text text-anchor="start" x="1981.55" y="-776.69" font-family="Times New Roman,serif" font-size="14.00">theosophical society</text>
</g>
<!-- Entity38&#45;&gt;Entity86 -->
<g id="edge65" class="edge verb">
<title>Entity38&#45;&gt;Entity86</title>
<path fill="none" stroke="black" d="M2761.68,-1118.77C2637.16,-1060.47 2220.91,-865.55 2083.49,-801.2"/>
<polygon fill="black" stroke="black" points="2084.63,-797.87 2074.09,-796.8 2081.66,-804.21 2084.63,-797.87"/>
<text text-anchor="start" x="2381.58" y="-963.79" font-family="Times New Roman,serif" font-size="14.00">created</text>
</g>
<!-- Entity99 -->
<g id="node54" class="node entity">
<title>Entity99</title>
<ellipse fill="none" stroke="black" cx="2180.52" cy="-1184.35" rx="55.79" ry="18"/>
<text text-anchor="start" x="2145.52" y="-1180.65" font-family="Times New Roman,serif" font-size="14.00">orphic circle</text>
</g>
<!-- Entity38&#45;&gt;Entity99 -->
<g id="edge58" class="edge verb">
<title>Entity38&#45;&gt;Entity99</title>
<path fill="none" stroke="black" d="M2712.77,-1142.12C2588.01,-1152.02 2357.15,-1170.33 2245.01,-1179.23"/>
<polygon fill="black" stroke="black" points="2244.55,-1175.76 2234.86,-1180.04 2245.11,-1182.73 2244.55,-1175.76"/>
<text text-anchor="start" x="2417.89" y="-1164.48" font-family="Times New Roman,serif" font-size="14.00">member of</text>
</g>
<!-- Entity42 -->
<g id="node36" class="node entity">
<title>Entity42</title>
<ellipse fill="none" stroke="black" cx="3637.94" cy="-2321.66" rx="53.89" ry="18"/>
<text text-anchor="start" x="3604.44" y="-2317.96" font-family="Times New Roman,serif" font-size="14.00">black magic</text>
</g>
<!-- Entity81 -->
<g id="node37" class="node entity">
<title>Entity81</title>
<ellipse fill="none" stroke="black" cx="3725.66" cy="-2433.64" rx="28.7" ry="18"/>
<text text-anchor="start" x="3711.66" y="-2429.94" font-family="Times New Roman,serif" font-size="14.00">x left</text>
</g>
<!-- Entity42&#45;&gt;Entity81 -->
<g id="edge37" class="edge verb">
<title>Entity42&#45;&gt;Entity81</title>
<path fill="none" stroke="black" d="M3651.64,-2339.16C3666.45,-2358.05 3690.14,-2388.29 3706.72,-2409.45"/>
<polygon fill="black" stroke="black" points="3703.98,-2411.64 3712.9,-2417.36 3709.49,-2407.32 3703.98,-2411.64"/>
<text text-anchor="start" x="3618.18" y="-2378.11" font-family="Times New Roman,serif" font-size="14.00">member of</text>
</g>
<!-- Entity47 -->
<g id="node39" class="node entity">
<title>Entity47</title>
<ellipse fill="none" stroke="black" cx="5584.4" cy="-582.46" rx="69.59" ry="18"/>
<text text-anchor="start" x="5538.9" y="-578.76" font-family="Times New Roman,serif" font-size="14.00">andrew breitbart</text>
</g>
<!-- Entity47&#45;&gt;Entity83 -->
<g id="edge39" class="edge verb">
<title>Entity47&#45;&gt;Entity83</title>
<path fill="none" stroke="black" d="M5588.36,-600.77C5592.02,-617.7 5597.51,-643.1 5601.72,-662.55"/>
<polygon fill="black" stroke="black" points="5598.31,-663.34 5603.84,-672.37 5605.15,-661.86 5598.31,-663.34"/>
<text text-anchor="start" x="5554.04" y="-635.46" font-family="Times New Roman,serif" font-size="14.00">created</text>
</g>
<!-- Entity35 -->
<g id="node42" class="node entity">
<title>Entity35</title>
<ellipse fill="none" stroke="black" cx="2855.94" cy="-2577.66" rx="39.79" ry="18"/>
<text text-anchor="start" x="2833.44" y="-2573.96" font-family="Times New Roman,serif" font-size="14.00">crowley</text>
</g>
<!-- Entity80 -->
<g id="node43" class="node entity">
<title>Entity80</title>
<ellipse fill="none" stroke="black" cx="2943.66" cy="-2689.64" rx="38.99" ry="18"/>
<text text-anchor="start" x="2921.66" y="-2685.94" font-family="Times New Roman,serif" font-size="14.00">x magic</text>
</g>
<!-- Entity35&#45;&gt;Entity80 -->
<g id="edge41" class="edge verb">
<title>Entity35&#45;&gt;Entity80</title>
<path fill="none" stroke="black" d="M2869.26,-2594.67C2883.82,-2613.25 2907.28,-2643.2 2923.96,-2664.49"/>
<polygon fill="black" stroke="black" points="2921.29,-2666.76 2930.21,-2672.47 2926.8,-2662.44 2921.29,-2666.76"/>
<text text-anchor="start" x="2835.61" y="-2633.38" font-family="Times New Roman,serif" font-size="14.00">member of</text>
</g>
<!-- Entity19 -->
<g id="node44" class="node entity">
<title>Entity19</title>
<ellipse fill="none" stroke="black" cx="4420" cy="-1169.94" rx="31.4" ry="18"/>
<text text-anchor="start" x="4404" y="-1166.24" font-family="Times New Roman,serif" font-size="14.00">carter</text>
</g>
<!-- Entity19&#45;&gt;Entity66 -->
<g id="edge44" class="edge verb">
<title>Entity19&#45;&gt;Entity66</title>
<path fill="none" stroke="black" d="M4413.07,-1187.61C4391.35,-1242.93 4324.52,-1413.13 4298.27,-1479.96"/>
<polygon fill="black" stroke="black" points="4294.96,-1478.82 4294.57,-1489.41 4301.48,-1481.38 4294.96,-1478.82"/>
<text text-anchor="start" x="4339.67" y="-1337.59" font-family="Times New Roman,serif" font-size="14.00">isa</text>
</g>
<!-- Entity19&#45;&gt;Entity90 -->
<g id="edge56" class="edge verb">
<title>Entity19&#45;&gt;Entity90</title>
<path fill="none" stroke="black" d="M4415.37,-1151.95C4401.74,-1098.99 4361.69,-943.35 4345.33,-879.79"/>
<polygon fill="black" stroke="black" points="4348.71,-878.88 4342.82,-870.07 4341.93,-880.62 4348.71,-878.88"/>
<text text-anchor="start" x="4325.35" y="-1019.67" font-family="Times New Roman,serif" font-size="14.00">witnessed</text>
</g>
<!-- Entity27 -->
<g id="node45" class="node entity">
<title>Entity27</title>
<ellipse fill="none" stroke="black" cx="36.85" cy="-3825.18" rx="36.29" ry="18"/>
<text text-anchor="start" x="16.85" y="-3821.48" font-family="Times New Roman,serif" font-size="14.00">oswald</text>
</g>
<!-- Entity34 -->
<g id="node46" class="node entity">
<title>Entity34</title>
<ellipse fill="none" stroke="black" cx="386.69" cy="-3546.54" rx="59.29" ry="18"/>
<text text-anchor="start" x="349.19" y="-3542.84" font-family="Times New Roman,serif" font-size="14.00">guy bannister</text>
</g>
<!-- Entity27&#45;&gt;Entity34 -->
<g id="edge50" class="edge verb">
<title>Entity27&#45;&gt;Entity34</title>
<path fill="none" stroke="black" d="M56.16,-3809.8C114.25,-3763.54 287.66,-3625.41 357.28,-3569.96"/>
<polygon fill="black" stroke="black" points="359.6,-3572.59 365.24,-3563.62 355.24,-3567.11 359.6,-3572.59"/>
<text text-anchor="start" x="143.72" y="-3693.68" font-family="Times New Roman,serif" font-size="14.00">worked for</text>
</g>
<!-- Entity34&#45;&gt;Entity75 -->
<g id="edge51" class="edge verb">
<title>Entity34&#45;&gt;Entity75</title>
<path fill="none" stroke="black" d="M407.35,-3529.56C473.33,-3475.34 678.98,-3306.33 753.8,-3244.84"/>
<polygon fill="black" stroke="black" points="756.35,-3247.28 761.85,-3238.22 751.9,-3241.87 756.35,-3247.28"/>
<text text-anchor="start" x="519.57" y="-3391" font-family="Times New Roman,serif" font-size="14.00">member of</text>
</g>
<!-- Entity64 -->
<g id="node47" class="node entity">
<title>Entity64</title>
<ellipse fill="none" stroke="black" cx="1831.71" cy="-672.45" rx="73.39" ry="18"/>
<text text-anchor="start" x="1783.21" y="-668.75" font-family="Times New Roman,serif" font-size="14.00">madam blavatsky</text>
</g>
<!-- Entity64&#45;&gt;Entity86 -->
<g id="edge52" class="edge verb">
<title>Entity64&#45;&gt;Entity86</title>
<path fill="none" stroke="black" d="M1863.2,-688.84C1899.25,-707.61 1958.41,-738.41 1998.04,-759.04"/>
<polygon fill="black" stroke="black" points="1996.43,-762.15 2006.92,-763.66 1999.67,-755.94 1996.43,-762.15"/>
<text text-anchor="start" x="1889.62" y="-727.74" font-family="Times New Roman,serif" font-size="14.00">created</text>
</g>
<!-- Entity60 -->
<g id="node56" class="node entity">
<title>Entity60</title>
<ellipse fill="none" stroke="black" cx="1476.7" cy="-396.85" rx="58.49" ry="18"/>
<text text-anchor="start" x="1439.7" y="-393.15" font-family="Times New Roman,serif" font-size="14.00">rudolf steiner</text>
</g>
<!-- Entity60&#45;&gt;Entity86 -->
<g id="edge63" class="edge verb">
<title>Entity60&#45;&gt;Entity86</title>
<path fill="none" stroke="black" d="M1500.86,-413.33C1590.13,-474.21 1901.5,-686.58 2005.18,-757.29"/>
<polygon fill="black" stroke="black" points="2003.47,-760.36 2013.7,-763.1 2007.41,-754.57 2003.47,-760.36"/>
<text text-anchor="start" x="1687.02" y="-589.11" font-family="Times New Roman,serif" font-size="14.00">memberr of</text>
</g>
<!-- Entity93 -->
<g id="node57" class="node entity">
<title>Entity93</title>
<ellipse fill="none" stroke="black" cx="932.95" cy="-18.02" rx="102.08" ry="18"/>
<text text-anchor="start" x="862.45" y="-14.32" font-family="Times New Roman,serif" font-size="14.00">anthroposophical society</text>
</g>
<!-- Entity60&#45;&gt;Entity93 -->
<g id="edge60" class="edge verb">
<title>Entity60&#45;&gt;Entity93</title>
<path fill="none" stroke="black" d="M1452.98,-380.33C1366.39,-320 1067.05,-111.45 966.32,-41.27"/>
<polygon fill="black" stroke="black" points="968.24,-38.34 958.03,-35.49 964.24,-44.08 968.24,-38.34"/>
<text text-anchor="start" x="1168.65" y="-214.6" font-family="Times New Roman,serif" font-size="14.00">created</text>
</g>
<!-- Entity109 -->
<g id="node60" class="node entity">
<title>Entity109</title>
<ellipse fill="none" stroke="black" cx="3098.94" cy="-2065.66" rx="27" ry="18"/>
<text text-anchor="start" x="3095.44" y="-2061.96" font-family="Times New Roman,serif" font-size="14.00">s</text>
</g>
<!-- Entity112 -->
<g id="node61" class="node entity">
<title>Entity112</title>
<ellipse fill="none" stroke="black" cx="3186.66" cy="-2177.64" rx="27" ry="18"/>
<text text-anchor="start" x="3182.66" y="-2173.94" font-family="Times New Roman,serif" font-size="14.00">o</text>
</g>
<!-- Entity109&#45;&gt;Entity112 -->
<g id="edge67" class="edge verb">
<title>Entity109&#45;&gt;Entity112</title>
<path fill="none" stroke="black" d="M3111.51,-2081.7C3126.23,-2100.5 3150.76,-2131.82 3167.78,-2153.53"/>
<polygon fill="black" stroke="black" points="3165.19,-2155.91 3174.11,-2161.62 3170.7,-2151.59 3165.19,-2155.91"/>
<text text-anchor="start" x="3132.64" y="-2121.42" font-family="Times New Roman,serif" font-size="14.00">v</text>
</g>
</g>
</svg>
