<?xml version="1.0" encoding="UTF-8" standalone="no"?>
<?xml-stylesheet href="./styles.css" type="text/css"?>
<!DOCTYPE svg PUBLIC "-//W3C//DTD SVG 1.1//EN"
 "http://www.w3.org/Graphics/SVG/1.1/DTD/svg11.dtd">
<!-- Generated by graphviz version 2.47.3 (20210619.1520)
 -->
<!-- Title: G Pages: 1 -->
<svg width="5333pt" height="5343pt"
 viewBox="0.00 0.00 5333.00 5343.00" xmlns="http://www.w3.org/2000/svg" xmlns:xlink="http://www.w3.org/1999/xlink">
<g id="graph0" class="graph" transform="scale(1 1) rotate(0) translate(4 5339)">
<title>G</title>
<polygon fill="white" stroke="transparent" points="-4,4 -4,-5339 5329,-5339 5329,4 -4,4"/>
<!-- Entity3 -->
<g id="node1" class="node entity">
<title>Entity3</title>
<ellipse fill="none" stroke="black" cx="3531.04" cy="-2891.82" rx="27" ry="18"/>
<text text-anchor="start" x="3523.54" y="-2888.12" font-family="Times New Roman,serif" font-size="14.00">jfk</text>
</g>
<!-- Entity22 -->
<g id="node2" class="node entity">
<title>Entity22</title>
<ellipse fill="none" stroke="black" cx="3037.29" cy="-2765.37" rx="27" ry="18"/>
<text text-anchor="start" x="3029.29" y="-2761.67" font-family="Times New Roman,serif" font-size="14.00">cia</text>
</g>
<!-- Entity3&#45;&gt;Entity22 -->
<g id="edge1" class="edge verb">
<title>Entity3&#45;&gt;Entity22</title>
<path fill="none" stroke="black" d="M3505.53,-2885.28C3423.59,-2864.3 3166.92,-2798.57 3072.56,-2774.4"/>
<polygon fill="black" stroke="black" points="3073.2,-2770.95 3062.64,-2771.86 3071.46,-2777.73 3073.2,-2770.95"/>
<text text-anchor="start" x="3185.04" y="-2833.64" font-family="Times New Roman,serif" font-size="14.00">heads (1961&#45;1963)</text>
</g>
<!-- Entity66 -->
<g id="node20" class="node entity">
<title>Entity66</title>
<ellipse fill="none" stroke="black" cx="4057.44" cy="-3009.43" rx="31.4" ry="18"/>
<text text-anchor="start" x="4041.44" y="-3005.73" font-family="Times New Roman,serif" font-size="14.00">potus</text>
</g>
<!-- Entity3&#45;&gt;Entity66 -->
<g id="edge23" class="edge verb">
<title>Entity3&#45;&gt;Entity66</title>
<path fill="none" stroke="black" d="M3556.78,-2897.57C3642.1,-2916.63 3915.92,-2977.81 4018.31,-3000.68"/>
<polygon fill="black" stroke="black" points="4017.72,-3004.14 4028.24,-3002.9 4019.25,-2997.31 4017.72,-3004.14"/>
<text text-anchor="start" x="3700.55" y="-2952.93" font-family="Times New Roman,serif" font-size="14.00">isa (1961&#45;1963)</text>
</g>
<!-- Entity67 -->
<g id="node25" class="node entity">
<title>Entity67</title>
<ellipse fill="none" stroke="black" cx="2292.02" cy="-2719.94" rx="77.19" ry="18"/>
<text text-anchor="start" x="2240.52" y="-2716.24" font-family="Times New Roman,serif" font-size="14.00">psi&#45;consciousness</text>
</g>
<!-- Entity22&#45;&gt;Entity67 -->
<g id="edge43" class="edge verb">
<title>Entity22&#45;&gt;Entity67</title>
<path fill="none" stroke="black" d="M3010.33,-2763.73C2908.42,-2757.51 2544.08,-2735.31 2376.93,-2725.12"/>
<polygon fill="black" stroke="black" points="2377.13,-2721.63 2366.94,-2724.51 2376.71,-2728.61 2377.13,-2721.63"/>
<text text-anchor="start" x="2629.63" y="-2748.22" font-family="Times New Roman,serif" font-size="14.00">investigates</text>
</g>
<!-- Entity90 -->
<g id="node52" class="node entity">
<title>Entity90</title>
<ellipse fill="none" stroke="black" cx="3337.67" cy="-2842.12" rx="27" ry="18"/>
<text text-anchor="start" x="3328.17" y="-2838.42" font-family="Times New Roman,serif" font-size="14.00">ufo</text>
</g>
<!-- Entity22&#45;&gt;Entity90 -->
<g id="edge62" class="edge verb">
<title>Entity22&#45;&gt;Entity90</title>
<path fill="none" stroke="black" d="M3062.64,-2771.85C3116.12,-2785.51 3240.61,-2817.32 3302.06,-2833.02"/>
<polygon fill="black" stroke="black" points="3301.51,-2836.5 3312.06,-2835.58 3303.24,-2829.71 3301.51,-2836.5"/>
<text text-anchor="start" x="3118.35" y="-2806.24" font-family="Times New Roman,serif" font-size="14.00">investigates</text>
</g>
<!-- Entity14 -->
<g id="node3" class="node entity">
<title>Entity14</title>
<ellipse fill="none" stroke="black" cx="967.16" cy="-1824.54" rx="74.99" ry="18"/>
<text text-anchor="start" x="917.66" y="-1820.84" font-family="Times New Roman,serif" font-size="14.00">gene roddenberry</text>
</g>
<!-- Entity8 -->
<g id="node4" class="node entity">
<title>Entity8</title>
<ellipse fill="none" stroke="black" cx="1330.92" cy="-2196.88" rx="38.19" ry="18"/>
<text text-anchor="start" x="1309.42" y="-2193.18" font-family="Times New Roman,serif" font-size="14.00">the nine</text>
</g>
<!-- Entity14&#45;&gt;Entity8 -->
<g id="edge2" class="edge verb">
<title>Entity14&#45;&gt;Entity8</title>
<path fill="none" stroke="black" d="M984.7,-1842.5C1044.42,-1903.62 1239.82,-2103.63 1307.55,-2172.96"/>
<polygon fill="black" stroke="black" points="1305.31,-2175.67 1314.8,-2180.38 1310.31,-2170.78 1305.31,-2175.67"/>
<text text-anchor="start" x="1042.13" y="-2011.53" font-family="Times New Roman,serif" font-size="14.00">claiemd to channel</text>
</g>
<!-- Entity70 -->
<g id="node23" class="node entity">
<title>Entity70</title>
<ellipse fill="none" stroke="black" cx="1311.65" cy="-2088.78" rx="94.48" ry="18"/>
<text text-anchor="start" x="1247.15" y="-2085.08" font-family="Times New Roman,serif" font-size="14.00">egyptian gods in a ship</text>
</g>
<!-- Entity8&#45;&gt;Entity70 -->
<g id="edge16" class="edge verb">
<title>Entity8&#45;&gt;Entity70</title>
<path fill="none" stroke="black" d="M1327.65,-2178.54C1324.64,-2161.67 1320.13,-2136.39 1316.67,-2116.96"/>
<polygon fill="black" stroke="black" points="1320.07,-2116.08 1314.87,-2106.85 1313.18,-2117.31 1320.07,-2116.08"/>
<text text-anchor="start" x="1218.16" y="-2151.55" font-family="Times New Roman,serif" font-size="14.00">claimed to channel</text>
</g>
<!-- Entity16 -->
<g id="node5" class="node entity">
<title>Entity16</title>
<ellipse fill="none" stroke="black" cx="3735.31" cy="-3192.59" rx="68.49" ry="18"/>
<text text-anchor="start" x="3690.81" y="-3188.89" font-family="Times New Roman,serif" font-size="14.00">george hw bush</text>
</g>
<!-- Entity20 -->
<g id="node6" class="node entity">
<title>Entity20</title>
<ellipse fill="none" stroke="black" cx="3763.47" cy="-3084.53" rx="63.89" ry="18"/>
<text text-anchor="start" x="3722.47" y="-3080.83" font-family="Times New Roman,serif" font-size="14.00">george w bush</text>
</g>
<!-- Entity16&#45;&gt;Entity20 -->
<g id="edge3" class="edge verb">
<title>Entity16&#45;&gt;Entity20</title>
<path fill="none" stroke="black" d="M3740.08,-3174.26C3744.5,-3157.32 3751.13,-3131.89 3756.2,-3112.43"/>
<polygon fill="black" stroke="black" points="3759.63,-3113.15 3758.76,-3102.59 3752.85,-3111.39 3759.63,-3113.15"/>
<text text-anchor="start" x="3716.14" y="-3147.14" font-family="Times New Roman,serif" font-size="14.00">father</text>
</g>
<!-- Entity16&#45;&gt;Entity66 -->
<g id="edge20" class="edge verb">
<title>Entity16&#45;&gt;Entity66</title>
<path fill="none" stroke="black" d="M3764.18,-3176.18C3824.55,-3141.85 3963.7,-3062.73 4026.13,-3027.23"/>
<polygon fill="black" stroke="black" points="4028.15,-3030.11 4035.12,-3022.12 4024.69,-3024.02 4028.15,-3030.11"/>
<text text-anchor="start" x="3879.15" y="-3105.5" font-family="Times New Roman,serif" font-size="14.00">isa</text>
</g>
<!-- Entity20&#45;&gt;Entity66 -->
<g id="edge42" class="edge verb">
<title>Entity20&#45;&gt;Entity66</title>
<path fill="none" stroke="black" d="M3811.03,-3072.38C3868.89,-3057.6 3965.44,-3032.93 4018.89,-3019.28"/>
<polygon fill="black" stroke="black" points="4019.84,-3022.64 4028.66,-3016.78 4018.11,-3015.86 4019.84,-3022.64"/>
<text text-anchor="start" x="3898.96" y="-3049.63" font-family="Times New Roman,serif" font-size="14.00">isa</text>
</g>
<!-- Entity2 -->
<g id="node7" class="node entity">
<title>Entity2</title>
<ellipse fill="none" stroke="black" cx="1004.75" cy="-2401.86" rx="41.69" ry="18"/>
<text text-anchor="start" x="980.75" y="-2398.16" font-family="Times New Roman,serif" font-size="14.00">uri geller</text>
</g>
<!-- Entity2&#45;&gt;Entity8 -->
<g id="edge4" class="edge verb">
<title>Entity2&#45;&gt;Entity8</title>
<path fill="none" stroke="black" d="M1028.47,-2386.95C1086.15,-2350.7 1233.81,-2257.9 1299.08,-2216.89"/>
<polygon fill="black" stroke="black" points="1301.12,-2219.74 1307.72,-2211.45 1297.39,-2213.81 1301.12,-2219.74"/>
<text text-anchor="start" x="1059.77" y="-2305.72" font-family="Times New Roman,serif" font-size="14.00">claiemd to channel</text>
</g>
<!-- Entity26 -->
<g id="node8" class="node entity">
<title>Entity26</title>
<ellipse fill="none" stroke="black" cx="971.23" cy="-4715.41" rx="49.29" ry="18"/>
<text text-anchor="start" x="941.23" y="-4711.71" font-family="Times New Roman,serif" font-size="14.00">adolf hitler</text>
</g>
<!-- Entity28 -->
<g id="node9" class="node entity">
<title>Entity28</title>
<ellipse fill="none" stroke="black" cx="1045.04" cy="-4321.11" rx="32.49" ry="18"/>
<text text-anchor="start" x="1028.04" y="-4317.41" font-family="Times New Roman,serif" font-size="14.00">nsdap</text>
</g>
<!-- Entity26&#45;&gt;Entity28 -->
<g id="edge5" class="edge verb">
<title>Entity26&#45;&gt;Entity28</title>
<path fill="none" stroke="black" d="M974.59,-4697.44C986.31,-4634.83 1025.42,-4425.94 1039.73,-4349.47"/>
<polygon fill="black" stroke="black" points="1043.26,-4349.66 1041.66,-4339.18 1036.38,-4348.37 1043.26,-4349.66"/>
<text text-anchor="start" x="966.16" y="-4527.26" font-family="Times New Roman,serif" font-size="14.00">created</text>
</g>
<!-- Entity75 -->
<g id="node31" class="node entity">
<title>Entity75</title>
<ellipse fill="none" stroke="black" cx="704.56" cy="-4634.76" rx="38.99" ry="18"/>
<text text-anchor="start" x="682.56" y="-4631.06" font-family="Times New Roman,serif" font-size="14.00">far right</text>
</g>
<!-- Entity28&#45;&gt;Entity75 -->
<g id="edge29" class="edge verb">
<title>Entity28&#45;&gt;Entity75</title>
<path fill="none" stroke="black" d="M1028.16,-4336.67C972.71,-4387.74 796,-4550.53 729.86,-4611.45"/>
<polygon fill="black" stroke="black" points="727.34,-4609.01 722.36,-4618.36 732.09,-4614.16 727.34,-4609.01"/>
<text text-anchor="start" x="818.01" y="-4477.86" font-family="Times New Roman,serif" font-size="14.00">member of</text>
</g>
<!-- Entity15 -->
<g id="node10" class="node entity">
<title>Entity15</title>
<ellipse fill="none" stroke="black" cx="3990.21" cy="-2583.95" rx="59.59" ry="18"/>
<text text-anchor="start" x="3952.21" y="-2580.25" font-family="Times New Roman,serif" font-size="14.00">donald trump</text>
</g>
<!-- Entity48 -->
<g id="node11" class="node entity">
<title>Entity48</title>
<ellipse fill="none" stroke="black" cx="3410.17" cy="-2504.57" rx="50.09" ry="18"/>
<text text-anchor="start" x="3379.67" y="-2500.87" font-family="Times New Roman,serif" font-size="14.00">john trump</text>
</g>
<!-- Entity15&#45;&gt;Entity48 -->
<g id="edge6" class="edge verb">
<title>Entity15&#45;&gt;Entity48</title>
<path fill="none" stroke="black" d="M3935.64,-2576.48C3825.84,-2561.46 3579.17,-2527.7 3467.29,-2512.39"/>
<polygon fill="black" stroke="black" points="3467.59,-2508.9 3457.21,-2511.01 3466.64,-2515.83 3467.59,-2508.9"/>
<text text-anchor="start" x="3642.46" y="-2548.24" font-family="Times New Roman,serif" font-size="14.00">nephew of</text>
</g>
<!-- Entity15&#45;&gt;Entity66 -->
<g id="edge27" class="edge verb">
<title>Entity15&#45;&gt;Entity66</title>
<path fill="none" stroke="black" d="M3993.05,-2601.96C4003.55,-2668.42 4040.18,-2900.17 4052.98,-2981.2"/>
<polygon fill="black" stroke="black" points="4049.54,-2981.84 4054.56,-2991.17 4056.45,-2980.75 4049.54,-2981.84"/>
<text text-anchor="start" x="4007.02" y="-2795.38" font-family="Times New Roman,serif" font-size="14.00">isa</text>
</g>
<!-- Entity48&#45;&gt;Entity22 -->
<g id="edge10" class="edge verb">
<title>Entity48&#45;&gt;Entity22</title>
<path fill="none" stroke="black" d="M3387.13,-2520.69C3321.65,-2566.48 3134.72,-2697.23 3064.44,-2746.38"/>
<polygon fill="black" stroke="black" points="3062.27,-2743.63 3056.08,-2752.23 3066.28,-2749.36 3062.27,-2743.63"/>
<text text-anchor="start" x="3164.78" y="-2637.33" font-family="Times New Roman,serif" font-size="14.00">member of</text>
</g>
<!-- Entity82 -->
<g id="node41" class="node entity">
<title>Entity82</title>
<ellipse fill="none" stroke="black" cx="3209.64" cy="-2088.85" rx="50.89" ry="18"/>
<text text-anchor="start" x="3178.64" y="-2085.15" font-family="Times New Roman,serif" font-size="14.00">nikola tesla</text>
</g>
<!-- Entity48&#45;&gt;Entity82 -->
<g id="edge40" class="edge verb">
<title>Entity48&#45;&gt;Entity82</title>
<path fill="none" stroke="black" d="M3401.56,-2486.71C3370,-2421.28 3260.58,-2194.46 3222.69,-2115.89"/>
<polygon fill="black" stroke="black" points="3225.73,-2114.13 3218.23,-2106.65 3219.42,-2117.17 3225.73,-2114.13"/>
<text text-anchor="start" x="3271.12" y="-2305.1" font-family="Times New Roman,serif" font-size="14.00">studied</text>
</g>
<!-- Entity5 -->
<g id="node12" class="node entity">
<title>Entity5</title>
<ellipse fill="none" stroke="black" cx="1695.56" cy="-2595.51" rx="56.59" ry="18"/>
<text text-anchor="start" x="1660.06" y="-2591.81" font-family="Times New Roman,serif" font-size="14.00">arthur young</text>
</g>
<!-- Entity5&#45;&gt;Entity8 -->
<g id="edge7" class="edge verb">
<title>Entity5&#45;&gt;Entity8</title>
<path fill="none" stroke="black" d="M1679.66,-2578.13C1621.46,-2514.51 1420.01,-2294.28 1352.88,-2220.89"/>
<polygon fill="black" stroke="black" points="1355.42,-2218.48 1346.09,-2213.46 1350.26,-2223.21 1355.42,-2218.48"/>
<text text-anchor="start" x="1454.27" y="-2403.31" font-family="Times New Roman,serif" font-size="14.00">member&#45;of</text>
</g>
<!-- Entity5&#45;&gt;Entity67 -->
<g id="edge18" class="edge verb">
<title>Entity5&#45;&gt;Entity67</title>
<path fill="none" stroke="black" d="M1742.86,-2605.38C1848.19,-2627.35 2102.34,-2680.37 2224.39,-2705.84"/>
<polygon fill="black" stroke="black" points="2223.86,-2709.3 2234.37,-2707.92 2225.29,-2702.45 2223.86,-2709.3"/>
<text text-anchor="start" x="1942.63" y="-2659.41" font-family="Times New Roman,serif" font-size="14.00">studied</text>
</g>
<!-- Entity72 -->
<g id="node28" class="node entity">
<title>Entity72</title>
<ellipse fill="none" stroke="black" cx="1467.71" cy="-3168.68" rx="53.89" ry="18"/>
<text text-anchor="start" x="1434.21" y="-3164.98" font-family="Times New Roman,serif" font-size="14.00">bell aviation</text>
</g>
<!-- Entity5&#45;&gt;Entity72 -->
<g id="edge24" class="edge verb">
<title>Entity5&#45;&gt;Entity72</title>
<path fill="none" stroke="black" d="M1688.36,-2613.61C1655.38,-2696.58 1518.55,-3040.8 1478.67,-3141.13"/>
<polygon fill="black" stroke="black" points="1475.35,-3139.99 1474.91,-3150.58 1481.85,-3142.58 1475.35,-3139.99"/>
<text text-anchor="start" x="1542.51" y="-2881.17" font-family="Times New Roman,serif" font-size="14.00">created</text>
</g>
<!-- Entity1 -->
<g id="node13" class="node entity">
<title>Entity1</title>
<ellipse fill="none" stroke="black" cx="530.88" cy="-2261.48" rx="64.19" ry="18"/>
<text text-anchor="start" x="489.38" y="-2257.78" font-family="Times New Roman,serif" font-size="14.00">andre puharich</text>
</g>
<!-- Entity1&#45;&gt;Entity2 -->
<g id="edge8" class="edge verb">
<title>Entity1&#45;&gt;Entity2</title>
<path fill="none" stroke="black" d="M575.46,-2274.69C665.95,-2301.49 870.24,-2362.01 960.48,-2388.75"/>
<polygon fill="black" stroke="black" points="959.55,-2392.12 970.13,-2391.61 961.54,-2385.41 959.55,-2392.12"/>
<text text-anchor="start" x="707.97" y="-2335.52" font-family="Times New Roman,serif" font-size="14.00">sponsored</text>
</g>
<!-- Entity7 -->
<g id="node14" class="node entity">
<title>Entity7</title>
<ellipse fill="none" stroke="black" cx="1455.58" cy="-2703.51" rx="68.49" ry="18"/>
<text text-anchor="start" x="1411.08" y="-2699.81" font-family="Times New Roman,serif" font-size="14.00">jeffrey mishlove</text>
</g>
<!-- Entity7&#45;&gt;Entity2 -->
<g id="edge9" class="edge verb">
<title>Entity7&#45;&gt;Entity2</title>
<path fill="none" stroke="black" d="M1430.37,-2686.65C1353.27,-2635.06 1120.7,-2479.45 1036.02,-2422.79"/>
<polygon fill="black" stroke="black" points="1037.86,-2419.8 1027.6,-2417.15 1033.96,-2425.62 1037.86,-2419.8"/>
<text text-anchor="start" x="1178.2" y="-2558.52" font-family="Times New Roman,serif" font-size="14.00">promoted</text>
</g>
<!-- Entity7&#45;&gt;Entity67 -->
<g id="edge19" class="edge verb">
<title>Entity7&#45;&gt;Entity67</title>
<path fill="none" stroke="black" d="M1521.14,-2708.64C1670.71,-2715.29 2037.16,-2722.65 2205.23,-2722.55"/>
<polygon fill="black" stroke="black" points="2205.28,-2726.05 2215.28,-2722.54 2205.27,-2719.05 2205.28,-2726.05"/>
<text text-anchor="start" x="1822.18" y="-2719.4" font-family="Times New Roman,serif" font-size="14.00">studied</text>
</g>
<!-- Entity7&#45;&gt;Entity67 -->
<g id="edge26" class="edge verb">
<title>Entity7&#45;&gt;Entity67</title>
<path fill="none" stroke="black" d="M1523.4,-2700.95C1675.18,-2700.25 2041.93,-2707.33 2207.91,-2714.03"/>
<polygon fill="black" stroke="black" points="2207.93,-2717.53 2218.07,-2714.45 2208.22,-2710.54 2207.93,-2717.53"/>
<text text-anchor="start" x="1801.65" y="-2696.29" font-family="Times New Roman,serif" font-size="14.00">investigates</text>
</g>
<!-- Entity30 -->
<g id="node15" class="node entity">
<title>Entity30</title>
<ellipse fill="none" stroke="black" cx="1447.7" cy="-3810.43" rx="74.99" ry="18"/>
<text text-anchor="start" x="1398.2" y="-3806.73" font-family="Times New Roman,serif" font-size="14.00">walter dornberger</text>
</g>
<!-- Entity30&#45;&gt;Entity28 -->
<g id="edge11" class="edge verb">
<title>Entity30&#45;&gt;Entity28</title>
<path fill="none" stroke="black" d="M1433.61,-3828.31C1372.99,-3905.18 1134.42,-4207.76 1064.44,-4296.52"/>
<polygon fill="black" stroke="black" points="1061.65,-4294.4 1058.2,-4304.42 1067.14,-4298.74 1061.65,-4294.4"/>
<text text-anchor="start" x="1188.02" y="-4066.21" font-family="Times New Roman,serif" font-size="14.00">member of</text>
</g>
<!-- Entity30&#45;&gt;Entity72 -->
<g id="edge35" class="edge verb">
<title>Entity30&#45;&gt;Entity72</title>
<path fill="none" stroke="black" d="M1450.71,-3792.34C1459.06,-3702.78 1471.58,-3306.94 1469.81,-3197.06"/>
<polygon fill="black" stroke="black" points="1473.31,-3196.69 1469.58,-3186.77 1466.31,-3196.85 1473.31,-3196.69"/>
<text text-anchor="start" x="1381.26" y="-3498.5" font-family="Times New Roman,serif" font-size="14.00">vice&#45;president</text>
</g>
<!-- Entity30&#45;&gt;Entity72 -->
<g id="edge49" class="edge verb">
<title>Entity30&#45;&gt;Entity72</title>
<path fill="none" stroke="black" d="M1445.83,-3792.18C1443.07,-3702.29 1455.23,-3306.5 1463.84,-3196.9"/>
<polygon fill="black" stroke="black" points="1467.33,-3197.19 1464.69,-3186.93 1460.35,-3196.6 1467.33,-3197.19"/>
<text text-anchor="start" x="1398.83" y="-3483.34" font-family="Times New Roman,serif" font-size="14.00">worked at</text>
</g>
<!-- Entity76 -->
<g id="node35" class="node entity">
<title>Entity76</title>
<ellipse fill="none" stroke="black" cx="1664.25" cy="-4026.32" rx="90.98" ry="18"/>
<text text-anchor="start" x="1602.25" y="-4022.62" font-family="Times New Roman,serif" font-size="14.00">nsdap rocket program</text>
</g>
<!-- Entity30&#45;&gt;Entity76 -->
<g id="edge36" class="edge verb">
<title>Entity30&#45;&gt;Entity76</title>
<path fill="none" stroke="black" d="M1465.42,-3828.1C1503.81,-3866.37 1594.74,-3957.03 1639.07,-4001.23"/>
<polygon fill="black" stroke="black" points="1636.73,-4003.83 1646.28,-4008.41 1641.67,-3998.87 1636.73,-4003.83"/>
<text text-anchor="start" x="1511.25" y="-3903.46" font-family="Times New Roman,serif" font-size="14.00">created</text>
</g>
<!-- Entity104 -->
<g id="node55" class="node entity">
<title>Entity104</title>
<ellipse fill="none" stroke="black" cx="884.01" cy="-3985.51" rx="65.79" ry="18"/>
<text text-anchor="start" x="841.51" y="-3981.81" font-family="Times New Roman,serif" font-size="14.00">x series aircraft</text>
</g>
<!-- Entity30&#45;&gt;Entity104 -->
<g id="edge59" class="edge verb">
<title>Entity30&#45;&gt;Entity104</title>
<path fill="none" stroke="black" d="M1401.57,-3824.76C1297.95,-3856.94 1047.19,-3934.83 937.21,-3968.99"/>
<polygon fill="black" stroke="black" points="936.16,-3965.65 927.64,-3971.96 938.23,-3972.33 936.16,-3965.65"/>
<text text-anchor="start" x="1128.39" y="-3900.67" font-family="Times New Roman,serif" font-size="14.00">created</text>
</g>
<!-- Entity32 -->
<g id="node16" class="node entity">
<title>Entity32</title>
<ellipse fill="none" stroke="black" cx="1557.25" cy="-3918.37" rx="46.29" ry="18"/>
<text text-anchor="start" x="1529.75" y="-3914.67" font-family="Times New Roman,serif" font-size="14.00">van braun</text>
</g>
<!-- Entity32&#45;&gt;Entity30 -->
<g id="edge12" class="edge verb">
<title>Entity32&#45;&gt;Entity30</title>
<path fill="none" stroke="black" d="M1540.13,-3901.5C1522.12,-3883.76 1493.59,-3855.65 1472.99,-3835.35"/>
<polygon fill="black" stroke="black" points="1475.37,-3832.78 1465.79,-3828.26 1470.46,-3837.77 1475.37,-3832.78"/>
<text text-anchor="start" x="1443.56" y="-3872.23" font-family="Times New Roman,serif" font-size="14.00">worked for</text>
</g>
<!-- Entity32&#45;&gt;Entity76 -->
<g id="edge48" class="edge verb">
<title>Entity32&#45;&gt;Entity76</title>
<path fill="none" stroke="black" d="M1573.96,-3935.24C1591.48,-3952.91 1619.18,-3980.86 1639.28,-4001.14"/>
<polygon fill="black" stroke="black" points="1637.05,-4003.86 1646.58,-4008.5 1642.02,-3998.93 1637.05,-4003.86"/>
<text text-anchor="start" x="1550.62" y="-3971.99" font-family="Times New Roman,serif" font-size="14.00">worked at</text>
</g>
<!-- Entity29 -->
<g id="node17" class="node entity">
<title>Entity29</title>
<ellipse fill="none" stroke="black" cx="4130.46" cy="-3881.96" rx="37.89" ry="18"/>
<text text-anchor="start" x="4109.46" y="-3878.26" font-family="Times New Roman,serif" font-size="14.00">hunt oil</text>
</g>
<!-- Entity36 -->
<g id="node18" class="node entity">
<title>Entity36</title>
<ellipse fill="none" stroke="black" cx="4072.69" cy="-3339.07" rx="77.99" ry="18"/>
<text text-anchor="start" x="4020.69" y="-3335.37" font-family="Times New Roman,serif" font-size="14.00">dwight eisenhower</text>
</g>
<!-- Entity29&#45;&gt;Entity36 -->
<g id="edge13" class="edge verb">
<title>Entity29&#45;&gt;Entity36</title>
<path fill="none" stroke="black" d="M4128.54,-3863.9C4120.07,-3784.28 4086.02,-3464.28 4075.68,-3367.16"/>
<polygon fill="black" stroke="black" points="4079.16,-3366.78 4074.62,-3357.21 4072.2,-3367.52 4079.16,-3366.78"/>
<text text-anchor="start" x="4062.11" y="-3619.33" font-family="Times New Roman,serif" font-size="14.00">funded</text>
</g>
<!-- Entity36&#45;&gt;Entity66 -->
<g id="edge34" class="edge verb">
<title>Entity36&#45;&gt;Entity66</title>
<path fill="none" stroke="black" d="M4071.85,-3320.88C4069.32,-3266.29 4061.8,-3103.57 4058.75,-3037.64"/>
<polygon fill="black" stroke="black" points="4062.24,-3037.39 4058.28,-3027.56 4055.25,-3037.71 4062.24,-3037.39"/>
<text text-anchor="start" x="4046.3" y="-3183.06" font-family="Times New Roman,serif" font-size="14.00">is a</text>
</g>
<!-- Entity11 -->
<g id="node19" class="node entity">
<title>Entity11</title>
<ellipse fill="none" stroke="black" cx="4476.46" cy="-3401.24" rx="56.59" ry="18"/>
<text text-anchor="start" x="4440.96" y="-3397.54" font-family="Times New Roman,serif" font-size="14.00">harry truman</text>
</g>
<!-- Entity11&#45;&gt;Entity66 -->
<g id="edge14" class="edge verb">
<title>Entity11&#45;&gt;Entity66</title>
<path fill="none" stroke="black" d="M4458.18,-3384.15C4391.01,-3321.34 4157.71,-3103.19 4081.63,-3032.05"/>
<polygon fill="black" stroke="black" points="4083.65,-3029.15 4073.96,-3024.87 4078.87,-3034.26 4083.65,-3029.15"/>
<text text-anchor="start" x="4253.91" y="-3211.9" font-family="Times New Roman,serif" font-size="14.00">isa</text>
</g>
<!-- Entity69 -->
<g id="node24" class="node entity">
<title>Entity69</title>
<ellipse fill="none" stroke="black" cx="4738.44" cy="-3863.76" rx="55.79" ry="18"/>
<text text-anchor="start" x="4703.44" y="-3860.06" font-family="Times New Roman,serif" font-size="14.00">freemasonry</text>
</g>
<!-- Entity11&#45;&gt;Entity69 -->
<g id="edge17" class="edge verb">
<title>Entity11&#45;&gt;Entity69</title>
<path fill="none" stroke="black" d="M4486.57,-3419.09C4526.77,-3490.06 4675.42,-3752.49 4723.4,-3837.21"/>
<polygon fill="black" stroke="black" points="4720.39,-3838.99 4728.36,-3845.97 4726.48,-3835.54 4720.39,-3838.99"/>
<text text-anchor="start" x="4543.98" y="-3631.95" font-family="Times New Roman,serif" font-size="14.00">member of</text>
</g>
<!-- Entity63 -->
<g id="node21" class="node entity">
<title>Entity63</title>
<ellipse fill="none" stroke="black" cx="5031.3" cy="-3681.21" rx="53.89" ry="18"/>
<text text-anchor="start" x="4997.8" y="-3677.51" font-family="Times New Roman,serif" font-size="14.00">edgar casey</text>
</g>
<!-- Entity59 -->
<g id="node22" class="node entity">
<title>Entity59</title>
<ellipse fill="none" stroke="black" cx="4608.38" cy="-3293.05" rx="71.49" ry="18"/>
<text text-anchor="start" x="4561.38" y="-3289.35" font-family="Times New Roman,serif" font-size="14.00">woodrow wilson</text>
</g>
<!-- Entity63&#45;&gt;Entity59 -->
<g id="edge15" class="edge verb">
<title>Entity63&#45;&gt;Entity59</title>
<path fill="none" stroke="black" d="M5012.85,-3664.28C4945.68,-3602.63 4713.95,-3389.95 4634.98,-3317.47"/>
<polygon fill="black" stroke="black" points="4637.13,-3314.69 4627.4,-3310.51 4632.4,-3319.85 4637.13,-3314.69"/>
<text text-anchor="start" x="4781.92" y="-3494.67" font-family="Times New Roman,serif" font-size="14.00">advises</text>
</g>
<!-- Entity59&#45;&gt;Entity66 -->
<g id="edge30" class="edge verb">
<title>Entity59&#45;&gt;Entity66</title>
<path fill="none" stroke="black" d="M4576.78,-3276.78C4479.97,-3226.94 4188.12,-3076.7 4090.02,-3026.2"/>
<polygon fill="black" stroke="black" points="4091.37,-3022.95 4080.87,-3021.49 4088.16,-3029.18 4091.37,-3022.95"/>
<text text-anchor="start" x="4317.4" y="-3155.29" font-family="Times New Roman,serif" font-size="14.00">isa</text>
</g>
<!-- Entity92 -->
<g id="node50" class="node entity">
<title>Entity92</title>
<ellipse fill="none" stroke="black" cx="5205.47" cy="-3514.08" rx="71.49" ry="18"/>
<text text-anchor="start" x="5158.47" y="-3510.38" font-family="Times New Roman,serif" font-size="14.00">leauge of nations</text>
</g>
<!-- Entity59&#45;&gt;Entity92 -->
<g id="edge54" class="edge verb">
<title>Entity59&#45;&gt;Entity92</title>
<path fill="none" stroke="black" d="M4648.95,-3308.07C4754.92,-3347.3 5039.81,-3452.75 5155.56,-3495.6"/>
<polygon fill="black" stroke="black" points="5154.64,-3498.99 5165.24,-3499.18 5157.07,-3492.43 5154.64,-3498.99"/>
<text text-anchor="start" x="4861.25" y="-3405.63" font-family="Times New Roman,serif" font-size="14.00">created</text>
</g>
<!-- Entity18 -->
<g id="node26" class="node entity">
<title>Entity18</title>
<ellipse fill="none" stroke="black" cx="4201.49" cy="-3447.03" rx="35.19" ry="18"/>
<text text-anchor="start" x="4182.49" y="-3443.33" font-family="Times New Roman,serif" font-size="14.00">obama</text>
</g>
<!-- Entity18&#45;&gt;Entity66 -->
<g id="edge21" class="edge verb">
<title>Entity18&#45;&gt;Entity66</title>
<path fill="none" stroke="black" d="M4195.57,-3429.06C4173.18,-3361.04 4093.54,-3119.08 4066.5,-3036.94"/>
<polygon fill="black" stroke="black" points="4069.78,-3035.71 4063.33,-3027.3 4063.13,-3037.9 4069.78,-3035.71"/>
<text text-anchor="start" x="4115.04" y="-3236.8" font-family="Times New Roman,serif" font-size="14.00">isa</text>
</g>
<!-- Entity12 -->
<g id="node27" class="node entity">
<title>Entity12</title>
<ellipse fill="none" stroke="black" cx="3920.14" cy="-3447.03" rx="58.49" ry="18"/>
<text text-anchor="start" x="3883.14" y="-3443.33" font-family="Times New Roman,serif" font-size="14.00">richard nixon</text>
</g>
<!-- Entity12&#45;&gt;Entity66 -->
<g id="edge22" class="edge verb">
<title>Entity12&#45;&gt;Entity66</title>
<path fill="none" stroke="black" d="M3925.77,-3429.06C3947.12,-3361.04 4023.03,-3119.08 4048.81,-3036.94"/>
<polygon fill="black" stroke="black" points="4052.18,-3037.89 4051.83,-3027.3 4045.5,-3035.8 4052.18,-3037.89"/>
<text text-anchor="start" x="3971.29" y="-3236.8" font-family="Times New Roman,serif" font-size="14.00">isa</text>
</g>
<!-- Entity24 -->
<g id="node29" class="node entity">
<title>Entity24</title>
<ellipse fill="none" stroke="black" cx="1761.05" cy="-2811.57" rx="63.89" ry="18"/>
<text text-anchor="start" x="1720.05" y="-2807.87" font-family="Times New Roman,serif" font-size="14.00">robert bigelow</text>
</g>
<!-- Entity24&#45;&gt;Entity7 -->
<g id="edge25" class="edge verb">
<title>Entity24&#45;&gt;Entity7</title>
<path fill="none" stroke="black" d="M1721.11,-2797.44C1665.96,-2777.94 1566.48,-2742.74 1506.19,-2721.42"/>
<polygon fill="black" stroke="black" points="1507.09,-2718.02 1496.5,-2717.99 1504.76,-2724.62 1507.09,-2718.02"/>
<text text-anchor="start" x="1581.65" y="-2763.23" font-family="Times New Roman,serif" font-size="14.00">funds</text>
</g>
<!-- Entity24&#45;&gt;Entity67 -->
<g id="edge45" class="edge verb">
<title>Entity24&#45;&gt;Entity67</title>
<path fill="none" stroke="black" d="M1815.87,-2802.11C1912.26,-2785.48 2112.04,-2751 2219.64,-2732.44"/>
<polygon fill="black" stroke="black" points="2220.5,-2735.84 2229.75,-2730.69 2219.3,-2728.94 2220.5,-2735.84"/>
<text text-anchor="start" x="1953.75" y="-2771.07" font-family="Times New Roman,serif" font-size="14.00">investigates</text>
</g>
<!-- Entity44 -->
<g id="node30" class="node entity">
<title>Entity44</title>
<ellipse fill="none" stroke="black" cx="4591.39" cy="-2577.24" rx="58.49" ry="18"/>
<text text-anchor="start" x="4554.39" y="-2573.54" font-family="Times New Roman,serif" font-size="14.00">steve bannon</text>
</g>
<!-- Entity44&#45;&gt;Entity15 -->
<g id="edge28" class="edge verb">
<title>Entity44&#45;&gt;Entity15</title>
<path fill="none" stroke="black" d="M4533.98,-2573.71C4422.57,-2571.62 4177.6,-2574.25 4058.24,-2578.72"/>
<polygon fill="black" stroke="black" points="4057.99,-2575.23 4048.13,-2579.12 4058.26,-2582.22 4057.99,-2575.23"/>
<text text-anchor="start" x="4241.11" y="-2580.02" font-family="Times New Roman,serif" font-size="14.00">promoted</text>
</g>
<!-- Entity44&#45;&gt;Entity15 -->
<g id="edge64" class="edge verb">
<title>Entity44&#45;&gt;Entity15</title>
<path fill="none" stroke="black" d="M4534.88,-2582.02C4424.15,-2586.61 4179,-2589.46 4059.03,-2587.67"/>
<polygon fill="black" stroke="black" points="4058.92,-2584.17 4048.87,-2587.51 4058.81,-2591.17 4058.92,-2584.17"/>
<text text-anchor="start" x="4296.96" y="-2588.65" font-family="Times New Roman,serif" font-size="14.00">advises</text>
</g>
<!-- Entity83 -->
<g id="node40" class="node entity">
<title>Entity83</title>
<ellipse fill="none" stroke="black" cx="5011.86" cy="-2161.41" rx="61.99" ry="18"/>
<text text-anchor="start" x="4972.36" y="-2157.71" font-family="Times New Roman,serif" font-size="14.00">breitbart news</text>
</g>
<!-- Entity44&#45;&gt;Entity83 -->
<g id="edge46" class="edge verb">
<title>Entity44&#45;&gt;Entity83</title>
<path fill="none" stroke="black" d="M4608.93,-2559.9C4675.04,-2494.51 4909.44,-2262.7 4986.85,-2186.14"/>
<polygon fill="black" stroke="black" points="4989.61,-2188.34 4994.26,-2178.82 4984.69,-2183.36 4989.61,-2188.34"/>
<text text-anchor="start" x="4756.89" y="-2376.82" font-family="Times New Roman,serif" font-size="14.00">created</text>
</g>
<!-- Entity89 -->
<g id="node49" class="node entity">
<title>Entity89</title>
<ellipse fill="none" stroke="black" cx="5026.92" cy="-2485.13" rx="35.19" ry="18"/>
<text text-anchor="start" x="5007.92" y="-2481.43" font-family="Times New Roman,serif" font-size="14.00">gurgev</text>
</g>
<!-- Entity44&#45;&gt;Entity89 -->
<g id="edge53" class="edge verb">
<title>Entity44&#45;&gt;Entity89</title>
<path fill="none" stroke="black" d="M4639.67,-2567.03C4725.47,-2548.88 4903.16,-2511.31 4984.54,-2494.1"/>
<polygon fill="black" stroke="black" points="4985.38,-2497.5 4994.44,-2492 4983.94,-2490.65 4985.38,-2497.5"/>
<text text-anchor="start" x="4771.11" y="-2534.36" font-family="Times New Roman,serif" font-size="14.00">studied</text>
</g>
<!-- Entity91 -->
<g id="node51" class="node entity">
<title>Entity91</title>
<ellipse fill="none" stroke="black" cx="5055.28" cy="-2711.2" rx="38.19" ry="18"/>
<text text-anchor="start" x="5033.78" y="-2707.5" font-family="Times New Roman,serif" font-size="14.00">us navy</text>
</g>
<!-- Entity44&#45;&gt;Entity91 -->
<g id="edge55" class="edge verb">
<title>Entity44&#45;&gt;Entity91</title>
<path fill="none" stroke="black" d="M4634.2,-2589.6C4722.64,-2615.14 4924.6,-2673.46 5012.78,-2698.93"/>
<polygon fill="black" stroke="black" points="5011.88,-2702.31 5022.45,-2701.72 5013.82,-2695.58 5011.88,-2702.31"/>
<text text-anchor="start" x="4762.49" y="-2648.06" font-family="Times New Roman,serif" font-size="14.00">member of</text>
</g>
<!-- Entity94 -->
<g id="node53" class="node entity">
<title>Entity94</title>
<ellipse fill="none" stroke="black" cx="4675.76" cy="-2469.23" rx="53.09" ry="18"/>
<text text-anchor="start" x="4642.76" y="-2465.53" font-family="Times New Roman,serif" font-size="14.00">biosphere 2</text>
</g>
<!-- Entity44&#45;&gt;Entity94 -->
<g id="edge57" class="edge verb">
<title>Entity44&#45;&gt;Entity94</title>
<path fill="none" stroke="black" d="M4605.33,-2559.4C4619.08,-2541.79 4640.27,-2514.67 4655.81,-2494.77"/>
<polygon fill="black" stroke="black" points="4658.69,-2496.77 4662.09,-2486.74 4653.17,-2492.46 4658.69,-2496.77"/>
<text text-anchor="start" x="4589.57" y="-2530.89" font-family="Times New Roman,serif" font-size="14.00">created</text>
</g>
<!-- Entity107 -->
<g id="node58" class="node entity">
<title>Entity107</title>
<ellipse fill="none" stroke="black" cx="5247.18" cy="-2377.09" rx="77.19" ry="18"/>
<text text-anchor="start" x="5195.68" y="-2373.39" font-family="Times New Roman,serif" font-size="14.00">hollywood movies</text>
</g>
<!-- Entity44&#45;&gt;Entity107 -->
<g id="edge61" class="edge verb">
<title>Entity44&#45;&gt;Entity107</title>
<path fill="none" stroke="black" d="M4633.16,-2564.49C4746.72,-2529.83 5061.22,-2433.84 5190.53,-2394.38"/>
<polygon fill="black" stroke="black" points="5191.71,-2397.68 5200.26,-2391.41 5189.67,-2390.98 5191.71,-2397.68"/>
<text text-anchor="start" x="4856.85" y="-2483.23" font-family="Times New Roman,serif" font-size="14.00">produced</text>
</g>
<!-- Entity111 -->
<g id="node59" class="node entity">
<title>Entity111</title>
<ellipse fill="none" stroke="black" cx="4745.17" cy="-2685.15" rx="64.99" ry="18"/>
<text text-anchor="start" x="4703.17" y="-2681.45" font-family="Times New Roman,serif" font-size="14.00">goldman sachs</text>
</g>
<!-- Entity44&#45;&gt;Entity111 -->
<g id="edge66" class="edge verb">
<title>Entity44&#45;&gt;Entity111</title>
<path fill="none" stroke="black" d="M4615.08,-2593.86C4641.31,-2612.27 4683.73,-2642.03 4712.96,-2662.54"/>
<polygon fill="black" stroke="black" points="4711,-2665.45 4721.2,-2668.33 4715.02,-2659.72 4711,-2665.45"/>
<text text-anchor="start" x="4601.02" y="-2632" font-family="Times New Roman,serif" font-size="14.00">worked for</text>
</g>
<!-- Entity33 -->
<g id="node32" class="node entity">
<title>Entity33</title>
<ellipse fill="none" stroke="black" cx="1079.23" cy="-3449.09" rx="57.69" ry="18"/>
<text text-anchor="start" x="1042.73" y="-3445.39" font-family="Times New Roman,serif" font-size="14.00">michael pane</text>
</g>
<!-- Entity33&#45;&gt;Entity30 -->
<g id="edge47" class="edge verb">
<title>Entity33&#45;&gt;Entity30</title>
<path fill="none" stroke="black" d="M1097.01,-3466.52C1156.94,-3525.3 1351.82,-3716.4 1422.12,-3785.34"/>
<polygon fill="black" stroke="black" points="1420.09,-3788.25 1429.68,-3792.76 1424.99,-3783.25 1420.09,-3788.25"/>
<text text-anchor="start" x="1196.56" y="-3629.73" font-family="Times New Roman,serif" font-size="14.00">worked for</text>
</g>
<!-- Entity33&#45;&gt;Entity72 -->
<g id="edge31" class="edge verb">
<title>Entity33&#45;&gt;Entity72</title>
<path fill="none" stroke="black" d="M1102.37,-3432.39C1168.9,-3384.37 1360.78,-3245.87 1436.47,-3191.23"/>
<polygon fill="black" stroke="black" points="1438.63,-3193.99 1444.69,-3185.3 1434.54,-3188.31 1438.63,-3193.99"/>
<text text-anchor="start" x="1213.42" y="-3315.61" font-family="Times New Roman,serif" font-size="14.00">worked at</text>
</g>
<!-- Entity45 -->
<g id="node33" class="node entity">
<title>Entity45</title>
<ellipse fill="none" stroke="black" cx="4130.14" cy="-2333.25" rx="67.69" ry="18"/>
<text text-anchor="start" x="4086.14" y="-2329.55" font-family="Times New Roman,serif" font-size="14.00">abraham lincoln</text>
</g>
<!-- Entity45&#45;&gt;Entity66 -->
<g id="edge32" class="edge verb">
<title>Entity45&#45;&gt;Entity66</title>
<path fill="none" stroke="black" d="M4128.19,-2351.34C4118.21,-2444.21 4072.69,-2867.61 4060.47,-2981.27"/>
<polygon fill="black" stroke="black" points="4056.98,-2980.97 4059.39,-2991.28 4063.94,-2981.72 4056.98,-2980.97"/>
<text text-anchor="start" x="4078.33" y="-2670.1" font-family="Times New Roman,serif" font-size="14.00">isa</text>
</g>
<!-- Entity38 -->
<g id="node34" class="node entity">
<title>Entity38</title>
<ellipse fill="none" stroke="black" cx="4208.7" cy="-1461.81" rx="90.98" ry="18"/>
<text text-anchor="start" x="4146.7" y="-1458.11" font-family="Times New Roman,serif" font-size="14.00">emma hardinge&#45;britten</text>
</g>
<!-- Entity38&#45;&gt;Entity45 -->
<g id="edge33" class="edge verb">
<title>Entity38&#45;&gt;Entity45</title>
<path fill="none" stroke="black" d="M4207.06,-1480.02C4197.11,-1590.43 4144.83,-2170.28 4132.67,-2305.19"/>
<polygon fill="black" stroke="black" points="4129.18,-2304.87 4131.77,-2315.15 4136.15,-2305.5 4129.18,-2304.87"/>
<text text-anchor="start" x="4070.86" y="-1896.4" font-family="Times New Roman,serif" font-size="14.00">spokesperson for</text>
</g>
<!-- Entity79 -->
<g id="node38" class="node entity">
<title>Entity79</title>
<ellipse fill="none" stroke="black" cx="4603.64" cy="-1057.77" rx="39.79" ry="18"/>
<text text-anchor="start" x="4581.14" y="-1054.07" font-family="Times New Roman,serif" font-size="14.00">medium</text>
</g>
<!-- Entity38&#45;&gt;Entity79 -->
<g id="edge38" class="edge verb">
<title>Entity38&#45;&gt;Entity79</title>
<path fill="none" stroke="black" d="M4226.18,-1443.93C4289.56,-1379.1 4507.34,-1156.29 4579.91,-1082.05"/>
<polygon fill="black" stroke="black" points="4582.76,-1084.14 4587.25,-1074.54 4577.75,-1079.25 4582.76,-1084.14"/>
<text text-anchor="start" x="4387.04" y="-1266.79" font-family="Times New Roman,serif" font-size="14.00">isa</text>
</g>
<!-- Entity86 -->
<g id="node48" class="node entity">
<title>Entity86</title>
<ellipse fill="none" stroke="black" cx="4023.46" cy="-640.57" rx="85.29" ry="18"/>
<text text-anchor="start" x="3965.96" y="-636.87" font-family="Times New Roman,serif" font-size="14.00">theosophical society</text>
</g>
<!-- Entity38&#45;&gt;Entity86 -->
<g id="edge65" class="edge verb">
<title>Entity38&#45;&gt;Entity86</title>
<path fill="none" stroke="black" d="M4204.57,-1443.51C4180.56,-1337.04 4058.93,-797.81 4029.76,-668.48"/>
<polygon fill="black" stroke="black" points="4033.13,-667.55 4027.52,-658.56 4026.3,-669.09 4033.13,-667.55"/>
<text text-anchor="start" x="4076.16" y="-1059.79" font-family="Times New Roman,serif" font-size="14.00">created</text>
</g>
<!-- Entity99 -->
<g id="node54" class="node entity">
<title>Entity99</title>
<ellipse fill="none" stroke="black" cx="4406.3" cy="-879.05" rx="55.79" ry="18"/>
<text text-anchor="start" x="4371.3" y="-875.35" font-family="Times New Roman,serif" font-size="14.00">orphic circle</text>
</g>
<!-- Entity38&#45;&gt;Entity99 -->
<g id="edge58" class="edge verb">
<title>Entity38&#45;&gt;Entity99</title>
<path fill="none" stroke="black" d="M4214.83,-1443.73C4243.27,-1359.87 4362.38,-1008.56 4396.89,-906.79"/>
<polygon fill="black" stroke="black" points="4400.24,-907.8 4400.14,-897.2 4393.62,-905.55 4400.24,-907.8"/>
<text text-anchor="start" x="4244.86" y="-1179.06" font-family="Times New Roman,serif" font-size="14.00">member of</text>
</g>
<!-- Entity42 -->
<g id="node36" class="node entity">
<title>Entity42</title>
<ellipse fill="none" stroke="black" cx="2027.94" cy="-2273.66" rx="53.89" ry="18"/>
<text text-anchor="start" x="1994.44" y="-2269.96" font-family="Times New Roman,serif" font-size="14.00">black magic</text>
</g>
<!-- Entity81 -->
<g id="node37" class="node entity">
<title>Entity81</title>
<ellipse fill="none" stroke="black" cx="2115.66" cy="-2385.64" rx="28.7" ry="18"/>
<text text-anchor="start" x="2101.66" y="-2381.94" font-family="Times New Roman,serif" font-size="14.00">x left</text>
</g>
<!-- Entity42&#45;&gt;Entity81 -->
<g id="edge37" class="edge verb">
<title>Entity42&#45;&gt;Entity81</title>
<path fill="none" stroke="black" d="M2041.64,-2291.16C2056.45,-2310.05 2080.14,-2340.29 2096.72,-2361.45"/>
<polygon fill="black" stroke="black" points="2093.98,-2363.64 2102.9,-2369.36 2099.49,-2359.32 2093.98,-2363.64"/>
<text text-anchor="start" x="2008.18" y="-2330.11" font-family="Times New Roman,serif" font-size="14.00">member of</text>
</g>
<!-- Entity47 -->
<g id="node39" class="node entity">
<title>Entity47</title>
<ellipse fill="none" stroke="black" cx="5136.79" cy="-2053.46" rx="69.59" ry="18"/>
<text text-anchor="start" x="5091.29" y="-2049.76" font-family="Times New Roman,serif" font-size="14.00">andrew breitbart</text>
</g>
<!-- Entity47&#45;&gt;Entity83 -->
<g id="edge39" class="edge verb">
<title>Entity47&#45;&gt;Entity83</title>
<path fill="none" stroke="black" d="M5116.72,-2070.8C5095.87,-2088.82 5063.08,-2117.15 5039.72,-2137.34"/>
<polygon fill="black" stroke="black" points="5037.17,-2134.92 5031.89,-2144.11 5041.74,-2140.22 5037.17,-2134.92"/>
<text text-anchor="start" x="5037.22" y="-2107.87" font-family="Times New Roman,serif" font-size="14.00">created</text>
</g>
<!-- Entity35 -->
<g id="node42" class="node entity">
<title>Entity35</title>
<ellipse fill="none" stroke="black" cx="2577.94" cy="-2273.66" rx="39.79" ry="18"/>
<text text-anchor="start" x="2555.44" y="-2269.96" font-family="Times New Roman,serif" font-size="14.00">crowley</text>
</g>
<!-- Entity80 -->
<g id="node43" class="node entity">
<title>Entity80</title>
<ellipse fill="none" stroke="black" cx="2665.66" cy="-2385.64" rx="38.99" ry="18"/>
<text text-anchor="start" x="2643.66" y="-2381.94" font-family="Times New Roman,serif" font-size="14.00">x magic</text>
</g>
<!-- Entity35&#45;&gt;Entity80 -->
<g id="edge41" class="edge verb">
<title>Entity35&#45;&gt;Entity80</title>
<path fill="none" stroke="black" d="M2591.26,-2290.67C2605.82,-2309.25 2629.28,-2339.2 2645.96,-2360.49"/>
<polygon fill="black" stroke="black" points="2643.29,-2362.76 2652.21,-2368.47 2648.8,-2358.44 2643.29,-2362.76"/>
<text text-anchor="start" x="2557.61" y="-2329.38" font-family="Times New Roman,serif" font-size="14.00">member of</text>
</g>
<!-- Entity19 -->
<g id="node44" class="node entity">
<title>Entity19</title>
<ellipse fill="none" stroke="black" cx="3705.71" cy="-2879.65" rx="31.4" ry="18"/>
<text text-anchor="start" x="3689.71" y="-2875.95" font-family="Times New Roman,serif" font-size="14.00">carter</text>
</g>
<!-- Entity19&#45;&gt;Entity66 -->
<g id="edge44" class="edge verb">
<title>Entity19&#45;&gt;Entity66</title>
<path fill="none" stroke="black" d="M3732.15,-2889.41C3794.41,-2912.38 3950.32,-2969.9 4021.27,-2996.08"/>
<polygon fill="black" stroke="black" points="4020.1,-2999.38 4030.7,-2999.56 4022.53,-2992.81 4020.1,-2999.38"/>
<text text-anchor="start" x="3860.71" y="-2946.54" font-family="Times New Roman,serif" font-size="14.00">isa</text>
</g>
<!-- Entity19&#45;&gt;Entity90 -->
<g id="edge56" class="edge verb">
<title>Entity19&#45;&gt;Entity90</title>
<path fill="none" stroke="black" d="M3674.97,-2876.52C3607.62,-2869.65 3447.29,-2853.3 3374.61,-2845.89"/>
<polygon fill="black" stroke="black" points="3374.85,-2842.4 3364.55,-2844.86 3374.14,-2849.36 3374.85,-2842.4"/>
<text text-anchor="start" x="3469.79" y="-2850" font-family="Times New Roman,serif" font-size="14.00">witnessed</text>
</g>
<!-- Entity27 -->
<g id="node45" class="node entity">
<title>Entity27</title>
<ellipse fill="none" stroke="black" cx="36.5" cy="-5317.14" rx="36.29" ry="18"/>
<text text-anchor="start" x="16.5" y="-5313.44" font-family="Times New Roman,serif" font-size="14.00">oswald</text>
</g>
<!-- Entity34 -->
<g id="node46" class="node entity">
<title>Entity34</title>
<ellipse fill="none" stroke="black" cx="347.29" cy="-4997.05" rx="59.29" ry="18"/>
<text text-anchor="start" x="309.79" y="-4993.35" font-family="Times New Roman,serif" font-size="14.00">guy bannister</text>
</g>
<!-- Entity27&#45;&gt;Entity34 -->
<g id="edge50" class="edge verb">
<title>Entity27&#45;&gt;Entity34</title>
<path fill="none" stroke="black" d="M52.34,-5300.83C103.11,-5248.53 262.03,-5084.86 323.07,-5021.99"/>
<polygon fill="black" stroke="black" points="325.89,-5024.1 330.35,-5014.49 320.87,-5019.23 325.89,-5024.1"/>
<text text-anchor="start" x="124.7" y="-5165.21" font-family="Times New Roman,serif" font-size="14.00">worked for</text>
</g>
<!-- Entity34&#45;&gt;Entity75 -->
<g id="edge51" class="edge verb">
<title>Entity34&#45;&gt;Entity75</title>
<path fill="none" stroke="black" d="M364.52,-4979.57C423.04,-4920.23 614.21,-4726.38 681.15,-4658.5"/>
<polygon fill="black" stroke="black" points="683.79,-4660.8 688.32,-4651.22 678.81,-4655.89 683.79,-4660.8"/>
<text text-anchor="start" x="461.83" y="-4822.83" font-family="Times New Roman,serif" font-size="14.00">member of</text>
</g>
<!-- Entity64 -->
<g id="node47" class="node entity">
<title>Entity64</title>
<ellipse fill="none" stroke="black" cx="4231.28" cy="-17.55" rx="73.39" ry="18"/>
<text text-anchor="start" x="4182.78" y="-13.85" font-family="Times New Roman,serif" font-size="14.00">madam blavatsky</text>
</g>
<!-- Entity64&#45;&gt;Entity86 -->
<g id="edge52" class="edge verb">
<title>Entity64&#45;&gt;Entity86</title>
<path fill="none" stroke="black" d="M4225.28,-35.52C4196.04,-123.18 4068.36,-505.95 4032.73,-612.79"/>
<polygon fill="black" stroke="black" points="4029.32,-611.93 4029.48,-622.52 4035.96,-614.14 4029.32,-611.93"/>
<text text-anchor="start" x="4088" y="-327.95" font-family="Times New Roman,serif" font-size="14.00">created</text>
</g>
<!-- Entity60 -->
<g id="node56" class="node entity">
<title>Entity60</title>
<ellipse fill="none" stroke="black" cx="3599.37" cy="-151.6" rx="58.49" ry="18"/>
<text text-anchor="start" x="3562.37" y="-147.9" font-family="Times New Roman,serif" font-size="14.00">rudolf steiner</text>
</g>
<!-- Entity60&#45;&gt;Entity86 -->
<g id="edge63" class="edge verb">
<title>Entity60&#45;&gt;Entity86</title>
<path fill="none" stroke="black" d="M3614.46,-169.01C3678.21,-242.51 3925.62,-527.77 4001.33,-615.05"/>
<polygon fill="black" stroke="black" points="3998.91,-617.6 4008.1,-622.86 4004.2,-613.01 3998.91,-617.6"/>
<text text-anchor="start" x="3741.89" y="-395.83" font-family="Times New Roman,serif" font-size="14.00">memberr of</text>
</g>
<!-- Entity93 -->
<g id="node57" class="node entity">
<title>Entity93</title>
<ellipse fill="none" stroke="black" cx="3501.6" cy="-43.59" rx="102.08" ry="18"/>
<text text-anchor="start" x="3431.1" y="-39.89" font-family="Times New Roman,serif" font-size="14.00">anthroposophical society</text>
</g>
<!-- Entity60&#45;&gt;Entity93 -->
<g id="edge60" class="edge verb">
<title>Entity60&#45;&gt;Entity93</title>
<path fill="none" stroke="black" d="M3583.66,-134.25C3567.74,-116.66 3542.94,-89.27 3524.77,-69.19"/>
<polygon fill="black" stroke="black" points="3527.23,-66.69 3517.92,-61.62 3522.04,-71.38 3527.23,-66.69"/>
<text text-anchor="start" x="3513.21" y="-105.52" font-family="Times New Roman,serif" font-size="14.00">created</text>
</g>
<!-- Entity109 -->
<g id="node60" class="node entity">
<title>Entity109</title>
<ellipse fill="none" stroke="black" cx="1718.94" cy="-1709.66" rx="27" ry="18"/>
<text text-anchor="start" x="1715.44" y="-1705.96" font-family="Times New Roman,serif" font-size="14.00">s</text>
</g>
<!-- Entity112 -->
<g id="node61" class="node entity">
<title>Entity112</title>
<ellipse fill="none" stroke="black" cx="1806.66" cy="-1821.64" rx="27" ry="18"/>
<text text-anchor="start" x="1802.66" y="-1817.94" font-family="Times New Roman,serif" font-size="14.00">o</text>
</g>
<!-- Entity109&#45;&gt;Entity112 -->
<g id="edge67" class="edge verb">
<title>Entity109&#45;&gt;Entity112</title>
<path fill="none" stroke="black" d="M1731.51,-1725.7C1746.23,-1744.5 1770.76,-1775.82 1787.78,-1797.53"/>
<polygon fill="black" stroke="black" points="1785.19,-1799.91 1794.11,-1805.62 1790.7,-1795.59 1785.19,-1799.91"/>
<text text-anchor="start" x="1752.64" y="-1765.42" font-family="Times New Roman,serif" font-size="14.00">v</text>
</g>
</g>
</svg>
