<?xml version="1.0" encoding="UTF-8" standalone="no"?>
<?xml-stylesheet href="./styles.css" type="text/css"?>
<!DOCTYPE svg PUBLIC "-//W3C//DTD SVG 1.1//EN"
 "http://www.w3.org/Graphics/SVG/1.1/DTD/svg11.dtd">
<!-- Generated by graphviz version 2.47.3 (20210619.1520)
 -->
<!-- Title: G Pages: 1 -->
<svg width="6031pt" height="6174pt"
 viewBox="0.00 0.00 6031.00 6174.00" xmlns="http://www.w3.org/2000/svg" xmlns:xlink="http://www.w3.org/1999/xlink">
<g id="graph0" class="graph" transform="scale(1 1) rotate(0) translate(4 6170)">
<title>G</title>
<polygon fill="white" stroke="transparent" points="-4,4 -4,-6170 6027,-6170 6027,4 -4,4"/>
<!-- Entity3 -->
<g id="node1" class="node entity">
<title>Entity3</title>
<ellipse fill="none" stroke="black" cx="3941.38" cy="-3588.98" rx="64.19" ry="18"/>
<text text-anchor="start" x="3899.88" y="-3585.28" font-family="Times New Roman,serif" font-size="14.00">john f kennedy</text>
</g>
<!-- Entity22 -->
<g id="node2" class="node entity">
<title>Entity22</title>
<ellipse fill="none" stroke="black" cx="3521.62" cy="-3681.77" rx="27" ry="18"/>
<text text-anchor="start" x="3513.62" y="-3678.07" font-family="Times New Roman,serif" font-size="14.00">cia</text>
</g>
<!-- Entity3&#45;&gt;Entity22 -->
<g id="edge1" class="edge verb">
<title>Entity3&#45;&gt;Entity22</title>
<path fill="none" stroke="black" d="M3890.75,-3600.17C3804.74,-3619.19 3632.17,-3657.34 3557.46,-3673.85"/>
<polygon fill="black" stroke="black" points="3556.59,-3670.46 3547.59,-3676.03 3558.11,-3677.29 3556.59,-3670.46"/>
<text text-anchor="start" x="3620.1" y="-3640.81" font-family="Times New Roman,serif" font-size="14.00">heads (1961&#45;1963)</text>
</g>
<!-- Entity66 -->
<g id="node20" class="node entity">
<title>Entity66</title>
<ellipse fill="none" stroke="black" cx="4426.44" cy="-3673.68" rx="31.4" ry="18"/>
<text text-anchor="start" x="4410.44" y="-3669.98" font-family="Times New Roman,serif" font-size="14.00">potus</text>
</g>
<!-- Entity3&#45;&gt;Entity66 -->
<g id="edge23" class="edge verb">
<title>Entity3&#45;&gt;Entity66</title>
<path fill="none" stroke="black" d="M3996.08,-3598.53C4094.65,-3615.74 4299.87,-3651.58 4386.49,-3666.7"/>
<polygon fill="black" stroke="black" points="4386,-3670.17 4396.45,-3668.44 4387.2,-3663.28 4386,-3670.17"/>
<text text-anchor="start" x="4104.28" y="-3636.42" font-family="Times New Roman,serif" font-size="14.00">isa (1961&#45;1963)</text>
</g>
<!-- Entity67 -->
<g id="node25" class="node entity">
<title>Entity67</title>
<ellipse fill="none" stroke="black" cx="2774.62" cy="-3658.73" rx="77.19" ry="18"/>
<text text-anchor="start" x="2723.12" y="-3655.03" font-family="Times New Roman,serif" font-size="14.00">psi&#45;consciousness</text>
</g>
<!-- Entity22&#45;&gt;Entity67 -->
<g id="edge43" class="edge verb">
<title>Entity22&#45;&gt;Entity67</title>
<path fill="none" stroke="black" d="M3494.59,-3680.94C3392.83,-3677.8 3030.01,-3666.61 2861.63,-3661.42"/>
<polygon fill="black" stroke="black" points="2861.66,-3657.92 2851.56,-3661.11 2861.44,-3664.91 2861.66,-3657.92"/>
<text text-anchor="start" x="3114.11" y="-3674.98" font-family="Times New Roman,serif" font-size="14.00">investigates</text>
</g>
<!-- Entity90 -->
<g id="node52" class="node entity">
<title>Entity90</title>
<ellipse fill="none" stroke="black" cx="3728.23" cy="-3875.51" rx="27" ry="18"/>
<text text-anchor="start" x="3718.73" y="-3871.81" font-family="Times New Roman,serif" font-size="14.00">ufo</text>
</g>
<!-- Entity22&#45;&gt;Entity90 -->
<g id="edge62" class="edge verb">
<title>Entity22&#45;&gt;Entity90</title>
<path fill="none" stroke="black" d="M3537.49,-3696.65C3573.7,-3730.6 3662.53,-3813.91 3704.95,-3853.68"/>
<polygon fill="black" stroke="black" points="3702.62,-3856.3 3712.3,-3860.58 3707.4,-3851.19 3702.62,-3856.3"/>
<text text-anchor="start" x="3557.22" y="-3778.97" font-family="Times New Roman,serif" font-size="14.00">investigates</text>
</g>
<!-- Entity14 -->
<g id="node3" class="node entity">
<title>Entity14</title>
<ellipse fill="none" stroke="black" cx="1433.11" cy="-2622.01" rx="74.99" ry="18"/>
<text text-anchor="start" x="1383.61" y="-2618.31" font-family="Times New Roman,serif" font-size="14.00">gene roddenberry</text>
</g>
<!-- Entity8 -->
<g id="node4" class="node entity">
<title>Entity8</title>
<ellipse fill="none" stroke="black" cx="1782.48" cy="-3000.85" rx="38.19" ry="18"/>
<text text-anchor="start" x="1760.98" y="-2997.15" font-family="Times New Roman,serif" font-size="14.00">the nine</text>
</g>
<!-- Entity14&#45;&gt;Entity8 -->
<g id="edge2" class="edge verb">
<title>Entity14&#45;&gt;Entity8</title>
<path fill="none" stroke="black" d="M1449.49,-2639.77C1506.26,-2701.33 1694.62,-2905.58 1759.94,-2976.41"/>
<polygon fill="black" stroke="black" points="1757.58,-2979.01 1766.93,-2983.99 1762.72,-2974.26 1757.58,-2979.01"/>
<text text-anchor="start" x="1500.72" y="-2811.89" font-family="Times New Roman,serif" font-size="14.00">claiemd to channel</text>
</g>
<!-- Entity70 -->
<g id="node23" class="node entity">
<title>Entity70</title>
<ellipse fill="none" stroke="black" cx="1796.52" cy="-2892.93" rx="94.48" ry="18"/>
<text text-anchor="start" x="1732.02" y="-2889.23" font-family="Times New Roman,serif" font-size="14.00">egyptian gods in a ship</text>
</g>
<!-- Entity8&#45;&gt;Entity70 -->
<g id="edge16" class="edge verb">
<title>Entity8&#45;&gt;Entity70</title>
<path fill="none" stroke="black" d="M1784.86,-2982.54C1787.05,-2965.69 1790.34,-2940.46 1792.86,-2921.05"/>
<polygon fill="black" stroke="black" points="1796.35,-2921.33 1794.17,-2910.96 1789.41,-2920.43 1796.35,-2921.33"/>
<text text-anchor="start" x="1684.86" y="-2955.6" font-family="Times New Roman,serif" font-size="14.00">claimed to channel</text>
</g>
<!-- Entity16 -->
<g id="node5" class="node entity">
<title>Entity16</title>
<ellipse fill="none" stroke="black" cx="4692.11" cy="-3337.82" rx="68.49" ry="18"/>
<text text-anchor="start" x="4647.61" y="-3334.12" font-family="Times New Roman,serif" font-size="14.00">george hw bush</text>
</g>
<!-- Entity20 -->
<g id="node6" class="node entity">
<title>Entity20</title>
<ellipse fill="none" stroke="black" cx="4581.96" cy="-3229.8" rx="63.89" ry="18"/>
<text text-anchor="start" x="4540.96" y="-3226.1" font-family="Times New Roman,serif" font-size="14.00">george w bush</text>
</g>
<!-- Entity16&#45;&gt;Entity20 -->
<g id="edge3" class="edge verb">
<title>Entity16&#45;&gt;Entity20</title>
<path fill="none" stroke="black" d="M4673.92,-3319.99C4655.71,-3302.13 4627.56,-3274.52 4607.19,-3254.55"/>
<polygon fill="black" stroke="black" points="4609.4,-3251.81 4599.81,-3247.31 4604.5,-3256.81 4609.4,-3251.81"/>
<text text-anchor="start" x="4608.56" y="-3291.07" font-family="Times New Roman,serif" font-size="14.00">father</text>
</g>
<!-- Entity16&#45;&gt;Entity66 -->
<g id="edge20" class="edge verb">
<title>Entity16&#45;&gt;Entity66</title>
<path fill="none" stroke="black" d="M4677.82,-3355.88C4633.27,-3412.21 4496.75,-3584.79 4445.85,-3649.15"/>
<polygon fill="black" stroke="black" points="4442.98,-3647.13 4439.52,-3657.14 4448.47,-3651.47 4442.98,-3647.13"/>
<text text-anchor="start" x="4545.84" y="-3506.31" font-family="Times New Roman,serif" font-size="14.00">isa</text>
</g>
<!-- Entity20&#45;&gt;Entity66 -->
<g id="edge42" class="edge verb">
<title>Entity20&#45;&gt;Entity66</title>
<path fill="none" stroke="black" d="M4575.67,-3247.75C4551.56,-3316.57 4464.92,-3563.84 4435.95,-3646.53"/>
<polygon fill="black" stroke="black" points="4432.64,-3645.4 4432.64,-3655.99 4439.25,-3647.71 4432.64,-3645.4"/>
<text text-anchor="start" x="4489.81" y="-3450.94" font-family="Times New Roman,serif" font-size="14.00">isa</text>
</g>
<!-- Entity2 -->
<g id="node7" class="node entity">
<title>Entity2</title>
<ellipse fill="none" stroke="black" cx="1796.3" cy="-3322.2" rx="41.69" ry="18"/>
<text text-anchor="start" x="1772.3" y="-3318.5" font-family="Times New Roman,serif" font-size="14.00">uri geller</text>
</g>
<!-- Entity2&#45;&gt;Entity8 -->
<g id="edge4" class="edge verb">
<title>Entity2&#45;&gt;Entity8</title>
<path fill="none" stroke="black" d="M1795.52,-3304C1793.22,-3250.53 1786.47,-3093.63 1783.69,-3029.08"/>
<polygon fill="black" stroke="black" points="1787.18,-3028.69 1783.25,-3018.85 1780.18,-3028.99 1787.18,-3028.69"/>
<text text-anchor="start" x="1685.6" y="-3170.34" font-family="Times New Roman,serif" font-size="14.00">claiemd to channel</text>
</g>
<!-- Entity26 -->
<g id="node8" class="node entity">
<title>Entity26</title>
<ellipse fill="none" stroke="black" cx="48.97" cy="-5210.24" rx="49.29" ry="18"/>
<text text-anchor="start" x="18.97" y="-5206.54" font-family="Times New Roman,serif" font-size="14.00">adolf hitler</text>
</g>
<!-- Entity28 -->
<g id="node9" class="node entity">
<title>Entity28</title>
<ellipse fill="none" stroke="black" cx="420.05" cy="-5032.07" rx="32.49" ry="18"/>
<text text-anchor="start" x="403.05" y="-5028.37" font-family="Times New Roman,serif" font-size="14.00">nsdap</text>
</g>
<!-- Entity26&#45;&gt;Entity28 -->
<g id="edge5" class="edge verb">
<title>Entity26&#45;&gt;Entity28</title>
<path fill="none" stroke="black" d="M79.02,-5195.81C147.38,-5162.98 314.16,-5082.91 386.1,-5048.37"/>
<polygon fill="black" stroke="black" points="387.7,-5051.49 395.2,-5044 384.67,-5045.18 387.7,-5051.49"/>
<text text-anchor="start" x="191.56" y="-5125.89" font-family="Times New Roman,serif" font-size="14.00">created</text>
</g>
<!-- Entity75 -->
<g id="node31" class="node entity">
<title>Entity75</title>
<ellipse fill="none" stroke="black" cx="496.38" cy="-5513.95" rx="38.99" ry="18"/>
<text text-anchor="start" x="474.38" y="-5510.25" font-family="Times New Roman,serif" font-size="14.00">far right</text>
</g>
<!-- Entity28&#45;&gt;Entity75 -->
<g id="edge29" class="edge verb">
<title>Entity28&#45;&gt;Entity75</title>
<path fill="none" stroke="black" d="M422.9,-5050.08C434.46,-5123.07 477.87,-5397.12 491.95,-5485.96"/>
<polygon fill="black" stroke="black" points="488.49,-5486.52 493.51,-5495.85 495.41,-5485.42 488.49,-5486.52"/>
<text text-anchor="start" x="396.43" y="-5271.82" font-family="Times New Roman,serif" font-size="14.00">member of</text>
</g>
<!-- Entity15 -->
<g id="node10" class="node entity">
<title>Entity15</title>
<ellipse fill="none" stroke="black" cx="4810.38" cy="-3523.03" rx="59.59" ry="18"/>
<text text-anchor="start" x="4772.38" y="-3519.33" font-family="Times New Roman,serif" font-size="14.00">donald trump</text>
</g>
<!-- Entity48 -->
<g id="node11" class="node entity">
<title>Entity48</title>
<ellipse fill="none" stroke="black" cx="4150.19" cy="-3696.94" rx="50.09" ry="18"/>
<text text-anchor="start" x="4119.69" y="-3693.24" font-family="Times New Roman,serif" font-size="14.00">john trump</text>
</g>
<!-- Entity15&#45;&gt;Entity48 -->
<g id="edge6" class="edge verb">
<title>Entity15&#45;&gt;Entity48</title>
<path fill="none" stroke="black" d="M4765.27,-3534.91C4646.36,-3566.23 4325.03,-3650.88 4200.48,-3683.69"/>
<polygon fill="black" stroke="black" points="4199.58,-3680.31 4190.8,-3686.24 4201.36,-3687.08 4199.58,-3680.31"/>
<text text-anchor="start" x="4423.87" y="-3613.1" font-family="Times New Roman,serif" font-size="14.00">nephew of</text>
</g>
<!-- Entity15&#45;&gt;Entity66 -->
<g id="edge27" class="edge verb">
<title>Entity15&#45;&gt;Entity66</title>
<path fill="none" stroke="black" d="M4773.92,-3537.33C4700.44,-3566.17 4535.39,-3630.93 4462.36,-3659.58"/>
<polygon fill="black" stroke="black" points="4460.72,-3656.47 4452.69,-3663.38 4463.28,-3662.99 4460.72,-3656.47"/>
<text text-anchor="start" x="4602.14" y="-3602.26" font-family="Times New Roman,serif" font-size="14.00">isa</text>
</g>
<!-- Entity48&#45;&gt;Entity22 -->
<g id="edge10" class="edge verb">
<title>Entity48&#45;&gt;Entity22</title>
<path fill="none" stroke="black" d="M4100.07,-3695.73C3977.77,-3692.78 3666.19,-3685.26 3558.73,-3682.67"/>
<polygon fill="black" stroke="black" points="3558.77,-3679.17 3548.68,-3682.43 3558.6,-3686.17 3558.77,-3679.17"/>
<text text-anchor="start" x="3768.4" y="-3693" font-family="Times New Roman,serif" font-size="14.00">member of</text>
</g>
<!-- Entity82 -->
<g id="node41" class="node entity">
<title>Entity82</title>
<ellipse fill="none" stroke="black" cx="4403.53" cy="-4069.92" rx="50.89" ry="18"/>
<text text-anchor="start" x="4372.53" y="-4066.22" font-family="Times New Roman,serif" font-size="14.00">nikola tesla</text>
</g>
<!-- Entity48&#45;&gt;Entity82 -->
<g id="edge40" class="edge verb">
<title>Entity48&#45;&gt;Entity82</title>
<path fill="none" stroke="black" d="M4162.06,-3714.43C4202.78,-3774.37 4336.86,-3971.77 4385.61,-4043.54"/>
<polygon fill="black" stroke="black" points="4382.87,-4045.73 4391.38,-4052.04 4388.66,-4041.8 4382.87,-4045.73"/>
<text text-anchor="start" x="4232.84" y="-3882.78" font-family="Times New Roman,serif" font-size="14.00">studied</text>
</g>
<!-- Entity5 -->
<g id="node12" class="node entity">
<title>Entity5</title>
<ellipse fill="none" stroke="black" cx="1890.74" cy="-3623.01" rx="65.79" ry="18"/>
<text text-anchor="start" x="1848.24" y="-3619.31" font-family="Times New Roman,serif" font-size="14.00">arthur m young</text>
</g>
<!-- Entity5&#45;&gt;Entity8 -->
<g id="edge7" class="edge verb">
<title>Entity5&#45;&gt;Entity8</title>
<path fill="none" stroke="black" d="M1887.56,-3604.73C1872.23,-3516.63 1805.96,-3135.77 1787.35,-3028.85"/>
<polygon fill="black" stroke="black" points="1790.77,-3028.08 1785.61,-3018.83 1783.87,-3029.28 1790.77,-3028.08"/>
<text text-anchor="start" x="1837.46" y="-3320.59" font-family="Times New Roman,serif" font-size="14.00">member&#45;of</text>
</g>
<!-- Entity5&#45;&gt;Entity67 -->
<g id="edge18" class="edge verb">
<title>Entity5&#45;&gt;Entity67</title>
<path fill="none" stroke="black" d="M1955.74,-3625.64C2112.56,-3631.98 2511.77,-3648.11 2688.36,-3655.25"/>
<polygon fill="black" stroke="black" points="2688.25,-3658.75 2698.39,-3655.65 2688.54,-3651.75 2688.25,-3658.75"/>
<text text-anchor="start" x="2281.05" y="-3644.24" font-family="Times New Roman,serif" font-size="14.00">studied</text>
</g>
<!-- Entity72 -->
<g id="node28" class="node entity">
<title>Entity72</title>
<ellipse fill="none" stroke="black" cx="1209.39" cy="-4009.92" rx="53.89" ry="18"/>
<text text-anchor="start" x="1175.89" y="-4006.22" font-family="Times New Roman,serif" font-size="14.00">bell aviation</text>
</g>
<!-- Entity5&#45;&gt;Entity72 -->
<g id="edge24" class="edge verb">
<title>Entity5&#45;&gt;Entity72</title>
<path fill="none" stroke="black" d="M1861.9,-3639.39C1752.91,-3701.28 1366.25,-3920.85 1245.61,-3989.35"/>
<polygon fill="black" stroke="black" points="1243.7,-3986.41 1236.74,-3994.39 1247.16,-3992.5 1243.7,-3986.41"/>
<text text-anchor="start" x="1512.76" y="-3818.17" font-family="Times New Roman,serif" font-size="14.00">created</text>
</g>
<!-- Entity1 -->
<g id="node13" class="node entity">
<title>Entity1</title>
<ellipse fill="none" stroke="black" cx="1336.18" cy="-3177.67" rx="64.19" ry="18"/>
<text text-anchor="start" x="1294.68" y="-3173.97" font-family="Times New Roman,serif" font-size="14.00">andre puharich</text>
</g>
<!-- Entity1&#45;&gt;Entity2 -->
<g id="edge8" class="edge verb">
<title>Entity1&#45;&gt;Entity2</title>
<path fill="none" stroke="black" d="M1379.05,-3191.13C1466.59,-3218.63 1665.01,-3280.96 1752.95,-3308.58"/>
<polygon fill="black" stroke="black" points="1752.03,-3311.96 1762.61,-3311.62 1754.12,-3305.28 1752.03,-3311.96"/>
<text text-anchor="start" x="1506" y="-3253.66" font-family="Times New Roman,serif" font-size="14.00">sponsored</text>
</g>
<!-- Entity7 -->
<g id="node14" class="node entity">
<title>Entity7</title>
<ellipse fill="none" stroke="black" cx="2292.82" cy="-3525.74" rx="68.49" ry="18"/>
<text text-anchor="start" x="2248.32" y="-3522.04" font-family="Times New Roman,serif" font-size="14.00">jeffrey mishlove</text>
</g>
<!-- Entity7&#45;&gt;Entity2 -->
<g id="edge9" class="edge verb">
<title>Entity7&#45;&gt;Entity2</title>
<path fill="none" stroke="black" d="M2255.5,-3510.44C2164.12,-3472.98 1929.81,-3376.93 1836.01,-3338.47"/>
<polygon fill="black" stroke="black" points="1837.17,-3335.17 1826.59,-3334.61 1834.51,-3341.64 1837.17,-3335.17"/>
<text text-anchor="start" x="1990.75" y="-3428.26" font-family="Times New Roman,serif" font-size="14.00">promoted</text>
</g>
<!-- Entity7&#45;&gt;Entity67 -->
<g id="edge19" class="edge verb">
<title>Entity7&#45;&gt;Entity67</title>
<path fill="none" stroke="black" d="M2332.02,-3540.65C2413.63,-3566.7 2602.68,-3619.21 2705.32,-3644.66"/>
<polygon fill="black" stroke="black" points="2704.73,-3648.12 2715.28,-3647.11 2706.41,-3641.32 2704.73,-3648.12"/>
<text text-anchor="start" x="2477.67" y="-3596.45" font-family="Times New Roman,serif" font-size="14.00">studied</text>
</g>
<!-- Entity7&#45;&gt;Entity67 -->
<g id="edge26" class="edge verb">
<title>Entity7&#45;&gt;Entity67</title>
<path fill="none" stroke="black" d="M2348.34,-3536.43C2442.74,-3559.3 2633.08,-3611.87 2724.02,-3640.23"/>
<polygon fill="black" stroke="black" points="2723.23,-3643.65 2733.82,-3643.31 2725.33,-3636.97 2723.23,-3643.65"/>
<text text-anchor="start" x="2472.18" y="-3577.13" font-family="Times New Roman,serif" font-size="14.00">investigates</text>
</g>
<!-- Entity30 -->
<g id="node15" class="node entity">
<title>Entity30</title>
<ellipse fill="none" stroke="black" cx="585.52" cy="-4397.81" rx="74.99" ry="18"/>
<text text-anchor="start" x="536.02" y="-4394.11" font-family="Times New Roman,serif" font-size="14.00">walter dornberger</text>
</g>
<!-- Entity30&#45;&gt;Entity28 -->
<g id="edge11" class="edge verb">
<title>Entity30&#45;&gt;Entity28</title>
<path fill="none" stroke="black" d="M580.75,-4416.11C557.44,-4505.45 455.58,-4895.89 427.33,-5004.15"/>
<polygon fill="black" stroke="black" points="423.9,-5003.45 424.76,-5014.01 430.67,-5005.21 423.9,-5003.45"/>
<text text-anchor="start" x="443.04" y="-4713.93" font-family="Times New Roman,serif" font-size="14.00">member of</text>
</g>
<!-- Entity30&#45;&gt;Entity72 -->
<g id="edge35" class="edge verb">
<title>Entity30&#45;&gt;Entity72</title>
<path fill="none" stroke="black" d="M617.68,-4381.5C725.77,-4319.96 1074.75,-4103.01 1179.45,-4032.28"/>
<polygon fill="black" stroke="black" points="1181.68,-4035 1187.97,-4026.48 1177.73,-4029.22 1181.68,-4035"/>
<text text-anchor="start" x="819.57" y="-4210.69" font-family="Times New Roman,serif" font-size="14.00">vice&#45;president</text>
</g>
<!-- Entity30&#45;&gt;Entity72 -->
<g id="edge49" class="edge verb">
<title>Entity30&#45;&gt;Entity72</title>
<path fill="none" stroke="black" d="M608.11,-4380.46C700.82,-4316.88 1052.45,-4098.01 1170.5,-4030.09"/>
<polygon fill="black" stroke="black" points="1172.3,-4033.09 1179.24,-4025.09 1168.83,-4027.01 1172.3,-4033.09"/>
<text text-anchor="start" x="833.31" y="-4194.07" font-family="Times New Roman,serif" font-size="14.00">worked at</text>
</g>
<!-- Entity76 -->
<g id="node35" class="node entity">
<title>Entity76</title>
<ellipse fill="none" stroke="black" cx="605.66" cy="-4505.74" rx="90.98" ry="18"/>
<text text-anchor="start" x="543.66" y="-4502.04" font-family="Times New Roman,serif" font-size="14.00">nsdap rocket program</text>
</g>
<!-- Entity30&#45;&gt;Entity76 -->
<g id="edge36" class="edge verb">
<title>Entity30&#45;&gt;Entity76</title>
<path fill="none" stroke="black" d="M588.94,-4416.12C592.08,-4432.97 596.79,-4458.2 600.41,-4477.61"/>
<polygon fill="black" stroke="black" points="597.02,-4478.51 602.29,-4487.7 603.9,-4477.23 597.02,-4478.51"/>
<text text-anchor="start" x="553.67" y="-4450.67" font-family="Times New Roman,serif" font-size="14.00">created</text>
</g>
<!-- Entity104 -->
<g id="node55" class="node entity">
<title>Entity104</title>
<ellipse fill="none" stroke="black" cx="693.71" cy="-4923.86" rx="65.79" ry="18"/>
<text text-anchor="start" x="651.21" y="-4920.16" font-family="Times New Roman,serif" font-size="14.00">x series aircraft</text>
</g>
<!-- Entity30&#45;&gt;Entity104 -->
<g id="edge59" class="edge verb">
<title>Entity30&#45;&gt;Entity104</title>
<path fill="none" stroke="black" d="M589.24,-4415.92C605.27,-4493.86 668.45,-4801.03 687.95,-4895.84"/>
<polygon fill="black" stroke="black" points="684.56,-4896.74 690,-4905.83 691.41,-4895.33 684.56,-4896.74"/>
<text text-anchor="start" x="597.59" y="-4659.68" font-family="Times New Roman,serif" font-size="14.00">created</text>
</g>
<!-- Entity32 -->
<g id="node16" class="node entity">
<title>Entity32</title>
<ellipse fill="none" stroke="black" cx="82.95" cy="-4411.95" rx="46.29" ry="18"/>
<text text-anchor="start" x="55.45" y="-4408.25" font-family="Times New Roman,serif" font-size="14.00">van braun</text>
</g>
<!-- Entity32&#45;&gt;Entity30 -->
<g id="edge12" class="edge verb">
<title>Entity32&#45;&gt;Entity30</title>
<path fill="none" stroke="black" d="M129.33,-4410.64C213.84,-4408.27 394.02,-4403.2 500.91,-4400.19"/>
<polygon fill="black" stroke="black" points="501.13,-4403.69 511.02,-4399.91 500.93,-4396.69 501.13,-4403.69"/>
<text text-anchor="start" x="252.12" y="-4409.22" font-family="Times New Roman,serif" font-size="14.00">worked for</text>
</g>
<!-- Entity32&#45;&gt;Entity76 -->
<g id="edge48" class="edge verb">
<title>Entity32&#45;&gt;Entity76</title>
<path fill="none" stroke="black" d="M125.28,-4419.54C213.04,-4435.29 415.96,-4471.7 527.94,-4491.79"/>
<polygon fill="black" stroke="black" points="527.37,-4495.24 537.83,-4493.57 528.6,-4488.35 527.37,-4495.24"/>
<text text-anchor="start" x="270.61" y="-4459.47" font-family="Times New Roman,serif" font-size="14.00">worked at</text>
</g>
<!-- Entity29 -->
<g id="node17" class="node entity">
<title>Entity29</title>
<ellipse fill="none" stroke="black" cx="3881.23" cy="-4657.06" rx="37.89" ry="18"/>
<text text-anchor="start" x="3860.23" y="-4653.36" font-family="Times New Roman,serif" font-size="14.00">hunt oil</text>
</g>
<!-- Entity36 -->
<g id="node18" class="node entity">
<title>Entity36</title>
<ellipse fill="none" stroke="black" cx="4017.52" cy="-4143.61" rx="77.99" ry="18"/>
<text text-anchor="start" x="3965.52" y="-4139.91" font-family="Times New Roman,serif" font-size="14.00">dwight eisenhower</text>
</g>
<!-- Entity29&#45;&gt;Entity36 -->
<g id="edge13" class="edge verb">
<title>Entity29&#45;&gt;Entity36</title>
<path fill="none" stroke="black" d="M3886,-4639.09C3906.27,-4562.69 3985.4,-4264.59 4010.11,-4171.53"/>
<polygon fill="black" stroke="black" points="4013.53,-4172.27 4012.71,-4161.71 4006.76,-4170.47 4013.53,-4172.27"/>
<text text-anchor="start" x="3908.05" y="-4409.11" font-family="Times New Roman,serif" font-size="14.00">funded</text>
</g>
<!-- Entity36&#45;&gt;Entity66 -->
<g id="edge34" class="edge verb">
<title>Entity36&#45;&gt;Entity66</title>
<path fill="none" stroke="black" d="M4033.05,-4125.76C4096.16,-4053.24 4333.46,-3780.54 4405.54,-3697.7"/>
<polygon fill="black" stroke="black" points="4408.26,-3699.91 4412.18,-3690.07 4402.98,-3695.31 4408.26,-3699.91"/>
<text text-anchor="start" x="4200.29" y="-3915.53" font-family="Times New Roman,serif" font-size="14.00">is a</text>
</g>
<!-- Entity11 -->
<g id="node19" class="node entity">
<title>Entity11</title>
<ellipse fill="none" stroke="black" cx="4909.59" cy="-3917.07" rx="56.59" ry="18"/>
<text text-anchor="start" x="4874.09" y="-3913.37" font-family="Times New Roman,serif" font-size="14.00">harry truman</text>
</g>
<!-- Entity11&#45;&gt;Entity66 -->
<g id="edge14" class="edge verb">
<title>Entity11&#45;&gt;Entity66</title>
<path fill="none" stroke="black" d="M4879.36,-3901.85C4793.46,-3858.57 4548.32,-3735.08 4459.27,-3690.22"/>
<polygon fill="black" stroke="black" points="4460.68,-3687.01 4450.18,-3685.64 4457.53,-3693.26 4460.68,-3687.01"/>
<text text-anchor="start" x="4653.32" y="-3799.83" font-family="Times New Roman,serif" font-size="14.00">isa</text>
</g>
<!-- Entity69 -->
<g id="node24" class="node entity">
<title>Entity69</title>
<ellipse fill="none" stroke="black" cx="5321.42" cy="-4249.62" rx="55.79" ry="18"/>
<text text-anchor="start" x="5286.42" y="-4245.92" font-family="Times New Roman,serif" font-size="14.00">freemasonry</text>
</g>
<!-- Entity11&#45;&gt;Entity69 -->
<g id="edge17" class="edge verb">
<title>Entity11&#45;&gt;Entity69</title>
<path fill="none" stroke="black" d="M4930.58,-3934.02C4998.74,-3989.06 5214,-4162.89 5292.45,-4226.23"/>
<polygon fill="black" stroke="black" points="5290.49,-4229.15 5300.47,-4232.71 5294.89,-4223.7 5290.49,-4229.15"/>
<text text-anchor="start" x="5050.51" y="-4083.93" font-family="Times New Roman,serif" font-size="14.00">member of</text>
</g>
<!-- Entity63 -->
<g id="node21" class="node entity">
<title>Entity63</title>
<ellipse fill="none" stroke="black" cx="4757.14" cy="-4808.83" rx="53.89" ry="18"/>
<text text-anchor="start" x="4723.64" y="-4805.13" font-family="Times New Roman,serif" font-size="14.00">edgar casey</text>
</g>
<!-- Entity59 -->
<g id="node22" class="node entity">
<title>Entity59</title>
<ellipse fill="none" stroke="black" cx="4542.49" cy="-4276.17" rx="71.49" ry="18"/>
<text text-anchor="start" x="4495.49" y="-4272.47" font-family="Times New Roman,serif" font-size="14.00">woodrow wilson</text>
</g>
<!-- Entity63&#45;&gt;Entity59 -->
<g id="edge15" class="edge verb">
<title>Entity63&#45;&gt;Entity59</title>
<path fill="none" stroke="black" d="M4749.88,-4790.8C4718.19,-4712.16 4591.92,-4398.83 4553.58,-4303.7"/>
<polygon fill="black" stroke="black" points="4556.74,-4302.16 4549.75,-4294.19 4550.24,-4304.77 4556.74,-4302.16"/>
<text text-anchor="start" x="4609.73" y="-4551.05" font-family="Times New Roman,serif" font-size="14.00">advises</text>
</g>
<!-- Entity59&#45;&gt;Entity66 -->
<g id="edge30" class="edge verb">
<title>Entity59&#45;&gt;Entity66</title>
<path fill="none" stroke="black" d="M4539.02,-4258.14C4522.52,-4172.47 4452.01,-3806.44 4431.85,-3701.75"/>
<polygon fill="black" stroke="black" points="4435.23,-3700.8 4429.9,-3691.64 4428.36,-3702.12 4435.23,-3700.8"/>
<text text-anchor="start" x="4469.43" y="-3983.74" font-family="Times New Roman,serif" font-size="14.00">isa</text>
</g>
<!-- Entity92 -->
<g id="node50" class="node entity">
<title>Entity92</title>
<ellipse fill="none" stroke="black" cx="4542" cy="-4384.22" rx="71.49" ry="18"/>
<text text-anchor="start" x="4495" y="-4380.52" font-family="Times New Roman,serif" font-size="14.00">leauge of nations</text>
</g>
<!-- Entity59&#45;&gt;Entity92 -->
<g id="edge54" class="edge verb">
<title>Entity59&#45;&gt;Entity92</title>
<path fill="none" stroke="black" d="M4542.41,-4294.5C4542.33,-4311.36 4542.22,-4336.63 4542.13,-4356.06"/>
<polygon fill="black" stroke="black" points="4538.63,-4356.15 4542.08,-4366.16 4545.63,-4356.18 4538.63,-4356.15"/>
<text text-anchor="start" x="4501.27" y="-4329.08" font-family="Times New Roman,serif" font-size="14.00">created</text>
</g>
<!-- Entity18 -->
<g id="node26" class="node entity">
<title>Entity18</title>
<ellipse fill="none" stroke="black" cx="4634.69" cy="-3940.53" rx="35.19" ry="18"/>
<text text-anchor="start" x="4615.69" y="-3936.83" font-family="Times New Roman,serif" font-size="14.00">obama</text>
</g>
<!-- Entity18&#45;&gt;Entity66 -->
<g id="edge21" class="edge verb">
<title>Entity18&#45;&gt;Entity66</title>
<path fill="none" stroke="black" d="M4621.34,-3923.43C4585.56,-3877.57 4487.33,-3751.7 4445.6,-3698.23"/>
<polygon fill="black" stroke="black" points="4448.32,-3696.02 4439.41,-3690.29 4442.8,-3700.33 4448.32,-3696.02"/>
<text text-anchor="start" x="4517.47" y="-3814.63" font-family="Times New Roman,serif" font-size="14.00">isa</text>
</g>
<!-- Entity12 -->
<g id="node27" class="node entity">
<title>Entity12</title>
<ellipse fill="none" stroke="black" cx="4215.42" cy="-3309.74" rx="58.49" ry="18"/>
<text text-anchor="start" x="4178.42" y="-3306.04" font-family="Times New Roman,serif" font-size="14.00">richard nixon</text>
</g>
<!-- Entity12&#45;&gt;Entity66 -->
<g id="edge22" class="edge verb">
<title>Entity12&#45;&gt;Entity66</title>
<path fill="none" stroke="black" d="M4225.74,-3327.54C4260.11,-3386.81 4370.8,-3577.71 4411.36,-3647.67"/>
<polygon fill="black" stroke="black" points="4408.34,-3649.44 4416.39,-3656.34 4414.4,-3645.93 4408.34,-3649.44"/>
<text text-anchor="start" x="4302.55" y="-3491.4" font-family="Times New Roman,serif" font-size="14.00">isa</text>
</g>
<!-- Entity24 -->
<g id="node29" class="node entity">
<title>Entity24</title>
<ellipse fill="none" stroke="black" cx="2341.31" cy="-3633.8" rx="63.89" ry="18"/>
<text text-anchor="start" x="2300.31" y="-3630.1" font-family="Times New Roman,serif" font-size="14.00">robert bigelow</text>
</g>
<!-- Entity24&#45;&gt;Entity7 -->
<g id="edge25" class="edge verb">
<title>Entity24&#45;&gt;Entity7</title>
<path fill="none" stroke="black" d="M2333.08,-3615.47C2325.41,-3598.37 2313.86,-3572.63 2305.09,-3553.09"/>
<polygon fill="black" stroke="black" points="2308.21,-3551.49 2300.92,-3543.8 2301.82,-3554.35 2308.21,-3551.49"/>
<text text-anchor="start" x="2287.09" y="-3588.08" font-family="Times New Roman,serif" font-size="14.00">funds</text>
</g>
<!-- Entity24&#45;&gt;Entity67 -->
<g id="edge45" class="edge verb">
<title>Entity24&#45;&gt;Entity67</title>
<path fill="none" stroke="black" d="M2403.85,-3637.4C2478.96,-3641.72 2605.31,-3648.99 2689.32,-3653.83"/>
<polygon fill="black" stroke="black" points="2689.17,-3657.32 2699.35,-3654.4 2689.57,-3650.33 2689.17,-3657.32"/>
<text text-anchor="start" x="2482.59" y="-3649.41" font-family="Times New Roman,serif" font-size="14.00">investigates</text>
</g>
<!-- Entity44 -->
<g id="node30" class="node entity">
<title>Entity44</title>
<ellipse fill="none" stroke="black" cx="5484.84" cy="-3286.29" rx="58.49" ry="18"/>
<text text-anchor="start" x="5447.84" y="-3282.59" font-family="Times New Roman,serif" font-size="14.00">steve bannon</text>
</g>
<!-- Entity44&#45;&gt;Entity15 -->
<g id="edge28" class="edge verb">
<title>Entity44&#45;&gt;Entity15</title>
<path fill="none" stroke="black" d="M5440.46,-3298.14C5317.6,-3336.71 4974.19,-3457.24 4853.21,-3504.23"/>
<polygon fill="black" stroke="black" points="4851.92,-3500.98 4843.88,-3507.88 4854.47,-3507.5 4851.92,-3500.98"/>
<text text-anchor="start" x="5091.83" y="-3404.98" font-family="Times New Roman,serif" font-size="14.00">promoted</text>
</g>
<!-- Entity44&#45;&gt;Entity15 -->
<g id="edge64" class="edge verb">
<title>Entity44&#45;&gt;Entity15</title>
<path fill="none" stroke="black" d="M5451.52,-3301.36C5343.03,-3344.23 4999.21,-3465.15 4864.89,-3507.98"/>
<polygon fill="black" stroke="black" points="4863.69,-3504.69 4855.21,-3511.04 4865.8,-3511.36 4863.69,-3504.69"/>
<text text-anchor="start" x="5158.21" y="-3408.47" font-family="Times New Roman,serif" font-size="14.00">advises</text>
</g>
<!-- Entity83 -->
<g id="node40" class="node entity">
<title>Entity83</title>
<ellipse fill="none" stroke="black" cx="5123.85" cy="-3299.84" rx="61.99" ry="18"/>
<text text-anchor="start" x="5084.35" y="-3296.14" font-family="Times New Roman,serif" font-size="14.00">breitbart news</text>
</g>
<!-- Entity44&#45;&gt;Entity83 -->
<g id="edge46" class="edge verb">
<title>Entity44&#45;&gt;Entity83</title>
<path fill="none" stroke="black" d="M5426.44,-3288.48C5363.43,-3290.85 5263.03,-3294.61 5195.34,-3297.15"/>
<polygon fill="black" stroke="black" points="5195.05,-3293.66 5185.19,-3297.54 5195.31,-3300.66 5195.05,-3293.66"/>
<text text-anchor="start" x="5269.89" y="-3296.62" font-family="Times New Roman,serif" font-size="14.00">created</text>
</g>
<!-- Entity89 -->
<g id="node49" class="node entity">
<title>Entity89</title>
<ellipse fill="none" stroke="black" cx="5988.1" cy="-3366.29" rx="35.19" ry="18"/>
<text text-anchor="start" x="5969.1" y="-3362.59" font-family="Times New Roman,serif" font-size="14.00">gurgev</text>
</g>
<!-- Entity44&#45;&gt;Entity89 -->
<g id="edge53" class="edge verb">
<title>Entity44&#45;&gt;Entity89</title>
<path fill="none" stroke="black" d="M5537.27,-3294.63C5636.91,-3310.46 5851.86,-3344.63 5944.34,-3359.33"/>
<polygon fill="black" stroke="black" points="5944.05,-3362.83 5954.47,-3360.94 5945.15,-3355.92 5944.05,-3362.83"/>
<text text-anchor="start" x="5699.81" y="-3330.78" font-family="Times New Roman,serif" font-size="14.00">studied</text>
</g>
<!-- Entity91 -->
<g id="node51" class="node entity">
<title>Entity91</title>
<ellipse fill="none" stroke="black" cx="5961.52" cy="-3180.77" rx="38.19" ry="18"/>
<text text-anchor="start" x="5940.02" y="-3177.07" font-family="Times New Roman,serif" font-size="14.00">us navy</text>
</g>
<!-- Entity44&#45;&gt;Entity91 -->
<g id="edge55" class="edge verb">
<title>Entity44&#45;&gt;Entity91</title>
<path fill="none" stroke="black" d="M5532.73,-3275.69C5625.14,-3255.23 5826.86,-3210.58 5916.75,-3190.68"/>
<polygon fill="black" stroke="black" points="5917.62,-3194.07 5926.63,-3188.49 5916.11,-3187.24 5917.62,-3194.07"/>
<text text-anchor="start" x="5663.74" y="-3236.99" font-family="Times New Roman,serif" font-size="14.00">member of</text>
</g>
<!-- Entity94 -->
<g id="node53" class="node entity">
<title>Entity94</title>
<ellipse fill="none" stroke="black" cx="5913.55" cy="-2963.21" rx="53.09" ry="18"/>
<text text-anchor="start" x="5880.55" y="-2959.51" font-family="Times New Roman,serif" font-size="14.00">biosphere 2</text>
</g>
<!-- Entity44&#45;&gt;Entity94 -->
<g id="edge57" class="edge verb">
<title>Entity44&#45;&gt;Entity94</title>
<path fill="none" stroke="black" d="M5506.99,-3269.6C5578.21,-3215.93 5801.45,-3047.69 5883.18,-2986.1"/>
<polygon fill="black" stroke="black" points="5885.66,-2988.61 5891.54,-2979.8 5881.45,-2983.02 5885.66,-2988.61"/>
<text text-anchor="start" x="5654.08" y="-3131.65" font-family="Times New Roman,serif" font-size="14.00">created</text>
</g>
<!-- Entity107 -->
<g id="node58" class="node entity">
<title>Entity107</title>
<ellipse fill="none" stroke="black" cx="5650.61" cy="-3394.32" rx="77.19" ry="18"/>
<text text-anchor="start" x="5599.11" y="-3390.62" font-family="Times New Roman,serif" font-size="14.00">hollywood movies</text>
</g>
<!-- Entity44&#45;&gt;Entity107 -->
<g id="edge61" class="edge verb">
<title>Entity44&#45;&gt;Entity107</title>
<path fill="none" stroke="black" d="M5510.02,-3302.7C5538.25,-3321.09 5584.21,-3351.05 5615.86,-3371.67"/>
<polygon fill="black" stroke="black" points="5614.09,-3374.69 5624.37,-3377.22 5617.91,-3368.83 5614.09,-3374.69"/>
<text text-anchor="start" x="5507.94" y="-3340.98" font-family="Times New Roman,serif" font-size="14.00">produced</text>
</g>
<!-- Entity111 -->
<g id="node59" class="node entity">
<title>Entity111</title>
<ellipse fill="none" stroke="black" cx="5643.32" cy="-3178.34" rx="64.99" ry="18"/>
<text text-anchor="start" x="5601.32" y="-3174.64" font-family="Times New Roman,serif" font-size="14.00">goldman sachs</text>
</g>
<!-- Entity44&#45;&gt;Entity111 -->
<g id="edge66" class="edge verb">
<title>Entity44&#45;&gt;Entity111</title>
<path fill="none" stroke="black" d="M5509.25,-3269.66C5536.28,-3251.25 5580,-3221.47 5610.12,-3200.95"/>
<polygon fill="black" stroke="black" points="5612.32,-3203.69 5618.62,-3195.17 5608.38,-3197.9 5612.32,-3203.69"/>
<text text-anchor="start" x="5496.69" y="-3239.11" font-family="Times New Roman,serif" font-size="14.00">worked for</text>
</g>
<!-- Entity33 -->
<g id="node32" class="node entity">
<title>Entity33</title>
<ellipse fill="none" stroke="black" cx="708.98" cy="-4289.89" rx="57.69" ry="18"/>
<text text-anchor="start" x="672.48" y="-4286.19" font-family="Times New Roman,serif" font-size="14.00">michael pane</text>
</g>
<!-- Entity33&#45;&gt;Entity30 -->
<g id="edge47" class="edge verb">
<title>Entity33&#45;&gt;Entity30</title>
<path fill="none" stroke="black" d="M689.42,-4306.99C668.86,-4324.96 636.35,-4353.38 613.17,-4373.64"/>
<polygon fill="black" stroke="black" points="610.63,-4371.22 605.4,-4380.44 615.23,-4376.49 610.63,-4371.22"/>
<text text-anchor="start" x="588.3" y="-4344.12" font-family="Times New Roman,serif" font-size="14.00">worked for</text>
</g>
<!-- Entity33&#45;&gt;Entity72 -->
<g id="edge31" class="edge verb">
<title>Entity33&#45;&gt;Entity72</title>
<path fill="none" stroke="black" d="M737.32,-4274.04C822.66,-4226.29 1077.2,-4083.88 1172.67,-4030.47"/>
<polygon fill="black" stroke="black" points="1174.65,-4033.37 1181.67,-4025.43 1171.23,-4027.26 1174.65,-4033.37"/>
<text text-anchor="start" x="899" y="-4156.05" font-family="Times New Roman,serif" font-size="14.00">worked at</text>
</g>
<!-- Entity45 -->
<g id="node33" class="node entity">
<title>Entity45</title>
<ellipse fill="none" stroke="black" cx="4447.94" cy="-2996.68" rx="67.69" ry="18"/>
<text text-anchor="start" x="4403.94" y="-2992.98" font-family="Times New Roman,serif" font-size="14.00">abraham lincoln</text>
</g>
<!-- Entity45&#45;&gt;Entity66 -->
<g id="edge32" class="edge verb">
<title>Entity45&#45;&gt;Entity66</title>
<path fill="none" stroke="black" d="M4447.37,-3014.79C4444.41,-3107.78 4430.95,-3531.69 4427.34,-3645.49"/>
<polygon fill="black" stroke="black" points="4423.84,-3645.41 4427.02,-3655.52 4430.83,-3645.63 4423.84,-3645.41"/>
<text text-anchor="start" x="4421.35" y="-3333.94" font-family="Times New Roman,serif" font-size="14.00">isa</text>
</g>
<!-- Entity38 -->
<g id="node34" class="node entity">
<title>Entity38</title>
<ellipse fill="none" stroke="black" cx="4498.37" cy="-2135.19" rx="90.98" ry="18"/>
<text text-anchor="start" x="4436.37" y="-2131.49" font-family="Times New Roman,serif" font-size="14.00">emma hardinge&#45;britten</text>
</g>
<!-- Entity38&#45;&gt;Entity45 -->
<g id="edge33" class="edge verb">
<title>Entity38&#45;&gt;Entity45</title>
<path fill="none" stroke="black" d="M4497.29,-2153.58C4490.86,-2263.51 4457.49,-2833.52 4449.61,-2968.16"/>
<polygon fill="black" stroke="black" points="4446.1,-2968.28 4449.01,-2978.46 4453.09,-2968.69 4446.1,-2968.28"/>
<text text-anchor="start" x="4374.45" y="-2564.67" font-family="Times New Roman,serif" font-size="14.00">spokesperson for</text>
</g>
<!-- Entity79 -->
<g id="node38" class="node entity">
<title>Entity79</title>
<ellipse fill="none" stroke="black" cx="4629.74" cy="-1602" rx="39.79" ry="18"/>
<text text-anchor="start" x="4607.24" y="-1598.3" font-family="Times New Roman,serif" font-size="14.00">medium</text>
</g>
<!-- Entity38&#45;&gt;Entity79 -->
<g id="edge38" class="edge verb">
<title>Entity38&#45;&gt;Entity79</title>
<path fill="none" stroke="black" d="M4502.82,-2117.14C4522.19,-2038.5 4599.33,-1725.42 4622.87,-1629.85"/>
<polygon fill="black" stroke="black" points="4626.3,-1630.59 4625.29,-1620.04 4619.5,-1628.92 4626.3,-1630.59"/>
<text text-anchor="start" x="4546.85" y="-1877.3" font-family="Times New Roman,serif" font-size="14.00">isa</text>
</g>
<!-- Entity86 -->
<g id="node48" class="node entity">
<title>Entity86</title>
<ellipse fill="none" stroke="black" cx="4317.08" cy="-1319.96" rx="85.29" ry="18"/>
<text text-anchor="start" x="4259.58" y="-1316.26" font-family="Times New Roman,serif" font-size="14.00">theosophical society</text>
</g>
<!-- Entity38&#45;&gt;Entity86 -->
<g id="edge65" class="edge verb">
<title>Entity38&#45;&gt;Entity86</title>
<path fill="none" stroke="black" d="M4494.33,-2117.02C4470.85,-2011.45 4352.05,-1477.21 4323.34,-1348.09"/>
<polygon fill="black" stroke="black" points="4326.72,-1347.18 4321.13,-1338.18 4319.89,-1348.7 4326.72,-1347.18"/>
<text text-anchor="start" x="4367.83" y="-1736.35" font-family="Times New Roman,serif" font-size="14.00">created</text>
</g>
<!-- Entity99 -->
<g id="node54" class="node entity">
<title>Entity99</title>
<ellipse fill="none" stroke="black" cx="4916.36" cy="-1682.35" rx="55.79" ry="18"/>
<text text-anchor="start" x="4881.36" y="-1678.65" font-family="Times New Roman,serif" font-size="14.00">orphic circle</text>
</g>
<!-- Entity38&#45;&gt;Entity99 -->
<g id="edge58" class="edge verb">
<title>Entity38&#45;&gt;Entity99</title>
<path fill="none" stroke="black" d="M4514.76,-2117.44C4579.47,-2047.33 4817.39,-1789.56 4893.07,-1707.57"/>
<polygon fill="black" stroke="black" points="4895.87,-1709.7 4900.08,-1699.97 4890.73,-1704.95 4895.87,-1709.7"/>
<text text-anchor="start" x="4642.92" y="-1916.3" font-family="Times New Roman,serif" font-size="14.00">member of</text>
</g>
<!-- Entity42 -->
<g id="node36" class="node entity">
<title>Entity42</title>
<ellipse fill="none" stroke="black" cx="2951.94" cy="-3237.66" rx="53.89" ry="18"/>
<text text-anchor="start" x="2918.44" y="-3233.96" font-family="Times New Roman,serif" font-size="14.00">black magic</text>
</g>
<!-- Entity81 -->
<g id="node37" class="node entity">
<title>Entity81</title>
<ellipse fill="none" stroke="black" cx="3039.66" cy="-3349.64" rx="28.7" ry="18"/>
<text text-anchor="start" x="3025.66" y="-3345.94" font-family="Times New Roman,serif" font-size="14.00">x left</text>
</g>
<!-- Entity42&#45;&gt;Entity81 -->
<g id="edge37" class="edge verb">
<title>Entity42&#45;&gt;Entity81</title>
<path fill="none" stroke="black" d="M2965.64,-3255.16C2980.45,-3274.05 3004.14,-3304.29 3020.72,-3325.45"/>
<polygon fill="black" stroke="black" points="3017.98,-3327.64 3026.9,-3333.36 3023.49,-3323.32 3017.98,-3327.64"/>
<text text-anchor="start" x="2932.18" y="-3294.11" font-family="Times New Roman,serif" font-size="14.00">member of</text>
</g>
<!-- Entity47 -->
<g id="node39" class="node entity">
<title>Entity47</title>
<ellipse fill="none" stroke="black" cx="5100.28" cy="-3191.79" rx="69.59" ry="18"/>
<text text-anchor="start" x="5054.78" y="-3188.09" font-family="Times New Roman,serif" font-size="14.00">andrew breitbart</text>
</g>
<!-- Entity47&#45;&gt;Entity83 -->
<g id="edge39" class="edge verb">
<title>Entity47&#45;&gt;Entity83</title>
<path fill="none" stroke="black" d="M5104.28,-3210.12C5107.98,-3227.07 5113.52,-3252.49 5117.77,-3271.95"/>
<polygon fill="black" stroke="black" points="5114.36,-3272.76 5119.91,-3281.78 5121.2,-3271.26 5114.36,-3272.76"/>
<text text-anchor="start" x="5070.02" y="-3244.84" font-family="Times New Roman,serif" font-size="14.00">created</text>
</g>
<!-- Entity35 -->
<g id="node42" class="node entity">
<title>Entity35</title>
<ellipse fill="none" stroke="black" cx="2937.94" cy="-2593.66" rx="39.79" ry="18"/>
<text text-anchor="start" x="2915.44" y="-2589.96" font-family="Times New Roman,serif" font-size="14.00">crowley</text>
</g>
<!-- Entity80 -->
<g id="node43" class="node entity">
<title>Entity80</title>
<ellipse fill="none" stroke="black" cx="3025.66" cy="-2705.64" rx="38.99" ry="18"/>
<text text-anchor="start" x="3003.66" y="-2701.94" font-family="Times New Roman,serif" font-size="14.00">x magic</text>
</g>
<!-- Entity35&#45;&gt;Entity80 -->
<g id="edge41" class="edge verb">
<title>Entity35&#45;&gt;Entity80</title>
<path fill="none" stroke="black" d="M2951.26,-2610.67C2965.82,-2629.25 2989.28,-2659.2 3005.96,-2680.49"/>
<polygon fill="black" stroke="black" points="3003.29,-2682.76 3012.21,-2688.47 3008.8,-2678.44 3003.29,-2682.76"/>
<text text-anchor="start" x="2917.61" y="-2649.38" font-family="Times New Roman,serif" font-size="14.00">member of</text>
</g>
<!-- Entity19 -->
<g id="node44" class="node entity">
<title>Entity19</title>
<ellipse fill="none" stroke="black" cx="4069.63" cy="-3832.72" rx="31.4" ry="18"/>
<text text-anchor="start" x="4053.63" y="-3829.02" font-family="Times New Roman,serif" font-size="14.00">carter</text>
</g>
<!-- Entity19&#45;&gt;Entity66 -->
<g id="edge44" class="edge verb">
<title>Entity19&#45;&gt;Entity66</title>
<path fill="none" stroke="black" d="M4094.44,-3821.66C4156.77,-3793.87 4320.11,-3721.07 4391.83,-3689.11"/>
<polygon fill="black" stroke="black" points="4393.61,-3692.14 4401.32,-3684.88 4390.76,-3685.75 4393.61,-3692.14"/>
<text text-anchor="start" x="4227.13" y="-3759.18" font-family="Times New Roman,serif" font-size="14.00">isa</text>
</g>
<!-- Entity19&#45;&gt;Entity90 -->
<g id="edge56" class="edge verb">
<title>Entity19&#45;&gt;Entity90</title>
<path fill="none" stroke="black" d="M4039.03,-3836.55C3976.27,-3844.42 3833.16,-3862.36 3765.28,-3870.87"/>
<polygon fill="black" stroke="black" points="3764.54,-3867.44 3755.05,-3872.15 3765.41,-3874.38 3764.54,-3867.44"/>
<text text-anchor="start" x="3847.16" y="-3857.51" font-family="Times New Roman,serif" font-size="14.00">witnessed</text>
</g>
<!-- Entity27 -->
<g id="node45" class="node entity">
<title>Entity27</title>
<ellipse fill="none" stroke="black" cx="753.77" cy="-6148.02" rx="75.29" ry="18"/>
<text text-anchor="start" x="703.77" y="-6144.32" font-family="Times New Roman,serif" font-size="14.00">lee harvey oswald</text>
</g>
<!-- Entity34 -->
<g id="node46" class="node entity">
<title>Entity34</title>
<ellipse fill="none" stroke="black" cx="691.01" cy="-6040.09" rx="59.29" ry="18"/>
<text text-anchor="start" x="653.51" y="-6036.39" font-family="Times New Roman,serif" font-size="14.00">guy bannister</text>
</g>
<!-- Entity27&#45;&gt;Entity34 -->
<g id="edge50" class="edge verb">
<title>Entity27&#45;&gt;Entity34</title>
<path fill="none" stroke="black" d="M743.12,-6129.71C733.1,-6112.48 717.97,-6086.45 706.59,-6066.88"/>
<polygon fill="black" stroke="black" points="709.55,-6065.02 701.5,-6058.13 703.5,-6068.54 709.55,-6065.02"/>
<text text-anchor="start" x="661.86" y="-6102.1" font-family="Times New Roman,serif" font-size="14.00">worked for</text>
</g>
<!-- Entity34&#45;&gt;Entity75 -->
<g id="edge51" class="edge verb">
<title>Entity34&#45;&gt;Entity75</title>
<path fill="none" stroke="black" d="M684.31,-6021.98C655.42,-5943.87 541.34,-5635.49 506.53,-5541.37"/>
<polygon fill="black" stroke="black" points="509.71,-5539.88 502.95,-5531.71 503.14,-5542.31 509.71,-5539.88"/>
<text text-anchor="start" x="534.42" y="-5785.48" font-family="Times New Roman,serif" font-size="14.00">member of</text>
</g>
<!-- Entity64 -->
<g id="node47" class="node entity">
<title>Entity64</title>
<ellipse fill="none" stroke="black" cx="4178.97" cy="-1211.97" rx="73.39" ry="18"/>
<text text-anchor="start" x="4130.47" y="-1208.27" font-family="Times New Roman,serif" font-size="14.00">madam blavatsky</text>
</g>
<!-- Entity64&#45;&gt;Entity86 -->
<g id="edge52" class="edge verb">
<title>Entity64&#45;&gt;Entity86</title>
<path fill="none" stroke="black" d="M4201.16,-1229.32C4224.28,-1247.4 4260.67,-1275.85 4286.5,-1296.05"/>
<polygon fill="black" stroke="black" points="4284.46,-1298.89 4294.49,-1302.3 4288.77,-1293.38 4284.46,-1298.89"/>
<text text-anchor="start" x="4202.83" y="-1266.49" font-family="Times New Roman,serif" font-size="14.00">created</text>
</g>
<!-- Entity60 -->
<g id="node56" class="node entity">
<title>Entity60</title>
<ellipse fill="none" stroke="black" cx="4395.06" cy="-663.52" rx="58.49" ry="18"/>
<text text-anchor="start" x="4358.06" y="-659.82" font-family="Times New Roman,serif" font-size="14.00">rudolf steiner</text>
</g>
<!-- Entity60&#45;&gt;Entity86 -->
<g id="edge63" class="edge verb">
<title>Entity60&#45;&gt;Entity86</title>
<path fill="none" stroke="black" d="M4392.9,-681.76C4382.05,-773.04 4333.68,-1180.23 4320.44,-1291.68"/>
<polygon fill="black" stroke="black" points="4316.94,-1291.47 4319.24,-1301.81 4323.9,-1292.29 4316.94,-1291.47"/>
<text text-anchor="start" x="4290.67" y="-990.52" font-family="Times New Roman,serif" font-size="14.00">memberr of</text>
</g>
<!-- Entity93 -->
<g id="node57" class="node entity">
<title>Entity93</title>
<ellipse fill="none" stroke="black" cx="4479.89" cy="-17.78" rx="102.08" ry="18"/>
<text text-anchor="start" x="4409.39" y="-14.08" font-family="Times New Roman,serif" font-size="14.00">anthroposophical society</text>
</g>
<!-- Entity60&#45;&gt;Entity93 -->
<g id="edge60" class="edge verb">
<title>Entity60&#45;&gt;Entity93</title>
<path fill="none" stroke="black" d="M4397.46,-645.24C4409.34,-554.86 4461.76,-155.83 4476.2,-45.9"/>
<polygon fill="black" stroke="black" points="4479.68,-46.27 4477.51,-35.9 4472.74,-45.36 4479.68,-46.27"/>
<text text-anchor="start" x="4395.83" y="-349.37" font-family="Times New Roman,serif" font-size="14.00">created</text>
</g>
<!-- Entity109 -->
<g id="node60" class="node entity">
<title>Entity109</title>
<ellipse fill="none" stroke="black" cx="2280.94" cy="-2593.66" rx="27" ry="18"/>
<text text-anchor="start" x="2277.44" y="-2589.96" font-family="Times New Roman,serif" font-size="14.00">s</text>
</g>
<!-- Entity112 -->
<g id="node61" class="node entity">
<title>Entity112</title>
<ellipse fill="none" stroke="black" cx="2368.66" cy="-2705.64" rx="27" ry="18"/>
<text text-anchor="start" x="2364.66" y="-2701.94" font-family="Times New Roman,serif" font-size="14.00">o</text>
</g>
<!-- Entity109&#45;&gt;Entity112 -->
<g id="edge67" class="edge verb">
<title>Entity109&#45;&gt;Entity112</title>
<path fill="none" stroke="black" d="M2293.51,-2609.7C2308.23,-2628.5 2332.76,-2659.82 2349.78,-2681.53"/>
<polygon fill="black" stroke="black" points="2347.19,-2683.91 2356.11,-2689.62 2352.7,-2679.59 2347.19,-2683.91"/>
<text text-anchor="start" x="2314.64" y="-2649.42" font-family="Times New Roman,serif" font-size="14.00">v</text>
</g>
</g>
</svg>
