<?xml version="1.0" encoding="UTF-8" standalone="no"?>
<?xml-stylesheet href="./styles.css" type="text/css"?>
<!DOCTYPE svg PUBLIC "-//W3C//DTD SVG 1.1//EN"
 "http://www.w3.org/Graphics/SVG/1.1/DTD/svg11.dtd">
<!-- Generated by graphviz version 2.47.3 (20210619.1520)
 -->
<!-- Title: G Pages: 1 -->
<svg width="7384pt" height="5490pt"
 viewBox="0.00 0.00 7384.00 5490.00" xmlns="http://www.w3.org/2000/svg" xmlns:xlink="http://www.w3.org/1999/xlink">
<g id="graph0" class="graph" transform="scale(1 1) rotate(0) translate(4 5486)">
<title>G</title>
<polygon fill="white" stroke="transparent" points="-4,4 -4,-5486 7380,-5486 7380,4 -4,4"/>
<!-- Entity113 -->
<g id="node1" class="node entity">
<title>Entity113</title>
<ellipse fill="none" stroke="black" cx="3971.64" cy="-4984.43" rx="41.69" ry="18"/>
<text text-anchor="start" x="3947.64" y="-4980.73" font-family="Times New Roman,serif" font-size="14.00">uri geller</text>
</g>
<!-- Entity124 -->
<g id="node2" class="node entity">
<title>Entity124</title>
<ellipse fill="none" stroke="black" cx="4315.61" cy="-4757.05" rx="38.19" ry="18"/>
<text text-anchor="start" x="4294.11" y="-4753.35" font-family="Times New Roman,serif" font-size="14.00">the nine</text>
</g>
<!-- Entity113&#45;&gt;Entity124 -->
<g id="edge1" class="edge verb">
<title>Entity113&#45;&gt;Entity124</title>
<path fill="none" stroke="black" d="M3994.48,-4969.33C4054.36,-4929.75 4215.99,-4822.9 4284.37,-4777.69"/>
<polygon fill="black" stroke="black" points="4286.59,-4780.42 4293,-4771.99 4282.73,-4774.58 4286.59,-4780.42"/>
<text text-anchor="start" x="4035.43" y="-4877.31" font-family="Times New Roman,serif" font-size="14.00">claiemd to channel</text>
</g>
<!-- Entity181 -->
<g id="node11" class="node entity">
<title>Entity181</title>
<ellipse fill="none" stroke="black" cx="4683.35" cy="-4352.17" rx="94.48" ry="18"/>
<text text-anchor="start" x="4618.85" y="-4348.47" font-family="Times New Roman,serif" font-size="14.00">egyptian gods in a ship</text>
</g>
<!-- Entity124&#45;&gt;Entity181 -->
<g id="edge10" class="edge verb">
<title>Entity124&#45;&gt;Entity181</title>
<path fill="none" stroke="black" d="M4330.71,-4740.42C4387.82,-4677.54 4590.9,-4453.95 4660.07,-4377.79"/>
<polygon fill="black" stroke="black" points="4662.95,-4379.82 4667.09,-4370.07 4657.77,-4375.12 4662.95,-4379.82"/>
<text text-anchor="start" x="4391.39" y="-4562.91" font-family="Times New Roman,serif" font-size="14.00">claimed to channel</text>
</g>
<!-- Entity112 -->
<g id="node3" class="node entity">
<title>Entity112</title>
<ellipse fill="none" stroke="black" cx="3958.72" cy="-4557.95" rx="56.59" ry="18"/>
<text text-anchor="start" x="3923.22" y="-4554.25" font-family="Times New Roman,serif" font-size="14.00">arthur young</text>
</g>
<!-- Entity112&#45;&gt;Entity124 -->
<g id="edge7" class="edge verb">
<title>Entity112&#45;&gt;Entity124</title>
<path fill="none" stroke="black" d="M3987.03,-4573.74C4052.03,-4610 4211.79,-4699.13 4281.8,-4738.19"/>
<polygon fill="black" stroke="black" points="4280.23,-4741.32 4290.67,-4743.14 4283.64,-4735.21 4280.23,-4741.32"/>
<text text-anchor="start" x="4072.41" y="-4659.76" font-family="Times New Roman,serif" font-size="14.00">member&#45;of</text>
</g>
<!-- Entity178 -->
<g id="node4" class="node entity">
<title>Entity178</title>
<ellipse fill="none" stroke="black" cx="4624.07" cy="-4760.94" rx="53.89" ry="18"/>
<text text-anchor="start" x="4590.57" y="-4757.24" font-family="Times New Roman,serif" font-size="14.00">bell aviation</text>
</g>
<!-- Entity112&#45;&gt;Entity178 -->
<g id="edge2" class="edge verb">
<title>Entity112&#45;&gt;Entity178</title>
<path fill="none" stroke="black" d="M3999.84,-4570.49C4116.25,-4606.01 4447.82,-4707.16 4574.26,-4745.74"/>
<polygon fill="black" stroke="black" points="4573.48,-4749.16 4584.07,-4748.73 4575.53,-4742.47 4573.48,-4749.16"/>
<text text-anchor="start" x="4246.05" y="-4661.91" font-family="Times New Roman,serif" font-size="14.00">created</text>
</g>
<!-- Entity11 -->
<g id="node6" class="node entity">
<title>Entity11</title>
<ellipse fill="none" stroke="black" cx="3181.21" cy="-4324" rx="77.19" ry="18"/>
<text text-anchor="start" x="3129.71" y="-4320.3" font-family="Times New Roman,serif" font-size="14.00">psi&#45;consciousness</text>
</g>
<!-- Entity112&#45;&gt;Entity11 -->
<g id="edge9" class="edge verb">
<title>Entity112&#45;&gt;Entity11</title>
<path fill="none" stroke="black" d="M3917.47,-4545.53C3787.81,-4506.52 3388.24,-4386.29 3238.59,-4341.26"/>
<polygon fill="black" stroke="black" points="3239.26,-4337.81 3228.67,-4338.28 3237.24,-4344.51 3239.26,-4337.81"/>
<text text-anchor="start" x="3537.03" y="-4447.2" font-family="Times New Roman,serif" font-size="14.00">studied</text>
</g>
<!-- Entity115 -->
<g id="node5" class="node entity">
<title>Entity115</title>
<ellipse fill="none" stroke="black" cx="3584.28" cy="-4625.24" rx="68.49" ry="18"/>
<text text-anchor="start" x="3539.78" y="-4621.54" font-family="Times New Roman,serif" font-size="14.00">jeffrey mishlove</text>
</g>
<!-- Entity115&#45;&gt;Entity113 -->
<g id="edge5" class="edge verb">
<title>Entity115&#45;&gt;Entity113</title>
<path fill="none" stroke="black" d="M3602.96,-4642.56C3666.54,-4701.51 3874.53,-4894.38 3946.71,-4961.31"/>
<polygon fill="black" stroke="black" points="3944.33,-4963.87 3954.04,-4968.11 3949.09,-4958.74 3944.33,-4963.87"/>
<text text-anchor="start" x="3719.83" y="-4805.73" font-family="Times New Roman,serif" font-size="14.00">promoted</text>
</g>
<!-- Entity115&#45;&gt;Entity11 -->
<g id="edge3" class="edge verb">
<title>Entity115&#45;&gt;Entity11</title>
<path fill="none" stroke="black" d="M3566.18,-4607.78C3504.51,-4556.07 3302.29,-4404.59 3218.27,-4346.71"/>
<polygon fill="black" stroke="black" points="3220.04,-4343.68 3209.81,-4340.93 3216.09,-4349.46 3220.04,-4343.68"/>
<text text-anchor="start" x="3351.22" y="-4466.04" font-family="Times New Roman,serif" font-size="14.00">studied</text>
</g>
<!-- Entity115&#45;&gt;Entity11 -->
<g id="edge25" class="edge verb">
<title>Entity115&#45;&gt;Entity11</title>
<path fill="none" stroke="black" d="M3556.34,-4608.76C3481.85,-4558.4 3279.54,-4407.25 3207.26,-4348.04"/>
<polygon fill="black" stroke="black" points="3209.43,-4345.29 3199.49,-4341.61 3204.97,-4350.68 3209.43,-4345.29"/>
<text text-anchor="start" x="3317.8" y="-4482.2" font-family="Times New Roman,serif" font-size="14.00">investigates</text>
</g>
<!-- Entity114 -->
<g id="node7" class="node entity">
<title>Entity114</title>
<ellipse fill="none" stroke="black" cx="4796.69" cy="-4652.95" rx="74.99" ry="18"/>
<text text-anchor="start" x="4747.19" y="-4649.25" font-family="Times New Roman,serif" font-size="14.00">gene roddenberry</text>
</g>
<!-- Entity114&#45;&gt;Entity124 -->
<g id="edge4" class="edge verb">
<title>Entity114&#45;&gt;Entity124</title>
<path fill="none" stroke="black" d="M4741.03,-4664.99C4644.68,-4685.84 4448.65,-4728.26 4360.42,-4747.35"/>
<polygon fill="black" stroke="black" points="4359.49,-4743.97 4350.46,-4749.51 4360.97,-4750.81 4359.49,-4743.97"/>
<text text-anchor="start" x="4446.72" y="-4709.97" font-family="Times New Roman,serif" font-size="14.00">claiemd to channel</text>
</g>
<!-- Entity123 -->
<g id="node8" class="node entity">
<title>Entity123</title>
<ellipse fill="none" stroke="black" cx="3993.96" cy="-5463.54" rx="64.19" ry="18"/>
<text text-anchor="start" x="3952.46" y="-5459.84" font-family="Times New Roman,serif" font-size="14.00">andre puharich</text>
</g>
<!-- Entity123&#45;&gt;Entity113 -->
<g id="edge6" class="edge verb">
<title>Entity123&#45;&gt;Entity113</title>
<path fill="none" stroke="black" d="M3993.11,-5445.34C3989.72,-5372.49 3977.1,-5101.52 3972.96,-5012.77"/>
<polygon fill="black" stroke="black" points="3976.45,-5012.47 3972.49,-5002.64 3969.46,-5012.8 3976.45,-5012.47"/>
<text text-anchor="start" x="3923.04" y="-5232.86" font-family="Times New Roman,serif" font-size="14.00">sponsored</text>
</g>
<!-- Entity161 -->
<g id="node9" class="node entity">
<title>Entity161</title>
<ellipse fill="none" stroke="black" cx="1445.88" cy="-2806.24" rx="67.69" ry="18"/>
<text text-anchor="start" x="1401.88" y="-2802.54" font-family="Times New Roman,serif" font-size="14.00">abraham lincoln</text>
</g>
<!-- Entity180 -->
<g id="node10" class="node entity">
<title>Entity180</title>
<ellipse fill="none" stroke="black" cx="1162.42" cy="-3371.23" rx="31.4" ry="18"/>
<text text-anchor="start" x="1146.42" y="-3367.53" font-family="Times New Roman,serif" font-size="14.00">potus</text>
</g>
<!-- Entity161&#45;&gt;Entity180 -->
<g id="edge8" class="edge verb">
<title>Entity161&#45;&gt;Entity180</title>
<path fill="none" stroke="black" d="M1436.92,-2824.09C1395.81,-2906.05 1224.95,-3246.61 1175.74,-3344.69"/>
<polygon fill="black" stroke="black" points="1172.59,-3343.16 1171.24,-3353.67 1178.85,-3346.3 1172.59,-3343.16"/>
<text text-anchor="start" x="1290.33" y="-3088.19" font-family="Times New Roman,serif" font-size="14.00">isa</text>
</g>
<!-- Entity116 -->
<g id="node12" class="node entity">
<title>Entity116</title>
<ellipse fill="none" stroke="black" cx="654.9" cy="-3366.22" rx="56.59" ry="18"/>
<text text-anchor="start" x="619.4" y="-3362.52" font-family="Times New Roman,serif" font-size="14.00">harry truman</text>
</g>
<!-- Entity116&#45;&gt;Entity180 -->
<g id="edge12" class="edge verb">
<title>Entity116&#45;&gt;Entity180</title>
<path fill="none" stroke="black" d="M711.65,-3366.78C814.65,-3367.79 1030.13,-3369.93 1120.8,-3370.82"/>
<polygon fill="black" stroke="black" points="1120.94,-3374.32 1130.97,-3370.92 1121.01,-3367.32 1120.94,-3374.32"/>
<text text-anchor="start" x="900.22" y="-3372.6" font-family="Times New Roman,serif" font-size="14.00">isa</text>
</g>
<!-- Entity179 -->
<g id="node13" class="node entity">
<title>Entity179</title>
<ellipse fill="none" stroke="black" cx="197.86" cy="-3418.36" rx="34.39" ry="18"/>
<text text-anchor="start" x="179.36" y="-3414.66" font-family="Times New Roman,serif" font-size="14.00">mason</text>
</g>
<!-- Entity116&#45;&gt;Entity179 -->
<g id="edge11" class="edge verb">
<title>Entity116&#45;&gt;Entity179</title>
<path fill="none" stroke="black" d="M601.58,-3372.3C510.37,-3382.7 326.1,-3403.73 241.78,-3413.35"/>
<polygon fill="black" stroke="black" points="241.31,-3409.88 231.77,-3414.49 242.1,-3416.83 241.31,-3409.88"/>
<text text-anchor="start" x="405.68" y="-3396.62" font-family="Times New Roman,serif" font-size="14.00">isa</text>
</g>
<!-- Entity125 -->
<g id="node14" class="node entity">
<title>Entity125</title>
<ellipse fill="none" stroke="black" cx="1212.37" cy="-3683.85" rx="27" ry="18"/>
<text text-anchor="start" x="1204.87" y="-3680.15" font-family="Times New Roman,serif" font-size="14.00">jfk</text>
</g>
<!-- Entity125&#45;&gt;Entity180 -->
<g id="edge13" class="edge verb">
<title>Entity125&#45;&gt;Entity180</title>
<path fill="none" stroke="black" d="M1209.47,-3665.69C1201.13,-3613.46 1177.02,-3462.55 1166.94,-3399.47"/>
<polygon fill="black" stroke="black" points="1170.37,-3398.77 1165.33,-3389.44 1163.46,-3399.87 1170.37,-3398.77"/>
<text text-anchor="start" x="1172.21" y="-3536.38" font-family="Times New Roman,serif" font-size="14.00">isa</text>
</g>
<!-- Entity132 -->
<g id="node15" class="node entity">
<title>Entity132</title>
<ellipse fill="none" stroke="black" cx="1701.48" cy="-3455.91" rx="59.59" ry="18"/>
<text text-anchor="start" x="1663.48" y="-3452.21" font-family="Times New Roman,serif" font-size="14.00">donald trump</text>
</g>
<!-- Entity132&#45;&gt;Entity180 -->
<g id="edge14" class="edge verb">
<title>Entity132&#45;&gt;Entity180</title>
<path fill="none" stroke="black" d="M1648.32,-3447.56C1540.55,-3430.63 1298.47,-3392.61 1202.61,-3377.55"/>
<polygon fill="black" stroke="black" points="1203.15,-3374.09 1192.73,-3375.99 1202.07,-3381 1203.15,-3374.09"/>
<text text-anchor="start" x="1409.47" y="-3416.35" font-family="Times New Roman,serif" font-size="14.00">isa</text>
</g>
<!-- Entity154 -->
<g id="node39" class="node entity">
<title>Entity154</title>
<ellipse fill="none" stroke="black" cx="2176.57" cy="-3823.69" rx="50.09" ry="18"/>
<text text-anchor="start" x="2146.07" y="-3819.99" font-family="Times New Roman,serif" font-size="14.00">john trump</text>
</g>
<!-- Entity132&#45;&gt;Entity154 -->
<g id="edge41" class="edge verb">
<title>Entity132&#45;&gt;Entity154</title>
<path fill="none" stroke="black" d="M1723.44,-3472.91C1800.7,-3532.72 2059.99,-3733.44 2147.47,-3801.16"/>
<polygon fill="black" stroke="black" points="2145.34,-3803.93 2155.39,-3807.29 2149.62,-3798.4 2145.34,-3803.93"/>
<text text-anchor="start" x="1876.45" y="-3640.84" font-family="Times New Roman,serif" font-size="14.00">nephew of</text>
</g>
<!-- Entity126 -->
<g id="node16" class="node entity">
<title>Entity126</title>
<ellipse fill="none" stroke="black" cx="1115.12" cy="-3479.19" rx="58.49" ry="18"/>
<text text-anchor="start" x="1078.12" y="-3475.49" font-family="Times New Roman,serif" font-size="14.00">richard nixon</text>
</g>
<!-- Entity126&#45;&gt;Entity180 -->
<g id="edge15" class="edge verb">
<title>Entity126&#45;&gt;Entity180</title>
<path fill="none" stroke="black" d="M1123.15,-3460.88C1130.68,-3443.69 1142.04,-3417.77 1150.6,-3398.21"/>
<polygon fill="black" stroke="black" points="1153.87,-3399.48 1154.68,-3388.92 1147.46,-3396.67 1153.87,-3399.48"/>
<text text-anchor="start" x="1120.87" y="-3433.35" font-family="Times New Roman,serif" font-size="14.00">isa</text>
</g>
<!-- Entity138 -->
<g id="node17" class="node entity">
<title>Entity138</title>
<ellipse fill="none" stroke="black" cx="943.62" cy="-3791.83" rx="63.89" ry="18"/>
<text text-anchor="start" x="902.62" y="-3788.13" font-family="Times New Roman,serif" font-size="14.00">george w bush</text>
</g>
<!-- Entity138&#45;&gt;Entity180 -->
<g id="edge16" class="edge verb">
<title>Entity138&#45;&gt;Entity180</title>
<path fill="none" stroke="black" d="M953.02,-3773.76C987.54,-3707.41 1107.39,-3477.03 1148.47,-3398.05"/>
<polygon fill="black" stroke="black" points="1151.79,-3399.26 1153.3,-3388.77 1145.58,-3396.03 1151.79,-3399.26"/>
<text text-anchor="start" x="1034.75" y="-3589.71" font-family="Times New Roman,serif" font-size="14.00">isa</text>
</g>
<!-- Entity131 -->
<g id="node18" class="node entity">
<title>Entity131</title>
<ellipse fill="none" stroke="black" cx="734.84" cy="-3535.56" rx="68.49" ry="18"/>
<text text-anchor="start" x="690.34" y="-3531.86" font-family="Times New Roman,serif" font-size="14.00">george hw bush</text>
</g>
<!-- Entity131&#45;&gt;Entity180 -->
<g id="edge17" class="edge verb">
<title>Entity131&#45;&gt;Entity180</title>
<path fill="none" stroke="black" d="M773.54,-3520.69C855.85,-3489.06 1047.23,-3415.5 1126.77,-3384.94"/>
<polygon fill="black" stroke="black" points="1128.26,-3388.11 1136.34,-3381.26 1125.75,-3381.58 1128.26,-3388.11"/>
<text text-anchor="start" x="934.15" y="-3456.61" font-family="Times New Roman,serif" font-size="14.00">isa</text>
</g>
<!-- Entity127 -->
<g id="node19" class="node entity">
<title>Entity127</title>
<ellipse fill="none" stroke="black" cx="1593.57" cy="-3683.98" rx="31.4" ry="18"/>
<text text-anchor="start" x="1577.57" y="-3680.28" font-family="Times New Roman,serif" font-size="14.00">carter</text>
</g>
<!-- Entity127&#45;&gt;Entity180 -->
<g id="edge18" class="edge verb">
<title>Entity127&#45;&gt;Entity180</title>
<path fill="none" stroke="black" d="M1573.93,-3669.73C1504.63,-3619.46 1271.41,-3450.29 1190.42,-3391.54"/>
<polygon fill="black" stroke="black" points="1192.34,-3388.61 1182.19,-3385.57 1188.23,-3394.27 1192.34,-3388.61"/>
<text text-anchor="start" x="1366.17" y="-3534.43" font-family="Times New Roman,serif" font-size="14.00">isa</text>
</g>
<!-- Entity184 -->
<g id="node23" class="node entity">
<title>Entity184</title>
<ellipse fill="none" stroke="black" cx="2040.47" cy="-3931.63" rx="27" ry="18"/>
<text text-anchor="start" x="2030.97" y="-3927.93" font-family="Times New Roman,serif" font-size="14.00">ufo</text>
</g>
<!-- Entity127&#45;&gt;Entity184 -->
<g id="edge22" class="edge verb">
<title>Entity127&#45;&gt;Entity184</title>
<path fill="none" stroke="black" d="M1616.35,-3696.6C1690.77,-3737.84 1926.76,-3868.62 2010.58,-3915.06"/>
<polygon fill="black" stroke="black" points="2009.13,-3918.26 2019.57,-3920.05 2012.52,-3912.14 2009.13,-3918.26"/>
<text text-anchor="start" x="1758.46" y="-3809.63" font-family="Times New Roman,serif" font-size="14.00">witnessed</text>
</g>
<!-- Entity130 -->
<g id="node20" class="node entity">
<title>Entity130</title>
<ellipse fill="none" stroke="black" cx="931.34" cy="-3106.37" rx="35.19" ry="18"/>
<text text-anchor="start" x="912.34" y="-3102.67" font-family="Times New Roman,serif" font-size="14.00">obama</text>
</g>
<!-- Entity130&#45;&gt;Entity180 -->
<g id="edge19" class="edge verb">
<title>Entity130&#45;&gt;Entity180</title>
<path fill="none" stroke="black" d="M945.8,-3122.94C985.37,-3168.29 1095.55,-3294.59 1141.69,-3347.47"/>
<polygon fill="black" stroke="black" points="1139.06,-3349.78 1148.27,-3355.01 1144.33,-3345.17 1139.06,-3349.78"/>
<text text-anchor="start" x="1027.74" y="-3239.01" font-family="Times New Roman,serif" font-size="14.00">isa</text>
</g>
<!-- Entity128 -->
<g id="node21" class="node entity">
<title>Entity128</title>
<ellipse fill="none" stroke="black" cx="2508.85" cy="-4092.43" rx="27" ry="18"/>
<text text-anchor="start" x="2500.85" y="-4088.73" font-family="Times New Roman,serif" font-size="14.00">cia</text>
</g>
<!-- Entity128&#45;&gt;Entity11 -->
<g id="edge20" class="edge verb">
<title>Entity128&#45;&gt;Entity11</title>
<path fill="none" stroke="black" d="M2533.18,-4100.81C2630.22,-4134.23 2991,-4258.49 3127.99,-4305.67"/>
<polygon fill="black" stroke="black" points="3127.25,-4309.12 3137.84,-4309.06 3129.53,-4302.5 3127.25,-4309.12"/>
<text text-anchor="start" x="2766.58" y="-4207.04" font-family="Times New Roman,serif" font-size="14.00">investigates</text>
</g>
<!-- Entity128&#45;&gt;Entity184 -->
<g id="edge26" class="edge verb">
<title>Entity128&#45;&gt;Entity184</title>
<path fill="none" stroke="black" d="M2484.65,-4084.12C2407,-4057.46 2163.93,-3974.02 2074.2,-3943.21"/>
<polygon fill="black" stroke="black" points="2075.12,-3939.82 2064.52,-3939.89 2072.84,-3946.45 2075.12,-3939.82"/>
<text text-anchor="start" x="2215.43" y="-4017.47" font-family="Times New Roman,serif" font-size="14.00">investigates</text>
</g>
<!-- Entity134 -->
<g id="node22" class="node entity">
<title>Entity134</title>
<ellipse fill="none" stroke="black" cx="3587.08" cy="-4517.2" rx="63.89" ry="18"/>
<text text-anchor="start" x="3546.08" y="-4513.5" font-family="Times New Roman,serif" font-size="14.00">robert bigelow</text>
</g>
<!-- Entity134&#45;&gt;Entity115 -->
<g id="edge23" class="edge verb">
<title>Entity134&#45;&gt;Entity115</title>
<path fill="none" stroke="black" d="M3586.61,-4535.52C3586.17,-4552.39 3585.51,-4577.65 3585.01,-4597.08"/>
<polygon fill="black" stroke="black" points="3581.51,-4597.09 3584.75,-4607.18 3588.51,-4597.27 3581.51,-4597.09"/>
<text text-anchor="start" x="3553.81" y="-4570.1" font-family="Times New Roman,serif" font-size="14.00">funds</text>
</g>
<!-- Entity134&#45;&gt;Entity11 -->
<g id="edge21" class="edge verb">
<title>Entity134&#45;&gt;Entity11</title>
<path fill="none" stroke="black" d="M3554.55,-4501.71C3481.98,-4467.17 3306.78,-4383.77 3224.83,-4344.76"/>
<polygon fill="black" stroke="black" points="3225.85,-4341.37 3215.32,-4340.23 3222.84,-4347.69 3225.85,-4341.37"/>
<text text-anchor="start" x="3325.69" y="-4427.04" font-family="Times New Roman,serif" font-size="14.00">investigates</text>
</g>
<!-- Entity139 -->
<g id="node24" class="node entity">
<title>Entity139</title>
<ellipse fill="none" stroke="black" cx="611.56" cy="-3103.35" rx="71.49" ry="18"/>
<text text-anchor="start" x="564.56" y="-3099.65" font-family="Times New Roman,serif" font-size="14.00">woodrow wilson</text>
</g>
<!-- Entity139&#45;&gt;Entity180 -->
<g id="edge24" class="edge verb">
<title>Entity139&#45;&gt;Entity180</title>
<path fill="none" stroke="black" d="M644.78,-3119.5C742.93,-3167.23 1030.87,-3307.26 1129.13,-3355.04"/>
<polygon fill="black" stroke="black" points="1127.77,-3358.28 1138.3,-3359.5 1130.84,-3351.98 1127.77,-3358.28"/>
<text text-anchor="start" x="870.95" y="-3241.07" font-family="Times New Roman,serif" font-size="14.00">isa</text>
</g>
<!-- Entity189 -->
<g id="node28" class="node entity">
<title>Entity189</title>
<ellipse fill="none" stroke="black" cx="101.79" cy="-2741.85" rx="71.49" ry="18"/>
<text text-anchor="start" x="54.79" y="-2738.15" font-family="Times New Roman,serif" font-size="14.00">leauge of nations</text>
</g>
<!-- Entity139&#45;&gt;Entity189 -->
<g id="edge29" class="edge verb">
<title>Entity139&#45;&gt;Entity189</title>
<path fill="none" stroke="black" d="M587.31,-3086.15C503.94,-3027.03 228.98,-2832.04 134.22,-2764.85"/>
<polygon fill="black" stroke="black" points="136.06,-2761.86 125.88,-2758.93 132.01,-2767.57 136.06,-2761.86"/>
<text text-anchor="start" x="319.77" y="-2929.3" font-family="Times New Roman,serif" font-size="14.00">created</text>
</g>
<!-- Entity145 -->
<g id="node25" class="node entity">
<title>Entity145</title>
<ellipse fill="none" stroke="black" cx="53.83" cy="-2999.23" rx="53.89" ry="18"/>
<text text-anchor="start" x="20.33" y="-2995.53" font-family="Times New Roman,serif" font-size="14.00">edgar casey</text>
</g>
<!-- Entity145&#45;&gt;Entity139 -->
<g id="edge27" class="edge verb">
<title>Entity145&#45;&gt;Entity139</title>
<path fill="none" stroke="black" d="M101.38,-3008.11C200.47,-3026.6 429.32,-3069.33 543.79,-3090.7"/>
<polygon fill="black" stroke="black" points="543.37,-3094.18 553.84,-3092.57 544.65,-3087.3 543.37,-3094.18"/>
<text text-anchor="start" x="280.59" y="-3053.2" font-family="Times New Roman,serif" font-size="14.00">advises</text>
</g>
<!-- Entity137 -->
<g id="node26" class="node entity">
<title>Entity137</title>
<ellipse fill="none" stroke="black" cx="2151.94" cy="-668.65" rx="58.49" ry="18"/>
<text text-anchor="start" x="2114.94" y="-664.95" font-family="Times New Roman,serif" font-size="14.00">rudolf steiner</text>
</g>
<!-- Entity269 -->
<g id="node27" class="node entity">
<title>Entity269</title>
<ellipse fill="none" stroke="black" cx="2151.31" cy="-18.42" rx="102.08" ry="18"/>
<text text-anchor="start" x="2080.81" y="-14.72" font-family="Times New Roman,serif" font-size="14.00">anthroposophical society</text>
</g>
<!-- Entity137&#45;&gt;Entity269 -->
<g id="edge28" class="edge verb">
<title>Entity137&#45;&gt;Entity269</title>
<path fill="none" stroke="black" d="M2151.93,-650.58C2151.84,-560.26 2151.44,-157.72 2151.34,-46.8"/>
<polygon fill="black" stroke="black" points="2154.84,-46.71 2151.33,-36.71 2147.84,-46.72 2154.84,-46.71"/>
<text text-anchor="start" x="2110.63" y="-352.49" font-family="Times New Roman,serif" font-size="14.00">created</text>
</g>
<!-- Entity188 -->
<g id="node30" class="node entity">
<title>Entity188</title>
<ellipse fill="none" stroke="black" cx="2152.34" cy="-1329.53" rx="85.29" ry="18"/>
<text text-anchor="start" x="2094.84" y="-1325.83" font-family="Times New Roman,serif" font-size="14.00">theosophical society</text>
</g>
<!-- Entity137&#45;&gt;Entity188 -->
<g id="edge31" class="edge verb">
<title>Entity137&#45;&gt;Entity188</title>
<path fill="none" stroke="black" d="M2151.96,-686.67C2152.01,-777.96 2152.26,-1189.47 2152.33,-1301.37"/>
<polygon fill="black" stroke="black" points="2148.83,-1301.53 2152.33,-1311.53 2155.83,-1301.52 2148.83,-1301.53"/>
<text text-anchor="start" x="2086.14" y="-997.82" font-family="Times New Roman,serif" font-size="14.00">memberr of</text>
</g>
<!-- Entity142 -->
<g id="node29" class="node entity">
<title>Entity142</title>
<ellipse fill="none" stroke="black" cx="2260.7" cy="-1221.47" rx="73.39" ry="18"/>
<text text-anchor="start" x="2212.2" y="-1217.77" font-family="Times New Roman,serif" font-size="14.00">madam blavatsky</text>
</g>
<!-- Entity142&#45;&gt;Entity188 -->
<g id="edge30" class="edge verb">
<title>Entity142&#45;&gt;Entity188</title>
<path fill="none" stroke="black" d="M2242.81,-1239.31C2225.01,-1257.07 2197.53,-1284.47 2177.53,-1304.41"/>
<polygon fill="black" stroke="black" points="2174.87,-1302.12 2170.26,-1311.66 2179.82,-1307.08 2174.87,-1302.12"/>
<text text-anchor="start" x="2169.17" y="-1275.66" font-family="Times New Roman,serif" font-size="14.00">created</text>
</g>
<!-- Entity140 -->
<g id="node31" class="node entity">
<title>Entity140</title>
<ellipse fill="none" stroke="black" cx="1980.47" cy="-2964.29" rx="58.49" ry="18"/>
<text text-anchor="start" x="1943.47" y="-2960.59" font-family="Times New Roman,serif" font-size="14.00">steve bannon</text>
</g>
<!-- Entity140&#45;&gt;Entity132 -->
<g id="edge33" class="edge verb">
<title>Entity140&#45;&gt;Entity132</title>
<path fill="none" stroke="black" d="M1967.26,-2981.88C1919.57,-3055.55 1758.36,-3339.35 1713.18,-3428.78"/>
<polygon fill="black" stroke="black" points="1709.91,-3427.49 1708.6,-3438 1716.18,-3430.6 1709.91,-3427.49"/>
<text text-anchor="start" x="1785.22" y="-3209.13" font-family="Times New Roman,serif" font-size="14.00">promoted</text>
</g>
<!-- Entity140&#45;&gt;Entity132 -->
<g id="edge40" class="edge verb">
<title>Entity140&#45;&gt;Entity132</title>
<path fill="none" stroke="black" d="M1973.34,-2982.24C1937.06,-3056.75 1775.73,-3341.49 1720.18,-3429.72"/>
<polygon fill="black" stroke="black" points="1717.12,-3428.02 1714.69,-3438.33 1723.02,-3431.78 1717.12,-3428.02"/>
<text text-anchor="start" x="1846.76" y="-3209.78" font-family="Times New Roman,serif" font-size="14.00">advises</text>
</g>
<!-- Entity265 -->
<g id="node32" class="node entity">
<title>Entity265</title>
<ellipse fill="none" stroke="black" cx="2402.68" cy="-3029.3" rx="35.19" ry="18"/>
<text text-anchor="start" x="2383.68" y="-3025.6" font-family="Times New Roman,serif" font-size="14.00">gurgev</text>
</g>
<!-- Entity140&#45;&gt;Entity265 -->
<g id="edge32" class="edge verb">
<title>Entity140&#45;&gt;Entity265</title>
<path fill="none" stroke="black" d="M2033.09,-2972.4C2117.29,-2985.36 2280.76,-3010.53 2358.96,-3022.57"/>
<polygon fill="black" stroke="black" points="2358.54,-3026.05 2368.96,-3024.11 2359.61,-3019.13 2358.54,-3026.05"/>
<text text-anchor="start" x="2155.02" y="-3001.28" font-family="Times New Roman,serif" font-size="14.00">studied</text>
</g>
<!-- Entity270 -->
<g id="node33" class="node entity">
<title>Entity270</title>
<ellipse fill="none" stroke="black" cx="1790.16" cy="-2564.82" rx="38.19" ry="18"/>
<text text-anchor="start" x="1768.66" y="-2561.12" font-family="Times New Roman,serif" font-size="14.00">us navy</text>
</g>
<!-- Entity140&#45;&gt;Entity270 -->
<g id="edge34" class="edge verb">
<title>Entity140&#45;&gt;Entity270</title>
<path fill="none" stroke="black" d="M1971.92,-2946.35C1941.68,-2882.86 1839.56,-2668.53 1803.17,-2592.14"/>
<polygon fill="black" stroke="black" points="1806.14,-2590.24 1798.68,-2582.71 1799.82,-2593.25 1806.14,-2590.24"/>
<text text-anchor="start" x="1826.55" y="-2773.05" font-family="Times New Roman,serif" font-size="14.00">member of</text>
</g>
<!-- Entity267 -->
<g id="node34" class="node entity">
<title>Entity267</title>
<ellipse fill="none" stroke="black" cx="2053.54" cy="-2856.23" rx="53.09" ry="18"/>
<text text-anchor="start" x="2020.54" y="-2852.53" font-family="Times New Roman,serif" font-size="14.00">biosphere 2</text>
</g>
<!-- Entity140&#45;&gt;Entity267 -->
<g id="edge35" class="edge verb">
<title>Entity140&#45;&gt;Entity267</title>
<path fill="none" stroke="black" d="M1992.54,-2946.45C2004.33,-2929.01 2022.42,-2902.26 2035.84,-2882.41"/>
<polygon fill="black" stroke="black" points="2038.75,-2884.35 2041.45,-2874.1 2032.95,-2880.43 2038.75,-2884.35"/>
<text text-anchor="start" x="1973.19" y="-2918.23" font-family="Times New Roman,serif" font-size="14.00">created</text>
</g>
<!-- Entity268 -->
<g id="node35" class="node entity">
<title>Entity268</title>
<ellipse fill="none" stroke="black" cx="2477.41" cy="-2779.19" rx="64.99" ry="18"/>
<text text-anchor="start" x="2435.41" y="-2775.49" font-family="Times New Roman,serif" font-size="14.00">goldman sachs</text>
</g>
<!-- Entity140&#45;&gt;Entity268 -->
<g id="edge36" class="edge verb">
<title>Entity140&#45;&gt;Entity268</title>
<path fill="none" stroke="black" d="M2017.82,-2950.38C2106.62,-2917.3 2330.29,-2833.99 2429.15,-2797.17"/>
<polygon fill="black" stroke="black" points="2430.45,-2800.42 2438.6,-2793.65 2428.01,-2793.86 2430.45,-2800.42"/>
<text text-anchor="start" x="2160.49" y="-2877.57" font-family="Times New Roman,serif" font-size="14.00">worked for</text>
</g>
<!-- Entity191 -->
<g id="node36" class="node entity">
<title>Entity191</title>
<ellipse fill="none" stroke="black" cx="2446.16" cy="-2527.38" rx="61.99" ry="18"/>
<text text-anchor="start" x="2406.66" y="-2523.68" font-family="Times New Roman,serif" font-size="14.00">breitbart news</text>
</g>
<!-- Entity140&#45;&gt;Entity191 -->
<g id="edge37" class="edge verb">
<title>Entity140&#45;&gt;Entity191</title>
<path fill="none" stroke="black" d="M1998.73,-2947.17C2070.89,-2879.47 2336.37,-2630.39 2420.45,-2551.51"/>
<polygon fill="black" stroke="black" points="2422.88,-2554.02 2427.78,-2544.63 2418.09,-2548.92 2422.88,-2554.02"/>
<text text-anchor="start" x="2168.59" y="-2753.14" font-family="Times New Roman,serif" font-size="14.00">created</text>
</g>
<!-- Entity266 -->
<g id="node37" class="node entity">
<title>Entity266</title>
<ellipse fill="none" stroke="black" cx="2064.96" cy="-3072.25" rx="77.19" ry="18"/>
<text text-anchor="start" x="2013.46" y="-3068.55" font-family="Times New Roman,serif" font-size="14.00">hollywood movies</text>
</g>
<!-- Entity140&#45;&gt;Entity266 -->
<g id="edge38" class="edge verb">
<title>Entity140&#45;&gt;Entity266</title>
<path fill="none" stroke="black" d="M1994.42,-2982.12C2008.12,-2999.62 2029.16,-3026.51 2044.7,-3046.37"/>
<polygon fill="black" stroke="black" points="2042.06,-3048.68 2050.98,-3054.4 2047.58,-3044.37 2042.06,-3048.68"/>
<text text-anchor="start" x="1964.56" y="-3018.04" font-family="Times New Roman,serif" font-size="14.00">produced</text>
</g>
<!-- Entity151 -->
<g id="node38" class="node entity">
<title>Entity151</title>
<ellipse fill="none" stroke="black" cx="2582.6" cy="-2419.35" rx="69.59" ry="18"/>
<text text-anchor="start" x="2537.1" y="-2415.65" font-family="Times New Roman,serif" font-size="14.00">andrew breitbart</text>
</g>
<!-- Entity151&#45;&gt;Entity191 -->
<g id="edge39" class="edge verb">
<title>Entity151&#45;&gt;Entity191</title>
<path fill="none" stroke="black" d="M2560.98,-2436.47C2537.93,-2454.72 2501.28,-2483.74 2475.6,-2504.07"/>
<polygon fill="black" stroke="black" points="2473.35,-2501.39 2467.68,-2510.35 2477.69,-2506.88 2473.35,-2501.39"/>
<text text-anchor="start" x="2477.29" y="-2474.07" font-family="Times New Roman,serif" font-size="14.00">created</text>
</g>
<!-- Entity154&#45;&gt;Entity128 -->
<g id="edge42" class="edge verb">
<title>Entity154&#45;&gt;Entity128</title>
<path fill="none" stroke="black" d="M2197.11,-3840.3C2255.06,-3887.17 2419.81,-4020.42 2483.39,-4071.84"/>
<polygon fill="black" stroke="black" points="2481.34,-4074.68 2491.32,-4078.25 2485.75,-4069.24 2481.34,-4074.68"/>
<text text-anchor="start" x="2279.25" y="-3959.87" font-family="Times New Roman,serif" font-size="14.00">member of</text>
</g>
<!-- Entity271 -->
<g id="node40" class="node entity">
<title>Entity271</title>
<ellipse fill="none" stroke="black" cx="2273.97" cy="-3931.71" rx="50.89" ry="18"/>
<text text-anchor="start" x="2242.97" y="-3928.01" font-family="Times New Roman,serif" font-size="14.00">nikola tesla</text>
</g>
<!-- Entity154&#45;&gt;Entity271 -->
<g id="edge43" class="edge verb">
<title>Entity154&#45;&gt;Entity271</title>
<path fill="none" stroke="black" d="M2192.22,-3841.04C2208.27,-3858.84 2233.37,-3886.69 2251.53,-3906.82"/>
<polygon fill="black" stroke="black" points="2249.06,-3909.31 2258.36,-3914.39 2254.26,-3904.62 2249.06,-3909.31"/>
<text text-anchor="start" x="2180.88" y="-3877.73" font-family="Times New Roman,serif" font-size="14.00">studied</text>
</g>
<!-- Entity152 -->
<g id="node41" class="node entity">
<title>Entity152</title>
<ellipse fill="none" stroke="black" cx="1949.2" cy="-2130.84" rx="90.98" ry="18"/>
<text text-anchor="start" x="1887.2" y="-2127.14" font-family="Times New Roman,serif" font-size="14.00">emma hardinge&#45;britten</text>
</g>
<!-- Entity152&#45;&gt;Entity161 -->
<g id="edge45" class="edge verb">
<title>Entity152&#45;&gt;Entity161</title>
<path fill="none" stroke="black" d="M1935.74,-2148.91C1866.18,-2242.25 1547.56,-2669.8 1465.3,-2780.18"/>
<polygon fill="black" stroke="black" points="1462.32,-2778.33 1459.15,-2788.44 1467.93,-2782.51 1462.32,-2778.33"/>
<text text-anchor="start" x="1601.52" y="-2468.34" font-family="Times New Roman,serif" font-size="14.00">spokesperson for</text>
</g>
<!-- Entity152&#45;&gt;Entity188 -->
<g id="edge44" class="edge verb">
<title>Entity152&#45;&gt;Entity188</title>
<path fill="none" stroke="black" d="M1953.83,-2112.6C1980.34,-2008.03 2112.95,-1484.92 2145.25,-1357.53"/>
<polygon fill="black" stroke="black" points="2148.66,-1358.3 2147.73,-1347.74 2141.88,-1356.58 2148.66,-1358.3"/>
<text text-anchor="start" x="2008.54" y="-1738.87" font-family="Times New Roman,serif" font-size="14.00">created</text>
</g>
<!-- Entity272 -->
<g id="node42" class="node entity">
<title>Entity272</title>
<ellipse fill="none" stroke="black" cx="2100.25" cy="-2022.61" rx="39.79" ry="18"/>
<text text-anchor="start" x="2077.75" y="-2018.91" font-family="Times New Roman,serif" font-size="14.00">medium</text>
</g>
<!-- Entity152&#45;&gt;Entity272 -->
<g id="edge46" class="edge verb">
<title>Entity152&#45;&gt;Entity272</title>
<path fill="none" stroke="black" d="M1973.47,-2113.45C1999.92,-2094.5 2042.26,-2064.17 2070.65,-2043.83"/>
<polygon fill="black" stroke="black" points="2072.88,-2046.53 2078.97,-2037.86 2068.81,-2040.84 2072.88,-2046.53"/>
<text text-anchor="start" x="2006.06" y="-2082.44" font-family="Times New Roman,serif" font-size="14.00">isa</text>
</g>
<!-- Entity192 -->
<g id="node43" class="node entity">
<title>Entity192</title>
<ellipse fill="none" stroke="black" cx="1813.59" cy="-2022.88" rx="55.79" ry="18"/>
<text text-anchor="start" x="1778.59" y="-2019.18" font-family="Times New Roman,serif" font-size="14.00">orphic circle</text>
</g>
<!-- Entity152&#45;&gt;Entity192 -->
<g id="edge47" class="edge verb">
<title>Entity152&#45;&gt;Entity192</title>
<path fill="none" stroke="black" d="M1927.11,-2113.26C1904.19,-2095.01 1868.21,-2066.36 1842.91,-2046.23"/>
<polygon fill="black" stroke="black" points="1844.78,-2043.24 1834.77,-2039.75 1840.42,-2048.72 1844.78,-2043.24"/>
<text text-anchor="start" x="1824.01" y="-2083.54" font-family="Times New Roman,serif" font-size="14.00">member of</text>
</g>
<!-- Entity160 -->
<g id="node44" class="node entity">
<title>Entity160</title>
<ellipse fill="none" stroke="black" cx="3749.94" cy="-2705.66" rx="53.89" ry="18"/>
<text text-anchor="start" x="3716.44" y="-2701.96" font-family="Times New Roman,serif" font-size="14.00">black magic</text>
</g>
<!-- Entity193 -->
<g id="node45" class="node entity">
<title>Entity193</title>
<ellipse fill="none" stroke="black" cx="3837.66" cy="-2817.64" rx="28.7" ry="18"/>
<text text-anchor="start" x="3823.66" y="-2813.94" font-family="Times New Roman,serif" font-size="14.00">x left</text>
</g>
<!-- Entity160&#45;&gt;Entity193 -->
<g id="edge48" class="edge verb">
<title>Entity160&#45;&gt;Entity193</title>
<path fill="none" stroke="black" d="M3763.64,-2723.16C3778.45,-2742.05 3802.14,-2772.29 3818.72,-2793.45"/>
<polygon fill="black" stroke="black" points="3815.98,-2795.64 3824.9,-2801.36 3821.49,-2791.32 3815.98,-2795.64"/>
<text text-anchor="start" x="3730.18" y="-2762.11" font-family="Times New Roman,serif" font-size="14.00">member of</text>
</g>
<!-- Entity162 -->
<g id="node46" class="node entity">
<title>Entity162</title>
<ellipse fill="none" stroke="black" cx="3735.94" cy="-2033.66" rx="39.79" ry="18"/>
<text text-anchor="start" x="3713.44" y="-2029.96" font-family="Times New Roman,serif" font-size="14.00">crowley</text>
</g>
<!-- Entity194 -->
<g id="node47" class="node entity">
<title>Entity194</title>
<ellipse fill="none" stroke="black" cx="3823.66" cy="-2145.64" rx="38.99" ry="18"/>
<text text-anchor="start" x="3801.66" y="-2141.94" font-family="Times New Roman,serif" font-size="14.00">x magic</text>
</g>
<!-- Entity162&#45;&gt;Entity194 -->
<g id="edge49" class="edge verb">
<title>Entity162&#45;&gt;Entity194</title>
<path fill="none" stroke="black" d="M3749.26,-2050.67C3763.82,-2069.25 3787.28,-2099.2 3803.96,-2120.49"/>
<polygon fill="black" stroke="black" points="3801.29,-2122.76 3810.21,-2128.47 3806.8,-2118.44 3801.29,-2122.76"/>
<text text-anchor="start" x="3715.61" y="-2089.38" font-family="Times New Roman,serif" font-size="14.00">member of</text>
</g>
<!-- Entity163 -->
<g id="node48" class="node entity">
<title>Entity163</title>
<ellipse fill="none" stroke="black" cx="4945.24" cy="-5122.23" rx="57.69" ry="18"/>
<text text-anchor="start" x="4908.74" y="-5118.53" font-family="Times New Roman,serif" font-size="14.00">michael pane</text>
</g>
<!-- Entity163&#45;&gt;Entity178 -->
<g id="edge50" class="edge verb">
<title>Entity163&#45;&gt;Entity178</title>
<path fill="none" stroke="black" d="M4929.75,-5104.8C4877.61,-5046.15 4708.34,-4855.73 4646.74,-4786.44"/>
<polygon fill="black" stroke="black" points="4649.04,-4783.76 4639.78,-4778.61 4643.81,-4788.41 4649.04,-4783.76"/>
<text text-anchor="start" x="4732.24" y="-4949.42" font-family="Times New Roman,serif" font-size="14.00">worked at</text>
</g>
<!-- Entity165 -->
<g id="node49" class="node entity">
<title>Entity165</title>
<ellipse fill="none" stroke="black" cx="5352.66" cy="-4856.64" rx="74.99" ry="18"/>
<text text-anchor="start" x="5303.16" y="-4852.94" font-family="Times New Roman,serif" font-size="14.00">walter dornberger</text>
</g>
<!-- Entity163&#45;&gt;Entity165 -->
<g id="edge51" class="edge verb">
<title>Entity163&#45;&gt;Entity165</title>
<path fill="none" stroke="black" d="M4970.42,-5105.81C5040.41,-5060.18 5237.44,-4931.75 5317.84,-4879.34"/>
<polygon fill="black" stroke="black" points="5320.14,-4882.02 5326.6,-4873.63 5316.31,-4876.16 5320.14,-4882.02"/>
<text text-anchor="start" x="5081.13" y="-4996.38" font-family="Times New Roman,serif" font-size="14.00">worked for</text>
</g>
<!-- Entity165&#45;&gt;Entity178 -->
<g id="edge52" class="edge verb">
<title>Entity165&#45;&gt;Entity178</title>
<path fill="none" stroke="black" d="M5294.77,-4845.13C5160.2,-4823.63 4827.14,-4779.84 4687.39,-4765.22"/>
<polygon fill="black" stroke="black" points="4687.57,-4761.72 4677.27,-4764.18 4686.86,-4768.69 4687.57,-4761.72"/>
<text text-anchor="start" x="4935.08" y="-4793.97" font-family="Times New Roman,serif" font-size="14.00">worked at</text>
</g>
<!-- Entity165&#45;&gt;Entity178 -->
<g id="edge53" class="edge verb">
<title>Entity165&#45;&gt;Entity178</title>
<path fill="none" stroke="black" d="M5280.92,-4851.47C5135.96,-4835.96 4810.84,-4793.13 4680.09,-4772.15"/>
<polygon fill="black" stroke="black" points="4680.34,-4768.65 4669.91,-4770.5 4679.21,-4775.56 4680.34,-4768.65"/>
<text text-anchor="start" x="4901.51" y="-4815.61" font-family="Times New Roman,serif" font-size="14.00">vice&#45;president</text>
</g>
<!-- Entity195 -->
<g id="node50" class="node entity">
<title>Entity195</title>
<ellipse fill="none" stroke="black" cx="5333.69" cy="-4748.74" rx="90.98" ry="18"/>
<text text-anchor="start" x="5271.69" y="-4745.04" font-family="Times New Roman,serif" font-size="14.00">nsdap rocket program</text>
</g>
<!-- Entity165&#45;&gt;Entity195 -->
<g id="edge54" class="edge verb">
<title>Entity165&#45;&gt;Entity195</title>
<path fill="none" stroke="black" d="M5349.44,-4838.34C5346.48,-4821.49 5342.04,-4796.26 5338.63,-4776.86"/>
<polygon fill="black" stroke="black" points="5342.04,-4776.01 5336.86,-4766.77 5335.14,-4777.23 5342.04,-4776.01"/>
<text text-anchor="start" x="5303.04" y="-4811.4" font-family="Times New Roman,serif" font-size="14.00">created</text>
</g>
<!-- Entity177 -->
<g id="node51" class="node entity">
<title>Entity177</title>
<ellipse fill="none" stroke="black" cx="5978.72" cy="-4996.25" rx="32.49" ry="18"/>
<text text-anchor="start" x="5961.72" y="-4992.55" font-family="Times New Roman,serif" font-size="14.00">nsdap</text>
</g>
<!-- Entity165&#45;&gt;Entity177 -->
<g id="edge55" class="edge verb">
<title>Entity165&#45;&gt;Entity177</title>
<path fill="none" stroke="black" d="M5407.67,-4868.91C5531.53,-4896.53 5829.92,-4963.07 5938.41,-4987.26"/>
<polygon fill="black" stroke="black" points="5937.79,-4990.71 5948.31,-4989.47 5939.31,-4983.87 5937.79,-4990.71"/>
<text text-anchor="start" x="5612.04" y="-4931.88" font-family="Times New Roman,serif" font-size="14.00">member of</text>
</g>
<!-- Entity273 -->
<g id="node53" class="node entity">
<title>Entity273</title>
<ellipse fill="none" stroke="black" cx="5798.1" cy="-5232.1" rx="65.79" ry="18"/>
<text text-anchor="start" x="5755.6" y="-5228.4" font-family="Times New Roman,serif" font-size="14.00">x series aircraft</text>
</g>
<!-- Entity165&#45;&gt;Entity273 -->
<g id="edge58" class="edge verb">
<title>Entity165&#45;&gt;Entity273</title>
<path fill="none" stroke="black" d="M5373.25,-4874C5445.45,-4934.85 5687.19,-5138.62 5769.99,-5208.41"/>
<polygon fill="black" stroke="black" points="5767.82,-5211.16 5777.72,-5214.93 5772.33,-5205.81 5767.82,-5211.16"/>
<text text-anchor="start" x="5530.62" y="-5045" font-family="Times New Roman,serif" font-size="14.00">created</text>
</g>
<!-- Entity102 -->
<g id="node59" class="node entity">
<title>Entity102</title>
<ellipse fill="none" stroke="black" cx="6428.77" cy="-5063.96" rx="38.99" ry="18"/>
<text text-anchor="start" x="6406.77" y="-5060.26" font-family="Times New Roman,serif" font-size="14.00">far right</text>
</g>
<!-- Entity177&#45;&gt;Entity102 -->
<g id="edge63" class="edge verb">
<title>Entity177&#45;&gt;Entity102</title>
<path fill="none" stroke="black" d="M6008.06,-5004.28C6083.74,-5019.65 6286.09,-5050.37 6379.84,-5061.02"/>
<polygon fill="black" stroke="black" points="6379.59,-5064.51 6389.92,-5062.13 6380.36,-5057.55 6379.59,-5064.51"/>
<text text-anchor="start" x="6138.95" y="-5036.45" font-family="Times New Roman,serif" font-size="14.00">member a</text>
</g>
<!-- Entity177&#45;&gt;Entity102 -->
<g id="edge67" class="edge verb">
<title>Entity177&#45;&gt;Entity102</title>
<path fill="none" stroke="black" d="M6011.27,-4997.42C6090.74,-5005.44 6294.72,-5035.94 6384.84,-5053.07"/>
<polygon fill="black" stroke="black" points="6384.26,-5056.52 6394.74,-5054.98 6385.59,-5049.64 6384.26,-5056.52"/>
<text text-anchor="start" x="6137.06" y="-5014.04" font-family="Times New Roman,serif" font-size="14.00">member of</text>
</g>
<!-- Entity170 -->
<g id="node52" class="node entity">
<title>Entity170</title>
<ellipse fill="none" stroke="black" cx="5462.72" cy="-5284.64" rx="46.29" ry="18"/>
<text text-anchor="start" x="5435.22" y="-5280.94" font-family="Times New Roman,serif" font-size="14.00">van braun</text>
</g>
<!-- Entity170&#45;&gt;Entity165 -->
<g id="edge56" class="edge verb">
<title>Entity170&#45;&gt;Entity165</title>
<path fill="none" stroke="black" d="M5458.06,-5266.52C5440.87,-5199.67 5380.92,-4966.54 5359.96,-4885.03"/>
<polygon fill="black" stroke="black" points="5363.26,-4883.81 5357.38,-4875 5356.48,-4885.56 5363.26,-4883.81"/>
<text text-anchor="start" x="5346.01" y="-5079.58" font-family="Times New Roman,serif" font-size="14.00">worked for</text>
</g>
<!-- Entity170&#45;&gt;Entity195 -->
<g id="edge57" class="edge verb">
<title>Entity170&#45;&gt;Entity195</title>
<path fill="none" stroke="black" d="M5458.35,-5266.5C5439.32,-5187.46 5363.56,-4872.79 5340.43,-4776.73"/>
<polygon fill="black" stroke="black" points="5343.8,-4775.77 5338.06,-4766.87 5336.99,-4777.41 5343.8,-4775.77"/>
<text text-anchor="start" x="5343.39" y="-5025.41" font-family="Times New Roman,serif" font-size="14.00">worked at</text>
</g>
<!-- Entity172 -->
<g id="node54" class="node entity">
<title>Entity172</title>
<ellipse fill="none" stroke="black" cx="6289.87" cy="-5246.22" rx="49.29" ry="18"/>
<text text-anchor="start" x="6259.87" y="-5242.52" font-family="Times New Roman,serif" font-size="14.00">adolf hitler</text>
</g>
<!-- Entity172&#45;&gt;Entity177 -->
<g id="edge59" class="edge verb">
<title>Entity172&#45;&gt;Entity177</title>
<path fill="none" stroke="black" d="M6269.46,-5229.82C6214.97,-5186.04 6066.1,-5066.45 6005.21,-5017.53"/>
<polygon fill="black" stroke="black" points="6007.21,-5014.65 5997.22,-5011.11 6002.83,-5020.1 6007.21,-5014.65"/>
<text text-anchor="start" x="6096.33" y="-5127.47" font-family="Times New Roman,serif" font-size="14.00">created</text>
</g>
<!-- Entity173 -->
<g id="node55" class="node entity">
<title>Entity173</title>
<ellipse fill="none" stroke="black" cx="645.18" cy="-3683.85" rx="77.99" ry="18"/>
<text text-anchor="start" x="593.18" y="-3680.15" font-family="Times New Roman,serif" font-size="14.00">dwight eisenhower</text>
</g>
<!-- Entity173&#45;&gt;Entity180 -->
<g id="edge60" class="edge verb">
<title>Entity173&#45;&gt;Entity180</title>
<path fill="none" stroke="black" d="M673.36,-3666.82C762.82,-3612.75 1039.96,-3445.25 1132.21,-3389.49"/>
<polygon fill="black" stroke="black" points="1134.05,-3392.47 1140.8,-3384.31 1130.43,-3386.48 1134.05,-3392.47"/>
<text text-anchor="start" x="883.78" y="-3531.96" font-family="Times New Roman,serif" font-size="14.00">is a</text>
</g>
<!-- Entity174 -->
<g id="node56" class="node entity">
<title>Entity174</title>
<ellipse fill="none" stroke="black" cx="192.47" cy="-3977.57" rx="37.89" ry="18"/>
<text text-anchor="start" x="171.47" y="-3973.87" font-family="Times New Roman,serif" font-size="14.00">hunt oil</text>
</g>
<!-- Entity174&#45;&gt;Entity173 -->
<g id="edge61" class="edge verb">
<title>Entity174&#45;&gt;Entity173</title>
<path fill="none" stroke="black" d="M214.92,-3963.01C288.32,-3915.39 521.52,-3764.08 610.36,-3706.44"/>
<polygon fill="black" stroke="black" points="612.5,-3709.22 618.99,-3700.84 608.69,-3703.35 612.5,-3709.22"/>
<text text-anchor="start" x="372.64" y="-3838.52" font-family="Times New Roman,serif" font-size="14.00">funded</text>
</g>
<!-- Entity175 -->
<g id="node57" class="node entity">
<title>Entity175</title>
<ellipse fill="none" stroke="black" cx="7339.28" cy="-5311.32" rx="36.29" ry="18"/>
<text text-anchor="start" x="7319.28" y="-5307.62" font-family="Times New Roman,serif" font-size="14.00">oswald</text>
</g>
<!-- Entity176 -->
<g id="node58" class="node entity">
<title>Entity176</title>
<ellipse fill="none" stroke="black" cx="6914.82" cy="-5189.84" rx="59.29" ry="18"/>
<text text-anchor="start" x="6877.32" y="-5186.14" font-family="Times New Roman,serif" font-size="14.00">guy bannister</text>
</g>
<!-- Entity175&#45;&gt;Entity176 -->
<g id="edge62" class="edge verb">
<title>Entity175&#45;&gt;Entity176</title>
<path fill="none" stroke="black" d="M7307.73,-5302.28C7235.41,-5281.59 7057.08,-5230.55 6967.69,-5204.97"/>
<polygon fill="black" stroke="black" points="6968.6,-5201.59 6958.02,-5202.2 6966.67,-5208.32 6968.6,-5201.59"/>
<text text-anchor="start" x="7074.71" y="-5257.43" font-family="Times New Roman,serif" font-size="14.00">worked for</text>
</g>
<!-- Entity176&#45;&gt;Entity102 -->
<g id="edge64" class="edge verb">
<title>Entity176&#45;&gt;Entity102</title>
<path fill="none" stroke="black" d="M6876.84,-5176C6788.98,-5149.39 6571.97,-5093.09 6475.87,-5071.86"/>
<polygon fill="black" stroke="black" points="6476.37,-5068.39 6465.86,-5069.68 6474.88,-5075.23 6476.37,-5068.39"/>
<text text-anchor="start" x="6621.35" y="-5112.73" font-family="Times New Roman,serif" font-size="14.00">member a</text>
</g>
<!-- Entity176&#45;&gt;Entity102 -->
<g id="edge66" class="edge verb">
<title>Entity176&#45;&gt;Entity102</title>
<path fill="none" stroke="black" d="M6863.09,-5180.91C6765.56,-5159.11 6556.43,-5104.82 6468.75,-5078.4"/>
<polygon fill="black" stroke="black" points="6469.75,-5075.05 6459.16,-5075.47 6467.71,-5081.74 6469.75,-5075.05"/>
<text text-anchor="start" x="6604.92" y="-5133.46" font-family="Times New Roman,serif" font-size="14.00">member of</text>
</g>
<!-- Entity1 -->
<g id="node60" class="node entity">
<title>Entity1</title>
<ellipse fill="none" stroke="black" cx="3050.94" cy="-2033.66" rx="27" ry="18"/>
<text text-anchor="start" x="3047.44" y="-2029.96" font-family="Times New Roman,serif" font-size="14.00">s</text>
</g>
<!-- Entity2 -->
<g id="node61" class="node entity">
<title>Entity2</title>
<ellipse fill="none" stroke="black" cx="3138.66" cy="-2145.64" rx="27" ry="18"/>
<text text-anchor="start" x="3134.66" y="-2141.94" font-family="Times New Roman,serif" font-size="14.00">o</text>
</g>
<!-- Entity1&#45;&gt;Entity2 -->
<g id="edge65" class="edge verb">
<title>Entity1&#45;&gt;Entity2</title>
<path fill="none" stroke="black" d="M3063.51,-2049.7C3078.23,-2068.5 3102.76,-2099.82 3119.78,-2121.53"/>
<polygon fill="black" stroke="black" points="3117.19,-2123.91 3126.11,-2129.62 3122.7,-2119.59 3117.19,-2123.91"/>
<text text-anchor="start" x="3084.64" y="-2089.42" font-family="Times New Roman,serif" font-size="14.00">v</text>
</g>
</g>
</svg>
