<?xml version="1.0" encoding="UTF-8" standalone="no"?>
<?xml-stylesheet href="./styles.css" type="text/css"?>
<!DOCTYPE svg PUBLIC "-//W3C//DTD SVG 1.1//EN"
 "http://www.w3.org/Graphics/SVG/1.1/DTD/svg11.dtd">
<!-- Generated by graphviz version 2.47.3 (20210619.1520)
 -->
<!-- Title: G Pages: 1 -->
<svg width="5277pt" height="5627pt"
 viewBox="0.00 0.00 5277.00 5627.00" xmlns="http://www.w3.org/2000/svg" xmlns:xlink="http://www.w3.org/1999/xlink">
<g id="graph0" class="graph" transform="scale(1 1) rotate(0) translate(4 5623)">
<title>G</title>
<polygon fill="white" stroke="transparent" points="-4,4 -4,-5623 5273,-5623 5273,4 -4,4"/>
<!-- Entity8 -->
<g id="node1" class="node entity">
<title>Entity8</title>
<ellipse fill="none" stroke="black" cx="1654.31" cy="-1747.82" rx="41.69" ry="18"/>
<text text-anchor="start" x="1630.31" y="-1744.12" font-family="Times New Roman,serif" font-size="14.00">uri geller</text>
</g>
<!-- Entity16 -->
<g id="node2" class="node entity">
<title>Entity16</title>
<ellipse fill="none" stroke="black" cx="2027.42" cy="-1478.02" rx="38.19" ry="18"/>
<text text-anchor="start" x="2005.92" y="-1474.32" font-family="Times New Roman,serif" font-size="14.00">the nine</text>
</g>
<!-- Entity8&#45;&gt;Entity16 -->
<g id="edge1" class="edge verb">
<title>Entity8&#45;&gt;Entity16</title>
<path fill="none" stroke="black" d="M1675.71,-1732.35C1738.95,-1686.62 1925.08,-1552.02 1997.82,-1499.42"/>
<polygon fill="black" stroke="black" points="2000.06,-1502.12 2006.11,-1493.43 1995.95,-1496.45 2000.06,-1502.12"/>
<text text-anchor="start" x="1732.76" y="-1619.69" font-family="Times New Roman,serif" font-size="14.00">claiemd to channel</text>
</g>
<!-- Entity105 -->
<g id="node47" class="node entity">
<title>Entity105</title>
<ellipse fill="none" stroke="black" cx="1580.27" cy="-1075.98" rx="94.48" ry="18"/>
<text text-anchor="start" x="1515.77" y="-1072.28" font-family="Times New Roman,serif" font-size="14.00">egyptian gods in a ship</text>
</g>
<!-- Entity16&#45;&gt;Entity105 -->
<g id="edge53" class="edge verb">
<title>Entity16&#45;&gt;Entity105</title>
<path fill="none" stroke="black" d="M2009.62,-1462.01C1940.62,-1399.97 1690.56,-1175.15 1607.39,-1100.36"/>
<polygon fill="black" stroke="black" points="1609.65,-1097.69 1599.87,-1093.61 1604.97,-1102.89 1609.65,-1097.69"/>
<text text-anchor="start" x="1704.5" y="-1284.99" font-family="Times New Roman,serif" font-size="14.00">claimed to channel</text>
</g>
<!-- Entity9 -->
<g id="node3" class="node entity">
<title>Entity9</title>
<ellipse fill="none" stroke="black" cx="2411.43" cy="-3424.13" rx="27" ry="18"/>
<text text-anchor="start" x="2403.93" y="-3420.43" font-family="Times New Roman,serif" font-size="14.00">jfk</text>
</g>
<!-- Entity25 -->
<g id="node4" class="node entity">
<title>Entity25</title>
<ellipse fill="none" stroke="black" cx="2260.05" cy="-3010.64" rx="27" ry="18"/>
<text text-anchor="start" x="2252.05" y="-3006.94" font-family="Times New Roman,serif" font-size="14.00">cia</text>
</g>
<!-- Entity9&#45;&gt;Entity25 -->
<g id="edge2" class="edge verb">
<title>Entity9&#45;&gt;Entity25</title>
<path fill="none" stroke="black" d="M2405.03,-3406.63C2381.38,-3342.05 2298.92,-3116.82 2270.09,-3038.07"/>
<polygon fill="black" stroke="black" points="2273.27,-3036.57 2266.54,-3028.38 2266.7,-3038.97 2273.27,-3036.57"/>
<text text-anchor="start" x="2233.56" y="-3226.15" font-family="Times New Roman,serif" font-size="14.00">heads (1961&#45;1963)</text>
</g>
<!-- Entity77 -->
<g id="node28" class="node entity">
<title>Entity77</title>
<ellipse fill="none" stroke="black" cx="2590.84" cy="-3856.51" rx="31.4" ry="18"/>
<text text-anchor="start" x="2574.84" y="-3852.81" font-family="Times New Roman,serif" font-size="14.00">potus</text>
</g>
<!-- Entity9&#45;&gt;Entity77 -->
<g id="edge24" class="edge verb">
<title>Entity9&#45;&gt;Entity77</title>
<path fill="none" stroke="black" d="M2418.69,-3441.62C2446.41,-3508.43 2545.79,-3747.94 2579.54,-3829.27"/>
<polygon fill="black" stroke="black" points="2576.43,-3830.91 2583.49,-3838.81 2582.89,-3828.23 2576.43,-3830.91"/>
<text text-anchor="start" x="2412.11" y="-3639.24" font-family="Times New Roman,serif" font-size="14.00">isa (1961&#45;1963)</text>
</g>
<!-- Entity75 -->
<g id="node26" class="node entity">
<title>Entity75</title>
<ellipse fill="none" stroke="black" cx="2183.06" cy="-2384.26" rx="77.19" ry="18"/>
<text text-anchor="start" x="2131.56" y="-2380.56" font-family="Times New Roman,serif" font-size="14.00">psi&#45;consciousness</text>
</g>
<!-- Entity25&#45;&gt;Entity75 -->
<g id="edge45" class="edge verb">
<title>Entity25&#45;&gt;Entity75</title>
<path fill="none" stroke="black" d="M2257.83,-2992.57C2247.01,-2904.53 2199.79,-2520.38 2186.54,-2412.51"/>
<polygon fill="black" stroke="black" points="2189.99,-2411.9 2185.29,-2402.4 2183.04,-2412.75 2189.99,-2411.9"/>
<text text-anchor="start" x="2158.18" y="-2706.34" font-family="Times New Roman,serif" font-size="14.00">investigates</text>
</g>
<!-- Entity108 -->
<g id="node52" class="node entity">
<title>Entity108</title>
<ellipse fill="none" stroke="black" cx="2527.74" cy="-3150.8" rx="27" ry="18"/>
<text text-anchor="start" x="2518.24" y="-3147.1" font-family="Times New Roman,serif" font-size="14.00">ufo</text>
</g>
<!-- Entity25&#45;&gt;Entity108 -->
<g id="edge62" class="edge verb">
<title>Entity25&#45;&gt;Entity108</title>
<path fill="none" stroke="black" d="M2281.5,-3021.87C2328.89,-3046.68 2442.59,-3106.21 2497.31,-3134.87"/>
<polygon fill="black" stroke="black" points="2495.71,-3137.98 2506.19,-3139.52 2498.95,-3131.78 2495.71,-3137.98"/>
<text text-anchor="start" x="2325.41" y="-3082.17" font-family="Times New Roman,serif" font-size="14.00">investigates</text>
</g>
<!-- Entity2 -->
<g id="node5" class="node entity">
<title>Entity2</title>
<ellipse fill="none" stroke="black" cx="2528.66" cy="-1744.12" rx="56.59" ry="18"/>
<text text-anchor="start" x="2493.16" y="-1740.42" font-family="Times New Roman,serif" font-size="14.00">arthur young</text>
</g>
<!-- Entity2&#45;&gt;Entity16 -->
<g id="edge3" class="edge verb">
<title>Entity2&#45;&gt;Entity16</title>
<path fill="none" stroke="black" d="M2499.54,-1728.66C2412.68,-1682.55 2155.62,-1546.07 2062.01,-1496.38"/>
<polygon fill="black" stroke="black" points="2063.43,-1493.17 2052.96,-1491.57 2060.15,-1499.35 2063.43,-1493.17"/>
<text text-anchor="start" x="2218.78" y="-1616.32" font-family="Times New Roman,serif" font-size="14.00">member&#45;of</text>
</g>
<!-- Entity2&#45;&gt;Entity75 -->
<g id="edge18" class="edge verb">
<title>Entity2&#45;&gt;Entity75</title>
<path fill="none" stroke="black" d="M2519.05,-1761.91C2470.9,-1851.1 2255.8,-2249.53 2197.61,-2357.3"/>
<polygon fill="black" stroke="black" points="2194.46,-2355.79 2192.78,-2366.25 2200.61,-2359.11 2194.46,-2355.79"/>
<text text-anchor="start" x="2317.33" y="-2063.41" font-family="Times New Roman,serif" font-size="14.00">studied</text>
</g>
<!-- Entity76 -->
<g id="node29" class="node entity">
<title>Entity76</title>
<ellipse fill="none" stroke="black" cx="3186.36" cy="-1584.03" rx="53.89" ry="18"/>
<text text-anchor="start" x="3152.86" y="-1580.33" font-family="Times New Roman,serif" font-size="14.00">bell aviation</text>
</g>
<!-- Entity2&#45;&gt;Entity76 -->
<g id="edge20" class="edge verb">
<title>Entity2&#45;&gt;Entity76</title>
<path fill="none" stroke="black" d="M2573.6,-1733.18C2690.93,-1704.62 3006.1,-1627.91 3132.66,-1597.1"/>
<polygon fill="black" stroke="black" points="3133.64,-1600.46 3142.52,-1594.7 3131.98,-1593.66 3133.64,-1600.46"/>
<text text-anchor="start" x="2812.13" y="-1668.94" font-family="Times New Roman,serif" font-size="14.00">created</text>
</g>
<!-- Entity31 -->
<g id="node6" class="node entity">
<title>Entity31</title>
<ellipse fill="none" stroke="black" cx="1250.07" cy="-3832.07" rx="58.49" ry="18"/>
<text text-anchor="start" x="1213.07" y="-3828.37" font-family="Times New Roman,serif" font-size="14.00">steve bannon</text>
</g>
<!-- Entity22 -->
<g id="node7" class="node entity">
<title>Entity22</title>
<ellipse fill="none" stroke="black" cx="1958.11" cy="-3765.59" rx="59.59" ry="18"/>
<text text-anchor="start" x="1920.11" y="-3761.89" font-family="Times New Roman,serif" font-size="14.00">donald trump</text>
</g>
<!-- Entity31&#45;&gt;Entity22 -->
<g id="edge4" class="edge verb">
<title>Entity31&#45;&gt;Entity22</title>
<path fill="none" stroke="black" d="M1308.38,-3830.53C1440.06,-3821.91 1759.52,-3791.96 1895.34,-3775.56"/>
<polygon fill="black" stroke="black" points="1896.07,-3778.99 1905.57,-3774.3 1895.22,-3772.04 1896.07,-3778.99"/>
<text text-anchor="start" x="1546.86" y="-3806.84" font-family="Times New Roman,serif" font-size="14.00">promoted</text>
</g>
<!-- Entity31&#45;&gt;Entity22 -->
<g id="edge10" class="edge verb">
<title>Entity31&#45;&gt;Entity22</title>
<path fill="none" stroke="black" d="M1301.78,-3823.46C1426.91,-3807.85 1746.11,-3777.71 1888.13,-3767.92"/>
<polygon fill="black" stroke="black" points="1888.72,-3771.39 1898.46,-3767.22 1888.25,-3764.4 1888.72,-3771.39"/>
<text text-anchor="start" x="1552.96" y="-3784.49" font-family="Times New Roman,serif" font-size="14.00">advises</text>
</g>
<!-- Entity80 -->
<g id="node31" class="node entity">
<title>Entity80</title>
<ellipse fill="none" stroke="black" cx="632.8" cy="-3973.03" rx="61.99" ry="18"/>
<text text-anchor="start" x="593.3" y="-3969.33" font-family="Times New Roman,serif" font-size="14.00">breitbart news</text>
</g>
<!-- Entity31&#45;&gt;Entity80 -->
<g id="edge46" class="edge verb">
<title>Entity31&#45;&gt;Entity80</title>
<path fill="none" stroke="black" d="M1202.91,-3842.84C1091.76,-3868.22 813.54,-3931.76 691.61,-3959.6"/>
<polygon fill="black" stroke="black" points="690.67,-3956.23 681.7,-3961.86 692.23,-3963.05 690.67,-3956.23"/>
<text text-anchor="start" x="906.26" y="-3905.02" font-family="Times New Roman,serif" font-size="14.00">created</text>
</g>
<!-- Entity92 -->
<g id="node33" class="node entity">
<title>Entity92</title>
<ellipse fill="none" stroke="black" cx="1036.27" cy="-4234.85" rx="35.19" ry="18"/>
<text text-anchor="start" x="1017.27" y="-4231.15" font-family="Times New Roman,serif" font-size="14.00">gurgev</text>
</g>
<!-- Entity31&#45;&gt;Entity92 -->
<g id="edge26" class="edge verb">
<title>Entity31&#45;&gt;Entity92</title>
<path fill="none" stroke="black" d="M1240.61,-3849.9C1206.66,-3913.85 1090.89,-4131.96 1050.4,-4208.25"/>
<polygon fill="black" stroke="black" points="1047.22,-4206.76 1045.63,-4217.23 1053.41,-4210.04 1047.22,-4206.76"/>
<text text-anchor="start" x="1104.5" y="-4032.87" font-family="Times New Roman,serif" font-size="14.00">studied</text>
</g>
<!-- Entity95 -->
<g id="node35" class="node entity">
<title>Entity95</title>
<ellipse fill="none" stroke="black" cx="793.86" cy="-3587.07" rx="53.09" ry="18"/>
<text text-anchor="start" x="760.86" y="-3583.37" font-family="Times New Roman,serif" font-size="14.00">biosphere 2</text>
</g>
<!-- Entity31&#45;&gt;Entity95 -->
<g id="edge29" class="edge verb">
<title>Entity31&#45;&gt;Entity95</title>
<path fill="none" stroke="black" d="M1220.84,-3816.37C1141.06,-3773.53 919.68,-3654.64 831.15,-3607.09"/>
<polygon fill="black" stroke="black" points="832.73,-3603.97 822.27,-3602.32 829.42,-3610.13 832.73,-3603.97"/>
<text text-anchor="start" x="985" y="-3715.53" font-family="Times New Roman,serif" font-size="14.00">created</text>
</g>
<!-- Entity104 -->
<g id="node48" class="node entity">
<title>Entity104</title>
<ellipse fill="none" stroke="black" cx="754.64" cy="-4126.87" rx="64.99" ry="18"/>
<text text-anchor="start" x="712.64" y="-4123.17" font-family="Times New Roman,serif" font-size="14.00">goldman sachs</text>
</g>
<!-- Entity31&#45;&gt;Entity104 -->
<g id="edge54" class="edge verb">
<title>Entity31&#45;&gt;Entity104</title>
<path fill="none" stroke="black" d="M1223.08,-3848.13C1139.65,-3897.77 885.82,-4048.81 790.94,-4105.27"/>
<polygon fill="black" stroke="black" points="789.07,-4102.31 782.26,-4110.43 792.65,-4108.33 789.07,-4102.31"/>
<text text-anchor="start" x="944.01" y="-3980.5" font-family="Times New Roman,serif" font-size="14.00">worked for</text>
</g>
<!-- Entity112 -->
<g id="node55" class="node entity">
<title>Entity112</title>
<ellipse fill="none" stroke="black" cx="1050.13" cy="-3940.08" rx="77.19" ry="18"/>
<text text-anchor="start" x="998.63" y="-3936.38" font-family="Times New Roman,serif" font-size="14.00">hollywood movies</text>
</g>
<!-- Entity31&#45;&gt;Entity112 -->
<g id="edge60" class="edge verb">
<title>Entity31&#45;&gt;Entity112</title>
<path fill="none" stroke="black" d="M1221,-3847.78C1186.4,-3866.46 1128.48,-3897.75 1089.79,-3918.65"/>
<polygon fill="black" stroke="black" points="1088.01,-3915.63 1080.88,-3923.47 1091.34,-3921.79 1088.01,-3915.63"/>
<text text-anchor="start" x="1100.39" y="-3887.01" font-family="Times New Roman,serif" font-size="14.00">produced</text>
</g>
<!-- Entity117 -->
<g id="node61" class="node entity">
<title>Entity117</title>
<ellipse fill="none" stroke="black" cx="791.87" cy="-3802.1" rx="38.19" ry="18"/>
<text text-anchor="start" x="770.37" y="-3798.4" font-family="Times New Roman,serif" font-size="14.00">us navy</text>
</g>
<!-- Entity31&#45;&gt;Entity117 -->
<g id="edge67" class="edge verb">
<title>Entity31&#45;&gt;Entity117</title>
<path fill="none" stroke="black" d="M1192.5,-3828.31C1101.25,-3822.34 925.03,-3810.81 840.04,-3805.25"/>
<polygon fill="black" stroke="black" points="840.1,-3801.75 829.89,-3804.59 839.64,-3808.73 840.1,-3801.75"/>
<text text-anchor="start" x="955.27" y="-3820.58" font-family="Times New Roman,serif" font-size="14.00">member of</text>
</g>
<!-- Entity44 -->
<g id="node15" class="node entity">
<title>Entity44</title>
<ellipse fill="none" stroke="black" cx="1904.07" cy="-3240.34" rx="50.09" ry="18"/>
<text text-anchor="start" x="1873.57" y="-3236.64" font-family="Times New Roman,serif" font-size="14.00">john trump</text>
</g>
<!-- Entity22&#45;&gt;Entity44 -->
<g id="edge11" class="edge verb">
<title>Entity22&#45;&gt;Entity44</title>
<path fill="none" stroke="black" d="M1956.25,-3747.51C1948.25,-3669.69 1916.69,-3362.98 1906.95,-3268.32"/>
<polygon fill="black" stroke="black" points="1910.43,-3267.93 1905.93,-3258.34 1903.47,-3268.65 1910.43,-3267.93"/>
<text text-anchor="start" x="1872.6" y="-3511.71" font-family="Times New Roman,serif" font-size="14.00">nephew of</text>
</g>
<!-- Entity22&#45;&gt;Entity77 -->
<g id="edge38" class="edge verb">
<title>Entity22&#45;&gt;Entity77</title>
<path fill="none" stroke="black" d="M2012.33,-3773.38C2136.72,-3791.25 2440.34,-3834.88 2550.26,-3850.68"/>
<polygon fill="black" stroke="black" points="2549.89,-3854.16 2560.28,-3852.12 2550.88,-3847.23 2549.89,-3854.16"/>
<text text-anchor="start" x="2265.3" y="-3815.83" font-family="Times New Roman,serif" font-size="14.00">isa</text>
</g>
<!-- Entity61 -->
<g id="node8" class="node entity">
<title>Entity61</title>
<ellipse fill="none" stroke="black" cx="4342.07" cy="-667.68" rx="49.29" ry="18"/>
<text text-anchor="start" x="4312.07" y="-663.98" font-family="Times New Roman,serif" font-size="14.00">adolf hitler</text>
</g>
<!-- Entity71 -->
<g id="node9" class="node entity">
<title>Entity71</title>
<ellipse fill="none" stroke="black" cx="4283.69" cy="-1061.09" rx="32.49" ry="18"/>
<text text-anchor="start" x="4266.69" y="-1057.39" font-family="Times New Roman,serif" font-size="14.00">nsdap</text>
</g>
<!-- Entity61&#45;&gt;Entity71 -->
<g id="edge5" class="edge verb">
<title>Entity61&#45;&gt;Entity71</title>
<path fill="none" stroke="black" d="M4339.37,-685.87C4330.05,-748.66 4299.18,-956.71 4287.88,-1032.85"/>
<polygon fill="black" stroke="black" points="4284.36,-1032.69 4286.36,-1043.09 4291.29,-1033.72 4284.36,-1032.69"/>
<text text-anchor="start" x="4272.63" y="-863.16" font-family="Times New Roman,serif" font-size="14.00">created</text>
</g>
<!-- Entity115 -->
<g id="node58" class="node entity">
<title>Entity115</title>
<ellipse fill="none" stroke="black" cx="4608.18" cy="-735.62" rx="38.99" ry="18"/>
<text text-anchor="start" x="4586.18" y="-731.92" font-family="Times New Roman,serif" font-size="14.00">far right</text>
</g>
<!-- Entity71&#45;&gt;Entity115 -->
<g id="edge64" class="edge verb">
<title>Entity71&#45;&gt;Entity115</title>
<path fill="none" stroke="black" d="M4299.78,-1044.95C4352.74,-991.82 4521.82,-822.24 4584.5,-759.36"/>
<polygon fill="black" stroke="black" points="4587.02,-761.79 4591.61,-752.24 4582.07,-756.85 4587.02,-761.79"/>
<text text-anchor="start" x="4381.14" y="-905.96" font-family="Times New Roman,serif" font-size="14.00">member of</text>
</g>
<!-- Entity6 -->
<g id="node10" class="node entity">
<title>Entity6</title>
<ellipse fill="none" stroke="black" cx="1285.87" cy="-1422.6" rx="64.19" ry="18"/>
<text text-anchor="start" x="1244.37" y="-1418.9" font-family="Times New Roman,serif" font-size="14.00">andre puharich</text>
</g>
<!-- Entity6&#45;&gt;Entity8 -->
<g id="edge6" class="edge verb">
<title>Entity6&#45;&gt;Entity8</title>
<path fill="none" stroke="black" d="M1305.42,-1439.85C1367.16,-1494.35 1558.03,-1662.84 1628.13,-1724.72"/>
<polygon fill="black" stroke="black" points="1625.87,-1727.39 1635.69,-1731.39 1630.51,-1722.14 1625.87,-1727.39"/>
<text text-anchor="start" x="1406.78" y="-1586.09" font-family="Times New Roman,serif" font-size="14.00">sponsored</text>
</g>
<!-- Entity3 -->
<g id="node11" class="node entity">
<title>Entity3</title>
<ellipse fill="none" stroke="black" cx="1579.49" cy="-2331.91" rx="68.49" ry="18"/>
<text text-anchor="start" x="1534.99" y="-2328.21" font-family="Times New Roman,serif" font-size="14.00">jeffrey mishlove</text>
</g>
<!-- Entity3&#45;&gt;Entity8 -->
<g id="edge7" class="edge verb">
<title>Entity3&#45;&gt;Entity8</title>
<path fill="none" stroke="black" d="M1581.81,-2313.79C1592.56,-2229.91 1637.5,-1879.05 1650.67,-1776.24"/>
<polygon fill="black" stroke="black" points="1654.18,-1776.38 1651.98,-1766.02 1647.23,-1775.49 1654.18,-1776.38"/>
<text text-anchor="start" x="1561.24" y="-2048.82" font-family="Times New Roman,serif" font-size="14.00">promoted</text>
</g>
<!-- Entity3&#45;&gt;Entity75 -->
<g id="edge22" class="edge verb">
<title>Entity3&#45;&gt;Entity75</title>
<path fill="none" stroke="black" d="M1638.1,-2341.22C1744.73,-2353.62 1970.92,-2373.47 2095.76,-2381.61"/>
<polygon fill="black" stroke="black" points="2095.84,-2385.13 2106.05,-2382.27 2096.29,-2378.14 2095.84,-2385.13"/>
<text text-anchor="start" x="1825.93" y="-2365.22" font-family="Times New Roman,serif" font-size="14.00">studied</text>
</g>
<!-- Entity3&#45;&gt;Entity75 -->
<g id="edge28" class="edge verb">
<title>Entity3&#45;&gt;Entity75</title>
<path fill="none" stroke="black" d="M1647.65,-2333.35C1761.62,-2340.23 1989.99,-2359.97 2108.25,-2373.11"/>
<polygon fill="black" stroke="black" points="2107.97,-2376.6 2118.3,-2374.24 2108.75,-2369.64 2107.97,-2376.6"/>
<text text-anchor="start" x="1813.95" y="-2342.03" font-family="Times New Roman,serif" font-size="14.00">investigates</text>
</g>
<!-- Entity20 -->
<g id="node12" class="node entity">
<title>Entity20</title>
<ellipse fill="none" stroke="black" cx="2926.89" cy="-3907.73" rx="68.49" ry="18"/>
<text text-anchor="start" x="2882.39" y="-3904.03" font-family="Times New Roman,serif" font-size="14.00">george hw bush</text>
</g>
<!-- Entity24 -->
<g id="node13" class="node entity">
<title>Entity24</title>
<ellipse fill="none" stroke="black" cx="3027.1" cy="-4015.78" rx="63.89" ry="18"/>
<text text-anchor="start" x="2986.1" y="-4012.08" font-family="Times New Roman,serif" font-size="14.00">george w bush</text>
</g>
<!-- Entity20&#45;&gt;Entity24 -->
<g id="edge8" class="edge verb">
<title>Entity20&#45;&gt;Entity24</title>
<path fill="none" stroke="black" d="M2943.43,-3925.58C2959.93,-3943.35 2985.39,-3970.81 3003.9,-3990.76"/>
<polygon fill="black" stroke="black" points="3001.5,-3993.32 3010.86,-3998.27 3006.63,-3988.56 3001.5,-3993.32"/>
<text text-anchor="start" x="2941.67" y="-3961.97" font-family="Times New Roman,serif" font-size="14.00">father</text>
</g>
<!-- Entity20&#45;&gt;Entity77 -->
<g id="edge40" class="edge verb">
<title>Entity20&#45;&gt;Entity77</title>
<path fill="none" stroke="black" d="M2867.58,-3898.69C2799.68,-3888.34 2690.27,-3871.67 2631.42,-3862.7"/>
<polygon fill="black" stroke="black" points="2631.8,-3859.21 2621.38,-3861.17 2630.74,-3866.13 2631.8,-3859.21"/>
<text text-anchor="start" x="2733.5" y="-3884.49" font-family="Times New Roman,serif" font-size="14.00">isa</text>
</g>
<!-- Entity24&#45;&gt;Entity77 -->
<g id="edge42" class="edge verb">
<title>Entity24&#45;&gt;Entity77</title>
<path fill="none" stroke="black" d="M2988.01,-4001.51C2904.17,-3970.9 2708.16,-3899.34 2627.01,-3869.72"/>
<polygon fill="black" stroke="black" points="2627.84,-3866.29 2617.25,-3866.15 2625.44,-3872.87 2627.84,-3866.29"/>
<text text-anchor="start" x="2791.51" y="-3939.41" font-family="Times New Roman,serif" font-size="14.00">isa</text>
</g>
<!-- Entity1 -->
<g id="node14" class="node entity">
<title>Entity1</title>
<ellipse fill="none" stroke="black" cx="1968.25" cy="-967.99" rx="74.99" ry="18"/>
<text text-anchor="start" x="1918.75" y="-964.29" font-family="Times New Roman,serif" font-size="14.00">gene roddenberry</text>
</g>
<!-- Entity1&#45;&gt;Entity16 -->
<g id="edge9" class="edge verb">
<title>Entity1&#45;&gt;Entity16</title>
<path fill="none" stroke="black" d="M1970.36,-986.14C1979.2,-1062.36 2013.36,-1356.83 2024.14,-1449.75"/>
<polygon fill="black" stroke="black" points="2020.68,-1450.29 2025.31,-1459.82 2027.63,-1449.48 2020.68,-1450.29"/>
<text text-anchor="start" x="1893.25" y="-1221.75" font-family="Times New Roman,serif" font-size="14.00">claiemd to channel</text>
</g>
<!-- Entity44&#45;&gt;Entity25 -->
<g id="edge13" class="edge verb">
<title>Entity44&#45;&gt;Entity25</title>
<path fill="none" stroke="black" d="M1928.54,-3224.55C1992.43,-3183.32 2164.02,-3072.6 2231.88,-3028.82"/>
<polygon fill="black" stroke="black" points="2233.86,-3031.7 2240.37,-3023.34 2230.07,-3025.82 2233.86,-3031.7"/>
<text text-anchor="start" x="2019.21" y="-3130.49" font-family="Times New Roman,serif" font-size="14.00">member of</text>
</g>
<!-- Entity111 -->
<g id="node51" class="node entity">
<title>Entity111</title>
<ellipse fill="none" stroke="black" cx="1483.96" cy="-3055.4" rx="50.89" ry="18"/>
<text text-anchor="start" x="1452.96" y="-3051.7" font-family="Times New Roman,serif" font-size="14.00">nikola tesla</text>
</g>
<!-- Entity44&#45;&gt;Entity111 -->
<g id="edge56" class="edge verb">
<title>Entity44&#45;&gt;Entity111</title>
<path fill="none" stroke="black" d="M1872.15,-3226.29C1796.93,-3193.17 1608.6,-3110.27 1525.02,-3073.48"/>
<polygon fill="black" stroke="black" points="1526.4,-3070.26 1515.84,-3069.43 1523.58,-3076.67 1526.4,-3070.26"/>
<text text-anchor="start" x="1657.59" y="-3153.68" font-family="Times New Roman,serif" font-size="14.00">studied</text>
</g>
<!-- Entity34 -->
<g id="node16" class="node entity">
<title>Entity34</title>
<ellipse fill="none" stroke="black" cx="3229.57" cy="-5058.11" rx="90.98" ry="18"/>
<text text-anchor="start" x="3167.57" y="-5054.41" font-family="Times New Roman,serif" font-size="14.00">emma hardinge&#45;britten</text>
</g>
<!-- Entity28 -->
<g id="node17" class="node entity">
<title>Entity28</title>
<ellipse fill="none" stroke="black" cx="2888.01" cy="-4378.43" rx="67.69" ry="18"/>
<text text-anchor="start" x="2844.01" y="-4374.73" font-family="Times New Roman,serif" font-size="14.00">abraham lincoln</text>
</g>
<!-- Entity34&#45;&gt;Entity28 -->
<g id="edge12" class="edge verb">
<title>Entity34&#45;&gt;Entity28</title>
<path fill="none" stroke="black" d="M3220.43,-5039.93C3173.32,-4946.18 2957.88,-4517.46 2901.53,-4405.33"/>
<polygon fill="black" stroke="black" points="2904.63,-4403.71 2897.01,-4396.35 2898.38,-4406.85 2904.63,-4403.71"/>
<text text-anchor="start" x="2961.98" y="-4726.43" font-family="Times New Roman,serif" font-size="14.00">spokesperson for</text>
</g>
<!-- Entity97 -->
<g id="node36" class="node entity">
<title>Entity97</title>
<ellipse fill="none" stroke="black" cx="3430.84" cy="-5601.42" rx="39.79" ry="18"/>
<text text-anchor="start" x="3408.34" y="-5597.72" font-family="Times New Roman,serif" font-size="14.00">medium</text>
</g>
<!-- Entity34&#45;&gt;Entity97 -->
<g id="edge30" class="edge verb">
<title>Entity34&#45;&gt;Entity97</title>
<path fill="none" stroke="black" d="M3236.26,-5076.18C3265.85,-5156.04 3384.93,-5477.48 3420.66,-5573.93"/>
<polygon fill="black" stroke="black" points="3417.47,-5575.39 3424.22,-5583.55 3424.03,-5572.96 3417.47,-5575.39"/>
<text text-anchor="start" x="3312.46" y="-5328.86" font-family="Times New Roman,serif" font-size="14.00">isa</text>
</g>
<!-- Entity96 -->
<g id="node37" class="node entity">
<title>Entity96</title>
<ellipse fill="none" stroke="black" cx="2622.21" cy="-4709.63" rx="85.29" ry="18"/>
<text text-anchor="start" x="2564.71" y="-4705.93" font-family="Times New Roman,serif" font-size="14.00">theosophical society</text>
</g>
<!-- Entity34&#45;&gt;Entity96 -->
<g id="edge31" class="edge verb">
<title>Entity34&#45;&gt;Entity96</title>
<path fill="none" stroke="black" d="M3199.86,-5041.06C3099.56,-4983.51 2773.41,-4796.38 2660.84,-4731.79"/>
<polygon fill="black" stroke="black" points="2662.27,-4728.58 2651.86,-4726.64 2658.79,-4734.65 2662.27,-4728.58"/>
<text text-anchor="start" x="2889.35" y="-4890.23" font-family="Times New Roman,serif" font-size="14.00">created</text>
</g>
<!-- Entity118 -->
<g id="node60" class="node entity">
<title>Entity118</title>
<ellipse fill="none" stroke="black" cx="3689.35" cy="-5493.4" rx="55.79" ry="18"/>
<text text-anchor="start" x="3654.35" y="-5489.7" font-family="Times New Roman,serif" font-size="14.00">orphic circle</text>
</g>
<!-- Entity34&#45;&gt;Entity118 -->
<g id="edge66" class="edge verb">
<title>Entity34&#45;&gt;Entity118</title>
<path fill="none" stroke="black" d="M3248.45,-5075.98C3320.8,-5144.48 3580.5,-5390.35 3663.59,-5469.01"/>
<polygon fill="black" stroke="black" points="3661.4,-5471.76 3671.06,-5476.09 3666.21,-5466.68 3661.4,-5471.76"/>
<text text-anchor="start" x="3395.02" y="-5276.3" font-family="Times New Roman,serif" font-size="14.00">member of</text>
</g>
<!-- Entity28&#45;&gt;Entity77 -->
<g id="edge47" class="edge verb">
<title>Entity28&#45;&gt;Entity77</title>
<path fill="none" stroke="black" d="M2877.78,-4360.46C2833.48,-4282.65 2658.04,-3974.53 2605.67,-3882.56"/>
<polygon fill="black" stroke="black" points="2608.71,-3880.83 2600.72,-3873.87 2602.63,-3884.29 2608.71,-3880.83"/>
<text text-anchor="start" x="2725.73" y="-4125.31" font-family="Times New Roman,serif" font-size="14.00">isa</text>
</g>
<!-- Entity70 -->
<g id="node18" class="node entity">
<title>Entity70</title>
<ellipse fill="none" stroke="black" cx="5232.98" cy="-17.57" rx="36.29" ry="18"/>
<text text-anchor="start" x="5212.98" y="-13.87" font-family="Times New Roman,serif" font-size="14.00">oswald</text>
</g>
<!-- Entity69 -->
<g id="node19" class="node entity">
<title>Entity69</title>
<ellipse fill="none" stroke="black" cx="4943.82" cy="-355.86" rx="59.29" ry="18"/>
<text text-anchor="start" x="4906.32" y="-352.16" font-family="Times New Roman,serif" font-size="14.00">guy bannister</text>
</g>
<!-- Entity70&#45;&gt;Entity69 -->
<g id="edge14" class="edge verb">
<title>Entity70&#45;&gt;Entity69</title>
<path fill="none" stroke="black" d="M5218.64,-34.35C5171.64,-89.33 5022.08,-264.3 4965.65,-330.32"/>
<polygon fill="black" stroke="black" points="4962.77,-328.3 4958.94,-338.18 4968.09,-332.85 4962.77,-328.3"/>
<text text-anchor="start" x="5029.14" y="-186.14" font-family="Times New Roman,serif" font-size="14.00">worked for</text>
</g>
<!-- Entity69&#45;&gt;Entity115 -->
<g id="edge63" class="edge verb">
<title>Entity69&#45;&gt;Entity115</title>
<path fill="none" stroke="black" d="M4928.3,-373.42C4874.05,-434.8 4692.75,-639.93 4629.88,-711.07"/>
<polygon fill="black" stroke="black" points="4627.15,-708.87 4623.15,-718.68 4632.39,-713.51 4627.15,-708.87"/>
<text text-anchor="start" x="4718.09" y="-546.04" font-family="Times New Roman,serif" font-size="14.00">member of</text>
</g>
<!-- Entity68 -->
<g id="node20" class="node entity">
<title>Entity68</title>
<ellipse fill="none" stroke="black" cx="2058.39" cy="-4829.42" rx="37.89" ry="18"/>
<text text-anchor="start" x="2037.39" y="-4825.72" font-family="Times New Roman,serif" font-size="14.00">hunt oil</text>
</g>
<!-- Entity67 -->
<g id="node21" class="node entity">
<title>Entity67</title>
<ellipse fill="none" stroke="black" cx="2325.97" cy="-4366.83" rx="77.99" ry="18"/>
<text text-anchor="start" x="2273.97" y="-4363.13" font-family="Times New Roman,serif" font-size="14.00">dwight eisenhower</text>
</g>
<!-- Entity68&#45;&gt;Entity67 -->
<g id="edge15" class="edge verb">
<title>Entity68&#45;&gt;Entity67</title>
<path fill="none" stroke="black" d="M2068.55,-4811.85C2109.32,-4741.38 2261.13,-4478.94 2310.41,-4393.73"/>
<polygon fill="black" stroke="black" points="2313.54,-4395.33 2315.51,-4384.92 2307.48,-4391.82 2313.54,-4395.33"/>
<text text-anchor="start" x="2149.48" y="-4606.59" font-family="Times New Roman,serif" font-size="14.00">funded</text>
</g>
<!-- Entity67&#45;&gt;Entity77 -->
<g id="edge33" class="edge verb">
<title>Entity67&#45;&gt;Entity77</title>
<path fill="none" stroke="black" d="M2335.4,-4348.67C2375.24,-4271.92 2529.87,-3973.98 2577.08,-3883.03"/>
<polygon fill="black" stroke="black" points="2580.3,-3884.42 2581.8,-3873.93 2574.09,-3881.19 2580.3,-3884.42"/>
<text text-anchor="start" x="2437.24" y="-4119.65" font-family="Times New Roman,serif" font-size="14.00">is a</text>
</g>
<!-- Entity58 -->
<g id="node22" class="node entity">
<title>Entity58</title>
<ellipse fill="none" stroke="black" cx="4011.98" cy="-2192.04" rx="46.29" ry="18"/>
<text text-anchor="start" x="3984.48" y="-2188.34" font-family="Times New Roman,serif" font-size="14.00">van braun</text>
</g>
<!-- Entity35 -->
<g id="node23" class="node entity">
<title>Entity35</title>
<ellipse fill="none" stroke="black" cx="3902.3" cy="-1577.77" rx="74.99" ry="18"/>
<text text-anchor="start" x="3852.8" y="-1574.07" font-family="Times New Roman,serif" font-size="14.00">walter dornberger</text>
</g>
<!-- Entity58&#45;&gt;Entity35 -->
<g id="edge16" class="edge verb">
<title>Entity58&#45;&gt;Entity35</title>
<path fill="none" stroke="black" d="M4008.76,-2173.99C3993.24,-2087.1 3926.23,-1711.81 3907.3,-1605.77"/>
<polygon fill="black" stroke="black" points="3910.72,-1605.05 3905.52,-1595.82 3903.83,-1606.28 3910.72,-1605.05"/>
<text text-anchor="start" x="3895.03" y="-1893.68" font-family="Times New Roman,serif" font-size="14.00">worked for</text>
</g>
<!-- Entity100 -->
<g id="node38" class="node entity">
<title>Entity100</title>
<ellipse fill="none" stroke="black" cx="4008.04" cy="-2300.12" rx="90.98" ry="18"/>
<text text-anchor="start" x="3946.04" y="-2296.42" font-family="Times New Roman,serif" font-size="14.00">nsdap rocket program</text>
</g>
<!-- Entity58&#45;&gt;Entity100 -->
<g id="edge51" class="edge verb">
<title>Entity58&#45;&gt;Entity100</title>
<path fill="none" stroke="black" d="M4011.31,-2210.38C4010.7,-2227.25 4009.77,-2252.52 4009.06,-2271.95"/>
<polygon fill="black" stroke="black" points="4005.56,-2271.94 4008.7,-2282.06 4012.56,-2272.19 4005.56,-2271.94"/>
<text text-anchor="start" x="3954.19" y="-2244.96" font-family="Times New Roman,serif" font-size="14.00">worked at</text>
</g>
<!-- Entity35&#45;&gt;Entity71 -->
<g id="edge52" class="edge verb">
<title>Entity35&#45;&gt;Entity71</title>
<path fill="none" stroke="black" d="M3915.43,-1559.98C3972.47,-1482.7 4198.91,-1175.94 4265.3,-1086"/>
<polygon fill="black" stroke="black" points="4268.27,-1087.87 4271.39,-1077.75 4262.63,-1083.72 4268.27,-1087.87"/>
<text text-anchor="start" x="4029.36" y="-1326.79" font-family="Times New Roman,serif" font-size="14.00">member of</text>
</g>
<!-- Entity35&#45;&gt;Entity76 -->
<g id="edge25" class="edge verb">
<title>Entity35&#45;&gt;Entity76</title>
<path fill="none" stroke="black" d="M3829.01,-1574.12C3688.1,-1571.98 3381.67,-1574.75 3249.32,-1579.44"/>
<polygon fill="black" stroke="black" points="3248.82,-1575.96 3238.96,-1579.83 3249.08,-1582.95 3248.82,-1575.96"/>
<text text-anchor="start" x="3483.16" y="-1580.58" font-family="Times New Roman,serif" font-size="14.00">worked at</text>
</g>
<!-- Entity35&#45;&gt;Entity76 -->
<g id="edge32" class="edge verb">
<title>Entity35&#45;&gt;Entity76</title>
<path fill="none" stroke="black" d="M3830.08,-1582.67C3689.79,-1587.28 3382.59,-1589.89 3249.7,-1587.51"/>
<polygon fill="black" stroke="black" points="3249.74,-1584.01 3239.67,-1587.32 3249.6,-1591.01 3249.74,-1584.01"/>
<text text-anchor="start" x="3539.89" y="-1588.89" font-family="Times New Roman,serif" font-size="14.00">vice&#45;president</text>
</g>
<!-- Entity35&#45;&gt;Entity100 -->
<g id="edge34" class="edge verb">
<title>Entity35&#45;&gt;Entity100</title>
<path fill="none" stroke="black" d="M3904.96,-1595.98C3919.22,-1693.38 3986.44,-2152.62 4003.89,-2271.81"/>
<polygon fill="black" stroke="black" points="4000.46,-2272.57 4005.38,-2281.95 4007.39,-2271.55 4000.46,-2272.57"/>
<text text-anchor="start" x="3913.43" y="-1937.69" font-family="Times New Roman,serif" font-size="14.00">created</text>
</g>
<!-- Entity99 -->
<g id="node42" class="node entity">
<title>Entity99</title>
<ellipse fill="none" stroke="black" cx="4459.32" cy="-1413.11" rx="65.79" ry="18"/>
<text text-anchor="start" x="4416.82" y="-1409.41" font-family="Times New Roman,serif" font-size="14.00">x series aircraft</text>
</g>
<!-- Entity35&#45;&gt;Entity99 -->
<g id="edge39" class="edge verb">
<title>Entity35&#45;&gt;Entity99</title>
<path fill="none" stroke="black" d="M3949.79,-1563.73C4052.73,-1533.3 4295.92,-1461.41 4404.87,-1429.21"/>
<polygon fill="black" stroke="black" points="4406.08,-1432.5 4414.68,-1426.31 4404.09,-1425.79 4406.08,-1432.5"/>
<text text-anchor="start" x="4136.33" y="-1500.27" font-family="Times New Roman,serif" font-size="14.00">created</text>
</g>
<!-- Entity72 -->
<g id="node24" class="node entity">
<title>Entity72</title>
<ellipse fill="none" stroke="black" cx="2906.94" cy="-2609.66" rx="27" ry="18"/>
<text text-anchor="start" x="2903.44" y="-2605.96" font-family="Times New Roman,serif" font-size="14.00">s</text>
</g>
<!-- Entity74 -->
<g id="node25" class="node entity">
<title>Entity74</title>
<ellipse fill="none" stroke="black" cx="2994.66" cy="-2721.64" rx="27" ry="18"/>
<text text-anchor="start" x="2990.66" y="-2717.94" font-family="Times New Roman,serif" font-size="14.00">o</text>
</g>
<!-- Entity72&#45;&gt;Entity74 -->
<g id="edge17" class="edge verb">
<title>Entity72&#45;&gt;Entity74</title>
<path fill="none" stroke="black" d="M2919.51,-2625.7C2934.23,-2644.5 2958.76,-2675.82 2975.78,-2697.53"/>
<polygon fill="black" stroke="black" points="2973.19,-2699.91 2982.11,-2705.62 2978.7,-2695.59 2973.19,-2699.91"/>
<text text-anchor="start" x="2940.64" y="-2665.42" font-family="Times New Roman,serif" font-size="14.00">v</text>
</g>
<!-- Entity21 -->
<g id="node27" class="node entity">
<title>Entity21</title>
<ellipse fill="none" stroke="black" cx="2888.43" cy="-3667.03" rx="35.19" ry="18"/>
<text text-anchor="start" x="2869.43" y="-3663.33" font-family="Times New Roman,serif" font-size="14.00">obama</text>
</g>
<!-- Entity21&#45;&gt;Entity77 -->
<g id="edge19" class="edge verb">
<title>Entity21&#45;&gt;Entity77</title>
<path fill="none" stroke="black" d="M2866.06,-3681.28C2813.09,-3715 2679.97,-3799.76 2620.43,-3837.67"/>
<polygon fill="black" stroke="black" points="2618.42,-3834.8 2611.86,-3843.13 2622.18,-3840.71 2618.42,-3834.8"/>
<text text-anchor="start" x="2727.25" y="-3763.27" font-family="Times New Roman,serif" font-size="14.00">isa</text>
</g>
<!-- Entity32 -->
<g id="node30" class="node entity">
<title>Entity32</title>
<ellipse fill="none" stroke="black" cx="69.85" cy="-4132.3" rx="69.59" ry="18"/>
<text text-anchor="start" x="24.35" y="-4128.6" font-family="Times New Roman,serif" font-size="14.00">andrew breitbart</text>
</g>
<!-- Entity32&#45;&gt;Entity80 -->
<g id="edge21" class="edge verb">
<title>Entity32&#45;&gt;Entity80</title>
<path fill="none" stroke="black" d="M116.88,-4119C220.53,-4089.67 468.18,-4019.61 578.35,-3988.44"/>
<polygon fill="black" stroke="black" points="579.58,-3991.72 588.25,-3985.63 577.68,-3984.99 579.58,-3991.72"/>
<text text-anchor="start" x="306.61" y="-4057.52" font-family="Times New Roman,serif" font-size="14.00">created</text>
</g>
<!-- Entity43 -->
<g id="node32" class="node entity">
<title>Entity43</title>
<ellipse fill="none" stroke="black" cx="3269.4" cy="-3799.77" rx="71.49" ry="18"/>
<text text-anchor="start" x="3222.4" y="-3796.07" font-family="Times New Roman,serif" font-size="14.00">woodrow wilson</text>
</g>
<!-- Entity43&#45;&gt;Entity77 -->
<g id="edge23" class="edge verb">
<title>Entity43&#45;&gt;Entity77</title>
<path fill="none" stroke="black" d="M3201.55,-3805.44C3061.75,-3817.13 2745.27,-3843.6 2632.07,-3853.06"/>
<polygon fill="black" stroke="black" points="2631.74,-3849.58 2622.07,-3853.9 2632.33,-3856.55 2631.74,-3849.58"/>
<text text-anchor="start" x="2900.81" y="-3833.05" font-family="Times New Roman,serif" font-size="14.00">isa</text>
</g>
<!-- Entity110 -->
<g id="node53" class="node entity">
<title>Entity110</title>
<ellipse fill="none" stroke="black" cx="3843.52" cy="-4041.71" rx="71.49" ry="18"/>
<text text-anchor="start" x="3796.52" y="-4038.01" font-family="Times New Roman,serif" font-size="14.00">leauge of nations</text>
</g>
<!-- Entity43&#45;&gt;Entity110 -->
<g id="edge58" class="edge verb">
<title>Entity43&#45;&gt;Entity110</title>
<path fill="none" stroke="black" d="M3306.19,-3815.27C3406.83,-3857.68 3686.56,-3975.57 3797.42,-4022.28"/>
<polygon fill="black" stroke="black" points="3796.1,-4025.53 3806.67,-4026.18 3798.82,-4019.07 3796.1,-4025.53"/>
<text text-anchor="start" x="3510.81" y="-3922.58" font-family="Times New Roman,serif" font-size="14.00">created</text>
</g>
<!-- Entity27 -->
<g id="node34" class="node entity">
<title>Entity27</title>
<ellipse fill="none" stroke="black" cx="1559.1" cy="-2440.01" rx="63.89" ry="18"/>
<text text-anchor="start" x="1518.1" y="-2436.31" font-family="Times New Roman,serif" font-size="14.00">robert bigelow</text>
</g>
<!-- Entity27&#45;&gt;Entity3 -->
<g id="edge27" class="edge verb">
<title>Entity27&#45;&gt;Entity3</title>
<path fill="none" stroke="black" d="M1562.56,-2421.67C1565.76,-2404.72 1570.56,-2379.29 1574.23,-2359.82"/>
<polygon fill="black" stroke="black" points="1577.67,-2360.46 1576.08,-2349.98 1570.79,-2359.16 1577.67,-2360.46"/>
<text text-anchor="start" x="1536.4" y="-2394.55" font-family="Times New Roman,serif" font-size="14.00">funds</text>
</g>
<!-- Entity27&#45;&gt;Entity75 -->
<g id="edge43" class="edge verb">
<title>Entity27&#45;&gt;Entity75</title>
<path fill="none" stroke="black" d="M1620.07,-2434.56C1732.63,-2424.51 1973.15,-2403.01 2100.32,-2391.65"/>
<polygon fill="black" stroke="black" points="2100.74,-2395.13 2110.39,-2390.75 2100.12,-2388.16 2100.74,-2395.13"/>
<text text-anchor="start" x="1796.19" y="-2416.91" font-family="Times New Roman,serif" font-size="14.00">investigates</text>
</g>
<!-- Entity48 -->
<g id="node39" class="node entity">
<title>Entity48</title>
<ellipse fill="none" stroke="black" cx="2629.76" cy="-4817.56" rx="58.49" ry="18"/>
<text text-anchor="start" x="2592.76" y="-4813.86" font-family="Times New Roman,serif" font-size="14.00">rudolf steiner</text>
</g>
<!-- Entity48&#45;&gt;Entity96 -->
<g id="edge35" class="edge verb">
<title>Entity48&#45;&gt;Entity96</title>
<path fill="none" stroke="black" d="M2628.48,-4799.25C2627.3,-4782.4 2625.53,-4757.16 2624.18,-4737.76"/>
<polygon fill="black" stroke="black" points="2627.66,-4737.4 2623.47,-4727.67 2620.68,-4737.89 2627.66,-4737.4"/>
<text text-anchor="start" x="2560.33" y="-4772.3" font-family="Times New Roman,serif" font-size="14.00">memberr of</text>
</g>
<!-- Entity109 -->
<g id="node54" class="node entity">
<title>Entity109</title>
<ellipse fill="none" stroke="black" cx="2721.65" cy="-5498.37" rx="102.08" ry="18"/>
<text text-anchor="start" x="2651.15" y="-5494.67" font-family="Times New Roman,serif" font-size="14.00">anthroposophical society</text>
</g>
<!-- Entity48&#45;&gt;Entity109 -->
<g id="edge59" class="edge verb">
<title>Entity48&#45;&gt;Entity109</title>
<path fill="none" stroke="black" d="M2632.22,-4835.77C2644.84,-4929.28 2702.38,-5355.58 2717.82,-5470.02"/>
<polygon fill="black" stroke="black" points="2714.38,-5470.66 2719.18,-5480.1 2721.32,-5469.73 2714.38,-5470.66"/>
<text text-anchor="start" x="2634.02" y="-5156.7" font-family="Times New Roman,serif" font-size="14.00">created</text>
</g>
<!-- Entity18 -->
<g id="node40" class="node entity">
<title>Entity18</title>
<ellipse fill="none" stroke="black" cx="2247.5" cy="-4105.01" rx="58.49" ry="18"/>
<text text-anchor="start" x="2210.5" y="-4101.31" font-family="Times New Roman,serif" font-size="14.00">richard nixon</text>
</g>
<!-- Entity18&#45;&gt;Entity77 -->
<g id="edge36" class="edge verb">
<title>Entity18&#45;&gt;Entity77</title>
<path fill="none" stroke="black" d="M2270.56,-4088.32C2331.57,-4044.16 2497.05,-3924.39 2563.08,-3876.6"/>
<polygon fill="black" stroke="black" points="2565.31,-3879.31 2571.36,-3870.61 2561.2,-3873.64 2565.31,-3879.31"/>
<text text-anchor="start" x="2400.82" y="-3986.26" font-family="Times New Roman,serif" font-size="14.00">isa</text>
</g>
<!-- Entity17 -->
<g id="node41" class="node entity">
<title>Entity17</title>
<ellipse fill="none" stroke="black" cx="2552.41" cy="-3964.48" rx="56.59" ry="18"/>
<text text-anchor="start" x="2516.91" y="-3960.78" font-family="Times New Roman,serif" font-size="14.00">harry truman</text>
</g>
<!-- Entity17&#45;&gt;Entity77 -->
<g id="edge37" class="edge verb">
<title>Entity17&#45;&gt;Entity77</title>
<path fill="none" stroke="black" d="M2558.93,-3946.17C2565.02,-3929.05 2574.19,-3903.29 2581.14,-3883.76"/>
<polygon fill="black" stroke="black" points="2584.49,-3884.79 2584.54,-3874.2 2577.89,-3882.45 2584.49,-3884.79"/>
<text text-anchor="start" x="2554.03" y="-3918.76" font-family="Times New Roman,serif" font-size="14.00">isa</text>
</g>
<!-- Entity116 -->
<g id="node59" class="node entity">
<title>Entity116</title>
<ellipse fill="none" stroke="black" cx="2632.89" cy="-4072.52" rx="55.79" ry="18"/>
<text text-anchor="start" x="2597.89" y="-4068.82" font-family="Times New Roman,serif" font-size="14.00">freemasonry</text>
</g>
<!-- Entity17&#45;&gt;Entity116 -->
<g id="edge65" class="edge verb">
<title>Entity17&#45;&gt;Entity116</title>
<path fill="none" stroke="black" d="M2565.7,-3982.32C2578.82,-3999.94 2599.03,-4027.06 2613.86,-4046.97"/>
<polygon fill="black" stroke="black" points="2611.06,-4049.08 2619.84,-4055.01 2616.68,-4044.9 2611.06,-4049.08"/>
<text text-anchor="start" x="2528.78" y="-4018.44" font-family="Times New Roman,serif" font-size="14.00">member of</text>
</g>
<!-- Entity23 -->
<g id="node43" class="node entity">
<title>Entity23</title>
<ellipse fill="none" stroke="black" cx="2616.81" cy="-3480.8" rx="31.4" ry="18"/>
<text text-anchor="start" x="2600.81" y="-3477.1" font-family="Times New Roman,serif" font-size="14.00">carter</text>
</g>
<!-- Entity23&#45;&gt;Entity77 -->
<g id="edge41" class="edge verb">
<title>Entity23&#45;&gt;Entity77</title>
<path fill="none" stroke="black" d="M2615.56,-3498.92C2611.39,-3559.29 2597.93,-3753.92 2592.83,-3827.75"/>
<polygon fill="black" stroke="black" points="2589.31,-3827.91 2592.11,-3838.13 2596.29,-3828.4 2589.31,-3827.91"/>
<text text-anchor="start" x="2588.19" y="-3667.14" font-family="Times New Roman,serif" font-size="14.00">isa</text>
</g>
<!-- Entity23&#45;&gt;Entity108 -->
<g id="edge57" class="edge verb">
<title>Entity23&#45;&gt;Entity108</title>
<path fill="none" stroke="black" d="M2611.9,-3462.59C2597.11,-3407.81 2552.97,-3244.28 2535.24,-3178.58"/>
<polygon fill="black" stroke="black" points="2538.52,-3177.3 2532.54,-3168.56 2531.76,-3179.12 2538.52,-3177.3"/>
<text text-anchor="start" x="2518.57" y="-3324.38" font-family="Times New Roman,serif" font-size="14.00">witnessed</text>
</g>
<!-- Entity50 -->
<g id="node44" class="node entity">
<title>Entity50</title>
<ellipse fill="none" stroke="black" cx="2464.02" cy="-5364.11" rx="73.39" ry="18"/>
<text text-anchor="start" x="2415.52" y="-5360.41" font-family="Times New Roman,serif" font-size="14.00">madam blavatsky</text>
</g>
<!-- Entity50&#45;&gt;Entity96 -->
<g id="edge44" class="edge verb">
<title>Entity50&#45;&gt;Entity96</title>
<path fill="none" stroke="black" d="M2468.42,-5345.92C2490.44,-5254.82 2588.74,-4848.13 2615.48,-4737.49"/>
<polygon fill="black" stroke="black" points="2618.89,-4738.27 2617.84,-4727.73 2612.08,-4736.63 2618.89,-4738.27"/>
<text text-anchor="start" x="2500.95" y="-5045.51" font-family="Times New Roman,serif" font-size="14.00">created</text>
</g>
<!-- Entity51 -->
<g id="node45" class="node entity">
<title>Entity51</title>
<ellipse fill="none" stroke="black" cx="3824.92" cy="-3763.42" rx="53.89" ry="18"/>
<text text-anchor="start" x="3791.42" y="-3759.72" font-family="Times New Roman,serif" font-size="14.00">edgar casey</text>
</g>
<!-- Entity51&#45;&gt;Entity43 -->
<g id="edge48" class="edge verb">
<title>Entity51&#45;&gt;Entity43</title>
<path fill="none" stroke="black" d="M3771.91,-3766.89C3673.98,-3773.3 3464.23,-3787.02 3349.1,-3794.55"/>
<polygon fill="black" stroke="black" points="3348.69,-3791.07 3338.94,-3795.22 3349.15,-3798.06 3348.69,-3791.07"/>
<text text-anchor="start" x="3518.5" y="-3784.52" font-family="Times New Roman,serif" font-size="14.00">advises</text>
</g>
<!-- Entity29 -->
<g id="node46" class="node entity">
<title>Entity29</title>
<ellipse fill="none" stroke="black" cx="3516.95" cy="-1237.01" rx="57.69" ry="18"/>
<text text-anchor="start" x="3480.45" y="-1233.31" font-family="Times New Roman,serif" font-size="14.00">michael pane</text>
</g>
<!-- Entity29&#45;&gt;Entity35 -->
<g id="edge50" class="edge verb">
<title>Entity29&#45;&gt;Entity35</title>
<path fill="none" stroke="black" d="M3536.32,-1254.14C3599.79,-1310.26 3801.58,-1488.71 3875.14,-1553.75"/>
<polygon fill="black" stroke="black" points="3872.85,-1556.39 3882.66,-1560.4 3877.48,-1551.15 3872.85,-1556.39"/>
<text text-anchor="start" x="3642.73" y="-1407.75" font-family="Times New Roman,serif" font-size="14.00">worked for</text>
</g>
<!-- Entity29&#45;&gt;Entity76 -->
<g id="edge49" class="edge verb">
<title>Entity29&#45;&gt;Entity76</title>
<path fill="none" stroke="black" d="M3500.1,-1254.7C3445.48,-1312.03 3273.19,-1492.89 3209.94,-1559.28"/>
<polygon fill="black" stroke="black" points="3207.15,-1557.13 3202.79,-1566.79 3212.22,-1561.96 3207.15,-1557.13"/>
<text text-anchor="start" x="3299.02" y="-1410.79" font-family="Times New Roman,serif" font-size="14.00">worked at</text>
</g>
<!-- Entity30 -->
<g id="node49" class="node entity">
<title>Entity30</title>
<ellipse fill="none" stroke="black" cx="3495.94" cy="-2321.66" rx="39.79" ry="18"/>
<text text-anchor="start" x="3473.44" y="-2317.96" font-family="Times New Roman,serif" font-size="14.00">crowley</text>
</g>
<!-- Entity106 -->
<g id="node50" class="node entity">
<title>Entity106</title>
<ellipse fill="none" stroke="black" cx="3583.66" cy="-2433.64" rx="38.99" ry="18"/>
<text text-anchor="start" x="3561.66" y="-2429.94" font-family="Times New Roman,serif" font-size="14.00">x magic</text>
</g>
<!-- Entity30&#45;&gt;Entity106 -->
<g id="edge55" class="edge verb">
<title>Entity30&#45;&gt;Entity106</title>
<path fill="none" stroke="black" d="M3509.26,-2338.67C3523.82,-2357.25 3547.28,-2387.2 3563.96,-2408.49"/>
<polygon fill="black" stroke="black" points="3561.29,-2410.76 3570.21,-2416.47 3566.8,-2406.44 3561.29,-2410.76"/>
<text text-anchor="start" x="3475.61" y="-2377.38" font-family="Times New Roman,serif" font-size="14.00">member of</text>
</g>
<!-- Entity56 -->
<g id="node56" class="node entity">
<title>Entity56</title>
<ellipse fill="none" stroke="black" cx="3221.94" cy="-3185.66" rx="53.89" ry="18"/>
<text text-anchor="start" x="3188.44" y="-3181.96" font-family="Times New Roman,serif" font-size="14.00">black magic</text>
</g>
<!-- Entity114 -->
<g id="node57" class="node entity">
<title>Entity114</title>
<ellipse fill="none" stroke="black" cx="3309.66" cy="-3297.64" rx="28.7" ry="18"/>
<text text-anchor="start" x="3295.66" y="-3293.94" font-family="Times New Roman,serif" font-size="14.00">x left</text>
</g>
<!-- Entity56&#45;&gt;Entity114 -->
<g id="edge61" class="edge verb">
<title>Entity56&#45;&gt;Entity114</title>
<path fill="none" stroke="black" d="M3235.64,-3203.16C3250.45,-3222.05 3274.14,-3252.29 3290.72,-3273.45"/>
<polygon fill="black" stroke="black" points="3287.98,-3275.64 3296.9,-3281.36 3293.49,-3271.32 3287.98,-3275.64"/>
<text text-anchor="start" x="3202.18" y="-3242.11" font-family="Times New Roman,serif" font-size="14.00">member of</text>
</g>
</g>
</svg>
