<?xml version="1.0" encoding="UTF-8" standalone="no"?>
<?xml-stylesheet href="./styles.css" type="text/css"?>
<!DOCTYPE svg PUBLIC "-//W3C//DTD SVG 1.1//EN"
 "http://www.w3.org/Graphics/SVG/1.1/DTD/svg11.dtd">
<!-- Generated by graphviz version 2.47.3 (20210619.1520)
 -->
<!-- Title: G Pages: 1 -->
<svg width="7708pt" height="2787pt"
 viewBox="0.00 0.00 7708.00 2787.00" xmlns="http://www.w3.org/2000/svg" xmlns:xlink="http://www.w3.org/1999/xlink">
<g id="graph0" class="graph" transform="scale(1 1) rotate(0) translate(4 2783)">
<title>G</title>
<polygon fill="white" stroke="transparent" points="-4,4 -4,-2783 7704,-2783 7704,4 -4,4"/>
<!-- Entity3 -->
<g id="node1" class="node entity">
<title>Entity3</title>
<ellipse fill="none" stroke="black" cx="5383.47" cy="-1683.87" rx="27" ry="18"/>
<text text-anchor="start" x="5375.97" y="-1680.17" font-family="Times New Roman,serif" font-size="14.00">jfk</text>
</g>
<!-- Entity22 -->
<g id="node2" class="node entity">
<title>Entity22</title>
<ellipse fill="none" stroke="black" cx="5024.45" cy="-1571.93" rx="27" ry="18"/>
<text text-anchor="start" x="5016.45" y="-1568.23" font-family="Times New Roman,serif" font-size="14.00">cia</text>
</g>
<!-- Entity3&#45;&gt;Entity22 -->
<g id="edge1" class="edge verb">
<title>Entity3&#45;&gt;Entity22</title>
<path fill="none" stroke="black" d="M5358.8,-1676.18C5296.28,-1656.69 5131.54,-1605.32 5059.27,-1582.78"/>
<polygon fill="black" stroke="black" points="5059.89,-1579.31 5049.3,-1579.68 5057.8,-1585.99 5059.89,-1579.31"/>
<text text-anchor="start" x="5105.03" y="-1633.28" font-family="Times New Roman,serif" font-size="14.00">heads (1961&#45;1963)</text>
</g>
<!-- Entity66 -->
<g id="node20" class="node entity">
<title>Entity66</title>
<ellipse fill="none" stroke="black" cx="5782.25" cy="-1691.34" rx="31.4" ry="18"/>
<text text-anchor="start" x="5766.25" y="-1687.64" font-family="Times New Roman,serif" font-size="14.00">potus</text>
</g>
<!-- Entity3&#45;&gt;Entity66 -->
<g id="edge23" class="edge verb">
<title>Entity3&#45;&gt;Entity66</title>
<path fill="none" stroke="black" d="M5410.57,-1684.38C5478.94,-1685.66 5658.79,-1689.03 5740.63,-1690.56"/>
<polygon fill="black" stroke="black" points="5740.98,-1694.07 5751.04,-1690.76 5741.11,-1687.07 5740.98,-1694.07"/>
<text text-anchor="start" x="5488.6" y="-1691.27" font-family="Times New Roman,serif" font-size="14.00">isa (1961&#45;1963)</text>
</g>
<!-- Entity67 -->
<g id="node25" class="node entity">
<title>Entity67</title>
<ellipse fill="none" stroke="black" cx="4261.17" cy="-1615.05" rx="77.19" ry="18"/>
<text text-anchor="start" x="4209.67" y="-1611.35" font-family="Times New Roman,serif" font-size="14.00">psi&#45;consciousness</text>
</g>
<!-- Entity22&#45;&gt;Entity67 -->
<g id="edge43" class="edge verb">
<title>Entity22&#45;&gt;Entity67</title>
<path fill="none" stroke="black" d="M4997.28,-1573.46C4893.25,-1579.34 4517.47,-1600.57 4346.7,-1610.22"/>
<polygon fill="black" stroke="black" points="4346.28,-1606.73 4336.49,-1610.79 4346.67,-1613.72 4346.28,-1606.73"/>
<text text-anchor="start" x="4607.99" y="-1595.64" font-family="Times New Roman,serif" font-size="14.00">investigates</text>
</g>
<!-- Entity90 -->
<g id="node52" class="node entity">
<title>Entity90</title>
<ellipse fill="none" stroke="black" cx="5114.83" cy="-1370.23" rx="27" ry="18"/>
<text text-anchor="start" x="5105.33" y="-1366.53" font-family="Times New Roman,serif" font-size="14.00">ufo</text>
</g>
<!-- Entity22&#45;&gt;Entity90 -->
<g id="edge62" class="edge verb">
<title>Entity22&#45;&gt;Entity90</title>
<path fill="none" stroke="black" d="M5032.31,-1554.38C5048.17,-1518.98 5084.1,-1438.81 5102.88,-1396.89"/>
<polygon fill="black" stroke="black" points="5106.15,-1398.15 5107.05,-1387.59 5099.76,-1395.29 5106.15,-1398.15"/>
<text text-anchor="start" x="5003.6" y="-1479.44" font-family="Times New Roman,serif" font-size="14.00">investigates</text>
</g>
<!-- Entity14 -->
<g id="node3" class="node entity">
<title>Entity14</title>
<ellipse fill="none" stroke="black" cx="2590.24" cy="-1009.52" rx="74.99" ry="18"/>
<text text-anchor="start" x="2540.74" y="-1005.82" font-family="Times New Roman,serif" font-size="14.00">gene roddenberry</text>
</g>
<!-- Entity8 -->
<g id="node4" class="node entity">
<title>Entity8</title>
<ellipse fill="none" stroke="black" cx="3029.26" cy="-1268.09" rx="38.19" ry="18"/>
<text text-anchor="start" x="3007.76" y="-1264.39" font-family="Times New Roman,serif" font-size="14.00">the nine</text>
</g>
<!-- Entity14&#45;&gt;Entity8 -->
<g id="edge2" class="edge verb">
<title>Entity14&#45;&gt;Entity8</title>
<path fill="none" stroke="black" d="M2618.71,-1026.29C2696.73,-1072.24 2913.66,-1200 2996.52,-1248.8"/>
<polygon fill="black" stroke="black" points="2994.86,-1251.89 3005.26,-1253.95 2998.42,-1245.86 2994.86,-1251.89"/>
<text text-anchor="start" x="2703.61" y="-1141.35" font-family="Times New Roman,serif" font-size="14.00">claiemd to channel</text>
</g>
<!-- Entity70 -->
<g id="node23" class="node entity">
<title>Entity70</title>
<ellipse fill="none" stroke="black" cx="2726.6" cy="-775.74" rx="94.48" ry="18"/>
<text text-anchor="start" x="2662.1" y="-772.04" font-family="Times New Roman,serif" font-size="14.00">egyptian gods in a ship</text>
</g>
<!-- Entity8&#45;&gt;Entity70 -->
<g id="edge16" class="edge verb">
<title>Entity8&#45;&gt;Entity70</title>
<path fill="none" stroke="black" d="M3018.49,-1250.57C2973.18,-1176.86 2797.88,-891.7 2743.07,-802.54"/>
<polygon fill="black" stroke="black" points="2745.94,-800.51 2737.72,-793.82 2739.98,-804.18 2745.94,-800.51"/>
<text text-anchor="start" x="2776.78" y="-1030.35" font-family="Times New Roman,serif" font-size="14.00">claimed to channel</text>
</g>
<!-- Entity16 -->
<g id="node5" class="node entity">
<title>Entity16</title>
<ellipse fill="none" stroke="black" cx="5362.69" cy="-1922.84" rx="68.49" ry="18"/>
<text text-anchor="start" x="5318.19" y="-1919.14" font-family="Times New Roman,serif" font-size="14.00">george hw bush</text>
</g>
<!-- Entity20 -->
<g id="node6" class="node entity">
<title>Entity20</title>
<ellipse fill="none" stroke="black" cx="5240.17" cy="-1814.8" rx="63.89" ry="18"/>
<text text-anchor="start" x="5199.17" y="-1811.1" font-family="Times New Roman,serif" font-size="14.00">george w bush</text>
</g>
<!-- Entity16&#45;&gt;Entity20 -->
<g id="edge3" class="edge verb">
<title>Entity16&#45;&gt;Entity20</title>
<path fill="none" stroke="black" d="M5343,-1905.48C5322.55,-1887.44 5290.4,-1859.09 5267.49,-1838.89"/>
<polygon fill="black" stroke="black" points="5269.62,-1836.1 5259.81,-1832.12 5264.99,-1841.35 5269.62,-1836.1"/>
<text text-anchor="start" x="5273.25" y="-1875.98" font-family="Times New Roman,serif" font-size="14.00">father</text>
</g>
<!-- Entity16&#45;&gt;Entity66 -->
<g id="edge20" class="edge verb">
<title>Entity16&#45;&gt;Entity66</title>
<path fill="none" stroke="black" d="M5392.19,-1906.56C5468.54,-1864.43 5672.15,-1752.09 5750.71,-1708.74"/>
<polygon fill="black" stroke="black" points="5752.59,-1711.7 5759.65,-1703.81 5749.21,-1705.57 5752.59,-1711.7"/>
<text text-anchor="start" x="5555.45" y="-1811.45" font-family="Times New Roman,serif" font-size="14.00">isa</text>
</g>
<!-- Entity20&#45;&gt;Entity66 -->
<g id="edge42" class="edge verb">
<title>Entity20&#45;&gt;Entity66</title>
<path fill="none" stroke="black" d="M5290.2,-1803.41C5397.3,-1779.01 5646.84,-1722.18 5743.26,-1700.22"/>
<polygon fill="black" stroke="black" points="5744.2,-1703.59 5753.17,-1697.96 5742.65,-1696.77 5744.2,-1703.59"/>
<text text-anchor="start" x="5500.73" y="-1755.61" font-family="Times New Roman,serif" font-size="14.00">isa</text>
</g>
<!-- Entity2 -->
<g id="node7" class="node entity">
<title>Entity2</title>
<ellipse fill="none" stroke="black" cx="3189.81" cy="-1449.84" rx="41.69" ry="18"/>
<text text-anchor="start" x="3165.81" y="-1446.14" font-family="Times New Roman,serif" font-size="14.00">uri geller</text>
</g>
<!-- Entity2&#45;&gt;Entity8 -->
<g id="edge4" class="edge verb">
<title>Entity2&#45;&gt;Entity8</title>
<path fill="none" stroke="black" d="M3174.71,-1432.74C3146.12,-1400.37 3083.99,-1330.04 3050.95,-1292.64"/>
<polygon fill="black" stroke="black" points="3053.22,-1289.93 3043.98,-1284.75 3047.98,-1294.56 3053.22,-1289.93"/>
<text text-anchor="start" x="3008.83" y="-1366.49" font-family="Times New Roman,serif" font-size="14.00">claiemd to channel</text>
</g>
<!-- Entity26 -->
<g id="node8" class="node entity">
<title>Entity26</title>
<ellipse fill="none" stroke="black" cx="1013.24" cy="-1983.78" rx="49.29" ry="18"/>
<text text-anchor="start" x="983.24" y="-1980.08" font-family="Times New Roman,serif" font-size="14.00">adolf hitler</text>
</g>
<!-- Entity28 -->
<g id="node9" class="node entity">
<title>Entity28</title>
<ellipse fill="none" stroke="black" cx="1394.9" cy="-2109.9" rx="32.49" ry="18"/>
<text text-anchor="start" x="1377.9" y="-2106.2" font-family="Times New Roman,serif" font-size="14.00">nsdap</text>
</g>
<!-- Entity26&#45;&gt;Entity28 -->
<g id="edge5" class="edge verb">
<title>Entity26&#45;&gt;Entity28</title>
<path fill="none" stroke="black" d="M1049.84,-1995.87C1122.36,-2019.84 1283.66,-2073.14 1357.13,-2097.42"/>
<polygon fill="black" stroke="black" points="1356.3,-2100.83 1366.9,-2100.65 1358.5,-2094.19 1356.3,-2100.83"/>
<text text-anchor="start" x="1162.48" y="-2050.44" font-family="Times New Roman,serif" font-size="14.00">created</text>
</g>
<!-- Entity75 -->
<g id="node31" class="node entity">
<title>Entity75</title>
<ellipse fill="none" stroke="black" cx="955.33" cy="-2246.6" rx="38.99" ry="18"/>
<text text-anchor="start" x="933.33" y="-2242.9" font-family="Times New Roman,serif" font-size="14.00">far right</text>
</g>
<!-- Entity28&#45;&gt;Entity75 -->
<g id="edge29" class="edge verb">
<title>Entity28&#45;&gt;Entity75</title>
<path fill="none" stroke="black" d="M1366.4,-2118.77C1291.11,-2142.18 1086.62,-2205.77 997.64,-2233.45"/>
<polygon fill="black" stroke="black" points="996.39,-2230.17 987.88,-2236.48 998.47,-2236.85 996.39,-2230.17"/>
<text text-anchor="start" x="1121.02" y="-2179.91" font-family="Times New Roman,serif" font-size="14.00">member of</text>
</g>
<!-- Entity15 -->
<g id="node10" class="node entity">
<title>Entity15</title>
<ellipse fill="none" stroke="black" cx="6340.05" cy="-1405.81" rx="59.59" ry="18"/>
<text text-anchor="start" x="6302.05" y="-1402.11" font-family="Times New Roman,serif" font-size="14.00">donald trump</text>
</g>
<!-- Entity48 -->
<g id="node11" class="node entity">
<title>Entity48</title>
<ellipse fill="none" stroke="black" cx="5647.29" cy="-1458.3" rx="50.09" ry="18"/>
<text text-anchor="start" x="5616.79" y="-1454.6" font-family="Times New Roman,serif" font-size="14.00">john trump</text>
</g>
<!-- Entity15&#45;&gt;Entity48 -->
<g id="edge6" class="edge verb">
<title>Entity15&#45;&gt;Entity48</title>
<path fill="none" stroke="black" d="M6281.88,-1410.21C6151.7,-1420.08 5838.07,-1443.84 5706.72,-1453.79"/>
<polygon fill="black" stroke="black" points="5706.16,-1450.33 5696.45,-1454.57 5706.69,-1457.31 5706.16,-1450.33"/>
<text text-anchor="start" x="5935.3" y="-1435.8" font-family="Times New Roman,serif" font-size="14.00">nephew of</text>
</g>
<!-- Entity15&#45;&gt;Entity66 -->
<g id="edge27" class="edge verb">
<title>Entity15&#45;&gt;Entity66</title>
<path fill="none" stroke="black" d="M6309.66,-1421.36C6213.19,-1470.74 5914.39,-1623.7 5814.87,-1674.64"/>
<polygon fill="black" stroke="black" points="5813.18,-1671.57 5805.87,-1679.25 5816.37,-1677.8 5813.18,-1671.57"/>
<text text-anchor="start" x="6046.26" y="-1551.8" font-family="Times New Roman,serif" font-size="14.00">isa</text>
</g>
<!-- Entity48&#45;&gt;Entity22 -->
<g id="edge10" class="edge verb">
<title>Entity48&#45;&gt;Entity22</title>
<path fill="none" stroke="black" d="M5602.49,-1466.47C5484.67,-1487.96 5167.78,-1545.78 5060.51,-1565.35"/>
<polygon fill="black" stroke="black" points="5059.72,-1561.94 5050.51,-1567.17 5060.97,-1568.82 5059.72,-1561.94"/>
<text text-anchor="start" x="5270.5" y="-1519.71" font-family="Times New Roman,serif" font-size="14.00">member of</text>
</g>
<!-- Entity82 -->
<g id="node41" class="node entity">
<title>Entity82</title>
<ellipse fill="none" stroke="black" cx="6008.6" cy="-1373.11" rx="50.89" ry="18"/>
<text text-anchor="start" x="5977.6" y="-1369.41" font-family="Times New Roman,serif" font-size="14.00">nikola tesla</text>
</g>
<!-- Entity48&#45;&gt;Entity82 -->
<g id="edge40" class="edge verb">
<title>Entity48&#45;&gt;Entity82</title>
<path fill="none" stroke="black" d="M5689.44,-1448.36C5755.76,-1432.72 5884.3,-1402.42 5956.37,-1385.43"/>
<polygon fill="black" stroke="black" points="5957.23,-1388.82 5966.16,-1383.12 5955.62,-1382.01 5957.23,-1388.82"/>
<text text-anchor="start" x="5781.91" y="-1420.69" font-family="Times New Roman,serif" font-size="14.00">studied</text>
</g>
<!-- Entity5 -->
<g id="node12" class="node entity">
<title>Entity5</title>
<ellipse fill="none" stroke="black" cx="3411.56" cy="-1649.93" rx="56.59" ry="18"/>
<text text-anchor="start" x="3376.06" y="-1646.23" font-family="Times New Roman,serif" font-size="14.00">arthur young</text>
</g>
<!-- Entity5&#45;&gt;Entity8 -->
<g id="edge7" class="edge verb">
<title>Entity5&#45;&gt;Entity8</title>
<path fill="none" stroke="black" d="M3394.14,-1632.53C3332.41,-1570.88 3124,-1362.72 3053.11,-1291.9"/>
<polygon fill="black" stroke="black" points="3055.47,-1289.31 3045.92,-1284.72 3050.52,-1294.27 3055.47,-1289.31"/>
<text text-anchor="start" x="3223.62" y="-1466.02" font-family="Times New Roman,serif" font-size="14.00">member&#45;of</text>
</g>
<!-- Entity5&#45;&gt;Entity67 -->
<g id="edge18" class="edge verb">
<title>Entity5&#45;&gt;Entity67</title>
<path fill="none" stroke="black" d="M3467.96,-1647.62C3613.22,-1641.65 4000.91,-1625.73 4174.74,-1618.6"/>
<polygon fill="black" stroke="black" points="4175.03,-1622.09 4184.87,-1618.18 4174.74,-1615.09 4175.03,-1622.09"/>
<text text-anchor="start" x="3780.35" y="-1636.91" font-family="Times New Roman,serif" font-size="14.00">studied</text>
</g>
<!-- Entity72 -->
<g id="node28" class="node entity">
<title>Entity72</title>
<ellipse fill="none" stroke="black" cx="2753.01" cy="-1882.82" rx="53.89" ry="18"/>
<text text-anchor="start" x="2719.51" y="-1879.12" font-family="Times New Roman,serif" font-size="14.00">bell aviation</text>
</g>
<!-- Entity5&#45;&gt;Entity72 -->
<g id="edge24" class="edge verb">
<title>Entity5&#45;&gt;Entity72</title>
<path fill="none" stroke="black" d="M3373.31,-1663.46C3259.58,-1703.68 2923.78,-1822.43 2799.75,-1866.29"/>
<polygon fill="black" stroke="black" points="2798.41,-1863.05 2790.14,-1869.68 2800.74,-1869.65 2798.41,-1863.05"/>
<text text-anchor="start" x="3045.53" y="-1768.67" font-family="Times New Roman,serif" font-size="14.00">created</text>
</g>
<!-- Entity1 -->
<g id="node13" class="node entity">
<title>Entity1</title>
<ellipse fill="none" stroke="black" cx="2726.58" cy="-1376.24" rx="64.19" ry="18"/>
<text text-anchor="start" x="2685.08" y="-1372.54" font-family="Times New Roman,serif" font-size="14.00">andre puharich</text>
</g>
<!-- Entity1&#45;&gt;Entity2 -->
<g id="edge8" class="edge verb">
<title>Entity1&#45;&gt;Entity2</title>
<path fill="none" stroke="black" d="M2782.92,-1385.19C2874.44,-1399.73 3053.89,-1428.24 3140.6,-1442.02"/>
<polygon fill="black" stroke="black" points="3140.28,-1445.51 3150.7,-1443.62 3141.37,-1438.6 3140.28,-1445.51"/>
<text text-anchor="start" x="2901.76" y="-1417.41" font-family="Times New Roman,serif" font-size="14.00">sponsored</text>
</g>
<!-- Entity7 -->
<g id="node14" class="node entity">
<title>Entity7</title>
<ellipse fill="none" stroke="black" cx="3696.68" cy="-1525.99" rx="68.49" ry="18"/>
<text text-anchor="start" x="3652.18" y="-1522.29" font-family="Times New Roman,serif" font-size="14.00">jeffrey mishlove</text>
</g>
<!-- Entity7&#45;&gt;Entity2 -->
<g id="edge9" class="edge verb">
<title>Entity7&#45;&gt;Entity2</title>
<path fill="none" stroke="black" d="M3637.04,-1517.03C3536.02,-1501.86 3333.1,-1471.37 3239.36,-1457.28"/>
<polygon fill="black" stroke="black" points="3239.7,-1453.8 3229.29,-1455.77 3238.66,-1460.72 3239.7,-1453.8"/>
<text text-anchor="start" x="3383.2" y="-1490.96" font-family="Times New Roman,serif" font-size="14.00">promoted</text>
</g>
<!-- Entity7&#45;&gt;Entity67 -->
<g id="edge19" class="edge verb">
<title>Entity7&#45;&gt;Entity67</title>
<path fill="none" stroke="black" d="M3747.63,-1538.18C3845.51,-1556.9 4060.57,-1591.1 4178.98,-1607.05"/>
<polygon fill="black" stroke="black" points="4178.7,-1610.55 4189.08,-1608.4 4179.63,-1603.61 4178.7,-1610.55"/>
<text text-anchor="start" x="3922.3" y="-1576.42" font-family="Times New Roman,serif" font-size="14.00">studied</text>
</g>
<!-- Entity7&#45;&gt;Entity67 -->
<g id="edge26" class="edge verb">
<title>Entity7&#45;&gt;Entity67</title>
<path fill="none" stroke="black" d="M3761.58,-1531.7C3870.36,-1545.8 4088.19,-1580.16 4196.68,-1600.31"/>
<polygon fill="black" stroke="black" points="4196.04,-1603.75 4206.52,-1602.16 4197.34,-1596.87 4196.04,-1603.75"/>
<text text-anchor="start" x="3915.13" y="-1554.81" font-family="Times New Roman,serif" font-size="14.00">investigates</text>
</g>
<!-- Entity30 -->
<g id="node15" class="node entity">
<title>Entity30</title>
<ellipse fill="none" stroke="black" cx="2040.28" cy="-2039.39" rx="74.99" ry="18"/>
<text text-anchor="start" x="1990.78" y="-2035.69" font-family="Times New Roman,serif" font-size="14.00">walter dornberger</text>
</g>
<!-- Entity30&#45;&gt;Entity28 -->
<g id="edge11" class="edge verb">
<title>Entity30&#45;&gt;Entity28</title>
<path fill="none" stroke="black" d="M1972.13,-2046.84C1838.57,-2061.43 1545.93,-2093.4 1436.92,-2105.31"/>
<polygon fill="black" stroke="black" points="1436.52,-2101.83 1426.96,-2106.4 1437.28,-2108.79 1436.52,-2101.83"/>
<text text-anchor="start" x="1643.53" y="-2079.88" font-family="Times New Roman,serif" font-size="14.00">member of</text>
</g>
<!-- Entity30&#45;&gt;Entity72 -->
<g id="edge35" class="edge verb">
<title>Entity30&#45;&gt;Entity72</title>
<path fill="none" stroke="black" d="M2103.46,-2029.63C2243.29,-2002.75 2576.57,-1929.42 2703.11,-1897.55"/>
<polygon fill="black" stroke="black" points="2704.1,-1900.91 2712.93,-1895.06 2702.38,-1894.13 2704.1,-1900.91"/>
<text text-anchor="start" x="2324.29" y="-1967.39" font-family="Times New Roman,serif" font-size="14.00">vice&#45;president</text>
</g>
<!-- Entity30&#45;&gt;Entity72 -->
<g id="edge49" class="edge verb">
<title>Entity30&#45;&gt;Entity72</title>
<path fill="none" stroke="black" d="M2087.38,-2025.37C2212.72,-1993.64 2554.27,-1918.49 2693.12,-1891.95"/>
<polygon fill="black" stroke="black" points="2693.99,-1895.35 2703.16,-1890.05 2692.68,-1888.47 2693.99,-1895.35"/>
<text text-anchor="start" x="2334.25" y="-1947.46" font-family="Times New Roman,serif" font-size="14.00">worked at</text>
</g>
<!-- Entity76 -->
<g id="node35" class="node entity">
<title>Entity76</title>
<ellipse fill="none" stroke="black" cx="2019.61" cy="-2147.49" rx="90.98" ry="18"/>
<text text-anchor="start" x="1957.61" y="-2143.79" font-family="Times New Roman,serif" font-size="14.00">nsdap rocket program</text>
</g>
<!-- Entity30&#45;&gt;Entity76 -->
<g id="edge36" class="edge verb">
<title>Entity30&#45;&gt;Entity76</title>
<path fill="none" stroke="black" d="M2036.77,-2057.73C2033.53,-2074.68 2028.67,-2100.11 2024.94,-2119.58"/>
<polygon fill="black" stroke="black" points="2021.5,-2118.94 2023.06,-2129.42 2028.38,-2120.26 2021.5,-2118.94"/>
<text text-anchor="start" x="1989.86" y="-2092.46" font-family="Times New Roman,serif" font-size="14.00">created</text>
</g>
<!-- Entity104 -->
<g id="node55" class="node entity">
<title>Entity104</title>
<ellipse fill="none" stroke="black" cx="1740.29" cy="-2552.04" rx="65.79" ry="18"/>
<text text-anchor="start" x="1697.79" y="-2548.34" font-family="Times New Roman,serif" font-size="14.00">x series aircraft</text>
</g>
<!-- Entity30&#45;&gt;Entity104 -->
<g id="edge59" class="edge verb">
<title>Entity30&#45;&gt;Entity104</title>
<path fill="none" stroke="black" d="M2029.78,-2057.34C1984.91,-2134.01 1809.17,-2434.34 1755.77,-2525.59"/>
<polygon fill="black" stroke="black" points="1752.74,-2523.84 1750.71,-2534.24 1758.78,-2527.38 1752.74,-2523.84"/>
<text text-anchor="start" x="1851.77" y="-2295.27" font-family="Times New Roman,serif" font-size="14.00">created</text>
</g>
<!-- Entity32 -->
<g id="node16" class="node entity">
<title>Entity32</title>
<ellipse fill="none" stroke="black" cx="1595.46" cy="-2291.69" rx="46.29" ry="18"/>
<text text-anchor="start" x="1567.96" y="-2287.99" font-family="Times New Roman,serif" font-size="14.00">van braun</text>
</g>
<!-- Entity32&#45;&gt;Entity30 -->
<g id="edge12" class="edge verb">
<title>Entity32&#45;&gt;Entity30</title>
<path fill="none" stroke="black" d="M1621.63,-2276.85C1696.81,-2234.21 1913.72,-2111.18 2002.11,-2061.04"/>
<polygon fill="black" stroke="black" points="2004.03,-2063.98 2011,-2056 2000.57,-2057.89 2004.03,-2063.98"/>
<text text-anchor="start" x="1748.87" y="-2172.75" font-family="Times New Roman,serif" font-size="14.00">worked for</text>
</g>
<!-- Entity32&#45;&gt;Entity76 -->
<g id="edge48" class="edge verb">
<title>Entity32&#45;&gt;Entity76</title>
<path fill="none" stroke="black" d="M1630.53,-2279.77C1704.19,-2254.72 1875.46,-2196.49 1964.15,-2166.34"/>
<polygon fill="black" stroke="black" points="1965.43,-2169.6 1973.77,-2163.07 1963.18,-2162.98 1965.43,-2169.6"/>
<text text-anchor="start" x="1741.34" y="-2226.85" font-family="Times New Roman,serif" font-size="14.00">worked at</text>
</g>
<!-- Entity29 -->
<g id="node17" class="node entity">
<title>Entity29</title>
<ellipse fill="none" stroke="black" cx="5735.39" cy="-2073.8" rx="37.89" ry="18"/>
<text text-anchor="start" x="5714.39" y="-2070.1" font-family="Times New Roman,serif" font-size="14.00">hunt oil</text>
</g>
<!-- Entity36 -->
<g id="node18" class="node entity">
<title>Entity36</title>
<ellipse fill="none" stroke="black" cx="5670.57" cy="-1799.38" rx="77.99" ry="18"/>
<text text-anchor="start" x="5618.57" y="-1795.68" font-family="Times New Roman,serif" font-size="14.00">dwight eisenhower</text>
</g>
<!-- Entity29&#45;&gt;Entity36 -->
<g id="edge13" class="edge verb">
<title>Entity29&#45;&gt;Entity36</title>
<path fill="none" stroke="black" d="M5731.14,-2055.8C5720.11,-2009.08 5690.5,-1883.74 5677.2,-1827.44"/>
<polygon fill="black" stroke="black" points="5680.55,-1826.38 5674.84,-1817.45 5673.74,-1827.99 5680.55,-1826.38"/>
<text text-anchor="start" x="5664.17" y="-1945.42" font-family="Times New Roman,serif" font-size="14.00">funded</text>
</g>
<!-- Entity36&#45;&gt;Entity66 -->
<g id="edge34" class="edge verb">
<title>Entity36&#45;&gt;Entity66</title>
<path fill="none" stroke="black" d="M5689.01,-1781.54C5708.1,-1763.07 5737.99,-1734.16 5758.76,-1714.06"/>
<polygon fill="black" stroke="black" points="5761.21,-1716.57 5765.96,-1707.1 5756.34,-1711.53 5761.21,-1716.57"/>
<text text-anchor="start" x="5704.89" y="-1751.6" font-family="Times New Roman,serif" font-size="14.00">is a</text>
</g>
<!-- Entity11 -->
<g id="node19" class="node entity">
<title>Entity11</title>
<ellipse fill="none" stroke="black" cx="5545.92" cy="-1274.34" rx="56.59" ry="18"/>
<text text-anchor="start" x="5510.42" y="-1270.64" font-family="Times New Roman,serif" font-size="14.00">harry truman</text>
</g>
<!-- Entity11&#45;&gt;Entity66 -->
<g id="edge14" class="edge verb">
<title>Entity11&#45;&gt;Entity66</title>
<path fill="none" stroke="black" d="M5556.07,-1292.26C5593.43,-1358.17 5723.33,-1587.38 5767.45,-1665.23"/>
<polygon fill="black" stroke="black" points="5764.42,-1666.98 5772.39,-1673.95 5770.51,-1663.53 5764.42,-1666.98"/>
<text text-anchor="start" x="5645.76" y="-1482.54" font-family="Times New Roman,serif" font-size="14.00">isa</text>
</g>
<!-- Entity69 -->
<g id="node24" class="node entity">
<title>Entity69</title>
<ellipse fill="none" stroke="black" cx="5489.15" cy="-1166.28" rx="55.79" ry="18"/>
<text text-anchor="start" x="5454.15" y="-1162.58" font-family="Times New Roman,serif" font-size="14.00">freemasonry</text>
</g>
<!-- Entity11&#45;&gt;Entity69 -->
<g id="edge17" class="edge verb">
<title>Entity11&#45;&gt;Entity69</title>
<path fill="none" stroke="black" d="M5536.54,-1256.5C5527.51,-1239.29 5513.71,-1213.02 5503.33,-1193.26"/>
<polygon fill="black" stroke="black" points="5506.29,-1191.37 5498.54,-1184.15 5500.09,-1194.63 5506.29,-1191.37"/>
<text text-anchor="start" x="5458.93" y="-1228.68" font-family="Times New Roman,serif" font-size="14.00">member of</text>
</g>
<!-- Entity63 -->
<g id="node21" class="node entity">
<title>Entity63</title>
<ellipse fill="none" stroke="black" cx="6286.18" cy="-2761.13" rx="53.89" ry="18"/>
<text text-anchor="start" x="6252.68" y="-2757.43" font-family="Times New Roman,serif" font-size="14.00">edgar casey</text>
</g>
<!-- Entity59 -->
<g id="node22" class="node entity">
<title>Entity59</title>
<ellipse fill="none" stroke="black" cx="6103.81" cy="-2224.4" rx="71.49" ry="18"/>
<text text-anchor="start" x="6056.81" y="-2220.7" font-family="Times New Roman,serif" font-size="14.00">woodrow wilson</text>
</g>
<!-- Entity63&#45;&gt;Entity59 -->
<g id="edge15" class="edge verb">
<title>Entity63&#45;&gt;Entity59</title>
<path fill="none" stroke="black" d="M6280.01,-2742.96C6253.08,-2663.72 6145.81,-2348 6113.24,-2252.14"/>
<polygon fill="black" stroke="black" points="6116.52,-2250.9 6109.99,-2242.56 6109.89,-2253.15 6116.52,-2250.9"/>
<text text-anchor="start" x="6154.62" y="-2501.35" font-family="Times New Roman,serif" font-size="14.00">advises</text>
</g>
<!-- Entity59&#45;&gt;Entity66 -->
<g id="edge30" class="edge verb">
<title>Entity59&#45;&gt;Entity66</title>
<path fill="none" stroke="black" d="M6092.93,-2206.36C6045.2,-2127.23 5854.26,-1810.72 5797.95,-1717.38"/>
<polygon fill="black" stroke="black" points="5800.8,-1715.32 5792.64,-1708.57 5794.81,-1718.94 5800.8,-1715.32"/>
<text text-anchor="start" x="5929.44" y="-1965.67" font-family="Times New Roman,serif" font-size="14.00">isa</text>
</g>
<!-- Entity92 -->
<g id="node50" class="node entity">
<title>Entity92</title>
<ellipse fill="none" stroke="black" cx="6560.55" cy="-2652.77" rx="71.49" ry="18"/>
<text text-anchor="start" x="6513.55" y="-2649.07" font-family="Times New Roman,serif" font-size="14.00">leauge of nations</text>
</g>
<!-- Entity59&#45;&gt;Entity92 -->
<g id="edge54" class="edge verb">
<title>Entity59&#45;&gt;Entity92</title>
<path fill="none" stroke="black" d="M6122.57,-2241.99C6194.28,-2309.25 6451.26,-2550.27 6534.39,-2628.24"/>
<polygon fill="black" stroke="black" points="6532.2,-2630.98 6541.89,-2635.27 6536.99,-2625.87 6532.2,-2630.98"/>
<text text-anchor="start" x="6287.48" y="-2438.92" font-family="Times New Roman,serif" font-size="14.00">created</text>
</g>
<!-- Entity18 -->
<g id="node26" class="node entity">
<title>Entity18</title>
<ellipse fill="none" stroke="black" cx="6134.55" cy="-1801.83" rx="35.19" ry="18"/>
<text text-anchor="start" x="6115.55" y="-1798.13" font-family="Times New Roman,serif" font-size="14.00">obama</text>
</g>
<!-- Entity18&#45;&gt;Entity66 -->
<g id="edge21" class="edge verb">
<title>Entity18&#45;&gt;Entity66</title>
<path fill="none" stroke="black" d="M6104.52,-1792.41C6040.28,-1772.27 5889.72,-1725.05 5819.51,-1703.03"/>
<polygon fill="black" stroke="black" points="5820.35,-1699.62 5809.76,-1699.97 5818.25,-1706.3 5820.35,-1699.62"/>
<text text-anchor="start" x="5946.01" y="-1751.52" font-family="Times New Roman,serif" font-size="14.00">isa</text>
</g>
<!-- Entity12 -->
<g id="node27" class="node entity">
<title>Entity12</title>
<ellipse fill="none" stroke="black" cx="6104.98" cy="-2007.43" rx="58.49" ry="18"/>
<text text-anchor="start" x="6067.98" y="-2003.73" font-family="Times New Roman,serif" font-size="14.00">richard nixon</text>
</g>
<!-- Entity12&#45;&gt;Entity66 -->
<g id="edge22" class="edge verb">
<title>Entity12&#45;&gt;Entity66</title>
<path fill="none" stroke="black" d="M6087.17,-1989.98C6032.55,-1936.49 5867.4,-1774.74 5805.77,-1714.38"/>
<polygon fill="black" stroke="black" points="5808.04,-1711.71 5798.45,-1707.21 5803.15,-1716.71 5808.04,-1711.71"/>
<text text-anchor="start" x="5930.47" y="-1855.98" font-family="Times New Roman,serif" font-size="14.00">isa</text>
</g>
<!-- Entity24 -->
<g id="node29" class="node entity">
<title>Entity24</title>
<ellipse fill="none" stroke="black" cx="3804.97" cy="-1633.95" rx="63.89" ry="18"/>
<text text-anchor="start" x="3763.97" y="-1630.25" font-family="Times New Roman,serif" font-size="14.00">robert bigelow</text>
</g>
<!-- Entity24&#45;&gt;Entity7 -->
<g id="edge25" class="edge verb">
<title>Entity24&#45;&gt;Entity7</title>
<path fill="none" stroke="black" d="M3787.57,-1616.61C3769.76,-1598.85 3741.9,-1571.07 3721.72,-1550.95"/>
<polygon fill="black" stroke="black" points="3723.95,-1548.24 3714.39,-1543.65 3719,-1553.19 3723.95,-1548.24"/>
<text text-anchor="start" x="3722.64" y="-1587.58" font-family="Times New Roman,serif" font-size="14.00">funds</text>
</g>
<!-- Entity24&#45;&gt;Entity67 -->
<g id="edge45" class="edge verb">
<title>Entity24&#45;&gt;Entity67</title>
<path fill="none" stroke="black" d="M3868.4,-1631.32C3948.2,-1628.02 4085.57,-1622.32 4174.88,-1618.62"/>
<polygon fill="black" stroke="black" points="4175.13,-1622.12 4184.98,-1618.2 4174.84,-1615.12 4175.13,-1622.12"/>
<text text-anchor="start" x="3957.64" y="-1628.77" font-family="Times New Roman,serif" font-size="14.00">investigates</text>
</g>
<!-- Entity44 -->
<g id="node30" class="node entity">
<title>Entity44</title>
<ellipse fill="none" stroke="black" cx="7057.34" cy="-1128.57" rx="58.49" ry="18"/>
<text text-anchor="start" x="7020.34" y="-1124.87" font-family="Times New Roman,serif" font-size="14.00">steve bannon</text>
</g>
<!-- Entity44&#45;&gt;Entity15 -->
<g id="edge28" class="edge verb">
<title>Entity44&#45;&gt;Entity15</title>
<path fill="none" stroke="black" d="M7015.52,-1141.16C6888.24,-1185.49 6506.7,-1332.94 6380.83,-1386.41"/>
<polygon fill="black" stroke="black" points="6379.33,-1383.25 6371.52,-1390.4 6382.09,-1389.68 6379.33,-1383.25"/>
<text text-anchor="start" x="6643.17" y="-1267.58" font-family="Times New Roman,serif" font-size="14.00">promoted</text>
</g>
<!-- Entity44&#45;&gt;Entity15 -->
<g id="edge64" class="edge verb">
<title>Entity44&#45;&gt;Entity15</title>
<path fill="none" stroke="black" d="M7026.21,-1143.83C6914.38,-1192.15 6532.29,-1340.06 6392.13,-1389.62"/>
<polygon fill="black" stroke="black" points="6390.74,-1386.4 6382.46,-1393.01 6393.06,-1393 6390.74,-1386.4"/>
<text text-anchor="start" x="6709.17" y="-1270.52" font-family="Times New Roman,serif" font-size="14.00">advises</text>
</g>
<!-- Entity83 -->
<g id="node40" class="node entity">
<title>Entity83</title>
<ellipse fill="none" stroke="black" cx="7407.47" cy="-551.46" rx="61.99" ry="18"/>
<text text-anchor="start" x="7367.97" y="-547.76" font-family="Times New Roman,serif" font-size="14.00">breitbart news</text>
</g>
<!-- Entity44&#45;&gt;Entity83 -->
<g id="edge46" class="edge verb">
<title>Entity44&#45;&gt;Entity83</title>
<path fill="none" stroke="black" d="M7068.2,-1110.67C7118.74,-1027.37 7330.94,-677.61 7391.36,-578.02"/>
<polygon fill="black" stroke="black" points="7394.37,-579.81 7396.56,-569.45 7388.38,-576.18 7394.37,-579.81"/>
<text text-anchor="start" x="7188.78" y="-848.15" font-family="Times New Roman,serif" font-size="14.00">created</text>
</g>
<!-- Entity89 -->
<g id="node49" class="node entity">
<title>Entity89</title>
<ellipse fill="none" stroke="black" cx="7424.12" cy="-1399.92" rx="35.19" ry="18"/>
<text text-anchor="start" x="7405.12" y="-1396.22" font-family="Times New Roman,serif" font-size="14.00">gurgev</text>
</g>
<!-- Entity44&#45;&gt;Entity89 -->
<g id="edge53" class="edge verb">
<title>Entity44&#45;&gt;Entity89</title>
<path fill="none" stroke="black" d="M7080.01,-1145.34C7143.81,-1192.54 7324.88,-1326.5 7395.45,-1378.72"/>
<polygon fill="black" stroke="black" points="7393.76,-1381.82 7403.88,-1384.95 7397.93,-1376.19 7393.76,-1381.82"/>
<text text-anchor="start" x="7196.73" y="-1265.83" font-family="Times New Roman,serif" font-size="14.00">studied</text>
</g>
<!-- Entity91 -->
<g id="node51" class="node entity">
<title>Entity91</title>
<ellipse fill="none" stroke="black" cx="7513.09" cy="-1224.63" rx="38.19" ry="18"/>
<text text-anchor="start" x="7491.59" y="-1220.93" font-family="Times New Roman,serif" font-size="14.00">us navy</text>
</g>
<!-- Entity44&#45;&gt;Entity91 -->
<g id="edge55" class="edge verb">
<title>Entity44&#45;&gt;Entity91</title>
<path fill="none" stroke="black" d="M7105.68,-1138.76C7194.29,-1157.43 7381.51,-1196.9 7467.8,-1215.08"/>
<polygon fill="black" stroke="black" points="7467.3,-1218.55 7477.81,-1217.19 7468.74,-1211.7 7467.3,-1218.55"/>
<text text-anchor="start" x="7225.74" y="-1180.72" font-family="Times New Roman,serif" font-size="14.00">member of</text>
</g>
<!-- Entity94 -->
<g id="node53" class="node entity">
<title>Entity94</title>
<ellipse fill="none" stroke="black" cx="7515.56" cy="-889.73" rx="53.09" ry="18"/>
<text text-anchor="start" x="7482.56" y="-886.03" font-family="Times New Roman,serif" font-size="14.00">biosphere 2</text>
</g>
<!-- Entity44&#45;&gt;Entity94 -->
<g id="edge57" class="edge verb">
<title>Entity44&#45;&gt;Entity94</title>
<path fill="none" stroke="black" d="M7087.4,-1112.9C7167.98,-1070.9 7388.65,-955.88 7477.63,-909.5"/>
<polygon fill="black" stroke="black" points="7479.32,-912.57 7486.57,-904.84 7476.08,-906.36 7479.32,-912.57"/>
<text text-anchor="start" x="7241.52" y="-1015" font-family="Times New Roman,serif" font-size="14.00">created</text>
</g>
<!-- Entity107 -->
<g id="node58" class="node entity">
<title>Entity107</title>
<ellipse fill="none" stroke="black" cx="7120.65" cy="-1020.6" rx="77.19" ry="18"/>
<text text-anchor="start" x="7069.15" y="-1016.9" font-family="Times New Roman,serif" font-size="14.00">hollywood movies</text>
</g>
<!-- Entity44&#45;&gt;Entity107 -->
<g id="edge61" class="edge verb">
<title>Entity44&#45;&gt;Entity107</title>
<path fill="none" stroke="black" d="M7067.79,-1110.74C7077.92,-1093.47 7093.4,-1067.06 7105,-1047.29"/>
<polygon fill="black" stroke="black" points="7108.14,-1048.85 7110.18,-1038.45 7102.1,-1045.31 7108.14,-1048.85"/>
<text text-anchor="start" x="7031.4" y="-1082.81" font-family="Times New Roman,serif" font-size="14.00">produced</text>
</g>
<!-- Entity111 -->
<g id="node59" class="node entity">
<title>Entity111</title>
<ellipse fill="none" stroke="black" cx="7634.53" cy="-1079.13" rx="64.99" ry="18"/>
<text text-anchor="start" x="7592.53" y="-1075.43" font-family="Times New Roman,serif" font-size="14.00">goldman sachs</text>
</g>
<!-- Entity44&#45;&gt;Entity111 -->
<g id="edge66" class="edge verb">
<title>Entity44&#45;&gt;Entity111</title>
<path fill="none" stroke="black" d="M7113.73,-1123.74C7219.06,-1114.72 7445.5,-1095.32 7562.01,-1085.34"/>
<polygon fill="black" stroke="black" points="7562.59,-1088.81 7572.25,-1084.47 7561.99,-1081.83 7562.59,-1088.81"/>
<text text-anchor="start" x="7274.87" y="-1108.34" font-family="Times New Roman,serif" font-size="14.00">worked for</text>
</g>
<!-- Entity33 -->
<g id="node32" class="node entity">
<title>Entity33</title>
<ellipse fill="none" stroke="black" cx="2460.16" cy="-2257.95" rx="57.69" ry="18"/>
<text text-anchor="start" x="2423.66" y="-2254.25" font-family="Times New Roman,serif" font-size="14.00">michael pane</text>
</g>
<!-- Entity33&#45;&gt;Entity30 -->
<g id="edge47" class="edge verb">
<title>Entity33&#45;&gt;Entity30</title>
<path fill="none" stroke="black" d="M2430.3,-2242.4C2356.35,-2203.91 2164.63,-2104.12 2080.67,-2060.42"/>
<polygon fill="black" stroke="black" points="2082.18,-2057.26 2071.69,-2055.74 2078.95,-2063.47 2082.18,-2057.26"/>
<text text-anchor="start" x="2192.48" y="-2155.21" font-family="Times New Roman,serif" font-size="14.00">worked for</text>
</g>
<!-- Entity33&#45;&gt;Entity72 -->
<g id="edge31" class="edge verb">
<title>Entity33&#45;&gt;Entity72</title>
<path fill="none" stroke="black" d="M2473.89,-2240.36C2521.16,-2179.81 2677.29,-1979.81 2733.03,-1908.42"/>
<polygon fill="black" stroke="black" points="2735.92,-1910.4 2739.31,-1900.37 2730.4,-1906.1 2735.92,-1910.4"/>
<text text-anchor="start" x="2547.46" y="-2078.19" font-family="Times New Roman,serif" font-size="14.00">worked at</text>
</g>
<!-- Entity45 -->
<g id="node33" class="node entity">
<title>Entity45</title>
<ellipse fill="none" stroke="black" cx="5934.01" cy="-1212.52" rx="67.69" ry="18"/>
<text text-anchor="start" x="5890.01" y="-1208.82" font-family="Times New Roman,serif" font-size="14.00">abraham lincoln</text>
</g>
<!-- Entity45&#45;&gt;Entity66 -->
<g id="edge32" class="edge verb">
<title>Entity45&#45;&gt;Entity66</title>
<path fill="none" stroke="black" d="M5928.25,-1230.71C5905.1,-1303.75 5818.79,-1576.04 5790.96,-1663.85"/>
<polygon fill="black" stroke="black" points="5787.62,-1662.8 5787.94,-1673.39 5794.29,-1664.92 5787.62,-1662.8"/>
<text text-anchor="start" x="5843.6" y="-1451.08" font-family="Times New Roman,serif" font-size="14.00">isa</text>
</g>
<!-- Entity38 -->
<g id="node34" class="node entity">
<title>Entity38</title>
<ellipse fill="none" stroke="black" cx="5701.22" cy="-632.27" rx="90.98" ry="18"/>
<text text-anchor="start" x="5639.22" y="-628.57" font-family="Times New Roman,serif" font-size="14.00">emma hardinge&#45;britten</text>
</g>
<!-- Entity38&#45;&gt;Entity45 -->
<g id="edge33" class="edge verb">
<title>Entity38&#45;&gt;Entity45</title>
<path fill="none" stroke="black" d="M5708.45,-650.27C5741.95,-733.77 5882.28,-1083.57 5922.93,-1184.9"/>
<polygon fill="black" stroke="black" points="5919.79,-1186.47 5926.76,-1194.44 5926.28,-1183.86 5919.79,-1186.47"/>
<text text-anchor="start" x="5716.69" y="-921.39" font-family="Times New Roman,serif" font-size="14.00">spokesperson for</text>
</g>
<!-- Entity79 -->
<g id="node38" class="node entity">
<title>Entity79</title>
<ellipse fill="none" stroke="black" cx="5728.09" cy="-524.33" rx="39.79" ry="18"/>
<text text-anchor="start" x="5705.59" y="-520.63" font-family="Times New Roman,serif" font-size="14.00">medium</text>
</g>
<!-- Entity38&#45;&gt;Entity79 -->
<g id="edge38" class="edge verb">
<title>Entity38&#45;&gt;Entity79</title>
<path fill="none" stroke="black" d="M5705.78,-613.96C5710,-597.03 5716.32,-571.63 5721.16,-552.19"/>
<polygon fill="black" stroke="black" points="5724.58,-552.92 5723.6,-542.37 5717.79,-551.23 5724.58,-552.92"/>
<text text-anchor="start" x="5697.47" y="-586.87" font-family="Times New Roman,serif" font-size="14.00">isa</text>
</g>
<!-- Entity86 -->
<g id="node48" class="node entity">
<title>Entity86</title>
<ellipse fill="none" stroke="black" cx="5049.26" cy="-674.44" rx="85.29" ry="18"/>
<text text-anchor="start" x="4991.76" y="-670.74" font-family="Times New Roman,serif" font-size="14.00">theosophical society</text>
</g>
<!-- Entity38&#45;&gt;Entity86 -->
<g id="edge65" class="edge verb">
<title>Entity38&#45;&gt;Entity86</title>
<path fill="none" stroke="black" d="M5614.65,-637.87C5491.47,-645.84 5266.65,-660.38 5140.8,-668.52"/>
<polygon fill="black" stroke="black" points="5140.55,-665.03 5130.8,-669.17 5141,-672.01 5140.55,-665.03"/>
<text text-anchor="start" x="5336.72" y="-656.99" font-family="Times New Roman,serif" font-size="14.00">created</text>
</g>
<!-- Entity99 -->
<g id="node54" class="node entity">
<title>Entity99</title>
<ellipse fill="none" stroke="black" cx="5869.34" cy="-17.9" rx="55.79" ry="18"/>
<text text-anchor="start" x="5834.34" y="-14.2" font-family="Times New Roman,serif" font-size="14.00">orphic circle</text>
</g>
<!-- Entity38&#45;&gt;Entity99 -->
<g id="edge58" class="edge verb">
<title>Entity38&#45;&gt;Entity99</title>
<path fill="none" stroke="black" d="M5706.16,-614.21C5729.94,-527.31 5832.65,-151.96 5861.67,-45.91"/>
<polygon fill="black" stroke="black" points="5865.13,-46.53 5864.4,-35.96 5858.38,-44.68 5865.13,-46.53"/>
<text text-anchor="start" x="5722.92" y="-333.86" font-family="Times New Roman,serif" font-size="14.00">member of</text>
</g>
<!-- Entity42 -->
<g id="node36" class="node entity">
<title>Entity42</title>
<ellipse fill="none" stroke="black" cx="4252.94" cy="-1252.66" rx="53.89" ry="18"/>
<text text-anchor="start" x="4219.44" y="-1248.96" font-family="Times New Roman,serif" font-size="14.00">black magic</text>
</g>
<!-- Entity81 -->
<g id="node37" class="node entity">
<title>Entity81</title>
<ellipse fill="none" stroke="black" cx="4340.66" cy="-1364.64" rx="28.7" ry="18"/>
<text text-anchor="start" x="4326.66" y="-1360.94" font-family="Times New Roman,serif" font-size="14.00">x left</text>
</g>
<!-- Entity42&#45;&gt;Entity81 -->
<g id="edge37" class="edge verb">
<title>Entity42&#45;&gt;Entity81</title>
<path fill="none" stroke="black" d="M4266.64,-1270.16C4281.45,-1289.05 4305.14,-1319.29 4321.72,-1340.45"/>
<polygon fill="black" stroke="black" points="4318.98,-1342.64 4327.9,-1348.36 4324.49,-1338.32 4318.98,-1342.64"/>
<text text-anchor="start" x="4233.18" y="-1309.11" font-family="Times New Roman,serif" font-size="14.00">member of</text>
</g>
<!-- Entity47 -->
<g id="node39" class="node entity">
<title>Entity47</title>
<ellipse fill="none" stroke="black" cx="7462.75" cy="-443.5" rx="69.59" ry="18"/>
<text text-anchor="start" x="7417.25" y="-439.8" font-family="Times New Roman,serif" font-size="14.00">andrew breitbart</text>
</g>
<!-- Entity47&#45;&gt;Entity83 -->
<g id="edge39" class="edge verb">
<title>Entity47&#45;&gt;Entity83</title>
<path fill="none" stroke="black" d="M7453.38,-461.81C7444.59,-478.98 7431.34,-504.85 7421.33,-524.4"/>
<polygon fill="black" stroke="black" points="7418.15,-522.92 7416.71,-533.42 7424.38,-526.11 7418.15,-522.92"/>
<text text-anchor="start" x="7396.35" y="-496.91" font-family="Times New Roman,serif" font-size="14.00">created</text>
</g>
<!-- Entity35 -->
<g id="node42" class="node entity">
<title>Entity35</title>
<ellipse fill="none" stroke="black" cx="3497.94" cy="-1993.66" rx="39.79" ry="18"/>
<text text-anchor="start" x="3475.44" y="-1989.96" font-family="Times New Roman,serif" font-size="14.00">crowley</text>
</g>
<!-- Entity80 -->
<g id="node43" class="node entity">
<title>Entity80</title>
<ellipse fill="none" stroke="black" cx="3585.66" cy="-2105.64" rx="38.99" ry="18"/>
<text text-anchor="start" x="3563.66" y="-2101.94" font-family="Times New Roman,serif" font-size="14.00">x magic</text>
</g>
<!-- Entity35&#45;&gt;Entity80 -->
<g id="edge41" class="edge verb">
<title>Entity35&#45;&gt;Entity80</title>
<path fill="none" stroke="black" d="M3511.26,-2010.67C3525.82,-2029.25 3549.28,-2059.2 3565.96,-2080.49"/>
<polygon fill="black" stroke="black" points="3563.29,-2082.76 3572.21,-2088.47 3568.8,-2078.44 3563.29,-2082.76"/>
<text text-anchor="start" x="3477.61" y="-2049.38" font-family="Times New Roman,serif" font-size="14.00">member of</text>
</g>
<!-- Entity19 -->
<g id="node44" class="node entity">
<title>Entity19</title>
<ellipse fill="none" stroke="black" cx="5403.53" cy="-1523.94" rx="31.4" ry="18"/>
<text text-anchor="start" x="5387.53" y="-1520.24" font-family="Times New Roman,serif" font-size="14.00">carter</text>
</g>
<!-- Entity19&#45;&gt;Entity66 -->
<g id="edge44" class="edge verb">
<title>Entity19&#45;&gt;Entity66</title>
<path fill="none" stroke="black" d="M5428.38,-1534.92C5494.05,-1563.95 5672.34,-1642.76 5747.79,-1676.11"/>
<polygon fill="black" stroke="black" points="5746.74,-1679.47 5757.31,-1680.32 5749.58,-1673.07 5746.74,-1679.47"/>
<text text-anchor="start" x="5572.08" y="-1609.31" font-family="Times New Roman,serif" font-size="14.00">isa</text>
</g>
<!-- Entity19&#45;&gt;Entity90 -->
<g id="edge56" class="edge verb">
<title>Entity19&#45;&gt;Entity90</title>
<path fill="none" stroke="black" d="M5380.39,-1511.62C5328.55,-1484.02 5203.11,-1417.23 5145.13,-1386.37"/>
<polygon fill="black" stroke="black" points="5146.57,-1383.17 5136.1,-1381.56 5143.28,-1389.35 5146.57,-1383.17"/>
<text text-anchor="start" x="5207.76" y="-1452.79" font-family="Times New Roman,serif" font-size="14.00">witnessed</text>
</g>
<!-- Entity27 -->
<g id="node45" class="node entity">
<title>Entity27</title>
<ellipse fill="none" stroke="black" cx="36.69" cy="-2491.43" rx="36.29" ry="18"/>
<text text-anchor="start" x="16.69" y="-2487.73" font-family="Times New Roman,serif" font-size="14.00">oswald</text>
</g>
<!-- Entity34 -->
<g id="node46" class="node entity">
<title>Entity34</title>
<ellipse fill="none" stroke="black" cx="466.2" cy="-2377.35" rx="59.29" ry="18"/>
<text text-anchor="start" x="428.7" y="-2373.65" font-family="Times New Roman,serif" font-size="14.00">guy bannister</text>
</g>
<!-- Entity27&#45;&gt;Entity34 -->
<g id="edge50" class="edge verb">
<title>Entity27&#45;&gt;Entity34</title>
<path fill="none" stroke="black" d="M68.98,-2482.86C142.13,-2463.43 321.16,-2415.88 411.78,-2391.81"/>
<polygon fill="black" stroke="black" points="412.82,-2395.15 421.58,-2389.2 411.02,-2388.39 412.82,-2395.15"/>
<text text-anchor="start" x="177.38" y="-2441.13" font-family="Times New Roman,serif" font-size="14.00">worked for</text>
</g>
<!-- Entity34&#45;&gt;Entity75 -->
<g id="edge51" class="edge verb">
<title>Entity34&#45;&gt;Entity75</title>
<path fill="none" stroke="black" d="M510.91,-2365.4C604.22,-2340.46 818.72,-2283.12 911.38,-2258.35"/>
<polygon fill="black" stroke="black" points="912.52,-2261.67 921.28,-2255.71 910.71,-2254.91 912.52,-2261.67"/>
<text text-anchor="start" x="650.14" y="-2315.68" font-family="Times New Roman,serif" font-size="14.00">member of</text>
</g>
<!-- Entity64 -->
<g id="node47" class="node entity">
<title>Entity64</title>
<ellipse fill="none" stroke="black" cx="4986.03" cy="-566.38" rx="73.39" ry="18"/>
<text text-anchor="start" x="4937.53" y="-562.68" font-family="Times New Roman,serif" font-size="14.00">madam blavatsky</text>
</g>
<!-- Entity64&#45;&gt;Entity86 -->
<g id="edge52" class="edge verb">
<title>Entity64&#45;&gt;Entity86</title>
<path fill="none" stroke="black" d="M4996.47,-584.23C5006.59,-601.51 5022.05,-627.94 5033.63,-647.73"/>
<polygon fill="black" stroke="black" points="5030.73,-649.71 5038.8,-656.57 5036.78,-646.17 5030.73,-649.71"/>
<text text-anchor="start" x="4974.05" y="-619.78" font-family="Times New Roman,serif" font-size="14.00">created</text>
</g>
<!-- Entity60 -->
<g id="node56" class="node entity">
<title>Entity60</title>
<ellipse fill="none" stroke="black" cx="4508.63" cy="-693.79" rx="58.49" ry="18"/>
<text text-anchor="start" x="4471.63" y="-690.09" font-family="Times New Roman,serif" font-size="14.00">rudolf steiner</text>
</g>
<!-- Entity60&#45;&gt;Entity86 -->
<g id="edge63" class="edge verb">
<title>Entity60&#45;&gt;Entity86</title>
<path fill="none" stroke="black" d="M4566.75,-691.71C4659.7,-688.38 4842.75,-681.83 4954.73,-677.82"/>
<polygon fill="black" stroke="black" points="4955.13,-681.31 4965,-677.46 4954.88,-674.32 4955.13,-681.31"/>
<text text-anchor="start" x="4694.74" y="-688.57" font-family="Times New Roman,serif" font-size="14.00">memberr of</text>
</g>
<!-- Entity93 -->
<g id="node57" class="node entity">
<title>Entity93</title>
<ellipse fill="none" stroke="black" cx="4388.62" cy="-585.75" rx="102.08" ry="18"/>
<text text-anchor="start" x="4318.12" y="-582.05" font-family="Times New Roman,serif" font-size="14.00">anthroposophical society</text>
</g>
<!-- Entity60&#45;&gt;Entity93 -->
<g id="edge60" class="edge verb">
<title>Entity60&#45;&gt;Entity93</title>
<path fill="none" stroke="black" d="M4489.62,-676.67C4469.75,-658.79 4438.4,-630.57 4415.9,-610.31"/>
<polygon fill="black" stroke="black" points="4418.12,-607.6 4408.34,-603.51 4413.43,-612.8 4418.12,-607.6"/>
<text text-anchor="start" x="4411.76" y="-647.29" font-family="Times New Roman,serif" font-size="14.00">created</text>
</g>
<!-- Entity109 -->
<g id="node60" class="node entity">
<title>Entity109</title>
<ellipse fill="none" stroke="black" cx="3731.94" cy="-1252.66" rx="27" ry="18"/>
<text text-anchor="start" x="3728.44" y="-1248.96" font-family="Times New Roman,serif" font-size="14.00">s</text>
</g>
<!-- Entity112 -->
<g id="node61" class="node entity">
<title>Entity112</title>
<ellipse fill="none" stroke="black" cx="3819.66" cy="-1364.64" rx="27" ry="18"/>
<text text-anchor="start" x="3815.66" y="-1360.94" font-family="Times New Roman,serif" font-size="14.00">o</text>
</g>
<!-- Entity109&#45;&gt;Entity112 -->
<g id="edge67" class="edge verb">
<title>Entity109&#45;&gt;Entity112</title>
<path fill="none" stroke="black" d="M3744.51,-1268.7C3759.23,-1287.5 3783.76,-1318.82 3800.78,-1340.53"/>
<polygon fill="black" stroke="black" points="3798.19,-1342.91 3807.11,-1348.62 3803.7,-1338.59 3798.19,-1342.91"/>
<text text-anchor="start" x="3765.64" y="-1308.42" font-family="Times New Roman,serif" font-size="14.00">v</text>
</g>
</g>
</svg>
