<?xml version="1.0" encoding="UTF-8" standalone="no"?>
<?xml-stylesheet href="./styles.css" type="text/css"?>
<!DOCTYPE svg PUBLIC "-//W3C//DTD SVG 1.1//EN"
 "http://www.w3.org/Graphics/SVG/1.1/DTD/svg11.dtd">
<!-- Generated by graphviz version 2.47.3 (20210619.1520)
 -->
<!-- Title: G Pages: 1 -->
<svg width="7505pt" height="3839pt"
 viewBox="0.00 0.00 7505.00 3839.00" xmlns="http://www.w3.org/2000/svg" xmlns:xlink="http://www.w3.org/1999/xlink">
<g id="graph0" class="graph" transform="scale(1 1) rotate(0) translate(4 3835)">
<title>G</title>
<polygon fill="white" stroke="transparent" points="-4,4 -4,-3835 7501,-3835 7501,4 -4,4"/>
<!-- Entity113 -->
<g id="node1" class="node entity">
<title>Entity113</title>
<ellipse fill="none" stroke="black" cx="4295.16" cy="-508.58" rx="41.69" ry="18"/>
<text text-anchor="start" x="4271.16" y="-504.88" font-family="Times New Roman,serif" font-size="14.00">uri geller</text>
</g>
<!-- Entity124 -->
<g id="node2" class="node entity">
<title>Entity124</title>
<ellipse fill="none" stroke="black" cx="4243.28" cy="-782.39" rx="38.19" ry="18"/>
<text text-anchor="start" x="4221.78" y="-778.69" font-family="Times New Roman,serif" font-size="14.00">the nine</text>
</g>
<!-- Entity113&#45;&gt;Entity124 -->
<g id="edge1" class="edge verb">
<title>Entity113&#45;&gt;Entity124</title>
<path fill="none" stroke="black" d="M4291.75,-526.54C4282.92,-573.15 4259.23,-698.22 4248.58,-754.4"/>
<polygon fill="black" stroke="black" points="4245.12,-753.88 4246.69,-764.36 4252,-755.19 4245.12,-753.88"/>
<text text-anchor="start" x="4166.17" y="-644.27" font-family="Times New Roman,serif" font-size="14.00">claiemd to channel</text>
</g>
<!-- Entity181 -->
<g id="node11" class="node entity">
<title>Entity181</title>
<ellipse fill="none" stroke="black" cx="4439.88" cy="-227.52" rx="94.48" ry="18"/>
<text text-anchor="start" x="4375.38" y="-223.82" font-family="Times New Roman,serif" font-size="14.00">egyptian gods in a ship</text>
</g>
<!-- Entity124&#45;&gt;Entity181 -->
<g id="edge10" class="edge verb">
<title>Entity124&#45;&gt;Entity181</title>
<path fill="none" stroke="black" d="M4249.6,-764.56C4278.16,-683.94 4395.35,-353.22 4430.12,-255.09"/>
<polygon fill="black" stroke="black" points="4433.45,-256.16 4433.49,-245.57 4426.85,-253.82 4433.45,-256.16"/>
<text text-anchor="start" x="4339.86" y="-513.63" font-family="Times New Roman,serif" font-size="14.00">claimed to channel</text>
</g>
<!-- Entity112 -->
<g id="node3" class="node entity">
<title>Entity112</title>
<ellipse fill="none" stroke="black" cx="4092.31" cy="-1267.92" rx="56.59" ry="18"/>
<text text-anchor="start" x="4056.81" y="-1264.22" font-family="Times New Roman,serif" font-size="14.00">arthur young</text>
</g>
<!-- Entity112&#45;&gt;Entity124 -->
<g id="edge7" class="edge verb">
<title>Entity112&#45;&gt;Entity124</title>
<path fill="none" stroke="black" d="M4097.96,-1249.77C4120.87,-1176.08 4207.04,-898.93 4234.69,-810.02"/>
<polygon fill="black" stroke="black" points="4238.06,-810.96 4237.69,-800.37 4231.38,-808.88 4238.06,-810.96"/>
<text text-anchor="start" x="4104.32" y="-1033.7" font-family="Times New Roman,serif" font-size="14.00">member&#45;of</text>
</g>
<!-- Entity178 -->
<g id="node4" class="node entity">
<title>Entity178</title>
<ellipse fill="none" stroke="black" cx="4765.02" cy="-1577.98" rx="53.89" ry="18"/>
<text text-anchor="start" x="4731.52" y="-1574.28" font-family="Times New Roman,serif" font-size="14.00">bell aviation</text>
</g>
<!-- Entity112&#45;&gt;Entity178 -->
<g id="edge2" class="edge verb">
<title>Entity112&#45;&gt;Entity178</title>
<path fill="none" stroke="black" d="M4124.76,-1282.87C4235.9,-1334.1 4601.18,-1502.46 4724.18,-1559.16"/>
<polygon fill="black" stroke="black" points="4722.74,-1562.35 4733.29,-1563.36 4725.67,-1555.99 4722.74,-1562.35"/>
<text text-anchor="start" x="4383.47" y="-1424.81" font-family="Times New Roman,serif" font-size="14.00">created</text>
</g>
<!-- Entity11 -->
<g id="node6" class="node entity">
<title>Entity11</title>
<ellipse fill="none" stroke="black" cx="3257.27" cy="-1135.34" rx="77.19" ry="18"/>
<text text-anchor="start" x="3205.77" y="-1131.64" font-family="Times New Roman,serif" font-size="14.00">psi&#45;consciousness</text>
</g>
<!-- Entity112&#45;&gt;Entity11 -->
<g id="edge9" class="edge verb">
<title>Entity112&#45;&gt;Entity11</title>
<path fill="none" stroke="black" d="M4041.65,-1259.87C3899.83,-1237.36 3498.37,-1173.62 3331.47,-1147.12"/>
<polygon fill="black" stroke="black" points="3331.73,-1143.62 3321.3,-1145.51 3330.63,-1150.53 3331.73,-1143.62"/>
<text text-anchor="start" x="3645.56" y="-1207.3" font-family="Times New Roman,serif" font-size="14.00">studied</text>
</g>
<!-- Entity115 -->
<g id="node5" class="node entity">
<title>Entity115</title>
<ellipse fill="none" stroke="black" cx="3804.51" cy="-763.84" rx="68.49" ry="18"/>
<text text-anchor="start" x="3760.01" y="-760.14" font-family="Times New Roman,serif" font-size="14.00">jeffrey mishlove</text>
</g>
<!-- Entity115&#45;&gt;Entity113 -->
<g id="edge5" class="edge verb">
<title>Entity115&#45;&gt;Entity113</title>
<path fill="none" stroke="black" d="M3835.58,-747.67C3922.44,-702.49 4167.47,-575.01 4259.57,-527.09"/>
<polygon fill="black" stroke="black" points="4261.25,-530.16 4268.51,-522.44 4258.02,-523.95 4261.25,-530.16"/>
<text text-anchor="start" x="3992.57" y="-641.18" font-family="Times New Roman,serif" font-size="14.00">promoted</text>
</g>
<!-- Entity115&#45;&gt;Entity11 -->
<g id="edge3" class="edge verb">
<title>Entity115&#45;&gt;Entity11</title>
<path fill="none" stroke="black" d="M3774.83,-780.13C3679.26,-839.33 3380.51,-1042.09 3286.12,-1111.74"/>
<polygon fill="black" stroke="black" points="3283.82,-1109.08 3277.89,-1117.86 3288,-1114.7 3283.82,-1109.08"/>
<text text-anchor="start" x="3489.48" y="-949.74" font-family="Times New Roman,serif" font-size="14.00">studied</text>
</g>
<!-- Entity115&#45;&gt;Entity11 -->
<g id="edge25" class="edge verb">
<title>Entity115&#45;&gt;Entity11</title>
<path fill="none" stroke="black" d="M3783.99,-781.24C3702.83,-842.28 3403.78,-1045.58 3296.15,-1113.3"/>
<polygon fill="black" stroke="black" points="3294.16,-1110.41 3287.54,-1118.68 3297.87,-1116.35 3294.16,-1110.41"/>
<text text-anchor="start" x="3540.07" y="-951.07" font-family="Times New Roman,serif" font-size="14.00">investigates</text>
</g>
<!-- Entity114 -->
<g id="node7" class="node entity">
<title>Entity114</title>
<ellipse fill="none" stroke="black" cx="4040.6" cy="-335.47" rx="74.99" ry="18"/>
<text text-anchor="start" x="3991.1" y="-331.77" font-family="Times New Roman,serif" font-size="14.00">gene roddenberry</text>
</g>
<!-- Entity114&#45;&gt;Entity124 -->
<g id="edge4" class="edge verb">
<title>Entity114&#45;&gt;Entity124</title>
<path fill="none" stroke="black" d="M4048.8,-353.54C4080.25,-422.9 4193.35,-672.31 4231,-755.31"/>
<polygon fill="black" stroke="black" points="4227.88,-756.92 4235.2,-764.58 4234.26,-754.03 4227.88,-756.92"/>
<text text-anchor="start" x="4035.9" y="-558.23" font-family="Times New Roman,serif" font-size="14.00">claiemd to channel</text>
</g>
<!-- Entity123 -->
<g id="node8" class="node entity">
<title>Entity123</title>
<ellipse fill="none" stroke="black" cx="4763.98" cy="-335.46" rx="64.19" ry="18"/>
<text text-anchor="start" x="4722.48" y="-331.76" font-family="Times New Roman,serif" font-size="14.00">andre puharich</text>
</g>
<!-- Entity123&#45;&gt;Entity113 -->
<g id="edge6" class="edge verb">
<title>Entity123&#45;&gt;Entity113</title>
<path fill="none" stroke="black" d="M4724.81,-349.92C4637.21,-382.27 4426.1,-460.22 4336.5,-493.31"/>
<polygon fill="black" stroke="black" points="4335.11,-490.09 4326.94,-496.84 4337.54,-496.66 4335.11,-490.09"/>
<text text-anchor="start" x="4470.65" y="-425.42" font-family="Times New Roman,serif" font-size="14.00">sponsored</text>
</g>
<!-- Entity161 -->
<g id="node9" class="node entity">
<title>Entity161</title>
<ellipse fill="none" stroke="black" cx="1406.92" cy="-1960.02" rx="67.69" ry="18"/>
<text text-anchor="start" x="1362.92" y="-1956.32" font-family="Times New Roman,serif" font-size="14.00">abraham lincoln</text>
</g>
<!-- Entity180 -->
<g id="node10" class="node entity">
<title>Entity180</title>
<ellipse fill="none" stroke="black" cx="1033.33" cy="-1614.68" rx="31.4" ry="18"/>
<text text-anchor="start" x="1017.33" y="-1610.98" font-family="Times New Roman,serif" font-size="14.00">potus</text>
</g>
<!-- Entity161&#45;&gt;Entity180 -->
<g id="edge8" class="edge verb">
<title>Entity161&#45;&gt;Entity180</title>
<path fill="none" stroke="black" d="M1388.14,-1942.66C1326.02,-1885.24 1127.22,-1701.47 1057.65,-1637.16"/>
<polygon fill="black" stroke="black" points="1059.92,-1634.49 1050.2,-1630.27 1055.17,-1639.63 1059.92,-1634.49"/>
<text text-anchor="start" x="1206.9" y="-1793.71" font-family="Times New Roman,serif" font-size="14.00">isa</text>
</g>
<!-- Entity116 -->
<g id="node12" class="node entity">
<title>Entity116</title>
<ellipse fill="none" stroke="black" cx="504.35" cy="-1561.69" rx="56.59" ry="18"/>
<text text-anchor="start" x="468.85" y="-1557.99" font-family="Times New Roman,serif" font-size="14.00">harry truman</text>
</g>
<!-- Entity116&#45;&gt;Entity180 -->
<g id="edge12" class="edge verb">
<title>Entity116&#45;&gt;Entity180</title>
<path fill="none" stroke="black" d="M558.47,-1567.11C664.57,-1577.74 897.73,-1601.1 992.29,-1610.57"/>
<polygon fill="black" stroke="black" points="992.02,-1614.06 1002.32,-1611.57 992.72,-1607.09 992.02,-1614.06"/>
<text text-anchor="start" x="759.38" y="-1592.64" font-family="Times New Roman,serif" font-size="14.00">isa</text>
</g>
<!-- Entity179 -->
<g id="node13" class="node entity">
<title>Entity179</title>
<ellipse fill="none" stroke="black" cx="43.36" cy="-1582.26" rx="34.39" ry="18"/>
<text text-anchor="start" x="24.86" y="-1578.56" font-family="Times New Roman,serif" font-size="14.00">mason</text>
</g>
<!-- Entity116&#45;&gt;Entity179 -->
<g id="edge11" class="edge verb">
<title>Entity116&#45;&gt;Entity179</title>
<path fill="none" stroke="black" d="M448.28,-1564.19C355.57,-1568.32 172.19,-1576.51 87.78,-1580.27"/>
<polygon fill="black" stroke="black" points="87.58,-1576.78 77.75,-1580.72 87.9,-1583.77 87.58,-1576.78"/>
<text text-anchor="start" x="252.03" y="-1576.03" font-family="Times New Roman,serif" font-size="14.00">isa</text>
</g>
<!-- Entity125 -->
<g id="node14" class="node entity">
<title>Entity125</title>
<ellipse fill="none" stroke="black" cx="811.04" cy="-1858.25" rx="27" ry="18"/>
<text text-anchor="start" x="803.54" y="-1854.55" font-family="Times New Roman,serif" font-size="14.00">jfk</text>
</g>
<!-- Entity125&#45;&gt;Entity180 -->
<g id="edge13" class="edge verb">
<title>Entity125&#45;&gt;Entity180</title>
<path fill="none" stroke="black" d="M825.29,-1842.65C863.14,-1801.17 966.42,-1688 1011.64,-1638.45"/>
<polygon fill="black" stroke="black" points="1014.47,-1640.54 1018.63,-1630.79 1009.3,-1635.82 1014.47,-1640.54"/>
<text text-anchor="start" x="902.46" y="-1744.35" font-family="Times New Roman,serif" font-size="14.00">isa</text>
</g>
<!-- Entity132 -->
<g id="node15" class="node entity">
<title>Entity132</title>
<ellipse fill="none" stroke="black" cx="1283.16" cy="-1071.89" rx="59.59" ry="18"/>
<text text-anchor="start" x="1245.16" y="-1068.19" font-family="Times New Roman,serif" font-size="14.00">donald trump</text>
</g>
<!-- Entity132&#45;&gt;Entity180 -->
<g id="edge14" class="edge verb">
<title>Entity132&#45;&gt;Entity180</title>
<path fill="none" stroke="black" d="M1274.84,-1089.95C1238.05,-1169.9 1089.7,-1492.22 1045.69,-1587.83"/>
<polygon fill="black" stroke="black" points="1042.43,-1586.56 1041.42,-1597.1 1048.78,-1589.48 1042.43,-1586.56"/>
<text text-anchor="start" x="1144.27" y="-1342.69" font-family="Times New Roman,serif" font-size="14.00">isa</text>
</g>
<!-- Entity154 -->
<g id="node39" class="node entity">
<title>Entity154</title>
<ellipse fill="none" stroke="black" cx="1958.24" cy="-1026.9" rx="50.09" ry="18"/>
<text text-anchor="start" x="1927.74" y="-1023.2" font-family="Times New Roman,serif" font-size="14.00">john trump</text>
</g>
<!-- Entity132&#45;&gt;Entity154 -->
<g id="edge41" class="edge verb">
<title>Entity132&#45;&gt;Entity154</title>
<path fill="none" stroke="black" d="M1341.59,-1068C1468.99,-1059.5 1770.57,-1039.4 1898.84,-1030.86"/>
<polygon fill="black" stroke="black" points="1899.13,-1034.34 1908.87,-1030.19 1898.66,-1027.36 1899.13,-1034.34"/>
<text text-anchor="start" x="1561.22" y="-1053.23" font-family="Times New Roman,serif" font-size="14.00">nephew of</text>
</g>
<!-- Entity126 -->
<g id="node16" class="node entity">
<title>Entity126</title>
<ellipse fill="none" stroke="black" cx="1119.39" cy="-2068.11" rx="58.49" ry="18"/>
<text text-anchor="start" x="1082.39" y="-2064.41" font-family="Times New Roman,serif" font-size="14.00">richard nixon</text>
</g>
<!-- Entity126&#45;&gt;Entity180 -->
<g id="edge15" class="edge verb">
<title>Entity126&#45;&gt;Entity180</title>
<path fill="none" stroke="black" d="M1115.96,-2050.05C1102.71,-1980.24 1054.77,-1727.63 1038.66,-1642.73"/>
<polygon fill="black" stroke="black" points="1042.07,-1641.96 1036.77,-1632.79 1035.2,-1643.26 1042.07,-1641.96"/>
<text text-anchor="start" x="1061.31" y="-1850.19" font-family="Times New Roman,serif" font-size="14.00">isa</text>
</g>
<!-- Entity138 -->
<g id="node17" class="node entity">
<title>Entity138</title>
<ellipse fill="none" stroke="black" cx="752.94" cy="-2019.2" rx="63.89" ry="18"/>
<text text-anchor="start" x="711.94" y="-2015.5" font-family="Times New Roman,serif" font-size="14.00">george w bush</text>
</g>
<!-- Entity138&#45;&gt;Entity180 -->
<g id="edge16" class="edge verb">
<title>Entity138&#45;&gt;Entity180</title>
<path fill="none" stroke="black" d="M765.35,-2001.29C810.16,-1936.65 963.72,-1715.12 1015.85,-1639.9"/>
<polygon fill="black" stroke="black" points="1018.87,-1641.69 1021.69,-1631.48 1013.12,-1637.7 1018.87,-1641.69"/>
<text text-anchor="start" x="874.6" y="-1824.4" font-family="Times New Roman,serif" font-size="14.00">isa</text>
</g>
<!-- Entity131 -->
<g id="node18" class="node entity">
<title>Entity131</title>
<ellipse fill="none" stroke="black" cx="999.33" cy="-1722.68" rx="68.49" ry="18"/>
<text text-anchor="start" x="954.83" y="-1718.98" font-family="Times New Roman,serif" font-size="14.00">george hw bush</text>
</g>
<!-- Entity131&#45;&gt;Entity180 -->
<g id="edge17" class="edge verb">
<title>Entity131&#45;&gt;Entity180</title>
<path fill="none" stroke="black" d="M1005.1,-1704.36C1010.46,-1687.34 1018.51,-1661.78 1024.64,-1642.29"/>
<polygon fill="black" stroke="black" points="1027.99,-1643.32 1027.65,-1632.73 1021.31,-1641.22 1027.99,-1643.32"/>
<text text-anchor="start" x="998.87" y="-1677.12" font-family="Times New Roman,serif" font-size="14.00">isa</text>
</g>
<!-- Entity127 -->
<g id="node19" class="node entity">
<title>Entity127</title>
<ellipse fill="none" stroke="black" cx="1547.44" cy="-1460.37" rx="31.4" ry="18"/>
<text text-anchor="start" x="1531.44" y="-1456.67" font-family="Times New Roman,serif" font-size="14.00">carter</text>
</g>
<!-- Entity127&#45;&gt;Entity180 -->
<g id="edge18" class="edge verb">
<title>Entity127&#45;&gt;Entity180</title>
<path fill="none" stroke="black" d="M1519.44,-1468.78C1432.82,-1494.78 1169.2,-1573.9 1070.86,-1603.42"/>
<polygon fill="black" stroke="black" points="1069.62,-1600.13 1061.05,-1606.36 1071.63,-1606.84 1069.62,-1600.13"/>
<text text-anchor="start" x="1279.15" y="-1524.9" font-family="Times New Roman,serif" font-size="14.00">isa</text>
</g>
<!-- Entity184 -->
<g id="node23" class="node entity">
<title>Entity184</title>
<ellipse fill="none" stroke="black" cx="2031.28" cy="-1311.25" rx="27" ry="18"/>
<text text-anchor="start" x="2021.78" y="-1307.55" font-family="Times New Roman,serif" font-size="14.00">ufo</text>
</g>
<!-- Entity127&#45;&gt;Entity184 -->
<g id="edge22" class="edge verb">
<title>Entity127&#45;&gt;Entity184</title>
<path fill="none" stroke="black" d="M1575.19,-1451.82C1658.42,-1426.17 1905.77,-1349.93 1996.99,-1321.82"/>
<polygon fill="black" stroke="black" points="1998.05,-1325.15 2006.58,-1318.86 1995.99,-1318.46 1998.05,-1325.15"/>
<text text-anchor="start" x="1731.09" y="-1390.62" font-family="Times New Roman,serif" font-size="14.00">witnessed</text>
</g>
<!-- Entity130 -->
<g id="node20" class="node entity">
<title>Entity130</title>
<ellipse fill="none" stroke="black" cx="688.52" cy="-1669.65" rx="35.19" ry="18"/>
<text text-anchor="start" x="669.52" y="-1665.95" font-family="Times New Roman,serif" font-size="14.00">obama</text>
</g>
<!-- Entity130&#45;&gt;Entity180 -->
<g id="edge19" class="edge verb">
<title>Entity130&#45;&gt;Entity180</title>
<path fill="none" stroke="black" d="M722.21,-1664.28C786.04,-1654.11 924.34,-1632.06 992.99,-1621.11"/>
<polygon fill="black" stroke="black" points="993.67,-1624.55 1002.99,-1619.52 992.57,-1617.64 993.67,-1624.55"/>
<text text-anchor="start" x="841.6" y="-1646.5" font-family="Times New Roman,serif" font-size="14.00">isa</text>
</g>
<!-- Entity128 -->
<g id="node21" class="node entity">
<title>Entity128</title>
<ellipse fill="none" stroke="black" cx="2486.85" cy="-1160.11" rx="27" ry="18"/>
<text text-anchor="start" x="2478.85" y="-1156.41" font-family="Times New Roman,serif" font-size="14.00">cia</text>
</g>
<!-- Entity128&#45;&gt;Entity11 -->
<g id="edge20" class="edge verb">
<title>Entity128&#45;&gt;Entity11</title>
<path fill="none" stroke="black" d="M2514.27,-1159.22C2619.19,-1155.85 2997.99,-1143.68 3170.55,-1138.13"/>
<polygon fill="black" stroke="black" points="3170.73,-1141.63 3180.61,-1137.81 3170.51,-1134.63 3170.73,-1141.63"/>
<text text-anchor="start" x="2778.41" y="-1152.48" font-family="Times New Roman,serif" font-size="14.00">investigates</text>
</g>
<!-- Entity128&#45;&gt;Entity184 -->
<g id="edge26" class="edge verb">
<title>Entity128&#45;&gt;Entity184</title>
<path fill="none" stroke="black" d="M2462.35,-1168.23C2386.18,-1193.51 2153.28,-1270.77 2065.36,-1299.94"/>
<polygon fill="black" stroke="black" points="2064.01,-1296.7 2055.62,-1303.18 2066.21,-1303.35 2064.01,-1296.7"/>
<text text-anchor="start" x="2199.86" y="-1237.89" font-family="Times New Roman,serif" font-size="14.00">investigates</text>
</g>
<!-- Entity134 -->
<g id="node22" class="node entity">
<title>Entity134</title>
<ellipse fill="none" stroke="black" cx="3352.45" cy="-1027.27" rx="63.89" ry="18"/>
<text text-anchor="start" x="3311.45" y="-1023.57" font-family="Times New Roman,serif" font-size="14.00">robert bigelow</text>
</g>
<!-- Entity134&#45;&gt;Entity115 -->
<g id="edge23" class="edge verb">
<title>Entity134&#45;&gt;Entity115</title>
<path fill="none" stroke="black" d="M3380.39,-1010.99C3458.47,-965.49 3679.05,-836.95 3767.32,-785.51"/>
<polygon fill="black" stroke="black" points="3769.3,-788.4 3776.18,-780.34 3765.78,-782.36 3769.3,-788.4"/>
<text text-anchor="start" x="3541.85" y="-902.05" font-family="Times New Roman,serif" font-size="14.00">funds</text>
</g>
<!-- Entity134&#45;&gt;Entity11 -->
<g id="edge21" class="edge verb">
<title>Entity134&#45;&gt;Entity11</title>
<path fill="none" stroke="black" d="M3336.73,-1045.12C3321.16,-1062.8 3297.17,-1090.04 3279.62,-1109.96"/>
<polygon fill="black" stroke="black" points="3276.99,-1107.65 3273.01,-1117.47 3282.25,-1112.28 3276.99,-1107.65"/>
<text text-anchor="start" x="3244.18" y="-1081.34" font-family="Times New Roman,serif" font-size="14.00">investigates</text>
</g>
<!-- Entity139 -->
<g id="node24" class="node entity">
<title>Entity139</title>
<ellipse fill="none" stroke="black" cx="1341.45" cy="-1568.8" rx="71.49" ry="18"/>
<text text-anchor="start" x="1294.45" y="-1565.1" font-family="Times New Roman,serif" font-size="14.00">woodrow wilson</text>
</g>
<!-- Entity139&#45;&gt;Entity180 -->
<g id="edge24" class="edge verb">
<title>Entity139&#45;&gt;Entity180</title>
<path fill="none" stroke="black" d="M1279.84,-1577.97C1218.59,-1587.09 1126.41,-1600.82 1073.85,-1608.65"/>
<polygon fill="black" stroke="black" points="1073.27,-1605.2 1063.89,-1610.13 1074.3,-1612.12 1073.27,-1605.2"/>
<text text-anchor="start" x="1160.85" y="-1597.11" font-family="Times New Roman,serif" font-size="14.00">isa</text>
</g>
<!-- Entity189 -->
<g id="node28" class="node entity">
<title>Entity189</title>
<ellipse fill="none" stroke="black" cx="867.22" cy="-1210.93" rx="71.49" ry="18"/>
<text text-anchor="start" x="820.22" y="-1207.23" font-family="Times New Roman,serif" font-size="14.00">leauge of nations</text>
</g>
<!-- Entity139&#45;&gt;Entity189 -->
<g id="edge29" class="edge verb">
<title>Entity139&#45;&gt;Entity189</title>
<path fill="none" stroke="black" d="M1318.58,-1551.54C1240.79,-1492.84 986.4,-1300.87 897.9,-1234.08"/>
<polygon fill="black" stroke="black" points="899.96,-1231.25 889.87,-1228.02 895.74,-1236.84 899.96,-1231.25"/>
<text text-anchor="start" x="1067.24" y="-1396.61" font-family="Times New Roman,serif" font-size="14.00">created</text>
</g>
<!-- Entity145 -->
<g id="node25" class="node entity">
<title>Entity145</title>
<ellipse fill="none" stroke="black" cx="1281.09" cy="-1460.72" rx="53.89" ry="18"/>
<text text-anchor="start" x="1247.59" y="-1457.02" font-family="Times New Roman,serif" font-size="14.00">edgar casey</text>
</g>
<!-- Entity145&#45;&gt;Entity139 -->
<g id="edge27" class="edge verb">
<title>Entity145&#45;&gt;Entity139</title>
<path fill="none" stroke="black" d="M1291.06,-1478.57C1300.71,-1495.85 1315.48,-1522.29 1326.53,-1542.08"/>
<polygon fill="black" stroke="black" points="1323.54,-1543.9 1331.47,-1550.93 1329.65,-1540.49 1323.54,-1543.9"/>
<text text-anchor="start" x="1266.8" y="-1499.12" font-family="Times New Roman,serif" font-size="14.00">advises</text>
</g>
<!-- Entity137 -->
<g id="node26" class="node entity">
<title>Entity137</title>
<ellipse fill="none" stroke="black" cx="2825.28" cy="-3178.32" rx="58.49" ry="18"/>
<text text-anchor="start" x="2788.28" y="-3174.62" font-family="Times New Roman,serif" font-size="14.00">rudolf steiner</text>
</g>
<!-- Entity269 -->
<g id="node27" class="node entity">
<title>Entity269</title>
<ellipse fill="none" stroke="black" cx="2971.23" cy="-3813.46" rx="102.08" ry="18"/>
<text text-anchor="start" x="2900.73" y="-3809.76" font-family="Times New Roman,serif" font-size="14.00">anthroposophical society</text>
</g>
<!-- Entity137&#45;&gt;Entity269 -->
<g id="edge28" class="edge verb">
<title>Entity137&#45;&gt;Entity269</title>
<path fill="none" stroke="black" d="M2829.41,-3196.31C2849.82,-3285.1 2939.83,-3676.81 2964.79,-3785.44"/>
<polygon fill="black" stroke="black" points="2961.41,-3786.37 2967.06,-3795.33 2968.24,-3784.8 2961.41,-3786.37"/>
<text text-anchor="start" x="2856.1" y="-3494.68" font-family="Times New Roman,serif" font-size="14.00">created</text>
</g>
<!-- Entity188 -->
<g id="node30" class="node entity">
<title>Entity188</title>
<ellipse fill="none" stroke="black" cx="2650.43" cy="-2542.54" rx="85.29" ry="18"/>
<text text-anchor="start" x="2592.93" y="-2538.84" font-family="Times New Roman,serif" font-size="14.00">theosophical society</text>
</g>
<!-- Entity137&#45;&gt;Entity188 -->
<g id="edge31" class="edge verb">
<title>Entity137&#45;&gt;Entity188</title>
<path fill="none" stroke="black" d="M2820.33,-3160.32C2795.88,-3071.43 2688.05,-2679.33 2658.14,-2570.59"/>
<polygon fill="black" stroke="black" points="2661.44,-2569.41 2655.42,-2560.69 2654.69,-2571.26 2661.44,-2569.41"/>
<text text-anchor="start" x="2673.23" y="-2869.26" font-family="Times New Roman,serif" font-size="14.00">memberr of</text>
</g>
<!-- Entity142 -->
<g id="node29" class="node entity">
<title>Entity142</title>
<ellipse fill="none" stroke="black" cx="2746.09" cy="-2650.62" rx="73.39" ry="18"/>
<text text-anchor="start" x="2697.59" y="-2646.92" font-family="Times New Roman,serif" font-size="14.00">madam blavatsky</text>
</g>
<!-- Entity142&#45;&gt;Entity188 -->
<g id="edge30" class="edge verb">
<title>Entity142&#45;&gt;Entity188</title>
<path fill="none" stroke="black" d="M2730.29,-2632.77C2714.64,-2615.09 2690.53,-2587.85 2672.89,-2567.93"/>
<polygon fill="black" stroke="black" points="2675.49,-2565.58 2666.25,-2560.42 2670.25,-2570.22 2675.49,-2565.58"/>
<text text-anchor="start" x="2660.59" y="-2604.15" font-family="Times New Roman,serif" font-size="14.00">created</text>
</g>
<!-- Entity140 -->
<g id="node31" class="node entity">
<title>Entity140</title>
<ellipse fill="none" stroke="black" cx="809.39" cy="-577.13" rx="58.49" ry="18"/>
<text text-anchor="start" x="772.39" y="-573.43" font-family="Times New Roman,serif" font-size="14.00">steve bannon</text>
</g>
<!-- Entity140&#45;&gt;Entity132 -->
<g id="edge33" class="edge verb">
<title>Entity140&#45;&gt;Entity132</title>
<path fill="none" stroke="black" d="M822.75,-594.82C887.31,-669.94 1166.45,-961.77 1255.69,-1047.89"/>
<polygon fill="black" stroke="black" points="1253.35,-1050.5 1262.99,-1054.89 1258.19,-1045.44 1253.35,-1050.5"/>
<text text-anchor="start" x="984.22" y="-825.15" font-family="Times New Roman,serif" font-size="14.00">promoted</text>
</g>
<!-- Entity140&#45;&gt;Entity132 -->
<g id="edge40" class="edge verb">
<title>Entity140&#45;&gt;Entity132</title>
<path fill="none" stroke="black" d="M829.71,-594.27C907.56,-668.11 1185.67,-958.42 1263.09,-1046.49"/>
<polygon fill="black" stroke="black" points="1260.54,-1048.89 1269.74,-1054.13 1265.82,-1044.29 1260.54,-1048.89"/>
<text text-anchor="start" x="1004.4" y="-809.18" font-family="Times New Roman,serif" font-size="14.00">advises</text>
</g>
<!-- Entity265 -->
<g id="node32" class="node entity">
<title>Entity265</title>
<ellipse fill="none" stroke="black" cx="571.14" cy="-204.05" rx="35.19" ry="18"/>
<text text-anchor="start" x="552.14" y="-200.35" font-family="Times New Roman,serif" font-size="14.00">gurgev</text>
</g>
<!-- Entity140&#45;&gt;Entity265 -->
<g id="edge32" class="edge verb">
<title>Entity140&#45;&gt;Entity265</title>
<path fill="none" stroke="black" d="M797.9,-559.13C759.21,-498.54 633.51,-301.72 587.88,-230.27"/>
<polygon fill="black" stroke="black" points="590.57,-227.98 582.24,-221.43 584.67,-231.74 590.57,-227.98"/>
<text text-anchor="start" x="651.89" y="-398.5" font-family="Times New Roman,serif" font-size="14.00">studied</text>
</g>
<!-- Entity270 -->
<g id="node33" class="node entity">
<title>Entity270</title>
<ellipse fill="none" stroke="black" cx="355.88" cy="-485.62" rx="38.19" ry="18"/>
<text text-anchor="start" x="334.38" y="-481.92" font-family="Times New Roman,serif" font-size="14.00">us navy</text>
</g>
<!-- Entity140&#45;&gt;Entity270 -->
<g id="edge34" class="edge verb">
<title>Entity140&#45;&gt;Entity270</title>
<path fill="none" stroke="black" d="M760.43,-567.25C671.95,-549.39 486.7,-512.01 401.07,-494.74"/>
<polygon fill="black" stroke="black" points="401.62,-491.28 391.13,-492.73 400.24,-498.14 401.62,-491.28"/>
<text text-anchor="start" x="519.75" y="-534.79" font-family="Times New Roman,serif" font-size="14.00">member of</text>
</g>
<!-- Entity267 -->
<g id="node34" class="node entity">
<title>Entity267</title>
<ellipse fill="none" stroke="black" cx="606.67" cy="-72.92" rx="53.09" ry="18"/>
<text text-anchor="start" x="573.67" y="-69.22" font-family="Times New Roman,serif" font-size="14.00">biosphere 2</text>
</g>
<!-- Entity140&#45;&gt;Entity267 -->
<g id="edge35" class="edge verb">
<title>Entity140&#45;&gt;Entity267</title>
<path fill="none" stroke="black" d="M802.18,-559.18C771.82,-483.68 654.37,-191.54 617.68,-100.3"/>
<polygon fill="black" stroke="black" points="620.88,-98.88 613.91,-90.91 614.39,-101.49 620.88,-98.88"/>
<text text-anchor="start" x="668.93" y="-333.54" font-family="Times New Roman,serif" font-size="14.00">created</text>
</g>
<!-- Entity268 -->
<g id="node35" class="node entity">
<title>Entity268</title>
<ellipse fill="none" stroke="black" cx="701.85" cy="-469.08" rx="64.99" ry="18"/>
<text text-anchor="start" x="659.85" y="-465.38" font-family="Times New Roman,serif" font-size="14.00">goldman sachs</text>
</g>
<!-- Entity140&#45;&gt;Entity268 -->
<g id="edge36" class="edge verb">
<title>Entity140&#45;&gt;Entity268</title>
<path fill="none" stroke="black" d="M792.12,-559.77C774.43,-541.99 746.76,-514.2 726.72,-494.06"/>
<polygon fill="black" stroke="black" points="728.98,-491.37 719.45,-486.76 724.02,-496.31 728.98,-491.37"/>
<text text-anchor="start" x="696.42" y="-530.71" font-family="Times New Roman,serif" font-size="14.00">worked for</text>
</g>
<!-- Entity191 -->
<g id="node36" class="node entity">
<title>Entity191</title>
<ellipse fill="none" stroke="black" cx="966.63" cy="-125.95" rx="61.99" ry="18"/>
<text text-anchor="start" x="927.13" y="-122.25" font-family="Times New Roman,serif" font-size="14.00">breitbart news</text>
</g>
<!-- Entity140&#45;&gt;Entity191 -->
<g id="edge37" class="edge verb">
<title>Entity140&#45;&gt;Entity191</title>
<path fill="none" stroke="black" d="M815.66,-559.16C839.89,-489.62 927.65,-237.82 957,-153.61"/>
<polygon fill="black" stroke="black" points="960.37,-154.56 960.36,-143.97 953.76,-152.26 960.37,-154.56"/>
<text text-anchor="start" x="845.33" y="-360.18" font-family="Times New Roman,serif" font-size="14.00">created</text>
</g>
<!-- Entity266 -->
<g id="node37" class="node entity">
<title>Entity266</title>
<ellipse fill="none" stroke="black" cx="237.71" cy="-312.06" rx="77.19" ry="18"/>
<text text-anchor="start" x="186.21" y="-308.36" font-family="Times New Roman,serif" font-size="14.00">hollywood movies</text>
</g>
<!-- Entity140&#45;&gt;Entity266 -->
<g id="edge38" class="edge verb">
<title>Entity140&#45;&gt;Entity266</title>
<path fill="none" stroke="black" d="M777.02,-562.11C680.17,-517.21 392.53,-383.85 281.83,-332.52"/>
<polygon fill="black" stroke="black" points="283.15,-329.27 272.61,-328.24 280.21,-335.62 283.15,-329.27"/>
<text text-anchor="start" x="474.42" y="-451.12" font-family="Times New Roman,serif" font-size="14.00">produced</text>
</g>
<!-- Entity151 -->
<g id="node38" class="node entity">
<title>Entity151</title>
<ellipse fill="none" stroke="black" cx="978.35" cy="-18.04" rx="69.59" ry="18"/>
<text text-anchor="start" x="932.85" y="-14.34" font-family="Times New Roman,serif" font-size="14.00">andrew breitbart</text>
</g>
<!-- Entity151&#45;&gt;Entity191 -->
<g id="edge39" class="edge verb">
<title>Entity151&#45;&gt;Entity191</title>
<path fill="none" stroke="black" d="M976.36,-36.34C974.53,-53.19 971.79,-78.42 969.69,-97.83"/>
<polygon fill="black" stroke="black" points="966.19,-97.6 968.59,-107.92 973.15,-98.35 966.19,-97.6"/>
<text text-anchor="start" x="932.02" y="-70.88" font-family="Times New Roman,serif" font-size="14.00">created</text>
</g>
<!-- Entity154&#45;&gt;Entity128 -->
<g id="edge42" class="edge verb">
<title>Entity154&#45;&gt;Entity128</title>
<path fill="none" stroke="black" d="M1999.28,-1037.24C2099.82,-1062.57 2357.08,-1127.4 2451.45,-1151.19"/>
<polygon fill="black" stroke="black" points="2450.81,-1154.63 2461.36,-1153.68 2452.52,-1147.85 2450.81,-1154.63"/>
<text text-anchor="start" x="2164.37" y="-1098.01" font-family="Times New Roman,serif" font-size="14.00">member of</text>
</g>
<!-- Entity271 -->
<g id="node40" class="node entity">
<title>Entity271</title>
<ellipse fill="none" stroke="black" cx="2099.73" cy="-591.6" rx="50.89" ry="18"/>
<text text-anchor="start" x="2068.73" y="-587.9" font-family="Times New Roman,serif" font-size="14.00">nikola tesla</text>
</g>
<!-- Entity154&#45;&gt;Entity271 -->
<g id="edge43" class="edge verb">
<title>Entity154&#45;&gt;Entity271</title>
<path fill="none" stroke="black" d="M1964.14,-1008.75C1986.21,-940.85 2063.99,-701.54 2090.67,-619.47"/>
<polygon fill="black" stroke="black" points="2094.04,-620.42 2093.8,-609.82 2087.38,-618.25 2094.04,-620.42"/>
<text text-anchor="start" x="1986.4" y="-817.91" font-family="Times New Roman,serif" font-size="14.00">studied</text>
</g>
<!-- Entity152 -->
<g id="node41" class="node entity">
<title>Entity152</title>
<ellipse fill="none" stroke="black" cx="2036.54" cy="-2164.24" rx="90.98" ry="18"/>
<text text-anchor="start" x="1974.54" y="-2160.54" font-family="Times New Roman,serif" font-size="14.00">emma hardinge&#45;britten</text>
</g>
<!-- Entity152&#45;&gt;Entity161 -->
<g id="edge45" class="edge verb">
<title>Entity152&#45;&gt;Entity161</title>
<path fill="none" stroke="black" d="M1988.95,-2148.8C1873.73,-2111.43 1580.38,-2016.28 1459.85,-1977.19"/>
<polygon fill="black" stroke="black" points="1460.7,-1973.78 1450.1,-1974.03 1458.54,-1980.44 1460.7,-1973.78"/>
<text text-anchor="start" x="1625.4" y="-2066.8" font-family="Times New Roman,serif" font-size="14.00">spokesperson for</text>
</g>
<!-- Entity152&#45;&gt;Entity188 -->
<g id="edge44" class="edge verb">
<title>Entity152&#45;&gt;Entity188</title>
<path fill="none" stroke="black" d="M2064.51,-2181.47C2164.19,-2242.91 2502.09,-2451.13 2614.05,-2520.13"/>
<polygon fill="black" stroke="black" points="2612.29,-2523.15 2622.64,-2525.42 2615.96,-2517.2 2612.29,-2523.15"/>
<text text-anchor="start" x="2298.28" y="-2354.6" font-family="Times New Roman,serif" font-size="14.00">created</text>
</g>
<!-- Entity272 -->
<g id="node42" class="node entity">
<title>Entity272</title>
<ellipse fill="none" stroke="black" cx="2093.61" cy="-2272.31" rx="39.79" ry="18"/>
<text text-anchor="start" x="2071.11" y="-2268.61" font-family="Times New Roman,serif" font-size="14.00">medium</text>
</g>
<!-- Entity152&#45;&gt;Entity272 -->
<g id="edge46" class="edge verb">
<title>Entity152&#45;&gt;Entity272</title>
<path fill="none" stroke="black" d="M2046.22,-2182.57C2055.35,-2199.85 2069.14,-2225.96 2079.49,-2245.57"/>
<polygon fill="black" stroke="black" points="2076.5,-2247.39 2084.26,-2254.6 2082.69,-2244.12 2076.5,-2247.39"/>
<text text-anchor="start" x="2046.85" y="-2217.87" font-family="Times New Roman,serif" font-size="14.00">isa</text>
</g>
<!-- Entity192 -->
<g id="node43" class="node entity">
<title>Entity192</title>
<ellipse fill="none" stroke="black" cx="1987.13" cy="-2780.15" rx="55.79" ry="18"/>
<text text-anchor="start" x="1952.13" y="-2776.45" font-family="Times New Roman,serif" font-size="14.00">orphic circle</text>
</g>
<!-- Entity152&#45;&gt;Entity192 -->
<g id="edge47" class="edge verb">
<title>Entity152&#45;&gt;Entity192</title>
<path fill="none" stroke="black" d="M2035.08,-2182.34C2028.1,-2269.46 1997.91,-2645.75 1989.39,-2752.07"/>
<polygon fill="black" stroke="black" points="1985.9,-2751.8 1988.59,-2762.05 1992.87,-2752.36 1985.9,-2751.8"/>
<text text-anchor="start" x="1951.23" y="-2471" font-family="Times New Roman,serif" font-size="14.00">member of</text>
</g>
<!-- Entity160 -->
<g id="node44" class="node entity">
<title>Entity160</title>
<ellipse fill="none" stroke="black" cx="4313.94" cy="-1721.66" rx="53.89" ry="18"/>
<text text-anchor="start" x="4280.44" y="-1717.96" font-family="Times New Roman,serif" font-size="14.00">black magic</text>
</g>
<!-- Entity193 -->
<g id="node45" class="node entity">
<title>Entity193</title>
<ellipse fill="none" stroke="black" cx="4401.66" cy="-1833.64" rx="28.7" ry="18"/>
<text text-anchor="start" x="4387.66" y="-1829.94" font-family="Times New Roman,serif" font-size="14.00">x left</text>
</g>
<!-- Entity160&#45;&gt;Entity193 -->
<g id="edge48" class="edge verb">
<title>Entity160&#45;&gt;Entity193</title>
<path fill="none" stroke="black" d="M4327.64,-1739.16C4342.45,-1758.05 4366.14,-1788.29 4382.72,-1809.45"/>
<polygon fill="black" stroke="black" points="4379.98,-1811.64 4388.9,-1817.36 4385.49,-1807.32 4379.98,-1811.64"/>
<text text-anchor="start" x="4294.18" y="-1778.11" font-family="Times New Roman,serif" font-size="14.00">member of</text>
</g>
<!-- Entity162 -->
<g id="node46" class="node entity">
<title>Entity162</title>
<ellipse fill="none" stroke="black" cx="3731.94" cy="-2005.66" rx="39.79" ry="18"/>
<text text-anchor="start" x="3709.44" y="-2001.96" font-family="Times New Roman,serif" font-size="14.00">crowley</text>
</g>
<!-- Entity194 -->
<g id="node47" class="node entity">
<title>Entity194</title>
<ellipse fill="none" stroke="black" cx="3819.66" cy="-2117.64" rx="38.99" ry="18"/>
<text text-anchor="start" x="3797.66" y="-2113.94" font-family="Times New Roman,serif" font-size="14.00">x magic</text>
</g>
<!-- Entity162&#45;&gt;Entity194 -->
<g id="edge49" class="edge verb">
<title>Entity162&#45;&gt;Entity194</title>
<path fill="none" stroke="black" d="M3745.26,-2022.67C3759.82,-2041.25 3783.28,-2071.2 3799.96,-2092.49"/>
<polygon fill="black" stroke="black" points="3797.29,-2094.76 3806.21,-2100.47 3802.8,-2090.44 3797.29,-2094.76"/>
<text text-anchor="start" x="3711.61" y="-2061.38" font-family="Times New Roman,serif" font-size="14.00">member of</text>
</g>
<!-- Entity163 -->
<g id="node48" class="node entity">
<title>Entity163</title>
<ellipse fill="none" stroke="black" cx="5256.86" cy="-1798.12" rx="57.69" ry="18"/>
<text text-anchor="start" x="5220.36" y="-1794.42" font-family="Times New Roman,serif" font-size="14.00">michael pane</text>
</g>
<!-- Entity163&#45;&gt;Entity178 -->
<g id="edge50" class="edge verb">
<title>Entity163&#45;&gt;Entity178</title>
<path fill="none" stroke="black" d="M5223.83,-1783.33C5136.99,-1744.47 4902.44,-1639.49 4806.63,-1596.61"/>
<polygon fill="black" stroke="black" points="4807.82,-1593.3 4797.27,-1592.41 4804.96,-1599.69 4807.82,-1593.3"/>
<text text-anchor="start" x="4959.23" y="-1693.77" font-family="Times New Roman,serif" font-size="14.00">worked at</text>
</g>
<!-- Entity165 -->
<g id="node49" class="node entity">
<title>Entity165</title>
<ellipse fill="none" stroke="black" cx="5440.34" cy="-1906.25" rx="74.99" ry="18"/>
<text text-anchor="start" x="5390.84" y="-1902.55" font-family="Times New Roman,serif" font-size="14.00">walter dornberger</text>
</g>
<!-- Entity163&#45;&gt;Entity165 -->
<g id="edge51" class="edge verb">
<title>Entity163&#45;&gt;Entity165</title>
<path fill="none" stroke="black" d="M5283.94,-1814.07C5315.41,-1832.62 5367.56,-1863.36 5402.9,-1884.19"/>
<polygon fill="black" stroke="black" points="5401.55,-1887.45 5411.95,-1889.52 5405.11,-1881.42 5401.55,-1887.45"/>
<text text-anchor="start" x="5280.42" y="-1852.93" font-family="Times New Roman,serif" font-size="14.00">worked for</text>
</g>
<!-- Entity165&#45;&gt;Entity178 -->
<g id="edge52" class="edge verb">
<title>Entity165&#45;&gt;Entity178</title>
<path fill="none" stroke="black" d="M5412.61,-1889.49C5308.21,-1833.33 4938.41,-1653.36 4809.62,-1595.75"/>
<polygon fill="black" stroke="black" points="4810.97,-1592.52 4800.41,-1591.66 4808.13,-1598.92 4810.97,-1592.52"/>
<text text-anchor="start" x="5055.12" y="-1731.42" font-family="Times New Roman,serif" font-size="14.00">worked at</text>
</g>
<!-- Entity165&#45;&gt;Entity178 -->
<g id="edge53" class="edge verb">
<title>Entity165&#45;&gt;Entity178</title>
<path fill="none" stroke="black" d="M5401.13,-1890.88C5280.38,-1837.29 4915.48,-1659.9 4800.26,-1598.76"/>
<polygon fill="black" stroke="black" points="4801.61,-1595.51 4791.15,-1593.88 4798.31,-1601.68 4801.61,-1595.51"/>
<text text-anchor="start" x="5021.7" y="-1748.62" font-family="Times New Roman,serif" font-size="14.00">vice&#45;president</text>
</g>
<!-- Entity195 -->
<g id="node50" class="node entity">
<title>Entity195</title>
<ellipse fill="none" stroke="black" cx="5697.07" cy="-2479.39" rx="90.98" ry="18"/>
<text text-anchor="start" x="5635.07" y="-2475.69" font-family="Times New Roman,serif" font-size="14.00">nsdap rocket program</text>
</g>
<!-- Entity165&#45;&gt;Entity195 -->
<g id="edge54" class="edge verb">
<title>Entity165&#45;&gt;Entity195</title>
<path fill="none" stroke="black" d="M5448.45,-1924.35C5485.65,-2007.4 5640.1,-2352.21 5684.87,-2452.14"/>
<polygon fill="black" stroke="black" points="5681.68,-2453.59 5688.96,-2461.29 5688.07,-2450.73 5681.68,-2453.59"/>
<text text-anchor="start" x="5525.66" y="-2192.04" font-family="Times New Roman,serif" font-size="14.00">created</text>
</g>
<!-- Entity177 -->
<g id="node51" class="node entity">
<title>Entity177</title>
<ellipse fill="none" stroke="black" cx="6073.52" cy="-1957.27" rx="32.49" ry="18"/>
<text text-anchor="start" x="6056.52" y="-1953.57" font-family="Times New Roman,serif" font-size="14.00">nsdap</text>
</g>
<!-- Entity165&#45;&gt;Entity177 -->
<g id="edge55" class="edge verb">
<title>Entity165&#45;&gt;Entity177</title>
<path fill="none" stroke="black" d="M5511.43,-1911.98C5643.84,-1922.65 5924.45,-1945.26 6031.14,-1953.86"/>
<polygon fill="black" stroke="black" points="6030.96,-1957.36 6041.21,-1954.67 6031.52,-1950.38 6030.96,-1957.36"/>
<text text-anchor="start" x="5710.29" y="-1936.72" font-family="Times New Roman,serif" font-size="14.00">member of</text>
</g>
<!-- Entity273 -->
<g id="node53" class="node entity">
<title>Entity273</title>
<ellipse fill="none" stroke="black" cx="5905.19" cy="-2238.87" rx="65.79" ry="18"/>
<text text-anchor="start" x="5862.69" y="-2235.17" font-family="Times New Roman,serif" font-size="14.00">x series aircraft</text>
</g>
<!-- Entity165&#45;&gt;Entity273 -->
<g id="edge58" class="edge verb">
<title>Entity165&#45;&gt;Entity273</title>
<path fill="none" stroke="black" d="M5464.35,-1923.43C5541.9,-1978.92 5785.67,-2153.35 5873.37,-2216.1"/>
<polygon fill="black" stroke="black" points="5871.43,-2219.01 5881.6,-2221.99 5875.5,-2213.32 5871.43,-2219.01"/>
<text text-anchor="start" x="5627.86" y="-2073.56" font-family="Times New Roman,serif" font-size="14.00">created</text>
</g>
<!-- Entity102 -->
<g id="node59" class="node entity">
<title>Entity102</title>
<ellipse fill="none" stroke="black" cx="6525.97" cy="-1958.24" rx="38.99" ry="18"/>
<text text-anchor="start" x="6503.97" y="-1954.54" font-family="Times New Roman,serif" font-size="14.00">far right</text>
</g>
<!-- Entity177&#45;&gt;Entity102 -->
<g id="edge63" class="edge verb">
<title>Entity177&#45;&gt;Entity102</title>
<path fill="none" stroke="black" d="M6105.33,-1961.01C6183.28,-1965.03 6384.23,-1965.7 6477.31,-1962.52"/>
<polygon fill="black" stroke="black" points="6477.72,-1966 6487.58,-1962.13 6477.46,-1959.01 6477.72,-1966"/>
<text text-anchor="start" x="6236.32" y="-1965.56" font-family="Times New Roman,serif" font-size="14.00">member a</text>
</g>
<!-- Entity177&#45;&gt;Entity102 -->
<g id="edge67" class="edge verb">
<title>Entity177&#45;&gt;Entity102</title>
<path fill="none" stroke="black" d="M6105.7,-1953.66C6183.96,-1949.98 6384.56,-1950.18 6477.44,-1953.76"/>
<polygon fill="black" stroke="black" points="6477.54,-1957.27 6487.68,-1954.19 6477.84,-1950.28 6477.54,-1957.27"/>
<text text-anchor="start" x="6230.57" y="-1942.51" font-family="Times New Roman,serif" font-size="14.00">member of</text>
</g>
<!-- Entity170 -->
<g id="node52" class="node entity">
<title>Entity170</title>
<ellipse fill="none" stroke="black" cx="5463.51" cy="-2014.17" rx="46.29" ry="18"/>
<text text-anchor="start" x="5436.01" y="-2010.47" font-family="Times New Roman,serif" font-size="14.00">van braun</text>
</g>
<!-- Entity170&#45;&gt;Entity165 -->
<g id="edge56" class="edge verb">
<title>Entity170&#45;&gt;Entity165</title>
<path fill="none" stroke="black" d="M5459.58,-1995.86C5455.94,-1978.94 5450.49,-1953.54 5446.32,-1934.11"/>
<polygon fill="black" stroke="black" points="5449.73,-1933.33 5444.21,-1924.29 5442.89,-1934.8 5449.73,-1933.33"/>
<text text-anchor="start" x="5389.95" y="-1968.78" font-family="Times New Roman,serif" font-size="14.00">worked for</text>
</g>
<!-- Entity170&#45;&gt;Entity195 -->
<g id="edge57" class="edge verb">
<title>Entity170&#45;&gt;Entity195</title>
<path fill="none" stroke="black" d="M5472.38,-2031.83C5507.96,-2102.71 5640.5,-2366.71 5683.51,-2452.37"/>
<polygon fill="black" stroke="black" points="5680.45,-2454.09 5688.07,-2461.45 5686.71,-2450.95 5680.45,-2454.09"/>
<text text-anchor="start" x="5521.94" y="-2245.9" font-family="Times New Roman,serif" font-size="14.00">worked at</text>
</g>
<!-- Entity172 -->
<g id="node54" class="node entity">
<title>Entity172</title>
<ellipse fill="none" stroke="black" cx="6412.54" cy="-2162.96" rx="49.29" ry="18"/>
<text text-anchor="start" x="6382.54" y="-2159.26" font-family="Times New Roman,serif" font-size="14.00">adolf hitler</text>
</g>
<!-- Entity172&#45;&gt;Entity177 -->
<g id="edge59" class="edge verb">
<title>Entity172&#45;&gt;Entity177</title>
<path fill="none" stroke="black" d="M6387.06,-2147.5C6325.87,-2110.38 6170.84,-2016.32 6104.46,-1976.04"/>
<polygon fill="black" stroke="black" points="6106.06,-1972.92 6095.7,-1970.73 6102.43,-1978.91 6106.06,-1972.92"/>
<text text-anchor="start" x="6204.76" y="-2065.57" font-family="Times New Roman,serif" font-size="14.00">created</text>
</g>
<!-- Entity173 -->
<g id="node55" class="node entity">
<title>Entity173</title>
<ellipse fill="none" stroke="black" cx="496.12" cy="-1910.79" rx="77.99" ry="18"/>
<text text-anchor="start" x="444.12" y="-1907.09" font-family="Times New Roman,serif" font-size="14.00">dwight eisenhower</text>
</g>
<!-- Entity173&#45;&gt;Entity180 -->
<g id="edge60" class="edge verb">
<title>Entity173&#45;&gt;Entity180</title>
<path fill="none" stroke="black" d="M526.54,-1894.02C620.63,-1842.16 906.29,-1684.71 1001.83,-1632.05"/>
<polygon fill="black" stroke="black" points="1003.66,-1635.03 1010.73,-1627.14 1000.28,-1628.9 1003.66,-1635.03"/>
<text text-anchor="start" x="745.19" y="-1766.84" font-family="Times New Roman,serif" font-size="14.00">is a</text>
</g>
<!-- Entity174 -->
<g id="node56" class="node entity">
<title>Entity174</title>
<ellipse fill="none" stroke="black" cx="37.47" cy="-2198.66" rx="37.89" ry="18"/>
<text text-anchor="start" x="16.47" y="-2194.96" font-family="Times New Roman,serif" font-size="14.00">hunt oil</text>
</g>
<!-- Entity174&#45;&gt;Entity173 -->
<g id="edge61" class="edge verb">
<title>Entity174&#45;&gt;Entity173</title>
<path fill="none" stroke="black" d="M60.53,-2184.18C135.16,-2137.35 370.47,-1989.66 460.55,-1933.12"/>
<polygon fill="black" stroke="black" points="462.45,-1936.06 469.06,-1927.78 458.73,-1930.13 462.45,-1936.06"/>
<text text-anchor="start" x="220.54" y="-2062.45" font-family="Times New Roman,serif" font-size="14.00">funded</text>
</g>
<!-- Entity175 -->
<g id="node57" class="node entity">
<title>Entity175</title>
<ellipse fill="none" stroke="black" cx="7460.84" cy="-2064.24" rx="36.29" ry="18"/>
<text text-anchor="start" x="7440.84" y="-2060.54" font-family="Times New Roman,serif" font-size="14.00">oswald</text>
</g>
<!-- Entity176 -->
<g id="node58" class="node entity">
<title>Entity176</title>
<ellipse fill="none" stroke="black" cx="7023.74" cy="-2009.22" rx="59.29" ry="18"/>
<text text-anchor="start" x="6986.24" y="-2005.52" font-family="Times New Roman,serif" font-size="14.00">guy bannister</text>
</g>
<!-- Entity175&#45;&gt;Entity176 -->
<g id="edge62" class="edge verb">
<title>Entity175&#45;&gt;Entity176</title>
<path fill="none" stroke="black" d="M7425.44,-2059.79C7352.08,-2050.55 7182.49,-2029.2 7088.83,-2017.41"/>
<polygon fill="black" stroke="black" points="7088.98,-2013.91 7078.62,-2016.13 7088.11,-2020.85 7088.98,-2013.91"/>
<text text-anchor="start" x="7194.14" y="-2042.4" font-family="Times New Roman,serif" font-size="14.00">worked for</text>
</g>
<!-- Entity176&#45;&gt;Entity102 -->
<g id="edge64" class="edge verb">
<title>Entity176&#45;&gt;Entity102</title>
<path fill="none" stroke="black" d="M6973.25,-1999.74C6877.45,-1986.61 6670.45,-1965.43 6575.45,-1959.06"/>
<polygon fill="black" stroke="black" points="6575.45,-1955.56 6565.25,-1958.41 6575,-1962.54 6575.45,-1955.56"/>
<text text-anchor="start" x="6719.35" y="-1968.2" font-family="Times New Roman,serif" font-size="14.00">member a</text>
</g>
<!-- Entity176&#45;&gt;Entity102 -->
<g id="edge66" class="edge verb">
<title>Entity176&#45;&gt;Entity102</title>
<path fill="none" stroke="black" d="M6964.71,-2007.74C6864.3,-2000.55 6662.34,-1979.73 6571.76,-1967.08"/>
<polygon fill="black" stroke="black" points="6572.19,-1963.6 6561.8,-1965.65 6571.2,-1970.53 6572.19,-1963.6"/>
<text text-anchor="start" x="6707.24" y="-1991.21" font-family="Times New Roman,serif" font-size="14.00">member of</text>
</g>
<!-- Entity1 -->
<g id="node60" class="node entity">
<title>Entity1</title>
<ellipse fill="none" stroke="black" cx="3150.94" cy="-2005.66" rx="27" ry="18"/>
<text text-anchor="start" x="3147.44" y="-2001.96" font-family="Times New Roman,serif" font-size="14.00">s</text>
</g>
<!-- Entity2 -->
<g id="node61" class="node entity">
<title>Entity2</title>
<ellipse fill="none" stroke="black" cx="3238.66" cy="-2117.64" rx="27" ry="18"/>
<text text-anchor="start" x="3234.66" y="-2113.94" font-family="Times New Roman,serif" font-size="14.00">o</text>
</g>
<!-- Entity1&#45;&gt;Entity2 -->
<g id="edge65" class="edge verb">
<title>Entity1&#45;&gt;Entity2</title>
<path fill="none" stroke="black" d="M3163.51,-2021.7C3178.23,-2040.5 3202.76,-2071.82 3219.78,-2093.53"/>
<polygon fill="black" stroke="black" points="3217.19,-2095.91 3226.11,-2101.62 3222.7,-2091.59 3217.19,-2095.91"/>
<text text-anchor="start" x="3184.64" y="-2061.42" font-family="Times New Roman,serif" font-size="14.00">v</text>
</g>
</g>
</svg>
