<?xml version="1.0" encoding="UTF-8" standalone="no"?>
<?xml-stylesheet href="./styles.css" type="text/css"?>
<!DOCTYPE svg PUBLIC "-//W3C//DTD SVG 1.1//EN"
 "http://www.w3.org/Graphics/SVG/1.1/DTD/svg11.dtd">
<!-- Generated by graphviz version 2.47.3 (20210619.1520)
 -->
<!-- Title: G Pages: 1 -->
<svg width="7829pt" height="5445pt"
 viewBox="0.00 0.00 7829.00 5445.00" xmlns="http://www.w3.org/2000/svg" xmlns:xlink="http://www.w3.org/1999/xlink">
<g id="graph0" class="graph" transform="scale(1 1) rotate(0) translate(4 5441)">
<title>G</title>
<polygon fill="white" stroke="transparent" points="-4,4 -4,-5441 7825,-5441 7825,4 -4,4"/>
<!-- Entity3 -->
<g id="node1" class="node entity">
<title>Entity3</title>
<ellipse fill="none" stroke="black" cx="5181.2" cy="-3108.07" rx="27" ry="18"/>
<text text-anchor="start" x="5173.7" y="-3104.37" font-family="Times New Roman,serif" font-size="14.00">jfk</text>
</g>
<!-- Entity22 -->
<g id="node2" class="node entity">
<title>Entity22</title>
<ellipse fill="none" stroke="black" cx="4720.73" cy="-3162.95" rx="27" ry="18"/>
<text text-anchor="start" x="4712.73" y="-3159.25" font-family="Times New Roman,serif" font-size="14.00">cia</text>
</g>
<!-- Entity3&#45;&gt;Entity22 -->
<g id="edge1" class="edge verb">
<title>Entity3&#45;&gt;Entity22</title>
<path fill="none" stroke="black" d="M5154.45,-3111.26C5076.17,-3120.59 4847.38,-3147.86 4757.55,-3158.56"/>
<polygon fill="black" stroke="black" points="4757.06,-3155.1 4747.55,-3159.76 4757.89,-3162.05 4757.06,-3155.1"/>
<text text-anchor="start" x="4852" y="-3138.71" font-family="Times New Roman,serif" font-size="14.00">heads (1961&#45;1963)</text>
</g>
<!-- Entity66 -->
<g id="node20" class="node entity">
<title>Entity66</title>
<ellipse fill="none" stroke="black" cx="5662.78" cy="-3021.77" rx="31.4" ry="18"/>
<text text-anchor="start" x="5646.78" y="-3018.07" font-family="Times New Roman,serif" font-size="14.00">potus</text>
</g>
<!-- Entity3&#45;&gt;Entity66 -->
<g id="edge23" class="edge verb">
<title>Entity3&#45;&gt;Entity66</title>
<path fill="none" stroke="black" d="M5207.43,-3103.37C5287.25,-3089.07 5527.55,-3046 5623.04,-3028.89"/>
<polygon fill="black" stroke="black" points="5623.66,-3032.34 5632.88,-3027.13 5622.42,-3025.45 5623.66,-3032.34"/>
<text text-anchor="start" x="5328.23" y="-3069.93" font-family="Times New Roman,serif" font-size="14.00">isa (1961&#45;1963)</text>
</g>
<!-- Entity67 -->
<g id="node25" class="node entity">
<title>Entity67</title>
<ellipse fill="none" stroke="black" cx="3993.58" cy="-3448.17" rx="77.19" ry="18"/>
<text text-anchor="start" x="3942.08" y="-3444.47" font-family="Times New Roman,serif" font-size="14.00">psi&#45;consciousness</text>
</g>
<!-- Entity22&#45;&gt;Entity67 -->
<g id="edge43" class="edge verb">
<title>Entity22&#45;&gt;Entity67</title>
<path fill="none" stroke="black" d="M4697.36,-3172.12C4595.06,-3212.25 4185.47,-3372.9 4042.85,-3428.85"/>
<polygon fill="black" stroke="black" points="4041.48,-3425.62 4033.45,-3432.53 4044.03,-3432.14 4041.48,-3425.62"/>
<text text-anchor="start" x="4306.1" y="-3304.28" font-family="Times New Roman,serif" font-size="14.00">investigates</text>
</g>
<!-- Entity90 -->
<g id="node52" class="node entity">
<title>Entity90</title>
<ellipse fill="none" stroke="black" cx="4969.79" cy="-2922.78" rx="27" ry="18"/>
<text text-anchor="start" x="4960.29" y="-2919.08" font-family="Times New Roman,serif" font-size="14.00">ufo</text>
</g>
<!-- Entity22&#45;&gt;Entity90 -->
<g id="edge62" class="edge verb">
<title>Entity22&#45;&gt;Entity90</title>
<path fill="none" stroke="black" d="M4736.31,-3147.93C4778.76,-3106.99 4896.67,-2993.29 4946.78,-2944.97"/>
<polygon fill="black" stroke="black" points="4949.45,-2947.25 4954.22,-2937.79 4944.59,-2942.22 4949.45,-2947.25"/>
<text text-anchor="start" x="4777.54" y="-3050.25" font-family="Times New Roman,serif" font-size="14.00">investigates</text>
</g>
<!-- Entity14 -->
<g id="node3" class="node entity">
<title>Entity14</title>
<ellipse fill="none" stroke="black" cx="2303.31" cy="-3230.88" rx="74.99" ry="18"/>
<text text-anchor="start" x="2253.81" y="-3227.18" font-family="Times New Roman,serif" font-size="14.00">gene roddenberry</text>
</g>
<!-- Entity8 -->
<g id="node4" class="node entity">
<title>Entity8</title>
<ellipse fill="none" stroke="black" cx="2730.83" cy="-3478.23" rx="38.19" ry="18"/>
<text text-anchor="start" x="2709.33" y="-3474.53" font-family="Times New Roman,serif" font-size="14.00">the nine</text>
</g>
<!-- Entity14&#45;&gt;Entity8 -->
<g id="edge2" class="edge verb">
<title>Entity14&#45;&gt;Entity8</title>
<path fill="none" stroke="black" d="M2332.36,-3247.68C2409.09,-3292.08 2616.81,-3412.26 2697.84,-3459.14"/>
<polygon fill="black" stroke="black" points="2696.22,-3462.25 2706.63,-3464.23 2699.72,-3456.19 2696.22,-3462.25"/>
<text text-anchor="start" x="2411.1" y="-3357.21" font-family="Times New Roman,serif" font-size="14.00">claiemd to channel</text>
</g>
<!-- Entity70 -->
<g id="node23" class="node entity">
<title>Entity70</title>
<ellipse fill="none" stroke="black" cx="2171.48" cy="-3467.31" rx="94.48" ry="18"/>
<text text-anchor="start" x="2106.98" y="-3463.61" font-family="Times New Roman,serif" font-size="14.00">egyptian gods in a ship</text>
</g>
<!-- Entity8&#45;&gt;Entity70 -->
<g id="edge16" class="edge verb">
<title>Entity8&#45;&gt;Entity70</title>
<path fill="none" stroke="black" d="M2692.39,-3477.48C2607.43,-3475.82 2401.31,-3471.79 2275.3,-3469.33"/>
<polygon fill="black" stroke="black" points="2275.31,-3465.83 2265.25,-3469.14 2275.18,-3472.83 2275.31,-3465.83"/>
<text text-anchor="start" x="2379.85" y="-3477.21" font-family="Times New Roman,serif" font-size="14.00">claimed to channel</text>
</g>
<!-- Entity16 -->
<g id="node5" class="node entity">
<title>Entity16</title>
<ellipse fill="none" stroke="black" cx="5711.03" cy="-3420.88" rx="68.49" ry="18"/>
<text text-anchor="start" x="5666.53" y="-3417.18" font-family="Times New Roman,serif" font-size="14.00">george hw bush</text>
</g>
<!-- Entity20 -->
<g id="node6" class="node entity">
<title>Entity20</title>
<ellipse fill="none" stroke="black" cx="5683.73" cy="-3528.91" rx="63.89" ry="18"/>
<text text-anchor="start" x="5642.73" y="-3525.21" font-family="Times New Roman,serif" font-size="14.00">george w bush</text>
</g>
<!-- Entity16&#45;&gt;Entity20 -->
<g id="edge3" class="edge verb">
<title>Entity16&#45;&gt;Entity20</title>
<path fill="none" stroke="black" d="M5706.4,-3439.2C5702.12,-3456.14 5695.7,-3481.56 5690.78,-3501.02"/>
<polygon fill="black" stroke="black" points="5687.35,-3500.3 5688.3,-3510.85 5694.14,-3502.01 5687.35,-3500.3"/>
<text text-anchor="start" x="5666.59" y="-3473.91" font-family="Times New Roman,serif" font-size="14.00">father</text>
</g>
<!-- Entity16&#45;&gt;Entity66 -->
<g id="edge20" class="edge verb">
<title>Entity16&#45;&gt;Entity66</title>
<path fill="none" stroke="black" d="M5708.83,-3402.69C5701.16,-3339.19 5675.5,-3127.01 5666.19,-3050"/>
<polygon fill="black" stroke="black" points="5669.66,-3049.57 5664.99,-3040.06 5662.72,-3050.41 5669.66,-3049.57"/>
<text text-anchor="start" x="5671.51" y="-3230.15" font-family="Times New Roman,serif" font-size="14.00">isa</text>
</g>
<!-- Entity20&#45;&gt;Entity66 -->
<g id="edge42" class="edge verb">
<title>Entity20&#45;&gt;Entity66</title>
<path fill="none" stroke="black" d="M5682.99,-3510.86C5679.86,-3435.07 5667.76,-3142.27 5663.94,-3049.87"/>
<polygon fill="black" stroke="black" points="5667.44,-3049.71 5663.53,-3039.87 5660.44,-3050 5667.44,-3049.71"/>
<text text-anchor="start" x="5657.46" y="-3284.17" font-family="Times New Roman,serif" font-size="14.00">isa</text>
</g>
<!-- Entity2 -->
<g id="node7" class="node entity">
<title>Entity2</title>
<ellipse fill="none" stroke="black" cx="2861.3" cy="-3120.04" rx="41.69" ry="18"/>
<text text-anchor="start" x="2837.3" y="-3116.34" font-family="Times New Roman,serif" font-size="14.00">uri geller</text>
</g>
<!-- Entity2&#45;&gt;Entity8 -->
<g id="edge4" class="edge verb">
<title>Entity2&#45;&gt;Entity8</title>
<path fill="none" stroke="black" d="M2854.65,-3138.3C2833.27,-3197 2766.2,-3381.13 2740.76,-3450.99"/>
<polygon fill="black" stroke="black" points="2737.45,-3449.84 2737.31,-3460.44 2744.03,-3452.24 2737.45,-3449.84"/>
<text text-anchor="start" x="2693.7" y="-3298.44" font-family="Times New Roman,serif" font-size="14.00">claiemd to channel</text>
</g>
<!-- Entity26 -->
<g id="node8" class="node entity">
<title>Entity26</title>
<ellipse fill="none" stroke="black" cx="1075.12" cy="-5124.98" rx="49.29" ry="18"/>
<text text-anchor="start" x="1045.12" y="-5121.28" font-family="Times New Roman,serif" font-size="14.00">adolf hitler</text>
</g>
<!-- Entity28 -->
<g id="node9" class="node entity">
<title>Entity28</title>
<ellipse fill="none" stroke="black" cx="1284.71" cy="-4785.76" rx="32.49" ry="18"/>
<text text-anchor="start" x="1267.71" y="-4782.06" font-family="Times New Roman,serif" font-size="14.00">nsdap</text>
</g>
<!-- Entity26&#45;&gt;Entity28 -->
<g id="edge5" class="edge verb">
<title>Entity26&#45;&gt;Entity28</title>
<path fill="none" stroke="black" d="M1086.09,-5107.22C1120.76,-5051.11 1228.07,-4877.43 1268.81,-4811.51"/>
<polygon fill="black" stroke="black" points="1271.82,-4813.29 1274.1,-4802.94 1265.86,-4809.61 1271.82,-4813.29"/>
<text text-anchor="start" x="1136.45" y="-4963.16" font-family="Times New Roman,serif" font-size="14.00">created</text>
</g>
<!-- Entity75 -->
<g id="node31" class="node entity">
<title>Entity75</title>
<ellipse fill="none" stroke="black" cx="868.97" cy="-4971.87" rx="38.99" ry="18"/>
<text text-anchor="start" x="846.97" y="-4968.17" font-family="Times New Roman,serif" font-size="14.00">far right</text>
</g>
<!-- Entity28&#45;&gt;Entity75 -->
<g id="edge29" class="edge verb">
<title>Entity28&#45;&gt;Entity75</title>
<path fill="none" stroke="black" d="M1259.33,-4797.12C1188.7,-4828.74 989.59,-4917.87 906.31,-4955.15"/>
<polygon fill="black" stroke="black" points="904.68,-4952.05 896.98,-4959.33 907.54,-4958.43 904.68,-4952.05"/>
<text text-anchor="start" x="1021.82" y="-4879.94" font-family="Times New Roman,serif" font-size="14.00">member of</text>
</g>
<!-- Entity15 -->
<g id="node10" class="node entity">
<title>Entity15</title>
<ellipse fill="none" stroke="black" cx="5872.58" cy="-2618.68" rx="59.59" ry="18"/>
<text text-anchor="start" x="5834.58" y="-2614.98" font-family="Times New Roman,serif" font-size="14.00">donald trump</text>
</g>
<!-- Entity48 -->
<g id="node11" class="node entity">
<title>Entity48</title>
<ellipse fill="none" stroke="black" cx="5214.9" cy="-2935.18" rx="50.09" ry="18"/>
<text text-anchor="start" x="5184.4" y="-2931.48" font-family="Times New Roman,serif" font-size="14.00">john trump</text>
</g>
<!-- Entity15&#45;&gt;Entity48 -->
<g id="edge6" class="edge verb">
<title>Entity15&#45;&gt;Entity48</title>
<path fill="none" stroke="black" d="M5840.86,-2633.95C5732.06,-2686.31 5374.15,-2858.54 5254.36,-2916.19"/>
<polygon fill="black" stroke="black" points="5252.65,-2913.13 5245.16,-2920.62 5255.69,-2919.44 5252.65,-2913.13"/>
<text text-anchor="start" x="5488.61" y="-2778.87" font-family="Times New Roman,serif" font-size="14.00">nephew of</text>
</g>
<!-- Entity15&#45;&gt;Entity66 -->
<g id="edge27" class="edge verb">
<title>Entity15&#45;&gt;Entity66</title>
<path fill="none" stroke="black" d="M5863.29,-2636.52C5829.98,-2700.52 5716.37,-2918.79 5676.64,-2995.14"/>
<polygon fill="black" stroke="black" points="5673.47,-2993.65 5671.96,-3004.13 5679.68,-2996.88 5673.47,-2993.65"/>
<text text-anchor="start" x="5753.96" y="-2819.63" font-family="Times New Roman,serif" font-size="14.00">isa</text>
</g>
<!-- Entity48&#45;&gt;Entity22 -->
<g id="edge10" class="edge verb">
<title>Entity48&#45;&gt;Entity22</title>
<path fill="none" stroke="black" d="M5183.99,-2949.43C5095.49,-2990.22 4841.82,-3107.14 4752.39,-3148.36"/>
<polygon fill="black" stroke="black" points="4750.66,-3145.3 4743.05,-3152.67 4753.59,-3151.66 4750.66,-3145.3"/>
<text text-anchor="start" x="4907.19" y="-3052.7" font-family="Times New Roman,serif" font-size="14.00">member of</text>
</g>
<!-- Entity82 -->
<g id="node41" class="node entity">
<title>Entity82</title>
<ellipse fill="none" stroke="black" cx="4886.54" cy="-3270.98" rx="50.89" ry="18"/>
<text text-anchor="start" x="4855.54" y="-3267.28" font-family="Times New Roman,serif" font-size="14.00">nikola tesla</text>
</g>
<!-- Entity48&#45;&gt;Entity82 -->
<g id="edge40" class="edge verb">
<title>Entity48&#45;&gt;Entity82</title>
<path fill="none" stroke="black" d="M5198.16,-2952.3C5144.04,-3007.65 4973.57,-3181.98 4910.4,-3246.58"/>
<polygon fill="black" stroke="black" points="4907.73,-3244.3 4903.25,-3253.9 4912.74,-3249.19 4907.73,-3244.3"/>
<text text-anchor="start" x="5013.28" y="-3103.24" font-family="Times New Roman,serif" font-size="14.00">studied</text>
</g>
<!-- Entity5 -->
<g id="node12" class="node entity">
<title>Entity5</title>
<ellipse fill="none" stroke="black" cx="3166.55" cy="-3738.27" rx="56.59" ry="18"/>
<text text-anchor="start" x="3131.05" y="-3734.57" font-family="Times New Roman,serif" font-size="14.00">arthur young</text>
</g>
<!-- Entity5&#45;&gt;Entity8 -->
<g id="edge7" class="edge verb">
<title>Entity5&#45;&gt;Entity8</title>
<path fill="none" stroke="black" d="M3139.63,-3722.2C3063.35,-3676.68 2846.03,-3546.98 2763.32,-3497.62"/>
<polygon fill="black" stroke="black" points="2764.99,-3494.54 2754.61,-3492.42 2761.4,-3500.55 2764.99,-3494.54"/>
<text text-anchor="start" x="2889.48" y="-3613.71" font-family="Times New Roman,serif" font-size="14.00">member&#45;of</text>
</g>
<!-- Entity5&#45;&gt;Entity67 -->
<g id="edge18" class="edge verb">
<title>Entity5&#45;&gt;Entity67</title>
<path fill="none" stroke="black" d="M3204.78,-3724.86C3338.68,-3677.89 3786.7,-3520.74 3940.9,-3466.65"/>
<polygon fill="black" stroke="black" points="3942.35,-3469.85 3950.63,-3463.24 3940.04,-3463.24 3942.35,-3469.85"/>
<text text-anchor="start" x="3531.84" y="-3599.56" font-family="Times New Roman,serif" font-size="14.00">studied</text>
</g>
<!-- Entity72 -->
<g id="node28" class="node entity">
<title>Entity72</title>
<ellipse fill="none" stroke="black" cx="2518.86" cy="-4099.22" rx="53.89" ry="18"/>
<text text-anchor="start" x="2485.36" y="-4095.52" font-family="Times New Roman,serif" font-size="14.00">bell aviation</text>
</g>
<!-- Entity5&#45;&gt;Entity72 -->
<g id="edge24" class="edge verb">
<title>Entity5&#45;&gt;Entity72</title>
<path fill="none" stroke="black" d="M3138.31,-3754.01C3034.36,-3811.95 2673.05,-4013.3 2555.87,-4078.6"/>
<polygon fill="black" stroke="black" points="2553.93,-4075.68 2546.9,-4083.6 2557.33,-4081.79 2553.93,-4075.68"/>
<text text-anchor="start" x="2806.09" y="-3920.11" font-family="Times New Roman,serif" font-size="14.00">created</text>
</g>
<!-- Entity1 -->
<g id="node13" class="node entity">
<title>Entity1</title>
<ellipse fill="none" stroke="black" cx="2535.13" cy="-2773.08" rx="64.19" ry="18"/>
<text text-anchor="start" x="2493.63" y="-2769.38" font-family="Times New Roman,serif" font-size="14.00">andre puharich</text>
</g>
<!-- Entity1&#45;&gt;Entity2 -->
<g id="edge8" class="edge verb">
<title>Entity1&#45;&gt;Entity2</title>
<path fill="none" stroke="black" d="M2551.76,-2790.76C2605.77,-2848.22 2776.43,-3029.76 2838.47,-3095.76"/>
<polygon fill="black" stroke="black" points="2836.08,-3098.33 2845.48,-3103.22 2841.18,-3093.53 2836.08,-3098.33"/>
<text text-anchor="start" x="2635.11" y="-2947.06" font-family="Times New Roman,serif" font-size="14.00">sponsored</text>
</g>
<!-- Entity7 -->
<g id="node14" class="node entity">
<title>Entity7</title>
<ellipse fill="none" stroke="black" cx="3360.38" cy="-3255.76" rx="68.49" ry="18"/>
<text text-anchor="start" x="3315.88" y="-3252.06" font-family="Times New Roman,serif" font-size="14.00">jeffrey mishlove</text>
</g>
<!-- Entity7&#45;&gt;Entity2 -->
<g id="edge9" class="edge verb">
<title>Entity7&#45;&gt;Entity2</title>
<path fill="none" stroke="black" d="M3312.53,-3242.75C3216.25,-3216.57 3000.33,-3157.85 2906.39,-3132.31"/>
<polygon fill="black" stroke="black" points="2907.19,-3128.9 2896.62,-3129.65 2905.35,-3135.65 2907.19,-3128.9"/>
<text text-anchor="start" x="3054.46" y="-3191.33" font-family="Times New Roman,serif" font-size="14.00">promoted</text>
</g>
<!-- Entity7&#45;&gt;Entity67 -->
<g id="edge19" class="edge verb">
<title>Entity7&#45;&gt;Entity67</title>
<path fill="none" stroke="black" d="M3398.03,-3270.81C3502.43,-3306.83 3796.48,-3396.46 3928.27,-3432.79"/>
<polygon fill="black" stroke="black" points="3927.67,-3436.25 3938.24,-3435.52 3929.51,-3429.5 3927.67,-3436.25"/>
<text text-anchor="start" x="3622.15" y="-3355.6" font-family="Times New Roman,serif" font-size="14.00">studied</text>
</g>
<!-- Entity7&#45;&gt;Entity67 -->
<g id="edge26" class="edge verb">
<title>Entity7&#45;&gt;Entity67</title>
<path fill="none" stroke="black" d="M3412.25,-3267.47C3532.14,-3299.89 3827.06,-3389.52 3944.34,-3429.17"/>
<polygon fill="black" stroke="black" points="3943.53,-3432.59 3954.13,-3432.5 3945.79,-3425.97 3943.53,-3432.59"/>
<text text-anchor="start" x="3614.29" y="-3337.12" font-family="Times New Roman,serif" font-size="14.00">investigates</text>
</g>
<!-- Entity30 -->
<g id="node15" class="node entity">
<title>Entity30</title>
<ellipse fill="none" stroke="black" cx="1828.74" cy="-4448.34" rx="74.99" ry="18"/>
<text text-anchor="start" x="1779.24" y="-4444.64" font-family="Times New Roman,serif" font-size="14.00">walter dornberger</text>
</g>
<!-- Entity30&#45;&gt;Entity28 -->
<g id="edge11" class="edge verb">
<title>Entity30&#45;&gt;Entity28</title>
<path fill="none" stroke="black" d="M1801.39,-4465.3C1709.44,-4522.33 1411.85,-4706.91 1315.28,-4766.8"/>
<polygon fill="black" stroke="black" points="1313.23,-4763.96 1306.57,-4772.2 1316.92,-4769.91 1313.23,-4763.96"/>
<text text-anchor="start" x="1497.33" y="-4619.85" font-family="Times New Roman,serif" font-size="14.00">member of</text>
</g>
<!-- Entity30&#45;&gt;Entity72 -->
<g id="edge35" class="edge verb">
<title>Entity30&#45;&gt;Entity72</title>
<path fill="none" stroke="black" d="M1866.82,-4432.71C1988.72,-4376.29 2368.01,-4184.41 2484.5,-4120.21"/>
<polygon fill="black" stroke="black" points="2486.33,-4123.19 2493.38,-4115.28 2482.93,-4117.07 2486.33,-4123.19"/>
<text text-anchor="start" x="2096.66" y="-4280.26" font-family="Times New Roman,serif" font-size="14.00">vice&#45;president</text>
</g>
<!-- Entity30&#45;&gt;Entity72 -->
<g id="edge49" class="edge verb">
<title>Entity30&#45;&gt;Entity72</title>
<path fill="none" stroke="black" d="M1855.77,-4431.42C1961.06,-4372.62 2344.08,-4178.65 2474.8,-4117.63"/>
<polygon fill="black" stroke="black" points="2476.54,-4120.69 2484.14,-4113.31 2473.59,-4114.34 2476.54,-4120.69"/>
<text text-anchor="start" x="2109.29" y="-4263.33" font-family="Times New Roman,serif" font-size="14.00">worked at</text>
</g>
<!-- Entity76 -->
<g id="node35" class="node entity">
<title>Entity76</title>
<ellipse fill="none" stroke="black" cx="1870.28" cy="-4556.3" rx="90.98" ry="18"/>
<text text-anchor="start" x="1808.28" y="-4552.6" font-family="Times New Roman,serif" font-size="14.00">nsdap rocket program</text>
</g>
<!-- Entity30&#45;&gt;Entity76 -->
<g id="edge36" class="edge verb">
<title>Entity30&#45;&gt;Entity76</title>
<path fill="none" stroke="black" d="M1835.79,-4466.65C1842.33,-4483.66 1852.16,-4509.22 1859.66,-4528.7"/>
<polygon fill="black" stroke="black" points="1856.48,-4530.18 1863.34,-4538.26 1863.01,-4527.67 1856.48,-4530.18"/>
<text text-anchor="start" x="1806.72" y="-4501.48" font-family="Times New Roman,serif" font-size="14.00">created</text>
</g>
<!-- Entity104 -->
<g id="node55" class="node entity">
<title>Entity104</title>
<ellipse fill="none" stroke="black" cx="1256.09" cy="-4354.55" rx="65.79" ry="18"/>
<text text-anchor="start" x="1213.59" y="-4350.85" font-family="Times New Roman,serif" font-size="14.00">x series aircraft</text>
</g>
<!-- Entity30&#45;&gt;Entity104 -->
<g id="edge59" class="edge verb">
<title>Entity30&#45;&gt;Entity104</title>
<path fill="none" stroke="black" d="M1766.91,-4438.21C1658.38,-4420.44 1434.51,-4383.77 1322.69,-4365.46"/>
<polygon fill="black" stroke="black" points="1322.99,-4361.96 1312.55,-4363.8 1321.86,-4368.87 1322.99,-4361.96"/>
<text text-anchor="start" x="1503.8" y="-4405.64" font-family="Times New Roman,serif" font-size="14.00">created</text>
</g>
<!-- Entity32 -->
<g id="node16" class="node entity">
<title>Entity32</title>
<ellipse fill="none" stroke="black" cx="1665.38" cy="-4939.46" rx="46.29" ry="18"/>
<text text-anchor="start" x="1637.88" y="-4935.76" font-family="Times New Roman,serif" font-size="14.00">van braun</text>
</g>
<!-- Entity32&#45;&gt;Entity30 -->
<g id="edge12" class="edge verb">
<title>Entity32&#45;&gt;Entity30</title>
<path fill="none" stroke="black" d="M1671.39,-4921.4C1696.06,-4847.24 1789.66,-4565.82 1819.52,-4476.04"/>
<polygon fill="black" stroke="black" points="1822.93,-4476.9 1822.76,-4466.3 1816.29,-4474.69 1822.93,-4476.9"/>
<text text-anchor="start" x="1682.46" y="-4702.52" font-family="Times New Roman,serif" font-size="14.00">worked for</text>
</g>
<!-- Entity32&#45;&gt;Entity76 -->
<g id="edge48" class="edge verb">
<title>Entity32&#45;&gt;Entity76</title>
<path fill="none" stroke="black" d="M1674.85,-4921.75C1707.62,-4860.48 1816.3,-4657.24 1855.78,-4583.41"/>
<polygon fill="black" stroke="black" points="1859.04,-4584.74 1860.67,-4574.27 1852.87,-4581.44 1859.04,-4584.74"/>
<text text-anchor="start" x="1709.32" y="-4756.38" font-family="Times New Roman,serif" font-size="14.00">worked at</text>
</g>
<!-- Entity29 -->
<g id="node17" class="node entity">
<title>Entity29</title>
<ellipse fill="none" stroke="black" cx="5234.6" cy="-3482.41" rx="37.89" ry="18"/>
<text text-anchor="start" x="5213.6" y="-3478.71" font-family="Times New Roman,serif" font-size="14.00">hunt oil</text>
</g>
<!-- Entity36 -->
<g id="node18" class="node entity">
<title>Entity36</title>
<ellipse fill="none" stroke="black" cx="5272.49" cy="-3374.48" rx="77.99" ry="18"/>
<text text-anchor="start" x="5220.49" y="-3370.78" font-family="Times New Roman,serif" font-size="14.00">dwight eisenhower</text>
</g>
<!-- Entity29&#45;&gt;Entity36 -->
<g id="edge13" class="edge verb">
<title>Entity29&#45;&gt;Entity36</title>
<path fill="none" stroke="black" d="M5240.86,-3464.59C5246.8,-3447.66 5255.83,-3421.95 5262.72,-3402.32"/>
<polygon fill="black" stroke="black" points="5266.09,-3403.28 5266.1,-3392.69 5259.48,-3400.97 5266.09,-3403.28"/>
<text text-anchor="start" x="5211.79" y="-3437.26" font-family="Times New Roman,serif" font-size="14.00">funded</text>
</g>
<!-- Entity36&#45;&gt;Entity66 -->
<g id="edge34" class="edge verb">
<title>Entity36&#45;&gt;Entity66</title>
<path fill="none" stroke="black" d="M5291.85,-3356.99C5356.57,-3298.5 5565.44,-3109.73 5637.82,-3044.33"/>
<polygon fill="black" stroke="black" points="5640.49,-3046.63 5645.56,-3037.33 5635.79,-3041.44 5640.49,-3046.63"/>
<text text-anchor="start" x="5445.83" y="-3204.46" font-family="Times New Roman,serif" font-size="14.00">is a</text>
</g>
<!-- Entity11 -->
<g id="node19" class="node entity">
<title>Entity11</title>
<ellipse fill="none" stroke="black" cx="6156.55" cy="-3118.69" rx="56.59" ry="18"/>
<text text-anchor="start" x="6121.05" y="-3114.99" font-family="Times New Roman,serif" font-size="14.00">harry truman</text>
</g>
<!-- Entity11&#45;&gt;Entity66 -->
<g id="edge14" class="edge verb">
<title>Entity11&#45;&gt;Entity66</title>
<path fill="none" stroke="black" d="M6108.3,-3109.22C6010.85,-3090.09 5792.17,-3047.17 5702.39,-3029.55"/>
<polygon fill="black" stroke="black" points="5702.84,-3026.07 5692.35,-3027.57 5701.49,-3032.93 5702.84,-3026.07"/>
<text text-anchor="start" x="5889.35" y="-3073.18" font-family="Times New Roman,serif" font-size="14.00">isa</text>
</g>
<!-- Entity69 -->
<g id="node24" class="node entity">
<title>Entity69</title>
<ellipse fill="none" stroke="black" cx="6654.28" cy="-3286.03" rx="55.79" ry="18"/>
<text text-anchor="start" x="6619.28" y="-3282.33" font-family="Times New Roman,serif" font-size="14.00">freemasonry</text>
</g>
<!-- Entity11&#45;&gt;Entity69 -->
<g id="edge17" class="edge verb">
<title>Entity11&#45;&gt;Entity69</title>
<path fill="none" stroke="black" d="M6195.6,-3131.82C6285.56,-3162.06 6507.17,-3236.57 6605.7,-3269.7"/>
<polygon fill="black" stroke="black" points="6604.81,-3273.09 6615.41,-3272.96 6607.04,-3266.46 6604.81,-3273.09"/>
<text text-anchor="start" x="6339.65" y="-3204.56" font-family="Times New Roman,serif" font-size="14.00">member of</text>
</g>
<!-- Entity63 -->
<g id="node21" class="node entity">
<title>Entity63</title>
<ellipse fill="none" stroke="black" cx="6500.26" cy="-3935.75" rx="53.89" ry="18"/>
<text text-anchor="start" x="6466.76" y="-3932.05" font-family="Times New Roman,serif" font-size="14.00">edgar casey</text>
</g>
<!-- Entity59 -->
<g id="node22" class="node entity">
<title>Entity59</title>
<ellipse fill="none" stroke="black" cx="6130.27" cy="-3497.35" rx="71.49" ry="18"/>
<text text-anchor="start" x="6083.27" y="-3493.65" font-family="Times New Roman,serif" font-size="14.00">woodrow wilson</text>
</g>
<!-- Entity63&#45;&gt;Entity59 -->
<g id="edge15" class="edge verb">
<title>Entity63&#45;&gt;Entity59</title>
<path fill="none" stroke="black" d="M6485.53,-3918.29C6428.22,-3850.39 6220.01,-3603.68 6151.95,-3523.04"/>
<polygon fill="black" stroke="black" points="6154.57,-3520.72 6145.45,-3515.34 6149.22,-3525.24 6154.57,-3520.72"/>
<text text-anchor="start" x="6276.74" y="-3724.47" font-family="Times New Roman,serif" font-size="14.00">advises</text>
</g>
<!-- Entity59&#45;&gt;Entity66 -->
<g id="edge30" class="edge verb">
<title>Entity59&#45;&gt;Entity66</title>
<path fill="none" stroke="black" d="M6113.07,-3479.86C6041.42,-3406.97 5766.52,-3127.31 5685.42,-3044.81"/>
<polygon fill="black" stroke="black" points="5687.7,-3042.13 5678.19,-3037.45 5682.71,-3047.04 5687.7,-3042.13"/>
<text text-anchor="start" x="5883.25" y="-3266.13" font-family="Times New Roman,serif" font-size="14.00">isa</text>
</g>
<!-- Entity92 -->
<g id="node50" class="node entity">
<title>Entity92</title>
<ellipse fill="none" stroke="black" cx="6188.25" cy="-3605.33" rx="71.49" ry="18"/>
<text text-anchor="start" x="6141.25" y="-3601.63" font-family="Times New Roman,serif" font-size="14.00">leauge of nations</text>
</g>
<!-- Entity59&#45;&gt;Entity92 -->
<g id="edge54" class="edge verb">
<title>Entity59&#45;&gt;Entity92</title>
<path fill="none" stroke="black" d="M6140.1,-3515.67C6149.32,-3532.83 6163.21,-3558.71 6173.71,-3578.26"/>
<polygon fill="black" stroke="black" points="6170.74,-3580.12 6178.56,-3587.28 6176.91,-3576.81 6170.74,-3580.12"/>
<text text-anchor="start" x="6115.91" y="-3550.76" font-family="Times New Roman,serif" font-size="14.00">created</text>
</g>
<!-- Entity18 -->
<g id="node26" class="node entity">
<title>Entity18</title>
<ellipse fill="none" stroke="black" cx="5974.37" cy="-2891.89" rx="35.19" ry="18"/>
<text text-anchor="start" x="5955.37" y="-2888.19" font-family="Times New Roman,serif" font-size="14.00">obama</text>
</g>
<!-- Entity18&#45;&gt;Entity66 -->
<g id="edge21" class="edge verb">
<title>Entity18&#45;&gt;Entity66</title>
<path fill="none" stroke="black" d="M5947,-2903.3C5890.33,-2926.92 5760.26,-2981.14 5697.67,-3007.22"/>
<polygon fill="black" stroke="black" points="5696.11,-3004.08 5688.23,-3011.16 5698.81,-3010.54 5696.11,-3004.08"/>
<text text-anchor="start" x="5806.33" y="-2959.06" font-family="Times New Roman,serif" font-size="14.00">isa</text>
</g>
<!-- Entity12 -->
<g id="node27" class="node entity">
<title>Entity12</title>
<ellipse fill="none" stroke="black" cx="5993.11" cy="-3266.46" rx="58.49" ry="18"/>
<text text-anchor="start" x="5956.11" y="-3262.76" font-family="Times New Roman,serif" font-size="14.00">richard nixon</text>
</g>
<!-- Entity12&#45;&gt;Entity66 -->
<g id="edge22" class="edge verb">
<title>Entity12&#45;&gt;Entity66</title>
<path fill="none" stroke="black" d="M5970.67,-3249.83C5912.14,-3206.48 5754.97,-3090.06 5690.72,-3042.47"/>
<polygon fill="black" stroke="black" points="5692.41,-3039.36 5682.29,-3036.22 5688.25,-3044.99 5692.41,-3039.36"/>
<text text-anchor="start" x="5814.69" y="-3149.95" font-family="Times New Roman,serif" font-size="14.00">isa</text>
</g>
<!-- Entity24 -->
<g id="node29" class="node entity">
<title>Entity24</title>
<ellipse fill="none" stroke="black" cx="3756.2" cy="-3340.14" rx="63.89" ry="18"/>
<text text-anchor="start" x="3715.2" y="-3336.44" font-family="Times New Roman,serif" font-size="14.00">robert bigelow</text>
</g>
<!-- Entity24&#45;&gt;Entity7 -->
<g id="edge25" class="edge verb">
<title>Entity24&#45;&gt;Entity7</title>
<path fill="none" stroke="black" d="M3705.26,-3329.28C3633.33,-3313.94 3502.04,-3285.96 3423.85,-3269.29"/>
<polygon fill="black" stroke="black" points="3424.16,-3265.78 3413.65,-3267.12 3422.7,-3272.63 3424.16,-3265.78"/>
<text text-anchor="start" x="3532.55" y="-3303.09" font-family="Times New Roman,serif" font-size="14.00">funds</text>
</g>
<!-- Entity24&#45;&gt;Entity67 -->
<g id="edge45" class="edge verb">
<title>Entity24&#45;&gt;Entity67</title>
<path fill="none" stroke="black" d="M3789.96,-3355.5C3831.63,-3374.47 3902.64,-3406.78 3948.83,-3427.8"/>
<polygon fill="black" stroke="black" points="3947.45,-3431.02 3958,-3431.98 3950.35,-3424.65 3947.45,-3431.02"/>
<text text-anchor="start" x="3805.39" y="-3395.45" font-family="Times New Roman,serif" font-size="14.00">investigates</text>
</g>
<!-- Entity44 -->
<g id="node30" class="node entity">
<title>Entity44</title>
<ellipse fill="none" stroke="black" cx="6551.36" cy="-2247.9" rx="58.49" ry="18"/>
<text text-anchor="start" x="6514.36" y="-2244.2" font-family="Times New Roman,serif" font-size="14.00">steve bannon</text>
</g>
<!-- Entity44&#45;&gt;Entity15 -->
<g id="edge28" class="edge verb">
<title>Entity44&#45;&gt;Entity15</title>
<path fill="none" stroke="black" d="M6517.6,-2262.83C6401.63,-2320.65 6020.64,-2528.72 5905.68,-2596.96"/>
<polygon fill="black" stroke="black" points="5903.72,-2594.06 5896.94,-2602.2 5907.32,-2600.06 5903.72,-2594.06"/>
<text text-anchor="start" x="6156.64" y="-2433.7" font-family="Times New Roman,serif" font-size="14.00">promoted</text>
</g>
<!-- Entity44&#45;&gt;Entity15 -->
<g id="edge64" class="edge verb">
<title>Entity44&#45;&gt;Entity15</title>
<path fill="none" stroke="black" d="M6526.92,-2264.44C6426.45,-2325.07 6044.77,-2533.81 5915.59,-2599.12"/>
<polygon fill="black" stroke="black" points="5913.74,-2596.13 5906.37,-2603.74 5916.88,-2602.38 5913.74,-2596.13"/>
<text text-anchor="start" x="6221.25" y="-2435.58" font-family="Times New Roman,serif" font-size="14.00">advises</text>
</g>
<!-- Entity83 -->
<g id="node40" class="node entity">
<title>Entity83</title>
<ellipse fill="none" stroke="black" cx="7176.39" cy="-2252.75" rx="61.99" ry="18"/>
<text text-anchor="start" x="7136.89" y="-2249.05" font-family="Times New Roman,serif" font-size="14.00">breitbart news</text>
</g>
<!-- Entity44&#45;&gt;Entity83 -->
<g id="edge46" class="edge verb">
<title>Entity44&#45;&gt;Entity83</title>
<path fill="none" stroke="black" d="M6609.88,-2248.36C6724.71,-2249.25 6979.2,-2251.22 7104.23,-2252.19"/>
<polygon fill="black" stroke="black" points="7104.43,-2255.69 7114.46,-2252.27 7104.48,-2248.69 7104.43,-2255.69"/>
<text text-anchor="start" x="6816.05" y="-2254.07" font-family="Times New Roman,serif" font-size="14.00">created</text>
</g>
<!-- Entity89 -->
<g id="node49" class="node entity">
<title>Entity89</title>
<ellipse fill="none" stroke="black" cx="6808.9" cy="-1884.1" rx="35.19" ry="18"/>
<text text-anchor="start" x="6789.9" y="-1880.4" font-family="Times New Roman,serif" font-size="14.00">gurgev</text>
</g>
<!-- Entity44&#45;&gt;Entity89 -->
<g id="edge53" class="edge verb">
<title>Entity44&#45;&gt;Entity89</title>
<path fill="none" stroke="black" d="M6563.96,-2230.11C6605.99,-2170.74 6741.54,-1979.26 6790.8,-1909.68"/>
<polygon fill="black" stroke="black" points="6793.71,-1911.62 6796.63,-1901.44 6788,-1907.58 6793.71,-1911.62"/>
<text text-anchor="start" x="6636.38" y="-2073.69" font-family="Times New Roman,serif" font-size="14.00">studied</text>
</g>
<!-- Entity91 -->
<g id="node51" class="node entity">
<title>Entity91</title>
<ellipse fill="none" stroke="black" cx="6961.44" cy="-2144.72" rx="38.19" ry="18"/>
<text text-anchor="start" x="6939.94" y="-2141.02" font-family="Times New Roman,serif" font-size="14.00">us navy</text>
</g>
<!-- Entity44&#45;&gt;Entity91 -->
<g id="edge55" class="edge verb">
<title>Entity44&#45;&gt;Entity91</title>
<path fill="none" stroke="black" d="M6596.81,-2236.47C6676.24,-2216.48 6839.3,-2175.46 6917.59,-2155.76"/>
<polygon fill="black" stroke="black" points="6918.76,-2159.07 6927.61,-2153.24 6917.05,-2152.28 6918.76,-2159.07"/>
<text text-anchor="start" x="6696.2" y="-2199.91" font-family="Times New Roman,serif" font-size="14.00">member of</text>
</g>
<!-- Entity94 -->
<g id="node53" class="node entity">
<title>Entity94</title>
<ellipse fill="none" stroke="black" cx="6704.16" cy="-1748.66" rx="53.09" ry="18"/>
<text text-anchor="start" x="6671.16" y="-1744.96" font-family="Times New Roman,serif" font-size="14.00">biosphere 2</text>
</g>
<!-- Entity44&#45;&gt;Entity94 -->
<g id="edge57" class="edge verb">
<title>Entity44&#45;&gt;Entity94</title>
<path fill="none" stroke="black" d="M6556.89,-2229.84C6579.87,-2154.77 6667.91,-1867.1 6695.7,-1776.29"/>
<polygon fill="black" stroke="black" points="6699.06,-1777.28 6698.64,-1766.69 6692.37,-1775.23 6699.06,-1777.28"/>
<text text-anchor="start" x="6585.3" y="-2006.87" font-family="Times New Roman,serif" font-size="14.00">created</text>
</g>
<!-- Entity107 -->
<g id="node58" class="node entity">
<title>Entity107</title>
<ellipse fill="none" stroke="black" cx="6591.04" cy="-2139.84" rx="77.19" ry="18"/>
<text text-anchor="start" x="6539.54" y="-2136.14" font-family="Times New Roman,serif" font-size="14.00">hollywood movies</text>
</g>
<!-- Entity44&#45;&gt;Entity107 -->
<g id="edge61" class="edge verb">
<title>Entity44&#45;&gt;Entity107</title>
<path fill="none" stroke="black" d="M6558.09,-2229.57C6564.34,-2212.55 6573.74,-2186.96 6580.9,-2167.46"/>
<polygon fill="black" stroke="black" points="6584.25,-2168.49 6584.41,-2157.9 6577.68,-2166.08 6584.25,-2168.49"/>
<text text-anchor="start" x="6514.49" y="-2202.32" font-family="Times New Roman,serif" font-size="14.00">produced</text>
</g>
<!-- Entity111 -->
<g id="node59" class="node entity">
<title>Entity111</title>
<ellipse fill="none" stroke="black" cx="7073.08" cy="-1992.13" rx="64.99" ry="18"/>
<text text-anchor="start" x="7031.08" y="-1988.43" font-family="Times New Roman,serif" font-size="14.00">goldman sachs</text>
</g>
<!-- Entity44&#45;&gt;Entity111 -->
<g id="edge66" class="edge verb">
<title>Entity44&#45;&gt;Entity111</title>
<path fill="none" stroke="black" d="M6582.82,-2232.48C6672.76,-2188.39 6930.98,-2061.79 7031.93,-2012.3"/>
<polygon fill="black" stroke="black" points="7033.47,-2015.44 7040.91,-2007.9 7030.39,-2009.16 7033.47,-2015.44"/>
<text text-anchor="start" x="6744.37" y="-2126.19" font-family="Times New Roman,serif" font-size="14.00">worked for</text>
</g>
<!-- Entity33 -->
<g id="node32" class="node entity">
<title>Entity33</title>
<ellipse fill="none" stroke="black" cx="2087.87" cy="-4340.16" rx="57.69" ry="18"/>
<text text-anchor="start" x="2051.37" y="-4336.46" font-family="Times New Roman,serif" font-size="14.00">michael pane</text>
</g>
<!-- Entity33&#45;&gt;Entity30 -->
<g id="edge47" class="edge verb">
<title>Entity33&#45;&gt;Entity30</title>
<path fill="none" stroke="black" d="M2053.19,-4354.64C2007.45,-4373.73 1926.8,-4407.4 1875.65,-4428.75"/>
<polygon fill="black" stroke="black" points="1874.03,-4425.64 1866.15,-4432.72 1876.72,-4432.1 1874.03,-4425.64"/>
<text text-anchor="start" x="1901.42" y="-4395.49" font-family="Times New Roman,serif" font-size="14.00">worked for</text>
</g>
<!-- Entity33&#45;&gt;Entity72 -->
<g id="edge31" class="edge verb">
<title>Entity33&#45;&gt;Entity72</title>
<path fill="none" stroke="black" d="M2116.15,-4324.35C2191.6,-4282.17 2397.68,-4166.97 2482.08,-4119.79"/>
<polygon fill="black" stroke="black" points="2484.02,-4122.71 2491.04,-4114.78 2480.61,-4116.6 2484.02,-4122.71"/>
<text text-anchor="start" x="2243.11" y="-4225.87" font-family="Times New Roman,serif" font-size="14.00">worked at</text>
</g>
<!-- Entity45 -->
<g id="node33" class="node entity">
<title>Entity45</title>
<ellipse fill="none" stroke="black" cx="5554.57" cy="-2338.77" rx="67.69" ry="18"/>
<text text-anchor="start" x="5510.57" y="-2335.07" font-family="Times New Roman,serif" font-size="14.00">abraham lincoln</text>
</g>
<!-- Entity45&#45;&gt;Entity66 -->
<g id="edge32" class="edge verb">
<title>Entity45&#45;&gt;Entity66</title>
<path fill="none" stroke="black" d="M5557.46,-2357.04C5572.34,-2450.96 5640.23,-2879.46 5658.33,-2993.71"/>
<polygon fill="black" stroke="black" points="5654.9,-2994.43 5659.92,-3003.76 5661.82,-2993.34 5654.9,-2994.43"/>
<text text-anchor="start" x="5591.9" y="-2679.17" font-family="Times New Roman,serif" font-size="14.00">isa</text>
</g>
<!-- Entity38 -->
<g id="node34" class="node entity">
<title>Entity38</title>
<ellipse fill="none" stroke="black" cx="5404.55" cy="-1458.04" rx="90.98" ry="18"/>
<text text-anchor="start" x="5342.55" y="-1454.34" font-family="Times New Roman,serif" font-size="14.00">emma hardinge&#45;britten</text>
</g>
<!-- Entity38&#45;&gt;Entity45 -->
<g id="edge33" class="edge verb">
<title>Entity38&#45;&gt;Entity45</title>
<path fill="none" stroke="black" d="M5407.62,-1476.03C5426.45,-1586.59 5526.45,-2173.73 5549.72,-2310.35"/>
<polygon fill="black" stroke="black" points="5546.31,-2311.17 5551.44,-2320.44 5553.21,-2309.99 5546.31,-2311.17"/>
<text text-anchor="start" x="5379.67" y="-1896.99" font-family="Times New Roman,serif" font-size="14.00">spokesperson for</text>
</g>
<!-- Entity79 -->
<g id="node38" class="node entity">
<title>Entity79</title>
<ellipse fill="none" stroke="black" cx="5379.6" cy="-898.86" rx="39.79" ry="18"/>
<text text-anchor="start" x="5357.1" y="-895.16" font-family="Times New Roman,serif" font-size="14.00">medium</text>
</g>
<!-- Entity38&#45;&gt;Entity79 -->
<g id="edge38" class="edge verb">
<title>Entity38&#45;&gt;Entity79</title>
<path fill="none" stroke="black" d="M5403.73,-1439.75C5400.09,-1358.11 5385.3,-1026.61 5380.86,-927.18"/>
<polygon fill="black" stroke="black" points="5384.35,-926.84 5380.41,-917 5377.36,-927.15 5384.35,-926.84"/>
<text text-anchor="start" x="5376.3" y="-1187.27" font-family="Times New Roman,serif" font-size="14.00">isa</text>
</g>
<!-- Entity86 -->
<g id="node48" class="node entity">
<title>Entity86</title>
<ellipse fill="none" stroke="black" cx="5371.82" cy="-1350.09" rx="85.29" ry="18"/>
<text text-anchor="start" x="5314.32" y="-1346.39" font-family="Times New Roman,serif" font-size="14.00">theosophical society</text>
</g>
<!-- Entity38&#45;&gt;Entity86 -->
<g id="edge65" class="edge verb">
<title>Entity38&#45;&gt;Entity86</title>
<path fill="none" stroke="black" d="M5399,-1439.73C5393.87,-1422.8 5386.17,-1397.4 5380.27,-1377.95"/>
<polygon fill="black" stroke="black" points="5383.54,-1376.68 5377.29,-1368.13 5376.85,-1378.71 5383.54,-1376.68"/>
<text text-anchor="start" x="5348.64" y="-1412.64" font-family="Times New Roman,serif" font-size="14.00">created</text>
</g>
<!-- Entity99 -->
<g id="node54" class="node entity">
<title>Entity99</title>
<ellipse fill="none" stroke="black" cx="5693.06" cy="-904.78" rx="55.79" ry="18"/>
<text text-anchor="start" x="5658.06" y="-901.08" font-family="Times New Roman,serif" font-size="14.00">orphic circle</text>
</g>
<!-- Entity38&#45;&gt;Entity99 -->
<g id="edge58" class="edge verb">
<title>Entity38&#45;&gt;Entity99</title>
<path fill="none" stroke="black" d="M5413.99,-1439.94C5456.28,-1358.84 5628.53,-1028.52 5679.06,-931.62"/>
<polygon fill="black" stroke="black" points="5682.17,-933.22 5683.69,-922.73 5675.97,-929.98 5682.17,-933.22"/>
<text text-anchor="start" x="5485.52" y="-1189.58" font-family="Times New Roman,serif" font-size="14.00">member of</text>
</g>
<!-- Entity42 -->
<g id="node36" class="node entity">
<title>Entity42</title>
<ellipse fill="none" stroke="black" cx="3848.94" cy="-2777.66" rx="53.89" ry="18"/>
<text text-anchor="start" x="3815.44" y="-2773.96" font-family="Times New Roman,serif" font-size="14.00">black magic</text>
</g>
<!-- Entity81 -->
<g id="node37" class="node entity">
<title>Entity81</title>
<ellipse fill="none" stroke="black" cx="3936.66" cy="-2889.64" rx="28.7" ry="18"/>
<text text-anchor="start" x="3922.66" y="-2885.94" font-family="Times New Roman,serif" font-size="14.00">x left</text>
</g>
<!-- Entity42&#45;&gt;Entity81 -->
<g id="edge37" class="edge verb">
<title>Entity42&#45;&gt;Entity81</title>
<path fill="none" stroke="black" d="M3862.64,-2795.16C3877.45,-2814.05 3901.14,-2844.29 3917.72,-2865.45"/>
<polygon fill="black" stroke="black" points="3914.98,-2867.64 3923.9,-2873.36 3920.49,-2863.32 3914.98,-2867.64"/>
<text text-anchor="start" x="3829.18" y="-2834.11" font-family="Times New Roman,serif" font-size="14.00">member of</text>
</g>
<!-- Entity47 -->
<g id="node39" class="node entity">
<title>Entity47</title>
<ellipse fill="none" stroke="black" cx="7751.04" cy="-2167.64" rx="69.59" ry="18"/>
<text text-anchor="start" x="7705.54" y="-2163.94" font-family="Times New Roman,serif" font-size="14.00">andrew breitbart</text>
</g>
<!-- Entity47&#45;&gt;Entity83 -->
<g id="edge39" class="edge verb">
<title>Entity47&#45;&gt;Entity83</title>
<path fill="none" stroke="black" d="M7690.63,-2176.58C7581.93,-2192.68 7354.26,-2226.4 7241.94,-2243.04"/>
<polygon fill="black" stroke="black" points="7241.14,-2239.62 7231.76,-2244.55 7242.16,-2246.54 7241.14,-2239.62"/>
<text text-anchor="start" x="7425.28" y="-2213.61" font-family="Times New Roman,serif" font-size="14.00">created</text>
</g>
<!-- Entity35 -->
<g id="node42" class="node entity">
<title>Entity35</title>
<ellipse fill="none" stroke="black" cx="3834.94" cy="-2087.66" rx="39.79" ry="18"/>
<text text-anchor="start" x="3812.44" y="-2083.96" font-family="Times New Roman,serif" font-size="14.00">crowley</text>
</g>
<!-- Entity80 -->
<g id="node43" class="node entity">
<title>Entity80</title>
<ellipse fill="none" stroke="black" cx="3922.66" cy="-2199.64" rx="38.99" ry="18"/>
<text text-anchor="start" x="3900.66" y="-2195.94" font-family="Times New Roman,serif" font-size="14.00">x magic</text>
</g>
<!-- Entity35&#45;&gt;Entity80 -->
<g id="edge41" class="edge verb">
<title>Entity35&#45;&gt;Entity80</title>
<path fill="none" stroke="black" d="M3848.26,-2104.67C3862.82,-2123.25 3886.28,-2153.2 3902.96,-2174.49"/>
<polygon fill="black" stroke="black" points="3900.29,-2176.76 3909.21,-2182.47 3905.8,-2172.44 3900.29,-2176.76"/>
<text text-anchor="start" x="3814.61" y="-2143.38" font-family="Times New Roman,serif" font-size="14.00">member of</text>
</g>
<!-- Entity19 -->
<g id="node44" class="node entity">
<title>Entity19</title>
<ellipse fill="none" stroke="black" cx="5342.6" cy="-2827.21" rx="31.4" ry="18"/>
<text text-anchor="start" x="5326.6" y="-2823.51" font-family="Times New Roman,serif" font-size="14.00">carter</text>
</g>
<!-- Entity19&#45;&gt;Entity66 -->
<g id="edge44" class="edge verb">
<title>Entity19&#45;&gt;Entity66</title>
<path fill="none" stroke="black" d="M5364.11,-2840.28C5419.57,-2873.98 5567.59,-2963.93 5632.06,-3003.1"/>
<polygon fill="black" stroke="black" points="5630.58,-3006.3 5640.94,-3008.5 5634.22,-3000.32 5630.58,-3006.3"/>
<text text-anchor="start" x="5482.08" y="-2925.49" font-family="Times New Roman,serif" font-size="14.00">isa</text>
</g>
<!-- Entity19&#45;&gt;Entity90 -->
<g id="edge56" class="edge verb">
<title>Entity19&#45;&gt;Entity90</title>
<path fill="none" stroke="black" d="M5313.97,-2834.55C5246.69,-2851.8 5078.68,-2894.86 5005.17,-2913.71"/>
<polygon fill="black" stroke="black" points="5003.85,-2910.43 4995.03,-2916.3 5005.59,-2917.21 5003.85,-2910.43"/>
<text text-anchor="start" x="5104.57" y="-2877.93" font-family="Times New Roman,serif" font-size="14.00">witnessed</text>
</g>
<!-- Entity27 -->
<g id="node45" class="node entity">
<title>Entity27</title>
<ellipse fill="none" stroke="black" cx="36.3" cy="-5418.96" rx="36.29" ry="18"/>
<text text-anchor="start" x="16.3" y="-5415.26" font-family="Times New Roman,serif" font-size="14.00">oswald</text>
</g>
<!-- Entity34 -->
<g id="node46" class="node entity">
<title>Entity34</title>
<ellipse fill="none" stroke="black" cx="424.71" cy="-5207.34" rx="59.29" ry="18"/>
<text text-anchor="start" x="387.21" y="-5203.64" font-family="Times New Roman,serif" font-size="14.00">guy bannister</text>
</g>
<!-- Entity27&#45;&gt;Entity34 -->
<g id="edge50" class="edge verb">
<title>Entity27&#45;&gt;Entity34</title>
<path fill="none" stroke="black" d="M60.89,-5405.56C126.75,-5369.68 307.49,-5271.21 386.69,-5228.06"/>
<polygon fill="black" stroke="black" points="388.72,-5230.94 395.83,-5223.08 385.37,-5224.79 388.72,-5230.94"/>
<text text-anchor="start" x="160.79" y="-5320.61" font-family="Times New Roman,serif" font-size="14.00">worked for</text>
</g>
<!-- Entity34&#45;&gt;Entity75 -->
<g id="edge51" class="edge verb">
<title>Entity34&#45;&gt;Entity75</title>
<path fill="none" stroke="black" d="M454.2,-5191.71C533.22,-5149.83 749.4,-5035.24 834.19,-4990.3"/>
<polygon fill="black" stroke="black" points="835.96,-4993.32 843.16,-4985.55 832.68,-4987.14 835.96,-4993.32"/>
<text text-anchor="start" x="583.2" y="-5094.8" font-family="Times New Roman,serif" font-size="14.00">member of</text>
</g>
<!-- Entity64 -->
<g id="node47" class="node entity">
<title>Entity64</title>
<ellipse fill="none" stroke="black" cx="5192.07" cy="-1242.14" rx="73.39" ry="18"/>
<text text-anchor="start" x="5143.57" y="-1238.44" font-family="Times New Roman,serif" font-size="14.00">madam blavatsky</text>
</g>
<!-- Entity64&#45;&gt;Entity86 -->
<g id="edge52" class="edge verb">
<title>Entity64&#45;&gt;Entity86</title>
<path fill="none" stroke="black" d="M5220.15,-1259.01C5250.97,-1277.51 5300.58,-1307.3 5334.61,-1327.74"/>
<polygon fill="black" stroke="black" points="5332.97,-1330.83 5343.34,-1332.98 5336.57,-1324.83 5332.97,-1330.83"/>
<text text-anchor="start" x="5236.38" y="-1297.17" font-family="Times New Roman,serif" font-size="14.00">created</text>
</g>
<!-- Entity60 -->
<g id="node56" class="node entity">
<title>Entity60</title>
<ellipse fill="none" stroke="black" cx="5254.91" cy="-675.67" rx="58.49" ry="18"/>
<text text-anchor="start" x="5217.91" y="-671.97" font-family="Times New Roman,serif" font-size="14.00">rudolf steiner</text>
</g>
<!-- Entity60&#45;&gt;Entity86 -->
<g id="edge63" class="edge verb">
<title>Entity60&#45;&gt;Entity86</title>
<path fill="none" stroke="black" d="M5258.04,-693.71C5274.1,-786.35 5347.3,-1208.64 5366.96,-1322.01"/>
<polygon fill="black" stroke="black" points="5363.53,-1322.74 5368.69,-1331.99 5370.43,-1321.54 5363.53,-1322.74"/>
<text text-anchor="start" x="5246.5" y="-1011.66" font-family="Times New Roman,serif" font-size="14.00">memberr of</text>
</g>
<!-- Entity93 -->
<g id="node57" class="node entity">
<title>Entity93</title>
<ellipse fill="none" stroke="black" cx="5187.95" cy="-17.54" rx="102.08" ry="18"/>
<text text-anchor="start" x="5117.45" y="-13.84" font-family="Times New Roman,serif" font-size="14.00">anthroposophical society</text>
</g>
<!-- Entity60&#45;&gt;Entity93 -->
<g id="edge60" class="edge verb">
<title>Entity60&#45;&gt;Entity93</title>
<path fill="none" stroke="black" d="M5253.05,-657.39C5243.74,-565.87 5202.2,-157.63 5190.83,-45.89"/>
<polygon fill="black" stroke="black" points="5194.29,-45.33 5189.8,-35.74 5187.33,-46.04 5194.29,-45.33"/>
<text text-anchor="start" x="5180.94" y="-355.44" font-family="Times New Roman,serif" font-size="14.00">created</text>
</g>
<!-- Entity109 -->
<g id="node60" class="node entity">
<title>Entity109</title>
<ellipse fill="none" stroke="black" cx="3131.94" cy="-2432.66" rx="27" ry="18"/>
<text text-anchor="start" x="3128.44" y="-2428.96" font-family="Times New Roman,serif" font-size="14.00">s</text>
</g>
<!-- Entity112 -->
<g id="node61" class="node entity">
<title>Entity112</title>
<ellipse fill="none" stroke="black" cx="3219.66" cy="-2544.64" rx="27" ry="18"/>
<text text-anchor="start" x="3215.66" y="-2540.94" font-family="Times New Roman,serif" font-size="14.00">o</text>
</g>
<!-- Entity109&#45;&gt;Entity112 -->
<g id="edge67" class="edge verb">
<title>Entity109&#45;&gt;Entity112</title>
<path fill="none" stroke="black" d="M3144.51,-2448.7C3159.23,-2467.5 3183.76,-2498.82 3200.78,-2520.53"/>
<polygon fill="black" stroke="black" points="3198.19,-2522.91 3207.11,-2528.62 3203.7,-2518.59 3198.19,-2522.91"/>
<text text-anchor="start" x="3165.64" y="-2488.42" font-family="Times New Roman,serif" font-size="14.00">v</text>
</g>
</g>
</svg>
