<?xml version="1.0" encoding="UTF-8" standalone="no"?>
<?xml-stylesheet href="./styles.css" type="text/css"?>
<!DOCTYPE svg PUBLIC "-//W3C//DTD SVG 1.1//EN"
 "http://www.w3.org/Graphics/SVG/1.1/DTD/svg11.dtd">
<!-- Generated by graphviz version 2.47.3 (20210619.1520)
 -->
<!-- Title: G Pages: 1 -->
<svg width="7558pt" height="5172pt"
 viewBox="0.00 0.00 7558.00 5172.00" xmlns="http://www.w3.org/2000/svg" xmlns:xlink="http://www.w3.org/1999/xlink">
<g id="graph0" class="graph" transform="scale(1 1) rotate(0) translate(4 5168)">
<title>G</title>
<polygon fill="white" stroke="transparent" points="-4,4 -4,-5168 7554,-5168 7554,4 -4,4"/>
<!-- Entity3 -->
<g id="node1" class="node entity">
<title>Entity3</title>
<ellipse fill="none" stroke="black" cx="4851.94" cy="-3024.72" rx="64.19" ry="18"/>
<text text-anchor="start" x="4810.44" y="-3021.02" font-family="Times New Roman,serif" font-size="14.00">john f kennedy</text>
</g>
<!-- Entity22 -->
<g id="node2" class="node entity">
<title>Entity22</title>
<ellipse fill="none" stroke="black" cx="4474.67" cy="-2704.22" rx="27" ry="18"/>
<text text-anchor="start" x="4466.67" y="-2700.52" font-family="Times New Roman,serif" font-size="14.00">cia</text>
</g>
<!-- Entity3&#45;&gt;Entity22 -->
<g id="edge1" class="edge verb">
<title>Entity3&#45;&gt;Entity22</title>
<path fill="none" stroke="black" d="M4831.66,-3007.49C4767.54,-2953.01 4569.31,-2784.62 4499.39,-2725.22"/>
<polygon fill="black" stroke="black" points="4501.41,-2722.34 4491.52,-2718.53 4496.88,-2727.67 4501.41,-2722.34"/>
<text text-anchor="start" x="4561.53" y="-2870.15" font-family="Times New Roman,serif" font-size="14.00">heads (1961&#45;1963)</text>
</g>
<!-- Entity66 -->
<g id="node20" class="node entity">
<title>Entity66</title>
<ellipse fill="none" stroke="black" cx="5462.47" cy="-2935.01" rx="31.4" ry="18"/>
<text text-anchor="start" x="5446.47" y="-2931.31" font-family="Times New Roman,serif" font-size="14.00">potus</text>
</g>
<!-- Entity3&#45;&gt;Entity66 -->
<g id="edge23" class="edge verb">
<title>Entity3&#45;&gt;Entity66</title>
<path fill="none" stroke="black" d="M4909.11,-3016.32C5031.46,-2998.34 5316.17,-2956.51 5421.95,-2940.96"/>
<polygon fill="black" stroke="black" points="5422.52,-2944.42 5431.91,-2939.5 5421.51,-2937.49 5422.52,-2944.42"/>
<text text-anchor="start" x="5078.53" y="-2982.44" font-family="Times New Roman,serif" font-size="14.00">isa (1961&#45;1963)</text>
</g>
<!-- Entity67 -->
<g id="node25" class="node entity">
<title>Entity67</title>
<ellipse fill="none" stroke="black" cx="3759.69" cy="-2713.99" rx="77.19" ry="18"/>
<text text-anchor="start" x="3708.19" y="-2710.29" font-family="Times New Roman,serif" font-size="14.00">psi&#45;consciousness</text>
</g>
<!-- Entity22&#45;&gt;Entity67 -->
<g id="edge43" class="edge verb">
<title>Entity22&#45;&gt;Entity67</title>
<path fill="none" stroke="black" d="M4447.51,-2704.59C4349.3,-2705.93 4009.8,-2710.57 3847.47,-2712.79"/>
<polygon fill="black" stroke="black" points="3846.99,-2709.3 3837.04,-2712.94 3847.09,-2716.3 3846.99,-2709.3"/>
<text text-anchor="start" x="4083.49" y="-2712.49" font-family="Times New Roman,serif" font-size="14.00">investigates</text>
</g>
<!-- Entity90 -->
<g id="node52" class="node entity">
<title>Entity90</title>
<ellipse fill="none" stroke="black" cx="4738.82" cy="-2847.81" rx="27" ry="18"/>
<text text-anchor="start" x="4729.32" y="-2844.11" font-family="Times New Roman,serif" font-size="14.00">ufo</text>
</g>
<!-- Entity22&#45;&gt;Entity90 -->
<g id="edge62" class="edge verb">
<title>Entity22&#45;&gt;Entity90</title>
<path fill="none" stroke="black" d="M4495.84,-2715.73C4542.5,-2741.09 4654.32,-2801.88 4708.45,-2831.31"/>
<polygon fill="black" stroke="black" points="4707.09,-2834.55 4717.55,-2836.25 4710.43,-2828.4 4707.09,-2834.55"/>
<text text-anchor="start" x="4538.14" y="-2777.32" font-family="Times New Roman,serif" font-size="14.00">investigates</text>
</g>
<!-- Entity14 -->
<g id="node3" class="node entity">
<title>Entity14</title>
<ellipse fill="none" stroke="black" cx="2043.76" cy="-2184.68" rx="74.99" ry="18"/>
<text text-anchor="start" x="1994.26" y="-2180.98" font-family="Times New Roman,serif" font-size="14.00">gene roddenberry</text>
</g>
<!-- Entity8 -->
<g id="node4" class="node entity">
<title>Entity8</title>
<ellipse fill="none" stroke="black" cx="2500.17" cy="-2415.97" rx="38.19" ry="18"/>
<text text-anchor="start" x="2478.67" y="-2412.27" font-family="Times New Roman,serif" font-size="14.00">the nine</text>
</g>
<!-- Entity14&#45;&gt;Entity8 -->
<g id="edge2" class="edge verb">
<title>Entity14&#45;&gt;Entity8</title>
<path fill="none" stroke="black" d="M2075.85,-2200.94C2158.58,-2242.86 2378.62,-2354.37 2464.83,-2398.06"/>
<polygon fill="black" stroke="black" points="2463.44,-2401.28 2473.95,-2402.68 2466.61,-2395.03 2463.44,-2401.28"/>
<text text-anchor="start" x="2166.34" y="-2303.3" font-family="Times New Roman,serif" font-size="14.00">claiemd to channel</text>
</g>
<!-- Entity70 -->
<g id="node23" class="node entity">
<title>Entity70</title>
<ellipse fill="none" stroke="black" cx="2174.42" cy="-1941.02" rx="94.48" ry="18"/>
<text text-anchor="start" x="2109.92" y="-1937.32" font-family="Times New Roman,serif" font-size="14.00">egyptian gods in a ship</text>
</g>
<!-- Entity8&#45;&gt;Entity70 -->
<g id="edge16" class="edge verb">
<title>Entity8&#45;&gt;Entity70</title>
<path fill="none" stroke="black" d="M2488.39,-2398.78C2439.42,-2327.39 2251.83,-2053.88 2192.51,-1967.4"/>
<polygon fill="black" stroke="black" points="2195.25,-1965.21 2186.71,-1958.94 2189.48,-1969.17 2195.25,-1965.21"/>
<text text-anchor="start" x="2236.45" y="-2186.89" font-family="Times New Roman,serif" font-size="14.00">claimed to channel</text>
</g>
<!-- Entity16 -->
<g id="node5" class="node entity">
<title>Entity16</title>
<ellipse fill="none" stroke="black" cx="5918.81" cy="-2849.05" rx="68.49" ry="18"/>
<text text-anchor="start" x="5874.31" y="-2845.35" font-family="Times New Roman,serif" font-size="14.00">george hw bush</text>
</g>
<!-- Entity20 -->
<g id="node6" class="node entity">
<title>Entity20</title>
<ellipse fill="none" stroke="black" cx="5587.2" cy="-3043.03" rx="63.89" ry="18"/>
<text text-anchor="start" x="5546.2" y="-3039.33" font-family="Times New Roman,serif" font-size="14.00">george w bush</text>
</g>
<!-- Entity16&#45;&gt;Entity20 -->
<g id="edge3" class="edge verb">
<title>Entity16&#45;&gt;Entity20</title>
<path fill="none" stroke="black" d="M5890.54,-2865.58C5830.55,-2900.68 5690.58,-2982.56 5623.85,-3021.59"/>
<polygon fill="black" stroke="black" points="5621.8,-3018.74 5614.94,-3026.81 5625.33,-3024.78 5621.8,-3018.74"/>
<text text-anchor="start" x="5725.19" y="-2947.39" font-family="Times New Roman,serif" font-size="14.00">father</text>
</g>
<!-- Entity16&#45;&gt;Entity66 -->
<g id="edge20" class="edge verb">
<title>Entity16&#45;&gt;Entity66</title>
<path fill="none" stroke="black" d="M5862.86,-2859.59C5769.28,-2877.21 5583.31,-2912.25 5502.03,-2927.56"/>
<polygon fill="black" stroke="black" points="5501.37,-2924.12 5492.19,-2929.41 5502.67,-2931 5501.37,-2924.12"/>
<text text-anchor="start" x="5666.44" y="-2897.37" font-family="Times New Roman,serif" font-size="14.00">isa</text>
</g>
<!-- Entity20&#45;&gt;Entity66 -->
<g id="edge42" class="edge verb">
<title>Entity20&#45;&gt;Entity66</title>
<path fill="none" stroke="black" d="M5567.44,-3025.92C5545.93,-3007.29 5511.48,-2977.45 5487.95,-2957.08"/>
<polygon fill="black" stroke="black" points="5489.98,-2954.2 5480.13,-2950.3 5485.4,-2959.49 5489.98,-2954.2"/>
<text text-anchor="start" x="5511.7" y="-2995.3" font-family="Times New Roman,serif" font-size="14.00">isa</text>
</g>
<!-- Entity2 -->
<g id="node7" class="node entity">
<title>Entity2</title>
<ellipse fill="none" stroke="black" cx="2662.18" cy="-2523.99" rx="41.69" ry="18"/>
<text text-anchor="start" x="2638.18" y="-2520.29" font-family="Times New Roman,serif" font-size="14.00">uri geller</text>
</g>
<!-- Entity2&#45;&gt;Entity8 -->
<g id="edge4" class="edge verb">
<title>Entity2&#45;&gt;Entity8</title>
<path fill="none" stroke="black" d="M2639.31,-2508.74C2610.93,-2489.81 2562.42,-2457.47 2530.83,-2436.41"/>
<polygon fill="black" stroke="black" points="2532.66,-2433.42 2522.4,-2430.79 2528.78,-2439.25 2532.66,-2433.42"/>
<text text-anchor="start" x="2481.07" y="-2476.37" font-family="Times New Roman,serif" font-size="14.00">claiemd to channel</text>
</g>
<!-- Entity26 -->
<g id="node8" class="node entity">
<title>Entity26</title>
<ellipse fill="none" stroke="black" cx="856.99" cy="-4270.71" rx="49.29" ry="18"/>
<text text-anchor="start" x="826.99" y="-4267.01" font-family="Times New Roman,serif" font-size="14.00">adolf hitler</text>
</g>
<!-- Entity28 -->
<g id="node9" class="node entity">
<title>Entity28</title>
<ellipse fill="none" stroke="black" cx="1248.26" cy="-4182.65" rx="32.49" ry="18"/>
<text text-anchor="start" x="1231.26" y="-4178.95" font-family="Times New Roman,serif" font-size="14.00">nsdap</text>
</g>
<!-- Entity26&#45;&gt;Entity28 -->
<g id="edge5" class="edge verb">
<title>Entity26&#45;&gt;Entity28</title>
<path fill="none" stroke="black" d="M899.24,-4261.2C975.2,-4244.11 1133.85,-4208.4 1208.2,-4191.67"/>
<polygon fill="black" stroke="black" points="1209.13,-4195.04 1218.11,-4189.43 1207.59,-4188.22 1209.13,-4195.04"/>
<text text-anchor="start" x="1012.72" y="-4230.23" font-family="Times New Roman,serif" font-size="14.00">created</text>
</g>
<!-- Entity75 -->
<g id="node31" class="node entity">
<title>Entity75</title>
<ellipse fill="none" stroke="black" cx="919.83" cy="-4498.29" rx="38.99" ry="18"/>
<text text-anchor="start" x="897.83" y="-4494.59" font-family="Times New Roman,serif" font-size="14.00">far right</text>
</g>
<!-- Entity28&#45;&gt;Entity75 -->
<g id="edge29" class="edge verb">
<title>Entity28&#45;&gt;Entity75</title>
<path fill="none" stroke="black" d="M1231.98,-4198.3C1178.49,-4249.7 1008.03,-4413.52 944.24,-4474.83"/>
<polygon fill="black" stroke="black" points="941.78,-4472.33 937,-4481.79 946.64,-4477.38 941.78,-4472.33"/>
<text text-anchor="start" x="1027.11" y="-4340.37" font-family="Times New Roman,serif" font-size="14.00">member of</text>
</g>
<!-- Entity15 -->
<g id="node10" class="node entity">
<title>Entity15</title>
<ellipse fill="none" stroke="black" cx="5716.77" cy="-2401.92" rx="59.59" ry="18"/>
<text text-anchor="start" x="5678.77" y="-2398.22" font-family="Times New Roman,serif" font-size="14.00">donald trump</text>
</g>
<!-- Entity48 -->
<g id="node11" class="node entity">
<title>Entity48</title>
<ellipse fill="none" stroke="black" cx="5027.89" cy="-2540.46" rx="50.09" ry="18"/>
<text text-anchor="start" x="4997.39" y="-2536.76" font-family="Times New Roman,serif" font-size="14.00">john trump</text>
</g>
<!-- Entity15&#45;&gt;Entity48 -->
<g id="edge6" class="edge verb">
<title>Entity15&#45;&gt;Entity48</title>
<path fill="none" stroke="black" d="M5666.95,-2411.94C5541.32,-2437.21 5212.36,-2503.36 5082.11,-2529.55"/>
<polygon fill="black" stroke="black" points="5081.09,-2526.19 5071.98,-2531.59 5082.47,-2533.05 5081.09,-2526.19"/>
<text text-anchor="start" x="5315.53" y="-2474.55" font-family="Times New Roman,serif" font-size="14.00">nephew of</text>
</g>
<!-- Entity15&#45;&gt;Entity66 -->
<g id="edge27" class="edge verb">
<title>Entity15&#45;&gt;Entity66</title>
<path fill="none" stroke="black" d="M5708.16,-2419.96C5670.5,-2498.92 5520.06,-2814.28 5475.18,-2908.38"/>
<polygon fill="black" stroke="black" points="5471.97,-2906.98 5470.82,-2917.51 5478.28,-2909.99 5471.97,-2906.98"/>
<text text-anchor="start" x="5575.67" y="-2667.97" font-family="Times New Roman,serif" font-size="14.00">isa</text>
</g>
<!-- Entity48&#45;&gt;Entity22 -->
<g id="edge10" class="edge verb">
<title>Entity48&#45;&gt;Entity22</title>
<path fill="none" stroke="black" d="M4988.99,-2551.97C4885.9,-2582.49 4606.88,-2665.08 4509.1,-2694.03"/>
<polygon fill="black" stroke="black" points="4508.01,-2690.7 4499.41,-2696.89 4509.99,-2697.41 4508.01,-2690.7"/>
<text text-anchor="start" x="4688.04" y="-2626.8" font-family="Times New Roman,serif" font-size="14.00">member of</text>
</g>
<!-- Entity82 -->
<g id="node41" class="node entity">
<title>Entity82</title>
<ellipse fill="none" stroke="black" cx="5385.22" cy="-2407.33" rx="50.89" ry="18"/>
<text text-anchor="start" x="5354.22" y="-2403.63" font-family="Times New Roman,serif" font-size="14.00">nikola tesla</text>
</g>
<!-- Entity48&#45;&gt;Entity82 -->
<g id="edge40" class="edge verb">
<title>Entity48&#45;&gt;Entity82</title>
<path fill="none" stroke="black" d="M5062.8,-2527.45C5128.05,-2503.14 5268.38,-2450.86 5340.47,-2424"/>
<polygon fill="black" stroke="black" points="5342.02,-2427.16 5350.17,-2420.39 5339.58,-2420.6 5342.02,-2427.16"/>
<text text-anchor="start" x="5160.63" y="-2479.53" font-family="Times New Roman,serif" font-size="14.00">studied</text>
</g>
<!-- Entity5 -->
<g id="node12" class="node entity">
<title>Entity5</title>
<ellipse fill="none" stroke="black" cx="2899.62" cy="-2859.03" rx="65.79" ry="18"/>
<text text-anchor="start" x="2857.12" y="-2855.33" font-family="Times New Roman,serif" font-size="14.00">arthur m young</text>
</g>
<!-- Entity5&#45;&gt;Entity8 -->
<g id="edge7" class="edge verb">
<title>Entity5&#45;&gt;Entity8</title>
<path fill="none" stroke="black" d="M2883.72,-2841.39C2821.43,-2772.3 2593.99,-2520.03 2522.1,-2440.29"/>
<polygon fill="black" stroke="black" points="2524.56,-2437.79 2515.26,-2432.7 2519.36,-2442.47 2524.56,-2437.79"/>
<text text-anchor="start" x="2640.91" y="-2644.64" font-family="Times New Roman,serif" font-size="14.00">member&#45;of</text>
</g>
<!-- Entity5&#45;&gt;Entity67 -->
<g id="edge18" class="edge verb">
<title>Entity5&#45;&gt;Entity67</title>
<path fill="none" stroke="black" d="M2955.72,-2849.57C3106.22,-2824.19 3518.85,-2754.61 3686.97,-2726.26"/>
<polygon fill="black" stroke="black" points="3687.68,-2729.69 3696.96,-2724.57 3686.52,-2722.78 3687.68,-2729.69"/>
<text text-anchor="start" x="3280.35" y="-2791.71" font-family="Times New Roman,serif" font-size="14.00">studied</text>
</g>
<!-- Entity72 -->
<g id="node28" class="node entity">
<title>Entity72</title>
<ellipse fill="none" stroke="black" cx="2309.57" cy="-3296.66" rx="53.89" ry="18"/>
<text text-anchor="start" x="2276.07" y="-3292.96" font-family="Times New Roman,serif" font-size="14.00">bell aviation</text>
</g>
<!-- Entity5&#45;&gt;Entity72 -->
<g id="edge24" class="edge verb">
<title>Entity5&#45;&gt;Entity72</title>
<path fill="none" stroke="black" d="M2876.85,-2875.92C2785.39,-2943.76 2444.62,-3196.49 2340.19,-3273.95"/>
<polygon fill="black" stroke="black" points="2337.9,-3271.29 2331.95,-3280.06 2342.07,-3276.91 2337.9,-3271.29"/>
<text text-anchor="start" x="2567.52" y="-3078.73" font-family="Times New Roman,serif" font-size="14.00">created</text>
</g>
<!-- Entity1 -->
<g id="node13" class="node entity">
<title>Entity1</title>
<ellipse fill="none" stroke="black" cx="2192.18" cy="-2471.1" rx="64.19" ry="18"/>
<text text-anchor="start" x="2150.68" y="-2467.4" font-family="Times New Roman,serif" font-size="14.00">andre puharich</text>
</g>
<!-- Entity1&#45;&gt;Entity2 -->
<g id="edge8" class="edge verb">
<title>Entity1&#45;&gt;Entity2</title>
<path fill="none" stroke="black" d="M2252.18,-2477.85C2345.64,-2488.37 2524.28,-2508.47 2611.6,-2518.29"/>
<polygon fill="black" stroke="black" points="2611.46,-2521.8 2621.79,-2519.44 2612.24,-2514.84 2611.46,-2521.8"/>
<text text-anchor="start" x="2371.89" y="-2501.87" font-family="Times New Roman,serif" font-size="14.00">sponsored</text>
</g>
<!-- Entity7 -->
<g id="node14" class="node entity">
<title>Entity7</title>
<ellipse fill="none" stroke="black" cx="3154.16" cy="-2553.61" rx="68.49" ry="18"/>
<text text-anchor="start" x="3109.66" y="-2549.91" font-family="Times New Roman,serif" font-size="14.00">jeffrey mishlove</text>
</g>
<!-- Entity7&#45;&gt;Entity2 -->
<g id="edge9" class="edge verb">
<title>Entity7&#45;&gt;Entity2</title>
<path fill="none" stroke="black" d="M3087.56,-2549.59C2988.19,-2543.61 2803.26,-2532.48 2713.58,-2527.08"/>
<polygon fill="black" stroke="black" points="2713.58,-2523.57 2703.39,-2526.47 2713.16,-2530.56 2713.58,-2523.57"/>
<text text-anchor="start" x="2845.57" y="-2542.14" font-family="Times New Roman,serif" font-size="14.00">promoted</text>
</g>
<!-- Entity7&#45;&gt;Entity67 -->
<g id="edge19" class="edge verb">
<title>Entity7&#45;&gt;Entity67</title>
<path fill="none" stroke="black" d="M3194.85,-2568.14C3296.5,-2599.05 3562.43,-2669.78 3689.77,-2700.1"/>
<polygon fill="black" stroke="black" points="3689.27,-2703.58 3699.81,-2702.48 3690.88,-2696.77 3689.27,-2703.58"/>
<text text-anchor="start" x="3401.31" y="-2637.92" font-family="Times New Roman,serif" font-size="14.00">studied</text>
</g>
<!-- Entity7&#45;&gt;Entity67 -->
<g id="edge26" class="edge verb">
<title>Entity7&#45;&gt;Entity67</title>
<path fill="none" stroke="black" d="M3209.74,-2564.11C3326.08,-2591.22 3593.8,-2662.15 3707.31,-2695.94"/>
<polygon fill="black" stroke="black" points="3706.57,-2699.37 3717.15,-2698.9 3708.58,-2692.67 3706.57,-2699.37"/>
<text text-anchor="start" x="3394.52" y="-2618.83" font-family="Times New Roman,serif" font-size="14.00">investigates</text>
</g>
<!-- Entity30 -->
<g id="node15" class="node entity">
<title>Entity30</title>
<ellipse fill="none" stroke="black" cx="1745.13" cy="-3772.75" rx="74.99" ry="18"/>
<text text-anchor="start" x="1695.63" y="-3769.05" font-family="Times New Roman,serif" font-size="14.00">walter dornberger</text>
</g>
<!-- Entity30&#45;&gt;Entity28 -->
<g id="edge11" class="edge verb">
<title>Entity30&#45;&gt;Entity28</title>
<path fill="none" stroke="black" d="M1724.09,-3790.1C1644.56,-3855.72 1362.23,-4088.63 1274.48,-4161.02"/>
<polygon fill="black" stroke="black" points="1272.1,-4158.45 1266.61,-4167.51 1276.55,-4163.85 1272.1,-4158.45"/>
<text text-anchor="start" x="1438.29" y="-3979.36" font-family="Times New Roman,serif" font-size="14.00">member of</text>
</g>
<!-- Entity30&#45;&gt;Entity72 -->
<g id="edge35" class="edge verb">
<title>Entity30&#45;&gt;Entity72</title>
<path fill="none" stroke="black" d="M1769.81,-3755.69C1863.18,-3683.62 2193.75,-3404.86 2285.71,-3320.75"/>
<polygon fill="black" stroke="black" points="2288.16,-3323.26 2293.14,-3313.9 2283.41,-3318.11 2288.16,-3323.26"/>
<text text-anchor="start" x="1948.76" y="-3542.02" font-family="Times New Roman,serif" font-size="14.00">vice&#45;president</text>
</g>
<!-- Entity30&#45;&gt;Entity72 -->
<g id="edge49" class="edge verb">
<title>Entity30&#45;&gt;Entity72</title>
<path fill="none" stroke="black" d="M1761.9,-3755.18C1840.62,-3681.85 2173.14,-3401.11 2277.88,-3319.16"/>
<polygon fill="black" stroke="black" points="2280.13,-3321.85 2285.88,-3312.95 2275.83,-3316.32 2280.13,-3321.85"/>
<text text-anchor="start" x="1963.89" y="-3525.97" font-family="Times New Roman,serif" font-size="14.00">worked at</text>
</g>
<!-- Entity76 -->
<g id="node35" class="node entity">
<title>Entity76</title>
<ellipse fill="none" stroke="black" cx="1136.43" cy="-3801.98" rx="90.98" ry="18"/>
<text text-anchor="start" x="1074.43" y="-3798.28" font-family="Times New Roman,serif" font-size="14.00">nsdap rocket program</text>
</g>
<!-- Entity30&#45;&gt;Entity76 -->
<g id="edge36" class="edge verb">
<title>Entity30&#45;&gt;Entity76</title>
<path fill="none" stroke="black" d="M1671.7,-3776.27C1562.52,-3781.52 1357.15,-3791.38 1234.99,-3797.25"/>
<polygon fill="black" stroke="black" points="1234.71,-3793.76 1224.89,-3797.73 1235.05,-3800.75 1234.71,-3793.76"/>
<text text-anchor="start" x="1412.35" y="-3790.56" font-family="Times New Roman,serif" font-size="14.00">created</text>
</g>
<!-- Entity104 -->
<g id="node55" class="node entity">
<title>Entity104</title>
<ellipse fill="none" stroke="black" cx="1805.71" cy="-3880.73" rx="65.79" ry="18"/>
<text text-anchor="start" x="1763.21" y="-3877.03" font-family="Times New Roman,serif" font-size="14.00">x series aircraft</text>
</g>
<!-- Entity30&#45;&gt;Entity104 -->
<g id="edge59" class="edge verb">
<title>Entity30&#45;&gt;Entity104</title>
<path fill="none" stroke="black" d="M1755.4,-3791.07C1765.08,-3808.31 1779.69,-3834.35 1790.67,-3853.92"/>
<polygon fill="black" stroke="black" points="1787.64,-3855.67 1795.59,-3862.68 1793.74,-3852.25 1787.64,-3855.67"/>
<text text-anchor="start" x="1732.04" y="-3826.3" font-family="Times New Roman,serif" font-size="14.00">created</text>
</g>
<!-- Entity32 -->
<g id="node16" class="node entity">
<title>Entity32</title>
<ellipse fill="none" stroke="black" cx="1319.08" cy="-3909.94" rx="46.29" ry="18"/>
<text text-anchor="start" x="1291.58" y="-3906.24" font-family="Times New Roman,serif" font-size="14.00">van braun</text>
</g>
<!-- Entity32&#45;&gt;Entity30 -->
<g id="edge12" class="edge verb">
<title>Entity32&#45;&gt;Entity30</title>
<path fill="none" stroke="black" d="M1354.67,-3898.47C1429.17,-3874.48 1601.97,-3818.84 1690.58,-3790.31"/>
<polygon fill="black" stroke="black" points="1691.73,-3793.62 1700.18,-3787.22 1689.59,-3786.95 1691.73,-3793.62"/>
<text text-anchor="start" x="1459.62" y="-3848.19" font-family="Times New Roman,serif" font-size="14.00">worked for</text>
</g>
<!-- Entity32&#45;&gt;Entity76 -->
<g id="edge48" class="edge verb">
<title>Entity32&#45;&gt;Entity76</title>
<path fill="none" stroke="black" d="M1293.29,-3894.7C1262.2,-3876.32 1209.68,-3845.28 1174.06,-3824.22"/>
<polygon fill="black" stroke="black" points="1175.79,-3821.18 1165.4,-3819.1 1172.22,-3827.2 1175.79,-3821.18"/>
<text text-anchor="start" x="1177.68" y="-3863.26" font-family="Times New Roman,serif" font-size="14.00">worked at</text>
</g>
<!-- Entity29 -->
<g id="node17" class="node entity">
<title>Entity29</title>
<ellipse fill="none" stroke="black" cx="5317.71" cy="-3654.74" rx="37.89" ry="18"/>
<text text-anchor="start" x="5296.71" y="-3651.04" font-family="Times New Roman,serif" font-size="14.00">hunt oil</text>
</g>
<!-- Entity36 -->
<g id="node18" class="node entity">
<title>Entity36</title>
<ellipse fill="none" stroke="black" cx="5339.77" cy="-3546.81" rx="77.99" ry="18"/>
<text text-anchor="start" x="5287.77" y="-3543.11" font-family="Times New Roman,serif" font-size="14.00">dwight eisenhower</text>
</g>
<!-- Entity29&#45;&gt;Entity36 -->
<g id="edge13" class="edge verb">
<title>Entity29&#45;&gt;Entity36</title>
<path fill="none" stroke="black" d="M5321.45,-3636.43C5324.91,-3619.51 5330.1,-3594.11 5334.08,-3574.67"/>
<polygon fill="black" stroke="black" points="5337.51,-3575.35 5336.08,-3564.85 5330.65,-3573.94 5337.51,-3575.35"/>
<text text-anchor="start" x="5287.76" y="-3609.35" font-family="Times New Roman,serif" font-size="14.00">funded</text>
</g>
<!-- Entity36&#45;&gt;Entity66 -->
<g id="edge34" class="edge verb">
<title>Entity36&#45;&gt;Entity66</title>
<path fill="none" stroke="black" d="M5343.44,-3528.5C5360.93,-3441.33 5435.75,-3068.24 5456.89,-2962.84"/>
<polygon fill="black" stroke="black" points="5460.34,-2963.44 5458.87,-2952.95 5453.48,-2962.07 5460.34,-2963.44"/>
<text text-anchor="start" x="5400.17" y="-3249.47" font-family="Times New Roman,serif" font-size="14.00">is a</text>
</g>
<!-- Entity11 -->
<g id="node19" class="node entity">
<title>Entity11</title>
<ellipse fill="none" stroke="black" cx="5947.92" cy="-3106.57" rx="56.59" ry="18"/>
<text text-anchor="start" x="5912.42" y="-3102.87" font-family="Times New Roman,serif" font-size="14.00">harry truman</text>
</g>
<!-- Entity11&#45;&gt;Entity66 -->
<g id="edge14" class="edge verb">
<title>Entity11&#45;&gt;Entity66</title>
<path fill="none" stroke="black" d="M5909.83,-3093.11C5818.48,-3060.83 5587.94,-2979.35 5498.61,-2947.78"/>
<polygon fill="black" stroke="black" points="5499.77,-2944.48 5489.18,-2944.45 5497.44,-2951.08 5499.77,-2944.48"/>
<text text-anchor="start" x="5688.22" y="-3024.24" font-family="Times New Roman,serif" font-size="14.00">isa</text>
</g>
<!-- Entity69 -->
<g id="node24" class="node entity">
<title>Entity69</title>
<ellipse fill="none" stroke="black" cx="6429.44" cy="-3327.91" rx="55.79" ry="18"/>
<text text-anchor="start" x="6394.44" y="-3324.21" font-family="Times New Roman,serif" font-size="14.00">freemasonry</text>
</g>
<!-- Entity11&#45;&gt;Entity69 -->
<g id="edge17" class="edge verb">
<title>Entity11&#45;&gt;Entity69</title>
<path fill="none" stroke="black" d="M5980.26,-3121.44C6065.07,-3160.42 6293.81,-3265.57 6388.02,-3308.87"/>
<polygon fill="black" stroke="black" points="6386.69,-3312.12 6397.24,-3313.11 6389.62,-3305.76 6386.69,-3312.12"/>
<text text-anchor="start" x="6123.14" y="-3218.96" font-family="Times New Roman,serif" font-size="14.00">member of</text>
</g>
<!-- Entity63 -->
<g id="node21" class="node entity">
<title>Entity63</title>
<ellipse fill="none" stroke="black" cx="6100.73" cy="-3929.77" rx="53.89" ry="18"/>
<text text-anchor="start" x="6067.23" y="-3926.07" font-family="Times New Roman,serif" font-size="14.00">edgar casey</text>
</g>
<!-- Entity59 -->
<g id="node22" class="node entity">
<title>Entity59</title>
<ellipse fill="none" stroke="black" cx="5788.91" cy="-3444.68" rx="71.49" ry="18"/>
<text text-anchor="start" x="5741.91" y="-3440.98" font-family="Times New Roman,serif" font-size="14.00">woodrow wilson</text>
</g>
<!-- Entity63&#45;&gt;Entity59 -->
<g id="edge15" class="edge verb">
<title>Entity63&#45;&gt;Entity59</title>
<path fill="none" stroke="black" d="M6089.26,-3911.93C6042.04,-3838.46 5862.46,-3559.09 5806,-3471.27"/>
<polygon fill="black" stroke="black" points="5808.83,-3469.2 5800.48,-3462.68 5802.95,-3472.99 5808.83,-3469.2"/>
<text text-anchor="start" x="5905.63" y="-3695.4" font-family="Times New Roman,serif" font-size="14.00">advises</text>
</g>
<!-- Entity59&#45;&gt;Entity66 -->
<g id="edge30" class="edge verb">
<title>Entity59&#45;&gt;Entity66</title>
<path fill="none" stroke="black" d="M5777.48,-3426.84C5728.5,-3350.36 5536.14,-3050.02 5478.73,-2960.39"/>
<polygon fill="black" stroke="black" points="5481.65,-2958.46 5473.31,-2951.92 5475.75,-2962.23 5481.65,-2958.46"/>
<text text-anchor="start" x="5612.11" y="-3197.42" font-family="Times New Roman,serif" font-size="14.00">isa</text>
</g>
<!-- Entity92 -->
<g id="node50" class="node entity">
<title>Entity92</title>
<ellipse fill="none" stroke="black" cx="5836.79" cy="-3552.66" rx="71.49" ry="18"/>
<text text-anchor="start" x="5789.79" y="-3548.96" font-family="Times New Roman,serif" font-size="14.00">leauge of nations</text>
</g>
<!-- Entity59&#45;&gt;Entity92 -->
<g id="edge54" class="edge verb">
<title>Entity59&#45;&gt;Entity92</title>
<path fill="none" stroke="black" d="M5797.03,-3463C5804.61,-3480.09 5816.01,-3505.81 5824.67,-3525.32"/>
<polygon fill="black" stroke="black" points="5821.53,-3526.89 5828.79,-3534.61 5827.93,-3524.05 5821.53,-3526.89"/>
<text text-anchor="start" x="5769.85" y="-3497.96" font-family="Times New Roman,serif" font-size="14.00">created</text>
</g>
<!-- Entity18 -->
<g id="node26" class="node entity">
<title>Entity18</title>
<ellipse fill="none" stroke="black" cx="5354.62" cy="-3258.85" rx="35.19" ry="18"/>
<text text-anchor="start" x="5335.62" y="-3255.15" font-family="Times New Roman,serif" font-size="14.00">obama</text>
</g>
<!-- Entity18&#45;&gt;Entity66 -->
<g id="edge21" class="edge verb">
<title>Entity18&#45;&gt;Entity66</title>
<path fill="none" stroke="black" d="M5360.57,-3240.98C5378.47,-3187.24 5431.89,-3026.84 5453.38,-2962.33"/>
<polygon fill="black" stroke="black" points="5456.7,-2963.42 5456.54,-2952.83 5450.06,-2961.21 5456.7,-2963.42"/>
<text text-anchor="start" x="5390.97" y="-3105.45" font-family="Times New Roman,serif" font-size="14.00">isa</text>
</g>
<!-- Entity12 -->
<g id="node27" class="node entity">
<title>Entity12</title>
<ellipse fill="none" stroke="black" cx="5771.95" cy="-3222.74" rx="58.49" ry="18"/>
<text text-anchor="start" x="5734.95" y="-3219.04" font-family="Times New Roman,serif" font-size="14.00">richard nixon</text>
</g>
<!-- Entity12&#45;&gt;Entity66 -->
<g id="edge22" class="edge verb">
<title>Entity12&#45;&gt;Entity66</title>
<path fill="none" stroke="black" d="M5753.52,-3205.6C5700.34,-3156.16 5546.64,-3013.26 5486.76,-2957.59"/>
<polygon fill="black" stroke="black" points="5488.99,-2954.88 5479.28,-2950.64 5484.22,-2960.01 5488.99,-2954.88"/>
<text text-anchor="start" x="5604.14" y="-3085.4" font-family="Times New Roman,serif" font-size="14.00">isa</text>
</g>
<!-- Entity24 -->
<g id="node29" class="node entity">
<title>Entity24</title>
<ellipse fill="none" stroke="black" cx="3519.48" cy="-2822" rx="63.89" ry="18"/>
<text text-anchor="start" x="3478.48" y="-2818.3" font-family="Times New Roman,serif" font-size="14.00">robert bigelow</text>
</g>
<!-- Entity24&#45;&gt;Entity7 -->
<g id="edge25" class="edge verb">
<title>Entity24&#45;&gt;Entity7</title>
<path fill="none" stroke="black" d="M3496.35,-2805C3433.2,-2758.61 3257.76,-2629.71 3185.69,-2576.77"/>
<polygon fill="black" stroke="black" points="3187.56,-2573.8 3177.43,-2570.7 3183.41,-2579.44 3187.56,-2573.8"/>
<text text-anchor="start" x="3309.02" y="-2694.68" font-family="Times New Roman,serif" font-size="14.00">funds</text>
</g>
<!-- Entity24&#45;&gt;Entity67 -->
<g id="edge45" class="edge verb">
<title>Entity24&#45;&gt;Entity67</title>
<path fill="none" stroke="black" d="M3553.39,-2806.75C3595.61,-2787.77 3667.88,-2755.27 3714.71,-2734.22"/>
<polygon fill="black" stroke="black" points="3716.32,-2737.33 3724,-2730.04 3713.45,-2730.95 3716.32,-2737.33"/>
<text text-anchor="start" x="3570.05" y="-2774.29" font-family="Times New Roman,serif" font-size="14.00">investigates</text>
</g>
<!-- Entity44 -->
<g id="node30" class="node entity">
<title>Entity44</title>
<ellipse fill="none" stroke="black" cx="6311.48" cy="-1890.75" rx="58.49" ry="18"/>
<text text-anchor="start" x="6274.48" y="-1887.05" font-family="Times New Roman,serif" font-size="14.00">steve bannon</text>
</g>
<!-- Entity44&#45;&gt;Entity15 -->
<g id="edge28" class="edge verb">
<title>Entity44&#45;&gt;Entity15</title>
<path fill="none" stroke="black" d="M6287.81,-1907.46C6192.36,-1982.57 5836.72,-2288.16 5740.73,-2377.41"/>
<polygon fill="black" stroke="black" points="5738.16,-2375.02 5733.26,-2384.41 5742.95,-2380.12 5738.16,-2375.02"/>
<text text-anchor="start" x="5959.27" y="-2146.23" font-family="Times New Roman,serif" font-size="14.00">promoted</text>
</g>
<!-- Entity44&#45;&gt;Entity15 -->
<g id="edge64" class="edge verb">
<title>Entity44&#45;&gt;Entity15</title>
<path fill="none" stroke="black" d="M6295,-1908.24C6213.91,-1985.07 5857.53,-2291.68 5748.52,-2378.8"/>
<polygon fill="black" stroke="black" points="5746.17,-2376.19 5740.51,-2385.15 5750.52,-2381.68 5746.17,-2376.19"/>
<text text-anchor="start" x="6021.76" y="-2147.32" font-family="Times New Roman,serif" font-size="14.00">advises</text>
</g>
<!-- Entity83 -->
<g id="node40" class="node entity">
<title>Entity83</title>
<ellipse fill="none" stroke="black" cx="6923.09" cy="-1760.25" rx="61.99" ry="18"/>
<text text-anchor="start" x="6883.59" y="-1756.55" font-family="Times New Roman,serif" font-size="14.00">breitbart news</text>
</g>
<!-- Entity44&#45;&gt;Entity83 -->
<g id="edge46" class="edge verb">
<title>Entity44&#45;&gt;Entity83</title>
<path fill="none" stroke="black" d="M6359.72,-1880.45C6470.43,-1856.83 6742.44,-1798.8 6863.41,-1772.99"/>
<polygon fill="black" stroke="black" points="6864.2,-1776.4 6873.25,-1770.89 6862.74,-1769.55 6864.2,-1776.4"/>
<text text-anchor="start" x="6570.57" y="-1830.52" font-family="Times New Roman,serif" font-size="14.00">created</text>
</g>
<!-- Entity89 -->
<g id="node49" class="node entity">
<title>Entity89</title>
<ellipse fill="none" stroke="black" cx="6748.02" cy="-1998.69" rx="35.19" ry="18"/>
<text text-anchor="start" x="6729.02" y="-1994.99" font-family="Times New Roman,serif" font-size="14.00">gurgev</text>
</g>
<!-- Entity44&#45;&gt;Entity89 -->
<g id="edge53" class="edge verb">
<title>Entity44&#45;&gt;Entity89</title>
<path fill="none" stroke="black" d="M6357.37,-1902.09C6442.69,-1923.19 6624.48,-1968.14 6706.43,-1988.4"/>
<polygon fill="black" stroke="black" points="6705.6,-1991.8 6716.15,-1990.8 6707.28,-1985.01 6705.6,-1991.8"/>
<text text-anchor="start" x="6490.9" y="-1949.05" font-family="Times New Roman,serif" font-size="14.00">studied</text>
</g>
<!-- Entity91 -->
<g id="node51" class="node entity">
<title>Entity91</title>
<ellipse fill="none" stroke="black" cx="6660.76" cy="-1652.26" rx="38.19" ry="18"/>
<text text-anchor="start" x="6639.26" y="-1648.56" font-family="Times New Roman,serif" font-size="14.00">us navy</text>
</g>
<!-- Entity44&#45;&gt;Entity91 -->
<g id="edge55" class="edge verb">
<title>Entity44&#45;&gt;Entity91</title>
<path fill="none" stroke="black" d="M6335.76,-1874.16C6397.8,-1831.81 6562.01,-1719.68 6630.3,-1673.06"/>
<polygon fill="black" stroke="black" points="6632.61,-1675.71 6638.9,-1667.18 6628.67,-1669.93 6632.61,-1675.71"/>
<text text-anchor="start" x="6422.03" y="-1777.41" font-family="Times New Roman,serif" font-size="14.00">member of</text>
</g>
<!-- Entity94 -->
<g id="node53" class="node entity">
<title>Entity94</title>
<ellipse fill="none" stroke="black" cx="6686.79" cy="-1510.28" rx="53.09" ry="18"/>
<text text-anchor="start" x="6653.79" y="-1506.58" font-family="Times New Roman,serif" font-size="14.00">biosphere 2</text>
</g>
<!-- Entity44&#45;&gt;Entity94 -->
<g id="edge57" class="edge verb">
<title>Entity44&#45;&gt;Entity94</title>
<path fill="none" stroke="black" d="M6328.58,-1873.41C6388.9,-1812.26 6591.91,-1606.46 6662.42,-1534.99"/>
<polygon fill="black" stroke="black" points="6665.05,-1537.3 6669.59,-1527.72 6660.07,-1532.38 6665.05,-1537.3"/>
<text text-anchor="start" x="6454.5" y="-1708" font-family="Times New Roman,serif" font-size="14.00">created</text>
</g>
<!-- Entity107 -->
<g id="node58" class="node entity">
<title>Entity107</title>
<ellipse fill="none" stroke="black" cx="6297.07" cy="-1782.81" rx="77.19" ry="18"/>
<text text-anchor="start" x="6245.57" y="-1779.11" font-family="Times New Roman,serif" font-size="14.00">hollywood movies</text>
</g>
<!-- Entity44&#45;&gt;Entity107 -->
<g id="edge61" class="edge verb">
<title>Entity44&#45;&gt;Entity107</title>
<path fill="none" stroke="black" d="M6309.03,-1872.43C6306.78,-1855.59 6303.42,-1830.34 6300.83,-1810.94"/>
<polygon fill="black" stroke="black" points="6304.27,-1810.3 6299.48,-1800.85 6297.33,-1811.22 6304.27,-1810.3"/>
<text text-anchor="start" x="6249.93" y="-1845.49" font-family="Times New Roman,serif" font-size="14.00">produced</text>
</g>
<!-- Entity111 -->
<g id="node59" class="node entity">
<title>Entity111</title>
<ellipse fill="none" stroke="black" cx="6509.99" cy="-1369.35" rx="64.99" ry="18"/>
<text text-anchor="start" x="6467.99" y="-1365.65" font-family="Times New Roman,serif" font-size="14.00">goldman sachs</text>
</g>
<!-- Entity44&#45;&gt;Entity111 -->
<g id="edge66" class="edge verb">
<title>Entity44&#45;&gt;Entity111</title>
<path fill="none" stroke="black" d="M6318.31,-1872.8C6347.75,-1795.48 6463.85,-1490.54 6499.51,-1396.87"/>
<polygon fill="black" stroke="black" points="6502.79,-1398.09 6503.08,-1387.5 6496.25,-1395.6 6502.79,-1398.09"/>
<text text-anchor="start" x="6345.91" y="-1638.64" font-family="Times New Roman,serif" font-size="14.00">worked for</text>
</g>
<!-- Entity33 -->
<g id="node32" class="node entity">
<title>Entity33</title>
<ellipse fill="none" stroke="black" cx="1841.44" cy="-3321.63" rx="57.69" ry="18"/>
<text text-anchor="start" x="1804.94" y="-3317.93" font-family="Times New Roman,serif" font-size="14.00">michael pane</text>
</g>
<!-- Entity33&#45;&gt;Entity30 -->
<g id="edge47" class="edge verb">
<title>Entity33&#45;&gt;Entity30</title>
<path fill="none" stroke="black" d="M1837.6,-3339.6C1822.77,-3409.06 1769.12,-3660.38 1751.08,-3744.84"/>
<polygon fill="black" stroke="black" points="1747.64,-3744.22 1748.97,-3754.73 1754.48,-3745.69 1747.64,-3744.22"/>
<text text-anchor="start" x="1731.34" y="-3546.02" font-family="Times New Roman,serif" font-size="14.00">worked for</text>
</g>
<!-- Entity33&#45;&gt;Entity72 -->
<g id="edge31" class="edge verb">
<title>Entity33&#45;&gt;Entity72</title>
<path fill="none" stroke="black" d="M1898.84,-3318.57C1986.76,-3313.88 2154.19,-3304.95 2245.79,-3300.06"/>
<polygon fill="black" stroke="black" points="2246.24,-3303.54 2256.04,-3299.52 2245.86,-3296.55 2246.24,-3303.54"/>
<text text-anchor="start" x="2016.32" y="-3313.12" font-family="Times New Roman,serif" font-size="14.00">worked at</text>
</g>
<!-- Entity45 -->
<g id="node33" class="node entity">
<title>Entity45</title>
<ellipse fill="none" stroke="black" cx="5334.55" cy="-2299.16" rx="67.69" ry="18"/>
<text text-anchor="start" x="5290.55" y="-2295.46" font-family="Times New Roman,serif" font-size="14.00">abraham lincoln</text>
</g>
<!-- Entity45&#45;&gt;Entity66 -->
<g id="edge32" class="edge verb">
<title>Entity45&#45;&gt;Entity66</title>
<path fill="none" stroke="black" d="M5338.17,-2317.16C5356.06,-2406.06 5434.95,-2798.21 5456.83,-2906.96"/>
<polygon fill="black" stroke="black" points="5453.42,-2907.74 5458.82,-2916.86 5460.28,-2906.36 5453.42,-2907.74"/>
<text text-anchor="start" x="5381.5" y="-2615.86" font-family="Times New Roman,serif" font-size="14.00">isa</text>
</g>
<!-- Entity38 -->
<g id="node34" class="node entity">
<title>Entity38</title>
<ellipse fill="none" stroke="black" cx="5255.16" cy="-1478.19" rx="90.98" ry="18"/>
<text text-anchor="start" x="5193.16" y="-1474.49" font-family="Times New Roman,serif" font-size="14.00">emma hardinge&#45;britten</text>
</g>
<!-- Entity38&#45;&gt;Entity45 -->
<g id="edge33" class="edge verb">
<title>Entity38&#45;&gt;Entity45</title>
<path fill="none" stroke="black" d="M5256.93,-1496.49C5267.21,-1602.8 5319.24,-2140.8 5331.81,-2270.83"/>
<polygon fill="black" stroke="black" points="5328.33,-2271.2 5332.78,-2280.81 5335.3,-2270.52 5328.33,-2271.2"/>
<text text-anchor="start" x="5195.37" y="-1887.46" font-family="Times New Roman,serif" font-size="14.00">spokesperson for</text>
</g>
<!-- Entity79 -->
<g id="node38" class="node entity">
<title>Entity79</title>
<ellipse fill="none" stroke="black" cx="5002.4" cy="-961.74" rx="39.79" ry="18"/>
<text text-anchor="start" x="4979.9" y="-958.04" font-family="Times New Roman,serif" font-size="14.00">medium</text>
</g>
<!-- Entity38&#45;&gt;Entity79 -->
<g id="edge38" class="edge verb">
<title>Entity38&#45;&gt;Entity79</title>
<path fill="none" stroke="black" d="M5246.31,-1460.11C5208.55,-1382.94 5060.7,-1080.87 5015.56,-988.63"/>
<polygon fill="black" stroke="black" points="5018.59,-986.85 5011.05,-979.41 5012.3,-989.93 5018.59,-986.85"/>
<text text-anchor="start" x="5114.94" y="-1228.17" font-family="Times New Roman,serif" font-size="14.00">isa</text>
</g>
<!-- Entity86 -->
<g id="node48" class="node entity">
<title>Entity86</title>
<ellipse fill="none" stroke="black" cx="5284.05" cy="-1370.2" rx="85.29" ry="18"/>
<text text-anchor="start" x="5226.55" y="-1366.5" font-family="Times New Roman,serif" font-size="14.00">theosophical society</text>
</g>
<!-- Entity38&#45;&gt;Entity86 -->
<g id="edge65" class="edge verb">
<title>Entity38&#45;&gt;Entity86</title>
<path fill="none" stroke="black" d="M5260.06,-1459.87C5264.59,-1442.94 5271.39,-1417.53 5276.6,-1398.08"/>
<polygon fill="black" stroke="black" points="5280.02,-1398.82 5279.22,-1388.25 5273.26,-1397.01 5280.02,-1398.82"/>
<text text-anchor="start" x="5227.33" y="-1432.77" font-family="Times New Roman,serif" font-size="14.00">created</text>
</g>
<!-- Entity99 -->
<g id="node54" class="node entity">
<title>Entity99</title>
<ellipse fill="none" stroke="black" cx="5498.69" cy="-908.63" rx="55.79" ry="18"/>
<text text-anchor="start" x="5463.69" y="-904.93" font-family="Times New Roman,serif" font-size="14.00">orphic circle</text>
</g>
<!-- Entity38&#45;&gt;Entity99 -->
<g id="edge58" class="edge verb">
<title>Entity38&#45;&gt;Entity99</title>
<path fill="none" stroke="black" d="M5262.85,-1460.2C5298.1,-1377.75 5444.35,-1035.71 5486.98,-936.02"/>
<polygon fill="black" stroke="black" points="5490.28,-937.19 5490.99,-926.62 5483.85,-934.44 5490.28,-937.19"/>
<text text-anchor="start" x="5313.92" y="-1201.91" font-family="Times New Roman,serif" font-size="14.00">member of</text>
</g>
<!-- Entity42 -->
<g id="node36" class="node entity">
<title>Entity42</title>
<ellipse fill="none" stroke="black" cx="3683.94" cy="-2327.66" rx="53.89" ry="18"/>
<text text-anchor="start" x="3650.44" y="-2323.96" font-family="Times New Roman,serif" font-size="14.00">black magic</text>
</g>
<!-- Entity81 -->
<g id="node37" class="node entity">
<title>Entity81</title>
<ellipse fill="none" stroke="black" cx="3771.66" cy="-2439.64" rx="28.7" ry="18"/>
<text text-anchor="start" x="3757.66" y="-2435.94" font-family="Times New Roman,serif" font-size="14.00">x left</text>
</g>
<!-- Entity42&#45;&gt;Entity81 -->
<g id="edge37" class="edge verb">
<title>Entity42&#45;&gt;Entity81</title>
<path fill="none" stroke="black" d="M3697.64,-2345.16C3712.45,-2364.05 3736.14,-2394.29 3752.72,-2415.45"/>
<polygon fill="black" stroke="black" points="3749.98,-2417.64 3758.9,-2423.36 3755.49,-2413.32 3749.98,-2417.64"/>
<text text-anchor="start" x="3664.18" y="-2384.11" font-family="Times New Roman,serif" font-size="14.00">member of</text>
</g>
<!-- Entity47 -->
<g id="node39" class="node entity">
<title>Entity47</title>
<ellipse fill="none" stroke="black" cx="7480.11" cy="-1595.41" rx="69.59" ry="18"/>
<text text-anchor="start" x="7434.61" y="-1591.71" font-family="Times New Roman,serif" font-size="14.00">andrew breitbart</text>
</g>
<!-- Entity47&#45;&gt;Entity83 -->
<g id="edge39" class="edge verb">
<title>Entity47&#45;&gt;Entity83</title>
<path fill="none" stroke="black" d="M7434.06,-1609.04C7331.56,-1639.38 7085.11,-1712.31 6976.28,-1744.51"/>
<polygon fill="black" stroke="black" points="6975.09,-1741.22 6966.5,-1747.41 6977.08,-1747.93 6975.09,-1741.22"/>
<text text-anchor="start" x="7164.17" y="-1680.58" font-family="Times New Roman,serif" font-size="14.00">created</text>
</g>
<!-- Entity35 -->
<g id="node42" class="node entity">
<title>Entity35</title>
<ellipse fill="none" stroke="black" cx="4329.94" cy="-1997.66" rx="39.79" ry="18"/>
<text text-anchor="start" x="4307.44" y="-1993.96" font-family="Times New Roman,serif" font-size="14.00">crowley</text>
</g>
<!-- Entity80 -->
<g id="node43" class="node entity">
<title>Entity80</title>
<ellipse fill="none" stroke="black" cx="4417.66" cy="-2109.64" rx="38.99" ry="18"/>
<text text-anchor="start" x="4395.66" y="-2105.94" font-family="Times New Roman,serif" font-size="14.00">x magic</text>
</g>
<!-- Entity35&#45;&gt;Entity80 -->
<g id="edge41" class="edge verb">
<title>Entity35&#45;&gt;Entity80</title>
<path fill="none" stroke="black" d="M4343.26,-2014.67C4357.82,-2033.25 4381.28,-2063.2 4397.96,-2084.49"/>
<polygon fill="black" stroke="black" points="4395.29,-2086.76 4404.21,-2092.47 4400.8,-2082.44 4395.29,-2086.76"/>
<text text-anchor="start" x="4309.61" y="-2053.38" font-family="Times New Roman,serif" font-size="14.00">member of</text>
</g>
<!-- Entity19 -->
<g id="node44" class="node entity">
<title>Entity19</title>
<ellipse fill="none" stroke="black" cx="5087.37" cy="-2916.69" rx="31.4" ry="18"/>
<text text-anchor="start" x="5071.37" y="-2912.99" font-family="Times New Roman,serif" font-size="14.00">carter</text>
</g>
<!-- Entity19&#45;&gt;Entity66 -->
<g id="edge44" class="edge verb">
<title>Entity19&#45;&gt;Entity66</title>
<path fill="none" stroke="black" d="M5118.71,-2918.22C5186.23,-2921.52 5345.44,-2929.29 5421.12,-2932.99"/>
<polygon fill="black" stroke="black" points="5421.07,-2936.49 5431.23,-2933.48 5421.41,-2929.5 5421.07,-2936.49"/>
<text text-anchor="start" x="5253.91" y="-2929.41" font-family="Times New Roman,serif" font-size="14.00">isa</text>
</g>
<!-- Entity19&#45;&gt;Entity90 -->
<g id="edge56" class="edge verb">
<title>Entity19&#45;&gt;Entity90</title>
<path fill="none" stroke="black" d="M5057.66,-2910.82C4993.92,-2898.23 4844.29,-2868.66 4775.09,-2854.98"/>
<polygon fill="black" stroke="black" points="4775.58,-2851.51 4765.09,-2853.01 4774.22,-2858.38 4775.58,-2851.51"/>
<text text-anchor="start" x="4861.37" y="-2886.7" font-family="Times New Roman,serif" font-size="14.00">witnessed</text>
</g>
<!-- Entity27 -->
<g id="node45" class="node entity">
<title>Entity27</title>
<ellipse fill="none" stroke="black" cx="75.15" cy="-5145.79" rx="75.29" ry="18"/>
<text text-anchor="start" x="25.15" y="-5142.09" font-family="Times New Roman,serif" font-size="14.00">lee harvey oswald</text>
</g>
<!-- Entity34 -->
<g id="node46" class="node entity">
<title>Entity34</title>
<ellipse fill="none" stroke="black" cx="525.33" cy="-4808.48" rx="59.29" ry="18"/>
<text text-anchor="start" x="487.83" y="-4804.78" font-family="Times New Roman,serif" font-size="14.00">guy bannister</text>
</g>
<!-- Entity27&#45;&gt;Entity34 -->
<g id="edge50" class="edge verb">
<title>Entity27&#45;&gt;Entity34</title>
<path fill="none" stroke="black" d="M98.09,-5128.6C172.93,-5072.52 409.96,-4894.92 494.78,-4831.37"/>
<polygon fill="black" stroke="black" points="497.06,-4834.03 502.97,-4825.24 492.86,-4828.43 497.06,-4834.03"/>
<text text-anchor="start" x="233.44" y="-4983.78" font-family="Times New Roman,serif" font-size="14.00">worked for</text>
</g>
<!-- Entity34&#45;&gt;Entity75 -->
<g id="edge51" class="edge verb">
<title>Entity34&#45;&gt;Entity75</title>
<path fill="none" stroke="black" d="M546.82,-4791.58C613.55,-4739.12 817.17,-4579.01 891.92,-4520.23"/>
<polygon fill="black" stroke="black" points="894.28,-4522.83 899.98,-4513.9 889.95,-4517.33 894.28,-4522.83"/>
<text text-anchor="start" x="658.37" y="-4659.71" font-family="Times New Roman,serif" font-size="14.00">member of</text>
</g>
<!-- Entity64 -->
<g id="node47" class="node entity">
<title>Entity64</title>
<ellipse fill="none" stroke="black" cx="5114.1" cy="-1262.13" rx="73.39" ry="18"/>
<text text-anchor="start" x="5065.6" y="-1258.43" font-family="Times New Roman,serif" font-size="14.00">madam blavatsky</text>
</g>
<!-- Entity64&#45;&gt;Entity86 -->
<g id="edge52" class="edge verb">
<title>Entity64&#45;&gt;Entity86</title>
<path fill="none" stroke="black" d="M5140.66,-1279.02C5169.67,-1297.47 5216.29,-1327.12 5248.46,-1347.57"/>
<polygon fill="black" stroke="black" points="5246.81,-1350.67 5257.12,-1353.08 5250.56,-1344.76 5246.81,-1350.67"/>
<text text-anchor="start" x="5153.56" y="-1317.1" font-family="Times New Roman,serif" font-size="14.00">created</text>
</g>
<!-- Entity60 -->
<g id="node56" class="node entity">
<title>Entity60</title>
<ellipse fill="none" stroke="black" cx="5290.4" cy="-683.11" rx="58.49" ry="18"/>
<text text-anchor="start" x="5253.4" y="-679.41" font-family="Times New Roman,serif" font-size="14.00">rudolf steiner</text>
</g>
<!-- Entity60&#45;&gt;Entity86 -->
<g id="edge63" class="edge verb">
<title>Entity60&#45;&gt;Entity86</title>
<path fill="none" stroke="black" d="M5290.23,-701.14C5289.37,-794.87 5285.38,-1226.75 5284.31,-1341.92"/>
<polygon fill="black" stroke="black" points="5280.81,-1342.02 5284.22,-1352.05 5287.81,-1342.08 5280.81,-1342.02"/>
<text text-anchor="start" x="5221.27" y="-1025.33" font-family="Times New Roman,serif" font-size="14.00">memberr of</text>
</g>
<!-- Entity93 -->
<g id="node57" class="node entity">
<title>Entity93</title>
<ellipse fill="none" stroke="black" cx="5313.05" cy="-17.7" rx="102.08" ry="18"/>
<text text-anchor="start" x="5242.55" y="-14" font-family="Times New Roman,serif" font-size="14.00">anthroposophical society</text>
</g>
<!-- Entity60&#45;&gt;Entity93 -->
<g id="edge60" class="edge verb">
<title>Entity60&#45;&gt;Entity93</title>
<path fill="none" stroke="black" d="M5291.02,-664.97C5294.15,-573.05 5308.25,-158.72 5312.09,-46.06"/>
<polygon fill="black" stroke="black" points="5315.59,-45.94 5312.44,-35.83 5308.6,-45.7 5315.59,-45.94"/>
<text text-anchor="start" x="5260.55" y="-359.31" font-family="Times New Roman,serif" font-size="14.00">created</text>
</g>
<!-- Entity109 -->
<g id="node60" class="node entity">
<title>Entity109</title>
<ellipse fill="none" stroke="black" cx="2996.94" cy="-1997.66" rx="27" ry="18"/>
<text text-anchor="start" x="2993.44" y="-1993.96" font-family="Times New Roman,serif" font-size="14.00">s</text>
</g>
<!-- Entity112 -->
<g id="node61" class="node entity">
<title>Entity112</title>
<ellipse fill="none" stroke="black" cx="3084.66" cy="-2109.64" rx="27" ry="18"/>
<text text-anchor="start" x="3080.66" y="-2105.94" font-family="Times New Roman,serif" font-size="14.00">o</text>
</g>
<!-- Entity109&#45;&gt;Entity112 -->
<g id="edge67" class="edge verb">
<title>Entity109&#45;&gt;Entity112</title>
<path fill="none" stroke="black" d="M3009.51,-2013.7C3024.23,-2032.5 3048.76,-2063.82 3065.78,-2085.53"/>
<polygon fill="black" stroke="black" points="3063.19,-2087.91 3072.11,-2093.62 3068.7,-2083.59 3063.19,-2087.91"/>
<text text-anchor="start" x="3030.64" y="-2053.42" font-family="Times New Roman,serif" font-size="14.00">v</text>
</g>
</g>
</svg>
