<?xml version="1.0" encoding="UTF-8" standalone="no"?>
<?xml-stylesheet href="./styles.css" type="text/css"?>
<!DOCTYPE svg PUBLIC "-//W3C//DTD SVG 1.1//EN"
 "http://www.w3.org/Graphics/SVG/1.1/DTD/svg11.dtd">
<!-- Generated by graphviz version 2.47.3 (20210619.1520)
 -->
<!-- Title: G Pages: 1 -->
<svg width="6164pt" height="4959pt"
 viewBox="0.00 0.00 6164.00 4959.00" xmlns="http://www.w3.org/2000/svg" xmlns:xlink="http://www.w3.org/1999/xlink">
<g id="graph0" class="graph" transform="scale(1 1) rotate(0) translate(4 4955)">
<title>G</title>
<polygon fill="white" stroke="transparent" points="-4,4 -4,-4955 6160,-4955 6160,4 -4,4"/>
<!-- Entity8 -->
<g id="node1" class="node entity">
<title>Entity8</title>
<ellipse fill="none" stroke="black" cx="5143.57" cy="-3216.01" rx="41.69" ry="18"/>
<text text-anchor="start" x="5119.57" y="-3212.31" font-family="Times New Roman,serif" font-size="14.00">uri geller</text>
</g>
<!-- Entity16 -->
<g id="node2" class="node entity">
<title>Entity16</title>
<ellipse fill="none" stroke="black" cx="4894.65" cy="-3314.6" rx="38.19" ry="18"/>
<text text-anchor="start" x="4873.15" y="-3310.9" font-family="Times New Roman,serif" font-size="14.00">the nine</text>
</g>
<!-- Entity8&#45;&gt;Entity16 -->
<g id="edge1" class="edge verb">
<title>Entity8&#45;&gt;Entity16</title>
<path fill="none" stroke="black" d="M5112.8,-3228.2C5067.56,-3246.12 4983.11,-3279.57 4933.61,-3299.18"/>
<polygon fill="black" stroke="black" points="4932.2,-3295.97 4924.19,-3302.9 4934.78,-3302.48 4932.2,-3295.97"/>
<text text-anchor="start" x="4919.2" y="-3267.49" font-family="Times New Roman,serif" font-size="14.00">claiemd to channel</text>
</g>
<!-- Entity105 -->
<g id="node47" class="node entity">
<title>Entity105</title>
<ellipse fill="none" stroke="black" cx="4948.44" cy="-3423.96" rx="94.48" ry="18"/>
<text text-anchor="start" x="4883.94" y="-3420.26" font-family="Times New Roman,serif" font-size="14.00">egyptian gods in a ship</text>
</g>
<!-- Entity16&#45;&gt;Entity105 -->
<g id="edge53" class="edge verb">
<title>Entity16&#45;&gt;Entity105</title>
<path fill="none" stroke="black" d="M4903.29,-3332.17C4911.86,-3349.58 4925.09,-3376.49 4935.02,-3396.68"/>
<polygon fill="black" stroke="black" points="4931.91,-3398.28 4939.46,-3405.7 4938.19,-3395.19 4931.91,-3398.28"/>
<text text-anchor="start" x="4815.16" y="-3368.23" font-family="Times New Roman,serif" font-size="14.00">claimed to channel</text>
</g>
<!-- Entity9 -->
<g id="node3" class="node entity">
<title>Entity9</title>
<ellipse fill="none" stroke="black" cx="2715.92" cy="-3103.42" rx="27" ry="18"/>
<text text-anchor="start" x="2708.42" y="-3099.72" font-family="Times New Roman,serif" font-size="14.00">jfk</text>
</g>
<!-- Entity25 -->
<g id="node4" class="node entity">
<title>Entity25</title>
<ellipse fill="none" stroke="black" cx="3139.15" cy="-2972.19" rx="27" ry="18"/>
<text text-anchor="start" x="3131.15" y="-2968.49" font-family="Times New Roman,serif" font-size="14.00">cia</text>
</g>
<!-- Entity9&#45;&gt;Entity25 -->
<g id="edge2" class="edge verb">
<title>Entity9&#45;&gt;Entity25</title>
<path fill="none" stroke="black" d="M2740.51,-3095.8C2812.31,-3073.53 3021.89,-3008.55 3104.81,-2982.84"/>
<polygon fill="black" stroke="black" points="3105.99,-2986.14 3114.5,-2979.83 3103.91,-2979.45 3105.99,-2986.14"/>
<text text-anchor="start" x="2818.66" y="-3043.12" font-family="Times New Roman,serif" font-size="14.00">heads (1961&#45;1963)</text>
</g>
<!-- Entity77 -->
<g id="node28" class="node entity">
<title>Entity77</title>
<ellipse fill="none" stroke="black" cx="2237.82" cy="-3246.53" rx="31.4" ry="18"/>
<text text-anchor="start" x="2221.82" y="-3242.83" font-family="Times New Roman,serif" font-size="14.00">potus</text>
</g>
<!-- Entity9&#45;&gt;Entity77 -->
<g id="edge24" class="edge verb">
<title>Entity9&#45;&gt;Entity77</title>
<path fill="none" stroke="black" d="M2691.22,-3110.81C2612.81,-3134.28 2369.17,-3207.21 2275.26,-3235.32"/>
<polygon fill="black" stroke="black" points="2274.18,-3231.99 2265.6,-3238.21 2276.19,-3238.7 2274.18,-3231.99"/>
<text text-anchor="start" x="2396.24" y="-3176.87" font-family="Times New Roman,serif" font-size="14.00">isa (1961&#45;1963)</text>
</g>
<!-- Entity75 -->
<g id="node26" class="node entity">
<title>Entity75</title>
<ellipse fill="none" stroke="black" cx="3883.24" cy="-2971.98" rx="77.19" ry="18"/>
<text text-anchor="start" x="3831.74" y="-2968.28" font-family="Times New Roman,serif" font-size="14.00">psi&#45;consciousness</text>
</g>
<!-- Entity25&#45;&gt;Entity75 -->
<g id="edge45" class="edge verb">
<title>Entity25&#45;&gt;Entity75</title>
<path fill="none" stroke="black" d="M3166.52,-2972.18C3268.33,-2972.15 3627.98,-2972.06 3795.79,-2972.01"/>
<polygon fill="black" stroke="black" points="3795.84,-2975.51 3805.84,-2972.01 3795.83,-2968.51 3795.84,-2975.51"/>
<text text-anchor="start" x="3417.16" y="-2975.9" font-family="Times New Roman,serif" font-size="14.00">investigates</text>
</g>
<!-- Entity108 -->
<g id="node52" class="node entity">
<title>Entity108</title>
<ellipse fill="none" stroke="black" cx="2975.26" cy="-3227.12" rx="27" ry="18"/>
<text text-anchor="start" x="2965.76" y="-3223.42" font-family="Times New Roman,serif" font-size="14.00">ufo</text>
</g>
<!-- Entity25&#45;&gt;Entity108 -->
<g id="edge62" class="edge verb">
<title>Entity25&#45;&gt;Entity108</title>
<path fill="none" stroke="black" d="M3128.4,-2988.92C3100.39,-3032.49 3025.02,-3149.72 2991.6,-3201.7"/>
<polygon fill="black" stroke="black" points="2988.52,-3200.02 2986.05,-3210.33 2994.41,-3203.81 2988.52,-3200.02"/>
<text text-anchor="start" x="2996" y="-3099.11" font-family="Times New Roman,serif" font-size="14.00">investigates</text>
</g>
<!-- Entity2 -->
<g id="node5" class="node entity">
<title>Entity2</title>
<ellipse fill="none" stroke="black" cx="4580.58" cy="-2863.83" rx="56.59" ry="18"/>
<text text-anchor="start" x="4545.08" y="-2860.13" font-family="Times New Roman,serif" font-size="14.00">arthur young</text>
</g>
<!-- Entity2&#45;&gt;Entity16 -->
<g id="edge3" class="edge verb">
<title>Entity2&#45;&gt;Entity16</title>
<path fill="none" stroke="black" d="M4592.89,-2881.5C4641.37,-2951.08 4819.21,-3206.32 4876.64,-3288.75"/>
<polygon fill="black" stroke="black" points="4873.84,-3290.85 4882.43,-3297.06 4879.58,-3286.85 4873.84,-3290.85"/>
<text text-anchor="start" x="4672.77" y="-3088.93" font-family="Times New Roman,serif" font-size="14.00">member&#45;of</text>
</g>
<!-- Entity2&#45;&gt;Entity75 -->
<g id="edge18" class="edge verb">
<title>Entity2&#45;&gt;Entity75</title>
<path fill="none" stroke="black" d="M4529.59,-2871.74C4407.93,-2890.61 4100.26,-2938.33 3957.77,-2960.42"/>
<polygon fill="black" stroke="black" points="3957.15,-2956.98 3947.81,-2961.97 3958.22,-2963.9 3957.15,-2956.98"/>
<text text-anchor="start" x="4202.68" y="-2919.88" font-family="Times New Roman,serif" font-size="14.00">studied</text>
</g>
<!-- Entity76 -->
<g id="node29" class="node entity">
<title>Entity76</title>
<ellipse fill="none" stroke="black" cx="4805.03" cy="-2263.13" rx="53.89" ry="18"/>
<text text-anchor="start" x="4771.53" y="-2259.43" font-family="Times New Roman,serif" font-size="14.00">bell aviation</text>
</g>
<!-- Entity2&#45;&gt;Entity76 -->
<g id="edge20" class="edge verb">
<title>Entity2&#45;&gt;Entity76</title>
<path fill="none" stroke="black" d="M4587.3,-2845.85C4619.28,-2760.27 4756.13,-2394.02 4794.81,-2290.49"/>
<polygon fill="black" stroke="black" points="4798.12,-2291.63 4798.34,-2281.04 4791.56,-2289.18 4798.12,-2291.63"/>
<text text-anchor="start" x="4650.05" y="-2571.97" font-family="Times New Roman,serif" font-size="14.00">created</text>
</g>
<!-- Entity31 -->
<g id="node6" class="node entity">
<title>Entity31</title>
<ellipse fill="none" stroke="black" cx="1157.21" cy="-2660.41" rx="58.49" ry="18"/>
<text text-anchor="start" x="1120.21" y="-2656.71" font-family="Times New Roman,serif" font-size="14.00">steve bannon</text>
</g>
<!-- Entity22 -->
<g id="node7" class="node entity">
<title>Entity22</title>
<ellipse fill="none" stroke="black" cx="1956.19" cy="-2762.77" rx="59.59" ry="18"/>
<text text-anchor="start" x="1918.19" y="-2759.07" font-family="Times New Roman,serif" font-size="14.00">donald trump</text>
</g>
<!-- Entity31&#45;&gt;Entity22 -->
<g id="edge4" class="edge verb">
<title>Entity31&#45;&gt;Entity22</title>
<path fill="none" stroke="black" d="M1206.44,-2670.22C1343.44,-2692 1729.37,-2741.61 1887.4,-2757.98"/>
<polygon fill="black" stroke="black" points="1887.17,-2761.47 1897.48,-2759.01 1887.89,-2754.51 1887.17,-2761.47"/>
<text text-anchor="start" x="1491.92" y="-2717.9" font-family="Times New Roman,serif" font-size="14.00">promoted</text>
</g>
<!-- Entity31&#45;&gt;Entity22 -->
<g id="edge10" class="edge verb">
<title>Entity31&#45;&gt;Entity22</title>
<path fill="none" stroke="black" d="M1214.82,-2664.07C1361.36,-2678.76 1747.22,-2728.17 1896.26,-2751.28"/>
<polygon fill="black" stroke="black" points="1895.73,-2754.74 1906.15,-2752.83 1896.81,-2747.83 1895.73,-2754.74"/>
<text text-anchor="start" x="1513.54" y="-2696.47" font-family="Times New Roman,serif" font-size="14.00">advises</text>
</g>
<!-- Entity80 -->
<g id="node31" class="node entity">
<title>Entity80</title>
<ellipse fill="none" stroke="black" cx="606.79" cy="-2354" rx="61.99" ry="18"/>
<text text-anchor="start" x="567.29" y="-2350.3" font-family="Times New Roman,serif" font-size="14.00">breitbart news</text>
</g>
<!-- Entity31&#45;&gt;Entity80 -->
<g id="edge46" class="edge verb">
<title>Entity31&#45;&gt;Entity80</title>
<path fill="none" stroke="black" d="M1128.78,-2644.58C1037,-2593.49 748.58,-2432.93 644.62,-2375.05"/>
<polygon fill="black" stroke="black" points="646.16,-2371.91 635.72,-2370.1 642.76,-2378.02 646.16,-2371.91"/>
<text text-anchor="start" x="845.7" y="-2513.62" font-family="Times New Roman,serif" font-size="14.00">created</text>
</g>
<!-- Entity92 -->
<g id="node33" class="node entity">
<title>Entity92</title>
<ellipse fill="none" stroke="black" cx="908.65" cy="-2278" rx="35.19" ry="18"/>
<text text-anchor="start" x="889.65" y="-2274.3" font-family="Times New Roman,serif" font-size="14.00">gurgev</text>
</g>
<!-- Entity31&#45;&gt;Entity92 -->
<g id="edge26" class="edge verb">
<title>Entity31&#45;&gt;Entity92</title>
<path fill="none" stroke="black" d="M1145.72,-2642.73C1105.8,-2581.31 972.98,-2376.97 925.61,-2304.1"/>
<polygon fill="black" stroke="black" points="928.4,-2301.97 920.02,-2295.49 922.53,-2305.78 928.4,-2301.97"/>
<text text-anchor="start" x="994.66" y="-2477.21" font-family="Times New Roman,serif" font-size="14.00">studied</text>
</g>
<!-- Entity95 -->
<g id="node35" class="node entity">
<title>Entity95</title>
<ellipse fill="none" stroke="black" cx="655.36" cy="-2531.44" rx="53.09" ry="18"/>
<text text-anchor="start" x="622.36" y="-2527.74" font-family="Times New Roman,serif" font-size="14.00">biosphere 2</text>
</g>
<!-- Entity31&#45;&gt;Entity95 -->
<g id="edge29" class="edge verb">
<title>Entity31&#45;&gt;Entity95</title>
<path fill="none" stroke="black" d="M1112.23,-2648.85C1019.31,-2624.97 806.59,-2570.31 707.7,-2544.89"/>
<polygon fill="black" stroke="black" points="708.48,-2541.48 697.92,-2542.38 706.74,-2548.26 708.48,-2541.48"/>
<text text-anchor="start" x="868.97" y="-2600.67" font-family="Times New Roman,serif" font-size="14.00">created</text>
</g>
<!-- Entity104 -->
<g id="node48" class="node entity">
<title>Entity104</title>
<ellipse fill="none" stroke="black" cx="1036.8" cy="-2771.54" rx="64.99" ry="18"/>
<text text-anchor="start" x="994.8" y="-2767.84" font-family="Times New Roman,serif" font-size="14.00">goldman sachs</text>
</g>
<!-- Entity31&#45;&gt;Entity104 -->
<g id="edge54" class="edge verb">
<title>Entity31&#45;&gt;Entity104</title>
<path fill="none" stroke="black" d="M1138.66,-2677.53C1118.48,-2696.16 1086.05,-2726.09 1063.21,-2747.16"/>
<polygon fill="black" stroke="black" points="1060.54,-2744.86 1055.57,-2754.22 1065.29,-2750.01 1060.54,-2744.86"/>
<text text-anchor="start" x="1037.94" y="-2716.15" font-family="Times New Roman,serif" font-size="14.00">worked for</text>
</g>
<!-- Entity112 -->
<g id="node55" class="node entity">
<title>Entity112</title>
<ellipse fill="none" stroke="black" cx="531.54" cy="-2731.91" rx="77.19" ry="18"/>
<text text-anchor="start" x="480.04" y="-2728.21" font-family="Times New Roman,serif" font-size="14.00">hollywood movies</text>
</g>
<!-- Entity31&#45;&gt;Entity112 -->
<g id="edge60" class="edge verb">
<title>Entity31&#45;&gt;Entity112</title>
<path fill="none" stroke="black" d="M1102.23,-2666.69C991.33,-2679.37 740.4,-2708.04 611.41,-2722.79"/>
<polygon fill="black" stroke="black" points="610.74,-2719.34 601.2,-2723.95 611.53,-2726.29 610.74,-2719.34"/>
<text text-anchor="start" x="801.82" y="-2698.54" font-family="Times New Roman,serif" font-size="14.00">produced</text>
</g>
<!-- Entity117 -->
<g id="node61" class="node entity">
<title>Entity117</title>
<ellipse fill="none" stroke="black" cx="721.91" cy="-2862.75" rx="38.19" ry="18"/>
<text text-anchor="start" x="700.41" y="-2859.05" font-family="Times New Roman,serif" font-size="14.00">us navy</text>
</g>
<!-- Entity31&#45;&gt;Entity117 -->
<g id="edge67" class="edge verb">
<title>Entity31&#45;&gt;Entity117</title>
<path fill="none" stroke="black" d="M1124.85,-2675.45C1045.54,-2712.31 841.92,-2806.96 758.44,-2845.76"/>
<polygon fill="black" stroke="black" points="756.93,-2842.61 749.34,-2850 759.88,-2848.95 756.93,-2842.61"/>
<text text-anchor="start" x="880.64" y="-2764.41" font-family="Times New Roman,serif" font-size="14.00">member of</text>
</g>
<!-- Entity44 -->
<g id="node15" class="node entity">
<title>Entity44</title>
<ellipse fill="none" stroke="black" cx="2643.68" cy="-2767.05" rx="50.09" ry="18"/>
<text text-anchor="start" x="2613.18" y="-2763.35" font-family="Times New Roman,serif" font-size="14.00">john trump</text>
</g>
<!-- Entity22&#45;&gt;Entity44 -->
<g id="edge11" class="edge verb">
<title>Entity22&#45;&gt;Entity44</title>
<path fill="none" stroke="black" d="M2015.99,-2763.15C2145.93,-2763.95 2452.76,-2765.86 2583.25,-2766.67"/>
<polygon fill="black" stroke="black" points="2583.44,-2770.17 2593.46,-2766.74 2583.48,-2763.17 2583.44,-2770.17"/>
<text text-anchor="start" x="2240.62" y="-2753.71" font-family="Times New Roman,serif" font-size="14.00">nephew of</text>
</g>
<!-- Entity22&#45;&gt;Entity77 -->
<g id="edge38" class="edge verb">
<title>Entity22&#45;&gt;Entity77</title>
<path fill="none" stroke="black" d="M1966.54,-2780.56C2009.3,-2854 2172.16,-3133.75 2222.74,-3220.63"/>
<polygon fill="black" stroke="black" points="2219.75,-3222.46 2227.81,-3229.34 2225.8,-3218.94 2219.75,-3222.46"/>
<text text-anchor="start" x="2078.64" y="-3004.4" font-family="Times New Roman,serif" font-size="14.00">isa</text>
</g>
<!-- Entity61 -->
<g id="node8" class="node entity">
<title>Entity61</title>
<ellipse fill="none" stroke="black" cx="5223.32" cy="-669.66" rx="49.29" ry="18"/>
<text text-anchor="start" x="5193.32" y="-665.96" font-family="Times New Roman,serif" font-size="14.00">adolf hitler</text>
</g>
<!-- Entity71 -->
<g id="node9" class="node entity">
<title>Entity71</title>
<ellipse fill="none" stroke="black" cx="5195.08" cy="-1063.48" rx="32.49" ry="18"/>
<text text-anchor="start" x="5178.08" y="-1059.78" font-family="Times New Roman,serif" font-size="14.00">nsdap</text>
</g>
<!-- Entity61&#45;&gt;Entity71 -->
<g id="edge5" class="edge verb">
<title>Entity61&#45;&gt;Entity71</title>
<path fill="none" stroke="black" d="M5222.01,-687.87C5217.51,-750.73 5202.57,-958.99 5197.11,-1035.21"/>
<polygon fill="black" stroke="black" points="5193.6,-1035.24 5196.37,-1045.47 5200.58,-1035.74 5193.6,-1035.24"/>
<text text-anchor="start" x="5168.56" y="-865.34" font-family="Times New Roman,serif" font-size="14.00">created</text>
</g>
<!-- Entity115 -->
<g id="node58" class="node entity">
<title>Entity115</title>
<ellipse fill="none" stroke="black" cx="5496.99" cy="-740.15" rx="38.99" ry="18"/>
<text text-anchor="start" x="5474.99" y="-736.45" font-family="Times New Roman,serif" font-size="14.00">far right</text>
</g>
<!-- Entity71&#45;&gt;Entity115 -->
<g id="edge64" class="edge verb">
<title>Entity71&#45;&gt;Entity115</title>
<path fill="none" stroke="black" d="M5210.05,-1047.44C5259.12,-994.9 5415.28,-827.66 5474.2,-764.56"/>
<polygon fill="black" stroke="black" points="5476.94,-766.75 5481.21,-757.05 5471.82,-761.97 5476.94,-766.75"/>
<text text-anchor="start" x="5281.12" y="-909.8" font-family="Times New Roman,serif" font-size="14.00">member of</text>
</g>
<!-- Entity6 -->
<g id="node10" class="node entity">
<title>Entity6</title>
<ellipse fill="none" stroke="black" cx="5616.92" cy="-3330.4" rx="64.19" ry="18"/>
<text text-anchor="start" x="5575.42" y="-3326.7" font-family="Times New Roman,serif" font-size="14.00">andre puharich</text>
</g>
<!-- Entity6&#45;&gt;Entity8 -->
<g id="edge6" class="edge verb">
<title>Entity6&#45;&gt;Entity8</title>
<path fill="none" stroke="black" d="M5568.05,-3318.59C5476.38,-3296.44 5279.84,-3248.94 5190.04,-3227.24"/>
<polygon fill="black" stroke="black" points="5190.69,-3223.8 5180.15,-3224.85 5189.05,-3230.6 5190.69,-3223.8"/>
<text text-anchor="start" x="5319.04" y="-3276.72" font-family="Times New Roman,serif" font-size="14.00">sponsored</text>
</g>
<!-- Entity3 -->
<g id="node11" class="node entity">
<title>Entity3</title>
<ellipse fill="none" stroke="black" cx="4567.76" cy="-3139.41" rx="68.49" ry="18"/>
<text text-anchor="start" x="4523.26" y="-3135.71" font-family="Times New Roman,serif" font-size="14.00">jeffrey mishlove</text>
</g>
<!-- Entity3&#45;&gt;Entity8 -->
<g id="edge7" class="edge verb">
<title>Entity3&#45;&gt;Entity8</title>
<path fill="none" stroke="black" d="M4628.84,-3147.53C4743.26,-3162.76 4987.87,-3195.3 5093.4,-3209.34"/>
<polygon fill="black" stroke="black" points="5093.09,-3212.83 5103.47,-3210.68 5094.01,-3205.89 5093.09,-3212.83"/>
<text text-anchor="start" x="4806.12" y="-3182.24" font-family="Times New Roman,serif" font-size="14.00">promoted</text>
</g>
<!-- Entity3&#45;&gt;Entity75 -->
<g id="edge22" class="edge verb">
<title>Entity3&#45;&gt;Entity75</title>
<path fill="none" stroke="black" d="M4525,-3125.33C4410.63,-3093.21 4096.85,-3016.19 3954.78,-2985.05"/>
<polygon fill="black" stroke="black" points="3955.37,-2981.6 3944.86,-2982.89 3953.88,-2988.44 3955.37,-2981.6"/>
<text text-anchor="start" x="4198.89" y="-3043.99" font-family="Times New Roman,serif" font-size="14.00">studied</text>
</g>
<!-- Entity3&#45;&gt;Entity75 -->
<g id="edge28" class="edge verb">
<title>Entity3&#45;&gt;Entity75</title>
<path fill="none" stroke="black" d="M4510.52,-3129.44C4380.87,-3101.62 4066.17,-3024.65 3938.46,-2989.52"/>
<polygon fill="black" stroke="black" points="3939.08,-2986.06 3928.5,-2986.76 3937.21,-2992.81 3939.08,-2986.06"/>
<text text-anchor="start" x="4160.49" y="-3063.28" font-family="Times New Roman,serif" font-size="14.00">investigates</text>
</g>
<!-- Entity20 -->
<g id="node12" class="node entity">
<title>Entity20</title>
<ellipse fill="none" stroke="black" cx="1808.9" cy="-3322.81" rx="68.49" ry="18"/>
<text text-anchor="start" x="1764.4" y="-3319.11" font-family="Times New Roman,serif" font-size="14.00">george hw bush</text>
</g>
<!-- Entity24 -->
<g id="node13" class="node entity">
<title>Entity24</title>
<ellipse fill="none" stroke="black" cx="1842.79" cy="-3211.18" rx="63.89" ry="18"/>
<text text-anchor="start" x="1801.79" y="-3207.48" font-family="Times New Roman,serif" font-size="14.00">george w bush</text>
</g>
<!-- Entity20&#45;&gt;Entity24 -->
<g id="edge8" class="edge verb">
<title>Entity20&#45;&gt;Entity24</title>
<path fill="none" stroke="black" d="M1814.5,-3304.38C1819.9,-3286.58 1828.16,-3259.39 1834.36,-3238.97"/>
<polygon fill="black" stroke="black" points="1837.74,-3239.86 1837.3,-3229.27 1831.05,-3237.82 1837.74,-3239.86"/>
<text text-anchor="start" x="1792.43" y="-3275.47" font-family="Times New Roman,serif" font-size="14.00">father</text>
</g>
<!-- Entity20&#45;&gt;Entity77 -->
<g id="edge40" class="edge verb">
<title>Entity20&#45;&gt;Entity77</title>
<path fill="none" stroke="black" d="M1865.86,-3312.68C1954,-3297.01 2121.26,-3267.26 2197.78,-3253.65"/>
<polygon fill="black" stroke="black" points="2198.73,-3257.04 2207.96,-3251.84 2197.5,-3250.15 2198.73,-3257.04"/>
<text text-anchor="start" x="2015.82" y="-3286.97" font-family="Times New Roman,serif" font-size="14.00">isa</text>
</g>
<!-- Entity24&#45;&gt;Entity77 -->
<g id="edge42" class="edge verb">
<title>Entity24&#45;&gt;Entity77</title>
<path fill="none" stroke="black" d="M1903.65,-3216.63C1984.96,-3223.9 2126.88,-3236.6 2196.67,-3242.85"/>
<polygon fill="black" stroke="black" points="2196.56,-3246.35 2206.83,-3243.76 2197.19,-3239.38 2196.56,-3246.35"/>
<text text-anchor="start" x="2034.16" y="-3233.54" font-family="Times New Roman,serif" font-size="14.00">isa</text>
</g>
<!-- Entity1 -->
<g id="node14" class="node entity">
<title>Entity1</title>
<ellipse fill="none" stroke="black" cx="5286.97" cy="-3670.67" rx="74.99" ry="18"/>
<text text-anchor="start" x="5237.47" y="-3666.97" font-family="Times New Roman,serif" font-size="14.00">gene roddenberry</text>
</g>
<!-- Entity1&#45;&gt;Entity16 -->
<g id="edge9" class="edge verb">
<title>Entity1&#45;&gt;Entity16</title>
<path fill="none" stroke="black" d="M5267.79,-3653.25C5203.07,-3594.52 4992.81,-3403.69 4919.86,-3337.48"/>
<polygon fill="black" stroke="black" points="4922.2,-3334.88 4912.44,-3330.75 4917.5,-3340.06 4922.2,-3334.88"/>
<text text-anchor="start" x="4989.82" y="-3499.17" font-family="Times New Roman,serif" font-size="14.00">claiemd to channel</text>
</g>
<!-- Entity44&#45;&gt;Entity25 -->
<g id="edge13" class="edge verb">
<title>Entity44&#45;&gt;Entity25</title>
<path fill="none" stroke="black" d="M2676.57,-2780.67C2766.78,-2818.02 3017.29,-2921.74 3106.82,-2958.81"/>
<polygon fill="black" stroke="black" points="3105.62,-2962.09 3116.2,-2962.69 3108.3,-2955.63 3105.62,-2962.09"/>
<text text-anchor="start" x="2830.7" y="-2873.54" font-family="Times New Roman,serif" font-size="14.00">member of</text>
</g>
<!-- Entity111 -->
<g id="node51" class="node entity">
<title>Entity111</title>
<ellipse fill="none" stroke="black" cx="2852.85" cy="-2351" rx="50.89" ry="18"/>
<text text-anchor="start" x="2821.85" y="-2347.3" font-family="Times New Roman,serif" font-size="14.00">nikola tesla</text>
</g>
<!-- Entity44&#45;&gt;Entity111 -->
<g id="edge56" class="edge verb">
<title>Entity44&#45;&gt;Entity111</title>
<path fill="none" stroke="black" d="M2652.66,-2749.17C2685.58,-2683.69 2799.71,-2456.69 2839.24,-2378.06"/>
<polygon fill="black" stroke="black" points="2842.53,-2379.32 2843.89,-2368.81 2836.27,-2376.18 2842.53,-2379.32"/>
<text text-anchor="start" x="2704.95" y="-2567.42" font-family="Times New Roman,serif" font-size="14.00">studied</text>
</g>
<!-- Entity34 -->
<g id="node16" class="node entity">
<title>Entity34</title>
<ellipse fill="none" stroke="black" cx="1633.57" cy="-4413.63" rx="90.98" ry="18"/>
<text text-anchor="start" x="1571.57" y="-4409.93" font-family="Times New Roman,serif" font-size="14.00">emma hardinge&#45;britten</text>
</g>
<!-- Entity28 -->
<g id="node17" class="node entity">
<title>Entity28</title>
<ellipse fill="none" stroke="black" cx="1940.79" cy="-3737.44" rx="67.69" ry="18"/>
<text text-anchor="start" x="1896.79" y="-3733.74" font-family="Times New Roman,serif" font-size="14.00">abraham lincoln</text>
</g>
<!-- Entity34&#45;&gt;Entity28 -->
<g id="edge12" class="edge verb">
<title>Entity34&#45;&gt;Entity28</title>
<path fill="none" stroke="black" d="M1641.79,-4395.54C1684.07,-4302.47 1877.14,-3877.55 1928.31,-3764.91"/>
<polygon fill="black" stroke="black" points="1931.6,-3766.14 1932.55,-3755.59 1925.23,-3763.24 1931.6,-3766.14"/>
<text text-anchor="start" x="1686.05" y="-4084.03" font-family="Times New Roman,serif" font-size="14.00">spokesperson for</text>
</g>
<!-- Entity97 -->
<g id="node36" class="node entity">
<title>Entity97</title>
<ellipse fill="none" stroke="black" cx="1399.03" cy="-4932.97" rx="39.79" ry="18"/>
<text text-anchor="start" x="1376.53" y="-4929.27" font-family="Times New Roman,serif" font-size="14.00">medium</text>
</g>
<!-- Entity34&#45;&gt;Entity97 -->
<g id="edge30" class="edge verb">
<title>Entity34&#45;&gt;Entity97</title>
<path fill="none" stroke="black" d="M1625.36,-4431.81C1590.32,-4509.41 1453.13,-4813.18 1411.25,-4905.93"/>
<polygon fill="black" stroke="black" points="1407.98,-4904.65 1407.06,-4915.2 1414.36,-4907.53 1407.98,-4904.65"/>
<text text-anchor="start" x="1502.3" y="-4672.67" font-family="Times New Roman,serif" font-size="14.00">isa</text>
</g>
<!-- Entity96 -->
<g id="node37" class="node entity">
<title>Entity96</title>
<ellipse fill="none" stroke="black" cx="2279.32" cy="-4066.66" rx="85.29" ry="18"/>
<text text-anchor="start" x="2221.82" y="-4062.96" font-family="Times New Roman,serif" font-size="14.00">theosophical society</text>
</g>
<!-- Entity34&#45;&gt;Entity96 -->
<g id="edge31" class="edge verb">
<title>Entity34&#45;&gt;Entity96</title>
<path fill="none" stroke="black" d="M1665.15,-4396.66C1772.01,-4339.24 2119.95,-4152.28 2238.97,-4088.34"/>
<polygon fill="black" stroke="black" points="2240.64,-4091.41 2247.79,-4083.59 2237.33,-4085.24 2240.64,-4091.41"/>
<text text-anchor="start" x="1911.06" y="-4246.3" font-family="Times New Roman,serif" font-size="14.00">created</text>
</g>
<!-- Entity118 -->
<g id="node60" class="node entity">
<title>Entity118</title>
<ellipse fill="none" stroke="black" cx="1139.78" cy="-4792.88" rx="55.79" ry="18"/>
<text text-anchor="start" x="1104.78" y="-4789.18" font-family="Times New Roman,serif" font-size="14.00">orphic circle</text>
</g>
<!-- Entity34&#45;&gt;Entity118 -->
<g id="edge66" class="edge verb">
<title>Entity34&#45;&gt;Entity118</title>
<path fill="none" stroke="black" d="M1610.74,-4431.16C1530.36,-4492.9 1260.34,-4700.29 1169.72,-4769.89"/>
<polygon fill="black" stroke="black" points="1167.32,-4767.32 1161.53,-4776.18 1171.59,-4772.87 1167.32,-4767.32"/>
<text text-anchor="start" x="1329.23" y="-4604.32" font-family="Times New Roman,serif" font-size="14.00">member of</text>
</g>
<!-- Entity28&#45;&gt;Entity77 -->
<g id="edge47" class="edge verb">
<title>Entity28&#45;&gt;Entity77</title>
<path fill="none" stroke="black" d="M1951.72,-3719.39C1996.86,-3644.79 2168.95,-3360.35 2222.09,-3272.52"/>
<polygon fill="black" stroke="black" points="2225.23,-3274.09 2227.42,-3263.72 2219.24,-3270.46 2225.23,-3274.09"/>
<text text-anchor="start" x="2070.91" y="-3499.75" font-family="Times New Roman,serif" font-size="14.00">isa</text>
</g>
<!-- Entity70 -->
<g id="node18" class="node entity">
<title>Entity70</title>
<ellipse fill="none" stroke="black" cx="6119.4" cy="-18.41" rx="36.29" ry="18"/>
<text text-anchor="start" x="6099.4" y="-14.71" font-family="Times New Roman,serif" font-size="14.00">oswald</text>
</g>
<!-- Entity69 -->
<g id="node19" class="node entity">
<title>Entity69</title>
<ellipse fill="none" stroke="black" cx="5833.11" cy="-347.84" rx="59.29" ry="18"/>
<text text-anchor="start" x="5795.61" y="-344.14" font-family="Times New Roman,serif" font-size="14.00">guy bannister</text>
</g>
<!-- Entity70&#45;&gt;Entity69 -->
<g id="edge14" class="edge verb">
<title>Entity70&#45;&gt;Entity69</title>
<path fill="none" stroke="black" d="M6104.81,-35.2C6057.93,-89.14 5910.97,-258.25 5855.03,-322.62"/>
<polygon fill="black" stroke="black" points="5852.28,-320.44 5848.37,-330.29 5857.57,-325.03 5852.28,-320.44"/>
<text text-anchor="start" x="5916.92" y="-182.71" font-family="Times New Roman,serif" font-size="14.00">worked for</text>
</g>
<!-- Entity69&#45;&gt;Entity115 -->
<g id="edge63" class="edge verb">
<title>Entity69&#45;&gt;Entity115</title>
<path fill="none" stroke="black" d="M5818.02,-365.45C5764.14,-428.33 5581.2,-641.86 5518.38,-715.18"/>
<polygon fill="black" stroke="black" points="5515.51,-713.15 5511.67,-723.02 5520.83,-717.7 5515.51,-713.15"/>
<text text-anchor="start" x="5607.2" y="-544.12" font-family="Times New Roman,serif" font-size="14.00">member of</text>
</g>
<!-- Entity68 -->
<g id="node20" class="node entity">
<title>Entity68</title>
<ellipse fill="none" stroke="black" cx="2635.78" cy="-3852.95" rx="37.89" ry="18"/>
<text text-anchor="start" x="2614.78" y="-3849.25" font-family="Times New Roman,serif" font-size="14.00">hunt oil</text>
</g>
<!-- Entity67 -->
<g id="node21" class="node entity">
<title>Entity67</title>
<ellipse fill="none" stroke="black" cx="2548.62" cy="-3732.63" rx="77.99" ry="18"/>
<text text-anchor="start" x="2496.62" y="-3728.93" font-family="Times New Roman,serif" font-size="14.00">dwight eisenhower</text>
</g>
<!-- Entity68&#45;&gt;Entity67 -->
<g id="edge15" class="edge verb">
<title>Entity68&#45;&gt;Entity67</title>
<path fill="none" stroke="black" d="M2623.29,-3835.71C2608.76,-3815.66 2584.62,-3782.33 2567.73,-3759.02"/>
<polygon fill="black" stroke="black" points="2570.35,-3756.66 2561.65,-3750.62 2564.68,-3760.77 2570.35,-3756.66"/>
<text text-anchor="start" x="2555.51" y="-3801.16" font-family="Times New Roman,serif" font-size="14.00">funded</text>
</g>
<!-- Entity67&#45;&gt;Entity77 -->
<g id="edge33" class="edge verb">
<title>Entity67&#45;&gt;Entity77</title>
<path fill="none" stroke="black" d="M2537.19,-3714.75C2489.91,-3640.8 2309.51,-3358.66 2254.1,-3272"/>
<polygon fill="black" stroke="black" points="2257.03,-3270.09 2248.7,-3263.55 2251.14,-3273.86 2257.03,-3270.09"/>
<text text-anchor="start" x="2376.64" y="-3497.17" font-family="Times New Roman,serif" font-size="14.00">is a</text>
</g>
<!-- Entity58 -->
<g id="node22" class="node entity">
<title>Entity58</title>
<ellipse fill="none" stroke="black" cx="4972.11" cy="-1496.43" rx="46.29" ry="18"/>
<text text-anchor="start" x="4944.61" y="-1492.73" font-family="Times New Roman,serif" font-size="14.00">van braun</text>
</g>
<!-- Entity35 -->
<g id="node23" class="node entity">
<title>Entity35</title>
<ellipse fill="none" stroke="black" cx="4859.18" cy="-1613.54" rx="74.99" ry="18"/>
<text text-anchor="start" x="4809.68" y="-1609.84" font-family="Times New Roman,serif" font-size="14.00">walter dornberger</text>
</g>
<!-- Entity58&#45;&gt;Entity35 -->
<g id="edge16" class="edge verb">
<title>Entity58&#45;&gt;Entity35</title>
<path fill="none" stroke="black" d="M4955.69,-1513.46C4936.68,-1533.18 4905.17,-1565.84 4883.36,-1588.47"/>
<polygon fill="black" stroke="black" points="4880.79,-1586.09 4876.36,-1595.72 4885.82,-1590.95 4880.79,-1586.09"/>
<text text-anchor="start" x="4856.53" y="-1554.76" font-family="Times New Roman,serif" font-size="14.00">worked for</text>
</g>
<!-- Entity100 -->
<g id="node38" class="node entity">
<title>Entity100</title>
<ellipse fill="none" stroke="black" cx="4546.52" cy="-1435.22" rx="90.98" ry="18"/>
<text text-anchor="start" x="4484.52" y="-1431.52" font-family="Times New Roman,serif" font-size="14.00">nsdap rocket program</text>
</g>
<!-- Entity58&#45;&gt;Entity100 -->
<g id="edge51" class="edge verb">
<title>Entity58&#45;&gt;Entity100</title>
<path fill="none" stroke="black" d="M4928.57,-1490.17C4858.6,-1480.1 4719.93,-1460.16 4630.3,-1447.27"/>
<polygon fill="black" stroke="black" points="4630.56,-1443.77 4620.17,-1445.81 4629.57,-1450.7 4630.56,-1443.77"/>
<text text-anchor="start" x="4723.44" y="-1472.52" font-family="Times New Roman,serif" font-size="14.00">worked at</text>
</g>
<!-- Entity35&#45;&gt;Entity71 -->
<g id="edge52" class="edge verb">
<title>Entity35&#45;&gt;Entity71</title>
<path fill="none" stroke="black" d="M4870.17,-1595.55C4919.52,-1514.73 5120.85,-1185.04 5179.18,-1089.53"/>
<polygon fill="black" stroke="black" points="5182.29,-1091.14 5184.52,-1080.78 5176.32,-1087.49 5182.29,-1091.14"/>
<text text-anchor="start" x="4963.67" y="-1346.34" font-family="Times New Roman,serif" font-size="14.00">member of</text>
</g>
<!-- Entity35&#45;&gt;Entity76 -->
<g id="edge25" class="edge verb">
<title>Entity35&#45;&gt;Entity76</title>
<path fill="none" stroke="black" d="M4855.21,-1631.73C4842.08,-1722.28 4808.38,-2124.46 4804.41,-2234.96"/>
<polygon fill="black" stroke="black" points="4800.91,-2234.91 4804.12,-2245 4807.91,-2235.11 4800.91,-2234.91"/>
<text text-anchor="start" x="4773.81" y="-1937.14" font-family="Times New Roman,serif" font-size="14.00">worked at</text>
</g>
<!-- Entity35&#45;&gt;Entity76 -->
<g id="edge32" class="edge verb">
<title>Entity35&#45;&gt;Entity76</title>
<path fill="none" stroke="black" d="M4860.09,-1631.79C4858.13,-1722.48 4824.79,-2124.65 4810.36,-2235.03"/>
<polygon fill="black" stroke="black" points="4806.87,-2234.68 4808.98,-2245.06 4813.81,-2235.63 4806.87,-2234.68"/>
<text text-anchor="start" x="4835.22" y="-1937.21" font-family="Times New Roman,serif" font-size="14.00">vice&#45;president</text>
</g>
<!-- Entity35&#45;&gt;Entity100 -->
<g id="edge34" class="edge verb">
<title>Entity35&#45;&gt;Entity100</title>
<path fill="none" stroke="black" d="M4830.05,-1596.92C4773.55,-1564.7 4649.09,-1493.71 4585.53,-1457.47"/>
<polygon fill="black" stroke="black" points="4587.03,-1454.29 4576.61,-1452.38 4583.57,-1460.37 4587.03,-1454.29"/>
<text text-anchor="start" x="4666.79" y="-1530.99" font-family="Times New Roman,serif" font-size="14.00">created</text>
</g>
<!-- Entity99 -->
<g id="node42" class="node entity">
<title>Entity99</title>
<ellipse fill="none" stroke="black" cx="5421.05" cy="-1408.27" rx="65.79" ry="18"/>
<text text-anchor="start" x="5378.55" y="-1404.57" font-family="Times New Roman,serif" font-size="14.00">x series aircraft</text>
</g>
<!-- Entity35&#45;&gt;Entity99 -->
<g id="edge39" class="edge verb">
<title>Entity35&#45;&gt;Entity99</title>
<path fill="none" stroke="black" d="M4900.5,-1598.44C5001.98,-1561.37 5263.11,-1465.97 5372.12,-1426.14"/>
<polygon fill="black" stroke="black" points="5373.37,-1429.41 5381.56,-1422.69 5370.97,-1422.84 5373.37,-1429.41"/>
<text text-anchor="start" x="5095.31" y="-1516.09" font-family="Times New Roman,serif" font-size="14.00">created</text>
</g>
<!-- Entity72 -->
<g id="node24" class="node entity">
<title>Entity72</title>
<ellipse fill="none" stroke="black" cx="3238.94" cy="-2061.66" rx="27" ry="18"/>
<text text-anchor="start" x="3235.44" y="-2057.96" font-family="Times New Roman,serif" font-size="14.00">s</text>
</g>
<!-- Entity74 -->
<g id="node25" class="node entity">
<title>Entity74</title>
<ellipse fill="none" stroke="black" cx="3326.66" cy="-2173.64" rx="27" ry="18"/>
<text text-anchor="start" x="3322.66" y="-2169.94" font-family="Times New Roman,serif" font-size="14.00">o</text>
</g>
<!-- Entity72&#45;&gt;Entity74 -->
<g id="edge17" class="edge verb">
<title>Entity72&#45;&gt;Entity74</title>
<path fill="none" stroke="black" d="M3251.51,-2077.7C3266.23,-2096.5 3290.76,-2127.82 3307.78,-2149.53"/>
<polygon fill="black" stroke="black" points="3305.19,-2151.91 3314.11,-2157.62 3310.7,-2147.59 3305.19,-2151.91"/>
<text text-anchor="start" x="3272.64" y="-2117.42" font-family="Times New Roman,serif" font-size="14.00">v</text>
</g>
<!-- Entity21 -->
<g id="node27" class="node entity">
<title>Entity21</title>
<ellipse fill="none" stroke="black" cx="2104.75" cy="-3552.89" rx="35.19" ry="18"/>
<text text-anchor="start" x="2085.75" y="-3549.19" font-family="Times New Roman,serif" font-size="14.00">obama</text>
</g>
<!-- Entity21&#45;&gt;Entity77 -->
<g id="edge19" class="edge verb">
<title>Entity21&#45;&gt;Entity77</title>
<path fill="none" stroke="black" d="M2112.48,-3535.09C2134.81,-3483.68 2199.52,-3334.71 2226.15,-3273.39"/>
<polygon fill="black" stroke="black" points="2229.46,-3274.56 2230.23,-3263.99 2223.04,-3271.77 2229.46,-3274.56"/>
<text text-anchor="start" x="2153.32" y="-3408.04" font-family="Times New Roman,serif" font-size="14.00">isa</text>
</g>
<!-- Entity32 -->
<g id="node30" class="node entity">
<title>Entity32</title>
<ellipse fill="none" stroke="black" cx="69.24" cy="-2107.78" rx="69.59" ry="18"/>
<text text-anchor="start" x="23.74" y="-2104.08" font-family="Times New Roman,serif" font-size="14.00">andrew breitbart</text>
</g>
<!-- Entity32&#45;&gt;Entity80 -->
<g id="edge21" class="edge verb">
<title>Entity32&#45;&gt;Entity80</title>
<path fill="none" stroke="black" d="M103.69,-2123.56C198.06,-2166.78 460.65,-2287.06 564.11,-2334.45"/>
<polygon fill="black" stroke="black" points="562.78,-2337.69 573.33,-2338.67 565.69,-2331.32 562.78,-2337.69"/>
<text text-anchor="start" x="292.9" y="-2232.8" font-family="Times New Roman,serif" font-size="14.00">created</text>
</g>
<!-- Entity43 -->
<g id="node32" class="node entity">
<title>Entity43</title>
<ellipse fill="none" stroke="black" cx="1795.34" cy="-2872.24" rx="71.49" ry="18"/>
<text text-anchor="start" x="1748.34" y="-2868.54" font-family="Times New Roman,serif" font-size="14.00">woodrow wilson</text>
</g>
<!-- Entity43&#45;&gt;Entity77 -->
<g id="edge23" class="edge verb">
<title>Entity43&#45;&gt;Entity77</title>
<path fill="none" stroke="black" d="M1815.79,-2889.54C1888.11,-2950.71 2131.7,-3156.76 2211.94,-3224.64"/>
<polygon fill="black" stroke="black" points="2210.15,-3227.71 2220.04,-3231.5 2214.67,-3222.37 2210.15,-3227.71"/>
<text text-anchor="start" x="1997.87" y="-3060.89" font-family="Times New Roman,serif" font-size="14.00">isa</text>
</g>
<!-- Entity110 -->
<g id="node53" class="node entity">
<title>Entity110</title>
<ellipse fill="none" stroke="black" cx="1384.41" cy="-2425.67" rx="71.49" ry="18"/>
<text text-anchor="start" x="1337.41" y="-2421.97" font-family="Times New Roman,serif" font-size="14.00">leauge of nations</text>
</g>
<!-- Entity43&#45;&gt;Entity110 -->
<g id="edge58" class="edge verb">
<title>Entity43&#45;&gt;Entity110</title>
<path fill="none" stroke="black" d="M1778.98,-2854.45C1715.19,-2785.13 1483.03,-2532.84 1407.98,-2451.29"/>
<polygon fill="black" stroke="black" points="1410.16,-2448.49 1400.82,-2443.5 1405.01,-2453.23 1410.16,-2448.49"/>
<text text-anchor="start" x="1552.48" y="-2656.67" font-family="Times New Roman,serif" font-size="14.00">created</text>
</g>
<!-- Entity27 -->
<g id="node34" class="node entity">
<title>Entity27</title>
<ellipse fill="none" stroke="black" cx="4342.98" cy="-2735.68" rx="63.89" ry="18"/>
<text text-anchor="start" x="4301.98" y="-2731.98" font-family="Times New Roman,serif" font-size="14.00">robert bigelow</text>
</g>
<!-- Entity27&#45;&gt;Entity3 -->
<g id="edge27" class="edge verb">
<title>Entity27&#45;&gt;Entity3</title>
<path fill="none" stroke="black" d="M4352.93,-2753.55C4388.54,-2817.5 4509.78,-3035.27 4552.62,-3112.21"/>
<polygon fill="black" stroke="black" points="4549.75,-3114.25 4557.67,-3121.29 4555.87,-3110.85 4549.75,-3114.25"/>
<text text-anchor="start" x="4420.78" y="-2936.68" font-family="Times New Roman,serif" font-size="14.00">funds</text>
</g>
<!-- Entity27&#45;&gt;Entity75 -->
<g id="edge43" class="edge verb">
<title>Entity27&#45;&gt;Entity75</title>
<path fill="none" stroke="black" d="M4312.1,-2751.55C4231.6,-2792.93 4015.27,-2904.12 3924.37,-2950.84"/>
<polygon fill="black" stroke="black" points="3922.49,-2947.87 3915.2,-2955.56 3925.69,-2954.1 3922.49,-2947.87"/>
<text text-anchor="start" x="4054.23" y="-2855" font-family="Times New Roman,serif" font-size="14.00">investigates</text>
</g>
<!-- Entity48 -->
<g id="node39" class="node entity">
<title>Entity48</title>
<ellipse fill="none" stroke="black" cx="2598.57" cy="-4509.77" rx="58.49" ry="18"/>
<text text-anchor="start" x="2561.57" y="-4506.07" font-family="Times New Roman,serif" font-size="14.00">rudolf steiner</text>
</g>
<!-- Entity48&#45;&gt;Entity96 -->
<g id="edge35" class="edge verb">
<title>Entity48&#45;&gt;Entity96</title>
<path fill="none" stroke="black" d="M2585.86,-4492.12C2536.51,-4423.63 2357.47,-4175.14 2298.38,-4093.12"/>
<polygon fill="black" stroke="black" points="2301.1,-4090.9 2292.41,-4084.84 2295.42,-4095 2301.1,-4090.9"/>
<text text-anchor="start" x="2376.12" y="-4296.42" font-family="Times New Roman,serif" font-size="14.00">memberr of</text>
</g>
<!-- Entity109 -->
<g id="node54" class="node entity">
<title>Entity109</title>
<ellipse fill="none" stroke="black" cx="2645.54" cy="-4628.55" rx="102.08" ry="18"/>
<text text-anchor="start" x="2575.04" y="-4624.85" font-family="Times New Roman,serif" font-size="14.00">anthroposophical society</text>
</g>
<!-- Entity48&#45;&gt;Entity109 -->
<g id="edge59" class="edge verb">
<title>Entity48&#45;&gt;Entity109</title>
<path fill="none" stroke="black" d="M2605.7,-4527.81C2613.39,-4547.26 2625.73,-4578.45 2634.64,-4600.98"/>
<polygon fill="black" stroke="black" points="2631.41,-4602.33 2638.34,-4610.34 2637.92,-4599.76 2631.41,-4602.33"/>
<text text-anchor="start" x="2579.17" y="-4568.19" font-family="Times New Roman,serif" font-size="14.00">created</text>
</g>
<!-- Entity18 -->
<g id="node40" class="node entity">
<title>Entity18</title>
<ellipse fill="none" stroke="black" cx="2455.41" cy="-3132.33" rx="58.49" ry="18"/>
<text text-anchor="start" x="2418.41" y="-3128.63" font-family="Times New Roman,serif" font-size="14.00">richard nixon</text>
</g>
<!-- Entity18&#45;&gt;Entity77 -->
<g id="edge36" class="edge verb">
<title>Entity18&#45;&gt;Entity77</title>
<path fill="none" stroke="black" d="M2425.61,-3147.97C2384.82,-3169.38 2311.87,-3207.66 2269.91,-3229.69"/>
<polygon fill="black" stroke="black" points="2268.18,-3226.64 2260.95,-3234.39 2271.43,-3232.84 2268.18,-3226.64"/>
<text text-anchor="start" x="2331.76" y="-3192.63" font-family="Times New Roman,serif" font-size="14.00">isa</text>
</g>
<!-- Entity17 -->
<g id="node41" class="node entity">
<title>Entity17</title>
<ellipse fill="none" stroke="black" cx="2303.29" cy="-2886.01" rx="56.59" ry="18"/>
<text text-anchor="start" x="2267.79" y="-2882.31" font-family="Times New Roman,serif" font-size="14.00">harry truman</text>
</g>
<!-- Entity17&#45;&gt;Entity77 -->
<g id="edge37" class="edge verb">
<title>Entity17&#45;&gt;Entity77</title>
<path fill="none" stroke="black" d="M2299.95,-2904.38C2289.24,-2963.34 2255.7,-3148.04 2242.87,-3218.68"/>
<polygon fill="black" stroke="black" points="2239.41,-3218.16 2241.07,-3228.62 2246.3,-3219.41 2239.41,-3218.16"/>
<text text-anchor="start" x="2255.41" y="-3065.33" font-family="Times New Roman,serif" font-size="14.00">isa</text>
</g>
<!-- Entity116 -->
<g id="node59" class="node entity">
<title>Entity116</title>
<ellipse fill="none" stroke="black" cx="2311.75" cy="-2777.5" rx="55.79" ry="18"/>
<text text-anchor="start" x="2276.75" y="-2773.8" font-family="Times New Roman,serif" font-size="14.00">freemasonry</text>
</g>
<!-- Entity17&#45;&gt;Entity116 -->
<g id="edge65" class="edge verb">
<title>Entity17&#45;&gt;Entity116</title>
<path fill="none" stroke="black" d="M2304.72,-2867.6C2306.04,-2850.66 2308.02,-2825.29 2309.54,-2805.78"/>
<polygon fill="black" stroke="black" points="2313.05,-2805.87 2310.33,-2795.63 2306.07,-2805.33 2313.05,-2805.87"/>
<text text-anchor="start" x="2246.13" y="-2840.49" font-family="Times New Roman,serif" font-size="14.00">member of</text>
</g>
<!-- Entity23 -->
<g id="node43" class="node entity">
<title>Entity23</title>
<ellipse fill="none" stroke="black" cx="2635.15" cy="-3308.08" rx="31.4" ry="18"/>
<text text-anchor="start" x="2619.15" y="-3304.38" font-family="Times New Roman,serif" font-size="14.00">carter</text>
</g>
<!-- Entity23&#45;&gt;Entity77 -->
<g id="edge41" class="edge verb">
<title>Entity23&#45;&gt;Entity77</title>
<path fill="none" stroke="black" d="M2604.96,-3303.4C2534.24,-3292.45 2357.85,-3265.12 2278.1,-3252.77"/>
<polygon fill="black" stroke="black" points="2278.38,-3249.27 2267.96,-3251.2 2277.31,-3256.19 2278.38,-3249.27"/>
<text text-anchor="start" x="2425.53" y="-3281.89" font-family="Times New Roman,serif" font-size="14.00">isa</text>
</g>
<!-- Entity23&#45;&gt;Entity108 -->
<g id="edge57" class="edge verb">
<title>Entity23&#45;&gt;Entity108</title>
<path fill="none" stroke="black" d="M2664.15,-3301.17C2726.33,-3286.37 2872.34,-3251.61 2939.87,-3235.54"/>
<polygon fill="black" stroke="black" points="2940.7,-3238.94 2949.62,-3233.22 2939.08,-3232.13 2940.7,-3238.94"/>
<text text-anchor="start" x="2747.01" y="-3272.16" font-family="Times New Roman,serif" font-size="14.00">witnessed</text>
</g>
<!-- Entity50 -->
<g id="node44" class="node entity">
<title>Entity50</title>
<ellipse fill="none" stroke="black" cx="2308.14" cy="-4182.7" rx="73.39" ry="18"/>
<text text-anchor="start" x="2259.64" y="-4179" font-family="Times New Roman,serif" font-size="14.00">madam blavatsky</text>
</g>
<!-- Entity50&#45;&gt;Entity96 -->
<g id="edge44" class="edge verb">
<title>Entity50&#45;&gt;Entity96</title>
<path fill="none" stroke="black" d="M2303.64,-4164.57C2298.98,-4145.83 2291.66,-4116.34 2286.26,-4094.62"/>
<polygon fill="black" stroke="black" points="2289.6,-4093.52 2283.79,-4084.66 2282.8,-4095.21 2289.6,-4093.52"/>
<text text-anchor="start" x="2253.95" y="-4133.39" font-family="Times New Roman,serif" font-size="14.00">created</text>
</g>
<!-- Entity51 -->
<g id="node45" class="node entity">
<title>Entity51</title>
<ellipse fill="none" stroke="black" cx="1753.05" cy="-2315.12" rx="53.89" ry="18"/>
<text text-anchor="start" x="1719.55" y="-2311.42" font-family="Times New Roman,serif" font-size="14.00">edgar casey</text>
</g>
<!-- Entity51&#45;&gt;Entity43 -->
<g id="edge48" class="edge verb">
<title>Entity51&#45;&gt;Entity43</title>
<path fill="none" stroke="black" d="M1754.43,-2333.34C1760.6,-2414.68 1785.68,-2744.95 1793.2,-2844.01"/>
<polygon fill="black" stroke="black" points="1789.72,-2844.45 1793.97,-2854.15 1796.7,-2843.92 1789.72,-2844.45"/>
<text text-anchor="start" x="1731.81" y="-2592.48" font-family="Times New Roman,serif" font-size="14.00">advises</text>
</g>
<!-- Entity29 -->
<g id="node46" class="node entity">
<title>Entity29</title>
<ellipse fill="none" stroke="black" cx="5192.67" cy="-1995.82" rx="57.69" ry="18"/>
<text text-anchor="start" x="5156.17" y="-1992.12" font-family="Times New Roman,serif" font-size="14.00">michael pane</text>
</g>
<!-- Entity29&#45;&gt;Entity35 -->
<g id="edge50" class="edge verb">
<title>Entity29&#45;&gt;Entity35</title>
<path fill="none" stroke="black" d="M5177.47,-1978.4C5124.1,-1917.22 4945.04,-1711.95 4881.65,-1639.29"/>
<polygon fill="black" stroke="black" points="4884.06,-1636.73 4874.85,-1631.5 4878.79,-1641.34 4884.06,-1636.73"/>
<text text-anchor="start" x="4966.56" y="-1812.65" font-family="Times New Roman,serif" font-size="14.00">worked for</text>
</g>
<!-- Entity29&#45;&gt;Entity76 -->
<g id="edge49" class="edge verb">
<title>Entity29&#45;&gt;Entity76</title>
<path fill="none" stroke="black" d="M5168.71,-2012.34C5101.8,-2058.48 4912.86,-2188.77 4837.07,-2241.04"/>
<polygon fill="black" stroke="black" points="4835.07,-2238.16 4828.83,-2246.72 4839.05,-2243.93 4835.07,-2238.16"/>
<text text-anchor="start" x="4946.89" y="-2130.49" font-family="Times New Roman,serif" font-size="14.00">worked at</text>
</g>
<!-- Entity30 -->
<g id="node49" class="node entity">
<title>Entity30</title>
<ellipse fill="none" stroke="black" cx="3543.94" cy="-2645.66" rx="39.79" ry="18"/>
<text text-anchor="start" x="3521.44" y="-2641.96" font-family="Times New Roman,serif" font-size="14.00">crowley</text>
</g>
<!-- Entity106 -->
<g id="node50" class="node entity">
<title>Entity106</title>
<ellipse fill="none" stroke="black" cx="3631.66" cy="-2757.64" rx="38.99" ry="18"/>
<text text-anchor="start" x="3609.66" y="-2753.94" font-family="Times New Roman,serif" font-size="14.00">x magic</text>
</g>
<!-- Entity30&#45;&gt;Entity106 -->
<g id="edge55" class="edge verb">
<title>Entity30&#45;&gt;Entity106</title>
<path fill="none" stroke="black" d="M3557.26,-2662.67C3571.82,-2681.25 3595.28,-2711.2 3611.96,-2732.49"/>
<polygon fill="black" stroke="black" points="3609.29,-2734.76 3618.21,-2740.47 3614.8,-2730.44 3609.29,-2734.76"/>
<text text-anchor="start" x="3523.61" y="-2701.38" font-family="Times New Roman,serif" font-size="14.00">member of</text>
</g>
<!-- Entity56 -->
<g id="node56" class="node entity">
<title>Entity56</title>
<ellipse fill="none" stroke="black" cx="3849.94" cy="-1769.66" rx="53.89" ry="18"/>
<text text-anchor="start" x="3816.44" y="-1765.96" font-family="Times New Roman,serif" font-size="14.00">black magic</text>
</g>
<!-- Entity114 -->
<g id="node57" class="node entity">
<title>Entity114</title>
<ellipse fill="none" stroke="black" cx="3937.66" cy="-1881.64" rx="28.7" ry="18"/>
<text text-anchor="start" x="3923.66" y="-1877.94" font-family="Times New Roman,serif" font-size="14.00">x left</text>
</g>
<!-- Entity56&#45;&gt;Entity114 -->
<g id="edge61" class="edge verb">
<title>Entity56&#45;&gt;Entity114</title>
<path fill="none" stroke="black" d="M3863.64,-1787.16C3878.45,-1806.05 3902.14,-1836.29 3918.72,-1857.45"/>
<polygon fill="black" stroke="black" points="3915.98,-1859.64 3924.9,-1865.36 3921.49,-1855.32 3915.98,-1859.64"/>
<text text-anchor="start" x="3830.18" y="-1826.11" font-family="Times New Roman,serif" font-size="14.00">member of</text>
</g>
</g>
</svg>
