<?xml version="1.0" encoding="UTF-8" standalone="no"?>
<?xml-stylesheet href="./styles.css" type="text/css"?>
<!DOCTYPE svg PUBLIC "-//W3C//DTD SVG 1.1//EN"
 "http://www.w3.org/Graphics/SVG/1.1/DTD/svg11.dtd">
<!-- Generated by graphviz version 2.47.3 (20210619.1520)
 -->
<!-- Title: G Pages: 1 -->
<svg width="6651pt" height="5254pt"
 viewBox="0.00 0.00 6651.00 5254.00" xmlns="http://www.w3.org/2000/svg" xmlns:xlink="http://www.w3.org/1999/xlink">
<g id="graph0" class="graph" transform="scale(1 1) rotate(0) translate(4 5250)">
<title>G</title>
<polygon fill="white" stroke="transparent" points="-4,4 -4,-5250 6647,-5250 6647,4 -4,4"/>
<!-- Entity3 -->
<g id="node1" class="node entity">
<title>Entity3</title>
<ellipse fill="none" stroke="black" cx="3903.56" cy="-3204.81" rx="64.19" ry="18"/>
<text text-anchor="start" x="3862.06" y="-3201.11" font-family="Times New Roman,serif" font-size="14.00">john f kennedy</text>
</g>
<!-- Entity22 -->
<g id="node2" class="node entity">
<title>Entity22</title>
<ellipse fill="none" stroke="black" cx="3509.47" cy="-2995.83" rx="27" ry="18"/>
<text text-anchor="start" x="3501.47" y="-2992.13" font-family="Times New Roman,serif" font-size="14.00">cia</text>
</g>
<!-- Entity3&#45;&gt;Entity22 -->
<g id="edge1" class="edge verb">
<title>Entity3&#45;&gt;Entity22</title>
<path fill="none" stroke="black" d="M3873.3,-3188.76C3799.99,-3149.88 3613.55,-3051.02 3539.99,-3012.01"/>
<polygon fill="black" stroke="black" points="3541.26,-3008.72 3530.78,-3007.13 3537.98,-3014.9 3541.26,-3008.72"/>
<text text-anchor="start" x="3602.64" y="-3104.18" font-family="Times New Roman,serif" font-size="14.00">heads (1961&#45;1963)</text>
</g>
<!-- Entity66 -->
<g id="node20" class="node entity">
<title>Entity66</title>
<ellipse fill="none" stroke="black" cx="4244.28" cy="-3540.92" rx="31.4" ry="18"/>
<text text-anchor="start" x="4228.28" y="-3537.22" font-family="Times New Roman,serif" font-size="14.00">potus</text>
</g>
<!-- Entity3&#45;&gt;Entity66 -->
<g id="edge23" class="edge verb">
<title>Entity3&#45;&gt;Entity66</title>
<path fill="none" stroke="black" d="M3921.4,-3222.41C3978.51,-3278.74 4156.81,-3454.63 4220.98,-3517.93"/>
<polygon fill="black" stroke="black" points="4218.64,-3520.55 4228.22,-3525.08 4223.56,-3515.56 4218.64,-3520.55"/>
<text text-anchor="start" x="3984.19" y="-3373.97" font-family="Times New Roman,serif" font-size="14.00">isa (1961&#45;1963)</text>
</g>
<!-- Entity67 -->
<g id="node25" class="node entity">
<title>Entity67</title>
<ellipse fill="none" stroke="black" cx="2860.9" cy="-2999.06" rx="77.19" ry="18"/>
<text text-anchor="start" x="2809.4" y="-2995.36" font-family="Times New Roman,serif" font-size="14.00">psi&#45;consciousness</text>
</g>
<!-- Entity22&#45;&gt;Entity67 -->
<g id="edge43" class="edge verb">
<title>Entity22&#45;&gt;Entity67</title>
<path fill="none" stroke="black" d="M3482.43,-2995.96C3391.97,-2996.41 3097.27,-2997.88 2948.51,-2998.62"/>
<polygon fill="black" stroke="black" points="2948.47,-2995.12 2938.49,-2998.67 2948.5,-3002.12 2948.47,-2995.12"/>
<text text-anchor="start" x="3151.47" y="-3001.09" font-family="Times New Roman,serif" font-size="14.00">investigates</text>
</g>
<!-- Entity90 -->
<g id="node52" class="node entity">
<title>Entity90</title>
<ellipse fill="none" stroke="black" cx="3629.47" cy="-3233.78" rx="27" ry="18"/>
<text text-anchor="start" x="3619.97" y="-3230.08" font-family="Times New Roman,serif" font-size="14.00">ufo</text>
</g>
<!-- Entity22&#45;&gt;Entity90 -->
<g id="edge62" class="edge verb">
<title>Entity22&#45;&gt;Entity90</title>
<path fill="none" stroke="black" d="M3518.1,-3012.94C3538.81,-3054 3591.42,-3158.33 3616.19,-3207.45"/>
<polygon fill="black" stroke="black" points="3613.13,-3209.15 3620.76,-3216.5 3619.38,-3206 3613.13,-3209.15"/>
<text text-anchor="start" x="3503.15" y="-3113.99" font-family="Times New Roman,serif" font-size="14.00">investigates</text>
</g>
<!-- Entity14 -->
<g id="node3" class="node entity">
<title>Entity14</title>
<ellipse fill="none" stroke="black" cx="1616.18" cy="-3045.52" rx="74.99" ry="18"/>
<text text-anchor="start" x="1566.68" y="-3041.82" font-family="Times New Roman,serif" font-size="14.00">gene roddenberry</text>
</g>
<!-- Entity8 -->
<g id="node4" class="node entity">
<title>Entity8</title>
<ellipse fill="none" stroke="black" cx="1690.33" cy="-3153.45" rx="38.19" ry="18"/>
<text text-anchor="start" x="1668.83" y="-3149.75" font-family="Times New Roman,serif" font-size="14.00">the nine</text>
</g>
<!-- Entity14&#45;&gt;Entity8 -->
<g id="edge2" class="edge verb">
<title>Entity14&#45;&gt;Entity8</title>
<path fill="none" stroke="black" d="M1628.43,-3063.34C1640.54,-3080.97 1659.19,-3108.12 1672.86,-3128.02"/>
<polygon fill="black" stroke="black" points="1670.01,-3130.06 1678.56,-3136.32 1675.78,-3126.09 1670.01,-3130.06"/>
<text text-anchor="start" x="1546.64" y="-3099.48" font-family="Times New Roman,serif" font-size="14.00">claiemd to channel</text>
</g>
<!-- Entity70 -->
<g id="node23" class="node entity">
<title>Entity70</title>
<ellipse fill="none" stroke="black" cx="1289.67" cy="-2721.74" rx="94.48" ry="18"/>
<text text-anchor="start" x="1225.17" y="-2718.04" font-family="Times New Roman,serif" font-size="14.00">egyptian gods in a ship</text>
</g>
<!-- Entity8&#45;&gt;Entity70 -->
<g id="edge16" class="edge verb">
<title>Entity8&#45;&gt;Entity70</title>
<path fill="none" stroke="black" d="M1674.87,-3136.79C1613.56,-3070.73 1387.25,-2826.87 1313.25,-2747.15"/>
<polygon fill="black" stroke="black" points="1315.55,-2744.47 1306.18,-2739.53 1310.42,-2749.24 1315.55,-2744.47"/>
<text text-anchor="start" x="1390.06" y="-2945.77" font-family="Times New Roman,serif" font-size="14.00">claimed to channel</text>
</g>
<!-- Entity16 -->
<g id="node5" class="node entity">
<title>Entity16</title>
<ellipse fill="none" stroke="black" cx="3730.18" cy="-3526.12" rx="68.49" ry="18"/>
<text text-anchor="start" x="3685.68" y="-3522.42" font-family="Times New Roman,serif" font-size="14.00">george hw bush</text>
</g>
<!-- Entity20 -->
<g id="node6" class="node entity">
<title>Entity20</title>
<ellipse fill="none" stroke="black" cx="3641.34" cy="-3418.09" rx="63.89" ry="18"/>
<text text-anchor="start" x="3600.34" y="-3414.39" font-family="Times New Roman,serif" font-size="14.00">george w bush</text>
</g>
<!-- Entity16&#45;&gt;Entity20 -->
<g id="edge3" class="edge verb">
<title>Entity16&#45;&gt;Entity20</title>
<path fill="none" stroke="black" d="M3715.51,-3508.28C3701.04,-3490.69 3678.78,-3463.62 3662.43,-3443.73"/>
<polygon fill="black" stroke="black" points="3665.09,-3441.46 3656.04,-3435.96 3659.68,-3445.9 3665.09,-3441.46"/>
<text text-anchor="start" x="3656.97" y="-3479.8" font-family="Times New Roman,serif" font-size="14.00">father</text>
</g>
<!-- Entity16&#45;&gt;Entity66 -->
<g id="edge20" class="edge verb">
<title>Entity16&#45;&gt;Entity66</title>
<path fill="none" stroke="black" d="M3798.18,-3528.08C3906.35,-3531.19 4114.41,-3537.18 4202.86,-3539.73"/>
<polygon fill="black" stroke="black" points="4202.94,-3543.23 4213.04,-3540.02 4203.14,-3536.24 4202.94,-3543.23"/>
<text text-anchor="start" x="3984.52" y="-3537.7" font-family="Times New Roman,serif" font-size="14.00">isa</text>
</g>
<!-- Entity20&#45;&gt;Entity66 -->
<g id="edge42" class="edge verb">
<title>Entity20&#45;&gt;Entity66</title>
<path fill="none" stroke="black" d="M3693.27,-3428.67C3811.73,-3452.8 4099.76,-3511.48 4204.97,-3532.91"/>
<polygon fill="black" stroke="black" points="4204.36,-3536.36 4214.86,-3534.93 4205.76,-3529.5 4204.36,-3536.36"/>
<text text-anchor="start" x="3933.12" y="-3484.59" font-family="Times New Roman,serif" font-size="14.00">isa</text>
</g>
<!-- Entity2 -->
<g id="node7" class="node entity">
<title>Entity2</title>
<ellipse fill="none" stroke="black" cx="1937.13" cy="-3413.25" rx="41.69" ry="18"/>
<text text-anchor="start" x="1913.13" y="-3409.55" font-family="Times New Roman,serif" font-size="14.00">uri geller</text>
</g>
<!-- Entity2&#45;&gt;Entity8 -->
<g id="edge4" class="edge verb">
<title>Entity2&#45;&gt;Entity8</title>
<path fill="none" stroke="black" d="M1920.94,-3396.2C1878.3,-3351.32 1762.82,-3229.76 1713.34,-3177.68"/>
<polygon fill="black" stroke="black" points="1715.69,-3175.06 1706.26,-3170.22 1710.61,-3179.89 1715.69,-3175.06"/>
<text text-anchor="start" x="1713.14" y="-3290.74" font-family="Times New Roman,serif" font-size="14.00">claiemd to channel</text>
</g>
<!-- Entity26 -->
<g id="node8" class="node entity">
<title>Entity26</title>
<ellipse fill="none" stroke="black" cx="49.47" cy="-4198.24" rx="49.29" ry="18"/>
<text text-anchor="start" x="19.47" y="-4194.54" font-family="Times New Roman,serif" font-size="14.00">adolf hitler</text>
</g>
<!-- Entity28 -->
<g id="node9" class="node entity">
<title>Entity28</title>
<ellipse fill="none" stroke="black" cx="449.64" cy="-4104.18" rx="32.49" ry="18"/>
<text text-anchor="start" x="432.64" y="-4100.48" font-family="Times New Roman,serif" font-size="14.00">nsdap</text>
</g>
<!-- Entity26&#45;&gt;Entity28 -->
<g id="edge5" class="edge verb">
<title>Entity26&#45;&gt;Entity28</title>
<path fill="none" stroke="black" d="M91.16,-4188.44C168.5,-4170.26 333.23,-4131.54 409.43,-4113.63"/>
<polygon fill="black" stroke="black" points="410.64,-4116.94 419.58,-4111.25 409.04,-4110.13 410.64,-4116.94"/>
<text text-anchor="start" x="209.3" y="-4154.84" font-family="Times New Roman,serif" font-size="14.00">created</text>
</g>
<!-- Entity75 -->
<g id="node31" class="node entity">
<title>Entity75</title>
<ellipse fill="none" stroke="black" cx="350.95" cy="-4572.67" rx="38.99" ry="18"/>
<text text-anchor="start" x="328.95" y="-4568.97" font-family="Times New Roman,serif" font-size="14.00">far right</text>
</g>
<!-- Entity28&#45;&gt;Entity75 -->
<g id="edge29" class="edge verb">
<title>Entity28&#45;&gt;Entity75</title>
<path fill="none" stroke="black" d="M445.83,-4122.26C430.75,-4193.85 375.15,-4457.81 356.84,-4544.72"/>
<polygon fill="black" stroke="black" points="353.39,-4544.14 354.75,-4554.65 360.24,-4545.58 353.39,-4544.14"/>
<text text-anchor="start" x="340.34" y="-4337.29" font-family="Times New Roman,serif" font-size="14.00">member of</text>
</g>
<!-- Entity15 -->
<g id="node10" class="node entity">
<title>Entity15</title>
<ellipse fill="none" stroke="black" cx="4674.91" cy="-3121.04" rx="59.59" ry="18"/>
<text text-anchor="start" x="4636.91" y="-3117.34" font-family="Times New Roman,serif" font-size="14.00">donald trump</text>
</g>
<!-- Entity48 -->
<g id="node11" class="node entity">
<title>Entity48</title>
<ellipse fill="none" stroke="black" cx="4039.23" cy="-2990.48" rx="50.09" ry="18"/>
<text text-anchor="start" x="4008.73" y="-2986.78" font-family="Times New Roman,serif" font-size="14.00">john trump</text>
</g>
<!-- Entity15&#45;&gt;Entity48 -->
<g id="edge6" class="edge verb">
<title>Entity15&#45;&gt;Entity48</title>
<path fill="none" stroke="black" d="M4625.29,-3110.85C4507.91,-3086.74 4213.96,-3026.37 4092.76,-3001.47"/>
<polygon fill="black" stroke="black" points="4093.45,-2998.04 4082.95,-2999.46 4092.05,-3004.9 4093.45,-2998.04"/>
<text text-anchor="start" x="4359.02" y="-3059.96" font-family="Times New Roman,serif" font-size="14.00">nephew of</text>
</g>
<!-- Entity15&#45;&gt;Entity66 -->
<g id="edge27" class="edge verb">
<title>Entity15&#45;&gt;Entity66</title>
<path fill="none" stroke="black" d="M4657.22,-3138.29C4589.28,-3204.53 4345,-3442.71 4267.82,-3517.96"/>
<polygon fill="black" stroke="black" points="4265.19,-3515.64 4260.48,-3525.13 4270.08,-3520.65 4265.19,-3515.64"/>
<text text-anchor="start" x="4446.52" y="-3331.92" font-family="Times New Roman,serif" font-size="14.00">isa</text>
</g>
<!-- Entity48&#45;&gt;Entity22 -->
<g id="edge10" class="edge verb">
<title>Entity48&#45;&gt;Entity22</title>
<path fill="none" stroke="black" d="M3988.91,-2990.99C3883.1,-2992.05 3639.63,-2994.51 3546.57,-2995.45"/>
<polygon fill="black" stroke="black" points="3546.46,-2991.95 3536.49,-2995.55 3546.53,-2998.95 3546.46,-2991.95"/>
<text text-anchor="start" x="3706.74" y="-2997.02" font-family="Times New Roman,serif" font-size="14.00">member of</text>
</g>
<!-- Entity82 -->
<g id="node41" class="node entity">
<title>Entity82</title>
<ellipse fill="none" stroke="black" cx="4343.35" cy="-3047.85" rx="50.89" ry="18"/>
<text text-anchor="start" x="4312.35" y="-3044.15" font-family="Times New Roman,serif" font-size="14.00">nikola tesla</text>
</g>
<!-- Entity48&#45;&gt;Entity82 -->
<g id="edge40" class="edge verb">
<title>Entity48&#45;&gt;Entity82</title>
<path fill="none" stroke="black" d="M4083.78,-2998.88C4138.05,-3009.12 4229.74,-3026.42 4288.36,-3037.47"/>
<polygon fill="black" stroke="black" points="4287.71,-3040.91 4298.19,-3039.33 4289.01,-3034.03 4287.71,-3040.91"/>
<text text-anchor="start" x="4145.07" y="-3021.98" font-family="Times New Roman,serif" font-size="14.00">studied</text>
</g>
<!-- Entity5 -->
<g id="node12" class="node entity">
<title>Entity5</title>
<ellipse fill="none" stroke="black" cx="2050.76" cy="-3088.96" rx="65.79" ry="18"/>
<text text-anchor="start" x="2008.26" y="-3085.26" font-family="Times New Roman,serif" font-size="14.00">arthur m young</text>
</g>
<!-- Entity5&#45;&gt;Entity8 -->
<g id="edge7" class="edge verb">
<title>Entity5&#45;&gt;Entity8</title>
<path fill="none" stroke="black" d="M1995.63,-3098.83C1924.68,-3111.52 1802.71,-3133.35 1736.44,-3145.2"/>
<polygon fill="black" stroke="black" points="1735.53,-3141.81 1726.3,-3147.02 1736.76,-3148.7 1735.53,-3141.81"/>
<text text-anchor="start" x="1804.04" y="-3125.82" font-family="Times New Roman,serif" font-size="14.00">member&#45;of</text>
</g>
<!-- Entity5&#45;&gt;Entity67 -->
<g id="edge18" class="edge verb">
<title>Entity5&#45;&gt;Entity67</title>
<path fill="none" stroke="black" d="M2111.66,-3082.21C2255.96,-3066.19 2618.73,-3025.93 2780.67,-3007.96"/>
<polygon fill="black" stroke="black" points="2781.49,-3011.39 2791.04,-3006.81 2780.72,-3004.43 2781.49,-3011.39"/>
<text text-anchor="start" x="2405.16" y="-3048.88" font-family="Times New Roman,serif" font-size="14.00">studied</text>
</g>
<!-- Entity72 -->
<g id="node28" class="node entity">
<title>Entity72</title>
<ellipse fill="none" stroke="black" cx="1371.13" cy="-3263.01" rx="53.89" ry="18"/>
<text text-anchor="start" x="1337.63" y="-3259.31" font-family="Times New Roman,serif" font-size="14.00">bell aviation</text>
</g>
<!-- Entity5&#45;&gt;Entity72 -->
<g id="edge24" class="edge verb">
<title>Entity5&#45;&gt;Entity72</title>
<path fill="none" stroke="black" d="M2002.7,-3101.27C1879.36,-3132.86 1552.34,-3216.61 1423.94,-3249.49"/>
<polygon fill="black" stroke="black" points="1422.77,-3246.18 1413.95,-3252.05 1424.51,-3252.96 1422.77,-3246.18"/>
<text text-anchor="start" x="1672.32" y="-3179.18" font-family="Times New Roman,serif" font-size="14.00">created</text>
</g>
<!-- Entity1 -->
<g id="node13" class="node entity">
<title>Entity1</title>
<ellipse fill="none" stroke="black" cx="1900.66" cy="-3521.24" rx="64.19" ry="18"/>
<text text-anchor="start" x="1859.16" y="-3517.54" font-family="Times New Roman,serif" font-size="14.00">andre puharich</text>
</g>
<!-- Entity1&#45;&gt;Entity2 -->
<g id="edge8" class="edge verb">
<title>Entity1&#45;&gt;Entity2</title>
<path fill="none" stroke="black" d="M1906.85,-3502.92C1912.59,-3485.91 1921.23,-3460.34 1927.81,-3440.86"/>
<polygon fill="black" stroke="black" points="1931.15,-3441.89 1931.03,-3431.3 1924.52,-3439.65 1931.15,-3441.89"/>
<text text-anchor="start" x="1857.33" y="-3475.69" font-family="Times New Roman,serif" font-size="14.00">sponsored</text>
</g>
<!-- Entity7 -->
<g id="node14" class="node entity">
<title>Entity7</title>
<ellipse fill="none" stroke="black" cx="2355.36" cy="-3215.07" rx="68.49" ry="18"/>
<text text-anchor="start" x="2310.86" y="-3211.37" font-family="Times New Roman,serif" font-size="14.00">jeffrey mishlove</text>
</g>
<!-- Entity7&#45;&gt;Entity2 -->
<g id="edge9" class="edge verb">
<title>Entity7&#45;&gt;Entity2</title>
<path fill="none" stroke="black" d="M2321.85,-3230.95C2244.73,-3267.49 2055.18,-3357.31 1974.48,-3395.55"/>
<polygon fill="black" stroke="black" points="1972.74,-3392.51 1965.2,-3399.95 1975.73,-3398.83 1972.74,-3392.51"/>
<text text-anchor="start" x="2093.16" y="-3317.05" font-family="Times New Roman,serif" font-size="14.00">promoted</text>
</g>
<!-- Entity7&#45;&gt;Entity67 -->
<g id="edge19" class="edge verb">
<title>Entity7&#45;&gt;Entity67</title>
<path fill="none" stroke="black" d="M2398.27,-3200.99C2494.95,-3163.81 2728.53,-3063.99 2821.65,-3020.06"/>
<polygon fill="black" stroke="black" points="2823.21,-3023.19 2830.73,-3015.73 2820.2,-3016.87 2823.21,-3023.19"/>
<text text-anchor="start" x="2568.96" y="-3114.32" font-family="Times New Roman,serif" font-size="14.00">studied</text>
</g>
<!-- Entity7&#45;&gt;Entity67 -->
<g id="edge26" class="edge verb">
<title>Entity7&#45;&gt;Entity67</title>
<path fill="none" stroke="black" d="M2384.87,-3198.71C2467.15,-3159.11 2699.94,-3059.32 2806.47,-3017.61"/>
<polygon fill="black" stroke="black" points="2808.02,-3020.76 2816.08,-3013.88 2805.49,-3014.24 2808.02,-3020.76"/>
<text text-anchor="start" x="2531.67" y="-3096.96" font-family="Times New Roman,serif" font-size="14.00">investigates</text>
</g>
<!-- Entity30 -->
<g id="node15" class="node entity">
<title>Entity30</title>
<ellipse fill="none" stroke="black" cx="802.91" cy="-3556.26" rx="74.99" ry="18"/>
<text text-anchor="start" x="753.41" y="-3552.56" font-family="Times New Roman,serif" font-size="14.00">walter dornberger</text>
</g>
<!-- Entity30&#45;&gt;Entity28 -->
<g id="edge11" class="edge verb">
<title>Entity30&#45;&gt;Entity28</title>
<path fill="none" stroke="black" d="M791.36,-3574.18C739.4,-3654.77 527.25,-3983.82 466.17,-4078.55"/>
<polygon fill="black" stroke="black" points="463.06,-4076.92 460.58,-4087.22 468.94,-4080.71 463.06,-4076.92"/>
<text text-anchor="start" x="567.76" y="-3830.16" font-family="Times New Roman,serif" font-size="14.00">member of</text>
</g>
<!-- Entity30&#45;&gt;Entity72 -->
<g id="edge35" class="edge verb">
<title>Entity30&#45;&gt;Entity72</title>
<path fill="none" stroke="black" d="M840.94,-3540.6C946.01,-3491.24 1238.94,-3340.04 1337.96,-3284.02"/>
<polygon fill="black" stroke="black" points="1339.71,-3287.05 1346.66,-3279.05 1336.24,-3280.97 1339.71,-3287.05"/>
<text text-anchor="start" x="1010.45" y="-3416.11" font-family="Times New Roman,serif" font-size="14.00">vice&#45;president</text>
</g>
<!-- Entity30&#45;&gt;Entity72 -->
<g id="edge49" class="edge verb">
<title>Entity30&#45;&gt;Entity72</title>
<path fill="none" stroke="black" d="M828.89,-3539.35C918.43,-3487.94 1214.61,-3334.84 1327.2,-3281.46"/>
<polygon fill="black" stroke="black" points="1329.01,-3284.48 1336.57,-3277.05 1326.03,-3278.14 1329.01,-3284.48"/>
<text text-anchor="start" x="1022.05" y="-3399.21" font-family="Times New Roman,serif" font-size="14.00">worked at</text>
</g>
<!-- Entity76 -->
<g id="node35" class="node entity">
<title>Entity76</title>
<ellipse fill="none" stroke="black" cx="1442.2" cy="-3406.57" rx="90.98" ry="18"/>
<text text-anchor="start" x="1380.2" y="-3402.87" font-family="Times New Roman,serif" font-size="14.00">nsdap rocket program</text>
</g>
<!-- Entity30&#45;&gt;Entity76 -->
<g id="edge36" class="edge verb">
<title>Entity30&#45;&gt;Entity76</title>
<path fill="none" stroke="black" d="M856.59,-3543.69C972.18,-3516.63 1244.53,-3452.86 1372.92,-3422.79"/>
<polygon fill="black" stroke="black" points="1374.09,-3426.12 1383.03,-3420.43 1372.5,-3419.3 1374.09,-3426.12"/>
<text text-anchor="start" x="1073.76" y="-3487.04" font-family="Times New Roman,serif" font-size="14.00">created</text>
</g>
<!-- Entity104 -->
<g id="node55" class="node entity">
<title>Entity104</title>
<ellipse fill="none" stroke="black" cx="210.24" cy="-3453.45" rx="65.79" ry="18"/>
<text text-anchor="start" x="167.74" y="-3449.75" font-family="Times New Roman,serif" font-size="14.00">x series aircraft</text>
</g>
<!-- Entity30&#45;&gt;Entity104 -->
<g id="edge59" class="edge verb">
<title>Entity30&#45;&gt;Entity104</title>
<path fill="none" stroke="black" d="M741.99,-3545.69C629.88,-3526.24 391.78,-3484.94 276.08,-3464.87"/>
<polygon fill="black" stroke="black" points="276.4,-3461.37 265.95,-3463.11 275.21,-3468.27 276.4,-3461.37"/>
<text text-anchor="start" x="468.04" y="-3509.08" font-family="Times New Roman,serif" font-size="14.00">created</text>
</g>
<!-- Entity32 -->
<g id="node16" class="node entity">
<title>Entity32</title>
<ellipse fill="none" stroke="black" cx="1232.34" cy="-3514.6" rx="46.29" ry="18"/>
<text text-anchor="start" x="1204.84" y="-3510.9" font-family="Times New Roman,serif" font-size="14.00">van braun</text>
</g>
<!-- Entity32&#45;&gt;Entity30 -->
<g id="edge12" class="edge verb">
<title>Entity32&#45;&gt;Entity30</title>
<path fill="none" stroke="black" d="M1187.19,-3518.98C1114.93,-3525.99 972.32,-3539.82 882.62,-3548.53"/>
<polygon fill="black" stroke="black" points="882.1,-3545.06 872.49,-3549.51 882.78,-3552.03 882.1,-3545.06"/>
<text text-anchor="start" x="971.9" y="-3537.55" font-family="Times New Roman,serif" font-size="14.00">worked for</text>
</g>
<!-- Entity32&#45;&gt;Entity76 -->
<g id="edge48" class="edge verb">
<title>Entity32&#45;&gt;Entity76</title>
<path fill="none" stroke="black" d="M1260.64,-3500.03C1296.63,-3481.5 1359.06,-3449.37 1400.5,-3428.04"/>
<polygon fill="black" stroke="black" points="1402.23,-3431.08 1409.52,-3423.39 1399.03,-3424.86 1402.23,-3431.08"/>
<text text-anchor="start" x="1274.57" y="-3467.83" font-family="Times New Roman,serif" font-size="14.00">worked at</text>
</g>
<!-- Entity29 -->
<g id="node17" class="node entity">
<title>Entity29</title>
<ellipse fill="none" stroke="black" cx="3950.62" cy="-4213.82" rx="37.89" ry="18"/>
<text text-anchor="start" x="3929.62" y="-4210.12" font-family="Times New Roman,serif" font-size="14.00">hunt oil</text>
</g>
<!-- Entity36 -->
<g id="node18" class="node entity">
<title>Entity36</title>
<ellipse fill="none" stroke="black" cx="3999.84" cy="-4105.74" rx="77.99" ry="18"/>
<text text-anchor="start" x="3947.84" y="-4102.04" font-family="Times New Roman,serif" font-size="14.00">dwight eisenhower</text>
</g>
<!-- Entity29&#45;&gt;Entity36 -->
<g id="edge13" class="edge verb">
<title>Entity29&#45;&gt;Entity36</title>
<path fill="none" stroke="black" d="M3958.75,-4195.97C3966.54,-4178.87 3978.41,-4152.8 3987.39,-4133.08"/>
<polygon fill="black" stroke="black" points="3990.58,-4134.53 3991.54,-4123.97 3984.21,-4131.62 3990.58,-4134.53"/>
<text text-anchor="start" x="3933.07" y="-4168.33" font-family="Times New Roman,serif" font-size="14.00">funded</text>
</g>
<!-- Entity36&#45;&gt;Entity66 -->
<g id="edge34" class="edge verb">
<title>Entity36&#45;&gt;Entity66</title>
<path fill="none" stroke="black" d="M4007.7,-4087.59C4043.37,-4005.16 4190.18,-3665.94 4232.69,-3567.7"/>
<polygon fill="black" stroke="black" points="4235.94,-3569.01 4236.7,-3558.45 4229.51,-3566.23 4235.94,-3569.01"/>
<text text-anchor="start" x="4101.2" y="-3831.44" font-family="Times New Roman,serif" font-size="14.00">is a</text>
</g>
<!-- Entity11 -->
<g id="node19" class="node entity">
<title>Entity11</title>
<ellipse fill="none" stroke="black" cx="4633.06" cy="-3866.43" rx="56.59" ry="18"/>
<text text-anchor="start" x="4597.56" y="-3862.73" font-family="Times New Roman,serif" font-size="14.00">harry truman</text>
</g>
<!-- Entity11&#45;&gt;Entity66 -->
<g id="edge14" class="edge verb">
<title>Entity11&#45;&gt;Entity66</title>
<path fill="none" stroke="black" d="M4612.7,-3849.39C4547.26,-3794.6 4342.32,-3623.01 4269.92,-3562.39"/>
<polygon fill="black" stroke="black" points="4272.07,-3559.63 4262.16,-3555.89 4267.58,-3565 4272.07,-3559.63"/>
<text text-anchor="start" x="4425.31" y="-3709.69" font-family="Times New Roman,serif" font-size="14.00">isa</text>
</g>
<!-- Entity69 -->
<g id="node24" class="node entity">
<title>Entity69</title>
<ellipse fill="none" stroke="black" cx="5026.93" cy="-4213.16" rx="55.79" ry="18"/>
<text text-anchor="start" x="4991.93" y="-4209.46" font-family="Times New Roman,serif" font-size="14.00">freemasonry</text>
</g>
<!-- Entity11&#45;&gt;Entity69 -->
<g id="edge17" class="edge verb">
<title>Entity11&#45;&gt;Entity69</title>
<path fill="none" stroke="black" d="M4652.32,-3883.39C4716.85,-3940.19 4925.49,-4123.86 5000.09,-4189.54"/>
<polygon fill="black" stroke="black" points="4997.88,-4192.26 5007.7,-4196.24 5002.51,-4187 4997.88,-4192.26"/>
<text text-anchor="start" x="4765.21" y="-4040.26" font-family="Times New Roman,serif" font-size="14.00">member of</text>
</g>
<!-- Entity63 -->
<g id="node21" class="node entity">
<title>Entity63</title>
<ellipse fill="none" stroke="black" cx="4502.94" cy="-4778.26" rx="53.89" ry="18"/>
<text text-anchor="start" x="4469.44" y="-4774.56" font-family="Times New Roman,serif" font-size="14.00">edgar casey</text>
</g>
<!-- Entity59 -->
<g id="node22" class="node entity">
<title>Entity59</title>
<ellipse fill="none" stroke="black" cx="4335.29" cy="-4231.65" rx="71.49" ry="18"/>
<text text-anchor="start" x="4288.29" y="-4227.95" font-family="Times New Roman,serif" font-size="14.00">woodrow wilson</text>
</g>
<!-- Entity63&#45;&gt;Entity59 -->
<g id="edge15" class="edge verb">
<title>Entity63&#45;&gt;Entity59</title>
<path fill="none" stroke="black" d="M4497.36,-4760.07C4472.72,-4679.73 4373.54,-4356.35 4343.77,-4259.31"/>
<polygon fill="black" stroke="black" points="4347.08,-4258.16 4340.8,-4249.63 4340.39,-4260.21 4347.08,-4258.16"/>
<text text-anchor="start" x="4378.57" y="-4513.49" font-family="Times New Roman,serif" font-size="14.00">advises</text>
</g>
<!-- Entity59&#45;&gt;Entity66 -->
<g id="edge30" class="edge verb">
<title>Entity59&#45;&gt;Entity66</title>
<path fill="none" stroke="black" d="M4332.9,-4213.53C4320.49,-4119.29 4263.28,-3685.13 4248.03,-3569.36"/>
<polygon fill="black" stroke="black" points="4251.46,-3568.63 4246.68,-3559.17 4244.52,-3569.54 4251.46,-3568.63"/>
<text text-anchor="start" x="4274.46" y="-3895.24" font-family="Times New Roman,serif" font-size="14.00">isa</text>
</g>
<!-- Entity92 -->
<g id="node50" class="node entity">
<title>Entity92</title>
<ellipse fill="none" stroke="black" cx="4335.96" cy="-4339.65" rx="71.49" ry="18"/>
<text text-anchor="start" x="4288.96" y="-4335.95" font-family="Times New Roman,serif" font-size="14.00">leauge of nations</text>
</g>
<!-- Entity59&#45;&gt;Entity92 -->
<g id="edge54" class="edge verb">
<title>Entity59&#45;&gt;Entity92</title>
<path fill="none" stroke="black" d="M4335.4,-4249.97C4335.51,-4266.83 4335.66,-4292.08 4335.78,-4311.5"/>
<polygon fill="black" stroke="black" points="4332.28,-4311.62 4335.85,-4321.6 4339.28,-4311.58 4332.28,-4311.62"/>
<text text-anchor="start" x="4294.59" y="-4284.54" font-family="Times New Roman,serif" font-size="14.00">created</text>
</g>
<!-- Entity18 -->
<g id="node26" class="node entity">
<title>Entity18</title>
<ellipse fill="none" stroke="black" cx="4358.21" cy="-3855.16" rx="35.19" ry="18"/>
<text text-anchor="start" x="4339.21" y="-3851.46" font-family="Times New Roman,serif" font-size="14.00">obama</text>
</g>
<!-- Entity18&#45;&gt;Entity66 -->
<g id="edge21" class="edge verb">
<title>Entity18&#45;&gt;Entity66</title>
<path fill="none" stroke="black" d="M4351.76,-3837.36C4332.81,-3785.09 4277.21,-3631.74 4254.31,-3568.59"/>
<polygon fill="black" stroke="black" points="4257.5,-3567.12 4250.8,-3558.91 4250.92,-3569.51 4257.5,-3567.12"/>
<text text-anchor="start" x="4287.04" y="-3706.77" font-family="Times New Roman,serif" font-size="14.00">isa</text>
</g>
<!-- Entity12 -->
<g id="node27" class="node entity">
<title>Entity12</title>
<ellipse fill="none" stroke="black" cx="4665.67" cy="-3619.25" rx="58.49" ry="18"/>
<text text-anchor="start" x="4628.67" y="-3615.55" font-family="Times New Roman,serif" font-size="14.00">richard nixon</text>
</g>
<!-- Entity12&#45;&gt;Entity66 -->
<g id="edge22" class="edge verb">
<title>Entity12&#45;&gt;Entity66</title>
<path fill="none" stroke="black" d="M4615.26,-3609.88C4530.55,-3594.13 4361.36,-3562.69 4284.25,-3548.35"/>
<polygon fill="black" stroke="black" points="4284.46,-3544.83 4273.99,-3546.45 4283.18,-3551.71 4284.46,-3544.83"/>
<text text-anchor="start" x="4433.75" y="-3582.91" font-family="Times New Roman,serif" font-size="14.00">isa</text>
</g>
<!-- Entity24 -->
<g id="node29" class="node entity">
<title>Entity24</title>
<ellipse fill="none" stroke="black" cx="2438.71" cy="-3107.14" rx="63.89" ry="18"/>
<text text-anchor="start" x="2397.71" y="-3103.44" font-family="Times New Roman,serif" font-size="14.00">robert bigelow</text>
</g>
<!-- Entity24&#45;&gt;Entity7 -->
<g id="edge25" class="edge verb">
<title>Entity24&#45;&gt;Entity7</title>
<path fill="none" stroke="black" d="M2424.94,-3124.96C2411.43,-3142.46 2390.68,-3169.34 2375.35,-3189.19"/>
<polygon fill="black" stroke="black" points="2372.49,-3187.17 2369.15,-3197.22 2378.03,-3191.45 2372.49,-3187.17"/>
<text text-anchor="start" x="2368.15" y="-3160.88" font-family="Times New Roman,serif" font-size="14.00">funds</text>
</g>
<!-- Entity24&#45;&gt;Entity67 -->
<g id="edge45" class="edge verb">
<title>Entity24&#45;&gt;Entity67</title>
<path fill="none" stroke="black" d="M2486.32,-3094.95C2563.07,-3075.3 2714.12,-3036.63 2799.09,-3014.88"/>
<polygon fill="black" stroke="black" points="2800.04,-3018.25 2808.86,-3012.38 2798.3,-3011.47 2800.04,-3018.25"/>
<text text-anchor="start" x="2578.7" y="-3058.72" font-family="Times New Roman,serif" font-size="14.00">investigates</text>
</g>
<!-- Entity44 -->
<g id="node30" class="node entity">
<title>Entity44</title>
<ellipse fill="none" stroke="black" cx="5403.47" cy="-2867.14" rx="58.49" ry="18"/>
<text text-anchor="start" x="5366.47" y="-2863.44" font-family="Times New Roman,serif" font-size="14.00">steve bannon</text>
</g>
<!-- Entity44&#45;&gt;Entity15 -->
<g id="edge28" class="edge verb">
<title>Entity44&#45;&gt;Entity15</title>
<path fill="none" stroke="black" d="M5359.22,-2878.96C5228.76,-2919.71 4846.75,-3052.83 4717.9,-3102.42"/>
<polygon fill="black" stroke="black" points="4716.41,-3099.24 4708.36,-3106.12 4718.95,-3105.77 4716.41,-3099.24"/>
<text text-anchor="start" x="4983.56" y="-2994.49" font-family="Times New Roman,serif" font-size="14.00">promoted</text>
</g>
<!-- Entity44&#45;&gt;Entity15 -->
<g id="edge64" class="edge verb">
<title>Entity44&#45;&gt;Entity15</title>
<path fill="none" stroke="black" d="M5369.83,-2882.14C5254.27,-2927.34 4872.81,-3060.5 4729.74,-3105.89"/>
<polygon fill="black" stroke="black" points="4728.34,-3102.66 4719.86,-3109.01 4730.45,-3109.34 4728.34,-3102.66"/>
<text text-anchor="start" x="5049.79" y="-2997.81" font-family="Times New Roman,serif" font-size="14.00">advises</text>
</g>
<!-- Entity83 -->
<g id="node40" class="node entity">
<title>Entity83</title>
<ellipse fill="none" stroke="black" cx="5999.83" cy="-3048.98" rx="61.99" ry="18"/>
<text text-anchor="start" x="5960.33" y="-3045.28" font-family="Times New Roman,serif" font-size="14.00">breitbart news</text>
</g>
<!-- Entity44&#45;&gt;Entity83 -->
<g id="edge46" class="edge verb">
<title>Entity44&#45;&gt;Entity83</title>
<path fill="none" stroke="black" d="M5445.4,-2879.93C5551.54,-2912.29 5830.65,-2997.4 5947.36,-3032.98"/>
<polygon fill="black" stroke="black" points="5946.55,-3036.4 5957.14,-3035.97 5948.59,-3029.7 5946.55,-3036.4"/>
<text text-anchor="start" x="5655.38" y="-2960.26" font-family="Times New Roman,serif" font-size="14.00">created</text>
</g>
<!-- Entity89 -->
<g id="node49" class="node entity">
<title>Entity89</title>
<ellipse fill="none" stroke="black" cx="5637.4" cy="-2482.32" rx="35.19" ry="18"/>
<text text-anchor="start" x="5618.4" y="-2478.62" font-family="Times New Roman,serif" font-size="14.00">gurgev</text>
</g>
<!-- Entity44&#45;&gt;Entity89 -->
<g id="edge53" class="edge verb">
<title>Entity44&#45;&gt;Entity89</title>
<path fill="none" stroke="black" d="M5414.28,-2849.35C5451.85,-2787.55 5576.86,-2581.91 5621.43,-2508.58"/>
<polygon fill="black" stroke="black" points="5624.5,-2510.28 5626.7,-2499.92 5618.51,-2506.64 5624.5,-2510.28"/>
<text text-anchor="start" x="5476.86" y="-2682.77" font-family="Times New Roman,serif" font-size="14.00">studied</text>
</g>
<!-- Entity91 -->
<g id="node51" class="node entity">
<title>Entity91</title>
<ellipse fill="none" stroke="black" cx="5772.25" cy="-2606.1" rx="38.19" ry="18"/>
<text text-anchor="start" x="5750.75" y="-2602.4" font-family="Times New Roman,serif" font-size="14.00">us navy</text>
</g>
<!-- Entity44&#45;&gt;Entity91 -->
<g id="edge55" class="edge verb">
<title>Entity44&#45;&gt;Entity91</title>
<path fill="none" stroke="black" d="M5426.81,-2850.62C5491.04,-2805.15 5670.34,-2678.24 5742.05,-2627.48"/>
<polygon fill="black" stroke="black" points="5744.5,-2630.04 5750.64,-2621.4 5740.46,-2624.32 5744.5,-2630.04"/>
<text text-anchor="start" x="5523.43" y="-2742.85" font-family="Times New Roman,serif" font-size="14.00">member of</text>
</g>
<!-- Entity94 -->
<g id="node53" class="node entity">
<title>Entity94</title>
<ellipse fill="none" stroke="black" cx="5875.85" cy="-2940.99" rx="53.09" ry="18"/>
<text text-anchor="start" x="5842.85" y="-2937.29" font-family="Times New Roman,serif" font-size="14.00">biosphere 2</text>
</g>
<!-- Entity44&#45;&gt;Entity94 -->
<g id="edge57" class="edge verb">
<title>Entity44&#45;&gt;Entity94</title>
<path fill="none" stroke="black" d="M5455.82,-2875.33C5544.62,-2889.21 5724.13,-2917.27 5817.08,-2931.8"/>
<polygon fill="black" stroke="black" points="5816.74,-2935.29 5827.16,-2933.38 5817.83,-2928.38 5816.74,-2935.29"/>
<text text-anchor="start" x="5595.45" y="-2907.37" font-family="Times New Roman,serif" font-size="14.00">created</text>
</g>
<!-- Entity107 -->
<g id="node58" class="node entity">
<title>Entity107</title>
<ellipse fill="none" stroke="black" cx="5998.84" cy="-2714.14" rx="77.19" ry="18"/>
<text text-anchor="start" x="5947.34" y="-2710.44" font-family="Times New Roman,serif" font-size="14.00">hollywood movies</text>
</g>
<!-- Entity44&#45;&gt;Entity107 -->
<g id="edge61" class="edge verb">
<title>Entity44&#45;&gt;Entity107</title>
<path fill="none" stroke="black" d="M5448.7,-2855.52C5554.15,-2828.42 5816.42,-2761.02 5936.73,-2730.1"/>
<polygon fill="black" stroke="black" points="5937.72,-2733.46 5946.54,-2727.58 5935.98,-2726.68 5937.72,-2733.46"/>
<text text-anchor="start" x="5637.72" y="-2796.61" font-family="Times New Roman,serif" font-size="14.00">produced</text>
</g>
<!-- Entity111 -->
<g id="node59" class="node entity">
<title>Entity111</title>
<ellipse fill="none" stroke="black" cx="5423.72" cy="-2759.21" rx="64.99" ry="18"/>
<text text-anchor="start" x="5381.72" y="-2755.51" font-family="Times New Roman,serif" font-size="14.00">goldman sachs</text>
</g>
<!-- Entity44&#45;&gt;Entity111 -->
<g id="edge66" class="edge verb">
<title>Entity44&#45;&gt;Entity111</title>
<path fill="none" stroke="black" d="M5406.9,-2848.83C5410.06,-2831.99 5414.8,-2806.75 5418.44,-2787.34"/>
<polygon fill="black" stroke="black" points="5421.93,-2787.73 5420.33,-2777.25 5415.05,-2786.43 5421.93,-2787.73"/>
<text text-anchor="start" x="5349.67" y="-2821.89" font-family="Times New Roman,serif" font-size="14.00">worked for</text>
</g>
<!-- Entity33 -->
<g id="node32" class="node entity">
<title>Entity33</title>
<ellipse fill="none" stroke="black" cx="870.06" cy="-3448.28" rx="57.69" ry="18"/>
<text text-anchor="start" x="833.56" y="-3444.58" font-family="Times New Roman,serif" font-size="14.00">michael pane</text>
</g>
<!-- Entity33&#45;&gt;Entity30 -->
<g id="edge47" class="edge verb">
<title>Entity33&#45;&gt;Entity30</title>
<path fill="none" stroke="black" d="M858.97,-3466.11C848.18,-3483.46 831.66,-3510.03 819.34,-3529.83"/>
<polygon fill="black" stroke="black" points="816.32,-3528.06 814.01,-3538.4 822.27,-3531.76 816.32,-3528.06"/>
<text text-anchor="start" x="776.16" y="-3501.77" font-family="Times New Roman,serif" font-size="14.00">worked for</text>
</g>
<!-- Entity33&#45;&gt;Entity72 -->
<g id="edge31" class="edge verb">
<title>Entity33&#45;&gt;Entity72</title>
<path fill="none" stroke="black" d="M907.31,-3434.5C997.43,-3401.18 1227.03,-3316.29 1325.34,-3279.95"/>
<polygon fill="black" stroke="black" points="1326.82,-3283.13 1334.99,-3276.38 1324.4,-3276.56 1326.82,-3283.13"/>
<text text-anchor="start" x="1060.32" y="-3361.02" font-family="Times New Roman,serif" font-size="14.00">worked at</text>
</g>
<!-- Entity45 -->
<g id="node33" class="node entity">
<title>Entity45</title>
<ellipse fill="none" stroke="black" cx="4447.92" cy="-2882.39" rx="67.69" ry="18"/>
<text text-anchor="start" x="4403.92" y="-2878.69" font-family="Times New Roman,serif" font-size="14.00">abraham lincoln</text>
</g>
<!-- Entity45&#45;&gt;Entity66 -->
<g id="edge32" class="edge verb">
<title>Entity45&#45;&gt;Entity66</title>
<path fill="none" stroke="black" d="M4442.37,-2900.35C4414.21,-2991.41 4287.18,-3402.19 4252.85,-3513.2"/>
<polygon fill="black" stroke="black" points="4249.44,-3512.39 4249.83,-3522.98 4256.12,-3514.46 4249.44,-3512.39"/>
<text text-anchor="start" x="4331.61" y="-3210.57" font-family="Times New Roman,serif" font-size="14.00">isa</text>
</g>
<!-- Entity38 -->
<g id="node34" class="node entity">
<title>Entity38</title>
<ellipse fill="none" stroke="black" cx="4678.13" cy="-2029.99" rx="90.98" ry="18"/>
<text text-anchor="start" x="4616.13" y="-2026.29" font-family="Times New Roman,serif" font-size="14.00">emma hardinge&#45;britten</text>
</g>
<!-- Entity38&#45;&gt;Entity45 -->
<g id="edge33" class="edge verb">
<title>Entity38&#45;&gt;Entity45</title>
<path fill="none" stroke="black" d="M4673.21,-2048.18C4643.81,-2157.07 4491.21,-2722.09 4455.43,-2854.57"/>
<polygon fill="black" stroke="black" points="4452.02,-2853.8 4452.79,-2864.37 4458.77,-2855.62 4452.02,-2853.8"/>
<text text-anchor="start" x="4465.32" y="-2455.18" font-family="Times New Roman,serif" font-size="14.00">spokesperson for</text>
</g>
<!-- Entity79 -->
<g id="node38" class="node entity">
<title>Entity79</title>
<ellipse fill="none" stroke="black" cx="5008.2" cy="-1591.88" rx="39.79" ry="18"/>
<text text-anchor="start" x="4985.7" y="-1588.18" font-family="Times New Roman,serif" font-size="14.00">medium</text>
</g>
<!-- Entity38&#45;&gt;Entity79 -->
<g id="edge38" class="edge verb">
<title>Entity38&#45;&gt;Entity79</title>
<path fill="none" stroke="black" d="M4691.68,-2011.99C4743.42,-1943.33 4928.56,-1697.58 4988.98,-1617.39"/>
<polygon fill="black" stroke="black" points="4991.85,-1619.39 4995.07,-1609.3 4986.26,-1615.18 4991.85,-1619.39"/>
<text text-anchor="start" x="4824.33" y="-1818.49" font-family="Times New Roman,serif" font-size="14.00">isa</text>
</g>
<!-- Entity86 -->
<g id="node48" class="node entity">
<title>Entity86</title>
<ellipse fill="none" stroke="black" cx="4919.46" cy="-1201.89" rx="85.29" ry="18"/>
<text text-anchor="start" x="4861.96" y="-1198.19" font-family="Times New Roman,serif" font-size="14.00">theosophical society</text>
</g>
<!-- Entity38&#45;&gt;Entity86 -->
<g id="edge65" class="edge verb">
<title>Entity38&#45;&gt;Entity86</title>
<path fill="none" stroke="black" d="M4683.39,-2011.92C4714.43,-1905.41 4873.48,-1359.68 4911.36,-1229.7"/>
<polygon fill="black" stroke="black" points="4914.73,-1230.65 4914.16,-1220.07 4908.01,-1228.7 4914.73,-1230.65"/>
<text text-anchor="start" x="4756.38" y="-1624.61" font-family="Times New Roman,serif" font-size="14.00">created</text>
</g>
<!-- Entity99 -->
<g id="node54" class="node entity">
<title>Entity99</title>
<ellipse fill="none" stroke="black" cx="4575.37" cy="-1439.34" rx="55.79" ry="18"/>
<text text-anchor="start" x="4540.37" y="-1435.64" font-family="Times New Roman,serif" font-size="14.00">orphic circle</text>
</g>
<!-- Entity38&#45;&gt;Entity99 -->
<g id="edge58" class="edge verb">
<title>Entity38&#45;&gt;Entity99</title>
<path fill="none" stroke="black" d="M4675,-2011.99C4660.31,-1927.59 4598.24,-1570.8 4580.26,-1467.48"/>
<polygon fill="black" stroke="black" points="4583.69,-1466.74 4578.52,-1457.49 4576.79,-1467.94 4583.69,-1466.74"/>
<text text-anchor="start" x="4566.63" y="-1743.53" font-family="Times New Roman,serif" font-size="14.00">member of</text>
</g>
<!-- Entity42 -->
<g id="node36" class="node entity">
<title>Entity42</title>
<ellipse fill="none" stroke="black" cx="3485.94" cy="-1889.66" rx="53.89" ry="18"/>
<text text-anchor="start" x="3452.44" y="-1885.96" font-family="Times New Roman,serif" font-size="14.00">black magic</text>
</g>
<!-- Entity81 -->
<g id="node37" class="node entity">
<title>Entity81</title>
<ellipse fill="none" stroke="black" cx="3573.66" cy="-2001.64" rx="28.7" ry="18"/>
<text text-anchor="start" x="3559.66" y="-1997.94" font-family="Times New Roman,serif" font-size="14.00">x left</text>
</g>
<!-- Entity42&#45;&gt;Entity81 -->
<g id="edge37" class="edge verb">
<title>Entity42&#45;&gt;Entity81</title>
<path fill="none" stroke="black" d="M3499.64,-1907.16C3514.45,-1926.05 3538.14,-1956.29 3554.72,-1977.45"/>
<polygon fill="black" stroke="black" points="3551.98,-1979.64 3560.9,-1985.36 3557.49,-1975.32 3551.98,-1979.64"/>
<text text-anchor="start" x="3466.18" y="-1946.11" font-family="Times New Roman,serif" font-size="14.00">member of</text>
</g>
<!-- Entity47 -->
<g id="node39" class="node entity">
<title>Entity47</title>
<ellipse fill="none" stroke="black" cx="6573.79" cy="-3130.96" rx="69.59" ry="18"/>
<text text-anchor="start" x="6528.29" y="-3127.26" font-family="Times New Roman,serif" font-size="14.00">andrew breitbart</text>
</g>
<!-- Entity47&#45;&gt;Entity83 -->
<g id="edge39" class="edge verb">
<title>Entity47&#45;&gt;Entity83</title>
<path fill="none" stroke="black" d="M6512.63,-3122.23C6403.81,-3106.68 6177.49,-3074.36 6065.5,-3058.36"/>
<polygon fill="black" stroke="black" points="6065.75,-3054.86 6055.35,-3056.91 6064.76,-3061.79 6065.75,-3054.86"/>
<text text-anchor="start" x="6248.07" y="-3094.09" font-family="Times New Roman,serif" font-size="14.00">created</text>
</g>
<!-- Entity35 -->
<g id="node42" class="node entity">
<title>Entity35</title>
<ellipse fill="none" stroke="black" cx="4095.94" cy="-1889.66" rx="39.79" ry="18"/>
<text text-anchor="start" x="4073.44" y="-1885.96" font-family="Times New Roman,serif" font-size="14.00">crowley</text>
</g>
<!-- Entity80 -->
<g id="node43" class="node entity">
<title>Entity80</title>
<ellipse fill="none" stroke="black" cx="4183.66" cy="-2001.64" rx="38.99" ry="18"/>
<text text-anchor="start" x="4161.66" y="-1997.94" font-family="Times New Roman,serif" font-size="14.00">x magic</text>
</g>
<!-- Entity35&#45;&gt;Entity80 -->
<g id="edge41" class="edge verb">
<title>Entity35&#45;&gt;Entity80</title>
<path fill="none" stroke="black" d="M4109.26,-1906.67C4123.82,-1925.25 4147.28,-1955.2 4163.96,-1976.49"/>
<polygon fill="black" stroke="black" points="4161.29,-1978.76 4170.21,-1984.47 4166.8,-1974.44 4161.29,-1978.76"/>
<text text-anchor="start" x="4075.61" y="-1945.38" font-family="Times New Roman,serif" font-size="14.00">member of</text>
</g>
<!-- Entity19 -->
<g id="node44" class="node entity">
<title>Entity19</title>
<ellipse fill="none" stroke="black" cx="3926.06" cy="-3416.6" rx="31.4" ry="18"/>
<text text-anchor="start" x="3910.06" y="-3412.9" font-family="Times New Roman,serif" font-size="14.00">carter</text>
</g>
<!-- Entity19&#45;&gt;Entity66 -->
<g id="edge44" class="edge verb">
<title>Entity19&#45;&gt;Entity66</title>
<path fill="none" stroke="black" d="M3952.1,-3426.77C4009,-3449 4144.47,-3501.93 4208.97,-3527.13"/>
<polygon fill="black" stroke="black" points="4207.74,-3530.4 4218.32,-3530.78 4210.28,-3523.88 4207.74,-3530.4"/>
<text text-anchor="start" x="4064.54" y="-3480.75" font-family="Times New Roman,serif" font-size="14.00">isa</text>
</g>
<!-- Entity19&#45;&gt;Entity90 -->
<g id="edge56" class="edge verb">
<title>Entity19&#45;&gt;Entity90</title>
<path fill="none" stroke="black" d="M3904.73,-3403.45C3852.41,-3371.2 3717.65,-3288.14 3658.29,-3251.54"/>
<polygon fill="black" stroke="black" points="3659.78,-3248.35 3649.43,-3246.08 3656.11,-3254.31 3659.78,-3248.35"/>
<text text-anchor="start" x="3726.51" y="-3331.29" font-family="Times New Roman,serif" font-size="14.00">witnessed</text>
</g>
<!-- Entity27 -->
<g id="node45" class="node entity">
<title>Entity27</title>
<ellipse fill="none" stroke="black" cx="357.87" cy="-5227.57" rx="75.29" ry="18"/>
<text text-anchor="start" x="307.87" y="-5223.87" font-family="Times New Roman,serif" font-size="14.00">lee harvey oswald</text>
</g>
<!-- Entity34 -->
<g id="node46" class="node entity">
<title>Entity34</title>
<ellipse fill="none" stroke="black" cx="345.55" cy="-5119.56" rx="59.29" ry="18"/>
<text text-anchor="start" x="308.05" y="-5115.86" font-family="Times New Roman,serif" font-size="14.00">guy bannister</text>
</g>
<!-- Entity27&#45;&gt;Entity34 -->
<g id="edge50" class="edge verb">
<title>Entity27&#45;&gt;Entity34</title>
<path fill="none" stroke="black" d="M355.78,-5209.25C353.86,-5192.39 350.98,-5167.13 348.76,-5147.71"/>
<polygon fill="black" stroke="black" points="352.22,-5147.15 347.61,-5137.62 345.27,-5147.95 352.22,-5147.15"/>
<text text-anchor="start" x="289.27" y="-5182.28" font-family="Times New Roman,serif" font-size="14.00">worked for</text>
</g>
<!-- Entity34&#45;&gt;Entity75 -->
<g id="edge51" class="edge verb">
<title>Entity34&#45;&gt;Entity75</title>
<path fill="none" stroke="black" d="M345.73,-5101.37C346.52,-5021.16 349.71,-4698.8 350.67,-4600.97"/>
<polygon fill="black" stroke="black" points="354.17,-4600.97 350.77,-4590.94 347.17,-4600.9 354.17,-4600.97"/>
<text text-anchor="start" x="287.2" y="-4854.97" font-family="Times New Roman,serif" font-size="14.00">member of</text>
</g>
<!-- Entity64 -->
<g id="node47" class="node entity">
<title>Entity64</title>
<ellipse fill="none" stroke="black" cx="4824.04" cy="-564.1" rx="73.39" ry="18"/>
<text text-anchor="start" x="4775.54" y="-560.4" font-family="Times New Roman,serif" font-size="14.00">madam blavatsky</text>
</g>
<!-- Entity64&#45;&gt;Entity86 -->
<g id="edge52" class="edge verb">
<title>Entity64&#45;&gt;Entity86</title>
<path fill="none" stroke="black" d="M4826.74,-582.16C4840.08,-671.33 4898.93,-1064.67 4915.25,-1173.76"/>
<polygon fill="black" stroke="black" points="4911.8,-1174.31 4916.74,-1183.69 4918.72,-1173.28 4911.8,-1174.31"/>
<text text-anchor="start" x="4830" y="-881.76" font-family="Times New Roman,serif" font-size="14.00">created</text>
</g>
<!-- Entity60 -->
<g id="node56" class="node entity">
<title>Entity60</title>
<ellipse fill="none" stroke="black" cx="5220.56" cy="-613.01" rx="58.49" ry="18"/>
<text text-anchor="start" x="5183.56" y="-609.31" font-family="Times New Roman,serif" font-size="14.00">rudolf steiner</text>
</g>
<!-- Entity60&#45;&gt;Entity86 -->
<g id="edge63" class="edge verb">
<title>Entity60&#45;&gt;Entity86</title>
<path fill="none" stroke="black" d="M5211.39,-630.96C5168.23,-715.36 4985.38,-1072.98 4933.33,-1174.76"/>
<polygon fill="black" stroke="black" points="4930.15,-1173.3 4928.72,-1183.8 4936.38,-1176.49 4930.15,-1173.3"/>
<text text-anchor="start" x="5006.36" y="-906.66" font-family="Times New Roman,serif" font-size="14.00">memberr of</text>
</g>
<!-- Entity93 -->
<g id="node57" class="node entity">
<title>Entity93</title>
<ellipse fill="none" stroke="black" cx="5489.47" cy="-17.52" rx="102.08" ry="18"/>
<text text-anchor="start" x="5418.97" y="-13.82" font-family="Times New Roman,serif" font-size="14.00">anthroposophical society</text>
</g>
<!-- Entity60&#45;&gt;Entity93 -->
<g id="edge60" class="edge verb">
<title>Entity60&#45;&gt;Entity93</title>
<path fill="none" stroke="black" d="M5228.76,-594.87C5267.3,-509.51 5430.63,-147.81 5477.09,-44.92"/>
<polygon fill="black" stroke="black" points="5480.41,-46.08 5481.34,-35.53 5474.03,-43.2 5480.41,-46.08"/>
<text text-anchor="start" x="5311.93" y="-323.7" font-family="Times New Roman,serif" font-size="14.00">created</text>
</g>
<!-- Entity109 -->
<g id="node60" class="node entity">
<title>Entity109</title>
<ellipse fill="none" stroke="black" cx="3458.94" cy="-2513.66" rx="27" ry="18"/>
<text text-anchor="start" x="3455.44" y="-2509.96" font-family="Times New Roman,serif" font-size="14.00">s</text>
</g>
<!-- Entity112 -->
<g id="node61" class="node entity">
<title>Entity112</title>
<ellipse fill="none" stroke="black" cx="3546.66" cy="-2625.64" rx="27" ry="18"/>
<text text-anchor="start" x="3542.66" y="-2621.94" font-family="Times New Roman,serif" font-size="14.00">o</text>
</g>
<!-- Entity109&#45;&gt;Entity112 -->
<g id="edge67" class="edge verb">
<title>Entity109&#45;&gt;Entity112</title>
<path fill="none" stroke="black" d="M3471.51,-2529.7C3486.23,-2548.5 3510.76,-2579.82 3527.78,-2601.53"/>
<polygon fill="black" stroke="black" points="3525.19,-2603.91 3534.11,-2609.62 3530.7,-2599.59 3525.19,-2603.91"/>
<text text-anchor="start" x="3492.64" y="-2569.42" font-family="Times New Roman,serif" font-size="14.00">v</text>
</g>
</g>
</svg>
