<?xml version="1.0" encoding="UTF-8" standalone="no"?>
<?xml-stylesheet href="./styles.css" type="text/css"?>
<!DOCTYPE svg PUBLIC "-//W3C//DTD SVG 1.1//EN"
 "http://www.w3.org/Graphics/SVG/1.1/DTD/svg11.dtd">
<!-- Generated by graphviz version 2.47.3 (20210619.1520)
 -->
<!-- Title: G Pages: 1 -->
<svg width="8717pt" height="2273pt"
 viewBox="0.00 0.00 8717.00 2273.00" xmlns="http://www.w3.org/2000/svg" xmlns:xlink="http://www.w3.org/1999/xlink">
<g id="graph0" class="graph" transform="scale(1 1) rotate(0) translate(4 2269)">
<title>G</title>
<polygon fill="white" stroke="transparent" points="-4,4 -4,-2269 8713,-2269 8713,4 -4,4"/>
<!-- Entity3 -->
<g id="node1" class="node entity">
<title>Entity3</title>
<ellipse fill="none" stroke="black" cx="5852.31" cy="-1212.64" rx="64.19" ry="18"/>
<text text-anchor="start" x="5810.81" y="-1208.94" font-family="Times New Roman,serif" font-size="14.00">john f kennedy</text>
</g>
<!-- Entity22 -->
<g id="node2" class="node entity">
<title>Entity22</title>
<ellipse fill="none" stroke="black" cx="5335.25" cy="-1102.25" rx="27" ry="18"/>
<text text-anchor="start" x="5327.25" y="-1098.55" font-family="Times New Roman,serif" font-size="14.00">cia</text>
</g>
<!-- Entity3&#45;&gt;Entity22 -->
<g id="edge1" class="edge verb">
<title>Entity3&#45;&gt;Entity22</title>
<path fill="none" stroke="black" d="M5800.84,-1201.65C5696.17,-1179.3 5460.81,-1129.05 5371,-1109.88"/>
<polygon fill="black" stroke="black" points="5371.55,-1106.42 5361.04,-1107.75 5370.09,-1113.26 5371.55,-1106.42"/>
<text text-anchor="start" x="5481.92" y="-1159.56" font-family="Times New Roman,serif" font-size="14.00">heads (1961&#45;1963)</text>
</g>
<!-- Entity66 -->
<g id="node20" class="node entity">
<title>Entity66</title>
<ellipse fill="none" stroke="black" cx="6387.3" cy="-1343.41" rx="31.4" ry="18"/>
<text text-anchor="start" x="6371.3" y="-1339.71" font-family="Times New Roman,serif" font-size="14.00">potus</text>
</g>
<!-- Entity3&#45;&gt;Entity66 -->
<g id="edge23" class="edge verb">
<title>Entity3&#45;&gt;Entity66</title>
<path fill="none" stroke="black" d="M5901.21,-1224.59C6006.61,-1250.35 6253.37,-1310.67 6348.74,-1333.98"/>
<polygon fill="black" stroke="black" points="6348,-1337.41 6358.54,-1336.38 6349.66,-1330.61 6348,-1337.41"/>
<text text-anchor="start" x="6037.97" y="-1283.09" font-family="Times New Roman,serif" font-size="14.00">isa (1961&#45;1963)</text>
</g>
<!-- Entity67 -->
<g id="node25" class="node entity">
<title>Entity67</title>
<ellipse fill="none" stroke="black" cx="4534.45" cy="-1099.78" rx="77.19" ry="18"/>
<text text-anchor="start" x="4482.95" y="-1096.08" font-family="Times New Roman,serif" font-size="14.00">psi&#45;consciousness</text>
</g>
<!-- Entity22&#45;&gt;Entity67 -->
<g id="edge43" class="edge verb">
<title>Entity22&#45;&gt;Entity67</title>
<path fill="none" stroke="black" d="M5308.15,-1102.16C5200.61,-1101.83 4801.16,-1100.6 4622.17,-1100.05"/>
<polygon fill="black" stroke="black" points="4622.01,-1096.55 4612,-1100.01 4621.99,-1103.55 4622.01,-1096.55"/>
<text text-anchor="start" x="4901.16" y="-1104.9" font-family="Times New Roman,serif" font-size="14.00">investigates</text>
</g>
<!-- Entity90 -->
<g id="node52" class="node entity">
<title>Entity90</title>
<ellipse fill="none" stroke="black" cx="5596.52" cy="-1320.62" rx="27" ry="18"/>
<text text-anchor="start" x="5587.02" y="-1316.92" font-family="Times New Roman,serif" font-size="14.00">ufo</text>
</g>
<!-- Entity22&#45;&gt;Entity90 -->
<g id="edge62" class="edge verb">
<title>Entity22&#45;&gt;Entity90</title>
<path fill="none" stroke="black" d="M5352.4,-1116.57C5397.44,-1154.22 5519.28,-1256.06 5571.84,-1299.99"/>
<polygon fill="black" stroke="black" points="5569.74,-1302.8 5579.66,-1306.52 5574.23,-1297.43 5569.74,-1302.8"/>
<text text-anchor="start" x="5398.12" y="-1212.08" font-family="Times New Roman,serif" font-size="14.00">investigates</text>
</g>
<!-- Entity14 -->
<g id="node3" class="node entity">
<title>Entity14</title>
<ellipse fill="none" stroke="black" cx="3027.49" cy="-104.2" rx="74.99" ry="18"/>
<text text-anchor="start" x="2977.99" y="-100.5" font-family="Times New Roman,serif" font-size="14.00">gene roddenberry</text>
</g>
<!-- Entity8 -->
<g id="node4" class="node entity">
<title>Entity8</title>
<ellipse fill="none" stroke="black" cx="3365.11" cy="-497.02" rx="38.19" ry="18"/>
<text text-anchor="start" x="3343.61" y="-493.32" font-family="Times New Roman,serif" font-size="14.00">the nine</text>
</g>
<!-- Entity14&#45;&gt;Entity8 -->
<g id="edge2" class="edge verb">
<title>Entity14&#45;&gt;Entity8</title>
<path fill="none" stroke="black" d="M3042.66,-121.84C3096.89,-184.95 3281.36,-399.58 3344.05,-472.53"/>
<polygon fill="black" stroke="black" points="3341.57,-475.01 3350.74,-480.31 3346.88,-470.45 3341.57,-475.01"/>
<text text-anchor="start" x="3089.36" y="-300.98" font-family="Times New Roman,serif" font-size="14.00">claiemd to channel</text>
</g>
<!-- Entity70 -->
<g id="node23" class="node entity">
<title>Entity70</title>
<ellipse fill="none" stroke="black" cx="3341.35" cy="-388.93" rx="94.48" ry="18"/>
<text text-anchor="start" x="3276.85" y="-385.23" font-family="Times New Roman,serif" font-size="14.00">egyptian gods in a ship</text>
</g>
<!-- Entity8&#45;&gt;Entity70 -->
<g id="edge16" class="edge verb">
<title>Entity8&#45;&gt;Entity70</title>
<path fill="none" stroke="black" d="M3361.08,-478.69C3357.35,-461.74 3351.76,-436.3 3347.48,-416.83"/>
<polygon fill="black" stroke="black" points="3350.89,-416.01 3345.32,-407 3344.05,-417.51 3350.89,-416.01"/>
<text text-anchor="start" x="3250.28" y="-451.56" font-family="Times New Roman,serif" font-size="14.00">claimed to channel</text>
</g>
<!-- Entity16 -->
<g id="node5" class="node entity">
<title>Entity16</title>
<ellipse fill="none" stroke="black" cx="6259.06" cy="-1518.76" rx="68.49" ry="18"/>
<text text-anchor="start" x="6214.56" y="-1515.06" font-family="Times New Roman,serif" font-size="14.00">george hw bush</text>
</g>
<!-- Entity20 -->
<g id="node6" class="node entity">
<title>Entity20</title>
<ellipse fill="none" stroke="black" cx="6267.71" cy="-1959.37" rx="63.89" ry="18"/>
<text text-anchor="start" x="6226.71" y="-1955.67" font-family="Times New Roman,serif" font-size="14.00">george w bush</text>
</g>
<!-- Entity16&#45;&gt;Entity20 -->
<g id="edge3" class="edge verb">
<title>Entity16&#45;&gt;Entity20</title>
<path fill="none" stroke="black" d="M6259.42,-1536.86C6260.76,-1605.2 6265.52,-1847.97 6267.16,-1931.16"/>
<polygon fill="black" stroke="black" points="6263.66,-1931.44 6267.36,-1941.37 6270.66,-1931.3 6263.66,-1931.44"/>
<text text-anchor="start" x="6231.29" y="-1737.81" font-family="Times New Roman,serif" font-size="14.00">father</text>
</g>
<!-- Entity16&#45;&gt;Entity66 -->
<g id="edge20" class="edge verb">
<title>Entity16&#45;&gt;Entity66</title>
<path fill="none" stroke="black" d="M6272.07,-1500.98C6294.96,-1469.68 6342.52,-1404.64 6368.82,-1368.68"/>
<polygon fill="black" stroke="black" points="6371.94,-1370.34 6375.02,-1360.2 6366.29,-1366.21 6371.94,-1370.34"/>
<text text-anchor="start" x="6304.44" y="-1438.63" font-family="Times New Roman,serif" font-size="14.00">isa</text>
</g>
<!-- Entity20&#45;&gt;Entity66 -->
<g id="edge42" class="edge verb">
<title>Entity20&#45;&gt;Entity66</title>
<path fill="none" stroke="black" d="M6271.23,-1941.27C6288.14,-1854.14 6361.21,-1477.82 6381.85,-1371.49"/>
<polygon fill="black" stroke="black" points="6385.32,-1372 6383.79,-1361.51 6378.44,-1370.66 6385.32,-1372"/>
<text text-anchor="start" x="6310.54" y="-1660.18" font-family="Times New Roman,serif" font-size="14.00">isa</text>
</g>
<!-- Entity2 -->
<g id="node7" class="node entity">
<title>Entity2</title>
<ellipse fill="none" stroke="black" cx="3509.38" cy="-785.51" rx="41.69" ry="18"/>
<text text-anchor="start" x="3485.38" y="-781.81" font-family="Times New Roman,serif" font-size="14.00">uri geller</text>
</g>
<!-- Entity2&#45;&gt;Entity8 -->
<g id="edge4" class="edge verb">
<title>Entity2&#45;&gt;Entity8</title>
<path fill="none" stroke="black" d="M3500.57,-767.9C3476.17,-719.11 3407.6,-581.99 3378.47,-523.74"/>
<polygon fill="black" stroke="black" points="3381.58,-522.15 3373.98,-514.77 3375.32,-525.28 3381.58,-522.15"/>
<text text-anchor="start" x="3335.52" y="-649.62" font-family="Times New Roman,serif" font-size="14.00">claiemd to channel</text>
</g>
<!-- Entity26 -->
<g id="node8" class="node entity">
<title>Entity26</title>
<ellipse fill="none" stroke="black" cx="1163.46" cy="-1599.62" rx="49.29" ry="18"/>
<text text-anchor="start" x="1133.46" y="-1595.92" font-family="Times New Roman,serif" font-size="14.00">adolf hitler</text>
</g>
<!-- Entity28 -->
<g id="node9" class="node entity">
<title>Entity28</title>
<ellipse fill="none" stroke="black" cx="1539.64" cy="-1733.93" rx="32.49" ry="18"/>
<text text-anchor="start" x="1522.64" y="-1730.23" font-family="Times New Roman,serif" font-size="14.00">nsdap</text>
</g>
<!-- Entity26&#45;&gt;Entity28 -->
<g id="edge5" class="edge verb">
<title>Entity26&#45;&gt;Entity28</title>
<path fill="none" stroke="black" d="M1198.85,-1612.25C1269.95,-1637.64 1429.52,-1694.61 1502.24,-1720.58"/>
<polygon fill="black" stroke="black" points="1501.32,-1723.96 1511.91,-1724.03 1503.67,-1717.37 1501.32,-1723.96"/>
<text text-anchor="start" x="1309.55" y="-1670.21" font-family="Times New Roman,serif" font-size="14.00">created</text>
</g>
<!-- Entity75 -->
<g id="node31" class="node entity">
<title>Entity75</title>
<ellipse fill="none" stroke="black" cx="1103.97" cy="-1867.61" rx="38.99" ry="18"/>
<text text-anchor="start" x="1081.97" y="-1863.91" font-family="Times New Roman,serif" font-size="14.00">far right</text>
</g>
<!-- Entity28&#45;&gt;Entity75 -->
<g id="edge29" class="edge verb">
<title>Entity28&#45;&gt;Entity75</title>
<path fill="none" stroke="black" d="M1511.05,-1742.7C1436.23,-1765.66 1234.31,-1827.61 1146.13,-1854.67"/>
<polygon fill="black" stroke="black" points="1144.99,-1851.36 1136.46,-1857.64 1147.04,-1858.05 1144.99,-1851.36"/>
<text text-anchor="start" x="1267.59" y="-1802.49" font-family="Times New Roman,serif" font-size="14.00">member of</text>
</g>
<!-- Entity15 -->
<g id="node10" class="node entity">
<title>Entity15</title>
<ellipse fill="none" stroke="black" cx="6670.75" cy="-969.8" rx="59.59" ry="18"/>
<text text-anchor="start" x="6632.75" y="-966.1" font-family="Times New Roman,serif" font-size="14.00">donald trump</text>
</g>
<!-- Entity48 -->
<g id="node11" class="node entity">
<title>Entity48</title>
<ellipse fill="none" stroke="black" cx="5940.79" cy="-967.67" rx="50.09" ry="18"/>
<text text-anchor="start" x="5910.29" y="-963.97" font-family="Times New Roman,serif" font-size="14.00">john trump</text>
</g>
<!-- Entity15&#45;&gt;Entity48 -->
<g id="edge6" class="edge verb">
<title>Entity15&#45;&gt;Entity48</title>
<path fill="none" stroke="black" d="M6610.7,-969.63C6473.6,-969.23 6138.77,-968.25 6001.26,-967.85"/>
<polygon fill="black" stroke="black" points="6000.93,-964.35 5990.92,-967.82 6000.91,-971.35 6000.93,-964.35"/>
<text text-anchor="start" x="6246.98" y="-972.54" font-family="Times New Roman,serif" font-size="14.00">nephew of</text>
</g>
<!-- Entity15&#45;&gt;Entity66 -->
<g id="edge27" class="edge verb">
<title>Entity15&#45;&gt;Entity66</title>
<path fill="none" stroke="black" d="M6657.08,-987.82C6610.73,-1048.91 6459.52,-1248.22 6406.16,-1318.56"/>
<polygon fill="black" stroke="black" points="6403.12,-1316.77 6399.86,-1326.86 6408.69,-1321.01 6403.12,-1316.77"/>
<text text-anchor="start" x="6515.62" y="-1156.99" font-family="Times New Roman,serif" font-size="14.00">isa</text>
</g>
<!-- Entity48&#45;&gt;Entity22 -->
<g id="edge10" class="edge verb">
<title>Entity48&#45;&gt;Entity22</title>
<path fill="none" stroke="black" d="M5898.21,-977.14C5784.62,-1002.38 5475.91,-1070.99 5370.83,-1094.34"/>
<polygon fill="black" stroke="black" points="5370.03,-1090.93 5361.02,-1096.52 5371.55,-1097.76 5370.03,-1090.93"/>
<text text-anchor="start" x="5573.52" y="-1039.54" font-family="Times New Roman,serif" font-size="14.00">member of</text>
</g>
<!-- Entity82 -->
<g id="node41" class="node entity">
<title>Entity82</title>
<ellipse fill="none" stroke="black" cx="6133.56" cy="-527.19" rx="50.89" ry="18"/>
<text text-anchor="start" x="6102.56" y="-523.49" font-family="Times New Roman,serif" font-size="14.00">nikola tesla</text>
</g>
<!-- Entity48&#45;&gt;Entity82 -->
<g id="edge40" class="edge verb">
<title>Entity48&#45;&gt;Entity82</title>
<path fill="none" stroke="black" d="M5948.59,-949.86C5978.44,-881.65 6085.6,-636.8 6121.64,-554.44"/>
<polygon fill="black" stroke="black" points="6124.87,-555.79 6125.67,-545.22 6118.46,-552.98 6124.87,-555.79"/>
<text text-anchor="start" x="5994.11" y="-755.95" font-family="Times New Roman,serif" font-size="14.00">studied</text>
</g>
<!-- Entity5 -->
<g id="node12" class="node entity">
<title>Entity5</title>
<ellipse fill="none" stroke="black" cx="3610.57" cy="-1065.47" rx="65.79" ry="18"/>
<text text-anchor="start" x="3568.07" y="-1061.77" font-family="Times New Roman,serif" font-size="14.00">arthur m young</text>
</g>
<!-- Entity5&#45;&gt;Entity8 -->
<g id="edge7" class="edge verb">
<title>Entity5&#45;&gt;Entity8</title>
<path fill="none" stroke="black" d="M3602.82,-1047.52C3567.25,-965.14 3419.55,-623.1 3376.76,-524.02"/>
<polygon fill="black" stroke="black" points="3379.91,-522.49 3372.74,-514.7 3373.49,-525.26 3379.91,-522.49"/>
<text text-anchor="start" x="3427.79" y="-789.57" font-family="Times New Roman,serif" font-size="14.00">member&#45;of</text>
</g>
<!-- Entity5&#45;&gt;Entity67 -->
<g id="edge18" class="edge verb">
<title>Entity5&#45;&gt;Entity67</title>
<path fill="none" stroke="black" d="M3675.91,-1067.89C3838.96,-1073.95 4263.88,-1089.73 4447.66,-1096.55"/>
<polygon fill="black" stroke="black" points="4447.7,-1100.06 4457.82,-1096.93 4447.96,-1093.06 4447.7,-1100.06"/>
<text text-anchor="start" x="4061.78" y="-1086.02" font-family="Times New Roman,serif" font-size="14.00">studied</text>
</g>
<!-- Entity72 -->
<g id="node28" class="node entity">
<title>Entity72</title>
<ellipse fill="none" stroke="black" cx="2883.84" cy="-1369.76" rx="53.89" ry="18"/>
<text text-anchor="start" x="2850.34" y="-1366.06" font-family="Times New Roman,serif" font-size="14.00">bell aviation</text>
</g>
<!-- Entity5&#45;&gt;Entity72 -->
<g id="edge24" class="edge verb">
<title>Entity5&#45;&gt;Entity72</title>
<path fill="none" stroke="black" d="M3574.53,-1080.56C3452.99,-1131.45 3058.41,-1296.66 2926.92,-1351.72"/>
<polygon fill="black" stroke="black" points="2925.42,-1348.55 2917.55,-1355.64 2928.13,-1355.01 2925.42,-1348.55"/>
<text text-anchor="start" x="3209.73" y="-1219.94" font-family="Times New Roman,serif" font-size="14.00">created</text>
</g>
<!-- Entity1 -->
<g id="node13" class="node entity">
<title>Entity1</title>
<ellipse fill="none" stroke="black" cx="3041.4" cy="-680.15" rx="64.19" ry="18"/>
<text text-anchor="start" x="2999.9" y="-676.45" font-family="Times New Roman,serif" font-size="14.00">andre puharich</text>
</g>
<!-- Entity1&#45;&gt;Entity2 -->
<g id="edge8" class="edge verb">
<title>Entity1&#45;&gt;Entity2</title>
<path fill="none" stroke="black" d="M3091.92,-691.53C3183.09,-712.05 3373.83,-754.99 3462.37,-774.93"/>
<polygon fill="black" stroke="black" points="3461.86,-778.4 3472.39,-777.18 3463.4,-771.57 3461.86,-778.4"/>
<text text-anchor="start" x="3217.14" y="-737.03" font-family="Times New Roman,serif" font-size="14.00">sponsored</text>
</g>
<!-- Entity7 -->
<g id="node14" class="node entity">
<title>Entity7</title>
<ellipse fill="none" stroke="black" cx="4012.16" cy="-967.57" rx="68.49" ry="18"/>
<text text-anchor="start" x="3967.66" y="-963.87" font-family="Times New Roman,serif" font-size="14.00">jeffrey mishlove</text>
</g>
<!-- Entity7&#45;&gt;Entity2 -->
<g id="edge9" class="edge verb">
<title>Entity7&#45;&gt;Entity2</title>
<path fill="none" stroke="black" d="M3971.87,-952.97C3878.13,-919.03 3646.2,-835.05 3551.09,-800.61"/>
<polygon fill="black" stroke="black" points="3552.11,-797.26 3541.52,-797.15 3549.73,-803.84 3552.11,-797.26"/>
<text text-anchor="start" x="3706.48" y="-880.59" font-family="Times New Roman,serif" font-size="14.00">promoted</text>
</g>
<!-- Entity7&#45;&gt;Entity67 -->
<g id="edge19" class="edge verb">
<title>Entity7&#45;&gt;Entity67</title>
<path fill="none" stroke="black" d="M4053.51,-982.05C4142.26,-1008.11 4351.92,-1061.49 4462.82,-1086.58"/>
<polygon fill="black" stroke="black" points="4462.38,-1090.07 4472.91,-1088.85 4463.92,-1083.24 4462.38,-1090.07"/>
<text text-anchor="start" x="4217.16" y="-1038.12" font-family="Times New Roman,serif" font-size="14.00">studied</text>
</g>
<!-- Entity7&#45;&gt;Entity67 -->
<g id="edge26" class="edge verb">
<title>Entity7&#45;&gt;Entity67</title>
<path fill="none" stroke="black" d="M4069.13,-977.48C4170.92,-999.95 4382.58,-1053.55 4481.44,-1081.91"/>
<polygon fill="black" stroke="black" points="4480.64,-1085.32 4491.22,-1084.74 4482.58,-1078.6 4480.64,-1085.32"/>
<text text-anchor="start" x="4211.28" y="-1018.49" font-family="Times New Roman,serif" font-size="14.00">investigates</text>
</g>
<!-- Entity30 -->
<g id="node15" class="node entity">
<title>Entity30</title>
<ellipse fill="none" stroke="black" cx="2176.32" cy="-1668.16" rx="74.99" ry="18"/>
<text text-anchor="start" x="2126.82" y="-1664.46" font-family="Times New Roman,serif" font-size="14.00">walter dornberger</text>
</g>
<!-- Entity30&#45;&gt;Entity28 -->
<g id="edge11" class="edge verb">
<title>Entity30&#45;&gt;Entity28</title>
<path fill="none" stroke="black" d="M2107.58,-1675.26C1975.48,-1688.91 1689.72,-1718.43 1581.93,-1729.56"/>
<polygon fill="black" stroke="black" points="1581.36,-1726.1 1571.77,-1730.61 1582.08,-1733.06 1581.36,-1726.1"/>
<text text-anchor="start" x="1783.75" y="-1706.21" font-family="Times New Roman,serif" font-size="14.00">member of</text>
</g>
<!-- Entity30&#45;&gt;Entity72 -->
<g id="edge35" class="edge verb">
<title>Entity30&#45;&gt;Entity72</title>
<path fill="none" stroke="black" d="M2220.05,-1653.43C2348.78,-1604 2724.82,-1445.36 2845.85,-1389.37"/>
<polygon fill="black" stroke="black" points="2847.53,-1392.45 2855.11,-1385.05 2844.57,-1386.11 2847.53,-1392.45"/>
<text text-anchor="start" x="2453.95" y="-1525.2" font-family="Times New Roman,serif" font-size="14.00">vice&#45;president</text>
</g>
<!-- Entity30&#45;&gt;Entity72 -->
<g id="edge49" class="edge verb">
<title>Entity30&#45;&gt;Entity72</title>
<path fill="none" stroke="black" d="M2207.38,-1651.77C2318.93,-1599.55 2699.76,-1438.73 2835.39,-1386.3"/>
<polygon fill="black" stroke="black" points="2837.03,-1389.43 2845.11,-1382.58 2834.52,-1382.89 2837.03,-1389.43"/>
<text text-anchor="start" x="2465.39" y="-1507.84" font-family="Times New Roman,serif" font-size="14.00">worked at</text>
</g>
<!-- Entity76 -->
<g id="node35" class="node entity">
<title>Entity76</title>
<ellipse fill="none" stroke="black" cx="1902.7" cy="-2247.05" rx="90.98" ry="18"/>
<text text-anchor="start" x="1840.7" y="-2243.35" font-family="Times New Roman,serif" font-size="14.00">nsdap rocket program</text>
</g>
<!-- Entity30&#45;&gt;Entity76 -->
<g id="edge36" class="edge verb">
<title>Entity30&#45;&gt;Entity76</title>
<path fill="none" stroke="black" d="M2167.83,-1686.12C2128.41,-1769.51 1963.18,-2119.11 1915.58,-2219.8"/>
<polygon fill="black" stroke="black" points="1912.34,-2218.48 1911.23,-2229.02 1918.67,-2221.47 1912.34,-2218.48"/>
<text text-anchor="start" x="2000.7" y="-1956.76" font-family="Times New Roman,serif" font-size="14.00">created</text>
</g>
<!-- Entity104 -->
<g id="node55" class="node entity">
<title>Entity104</title>
<ellipse fill="none" stroke="black" cx="1708.49" cy="-2008.29" rx="65.79" ry="18"/>
<text text-anchor="start" x="1665.99" y="-2004.59" font-family="Times New Roman,serif" font-size="14.00">x series aircraft</text>
</g>
<!-- Entity30&#45;&gt;Entity104 -->
<g id="edge59" class="edge verb">
<title>Entity30&#45;&gt;Entity104</title>
<path fill="none" stroke="black" d="M2152.8,-1685.26C2075.33,-1741.58 1828.13,-1921.31 1740.04,-1985.36"/>
<polygon fill="black" stroke="black" points="1737.81,-1982.65 1731.78,-1991.36 1741.93,-1988.31 1737.81,-1982.65"/>
<text text-anchor="start" x="1905.42" y="-1839.11" font-family="Times New Roman,serif" font-size="14.00">created</text>
</g>
<!-- Entity32 -->
<g id="node16" class="node entity">
<title>Entity32</title>
<ellipse fill="none" stroke="black" cx="2111.92" cy="-1776.1" rx="46.29" ry="18"/>
<text text-anchor="start" x="2084.42" y="-1772.4" font-family="Times New Roman,serif" font-size="14.00">van braun</text>
</g>
<!-- Entity32&#45;&gt;Entity30 -->
<g id="edge12" class="edge verb">
<title>Entity32&#45;&gt;Entity30</title>
<path fill="none" stroke="black" d="M2122.55,-1758.27C2132.85,-1741.01 2148.6,-1714.61 2160.4,-1694.84"/>
<polygon fill="black" stroke="black" points="2163.55,-1696.39 2165.67,-1686.01 2157.54,-1692.81 2163.55,-1696.39"/>
<text text-anchor="start" x="2078.47" y="-1730.36" font-family="Times New Roman,serif" font-size="14.00">worked for</text>
</g>
<!-- Entity32&#45;&gt;Entity76 -->
<g id="edge48" class="edge verb">
<title>Entity32&#45;&gt;Entity76</title>
<path fill="none" stroke="black" d="M2103.97,-1793.98C2072.1,-1865.73 1953.38,-2132.98 1914.86,-2219.69"/>
<polygon fill="black" stroke="black" points="1911.63,-2218.33 1910.77,-2228.89 1918.03,-2221.18 1911.63,-2218.33"/>
<text text-anchor="start" x="1953.41" y="-2010.64" font-family="Times New Roman,serif" font-size="14.00">worked at</text>
</g>
<!-- Entity29 -->
<g id="node17" class="node entity">
<title>Entity29</title>
<ellipse fill="none" stroke="black" cx="5791.6" cy="-1725.07" rx="37.89" ry="18"/>
<text text-anchor="start" x="5770.6" y="-1721.37" font-family="Times New Roman,serif" font-size="14.00">hunt oil</text>
</g>
<!-- Entity36 -->
<g id="node18" class="node entity">
<title>Entity36</title>
<ellipse fill="none" stroke="black" cx="5834.34" cy="-1617.02" rx="77.99" ry="18"/>
<text text-anchor="start" x="5782.34" y="-1613.32" font-family="Times New Roman,serif" font-size="14.00">dwight eisenhower</text>
</g>
<!-- Entity29&#45;&gt;Entity36 -->
<g id="edge13" class="edge verb">
<title>Entity29&#45;&gt;Entity36</title>
<path fill="none" stroke="black" d="M5798.65,-1707.23C5805.39,-1690.21 5815.63,-1664.31 5823.42,-1644.63"/>
<polygon fill="black" stroke="black" points="5826.7,-1645.84 5827.13,-1635.25 5820.19,-1643.26 5826.7,-1645.84"/>
<text text-anchor="start" x="5771.04" y="-1679.73" font-family="Times New Roman,serif" font-size="14.00">funded</text>
</g>
<!-- Entity36&#45;&gt;Entity66 -->
<g id="edge34" class="edge verb">
<title>Entity36&#45;&gt;Entity66</title>
<path fill="none" stroke="black" d="M5867.68,-1600.52C5966.32,-1551.72 6255.91,-1408.42 6354.22,-1359.78"/>
<polygon fill="black" stroke="black" points="6355.98,-1362.82 6363.39,-1355.25 6352.87,-1356.54 6355.98,-1362.82"/>
<text text-anchor="start" x="6091.95" y="-1483.95" font-family="Times New Roman,serif" font-size="14.00">is a</text>
</g>
<!-- Entity11 -->
<g id="node19" class="node entity">
<title>Entity11</title>
<ellipse fill="none" stroke="black" cx="6998.69" cy="-1503.81" rx="56.59" ry="18"/>
<text text-anchor="start" x="6963.19" y="-1500.11" font-family="Times New Roman,serif" font-size="14.00">harry truman</text>
</g>
<!-- Entity11&#45;&gt;Entity66 -->
<g id="edge14" class="edge verb">
<title>Entity11&#45;&gt;Entity66</title>
<path fill="none" stroke="black" d="M6954.72,-1492.27C6840.14,-1462.21 6533.77,-1381.84 6425.69,-1353.48"/>
<polygon fill="black" stroke="black" points="6426.43,-1350.06 6415.87,-1350.91 6424.65,-1356.83 6426.43,-1350.06"/>
<text text-anchor="start" x="6674.21" y="-1426.68" font-family="Times New Roman,serif" font-size="14.00">isa</text>
</g>
<!-- Entity69 -->
<g id="node24" class="node entity">
<title>Entity69</title>
<ellipse fill="none" stroke="black" cx="7433.56" cy="-1803.2" rx="55.79" ry="18"/>
<text text-anchor="start" x="7398.56" y="-1799.5" font-family="Times New Roman,serif" font-size="14.00">freemasonry</text>
</g>
<!-- Entity11&#45;&gt;Entity69 -->
<g id="edge17" class="edge verb">
<title>Entity11&#45;&gt;Entity69</title>
<path fill="none" stroke="black" d="M7022.69,-1520.33C7096.12,-1570.89 7317.83,-1723.52 7401.31,-1780.99"/>
<polygon fill="black" stroke="black" points="7399.42,-1783.94 7409.64,-1786.73 7403.39,-1778.17 7399.42,-1783.94"/>
<text text-anchor="start" x="7151" y="-1654.46" font-family="Times New Roman,serif" font-size="14.00">member of</text>
</g>
<!-- Entity63 -->
<g id="node21" class="node entity">
<title>Entity63</title>
<ellipse fill="none" stroke="black" cx="6752.13" cy="-1719.92" rx="53.89" ry="18"/>
<text text-anchor="start" x="6718.63" y="-1716.22" font-family="Times New Roman,serif" font-size="14.00">edgar casey</text>
</g>
<!-- Entity59 -->
<g id="node22" class="node entity">
<title>Entity59</title>
<ellipse fill="none" stroke="black" cx="6691.83" cy="-1611.98" rx="71.49" ry="18"/>
<text text-anchor="start" x="6644.83" y="-1608.28" font-family="Times New Roman,serif" font-size="14.00">woodrow wilson</text>
</g>
<!-- Entity63&#45;&gt;Entity59 -->
<g id="edge15" class="edge verb">
<title>Entity63&#45;&gt;Entity59</title>
<path fill="none" stroke="black" d="M6742.18,-1702.09C6732.53,-1684.83 6717.78,-1658.43 6706.74,-1638.66"/>
<polygon fill="black" stroke="black" points="6709.73,-1636.85 6701.8,-1629.83 6703.62,-1640.27 6709.73,-1636.85"/>
<text text-anchor="start" x="6682.46" y="-1674.18" font-family="Times New Roman,serif" font-size="14.00">advises</text>
</g>
<!-- Entity59&#45;&gt;Entity66 -->
<g id="edge30" class="edge verb">
<title>Entity59&#45;&gt;Entity66</title>
<path fill="none" stroke="black" d="M6671.85,-1594.36C6618.26,-1547.1 6471.44,-1417.62 6412.39,-1365.54"/>
<polygon fill="black" stroke="black" points="6414.47,-1362.71 6404.66,-1358.72 6409.84,-1367.96 6414.47,-1362.71"/>
<text text-anchor="start" x="6526.12" y="-1483.75" font-family="Times New Roman,serif" font-size="14.00">isa</text>
</g>
<!-- Entity92 -->
<g id="node50" class="node entity">
<title>Entity92</title>
<ellipse fill="none" stroke="black" cx="7003.3" cy="-2164.72" rx="71.49" ry="18"/>
<text text-anchor="start" x="6956.3" y="-2161.02" font-family="Times New Roman,serif" font-size="14.00">leauge of nations</text>
</g>
<!-- Entity59&#45;&gt;Entity92 -->
<g id="edge54" class="edge verb">
<title>Entity59&#45;&gt;Entity92</title>
<path fill="none" stroke="black" d="M6702.01,-1630.06C6747.67,-1711.08 6933.63,-2041.1 6988.18,-2137.91"/>
<polygon fill="black" stroke="black" points="6985.23,-2139.79 6993.19,-2146.78 6991.33,-2136.35 6985.23,-2139.79"/>
<text text-anchor="start" x="6804.1" y="-1887.78" font-family="Times New Roman,serif" font-size="14.00">created</text>
</g>
<!-- Entity18 -->
<g id="node26" class="node entity">
<title>Entity18</title>
<ellipse fill="none" stroke="black" cx="6724.27" cy="-1230.74" rx="35.19" ry="18"/>
<text text-anchor="start" x="6705.27" y="-1227.04" font-family="Times New Roman,serif" font-size="14.00">obama</text>
</g>
<!-- Entity18&#45;&gt;Entity66 -->
<g id="edge21" class="edge verb">
<title>Entity18&#45;&gt;Entity66</title>
<path fill="none" stroke="black" d="M6694.66,-1240.64C6633.1,-1261.23 6491.44,-1308.59 6424.12,-1331.1"/>
<polygon fill="black" stroke="black" points="6422.74,-1327.87 6414.36,-1334.36 6424.95,-1334.51 6422.74,-1327.87"/>
<text text-anchor="start" x="6543.39" y="-1289.67" font-family="Times New Roman,serif" font-size="14.00">isa</text>
</g>
<!-- Entity12 -->
<g id="node27" class="node entity">
<title>Entity12</title>
<ellipse fill="none" stroke="black" cx="6653.51" cy="-1456.72" rx="58.49" ry="18"/>
<text text-anchor="start" x="6616.51" y="-1453.02" font-family="Times New Roman,serif" font-size="14.00">richard nixon</text>
</g>
<!-- Entity12&#45;&gt;Entity66 -->
<g id="edge22" class="edge verb">
<title>Entity12&#45;&gt;Entity66</title>
<path fill="none" stroke="black" d="M6618.98,-1442.02C6567.97,-1420.31 6473,-1379.89 6421.93,-1358.15"/>
<polygon fill="black" stroke="black" points="6423.19,-1354.89 6412.62,-1354.19 6420.45,-1361.33 6423.19,-1354.89"/>
<text text-anchor="start" x="6504.46" y="-1403.89" font-family="Times New Roman,serif" font-size="14.00">isa</text>
</g>
<!-- Entity24 -->
<g id="node29" class="node entity">
<title>Entity24</title>
<ellipse fill="none" stroke="black" cx="4009.53" cy="-1075.64" rx="63.89" ry="18"/>
<text text-anchor="start" x="3968.53" y="-1071.94" font-family="Times New Roman,serif" font-size="14.00">robert bigelow</text>
</g>
<!-- Entity24&#45;&gt;Entity7 -->
<g id="edge25" class="edge verb">
<title>Entity24&#45;&gt;Entity7</title>
<path fill="none" stroke="black" d="M4009.98,-1057.31C4010.39,-1040.44 4011,-1015.16 4011.48,-995.73"/>
<polygon fill="black" stroke="black" points="4014.98,-995.71 4011.72,-985.63 4007.98,-995.54 4014.98,-995.71"/>
<text text-anchor="start" x="3978.73" y="-1030.32" font-family="Times New Roman,serif" font-size="14.00">funds</text>
</g>
<!-- Entity24&#45;&gt;Entity67 -->
<g id="edge45" class="edge verb">
<title>Entity24&#45;&gt;Entity67</title>
<path fill="none" stroke="black" d="M4072.59,-1078.54C4166.31,-1082.85 4342.62,-1090.96 4448.21,-1095.81"/>
<polygon fill="black" stroke="black" points="4448.37,-1099.32 4458.52,-1096.28 4448.69,-1092.33 4448.37,-1099.32"/>
<text text-anchor="start" x="4196.4" y="-1090.98" font-family="Times New Roman,serif" font-size="14.00">investigates</text>
</g>
<!-- Entity44 -->
<g id="node30" class="node entity">
<title>Entity44</title>
<ellipse fill="none" stroke="black" cx="7422.06" cy="-901.96" rx="58.49" ry="18"/>
<text text-anchor="start" x="7385.06" y="-898.26" font-family="Times New Roman,serif" font-size="14.00">steve bannon</text>
</g>
<!-- Entity44&#45;&gt;Entity15 -->
<g id="edge28" class="edge verb">
<title>Entity44&#45;&gt;Entity15</title>
<path fill="none" stroke="black" d="M7363.7,-903.4C7225.03,-912.04 6876.75,-943.44 6733.64,-960.15"/>
<polygon fill="black" stroke="black" points="6733.22,-956.67 6723.7,-961.33 6734.04,-963.63 6733.22,-956.67"/>
<text text-anchor="start" x="6993.67" y="-935.57" font-family="Times New Roman,serif" font-size="14.00">promoted</text>
</g>
<!-- Entity44&#45;&gt;Entity15 -->
<g id="edge64" class="edge verb">
<title>Entity44&#45;&gt;Entity15</title>
<path fill="none" stroke="black" d="M7370.15,-910.31C7238.32,-926.2 6890.49,-957.77 6740.84,-967.61"/>
<polygon fill="black" stroke="black" points="6740.17,-964.15 6730.41,-968.28 6740.62,-971.13 6740.17,-964.15"/>
<text text-anchor="start" x="7055.5" y="-942.76" font-family="Times New Roman,serif" font-size="14.00">advises</text>
</g>
<!-- Entity83 -->
<g id="node40" class="node entity">
<title>Entity83</title>
<ellipse fill="none" stroke="black" cx="8059.04" cy="-898.11" rx="61.99" ry="18"/>
<text text-anchor="start" x="8019.54" y="-894.41" font-family="Times New Roman,serif" font-size="14.00">breitbart news</text>
</g>
<!-- Entity44&#45;&gt;Entity83 -->
<g id="edge46" class="edge verb">
<title>Entity44&#45;&gt;Entity83</title>
<path fill="none" stroke="black" d="M7480.56,-901.61C7597.49,-900.9 7859.75,-899.32 7987.02,-898.55"/>
<polygon fill="black" stroke="black" points="7987.08,-902.05 7997.06,-898.49 7987.04,-895.05 7987.08,-902.05"/>
<text text-anchor="start" x="7692.79" y="-903.88" font-family="Times New Roman,serif" font-size="14.00">created</text>
</g>
<!-- Entity89 -->
<g id="node49" class="node entity">
<title>Entity89</title>
<ellipse fill="none" stroke="black" cx="7853.67" cy="-790.06" rx="35.19" ry="18"/>
<text text-anchor="start" x="7834.67" y="-786.36" font-family="Times New Roman,serif" font-size="14.00">gurgev</text>
</g>
<!-- Entity44&#45;&gt;Entity89 -->
<g id="edge53" class="edge verb">
<title>Entity44&#45;&gt;Entity89</title>
<path fill="none" stroke="black" d="M7467.02,-890.3C7551.09,-868.51 7730.89,-821.89 7812.2,-800.81"/>
<polygon fill="black" stroke="black" points="7813.28,-804.14 7822.08,-798.24 7811.52,-797.37 7813.28,-804.14"/>
<text text-anchor="start" x="7598.61" y="-849.35" font-family="Times New Roman,serif" font-size="14.00">studied</text>
</g>
<!-- Entity91 -->
<g id="node51" class="node entity">
<title>Entity91</title>
<ellipse fill="none" stroke="black" cx="7846.13" cy="-1097.2" rx="38.19" ry="18"/>
<text text-anchor="start" x="7824.63" y="-1093.5" font-family="Times New Roman,serif" font-size="14.00">us navy</text>
</g>
<!-- Entity44&#45;&gt;Entity91 -->
<g id="edge55" class="edge verb">
<title>Entity44&#45;&gt;Entity91</title>
<path fill="none" stroke="black" d="M7454.63,-916.96C7532.16,-952.65 7727.28,-1042.48 7809.11,-1080.15"/>
<polygon fill="black" stroke="black" points="7807.96,-1083.48 7818.51,-1084.48 7810.89,-1077.12 7807.96,-1083.48"/>
<text text-anchor="start" x="7570.87" y="-1002.36" font-family="Times New Roman,serif" font-size="14.00">member of</text>
</g>
<!-- Entity94 -->
<g id="node53" class="node entity">
<title>Entity94</title>
<ellipse fill="none" stroke="black" cx="7849.92" cy="-589.28" rx="53.09" ry="18"/>
<text text-anchor="start" x="7816.92" y="-585.58" font-family="Times New Roman,serif" font-size="14.00">biosphere 2</text>
</g>
<!-- Entity44&#45;&gt;Entity94 -->
<g id="edge57" class="edge verb">
<title>Entity44&#45;&gt;Entity94</title>
<path fill="none" stroke="black" d="M7444.76,-885.37C7516.35,-833.05 7737.47,-671.46 7819.17,-611.75"/>
<polygon fill="black" stroke="black" points="7821.52,-614.37 7827.53,-605.64 7817.39,-608.71 7821.52,-614.37"/>
<text text-anchor="start" x="7590.96" y="-752.36" font-family="Times New Roman,serif" font-size="14.00">created</text>
</g>
<!-- Entity107 -->
<g id="node58" class="node entity">
<title>Entity107</title>
<ellipse fill="none" stroke="black" cx="7516.29" cy="-793.87" rx="77.19" ry="18"/>
<text text-anchor="start" x="7464.79" y="-790.17" font-family="Times New Roman,serif" font-size="14.00">hollywood movies</text>
</g>
<!-- Entity44&#45;&gt;Entity107 -->
<g id="edge61" class="edge verb">
<title>Entity44&#45;&gt;Entity107</title>
<path fill="none" stroke="black" d="M7437.62,-884.11C7452.96,-866.51 7476.57,-839.43 7493.93,-819.52"/>
<polygon fill="black" stroke="black" points="7496.77,-821.58 7500.71,-811.75 7491.5,-816.98 7496.77,-821.58"/>
<text text-anchor="start" x="7410.77" y="-855.62" font-family="Times New Roman,serif" font-size="14.00">produced</text>
</g>
<!-- Entity111 -->
<g id="node59" class="node entity">
<title>Entity111</title>
<ellipse fill="none" stroke="black" cx="7707.65" cy="-416.05" rx="64.99" ry="18"/>
<text text-anchor="start" x="7665.65" y="-412.35" font-family="Times New Roman,serif" font-size="14.00">goldman sachs</text>
</g>
<!-- Entity44&#45;&gt;Entity111 -->
<g id="edge66" class="edge verb">
<title>Entity44&#45;&gt;Entity111</title>
<path fill="none" stroke="black" d="M7432.56,-884.09C7475.82,-810.49 7640.33,-530.6 7692.02,-442.66"/>
<polygon fill="black" stroke="black" points="7695.16,-444.22 7697.21,-433.83 7689.12,-440.68 7695.16,-444.22"/>
<text text-anchor="start" x="7499.29" y="-667.17" font-family="Times New Roman,serif" font-size="14.00">worked for</text>
</g>
<!-- Entity33 -->
<g id="node32" class="node entity">
<title>Entity33</title>
<ellipse fill="none" stroke="black" cx="2395.73" cy="-1560.11" rx="57.69" ry="18"/>
<text text-anchor="start" x="2359.23" y="-1556.41" font-family="Times New Roman,serif" font-size="14.00">michael pane</text>
</g>
<!-- Entity33&#45;&gt;Entity30 -->
<g id="edge47" class="edge verb">
<title>Entity33&#45;&gt;Entity30</title>
<path fill="none" stroke="black" d="M2364.76,-1575.36C2326.46,-1594.22 2261.1,-1626.41 2218.31,-1647.48"/>
<polygon fill="black" stroke="black" points="2216.7,-1644.37 2209.28,-1651.93 2219.8,-1650.65 2216.7,-1644.37"/>
<text text-anchor="start" x="2228.54" y="-1615.22" font-family="Times New Roman,serif" font-size="14.00">worked for</text>
</g>
<!-- Entity33&#45;&gt;Entity72 -->
<g id="edge31" class="edge verb">
<title>Entity33&#45;&gt;Entity72</title>
<path fill="none" stroke="black" d="M2432.02,-1545.96C2519.81,-1511.72 2743.46,-1424.5 2839.23,-1387.16"/>
<polygon fill="black" stroke="black" points="2840.58,-1390.38 2848.63,-1383.49 2838.04,-1383.86 2840.58,-1390.38"/>
<text text-anchor="start" x="2579.62" y="-1470.36" font-family="Times New Roman,serif" font-size="14.00">worked at</text>
</g>
<!-- Entity45 -->
<g id="node33" class="node entity">
<title>Entity45</title>
<ellipse fill="none" stroke="black" cx="6293.73" cy="-861.86" rx="67.69" ry="18"/>
<text text-anchor="start" x="6249.73" y="-858.16" font-family="Times New Roman,serif" font-size="14.00">abraham lincoln</text>
</g>
<!-- Entity45&#45;&gt;Entity66 -->
<g id="edge32" class="edge verb">
<title>Entity45&#45;&gt;Entity66</title>
<path fill="none" stroke="black" d="M6297.22,-879.86C6311.4,-952.79 6364.61,-1226.66 6381.87,-1315.44"/>
<polygon fill="black" stroke="black" points="6378.44,-1316.17 6383.79,-1325.32 6385.31,-1314.84 6378.44,-1316.17"/>
<text text-anchor="start" x="6323.54" y="-1101.45" font-family="Times New Roman,serif" font-size="14.00">isa</text>
</g>
<!-- Entity38 -->
<g id="node34" class="node entity">
<title>Entity38</title>
<ellipse fill="none" stroke="black" cx="5708.55" cy="-605.5" rx="90.98" ry="18"/>
<text text-anchor="start" x="5646.55" y="-601.8" font-family="Times New Roman,serif" font-size="14.00">emma hardinge&#45;britten</text>
</g>
<!-- Entity38&#45;&gt;Entity45 -->
<g id="edge33" class="edge verb">
<title>Entity38&#45;&gt;Entity45</title>
<path fill="none" stroke="black" d="M5746.05,-621.93C5849.36,-667.19 6137.84,-793.57 6249.14,-842.33"/>
<polygon fill="black" stroke="black" points="6247.84,-845.58 6258.41,-846.39 6250.65,-839.17 6247.84,-845.58"/>
<text text-anchor="start" x="5898.59" y="-735.93" font-family="Times New Roman,serif" font-size="14.00">spokesperson for</text>
</g>
<!-- Entity79 -->
<g id="node38" class="node entity">
<title>Entity79</title>
<ellipse fill="none" stroke="black" cx="5722.74" cy="-17.93" rx="39.79" ry="18"/>
<text text-anchor="start" x="5700.24" y="-14.23" font-family="Times New Roman,serif" font-size="14.00">medium</text>
</g>
<!-- Entity38&#45;&gt;Entity79 -->
<g id="edge38" class="edge verb">
<title>Entity38&#45;&gt;Entity79</title>
<path fill="none" stroke="black" d="M5708.99,-587.27C5711.03,-502.8 5719.57,-149.16 5722.06,-46.18"/>
<polygon fill="black" stroke="black" points="5725.56,-46.03 5722.3,-35.94 5718.56,-45.86 5725.56,-46.03"/>
<text text-anchor="start" x="5699.52" y="-320.52" font-family="Times New Roman,serif" font-size="14.00">isa</text>
</g>
<!-- Entity86 -->
<g id="node48" class="node entity">
<title>Entity86</title>
<ellipse fill="none" stroke="black" cx="5180" cy="-693.47" rx="85.29" ry="18"/>
<text text-anchor="start" x="5122.5" y="-689.77" font-family="Times New Roman,serif" font-size="14.00">theosophical society</text>
</g>
<!-- Entity38&#45;&gt;Entity86 -->
<g id="edge65" class="edge verb">
<title>Entity38&#45;&gt;Entity86</title>
<path fill="none" stroke="black" d="M5638.91,-617.09C5540.16,-633.53 5360.06,-663.5 5257.29,-680.61"/>
<polygon fill="black" stroke="black" points="5256.58,-677.18 5247.29,-682.27 5257.73,-684.08 5256.58,-677.18"/>
<text text-anchor="start" x="5407.1" y="-652.65" font-family="Times New Roman,serif" font-size="14.00">created</text>
</g>
<!-- Entity99 -->
<g id="node54" class="node entity">
<title>Entity99</title>
<ellipse fill="none" stroke="black" cx="5731.6" cy="-497.42" rx="55.79" ry="18"/>
<text text-anchor="start" x="5696.6" y="-493.72" font-family="Times New Roman,serif" font-size="14.00">orphic circle</text>
</g>
<!-- Entity38&#45;&gt;Entity99 -->
<g id="edge58" class="edge verb">
<title>Entity38&#45;&gt;Entity99</title>
<path fill="none" stroke="black" d="M5712.46,-587.17C5716.08,-570.22 5721.5,-544.79 5725.65,-525.32"/>
<polygon fill="black" stroke="black" points="5729.09,-526 5727.75,-515.49 5722.24,-524.54 5729.09,-526"/>
<text text-anchor="start" x="5658.06" y="-560.04" font-family="Times New Roman,serif" font-size="14.00">member of</text>
</g>
<!-- Entity42 -->
<g id="node36" class="node entity">
<title>Entity42</title>
<ellipse fill="none" stroke="black" cx="3861.94" cy="-1683.66" rx="53.89" ry="18"/>
<text text-anchor="start" x="3828.44" y="-1679.96" font-family="Times New Roman,serif" font-size="14.00">black magic</text>
</g>
<!-- Entity81 -->
<g id="node37" class="node entity">
<title>Entity81</title>
<ellipse fill="none" stroke="black" cx="3949.66" cy="-1795.64" rx="28.7" ry="18"/>
<text text-anchor="start" x="3935.66" y="-1791.94" font-family="Times New Roman,serif" font-size="14.00">x left</text>
</g>
<!-- Entity42&#45;&gt;Entity81 -->
<g id="edge37" class="edge verb">
<title>Entity42&#45;&gt;Entity81</title>
<path fill="none" stroke="black" d="M3875.64,-1701.16C3890.45,-1720.05 3914.14,-1750.29 3930.72,-1771.45"/>
<polygon fill="black" stroke="black" points="3927.98,-1773.64 3936.9,-1779.36 3933.49,-1769.32 3927.98,-1773.64"/>
<text text-anchor="start" x="3842.18" y="-1740.11" font-family="Times New Roman,serif" font-size="14.00">member of</text>
</g>
<!-- Entity47 -->
<g id="node39" class="node entity">
<title>Entity47</title>
<ellipse fill="none" stroke="black" cx="8638.97" cy="-847.39" rx="69.59" ry="18"/>
<text text-anchor="start" x="8593.47" y="-843.69" font-family="Times New Roman,serif" font-size="14.00">andrew breitbart</text>
</g>
<!-- Entity47&#45;&gt;Entity83 -->
<g id="edge39" class="edge verb">
<title>Entity47&#45;&gt;Entity83</title>
<path fill="none" stroke="black" d="M8573.01,-853.16C8462.6,-862.82 8241.42,-882.16 8128.64,-892.03"/>
<polygon fill="black" stroke="black" points="8128.05,-888.56 8118.4,-892.92 8128.66,-895.54 8128.05,-888.56"/>
<text text-anchor="start" x="8309.82" y="-876.39" font-family="Times New Roman,serif" font-size="14.00">created</text>
</g>
<!-- Entity35 -->
<g id="node42" class="node entity">
<title>Entity35</title>
<ellipse fill="none" stroke="black" cx="4323.94" cy="-1683.66" rx="39.79" ry="18"/>
<text text-anchor="start" x="4301.44" y="-1679.96" font-family="Times New Roman,serif" font-size="14.00">crowley</text>
</g>
<!-- Entity80 -->
<g id="node43" class="node entity">
<title>Entity80</title>
<ellipse fill="none" stroke="black" cx="4411.66" cy="-1795.64" rx="38.99" ry="18"/>
<text text-anchor="start" x="4389.66" y="-1791.94" font-family="Times New Roman,serif" font-size="14.00">x magic</text>
</g>
<!-- Entity35&#45;&gt;Entity80 -->
<g id="edge41" class="edge verb">
<title>Entity35&#45;&gt;Entity80</title>
<path fill="none" stroke="black" d="M4337.26,-1700.67C4351.82,-1719.25 4375.28,-1749.2 4391.96,-1770.49"/>
<polygon fill="black" stroke="black" points="4389.29,-1772.76 4398.21,-1778.47 4394.8,-1768.44 4389.29,-1772.76"/>
<text text-anchor="start" x="4303.61" y="-1739.38" font-family="Times New Roman,serif" font-size="14.00">member of</text>
</g>
<!-- Entity19 -->
<g id="node44" class="node entity">
<title>Entity19</title>
<ellipse fill="none" stroke="black" cx="5984.3" cy="-1369.56" rx="31.4" ry="18"/>
<text text-anchor="start" x="5968.3" y="-1365.86" font-family="Times New Roman,serif" font-size="14.00">carter</text>
</g>
<!-- Entity19&#45;&gt;Entity66 -->
<g id="edge44" class="edge verb">
<title>Entity19&#45;&gt;Entity66</title>
<path fill="none" stroke="black" d="M6015.59,-1367.53C6087.53,-1362.86 6264.75,-1351.36 6345.73,-1346.11"/>
<polygon fill="black" stroke="black" points="6346.28,-1349.58 6356.03,-1345.44 6345.83,-1342.6 6346.28,-1349.58"/>
<text text-anchor="start" x="6164.66" y="-1360.62" font-family="Times New Roman,serif" font-size="14.00">isa</text>
</g>
<!-- Entity19&#45;&gt;Entity90 -->
<g id="edge56" class="edge verb">
<title>Entity19&#45;&gt;Entity90</title>
<path fill="none" stroke="black" d="M5953.55,-1365.68C5882.89,-1356.76 5709.2,-1334.84 5633.17,-1325.25"/>
<polygon fill="black" stroke="black" points="5633.47,-1321.76 5623.11,-1323.98 5632.59,-1328.7 5633.47,-1321.76"/>
<text text-anchor="start" x="5738.36" y="-1349.26" font-family="Times New Roman,serif" font-size="14.00">witnessed</text>
</g>
<!-- Entity27 -->
<g id="node45" class="node entity">
<title>Entity27</title>
<ellipse fill="none" stroke="black" cx="75.69" cy="-2143.23" rx="75.29" ry="18"/>
<text text-anchor="start" x="25.69" y="-2139.53" font-family="Times New Roman,serif" font-size="14.00">lee harvey oswald</text>
</g>
<!-- Entity34 -->
<g id="node46" class="node entity">
<title>Entity34</title>
<ellipse fill="none" stroke="black" cx="618.97" cy="-1997.16" rx="59.29" ry="18"/>
<text text-anchor="start" x="581.47" y="-1993.46" font-family="Times New Roman,serif" font-size="14.00">guy bannister</text>
</g>
<!-- Entity27&#45;&gt;Entity34 -->
<g id="edge50" class="edge verb">
<title>Entity27&#45;&gt;Entity34</title>
<path fill="none" stroke="black" d="M125.82,-2129.75C227.87,-2102.32 458.95,-2040.18 564.52,-2011.8"/>
<polygon fill="black" stroke="black" points="565.59,-2015.14 574.34,-2009.16 563.77,-2008.38 565.59,-2015.14"/>
<text text-anchor="start" x="282.17" y="-2074.58" font-family="Times New Roman,serif" font-size="14.00">worked for</text>
</g>
<!-- Entity34&#45;&gt;Entity75 -->
<g id="edge51" class="edge verb">
<title>Entity34&#45;&gt;Entity75</title>
<path fill="none" stroke="black" d="M663.73,-1985.21C756.4,-1960.45 968.29,-1903.85 1060.15,-1879.31"/>
<polygon fill="black" stroke="black" points="1061.2,-1882.66 1069.96,-1876.69 1059.4,-1875.89 1061.2,-1882.66"/>
<text text-anchor="start" x="800.94" y="-1936.06" font-family="Times New Roman,serif" font-size="14.00">member of</text>
</g>
<!-- Entity64 -->
<g id="node47" class="node entity">
<title>Entity64</title>
<ellipse fill="none" stroke="black" cx="5167.02" cy="-585.53" rx="73.39" ry="18"/>
<text text-anchor="start" x="5118.52" y="-581.83" font-family="Times New Roman,serif" font-size="14.00">madam blavatsky</text>
</g>
<!-- Entity64&#45;&gt;Entity86 -->
<g id="edge52" class="edge verb">
<title>Entity64&#45;&gt;Entity86</title>
<path fill="none" stroke="black" d="M5169.22,-603.84C5171.25,-620.69 5174.28,-645.93 5176.62,-665.34"/>
<polygon fill="black" stroke="black" points="5173.16,-665.92 5177.83,-675.43 5180.11,-665.08 5173.16,-665.92"/>
<text text-anchor="start" x="5131.92" y="-638.39" font-family="Times New Roman,serif" font-size="14.00">created</text>
</g>
<!-- Entity60 -->
<g id="node56" class="node entity">
<title>Entity60</title>
<ellipse fill="none" stroke="black" cx="4776.16" cy="-818.85" rx="58.49" ry="18"/>
<text text-anchor="start" x="4739.16" y="-815.15" font-family="Times New Roman,serif" font-size="14.00">rudolf steiner</text>
</g>
<!-- Entity60&#45;&gt;Entity86 -->
<g id="edge63" class="edge verb">
<title>Entity60&#45;&gt;Entity86</title>
<path fill="none" stroke="black" d="M4817.48,-806.03C4889.83,-783.56 5039.57,-737.07 5122.17,-711.43"/>
<polygon fill="black" stroke="black" points="5123.38,-714.71 5131.9,-708.41 5121.31,-708.03 5123.38,-714.71"/>
<text text-anchor="start" x="4903.82" y="-762.53" font-family="Times New Roman,serif" font-size="14.00">memberr of</text>
</g>
<!-- Entity93 -->
<g id="node57" class="node entity">
<title>Entity93</title>
<ellipse fill="none" stroke="black" cx="4618.08" cy="-710.84" rx="102.08" ry="18"/>
<text text-anchor="start" x="4547.58" y="-707.14" font-family="Times New Roman,serif" font-size="14.00">anthroposophical society</text>
</g>
<!-- Entity60&#45;&gt;Entity93 -->
<g id="edge60" class="edge verb">
<title>Entity60&#45;&gt;Entity93</title>
<path fill="none" stroke="black" d="M4751.81,-802.21C4725.17,-784.01 4682.26,-754.69 4652.26,-734.19"/>
<polygon fill="black" stroke="black" points="4654.01,-731.15 4643.78,-728.4 4650.06,-736.93 4654.01,-731.15"/>
<text text-anchor="start" x="4661.03" y="-772" font-family="Times New Roman,serif" font-size="14.00">created</text>
</g>
<!-- Entity109 -->
<g id="node60" class="node entity">
<title>Entity109</title>
<ellipse fill="none" stroke="black" cx="4786.94" cy="-1445.66" rx="27" ry="18"/>
<text text-anchor="start" x="4783.44" y="-1441.96" font-family="Times New Roman,serif" font-size="14.00">s</text>
</g>
<!-- Entity112 -->
<g id="node61" class="node entity">
<title>Entity112</title>
<ellipse fill="none" stroke="black" cx="4874.66" cy="-1557.64" rx="27" ry="18"/>
<text text-anchor="start" x="4870.66" y="-1553.94" font-family="Times New Roman,serif" font-size="14.00">o</text>
</g>
<!-- Entity109&#45;&gt;Entity112 -->
<g id="edge67" class="edge verb">
<title>Entity109&#45;&gt;Entity112</title>
<path fill="none" stroke="black" d="M4799.51,-1461.7C4814.23,-1480.5 4838.76,-1511.82 4855.78,-1533.53"/>
<polygon fill="black" stroke="black" points="4853.19,-1535.91 4862.11,-1541.62 4858.7,-1531.59 4853.19,-1535.91"/>
<text text-anchor="start" x="4820.64" y="-1501.42" font-family="Times New Roman,serif" font-size="14.00">v</text>
</g>
</g>
</svg>
