<?xml version="1.0" encoding="UTF-8" standalone="no"?>
<?xml-stylesheet href="./styles.css" type="text/css"?>
<!DOCTYPE svg PUBLIC "-//W3C//DTD SVG 1.1//EN"
 "http://www.w3.org/Graphics/SVG/1.1/DTD/svg11.dtd">
<!-- Generated by graphviz version 2.47.3 (20210619.1520)
 -->
<!-- Title: G Pages: 1 -->
<svg width="8160pt" height="4602pt"
 viewBox="0.00 0.00 8160.00 4602.00" xmlns="http://www.w3.org/2000/svg" xmlns:xlink="http://www.w3.org/1999/xlink">
<g id="graph0" class="graph" transform="scale(1 1) rotate(0) translate(4 4598)">
<title>G</title>
<polygon fill="white" stroke="transparent" points="-4,4 -4,-4598 8156,-4598 8156,4 -4,4"/>
<!-- Entity3 -->
<g id="node1" class="node entity">
<title>Entity3</title>
<ellipse fill="none" stroke="black" cx="5841.83" cy="-3530.76" rx="64.19" ry="18"/>
<text text-anchor="start" x="5800.33" y="-3527.06" font-family="Times New Roman,serif" font-size="14.00">john f kennedy</text>
</g>
<!-- Entity22 -->
<g id="node2" class="node entity">
<title>Entity22</title>
<ellipse fill="none" stroke="black" cx="5373.43" cy="-3627.6" rx="27" ry="18"/>
<text text-anchor="start" x="5365.43" y="-3623.9" font-family="Times New Roman,serif" font-size="14.00">cia</text>
</g>
<!-- Entity3&#45;&gt;Entity22 -->
<g id="edge1" class="edge verb">
<title>Entity3&#45;&gt;Entity22</title>
<path fill="none" stroke="black" d="M5789.92,-3541.49C5693.98,-3561.33 5491.24,-3603.24 5409.11,-3620.23"/>
<polygon fill="black" stroke="black" points="5408.34,-3616.81 5399.25,-3622.27 5409.75,-3623.67 5408.34,-3616.81"/>
<text text-anchor="start" x="5495.51" y="-3584.66" font-family="Times New Roman,serif" font-size="14.00">heads (1961&#45;1963)</text>
</g>
<!-- Entity66 -->
<g id="node20" class="node entity">
<title>Entity66</title>
<ellipse fill="none" stroke="black" cx="6373.62" cy="-3534.78" rx="31.4" ry="18"/>
<text text-anchor="start" x="6357.62" y="-3531.08" font-family="Times New Roman,serif" font-size="14.00">potus</text>
</g>
<!-- Entity3&#45;&gt;Entity66 -->
<g id="edge23" class="edge verb">
<title>Entity3&#45;&gt;Entity66</title>
<path fill="none" stroke="black" d="M5906.24,-3531.24C6016.88,-3532.08 6239.99,-3533.77 6332.25,-3534.46"/>
<polygon fill="black" stroke="black" points="6332.29,-3537.96 6342.32,-3534.54 6332.34,-3530.96 6332.29,-3537.96"/>
<text text-anchor="start" x="6032.25" y="-3536.65" font-family="Times New Roman,serif" font-size="14.00">isa (1961&#45;1963)</text>
</g>
<!-- Entity67 -->
<g id="node25" class="node entity">
<title>Entity67</title>
<ellipse fill="none" stroke="black" cx="4612.67" cy="-3689.01" rx="77.19" ry="18"/>
<text text-anchor="start" x="4561.17" y="-3685.31" font-family="Times New Roman,serif" font-size="14.00">psi&#45;consciousness</text>
</g>
<!-- Entity22&#45;&gt;Entity67 -->
<g id="edge43" class="edge verb">
<title>Entity22&#45;&gt;Entity67</title>
<path fill="none" stroke="black" d="M5346.36,-3629.79C5242.28,-3638.19 4865.32,-3668.61 4696.01,-3682.28"/>
<polygon fill="black" stroke="black" points="4695.58,-3678.8 4685.9,-3683.1 4696.15,-3685.78 4695.58,-3678.8"/>
<text text-anchor="start" x="4957.18" y="-3659.83" font-family="Times New Roman,serif" font-size="14.00">investigates</text>
</g>
<!-- Entity90 -->
<g id="node52" class="node entity">
<title>Entity90</title>
<ellipse fill="none" stroke="black" cx="5616.47" cy="-3422.71" rx="27" ry="18"/>
<text text-anchor="start" x="5606.97" y="-3419.01" font-family="Times New Roman,serif" font-size="14.00">ufo</text>
</g>
<!-- Entity22&#45;&gt;Entity90 -->
<g id="edge62" class="edge verb">
<title>Entity22&#45;&gt;Entity90</title>
<path fill="none" stroke="black" d="M5390.52,-3613.2C5432.81,-3577.55 5542.46,-3485.1 5591.79,-3443.52"/>
<polygon fill="black" stroke="black" points="5594.33,-3445.95 5599.72,-3436.83 5589.82,-3440.6 5594.33,-3445.95"/>
<text text-anchor="start" x="5427.16" y="-3532.16" font-family="Times New Roman,serif" font-size="14.00">investigates</text>
</g>
<!-- Entity14 -->
<g id="node3" class="node entity">
<title>Entity14</title>
<ellipse fill="none" stroke="black" cx="3315.75" cy="-2768.42" rx="74.99" ry="18"/>
<text text-anchor="start" x="3266.25" y="-2764.72" font-family="Times New Roman,serif" font-size="14.00">gene roddenberry</text>
</g>
<!-- Entity8 -->
<g id="node4" class="node entity">
<title>Entity8</title>
<ellipse fill="none" stroke="black" cx="3616.5" cy="-3170.82" rx="38.19" ry="18"/>
<text text-anchor="start" x="3595" y="-3167.12" font-family="Times New Roman,serif" font-size="14.00">the nine</text>
</g>
<!-- Entity14&#45;&gt;Entity8 -->
<g id="edge2" class="edge verb">
<title>Entity14&#45;&gt;Entity8</title>
<path fill="none" stroke="black" d="M3329.06,-2786.23C3377.02,-2850.4 3541.08,-3069.91 3597.37,-3145.22"/>
<polygon fill="black" stroke="black" points="3594.89,-3147.75 3603.68,-3153.67 3600.5,-3143.56 3594.89,-3147.75"/>
<text text-anchor="start" x="3359.21" y="-2969.53" font-family="Times New Roman,serif" font-size="14.00">claiemd to channel</text>
</g>
<!-- Entity70 -->
<g id="node23" class="node entity">
<title>Entity70</title>
<ellipse fill="none" stroke="black" cx="3678.81" cy="-3062.74" rx="94.48" ry="18"/>
<text text-anchor="start" x="3614.31" y="-3059.04" font-family="Times New Roman,serif" font-size="14.00">egyptian gods in a ship</text>
</g>
<!-- Entity8&#45;&gt;Entity70 -->
<g id="edge16" class="edge verb">
<title>Entity8&#45;&gt;Entity70</title>
<path fill="none" stroke="black" d="M3626.79,-3152.98C3636.7,-3135.79 3651.81,-3109.57 3663.2,-3089.82"/>
<polygon fill="black" stroke="black" points="3666.33,-3091.39 3668.29,-3080.98 3660.27,-3087.89 3666.33,-3091.39"/>
<text text-anchor="start" x="3541" y="-3125.2" font-family="Times New Roman,serif" font-size="14.00">claimed to channel</text>
</g>
<!-- Entity16 -->
<g id="node5" class="node entity">
<title>Entity16</title>
<ellipse fill="none" stroke="black" cx="6803.95" cy="-3606.81" rx="68.49" ry="18"/>
<text text-anchor="start" x="6759.45" y="-3603.11" font-family="Times New Roman,serif" font-size="14.00">george hw bush</text>
</g>
<!-- Entity20 -->
<g id="node6" class="node entity">
<title>Entity20</title>
<ellipse fill="none" stroke="black" cx="6337.86" cy="-3426.77" rx="63.89" ry="18"/>
<text text-anchor="start" x="6296.86" y="-3423.07" font-family="Times New Roman,serif" font-size="14.00">george w bush</text>
</g>
<!-- Entity16&#45;&gt;Entity20 -->
<g id="edge3" class="edge verb">
<title>Entity16&#45;&gt;Entity20</title>
<path fill="none" stroke="black" d="M6765.41,-3591.92C6680.52,-3559.13 6477.61,-3480.75 6385.18,-3445.04"/>
<polygon fill="black" stroke="black" points="6386.38,-3441.76 6375.79,-3441.42 6383.86,-3448.29 6386.38,-3441.76"/>
<text text-anchor="start" x="6543.3" y="-3522.28" font-family="Times New Roman,serif" font-size="14.00">father</text>
</g>
<!-- Entity16&#45;&gt;Entity66 -->
<g id="edge20" class="edge verb">
<title>Entity16&#45;&gt;Entity66</title>
<path fill="none" stroke="black" d="M6745.91,-3597.1C6657.28,-3582.26 6490.44,-3554.33 6413.88,-3541.52"/>
<polygon fill="black" stroke="black" points="6414.14,-3538.01 6403.69,-3539.81 6412.98,-3544.91 6414.14,-3538.01"/>
<text text-anchor="start" x="6563.9" y="-3573.11" font-family="Times New Roman,serif" font-size="14.00">isa</text>
</g>
<!-- Entity20&#45;&gt;Entity66 -->
<g id="edge42" class="edge verb">
<title>Entity20&#45;&gt;Entity66</title>
<path fill="none" stroke="black" d="M6343.93,-3445.09C6349.6,-3462.21 6358.13,-3487.98 6364.6,-3507.52"/>
<polygon fill="black" stroke="black" points="6361.3,-3508.69 6367.77,-3517.08 6367.94,-3506.49 6361.3,-3508.69"/>
<text text-anchor="start" x="6338.26" y="-3480.1" font-family="Times New Roman,serif" font-size="14.00">isa</text>
</g>
<!-- Entity2 -->
<g id="node7" class="node entity">
<title>Entity2</title>
<ellipse fill="none" stroke="black" cx="3602.74" cy="-3528.47" rx="41.69" ry="18"/>
<text text-anchor="start" x="3578.74" y="-3524.77" font-family="Times New Roman,serif" font-size="14.00">uri geller</text>
</g>
<!-- Entity2&#45;&gt;Entity8 -->
<g id="edge4" class="edge verb">
<title>Entity2&#45;&gt;Entity8</title>
<path fill="none" stroke="black" d="M3603.44,-3510.24C3605.68,-3452.01 3612.68,-3270.12 3615.4,-3199.38"/>
<polygon fill="black" stroke="black" points="3618.92,-3199.14 3615.8,-3189.01 3611.92,-3198.87 3618.92,-3199.14"/>
<text text-anchor="start" x="3505.42" y="-3358.61" font-family="Times New Roman,serif" font-size="14.00">claiemd to channel</text>
</g>
<!-- Entity26 -->
<g id="node8" class="node entity">
<title>Entity26</title>
<ellipse fill="none" stroke="black" cx="1185.1" cy="-3779.94" rx="49.29" ry="18"/>
<text text-anchor="start" x="1155.1" y="-3776.24" font-family="Times New Roman,serif" font-size="14.00">adolf hitler</text>
</g>
<!-- Entity28 -->
<g id="node9" class="node entity">
<title>Entity28</title>
<ellipse fill="none" stroke="black" cx="1568.1" cy="-3896" rx="32.49" ry="18"/>
<text text-anchor="start" x="1551.1" y="-3892.3" font-family="Times New Roman,serif" font-size="14.00">nsdap</text>
</g>
<!-- Entity26&#45;&gt;Entity28 -->
<g id="edge5" class="edge verb">
<title>Entity26&#45;&gt;Entity28</title>
<path fill="none" stroke="black" d="M1223.22,-3791.49C1296.5,-3813.7 1456.24,-3862.11 1529.72,-3884.37"/>
<polygon fill="black" stroke="black" points="1528.91,-3887.79 1539.5,-3887.34 1530.94,-3881.09 1528.91,-3887.79"/>
<text text-anchor="start" x="1335.47" y="-3841.73" font-family="Times New Roman,serif" font-size="14.00">created</text>
</g>
<!-- Entity75 -->
<g id="node31" class="node entity">
<title>Entity75</title>
<ellipse fill="none" stroke="black" cx="1128.49" cy="-4005.29" rx="38.99" ry="18"/>
<text text-anchor="start" x="1106.49" y="-4001.59" font-family="Times New Roman,serif" font-size="14.00">far right</text>
</g>
<!-- Entity28&#45;&gt;Entity75 -->
<g id="edge29" class="edge verb">
<title>Entity28&#45;&gt;Entity75</title>
<path fill="none" stroke="black" d="M1538.23,-3903.43C1462.4,-3922.28 1262.15,-3972.06 1172.72,-3994.3"/>
<polygon fill="black" stroke="black" points="1171.75,-3990.93 1162.89,-3996.74 1173.44,-3997.72 1171.75,-3990.93"/>
<text text-anchor="start" x="1294.47" y="-3952.66" font-family="Times New Roman,serif" font-size="14.00">member of</text>
</g>
<!-- Entity15 -->
<g id="node10" class="node entity">
<title>Entity15</title>
<ellipse fill="none" stroke="black" cx="6708.76" cy="-3450.28" rx="59.59" ry="18"/>
<text text-anchor="start" x="6670.76" y="-3446.58" font-family="Times New Roman,serif" font-size="14.00">donald trump</text>
</g>
<!-- Entity48 -->
<g id="node11" class="node entity">
<title>Entity48</title>
<ellipse fill="none" stroke="black" cx="5986.8" cy="-3638.77" rx="50.09" ry="18"/>
<text text-anchor="start" x="5956.3" y="-3635.07" font-family="Times New Roman,serif" font-size="14.00">john trump</text>
</g>
<!-- Entity15&#45;&gt;Entity48 -->
<g id="edge6" class="edge verb">
<title>Entity15&#45;&gt;Entity48</title>
<path fill="none" stroke="black" d="M6663.32,-3462.14C6535.2,-3495.59 6171.61,-3590.52 6037.39,-3625.56"/>
<polygon fill="black" stroke="black" points="6036.17,-3622.26 6027.38,-3628.17 6037.94,-3629.03 6036.17,-3622.26"/>
<text text-anchor="start" x="6291.36" y="-3547.65" font-family="Times New Roman,serif" font-size="14.00">nephew of</text>
</g>
<!-- Entity15&#45;&gt;Entity66 -->
<g id="edge27" class="edge verb">
<title>Entity15&#45;&gt;Entity66</title>
<path fill="none" stroke="black" d="M6662.86,-3461.85C6596.3,-3478.63 6474.15,-3509.43 6412.05,-3525.09"/>
<polygon fill="black" stroke="black" points="6411.1,-3521.72 6402.26,-3527.56 6412.81,-3528.51 6411.1,-3521.72"/>
<text text-anchor="start" x="6521.46" y="-3497.27" font-family="Times New Roman,serif" font-size="14.00">isa</text>
</g>
<!-- Entity48&#45;&gt;Entity22 -->
<g id="edge10" class="edge verb">
<title>Entity48&#45;&gt;Entity22</title>
<path fill="none" stroke="black" d="M5936.61,-3637.85C5816.84,-3635.67 5516.43,-3630.21 5410.85,-3628.28"/>
<polygon fill="black" stroke="black" points="5410.73,-3624.78 5400.67,-3628.1 5410.61,-3631.78 5410.73,-3624.78"/>
<text text-anchor="start" x="5612.73" y="-3636.87" font-family="Times New Roman,serif" font-size="14.00">member of</text>
</g>
<!-- Entity82 -->
<g id="node41" class="node entity">
<title>Entity82</title>
<ellipse fill="none" stroke="black" cx="5696.34" cy="-4005.33" rx="50.89" ry="18"/>
<text text-anchor="start" x="5665.34" y="-4001.63" font-family="Times New Roman,serif" font-size="14.00">nikola tesla</text>
</g>
<!-- Entity48&#45;&gt;Entity82 -->
<g id="edge40" class="edge verb">
<title>Entity48&#45;&gt;Entity82</title>
<path fill="none" stroke="black" d="M5972.8,-3656.45C5925.53,-3716.09 5771.84,-3910.05 5716.46,-3979.94"/>
<polygon fill="black" stroke="black" points="5713.67,-3977.82 5710.21,-3987.83 5719.16,-3982.16 5713.67,-3977.82"/>
<text text-anchor="start" x="5803.63" y="-3821.99" font-family="Times New Roman,serif" font-size="14.00">studied</text>
</g>
<!-- Entity5 -->
<g id="node12" class="node entity">
<title>Entity5</title>
<ellipse fill="none" stroke="black" cx="3731.19" cy="-3653.67" rx="65.79" ry="18"/>
<text text-anchor="start" x="3688.69" y="-3649.97" font-family="Times New Roman,serif" font-size="14.00">arthur m young</text>
</g>
<!-- Entity5&#45;&gt;Entity8 -->
<g id="edge7" class="edge verb">
<title>Entity5&#45;&gt;Entity8</title>
<path fill="none" stroke="black" d="M3726.9,-3635.62C3709.53,-3562.49 3644.31,-3287.89 3623.17,-3198.87"/>
<polygon fill="black" stroke="black" points="3626.53,-3197.88 3620.81,-3188.96 3619.72,-3199.5 3626.53,-3197.88"/>
<text text-anchor="start" x="3613.03" y="-3421.05" font-family="Times New Roman,serif" font-size="14.00">member&#45;of</text>
</g>
<!-- Entity5&#45;&gt;Entity67 -->
<g id="edge18" class="edge verb">
<title>Entity5&#45;&gt;Entity67</title>
<path fill="none" stroke="black" d="M3796.37,-3656.28C3952.94,-3662.56 4350.32,-3678.49 4526.41,-3685.55"/>
<polygon fill="black" stroke="black" points="4526.28,-3689.05 4536.41,-3685.95 4526.56,-3682.05 4526.28,-3689.05"/>
<text text-anchor="start" x="4120.39" y="-3674.71" font-family="Times New Roman,serif" font-size="14.00">studied</text>
</g>
<!-- Entity72 -->
<g id="node28" class="node entity">
<title>Entity72</title>
<ellipse fill="none" stroke="black" cx="2967.34" cy="-3736.59" rx="53.89" ry="18"/>
<text text-anchor="start" x="2933.84" y="-3732.89" font-family="Times New Roman,serif" font-size="14.00">bell aviation</text>
</g>
<!-- Entity5&#45;&gt;Entity72 -->
<g id="edge24" class="edge verb">
<title>Entity5&#45;&gt;Entity72</title>
<path fill="none" stroke="black" d="M3669.97,-3660.31C3527.02,-3675.83 3172.5,-3714.32 3029.05,-3729.89"/>
<polygon fill="black" stroke="black" points="3028.66,-3726.41 3019.1,-3730.97 3029.42,-3733.37 3028.66,-3726.41"/>
<text text-anchor="start" x="3308.51" y="-3698.9" font-family="Times New Roman,serif" font-size="14.00">created</text>
</g>
<!-- Entity1 -->
<g id="node13" class="node entity">
<title>Entity1</title>
<ellipse fill="none" stroke="black" cx="3160.63" cy="-3426.87" rx="64.19" ry="18"/>
<text text-anchor="start" x="3119.13" y="-3423.17" font-family="Times New Roman,serif" font-size="14.00">andre puharich</text>
</g>
<!-- Entity1&#45;&gt;Entity2 -->
<g id="edge8" class="edge verb">
<title>Entity1&#45;&gt;Entity2</title>
<path fill="none" stroke="black" d="M3210.49,-3438.32C3296.64,-3458.12 3472.17,-3498.47 3556.07,-3517.75"/>
<polygon fill="black" stroke="black" points="3555.3,-3521.16 3565.83,-3519.99 3556.87,-3514.34 3555.3,-3521.16"/>
<text text-anchor="start" x="3323.28" y="-3481.83" font-family="Times New Roman,serif" font-size="14.00">sponsored</text>
</g>
<!-- Entity7 -->
<g id="node14" class="node entity">
<title>Entity7</title>
<ellipse fill="none" stroke="black" cx="4064.32" cy="-3761.66" rx="68.49" ry="18"/>
<text text-anchor="start" x="4019.82" y="-3757.96" font-family="Times New Roman,serif" font-size="14.00">jeffrey mishlove</text>
</g>
<!-- Entity7&#45;&gt;Entity2 -->
<g id="edge9" class="edge verb">
<title>Entity7&#45;&gt;Entity2</title>
<path fill="none" stroke="black" d="M4032.59,-3745.63C3949.66,-3703.74 3726.79,-3591.14 3638.99,-3546.79"/>
<polygon fill="black" stroke="black" points="3640.45,-3543.6 3629.95,-3542.22 3637.3,-3549.85 3640.45,-3543.6"/>
<text text-anchor="start" x="3835.79" y="-3650.01" font-family="Times New Roman,serif" font-size="14.00">promoted</text>
</g>
<!-- Entity7&#45;&gt;Entity67 -->
<g id="edge19" class="edge verb">
<title>Entity7&#45;&gt;Entity67</title>
<path fill="none" stroke="black" d="M4130.79,-3757.47C4235.79,-3746.46 4438.93,-3719.57 4544.79,-3702.69"/>
<polygon fill="black" stroke="black" points="4545.41,-3706.13 4554.73,-3701.09 4544.3,-3699.22 4545.41,-3706.13"/>
<text text-anchor="start" x="4296.79" y="-3733.88" font-family="Times New Roman,serif" font-size="14.00">studied</text>
</g>
<!-- Entity7&#45;&gt;Entity67 -->
<g id="edge26" class="edge verb">
<title>Entity7&#45;&gt;Entity67</title>
<path fill="none" stroke="black" d="M4117.84,-3750.3C4213.3,-3734.56 4413.62,-3707.75 4527.94,-3695.16"/>
<polygon fill="black" stroke="black" points="4528.49,-3698.62 4538.06,-3694.06 4527.74,-3691.66 4528.49,-3698.62"/>
<text text-anchor="start" x="4258.89" y="-3711.53" font-family="Times New Roman,serif" font-size="14.00">investigates</text>
</g>
<!-- Entity30 -->
<g id="node15" class="node entity">
<title>Entity30</title>
<ellipse fill="none" stroke="black" cx="2197.51" cy="-3794.86" rx="74.99" ry="18"/>
<text text-anchor="start" x="2148.01" y="-3791.16" font-family="Times New Roman,serif" font-size="14.00">walter dornberger</text>
</g>
<!-- Entity30&#45;&gt;Entity28 -->
<g id="edge11" class="edge verb">
<title>Entity30&#45;&gt;Entity28</title>
<path fill="none" stroke="black" d="M2135.15,-3804.88C2007.12,-3825.45 1717.61,-3871.98 1609.68,-3889.32"/>
<polygon fill="black" stroke="black" points="1608.84,-3885.91 1599.52,-3890.95 1609.95,-3892.82 1608.84,-3885.91"/>
<text text-anchor="start" x="1811.42" y="-3850.9" font-family="Times New Roman,serif" font-size="14.00">member of</text>
</g>
<!-- Entity30&#45;&gt;Entity72 -->
<g id="edge35" class="edge verb">
<title>Entity30&#45;&gt;Entity72</title>
<path fill="none" stroke="black" d="M2272.34,-3793.4C2424.83,-3785.4 2768.81,-3759.24 2907.6,-3744.96"/>
<polygon fill="black" stroke="black" points="2908.05,-3748.43 2917.63,-3743.91 2907.32,-3741.47 2908.05,-3748.43"/>
<text text-anchor="start" x="2510.97" y="-3772.98" font-family="Times New Roman,serif" font-size="14.00">vice&#45;president</text>
</g>
<!-- Entity30&#45;&gt;Entity72 -->
<g id="edge49" class="edge verb">
<title>Entity30&#45;&gt;Entity72</title>
<path fill="none" stroke="black" d="M2262.52,-3785.96C2408.04,-3771.21 2758.59,-3744.69 2903.25,-3737.5"/>
<polygon fill="black" stroke="black" points="2903.49,-3740.99 2913.31,-3737.01 2903.15,-3734 2903.49,-3740.99"/>
<text text-anchor="start" x="2526.88" y="-3750.53" font-family="Times New Roman,serif" font-size="14.00">worked at</text>
</g>
<!-- Entity76 -->
<g id="node35" class="node entity">
<title>Entity76</title>
<ellipse fill="none" stroke="black" cx="1582.41" cy="-3648.13" rx="90.98" ry="18"/>
<text text-anchor="start" x="1520.41" y="-3644.43" font-family="Times New Roman,serif" font-size="14.00">nsdap rocket program</text>
</g>
<!-- Entity30&#45;&gt;Entity76 -->
<g id="edge36" class="edge verb">
<title>Entity30&#45;&gt;Entity76</title>
<path fill="none" stroke="black" d="M2144.27,-3782.16C2032.6,-3755.52 1774.03,-3693.84 1650.5,-3664.38"/>
<polygon fill="black" stroke="black" points="1651.3,-3660.97 1640.76,-3662.05 1649.68,-3667.78 1651.3,-3660.97"/>
<text text-anchor="start" x="1856.38" y="-3727.07" font-family="Times New Roman,serif" font-size="14.00">created</text>
</g>
<!-- Entity104 -->
<g id="node55" class="node entity">
<title>Entity104</title>
<ellipse fill="none" stroke="black" cx="1809.29" cy="-3373.95" rx="65.79" ry="18"/>
<text text-anchor="start" x="1766.79" y="-3370.25" font-family="Times New Roman,serif" font-size="14.00">x series aircraft</text>
</g>
<!-- Entity30&#45;&gt;Entity104 -->
<g id="edge59" class="edge verb">
<title>Entity30&#45;&gt;Entity104</title>
<path fill="none" stroke="black" d="M2181.08,-3777.04C2119.69,-3710.48 1903.67,-3476.27 1832.34,-3398.94"/>
<polygon fill="black" stroke="black" points="1834.87,-3396.52 1825.52,-3391.54 1829.72,-3401.26 1834.87,-3396.52"/>
<text text-anchor="start" x="1965.71" y="-3591.79" font-family="Times New Roman,serif" font-size="14.00">created</text>
</g>
<!-- Entity32 -->
<g id="node16" class="node entity">
<title>Entity32</title>
<ellipse fill="none" stroke="black" cx="1804.82" cy="-4102.83" rx="46.29" ry="18"/>
<text text-anchor="start" x="1777.32" y="-4099.13" font-family="Times New Roman,serif" font-size="14.00">van braun</text>
</g>
<!-- Entity32&#45;&gt;Entity30 -->
<g id="edge12" class="edge verb">
<title>Entity32&#45;&gt;Entity30</title>
<path fill="none" stroke="black" d="M1825.38,-4086.7C1890.11,-4035.94 2089.98,-3879.19 2166.9,-3818.87"/>
<polygon fill="black" stroke="black" points="2169.52,-3821.26 2175.23,-3812.33 2165.2,-3815.75 2169.52,-3821.26"/>
<text text-anchor="start" x="1933.14" y="-3956.59" font-family="Times New Roman,serif" font-size="14.00">worked for</text>
</g>
<!-- Entity32&#45;&gt;Entity76 -->
<g id="edge48" class="edge verb">
<title>Entity32&#45;&gt;Entity76</title>
<path fill="none" stroke="black" d="M1796.1,-4085C1761.95,-4015.19 1637.16,-3760.07 1595.81,-3675.54"/>
<polygon fill="black" stroke="black" points="1598.84,-3673.77 1591.31,-3666.33 1592.56,-3676.85 1598.84,-3673.77"/>
<text text-anchor="start" x="1639.96" y="-3884.07" font-family="Times New Roman,serif" font-size="14.00">worked at</text>
</g>
<!-- Entity29 -->
<g id="node17" class="node entity">
<title>Entity29</title>
<ellipse fill="none" stroke="black" cx="5991.9" cy="-4576.31" rx="37.89" ry="18"/>
<text text-anchor="start" x="5970.9" y="-4572.61" font-family="Times New Roman,serif" font-size="14.00">hunt oil</text>
</g>
<!-- Entity36 -->
<g id="node18" class="node entity">
<title>Entity36</title>
<ellipse fill="none" stroke="black" cx="6082.48" cy="-4053.21" rx="77.99" ry="18"/>
<text text-anchor="start" x="6030.48" y="-4049.51" font-family="Times New Roman,serif" font-size="14.00">dwight eisenhower</text>
</g>
<!-- Entity29&#45;&gt;Entity36 -->
<g id="edge13" class="edge verb">
<title>Entity29&#45;&gt;Entity36</title>
<path fill="none" stroke="black" d="M5995.02,-4558.31C6008.42,-4480.9 6061.21,-4176.04 6077.6,-4081.39"/>
<polygon fill="black" stroke="black" points="6081.07,-4081.86 6079.33,-4071.41 6074.17,-4080.67 6081.07,-4081.86"/>
<text text-anchor="start" x="5996.31" y="-4323.65" font-family="Times New Roman,serif" font-size="14.00">funded</text>
</g>
<!-- Entity36&#45;&gt;Entity66 -->
<g id="edge34" class="edge verb">
<title>Entity36&#45;&gt;Entity66</title>
<path fill="none" stroke="black" d="M6092.67,-4035.07C6136.31,-3957.35 6307.58,-3652.39 6358.97,-3560.88"/>
<polygon fill="black" stroke="black" points="6362.12,-3562.41 6363.96,-3551.98 6356.01,-3558.99 6362.12,-3562.41"/>
<text text-anchor="start" x="6206.82" y="-3801.77" font-family="Times New Roman,serif" font-size="14.00">is a</text>
</g>
<!-- Entity11 -->
<g id="node19" class="node entity">
<title>Entity11</title>
<ellipse fill="none" stroke="black" cx="6485.75" cy="-4054.26" rx="56.59" ry="18"/>
<text text-anchor="start" x="6450.25" y="-4050.56" font-family="Times New Roman,serif" font-size="14.00">harry truman</text>
</g>
<!-- Entity11&#45;&gt;Entity66 -->
<g id="edge14" class="edge verb">
<title>Entity11&#45;&gt;Entity66</title>
<path fill="none" stroke="black" d="M6481.83,-4036.07C6465.12,-3958.69 6399.9,-3656.5 6379.65,-3562.7"/>
<polygon fill="black" stroke="black" points="6383.05,-3561.85 6377.52,-3552.81 6376.21,-3563.33 6383.05,-3561.85"/>
<text text-anchor="start" x="6414.74" y="-3803.19" font-family="Times New Roman,serif" font-size="14.00">isa</text>
</g>
<!-- Entity69 -->
<g id="node24" class="node entity">
<title>Entity69</title>
<ellipse fill="none" stroke="black" cx="6597.77" cy="-4564.37" rx="55.79" ry="18"/>
<text text-anchor="start" x="6562.77" y="-4560.67" font-family="Times New Roman,serif" font-size="14.00">freemasonry</text>
</g>
<!-- Entity11&#45;&gt;Entity69 -->
<g id="edge17" class="edge verb">
<title>Entity11&#45;&gt;Entity69</title>
<path fill="none" stroke="black" d="M6489.74,-4072.41C6506.49,-4148.72 6571.28,-4443.76 6591.62,-4536.38"/>
<polygon fill="black" stroke="black" points="6588.21,-4537.15 6593.77,-4546.17 6595.05,-4535.65 6588.21,-4537.15"/>
<text text-anchor="start" x="6479.68" y="-4308.2" font-family="Times New Roman,serif" font-size="14.00">member of</text>
</g>
<!-- Entity63 -->
<g id="node21" class="node entity">
<title>Entity63</title>
<ellipse fill="none" stroke="black" cx="7093.87" cy="-4441.81" rx="53.89" ry="18"/>
<text text-anchor="start" x="7060.37" y="-4438.11" font-family="Times New Roman,serif" font-size="14.00">edgar casey</text>
</g>
<!-- Entity59 -->
<g id="node22" class="node entity">
<title>Entity59</title>
<ellipse fill="none" stroke="black" cx="6825.53" cy="-3946.18" rx="71.49" ry="18"/>
<text text-anchor="start" x="6778.53" y="-3942.48" font-family="Times New Roman,serif" font-size="14.00">woodrow wilson</text>
</g>
<!-- Entity63&#45;&gt;Entity59 -->
<g id="edge15" class="edge verb">
<title>Entity63&#45;&gt;Entity59</title>
<path fill="none" stroke="black" d="M7084.16,-4423.88C7043.73,-4349.2 6888.57,-4062.61 6840.09,-3973.07"/>
<polygon fill="black" stroke="black" points="6843.07,-3971.22 6835.23,-3964.09 6836.91,-3974.55 6843.07,-3971.22"/>
<text text-anchor="start" x="6920.12" y="-4202.27" font-family="Times New Roman,serif" font-size="14.00">advises</text>
</g>
<!-- Entity59&#45;&gt;Entity66 -->
<g id="edge30" class="edge verb">
<title>Entity59&#45;&gt;Entity66</title>
<path fill="none" stroke="black" d="M6806.4,-3928.77C6734.29,-3863.12 6478.89,-3630.61 6398.23,-3557.18"/>
<polygon fill="black" stroke="black" points="6400.3,-3554.33 6390.55,-3550.19 6395.59,-3559.51 6400.3,-3554.33"/>
<text text-anchor="start" x="6586.31" y="-3746.77" font-family="Times New Roman,serif" font-size="14.00">isa</text>
</g>
<!-- Entity92 -->
<g id="node50" class="node entity">
<title>Entity92</title>
<ellipse fill="none" stroke="black" cx="7319.71" cy="-4328.87" rx="71.49" ry="18"/>
<text text-anchor="start" x="7272.71" y="-4325.17" font-family="Times New Roman,serif" font-size="14.00">leauge of nations</text>
</g>
<!-- Entity59&#45;&gt;Entity92 -->
<g id="edge54" class="edge verb">
<title>Entity59&#45;&gt;Entity92</title>
<path fill="none" stroke="black" d="M6847.72,-3963.37C6927.31,-4025 7198.49,-4234.99 7289.58,-4305.54"/>
<polygon fill="black" stroke="black" points="7287.53,-4308.37 7297.58,-4311.73 7291.82,-4302.84 7287.53,-4308.37"/>
<text text-anchor="start" x="7027.65" y="-4138.25" font-family="Times New Roman,serif" font-size="14.00">created</text>
</g>
<!-- Entity18 -->
<g id="node26" class="node entity">
<title>Entity18</title>
<ellipse fill="none" stroke="black" cx="6532.02" cy="-3820.93" rx="35.19" ry="18"/>
<text text-anchor="start" x="6513.02" y="-3817.23" font-family="Times New Roman,serif" font-size="14.00">obama</text>
</g>
<!-- Entity18&#45;&gt;Entity66 -->
<g id="edge21" class="edge verb">
<title>Entity18&#45;&gt;Entity66</title>
<path fill="none" stroke="black" d="M6522.35,-3803.46C6495.5,-3754.95 6419.92,-3618.41 6388.06,-3560.86"/>
<polygon fill="black" stroke="black" points="6391.07,-3559.07 6383.17,-3552.02 6384.95,-3562.46 6391.07,-3559.07"/>
<text text-anchor="start" x="6439.21" y="-3685.96" font-family="Times New Roman,serif" font-size="14.00">isa</text>
</g>
<!-- Entity12 -->
<g id="node27" class="node entity">
<title>Entity12</title>
<ellipse fill="none" stroke="black" cx="6456.56" cy="-3127.77" rx="58.49" ry="18"/>
<text text-anchor="start" x="6419.56" y="-3124.07" font-family="Times New Roman,serif" font-size="14.00">richard nixon</text>
</g>
<!-- Entity12&#45;&gt;Entity66 -->
<g id="edge22" class="edge verb">
<title>Entity12&#45;&gt;Entity66</title>
<path fill="none" stroke="black" d="M6452.89,-3145.78C6439.8,-3209.99 6395.38,-3428.01 6379.4,-3506.4"/>
<polygon fill="black" stroke="black" points="6375.91,-3506.01 6377.35,-3516.51 6382.77,-3507.41 6375.91,-3506.01"/>
<text text-anchor="start" x="6400.15" y="-3329.89" font-family="Times New Roman,serif" font-size="14.00">isa</text>
</g>
<!-- Entity24 -->
<g id="node29" class="node entity">
<title>Entity24</title>
<ellipse fill="none" stroke="black" cx="4517.27" cy="-3797.02" rx="63.89" ry="18"/>
<text text-anchor="start" x="4476.27" y="-3793.32" font-family="Times New Roman,serif" font-size="14.00">robert bigelow</text>
</g>
<!-- Entity24&#45;&gt;Entity7 -->
<g id="edge25" class="edge verb">
<title>Entity24&#45;&gt;Entity7</title>
<path fill="none" stroke="black" d="M4455.71,-3792.22C4373.61,-3785.81 4228.36,-3774.47 4139.76,-3767.55"/>
<polygon fill="black" stroke="black" points="4140.02,-3764.06 4129.78,-3766.77 4139.48,-3771.04 4140.02,-3764.06"/>
<text text-anchor="start" x="4265.74" y="-3783.68" font-family="Times New Roman,serif" font-size="14.00">funds</text>
</g>
<!-- Entity24&#45;&gt;Entity67 -->
<g id="edge45" class="edge verb">
<title>Entity24&#45;&gt;Entity67</title>
<path fill="none" stroke="black" d="M4533.02,-3779.19C4548.63,-3761.52 4572.68,-3734.29 4590.27,-3714.37"/>
<polygon fill="black" stroke="black" points="4592.9,-3716.68 4596.89,-3706.87 4587.65,-3712.05 4592.9,-3716.68"/>
<text text-anchor="start" x="4497.64" y="-3750.58" font-family="Times New Roman,serif" font-size="14.00">investigates</text>
</g>
<!-- Entity44 -->
<g id="node30" class="node entity">
<title>Entity44</title>
<ellipse fill="none" stroke="black" cx="7453.06" cy="-3286.03" rx="58.49" ry="18"/>
<text text-anchor="start" x="7416.06" y="-3282.33" font-family="Times New Roman,serif" font-size="14.00">steve bannon</text>
</g>
<!-- Entity44&#45;&gt;Entity15 -->
<g id="edge28" class="edge verb">
<title>Entity44&#45;&gt;Entity15</title>
<path fill="none" stroke="black" d="M7400.23,-3293.94C7263.2,-3319.97 6897.6,-3400.64 6761.11,-3434.95"/>
<polygon fill="black" stroke="black" points="6760.14,-3431.58 6751.3,-3437.43 6761.86,-3438.37 6760.14,-3431.58"/>
<text text-anchor="start" x="7025.67" y="-3368.24" font-family="Times New Roman,serif" font-size="14.00">promoted</text>
</g>
<!-- Entity44&#45;&gt;Entity15 -->
<g id="edge64" class="edge verb">
<title>Entity44&#45;&gt;Entity15</title>
<path fill="none" stroke="black" d="M7411.36,-3298.66C7287.41,-3330.44 6920.65,-3411.58 6772.2,-3440.33"/>
<polygon fill="black" stroke="black" points="6771.48,-3436.91 6762.32,-3442.23 6772.8,-3443.78 6771.48,-3436.91"/>
<text text-anchor="start" x="7091.78" y="-3373.29" font-family="Times New Roman,serif" font-size="14.00">advises</text>
</g>
<!-- Entity83 -->
<g id="node40" class="node entity">
<title>Entity83</title>
<ellipse fill="none" stroke="black" cx="7672.15" cy="-2743.38" rx="61.99" ry="18"/>
<text text-anchor="start" x="7632.65" y="-2739.68" font-family="Times New Roman,serif" font-size="14.00">breitbart news</text>
</g>
<!-- Entity44&#45;&gt;Entity83 -->
<g id="edge46" class="edge verb">
<title>Entity44&#45;&gt;Entity83</title>
<path fill="none" stroke="black" d="M7460.35,-3267.97C7492.55,-3188.22 7622.14,-2867.24 7661.05,-2770.87"/>
<polygon fill="black" stroke="black" points="7664.34,-2772.09 7664.83,-2761.51 7657.85,-2769.47 7664.34,-2772.09"/>
<text text-anchor="start" x="7519.7" y="-3023.22" font-family="Times New Roman,serif" font-size="14.00">created</text>
</g>
<!-- Entity89 -->
<g id="node49" class="node entity">
<title>Entity89</title>
<ellipse fill="none" stroke="black" cx="7920.16" cy="-3070.05" rx="35.19" ry="18"/>
<text text-anchor="start" x="7901.16" y="-3066.35" font-family="Times New Roman,serif" font-size="14.00">gurgev</text>
</g>
<!-- Entity44&#45;&gt;Entity89 -->
<g id="edge53" class="edge verb">
<title>Entity44&#45;&gt;Entity89</title>
<path fill="none" stroke="black" d="M7485.53,-3271.01C7570.08,-3231.92 7796.57,-3127.2 7884.53,-3086.53"/>
<polygon fill="black" stroke="black" points="7886.22,-3089.6 7893.83,-3082.23 7883.28,-3083.25 7886.22,-3089.6"/>
<text text-anchor="start" x="7685.03" y="-3182.57" font-family="Times New Roman,serif" font-size="14.00">studied</text>
</g>
<!-- Entity91 -->
<g id="node51" class="node entity">
<title>Entity91</title>
<ellipse fill="none" stroke="black" cx="7889.41" cy="-3420.29" rx="38.19" ry="18"/>
<text text-anchor="start" x="7867.91" y="-3416.59" font-family="Times New Roman,serif" font-size="14.00">us navy</text>
</g>
<!-- Entity44&#45;&gt;Entity91 -->
<g id="edge55" class="edge verb">
<title>Entity44&#45;&gt;Entity91</title>
<path fill="none" stroke="black" d="M7494.5,-3298.78C7577.7,-3324.38 7764.22,-3381.77 7847.67,-3407.45"/>
<polygon fill="black" stroke="black" points="7846.73,-3410.82 7857.32,-3410.42 7848.79,-3404.13 7846.73,-3410.82"/>
<text text-anchor="start" x="7610.09" y="-3356.91" font-family="Times New Roman,serif" font-size="14.00">member of</text>
</g>
<!-- Entity94 -->
<g id="node53" class="node entity">
<title>Entity94</title>
<ellipse fill="none" stroke="black" cx="7661.92" cy="-3177.98" rx="53.09" ry="18"/>
<text text-anchor="start" x="7628.92" y="-3174.28" font-family="Times New Roman,serif" font-size="14.00">biosphere 2</text>
</g>
<!-- Entity44&#45;&gt;Entity94 -->
<g id="edge57" class="edge verb">
<title>Entity44&#45;&gt;Entity94</title>
<path fill="none" stroke="black" d="M7482.98,-3270.55C7520.03,-3251.38 7583.17,-3218.72 7623.69,-3197.76"/>
<polygon fill="black" stroke="black" points="7625.45,-3200.79 7632.72,-3193.09 7622.23,-3194.57 7625.45,-3200.79"/>
<text text-anchor="start" x="7512.33" y="-3237.95" font-family="Times New Roman,serif" font-size="14.00">created</text>
</g>
<!-- Entity107 -->
<g id="node58" class="node entity">
<title>Entity107</title>
<ellipse fill="none" stroke="black" cx="8074.39" cy="-3291.7" rx="77.19" ry="18"/>
<text text-anchor="start" x="8022.89" y="-3288" font-family="Times New Roman,serif" font-size="14.00">hollywood movies</text>
</g>
<!-- Entity44&#45;&gt;Entity107 -->
<g id="edge61" class="edge verb">
<title>Entity44&#45;&gt;Entity107</title>
<path fill="none" stroke="black" d="M7511.79,-3286.56C7621.51,-3287.56 7858.08,-3289.72 7986.74,-3290.9"/>
<polygon fill="black" stroke="black" points="7986.92,-3294.4 7996.95,-3290.99 7986.99,-3287.4 7986.92,-3294.4"/>
<text text-anchor="start" x="7694.27" y="-3292.53" font-family="Times New Roman,serif" font-size="14.00">produced</text>
</g>
<!-- Entity111 -->
<g id="node59" class="node entity">
<title>Entity111</title>
<ellipse fill="none" stroke="black" cx="7901.58" cy="-3628.83" rx="64.99" ry="18"/>
<text text-anchor="start" x="7859.58" y="-3625.13" font-family="Times New Roman,serif" font-size="14.00">goldman sachs</text>
</g>
<!-- Entity44&#45;&gt;Entity111 -->
<g id="edge66" class="edge verb">
<title>Entity44&#45;&gt;Entity111</title>
<path fill="none" stroke="black" d="M7475,-3302.79C7548.54,-3359 7786.47,-3540.86 7871.24,-3605.64"/>
<polygon fill="black" stroke="black" points="7869.35,-3608.6 7879.42,-3611.89 7873.6,-3603.04 7869.35,-3608.6"/>
<text text-anchor="start" x="7610.12" y="-3458.02" font-family="Times New Roman,serif" font-size="14.00">worked for</text>
</g>
<!-- Entity33 -->
<g id="node32" class="node entity">
<title>Entity33</title>
<ellipse fill="none" stroke="black" cx="2512.86" cy="-3685.53" rx="57.69" ry="18"/>
<text text-anchor="start" x="2476.36" y="-3681.83" font-family="Times New Roman,serif" font-size="14.00">michael pane</text>
</g>
<!-- Entity33&#45;&gt;Entity30 -->
<g id="edge47" class="edge verb">
<title>Entity33&#45;&gt;Entity30</title>
<path fill="none" stroke="black" d="M2474.19,-3698.94C2417.91,-3718.45 2313.27,-3754.73 2250.05,-3776.64"/>
<polygon fill="black" stroke="black" points="2248.58,-3773.45 2240.28,-3780.03 2250.87,-3780.07 2248.58,-3773.45"/>
<text text-anchor="start" x="2299.12" y="-3741.59" font-family="Times New Roman,serif" font-size="14.00">worked for</text>
</g>
<!-- Entity33&#45;&gt;Entity72 -->
<g id="edge31" class="edge verb">
<title>Entity33&#45;&gt;Entity72</title>
<path fill="none" stroke="black" d="M2567.68,-3691.69C2653.04,-3701.28 2817.15,-3719.72 2906.22,-3729.72"/>
<polygon fill="black" stroke="black" points="2905.84,-3733.2 2916.17,-3730.84 2906.62,-3726.25 2905.84,-3733.2"/>
<text text-anchor="start" x="2680.95" y="-3714.51" font-family="Times New Roman,serif" font-size="14.00">worked at</text>
</g>
<!-- Entity45 -->
<g id="node33" class="node entity">
<title>Entity45</title>
<ellipse fill="none" stroke="black" cx="6532.72" cy="-2874.03" rx="67.69" ry="18"/>
<text text-anchor="start" x="6488.72" y="-2870.33" font-family="Times New Roman,serif" font-size="14.00">abraham lincoln</text>
</g>
<!-- Entity45&#45;&gt;Entity66 -->
<g id="edge32" class="edge verb">
<title>Entity45&#45;&gt;Entity66</title>
<path fill="none" stroke="black" d="M6528.38,-2892.05C6506.38,-2983.42 6407.14,-3395.58 6380.32,-3506.96"/>
<polygon fill="black" stroke="black" points="6376.9,-3506.24 6377.96,-3516.78 6383.7,-3507.87 6376.9,-3506.24"/>
<text text-anchor="start" x="6438.35" y="-3203.3" font-family="Times New Roman,serif" font-size="14.00">isa</text>
</g>
<!-- Entity38 -->
<g id="node34" class="node entity">
<title>Entity38</title>
<ellipse fill="none" stroke="black" cx="6744.67" cy="-2029.49" rx="90.98" ry="18"/>
<text text-anchor="start" x="6682.67" y="-2025.79" font-family="Times New Roman,serif" font-size="14.00">emma hardinge&#45;britten</text>
</g>
<!-- Entity38&#45;&gt;Entity45 -->
<g id="edge33" class="edge verb">
<title>Entity38&#45;&gt;Entity45</title>
<path fill="none" stroke="black" d="M6740.15,-2047.52C6713.1,-2155.28 6572.88,-2713.99 6539.74,-2846.04"/>
<polygon fill="black" stroke="black" points="6536.33,-2845.26 6537.29,-2855.81 6543.12,-2846.96 6536.33,-2845.26"/>
<text text-anchor="start" x="6540.95" y="-2450.58" font-family="Times New Roman,serif" font-size="14.00">spokesperson for</text>
</g>
<!-- Entity79 -->
<g id="node38" class="node entity">
<title>Entity79</title>
<ellipse fill="none" stroke="black" cx="6636.72" cy="-1497.79" rx="39.79" ry="18"/>
<text text-anchor="start" x="6614.22" y="-1494.09" font-family="Times New Roman,serif" font-size="14.00">medium</text>
</g>
<!-- Entity38&#45;&gt;Entity79 -->
<g id="edge38" class="edge verb">
<title>Entity38&#45;&gt;Entity79</title>
<path fill="none" stroke="black" d="M6741.02,-2011.49C6725.12,-1933.16 6661.84,-1621.5 6642.42,-1525.86"/>
<polygon fill="black" stroke="black" points="6645.8,-1524.89 6640.38,-1515.79 6638.94,-1526.28 6645.8,-1524.89"/>
<text text-anchor="start" x="6675.72" y="-1772.48" font-family="Times New Roman,serif" font-size="14.00">isa</text>
</g>
<!-- Entity86 -->
<g id="node48" class="node entity">
<title>Entity86</title>
<ellipse fill="none" stroke="black" cx="6958.95" cy="-1203.45" rx="85.29" ry="18"/>
<text text-anchor="start" x="6901.45" y="-1199.75" font-family="Times New Roman,serif" font-size="14.00">theosophical society</text>
</g>
<!-- Entity38&#45;&gt;Entity86 -->
<g id="edge65" class="edge verb">
<title>Entity38&#45;&gt;Entity86</title>
<path fill="none" stroke="black" d="M6749.35,-2011.47C6776.88,-1905.33 6917.84,-1361.93 6951.65,-1231.58"/>
<polygon fill="black" stroke="black" points="6955.12,-1232.14 6954.24,-1221.58 6948.35,-1230.38 6955.12,-1232.14"/>
<text text-anchor="start" x="6809.5" y="-1625.32" font-family="Times New Roman,serif" font-size="14.00">created</text>
</g>
<!-- Entity99 -->
<g id="node54" class="node entity">
<title>Entity99</title>
<ellipse fill="none" stroke="black" cx="7127.7" cy="-1570.79" rx="55.79" ry="18"/>
<text text-anchor="start" x="7092.7" y="-1567.09" font-family="Times New Roman,serif" font-size="14.00">orphic circle</text>
</g>
<!-- Entity38&#45;&gt;Entity99 -->
<g id="edge58" class="edge verb">
<title>Entity38&#45;&gt;Entity99</title>
<path fill="none" stroke="black" d="M6759.69,-2011.51C6818.99,-1940.5 7037.01,-1679.4 7106.36,-1596.34"/>
<polygon fill="black" stroke="black" points="7109.06,-1598.57 7112.79,-1588.65 7103.69,-1594.08 7109.06,-1598.57"/>
<text text-anchor="start" x="6872.03" y="-1807.72" font-family="Times New Roman,serif" font-size="14.00">member of</text>
</g>
<!-- Entity42 -->
<g id="node36" class="node entity">
<title>Entity42</title>
<ellipse fill="none" stroke="black" cx="4265.94" cy="-1637.66" rx="53.89" ry="18"/>
<text text-anchor="start" x="4232.44" y="-1633.96" font-family="Times New Roman,serif" font-size="14.00">black magic</text>
</g>
<!-- Entity81 -->
<g id="node37" class="node entity">
<title>Entity81</title>
<ellipse fill="none" stroke="black" cx="4353.66" cy="-1749.64" rx="28.7" ry="18"/>
<text text-anchor="start" x="4339.66" y="-1745.94" font-family="Times New Roman,serif" font-size="14.00">x left</text>
</g>
<!-- Entity42&#45;&gt;Entity81 -->
<g id="edge37" class="edge verb">
<title>Entity42&#45;&gt;Entity81</title>
<path fill="none" stroke="black" d="M4279.64,-1655.16C4294.45,-1674.05 4318.14,-1704.29 4334.72,-1725.45"/>
<polygon fill="black" stroke="black" points="4331.98,-1727.64 4340.9,-1733.36 4337.49,-1723.32 4331.98,-1727.64"/>
<text text-anchor="start" x="4246.18" y="-1694.11" font-family="Times New Roman,serif" font-size="14.00">member of</text>
</g>
<!-- Entity47 -->
<g id="node39" class="node entity">
<title>Entity47</title>
<ellipse fill="none" stroke="black" cx="7718.08" cy="-2635.37" rx="69.59" ry="18"/>
<text text-anchor="start" x="7672.58" y="-2631.67" font-family="Times New Roman,serif" font-size="14.00">andrew breitbart</text>
</g>
<!-- Entity47&#45;&gt;Entity83 -->
<g id="edge39" class="edge verb">
<title>Entity47&#45;&gt;Entity83</title>
<path fill="none" stroke="black" d="M7710.29,-2653.69C7703.02,-2670.79 7692.08,-2696.52 7683.78,-2716.04"/>
<polygon fill="black" stroke="black" points="7680.52,-2714.76 7679.83,-2725.33 7686.96,-2717.5 7680.52,-2714.76"/>
<text text-anchor="start" x="7656.03" y="-2688.66" font-family="Times New Roman,serif" font-size="14.00">created</text>
</g>
<!-- Entity35 -->
<g id="node42" class="node entity">
<title>Entity35</title>
<ellipse fill="none" stroke="black" cx="4899.94" cy="-1637.66" rx="39.79" ry="18"/>
<text text-anchor="start" x="4877.44" y="-1633.96" font-family="Times New Roman,serif" font-size="14.00">crowley</text>
</g>
<!-- Entity80 -->
<g id="node43" class="node entity">
<title>Entity80</title>
<ellipse fill="none" stroke="black" cx="4987.66" cy="-1749.64" rx="38.99" ry="18"/>
<text text-anchor="start" x="4965.66" y="-1745.94" font-family="Times New Roman,serif" font-size="14.00">x magic</text>
</g>
<!-- Entity35&#45;&gt;Entity80 -->
<g id="edge41" class="edge verb">
<title>Entity35&#45;&gt;Entity80</title>
<path fill="none" stroke="black" d="M4913.26,-1654.67C4927.82,-1673.25 4951.28,-1703.2 4967.96,-1724.49"/>
<polygon fill="black" stroke="black" points="4965.29,-1726.76 4974.21,-1732.47 4970.8,-1722.44 4965.29,-1726.76"/>
<text text-anchor="start" x="4879.61" y="-1693.38" font-family="Times New Roman,serif" font-size="14.00">member of</text>
</g>
<!-- Entity19 -->
<g id="node44" class="node entity">
<title>Entity19</title>
<ellipse fill="none" stroke="black" cx="5990.2" cy="-3409.23" rx="31.4" ry="18"/>
<text text-anchor="start" x="5974.2" y="-3405.53" font-family="Times New Roman,serif" font-size="14.00">carter</text>
</g>
<!-- Entity19&#45;&gt;Entity66 -->
<g id="edge44" class="edge verb">
<title>Entity19&#45;&gt;Entity66</title>
<path fill="none" stroke="black" d="M6017.47,-3418.16C6084.93,-3440.25 6259.71,-3497.48 6336.51,-3522.62"/>
<polygon fill="black" stroke="black" points="6335.65,-3526.02 6346.24,-3525.81 6337.82,-3519.37 6335.65,-3526.02"/>
<text text-anchor="start" x="6160.99" y="-3474.19" font-family="Times New Roman,serif" font-size="14.00">isa</text>
</g>
<!-- Entity19&#45;&gt;Entity90 -->
<g id="edge56" class="edge verb">
<title>Entity19&#45;&gt;Entity90</title>
<path fill="none" stroke="black" d="M5958.98,-3410.36C5890.59,-3412.82 5727.79,-3418.7 5653.99,-3421.36"/>
<polygon fill="black" stroke="black" points="5653.63,-3417.87 5643.77,-3421.73 5653.89,-3424.86 5653.63,-3417.87"/>
<text text-anchor="start" x="5751.48" y="-3419.66" font-family="Times New Roman,serif" font-size="14.00">witnessed</text>
</g>
<!-- Entity27 -->
<g id="node45" class="node entity">
<title>Entity27</title>
<ellipse fill="none" stroke="black" cx="75.84" cy="-4117.23" rx="75.29" ry="18"/>
<text text-anchor="start" x="25.84" y="-4113.53" font-family="Times New Roman,serif" font-size="14.00">lee harvey oswald</text>
</g>
<!-- Entity34 -->
<g id="node46" class="node entity">
<title>Entity34</title>
<ellipse fill="none" stroke="black" cx="633.64" cy="-4068.47" rx="59.29" ry="18"/>
<text text-anchor="start" x="596.14" y="-4064.77" font-family="Times New Roman,serif" font-size="14.00">guy bannister</text>
</g>
<!-- Entity27&#45;&gt;Entity34 -->
<g id="edge50" class="edge verb">
<title>Entity27&#45;&gt;Entity34</title>
<path fill="none" stroke="black" d="M146.77,-4111.03C255.11,-4101.56 460.37,-4083.61 566.43,-4074.34"/>
<polygon fill="black" stroke="black" points="567.04,-4077.8 576.69,-4073.45 566.43,-4070.83 567.04,-4077.8"/>
<text text-anchor="start" x="293.6" y="-4096.48" font-family="Times New Roman,serif" font-size="14.00">worked for</text>
</g>
<!-- Entity34&#45;&gt;Entity75 -->
<g id="edge51" class="edge verb">
<title>Entity34&#45;&gt;Entity75</title>
<path fill="none" stroke="black" d="M688.49,-4061.47C786.02,-4049.01 988.01,-4023.23 1080.44,-4011.43"/>
<polygon fill="black" stroke="black" points="1081.15,-4014.86 1090.62,-4010.13 1080.26,-4007.92 1081.15,-4014.86"/>
<text text-anchor="start" x="823.46" y="-4040.25" font-family="Times New Roman,serif" font-size="14.00">member of</text>
</g>
<!-- Entity64 -->
<g id="node47" class="node entity">
<title>Entity64</title>
<ellipse fill="none" stroke="black" cx="6852.36" cy="-570.59" rx="73.39" ry="18"/>
<text text-anchor="start" x="6803.86" y="-566.89" font-family="Times New Roman,serif" font-size="14.00">madam blavatsky</text>
</g>
<!-- Entity64&#45;&gt;Entity86 -->
<g id="edge52" class="edge verb">
<title>Entity64&#45;&gt;Entity86</title>
<path fill="none" stroke="black" d="M6855.43,-588.85C6870.43,-677.9 6935.93,-1066.78 6954.2,-1175.26"/>
<polygon fill="black" stroke="black" points="6950.8,-1176.14 6955.91,-1185.42 6957.7,-1174.97 6950.8,-1176.14"/>
<text text-anchor="start" x="6863.82" y="-885.85" font-family="Times New Roman,serif" font-size="14.00">created</text>
</g>
<!-- Entity60 -->
<g id="node56" class="node entity">
<title>Entity60</title>
<ellipse fill="none" stroke="black" cx="7248.43" cy="-614.95" rx="58.49" ry="18"/>
<text text-anchor="start" x="7211.43" y="-611.25" font-family="Times New Roman,serif" font-size="14.00">rudolf steiner</text>
</g>
<!-- Entity60&#45;&gt;Entity86 -->
<g id="edge63" class="edge verb">
<title>Entity60&#45;&gt;Entity86</title>
<path fill="none" stroke="black" d="M7239.61,-632.88C7198.12,-717.23 7022.32,-1074.62 6972.28,-1176.33"/>
<polygon fill="black" stroke="black" points="6969.12,-1174.84 6967.84,-1185.36 6975.4,-1177.93 6969.12,-1174.84"/>
<text text-anchor="start" x="7039.95" y="-908.41" font-family="Times New Roman,serif" font-size="14.00">memberr of</text>
</g>
<!-- Entity93 -->
<g id="node57" class="node entity">
<title>Entity93</title>
<ellipse fill="none" stroke="black" cx="7505.74" cy="-18.21" rx="102.08" ry="18"/>
<text text-anchor="start" x="7435.24" y="-14.51" font-family="Times New Roman,serif" font-size="14.00">anthroposophical society</text>
</g>
<!-- Entity60&#45;&gt;Entity93 -->
<g id="edge60" class="edge verb">
<title>Entity60&#45;&gt;Entity93</title>
<path fill="none" stroke="black" d="M7256.13,-597.09C7292.75,-512.17 7449.33,-149.04 7493.88,-45.73"/>
<polygon fill="black" stroke="black" points="7497.2,-46.86 7497.95,-36.29 7490.77,-44.09 7497.2,-46.86"/>
<text text-anchor="start" x="7334" y="-325.21" font-family="Times New Roman,serif" font-size="14.00">created</text>
</g>
<!-- Entity109 -->
<g id="node60" class="node entity">
<title>Entity109</title>
<ellipse fill="none" stroke="black" cx="4238.94" cy="-2285.66" rx="27" ry="18"/>
<text text-anchor="start" x="4235.44" y="-2281.96" font-family="Times New Roman,serif" font-size="14.00">s</text>
</g>
<!-- Entity112 -->
<g id="node61" class="node entity">
<title>Entity112</title>
<ellipse fill="none" stroke="black" cx="4326.66" cy="-2397.64" rx="27" ry="18"/>
<text text-anchor="start" x="4322.66" y="-2393.94" font-family="Times New Roman,serif" font-size="14.00">o</text>
</g>
<!-- Entity109&#45;&gt;Entity112 -->
<g id="edge67" class="edge verb">
<title>Entity109&#45;&gt;Entity112</title>
<path fill="none" stroke="black" d="M4251.51,-2301.7C4266.23,-2320.5 4290.76,-2351.82 4307.78,-2373.53"/>
<polygon fill="black" stroke="black" points="4305.19,-2375.91 4314.11,-2381.62 4310.7,-2371.59 4305.19,-2375.91"/>
<text text-anchor="start" x="4272.64" y="-2341.42" font-family="Times New Roman,serif" font-size="14.00">v</text>
</g>
</g>
</svg>
