<?xml version="1.0" encoding="UTF-8" standalone="no"?>
<?xml-stylesheet href="./styles.css" type="text/css"?>
<!DOCTYPE svg PUBLIC "-//W3C//DTD SVG 1.1//EN"
 "http://www.w3.org/Graphics/SVG/1.1/DTD/svg11.dtd">
<!-- Generated by graphviz version 2.47.3 (20210619.1520)
 -->
<!-- Title: G Pages: 1 -->
<svg width="7650pt" height="4702pt"
 viewBox="0.00 0.00 7650.00 4702.00" xmlns="http://www.w3.org/2000/svg" xmlns:xlink="http://www.w3.org/1999/xlink">
<g id="graph0" class="graph" transform="scale(1 1) rotate(0) translate(4 4698)">
<title>G</title>
<polygon fill="white" stroke="transparent" points="-4,4 -4,-4698 7646,-4698 7646,4 -4,4"/>
<!-- Entity3 -->
<g id="node1" class="node entity">
<title>Entity3</title>
<ellipse fill="none" stroke="black" cx="5140.16" cy="-2781.93" rx="27" ry="18"/>
<text text-anchor="start" x="5132.66" y="-2778.23" font-family="Times New Roman,serif" font-size="14.00">jfk</text>
</g>
<!-- Entity22 -->
<g id="node2" class="node entity">
<title>Entity22</title>
<ellipse fill="none" stroke="black" cx="4690.79" cy="-2741.33" rx="27" ry="18"/>
<text text-anchor="start" x="4682.79" y="-2737.63" font-family="Times New Roman,serif" font-size="14.00">cia</text>
</g>
<!-- Entity3&#45;&gt;Entity22 -->
<g id="edge1" class="edge verb">
<title>Entity3&#45;&gt;Entity22</title>
<path fill="none" stroke="black" d="M5113.4,-2779.51C5036.69,-2772.58 4815.9,-2752.63 4727.77,-2744.67"/>
<polygon fill="black" stroke="black" points="4727.97,-2741.17 4717.7,-2743.76 4727.34,-2748.14 4727.97,-2741.17"/>
<text text-anchor="start" x="4816.58" y="-2765.89" font-family="Times New Roman,serif" font-size="14.00">heads (1961&#45;1963)</text>
</g>
<!-- Entity66 -->
<g id="node20" class="node entity">
<title>Entity66</title>
<ellipse fill="none" stroke="black" cx="5617.95" cy="-2809.96" rx="31.4" ry="18"/>
<text text-anchor="start" x="5601.95" y="-2806.26" font-family="Times New Roman,serif" font-size="14.00">potus</text>
</g>
<!-- Entity3&#45;&gt;Entity66 -->
<g id="edge23" class="edge verb">
<title>Entity3&#45;&gt;Entity66</title>
<path fill="none" stroke="black" d="M5167.22,-2783.52C5246.85,-2788.19 5480.78,-2801.91 5576.45,-2807.52"/>
<polygon fill="black" stroke="black" points="5576.43,-2811.03 5586.61,-2808.12 5576.84,-2804.04 5576.43,-2811.03"/>
<text text-anchor="start" x="5284.84" y="-2799.32" font-family="Times New Roman,serif" font-size="14.00">isa (1961&#45;1963)</text>
</g>
<!-- Entity67 -->
<g id="node25" class="node entity">
<title>Entity67</title>
<ellipse fill="none" stroke="black" cx="3932.4" cy="-2842.37" rx="77.19" ry="18"/>
<text text-anchor="start" x="3880.9" y="-2838.67" font-family="Times New Roman,serif" font-size="14.00">psi&#45;consciousness</text>
</g>
<!-- Entity22&#45;&gt;Entity67 -->
<g id="edge43" class="edge verb">
<title>Entity22&#45;&gt;Entity67</title>
<path fill="none" stroke="black" d="M4664.24,-2744.86C4559.92,-2758.76 4175.71,-2809.95 4009.67,-2832.08"/>
<polygon fill="black" stroke="black" points="4008.99,-2828.64 3999.54,-2833.43 4009.91,-2835.57 4008.99,-2828.64"/>
<text text-anchor="start" x="4272.96" y="-2792.27" font-family="Times New Roman,serif" font-size="14.00">investigates</text>
</g>
<!-- Entity90 -->
<g id="node52" class="node entity">
<title>Entity90</title>
<ellipse fill="none" stroke="black" cx="4913.19" cy="-2973.01" rx="27" ry="18"/>
<text text-anchor="start" x="4903.69" y="-2969.31" font-family="Times New Roman,serif" font-size="14.00">ufo</text>
</g>
<!-- Entity22&#45;&gt;Entity90 -->
<g id="edge62" class="edge verb">
<title>Entity22&#45;&gt;Entity90</title>
<path fill="none" stroke="black" d="M4705.38,-2756.53C4743.55,-2796.29 4846.52,-2903.55 4891.58,-2950.49"/>
<polygon fill="black" stroke="black" points="4889.09,-2952.96 4898.54,-2957.75 4894.14,-2948.11 4889.09,-2952.96"/>
<text text-anchor="start" x="4734.48" y="-2857.31" font-family="Times New Roman,serif" font-size="14.00">investigates</text>
</g>
<!-- Entity14 -->
<g id="node3" class="node entity">
<title>Entity14</title>
<ellipse fill="none" stroke="black" cx="2238.55" cy="-2385.47" rx="74.99" ry="18"/>
<text text-anchor="start" x="2189.05" y="-2381.77" font-family="Times New Roman,serif" font-size="14.00">gene roddenberry</text>
</g>
<!-- Entity8 -->
<g id="node4" class="node entity">
<title>Entity8</title>
<ellipse fill="none" stroke="black" cx="2688.55" cy="-2601.72" rx="38.19" ry="18"/>
<text text-anchor="start" x="2667.05" y="-2598.02" font-family="Times New Roman,serif" font-size="14.00">the nine</text>
</g>
<!-- Entity14&#45;&gt;Entity8 -->
<g id="edge2" class="edge verb">
<title>Entity14&#45;&gt;Entity8</title>
<path fill="none" stroke="black" d="M2272.38,-2401.72C2355.14,-2441.49 2567.27,-2543.44 2652.4,-2584.35"/>
<polygon fill="black" stroke="black" points="2651.14,-2587.62 2661.66,-2588.8 2654.17,-2581.31 2651.14,-2587.62"/>
<text text-anchor="start" x="2358.39" y="-2496.83" font-family="Times New Roman,serif" font-size="14.00">claiemd to channel</text>
</g>
<!-- Entity70 -->
<g id="node23" class="node entity">
<title>Entity70</title>
<ellipse fill="none" stroke="black" cx="2363.59" cy="-2136.23" rx="94.48" ry="18"/>
<text text-anchor="start" x="2299.09" y="-2132.53" font-family="Times New Roman,serif" font-size="14.00">egyptian gods in a ship</text>
</g>
<!-- Entity8&#45;&gt;Entity70 -->
<g id="edge16" class="edge verb">
<title>Entity8&#45;&gt;Entity70</title>
<path fill="none" stroke="black" d="M2676.6,-2584.6C2627.55,-2514.34 2441.5,-2247.82 2382,-2162.6"/>
<polygon fill="black" stroke="black" points="2384.77,-2160.45 2376.17,-2154.25 2379.03,-2164.45 2384.77,-2160.45"/>
<text text-anchor="start" x="2425.3" y="-2377.4" font-family="Times New Roman,serif" font-size="14.00">claimed to channel</text>
</g>
<!-- Entity16 -->
<g id="node5" class="node entity">
<title>Entity16</title>
<ellipse fill="none" stroke="black" cx="5633.57" cy="-2701.85" rx="68.49" ry="18"/>
<text text-anchor="start" x="5589.07" y="-2698.15" font-family="Times New Roman,serif" font-size="14.00">george hw bush</text>
</g>
<!-- Entity20 -->
<g id="node6" class="node entity">
<title>Entity20</title>
<ellipse fill="none" stroke="black" cx="6029.48" cy="-2653.91" rx="63.89" ry="18"/>
<text text-anchor="start" x="5988.48" y="-2650.21" font-family="Times New Roman,serif" font-size="14.00">george w bush</text>
</g>
<!-- Entity16&#45;&gt;Entity20 -->
<g id="edge3" class="edge verb">
<title>Entity16&#45;&gt;Entity20</title>
<path fill="none" stroke="black" d="M5695.87,-2694.31C5767.83,-2685.6 5885.87,-2671.3 5960.53,-2662.26"/>
<polygon fill="black" stroke="black" points="5961.26,-2665.7 5970.77,-2661.02 5960.42,-2658.75 5961.26,-2665.7"/>
<text text-anchor="start" x="5796.2" y="-2682.08" font-family="Times New Roman,serif" font-size="14.00">father</text>
</g>
<!-- Entity16&#45;&gt;Entity66 -->
<g id="edge20" class="edge verb">
<title>Entity16&#45;&gt;Entity66</title>
<path fill="none" stroke="black" d="M5630.92,-2720.19C5628.48,-2737.06 5624.83,-2762.35 5622.02,-2781.78"/>
<polygon fill="black" stroke="black" points="5618.53,-2781.49 5620.56,-2791.89 5625.46,-2782.49 5618.53,-2781.49"/>
<text text-anchor="start" x="5610.47" y="-2754.79" font-family="Times New Roman,serif" font-size="14.00">isa</text>
</g>
<!-- Entity20&#45;&gt;Entity66 -->
<g id="edge42" class="edge verb">
<title>Entity20&#45;&gt;Entity66</title>
<path fill="none" stroke="black" d="M5991.13,-2668.45C5911.88,-2698.5 5731.03,-2767.08 5653.89,-2796.33"/>
<polygon fill="black" stroke="black" points="5652.25,-2793.21 5644.14,-2800.03 5654.74,-2799.75 5652.25,-2793.21"/>
<text text-anchor="start" x="5806.51" y="-2736.19" font-family="Times New Roman,serif" font-size="14.00">isa</text>
</g>
<!-- Entity2 -->
<g id="node7" class="node entity">
<title>Entity2</title>
<ellipse fill="none" stroke="black" cx="2799.84" cy="-2933.92" rx="41.69" ry="18"/>
<text text-anchor="start" x="2775.84" y="-2930.22" font-family="Times New Roman,serif" font-size="14.00">uri geller</text>
</g>
<!-- Entity2&#45;&gt;Entity8 -->
<g id="edge4" class="edge verb">
<title>Entity2&#45;&gt;Entity8</title>
<path fill="none" stroke="black" d="M2793.86,-2916.06C2775.52,-2861.31 2719.98,-2695.53 2697.83,-2629.4"/>
<polygon fill="black" stroke="black" points="2701.06,-2628.04 2694.57,-2619.67 2694.42,-2630.26 2701.06,-2628.04"/>
<text text-anchor="start" x="2641.84" y="-2776.53" font-family="Times New Roman,serif" font-size="14.00">claiemd to channel</text>
</g>
<!-- Entity26 -->
<g id="node8" class="node entity">
<title>Entity26</title>
<ellipse fill="none" stroke="black" cx="829.85" cy="-3988.01" rx="49.29" ry="18"/>
<text text-anchor="start" x="799.85" y="-3984.31" font-family="Times New Roman,serif" font-size="14.00">adolf hitler</text>
</g>
<!-- Entity28 -->
<g id="node9" class="node entity">
<title>Entity28</title>
<ellipse fill="none" stroke="black" cx="1226.83" cy="-3935.28" rx="32.49" ry="18"/>
<text text-anchor="start" x="1209.83" y="-3931.58" font-family="Times New Roman,serif" font-size="14.00">nsdap</text>
</g>
<!-- Entity26&#45;&gt;Entity28 -->
<g id="edge5" class="edge verb">
<title>Entity26&#45;&gt;Entity28</title>
<path fill="none" stroke="black" d="M876.56,-3981.81C954.66,-3971.43 1110.54,-3950.73 1185.16,-3940.81"/>
<polygon fill="black" stroke="black" points="1185.68,-3944.28 1195.13,-3939.49 1184.75,-3937.34 1185.68,-3944.28"/>
<text text-anchor="start" x="989.86" y="-3965.11" font-family="Times New Roman,serif" font-size="14.00">created</text>
</g>
<!-- Entity75 -->
<g id="node31" class="node entity">
<title>Entity75</title>
<ellipse fill="none" stroke="black" cx="860.77" cy="-4209.71" rx="38.99" ry="18"/>
<text text-anchor="start" x="838.77" y="-4206.01" font-family="Times New Roman,serif" font-size="14.00">far right</text>
</g>
<!-- Entity28&#45;&gt;Entity75 -->
<g id="edge29" class="edge verb">
<title>Entity28&#45;&gt;Entity75</title>
<path fill="none" stroke="black" d="M1207.41,-3949.84C1146.9,-3995.2 961.56,-4134.15 889.68,-4188.04"/>
<polygon fill="black" stroke="black" points="887.39,-4185.37 881.49,-4194.17 891.59,-4190.98 887.39,-4185.37"/>
<text text-anchor="start" x="987.54" y="-4072.74" font-family="Times New Roman,serif" font-size="14.00">member of</text>
</g>
<!-- Entity15 -->
<g id="node10" class="node entity">
<title>Entity15</title>
<ellipse fill="none" stroke="black" cx="5849.07" cy="-2295.53" rx="59.59" ry="18"/>
<text text-anchor="start" x="5811.07" y="-2291.83" font-family="Times New Roman,serif" font-size="14.00">donald trump</text>
</g>
<!-- Entity48 -->
<g id="node11" class="node entity">
<title>Entity48</title>
<ellipse fill="none" stroke="black" cx="5183.53" cy="-2478.63" rx="50.09" ry="18"/>
<text text-anchor="start" x="5153.03" y="-2474.93" font-family="Times New Roman,serif" font-size="14.00">john trump</text>
</g>
<!-- Entity15&#45;&gt;Entity48 -->
<g id="edge6" class="edge verb">
<title>Entity15&#45;&gt;Entity48</title>
<path fill="none" stroke="black" d="M5804.89,-2307.68C5685.74,-2340.46 5358.4,-2430.52 5233.16,-2464.98"/>
<polygon fill="black" stroke="black" points="5232.15,-2461.62 5223.43,-2467.65 5234,-2468.37 5232.15,-2461.62"/>
<text text-anchor="start" x="5460.02" y="-2390.13" font-family="Times New Roman,serif" font-size="14.00">nephew of</text>
</g>
<!-- Entity15&#45;&gt;Entity66 -->
<g id="edge27" class="edge verb">
<title>Entity15&#45;&gt;Entity66</title>
<path fill="none" stroke="black" d="M5840.98,-2313.53C5806.45,-2390.4 5671.26,-2691.3 5629.99,-2783.17"/>
<polygon fill="black" stroke="black" points="5626.76,-2781.8 5625.86,-2792.36 5633.15,-2784.67 5626.76,-2781.8"/>
<text text-anchor="start" x="5719.48" y="-2552.15" font-family="Times New Roman,serif" font-size="14.00">isa</text>
</g>
<!-- Entity48&#45;&gt;Entity22 -->
<g id="edge10" class="edge verb">
<title>Entity48&#45;&gt;Entity22</title>
<path fill="none" stroke="black" d="M5155.27,-2493.7C5069.04,-2539.67 4809.84,-2677.86 4721.03,-2725.2"/>
<polygon fill="black" stroke="black" points="4719.19,-2722.22 4712.01,-2730.01 4722.49,-2728.39 4719.19,-2722.22"/>
<text text-anchor="start" x="4877.15" y="-2613.25" font-family="Times New Roman,serif" font-size="14.00">member of</text>
</g>
<!-- Entity82 -->
<g id="node41" class="node entity">
<title>Entity82</title>
<ellipse fill="none" stroke="black" cx="4883.35" cy="-2151.53" rx="50.89" ry="18"/>
<text text-anchor="start" x="4852.35" y="-2147.83" font-family="Times New Roman,serif" font-size="14.00">nikola tesla</text>
</g>
<!-- Entity48&#45;&gt;Entity82 -->
<g id="edge40" class="edge verb">
<title>Entity48&#45;&gt;Entity82</title>
<path fill="none" stroke="black" d="M5167.81,-2461.51C5118.18,-2407.43 4964.64,-2240.12 4906.23,-2176.47"/>
<polygon fill="black" stroke="black" points="4908.61,-2173.89 4899.27,-2168.89 4903.45,-2178.62 4908.61,-2173.89"/>
<text text-anchor="start" x="4996.02" y="-2322.79" font-family="Times New Roman,serif" font-size="14.00">studied</text>
</g>
<!-- Entity5 -->
<g id="node12" class="node entity">
<title>Entity5</title>
<ellipse fill="none" stroke="black" cx="3094.26" cy="-2905.13" rx="56.59" ry="18"/>
<text text-anchor="start" x="3058.76" y="-2901.43" font-family="Times New Roman,serif" font-size="14.00">arthur young</text>
</g>
<!-- Entity5&#45;&gt;Entity8 -->
<g id="edge7" class="edge verb">
<title>Entity5&#45;&gt;Entity8</title>
<path fill="none" stroke="black" d="M3071.87,-2888.38C3003.09,-2836.95 2794.88,-2681.23 2717.72,-2623.54"/>
<polygon fill="black" stroke="black" points="2719.51,-2620.5 2709.4,-2617.31 2715.32,-2626.1 2719.51,-2620.5"/>
<text text-anchor="start" x="2832.8" y="-2759.76" font-family="Times New Roman,serif" font-size="14.00">member&#45;of</text>
</g>
<!-- Entity5&#45;&gt;Entity67 -->
<g id="edge18" class="edge verb">
<title>Entity5&#45;&gt;Entity67</title>
<path fill="none" stroke="black" d="M3149.58,-2900.99C3292.97,-2890.25 3677.41,-2861.46 3848.4,-2848.66"/>
<polygon fill="black" stroke="black" points="3848.9,-2852.13 3858.61,-2847.9 3848.38,-2845.15 3848.9,-2852.13"/>
<text text-anchor="start" x="3457.99" y="-2878.62" font-family="Times New Roman,serif" font-size="14.00">studied</text>
</g>
<!-- Entity72 -->
<g id="node28" class="node entity">
<title>Entity72</title>
<ellipse fill="none" stroke="black" cx="2460.28" cy="-3264.18" rx="53.89" ry="18"/>
<text text-anchor="start" x="2426.78" y="-3260.48" font-family="Times New Roman,serif" font-size="14.00">bell aviation</text>
</g>
<!-- Entity5&#45;&gt;Entity72 -->
<g id="edge24" class="edge verb">
<title>Entity5&#45;&gt;Entity72</title>
<path fill="none" stroke="black" d="M3066.2,-2921.02C2964.01,-2978.9 2611.7,-3178.43 2496.82,-3243.49"/>
<polygon fill="black" stroke="black" points="2495,-3240.5 2488.02,-3248.47 2498.45,-3246.59 2495,-3240.5"/>
<text text-anchor="start" x="2740.51" y="-3086.05" font-family="Times New Roman,serif" font-size="14.00">created</text>
</g>
<!-- Entity1 -->
<g id="node13" class="node entity">
<title>Entity1</title>
<ellipse fill="none" stroke="black" cx="2341.18" cy="-2895.24" rx="64.19" ry="18"/>
<text text-anchor="start" x="2299.68" y="-2891.54" font-family="Times New Roman,serif" font-size="14.00">andre puharich</text>
</g>
<!-- Entity1&#45;&gt;Entity2 -->
<g id="edge8" class="edge verb">
<title>Entity1&#45;&gt;Entity2</title>
<path fill="none" stroke="black" d="M2403.03,-2900.46C2494.46,-2908.17 2663.98,-2922.47 2748.77,-2929.62"/>
<polygon fill="black" stroke="black" points="2748.67,-2933.12 2758.92,-2930.47 2749.25,-2926.14 2748.67,-2933.12"/>
<text text-anchor="start" x="2515.9" y="-2918.84" font-family="Times New Roman,serif" font-size="14.00">sponsored</text>
</g>
<!-- Entity7 -->
<g id="node14" class="node entity">
<title>Entity7</title>
<ellipse fill="none" stroke="black" cx="3340.8" cy="-3013.08" rx="68.49" ry="18"/>
<text text-anchor="start" x="3296.3" y="-3009.38" font-family="Times New Roman,serif" font-size="14.00">jeffrey mishlove</text>
</g>
<!-- Entity7&#45;&gt;Entity2 -->
<g id="edge9" class="edge verb">
<title>Entity7&#45;&gt;Entity2</title>
<path fill="none" stroke="black" d="M3281.1,-3004.34C3173.62,-2988.62 2949.47,-2955.82 2849.65,-2941.21"/>
<polygon fill="black" stroke="black" points="2849.94,-2937.71 2839.53,-2939.73 2848.92,-2944.64 2849.94,-2937.71"/>
<text text-anchor="start" x="3010.38" y="-2976.58" font-family="Times New Roman,serif" font-size="14.00">promoted</text>
</g>
<!-- Entity7&#45;&gt;Entity67 -->
<g id="edge19" class="edge verb">
<title>Entity7&#45;&gt;Entity67</title>
<path fill="none" stroke="black" d="M3394.42,-3001.82C3508.11,-2972.78 3771.93,-2896.64 3882.37,-2860.97"/>
<polygon fill="black" stroke="black" points="3883.52,-2864.28 3891.95,-2857.86 3881.35,-2857.62 3883.52,-2864.28"/>
<text text-anchor="start" x="3597.4" y="-2935.2" font-family="Times New Roman,serif" font-size="14.00">studied</text>
</g>
<!-- Entity7&#45;&gt;Entity67 -->
<g id="edge26" class="edge verb">
<title>Entity7&#45;&gt;Entity67</title>
<path fill="none" stroke="black" d="M3379.54,-2998.16C3478.34,-2965.59 3740.66,-2889.6 3865.1,-2857.16"/>
<polygon fill="black" stroke="black" points="3866.1,-2860.52 3874.9,-2854.63 3864.34,-2853.74 3866.1,-2860.52"/>
<text text-anchor="start" x="3558.32" y="-2916.46" font-family="Times New Roman,serif" font-size="14.00">investigates</text>
</g>
<!-- Entity30 -->
<g id="node15" class="node entity">
<title>Entity30</title>
<ellipse fill="none" stroke="black" cx="1763.09" cy="-3575.78" rx="74.99" ry="18"/>
<text text-anchor="start" x="1713.59" y="-3572.08" font-family="Times New Roman,serif" font-size="14.00">walter dornberger</text>
</g>
<!-- Entity30&#45;&gt;Entity28 -->
<g id="edge11" class="edge verb">
<title>Entity30&#45;&gt;Entity28</title>
<path fill="none" stroke="black" d="M1737.58,-3592.88C1648.46,-3652.63 1351.18,-3851.92 1256.24,-3915.56"/>
<polygon fill="black" stroke="black" points="1254.06,-3912.81 1247.7,-3921.29 1257.96,-3918.63 1254.06,-3912.81"/>
<text text-anchor="start" x="1435.91" y="-3758.02" font-family="Times New Roman,serif" font-size="14.00">member of</text>
</g>
<!-- Entity30&#45;&gt;Entity72 -->
<g id="edge35" class="edge verb">
<title>Entity30&#45;&gt;Entity72</title>
<path fill="none" stroke="black" d="M1804.96,-3560.76C1930.89,-3509.44 2304.65,-3342.37 2423.54,-3284.2"/>
<polygon fill="black" stroke="black" points="2425.21,-3287.28 2432.63,-3279.72 2422.12,-3281 2425.21,-3287.28"/>
<text text-anchor="start" x="2035.25" y="-3426.28" font-family="Times New Roman,serif" font-size="14.00">vice&#45;president</text>
</g>
<!-- Entity30&#45;&gt;Entity72 -->
<g id="edge49" class="edge verb">
<title>Entity30&#45;&gt;Entity72</title>
<path fill="none" stroke="black" d="M1793.17,-3559.04C1902.63,-3504.87 2280.07,-3335.97 2413.29,-3281.29"/>
<polygon fill="black" stroke="black" points="2414.89,-3284.42 2422.82,-3277.41 2412.24,-3277.94 2414.89,-3284.42"/>
<text text-anchor="start" x="2047.23" y="-3408.97" font-family="Times New Roman,serif" font-size="14.00">worked at</text>
</g>
<!-- Entity76 -->
<g id="node35" class="node entity">
<title>Entity76</title>
<ellipse fill="none" stroke="black" cx="1151.63" cy="-3572.05" rx="90.98" ry="18"/>
<text text-anchor="start" x="1089.63" y="-3568.35" font-family="Times New Roman,serif" font-size="14.00">nsdap rocket program</text>
</g>
<!-- Entity30&#45;&gt;Entity76 -->
<g id="edge36" class="edge verb">
<title>Entity30&#45;&gt;Entity76</title>
<path fill="none" stroke="black" d="M1688.11,-3575.32C1578.77,-3574.66 1375.29,-3573.42 1252.79,-3572.67"/>
<polygon fill="black" stroke="black" points="1252.67,-3569.17 1242.65,-3572.61 1252.63,-3576.17 1252.67,-3569.17"/>
<text text-anchor="start" x="1429.45" y="-3577.8" font-family="Times New Roman,serif" font-size="14.00">created</text>
</g>
<!-- Entity104 -->
<g id="node55" class="node entity">
<title>Entity104</title>
<ellipse fill="none" stroke="black" cx="1262.52" cy="-3279.82" rx="65.79" ry="18"/>
<text text-anchor="start" x="1220.02" y="-3276.12" font-family="Times New Roman,serif" font-size="14.00">x series aircraft</text>
</g>
<!-- Entity30&#45;&gt;Entity104 -->
<g id="edge59" class="edge verb">
<title>Entity30&#45;&gt;Entity104</title>
<path fill="none" stroke="black" d="M1734.74,-3559.02C1649.29,-3508.5 1394.24,-3357.7 1298.96,-3301.37"/>
<polygon fill="black" stroke="black" points="1300.64,-3298.3 1290.25,-3296.22 1297.07,-3304.32 1300.64,-3298.3"/>
<text text-anchor="start" x="1475.85" y="-3434" font-family="Times New Roman,serif" font-size="14.00">created</text>
</g>
<!-- Entity32 -->
<g id="node16" class="node entity">
<title>Entity32</title>
<ellipse fill="none" stroke="black" cx="1349.69" cy="-3680.04" rx="46.29" ry="18"/>
<text text-anchor="start" x="1322.19" y="-3676.34" font-family="Times New Roman,serif" font-size="14.00">van braun</text>
</g>
<!-- Entity32&#45;&gt;Entity30 -->
<g id="edge12" class="edge verb">
<title>Entity32&#45;&gt;Entity30</title>
<path fill="none" stroke="black" d="M1388.58,-3670.23C1460.5,-3652.09 1614.82,-3613.17 1701.23,-3591.38"/>
<polygon fill="black" stroke="black" points="1702.33,-3594.72 1711.17,-3588.88 1700.62,-3587.93 1702.33,-3594.72"/>
<text text-anchor="start" x="1481.91" y="-3634.61" font-family="Times New Roman,serif" font-size="14.00">worked for</text>
</g>
<!-- Entity32&#45;&gt;Entity76 -->
<g id="edge48" class="edge verb">
<title>Entity32&#45;&gt;Entity76</title>
<path fill="none" stroke="black" d="M1322.56,-3665.25C1288.82,-3646.85 1230.92,-3615.28 1191.97,-3594.05"/>
<polygon fill="black" stroke="black" points="1193.45,-3590.86 1182.99,-3589.15 1190.1,-3597.01 1193.45,-3590.86"/>
<text text-anchor="start" x="1201.27" y="-3633.45" font-family="Times New Roman,serif" font-size="14.00">worked at</text>
</g>
<!-- Entity29 -->
<g id="node17" class="node entity">
<title>Entity29</title>
<ellipse fill="none" stroke="black" cx="5881.34" cy="-3905.14" rx="37.89" ry="18"/>
<text text-anchor="start" x="5860.34" y="-3901.44" font-family="Times New Roman,serif" font-size="14.00">hunt oil</text>
</g>
<!-- Entity36 -->
<g id="node18" class="node entity">
<title>Entity36</title>
<ellipse fill="none" stroke="black" cx="5744.47" cy="-3386.25" rx="77.99" ry="18"/>
<text text-anchor="start" x="5692.47" y="-3382.55" font-family="Times New Roman,serif" font-size="14.00">dwight eisenhower</text>
</g>
<!-- Entity29&#45;&gt;Entity36 -->
<g id="edge13" class="edge verb">
<title>Entity29&#45;&gt;Entity36</title>
<path fill="none" stroke="black" d="M5876.63,-3887.28C5856.38,-3810.49 5776.6,-3508.08 5751.84,-3414.2"/>
<polygon fill="black" stroke="black" points="5755.16,-3413.08 5749.23,-3404.3 5748.39,-3414.86 5755.16,-3413.08"/>
<text text-anchor="start" x="5774.24" y="-3654.54" font-family="Times New Roman,serif" font-size="14.00">funded</text>
</g>
<!-- Entity36&#45;&gt;Entity66 -->
<g id="edge34" class="edge verb">
<title>Entity36&#45;&gt;Entity66</title>
<path fill="none" stroke="black" d="M5740.47,-3368.05C5722.17,-3284.7 5646.32,-2939.17 5624.1,-2837.94"/>
<polygon fill="black" stroke="black" points="5627.45,-2836.89 5621.89,-2827.87 5620.61,-2838.39 5627.45,-2836.89"/>
<text text-anchor="start" x="5663.28" y="-3106.8" font-family="Times New Roman,serif" font-size="14.00">is a</text>
</g>
<!-- Entity11 -->
<g id="node19" class="node entity">
<title>Entity11</title>
<ellipse fill="none" stroke="black" cx="6103.95" cy="-2904.34" rx="56.59" ry="18"/>
<text text-anchor="start" x="6068.45" y="-2900.64" font-family="Times New Roman,serif" font-size="14.00">harry truman</text>
</g>
<!-- Entity11&#45;&gt;Entity66 -->
<g id="edge14" class="edge verb">
<title>Entity11&#45;&gt;Entity66</title>
<path fill="none" stroke="black" d="M6055.58,-2894.94C5959.5,-2876.28 5746.29,-2834.88 5657.72,-2817.68"/>
<polygon fill="black" stroke="black" points="5658.29,-2814.22 5647.81,-2815.75 5656.95,-2821.1 5658.29,-2814.22"/>
<text text-anchor="start" x="5840.65" y="-2860.11" font-family="Times New Roman,serif" font-size="14.00">isa</text>
</g>
<!-- Entity69 -->
<g id="node24" class="node entity">
<title>Entity69</title>
<ellipse fill="none" stroke="black" cx="6613.3" cy="-3046.16" rx="55.79" ry="18"/>
<text text-anchor="start" x="6578.3" y="-3042.46" font-family="Times New Roman,serif" font-size="14.00">freemasonry</text>
</g>
<!-- Entity11&#45;&gt;Entity69 -->
<g id="edge17" class="edge verb">
<title>Entity11&#45;&gt;Entity69</title>
<path fill="none" stroke="black" d="M6146.94,-2916.31C6240.13,-2942.25 6460.48,-3003.6 6561.3,-3031.68"/>
<polygon fill="black" stroke="black" points="6560.4,-3035.06 6570.97,-3034.37 6562.28,-3028.32 6560.4,-3035.06"/>
<text text-anchor="start" x="6293.12" y="-2977.79" font-family="Times New Roman,serif" font-size="14.00">member of</text>
</g>
<!-- Entity63 -->
<g id="node21" class="node entity">
<title>Entity63</title>
<ellipse fill="none" stroke="black" cx="6586.47" cy="-3477.16" rx="53.89" ry="18"/>
<text text-anchor="start" x="6552.97" y="-3473.46" font-family="Times New Roman,serif" font-size="14.00">edgar casey</text>
</g>
<!-- Entity59 -->
<g id="node22" class="node entity">
<title>Entity59</title>
<ellipse fill="none" stroke="black" cx="6158.56" cy="-3090.36" rx="71.49" ry="18"/>
<text text-anchor="start" x="6111.56" y="-3086.66" font-family="Times New Roman,serif" font-size="14.00">woodrow wilson</text>
</g>
<!-- Entity63&#45;&gt;Entity59 -->
<g id="edge15" class="edge verb">
<title>Entity63&#45;&gt;Entity59</title>
<path fill="none" stroke="black" d="M6567.53,-3460.04C6499.2,-3398.27 6265.16,-3186.72 6185.42,-3114.64"/>
<polygon fill="black" stroke="black" points="6187.53,-3111.83 6177.77,-3107.72 6182.84,-3117.02 6187.53,-3111.83"/>
<text text-anchor="start" x="6334.48" y="-3291.14" font-family="Times New Roman,serif" font-size="14.00">advises</text>
</g>
<!-- Entity59&#45;&gt;Entity66 -->
<g id="edge30" class="edge verb">
<title>Entity59&#45;&gt;Entity66</title>
<path fill="none" stroke="black" d="M6127.16,-3074.07C6031.85,-3024.64 5746.57,-2876.67 5650.18,-2826.67"/>
<polygon fill="black" stroke="black" points="5651.68,-2823.51 5641.19,-2822.01 5648.46,-2829.72 5651.68,-2823.51"/>
<text text-anchor="start" x="5872.67" y="-2954.17" font-family="Times New Roman,serif" font-size="14.00">isa</text>
</g>
<!-- Entity92 -->
<g id="node50" class="node entity">
<title>Entity92</title>
<ellipse fill="none" stroke="black" cx="6206.16" cy="-3198.4" rx="71.49" ry="18"/>
<text text-anchor="start" x="6159.16" y="-3194.7" font-family="Times New Roman,serif" font-size="14.00">leauge of nations</text>
</g>
<!-- Entity59&#45;&gt;Entity92 -->
<g id="edge54" class="edge verb">
<title>Entity59&#45;&gt;Entity92</title>
<path fill="none" stroke="black" d="M6166.64,-3108.69C6174.17,-3125.79 6185.51,-3151.52 6194.11,-3171.05"/>
<polygon fill="black" stroke="black" points="6190.97,-3172.6 6198.2,-3180.34 6197.38,-3169.78 6190.97,-3172.6"/>
<text text-anchor="start" x="6139.37" y="-3143.67" font-family="Times New Roman,serif" font-size="14.00">created</text>
</g>
<!-- Entity18 -->
<g id="node26" class="node entity">
<title>Entity18</title>
<ellipse fill="none" stroke="black" cx="5546.32" cy="-3164.33" rx="35.19" ry="18"/>
<text text-anchor="start" x="5527.32" y="-3160.63" font-family="Times New Roman,serif" font-size="14.00">obama</text>
</g>
<!-- Entity18&#45;&gt;Entity66 -->
<g id="edge21" class="edge verb">
<title>Entity18&#45;&gt;Entity66</title>
<path fill="none" stroke="black" d="M5549.97,-3146.27C5561.66,-3088.45 5598.21,-2907.61 5612.32,-2837.82"/>
<polygon fill="black" stroke="black" points="5615.76,-2838.48 5614.31,-2827.98 5608.9,-2837.09 5615.76,-2838.48"/>
<text text-anchor="start" x="5565.14" y="-2995.84" font-family="Times New Roman,serif" font-size="14.00">isa</text>
</g>
<!-- Entity12 -->
<g id="node27" class="node entity">
<title>Entity12</title>
<ellipse fill="none" stroke="black" cx="5768.63" cy="-3056.3" rx="58.49" ry="18"/>
<text text-anchor="start" x="5731.63" y="-3052.6" font-family="Times New Roman,serif" font-size="14.00">richard nixon</text>
</g>
<!-- Entity12&#45;&gt;Entity66 -->
<g id="edge22" class="edge verb">
<title>Entity12&#45;&gt;Entity66</title>
<path fill="none" stroke="black" d="M5757.79,-3038.58C5731.56,-2995.69 5664.53,-2886.1 5633.79,-2835.85"/>
<polygon fill="black" stroke="black" points="5636.69,-2833.89 5628.49,-2827.18 5630.72,-2837.54 5636.69,-2833.89"/>
<text text-anchor="start" x="5679.79" y="-2941.01" font-family="Times New Roman,serif" font-size="14.00">isa</text>
</g>
<!-- Entity24 -->
<g id="node29" class="node entity">
<title>Entity24</title>
<ellipse fill="none" stroke="black" cx="3828.24" cy="-2950.44" rx="63.89" ry="18"/>
<text text-anchor="start" x="3787.24" y="-2946.74" font-family="Times New Roman,serif" font-size="14.00">robert bigelow</text>
</g>
<!-- Entity24&#45;&gt;Entity7 -->
<g id="edge25" class="edge verb">
<title>Entity24&#45;&gt;Entity7</title>
<path fill="none" stroke="black" d="M3769.93,-2957.93C3680.36,-2969.44 3509.14,-2991.45 3412.24,-3003.9"/>
<polygon fill="black" stroke="black" points="3411.72,-3000.44 3402.24,-3005.18 3412.61,-3007.38 3411.72,-3000.44"/>
<text text-anchor="start" x="3559.09" y="-2984.71" font-family="Times New Roman,serif" font-size="14.00">funds</text>
</g>
<!-- Entity24&#45;&gt;Entity67 -->
<g id="edge45" class="edge verb">
<title>Entity24&#45;&gt;Entity67</title>
<path fill="none" stroke="black" d="M3845.44,-2932.59C3862.56,-2914.84 3888.97,-2887.43 3908.19,-2867.49"/>
<polygon fill="black" stroke="black" points="3910.76,-2869.87 3915.18,-2860.24 3905.72,-2865.01 3910.76,-2869.87"/>
<text text-anchor="start" x="3812.82" y="-2903.84" font-family="Times New Roman,serif" font-size="14.00">investigates</text>
</g>
<!-- Entity44 -->
<g id="node30" class="node entity">
<title>Entity44</title>
<ellipse fill="none" stroke="black" cx="6500.67" cy="-1860.21" rx="58.49" ry="18"/>
<text text-anchor="start" x="6463.67" y="-1856.51" font-family="Times New Roman,serif" font-size="14.00">steve bannon</text>
</g>
<!-- Entity44&#45;&gt;Entity15 -->
<g id="edge28" class="edge verb">
<title>Entity44&#45;&gt;Entity15</title>
<path fill="none" stroke="black" d="M6471.88,-1875.94C6364.13,-1941.84 5985.57,-2194.68 5877.84,-2272.61"/>
<polygon fill="black" stroke="black" points="5875.72,-2269.83 5869.7,-2278.55 5879.84,-2275.49 5875.72,-2269.83"/>
<text text-anchor="start" x="6119.86" y="-2078.08" font-family="Times New Roman,serif" font-size="14.00">promoted</text>
</g>
<!-- Entity44&#45;&gt;Entity15 -->
<g id="edge64" class="edge verb">
<title>Entity44&#45;&gt;Entity15</title>
<path fill="none" stroke="black" d="M6480.09,-1877.15C6387.36,-1945.4 6008.05,-2199.07 5886.62,-2274.4"/>
<polygon fill="black" stroke="black" points="5884.68,-2271.49 5878,-2279.71 5888.35,-2277.44 5884.68,-2271.49"/>
<text text-anchor="start" x="6183.36" y="-2079.57" font-family="Times New Roman,serif" font-size="14.00">advises</text>
</g>
<!-- Entity83 -->
<g id="node40" class="node entity">
<title>Entity83</title>
<ellipse fill="none" stroke="black" cx="7055.72" cy="-1571.95" rx="61.99" ry="18"/>
<text text-anchor="start" x="7016.22" y="-1568.25" font-family="Times New Roman,serif" font-size="14.00">breitbart news</text>
</g>
<!-- Entity44&#45;&gt;Entity83 -->
<g id="edge46" class="edge verb">
<title>Entity44&#45;&gt;Entity83</title>
<path fill="none" stroke="black" d="M6530.51,-1844.71C6623.95,-1796.18 6910.94,-1647.14 7016.35,-1592.39"/>
<polygon fill="black" stroke="black" points="7018.13,-1595.41 7025.39,-1587.7 7014.9,-1589.2 7018.13,-1595.41"/>
<text text-anchor="start" x="6732.43" y="-1722.35" font-family="Times New Roman,serif" font-size="14.00">created</text>
</g>
<!-- Entity89 -->
<g id="node49" class="node entity">
<title>Entity89</title>
<ellipse fill="none" stroke="black" cx="6765.14" cy="-1502.57" rx="35.19" ry="18"/>
<text text-anchor="start" x="6746.14" y="-1498.87" font-family="Times New Roman,serif" font-size="14.00">gurgev</text>
</g>
<!-- Entity44&#45;&gt;Entity89 -->
<g id="edge53" class="edge verb">
<title>Entity44&#45;&gt;Entity89</title>
<path fill="none" stroke="black" d="M6513.79,-1842.47C6557.17,-1783.81 6696.12,-1595.91 6746.59,-1527.65"/>
<polygon fill="black" stroke="black" points="6749.44,-1529.69 6752.57,-1519.57 6743.81,-1525.53 6749.44,-1529.69"/>
<text text-anchor="start" x="6589.19" y="-1688.86" font-family="Times New Roman,serif" font-size="14.00">studied</text>
</g>
<!-- Entity91 -->
<g id="node51" class="node entity">
<title>Entity91</title>
<ellipse fill="none" stroke="black" cx="6945.58" cy="-1792.8" rx="38.19" ry="18"/>
<text text-anchor="start" x="6924.08" y="-1789.1" font-family="Times New Roman,serif" font-size="14.00">us navy</text>
</g>
<!-- Entity44&#45;&gt;Entity91 -->
<g id="edge55" class="edge verb">
<title>Entity44&#45;&gt;Entity91</title>
<path fill="none" stroke="black" d="M6553.46,-1852.21C6641.18,-1838.92 6815.57,-1812.5 6899,-1799.85"/>
<polygon fill="black" stroke="black" points="6899.59,-1803.3 6908.95,-1798.35 6898.54,-1796.38 6899.59,-1803.3"/>
<text text-anchor="start" x="6665.23" y="-1829.83" font-family="Times New Roman,serif" font-size="14.00">member of</text>
</g>
<!-- Entity94 -->
<g id="node53" class="node entity">
<title>Entity94</title>
<ellipse fill="none" stroke="black" cx="6635.63" cy="-1359.07" rx="53.09" ry="18"/>
<text text-anchor="start" x="6602.63" y="-1355.37" font-family="Times New Roman,serif" font-size="14.00">biosphere 2</text>
</g>
<!-- Entity44&#45;&gt;Entity94 -->
<g id="edge57" class="edge verb">
<title>Entity44&#45;&gt;Entity94</title>
<path fill="none" stroke="black" d="M6505.55,-1842.08C6525.83,-1766.8 6603.45,-1478.55 6628.08,-1387.09"/>
<polygon fill="black" stroke="black" points="6631.53,-1387.75 6630.75,-1377.18 6624.77,-1385.93 6631.53,-1387.75"/>
<text text-anchor="start" x="6525.82" y="-1618.38" font-family="Times New Roman,serif" font-size="14.00">created</text>
</g>
<!-- Entity107 -->
<g id="node58" class="node entity">
<title>Entity107</title>
<ellipse fill="none" stroke="black" cx="7095.83" cy="-1962.27" rx="77.19" ry="18"/>
<text text-anchor="start" x="7044.33" y="-1958.57" font-family="Times New Roman,serif" font-size="14.00">hollywood movies</text>
</g>
<!-- Entity44&#45;&gt;Entity107 -->
<g id="edge61" class="edge verb">
<title>Entity44&#45;&gt;Entity107</title>
<path fill="none" stroke="black" d="M6551.93,-1869C6657.93,-1887.17 6901.49,-1928.94 7023.47,-1949.86"/>
<polygon fill="black" stroke="black" points="7023.01,-1953.33 7033.46,-1951.57 7024.19,-1946.43 7023.01,-1953.33"/>
<text text-anchor="start" x="6732.7" y="-1913.23" font-family="Times New Roman,serif" font-size="14.00">produced</text>
</g>
<!-- Entity111 -->
<g id="node59" class="node entity">
<title>Entity111</title>
<ellipse fill="none" stroke="black" cx="6544.71" cy="-1752.14" rx="64.99" ry="18"/>
<text text-anchor="start" x="6502.71" y="-1748.44" font-family="Times New Roman,serif" font-size="14.00">goldman sachs</text>
</g>
<!-- Entity44&#45;&gt;Entity111 -->
<g id="edge66" class="edge verb">
<title>Entity44&#45;&gt;Entity111</title>
<path fill="none" stroke="black" d="M6508.14,-1841.88C6515.11,-1824.77 6525.6,-1799.03 6533.56,-1779.5"/>
<polygon fill="black" stroke="black" points="6536.82,-1780.78 6537.35,-1770.2 6530.33,-1778.14 6536.82,-1780.78"/>
<text text-anchor="start" x="6457.85" y="-1814.49" font-family="Times New Roman,serif" font-size="14.00">worked for</text>
</g>
<!-- Entity33 -->
<g id="node32" class="node entity">
<title>Entity33</title>
<ellipse fill="none" stroke="black" cx="2213.74" cy="-3671.23" rx="57.69" ry="18"/>
<text text-anchor="start" x="2177.24" y="-3667.53" font-family="Times New Roman,serif" font-size="14.00">michael pane</text>
</g>
<!-- Entity33&#45;&gt;Entity30 -->
<g id="edge47" class="edge verb">
<title>Entity33&#45;&gt;Entity30</title>
<path fill="none" stroke="black" d="M2165.52,-3661.02C2084.54,-3643.87 1921.12,-3609.25 1829.4,-3589.83"/>
<polygon fill="black" stroke="black" points="1829.9,-3586.36 1819.4,-3587.71 1828.45,-3593.2 1829.9,-3586.36"/>
<text text-anchor="start" x="1934.46" y="-3629.22" font-family="Times New Roman,serif" font-size="14.00">worked for</text>
</g>
<!-- Entity33&#45;&gt;Entity72 -->
<g id="edge31" class="edge verb">
<title>Entity33&#45;&gt;Entity72</title>
<path fill="none" stroke="black" d="M2224.5,-3653.48C2263.5,-3589.08 2397.72,-3367.48 2444.25,-3290.66"/>
<polygon fill="black" stroke="black" points="2447.29,-3292.39 2449.48,-3282.03 2441.3,-3288.77 2447.29,-3292.39"/>
<text text-anchor="start" x="2278.37" y="-3475.87" font-family="Times New Roman,serif" font-size="14.00">worked at</text>
</g>
<!-- Entity45 -->
<g id="node33" class="node entity">
<title>Entity45</title>
<ellipse fill="none" stroke="black" cx="5426.84" cy="-2192.8" rx="67.69" ry="18"/>
<text text-anchor="start" x="5382.84" y="-2189.1" font-family="Times New Roman,serif" font-size="14.00">abraham lincoln</text>
</g>
<!-- Entity45&#45;&gt;Entity66 -->
<g id="edge32" class="edge verb">
<title>Entity45&#45;&gt;Entity66</title>
<path fill="none" stroke="black" d="M5432.45,-2210.93C5459.54,-2298.41 5576.74,-2676.88 5609.45,-2782.49"/>
<polygon fill="black" stroke="black" points="5606.13,-2783.6 5612.43,-2792.12 5612.81,-2781.53 5606.13,-2783.6"/>
<text text-anchor="start" x="5504.95" y="-2500.51" font-family="Times New Roman,serif" font-size="14.00">isa</text>
</g>
<!-- Entity38 -->
<g id="node34" class="node entity">
<title>Entity38</title>
<ellipse fill="none" stroke="black" cx="5133.09" cy="-1403.22" rx="90.98" ry="18"/>
<text text-anchor="start" x="5071.09" y="-1399.52" font-family="Times New Roman,serif" font-size="14.00">emma hardinge&#45;britten</text>
</g>
<!-- Entity38&#45;&gt;Entity45 -->
<g id="edge33" class="edge verb">
<title>Entity38&#45;&gt;Entity45</title>
<path fill="none" stroke="black" d="M5139.78,-1421.2C5178.12,-1524.24 5369.88,-2039.68 5416.57,-2165.21"/>
<polygon fill="black" stroke="black" points="5413.39,-2166.7 5420.16,-2174.85 5419.96,-2164.26 5413.39,-2166.7"/>
<text text-anchor="start" x="5179.18" y="-1797" font-family="Times New Roman,serif" font-size="14.00">spokesperson for</text>
</g>
<!-- Entity79 -->
<g id="node38" class="node entity">
<title>Entity79</title>
<ellipse fill="none" stroke="black" cx="5282.58" cy="-860.97" rx="39.79" ry="18"/>
<text text-anchor="start" x="5260.08" y="-857.27" font-family="Times New Roman,serif" font-size="14.00">medium</text>
</g>
<!-- Entity38&#45;&gt;Entity79 -->
<g id="edge38" class="edge verb">
<title>Entity38&#45;&gt;Entity79</title>
<path fill="none" stroke="black" d="M5138.07,-1385.18C5160.01,-1305.57 5248.28,-985.39 5274.92,-888.74"/>
<polygon fill="black" stroke="black" points="5278.3,-889.65 5277.58,-879.08 5271.55,-887.79 5278.3,-889.65"/>
<text text-anchor="start" x="5190.5" y="-1140.76" font-family="Times New Roman,serif" font-size="14.00">isa</text>
</g>
<!-- Entity86 -->
<g id="node48" class="node entity">
<title>Entity86</title>
<ellipse fill="none" stroke="black" cx="4857.56" cy="-672.57" rx="85.29" ry="18"/>
<text text-anchor="start" x="4800.06" y="-668.87" font-family="Times New Roman,serif" font-size="14.00">theosophical society</text>
</g>
<!-- Entity38&#45;&gt;Entity86 -->
<g id="edge65" class="edge verb">
<title>Entity38&#45;&gt;Entity86</title>
<path fill="none" stroke="black" d="M5126.28,-1385.16C5089.32,-1287.15 4912.85,-819.17 4867.96,-700.15"/>
<polygon fill="black" stroke="black" points="4871.19,-698.78 4864.38,-690.65 4864.64,-701.25 4871.19,-698.78"/>
<text text-anchor="start" x="4956.12" y="-1046.46" font-family="Times New Roman,serif" font-size="14.00">created</text>
</g>
<!-- Entity99 -->
<g id="node54" class="node entity">
<title>Entity99</title>
<ellipse fill="none" stroke="black" cx="5026.1" cy="-1295.21" rx="55.79" ry="18"/>
<text text-anchor="start" x="4991.1" y="-1291.51" font-family="Times New Roman,serif" font-size="14.00">orphic circle</text>
</g>
<!-- Entity38&#45;&gt;Entity99 -->
<g id="edge58" class="edge verb">
<title>Entity38&#45;&gt;Entity99</title>
<path fill="none" stroke="black" d="M5115.43,-1385.39C5097.64,-1367.43 5070.06,-1339.59 5050.26,-1319.6"/>
<polygon fill="black" stroke="black" points="5052.61,-1317 5043.08,-1312.35 5047.63,-1321.92 5052.61,-1317"/>
<text text-anchor="start" x="5021.84" y="-1356.29" font-family="Times New Roman,serif" font-size="14.00">member of</text>
</g>
<!-- Entity42 -->
<g id="node36" class="node entity">
<title>Entity42</title>
<ellipse fill="none" stroke="black" cx="3857.94" cy="-2236.66" rx="53.89" ry="18"/>
<text text-anchor="start" x="3824.44" y="-2232.96" font-family="Times New Roman,serif" font-size="14.00">black magic</text>
</g>
<!-- Entity81 -->
<g id="node37" class="node entity">
<title>Entity81</title>
<ellipse fill="none" stroke="black" cx="3945.66" cy="-2348.64" rx="28.7" ry="18"/>
<text text-anchor="start" x="3931.66" y="-2344.94" font-family="Times New Roman,serif" font-size="14.00">x left</text>
</g>
<!-- Entity42&#45;&gt;Entity81 -->
<g id="edge37" class="edge verb">
<title>Entity42&#45;&gt;Entity81</title>
<path fill="none" stroke="black" d="M3871.64,-2254.16C3886.45,-2273.05 3910.14,-2303.29 3926.72,-2324.45"/>
<polygon fill="black" stroke="black" points="3923.98,-2326.64 3932.9,-2332.36 3929.49,-2322.32 3923.98,-2326.64"/>
<text text-anchor="start" x="3838.18" y="-2293.11" font-family="Times New Roman,serif" font-size="14.00">member of</text>
</g>
<!-- Entity47 -->
<g id="node39" class="node entity">
<title>Entity47</title>
<ellipse fill="none" stroke="black" cx="7572.93" cy="-1309.37" rx="69.59" ry="18"/>
<text text-anchor="start" x="7527.43" y="-1305.67" font-family="Times New Roman,serif" font-size="14.00">andrew breitbart</text>
</g>
<!-- Entity47&#45;&gt;Entity83 -->
<g id="edge39" class="edge verb">
<title>Entity47&#45;&gt;Entity83</title>
<path fill="none" stroke="black" d="M7540.97,-1325.6C7450.82,-1371.37 7194.7,-1501.39 7095.58,-1551.71"/>
<polygon fill="black" stroke="black" points="7093.82,-1548.68 7086.48,-1556.33 7096.99,-1554.92 7093.82,-1548.68"/>
<text text-anchor="start" x="7277.27" y="-1442.46" font-family="Times New Roman,serif" font-size="14.00">created</text>
</g>
<!-- Entity35 -->
<g id="node42" class="node entity">
<title>Entity35</title>
<ellipse fill="none" stroke="black" cx="3843.94" cy="-1602.66" rx="39.79" ry="18"/>
<text text-anchor="start" x="3821.44" y="-1598.96" font-family="Times New Roman,serif" font-size="14.00">crowley</text>
</g>
<!-- Entity80 -->
<g id="node43" class="node entity">
<title>Entity80</title>
<ellipse fill="none" stroke="black" cx="3931.66" cy="-1714.64" rx="38.99" ry="18"/>
<text text-anchor="start" x="3909.66" y="-1710.94" font-family="Times New Roman,serif" font-size="14.00">x magic</text>
</g>
<!-- Entity35&#45;&gt;Entity80 -->
<g id="edge41" class="edge verb">
<title>Entity35&#45;&gt;Entity80</title>
<path fill="none" stroke="black" d="M3857.26,-1619.67C3871.82,-1638.25 3895.28,-1668.2 3911.96,-1689.49"/>
<polygon fill="black" stroke="black" points="3909.29,-1691.76 3918.21,-1697.47 3914.8,-1687.44 3909.29,-1691.76"/>
<text text-anchor="start" x="3823.61" y="-1658.38" font-family="Times New Roman,serif" font-size="14.00">member of</text>
</g>
<!-- Entity19 -->
<g id="node44" class="node entity">
<title>Entity19</title>
<ellipse fill="none" stroke="black" cx="5265.8" cy="-2974.15" rx="31.4" ry="18"/>
<text text-anchor="start" x="5249.8" y="-2970.45" font-family="Times New Roman,serif" font-size="14.00">carter</text>
</g>
<!-- Entity19&#45;&gt;Entity66 -->
<g id="edge44" class="edge verb">
<title>Entity19&#45;&gt;Entity66</title>
<path fill="none" stroke="black" d="M5290.28,-2962.73C5351.96,-2933.98 5513.8,-2858.52 5584.31,-2825.64"/>
<polygon fill="black" stroke="black" points="5586.05,-2828.69 5593.63,-2821.3 5583.09,-2822.35 5586.05,-2828.69"/>
<text text-anchor="start" x="5421.3" y="-2897.99" font-family="Times New Roman,serif" font-size="14.00">isa</text>
</g>
<!-- Entity19&#45;&gt;Entity90 -->
<g id="edge56" class="edge verb">
<title>Entity19&#45;&gt;Entity90</title>
<path fill="none" stroke="black" d="M5234.51,-2974.05C5169.58,-2973.84 5020.46,-2973.35 4950.59,-2973.13"/>
<polygon fill="black" stroke="black" points="4950.49,-2969.63 4940.48,-2973.1 4950.47,-2976.63 4950.49,-2969.63"/>
<text text-anchor="start" x="5037.55" y="-2977.39" font-family="Times New Roman,serif" font-size="14.00">witnessed</text>
</g>
<!-- Entity27 -->
<g id="node45" class="node entity">
<title>Entity27</title>
<ellipse fill="none" stroke="black" cx="36.46" cy="-4675.77" rx="36.29" ry="18"/>
<text text-anchor="start" x="16.46" y="-4672.07" font-family="Times New Roman,serif" font-size="14.00">oswald</text>
</g>
<!-- Entity34 -->
<g id="node46" class="node entity">
<title>Entity34</title>
<ellipse fill="none" stroke="black" cx="425.38" cy="-4463.76" rx="59.29" ry="18"/>
<text text-anchor="start" x="387.88" y="-4460.06" font-family="Times New Roman,serif" font-size="14.00">guy bannister</text>
</g>
<!-- Entity27&#45;&gt;Entity34 -->
<g id="edge50" class="edge verb">
<title>Entity27&#45;&gt;Entity34</title>
<path fill="none" stroke="black" d="M61.09,-4662.35C127.03,-4626.4 308,-4527.75 387.3,-4484.52"/>
<polygon fill="black" stroke="black" points="389.35,-4487.39 396.45,-4479.53 386,-4481.24 389.35,-4487.39"/>
<text text-anchor="start" x="161.19" y="-4577.23" font-family="Times New Roman,serif" font-size="14.00">worked for</text>
</g>
<!-- Entity34&#45;&gt;Entity75 -->
<g id="edge51" class="edge verb">
<title>Entity34&#45;&gt;Entity75</title>
<path fill="none" stroke="black" d="M452.94,-4447.68C529.52,-4403 744.62,-4277.48 827.57,-4229.08"/>
<polygon fill="black" stroke="black" points="829.45,-4232.04 836.32,-4223.97 825.92,-4225.99 829.45,-4232.04"/>
<text text-anchor="start" x="579.25" y="-4342.18" font-family="Times New Roman,serif" font-size="14.00">member of</text>
</g>
<!-- Entity64 -->
<g id="node47" class="node entity">
<title>Entity64</title>
<ellipse fill="none" stroke="black" cx="4833.34" cy="-18.02" rx="73.39" ry="18"/>
<text text-anchor="start" x="4784.84" y="-14.32" font-family="Times New Roman,serif" font-size="14.00">madam blavatsky</text>
</g>
<!-- Entity64&#45;&gt;Entity86 -->
<g id="edge52" class="edge verb">
<title>Entity64&#45;&gt;Entity86</title>
<path fill="none" stroke="black" d="M4834.02,-36.21C4837.38,-127.23 4852.41,-533.24 4856.52,-644.37"/>
<polygon fill="black" stroke="black" points="4853.03,-644.6 4856.89,-654.47 4860.02,-644.35 4853.03,-644.6"/>
<text text-anchor="start" x="4804.27" y="-344.09" font-family="Times New Roman,serif" font-size="14.00">created</text>
</g>
<!-- Entity60 -->
<g id="node56" class="node entity">
<title>Entity60</title>
<ellipse fill="none" stroke="black" cx="4299.02" cy="-757.13" rx="58.49" ry="18"/>
<text text-anchor="start" x="4262.02" y="-753.43" font-family="Times New Roman,serif" font-size="14.00">rudolf steiner</text>
</g>
<!-- Entity60&#45;&gt;Entity86 -->
<g id="edge63" class="edge verb">
<title>Entity60&#45;&gt;Entity86</title>
<path fill="none" stroke="black" d="M4351.57,-749.17C4449.89,-734.29 4662.2,-702.15 4778.1,-684.6"/>
<polygon fill="black" stroke="black" points="4778.96,-688.01 4788.33,-683.05 4777.92,-681.09 4778.96,-688.01"/>
<text text-anchor="start" x="4498.83" y="-720.68" font-family="Times New Roman,serif" font-size="14.00">memberr of</text>
</g>
<!-- Entity93 -->
<g id="node57" class="node entity">
<title>Entity93</title>
<ellipse fill="none" stroke="black" cx="4061.31" cy="-649.13" rx="102.08" ry="18"/>
<text text-anchor="start" x="3990.81" y="-645.43" font-family="Times New Roman,serif" font-size="14.00">anthroposophical society</text>
</g>
<!-- Entity60&#45;&gt;Entity93 -->
<g id="edge60" class="edge verb">
<title>Entity60&#45;&gt;Entity93</title>
<path fill="none" stroke="black" d="M4265.97,-742.11C4224.79,-723.4 4154.2,-691.33 4107.64,-670.18"/>
<polygon fill="black" stroke="black" points="4108.93,-666.92 4098.38,-665.97 4106.04,-673.29 4108.93,-666.92"/>
<text text-anchor="start" x="4145.8" y="-709.94" font-family="Times New Roman,serif" font-size="14.00">created</text>
</g>
<!-- Entity109 -->
<g id="node60" class="node entity">
<title>Entity109</title>
<ellipse fill="none" stroke="black" cx="3196.94" cy="-2236.66" rx="27" ry="18"/>
<text text-anchor="start" x="3193.44" y="-2232.96" font-family="Times New Roman,serif" font-size="14.00">s</text>
</g>
<!-- Entity112 -->
<g id="node61" class="node entity">
<title>Entity112</title>
<ellipse fill="none" stroke="black" cx="3284.66" cy="-2348.64" rx="27" ry="18"/>
<text text-anchor="start" x="3280.66" y="-2344.94" font-family="Times New Roman,serif" font-size="14.00">o</text>
</g>
<!-- Entity109&#45;&gt;Entity112 -->
<g id="edge67" class="edge verb">
<title>Entity109&#45;&gt;Entity112</title>
<path fill="none" stroke="black" d="M3209.51,-2252.7C3224.23,-2271.5 3248.76,-2302.82 3265.78,-2324.53"/>
<polygon fill="black" stroke="black" points="3263.19,-2326.91 3272.11,-2332.62 3268.7,-2322.59 3263.19,-2326.91"/>
<text text-anchor="start" x="3230.64" y="-2292.42" font-family="Times New Roman,serif" font-size="14.00">v</text>
</g>
</g>
</svg>
