<?xml version="1.0" encoding="UTF-8" standalone="no"?>
<?xml-stylesheet href="./styles.css" type="text/css"?>
<!DOCTYPE svg PUBLIC "-//W3C//DTD SVG 1.1//EN"
 "http://www.w3.org/Graphics/SVG/1.1/DTD/svg11.dtd">
<!-- Generated by graphviz version 2.47.3 (20210619.1520)
 -->
<!-- Title: G Pages: 1 -->
<svg width="5810pt" height="6384pt"
 viewBox="0.00 0.00 5810.00 6384.00" xmlns="http://www.w3.org/2000/svg" xmlns:xlink="http://www.w3.org/1999/xlink">
<g id="graph0" class="graph" transform="scale(1 1) rotate(0) translate(4 6380)">
<title>G</title>
<polygon fill="white" stroke="transparent" points="-4,4 -4,-6380 5806,-6380 5806,4 -4,4"/>
<!-- Entity113 -->
<g id="node1" class="node entity">
<title>Entity113</title>
<ellipse fill="none" stroke="black" cx="2451.72" cy="-4717.7" rx="41.69" ry="18"/>
<text text-anchor="start" x="2427.72" y="-4714" font-family="Times New Roman,serif" font-size="14.00">uri geller</text>
</g>
<!-- Entity124 -->
<g id="node2" class="node entity">
<title>Entity124</title>
<ellipse fill="none" stroke="black" cx="2830.68" cy="-4823.39" rx="38.19" ry="18"/>
<text text-anchor="start" x="2809.18" y="-4819.69" font-family="Times New Roman,serif" font-size="14.00">the nine</text>
</g>
<!-- Entity113&#45;&gt;Entity124 -->
<g id="edge1" class="edge verb">
<title>Entity113&#45;&gt;Entity124</title>
<path fill="none" stroke="black" d="M2486.69,-4727.45C2556.4,-4746.89 2712.42,-4790.41 2788.01,-4811.49"/>
<polygon fill="black" stroke="black" points="2787.12,-4814.87 2797.69,-4814.19 2789,-4808.13 2787.12,-4814.87"/>
<text text-anchor="start" x="2533.35" y="-4773.27" font-family="Times New Roman,serif" font-size="14.00">claiemd to channel</text>
</g>
<!-- Entity181 -->
<g id="node11" class="node entity">
<title>Entity181</title>
<ellipse fill="none" stroke="black" cx="3169.1" cy="-4619.56" rx="94.48" ry="18"/>
<text text-anchor="start" x="3104.6" y="-4615.86" font-family="Times New Roman,serif" font-size="14.00">egyptian gods in a ship</text>
</g>
<!-- Entity124&#45;&gt;Entity181 -->
<g id="edge10" class="edge verb">
<title>Entity124&#45;&gt;Entity181</title>
<path fill="none" stroke="black" d="M2854.48,-4809.05C2912.36,-4774.19 3060.9,-4684.73 3131.17,-4642.41"/>
<polygon fill="black" stroke="black" points="3133.39,-4645.16 3140.15,-4637 3129.78,-4639.16 3133.39,-4645.16"/>
<text text-anchor="start" x="2888.83" y="-4729.53" font-family="Times New Roman,serif" font-size="14.00">claimed to channel</text>
</g>
<!-- Entity112 -->
<g id="node3" class="node entity">
<title>Entity112</title>
<ellipse fill="none" stroke="black" cx="2994.8" cy="-4446.04" rx="56.59" ry="18"/>
<text text-anchor="start" x="2959.3" y="-4442.34" font-family="Times New Roman,serif" font-size="14.00">arthur young</text>
</g>
<!-- Entity112&#45;&gt;Entity124 -->
<g id="edge7" class="edge verb">
<title>Entity112&#45;&gt;Entity124</title>
<path fill="none" stroke="black" d="M2986.88,-4464.24C2960.34,-4525.26 2874.4,-4722.87 2842.63,-4795.92"/>
<polygon fill="black" stroke="black" points="2839.3,-4794.8 2838.52,-4805.37 2845.72,-4797.59 2839.3,-4794.8"/>
<text text-anchor="start" x="2852.76" y="-4633.88" font-family="Times New Roman,serif" font-size="14.00">member&#45;of</text>
</g>
<!-- Entity178 -->
<g id="node4" class="node entity">
<title>Entity178</title>
<ellipse fill="none" stroke="black" cx="3583.96" cy="-4727.28" rx="53.89" ry="18"/>
<text text-anchor="start" x="3550.46" y="-4723.58" font-family="Times New Roman,serif" font-size="14.00">bell aviation</text>
</g>
<!-- Entity112&#45;&gt;Entity178 -->
<g id="edge2" class="edge verb">
<title>Entity112&#45;&gt;Entity178</title>
<path fill="none" stroke="black" d="M3026.47,-4461.16C3126.11,-4508.72 3433.04,-4655.24 3543.68,-4708.06"/>
<polygon fill="black" stroke="black" points="3542.31,-4711.28 3552.84,-4712.43 3545.33,-4704.96 3542.31,-4711.28"/>
<text text-anchor="start" x="3244.08" y="-4588.41" font-family="Times New Roman,serif" font-size="14.00">created</text>
</g>
<!-- Entity11 -->
<g id="node6" class="node entity">
<title>Entity11</title>
<ellipse fill="none" stroke="black" cx="2350.9" cy="-4065.88" rx="77.19" ry="18"/>
<text text-anchor="start" x="2299.4" y="-4062.18" font-family="Times New Roman,serif" font-size="14.00">psi&#45;consciousness</text>
</g>
<!-- Entity112&#45;&gt;Entity11 -->
<g id="edge9" class="edge verb">
<title>Entity112&#45;&gt;Entity11</title>
<path fill="none" stroke="black" d="M2967.95,-4430.19C2866.35,-4370.2 2505.23,-4157 2387.97,-4087.77"/>
<polygon fill="black" stroke="black" points="2389.7,-4084.73 2379.31,-4082.66 2386.14,-4090.75 2389.7,-4084.73"/>
<text text-anchor="start" x="2636.96" y="-4262.78" font-family="Times New Roman,serif" font-size="14.00">studied</text>
</g>
<!-- Entity115 -->
<g id="node5" class="node entity">
<title>Entity115</title>
<ellipse fill="none" stroke="black" cx="2361.13" cy="-4173.79" rx="68.49" ry="18"/>
<text text-anchor="start" x="2316.63" y="-4170.09" font-family="Times New Roman,serif" font-size="14.00">jeffrey mishlove</text>
</g>
<!-- Entity115&#45;&gt;Entity113 -->
<g id="edge5" class="edge verb">
<title>Entity115&#45;&gt;Entity113</title>
<path fill="none" stroke="black" d="M2364.14,-4191.88C2377.43,-4271.66 2430.83,-4592.25 2447.03,-4689.56"/>
<polygon fill="black" stroke="black" points="2443.6,-4690.25 2448.7,-4699.53 2450.51,-4689.1 2443.6,-4690.25"/>
<text text-anchor="start" x="2350.59" y="-4444.52" font-family="Times New Roman,serif" font-size="14.00">promoted</text>
</g>
<!-- Entity115&#45;&gt;Entity11 -->
<g id="edge3" class="edge verb">
<title>Entity115&#45;&gt;Entity11</title>
<path fill="none" stroke="black" d="M2364.58,-4155.48C2364.75,-4138.65 2362.66,-4113.44 2359.64,-4094.04"/>
<polygon fill="black" stroke="black" points="2363.05,-4093.2 2357.88,-4083.96 2356.15,-4094.41 2363.05,-4093.2"/>
<text text-anchor="start" x="2321.11" y="-4128.56" font-family="Times New Roman,serif" font-size="14.00">studied</text>
</g>
<!-- Entity115&#45;&gt;Entity11 -->
<g id="edge25" class="edge verb">
<title>Entity115&#45;&gt;Entity11</title>
<path fill="none" stroke="black" d="M2354.1,-4155.49C2350.79,-4138.63 2348.16,-4113.38 2347.56,-4093.97"/>
<polygon fill="black" stroke="black" points="2351.06,-4093.84 2347.45,-4083.88 2344.06,-4093.92 2351.06,-4093.84"/>
<text text-anchor="start" x="2286.83" y="-4113.53" font-family="Times New Roman,serif" font-size="14.00">investigates</text>
</g>
<!-- Entity114 -->
<g id="node7" class="node entity">
<title>Entity114</title>
<ellipse fill="none" stroke="black" cx="2909.82" cy="-4931.37" rx="74.99" ry="18"/>
<text text-anchor="start" x="2860.32" y="-4927.67" font-family="Times New Roman,serif" font-size="14.00">gene roddenberry</text>
</g>
<!-- Entity114&#45;&gt;Entity124 -->
<g id="edge4" class="edge verb">
<title>Entity114&#45;&gt;Entity124</title>
<path fill="none" stroke="black" d="M2896.75,-4913.54C2883.82,-4895.9 2863.92,-4868.73 2849.33,-4848.83"/>
<polygon fill="black" stroke="black" points="2851.98,-4846.53 2843.25,-4840.53 2846.33,-4850.66 2851.98,-4846.53"/>
<text text-anchor="start" x="2769.04" y="-4884.98" font-family="Times New Roman,serif" font-size="14.00">claiemd to channel</text>
</g>
<!-- Entity123 -->
<g id="node8" class="node entity">
<title>Entity123</title>
<ellipse fill="none" stroke="black" cx="2295.29" cy="-5177.98" rx="64.19" ry="18"/>
<text text-anchor="start" x="2253.79" y="-5174.28" font-family="Times New Roman,serif" font-size="14.00">andre puharich</text>
</g>
<!-- Entity123&#45;&gt;Entity113 -->
<g id="edge6" class="edge verb">
<title>Entity123&#45;&gt;Entity113</title>
<path fill="none" stroke="black" d="M2301.42,-5159.94C2325.47,-5089.18 2413.43,-4830.37 2442.4,-4745.13"/>
<polygon fill="black" stroke="black" points="2445.73,-4746.21 2445.63,-4735.62 2439.1,-4743.96 2445.73,-4746.21"/>
<text text-anchor="start" x="2311.91" y="-4956.33" font-family="Times New Roman,serif" font-size="14.00">sponsored</text>
</g>
<!-- Entity161 -->
<g id="node9" class="node entity">
<title>Entity161</title>
<ellipse fill="none" stroke="black" cx="1765.19" cy="-2230.43" rx="67.69" ry="18"/>
<text text-anchor="start" x="1721.19" y="-2226.73" font-family="Times New Roman,serif" font-size="14.00">abraham lincoln</text>
</g>
<!-- Entity180 -->
<g id="node10" class="node entity">
<title>Entity180</title>
<ellipse fill="none" stroke="black" cx="1144.11" cy="-2590.28" rx="31.4" ry="18"/>
<text text-anchor="start" x="1128.11" y="-2586.58" font-family="Times New Roman,serif" font-size="14.00">potus</text>
</g>
<!-- Entity161&#45;&gt;Entity180 -->
<g id="edge8" class="edge verb">
<title>Entity161&#45;&gt;Entity180</title>
<path fill="none" stroke="black" d="M1736.89,-2246.82C1634.17,-2306.34 1281.41,-2510.73 1174.84,-2572.47"/>
<polygon fill="black" stroke="black" points="1173.06,-2569.46 1166.17,-2577.5 1176.57,-2575.52 1173.06,-2569.46"/>
<text text-anchor="start" x="1439.87" y="-2413.45" font-family="Times New Roman,serif" font-size="14.00">isa</text>
</g>
<!-- Entity116 -->
<g id="node12" class="node entity">
<title>Entity116</title>
<ellipse fill="none" stroke="black" cx="576.58" cy="-2601.63" rx="56.59" ry="18"/>
<text text-anchor="start" x="541.08" y="-2597.93" font-family="Times New Roman,serif" font-size="14.00">harry truman</text>
</g>
<!-- Entity116&#45;&gt;Entity180 -->
<g id="edge12" class="edge verb">
<title>Entity116&#45;&gt;Entity180</title>
<path fill="none" stroke="black" d="M633.07,-2600.5C747.21,-2598.22 1002.92,-2593.1 1102.92,-2591.1"/>
<polygon fill="black" stroke="black" points="1103.01,-2594.6 1112.93,-2590.9 1102.87,-2587.6 1103.01,-2594.6"/>
<text text-anchor="start" x="851.99" y="-2599.6" font-family="Times New Roman,serif" font-size="14.00">isa</text>
</g>
<!-- Entity179 -->
<g id="node13" class="node entity">
<title>Entity179</title>
<ellipse fill="none" stroke="black" cx="133.12" cy="-2490.96" rx="34.39" ry="18"/>
<text text-anchor="start" x="114.62" y="-2487.26" font-family="Times New Roman,serif" font-size="14.00">mason</text>
</g>
<!-- Entity116&#45;&gt;Entity179 -->
<g id="edge11" class="edge verb">
<title>Entity116&#45;&gt;Entity179</title>
<path fill="none" stroke="black" d="M532.03,-2590.51C445.9,-2569.02 257.7,-2522.05 174.31,-2501.24"/>
<polygon fill="black" stroke="black" points="174.99,-2497.8 164.44,-2498.78 173.29,-2504.59 174.99,-2497.8"/>
<text text-anchor="start" x="337.17" y="-2549.68" font-family="Times New Roman,serif" font-size="14.00">isa</text>
</g>
<!-- Entity276 -->
<g id="node62" class="node entity">
<title>Entity276</title>
<ellipse fill="none" stroke="black" cx="55.55" cy="-2709.9" rx="55.79" ry="18"/>
<text text-anchor="start" x="20.55" y="-2706.2" font-family="Times New Roman,serif" font-size="14.00">freemasonry</text>
</g>
<!-- Entity116&#45;&gt;Entity276 -->
<g id="edge68" class="edge verb">
<title>Entity116&#45;&gt;Entity276</title>
<path fill="none" stroke="black" d="M528.96,-2611.53C432.93,-2631.48 216.39,-2676.48 112.83,-2698"/>
<polygon fill="black" stroke="black" points="111.95,-2694.61 102.87,-2700.07 113.37,-2701.46 111.95,-2694.61"/>
<text text-anchor="start" x="259.89" y="-2658.56" font-family="Times New Roman,serif" font-size="14.00">member of</text>
</g>
<!-- Entity125 -->
<g id="node14" class="node entity">
<title>Entity125</title>
<ellipse fill="none" stroke="black" cx="850.84" cy="-2727.01" rx="27" ry="18"/>
<text text-anchor="start" x="843.34" y="-2723.31" font-family="Times New Roman,serif" font-size="14.00">jfk</text>
</g>
<!-- Entity125&#45;&gt;Entity180 -->
<g id="edge13" class="edge verb">
<title>Entity125&#45;&gt;Entity180</title>
<path fill="none" stroke="black" d="M873.37,-2716.51C924.55,-2692.64 1049.83,-2634.24 1110.33,-2606.03"/>
<polygon fill="black" stroke="black" points="1111.87,-2609.17 1119.46,-2601.77 1108.92,-2602.83 1111.87,-2609.17"/>
<text text-anchor="start" x="975.85" y="-2665.07" font-family="Times New Roman,serif" font-size="14.00">isa</text>
</g>
<!-- Entity132 -->
<g id="node15" class="node entity">
<title>Entity132</title>
<ellipse fill="none" stroke="black" cx="1383.44" cy="-2175.69" rx="59.59" ry="18"/>
<text text-anchor="start" x="1345.44" y="-2171.99" font-family="Times New Roman,serif" font-size="14.00">donald trump</text>
</g>
<!-- Entity132&#45;&gt;Entity180 -->
<g id="edge14" class="edge verb">
<title>Entity132&#45;&gt;Entity180</title>
<path fill="none" stroke="black" d="M1373.15,-2193.5C1335.32,-2259.03 1203.78,-2486.91 1159.1,-2564.32"/>
<polygon fill="black" stroke="black" points="1156.06,-2562.58 1154.09,-2572.99 1162.12,-2566.08 1156.06,-2562.58"/>
<text text-anchor="start" x="1250.13" y="-2382.71" font-family="Times New Roman,serif" font-size="14.00">isa</text>
</g>
<!-- Entity154 -->
<g id="node39" class="node entity">
<title>Entity154</title>
<ellipse fill="none" stroke="black" cx="1751.44" cy="-2842.55" rx="50.09" ry="18"/>
<text text-anchor="start" x="1720.94" y="-2838.85" font-family="Times New Roman,serif" font-size="14.00">john trump</text>
</g>
<!-- Entity132&#45;&gt;Entity154 -->
<g id="edge41" class="edge verb">
<title>Entity132&#45;&gt;Entity154</title>
<path fill="none" stroke="black" d="M1393.28,-2193.52C1443.98,-2285.4 1675.65,-2705.22 1736.67,-2815.8"/>
<polygon fill="black" stroke="black" points="1733.67,-2817.6 1741.56,-2824.66 1739.8,-2814.21 1733.67,-2817.6"/>
<text text-anchor="start" x="1505.98" y="-2508.46" font-family="Times New Roman,serif" font-size="14.00">nephew of</text>
</g>
<!-- Entity126 -->
<g id="node16" class="node entity">
<title>Entity126</title>
<ellipse fill="none" stroke="black" cx="734.12" cy="-2477.61" rx="58.49" ry="18"/>
<text text-anchor="start" x="697.12" y="-2473.91" font-family="Times New Roman,serif" font-size="14.00">richard nixon</text>
</g>
<!-- Entity126&#45;&gt;Entity180 -->
<g id="edge15" class="edge verb">
<title>Entity126&#45;&gt;Entity180</title>
<path fill="none" stroke="black" d="M778,-2489.66C858.86,-2511.89 1030.06,-2558.93 1106.22,-2579.86"/>
<polygon fill="black" stroke="black" points="1105.31,-2583.24 1115.88,-2582.52 1107.17,-2576.49 1105.31,-2583.24"/>
<text text-anchor="start" x="926.11" y="-2538.56" font-family="Times New Roman,serif" font-size="14.00">isa</text>
</g>
<!-- Entity138 -->
<g id="node17" class="node entity">
<title>Entity138</title>
<ellipse fill="none" stroke="black" cx="1123.42" cy="-2698.32" rx="63.89" ry="18"/>
<text text-anchor="start" x="1082.42" y="-2694.62" font-family="Times New Roman,serif" font-size="14.00">george w bush</text>
</g>
<!-- Entity138&#45;&gt;Entity180 -->
<g id="edge16" class="edge verb">
<title>Entity138&#45;&gt;Entity180</title>
<path fill="none" stroke="black" d="M1126.93,-2679.99C1130.18,-2663.05 1135.05,-2637.63 1138.77,-2618.17"/>
<polygon fill="black" stroke="black" points="1142.21,-2618.81 1140.66,-2608.33 1135.34,-2617.5 1142.21,-2618.81"/>
<text text-anchor="start" x="1116.85" y="-2652.88" font-family="Times New Roman,serif" font-size="14.00">isa</text>
</g>
<!-- Entity131 -->
<g id="node18" class="node entity">
<title>Entity131</title>
<ellipse fill="none" stroke="black" cx="731.68" cy="-2310.68" rx="68.49" ry="18"/>
<text text-anchor="start" x="687.18" y="-2306.98" font-family="Times New Roman,serif" font-size="14.00">george hw bush</text>
</g>
<!-- Entity131&#45;&gt;Entity180 -->
<g id="edge17" class="edge verb">
<title>Entity131&#45;&gt;Entity180</title>
<path fill="none" stroke="black" d="M756.55,-2327.54C828.83,-2376.54 1038.57,-2518.72 1115.44,-2570.84"/>
<polygon fill="black" stroke="black" points="1113.48,-2573.74 1123.72,-2576.45 1117.41,-2567.94 1113.48,-2573.74"/>
<text text-anchor="start" x="919.99" y="-2452.99" font-family="Times New Roman,serif" font-size="14.00">isa</text>
</g>
<!-- Entity127 -->
<g id="node19" class="node entity">
<title>Entity127</title>
<ellipse fill="none" stroke="black" cx="1392.22" cy="-2942.42" rx="31.4" ry="18"/>
<text text-anchor="start" x="1376.22" y="-2938.72" font-family="Times New Roman,serif" font-size="14.00">carter</text>
</g>
<!-- Entity127&#45;&gt;Entity180 -->
<g id="edge18" class="edge verb">
<title>Entity127&#45;&gt;Entity180</title>
<path fill="none" stroke="black" d="M1380.25,-2925.44C1340.05,-2868.37 1209.67,-2683.32 1161.88,-2615.5"/>
<polygon fill="black" stroke="black" points="1164.58,-2613.25 1155.96,-2607.09 1158.86,-2617.28 1164.58,-2613.25"/>
<text text-anchor="start" x="1255.07" y="-2774.27" font-family="Times New Roman,serif" font-size="14.00">isa</text>
</g>
<!-- Entity184 -->
<g id="node23" class="node entity">
<title>Entity184</title>
<ellipse fill="none" stroke="black" cx="1668.81" cy="-3227.6" rx="27" ry="18"/>
<text text-anchor="start" x="1659.31" y="-3223.9" font-family="Times New Roman,serif" font-size="14.00">ufo</text>
</g>
<!-- Entity127&#45;&gt;Entity184 -->
<g id="edge22" class="edge verb">
<title>Entity127&#45;&gt;Entity184</title>
<path fill="none" stroke="black" d="M1407.48,-2958.16C1453.78,-3005.89 1592.73,-3149.15 1646.87,-3204.98"/>
<polygon fill="black" stroke="black" points="1644.46,-3207.52 1653.93,-3212.26 1649.48,-3202.64 1644.46,-3207.52"/>
<text text-anchor="start" x="1472.18" y="-3085.37" font-family="Times New Roman,serif" font-size="14.00">witnessed</text>
</g>
<!-- Entity130 -->
<g id="node20" class="node entity">
<title>Entity130</title>
<ellipse fill="none" stroke="black" cx="1007.52" cy="-2926.85" rx="35.19" ry="18"/>
<text text-anchor="start" x="988.52" y="-2923.15" font-family="Times New Roman,serif" font-size="14.00">obama</text>
</g>
<!-- Entity130&#45;&gt;Entity180 -->
<g id="edge19" class="edge verb">
<title>Entity130&#45;&gt;Entity180</title>
<path fill="none" stroke="black" d="M1014.86,-2908.76C1037.47,-2853.04 1106.14,-2683.84 1133.09,-2617.44"/>
<polygon fill="black" stroke="black" points="1136.38,-2618.64 1136.9,-2608.05 1129.9,-2616 1136.38,-2618.64"/>
<text text-anchor="start" x="1057.98" y="-2766.9" font-family="Times New Roman,serif" font-size="14.00">isa</text>
</g>
<!-- Entity128 -->
<g id="node21" class="node entity">
<title>Entity128</title>
<ellipse fill="none" stroke="black" cx="1981.83" cy="-3413.95" rx="27" ry="18"/>
<text text-anchor="start" x="1973.83" y="-3410.25" font-family="Times New Roman,serif" font-size="14.00">cia</text>
</g>
<!-- Entity128&#45;&gt;Entity11 -->
<g id="edge20" class="edge verb">
<title>Entity128&#45;&gt;Entity11</title>
<path fill="none" stroke="black" d="M1991.51,-3431.05C2041.85,-3519.97 2273.72,-3929.55 2335.65,-4038.96"/>
<polygon fill="black" stroke="black" points="2332.65,-4040.76 2340.62,-4047.74 2338.74,-4037.31 2332.65,-4040.76"/>
<text text-anchor="start" x="2099.58" y="-3738.8" font-family="Times New Roman,serif" font-size="14.00">investigates</text>
</g>
<!-- Entity128&#45;&gt;Entity184 -->
<g id="edge26" class="edge verb">
<title>Entity128&#45;&gt;Entity184</title>
<path fill="none" stroke="black" d="M1961.29,-3401.72C1907.1,-3369.46 1760.15,-3281.98 1697.61,-3244.75"/>
<polygon fill="black" stroke="black" points="1699.4,-3241.74 1689.02,-3239.63 1695.82,-3247.75 1699.4,-3241.74"/>
<text text-anchor="start" x="1765.45" y="-3327.04" font-family="Times New Roman,serif" font-size="14.00">investigates</text>
</g>
<!-- Entity134 -->
<g id="node22" class="node entity">
<title>Entity134</title>
<ellipse fill="none" stroke="black" cx="2027.59" cy="-4524.28" rx="63.89" ry="18"/>
<text text-anchor="start" x="1986.59" y="-4520.58" font-family="Times New Roman,serif" font-size="14.00">robert bigelow</text>
</g>
<!-- Entity134&#45;&gt;Entity115 -->
<g id="edge23" class="edge verb">
<title>Entity134&#45;&gt;Entity115</title>
<path fill="none" stroke="black" d="M2044.59,-4506.42C2099.57,-4448.64 2272.73,-4266.68 2336.89,-4199.25"/>
<polygon fill="black" stroke="black" points="2339.81,-4201.27 2344.16,-4191.61 2334.73,-4196.45 2339.81,-4201.27"/>
<text text-anchor="start" x="2158.74" y="-4356.63" font-family="Times New Roman,serif" font-size="14.00">funds</text>
</g>
<!-- Entity134&#45;&gt;Entity11 -->
<g id="edge21" class="edge verb">
<title>Entity134&#45;&gt;Entity11</title>
<path fill="none" stroke="black" d="M2040.07,-4506.59C2089.72,-4436.19 2273.45,-4175.69 2332.49,-4091.97"/>
<polygon fill="black" stroke="black" points="2335.38,-4093.96 2338.28,-4083.77 2329.66,-4089.92 2335.38,-4093.96"/>
<text text-anchor="start" x="2122.28" y="-4303.08" font-family="Times New Roman,serif" font-size="14.00">investigates</text>
</g>
<!-- Entity139 -->
<g id="node24" class="node entity">
<title>Entity139</title>
<ellipse fill="none" stroke="black" cx="1576.66" cy="-2408.2" rx="71.49" ry="18"/>
<text text-anchor="start" x="1529.66" y="-2404.5" font-family="Times New Roman,serif" font-size="14.00">woodrow wilson</text>
</g>
<!-- Entity139&#45;&gt;Entity180 -->
<g id="edge24" class="edge verb">
<title>Entity139&#45;&gt;Entity180</title>
<path fill="none" stroke="black" d="M1539.78,-2423.72C1457.49,-2458.36 1259.82,-2541.57 1179.22,-2575.5"/>
<polygon fill="black" stroke="black" points="1177.4,-2572.47 1169.54,-2579.57 1180.11,-2578.92 1177.4,-2572.47"/>
<text text-anchor="start" x="1343.5" y="-2503.41" font-family="Times New Roman,serif" font-size="14.00">isa</text>
</g>
<!-- Entity189 -->
<g id="node28" class="node entity">
<title>Entity189</title>
<ellipse fill="none" stroke="black" cx="2173.94" cy="-2338.45" rx="71.49" ry="18"/>
<text text-anchor="start" x="2126.94" y="-2334.75" font-family="Times New Roman,serif" font-size="14.00">leauge of nations</text>
</g>
<!-- Entity139&#45;&gt;Entity189 -->
<g id="edge29" class="edge verb">
<title>Entity139&#45;&gt;Entity189</title>
<path fill="none" stroke="black" d="M1641.72,-2400.6C1753.35,-2387.56 1980.77,-2361.01 2098.91,-2347.21"/>
<polygon fill="black" stroke="black" points="2099.43,-2350.68 2108.96,-2346.04 2098.62,-2343.72 2099.43,-2350.68"/>
<text text-anchor="start" x="1829.32" y="-2377.71" font-family="Times New Roman,serif" font-size="14.00">created</text>
</g>
<!-- Entity145 -->
<g id="node25" class="node entity">
<title>Entity145</title>
<ellipse fill="none" stroke="black" cx="1098.35" cy="-2283.66" rx="53.89" ry="18"/>
<text text-anchor="start" x="1064.85" y="-2279.96" font-family="Times New Roman,serif" font-size="14.00">edgar casey</text>
</g>
<!-- Entity145&#45;&gt;Entity139 -->
<g id="edge27" class="edge verb">
<title>Entity145&#45;&gt;Entity139</title>
<path fill="none" stroke="black" d="M1141.22,-2294.82C1226.79,-2317.1 1418.95,-2367.13 1516.86,-2392.63"/>
<polygon fill="black" stroke="black" points="1516.05,-2396.03 1526.61,-2395.16 1517.81,-2389.26 1516.05,-2396.03"/>
<text text-anchor="start" x="1287.04" y="-2347.52" font-family="Times New Roman,serif" font-size="14.00">advises</text>
</g>
<!-- Entity137 -->
<g id="node26" class="node entity">
<title>Entity137</title>
<ellipse fill="none" stroke="black" cx="3385.57" cy="-486.43" rx="58.49" ry="18"/>
<text text-anchor="start" x="3348.57" y="-482.73" font-family="Times New Roman,serif" font-size="14.00">rudolf steiner</text>
</g>
<!-- Entity269 -->
<g id="node27" class="node entity">
<title>Entity269</title>
<ellipse fill="none" stroke="black" cx="3835.34" cy="-17.98" rx="102.08" ry="18"/>
<text text-anchor="start" x="3764.84" y="-14.28" font-family="Times New Roman,serif" font-size="14.00">anthroposophical society</text>
</g>
<!-- Entity137&#45;&gt;Entity269 -->
<g id="edge28" class="edge verb">
<title>Entity137&#45;&gt;Entity269</title>
<path fill="none" stroke="black" d="M3402.38,-468.92C3471.04,-397.4 3730.4,-127.28 3811.18,-43.15"/>
<polygon fill="black" stroke="black" points="3813.81,-45.47 3818.21,-35.83 3808.76,-40.62 3813.81,-45.47"/>
<text text-anchor="start" x="3565.78" y="-259.83" font-family="Times New Roman,serif" font-size="14.00">created</text>
</g>
<!-- Entity188 -->
<g id="node30" class="node entity">
<title>Entity188</title>
<ellipse fill="none" stroke="black" cx="2896.07" cy="-921.8" rx="85.29" ry="18"/>
<text text-anchor="start" x="2838.57" y="-918.1" font-family="Times New Roman,serif" font-size="14.00">theosophical society</text>
</g>
<!-- Entity137&#45;&gt;Entity188 -->
<g id="edge31" class="edge verb">
<title>Entity137&#45;&gt;Entity188</title>
<path fill="none" stroke="black" d="M3366.38,-503.49C3290.63,-570.87 3012.17,-818.53 2923.43,-897.46"/>
<polygon fill="black" stroke="black" points="2921.07,-894.88 2915.93,-904.14 2925.72,-900.11 2921.07,-894.88"/>
<text text-anchor="start" x="3078.91" y="-704.28" font-family="Times New Roman,serif" font-size="14.00">memberr of</text>
</g>
<!-- Entity142 -->
<g id="node29" class="node entity">
<title>Entity142</title>
<ellipse fill="none" stroke="black" cx="3113.57" cy="-316.24" rx="73.39" ry="18"/>
<text text-anchor="start" x="3065.07" y="-312.54" font-family="Times New Roman,serif" font-size="14.00">madam blavatsky</text>
</g>
<!-- Entity142&#45;&gt;Entity188 -->
<g id="edge30" class="edge verb">
<title>Entity142&#45;&gt;Entity188</title>
<path fill="none" stroke="black" d="M3107.06,-334.36C3076.07,-420.63 2943.46,-789.85 2905.97,-894.22"/>
<polygon fill="black" stroke="black" points="2902.64,-893.15 2902.55,-903.75 2909.23,-895.52 2902.64,-893.15"/>
<text text-anchor="start" x="2965.52" y="-618.09" font-family="Times New Roman,serif" font-size="14.00">created</text>
</g>
<!-- Entity140 -->
<g id="node31" class="node entity">
<title>Entity140</title>
<ellipse fill="none" stroke="black" cx="1186.69" cy="-1427.18" rx="58.49" ry="18"/>
<text text-anchor="start" x="1149.69" y="-1423.48" font-family="Times New Roman,serif" font-size="14.00">steve bannon</text>
</g>
<!-- Entity140&#45;&gt;Entity132 -->
<g id="edge33" class="edge verb">
<title>Entity140&#45;&gt;Entity132</title>
<path fill="none" stroke="black" d="M1189.18,-1445.51C1209.51,-1545.73 1335.83,-2026.99 1373.28,-2148.02"/>
<polygon fill="black" stroke="black" points="1369.98,-2149.18 1376.32,-2157.67 1376.65,-2147.08 1369.98,-2149.18"/>
<text text-anchor="start" x="1226.23" y="-1800.57" font-family="Times New Roman,serif" font-size="14.00">promoted</text>
</g>
<!-- Entity140&#45;&gt;Entity132 -->
<g id="edge40" class="edge verb">
<title>Entity140&#45;&gt;Entity132</title>
<path fill="none" stroke="black" d="M1193.77,-1445.1C1225.82,-1544.26 1352.49,-2025.58 1378.88,-2147.55"/>
<polygon fill="black" stroke="black" points="1375.51,-2148.53 1380.99,-2157.59 1382.36,-2147.09 1375.51,-2148.53"/>
<text text-anchor="start" x="1244.33" y="-1785.12" font-family="Times New Roman,serif" font-size="14.00">advises</text>
</g>
<!-- Entity265 -->
<g id="node32" class="node entity">
<title>Entity265</title>
<ellipse fill="none" stroke="black" cx="1183.45" cy="-978.64" rx="35.19" ry="18"/>
<text text-anchor="start" x="1164.45" y="-974.94" font-family="Times New Roman,serif" font-size="14.00">gurgev</text>
</g>
<!-- Entity140&#45;&gt;Entity265 -->
<g id="edge32" class="edge verb">
<title>Entity140&#45;&gt;Entity265</title>
<path fill="none" stroke="black" d="M1186.56,-1409.04C1186.06,-1339.8 1184.26,-1091.77 1183.65,-1007.16"/>
<polygon fill="black" stroke="black" points="1187.15,-1006.98 1183.58,-997 1180.15,-1007.03 1187.15,-1006.98"/>
<text text-anchor="start" x="1144.1" y="-1211.9" font-family="Times New Roman,serif" font-size="14.00">studied</text>
</g>
<!-- Entity270 -->
<g id="node33" class="node entity">
<title>Entity270</title>
<ellipse fill="none" stroke="black" cx="962.93" cy="-1048.48" rx="38.19" ry="18"/>
<text text-anchor="start" x="941.43" y="-1044.78" font-family="Times New Roman,serif" font-size="14.00">us navy</text>
</g>
<!-- Entity140&#45;&gt;Entity270 -->
<g id="edge34" class="edge verb">
<title>Entity140&#45;&gt;Entity270</title>
<path fill="none" stroke="black" d="M1176.19,-1409.42C1140.22,-1348.54 1021.75,-1148.03 978.72,-1075.21"/>
<polygon fill="black" stroke="black" points="981.5,-1073.02 973.4,-1066.19 975.47,-1076.58 981.5,-1073.02"/>
<text text-anchor="start" x="1016.46" y="-1246.11" font-family="Times New Roman,serif" font-size="14.00">member of</text>
</g>
<!-- Entity267 -->
<g id="node34" class="node entity">
<title>Entity267</title>
<ellipse fill="none" stroke="black" cx="1243.64" cy="-1319.19" rx="53.09" ry="18"/>
<text text-anchor="start" x="1210.64" y="-1315.49" font-family="Times New Roman,serif" font-size="14.00">biosphere 2</text>
</g>
<!-- Entity140&#45;&gt;Entity267 -->
<g id="edge35" class="edge verb">
<title>Entity140&#45;&gt;Entity267</title>
<path fill="none" stroke="black" d="M1196.09,-1409.35C1205.16,-1392.15 1219.01,-1365.9 1229.42,-1346.16"/>
<polygon fill="black" stroke="black" points="1232.65,-1347.53 1234.22,-1337.05 1226.46,-1344.26 1232.65,-1347.53"/>
<text text-anchor="start" x="1171.76" y="-1381.55" font-family="Times New Roman,serif" font-size="14.00">created</text>
</g>
<!-- Entity268 -->
<g id="node35" class="node entity">
<title>Entity268</title>
<ellipse fill="none" stroke="black" cx="1483.71" cy="-960.45" rx="64.99" ry="18"/>
<text text-anchor="start" x="1441.71" y="-956.75" font-family="Times New Roman,serif" font-size="14.00">goldman sachs</text>
</g>
<!-- Entity140&#45;&gt;Entity268 -->
<g id="edge36" class="edge verb">
<title>Entity140&#45;&gt;Entity268</title>
<path fill="none" stroke="black" d="M1197.97,-1409.45C1243.36,-1338.12 1412.83,-1071.82 1466.97,-986.75"/>
<polygon fill="black" stroke="black" points="1470,-988.51 1472.41,-978.19 1464.09,-984.75 1470,-988.51"/>
<text text-anchor="start" x="1269.47" y="-1201.9" font-family="Times New Roman,serif" font-size="14.00">worked for</text>
</g>
<!-- Entity191 -->
<g id="node36" class="node entity">
<title>Entity191</title>
<ellipse fill="none" stroke="black" cx="892.41" cy="-876.72" rx="61.99" ry="18"/>
<text text-anchor="start" x="852.91" y="-873.02" font-family="Times New Roman,serif" font-size="14.00">breitbart news</text>
</g>
<!-- Entity140&#45;&gt;Entity191 -->
<g id="edge37" class="edge verb">
<title>Entity140&#45;&gt;Entity191</title>
<path fill="none" stroke="black" d="M1177.06,-1409.17C1133.93,-1328.48 958.23,-999.84 906.69,-903.43"/>
<polygon fill="black" stroke="black" points="909.77,-901.76 901.96,-894.59 903.59,-905.06 909.77,-901.76"/>
<text text-anchor="start" x="1000.88" y="-1160.1" font-family="Times New Roman,serif" font-size="14.00">created</text>
</g>
<!-- Entity266 -->
<g id="node37" class="node entity">
<title>Entity266</title>
<ellipse fill="none" stroke="black" cx="654.22" cy="-1156.5" rx="77.19" ry="18"/>
<text text-anchor="start" x="602.72" y="-1152.8" font-family="Times New Roman,serif" font-size="14.00">hollywood movies</text>
</g>
<!-- Entity140&#45;&gt;Entity266 -->
<g id="edge38" class="edge verb">
<title>Entity140&#45;&gt;Entity266</title>
<path fill="none" stroke="black" d="M1156.15,-1411.65C1065.72,-1365.68 799.2,-1230.2 695.84,-1177.66"/>
<polygon fill="black" stroke="black" points="697.15,-1174.4 686.65,-1172.99 693.98,-1180.64 697.15,-1174.4"/>
<text text-anchor="start" x="871" y="-1298.46" font-family="Times New Roman,serif" font-size="14.00">produced</text>
</g>
<!-- Entity151 -->
<g id="node38" class="node entity">
<title>Entity151</title>
<ellipse fill="none" stroke="black" cx="618.24" cy="-368.23" rx="69.59" ry="18"/>
<text text-anchor="start" x="572.74" y="-364.53" font-family="Times New Roman,serif" font-size="14.00">andrew breitbart</text>
</g>
<!-- Entity151&#45;&gt;Entity191 -->
<g id="edge39" class="edge verb">
<title>Entity151&#45;&gt;Entity191</title>
<path fill="none" stroke="black" d="M628,-386.32C669.18,-462.7 828.91,-758.95 877.99,-849.97"/>
<polygon fill="black" stroke="black" points="874.95,-851.7 882.77,-858.84 881.11,-848.38 874.95,-851.7"/>
<text text-anchor="start" x="711.99" y="-621.95" font-family="Times New Roman,serif" font-size="14.00">created</text>
</g>
<!-- Entity154&#45;&gt;Entity128 -->
<g id="edge42" class="edge verb">
<title>Entity154&#45;&gt;Entity128</title>
<path fill="none" stroke="black" d="M1758.71,-2860.6C1792.14,-2943.5 1931.04,-3287.98 1971.02,-3387.14"/>
<polygon fill="black" stroke="black" points="1967.8,-3388.5 1974.78,-3396.47 1974.29,-3385.88 1967.8,-3388.5"/>
<text text-anchor="start" x="1803.87" y="-3127.67" font-family="Times New Roman,serif" font-size="14.00">member of</text>
</g>
<!-- Entity271 -->
<g id="node40" class="node entity">
<title>Entity271</title>
<ellipse fill="none" stroke="black" cx="2189.89" cy="-2919.08" rx="50.89" ry="18"/>
<text text-anchor="start" x="2158.89" y="-2915.38" font-family="Times New Roman,serif" font-size="14.00">nikola tesla</text>
</g>
<!-- Entity154&#45;&gt;Entity271 -->
<g id="edge43" class="edge verb">
<title>Entity154&#45;&gt;Entity271</title>
<path fill="none" stroke="black" d="M1796.71,-2850.45C1877.53,-2864.56 2046.38,-2894.03 2134.17,-2909.35"/>
<polygon fill="black" stroke="black" points="2133.76,-2912.83 2144.21,-2911.1 2134.96,-2905.94 2133.76,-2912.83"/>
<text text-anchor="start" x="1924.44" y="-2883.7" font-family="Times New Roman,serif" font-size="14.00">studied</text>
</g>
<!-- Entity152 -->
<g id="node41" class="node entity">
<title>Entity152</title>
<ellipse fill="none" stroke="black" cx="2353.39" cy="-1584.46" rx="90.98" ry="18"/>
<text text-anchor="start" x="2291.39" y="-1580.76" font-family="Times New Roman,serif" font-size="14.00">emma hardinge&#45;britten</text>
</g>
<!-- Entity152&#45;&gt;Entity161 -->
<g id="edge45" class="edge verb">
<title>Entity152&#45;&gt;Entity161</title>
<path fill="none" stroke="black" d="M2337.05,-1602.41C2254.59,-1692.97 1884.42,-2099.49 1788.14,-2205.23"/>
<polygon fill="black" stroke="black" points="1785.33,-2203.12 1781.18,-2212.87 1790.5,-2207.83 1785.33,-2203.12"/>
<text text-anchor="start" x="1963.59" y="-1907.62" font-family="Times New Roman,serif" font-size="14.00">spokesperson for</text>
</g>
<!-- Entity152&#45;&gt;Entity188 -->
<g id="edge44" class="edge verb">
<title>Entity152&#45;&gt;Entity188</title>
<path fill="none" stroke="black" d="M2368.19,-1566.39C2443.77,-1474.1 2786.6,-1055.47 2875.15,-947.35"/>
<polygon fill="black" stroke="black" points="2877.91,-949.5 2881.54,-939.54 2872.5,-945.06 2877.91,-949.5"/>
<text text-anchor="start" x="2580.67" y="-1260.67" font-family="Times New Roman,serif" font-size="14.00">created</text>
</g>
<!-- Entity272 -->
<g id="node42" class="node entity">
<title>Entity272</title>
<ellipse fill="none" stroke="black" cx="2568.1" cy="-1087.66" rx="39.79" ry="18"/>
<text text-anchor="start" x="2545.6" y="-1083.96" font-family="Times New Roman,serif" font-size="14.00">medium</text>
</g>
<!-- Entity152&#45;&gt;Entity272 -->
<g id="edge46" class="edge verb">
<title>Entity152&#45;&gt;Entity272</title>
<path fill="none" stroke="black" d="M2361.16,-1566.48C2393.52,-1491.62 2517.69,-1204.3 2556.46,-1114.58"/>
<polygon fill="black" stroke="black" points="2559.7,-1115.91 2560.45,-1105.35 2553.27,-1113.14 2559.7,-1115.91"/>
<text text-anchor="start" x="2442.81" y="-1344.33" font-family="Times New Roman,serif" font-size="14.00">isa</text>
</g>
<!-- Entity192 -->
<g id="node43" class="node entity">
<title>Entity192</title>
<ellipse fill="none" stroke="black" cx="2914.92" cy="-1379.14" rx="55.79" ry="18"/>
<text text-anchor="start" x="2879.92" y="-1375.44" font-family="Times New Roman,serif" font-size="14.00">orphic circle</text>
</g>
<!-- Entity152&#45;&gt;Entity192 -->
<g id="edge47" class="edge verb">
<title>Entity152&#45;&gt;Entity192</title>
<path fill="none" stroke="black" d="M2396.99,-1568.52C2500.69,-1530.6 2761.35,-1435.29 2868.16,-1396.24"/>
<polygon fill="black" stroke="black" points="2869.52,-1399.47 2877.71,-1392.75 2867.11,-1392.9 2869.52,-1399.47"/>
<text text-anchor="start" x="2571.57" y="-1486.18" font-family="Times New Roman,serif" font-size="14.00">member of</text>
</g>
<!-- Entity160 -->
<g id="node44" class="node entity">
<title>Entity160</title>
<ellipse fill="none" stroke="black" cx="2951.94" cy="-3237.66" rx="53.89" ry="18"/>
<text text-anchor="start" x="2918.44" y="-3233.96" font-family="Times New Roman,serif" font-size="14.00">black magic</text>
</g>
<!-- Entity193 -->
<g id="node45" class="node entity">
<title>Entity193</title>
<ellipse fill="none" stroke="black" cx="3039.66" cy="-3349.64" rx="28.7" ry="18"/>
<text text-anchor="start" x="3025.66" y="-3345.94" font-family="Times New Roman,serif" font-size="14.00">x left</text>
</g>
<!-- Entity160&#45;&gt;Entity193 -->
<g id="edge48" class="edge verb">
<title>Entity160&#45;&gt;Entity193</title>
<path fill="none" stroke="black" d="M2965.64,-3255.16C2980.45,-3274.05 3004.14,-3304.29 3020.72,-3325.45"/>
<polygon fill="black" stroke="black" points="3017.98,-3327.64 3026.9,-3333.36 3023.49,-3323.32 3017.98,-3327.64"/>
<text text-anchor="start" x="2932.18" y="-3294.11" font-family="Times New Roman,serif" font-size="14.00">member of</text>
</g>
<!-- Entity162 -->
<g id="node46" class="node entity">
<title>Entity162</title>
<ellipse fill="none" stroke="black" cx="3259.94" cy="-2593.66" rx="39.79" ry="18"/>
<text text-anchor="start" x="3237.44" y="-2589.96" font-family="Times New Roman,serif" font-size="14.00">crowley</text>
</g>
<!-- Entity194 -->
<g id="node47" class="node entity">
<title>Entity194</title>
<ellipse fill="none" stroke="black" cx="3347.66" cy="-2705.64" rx="38.99" ry="18"/>
<text text-anchor="start" x="3325.66" y="-2701.94" font-family="Times New Roman,serif" font-size="14.00">x magic</text>
</g>
<!-- Entity162&#45;&gt;Entity194 -->
<g id="edge49" class="edge verb">
<title>Entity162&#45;&gt;Entity194</title>
<path fill="none" stroke="black" d="M3273.26,-2610.67C3287.82,-2629.25 3311.28,-2659.2 3327.96,-2680.49"/>
<polygon fill="black" stroke="black" points="3325.29,-2682.76 3334.21,-2688.47 3330.8,-2678.44 3325.29,-2682.76"/>
<text text-anchor="start" x="3239.61" y="-2649.38" font-family="Times New Roman,serif" font-size="14.00">member of</text>
</g>
<!-- Entity163 -->
<g id="node48" class="node entity">
<title>Entity163</title>
<ellipse fill="none" stroke="black" cx="3740.46" cy="-4835.23" rx="57.69" ry="18"/>
<text text-anchor="start" x="3703.96" y="-4831.53" font-family="Times New Roman,serif" font-size="14.00">michael pane</text>
</g>
<!-- Entity163&#45;&gt;Entity178 -->
<g id="edge50" class="edge verb">
<title>Entity163&#45;&gt;Entity178</title>
<path fill="none" stroke="black" d="M3716.35,-4818.6C3689.43,-4800.03 3645.73,-4769.89 3615.97,-4749.36"/>
<polygon fill="black" stroke="black" points="3617.81,-4746.38 3607.59,-4743.58 3613.83,-4752.14 3617.81,-4746.38"/>
<text text-anchor="start" x="3610.16" y="-4787.78" font-family="Times New Roman,serif" font-size="14.00">worked at</text>
</g>
<!-- Entity165 -->
<g id="node49" class="node entity">
<title>Entity165</title>
<ellipse fill="none" stroke="black" cx="4184.36" cy="-5087.88" rx="74.99" ry="18"/>
<text text-anchor="start" x="4134.86" y="-5084.18" font-family="Times New Roman,serif" font-size="14.00">walter dornberger</text>
</g>
<!-- Entity163&#45;&gt;Entity165 -->
<g id="edge51" class="edge verb">
<title>Entity163&#45;&gt;Entity165</title>
<path fill="none" stroke="black" d="M3768.23,-4851.04C3844.76,-4894.6 4058.85,-5016.45 4146.36,-5066.25"/>
<polygon fill="black" stroke="black" points="4144.74,-5069.36 4155.16,-5071.26 4148.2,-5063.28 4144.74,-5069.36"/>
<text text-anchor="start" x="3894.29" y="-4962.45" font-family="Times New Roman,serif" font-size="14.00">worked for</text>
</g>
<!-- Entity165&#45;&gt;Entity178 -->
<g id="edge52" class="edge verb">
<title>Entity165&#45;&gt;Entity178</title>
<path fill="none" stroke="black" d="M4161.19,-5070.59C4070.49,-5010.37 3739.1,-4811.1 3623.8,-4747.12"/>
<polygon fill="black" stroke="black" points="3625.37,-4743.99 3614.92,-4742.23 3621.99,-4750.12 3625.37,-4743.99"/>
<text text-anchor="start" x="3836.5" y="-4897.66" font-family="Times New Roman,serif" font-size="14.00">worked at</text>
</g>
<!-- Entity165&#45;&gt;Entity178 -->
<g id="edge53" class="edge verb">
<title>Entity165&#45;&gt;Entity178</title>
<path fill="none" stroke="black" d="M4150.83,-5071.53C4044.65,-5013.2 3716.97,-4816.4 3614.73,-4749.58"/>
<polygon fill="black" stroke="black" points="3616.38,-4746.47 3606.1,-4743.89 3612.52,-4752.32 3616.38,-4746.47"/>
<text text-anchor="start" x="3803.78" y="-4914.35" font-family="Times New Roman,serif" font-size="14.00">vice&#45;president</text>
</g>
<!-- Entity195 -->
<g id="node50" class="node entity">
<title>Entity195</title>
<ellipse fill="none" stroke="black" cx="4175.84" cy="-4979.99" rx="90.98" ry="18"/>
<text text-anchor="start" x="4113.84" y="-4976.29" font-family="Times New Roman,serif" font-size="14.00">nsdap rocket program</text>
</g>
<!-- Entity165&#45;&gt;Entity195 -->
<g id="edge54" class="edge verb">
<title>Entity165&#45;&gt;Entity195</title>
<path fill="none" stroke="black" d="M4182.91,-5069.58C4181.58,-5052.74 4179.59,-5027.51 4178.06,-5008.11"/>
<polygon fill="black" stroke="black" points="4181.54,-5007.71 4177.26,-4998.02 4174.56,-5008.26 4181.54,-5007.71"/>
<text text-anchor="start" x="4139.49" y="-5042.64" font-family="Times New Roman,serif" font-size="14.00">created</text>
</g>
<!-- Entity177 -->
<g id="node51" class="node entity">
<title>Entity177</title>
<ellipse fill="none" stroke="black" cx="4666.42" cy="-5503.35" rx="32.49" ry="18"/>
<text text-anchor="start" x="4649.42" y="-5499.65" font-family="Times New Roman,serif" font-size="14.00">nsdap</text>
</g>
<!-- Entity165&#45;&gt;Entity177 -->
<g id="edge55" class="edge verb">
<title>Entity165&#45;&gt;Entity177</title>
<path fill="none" stroke="black" d="M4204.77,-5105.47C4281.85,-5171.9 4555.23,-5407.52 4640.69,-5481.18"/>
<polygon fill="black" stroke="black" points="4638.51,-5483.91 4648.37,-5487.79 4643.08,-5478.61 4638.51,-5483.91"/>
<text text-anchor="start" x="4361.73" y="-5297.12" font-family="Times New Roman,serif" font-size="14.00">member of</text>
</g>
<!-- Entity273 -->
<g id="node53" class="node entity">
<title>Entity273</title>
<ellipse fill="none" stroke="black" cx="4301.2" cy="-5650.17" rx="65.79" ry="18"/>
<text text-anchor="start" x="4258.7" y="-5646.47" font-family="Times New Roman,serif" font-size="14.00">x series aircraft</text>
</g>
<!-- Entity165&#45;&gt;Entity273 -->
<g id="edge58" class="edge verb">
<title>Entity165&#45;&gt;Entity273</title>
<path fill="none" stroke="black" d="M4188.12,-5105.95C4205.09,-5187.66 4274.75,-5522.86 4295.4,-5622.26"/>
<polygon fill="black" stroke="black" points="4292,-5623.09 4297.46,-5632.17 4298.85,-5621.66 4292,-5623.09"/>
<text text-anchor="start" x="4200.76" y="-5367.91" font-family="Times New Roman,serif" font-size="14.00">created</text>
</g>
<!-- Entity102 -->
<g id="node59" class="node entity">
<title>Entity102</title>
<ellipse fill="none" stroke="black" cx="5040.89" cy="-5758.04" rx="38.99" ry="18"/>
<text text-anchor="start" x="5018.89" y="-5754.34" font-family="Times New Roman,serif" font-size="14.00">far right</text>
</g>
<!-- Entity177&#45;&gt;Entity102 -->
<g id="edge63" class="edge verb">
<title>Entity177&#45;&gt;Entity102</title>
<path fill="none" stroke="black" d="M4683.71,-5518.97C4741.48,-5563.65 4928.11,-5690.91 5006.14,-5739.25"/>
<polygon fill="black" stroke="black" points="5004.31,-5742.23 5014.67,-5744.48 5007.97,-5736.27 5004.31,-5742.23"/>
<text text-anchor="start" x="4789.93" y="-5632.91" font-family="Times New Roman,serif" font-size="14.00">member a</text>
</g>
<!-- Entity177&#45;&gt;Entity102 -->
<g id="edge67" class="edge verb">
<title>Entity177&#45;&gt;Entity102</title>
<path fill="none" stroke="black" d="M4690.64,-5515.7C4757.7,-5556.08 4945.1,-5683.38 5014.58,-5735.56"/>
<polygon fill="black" stroke="black" points="5012.75,-5738.57 5022.83,-5741.83 5016.99,-5732.99 5012.75,-5738.57"/>
<text text-anchor="start" x="4791.61" y="-5614.43" font-family="Times New Roman,serif" font-size="14.00">member of</text>
</g>
<!-- Entity170 -->
<g id="node52" class="node entity">
<title>Entity170</title>
<ellipse fill="none" stroke="black" cx="4676.71" cy="-5056.98" rx="46.29" ry="18"/>
<text text-anchor="start" x="4649.21" y="-5053.28" font-family="Times New Roman,serif" font-size="14.00">van braun</text>
</g>
<!-- Entity170&#45;&gt;Entity165 -->
<g id="edge56" class="edge verb">
<title>Entity170&#45;&gt;Entity165</title>
<path fill="none" stroke="black" d="M4630.83,-5059.86C4547.78,-5065.07 4371.44,-5076.14 4266.94,-5082.7"/>
<polygon fill="black" stroke="black" points="4266.51,-5079.22 4256.75,-5083.34 4266.95,-5086.2 4266.51,-5079.22"/>
<text text-anchor="start" x="4385.89" y="-5075.08" font-family="Times New Roman,serif" font-size="14.00">worked for</text>
</g>
<!-- Entity170&#45;&gt;Entity195 -->
<g id="edge57" class="edge verb">
<title>Entity170&#45;&gt;Entity195</title>
<path fill="none" stroke="black" d="M4633.57,-5050.35C4550.24,-5037.54 4365.89,-5009.2 4258.29,-4992.66"/>
<polygon fill="black" stroke="black" points="4258.54,-4989.16 4248.12,-4991.1 4257.47,-4996.08 4258.54,-4989.16"/>
<text text-anchor="start" x="4389.93" y="-5025.3" font-family="Times New Roman,serif" font-size="14.00">worked at</text>
</g>
<!-- Entity172 -->
<g id="node54" class="node entity">
<title>Entity172</title>
<ellipse fill="none" stroke="black" cx="4825.11" cy="-5866.58" rx="49.29" ry="18"/>
<text text-anchor="start" x="4795.11" y="-5862.88" font-family="Times New Roman,serif" font-size="14.00">adolf hitler</text>
</g>
<!-- Entity172&#45;&gt;Entity177 -->
<g id="edge59" class="edge verb">
<title>Entity172&#45;&gt;Entity177</title>
<path fill="none" stroke="black" d="M4817.24,-5848.57C4791.43,-5789.49 4709.24,-5601.35 4678.33,-5530.6"/>
<polygon fill="black" stroke="black" points="4681.36,-5528.81 4674.15,-5521.04 4674.95,-5531.61 4681.36,-5528.81"/>
<text text-anchor="start" x="4706.79" y="-5693.39" font-family="Times New Roman,serif" font-size="14.00">created</text>
</g>
<!-- Entity173 -->
<g id="node55" class="node entity">
<title>Entity173</title>
<ellipse fill="none" stroke="black" cx="668.22" cy="-2941.81" rx="77.99" ry="18"/>
<text text-anchor="start" x="616.22" y="-2938.11" font-family="Times New Roman,serif" font-size="14.00">dwight eisenhower</text>
</g>
<!-- Entity173&#45;&gt;Entity180 -->
<g id="edge60" class="edge verb">
<title>Entity173&#45;&gt;Entity180</title>
<path fill="none" stroke="black" d="M691.5,-2924.61C770.97,-2865.91 1031.38,-2673.55 1116.75,-2610.49"/>
<polygon fill="black" stroke="black" points="1118.94,-2613.22 1124.91,-2604.46 1114.78,-2607.59 1118.94,-2613.22"/>
<text text-anchor="start" x="885.12" y="-2771.35" font-family="Times New Roman,serif" font-size="14.00">is a</text>
</g>
<!-- Entity174 -->
<g id="node56" class="node entity">
<title>Entity174</title>
<ellipse fill="none" stroke="black" cx="226.54" cy="-3244.62" rx="37.89" ry="18"/>
<text text-anchor="start" x="205.54" y="-3240.92" font-family="Times New Roman,serif" font-size="14.00">hunt oil</text>
</g>
<!-- Entity174&#45;&gt;Entity173 -->
<g id="edge61" class="edge verb">
<title>Entity174&#45;&gt;Entity173</title>
<path fill="none" stroke="black" d="M248.15,-3229.81C319.56,-3180.85 548.4,-3023.95 634.79,-2964.73"/>
<polygon fill="black" stroke="black" points="636.9,-2967.52 643.17,-2958.98 632.94,-2961.75 636.9,-2967.52"/>
<text text-anchor="start" x="401.47" y="-3101.07" font-family="Times New Roman,serif" font-size="14.00">funded</text>
</g>
<!-- Entity175 -->
<g id="node57" class="node entity">
<title>Entity175</title>
<ellipse fill="none" stroke="black" cx="5765.97" cy="-6357.94" rx="36.29" ry="18"/>
<text text-anchor="start" x="5745.97" y="-6354.24" font-family="Times New Roman,serif" font-size="14.00">oswald</text>
</g>
<!-- Entity176 -->
<g id="node58" class="node entity">
<title>Entity176</title>
<ellipse fill="none" stroke="black" cx="5429.74" cy="-6073.23" rx="59.29" ry="18"/>
<text text-anchor="start" x="5392.24" y="-6069.53" font-family="Times New Roman,serif" font-size="14.00">guy bannister</text>
</g>
<!-- Entity175&#45;&gt;Entity176 -->
<g id="edge62" class="edge verb">
<title>Entity175&#45;&gt;Entity176</title>
<path fill="none" stroke="black" d="M5747.41,-6342.23C5691.56,-6294.94 5524.8,-6153.73 5457.93,-6097.11"/>
<polygon fill="black" stroke="black" points="5459.81,-6094.11 5449.92,-6090.32 5455.29,-6099.45 5459.81,-6094.11"/>
<text text-anchor="start" x="5539.67" y="-6223.47" font-family="Times New Roman,serif" font-size="14.00">worked for</text>
</g>
<!-- Entity176&#45;&gt;Entity102 -->
<g id="edge64" class="edge verb">
<title>Entity176&#45;&gt;Entity102</title>
<path fill="none" stroke="black" d="M5412.94,-6055.61C5353.21,-6001.24 5151,-5837.05 5072.43,-5778.74"/>
<polygon fill="black" stroke="black" points="5074.47,-5775.9 5064.34,-5772.8 5070.33,-5781.55 5074.47,-5775.9"/>
<text text-anchor="start" x="5187.68" y="-5905.98" font-family="Times New Roman,serif" font-size="14.00">member a</text>
</g>
<!-- Entity176&#45;&gt;Entity102 -->
<g id="edge66" class="edge verb">
<title>Entity176&#45;&gt;Entity102</title>
<path fill="none" stroke="black" d="M5404.13,-6056.89C5332.9,-6004.78 5133.51,-5843.22 5064.61,-5781.88"/>
<polygon fill="black" stroke="black" points="5066.64,-5779 5056.87,-5774.91 5061.96,-5784.2 5066.64,-5779"/>
<text text-anchor="start" x="5173.37" y="-5923.19" font-family="Times New Roman,serif" font-size="14.00">member of</text>
</g>
<!-- Entity1 -->
<g id="node60" class="node entity">
<title>Entity1</title>
<ellipse fill="none" stroke="black" cx="2602.94" cy="-2593.66" rx="27" ry="18"/>
<text text-anchor="start" x="2599.44" y="-2589.96" font-family="Times New Roman,serif" font-size="14.00">s</text>
</g>
<!-- Entity2 -->
<g id="node61" class="node entity">
<title>Entity2</title>
<ellipse fill="none" stroke="black" cx="2690.66" cy="-2705.64" rx="27" ry="18"/>
<text text-anchor="start" x="2686.66" y="-2701.94" font-family="Times New Roman,serif" font-size="14.00">o</text>
</g>
<!-- Entity1&#45;&gt;Entity2 -->
<g id="edge65" class="edge verb">
<title>Entity1&#45;&gt;Entity2</title>
<path fill="none" stroke="black" d="M2615.51,-2609.7C2630.23,-2628.5 2654.76,-2659.82 2671.78,-2681.53"/>
<polygon fill="black" stroke="black" points="2669.19,-2683.91 2678.11,-2689.62 2674.7,-2679.59 2669.19,-2683.91"/>
<text text-anchor="start" x="2636.64" y="-2649.42" font-family="Times New Roman,serif" font-size="14.00">v</text>
</g>
</g>
</svg>
