<?xml version="1.0" encoding="UTF-8" standalone="no"?>
<?xml-stylesheet href="./styles.css" type="text/css"?>
<!DOCTYPE svg PUBLIC "-//W3C//DTD SVG 1.1//EN"
 "http://www.w3.org/Graphics/SVG/1.1/DTD/svg11.dtd">
<!-- Generated by graphviz version 2.47.3 (20210619.1520)
 -->
<!-- Title: G Pages: 1 -->
<svg width="8548pt" height="2919pt"
 viewBox="0.00 0.00 8548.00 2919.00" xmlns="http://www.w3.org/2000/svg" xmlns:xlink="http://www.w3.org/1999/xlink">
<g id="graph0" class="graph" transform="scale(1 1) rotate(0) translate(4 2915)">
<title>G</title>
<polygon fill="white" stroke="transparent" points="-4,4 -4,-2915 8544,-2915 8544,4 -4,4"/>
<!-- Entity3 -->
<g id="node1" class="node entity">
<title>Entity3</title>
<ellipse fill="none" stroke="black" cx="5581.63" cy="-1842.06" rx="27" ry="18"/>
<text text-anchor="start" x="5574.13" y="-1838.36" font-family="Times New Roman,serif" font-size="14.00">jfk</text>
</g>
<!-- Entity22 -->
<g id="node2" class="node entity">
<title>Entity22</title>
<ellipse fill="none" stroke="black" cx="5168.75" cy="-1795.92" rx="27" ry="18"/>
<text text-anchor="start" x="5160.75" y="-1792.22" font-family="Times New Roman,serif" font-size="14.00">cia</text>
</g>
<!-- Entity3&#45;&gt;Entity22 -->
<g id="edge1" class="edge verb">
<title>Entity3&#45;&gt;Entity22</title>
<path fill="none" stroke="black" d="M5554.86,-1839.07C5483.3,-1831.07 5287.49,-1809.19 5205.56,-1800.04"/>
<polygon fill="black" stroke="black" points="5205.79,-1796.54 5195.46,-1798.91 5205.01,-1803.5 5205.79,-1796.54"/>
<text text-anchor="start" x="5276.21" y="-1823.35" font-family="Times New Roman,serif" font-size="14.00">heads (1961&#45;1963)</text>
</g>
<!-- Entity66 -->
<g id="node20" class="node entity">
<title>Entity66</title>
<ellipse fill="none" stroke="black" cx="6026.2" cy="-1927.64" rx="31.4" ry="18"/>
<text text-anchor="start" x="6010.2" y="-1923.94" font-family="Times New Roman,serif" font-size="14.00">potus</text>
</g>
<!-- Entity3&#45;&gt;Entity66 -->
<g id="edge23" class="edge verb">
<title>Entity3&#45;&gt;Entity66</title>
<path fill="none" stroke="black" d="M5607.78,-1847.1C5682.44,-1861.47 5896.93,-1902.75 5986.33,-1919.96"/>
<polygon fill="black" stroke="black" points="5985.87,-1923.44 5996.35,-1921.89 5987.19,-1916.56 5985.87,-1923.44"/>
<text text-anchor="start" x="5710.06" y="-1887.33" font-family="Times New Roman,serif" font-size="14.00">isa (1961&#45;1963)</text>
</g>
<!-- Entity67 -->
<g id="node25" class="node entity">
<title>Entity67</title>
<ellipse fill="none" stroke="black" cx="4394.72" cy="-1831.64" rx="77.19" ry="18"/>
<text text-anchor="start" x="4343.22" y="-1827.94" font-family="Times New Roman,serif" font-size="14.00">psi&#45;consciousness</text>
</g>
<!-- Entity22&#45;&gt;Entity67 -->
<g id="edge43" class="edge verb">
<title>Entity22&#45;&gt;Entity67</title>
<path fill="none" stroke="black" d="M5141.66,-1797.17C5036.65,-1802.02 4653.81,-1819.69 4480.72,-1827.67"/>
<polygon fill="black" stroke="black" points="4480.46,-1824.18 4470.63,-1828.14 4480.78,-1831.17 4480.46,-1824.18"/>
<text text-anchor="start" x="4747.19" y="-1816.22" font-family="Times New Roman,serif" font-size="14.00">investigates</text>
</g>
<!-- Entity90 -->
<g id="node52" class="node entity">
<title>Entity90</title>
<ellipse fill="none" stroke="black" cx="5331.34" cy="-2010.08" rx="27" ry="18"/>
<text text-anchor="start" x="5321.84" y="-2006.38" font-family="Times New Roman,serif" font-size="14.00">ufo</text>
</g>
<!-- Entity22&#45;&gt;Entity90 -->
<g id="edge62" class="edge verb">
<title>Entity22&#45;&gt;Entity90</title>
<path fill="none" stroke="black" d="M5180.97,-1812.02C5209.22,-1849.23 5279.18,-1941.38 5312.76,-1985.62"/>
<polygon fill="black" stroke="black" points="5310.14,-1987.95 5318.97,-1993.8 5315.71,-1983.72 5310.14,-1987.95"/>
<text text-anchor="start" x="5182.87" y="-1902.62" font-family="Times New Roman,serif" font-size="14.00">investigates</text>
</g>
<!-- Entity14 -->
<g id="node3" class="node entity">
<title>Entity14</title>
<ellipse fill="none" stroke="black" cx="2965.88" cy="-1036.97" rx="74.99" ry="18"/>
<text text-anchor="start" x="2916.38" y="-1033.27" font-family="Times New Roman,serif" font-size="14.00">gene roddenberry</text>
</g>
<!-- Entity8 -->
<g id="node4" class="node entity">
<title>Entity8</title>
<ellipse fill="none" stroke="black" cx="3291.11" cy="-1424.31" rx="38.19" ry="18"/>
<text text-anchor="start" x="3269.61" y="-1420.61" font-family="Times New Roman,serif" font-size="14.00">the nine</text>
</g>
<!-- Entity14&#45;&gt;Entity8 -->
<g id="edge2" class="edge verb">
<title>Entity14&#45;&gt;Entity8</title>
<path fill="none" stroke="black" d="M2980.7,-1054.62C3033.11,-1117.04 3209.8,-1327.47 3270.46,-1399.72"/>
<polygon fill="black" stroke="black" points="3267.84,-1402.03 3276.95,-1407.44 3273.2,-1397.53 3267.84,-1402.03"/>
<text text-anchor="start" x="3021.58" y="-1230.97" font-family="Times New Roman,serif" font-size="14.00">claiemd to channel</text>
</g>
<!-- Entity70 -->
<g id="node23" class="node entity">
<title>Entity70</title>
<ellipse fill="none" stroke="black" cx="3318.38" cy="-1316.25" rx="94.48" ry="18"/>
<text text-anchor="start" x="3253.88" y="-1312.55" font-family="Times New Roman,serif" font-size="14.00">egyptian gods in a ship</text>
</g>
<!-- Entity8&#45;&gt;Entity70 -->
<g id="edge16" class="edge verb">
<title>Entity8&#45;&gt;Entity70</title>
<path fill="none" stroke="black" d="M3295.74,-1405.98C3300.01,-1389.03 3306.43,-1363.61 3311.34,-1344.14"/>
<polygon fill="black" stroke="black" points="3314.77,-1344.86 3313.82,-1334.31 3307.98,-1343.15 3314.77,-1344.86"/>
<text text-anchor="start" x="3199.54" y="-1378.86" font-family="Times New Roman,serif" font-size="14.00">claimed to channel</text>
</g>
<!-- Entity16 -->
<g id="node5" class="node entity">
<title>Entity16</title>
<ellipse fill="none" stroke="black" cx="6453.39" cy="-1917.54" rx="68.49" ry="18"/>
<text text-anchor="start" x="6408.89" y="-1913.84" font-family="Times New Roman,serif" font-size="14.00">george hw bush</text>
</g>
<!-- Entity20 -->
<g id="node6" class="node entity">
<title>Entity20</title>
<ellipse fill="none" stroke="black" cx="6272.96" cy="-1777.93" rx="63.89" ry="18"/>
<text text-anchor="start" x="6231.96" y="-1774.23" font-family="Times New Roman,serif" font-size="14.00">george w bush</text>
</g>
<!-- Entity16&#45;&gt;Entity20 -->
<g id="edge3" class="edge verb">
<title>Entity16&#45;&gt;Entity20</title>
<path fill="none" stroke="black" d="M6431.26,-1900.42C6399.12,-1875.55 6339.39,-1829.34 6303.2,-1801.33"/>
<polygon fill="black" stroke="black" points="6305.03,-1798.32 6294.98,-1794.97 6300.75,-1803.86 6305.03,-1798.32"/>
<text text-anchor="start" x="6335.23" y="-1854.68" font-family="Times New Roman,serif" font-size="14.00">father</text>
</g>
<!-- Entity16&#45;&gt;Entity66 -->
<g id="edge20" class="edge verb">
<title>Entity16&#45;&gt;Entity66</title>
<path fill="none" stroke="black" d="M6385.23,-1919.15C6295.76,-1921.27 6141.45,-1924.91 6067.74,-1926.66"/>
<polygon fill="black" stroke="black" points="6067.39,-1923.16 6057.47,-1926.9 6067.55,-1930.16 6067.39,-1923.16"/>
<text text-anchor="start" x="6210.48" y="-1926.7" font-family="Times New Roman,serif" font-size="14.00">isa</text>
</g>
<!-- Entity20&#45;&gt;Entity66 -->
<g id="edge42" class="edge verb">
<title>Entity20&#45;&gt;Entity66</title>
<path fill="none" stroke="black" d="M6245.61,-1794.52C6199.16,-1822.7 6105.2,-1879.71 6056.7,-1909.13"/>
<polygon fill="black" stroke="black" points="6054.65,-1906.29 6047.91,-1914.47 6058.28,-1912.27 6054.65,-1906.29"/>
<text text-anchor="start" x="6135.15" y="-1855.63" font-family="Times New Roman,serif" font-size="14.00">isa</text>
</g>
<!-- Entity2 -->
<g id="node7" class="node entity">
<title>Entity2</title>
<ellipse fill="none" stroke="black" cx="3278.2" cy="-1837.07" rx="41.69" ry="18"/>
<text text-anchor="start" x="3254.2" y="-1833.37" font-family="Times New Roman,serif" font-size="14.00">uri geller</text>
</g>
<!-- Entity2&#45;&gt;Entity8 -->
<g id="edge4" class="edge verb">
<title>Entity2&#45;&gt;Entity8</title>
<path fill="none" stroke="black" d="M3278.76,-1819.07C3280.79,-1754.16 3287.75,-1531.79 3290.23,-1452.6"/>
<polygon fill="black" stroke="black" points="3293.73,-1452.51 3290.55,-1442.41 3286.74,-1452.29 3293.73,-1452.51"/>
<text text-anchor="start" x="3180.5" y="-1639.63" font-family="Times New Roman,serif" font-size="14.00">claiemd to channel</text>
</g>
<!-- Entity26 -->
<g id="node8" class="node entity">
<title>Entity26</title>
<ellipse fill="none" stroke="black" cx="1103.49" cy="-1591.46" rx="49.29" ry="18"/>
<text text-anchor="start" x="1073.49" y="-1587.76" font-family="Times New Roman,serif" font-size="14.00">adolf hitler</text>
</g>
<!-- Entity28 -->
<g id="node9" class="node entity">
<title>Entity28</title>
<ellipse fill="none" stroke="black" cx="1443.58" cy="-1804.37" rx="32.49" ry="18"/>
<text text-anchor="start" x="1426.58" y="-1800.67" font-family="Times New Roman,serif" font-size="14.00">nsdap</text>
</g>
<!-- Entity26&#45;&gt;Entity28 -->
<g id="edge5" class="edge verb">
<title>Entity26&#45;&gt;Entity28</title>
<path fill="none" stroke="black" d="M1128.5,-1607.12C1189.59,-1645.36 1346.28,-1743.46 1412.89,-1785.15"/>
<polygon fill="black" stroke="black" points="1411.33,-1788.31 1421.67,-1790.65 1415.05,-1782.38 1411.33,-1788.31"/>
<text text-anchor="start" x="1229.69" y="-1699.94" font-family="Times New Roman,serif" font-size="14.00">created</text>
</g>
<!-- Entity75 -->
<g id="node31" class="node entity">
<title>Entity75</title>
<ellipse fill="none" stroke="black" cx="985.38" cy="-1839.37" rx="38.99" ry="18"/>
<text text-anchor="start" x="963.38" y="-1835.67" font-family="Times New Roman,serif" font-size="14.00">far right</text>
</g>
<!-- Entity28&#45;&gt;Entity75 -->
<g id="edge29" class="edge verb">
<title>Entity28&#45;&gt;Entity75</title>
<path fill="none" stroke="black" d="M1411.36,-1806.83C1332.23,-1812.87 1127.98,-1828.48 1034.01,-1835.66"/>
<polygon fill="black" stroke="black" points="1033.62,-1832.18 1023.92,-1836.43 1034.15,-1839.16 1033.62,-1832.18"/>
<text text-anchor="start" x="1161.68" y="-1825.04" font-family="Times New Roman,serif" font-size="14.00">member of</text>
</g>
<!-- Entity15 -->
<g id="node10" class="node entity">
<title>Entity15</title>
<ellipse fill="none" stroke="black" cx="6486.24" cy="-1663.1" rx="59.59" ry="18"/>
<text text-anchor="start" x="6448.24" y="-1659.4" font-family="Times New Roman,serif" font-size="14.00">donald trump</text>
</g>
<!-- Entity48 -->
<g id="node11" class="node entity">
<title>Entity48</title>
<ellipse fill="none" stroke="black" cx="5769.74" cy="-1729.27" rx="50.09" ry="18"/>
<text text-anchor="start" x="5739.24" y="-1725.57" font-family="Times New Roman,serif" font-size="14.00">john trump</text>
</g>
<!-- Entity15&#45;&gt;Entity48 -->
<g id="edge6" class="edge verb">
<title>Entity15&#45;&gt;Entity48</title>
<path fill="none" stroke="black" d="M6428.82,-1668.4C6294.99,-1680.76 5963.51,-1711.37 5828.43,-1723.85"/>
<polygon fill="black" stroke="black" points="5827.92,-1720.38 5818.28,-1724.78 5828.56,-1727.35 5827.92,-1720.38"/>
<text text-anchor="start" x="6069.63" y="-1699.92" font-family="Times New Roman,serif" font-size="14.00">nephew of</text>
</g>
<!-- Entity15&#45;&gt;Entity66 -->
<g id="edge27" class="edge verb">
<title>Entity15&#45;&gt;Entity66</title>
<path fill="none" stroke="black" d="M6458.5,-1679.05C6377.61,-1725.56 6142.37,-1860.84 6057.33,-1909.74"/>
<polygon fill="black" stroke="black" points="6055.34,-1906.84 6048.42,-1914.86 6058.83,-1912.91 6055.34,-1906.84"/>
<text text-anchor="start" x="6241.92" y="-1798.19" font-family="Times New Roman,serif" font-size="14.00">isa</text>
</g>
<!-- Entity48&#45;&gt;Entity22 -->
<g id="edge10" class="edge verb">
<title>Entity48&#45;&gt;Entity22</title>
<path fill="none" stroke="black" d="M5721.82,-1734.58C5605.41,-1747.49 5309.63,-1780.3 5205.61,-1791.84"/>
<polygon fill="black" stroke="black" points="5205.14,-1788.37 5195.59,-1792.95 5205.91,-1795.32 5205.14,-1788.37"/>
<text text-anchor="start" x="5402.72" y="-1767.01" font-family="Times New Roman,serif" font-size="14.00">member of</text>
</g>
<!-- Entity82 -->
<g id="node41" class="node entity">
<title>Entity82</title>
<ellipse fill="none" stroke="black" cx="5767.15" cy="-1621.26" rx="50.89" ry="18"/>
<text text-anchor="start" x="5736.15" y="-1617.56" font-family="Times New Roman,serif" font-size="14.00">nikola tesla</text>
</g>
<!-- Entity48&#45;&gt;Entity82 -->
<g id="edge40" class="edge verb">
<title>Entity48&#45;&gt;Entity82</title>
<path fill="none" stroke="black" d="M5769.3,-1710.95C5768.89,-1694.09 5768.29,-1668.83 5767.82,-1649.41"/>
<polygon fill="black" stroke="black" points="5771.32,-1649.23 5767.58,-1639.31 5764.32,-1649.39 5771.32,-1649.23"/>
<text text-anchor="start" x="5727.56" y="-1683.98" font-family="Times New Roman,serif" font-size="14.00">studied</text>
</g>
<!-- Entity5 -->
<g id="node12" class="node entity">
<title>Entity5</title>
<ellipse fill="none" stroke="black" cx="3572.55" cy="-1776.07" rx="56.59" ry="18"/>
<text text-anchor="start" x="3537.05" y="-1772.37" font-family="Times New Roman,serif" font-size="14.00">arthur young</text>
</g>
<!-- Entity5&#45;&gt;Entity8 -->
<g id="edge7" class="edge verb">
<title>Entity5&#45;&gt;Entity8</title>
<path fill="none" stroke="black" d="M3558.6,-1758.63C3512.54,-1701.06 3365.25,-1516.97 3311.23,-1449.45"/>
<polygon fill="black" stroke="black" points="3313.8,-1447.07 3304.82,-1441.44 3308.34,-1451.44 3313.8,-1447.07"/>
<text text-anchor="start" x="3372.91" y="-1607.84" font-family="Times New Roman,serif" font-size="14.00">member&#45;of</text>
</g>
<!-- Entity5&#45;&gt;Entity67 -->
<g id="edge18" class="edge verb">
<title>Entity5&#45;&gt;Entity67</title>
<path fill="none" stroke="black" d="M3628.09,-1779.82C3769.15,-1789.36 4141.88,-1814.55 4310.16,-1825.93"/>
<polygon fill="black" stroke="black" points="4310,-1829.42 4320.21,-1826.61 4310.47,-1822.44 4310,-1829.42"/>
<text text-anchor="start" x="3928.13" y="-1806.67" font-family="Times New Roman,serif" font-size="14.00">studied</text>
</g>
<!-- Entity72 -->
<g id="node28" class="node entity">
<title>Entity72</title>
<ellipse fill="none" stroke="black" cx="2845.86" cy="-1826.18" rx="53.89" ry="18"/>
<text text-anchor="start" x="2812.36" y="-1822.48" font-family="Times New Roman,serif" font-size="14.00">bell aviation</text>
</g>
<!-- Entity5&#45;&gt;Entity72 -->
<g id="edge24" class="edge verb">
<title>Entity5&#45;&gt;Entity72</title>
<path fill="none" stroke="black" d="M3517.04,-1779.9C3384.33,-1789.05 3049.34,-1812.15 2909.12,-1821.82"/>
<polygon fill="black" stroke="black" points="2908.7,-1818.34 2898.96,-1822.52 2909.18,-1825.33 2908.7,-1818.34"/>
<text text-anchor="start" x="3172.08" y="-1804.66" font-family="Times New Roman,serif" font-size="14.00">created</text>
</g>
<!-- Entity1 -->
<g id="node13" class="node entity">
<title>Entity1</title>
<ellipse fill="none" stroke="black" cx="3009.49" cy="-2224.28" rx="64.19" ry="18"/>
<text text-anchor="start" x="2967.99" y="-2220.58" font-family="Times New Roman,serif" font-size="14.00">andre puharich</text>
</g>
<!-- Entity1&#45;&gt;Entity2 -->
<g id="edge8" class="edge verb">
<title>Entity1&#45;&gt;Entity2</title>
<path fill="none" stroke="black" d="M3021.91,-2206.38C3065.17,-2144.05 3209.31,-1936.33 3260.21,-1862.99"/>
<polygon fill="black" stroke="black" points="3263.39,-1864.55 3266.22,-1854.34 3257.64,-1860.56 3263.39,-1864.55"/>
<text text-anchor="start" x="3081.06" y="-2038.48" font-family="Times New Roman,serif" font-size="14.00">sponsored</text>
</g>
<!-- Entity7 -->
<g id="node14" class="node entity">
<title>Entity7</title>
<ellipse fill="none" stroke="black" cx="3776.89" cy="-1928.17" rx="68.49" ry="18"/>
<text text-anchor="start" x="3732.39" y="-1924.47" font-family="Times New Roman,serif" font-size="14.00">jeffrey mishlove</text>
</g>
<!-- Entity7&#45;&gt;Entity2 -->
<g id="edge9" class="edge verb">
<title>Entity7&#45;&gt;Entity2</title>
<path fill="none" stroke="black" d="M3720.66,-1917.9C3622.08,-1899.89 3419.74,-1862.93 3326.82,-1845.95"/>
<polygon fill="black" stroke="black" points="3327.31,-1842.48 3316.84,-1844.13 3326.05,-1849.37 3327.31,-1842.48"/>
<text text-anchor="start" x="3468.74" y="-1885.72" font-family="Times New Roman,serif" font-size="14.00">promoted</text>
</g>
<!-- Entity7&#45;&gt;Entity67 -->
<g id="edge19" class="edge verb">
<title>Entity7&#45;&gt;Entity67</title>
<path fill="none" stroke="black" d="M3841.64,-1922.42C3960.17,-1907.17 4210.74,-1868.04 4329.57,-1846.24"/>
<polygon fill="black" stroke="black" points="4330.42,-1849.64 4339.61,-1844.38 4329.14,-1842.76 4330.42,-1849.64"/>
<text text-anchor="start" x="4044.6" y="-1888.13" font-family="Times New Roman,serif" font-size="14.00">studied</text>
</g>
<!-- Entity7&#45;&gt;Entity67 -->
<g id="edge26" class="edge verb">
<title>Entity7&#45;&gt;Entity67</title>
<path fill="none" stroke="black" d="M3827.9,-1916.21C3934.67,-1896.04 4182.51,-1857.04 4312.23,-1839.72"/>
<polygon fill="black" stroke="black" points="4313.05,-1843.14 4322.5,-1838.36 4312.13,-1836.2 4313.05,-1843.14"/>
<text text-anchor="start" x="4006.06" y="-1866.76" font-family="Times New Roman,serif" font-size="14.00">investigates</text>
</g>
<!-- Entity30 -->
<g id="node15" class="node entity">
<title>Entity30</title>
<ellipse fill="none" stroke="black" cx="2085.84" cy="-1886.74" rx="74.99" ry="18"/>
<text text-anchor="start" x="2036.34" y="-1883.04" font-family="Times New Roman,serif" font-size="14.00">walter dornberger</text>
</g>
<!-- Entity30&#45;&gt;Entity28 -->
<g id="edge11" class="edge verb">
<title>Entity30&#45;&gt;Entity28</title>
<path fill="none" stroke="black" d="M2019.83,-1878.27C1887.72,-1861.33 1594.2,-1823.68 1485.3,-1809.72"/>
<polygon fill="black" stroke="black" points="1485.71,-1806.24 1475.35,-1808.44 1484.82,-1813.18 1485.71,-1806.24"/>
<text text-anchor="start" x="1691.56" y="-1847.79" font-family="Times New Roman,serif" font-size="14.00">member of</text>
</g>
<!-- Entity30&#45;&gt;Entity72 -->
<g id="edge35" class="edge verb">
<title>Entity30&#45;&gt;Entity72</title>
<path fill="none" stroke="black" d="M2160.43,-1885.02C2311.06,-1876.53 2648.84,-1849.5 2786.13,-1834.81"/>
<polygon fill="black" stroke="black" points="2786.88,-1838.25 2796.44,-1833.69 2786.12,-1831.29 2786.88,-1838.25"/>
<text text-anchor="start" x="2394.28" y="-1863.71" font-family="Times New Roman,serif" font-size="14.00">vice&#45;president</text>
</g>
<!-- Entity30&#45;&gt;Entity72 -->
<g id="edge49" class="edge verb">
<title>Entity30&#45;&gt;Entity72</title>
<path fill="none" stroke="black" d="M2150.33,-1877.61C2293.79,-1862.47 2638,-1835.05 2781.43,-1827.34"/>
<polygon fill="black" stroke="black" points="2782.01,-1830.82 2791.81,-1826.8 2781.64,-1823.83 2782.01,-1830.82"/>
<text text-anchor="start" x="2409.88" y="-1841.27" font-family="Times New Roman,serif" font-size="14.00">worked at</text>
</g>
<!-- Entity76 -->
<g id="node35" class="node entity">
<title>Entity76</title>
<ellipse fill="none" stroke="black" cx="1562.33" cy="-2107.49" rx="90.98" ry="18"/>
<text text-anchor="start" x="1500.33" y="-2103.79" font-family="Times New Roman,serif" font-size="14.00">nsdap rocket program</text>
</g>
<!-- Entity30&#45;&gt;Entity76 -->
<g id="edge36" class="edge verb">
<title>Entity30&#45;&gt;Entity76</title>
<path fill="none" stroke="black" d="M2048.61,-1902.44C1955.74,-1941.6 1713.87,-2043.59 1610.41,-2087.21"/>
<polygon fill="black" stroke="black" points="1608.99,-2084.02 1601.13,-2091.13 1611.71,-2090.47 1608.99,-2084.02"/>
<text text-anchor="start" x="1788.51" y="-1998.63" font-family="Times New Roman,serif" font-size="14.00">created</text>
</g>
<!-- Entity104 -->
<g id="node55" class="node entity">
<title>Entity104</title>
<ellipse fill="none" stroke="black" cx="1769.22" cy="-2383.02" rx="65.79" ry="18"/>
<text text-anchor="start" x="1726.72" y="-2379.32" font-family="Times New Roman,serif" font-size="14.00">x series aircraft</text>
</g>
<!-- Entity30&#45;&gt;Entity104 -->
<g id="edge59" class="edge verb">
<title>Entity30&#45;&gt;Entity104</title>
<path fill="none" stroke="black" d="M2074.39,-1904.69C2026.58,-1979.62 1842.86,-2267.6 1786.05,-2356.64"/>
<polygon fill="black" stroke="black" points="1783.09,-2354.78 1780.66,-2365.09 1788.99,-2358.54 1783.09,-2354.78"/>
<text text-anchor="start" x="1889.22" y="-2134.47" font-family="Times New Roman,serif" font-size="14.00">created</text>
</g>
<!-- Entity32 -->
<g id="node16" class="node entity">
<title>Entity32</title>
<ellipse fill="none" stroke="black" cx="1698.72" cy="-1999.5" rx="46.29" ry="18"/>
<text text-anchor="start" x="1671.22" y="-1995.8" font-family="Times New Roman,serif" font-size="14.00">van braun</text>
</g>
<!-- Entity32&#45;&gt;Entity30 -->
<g id="edge12" class="edge verb">
<title>Entity32&#45;&gt;Entity30</title>
<path fill="none" stroke="black" d="M1735.84,-1988.68C1803.53,-1968.97 1947.47,-1927.04 2028.08,-1903.56"/>
<polygon fill="black" stroke="black" points="2029.45,-1906.81 2038.07,-1900.65 2027.49,-1900.09 2029.45,-1906.81"/>
<text text-anchor="start" x="1818.96" y="-1949.92" font-family="Times New Roman,serif" font-size="14.00">worked for</text>
</g>
<!-- Entity32&#45;&gt;Entity76 -->
<g id="edge48" class="edge verb">
<title>Entity32&#45;&gt;Entity76</title>
<path fill="none" stroke="black" d="M1678.3,-2015.66C1655.64,-2033.61 1618.82,-2062.76 1592.76,-2083.4"/>
<polygon fill="black" stroke="black" points="1590.37,-2080.82 1584.7,-2089.77 1594.72,-2086.31 1590.37,-2080.82"/>
<text text-anchor="start" x="1579.53" y="-2053.33" font-family="Times New Roman,serif" font-size="14.00">worked at</text>
</g>
<!-- Entity29 -->
<g id="node17" class="node entity">
<title>Entity29</title>
<ellipse fill="none" stroke="black" cx="5288.3" cy="-2705.72" rx="37.89" ry="18"/>
<text text-anchor="start" x="5267.3" y="-2702.02" font-family="Times New Roman,serif" font-size="14.00">hunt oil</text>
</g>
<!-- Entity36 -->
<g id="node18" class="node entity">
<title>Entity36</title>
<ellipse fill="none" stroke="black" cx="5502.57" cy="-2213.37" rx="77.99" ry="18"/>
<text text-anchor="start" x="5450.57" y="-2209.67" font-family="Times New Roman,serif" font-size="14.00">dwight eisenhower</text>
</g>
<!-- Entity29&#45;&gt;Entity36 -->
<g id="edge13" class="edge verb">
<title>Entity29&#45;&gt;Entity36</title>
<path fill="none" stroke="black" d="M5296.05,-2687.91C5328.27,-2613.88 5451.7,-2330.24 5490.69,-2240.66"/>
<polygon fill="black" stroke="black" points="5493.93,-2241.99 5494.71,-2231.42 5487.51,-2239.19 5493.93,-2241.99"/>
<text text-anchor="start" x="5353.37" y="-2468.08" font-family="Times New Roman,serif" font-size="14.00">funded</text>
</g>
<!-- Entity36&#45;&gt;Entity66 -->
<g id="edge34" class="edge verb">
<title>Entity36&#45;&gt;Entity66</title>
<path fill="none" stroke="black" d="M5532.98,-2196.77C5625.1,-2146.51 5900.44,-1996.26 5994.38,-1945"/>
<polygon fill="black" stroke="black" points="5996.3,-1947.94 6003.41,-1940.08 5992.95,-1941.79 5996.3,-1947.94"/>
<text text-anchor="start" x="5744.68" y="-2074.69" font-family="Times New Roman,serif" font-size="14.00">is a</text>
</g>
<!-- Entity11 -->
<g id="node19" class="node entity">
<title>Entity11</title>
<ellipse fill="none" stroke="black" cx="6495.31" cy="-2183.29" rx="56.59" ry="18"/>
<text text-anchor="start" x="6459.81" y="-2179.59" font-family="Times New Roman,serif" font-size="14.00">harry truman</text>
</g>
<!-- Entity11&#45;&gt;Entity66 -->
<g id="edge14" class="edge verb">
<title>Entity11&#45;&gt;Entity66</title>
<path fill="none" stroke="black" d="M6466.67,-2167.69C6383.85,-2122.55 6144.48,-1992.1 6057.92,-1944.92"/>
<polygon fill="black" stroke="black" points="6059.53,-1941.82 6049.08,-1940.1 6056.18,-1947.96 6059.53,-1941.82"/>
<text text-anchor="start" x="6246.29" y="-2060.1" font-family="Times New Roman,serif" font-size="14.00">isa</text>
</g>
<!-- Entity69 -->
<g id="node24" class="node entity">
<title>Entity69</title>
<ellipse fill="none" stroke="black" cx="6867.83" cy="-2553.94" rx="55.79" ry="18"/>
<text text-anchor="start" x="6832.83" y="-2550.24" font-family="Times New Roman,serif" font-size="14.00">freemasonry</text>
</g>
<!-- Entity11&#45;&gt;Entity69 -->
<g id="edge17" class="edge verb">
<title>Entity11&#45;&gt;Entity69</title>
<path fill="none" stroke="black" d="M6512.78,-2200.67C6573.15,-2260.74 6773.13,-2459.72 6843.26,-2529.5"/>
<polygon fill="black" stroke="black" points="6840.84,-2532.03 6850.4,-2536.6 6845.78,-2527.07 6840.84,-2532.03"/>
<text text-anchor="start" x="6617.02" y="-2368.89" font-family="Times New Roman,serif" font-size="14.00">member of</text>
</g>
<!-- Entity63 -->
<g id="node21" class="node entity">
<title>Entity63</title>
<ellipse fill="none" stroke="black" cx="5839.76" cy="-2893.48" rx="53.89" ry="18"/>
<text text-anchor="start" x="5806.26" y="-2889.78" font-family="Times New Roman,serif" font-size="14.00">edgar casey</text>
</g>
<!-- Entity59 -->
<g id="node22" class="node entity">
<title>Entity59</title>
<ellipse fill="none" stroke="black" cx="5764.14" cy="-2321.55" rx="71.49" ry="18"/>
<text text-anchor="start" x="5717.14" y="-2317.85" font-family="Times New Roman,serif" font-size="14.00">woodrow wilson</text>
</g>
<!-- Entity63&#45;&gt;Entity59 -->
<g id="edge15" class="edge verb">
<title>Entity63&#45;&gt;Entity59</title>
<path fill="none" stroke="black" d="M5837.38,-2875.42C5826.45,-2792.8 5781.2,-2450.55 5767.86,-2349.66"/>
<polygon fill="black" stroke="black" points="5771.31,-2349.07 5766.53,-2339.62 5764.37,-2349.99 5771.31,-2349.07"/>
<text text-anchor="start" x="5760.62" y="-2616.34" font-family="Times New Roman,serif" font-size="14.00">advises</text>
</g>
<!-- Entity59&#45;&gt;Entity66 -->
<g id="edge30" class="edge verb">
<title>Entity59&#45;&gt;Entity66</title>
<path fill="none" stroke="black" d="M5776.08,-2303.6C5818.14,-2240.38 5959.53,-2027.86 6008.96,-1953.55"/>
<polygon fill="black" stroke="black" points="6012.16,-1955.06 6014.79,-1944.8 6006.33,-1951.18 6012.16,-1955.06"/>
<text text-anchor="start" x="5876.52" y="-2132.38" font-family="Times New Roman,serif" font-size="14.00">isa</text>
</g>
<!-- Entity92 -->
<g id="node50" class="node entity">
<title>Entity92</title>
<ellipse fill="none" stroke="black" cx="5696.53" cy="-2429.56" rx="71.49" ry="18"/>
<text text-anchor="start" x="5649.53" y="-2425.86" font-family="Times New Roman,serif" font-size="14.00">leauge of nations</text>
</g>
<!-- Entity59&#45;&gt;Entity92 -->
<g id="edge54" class="edge verb">
<title>Entity59&#45;&gt;Entity92</title>
<path fill="none" stroke="black" d="M5752.98,-2339.39C5742.11,-2356.74 5725.48,-2383.32 5713.08,-2403.13"/>
<polygon fill="black" stroke="black" points="5710.05,-2401.36 5707.71,-2411.7 5715.98,-2405.08 5710.05,-2401.36"/>
<text text-anchor="start" x="5692.03" y="-2375.06" font-family="Times New Roman,serif" font-size="14.00">created</text>
</g>
<!-- Entity18 -->
<g id="node26" class="node entity">
<title>Entity18</title>
<ellipse fill="none" stroke="black" cx="6222.98" cy="-2291.34" rx="35.19" ry="18"/>
<text text-anchor="start" x="6203.98" y="-2287.64" font-family="Times New Roman,serif" font-size="14.00">obama</text>
</g>
<!-- Entity18&#45;&gt;Entity66 -->
<g id="edge21" class="edge verb">
<title>Entity18&#45;&gt;Entity66</title>
<path fill="none" stroke="black" d="M6213.49,-2273.8C6181.67,-2214.98 6078.62,-2024.52 6040.53,-1954.12"/>
<polygon fill="black" stroke="black" points="6043.44,-1952.13 6035.6,-1945 6037.28,-1955.46 6043.44,-1952.13"/>
<text text-anchor="start" x="6111.01" y="-2117.76" font-family="Times New Roman,serif" font-size="14.00">isa</text>
</g>
<!-- Entity12 -->
<g id="node27" class="node entity">
<title>Entity12</title>
<ellipse fill="none" stroke="black" cx="5942.11" cy="-2213.34" rx="58.49" ry="18"/>
<text text-anchor="start" x="5905.11" y="-2209.64" font-family="Times New Roman,serif" font-size="14.00">richard nixon</text>
</g>
<!-- Entity12&#45;&gt;Entity66 -->
<g id="edge22" class="edge verb">
<title>Entity12&#45;&gt;Entity66</title>
<path fill="none" stroke="black" d="M5947.49,-2195.03C5961.83,-2146.34 6000.96,-2013.39 6018.04,-1955.35"/>
<polygon fill="black" stroke="black" points="6021.5,-1956.01 6020.97,-1945.43 6014.79,-1954.03 6021.5,-1956.01"/>
<text text-anchor="start" x="5966.77" y="-2078.99" font-family="Times New Roman,serif" font-size="14.00">isa</text>
</g>
<!-- Entity24 -->
<g id="node29" class="node entity">
<title>Entity24</title>
<ellipse fill="none" stroke="black" cx="4246.95" cy="-1939.63" rx="63.89" ry="18"/>
<text text-anchor="start" x="4205.95" y="-1935.93" font-family="Times New Roman,serif" font-size="14.00">robert bigelow</text>
</g>
<!-- Entity24&#45;&gt;Entity7 -->
<g id="edge25" class="edge verb">
<title>Entity24&#45;&gt;Entity7</title>
<path fill="none" stroke="black" d="M4183.06,-1938.07C4097.9,-1935.99 3947.25,-1932.32 3855.3,-1930.08"/>
<polygon fill="black" stroke="black" points="3855.29,-1926.58 3845.21,-1929.83 3855.12,-1933.58 3855.29,-1926.58"/>
<text text-anchor="start" x="3987.18" y="-1937.88" font-family="Times New Roman,serif" font-size="14.00">funds</text>
</g>
<!-- Entity24&#45;&gt;Entity67 -->
<g id="edge45" class="edge verb">
<title>Entity24&#45;&gt;Entity67</title>
<path fill="none" stroke="black" d="M4270.04,-1922.76C4294.9,-1904.59 4334.64,-1875.54 4362.56,-1855.14"/>
<polygon fill="black" stroke="black" points="4364.81,-1857.84 4370.82,-1849.11 4360.68,-1852.19 4364.81,-1857.84"/>
<text text-anchor="start" x="4252.3" y="-1892.75" font-family="Times New Roman,serif" font-size="14.00">investigates</text>
</g>
<!-- Entity44 -->
<g id="node30" class="node entity">
<title>Entity44</title>
<ellipse fill="none" stroke="black" cx="7266.51" cy="-1517.68" rx="58.49" ry="18"/>
<text text-anchor="start" x="7229.51" y="-1513.98" font-family="Times New Roman,serif" font-size="14.00">steve bannon</text>
</g>
<!-- Entity44&#45;&gt;Entity15 -->
<g id="edge28" class="edge verb">
<title>Entity44&#45;&gt;Entity15</title>
<path fill="none" stroke="black" d="M7211.9,-1524.15C7068.99,-1546.59 6685.11,-1618.11 6541.48,-1649.04"/>
<polygon fill="black" stroke="black" points="6540.59,-1645.65 6531.56,-1651.19 6542.08,-1652.49 6540.59,-1645.65"/>
<text text-anchor="start" x="6821.69" y="-1590.4" font-family="Times New Roman,serif" font-size="14.00">promoted</text>
</g>
<!-- Entity44&#45;&gt;Entity15 -->
<g id="edge64" class="edge verb">
<title>Entity44&#45;&gt;Entity15</title>
<path fill="none" stroke="black" d="M7221.8,-1529.45C7090.8,-1558.23 6707.35,-1629.89 6552.37,-1654.79"/>
<polygon fill="black" stroke="black" points="6551.38,-1651.4 6542.05,-1656.43 6552.48,-1658.32 6551.38,-1651.4"/>
<text text-anchor="start" x="6887.09" y="-1595.92" font-family="Times New Roman,serif" font-size="14.00">advises</text>
</g>
<!-- Entity83 -->
<g id="node40" class="node entity">
<title>Entity83</title>
<ellipse fill="none" stroke="black" cx="7889.98" cy="-1566.27" rx="61.99" ry="18"/>
<text text-anchor="start" x="7850.48" y="-1562.57" font-family="Times New Roman,serif" font-size="14.00">breitbart news</text>
</g>
<!-- Entity44&#45;&gt;Entity83 -->
<g id="edge46" class="edge verb">
<title>Entity44&#45;&gt;Entity83</title>
<path fill="none" stroke="black" d="M7323.49,-1522.12C7437.96,-1531.04 7695.51,-1551.11 7819.99,-1560.81"/>
<polygon fill="black" stroke="black" points="7819.93,-1564.32 7830.17,-1561.61 7820.47,-1557.34 7819.93,-1564.32"/>
<text text-anchor="start" x="7530.74" y="-1545.27" font-family="Times New Roman,serif" font-size="14.00">created</text>
</g>
<!-- Entity89 -->
<g id="node49" class="node entity">
<title>Entity89</title>
<ellipse fill="none" stroke="black" cx="7468.45" cy="-1113.95" rx="35.19" ry="18"/>
<text text-anchor="start" x="7449.45" y="-1110.25" font-family="Times New Roman,serif" font-size="14.00">gurgev</text>
</g>
<!-- Entity44&#45;&gt;Entity89 -->
<g id="edge53" class="edge verb">
<title>Entity44&#45;&gt;Entity89</title>
<path fill="none" stroke="black" d="M7275.45,-1499.81C7307.51,-1435.71 7416.86,-1217.09 7455.11,-1140.62"/>
<polygon fill="black" stroke="black" points="7458.27,-1142.12 7459.61,-1131.61 7452.01,-1138.99 7458.27,-1142.12"/>
<text text-anchor="start" x="7324.28" y="-1324.02" font-family="Times New Roman,serif" font-size="14.00">studied</text>
</g>
<!-- Entity91 -->
<g id="node51" class="node entity">
<title>Entity91</title>
<ellipse fill="none" stroke="black" cx="7713.72" cy="-1458.25" rx="38.19" ry="18"/>
<text text-anchor="start" x="7692.22" y="-1454.55" font-family="Times New Roman,serif" font-size="14.00">us navy</text>
</g>
<!-- Entity44&#45;&gt;Entity91 -->
<g id="edge55" class="edge verb">
<title>Entity44&#45;&gt;Entity91</title>
<path fill="none" stroke="black" d="M7320.45,-1510.51C7408.88,-1498.76 7583.17,-1475.6 7666.8,-1464.49"/>
<polygon fill="black" stroke="black" points="7667.32,-1467.95 7676.78,-1463.16 7666.4,-1461.01 7667.32,-1467.95"/>
<text text-anchor="start" x="7432.63" y="-1491.3" font-family="Times New Roman,serif" font-size="14.00">member of</text>
</g>
<!-- Entity94 -->
<g id="node53" class="node entity">
<title>Entity94</title>
<ellipse fill="none" stroke="black" cx="7438.61" cy="-1409.68" rx="53.09" ry="18"/>
<text text-anchor="start" x="7405.61" y="-1405.98" font-family="Times New Roman,serif" font-size="14.00">biosphere 2</text>
</g>
<!-- Entity44&#45;&gt;Entity94 -->
<g id="edge57" class="edge verb">
<title>Entity44&#45;&gt;Entity94</title>
<path fill="none" stroke="black" d="M7292.27,-1501.51C7322.1,-1482.8 7371.35,-1451.89 7404.37,-1431.17"/>
<polygon fill="black" stroke="black" points="7406.62,-1433.89 7413.23,-1425.61 7402.9,-1427.96 7406.62,-1433.89"/>
<text text-anchor="start" x="7307.32" y="-1470.14" font-family="Times New Roman,serif" font-size="14.00">created</text>
</g>
<!-- Entity107 -->
<g id="node58" class="node entity">
<title>Entity107</title>
<ellipse fill="none" stroke="black" cx="7805.7" cy="-1220.05" rx="77.19" ry="18"/>
<text text-anchor="start" x="7754.2" y="-1216.35" font-family="Times New Roman,serif" font-size="14.00">hollywood movies</text>
</g>
<!-- Entity44&#45;&gt;Entity107 -->
<g id="edge61" class="edge verb">
<title>Entity44&#45;&gt;Entity107</title>
<path fill="none" stroke="black" d="M7295.12,-1501.89C7385.25,-1452.14 7663.46,-1298.57 7766.65,-1241.61"/>
<polygon fill="black" stroke="black" points="7768.44,-1244.62 7775.51,-1236.72 7765.06,-1238.49 7768.44,-1244.62"/>
<text text-anchor="start" x="7475.88" y="-1375.55" font-family="Times New Roman,serif" font-size="14.00">produced</text>
</g>
<!-- Entity111 -->
<g id="node59" class="node entity">
<title>Entity111</title>
<ellipse fill="none" stroke="black" cx="7723.24" cy="-1828.74" rx="64.99" ry="18"/>
<text text-anchor="start" x="7681.24" y="-1825.04" font-family="Times New Roman,serif" font-size="14.00">goldman sachs</text>
</g>
<!-- Entity44&#45;&gt;Entity111 -->
<g id="edge66" class="edge verb">
<title>Entity44&#45;&gt;Entity111</title>
<path fill="none" stroke="black" d="M7290.74,-1534.19C7367.05,-1586.16 7602.51,-1746.51 7690.03,-1806.12"/>
<polygon fill="black" stroke="black" points="7688.28,-1809.16 7698.51,-1811.9 7692.22,-1803.38 7688.28,-1809.16"/>
<text text-anchor="start" x="7427.39" y="-1673.95" font-family="Times New Roman,serif" font-size="14.00">worked for</text>
</g>
<!-- Entity33 -->
<g id="node32" class="node entity">
<title>Entity33</title>
<ellipse fill="none" stroke="black" cx="2388.22" cy="-1778.76" rx="57.69" ry="18"/>
<text text-anchor="start" x="2351.72" y="-1775.06" font-family="Times New Roman,serif" font-size="14.00">michael pane</text>
</g>
<!-- Entity33&#45;&gt;Entity30 -->
<g id="edge47" class="edge verb">
<title>Entity33&#45;&gt;Entity30</title>
<path fill="none" stroke="black" d="M2349.92,-1792.43C2296.03,-1811.68 2197.68,-1846.8 2137.4,-1868.32"/>
<polygon fill="black" stroke="black" points="2135.94,-1865.13 2127.7,-1871.79 2138.3,-1871.72 2135.94,-1865.13"/>
<text text-anchor="start" x="2180.66" y="-1834.18" font-family="Times New Roman,serif" font-size="14.00">worked for</text>
</g>
<!-- Entity33&#45;&gt;Entity72 -->
<g id="edge31" class="edge verb">
<title>Entity33&#45;&gt;Entity72</title>
<path fill="none" stroke="black" d="M2443.42,-1784.48C2529.38,-1793.38 2694.63,-1810.51 2784.31,-1819.81"/>
<polygon fill="black" stroke="black" points="2784.03,-1823.29 2794.34,-1820.84 2784.75,-1816.33 2784.03,-1823.29"/>
<text text-anchor="start" x="2557.87" y="-1805.94" font-family="Times New Roman,serif" font-size="14.00">worked at</text>
</g>
<!-- Entity45 -->
<g id="node33" class="node entity">
<title>Entity45</title>
<ellipse fill="none" stroke="black" cx="6145.66" cy="-1341.27" rx="67.69" ry="18"/>
<text text-anchor="start" x="6101.66" y="-1337.57" font-family="Times New Roman,serif" font-size="14.00">abraham lincoln</text>
</g>
<!-- Entity45&#45;&gt;Entity66 -->
<g id="edge32" class="edge verb">
<title>Entity45&#45;&gt;Entity66</title>
<path fill="none" stroke="black" d="M6141.95,-1359.46C6124.76,-1443.85 6052.74,-1797.39 6031.88,-1899.76"/>
<polygon fill="black" stroke="black" points="6028.43,-1899.16 6029.87,-1909.66 6035.29,-1900.56 6028.43,-1899.16"/>
<text text-anchor="start" x="6070.92" y="-1633.41" font-family="Times New Roman,serif" font-size="14.00">isa</text>
</g>
<!-- Entity38 -->
<g id="node34" class="node entity">
<title>Entity38</title>
<ellipse fill="none" stroke="black" cx="6245.74" cy="-578.96" rx="90.98" ry="18"/>
<text text-anchor="start" x="6183.74" y="-575.26" font-family="Times New Roman,serif" font-size="14.00">emma hardinge&#45;britten</text>
</g>
<!-- Entity38&#45;&gt;Entity45 -->
<g id="edge33" class="edge verb">
<title>Entity38&#45;&gt;Entity45</title>
<path fill="none" stroke="black" d="M6243.37,-597.05C6230.15,-697.73 6165.67,-1188.84 6149.39,-1312.81"/>
<polygon fill="black" stroke="black" points="6145.89,-1312.64 6148.06,-1323.01 6152.83,-1313.55 6145.89,-1312.64"/>
<text text-anchor="start" x="6097.38" y="-958.73" font-family="Times New Roman,serif" font-size="14.00">spokesperson for</text>
</g>
<!-- Entity79 -->
<g id="node38" class="node entity">
<title>Entity79</title>
<ellipse fill="none" stroke="black" cx="6343.57" cy="-17.63" rx="39.79" ry="18"/>
<text text-anchor="start" x="6321.07" y="-13.93" font-family="Times New Roman,serif" font-size="14.00">medium</text>
</g>
<!-- Entity38&#45;&gt;Entity79 -->
<g id="edge38" class="edge verb">
<title>Entity38&#45;&gt;Entity79</title>
<path fill="none" stroke="black" d="M6248.88,-560.92C6263.1,-479.35 6321.42,-144.72 6338.72,-45.49"/>
<polygon fill="black" stroke="black" points="6342.17,-46.06 6340.44,-35.61 6335.27,-44.86 6342.17,-46.06"/>
<text text-anchor="start" x="6277.8" y="-307" font-family="Times New Roman,serif" font-size="14.00">isa</text>
</g>
<!-- Entity86 -->
<g id="node48" class="node entity">
<title>Entity86</title>
<ellipse fill="none" stroke="black" cx="5555.56" cy="-459.31" rx="85.29" ry="18"/>
<text text-anchor="start" x="5498.06" y="-455.61" font-family="Times New Roman,serif" font-size="14.00">theosophical society</text>
</g>
<!-- Entity38&#45;&gt;Entity86 -->
<g id="edge65" class="edge verb">
<title>Entity38&#45;&gt;Entity86</title>
<path fill="none" stroke="black" d="M6177.04,-567.05C6047.15,-544.53 5766.47,-495.87 5631.32,-472.44"/>
<polygon fill="black" stroke="black" points="5631.9,-468.99 5621.45,-470.73 5630.71,-475.89 5631.9,-468.99"/>
<text text-anchor="start" x="5863.18" y="-523.55" font-family="Times New Roman,serif" font-size="14.00">created</text>
</g>
<!-- Entity99 -->
<g id="node54" class="node entity">
<title>Entity99</title>
<ellipse fill="none" stroke="black" cx="6630.13" cy="-84.82" rx="55.79" ry="18"/>
<text text-anchor="start" x="6595.13" y="-81.12" font-family="Times New Roman,serif" font-size="14.00">orphic circle</text>
</g>
<!-- Entity38&#45;&gt;Entity99 -->
<g id="edge58" class="edge verb">
<title>Entity38&#45;&gt;Entity99</title>
<path fill="none" stroke="black" d="M6259.65,-561.08C6317.81,-486.31 6541.68,-198.52 6610.13,-110.52"/>
<polygon fill="black" stroke="black" points="6613.06,-112.46 6616.44,-102.41 6607.54,-108.16 6613.06,-112.46"/>
<text text-anchor="start" x="6373.89" y="-339.6" font-family="Times New Roman,serif" font-size="14.00">member of</text>
</g>
<!-- Entity42 -->
<g id="node36" class="node entity">
<title>Entity42</title>
<ellipse fill="none" stroke="black" cx="4841.94" cy="-815.66" rx="53.89" ry="18"/>
<text text-anchor="start" x="4808.44" y="-811.96" font-family="Times New Roman,serif" font-size="14.00">black magic</text>
</g>
<!-- Entity81 -->
<g id="node37" class="node entity">
<title>Entity81</title>
<ellipse fill="none" stroke="black" cx="4929.66" cy="-927.64" rx="28.7" ry="18"/>
<text text-anchor="start" x="4915.66" y="-923.94" font-family="Times New Roman,serif" font-size="14.00">x left</text>
</g>
<!-- Entity42&#45;&gt;Entity81 -->
<g id="edge37" class="edge verb">
<title>Entity42&#45;&gt;Entity81</title>
<path fill="none" stroke="black" d="M4855.64,-833.16C4870.45,-852.05 4894.14,-882.29 4910.72,-903.45"/>
<polygon fill="black" stroke="black" points="4907.98,-905.64 4916.9,-911.36 4913.49,-901.32 4907.98,-905.64"/>
<text text-anchor="start" x="4822.18" y="-872.11" font-family="Times New Roman,serif" font-size="14.00">member of</text>
</g>
<!-- Entity47 -->
<g id="node39" class="node entity">
<title>Entity47</title>
<ellipse fill="none" stroke="black" cx="8470.62" cy="-1574.49" rx="69.59" ry="18"/>
<text text-anchor="start" x="8425.12" y="-1570.79" font-family="Times New Roman,serif" font-size="14.00">andrew breitbart</text>
</g>
<!-- Entity47&#45;&gt;Entity83 -->
<g id="edge39" class="edge verb">
<title>Entity47&#45;&gt;Entity83</title>
<path fill="none" stroke="black" d="M8401.16,-1573.51C8290.38,-1571.94 8074.76,-1568.88 7962.24,-1567.29"/>
<polygon fill="black" stroke="black" points="7962.06,-1563.79 7952.01,-1567.15 7961.96,-1570.79 7962.06,-1563.79"/>
<text text-anchor="start" x="8140.7" y="-1574.2" font-family="Times New Roman,serif" font-size="14.00">created</text>
</g>
<!-- Entity35 -->
<g id="node42" class="node entity">
<title>Entity35</title>
<ellipse fill="none" stroke="black" cx="4295.94" cy="-815.66" rx="39.79" ry="18"/>
<text text-anchor="start" x="4273.44" y="-811.96" font-family="Times New Roman,serif" font-size="14.00">crowley</text>
</g>
<!-- Entity80 -->
<g id="node43" class="node entity">
<title>Entity80</title>
<ellipse fill="none" stroke="black" cx="4383.66" cy="-927.64" rx="38.99" ry="18"/>
<text text-anchor="start" x="4361.66" y="-923.94" font-family="Times New Roman,serif" font-size="14.00">x magic</text>
</g>
<!-- Entity35&#45;&gt;Entity80 -->
<g id="edge41" class="edge verb">
<title>Entity35&#45;&gt;Entity80</title>
<path fill="none" stroke="black" d="M4309.26,-832.67C4323.82,-851.25 4347.28,-881.2 4363.96,-902.49"/>
<polygon fill="black" stroke="black" points="4361.29,-904.76 4370.21,-910.47 4366.8,-900.44 4361.29,-904.76"/>
<text text-anchor="start" x="4275.61" y="-871.38" font-family="Times New Roman,serif" font-size="14.00">member of</text>
</g>
<!-- Entity19 -->
<g id="node44" class="node entity">
<title>Entity19</title>
<ellipse fill="none" stroke="black" cx="5672.66" cy="-2012.62" rx="31.4" ry="18"/>
<text text-anchor="start" x="5656.66" y="-2008.92" font-family="Times New Roman,serif" font-size="14.00">carter</text>
</g>
<!-- Entity19&#45;&gt;Entity66 -->
<g id="edge44" class="edge verb">
<title>Entity19&#45;&gt;Entity66</title>
<path fill="none" stroke="black" d="M5701.59,-2005.66C5764.93,-1990.44 5915.93,-1954.14 5987.42,-1936.96"/>
<polygon fill="black" stroke="black" points="5988.46,-1940.31 5997.37,-1934.57 5986.83,-1933.5 5988.46,-1940.31"/>
<text text-anchor="start" x="5828.5" y="-1975.11" font-family="Times New Roman,serif" font-size="14.00">isa</text>
</g>
<!-- Entity19&#45;&gt;Entity90 -->
<g id="edge56" class="edge verb">
<title>Entity19&#45;&gt;Entity90</title>
<path fill="none" stroke="black" d="M5641.46,-2012.38C5578.51,-2011.92 5436.51,-2010.86 5368.72,-2010.36"/>
<polygon fill="black" stroke="black" points="5368.53,-2006.86 5358.5,-2010.28 5368.47,-2013.86 5368.53,-2006.86"/>
<text text-anchor="start" x="5450.09" y="-2015.17" font-family="Times New Roman,serif" font-size="14.00">witnessed</text>
</g>
<!-- Entity27 -->
<g id="node45" class="node entity">
<title>Entity27</title>
<ellipse fill="none" stroke="black" cx="36.6" cy="-1876.96" rx="36.29" ry="18"/>
<text text-anchor="start" x="16.6" y="-1873.26" font-family="Times New Roman,serif" font-size="14.00">oswald</text>
</g>
<!-- Entity34 -->
<g id="node46" class="node entity">
<title>Entity34</title>
<ellipse fill="none" stroke="black" cx="480.2" cy="-1859.78" rx="59.29" ry="18"/>
<text text-anchor="start" x="442.7" y="-1856.08" font-family="Times New Roman,serif" font-size="14.00">guy bannister</text>
</g>
<!-- Entity27&#45;&gt;Entity34 -->
<g id="edge50" class="edge verb">
<title>Entity27&#45;&gt;Entity34</title>
<path fill="none" stroke="black" d="M72.9,-1875.55C146.77,-1872.69 315.64,-1866.15 411.12,-1862.46"/>
<polygon fill="black" stroke="black" points="411.4,-1865.95 421.26,-1862.06 411.13,-1858.95 411.4,-1865.95"/>
<text text-anchor="start" x="179.01" y="-1872.8" font-family="Times New Roman,serif" font-size="14.00">worked for</text>
</g>
<!-- Entity34&#45;&gt;Entity75 -->
<g id="edge51" class="edge verb">
<title>Entity34&#45;&gt;Entity75</title>
<path fill="none" stroke="black" d="M539.14,-1857.4C639.74,-1853.34 842.76,-1845.14 936.23,-1841.36"/>
<polygon fill="black" stroke="black" points="936.42,-1844.85 946.27,-1840.95 936.14,-1837.86 936.42,-1844.85"/>
<text text-anchor="start" x="676.69" y="-1853.18" font-family="Times New Roman,serif" font-size="14.00">member of</text>
</g>
<!-- Entity64 -->
<g id="node47" class="node entity">
<title>Entity64</title>
<ellipse fill="none" stroke="black" cx="5503.04" cy="-351.31" rx="73.39" ry="18"/>
<text text-anchor="start" x="5454.54" y="-347.61" font-family="Times New Roman,serif" font-size="14.00">madam blavatsky</text>
</g>
<!-- Entity64&#45;&gt;Entity86 -->
<g id="edge52" class="edge verb">
<title>Entity64&#45;&gt;Entity86</title>
<path fill="none" stroke="black" d="M5511.95,-369.63C5520.3,-386.8 5532.89,-412.68 5542.4,-432.24"/>
<polygon fill="black" stroke="black" points="5539.26,-433.8 5546.78,-441.26 5545.56,-430.74 5539.26,-433.8"/>
<text text-anchor="start" x="5486.17" y="-404.73" font-family="Times New Roman,serif" font-size="14.00">created</text>
</g>
<!-- Entity60 -->
<g id="node56" class="node entity">
<title>Entity60</title>
<ellipse fill="none" stroke="black" cx="5050.14" cy="-202.9" rx="58.49" ry="18"/>
<text text-anchor="start" x="5013.14" y="-199.2" font-family="Times New Roman,serif" font-size="14.00">rudolf steiner</text>
</g>
<!-- Entity60&#45;&gt;Entity86 -->
<g id="edge63" class="edge verb">
<title>Entity60&#45;&gt;Entity86</title>
<path fill="none" stroke="black" d="M5080.62,-218.37C5167.14,-262.26 5414.43,-387.72 5513.64,-438.04"/>
<polygon fill="black" stroke="black" points="5512.26,-441.27 5522.77,-442.67 5515.43,-435.03 5512.26,-441.27"/>
<text text-anchor="start" x="5231.13" y="-332" font-family="Times New Roman,serif" font-size="14.00">memberr of</text>
</g>
<!-- Entity93 -->
<g id="node57" class="node entity">
<title>Entity93</title>
<ellipse fill="none" stroke="black" cx="4935.16" cy="-94.93" rx="102.08" ry="18"/>
<text text-anchor="start" x="4864.66" y="-91.23" font-family="Times New Roman,serif" font-size="14.00">anthroposophical society</text>
</g>
<!-- Entity60&#45;&gt;Entity93 -->
<g id="edge60" class="edge verb">
<title>Entity60&#45;&gt;Entity93</title>
<path fill="none" stroke="black" d="M5031.92,-185.8C5012.97,-168 4983.12,-139.97 4961.58,-119.74"/>
<polygon fill="black" stroke="black" points="4963.74,-116.97 4954.05,-112.67 4958.95,-122.07 4963.74,-116.97"/>
<text text-anchor="start" x="4955.75" y="-156.57" font-family="Times New Roman,serif" font-size="14.00">created</text>
</g>
<!-- Entity109 -->
<g id="node60" class="node entity">
<title>Entity109</title>
<ellipse fill="none" stroke="black" cx="4282.94" cy="-1347.66" rx="27" ry="18"/>
<text text-anchor="start" x="4279.44" y="-1343.96" font-family="Times New Roman,serif" font-size="14.00">s</text>
</g>
<!-- Entity112 -->
<g id="node61" class="node entity">
<title>Entity112</title>
<ellipse fill="none" stroke="black" cx="4370.66" cy="-1459.64" rx="27" ry="18"/>
<text text-anchor="start" x="4366.66" y="-1455.94" font-family="Times New Roman,serif" font-size="14.00">o</text>
</g>
<!-- Entity109&#45;&gt;Entity112 -->
<g id="edge67" class="edge verb">
<title>Entity109&#45;&gt;Entity112</title>
<path fill="none" stroke="black" d="M4295.51,-1363.7C4310.23,-1382.5 4334.76,-1413.82 4351.78,-1435.53"/>
<polygon fill="black" stroke="black" points="4349.19,-1437.91 4358.11,-1443.62 4354.7,-1433.59 4349.19,-1437.91"/>
<text text-anchor="start" x="4316.64" y="-1403.42" font-family="Times New Roman,serif" font-size="14.00">v</text>
</g>
</g>
</svg>
