<?xml version="1.0" encoding="UTF-8" standalone="no"?>
<?xml-stylesheet href="./styles.css" type="text/css"?>
<!DOCTYPE svg PUBLIC "-//W3C//DTD SVG 1.1//EN"
 "http://www.w3.org/Graphics/SVG/1.1/DTD/svg11.dtd">
<!-- Generated by graphviz version 2.47.3 (20210619.1520)
 -->
<!-- Title: G Pages: 1 -->
<svg width="7390pt" height="4850pt"
 viewBox="0.00 0.00 7390.00 4850.00" xmlns="http://www.w3.org/2000/svg" xmlns:xlink="http://www.w3.org/1999/xlink">
<g id="graph0" class="graph" transform="scale(1 1) rotate(0) translate(4 4846)">
<title>G</title>
<polygon fill="white" stroke="transparent" points="-4,4 -4,-4846 7386,-4846 7386,4 -4,4"/>
<!-- Entity3 -->
<g id="node1" class="node entity">
<title>Entity3</title>
<ellipse fill="none" stroke="black" cx="5446.96" cy="-3271.49" rx="27" ry="18"/>
<text text-anchor="start" x="5439.46" y="-3267.79" font-family="Times New Roman,serif" font-size="14.00">jfk</text>
</g>
<!-- Entity22 -->
<g id="node2" class="node entity">
<title>Entity22</title>
<ellipse fill="none" stroke="black" cx="4982.29" cy="-3298.77" rx="27" ry="18"/>
<text text-anchor="start" x="4974.29" y="-3295.07" font-family="Times New Roman,serif" font-size="14.00">cia</text>
</g>
<!-- Entity3&#45;&gt;Entity22 -->
<g id="edge1" class="edge verb">
<title>Entity3&#45;&gt;Entity22</title>
<path fill="none" stroke="black" d="M5419.97,-3273.08C5340.97,-3277.71 5110.1,-3291.27 5019.45,-3296.59"/>
<polygon fill="black" stroke="black" points="5019.14,-3293.1 5009.36,-3297.18 5019.55,-3300.09 5019.14,-3293.1"/>
<text text-anchor="start" x="5115.71" y="-3288.63" font-family="Times New Roman,serif" font-size="14.00">heads (1961&#45;1963)</text>
</g>
<!-- Entity66 -->
<g id="node20" class="node entity">
<title>Entity66</title>
<ellipse fill="none" stroke="black" cx="5940.19" cy="-3201.58" rx="31.4" ry="18"/>
<text text-anchor="start" x="5924.19" y="-3197.88" font-family="Times New Roman,serif" font-size="14.00">potus</text>
</g>
<!-- Entity3&#45;&gt;Entity66 -->
<g id="edge23" class="edge verb">
<title>Entity3&#45;&gt;Entity66</title>
<path fill="none" stroke="black" d="M5473.48,-3267.73C5554.95,-3256.18 5802,-3221.17 5899.75,-3207.31"/>
<polygon fill="black" stroke="black" points="5900.42,-3210.75 5909.83,-3205.88 5899.43,-3203.82 5900.42,-3210.75"/>
<text text-anchor="start" x="5599.61" y="-3241.32" font-family="Times New Roman,serif" font-size="14.00">isa (1961&#45;1963)</text>
</g>
<!-- Entity67 -->
<g id="node25" class="node entity">
<title>Entity67</title>
<ellipse fill="none" stroke="black" cx="4234.97" cy="-3481.57" rx="77.19" ry="18"/>
<text text-anchor="start" x="4183.47" y="-3477.87" font-family="Times New Roman,serif" font-size="14.00">psi&#45;consciousness</text>
</g>
<!-- Entity22&#45;&gt;Entity67 -->
<g id="edge43" class="edge verb">
<title>Entity22&#45;&gt;Entity67</title>
<path fill="none" stroke="black" d="M4956.57,-3305.06C4851.65,-3330.73 4454.3,-3427.92 4298.35,-3466.07"/>
<polygon fill="black" stroke="black" points="4297.31,-3462.72 4288.43,-3468.5 4298.97,-3469.52 4297.31,-3462.72"/>
<text text-anchor="start" x="4563.46" y="-3389.37" font-family="Times New Roman,serif" font-size="14.00">investigates</text>
</g>
<!-- Entity90 -->
<g id="node52" class="node entity">
<title>Entity90</title>
<ellipse fill="none" stroke="black" cx="5249.16" cy="-3095.95" rx="27" ry="18"/>
<text text-anchor="start" x="5239.66" y="-3092.25" font-family="Times New Roman,serif" font-size="14.00">ufo</text>
</g>
<!-- Entity22&#45;&gt;Entity90 -->
<g id="edge62" class="edge verb">
<title>Entity22&#45;&gt;Entity90</title>
<path fill="none" stroke="black" d="M5000.22,-3285.15C5046.36,-3250.08 5169.41,-3156.56 5223.29,-3115.62"/>
<polygon fill="black" stroke="black" points="5225.47,-3118.35 5231.32,-3109.51 5221.24,-3112.78 5225.47,-3118.35"/>
<text text-anchor="start" x="5047.75" y="-3204.18" font-family="Times New Roman,serif" font-size="14.00">investigates</text>
</g>
<!-- Entity14 -->
<g id="node3" class="node entity">
<title>Entity14</title>
<ellipse fill="none" stroke="black" cx="2550.12" cy="-3477.22" rx="74.99" ry="18"/>
<text text-anchor="start" x="2500.62" y="-3473.52" font-family="Times New Roman,serif" font-size="14.00">gene roddenberry</text>
</g>
<!-- Entity8 -->
<g id="node4" class="node entity">
<title>Entity8</title>
<ellipse fill="none" stroke="black" cx="3028.99" cy="-3592.16" rx="38.19" ry="18"/>
<text text-anchor="start" x="3007.49" y="-3588.46" font-family="Times New Roman,serif" font-size="14.00">the nine</text>
</g>
<!-- Entity14&#45;&gt;Entity8 -->
<g id="edge2" class="edge verb">
<title>Entity14&#45;&gt;Entity8</title>
<path fill="none" stroke="black" d="M2603.2,-3489.96C2698.41,-3512.81 2896.54,-3560.37 2984.85,-3581.57"/>
<polygon fill="black" stroke="black" points="2984.27,-3585.03 2994.81,-3583.96 2985.9,-3578.22 2984.27,-3585.03"/>
<text text-anchor="start" x="2690.02" y="-3539.56" font-family="Times New Roman,serif" font-size="14.00">claiemd to channel</text>
</g>
<!-- Entity70 -->
<g id="node23" class="node entity">
<title>Entity70</title>
<ellipse fill="none" stroke="black" cx="3062.74" cy="-4145.24" rx="94.48" ry="18"/>
<text text-anchor="start" x="2998.24" y="-4141.54" font-family="Times New Roman,serif" font-size="14.00">egyptian gods in a ship</text>
</g>
<!-- Entity8&#45;&gt;Entity70 -->
<g id="edge16" class="edge verb">
<title>Entity8&#45;&gt;Entity70</title>
<path fill="none" stroke="black" d="M3030.09,-3610.25C3035.01,-3690.91 3054.98,-4018.15 3061.01,-4116.89"/>
<polygon fill="black" stroke="black" points="3057.53,-4117.24 3061.63,-4127.01 3064.51,-4116.81 3057.53,-4117.24"/>
<text text-anchor="start" x="2941.55" y="-3867.37" font-family="Times New Roman,serif" font-size="14.00">claimed to channel</text>
</g>
<!-- Entity16 -->
<g id="node5" class="node entity">
<title>Entity16</title>
<ellipse fill="none" stroke="black" cx="6030.85" cy="-3309.63" rx="68.49" ry="18"/>
<text text-anchor="start" x="5986.35" y="-3305.93" font-family="Times New Roman,serif" font-size="14.00">george hw bush</text>
</g>
<!-- Entity20 -->
<g id="node6" class="node entity">
<title>Entity20</title>
<ellipse fill="none" stroke="black" cx="6426.7" cy="-3411.29" rx="63.89" ry="18"/>
<text text-anchor="start" x="6385.7" y="-3407.59" font-family="Times New Roman,serif" font-size="14.00">george w bush</text>
</g>
<!-- Entity16&#45;&gt;Entity20 -->
<g id="edge3" class="edge verb">
<title>Entity16&#45;&gt;Entity20</title>
<path fill="none" stroke="black" d="M6079.79,-3322.2C6153.14,-3341.03 6291.27,-3376.51 6369.29,-3396.55"/>
<polygon fill="black" stroke="black" points="6368.86,-3400.05 6379.42,-3399.15 6370.6,-3393.27 6368.86,-3400.05"/>
<text text-anchor="start" x="6192.54" y="-3363.17" font-family="Times New Roman,serif" font-size="14.00">father</text>
</g>
<!-- Entity16&#45;&gt;Entity66 -->
<g id="edge20" class="edge verb">
<title>Entity16&#45;&gt;Entity66</title>
<path fill="none" stroke="black" d="M6015.88,-3291.79C6000.77,-3273.77 5977.31,-3245.82 5960.52,-3225.8"/>
<polygon fill="black" stroke="black" points="5963.1,-3223.44 5954,-3218.03 5957.74,-3227.94 5963.1,-3223.44"/>
<text text-anchor="start" x="5972.2" y="-3262.6" font-family="Times New Roman,serif" font-size="14.00">isa</text>
</g>
<!-- Entity20&#45;&gt;Entity66 -->
<g id="edge42" class="edge verb">
<title>Entity20&#45;&gt;Entity66</title>
<path fill="none" stroke="black" d="M6391.71,-3396.21C6301.94,-3357.51 6064.22,-3255.04 5974.83,-3216.51"/>
<polygon fill="black" stroke="black" points="5975.99,-3213.2 5965.42,-3212.45 5973.22,-3219.62 5975.99,-3213.2"/>
<text text-anchor="start" x="6167.27" y="-3310.16" font-family="Times New Roman,serif" font-size="14.00">isa</text>
</g>
<!-- Entity2 -->
<g id="node7" class="node entity">
<title>Entity2</title>
<ellipse fill="none" stroke="black" cx="3160.44" cy="-3211.14" rx="41.69" ry="18"/>
<text text-anchor="start" x="3136.44" y="-3207.44" font-family="Times New Roman,serif" font-size="14.00">uri geller</text>
</g>
<!-- Entity2&#45;&gt;Entity8 -->
<g id="edge4" class="edge verb">
<title>Entity2&#45;&gt;Entity8</title>
<path fill="none" stroke="black" d="M3154.28,-3229.01C3133.19,-3290.13 3063.83,-3491.18 3038.42,-3564.82"/>
<polygon fill="black" stroke="black" points="3035.09,-3563.74 3035.14,-3574.34 3041.71,-3566.02 3035.09,-3563.74"/>
<text text-anchor="start" x="2992.35" y="-3400.71" font-family="Times New Roman,serif" font-size="14.00">claiemd to channel</text>
</g>
<!-- Entity26 -->
<g id="node8" class="node entity">
<title>Entity26</title>
<ellipse fill="none" stroke="black" cx="1104.96" cy="-4686.08" rx="49.29" ry="18"/>
<text text-anchor="start" x="1074.96" y="-4682.38" font-family="Times New Roman,serif" font-size="14.00">adolf hitler</text>
</g>
<!-- Entity28 -->
<g id="node9" class="node entity">
<title>Entity28</title>
<ellipse fill="none" stroke="black" cx="1409.97" cy="-4425.32" rx="32.49" ry="18"/>
<text text-anchor="start" x="1392.97" y="-4421.62" font-family="Times New Roman,serif" font-size="14.00">nsdap</text>
</g>
<!-- Entity26&#45;&gt;Entity28 -->
<g id="edge5" class="edge verb">
<title>Entity26&#45;&gt;Entity28</title>
<path fill="none" stroke="black" d="M1124.5,-4669.37C1177.62,-4623.96 1324.65,-4498.26 1384.32,-4447.25"/>
<polygon fill="black" stroke="black" points="1386.81,-4449.72 1392.14,-4440.57 1382.26,-4444.4 1386.81,-4449.72"/>
<text text-anchor="start" x="1213.41" y="-4562.11" font-family="Times New Roman,serif" font-size="14.00">created</text>
</g>
<!-- Entity75 -->
<g id="node31" class="node entity">
<title>Entity75</title>
<ellipse fill="none" stroke="black" cx="956.88" cy="-4495.09" rx="38.99" ry="18"/>
<text text-anchor="start" x="934.88" y="-4491.39" font-family="Times New Roman,serif" font-size="14.00">far right</text>
</g>
<!-- Entity28&#45;&gt;Entity75 -->
<g id="edge29" class="edge verb">
<title>Entity28&#45;&gt;Entity75</title>
<path fill="none" stroke="black" d="M1378.47,-4430.17C1300.23,-4442.22 1096.68,-4473.56 1004.03,-4487.83"/>
<polygon fill="black" stroke="black" points="1003.44,-4484.38 994.09,-4489.36 1004.51,-4491.3 1003.44,-4484.38"/>
<text text-anchor="start" x="1130.25" y="-4462.8" font-family="Times New Roman,serif" font-size="14.00">member of</text>
</g>
<!-- Entity15 -->
<g id="node10" class="node entity">
<title>Entity15</title>
<ellipse fill="none" stroke="black" cx="6102.11" cy="-2786.61" rx="59.59" ry="18"/>
<text text-anchor="start" x="6064.11" y="-2782.91" font-family="Times New Roman,serif" font-size="14.00">donald trump</text>
</g>
<!-- Entity48 -->
<g id="node11" class="node entity">
<title>Entity48</title>
<ellipse fill="none" stroke="black" cx="5480.31" cy="-3124.07" rx="50.09" ry="18"/>
<text text-anchor="start" x="5449.81" y="-3120.37" font-family="Times New Roman,serif" font-size="14.00">john trump</text>
</g>
<!-- Entity15&#45;&gt;Entity48 -->
<g id="edge6" class="edge verb">
<title>Entity15&#45;&gt;Entity48</title>
<path fill="none" stroke="black" d="M6072.95,-2802.44C5970.9,-2857.82 5629.84,-3042.91 5516.95,-3104.18"/>
<polygon fill="black" stroke="black" points="5515.1,-3101.2 5507.98,-3109.05 5518.44,-3107.35 5515.1,-3101.2"/>
<text text-anchor="start" x="5735.95" y="-2942.11" font-family="Times New Roman,serif" font-size="14.00">nephew of</text>
</g>
<!-- Entity15&#45;&gt;Entity66 -->
<g id="edge27" class="edge verb">
<title>Entity15&#45;&gt;Entity66</title>
<path fill="none" stroke="black" d="M6095.05,-2804.71C6069.47,-2870.25 5981.6,-3095.46 5950.89,-3174.17"/>
<polygon fill="black" stroke="black" points="5947.48,-3173.26 5947.11,-3183.85 5954,-3175.81 5947.48,-3173.26"/>
<text text-anchor="start" x="6006.97" y="-2993.24" font-family="Times New Roman,serif" font-size="14.00">isa</text>
</g>
<!-- Entity48&#45;&gt;Entity22 -->
<g id="edge10" class="edge verb">
<title>Entity48&#45;&gt;Entity22</title>
<path fill="none" stroke="black" d="M5444.09,-3136.77C5351.31,-3169.32 5106.06,-3255.35 5016.04,-3286.93"/>
<polygon fill="black" stroke="black" points="5014.62,-3283.72 5006.35,-3290.33 5016.94,-3290.33 5014.62,-3283.72"/>
<text text-anchor="start" x="5169.07" y="-3215.65" font-family="Times New Roman,serif" font-size="14.00">member of</text>
</g>
<!-- Entity82 -->
<g id="node41" class="node entity">
<title>Entity82</title>
<ellipse fill="none" stroke="black" cx="5221.24" cy="-3530.43" rx="50.89" ry="18"/>
<text text-anchor="start" x="5190.24" y="-3526.73" font-family="Times New Roman,serif" font-size="14.00">nikola tesla</text>
</g>
<!-- Entity48&#45;&gt;Entity82 -->
<g id="edge40" class="edge verb">
<title>Entity48&#45;&gt;Entity82</title>
<path fill="none" stroke="black" d="M5469.01,-3141.79C5428.02,-3206.08 5286.99,-3427.3 5238.09,-3504"/>
<polygon fill="black" stroke="black" points="5235.02,-3502.3 5232.6,-3512.61 5240.93,-3506.06 5235.02,-3502.3"/>
<text text-anchor="start" x="5312.55" y="-3326.69" font-family="Times New Roman,serif" font-size="14.00">studied</text>
</g>
<!-- Entity5 -->
<g id="node12" class="node entity">
<title>Entity5</title>
<ellipse fill="none" stroke="black" cx="3436.89" cy="-3763.7" rx="56.59" ry="18"/>
<text text-anchor="start" x="3401.39" y="-3760" font-family="Times New Roman,serif" font-size="14.00">arthur young</text>
</g>
<!-- Entity5&#45;&gt;Entity8 -->
<g id="edge7" class="edge verb">
<title>Entity5&#45;&gt;Entity8</title>
<path fill="none" stroke="black" d="M3402.46,-3749.23C3326.76,-3717.39 3146.29,-3641.49 3067.21,-3608.24"/>
<polygon fill="black" stroke="black" points="3068.21,-3604.86 3057.64,-3604.21 3065.5,-3611.31 3068.21,-3604.86"/>
<text text-anchor="start" x="3172.84" y="-3682.53" font-family="Times New Roman,serif" font-size="14.00">member&#45;of</text>
</g>
<!-- Entity5&#45;&gt;Entity67 -->
<g id="edge18" class="edge verb">
<title>Entity5&#45;&gt;Entity67</title>
<path fill="none" stroke="black" d="M3474.84,-3750.29C3604.88,-3704.32 4032.66,-3553.09 4182.54,-3500.11"/>
<polygon fill="black" stroke="black" points="4183.74,-3503.4 4192,-3496.76 4181.41,-3496.8 4183.74,-3503.4"/>
<text text-anchor="start" x="3787.69" y="-3629" font-family="Times New Roman,serif" font-size="14.00">studied</text>
</g>
<!-- Entity72 -->
<g id="node28" class="node entity">
<title>Entity72</title>
<ellipse fill="none" stroke="black" cx="2761.8" cy="-4037.21" rx="53.89" ry="18"/>
<text text-anchor="start" x="2728.3" y="-4033.51" font-family="Times New Roman,serif" font-size="14.00">bell aviation</text>
</g>
<!-- Entity5&#45;&gt;Entity72 -->
<g id="edge24" class="edge verb">
<title>Entity5&#45;&gt;Entity72</title>
<path fill="none" stroke="black" d="M3401.54,-3778.02C3287.71,-3824.14 2930.83,-3968.73 2805.69,-4019.43"/>
<polygon fill="black" stroke="black" points="2804.34,-4016.2 2796.39,-4023.2 2806.97,-4022.69 2804.34,-4016.2"/>
<text text-anchor="start" x="3062.62" y="-3902.53" font-family="Times New Roman,serif" font-size="14.00">created</text>
</g>
<!-- Entity1 -->
<g id="node13" class="node entity">
<title>Entity1</title>
<ellipse fill="none" stroke="black" cx="2790.75" cy="-2910.4" rx="64.19" ry="18"/>
<text text-anchor="start" x="2749.25" y="-2906.7" font-family="Times New Roman,serif" font-size="14.00">andre puharich</text>
</g>
<!-- Entity1&#45;&gt;Entity2 -->
<g id="edge8" class="edge verb">
<title>Entity1&#45;&gt;Entity2</title>
<path fill="none" stroke="black" d="M2811.68,-2927.43C2874.51,-2978.54 3061.44,-3130.61 3132.56,-3188.46"/>
<polygon fill="black" stroke="black" points="3130.67,-3191.44 3140.64,-3195.03 3135.09,-3186.01 3130.67,-3191.44"/>
<text text-anchor="start" x="2912.12" y="-3061.74" font-family="Times New Roman,serif" font-size="14.00">sponsored</text>
</g>
<!-- Entity7 -->
<g id="node14" class="node entity">
<title>Entity7</title>
<ellipse fill="none" stroke="black" cx="3690.46" cy="-3184.33" rx="68.49" ry="18"/>
<text text-anchor="start" x="3645.96" y="-3180.63" font-family="Times New Roman,serif" font-size="14.00">jeffrey mishlove</text>
</g>
<!-- Entity7&#45;&gt;Entity2 -->
<g id="edge9" class="edge verb">
<title>Entity7&#45;&gt;Entity2</title>
<path fill="none" stroke="black" d="M3623.33,-3187.73C3516.1,-3193.15 3308.43,-3203.66 3211.98,-3208.54"/>
<polygon fill="black" stroke="black" points="3211.7,-3205.05 3201.89,-3209.05 3212.06,-3212.04 3211.7,-3205.05"/>
<text text-anchor="start" x="3362.66" y="-3201.93" font-family="Times New Roman,serif" font-size="14.00">promoted</text>
</g>
<!-- Entity7&#45;&gt;Entity67 -->
<g id="edge19" class="edge verb">
<title>Entity7&#45;&gt;Entity67</title>
<path fill="none" stroke="black" d="M3714.87,-3201.18C3799.13,-3252.41 4078.37,-3405.15 4189.15,-3460.99"/>
<polygon fill="black" stroke="black" points="4187.88,-3464.27 4198.39,-3465.62 4191.02,-3458.01 4187.88,-3464.27"/>
<text text-anchor="start" x="3911.01" y="-3334.88" font-family="Times New Roman,serif" font-size="14.00">studied</text>
</g>
<!-- Entity7&#45;&gt;Entity67 -->
<g id="edge26" class="edge verb">
<title>Entity7&#45;&gt;Entity67</title>
<path fill="none" stroke="black" d="M3726.19,-3199.86C3825.59,-3249.19 4104.26,-3401.29 4201.23,-3459.11"/>
<polygon fill="black" stroke="black" points="4199.66,-3462.25 4210.03,-3464.4 4203.26,-3456.25 4199.66,-3462.25"/>
<text text-anchor="start" x="3899.71" y="-3318.29" font-family="Times New Roman,serif" font-size="14.00">investigates</text>
</g>
<!-- Entity30 -->
<g id="node15" class="node entity">
<title>Entity30</title>
<ellipse fill="none" stroke="black" cx="2039.04" cy="-4270.07" rx="74.99" ry="18"/>
<text text-anchor="start" x="1989.54" y="-4266.37" font-family="Times New Roman,serif" font-size="14.00">walter dornberger</text>
</g>
<!-- Entity30&#45;&gt;Entity28 -->
<g id="edge11" class="edge verb">
<title>Entity30&#45;&gt;Entity28</title>
<path fill="none" stroke="black" d="M1986.76,-4282.97C1863.94,-4313.28 1559.17,-4388.5 1449.82,-4415.48"/>
<polygon fill="black" stroke="black" points="1448.73,-4412.15 1439.86,-4417.94 1450.41,-4418.94 1448.73,-4412.15"/>
<text text-anchor="start" x="1657.29" y="-4353.03" font-family="Times New Roman,serif" font-size="14.00">member of</text>
</g>
<!-- Entity30&#45;&gt;Entity72 -->
<g id="edge35" class="edge verb">
<title>Entity30&#45;&gt;Entity72</title>
<path fill="none" stroke="black" d="M2091.28,-4257.1C2227.64,-4217.55 2592.45,-4099.94 2718.36,-4054.85"/>
<polygon fill="black" stroke="black" points="2719.84,-4058.03 2728.05,-4051.35 2717.46,-4051.45 2719.84,-4058.03"/>
<text text-anchor="start" x="2325.82" y="-4159.77" font-family="Times New Roman,serif" font-size="14.00">vice&#45;president</text>
</g>
<!-- Entity30&#45;&gt;Entity72 -->
<g id="edge49" class="edge verb">
<title>Entity30&#45;&gt;Entity72</title>
<path fill="none" stroke="black" d="M2076.9,-4254.44C2196.79,-4211.1 2568.33,-4091.24 2708,-4050.64"/>
<polygon fill="black" stroke="black" points="2709.01,-4053.99 2717.64,-4047.85 2707.07,-4047.26 2709.01,-4053.99"/>
<text text-anchor="start" x="2336.45" y="-4141.34" font-family="Times New Roman,serif" font-size="14.00">worked at</text>
</g>
<!-- Entity76 -->
<g id="node35" class="node entity">
<title>Entity76</title>
<ellipse fill="none" stroke="black" cx="1932.62" cy="-4378.05" rx="90.98" ry="18"/>
<text text-anchor="start" x="1870.62" y="-4374.35" font-family="Times New Roman,serif" font-size="14.00">nsdap rocket program</text>
</g>
<!-- Entity30&#45;&gt;Entity76 -->
<g id="edge36" class="edge verb">
<title>Entity30&#45;&gt;Entity76</title>
<path fill="none" stroke="black" d="M2021.47,-4287.9C2003.99,-4305.64 1977,-4333.02 1957.35,-4352.95"/>
<polygon fill="black" stroke="black" points="1954.75,-4350.61 1950.22,-4360.19 1959.73,-4355.53 1954.75,-4350.61"/>
<text text-anchor="start" x="1948.41" y="-4324.23" font-family="Times New Roman,serif" font-size="14.00">created</text>
</g>
<!-- Entity104 -->
<g id="node55" class="node entity">
<title>Entity104</title>
<ellipse fill="none" stroke="black" cx="1825.33" cy="-4824.08" rx="65.79" ry="18"/>
<text text-anchor="start" x="1782.83" y="-4820.38" font-family="Times New Roman,serif" font-size="14.00">x series aircraft</text>
</g>
<!-- Entity30&#45;&gt;Entity104 -->
<g id="edge59" class="edge verb">
<title>Entity30&#45;&gt;Entity104</title>
<path fill="none" stroke="black" d="M2032.06,-4288.19C2000.79,-4369.24 1873.65,-4698.84 1835.93,-4796.61"/>
<polygon fill="black" stroke="black" points="1832.6,-4795.51 1832.27,-4806.1 1839.13,-4798.03 1832.6,-4795.51"/>
<text text-anchor="start" x="1892.99" y="-4546.2" font-family="Times New Roman,serif" font-size="14.00">created</text>
</g>
<!-- Entity32 -->
<g id="node16" class="node entity">
<title>Entity32</title>
<ellipse fill="none" stroke="black" cx="1675.78" cy="-4546.64" rx="46.29" ry="18"/>
<text text-anchor="start" x="1648.28" y="-4542.94" font-family="Times New Roman,serif" font-size="14.00">van braun</text>
</g>
<!-- Entity32&#45;&gt;Entity30 -->
<g id="edge12" class="edge verb">
<title>Entity32&#45;&gt;Entity30</title>
<path fill="none" stroke="black" d="M1696.88,-4530.57C1758.14,-4483.93 1936.22,-4348.36 2008.26,-4293.51"/>
<polygon fill="black" stroke="black" points="2010.67,-4296.07 2016.5,-4287.23 2006.43,-4290.5 2010.67,-4296.07"/>
<text text-anchor="start" x="1789.57" y="-4415.84" font-family="Times New Roman,serif" font-size="14.00">worked for</text>
</g>
<!-- Entity32&#45;&gt;Entity76 -->
<g id="edge48" class="edge verb">
<title>Entity32&#45;&gt;Entity76</title>
<path fill="none" stroke="black" d="M1699.48,-4531.08C1745.01,-4501.19 1844.86,-4435.65 1897.9,-4400.83"/>
<polygon fill="black" stroke="black" points="1899.87,-4403.73 1906.31,-4395.32 1896.03,-4397.88 1899.87,-4403.73"/>
<text text-anchor="start" x="1742.69" y="-4469.76" font-family="Times New Roman,serif" font-size="14.00">worked at</text>
</g>
<!-- Entity29 -->
<g id="node17" class="node entity">
<title>Entity29</title>
<ellipse fill="none" stroke="black" cx="5587.59" cy="-3500.15" rx="37.89" ry="18"/>
<text text-anchor="start" x="5566.59" y="-3496.45" font-family="Times New Roman,serif" font-size="14.00">hunt oil</text>
</g>
<!-- Entity36 -->
<g id="node18" class="node entity">
<title>Entity36</title>
<ellipse fill="none" stroke="black" cx="5591.97" cy="-3392.06" rx="77.99" ry="18"/>
<text text-anchor="start" x="5539.97" y="-3388.36" font-family="Times New Roman,serif" font-size="14.00">dwight eisenhower</text>
</g>
<!-- Entity29&#45;&gt;Entity36 -->
<g id="edge13" class="edge verb">
<title>Entity29&#45;&gt;Entity36</title>
<path fill="none" stroke="black" d="M5588.33,-3481.82C5589.02,-3464.94 5590.04,-3439.67 5590.83,-3420.23"/>
<polygon fill="black" stroke="black" points="5594.33,-3420.26 5591.24,-3410.13 5587.34,-3419.98 5594.33,-3420.26"/>
<text text-anchor="start" x="5549.58" y="-3454.82" font-family="Times New Roman,serif" font-size="14.00">funded</text>
</g>
<!-- Entity36&#45;&gt;Entity66 -->
<g id="edge34" class="edge verb">
<title>Entity36&#45;&gt;Entity66</title>
<path fill="none" stroke="black" d="M5622.57,-3375.33C5688.19,-3339.43 5841.89,-3255.35 5908.49,-3218.92"/>
<polygon fill="black" stroke="black" points="5910.2,-3221.98 5917.29,-3214.11 5906.84,-3215.84 5910.2,-3221.98"/>
<text text-anchor="start" x="5746.53" y="-3300.92" font-family="Times New Roman,serif" font-size="14.00">is a</text>
</g>
<!-- Entity11 -->
<g id="node19" class="node entity">
<title>Entity11</title>
<ellipse fill="none" stroke="black" cx="6447.64" cy="-3284.64" rx="56.59" ry="18"/>
<text text-anchor="start" x="6412.14" y="-3280.94" font-family="Times New Roman,serif" font-size="14.00">harry truman</text>
</g>
<!-- Entity11&#45;&gt;Entity66 -->
<g id="edge14" class="edge verb">
<title>Entity11&#45;&gt;Entity66</title>
<path fill="none" stroke="black" d="M6397.13,-3276.37C6296.35,-3259.87 6072.13,-3223.17 5980.44,-3208.17"/>
<polygon fill="black" stroke="black" points="5980.88,-3204.69 5970.45,-3206.53 5979.75,-3211.6 5980.88,-3204.69"/>
<text text-anchor="start" x="6172.79" y="-3246.07" font-family="Times New Roman,serif" font-size="14.00">isa</text>
</g>
<!-- Entity69 -->
<g id="node24" class="node entity">
<title>Entity69</title>
<ellipse fill="none" stroke="black" cx="6942.16" cy="-3483.58" rx="55.79" ry="18"/>
<text text-anchor="start" x="6907.16" y="-3479.88" font-family="Times New Roman,serif" font-size="14.00">freemasonry</text>
</g>
<!-- Entity11&#45;&gt;Entity69 -->
<g id="edge17" class="edge verb">
<title>Entity11&#45;&gt;Entity69</title>
<path fill="none" stroke="black" d="M6482.81,-3298.78C6570.81,-3334.19 6800.41,-3426.56 6897.64,-3465.67"/>
<polygon fill="black" stroke="black" points="6896.59,-3469.02 6907.17,-3469.51 6899.2,-3462.53 6896.59,-3469.02"/>
<text text-anchor="start" x="6629.22" y="-3386.03" font-family="Times New Roman,serif" font-size="14.00">member of</text>
</g>
<!-- Entity63 -->
<g id="node21" class="node entity">
<title>Entity63</title>
<ellipse fill="none" stroke="black" cx="6500.83" cy="-4139.62" rx="53.89" ry="18"/>
<text text-anchor="start" x="6467.33" y="-4135.92" font-family="Times New Roman,serif" font-size="14.00">edgar casey</text>
</g>
<!-- Entity59 -->
<g id="node22" class="node entity">
<title>Entity59</title>
<ellipse fill="none" stroke="black" cx="6190.65" cy="-3652.08" rx="71.49" ry="18"/>
<text text-anchor="start" x="6143.65" y="-3648.38" font-family="Times New Roman,serif" font-size="14.00">woodrow wilson</text>
</g>
<!-- Entity63&#45;&gt;Entity59 -->
<g id="edge15" class="edge verb">
<title>Entity63&#45;&gt;Entity59</title>
<path fill="none" stroke="black" d="M6489.6,-4121.98C6442.87,-4048.52 6263.56,-3766.67 6207.5,-3678.56"/>
<polygon fill="black" stroke="black" points="6210.35,-3676.51 6202.02,-3669.95 6204.44,-3680.26 6210.35,-3676.51"/>
<text text-anchor="start" x="6306.55" y="-3904.07" font-family="Times New Roman,serif" font-size="14.00">advises</text>
</g>
<!-- Entity59&#45;&gt;Entity66 -->
<g id="edge30" class="edge verb">
<title>Entity59&#45;&gt;Entity66</title>
<path fill="none" stroke="black" d="M6180.68,-3634.14C6141.87,-3564.33 6000.81,-3310.6 5954.81,-3227.86"/>
<polygon fill="black" stroke="black" points="5957.84,-3226.12 5949.92,-3219.08 5951.72,-3229.52 5957.84,-3226.12"/>
<text text-anchor="start" x="6051.74" y="-3434.8" font-family="Times New Roman,serif" font-size="14.00">isa</text>
</g>
<!-- Entity92 -->
<g id="node50" class="node entity">
<title>Entity92</title>
<ellipse fill="none" stroke="black" cx="6231.57" cy="-3760.07" rx="71.49" ry="18"/>
<text text-anchor="start" x="6184.57" y="-3756.37" font-family="Times New Roman,serif" font-size="14.00">leauge of nations</text>
</g>
<!-- Entity59&#45;&gt;Entity92 -->
<g id="edge54" class="edge verb">
<title>Entity59&#45;&gt;Entity92</title>
<path fill="none" stroke="black" d="M6197.59,-3670.4C6204.04,-3687.41 6213.73,-3712.98 6221.11,-3732.46"/>
<polygon fill="black" stroke="black" points="6217.91,-3733.91 6224.73,-3742.02 6224.46,-3731.43 6217.91,-3733.91"/>
<text text-anchor="start" x="6168.35" y="-3705.23" font-family="Times New Roman,serif" font-size="14.00">created</text>
</g>
<!-- Entity18 -->
<g id="node26" class="node entity">
<title>Entity18</title>
<ellipse fill="none" stroke="black" cx="6085.96" cy="-3516.39" rx="35.19" ry="18"/>
<text text-anchor="start" x="6066.96" y="-3512.69" font-family="Times New Roman,serif" font-size="14.00">obama</text>
</g>
<!-- Entity18&#45;&gt;Entity66 -->
<g id="edge21" class="edge verb">
<title>Entity18&#45;&gt;Entity66</title>
<path fill="none" stroke="black" d="M6077.7,-3498.56C6053.35,-3445.97 5981.69,-3291.21 5952.64,-3228.46"/>
<polygon fill="black" stroke="black" points="5955.73,-3226.81 5948.36,-3219.21 5949.38,-3229.76 5955.73,-3226.81"/>
<text text-anchor="start" x="5999.17" y="-3367.31" font-family="Times New Roman,serif" font-size="14.00">isa</text>
</g>
<!-- Entity12 -->
<g id="node27" class="node entity">
<title>Entity12</title>
<ellipse fill="none" stroke="black" cx="6336.89" cy="-3027.9" rx="58.49" ry="18"/>
<text text-anchor="start" x="6299.89" y="-3024.2" font-family="Times New Roman,serif" font-size="14.00">richard nixon</text>
</g>
<!-- Entity12&#45;&gt;Entity66 -->
<g id="edge22" class="edge verb">
<title>Entity12&#45;&gt;Entity66</title>
<path fill="none" stroke="black" d="M6303.07,-3042.71C6228.47,-3075.37 6050.48,-3153.3 5974.99,-3186.34"/>
<polygon fill="black" stroke="black" points="5973.22,-3183.3 5965.46,-3190.52 5976.02,-3189.71 5973.22,-3183.3"/>
<text text-anchor="start" x="6123.03" y="-3118.33" font-family="Times New Roman,serif" font-size="14.00">isa</text>
</g>
<!-- Entity24 -->
<g id="node29" class="node entity">
<title>Entity24</title>
<ellipse fill="none" stroke="black" cx="3900.95" cy="-3076.31" rx="63.89" ry="18"/>
<text text-anchor="start" x="3859.95" y="-3072.61" font-family="Times New Roman,serif" font-size="14.00">robert bigelow</text>
</g>
<!-- Entity24&#45;&gt;Entity7 -->
<g id="edge25" class="edge verb">
<title>Entity24&#45;&gt;Entity7</title>
<path fill="none" stroke="black" d="M3869.89,-3092.25C3833.07,-3111.14 3771.62,-3142.68 3731.06,-3163.49"/>
<polygon fill="black" stroke="black" points="3729.29,-3160.47 3721.99,-3168.15 3732.48,-3166.7 3729.29,-3160.47"/>
<text text-anchor="start" x="3768.48" y="-3131.67" font-family="Times New Roman,serif" font-size="14.00">funds</text>
</g>
<!-- Entity24&#45;&gt;Entity67 -->
<g id="edge45" class="edge verb">
<title>Entity24&#45;&gt;Entity67</title>
<path fill="none" stroke="black" d="M3915.51,-3093.98C3968.47,-3158.23 4150.94,-3379.62 4213.63,-3455.68"/>
<polygon fill="black" stroke="black" points="4211.27,-3458.31 4220.33,-3463.8 4216.67,-3453.86 4211.27,-3458.31"/>
<text text-anchor="start" x="4000.57" y="-3278.63" font-family="Times New Roman,serif" font-size="14.00">investigates</text>
</g>
<!-- Entity44 -->
<g id="node30" class="node entity">
<title>Entity44</title>
<ellipse fill="none" stroke="black" cx="6737.63" cy="-2403.64" rx="58.49" ry="18"/>
<text text-anchor="start" x="6700.63" y="-2399.94" font-family="Times New Roman,serif" font-size="14.00">steve bannon</text>
</g>
<!-- Entity44&#45;&gt;Entity15 -->
<g id="edge28" class="edge verb">
<title>Entity44&#45;&gt;Entity15</title>
<path fill="none" stroke="black" d="M6706.25,-2418.97C6597.88,-2478.59 6240.4,-2693.96 6132.92,-2764.32"/>
<polygon fill="black" stroke="black" points="6130.88,-2761.48 6124.46,-2769.91 6134.73,-2767.32 6130.88,-2761.48"/>
<text text-anchor="start" x="6364.58" y="-2595.44" font-family="Times New Roman,serif" font-size="14.00">promoted</text>
</g>
<!-- Entity44&#45;&gt;Entity15 -->
<g id="edge64" class="edge verb">
<title>Entity44&#45;&gt;Entity15</title>
<path fill="none" stroke="black" d="M6715.31,-2420.33C6622.17,-2482.37 6264.09,-2698.42 6142.64,-2766.21"/>
<polygon fill="black" stroke="black" points="6140.69,-2763.3 6133.64,-2771.21 6144.08,-2769.42 6140.69,-2763.3"/>
<text text-anchor="start" x="6428.98" y="-2597.07" font-family="Times New Roman,serif" font-size="14.00">advises</text>
</g>
<!-- Entity83 -->
<g id="node40" class="node entity">
<title>Entity83</title>
<ellipse fill="none" stroke="black" cx="6949.94" cy="-1783.55" rx="61.99" ry="18"/>
<text text-anchor="start" x="6910.44" y="-1779.85" font-family="Times New Roman,serif" font-size="14.00">breitbart news</text>
</g>
<!-- Entity44&#45;&gt;Entity83 -->
<g id="edge46" class="edge verb">
<title>Entity44&#45;&gt;Entity83</title>
<path fill="none" stroke="black" d="M6743.87,-2385.42C6773.97,-2297.52 6904.16,-1917.26 6940.49,-1811.14"/>
<polygon fill="black" stroke="black" points="6943.87,-1812.06 6943.8,-1801.47 6937.25,-1809.8 6943.87,-1812.06"/>
<text text-anchor="start" x="6801.18" y="-2102.08" font-family="Times New Roman,serif" font-size="14.00">created</text>
</g>
<!-- Entity89 -->
<g id="node49" class="node entity">
<title>Entity89</title>
<ellipse fill="none" stroke="black" cx="7175.01" cy="-2523.61" rx="35.19" ry="18"/>
<text text-anchor="start" x="7156.01" y="-2519.91" font-family="Times New Roman,serif" font-size="14.00">gurgev</text>
</g>
<!-- Entity44&#45;&gt;Entity89 -->
<g id="edge53" class="edge verb">
<title>Entity44&#45;&gt;Entity89</title>
<path fill="none" stroke="black" d="M6781.57,-2415.69C6866.42,-2438.96 7051.68,-2489.78 7134.08,-2512.39"/>
<polygon fill="black" stroke="black" points="7133.27,-2515.79 7143.84,-2515.06 7135.12,-2509.04 7133.27,-2515.79"/>
<text text-anchor="start" x="6916.83" y="-2467.84" font-family="Times New Roman,serif" font-size="14.00">studied</text>
</g>
<!-- Entity91 -->
<g id="node51" class="node entity">
<title>Entity91</title>
<ellipse fill="none" stroke="black" cx="7163.71" cy="-2221.14" rx="38.19" ry="18"/>
<text text-anchor="start" x="7142.21" y="-2217.44" font-family="Times New Roman,serif" font-size="14.00">us navy</text>
</g>
<!-- Entity44&#45;&gt;Entity91 -->
<g id="edge55" class="edge verb">
<title>Entity44&#45;&gt;Entity91</title>
<path fill="none" stroke="black" d="M6771.78,-2389.01C6850.34,-2355.36 7043.44,-2272.65 7125.65,-2237.44"/>
<polygon fill="black" stroke="black" points="7127.3,-2240.54 7135.11,-2233.39 7124.54,-2234.11 7127.3,-2240.54"/>
<text text-anchor="start" x="6887.72" y="-2317.03" font-family="Times New Roman,serif" font-size="14.00">member of</text>
</g>
<!-- Entity94 -->
<g id="node53" class="node entity">
<title>Entity94</title>
<ellipse fill="none" stroke="black" cx="7112.54" cy="-2038.23" rx="53.09" ry="18"/>
<text text-anchor="start" x="7079.54" y="-2034.53" font-family="Times New Roman,serif" font-size="14.00">biosphere 2</text>
</g>
<!-- Entity44&#45;&gt;Entity94 -->
<g id="edge57" class="edge verb">
<title>Entity44&#45;&gt;Entity94</title>
<path fill="none" stroke="black" d="M6755.72,-2386.01C6816.98,-2326.3 7016.82,-2131.53 7087.5,-2062.64"/>
<polygon fill="black" stroke="black" points="7090.36,-2064.74 7095.08,-2055.25 7085.47,-2059.73 7090.36,-2064.74"/>
<text text-anchor="start" x="6880.61" y="-2228.13" font-family="Times New Roman,serif" font-size="14.00">created</text>
</g>
<!-- Entity107 -->
<g id="node58" class="node entity">
<title>Entity107</title>
<ellipse fill="none" stroke="black" cx="6800.35" cy="-2295.57" rx="77.19" ry="18"/>
<text text-anchor="start" x="6748.85" y="-2291.87" font-family="Times New Roman,serif" font-size="14.00">hollywood movies</text>
</g>
<!-- Entity44&#45;&gt;Entity107 -->
<g id="edge61" class="edge verb">
<title>Entity44&#45;&gt;Entity107</title>
<path fill="none" stroke="black" d="M6747.99,-2385.79C6758.02,-2368.51 6773.36,-2342.08 6784.85,-2322.29"/>
<polygon fill="black" stroke="black" points="6787.98,-2323.85 6789.98,-2313.44 6781.93,-2320.34 6787.98,-2323.85"/>
<text text-anchor="start" x="6711.42" y="-2357.84" font-family="Times New Roman,serif" font-size="14.00">produced</text>
</g>
<!-- Entity111 -->
<g id="node59" class="node entity">
<title>Entity111</title>
<ellipse fill="none" stroke="black" cx="7317.16" cy="-2346.67" rx="64.99" ry="18"/>
<text text-anchor="start" x="7275.16" y="-2342.97" font-family="Times New Roman,serif" font-size="14.00">goldman sachs</text>
</g>
<!-- Entity44&#45;&gt;Entity111 -->
<g id="edge66" class="edge verb">
<title>Entity44&#45;&gt;Entity111</title>
<path fill="none" stroke="black" d="M6793.47,-2398.15C6899.21,-2387.76 7128.56,-2365.21 7245.49,-2353.72"/>
<polygon fill="black" stroke="black" points="7246.15,-2357.17 7255.76,-2352.71 7245.47,-2350.2 7246.15,-2357.17"/>
<text text-anchor="start" x="6956.48" y="-2379.73" font-family="Times New Roman,serif" font-size="14.00">worked for</text>
</g>
<!-- Entity33 -->
<g id="node32" class="node entity">
<title>Entity33</title>
<ellipse fill="none" stroke="black" cx="2487.95" cy="-4426.02" rx="57.69" ry="18"/>
<text text-anchor="start" x="2451.45" y="-4422.32" font-family="Times New Roman,serif" font-size="14.00">michael pane</text>
</g>
<!-- Entity33&#45;&gt;Entity30 -->
<g id="edge47" class="edge verb">
<title>Entity33&#45;&gt;Entity30</title>
<path fill="none" stroke="black" d="M2449.28,-4412.59C2368.64,-4384.57 2182.44,-4319.88 2091.26,-4288.21"/>
<polygon fill="black" stroke="black" points="2092.28,-4284.86 2081.68,-4284.88 2089.98,-4291.47 2092.28,-4284.86"/>
<text text-anchor="start" x="2207.27" y="-4354.2" font-family="Times New Roman,serif" font-size="14.00">worked for</text>
</g>
<!-- Entity33&#45;&gt;Entity72 -->
<g id="edge31" class="edge verb">
<title>Entity33&#45;&gt;Entity72</title>
<path fill="none" stroke="black" d="M2500.42,-4408.3C2544.26,-4346.06 2691.37,-4137.2 2743.39,-4063.35"/>
<polygon fill="black" stroke="black" points="2746.35,-4065.23 2749.25,-4055.03 2740.63,-4061.19 2746.35,-4065.23"/>
<text text-anchor="start" x="2565.91" y="-4239.63" font-family="Times New Roman,serif" font-size="14.00">worked at</text>
</g>
<!-- Entity45 -->
<g id="node33" class="node entity">
<title>Entity45</title>
<ellipse fill="none" stroke="black" cx="5608.94" cy="-2713.44" rx="67.69" ry="18"/>
<text text-anchor="start" x="5564.94" y="-2709.74" font-family="Times New Roman,serif" font-size="14.00">abraham lincoln</text>
</g>
<!-- Entity45&#45;&gt;Entity66 -->
<g id="edge32" class="edge verb">
<title>Entity45&#45;&gt;Entity66</title>
<path fill="none" stroke="black" d="M5621.12,-2731.39C5671.57,-2805.73 5864.21,-3089.61 5923.03,-3176.29"/>
<polygon fill="black" stroke="black" points="5920.25,-3178.43 5928.76,-3184.74 5926.04,-3174.5 5920.25,-3178.43"/>
<text text-anchor="start" x="5756.08" y="-2957.64" font-family="Times New Roman,serif" font-size="14.00">isa</text>
</g>
<!-- Entity38 -->
<g id="node34" class="node entity">
<title>Entity38</title>
<ellipse fill="none" stroke="black" cx="5070.63" cy="-2168.51" rx="90.98" ry="18"/>
<text text-anchor="start" x="5008.63" y="-2164.81" font-family="Times New Roman,serif" font-size="14.00">emma hardinge&#45;britten</text>
</g>
<!-- Entity38&#45;&gt;Entity45 -->
<g id="edge33" class="edge verb">
<title>Entity38&#45;&gt;Entity45</title>
<path fill="none" stroke="black" d="M5088.23,-2186.33C5167.63,-2266.7 5492.51,-2595.58 5584.54,-2688.74"/>
<polygon fill="black" stroke="black" points="5582.22,-2691.37 5591.74,-2696.03 5587.2,-2686.45 5582.22,-2691.37"/>
<text text-anchor="start" x="5237.38" y="-2441.33" font-family="Times New Roman,serif" font-size="14.00">spokesperson for</text>
</g>
<!-- Entity79 -->
<g id="node38" class="node entity">
<title>Entity79</title>
<ellipse fill="none" stroke="black" cx="5165.19" cy="-2060.48" rx="39.79" ry="18"/>
<text text-anchor="start" x="5142.69" y="-2056.78" font-family="Times New Roman,serif" font-size="14.00">medium</text>
</g>
<!-- Entity38&#45;&gt;Entity79 -->
<g id="edge38" class="edge verb">
<title>Entity38&#45;&gt;Entity79</title>
<path fill="none" stroke="black" d="M5086.24,-2150.67C5101.92,-2132.76 5126.19,-2105.04 5143.68,-2085.05"/>
<polygon fill="black" stroke="black" points="5146.53,-2087.11 5150.49,-2077.28 5141.27,-2082.5 5146.53,-2087.11"/>
<text text-anchor="start" x="5098.96" y="-2121.66" font-family="Times New Roman,serif" font-size="14.00">isa</text>
</g>
<!-- Entity86 -->
<g id="node48" class="node entity">
<title>Entity86</title>
<ellipse fill="none" stroke="black" cx="4893.89" cy="-1328.55" rx="85.29" ry="18"/>
<text text-anchor="start" x="4836.39" y="-1324.85" font-family="Times New Roman,serif" font-size="14.00">theosophical society</text>
</g>
<!-- Entity38&#45;&gt;Entity86 -->
<g id="edge65" class="edge verb">
<title>Entity38&#45;&gt;Entity86</title>
<path fill="none" stroke="black" d="M5066.77,-2150.18C5044.04,-2042.14 4927.55,-1488.51 4899.82,-1356.72"/>
<polygon fill="black" stroke="black" points="4903.18,-1355.7 4897.69,-1346.63 4896.33,-1357.14 4903.18,-1355.7"/>
<text text-anchor="start" x="4942.29" y="-1757.25" font-family="Times New Roman,serif" font-size="14.00">created</text>
</g>
<!-- Entity99 -->
<g id="node54" class="node entity">
<title>Entity99</title>
<ellipse fill="none" stroke="black" cx="4878.14" cy="-2060.47" rx="55.79" ry="18"/>
<text text-anchor="start" x="4843.14" y="-2056.77" font-family="Times New Roman,serif" font-size="14.00">orphic circle</text>
</g>
<!-- Entity38&#45;&gt;Entity99 -->
<g id="edge58" class="edge verb">
<title>Entity38&#45;&gt;Entity99</title>
<path fill="none" stroke="black" d="M5040.13,-2151.39C5006.12,-2132.3 4951.13,-2101.44 4914.81,-2081.05"/>
<polygon fill="black" stroke="black" points="4916.43,-2077.95 4906,-2076.11 4913.01,-2084.05 4916.43,-2077.95"/>
<text text-anchor="start" x="4916.47" y="-2120.02" font-family="Times New Roman,serif" font-size="14.00">member of</text>
</g>
<!-- Entity42 -->
<g id="node36" class="node entity">
<title>Entity42</title>
<ellipse fill="none" stroke="black" cx="3857.94" cy="-1919.66" rx="53.89" ry="18"/>
<text text-anchor="start" x="3824.44" y="-1915.96" font-family="Times New Roman,serif" font-size="14.00">black magic</text>
</g>
<!-- Entity81 -->
<g id="node37" class="node entity">
<title>Entity81</title>
<ellipse fill="none" stroke="black" cx="3945.66" cy="-2031.64" rx="28.7" ry="18"/>
<text text-anchor="start" x="3931.66" y="-2027.94" font-family="Times New Roman,serif" font-size="14.00">x left</text>
</g>
<!-- Entity42&#45;&gt;Entity81 -->
<g id="edge37" class="edge verb">
<title>Entity42&#45;&gt;Entity81</title>
<path fill="none" stroke="black" d="M3871.64,-1937.16C3886.45,-1956.05 3910.14,-1986.29 3926.72,-2007.45"/>
<polygon fill="black" stroke="black" points="3923.98,-2009.64 3932.9,-2015.36 3929.49,-2005.32 3923.98,-2009.64"/>
<text text-anchor="start" x="3838.18" y="-1976.11" font-family="Times New Roman,serif" font-size="14.00">member of</text>
</g>
<!-- Entity47 -->
<g id="node39" class="node entity">
<title>Entity47</title>
<ellipse fill="none" stroke="black" cx="6985.65" cy="-1675.62" rx="69.59" ry="18"/>
<text text-anchor="start" x="6940.15" y="-1671.92" font-family="Times New Roman,serif" font-size="14.00">andrew breitbart</text>
</g>
<!-- Entity47&#45;&gt;Entity83 -->
<g id="edge39" class="edge verb">
<title>Entity47&#45;&gt;Entity83</title>
<path fill="none" stroke="black" d="M6979.59,-1693.92C6973.96,-1710.93 6965.51,-1736.48 6959.07,-1755.95"/>
<polygon fill="black" stroke="black" points="6955.72,-1754.91 6955.9,-1765.51 6962.37,-1757.11 6955.72,-1754.91"/>
<text text-anchor="start" x="6928.33" y="-1728.74" font-family="Times New Roman,serif" font-size="14.00">created</text>
</g>
<!-- Entity35 -->
<g id="node42" class="node entity">
<title>Entity35</title>
<ellipse fill="none" stroke="black" cx="3843.94" cy="-2553.66" rx="39.79" ry="18"/>
<text text-anchor="start" x="3821.44" y="-2549.96" font-family="Times New Roman,serif" font-size="14.00">crowley</text>
</g>
<!-- Entity80 -->
<g id="node43" class="node entity">
<title>Entity80</title>
<ellipse fill="none" stroke="black" cx="3931.66" cy="-2665.64" rx="38.99" ry="18"/>
<text text-anchor="start" x="3909.66" y="-2661.94" font-family="Times New Roman,serif" font-size="14.00">x magic</text>
</g>
<!-- Entity35&#45;&gt;Entity80 -->
<g id="edge41" class="edge verb">
<title>Entity35&#45;&gt;Entity80</title>
<path fill="none" stroke="black" d="M3857.26,-2570.67C3871.82,-2589.25 3895.28,-2619.2 3911.96,-2640.49"/>
<polygon fill="black" stroke="black" points="3909.29,-2642.76 3918.21,-2648.47 3914.8,-2638.44 3909.29,-2642.76"/>
<text text-anchor="start" x="3823.61" y="-2609.38" font-family="Times New Roman,serif" font-size="14.00">member of</text>
</g>
<!-- Entity19 -->
<g id="node44" class="node entity">
<title>Entity19</title>
<ellipse fill="none" stroke="black" cx="5624.66" cy="-3016.12" rx="31.4" ry="18"/>
<text text-anchor="start" x="5608.66" y="-3012.42" font-family="Times New Roman,serif" font-size="14.00">carter</text>
</g>
<!-- Entity19&#45;&gt;Entity66 -->
<g id="edge44" class="edge verb">
<title>Entity19&#45;&gt;Entity66</title>
<path fill="none" stroke="black" d="M5646.85,-3029.16C5702.07,-3061.61 5845.77,-3146.08 5909.26,-3183.4"/>
<polygon fill="black" stroke="black" points="5907.63,-3186.5 5918.03,-3188.55 5911.18,-3180.47 5907.63,-3186.5"/>
<text text-anchor="start" x="5762.06" y="-3110.08" font-family="Times New Roman,serif" font-size="14.00">isa</text>
</g>
<!-- Entity19&#45;&gt;Entity90 -->
<g id="edge56" class="edge verb">
<title>Entity19&#45;&gt;Entity90</title>
<path fill="none" stroke="black" d="M5595.19,-3022.38C5527.14,-3036.85 5359.19,-3072.56 5285.18,-3088.29"/>
<polygon fill="black" stroke="black" points="5284.02,-3084.96 5274.96,-3090.46 5285.47,-3091.81 5284.02,-3084.96"/>
<text text-anchor="start" x="5385.19" y="-3059.14" font-family="Times New Roman,serif" font-size="14.00">witnessed</text>
</g>
<!-- Entity27 -->
<g id="node45" class="node entity">
<title>Entity27</title>
<ellipse fill="none" stroke="black" cx="36.31" cy="-4725.56" rx="36.29" ry="18"/>
<text text-anchor="start" x="16.31" y="-4721.86" font-family="Times New Roman,serif" font-size="14.00">oswald</text>
</g>
<!-- Entity34 -->
<g id="node46" class="node entity">
<title>Entity34</title>
<ellipse fill="none" stroke="black" cx="465.91" cy="-4614.14" rx="59.29" ry="18"/>
<text text-anchor="start" x="428.41" y="-4610.44" font-family="Times New Roman,serif" font-size="14.00">guy bannister</text>
</g>
<!-- Entity27&#45;&gt;Entity34 -->
<g id="edge50" class="edge verb">
<title>Entity27&#45;&gt;Entity34</title>
<path fill="none" stroke="black" d="M68.6,-4717.18C141.58,-4698.26 319.92,-4652 410.77,-4628.44"/>
<polygon fill="black" stroke="black" points="411.81,-4631.79 420.61,-4625.89 410.05,-4625.01 411.81,-4631.79"/>
<text text-anchor="start" x="176.69" y="-4676.61" font-family="Times New Roman,serif" font-size="14.00">worked for</text>
</g>
<!-- Entity34&#45;&gt;Entity75 -->
<g id="edge51" class="edge verb">
<title>Entity34&#45;&gt;Entity75</title>
<path fill="none" stroke="black" d="M512.54,-4602.83C606.91,-4579.95 819.38,-4528.43 912.14,-4505.94"/>
<polygon fill="black" stroke="black" points="913.16,-4509.29 922.05,-4503.53 911.51,-4502.49 913.16,-4509.29"/>
<text text-anchor="start" x="651.34" y="-4558.19" font-family="Times New Roman,serif" font-size="14.00">member of</text>
</g>
<!-- Entity64 -->
<g id="node47" class="node entity">
<title>Entity64</title>
<ellipse fill="none" stroke="black" cx="4562.04" cy="-776.68" rx="73.39" ry="18"/>
<text text-anchor="start" x="4513.54" y="-772.98" font-family="Times New Roman,serif" font-size="14.00">madam blavatsky</text>
</g>
<!-- Entity64&#45;&gt;Entity86 -->
<g id="edge52" class="edge verb">
<title>Entity64&#45;&gt;Entity86</title>
<path fill="none" stroke="black" d="M4572.89,-794.73C4621.59,-875.71 4820.07,-1205.78 4877.96,-1302.06"/>
<polygon fill="black" stroke="black" points="4874.97,-1303.87 4883.12,-1310.64 4880.96,-1300.26 4874.97,-1303.87"/>
<text text-anchor="start" x="4684.43" y="-1052.2" font-family="Times New Roman,serif" font-size="14.00">created</text>
</g>
<!-- Entity60 -->
<g id="node56" class="node entity">
<title>Entity60</title>
<ellipse fill="none" stroke="black" cx="4867.51" cy="-668.46" rx="58.49" ry="18"/>
<text text-anchor="start" x="4830.51" y="-664.76" font-family="Times New Roman,serif" font-size="14.00">rudolf steiner</text>
</g>
<!-- Entity60&#45;&gt;Entity86 -->
<g id="edge63" class="edge verb">
<title>Entity60&#45;&gt;Entity86</title>
<path fill="none" stroke="black" d="M4868.24,-686.8C4871.91,-778.59 4888.27,-1188.04 4892.75,-1300.11"/>
<polygon fill="black" stroke="black" points="4889.26,-1300.44 4893.16,-1310.29 4896.26,-1300.16 4889.26,-1300.44"/>
<text text-anchor="start" x="4814.49" y="-997.26" font-family="Times New Roman,serif" font-size="14.00">memberr of</text>
</g>
<!-- Entity93 -->
<g id="node57" class="node entity">
<title>Entity93</title>
<ellipse fill="none" stroke="black" cx="4795.13" cy="-17.99" rx="102.08" ry="18"/>
<text text-anchor="start" x="4724.63" y="-14.29" font-family="Times New Roman,serif" font-size="14.00">anthroposophical society</text>
</g>
<!-- Entity60&#45;&gt;Entity93 -->
<g id="edge60" class="edge verb">
<title>Entity60&#45;&gt;Entity93</title>
<path fill="none" stroke="black" d="M4865.49,-650.38C4855.44,-560.03 4810.64,-157.34 4798.29,-46.38"/>
<polygon fill="black" stroke="black" points="4801.75,-45.84 4797.17,-36.28 4794.79,-46.61 4801.75,-45.84"/>
<text text-anchor="start" x="4790.89" y="-352.18" font-family="Times New Roman,serif" font-size="14.00">created</text>
</g>
<!-- Entity109 -->
<g id="node60" class="node entity">
<title>Entity109</title>
<ellipse fill="none" stroke="black" cx="3196.94" cy="-2553.66" rx="27" ry="18"/>
<text text-anchor="start" x="3193.44" y="-2549.96" font-family="Times New Roman,serif" font-size="14.00">s</text>
</g>
<!-- Entity112 -->
<g id="node61" class="node entity">
<title>Entity112</title>
<ellipse fill="none" stroke="black" cx="3284.66" cy="-2665.64" rx="27" ry="18"/>
<text text-anchor="start" x="3280.66" y="-2661.94" font-family="Times New Roman,serif" font-size="14.00">o</text>
</g>
<!-- Entity109&#45;&gt;Entity112 -->
<g id="edge67" class="edge verb">
<title>Entity109&#45;&gt;Entity112</title>
<path fill="none" stroke="black" d="M3209.51,-2569.7C3224.23,-2588.5 3248.76,-2619.82 3265.78,-2641.53"/>
<polygon fill="black" stroke="black" points="3263.19,-2643.91 3272.11,-2649.62 3268.7,-2639.59 3263.19,-2643.91"/>
<text text-anchor="start" x="3230.64" y="-2609.42" font-family="Times New Roman,serif" font-size="14.00">v</text>
</g>
</g>
</svg>
