<?xml version="1.0" encoding="UTF-8" standalone="no"?>
<?xml-stylesheet href="./styles.css" type="text/css"?>
<!DOCTYPE svg PUBLIC "-//W3C//DTD SVG 1.1//EN"
 "http://www.w3.org/Graphics/SVG/1.1/DTD/svg11.dtd">
<!-- Generated by graphviz version 2.47.3 (20210619.1520)
 -->
<!-- Title: G Pages: 1 -->
<svg width="7640pt" height="4626pt"
 viewBox="0.00 0.00 7640.00 4626.00" xmlns="http://www.w3.org/2000/svg" xmlns:xlink="http://www.w3.org/1999/xlink">
<g id="graph0" class="graph" transform="scale(1 1) rotate(0) translate(4 4622)">
<title>G</title>
<polygon fill="white" stroke="transparent" points="-4,4 -4,-4622 7636,-4622 7636,4 -4,4"/>
<!-- Entity3 -->
<g id="node1" class="node entity">
<title>Entity3</title>
<ellipse fill="none" stroke="black" cx="4954.95" cy="-2863.5" rx="27" ry="18"/>
<text text-anchor="start" x="4947.45" y="-2859.8" font-family="Times New Roman,serif" font-size="14.00">jfk</text>
</g>
<!-- Entity22 -->
<g id="node2" class="node entity">
<title>Entity22</title>
<ellipse fill="none" stroke="black" cx="4541.16" cy="-2767.17" rx="27" ry="18"/>
<text text-anchor="start" x="4533.16" y="-2763.47" font-family="Times New Roman,serif" font-size="14.00">cia</text>
</g>
<!-- Entity3&#45;&gt;Entity22 -->
<g id="edge1" class="edge verb">
<title>Entity3&#45;&gt;Entity22</title>
<path fill="none" stroke="black" d="M4929.38,-2857.55C4858.33,-2841.01 4658.38,-2794.46 4576.65,-2775.43"/>
<polygon fill="black" stroke="black" points="4577.36,-2772 4566.83,-2773.14 4575.77,-2778.82 4577.36,-2772"/>
<text text-anchor="start" x="4649.01" y="-2820.29" font-family="Times New Roman,serif" font-size="14.00">heads (1961&#45;1963)</text>
</g>
<!-- Entity66 -->
<g id="node20" class="node entity">
<title>Entity66</title>
<ellipse fill="none" stroke="black" cx="5389.9" cy="-2993.29" rx="31.4" ry="18"/>
<text text-anchor="start" x="5373.9" y="-2989.59" font-family="Times New Roman,serif" font-size="14.00">potus</text>
</g>
<!-- Entity3&#45;&gt;Entity66 -->
<g id="edge23" class="edge verb">
<title>Entity3&#45;&gt;Entity66</title>
<path fill="none" stroke="black" d="M4979.9,-2870.95C5052.74,-2892.68 5265.44,-2956.15 5352.3,-2982.07"/>
<polygon fill="black" stroke="black" points="5351.42,-2985.46 5362.01,-2984.97 5353.43,-2978.76 5351.42,-2985.46"/>
<text text-anchor="start" x="5079.1" y="-2930.31" font-family="Times New Roman,serif" font-size="14.00">isa (1961&#45;1963)</text>
</g>
<!-- Entity67 -->
<g id="node25" class="node entity">
<title>Entity67</title>
<ellipse fill="none" stroke="black" cx="3839.28" cy="-2817.54" rx="77.19" ry="18"/>
<text text-anchor="start" x="3787.78" y="-2813.84" font-family="Times New Roman,serif" font-size="14.00">psi&#45;consciousness</text>
</g>
<!-- Entity22&#45;&gt;Entity67 -->
<g id="edge43" class="edge verb">
<title>Entity22&#45;&gt;Entity67</title>
<path fill="none" stroke="black" d="M4514.08,-2769.11C4416.7,-2776.1 4081.79,-2800.14 3923.47,-2811.5"/>
<polygon fill="black" stroke="black" points="3923.02,-2808.02 3913.3,-2812.23 3923.53,-2815 3923.02,-2808.02"/>
<text text-anchor="start" x="4154.77" y="-2794.1" font-family="Times New Roman,serif" font-size="14.00">investigates</text>
</g>
<!-- Entity90 -->
<g id="node52" class="node entity">
<title>Entity90</title>
<ellipse fill="none" stroke="black" cx="4694.29" cy="-3004.02" rx="27" ry="18"/>
<text text-anchor="start" x="4684.79" y="-3000.32" font-family="Times New Roman,serif" font-size="14.00">ufo</text>
</g>
<!-- Entity22&#45;&gt;Entity90 -->
<g id="edge62" class="edge verb">
<title>Entity22&#45;&gt;Entity90</title>
<path fill="none" stroke="black" d="M4551.93,-2783.82C4578.34,-2824.68 4646.48,-2930.06 4677.93,-2978.71"/>
<polygon fill="black" stroke="black" points="4675.17,-2980.88 4683.54,-2987.38 4681.05,-2977.08 4675.17,-2980.88"/>
<text text-anchor="start" x="4550.93" y="-2885.07" font-family="Times New Roman,serif" font-size="14.00">investigates</text>
</g>
<!-- Entity14 -->
<g id="node3" class="node entity">
<title>Entity14</title>
<ellipse fill="none" stroke="black" cx="2636.19" cy="-1958.31" rx="74.99" ry="18"/>
<text text-anchor="start" x="2586.69" y="-1954.61" font-family="Times New Roman,serif" font-size="14.00">gene roddenberry</text>
</g>
<!-- Entity8 -->
<g id="node4" class="node entity">
<title>Entity8</title>
<ellipse fill="none" stroke="black" cx="3008.63" cy="-2429.86" rx="38.19" ry="18"/>
<text text-anchor="start" x="2987.13" y="-2426.16" font-family="Times New Roman,serif" font-size="14.00">the nine</text>
</g>
<!-- Entity14&#45;&gt;Entity8 -->
<g id="edge2" class="edge verb">
<title>Entity14&#45;&gt;Entity8</title>
<path fill="none" stroke="black" d="M2650.34,-1976.22C2707.63,-2048.76 2922.54,-2320.86 2988.95,-2404.95"/>
<polygon fill="black" stroke="black" points="2986.31,-2407.25 2995.26,-2412.93 2991.81,-2402.91 2986.31,-2407.25"/>
<text text-anchor="start" x="2715.65" y="-2194.38" font-family="Times New Roman,serif" font-size="14.00">claiemd to channel</text>
</g>
<!-- Entity70 -->
<g id="node23" class="node entity">
<title>Entity70</title>
<ellipse fill="none" stroke="black" cx="3388.76" cy="-1855.77" rx="94.48" ry="18"/>
<text text-anchor="start" x="3324.26" y="-1852.07" font-family="Times New Roman,serif" font-size="14.00">egyptian gods in a ship</text>
</g>
<!-- Entity8&#45;&gt;Entity70 -->
<g id="edge16" class="edge verb">
<title>Entity8&#45;&gt;Entity70</title>
<path fill="none" stroke="black" d="M3020.22,-2412.36C3074.69,-2330.09 3305.5,-1981.51 3371.23,-1882.24"/>
<polygon fill="black" stroke="black" points="3374.29,-1883.96 3376.89,-1873.69 3368.45,-1880.1 3374.29,-1883.96"/>
<text text-anchor="start" x="3091.72" y="-2151.1" font-family="Times New Roman,serif" font-size="14.00">claimed to channel</text>
</g>
<!-- Entity16 -->
<g id="node5" class="node entity">
<title>Entity16</title>
<ellipse fill="none" stroke="black" cx="5682.43" cy="-3332.57" rx="68.49" ry="18"/>
<text text-anchor="start" x="5637.93" y="-3328.87" font-family="Times New Roman,serif" font-size="14.00">george hw bush</text>
</g>
<!-- Entity20 -->
<g id="node6" class="node entity">
<title>Entity20</title>
<ellipse fill="none" stroke="black" cx="5286.51" cy="-3276.64" rx="63.89" ry="18"/>
<text text-anchor="start" x="5245.51" y="-3272.94" font-family="Times New Roman,serif" font-size="14.00">george w bush</text>
</g>
<!-- Entity16&#45;&gt;Entity20 -->
<g id="edge3" class="edge verb">
<title>Entity16&#45;&gt;Entity20</title>
<path fill="none" stroke="black" d="M5621.86,-3324.02C5549.56,-3313.8 5428.99,-3296.77 5353.83,-3286.15"/>
<polygon fill="black" stroke="black" points="5353.92,-3282.63 5343.53,-3284.7 5352.94,-3289.56 5353.92,-3282.63"/>
<text text-anchor="start" x="5455.85" y="-3308.88" font-family="Times New Roman,serif" font-size="14.00">father</text>
</g>
<!-- Entity16&#45;&gt;Entity66 -->
<g id="edge20" class="edge verb">
<title>Entity16&#45;&gt;Entity66</title>
<path fill="none" stroke="black" d="M5667.11,-3314.81C5618.3,-3258.19 5466.33,-3081.93 5410.63,-3017.34"/>
<polygon fill="black" stroke="black" points="5413.21,-3014.97 5404.03,-3009.68 5407.91,-3019.54 5413.21,-3014.97"/>
<text text-anchor="start" x="5522.87" y="-3169.87" font-family="Times New Roman,serif" font-size="14.00">isa</text>
</g>
<!-- Entity20&#45;&gt;Entity66 -->
<g id="edge42" class="edge verb">
<title>Entity20&#45;&gt;Entity66</title>
<path fill="none" stroke="black" d="M5293.13,-3258.49C5310.79,-3210.09 5359.07,-3077.79 5380,-3020.42"/>
<polygon fill="black" stroke="black" points="5383.33,-3021.53 5383.47,-3010.93 5376.75,-3019.13 5383.33,-3021.53"/>
<text text-anchor="start" x="5320.57" y="-3143.25" font-family="Times New Roman,serif" font-size="14.00">isa</text>
</g>
<!-- Entity2 -->
<g id="node7" class="node entity">
<title>Entity2</title>
<ellipse fill="none" stroke="black" cx="2719.63" cy="-2533.57" rx="41.69" ry="18"/>
<text text-anchor="start" x="2695.63" y="-2529.87" font-family="Times New Roman,serif" font-size="14.00">uri geller</text>
</g>
<!-- Entity2&#45;&gt;Entity8 -->
<g id="edge4" class="edge verb">
<title>Entity2&#45;&gt;Entity8</title>
<path fill="none" stroke="black" d="M2751.66,-2522.07C2804.59,-2503.08 2910.21,-2465.18 2968.2,-2444.37"/>
<polygon fill="black" stroke="black" points="2969.54,-2447.61 2977.77,-2440.93 2967.18,-2441.02 2969.54,-2447.61"/>
<text text-anchor="start" x="2755.93" y="-2487.02" font-family="Times New Roman,serif" font-size="14.00">claiemd to channel</text>
</g>
<!-- Entity26 -->
<g id="node8" class="node entity">
<title>Entity26</title>
<ellipse fill="none" stroke="black" cx="842.94" cy="-3904.24" rx="49.29" ry="18"/>
<text text-anchor="start" x="812.94" y="-3900.54" font-family="Times New Roman,serif" font-size="14.00">adolf hitler</text>
</g>
<!-- Entity28 -->
<g id="node9" class="node entity">
<title>Entity28</title>
<ellipse fill="none" stroke="black" cx="1241.67" cy="-3883.16" rx="32.49" ry="18"/>
<text text-anchor="start" x="1224.67" y="-3879.46" font-family="Times New Roman,serif" font-size="14.00">nsdap</text>
</g>
<!-- Entity26&#45;&gt;Entity28 -->
<g id="edge5" class="edge verb">
<title>Entity26&#45;&gt;Entity28</title>
<path fill="none" stroke="black" d="M891.83,-3901.66C970.52,-3897.5 1123.97,-3889.38 1198.71,-3885.43"/>
<polygon fill="black" stroke="black" points="1199.34,-3888.9 1209.14,-3884.88 1198.97,-3881.91 1199.34,-3888.9"/>
<text text-anchor="start" x="1004.27" y="-3897.34" font-family="Times New Roman,serif" font-size="14.00">created</text>
</g>
<!-- Entity75 -->
<g id="node31" class="node entity">
<title>Entity75</title>
<ellipse fill="none" stroke="black" cx="865.29" cy="-4141.91" rx="38.99" ry="18"/>
<text text-anchor="start" x="843.29" y="-4138.21" font-family="Times New Roman,serif" font-size="14.00">far right</text>
</g>
<!-- Entity28&#45;&gt;Entity75 -->
<g id="edge29" class="edge verb">
<title>Entity28&#45;&gt;Entity75</title>
<path fill="none" stroke="black" d="M1221.16,-3897.26C1158.66,-3940.22 970.27,-4069.74 895.93,-4120.84"/>
<polygon fill="black" stroke="black" points="893.71,-4118.13 887.45,-4126.68 897.67,-4123.9 893.71,-4118.13"/>
<text text-anchor="start" x="997.55" y="-4012.85" font-family="Times New Roman,serif" font-size="14.00">member of</text>
</g>
<!-- Entity15 -->
<g id="node10" class="node entity">
<title>Entity15</title>
<ellipse fill="none" stroke="black" cx="5674.73" cy="-2627.49" rx="59.59" ry="18"/>
<text text-anchor="start" x="5636.73" y="-2623.79" font-family="Times New Roman,serif" font-size="14.00">donald trump</text>
</g>
<!-- Entity48 -->
<g id="node11" class="node entity">
<title>Entity48</title>
<ellipse fill="none" stroke="black" cx="5028.95" cy="-2587.43" rx="50.09" ry="18"/>
<text text-anchor="start" x="4998.45" y="-2583.73" font-family="Times New Roman,serif" font-size="14.00">john trump</text>
</g>
<!-- Entity15&#45;&gt;Entity48 -->
<g id="edge6" class="edge verb">
<title>Entity15&#45;&gt;Entity48</title>
<path fill="none" stroke="black" d="M5615.99,-2623.85C5493.52,-2616.25 5212,-2598.79 5088.67,-2591.14"/>
<polygon fill="black" stroke="black" points="5088.85,-2587.64 5078.65,-2590.51 5088.42,-2594.63 5088.85,-2587.64"/>
<text text-anchor="start" x="5293.33" y="-2611.29" font-family="Times New Roman,serif" font-size="14.00">nephew of</text>
</g>
<!-- Entity15&#45;&gt;Entity66 -->
<g id="edge27" class="edge verb">
<title>Entity15&#45;&gt;Entity66</title>
<path fill="none" stroke="black" d="M5660.99,-2645.13C5614.53,-2704.81 5463.17,-2899.2 5409.22,-2968.49"/>
<polygon fill="black" stroke="black" points="5406.23,-2966.63 5402.85,-2976.67 5411.75,-2970.93 5406.23,-2966.63"/>
<text text-anchor="start" x="5519.1" y="-2810.61" font-family="Times New Roman,serif" font-size="14.00">isa</text>
</g>
<!-- Entity48&#45;&gt;Entity22 -->
<g id="edge10" class="edge verb">
<title>Entity48&#45;&gt;Entity22</title>
<path fill="none" stroke="black" d="M4993.87,-2600.36C4903.42,-2633.69 4663.21,-2722.2 4574.6,-2754.85"/>
<polygon fill="black" stroke="black" points="4573.22,-2751.62 4565.05,-2758.37 4575.64,-2758.19 4573.22,-2751.62"/>
<text text-anchor="start" x="4723.24" y="-2681.4" font-family="Times New Roman,serif" font-size="14.00">member of</text>
</g>
<!-- Entity82 -->
<g id="node41" class="node entity">
<title>Entity82</title>
<ellipse fill="none" stroke="black" cx="4848.4" cy="-2164.04" rx="50.89" ry="18"/>
<text text-anchor="start" x="4817.4" y="-2160.34" font-family="Times New Roman,serif" font-size="14.00">nikola tesla</text>
</g>
<!-- Entity48&#45;&gt;Entity82 -->
<g id="edge40" class="edge verb">
<title>Entity48&#45;&gt;Entity82</title>
<path fill="none" stroke="black" d="M5021.31,-2569.51C4993.05,-2503.25 4894.36,-2271.81 4860.17,-2191.64"/>
<polygon fill="black" stroke="black" points="4863.29,-2190.03 4856.15,-2182.2 4856.85,-2192.77 4863.29,-2190.03"/>
<text text-anchor="start" x="4899.74" y="-2384.37" font-family="Times New Roman,serif" font-size="14.00">studied</text>
</g>
<!-- Entity5 -->
<g id="node12" class="node entity">
<title>Entity5</title>
<ellipse fill="none" stroke="black" cx="3050.62" cy="-2897.74" rx="56.59" ry="18"/>
<text text-anchor="start" x="3015.12" y="-2894.04" font-family="Times New Roman,serif" font-size="14.00">arthur young</text>
</g>
<!-- Entity5&#45;&gt;Entity8 -->
<g id="edge7" class="edge verb">
<title>Entity5&#45;&gt;Entity8</title>
<path fill="none" stroke="black" d="M3049,-2879.69C3042.59,-2808.26 3018.97,-2545.1 3011.16,-2458.04"/>
<polygon fill="black" stroke="black" points="3014.63,-2457.51 3010.25,-2447.86 3007.65,-2458.13 3014.63,-2457.51"/>
<text text-anchor="start" x="2968.08" y="-2672.66" font-family="Times New Roman,serif" font-size="14.00">member&#45;of</text>
</g>
<!-- Entity5&#45;&gt;Entity67 -->
<g id="edge18" class="edge verb">
<title>Entity5&#45;&gt;Entity67</title>
<path fill="none" stroke="black" d="M3104.51,-2892.26C3240.22,-2878.46 3596.62,-2842.22 3757.92,-2825.81"/>
<polygon fill="black" stroke="black" points="3758.66,-2829.26 3768.26,-2824.76 3757.95,-2822.29 3758.66,-2829.26"/>
<text text-anchor="start" x="3390.22" y="-2862.84" font-family="Times New Roman,serif" font-size="14.00">studied</text>
</g>
<!-- Entity72 -->
<g id="node28" class="node entity">
<title>Entity72</title>
<ellipse fill="none" stroke="black" cx="2454.01" cy="-3247.85" rx="53.89" ry="18"/>
<text text-anchor="start" x="2420.51" y="-3244.15" font-family="Times New Roman,serif" font-size="14.00">bell aviation</text>
</g>
<!-- Entity5&#45;&gt;Entity72 -->
<g id="edge24" class="edge verb">
<title>Entity5&#45;&gt;Entity72</title>
<path fill="none" stroke="black" d="M3023.43,-2913.7C2926.65,-2970.49 2598.83,-3162.86 2489.69,-3226.91"/>
<polygon fill="black" stroke="black" points="2487.86,-3223.92 2481.01,-3232 2491.41,-3229.96 2487.86,-3223.92"/>
<text text-anchor="start" x="2715.56" y="-3074.1" font-family="Times New Roman,serif" font-size="14.00">created</text>
</g>
<!-- Entity1 -->
<g id="node13" class="node entity">
<title>Entity1</title>
<ellipse fill="none" stroke="black" cx="2281.04" cy="-2323.47" rx="64.19" ry="18"/>
<text text-anchor="start" x="2239.54" y="-2319.77" font-family="Times New Roman,serif" font-size="14.00">andre puharich</text>
</g>
<!-- Entity1&#45;&gt;Entity2 -->
<g id="edge8" class="edge verb">
<title>Entity1&#45;&gt;Entity2</title>
<path fill="none" stroke="black" d="M2313.64,-2339.09C2393.45,-2377.32 2598.22,-2475.41 2682.52,-2515.79"/>
<polygon fill="black" stroke="black" points="2681.18,-2519.03 2691.72,-2520.2 2684.21,-2512.72 2681.18,-2519.03"/>
<text text-anchor="start" x="2438.08" y="-2431.24" font-family="Times New Roman,serif" font-size="14.00">sponsored</text>
</g>
<!-- Entity7 -->
<g id="node14" class="node entity">
<title>Entity7</title>
<ellipse fill="none" stroke="black" cx="3246.8" cy="-2691.07" rx="68.49" ry="18"/>
<text text-anchor="start" x="3202.3" y="-2687.37" font-family="Times New Roman,serif" font-size="14.00">jeffrey mishlove</text>
</g>
<!-- Entity7&#45;&gt;Entity2 -->
<g id="edge9" class="edge verb">
<title>Entity7&#45;&gt;Entity2</title>
<path fill="none" stroke="black" d="M3201.4,-2677.51C3101.32,-2647.6 2862.77,-2576.33 2763.82,-2546.77"/>
<polygon fill="black" stroke="black" points="2764.71,-2543.38 2754.13,-2543.87 2762.71,-2550.09 2764.71,-2543.38"/>
<text text-anchor="start" x="2927.61" y="-2615.94" font-family="Times New Roman,serif" font-size="14.00">promoted</text>
</g>
<!-- Entity7&#45;&gt;Entity67 -->
<g id="edge19" class="edge verb">
<title>Entity7&#45;&gt;Entity67</title>
<path fill="none" stroke="black" d="M3292,-2704.63C3393.17,-2729.9 3638.71,-2782.6 3763.62,-2806.16"/>
<polygon fill="black" stroke="black" points="3763.02,-2809.61 3773.49,-2808.01 3764.31,-2802.73 3763.02,-2809.61"/>
<text text-anchor="start" x="3486.81" y="-2759.19" font-family="Times New Roman,serif" font-size="14.00">studied</text>
</g>
<!-- Entity7&#45;&gt;Entity67 -->
<g id="edge26" class="edge verb">
<title>Entity7&#45;&gt;Entity67</title>
<path fill="none" stroke="black" d="M3307.21,-2699.61C3421.85,-2720.67 3669.48,-2773.54 3781.81,-2800.95"/>
<polygon fill="black" stroke="black" points="3781.05,-2804.37 3791.6,-2803.36 3782.72,-2797.57 3781.05,-2804.37"/>
<text text-anchor="start" x="3480.51" y="-2739.08" font-family="Times New Roman,serif" font-size="14.00">investigates</text>
</g>
<!-- Entity30 -->
<g id="node15" class="node entity">
<title>Entity30</title>
<ellipse fill="none" stroke="black" cx="1889.93" cy="-3388.51" rx="74.99" ry="18"/>
<text text-anchor="start" x="1840.43" y="-3384.81" font-family="Times New Roman,serif" font-size="14.00">walter dornberger</text>
</g>
<!-- Entity30&#45;&gt;Entity28 -->
<g id="edge11" class="edge verb">
<title>Entity30&#45;&gt;Entity28</title>
<path fill="none" stroke="black" d="M1867.24,-3405.82C1768.51,-3481.16 1376.49,-3780.28 1269.03,-3862.28"/>
<polygon fill="black" stroke="black" points="1266.77,-3859.6 1260.94,-3868.45 1271.01,-3865.17 1266.77,-3859.6"/>
<text text-anchor="start" x="1507.14" y="-3637.85" font-family="Times New Roman,serif" font-size="14.00">member of</text>
</g>
<!-- Entity30&#45;&gt;Entity72 -->
<g id="edge35" class="edge verb">
<title>Entity30&#45;&gt;Entity72</title>
<path fill="none" stroke="black" d="M1950.55,-3377.87C2063.72,-3353.07 2304.9,-3292.81 2406.9,-3263.69"/>
<polygon fill="black" stroke="black" points="2407.98,-3267.03 2416.61,-3260.89 2406.04,-3260.3 2407.98,-3267.03"/>
<text text-anchor="start" x="2099.72" y="-3324.58" font-family="Times New Roman,serif" font-size="14.00">vice&#45;president</text>
</g>
<!-- Entity30&#45;&gt;Entity72 -->
<g id="edge49" class="edge verb">
<title>Entity30&#45;&gt;Entity72</title>
<path fill="none" stroke="black" d="M1933.27,-3373.74C2033.59,-3344.89 2281.87,-3282.82 2395.52,-3258.02"/>
<polygon fill="black" stroke="black" points="2396.4,-3261.41 2405.43,-3255.87 2394.92,-3254.56 2396.4,-3261.41"/>
<text text-anchor="start" x="2108.39" y="-3304.68" font-family="Times New Roman,serif" font-size="14.00">worked at</text>
</g>
<!-- Entity76 -->
<g id="node35" class="node entity">
<title>Entity76</title>
<ellipse fill="none" stroke="black" cx="1141.09" cy="-3429.31" rx="90.98" ry="18"/>
<text text-anchor="start" x="1079.09" y="-3425.61" font-family="Times New Roman,serif" font-size="14.00">nsdap rocket program</text>
</g>
<!-- Entity30&#45;&gt;Entity76 -->
<g id="edge36" class="edge verb">
<title>Entity30&#45;&gt;Entity76</title>
<path fill="none" stroke="black" d="M1816.77,-3392.49C1681.32,-3399.87 1391.46,-3415.67 1239.17,-3423.97"/>
<polygon fill="black" stroke="black" points="1238.69,-3420.49 1228.9,-3424.53 1239.07,-3427.48 1238.69,-3420.49"/>
<text text-anchor="start" x="1486.97" y="-3412.03" font-family="Times New Roman,serif" font-size="14.00">created</text>
</g>
<!-- Entity104 -->
<g id="node55" class="node entity">
<title>Entity104</title>
<ellipse fill="none" stroke="black" cx="1855.34" cy="-4150.63" rx="65.79" ry="18"/>
<text text-anchor="start" x="1812.84" y="-4146.93" font-family="Times New Roman,serif" font-size="14.00">x series aircraft</text>
</g>
<!-- Entity30&#45;&gt;Entity104 -->
<g id="edge59" class="edge verb">
<title>Entity30&#45;&gt;Entity104</title>
<path fill="none" stroke="black" d="M1889.11,-3406.6C1884.55,-3507.25 1862.26,-3998.24 1856.64,-4122.17"/>
<polygon fill="black" stroke="black" points="1853.13,-4122.22 1856.17,-4132.37 1860.12,-4122.54 1853.13,-4122.22"/>
<text text-anchor="start" x="1831.87" y="-3768.18" font-family="Times New Roman,serif" font-size="14.00">created</text>
</g>
<!-- Entity32 -->
<g id="node16" class="node entity">
<title>Entity32</title>
<ellipse fill="none" stroke="black" cx="1552.42" cy="-3466.07" rx="46.29" ry="18"/>
<text text-anchor="start" x="1524.92" y="-3462.37" font-family="Times New Roman,serif" font-size="14.00">van braun</text>
</g>
<!-- Entity32&#45;&gt;Entity30 -->
<g id="edge12" class="edge verb">
<title>Entity32&#45;&gt;Entity30</title>
<path fill="none" stroke="black" d="M1592.46,-3456.87C1650.13,-3443.62 1757.17,-3419.02 1825.9,-3403.22"/>
<polygon fill="black" stroke="black" points="1826.79,-3406.61 1835.75,-3400.96 1825.22,-3399.79 1826.79,-3406.61"/>
<text text-anchor="start" x="1646.18" y="-3433.85" font-family="Times New Roman,serif" font-size="14.00">worked for</text>
</g>
<!-- Entity32&#45;&gt;Entity76 -->
<g id="edge48" class="edge verb">
<title>Entity32&#45;&gt;Entity76</title>
<path fill="none" stroke="black" d="M1507.22,-3462.03C1441.94,-3456.2 1319.78,-3445.28 1234.6,-3437.67"/>
<polygon fill="black" stroke="black" points="1234.67,-3434.16 1224.4,-3436.76 1234.05,-3441.13 1234.67,-3434.16"/>
<text text-anchor="start" x="1314.91" y="-3453.65" font-family="Times New Roman,serif" font-size="14.00">worked at</text>
</g>
<!-- Entity29 -->
<g id="node17" class="node entity">
<title>Entity29</title>
<ellipse fill="none" stroke="black" cx="4818.41" cy="-3492.55" rx="37.89" ry="18"/>
<text text-anchor="start" x="4797.41" y="-3488.85" font-family="Times New Roman,serif" font-size="14.00">hunt oil</text>
</g>
<!-- Entity36 -->
<g id="node18" class="node entity">
<title>Entity36</title>
<ellipse fill="none" stroke="black" cx="4861.86" cy="-3384.55" rx="77.99" ry="18"/>
<text text-anchor="start" x="4809.86" y="-3380.85" font-family="Times New Roman,serif" font-size="14.00">dwight eisenhower</text>
</g>
<!-- Entity29&#45;&gt;Entity36 -->
<g id="edge13" class="edge verb">
<title>Entity29&#45;&gt;Entity36</title>
<path fill="none" stroke="black" d="M4825.58,-3474.72C4832.43,-3457.7 4842.84,-3431.82 4850.76,-3412.14"/>
<polygon fill="black" stroke="black" points="4854.04,-3413.36 4854.53,-3402.78 4847.55,-3410.75 4854.04,-3413.36"/>
<text text-anchor="start" x="4798.17" y="-3447.23" font-family="Times New Roman,serif" font-size="14.00">funded</text>
</g>
<!-- Entity36&#45;&gt;Entity66 -->
<g id="edge34" class="edge verb">
<title>Entity36&#45;&gt;Entity66</title>
<path fill="none" stroke="black" d="M4885.23,-3367.24C4971.18,-3303.55 5269.53,-3082.49 5362.22,-3013.81"/>
<polygon fill="black" stroke="black" points="5364.58,-3016.42 5370.53,-3007.65 5360.41,-3010.79 5364.58,-3016.42"/>
<text text-anchor="start" x="5104.72" y="-3194.32" font-family="Times New Roman,serif" font-size="14.00">is a</text>
</g>
<!-- Entity11 -->
<g id="node19" class="node entity">
<title>Entity11</title>
<ellipse fill="none" stroke="black" cx="5836.1" cy="-3223.52" rx="56.59" ry="18"/>
<text text-anchor="start" x="5800.6" y="-3219.82" font-family="Times New Roman,serif" font-size="14.00">harry truman</text>
</g>
<!-- Entity11&#45;&gt;Entity66 -->
<g id="edge14" class="edge verb">
<title>Entity11&#45;&gt;Entity66</title>
<path fill="none" stroke="black" d="M5806.13,-3208.06C5725.7,-3166.56 5505.56,-3052.97 5422.34,-3010.03"/>
<polygon fill="black" stroke="black" points="5423.84,-3006.87 5413.35,-3005.39 5420.63,-3013.09 5423.84,-3006.87"/>
<text text-anchor="start" x="5598.24" y="-3112.84" font-family="Times New Roman,serif" font-size="14.00">isa</text>
</g>
<!-- Entity69 -->
<g id="node24" class="node entity">
<title>Entity69</title>
<ellipse fill="none" stroke="black" cx="6264.11" cy="-3537.44" rx="55.79" ry="18"/>
<text text-anchor="start" x="6229.11" y="-3533.74" font-family="Times New Roman,serif" font-size="14.00">freemasonry</text>
</g>
<!-- Entity11&#45;&gt;Entity69 -->
<g id="edge17" class="edge verb">
<title>Entity11&#45;&gt;Entity69</title>
<path fill="none" stroke="black" d="M5858.81,-3240.18C5930.34,-3292.64 6151.11,-3454.56 6233.06,-3514.67"/>
<polygon fill="black" stroke="black" points="6231.32,-3517.73 6241.46,-3520.82 6235.46,-3512.09 6231.32,-3517.73"/>
<text text-anchor="start" x="5984.94" y="-3381.22" font-family="Times New Roman,serif" font-size="14.00">member of</text>
</g>
<!-- Entity63 -->
<g id="node21" class="node entity">
<title>Entity63</title>
<ellipse fill="none" stroke="black" cx="5972.56" cy="-4047.29" rx="53.89" ry="18"/>
<text text-anchor="start" x="5939.06" y="-4043.59" font-family="Times New Roman,serif" font-size="14.00">edgar casey</text>
</g>
<!-- Entity59 -->
<g id="node22" class="node entity">
<title>Entity59</title>
<ellipse fill="none" stroke="black" cx="5742.98" cy="-3517.97" rx="71.49" ry="18"/>
<text text-anchor="start" x="5695.98" y="-3514.27" font-family="Times New Roman,serif" font-size="14.00">woodrow wilson</text>
</g>
<!-- Entity63&#45;&gt;Entity59 -->
<g id="edge15" class="edge verb">
<title>Entity63&#45;&gt;Entity59</title>
<path fill="none" stroke="black" d="M5964.79,-4029.37C5930.9,-3951.23 5795.85,-3639.86 5754.85,-3545.32"/>
<polygon fill="black" stroke="black" points="5757.94,-3543.66 5750.75,-3535.88 5751.52,-3546.44 5757.94,-3543.66"/>
<text text-anchor="start" x="5817.82" y="-3791.15" font-family="Times New Roman,serif" font-size="14.00">advises</text>
</g>
<!-- Entity59&#45;&gt;Entity66 -->
<g id="edge30" class="edge verb">
<title>Entity59&#45;&gt;Entity66</title>
<path fill="none" stroke="black" d="M5731.03,-3500.21C5678.57,-3422.25 5468.55,-3110.16 5406.96,-3018.64"/>
<polygon fill="black" stroke="black" points="5409.8,-3016.59 5401.31,-3010.25 5403.99,-3020.5 5409.8,-3016.59"/>
<text text-anchor="start" x="5553" y="-3263.22" font-family="Times New Roman,serif" font-size="14.00">isa</text>
</g>
<!-- Entity92 -->
<g id="node50" class="node entity">
<title>Entity92</title>
<ellipse fill="none" stroke="black" cx="5838.76" cy="-3625.99" rx="71.49" ry="18"/>
<text text-anchor="start" x="5791.76" y="-3622.29" font-family="Times New Roman,serif" font-size="14.00">leauge of nations</text>
</g>
<!-- Entity59&#45;&gt;Entity92 -->
<g id="edge54" class="edge verb">
<title>Entity59&#45;&gt;Entity92</title>
<path fill="none" stroke="black" d="M5758.8,-3535.8C5774.46,-3553.47 5798.61,-3580.7 5816.27,-3600.62"/>
<polygon fill="black" stroke="black" points="5813.67,-3602.97 5822.92,-3608.13 5818.91,-3598.32 5813.67,-3602.97"/>
<text text-anchor="start" x="5746.53" y="-3572.01" font-family="Times New Roman,serif" font-size="14.00">created</text>
</g>
<!-- Entity18 -->
<g id="node26" class="node entity">
<title>Entity18</title>
<ellipse fill="none" stroke="black" cx="5372.28" cy="-3384.62" rx="35.19" ry="18"/>
<text text-anchor="start" x="5353.28" y="-3380.92" font-family="Times New Roman,serif" font-size="14.00">obama</text>
</g>
<!-- Entity18&#45;&gt;Entity66 -->
<g id="edge21" class="edge verb">
<title>Entity18&#45;&gt;Entity66</title>
<path fill="none" stroke="black" d="M5373.1,-3366.53C5375.9,-3304.21 5385.19,-3098.07 5388.62,-3021.9"/>
<polygon fill="black" stroke="black" points="5392.12,-3021.79 5389.08,-3011.64 5385.13,-3021.48 5392.12,-3021.79"/>
<text text-anchor="start" x="5364.86" y="-3198.02" font-family="Times New Roman,serif" font-size="14.00">isa</text>
</g>
<!-- Entity12 -->
<g id="node27" class="node entity">
<title>Entity12</title>
<ellipse fill="none" stroke="black" cx="5792.9" cy="-2928.56" rx="58.49" ry="18"/>
<text text-anchor="start" x="5755.9" y="-2924.86" font-family="Times New Roman,serif" font-size="14.00">richard nixon</text>
</g>
<!-- Entity12&#45;&gt;Entity66 -->
<g id="edge22" class="edge verb">
<title>Entity12&#45;&gt;Entity66</title>
<path fill="none" stroke="black" d="M5741.04,-2936.89C5659.69,-2949.96 5503.79,-2975 5430.22,-2986.82"/>
<polygon fill="black" stroke="black" points="5429.3,-2983.42 5419.98,-2988.46 5430.41,-2990.33 5429.3,-2983.42"/>
<text text-anchor="start" x="5569.63" y="-2965.65" font-family="Times New Roman,serif" font-size="14.00">isa</text>
</g>
<!-- Entity24 -->
<g id="node29" class="node entity">
<title>Entity24</title>
<ellipse fill="none" stroke="black" cx="3416.14" cy="-2799.02" rx="63.89" ry="18"/>
<text text-anchor="start" x="3375.14" y="-2795.32" font-family="Times New Roman,serif" font-size="14.00">robert bigelow</text>
</g>
<!-- Entity24&#45;&gt;Entity7 -->
<g id="edge25" class="edge verb">
<title>Entity24&#45;&gt;Entity7</title>
<path fill="none" stroke="black" d="M3390.05,-2782.39C3360.96,-2763.85 3313.79,-2733.77 3281.58,-2713.24"/>
<polygon fill="black" stroke="black" points="3283.23,-2710.14 3272.92,-2707.72 3279.47,-2716.05 3283.23,-2710.14"/>
<text text-anchor="start" x="3303.82" y="-2751.61" font-family="Times New Roman,serif" font-size="14.00">funds</text>
</g>
<!-- Entity24&#45;&gt;Entity67 -->
<g id="edge45" class="edge verb">
<title>Entity24&#45;&gt;Entity67</title>
<path fill="none" stroke="black" d="M3479.49,-2801.79C3552.12,-2804.97 3671.58,-2810.2 3752.75,-2813.75"/>
<polygon fill="black" stroke="black" points="3752.8,-2817.26 3762.95,-2814.2 3753.11,-2810.26 3752.8,-2817.26"/>
<text text-anchor="start" x="3552.12" y="-2811.57" font-family="Times New Roman,serif" font-size="14.00">investigates</text>
</g>
<!-- Entity44 -->
<g id="node30" class="node entity">
<title>Entity44</title>
<ellipse fill="none" stroke="black" cx="6368" cy="-2568.29" rx="58.49" ry="18"/>
<text text-anchor="start" x="6331" y="-2564.59" font-family="Times New Roman,serif" font-size="14.00">steve bannon</text>
</g>
<!-- Entity44&#45;&gt;Entity15 -->
<g id="edge28" class="edge verb">
<title>Entity44&#45;&gt;Entity15</title>
<path fill="none" stroke="black" d="M6309.45,-2569.32C6180.17,-2576.67 5871.23,-2603 5737.84,-2617.99"/>
<polygon fill="black" stroke="black" points="5737.32,-2614.52 5727.78,-2619.13 5738.11,-2621.48 5737.32,-2614.52"/>
<text text-anchor="start" x="5968.65" y="-2597.45" font-family="Times New Roman,serif" font-size="14.00">promoted</text>
</g>
<!-- Entity44&#45;&gt;Entity15 -->
<g id="edge64" class="edge verb">
<title>Entity44&#45;&gt;Entity15</title>
<path fill="none" stroke="black" d="M6315.93,-2576.53C6192.85,-2590.85 5883.88,-2617.39 5744.66,-2625.79"/>
<polygon fill="black" stroke="black" points="5744.31,-2622.31 5734.54,-2626.39 5744.73,-2629.29 5744.31,-2622.31"/>
<text text-anchor="start" x="6030.3" y="-2604.96" font-family="Times New Roman,serif" font-size="14.00">advises</text>
</g>
<!-- Entity83 -->
<g id="node40" class="node entity">
<title>Entity83</title>
<ellipse fill="none" stroke="black" cx="6981.83" cy="-2710.91" rx="61.99" ry="18"/>
<text text-anchor="start" x="6942.33" y="-2707.21" font-family="Times New Roman,serif" font-size="14.00">breitbart news</text>
</g>
<!-- Entity44&#45;&gt;Entity83 -->
<g id="edge46" class="edge verb">
<title>Entity44&#45;&gt;Entity83</title>
<path fill="none" stroke="black" d="M6414.89,-2579.19C6525.43,-2604.87 6802.1,-2669.15 6923.35,-2697.32"/>
<polygon fill="black" stroke="black" points="6922.67,-2700.76 6933.2,-2699.61 6924.25,-2693.94 6922.67,-2700.76"/>
<text text-anchor="start" x="6628.12" y="-2642.06" font-family="Times New Roman,serif" font-size="14.00">created</text>
</g>
<!-- Entity89 -->
<g id="node49" class="node entity">
<title>Entity89</title>
<ellipse fill="none" stroke="black" cx="6654.49" cy="-2205.01" rx="35.19" ry="18"/>
<text text-anchor="start" x="6635.49" y="-2201.31" font-family="Times New Roman,serif" font-size="14.00">gurgev</text>
</g>
<!-- Entity44&#45;&gt;Entity89 -->
<g id="edge53" class="edge verb">
<title>Entity44&#45;&gt;Entity89</title>
<path fill="none" stroke="black" d="M6381.82,-2550.77C6428.44,-2491.65 6580.1,-2299.34 6634.69,-2230.13"/>
<polygon fill="black" stroke="black" points="6637.7,-2231.96 6641.14,-2221.94 6632.2,-2227.62 6637.7,-2231.96"/>
<text text-anchor="start" x="6467.25" y="-2394.25" font-family="Times New Roman,serif" font-size="14.00">studied</text>
</g>
<!-- Entity91 -->
<g id="node51" class="node entity">
<title>Entity91</title>
<ellipse fill="none" stroke="black" cx="6803.4" cy="-2362.44" rx="38.19" ry="18"/>
<text text-anchor="start" x="6781.9" y="-2358.74" font-family="Times New Roman,serif" font-size="14.00">us navy</text>
</g>
<!-- Entity44&#45;&gt;Entity91 -->
<g id="edge55" class="edge verb">
<title>Entity44&#45;&gt;Entity91</title>
<path fill="none" stroke="black" d="M6400.02,-2553.16C6479.16,-2515.74 6683.6,-2419.08 6767.08,-2379.61"/>
<polygon fill="black" stroke="black" points="6768.64,-2382.75 6776.18,-2375.31 6765.64,-2376.42 6768.64,-2382.75"/>
<text text-anchor="start" x="6583.55" y="-2470.18" font-family="Times New Roman,serif" font-size="14.00">member of</text>
</g>
<!-- Entity94 -->
<g id="node53" class="node entity">
<title>Entity94</title>
<ellipse fill="none" stroke="black" cx="6893.32" cy="-2542.23" rx="53.09" ry="18"/>
<text text-anchor="start" x="6860.32" y="-2538.53" font-family="Times New Roman,serif" font-size="14.00">biosphere 2</text>
</g>
<!-- Entity44&#45;&gt;Entity94 -->
<g id="edge57" class="edge verb">
<title>Entity44&#45;&gt;Entity94</title>
<path fill="none" stroke="black" d="M6425.97,-2565.42C6525.29,-2560.49 6727.2,-2550.47 6830.04,-2545.37"/>
<polygon fill="black" stroke="black" points="6830.47,-2548.85 6840.28,-2544.86 6830.12,-2541.86 6830.47,-2548.85"/>
<text text-anchor="start" x="6587.01" y="-2559.19" font-family="Times New Roman,serif" font-size="14.00">created</text>
</g>
<!-- Entity107 -->
<g id="node58" class="node entity">
<title>Entity107</title>
<ellipse fill="none" stroke="black" cx="6564.36" cy="-2676.22" rx="77.19" ry="18"/>
<text text-anchor="start" x="6512.86" y="-2672.52" font-family="Times New Roman,serif" font-size="14.00">hollywood movies</text>
</g>
<!-- Entity44&#45;&gt;Entity107 -->
<g id="edge61" class="edge verb">
<title>Entity44&#45;&gt;Entity107</title>
<path fill="none" stroke="black" d="M6396.97,-2584.22C6430.8,-2602.81 6486.94,-2633.67 6524.77,-2654.47"/>
<polygon fill="black" stroke="black" points="6523.52,-2657.77 6533.97,-2659.52 6526.9,-2651.64 6523.52,-2657.77"/>
<text text-anchor="start" x="6405.87" y="-2623.14" font-family="Times New Roman,serif" font-size="14.00">produced</text>
</g>
<!-- Entity111 -->
<g id="node59" class="node entity">
<title>Entity111</title>
<ellipse fill="none" stroke="black" cx="6493.44" cy="-2460.3" rx="64.99" ry="18"/>
<text text-anchor="start" x="6451.44" y="-2456.6" font-family="Times New Roman,serif" font-size="14.00">goldman sachs</text>
</g>
<!-- Entity44&#45;&gt;Entity111 -->
<g id="edge66" class="edge verb">
<title>Entity44&#45;&gt;Entity111</title>
<path fill="none" stroke="black" d="M6387.88,-2551.18C6408.86,-2533.12 6442.08,-2504.51 6465.65,-2484.22"/>
<polygon fill="black" stroke="black" points="6467.95,-2486.87 6473.24,-2477.69 6463.38,-2481.56 6467.95,-2486.87"/>
<text text-anchor="start" x="6363.76" y="-2521.5" font-family="Times New Roman,serif" font-size="14.00">worked for</text>
</g>
<!-- Entity33 -->
<g id="node32" class="node entity">
<title>Entity33</title>
<ellipse fill="none" stroke="black" cx="2247.33" cy="-3666.9" rx="57.69" ry="18"/>
<text text-anchor="start" x="2210.83" y="-3663.2" font-family="Times New Roman,serif" font-size="14.00">michael pane</text>
</g>
<!-- Entity33&#45;&gt;Entity30 -->
<g id="edge47" class="edge verb">
<title>Entity33&#45;&gt;Entity30</title>
<path fill="none" stroke="black" d="M2225.78,-3650.11C2164.87,-3602.66 1991.3,-3467.47 1920.53,-3412.34"/>
<polygon fill="black" stroke="black" points="1922.47,-3409.41 1912.43,-3406.03 1918.17,-3414.94 1922.47,-3409.41"/>
<text text-anchor="start" x="2010.16" y="-3535.03" font-family="Times New Roman,serif" font-size="14.00">worked for</text>
</g>
<!-- Entity33&#45;&gt;Entity72 -->
<g id="edge31" class="edge verb">
<title>Entity33&#45;&gt;Entity72</title>
<path fill="none" stroke="black" d="M2256.21,-3648.89C2288.74,-3582.94 2401.5,-3354.3 2440.56,-3275.1"/>
<polygon fill="black" stroke="black" points="2443.87,-3276.3 2445.16,-3265.78 2437.6,-3273.2 2443.87,-3276.3"/>
<text text-anchor="start" x="2292.39" y="-3465.8" font-family="Times New Roman,serif" font-size="14.00">worked at</text>
</g>
<!-- Entity45 -->
<g id="node33" class="node entity">
<title>Entity45</title>
<ellipse fill="none" stroke="black" cx="5555.43" cy="-2302.07" rx="67.69" ry="18"/>
<text text-anchor="start" x="5511.43" y="-2298.37" font-family="Times New Roman,serif" font-size="14.00">abraham lincoln</text>
</g>
<!-- Entity45&#45;&gt;Entity66 -->
<g id="edge32" class="edge verb">
<title>Entity45&#45;&gt;Entity66</title>
<path fill="none" stroke="black" d="M5551.08,-2320.2C5528.46,-2414.7 5424.02,-2850.81 5396.54,-2965.56"/>
<polygon fill="black" stroke="black" points="5393.13,-2964.81 5394.2,-2975.35 5399.93,-2966.44 5393.13,-2964.81"/>
<text text-anchor="start" x="5457.81" y="-2646.68" font-family="Times New Roman,serif" font-size="14.00">isa</text>
</g>
<!-- Entity38 -->
<g id="node34" class="node entity">
<title>Entity38</title>
<ellipse fill="none" stroke="black" cx="5772.12" cy="-1411.78" rx="90.98" ry="18"/>
<text text-anchor="start" x="5710.12" y="-1408.08" font-family="Times New Roman,serif" font-size="14.00">emma hardinge&#45;britten</text>
</g>
<!-- Entity38&#45;&gt;Entity45 -->
<g id="edge33" class="edge verb">
<title>Entity38&#45;&gt;Entity45</title>
<path fill="none" stroke="black" d="M5767.7,-1429.97C5740.47,-1541.86 5595.72,-2136.52 5562.31,-2273.78"/>
<polygon fill="black" stroke="black" points="5558.81,-2273.37 5559.85,-2283.91 5565.61,-2275.02 5558.81,-2273.37"/>
<text text-anchor="start" x="5566" y="-1855.68" font-family="Times New Roman,serif" font-size="14.00">spokesperson for</text>
</g>
<!-- Entity79 -->
<g id="node38" class="node entity">
<title>Entity79</title>
<ellipse fill="none" stroke="black" cx="5740.43" cy="-840.5" rx="39.79" ry="18"/>
<text text-anchor="start" x="5717.93" y="-836.8" font-family="Times New Roman,serif" font-size="14.00">medium</text>
</g>
<!-- Entity38&#45;&gt;Entity79 -->
<g id="edge38" class="edge verb">
<title>Entity38&#45;&gt;Entity79</title>
<path fill="none" stroke="black" d="M5771.12,-1393.74C5766.54,-1311.21 5747.58,-969.35 5741.99,-868.58"/>
<polygon fill="black" stroke="black" points="5745.48,-868.34 5741.43,-858.55 5738.49,-868.73 5745.48,-868.34"/>
<text text-anchor="start" x="5740.55" y="-1134.96" font-family="Times New Roman,serif" font-size="14.00">isa</text>
</g>
<!-- Entity86 -->
<g id="node48" class="node entity">
<title>Entity86</title>
<ellipse fill="none" stroke="black" cx="5793.85" cy="-1303.82" rx="85.29" ry="18"/>
<text text-anchor="start" x="5736.35" y="-1300.12" font-family="Times New Roman,serif" font-size="14.00">theosophical society</text>
</g>
<!-- Entity38&#45;&gt;Entity86 -->
<g id="edge65" class="edge verb">
<title>Entity38&#45;&gt;Entity86</title>
<path fill="none" stroke="black" d="M5775.81,-1393.47C5779.22,-1376.54 5784.33,-1351.14 5788.24,-1331.69"/>
<polygon fill="black" stroke="black" points="5791.68,-1332.36 5790.22,-1321.86 5784.82,-1330.98 5791.68,-1332.36"/>
<text text-anchor="start" x="5741.03" y="-1366.38" font-family="Times New Roman,serif" font-size="14.00">created</text>
</g>
<!-- Entity99 -->
<g id="node54" class="node entity">
<title>Entity99</title>
<ellipse fill="none" stroke="black" cx="6207.64" cy="-964.9" rx="55.79" ry="18"/>
<text text-anchor="start" x="6172.64" y="-961.2" font-family="Times New Roman,serif" font-size="14.00">orphic circle</text>
</g>
<!-- Entity38&#45;&gt;Entity99 -->
<g id="edge58" class="edge verb">
<title>Entity38&#45;&gt;Entity99</title>
<path fill="none" stroke="black" d="M5789.47,-1393.99C5857.36,-1324.32 6105.23,-1069.98 6183.67,-989.5"/>
<polygon fill="black" stroke="black" points="6186.24,-991.87 6190.72,-982.26 6181.23,-986.98 6186.24,-991.87"/>
<text text-anchor="start" x="5925.57" y="-1195.54" font-family="Times New Roman,serif" font-size="14.00">member of</text>
</g>
<!-- Entity42 -->
<g id="node36" class="node entity">
<title>Entity42</title>
<ellipse fill="none" stroke="black" cx="4449.94" cy="-2215.66" rx="53.89" ry="18"/>
<text text-anchor="start" x="4416.44" y="-2211.96" font-family="Times New Roman,serif" font-size="14.00">black magic</text>
</g>
<!-- Entity81 -->
<g id="node37" class="node entity">
<title>Entity81</title>
<ellipse fill="none" stroke="black" cx="4537.66" cy="-2327.64" rx="28.7" ry="18"/>
<text text-anchor="start" x="4523.66" y="-2323.94" font-family="Times New Roman,serif" font-size="14.00">x left</text>
</g>
<!-- Entity42&#45;&gt;Entity81 -->
<g id="edge37" class="edge verb">
<title>Entity42&#45;&gt;Entity81</title>
<path fill="none" stroke="black" d="M4463.64,-2233.16C4478.45,-2252.05 4502.14,-2282.29 4518.72,-2303.45"/>
<polygon fill="black" stroke="black" points="4515.98,-2305.64 4524.9,-2311.36 4521.49,-2301.32 4515.98,-2305.64"/>
<text text-anchor="start" x="4430.18" y="-2272.11" font-family="Times New Roman,serif" font-size="14.00">member of</text>
</g>
<!-- Entity47 -->
<g id="node39" class="node entity">
<title>Entity47</title>
<ellipse fill="none" stroke="black" cx="7562.79" cy="-2771.26" rx="69.59" ry="18"/>
<text text-anchor="start" x="7517.29" y="-2767.56" font-family="Times New Roman,serif" font-size="14.00">andrew breitbart</text>
</g>
<!-- Entity47&#45;&gt;Entity83 -->
<g id="edge39" class="edge verb">
<title>Entity47&#45;&gt;Entity83</title>
<path fill="none" stroke="black" d="M7498.12,-2764.54C7387.7,-2753.07 7163.79,-2729.81 7050.62,-2718.06"/>
<polygon fill="black" stroke="black" points="7050.66,-2714.54 7040.35,-2716.99 7049.94,-2721.5 7050.66,-2714.54"/>
<text text-anchor="start" x="7233.37" y="-2745.1" font-family="Times New Roman,serif" font-size="14.00">created</text>
</g>
<!-- Entity35 -->
<g id="node42" class="node entity">
<title>Entity35</title>
<ellipse fill="none" stroke="black" cx="4121.94" cy="-1587.66" rx="39.79" ry="18"/>
<text text-anchor="start" x="4099.44" y="-1583.96" font-family="Times New Roman,serif" font-size="14.00">crowley</text>
</g>
<!-- Entity80 -->
<g id="node43" class="node entity">
<title>Entity80</title>
<ellipse fill="none" stroke="black" cx="4209.66" cy="-1699.64" rx="38.99" ry="18"/>
<text text-anchor="start" x="4187.66" y="-1695.94" font-family="Times New Roman,serif" font-size="14.00">x magic</text>
</g>
<!-- Entity35&#45;&gt;Entity80 -->
<g id="edge41" class="edge verb">
<title>Entity35&#45;&gt;Entity80</title>
<path fill="none" stroke="black" d="M4135.26,-1604.67C4149.82,-1623.25 4173.28,-1653.2 4189.96,-1674.49"/>
<polygon fill="black" stroke="black" points="4187.29,-1676.76 4196.21,-1682.47 4192.8,-1672.44 4187.29,-1676.76"/>
<text text-anchor="start" x="4101.61" y="-1643.38" font-family="Times New Roman,serif" font-size="14.00">member of</text>
</g>
<!-- Entity19 -->
<g id="node44" class="node entity">
<title>Entity19</title>
<ellipse fill="none" stroke="black" cx="5029.24" cy="-3046.11" rx="31.4" ry="18"/>
<text text-anchor="start" x="5013.24" y="-3042.41" font-family="Times New Roman,serif" font-size="14.00">carter</text>
</g>
<!-- Entity19&#45;&gt;Entity66 -->
<g id="edge44" class="edge verb">
<title>Entity19&#45;&gt;Entity66</title>
<path fill="none" stroke="black" d="M5059.68,-3041.65C5124.51,-3032.16 5276.23,-3009.94 5349.24,-2999.25"/>
<polygon fill="black" stroke="black" points="5350.03,-3002.67 5359.42,-2997.76 5349.02,-2995.74 5350.03,-3002.67"/>
<text text-anchor="start" x="5188.46" y="-3024.25" font-family="Times New Roman,serif" font-size="14.00">isa</text>
</g>
<!-- Entity19&#45;&gt;Entity90 -->
<g id="edge56" class="edge verb">
<title>Entity19&#45;&gt;Entity90</title>
<path fill="none" stroke="black" d="M4998.63,-3042.26C4936.85,-3034.5 4797.5,-3016.99 4730.98,-3008.63"/>
<polygon fill="black" stroke="black" points="4731.31,-3005.14 4720.95,-3007.37 4730.44,-3012.09 4731.31,-3005.14"/>
<text text-anchor="start" x="4809.8" y="-3029.24" font-family="Times New Roman,serif" font-size="14.00">witnessed</text>
</g>
<!-- Entity27 -->
<g id="node45" class="node entity">
<title>Entity27</title>
<ellipse fill="none" stroke="black" cx="36.02" cy="-4599.77" rx="36.29" ry="18"/>
<text text-anchor="start" x="16.02" y="-4596.07" font-family="Times New Roman,serif" font-size="14.00">oswald</text>
</g>
<!-- Entity34 -->
<g id="node46" class="node entity">
<title>Entity34</title>
<ellipse fill="none" stroke="black" cx="426.02" cy="-4389.27" rx="59.29" ry="18"/>
<text text-anchor="start" x="388.52" y="-4385.57" font-family="Times New Roman,serif" font-size="14.00">guy bannister</text>
</g>
<!-- Entity27&#45;&gt;Entity34 -->
<g id="edge50" class="edge verb">
<title>Entity27&#45;&gt;Entity34</title>
<path fill="none" stroke="black" d="M60.71,-4586.44C126.76,-4550.79 307.87,-4453.04 387.54,-4410.04"/>
<polygon fill="black" stroke="black" points="389.6,-4412.9 396.74,-4405.07 386.28,-4406.74 389.6,-4412.9"/>
<text text-anchor="start" x="161.13" y="-4502.04" font-family="Times New Roman,serif" font-size="14.00">worked for</text>
</g>
<!-- Entity34&#45;&gt;Entity75 -->
<g id="edge51" class="edge verb">
<title>Entity34&#45;&gt;Entity75</title>
<path fill="none" stroke="black" d="M454.16,-4373.42C531.64,-4329.79 747.85,-4208.05 831.57,-4160.9"/>
<polygon fill="black" stroke="black" points="833.42,-4163.88 840.41,-4155.92 829.98,-4157.78 833.42,-4163.88"/>
<text text-anchor="start" x="581.87" y="-4270.96" font-family="Times New Roman,serif" font-size="14.00">member of</text>
</g>
<!-- Entity64 -->
<g id="node47" class="node entity">
<title>Entity64</title>
<ellipse fill="none" stroke="black" cx="5655.69" cy="-1195.77" rx="73.39" ry="18"/>
<text text-anchor="start" x="5607.19" y="-1192.07" font-family="Times New Roman,serif" font-size="14.00">madam blavatsky</text>
</g>
<!-- Entity64&#45;&gt;Entity86 -->
<g id="edge52" class="edge verb">
<title>Entity64&#45;&gt;Entity86</title>
<path fill="none" stroke="black" d="M5677.89,-1213.13C5701.02,-1231.22 5737.42,-1259.69 5763.26,-1279.9"/>
<polygon fill="black" stroke="black" points="5761.22,-1282.74 5771.25,-1286.14 5765.53,-1277.23 5761.22,-1282.74"/>
<text text-anchor="start" x="5679.58" y="-1250.32" font-family="Times New Roman,serif" font-size="14.00">created</text>
</g>
<!-- Entity60 -->
<g id="node56" class="node entity">
<title>Entity60</title>
<ellipse fill="none" stroke="black" cx="6004.97" cy="-651.46" rx="58.49" ry="18"/>
<text text-anchor="start" x="5967.97" y="-647.76" font-family="Times New Roman,serif" font-size="14.00">rudolf steiner</text>
</g>
<!-- Entity60&#45;&gt;Entity86 -->
<g id="edge63" class="edge verb">
<title>Entity60&#45;&gt;Entity86</title>
<path fill="none" stroke="black" d="M5999.1,-669.58C5969.71,-760.39 5838.52,-1165.77 5802.84,-1276.05"/>
<polygon fill="black" stroke="black" points="5799.44,-1275.19 5799.69,-1285.78 5806.1,-1277.34 5799.44,-1275.19"/>
<text text-anchor="start" x="5834.97" y="-976.62" font-family="Times New Roman,serif" font-size="14.00">memberr of</text>
</g>
<!-- Entity93 -->
<g id="node57" class="node entity">
<title>Entity93</title>
<ellipse fill="none" stroke="black" cx="6204.44" cy="-18.45" rx="102.08" ry="18"/>
<text text-anchor="start" x="6133.94" y="-14.75" font-family="Times New Roman,serif" font-size="14.00">anthroposophical society</text>
</g>
<!-- Entity60&#45;&gt;Entity93 -->
<g id="edge60" class="edge verb">
<title>Entity60&#45;&gt;Entity93</title>
<path fill="none" stroke="black" d="M6010.61,-633.53C6038.5,-545.03 6161.52,-154.64 6195.64,-46.38"/>
<polygon fill="black" stroke="black" points="6199.08,-47.11 6198.75,-36.52 6192.4,-45.01 6199.08,-47.11"/>
<text text-anchor="start" x="6062.13" y="-343.75" font-family="Times New Roman,serif" font-size="14.00">created</text>
</g>
<!-- Entity109 -->
<g id="node60" class="node entity">
<title>Entity109</title>
<ellipse fill="none" stroke="black" cx="3794.94" cy="-2215.66" rx="27" ry="18"/>
<text text-anchor="start" x="3791.44" y="-2211.96" font-family="Times New Roman,serif" font-size="14.00">s</text>
</g>
<!-- Entity112 -->
<g id="node61" class="node entity">
<title>Entity112</title>
<ellipse fill="none" stroke="black" cx="3882.66" cy="-2327.64" rx="27" ry="18"/>
<text text-anchor="start" x="3878.66" y="-2323.94" font-family="Times New Roman,serif" font-size="14.00">o</text>
</g>
<!-- Entity109&#45;&gt;Entity112 -->
<g id="edge67" class="edge verb">
<title>Entity109&#45;&gt;Entity112</title>
<path fill="none" stroke="black" d="M3807.51,-2231.7C3822.23,-2250.5 3846.76,-2281.82 3863.78,-2303.53"/>
<polygon fill="black" stroke="black" points="3861.19,-2305.91 3870.11,-2311.62 3866.7,-2301.59 3861.19,-2305.91"/>
<text text-anchor="start" x="3828.64" y="-2271.42" font-family="Times New Roman,serif" font-size="14.00">v</text>
</g>
</g>
</svg>
