<?xml version="1.0" encoding="UTF-8" standalone="no"?>
<?xml-stylesheet href="./styles.css" type="text/css"?>
<!DOCTYPE svg PUBLIC "-//W3C//DTD SVG 1.1//EN"
 "http://www.w3.org/Graphics/SVG/1.1/DTD/svg11.dtd">
<!-- Generated by graphviz version 2.47.3 (20210619.1520)
 -->
<!-- Title: G Pages: 1 -->
<svg width="7483pt" height="5113pt"
 viewBox="0.00 0.00 7483.00 5113.00" xmlns="http://www.w3.org/2000/svg" xmlns:xlink="http://www.w3.org/1999/xlink">
<g id="graph0" class="graph" transform="scale(1 1) rotate(0) translate(4 5109)">
<title>G</title>
<polygon fill="white" stroke="transparent" points="-4,4 -4,-5109 7479,-5109 7479,4 -4,4"/>
<!-- Entity3 -->
<g id="node1" class="node entity">
<title>Entity3</title>
<ellipse fill="none" stroke="black" cx="5213.21" cy="-2971.41" rx="64.19" ry="18"/>
<text text-anchor="start" x="5171.71" y="-2967.71" font-family="Times New Roman,serif" font-size="14.00">john f kennedy</text>
</g>
<!-- Entity22 -->
<g id="node2" class="node entity">
<title>Entity22</title>
<ellipse fill="none" stroke="black" cx="4713.79" cy="-2822.06" rx="27" ry="18"/>
<text text-anchor="start" x="4705.79" y="-2818.36" font-family="Times New Roman,serif" font-size="14.00">cia</text>
</g>
<!-- Entity3&#45;&gt;Entity22 -->
<g id="edge1" class="edge verb">
<title>Entity3&#45;&gt;Entity22</title>
<path fill="none" stroke="black" d="M5168.89,-2958.15C5070.72,-2928.8 4836.68,-2858.8 4748.34,-2832.39"/>
<polygon fill="black" stroke="black" points="4749.14,-2828.97 4738.55,-2829.46 4747.13,-2835.68 4749.14,-2828.97"/>
<text text-anchor="start" x="4854.62" y="-2899.07" font-family="Times New Roman,serif" font-size="14.00">heads (1961&#45;1963)</text>
</g>
<!-- Entity66 -->
<g id="node20" class="node entity">
<title>Entity66</title>
<ellipse fill="none" stroke="black" cx="5791.12" cy="-2934.43" rx="31.4" ry="18"/>
<text text-anchor="start" x="5775.12" y="-2930.73" font-family="Times New Roman,serif" font-size="14.00">potus</text>
</g>
<!-- Entity3&#45;&gt;Entity66 -->
<g id="edge23" class="edge verb">
<title>Entity3&#45;&gt;Entity66</title>
<path fill="none" stroke="black" d="M5276.16,-2967.38C5395.13,-2959.77 5650,-2943.46 5749.82,-2937.07"/>
<polygon fill="black" stroke="black" points="5750.35,-2940.54 5760.1,-2936.41 5749.9,-2933.56 5750.35,-2940.54"/>
<text text-anchor="start" x="5425.99" y="-2956.02" font-family="Times New Roman,serif" font-size="14.00">isa (1961&#45;1963)</text>
</g>
<!-- Entity67 -->
<g id="node25" class="node entity">
<title>Entity67</title>
<ellipse fill="none" stroke="black" cx="3953.57" cy="-2914.35" rx="77.19" ry="18"/>
<text text-anchor="start" x="3902.07" y="-2910.65" font-family="Times New Roman,serif" font-size="14.00">psi&#45;consciousness</text>
</g>
<!-- Entity22&#45;&gt;Entity67 -->
<g id="edge43" class="edge verb">
<title>Entity22&#45;&gt;Entity67</title>
<path fill="none" stroke="black" d="M4687.18,-2825.29C4582.88,-2837.95 4199.45,-2884.5 4032.32,-2904.79"/>
<polygon fill="black" stroke="black" points="4031.86,-2901.32 4022.36,-2906 4032.7,-2908.27 4031.86,-2901.32"/>
<text text-anchor="start" x="4295.75" y="-2868.84" font-family="Times New Roman,serif" font-size="14.00">investigates</text>
</g>
<!-- Entity90 -->
<g id="node52" class="node entity">
<title>Entity90</title>
<ellipse fill="none" stroke="black" cx="5032.99" cy="-2843.13" rx="27" ry="18"/>
<text text-anchor="start" x="5023.49" y="-2839.43" font-family="Times New Roman,serif" font-size="14.00">ufo</text>
</g>
<!-- Entity22&#45;&gt;Entity90 -->
<g id="edge62" class="edge verb">
<title>Entity22&#45;&gt;Entity90</title>
<path fill="none" stroke="black" d="M4740.73,-2823.84C4797.68,-2827.6 4930.41,-2836.36 4995.56,-2840.66"/>
<polygon fill="black" stroke="black" points="4995.58,-2844.17 5005.79,-2841.34 4996.04,-2837.19 4995.58,-2844.17"/>
<text text-anchor="start" x="4804.15" y="-2836.05" font-family="Times New Roman,serif" font-size="14.00">investigates</text>
</g>
<!-- Entity14 -->
<g id="node3" class="node entity">
<title>Entity14</title>
<ellipse fill="none" stroke="black" cx="3009.63" cy="-2400.27" rx="74.99" ry="18"/>
<text text-anchor="start" x="2960.13" y="-2396.57" font-family="Times New Roman,serif" font-size="14.00">gene roddenberry</text>
</g>
<!-- Entity8 -->
<g id="node4" class="node entity">
<title>Entity8</title>
<ellipse fill="none" stroke="black" cx="3019.89" cy="-2508.2" rx="38.19" ry="18"/>
<text text-anchor="start" x="2998.39" y="-2504.5" font-family="Times New Roman,serif" font-size="14.00">the nine</text>
</g>
<!-- Entity14&#45;&gt;Entity8 -->
<g id="edge2" class="edge verb">
<title>Entity14&#45;&gt;Entity8</title>
<path fill="none" stroke="black" d="M3011.37,-2418.58C3012.97,-2435.42 3015.37,-2460.66 3017.21,-2480.07"/>
<polygon fill="black" stroke="black" points="3013.74,-2480.54 3018.17,-2490.16 3020.71,-2479.87 3013.74,-2480.54"/>
<text text-anchor="start" x="2910.29" y="-2453.12" font-family="Times New Roman,serif" font-size="14.00">claiemd to channel</text>
</g>
<!-- Entity70 -->
<g id="node23" class="node entity">
<title>Entity70</title>
<ellipse fill="none" stroke="black" cx="2673.1" cy="-2050.97" rx="94.48" ry="18"/>
<text text-anchor="start" x="2608.6" y="-2047.27" font-family="Times New Roman,serif" font-size="14.00">egyptian gods in a ship</text>
</g>
<!-- Entity8&#45;&gt;Entity70 -->
<g id="edge16" class="edge verb">
<title>Entity8&#45;&gt;Entity70</title>
<path fill="none" stroke="black" d="M3006.92,-2491.11C2954.31,-2421.74 2756.52,-2160.95 2692.92,-2077.1"/>
<polygon fill="black" stroke="black" points="2695.52,-2074.73 2686.69,-2068.88 2689.94,-2078.96 2695.52,-2074.73"/>
<text text-anchor="start" x="2745.92" y="-2287.91" font-family="Times New Roman,serif" font-size="14.00">claimed to channel</text>
</g>
<!-- Entity16 -->
<g id="node5" class="node entity">
<title>Entity16</title>
<ellipse fill="none" stroke="black" cx="5850.94" cy="-3161.58" rx="68.49" ry="18"/>
<text text-anchor="start" x="5806.44" y="-3157.88" font-family="Times New Roman,serif" font-size="14.00">george hw bush</text>
</g>
<!-- Entity20 -->
<g id="node6" class="node entity">
<title>Entity20</title>
<ellipse fill="none" stroke="black" cx="5837.12" cy="-3269.53" rx="63.89" ry="18"/>
<text text-anchor="start" x="5796.12" y="-3265.83" font-family="Times New Roman,serif" font-size="14.00">george w bush</text>
</g>
<!-- Entity16&#45;&gt;Entity20 -->
<g id="edge3" class="edge verb">
<title>Entity16&#45;&gt;Entity20</title>
<path fill="none" stroke="black" d="M5848.6,-3179.89C5846.44,-3196.74 5843.21,-3221.99 5840.72,-3241.39"/>
<polygon fill="black" stroke="black" points="5837.23,-3241.12 5839.43,-3251.49 5844.17,-3242.01 5837.23,-3241.12"/>
<text text-anchor="start" x="5812.66" y="-3214.44" font-family="Times New Roman,serif" font-size="14.00">father</text>
</g>
<!-- Entity16&#45;&gt;Entity66 -->
<g id="edge20" class="edge verb">
<title>Entity16&#45;&gt;Entity66</title>
<path fill="none" stroke="black" d="M5846.15,-3143.37C5835.71,-3103.73 5810.87,-3009.4 5798.45,-2962.25"/>
<polygon fill="black" stroke="black" points="5801.79,-2961.18 5795.86,-2952.4 5795.02,-2962.96 5801.79,-2961.18"/>
<text text-anchor="start" x="5806.3" y="-3056.61" font-family="Times New Roman,serif" font-size="14.00">isa</text>
</g>
<!-- Entity20&#45;&gt;Entity66 -->
<g id="edge42" class="edge verb">
<title>Entity20&#45;&gt;Entity66</title>
<path fill="none" stroke="black" d="M5834.65,-3251.51C5827.08,-3196.4 5804.21,-3029.74 5795.01,-2962.76"/>
<polygon fill="black" stroke="black" points="5798.44,-2961.96 5793.61,-2952.53 5791.5,-2962.91 5798.44,-2961.96"/>
<text text-anchor="start" x="5798.83" y="-3110.93" font-family="Times New Roman,serif" font-size="14.00">isa</text>
</g>
<!-- Entity2 -->
<g id="node7" class="node entity">
<title>Entity2</title>
<ellipse fill="none" stroke="black" cx="2781.02" cy="-2642.71" rx="41.69" ry="18"/>
<text text-anchor="start" x="2757.02" y="-2639.01" font-family="Times New Roman,serif" font-size="14.00">uri geller</text>
</g>
<!-- Entity2&#45;&gt;Entity8 -->
<g id="edge4" class="edge verb">
<title>Entity2&#45;&gt;Entity8</title>
<path fill="none" stroke="black" d="M2806.58,-2628.32C2850,-2603.87 2938.13,-2554.24 2986.41,-2527.05"/>
<polygon fill="black" stroke="black" points="2988.23,-2530.04 2995.22,-2522.09 2984.79,-2523.95 2988.23,-2530.04"/>
<text text-anchor="start" x="2792.49" y="-2581.49" font-family="Times New Roman,serif" font-size="14.00">claiemd to channel</text>
</g>
<!-- Entity26 -->
<g id="node8" class="node entity">
<title>Entity26</title>
<ellipse fill="none" stroke="black" cx="869.05" cy="-4189.35" rx="49.29" ry="18"/>
<text text-anchor="start" x="839.05" y="-4185.65" font-family="Times New Roman,serif" font-size="14.00">adolf hitler</text>
</g>
<!-- Entity28 -->
<g id="node9" class="node entity">
<title>Entity28</title>
<ellipse fill="none" stroke="black" cx="1268.72" cy="-4170.92" rx="32.49" ry="18"/>
<text text-anchor="start" x="1251.72" y="-4167.22" font-family="Times New Roman,serif" font-size="14.00">nsdap</text>
</g>
<!-- Entity26&#45;&gt;Entity28 -->
<g id="edge5" class="edge verb">
<title>Entity26&#45;&gt;Entity28</title>
<path fill="none" stroke="black" d="M918.05,-4187.09C997.09,-4183.45 1151.38,-4176.33 1226.12,-4172.88"/>
<polygon fill="black" stroke="black" points="1226.29,-4176.38 1236.12,-4172.42 1225.97,-4169.38 1226.29,-4176.38"/>
<text text-anchor="start" x="1031.08" y="-4183.79" font-family="Times New Roman,serif" font-size="14.00">created</text>
</g>
<!-- Entity75 -->
<g id="node31" class="node entity">
<title>Entity75</title>
<ellipse fill="none" stroke="black" cx="921.66" cy="-4457.04" rx="38.99" ry="18"/>
<text text-anchor="start" x="899.66" y="-4453.34" font-family="Times New Roman,serif" font-size="14.00">far right</text>
</g>
<!-- Entity28&#45;&gt;Entity75 -->
<g id="edge29" class="edge verb">
<title>Entity28&#45;&gt;Entity75</title>
<path fill="none" stroke="black" d="M1250.55,-4185.9C1193.32,-4233.08 1016.59,-4378.78 948.65,-4434.79"/>
<polygon fill="black" stroke="black" points="946.41,-4432.1 940.92,-4441.16 950.87,-4437.5 946.41,-4432.1"/>
<text text-anchor="start" x="1038.6" y="-4314.14" font-family="Times New Roman,serif" font-size="14.00">member of</text>
</g>
<!-- Entity15 -->
<g id="node10" class="node entity">
<title>Entity15</title>
<ellipse fill="none" stroke="black" cx="6019.67" cy="-2615.88" rx="59.59" ry="18"/>
<text text-anchor="start" x="5981.67" y="-2612.18" font-family="Times New Roman,serif" font-size="14.00">donald trump</text>
</g>
<!-- Entity48 -->
<g id="node11" class="node entity">
<title>Entity48</title>
<ellipse fill="none" stroke="black" cx="5283.8" cy="-2649.58" rx="50.09" ry="18"/>
<text text-anchor="start" x="5253.3" y="-2645.88" font-family="Times New Roman,serif" font-size="14.00">john trump</text>
</g>
<!-- Entity15&#45;&gt;Entity48 -->
<g id="edge6" class="edge verb">
<title>Entity15&#45;&gt;Entity48</title>
<path fill="none" stroke="black" d="M5960.39,-2618.6C5822.58,-2624.91 5481.91,-2640.51 5343.6,-2646.84"/>
<polygon fill="black" stroke="black" points="5343.44,-2643.35 5333.61,-2647.3 5343.76,-2650.34 5343.44,-2643.35"/>
<text text-anchor="start" x="5592.99" y="-2636.52" font-family="Times New Roman,serif" font-size="14.00">nephew of</text>
</g>
<!-- Entity15&#45;&gt;Entity66 -->
<g id="edge27" class="edge verb">
<title>Entity15&#45;&gt;Entity66</title>
<path fill="none" stroke="black" d="M6006.73,-2633.92C5968.12,-2687.74 5853.67,-2847.25 5809.14,-2909.32"/>
<polygon fill="black" stroke="black" points="5806.08,-2907.58 5803.09,-2917.75 5811.77,-2911.66 5806.08,-2907.58"/>
<text text-anchor="start" x="5891.93" y="-2775.42" font-family="Times New Roman,serif" font-size="14.00">isa</text>
</g>
<!-- Entity48&#45;&gt;Entity22 -->
<g id="edge10" class="edge verb">
<title>Entity48&#45;&gt;Entity22</title>
<path fill="none" stroke="black" d="M5245.07,-2661.3C5139.57,-2693.22 4848.31,-2781.35 4748.15,-2811.66"/>
<polygon fill="black" stroke="black" points="4747.08,-2808.33 4738.52,-2814.57 4749.11,-2815.03 4747.08,-2808.33"/>
<text text-anchor="start" x="4935.61" y="-2740.28" font-family="Times New Roman,serif" font-size="14.00">member of</text>
</g>
<!-- Entity82 -->
<g id="node41" class="node entity">
<title>Entity82</title>
<ellipse fill="none" stroke="black" cx="5037.54" cy="-2258.83" rx="50.89" ry="18"/>
<text text-anchor="start" x="5006.54" y="-2255.13" font-family="Times New Roman,serif" font-size="14.00">nikola tesla</text>
</g>
<!-- Entity48&#45;&gt;Entity82 -->
<g id="edge40" class="edge verb">
<title>Entity48&#45;&gt;Entity82</title>
<path fill="none" stroke="black" d="M5272.58,-2631.78C5233.24,-2569.35 5101.41,-2360.17 5054.38,-2285.55"/>
<polygon fill="black" stroke="black" points="5057.12,-2283.33 5048.83,-2276.74 5051.2,-2287.06 5057.12,-2283.33"/>
<text text-anchor="start" x="5122.48" y="-2462.46" font-family="Times New Roman,serif" font-size="14.00">studied</text>
</g>
<!-- Entity5 -->
<g id="node12" class="node entity">
<title>Entity5</title>
<ellipse fill="none" stroke="black" cx="3116.62" cy="-3062.03" rx="65.79" ry="18"/>
<text text-anchor="start" x="3074.12" y="-3058.33" font-family="Times New Roman,serif" font-size="14.00">arthur m young</text>
</g>
<!-- Entity5&#45;&gt;Entity8 -->
<g id="edge7" class="edge verb">
<title>Entity5&#45;&gt;Entity8</title>
<path fill="none" stroke="black" d="M3113.46,-3043.92C3099.33,-2963.06 3041.99,-2634.74 3024.79,-2536.25"/>
<polygon fill="black" stroke="black" points="3028.19,-2535.42 3023.02,-2526.17 3021.3,-2536.63 3028.19,-2535.42"/>
<text text-anchor="start" x="3007.12" y="-2793.89" font-family="Times New Roman,serif" font-size="14.00">member&#45;of</text>
</g>
<!-- Entity5&#45;&gt;Entity67 -->
<g id="edge18" class="edge verb">
<title>Entity5&#45;&gt;Entity67</title>
<path fill="none" stroke="black" d="M3171.86,-3052.29C3318.55,-3026.4 3717.84,-2955.95 3881.81,-2927.02"/>
<polygon fill="black" stroke="black" points="3882.56,-2930.44 3891.8,-2925.25 3881.34,-2923.54 3882.56,-2930.44"/>
<text text-anchor="start" x="3485.84" y="-2993.45" font-family="Times New Roman,serif" font-size="14.00">studied</text>
</g>
<!-- Entity72 -->
<g id="node28" class="node entity">
<title>Entity72</title>
<ellipse fill="none" stroke="black" cx="2464.05" cy="-3446.23" rx="53.89" ry="18"/>
<text text-anchor="start" x="2430.55" y="-3442.53" font-family="Times New Roman,serif" font-size="14.00">bell aviation</text>
</g>
<!-- Entity5&#45;&gt;Entity72 -->
<g id="edge24" class="edge verb">
<title>Entity5&#45;&gt;Entity72</title>
<path fill="none" stroke="black" d="M3088.58,-3078.54C2983.95,-3140.14 2616.38,-3356.54 2499.81,-3425.18"/>
<polygon fill="black" stroke="black" points="2497.74,-3422.33 2490.9,-3430.42 2501.29,-3428.37 2497.74,-3422.33"/>
<text text-anchor="start" x="2753.19" y="-3255.66" font-family="Times New Roman,serif" font-size="14.00">created</text>
</g>
<!-- Entity1 -->
<g id="node13" class="node entity">
<title>Entity1</title>
<ellipse fill="none" stroke="black" cx="2341.76" cy="-2446.42" rx="64.19" ry="18"/>
<text text-anchor="start" x="2300.26" y="-2442.72" font-family="Times New Roman,serif" font-size="14.00">andre puharich</text>
</g>
<!-- Entity1&#45;&gt;Entity2 -->
<g id="edge8" class="edge verb">
<title>Entity1&#45;&gt;Entity2</title>
<path fill="none" stroke="black" d="M2376.23,-2461.82C2457.04,-2497.94 2658.28,-2587.87 2742.74,-2625.61"/>
<polygon fill="black" stroke="black" points="2741.41,-2628.85 2751.97,-2629.73 2744.27,-2622.46 2741.41,-2628.85"/>
<text text-anchor="start" x="2499.48" y="-2547.52" font-family="Times New Roman,serif" font-size="14.00">sponsored</text>
</g>
<!-- Entity7 -->
<g id="node14" class="node entity">
<title>Entity7</title>
<ellipse fill="none" stroke="black" cx="3305.41" cy="-2785.29" rx="68.49" ry="18"/>
<text text-anchor="start" x="3260.91" y="-2781.59" font-family="Times New Roman,serif" font-size="14.00">jeffrey mishlove</text>
</g>
<!-- Entity7&#45;&gt;Entity2 -->
<g id="edge9" class="edge verb">
<title>Entity7&#45;&gt;Entity2</title>
<path fill="none" stroke="black" d="M3257.49,-2772.26C3156.88,-2744.91 2924.86,-2681.82 2826.46,-2655.07"/>
<polygon fill="black" stroke="black" points="2827.09,-2651.61 2816.52,-2652.37 2825.25,-2658.37 2827.09,-2651.61"/>
<text text-anchor="start" x="2986.97" y="-2717.47" font-family="Times New Roman,serif" font-size="14.00">promoted</text>
</g>
<!-- Entity7&#45;&gt;Entity67 -->
<g id="edge19" class="edge verb">
<title>Entity7&#45;&gt;Entity67</title>
<path fill="none" stroke="black" d="M3352.34,-2798.45C3462.92,-2824.27 3740.68,-2879.85 3876.45,-2903.63"/>
<polygon fill="black" stroke="black" points="3875.92,-2907.09 3886.37,-2905.35 3877.12,-2900.19 3875.92,-2907.09"/>
<text text-anchor="start" x="3573.4" y="-2854.84" font-family="Times New Roman,serif" font-size="14.00">studied</text>
</g>
<!-- Entity7&#45;&gt;Entity67 -->
<g id="edge26" class="edge verb">
<title>Entity7&#45;&gt;Entity67</title>
<path fill="none" stroke="black" d="M3366.62,-2793.27C3490.79,-2814.43 3770.94,-2870.21 3893.86,-2898.25"/>
<polygon fill="black" stroke="black" points="3893.31,-2901.72 3903.84,-2900.55 3894.88,-2894.89 3893.31,-2901.72"/>
<text text-anchor="start" x="3566.24" y="-2834.56" font-family="Times New Roman,serif" font-size="14.00">investigates</text>
</g>
<!-- Entity30 -->
<g id="node15" class="node entity">
<title>Entity30</title>
<ellipse fill="none" stroke="black" cx="1823.35" cy="-3861.48" rx="74.99" ry="18"/>
<text text-anchor="start" x="1773.85" y="-3857.78" font-family="Times New Roman,serif" font-size="14.00">walter dornberger</text>
</g>
<!-- Entity30&#45;&gt;Entity28 -->
<g id="edge11" class="edge verb">
<title>Entity30&#45;&gt;Entity28</title>
<path fill="none" stroke="black" d="M1793.53,-3878.12C1697.84,-3931.51 1399.03,-4098.22 1300.55,-4153.16"/>
<polygon fill="black" stroke="black" points="1298.69,-4150.19 1291.66,-4158.12 1302.1,-4156.3 1298.69,-4150.19"/>
<text text-anchor="start" x="1486.04" y="-4019.44" font-family="Times New Roman,serif" font-size="14.00">member of</text>
</g>
<!-- Entity30&#45;&gt;Entity72 -->
<g id="edge35" class="edge verb">
<title>Entity30&#45;&gt;Entity72</title>
<path fill="none" stroke="black" d="M1854.63,-3844.85C1964.06,-3779.78 2328.6,-3543.53 2434.8,-3468.89"/>
<polygon fill="black" stroke="black" points="2437,-3471.63 2443.14,-3462.99 2432.95,-3465.91 2437,-3471.63"/>
<text text-anchor="start" x="2065.72" y="-3660.67" font-family="Times New Roman,serif" font-size="14.00">vice&#45;president</text>
</g>
<!-- Entity30&#45;&gt;Entity72 -->
<g id="edge49" class="edge verb">
<title>Entity30&#45;&gt;Entity72</title>
<path fill="none" stroke="black" d="M1845.05,-3844.17C1938.45,-3777.49 2306.58,-3538.66 2426.26,-3466.76"/>
<polygon fill="black" stroke="black" points="2428.31,-3469.61 2435.1,-3461.48 2424.72,-3463.6 2428.31,-3469.61"/>
<text text-anchor="start" x="2079.66" y="-3644.26" font-family="Times New Roman,serif" font-size="14.00">worked at</text>
</g>
<!-- Entity76 -->
<g id="node35" class="node entity">
<title>Entity76</title>
<ellipse fill="none" stroke="black" cx="1189.87" cy="-3800.74" rx="90.98" ry="18"/>
<text text-anchor="start" x="1127.87" y="-3797.04" font-family="Times New Roman,serif" font-size="14.00">nsdap rocket program</text>
</g>
<!-- Entity30&#45;&gt;Entity76 -->
<g id="edge36" class="edge verb">
<title>Entity30&#45;&gt;Entity76</title>
<path fill="none" stroke="black" d="M1753.75,-3854.81C1638.98,-3843.8 1410.02,-3821.85 1281.98,-3809.57"/>
<polygon fill="black" stroke="black" points="1282.09,-3806.07 1271.8,-3808.6 1281.42,-3813.04 1282.09,-3806.07"/>
<text text-anchor="start" x="1476.86" y="-3835.99" font-family="Times New Roman,serif" font-size="14.00">created</text>
</g>
<!-- Entity104 -->
<g id="node55" class="node entity">
<title>Entity104</title>
<ellipse fill="none" stroke="black" cx="1764.13" cy="-4431.14" rx="65.79" ry="18"/>
<text text-anchor="start" x="1721.63" y="-4427.44" font-family="Times New Roman,serif" font-size="14.00">x series aircraft</text>
</g>
<!-- Entity30&#45;&gt;Entity104 -->
<g id="edge59" class="edge verb">
<title>Entity30&#45;&gt;Entity104</title>
<path fill="none" stroke="black" d="M1821.45,-3879.79C1812.85,-3962.57 1777.54,-4302.17 1767.07,-4402.87"/>
<polygon fill="black" stroke="black" points="1763.58,-4402.6 1766.03,-4412.9 1770.55,-4403.32 1763.58,-4402.6"/>
<text text-anchor="start" x="1753.26" y="-4145.13" font-family="Times New Roman,serif" font-size="14.00">created</text>
</g>
<!-- Entity32 -->
<g id="node16" class="node entity">
<title>Entity32</title>
<ellipse fill="none" stroke="black" cx="1506.28" cy="-4199.99" rx="46.29" ry="18"/>
<text text-anchor="start" x="1478.78" y="-4196.29" font-family="Times New Roman,serif" font-size="14.00">van braun</text>
</g>
<!-- Entity32&#45;&gt;Entity30 -->
<g id="edge12" class="edge verb">
<title>Entity32&#45;&gt;Entity30</title>
<path fill="none" stroke="black" d="M1522.44,-4182.74C1574.59,-4127.07 1738.55,-3952.02 1799.89,-3886.53"/>
<polygon fill="black" stroke="black" points="1802.57,-3888.8 1806.85,-3879.11 1797.46,-3884.01 1802.57,-3888.8"/>
<text text-anchor="start" x="1598.17" y="-4038.44" font-family="Times New Roman,serif" font-size="14.00">worked for</text>
</g>
<!-- Entity32&#45;&gt;Entity76 -->
<g id="edge48" class="edge verb">
<title>Entity32&#45;&gt;Entity76</title>
<path fill="none" stroke="black" d="M1492.48,-4182.58C1442.43,-4119.42 1270.25,-3902.17 1210.49,-3826.77"/>
<polygon fill="black" stroke="black" points="1213.05,-3824.36 1204.1,-3818.7 1207.57,-3828.71 1213.05,-3824.36"/>
<text text-anchor="start" x="1295.49" y="-4008.47" font-family="Times New Roman,serif" font-size="14.00">worked at</text>
</g>
<!-- Entity29 -->
<g id="node17" class="node entity">
<title>Entity29</title>
<ellipse fill="none" stroke="black" cx="5743.98" cy="-3678.16" rx="37.89" ry="18"/>
<text text-anchor="start" x="5722.98" y="-3674.46" font-family="Times New Roman,serif" font-size="14.00">hunt oil</text>
</g>
<!-- Entity36 -->
<g id="node18" class="node entity">
<title>Entity36</title>
<ellipse fill="none" stroke="black" cx="5749.01" cy="-3570.14" rx="77.99" ry="18"/>
<text text-anchor="start" x="5697.01" y="-3566.44" font-family="Times New Roman,serif" font-size="14.00">dwight eisenhower</text>
</g>
<!-- Entity29&#45;&gt;Entity36 -->
<g id="edge13" class="edge verb">
<title>Entity29&#45;&gt;Entity36</title>
<path fill="none" stroke="black" d="M5744.83,-3659.83C5745.62,-3642.97 5746.79,-3617.71 5747.7,-3598.29"/>
<polygon fill="black" stroke="black" points="5751.2,-3598.34 5748.17,-3588.19 5744.21,-3598.02 5751.2,-3598.34"/>
<text text-anchor="start" x="5706.27" y="-3632.86" font-family="Times New Roman,serif" font-size="14.00">funded</text>
</g>
<!-- Entity36&#45;&gt;Entity66 -->
<g id="edge34" class="edge verb">
<title>Entity36&#45;&gt;Entity66</title>
<path fill="none" stroke="black" d="M5750.2,-3552.13C5756.09,-3463.35 5782.01,-3071.99 5789.24,-2962.8"/>
<polygon fill="black" stroke="black" points="5792.75,-2962.78 5789.92,-2952.57 5785.77,-2962.32 5792.75,-2962.78"/>
<text text-anchor="start" x="5750.72" y="-3261.27" font-family="Times New Roman,serif" font-size="14.00">is a</text>
</g>
<!-- Entity11 -->
<g id="node19" class="node entity">
<title>Entity11</title>
<ellipse fill="none" stroke="black" cx="6242.24" cy="-3116.43" rx="56.59" ry="18"/>
<text text-anchor="start" x="6206.74" y="-3112.73" font-family="Times New Roman,serif" font-size="14.00">harry truman</text>
</g>
<!-- Entity11&#45;&gt;Entity66 -->
<g id="edge14" class="edge verb">
<title>Entity11&#45;&gt;Entity66</title>
<path fill="none" stroke="black" d="M6206.84,-3102.14C6122.42,-3068.09 5910.09,-2982.42 5826.1,-2948.54"/>
<polygon fill="black" stroke="black" points="5827.33,-2945.26 5816.75,-2944.76 5824.71,-2951.75 5827.33,-2945.26"/>
<text text-anchor="start" x="6000.47" y="-3029.14" font-family="Times New Roman,serif" font-size="14.00">isa</text>
</g>
<!-- Entity69 -->
<g id="node24" class="node entity">
<title>Entity69</title>
<ellipse fill="none" stroke="black" cx="6678.26" cy="-3416.7" rx="55.79" ry="18"/>
<text text-anchor="start" x="6643.26" y="-3413" font-family="Times New Roman,serif" font-size="14.00">freemasonry</text>
</g>
<!-- Entity11&#45;&gt;Entity69 -->
<g id="edge17" class="edge verb">
<title>Entity11&#45;&gt;Entity69</title>
<path fill="none" stroke="black" d="M6265.99,-3132.78C6339.36,-3183.31 6562.5,-3336.98 6646.14,-3394.58"/>
<polygon fill="black" stroke="black" points="6644.26,-3397.54 6654.48,-3400.33 6648.23,-3391.77 6644.26,-3397.54"/>
<text text-anchor="start" x="6395.06" y="-3267.48" font-family="Times New Roman,serif" font-size="14.00">member of</text>
</g>
<!-- Entity63 -->
<g id="node21" class="node entity">
<title>Entity63</title>
<ellipse fill="none" stroke="black" cx="6539.51" cy="-3773.55" rx="53.89" ry="18"/>
<text text-anchor="start" x="6506.01" y="-3769.85" font-family="Times New Roman,serif" font-size="14.00">edgar casey</text>
</g>
<!-- Entity59 -->
<g id="node22" class="node entity">
<title>Entity59</title>
<ellipse fill="none" stroke="black" cx="6242.71" cy="-3275.23" rx="71.49" ry="18"/>
<text text-anchor="start" x="6195.71" y="-3271.53" font-family="Times New Roman,serif" font-size="14.00">woodrow wilson</text>
</g>
<!-- Entity63&#45;&gt;Entity59 -->
<g id="edge15" class="edge verb">
<title>Entity63&#45;&gt;Entity59</title>
<path fill="none" stroke="black" d="M6528.95,-3755.82C6484.47,-3681.13 6312.22,-3391.94 6258.68,-3302.05"/>
<polygon fill="black" stroke="black" points="6261.58,-3300.07 6253.45,-3293.27 6255.56,-3303.65 6261.58,-3300.07"/>
<text text-anchor="start" x="6351.82" y="-3532.73" font-family="Times New Roman,serif" font-size="14.00">advises</text>
</g>
<!-- Entity59&#45;&gt;Entity66 -->
<g id="edge30" class="edge verb">
<title>Entity59&#45;&gt;Entity66</title>
<path fill="none" stroke="black" d="M6220,-3258.09C6144.42,-3201.05 5901.42,-3017.67 5818.87,-2955.37"/>
<polygon fill="black" stroke="black" points="5820.59,-2952.28 5810.5,-2949.05 5816.38,-2957.87 5820.59,-2952.28"/>
<text text-anchor="start" x="6003.44" y="-3110.53" font-family="Times New Roman,serif" font-size="14.00">isa</text>
</g>
<!-- Entity92 -->
<g id="node50" class="node entity">
<title>Entity92</title>
<ellipse fill="none" stroke="black" cx="6296.05" cy="-3383.22" rx="71.49" ry="18"/>
<text text-anchor="start" x="6249.05" y="-3379.52" font-family="Times New Roman,serif" font-size="14.00">leauge of nations</text>
</g>
<!-- Entity59&#45;&gt;Entity92 -->
<g id="edge54" class="edge verb">
<title>Entity59&#45;&gt;Entity92</title>
<path fill="none" stroke="black" d="M6251.76,-3293.55C6260.24,-3310.71 6273.02,-3336.59 6282.68,-3356.15"/>
<polygon fill="black" stroke="black" points="6279.57,-3357.75 6287.14,-3365.17 6285.85,-3354.65 6279.57,-3357.75"/>
<text text-anchor="start" x="6226.22" y="-3328.65" font-family="Times New Roman,serif" font-size="14.00">created</text>
</g>
<!-- Entity18 -->
<g id="node26" class="node entity">
<title>Entity18</title>
<ellipse fill="none" stroke="black" cx="6098.22" cy="-2824.92" rx="35.19" ry="18"/>
<text text-anchor="start" x="6079.22" y="-2821.22" font-family="Times New Roman,serif" font-size="14.00">obama</text>
</g>
<!-- Entity18&#45;&gt;Entity66 -->
<g id="edge21" class="edge verb">
<title>Entity18&#45;&gt;Entity66</title>
<path fill="none" stroke="black" d="M6069.33,-2835.22C6013.18,-2855.24 5889.42,-2899.37 5827.67,-2921.39"/>
<polygon fill="black" stroke="black" points="5826.2,-2918.2 5817.95,-2924.86 5828.55,-2924.8 5826.2,-2918.2"/>
<text text-anchor="start" x="5932.5" y="-2882.11" font-family="Times New Roman,serif" font-size="14.00">isa</text>
</g>
<!-- Entity12 -->
<g id="node27" class="node entity">
<title>Entity12</title>
<ellipse fill="none" stroke="black" cx="5470.58" cy="-3247.71" rx="58.49" ry="18"/>
<text text-anchor="start" x="5433.58" y="-3244.01" font-family="Times New Roman,serif" font-size="14.00">richard nixon</text>
</g>
<!-- Entity12&#45;&gt;Entity66 -->
<g id="edge22" class="edge verb">
<title>Entity12&#45;&gt;Entity66</title>
<path fill="none" stroke="black" d="M5488.27,-3230.42C5542.51,-3177.4 5706.54,-3017.09 5767.76,-2957.26"/>
<polygon fill="black" stroke="black" points="5770.33,-2959.65 5775.03,-2950.16 5765.43,-2954.64 5770.33,-2959.65"/>
<text text-anchor="start" x="5612.01" y="-3097.64" font-family="Times New Roman,serif" font-size="14.00">isa</text>
</g>
<!-- Entity24 -->
<g id="node29" class="node entity">
<title>Entity24</title>
<ellipse fill="none" stroke="black" cx="3520.68" cy="-3228.66" rx="63.89" ry="18"/>
<text text-anchor="start" x="3479.68" y="-3224.96" font-family="Times New Roman,serif" font-size="14.00">robert bigelow</text>
</g>
<!-- Entity24&#45;&gt;Entity7 -->
<g id="edge25" class="edge verb">
<title>Entity24&#45;&gt;Entity7</title>
<path fill="none" stroke="black" d="M3511.98,-3210.73C3478.64,-3142.08 3358.98,-2895.62 3318.73,-2812.72"/>
<polygon fill="black" stroke="black" points="3321.74,-2810.91 3314.23,-2803.45 3315.45,-2813.97 3321.74,-2810.91"/>
<text text-anchor="start" x="3383.35" y="-3015.53" font-family="Times New Roman,serif" font-size="14.00">funds</text>
</g>
<!-- Entity24&#45;&gt;Entity67 -->
<g id="edge45" class="edge verb">
<title>Entity24&#45;&gt;Entity67</title>
<path fill="none" stroke="black" d="M3543.96,-3211.76C3616.47,-3159.11 3838.41,-2997.97 3921.62,-2937.55"/>
<polygon fill="black" stroke="black" points="3923.88,-2940.24 3929.92,-2931.53 3919.77,-2934.57 3923.88,-2940.24"/>
<text text-anchor="start" x="3668.79" y="-3078.46" font-family="Times New Roman,serif" font-size="14.00">investigates</text>
</g>
<!-- Entity44 -->
<g id="node30" class="node entity">
<title>Entity44</title>
<ellipse fill="none" stroke="black" cx="6790.18" cy="-2611.79" rx="58.49" ry="18"/>
<text text-anchor="start" x="6753.18" y="-2608.09" font-family="Times New Roman,serif" font-size="14.00">steve bannon</text>
</g>
<!-- Entity44&#45;&gt;Entity15 -->
<g id="edge28" class="edge verb">
<title>Entity44&#45;&gt;Entity15</title>
<path fill="none" stroke="black" d="M6732.57,-2608.33C6593.12,-2605.19 6237.91,-2606.98 6088.04,-2611.47"/>
<polygon fill="black" stroke="black" points="6087.92,-2607.97 6078.04,-2611.79 6088.14,-2614.97 6087.92,-2607.97"/>
<text text-anchor="start" x="6355.3" y="-2613.7" font-family="Times New Roman,serif" font-size="14.00">promoted</text>
</g>
<!-- Entity44&#45;&gt;Entity15 -->
<g id="edge64" class="edge verb">
<title>Entity44&#45;&gt;Entity15</title>
<path fill="none" stroke="black" d="M6732.92,-2615.85C6593.84,-2620.48 6238.66,-2622.47 6088.43,-2619.57"/>
<polygon fill="black" stroke="black" points="6088.48,-2616.07 6078.41,-2619.37 6088.33,-2623.07 6088.48,-2616.07"/>
<text text-anchor="start" x="6410.68" y="-2621.51" font-family="Times New Roman,serif" font-size="14.00">advises</text>
</g>
<!-- Entity83 -->
<g id="node40" class="node entity">
<title>Entity83</title>
<ellipse fill="none" stroke="black" cx="6714.55" cy="-2227.75" rx="61.99" ry="18"/>
<text text-anchor="start" x="6675.05" y="-2224.05" font-family="Times New Roman,serif" font-size="14.00">breitbart news</text>
</g>
<!-- Entity44&#45;&gt;Entity83 -->
<g id="edge46" class="edge verb">
<title>Entity44&#45;&gt;Entity83</title>
<path fill="none" stroke="black" d="M6786.64,-2593.78C6774.56,-2532.44 6734.94,-2331.29 6720.17,-2256.29"/>
<polygon fill="black" stroke="black" points="6723.54,-2255.3 6718.18,-2246.17 6716.68,-2256.65 6723.54,-2255.3"/>
<text text-anchor="start" x="6712.4" y="-2428.83" font-family="Times New Roman,serif" font-size="14.00">created</text>
</g>
<!-- Entity89 -->
<g id="node49" class="node entity">
<title>Entity89</title>
<ellipse fill="none" stroke="black" cx="7137.91" cy="-2327.1" rx="35.19" ry="18"/>
<text text-anchor="start" x="7118.91" y="-2323.4" font-family="Times New Roman,serif" font-size="14.00">gurgev</text>
</g>
<!-- Entity44&#45;&gt;Entity89 -->
<g id="edge53" class="edge verb">
<title>Entity44&#45;&gt;Entity89</title>
<path fill="none" stroke="black" d="M6810.89,-2594.84C6870.76,-2545.82 7044.04,-2403.95 7111.03,-2349.11"/>
<polygon fill="black" stroke="black" points="7113.5,-2351.61 7119.02,-2342.57 7109.07,-2346.19 7113.5,-2351.61"/>
<text text-anchor="start" x="6919.96" y="-2475.77" font-family="Times New Roman,serif" font-size="14.00">studied</text>
</g>
<!-- Entity91 -->
<g id="node51" class="node entity">
<title>Entity91</title>
<ellipse fill="none" stroke="black" cx="7226.48" cy="-2735.45" rx="38.19" ry="18"/>
<text text-anchor="start" x="7204.98" y="-2731.75" font-family="Times New Roman,serif" font-size="14.00">us navy</text>
</g>
<!-- Entity44&#45;&gt;Entity91 -->
<g id="edge55" class="edge verb">
<title>Entity44&#45;&gt;Entity91</title>
<path fill="none" stroke="black" d="M6833.21,-2623.99C6916.88,-2647.7 7100.57,-2699.77 7183.89,-2723.38"/>
<polygon fill="black" stroke="black" points="7182.96,-2726.76 7193.54,-2726.12 7184.87,-2720.02 7182.96,-2726.76"/>
<text text-anchor="start" x="6947.55" y="-2677.49" font-family="Times New Roman,serif" font-size="14.00">member of</text>
</g>
<!-- Entity94 -->
<g id="node53" class="node entity">
<title>Entity94</title>
<ellipse fill="none" stroke="black" cx="7212.8" cy="-2926.11" rx="53.09" ry="18"/>
<text text-anchor="start" x="7179.8" y="-2922.41" font-family="Times New Roman,serif" font-size="14.00">biosphere 2</text>
</g>
<!-- Entity44&#45;&gt;Entity94 -->
<g id="edge57" class="edge verb">
<title>Entity44&#45;&gt;Entity94</title>
<path fill="none" stroke="black" d="M6812.61,-2628.47C6883.32,-2681.06 7101.73,-2843.5 7182.43,-2903.52"/>
<polygon fill="black" stroke="black" points="7180.57,-2906.5 7190.68,-2909.66 7184.75,-2900.89 7180.57,-2906.5"/>
<text text-anchor="start" x="6956.52" y="-2769.8" font-family="Times New Roman,serif" font-size="14.00">created</text>
</g>
<!-- Entity107 -->
<g id="node58" class="node entity">
<title>Entity107</title>
<ellipse fill="none" stroke="black" cx="7397.87" cy="-2435.11" rx="77.19" ry="18"/>
<text text-anchor="start" x="7346.37" y="-2431.41" font-family="Times New Roman,serif" font-size="14.00">hollywood movies</text>
</g>
<!-- Entity44&#45;&gt;Entity107 -->
<g id="edge61" class="edge verb">
<title>Entity44&#45;&gt;Entity107</title>
<path fill="none" stroke="black" d="M6832.92,-2599.37C6939.6,-2568.35 7217.8,-2487.46 7339.47,-2452.09"/>
<polygon fill="black" stroke="black" points="7340.73,-2455.37 7349.35,-2449.21 7338.77,-2448.64 7340.73,-2455.37"/>
<text text-anchor="start" x="7031.19" y="-2529.53" font-family="Times New Roman,serif" font-size="14.00">produced</text>
</g>
<!-- Entity111 -->
<g id="node59" class="node entity">
<title>Entity111</title>
<ellipse fill="none" stroke="black" cx="7376.47" cy="-2627.41" rx="64.99" ry="18"/>
<text text-anchor="start" x="7334.47" y="-2623.71" font-family="Times New Roman,serif" font-size="14.00">goldman sachs</text>
</g>
<!-- Entity44&#45;&gt;Entity111 -->
<g id="edge66" class="edge verb">
<title>Entity44&#45;&gt;Entity111</title>
<path fill="none" stroke="black" d="M6848.54,-2613.35C6955.63,-2616.2 7183.35,-2622.26 7301.63,-2625.41"/>
<polygon fill="black" stroke="black" points="7301.6,-2628.91 7311.69,-2625.68 7301.79,-2621.92 7301.6,-2628.91"/>
<text text-anchor="start" x="7012.09" y="-2623.18" font-family="Times New Roman,serif" font-size="14.00">worked for</text>
</g>
<!-- Entity33 -->
<g id="node32" class="node entity">
<title>Entity33</title>
<ellipse fill="none" stroke="black" cx="1999.85" cy="-3446.69" rx="57.69" ry="18"/>
<text text-anchor="start" x="1963.35" y="-3442.99" font-family="Times New Roman,serif" font-size="14.00">michael pane</text>
</g>
<!-- Entity33&#45;&gt;Entity30 -->
<g id="edge47" class="edge verb">
<title>Entity33&#45;&gt;Entity30</title>
<path fill="none" stroke="black" d="M1992.15,-3464.78C1964.28,-3530.27 1868.54,-3755.3 1835.04,-3834.02"/>
<polygon fill="black" stroke="black" points="1831.79,-3832.73 1831.09,-3843.3 1838.23,-3835.47 1831.79,-3832.73"/>
<text text-anchor="start" x="1850.6" y="-3653.2" font-family="Times New Roman,serif" font-size="14.00">worked for</text>
</g>
<!-- Entity33&#45;&gt;Entity72 -->
<g id="edge31" class="edge verb">
<title>Entity33&#45;&gt;Entity72</title>
<path fill="none" stroke="black" d="M2057.7,-3446.63C2144.76,-3446.55 2308.89,-3446.38 2399.64,-3446.29"/>
<polygon fill="black" stroke="black" points="2399.8,-3449.79 2409.8,-3446.28 2399.79,-3442.79 2399.8,-3449.79"/>
<text text-anchor="start" x="2172.67" y="-3450.26" font-family="Times New Roman,serif" font-size="14.00">worked at</text>
</g>
<!-- Entity45 -->
<g id="node33" class="node entity">
<title>Entity45</title>
<ellipse fill="none" stroke="black" cx="5956.47" cy="-2263.42" rx="67.69" ry="18"/>
<text text-anchor="start" x="5912.47" y="-2259.72" font-family="Times New Roman,serif" font-size="14.00">abraham lincoln</text>
</g>
<!-- Entity45&#45;&gt;Entity66 -->
<g id="edge32" class="edge verb">
<title>Entity45&#45;&gt;Entity66</title>
<path fill="none" stroke="black" d="M5951.96,-2281.71C5929.07,-2374.6 5825.73,-2793.98 5797.99,-2906.55"/>
<polygon fill="black" stroke="black" points="5794.55,-2905.91 5795.55,-2916.46 5801.34,-2907.59 5794.55,-2905.91"/>
<text text-anchor="start" x="5858.98" y="-2597.93" font-family="Times New Roman,serif" font-size="14.00">isa</text>
</g>
<!-- Entity38 -->
<g id="node34" class="node entity">
<title>Entity38</title>
<ellipse fill="none" stroke="black" cx="6192.3" cy="-1402.99" rx="90.98" ry="18"/>
<text text-anchor="start" x="6130.3" y="-1399.29" font-family="Times New Roman,serif" font-size="14.00">emma hardinge&#45;britten</text>
</g>
<!-- Entity38&#45;&gt;Entity45 -->
<g id="edge33" class="edge verb">
<title>Entity38&#45;&gt;Entity45</title>
<path fill="none" stroke="black" d="M6187.26,-1421.36C6157.14,-1531.27 6000.82,-2101.6 5964.16,-2235.33"/>
<polygon fill="black" stroke="black" points="5960.72,-2234.65 5961.45,-2245.22 5967.47,-2236.5 5960.72,-2234.65"/>
<text text-anchor="start" x="5976.71" y="-1832.15" font-family="Times New Roman,serif" font-size="14.00">spokesperson for</text>
</g>
<!-- Entity79 -->
<g id="node38" class="node entity">
<title>Entity79</title>
<ellipse fill="none" stroke="black" cx="6132.38" cy="-831.74" rx="39.79" ry="18"/>
<text text-anchor="start" x="6109.88" y="-828.04" font-family="Times New Roman,serif" font-size="14.00">medium</text>
</g>
<!-- Entity38&#45;&gt;Entity79 -->
<g id="edge38" class="edge verb">
<title>Entity38&#45;&gt;Entity79</title>
<path fill="none" stroke="black" d="M6190.4,-1384.95C6181.75,-1302.43 6145.9,-960.58 6135.33,-859.82"/>
<polygon fill="black" stroke="black" points="6138.8,-859.37 6134.28,-849.79 6131.84,-860.1 6138.8,-859.37"/>
<text text-anchor="start" x="6146.87" y="-1126.18" font-family="Times New Roman,serif" font-size="14.00">isa</text>
</g>
<!-- Entity86 -->
<g id="node48" class="node entity">
<title>Entity86</title>
<ellipse fill="none" stroke="black" cx="6233.45" cy="-1294.95" rx="85.29" ry="18"/>
<text text-anchor="start" x="6175.95" y="-1291.25" font-family="Times New Roman,serif" font-size="14.00">theosophical society</text>
</g>
<!-- Entity38&#45;&gt;Entity86 -->
<g id="edge65" class="edge verb">
<title>Entity38&#45;&gt;Entity86</title>
<path fill="none" stroke="black" d="M6199.28,-1384.66C6205.76,-1367.64 6215.5,-1342.07 6222.93,-1322.57"/>
<polygon fill="black" stroke="black" points="6226.28,-1323.6 6226.57,-1313.01 6219.74,-1321.11 6226.28,-1323.6"/>
<text text-anchor="start" x="6170.1" y="-1357.42" font-family="Times New Roman,serif" font-size="14.00">created</text>
</g>
<!-- Entity99 -->
<g id="node54" class="node entity">
<title>Entity99</title>
<ellipse fill="none" stroke="black" cx="6618.6" cy="-948.17" rx="55.79" ry="18"/>
<text text-anchor="start" x="6583.6" y="-944.47" font-family="Times New Roman,serif" font-size="14.00">orphic circle</text>
</g>
<!-- Entity38&#45;&gt;Entity99 -->
<g id="edge58" class="edge verb">
<title>Entity38&#45;&gt;Entity99</title>
<path fill="none" stroke="black" d="M6209.01,-1385.16C6275.07,-1314.68 6518.16,-1055.33 6595.09,-973.25"/>
<polygon fill="black" stroke="black" points="6597.72,-975.56 6602,-965.87 6592.61,-970.78 6597.72,-975.56"/>
<text text-anchor="start" x="6341.05" y="-1183.01" font-family="Times New Roman,serif" font-size="14.00">member of</text>
</g>
<!-- Entity42 -->
<g id="node36" class="node entity">
<title>Entity42</title>
<ellipse fill="none" stroke="black" cx="3650.94" cy="-2306.66" rx="53.89" ry="18"/>
<text text-anchor="start" x="3617.44" y="-2302.96" font-family="Times New Roman,serif" font-size="14.00">black magic</text>
</g>
<!-- Entity81 -->
<g id="node37" class="node entity">
<title>Entity81</title>
<ellipse fill="none" stroke="black" cx="3738.66" cy="-2418.64" rx="28.7" ry="18"/>
<text text-anchor="start" x="3724.66" y="-2414.94" font-family="Times New Roman,serif" font-size="14.00">x left</text>
</g>
<!-- Entity42&#45;&gt;Entity81 -->
<g id="edge37" class="edge verb">
<title>Entity42&#45;&gt;Entity81</title>
<path fill="none" stroke="black" d="M3664.64,-2324.16C3679.45,-2343.05 3703.14,-2373.29 3719.72,-2394.45"/>
<polygon fill="black" stroke="black" points="3716.98,-2396.64 3725.9,-2402.36 3722.49,-2392.32 3716.98,-2396.64"/>
<text text-anchor="start" x="3631.18" y="-2363.11" font-family="Times New Roman,serif" font-size="14.00">member of</text>
</g>
<!-- Entity47 -->
<g id="node39" class="node entity">
<title>Entity47</title>
<ellipse fill="none" stroke="black" cx="6803.65" cy="-2119.81" rx="69.59" ry="18"/>
<text text-anchor="start" x="6758.15" y="-2116.11" font-family="Times New Roman,serif" font-size="14.00">andrew breitbart</text>
</g>
<!-- Entity47&#45;&gt;Entity83 -->
<g id="edge39" class="edge verb">
<title>Entity47&#45;&gt;Entity83</title>
<path fill="none" stroke="black" d="M6788.93,-2137.64C6774.42,-2155.21 6752.1,-2182.26 6735.69,-2202.13"/>
<polygon fill="black" stroke="black" points="6732.95,-2199.96 6729.28,-2209.9 6738.35,-2204.42 6732.95,-2199.96"/>
<text text-anchor="start" x="6721.31" y="-2173.69" font-family="Times New Roman,serif" font-size="14.00">created</text>
</g>
<!-- Entity35 -->
<g id="node42" class="node entity">
<title>Entity35</title>
<ellipse fill="none" stroke="black" cx="3636.94" cy="-1652.66" rx="39.79" ry="18"/>
<text text-anchor="start" x="3614.44" y="-1648.96" font-family="Times New Roman,serif" font-size="14.00">crowley</text>
</g>
<!-- Entity80 -->
<g id="node43" class="node entity">
<title>Entity80</title>
<ellipse fill="none" stroke="black" cx="3724.66" cy="-1764.64" rx="38.99" ry="18"/>
<text text-anchor="start" x="3702.66" y="-1760.94" font-family="Times New Roman,serif" font-size="14.00">x magic</text>
</g>
<!-- Entity35&#45;&gt;Entity80 -->
<g id="edge41" class="edge verb">
<title>Entity35&#45;&gt;Entity80</title>
<path fill="none" stroke="black" d="M3650.26,-1669.67C3664.82,-1688.25 3688.28,-1718.2 3704.96,-1739.49"/>
<polygon fill="black" stroke="black" points="3702.29,-1741.76 3711.21,-1747.47 3707.8,-1737.44 3702.29,-1741.76"/>
<text text-anchor="start" x="3616.61" y="-1708.38" font-family="Times New Roman,serif" font-size="14.00">member of</text>
</g>
<!-- Entity19 -->
<g id="node44" class="node entity">
<title>Entity19</title>
<ellipse fill="none" stroke="black" cx="5412.41" cy="-2863.38" rx="31.4" ry="18"/>
<text text-anchor="start" x="5396.41" y="-2859.68" font-family="Times New Roman,serif" font-size="14.00">carter</text>
</g>
<!-- Entity19&#45;&gt;Entity66 -->
<g id="edge44" class="edge verb">
<title>Entity19&#45;&gt;Entity66</title>
<path fill="none" stroke="black" d="M5442.13,-2868.95C5509.66,-2881.62 5674.71,-2912.59 5751.11,-2926.92"/>
<polygon fill="black" stroke="black" points="5750.81,-2930.42 5761.28,-2928.83 5752.1,-2923.54 5750.81,-2930.42"/>
<text text-anchor="start" x="5580.62" y="-2901.74" font-family="Times New Roman,serif" font-size="14.00">isa</text>
</g>
<!-- Entity19&#45;&gt;Entity90 -->
<g id="edge56" class="edge verb">
<title>Entity19&#45;&gt;Entity90</title>
<path fill="none" stroke="black" d="M5381.04,-2861.71C5311.66,-2858 5145.43,-2849.13 5070.61,-2845.14"/>
<polygon fill="black" stroke="black" points="5070.43,-2841.63 5060.26,-2844.59 5070.06,-2848.62 5070.43,-2841.63"/>
<text text-anchor="start" x="5170.83" y="-2857.22" font-family="Times New Roman,serif" font-size="14.00">witnessed</text>
</g>
<!-- Entity27 -->
<g id="node45" class="node entity">
<title>Entity27</title>
<ellipse fill="none" stroke="black" cx="75.11" cy="-5086.76" rx="75.29" ry="18"/>
<text text-anchor="start" x="25.11" y="-5083.06" font-family="Times New Roman,serif" font-size="14.00">lee harvey oswald</text>
</g>
<!-- Entity34 -->
<g id="node46" class="node entity">
<title>Entity34</title>
<ellipse fill="none" stroke="black" cx="522.18" cy="-4752.3" rx="59.29" ry="18"/>
<text text-anchor="start" x="484.68" y="-4748.6" font-family="Times New Roman,serif" font-size="14.00">guy bannister</text>
</g>
<!-- Entity27&#45;&gt;Entity34 -->
<g id="edge50" class="edge verb">
<title>Entity27&#45;&gt;Entity34</title>
<path fill="none" stroke="black" d="M98.21,-5069.48C172.8,-5013.67 407.31,-4838.24 491.61,-4775.16"/>
<polygon fill="black" stroke="black" points="493.85,-4777.87 499.76,-4769.07 489.65,-4772.26 493.85,-4777.87"/>
<text text-anchor="start" x="231.91" y="-4926.12" font-family="Times New Roman,serif" font-size="14.00">worked for</text>
</g>
<!-- Entity34&#45;&gt;Entity75 -->
<g id="edge51" class="edge verb">
<title>Entity34&#45;&gt;Entity75</title>
<path fill="none" stroke="black" d="M544.8,-4735.58C612.98,-4685.18 816.46,-4534.8 892.53,-4478.57"/>
<polygon fill="black" stroke="black" points="894.78,-4481.26 900.75,-4472.5 890.62,-4475.63 894.78,-4481.26"/>
<text text-anchor="start" x="657.67" y="-4610.87" font-family="Times New Roman,serif" font-size="14.00">member of</text>
</g>
<!-- Entity64 -->
<g id="node47" class="node entity">
<title>Entity64</title>
<ellipse fill="none" stroke="black" cx="6094.45" cy="-1186.88" rx="73.39" ry="18"/>
<text text-anchor="start" x="6045.95" y="-1183.18" font-family="Times New Roman,serif" font-size="14.00">madam blavatsky</text>
</g>
<!-- Entity64&#45;&gt;Entity86 -->
<g id="edge52" class="edge verb">
<title>Entity64&#45;&gt;Entity86</title>
<path fill="none" stroke="black" d="M6116.78,-1204.24C6140.05,-1222.33 6176.67,-1250.81 6202.67,-1271.02"/>
<polygon fill="black" stroke="black" points="6200.67,-1273.9 6210.71,-1277.27 6204.96,-1268.37 6200.67,-1273.9"/>
<text text-anchor="start" x="6118.73" y="-1241.43" font-family="Times New Roman,serif" font-size="14.00">created</text>
</g>
<!-- Entity60 -->
<g id="node56" class="node entity">
<title>Entity60</title>
<ellipse fill="none" stroke="black" cx="6450.33" cy="-645.53" rx="58.49" ry="18"/>
<text text-anchor="start" x="6413.33" y="-641.83" font-family="Times New Roman,serif" font-size="14.00">rudolf steiner</text>
</g>
<!-- Entity60&#45;&gt;Entity86 -->
<g id="edge63" class="edge verb">
<title>Entity60&#45;&gt;Entity86</title>
<path fill="none" stroke="black" d="M6444.31,-663.57C6414.12,-753.97 6279.34,-1157.53 6242.68,-1267.31"/>
<polygon fill="black" stroke="black" points="6239.29,-1266.4 6239.45,-1276.99 6245.93,-1268.62 6239.29,-1266.4"/>
<text text-anchor="start" x="6277.49" y="-969.24" font-family="Times New Roman,serif" font-size="14.00">memberr of</text>
</g>
<!-- Entity93 -->
<g id="node57" class="node entity">
<title>Entity93</title>
<ellipse fill="none" stroke="black" cx="6666.09" cy="-18.46" rx="102.08" ry="18"/>
<text text-anchor="start" x="6595.59" y="-14.76" font-family="Times New Roman,serif" font-size="14.00">anthroposophical society</text>
</g>
<!-- Entity60&#45;&gt;Entity93 -->
<g id="edge60" class="edge verb">
<title>Entity60&#45;&gt;Entity93</title>
<path fill="none" stroke="black" d="M6456.56,-627.43C6486.95,-539.12 6619.74,-153.17 6656.58,-46.09"/>
<polygon fill="black" stroke="black" points="6659.9,-47.21 6659.84,-36.62 6653.28,-44.94 6659.9,-47.21"/>
<text text-anchor="start" x="6515.57" y="-340.56" font-family="Times New Roman,serif" font-size="14.00">created</text>
</g>
<!-- Entity109 -->
<g id="node60" class="node entity">
<title>Entity109</title>
<ellipse fill="none" stroke="black" cx="4277.94" cy="-1979.66" rx="27" ry="18"/>
<text text-anchor="start" x="4274.44" y="-1975.96" font-family="Times New Roman,serif" font-size="14.00">s</text>
</g>
<!-- Entity112 -->
<g id="node61" class="node entity">
<title>Entity112</title>
<ellipse fill="none" stroke="black" cx="4365.66" cy="-2091.64" rx="27" ry="18"/>
<text text-anchor="start" x="4361.66" y="-2087.94" font-family="Times New Roman,serif" font-size="14.00">o</text>
</g>
<!-- Entity109&#45;&gt;Entity112 -->
<g id="edge67" class="edge verb">
<title>Entity109&#45;&gt;Entity112</title>
<path fill="none" stroke="black" d="M4290.51,-1995.7C4305.23,-2014.5 4329.76,-2045.82 4346.78,-2067.53"/>
<polygon fill="black" stroke="black" points="4344.19,-2069.91 4353.11,-2075.62 4349.7,-2065.59 4344.19,-2069.91"/>
<text text-anchor="start" x="4311.64" y="-2035.42" font-family="Times New Roman,serif" font-size="14.00">v</text>
</g>
</g>
</svg>
