<?xml version="1.0" encoding="UTF-8" standalone="no"?>
<?xml-stylesheet href="./styles.css" type="text/css"?>
<!DOCTYPE svg PUBLIC "-//W3C//DTD SVG 1.1//EN"
 "http://www.w3.org/Graphics/SVG/1.1/DTD/svg11.dtd">
<!-- Generated by graphviz version 2.47.3 (20210619.1520)
 -->
<!-- Title: G Pages: 1 -->
<svg width="7405pt" height="4965pt"
 viewBox="0.00 0.00 7405.00 4965.00" xmlns="http://www.w3.org/2000/svg" xmlns:xlink="http://www.w3.org/1999/xlink">
<g id="graph0" class="graph" transform="scale(1 1) rotate(0) translate(4 4961)">
<title>G</title>
<polygon fill="white" stroke="transparent" points="-4,4 -4,-4961 7401,-4961 7401,4 -4,4"/>
<!-- Entity3 -->
<g id="node1" class="node entity">
<title>Entity3</title>
<ellipse fill="none" stroke="black" cx="4811.21" cy="-2979.78" rx="27" ry="18"/>
<text text-anchor="start" x="4803.71" y="-2976.08" font-family="Times New Roman,serif" font-size="14.00">jfk</text>
</g>
<!-- Entity22 -->
<g id="node2" class="node entity">
<title>Entity22</title>
<ellipse fill="none" stroke="black" cx="4384.4" cy="-2894.36" rx="27" ry="18"/>
<text text-anchor="start" x="4376.4" y="-2890.66" font-family="Times New Roman,serif" font-size="14.00">cia</text>
</g>
<!-- Entity3&#45;&gt;Entity22 -->
<g id="edge1" class="edge verb">
<title>Entity3&#45;&gt;Entity22</title>
<path fill="none" stroke="black" d="M4785.16,-2974.57C4711.92,-2959.91 4504.15,-2918.33 4420.22,-2901.53"/>
<polygon fill="black" stroke="black" points="4420.88,-2898.09 4410.39,-2899.56 4419.51,-2904.96 4420.88,-2898.09"/>
<text text-anchor="start" x="4498.69" y="-2941.85" font-family="Times New Roman,serif" font-size="14.00">heads (1961&#45;1963)</text>
</g>
<!-- Entity66 -->
<g id="node20" class="node entity">
<title>Entity66</title>
<ellipse fill="none" stroke="black" cx="5298.31" cy="-2932" rx="31.4" ry="18"/>
<text text-anchor="start" x="5282.31" y="-2928.3" font-family="Times New Roman,serif" font-size="14.00">potus</text>
</g>
<!-- Entity3&#45;&gt;Entity66 -->
<g id="edge23" class="edge verb">
<title>Entity3&#45;&gt;Entity66</title>
<path fill="none" stroke="black" d="M4838.1,-2977.14C4919.01,-2969.21 5160.67,-2945.5 5257.51,-2936"/>
<polygon fill="black" stroke="black" points="5257.89,-2939.48 5267.5,-2935.02 5257.21,-2932.52 5257.89,-2939.48"/>
<text text-anchor="start" x="4960.8" y="-2960.37" font-family="Times New Roman,serif" font-size="14.00">isa (1961&#45;1963)</text>
</g>
<!-- Entity67 -->
<g id="node25" class="node entity">
<title>Entity67</title>
<ellipse fill="none" stroke="black" cx="3676.46" cy="-3056.08" rx="77.19" ry="18"/>
<text text-anchor="start" x="3624.96" y="-3052.38" font-family="Times New Roman,serif" font-size="14.00">psi&#45;consciousness</text>
</g>
<!-- Entity22&#45;&gt;Entity67 -->
<g id="edge43" class="edge verb">
<title>Entity22&#45;&gt;Entity67</title>
<path fill="none" stroke="black" d="M4358.79,-2900.21C4258.77,-2923.06 3892.65,-3006.7 3741.95,-3041.12"/>
<polygon fill="black" stroke="black" points="3740.87,-3037.78 3731.91,-3043.42 3742.43,-3044.6 3740.87,-3037.78"/>
<text text-anchor="start" x="3986.37" y="-2974.47" font-family="Times New Roman,serif" font-size="14.00">investigates</text>
</g>
<!-- Entity90 -->
<g id="node52" class="node entity">
<title>Entity90</title>
<ellipse fill="none" stroke="black" cx="4642.82" cy="-2910.04" rx="27" ry="18"/>
<text text-anchor="start" x="4633.32" y="-2906.34" font-family="Times New Roman,serif" font-size="14.00">ufo</text>
</g>
<!-- Entity22&#45;&gt;Entity90 -->
<g id="edge62" class="edge verb">
<title>Entity22&#45;&gt;Entity90</title>
<path fill="none" stroke="black" d="M4411.57,-2896.01C4458,-2898.83 4552.7,-2904.58 4605.37,-2907.77"/>
<polygon fill="black" stroke="black" points="4605.43,-2911.28 4615.63,-2908.39 4605.86,-2904.3 4605.43,-2911.28"/>
<text text-anchor="start" x="4444.47" y="-2905.69" font-family="Times New Roman,serif" font-size="14.00">investigates</text>
</g>
<!-- Entity14 -->
<g id="node3" class="node entity">
<title>Entity14</title>
<ellipse fill="none" stroke="black" cx="2234.87" cy="-2111.28" rx="74.99" ry="18"/>
<text text-anchor="start" x="2185.37" y="-2107.58" font-family="Times New Roman,serif" font-size="14.00">gene roddenberry</text>
</g>
<!-- Entity8 -->
<g id="node4" class="node entity">
<title>Entity8</title>
<ellipse fill="none" stroke="black" cx="2618.03" cy="-2456.36" rx="38.19" ry="18"/>
<text text-anchor="start" x="2596.53" y="-2452.66" font-family="Times New Roman,serif" font-size="14.00">the nine</text>
</g>
<!-- Entity14&#45;&gt;Entity8 -->
<g id="edge2" class="edge verb">
<title>Entity14&#45;&gt;Entity8</title>
<path fill="none" stroke="black" d="M2254.4,-2128.86C2318.13,-2186.26 2520.07,-2368.13 2592.15,-2433.05"/>
<polygon fill="black" stroke="black" points="2590.12,-2435.93 2599.89,-2440.02 2594.8,-2430.73 2590.12,-2435.93"/>
<text text-anchor="start" x="2319.27" y="-2284.76" font-family="Times New Roman,serif" font-size="14.00">claiemd to channel</text>
</g>
<!-- Entity70 -->
<g id="node23" class="node entity">
<title>Entity70</title>
<ellipse fill="none" stroke="black" cx="2594.37" cy="-2348.3" rx="94.48" ry="18"/>
<text text-anchor="start" x="2529.87" y="-2344.6" font-family="Times New Roman,serif" font-size="14.00">egyptian gods in a ship</text>
</g>
<!-- Entity8&#45;&gt;Entity70 -->
<g id="edge16" class="edge verb">
<title>Entity8&#45;&gt;Entity70</title>
<path fill="none" stroke="black" d="M2614.02,-2438.03C2610.31,-2421.08 2604.74,-2395.66 2600.48,-2376.19"/>
<polygon fill="black" stroke="black" points="2603.88,-2375.38 2598.32,-2366.36 2597.04,-2376.88 2603.88,-2375.38"/>
<text text-anchor="start" x="2503.25" y="-2410.91" font-family="Times New Roman,serif" font-size="14.00">claimed to channel</text>
</g>
<!-- Entity16 -->
<g id="node5" class="node entity">
<title>Entity16</title>
<ellipse fill="none" stroke="black" cx="5752.99" cy="-2945.77" rx="68.49" ry="18"/>
<text text-anchor="start" x="5708.49" y="-2942.07" font-family="Times New Roman,serif" font-size="14.00">george hw bush</text>
</g>
<!-- Entity20 -->
<g id="node6" class="node entity">
<title>Entity20</title>
<ellipse fill="none" stroke="black" cx="5717.31" cy="-2837.71" rx="63.89" ry="18"/>
<text text-anchor="start" x="5676.31" y="-2834.01" font-family="Times New Roman,serif" font-size="14.00">george w bush</text>
</g>
<!-- Entity16&#45;&gt;Entity20 -->
<g id="edge3" class="edge verb">
<title>Entity16&#45;&gt;Entity20</title>
<path fill="none" stroke="black" d="M5746.94,-2927.44C5741.31,-2910.41 5732.87,-2884.83 5726.43,-2865.33"/>
<polygon fill="black" stroke="black" points="5729.73,-2864.17 5723.27,-2855.77 5723.08,-2866.36 5729.73,-2864.17"/>
<text text-anchor="start" x="5704.68" y="-2900.19" font-family="Times New Roman,serif" font-size="14.00">father</text>
</g>
<!-- Entity16&#45;&gt;Entity66 -->
<g id="edge20" class="edge verb">
<title>Entity16&#45;&gt;Entity66</title>
<path fill="none" stroke="black" d="M5684.92,-2943.71C5589.45,-2940.82 5418.67,-2935.65 5340.04,-2933.27"/>
<polygon fill="black" stroke="black" points="5339.67,-2929.75 5329.57,-2932.95 5339.46,-2936.75 5339.67,-2929.75"/>
<text text-anchor="start" x="5496.48" y="-2942.29" font-family="Times New Roman,serif" font-size="14.00">isa</text>
</g>
<!-- Entity20&#45;&gt;Entity66 -->
<g id="edge42" class="edge verb">
<title>Entity20&#45;&gt;Entity66</title>
<path fill="none" stroke="black" d="M5667.18,-2848.99C5582.85,-2867.97 5414.32,-2905.9 5337.77,-2923.12"/>
<polygon fill="black" stroke="black" points="5336.58,-2919.8 5327.59,-2925.41 5338.12,-2926.63 5336.58,-2919.8"/>
<text text-anchor="start" x="5486.47" y="-2889.86" font-family="Times New Roman,serif" font-size="14.00">isa</text>
</g>
<!-- Entity2 -->
<g id="node7" class="node entity">
<title>Entity2</title>
<ellipse fill="none" stroke="black" cx="2762.85" cy="-2800" rx="41.69" ry="18"/>
<text text-anchor="start" x="2738.85" y="-2796.3" font-family="Times New Roman,serif" font-size="14.00">uri geller</text>
</g>
<!-- Entity2&#45;&gt;Entity8 -->
<g id="edge4" class="edge verb">
<title>Entity2&#45;&gt;Entity8</title>
<path fill="none" stroke="black" d="M2755.27,-2782.01C2731.46,-2725.53 2658.11,-2551.48 2629.57,-2483.74"/>
<polygon fill="black" stroke="black" points="2632.64,-2482.03 2625.54,-2474.17 2626.19,-2484.75 2632.64,-2482.03"/>
<text text-anchor="start" x="2588.42" y="-2636.67" font-family="Times New Roman,serif" font-size="14.00">claiemd to channel</text>
</g>
<!-- Entity26 -->
<g id="node8" class="node entity">
<title>Entity26</title>
<ellipse fill="none" stroke="black" cx="782.53" cy="-4173.09" rx="49.29" ry="18"/>
<text text-anchor="start" x="752.53" y="-4169.39" font-family="Times New Roman,serif" font-size="14.00">adolf hitler</text>
</g>
<!-- Entity28 -->
<g id="node9" class="node entity">
<title>Entity28</title>
<ellipse fill="none" stroke="black" cx="1176.22" cy="-4130.87" rx="32.49" ry="18"/>
<text text-anchor="start" x="1159.22" y="-4127.17" font-family="Times New Roman,serif" font-size="14.00">nsdap</text>
</g>
<!-- Entity26&#45;&gt;Entity28 -->
<g id="edge5" class="edge verb">
<title>Entity26&#45;&gt;Entity28</title>
<path fill="none" stroke="black" d="M830.02,-4168C907.5,-4159.69 1059.88,-4143.34 1133.88,-4135.41"/>
<polygon fill="black" stroke="black" points="1134.65,-4138.85 1144.22,-4134.3 1133.9,-4131.89 1134.65,-4138.85"/>
<text text-anchor="start" x="940.95" y="-4155.5" font-family="Times New Roman,serif" font-size="14.00">created</text>
</g>
<!-- Entity75 -->
<g id="node31" class="node entity">
<title>Entity75</title>
<ellipse fill="none" stroke="black" cx="822.87" cy="-4415.6" rx="38.99" ry="18"/>
<text text-anchor="start" x="800.87" y="-4411.9" font-family="Times New Roman,serif" font-size="14.00">far right</text>
</g>
<!-- Entity28&#45;&gt;Entity75 -->
<g id="edge29" class="edge verb">
<title>Entity28&#45;&gt;Entity75</title>
<path fill="none" stroke="black" d="M1157.72,-4145.77C1099.45,-4192.73 919.52,-4337.72 850.35,-4393.46"/>
<polygon fill="black" stroke="black" points="848.07,-4390.8 842.48,-4399.8 852.46,-4396.25 848.07,-4390.8"/>
<text text-anchor="start" x="943.03" y="-4273.42" font-family="Times New Roman,serif" font-size="14.00">member of</text>
</g>
<!-- Entity15 -->
<g id="node10" class="node entity">
<title>Entity15</title>
<ellipse fill="none" stroke="black" cx="5504.9" cy="-2440.98" rx="59.59" ry="18"/>
<text text-anchor="start" x="5466.9" y="-2437.28" font-family="Times New Roman,serif" font-size="14.00">donald trump</text>
</g>
<!-- Entity48 -->
<g id="node11" class="node entity">
<title>Entity48</title>
<ellipse fill="none" stroke="black" cx="4849.26" cy="-2605.35" rx="50.09" ry="18"/>
<text text-anchor="start" x="4818.76" y="-2601.65" font-family="Times New Roman,serif" font-size="14.00">john trump</text>
</g>
<!-- Entity15&#45;&gt;Entity48 -->
<g id="edge6" class="edge verb">
<title>Entity15&#45;&gt;Entity48</title>
<path fill="none" stroke="black" d="M5458.8,-2452.54C5340.15,-2482.28 5024.88,-2561.32 4900.63,-2592.47"/>
<polygon fill="black" stroke="black" points="4899.46,-2589.15 4890.61,-2594.98 4901.17,-2595.94 4899.46,-2589.15"/>
<text text-anchor="start" x="5120.71" y="-2526.3" font-family="Times New Roman,serif" font-size="14.00">nephew of</text>
</g>
<!-- Entity15&#45;&gt;Entity66 -->
<g id="edge27" class="edge verb">
<title>Entity15&#45;&gt;Entity66</title>
<path fill="none" stroke="black" d="M5497.3,-2459.04C5466.04,-2533.34 5347.22,-2815.74 5309.72,-2904.88"/>
<polygon fill="black" stroke="black" points="5306.41,-2903.72 5305.76,-2914.3 5312.86,-2906.44 5306.41,-2903.72"/>
<text text-anchor="start" x="5387.51" y="-2685.76" font-family="Times New Roman,serif" font-size="14.00">isa</text>
</g>
<!-- Entity48&#45;&gt;Entity22 -->
<g id="edge10" class="edge verb">
<title>Entity48&#45;&gt;Entity22</title>
<path fill="none" stroke="black" d="M4823.94,-2621.09C4743.96,-2670.81 4497.1,-2824.3 4412.89,-2876.65"/>
<polygon fill="black" stroke="black" points="4410.99,-2873.71 4404.35,-2881.96 4414.69,-2879.65 4410.99,-2873.71"/>
<text text-anchor="start" x="4557.41" y="-2752.67" font-family="Times New Roman,serif" font-size="14.00">member of</text>
</g>
<!-- Entity82 -->
<g id="node41" class="node entity">
<title>Entity82</title>
<ellipse fill="none" stroke="black" cx="4559.66" cy="-2253.88" rx="50.89" ry="18"/>
<text text-anchor="start" x="4528.66" y="-2250.18" font-family="Times New Roman,serif" font-size="14.00">nikola tesla</text>
</g>
<!-- Entity48&#45;&gt;Entity82 -->
<g id="edge40" class="edge verb">
<title>Entity48&#45;&gt;Entity82</title>
<path fill="none" stroke="black" d="M4834.9,-2587.92C4787.62,-2530.53 4636.65,-2347.31 4580.74,-2279.46"/>
<polygon fill="black" stroke="black" points="4583.17,-2276.9 4574.11,-2271.41 4577.76,-2281.35 4583.17,-2276.9"/>
<text text-anchor="start" x="4666.82" y="-2437.49" font-family="Times New Roman,serif" font-size="14.00">studied</text>
</g>
<!-- Entity5 -->
<g id="node12" class="node entity">
<title>Entity5</title>
<ellipse fill="none" stroke="black" cx="2864.55" cy="-3003.39" rx="56.59" ry="18"/>
<text text-anchor="start" x="2829.05" y="-2999.69" font-family="Times New Roman,serif" font-size="14.00">arthur young</text>
</g>
<!-- Entity5&#45;&gt;Entity8 -->
<g id="edge7" class="edge verb">
<title>Entity5&#45;&gt;Entity8</title>
<path fill="none" stroke="black" d="M2856.49,-2985.5C2820.42,-2905.47 2673.76,-2580.03 2630.25,-2483.48"/>
<polygon fill="black" stroke="black" points="2633.33,-2481.79 2626.03,-2474.11 2626.95,-2484.67 2633.33,-2481.79"/>
<text text-anchor="start" x="2681.37" y="-2738.29" font-family="Times New Roman,serif" font-size="14.00">member&#45;of</text>
</g>
<!-- Entity5&#45;&gt;Entity67 -->
<g id="edge18" class="edge verb">
<title>Entity5&#45;&gt;Entity67</title>
<path fill="none" stroke="black" d="M2920.03,-3006.99C3059.44,-3016.04 3425.08,-3039.77 3591.63,-3050.58"/>
<polygon fill="black" stroke="black" points="3591.62,-3054.08 3601.83,-3051.24 3592.07,-3047.1 3591.62,-3054.08"/>
<text text-anchor="start" x="3214.83" y="-3032.58" font-family="Times New Roman,serif" font-size="14.00">studied</text>
</g>
<!-- Entity72 -->
<g id="node28" class="node entity">
<title>Entity72</title>
<ellipse fill="none" stroke="black" cx="2314.85" cy="-3421.32" rx="53.89" ry="18"/>
<text text-anchor="start" x="2281.35" y="-3417.62" font-family="Times New Roman,serif" font-size="14.00">bell aviation</text>
</g>
<!-- Entity5&#45;&gt;Entity72 -->
<g id="edge24" class="edge verb">
<title>Entity5&#45;&gt;Entity72</title>
<path fill="none" stroke="black" d="M2842.66,-3020.03C2756.9,-3085.23 2443.62,-3323.41 2344.87,-3398.49"/>
<polygon fill="black" stroke="black" points="2342.64,-3395.79 2336.8,-3404.63 2346.87,-3401.37 2342.64,-3395.79"/>
<text text-anchor="start" x="2552.77" y="-3213.06" font-family="Times New Roman,serif" font-size="14.00">created</text>
</g>
<!-- Entity1 -->
<g id="node13" class="node entity">
<title>Entity1</title>
<ellipse fill="none" stroke="black" cx="2292.46" cy="-2717.51" rx="64.19" ry="18"/>
<text text-anchor="start" x="2250.96" y="-2713.81" font-family="Times New Roman,serif" font-size="14.00">andre puharich</text>
</g>
<!-- Entity1&#45;&gt;Entity2 -->
<g id="edge8" class="edge verb">
<title>Entity1&#45;&gt;Entity2</title>
<path fill="none" stroke="black" d="M2347.34,-2727.14C2440,-2743.39 2626,-2776 2714.25,-2791.48"/>
<polygon fill="black" stroke="black" points="2713.8,-2794.96 2724.26,-2793.24 2715.01,-2788.06 2713.8,-2794.96"/>
<text text-anchor="start" x="2470.79" y="-2763.11" font-family="Times New Roman,serif" font-size="14.00">sponsored</text>
</g>
<!-- Entity7 -->
<g id="node14" class="node entity">
<title>Entity7</title>
<ellipse fill="none" stroke="black" cx="3238.93" cy="-3078.47" rx="68.49" ry="18"/>
<text text-anchor="start" x="3194.43" y="-3074.77" font-family="Times New Roman,serif" font-size="14.00">jeffrey mishlove</text>
</g>
<!-- Entity7&#45;&gt;Entity2 -->
<g id="edge9" class="edge verb">
<title>Entity7&#45;&gt;Entity2</title>
<path fill="none" stroke="black" d="M3210.57,-3061.88C3127.65,-3013.38 2885.8,-2871.92 2796.5,-2819.68"/>
<polygon fill="black" stroke="black" points="2798.25,-2816.65 2787.85,-2814.63 2794.71,-2822.7 2798.25,-2816.65"/>
<text text-anchor="start" x="2948.53" y="-2944.58" font-family="Times New Roman,serif" font-size="14.00">promoted</text>
</g>
<!-- Entity7&#45;&gt;Entity67 -->
<g id="edge19" class="edge verb">
<title>Entity7&#45;&gt;Entity67</title>
<path fill="none" stroke="black" d="M3307.07,-3080.04C3385.87,-3078.18 3515.34,-3071.65 3598.2,-3065.42"/>
<polygon fill="black" stroke="black" points="3598.61,-3068.9 3608.32,-3064.64 3598.08,-3061.92 3598.61,-3068.9"/>
<text text-anchor="start" x="3411.63" y="-3076.53" font-family="Times New Roman,serif" font-size="14.00">studied</text>
</g>
<!-- Entity7&#45;&gt;Entity67 -->
<g id="edge26" class="edge verb">
<title>Entity7&#45;&gt;Entity67</title>
<path fill="none" stroke="black" d="M3300.44,-3070.44C3375.7,-3064.32 3503.63,-3057.56 3589.08,-3055.03"/>
<polygon fill="black" stroke="black" points="3589.38,-3058.52 3599.28,-3054.74 3589.19,-3051.52 3589.38,-3058.52"/>
<text text-anchor="start" x="3380.76" y="-3051.53" font-family="Times New Roman,serif" font-size="14.00">investigates</text>
</g>
<!-- Entity30 -->
<g id="node15" class="node entity">
<title>Entity30</title>
<ellipse fill="none" stroke="black" cx="1712.25" cy="-3789.69" rx="74.99" ry="18"/>
<text text-anchor="start" x="1662.75" y="-3785.99" font-family="Times New Roman,serif" font-size="14.00">walter dornberger</text>
</g>
<!-- Entity30&#45;&gt;Entity28 -->
<g id="edge11" class="edge verb">
<title>Entity30&#45;&gt;Entity28</title>
<path fill="none" stroke="black" d="M1685.67,-3806.61C1595.52,-3863.99 1301.75,-4050.97 1206.4,-4111.66"/>
<polygon fill="black" stroke="black" points="1204.36,-4108.8 1197.8,-4117.13 1208.12,-4114.71 1204.36,-4108.8"/>
<text text-anchor="start" x="1385.03" y="-3962.93" font-family="Times New Roman,serif" font-size="14.00">member of</text>
</g>
<!-- Entity30&#45;&gt;Entity72 -->
<g id="edge35" class="edge verb">
<title>Entity30&#45;&gt;Entity72</title>
<path fill="none" stroke="black" d="M1745.05,-3773.4C1851.02,-3714.15 2182.99,-3511.22 2284.85,-3443.44"/>
<polygon fill="black" stroke="black" points="2286.8,-3446.35 2293.16,-3437.87 2282.9,-3440.53 2286.8,-3446.35"/>
<text text-anchor="start" x="1935.95" y="-3612.22" font-family="Times New Roman,serif" font-size="14.00">vice&#45;president</text>
</g>
<!-- Entity30&#45;&gt;Entity72 -->
<g id="edge49" class="edge verb">
<title>Entity30&#45;&gt;Entity72</title>
<path fill="none" stroke="black" d="M1735.12,-3772.35C1825.79,-3711.11 2160.32,-3506.37 2275.56,-3441.26"/>
<polygon fill="black" stroke="black" points="2277.42,-3444.23 2284.43,-3436.28 2273.99,-3438.13 2277.42,-3444.23"/>
<text text-anchor="start" x="1949.34" y="-3595.6" font-family="Times New Roman,serif" font-size="14.00">worked at</text>
</g>
<!-- Entity76 -->
<g id="node35" class="node entity">
<title>Entity76</title>
<ellipse fill="none" stroke="black" cx="1134.02" cy="-3531.32" rx="90.98" ry="18"/>
<text text-anchor="start" x="1072.02" y="-3527.62" font-family="Times New Roman,serif" font-size="14.00">nsdap rocket program</text>
</g>
<!-- Entity30&#45;&gt;Entity76 -->
<g id="edge36" class="edge verb">
<title>Entity30&#45;&gt;Entity76</title>
<path fill="none" stroke="black" d="M1676.52,-3773.73C1576.27,-3728.93 1292.43,-3602.1 1180.36,-3552.02"/>
<polygon fill="black" stroke="black" points="1181.56,-3548.73 1171.01,-3547.85 1178.71,-3555.12 1181.56,-3548.73"/>
<text text-anchor="start" x="1387.44" y="-3666.68" font-family="Times New Roman,serif" font-size="14.00">created</text>
</g>
<!-- Entity104 -->
<g id="node55" class="node entity">
<title>Entity104</title>
<ellipse fill="none" stroke="black" cx="2331.26" cy="-3782.79" rx="65.79" ry="18"/>
<text text-anchor="start" x="2288.76" y="-3779.09" font-family="Times New Roman,serif" font-size="14.00">x series aircraft</text>
</g>
<!-- Entity30&#45;&gt;Entity104 -->
<g id="edge59" class="edge verb">
<title>Entity30&#45;&gt;Entity104</title>
<path fill="none" stroke="black" d="M1786.92,-3788.86C1905.49,-3787.54 2135.63,-3784.97 2255.12,-3783.64"/>
<polygon fill="black" stroke="black" points="2255.32,-3787.14 2265.28,-3783.53 2255.24,-3780.14 2255.32,-3787.14"/>
<text text-anchor="start" x="1980.02" y="-3790.05" font-family="Times New Roman,serif" font-size="14.00">created</text>
</g>
<!-- Entity32 -->
<g id="node16" class="node entity">
<title>Entity32</title>
<ellipse fill="none" stroke="black" cx="1425.14" cy="-3423.32" rx="46.29" ry="18"/>
<text text-anchor="start" x="1397.64" y="-3419.62" font-family="Times New Roman,serif" font-size="14.00">van braun</text>
</g>
<!-- Entity32&#45;&gt;Entity30 -->
<g id="edge12" class="edge verb">
<title>Entity32&#45;&gt;Entity30</title>
<path fill="none" stroke="black" d="M1438.99,-3440.99C1485.6,-3500.46 1636.92,-3693.57 1691.98,-3763.83"/>
<polygon fill="black" stroke="black" points="1689.28,-3766.06 1698.21,-3771.77 1694.79,-3761.74 1689.28,-3766.06"/>
<text text-anchor="start" x="1502.49" y="-3606.21" font-family="Times New Roman,serif" font-size="14.00">worked for</text>
</g>
<!-- Entity32&#45;&gt;Entity76 -->
<g id="edge48" class="edge verb">
<title>Entity32&#45;&gt;Entity76</title>
<path fill="none" stroke="black" d="M1391.46,-3435.81C1341.27,-3454.43 1246.4,-3489.63 1186.9,-3511.71"/>
<polygon fill="black" stroke="black" points="1185.46,-3508.5 1177.3,-3515.26 1187.9,-3515.07 1185.46,-3508.5"/>
<text text-anchor="start" x="1233.18" y="-3477.56" font-family="Times New Roman,serif" font-size="14.00">worked at</text>
</g>
<!-- Entity29 -->
<g id="node17" class="node entity">
<title>Entity29</title>
<ellipse fill="none" stroke="black" cx="5003.24" cy="-3553.84" rx="37.89" ry="18"/>
<text text-anchor="start" x="4982.24" y="-3550.14" font-family="Times New Roman,serif" font-size="14.00">hunt oil</text>
</g>
<!-- Entity36 -->
<g id="node18" class="node entity">
<title>Entity36</title>
<ellipse fill="none" stroke="black" cx="5046.32" cy="-3445.93" rx="77.99" ry="18"/>
<text text-anchor="start" x="4994.32" y="-3442.23" font-family="Times New Roman,serif" font-size="14.00">dwight eisenhower</text>
</g>
<!-- Entity29&#45;&gt;Entity36 -->
<g id="edge13" class="edge verb">
<title>Entity29&#45;&gt;Entity36</title>
<path fill="none" stroke="black" d="M5010.35,-3536.02C5017.14,-3519.02 5027.47,-3493.16 5035.32,-3473.5"/>
<polygon fill="black" stroke="black" points="5038.6,-3474.72 5039.05,-3464.13 5032.1,-3472.12 5038.6,-3474.72"/>
<text text-anchor="start" x="4982.84" y="-3508.56" font-family="Times New Roman,serif" font-size="14.00">funded</text>
</g>
<!-- Entity36&#45;&gt;Entity66 -->
<g id="edge34" class="edge verb">
<title>Entity36&#45;&gt;Entity66</title>
<path fill="none" stroke="black" d="M5055.14,-3427.94C5092.8,-3351.14 5240.19,-3050.54 5285.19,-2958.76"/>
<polygon fill="black" stroke="black" points="5288.43,-2960.1 5289.69,-2949.58 5282.15,-2957.02 5288.43,-2960.1"/>
<text text-anchor="start" x="5151.17" y="-3197.15" font-family="Times New Roman,serif" font-size="14.00">is a</text>
</g>
<!-- Entity11 -->
<g id="node19" class="node entity">
<title>Entity11</title>
<ellipse fill="none" stroke="black" cx="5764.33" cy="-3166.69" rx="56.59" ry="18"/>
<text text-anchor="start" x="5728.83" y="-3162.99" font-family="Times New Roman,serif" font-size="14.00">harry truman</text>
</g>
<!-- Entity11&#45;&gt;Entity66 -->
<g id="edge14" class="edge verb">
<title>Entity11&#45;&gt;Entity66</title>
<path fill="none" stroke="black" d="M5734.12,-3151.47C5650.62,-3109.42 5417.23,-2991.89 5330.93,-2948.43"/>
<polygon fill="black" stroke="black" points="5332.37,-2945.23 5321.86,-2943.86 5329.22,-2951.49 5332.37,-2945.23"/>
<text text-anchor="start" x="5516.52" y="-3053.75" font-family="Times New Roman,serif" font-size="14.00">isa</text>
</g>
<!-- Entity69 -->
<g id="node24" class="node entity">
<title>Entity69</title>
<ellipse fill="none" stroke="black" cx="6221.78" cy="-3439.2" rx="55.79" ry="18"/>
<text text-anchor="start" x="6186.78" y="-3435.5" font-family="Times New Roman,serif" font-size="14.00">freemasonry</text>
</g>
<!-- Entity11&#45;&gt;Entity69 -->
<g id="edge17" class="edge verb">
<title>Entity11&#45;&gt;Entity69</title>
<path fill="none" stroke="black" d="M5791.24,-3182.71C5869.67,-3229.44 6098.06,-3365.5 6186.36,-3418.1"/>
<polygon fill="black" stroke="black" points="6184.81,-3421.25 6195.19,-3423.36 6188.4,-3415.23 6184.81,-3421.25"/>
<text text-anchor="start" x="5927.8" y="-3304.21" font-family="Times New Roman,serif" font-size="14.00">member of</text>
</g>
<!-- Entity63 -->
<g id="node21" class="node entity">
<title>Entity63</title>
<ellipse fill="none" stroke="black" cx="5754.53" cy="-3978.22" rx="53.89" ry="18"/>
<text text-anchor="start" x="5721.03" y="-3974.52" font-family="Times New Roman,serif" font-size="14.00">edgar casey</text>
</g>
<!-- Entity59 -->
<g id="node22" class="node entity">
<title>Entity59</title>
<ellipse fill="none" stroke="black" cx="5495.13" cy="-3461.78" rx="71.49" ry="18"/>
<text text-anchor="start" x="5448.13" y="-3458.08" font-family="Times New Roman,serif" font-size="14.00">woodrow wilson</text>
</g>
<!-- Entity63&#45;&gt;Entity59 -->
<g id="edge15" class="edge verb">
<title>Entity63&#45;&gt;Entity59</title>
<path fill="none" stroke="black" d="M5745.61,-3960.44C5707.1,-3883.79 5555.12,-3581.21 5508.68,-3488.76"/>
<polygon fill="black" stroke="black" points="5511.78,-3487.12 5504.16,-3479.75 5505.52,-3490.26 5511.78,-3487.12"/>
<text text-anchor="start" x="5585.14" y="-3728.4" font-family="Times New Roman,serif" font-size="14.00">advises</text>
</g>
<!-- Entity59&#45;&gt;Entity66 -->
<g id="edge30" class="edge verb">
<title>Entity59&#45;&gt;Entity66</title>
<path fill="none" stroke="black" d="M5488.47,-3443.85C5459.38,-3365.55 5343.38,-3053.31 5308.37,-2959.07"/>
<polygon fill="black" stroke="black" points="5311.63,-2957.81 5304.87,-2949.66 5305.07,-2960.25 5311.63,-2957.81"/>
<text text-anchor="start" x="5382.42" y="-3205.26" font-family="Times New Roman,serif" font-size="14.00">isa</text>
</g>
<!-- Entity92 -->
<g id="node50" class="node entity">
<title>Entity92</title>
<ellipse fill="none" stroke="black" cx="5515.88" cy="-3569.72" rx="71.49" ry="18"/>
<text text-anchor="start" x="5468.88" y="-3566.02" font-family="Times New Roman,serif" font-size="14.00">leauge of nations</text>
</g>
<!-- Entity59&#45;&gt;Entity92 -->
<g id="edge54" class="edge verb">
<title>Entity59&#45;&gt;Entity92</title>
<path fill="none" stroke="black" d="M5498.65,-3480.09C5501.91,-3497.02 5506.79,-3522.42 5510.53,-3541.86"/>
<polygon fill="black" stroke="black" points="5507.09,-3542.52 5512.41,-3551.68 5513.96,-3541.2 5507.09,-3542.52"/>
<text text-anchor="start" x="5463.59" y="-3514.78" font-family="Times New Roman,serif" font-size="14.00">created</text>
</g>
<!-- Entity18 -->
<g id="node26" class="node entity">
<title>Entity18</title>
<ellipse fill="none" stroke="black" cx="5282.61" cy="-3257.3" rx="35.19" ry="18"/>
<text text-anchor="start" x="5263.61" y="-3253.6" font-family="Times New Roman,serif" font-size="14.00">obama</text>
</g>
<!-- Entity18&#45;&gt;Entity66 -->
<g id="edge21" class="edge verb">
<title>Entity18&#45;&gt;Entity66</title>
<path fill="none" stroke="black" d="M5283.5,-3238.87C5286.11,-3184.75 5293.78,-3025.93 5296.93,-2960.58"/>
<polygon fill="black" stroke="black" points="5300.44,-2960.38 5297.43,-2950.22 5293.45,-2960.04 5300.44,-2960.38"/>
<text text-anchor="start" x="5274.21" y="-3103.53" font-family="Times New Roman,serif" font-size="14.00">isa</text>
</g>
<!-- Entity12 -->
<g id="node27" class="node entity">
<title>Entity12</title>
<ellipse fill="none" stroke="black" cx="5563.39" cy="-3274.68" rx="58.49" ry="18"/>
<text text-anchor="start" x="5526.39" y="-3270.98" font-family="Times New Roman,serif" font-size="14.00">richard nixon</text>
</g>
<!-- Entity12&#45;&gt;Entity66 -->
<g id="edge22" class="edge verb">
<title>Entity12&#45;&gt;Entity66</title>
<path fill="none" stroke="black" d="M5549.52,-3256.74C5505.37,-3199.68 5368.13,-3022.26 5317.4,-2956.69"/>
<polygon fill="black" stroke="black" points="5320,-2954.32 5311.11,-2948.55 5314.46,-2958.6 5320,-2954.32"/>
<text text-anchor="start" x="5417.46" y="-3110.51" font-family="Times New Roman,serif" font-size="14.00">isa</text>
</g>
<!-- Entity24 -->
<g id="node29" class="node entity">
<title>Entity24</title>
<ellipse fill="none" stroke="black" cx="3637.21" cy="-3164.08" rx="63.89" ry="18"/>
<text text-anchor="start" x="3596.21" y="-3160.38" font-family="Times New Roman,serif" font-size="14.00">robert bigelow</text>
</g>
<!-- Entity24&#45;&gt;Entity7 -->
<g id="edge25" class="edge verb">
<title>Entity24&#45;&gt;Entity7</title>
<path fill="none" stroke="black" d="M3586.36,-3153.15C3513.76,-3137.55 3380.5,-3108.9 3301.8,-3091.98"/>
<polygon fill="black" stroke="black" points="3302.52,-3088.56 3292.01,-3089.88 3301.05,-3095.4 3302.52,-3088.56"/>
<text text-anchor="start" x="3412.08" y="-3126.37" font-family="Times New Roman,serif" font-size="14.00">funds</text>
</g>
<!-- Entity24&#45;&gt;Entity67 -->
<g id="edge45" class="edge verb">
<title>Entity24&#45;&gt;Entity67</title>
<path fill="none" stroke="black" d="M3643.87,-3145.76C3650.05,-3128.75 3659.34,-3103.18 3666.43,-3083.69"/>
<polygon fill="black" stroke="black" points="3669.77,-3084.73 3669.9,-3074.13 3663.2,-3082.34 3669.77,-3084.73"/>
<text text-anchor="start" x="3591.15" y="-3118.53" font-family="Times New Roman,serif" font-size="14.00">investigates</text>
</g>
<!-- Entity44 -->
<g id="node30" class="node entity">
<title>Entity44</title>
<ellipse fill="none" stroke="black" cx="6141.72" cy="-2038.95" rx="58.49" ry="18"/>
<text text-anchor="start" x="6104.72" y="-2035.25" font-family="Times New Roman,serif" font-size="14.00">steve bannon</text>
</g>
<!-- Entity44&#45;&gt;Entity15 -->
<g id="edge28" class="edge verb">
<title>Entity44&#45;&gt;Entity15</title>
<path fill="none" stroke="black" d="M6111.51,-2054.45C6004.12,-2116.41 5641.79,-2345.11 5534.83,-2418.36"/>
<polygon fill="black" stroke="black" points="5532.67,-2415.6 5526.43,-2424.16 5536.65,-2421.36 5532.67,-2415.6"/>
<text text-anchor="start" x="5768.17" y="-2240.21" font-family="Times New Roman,serif" font-size="14.00">promoted</text>
</g>
<!-- Entity44&#45;&gt;Entity15 -->
<g id="edge64" class="edge verb">
<title>Entity44&#45;&gt;Entity15</title>
<path fill="none" stroke="black" d="M6120.14,-2055.8C6027.69,-2120.23 5664.68,-2349.66 5544.07,-2420.26"/>
<polygon fill="black" stroke="black" points="5542.03,-2417.4 5535.15,-2425.45 5545.55,-2423.45 5542.03,-2417.4"/>
<text text-anchor="start" x="5832.1" y="-2241.83" font-family="Times New Roman,serif" font-size="14.00">advises</text>
</g>
<!-- Entity83 -->
<g id="node40" class="node entity">
<title>Entity83</title>
<ellipse fill="none" stroke="black" cx="6760.27" cy="-1941.75" rx="61.99" ry="18"/>
<text text-anchor="start" x="6720.77" y="-1938.05" font-family="Times New Roman,serif" font-size="14.00">breitbart news</text>
</g>
<!-- Entity44&#45;&gt;Entity83 -->
<g id="edge46" class="edge verb">
<title>Entity44&#45;&gt;Entity83</title>
<path fill="none" stroke="black" d="M6193.92,-2030.74C6306.67,-2013.03 6572.69,-1971.23 6695.75,-1951.89"/>
<polygon fill="black" stroke="black" points="6696.45,-1955.32 6705.78,-1950.31 6695.36,-1948.41 6696.45,-1955.32"/>
<text text-anchor="start" x="6403.84" y="-1995.12" font-family="Times New Roman,serif" font-size="14.00">created</text>
</g>
<!-- Entity89 -->
<g id="node49" class="node entity">
<title>Entity89</title>
<ellipse fill="none" stroke="black" cx="6362.41" cy="-1632.74" rx="35.19" ry="18"/>
<text text-anchor="start" x="6343.41" y="-1629.04" font-family="Times New Roman,serif" font-size="14.00">gurgev</text>
</g>
<!-- Entity44&#45;&gt;Entity89 -->
<g id="edge53" class="edge verb">
<title>Entity44&#45;&gt;Entity89</title>
<path fill="none" stroke="black" d="M6151.49,-2020.97C6186.53,-1956.47 6306.03,-1736.51 6347.83,-1659.58"/>
<polygon fill="black" stroke="black" points="6351.06,-1660.97 6352.75,-1650.51 6344.9,-1657.63 6351.06,-1660.97"/>
<text text-anchor="start" x="6208.66" y="-1844.07" font-family="Times New Roman,serif" font-size="14.00">studied</text>
</g>
<!-- Entity91 -->
<g id="node51" class="node entity">
<title>Entity91</title>
<ellipse fill="none" stroke="black" cx="6586.64" cy="-2164.41" rx="38.19" ry="18"/>
<text text-anchor="start" x="6565.14" y="-2160.71" font-family="Times New Roman,serif" font-size="14.00">us navy</text>
</g>
<!-- Entity44&#45;&gt;Entity91 -->
<g id="edge55" class="edge verb">
<title>Entity44&#45;&gt;Entity91</title>
<path fill="none" stroke="black" d="M6185.19,-2051.2C6270.5,-2075.26 6458.9,-2128.39 6543.74,-2152.31"/>
<polygon fill="black" stroke="black" points="6542.99,-2155.74 6553.56,-2155.08 6544.89,-2149 6542.99,-2155.74"/>
<text text-anchor="start" x="6303.47" y="-2105.56" font-family="Times New Roman,serif" font-size="14.00">member of</text>
</g>
<!-- Entity94 -->
<g id="node53" class="node entity">
<title>Entity94</title>
<ellipse fill="none" stroke="black" cx="6415.05" cy="-1848.64" rx="53.09" ry="18"/>
<text text-anchor="start" x="6382.05" y="-1844.94" font-family="Times New Roman,serif" font-size="14.00">biosphere 2</text>
</g>
<!-- Entity44&#45;&gt;Entity94 -->
<g id="edge57" class="edge verb">
<title>Entity44&#45;&gt;Entity94</title>
<path fill="none" stroke="black" d="M6165.5,-2022.39C6214.69,-1988.14 6327.65,-1909.48 6383.13,-1870.86"/>
<polygon fill="black" stroke="black" points="6385.31,-1873.6 6391.52,-1865.02 6381.31,-1867.86 6385.31,-1873.6"/>
<text text-anchor="start" x="6233.31" y="-1950.43" font-family="Times New Roman,serif" font-size="14.00">created</text>
</g>
<!-- Entity107 -->
<g id="node58" class="node entity">
<title>Entity107</title>
<ellipse fill="none" stroke="black" cx="6022.59" cy="-1930.89" rx="77.19" ry="18"/>
<text text-anchor="start" x="5971.09" y="-1927.19" font-family="Times New Roman,serif" font-size="14.00">hollywood movies</text>
</g>
<!-- Entity44&#45;&gt;Entity107 -->
<g id="edge61" class="edge verb">
<title>Entity44&#45;&gt;Entity107</title>
<path fill="none" stroke="black" d="M6122.84,-2021.82C6103.12,-2003.94 6072.01,-1975.71 6049.67,-1955.45"/>
<polygon fill="black" stroke="black" points="6051.93,-1952.77 6042.17,-1948.65 6047.23,-1957.96 6051.93,-1952.77"/>
<text text-anchor="start" x="6031.26" y="-1992.44" font-family="Times New Roman,serif" font-size="14.00">produced</text>
</g>
<!-- Entity111 -->
<g id="node59" class="node entity">
<title>Entity111</title>
<ellipse fill="none" stroke="black" cx="6663" cy="-1740.68" rx="64.99" ry="18"/>
<text text-anchor="start" x="6621" y="-1736.98" font-family="Times New Roman,serif" font-size="14.00">goldman sachs</text>
</g>
<!-- Entity44&#45;&gt;Entity111 -->
<g id="edge66" class="edge verb">
<title>Entity44&#45;&gt;Entity111</title>
<path fill="none" stroke="black" d="M6169.75,-2022.91C6257.41,-1972.75 6526.48,-1818.79 6625.73,-1762"/>
<polygon fill="black" stroke="black" points="6627.57,-1764.98 6634.51,-1756.98 6624.1,-1758.91 6627.57,-1764.98"/>
<text text-anchor="start" x="6334.74" y="-1896.26" font-family="Times New Roman,serif" font-size="14.00">worked for</text>
</g>
<!-- Entity33 -->
<g id="node32" class="node entity">
<title>Entity33</title>
<ellipse fill="none" stroke="black" cx="2110.26" cy="-3890.76" rx="57.69" ry="18"/>
<text text-anchor="start" x="2073.76" y="-3887.06" font-family="Times New Roman,serif" font-size="14.00">michael pane</text>
</g>
<!-- Entity33&#45;&gt;Entity30 -->
<g id="edge47" class="edge verb">
<title>Entity33&#45;&gt;Entity30</title>
<path fill="none" stroke="black" d="M2065.38,-3879.37C1994.02,-3861.25 1854.55,-3825.83 1773.88,-3805.34"/>
<polygon fill="black" stroke="black" points="1774.42,-3801.87 1763.87,-3802.8 1772.7,-3808.65 1774.42,-3801.87"/>
<text text-anchor="start" x="1856.63" y="-3846.16" font-family="Times New Roman,serif" font-size="14.00">worked for</text>
</g>
<!-- Entity33&#45;&gt;Entity72 -->
<g id="edge31" class="edge verb">
<title>Entity33&#45;&gt;Entity72</title>
<path fill="none" stroke="black" d="M2118.16,-3872.65C2149.48,-3800.76 2265.16,-3535.33 2302.87,-3448.8"/>
<polygon fill="black" stroke="black" points="2306.19,-3449.95 2306.97,-3439.38 2299.77,-3447.15 2306.19,-3449.95"/>
<text text-anchor="start" x="2154.51" y="-3664.52" font-family="Times New Roman,serif" font-size="14.00">worked at</text>
</g>
<!-- Entity45 -->
<g id="node33" class="node entity">
<title>Entity45</title>
<ellipse fill="none" stroke="black" cx="5260.25" cy="-2300.95" rx="67.69" ry="18"/>
<text text-anchor="start" x="5216.25" y="-2297.25" font-family="Times New Roman,serif" font-size="14.00">abraham lincoln</text>
</g>
<!-- Entity45&#45;&gt;Entity66 -->
<g id="edge32" class="edge verb">
<title>Entity45&#45;&gt;Entity66</title>
<path fill="none" stroke="black" d="M5261.35,-2319.15C5266.7,-2407.85 5290.04,-2794.87 5296.59,-2903.53"/>
<polygon fill="black" stroke="black" points="5293.11,-2903.95 5297.21,-2913.72 5300.1,-2903.53 5293.11,-2903.95"/>
<text text-anchor="start" x="5262.97" y="-2615.14" font-family="Times New Roman,serif" font-size="14.00">isa</text>
</g>
<!-- Entity38 -->
<g id="node34" class="node entity">
<title>Entity38</title>
<ellipse fill="none" stroke="black" cx="5202.82" cy="-1477.98" rx="90.98" ry="18"/>
<text text-anchor="start" x="5140.82" y="-1474.28" font-family="Times New Roman,serif" font-size="14.00">emma hardinge&#45;britten</text>
</g>
<!-- Entity38&#45;&gt;Entity45 -->
<g id="edge33" class="edge verb">
<title>Entity38&#45;&gt;Entity45</title>
<path fill="none" stroke="black" d="M5204.1,-1496.33C5211.53,-1602.91 5249.18,-2142.29 5258.27,-2272.59"/>
<polygon fill="black" stroke="black" points="5254.8,-2273.18 5258.99,-2282.92 5261.79,-2272.7 5254.8,-2273.18"/>
<text text-anchor="start" x="5132.18" y="-1888.26" font-family="Times New Roman,serif" font-size="14.00">spokesperson for</text>
</g>
<!-- Entity79 -->
<g id="node38" class="node entity">
<title>Entity79</title>
<ellipse fill="none" stroke="black" cx="4986.16" cy="-942.58" rx="39.79" ry="18"/>
<text text-anchor="start" x="4963.66" y="-938.88" font-family="Times New Roman,serif" font-size="14.00">medium</text>
</g>
<!-- Entity38&#45;&gt;Entity79 -->
<g id="edge38" class="edge verb">
<title>Entity38&#45;&gt;Entity79</title>
<path fill="none" stroke="black" d="M5195.48,-1459.86C5163.46,-1380.73 5035.77,-1065.17 4997.23,-969.93"/>
<polygon fill="black" stroke="black" points="5000.37,-968.38 4993.38,-960.42 4993.88,-971 5000.37,-968.38"/>
<text text-anchor="start" x="5080.35" y="-1218.7" font-family="Times New Roman,serif" font-size="14.00">isa</text>
</g>
<!-- Entity86 -->
<g id="node48" class="node entity">
<title>Entity86</title>
<ellipse fill="none" stroke="black" cx="5243.24" cy="-1369.99" rx="85.29" ry="18"/>
<text text-anchor="start" x="5185.74" y="-1366.29" font-family="Times New Roman,serif" font-size="14.00">theosophical society</text>
</g>
<!-- Entity38&#45;&gt;Entity86 -->
<g id="edge65" class="edge verb">
<title>Entity38&#45;&gt;Entity86</title>
<path fill="none" stroke="black" d="M5209.67,-1459.66C5216.04,-1442.65 5225.61,-1417.09 5232.91,-1397.6"/>
<polygon fill="black" stroke="black" points="5236.26,-1398.63 5236.48,-1388.04 5229.7,-1396.18 5236.26,-1398.63"/>
<text text-anchor="start" x="5180.29" y="-1432.43" font-family="Times New Roman,serif" font-size="14.00">created</text>
</g>
<!-- Entity99 -->
<g id="node54" class="node entity">
<title>Entity99</title>
<ellipse fill="none" stroke="black" cx="5480.95" cy="-920.24" rx="55.79" ry="18"/>
<text text-anchor="start" x="5445.95" y="-916.54" font-family="Times New Roman,serif" font-size="14.00">orphic circle</text>
</g>
<!-- Entity38&#45;&gt;Entity99 -->
<g id="edge58" class="edge verb">
<title>Entity38&#45;&gt;Entity99</title>
<path fill="none" stroke="black" d="M5211.75,-1460.06C5252.25,-1378.85 5418.65,-1045.17 5467.44,-947.32"/>
<polygon fill="black" stroke="black" points="5470.71,-948.61 5472.04,-938.1 5464.45,-945.48 5470.71,-948.61"/>
<text text-anchor="start" x="5278.6" y="-1207.49" font-family="Times New Roman,serif" font-size="14.00">member of</text>
</g>
<!-- Entity42 -->
<g id="node36" class="node entity">
<title>Entity42</title>
<ellipse fill="none" stroke="black" cx="3905.94" cy="-1943.66" rx="53.89" ry="18"/>
<text text-anchor="start" x="3872.44" y="-1939.96" font-family="Times New Roman,serif" font-size="14.00">black magic</text>
</g>
<!-- Entity81 -->
<g id="node37" class="node entity">
<title>Entity81</title>
<ellipse fill="none" stroke="black" cx="3993.66" cy="-2055.64" rx="28.7" ry="18"/>
<text text-anchor="start" x="3979.66" y="-2051.94" font-family="Times New Roman,serif" font-size="14.00">x left</text>
</g>
<!-- Entity42&#45;&gt;Entity81 -->
<g id="edge37" class="edge verb">
<title>Entity42&#45;&gt;Entity81</title>
<path fill="none" stroke="black" d="M3919.64,-1961.16C3934.45,-1980.05 3958.14,-2010.29 3974.72,-2031.45"/>
<polygon fill="black" stroke="black" points="3971.98,-2033.64 3980.9,-2039.36 3977.49,-2029.32 3971.98,-2033.64"/>
<text text-anchor="start" x="3886.18" y="-2000.11" font-family="Times New Roman,serif" font-size="14.00">member of</text>
</g>
<!-- Entity47 -->
<g id="node39" class="node entity">
<title>Entity47</title>
<ellipse fill="none" stroke="black" cx="7327.32" cy="-1805.15" rx="69.59" ry="18"/>
<text text-anchor="start" x="7281.82" y="-1801.45" font-family="Times New Roman,serif" font-size="14.00">andrew breitbart</text>
</g>
<!-- Entity47&#45;&gt;Entity83 -->
<g id="edge39" class="edge verb">
<title>Entity47&#45;&gt;Entity83</title>
<path fill="none" stroke="black" d="M7276.25,-1817.46C7170.65,-1842.89 6928.91,-1901.13 6817.91,-1927.87"/>
<polygon fill="black" stroke="black" points="6816.81,-1924.53 6807.91,-1930.28 6818.45,-1931.34 6816.81,-1924.53"/>
<text text-anchor="start" x="7006.08" y="-1876.46" font-family="Times New Roman,serif" font-size="14.00">created</text>
</g>
<!-- Entity35 -->
<g id="node42" class="node entity">
<title>Entity35</title>
<ellipse fill="none" stroke="black" cx="3249.94" cy="-2264.66" rx="39.79" ry="18"/>
<text text-anchor="start" x="3227.44" y="-2260.96" font-family="Times New Roman,serif" font-size="14.00">crowley</text>
</g>
<!-- Entity80 -->
<g id="node43" class="node entity">
<title>Entity80</title>
<ellipse fill="none" stroke="black" cx="3337.66" cy="-2376.64" rx="38.99" ry="18"/>
<text text-anchor="start" x="3315.66" y="-2372.94" font-family="Times New Roman,serif" font-size="14.00">x magic</text>
</g>
<!-- Entity35&#45;&gt;Entity80 -->
<g id="edge41" class="edge verb">
<title>Entity35&#45;&gt;Entity80</title>
<path fill="none" stroke="black" d="M3263.26,-2281.67C3277.82,-2300.25 3301.28,-2330.2 3317.96,-2351.49"/>
<polygon fill="black" stroke="black" points="3315.29,-2353.76 3324.21,-2359.47 3320.8,-2349.44 3315.29,-2353.76"/>
<text text-anchor="start" x="3229.61" y="-2320.38" font-family="Times New Roman,serif" font-size="14.00">member of</text>
</g>
<!-- Entity19 -->
<g id="node44" class="node entity">
<title>Entity19</title>
<ellipse fill="none" stroke="black" cx="4976.15" cy="-2871.76" rx="31.4" ry="18"/>
<text text-anchor="start" x="4960.15" y="-2868.06" font-family="Times New Roman,serif" font-size="14.00">carter</text>
</g>
<!-- Entity19&#45;&gt;Entity66 -->
<g id="edge44" class="edge verb">
<title>Entity19&#45;&gt;Entity66</title>
<path fill="none" stroke="black" d="M5005.88,-2877.31C5063.99,-2888.18 5192.66,-2912.24 5258.22,-2924.51"/>
<polygon fill="black" stroke="black" points="5257.71,-2927.97 5268.18,-2926.37 5259,-2921.09 5257.71,-2927.97"/>
<text text-anchor="start" x="5116.05" y="-2904.71" font-family="Times New Roman,serif" font-size="14.00">isa</text>
</g>
<!-- Entity19&#45;&gt;Entity90 -->
<g id="edge56" class="edge verb">
<title>Entity19&#45;&gt;Entity90</title>
<path fill="none" stroke="black" d="M4945.39,-2875.29C4883.89,-2882.35 4746,-2898.19 4679.74,-2905.8"/>
<polygon fill="black" stroke="black" points="4679.28,-2902.33 4669.74,-2906.95 4680.08,-2909.29 4679.28,-2902.33"/>
<text text-anchor="start" x="4757.57" y="-2894.35" font-family="Times New Roman,serif" font-size="14.00">witnessed</text>
</g>
<!-- Entity27 -->
<g id="node45" class="node entity">
<title>Entity27</title>
<ellipse fill="none" stroke="black" cx="36.78" cy="-4939.42" rx="36.29" ry="18"/>
<text text-anchor="start" x="16.78" y="-4935.72" font-family="Times New Roman,serif" font-size="14.00">oswald</text>
</g>
<!-- Entity34 -->
<g id="node46" class="node entity">
<title>Entity34</title>
<ellipse fill="none" stroke="black" cx="406.83" cy="-4697.16" rx="59.29" ry="18"/>
<text text-anchor="start" x="369.33" y="-4693.46" font-family="Times New Roman,serif" font-size="14.00">guy bannister</text>
</g>
<!-- Entity27&#45;&gt;Entity34 -->
<g id="edge50" class="edge verb">
<title>Entity27&#45;&gt;Entity34</title>
<path fill="none" stroke="black" d="M58.82,-4924.99C121.01,-4884.27 298.23,-4768.25 372.95,-4719.34"/>
<polygon fill="black" stroke="black" points="375.09,-4722.12 381.54,-4713.71 371.25,-4716.26 375.09,-4722.12"/>
<text text-anchor="start" x="152.88" y="-4825.97" font-family="Times New Roman,serif" font-size="14.00">worked for</text>
</g>
<!-- Entity34&#45;&gt;Entity75 -->
<g id="edge51" class="edge verb">
<title>Entity34&#45;&gt;Entity75</title>
<path fill="none" stroke="black" d="M431.3,-4680.6C503.08,-4632.02 713,-4489.95 792.17,-4436.38"/>
<polygon fill="black" stroke="black" points="794.41,-4439.09 800.73,-4430.59 790.48,-4433.29 794.41,-4439.09"/>
<text text-anchor="start" x="550.73" y="-4562.29" font-family="Times New Roman,serif" font-size="14.00">member of</text>
</g>
<!-- Entity64 -->
<g id="node47" class="node entity">
<title>Entity64</title>
<ellipse fill="none" stroke="black" cx="5100.9" cy="-1261.95" rx="73.39" ry="18"/>
<text text-anchor="start" x="5052.4" y="-1258.25" font-family="Times New Roman,serif" font-size="14.00">madam blavatsky</text>
</g>
<!-- Entity64&#45;&gt;Entity86 -->
<g id="edge52" class="edge verb">
<title>Entity64&#45;&gt;Entity86</title>
<path fill="none" stroke="black" d="M5123.77,-1279.31C5147.59,-1297.4 5185.09,-1325.86 5211.72,-1346.07"/>
<polygon fill="black" stroke="black" points="5209.87,-1349.06 5219.95,-1352.32 5214.1,-1343.48 5209.87,-1349.06"/>
<text text-anchor="start" x="5126.74" y="-1316.49" font-family="Times New Roman,serif" font-size="14.00">created</text>
</g>
<!-- Entity60 -->
<g id="node56" class="node entity">
<title>Entity60</title>
<ellipse fill="none" stroke="black" cx="5294.76" cy="-681.98" rx="58.49" ry="18"/>
<text text-anchor="start" x="5257.76" y="-678.28" font-family="Times New Roman,serif" font-size="14.00">rudolf steiner</text>
</g>
<!-- Entity60&#45;&gt;Entity86 -->
<g id="edge63" class="edge verb">
<title>Entity60&#45;&gt;Entity86</title>
<path fill="none" stroke="black" d="M5293.41,-700.03C5286.38,-793.89 5254,-1226.35 5245.36,-1341.67"/>
<polygon fill="black" stroke="black" points="5241.86,-1341.58 5244.6,-1351.81 5248.84,-1342.1 5241.86,-1341.58"/>
<text text-anchor="start" x="5203.38" y="-1024.65" font-family="Times New Roman,serif" font-size="14.00">memberr of</text>
</g>
<!-- Entity93 -->
<g id="node57" class="node entity">
<title>Entity93</title>
<ellipse fill="none" stroke="black" cx="5358.94" cy="-18.15" rx="102.08" ry="18"/>
<text text-anchor="start" x="5288.44" y="-14.45" font-family="Times New Roman,serif" font-size="14.00">anthroposophical society</text>
</g>
<!-- Entity60&#45;&gt;Entity93 -->
<g id="edge60" class="edge verb">
<title>Entity60&#45;&gt;Entity93</title>
<path fill="none" stroke="black" d="M5296.51,-663.88C5305.38,-572.18 5345.34,-158.83 5356.2,-46.44"/>
<polygon fill="black" stroke="black" points="5359.71,-46.52 5357.19,-36.23 5352.74,-45.85 5359.71,-46.52"/>
<text text-anchor="start" x="5285.36" y="-358.96" font-family="Times New Roman,serif" font-size="14.00">created</text>
</g>
<!-- Entity109 -->
<g id="node60" class="node entity">
<title>Entity109</title>
<ellipse fill="none" stroke="black" cx="3878.94" cy="-2585.66" rx="27" ry="18"/>
<text text-anchor="start" x="3875.44" y="-2581.96" font-family="Times New Roman,serif" font-size="14.00">s</text>
</g>
<!-- Entity112 -->
<g id="node61" class="node entity">
<title>Entity112</title>
<ellipse fill="none" stroke="black" cx="3966.66" cy="-2697.64" rx="27" ry="18"/>
<text text-anchor="start" x="3962.66" y="-2693.94" font-family="Times New Roman,serif" font-size="14.00">o</text>
</g>
<!-- Entity109&#45;&gt;Entity112 -->
<g id="edge67" class="edge verb">
<title>Entity109&#45;&gt;Entity112</title>
<path fill="none" stroke="black" d="M3891.51,-2601.7C3906.23,-2620.5 3930.76,-2651.82 3947.78,-2673.53"/>
<polygon fill="black" stroke="black" points="3945.19,-2675.91 3954.11,-2681.62 3950.7,-2671.59 3945.19,-2675.91"/>
<text text-anchor="start" x="3912.64" y="-2641.42" font-family="Times New Roman,serif" font-size="14.00">v</text>
</g>
</g>
</svg>
