<?xml version="1.0" encoding="UTF-8" standalone="no"?>
<?xml-stylesheet href="./styles.css" type="text/css"?>
<!DOCTYPE svg PUBLIC "-//W3C//DTD SVG 1.1//EN"
 "http://www.w3.org/Graphics/SVG/1.1/DTD/svg11.dtd">
<!-- Generated by graphviz version 2.47.3 (20210619.1520)
 -->
<!-- Title: G Pages: 1 -->
<svg width="5933pt" height="5537pt"
 viewBox="0.00 0.00 5933.00 5537.00" xmlns="http://www.w3.org/2000/svg" xmlns:xlink="http://www.w3.org/1999/xlink">
<g id="graph0" class="graph" transform="scale(1 1) rotate(0) translate(4 5533)">
<title>G</title>
<polygon fill="white" stroke="transparent" points="-4,4 -4,-5533 5929,-5533 5929,4 -4,4"/>
<!-- Entity3 -->
<g id="node1" class="node entity">
<title>Entity3</title>
<ellipse fill="none" stroke="black" cx="3609.32" cy="-2770.08" rx="64.19" ry="18"/>
<text text-anchor="start" x="3567.82" y="-2766.38" font-family="Times New Roman,serif" font-size="14.00">john f kennedy</text>
</g>
<!-- Entity22 -->
<g id="node2" class="node entity">
<title>Entity22</title>
<ellipse fill="none" stroke="black" cx="3250.24" cy="-2760.81" rx="27" ry="18"/>
<text text-anchor="start" x="3242.24" y="-2757.11" font-family="Times New Roman,serif" font-size="14.00">cia</text>
</g>
<!-- Entity3&#45;&gt;Entity22 -->
<g id="edge1" class="edge verb">
<title>Entity3&#45;&gt;Entity22</title>
<path fill="none" stroke="black" d="M3545.13,-2768.42C3470.15,-2766.49 3348.63,-2763.35 3287.65,-2761.78"/>
<polygon fill="black" stroke="black" points="3287.43,-2758.27 3277.35,-2761.51 3287.25,-2765.27 3287.43,-2758.27"/>
<text text-anchor="start" x="3312.39" y="-2768.9" font-family="Times New Roman,serif" font-size="14.00">heads (1961&#45;1963)</text>
</g>
<!-- Entity66 -->
<g id="node20" class="node entity">
<title>Entity66</title>
<ellipse fill="none" stroke="black" cx="3980.13" cy="-2904.24" rx="31.4" ry="18"/>
<text text-anchor="start" x="3964.13" y="-2900.54" font-family="Times New Roman,serif" font-size="14.00">potus</text>
</g>
<!-- Entity3&#45;&gt;Entity66 -->
<g id="edge23" class="edge verb">
<title>Entity3&#45;&gt;Entity66</title>
<path fill="none" stroke="black" d="M3649,-2784.44C3721.48,-2810.66 3874.21,-2865.92 3943.98,-2891.17"/>
<polygon fill="black" stroke="black" points="3943.06,-2894.55 3953.65,-2894.66 3945.44,-2887.97 3943.06,-2894.55"/>
<text text-anchor="start" x="3709.49" y="-2841.6" font-family="Times New Roman,serif" font-size="14.00">isa (1961&#45;1963)</text>
</g>
<!-- Entity67 -->
<g id="node25" class="node entity">
<title>Entity67</title>
<ellipse fill="none" stroke="black" cx="2622.9" cy="-3011.55" rx="77.19" ry="18"/>
<text text-anchor="start" x="2571.4" y="-3007.85" font-family="Times New Roman,serif" font-size="14.00">psi&#45;consciousness</text>
</g>
<!-- Entity22&#45;&gt;Entity67 -->
<g id="edge43" class="edge verb">
<title>Entity22&#45;&gt;Entity67</title>
<path fill="none" stroke="black" d="M3226.79,-2770.18C3134.87,-2806.92 2797.95,-2941.58 2671.38,-2992.17"/>
<polygon fill="black" stroke="black" points="2669.91,-2988.99 2661.92,-2995.95 2672.51,-2995.49 2669.91,-2988.99"/>
<text text-anchor="start" x="2885.09" y="-2884.98" font-family="Times New Roman,serif" font-size="14.00">investigates</text>
</g>
<!-- Entity90 -->
<g id="node52" class="node entity">
<title>Entity90</title>
<ellipse fill="none" stroke="black" cx="3545.96" cy="-2625.88" rx="27" ry="18"/>
<text text-anchor="start" x="3536.46" y="-2622.18" font-family="Times New Roman,serif" font-size="14.00">ufo</text>
</g>
<!-- Entity22&#45;&gt;Entity90 -->
<g id="edge62" class="edge verb">
<title>Entity22&#45;&gt;Entity90</title>
<path fill="none" stroke="black" d="M3272.96,-2750.45C3325.23,-2726.6 3454.14,-2667.77 3514.21,-2640.37"/>
<polygon fill="black" stroke="black" points="3515.93,-2643.43 3523.57,-2636.09 3513.02,-2637.06 3515.93,-2643.43"/>
<text text-anchor="start" x="3329.58" y="-2699.21" font-family="Times New Roman,serif" font-size="14.00">investigates</text>
</g>
<!-- Entity14 -->
<g id="node3" class="node entity">
<title>Entity14</title>
<ellipse fill="none" stroke="black" cx="852.09" cy="-2894.38" rx="74.99" ry="18"/>
<text text-anchor="start" x="802.59" y="-2890.68" font-family="Times New Roman,serif" font-size="14.00">gene roddenberry</text>
</g>
<!-- Entity8 -->
<g id="node4" class="node entity">
<title>Entity8</title>
<ellipse fill="none" stroke="black" cx="1349.63" cy="-2920.57" rx="38.19" ry="18"/>
<text text-anchor="start" x="1328.13" y="-2916.87" font-family="Times New Roman,serif" font-size="14.00">the nine</text>
</g>
<!-- Entity14&#45;&gt;Entity8 -->
<g id="edge2" class="edge verb">
<title>Entity14&#45;&gt;Entity8</title>
<path fill="none" stroke="black" d="M925.24,-2898.23C1028.28,-2903.65 1213.38,-2913.4 1301.05,-2918.01"/>
<polygon fill="black" stroke="black" points="1301.08,-2921.52 1311.25,-2918.55 1301.45,-2914.53 1301.08,-2921.52"/>
<text text-anchor="start" x="1009.14" y="-2911.92" font-family="Times New Roman,serif" font-size="14.00">claiemd to channel</text>
</g>
<!-- Entity70 -->
<g id="node23" class="node entity">
<title>Entity70</title>
<ellipse fill="none" stroke="black" cx="856.8" cy="-2623.32" rx="94.48" ry="18"/>
<text text-anchor="start" x="792.3" y="-2619.62" font-family="Times New Roman,serif" font-size="14.00">egyptian gods in a ship</text>
</g>
<!-- Entity8&#45;&gt;Entity70 -->
<g id="edge16" class="edge verb">
<title>Entity8&#45;&gt;Entity70</title>
<path fill="none" stroke="black" d="M1325.86,-2906.23C1246.6,-2858.43 990.93,-2704.23 894.28,-2645.93"/>
<polygon fill="black" stroke="black" points="895.8,-2642.76 885.43,-2640.59 892.19,-2648.76 895.8,-2642.76"/>
<text text-anchor="start" x="1006.07" y="-2779.88" font-family="Times New Roman,serif" font-size="14.00">claimed to channel</text>
</g>
<!-- Entity16 -->
<g id="node5" class="node entity">
<title>Entity16</title>
<ellipse fill="none" stroke="black" cx="3330.58" cy="-2878.06" rx="68.49" ry="18"/>
<text text-anchor="start" x="3286.08" y="-2874.36" font-family="Times New Roman,serif" font-size="14.00">george hw bush</text>
</g>
<!-- Entity20 -->
<g id="node6" class="node entity">
<title>Entity20</title>
<ellipse fill="none" stroke="black" cx="3515.35" cy="-2986.1" rx="63.89" ry="18"/>
<text text-anchor="start" x="3474.35" y="-2982.4" font-family="Times New Roman,serif" font-size="14.00">george w bush</text>
</g>
<!-- Entity16&#45;&gt;Entity20 -->
<g id="edge3" class="edge verb">
<title>Entity16&#45;&gt;Entity20</title>
<path fill="none" stroke="black" d="M3358.65,-2894.47C3390.71,-2913.22 3443.29,-2943.97 3478.6,-2964.61"/>
<polygon fill="black" stroke="black" points="3477.23,-2967.86 3487.63,-2969.89 3480.76,-2961.82 3477.23,-2967.86"/>
<text text-anchor="start" x="3386.62" y="-2933.34" font-family="Times New Roman,serif" font-size="14.00">father</text>
</g>
<!-- Entity16&#45;&gt;Entity66 -->
<g id="edge20" class="edge verb">
<title>Entity16&#45;&gt;Entity66</title>
<path fill="none" stroke="black" d="M3398.26,-2880.78C3532.53,-2886.2 3829.1,-2898.15 3938.52,-2902.57"/>
<polygon fill="black" stroke="black" points="3938.68,-2906.07 3948.81,-2902.98 3938.96,-2899.08 3938.68,-2906.07"/>
<text text-anchor="start" x="3652.39" y="-2895.47" font-family="Times New Roman,serif" font-size="14.00">isa</text>
</g>
<!-- Entity20&#45;&gt;Entity66 -->
<g id="edge42" class="edge verb">
<title>Entity20&#45;&gt;Entity66</title>
<path fill="none" stroke="black" d="M3569.57,-2976.55C3664.07,-2959.91 3856.79,-2925.96 3940.19,-2911.28"/>
<polygon fill="black" stroke="black" points="3941.03,-2914.68 3950.27,-2909.5 3939.81,-2907.79 3941.03,-2914.68"/>
<text text-anchor="start" x="3738.88" y="-2947.71" font-family="Times New Roman,serif" font-size="14.00">isa</text>
</g>
<!-- Entity2 -->
<g id="node7" class="node entity">
<title>Entity2</title>
<ellipse fill="none" stroke="black" cx="1534.36" cy="-2588.7" rx="41.69" ry="18"/>
<text text-anchor="start" x="1510.36" y="-2585" font-family="Times New Roman,serif" font-size="14.00">uri geller</text>
</g>
<!-- Entity2&#45;&gt;Entity8 -->
<g id="edge4" class="edge verb">
<title>Entity2&#45;&gt;Entity8</title>
<path fill="none" stroke="black" d="M1524.43,-2606.54C1493.78,-2661.59 1400.6,-2829 1364.32,-2894.19"/>
<polygon fill="black" stroke="black" points="1361.19,-2892.6 1359.39,-2903.04 1367.31,-2896 1361.19,-2892.6"/>
<text text-anchor="start" x="1340.37" y="-2754.16" font-family="Times New Roman,serif" font-size="14.00">claiemd to channel</text>
</g>
<!-- Entity26 -->
<g id="node8" class="node entity">
<title>Entity26</title>
<ellipse fill="none" stroke="black" cx="232.92" cy="-4820.15" rx="49.29" ry="18"/>
<text text-anchor="start" x="202.92" y="-4816.45" font-family="Times New Roman,serif" font-size="14.00">adolf hitler</text>
</g>
<!-- Entity28 -->
<g id="node9" class="node entity">
<title>Entity28</title>
<ellipse fill="none" stroke="black" cx="560.33" cy="-4567.46" rx="32.49" ry="18"/>
<text text-anchor="start" x="543.33" y="-4563.76" font-family="Times New Roman,serif" font-size="14.00">nsdap</text>
</g>
<!-- Entity26&#45;&gt;Entity28 -->
<g id="edge5" class="edge verb">
<title>Entity26&#45;&gt;Entity28</title>
<path fill="none" stroke="black" d="M254.4,-4803.57C311.99,-4759.12 469.76,-4637.35 533.29,-4588.32"/>
<polygon fill="black" stroke="black" points="535.48,-4591.05 541.26,-4582.17 531.21,-4585.51 535.48,-4591.05"/>
<text text-anchor="start" x="352.85" y="-4699.74" font-family="Times New Roman,serif" font-size="14.00">created</text>
</g>
<!-- Entity75 -->
<g id="node31" class="node entity">
<title>Entity75</title>
<ellipse fill="none" stroke="black" cx="617.4" cy="-4985.88" rx="38.99" ry="18"/>
<text text-anchor="start" x="595.4" y="-4982.18" font-family="Times New Roman,serif" font-size="14.00">far right</text>
</g>
<!-- Entity28&#45;&gt;Entity75 -->
<g id="edge29" class="edge verb">
<title>Entity28&#45;&gt;Entity75</title>
<path fill="none" stroke="black" d="M562.78,-4585.43C571.7,-4650.87 602.5,-4876.7 613.48,-4957.14"/>
<polygon fill="black" stroke="black" points="610.07,-4958.06 614.89,-4967.5 617,-4957.12 610.07,-4958.06"/>
<text text-anchor="start" x="527.13" y="-4775.09" font-family="Times New Roman,serif" font-size="14.00">member of</text>
</g>
<!-- Entity15 -->
<g id="node10" class="node entity">
<title>Entity15</title>
<ellipse fill="none" stroke="black" cx="4475.64" cy="-2645.7" rx="59.59" ry="18"/>
<text text-anchor="start" x="4437.64" y="-2642" font-family="Times New Roman,serif" font-size="14.00">donald trump</text>
</g>
<!-- Entity48 -->
<g id="node11" class="node entity">
<title>Entity48</title>
<ellipse fill="none" stroke="black" cx="3799.73" cy="-2641.97" rx="50.09" ry="18"/>
<text text-anchor="start" x="3769.23" y="-2638.27" font-family="Times New Roman,serif" font-size="14.00">john trump</text>
</g>
<!-- Entity15&#45;&gt;Entity48 -->
<g id="edge6" class="edge verb">
<title>Entity15&#45;&gt;Entity48</title>
<path fill="none" stroke="black" d="M4415.66,-2645.37C4287.47,-2644.66 3988.09,-2643.01 3859.82,-2642.3"/>
<polygon fill="black" stroke="black" points="3859.8,-2638.8 3849.78,-2642.24 3859.76,-2645.8 3859.8,-2638.8"/>
<text text-anchor="start" x="4078.74" y="-2632.63" font-family="Times New Roman,serif" font-size="14.00">nephew of</text>
</g>
<!-- Entity15&#45;&gt;Entity66 -->
<g id="edge27" class="edge verb">
<title>Entity15&#45;&gt;Entity66</title>
<path fill="none" stroke="black" d="M4445.39,-2661.48C4357.51,-2707.33 4102.79,-2840.24 4012.4,-2887.4"/>
<polygon fill="black" stroke="black" points="4010.69,-2884.35 4003.44,-2892.08 4013.92,-2890.56 4010.69,-2884.35"/>
<text text-anchor="start" x="4212.89" y="-2778.24" font-family="Times New Roman,serif" font-size="14.00">isa</text>
</g>
<!-- Entity48&#45;&gt;Entity22 -->
<g id="edge10" class="edge verb">
<title>Entity48&#45;&gt;Entity22</title>
<path fill="none" stroke="black" d="M3756.61,-2651.29C3651.4,-2674.05 3383.06,-2732.09 3285.98,-2753.08"/>
<polygon fill="black" stroke="black" points="3285.1,-2749.69 3276.07,-2755.23 3286.58,-2756.53 3285.1,-2749.69"/>
<text text-anchor="start" x="3460.3" y="-2705.99" font-family="Times New Roman,serif" font-size="14.00">member of</text>
</g>
<!-- Entity82 -->
<g id="node41" class="node entity">
<title>Entity82</title>
<ellipse fill="none" stroke="black" cx="4144.23" cy="-2664.71" rx="50.89" ry="18"/>
<text text-anchor="start" x="4113.23" y="-2661.01" font-family="Times New Roman,serif" font-size="14.00">nikola tesla</text>
</g>
<!-- Entity48&#45;&gt;Entity82 -->
<g id="edge40" class="edge verb">
<title>Entity48&#45;&gt;Entity82</title>
<path fill="none" stroke="black" d="M3849.09,-2645.23C3910.99,-2649.31 4017.07,-2656.32 4083.77,-2660.72"/>
<polygon fill="black" stroke="black" points="4083.92,-2664.24 4094.13,-2661.41 4084.38,-2657.25 4083.92,-2664.24"/>
<text text-anchor="start" x="3925.43" y="-2656.77" font-family="Times New Roman,serif" font-size="14.00">studied</text>
</g>
<!-- Entity5 -->
<g id="node12" class="node entity">
<title>Entity5</title>
<ellipse fill="none" stroke="black" cx="1819.81" cy="-3216.28" rx="65.79" ry="18"/>
<text text-anchor="start" x="1777.31" y="-3212.58" font-family="Times New Roman,serif" font-size="14.00">arthur m young</text>
</g>
<!-- Entity5&#45;&gt;Entity8 -->
<g id="edge7" class="edge verb">
<title>Entity5&#45;&gt;Entity8</title>
<path fill="none" stroke="black" d="M1793.53,-3199.75C1712.84,-3149 1468.88,-2995.56 1381.33,-2940.5"/>
<polygon fill="black" stroke="black" points="1382.97,-2937.4 1372.64,-2935.04 1379.24,-2943.32 1382.97,-2937.4"/>
<text text-anchor="start" x="1525.43" y="-3073.93" font-family="Times New Roman,serif" font-size="14.00">member&#45;of</text>
</g>
<!-- Entity5&#45;&gt;Entity67 -->
<g id="edge18" class="edge verb">
<title>Entity5&#45;&gt;Entity67</title>
<path fill="none" stroke="black" d="M1867.94,-3204.01C2006.52,-3168.68 2406.38,-3066.75 2560.91,-3027.35"/>
<polygon fill="black" stroke="black" points="2561.9,-3030.71 2570.73,-3024.85 2560.17,-3023.93 2561.9,-3030.71"/>
<text text-anchor="start" x="2173.43" y="-3119.48" font-family="Times New Roman,serif" font-size="14.00">studied</text>
</g>
<!-- Entity72 -->
<g id="node28" class="node entity">
<title>Entity72</title>
<ellipse fill="none" stroke="black" cx="1268.67" cy="-3611.43" rx="53.89" ry="18"/>
<text text-anchor="start" x="1235.17" y="-3607.73" font-family="Times New Roman,serif" font-size="14.00">bell aviation</text>
</g>
<!-- Entity5&#45;&gt;Entity72 -->
<g id="edge24" class="edge verb">
<title>Entity5&#45;&gt;Entity72</title>
<path fill="none" stroke="black" d="M1796.13,-3233.26C1708.04,-3296.42 1399.28,-3517.79 1299.8,-3589.11"/>
<polygon fill="black" stroke="black" points="1297.74,-3586.28 1291.65,-3594.95 1301.82,-3591.97 1297.74,-3586.28"/>
<text text-anchor="start" x="1506.97" y="-3414.98" font-family="Times New Roman,serif" font-size="14.00">created</text>
</g>
<!-- Entity1 -->
<g id="node13" class="node entity">
<title>Entity1</title>
<ellipse fill="none" stroke="black" cx="1212.53" cy="-2230.2" rx="64.19" ry="18"/>
<text text-anchor="start" x="1171.03" y="-2226.5" font-family="Times New Roman,serif" font-size="14.00">andre puharich</text>
</g>
<!-- Entity1&#45;&gt;Entity2 -->
<g id="edge8" class="edge verb">
<title>Entity1&#45;&gt;Entity2</title>
<path fill="none" stroke="black" d="M1228.49,-2247.98C1281.38,-2306.9 1451.05,-2495.89 1512.16,-2563.97"/>
<polygon fill="black" stroke="black" points="1509.77,-2566.55 1519.06,-2571.65 1514.98,-2561.87 1509.77,-2566.55"/>
<text text-anchor="start" x="1310.32" y="-2409.77" font-family="Times New Roman,serif" font-size="14.00">sponsored</text>
</g>
<!-- Entity7 -->
<g id="node14" class="node entity">
<title>Entity7</title>
<ellipse fill="none" stroke="black" cx="2032.5" cy="-2781.05" rx="68.49" ry="18"/>
<text text-anchor="start" x="1988" y="-2777.35" font-family="Times New Roman,serif" font-size="14.00">jeffrey mishlove</text>
</g>
<!-- Entity7&#45;&gt;Entity2 -->
<g id="edge9" class="edge verb">
<title>Entity7&#45;&gt;Entity2</title>
<path fill="none" stroke="black" d="M1993.83,-2766.12C1901.54,-2730.48 1669.12,-2640.73 1574.94,-2604.37"/>
<polygon fill="black" stroke="black" points="1576.06,-2601.05 1565.47,-2600.71 1573.54,-2607.58 1576.06,-2601.05"/>
<text text-anchor="start" x="1729.38" y="-2689.04" font-family="Times New Roman,serif" font-size="14.00">promoted</text>
</g>
<!-- Entity7&#45;&gt;Entity67 -->
<g id="edge19" class="edge verb">
<title>Entity7&#45;&gt;Entity67</title>
<path fill="none" stroke="black" d="M2064.3,-2797.03C2159.68,-2838.87 2444.19,-2950.23 2566.26,-2993.87"/>
<polygon fill="black" stroke="black" points="2565.21,-2997.22 2575.81,-2997.27 2567.56,-2990.62 2565.21,-2997.22"/>
<text text-anchor="start" x="2315.28" y="-2884.25" font-family="Times New Roman,serif" font-size="14.00">studied</text>
</g>
<!-- Entity7&#45;&gt;Entity67 -->
<g id="edge26" class="edge verb">
<title>Entity7&#45;&gt;Entity67</title>
<path fill="none" stroke="black" d="M2077.76,-2794.69C2188.81,-2833.75 2473.48,-2944.9 2580.97,-2991.17"/>
<polygon fill="black" stroke="black" points="2579.64,-2994.41 2590.21,-2995.18 2582.43,-2987.99 2579.64,-2994.41"/>
<text text-anchor="start" x="2329.36" y="-2896.73" font-family="Times New Roman,serif" font-size="14.00">investigates</text>
</g>
<!-- Entity30 -->
<g id="node15" class="node entity">
<title>Entity30</title>
<ellipse fill="none" stroke="black" cx="748.02" cy="-3990.02" rx="74.99" ry="18"/>
<text text-anchor="start" x="698.52" y="-3986.32" font-family="Times New Roman,serif" font-size="14.00">walter dornberger</text>
</g>
<!-- Entity30&#45;&gt;Entity28 -->
<g id="edge11" class="edge verb">
<title>Entity30&#45;&gt;Entity28</title>
<path fill="none" stroke="black" d="M742.09,-4008.26C714.92,-4091.85 602.18,-4438.69 569.34,-4539.72"/>
<polygon fill="black" stroke="black" points="565.92,-4538.91 566.16,-4549.5 572.58,-4541.07 565.92,-4538.91"/>
<text text-anchor="start" x="594.72" y="-4277.79" font-family="Times New Roman,serif" font-size="14.00">member of</text>
</g>
<!-- Entity30&#45;&gt;Entity72 -->
<g id="edge35" class="edge verb">
<title>Entity30&#45;&gt;Entity72</title>
<path fill="none" stroke="black" d="M776.43,-3973.3C867.83,-3912.67 1153.21,-3705.2 1242.04,-3634.86"/>
<polygon fill="black" stroke="black" points="1244.38,-3637.47 1250.01,-3628.49 1240.01,-3632 1244.38,-3637.47"/>
<text text-anchor="start" x="930.24" y="-3807.88" font-family="Times New Roman,serif" font-size="14.00">vice&#45;president</text>
</g>
<!-- Entity30&#45;&gt;Entity72 -->
<g id="edge49" class="edge verb">
<title>Entity30&#45;&gt;Entity72</title>
<path fill="none" stroke="black" d="M767.39,-3972.39C844.8,-3909.98 1132.23,-3700.71 1233.29,-3632.8"/>
<polygon fill="black" stroke="black" points="1235.27,-3635.69 1241.64,-3627.23 1231.38,-3629.87 1235.27,-3635.69"/>
<text text-anchor="start" x="944.34" y="-3791.39" font-family="Times New Roman,serif" font-size="14.00">worked at</text>
</g>
<!-- Entity76 -->
<g id="node35" class="node entity">
<title>Entity76</title>
<ellipse fill="none" stroke="black" cx="91.22" cy="-4116.71" rx="90.98" ry="18"/>
<text text-anchor="start" x="29.22" y="-4113.01" font-family="Times New Roman,serif" font-size="14.00">nsdap rocket program</text>
</g>
<!-- Entity30&#45;&gt;Entity76 -->
<g id="edge36" class="edge verb">
<title>Entity30&#45;&gt;Entity76</title>
<path fill="none" stroke="black" d="M689.45,-4001.32C570.09,-4024.34 298.87,-4076.66 166.59,-4102.17"/>
<polygon fill="black" stroke="black" points="165.69,-4098.78 156.54,-4104.11 167.02,-4105.65 165.69,-4098.78"/>
<text text-anchor="start" x="387.02" y="-4055.55" font-family="Times New Roman,serif" font-size="14.00">created</text>
</g>
<!-- Entity104 -->
<g id="node55" class="node entity">
<title>Entity104</title>
<ellipse fill="none" stroke="black" cx="172.66" cy="-3847.12" rx="65.79" ry="18"/>
<text text-anchor="start" x="130.16" y="-3843.42" font-family="Times New Roman,serif" font-size="14.00">x series aircraft</text>
</g>
<!-- Entity30&#45;&gt;Entity104 -->
<g id="edge59" class="edge verb">
<title>Entity30&#45;&gt;Entity104</title>
<path fill="none" stroke="black" d="M695.95,-3977.09C588.67,-3950.44 343.71,-3889.6 231.17,-3861.65"/>
<polygon fill="black" stroke="black" points="231.89,-3858.23 221.35,-3859.21 230.21,-3865.02 231.89,-3858.23"/>
<text text-anchor="start" x="422.56" y="-3923.17" font-family="Times New Roman,serif" font-size="14.00">created</text>
</g>
<!-- Entity32 -->
<g id="node16" class="node entity">
<title>Entity32</title>
<ellipse fill="none" stroke="black" cx="322.62" cy="-4224.67" rx="46.29" ry="18"/>
<text text-anchor="start" x="295.12" y="-4220.97" font-family="Times New Roman,serif" font-size="14.00">van braun</text>
</g>
<!-- Entity32&#45;&gt;Entity30 -->
<g id="edge12" class="edge verb">
<title>Entity32&#45;&gt;Entity30</title>
<path fill="none" stroke="black" d="M349.55,-4209.81C422.42,-4169.62 623.67,-4058.61 708.99,-4011.55"/>
<polygon fill="black" stroke="black" points="710.77,-4014.56 717.84,-4006.67 707.39,-4008.44 710.77,-4014.56"/>
<text text-anchor="start" x="466.27" y="-4114.48" font-family="Times New Roman,serif" font-size="14.00">worked for</text>
</g>
<!-- Entity32&#45;&gt;Entity76 -->
<g id="edge48" class="edge verb">
<title>Entity32&#45;&gt;Entity76</title>
<path fill="none" stroke="black" d="M292.84,-4210.78C253.1,-4192.24 182.38,-4159.24 136.14,-4137.67"/>
<polygon fill="black" stroke="black" points="137.5,-4134.44 126.95,-4133.38 134.54,-4140.78 137.5,-4134.44"/>
<text text-anchor="start" x="158.49" y="-4178.02" font-family="Times New Roman,serif" font-size="14.00">worked at</text>
</g>
<!-- Entity29 -->
<g id="node17" class="node entity">
<title>Entity29</title>
<ellipse fill="none" stroke="black" cx="4151.64" cy="-3630.77" rx="37.89" ry="18"/>
<text text-anchor="start" x="4130.64" y="-3627.07" font-family="Times New Roman,serif" font-size="14.00">hunt oil</text>
</g>
<!-- Entity36 -->
<g id="node18" class="node entity">
<title>Entity36</title>
<ellipse fill="none" stroke="black" cx="4206.24" cy="-3522.23" rx="77.99" ry="18"/>
<text text-anchor="start" x="4154.24" y="-3518.53" font-family="Times New Roman,serif" font-size="14.00">dwight eisenhower</text>
</g>
<!-- Entity29&#45;&gt;Entity36 -->
<g id="edge13" class="edge verb">
<title>Entity29&#45;&gt;Entity36</title>
<path fill="none" stroke="black" d="M4160.66,-3612.85C4169.35,-3595.57 4182.62,-3569.18 4192.61,-3549.33"/>
<polygon fill="black" stroke="black" points="4195.84,-3550.69 4197.21,-3540.18 4189.59,-3547.54 4195.84,-3550.69"/>
<text text-anchor="start" x="4136.63" y="-3584.89" font-family="Times New Roman,serif" font-size="14.00">funded</text>
</g>
<!-- Entity36&#45;&gt;Entity66 -->
<g id="edge34" class="edge verb">
<title>Entity36&#45;&gt;Entity66</title>
<path fill="none" stroke="black" d="M4199.6,-3504.07C4167.54,-3416.47 4028.88,-3037.5 3990.19,-2931.74"/>
<polygon fill="black" stroke="black" points="3993.38,-2930.3 3986.66,-2922.11 3986.81,-2932.7 3993.38,-2930.3"/>
<text text-anchor="start" x="4075.89" y="-3221.71" font-family="Times New Roman,serif" font-size="14.00">is a</text>
</g>
<!-- Entity11 -->
<g id="node19" class="node entity">
<title>Entity11</title>
<ellipse fill="none" stroke="black" cx="4462.57" cy="-3068.41" rx="56.59" ry="18"/>
<text text-anchor="start" x="4427.07" y="-3064.71" font-family="Times New Roman,serif" font-size="14.00">harry truman</text>
</g>
<!-- Entity11&#45;&gt;Entity66 -->
<g id="edge14" class="edge verb">
<title>Entity11&#45;&gt;Entity66</title>
<path fill="none" stroke="black" d="M4423.9,-3055.25C4332.83,-3024.26 4105.82,-2947.01 4016.78,-2916.72"/>
<polygon fill="black" stroke="black" points="4017.71,-2913.34 4007.12,-2913.43 4015.46,-2919.96 4017.71,-2913.34"/>
<text text-anchor="start" x="4204.34" y="-2989.78" font-family="Times New Roman,serif" font-size="14.00">isa</text>
</g>
<!-- Entity69 -->
<g id="node24" class="node entity">
<title>Entity69</title>
<ellipse fill="none" stroke="black" cx="4909.33" cy="-3338.66" rx="55.79" ry="18"/>
<text text-anchor="start" x="4874.33" y="-3334.96" font-family="Times New Roman,serif" font-size="14.00">freemasonry</text>
</g>
<!-- Entity11&#45;&gt;Entity69 -->
<g id="edge17" class="edge verb">
<title>Entity11&#45;&gt;Entity69</title>
<path fill="none" stroke="black" d="M4489.18,-3084.5C4565.92,-3130.93 4787.7,-3265.09 4874.2,-3317.41"/>
<polygon fill="black" stroke="black" points="4872.49,-3320.47 4882.86,-3322.65 4876.12,-3314.48 4872.49,-3320.47"/>
<text text-anchor="start" x="4620.69" y="-3204.76" font-family="Times New Roman,serif" font-size="14.00">member of</text>
</g>
<!-- Entity63 -->
<g id="node21" class="node entity">
<title>Entity63</title>
<ellipse fill="none" stroke="black" cx="4401.53" cy="-3876.84" rx="53.89" ry="18"/>
<text text-anchor="start" x="4368.03" y="-3873.14" font-family="Times New Roman,serif" font-size="14.00">edgar casey</text>
</g>
<!-- Entity59 -->
<g id="node22" class="node entity">
<title>Entity59</title>
<ellipse fill="none" stroke="black" cx="4164.75" cy="-3347.66" rx="71.49" ry="18"/>
<text text-anchor="start" x="4117.75" y="-3343.96" font-family="Times New Roman,serif" font-size="14.00">woodrow wilson</text>
</g>
<!-- Entity63&#45;&gt;Entity59 -->
<g id="edge15" class="edge verb">
<title>Entity63&#45;&gt;Entity59</title>
<path fill="none" stroke="black" d="M4393.52,-3858.93C4358.53,-3780.73 4218.99,-3468.9 4176.86,-3374.73"/>
<polygon fill="black" stroke="black" points="4180.04,-3373.27 4172.76,-3365.57 4173.65,-3376.13 4180.04,-3373.27"/>
<text text-anchor="start" x="4243.19" y="-3620.63" font-family="Times New Roman,serif" font-size="14.00">advises</text>
</g>
<!-- Entity59&#45;&gt;Entity66 -->
<g id="edge30" class="edge verb">
<title>Entity59&#45;&gt;Entity66</title>
<path fill="none" stroke="black" d="M4157.28,-3329.73C4128.66,-3260.98 4025.81,-3013.97 3991.42,-2931.37"/>
<polygon fill="black" stroke="black" points="3994.56,-2929.8 3987.48,-2921.91 3988.09,-2932.49 3994.56,-2929.8"/>
<text text-anchor="start" x="4058.35" y="-3134.35" font-family="Times New Roman,serif" font-size="14.00">isa</text>
</g>
<!-- Entity92 -->
<g id="node50" class="node entity">
<title>Entity92</title>
<ellipse fill="none" stroke="black" cx="3765.33" cy="-3455.65" rx="71.49" ry="18"/>
<text text-anchor="start" x="3718.33" y="-3451.95" font-family="Times New Roman,serif" font-size="14.00">leauge of nations</text>
</g>
<!-- Entity59&#45;&gt;Entity92 -->
<g id="edge54" class="edge verb">
<title>Entity59&#45;&gt;Entity92</title>
<path fill="none" stroke="black" d="M4115.77,-3360.91C4042.06,-3380.83 3902.84,-3418.47 3823.87,-3439.82"/>
<polygon fill="black" stroke="black" points="3822.82,-3436.48 3814.08,-3442.47 3824.65,-3443.24 3822.82,-3436.48"/>
<text text-anchor="start" x="3928.82" y="-3404.16" font-family="Times New Roman,serif" font-size="14.00">created</text>
</g>
<!-- Entity18 -->
<g id="node26" class="node entity">
<title>Entity18</title>
<ellipse fill="none" stroke="black" cx="4187.58" cy="-3158.79" rx="35.19" ry="18"/>
<text text-anchor="start" x="4168.58" y="-3155.09" font-family="Times New Roman,serif" font-size="14.00">obama</text>
</g>
<!-- Entity18&#45;&gt;Entity66 -->
<g id="edge21" class="edge verb">
<title>Entity18&#45;&gt;Entity66</title>
<path fill="none" stroke="black" d="M4173.97,-3142.09C4138.27,-3098.29 4041.86,-2979.99 3999.98,-2928.61"/>
<polygon fill="black" stroke="black" points="4002.55,-2926.22 3993.52,-2920.68 3997.12,-2930.64 4002.55,-2926.22"/>
<text text-anchor="start" x="4070.97" y="-3039.15" font-family="Times New Roman,serif" font-size="14.00">isa</text>
</g>
<!-- Entity12 -->
<g id="node27" class="node entity">
<title>Entity12</title>
<ellipse fill="none" stroke="black" cx="3772.91" cy="-3262.56" rx="58.49" ry="18"/>
<text text-anchor="start" x="3735.91" y="-3258.86" font-family="Times New Roman,serif" font-size="14.00">richard nixon</text>
</g>
<!-- Entity12&#45;&gt;Entity66 -->
<g id="edge22" class="edge verb">
<title>Entity12&#45;&gt;Entity66</title>
<path fill="none" stroke="black" d="M3783.19,-3244.79C3816.96,-3186.39 3924.66,-3000.16 3964.83,-2930.7"/>
<polygon fill="black" stroke="black" points="3968.06,-2932.11 3970.03,-2921.7 3962,-2928.6 3968.06,-2932.11"/>
<text text-anchor="start" x="3858.01" y="-3091.54" font-family="Times New Roman,serif" font-size="14.00">isa</text>
</g>
<!-- Entity24 -->
<g id="node29" class="node entity">
<title>Entity24</title>
<ellipse fill="none" stroke="black" cx="2267.46" cy="-2903.11" rx="63.89" ry="18"/>
<text text-anchor="start" x="2226.46" y="-2899.41" font-family="Times New Roman,serif" font-size="14.00">robert bigelow</text>
</g>
<!-- Entity24&#45;&gt;Entity7 -->
<g id="edge25" class="edge verb">
<title>Entity24&#45;&gt;Entity7</title>
<path fill="none" stroke="black" d="M2236.75,-2887.16C2194.65,-2865.29 2118.96,-2825.97 2072.49,-2801.82"/>
<polygon fill="black" stroke="black" points="2074.09,-2798.71 2063.6,-2797.21 2070.86,-2804.92 2074.09,-2798.71"/>
<text text-anchor="start" x="2122.62" y="-2848.29" font-family="Times New Roman,serif" font-size="14.00">funds</text>
</g>
<!-- Entity24&#45;&gt;Entity67 -->
<g id="edge45" class="edge verb">
<title>Entity24&#45;&gt;Entity67</title>
<path fill="none" stroke="black" d="M2311.05,-2916.41C2375.23,-2935.99 2495.2,-2972.59 2566.17,-2994.24"/>
<polygon fill="black" stroke="black" points="2565.26,-2997.62 2575.85,-2997.19 2567.3,-2990.93 2565.26,-2997.62"/>
<text text-anchor="start" x="2374.61" y="-2959.13" font-family="Times New Roman,serif" font-size="14.00">investigates</text>
</g>
<!-- Entity44 -->
<g id="node30" class="node entity">
<title>Entity44</title>
<ellipse fill="none" stroke="black" cx="5226.42" cy="-2518.87" rx="58.49" ry="18"/>
<text text-anchor="start" x="5189.42" y="-2515.17" font-family="Times New Roman,serif" font-size="14.00">steve bannon</text>
</g>
<!-- Entity44&#45;&gt;Entity15 -->
<g id="edge28" class="edge verb">
<title>Entity44&#45;&gt;Entity15</title>
<path fill="none" stroke="black" d="M5170.59,-2524.51C5031.83,-2543.9 4672.45,-2604.59 4532.55,-2632.23"/>
<polygon fill="black" stroke="black" points="4531.59,-2628.85 4522.47,-2634.24 4532.96,-2635.71 4531.59,-2628.85"/>
<text text-anchor="start" x="4796.57" y="-2582.17" font-family="Times New Roman,serif" font-size="14.00">promoted</text>
</g>
<!-- Entity44&#45;&gt;Entity15 -->
<g id="edge64" class="edge verb">
<title>Entity44&#45;&gt;Entity15</title>
<path fill="none" stroke="black" d="M5180.59,-2530.13C5052.85,-2555.95 4692.29,-2617.05 4542.34,-2638.52"/>
<polygon fill="black" stroke="black" points="4541.75,-2635.07 4532.34,-2639.94 4542.73,-2642 4541.75,-2635.07"/>
<text text-anchor="start" x="4861.47" y="-2588.13" font-family="Times New Roman,serif" font-size="14.00">advises</text>
</g>
<!-- Entity83 -->
<g id="node40" class="node entity">
<title>Entity83</title>
<ellipse fill="none" stroke="black" cx="5374.32" cy="-2007.61" rx="61.99" ry="18"/>
<text text-anchor="start" x="5334.82" y="-2003.91" font-family="Times New Roman,serif" font-size="14.00">breitbart news</text>
</g>
<!-- Entity44&#45;&gt;Entity83 -->
<g id="edge46" class="edge verb">
<title>Entity44&#45;&gt;Entity83</title>
<path fill="none" stroke="black" d="M5231.68,-2500.68C5253.83,-2424.11 5339.54,-2127.83 5366.3,-2035.34"/>
<polygon fill="black" stroke="black" points="5369.7,-2036.16 5369.12,-2025.58 5362.98,-2034.22 5369.7,-2036.16"/>
<text text-anchor="start" x="5257.99" y="-2271.81" font-family="Times New Roman,serif" font-size="14.00">created</text>
</g>
<!-- Entity89 -->
<g id="node49" class="node entity">
<title>Entity89</title>
<ellipse fill="none" stroke="black" cx="5570.51" cy="-2799.32" rx="35.19" ry="18"/>
<text text-anchor="start" x="5551.51" y="-2795.62" font-family="Times New Roman,serif" font-size="14.00">gurgev</text>
</g>
<!-- Entity44&#45;&gt;Entity89 -->
<g id="edge53" class="edge verb">
<title>Entity44&#45;&gt;Entity89</title>
<path fill="none" stroke="black" d="M5247.17,-2535.78C5306.52,-2584.16 5477.02,-2723.12 5543.5,-2777.31"/>
<polygon fill="black" stroke="black" points="5541.48,-2780.18 5551.45,-2783.78 5545.91,-2774.75 5541.48,-2780.18"/>
<text text-anchor="start" x="5354.33" y="-2660.35" font-family="Times New Roman,serif" font-size="14.00">studied</text>
</g>
<!-- Entity91 -->
<g id="node51" class="node entity">
<title>Entity91</title>
<ellipse fill="none" stroke="black" cx="5577.24" cy="-2236.49" rx="38.19" ry="18"/>
<text text-anchor="start" x="5555.74" y="-2232.79" font-family="Times New Roman,serif" font-size="14.00">us navy</text>
</g>
<!-- Entity44&#45;&gt;Entity91 -->
<g id="edge55" class="edge verb">
<title>Entity44&#45;&gt;Entity91</title>
<path fill="none" stroke="black" d="M5247.31,-2502.05C5307.57,-2453.55 5481.72,-2313.37 5549.65,-2258.7"/>
<polygon fill="black" stroke="black" points="5552.17,-2261.16 5557.76,-2252.17 5547.78,-2255.71 5552.17,-2261.16"/>
<text text-anchor="start" x="5337.48" y="-2384.18" font-family="Times New Roman,serif" font-size="14.00">member of</text>
</g>
<!-- Entity94 -->
<g id="node53" class="node entity">
<title>Entity94</title>
<ellipse fill="none" stroke="black" cx="5719.15" cy="-2677.68" rx="53.09" ry="18"/>
<text text-anchor="start" x="5686.15" y="-2673.98" font-family="Times New Roman,serif" font-size="14.00">biosphere 2</text>
</g>
<!-- Entity44&#45;&gt;Entity94 -->
<g id="edge57" class="edge verb">
<title>Entity44&#45;&gt;Entity94</title>
<path fill="none" stroke="black" d="M5267.16,-2532C5357.44,-2561.1 5573.98,-2630.89 5670.87,-2662.11"/>
<polygon fill="black" stroke="black" points="5669.82,-2665.46 5680.41,-2665.19 5671.97,-2658.79 5669.82,-2665.46"/>
<text text-anchor="start" x="5428.01" y="-2600.86" font-family="Times New Roman,serif" font-size="14.00">created</text>
</g>
<!-- Entity107 -->
<g id="node58" class="node entity">
<title>Entity107</title>
<ellipse fill="none" stroke="black" cx="5847.69" cy="-2531.71" rx="77.19" ry="18"/>
<text text-anchor="start" x="5796.19" y="-2528.01" font-family="Times New Roman,serif" font-size="14.00">hollywood movies</text>
</g>
<!-- Entity44&#45;&gt;Entity107 -->
<g id="edge61" class="edge verb">
<title>Entity44&#45;&gt;Entity107</title>
<path fill="none" stroke="black" d="M5284.86,-2520.08C5394.49,-2522.35 5631.49,-2527.24 5760.21,-2529.9"/>
<polygon fill="black" stroke="black" points="5760.36,-2533.41 5770.43,-2530.12 5760.5,-2526.41 5760.36,-2533.41"/>
<text text-anchor="start" x="5467.54" y="-2528.79" font-family="Times New Roman,serif" font-size="14.00">produced</text>
</g>
<!-- Entity111 -->
<g id="node59" class="node entity">
<title>Entity111</title>
<ellipse fill="none" stroke="black" cx="5772.48" cy="-2344.46" rx="64.99" ry="18"/>
<text text-anchor="start" x="5730.48" y="-2340.76" font-family="Times New Roman,serif" font-size="14.00">goldman sachs</text>
</g>
<!-- Entity44&#45;&gt;Entity111 -->
<g id="edge66" class="edge verb">
<title>Entity44&#45;&gt;Entity111</title>
<path fill="none" stroke="black" d="M5267.01,-2505.91C5364.45,-2474.78 5611.47,-2395.88 5719.99,-2361.22"/>
<polygon fill="black" stroke="black" points="5721.27,-2364.48 5729.73,-2358.11 5719.14,-2357.82 5721.27,-2364.48"/>
<text text-anchor="start" x="5430.5" y="-2437.36" font-family="Times New Roman,serif" font-size="14.00">worked for</text>
</g>
<!-- Entity33 -->
<g id="node32" class="node entity">
<title>Entity33</title>
<ellipse fill="none" stroke="black" cx="836.86" cy="-3881.83" rx="57.69" ry="18"/>
<text text-anchor="start" x="800.36" y="-3878.13" font-family="Times New Roman,serif" font-size="14.00">michael pane</text>
</g>
<!-- Entity33&#45;&gt;Entity30 -->
<g id="edge47" class="edge verb">
<title>Entity33&#45;&gt;Entity30</title>
<path fill="none" stroke="black" d="M822.19,-3899.69C807.72,-3917.31 785.46,-3944.42 769.1,-3964.35"/>
<polygon fill="black" stroke="black" points="766.35,-3962.18 762.71,-3972.13 771.76,-3966.62 766.35,-3962.18"/>
<text text-anchor="start" x="732.65" y="-3935.82" font-family="Times New Roman,serif" font-size="14.00">worked for</text>
</g>
<!-- Entity33&#45;&gt;Entity72 -->
<g id="edge31" class="edge verb">
<title>Entity33&#45;&gt;Entity72</title>
<path fill="none" stroke="black" d="M862.9,-3865.52C937.32,-3818.92 1150.92,-3685.16 1234.53,-3632.8"/>
<polygon fill="black" stroke="black" points="1236.52,-3635.69 1243.14,-3627.41 1232.81,-3629.75 1236.52,-3635.69"/>
<text text-anchor="start" x="992.71" y="-3752.96" font-family="Times New Roman,serif" font-size="14.00">worked at</text>
</g>
<!-- Entity45 -->
<g id="node33" class="node entity">
<title>Entity45</title>
<ellipse fill="none" stroke="black" cx="3864.47" cy="-2253.94" rx="67.69" ry="18"/>
<text text-anchor="start" x="3820.47" y="-2250.24" font-family="Times New Roman,serif" font-size="14.00">abraham lincoln</text>
</g>
<!-- Entity45&#45;&gt;Entity66 -->
<g id="edge32" class="edge verb">
<title>Entity45&#45;&gt;Entity66</title>
<path fill="none" stroke="black" d="M3867.69,-2272.01C3883.77,-2362.44 3955.51,-2765.82 3975.14,-2876.23"/>
<polygon fill="black" stroke="black" points="3971.73,-2877.03 3976.93,-2886.26 3978.62,-2875.8 3971.73,-2877.03"/>
<text text-anchor="start" x="3905.42" y="-2577.92" font-family="Times New Roman,serif" font-size="14.00">isa</text>
</g>
<!-- Entity38 -->
<g id="node34" class="node entity">
<title>Entity38</title>
<ellipse fill="none" stroke="black" cx="3649.6" cy="-1436.72" rx="90.98" ry="18"/>
<text text-anchor="start" x="3587.6" y="-1433.02" font-family="Times New Roman,serif" font-size="14.00">emma hardinge&#45;britten</text>
</g>
<!-- Entity38&#45;&gt;Entity45 -->
<g id="edge33" class="edge verb">
<title>Entity38&#45;&gt;Entity45</title>
<path fill="none" stroke="black" d="M3654.38,-1454.93C3682.21,-1560.76 3823.03,-2096.3 3857.06,-2225.74"/>
<polygon fill="black" stroke="black" points="3853.75,-2226.9 3859.67,-2235.68 3860.52,-2225.12 3853.75,-2226.9"/>
<text text-anchor="start" x="3656.72" y="-1844.14" font-family="Times New Roman,serif" font-size="14.00">spokesperson for</text>
</g>
<!-- Entity79 -->
<g id="node38" class="node entity">
<title>Entity79</title>
<ellipse fill="none" stroke="black" cx="3871.72" cy="-916.25" rx="39.79" ry="18"/>
<text text-anchor="start" x="3849.22" y="-912.55" font-family="Times New Roman,serif" font-size="14.00">medium</text>
</g>
<!-- Entity38&#45;&gt;Entity79 -->
<g id="edge38" class="edge verb">
<title>Entity38&#45;&gt;Entity79</title>
<path fill="none" stroke="black" d="M3657.37,-1418.5C3690.56,-1340.73 3820.48,-1036.3 3860.15,-943.35"/>
<polygon fill="black" stroke="black" points="3863.41,-944.62 3864.12,-934.05 3856.98,-941.87 3863.41,-944.62"/>
<text text-anchor="start" x="3742.76" y="-1184.72" font-family="Times New Roman,serif" font-size="14.00">isa</text>
</g>
<!-- Entity86 -->
<g id="node48" class="node entity">
<title>Entity86</title>
<ellipse fill="none" stroke="black" cx="3493.58" cy="-673.13" rx="85.29" ry="18"/>
<text text-anchor="start" x="3436.08" y="-669.43" font-family="Times New Roman,serif" font-size="14.00">theosophical society</text>
</g>
<!-- Entity38&#45;&gt;Entity86 -->
<g id="edge65" class="edge verb">
<title>Entity38&#45;&gt;Entity86</title>
<path fill="none" stroke="black" d="M3645.89,-1418.59C3625.27,-1317.65 3524.57,-824.82 3499.33,-701.27"/>
<polygon fill="black" stroke="black" points="3502.75,-700.52 3497.32,-691.42 3495.89,-701.92 3502.75,-700.52"/>
<text text-anchor="start" x="3531.61" y="-1063.73" font-family="Times New Roman,serif" font-size="14.00">created</text>
</g>
<!-- Entity99 -->
<g id="node54" class="node entity">
<title>Entity99</title>
<ellipse fill="none" stroke="black" cx="3545.4" cy="-1328.7" rx="55.79" ry="18"/>
<text text-anchor="start" x="3510.4" y="-1325" font-family="Times New Roman,serif" font-size="14.00">orphic circle</text>
</g>
<!-- Entity38&#45;&gt;Entity99 -->
<g id="edge58" class="edge verb">
<title>Entity38&#45;&gt;Entity99</title>
<path fill="none" stroke="black" d="M3632.39,-1418.88C3615.17,-1401.03 3588.53,-1373.42 3569.27,-1353.45"/>
<polygon fill="black" stroke="black" points="3571.75,-1350.98 3562.29,-1346.21 3566.71,-1355.83 3571.75,-1350.98"/>
<text text-anchor="start" x="3539.83" y="-1389.96" font-family="Times New Roman,serif" font-size="14.00">member of</text>
</g>
<!-- Entity42 -->
<g id="node36" class="node entity">
<title>Entity42</title>
<ellipse fill="none" stroke="black" cx="3386.94" cy="-3350.66" rx="53.89" ry="18"/>
<text text-anchor="start" x="3353.44" y="-3346.96" font-family="Times New Roman,serif" font-size="14.00">black magic</text>
</g>
<!-- Entity81 -->
<g id="node37" class="node entity">
<title>Entity81</title>
<ellipse fill="none" stroke="black" cx="3474.66" cy="-3462.64" rx="28.7" ry="18"/>
<text text-anchor="start" x="3460.66" y="-3458.94" font-family="Times New Roman,serif" font-size="14.00">x left</text>
</g>
<!-- Entity42&#45;&gt;Entity81 -->
<g id="edge37" class="edge verb">
<title>Entity42&#45;&gt;Entity81</title>
<path fill="none" stroke="black" d="M3400.64,-3368.16C3415.45,-3387.05 3439.14,-3417.29 3455.72,-3438.45"/>
<polygon fill="black" stroke="black" points="3452.98,-3440.64 3461.9,-3446.36 3458.49,-3436.32 3452.98,-3440.64"/>
<text text-anchor="start" x="3367.18" y="-3407.11" font-family="Times New Roman,serif" font-size="14.00">member of</text>
</g>
<!-- Entity47 -->
<g id="node39" class="node entity">
<title>Entity47</title>
<ellipse fill="none" stroke="black" cx="5421.34" cy="-1899.64" rx="69.59" ry="18"/>
<text text-anchor="start" x="5375.84" y="-1895.94" font-family="Times New Roman,serif" font-size="14.00">andrew breitbart</text>
</g>
<!-- Entity47&#45;&gt;Entity83 -->
<g id="edge39" class="edge verb">
<title>Entity47&#45;&gt;Entity83</title>
<path fill="none" stroke="black" d="M5413.36,-1917.96C5405.92,-1935.04 5394.72,-1960.76 5386.22,-1980.27"/>
<polygon fill="black" stroke="black" points="5382.96,-1979 5382.18,-1989.56 5389.38,-1981.79 5382.96,-1979"/>
<text text-anchor="start" x="5358.79" y="-1952.91" font-family="Times New Roman,serif" font-size="14.00">created</text>
</g>
<!-- Entity35 -->
<g id="node42" class="node entity">
<title>Entity35</title>
<ellipse fill="none" stroke="black" cx="3069.94" cy="-2441.66" rx="39.79" ry="18"/>
<text text-anchor="start" x="3047.44" y="-2437.96" font-family="Times New Roman,serif" font-size="14.00">crowley</text>
</g>
<!-- Entity80 -->
<g id="node43" class="node entity">
<title>Entity80</title>
<ellipse fill="none" stroke="black" cx="3157.66" cy="-2553.64" rx="38.99" ry="18"/>
<text text-anchor="start" x="3135.66" y="-2549.94" font-family="Times New Roman,serif" font-size="14.00">x magic</text>
</g>
<!-- Entity35&#45;&gt;Entity80 -->
<g id="edge41" class="edge verb">
<title>Entity35&#45;&gt;Entity80</title>
<path fill="none" stroke="black" d="M3083.26,-2458.67C3097.82,-2477.25 3121.28,-2507.2 3137.96,-2528.49"/>
<polygon fill="black" stroke="black" points="3135.29,-2530.76 3144.21,-2536.47 3140.8,-2526.44 3135.29,-2530.76"/>
<text text-anchor="start" x="3049.61" y="-2497.38" font-family="Times New Roman,serif" font-size="14.00">member of</text>
</g>
<!-- Entity19 -->
<g id="node44" class="node entity">
<title>Entity19</title>
<ellipse fill="none" stroke="black" cx="3896.17" cy="-2750.01" rx="31.4" ry="18"/>
<text text-anchor="start" x="3880.17" y="-2746.31" font-family="Times New Roman,serif" font-size="14.00">carter</text>
</g>
<!-- Entity19&#45;&gt;Entity66 -->
<g id="edge44" class="edge verb">
<title>Entity19&#45;&gt;Entity66</title>
<path fill="none" stroke="black" d="M3905.64,-2767.4C3920.25,-2794.25 3948.41,-2845.97 3965.6,-2877.57"/>
<polygon fill="black" stroke="black" points="3962.71,-2879.57 3970.56,-2886.68 3968.86,-2876.22 3962.71,-2879.57"/>
<text text-anchor="start" x="3919.62" y="-2826.28" font-family="Times New Roman,serif" font-size="14.00">isa</text>
</g>
<!-- Entity19&#45;&gt;Entity90 -->
<g id="edge56" class="edge verb">
<title>Entity19&#45;&gt;Entity90</title>
<path fill="none" stroke="black" d="M3869.56,-2740.58C3806.73,-2718.31 3649.23,-2662.48 3579.77,-2637.86"/>
<polygon fill="black" stroke="black" points="3580.78,-2634.51 3570.18,-2634.47 3578.44,-2641.11 3580.78,-2634.51"/>
<text text-anchor="start" x="3669.67" y="-2693.02" font-family="Times New Roman,serif" font-size="14.00">witnessed</text>
</g>
<!-- Entity27 -->
<g id="node45" class="node entity">
<title>Entity27</title>
<ellipse fill="none" stroke="black" cx="911.96" cy="-5510.71" rx="75.29" ry="18"/>
<text text-anchor="start" x="861.96" y="-5507.01" font-family="Times New Roman,serif" font-size="14.00">lee harvey oswald</text>
</g>
<!-- Entity34 -->
<g id="node46" class="node entity">
<title>Entity34</title>
<ellipse fill="none" stroke="black" cx="849.46" cy="-5402.79" rx="59.29" ry="18"/>
<text text-anchor="start" x="811.96" y="-5399.09" font-family="Times New Roman,serif" font-size="14.00">guy bannister</text>
</g>
<!-- Entity27&#45;&gt;Entity34 -->
<g id="edge50" class="edge verb">
<title>Entity27&#45;&gt;Entity34</title>
<path fill="none" stroke="black" d="M901.36,-5492.41C891.37,-5475.17 876.3,-5449.15 864.97,-5429.58"/>
<polygon fill="black" stroke="black" points="867.94,-5427.73 859.9,-5420.83 861.89,-5431.23 867.94,-5427.73"/>
<text text-anchor="start" x="820.16" y="-5464.79" font-family="Times New Roman,serif" font-size="14.00">worked for</text>
</g>
<!-- Entity34&#45;&gt;Entity75 -->
<g id="edge51" class="edge verb">
<title>Entity34&#45;&gt;Entity75</title>
<path fill="none" stroke="black" d="M839.49,-5384.87C802.89,-5319.13 675.83,-5090.86 632.22,-5012.52"/>
<polygon fill="black" stroke="black" points="635.25,-5010.76 627.33,-5003.73 629.14,-5014.17 635.25,-5010.76"/>
<text text-anchor="start" x="674.85" y="-5202.5" font-family="Times New Roman,serif" font-size="14.00">member of</text>
</g>
<!-- Entity64 -->
<g id="node47" class="node entity">
<title>Entity64</title>
<ellipse fill="none" stroke="black" cx="3524.94" cy="-17.77" rx="73.39" ry="18"/>
<text text-anchor="start" x="3476.44" y="-14.07" font-family="Times New Roman,serif" font-size="14.00">madam blavatsky</text>
</g>
<!-- Entity64&#45;&gt;Entity86 -->
<g id="edge52" class="edge verb">
<title>Entity64&#45;&gt;Entity86</title>
<path fill="none" stroke="black" d="M3524.07,-35.98C3519.71,-127.11 3500.25,-533.63 3494.93,-644.9"/>
<polygon fill="black" stroke="black" points="3491.43,-644.85 3494.45,-655.01 3498.42,-645.18 3491.43,-644.85"/>
<text text-anchor="start" x="3468.5" y="-344.24" font-family="Times New Roman,serif" font-size="14.00">created</text>
</g>
<!-- Entity60 -->
<g id="node56" class="node entity">
<title>Entity60</title>
<ellipse fill="none" stroke="black" cx="2955.91" cy="-810.13" rx="58.49" ry="18"/>
<text text-anchor="start" x="2918.91" y="-806.43" font-family="Times New Roman,serif" font-size="14.00">rudolf steiner</text>
</g>
<!-- Entity60&#45;&gt;Entity86 -->
<g id="edge63" class="edge verb">
<title>Entity60&#45;&gt;Entity86</title>
<path fill="none" stroke="black" d="M3001.29,-798.56C3096.79,-774.23 3318.79,-717.66 3429.05,-689.57"/>
<polygon fill="black" stroke="black" points="3430.22,-692.89 3439.05,-687.02 3428.49,-686.1 3430.22,-692.89"/>
<text text-anchor="start" x="3149.17" y="-747.87" font-family="Times New Roman,serif" font-size="14.00">memberr of</text>
</g>
<!-- Entity93 -->
<g id="node57" class="node entity">
<title>Entity93</title>
<ellipse fill="none" stroke="black" cx="2737.45" cy="-702.12" rx="102.08" ry="18"/>
<text text-anchor="start" x="2666.95" y="-698.42" font-family="Times New Roman,serif" font-size="14.00">anthroposophical society</text>
</g>
<!-- Entity60&#45;&gt;Entity93 -->
<g id="edge60" class="edge verb">
<title>Entity60&#45;&gt;Entity93</title>
<path fill="none" stroke="black" d="M2924.61,-794.65C2886.91,-776.01 2823.36,-744.6 2780.92,-723.62"/>
<polygon fill="black" stroke="black" points="2782.45,-720.47 2771.93,-719.17 2779.34,-726.74 2782.45,-720.47"/>
<text text-anchor="start" x="2811.76" y="-762.93" font-family="Times New Roman,serif" font-size="14.00">created</text>
</g>
<!-- Entity109 -->
<g id="node60" class="node entity">
<title>Entity109</title>
<ellipse fill="none" stroke="black" cx="2450.94" cy="-2441.66" rx="27" ry="18"/>
<text text-anchor="start" x="2447.44" y="-2437.96" font-family="Times New Roman,serif" font-size="14.00">s</text>
</g>
<!-- Entity112 -->
<g id="node61" class="node entity">
<title>Entity112</title>
<ellipse fill="none" stroke="black" cx="2538.66" cy="-2553.64" rx="27" ry="18"/>
<text text-anchor="start" x="2534.66" y="-2549.94" font-family="Times New Roman,serif" font-size="14.00">o</text>
</g>
<!-- Entity109&#45;&gt;Entity112 -->
<g id="edge67" class="edge verb">
<title>Entity109&#45;&gt;Entity112</title>
<path fill="none" stroke="black" d="M2463.51,-2457.7C2478.23,-2476.5 2502.76,-2507.82 2519.78,-2529.53"/>
<polygon fill="black" stroke="black" points="2517.19,-2531.91 2526.11,-2537.62 2522.7,-2527.59 2517.19,-2531.91"/>
<text text-anchor="start" x="2484.64" y="-2497.42" font-family="Times New Roman,serif" font-size="14.00">v</text>
</g>
</g>
</svg>
