<?xml version="1.0" encoding="UTF-8" standalone="no"?>
<?xml-stylesheet href="./styles.css" type="text/css"?>
<!DOCTYPE svg PUBLIC "-//W3C//DTD SVG 1.1//EN"
 "http://www.w3.org/Graphics/SVG/1.1/DTD/svg11.dtd">
<!-- Generated by graphviz version 2.47.3 (20210619.1520)
 -->
<!-- Title: G Pages: 1 -->
<svg width="7417pt" height="3511pt"
 viewBox="0.00 0.00 7417.00 3511.00" xmlns="http://www.w3.org/2000/svg" xmlns:xlink="http://www.w3.org/1999/xlink">
<g id="graph0" class="graph" transform="scale(1 1) rotate(0) translate(4 3507)">
<title>G</title>
<polygon fill="white" stroke="transparent" points="-4,4 -4,-3507 7413,-3507 7413,4 -4,4"/>
<!-- Entity3 -->
<g id="node1" class="node entity">
<title>Entity3</title>
<ellipse fill="none" stroke="black" cx="5132.84" cy="-1886.36" rx="27" ry="18"/>
<text text-anchor="start" x="5125.34" y="-1882.66" font-family="Times New Roman,serif" font-size="14.00">jfk</text>
</g>
<!-- Entity22 -->
<g id="node2" class="node entity">
<title>Entity22</title>
<ellipse fill="none" stroke="black" cx="4774.7" cy="-1778.91" rx="27" ry="18"/>
<text text-anchor="start" x="4766.7" y="-1775.21" font-family="Times New Roman,serif" font-size="14.00">cia</text>
</g>
<!-- Entity3&#45;&gt;Entity22 -->
<g id="edge1" class="edge verb">
<title>Entity3&#45;&gt;Entity22</title>
<path fill="none" stroke="black" d="M5107.94,-1878.89C5045.35,-1860.11 4881.3,-1810.89 4809.36,-1789.31"/>
<polygon fill="black" stroke="black" points="4810.02,-1785.85 4799.44,-1786.33 4808.01,-1792.56 4810.02,-1785.85"/>
<text text-anchor="start" x="4854.65" y="-1837.9" font-family="Times New Roman,serif" font-size="14.00">heads (1961&#45;1963)</text>
</g>
<!-- Entity66 -->
<g id="node20" class="node entity">
<title>Entity66</title>
<ellipse fill="none" stroke="black" cx="5442.99" cy="-1951.21" rx="31.4" ry="18"/>
<text text-anchor="start" x="5426.99" y="-1947.51" font-family="Times New Roman,serif" font-size="14.00">potus</text>
</g>
<!-- Entity3&#45;&gt;Entity66 -->
<g id="edge23" class="edge verb">
<title>Entity3&#45;&gt;Entity66</title>
<path fill="none" stroke="black" d="M5158.75,-1891.78C5213.06,-1903.13 5339.12,-1929.49 5403.54,-1942.96"/>
<polygon fill="black" stroke="black" points="5402.83,-1946.38 5413.33,-1945.01 5404.26,-1939.53 5402.83,-1946.38"/>
<text text-anchor="start" x="5194.15" y="-1921.17" font-family="Times New Roman,serif" font-size="14.00">isa (1961&#45;1963)</text>
</g>
<!-- Entity67 -->
<g id="node25" class="node entity">
<title>Entity67</title>
<ellipse fill="none" stroke="black" cx="4052.89" cy="-1850.53" rx="77.19" ry="18"/>
<text text-anchor="start" x="4001.39" y="-1846.83" font-family="Times New Roman,serif" font-size="14.00">psi&#45;consciousness</text>
</g>
<!-- Entity22&#45;&gt;Entity67 -->
<g id="edge43" class="edge verb">
<title>Entity22&#45;&gt;Entity67</title>
<path fill="none" stroke="black" d="M4747.73,-1781.59C4647.74,-1791.51 4295.79,-1826.43 4134.61,-1842.42"/>
<polygon fill="black" stroke="black" points="4133.88,-1838.98 4124.27,-1843.45 4134.57,-1845.94 4133.88,-1838.98"/>
<text text-anchor="start" x="4377.17" y="-1815.8" font-family="Times New Roman,serif" font-size="14.00">investigates</text>
</g>
<!-- Entity90 -->
<g id="node52" class="node entity">
<title>Entity90</title>
<ellipse fill="none" stroke="black" cx="5047.84" cy="-1737.22" rx="27" ry="18"/>
<text text-anchor="start" x="5038.34" y="-1733.52" font-family="Times New Roman,serif" font-size="14.00">ufo</text>
</g>
<!-- Entity22&#45;&gt;Entity90 -->
<g id="edge62" class="edge verb">
<title>Entity22&#45;&gt;Entity90</title>
<path fill="none" stroke="black" d="M4801.39,-1774.84C4850.57,-1767.33 4955.57,-1751.31 5011.32,-1742.8"/>
<polygon fill="black" stroke="black" points="5012.09,-1746.22 5021.45,-1741.25 5011.04,-1739.3 5012.09,-1746.22"/>
<text text-anchor="start" x="4842.35" y="-1762.62" font-family="Times New Roman,serif" font-size="14.00">investigates</text>
</g>
<!-- Entity14 -->
<g id="node3" class="node entity">
<title>Entity14</title>
<ellipse fill="none" stroke="black" cx="2754.55" cy="-1055.83" rx="74.99" ry="18"/>
<text text-anchor="start" x="2705.05" y="-1052.13" font-family="Times New Roman,serif" font-size="14.00">gene roddenberry</text>
</g>
<!-- Entity8 -->
<g id="node4" class="node entity">
<title>Entity8</title>
<ellipse fill="none" stroke="black" cx="3104.44" cy="-1435.87" rx="38.19" ry="18"/>
<text text-anchor="start" x="3082.94" y="-1432.17" font-family="Times New Roman,serif" font-size="14.00">the nine</text>
</g>
<!-- Entity14&#45;&gt;Entity8 -->
<g id="edge2" class="edge verb">
<title>Entity14&#45;&gt;Entity8</title>
<path fill="none" stroke="black" d="M2770.96,-1073.65C2827.81,-1135.4 3016.46,-1340.31 3081.87,-1411.36"/>
<polygon fill="black" stroke="black" points="3079.52,-1413.97 3088.87,-1418.96 3084.67,-1409.23 3079.52,-1413.97"/>
<text text-anchor="start" x="2822.41" y="-1246.3" font-family="Times New Roman,serif" font-size="14.00">claiemd to channel</text>
</g>
<!-- Entity70 -->
<g id="node23" class="node entity">
<title>Entity70</title>
<ellipse fill="none" stroke="black" cx="3104" cy="-1327.78" rx="94.48" ry="18"/>
<text text-anchor="start" x="3039.5" y="-1324.08" font-family="Times New Roman,serif" font-size="14.00">egyptian gods in a ship</text>
</g>
<!-- Entity8&#45;&gt;Entity70 -->
<g id="edge16" class="edge verb">
<title>Entity8&#45;&gt;Entity70</title>
<path fill="none" stroke="black" d="M3104.36,-1417.53C3104.3,-1400.66 3104.19,-1375.39 3104.12,-1355.95"/>
<polygon fill="black" stroke="black" points="3107.62,-1355.83 3104.08,-1345.85 3100.62,-1355.86 3107.62,-1355.83"/>
<text text-anchor="start" x="3000.24" y="-1390.54" font-family="Times New Roman,serif" font-size="14.00">claimed to channel</text>
</g>
<!-- Entity16 -->
<g id="node5" class="node entity">
<title>Entity16</title>
<ellipse fill="none" stroke="black" cx="4762.7" cy="-1886.98" rx="68.49" ry="18"/>
<text text-anchor="start" x="4718.2" y="-1883.28" font-family="Times New Roman,serif" font-size="14.00">george hw bush</text>
</g>
<!-- Entity20 -->
<g id="node6" class="node entity">
<title>Entity20</title>
<ellipse fill="none" stroke="black" cx="4936.32" cy="-1994.9" rx="63.89" ry="18"/>
<text text-anchor="start" x="4895.32" y="-1991.2" font-family="Times New Roman,serif" font-size="14.00">george w bush</text>
</g>
<!-- Entity16&#45;&gt;Entity20 -->
<g id="edge3" class="edge verb">
<title>Entity16&#45;&gt;Entity20</title>
<path fill="none" stroke="black" d="M4789.45,-1903.61C4819.36,-1922.2 4867.93,-1952.39 4900.95,-1972.92"/>
<polygon fill="black" stroke="black" points="4899.49,-1976.13 4909.83,-1978.43 4903.18,-1970.18 4899.49,-1976.13"/>
<text text-anchor="start" x="4813.2" y="-1942.06" font-family="Times New Roman,serif" font-size="14.00">father</text>
</g>
<!-- Entity16&#45;&gt;Entity66 -->
<g id="edge20" class="edge verb">
<title>Entity16&#45;&gt;Entity66</title>
<path fill="none" stroke="black" d="M4827.01,-1893.05C4965.28,-1906.1 5287.58,-1936.53 5401.88,-1947.33"/>
<polygon fill="black" stroke="black" points="5401.69,-1950.82 5411.97,-1948.28 5402.34,-1943.85 5401.69,-1950.82"/>
<text text-anchor="start" x="5098.45" y="-1923.99" font-family="Times New Roman,serif" font-size="14.00">isa</text>
</g>
<!-- Entity20&#45;&gt;Entity66 -->
<g id="edge42" class="edge verb">
<title>Entity20&#45;&gt;Entity66</title>
<path fill="none" stroke="black" d="M4997.44,-1989.63C5102.13,-1980.6 5313.05,-1962.41 5401.97,-1954.74"/>
<polygon fill="black" stroke="black" points="5402.28,-1958.23 5411.94,-1953.88 5401.68,-1951.26 5402.28,-1958.23"/>
<text text-anchor="start" x="5183.7" y="-1975.99" font-family="Times New Roman,serif" font-size="14.00">isa</text>
</g>
<!-- Entity2 -->
<g id="node7" class="node entity">
<title>Entity2</title>
<ellipse fill="none" stroke="black" cx="2875.73" cy="-1594.55" rx="41.69" ry="18"/>
<text text-anchor="start" x="2851.73" y="-1590.85" font-family="Times New Roman,serif" font-size="14.00">uri geller</text>
</g>
<!-- Entity2&#45;&gt;Entity8 -->
<g id="edge4" class="edge verb">
<title>Entity2&#45;&gt;Entity8</title>
<path fill="none" stroke="black" d="M2898.07,-1579.05C2939.36,-1550.4 3027.63,-1489.16 3074.21,-1456.84"/>
<polygon fill="black" stroke="black" points="3076.45,-1459.55 3082.67,-1450.97 3072.46,-1453.8 3076.45,-1459.55"/>
<text text-anchor="start" x="2882.14" y="-1521.74" font-family="Times New Roman,serif" font-size="14.00">claiemd to channel</text>
</g>
<!-- Entity26 -->
<g id="node8" class="node entity">
<title>Entity26</title>
<ellipse fill="none" stroke="black" cx="862.33" cy="-2796.02" rx="49.29" ry="18"/>
<text text-anchor="start" x="832.33" y="-2792.32" font-family="Times New Roman,serif" font-size="14.00">adolf hitler</text>
</g>
<!-- Entity28 -->
<g id="node9" class="node entity">
<title>Entity28</title>
<ellipse fill="none" stroke="black" cx="1260.57" cy="-2806.49" rx="32.49" ry="18"/>
<text text-anchor="start" x="1243.57" y="-2802.79" font-family="Times New Roman,serif" font-size="14.00">nsdap</text>
</g>
<!-- Entity26&#45;&gt;Entity28 -->
<g id="edge5" class="edge verb">
<title>Entity26&#45;&gt;Entity28</title>
<path fill="none" stroke="black" d="M911.97,-2797.33C990.76,-2799.4 1143.16,-2803.41 1217.58,-2805.36"/>
<polygon fill="black" stroke="black" points="1217.89,-2808.87 1227.98,-2805.64 1218.07,-2801.87 1217.89,-2808.87"/>
<text text-anchor="start" x="1023.77" y="-2805.14" font-family="Times New Roman,serif" font-size="14.00">created</text>
</g>
<!-- Entity75 -->
<g id="node31" class="node entity">
<title>Entity75</title>
<ellipse fill="none" stroke="black" cx="874.07" cy="-3047.36" rx="38.99" ry="18"/>
<text text-anchor="start" x="852.07" y="-3043.66" font-family="Times New Roman,serif" font-size="14.00">far right</text>
</g>
<!-- Entity28&#45;&gt;Entity75 -->
<g id="edge29" class="edge verb">
<title>Entity28&#45;&gt;Entity75</title>
<path fill="none" stroke="black" d="M1238.96,-2819.96C1174.5,-2860.13 983.25,-2979.32 906.49,-3027.16"/>
<polygon fill="black" stroke="black" points="904.34,-3024.37 897.71,-3032.63 908.05,-3030.31 904.34,-3024.37"/>
<text text-anchor="start" x="1011.72" y="-2927.36" font-family="Times New Roman,serif" font-size="14.00">member of</text>
</g>
<!-- Entity15 -->
<g id="node10" class="node entity">
<title>Entity15</title>
<ellipse fill="none" stroke="black" cx="5998.12" cy="-1706.69" rx="59.59" ry="18"/>
<text text-anchor="start" x="5960.12" y="-1702.99" font-family="Times New Roman,serif" font-size="14.00">donald trump</text>
</g>
<!-- Entity48 -->
<g id="node11" class="node entity">
<title>Entity48</title>
<ellipse fill="none" stroke="black" cx="5345.69" cy="-1722.29" rx="50.09" ry="18"/>
<text text-anchor="start" x="5315.19" y="-1718.59" font-family="Times New Roman,serif" font-size="14.00">john trump</text>
</g>
<!-- Entity15&#45;&gt;Entity48 -->
<g id="edge6" class="edge verb">
<title>Entity15&#45;&gt;Entity48</title>
<path fill="none" stroke="black" d="M5938.49,-1708.12C5814.58,-1711.08 5530.43,-1717.88 5405.96,-1720.85"/>
<polygon fill="black" stroke="black" points="5405.76,-1717.36 5395.85,-1721.09 5405.93,-1724.35 5405.76,-1717.36"/>
<text text-anchor="start" x="5613.23" y="-1718.28" font-family="Times New Roman,serif" font-size="14.00">nephew of</text>
</g>
<!-- Entity15&#45;&gt;Entity66 -->
<g id="edge27" class="edge verb">
<title>Entity15&#45;&gt;Entity66</title>
<path fill="none" stroke="black" d="M5964.23,-1721.62C5865.13,-1765.27 5576.6,-1892.35 5477.15,-1936.16"/>
<polygon fill="black" stroke="black" points="5475.6,-1933.02 5467.86,-1940.25 5478.42,-1939.42 5475.6,-1933.02"/>
<text text-anchor="start" x="5704.69" y="-1832.69" font-family="Times New Roman,serif" font-size="14.00">isa</text>
</g>
<!-- Entity48&#45;&gt;Entity22 -->
<g id="edge10" class="edge verb">
<title>Entity48&#45;&gt;Entity22</title>
<path fill="none" stroke="black" d="M5297.01,-1727.12C5185.12,-1738.22 4911.61,-1765.34 4811.88,-1775.22"/>
<polygon fill="black" stroke="black" points="4811.29,-1771.77 4801.68,-1776.24 4811.98,-1778.73 4811.29,-1771.77"/>
<text text-anchor="start" x="5054.44" y="-1754.97" font-family="Times New Roman,serif" font-size="14.00">member of</text>
</g>
<!-- Entity82 -->
<g id="node41" class="node entity">
<title>Entity82</title>
<ellipse fill="none" stroke="black" cx="5784.53" cy="-1814.67" rx="50.89" ry="18"/>
<text text-anchor="start" x="5753.53" y="-1810.97" font-family="Times New Roman,serif" font-size="14.00">nikola tesla</text>
</g>
<!-- Entity48&#45;&gt;Entity82 -->
<g id="edge40" class="edge verb">
<title>Entity48&#45;&gt;Entity82</title>
<path fill="none" stroke="black" d="M5388.97,-1731.4C5469.57,-1748.37 5642.46,-1784.77 5730.55,-1803.31"/>
<polygon fill="black" stroke="black" points="5730.1,-1806.79 5740.61,-1805.43 5731.54,-1799.94 5730.1,-1806.79"/>
<text text-anchor="start" x="5518.76" y="-1771.16" font-family="Times New Roman,serif" font-size="14.00">studied</text>
</g>
<!-- Entity5 -->
<g id="node12" class="node entity">
<title>Entity5</title>
<ellipse fill="none" stroke="black" cx="3221.19" cy="-1956.02" rx="56.59" ry="18"/>
<text text-anchor="start" x="3185.69" y="-1952.32" font-family="Times New Roman,serif" font-size="14.00">arthur young</text>
</g>
<!-- Entity5&#45;&gt;Entity8 -->
<g id="edge7" class="edge verb">
<title>Entity5&#45;&gt;Entity8</title>
<path fill="none" stroke="black" d="M3217.11,-1937.82C3199.71,-1860.34 3131.8,-1557.76 3110.71,-1463.84"/>
<polygon fill="black" stroke="black" points="3114.1,-1462.92 3108.49,-1453.93 3107.27,-1464.45 3114.1,-1462.92"/>
<text text-anchor="start" x="3101.91" y="-1704.63" font-family="Times New Roman,serif" font-size="14.00">member&#45;of</text>
</g>
<!-- Entity5&#45;&gt;Entity67 -->
<g id="edge18" class="edge verb">
<title>Entity5&#45;&gt;Entity67</title>
<path fill="none" stroke="black" d="M3273.85,-1949.35C3415.83,-1931.34 3807.15,-1881.7 3974.89,-1860.42"/>
<polygon fill="black" stroke="black" points="3975.4,-1863.89 3984.89,-1859.16 3974.52,-1856.94 3975.4,-1863.89"/>
<text text-anchor="start" x="3583.37" y="-1908.68" font-family="Times New Roman,serif" font-size="14.00">studied</text>
</g>
<!-- Entity72 -->
<g id="node28" class="node entity">
<title>Entity72</title>
<ellipse fill="none" stroke="black" cx="2559.05" cy="-2268.7" rx="53.89" ry="18"/>
<text text-anchor="start" x="2525.55" y="-2265" font-family="Times New Roman,serif" font-size="14.00">bell aviation</text>
</g>
<!-- Entity5&#45;&gt;Entity72 -->
<g id="edge24" class="edge verb">
<title>Entity5&#45;&gt;Entity72</title>
<path fill="none" stroke="black" d="M3189.26,-1971.11C3079.97,-2022.71 2721.04,-2192.2 2599.62,-2249.54"/>
<polygon fill="black" stroke="black" points="2597.83,-2246.52 2590.29,-2253.95 2600.82,-2252.85 2597.83,-2246.52"/>
<text text-anchor="start" x="2853.44" y="-2114.12" font-family="Times New Roman,serif" font-size="14.00">created</text>
</g>
<!-- Entity1 -->
<g id="node13" class="node entity">
<title>Entity1</title>
<ellipse fill="none" stroke="black" cx="2423.19" cy="-1420.86" rx="64.19" ry="18"/>
<text text-anchor="start" x="2381.69" y="-1417.16" font-family="Times New Roman,serif" font-size="14.00">andre puharich</text>
</g>
<!-- Entity1&#45;&gt;Entity2 -->
<g id="edge8" class="edge verb">
<title>Entity1&#45;&gt;Entity2</title>
<path fill="none" stroke="black" d="M2461.38,-1435.52C2545.92,-1467.97 2748.21,-1545.61 2835.02,-1578.93"/>
<polygon fill="black" stroke="black" points="2833.94,-1582.26 2844.53,-1582.58 2836.45,-1575.72 2833.94,-1582.26"/>
<text text-anchor="start" x="2588.2" y="-1511.02" font-family="Times New Roman,serif" font-size="14.00">sponsored</text>
</g>
<!-- Entity7 -->
<g id="node14" class="node entity">
<title>Entity7</title>
<ellipse fill="none" stroke="black" cx="3415.61" cy="-1696.43" rx="68.49" ry="18"/>
<text text-anchor="start" x="3371.11" y="-1692.73" font-family="Times New Roman,serif" font-size="14.00">jeffrey mishlove</text>
</g>
<!-- Entity7&#45;&gt;Entity2 -->
<g id="edge9" class="edge verb">
<title>Entity7&#45;&gt;Entity2</title>
<path fill="none" stroke="black" d="M3359.87,-1685.91C3253.6,-1665.86 3023.72,-1622.48 2923.76,-1603.61"/>
<polygon fill="black" stroke="black" points="2924.41,-1600.17 2913.93,-1601.76 2923.11,-1607.05 2924.41,-1600.17"/>
<text text-anchor="start" x="3086.82" y="-1648.56" font-family="Times New Roman,serif" font-size="14.00">promoted</text>
</g>
<!-- Entity7&#45;&gt;Entity67 -->
<g id="edge19" class="edge verb">
<title>Entity7&#45;&gt;Entity67</title>
<path fill="none" stroke="black" d="M3458.56,-1710.55C3565.91,-1740.49 3846.83,-1808.69 3980.37,-1837.58"/>
<polygon fill="black" stroke="black" points="3979.99,-1841.07 3990.5,-1839.75 3981.46,-1834.23 3979.99,-1841.07"/>
<text text-anchor="start" x="3678.47" y="-1762.86" font-family="Times New Roman,serif" font-size="14.00">studied</text>
</g>
<!-- Entity7&#45;&gt;Entity67 -->
<g id="edge26" class="edge verb">
<title>Entity7&#45;&gt;Entity67</title>
<path fill="none" stroke="black" d="M3473.12,-1706.17C3595.15,-1731.97 3878.6,-1800.51 3998.15,-1833.16"/>
<polygon fill="black" stroke="black" points="3997.27,-1836.54 4007.84,-1835.82 3999.12,-1829.79 3997.27,-1836.54"/>
<text text-anchor="start" x="3735.64" y="-1773.47" font-family="Times New Roman,serif" font-size="14.00">investigates</text>
</g>
<!-- Entity30 -->
<g id="node15" class="node entity">
<title>Entity30</title>
<ellipse fill="none" stroke="black" cx="1842.49" cy="-2545.1" rx="74.99" ry="18"/>
<text text-anchor="start" x="1792.99" y="-2541.4" font-family="Times New Roman,serif" font-size="14.00">walter dornberger</text>
</g>
<!-- Entity30&#45;&gt;Entity28 -->
<g id="edge11" class="edge verb">
<title>Entity30&#45;&gt;Entity28</title>
<path fill="none" stroke="black" d="M1806.96,-2561.06C1702.73,-2607.88 1398.63,-2744.48 1295.36,-2790.87"/>
<polygon fill="black" stroke="black" points="1293.69,-2787.78 1286,-2795.07 1296.56,-2794.16 1293.69,-2787.78"/>
<text text-anchor="start" x="1490.16" y="-2679.76" font-family="Times New Roman,serif" font-size="14.00">member of</text>
</g>
<!-- Entity30&#45;&gt;Entity72 -->
<g id="edge35" class="edge verb">
<title>Entity30&#45;&gt;Entity72</title>
<path fill="none" stroke="black" d="M1888.84,-2530.97C2020.6,-2484.84 2395.67,-2340.12 2519.13,-2287.7"/>
<polygon fill="black" stroke="black" points="2520.78,-2290.8 2528.59,-2283.65 2518.02,-2284.37 2520.78,-2290.8"/>
<text text-anchor="start" x="2124.98" y="-2413.13" font-family="Times New Roman,serif" font-size="14.00">vice&#45;president</text>
</g>
<!-- Entity30&#45;&gt;Entity72 -->
<g id="edge49" class="edge verb">
<title>Entity30&#45;&gt;Entity72</title>
<path fill="none" stroke="black" d="M1875.93,-2528.87C1991.09,-2479.43 2371.61,-2332.47 2509.02,-2284.12"/>
<polygon fill="black" stroke="black" points="2510.2,-2287.42 2518.48,-2280.82 2507.89,-2280.81 2510.2,-2287.42"/>
<text text-anchor="start" x="2136.47" y="-2395.3" font-family="Times New Roman,serif" font-size="14.00">worked at</text>
</g>
<!-- Entity76 -->
<g id="node35" class="node entity">
<title>Entity76</title>
<ellipse fill="none" stroke="black" cx="1267.01" cy="-2255.01" rx="90.98" ry="18"/>
<text text-anchor="start" x="1205.01" y="-2251.31" font-family="Times New Roman,serif" font-size="14.00">nsdap rocket program</text>
</g>
<!-- Entity30&#45;&gt;Entity76 -->
<g id="edge36" class="edge verb">
<title>Entity30&#45;&gt;Entity76</title>
<path fill="none" stroke="black" d="M1809.9,-2528.67C1711.82,-2479.24 1419.42,-2331.84 1309.46,-2276.41"/>
<polygon fill="black" stroke="black" points="1310.82,-2273.18 1300.32,-2271.8 1307.67,-2279.43 1310.82,-2273.18"/>
<text text-anchor="start" x="1518.68" y="-2406.34" font-family="Times New Roman,serif" font-size="14.00">created</text>
</g>
<!-- Entity104 -->
<g id="node55" class="node entity">
<title>Entity104</title>
<ellipse fill="none" stroke="black" cx="1585.45" cy="-3059.71" rx="65.79" ry="18"/>
<text text-anchor="start" x="1542.95" y="-3056.01" font-family="Times New Roman,serif" font-size="14.00">x series aircraft</text>
</g>
<!-- Entity30&#45;&gt;Entity104 -->
<g id="edge59" class="edge verb">
<title>Entity30&#45;&gt;Entity104</title>
<path fill="none" stroke="black" d="M1833.49,-2563.11C1795.08,-2640 1644.77,-2940.95 1598.85,-3032.89"/>
<polygon fill="black" stroke="black" points="1595.71,-3031.34 1594.37,-3041.85 1601.97,-3034.47 1595.71,-3031.34"/>
<text text-anchor="start" x="1675.17" y="-2801.8" font-family="Times New Roman,serif" font-size="14.00">created</text>
</g>
<!-- Entity32 -->
<g id="node16" class="node entity">
<title>Entity32</title>
<ellipse fill="none" stroke="black" cx="1585.18" cy="-2146.92" rx="46.29" ry="18"/>
<text text-anchor="start" x="1557.68" y="-2143.22" font-family="Times New Roman,serif" font-size="14.00">van braun</text>
</g>
<!-- Entity32&#45;&gt;Entity30 -->
<g id="edge12" class="edge verb">
<title>Entity32&#45;&gt;Entity30</title>
<path fill="none" stroke="black" d="M1596.57,-2164.54C1637.41,-2227.74 1776.68,-2443.27 1825.45,-2518.74"/>
<polygon fill="black" stroke="black" points="1822.57,-2520.73 1830.94,-2527.23 1828.45,-2516.93 1822.57,-2520.73"/>
<text text-anchor="start" x="1648.01" y="-2345.44" font-family="Times New Roman,serif" font-size="14.00">worked for</text>
</g>
<!-- Entity32&#45;&gt;Entity76 -->
<g id="edge48" class="edge verb">
<title>Entity32&#45;&gt;Entity76</title>
<path fill="none" stroke="black" d="M1550.22,-2158.8C1495.33,-2177.45 1388.43,-2213.76 1322.82,-2236.06"/>
<polygon fill="black" stroke="black" points="1321.39,-2232.84 1313.05,-2239.37 1323.64,-2239.47 1321.39,-2232.84"/>
<text text-anchor="start" x="1380.52" y="-2201.23" font-family="Times New Roman,serif" font-size="14.00">worked at</text>
</g>
<!-- Entity29 -->
<g id="node17" class="node entity">
<title>Entity29</title>
<ellipse fill="none" stroke="black" cx="5596.82" cy="-3072.62" rx="37.89" ry="18"/>
<text text-anchor="start" x="5575.82" y="-3068.92" font-family="Times New Roman,serif" font-size="14.00">hunt oil</text>
</g>
<!-- Entity36 -->
<g id="node18" class="node entity">
<title>Entity36</title>
<ellipse fill="none" stroke="black" cx="5513.41" cy="-2542.2" rx="77.99" ry="18"/>
<text text-anchor="start" x="5461.41" y="-2538.5" font-family="Times New Roman,serif" font-size="14.00">dwight eisenhower</text>
</g>
<!-- Entity29&#45;&gt;Entity36 -->
<g id="edge13" class="edge verb">
<title>Entity29&#45;&gt;Entity36</title>
<path fill="none" stroke="black" d="M5593.99,-3054.67C5581.72,-2976.61 5532.93,-2666.3 5517.87,-2570.51"/>
<polygon fill="black" stroke="black" points="5521.29,-2569.75 5516.28,-2560.42 5514.38,-2570.84 5521.29,-2569.75"/>
<text text-anchor="start" x="5515.93" y="-2816.39" font-family="Times New Roman,serif" font-size="14.00">funded</text>
</g>
<!-- Entity36&#45;&gt;Entity66 -->
<g id="edge34" class="edge verb">
<title>Entity36&#45;&gt;Entity66</title>
<path fill="none" stroke="black" d="M5511.27,-2524.19C5501.2,-2439.74 5458.66,-2082.74 5446.34,-1979.36"/>
<polygon fill="black" stroke="black" points="5449.81,-1978.88 5445.15,-1969.37 5442.86,-1979.71 5449.81,-1978.88"/>
<text text-anchor="start" x="5459.81" y="-2255.58" font-family="Times New Roman,serif" font-size="14.00">is a</text>
</g>
<!-- Entity11 -->
<g id="node19" class="node entity">
<title>Entity11</title>
<ellipse fill="none" stroke="black" cx="5240.82" cy="-1496.46" rx="56.59" ry="18"/>
<text text-anchor="start" x="5205.32" y="-1492.76" font-family="Times New Roman,serif" font-size="14.00">harry truman</text>
</g>
<!-- Entity11&#45;&gt;Entity66 -->
<g id="edge14" class="edge verb">
<title>Entity11&#45;&gt;Entity66</title>
<path fill="none" stroke="black" d="M5248.75,-1514.29C5279.86,-1584.26 5393.73,-1840.41 5431.05,-1924.36"/>
<polygon fill="black" stroke="black" points="5427.86,-1925.79 5435.12,-1933.5 5434.25,-1922.94 5427.86,-1925.79"/>
<text text-anchor="start" x="5323.9" y="-1723.13" font-family="Times New Roman,serif" font-size="14.00">isa</text>
</g>
<!-- Entity69 -->
<g id="node24" class="node entity">
<title>Entity69</title>
<ellipse fill="none" stroke="black" cx="5173.7" cy="-1388.37" rx="55.79" ry="18"/>
<text text-anchor="start" x="5138.7" y="-1384.67" font-family="Times New Roman,serif" font-size="14.00">freemasonry</text>
</g>
<!-- Entity11&#45;&gt;Entity69 -->
<g id="edge17" class="edge verb">
<title>Entity11&#45;&gt;Entity69</title>
<path fill="none" stroke="black" d="M5229.74,-1478.61C5218.95,-1461.25 5202.44,-1434.65 5190.13,-1414.82"/>
<polygon fill="black" stroke="black" points="5193.05,-1412.9 5184.8,-1406.25 5187.1,-1416.59 5193.05,-1412.9"/>
<text text-anchor="start" x="5148.93" y="-1450.52" font-family="Times New Roman,serif" font-size="14.00">member of</text>
</g>
<!-- Entity63 -->
<g id="node21" class="node entity">
<title>Entity63</title>
<ellipse fill="none" stroke="black" cx="6268.97" cy="-2758.79" rx="53.89" ry="18"/>
<text text-anchor="start" x="6235.47" y="-2755.09" font-family="Times New Roman,serif" font-size="14.00">edgar casey</text>
</g>
<!-- Entity59 -->
<g id="node22" class="node entity">
<title>Entity59</title>
<ellipse fill="none" stroke="black" cx="5977.95" cy="-2276.14" rx="71.49" ry="18"/>
<text text-anchor="start" x="5930.95" y="-2272.44" font-family="Times New Roman,serif" font-size="14.00">woodrow wilson</text>
</g>
<!-- Entity63&#45;&gt;Entity59 -->
<g id="edge15" class="edge verb">
<title>Entity63&#45;&gt;Entity59</title>
<path fill="none" stroke="black" d="M6258.26,-2741.04C6214.24,-2668.02 6046.93,-2390.54 5994.06,-2302.86"/>
<polygon fill="black" stroke="black" points="5996.91,-2300.81 5988.75,-2294.05 5990.92,-2304.42 5996.91,-2300.81"/>
<text text-anchor="start" x="6084.16" y="-2525.75" font-family="Times New Roman,serif" font-size="14.00">advises</text>
</g>
<!-- Entity59&#45;&gt;Entity66 -->
<g id="edge30" class="edge verb">
<title>Entity59&#45;&gt;Entity66</title>
<path fill="none" stroke="black" d="M5950.32,-2259.36C5859.12,-2203.96 5568.14,-2027.23 5473.24,-1969.58"/>
<polygon fill="black" stroke="black" points="5475.04,-1966.58 5464.68,-1964.38 5471.41,-1972.56 5475.04,-1966.58"/>
<text text-anchor="start" x="5695.78" y="-2118.27" font-family="Times New Roman,serif" font-size="14.00">isa</text>
</g>
<!-- Entity92 -->
<g id="node50" class="node entity">
<title>Entity92</title>
<ellipse fill="none" stroke="black" cx="6491.62" cy="-2631.01" rx="71.49" ry="18"/>
<text text-anchor="start" x="6444.62" y="-2627.31" font-family="Times New Roman,serif" font-size="14.00">leauge of nations</text>
</g>
<!-- Entity59&#45;&gt;Entity92 -->
<g id="edge54" class="edge verb">
<title>Entity59&#45;&gt;Entity92</title>
<path fill="none" stroke="black" d="M6002.73,-2293.26C6087.07,-2351.53 6363.08,-2542.22 6458.67,-2608.26"/>
<polygon fill="black" stroke="black" points="6456.87,-2611.26 6467.09,-2614.07 6460.85,-2605.51 6456.87,-2611.26"/>
<text text-anchor="start" x="6189.7" y="-2454.56" font-family="Times New Roman,serif" font-size="14.00">created</text>
</g>
<!-- Entity18 -->
<g id="node26" class="node entity">
<title>Entity18</title>
<ellipse fill="none" stroke="black" cx="5325.68" cy="-2295.45" rx="35.19" ry="18"/>
<text text-anchor="start" x="5306.68" y="-2291.75" font-family="Times New Roman,serif" font-size="14.00">obama</text>
</g>
<!-- Entity18&#45;&gt;Entity66 -->
<g id="edge21" class="edge verb">
<title>Entity18&#45;&gt;Entity66</title>
<path fill="none" stroke="black" d="M5331.83,-2277.42C5351.11,-2220.84 5410.52,-2046.49 5433.64,-1978.63"/>
<polygon fill="black" stroke="black" points="5436.99,-1979.64 5436.91,-1969.05 5430.37,-1977.39 5436.99,-1979.64"/>
<text text-anchor="start" x="5366.73" y="-2131.83" font-family="Times New Roman,serif" font-size="14.00">isa</text>
</g>
<!-- Entity12 -->
<g id="node27" class="node entity">
<title>Entity12</title>
<ellipse fill="none" stroke="black" cx="5606.48" cy="-2384.15" rx="58.49" ry="18"/>
<text text-anchor="start" x="5569.48" y="-2380.45" font-family="Times New Roman,serif" font-size="14.00">richard nixon</text>
</g>
<!-- Entity12&#45;&gt;Entity66 -->
<g id="edge22" class="edge verb">
<title>Entity12&#45;&gt;Entity66</title>
<path fill="none" stroke="black" d="M5599.66,-2366.09C5574.11,-2298.41 5483.87,-2059.47 5453.24,-1978.37"/>
<polygon fill="black" stroke="black" points="5456.46,-1976.97 5449.65,-1968.86 5449.91,-1979.45 5456.46,-1976.97"/>
<text text-anchor="start" x="5510.45" y="-2176.03" font-family="Times New Roman,serif" font-size="14.00">isa</text>
</g>
<!-- Entity24 -->
<g id="node29" class="node entity">
<title>Entity24</title>
<ellipse fill="none" stroke="black" cx="3629.83" cy="-1804.46" rx="63.89" ry="18"/>
<text text-anchor="start" x="3588.83" y="-1800.76" font-family="Times New Roman,serif" font-size="14.00">robert bigelow</text>
</g>
<!-- Entity24&#45;&gt;Entity7 -->
<g id="edge25" class="edge verb">
<title>Entity24&#45;&gt;Entity7</title>
<path fill="none" stroke="black" d="M3598.69,-1788.75C3561.14,-1769.82 3497.95,-1737.95 3456.51,-1717.06"/>
<polygon fill="black" stroke="black" points="3458.01,-1713.89 3447.5,-1712.51 3454.85,-1720.14 3458.01,-1713.89"/>
<text text-anchor="start" x="3495.6" y="-1756.71" font-family="Times New Roman,serif" font-size="14.00">funds</text>
</g>
<!-- Entity24&#45;&gt;Entity67 -->
<g id="edge45" class="edge verb">
<title>Entity24&#45;&gt;Entity67</title>
<path fill="none" stroke="black" d="M3689.55,-1810.97C3763.56,-1819.02 3889.98,-1832.79 3972.47,-1841.77"/>
<polygon fill="black" stroke="black" points="3972.24,-1845.27 3982.56,-1842.87 3973,-1838.31 3972.24,-1845.27"/>
<text text-anchor="start" x="3767.01" y="-1830.17" font-family="Times New Roman,serif" font-size="14.00">investigates</text>
</g>
<!-- Entity44 -->
<g id="node30" class="node entity">
<title>Entity44</title>
<ellipse fill="none" stroke="black" cx="6741.33" cy="-1561.66" rx="58.49" ry="18"/>
<text text-anchor="start" x="6704.33" y="-1557.96" font-family="Times New Roman,serif" font-size="14.00">steve bannon</text>
</g>
<!-- Entity44&#45;&gt;Entity15 -->
<g id="edge28" class="edge verb">
<title>Entity44&#45;&gt;Entity15</title>
<path fill="none" stroke="black" d="M6686.87,-1568.5C6549.47,-1591.2 6189.95,-1661.35 6052.57,-1692.24"/>
<polygon fill="black" stroke="black" points="6051.66,-1688.86 6042.68,-1694.49 6053.21,-1695.69 6051.66,-1688.86"/>
<text text-anchor="start" x="6314.72" y="-1634.17" font-family="Times New Roman,serif" font-size="14.00">promoted</text>
</g>
<!-- Entity44&#45;&gt;Entity15 -->
<g id="edge64" class="edge verb">
<title>Entity44&#45;&gt;Entity15</title>
<path fill="none" stroke="black" d="M6697.45,-1573.71C6572.05,-1602.49 6211.72,-1673.01 6063.25,-1698.06"/>
<polygon fill="black" stroke="black" points="6062.65,-1694.62 6053.36,-1699.72 6063.8,-1701.52 6062.65,-1694.62"/>
<text text-anchor="start" x="6380.35" y="-1639.68" font-family="Times New Roman,serif" font-size="14.00">advises</text>
</g>
<!-- Entity83 -->
<g id="node40" class="node entity">
<title>Entity83</title>
<ellipse fill="none" stroke="black" cx="6909.57" cy="-1026.57" rx="61.99" ry="18"/>
<text text-anchor="start" x="6870.07" y="-1022.87" font-family="Times New Roman,serif" font-size="14.00">breitbart news</text>
</g>
<!-- Entity44&#45;&gt;Entity83 -->
<g id="edge46" class="edge verb">
<title>Entity44&#45;&gt;Entity83</title>
<path fill="none" stroke="black" d="M6747.03,-1543.55C6771.86,-1464.55 6870.82,-1149.8 6900.87,-1054.23"/>
<polygon fill="black" stroke="black" points="6904.21,-1055.27 6903.87,-1044.68 6897.54,-1053.17 6904.21,-1055.27"/>
<text text-anchor="start" x="6782.95" y="-1302.69" font-family="Times New Roman,serif" font-size="14.00">created</text>
</g>
<!-- Entity89 -->
<g id="node49" class="node entity">
<title>Entity89</title>
<ellipse fill="none" stroke="black" cx="7042.67" cy="-1266.5" rx="35.19" ry="18"/>
<text text-anchor="start" x="7023.67" y="-1262.8" font-family="Times New Roman,serif" font-size="14.00">gurgev</text>
</g>
<!-- Entity44&#45;&gt;Entity89 -->
<g id="edge53" class="edge verb">
<title>Entity44&#45;&gt;Entity89</title>
<path fill="none" stroke="black" d="M6759.28,-1544.08C6811.06,-1493.36 6960.72,-1346.77 7019.02,-1289.66"/>
<polygon fill="black" stroke="black" points="7021.61,-1292.03 7026.31,-1282.53 7016.71,-1287.03 7021.61,-1292.03"/>
<text text-anchor="start" x="6848.15" y="-1420.67" font-family="Times New Roman,serif" font-size="14.00">studied</text>
</g>
<!-- Entity91 -->
<g id="node51" class="node entity">
<title>Entity91</title>
<ellipse fill="none" stroke="black" cx="7083" cy="-1863.27" rx="38.19" ry="18"/>
<text text-anchor="start" x="7061.5" y="-1859.57" font-family="Times New Roman,serif" font-size="14.00">us navy</text>
</g>
<!-- Entity44&#45;&gt;Entity91 -->
<g id="edge55" class="edge verb">
<title>Entity44&#45;&gt;Entity91</title>
<path fill="none" stroke="black" d="M6760.68,-1578.74C6818.62,-1629.88 6990.8,-1781.88 7056.82,-1840.17"/>
<polygon fill="black" stroke="black" points="7054.88,-1843.12 7064.7,-1847.11 7059.52,-1837.87 7054.88,-1843.12"/>
<text text-anchor="start" x="6847.75" y="-1713.25" font-family="Times New Roman,serif" font-size="14.00">member of</text>
</g>
<!-- Entity94 -->
<g id="node53" class="node entity">
<title>Entity94</title>
<ellipse fill="none" stroke="black" cx="7231.54" cy="-1741.1" rx="53.09" ry="18"/>
<text text-anchor="start" x="7198.54" y="-1737.4" font-family="Times New Roman,serif" font-size="14.00">biosphere 2</text>
</g>
<!-- Entity44&#45;&gt;Entity94 -->
<g id="edge57" class="edge verb">
<title>Entity44&#45;&gt;Entity94</title>
<path fill="none" stroke="black" d="M6778.98,-1575.44C6867.64,-1607.89 7089.29,-1689.03 7185.63,-1724.3"/>
<polygon fill="black" stroke="black" points="7184.51,-1727.61 7195.1,-1727.76 7186.91,-1721.04 7184.51,-1727.61"/>
<text text-anchor="start" x="6941.31" y="-1653.67" font-family="Times New Roman,serif" font-size="14.00">created</text>
</g>
<!-- Entity107 -->
<g id="node58" class="node entity">
<title>Entity107</title>
<ellipse fill="none" stroke="black" cx="7331.89" cy="-1374.46" rx="77.19" ry="18"/>
<text text-anchor="start" x="7280.39" y="-1370.76" font-family="Times New Roman,serif" font-size="14.00">hollywood movies</text>
</g>
<!-- Entity44&#45;&gt;Entity107 -->
<g id="edge61" class="edge verb">
<title>Entity44&#45;&gt;Entity107</title>
<path fill="none" stroke="black" d="M6782.39,-1548.64C6886.07,-1515.78 7158.53,-1429.41 7276.32,-1392.07"/>
<polygon fill="black" stroke="black" points="7277.41,-1395.4 7285.88,-1389.04 7275.29,-1388.73 7277.41,-1395.4"/>
<text text-anchor="start" x="6974.36" y="-1474.16" font-family="Times New Roman,serif" font-size="14.00">produced</text>
</g>
<!-- Entity111 -->
<g id="node59" class="node entity">
<title>Entity111</title>
<ellipse fill="none" stroke="black" cx="7307.59" cy="-1570.42" rx="64.99" ry="18"/>
<text text-anchor="start" x="7265.59" y="-1566.72" font-family="Times New Roman,serif" font-size="14.00">goldman sachs</text>
</g>
<!-- Entity44&#45;&gt;Entity111 -->
<g id="edge66" class="edge verb">
<title>Entity44&#45;&gt;Entity111</title>
<path fill="none" stroke="black" d="M6799.8,-1562.56C6903.21,-1564.16 7118.21,-1567.49 7232.46,-1569.26"/>
<polygon fill="black" stroke="black" points="7232.47,-1572.76 7242.52,-1569.41 7232.58,-1565.76 7232.47,-1572.76"/>
<text text-anchor="start" x="6953.13" y="-1569.71" font-family="Times New Roman,serif" font-size="14.00">worked for</text>
</g>
<!-- Entity33 -->
<g id="node32" class="node entity">
<title>Entity33</title>
<ellipse fill="none" stroke="black" cx="2283.37" cy="-2653.61" rx="57.69" ry="18"/>
<text text-anchor="start" x="2246.87" y="-2649.91" font-family="Times New Roman,serif" font-size="14.00">michael pane</text>
</g>
<!-- Entity33&#45;&gt;Entity30 -->
<g id="edge47" class="edge verb">
<title>Entity33&#45;&gt;Entity30</title>
<path fill="none" stroke="black" d="M2237.85,-2642.4C2158.43,-2622.86 1994.48,-2582.51 1904.67,-2560.4"/>
<polygon fill="black" stroke="black" points="1905.43,-2556.99 1894.89,-2558 1903.76,-2563.79 1905.43,-2556.99"/>
<text text-anchor="start" x="2008.26" y="-2605.2" font-family="Times New Roman,serif" font-size="14.00">worked for</text>
</g>
<!-- Entity33&#45;&gt;Entity72 -->
<g id="edge31" class="edge verb">
<title>Entity33&#45;&gt;Entity72</title>
<path fill="none" stroke="black" d="M2296.12,-2635.81C2340.48,-2573.87 2488.31,-2367.48 2540.56,-2294.52"/>
<polygon fill="black" stroke="black" points="2543.47,-2296.47 2546.45,-2286.3 2537.78,-2292.39 2543.47,-2296.47"/>
<text text-anchor="start" x="2362.34" y="-2468.97" font-family="Times New Roman,serif" font-size="14.00">worked at</text>
</g>
<!-- Entity45 -->
<g id="node33" class="node entity">
<title>Entity45</title>
<ellipse fill="none" stroke="black" cx="5544.99" cy="-1359.72" rx="67.69" ry="18"/>
<text text-anchor="start" x="5500.99" y="-1356.02" font-family="Times New Roman,serif" font-size="14.00">abraham lincoln</text>
</g>
<!-- Entity45&#45;&gt;Entity66 -->
<g id="edge32" class="edge verb">
<title>Entity45&#45;&gt;Entity66</title>
<path fill="none" stroke="black" d="M5541.88,-1377.74C5527.3,-1462.26 5465.69,-1819.56 5447.85,-1923.02"/>
<polygon fill="black" stroke="black" points="5444.37,-1922.58 5446.12,-1933.03 5451.27,-1923.77 5444.37,-1922.58"/>
<text text-anchor="start" x="5478.86" y="-1654.18" font-family="Times New Roman,serif" font-size="14.00">isa</text>
</g>
<!-- Entity38 -->
<g id="node34" class="node entity">
<title>Entity38</title>
<ellipse fill="none" stroke="black" cx="5524.57" cy="-590.36" rx="90.98" ry="18"/>
<text text-anchor="start" x="5462.57" y="-586.66" font-family="Times New Roman,serif" font-size="14.00">emma hardinge&#45;britten</text>
</g>
<!-- Entity38&#45;&gt;Entity45 -->
<g id="edge33" class="edge verb">
<title>Entity38&#45;&gt;Entity45</title>
<path fill="none" stroke="black" d="M5525.05,-608.62C5527.75,-710.33 5540.93,-1206.96 5544.24,-1331.4"/>
<polygon fill="black" stroke="black" points="5540.74,-1331.73 5544.51,-1341.63 5547.74,-1331.54 5540.74,-1331.73"/>
<text text-anchor="start" x="5435.65" y="-973.81" font-family="Times New Roman,serif" font-size="14.00">spokesperson for</text>
</g>
<!-- Entity79 -->
<g id="node38" class="node entity">
<title>Entity79</title>
<ellipse fill="none" stroke="black" cx="5562.31" cy="-17.63" rx="39.79" ry="18"/>
<text text-anchor="start" x="5539.81" y="-13.93" font-family="Times New Roman,serif" font-size="14.00">medium</text>
</g>
<!-- Entity38&#45;&gt;Entity79 -->
<g id="edge38" class="edge verb">
<title>Entity38&#45;&gt;Entity79</title>
<path fill="none" stroke="black" d="M5525.76,-572.27C5531.21,-489.53 5553.8,-146.8 5560.46,-45.77"/>
<polygon fill="black" stroke="black" points="5563.95,-45.93 5561.12,-35.72 5556.97,-45.46 5563.95,-45.93"/>
<text text-anchor="start" x="5527.11" y="-312.82" font-family="Times New Roman,serif" font-size="14.00">isa</text>
</g>
<!-- Entity86 -->
<g id="node48" class="node entity">
<title>Entity86</title>
<ellipse fill="none" stroke="black" cx="4810.23" cy="-681.45" rx="85.29" ry="18"/>
<text text-anchor="start" x="4752.73" y="-677.75" font-family="Times New Roman,serif" font-size="14.00">theosophical society</text>
</g>
<!-- Entity38&#45;&gt;Entity86 -->
<g id="edge65" class="edge verb">
<title>Entity38&#45;&gt;Entity86</title>
<path fill="none" stroke="black" d="M5447.78,-600.15C5312.61,-617.39 5033.29,-653.01 4893.6,-670.82"/>
<polygon fill="black" stroke="black" points="4892.85,-667.39 4883.37,-672.12 4893.74,-674.33 4892.85,-667.39"/>
<text text-anchor="start" x="5129.69" y="-639.28" font-family="Times New Roman,serif" font-size="14.00">created</text>
</g>
<!-- Entity99 -->
<g id="node54" class="node entity">
<title>Entity99</title>
<ellipse fill="none" stroke="black" cx="5848.85" cy="-50.87" rx="55.79" ry="18"/>
<text text-anchor="start" x="5813.85" y="-47.17" font-family="Times New Roman,serif" font-size="14.00">orphic circle</text>
</g>
<!-- Entity38&#45;&gt;Entity99 -->
<g id="edge58" class="edge verb">
<title>Entity38&#45;&gt;Entity99</title>
<path fill="none" stroke="black" d="M5535.36,-572.41C5583.17,-492.87 5776.04,-172 5832.96,-77.31"/>
<polygon fill="black" stroke="black" points="5836.03,-78.99 5838.18,-68.62 5830.03,-75.38 5836.03,-78.99"/>
<text text-anchor="start" x="5623.16" y="-328.66" font-family="Times New Roman,serif" font-size="14.00">member of</text>
</g>
<!-- Entity42 -->
<g id="node36" class="node entity">
<title>Entity42</title>
<ellipse fill="none" stroke="black" cx="4660.94" cy="-2456.66" rx="53.89" ry="18"/>
<text text-anchor="start" x="4627.44" y="-2452.96" font-family="Times New Roman,serif" font-size="14.00">black magic</text>
</g>
<!-- Entity81 -->
<g id="node37" class="node entity">
<title>Entity81</title>
<ellipse fill="none" stroke="black" cx="4748.66" cy="-2568.64" rx="28.7" ry="18"/>
<text text-anchor="start" x="4734.66" y="-2564.94" font-family="Times New Roman,serif" font-size="14.00">x left</text>
</g>
<!-- Entity42&#45;&gt;Entity81 -->
<g id="edge37" class="edge verb">
<title>Entity42&#45;&gt;Entity81</title>
<path fill="none" stroke="black" d="M4674.64,-2474.16C4689.45,-2493.05 4713.14,-2523.29 4729.72,-2544.45"/>
<polygon fill="black" stroke="black" points="4726.98,-2546.64 4735.9,-2552.36 4732.49,-2542.32 4726.98,-2546.64"/>
<text text-anchor="start" x="4641.18" y="-2513.11" font-family="Times New Roman,serif" font-size="14.00">member of</text>
</g>
<!-- Entity47 -->
<g id="node39" class="node entity">
<title>Entity47</title>
<ellipse fill="none" stroke="black" cx="6954.18" cy="-918.63" rx="69.59" ry="18"/>
<text text-anchor="start" x="6908.68" y="-914.93" font-family="Times New Roman,serif" font-size="14.00">andrew breitbart</text>
</g>
<!-- Entity47&#45;&gt;Entity83 -->
<g id="edge39" class="edge verb">
<title>Entity47&#45;&gt;Entity83</title>
<path fill="none" stroke="black" d="M6946.61,-936.94C6939.55,-954.03 6928.93,-979.74 6920.86,-999.25"/>
<polygon fill="black" stroke="black" points="6917.61,-997.95 6917.02,-1008.53 6924.08,-1000.63 6917.61,-997.95"/>
<text text-anchor="start" x="6892.74" y="-971.89" font-family="Times New Roman,serif" font-size="14.00">created</text>
</g>
<!-- Entity35 -->
<g id="node42" class="node entity">
<title>Entity35</title>
<ellipse fill="none" stroke="black" cx="3833.94" cy="-1372.66" rx="39.79" ry="18"/>
<text text-anchor="start" x="3811.44" y="-1368.96" font-family="Times New Roman,serif" font-size="14.00">crowley</text>
</g>
<!-- Entity80 -->
<g id="node43" class="node entity">
<title>Entity80</title>
<ellipse fill="none" stroke="black" cx="3921.66" cy="-1484.64" rx="38.99" ry="18"/>
<text text-anchor="start" x="3899.66" y="-1480.94" font-family="Times New Roman,serif" font-size="14.00">x magic</text>
</g>
<!-- Entity35&#45;&gt;Entity80 -->
<g id="edge41" class="edge verb">
<title>Entity35&#45;&gt;Entity80</title>
<path fill="none" stroke="black" d="M3847.26,-1389.67C3861.82,-1408.25 3885.28,-1438.2 3901.96,-1459.49"/>
<polygon fill="black" stroke="black" points="3899.29,-1461.76 3908.21,-1467.47 3904.8,-1457.44 3899.29,-1461.76"/>
<text text-anchor="start" x="3813.61" y="-1428.38" font-family="Times New Roman,serif" font-size="14.00">member of</text>
</g>
<!-- Entity19 -->
<g id="node44" class="node entity">
<title>Entity19</title>
<ellipse fill="none" stroke="black" cx="5363.11" cy="-1843.23" rx="31.4" ry="18"/>
<text text-anchor="start" x="5347.11" y="-1839.53" font-family="Times New Roman,serif" font-size="14.00">carter</text>
</g>
<!-- Entity19&#45;&gt;Entity66 -->
<g id="edge44" class="edge verb">
<title>Entity19&#45;&gt;Entity66</title>
<path fill="none" stroke="black" d="M5375.59,-1860.1C5388.72,-1877.85 5409.52,-1905.97 5424.55,-1926.28"/>
<polygon fill="black" stroke="black" points="5421.83,-1928.49 5430.59,-1934.45 5427.46,-1924.33 5421.83,-1928.49"/>
<text text-anchor="start" x="5384.07" y="-1896.99" font-family="Times New Roman,serif" font-size="14.00">isa</text>
</g>
<!-- Entity19&#45;&gt;Entity90 -->
<g id="edge56" class="edge verb">
<title>Entity19&#45;&gt;Entity90</title>
<path fill="none" stroke="black" d="M5335.95,-1834.1C5278.51,-1814.78 5144.81,-1769.82 5081.82,-1748.65"/>
<polygon fill="black" stroke="black" points="5082.57,-1745.21 5071.98,-1745.34 5080.34,-1751.84 5082.57,-1745.21"/>
<text text-anchor="start" x="5153.89" y="-1795.17" font-family="Times New Roman,serif" font-size="14.00">witnessed</text>
</g>
<!-- Entity27 -->
<g id="node45" class="node entity">
<title>Entity27</title>
<ellipse fill="none" stroke="black" cx="36.43" cy="-3485.48" rx="36.29" ry="18"/>
<text text-anchor="start" x="16.43" y="-3481.78" font-family="Times New Roman,serif" font-size="14.00">oswald</text>
</g>
<!-- Entity34 -->
<g id="node46" class="node entity">
<title>Entity34</title>
<ellipse fill="none" stroke="black" cx="429.64" cy="-3282.82" rx="59.29" ry="18"/>
<text text-anchor="start" x="392.14" y="-3279.12" font-family="Times New Roman,serif" font-size="14.00">guy bannister</text>
</g>
<!-- Entity27&#45;&gt;Entity34 -->
<g id="edge50" class="edge verb">
<title>Entity27&#45;&gt;Entity34</title>
<path fill="none" stroke="black" d="M61.92,-3472.34C128.81,-3437.86 309.69,-3344.65 390.14,-3303.18"/>
<polygon fill="black" stroke="black" points="392.15,-3306.08 399.44,-3298.39 388.94,-3299.86 392.15,-3306.08"/>
<text text-anchor="start" x="163.03" y="-3391.56" font-family="Times New Roman,serif" font-size="14.00">worked for</text>
</g>
<!-- Entity34&#45;&gt;Entity75 -->
<g id="edge51" class="edge verb">
<title>Entity34&#45;&gt;Entity75</title>
<path fill="none" stroke="black" d="M459.15,-3267.19C538.19,-3225.31 754.46,-3110.73 839.28,-3065.79"/>
<polygon fill="black" stroke="black" points="841.05,-3068.81 848.25,-3061.04 837.77,-3062.63 841.05,-3068.81"/>
<text text-anchor="start" x="588.21" y="-3170.29" font-family="Times New Roman,serif" font-size="14.00">member of</text>
</g>
<!-- Entity64 -->
<g id="node47" class="node entity">
<title>Entity64</title>
<ellipse fill="none" stroke="black" cx="4705.08" cy="-573.39" rx="73.39" ry="18"/>
<text text-anchor="start" x="4656.58" y="-569.69" font-family="Times New Roman,serif" font-size="14.00">madam blavatsky</text>
</g>
<!-- Entity64&#45;&gt;Entity86 -->
<g id="edge52" class="edge verb">
<title>Entity64&#45;&gt;Entity86</title>
<path fill="none" stroke="black" d="M4722.45,-591.24C4739.72,-608.99 4766.38,-636.39 4785.79,-656.34"/>
<polygon fill="black" stroke="black" points="4783.36,-658.85 4792.84,-663.58 4788.38,-653.97 4783.36,-658.85"/>
<text text-anchor="start" x="4713.12" y="-627.59" font-family="Times New Roman,serif" font-size="14.00">created</text>
</g>
<!-- Entity60 -->
<g id="node56" class="node entity">
<title>Entity60</title>
<ellipse fill="none" stroke="black" cx="4237.03" cy="-645.13" rx="58.49" ry="18"/>
<text text-anchor="start" x="4200.03" y="-641.43" font-family="Times New Roman,serif" font-size="14.00">rudolf steiner</text>
</g>
<!-- Entity60&#45;&gt;Entity86 -->
<g id="edge63" class="edge verb">
<title>Entity60&#45;&gt;Entity86</title>
<path fill="none" stroke="black" d="M4294.35,-648.76C4393.67,-655.06 4598.56,-668.04 4718.08,-675.61"/>
<polygon fill="black" stroke="black" points="4718.11,-679.12 4728.31,-676.26 4718.55,-672.13 4718.11,-679.12"/>
<text text-anchor="start" x="4440.22" y="-665.99" font-family="Times New Roman,serif" font-size="14.00">memberr of</text>
</g>
<!-- Entity93 -->
<g id="node57" class="node entity">
<title>Entity93</title>
<ellipse fill="none" stroke="black" cx="4072.6" cy="-537.08" rx="102.08" ry="18"/>
<text text-anchor="start" x="4002.1" y="-533.38" font-family="Times New Roman,serif" font-size="14.00">anthroposophical society</text>
</g>
<!-- Entity60&#45;&gt;Entity93 -->
<g id="edge60" class="edge verb">
<title>Entity60&#45;&gt;Entity93</title>
<path fill="none" stroke="black" d="M4212.06,-628.72C4184.22,-610.43 4139,-580.71 4107.63,-560.1"/>
<polygon fill="black" stroke="black" points="4109.46,-557.11 4099.18,-554.55 4105.61,-562.96 4109.46,-557.11"/>
<text text-anchor="start" x="4118.85" y="-598.21" font-family="Times New Roman,serif" font-size="14.00">created</text>
</g>
<!-- Entity109 -->
<g id="node60" class="node entity">
<title>Entity109</title>
<ellipse fill="none" stroke="black" cx="4362.94" cy="-1101.66" rx="27" ry="18"/>
<text text-anchor="start" x="4359.44" y="-1097.96" font-family="Times New Roman,serif" font-size="14.00">s</text>
</g>
<!-- Entity112 -->
<g id="node61" class="node entity">
<title>Entity112</title>
<ellipse fill="none" stroke="black" cx="4450.66" cy="-1213.64" rx="27" ry="18"/>
<text text-anchor="start" x="4446.66" y="-1209.94" font-family="Times New Roman,serif" font-size="14.00">o</text>
</g>
<!-- Entity109&#45;&gt;Entity112 -->
<g id="edge67" class="edge verb">
<title>Entity109&#45;&gt;Entity112</title>
<path fill="none" stroke="black" d="M4375.51,-1117.7C4390.23,-1136.5 4414.76,-1167.82 4431.78,-1189.53"/>
<polygon fill="black" stroke="black" points="4429.19,-1191.91 4438.11,-1197.62 4434.7,-1187.59 4429.19,-1191.91"/>
<text text-anchor="start" x="4396.64" y="-1157.42" font-family="Times New Roman,serif" font-size="14.00">v</text>
</g>
</g>
</svg>
