<?xml version="1.0" encoding="UTF-8" standalone="no"?>
<?xml-stylesheet href="./styles.css" type="text/css"?>
<!DOCTYPE svg PUBLIC "-//W3C//DTD SVG 1.1//EN"
 "http://www.w3.org/Graphics/SVG/1.1/DTD/svg11.dtd">
<!-- Generated by graphviz version 2.47.3 (20210619.1520)
 -->
<!-- Title: G Pages: 1 -->
<svg width="6733pt" height="4711pt"
 viewBox="0.00 0.00 6733.00 4711.00" xmlns="http://www.w3.org/2000/svg" xmlns:xlink="http://www.w3.org/1999/xlink">
<g id="graph0" class="graph" transform="scale(1 1) rotate(0) translate(4 4707)">
<title>G</title>
<polygon fill="white" stroke="transparent" points="-4,4 -4,-4707 6729,-4707 6729,4 -4,4"/>
<!-- Entity3 -->
<g id="node1" class="node entity">
<title>Entity3</title>
<ellipse fill="none" stroke="black" cx="4499.48" cy="-2347.4" rx="64.19" ry="18"/>
<text text-anchor="start" x="4457.98" y="-2343.7" font-family="Times New Roman,serif" font-size="14.00">john f kennedy</text>
</g>
<!-- Entity22 -->
<g id="node2" class="node entity">
<title>Entity22</title>
<ellipse fill="none" stroke="black" cx="4065.51" cy="-2126.54" rx="27" ry="18"/>
<text text-anchor="start" x="4057.51" y="-2122.84" font-family="Times New Roman,serif" font-size="14.00">cia</text>
</g>
<!-- Entity3&#45;&gt;Entity22 -->
<g id="edge1" class="edge verb">
<title>Entity3&#45;&gt;Entity22</title>
<path fill="none" stroke="black" d="M4468.27,-2331.52C4388.15,-2290.75 4175.94,-2182.75 4096.29,-2142.21"/>
<polygon fill="black" stroke="black" points="4097.75,-2139.03 4087.25,-2137.61 4094.58,-2145.27 4097.75,-2139.03"/>
<text text-anchor="start" x="4178.28" y="-2240.67" font-family="Times New Roman,serif" font-size="14.00">heads (1961&#45;1963)</text>
</g>
<!-- Entity66 -->
<g id="node20" class="node entity">
<title>Entity66</title>
<ellipse fill="none" stroke="black" cx="5081.47" cy="-2318.48" rx="31.4" ry="18"/>
<text text-anchor="start" x="5065.47" y="-2314.78" font-family="Times New Roman,serif" font-size="14.00">potus</text>
</g>
<!-- Entity3&#45;&gt;Entity66 -->
<g id="edge23" class="edge verb">
<title>Entity3&#45;&gt;Entity66</title>
<path fill="none" stroke="black" d="M4562.87,-2344.25C4682.81,-2338.29 4939.87,-2325.52 5040.18,-2320.53"/>
<polygon fill="black" stroke="black" points="5040.42,-2324.02 5050.23,-2320.03 5040.07,-2317.03 5040.42,-2324.02"/>
<text text-anchor="start" x="4714.53" y="-2336.19" font-family="Times New Roman,serif" font-size="14.00">isa (1961&#45;1963)</text>
</g>
<!-- Entity67 -->
<g id="node25" class="node entity">
<title>Entity67</title>
<ellipse fill="none" stroke="black" cx="3358.28" cy="-2224.01" rx="77.19" ry="18"/>
<text text-anchor="start" x="3306.78" y="-2220.31" font-family="Times New Roman,serif" font-size="14.00">psi&#45;consciousness</text>
</g>
<!-- Entity22&#45;&gt;Entity67 -->
<g id="edge43" class="edge verb">
<title>Entity22&#45;&gt;Entity67</title>
<path fill="none" stroke="black" d="M4038.64,-2130.24C3939.39,-2143.92 3591.05,-2191.93 3434.95,-2213.44"/>
<polygon fill="black" stroke="black" points="3434.38,-2209.99 3424.95,-2214.82 3435.34,-2216.92 3434.38,-2209.99"/>
<text text-anchor="start" x="3672.8" y="-2175.64" font-family="Times New Roman,serif" font-size="14.00">investigates</text>
</g>
<!-- Entity90 -->
<g id="node52" class="node entity">
<title>Entity90</title>
<ellipse fill="none" stroke="black" cx="4362.89" cy="-2185.28" rx="27" ry="18"/>
<text text-anchor="start" x="4353.39" y="-2181.58" font-family="Times New Roman,serif" font-size="14.00">ufo</text>
</g>
<!-- Entity22&#45;&gt;Entity90 -->
<g id="edge62" class="edge verb">
<title>Entity22&#45;&gt;Entity90</title>
<path fill="none" stroke="black" d="M4091.64,-2131.7C4144.96,-2142.24 4266.39,-2166.22 4327.04,-2178.2"/>
<polygon fill="black" stroke="black" points="4326.44,-2181.65 4336.93,-2180.16 4327.79,-2174.78 4326.44,-2181.65"/>
<text text-anchor="start" x="4145.34" y="-2158.75" font-family="Times New Roman,serif" font-size="14.00">investigates</text>
</g>
<!-- Entity14 -->
<g id="node3" class="node entity">
<title>Entity14</title>
<ellipse fill="none" stroke="black" cx="1819.43" cy="-1636.91" rx="74.99" ry="18"/>
<text text-anchor="start" x="1769.93" y="-1633.21" font-family="Times New Roman,serif" font-size="14.00">gene roddenberry</text>
</g>
<!-- Entity8 -->
<g id="node4" class="node entity">
<title>Entity8</title>
<ellipse fill="none" stroke="black" cx="2127.73" cy="-2041.91" rx="38.19" ry="18"/>
<text text-anchor="start" x="2106.23" y="-2038.21" font-family="Times New Roman,serif" font-size="14.00">the nine</text>
</g>
<!-- Entity14&#45;&gt;Entity8 -->
<g id="edge2" class="edge verb">
<title>Entity14&#45;&gt;Entity8</title>
<path fill="none" stroke="black" d="M1833.07,-1654.83C1882.33,-1719.54 2051.1,-1941.24 2108.46,-2016.6"/>
<polygon fill="black" stroke="black" points="2105.74,-2018.81 2114.59,-2024.65 2111.31,-2014.57 2105.74,-2018.81"/>
<text text-anchor="start" x="1866.77" y="-1839.52" font-family="Times New Roman,serif" font-size="14.00">claiemd to channel</text>
</g>
<!-- Entity70 -->
<g id="node23" class="node entity">
<title>Entity70</title>
<ellipse fill="none" stroke="black" cx="1594.6" cy="-1796.73" rx="94.48" ry="18"/>
<text text-anchor="start" x="1530.1" y="-1793.03" font-family="Times New Roman,serif" font-size="14.00">egyptian gods in a ship</text>
</g>
<!-- Entity8&#45;&gt;Entity70 -->
<g id="edge16" class="edge verb">
<title>Entity8&#45;&gt;Entity70</title>
<path fill="none" stroke="black" d="M2100.19,-2029.24C2013.78,-1989.5 1747.39,-1867 1640.09,-1817.65"/>
<polygon fill="black" stroke="black" points="1641.37,-1814.38 1630.82,-1813.38 1638.44,-1820.74 1641.37,-1814.38"/>
<text text-anchor="start" x="1766.14" y="-1927.25" font-family="Times New Roman,serif" font-size="14.00">claimed to channel</text>
</g>
<!-- Entity16 -->
<g id="node5" class="node entity">
<title>Entity16</title>
<ellipse fill="none" stroke="black" cx="5291.2" cy="-2805.42" rx="68.49" ry="18"/>
<text text-anchor="start" x="5246.7" y="-2801.72" font-family="Times New Roman,serif" font-size="14.00">george hw bush</text>
</g>
<!-- Entity20 -->
<g id="node6" class="node entity">
<title>Entity20</title>
<ellipse fill="none" stroke="black" cx="4895.29" cy="-2800.04" rx="63.89" ry="18"/>
<text text-anchor="start" x="4854.29" y="-2796.34" font-family="Times New Roman,serif" font-size="14.00">george w bush</text>
</g>
<!-- Entity16&#45;&gt;Entity20 -->
<g id="edge3" class="edge verb">
<title>Entity16&#45;&gt;Entity20</title>
<path fill="none" stroke="black" d="M5222.69,-2804.49C5152.03,-2803.53 5042.17,-2802.04 4969.49,-2801.05"/>
<polygon fill="black" stroke="black" points="4969.09,-2797.55 4959.04,-2800.91 4968.99,-2804.55 4969.09,-2797.55"/>
<text text-anchor="start" x="5064.09" y="-2806.57" font-family="Times New Roman,serif" font-size="14.00">father</text>
</g>
<!-- Entity16&#45;&gt;Entity66 -->
<g id="edge20" class="edge verb">
<title>Entity16&#45;&gt;Entity66</title>
<path fill="none" stroke="black" d="M5283.49,-2787.51C5251.75,-2713.83 5131.13,-2433.77 5093.06,-2345.38"/>
<polygon fill="black" stroke="black" points="5096.21,-2343.83 5089.04,-2336.04 5089.78,-2346.6 5096.21,-2343.83"/>
<text text-anchor="start" x="5172.27" y="-2570.25" font-family="Times New Roman,serif" font-size="14.00">isa</text>
</g>
<!-- Entity20&#45;&gt;Entity66 -->
<g id="edge42" class="edge verb">
<title>Entity20&#45;&gt;Entity66</title>
<path fill="none" stroke="black" d="M4902.25,-2782.04C4930.54,-2708.87 5037.03,-2433.44 5070.99,-2345.59"/>
<polygon fill="black" stroke="black" points="5074.34,-2346.65 5074.68,-2336.06 5067.81,-2344.12 5074.34,-2346.65"/>
<text text-anchor="start" x="4970.62" y="-2567.62" font-family="Times New Roman,serif" font-size="14.00">isa</text>
</g>
<!-- Entity2 -->
<g id="node7" class="node entity">
<title>Entity2</title>
<ellipse fill="none" stroke="black" cx="2183.91" cy="-2149.87" rx="41.69" ry="18"/>
<text text-anchor="start" x="2159.91" y="-2146.17" font-family="Times New Roman,serif" font-size="14.00">uri geller</text>
</g>
<!-- Entity2&#45;&gt;Entity8 -->
<g id="edge4" class="edge verb">
<title>Entity2&#45;&gt;Entity8</title>
<path fill="none" stroke="black" d="M2174.63,-2132.04C2165.63,-2114.75 2151.87,-2088.29 2141.57,-2068.51"/>
<polygon fill="black" stroke="black" points="2144.55,-2066.66 2136.83,-2059.41 2138.34,-2069.89 2144.55,-2066.66"/>
<text text-anchor="start" x="2054.1" y="-2104.08" font-family="Times New Roman,serif" font-size="14.00">claiemd to channel</text>
</g>
<!-- Entity26 -->
<g id="node8" class="node entity">
<title>Entity26</title>
<ellipse fill="none" stroke="black" cx="1161.48" cy="-4202.54" rx="49.29" ry="18"/>
<text text-anchor="start" x="1131.48" y="-4198.84" font-family="Times New Roman,serif" font-size="14.00">adolf hitler</text>
</g>
<!-- Entity28 -->
<g id="node9" class="node entity">
<title>Entity28</title>
<ellipse fill="none" stroke="black" cx="1354.14" cy="-3850.82" rx="32.49" ry="18"/>
<text text-anchor="start" x="1337.14" y="-3847.12" font-family="Times New Roman,serif" font-size="14.00">nsdap</text>
</g>
<!-- Entity26&#45;&gt;Entity28 -->
<g id="edge5" class="edge verb">
<title>Entity26&#45;&gt;Entity28</title>
<path fill="none" stroke="black" d="M1171.3,-4184.61C1202.93,-4126.85 1302.32,-3945.42 1339.72,-3877.15"/>
<polygon fill="black" stroke="black" points="1342.84,-3878.74 1344.57,-3868.29 1336.7,-3875.38 1342.84,-3878.74"/>
<text text-anchor="start" x="1214.51" y="-4034.68" font-family="Times New Roman,serif" font-size="14.00">created</text>
</g>
<!-- Entity75 -->
<g id="node31" class="node entity">
<title>Entity75</title>
<ellipse fill="none" stroke="black" cx="955.07" cy="-4077.32" rx="38.99" ry="18"/>
<text text-anchor="start" x="933.07" y="-4073.62" font-family="Times New Roman,serif" font-size="14.00">far right</text>
</g>
<!-- Entity28&#45;&gt;Entity75 -->
<g id="edge29" class="edge verb">
<title>Entity28&#45;&gt;Entity75</title>
<path fill="none" stroke="black" d="M1331.25,-3863.81C1264.25,-3901.83 1068.27,-4013.07 988.97,-4058.08"/>
<polygon fill="black" stroke="black" points="986.86,-4055.25 979.89,-4063.23 990.31,-4061.34 986.86,-4055.25"/>
<text text-anchor="start" x="1099.11" y="-3964.74" font-family="Times New Roman,serif" font-size="14.00">member of</text>
</g>
<!-- Entity15 -->
<g id="node10" class="node entity">
<title>Entity15</title>
<ellipse fill="none" stroke="black" cx="5304.45" cy="-1875.98" rx="59.59" ry="18"/>
<text text-anchor="start" x="5266.45" y="-1872.28" font-family="Times New Roman,serif" font-size="14.00">donald trump</text>
</g>
<!-- Entity48 -->
<g id="node11" class="node entity">
<title>Entity48</title>
<ellipse fill="none" stroke="black" cx="4603.34" cy="-1936.29" rx="50.09" ry="18"/>
<text text-anchor="start" x="4572.84" y="-1932.59" font-family="Times New Roman,serif" font-size="14.00">john trump</text>
</g>
<!-- Entity15&#45;&gt;Entity48 -->
<g id="edge6" class="edge verb">
<title>Entity15&#45;&gt;Entity48</title>
<path fill="none" stroke="black" d="M5246.77,-1880.94C5115.41,-1892.24 4795.05,-1919.8 4662.39,-1931.21"/>
<polygon fill="black" stroke="black" points="4662.07,-1927.72 4652.4,-1932.07 4662.67,-1934.7 4662.07,-1927.72"/>
<text text-anchor="start" x="4895.58" y="-1909.87" font-family="Times New Roman,serif" font-size="14.00">nephew of</text>
</g>
<!-- Entity15&#45;&gt;Entity66 -->
<g id="edge27" class="edge verb">
<title>Entity15&#45;&gt;Entity66</title>
<path fill="none" stroke="black" d="M5295.43,-1893.87C5260.82,-1962.55 5136.4,-2209.48 5094.98,-2291.66"/>
<polygon fill="black" stroke="black" points="5091.73,-2290.34 5090.36,-2300.85 5097.98,-2293.49 5091.73,-2290.34"/>
<text text-anchor="start" x="5179.21" y="-2096.57" font-family="Times New Roman,serif" font-size="14.00">isa</text>
</g>
<!-- Entity48&#45;&gt;Entity22 -->
<g id="edge10" class="edge verb">
<title>Entity48&#45;&gt;Entity22</title>
<path fill="none" stroke="black" d="M4567.64,-1948.92C4469.18,-1983.74 4194.79,-2080.81 4099.01,-2114.69"/>
<polygon fill="black" stroke="black" points="4097.79,-2111.41 4089.53,-2118.04 4100.12,-2118.01 4097.79,-2111.41"/>
<text text-anchor="start" x="4272.33" y="-2035.6" font-family="Times New Roman,serif" font-size="14.00">member of</text>
</g>
<!-- Entity82 -->
<g id="node41" class="node entity">
<title>Entity82</title>
<ellipse fill="none" stroke="black" cx="4356.3" cy="-1553.8" rx="50.89" ry="18"/>
<text text-anchor="start" x="4325.3" y="-1550.1" font-family="Times New Roman,serif" font-size="14.00">nikola tesla</text>
</g>
<!-- Entity48&#45;&gt;Entity82 -->
<g id="edge40" class="edge verb">
<title>Entity48&#45;&gt;Entity82</title>
<path fill="none" stroke="black" d="M4591.92,-1918.6C4552.34,-1857.32 4420.84,-1653.73 4373.48,-1580.41"/>
<polygon fill="black" stroke="black" points="4376.25,-1578.24 4367.88,-1571.74 4370.37,-1582.04 4376.25,-1578.24"/>
<text text-anchor="start" x="4441.7" y="-1753.31" font-family="Times New Roman,serif" font-size="14.00">studied</text>
</g>
<!-- Entity5 -->
<g id="node12" class="node entity">
<title>Entity5</title>
<ellipse fill="none" stroke="black" cx="2582.56" cy="-2396.78" rx="65.79" ry="18"/>
<text text-anchor="start" x="2540.06" y="-2393.08" font-family="Times New Roman,serif" font-size="14.00">arthur m young</text>
</g>
<!-- Entity5&#45;&gt;Entity8 -->
<g id="edge7" class="edge verb">
<title>Entity5&#45;&gt;Entity8</title>
<path fill="none" stroke="black" d="M2560.63,-2379.66C2485.57,-2321.1 2239.08,-2128.79 2155.63,-2063.68"/>
<polygon fill="black" stroke="black" points="2157.66,-2060.83 2147.63,-2057.43 2153.36,-2066.35 2157.66,-2060.83"/>
<text text-anchor="start" x="2296.13" y="-2225.47" font-family="Times New Roman,serif" font-size="14.00">member&#45;of</text>
</g>
<!-- Entity5&#45;&gt;Entity67 -->
<g id="edge18" class="edge verb">
<title>Entity5&#45;&gt;Entity67</title>
<path fill="none" stroke="black" d="M2633.76,-2385.38C2769.86,-2355.07 3140.56,-2272.5 3292.24,-2238.72"/>
<polygon fill="black" stroke="black" points="3293.35,-2242.06 3302.35,-2236.47 3291.82,-2235.23 3293.35,-2242.06"/>
<text text-anchor="start" x="2922" y="-2315.85" font-family="Times New Roman,serif" font-size="14.00">studied</text>
</g>
<!-- Entity72 -->
<g id="node28" class="node entity">
<title>Entity72</title>
<ellipse fill="none" stroke="black" cx="2165.52" cy="-2896.99" rx="53.89" ry="18"/>
<text text-anchor="start" x="2132.02" y="-2893.29" font-family="Times New Roman,serif" font-size="14.00">bell aviation</text>
</g>
<!-- Entity5&#45;&gt;Entity72 -->
<g id="edge24" class="edge verb">
<title>Entity5&#45;&gt;Entity72</title>
<path fill="none" stroke="black" d="M2567.72,-2414.58C2504.89,-2489.95 2260.63,-2782.91 2186.78,-2871.48"/>
<polygon fill="black" stroke="black" points="2183.9,-2869.48 2180.18,-2879.4 2189.27,-2873.97 2183.9,-2869.48"/>
<text text-anchor="start" x="2336.25" y="-2646.83" font-family="Times New Roman,serif" font-size="14.00">created</text>
</g>
<!-- Entity1 -->
<g id="node13" class="node entity">
<title>Entity1</title>
<ellipse fill="none" stroke="black" cx="1704.99" cy="-2112.77" rx="64.19" ry="18"/>
<text text-anchor="start" x="1663.49" y="-2109.07" font-family="Times New Roman,serif" font-size="14.00">andre puharich</text>
</g>
<!-- Entity1&#45;&gt;Entity2 -->
<g id="edge8" class="edge verb">
<title>Entity1&#45;&gt;Entity2</title>
<path fill="none" stroke="black" d="M1767.11,-2117.58C1862.79,-2124.99 2044.4,-2139.06 2132.89,-2145.91"/>
<polygon fill="black" stroke="black" points="2132.71,-2149.41 2142.95,-2146.69 2133.25,-2142.43 2132.71,-2149.41"/>
<text text-anchor="start" x="1890" y="-2135.55" font-family="Times New Roman,serif" font-size="14.00">sponsored</text>
</g>
<!-- Entity7 -->
<g id="node14" class="node entity">
<title>Entity7</title>
<ellipse fill="none" stroke="black" cx="2706.12" cy="-2120.63" rx="68.49" ry="18"/>
<text text-anchor="start" x="2661.62" y="-2116.93" font-family="Times New Roman,serif" font-size="14.00">jeffrey mishlove</text>
</g>
<!-- Entity7&#45;&gt;Entity2 -->
<g id="edge9" class="edge verb">
<title>Entity7&#45;&gt;Entity2</title>
<path fill="none" stroke="black" d="M2639.19,-2124.38C2533.61,-2130.29 2330.66,-2141.65 2235.51,-2146.98"/>
<polygon fill="black" stroke="black" points="2235.07,-2143.5 2225.28,-2147.55 2235.46,-2150.49 2235.07,-2143.5"/>
<text text-anchor="start" x="2382.35" y="-2139.48" font-family="Times New Roman,serif" font-size="14.00">promoted</text>
</g>
<!-- Entity7&#45;&gt;Entity67 -->
<g id="edge19" class="edge verb">
<title>Entity7&#45;&gt;Entity67</title>
<path fill="none" stroke="black" d="M2757.24,-2132.64C2869.91,-2154.12 3140.41,-2197.26 3276.77,-2215.78"/>
<polygon fill="black" stroke="black" points="3276.38,-2219.26 3286.75,-2217.12 3277.31,-2212.32 3276.38,-2219.26"/>
<text text-anchor="start" x="2976.01" y="-2178.01" font-family="Times New Roman,serif" font-size="14.00">studied</text>
</g>
<!-- Entity7&#45;&gt;Entity67 -->
<g id="edge26" class="edge verb">
<title>Entity7&#45;&gt;Entity67</title>
<path fill="none" stroke="black" d="M2770.8,-2126.61C2895.56,-2142.99 3168.15,-2186.18 3293.22,-2209.38"/>
<polygon fill="black" stroke="black" points="3292.94,-2212.89 3303.41,-2211.29 3294.22,-2206.01 3292.94,-2212.89"/>
<text text-anchor="start" x="2968.01" y="-2156.79" font-family="Times New Roman,serif" font-size="14.00">investigates</text>
</g>
<!-- Entity30 -->
<g id="node15" class="node entity">
<title>Entity30</title>
<ellipse fill="none" stroke="black" cx="1877.69" cy="-3470.1" rx="74.99" ry="18"/>
<text text-anchor="start" x="1828.19" y="-3466.4" font-family="Times New Roman,serif" font-size="14.00">walter dornberger</text>
</g>
<!-- Entity30&#45;&gt;Entity28 -->
<g id="edge11" class="edge verb">
<title>Entity30&#45;&gt;Entity28</title>
<path fill="none" stroke="black" d="M1854.17,-3487.2C1768.69,-3549.36 1474.57,-3763.24 1382.16,-3830.44"/>
<polygon fill="black" stroke="black" points="1379.89,-3827.76 1373.86,-3836.48 1384,-3833.43 1379.89,-3827.76"/>
<text text-anchor="start" x="1557.17" y="-3662.62" font-family="Times New Roman,serif" font-size="14.00">member of</text>
</g>
<!-- Entity30&#45;&gt;Entity72 -->
<g id="edge35" class="edge verb">
<title>Entity30&#45;&gt;Entity72</title>
<path fill="none" stroke="black" d="M1889.61,-3452.21C1937.12,-3369.55 2110.47,-3024.69 2155.13,-2924.43"/>
<polygon fill="black" stroke="black" points="2158.46,-2925.54 2159.26,-2914.98 2152.05,-2922.74 2158.46,-2925.54"/>
<text text-anchor="start" x="1943.37" y="-3192.12" font-family="Times New Roman,serif" font-size="14.00">vice&#45;president</text>
</g>
<!-- Entity30&#45;&gt;Entity72 -->
<g id="edge49" class="edge verb">
<title>Entity30&#45;&gt;Entity72</title>
<path fill="none" stroke="black" d="M1883.92,-3452.14C1919.52,-3369.09 2093.41,-3022.38 2148.74,-2923.44"/>
<polygon fill="black" stroke="black" points="2151.84,-2925.08 2153.72,-2914.66 2145.74,-2921.63 2151.84,-2925.08"/>
<text text-anchor="start" x="1960.33" y="-3176.59" font-family="Times New Roman,serif" font-size="14.00">worked at</text>
</g>
<!-- Entity76 -->
<g id="node35" class="node entity">
<title>Entity76</title>
<ellipse fill="none" stroke="black" cx="2110.95" cy="-3578.22" rx="90.98" ry="18"/>
<text text-anchor="start" x="2048.95" y="-3574.52" font-family="Times New Roman,serif" font-size="14.00">nsdap rocket program</text>
</g>
<!-- Entity30&#45;&gt;Entity76 -->
<g id="edge36" class="edge verb">
<title>Entity30&#45;&gt;Entity76</title>
<path fill="none" stroke="black" d="M1912.36,-3486.17C1953.12,-3505.06 2020.88,-3536.47 2065.74,-3557.26"/>
<polygon fill="black" stroke="black" points="2064.4,-3560.5 2074.94,-3561.53 2067.34,-3554.15 2064.4,-3560.5"/>
<text text-anchor="start" x="1948.05" y="-3525.51" font-family="Times New Roman,serif" font-size="14.00">created</text>
</g>
<!-- Entity104 -->
<g id="node55" class="node entity">
<title>Entity104</title>
<ellipse fill="none" stroke="black" cx="1749.09" cy="-4041.96" rx="65.79" ry="18"/>
<text text-anchor="start" x="1706.59" y="-4038.26" font-family="Times New Roman,serif" font-size="14.00">x series aircraft</text>
</g>
<!-- Entity30&#45;&gt;Entity104 -->
<g id="edge59" class="edge verb">
<title>Entity30&#45;&gt;Entity104</title>
<path fill="none" stroke="black" d="M1873.62,-3488.16C1855.05,-3570.77 1778.1,-3912.98 1755.41,-4013.86"/>
<polygon fill="black" stroke="black" points="1751.93,-4013.37 1753.15,-4023.9 1758.76,-4014.91 1751.93,-4013.37"/>
<text text-anchor="start" x="1773.52" y="-3754.81" font-family="Times New Roman,serif" font-size="14.00">created</text>
</g>
<!-- Entity32 -->
<g id="node16" class="node entity">
<title>Entity32</title>
<ellipse fill="none" stroke="black" cx="1698.99" cy="-3578.11" rx="46.29" ry="18"/>
<text text-anchor="start" x="1671.49" y="-3574.41" font-family="Times New Roman,serif" font-size="14.00">van braun</text>
</g>
<!-- Entity32&#45;&gt;Entity30 -->
<g id="edge12" class="edge verb">
<title>Entity32&#45;&gt;Entity30</title>
<path fill="none" stroke="black" d="M1724.21,-3562.86C1754.68,-3544.44 1806.18,-3513.32 1841.03,-3492.25"/>
<polygon fill="black" stroke="black" points="1843.2,-3495.03 1849.95,-3486.86 1839.58,-3489.04 1843.2,-3495.03"/>
<text text-anchor="start" x="1719.62" y="-3531.36" font-family="Times New Roman,serif" font-size="14.00">worked for</text>
</g>
<!-- Entity32&#45;&gt;Entity76 -->
<g id="edge48" class="edge verb">
<title>Entity32&#45;&gt;Entity76</title>
<path fill="none" stroke="black" d="M1745.45,-3578.12C1809.14,-3578.14 1925.28,-3578.17 2009.58,-3578.19"/>
<polygon fill="black" stroke="black" points="2009.7,-3581.69 2019.7,-3578.19 2009.7,-3574.69 2009.7,-3581.69"/>
<text text-anchor="start" x="1821.51" y="-3581.95" font-family="Times New Roman,serif" font-size="14.00">worked at</text>
</g>
<!-- Entity29 -->
<g id="node17" class="node entity">
<title>Entity29</title>
<ellipse fill="none" stroke="black" cx="4539.61" cy="-3211.47" rx="37.89" ry="18"/>
<text text-anchor="start" x="4518.61" y="-3207.77" font-family="Times New Roman,serif" font-size="14.00">hunt oil</text>
</g>
<!-- Entity36 -->
<g id="node18" class="node entity">
<title>Entity36</title>
<ellipse fill="none" stroke="black" cx="4635.6" cy="-2692.04" rx="77.99" ry="18"/>
<text text-anchor="start" x="4583.6" y="-2688.34" font-family="Times New Roman,serif" font-size="14.00">dwight eisenhower</text>
</g>
<!-- Entity29&#45;&gt;Entity36 -->
<g id="edge13" class="edge verb">
<title>Entity29&#45;&gt;Entity36</title>
<path fill="none" stroke="black" d="M4542.97,-3193.29C4557.27,-3115.92 4613.1,-2813.75 4630.43,-2719.96"/>
<polygon fill="black" stroke="black" points="4633.89,-2720.54 4632.26,-2710.07 4627,-2719.27 4633.89,-2720.54"/>
<text text-anchor="start" x="4546.7" y="-2960.43" font-family="Times New Roman,serif" font-size="14.00">funded</text>
</g>
<!-- Entity36&#45;&gt;Entity66 -->
<g id="edge34" class="edge verb">
<title>Entity36&#45;&gt;Entity66</title>
<path fill="none" stroke="black" d="M4656.5,-2674.52C4729.76,-2613.15 4974.76,-2407.88 5055.45,-2340.28"/>
<polygon fill="black" stroke="black" points="5058.19,-2342.55 5063.6,-2333.45 5053.69,-2337.19 5058.19,-2342.55"/>
<text text-anchor="start" x="4836.98" y="-2511.2" font-family="Times New Roman,serif" font-size="14.00">is a</text>
</g>
<!-- Entity11 -->
<g id="node19" class="node entity">
<title>Entity11</title>
<ellipse fill="none" stroke="black" cx="5558.83" cy="-2437.56" rx="56.59" ry="18"/>
<text text-anchor="start" x="5523.33" y="-2433.86" font-family="Times New Roman,serif" font-size="14.00">harry truman</text>
</g>
<!-- Entity11&#45;&gt;Entity66 -->
<g id="edge14" class="edge verb">
<title>Entity11&#45;&gt;Entity66</title>
<path fill="none" stroke="black" d="M5513.92,-2426.36C5420.71,-2403.11 5207.66,-2349.96 5120.12,-2328.12"/>
<polygon fill="black" stroke="black" points="5120.88,-2324.7 5110.33,-2325.68 5119.18,-2331.49 5120.88,-2324.7"/>
<text text-anchor="start" x="5301.02" y="-2381.04" font-family="Times New Roman,serif" font-size="14.00">isa</text>
</g>
<!-- Entity69 -->
<g id="node24" class="node entity">
<title>Entity69</title>
<ellipse fill="none" stroke="black" cx="6047.38" cy="-2617.72" rx="55.79" ry="18"/>
<text text-anchor="start" x="6012.38" y="-2614.02" font-family="Times New Roman,serif" font-size="14.00">freemasonry</text>
</g>
<!-- Entity11&#45;&gt;Entity69 -->
<g id="edge17" class="edge verb">
<title>Entity11&#45;&gt;Entity69</title>
<path fill="none" stroke="black" d="M5595.95,-2451.25C5683.79,-2483.64 5904.22,-2564.93 6000.81,-2600.55"/>
<polygon fill="black" stroke="black" points="5999.72,-2603.88 6010.31,-2604.05 6002.14,-2597.31 5999.72,-2603.88"/>
<text text-anchor="start" x="5737.38" y="-2529.7" font-family="Times New Roman,serif" font-size="14.00">member of</text>
</g>
<!-- Entity63 -->
<g id="node21" class="node entity">
<title>Entity63</title>
<ellipse fill="none" stroke="black" cx="5863.86" cy="-3194.47" rx="53.89" ry="18"/>
<text text-anchor="start" x="5830.36" y="-3190.77" font-family="Times New Roman,serif" font-size="14.00">edgar casey</text>
</g>
<!-- Entity59 -->
<g id="node22" class="node entity">
<title>Entity59</title>
<ellipse fill="none" stroke="black" cx="5588.98" cy="-2697.48" rx="71.49" ry="18"/>
<text text-anchor="start" x="5541.98" y="-2693.78" font-family="Times New Roman,serif" font-size="14.00">woodrow wilson</text>
</g>
<!-- Entity63&#45;&gt;Entity59 -->
<g id="edge15" class="edge verb">
<title>Entity63&#45;&gt;Entity59</title>
<path fill="none" stroke="black" d="M5853.92,-3176.48C5812.5,-3101.6 5653.55,-2814.23 5603.89,-2724.44"/>
<polygon fill="black" stroke="black" points="5606.81,-2722.49 5598.91,-2715.43 5600.69,-2725.88 5606.81,-2722.49"/>
<text text-anchor="start" x="5686.91" y="-2954.26" font-family="Times New Roman,serif" font-size="14.00">advises</text>
</g>
<!-- Entity59&#45;&gt;Entity66 -->
<g id="edge30" class="edge verb">
<title>Entity59&#45;&gt;Entity66</title>
<path fill="none" stroke="black" d="M5565.85,-2680.21C5482.63,-2618.06 5198.61,-2405.96 5108.88,-2338.94"/>
<polygon fill="black" stroke="black" points="5110.92,-2336.1 5100.81,-2332.92 5106.73,-2341.71 5110.92,-2336.1"/>
<text text-anchor="start" x="5321.36" y="-2513.38" font-family="Times New Roman,serif" font-size="14.00">isa</text>
</g>
<!-- Entity92 -->
<g id="node50" class="node entity">
<title>Entity92</title>
<ellipse fill="none" stroke="black" cx="6100.2" cy="-3069.96" rx="71.49" ry="18"/>
<text text-anchor="start" x="6053.2" y="-3066.26" font-family="Times New Roman,serif" font-size="14.00">leauge of nations</text>
</g>
<!-- Entity59&#45;&gt;Entity92 -->
<g id="edge54" class="edge verb">
<title>Entity59&#45;&gt;Entity92</title>
<path fill="none" stroke="black" d="M5612.61,-2714.7C5695.64,-2775.19 5974.04,-2978.04 6068.52,-3046.88"/>
<polygon fill="black" stroke="black" points="6066.68,-3049.87 6076.82,-3052.93 6070.8,-3044.21 6066.68,-3049.87"/>
<text text-anchor="start" x="5799.57" y="-2884.59" font-family="Times New Roman,serif" font-size="14.00">created</text>
</g>
<!-- Entity18 -->
<g id="node26" class="node entity">
<title>Entity18</title>
<ellipse fill="none" stroke="black" cx="5294.45" cy="-2580.21" rx="35.19" ry="18"/>
<text text-anchor="start" x="5275.45" y="-2576.51" font-family="Times New Roman,serif" font-size="14.00">obama</text>
</g>
<!-- Entity18&#45;&gt;Entity66 -->
<g id="edge21" class="edge verb">
<title>Entity18&#45;&gt;Entity66</title>
<path fill="none" stroke="black" d="M5280.81,-2563.44C5244.2,-2518.46 5143.75,-2395.01 5101.07,-2342.56"/>
<polygon fill="black" stroke="black" points="5103.76,-2340.32 5094.73,-2334.77 5098.33,-2344.74 5103.76,-2340.32"/>
<text text-anchor="start" x="5174.94" y="-2456.8" font-family="Times New Roman,serif" font-size="14.00">isa</text>
</g>
<!-- Entity12 -->
<g id="node27" class="node entity">
<title>Entity12</title>
<ellipse fill="none" stroke="black" cx="5043.15" cy="-2426.51" rx="58.49" ry="18"/>
<text text-anchor="start" x="5006.15" y="-2422.81" font-family="Times New Roman,serif" font-size="14.00">richard nixon</text>
</g>
<!-- Entity12&#45;&gt;Entity66 -->
<g id="edge22" class="edge verb">
<title>Entity12&#45;&gt;Entity66</title>
<path fill="none" stroke="black" d="M5049.65,-2408.18C5055.72,-2391.06 5064.87,-2365.28 5071.8,-2345.74"/>
<polygon fill="black" stroke="black" points="5075.15,-2346.77 5075.19,-2336.17 5068.55,-2344.43 5075.15,-2346.77"/>
<text text-anchor="start" x="5044.73" y="-2380.76" font-family="Times New Roman,serif" font-size="14.00">isa</text>
</g>
<!-- Entity24 -->
<g id="node29" class="node entity">
<title>Entity24</title>
<ellipse fill="none" stroke="black" cx="3145.8" cy="-2116.04" rx="63.89" ry="18"/>
<text text-anchor="start" x="3104.8" y="-2112.34" font-family="Times New Roman,serif" font-size="14.00">robert bigelow</text>
</g>
<!-- Entity24&#45;&gt;Entity7 -->
<g id="edge25" class="edge verb">
<title>Entity24&#45;&gt;Entity7</title>
<path fill="none" stroke="black" d="M3081.87,-2116.71C3003.14,-2117.53 2869.45,-2118.92 2784.58,-2119.81"/>
<polygon fill="black" stroke="black" points="2784.44,-2116.31 2774.48,-2119.92 2784.51,-2123.31 2784.44,-2116.31"/>
<text text-anchor="start" x="2901.22" y="-2122.06" font-family="Times New Roman,serif" font-size="14.00">funds</text>
</g>
<!-- Entity24&#45;&gt;Entity67 -->
<g id="edge45" class="edge verb">
<title>Entity24&#45;&gt;Entity67</title>
<path fill="none" stroke="black" d="M3177.15,-2131.97C3214.1,-2150.75 3275.64,-2182.02 3316.58,-2202.82"/>
<polygon fill="black" stroke="black" points="3315.25,-2206.07 3325.75,-2207.48 3318.42,-2199.83 3315.25,-2206.07"/>
<text text-anchor="start" x="3182.87" y="-2171.2" font-family="Times New Roman,serif" font-size="14.00">investigates</text>
</g>
<!-- Entity44 -->
<g id="node30" class="node entity">
<title>Entity44</title>
<ellipse fill="none" stroke="black" cx="6028.62" cy="-1645.5" rx="58.49" ry="18"/>
<text text-anchor="start" x="5991.62" y="-1641.8" font-family="Times New Roman,serif" font-size="14.00">steve bannon</text>
</g>
<!-- Entity44&#45;&gt;Entity15 -->
<g id="edge28" class="edge verb">
<title>Entity44&#45;&gt;Entity15</title>
<path fill="none" stroke="black" d="M5982.27,-1656.59C5851.18,-1693.76 5479.02,-1812.19 5349.52,-1857.94"/>
<polygon fill="black" stroke="black" points="5348.15,-1854.72 5339.9,-1861.37 5350.5,-1861.31 5348.15,-1854.72"/>
<text text-anchor="start" x="5610.89" y="-1761.07" font-family="Times New Roman,serif" font-size="14.00">promoted</text>
</g>
<!-- Entity44&#45;&gt;Entity15 -->
<g id="edge64" class="edge verb">
<title>Entity44&#45;&gt;Entity15</title>
<path fill="none" stroke="black" d="M5993.18,-1660.1C5876.64,-1701.97 5504.69,-1820.57 5361.44,-1861.84"/>
<polygon fill="black" stroke="black" points="5360.18,-1858.56 5351.52,-1864.68 5362.1,-1865.29 5360.18,-1858.56"/>
<text text-anchor="start" x="5677.31" y="-1764.77" font-family="Times New Roman,serif" font-size="14.00">advises</text>
</g>
<!-- Entity83 -->
<g id="node40" class="node entity">
<title>Entity83</title>
<ellipse fill="none" stroke="black" cx="5660.14" cy="-1676.73" rx="61.99" ry="18"/>
<text text-anchor="start" x="5620.64" y="-1673.03" font-family="Times New Roman,serif" font-size="14.00">breitbart news</text>
</g>
<!-- Entity44&#45;&gt;Entity83 -->
<g id="edge46" class="edge verb">
<title>Entity44&#45;&gt;Entity83</title>
<path fill="none" stroke="black" d="M5971.86,-1650.31C5906.72,-1655.83 5799.9,-1664.88 5729.79,-1670.83"/>
<polygon fill="black" stroke="black" points="5729.39,-1667.35 5719.72,-1671.68 5729.98,-1674.32 5729.39,-1667.35"/>
<text text-anchor="start" x="5809.82" y="-1664.37" font-family="Times New Roman,serif" font-size="14.00">created</text>
</g>
<!-- Entity89 -->
<g id="node49" class="node entity">
<title>Entity89</title>
<ellipse fill="none" stroke="black" cx="6223.73" cy="-1240.27" rx="35.19" ry="18"/>
<text text-anchor="start" x="6204.73" y="-1236.57" font-family="Times New Roman,serif" font-size="14.00">gurgev</text>
</g>
<!-- Entity44&#45;&gt;Entity89 -->
<g id="edge53" class="edge verb">
<title>Entity44&#45;&gt;Entity89</title>
<path fill="none" stroke="black" d="M6037.26,-1627.56C6068.24,-1563.22 6173.89,-1343.79 6210.85,-1267.04"/>
<polygon fill="black" stroke="black" points="6214.01,-1268.52 6215.2,-1257.99 6207.71,-1265.49 6214.01,-1268.52"/>
<text text-anchor="start" x="6083.05" y="-1451.1" font-family="Times New Roman,serif" font-size="14.00">studied</text>
</g>
<!-- Entity91 -->
<g id="node51" class="node entity">
<title>Entity91</title>
<ellipse fill="none" stroke="black" cx="6460.6" cy="-1787.08" rx="38.19" ry="18"/>
<text text-anchor="start" x="6439.1" y="-1783.38" font-family="Times New Roman,serif" font-size="14.00">us navy</text>
</g>
<!-- Entity44&#45;&gt;Entity91 -->
<g id="edge55" class="edge verb">
<title>Entity44&#45;&gt;Entity91</title>
<path fill="none" stroke="black" d="M6068.88,-1658.69C6150.89,-1685.57 6336.59,-1746.43 6419.4,-1773.58"/>
<polygon fill="black" stroke="black" points="6418.38,-1776.92 6428.97,-1776.71 6420.56,-1770.27 6418.38,-1776.92"/>
<text text-anchor="start" x="6183.14" y="-1719.93" font-family="Times New Roman,serif" font-size="14.00">member of</text>
</g>
<!-- Entity94 -->
<g id="node53" class="node entity">
<title>Entity94</title>
<ellipse fill="none" stroke="black" cx="6459.93" cy="-1348.22" rx="53.09" ry="18"/>
<text text-anchor="start" x="6426.93" y="-1344.52" font-family="Times New Roman,serif" font-size="14.00">biosphere 2</text>
</g>
<!-- Entity44&#45;&gt;Entity94 -->
<g id="edge57" class="edge verb">
<title>Entity44&#45;&gt;Entity94</title>
<path fill="none" stroke="black" d="M6052.74,-1628.88C6125.9,-1578.45 6345.39,-1427.17 6428.01,-1370.22"/>
<polygon fill="black" stroke="black" points="6430.01,-1373.1 6436.26,-1364.54 6426.04,-1367.33 6430.01,-1373.1"/>
<text text-anchor="start" x="6199.37" y="-1503.35" font-family="Times New Roman,serif" font-size="14.00">created</text>
</g>
<!-- Entity107 -->
<g id="node58" class="node entity">
<title>Entity107</title>
<ellipse fill="none" stroke="black" cx="6647.26" cy="-1677.4" rx="77.19" ry="18"/>
<text text-anchor="start" x="6595.76" y="-1673.7" font-family="Times New Roman,serif" font-size="14.00">hollywood movies</text>
</g>
<!-- Entity44&#45;&gt;Entity107 -->
<g id="edge61" class="edge verb">
<title>Entity44&#45;&gt;Entity107</title>
<path fill="none" stroke="black" d="M6086.55,-1648.49C6195.92,-1654.13 6433.34,-1666.37 6561.35,-1672.97"/>
<polygon fill="black" stroke="black" points="6561.33,-1676.47 6571.5,-1673.49 6561.69,-1669.48 6561.33,-1676.47"/>
<text text-anchor="start" x="6268.95" y="-1664.53" font-family="Times New Roman,serif" font-size="14.00">produced</text>
</g>
<!-- Entity111 -->
<g id="node59" class="node entity">
<title>Entity111</title>
<ellipse fill="none" stroke="black" cx="6573.58" cy="-1475.41" rx="64.99" ry="18"/>
<text text-anchor="start" x="6531.58" y="-1471.71" font-family="Times New Roman,serif" font-size="14.00">goldman sachs</text>
</g>
<!-- Entity44&#45;&gt;Entity111 -->
<g id="edge66" class="edge verb">
<title>Entity44&#45;&gt;Entity111</title>
<path fill="none" stroke="black" d="M6070.03,-1632.57C6167.7,-1602.09 6412.36,-1525.72 6520.62,-1491.93"/>
<polygon fill="black" stroke="black" points="6521.85,-1495.22 6530.35,-1488.9 6519.76,-1488.54 6521.85,-1495.22"/>
<text text-anchor="start" x="6232.33" y="-1566.05" font-family="Times New Roman,serif" font-size="14.00">worked for</text>
</g>
<!-- Entity33 -->
<g id="node32" class="node entity">
<title>Entity33</title>
<ellipse fill="none" stroke="black" cx="1701.97" cy="-3022.62" rx="57.69" ry="18"/>
<text text-anchor="start" x="1665.47" y="-3018.92" font-family="Times New Roman,serif" font-size="14.00">michael pane</text>
</g>
<!-- Entity33&#45;&gt;Entity30 -->
<g id="edge47" class="edge verb">
<title>Entity33&#45;&gt;Entity30</title>
<path fill="none" stroke="black" d="M1709.08,-3040.72C1736.28,-3110.01 1833.96,-3358.75 1866.82,-3442.42"/>
<polygon fill="black" stroke="black" points="1863.58,-3443.75 1870.49,-3451.78 1870.09,-3441.19 1863.58,-3443.75"/>
<text text-anchor="start" x="1724.95" y="-3245.37" font-family="Times New Roman,serif" font-size="14.00">worked for</text>
</g>
<!-- Entity33&#45;&gt;Entity72 -->
<g id="edge31" class="edge verb">
<title>Entity33&#45;&gt;Entity72</title>
<path fill="none" stroke="black" d="M1746,-3010.69C1831.93,-2987.4 2021.61,-2935.99 2113.54,-2911.08"/>
<polygon fill="black" stroke="black" points="2114.72,-2914.39 2123.46,-2908.39 2112.89,-2907.63 2114.72,-2914.39"/>
<text text-anchor="start" x="1873.77" y="-2964.68" font-family="Times New Roman,serif" font-size="14.00">worked at</text>
</g>
<!-- Entity45 -->
<g id="node33" class="node entity">
<title>Entity45</title>
<ellipse fill="none" stroke="black" cx="5026.79" cy="-1657.83" rx="67.69" ry="18"/>
<text text-anchor="start" x="4982.79" y="-1654.13" font-family="Times New Roman,serif" font-size="14.00">abraham lincoln</text>
</g>
<!-- Entity45&#45;&gt;Entity66 -->
<g id="edge32" class="edge verb">
<title>Entity45&#45;&gt;Entity66</title>
<path fill="none" stroke="black" d="M5028.28,-1675.85C5035.84,-1767.11 5069.88,-2178.47 5079.14,-2290.33"/>
<polygon fill="black" stroke="black" points="5075.67,-2290.8 5079.98,-2300.48 5082.65,-2290.23 5075.67,-2290.8"/>
<text text-anchor="start" x="5037.71" y="-1986.89" font-family="Times New Roman,serif" font-size="14.00">isa</text>
</g>
<!-- Entity38 -->
<g id="node34" class="node entity">
<title>Entity38</title>
<ellipse fill="none" stroke="black" cx="4938.8" cy="-800.77" rx="90.98" ry="18"/>
<text text-anchor="start" x="4876.8" y="-797.07" font-family="Times New Roman,serif" font-size="14.00">emma hardinge&#45;britten</text>
</g>
<!-- Entity38&#45;&gt;Entity45 -->
<g id="edge33" class="edge verb">
<title>Entity38&#45;&gt;Entity45</title>
<path fill="none" stroke="black" d="M4940.68,-819.06C4951.91,-928.43 5010.13,-1495.51 5023.88,-1629.46"/>
<polygon fill="black" stroke="black" points="5020.43,-1630.12 5024.93,-1639.71 5027.39,-1629.4 5020.43,-1630.12"/>
<text text-anchor="start" x="4883.28" y="-1228.06" font-family="Times New Roman,serif" font-size="14.00">spokesperson for</text>
</g>
<!-- Entity79 -->
<g id="node38" class="node entity">
<title>Entity79</title>
<ellipse fill="none" stroke="black" cx="5037.38" cy="-247.97" rx="39.79" ry="18"/>
<text text-anchor="start" x="5014.88" y="-244.27" font-family="Times New Roman,serif" font-size="14.00">medium</text>
</g>
<!-- Entity38&#45;&gt;Entity79 -->
<g id="edge38" class="edge verb">
<title>Entity38&#45;&gt;Entity79</title>
<path fill="none" stroke="black" d="M4942.02,-782.69C4956.4,-702.07 5014.73,-375 5032.33,-276.3"/>
<polygon fill="black" stroke="black" points="5035.82,-276.65 5034.13,-266.19 5028.93,-275.42 5035.82,-276.65"/>
<text text-anchor="start" x="4971.18" y="-533.29" font-family="Times New Roman,serif" font-size="14.00">isa</text>
</g>
<!-- Entity86 -->
<g id="node48" class="node entity">
<title>Entity86</title>
<ellipse fill="none" stroke="black" cx="4878.37" cy="-692.71" rx="85.29" ry="18"/>
<text text-anchor="start" x="4820.87" y="-689.01" font-family="Times New Roman,serif" font-size="14.00">theosophical society</text>
</g>
<!-- Entity38&#45;&gt;Entity86 -->
<g id="edge65" class="edge verb">
<title>Entity38&#45;&gt;Entity86</title>
<path fill="none" stroke="black" d="M4928.55,-782.44C4918.9,-765.18 4904.33,-739.13 4893.37,-719.53"/>
<polygon fill="black" stroke="black" points="4896.41,-717.79 4888.47,-710.77 4890.3,-721.21 4896.41,-717.79"/>
<text text-anchor="start" x="4869.96" y="-754.78" font-family="Times New Roman,serif" font-size="14.00">created</text>
</g>
<!-- Entity99 -->
<g id="node54" class="node entity">
<title>Entity99</title>
<ellipse fill="none" stroke="black" cx="5323.92" cy="-303.45" rx="55.79" ry="18"/>
<text text-anchor="start" x="5288.92" y="-299.75" font-family="Times New Roman,serif" font-size="14.00">orphic circle</text>
</g>
<!-- Entity38&#45;&gt;Entity99 -->
<g id="edge58" class="edge verb">
<title>Entity38&#45;&gt;Entity99</title>
<path fill="none" stroke="black" d="M4952.73,-782.77C5011.01,-707.52 5235.31,-417.88 5303.89,-329.32"/>
<polygon fill="black" stroke="black" points="5306.85,-331.21 5310.21,-321.16 5301.32,-326.92 5306.85,-331.21"/>
<text text-anchor="start" x="5067.31" y="-559.85" font-family="Times New Roman,serif" font-size="14.00">member of</text>
</g>
<!-- Entity42 -->
<g id="node36" class="node entity">
<title>Entity42</title>
<ellipse fill="none" stroke="black" cx="3927.94" cy="-1805.66" rx="53.89" ry="18"/>
<text text-anchor="start" x="3894.44" y="-1801.96" font-family="Times New Roman,serif" font-size="14.00">black magic</text>
</g>
<!-- Entity81 -->
<g id="node37" class="node entity">
<title>Entity81</title>
<ellipse fill="none" stroke="black" cx="4015.66" cy="-1917.64" rx="28.7" ry="18"/>
<text text-anchor="start" x="4001.66" y="-1913.94" font-family="Times New Roman,serif" font-size="14.00">x left</text>
</g>
<!-- Entity42&#45;&gt;Entity81 -->
<g id="edge37" class="edge verb">
<title>Entity42&#45;&gt;Entity81</title>
<path fill="none" stroke="black" d="M3941.64,-1823.16C3956.45,-1842.05 3980.14,-1872.29 3996.72,-1893.45"/>
<polygon fill="black" stroke="black" points="3993.98,-1895.64 4002.9,-1901.36 3999.49,-1891.32 3993.98,-1895.64"/>
<text text-anchor="start" x="3908.18" y="-1862.11" font-family="Times New Roman,serif" font-size="14.00">member of</text>
</g>
<!-- Entity47 -->
<g id="node39" class="node entity">
<title>Entity47</title>
<ellipse fill="none" stroke="black" cx="5637.89" cy="-1568.63" rx="69.59" ry="18"/>
<text text-anchor="start" x="5592.39" y="-1564.93" font-family="Times New Roman,serif" font-size="14.00">andrew breitbart</text>
</g>
<!-- Entity47&#45;&gt;Entity83 -->
<g id="edge39" class="edge verb">
<title>Entity47&#45;&gt;Entity83</title>
<path fill="none" stroke="black" d="M5641.66,-1586.97C5645.15,-1603.92 5650.39,-1629.35 5654.39,-1648.83"/>
<polygon fill="black" stroke="black" points="5650.97,-1649.57 5656.42,-1658.66 5657.83,-1648.16 5650.97,-1649.57"/>
<text text-anchor="start" x="5607.03" y="-1621.7" font-family="Times New Roman,serif" font-size="14.00">created</text>
</g>
<!-- Entity35 -->
<g id="node42" class="node entity">
<title>Entity35</title>
<ellipse fill="none" stroke="black" cx="3317.94" cy="-1805.66" rx="39.79" ry="18"/>
<text text-anchor="start" x="3295.44" y="-1801.96" font-family="Times New Roman,serif" font-size="14.00">crowley</text>
</g>
<!-- Entity80 -->
<g id="node43" class="node entity">
<title>Entity80</title>
<ellipse fill="none" stroke="black" cx="3405.66" cy="-1917.64" rx="38.99" ry="18"/>
<text text-anchor="start" x="3383.66" y="-1913.94" font-family="Times New Roman,serif" font-size="14.00">x magic</text>
</g>
<!-- Entity35&#45;&gt;Entity80 -->
<g id="edge41" class="edge verb">
<title>Entity35&#45;&gt;Entity80</title>
<path fill="none" stroke="black" d="M3331.26,-1822.67C3345.82,-1841.25 3369.28,-1871.2 3385.96,-1892.49"/>
<polygon fill="black" stroke="black" points="3383.29,-1894.76 3392.21,-1900.47 3388.8,-1890.44 3383.29,-1894.76"/>
<text text-anchor="start" x="3297.61" y="-1861.38" font-family="Times New Roman,serif" font-size="14.00">member of</text>
</g>
<!-- Entity19 -->
<g id="node44" class="node entity">
<title>Entity19</title>
<ellipse fill="none" stroke="black" cx="4718.07" cy="-2239.42" rx="31.4" ry="18"/>
<text text-anchor="start" x="4702.07" y="-2235.72" font-family="Times New Roman,serif" font-size="14.00">carter</text>
</g>
<!-- Entity19&#45;&gt;Entity66 -->
<g id="edge44" class="edge verb">
<title>Entity19&#45;&gt;Entity66</title>
<path fill="none" stroke="black" d="M4747.5,-2245.82C4812.56,-2259.98 4968.66,-2293.94 5042.06,-2309.9"/>
<polygon fill="black" stroke="black" points="5041.76,-2313.42 5052.27,-2312.13 5043.25,-2306.58 5041.76,-2313.42"/>
<text text-anchor="start" x="4878.78" y="-2281.66" font-family="Times New Roman,serif" font-size="14.00">isa</text>
</g>
<!-- Entity19&#45;&gt;Entity90 -->
<g id="edge56" class="edge verb">
<title>Entity19&#45;&gt;Entity90</title>
<path fill="none" stroke="black" d="M4687.78,-2234.81C4622.84,-2224.91 4470.36,-2201.67 4399.85,-2190.92"/>
<polygon fill="black" stroke="black" points="4400.08,-2187.41 4389.66,-2189.37 4399.02,-2194.33 4400.08,-2187.41"/>
<text text-anchor="start" x="4488.82" y="-2216.66" font-family="Times New Roman,serif" font-size="14.00">witnessed</text>
</g>
<!-- Entity27 -->
<g id="node45" class="node entity">
<title>Entity27</title>
<ellipse fill="none" stroke="black" cx="74.99" cy="-4684.72" rx="75.29" ry="18"/>
<text text-anchor="start" x="24.99" y="-4681.02" font-family="Times New Roman,serif" font-size="14.00">lee harvey oswald</text>
</g>
<!-- Entity34 -->
<g id="node46" class="node entity">
<title>Entity34</title>
<ellipse fill="none" stroke="black" cx="537.22" cy="-4360.4" rx="59.29" ry="18"/>
<text text-anchor="start" x="499.72" y="-4356.7" font-family="Times New Roman,serif" font-size="14.00">guy bannister</text>
</g>
<!-- Entity27&#45;&gt;Entity34 -->
<g id="edge50" class="edge verb">
<title>Entity27&#45;&gt;Entity34</title>
<path fill="none" stroke="black" d="M99.51,-4667.52C177.2,-4613.01 417.82,-4444.18 505.15,-4382.91"/>
<polygon fill="black" stroke="black" points="507.41,-4385.59 513.59,-4376.98 503.39,-4379.86 507.41,-4385.59"/>
<text text-anchor="start" x="239.33" y="-4529.01" font-family="Times New Roman,serif" font-size="14.00">worked for</text>
</g>
<!-- Entity34&#45;&gt;Entity75 -->
<g id="edge51" class="edge verb">
<title>Entity34&#45;&gt;Entity75</title>
<path fill="none" stroke="black" d="M561.49,-4343.96C633.28,-4295.33 844.5,-4152.23 924.18,-4098.25"/>
<polygon fill="black" stroke="black" points="926.47,-4100.92 932.79,-4092.41 922.54,-4095.12 926.47,-4100.92"/>
<text text-anchor="start" x="681.83" y="-4224.9" font-family="Times New Roman,serif" font-size="14.00">member of</text>
</g>
<!-- Entity64 -->
<g id="node47" class="node entity">
<title>Entity64</title>
<ellipse fill="none" stroke="black" cx="4896.56" cy="-17.87" rx="73.39" ry="18"/>
<text text-anchor="start" x="4848.06" y="-14.17" font-family="Times New Roman,serif" font-size="14.00">madam blavatsky</text>
</g>
<!-- Entity64&#45;&gt;Entity86 -->
<g id="edge52" class="edge verb">
<title>Entity64&#45;&gt;Entity86</title>
<path fill="none" stroke="black" d="M4896.08,-35.92C4893.58,-128.52 4882.21,-550.33 4879.14,-664.27"/>
<polygon fill="black" stroke="black" points="4875.63,-664.52 4878.86,-674.61 4882.63,-664.7 4875.63,-664.52"/>
<text text-anchor="start" x="4846.61" y="-353.89" font-family="Times New Roman,serif" font-size="14.00">created</text>
</g>
<!-- Entity60 -->
<g id="node56" class="node entity">
<title>Entity60</title>
<ellipse fill="none" stroke="black" cx="4353.64" cy="-147.71" rx="58.49" ry="18"/>
<text text-anchor="start" x="4316.64" y="-144.01" font-family="Times New Roman,serif" font-size="14.00">rudolf steiner</text>
</g>
<!-- Entity60&#45;&gt;Entity86 -->
<g id="edge63" class="edge verb">
<title>Entity60&#45;&gt;Entity86</title>
<path fill="none" stroke="black" d="M4370.51,-165.22C4447.29,-244.97 4763.94,-573.86 4854.24,-667.65"/>
<polygon fill="black" stroke="black" points="4851.85,-670.21 4861.3,-674.99 4856.89,-665.36 4851.85,-670.21"/>
<text text-anchor="start" x="4546.37" y="-420.23" font-family="Times New Roman,serif" font-size="14.00">memberr of</text>
</g>
<!-- Entity93 -->
<g id="node57" class="node entity">
<title>Entity93</title>
<ellipse fill="none" stroke="black" cx="4229.85" cy="-39.66" rx="102.08" ry="18"/>
<text text-anchor="start" x="4159.35" y="-35.96" font-family="Times New Roman,serif" font-size="14.00">anthroposophical society</text>
</g>
<!-- Entity60&#45;&gt;Entity93 -->
<g id="edge60" class="edge verb">
<title>Entity60&#45;&gt;Entity93</title>
<path fill="none" stroke="black" d="M4334.03,-130.59C4313.53,-112.7 4281.2,-84.48 4257.99,-64.22"/>
<polygon fill="black" stroke="black" points="4260.03,-61.36 4250.2,-57.42 4255.43,-66.63 4260.03,-61.36"/>
<text text-anchor="start" x="4255.01" y="-101.21" font-family="Times New Roman,serif" font-size="14.00">created</text>
</g>
<!-- Entity109 -->
<g id="node60" class="node entity">
<title>Entity109</title>
<ellipse fill="none" stroke="black" cx="3602.94" cy="-2699.66" rx="27" ry="18"/>
<text text-anchor="start" x="3599.44" y="-2695.96" font-family="Times New Roman,serif" font-size="14.00">s</text>
</g>
<!-- Entity112 -->
<g id="node61" class="node entity">
<title>Entity112</title>
<ellipse fill="none" stroke="black" cx="3690.66" cy="-2811.64" rx="27" ry="18"/>
<text text-anchor="start" x="3686.66" y="-2807.94" font-family="Times New Roman,serif" font-size="14.00">o</text>
</g>
<!-- Entity109&#45;&gt;Entity112 -->
<g id="edge67" class="edge verb">
<title>Entity109&#45;&gt;Entity112</title>
<path fill="none" stroke="black" d="M3615.51,-2715.7C3630.23,-2734.5 3654.76,-2765.82 3671.78,-2787.53"/>
<polygon fill="black" stroke="black" points="3669.19,-2789.91 3678.11,-2795.62 3674.7,-2785.59 3669.19,-2789.91"/>
<text text-anchor="start" x="3636.64" y="-2755.42" font-family="Times New Roman,serif" font-size="14.00">v</text>
</g>
</g>
</svg>
