<?xml version="1.0" encoding="UTF-8" standalone="no"?>
<?xml-stylesheet href="./styles.css" type="text/css"?>
<!DOCTYPE svg PUBLIC "-//W3C//DTD SVG 1.1//EN"
 "http://www.w3.org/Graphics/SVG/1.1/DTD/svg11.dtd">
<!-- Generated by graphviz version 2.47.3 (20210619.1520)
 -->
<!-- Title: G Pages: 1 -->
<svg width="7069pt" height="4877pt"
 viewBox="0.00 0.00 7069.00 4877.00" xmlns="http://www.w3.org/2000/svg" xmlns:xlink="http://www.w3.org/1999/xlink">
<g id="graph0" class="graph" transform="scale(1 1) rotate(0) translate(4 4873)">
<title>G</title>
<polygon fill="white" stroke="transparent" points="-4,4 -4,-4873 7065,-4873 7065,4 -4,4"/>
<!-- Entity3 -->
<g id="node1" class="node entity">
<title>Entity3</title>
<ellipse fill="none" stroke="black" cx="4755.14" cy="-3737.82" rx="27" ry="18"/>
<text text-anchor="start" x="4747.64" y="-3734.12" font-family="Times New Roman,serif" font-size="14.00">jfk</text>
</g>
<!-- Entity22 -->
<g id="node2" class="node entity">
<title>Entity22</title>
<ellipse fill="none" stroke="black" cx="4437.23" cy="-3660" rx="27" ry="18"/>
<text text-anchor="start" x="4429.23" y="-3656.3" font-family="Times New Roman,serif" font-size="14.00">cia</text>
</g>
<!-- Entity3&#45;&gt;Entity22 -->
<g id="edge1" class="edge verb">
<title>Entity3&#45;&gt;Entity22</title>
<path fill="none" stroke="black" d="M4729.66,-3731.58C4673.16,-3717.75 4537.24,-3684.49 4472.57,-3668.66"/>
<polygon fill="black" stroke="black" points="4473.37,-3665.25 4462.83,-3666.27 4471.71,-3672.05 4473.37,-3665.25"/>
<text text-anchor="start" x="4497.12" y="-3703.92" font-family="Times New Roman,serif" font-size="14.00">heads (1961&#45;1963)</text>
</g>
<!-- Entity66 -->
<g id="node20" class="node entity">
<title>Entity66</title>
<ellipse fill="none" stroke="black" cx="5109.96" cy="-3697.52" rx="31.4" ry="18"/>
<text text-anchor="start" x="5093.96" y="-3693.82" font-family="Times New Roman,serif" font-size="14.00">potus</text>
</g>
<!-- Entity3&#45;&gt;Entity66 -->
<g id="edge23" class="edge verb">
<title>Entity3&#45;&gt;Entity66</title>
<path fill="none" stroke="black" d="M4781.81,-3734.79C4843.33,-3727.8 4995.52,-3710.52 5068.98,-3702.17"/>
<polygon fill="black" stroke="black" points="5069.69,-3705.62 5079.23,-3701.01 5068.9,-3698.66 5069.69,-3705.62"/>
<text text-anchor="start" x="4838.4" y="-3722.28" font-family="Times New Roman,serif" font-size="14.00">isa (1961&#45;1963)</text>
</g>
<!-- Entity67 -->
<g id="node25" class="node entity">
<title>Entity67</title>
<ellipse fill="none" stroke="black" cx="3780.65" cy="-3834.66" rx="77.19" ry="18"/>
<text text-anchor="start" x="3729.15" y="-3830.96" font-family="Times New Roman,serif" font-size="14.00">psi&#45;consciousness</text>
</g>
<!-- Entity22&#45;&gt;Entity67 -->
<g id="edge43" class="edge verb">
<title>Entity22&#45;&gt;Entity67</title>
<path fill="none" stroke="black" d="M4411.89,-3666.74C4316.96,-3692 3980.65,-3781.46 3841.56,-3818.46"/>
<polygon fill="black" stroke="black" points="3840.65,-3815.08 3831.89,-3821.03 3842.45,-3821.84 3840.65,-3815.08"/>
<text text-anchor="start" x="4062.72" y="-3746.4" font-family="Times New Roman,serif" font-size="14.00">investigates</text>
</g>
<!-- Entity90 -->
<g id="node52" class="node entity">
<title>Entity90</title>
<ellipse fill="none" stroke="black" cx="4469.24" cy="-3395.16" rx="27" ry="18"/>
<text text-anchor="start" x="4459.74" y="-3391.46" font-family="Times New Roman,serif" font-size="14.00">ufo</text>
</g>
<!-- Entity22&#45;&gt;Entity90 -->
<g id="edge62" class="edge verb">
<title>Entity22&#45;&gt;Entity90</title>
<path fill="none" stroke="black" d="M4439.43,-3641.8C4444.92,-3596.33 4459.28,-3477.55 4465.86,-3423.12"/>
<polygon fill="black" stroke="black" points="4469.34,-3423.49 4467.06,-3413.14 4462.39,-3422.65 4469.34,-3423.49"/>
<text text-anchor="start" x="4388.64" y="-3536.26" font-family="Times New Roman,serif" font-size="14.00">investigates</text>
</g>
<!-- Entity14 -->
<g id="node3" class="node entity">
<title>Entity14</title>
<ellipse fill="none" stroke="black" cx="2876.56" cy="-3292.69" rx="74.99" ry="18"/>
<text text-anchor="start" x="2827.06" y="-3288.99" font-family="Times New Roman,serif" font-size="14.00">gene roddenberry</text>
</g>
<!-- Entity8 -->
<g id="node4" class="node entity">
<title>Entity8</title>
<ellipse fill="none" stroke="black" cx="3245.49" cy="-3665.24" rx="38.19" ry="18"/>
<text text-anchor="start" x="3223.99" y="-3661.54" font-family="Times New Roman,serif" font-size="14.00">the nine</text>
</g>
<!-- Entity14&#45;&gt;Entity8 -->
<g id="edge2" class="edge verb">
<title>Entity14&#45;&gt;Entity8</title>
<path fill="none" stroke="black" d="M2894.35,-3310.66C2954.92,-3371.82 3153.1,-3571.95 3221.8,-3641.31"/>
<polygon fill="black" stroke="black" points="3219.62,-3644.09 3229.14,-3648.74 3224.6,-3639.17 3219.62,-3644.09"/>
<text text-anchor="start" x="2954.07" y="-3479.79" font-family="Times New Roman,serif" font-size="14.00">claiemd to channel</text>
</g>
<!-- Entity70 -->
<g id="node23" class="node entity">
<title>Entity70</title>
<ellipse fill="none" stroke="black" cx="3099.27" cy="-3557.2" rx="94.48" ry="18"/>
<text text-anchor="start" x="3034.77" y="-3553.5" font-family="Times New Roman,serif" font-size="14.00">egyptian gods in a ship</text>
</g>
<!-- Entity8&#45;&gt;Entity70 -->
<g id="edge16" class="edge verb">
<title>Entity8&#45;&gt;Entity70</title>
<path fill="none" stroke="black" d="M3224.85,-3649.99C3200.59,-3632.07 3160.05,-3602.11 3131.61,-3581.1"/>
<polygon fill="black" stroke="black" points="3133.32,-3578.01 3123.2,-3574.89 3129.16,-3583.64 3133.32,-3578.01"/>
<text text-anchor="start" x="3074.23" y="-3619.35" font-family="Times New Roman,serif" font-size="14.00">claimed to channel</text>
</g>
<!-- Entity16 -->
<g id="node5" class="node entity">
<title>Entity16</title>
<ellipse fill="none" stroke="black" cx="5571.23" cy="-3778.51" rx="68.49" ry="18"/>
<text text-anchor="start" x="5526.73" y="-3774.81" font-family="Times New Roman,serif" font-size="14.00">george hw bush</text>
</g>
<!-- Entity20 -->
<g id="node6" class="node entity">
<title>Entity20</title>
<ellipse fill="none" stroke="black" cx="5175.01" cy="-3805.49" rx="63.89" ry="18"/>
<text text-anchor="start" x="5134.01" y="-3801.79" font-family="Times New Roman,serif" font-size="14.00">george w bush</text>
</g>
<!-- Entity16&#45;&gt;Entity20 -->
<g id="edge3" class="edge verb">
<title>Entity16&#45;&gt;Entity20</title>
<path fill="none" stroke="black" d="M5504.92,-3783.03C5433.59,-3787.88 5320.55,-3795.58 5247.07,-3800.58"/>
<polygon fill="black" stroke="black" points="5246.71,-3797.1 5236.97,-3801.27 5247.19,-3804.08 5246.71,-3797.1"/>
<text text-anchor="start" x="5343.99" y="-3795.6" font-family="Times New Roman,serif" font-size="14.00">father</text>
</g>
<!-- Entity16&#45;&gt;Entity66 -->
<g id="edge20" class="edge verb">
<title>Entity16&#45;&gt;Entity66</title>
<path fill="none" stroke="black" d="M5514.21,-3768.5C5419.44,-3751.86 5231.82,-3718.92 5149.85,-3704.52"/>
<polygon fill="black" stroke="black" points="5150.39,-3701.06 5139.93,-3702.78 5149.17,-3707.96 5150.39,-3701.06"/>
<text text-anchor="start" x="5316.03" y="-3740.31" font-family="Times New Roman,serif" font-size="14.00">isa</text>
</g>
<!-- Entity20&#45;&gt;Entity66 -->
<g id="edge42" class="edge verb">
<title>Entity20&#45;&gt;Entity66</title>
<path fill="none" stroke="black" d="M5164.27,-3787.66C5153.69,-3770.1 5137.42,-3743.11 5125.45,-3723.23"/>
<polygon fill="black" stroke="black" points="5128.44,-3721.42 5120.29,-3714.66 5122.45,-3725.03 5128.44,-3721.42"/>
<text text-anchor="start" x="5128.86" y="-3759.24" font-family="Times New Roman,serif" font-size="14.00">isa</text>
</g>
<!-- Entity2 -->
<g id="node7" class="node entity">
<title>Entity2</title>
<ellipse fill="none" stroke="black" cx="3417.96" cy="-3942.28" rx="41.69" ry="18"/>
<text text-anchor="start" x="3393.96" y="-3938.58" font-family="Times New Roman,serif" font-size="14.00">uri geller</text>
</g>
<!-- Entity2&#45;&gt;Entity8 -->
<g id="edge4" class="edge verb">
<title>Entity2&#45;&gt;Entity8</title>
<path fill="none" stroke="black" d="M3406.91,-3924.53C3377.4,-3877.13 3296.64,-3747.4 3261.82,-3691.48"/>
<polygon fill="black" stroke="black" points="3264.71,-3689.49 3256.45,-3682.85 3258.77,-3693.19 3264.71,-3689.49"/>
<text text-anchor="start" x="3230.37" y="-3796.8" font-family="Times New Roman,serif" font-size="14.00">claiemd to channel</text>
</g>
<!-- Entity26 -->
<g id="node8" class="node entity">
<title>Entity26</title>
<ellipse fill="none" stroke="black" cx="1118.19" cy="-4715.12" rx="49.29" ry="18"/>
<text text-anchor="start" x="1088.19" y="-4711.42" font-family="Times New Roman,serif" font-size="14.00">adolf hitler</text>
</g>
<!-- Entity28 -->
<g id="node9" class="node entity">
<title>Entity28</title>
<ellipse fill="none" stroke="black" cx="1413.14" cy="-4442.95" rx="32.49" ry="18"/>
<text text-anchor="start" x="1396.14" y="-4439.25" font-family="Times New Roman,serif" font-size="14.00">nsdap</text>
</g>
<!-- Entity26&#45;&gt;Entity28 -->
<g id="edge5" class="edge verb">
<title>Entity26&#45;&gt;Entity28</title>
<path fill="none" stroke="black" d="M1136.64,-4698.1C1187.71,-4650.97 1330.97,-4518.78 1388.64,-4465.57"/>
<polygon fill="black" stroke="black" points="1391.21,-4467.96 1396.19,-4458.6 1386.46,-4462.81 1391.21,-4467.96"/>
<text text-anchor="start" x="1221.64" y="-4585.63" font-family="Times New Roman,serif" font-size="14.00">created</text>
</g>
<!-- Entity75 -->
<g id="node31" class="node entity">
<title>Entity75</title>
<ellipse fill="none" stroke="black" cx="959.06" cy="-4525.43" rx="38.99" ry="18"/>
<text text-anchor="start" x="937.06" y="-4521.73" font-family="Times New Roman,serif" font-size="14.00">far right</text>
</g>
<!-- Entity28&#45;&gt;Entity75 -->
<g id="edge29" class="edge verb">
<title>Entity28&#45;&gt;Entity75</title>
<path fill="none" stroke="black" d="M1381.93,-4448.62C1303.52,-4462.87 1097.94,-4500.21 1005.39,-4517.02"/>
<polygon fill="black" stroke="black" points="1004.69,-4513.59 995.47,-4518.82 1005.94,-4520.48 1004.69,-4513.59"/>
<text text-anchor="start" x="1132.66" y="-4486.62" font-family="Times New Roman,serif" font-size="14.00">member of</text>
</g>
<!-- Entity15 -->
<g id="node10" class="node entity">
<title>Entity15</title>
<ellipse fill="none" stroke="black" cx="5635.55" cy="-3553.45" rx="59.59" ry="18"/>
<text text-anchor="start" x="5597.55" y="-3549.75" font-family="Times New Roman,serif" font-size="14.00">donald trump</text>
</g>
<!-- Entity48 -->
<g id="node11" class="node entity">
<title>Entity48</title>
<ellipse fill="none" stroke="black" cx="4979.25" cy="-3504.17" rx="50.09" ry="18"/>
<text text-anchor="start" x="4948.75" y="-3500.47" font-family="Times New Roman,serif" font-size="14.00">john trump</text>
</g>
<!-- Entity15&#45;&gt;Entity48 -->
<g id="edge6" class="edge verb">
<title>Entity15&#45;&gt;Entity48</title>
<path fill="none" stroke="black" d="M5577.31,-3549.08C5453.12,-3539.75 5163.45,-3518 5038.43,-3508.61"/>
<polygon fill="black" stroke="black" points="5038.52,-3505.11 5028.29,-3507.85 5038,-3512.09 5038.52,-3505.11"/>
<text text-anchor="start" x="5248.87" y="-3532.65" font-family="Times New Roman,serif" font-size="14.00">nephew of</text>
</g>
<!-- Entity15&#45;&gt;Entity66 -->
<g id="edge27" class="edge verb">
<title>Entity15&#45;&gt;Entity66</title>
<path fill="none" stroke="black" d="M5591.19,-3565.61C5489.95,-3593.36 5243.26,-3660.98 5148.19,-3687.04"/>
<polygon fill="black" stroke="black" points="5147.14,-3683.7 5138.42,-3689.72 5148.99,-3690.45 5147.14,-3683.7"/>
<text text-anchor="start" x="5353.69" y="-3630.13" font-family="Times New Roman,serif" font-size="14.00">isa</text>
</g>
<!-- Entity48&#45;&gt;Entity22 -->
<g id="edge10" class="edge verb">
<title>Entity48&#45;&gt;Entity22</title>
<path fill="none" stroke="black" d="M4939.84,-3515.5C4838.18,-3544.73 4568.36,-3622.3 4472.02,-3650"/>
<polygon fill="black" stroke="black" points="4470.84,-3646.7 4462.2,-3652.83 4472.78,-3653.43 4470.84,-3646.7"/>
<text text-anchor="start" x="4644.93" y="-3586.55" font-family="Times New Roman,serif" font-size="14.00">member of</text>
</g>
<!-- Entity82 -->
<g id="node41" class="node entity">
<title>Entity82</title>
<ellipse fill="none" stroke="black" cx="5163.97" cy="-3066.65" rx="50.89" ry="18"/>
<text text-anchor="start" x="5132.97" y="-3062.95" font-family="Times New Roman,serif" font-size="14.00">nikola tesla</text>
</g>
<!-- Entity48&#45;&gt;Entity82 -->
<g id="edge40" class="edge verb">
<title>Entity48&#45;&gt;Entity82</title>
<path fill="none" stroke="black" d="M4986.84,-3486.2C5015.58,-3418.13 5117.89,-3175.79 5152.46,-3093.9"/>
<polygon fill="black" stroke="black" points="5155.76,-3095.09 5156.42,-3084.52 5149.31,-3092.37 5155.76,-3095.09"/>
<text text-anchor="start" x="5028.65" y="-3293.85" font-family="Times New Roman,serif" font-size="14.00">studied</text>
</g>
<!-- Entity5 -->
<g id="node12" class="node entity">
<title>Entity5</title>
<ellipse fill="none" stroke="black" cx="3040.27" cy="-3941.63" rx="56.59" ry="18"/>
<text text-anchor="start" x="3004.77" y="-3937.93" font-family="Times New Roman,serif" font-size="14.00">arthur young</text>
</g>
<!-- Entity5&#45;&gt;Entity8 -->
<g id="edge7" class="edge verb">
<title>Entity5&#45;&gt;Entity8</title>
<path fill="none" stroke="black" d="M3053.42,-3923.92C3088.69,-3876.42 3185.49,-3746.06 3226.61,-3690.67"/>
<polygon fill="black" stroke="black" points="3229.56,-3692.57 3232.72,-3682.45 3223.94,-3688.39 3229.56,-3692.57"/>
<text text-anchor="start" x="3078.01" y="-3811.1" font-family="Times New Roman,serif" font-size="14.00">member&#45;of</text>
</g>
<!-- Entity5&#45;&gt;Entity67 -->
<g id="edge18" class="edge verb">
<title>Entity5&#45;&gt;Entity67</title>
<path fill="none" stroke="black" d="M3092.04,-3934.15C3220.42,-3915.6 3553.96,-3867.41 3704.71,-3845.63"/>
<polygon fill="black" stroke="black" points="3705.41,-3849.07 3714.8,-3844.17 3704.41,-3842.14 3705.41,-3849.07"/>
<text text-anchor="start" x="3357.37" y="-3893.69" font-family="Times New Roman,serif" font-size="14.00">studied</text>
</g>
<!-- Entity72 -->
<g id="node28" class="node entity">
<title>Entity72</title>
<ellipse fill="none" stroke="black" cx="2464.59" cy="-3996.49" rx="53.89" ry="18"/>
<text text-anchor="start" x="2431.09" y="-3992.79" font-family="Times New Roman,serif" font-size="14.00">bell aviation</text>
</g>
<!-- Entity5&#45;&gt;Entity72 -->
<g id="edge24" class="edge verb">
<title>Entity5&#45;&gt;Entity72</title>
<path fill="none" stroke="black" d="M2985.85,-3946.82C2878.49,-3957.05 2640.02,-3979.77 2526.71,-3990.57"/>
<polygon fill="black" stroke="black" points="2526.09,-3987.12 2516.47,-3991.55 2526.76,-3994.08 2526.09,-3987.12"/>
<text text-anchor="start" x="2715.28" y="-3972.5" font-family="Times New Roman,serif" font-size="14.00">created</text>
</g>
<!-- Entity1 -->
<g id="node13" class="node entity">
<title>Entity1</title>
<ellipse fill="none" stroke="black" cx="3378.41" cy="-4050.31" rx="64.19" ry="18"/>
<text text-anchor="start" x="3336.91" y="-4046.61" font-family="Times New Roman,serif" font-size="14.00">andre puharich</text>
</g>
<!-- Entity1&#45;&gt;Entity2 -->
<g id="edge8" class="edge verb">
<title>Entity1&#45;&gt;Entity2</title>
<path fill="none" stroke="black" d="M3385.12,-4031.99C3391.35,-4014.97 3400.72,-3989.39 3407.85,-3969.89"/>
<polygon fill="black" stroke="black" points="3411.2,-3970.93 3411.35,-3960.33 3404.63,-3968.52 3411.2,-3970.93"/>
<text text-anchor="start" x="3336.49" y="-4004.74" font-family="Times New Roman,serif" font-size="14.00">sponsored</text>
</g>
<!-- Entity7 -->
<g id="node14" class="node entity">
<title>Entity7</title>
<ellipse fill="none" stroke="black" cx="3253.1" cy="-3833.62" rx="68.49" ry="18"/>
<text text-anchor="start" x="3208.6" y="-3829.92" font-family="Times New Roman,serif" font-size="14.00">jeffrey mishlove</text>
</g>
<!-- Entity7&#45;&gt;Entity2 -->
<g id="edge9" class="edge verb">
<title>Entity7&#45;&gt;Entity2</title>
<path fill="none" stroke="black" d="M3278.5,-3850.36C3307.56,-3869.52 3355.17,-3900.89 3386.54,-3921.57"/>
<polygon fill="black" stroke="black" points="3384.65,-3924.52 3394.93,-3927.1 3388.51,-3918.67 3384.65,-3924.52"/>
<text text-anchor="start" x="3277.52" y="-3889.77" font-family="Times New Roman,serif" font-size="14.00">promoted</text>
</g>
<!-- Entity7&#45;&gt;Entity67 -->
<g id="edge19" class="edge verb">
<title>Entity7&#45;&gt;Entity67</title>
<path fill="none" stroke="black" d="M3319.11,-3838.41C3414.35,-3841.22 3590.4,-3841.73 3695.38,-3839.62"/>
<polygon fill="black" stroke="black" points="3695.7,-3843.11 3705.62,-3839.4 3695.55,-3836.11 3695.7,-3843.11"/>
<text text-anchor="start" x="3466.24" y="-3842.81" font-family="Times New Roman,serif" font-size="14.00">studied</text>
</g>
<!-- Entity7&#45;&gt;Entity67 -->
<g id="edge26" class="edge verb">
<title>Entity7&#45;&gt;Entity67</title>
<path fill="none" stroke="black" d="M3319.39,-3829.1C3414.87,-3826.66 3591.12,-3826.85 3695.93,-3829.38"/>
<polygon fill="black" stroke="black" points="3696.07,-3832.88 3706.16,-3829.64 3696.25,-3825.89 3696.07,-3832.88"/>
<text text-anchor="start" x="3443.66" y="-3818.04" font-family="Times New Roman,serif" font-size="14.00">investigates</text>
</g>
<!-- Entity30 -->
<g id="node15" class="node entity">
<title>Entity30</title>
<ellipse fill="none" stroke="black" cx="2034.44" cy="-4245.92" rx="74.99" ry="18"/>
<text text-anchor="start" x="1984.94" y="-4242.22" font-family="Times New Roman,serif" font-size="14.00">walter dornberger</text>
</g>
<!-- Entity30&#45;&gt;Entity28 -->
<g id="edge11" class="edge verb">
<title>Entity30&#45;&gt;Entity28</title>
<path fill="none" stroke="black" d="M1989,-4260.33C1871.54,-4297.58 1559.44,-4396.56 1450.94,-4430.97"/>
<polygon fill="black" stroke="black" points="1449.87,-4427.64 1441.39,-4434 1451.98,-4434.31 1449.87,-4427.64"/>
<text text-anchor="start" x="1658.97" y="-4349.45" font-family="Times New Roman,serif" font-size="14.00">member of</text>
</g>
<!-- Entity30&#45;&gt;Entity72 -->
<g id="edge35" class="edge verb">
<title>Entity30&#45;&gt;Entity72</title>
<path fill="none" stroke="black" d="M2069.75,-4229.86C2152.14,-4186.61 2355.81,-4068.5 2433.68,-4018.81"/>
<polygon fill="black" stroke="black" points="2436.03,-4021.46 2442.53,-4013.1 2432.23,-4015.58 2436.03,-4021.46"/>
<text text-anchor="start" x="2172.71" y="-4128.14" font-family="Times New Roman,serif" font-size="14.00">vice&#45;president</text>
</g>
<!-- Entity30&#45;&gt;Entity72 -->
<g id="edge49" class="edge verb">
<title>Entity30&#45;&gt;Entity72</title>
<path fill="none" stroke="black" d="M2057.42,-4228.71C2126.75,-4183.58 2334.24,-4062.99 2423.29,-4015.71"/>
<polygon fill="black" stroke="black" points="2425.07,-4018.73 2432.29,-4010.97 2421.81,-4012.54 2425.07,-4018.73"/>
<text text-anchor="start" x="2184.36" y="-4111.01" font-family="Times New Roman,serif" font-size="14.00">worked at</text>
</g>
<!-- Entity76 -->
<g id="node35" class="node entity">
<title>Entity76</title>
<ellipse fill="none" stroke="black" cx="2667.86" cy="-4110.89" rx="90.98" ry="18"/>
<text text-anchor="start" x="2605.86" y="-4107.19" font-family="Times New Roman,serif" font-size="14.00">nsdap rocket program</text>
</g>
<!-- Entity30&#45;&gt;Entity76 -->
<g id="edge36" class="edge verb">
<title>Entity30&#45;&gt;Entity76</title>
<path fill="none" stroke="black" d="M2090.65,-4233.93C2205.77,-4209.39 2468.21,-4153.45 2595.69,-4126.27"/>
<polygon fill="black" stroke="black" points="2596.7,-4129.64 2605.75,-4124.13 2595.24,-4122.79 2596.7,-4129.64"/>
<text text-anchor="start" x="2302.17" y="-4183.9" font-family="Times New Roman,serif" font-size="14.00">created</text>
</g>
<!-- Entity104 -->
<g id="node55" class="node entity">
<title>Entity104</title>
<ellipse fill="none" stroke="black" cx="1859.3" cy="-4353.88" rx="65.79" ry="18"/>
<text text-anchor="start" x="1816.8" y="-4350.18" font-family="Times New Roman,serif" font-size="14.00">x series aircraft</text>
</g>
<!-- Entity30&#45;&gt;Entity104 -->
<g id="edge59" class="edge verb">
<title>Entity30&#45;&gt;Entity104</title>
<path fill="none" stroke="black" d="M2007.07,-4262.79C1976.91,-4281.38 1928.28,-4311.36 1895.1,-4331.81"/>
<polygon fill="black" stroke="black" points="1892.86,-4329.08 1886.19,-4337.31 1896.54,-4335.04 1892.86,-4329.08"/>
<text text-anchor="start" x="1910.09" y="-4301.1" font-family="Times New Roman,serif" font-size="14.00">created</text>
</g>
<!-- Entity32 -->
<g id="node16" class="node entity">
<title>Entity32</title>
<ellipse fill="none" stroke="black" cx="2515.01" cy="-4218.95" rx="46.29" ry="18"/>
<text text-anchor="start" x="2487.51" y="-4215.25" font-family="Times New Roman,serif" font-size="14.00">van braun</text>
</g>
<!-- Entity32&#45;&gt;Entity30 -->
<g id="edge12" class="edge verb">
<title>Entity32&#45;&gt;Entity30</title>
<path fill="none" stroke="black" d="M2468.93,-4221.54C2388.07,-4226.07 2219.58,-4235.53 2117.81,-4241.24"/>
<polygon fill="black" stroke="black" points="2117.36,-4237.76 2107.57,-4241.81 2117.75,-4244.75 2117.36,-4237.76"/>
<text text-anchor="start" x="2230.37" y="-4235.19" font-family="Times New Roman,serif" font-size="14.00">worked for</text>
</g>
<!-- Entity32&#45;&gt;Entity76 -->
<g id="edge48" class="edge verb">
<title>Entity32&#45;&gt;Entity76</title>
<path fill="none" stroke="black" d="M2537.56,-4203C2563.26,-4184.84 2605.49,-4154.98 2634.88,-4134.2"/>
<polygon fill="black" stroke="black" points="2637.04,-4136.96 2643.18,-4128.33 2633,-4131.25 2637.04,-4136.96"/>
<text text-anchor="start" x="2530.22" y="-4172.4" font-family="Times New Roman,serif" font-size="14.00">worked at</text>
</g>
<!-- Entity29 -->
<g id="node17" class="node entity">
<title>Entity29</title>
<ellipse fill="none" stroke="black" cx="4708.86" cy="-4259.04" rx="37.89" ry="18"/>
<text text-anchor="start" x="4687.86" y="-4255.34" font-family="Times New Roman,serif" font-size="14.00">hunt oil</text>
</g>
<!-- Entity36 -->
<g id="node18" class="node entity">
<title>Entity36</title>
<ellipse fill="none" stroke="black" cx="4751.74" cy="-4150.96" rx="77.99" ry="18"/>
<text text-anchor="start" x="4699.74" y="-4147.26" font-family="Times New Roman,serif" font-size="14.00">dwight eisenhower</text>
</g>
<!-- Entity29&#45;&gt;Entity36 -->
<g id="edge13" class="edge verb">
<title>Entity29&#45;&gt;Entity36</title>
<path fill="none" stroke="black" d="M4715.94,-4241.19C4722.7,-4224.17 4732.97,-4198.26 4740.79,-4178.57"/>
<polygon fill="black" stroke="black" points="4744.07,-4179.78 4744.51,-4169.2 4737.56,-4177.2 4744.07,-4179.78"/>
<text text-anchor="start" x="4688.36" y="-4213.68" font-family="Times New Roman,serif" font-size="14.00">funded</text>
</g>
<!-- Entity36&#45;&gt;Entity66 -->
<g id="edge34" class="edge verb">
<title>Entity36&#45;&gt;Entity66</title>
<path fill="none" stroke="black" d="M4765.78,-4133.19C4821.32,-4062.88 5025.74,-3804.12 5090.29,-3722.41"/>
<polygon fill="black" stroke="black" points="5093.32,-3724.22 5096.78,-3714.2 5087.83,-3719.88 5093.32,-3724.22"/>
<text text-anchor="start" x="4909.04" y="-3931.6" font-family="Times New Roman,serif" font-size="14.00">is a</text>
</g>
<!-- Entity11 -->
<g id="node19" class="node entity">
<title>Entity11</title>
<ellipse fill="none" stroke="black" cx="5506.31" cy="-4019.11" rx="56.59" ry="18"/>
<text text-anchor="start" x="5470.81" y="-4015.41" font-family="Times New Roman,serif" font-size="14.00">harry truman</text>
</g>
<!-- Entity11&#45;&gt;Entity66 -->
<g id="edge14" class="edge verb">
<title>Entity11&#45;&gt;Entity66</title>
<path fill="none" stroke="black" d="M5485.56,-4002.27C5418.84,-3948.14 5209.91,-3778.62 5136.1,-3718.73"/>
<polygon fill="black" stroke="black" points="5138.16,-3715.89 5128.19,-3712.31 5133.75,-3721.33 5138.16,-3715.89"/>
<text text-anchor="start" x="5294.83" y="-3864.3" font-family="Times New Roman,serif" font-size="14.00">isa</text>
</g>
<!-- Entity69 -->
<g id="node24" class="node entity">
<title>Entity69</title>
<ellipse fill="none" stroke="black" cx="5897.71" cy="-4374.23" rx="55.79" ry="18"/>
<text text-anchor="start" x="5862.71" y="-4370.53" font-family="Times New Roman,serif" font-size="14.00">freemasonry</text>
</g>
<!-- Entity11&#45;&gt;Entity69 -->
<g id="edge17" class="edge verb">
<title>Entity11&#45;&gt;Entity69</title>
<path fill="none" stroke="black" d="M5525.18,-4036.24C5588.98,-4094.12 5796.7,-4282.58 5870.99,-4349.99"/>
<polygon fill="black" stroke="black" points="5868.8,-4352.73 5878.56,-4356.86 5873.51,-4347.55 5868.8,-4352.73"/>
<text text-anchor="start" x="5637.09" y="-4196.91" font-family="Times New Roman,serif" font-size="14.00">member of</text>
</g>
<!-- Entity63 -->
<g id="node21" class="node entity">
<title>Entity63</title>
<ellipse fill="none" stroke="black" cx="5405.06" cy="-4851.19" rx="53.89" ry="18"/>
<text text-anchor="start" x="5371.56" y="-4847.49" font-family="Times New Roman,serif" font-size="14.00">edgar casey</text>
</g>
<!-- Entity59 -->
<g id="node22" class="node entity">
<title>Entity59</title>
<ellipse fill="none" stroke="black" cx="5219.83" cy="-4304.71" rx="71.49" ry="18"/>
<text text-anchor="start" x="5172.83" y="-4301.01" font-family="Times New Roman,serif" font-size="14.00">woodrow wilson</text>
</g>
<!-- Entity63&#45;&gt;Entity59 -->
<g id="edge15" class="edge verb">
<title>Entity63&#45;&gt;Entity59</title>
<path fill="none" stroke="black" d="M5398.9,-4833C5371.67,-4752.68 5262.09,-4429.37 5229.21,-4332.36"/>
<polygon fill="black" stroke="black" points="5232.45,-4331.03 5225.92,-4322.68 5225.82,-4333.28 5232.45,-4331.03"/>
<text text-anchor="start" x="5272.05" y="-4586.48" font-family="Times New Roman,serif" font-size="14.00">advises</text>
</g>
<!-- Entity59&#45;&gt;Entity66 -->
<g id="edge30" class="edge verb">
<title>Entity59&#45;&gt;Entity66</title>
<path fill="none" stroke="black" d="M5216.54,-4286.54C5200.91,-4200.12 5134.03,-3830.56 5115.02,-3725.49"/>
<polygon fill="black" stroke="black" points="5118.46,-3724.84 5113.23,-3715.62 5111.57,-3726.08 5118.46,-3724.84"/>
<text text-anchor="start" x="5149.78" y="-4009.81" font-family="Times New Roman,serif" font-size="14.00">isa</text>
</g>
<!-- Entity92 -->
<g id="node50" class="node entity">
<title>Entity92</title>
<ellipse fill="none" stroke="black" cx="5229.45" cy="-4412.65" rx="71.49" ry="18"/>
<text text-anchor="start" x="5182.45" y="-4408.95" font-family="Times New Roman,serif" font-size="14.00">leauge of nations</text>
</g>
<!-- Entity59&#45;&gt;Entity92 -->
<g id="edge54" class="edge verb">
<title>Entity59&#45;&gt;Entity92</title>
<path fill="none" stroke="black" d="M5221.46,-4323.02C5222.96,-4339.87 5225.21,-4365.11 5226.94,-4384.52"/>
<polygon fill="black" stroke="black" points="5223.47,-4384.96 5227.84,-4394.61 5230.44,-4384.34 5223.47,-4384.96"/>
<text text-anchor="start" x="5183.2" y="-4357.57" font-family="Times New Roman,serif" font-size="14.00">created</text>
</g>
<!-- Entity18 -->
<g id="node26" class="node entity">
<title>Entity18</title>
<ellipse fill="none" stroke="black" cx="5351.82" cy="-3437.54" rx="35.19" ry="18"/>
<text text-anchor="start" x="5332.82" y="-3433.84" font-family="Times New Roman,serif" font-size="14.00">obama</text>
</g>
<!-- Entity18&#45;&gt;Entity66 -->
<g id="edge21" class="edge verb">
<title>Entity18&#45;&gt;Entity66</title>
<path fill="none" stroke="black" d="M5336.69,-3453.8C5295.28,-3498.32 5179.95,-3622.28 5131.66,-3674.19"/>
<polygon fill="black" stroke="black" points="5129.02,-3671.89 5124.77,-3681.59 5134.15,-3676.66 5129.02,-3671.89"/>
<text text-anchor="start" x="5218.18" y="-3567.8" font-family="Times New Roman,serif" font-size="14.00">isa</text>
</g>
<!-- Entity12 -->
<g id="node27" class="node entity">
<title>Entity12</title>
<ellipse fill="none" stroke="black" cx="5161.16" cy="-4118.31" rx="58.49" ry="18"/>
<text text-anchor="start" x="5124.16" y="-4114.61" font-family="Times New Roman,serif" font-size="14.00">richard nixon</text>
</g>
<!-- Entity12&#45;&gt;Entity66 -->
<g id="edge22" class="edge verb">
<title>Entity12&#45;&gt;Entity66</title>
<path fill="none" stroke="black" d="M5158.96,-4100.22C5150.93,-4034.27 5123.19,-3806.28 5113.41,-3725.87"/>
<polygon fill="black" stroke="black" points="5116.83,-3725.04 5112.15,-3715.53 5109.88,-3725.88 5116.83,-3725.04"/>
<text text-anchor="start" x="5120.18" y="-3916.85" font-family="Times New Roman,serif" font-size="14.00">isa</text>
</g>
<!-- Entity24 -->
<g id="node29" class="node entity">
<title>Entity24</title>
<ellipse fill="none" stroke="black" cx="3745.68" cy="-3942.6" rx="63.89" ry="18"/>
<text text-anchor="start" x="3704.68" y="-3938.9" font-family="Times New Roman,serif" font-size="14.00">robert bigelow</text>
</g>
<!-- Entity24&#45;&gt;Entity7 -->
<g id="edge25" class="edge verb">
<title>Entity24&#45;&gt;Entity7</title>
<path fill="none" stroke="black" d="M3695.28,-3931.45C3604.6,-3911.39 3414.24,-3869.28 3315.5,-3847.43"/>
<polygon fill="black" stroke="black" points="3316.17,-3843.99 3305.65,-3845.25 3314.66,-3850.83 3316.17,-3843.99"/>
<text text-anchor="start" x="3473.39" y="-3893.24" font-family="Times New Roman,serif" font-size="14.00">funds</text>
</g>
<!-- Entity24&#45;&gt;Entity67 -->
<g id="edge45" class="edge verb">
<title>Entity24&#45;&gt;Entity67</title>
<path fill="none" stroke="black" d="M3751.61,-3924.29C3757.12,-3907.29 3765.4,-3881.73 3771.71,-3862.25"/>
<polygon fill="black" stroke="black" points="3775.05,-3863.29 3774.8,-3852.7 3768.39,-3861.13 3775.05,-3863.29"/>
<text text-anchor="start" x="3697.66" y="-3897.07" font-family="Times New Roman,serif" font-size="14.00">investigates</text>
</g>
<!-- Entity44 -->
<g id="node30" class="node entity">
<title>Entity44</title>
<ellipse fill="none" stroke="black" cx="6387.66" cy="-3544.43" rx="58.49" ry="18"/>
<text text-anchor="start" x="6350.66" y="-3540.73" font-family="Times New Roman,serif" font-size="14.00">steve bannon</text>
</g>
<!-- Entity44&#45;&gt;Entity15 -->
<g id="edge28" class="edge verb">
<title>Entity44&#45;&gt;Entity15</title>
<path fill="none" stroke="black" d="M6329.85,-3541.31C6193.09,-3539.13 5850.2,-3543.15 5703.68,-3548.55"/>
<polygon fill="black" stroke="black" points="5703.33,-3545.06 5693.47,-3548.95 5703.6,-3552.06 5703.33,-3545.06"/>
<text text-anchor="start" x="5961.76" y="-3548.73" font-family="Times New Roman,serif" font-size="14.00">promoted</text>
</g>
<!-- Entity44&#45;&gt;Entity15 -->
<g id="edge64" class="edge verb">
<title>Entity44&#45;&gt;Entity15</title>
<path fill="none" stroke="black" d="M6330.87,-3548.89C6195.15,-3554.37 5852.34,-3558.59 5704.81,-3556.73"/>
<polygon fill="black" stroke="black" points="5704.58,-3553.23 5694.53,-3556.59 5704.48,-3560.23 5704.58,-3553.23"/>
<text text-anchor="start" x="6017.84" y="-3556.61" font-family="Times New Roman,serif" font-size="14.00">advises</text>
</g>
<!-- Entity83 -->
<g id="node40" class="node entity">
<title>Entity83</title>
<ellipse fill="none" stroke="black" cx="6245.08" cy="-3092.82" rx="61.99" ry="18"/>
<text text-anchor="start" x="6205.58" y="-3089.12" font-family="Times New Roman,serif" font-size="14.00">breitbart news</text>
</g>
<!-- Entity44&#45;&gt;Entity83 -->
<g id="edge46" class="edge verb">
<title>Entity44&#45;&gt;Entity83</title>
<path fill="none" stroke="black" d="M6381.99,-3526.45C6360.01,-3456.84 6280.44,-3204.8 6253.82,-3120.51"/>
<polygon fill="black" stroke="black" points="6257.13,-3119.34 6250.78,-3110.86 6250.45,-3121.45 6257.13,-3119.34"/>
<text text-anchor="start" x="6276.91" y="-3327.28" font-family="Times New Roman,serif" font-size="14.00">created</text>
</g>
<!-- Entity89 -->
<g id="node49" class="node entity">
<title>Entity89</title>
<ellipse fill="none" stroke="black" cx="6795.9" cy="-3710.82" rx="35.19" ry="18"/>
<text text-anchor="start" x="6776.9" y="-3707.12" font-family="Times New Roman,serif" font-size="14.00">gurgev</text>
</g>
<!-- Entity44&#45;&gt;Entity89 -->
<g id="edge53" class="edge verb">
<title>Entity44&#45;&gt;Entity89</title>
<path fill="none" stroke="black" d="M6423.18,-3558.9C6499.92,-3590.18 6680.57,-3663.81 6758.76,-3695.68"/>
<polygon fill="black" stroke="black" points="6757.63,-3699 6768.21,-3699.53 6760.27,-3692.52 6757.63,-3699"/>
<text text-anchor="start" x="6549.97" y="-3631.09" font-family="Times New Roman,serif" font-size="14.00">studied</text>
</g>
<!-- Entity91 -->
<g id="node51" class="node entity">
<title>Entity91</title>
<ellipse fill="none" stroke="black" cx="6744.21" cy="-3261.23" rx="38.19" ry="18"/>
<text text-anchor="start" x="6722.71" y="-3257.53" font-family="Times New Roman,serif" font-size="14.00">us navy</text>
</g>
<!-- Entity44&#45;&gt;Entity91 -->
<g id="edge55" class="edge verb">
<title>Entity44&#45;&gt;Entity91</title>
<path fill="none" stroke="black" d="M6408.9,-3527.56C6470.15,-3478.91 6647.13,-3338.33 6716.17,-3283.5"/>
<polygon fill="black" stroke="black" points="6718.76,-3285.91 6724.41,-3276.95 6714.41,-3280.43 6718.76,-3285.91"/>
<text text-anchor="start" x="6501.53" y="-3409.33" font-family="Times New Roman,serif" font-size="14.00">member of</text>
</g>
<!-- Entity94 -->
<g id="node53" class="node entity">
<title>Entity94</title>
<ellipse fill="none" stroke="black" cx="6914.8" cy="-3566.08" rx="53.09" ry="18"/>
<text text-anchor="start" x="6881.8" y="-3562.38" font-family="Times New Roman,serif" font-size="14.00">biosphere 2</text>
</g>
<!-- Entity44&#45;&gt;Entity94 -->
<g id="edge57" class="edge verb">
<title>Entity44&#45;&gt;Entity94</title>
<path fill="none" stroke="black" d="M6445.84,-3546.82C6545.5,-3550.91 6748.11,-3559.23 6851.31,-3563.47"/>
<polygon fill="black" stroke="black" points="6851.44,-3566.98 6861.58,-3563.89 6851.73,-3559.98 6851.44,-3566.98"/>
<text text-anchor="start" x="6607.57" y="-3558.94" font-family="Times New Roman,serif" font-size="14.00">created</text>
</g>
<!-- Entity107 -->
<g id="node58" class="node entity">
<title>Entity107</title>
<ellipse fill="none" stroke="black" cx="6983.28" cy="-3369.19" rx="77.19" ry="18"/>
<text text-anchor="start" x="6931.78" y="-3365.49" font-family="Times New Roman,serif" font-size="14.00">hollywood movies</text>
</g>
<!-- Entity44&#45;&gt;Entity107 -->
<g id="edge61" class="edge verb">
<title>Entity44&#45;&gt;Entity107</title>
<path fill="none" stroke="black" d="M6430.02,-3531.97C6534.72,-3501.16 6805.82,-3421.4 6925.29,-3386.26"/>
<polygon fill="black" stroke="black" points="6926.39,-3389.58 6935,-3383.4 6924.41,-3382.86 6926.39,-3389.58"/>
<text text-anchor="start" x="6622.65" y="-3462.91" font-family="Times New Roman,serif" font-size="14.00">produced</text>
</g>
<!-- Entity111 -->
<g id="node59" class="node entity">
<title>Entity111</title>
<ellipse fill="none" stroke="black" cx="6836.33" cy="-3896.47" rx="64.99" ry="18"/>
<text text-anchor="start" x="6794.33" y="-3892.77" font-family="Times New Roman,serif" font-size="14.00">goldman sachs</text>
</g>
<!-- Entity44&#45;&gt;Entity111 -->
<g id="edge66" class="edge verb">
<title>Entity44&#45;&gt;Entity111</title>
<path fill="none" stroke="black" d="M6409.3,-3561.41C6482.74,-3619.03 6722.54,-3807.19 6806.76,-3873.27"/>
<polygon fill="black" stroke="black" points="6804.62,-3876.04 6814.64,-3879.46 6808.94,-3870.53 6804.62,-3876.04"/>
<text text-anchor="start" x="6545.03" y="-3721.14" font-family="Times New Roman,serif" font-size="14.00">worked for</text>
</g>
<!-- Entity33 -->
<g id="node32" class="node entity">
<title>Entity33</title>
<ellipse fill="none" stroke="black" cx="1974.76" cy="-4137.9" rx="57.69" ry="18"/>
<text text-anchor="start" x="1938.26" y="-4134.2" font-family="Times New Roman,serif" font-size="14.00">michael pane</text>
</g>
<!-- Entity33&#45;&gt;Entity30 -->
<g id="edge47" class="edge verb">
<title>Entity33&#45;&gt;Entity30</title>
<path fill="none" stroke="black" d="M1984.62,-4155.74C1994.16,-4173.02 2008.76,-4199.43 2019.69,-4219.22"/>
<polygon fill="black" stroke="black" points="2016.67,-4220.99 2024.57,-4228.05 2022.8,-4217.61 2016.67,-4220.99"/>
<text text-anchor="start" x="1939.15" y="-4191.28" font-family="Times New Roman,serif" font-size="14.00">worked for</text>
</g>
<!-- Entity33&#45;&gt;Entity72 -->
<g id="edge31" class="edge verb">
<title>Entity33&#45;&gt;Entity72</title>
<path fill="none" stroke="black" d="M2017.38,-4125.6C2107.41,-4099.61 2316.66,-4039.2 2413.61,-4011.21"/>
<polygon fill="black" stroke="black" points="2414.83,-4014.5 2423.47,-4008.37 2412.89,-4007.78 2414.83,-4014.5"/>
<text text-anchor="start" x="2159.49" y="-4072.21" font-family="Times New Roman,serif" font-size="14.00">worked at</text>
</g>
<!-- Entity45 -->
<g id="node33" class="node entity">
<title>Entity45</title>
<ellipse fill="none" stroke="black" cx="4809.18" cy="-3048.48" rx="67.69" ry="18"/>
<text text-anchor="start" x="4765.18" y="-3044.78" font-family="Times New Roman,serif" font-size="14.00">abraham lincoln</text>
</g>
<!-- Entity45&#45;&gt;Entity66 -->
<g id="edge32" class="edge verb">
<title>Entity45&#45;&gt;Entity66</title>
<path fill="none" stroke="black" d="M4817.54,-3066.51C4859.49,-3157.05 5047.1,-3561.88 5097.47,-3670.58"/>
<polygon fill="black" stroke="black" points="5094.4,-3672.27 5101.78,-3679.87 5100.75,-3669.33 5094.4,-3672.27"/>
<text text-anchor="start" x="4941.51" y="-3372.35" font-family="Times New Roman,serif" font-size="14.00">isa</text>
</g>
<!-- Entity38 -->
<g id="node34" class="node entity">
<title>Entity38</title>
<ellipse fill="none" stroke="black" cx="4851.41" cy="-2162.89" rx="90.98" ry="18"/>
<text text-anchor="start" x="4789.41" y="-2159.19" font-family="Times New Roman,serif" font-size="14.00">emma hardinge&#45;britten</text>
</g>
<!-- Entity38&#45;&gt;Entity45 -->
<g id="edge33" class="edge verb">
<title>Entity38&#45;&gt;Entity45</title>
<path fill="none" stroke="black" d="M4850.55,-2180.99C4845.24,-2292.28 4817.03,-2883.8 4810.52,-3020.34"/>
<polygon fill="black" stroke="black" points="4807.02,-3020.26 4810.04,-3030.42 4814.01,-3020.59 4807.02,-3020.26"/>
<text text-anchor="start" x="4731.53" y="-2604.46" font-family="Times New Roman,serif" font-size="14.00">spokesperson for</text>
</g>
<!-- Entity79 -->
<g id="node38" class="node entity">
<title>Entity79</title>
<ellipse fill="none" stroke="black" cx="5094.66" cy="-1669.26" rx="39.79" ry="18"/>
<text text-anchor="start" x="5072.16" y="-1665.56" font-family="Times New Roman,serif" font-size="14.00">medium</text>
</g>
<!-- Entity38&#45;&gt;Entity79 -->
<g id="edge38" class="edge verb">
<title>Entity38&#45;&gt;Entity79</title>
<path fill="none" stroke="black" d="M4860.36,-2144.74C4897.2,-2069.97 5037.35,-1785.56 5081.36,-1696.26"/>
<polygon fill="black" stroke="black" points="5084.61,-1697.57 5085.89,-1687.06 5078.33,-1694.48 5084.61,-1697.57"/>
<text text-anchor="start" x="4954.86" y="-1924.3" font-family="Times New Roman,serif" font-size="14.00">isa</text>
</g>
<!-- Entity86 -->
<g id="node48" class="node entity">
<title>Entity86</title>
<ellipse fill="none" stroke="black" cx="4901.04" cy="-1301.08" rx="85.29" ry="18"/>
<text text-anchor="start" x="4843.54" y="-1297.38" font-family="Times New Roman,serif" font-size="14.00">theosophical society</text>
</g>
<!-- Entity38&#45;&gt;Entity86 -->
<g id="edge65" class="edge verb">
<title>Entity38&#45;&gt;Entity86</title>
<path fill="none" stroke="black" d="M4852.45,-2144.89C4858.72,-2035.92 4891.62,-1464.63 4899.39,-1329.67"/>
<polygon fill="black" stroke="black" points="4902.91,-1329.53 4899.99,-1319.34 4895.92,-1329.12 4902.91,-1329.53"/>
<text text-anchor="start" x="4834.92" y="-1741.08" font-family="Times New Roman,serif" font-size="14.00">created</text>
</g>
<!-- Entity99 -->
<g id="node54" class="node entity">
<title>Entity99</title>
<ellipse fill="none" stroke="black" cx="4629" cy="-1605.25" rx="55.79" ry="18"/>
<text text-anchor="start" x="4594" y="-1601.55" font-family="Times New Roman,serif" font-size="14.00">orphic circle</text>
</g>
<!-- Entity38&#45;&gt;Entity99 -->
<g id="edge58" class="edge verb">
<title>Entity38&#45;&gt;Entity99</title>
<path fill="none" stroke="black" d="M4844.14,-2144.66C4811.6,-2063.08 4679.28,-1731.31 4640.02,-1632.9"/>
<polygon fill="black" stroke="black" points="4643.17,-1631.34 4636.21,-1623.35 4636.67,-1633.93 4643.17,-1631.34"/>
<text text-anchor="start" x="4681.08" y="-1892.58" font-family="Times New Roman,serif" font-size="14.00">member of</text>
</g>
<!-- Entity42 -->
<g id="node36" class="node entity">
<title>Entity42</title>
<ellipse fill="none" stroke="black" cx="4083.94" cy="-1877.66" rx="53.89" ry="18"/>
<text text-anchor="start" x="4050.44" y="-1873.96" font-family="Times New Roman,serif" font-size="14.00">black magic</text>
</g>
<!-- Entity81 -->
<g id="node37" class="node entity">
<title>Entity81</title>
<ellipse fill="none" stroke="black" cx="4171.66" cy="-1989.64" rx="28.7" ry="18"/>
<text text-anchor="start" x="4157.66" y="-1985.94" font-family="Times New Roman,serif" font-size="14.00">x left</text>
</g>
<!-- Entity42&#45;&gt;Entity81 -->
<g id="edge37" class="edge verb">
<title>Entity42&#45;&gt;Entity81</title>
<path fill="none" stroke="black" d="M4097.64,-1895.16C4112.45,-1914.05 4136.14,-1944.29 4152.72,-1965.45"/>
<polygon fill="black" stroke="black" points="4149.98,-1967.64 4158.9,-1973.36 4155.49,-1963.32 4149.98,-1967.64"/>
<text text-anchor="start" x="4064.18" y="-1934.11" font-family="Times New Roman,serif" font-size="14.00">member of</text>
</g>
<!-- Entity47 -->
<g id="node39" class="node entity">
<title>Entity47</title>
<ellipse fill="none" stroke="black" cx="6282.53" cy="-2984.82" rx="69.59" ry="18"/>
<text text-anchor="start" x="6237.03" y="-2981.12" font-family="Times New Roman,serif" font-size="14.00">andrew breitbart</text>
</g>
<!-- Entity47&#45;&gt;Entity83 -->
<g id="edge39" class="edge verb">
<title>Entity47&#45;&gt;Entity83</title>
<path fill="none" stroke="black" d="M6276.18,-3003.14C6270.28,-3020.15 6261.41,-3045.72 6254.66,-3065.21"/>
<polygon fill="black" stroke="black" points="6251.31,-3064.18 6251.34,-3074.77 6257.93,-3066.47 6251.31,-3064.18"/>
<text text-anchor="start" x="6224.42" y="-3037.98" font-family="Times New Roman,serif" font-size="14.00">created</text>
</g>
<!-- Entity35 -->
<g id="node42" class="node entity">
<title>Entity35</title>
<ellipse fill="none" stroke="black" cx="3449.94" cy="-1877.66" rx="39.79" ry="18"/>
<text text-anchor="start" x="3427.44" y="-1873.96" font-family="Times New Roman,serif" font-size="14.00">crowley</text>
</g>
<!-- Entity80 -->
<g id="node43" class="node entity">
<title>Entity80</title>
<ellipse fill="none" stroke="black" cx="3537.66" cy="-1989.64" rx="38.99" ry="18"/>
<text text-anchor="start" x="3515.66" y="-1985.94" font-family="Times New Roman,serif" font-size="14.00">x magic</text>
</g>
<!-- Entity35&#45;&gt;Entity80 -->
<g id="edge41" class="edge verb">
<title>Entity35&#45;&gt;Entity80</title>
<path fill="none" stroke="black" d="M3463.26,-1894.67C3477.82,-1913.25 3501.28,-1943.2 3517.96,-1964.49"/>
<polygon fill="black" stroke="black" points="3515.29,-1966.76 3524.21,-1972.47 3520.8,-1962.44 3515.29,-1966.76"/>
<text text-anchor="start" x="3429.61" y="-1933.38" font-family="Times New Roman,serif" font-size="14.00">member of</text>
</g>
<!-- Entity19 -->
<g id="node44" class="node entity">
<title>Entity19</title>
<ellipse fill="none" stroke="black" cx="4735.44" cy="-3572.75" rx="31.4" ry="18"/>
<text text-anchor="start" x="4719.44" y="-3569.05" font-family="Times New Roman,serif" font-size="14.00">carter</text>
</g>
<!-- Entity19&#45;&gt;Entity66 -->
<g id="edge44" class="edge verb">
<title>Entity19&#45;&gt;Entity66</title>
<path fill="none" stroke="black" d="M4762.68,-3581.83C4828.89,-3603.88 4998.33,-3660.33 5073.31,-3685.31"/>
<polygon fill="black" stroke="black" points="5072.23,-3688.64 5082.82,-3688.48 5074.44,-3682 5072.23,-3688.64"/>
<text text-anchor="start" x="4902" y="-3637.37" font-family="Times New Roman,serif" font-size="14.00">isa</text>
</g>
<!-- Entity19&#45;&gt;Entity90 -->
<g id="edge56" class="edge verb">
<title>Entity19&#45;&gt;Entity90</title>
<path fill="none" stroke="black" d="M4715,-3559.11C4667.71,-3527.57 4550.75,-3449.54 4497.03,-3413.7"/>
<polygon fill="black" stroke="black" points="4498.93,-3410.76 4488.67,-3408.12 4495.04,-3416.58 4498.93,-3410.76"/>
<text text-anchor="start" x="4551.01" y="-3490.21" font-family="Times New Roman,serif" font-size="14.00">witnessed</text>
</g>
<!-- Entity27 -->
<g id="node45" class="node entity">
<title>Entity27</title>
<ellipse fill="none" stroke="black" cx="36.05" cy="-4764.4" rx="36.29" ry="18"/>
<text text-anchor="start" x="16.05" y="-4760.7" font-family="Times New Roman,serif" font-size="14.00">oswald</text>
</g>
<!-- Entity34 -->
<g id="node46" class="node entity">
<title>Entity34</title>
<ellipse fill="none" stroke="black" cx="466.74" cy="-4650.08" rx="59.29" ry="18"/>
<text text-anchor="start" x="429.24" y="-4646.38" font-family="Times New Roman,serif" font-size="14.00">guy bannister</text>
</g>
<!-- Entity27&#45;&gt;Entity34 -->
<g id="edge50" class="edge verb">
<title>Entity27&#45;&gt;Entity34</title>
<path fill="none" stroke="black" d="M68.42,-4755.81C141.77,-4736.34 321.3,-4688.68 412.16,-4664.57"/>
<polygon fill="black" stroke="black" points="413.23,-4667.9 421.99,-4661.96 411.43,-4661.14 413.23,-4667.9"/>
<text text-anchor="start" x="177.29" y="-4713.99" font-family="Times New Roman,serif" font-size="14.00">worked for</text>
</g>
<!-- Entity34&#45;&gt;Entity75 -->
<g id="edge51" class="edge verb">
<title>Entity34&#45;&gt;Entity75</title>
<path fill="none" stroke="black" d="M512.61,-4638.46C606.95,-4614.58 821.63,-4560.23 914.68,-4536.67"/>
<polygon fill="black" stroke="black" points="915.79,-4540 924.62,-4534.15 914.07,-4533.22 915.79,-4540"/>
<text text-anchor="start" x="652.65" y="-4591.37" font-family="Times New Roman,serif" font-size="14.00">member of</text>
</g>
<!-- Entity64 -->
<g id="node47" class="node entity">
<title>Entity64</title>
<ellipse fill="none" stroke="black" cx="4667.66" cy="-697.03" rx="73.39" ry="18"/>
<text text-anchor="start" x="4619.16" y="-693.33" font-family="Times New Roman,serif" font-size="14.00">madam blavatsky</text>
</g>
<!-- Entity64&#45;&gt;Entity86 -->
<g id="edge52" class="edge verb">
<title>Entity64&#45;&gt;Entity86</title>
<path fill="none" stroke="black" d="M4674.65,-715.11C4707.9,-801.17 4850.19,-1169.46 4890.41,-1273.57"/>
<polygon fill="black" stroke="black" points="4887.21,-1275 4894.08,-1283.07 4893.74,-1272.48 4887.21,-1275"/>
<text text-anchor="start" x="4741.53" y="-998.14" font-family="Times New Roman,serif" font-size="14.00">created</text>
</g>
<!-- Entity60 -->
<g id="node56" class="node entity">
<title>Entity60</title>
<ellipse fill="none" stroke="black" cx="5063.5" cy="-660.77" rx="58.49" ry="18"/>
<text text-anchor="start" x="5026.5" y="-657.07" font-family="Times New Roman,serif" font-size="14.00">rudolf steiner</text>
</g>
<!-- Entity60&#45;&gt;Entity86 -->
<g id="edge63" class="edge verb">
<title>Entity60&#45;&gt;Entity86</title>
<path fill="none" stroke="black" d="M5058.9,-678.9C5036.19,-768.42 4935.99,-1163.32 4908.21,-1272.83"/>
<polygon fill="black" stroke="black" points="4904.74,-1272.24 4905.68,-1282.8 4911.53,-1273.97 4904.74,-1272.24"/>
<text text-anchor="start" x="4917.55" y="-979.67" font-family="Times New Roman,serif" font-size="14.00">memberr of</text>
</g>
<!-- Entity93 -->
<g id="node57" class="node entity">
<title>Entity93</title>
<ellipse fill="none" stroke="black" cx="5183.21" cy="-18.38" rx="102.08" ry="18"/>
<text text-anchor="start" x="5112.71" y="-14.68" font-family="Times New Roman,serif" font-size="14.00">anthroposophical society</text>
</g>
<!-- Entity60&#45;&gt;Entity93 -->
<g id="edge60" class="edge verb">
<title>Entity60&#45;&gt;Entity93</title>
<path fill="none" stroke="black" d="M5066.89,-642.58C5083.65,-552.67 5157.61,-155.72 5177.99,-46.36"/>
<polygon fill="black" stroke="black" points="5181.46,-46.88 5179.85,-36.41 5174.57,-45.6 5181.46,-46.88"/>
<text text-anchor="start" x="5081.44" y="-348.27" font-family="Times New Roman,serif" font-size="14.00">created</text>
</g>
<!-- Entity109 -->
<g id="node60" class="node entity">
<title>Entity109</title>
<ellipse fill="none" stroke="black" cx="3436.94" cy="-2497.66" rx="27" ry="18"/>
<text text-anchor="start" x="3433.44" y="-2493.96" font-family="Times New Roman,serif" font-size="14.00">s</text>
</g>
<!-- Entity112 -->
<g id="node61" class="node entity">
<title>Entity112</title>
<ellipse fill="none" stroke="black" cx="3524.66" cy="-2609.64" rx="27" ry="18"/>
<text text-anchor="start" x="3520.66" y="-2605.94" font-family="Times New Roman,serif" font-size="14.00">o</text>
</g>
<!-- Entity109&#45;&gt;Entity112 -->
<g id="edge67" class="edge verb">
<title>Entity109&#45;&gt;Entity112</title>
<path fill="none" stroke="black" d="M3449.51,-2513.7C3464.23,-2532.5 3488.76,-2563.82 3505.78,-2585.53"/>
<polygon fill="black" stroke="black" points="3503.19,-2587.91 3512.11,-2593.62 3508.7,-2583.59 3503.19,-2587.91"/>
<text text-anchor="start" x="3470.64" y="-2553.42" font-family="Times New Roman,serif" font-size="14.00">v</text>
</g>
</g>
</svg>
