<?xml version="1.0" encoding="UTF-8" standalone="no"?>
<?xml-stylesheet href="./styles.css" type="text/css"?>
<!DOCTYPE svg PUBLIC "-//W3C//DTD SVG 1.1//EN"
 "http://www.w3.org/Graphics/SVG/1.1/DTD/svg11.dtd">
<!-- Generated by graphviz version 2.47.3 (20210619.1520)
 -->
<!-- Title: G Pages: 1 -->
<svg width="7251pt" height="5776pt"
 viewBox="0.00 0.00 7251.00 5776.00" xmlns="http://www.w3.org/2000/svg" xmlns:xlink="http://www.w3.org/1999/xlink">
<g id="graph0" class="graph" transform="scale(1 1) rotate(0) translate(4 5772)">
<title>G</title>
<polygon fill="white" stroke="transparent" points="-4,4 -4,-5772 7247,-5772 7247,4 -4,4"/>
<!-- Entity8 -->
<g id="node1" class="node entity">
<title>Entity8</title>
<ellipse fill="none" stroke="black" cx="3818.71" cy="-1510.59" rx="41.69" ry="18"/>
<text text-anchor="start" x="3794.71" y="-1506.89" font-family="Times New Roman,serif" font-size="14.00">uri geller</text>
</g>
<!-- Entity16 -->
<g id="node2" class="node entity">
<title>Entity16</title>
<ellipse fill="none" stroke="black" cx="4154.17" cy="-1304.97" rx="38.19" ry="18"/>
<text text-anchor="start" x="4132.67" y="-1301.27" font-family="Times New Roman,serif" font-size="14.00">the nine</text>
</g>
<!-- Entity8&#45;&gt;Entity16 -->
<g id="edge1" class="edge verb">
<title>Entity8&#45;&gt;Entity16</title>
<path fill="none" stroke="black" d="M3842.84,-1495.8C3902.09,-1459.48 4054.83,-1365.86 4121.85,-1324.79"/>
<polygon fill="black" stroke="black" points="4124.02,-1327.56 4130.71,-1319.35 4120.36,-1321.59 4124.02,-1327.56"/>
<text text-anchor="start" x="3878.34" y="-1414.09" font-family="Times New Roman,serif" font-size="14.00">claiemd to channel</text>
</g>
<!-- Entity105 -->
<g id="node47" class="node entity">
<title>Entity105</title>
<ellipse fill="none" stroke="black" cx="4380.16" cy="-774.21" rx="94.48" ry="18"/>
<text text-anchor="start" x="4315.66" y="-770.51" font-family="Times New Roman,serif" font-size="14.00">egyptian gods in a ship</text>
</g>
<!-- Entity16&#45;&gt;Entity105 -->
<g id="edge53" class="edge verb">
<title>Entity16&#45;&gt;Entity105</title>
<path fill="none" stroke="black" d="M4161.69,-1287.31C4194.87,-1209.4 4328.28,-896.05 4368.58,-801.41"/>
<polygon fill="black" stroke="black" points="4371.8,-802.78 4372.5,-792.21 4365.36,-800.04 4371.8,-802.78"/>
<text text-anchor="start" x="4161.14" y="-1048.16" font-family="Times New Roman,serif" font-size="14.00">claimed to channel</text>
</g>
<!-- Entity9 -->
<g id="node3" class="node entity">
<title>Entity9</title>
<ellipse fill="none" stroke="black" cx="3109.92" cy="-3177.84" rx="27" ry="18"/>
<text text-anchor="start" x="3102.42" y="-3174.14" font-family="Times New Roman,serif" font-size="14.00">jfk</text>
</g>
<!-- Entity25 -->
<g id="node4" class="node entity">
<title>Entity25</title>
<ellipse fill="none" stroke="black" cx="3402.19" cy="-2895.45" rx="27" ry="18"/>
<text text-anchor="start" x="3394.19" y="-2891.75" font-family="Times New Roman,serif" font-size="14.00">cia</text>
</g>
<!-- Entity9&#45;&gt;Entity25 -->
<g id="edge2" class="edge verb">
<title>Entity9&#45;&gt;Entity25</title>
<path fill="none" stroke="black" d="M3125.63,-3162.66C3174.21,-3115.72 3322.15,-2972.79 3379.31,-2917.56"/>
<polygon fill="black" stroke="black" points="3381.99,-2919.84 3386.75,-2910.37 3377.13,-2914.8 3381.99,-2919.84"/>
<text text-anchor="start" x="3148.47" y="-3043.91" font-family="Times New Roman,serif" font-size="14.00">heads (1961&#45;1963)</text>
</g>
<!-- Entity77 -->
<g id="node28" class="node entity">
<title>Entity77</title>
<ellipse fill="none" stroke="black" cx="2811.92" cy="-3466.65" rx="31.4" ry="18"/>
<text text-anchor="start" x="2795.92" y="-3462.95" font-family="Times New Roman,serif" font-size="14.00">potus</text>
</g>
<!-- Entity9&#45;&gt;Entity77 -->
<g id="edge24" class="edge verb">
<title>Entity9&#45;&gt;Entity77</title>
<path fill="none" stroke="black" d="M3094.32,-3192.96C3045.26,-3240.5 2893.96,-3387.14 2835.4,-3443.89"/>
<polygon fill="black" stroke="black" points="2832.84,-3441.5 2828.09,-3450.98 2837.71,-3446.53 2832.84,-3441.5"/>
<text text-anchor="start" x="2877.86" y="-3322.23" font-family="Times New Roman,serif" font-size="14.00">isa (1961&#45;1963)</text>
</g>
<!-- Entity75 -->
<g id="node26" class="node entity">
<title>Entity75</title>
<ellipse fill="none" stroke="black" cx="3802.56" cy="-2271.12" rx="77.19" ry="18"/>
<text text-anchor="start" x="3751.06" y="-2267.42" font-family="Times New Roman,serif" font-size="14.00">psi&#45;consciousness</text>
</g>
<!-- Entity25&#45;&gt;Entity75 -->
<g id="edge45" class="edge verb">
<title>Entity25&#45;&gt;Entity75</title>
<path fill="none" stroke="black" d="M3412.9,-2878.76C3467.81,-2793.11 3717.9,-2403.13 3785.61,-2297.54"/>
<polygon fill="black" stroke="black" points="3788.6,-2299.36 3791.06,-2289.05 3782.71,-2295.58 3788.6,-2299.36"/>
<text text-anchor="start" x="3535.25" y="-2591.95" font-family="Times New Roman,serif" font-size="14.00">investigates</text>
</g>
<!-- Entity108 -->
<g id="node52" class="node entity">
<title>Entity108</title>
<ellipse fill="none" stroke="black" cx="3111.34" cy="-2857.46" rx="27" ry="18"/>
<text text-anchor="start" x="3101.84" y="-2853.76" font-family="Times New Roman,serif" font-size="14.00">ufo</text>
</g>
<!-- Entity25&#45;&gt;Entity108 -->
<g id="edge62" class="edge verb">
<title>Entity25&#45;&gt;Entity108</title>
<path fill="none" stroke="black" d="M3375.6,-2891.98C3323.48,-2885.17 3207.77,-2870.06 3148.26,-2862.28"/>
<polygon fill="black" stroke="black" points="3148.55,-2858.79 3138.18,-2860.97 3147.64,-2865.73 3148.55,-2858.79"/>
<text text-anchor="start" x="3197.93" y="-2880.93" font-family="Times New Roman,serif" font-size="14.00">investigates</text>
</g>
<!-- Entity2 -->
<g id="node5" class="node entity">
<title>Entity2</title>
<ellipse fill="none" stroke="black" cx="4377.93" cy="-1741.38" rx="56.59" ry="18"/>
<text text-anchor="start" x="4342.43" y="-1737.68" font-family="Times New Roman,serif" font-size="14.00">arthur young</text>
</g>
<!-- Entity2&#45;&gt;Entity16 -->
<g id="edge3" class="edge verb">
<title>Entity2&#45;&gt;Entity16</title>
<path fill="none" stroke="black" d="M4368.75,-1723.45C4333.9,-1655.49 4209.74,-1413.35 4167.99,-1331.91"/>
<polygon fill="black" stroke="black" points="4170.99,-1330.1 4163.32,-1322.8 4164.76,-1333.3 4170.99,-1330.1"/>
<text text-anchor="start" x="4206.37" y="-1531.48" font-family="Times New Roman,serif" font-size="14.00">member&#45;of</text>
</g>
<!-- Entity2&#45;&gt;Entity75 -->
<g id="edge18" class="edge verb">
<title>Entity2&#45;&gt;Entity75</title>
<path fill="none" stroke="black" d="M4359.44,-1758.4C4275.26,-1835.91 3928.1,-2155.53 3829.05,-2246.72"/>
<polygon fill="black" stroke="black" points="3826.55,-2244.27 3821.56,-2253.62 3831.29,-2249.42 3826.55,-2244.27"/>
<text text-anchor="start" x="4053.25" y="-2006.36" font-family="Times New Roman,serif" font-size="14.00">studied</text>
</g>
<!-- Entity76 -->
<g id="node29" class="node entity">
<title>Entity76</title>
<ellipse fill="none" stroke="black" cx="4978.49" cy="-1483.56" rx="53.89" ry="18"/>
<text text-anchor="start" x="4944.99" y="-1479.86" font-family="Times New Roman,serif" font-size="14.00">bell aviation</text>
</g>
<!-- Entity2&#45;&gt;Entity76 -->
<g id="edge20" class="edge verb">
<title>Entity2&#45;&gt;Entity76</title>
<path fill="none" stroke="black" d="M4411.94,-1726.78C4514.77,-1682.63 4822.31,-1550.6 4935.8,-1501.88"/>
<polygon fill="black" stroke="black" points="4937.41,-1505 4945.22,-1497.84 4934.65,-1498.57 4937.41,-1505"/>
<text text-anchor="start" x="4632.87" y="-1618.13" font-family="Times New Roman,serif" font-size="14.00">created</text>
</g>
<!-- Entity31 -->
<g id="node6" class="node entity">
<title>Entity31</title>
<ellipse fill="none" stroke="black" cx="2522.27" cy="-4694.78" rx="58.49" ry="18"/>
<text text-anchor="start" x="2485.27" y="-4691.08" font-family="Times New Roman,serif" font-size="14.00">steve bannon</text>
</g>
<!-- Entity22 -->
<g id="node7" class="node entity">
<title>Entity22</title>
<ellipse fill="none" stroke="black" cx="2780.37" cy="-3995.69" rx="59.59" ry="18"/>
<text text-anchor="start" x="2742.37" y="-3991.99" font-family="Times New Roman,serif" font-size="14.00">donald trump</text>
</g>
<!-- Entity31&#45;&gt;Entity22 -->
<g id="edge4" class="edge verb">
<title>Entity31&#45;&gt;Entity22</title>
<path fill="none" stroke="black" d="M2531.4,-4676.9C2572.41,-4582.23 2736.01,-4139.53 2773.08,-4023.55"/>
<polygon fill="black" stroke="black" points="2776.43,-4024.55 2776.08,-4013.96 2769.75,-4022.46 2776.43,-4024.55"/>
<text text-anchor="start" x="2597.24" y="-4354.03" font-family="Times New Roman,serif" font-size="14.00">promoted</text>
</g>
<!-- Entity31&#45;&gt;Entity22 -->
<g id="edge10" class="edge verb">
<title>Entity31&#45;&gt;Entity22</title>
<path fill="none" stroke="black" d="M2526.49,-4676.7C2555.51,-4581.54 2718.74,-4138.87 2767.09,-4023.33"/>
<polygon fill="black" stroke="black" points="2770.45,-4024.35 2771.14,-4013.78 2764.01,-4021.61 2770.45,-4024.35"/>
<text text-anchor="start" x="2604.79" y="-4338.81" font-family="Times New Roman,serif" font-size="14.00">advises</text>
</g>
<!-- Entity80 -->
<g id="node31" class="node entity">
<title>Entity80</title>
<ellipse fill="none" stroke="black" cx="2212.41" cy="-5225.37" rx="61.99" ry="18"/>
<text text-anchor="start" x="2172.91" y="-5221.67" font-family="Times New Roman,serif" font-size="14.00">breitbart news</text>
</g>
<!-- Entity31&#45;&gt;Entity80 -->
<g id="edge46" class="edge verb">
<title>Entity31&#45;&gt;Entity80</title>
<path fill="none" stroke="black" d="M2511.78,-4712.73C2465.94,-4791.23 2283.03,-5104.45 2228.09,-5198.52"/>
<polygon fill="black" stroke="black" points="2224.92,-5197.02 2222.9,-5207.42 2230.96,-5200.55 2224.92,-5197.02"/>
<text text-anchor="start" x="2328.94" y="-4959.43" font-family="Times New Roman,serif" font-size="14.00">created</text>
</g>
<!-- Entity92 -->
<g id="node33" class="node entity">
<title>Entity92</title>
<ellipse fill="none" stroke="black" cx="2445.93" cy="-5117.24" rx="35.19" ry="18"/>
<text text-anchor="start" x="2426.93" y="-5113.54" font-family="Times New Roman,serif" font-size="14.00">gurgev</text>
</g>
<!-- Entity31&#45;&gt;Entity92 -->
<g id="edge26" class="edge verb">
<title>Entity31&#45;&gt;Entity92</title>
<path fill="none" stroke="black" d="M2518.99,-4712.93C2507,-4779.28 2465.49,-5008.98 2450.99,-5089.27"/>
<polygon fill="black" stroke="black" points="2447.53,-5088.69 2449.2,-5099.16 2454.42,-5089.94 2447.53,-5088.69"/>
<text text-anchor="start" x="2443.99" y="-4904.9" font-family="Times New Roman,serif" font-size="14.00">studied</text>
</g>
<!-- Entity95 -->
<g id="node35" class="node entity">
<title>Entity95</title>
<ellipse fill="none" stroke="black" cx="2791.51" cy="-5115.38" rx="53.09" ry="18"/>
<text text-anchor="start" x="2758.51" y="-5111.68" font-family="Times New Roman,serif" font-size="14.00">biosphere 2</text>
</g>
<!-- Entity31&#45;&gt;Entity95 -->
<g id="edge29" class="edge verb">
<title>Entity31&#45;&gt;Entity95</title>
<path fill="none" stroke="black" d="M2533.66,-4712.58C2575.89,-4778.54 2723.57,-5009.25 2774.27,-5088.45"/>
<polygon fill="black" stroke="black" points="2771.62,-5090.8 2779.96,-5097.34 2777.52,-5087.03 2771.62,-5090.8"/>
<text text-anchor="start" x="2612.97" y="-4904.32" font-family="Times New Roman,serif" font-size="14.00">created</text>
</g>
<!-- Entity104 -->
<g id="node48" class="node entity">
<title>Entity104</title>
<ellipse fill="none" stroke="black" cx="2618.72" cy="-5246.9" rx="64.99" ry="18"/>
<text text-anchor="start" x="2576.72" y="-5243.2" font-family="Times New Roman,serif" font-size="14.00">goldman sachs</text>
</g>
<!-- Entity31&#45;&gt;Entity104 -->
<g id="edge54" class="edge verb">
<title>Entity31&#45;&gt;Entity104</title>
<path fill="none" stroke="black" d="M2525.42,-4712.83C2539.49,-4793.35 2596.56,-5120.03 2613.78,-5218.61"/>
<polygon fill="black" stroke="black" points="2610.37,-5219.46 2615.54,-5228.71 2617.27,-5218.25 2610.37,-5219.46"/>
<text text-anchor="start" x="2506.6" y="-4969.52" font-family="Times New Roman,serif" font-size="14.00">worked for</text>
</g>
<!-- Entity112 -->
<g id="node55" class="node entity">
<title>Entity112</title>
<ellipse fill="none" stroke="black" cx="1943.51" cy="-4879.17" rx="77.19" ry="18"/>
<text text-anchor="start" x="1892.01" y="-4875.47" font-family="Times New Roman,serif" font-size="14.00">hollywood movies</text>
</g>
<!-- Entity31&#45;&gt;Entity112 -->
<g id="edge60" class="edge verb">
<title>Entity31&#45;&gt;Entity112</title>
<path fill="none" stroke="black" d="M2481.57,-4707.74C2379.94,-4740.12 2114.89,-4824.57 1999.05,-4861.48"/>
<polygon fill="black" stroke="black" points="1997.77,-4858.21 1989.31,-4864.58 1999.9,-4864.88 1997.77,-4858.21"/>
<text text-anchor="start" x="2185.31" y="-4788.41" font-family="Times New Roman,serif" font-size="14.00">produced</text>
</g>
<!-- Entity117 -->
<g id="node61" class="node entity">
<title>Entity117</title>
<ellipse fill="none" stroke="black" cx="2204.19" cy="-4993.8" rx="38.19" ry="18"/>
<text text-anchor="start" x="2182.69" y="-4990.1" font-family="Times New Roman,serif" font-size="14.00">us navy</text>
</g>
<!-- Entity31&#45;&gt;Entity117 -->
<g id="edge67" class="edge verb">
<title>Entity31&#45;&gt;Entity117</title>
<path fill="none" stroke="black" d="M2503.79,-4712.15C2449.5,-4763.19 2290.41,-4912.75 2228.88,-4970.59"/>
<polygon fill="black" stroke="black" points="2226.43,-4968.09 2221.54,-4977.49 2231.22,-4973.19 2226.43,-4968.09"/>
<text text-anchor="start" x="2305.34" y="-4845.17" font-family="Times New Roman,serif" font-size="14.00">member of</text>
</g>
<!-- Entity44 -->
<g id="node15" class="node entity">
<title>Entity44</title>
<ellipse fill="none" stroke="black" cx="3149.59" cy="-3431.97" rx="50.09" ry="18"/>
<text text-anchor="start" x="3119.09" y="-3428.27" font-family="Times New Roman,serif" font-size="14.00">john trump</text>
</g>
<!-- Entity22&#45;&gt;Entity44 -->
<g id="edge11" class="edge verb">
<title>Entity22&#45;&gt;Entity44</title>
<path fill="none" stroke="black" d="M2792.03,-3977.89C2845.64,-3896.03 3068.6,-3555.62 3132.44,-3458.15"/>
<polygon fill="black" stroke="black" points="3135.56,-3459.78 3138.11,-3449.49 3129.7,-3455.94 3135.56,-3459.78"/>
<text text-anchor="start" x="2903.24" y="-3721.82" font-family="Times New Roman,serif" font-size="14.00">nephew of</text>
</g>
<!-- Entity22&#45;&gt;Entity77 -->
<g id="edge38" class="edge verb">
<title>Entity22&#45;&gt;Entity77</title>
<path fill="none" stroke="black" d="M2781.46,-3977.48C2786.13,-3899.1 2804.55,-3590.18 2810.24,-3494.83"/>
<polygon fill="black" stroke="black" points="2813.74,-3494.97 2810.84,-3484.78 2806.75,-3494.56 2813.74,-3494.97"/>
<text text-anchor="start" x="2779.85" y="-3739.96" font-family="Times New Roman,serif" font-size="14.00">isa</text>
</g>
<!-- Entity61 -->
<g id="node8" class="node entity">
<title>Entity61</title>
<ellipse fill="none" stroke="black" cx="6184.75" cy="-383.91" rx="49.29" ry="18"/>
<text text-anchor="start" x="6154.75" y="-380.21" font-family="Times New Roman,serif" font-size="14.00">adolf hitler</text>
</g>
<!-- Entity71 -->
<g id="node9" class="node entity">
<title>Entity71</title>
<ellipse fill="none" stroke="black" cx="6065.07" cy="-753.87" rx="32.49" ry="18"/>
<text text-anchor="start" x="6048.07" y="-750.17" font-family="Times New Roman,serif" font-size="14.00">nsdap</text>
</g>
<!-- Entity61&#45;&gt;Entity71 -->
<g id="edge5" class="edge verb">
<title>Entity61&#45;&gt;Entity71</title>
<path fill="none" stroke="black" d="M6178.9,-402C6159.53,-461.87 6097.43,-653.85 6074.07,-726.06"/>
<polygon fill="black" stroke="black" points="6070.66,-725.22 6070.91,-735.81 6077.32,-727.38 6070.66,-725.22"/>
<text text-anchor="start" x="6085.48" y="-567.83" font-family="Times New Roman,serif" font-size="14.00">created</text>
</g>
<!-- Entity115 -->
<g id="node58" class="node entity">
<title>Entity115</title>
<ellipse fill="none" stroke="black" cx="6434.41" cy="-532.14" rx="38.99" ry="18"/>
<text text-anchor="start" x="6412.41" y="-528.44" font-family="Times New Roman,serif" font-size="14.00">far right</text>
</g>
<!-- Entity71&#45;&gt;Entity115 -->
<g id="edge64" class="edge verb">
<title>Entity71&#45;&gt;Entity115</title>
<path fill="none" stroke="black" d="M6087.34,-740.5C6149.86,-702.97 6327.22,-596.49 6401.28,-552.03"/>
<polygon fill="black" stroke="black" points="6403.43,-554.82 6410.2,-546.67 6399.82,-548.82 6403.43,-554.82"/>
<text text-anchor="start" x="6183.31" y="-650.06" font-family="Times New Roman,serif" font-size="14.00">member of</text>
</g>
<!-- Entity6 -->
<g id="node10" class="node entity">
<title>Entity6</title>
<ellipse fill="none" stroke="black" cx="3591.21" cy="-1103.45" rx="64.19" ry="18"/>
<text text-anchor="start" x="3549.71" y="-1099.75" font-family="Times New Roman,serif" font-size="14.00">andre puharich</text>
</g>
<!-- Entity6&#45;&gt;Entity8 -->
<g id="edge6" class="edge verb">
<title>Entity6&#45;&gt;Entity8</title>
<path fill="none" stroke="black" d="M3601.28,-1121.47C3637.4,-1186.11 3760.59,-1406.58 3803.68,-1483.69"/>
<polygon fill="black" stroke="black" points="3800.82,-1485.75 3808.76,-1492.77 3806.93,-1482.34 3800.82,-1485.75"/>
<text text-anchor="start" x="3642.48" y="-1306.38" font-family="Times New Roman,serif" font-size="14.00">sponsored</text>
</g>
<!-- Entity3 -->
<g id="node11" class="node entity">
<title>Entity3</title>
<ellipse fill="none" stroke="black" cx="3797.43" cy="-1649.08" rx="68.49" ry="18"/>
<text text-anchor="start" x="3752.93" y="-1645.38" font-family="Times New Roman,serif" font-size="14.00">jeffrey mishlove</text>
</g>
<!-- Entity3&#45;&gt;Entity8 -->
<g id="edge7" class="edge verb">
<title>Entity3&#45;&gt;Entity8</title>
<path fill="none" stroke="black" d="M3800.22,-1630.97C3803.82,-1607.54 3810.13,-1566.46 3814.36,-1538.89"/>
<polygon fill="black" stroke="black" points="3817.87,-1539.11 3815.93,-1528.7 3810.95,-1538.05 3817.87,-1539.11"/>
<text text-anchor="start" x="3752.29" y="-1588.73" font-family="Times New Roman,serif" font-size="14.00">promoted</text>
</g>
<!-- Entity3&#45;&gt;Entity75 -->
<g id="edge22" class="edge verb">
<title>Entity3&#45;&gt;Entity75</title>
<path fill="none" stroke="black" d="M3795.1,-1667.38C3790.33,-1755.41 3793.27,-2135.45 3799.29,-2242.78"/>
<polygon fill="black" stroke="black" points="3795.8,-2243.09 3799.92,-2252.86 3802.79,-2242.66 3795.8,-2243.09"/>
<text text-anchor="start" x="3756.2" y="-1958.88" font-family="Times New Roman,serif" font-size="14.00">studied</text>
</g>
<!-- Entity3&#45;&gt;Entity75 -->
<g id="edge28" class="edge verb">
<title>Entity3&#45;&gt;Entity75</title>
<path fill="none" stroke="black" d="M3800.07,-1667.34C3806.3,-1755.37 3809.61,-2136.15 3805.34,-2243.09"/>
<polygon fill="black" stroke="black" points="3801.84,-2242.96 3804.87,-2253.12 3808.84,-2243.29 3801.84,-2242.96"/>
<text text-anchor="start" x="3802.71" y="-1959.01" font-family="Times New Roman,serif" font-size="14.00">investigates</text>
</g>
<!-- Entity20 -->
<g id="node12" class="node entity">
<title>Entity20</title>
<ellipse fill="none" stroke="black" cx="2328.34" cy="-3641.71" rx="68.49" ry="18"/>
<text text-anchor="start" x="2283.84" y="-3638.01" font-family="Times New Roman,serif" font-size="14.00">george hw bush</text>
</g>
<!-- Entity24 -->
<g id="node13" class="node entity">
<title>Entity24</title>
<ellipse fill="none" stroke="black" cx="2725.45" cy="-3586.08" rx="63.89" ry="18"/>
<text text-anchor="start" x="2684.45" y="-3582.38" font-family="Times New Roman,serif" font-size="14.00">george w bush</text>
</g>
<!-- Entity20&#45;&gt;Entity24 -->
<g id="edge8" class="edge verb">
<title>Entity20&#45;&gt;Entity24</title>
<path fill="none" stroke="black" d="M2388.65,-3633.26C2461.08,-3623.11 2582.22,-3606.14 2657.77,-3595.56"/>
<polygon fill="black" stroke="black" points="2658.7,-3598.96 2668.12,-3594.11 2657.73,-3592.03 2658.7,-3598.96"/>
<text text-anchor="start" x="2491.21" y="-3618.21" font-family="Times New Roman,serif" font-size="14.00">father</text>
</g>
<!-- Entity20&#45;&gt;Entity77 -->
<g id="edge40" class="edge verb">
<title>Entity20&#45;&gt;Entity77</title>
<path fill="none" stroke="black" d="M2368.74,-3627.08C2461.3,-3593.57 2687.55,-3511.67 2775.82,-3479.72"/>
<polygon fill="black" stroke="black" points="2777.18,-3482.95 2785.39,-3476.25 2774.8,-3476.36 2777.18,-3482.95"/>
<text text-anchor="start" x="2556.28" y="-3557.2" font-family="Times New Roman,serif" font-size="14.00">isa</text>
</g>
<!-- Entity24&#45;&gt;Entity77 -->
<g id="edge42" class="edge verb">
<title>Entity24&#45;&gt;Entity77</title>
<path fill="none" stroke="black" d="M2738.39,-3568.2C2753.1,-3547.89 2777.2,-3514.6 2793.78,-3491.71"/>
<polygon fill="black" stroke="black" points="2796.7,-3493.64 2799.73,-3483.49 2791.03,-3489.54 2796.7,-3493.64"/>
<text text-anchor="start" x="2750.09" y="-3533.75" font-family="Times New Roman,serif" font-size="14.00">isa</text>
</g>
<!-- Entity1 -->
<g id="node14" class="node entity">
<title>Entity1</title>
<ellipse fill="none" stroke="black" cx="3846.05" cy="-883.53" rx="74.99" ry="18"/>
<text text-anchor="start" x="3796.55" y="-879.83" font-family="Times New Roman,serif" font-size="14.00">gene roddenberry</text>
</g>
<!-- Entity1&#45;&gt;Entity16 -->
<g id="edge9" class="edge verb">
<title>Entity1&#45;&gt;Entity16</title>
<path fill="none" stroke="black" d="M3859.09,-901.37C3907.73,-967.9 4078.66,-1201.69 4135.58,-1279.54"/>
<polygon fill="black" stroke="black" points="4132.91,-1281.82 4141.64,-1287.83 4138.56,-1277.69 4132.91,-1281.82"/>
<text text-anchor="start" x="3893.34" y="-1094.26" font-family="Times New Roman,serif" font-size="14.00">claiemd to channel</text>
</g>
<!-- Entity44&#45;&gt;Entity25 -->
<g id="edge13" class="edge verb">
<title>Entity44&#45;&gt;Entity25</title>
<path fill="none" stroke="black" d="M3158,-3414.12C3195.2,-3335.09 3345.2,-3016.5 3389.69,-2922"/>
<polygon fill="black" stroke="black" points="3392.91,-2923.37 3394.01,-2912.83 3386.58,-2920.39 3392.91,-2923.37"/>
<text text-anchor="start" x="3212.84" y="-3171.86" font-family="Times New Roman,serif" font-size="14.00">member of</text>
</g>
<!-- Entity111 -->
<g id="node51" class="node entity">
<title>Entity111</title>
<ellipse fill="none" stroke="black" cx="3563.2" cy="-3670.5" rx="50.89" ry="18"/>
<text text-anchor="start" x="3532.2" y="-3666.8" font-family="Times New Roman,serif" font-size="14.00">nikola tesla</text>
</g>
<!-- Entity44&#45;&gt;Entity111 -->
<g id="edge56" class="edge verb">
<title>Entity44&#45;&gt;Entity111</title>
<path fill="none" stroke="black" d="M3176.09,-3447.25C3247.85,-3488.64 3446.01,-3602.92 3527.49,-3649.91"/>
<polygon fill="black" stroke="black" points="3525.97,-3653.07 3536.38,-3655.04 3529.46,-3647.01 3525.97,-3653.07"/>
<text text-anchor="start" x="3310.79" y="-3552.38" font-family="Times New Roman,serif" font-size="14.00">studied</text>
</g>
<!-- Entity34 -->
<g id="node16" class="node entity">
<title>Entity34</title>
<ellipse fill="none" stroke="black" cx="2046.7" cy="-2517.66" rx="90.98" ry="18"/>
<text text-anchor="start" x="1984.7" y="-2513.96" font-family="Times New Roman,serif" font-size="14.00">emma hardinge&#45;britten</text>
</g>
<!-- Entity28 -->
<g id="node17" class="node entity">
<title>Entity28</title>
<ellipse fill="none" stroke="black" cx="2459" cy="-3056.64" rx="67.69" ry="18"/>
<text text-anchor="start" x="2415" y="-3052.94" font-family="Times New Roman,serif" font-size="14.00">abraham lincoln</text>
</g>
<!-- Entity34&#45;&gt;Entity28 -->
<g id="edge12" class="edge verb">
<title>Entity34&#45;&gt;Entity28</title>
<path fill="none" stroke="black" d="M2060.42,-2535.6C2121.33,-2615.21 2367.42,-2936.92 2439.24,-3030.8"/>
<polygon fill="black" stroke="black" points="2436.59,-3033.1 2445.44,-3038.91 2442.15,-3028.84 2436.59,-3033.1"/>
<text text-anchor="start" x="2150.83" y="-2787" font-family="Times New Roman,serif" font-size="14.00">spokesperson for</text>
</g>
<!-- Entity97 -->
<g id="node36" class="node entity">
<title>Entity97</title>
<ellipse fill="none" stroke="black" cx="2201.32" cy="-2392.34" rx="39.79" ry="18"/>
<text text-anchor="start" x="2178.82" y="-2388.64" font-family="Times New Roman,serif" font-size="14.00">medium</text>
</g>
<!-- Entity34&#45;&gt;Entity97 -->
<g id="edge30" class="edge verb">
<title>Entity34&#45;&gt;Entity97</title>
<path fill="none" stroke="black" d="M2068.53,-2499.97C2096.07,-2477.65 2143.48,-2439.23 2173.57,-2414.84"/>
<polygon fill="black" stroke="black" points="2176,-2417.37 2181.57,-2408.36 2171.6,-2411.93 2176,-2417.37"/>
<text text-anchor="start" x="2105.05" y="-2461.21" font-family="Times New Roman,serif" font-size="14.00">isa</text>
</g>
<!-- Entity96 -->
<g id="node37" class="node entity">
<title>Entity96</title>
<ellipse fill="none" stroke="black" cx="1322.27" cy="-2406.31" rx="85.29" ry="18"/>
<text text-anchor="start" x="1264.77" y="-2402.61" font-family="Times New Roman,serif" font-size="14.00">theosophical society</text>
</g>
<!-- Entity34&#45;&gt;Entity96 -->
<g id="edge31" class="edge verb">
<title>Entity34&#45;&gt;Entity96</title>
<path fill="none" stroke="black" d="M1974.59,-2506.58C1838.03,-2485.59 1542.68,-2440.19 1401.09,-2418.43"/>
<polygon fill="black" stroke="black" points="1401.58,-2414.96 1391.17,-2416.9 1400.52,-2421.88 1401.58,-2414.96"/>
<text text-anchor="start" x="1646.84" y="-2466.3" font-family="Times New Roman,serif" font-size="14.00">created</text>
</g>
<!-- Entity118 -->
<g id="node60" class="node entity">
<title>Entity118</title>
<ellipse fill="none" stroke="black" cx="1889.29" cy="-2400.11" rx="55.79" ry="18"/>
<text text-anchor="start" x="1854.29" y="-2396.41" font-family="Times New Roman,serif" font-size="14.00">orphic circle</text>
</g>
<!-- Entity34&#45;&gt;Entity118 -->
<g id="edge66" class="edge verb">
<title>Entity34&#45;&gt;Entity118</title>
<path fill="none" stroke="black" d="M2023.14,-2500.06C1995.54,-2479.46 1949.77,-2445.28 1919.57,-2422.72"/>
<polygon fill="black" stroke="black" points="1921.6,-2419.87 1911.49,-2416.69 1917.41,-2425.48 1921.6,-2419.87"/>
<text text-anchor="start" x="1910.35" y="-2465.19" font-family="Times New Roman,serif" font-size="14.00">member of</text>
</g>
<!-- Entity28&#45;&gt;Entity77 -->
<g id="edge47" class="edge verb">
<title>Entity28&#45;&gt;Entity77</title>
<path fill="none" stroke="black" d="M2474.17,-3074.26C2530.32,-3139.49 2726.5,-3367.4 2791.11,-3442.47"/>
<polygon fill="black" stroke="black" points="2788.8,-3445.15 2797.98,-3450.45 2794.11,-3440.59 2788.8,-3445.15"/>
<text text-anchor="start" x="2616.64" y="-3262.16" font-family="Times New Roman,serif" font-size="14.00">isa</text>
</g>
<!-- Entity70 -->
<g id="node18" class="node entity">
<title>Entity70</title>
<ellipse fill="none" stroke="black" cx="7206.22" cy="-18.25" rx="36.29" ry="18"/>
<text text-anchor="start" x="7186.22" y="-14.55" font-family="Times New Roman,serif" font-size="14.00">oswald</text>
</g>
<!-- Entity69 -->
<g id="node19" class="node entity">
<title>Entity69</title>
<ellipse fill="none" stroke="black" cx="6850.35" cy="-256.74" rx="59.29" ry="18"/>
<text text-anchor="start" x="6812.85" y="-253.04" font-family="Times New Roman,serif" font-size="14.00">guy bannister</text>
</g>
<!-- Entity70&#45;&gt;Entity69 -->
<g id="edge14" class="edge verb">
<title>Entity70&#45;&gt;Entity69</title>
<path fill="none" stroke="black" d="M7184.49,-32.81C7124.43,-73.05 6955.85,-186.03 6883.75,-234.35"/>
<polygon fill="black" stroke="black" points="6881.4,-231.71 6875.04,-240.19 6885.3,-237.53 6881.4,-231.71"/>
<text text-anchor="start" x="6971.12" y="-137.38" font-family="Times New Roman,serif" font-size="14.00">worked for</text>
</g>
<!-- Entity69&#45;&gt;Entity115 -->
<g id="edge63" class="edge verb">
<title>Entity69&#45;&gt;Entity115</title>
<path fill="none" stroke="black" d="M6825.57,-273.14C6753.58,-320.81 6544.51,-459.24 6465.31,-511.68"/>
<polygon fill="black" stroke="black" points="6463.15,-508.91 6456.74,-517.35 6467.01,-514.75 6463.15,-508.91"/>
<text text-anchor="start" x="6584.44" y="-396.21" font-family="Times New Roman,serif" font-size="14.00">member of</text>
</g>
<!-- Entity68 -->
<g id="node20" class="node entity">
<title>Entity68</title>
<ellipse fill="none" stroke="black" cx="3910.51" cy="-3421.98" rx="37.89" ry="18"/>
<text text-anchor="start" x="3889.51" y="-3418.28" font-family="Times New Roman,serif" font-size="14.00">hunt oil</text>
</g>
<!-- Entity67 -->
<g id="node21" class="node entity">
<title>Entity67</title>
<ellipse fill="none" stroke="black" cx="3407.71" cy="-3319.05" rx="77.99" ry="18"/>
<text text-anchor="start" x="3355.71" y="-3315.35" font-family="Times New Roman,serif" font-size="14.00">dwight eisenhower</text>
</g>
<!-- Entity68&#45;&gt;Entity67 -->
<g id="edge15" class="edge verb">
<title>Entity68&#45;&gt;Entity67</title>
<path fill="none" stroke="black" d="M3875.55,-3414.82C3793.05,-3397.93 3585.03,-3355.35 3476.31,-3333.09"/>
<polygon fill="black" stroke="black" points="3476.92,-3329.64 3466.42,-3331.06 3475.52,-3336.5 3476.92,-3329.64"/>
<text text-anchor="start" x="3635.93" y="-3377.75" font-family="Times New Roman,serif" font-size="14.00">funded</text>
</g>
<!-- Entity67&#45;&gt;Entity77 -->
<g id="edge33" class="edge verb">
<title>Entity67&#45;&gt;Entity77</title>
<path fill="none" stroke="black" d="M3354.31,-3332.27C3235.99,-3361.59 2954.05,-3431.44 2850.73,-3457.03"/>
<polygon fill="black" stroke="black" points="2849.59,-3453.71 2840.73,-3459.51 2851.28,-3460.5 2849.59,-3453.71"/>
<text text-anchor="start" x="3083.52" y="-3398.45" font-family="Times New Roman,serif" font-size="14.00">is a</text>
</g>
<!-- Entity58 -->
<g id="node22" class="node entity">
<title>Entity58</title>
<ellipse fill="none" stroke="black" cx="6090.02" cy="-1038.01" rx="46.29" ry="18"/>
<text text-anchor="start" x="6062.52" y="-1034.31" font-family="Times New Roman,serif" font-size="14.00">van braun</text>
</g>
<!-- Entity35 -->
<g id="node23" class="node entity">
<title>Entity35</title>
<ellipse fill="none" stroke="black" cx="5629.96" cy="-1185.75" rx="74.99" ry="18"/>
<text text-anchor="start" x="5580.46" y="-1182.05" font-family="Times New Roman,serif" font-size="14.00">walter dornberger</text>
</g>
<!-- Entity58&#45;&gt;Entity35 -->
<g id="edge16" class="edge verb">
<title>Entity58&#45;&gt;Entity35</title>
<path fill="none" stroke="black" d="M6054.3,-1049.48C5974.27,-1075.18 5780.13,-1137.52 5684.72,-1168.16"/>
<polygon fill="black" stroke="black" points="5683.42,-1164.9 5674.97,-1171.29 5685.56,-1171.57 5683.42,-1164.9"/>
<text text-anchor="start" x="5806.51" y="-1112.62" font-family="Times New Roman,serif" font-size="14.00">worked for</text>
</g>
<!-- Entity100 -->
<g id="node38" class="node entity">
<title>Entity100</title>
<ellipse fill="none" stroke="black" cx="6214.16" cy="-1493.42" rx="90.98" ry="18"/>
<text text-anchor="start" x="6152.16" y="-1489.72" font-family="Times New Roman,serif" font-size="14.00">nsdap rocket program</text>
</g>
<!-- Entity58&#45;&gt;Entity100 -->
<g id="edge51" class="edge verb">
<title>Entity58&#45;&gt;Entity100</title>
<path fill="none" stroke="black" d="M6094.96,-1056.15C6114.09,-1126.34 6183.38,-1380.5 6206.55,-1465.5"/>
<polygon fill="black" stroke="black" points="6203.2,-1466.51 6209.2,-1475.23 6209.95,-1464.66 6203.2,-1466.51"/>
<text text-anchor="start" x="6094.75" y="-1264.63" font-family="Times New Roman,serif" font-size="14.00">worked at</text>
</g>
<!-- Entity35&#45;&gt;Entity71 -->
<g id="edge52" class="edge verb">
<title>Entity35&#45;&gt;Entity71</title>
<path fill="none" stroke="black" d="M5647.83,-1168.01C5716.63,-1099.72 5964.41,-853.79 6041.81,-776.97"/>
<polygon fill="black" stroke="black" points="6044.53,-779.19 6049.16,-769.66 6039.6,-774.22 6044.53,-779.19"/>
<text text-anchor="start" x="5783.82" y="-976.29" font-family="Times New Roman,serif" font-size="14.00">member of</text>
</g>
<!-- Entity35&#45;&gt;Entity76 -->
<g id="edge25" class="edge verb">
<title>Entity35&#45;&gt;Entity76</title>
<path fill="none" stroke="black" d="M5588.75,-1200.79C5469.88,-1250.27 5127.72,-1406.7 5014.98,-1463.16"/>
<polygon fill="black" stroke="black" points="5013.07,-1460.2 5005.72,-1467.83 5016.22,-1466.45 5013.07,-1460.2"/>
<text text-anchor="start" x="5245.87" y="-1335.77" font-family="Times New Roman,serif" font-size="14.00">worked at</text>
</g>
<!-- Entity35&#45;&gt;Entity76 -->
<g id="edge32" class="edge verb">
<title>Entity35&#45;&gt;Entity76</title>
<path fill="none" stroke="black" d="M5600.69,-1202.5C5497.59,-1254.81 5150.89,-1413.51 5024.8,-1466.38"/>
<polygon fill="black" stroke="black" points="5023.29,-1463.21 5015.41,-1470.29 5025.98,-1469.68 5023.29,-1463.21"/>
<text text-anchor="start" x="5312.75" y="-1338.24" font-family="Times New Roman,serif" font-size="14.00">vice&#45;president</text>
</g>
<!-- Entity35&#45;&gt;Entity100 -->
<g id="edge34" class="edge verb">
<title>Entity35&#45;&gt;Entity100</title>
<path fill="none" stroke="black" d="M5661.37,-1202.29C5759.8,-1254.13 6062.28,-1413.43 6173,-1471.74"/>
<polygon fill="black" stroke="black" points="6171.4,-1474.85 6181.88,-1476.42 6174.66,-1468.66 6171.4,-1474.85"/>
<text text-anchor="start" x="5876.19" y="-1340.82" font-family="Times New Roman,serif" font-size="14.00">created</text>
</g>
<!-- Entity99 -->
<g id="node42" class="node entity">
<title>Entity99</title>
<ellipse fill="none" stroke="black" cx="6200.81" cy="-1244.49" rx="65.79" ry="18"/>
<text text-anchor="start" x="6158.31" y="-1240.79" font-family="Times New Roman,serif" font-size="14.00">x series aircraft</text>
</g>
<!-- Entity35&#45;&gt;Entity99 -->
<g id="edge39" class="edge verb">
<title>Entity35&#45;&gt;Entity99</title>
<path fill="none" stroke="black" d="M5698.82,-1192.83C5807.66,-1204.03 6018.43,-1225.72 6129.05,-1237.11"/>
<polygon fill="black" stroke="black" points="6128.81,-1240.6 6139.11,-1238.14 6129.52,-1233.64 6128.81,-1240.6"/>
<text text-anchor="start" x="5872.93" y="-1218.77" font-family="Times New Roman,serif" font-size="14.00">created</text>
</g>
<!-- Entity72 -->
<g id="node24" class="node entity">
<title>Entity72</title>
<ellipse fill="none" stroke="black" cx="3104.94" cy="-2411.66" rx="27" ry="18"/>
<text text-anchor="start" x="3101.44" y="-2407.96" font-family="Times New Roman,serif" font-size="14.00">s</text>
</g>
<!-- Entity74 -->
<g id="node25" class="node entity">
<title>Entity74</title>
<ellipse fill="none" stroke="black" cx="3192.66" cy="-2523.64" rx="27" ry="18"/>
<text text-anchor="start" x="3188.66" y="-2519.94" font-family="Times New Roman,serif" font-size="14.00">o</text>
</g>
<!-- Entity72&#45;&gt;Entity74 -->
<g id="edge17" class="edge verb">
<title>Entity72&#45;&gt;Entity74</title>
<path fill="none" stroke="black" d="M3117.51,-2427.7C3132.23,-2446.5 3156.76,-2477.82 3173.78,-2499.53"/>
<polygon fill="black" stroke="black" points="3171.19,-2501.91 3180.11,-2507.62 3176.7,-2497.59 3171.19,-2501.91"/>
<text text-anchor="start" x="3138.64" y="-2467.42" font-family="Times New Roman,serif" font-size="14.00">v</text>
</g>
<!-- Entity21 -->
<g id="node27" class="node entity">
<title>Entity21</title>
<ellipse fill="none" stroke="black" cx="2612.17" cy="-3779.21" rx="35.19" ry="18"/>
<text text-anchor="start" x="2593.17" y="-3775.51" font-family="Times New Roman,serif" font-size="14.00">obama</text>
</g>
<!-- Entity21&#45;&gt;Entity77 -->
<g id="edge19" class="edge verb">
<title>Entity21&#45;&gt;Entity77</title>
<path fill="none" stroke="black" d="M2623.2,-3761.96C2656.42,-3709.98 2755.69,-3554.64 2795.32,-3492.63"/>
<polygon fill="black" stroke="black" points="2798.5,-3494.16 2800.93,-3483.84 2792.6,-3490.39 2798.5,-3494.16"/>
<text text-anchor="start" x="2693.26" y="-3631.09" font-family="Times New Roman,serif" font-size="14.00">isa</text>
</g>
<!-- Entity32 -->
<g id="node30" class="node entity">
<title>Entity32</title>
<ellipse fill="none" stroke="black" cx="1974.25" cy="-5750.06" rx="69.59" ry="18"/>
<text text-anchor="start" x="1928.75" y="-5746.36" font-family="Times New Roman,serif" font-size="14.00">andrew breitbart</text>
</g>
<!-- Entity32&#45;&gt;Entity80 -->
<g id="edge21" class="edge verb">
<title>Entity32&#45;&gt;Entity80</title>
<path fill="none" stroke="black" d="M1982.45,-5732C2017.84,-5654.03 2157.65,-5346.02 2200.12,-5252.46"/>
<polygon fill="black" stroke="black" points="2203.3,-5253.91 2204.25,-5243.36 2196.93,-5251.02 2203.3,-5253.91"/>
<text text-anchor="start" x="2050.28" y="-5496.03" font-family="Times New Roman,serif" font-size="14.00">created</text>
</g>
<!-- Entity43 -->
<g id="node32" class="node entity">
<title>Entity43</title>
<ellipse fill="none" stroke="black" cx="3189.85" cy="-3917.37" rx="71.49" ry="18"/>
<text text-anchor="start" x="3142.85" y="-3913.67" font-family="Times New Roman,serif" font-size="14.00">woodrow wilson</text>
</g>
<!-- Entity43&#45;&gt;Entity77 -->
<g id="edge23" class="edge verb">
<title>Entity43&#45;&gt;Entity77</title>
<path fill="none" stroke="black" d="M3175.03,-3899.7C3116.32,-3829.68 2899.89,-3571.57 2832.26,-3490.9"/>
<polygon fill="black" stroke="black" points="2834.93,-3488.65 2825.83,-3483.23 2829.57,-3493.14 2834.93,-3488.65"/>
<text text-anchor="start" x="2987.64" y="-3699.1" font-family="Times New Roman,serif" font-size="14.00">isa</text>
</g>
<!-- Entity110 -->
<g id="node53" class="node entity">
<title>Entity110</title>
<ellipse fill="none" stroke="black" cx="3431.08" cy="-4481.47" rx="71.49" ry="18"/>
<text text-anchor="start" x="3384.08" y="-4477.77" font-family="Times New Roman,serif" font-size="14.00">leauge of nations</text>
</g>
<!-- Entity43&#45;&gt;Entity110 -->
<g id="edge58" class="edge verb">
<title>Entity43&#45;&gt;Entity110</title>
<path fill="none" stroke="black" d="M3197.6,-3935.5C3232.72,-4017.64 3377.05,-4355.11 3419.37,-4454.08"/>
<polygon fill="black" stroke="black" points="3416.21,-4455.59 3423.36,-4463.41 3422.64,-4452.84 3416.21,-4455.59"/>
<text text-anchor="start" x="3267.48" y="-4198.59" font-family="Times New Roman,serif" font-size="14.00">created</text>
</g>
<!-- Entity27 -->
<g id="node34" class="node entity">
<title>Entity27</title>
<ellipse fill="none" stroke="black" cx="3814.92" cy="-2161.03" rx="63.89" ry="18"/>
<text text-anchor="start" x="3773.92" y="-2157.33" font-family="Times New Roman,serif" font-size="14.00">robert bigelow</text>
</g>
<!-- Entity27&#45;&gt;Entity3 -->
<g id="edge27" class="edge verb">
<title>Entity27&#45;&gt;Entity3</title>
<path fill="none" stroke="black" d="M3814.3,-2142.81C3811.69,-2066.22 3801.57,-1770.06 3798.39,-1677.14"/>
<polygon fill="black" stroke="black" points="3801.89,-1676.95 3798.05,-1667.08 3794.89,-1677.19 3801.89,-1676.95"/>
<text text-anchor="start" x="3774.35" y="-1913.77" font-family="Times New Roman,serif" font-size="14.00">funds</text>
</g>
<!-- Entity27&#45;&gt;Entity75 -->
<g id="edge43" class="edge verb">
<title>Entity27&#45;&gt;Entity75</title>
<path fill="none" stroke="black" d="M3812.88,-2179.21C3810.94,-2196.5 3807.99,-2222.77 3805.74,-2242.8"/>
<polygon fill="black" stroke="black" points="3802.24,-2242.58 3804.6,-2252.91 3809.2,-2243.36 3802.24,-2242.58"/>
<text text-anchor="start" x="3745.31" y="-2214.8" font-family="Times New Roman,serif" font-size="14.00">investigates</text>
</g>
<!-- Entity48 -->
<g id="node39" class="node entity">
<title>Entity48</title>
<ellipse fill="none" stroke="black" cx="703.89" cy="-2157.23" rx="58.49" ry="18"/>
<text text-anchor="start" x="666.89" y="-2153.53" font-family="Times New Roman,serif" font-size="14.00">rudolf steiner</text>
</g>
<!-- Entity48&#45;&gt;Entity96 -->
<g id="edge35" class="edge verb">
<title>Entity48&#45;&gt;Entity96</title>
<path fill="none" stroke="black" d="M739.81,-2171.7C845.09,-2214.1 1153.06,-2338.16 1273.34,-2386.61"/>
<polygon fill="black" stroke="black" points="1272.11,-2389.88 1282.69,-2390.37 1274.73,-2383.39 1272.11,-2389.88"/>
<text text-anchor="start" x="940.58" y="-2282.95" font-family="Times New Roman,serif" font-size="14.00">memberr of</text>
</g>
<!-- Entity109 -->
<g id="node54" class="node entity">
<title>Entity109</title>
<ellipse fill="none" stroke="black" cx="102.06" cy="-1925.7" rx="102.08" ry="18"/>
<text text-anchor="start" x="31.56" y="-1922" font-family="Times New Roman,serif" font-size="14.00">anthroposophical society</text>
</g>
<!-- Entity48&#45;&gt;Entity109 -->
<g id="edge59" class="edge verb">
<title>Entity48&#45;&gt;Entity109</title>
<path fill="none" stroke="black" d="M667.15,-2143.09C564.38,-2103.56 273.73,-1991.74 154.29,-1945.79"/>
<polygon fill="black" stroke="black" points="155.22,-1942.4 144.63,-1942.08 152.71,-1948.94 155.22,-1942.4"/>
<text text-anchor="start" x="369.72" y="-2048.24" font-family="Times New Roman,serif" font-size="14.00">created</text>
</g>
<!-- Entity18 -->
<g id="node40" class="node entity">
<title>Entity18</title>
<ellipse fill="none" stroke="black" cx="2415.76" cy="-3311.24" rx="58.49" ry="18"/>
<text text-anchor="start" x="2378.76" y="-3307.54" font-family="Times New Roman,serif" font-size="14.00">richard nixon</text>
</g>
<!-- Entity18&#45;&gt;Entity77 -->
<g id="edge36" class="edge verb">
<title>Entity18&#45;&gt;Entity77</title>
<path fill="none" stroke="black" d="M2451.96,-3325.45C2527.64,-3355.13 2701.75,-3423.43 2776.63,-3452.8"/>
<polygon fill="black" stroke="black" points="2775.51,-3456.12 2786.1,-3456.52 2778.07,-3449.61 2775.51,-3456.12"/>
<text text-anchor="start" x="2598.3" y="-3392.92" font-family="Times New Roman,serif" font-size="14.00">isa</text>
</g>
<!-- Entity17 -->
<g id="node41" class="node entity">
<title>Entity17</title>
<ellipse fill="none" stroke="black" cx="2294.88" cy="-3503.79" rx="56.59" ry="18"/>
<text text-anchor="start" x="2259.38" y="-3500.09" font-family="Times New Roman,serif" font-size="14.00">harry truman</text>
</g>
<!-- Entity17&#45;&gt;Entity77 -->
<g id="edge37" class="edge verb">
<title>Entity17&#45;&gt;Entity77</title>
<path fill="none" stroke="black" d="M2350.21,-3499.81C2454.56,-3492.32 2678.23,-3476.25 2770.66,-3469.61"/>
<polygon fill="black" stroke="black" points="2771.02,-3473.09 2780.74,-3468.89 2770.52,-3466.11 2771.02,-3473.09"/>
<text text-anchor="start" x="2544.43" y="-3488.51" font-family="Times New Roman,serif" font-size="14.00">isa</text>
</g>
<!-- Entity116 -->
<g id="node59" class="node entity">
<title>Entity116</title>
<ellipse fill="none" stroke="black" cx="1790" cy="-3593.11" rx="55.79" ry="18"/>
<text text-anchor="start" x="1755" y="-3589.41" font-family="Times New Roman,serif" font-size="14.00">freemasonry</text>
</g>
<!-- Entity17&#45;&gt;Entity116 -->
<g id="edge65" class="edge verb">
<title>Entity17&#45;&gt;Entity116</title>
<path fill="none" stroke="black" d="M2245.09,-3512.6C2151.41,-3529.17 1949.36,-3564.92 1849.02,-3582.67"/>
<polygon fill="black" stroke="black" points="1848.29,-3579.24 1839.05,-3584.43 1849.51,-3586.14 1848.29,-3579.24"/>
<text text-anchor="start" x="1986.05" y="-3551.43" font-family="Times New Roman,serif" font-size="14.00">member of</text>
</g>
<!-- Entity23 -->
<g id="node43" class="node entity">
<title>Entity23</title>
<ellipse fill="none" stroke="black" cx="2894.75" cy="-3123.28" rx="31.4" ry="18"/>
<text text-anchor="start" x="2878.75" y="-3119.58" font-family="Times New Roman,serif" font-size="14.00">carter</text>
</g>
<!-- Entity23&#45;&gt;Entity77 -->
<g id="edge41" class="edge verb">
<title>Entity23&#45;&gt;Entity77</title>
<path fill="none" stroke="black" d="M2890.41,-3141.26C2876.86,-3197.45 2835.21,-3370.09 2818.73,-3438.4"/>
<polygon fill="black" stroke="black" points="2815.26,-3437.89 2816.31,-3448.43 2822.06,-3439.53 2815.26,-3437.89"/>
<text text-anchor="start" x="2838.57" y="-3293.63" font-family="Times New Roman,serif" font-size="14.00">isa</text>
</g>
<!-- Entity23&#45;&gt;Entity108 -->
<g id="edge57" class="edge verb">
<title>Entity23&#45;&gt;Entity108</title>
<path fill="none" stroke="black" d="M2908.29,-3106.66C2945.39,-3061.13 3048.73,-2934.31 3091.95,-2881.26"/>
<polygon fill="black" stroke="black" points="3094.74,-2883.37 3098.35,-2873.41 3089.32,-2878.95 3094.74,-2883.37"/>
<text text-anchor="start" x="2945.12" y="-2997.76" font-family="Times New Roman,serif" font-size="14.00">witnessed</text>
</g>
<!-- Entity50 -->
<g id="node44" class="node entity">
<title>Entity50</title>
<ellipse fill="none" stroke="black" cx="1316.78" cy="-2294.06" rx="73.39" ry="18"/>
<text text-anchor="start" x="1268.28" y="-2290.36" font-family="Times New Roman,serif" font-size="14.00">madam blavatsky</text>
</g>
<!-- Entity50&#45;&gt;Entity96 -->
<g id="edge44" class="edge verb">
<title>Entity50&#45;&gt;Entity96</title>
<path fill="none" stroke="black" d="M1317.66,-2312.09C1318.53,-2329.83 1319.87,-2357.17 1320.88,-2377.84"/>
<polygon fill="black" stroke="black" points="1317.39,-2378.13 1321.37,-2387.95 1324.38,-2377.79 1317.39,-2378.13"/>
<text text-anchor="start" x="1278.27" y="-2348.77" font-family="Times New Roman,serif" font-size="14.00">created</text>
</g>
<!-- Entity51 -->
<g id="node45" class="node entity">
<title>Entity51</title>
<ellipse fill="none" stroke="black" cx="3605.14" cy="-4277.68" rx="53.89" ry="18"/>
<text text-anchor="start" x="3571.64" y="-4273.98" font-family="Times New Roman,serif" font-size="14.00">edgar casey</text>
</g>
<!-- Entity51&#45;&gt;Entity43 -->
<g id="edge48" class="edge verb">
<title>Entity51&#45;&gt;Entity43</title>
<path fill="none" stroke="black" d="M3585.66,-4260.78C3518.53,-4202.54 3296.57,-4009.96 3217.84,-3941.66"/>
<polygon fill="black" stroke="black" points="3220.1,-3938.98 3210.25,-3935.07 3215.51,-3944.27 3220.1,-3938.98"/>
<text text-anchor="start" x="3359.75" y="-4105.02" font-family="Times New Roman,serif" font-size="14.00">advises</text>
</g>
<!-- Entity29 -->
<g id="node46" class="node entity">
<title>Entity29</title>
<ellipse fill="none" stroke="black" cx="5435.3" cy="-1308.28" rx="57.69" ry="18"/>
<text text-anchor="start" x="5398.8" y="-1304.58" font-family="Times New Roman,serif" font-size="14.00">michael pane</text>
</g>
<!-- Entity29&#45;&gt;Entity35 -->
<g id="edge50" class="edge verb">
<title>Entity29&#45;&gt;Entity35</title>
<path fill="none" stroke="black" d="M5461.14,-1292.01C5495.33,-1270.49 5555.72,-1232.48 5594.24,-1208.23"/>
<polygon fill="black" stroke="black" points="5596.46,-1210.97 5603.06,-1202.68 5592.74,-1205.04 5596.46,-1210.97"/>
<text text-anchor="start" x="5464.69" y="-1253.92" font-family="Times New Roman,serif" font-size="14.00">worked for</text>
</g>
<!-- Entity29&#45;&gt;Entity76 -->
<g id="edge49" class="edge verb">
<title>Entity29&#45;&gt;Entity76</title>
<path fill="none" stroke="black" d="M5398.68,-1322.33C5315.75,-1354.15 5113.75,-1431.66 5023.42,-1466.31"/>
<polygon fill="black" stroke="black" points="5022.09,-1463.08 5014.01,-1469.93 5024.6,-1469.61 5022.09,-1463.08"/>
<text text-anchor="start" x="5155.05" y="-1398.12" font-family="Times New Roman,serif" font-size="14.00">worked at</text>
</g>
<!-- Entity30 -->
<g id="node49" class="node entity">
<title>Entity30</title>
<ellipse fill="none" stroke="black" cx="4485.94" cy="-3095.66" rx="39.79" ry="18"/>
<text text-anchor="start" x="4463.44" y="-3091.96" font-family="Times New Roman,serif" font-size="14.00">crowley</text>
</g>
<!-- Entity106 -->
<g id="node50" class="node entity">
<title>Entity106</title>
<ellipse fill="none" stroke="black" cx="4573.66" cy="-3207.64" rx="38.99" ry="18"/>
<text text-anchor="start" x="4551.66" y="-3203.94" font-family="Times New Roman,serif" font-size="14.00">x magic</text>
</g>
<!-- Entity30&#45;&gt;Entity106 -->
<g id="edge55" class="edge verb">
<title>Entity30&#45;&gt;Entity106</title>
<path fill="none" stroke="black" d="M4499.26,-3112.67C4513.82,-3131.25 4537.28,-3161.2 4553.96,-3182.49"/>
<polygon fill="black" stroke="black" points="4551.29,-3184.76 4560.21,-3190.47 4556.8,-3180.44 4551.29,-3184.76"/>
<text text-anchor="start" x="4465.61" y="-3151.38" font-family="Times New Roman,serif" font-size="14.00">member of</text>
</g>
<!-- Entity56 -->
<g id="node56" class="node entity">
<title>Entity56</title>
<ellipse fill="none" stroke="black" cx="4499.94" cy="-2411.66" rx="53.89" ry="18"/>
<text text-anchor="start" x="4466.44" y="-2407.96" font-family="Times New Roman,serif" font-size="14.00">black magic</text>
</g>
<!-- Entity114 -->
<g id="node57" class="node entity">
<title>Entity114</title>
<ellipse fill="none" stroke="black" cx="4587.66" cy="-2523.64" rx="28.7" ry="18"/>
<text text-anchor="start" x="4573.66" y="-2519.94" font-family="Times New Roman,serif" font-size="14.00">x left</text>
</g>
<!-- Entity56&#45;&gt;Entity114 -->
<g id="edge61" class="edge verb">
<title>Entity56&#45;&gt;Entity114</title>
<path fill="none" stroke="black" d="M4513.64,-2429.16C4528.45,-2448.05 4552.14,-2478.29 4568.72,-2499.45"/>
<polygon fill="black" stroke="black" points="4565.98,-2501.64 4574.9,-2507.36 4571.49,-2497.32 4565.98,-2501.64"/>
<text text-anchor="start" x="4480.18" y="-2468.11" font-family="Times New Roman,serif" font-size="14.00">member of</text>
</g>
</g>
</svg>
