<?xml version="1.0" encoding="UTF-8" standalone="no"?>
<?xml-stylesheet href="./styles.css" type="text/css"?>
<!DOCTYPE svg PUBLIC "-//W3C//DTD SVG 1.1//EN"
 "http://www.w3.org/Graphics/SVG/1.1/DTD/svg11.dtd">
<!-- Generated by graphviz version 2.47.3 (20210619.1520)
 -->
<!-- Title: G Pages: 1 -->
<svg width="5484pt" height="6812pt"
 viewBox="0.00 0.00 5484.00 6812.00" xmlns="http://www.w3.org/2000/svg" xmlns:xlink="http://www.w3.org/1999/xlink">
<g id="graph0" class="graph" transform="scale(1 1) rotate(0) translate(4 6808)">
<title>G</title>
<polygon fill="white" stroke="transparent" points="-4,4 -4,-6808 5480,-6808 5480,4 -4,4"/>
<!-- Entity3 -->
<g id="node1" class="node entity">
<title>Entity3</title>
<ellipse fill="none" stroke="black" cx="3455.53" cy="-3678.82" rx="64.19" ry="18"/>
<text text-anchor="start" x="3414.03" y="-3675.12" font-family="Times New Roman,serif" font-size="14.00">john f kennedy</text>
</g>
<!-- Entity22 -->
<g id="node2" class="node entity">
<title>Entity22</title>
<ellipse fill="none" stroke="black" cx="2957.43" cy="-3565.86" rx="27" ry="18"/>
<text text-anchor="start" x="2949.43" y="-3562.16" font-family="Times New Roman,serif" font-size="14.00">cia</text>
</g>
<!-- Entity3&#45;&gt;Entity22 -->
<g id="edge1" class="edge verb">
<title>Entity3&#45;&gt;Entity22</title>
<path fill="none" stroke="black" d="M3405.49,-3667.47C3304.86,-3644.65 3080.17,-3593.69 2992.98,-3573.92"/>
<polygon fill="black" stroke="black" points="2993.57,-3570.46 2983.04,-3571.66 2992.02,-3577.29 2993.57,-3570.46"/>
<text text-anchor="start" x="3095.23" y="-3624.5" font-family="Times New Roman,serif" font-size="14.00">heads (1961&#45;1963)</text>
</g>
<!-- Entity66 -->
<g id="node20" class="node entity">
<title>Entity66</title>
<ellipse fill="none" stroke="black" cx="3996.23" cy="-3600.74" rx="31.4" ry="18"/>
<text text-anchor="start" x="3980.23" y="-3597.04" font-family="Times New Roman,serif" font-size="14.00">potus</text>
</g>
<!-- Entity3&#45;&gt;Entity66 -->
<g id="edge23" class="edge verb">
<title>Entity3&#45;&gt;Entity66</title>
<path fill="none" stroke="black" d="M3512.88,-3670.54C3622.78,-3654.67 3860.55,-3620.33 3955.68,-3606.59"/>
<polygon fill="black" stroke="black" points="3956.37,-3610.03 3965.76,-3605.14 3955.37,-3603.1 3956.37,-3610.03"/>
<text text-anchor="start" x="3647.28" y="-3642.37" font-family="Times New Roman,serif" font-size="14.00">isa (1961&#45;1963)</text>
</g>
<!-- Entity67 -->
<g id="node25" class="node entity">
<title>Entity67</title>
<ellipse fill="none" stroke="black" cx="2251.19" cy="-3771.74" rx="77.19" ry="18"/>
<text text-anchor="start" x="2199.69" y="-3768.04" font-family="Times New Roman,serif" font-size="14.00">psi&#45;consciousness</text>
</g>
<!-- Entity22&#45;&gt;Entity67 -->
<g id="edge43" class="edge verb">
<title>Entity22&#45;&gt;Entity67</title>
<path fill="none" stroke="black" d="M2932.3,-3573.18C2831.53,-3602.56 2455.25,-3712.25 2309.43,-3754.76"/>
<polygon fill="black" stroke="black" points="2308.37,-3751.42 2299.75,-3757.58 2310.33,-3758.14 2308.37,-3751.42"/>
<text text-anchor="start" x="2556.86" y="-3667.77" font-family="Times New Roman,serif" font-size="14.00">investigates</text>
</g>
<!-- Entity90 -->
<g id="node52" class="node entity">
<title>Entity90</title>
<ellipse fill="none" stroke="black" cx="3255.97" cy="-3570.78" rx="27" ry="18"/>
<text text-anchor="start" x="3246.47" y="-3567.08" font-family="Times New Roman,serif" font-size="14.00">ufo</text>
</g>
<!-- Entity22&#45;&gt;Entity90 -->
<g id="edge62" class="edge verb">
<title>Entity22&#45;&gt;Entity90</title>
<path fill="none" stroke="black" d="M2984.45,-3566.3C3037.94,-3567.18 3157.39,-3569.16 3218.46,-3570.16"/>
<polygon fill="black" stroke="black" points="3218.74,-3573.67 3228.8,-3570.34 3218.86,-3566.67 3218.74,-3573.67"/>
<text text-anchor="start" x="3037.45" y="-3572.03" font-family="Times New Roman,serif" font-size="14.00">investigates</text>
</g>
<!-- Entity14 -->
<g id="node3" class="node entity">
<title>Entity14</title>
<ellipse fill="none" stroke="black" cx="422.59" cy="-3513.3" rx="74.99" ry="18"/>
<text text-anchor="start" x="373.09" y="-3509.6" font-family="Times New Roman,serif" font-size="14.00">gene roddenberry</text>
</g>
<!-- Entity8 -->
<g id="node4" class="node entity">
<title>Entity8</title>
<ellipse fill="none" stroke="black" cx="977.93" cy="-3563.89" rx="38.19" ry="18"/>
<text text-anchor="start" x="956.43" y="-3560.19" font-family="Times New Roman,serif" font-size="14.00">the nine</text>
</g>
<!-- Entity14&#45;&gt;Entity8 -->
<g id="edge2" class="edge verb">
<title>Entity14&#45;&gt;Entity8</title>
<path fill="none" stroke="black" d="M492.64,-3519.68C607.15,-3530.11 831.48,-3550.55 929.81,-3559.51"/>
<polygon fill="black" stroke="black" points="929.77,-3563.02 940.05,-3560.44 930.41,-3556.05 929.77,-3563.02"/>
<text text-anchor="start" x="607.23" y="-3543.4" font-family="Times New Roman,serif" font-size="14.00">claiemd to channel</text>
</g>
<!-- Entity70 -->
<g id="node23" class="node entity">
<title>Entity70</title>
<ellipse fill="none" stroke="black" cx="929.54" cy="-3455.83" rx="94.48" ry="18"/>
<text text-anchor="start" x="865.04" y="-3452.13" font-family="Times New Roman,serif" font-size="14.00">egyptian gods in a ship</text>
</g>
<!-- Entity8&#45;&gt;Entity70 -->
<g id="edge16" class="edge verb">
<title>Entity8&#45;&gt;Entity70</title>
<path fill="none" stroke="black" d="M969.94,-3546.05C962.32,-3529.02 950.72,-3503.12 941.9,-3483.43"/>
<polygon fill="black" stroke="black" points="944.99,-3481.76 937.7,-3474.06 938.6,-3484.62 944.99,-3481.76"/>
<text text-anchor="start" x="851.92" y="-3518.54" font-family="Times New Roman,serif" font-size="14.00">claimed to channel</text>
</g>
<!-- Entity16 -->
<g id="node5" class="node entity">
<title>Entity16</title>
<ellipse fill="none" stroke="black" cx="3990.29" cy="-3708.72" rx="68.49" ry="18"/>
<text text-anchor="start" x="3945.79" y="-3705.02" font-family="Times New Roman,serif" font-size="14.00">george hw bush</text>
</g>
<!-- Entity20 -->
<g id="node6" class="node entity">
<title>Entity20</title>
<ellipse fill="none" stroke="black" cx="4386.18" cy="-3740.44" rx="63.89" ry="18"/>
<text text-anchor="start" x="4345.18" y="-3736.74" font-family="Times New Roman,serif" font-size="14.00">george w bush</text>
</g>
<!-- Entity16&#45;&gt;Entity20 -->
<g id="edge3" class="edge verb">
<title>Entity16&#45;&gt;Entity20</title>
<path fill="none" stroke="black" d="M4055.66,-3713.96C4126.98,-3719.67 4240.78,-3728.79 4314.5,-3734.69"/>
<polygon fill="black" stroke="black" points="4314.37,-3738.19 4324.62,-3735.5 4314.93,-3731.22 4314.37,-3738.19"/>
<text text-anchor="start" x="4153.08" y="-3728.12" font-family="Times New Roman,serif" font-size="14.00">father</text>
</g>
<!-- Entity16&#45;&gt;Entity66 -->
<g id="edge20" class="edge verb">
<title>Entity16&#45;&gt;Entity66</title>
<path fill="none" stroke="black" d="M3991.3,-3690.4C3992.22,-3673.55 3993.61,-3648.29 3994.68,-3628.88"/>
<polygon fill="black" stroke="black" points="3998.18,-3628.96 3995.23,-3618.78 3991.19,-3628.58 3998.18,-3628.96"/>
<text text-anchor="start" x="3976.99" y="-3663.44" font-family="Times New Roman,serif" font-size="14.00">isa</text>
</g>
<!-- Entity20&#45;&gt;Entity66 -->
<g id="edge42" class="edge verb">
<title>Entity20&#45;&gt;Entity66</title>
<path fill="none" stroke="black" d="M4346.64,-3726.27C4270.82,-3699.11 4106.01,-3640.07 4032.68,-3613.8"/>
<polygon fill="black" stroke="black" points="4033.55,-3610.39 4022.96,-3610.31 4031.19,-3616.98 4033.55,-3610.39"/>
<text text-anchor="start" x="4173.66" y="-3673.83" font-family="Times New Roman,serif" font-size="14.00">isa</text>
</g>
<!-- Entity2 -->
<g id="node7" class="node entity">
<title>Entity2</title>
<ellipse fill="none" stroke="black" cx="1348.38" cy="-3454.71" rx="41.69" ry="18"/>
<text text-anchor="start" x="1324.38" y="-3451.01" font-family="Times New Roman,serif" font-size="14.00">uri geller</text>
</g>
<!-- Entity2&#45;&gt;Entity8 -->
<g id="edge4" class="edge verb">
<title>Entity2&#45;&gt;Entity8</title>
<path fill="none" stroke="black" d="M1313.87,-3464.88C1245.85,-3484.93 1094.67,-3529.48 1020.56,-3551.33"/>
<polygon fill="black" stroke="black" points="1019.23,-3548.07 1010.63,-3554.25 1021.21,-3554.78 1019.23,-3548.07"/>
<text text-anchor="start" x="1063.21" y="-3511.91" font-family="Times New Roman,serif" font-size="14.00">claiemd to channel</text>
</g>
<!-- Entity26 -->
<g id="node8" class="node entity">
<title>Entity26</title>
<ellipse fill="none" stroke="black" cx="49" cy="-6030.4" rx="49.29" ry="18"/>
<text text-anchor="start" x="19" y="-6026.7" font-family="Times New Roman,serif" font-size="14.00">adolf hitler</text>
</g>
<!-- Entity28 -->
<g id="node9" class="node entity">
<title>Entity28</title>
<ellipse fill="none" stroke="black" cx="406.59" cy="-5824.86" rx="32.49" ry="18"/>
<text text-anchor="start" x="389.59" y="-5821.16" font-family="Times New Roman,serif" font-size="14.00">nsdap</text>
</g>
<!-- Entity26&#45;&gt;Entity28 -->
<g id="edge5" class="edge verb">
<title>Entity26&#45;&gt;Entity28</title>
<path fill="none" stroke="black" d="M75.58,-6015.12C140.18,-5977.99 305.18,-5883.15 374.82,-5843.12"/>
<polygon fill="black" stroke="black" points="376.68,-5846.09 383.6,-5838.07 373.19,-5840.02 376.68,-5846.09"/>
<text text-anchor="start" x="184.2" y="-5932.92" font-family="Times New Roman,serif" font-size="14.00">created</text>
</g>
<!-- Entity75 -->
<g id="node31" class="node entity">
<title>Entity75</title>
<ellipse fill="none" stroke="black" cx="397.7" cy="-6244.03" rx="38.99" ry="18"/>
<text text-anchor="start" x="375.7" y="-6240.33" font-family="Times New Roman,serif" font-size="14.00">far right</text>
</g>
<!-- Entity28&#45;&gt;Entity75 -->
<g id="edge29" class="edge verb">
<title>Entity28&#45;&gt;Entity75</title>
<path fill="none" stroke="black" d="M406.21,-5842.87C404.82,-5908.42 400.02,-6134.65 398.31,-6215.24"/>
<polygon fill="black" stroke="black" points="394.8,-6215.54 398.09,-6225.61 401.8,-6215.69 394.8,-6215.54"/>
<text text-anchor="start" x="341.26" y="-6032.85" font-family="Times New Roman,serif" font-size="14.00">member of</text>
</g>
<!-- Entity15 -->
<g id="node10" class="node entity">
<title>Entity15</title>
<ellipse fill="none" stroke="black" cx="4165.6" cy="-3131.17" rx="59.59" ry="18"/>
<text text-anchor="start" x="4127.6" y="-3127.47" font-family="Times New Roman,serif" font-size="14.00">donald trump</text>
</g>
<!-- Entity48 -->
<g id="node11" class="node entity">
<title>Entity48</title>
<ellipse fill="none" stroke="black" cx="3470.51" cy="-3294.61" rx="50.09" ry="18"/>
<text text-anchor="start" x="3440.01" y="-3290.91" font-family="Times New Roman,serif" font-size="14.00">john trump</text>
</g>
<!-- Entity15&#45;&gt;Entity48 -->
<g id="edge6" class="edge verb">
<title>Entity15&#45;&gt;Entity48</title>
<path fill="none" stroke="black" d="M4118.37,-3142.28C3992.99,-3171.76 3652.5,-3251.82 3522.19,-3282.46"/>
<polygon fill="black" stroke="black" points="3521.37,-3279.06 3512.44,-3284.75 3522.97,-3285.87 3521.37,-3279.06"/>
<text text-anchor="start" x="3761.28" y="-3216.17" font-family="Times New Roman,serif" font-size="14.00">nephew of</text>
</g>
<!-- Entity15&#45;&gt;Entity66 -->
<g id="edge27" class="edge verb">
<title>Entity15&#45;&gt;Entity66</title>
<path fill="none" stroke="black" d="M4159.06,-3149.29C4133.12,-3221.2 4037.34,-3486.75 4006.13,-3573.28"/>
<polygon fill="black" stroke="black" points="4002.75,-3572.33 4002.65,-3582.92 4009.34,-3574.7 4002.75,-3572.33"/>
<text text-anchor="start" x="4066.6" y="-3365.09" font-family="Times New Roman,serif" font-size="14.00">isa</text>
</g>
<!-- Entity48&#45;&gt;Entity22 -->
<g id="edge10" class="edge verb">
<title>Entity48&#45;&gt;Entity22</title>
<path fill="none" stroke="black" d="M3442.19,-3309.58C3353.22,-3356.62 3079.76,-3501.19 2987.89,-3549.75"/>
<polygon fill="black" stroke="black" points="2986.04,-3546.77 2978.84,-3554.54 2989.31,-3552.96 2986.04,-3546.77"/>
<text text-anchor="start" x="3154.04" y="-3433.47" font-family="Times New Roman,serif" font-size="14.00">member of</text>
</g>
<!-- Entity82 -->
<g id="node41" class="node entity">
<title>Entity82</title>
<ellipse fill="none" stroke="black" cx="3184.43" cy="-2937.97" rx="50.89" ry="18"/>
<text text-anchor="start" x="3153.43" y="-2934.27" font-family="Times New Roman,serif" font-size="14.00">nikola tesla</text>
</g>
<!-- Entity48&#45;&gt;Entity82 -->
<g id="edge40" class="edge verb">
<title>Entity48&#45;&gt;Entity82</title>
<path fill="none" stroke="black" d="M3456.32,-3276.93C3409.51,-3218.56 3259.79,-3031.92 3204.88,-2963.46"/>
<polygon fill="black" stroke="black" points="3207.35,-2960.96 3198.37,-2955.35 3201.89,-2965.34 3207.35,-2960.96"/>
<text text-anchor="start" x="3289.6" y="-3123.99" font-family="Times New Roman,serif" font-size="14.00">studied</text>
</g>
<!-- Entity5 -->
<g id="node12" class="node entity">
<title>Entity5</title>
<ellipse fill="none" stroke="black" cx="1421.63" cy="-4015.66" rx="65.79" ry="18"/>
<text text-anchor="start" x="1379.13" y="-4011.96" font-family="Times New Roman,serif" font-size="14.00">arthur m young</text>
</g>
<!-- Entity5&#45;&gt;Entity8 -->
<g id="edge7" class="edge verb">
<title>Entity5&#45;&gt;Entity8</title>
<path fill="none" stroke="black" d="M1404.5,-3998.23C1335.85,-3928.32 1080.4,-3668.22 1001.38,-3587.76"/>
<polygon fill="black" stroke="black" points="1003.8,-3585.23 994.29,-3580.55 998.8,-3590.14 1003.8,-3585.23"/>
<text text-anchor="start" x="1140.94" y="-3796.79" font-family="Times New Roman,serif" font-size="14.00">member&#45;of</text>
</g>
<!-- Entity5&#45;&gt;Entity67 -->
<g id="edge18" class="edge verb">
<title>Entity5&#45;&gt;Entity67</title>
<path fill="none" stroke="black" d="M1466.52,-4002.46C1606.72,-3961.23 2036.37,-3834.9 2193.15,-3788.8"/>
<polygon fill="black" stroke="black" points="2194.47,-3792.06 2203.08,-3785.88 2192.49,-3785.35 2194.47,-3792.06"/>
<text text-anchor="start" x="1788.83" y="-3899.43" font-family="Times New Roman,serif" font-size="14.00">studied</text>
</g>
<!-- Entity72 -->
<g id="node28" class="node entity">
<title>Entity72</title>
<ellipse fill="none" stroke="black" cx="1023.51" cy="-4631.65" rx="53.89" ry="18"/>
<text text-anchor="start" x="990.01" y="-4627.95" font-family="Times New Roman,serif" font-size="14.00">bell aviation</text>
</g>
<!-- Entity5&#45;&gt;Entity72 -->
<g id="edge24" class="edge verb">
<title>Entity5&#45;&gt;Entity72</title>
<path fill="none" stroke="black" d="M1410.14,-4033.43C1353.95,-4120.37 1108.04,-4500.85 1040.64,-4605.14"/>
<polygon fill="black" stroke="black" points="1037.53,-4603.51 1035.04,-4613.81 1043.41,-4607.31 1037.53,-4603.51"/>
<text text-anchor="start" x="1184.39" y="-4323.09" font-family="Times New Roman,serif" font-size="14.00">created</text>
</g>
<!-- Entity1 -->
<g id="node13" class="node entity">
<title>Entity1</title>
<ellipse fill="none" stroke="black" cx="1329.58" cy="-3346.76" rx="64.19" ry="18"/>
<text text-anchor="start" x="1288.08" y="-3343.06" font-family="Times New Roman,serif" font-size="14.00">andre puharich</text>
</g>
<!-- Entity1&#45;&gt;Entity2 -->
<g id="edge8" class="edge verb">
<title>Entity1&#45;&gt;Entity2</title>
<path fill="none" stroke="black" d="M1332.77,-3365.07C1335.71,-3381.92 1340.1,-3407.17 1343.48,-3426.58"/>
<polygon fill="black" stroke="black" points="1340.08,-3427.42 1345.24,-3436.67 1346.97,-3426.22 1340.08,-3427.42"/>
<text text-anchor="start" x="1278.13" y="-3399.62" font-family="Times New Roman,serif" font-size="14.00">sponsored</text>
</g>
<!-- Entity7 -->
<g id="node14" class="node entity">
<title>Entity7</title>
<ellipse fill="none" stroke="black" cx="1726.61" cy="-3864.95" rx="68.49" ry="18"/>
<text text-anchor="start" x="1682.11" y="-3861.25" font-family="Times New Roman,serif" font-size="14.00">jeffrey mishlove</text>
</g>
<!-- Entity7&#45;&gt;Entity2 -->
<g id="edge9" class="edge verb">
<title>Entity7&#45;&gt;Entity2</title>
<path fill="none" stroke="black" d="M1710.35,-3847.32C1650.33,-3782.21 1440.99,-3555.15 1371.21,-3479.47"/>
<polygon fill="black" stroke="black" points="1373.51,-3476.8 1364.16,-3471.82 1368.36,-3481.54 1373.51,-3476.8"/>
<text text-anchor="start" x="1485.78" y="-3667.19" font-family="Times New Roman,serif" font-size="14.00">promoted</text>
</g>
<!-- Entity7&#45;&gt;Entity67 -->
<g id="edge19" class="edge verb">
<title>Entity7&#45;&gt;Entity67</title>
<path fill="none" stroke="black" d="M1790.16,-3858.29C1891.77,-3843.2 2089.51,-3808.06 2189.75,-3787.28"/>
<polygon fill="black" stroke="black" points="2190.66,-3790.66 2199.73,-3785.19 2189.22,-3783.81 2190.66,-3790.66"/>
<text text-anchor="start" x="1948.96" y="-3826.59" font-family="Times New Roman,serif" font-size="14.00">studied</text>
</g>
<!-- Entity7&#45;&gt;Entity67 -->
<g id="edge26" class="edge verb">
<title>Entity7&#45;&gt;Entity67</title>
<path fill="none" stroke="black" d="M1775.23,-3852.09C1865.7,-3832.81 2060.65,-3797.88 2170.93,-3780.92"/>
<polygon fill="black" stroke="black" points="2171.64,-3784.35 2181,-3779.38 2170.59,-3777.43 2171.64,-3784.35"/>
<text text-anchor="start" x="1909.08" y="-3805.31" font-family="Times New Roman,serif" font-size="14.00">investigates</text>
</g>
<!-- Entity30 -->
<g id="node15" class="node entity">
<title>Entity30</title>
<ellipse fill="none" stroke="black" cx="703.44" cy="-5294.63" rx="74.99" ry="18"/>
<text text-anchor="start" x="653.94" y="-5290.93" font-family="Times New Roman,serif" font-size="14.00">walter dornberger</text>
</g>
<!-- Entity30&#45;&gt;Entity28 -->
<g id="edge11" class="edge verb">
<title>Entity30&#45;&gt;Entity28</title>
<path fill="none" stroke="black" d="M693.4,-5312.58C649.38,-5391.19 473.46,-5705.41 421.26,-5798.65"/>
<polygon fill="black" stroke="black" points="418.16,-5797.02 416.33,-5807.45 424.27,-5800.44 418.16,-5797.02"/>
<text text-anchor="start" x="496.33" y="-5559.41" font-family="Times New Roman,serif" font-size="14.00">member of</text>
</g>
<!-- Entity30&#45;&gt;Entity72 -->
<g id="edge35" class="edge verb">
<title>Entity30&#45;&gt;Entity72</title>
<path fill="none" stroke="black" d="M714.9,-5276.58C765.4,-5184.82 965.56,-4770.49 1013.37,-4659.22"/>
<polygon fill="black" stroke="black" points="1016.72,-4660.27 1017.39,-4649.7 1010.27,-4657.55 1016.72,-4660.27"/>
<text text-anchor="start" x="785.13" y="-4971.7" font-family="Times New Roman,serif" font-size="14.00">vice&#45;president</text>
</g>
<!-- Entity30&#45;&gt;Entity72 -->
<g id="edge49" class="edge verb">
<title>Entity30&#45;&gt;Entity72</title>
<path fill="none" stroke="black" d="M709.57,-5276.56C747.71,-5184.49 948.6,-4767.92 1007.45,-4658.19"/>
<polygon fill="black" stroke="black" points="1010.53,-4659.85 1012.23,-4649.4 1004.38,-4656.51 1010.53,-4659.85"/>
<text text-anchor="start" x="802.51" y="-4956.18" font-family="Times New Roman,serif" font-size="14.00">worked at</text>
</g>
<!-- Entity76 -->
<g id="node35" class="node entity">
<title>Entity76</title>
<ellipse fill="none" stroke="black" cx="721.99" cy="-5402.59" rx="90.98" ry="18"/>
<text text-anchor="start" x="659.99" y="-5398.89" font-family="Times New Roman,serif" font-size="14.00">nsdap rocket program</text>
</g>
<!-- Entity30&#45;&gt;Entity76 -->
<g id="edge36" class="edge verb">
<title>Entity30&#45;&gt;Entity76</title>
<path fill="none" stroke="black" d="M706.59,-5312.95C709.49,-5329.8 713.82,-5355.05 717.16,-5374.46"/>
<polygon fill="black" stroke="black" points="713.75,-5375.29 718.89,-5384.55 720.65,-5374.1 713.75,-5375.29"/>
<text text-anchor="start" x="670.87" y="-5347.5" font-family="Times New Roman,serif" font-size="14.00">created</text>
</g>
<!-- Entity104 -->
<g id="node55" class="node entity">
<title>Entity104</title>
<ellipse fill="none" stroke="black" cx="711.72" cy="-5858.18" rx="65.79" ry="18"/>
<text text-anchor="start" x="669.22" y="-5854.48" font-family="Times New Roman,serif" font-size="14.00">x series aircraft</text>
</g>
<!-- Entity30&#45;&gt;Entity104 -->
<g id="edge59" class="edge verb">
<title>Entity30&#45;&gt;Entity104</title>
<path fill="none" stroke="black" d="M703.71,-5312.75C704.91,-5394.55 709.83,-5729.91 711.3,-5829.9"/>
<polygon fill="black" stroke="black" points="707.8,-5830.18 711.45,-5840.13 714.8,-5830.08 707.8,-5830.18"/>
<text text-anchor="start" x="666.51" y="-5575.13" font-family="Times New Roman,serif" font-size="14.00">created</text>
</g>
<!-- Entity32 -->
<g id="node16" class="node entity">
<title>Entity32</title>
<ellipse fill="none" stroke="black" cx="211.77" cy="-5405.22" rx="46.29" ry="18"/>
<text text-anchor="start" x="184.27" y="-5401.52" font-family="Times New Roman,serif" font-size="14.00">van braun</text>
</g>
<!-- Entity32&#45;&gt;Entity30 -->
<g id="edge12" class="edge verb">
<title>Entity32&#45;&gt;Entity30</title>
<path fill="none" stroke="black" d="M252.01,-5396.17C337.01,-5377.05 535.53,-5332.4 638.66,-5309.21"/>
<polygon fill="black" stroke="black" points="639.65,-5312.57 648.64,-5306.96 638.12,-5305.74 639.65,-5312.57"/>
<text text-anchor="start" x="382.33" y="-5356.49" font-family="Times New Roman,serif" font-size="14.00">worked for</text>
</g>
<!-- Entity32&#45;&gt;Entity76 -->
<g id="edge48" class="edge verb">
<title>Entity32&#45;&gt;Entity76</title>
<path fill="none" stroke="black" d="M257.95,-5404.98C339.42,-5404.56 510.46,-5403.68 620.59,-5403.11"/>
<polygon fill="black" stroke="black" points="620.74,-5406.61 630.72,-5403.06 620.7,-5399.61 620.74,-5406.61"/>
<text text-anchor="start" x="383.27" y="-5407.85" font-family="Times New Roman,serif" font-size="14.00">worked at</text>
</g>
<!-- Entity29 -->
<g id="node17" class="node entity">
<title>Entity29</title>
<ellipse fill="none" stroke="black" cx="3847.12" cy="-4297.45" rx="37.89" ry="18"/>
<text text-anchor="start" x="3826.12" y="-4293.75" font-family="Times New Roman,serif" font-size="14.00">hunt oil</text>
</g>
<!-- Entity36 -->
<g id="node18" class="node entity">
<title>Entity36</title>
<ellipse fill="none" stroke="black" cx="3871.79" cy="-4189.46" rx="77.99" ry="18"/>
<text text-anchor="start" x="3819.79" y="-4185.76" font-family="Times New Roman,serif" font-size="14.00">dwight eisenhower</text>
</g>
<!-- Entity29&#45;&gt;Entity36 -->
<g id="edge13" class="edge verb">
<title>Entity29&#45;&gt;Entity36</title>
<path fill="none" stroke="black" d="M3851.31,-4279.13C3855.18,-4262.2 3860.98,-4236.79 3865.43,-4217.34"/>
<polygon fill="black" stroke="black" points="3868.86,-4218.04 3867.67,-4207.51 3862.03,-4216.48 3868.86,-4218.04"/>
<text text-anchor="start" x="3818.37" y="-4252.03" font-family="Times New Roman,serif" font-size="14.00">funded</text>
</g>
<!-- Entity36&#45;&gt;Entity66 -->
<g id="edge34" class="edge verb">
<title>Entity36&#45;&gt;Entity66</title>
<path fill="none" stroke="black" d="M3875.65,-4171.2C3893.56,-4086.47 3968.59,-3731.51 3990.31,-3628.73"/>
<polygon fill="black" stroke="black" points="3993.77,-3629.3 3992.41,-3618.79 3986.92,-3627.85 3993.77,-3629.3"/>
<text text-anchor="start" x="3913.98" y="-3888.76" font-family="Times New Roman,serif" font-size="14.00">is a</text>
</g>
<!-- Entity11 -->
<g id="node19" class="node entity">
<title>Entity11</title>
<ellipse fill="none" stroke="black" cx="4499.75" cy="-3611.97" rx="56.59" ry="18"/>
<text text-anchor="start" x="4464.25" y="-3608.27" font-family="Times New Roman,serif" font-size="14.00">harry truman</text>
</g>
<!-- Entity11&#45;&gt;Entity66 -->
<g id="edge14" class="edge verb">
<title>Entity11&#45;&gt;Entity66</title>
<path fill="none" stroke="black" d="M4442.97,-3610.7C4340.67,-3608.42 4127.7,-3603.67 4037.75,-3601.66"/>
<polygon fill="black" stroke="black" points="4037.74,-3598.16 4027.66,-3601.44 4037.58,-3605.16 4037.74,-3598.16"/>
<text text-anchor="start" x="4224.36" y="-3609.98" font-family="Times New Roman,serif" font-size="14.00">isa</text>
</g>
<!-- Entity69 -->
<g id="node24" class="node entity">
<title>Entity69</title>
<ellipse fill="none" stroke="black" cx="5011.67" cy="-3744.01" rx="55.79" ry="18"/>
<text text-anchor="start" x="4976.67" y="-3740.31" font-family="Times New Roman,serif" font-size="14.00">freemasonry</text>
</g>
<!-- Entity11&#45;&gt;Entity69 -->
<g id="edge17" class="edge verb">
<title>Entity11&#45;&gt;Entity69</title>
<path fill="none" stroke="black" d="M4543.84,-3623.34C4637.6,-3647.53 4856.52,-3703.99 4958.12,-3730.19"/>
<polygon fill="black" stroke="black" points="4957.31,-3733.6 4967.87,-3732.71 4959.06,-3726.82 4957.31,-3733.6"/>
<text text-anchor="start" x="4689.98" y="-3680.57" font-family="Times New Roman,serif" font-size="14.00">member of</text>
</g>
<!-- Entity63 -->
<g id="node21" class="node entity">
<title>Entity63</title>
<ellipse fill="none" stroke="black" cx="4584.87" cy="-4009.21" rx="53.89" ry="18"/>
<text text-anchor="start" x="4551.37" y="-4005.51" font-family="Times New Roman,serif" font-size="14.00">edgar casey</text>
</g>
<!-- Entity59 -->
<g id="node22" class="node entity">
<title>Entity59</title>
<ellipse fill="none" stroke="black" cx="4479.88" cy="-3901.16" rx="71.49" ry="18"/>
<text text-anchor="start" x="4432.88" y="-3897.46" font-family="Times New Roman,serif" font-size="14.00">woodrow wilson</text>
</g>
<!-- Entity63&#45;&gt;Entity59 -->
<g id="edge15" class="edge verb">
<title>Entity63&#45;&gt;Entity59</title>
<path fill="none" stroke="black" d="M4568,-3991.85C4550.73,-3974.08 4523.72,-3946.28 4504.15,-3926.14"/>
<polygon fill="black" stroke="black" points="4506.53,-3923.57 4497.05,-3918.84 4501.51,-3928.45 4506.53,-3923.57"/>
<text text-anchor="start" x="4494.08" y="-3962.8" font-family="Times New Roman,serif" font-size="14.00">advises</text>
</g>
<!-- Entity59&#45;&gt;Entity66 -->
<g id="edge30" class="edge verb">
<title>Entity59&#45;&gt;Entity66</title>
<path fill="none" stroke="black" d="M4452.84,-3884.37C4369.07,-3832.33 4114.22,-3674.03 4026.37,-3619.46"/>
<polygon fill="black" stroke="black" points="4028.03,-3616.37 4017.69,-3614.07 4024.34,-3622.32 4028.03,-3616.37"/>
<text text-anchor="start" x="4223.61" y="-3755.72" font-family="Times New Roman,serif" font-size="14.00">isa</text>
</g>
<!-- Entity92 -->
<g id="node50" class="node entity">
<title>Entity92</title>
<ellipse fill="none" stroke="black" cx="4943.56" cy="-4333.71" rx="71.49" ry="18"/>
<text text-anchor="start" x="4896.56" y="-4330.01" font-family="Times New Roman,serif" font-size="14.00">leauge of nations</text>
</g>
<!-- Entity59&#45;&gt;Entity92 -->
<g id="edge54" class="edge verb">
<title>Entity59&#45;&gt;Entity92</title>
<path fill="none" stroke="black" d="M4498.63,-3918.66C4571.17,-3986.32 4833.5,-4231.04 4917.5,-4309.4"/>
<polygon fill="black" stroke="black" points="4915.13,-4311.98 4924.83,-4316.24 4919.91,-4306.86 4915.13,-4311.98"/>
<text text-anchor="start" x="4667.06" y="-4117.83" font-family="Times New Roman,serif" font-size="14.00">created</text>
</g>
<!-- Entity18 -->
<g id="node26" class="node entity">
<title>Entity18</title>
<ellipse fill="none" stroke="black" cx="3893.18" cy="-3927.14" rx="35.19" ry="18"/>
<text text-anchor="start" x="3874.18" y="-3923.44" font-family="Times New Roman,serif" font-size="14.00">obama</text>
</g>
<!-- Entity18&#45;&gt;Entity66 -->
<g id="edge21" class="edge verb">
<title>Entity18&#45;&gt;Entity66</title>
<path fill="none" stroke="black" d="M3898.86,-3909.13C3915.97,-3854.96 3967.01,-3693.29 3987.53,-3628.27"/>
<polygon fill="black" stroke="black" points="3990.88,-3629.29 3990.56,-3618.7 3984.21,-3627.18 3990.88,-3629.29"/>
<text text-anchor="start" x="3927.2" y="-3772.5" font-family="Times New Roman,serif" font-size="14.00">isa</text>
</g>
<!-- Entity12 -->
<g id="node27" class="node entity">
<title>Entity12</title>
<ellipse fill="none" stroke="black" cx="4174.01" cy="-4009.23" rx="58.49" ry="18"/>
<text text-anchor="start" x="4137.01" y="-4005.53" font-family="Times New Roman,serif" font-size="14.00">richard nixon</text>
</g>
<!-- Entity12&#45;&gt;Entity66 -->
<g id="edge22" class="edge verb">
<title>Entity12&#45;&gt;Entity66</title>
<path fill="none" stroke="black" d="M4166.14,-3991.15C4137.97,-3926.43 4042.04,-3705.99 4008.18,-3628.2"/>
<polygon fill="black" stroke="black" points="4011.2,-3626.38 4004,-3618.61 4004.79,-3629.17 4011.2,-3626.38"/>
<text text-anchor="start" x="4071.16" y="-3813.47" font-family="Times New Roman,serif" font-size="14.00">isa</text>
</g>
<!-- Entity24 -->
<g id="node29" class="node entity">
<title>Entity24</title>
<ellipse fill="none" stroke="black" cx="1818.43" cy="-3973" rx="63.89" ry="18"/>
<text text-anchor="start" x="1777.43" y="-3969.3" font-family="Times New Roman,serif" font-size="14.00">robert bigelow</text>
</g>
<!-- Entity24&#45;&gt;Entity7 -->
<g id="edge25" class="edge verb">
<title>Entity24&#45;&gt;Entity7</title>
<path fill="none" stroke="black" d="M1803.27,-3955.16C1788.31,-3937.56 1765.31,-3910.49 1748.4,-3890.59"/>
<polygon fill="black" stroke="black" points="1750.93,-3888.17 1741.79,-3882.82 1745.6,-3892.7 1750.93,-3888.17"/>
<text text-anchor="start" x="1743.83" y="-3926.67" font-family="Times New Roman,serif" font-size="14.00">funds</text>
</g>
<!-- Entity24&#45;&gt;Entity67 -->
<g id="edge45" class="edge verb">
<title>Entity24&#45;&gt;Entity67</title>
<path fill="none" stroke="black" d="M1851.67,-3957.55C1928.83,-3921.66 2120.15,-3832.68 2207.02,-3792.28"/>
<polygon fill="black" stroke="black" points="2208.74,-3795.34 2216.33,-3787.95 2205.79,-3788.99 2208.74,-3795.34"/>
<text text-anchor="start" x="1965.34" y="-3878.71" font-family="Times New Roman,serif" font-size="14.00">investigates</text>
</g>
<!-- Entity44 -->
<g id="node30" class="node entity">
<title>Entity44</title>
<ellipse fill="none" stroke="black" cx="4868.5" cy="-2811.19" rx="58.49" ry="18"/>
<text text-anchor="start" x="4831.5" y="-2807.49" font-family="Times New Roman,serif" font-size="14.00">steve bannon</text>
</g>
<!-- Entity44&#45;&gt;Entity15 -->
<g id="edge28" class="edge verb">
<title>Entity44&#45;&gt;Entity15</title>
<path fill="none" stroke="black" d="M4830.36,-2825.01C4707.69,-2875.72 4324.31,-3050.21 4202.87,-3110.58"/>
<polygon fill="black" stroke="black" points="4200.97,-3107.62 4193.59,-3115.23 4204.1,-3113.88 4200.97,-3107.62"/>
<text text-anchor="start" x="4461.62" y="-2971.6" font-family="Times New Roman,serif" font-size="14.00">promoted</text>
</g>
<!-- Entity44&#45;&gt;Entity15 -->
<g id="edge64" class="edge verb">
<title>Entity44&#45;&gt;Entity15</title>
<path fill="none" stroke="black" d="M4840.4,-2827.19C4733.19,-2881.36 4349.28,-3056.37 4213.55,-3113.27"/>
<polygon fill="black" stroke="black" points="4212.09,-3110.08 4204.21,-3117.16 4214.79,-3116.54 4212.09,-3110.08"/>
<text text-anchor="start" x="4526.97" y="-2974.03" font-family="Times New Roman,serif" font-size="14.00">advises</text>
</g>
<!-- Entity83 -->
<g id="node40" class="node entity">
<title>Entity83</title>
<ellipse fill="none" stroke="black" cx="4507.75" cy="-2898.95" rx="61.99" ry="18"/>
<text text-anchor="start" x="4468.25" y="-2895.25" font-family="Times New Roman,serif" font-size="14.00">breitbart news</text>
</g>
<!-- Entity44&#45;&gt;Entity83 -->
<g id="edge46" class="edge verb">
<title>Entity44&#45;&gt;Entity83</title>
<path fill="none" stroke="black" d="M4822.44,-2822.4C4756.77,-2838.37 4636.3,-2867.68 4564.98,-2885.03"/>
<polygon fill="black" stroke="black" points="4564.14,-2881.63 4555.25,-2887.4 4565.79,-2888.44 4564.14,-2881.63"/>
<text text-anchor="start" x="4652.71" y="-2857.52" font-family="Times New Roman,serif" font-size="14.00">created</text>
</g>
<!-- Entity89 -->
<g id="node49" class="node entity">
<title>Entity89</title>
<ellipse fill="none" stroke="black" cx="5305.54" cy="-2733.23" rx="35.19" ry="18"/>
<text text-anchor="start" x="5286.54" y="-2729.53" font-family="Times New Roman,serif" font-size="14.00">gurgev</text>
</g>
<!-- Entity44&#45;&gt;Entity89 -->
<g id="edge53" class="edge verb">
<title>Entity44&#45;&gt;Entity89</title>
<path fill="none" stroke="black" d="M4919.49,-2802.1C5006.29,-2786.61 5181.25,-2755.4 5262.39,-2740.93"/>
<polygon fill="black" stroke="black" points="5263.04,-2744.37 5272.27,-2739.16 5261.82,-2737.48 5263.04,-2744.37"/>
<text text-anchor="start" x="5049.94" y="-2775.31" font-family="Times New Roman,serif" font-size="14.00">studied</text>
</g>
<!-- Entity91 -->
<g id="node51" class="node entity">
<title>Entity91</title>
<ellipse fill="none" stroke="black" cx="5324.16" cy="-2928.97" rx="38.19" ry="18"/>
<text text-anchor="start" x="5302.66" y="-2925.27" font-family="Times New Roman,serif" font-size="14.00">us navy</text>
</g>
<!-- Entity44&#45;&gt;Entity91 -->
<g id="edge55" class="edge verb">
<title>Entity44&#45;&gt;Entity91</title>
<path fill="none" stroke="black" d="M4913.44,-2822.81C5001.12,-2845.47 5194,-2895.33 5280.58,-2917.71"/>
<polygon fill="black" stroke="black" points="5279.8,-2921.12 5290.35,-2920.23 5281.55,-2914.34 5279.8,-2921.12"/>
<text text-anchor="start" x="5036.01" y="-2874.06" font-family="Times New Roman,serif" font-size="14.00">member of</text>
</g>
<!-- Entity94 -->
<g id="node53" class="node entity">
<title>Entity94</title>
<ellipse fill="none" stroke="black" cx="5239.41" cy="-2454.96" rx="53.09" ry="18"/>
<text text-anchor="start" x="5206.41" y="-2451.26" font-family="Times New Roman,serif" font-size="14.00">biosphere 2</text>
</g>
<!-- Entity44&#45;&gt;Entity94 -->
<g id="edge57" class="edge verb">
<title>Entity44&#45;&gt;Entity94</title>
<path fill="none" stroke="black" d="M4886.39,-2794.01C4946.86,-2735.93 5143.79,-2546.79 5214.14,-2479.22"/>
<polygon fill="black" stroke="black" points="5216.91,-2481.42 5221.7,-2471.97 5212.06,-2476.37 5216.91,-2481.42"/>
<text text-anchor="start" x="5009.26" y="-2640.42" font-family="Times New Roman,serif" font-size="14.00">created</text>
</g>
<!-- Entity107 -->
<g id="node58" class="node entity">
<title>Entity107</title>
<ellipse fill="none" stroke="black" cx="5145.07" cy="-2272.69" rx="77.19" ry="18"/>
<text text-anchor="start" x="5093.57" y="-2268.99" font-family="Times New Roman,serif" font-size="14.00">hollywood movies</text>
</g>
<!-- Entity44&#45;&gt;Entity107 -->
<g id="edge61" class="edge verb">
<title>Entity44&#45;&gt;Entity107</title>
<path fill="none" stroke="black" d="M4877.7,-2793.28C4918.39,-2714.06 5082.27,-2394.96 5131.2,-2299.68"/>
<polygon fill="black" stroke="black" points="5134.37,-2301.17 5135.83,-2290.68 5128.15,-2297.97 5134.37,-2301.17"/>
<text text-anchor="start" x="4949.45" y="-2550.28" font-family="Times New Roman,serif" font-size="14.00">produced</text>
</g>
<!-- Entity111 -->
<g id="node59" class="node entity">
<title>Entity111</title>
<ellipse fill="none" stroke="black" cx="5411.42" cy="-2595.37" rx="64.99" ry="18"/>
<text text-anchor="start" x="5369.42" y="-2591.67" font-family="Times New Roman,serif" font-size="14.00">goldman sachs</text>
</g>
<!-- Entity44&#45;&gt;Entity111 -->
<g id="edge66" class="edge verb">
<title>Entity44&#45;&gt;Entity111</title>
<path fill="none" stroke="black" d="M4904.54,-2796.87C4999.74,-2759.02 5257.87,-2656.41 5364.43,-2614.05"/>
<polygon fill="black" stroke="black" points="5365.96,-2617.2 5373.96,-2610.26 5363.37,-2610.7 5365.96,-2617.2"/>
<text text-anchor="start" x="5071.49" y="-2709.26" font-family="Times New Roman,serif" font-size="14.00">worked for</text>
</g>
<!-- Entity33 -->
<g id="node32" class="node entity">
<title>Entity33</title>
<ellipse fill="none" stroke="black" cx="584.51" cy="-4817.22" rx="57.69" ry="18"/>
<text text-anchor="start" x="548.01" y="-4813.52" font-family="Times New Roman,serif" font-size="14.00">michael pane</text>
</g>
<!-- Entity33&#45;&gt;Entity30 -->
<g id="edge47" class="edge verb">
<title>Entity33&#45;&gt;Entity30</title>
<path fill="none" stroke="black" d="M589.02,-4835.35C607.13,-4908.02 674.51,-5178.51 696.47,-5266.66"/>
<polygon fill="black" stroke="black" points="693.11,-5267.63 698.92,-5276.48 699.9,-5265.93 693.11,-5267.63"/>
<text text-anchor="start" x="579.75" y="-5054.81" font-family="Times New Roman,serif" font-size="14.00">worked for</text>
</g>
<!-- Entity33&#45;&gt;Entity72 -->
<g id="edge31" class="edge verb">
<title>Entity33&#45;&gt;Entity72</title>
<path fill="none" stroke="black" d="M618.95,-4802.66C698.25,-4769.14 893.53,-4686.6 980.51,-4649.83"/>
<polygon fill="black" stroke="black" points="981.97,-4653.01 989.82,-4645.89 979.25,-4646.56 981.97,-4653.01"/>
<text text-anchor="start" x="743.73" y="-4730.05" font-family="Times New Roman,serif" font-size="14.00">worked at</text>
</g>
<!-- Entity45 -->
<g id="node33" class="node entity">
<title>Entity45</title>
<ellipse fill="none" stroke="black" cx="3846.02" cy="-2935.61" rx="67.69" ry="18"/>
<text text-anchor="start" x="3802.02" y="-2931.91" font-family="Times New Roman,serif" font-size="14.00">abraham lincoln</text>
</g>
<!-- Entity45&#45;&gt;Entity66 -->
<g id="edge32" class="edge verb">
<title>Entity45&#45;&gt;Entity66</title>
<path fill="none" stroke="black" d="M3850.12,-2953.75C3870.89,-3045.72 3964.58,-3460.61 3989.9,-3572.73"/>
<polygon fill="black" stroke="black" points="3986.52,-3573.64 3992.13,-3582.62 3993.35,-3572.09 3986.52,-3573.64"/>
<text text-anchor="start" x="3904.01" y="-3267.04" font-family="Times New Roman,serif" font-size="14.00">isa</text>
</g>
<!-- Entity38 -->
<g id="node34" class="node entity">
<title>Entity38</title>
<ellipse fill="none" stroke="black" cx="3640.12" cy="-2078.36" rx="90.98" ry="18"/>
<text text-anchor="start" x="3578.12" y="-2074.66" font-family="Times New Roman,serif" font-size="14.00">emma hardinge&#45;britten</text>
</g>
<!-- Entity38&#45;&gt;Entity45 -->
<g id="edge33" class="edge verb">
<title>Entity38&#45;&gt;Entity45</title>
<path fill="none" stroke="black" d="M3644.52,-2096.66C3670.82,-2206.17 3807.3,-2774.39 3839.3,-2907.63"/>
<polygon fill="black" stroke="black" points="3835.93,-2908.57 3841.67,-2917.48 3842.73,-2906.94 3835.93,-2908.57"/>
<text text-anchor="start" x="3642.91" y="-2505.95" font-family="Times New Roman,serif" font-size="14.00">spokesperson for</text>
</g>
<!-- Entity79 -->
<g id="node38" class="node entity">
<title>Entity79</title>
<ellipse fill="none" stroke="black" cx="3898.56" cy="-1584.13" rx="39.79" ry="18"/>
<text text-anchor="start" x="3876.06" y="-1580.43" font-family="Times New Roman,serif" font-size="14.00">medium</text>
</g>
<!-- Entity38&#45;&gt;Entity79 -->
<g id="edge38" class="edge verb">
<title>Entity38&#45;&gt;Entity79</title>
<path fill="none" stroke="black" d="M3649.63,-2060.19C3688.86,-1985.16 3838.31,-1699.36 3884.73,-1610.59"/>
<polygon fill="black" stroke="black" points="3887.85,-1612.18 3889.38,-1601.69 3881.64,-1608.93 3887.85,-1612.18"/>
<text text-anchor="start" x="3751.18" y="-1839.19" font-family="Times New Roman,serif" font-size="14.00">isa</text>
</g>
<!-- Entity86 -->
<g id="node48" class="node entity">
<title>Entity86</title>
<ellipse fill="none" stroke="black" cx="3233.06" cy="-1318.38" rx="85.29" ry="18"/>
<text text-anchor="start" x="3175.56" y="-1314.68" font-family="Times New Roman,serif" font-size="14.00">theosophical society</text>
</g>
<!-- Entity38&#45;&gt;Entity86 -->
<g id="edge65" class="edge verb">
<title>Entity38&#45;&gt;Entity86</title>
<path fill="none" stroke="black" d="M3630.46,-2060.33C3576.54,-1959.65 3312.87,-1467.38 3247.67,-1345.64"/>
<polygon fill="black" stroke="black" points="3250.62,-1343.75 3242.81,-1336.58 3244.45,-1347.05 3250.62,-1343.75"/>
<text text-anchor="start" x="3398.07" y="-1706.78" font-family="Times New Roman,serif" font-size="14.00">created</text>
</g>
<!-- Entity99 -->
<g id="node54" class="node entity">
<title>Entity99</title>
<ellipse fill="none" stroke="black" cx="3650.95" cy="-1471.26" rx="55.79" ry="18"/>
<text text-anchor="start" x="3615.95" y="-1467.56" font-family="Times New Roman,serif" font-size="14.00">orphic circle</text>
</g>
<!-- Entity38&#45;&gt;Entity99 -->
<g id="edge58" class="edge verb">
<title>Entity38&#45;&gt;Entity99</title>
<path fill="none" stroke="black" d="M3640.45,-2060.19C3641.99,-1973.87 3648.56,-1605.04 3650.45,-1499.55"/>
<polygon fill="black" stroke="black" points="3653.95,-1499.42 3650.63,-1489.36 3646.95,-1499.3 3653.95,-1499.42"/>
<text text-anchor="start" x="3584.45" y="-1783.67" font-family="Times New Roman,serif" font-size="14.00">member of</text>
</g>
<!-- Entity42 -->
<g id="node36" class="node entity">
<title>Entity42</title>
<ellipse fill="none" stroke="black" cx="2637.94" cy="-3247.66" rx="53.89" ry="18"/>
<text text-anchor="start" x="2604.44" y="-3243.96" font-family="Times New Roman,serif" font-size="14.00">black magic</text>
</g>
<!-- Entity81 -->
<g id="node37" class="node entity">
<title>Entity81</title>
<ellipse fill="none" stroke="black" cx="2725.66" cy="-3359.64" rx="28.7" ry="18"/>
<text text-anchor="start" x="2711.66" y="-3355.94" font-family="Times New Roman,serif" font-size="14.00">x left</text>
</g>
<!-- Entity42&#45;&gt;Entity81 -->
<g id="edge37" class="edge verb">
<title>Entity42&#45;&gt;Entity81</title>
<path fill="none" stroke="black" d="M2651.64,-3265.16C2666.45,-3284.05 2690.14,-3314.29 2706.72,-3335.45"/>
<polygon fill="black" stroke="black" points="2703.98,-3337.64 2712.9,-3343.36 2709.49,-3333.32 2703.98,-3337.64"/>
<text text-anchor="start" x="2618.18" y="-3304.11" font-family="Times New Roman,serif" font-size="14.00">member of</text>
</g>
<!-- Entity47 -->
<g id="node39" class="node entity">
<title>Entity47</title>
<ellipse fill="none" stroke="black" cx="4484.33" cy="-2791.02" rx="69.59" ry="18"/>
<text text-anchor="start" x="4438.83" y="-2787.32" font-family="Times New Roman,serif" font-size="14.00">andrew breitbart</text>
</g>
<!-- Entity47&#45;&gt;Entity83 -->
<g id="edge39" class="edge verb">
<title>Entity47&#45;&gt;Entity83</title>
<path fill="none" stroke="black" d="M4488.31,-2809.33C4491.98,-2826.26 4497.49,-2851.65 4501.71,-2871.09"/>
<polygon fill="black" stroke="black" points="4498.3,-2871.88 4503.84,-2880.91 4505.14,-2870.4 4498.3,-2871.88"/>
<text text-anchor="start" x="4454.01" y="-2844.01" font-family="Times New Roman,serif" font-size="14.00">created</text>
</g>
<!-- Entity35 -->
<g id="node42" class="node entity">
<title>Entity35</title>
<ellipse fill="none" stroke="black" cx="3269.94" cy="-4216.66" rx="39.79" ry="18"/>
<text text-anchor="start" x="3247.44" y="-4212.96" font-family="Times New Roman,serif" font-size="14.00">crowley</text>
</g>
<!-- Entity80 -->
<g id="node43" class="node entity">
<title>Entity80</title>
<ellipse fill="none" stroke="black" cx="3357.66" cy="-4328.64" rx="38.99" ry="18"/>
<text text-anchor="start" x="3335.66" y="-4324.94" font-family="Times New Roman,serif" font-size="14.00">x magic</text>
</g>
<!-- Entity35&#45;&gt;Entity80 -->
<g id="edge41" class="edge verb">
<title>Entity35&#45;&gt;Entity80</title>
<path fill="none" stroke="black" d="M3283.26,-4233.67C3297.82,-4252.25 3321.28,-4282.2 3337.96,-4303.49"/>
<polygon fill="black" stroke="black" points="3335.29,-4305.76 3344.21,-4311.47 3340.8,-4301.44 3335.29,-4305.76"/>
<text text-anchor="start" x="3249.61" y="-4272.38" font-family="Times New Roman,serif" font-size="14.00">member of</text>
</g>
<!-- Entity19 -->
<g id="node44" class="node entity">
<title>Entity19</title>
<ellipse fill="none" stroke="black" cx="3620" cy="-3570.75" rx="31.4" ry="18"/>
<text text-anchor="start" x="3604" y="-3567.05" font-family="Times New Roman,serif" font-size="14.00">carter</text>
</g>
<!-- Entity19&#45;&gt;Entity66 -->
<g id="edge44" class="edge verb">
<title>Entity19&#45;&gt;Entity66</title>
<path fill="none" stroke="black" d="M3651.11,-3573.23C3718.71,-3578.62 3878.99,-3591.39 3954.94,-3597.45"/>
<polygon fill="black" stroke="black" points="3954.84,-3600.95 3965.08,-3598.26 3955.39,-3593.97 3954.84,-3600.95"/>
<text text-anchor="start" x="3787.03" y="-3589.14" font-family="Times New Roman,serif" font-size="14.00">isa</text>
</g>
<!-- Entity19&#45;&gt;Entity90 -->
<g id="edge56" class="edge verb">
<title>Entity19&#45;&gt;Entity90</title>
<path fill="none" stroke="black" d="M3588.65,-3570.75C3521.89,-3570.76 3365.89,-3570.77 3293.77,-3570.78"/>
<polygon fill="black" stroke="black" points="3293.35,-3567.28 3283.35,-3570.78 3293.35,-3574.28 3293.35,-3567.28"/>
<text text-anchor="start" x="3386.21" y="-3574.57" font-family="Times New Roman,serif" font-size="14.00">witnessed</text>
</g>
<!-- Entity27 -->
<g id="node45" class="node entity">
<title>Entity27</title>
<ellipse fill="none" stroke="black" cx="608.41" cy="-6786.34" rx="75.29" ry="18"/>
<text text-anchor="start" x="558.41" y="-6782.64" font-family="Times New Roman,serif" font-size="14.00">lee harvey oswald</text>
</g>
<!-- Entity34 -->
<g id="node46" class="node entity">
<title>Entity34</title>
<ellipse fill="none" stroke="black" cx="568.1" cy="-6678.34" rx="59.29" ry="18"/>
<text text-anchor="start" x="530.6" y="-6674.64" font-family="Times New Roman,serif" font-size="14.00">guy bannister</text>
</g>
<!-- Entity27&#45;&gt;Entity34 -->
<g id="edge50" class="edge verb">
<title>Entity27&#45;&gt;Entity34</title>
<path fill="none" stroke="black" d="M601.57,-6768.02C595.22,-6751 585.68,-6725.44 578.41,-6705.95"/>
<polygon fill="black" stroke="black" points="581.62,-6704.54 574.84,-6696.39 575.06,-6706.99 581.62,-6704.54"/>
<text text-anchor="start" x="526.99" y="-6740.78" font-family="Times New Roman,serif" font-size="14.00">worked for</text>
</g>
<!-- Entity34&#45;&gt;Entity75 -->
<g id="edge51" class="edge verb">
<title>Entity34&#45;&gt;Entity75</title>
<path fill="none" stroke="black" d="M561,-6660.23C534.39,-6592.42 440.55,-6353.24 408.51,-6271.58"/>
<polygon fill="black" stroke="black" points="411.74,-6270.24 404.83,-6262.21 405.23,-6272.8 411.74,-6270.24"/>
<text text-anchor="start" x="423.75" y="-6469.71" font-family="Times New Roman,serif" font-size="14.00">member of</text>
</g>
<!-- Entity64 -->
<g id="node47" class="node entity">
<title>Entity64</title>
<ellipse fill="none" stroke="black" cx="3103.3" cy="-1210.38" rx="73.39" ry="18"/>
<text text-anchor="start" x="3054.8" y="-1206.68" font-family="Times New Roman,serif" font-size="14.00">madam blavatsky</text>
</g>
<!-- Entity64&#45;&gt;Entity86 -->
<g id="edge52" class="edge verb">
<title>Entity64&#45;&gt;Entity86</title>
<path fill="none" stroke="black" d="M3124.15,-1227.73C3145.78,-1245.73 3179.76,-1274.02 3204.02,-1294.2"/>
<polygon fill="black" stroke="black" points="3201.91,-1297 3211.84,-1300.71 3206.39,-1291.62 3201.91,-1297"/>
<text text-anchor="start" x="3123.08" y="-1264.77" font-family="Times New Roman,serif" font-size="14.00">created</text>
</g>
<!-- Entity60 -->
<g id="node56" class="node entity">
<title>Entity60</title>
<ellipse fill="none" stroke="black" cx="3134.78" cy="-663.68" rx="58.49" ry="18"/>
<text text-anchor="start" x="3097.78" y="-659.98" font-family="Times New Roman,serif" font-size="14.00">rudolf steiner</text>
</g>
<!-- Entity60&#45;&gt;Entity86 -->
<g id="edge63" class="edge verb">
<title>Entity60&#45;&gt;Entity86</title>
<path fill="none" stroke="black" d="M3137.51,-681.87C3151.18,-772.91 3212.14,-1179.02 3228.83,-1290.17"/>
<polygon fill="black" stroke="black" points="3225.4,-1290.9 3230.35,-1300.27 3232.32,-1289.86 3225.4,-1290.9"/>
<text text-anchor="start" x="3117.17" y="-989.82" font-family="Times New Roman,serif" font-size="14.00">memberr of</text>
</g>
<!-- Entity93 -->
<g id="node57" class="node entity">
<title>Entity93</title>
<ellipse fill="none" stroke="black" cx="3045.42" cy="-18.04" rx="102.08" ry="18"/>
<text text-anchor="start" x="2974.92" y="-14.34" font-family="Times New Roman,serif" font-size="14.00">anthroposophical society</text>
</g>
<!-- Entity60&#45;&gt;Entity93 -->
<g id="edge60" class="edge verb">
<title>Entity60&#45;&gt;Entity93</title>
<path fill="none" stroke="black" d="M3132.25,-645.39C3119.74,-555.03 3064.52,-156.07 3049.31,-46.16"/>
<polygon fill="black" stroke="black" points="3052.76,-45.59 3047.92,-36.17 3045.83,-46.55 3052.76,-45.59"/>
<text text-anchor="start" x="3049.78" y="-349.58" font-family="Times New Roman,serif" font-size="14.00">created</text>
</g>
<!-- Entity109 -->
<g id="node60" class="node entity">
<title>Entity109</title>
<ellipse fill="none" stroke="black" cx="1964.94" cy="-3247.66" rx="27" ry="18"/>
<text text-anchor="start" x="1961.44" y="-3243.96" font-family="Times New Roman,serif" font-size="14.00">s</text>
</g>
<!-- Entity112 -->
<g id="node61" class="node entity">
<title>Entity112</title>
<ellipse fill="none" stroke="black" cx="2052.66" cy="-3359.64" rx="27" ry="18"/>
<text text-anchor="start" x="2048.66" y="-3355.94" font-family="Times New Roman,serif" font-size="14.00">o</text>
</g>
<!-- Entity109&#45;&gt;Entity112 -->
<g id="edge67" class="edge verb">
<title>Entity109&#45;&gt;Entity112</title>
<path fill="none" stroke="black" d="M1977.51,-3263.7C1992.23,-3282.5 2016.76,-3313.82 2033.78,-3335.53"/>
<polygon fill="black" stroke="black" points="2031.19,-3337.91 2040.11,-3343.62 2036.7,-3333.59 2031.19,-3337.91"/>
<text text-anchor="start" x="1998.64" y="-3303.42" font-family="Times New Roman,serif" font-size="14.00">v</text>
</g>
</g>
</svg>
