<?xml version="1.0" encoding="UTF-8" standalone="no"?>
<?xml-stylesheet href="./styles.css" type="text/css"?>
<!DOCTYPE svg PUBLIC "-//W3C//DTD SVG 1.1//EN"
 "http://www.w3.org/Graphics/SVG/1.1/DTD/svg11.dtd">
<!-- Generated by graphviz version 2.47.3 (20210619.1520)
 -->
<!-- Title: G Pages: 1 -->
<svg width="7679pt" height="3331pt"
 viewBox="0.00 0.00 7679.00 3331.00" xmlns="http://www.w3.org/2000/svg" xmlns:xlink="http://www.w3.org/1999/xlink">
<g id="graph0" class="graph" transform="scale(1 1) rotate(0) translate(4 3327)">
<title>G</title>
<polygon fill="white" stroke="transparent" points="-4,4 -4,-3327 7675,-3327 7675,4 -4,4"/>
<!-- Entity113 -->
<g id="node1" class="node entity">
<title>Entity113</title>
<ellipse fill="none" stroke="black" cx="3981.91" cy="-885.52" rx="41.69" ry="18"/>
<text text-anchor="start" x="3957.91" y="-881.82" font-family="Times New Roman,serif" font-size="14.00">uri geller</text>
</g>
<!-- Entity124 -->
<g id="node2" class="node entity">
<title>Entity124</title>
<ellipse fill="none" stroke="black" cx="4399.42" cy="-911.19" rx="38.19" ry="18"/>
<text text-anchor="start" x="4377.92" y="-907.49" font-family="Times New Roman,serif" font-size="14.00">the nine</text>
</g>
<!-- Entity113&#45;&gt;Entity124 -->
<g id="edge1" class="edge verb">
<title>Entity113&#45;&gt;Entity124</title>
<path fill="none" stroke="black" d="M4023.47,-888.08C4101.3,-892.86 4268.63,-903.15 4351.25,-908.22"/>
<polygon fill="black" stroke="black" points="4351.18,-911.73 4361.37,-908.85 4351.61,-904.74 4351.18,-911.73"/>
<text text-anchor="start" x="4083.36" y="-901.95" font-family="Times New Roman,serif" font-size="14.00">claiemd to channel</text>
</g>
<!-- Entity181 -->
<g id="node11" class="node entity">
<title>Entity181</title>
<ellipse fill="none" stroke="black" cx="4692.66" cy="-421.32" rx="94.48" ry="18"/>
<text text-anchor="start" x="4628.16" y="-417.62" font-family="Times New Roman,serif" font-size="14.00">egyptian gods in a ship</text>
</g>
<!-- Entity124&#45;&gt;Entity181 -->
<g id="edge10" class="edge verb">
<title>Entity124&#45;&gt;Entity181</title>
<path fill="none" stroke="black" d="M4409.86,-893.75C4453.76,-820.42 4623.59,-536.69 4676.7,-447.98"/>
<polygon fill="black" stroke="black" points="4679.75,-449.69 4681.88,-439.31 4673.74,-446.1 4679.75,-449.69"/>
<text text-anchor="start" x="4439.28" y="-674.67" font-family="Times New Roman,serif" font-size="14.00">claimed to channel</text>
</g>
<!-- Entity112 -->
<g id="node3" class="node entity">
<title>Entity112</title>
<ellipse fill="none" stroke="black" cx="4235.77" cy="-1378.31" rx="56.59" ry="18"/>
<text text-anchor="start" x="4200.27" y="-1374.61" font-family="Times New Roman,serif" font-size="14.00">arthur young</text>
</g>
<!-- Entity112&#45;&gt;Entity124 -->
<g id="edge7" class="edge verb">
<title>Entity112&#45;&gt;Entity124</title>
<path fill="none" stroke="black" d="M4242.08,-1360.28C4267.12,-1288.82 4359.49,-1025.17 4389.75,-938.79"/>
<polygon fill="black" stroke="black" points="4393.12,-939.75 4393.13,-929.16 4386.52,-937.44 4393.12,-939.75"/>
<text text-anchor="start" x="4253.92" y="-1153.33" font-family="Times New Roman,serif" font-size="14.00">member&#45;of</text>
</g>
<!-- Entity178 -->
<g id="node4" class="node entity">
<title>Entity178</title>
<ellipse fill="none" stroke="black" cx="4927.62" cy="-1625.68" rx="53.89" ry="18"/>
<text text-anchor="start" x="4894.12" y="-1621.98" font-family="Times New Roman,serif" font-size="14.00">bell aviation</text>
</g>
<!-- Entity112&#45;&gt;Entity178 -->
<g id="edge2" class="edge verb">
<title>Entity112&#45;&gt;Entity178</title>
<path fill="none" stroke="black" d="M4273.46,-1391.78C4391.22,-1433.89 4752.09,-1562.92 4881.13,-1609.06"/>
<polygon fill="black" stroke="black" points="4880.14,-1612.42 4890.74,-1612.49 4882.5,-1605.83 4880.14,-1612.42"/>
<text text-anchor="start" x="4536.3" y="-1504.22" font-family="Times New Roman,serif" font-size="14.00">created</text>
</g>
<!-- Entity11 -->
<g id="node6" class="node entity">
<title>Entity11</title>
<ellipse fill="none" stroke="black" cx="3391.68" cy="-1287.97" rx="77.19" ry="18"/>
<text text-anchor="start" x="3340.18" y="-1284.27" font-family="Times New Roman,serif" font-size="14.00">psi&#45;consciousness</text>
</g>
<!-- Entity112&#45;&gt;Entity11 -->
<g id="edge9" class="edge verb">
<title>Entity112&#45;&gt;Entity11</title>
<path fill="none" stroke="black" d="M4182.01,-1372.55C4038.06,-1357.15 3643.27,-1314.9 3472.34,-1296.6"/>
<polygon fill="black" stroke="black" points="3472.46,-1293.1 3462.15,-1295.51 3471.72,-1300.06 3472.46,-1293.1"/>
<text text-anchor="start" x="3786.17" y="-1338.38" font-family="Times New Roman,serif" font-size="14.00">studied</text>
</g>
<!-- Entity115 -->
<g id="node5" class="node entity">
<title>Entity115</title>
<ellipse fill="none" stroke="black" cx="3522.59" cy="-1180.02" rx="68.49" ry="18"/>
<text text-anchor="start" x="3478.09" y="-1176.32" font-family="Times New Roman,serif" font-size="14.00">jeffrey mishlove</text>
</g>
<!-- Entity115&#45;&gt;Entity113 -->
<g id="edge5" class="edge verb">
<title>Entity115&#45;&gt;Entity113</title>
<path fill="none" stroke="black" d="M3548.61,-1163.34C3627.42,-1112.81 3863.46,-961.47 3949.81,-906.1"/>
<polygon fill="black" stroke="black" points="3951.87,-908.94 3958.4,-900.59 3948.1,-903.05 3951.87,-908.94"/>
<text text-anchor="start" x="3694.21" y="-1038.52" font-family="Times New Roman,serif" font-size="14.00">promoted</text>
</g>
<!-- Entity115&#45;&gt;Entity11 -->
<g id="edge3" class="edge verb">
<title>Entity115&#45;&gt;Entity11</title>
<path fill="none" stroke="black" d="M3493.88,-1196.62C3469.62,-1214.39 3435.5,-1242.53 3413.44,-1262.96"/>
<polygon fill="black" stroke="black" points="3410.75,-1260.68 3405.9,-1270.1 3415.56,-1265.76 3410.75,-1260.68"/>
<text text-anchor="start" x="3412.66" y="-1233.59" font-family="Times New Roman,serif" font-size="14.00">studied</text>
</g>
<!-- Entity115&#45;&gt;Entity11 -->
<g id="edge25" class="edge verb">
<title>Entity115&#45;&gt;Entity11</title>
<path fill="none" stroke="black" d="M3508.49,-1197.78C3489.55,-1216.23 3455.44,-1244.89 3428.92,-1265.01"/>
<polygon fill="black" stroke="black" points="3426.52,-1262.43 3420.6,-1271.22 3430.71,-1268.04 3426.52,-1262.43"/>
<text text-anchor="start" x="3468.7" y="-1235.2" font-family="Times New Roman,serif" font-size="14.00">investigates</text>
</g>
<!-- Entity114 -->
<g id="node7" class="node entity">
<title>Entity114</title>
<ellipse fill="none" stroke="black" cx="4835.42" cy="-672.26" rx="74.99" ry="18"/>
<text text-anchor="start" x="4785.92" y="-668.56" font-family="Times New Roman,serif" font-size="14.00">gene roddenberry</text>
</g>
<!-- Entity114&#45;&gt;Entity124 -->
<g id="edge4" class="edge verb">
<title>Entity114&#45;&gt;Entity124</title>
<path fill="none" stroke="black" d="M4805.11,-688.87C4726.45,-731.97 4516.21,-847.19 4433.51,-892.51"/>
<polygon fill="black" stroke="black" points="4431.62,-889.55 4424.53,-897.43 4434.98,-895.69 4431.62,-889.55"/>
<text text-anchor="start" x="4515.31" y="-794.49" font-family="Times New Roman,serif" font-size="14.00">claiemd to channel</text>
</g>
<!-- Entity123 -->
<g id="node8" class="node entity">
<title>Entity123</title>
<ellipse fill="none" stroke="black" cx="3998.14" cy="-777.42" rx="64.19" ry="18"/>
<text text-anchor="start" x="3956.64" y="-773.72" font-family="Times New Roman,serif" font-size="14.00">andre puharich</text>
</g>
<!-- Entity123&#45;&gt;Entity113 -->
<g id="edge6" class="edge verb">
<title>Entity123&#45;&gt;Entity113</title>
<path fill="none" stroke="black" d="M3995.39,-795.76C3992.85,-812.64 3989.06,-837.92 3986.14,-857.35"/>
<polygon fill="black" stroke="black" points="3982.64,-857.05 3984.62,-867.46 3989.57,-858.09 3982.64,-857.05"/>
<text text-anchor="start" x="3930.76" y="-830.36" font-family="Times New Roman,serif" font-size="14.00">sponsored</text>
</g>
<!-- Entity161 -->
<g id="node9" class="node entity">
<title>Entity161</title>
<ellipse fill="none" stroke="black" cx="893.99" cy="-1491.89" rx="67.69" ry="18"/>
<text text-anchor="start" x="849.99" y="-1488.19" font-family="Times New Roman,serif" font-size="14.00">abraham lincoln</text>
</g>
<!-- Entity180 -->
<g id="node10" class="node entity">
<title>Entity180</title>
<ellipse fill="none" stroke="black" cx="1204.59" cy="-1023.38" rx="31.4" ry="18"/>
<text text-anchor="start" x="1188.59" y="-1019.68" font-family="Times New Roman,serif" font-size="14.00">potus</text>
</g>
<!-- Entity161&#45;&gt;Entity180 -->
<g id="edge8" class="edge verb">
<title>Entity161&#45;&gt;Entity180</title>
<path fill="none" stroke="black" d="M905.78,-1474.1C953.47,-1402.17 1132.07,-1132.77 1187.85,-1048.64"/>
<polygon fill="black" stroke="black" points="1190.83,-1050.47 1193.44,-1040.2 1185,-1046.6 1190.83,-1050.47"/>
<text text-anchor="start" x="1030.82" y="-1265.17" font-family="Times New Roman,serif" font-size="14.00">isa</text>
</g>
<!-- Entity116 -->
<g id="node12" class="node entity">
<title>Entity116</title>
<ellipse fill="none" stroke="black" cx="950.3" cy="-565.11" rx="56.59" ry="18"/>
<text text-anchor="start" x="914.8" y="-561.41" font-family="Times New Roman,serif" font-size="14.00">harry truman</text>
</g>
<!-- Entity116&#45;&gt;Entity180 -->
<g id="edge12" class="edge verb">
<title>Entity116&#45;&gt;Entity180</title>
<path fill="none" stroke="black" d="M960.27,-583.08C999.53,-653.83 1143.58,-913.42 1190.04,-997.15"/>
<polygon fill="black" stroke="black" points="1187.06,-998.99 1194.97,-1006.03 1193.18,-995.59 1187.06,-998.99"/>
<text text-anchor="start" x="1059.16" y="-793.92" font-family="Times New Roman,serif" font-size="14.00">isa</text>
</g>
<!-- Entity179 -->
<g id="node13" class="node entity">
<title>Entity179</title>
<ellipse fill="none" stroke="black" cx="699.96" cy="-176.12" rx="34.39" ry="18"/>
<text text-anchor="start" x="681.46" y="-172.42" font-family="Times New Roman,serif" font-size="14.00">mason</text>
</g>
<!-- Entity116&#45;&gt;Entity179 -->
<g id="edge11" class="edge verb">
<title>Entity116&#45;&gt;Entity179</title>
<path fill="none" stroke="black" d="M938.89,-547.39C898.81,-485.1 764.27,-276.04 716.75,-202.21"/>
<polygon fill="black" stroke="black" points="719.5,-200.02 711.15,-193.5 713.62,-203.81 719.5,-200.02"/>
<text text-anchor="start" x="811.82" y="-378.6" font-family="Times New Roman,serif" font-size="14.00">isa</text>
</g>
<!-- Entity125 -->
<g id="node14" class="node entity">
<title>Entity125</title>
<ellipse fill="none" stroke="black" cx="911.98" cy="-1138.92" rx="27" ry="18"/>
<text text-anchor="start" x="904.48" y="-1135.22" font-family="Times New Roman,serif" font-size="14.00">jfk</text>
</g>
<!-- Entity125&#45;&gt;Entity180 -->
<g id="edge13" class="edge verb">
<title>Entity125&#45;&gt;Entity180</title>
<path fill="none" stroke="black" d="M935.43,-1129.66C986.56,-1109.47 1108.34,-1061.39 1168.99,-1037.44"/>
<polygon fill="black" stroke="black" points="1170.52,-1040.6 1178.53,-1033.67 1167.95,-1034.09 1170.52,-1040.6"/>
<text text-anchor="start" x="1036.21" y="-1087.35" font-family="Times New Roman,serif" font-size="14.00">isa</text>
</g>
<!-- Entity132 -->
<g id="node15" class="node entity">
<title>Entity132</title>
<ellipse fill="none" stroke="black" cx="1548.03" cy="-1563.54" rx="59.59" ry="18"/>
<text text-anchor="start" x="1510.03" y="-1559.84" font-family="Times New Roman,serif" font-size="14.00">donald trump</text>
</g>
<!-- Entity132&#45;&gt;Entity180 -->
<g id="edge14" class="edge verb">
<title>Entity132&#45;&gt;Entity180</title>
<path fill="none" stroke="black" d="M1536.6,-1545.57C1485.8,-1465.67 1280.34,-1142.52 1220.82,-1048.91"/>
<polygon fill="black" stroke="black" points="1223.69,-1046.9 1215.37,-1040.33 1217.79,-1050.65 1223.69,-1046.9"/>
<text text-anchor="start" x="1362.71" y="-1301.04" font-family="Times New Roman,serif" font-size="14.00">isa</text>
</g>
<!-- Entity154 -->
<g id="node39" class="node entity">
<title>Entity154</title>
<ellipse fill="none" stroke="black" cx="2182.1" cy="-1437.52" rx="50.09" ry="18"/>
<text text-anchor="start" x="2151.6" y="-1433.82" font-family="Times New Roman,serif" font-size="14.00">john trump</text>
</g>
<!-- Entity132&#45;&gt;Entity154 -->
<g id="edge41" class="edge verb">
<title>Entity132&#45;&gt;Entity154</title>
<path fill="none" stroke="black" d="M1598.05,-1553.6C1715.26,-1530.31 2006.89,-1472.34 2128.02,-1448.27"/>
<polygon fill="black" stroke="black" points="2129.04,-1451.63 2138.17,-1446.25 2127.68,-1444.77 2129.04,-1451.63"/>
<text text-anchor="start" x="1804.03" y="-1504.74" font-family="Times New Roman,serif" font-size="14.00">nephew of</text>
</g>
<!-- Entity126 -->
<g id="node16" class="node entity">
<title>Entity126</title>
<ellipse fill="none" stroke="black" cx="760.7" cy="-1003.34" rx="58.49" ry="18"/>
<text text-anchor="start" x="723.7" y="-999.64" font-family="Times New Roman,serif" font-size="14.00">richard nixon</text>
</g>
<!-- Entity126&#45;&gt;Entity180 -->
<g id="edge15" class="edge verb">
<title>Entity126&#45;&gt;Entity180</title>
<path fill="none" stroke="black" d="M818.73,-1005.96C909.7,-1010.07 1083.7,-1017.92 1163.16,-1021.51"/>
<polygon fill="black" stroke="black" points="1163.13,-1025.01 1173.28,-1021.97 1163.45,-1018.02 1163.13,-1025.01"/>
<text text-anchor="start" x="974.95" y="-1017.54" font-family="Times New Roman,serif" font-size="14.00">isa</text>
</g>
<!-- Entity138 -->
<g id="node17" class="node entity">
<title>Entity138</title>
<ellipse fill="none" stroke="black" cx="857.71" cy="-721.21" rx="63.89" ry="18"/>
<text text-anchor="start" x="816.71" y="-717.51" font-family="Times New Roman,serif" font-size="14.00">george w bush</text>
</g>
<!-- Entity138&#45;&gt;Entity180 -->
<g id="edge16" class="edge verb">
<title>Entity138&#45;&gt;Entity180</title>
<path fill="none" stroke="black" d="M877.61,-738.54C937.11,-790.37 1113.64,-944.15 1179.47,-1001.49"/>
<polygon fill="black" stroke="black" points="1177.45,-1004.38 1187.29,-1008.31 1182.05,-999.1 1177.45,-1004.38"/>
<text text-anchor="start" x="1012.54" y="-873.82" font-family="Times New Roman,serif" font-size="14.00">isa</text>
</g>
<!-- Entity131 -->
<g id="node18" class="node entity">
<title>Entity131</title>
<ellipse fill="none" stroke="black" cx="1141.1" cy="-915.43" rx="68.49" ry="18"/>
<text text-anchor="start" x="1096.6" y="-911.73" font-family="Times New Roman,serif" font-size="14.00">george hw bush</text>
</g>
<!-- Entity131&#45;&gt;Entity180 -->
<g id="edge17" class="edge verb">
<title>Entity131&#45;&gt;Entity180</title>
<path fill="none" stroke="black" d="M1151.58,-933.25C1161.86,-950.73 1177.64,-977.56 1189.31,-997.4"/>
<polygon fill="black" stroke="black" points="1186.43,-999.4 1194.51,-1006.24 1192.46,-995.85 1186.43,-999.4"/>
<text text-anchor="start" x="1154.45" y="-969.13" font-family="Times New Roman,serif" font-size="14.00">isa</text>
</g>
<!-- Entity127 -->
<g id="node19" class="node entity">
<title>Entity127</title>
<ellipse fill="none" stroke="black" cx="1716.75" cy="-1065.02" rx="31.4" ry="18"/>
<text text-anchor="start" x="1700.75" y="-1061.32" font-family="Times New Roman,serif" font-size="14.00">carter</text>
</g>
<!-- Entity127&#45;&gt;Entity180 -->
<g id="edge18" class="edge verb">
<title>Entity127&#45;&gt;Entity180</title>
<path fill="none" stroke="black" d="M1685.49,-1062.48C1597.07,-1055.29 1345.24,-1034.81 1245.75,-1026.73"/>
<polygon fill="black" stroke="black" points="1246.03,-1023.24 1235.78,-1025.92 1245.46,-1030.21 1246.03,-1023.24"/>
<text text-anchor="start" x="1449.62" y="-1048.4" font-family="Times New Roman,serif" font-size="14.00">isa</text>
</g>
<!-- Entity184 -->
<g id="node23" class="node entity">
<title>Entity184</title>
<ellipse fill="none" stroke="black" cx="2203.67" cy="-1136.71" rx="27" ry="18"/>
<text text-anchor="start" x="2194.17" y="-1133.01" font-family="Times New Roman,serif" font-size="14.00">ufo</text>
</g>
<!-- Entity127&#45;&gt;Entity184 -->
<g id="edge22" class="edge verb">
<title>Entity127&#45;&gt;Entity184</title>
<path fill="none" stroke="black" d="M1747.21,-1069.5C1832.71,-1082.09 2074.72,-1117.72 2167.16,-1131.33"/>
<polygon fill="black" stroke="black" points="2166.76,-1134.81 2177.16,-1132.81 2167.78,-1127.89 2166.76,-1134.81"/>
<text text-anchor="start" x="1902.18" y="-1104.22" font-family="Times New Roman,serif" font-size="14.00">witnessed</text>
</g>
<!-- Entity130 -->
<g id="node20" class="node entity">
<title>Entity130</title>
<ellipse fill="none" stroke="black" cx="1177.3" cy="-673.19" rx="35.19" ry="18"/>
<text text-anchor="start" x="1158.3" y="-669.49" font-family="Times New Roman,serif" font-size="14.00">obama</text>
</g>
<!-- Entity130&#45;&gt;Entity180 -->
<g id="edge19" class="edge verb">
<title>Entity130&#45;&gt;Entity180</title>
<path fill="none" stroke="black" d="M1178.73,-691.52C1183.21,-748.96 1196.98,-925.72 1202.39,-995.06"/>
<polygon fill="black" stroke="black" points="1198.91,-995.53 1203.18,-1005.23 1205.89,-994.98 1198.91,-995.53"/>
<text text-anchor="start" x="1174.56" y="-847.09" font-family="Times New Roman,serif" font-size="14.00">isa</text>
</g>
<!-- Entity128 -->
<g id="node21" class="node entity">
<title>Entity128</title>
<ellipse fill="none" stroke="black" cx="2658.04" cy="-1258.28" rx="27" ry="18"/>
<text text-anchor="start" x="2650.04" y="-1254.58" font-family="Times New Roman,serif" font-size="14.00">cia</text>
</g>
<!-- Entity128&#45;&gt;Entity11 -->
<g id="edge20" class="edge verb">
<title>Entity128&#45;&gt;Entity11</title>
<path fill="none" stroke="black" d="M2685.02,-1259.37C2785.36,-1263.43 3139.65,-1277.77 3305.22,-1284.47"/>
<polygon fill="black" stroke="black" points="3305.23,-1287.97 3315.37,-1284.88 3305.52,-1280.98 3305.23,-1287.97"/>
<text text-anchor="start" x="2931.12" y="-1275.72" font-family="Times New Roman,serif" font-size="14.00">investigates</text>
</g>
<!-- Entity128&#45;&gt;Entity184 -->
<g id="edge26" class="edge verb">
<title>Entity128&#45;&gt;Entity184</title>
<path fill="none" stroke="black" d="M2632.96,-1251.57C2556.64,-1231.15 2327,-1169.71 2238.74,-1146.09"/>
<polygon fill="black" stroke="black" points="2239.51,-1142.68 2228.94,-1143.47 2237.7,-1149.44 2239.51,-1142.68"/>
<text text-anchor="start" x="2371.85" y="-1202.63" font-family="Times New Roman,serif" font-size="14.00">investigates</text>
</g>
<!-- Entity134 -->
<g id="node22" class="node entity">
<title>Entity134</title>
<ellipse fill="none" stroke="black" cx="3874.94" cy="-1430.9" rx="63.89" ry="18"/>
<text text-anchor="start" x="3833.94" y="-1427.2" font-family="Times New Roman,serif" font-size="14.00">robert bigelow</text>
</g>
<!-- Entity134&#45;&gt;Entity115 -->
<g id="edge23" class="edge verb">
<title>Entity134&#45;&gt;Entity115</title>
<path fill="none" stroke="black" d="M3851.28,-1414.05C3789.87,-1370.32 3625.34,-1253.17 3555.1,-1203.17"/>
<polygon fill="black" stroke="black" points="3556.8,-1200.08 3546.62,-1197.13 3552.74,-1205.78 3556.8,-1200.08"/>
<text text-anchor="start" x="3671.19" y="-1312.41" font-family="Times New Roman,serif" font-size="14.00">funds</text>
</g>
<!-- Entity134&#45;&gt;Entity11 -->
<g id="edge21" class="edge verb">
<title>Entity134&#45;&gt;Entity11</title>
<path fill="none" stroke="black" d="M3830.78,-1417.83C3743.15,-1391.92 3547.34,-1334.01 3449.56,-1305.09"/>
<polygon fill="black" stroke="black" points="3450.42,-1301.69 3439.84,-1302.21 3448.43,-1308.4 3450.42,-1301.69"/>
<text text-anchor="start" x="3576.17" y="-1365.26" font-family="Times New Roman,serif" font-size="14.00">investigates</text>
</g>
<!-- Entity139 -->
<g id="node24" class="node entity">
<title>Entity139</title>
<ellipse fill="none" stroke="black" cx="1497" cy="-583.07" rx="71.49" ry="18"/>
<text text-anchor="start" x="1450" y="-579.37" font-family="Times New Roman,serif" font-size="14.00">woodrow wilson</text>
</g>
<!-- Entity139&#45;&gt;Entity180 -->
<g id="edge24" class="edge verb">
<title>Entity139&#45;&gt;Entity180</title>
<path fill="none" stroke="black" d="M1485.18,-600.87C1439.6,-669.5 1275.21,-917.04 1221.62,-997.74"/>
<polygon fill="black" stroke="black" points="1218.55,-996.04 1215.93,-1006.31 1224.38,-999.92 1218.55,-996.04"/>
<text text-anchor="start" x="1337.4" y="-803.11" font-family="Times New Roman,serif" font-size="14.00">isa</text>
</g>
<!-- Entity189 -->
<g id="node28" class="node entity">
<title>Entity189</title>
<ellipse fill="none" stroke="black" cx="1520.05" cy="-475.13" rx="71.49" ry="18"/>
<text text-anchor="start" x="1473.05" y="-471.43" font-family="Times New Roman,serif" font-size="14.00">leauge of nations</text>
</g>
<!-- Entity139&#45;&gt;Entity189 -->
<g id="edge29" class="edge verb">
<title>Entity139&#45;&gt;Entity189</title>
<path fill="none" stroke="black" d="M1500.91,-564.76C1504.53,-547.83 1509.95,-522.43 1514.1,-502.99"/>
<polygon fill="black" stroke="black" points="1517.53,-503.68 1516.2,-493.17 1510.69,-502.22 1517.53,-503.68"/>
<text text-anchor="start" x="1466.51" y="-537.67" font-family="Times New Roman,serif" font-size="14.00">created</text>
</g>
<!-- Entity145 -->
<g id="node25" class="node entity">
<title>Entity145</title>
<ellipse fill="none" stroke="black" cx="1512.98" cy="-17.73" rx="53.89" ry="18"/>
<text text-anchor="start" x="1479.48" y="-14.03" font-family="Times New Roman,serif" font-size="14.00">edgar casey</text>
</g>
<!-- Entity145&#45;&gt;Entity139 -->
<g id="edge27" class="edge verb">
<title>Entity145&#45;&gt;Entity139</title>
<path fill="none" stroke="black" d="M1512.47,-35.9C1510.15,-117.97 1500.64,-454.39 1497.8,-554.71"/>
<polygon fill="black" stroke="black" points="1494.3,-554.87 1497.51,-564.97 1501.29,-555.07 1494.3,-554.87"/>
<text text-anchor="start" x="1463.14" y="-299.1" font-family="Times New Roman,serif" font-size="14.00">advises</text>
</g>
<!-- Entity137 -->
<g id="node26" class="node entity">
<title>Entity137</title>
<ellipse fill="none" stroke="black" cx="1369.45" cy="-2626.07" rx="58.49" ry="18"/>
<text text-anchor="start" x="1332.45" y="-2622.37" font-family="Times New Roman,serif" font-size="14.00">rudolf steiner</text>
</g>
<!-- Entity269 -->
<g id="node27" class="node entity">
<title>Entity269</title>
<ellipse fill="none" stroke="black" cx="1246.66" cy="-3304.84" rx="102.08" ry="18"/>
<text text-anchor="start" x="1176.16" y="-3301.14" font-family="Times New Roman,serif" font-size="14.00">anthroposophical society</text>
</g>
<!-- Entity137&#45;&gt;Entity269 -->
<g id="edge28" class="edge verb">
<title>Entity137&#45;&gt;Entity269</title>
<path fill="none" stroke="black" d="M1366.16,-2644.23C1349.3,-2737.46 1272.41,-3162.48 1251.78,-3276.58"/>
<polygon fill="black" stroke="black" points="1248.29,-3276.16 1249.96,-3286.63 1255.18,-3277.41 1248.29,-3276.16"/>
<text text-anchor="start" x="1267.97" y="-2964.2" font-family="Times New Roman,serif" font-size="14.00">created</text>
</g>
<!-- Entity188 -->
<g id="node30" class="node entity">
<title>Entity188</title>
<ellipse fill="none" stroke="black" cx="1359.92" cy="-2518.15" rx="85.29" ry="18"/>
<text text-anchor="start" x="1302.42" y="-2514.45" font-family="Times New Roman,serif" font-size="14.00">theosophical society</text>
</g>
<!-- Entity137&#45;&gt;Entity188 -->
<g id="edge31" class="edge verb">
<title>Entity137&#45;&gt;Entity188</title>
<path fill="none" stroke="black" d="M1367.83,-2607.77C1366.34,-2590.92 1364.12,-2565.68 1362.4,-2546.28"/>
<polygon fill="black" stroke="black" points="1365.88,-2545.84 1361.51,-2536.19 1358.91,-2546.46 1365.88,-2545.84"/>
<text text-anchor="start" x="1299.12" y="-2580.82" font-family="Times New Roman,serif" font-size="14.00">memberr of</text>
</g>
<!-- Entity142 -->
<g id="node29" class="node entity">
<title>Entity142</title>
<ellipse fill="none" stroke="black" cx="995.6" cy="-3092.44" rx="73.39" ry="18"/>
<text text-anchor="start" x="947.1" y="-3088.74" font-family="Times New Roman,serif" font-size="14.00">madam blavatsky</text>
</g>
<!-- Entity142&#45;&gt;Entity188 -->
<g id="edge30" class="edge verb">
<title>Entity142&#45;&gt;Entity188</title>
<path fill="none" stroke="black" d="M1006.9,-3074.62C1059.49,-2991.73 1280.29,-2643.68 1343.15,-2544.58"/>
<polygon fill="black" stroke="black" points="1346.17,-2546.36 1348.57,-2536.04 1340.26,-2542.61 1346.17,-2546.36"/>
<text text-anchor="start" x="1134.03" y="-2813.4" font-family="Times New Roman,serif" font-size="14.00">created</text>
</g>
<!-- Entity140 -->
<g id="node31" class="node entity">
<title>Entity140</title>
<ellipse fill="none" stroke="black" cx="1443" cy="-2290.26" rx="58.49" ry="18"/>
<text text-anchor="start" x="1406" y="-2286.56" font-family="Times New Roman,serif" font-size="14.00">steve bannon</text>
</g>
<!-- Entity140&#45;&gt;Entity132 -->
<g id="edge33" class="edge verb">
<title>Entity140&#45;&gt;Entity132</title>
<path fill="none" stroke="black" d="M1447.94,-2272.26C1467.8,-2175 1534.87,-1712.1 1546.75,-1592.04"/>
<polygon fill="black" stroke="black" points="1550.26,-1592.1 1547.7,-1581.82 1543.29,-1591.45 1550.26,-1592.1"/>
<text text-anchor="start" x="1442.35" y="-1935.95" font-family="Times New Roman,serif" font-size="14.00">promoted</text>
</g>
<!-- Entity140&#45;&gt;Entity132 -->
<g id="edge40" class="edge verb">
<title>Entity140&#45;&gt;Entity132</title>
<path fill="none" stroke="black" d="M1443.33,-2271.97C1451.68,-2173.96 1518.39,-1711.06 1541.1,-1591.68"/>
<polygon fill="black" stroke="black" points="1544.6,-1592.01 1543.09,-1581.53 1537.73,-1590.67 1544.6,-1592.01"/>
<text text-anchor="start" x="1450.21" y="-1920.62" font-family="Times New Roman,serif" font-size="14.00">advises</text>
</g>
<!-- Entity265 -->
<g id="node32" class="node entity">
<title>Entity265</title>
<ellipse fill="none" stroke="black" cx="1825.47" cy="-2443.37" rx="35.19" ry="18"/>
<text text-anchor="start" x="1806.47" y="-2439.67" font-family="Times New Roman,serif" font-size="14.00">gurgev</text>
</g>
<!-- Entity140&#45;&gt;Entity265 -->
<g id="edge32" class="edge verb">
<title>Entity140&#45;&gt;Entity265</title>
<path fill="none" stroke="black" d="M1478.99,-2304.66C1551.6,-2333.73 1714.98,-2399.14 1788.45,-2428.55"/>
<polygon fill="black" stroke="black" points="1787.2,-2431.82 1797.78,-2432.29 1789.8,-2425.32 1787.2,-2431.82"/>
<text text-anchor="start" x="1592.72" y="-2370.41" font-family="Times New Roman,serif" font-size="14.00">studied</text>
</g>
<!-- Entity270 -->
<g id="node33" class="node entity">
<title>Entity270</title>
<ellipse fill="none" stroke="black" cx="1077.93" cy="-2626.09" rx="38.19" ry="18"/>
<text text-anchor="start" x="1056.43" y="-2622.39" font-family="Times New Roman,serif" font-size="14.00">us navy</text>
</g>
<!-- Entity140&#45;&gt;Entity270 -->
<g id="edge34" class="edge verb">
<title>Entity140&#45;&gt;Entity270</title>
<path fill="none" stroke="black" d="M1424.4,-2307.38C1363.82,-2363.1 1172.15,-2539.42 1103.07,-2602.97"/>
<polygon fill="black" stroke="black" points="1100.63,-2600.46 1095.64,-2609.8 1105.37,-2605.61 1100.63,-2600.46"/>
<text text-anchor="start" x="1202.73" y="-2458.97" font-family="Times New Roman,serif" font-size="14.00">member of</text>
</g>
<!-- Entity267 -->
<g id="node34" class="node entity">
<title>Entity267</title>
<ellipse fill="none" stroke="black" cx="968.35" cy="-2301.58" rx="53.09" ry="18"/>
<text text-anchor="start" x="935.35" y="-2297.88" font-family="Times New Roman,serif" font-size="14.00">biosphere 2</text>
</g>
<!-- Entity140&#45;&gt;Entity267 -->
<g id="edge35" class="edge verb">
<title>Entity140&#45;&gt;Entity267</title>
<path fill="none" stroke="black" d="M1384.33,-2291.66C1294.67,-2293.8 1124.29,-2297.86 1031.84,-2300.07"/>
<polygon fill="black" stroke="black" points="1031.7,-2296.57 1021.78,-2300.31 1031.86,-2303.57 1031.7,-2296.57"/>
<text text-anchor="start" x="1167.09" y="-2299.66" font-family="Times New Roman,serif" font-size="14.00">created</text>
</g>
<!-- Entity268 -->
<g id="node35" class="node entity">
<title>Entity268</title>
<ellipse fill="none" stroke="black" cx="909.44" cy="-2517.61" rx="64.99" ry="18"/>
<text text-anchor="start" x="867.44" y="-2513.91" font-family="Times New Roman,serif" font-size="14.00">goldman sachs</text>
</g>
<!-- Entity140&#45;&gt;Entity268 -->
<g id="edge36" class="edge verb">
<title>Entity140&#45;&gt;Entity268</title>
<path fill="none" stroke="black" d="M1408.41,-2305C1315.14,-2344.74 1058.52,-2454.09 954.31,-2498.49"/>
<polygon fill="black" stroke="black" points="952.83,-2495.32 945,-2502.46 955.57,-2501.75 952.83,-2495.32"/>
<text text-anchor="start" x="1118.36" y="-2405.55" font-family="Times New Roman,serif" font-size="14.00">worked for</text>
</g>
<!-- Entity191 -->
<g id="node36" class="node entity">
<title>Entity191</title>
<ellipse fill="none" stroke="black" cx="1688.38" cy="-2896.5" rx="61.99" ry="18"/>
<text text-anchor="start" x="1648.88" y="-2892.8" font-family="Times New Roman,serif" font-size="14.00">breitbart news</text>
</g>
<!-- Entity140&#45;&gt;Entity191 -->
<g id="edge37" class="edge verb">
<title>Entity140&#45;&gt;Entity191</title>
<path fill="none" stroke="black" d="M1450.35,-2308.4C1485.31,-2394.78 1634.91,-2764.41 1677.2,-2868.9"/>
<polygon fill="black" stroke="black" points="1674.07,-2870.48 1681.06,-2878.43 1680.56,-2867.85 1674.07,-2870.48"/>
<text text-anchor="start" x="1522.78" y="-2592.45" font-family="Times New Roman,serif" font-size="14.00">created</text>
</g>
<!-- Entity266 -->
<g id="node37" class="node entity">
<title>Entity266</title>
<ellipse fill="none" stroke="black" cx="1853.51" cy="-2698.06" rx="77.19" ry="18"/>
<text text-anchor="start" x="1802.01" y="-2694.36" font-family="Times New Roman,serif" font-size="14.00">hollywood movies</text>
</g>
<!-- Entity140&#45;&gt;Entity266 -->
<g id="edge38" class="edge verb">
<title>Entity140&#45;&gt;Entity266</title>
<path fill="none" stroke="black" d="M1460.38,-2307.52C1525,-2371.72 1751.64,-2596.87 1828.1,-2672.82"/>
<polygon fill="black" stroke="black" points="1825.87,-2675.54 1835.43,-2680.11 1830.8,-2670.58 1825.87,-2675.54"/>
<text text-anchor="start" x="1589.24" y="-2493.97" font-family="Times New Roman,serif" font-size="14.00">produced</text>
</g>
<!-- Entity151 -->
<g id="node38" class="node entity">
<title>Entity151</title>
<ellipse fill="none" stroke="black" cx="1739.53" cy="-3004.55" rx="69.59" ry="18"/>
<text text-anchor="start" x="1694.03" y="-3000.85" font-family="Times New Roman,serif" font-size="14.00">andrew breitbart</text>
</g>
<!-- Entity151&#45;&gt;Entity191 -->
<g id="edge39" class="edge verb">
<title>Entity151&#45;&gt;Entity191</title>
<path fill="none" stroke="black" d="M1730.85,-2986.22C1722.76,-2969.12 1710.57,-2943.38 1701.33,-2923.86"/>
<polygon fill="black" stroke="black" points="1704.37,-2922.1 1696.93,-2914.56 1698.04,-2925.1 1704.37,-2922.1"/>
<text text-anchor="start" x="1675.09" y="-2958.84" font-family="Times New Roman,serif" font-size="14.00">created</text>
</g>
<!-- Entity154&#45;&gt;Entity128 -->
<g id="edge42" class="edge verb">
<title>Entity154&#45;&gt;Entity128</title>
<path fill="none" stroke="black" d="M2216.71,-1424.49C2305.09,-1391.2 2538.2,-1303.41 2624.92,-1270.75"/>
<polygon fill="black" stroke="black" points="2626.39,-1273.94 2634.51,-1267.14 2623.92,-1267.39 2626.39,-1273.94"/>
<text text-anchor="start" x="2359.82" y="-1351.42" font-family="Times New Roman,serif" font-size="14.00">member of</text>
</g>
<!-- Entity271 -->
<g id="node40" class="node entity">
<title>Entity271</title>
<ellipse fill="none" stroke="black" cx="2541.12" cy="-1678.15" rx="50.89" ry="18"/>
<text text-anchor="start" x="2510.12" y="-1674.45" font-family="Times New Roman,serif" font-size="14.00">nikola tesla</text>
</g>
<!-- Entity154&#45;&gt;Entity271 -->
<g id="edge43" class="edge verb">
<title>Entity154&#45;&gt;Entity271</title>
<path fill="none" stroke="black" d="M2205.94,-1453.5C2268.41,-1495.37 2437.03,-1608.38 2508.45,-1656.25"/>
<polygon fill="black" stroke="black" points="2506.81,-1659.36 2517.06,-1662.02 2510.7,-1653.55 2506.81,-1659.36"/>
<text text-anchor="start" x="2316.19" y="-1558.67" font-family="Times New Roman,serif" font-size="14.00">studied</text>
</g>
<!-- Entity152 -->
<g id="node41" class="node entity">
<title>Entity152</title>
<ellipse fill="none" stroke="black" cx="614.34" cy="-2174.67" rx="90.98" ry="18"/>
<text text-anchor="start" x="552.34" y="-2170.97" font-family="Times New Roman,serif" font-size="14.00">emma hardinge&#45;britten</text>
</g>
<!-- Entity152&#45;&gt;Entity161 -->
<g id="edge45" class="edge verb">
<title>Entity152&#45;&gt;Entity161</title>
<path fill="none" stroke="black" d="M621.82,-2156.41C660.35,-2062.33 836.43,-1632.42 882.78,-1519.26"/>
<polygon fill="black" stroke="black" points="886.06,-1520.47 886.61,-1509.89 879.58,-1517.82 886.06,-1520.47"/>
<text text-anchor="start" x="653.3" y="-1841.63" font-family="Times New Roman,serif" font-size="14.00">spokesperson for</text>
</g>
<!-- Entity152&#45;&gt;Entity188 -->
<g id="edge44" class="edge verb">
<title>Entity152&#45;&gt;Entity188</title>
<path fill="none" stroke="black" d="M650.3,-2191.24C773.59,-2248.03 1179.02,-2434.81 1315,-2497.46"/>
<polygon fill="black" stroke="black" points="1313.77,-2500.75 1324.32,-2501.75 1316.7,-2494.39 1313.77,-2500.75"/>
<text text-anchor="start" x="941.65" y="-2348.15" font-family="Times New Roman,serif" font-size="14.00">created</text>
</g>
<!-- Entity272 -->
<g id="node42" class="node entity">
<title>Entity272</title>
<ellipse fill="none" stroke="black" cx="39.59" cy="-2239.43" rx="39.79" ry="18"/>
<text text-anchor="start" x="17.09" y="-2235.73" font-family="Times New Roman,serif" font-size="14.00">medium</text>
</g>
<!-- Entity152&#45;&gt;Entity272 -->
<g id="edge46" class="edge verb">
<title>Entity152&#45;&gt;Entity272</title>
<path fill="none" stroke="black" d="M535.03,-2183.61C414.13,-2197.23 187.33,-2222.79 88.13,-2233.96"/>
<polygon fill="black" stroke="black" points="87.63,-2230.5 78.08,-2235.09 88.41,-2237.45 87.63,-2230.5"/>
<text text-anchor="start" x="295.58" y="-2212.59" font-family="Times New Roman,serif" font-size="14.00">isa</text>
</g>
<!-- Entity192 -->
<g id="node43" class="node entity">
<title>Entity192</title>
<ellipse fill="none" stroke="black" cx="73" cy="-2509.28" rx="55.79" ry="18"/>
<text text-anchor="start" x="38" y="-2505.58" font-family="Times New Roman,serif" font-size="14.00">orphic circle</text>
</g>
<!-- Entity152&#45;&gt;Entity192 -->
<g id="edge47" class="edge verb">
<title>Entity152&#45;&gt;Entity192</title>
<path fill="none" stroke="black" d="M586.38,-2191.96C495.27,-2248.27 207.15,-2426.37 107.4,-2488.03"/>
<polygon fill="black" stroke="black" points="105.56,-2485.05 98.89,-2493.28 109.24,-2491 105.56,-2485.05"/>
<text text-anchor="start" x="285.89" y="-2343.79" font-family="Times New Roman,serif" font-size="14.00">member of</text>
</g>
<!-- Entity160 -->
<g id="node44" class="node entity">
<title>Entity160</title>
<ellipse fill="none" stroke="black" cx="4626.94" cy="-2169.66" rx="53.89" ry="18"/>
<text text-anchor="start" x="4593.44" y="-2165.96" font-family="Times New Roman,serif" font-size="14.00">black magic</text>
</g>
<!-- Entity193 -->
<g id="node45" class="node entity">
<title>Entity193</title>
<ellipse fill="none" stroke="black" cx="4714.66" cy="-2281.64" rx="28.7" ry="18"/>
<text text-anchor="start" x="4700.66" y="-2277.94" font-family="Times New Roman,serif" font-size="14.00">x left</text>
</g>
<!-- Entity160&#45;&gt;Entity193 -->
<g id="edge48" class="edge verb">
<title>Entity160&#45;&gt;Entity193</title>
<path fill="none" stroke="black" d="M4640.64,-2187.16C4655.45,-2206.05 4679.14,-2236.29 4695.72,-2257.45"/>
<polygon fill="black" stroke="black" points="4692.98,-2259.64 4701.9,-2265.36 4698.49,-2255.32 4692.98,-2259.64"/>
<text text-anchor="start" x="4607.18" y="-2226.11" font-family="Times New Roman,serif" font-size="14.00">member of</text>
</g>
<!-- Entity162 -->
<g id="node46" class="node entity">
<title>Entity162</title>
<ellipse fill="none" stroke="black" cx="4074.94" cy="-1900.66" rx="39.79" ry="18"/>
<text text-anchor="start" x="4052.44" y="-1896.96" font-family="Times New Roman,serif" font-size="14.00">crowley</text>
</g>
<!-- Entity194 -->
<g id="node47" class="node entity">
<title>Entity194</title>
<ellipse fill="none" stroke="black" cx="4162.66" cy="-2012.64" rx="38.99" ry="18"/>
<text text-anchor="start" x="4140.66" y="-2008.94" font-family="Times New Roman,serif" font-size="14.00">x magic</text>
</g>
<!-- Entity162&#45;&gt;Entity194 -->
<g id="edge49" class="edge verb">
<title>Entity162&#45;&gt;Entity194</title>
<path fill="none" stroke="black" d="M4088.26,-1917.67C4102.82,-1936.25 4126.28,-1966.2 4142.96,-1987.49"/>
<polygon fill="black" stroke="black" points="4140.29,-1989.76 4149.21,-1995.47 4145.8,-1985.44 4140.29,-1989.76"/>
<text text-anchor="start" x="4054.61" y="-1956.38" font-family="Times New Roman,serif" font-size="14.00">member of</text>
</g>
<!-- Entity163 -->
<g id="node48" class="node entity">
<title>Entity163</title>
<ellipse fill="none" stroke="black" cx="5421.97" cy="-1782.17" rx="57.69" ry="18"/>
<text text-anchor="start" x="5385.47" y="-1778.47" font-family="Times New Roman,serif" font-size="14.00">michael pane</text>
</g>
<!-- Entity163&#45;&gt;Entity178 -->
<g id="edge50" class="edge verb">
<title>Entity163&#45;&gt;Entity178</title>
<path fill="none" stroke="black" d="M5381.09,-1769.23C5290.63,-1740.59 5073.8,-1671.96 4976.42,-1641.13"/>
<polygon fill="black" stroke="black" points="4977.41,-1637.77 4966.82,-1638.09 4975.3,-1644.45 4977.41,-1637.77"/>
<text text-anchor="start" x="5122.76" y="-1708.98" font-family="Times New Roman,serif" font-size="14.00">worked at</text>
</g>
<!-- Entity165 -->
<g id="node49" class="node entity">
<title>Entity165</title>
<ellipse fill="none" stroke="black" cx="5633.62" cy="-1890.21" rx="74.99" ry="18"/>
<text text-anchor="start" x="5584.12" y="-1886.51" font-family="Times New Roman,serif" font-size="14.00">walter dornberger</text>
</g>
<!-- Entity163&#45;&gt;Entity165 -->
<g id="edge51" class="edge verb">
<title>Entity163&#45;&gt;Entity165</title>
<path fill="none" stroke="black" d="M5452.29,-1797.65C5489.17,-1816.47 5551.56,-1848.32 5592.67,-1869.31"/>
<polygon fill="black" stroke="black" points="5591.12,-1872.45 5601.62,-1873.88 5594.3,-1866.21 5591.12,-1872.45"/>
<text text-anchor="start" x="5459.48" y="-1837.28" font-family="Times New Roman,serif" font-size="14.00">worked for</text>
</g>
<!-- Entity165&#45;&gt;Entity178 -->
<g id="edge52" class="edge verb">
<title>Entity165&#45;&gt;Entity178</title>
<path fill="none" stroke="black" d="M5599.71,-1874.15C5485.56,-1826.44 5114.88,-1687.36 4978.54,-1640.84"/>
<polygon fill="black" stroke="black" points="4979.34,-1637.42 4968.75,-1637.53 4977.1,-1644.05 4979.34,-1637.42"/>
<text text-anchor="start" x="5233.12" y="-1746.3" font-family="Times New Roman,serif" font-size="14.00">worked at</text>
</g>
<!-- Entity165&#45;&gt;Entity178 -->
<g id="edge53" class="edge verb">
<title>Entity165&#45;&gt;Entity178</title>
<path fill="none" stroke="black" d="M5586.05,-1876.19C5454.91,-1831.65 5089.94,-1694.84 4967.92,-1644.41"/>
<polygon fill="black" stroke="black" points="4969.13,-1641.12 4958.55,-1640.5 4966.44,-1647.58 4969.13,-1641.12"/>
<text text-anchor="start" x="5197.98" y="-1764.1" font-family="Times New Roman,serif" font-size="14.00">vice&#45;president</text>
</g>
<!-- Entity195 -->
<g id="node50" class="node entity">
<title>Entity195</title>
<ellipse fill="none" stroke="black" cx="5572" cy="-1998.25" rx="90.98" ry="18"/>
<text text-anchor="start" x="5510" y="-1994.55" font-family="Times New Roman,serif" font-size="14.00">nsdap rocket program</text>
</g>
<!-- Entity165&#45;&gt;Entity195 -->
<g id="edge54" class="edge verb">
<title>Entity165&#45;&gt;Entity195</title>
<path fill="none" stroke="black" d="M5623.44,-1908.05C5613.64,-1925.23 5598.69,-1951.44 5587.43,-1971.19"/>
<polygon fill="black" stroke="black" points="5584.31,-1969.6 5582.39,-1980.02 5590.39,-1973.07 5584.31,-1969.6"/>
<text text-anchor="start" x="5564.44" y="-1943.42" font-family="Times New Roman,serif" font-size="14.00">created</text>
</g>
<!-- Entity177 -->
<g id="node51" class="node entity">
<title>Entity177</title>
<ellipse fill="none" stroke="black" cx="6255.81" cy="-2018.66" rx="32.49" ry="18"/>
<text text-anchor="start" x="6238.81" y="-2014.96" font-family="Times New Roman,serif" font-size="14.00">nsdap</text>
</g>
<!-- Entity165&#45;&gt;Entity177 -->
<g id="edge55" class="edge verb">
<title>Entity165&#45;&gt;Entity177</title>
<path fill="none" stroke="black" d="M5690.48,-1901.95C5814.72,-1927.6 6107.85,-1988.11 6215.37,-2010.31"/>
<polygon fill="black" stroke="black" points="6214.68,-2013.74 6225.18,-2012.34 6216.09,-2006.89 6214.68,-2013.74"/>
<text text-anchor="start" x="5891.92" y="-1959.93" font-family="Times New Roman,serif" font-size="14.00">member of</text>
</g>
<!-- Entity273 -->
<g id="node53" class="node entity">
<title>Entity273</title>
<ellipse fill="none" stroke="black" cx="5960.95" cy="-2365.34" rx="65.79" ry="18"/>
<text text-anchor="start" x="5918.45" y="-2361.64" font-family="Times New Roman,serif" font-size="14.00">x series aircraft</text>
</g>
<!-- Entity165&#45;&gt;Entity273 -->
<g id="edge58" class="edge verb">
<title>Entity165&#45;&gt;Entity273</title>
<path fill="none" stroke="black" d="M5645.85,-1907.97C5695.68,-1980.3 5883.48,-2252.89 5942.84,-2339.06"/>
<polygon fill="black" stroke="black" points="5940.1,-2341.24 5948.65,-2347.49 5945.86,-2337.27 5940.1,-2341.24"/>
<text text-anchor="start" x="5753.35" y="-2127.32" font-family="Times New Roman,serif" font-size="14.00">created</text>
</g>
<!-- Entity102 -->
<g id="node59" class="node entity">
<title>Entity102</title>
<ellipse fill="none" stroke="black" cx="6706.2" cy="-2047.94" rx="38.99" ry="18"/>
<text text-anchor="start" x="6684.2" y="-2044.24" font-family="Times New Roman,serif" font-size="14.00">far right</text>
</g>
<!-- Entity177&#45;&gt;Entity102 -->
<g id="edge63" class="edge verb">
<title>Entity177&#45;&gt;Entity102</title>
<path fill="none" stroke="black" d="M6286.89,-2024.34C6363.93,-2033.23 6564.24,-2046.49 6657.32,-2049.16"/>
<polygon fill="black" stroke="black" points="6657.24,-2052.66 6667.33,-2049.41 6657.42,-2045.66 6657.24,-2052.66"/>
<text text-anchor="start" x="6417.11" y="-2040.55" font-family="Times New Roman,serif" font-size="14.00">member a</text>
</g>
<!-- Entity177&#45;&gt;Entity102 -->
<g id="edge67" class="edge verb">
<title>Entity177&#45;&gt;Entity102</title>
<path fill="none" stroke="black" d="M6288.44,-2017.07C6367.16,-2018.34 6567.7,-2031.17 6659.29,-2040.55"/>
<polygon fill="black" stroke="black" points="6659.07,-2044.05 6669.38,-2041.62 6659.81,-2037.08 6659.07,-2044.05"/>
<text text-anchor="start" x="6412.87" y="-2017.61" font-family="Times New Roman,serif" font-size="14.00">member of</text>
</g>
<!-- Entity170 -->
<g id="node52" class="node entity">
<title>Entity170</title>
<ellipse fill="none" stroke="black" cx="6055.2" cy="-1746.17" rx="46.29" ry="18"/>
<text text-anchor="start" x="6027.7" y="-1742.47" font-family="Times New Roman,serif" font-size="14.00">van braun</text>
</g>
<!-- Entity170&#45;&gt;Entity165 -->
<g id="edge56" class="edge verb">
<title>Entity170&#45;&gt;Entity165</title>
<path fill="none" stroke="black" d="M6020.34,-1758.08C5946.47,-1783.32 5773.79,-1842.32 5686.35,-1872.2"/>
<polygon fill="black" stroke="black" points="5685.22,-1868.88 5676.89,-1875.43 5687.48,-1875.51 5685.22,-1868.88"/>
<text text-anchor="start" x="5790.34" y="-1818.94" font-family="Times New Roman,serif" font-size="14.00">worked for</text>
</g>
<!-- Entity170&#45;&gt;Entity195 -->
<g id="edge57" class="edge verb">
<title>Entity170&#45;&gt;Entity195</title>
<path fill="none" stroke="black" d="M6027.48,-1760.63C5946.46,-1802.9 5709.65,-1926.43 5613.4,-1976.65"/>
<polygon fill="black" stroke="black" points="5611.51,-1973.69 5604.26,-1981.41 5614.75,-1979.89 5611.51,-1973.69"/>
<text text-anchor="start" x="5764.44" y="-1872.44" font-family="Times New Roman,serif" font-size="14.00">worked at</text>
</g>
<!-- Entity172 -->
<g id="node54" class="node entity">
<title>Entity172</title>
<ellipse fill="none" stroke="black" cx="6568.77" cy="-2261.66" rx="49.29" ry="18"/>
<text text-anchor="start" x="6538.77" y="-2257.96" font-family="Times New Roman,serif" font-size="14.00">adolf hitler</text>
</g>
<!-- Entity172&#45;&gt;Entity177 -->
<g id="edge59" class="edge verb">
<title>Entity172&#45;&gt;Entity177</title>
<path fill="none" stroke="black" d="M6547.75,-2245.34C6492.65,-2202.55 6344.04,-2087.17 6282.78,-2039.6"/>
<polygon fill="black" stroke="black" points="6284.78,-2036.72 6274.73,-2033.35 6280.49,-2042.25 6284.78,-2036.72"/>
<text text-anchor="start" x="6374.27" y="-2146.27" font-family="Times New Roman,serif" font-size="14.00">created</text>
</g>
<!-- Entity173 -->
<g id="node55" class="node entity">
<title>Entity173</title>
<ellipse fill="none" stroke="black" cx="624.86" cy="-829.17" rx="77.99" ry="18"/>
<text text-anchor="start" x="572.86" y="-825.47" font-family="Times New Roman,serif" font-size="14.00">dwight eisenhower</text>
</g>
<!-- Entity173&#45;&gt;Entity180 -->
<g id="edge60" class="edge verb">
<title>Entity173&#45;&gt;Entity180</title>
<path fill="none" stroke="black" d="M669.39,-844.09C780.11,-881.18 1066.25,-977.04 1168.01,-1011.12"/>
<polygon fill="black" stroke="black" points="1166.95,-1014.46 1177.55,-1014.32 1169.18,-1007.82 1166.95,-1014.46"/>
<text text-anchor="start" x="899.7" y="-931.41" font-family="Times New Roman,serif" font-size="14.00">is a</text>
</g>
<!-- Entity174 -->
<g id="node56" class="node entity">
<title>Entity174</title>
<ellipse fill="none" stroke="black" cx="133.94" cy="-604.13" rx="37.89" ry="18"/>
<text text-anchor="start" x="112.94" y="-600.43" font-family="Times New Roman,serif" font-size="14.00">hunt oil</text>
</g>
<!-- Entity174&#45;&gt;Entity173 -->
<g id="edge61" class="edge verb">
<title>Entity174&#45;&gt;Entity173</title>
<path fill="none" stroke="black" d="M161.39,-616.71C242.37,-653.83 480.87,-763.16 580.42,-808.8"/>
<polygon fill="black" stroke="black" points="579.06,-812.03 589.61,-813.01 581.98,-805.66 579.06,-812.03"/>
<text text-anchor="start" x="330.9" y="-716.55" font-family="Times New Roman,serif" font-size="14.00">funded</text>
</g>
<!-- Entity175 -->
<g id="node57" class="node entity">
<title>Entity175</title>
<ellipse fill="none" stroke="black" cx="7634.81" cy="-2186.08" rx="36.29" ry="18"/>
<text text-anchor="start" x="7614.81" y="-2182.38" font-family="Times New Roman,serif" font-size="14.00">oswald</text>
</g>
<!-- Entity176 -->
<g id="node58" class="node entity">
<title>Entity176</title>
<ellipse fill="none" stroke="black" cx="7200.46" cy="-2117.8" rx="59.29" ry="18"/>
<text text-anchor="start" x="7162.96" y="-2114.1" font-family="Times New Roman,serif" font-size="14.00">guy bannister</text>
</g>
<!-- Entity175&#45;&gt;Entity176 -->
<g id="edge62" class="edge verb">
<title>Entity175&#45;&gt;Entity176</title>
<path fill="none" stroke="black" d="M7600,-2180.61C7526.85,-2169.11 7356.28,-2142.29 7263.42,-2127.7"/>
<polygon fill="black" stroke="black" points="7263.74,-2124.2 7253.31,-2126.11 7262.65,-2131.12 7263.74,-2124.2"/>
<text text-anchor="start" x="7368.71" y="-2157.95" font-family="Times New Roman,serif" font-size="14.00">worked for</text>
</g>
<!-- Entity176&#45;&gt;Entity102 -->
<g id="edge64" class="edge verb">
<title>Entity176&#45;&gt;Entity102</title>
<path fill="none" stroke="black" d="M7153.2,-2106.88C7059.46,-2090.2 6850.8,-2060.7 6755.45,-2050.64"/>
<polygon fill="black" stroke="black" points="6755.52,-2047.12 6745.21,-2049.59 6754.8,-2054.09 6755.52,-2047.12"/>
<text text-anchor="start" x="6899.33" y="-2067.56" font-family="Times New Roman,serif" font-size="14.00">member a</text>
</g>
<!-- Entity176&#45;&gt;Entity102 -->
<g id="edge66" class="edge verb">
<title>Entity176&#45;&gt;Entity102</title>
<path fill="none" stroke="black" d="M7142.16,-2114.13C7042.28,-2103.14 6840.55,-2074.49 6750.89,-2058.4"/>
<polygon fill="black" stroke="black" points="6751.25,-2054.91 6740.78,-2056.55 6749.99,-2061.79 6751.25,-2054.91"/>
<text text-anchor="start" x="6885.53" y="-2090.06" font-family="Times New Roman,serif" font-size="14.00">member of</text>
</g>
<!-- Entity1 -->
<g id="node60" class="node entity">
<title>Entity1</title>
<ellipse fill="none" stroke="black" cx="3523.94" cy="-1900.66" rx="27" ry="18"/>
<text text-anchor="start" x="3520.44" y="-1896.96" font-family="Times New Roman,serif" font-size="14.00">s</text>
</g>
<!-- Entity2 -->
<g id="node61" class="node entity">
<title>Entity2</title>
<ellipse fill="none" stroke="black" cx="3611.66" cy="-2012.64" rx="27" ry="18"/>
<text text-anchor="start" x="3607.66" y="-2008.94" font-family="Times New Roman,serif" font-size="14.00">o</text>
</g>
<!-- Entity1&#45;&gt;Entity2 -->
<g id="edge65" class="edge verb">
<title>Entity1&#45;&gt;Entity2</title>
<path fill="none" stroke="black" d="M3536.51,-1916.7C3551.23,-1935.5 3575.76,-1966.82 3592.78,-1988.53"/>
<polygon fill="black" stroke="black" points="3590.19,-1990.91 3599.11,-1996.62 3595.7,-1986.59 3590.19,-1990.91"/>
<text text-anchor="start" x="3557.64" y="-1956.42" font-family="Times New Roman,serif" font-size="14.00">v</text>
</g>
</g>
</svg>
