<?xml version="1.0" encoding="UTF-8" standalone="no"?>
<?xml-stylesheet href="../styles.css" type="text/css"?>
<!DOCTYPE svg PUBLIC "-//W3C//DTD SVG 1.1//EN"
 "http://www.w3.org/Graphics/SVG/1.1/DTD/svg11.dtd">
<!-- Generated by graphviz version 2.47.3 (20210619.1520)
 -->
<!-- Title: G Pages: 1 -->
<svg width="5171pt" height="4998pt"
 viewBox="0.00 0.00 5171.00 4998.00" xmlns="http://www.w3.org/2000/svg" xmlns:xlink="http://www.w3.org/1999/xlink">
<g id="graph0" class="graph" transform="scale(1 1) rotate(0) translate(4 4994)">
<title>G</title>
<polygon fill="white" stroke="transparent" points="-4,4 -4,-4994 5167,-4994 5167,4 -4,4"/>
<!-- Entity1 -->
<g id="node1" class="node entity">
<title>Entity1</title>
<ellipse fill="none" stroke="black" cx="2524.83" cy="-2304.72" rx="75.29" ry="18"/>
<text text-anchor="start" x="2474.83" y="-2301.02" font-family="Times New Roman,serif" font-size="14.00">lee harvey oswald</text>
</g>
<!-- Entity16 -->
<g id="node2" class="node entity">
<title>Entity16</title>
<ellipse fill="none" stroke="black" cx="1751.39" cy="-2326.46" rx="64.19" ry="18"/>
<text text-anchor="start" x="1709.89" y="-2322.76" font-family="Times New Roman,serif" font-size="14.00">john f kennedy</text>
</g>
<!-- Entity1&#45;&gt;Entity16 -->
<g id="edge1" class="edge verb">
<title>Entity1&#45;&gt;Entity16</title>
<path fill="none" stroke="black" d="M2449.62,-2306.83C2301.42,-2311 1973.3,-2320.22 1825.78,-2324.37"/>
<polygon fill="black" stroke="black" points="1825.37,-2320.88 1815.47,-2324.66 1825.57,-2327.88 1825.37,-2320.88"/>
<text text-anchor="start" x="2075.7" y="-2319.4" font-family="Times New Roman,serif" font-size="14.00">assassinate</text>
</g>
<!-- Entity56 -->
<g id="node50" class="node entity">
<title>Entity56</title>
<ellipse fill="none" stroke="black" cx="3244.13" cy="-2217.29" rx="59.29" ry="18"/>
<text text-anchor="start" x="3206.63" y="-2213.59" font-family="Times New Roman,serif" font-size="14.00">guy bannister</text>
</g>
<!-- Entity1&#45;&gt;Entity56 -->
<g id="edge49" class="edge verb">
<title>Entity1&#45;&gt;Entity56</title>
<path fill="none" stroke="black" d="M2592.18,-2296.53C2730.03,-2279.78 3042.81,-2241.76 3178.88,-2225.22"/>
<polygon fill="black" stroke="black" points="3179.64,-2228.65 3189.14,-2223.97 3178.79,-2221.71 3179.64,-2228.65"/>
<text text-anchor="start" x="2831.53" y="-2264.68" font-family="Times New Roman,serif" font-size="14.00">employee</text>
</g>
<!-- Entity60 -->
<g id="node10" class="node entity">
<title>Entity60</title>
<ellipse fill="none" stroke="black" cx="1138.95" cy="-2421.49" rx="31.4" ry="18"/>
<text text-anchor="start" x="1122.95" y="-2417.79" font-family="Times New Roman,serif" font-size="14.00">potus</text>
</g>
<!-- Entity16&#45;&gt;Entity60 -->
<g id="edge7" class="edge verb">
<title>Entity16&#45;&gt;Entity60</title>
<path fill="none" stroke="black" d="M1694.87,-2335.23C1572.5,-2354.22 1285.52,-2398.75 1179.37,-2415.22"/>
<polygon fill="black" stroke="black" points="1178.72,-2411.78 1169.38,-2416.77 1179.79,-2418.69 1178.72,-2411.78"/>
<text text-anchor="start" x="1427.12" y="-2379.03" font-family="Times New Roman,serif" font-size="14.00">is</text>
</g>
<!-- Entity5 -->
<g id="node3" class="node entity">
<title>Entity5</title>
<ellipse fill="none" stroke="black" cx="3332" cy="-17.85" rx="64.19" ry="18"/>
<text text-anchor="start" x="3290.5" y="-14.15" font-family="Times New Roman,serif" font-size="14.00">andre puharich</text>
</g>
<!-- Entity2 -->
<g id="node4" class="node entity">
<title>Entity2</title>
<ellipse fill="none" stroke="black" cx="3231.31" cy="-501.58" rx="41.69" ry="18"/>
<text text-anchor="start" x="3207.31" y="-497.88" font-family="Times New Roman,serif" font-size="14.00">uri geller</text>
</g>
<!-- Entity5&#45;&gt;Entity2 -->
<g id="edge2" class="edge verb">
<title>Entity5&#45;&gt;Entity2</title>
<path fill="none" stroke="black" d="M3328.24,-35.93C3312.99,-109.19 3255.72,-384.3 3237.16,-473.48"/>
<polygon fill="black" stroke="black" points="3233.7,-472.91 3235.09,-483.41 3240.55,-474.33 3233.7,-472.91"/>
<text text-anchor="start" x="3230.7" y="-258.51" font-family="Times New Roman,serif" font-size="14.00">sponsore</text>
</g>
<!-- Entity19 -->
<g id="node6" class="node entity">
<title>Entity19</title>
<ellipse fill="none" stroke="black" cx="3525.38" cy="-732.15" rx="38.19" ry="18"/>
<text text-anchor="start" x="3503.88" y="-728.45" font-family="Times New Roman,serif" font-size="14.00">the nine</text>
</g>
<!-- Entity2&#45;&gt;Entity19 -->
<g id="edge25" class="edge verb">
<title>Entity2&#45;&gt;Entity19</title>
<path fill="none" stroke="black" d="M3251.52,-517.43C3302.85,-557.67 3438.32,-663.89 3497.29,-710.12"/>
<polygon fill="black" stroke="black" points="3495.39,-713.08 3505.42,-716.49 3499.71,-707.57 3495.39,-713.08"/>
<text text-anchor="start" x="3270.41" y="-617.57" font-family="Times New Roman,serif" font-size="14.00">claiemd to channel</text>
</g>
<!-- Entity4 -->
<g id="node5" class="node entity">
<title>Entity4</title>
<ellipse fill="none" stroke="black" cx="3247.18" cy="-1173.34" rx="65.79" ry="18"/>
<text text-anchor="start" x="3204.68" y="-1169.64" font-family="Times New Roman,serif" font-size="14.00">arthur m young</text>
</g>
<!-- Entity4&#45;&gt;Entity19 -->
<g id="edge3" class="edge verb">
<title>Entity4&#45;&gt;Entity19</title>
<path fill="none" stroke="black" d="M3258.43,-1155.5C3301.69,-1086.89 3457.49,-839.82 3508.84,-758.38"/>
<polygon fill="black" stroke="black" points="3511.92,-760.05 3514.3,-749.73 3506,-756.32 3511.92,-760.05"/>
<text text-anchor="start" x="3337.63" y="-960.74" font-family="Times New Roman,serif" font-size="14.00">member</text>
</g>
<!-- Entity61 -->
<g id="node8" class="node entity">
<title>Entity61</title>
<ellipse fill="none" stroke="black" cx="3870.07" cy="-1131.38" rx="53.89" ry="18"/>
<text text-anchor="start" x="3836.57" y="-1127.68" font-family="Times New Roman,serif" font-size="14.00">bell aviation</text>
</g>
<!-- Entity4&#45;&gt;Entity61 -->
<g id="edge59" class="edge verb">
<title>Entity4&#45;&gt;Entity61</title>
<path fill="none" stroke="black" d="M3311.2,-1169.03C3430.96,-1160.96 3687.51,-1143.68 3806.74,-1135.65"/>
<polygon fill="black" stroke="black" points="3807.07,-1139.13 3816.81,-1134.97 3806.6,-1132.15 3807.07,-1139.13"/>
<text text-anchor="start" x="3524.97" y="-1156.14" font-family="Times New Roman,serif" font-size="14.00">create</text>
</g>
<!-- Entity58 -->
<g id="node47" class="node entity">
<title>Entity58</title>
<ellipse fill="none" stroke="black" cx="2690.69" cy="-1633.92" rx="77.19" ry="18"/>
<text text-anchor="start" x="2639.19" y="-1630.22" font-family="Times New Roman,serif" font-size="14.00">psi&#45;consciousness</text>
</g>
<!-- Entity4&#45;&gt;Entity58 -->
<g id="edge47" class="edge verb">
<title>Entity4&#45;&gt;Entity58</title>
<path fill="none" stroke="black" d="M3226.38,-1190.56C3141.17,-1261.08 2818.59,-1528.07 2719.69,-1609.92"/>
<polygon fill="black" stroke="black" points="2717.37,-1607.3 2711.89,-1616.38 2721.83,-1612.7 2717.37,-1607.3"/>
<text text-anchor="start" x="2942.04" y="-1404.04" font-family="Times New Roman,serif" font-size="14.00">study</text>
</g>
<!-- Entity63 -->
<g id="node58" class="node entity">
<title>Entity63</title>
<ellipse fill="none" stroke="black" cx="3726.87" cy="-1239.29" rx="94.48" ry="18"/>
<text text-anchor="start" x="3662.37" y="-1235.59" font-family="Times New Roman,serif" font-size="14.00">egyptian gods in a ship</text>
</g>
<!-- Entity19&#45;&gt;Entity63 -->
<g id="edge61" class="edge verb">
<title>Entity19&#45;&gt;Entity63</title>
<path fill="none" stroke="black" d="M3532.43,-749.9C3562.41,-825.35 3679.37,-1119.73 3715.9,-1211.69"/>
<polygon fill="black" stroke="black" points="3712.72,-1213.16 3719.66,-1221.16 3719.22,-1210.57 3712.72,-1213.16"/>
<text text-anchor="start" x="3594.17" y="-984.59" font-family="Times New Roman,serif" font-size="14.00">claim</text>
</g>
<!-- Entity49 -->
<g id="node7" class="node entity">
<title>Entity49</title>
<ellipse fill="none" stroke="black" cx="4355.79" cy="-1196.5" rx="57.69" ry="18"/>
<text text-anchor="start" x="4319.29" y="-1192.8" font-family="Times New Roman,serif" font-size="14.00">michael pane</text>
</g>
<!-- Entity49&#45;&gt;Entity61 -->
<g id="edge4" class="edge verb">
<title>Entity49&#45;&gt;Entity61</title>
<path fill="none" stroke="black" d="M4302.42,-1189.34C4211.24,-1177.12 4026.04,-1152.29 3930.34,-1139.46"/>
<polygon fill="black" stroke="black" points="3930.62,-1135.97 3920.24,-1138.11 3929.69,-1142.9 3930.62,-1135.97"/>
<text text-anchor="start" x="4062.38" y="-1168.2" font-family="Times New Roman,serif" font-size="14.00">employee</text>
</g>
<!-- Entity46 -->
<g id="node9" class="node entity">
<title>Entity46</title>
<ellipse fill="none" stroke="black" cx="4399.33" cy="-1304.53" rx="74.99" ry="18"/>
<text text-anchor="start" x="4349.83" y="-1300.83" font-family="Times New Roman,serif" font-size="14.00">walter dornberger</text>
</g>
<!-- Entity49&#45;&gt;Entity46 -->
<g id="edge43" class="edge verb">
<title>Entity49&#45;&gt;Entity46</title>
<path fill="none" stroke="black" d="M4363.18,-1214.82C4370.07,-1231.92 4380.44,-1257.65 4388.31,-1277.18"/>
<polygon fill="black" stroke="black" points="4385.07,-1278.5 4392.06,-1286.47 4391.56,-1275.89 4385.07,-1278.5"/>
<text text-anchor="start" x="4321.74" y="-1249.8" font-family="Times New Roman,serif" font-size="14.00">employee</text>
</g>
<!-- Entity46&#45;&gt;Entity61 -->
<g id="edge5" class="edge verb">
<title>Entity46&#45;&gt;Entity61</title>
<path fill="none" stroke="black" d="M4362.84,-1288.71C4271.42,-1254.71 4032.22,-1176.26 3924.29,-1144.64"/>
<polygon fill="black" stroke="black" points="3925.15,-1141.25 3914.57,-1141.82 3923.2,-1147.97 3925.15,-1141.25"/>
<text text-anchor="start" x="4089.56" y="-1205.48" font-family="Times New Roman,serif" font-size="14.00">employee</text>
</g>
<!-- Entity46&#45;&gt;Entity61 -->
<g id="edge6" class="edge verb">
<title>Entity46&#45;&gt;Entity61</title>
<path fill="none" stroke="black" d="M4346.31,-1291.61C4241.23,-1260.89 4008.44,-1184.64 3912.58,-1149.42"/>
<polygon fill="black" stroke="black" points="3913.52,-1146.04 3902.93,-1145.84 3911.09,-1152.6 3913.52,-1146.04"/>
<text text-anchor="start" x="4050.45" y="-1224.32" font-family="Times New Roman,serif" font-size="14.00">vice&#45;president</text>
</g>
<!-- Entity54 -->
<g id="node44" class="node entity">
<title>Entity54</title>
<ellipse fill="none" stroke="black" cx="4208.36" cy="-1841.6" rx="32.49" ry="18"/>
<text text-anchor="start" x="4191.36" y="-1837.9" font-family="Times New Roman,serif" font-size="14.00">nsdap</text>
</g>
<!-- Entity46&#45;&gt;Entity54 -->
<g id="edge44" class="edge verb">
<title>Entity46&#45;&gt;Entity54</title>
<path fill="none" stroke="black" d="M4392.87,-1322.7C4364.64,-1402.08 4252.09,-1718.62 4218.12,-1814.16"/>
<polygon fill="black" stroke="black" points="4214.78,-1813.1 4214.73,-1823.7 4221.37,-1815.45 4214.78,-1813.1"/>
<text text-anchor="start" x="4259.49" y="-1572.23" font-family="Times New Roman,serif" font-size="14.00">member</text>
</g>
<!-- Entity73 -->
<g id="node53" class="node entity">
<title>Entity73</title>
<ellipse fill="none" stroke="black" cx="4814.52" cy="-1145.48" rx="90.98" ry="18"/>
<text text-anchor="start" x="4752.52" y="-1141.78" font-family="Times New Roman,serif" font-size="14.00">nsdap rocket program</text>
</g>
<!-- Entity46&#45;&gt;Entity73 -->
<g id="edge52" class="edge verb">
<title>Entity46&#45;&gt;Entity73</title>
<path fill="none" stroke="black" d="M4439.14,-1289.28C4514.8,-1260.3 4679.25,-1197.3 4763.11,-1165.18"/>
<polygon fill="black" stroke="black" points="4764.59,-1168.35 4772.68,-1161.51 4762.09,-1161.82 4764.59,-1168.35"/>
<text text-anchor="start" x="4567.12" y="-1231.03" font-family="Times New Roman,serif" font-size="14.00">create</text>
</g>
<!-- Entity79 -->
<g id="node56" class="node entity">
<title>Entity79</title>
<ellipse fill="none" stroke="black" cx="5097.37" cy="-1254.32" rx="65.79" ry="18"/>
<text text-anchor="start" x="5054.87" y="-1250.62" font-family="Times New Roman,serif" font-size="14.00">x series aircraft</text>
</g>
<!-- Entity46&#45;&gt;Entity79 -->
<g id="edge54" class="edge verb">
<title>Entity46&#45;&gt;Entity79</title>
<path fill="none" stroke="black" d="M4471.08,-1299.37C4604.34,-1289.78 4888.71,-1269.33 5023.53,-1259.63"/>
<polygon fill="black" stroke="black" points="5024.04,-1263.11 5033.76,-1258.9 5023.53,-1256.12 5024.04,-1263.11"/>
<text text-anchor="start" x="4713.31" y="-1283.3" font-family="Times New Roman,serif" font-size="14.00">create</text>
</g>
<!-- Entity83 -->
<g id="node11" class="node entity">
<title>Entity83</title>
<ellipse fill="none" stroke="black" cx="2178.94" cy="-1900.66" rx="27" ry="18"/>
<text text-anchor="start" x="2168.94" y="-1896.96" font-family="Times New Roman,serif" font-size="14.00">foo</text>
</g>
<!-- Entity84 -->
<g id="node12" class="node entity">
<title>Entity84</title>
<ellipse fill="none" stroke="black" cx="2266.66" cy="-2012.64" rx="27" ry="18"/>
<text text-anchor="start" x="2256.66" y="-2008.94" font-family="Times New Roman,serif" font-size="14.00">baz</text>
</g>
<!-- Entity83&#45;&gt;Entity84 -->
<g id="edge8" class="edge verb">
<title>Entity83&#45;&gt;Entity84</title>
<path fill="none" stroke="black" d="M2191.51,-1916.7C2206.23,-1935.5 2230.76,-1966.82 2247.78,-1988.53"/>
<polygon fill="black" stroke="black" points="2245.19,-1990.91 2254.11,-1996.62 2250.7,-1986.59 2245.19,-1990.91"/>
<text text-anchor="start" x="2199.64" y="-1956.42" font-family="Times New Roman,serif" font-size="14.00">baz</text>
</g>
<!-- Entity18 -->
<g id="node13" class="node entity">
<title>Entity18</title>
<ellipse fill="none" stroke="black" cx="833.19" cy="-2080.53" rx="63.89" ry="18"/>
<text text-anchor="start" x="792.19" y="-2076.83" font-family="Times New Roman,serif" font-size="14.00">george w bush</text>
</g>
<!-- Entity18&#45;&gt;Entity60 -->
<g id="edge9" class="edge verb">
<title>Entity18&#45;&gt;Entity60</title>
<path fill="none" stroke="black" d="M849.2,-2098.38C900.34,-2155.41 1059.8,-2333.23 1117.69,-2397.78"/>
<polygon fill="black" stroke="black" points="1115.26,-2400.31 1124.54,-2405.42 1120.47,-2395.64 1115.26,-2400.31"/>
<text text-anchor="start" x="973.44" y="-2251.88" font-family="Times New Roman,serif" font-size="14.00">is</text>
</g>
<!-- Entity11 -->
<g id="node14" class="node entity">
<title>Entity11</title>
<ellipse fill="none" stroke="black" cx="1409.32" cy="-3011.62" rx="59.59" ry="18"/>
<text text-anchor="start" x="1371.32" y="-3007.92" font-family="Times New Roman,serif" font-size="14.00">donald trump</text>
</g>
<!-- Entity11&#45;&gt;Entity60 -->
<g id="edge10" class="edge verb">
<title>Entity11&#45;&gt;Entity60</title>
<path fill="none" stroke="black" d="M1401.08,-2993.64C1362.28,-2908.95 1197.74,-2549.81 1151.24,-2448.31"/>
<polygon fill="black" stroke="black" points="1154.34,-2446.68 1147,-2439.05 1147.98,-2449.59 1154.34,-2446.68"/>
<text text-anchor="start" x="1266.16" y="-2724.77" font-family="Times New Roman,serif" font-size="14.00">is</text>
</g>
<!-- Entity35 -->
<g id="node36" class="node entity">
<title>Entity35</title>
<ellipse fill="none" stroke="black" cx="1968.39" cy="-2655.93" rx="50.09" ry="18"/>
<text text-anchor="start" x="1937.89" y="-2652.23" font-family="Times New Roman,serif" font-size="14.00">john trump</text>
</g>
<!-- Entity11&#45;&gt;Entity35 -->
<g id="edge39" class="edge verb">
<title>Entity11&#45;&gt;Entity35</title>
<path fill="none" stroke="black" d="M1435.16,-2995.18C1526.26,-2937.22 1832.43,-2742.43 1934.76,-2677.32"/>
<polygon fill="black" stroke="black" points="1936.9,-2680.11 1943.45,-2671.79 1933.14,-2674.21 1936.9,-2680.11"/>
<text text-anchor="start" x="1641.96" y="-2840.05" font-family="Times New Roman,serif" font-size="14.00">nephew</text>
</g>
<!-- Entity9 -->
<g id="node15" class="node entity">
<title>Entity9</title>
<ellipse fill="none" stroke="black" cx="636.75" cy="-2293.91" rx="56.59" ry="18"/>
<text text-anchor="start" x="601.25" y="-2290.21" font-family="Times New Roman,serif" font-size="14.00">harry truman</text>
</g>
<!-- Entity9&#45;&gt;Entity60 -->
<g id="edge11" class="edge verb">
<title>Entity9&#45;&gt;Entity60</title>
<path fill="none" stroke="black" d="M681.32,-2305.23C778.63,-2329.95 1008.73,-2388.41 1100.34,-2411.68"/>
<polygon fill="black" stroke="black" points="1099.75,-2415.14 1110.3,-2414.21 1101.47,-2408.36 1099.75,-2415.14"/>
<text text-anchor="start" x="880.83" y="-2362.26" font-family="Times New Roman,serif" font-size="14.00">is</text>
</g>
<!-- Entity59 -->
<g id="node59" class="node entity">
<title>Entity59</title>
<ellipse fill="none" stroke="black" cx="114.22" cy="-2192.61" rx="55.79" ry="18"/>
<text text-anchor="start" x="79.22" y="-2188.91" font-family="Times New Roman,serif" font-size="14.00">freemasonry</text>
</g>
<!-- Entity9&#45;&gt;Entity59 -->
<g id="edge62" class="edge verb">
<title>Entity9&#45;&gt;Entity59</title>
<path fill="none" stroke="black" d="M588.06,-2284.47C491.46,-2265.74 275.93,-2223.96 172.2,-2203.85"/>
<polygon fill="black" stroke="black" points="172.7,-2200.38 162.21,-2201.92 171.36,-2207.26 172.7,-2200.38"/>
<text text-anchor="start" x="334.13" y="-2247.96" font-family="Times New Roman,serif" font-size="14.00">member</text>
</g>
<!-- Entity13 -->
<g id="node16" class="node entity">
<title>Entity13</title>
<ellipse fill="none" stroke="black" cx="720.44" cy="-2466.54" rx="58.49" ry="18"/>
<text text-anchor="start" x="683.44" y="-2462.84" font-family="Times New Roman,serif" font-size="14.00">richard nixon</text>
</g>
<!-- Entity13&#45;&gt;Entity60 -->
<g id="edge12" class="edge verb">
<title>Entity13&#45;&gt;Entity60</title>
<path fill="none" stroke="black" d="M776.01,-2460.56C861.38,-2451.37 1022.81,-2433.99 1098.22,-2425.87"/>
<polygon fill="black" stroke="black" points="1098.7,-2429.34 1108.27,-2424.79 1097.95,-2422.38 1098.7,-2429.34"/>
<text text-anchor="start" x="927.12" y="-2447.02" font-family="Times New Roman,serif" font-size="14.00">is</text>
</g>
<!-- Entity14 -->
<g id="node17" class="node entity">
<title>Entity14</title>
<ellipse fill="none" stroke="black" cx="1587.79" cy="-2434.53" rx="31.4" ry="18"/>
<text text-anchor="start" x="1571.79" y="-2430.83" font-family="Times New Roman,serif" font-size="14.00">carter</text>
</g>
<!-- Entity14&#45;&gt;Entity60 -->
<g id="edge13" class="edge verb">
<title>Entity14&#45;&gt;Entity60</title>
<path fill="none" stroke="black" d="M1556.58,-2433.63C1477.51,-2431.33 1269.25,-2425.28 1180.24,-2422.69"/>
<polygon fill="black" stroke="black" points="1180.35,-2419.19 1170.25,-2422.4 1180.14,-2426.19 1180.35,-2419.19"/>
<text text-anchor="start" x="1358.41" y="-2431.96" font-family="Times New Roman,serif" font-size="14.00">is</text>
</g>
<!-- Entity64 -->
<g id="node18" class="node entity">
<title>Entity64</title>
<ellipse fill="none" stroke="black" cx="2025.3" cy="-2425.47" rx="27" ry="18"/>
<text text-anchor="start" x="2015.8" y="-2421.77" font-family="Times New Roman,serif" font-size="14.00">ufo</text>
</g>
<!-- Entity14&#45;&gt;Entity64 -->
<g id="edge14" class="edge verb">
<title>Entity14&#45;&gt;Entity64</title>
<path fill="none" stroke="black" d="M1619.25,-2433.88C1697.98,-2432.25 1903.23,-2428 1987.92,-2426.25"/>
<polygon fill="black" stroke="black" points="1988.18,-2429.74 1998.11,-2426.03 1988.04,-2422.74 1988.18,-2429.74"/>
<text text-anchor="start" x="1761.59" y="-2433.86" font-family="Times New Roman,serif" font-size="14.00">witness</text>
</g>
<!-- Entity17 -->
<g id="node19" class="node entity">
<title>Entity17</title>
<ellipse fill="none" stroke="black" cx="835.12" cy="-2708.75" rx="35.19" ry="18"/>
<text text-anchor="start" x="816.12" y="-2705.05" font-family="Times New Roman,serif" font-size="14.00">obama</text>
</g>
<!-- Entity17&#45;&gt;Entity60 -->
<g id="edge15" class="edge verb">
<title>Entity17&#45;&gt;Entity60</title>
<path fill="none" stroke="black" d="M851.89,-2692.9C902.85,-2644.72 1056,-2499.92 1115.22,-2443.93"/>
<polygon fill="black" stroke="black" points="1117.74,-2446.36 1122.61,-2436.94 1112.94,-2441.27 1117.74,-2446.36"/>
<text text-anchor="start" x="973.55" y="-2572.21" font-family="Times New Roman,serif" font-size="14.00">is</text>
</g>
<!-- Entity10 -->
<g id="node20" class="node entity">
<title>Entity10</title>
<ellipse fill="none" stroke="black" cx="815.99" cy="-1972.54" rx="68.49" ry="18"/>
<text text-anchor="start" x="771.49" y="-1968.84" font-family="Times New Roman,serif" font-size="14.00">george hw bush</text>
</g>
<!-- Entity10&#45;&gt;Entity60 -->
<g id="edge16" class="edge verb">
<title>Entity10&#45;&gt;Entity60</title>
<path fill="none" stroke="black" d="M828.85,-1990.41C879.11,-2060.28 1062.36,-2315.01 1120.87,-2396.35"/>
<polygon fill="black" stroke="black" points="1118.07,-2398.46 1126.75,-2404.53 1123.75,-2394.37 1118.07,-2398.46"/>
<text text-anchor="start" x="964.86" y="-2197.18" font-family="Times New Roman,serif" font-size="14.00">is</text>
</g>
<!-- Entity10&#45;&gt;Entity18 -->
<g id="edge30" class="edge verb">
<title>Entity10&#45;&gt;Entity18</title>
<path fill="none" stroke="black" d="M818.91,-1990.86C821.59,-2007.71 825.61,-2032.97 828.7,-2052.38"/>
<polygon fill="black" stroke="black" points="825.28,-2053.16 830.31,-2062.48 832.2,-2052.05 825.28,-2053.16"/>
<text text-anchor="start" x="791.81" y="-2025.42" font-family="Times New Roman,serif" font-size="14.00">father</text>
</g>
<!-- Entity26 -->
<g id="node21" class="node entity">
<title>Entity26</title>
<ellipse fill="none" stroke="black" cx="1788.31" cy="-895.69" rx="58.49" ry="18"/>
<text text-anchor="start" x="1751.31" y="-891.99" font-family="Times New Roman,serif" font-size="14.00">rudolf steiner</text>
</g>
<!-- Entity68 -->
<g id="node22" class="node entity">
<title>Entity68</title>
<ellipse fill="none" stroke="black" cx="1800.52" cy="-787.74" rx="102.08" ry="18"/>
<text text-anchor="start" x="1730.02" y="-784.04" font-family="Times New Roman,serif" font-size="14.00">anthroposophical society</text>
</g>
<!-- Entity26&#45;&gt;Entity68 -->
<g id="edge17" class="edge verb">
<title>Entity26&#45;&gt;Entity68</title>
<path fill="none" stroke="black" d="M1790.39,-877.37C1792.29,-860.53 1795.15,-835.28 1797.34,-815.88"/>
<polygon fill="black" stroke="black" points="1800.84,-816.11 1798.48,-805.78 1793.88,-815.33 1800.84,-816.11"/>
<text text-anchor="start" x="1759.86" y="-850.43" font-family="Times New Roman,serif" font-size="14.00">create</text>
</g>
<!-- Entity66 -->
<g id="node25" class="node entity">
<title>Entity66</title>
<ellipse fill="none" stroke="black" cx="1176.54" cy="-878.17" rx="85.29" ry="18"/>
<text text-anchor="start" x="1119.04" y="-874.47" font-family="Times New Roman,serif" font-size="14.00">theosophical society</text>
</g>
<!-- Entity26&#45;&gt;Entity66 -->
<g id="edge22" class="edge verb">
<title>Entity26&#45;&gt;Entity66</title>
<path fill="none" stroke="black" d="M1729.93,-894.01C1624.01,-890.98 1399.31,-884.55 1271.2,-880.88"/>
<polygon fill="black" stroke="black" points="1271.11,-877.38 1261.01,-880.59 1270.91,-884.38 1271.11,-877.38"/>
<text text-anchor="start" x="1454.57" y="-891.25" font-family="Times New Roman,serif" font-size="14.00">member</text>
</g>
<!-- Entity22 -->
<g id="node23" class="node entity">
<title>Entity22</title>
<ellipse fill="none" stroke="black" cx="2283.66" cy="-2196.71" rx="27" ry="18"/>
<text text-anchor="start" x="2275.66" y="-2193.01" font-family="Times New Roman,serif" font-size="14.00">cia</text>
</g>
<!-- Entity22&#45;&gt;Entity64 -->
<g id="edge18" class="edge verb">
<title>Entity22&#45;&gt;Entity64</title>
<path fill="none" stroke="black" d="M2267.11,-2211.37C2222.81,-2250.59 2101.43,-2358.07 2049.44,-2404.1"/>
<polygon fill="black" stroke="black" points="2046.89,-2401.69 2041.72,-2410.94 2051.53,-2406.93 2046.89,-2401.69"/>
<text text-anchor="start" x="2094.28" y="-2296.53" font-family="Times New Roman,serif" font-size="14.00">investigates</text>
</g>
<!-- Entity22&#45;&gt;Entity58 -->
<g id="edge63" class="edge verb">
<title>Entity22&#45;&gt;Entity58</title>
<path fill="none" stroke="black" d="M2295.41,-2180.48C2352.47,-2101.58 2600.95,-1758.01 2671.78,-1660.07"/>
<polygon fill="black" stroke="black" points="2674.68,-1662.04 2677.7,-1651.89 2669,-1657.94 2674.68,-1662.04"/>
<text text-anchor="start" x="2419.59" y="-1924.07" font-family="Times New Roman,serif" font-size="14.00">investigates</text>
</g>
<!-- Entity28 -->
<g id="node24" class="node entity">
<title>Entity28</title>
<ellipse fill="none" stroke="black" cx="990.43" cy="-234.9" rx="73.39" ry="18"/>
<text text-anchor="start" x="941.93" y="-231.2" font-family="Times New Roman,serif" font-size="14.00">madam blavatsky</text>
</g>
<!-- Entity28&#45;&gt;Entity66 -->
<g id="edge19" class="edge verb">
<title>Entity28&#45;&gt;Entity66</title>
<path fill="none" stroke="black" d="M995.7,-253.11C1021.77,-343.24 1136.98,-741.45 1168.53,-850.49"/>
<polygon fill="black" stroke="black" points="1165.17,-851.48 1171.31,-860.12 1171.89,-849.54 1165.17,-851.48"/>
<text text-anchor="start" x="1048.11" y="-555.6" font-family="Times New Roman,serif" font-size="14.00">create</text>
</g>
<!-- Entity24 -->
<g id="node26" class="node entity">
<title>Entity24</title>
<ellipse fill="none" stroke="black" cx="1155.02" cy="-2602.76" rx="71.49" ry="18"/>
<text text-anchor="start" x="1108.02" y="-2599.06" font-family="Times New Roman,serif" font-size="14.00">woodrow wilson</text>
</g>
<!-- Entity24&#45;&gt;Entity60 -->
<g id="edge21" class="edge verb">
<title>Entity24&#45;&gt;Entity60</title>
<path fill="none" stroke="black" d="M1153.42,-2584.71C1150.63,-2553.17 1144.83,-2487.78 1141.48,-2450.04"/>
<polygon fill="black" stroke="black" points="1144.94,-2449.38 1140.57,-2439.73 1137.97,-2450 1144.94,-2449.38"/>
<text text-anchor="start" x="1137.45" y="-2521.18" font-family="Times New Roman,serif" font-size="14.00">is</text>
</g>
<!-- Entity67 -->
<g id="node27" class="node entity">
<title>Entity67</title>
<ellipse fill="none" stroke="black" cx="743.77" cy="-3072.5" rx="71.49" ry="18"/>
<text text-anchor="start" x="696.77" y="-3068.8" font-family="Times New Roman,serif" font-size="14.00">leauge of nations</text>
</g>
<!-- Entity24&#45;&gt;Entity67 -->
<g id="edge20" class="edge verb">
<title>Entity24&#45;&gt;Entity67</title>
<path fill="none" stroke="black" d="M1139.4,-2620.6C1076.3,-2692.68 840,-2962.58 766.05,-3047.06"/>
<polygon fill="black" stroke="black" points="763.36,-3044.82 759.41,-3054.65 768.63,-3049.43 763.36,-3044.82"/>
<text text-anchor="start" x="918.72" y="-2837.63" font-family="Times New Roman,serif" font-size="14.00">create</text>
</g>
<!-- Entity29 -->
<g id="node28" class="node entity">
<title>Entity29</title>
<ellipse fill="none" stroke="black" cx="1269.67" cy="-3780.98" rx="58.49" ry="18"/>
<text text-anchor="start" x="1232.67" y="-3777.28" font-family="Times New Roman,serif" font-size="14.00">steve bannon</text>
</g>
<!-- Entity29&#45;&gt;Entity11 -->
<g id="edge37" class="edge verb">
<title>Entity29&#45;&gt;Entity11</title>
<path fill="none" stroke="black" d="M1275.29,-3762.75C1299.65,-3661.09 1389.95,-3164.46 1406.95,-3039.96"/>
<polygon fill="black" stroke="black" points="1410.47,-3040.1 1408.29,-3029.73 1403.52,-3039.19 1410.47,-3040.1"/>
<text text-anchor="start" x="1293.12" y="-3405.16" font-family="Times New Roman,serif" font-size="14.00">promote</text>
</g>
<!-- Entity29&#45;&gt;Entity11 -->
<g id="edge40" class="edge verb">
<title>Entity29&#45;&gt;Entity11</title>
<path fill="none" stroke="black" d="M1270.72,-3762.69C1283.27,-3660.81 1373.4,-3163.29 1401.45,-3039.53"/>
<polygon fill="black" stroke="black" points="1404.89,-3040.22 1403.74,-3029.68 1398.07,-3038.63 1404.89,-3040.22"/>
<text text-anchor="start" x="1300.09" y="-3389.91" font-family="Times New Roman,serif" font-size="14.00">advise</text>
</g>
<!-- Entity74 -->
<g id="node29" class="node entity">
<title>Entity74</title>
<ellipse fill="none" stroke="black" cx="1174.89" cy="-4166.9" rx="38.19" ry="18"/>
<text text-anchor="start" x="1153.39" y="-4163.2" font-family="Times New Roman,serif" font-size="14.00">us navy</text>
</g>
<!-- Entity29&#45;&gt;Entity74 -->
<g id="edge23" class="edge verb">
<title>Entity29&#45;&gt;Entity74</title>
<path fill="none" stroke="black" d="M1265.22,-3799.07C1250.05,-3860.86 1200.22,-4063.78 1181.81,-4138.74"/>
<polygon fill="black" stroke="black" points="1178.31,-4138.29 1179.33,-4148.84 1185.11,-4139.96 1178.31,-4138.29"/>
<text text-anchor="start" x="1177.51" y="-3972.71" font-family="Times New Roman,serif" font-size="14.00">member</text>
</g>
<!-- Entity65 -->
<g id="node30" class="node entity">
<title>Entity65</title>
<ellipse fill="none" stroke="black" cx="1562.55" cy="-4107.82" rx="35.19" ry="18"/>
<text text-anchor="start" x="1543.55" y="-4104.12" font-family="Times New Roman,serif" font-size="14.00">gurgev</text>
</g>
<!-- Entity29&#45;&gt;Entity65 -->
<g id="edge24" class="edge verb">
<title>Entity29&#45;&gt;Entity65</title>
<path fill="none" stroke="black" d="M1285.41,-3798.55C1334.42,-3853.24 1484.34,-4020.54 1540.76,-4083.51"/>
<polygon fill="black" stroke="black" points="1538.5,-4086.23 1547.78,-4091.34 1543.71,-4081.56 1538.5,-4086.23"/>
<text text-anchor="start" x="1382.09" y="-3944.83" font-family="Times New Roman,serif" font-size="14.00">study</text>
</g>
<!-- Entity82 -->
<g id="node31" class="node entity">
<title>Entity82</title>
<ellipse fill="none" stroke="black" cx="904.24" cy="-4274.91" rx="77.19" ry="18"/>
<text text-anchor="start" x="852.74" y="-4271.21" font-family="Times New Roman,serif" font-size="14.00">hollywood movies</text>
</g>
<!-- Entity29&#45;&gt;Entity82 -->
<g id="edge26" class="edge verb">
<title>Entity29&#45;&gt;Entity82</title>
<path fill="none" stroke="black" d="M1256.66,-3798.56C1201.78,-3872.73 988.97,-4160.38 923.51,-4248.86"/>
<polygon fill="black" stroke="black" points="920.6,-4246.9 917.47,-4257.02 926.23,-4251.07 920.6,-4246.9"/>
<text text-anchor="start" x="1043.08" y="-4027.51" font-family="Times New Roman,serif" font-size="14.00">produce</text>
</g>
<!-- Entity76 -->
<g id="node32" class="node entity">
<title>Entity76</title>
<ellipse fill="none" stroke="black" cx="1446.19" cy="-4274.97" rx="53.09" ry="18"/>
<text text-anchor="start" x="1413.19" y="-4271.27" font-family="Times New Roman,serif" font-size="14.00">biosphere 2</text>
</g>
<!-- Entity29&#45;&gt;Entity76 -->
<g id="edge27" class="edge verb">
<title>Entity29&#45;&gt;Entity76</title>
<path fill="none" stroke="black" d="M1276.16,-3799.14C1302.84,-3873.81 1404.17,-4157.37 1436.33,-4247.37"/>
<polygon fill="black" stroke="black" points="1433.07,-4248.66 1439.73,-4256.9 1439.67,-4246.3 1433.07,-4248.66"/>
<text text-anchor="start" x="1322.25" y="-4027.06" font-family="Times New Roman,serif" font-size="14.00">create</text>
</g>
<!-- Entity69 -->
<g id="node33" class="node entity">
<title>Entity69</title>
<ellipse fill="none" stroke="black" cx="1178.07" cy="-4399.82" rx="61.99" ry="18"/>
<text text-anchor="start" x="1138.57" y="-4396.12" font-family="Times New Roman,serif" font-size="14.00">breitbart news</text>
</g>
<!-- Entity29&#45;&gt;Entity69 -->
<g id="edge28" class="edge verb">
<title>Entity29&#45;&gt;Entity69</title>
<path fill="none" stroke="black" d="M1266.98,-3799.16C1254.02,-3886.7 1198.06,-4264.78 1182.25,-4371.61"/>
<polygon fill="black" stroke="black" points="1178.77,-4371.23 1180.76,-4381.63 1185.69,-4372.25 1178.77,-4371.23"/>
<text text-anchor="start" x="1190.61" y="-4089.19" font-family="Times New Roman,serif" font-size="14.00">create</text>
</g>
<!-- Entity75 -->
<g id="node52" class="node entity">
<title>Entity75</title>
<ellipse fill="none" stroke="black" cx="804.79" cy="-4069.1" rx="64.99" ry="18"/>
<text text-anchor="start" x="762.79" y="-4065.4" font-family="Times New Roman,serif" font-size="14.00">goldman sachs</text>
</g>
<!-- Entity29&#45;&gt;Entity75 -->
<g id="edge51" class="edge verb">
<title>Entity29&#45;&gt;Entity75</title>
<path fill="none" stroke="black" d="M1243.34,-3797.29C1164.42,-3846.21 929.73,-3991.66 840.11,-4047.2"/>
<polygon fill="black" stroke="black" points="838.06,-4044.36 831.4,-4052.6 841.75,-4050.31 838.06,-4044.36"/>
<text text-anchor="start" x="987.73" y="-3926.05" font-family="Times New Roman,serif" font-size="14.00">employee</text>
</g>
<!-- Entity7 -->
<g id="node34" class="node entity">
<title>Entity7</title>
<ellipse fill="none" stroke="black" cx="2973.46" cy="-988.98" rx="68.49" ry="18"/>
<text text-anchor="start" x="2928.96" y="-985.28" font-family="Times New Roman,serif" font-size="14.00">jeffrey mishlove</text>
</g>
<!-- Entity7&#45;&gt;Entity2 -->
<g id="edge29" class="edge verb">
<title>Entity7&#45;&gt;Entity2</title>
<path fill="none" stroke="black" d="M2982.95,-971.05C3022,-897.22 3170.56,-616.41 3217.21,-528.24"/>
<polygon fill="black" stroke="black" points="3220.43,-529.63 3222.01,-519.15 3214.24,-526.36 3220.43,-529.63"/>
<text text-anchor="start" x="3052.08" y="-753.44" font-family="Times New Roman,serif" font-size="14.00">promote</text>
</g>
<!-- Entity7&#45;&gt;Entity58 -->
<g id="edge60" class="edge verb">
<title>Entity7&#45;&gt;Entity58</title>
<path fill="none" stroke="black" d="M2962.88,-1006.93C2917.46,-1096.72 2741.92,-1496.75 2699.69,-1606.18"/>
<polygon fill="black" stroke="black" points="2696.3,-1605.26 2696.03,-1615.85 2702.85,-1607.74 2696.3,-1605.26"/>
<text text-anchor="start" x="2800.28" y="-1310.36" font-family="Times New Roman,serif" font-size="14.00">study</text>
</g>
<!-- Entity7&#45;&gt;Entity58 -->
<g id="edge64" class="edge verb">
<title>Entity7&#45;&gt;Entity58</title>
<path fill="none" stroke="black" d="M2968.08,-1007.18C2934.52,-1097.72 2758.74,-1499.15 2705.68,-1607.12"/>
<polygon fill="black" stroke="black" points="2702.55,-1605.57 2701.22,-1616.08 2708.81,-1608.69 2702.55,-1605.57"/>
<text text-anchor="start" x="2836.88" y="-1310.95" font-family="Times New Roman,serif" font-size="14.00">investigates</text>
</g>
<!-- Entity40 -->
<g id="node35" class="node entity">
<title>Entity40</title>
<ellipse fill="none" stroke="black" cx="1098.21" cy="-1797.43" rx="67.69" ry="18"/>
<text text-anchor="start" x="1054.21" y="-1793.73" font-family="Times New Roman,serif" font-size="14.00">abraham lincoln</text>
</g>
<!-- Entity40&#45;&gt;Entity60 -->
<g id="edge31" class="edge verb">
<title>Entity40&#45;&gt;Entity60</title>
<path fill="none" stroke="black" d="M1099.39,-1815.44C1105.12,-1903.15 1130.1,-2285.88 1137.11,-2393.34"/>
<polygon fill="black" stroke="black" points="1133.63,-2393.66 1137.77,-2403.41 1140.61,-2393.21 1133.63,-2393.66"/>
<text text-anchor="start" x="1108.25" y="-2108.19" font-family="Times New Roman,serif" font-size="14.00">is</text>
</g>
<!-- Entity35&#45;&gt;Entity22 -->
<g id="edge38" class="edge verb">
<title>Entity35&#45;&gt;Entity22</title>
<path fill="none" stroke="black" d="M1980.55,-2638.21C2029.25,-2567.28 2210.2,-2303.71 2266.7,-2221.42"/>
<polygon fill="black" stroke="black" points="2269.59,-2223.39 2272.37,-2213.16 2263.82,-2219.43 2269.59,-2223.39"/>
<text text-anchor="start" x="2077.63" y="-2433.61" font-family="Times New Roman,serif" font-size="14.00">member</text>
</g>
<!-- Entity77 -->
<g id="node37" class="node entity">
<title>Entity77</title>
<ellipse fill="none" stroke="black" cx="2243.47" cy="-3037.52" rx="50.89" ry="18"/>
<text text-anchor="start" x="2212.47" y="-3033.82" font-family="Times New Roman,serif" font-size="14.00">nikola tesla</text>
</g>
<!-- Entity35&#45;&gt;Entity77 -->
<g id="edge32" class="edge verb">
<title>Entity35&#45;&gt;Entity77</title>
<path fill="none" stroke="black" d="M1981.1,-2673.57C2025.37,-2734.98 2172.88,-2939.59 2225.02,-3011.92"/>
<polygon fill="black" stroke="black" points="2222.2,-3014.01 2230.89,-3020.07 2227.88,-3009.91 2222.2,-3014.01"/>
<text text-anchor="start" x="2072.06" y="-2846.55" font-family="Times New Roman,serif" font-size="14.00">study</text>
</g>
<!-- Entity41 -->
<g id="node38" class="node entity">
<title>Entity41</title>
<ellipse fill="none" stroke="black" cx="1074.83" cy="-4972.27" rx="69.59" ry="18"/>
<text text-anchor="start" x="1029.33" y="-4968.57" font-family="Times New Roman,serif" font-size="14.00">andrew breitbart</text>
</g>
<!-- Entity41&#45;&gt;Entity69 -->
<g id="edge33" class="edge verb">
<title>Entity41&#45;&gt;Entity69</title>
<path fill="none" stroke="black" d="M1078.09,-4954.19C1093.01,-4871.49 1154.79,-4528.93 1173,-4427.95"/>
<polygon fill="black" stroke="black" points="1176.48,-4428.37 1174.81,-4417.9 1169.59,-4427.12 1176.48,-4428.37"/>
<text text-anchor="start" x="1091.55" y="-4694.87" font-family="Times New Roman,serif" font-size="14.00">create</text>
</g>
<!-- Entity38 -->
<g id="node39" class="node entity">
<title>Entity38</title>
<ellipse fill="none" stroke="black" cx="1086.05" cy="-986.23" rx="90.98" ry="18"/>
<text text-anchor="start" x="1024.05" y="-982.53" font-family="Times New Roman,serif" font-size="14.00">emma hardinge&#45;britten</text>
</g>
<!-- Entity38&#45;&gt;Entity66 -->
<g id="edge34" class="edge verb">
<title>Entity38&#45;&gt;Entity66</title>
<path fill="none" stroke="black" d="M1100.99,-968.39C1115.73,-950.79 1138.4,-923.72 1155.06,-903.82"/>
<polygon fill="black" stroke="black" points="1157.84,-905.96 1161.57,-896.04 1152.47,-901.46 1157.84,-905.96"/>
<text text-anchor="start" x="1094.03" y="-939.9" font-family="Times New Roman,serif" font-size="14.00">create</text>
</g>
<!-- Entity38&#45;&gt;Entity40 -->
<g id="edge41" class="edge verb">
<title>Entity38&#45;&gt;Entity40</title>
<path fill="none" stroke="black" d="M1086.32,-1004.31C1087.9,-1109.26 1095.85,-1639.89 1097.79,-1769.06"/>
<polygon fill="black" stroke="black" points="1094.29,-1769.36 1097.94,-1779.31 1101.29,-1769.26 1094.29,-1769.36"/>
<text text-anchor="start" x="1013.06" y="-1390.49" font-family="Times New Roman,serif" font-size="14.00">spokesperson</text>
</g>
<!-- Entity72 -->
<g id="node45" class="node entity">
<title>Entity72</title>
<ellipse fill="none" stroke="black" cx="726.83" cy="-465.08" rx="55.79" ry="18"/>
<text text-anchor="start" x="691.83" y="-461.38" font-family="Times New Roman,serif" font-size="14.00">orphic circle</text>
</g>
<!-- Entity38&#45;&gt;Entity72 -->
<g id="edge45" class="edge verb">
<title>Entity38&#45;&gt;Entity72</title>
<path fill="none" stroke="black" d="M1073.69,-968.29C1020.14,-890.61 808.11,-582.99 744.78,-491.13"/>
<polygon fill="black" stroke="black" points="747.52,-488.93 738.96,-482.68 741.76,-492.9 747.52,-488.93"/>
<text text-anchor="start" x="863.23" y="-733.51" font-family="Times New Roman,serif" font-size="14.00">member</text>
</g>
<!-- Entity78 -->
<g id="node51" class="node entity">
<title>Entity78</title>
<ellipse fill="none" stroke="black" cx="594.87" cy="-686.82" rx="39.79" ry="18"/>
<text text-anchor="start" x="572.37" y="-683.12" font-family="Times New Roman,serif" font-size="14.00">medium</text>
</g>
<!-- Entity38&#45;&gt;Entity78 -->
<g id="edge50" class="edge verb">
<title>Entity38&#45;&gt;Entity78</title>
<path fill="none" stroke="black" d="M1057.88,-969.06C972.74,-917.16 718.41,-762.13 627.57,-706.76"/>
<polygon fill="black" stroke="black" points="629.16,-703.63 618.8,-701.41 625.52,-709.6 629.16,-703.63"/>
<text text-anchor="start" x="832.72" y="-841.71" font-family="Times New Roman,serif" font-size="14.00">is</text>
</g>
<!-- Entity20 -->
<g id="node40" class="node entity">
<title>Entity20</title>
<ellipse fill="none" stroke="black" cx="2577.71" cy="-1091.67" rx="63.89" ry="18"/>
<text text-anchor="start" x="2536.71" y="-1087.97" font-family="Times New Roman,serif" font-size="14.00">robert bigelow</text>
</g>
<!-- Entity20&#45;&gt;Entity7 -->
<g id="edge35" class="edge verb">
<title>Entity20&#45;&gt;Entity7</title>
<path fill="none" stroke="black" d="M2624.66,-1079.48C2697.11,-1060.68 2836.03,-1024.64 2914.93,-1004.16"/>
<polygon fill="black" stroke="black" points="2915.91,-1007.52 2924.72,-1001.62 2914.16,-1000.75 2915.91,-1007.52"/>
<text text-anchor="start" x="2737.79" y="-1045.62" font-family="Times New Roman,serif" font-size="14.00">funds</text>
</g>
<!-- Entity20&#45;&gt;Entity58 -->
<g id="edge66" class="edge verb">
<title>Entity20&#45;&gt;Entity58</title>
<path fill="none" stroke="black" d="M2581.46,-1109.71C2598.04,-1189.24 2664.63,-1508.86 2684.85,-1605.87"/>
<polygon fill="black" stroke="black" points="2681.45,-1606.74 2686.92,-1615.81 2688.31,-1605.31 2681.45,-1606.74"/>
<text text-anchor="start" x="2569.16" y="-1361.59" font-family="Times New Roman,serif" font-size="14.00">investigates</text>
</g>
<!-- Entity31 -->
<g id="node41" class="node entity">
<title>Entity31</title>
<ellipse fill="none" stroke="black" cx="1122.86" cy="-2710.75" rx="53.89" ry="18"/>
<text text-anchor="start" x="1089.36" y="-2707.05" font-family="Times New Roman,serif" font-size="14.00">edgar casey</text>
</g>
<!-- Entity31&#45;&gt;Entity24 -->
<g id="edge36" class="edge verb">
<title>Entity31&#45;&gt;Entity24</title>
<path fill="none" stroke="black" d="M1128.31,-2692.43C1133.36,-2675.5 1140.93,-2650.08 1146.72,-2630.63"/>
<polygon fill="black" stroke="black" points="1150.15,-2631.39 1149.65,-2620.81 1143.44,-2629.39 1150.15,-2631.39"/>
<text text-anchor="start" x="1101.52" y="-2665.33" font-family="Times New Roman,serif" font-size="14.00">advise</text>
</g>
<!-- Entity45 -->
<g id="node42" class="node entity">
<title>Entity45</title>
<ellipse fill="none" stroke="black" cx="3267.94" cy="-1900.66" rx="39.79" ry="18"/>
<text text-anchor="start" x="3245.44" y="-1896.96" font-family="Times New Roman,serif" font-size="14.00">crowley</text>
</g>
<!-- Entity71 -->
<g id="node43" class="node entity">
<title>Entity71</title>
<ellipse fill="none" stroke="black" cx="3355.66" cy="-2012.64" rx="38.99" ry="18"/>
<text text-anchor="start" x="3333.66" y="-2008.94" font-family="Times New Roman,serif" font-size="14.00">x magic</text>
</g>
<!-- Entity45&#45;&gt;Entity71 -->
<g id="edge42" class="edge verb">
<title>Entity45&#45;&gt;Entity71</title>
<path fill="none" stroke="black" d="M3281.26,-1917.67C3295.82,-1936.25 3319.28,-1966.2 3335.96,-1987.49"/>
<polygon fill="black" stroke="black" points="3333.29,-1989.76 3342.21,-1995.47 3338.8,-1985.44 3333.29,-1989.76"/>
<text text-anchor="start" x="3262.61" y="-1956.38" font-family="Times New Roman,serif" font-size="14.00">member</text>
</g>
<!-- Entity80 -->
<g id="node57" class="node entity">
<title>Entity80</title>
<ellipse fill="none" stroke="black" cx="3797.44" cy="-2061.74" rx="38.99" ry="18"/>
<text text-anchor="start" x="3775.44" y="-2058.04" font-family="Times New Roman,serif" font-size="14.00">far right</text>
</g>
<!-- Entity54&#45;&gt;Entity80 -->
<g id="edge56" class="edge verb">
<title>Entity54&#45;&gt;Entity80</title>
<path fill="none" stroke="black" d="M4184.79,-1854.22C4115.66,-1891.26 3913.18,-1999.73 3831.84,-2043.31"/>
<polygon fill="black" stroke="black" points="3830.16,-2040.24 3822.99,-2048.05 3833.46,-2046.41 3830.16,-2040.24"/>
<text text-anchor="start" x="3962.32" y="-1952.57" font-family="Times New Roman,serif" font-size="14.00">member</text>
</g>
<!-- Entity47 -->
<g id="node46" class="node entity">
<title>Entity47</title>
<ellipse fill="none" stroke="black" cx="4761.97" cy="-1253.5" rx="46.29" ry="18"/>
<text text-anchor="start" x="4734.47" y="-1249.8" font-family="Times New Roman,serif" font-size="14.00">van braun</text>
</g>
<!-- Entity47&#45;&gt;Entity46 -->
<g id="edge46" class="edge verb">
<title>Entity47&#45;&gt;Entity46</title>
<path fill="none" stroke="black" d="M4718.23,-1259.65C4657.78,-1268.16 4547.83,-1283.63 4474.18,-1293.99"/>
<polygon fill="black" stroke="black" points="4473.45,-1290.56 4464.04,-1295.42 4474.43,-1297.49 4473.45,-1290.56"/>
<text text-anchor="start" x="4542.2" y="-1280.62" font-family="Times New Roman,serif" font-size="14.00">employee</text>
</g>
<!-- Entity47&#45;&gt;Entity73 -->
<g id="edge58" class="edge verb">
<title>Entity47&#45;&gt;Entity73</title>
<path fill="none" stroke="black" d="M4770.65,-1235.66C4778.97,-1218.56 4791.64,-1192.52 4801.23,-1172.81"/>
<polygon fill="black" stroke="black" points="4804.43,-1174.23 4805.65,-1163.71 4798.13,-1171.17 4804.43,-1174.23"/>
<text text-anchor="start" x="4731.94" y="-1208.03" font-family="Times New Roman,serif" font-size="14.00">employee</text>
</g>
<!-- Entity55 -->
<g id="node48" class="node entity">
<title>Entity55</title>
<ellipse fill="none" stroke="black" cx="37.46" cy="-2746.65" rx="37.89" ry="18"/>
<text text-anchor="start" x="16.46" y="-2742.95" font-family="Times New Roman,serif" font-size="14.00">hunt oil</text>
</g>
<!-- Entity53 -->
<g id="node49" class="node entity">
<title>Entity53</title>
<ellipse fill="none" stroke="black" cx="562.36" cy="-2600.76" rx="77.99" ry="18"/>
<text text-anchor="start" x="510.36" y="-2597.06" font-family="Times New Roman,serif" font-size="14.00">dwight eisenhower</text>
</g>
<!-- Entity55&#45;&gt;Entity53 -->
<g id="edge48" class="edge verb">
<title>Entity55&#45;&gt;Entity53</title>
<path fill="none" stroke="black" d="M70.29,-2737.52C156.78,-2713.48 391.84,-2648.16 502.82,-2617.31"/>
<polygon fill="black" stroke="black" points="503.83,-2620.67 512.53,-2614.62 501.95,-2613.92 503.83,-2620.67"/>
<text text-anchor="start" x="260.56" y="-2681.22" font-family="Times New Roman,serif" font-size="14.00">fund</text>
</g>
<!-- Entity53&#45;&gt;Entity60 -->
<g id="edge55" class="edge verb">
<title>Entity53&#45;&gt;Entity60</title>
<path fill="none" stroke="black" d="M609.06,-2586.25C720.51,-2551.59 1000.32,-2464.59 1101.61,-2433.1"/>
<polygon fill="black" stroke="black" points="1102.89,-2436.37 1111.4,-2430.06 1100.81,-2429.68 1102.89,-2436.37"/>
<text text-anchor="start" x="845.33" y="-2513.47" font-family="Times New Roman,serif" font-size="14.00">is</text>
</g>
<!-- Entity56&#45;&gt;Entity80 -->
<g id="edge57" class="edge verb">
<title>Entity56&#45;&gt;Entity80</title>
<path fill="none" stroke="black" d="M3288.01,-2204.95C3391.78,-2175.78 3651.28,-2102.83 3754.3,-2073.87"/>
<polygon fill="black" stroke="black" points="3755.38,-2077.2 3764.06,-2071.12 3753.49,-2070.46 3755.38,-2077.2"/>
<text text-anchor="start" x="3475.16" y="-2143.21" font-family="Times New Roman,serif" font-size="14.00">member</text>
</g>
<!-- Entity44 -->
<g id="node54" class="node entity">
<title>Entity44</title>
<ellipse fill="none" stroke="black" cx="3281.94" cy="-2707.66" rx="53.89" ry="18"/>
<text text-anchor="start" x="3248.44" y="-2703.96" font-family="Times New Roman,serif" font-size="14.00">black magic</text>
</g>
<!-- Entity70 -->
<g id="node55" class="node entity">
<title>Entity70</title>
<ellipse fill="none" stroke="black" cx="3369.66" cy="-2819.64" rx="28.7" ry="18"/>
<text text-anchor="start" x="3355.66" y="-2815.94" font-family="Times New Roman,serif" font-size="14.00">x left</text>
</g>
<!-- Entity44&#45;&gt;Entity70 -->
<g id="edge53" class="edge verb">
<title>Entity44&#45;&gt;Entity70</title>
<path fill="none" stroke="black" d="M3295.64,-2725.16C3310.45,-2744.05 3334.14,-2774.29 3350.72,-2795.45"/>
<polygon fill="black" stroke="black" points="3347.98,-2797.64 3356.9,-2803.36 3353.49,-2793.32 3347.98,-2797.64"/>
<text text-anchor="start" x="3277.18" y="-2764.11" font-family="Times New Roman,serif" font-size="14.00">member</text>
</g>
<!-- Entity57 -->
<g id="node60" class="node entity">
<title>Entity57</title>
<ellipse fill="none" stroke="black" cx="4577.45" cy="-2032.27" rx="49.29" ry="18"/>
<text text-anchor="start" x="4547.45" y="-2028.57" font-family="Times New Roman,serif" font-size="14.00">adolf hitler</text>
</g>
<!-- Entity57&#45;&gt;Entity54 -->
<g id="edge65" class="edge verb">
<title>Entity57&#45;&gt;Entity54</title>
<path fill="none" stroke="black" d="M4548.79,-2017.46C4481.36,-1982.63 4312.96,-1895.63 4241.38,-1858.66"/>
<polygon fill="black" stroke="black" points="4242.84,-1855.47 4232.35,-1853.99 4239.62,-1861.69 4242.84,-1855.47"/>
<text text-anchor="start" x="4361.09" y="-1941.86" font-family="Times New Roman,serif" font-size="14.00">create</text>
</g>
<!-- Entity3 -->
<g id="node61" class="node entity">
<title>Entity3</title>
<ellipse fill="none" stroke="black" cx="3823.77" cy="-306.37" rx="74.99" ry="18"/>
<text text-anchor="start" x="3774.27" y="-302.67" font-family="Times New Roman,serif" font-size="14.00">gene roddenberry</text>
</g>
<!-- Entity3&#45;&gt;Entity19 -->
<g id="edge67" class="edge verb">
<title>Entity3&#45;&gt;Entity19</title>
<path fill="none" stroke="black" d="M3811.33,-324.12C3764.49,-390.95 3598.66,-627.59 3543.43,-706.4"/>
<polygon fill="black" stroke="black" points="3540.42,-704.59 3537.55,-714.79 3546.15,-708.61 3540.42,-704.59"/>
<text text-anchor="start" x="3573.38" y="-519.06" font-family="Times New Roman,serif" font-size="14.00">claiemd to channel</text>
</g>
</g>
</svg>
