<?xml version="1.0" encoding="UTF-8" standalone="no"?>
<?xml-stylesheet href="../styles.css" type="text/css"?>
<!DOCTYPE svg PUBLIC "-//W3C//DTD SVG 1.1//EN"
 "http://www.w3.org/Graphics/SVG/1.1/DTD/svg11.dtd">
<!-- Generated by graphviz version 2.47.3 (20210619.1520)
 -->
<!-- Title: G Pages: 1 -->
<svg width="4376pt" height="5007pt"
 viewBox="0.00 0.00 4376.00 5007.00" xmlns="http://www.w3.org/2000/svg" xmlns:xlink="http://www.w3.org/1999/xlink">
<g id="graph0" class="graph" transform="scale(1 1) rotate(0) translate(4 5003)">
<title>G</title>
<polygon fill="white" stroke="transparent" points="-4,4 -4,-5003 4372,-5003 4372,4 -4,4"/>
<!-- Entity5 -->
<g id="node1" class="node entity">
<title>Entity5</title>
<ellipse fill="none" stroke="black" cx="426.04" cy="-3612.28" rx="74.99" ry="18"/>
<text text-anchor="start" x="376.54" y="-3608.58" font-family="Times New Roman,serif" font-size="14.00">gene roddenberry</text>
</g>
<!-- Entity8 -->
<g id="node2" class="node entity">
<title>Entity8</title>
<ellipse fill="none" stroke="black" cx="903.07" cy="-3820.31" rx="38.19" ry="18"/>
<text text-anchor="start" x="881.57" y="-3816.61" font-family="Times New Roman,serif" font-size="14.00">the nine</text>
</g>
<!-- Entity5&#45;&gt;Entity8 -->
<g id="edge1" class="edge verb">
<title>Entity5&#45;&gt;Entity8</title>
<path fill="none" stroke="black" d="M462.29,-3628.09C550.6,-3666.6 776.22,-3764.99 865.69,-3804.01"/>
<polygon fill="black" stroke="black" points="864.35,-3807.24 874.92,-3808.03 867.15,-3800.83 864.35,-3807.24"/>
<text text-anchor="start" x="559.99" y="-3719.85" font-family="Times New Roman,serif" font-size="14.00">claiemd to channel</text>
</g>
<!-- Entity60 -->
<g id="node26" class="node entity">
<title>Entity60</title>
<ellipse fill="none" stroke="black" cx="282.26" cy="-3783.57" rx="94.48" ry="18"/>
<text text-anchor="start" x="217.76" y="-3779.87" font-family="Times New Roman,serif" font-size="14.00">egyptian gods in a ship</text>
</g>
<!-- Entity8&#45;&gt;Entity60 -->
<g id="edge15" class="edge verb">
<title>Entity8&#45;&gt;Entity60</title>
<path fill="none" stroke="black" d="M864.7,-3818.04C769.99,-3812.43 522.62,-3797.79 382.62,-3789.51"/>
<polygon fill="black" stroke="black" points="382.5,-3785.99 372.32,-3788.9 382.09,-3792.98 382.5,-3785.99"/>
<text text-anchor="start" x="593.66" y="-3807.57" font-family="Times New Roman,serif" font-size="14.00">claim</text>
</g>
<!-- Entity14 -->
<g id="node3" class="node entity">
<title>Entity14</title>
<ellipse fill="none" stroke="black" cx="2559.38" cy="-2463.79" rx="64.19" ry="18"/>
<text text-anchor="start" x="2517.88" y="-2460.09" font-family="Times New Roman,serif" font-size="14.00">john f kennedy</text>
</g>
<!-- Entity57 -->
<g id="node4" class="node entity">
<title>Entity57</title>
<ellipse fill="none" stroke="black" cx="3105.06" cy="-2191.32" rx="31.4" ry="18"/>
<text text-anchor="start" x="3089.06" y="-2187.62" font-family="Times New Roman,serif" font-size="14.00">potus</text>
</g>
<!-- Entity14&#45;&gt;Entity57 -->
<g id="edge2" class="edge verb">
<title>Entity14&#45;&gt;Entity57</title>
<path fill="none" stroke="black" d="M2591.08,-2447.97C2687.17,-2399.99 2974.58,-2256.47 3072.2,-2207.73"/>
<polygon fill="black" stroke="black" points="3073.92,-2210.78 3081.3,-2203.18 3070.79,-2204.52 3073.92,-2210.78"/>
<text text-anchor="start" x="2821.64" y="-2331.65" font-family="Times New Roman,serif" font-size="14.00">is</text>
</g>
<!-- Entity2 -->
<g id="node5" class="node entity">
<title>Entity2</title>
<ellipse fill="none" stroke="black" cx="1880.87" cy="-2819.44" rx="75.29" ry="18"/>
<text text-anchor="start" x="1830.87" y="-2815.74" font-family="Times New Roman,serif" font-size="14.00">lee harvey oswald</text>
</g>
<!-- Entity2&#45;&gt;Entity14 -->
<g id="edge3" class="edge verb">
<title>Entity2&#45;&gt;Entity14</title>
<path fill="none" stroke="black" d="M1912.24,-2803C2023.11,-2744.88 2396.51,-2549.16 2519.63,-2484.63"/>
<polygon fill="black" stroke="black" points="2521.5,-2487.6 2528.74,-2479.86 2518.25,-2481.4 2521.5,-2487.6"/>
<text text-anchor="start" x="2153.93" y="-2647.61" font-family="Times New Roman,serif" font-size="14.00">assassinate</text>
</g>
<!-- Entity49 -->
<g id="node46" class="node entity">
<title>Entity49</title>
<ellipse fill="none" stroke="black" cx="1245.71" cy="-3174.46" rx="59.29" ry="18"/>
<text text-anchor="start" x="1208.21" y="-3170.76" font-family="Times New Roman,serif" font-size="14.00">guy bannister</text>
</g>
<!-- Entity2&#45;&gt;Entity49 -->
<g id="edge35" class="edge verb">
<title>Entity2&#45;&gt;Entity49</title>
<path fill="none" stroke="black" d="M1851.09,-2836.08C1746.85,-2894.35 1398.56,-3089.03 1283.19,-3153.51"/>
<polygon fill="black" stroke="black" points="1281.36,-3150.52 1274.34,-3158.46 1284.77,-3156.63 1281.36,-3150.52"/>
<text text-anchor="start" x="1513.14" y="-2998.6" font-family="Times New Roman,serif" font-size="14.00">employee</text>
</g>
<!-- Entity10 -->
<g id="node6" class="node entity">
<title>Entity10</title>
<ellipse fill="none" stroke="black" cx="3365.13" cy="-2574.57" rx="68.49" ry="18"/>
<text text-anchor="start" x="3320.63" y="-2570.87" font-family="Times New Roman,serif" font-size="14.00">george hw bush</text>
</g>
<!-- Entity10&#45;&gt;Entity57 -->
<g id="edge56" class="edge verb">
<title>Entity10&#45;&gt;Entity57</title>
<path fill="none" stroke="black" d="M3352.93,-2556.6C3310.85,-2494.58 3171.59,-2289.37 3122.43,-2216.92"/>
<polygon fill="black" stroke="black" points="3125.14,-2214.68 3116.63,-2208.37 3119.35,-2218.61 3125.14,-2214.68"/>
<text text-anchor="start" x="3227.68" y="-2390.56" font-family="Times New Roman,serif" font-size="14.00">is</text>
</g>
<!-- Entity16 -->
<g id="node7" class="node entity">
<title>Entity16</title>
<ellipse fill="none" stroke="black" cx="2969.27" cy="-2635.67" rx="63.89" ry="18"/>
<text text-anchor="start" x="2928.27" y="-2631.97" font-family="Times New Roman,serif" font-size="14.00">george w bush</text>
</g>
<!-- Entity10&#45;&gt;Entity16 -->
<g id="edge4" class="edge verb">
<title>Entity10&#45;&gt;Entity16</title>
<path fill="none" stroke="black" d="M3305.86,-2583.71C3233.46,-2594.89 3111.29,-2613.75 3035.75,-2625.41"/>
<polygon fill="black" stroke="black" points="3034.76,-2622.02 3025.41,-2627.01 3035.83,-2628.94 3034.76,-2622.02"/>
<text text-anchor="start" x="3138.81" y="-2608.36" font-family="Times New Roman,serif" font-size="14.00">father</text>
</g>
<!-- Entity16&#45;&gt;Entity57 -->
<g id="edge23" class="edge verb">
<title>Entity16&#45;&gt;Entity57</title>
<path fill="none" stroke="black" d="M2974.76,-2617.7C2995.74,-2549.04 3070.96,-2302.9 3096.5,-2219.32"/>
<polygon fill="black" stroke="black" points="3099.92,-2220.1 3099.5,-2209.51 3093.23,-2218.05 3099.92,-2220.1"/>
<text text-anchor="start" x="3025.63" y="-2422.31" font-family="Times New Roman,serif" font-size="14.00">is</text>
</g>
<!-- Entity50 -->
<g id="node8" class="node entity">
<title>Entity50</title>
<ellipse fill="none" stroke="black" cx="49.3" cy="-4035.82" rx="49.29" ry="18"/>
<text text-anchor="start" x="19.3" y="-4032.12" font-family="Times New Roman,serif" font-size="14.00">adolf hitler</text>
</g>
<!-- Entity53 -->
<g id="node9" class="node entity">
<title>Entity53</title>
<ellipse fill="none" stroke="black" cx="461.75" cy="-3891.57" rx="32.49" ry="18"/>
<text text-anchor="start" x="444.75" y="-3887.87" font-family="Times New Roman,serif" font-size="14.00">nsdap</text>
</g>
<!-- Entity50&#45;&gt;Entity53 -->
<g id="edge5" class="edge verb">
<title>Entity50&#45;&gt;Entity53</title>
<path fill="none" stroke="black" d="M85.18,-4023.27C162.8,-3996.12 345.67,-3932.17 424.51,-3904.6"/>
<polygon fill="black" stroke="black" points="425.75,-3907.87 434.04,-3901.27 423.44,-3901.26 425.75,-3907.87"/>
<text text-anchor="start" x="220.84" y="-3967.74" font-family="Times New Roman,serif" font-size="14.00">create</text>
</g>
<!-- Entity73 -->
<g id="node51" class="node entity">
<title>Entity73</title>
<ellipse fill="none" stroke="black" cx="774.99" cy="-3522.61" rx="38.99" ry="18"/>
<text text-anchor="start" x="752.99" y="-3518.91" font-family="Times New Roman,serif" font-size="14.00">far right</text>
</g>
<!-- Entity53&#45;&gt;Entity73 -->
<g id="edge46" class="edge verb">
<title>Entity53&#45;&gt;Entity73</title>
<path fill="none" stroke="black" d="M475.61,-3875.24C525.22,-3816.81 694.11,-3617.88 753.84,-3547.52"/>
<polygon fill="black" stroke="black" points="756.77,-3549.48 760.57,-3539.59 751.43,-3544.95 756.77,-3549.48"/>
<text text-anchor="start" x="568.73" y="-3700.18" font-family="Times New Roman,serif" font-size="14.00">member</text>
</g>
<!-- Entity7 -->
<g id="node10" class="node entity">
<title>Entity7</title>
<ellipse fill="none" stroke="black" cx="3519.31" cy="-2466.55" rx="56.59" ry="18"/>
<text text-anchor="start" x="3483.81" y="-2462.85" font-family="Times New Roman,serif" font-size="14.00">harry truman</text>
</g>
<!-- Entity7&#45;&gt;Entity57 -->
<g id="edge28" class="edge verb">
<title>Entity7&#45;&gt;Entity57</title>
<path fill="none" stroke="black" d="M3494.64,-2450.15C3422.35,-2402.13 3211.29,-2261.9 3133.92,-2210.5"/>
<polygon fill="black" stroke="black" points="3135.85,-2207.58 3125.59,-2204.96 3131.98,-2213.41 3135.85,-2207.58"/>
<text text-anchor="start" x="3304.28" y="-2334.13" font-family="Times New Roman,serif" font-size="14.00">is</text>
</g>
<!-- Entity55 -->
<g id="node11" class="node entity">
<title>Entity55</title>
<ellipse fill="none" stroke="black" cx="3925.49" cy="-2798.35" rx="55.79" ry="18"/>
<text text-anchor="start" x="3890.49" y="-2794.65" font-family="Times New Roman,serif" font-size="14.00">freemasonry</text>
</g>
<!-- Entity7&#45;&gt;Entity55 -->
<g id="edge6" class="edge verb">
<title>Entity7&#45;&gt;Entity55</title>
<path fill="none" stroke="black" d="M3540.01,-2483.46C3607.24,-2538.37 3819.55,-2711.81 3896.93,-2775.01"/>
<polygon fill="black" stroke="black" points="3894.87,-2777.86 3904.83,-2781.47 3899.3,-2772.43 3894.87,-2777.86"/>
<text text-anchor="start" x="3672.47" y="-2633.03" font-family="Times New Roman,serif" font-size="14.00">member</text>
</g>
<!-- Entity25 -->
<g id="node12" class="node entity">
<title>Entity25</title>
<ellipse fill="none" stroke="black" cx="2038.67" cy="-1442.03" rx="58.49" ry="18"/>
<text text-anchor="start" x="2001.67" y="-1438.33" font-family="Times New Roman,serif" font-size="14.00">steve bannon</text>
</g>
<!-- Entity64 -->
<g id="node13" class="node entity">
<title>Entity64</title>
<ellipse fill="none" stroke="black" cx="2155.1" cy="-1013.83" rx="35.19" ry="18"/>
<text text-anchor="start" x="2136.1" y="-1010.13" font-family="Times New Roman,serif" font-size="14.00">gurgev</text>
</g>
<!-- Entity25&#45;&gt;Entity64 -->
<g id="edge7" class="edge verb">
<title>Entity25&#45;&gt;Entity64</title>
<path fill="none" stroke="black" d="M2043.6,-1423.9C2061.83,-1356.87 2125.49,-1122.72 2147.52,-1041.68"/>
<polygon fill="black" stroke="black" points="2150.98,-1042.29 2150.23,-1031.72 2144.23,-1040.45 2150.98,-1042.29"/>
<text text-anchor="start" x="2064.56" y="-1236.59" font-family="Times New Roman,serif" font-size="14.00">study</text>
</g>
<!-- Entity65 -->
<g id="node14" class="node entity">
<title>Entity65</title>
<ellipse fill="none" stroke="black" cx="1634.36" cy="-958.69" rx="61.99" ry="18"/>
<text text-anchor="start" x="1594.86" y="-954.99" font-family="Times New Roman,serif" font-size="14.00">breitbart news</text>
</g>
<!-- Entity25&#45;&gt;Entity65 -->
<g id="edge8" class="edge verb">
<title>Entity25&#45;&gt;Entity65</title>
<path fill="none" stroke="black" d="M2024.04,-1424.54C1962.94,-1351.5 1727.97,-1070.59 1655.66,-984.15"/>
<polygon fill="black" stroke="black" points="1658.28,-981.83 1649.18,-976.4 1652.91,-986.32 1658.28,-981.83"/>
<text text-anchor="start" x="1805.85" y="-1208.15" font-family="Times New Roman,serif" font-size="14.00">create</text>
</g>
<!-- Entity13 -->
<g id="node15" class="node entity">
<title>Entity13</title>
<ellipse fill="none" stroke="black" cx="2511.84" cy="-1988.73" rx="59.59" ry="18"/>
<text text-anchor="start" x="2473.84" y="-1985.03" font-family="Times New Roman,serif" font-size="14.00">donald trump</text>
</g>
<!-- Entity25&#45;&gt;Entity13 -->
<g id="edge9" class="edge verb">
<title>Entity25&#45;&gt;Entity13</title>
<path fill="none" stroke="black" d="M2050.7,-1459.72C2113.08,-1540.15 2398.87,-1870.68 2486.38,-1964.09"/>
<polygon fill="black" stroke="black" points="2483.87,-1966.53 2493.28,-1971.39 2488.96,-1961.72 2483.87,-1966.53"/>
<text text-anchor="start" x="2232.54" y="-1715.71" font-family="Times New Roman,serif" font-size="14.00">advise</text>
</g>
<!-- Entity25&#45;&gt;Entity13 -->
<g id="edge21" class="edge verb">
<title>Entity25&#45;&gt;Entity13</title>
<path fill="none" stroke="black" d="M2057.27,-1459.4C2133.14,-1538.94 2417.84,-1867.74 2493.4,-1962.88"/>
<polygon fill="black" stroke="black" points="2490.73,-1965.14 2499.66,-1970.84 2496.23,-1960.82 2490.73,-1965.14"/>
<text text-anchor="start" x="2227.34" y="-1699.94" font-family="Times New Roman,serif" font-size="14.00">promote</text>
</g>
<!-- Entity75 -->
<g id="node31" class="node entity">
<title>Entity75</title>
<ellipse fill="none" stroke="black" cx="1934.61" cy="-991.09" rx="38.19" ry="18"/>
<text text-anchor="start" x="1913.11" y="-987.39" font-family="Times New Roman,serif" font-size="14.00">us navy</text>
</g>
<!-- Entity25&#45;&gt;Entity75 -->
<g id="edge18" class="edge verb">
<title>Entity25&#45;&gt;Entity75</title>
<path fill="none" stroke="black" d="M2034.53,-1424.07C2018.51,-1354.64 1960.53,-1103.41 1941.05,-1018.98"/>
<polygon fill="black" stroke="black" points="1944.43,-1018.05 1938.77,-1009.09 1937.6,-1019.63 1944.43,-1018.05"/>
<text text-anchor="start" x="1941.79" y="-1225.33" font-family="Times New Roman,serif" font-size="14.00">member</text>
</g>
<!-- Entity62 -->
<g id="node35" class="node entity">
<title>Entity62</title>
<ellipse fill="none" stroke="black" cx="1623.83" cy="-1158.56" rx="53.09" ry="18"/>
<text text-anchor="start" x="1590.83" y="-1154.86" font-family="Times New Roman,serif" font-size="14.00">biosphere 2</text>
</g>
<!-- Entity25&#45;&gt;Entity62 -->
<g id="edge24" class="edge verb">
<title>Entity25&#45;&gt;Entity62</title>
<path fill="none" stroke="black" d="M2014.58,-1425.56C1943.81,-1377.21 1736.54,-1235.58 1656.18,-1180.67"/>
<polygon fill="black" stroke="black" points="1657.71,-1177.47 1647.47,-1174.72 1653.76,-1183.25 1657.71,-1177.47"/>
<text text-anchor="start" x="1801.38" y="-1291.92" font-family="Times New Roman,serif" font-size="14.00">create</text>
</g>
<!-- Entity76 -->
<g id="node56" class="node entity">
<title>Entity76</title>
<ellipse fill="none" stroke="black" cx="1872.14" cy="-1334.07" rx="64.99" ry="18"/>
<text text-anchor="start" x="1830.14" y="-1330.37" font-family="Times New Roman,serif" font-size="14.00">goldman sachs</text>
</g>
<!-- Entity25&#45;&gt;Entity76 -->
<g id="edge47" class="edge verb">
<title>Entity25&#45;&gt;Entity76</title>
<path fill="none" stroke="black" d="M2013.38,-1425.63C1984.85,-1407.14 1938.3,-1376.96 1906.5,-1356.34"/>
<polygon fill="black" stroke="black" points="1908.24,-1353.3 1897.95,-1350.8 1904.43,-1359.17 1908.24,-1353.3"/>
<text text-anchor="start" x="1905.94" y="-1394.79" font-family="Times New Roman,serif" font-size="14.00">employee</text>
</g>
<!-- Entity79 -->
<g id="node59" class="node entity">
<title>Entity79</title>
<ellipse fill="none" stroke="black" cx="1445.19" cy="-1346.29" rx="77.19" ry="18"/>
<text text-anchor="start" x="1393.69" y="-1342.59" font-family="Times New Roman,serif" font-size="14.00">hollywood movies</text>
</g>
<!-- Entity25&#45;&gt;Entity79 -->
<g id="edge54" class="edge verb">
<title>Entity25&#45;&gt;Entity79</title>
<path fill="none" stroke="black" d="M1986.78,-1433.66C1881.16,-1416.62 1640.87,-1377.86 1519.01,-1358.2"/>
<polygon fill="black" stroke="black" points="1519.44,-1354.72 1509.01,-1356.59 1518.33,-1361.64 1519.44,-1354.72"/>
<text text-anchor="start" x="1705.89" y="-1399.73" font-family="Times New Roman,serif" font-size="14.00">produce</text>
</g>
<!-- Entity13&#45;&gt;Entity57 -->
<g id="edge41" class="edge verb">
<title>Entity13&#45;&gt;Entity57</title>
<path fill="none" stroke="black" d="M2551.68,-2002.34C2660.78,-2039.6 2963.2,-2142.87 3068.41,-2178.8"/>
<polygon fill="black" stroke="black" points="3067.37,-2182.15 3077.96,-2182.07 3069.63,-2175.52 3067.37,-2182.15"/>
<text text-anchor="start" x="2800.05" y="-2094.37" font-family="Times New Roman,serif" font-size="14.00">is</text>
</g>
<!-- Entity33 -->
<g id="node38" class="node entity">
<title>Entity33</title>
<ellipse fill="none" stroke="black" cx="2216.25" cy="-2523.56" rx="50.09" ry="18"/>
<text text-anchor="start" x="2185.75" y="-2519.86" font-family="Times New Roman,serif" font-size="14.00">john trump</text>
</g>
<!-- Entity13&#45;&gt;Entity33 -->
<g id="edge64" class="edge verb">
<title>Entity13&#45;&gt;Entity33</title>
<path fill="none" stroke="black" d="M2502.01,-2006.53C2458.52,-2085.21 2283.36,-2402.13 2231.06,-2496.76"/>
<polygon fill="black" stroke="black" points="2227.9,-2495.26 2226.12,-2505.7 2234.02,-2498.64 2227.9,-2495.26"/>
<text text-anchor="start" x="2323.54" y="-2255.44" font-family="Times New Roman,serif" font-size="14.00">nephew</text>
</g>
<!-- Entity44 -->
<g id="node16" class="node entity">
<title>Entity44</title>
<ellipse fill="none" stroke="black" cx="628.45" cy="-4330.52" rx="74.99" ry="18"/>
<text text-anchor="start" x="578.95" y="-4326.82" font-family="Times New Roman,serif" font-size="14.00">walter dornberger</text>
</g>
<!-- Entity44&#45;&gt;Entity53 -->
<g id="edge22" class="edge verb">
<title>Entity44&#45;&gt;Entity53</title>
<path fill="none" stroke="black" d="M621.6,-4312.49C595.67,-4244.2 503.33,-4001.07 472.14,-3918.92"/>
<polygon fill="black" stroke="black" points="475.38,-3917.61 468.56,-3909.51 468.84,-3920.1 475.38,-3917.61"/>
<text text-anchor="start" x="500.87" y="-4119.51" font-family="Times New Roman,serif" font-size="14.00">member</text>
</g>
<!-- Entity54 -->
<g id="node17" class="node entity">
<title>Entity54</title>
<ellipse fill="none" stroke="black" cx="1103.99" cy="-3939.76" rx="53.89" ry="18"/>
<text text-anchor="start" x="1070.49" y="-3936.06" font-family="Times New Roman,serif" font-size="14.00">bell aviation</text>
</g>
<!-- Entity44&#45;&gt;Entity54 -->
<g id="edge10" class="edge verb">
<title>Entity44&#45;&gt;Entity54</title>
<path fill="none" stroke="black" d="M654.03,-4313.57C737.13,-4251.43 998.39,-4036.82 1079.67,-3964.03"/>
<polygon fill="black" stroke="black" points="1082.32,-3966.35 1087.39,-3957.05 1077.62,-3961.16 1082.32,-3966.35"/>
<text text-anchor="start" x="787.85" y="-4142.6" font-family="Times New Roman,serif" font-size="14.00">vice&#45;president</text>
</g>
<!-- Entity44&#45;&gt;Entity54 -->
<g id="edge50" class="edge verb">
<title>Entity44&#45;&gt;Entity54</title>
<path fill="none" stroke="black" d="M645.57,-4312.75C715.37,-4248.97 978.49,-4032.48 1071.35,-3962.03"/>
<polygon fill="black" stroke="black" points="1073.65,-3964.67 1079.54,-3955.86 1069.44,-3959.08 1073.65,-3964.67"/>
<text text-anchor="start" x="804.46" y="-4126.19" font-family="Times New Roman,serif" font-size="14.00">employee</text>
</g>
<!-- Entity72 -->
<g id="node23" class="node entity">
<title>Entity72</title>
<ellipse fill="none" stroke="black" cx="1017.23" cy="-4981.48" rx="90.98" ry="18"/>
<text text-anchor="start" x="955.23" y="-4977.78" font-family="Times New Roman,serif" font-size="14.00">nsdap rocket program</text>
</g>
<!-- Entity44&#45;&gt;Entity72 -->
<g id="edge67" class="edge verb">
<title>Entity44&#45;&gt;Entity72</title>
<path fill="none" stroke="black" d="M639.25,-4348.61C693.53,-4439.49 936.42,-4846.18 1001.27,-4954.76"/>
<polygon fill="black" stroke="black" points="998.35,-4956.69 1006.48,-4963.48 1004.36,-4953.1 998.35,-4956.69"/>
<text text-anchor="start" x="786.26" y="-4640.48" font-family="Times New Roman,serif" font-size="14.00">create</text>
</g>
<!-- Entity74 -->
<g id="node55" class="node entity">
<title>Entity74</title>
<ellipse fill="none" stroke="black" cx="187.96" cy="-4769.04" rx="65.79" ry="18"/>
<text text-anchor="start" x="145.46" y="-4765.34" font-family="Times New Roman,serif" font-size="14.00">x series aircraft</text>
</g>
<!-- Entity44&#45;&gt;Entity74 -->
<g id="edge45" class="edge verb">
<title>Entity44&#45;&gt;Entity74</title>
<path fill="none" stroke="black" d="M610.64,-4348.25C541.72,-4416.86 292.45,-4665.01 212.69,-4744.42"/>
<polygon fill="black" stroke="black" points="210.13,-4742.03 205.51,-4751.56 215.07,-4746.99 210.13,-4742.03"/>
<text text-anchor="start" x="377.66" y="-4550.13" font-family="Times New Roman,serif" font-size="14.00">create</text>
</g>
<!-- Entity52 -->
<g id="node18" class="node entity">
<title>Entity52</title>
<ellipse fill="none" stroke="black" cx="4172.39" cy="-1857.61" rx="37.89" ry="18"/>
<text text-anchor="start" x="4151.39" y="-1853.91" font-family="Times New Roman,serif" font-size="14.00">hunt oil</text>
</g>
<!-- Entity45 -->
<g id="node19" class="node entity">
<title>Entity45</title>
<ellipse fill="none" stroke="black" cx="3664.36" cy="-2030.62" rx="77.99" ry="18"/>
<text text-anchor="start" x="3612.36" y="-2026.92" font-family="Times New Roman,serif" font-size="14.00">dwight eisenhower</text>
</g>
<!-- Entity52&#45;&gt;Entity45 -->
<g id="edge11" class="edge verb">
<title>Entity52&#45;&gt;Entity45</title>
<path fill="none" stroke="black" d="M4141.38,-1868.17C4057.19,-1896.84 3823.61,-1976.39 3717.74,-2012.44"/>
<polygon fill="black" stroke="black" points="3716.55,-2009.15 3708.21,-2015.69 3718.8,-2015.78 3716.55,-2009.15"/>
<text text-anchor="start" x="3903.56" y="-1944.11" font-family="Times New Roman,serif" font-size="14.00">fund</text>
</g>
<!-- Entity45&#45;&gt;Entity57 -->
<g id="edge51" class="edge verb">
<title>Entity45&#45;&gt;Entity57</title>
<path fill="none" stroke="black" d="M3615.22,-2044.74C3505.28,-2076.33 3241.46,-2152.13 3142.98,-2180.42"/>
<polygon fill="black" stroke="black" points="3141.81,-2177.12 3133.16,-2183.25 3143.74,-2183.85 3141.81,-2177.12"/>
<text text-anchor="start" x="3369.1" y="-2116.38" font-family="Times New Roman,serif" font-size="14.00">is</text>
</g>
<!-- Entity17 -->
<g id="node20" class="node entity">
<title>Entity17</title>
<ellipse fill="none" stroke="black" cx="2846.11" cy="-2522.29" rx="31.4" ry="18"/>
<text text-anchor="start" x="2830.11" y="-2518.59" font-family="Times New Roman,serif" font-size="14.00">carter</text>
</g>
<!-- Entity17&#45;&gt;Entity57 -->
<g id="edge52" class="edge verb">
<title>Entity17&#45;&gt;Entity57</title>
<path fill="none" stroke="black" d="M2858.95,-2505.88C2901.14,-2451.95 3035.67,-2280.01 3085.9,-2215.81"/>
<polygon fill="black" stroke="black" points="3088.73,-2217.86 3092.14,-2207.83 3083.22,-2213.55 3088.73,-2217.86"/>
<text text-anchor="start" x="2962.42" y="-2364.64" font-family="Times New Roman,serif" font-size="14.00">is</text>
</g>
<!-- Entity61 -->
<g id="node21" class="node entity">
<title>Entity61</title>
<ellipse fill="none" stroke="black" cx="2567.67" cy="-2818.49" rx="27" ry="18"/>
<text text-anchor="start" x="2558.17" y="-2814.79" font-family="Times New Roman,serif" font-size="14.00">ufo</text>
</g>
<!-- Entity17&#45;&gt;Entity61 -->
<g id="edge12" class="edge verb">
<title>Entity17&#45;&gt;Entity61</title>
<path fill="none" stroke="black" d="M2831.14,-2538.21C2784.75,-2587.56 2643.27,-2738.07 2589.09,-2795.7"/>
<polygon fill="black" stroke="black" points="2586.34,-2793.52 2582.04,-2803.2 2591.44,-2798.31 2586.34,-2793.52"/>
<text text-anchor="start" x="2668.11" y="-2670.76" font-family="Times New Roman,serif" font-size="14.00">witness</text>
</g>
<!-- Entity48 -->
<g id="node22" class="node entity">
<title>Entity48</title>
<ellipse fill="none" stroke="black" cx="859.95" cy="-4674.07" rx="46.29" ry="18"/>
<text text-anchor="start" x="832.45" y="-4670.37" font-family="Times New Roman,serif" font-size="14.00">van braun</text>
</g>
<!-- Entity48&#45;&gt;Entity44 -->
<g id="edge26" class="edge verb">
<title>Entity48&#45;&gt;Entity44</title>
<path fill="none" stroke="black" d="M848.15,-4656.56C810.24,-4600.29 691.34,-4423.84 646.13,-4356.76"/>
<polygon fill="black" stroke="black" points="648.99,-4354.74 640.5,-4348.4 643.19,-4358.65 648.99,-4354.74"/>
<text text-anchor="start" x="693.14" y="-4510.46" font-family="Times New Roman,serif" font-size="14.00">employee</text>
</g>
<!-- Entity48&#45;&gt;Entity72 -->
<g id="edge13" class="edge verb">
<title>Entity48&#45;&gt;Entity72</title>
<path fill="none" stroke="black" d="M869.09,-4691.93C895.41,-4743.38 971.56,-4892.21 1003.19,-4954.04"/>
<polygon fill="black" stroke="black" points="1000.2,-4955.88 1007.87,-4963.19 1006.43,-4952.69 1000.2,-4955.88"/>
<text text-anchor="start" x="882.14" y="-4826.78" font-family="Times New Roman,serif" font-size="14.00">employee</text>
</g>
<!-- Entity4 -->
<g id="node24" class="node entity">
<title>Entity4</title>
<ellipse fill="none" stroke="black" cx="742.84" cy="-4000" rx="64.19" ry="18"/>
<text text-anchor="start" x="701.34" y="-3996.3" font-family="Times New Roman,serif" font-size="14.00">andre puharich</text>
</g>
<!-- Entity1 -->
<g id="node25" class="node entity">
<title>Entity1</title>
<ellipse fill="none" stroke="black" cx="1271.58" cy="-3821.79" rx="41.69" ry="18"/>
<text text-anchor="start" x="1247.58" y="-3818.09" font-family="Times New Roman,serif" font-size="14.00">uri geller</text>
</g>
<!-- Entity4&#45;&gt;Entity1 -->
<g id="edge14" class="edge verb">
<title>Entity4&#45;&gt;Entity1</title>
<path fill="none" stroke="black" d="M784.33,-3986.01C882.71,-3952.86 1129.34,-3869.73 1228.91,-3836.17"/>
<polygon fill="black" stroke="black" points="1230.28,-3839.41 1238.63,-3832.9 1228.04,-3832.77 1230.28,-3839.41"/>
<text text-anchor="start" x="954.62" y="-3914.89" font-family="Times New Roman,serif" font-size="14.00">sponsore</text>
</g>
<!-- Entity1&#45;&gt;Entity8 -->
<g id="edge60" class="edge verb">
<title>Entity1&#45;&gt;Entity8</title>
<path fill="none" stroke="black" d="M1229.67,-3821.62C1160.98,-3821.35 1024.82,-3820.8 951.89,-3820.5"/>
<polygon fill="black" stroke="black" points="951.62,-3817 941.6,-3820.46 951.59,-3824 951.62,-3817"/>
<text text-anchor="start" x="986.78" y="-3824.86" font-family="Times New Roman,serif" font-size="14.00">claiemd to channel</text>
</g>
<!-- Entity21 -->
<g id="node27" class="node entity">
<title>Entity21</title>
<ellipse fill="none" stroke="black" cx="2127.85" cy="-4096.04" rx="63.89" ry="18"/>
<text text-anchor="start" x="2086.85" y="-4092.34" font-family="Times New Roman,serif" font-size="14.00">robert bigelow</text>
</g>
<!-- Entity6 -->
<g id="node28" class="node entity">
<title>Entity6</title>
<ellipse fill="none" stroke="black" cx="1830.24" cy="-3666.76" rx="68.49" ry="18"/>
<text text-anchor="start" x="1785.74" y="-3663.06" font-family="Times New Roman,serif" font-size="14.00">jeffrey mishlove</text>
</g>
<!-- Entity21&#45;&gt;Entity6 -->
<g id="edge16" class="edge verb">
<title>Entity21&#45;&gt;Entity6</title>
<path fill="none" stroke="black" d="M2115.44,-4078.14C2068.83,-4010.91 1904.07,-3773.26 1848.61,-3693.26"/>
<polygon fill="black" stroke="black" points="1851.27,-3690.96 1842.7,-3684.74 1845.52,-3694.95 1851.27,-3690.96"/>
<text text-anchor="start" x="1950.02" y="-3889.5" font-family="Times New Roman,serif" font-size="14.00">funds</text>
</g>
<!-- Entity56 -->
<g id="node42" class="node entity">
<title>Entity56</title>
<ellipse fill="none" stroke="black" cx="1944.2" cy="-3558.79" rx="77.19" ry="18"/>
<text text-anchor="start" x="1892.7" y="-3555.09" font-family="Times New Roman,serif" font-size="14.00">psi&#45;consciousness</text>
</g>
<!-- Entity21&#45;&gt;Entity56 -->
<g id="edge48" class="edge verb">
<title>Entity21&#45;&gt;Entity56</title>
<path fill="none" stroke="black" d="M2121.63,-4077.86C2094.52,-3998.54 1986.49,-3682.51 1953.7,-3586.56"/>
<polygon fill="black" stroke="black" points="1956.96,-3585.3 1950.42,-3576.97 1950.34,-3587.56 1956.96,-3585.3"/>
<text text-anchor="start" x="1973.66" y="-3836.01" font-family="Times New Roman,serif" font-size="14.00">investigates</text>
</g>
<!-- Entity6&#45;&gt;Entity1 -->
<g id="edge61" class="edge verb">
<title>Entity6&#45;&gt;Entity1</title>
<path fill="none" stroke="black" d="M1783.09,-3679.85C1677.06,-3709.27 1420.95,-3780.34 1316.79,-3809.25"/>
<polygon fill="black" stroke="black" points="1315.6,-3805.94 1306.9,-3811.99 1317.47,-3812.69 1315.6,-3805.94"/>
<text text-anchor="start" x="1501.94" y="-3748.35" font-family="Times New Roman,serif" font-size="14.00">promote</text>
</g>
<!-- Entity6&#45;&gt;Entity56 -->
<g id="edge31" class="edge verb">
<title>Entity6&#45;&gt;Entity56</title>
<path fill="none" stroke="black" d="M1855.96,-3649.91C1877,-3632.31 1906.17,-3604.72 1925.17,-3584.44"/>
<polygon fill="black" stroke="black" points="1927.99,-3586.54 1932.15,-3576.79 1922.82,-3581.82 1927.99,-3586.54"/>
<text text-anchor="start" x="1826.57" y="-3620.97" font-family="Times New Roman,serif" font-size="14.00">investigates</text>
</g>
<!-- Entity6&#45;&gt;Entity56 -->
<g id="edge63" class="edge verb">
<title>Entity6&#45;&gt;Entity56</title>
<path fill="none" stroke="black" d="M1842.31,-3648.72C1858.47,-3630.51 1887.46,-3602.48 1910.44,-3582.51"/>
<polygon fill="black" stroke="black" points="1912.95,-3584.96 1918.28,-3575.8 1908.41,-3579.64 1912.95,-3584.96"/>
<text text-anchor="start" x="1845.38" y="-3604.41" font-family="Times New Roman,serif" font-size="14.00">study</text>
</g>
<!-- Entity29 -->
<g id="node29" class="node entity">
<title>Entity29</title>
<ellipse fill="none" stroke="black" cx="3783.31" cy="-113.26" rx="73.39" ry="18"/>
<text text-anchor="start" x="3734.81" y="-109.56" font-family="Times New Roman,serif" font-size="14.00">madam blavatsky</text>
</g>
<!-- Entity63 -->
<g id="node30" class="node entity">
<title>Entity63</title>
<ellipse fill="none" stroke="black" cx="3522.94" cy="-734.89" rx="85.29" ry="18"/>
<text text-anchor="start" x="3465.44" y="-731.19" font-family="Times New Roman,serif" font-size="14.00">theosophical society</text>
</g>
<!-- Entity29&#45;&gt;Entity63 -->
<g id="edge17" class="edge verb">
<title>Entity29&#45;&gt;Entity63</title>
<path fill="none" stroke="black" d="M3775.8,-131.19C3739.13,-218.74 3578.87,-601.34 3534.41,-707.49"/>
<polygon fill="black" stroke="black" points="3531.11,-706.31 3530.48,-716.88 3537.57,-709.01 3531.11,-706.31"/>
<text text-anchor="start" x="3621.11" y="-423.14" font-family="Times New Roman,serif" font-size="14.00">create</text>
</g>
<!-- Entity41 -->
<g id="node32" class="node entity">
<title>Entity41</title>
<ellipse fill="none" stroke="black" cx="3318.64" cy="-1604.81" rx="67.69" ry="18"/>
<text text-anchor="start" x="3274.64" y="-1601.11" font-family="Times New Roman,serif" font-size="14.00">abraham lincoln</text>
</g>
<!-- Entity41&#45;&gt;Entity57 -->
<g id="edge19" class="edge verb">
<title>Entity41&#45;&gt;Entity57</title>
<path fill="none" stroke="black" d="M3312.01,-1623C3281.21,-1707.59 3151.95,-2062.54 3114.98,-2164.08"/>
<polygon fill="black" stroke="black" points="3111.64,-2163.03 3111.5,-2173.62 3118.21,-2165.42 3111.64,-2163.03"/>
<text text-anchor="start" x="3203.5" y="-1897.34" font-family="Times New Roman,serif" font-size="14.00">is</text>
</g>
<!-- Entity36 -->
<g id="node33" class="node entity">
<title>Entity36</title>
<ellipse fill="none" stroke="black" cx="3560.31" cy="-842.81" rx="90.98" ry="18"/>
<text text-anchor="start" x="3498.31" y="-839.11" font-family="Times New Roman,serif" font-size="14.00">emma hardinge&#45;britten</text>
</g>
<!-- Entity36&#45;&gt;Entity63 -->
<g id="edge66" class="edge verb">
<title>Entity36&#45;&gt;Entity63</title>
<path fill="none" stroke="black" d="M3553.97,-824.51C3548.08,-807.5 3539.23,-781.95 3532.49,-762.48"/>
<polygon fill="black" stroke="black" points="3535.76,-761.23 3529.18,-752.93 3529.15,-763.52 3535.76,-761.23"/>
<text text-anchor="start" x="3509.23" y="-797.29" font-family="Times New Roman,serif" font-size="14.00">create</text>
</g>
<!-- Entity36&#45;&gt;Entity41 -->
<g id="edge32" class="edge verb">
<title>Entity36&#45;&gt;Entity41</title>
<path fill="none" stroke="black" d="M3554.58,-860.9C3522.63,-961.64 3366.65,-1453.43 3327.54,-1576.73"/>
<polygon fill="black" stroke="black" points="3324.12,-1575.96 3324.43,-1586.55 3330.79,-1578.08 3324.12,-1575.96"/>
<text text-anchor="start" x="3362.06" y="-1222.61" font-family="Times New Roman,serif" font-size="14.00">spokesperson</text>
</g>
<!-- Entity78 -->
<g id="node34" class="node entity">
<title>Entity78</title>
<ellipse fill="none" stroke="black" cx="3913.21" cy="-393.46" rx="39.79" ry="18"/>
<text text-anchor="start" x="3890.71" y="-389.76" font-family="Times New Roman,serif" font-size="14.00">medium</text>
</g>
<!-- Entity36&#45;&gt;Entity78 -->
<g id="edge20" class="edge verb">
<title>Entity36&#45;&gt;Entity78</title>
<path fill="none" stroke="black" d="M3574.36,-824.92C3629.28,-754.99 3829.51,-500.03 3893.44,-418.62"/>
<polygon fill="black" stroke="black" points="3896.45,-420.46 3899.87,-410.43 3890.95,-416.14 3896.45,-420.46"/>
<text text-anchor="start" x="3723.9" y="-625.57" font-family="Times New Roman,serif" font-size="14.00">is</text>
</g>
<!-- Entity70 -->
<g id="node61" class="node entity">
<title>Entity70</title>
<ellipse fill="none" stroke="black" cx="4121.43" cy="-550.86" rx="55.79" ry="18"/>
<text text-anchor="start" x="4086.43" y="-547.16" font-family="Times New Roman,serif" font-size="14.00">orphic circle</text>
</g>
<!-- Entity36&#45;&gt;Entity70 -->
<g id="edge65" class="edge verb">
<title>Entity36&#45;&gt;Entity70</title>
<path fill="none" stroke="black" d="M3592.91,-825.86C3690.2,-775.23 3978.23,-625.37 4082.88,-570.92"/>
<polygon fill="black" stroke="black" points="4084.59,-573.97 4091.84,-566.25 4081.36,-567.76 4084.59,-573.97"/>
<text text-anchor="start" x="3791.89" y="-702.19" font-family="Times New Roman,serif" font-size="14.00">member</text>
</g>
<!-- Entity40 -->
<g id="node36" class="node entity">
<title>Entity40</title>
<ellipse fill="none" stroke="black" cx="3029.94" cy="-3241.66" rx="53.89" ry="18"/>
<text text-anchor="start" x="2996.44" y="-3237.96" font-family="Times New Roman,serif" font-size="14.00">black magic</text>
</g>
<!-- Entity69 -->
<g id="node37" class="node entity">
<title>Entity69</title>
<ellipse fill="none" stroke="black" cx="3117.66" cy="-3353.64" rx="28.7" ry="18"/>
<text text-anchor="start" x="3103.66" y="-3349.94" font-family="Times New Roman,serif" font-size="14.00">x left</text>
</g>
<!-- Entity40&#45;&gt;Entity69 -->
<g id="edge25" class="edge verb">
<title>Entity40&#45;&gt;Entity69</title>
<path fill="none" stroke="black" d="M3043.64,-3259.16C3058.45,-3278.05 3082.14,-3308.29 3098.72,-3329.45"/>
<polygon fill="black" stroke="black" points="3095.98,-3331.64 3104.9,-3337.36 3101.49,-3327.32 3095.98,-3331.64"/>
<text text-anchor="start" x="3025.18" y="-3298.11" font-family="Times New Roman,serif" font-size="14.00">member</text>
</g>
<!-- Entity15 -->
<g id="node39" class="node entity">
<title>Entity15</title>
<ellipse fill="none" stroke="black" cx="2237.97" cy="-3009.8" rx="27" ry="18"/>
<text text-anchor="start" x="2229.97" y="-3006.1" font-family="Times New Roman,serif" font-size="14.00">cia</text>
</g>
<!-- Entity33&#45;&gt;Entity15 -->
<g id="edge27" class="edge verb">
<title>Entity33&#45;&gt;Entity15</title>
<path fill="none" stroke="black" d="M2217.06,-2541.74C2220.35,-2615.39 2232.71,-2891.97 2236.71,-2981.59"/>
<polygon fill="black" stroke="black" points="2233.23,-2981.96 2237.17,-2991.8 2240.22,-2981.65 2233.23,-2981.96"/>
<text text-anchor="start" x="2180.89" y="-2765.46" font-family="Times New Roman,serif" font-size="14.00">member</text>
</g>
<!-- Entity77 -->
<g id="node50" class="node entity">
<title>Entity77</title>
<ellipse fill="none" stroke="black" cx="1801.63" cy="-2358.97" rx="50.89" ry="18"/>
<text text-anchor="start" x="1770.63" y="-2355.27" font-family="Times New Roman,serif" font-size="14.00">nikola tesla</text>
</g>
<!-- Entity33&#45;&gt;Entity77 -->
<g id="edge39" class="edge verb">
<title>Entity33&#45;&gt;Entity77</title>
<path fill="none" stroke="black" d="M2182.32,-2510.09C2107.35,-2480.33 1927.67,-2409.01 1844.82,-2376.12"/>
<polygon fill="black" stroke="black" points="1846.04,-2372.83 1835.45,-2372.4 1843.45,-2379.34 1846.04,-2372.83"/>
<text text-anchor="start" x="1982.57" y="-2446.91" font-family="Times New Roman,serif" font-size="14.00">study</text>
</g>
<!-- Entity15&#45;&gt;Entity61 -->
<g id="edge55" class="edge verb">
<title>Entity15&#45;&gt;Entity61</title>
<path fill="none" stroke="black" d="M2258.6,-2997.84C2315.03,-2965.09 2472.16,-2873.91 2538.02,-2835.69"/>
<polygon fill="black" stroke="black" points="2540.16,-2838.5 2547.06,-2830.45 2536.65,-2832.44 2540.16,-2838.5"/>
<text text-anchor="start" x="2334.31" y="-2920.56" font-family="Times New Roman,serif" font-size="14.00">investigates</text>
</g>
<!-- Entity15&#45;&gt;Entity56 -->
<g id="edge42" class="edge verb">
<title>Entity15&#45;&gt;Entity56</title>
<path fill="none" stroke="black" d="M2228.86,-3026.84C2186.68,-3105.65 2010.31,-3435.25 1958.54,-3531.99"/>
<polygon fill="black" stroke="black" points="1955.43,-3530.39 1953.8,-3540.86 1961.6,-3533.69 1955.43,-3530.39"/>
<text text-anchor="start" x="2029.7" y="-3283.21" font-family="Times New Roman,serif" font-size="14.00">investigates</text>
</g>
<!-- Entity20 -->
<g id="node40" class="node entity">
<title>Entity20</title>
<ellipse fill="none" stroke="black" cx="3709.92" cy="-2301.34" rx="71.49" ry="18"/>
<text text-anchor="start" x="3662.92" y="-2297.64" font-family="Times New Roman,serif" font-size="14.00">woodrow wilson</text>
</g>
<!-- Entity20&#45;&gt;Entity57 -->
<g id="edge30" class="edge verb">
<title>Entity20&#45;&gt;Entity57</title>
<path fill="none" stroke="black" d="M3651.92,-2290.79C3529.86,-2268.59 3249.11,-2217.52 3144.93,-2198.57"/>
<polygon fill="black" stroke="black" points="3145.3,-2195.08 3134.83,-2196.73 3144.04,-2201.97 3145.3,-2195.08"/>
<text text-anchor="start" x="3388.43" y="-2248.48" font-family="Times New Roman,serif" font-size="14.00">is</text>
</g>
<!-- Entity66 -->
<g id="node41" class="node entity">
<title>Entity66</title>
<ellipse fill="none" stroke="black" cx="4296.57" cy="-2541.12" rx="71.49" ry="18"/>
<text text-anchor="start" x="4249.57" y="-2537.42" font-family="Times New Roman,serif" font-size="14.00">leauge of nations</text>
</g>
<!-- Entity20&#45;&gt;Entity66 -->
<g id="edge29" class="edge verb">
<title>Entity20&#45;&gt;Entity66</title>
<path fill="none" stroke="black" d="M3747.51,-2316.71C3850.35,-2358.74 4136.18,-2475.57 4249.45,-2521.87"/>
<polygon fill="black" stroke="black" points="4248.33,-2525.19 4258.91,-2525.73 4250.98,-2518.71 4248.33,-2525.19"/>
<text text-anchor="start" x="3964.48" y="-2423.09" font-family="Times New Roman,serif" font-size="14.00">create</text>
</g>
<!-- Entity42 -->
<g id="node43" class="node entity">
<title>Entity42</title>
<ellipse fill="none" stroke="black" cx="1775.94" cy="-2001.66" rx="39.79" ry="18"/>
<text text-anchor="start" x="1753.44" y="-1997.96" font-family="Times New Roman,serif" font-size="14.00">crowley</text>
</g>
<!-- Entity71 -->
<g id="node44" class="node entity">
<title>Entity71</title>
<ellipse fill="none" stroke="black" cx="1863.66" cy="-2113.64" rx="38.99" ry="18"/>
<text text-anchor="start" x="1841.66" y="-2109.94" font-family="Times New Roman,serif" font-size="14.00">x magic</text>
</g>
<!-- Entity42&#45;&gt;Entity71 -->
<g id="edge33" class="edge verb">
<title>Entity42&#45;&gt;Entity71</title>
<path fill="none" stroke="black" d="M1789.26,-2018.67C1803.82,-2037.25 1827.28,-2067.2 1843.96,-2088.49"/>
<polygon fill="black" stroke="black" points="1841.29,-2090.76 1850.21,-2096.47 1846.8,-2086.44 1841.29,-2090.76"/>
<text text-anchor="start" x="1770.61" y="-2057.38" font-family="Times New Roman,serif" font-size="14.00">member</text>
</g>
<!-- Entity39 -->
<g id="node45" class="node entity">
<title>Entity39</title>
<ellipse fill="none" stroke="black" cx="1103.43" cy="-4074.62" rx="57.69" ry="18"/>
<text text-anchor="start" x="1066.93" y="-4070.92" font-family="Times New Roman,serif" font-size="14.00">michael pane</text>
</g>
<!-- Entity39&#45;&gt;Entity44 -->
<g id="edge34" class="edge verb">
<title>Entity39&#45;&gt;Entity44</title>
<path fill="none" stroke="black" d="M1074.43,-4090.24C992.86,-4134.19 761.27,-4258.96 668.05,-4309.18"/>
<polygon fill="black" stroke="black" points="666.35,-4306.12 659.2,-4313.95 669.67,-4312.29 666.35,-4306.12"/>
<text text-anchor="start" x="817.24" y="-4203.51" font-family="Times New Roman,serif" font-size="14.00">employee</text>
</g>
<!-- Entity39&#45;&gt;Entity54 -->
<g id="edge49" class="edge verb">
<title>Entity39&#45;&gt;Entity54</title>
<path fill="none" stroke="black" d="M1103.5,-4056.43C1103.6,-4033.81 1103.76,-3994.93 1103.87,-3968.32"/>
<polygon fill="black" stroke="black" points="1107.37,-3968.11 1103.91,-3958.09 1100.37,-3968.08 1107.37,-3968.11"/>
<text text-anchor="start" x="1049.69" y="-4016.17" font-family="Times New Roman,serif" font-size="14.00">employee</text>
</g>
<!-- Entity49&#45;&gt;Entity73 -->
<g id="edge40" class="edge verb">
<title>Entity49&#45;&gt;Entity73</title>
<path fill="none" stroke="black" d="M1223.01,-3191.25C1145.34,-3248.69 890.3,-3437.32 803.9,-3501.22"/>
<polygon fill="black" stroke="black" points="801.8,-3498.42 795.85,-3507.18 805.97,-3504.05 801.8,-3498.42"/>
<text text-anchor="start" x="967.46" y="-3350.04" font-family="Times New Roman,serif" font-size="14.00">member</text>
</g>
<!-- Entity3 -->
<g id="node47" class="node entity">
<title>Entity3</title>
<ellipse fill="none" stroke="black" cx="1465.85" cy="-3929.76" rx="65.79" ry="18"/>
<text text-anchor="start" x="1423.35" y="-3926.06" font-family="Times New Roman,serif" font-size="14.00">arthur m young</text>
</g>
<!-- Entity3&#45;&gt;Entity8 -->
<g id="edge59" class="edge verb">
<title>Entity3&#45;&gt;Entity8</title>
<path fill="none" stroke="black" d="M1412.14,-3919.31C1301.91,-3897.87 1051.83,-3849.24 948.77,-3829.2"/>
<polygon fill="black" stroke="black" points="949.17,-3825.71 938.68,-3827.23 947.83,-3832.58 949.17,-3825.71"/>
<text text-anchor="start" x="1134.45" y="-3878.05" font-family="Times New Roman,serif" font-size="14.00">member</text>
</g>
<!-- Entity3&#45;&gt;Entity54 -->
<g id="edge62" class="edge verb">
<title>Entity3&#45;&gt;Entity54</title>
<path fill="none" stroke="black" d="M1400.32,-3931.57C1334.39,-3933.39 1233.39,-3936.18 1168.01,-3937.99"/>
<polygon fill="black" stroke="black" points="1167.73,-3934.5 1157.83,-3938.27 1167.92,-3941.5 1167.73,-3934.5"/>
<text text-anchor="start" x="1250.16" y="-3938.58" font-family="Times New Roman,serif" font-size="14.00">create</text>
</g>
<!-- Entity3&#45;&gt;Entity56 -->
<g id="edge36" class="edge verb">
<title>Entity3&#45;&gt;Entity56</title>
<path fill="none" stroke="black" d="M1487.96,-3912.61C1565.39,-3852.56 1824.43,-3651.67 1913.68,-3582.46"/>
<polygon fill="black" stroke="black" points="1916.02,-3585.08 1921.77,-3576.18 1911.73,-3579.54 1916.02,-3585.08"/>
<text text-anchor="start" x="1669.82" y="-3751.33" font-family="Times New Roman,serif" font-size="14.00">study</text>
</g>
<!-- Entity19 -->
<g id="node48" class="node entity">
<title>Entity19</title>
<ellipse fill="none" stroke="black" cx="3424.4" cy="-1922.64" rx="58.49" ry="18"/>
<text text-anchor="start" x="3387.4" y="-1918.94" font-family="Times New Roman,serif" font-size="14.00">richard nixon</text>
</g>
<!-- Entity19&#45;&gt;Entity57 -->
<g id="edge37" class="edge verb">
<title>Entity19&#45;&gt;Entity57</title>
<path fill="none" stroke="black" d="M3403.94,-1939.86C3347.95,-1986.96 3192.3,-2117.92 3130.66,-2169.78"/>
<polygon fill="black" stroke="black" points="3128.35,-2167.15 3122.95,-2176.27 3132.85,-2172.51 3128.35,-2167.15"/>
<text text-anchor="start" x="3257.3" y="-2058.62" font-family="Times New Roman,serif" font-size="14.00">is</text>
</g>
<!-- Entity34 -->
<g id="node49" class="node entity">
<title>Entity34</title>
<ellipse fill="none" stroke="black" cx="1293.41" cy="-487.64" rx="69.59" ry="18"/>
<text text-anchor="start" x="1247.91" y="-483.94" font-family="Times New Roman,serif" font-size="14.00">andrew breitbart</text>
</g>
<!-- Entity34&#45;&gt;Entity65 -->
<g id="edge38" class="edge verb">
<title>Entity34&#45;&gt;Entity65</title>
<path fill="none" stroke="black" d="M1306.35,-505.53C1358.57,-577.66 1553.79,-847.37 1615.52,-932.66"/>
<polygon fill="black" stroke="black" points="1612.7,-934.73 1621.4,-940.78 1618.37,-930.62 1612.7,-934.73"/>
<text text-anchor="start" x="1426.94" y="-722.89" font-family="Times New Roman,serif" font-size="14.00">create</text>
</g>
<!-- Entity11 -->
<g id="node52" class="node entity">
<title>Entity11</title>
<ellipse fill="none" stroke="black" cx="3143.54" cy="-1867.58" rx="35.19" ry="18"/>
<text text-anchor="start" x="3124.54" y="-1863.88" font-family="Times New Roman,serif" font-size="14.00">obama</text>
</g>
<!-- Entity11&#45;&gt;Entity57 -->
<g id="edge43" class="edge verb">
<title>Entity11&#45;&gt;Entity57</title>
<path fill="none" stroke="black" d="M3141.37,-1885.91C3134.96,-1939.78 3116.17,-2097.84 3108.44,-2162.87"/>
<polygon fill="black" stroke="black" points="3104.92,-2162.84 3107.21,-2173.19 3111.87,-2163.67 3104.92,-2162.84"/>
<text text-anchor="start" x="3114.9" y="-2028.19" font-family="Times New Roman,serif" font-size="14.00">is</text>
</g>
<!-- Entity28 -->
<g id="node53" class="node entity">
<title>Entity28</title>
<ellipse fill="none" stroke="black" cx="3043.41" cy="-125.97" rx="58.49" ry="18"/>
<text text-anchor="start" x="3006.41" y="-122.27" font-family="Times New Roman,serif" font-size="14.00">rudolf steiner</text>
</g>
<!-- Entity28&#45;&gt;Entity63 -->
<g id="edge57" class="edge verb">
<title>Entity28&#45;&gt;Entity63</title>
<path fill="none" stroke="black" d="M3057.24,-143.54C3124.98,-229.55 3421.65,-606.27 3502.52,-708.96"/>
<polygon fill="black" stroke="black" points="3499.88,-711.26 3508.81,-716.96 3505.38,-706.93 3499.88,-711.26"/>
<text text-anchor="start" x="3233.88" y="-430.05" font-family="Times New Roman,serif" font-size="14.00">member</text>
</g>
<!-- Entity68 -->
<g id="node54" class="node entity">
<title>Entity68</title>
<ellipse fill="none" stroke="black" cx="2918.69" cy="-18.01" rx="102.08" ry="18"/>
<text text-anchor="start" x="2848.19" y="-14.31" font-family="Times New Roman,serif" font-size="14.00">anthroposophical society</text>
</g>
<!-- Entity28&#45;&gt;Entity68 -->
<g id="edge44" class="edge verb">
<title>Entity28&#45;&gt;Entity68</title>
<path fill="none" stroke="black" d="M3023.64,-108.86C3003,-90.99 2970.43,-62.79 2947.04,-42.55"/>
<polygon fill="black" stroke="black" points="2949.04,-39.65 2939.19,-35.75 2944.46,-44.94 2949.04,-39.65"/>
<text text-anchor="start" x="2951.34" y="-79.51" font-family="Times New Roman,serif" font-size="14.00">create</text>
</g>
<!-- Entity80 -->
<g id="node57" class="node entity">
<title>Entity80</title>
<ellipse fill="none" stroke="black" cx="1514.94" cy="-2497.66" rx="27" ry="18"/>
<text text-anchor="start" x="1504.94" y="-2493.96" font-family="Times New Roman,serif" font-size="14.00">foo</text>
</g>
<!-- Entity81 -->
<g id="node58" class="node entity">
<title>Entity81</title>
<ellipse fill="none" stroke="black" cx="1602.66" cy="-2609.64" rx="27" ry="18"/>
<text text-anchor="start" x="1592.66" y="-2605.94" font-family="Times New Roman,serif" font-size="14.00">baz</text>
</g>
<!-- Entity80&#45;&gt;Entity81 -->
<g id="edge53" class="edge verb">
<title>Entity80&#45;&gt;Entity81</title>
<path fill="none" stroke="black" d="M1527.51,-2513.7C1542.23,-2532.5 1566.76,-2563.82 1583.78,-2585.53"/>
<polygon fill="black" stroke="black" points="1581.19,-2587.91 1590.11,-2593.62 1586.7,-2583.59 1581.19,-2587.91"/>
<text text-anchor="start" x="1535.64" y="-2553.42" font-family="Times New Roman,serif" font-size="14.00">baz</text>
</g>
<!-- Entity23 -->
<g id="node60" class="node entity">
<title>Entity23</title>
<ellipse fill="none" stroke="black" cx="4278.7" cy="-2289.6" rx="53.89" ry="18"/>
<text text-anchor="start" x="4245.2" y="-2285.9" font-family="Times New Roman,serif" font-size="14.00">edgar casey</text>
</g>
<!-- Entity23&#45;&gt;Entity20 -->
<g id="edge58" class="edge verb">
<title>Entity23&#45;&gt;Entity20</title>
<path fill="none" stroke="black" d="M4224.68,-2290.71C4124.45,-2292.78 3909.18,-2297.23 3791.26,-2299.66"/>
<polygon fill="black" stroke="black" points="3791.12,-2296.17 3781.2,-2299.87 3791.27,-2303.16 3791.12,-2296.17"/>
<text text-anchor="start" x="3971.97" y="-2298.99" font-family="Times New Roman,serif" font-size="14.00">advise</text>
</g>
</g>
</svg>
