<?xml version="1.0" encoding="UTF-8" standalone="no"?>
<?xml-stylesheet href="../styles.css" type="text/css"?>
<!DOCTYPE svg PUBLIC "-//W3C//DTD SVG 1.1//EN"
 "http://www.w3.org/Graphics/SVG/1.1/DTD/svg11.dtd">
<!-- Generated by graphviz version 2.47.3 (20210619.1520)
 -->
<!-- Title: G Pages: 1 -->
<svg width="6550pt" height="4573pt"
 viewBox="0.00 0.00 6550.00 4573.00" xmlns="http://www.w3.org/2000/svg" xmlns:xlink="http://www.w3.org/1999/xlink">
<g id="graph0" class="graph" transform="scale(1 1) rotate(0) translate(4 4569)">
<title>G</title>
<polygon fill="white" stroke="transparent" points="-4,4 -4,-4569 6546,-4569 6546,4 -4,4"/>
<!-- Entity5 -->
<g id="node1" class="node entity">
<title>Entity5</title>
<ellipse fill="none" stroke="black" cx="3740.81" cy="-3388.17" rx="75.29" ry="18"/>
<text text-anchor="start" x="3690.81" y="-3384.47" font-family="Times New Roman,serif" font-size="14.00">lee harvey oswald</text>
</g>
<!-- Entity7 -->
<g id="node2" class="node entity">
<title>Entity7</title>
<ellipse fill="none" stroke="black" cx="3224.54" cy="-2876.83" rx="64.19" ry="18"/>
<text text-anchor="start" x="3183.04" y="-2873.13" font-family="Times New Roman,serif" font-size="14.00">john f kennedy</text>
</g>
<!-- Entity5&#45;&gt;Entity7 -->
<g id="edge1" class="edge verb">
<title>Entity5&#45;&gt;Entity7</title>
<path fill="none" stroke="black" d="M3726.32,-3370.2C3655.82,-3292.83 3349.3,-2988.94 3253.32,-2900.83"/>
<polygon fill="black" stroke="black" points="3255.49,-2898.07 3245.74,-2893.92 3250.77,-2903.25 3255.49,-2898.07"/>
<text text-anchor="start" x="3427.82" y="-3124.32" font-family="Times New Roman,serif" font-size="14.00">assassinate</text>
</g>
<!-- Entity5&#45;&gt;Entity7 -->
<g id="edge4" class="edge verb">
<title>Entity5&#45;&gt;Entity7</title>
<path fill="none" stroke="black" d="M3719.24,-3370.73C3634.95,-3294.57 3329.03,-2991.68 3245.62,-2901.94"/>
<polygon fill="black" stroke="black" points="3248.03,-2899.4 3238.69,-2894.41 3242.88,-2904.14 3248.03,-2899.4"/>
<text text-anchor="start" x="3442.43" y="-3140.14" font-family="Times New Roman,serif" font-size="14.00">oswald</text>
</g>
<!-- Entity45 -->
<g id="node29" class="node entity">
<title>Entity45</title>
<ellipse fill="none" stroke="black" cx="4259.63" cy="-3793.59" rx="59.29" ry="18"/>
<text text-anchor="start" x="4222.13" y="-3789.89" font-family="Times New Roman,serif" font-size="14.00">guy bannister</text>
</g>
<!-- Entity5&#45;&gt;Entity45 -->
<g id="edge23" class="edge verb">
<title>Entity5&#45;&gt;Entity45</title>
<path fill="none" stroke="black" d="M3763.11,-3405.59C3845.95,-3470.33 4136.1,-3697.06 4230.04,-3770.47"/>
<polygon fill="black" stroke="black" points="4227.97,-3773.29 4238,-3776.69 4232.28,-3767.77 4227.97,-3773.29"/>
<text text-anchor="start" x="3942.58" y="-3591.83" font-family="Times New Roman,serif" font-size="14.00">employee</text>
</g>
<!-- Entity53 -->
<g id="node28" class="node entity">
<title>Entity53</title>
<ellipse fill="none" stroke="black" cx="2837.67" cy="-2432.75" rx="31.4" ry="18"/>
<text text-anchor="start" x="2821.67" y="-2429.05" font-family="Times New Roman,serif" font-size="14.00">potus</text>
</g>
<!-- Entity7&#45;&gt;Entity53 -->
<g id="edge22" class="edge verb">
<title>Entity7&#45;&gt;Entity53</title>
<path fill="none" stroke="black" d="M3209.14,-2859.15C3148.8,-2789.88 2928.43,-2536.93 2858.87,-2457.08"/>
<polygon fill="black" stroke="black" points="2861.08,-2454.3 2851.88,-2449.06 2855.81,-2458.9 2861.08,-2454.3"/>
<text text-anchor="start" x="3024" y="-2661.91" font-family="Times New Roman,serif" font-size="14.00">is</text>
</g>
<!-- Entity1 -->
<g id="node3" class="node entity">
<title>Entity1</title>
<ellipse fill="none" stroke="black" cx="5823.08" cy="-1866.3" rx="41.69" ry="18"/>
<text text-anchor="start" x="5799.08" y="-1862.6" font-family="Times New Roman,serif" font-size="14.00">uri geller</text>
</g>
<!-- Entity9 -->
<g id="node4" class="node entity">
<title>Entity9</title>
<ellipse fill="none" stroke="black" cx="5861.5" cy="-2260.46" rx="38.19" ry="18"/>
<text text-anchor="start" x="5840" y="-2256.76" font-family="Times New Roman,serif" font-size="14.00">the nine</text>
</g>
<!-- Entity1&#45;&gt;Entity9 -->
<g id="edge2" class="edge verb">
<title>Entity1&#45;&gt;Entity9</title>
<path fill="none" stroke="black" d="M5824.85,-1884.52C5830.99,-1947.44 5851.3,-2155.88 5858.74,-2232.17"/>
<polygon fill="black" stroke="black" points="5855.29,-2232.82 5859.74,-2242.43 5862.25,-2232.14 5855.29,-2232.82"/>
<text text-anchor="start" x="5737.8" y="-2062.15" font-family="Times New Roman,serif" font-size="14.00">claiemd to channel</text>
</g>
<!-- Entity52 -->
<g id="node44" class="node entity">
<title>Entity52</title>
<ellipse fill="none" stroke="black" cx="6448.2" cy="-2185.58" rx="94.48" ry="18"/>
<text text-anchor="start" x="6383.7" y="-2181.88" font-family="Times New Roman,serif" font-size="14.00">egyptian gods in a ship</text>
</g>
<!-- Entity9&#45;&gt;Entity52 -->
<g id="edge37" class="edge verb">
<title>Entity9&#45;&gt;Entity52</title>
<path fill="none" stroke="black" d="M5898.64,-2255.72C5990.28,-2244.03 6229.11,-2213.54 6359.73,-2196.87"/>
<polygon fill="black" stroke="black" points="6360.23,-2200.33 6369.71,-2195.6 6359.35,-2193.39 6360.23,-2200.33"/>
<text text-anchor="start" x="6099.18" y="-2230.1" font-family="Times New Roman,serif" font-size="14.00">claim</text>
</g>
<!-- Entity4 -->
<g id="node5" class="node entity">
<title>Entity4</title>
<ellipse fill="none" stroke="black" cx="5925.2" cy="-2141.86" rx="74.99" ry="18"/>
<text text-anchor="start" x="5875.7" y="-2138.16" font-family="Times New Roman,serif" font-size="14.00">gene roddenberry</text>
</g>
<!-- Entity4&#45;&gt;Entity9 -->
<g id="edge3" class="edge verb">
<title>Entity4&#45;&gt;Entity9</title>
<path fill="none" stroke="black" d="M5915.52,-2159.88C5904.98,-2179.5 5888.02,-2211.08 5875.91,-2233.62"/>
<polygon fill="black" stroke="black" points="5872.7,-2232.2 5871.06,-2242.67 5878.87,-2235.51 5872.7,-2232.2"/>
<text text-anchor="start" x="5791.72" y="-2200.55" font-family="Times New Roman,serif" font-size="14.00">claiemd to channel</text>
</g>
<!-- Entity2 -->
<g id="node6" class="node entity">
<title>Entity2</title>
<ellipse fill="none" stroke="black" cx="6213.46" cy="-1556.96" rx="64.19" ry="18"/>
<text text-anchor="start" x="6171.96" y="-1553.26" font-family="Times New Roman,serif" font-size="14.00">andre puharich</text>
</g>
<!-- Entity2&#45;&gt;Entity1 -->
<g id="edge5" class="edge verb">
<title>Entity2&#45;&gt;Entity1</title>
<path fill="none" stroke="black" d="M6191.91,-1574.04C6125.73,-1626.48 5925.38,-1785.23 5851.15,-1844.06"/>
<polygon fill="black" stroke="black" points="5848.8,-1841.45 5843.14,-1850.4 5853.15,-1846.94 5848.8,-1841.45"/>
<text text-anchor="start" x="5969.53" y="-1712.85" font-family="Times New Roman,serif" font-size="14.00">sponsore</text>
</g>
<!-- Entity6 -->
<g id="node7" class="node entity">
<title>Entity6</title>
<ellipse fill="none" stroke="black" cx="5327.51" cy="-2040.66" rx="68.49" ry="18"/>
<text text-anchor="start" x="5283.01" y="-2036.96" font-family="Times New Roman,serif" font-size="14.00">jeffrey mishlove</text>
</g>
<!-- Entity6&#45;&gt;Entity1 -->
<g id="edge6" class="edge verb">
<title>Entity6&#45;&gt;Entity1</title>
<path fill="none" stroke="black" d="M5368.49,-2026.25C5461.43,-1993.54 5687.45,-1914.02 5781.22,-1881.03"/>
<polygon fill="black" stroke="black" points="5782.4,-1884.32 5790.67,-1877.7 5780.08,-1877.72 5782.4,-1884.32"/>
<text text-anchor="start" x="5526.86" y="-1957.44" font-family="Times New Roman,serif" font-size="14.00">promote</text>
</g>
<!-- Entity55 -->
<g id="node34" class="node entity">
<title>Entity55</title>
<ellipse fill="none" stroke="black" cx="4763.34" cy="-2304.25" rx="77.19" ry="18"/>
<text text-anchor="start" x="4711.84" y="-2300.55" font-family="Times New Roman,serif" font-size="14.00">psi&#45;consciousness</text>
</g>
<!-- Entity6&#45;&gt;Entity55 -->
<g id="edge58" class="edge verb">
<title>Entity6&#45;&gt;Entity55</title>
<path fill="none" stroke="black" d="M5287.65,-2055.3C5183.19,-2099.5 4902.67,-2230.55 4800.88,-2282.69"/>
<polygon fill="black" stroke="black" points="4799.16,-2279.64 4791.88,-2287.33 4802.37,-2285.86 4799.16,-2279.64"/>
<text text-anchor="start" x="5013.26" y="-2172.79" font-family="Times New Roman,serif" font-size="14.00">study</text>
</g>
<!-- Entity6&#45;&gt;Entity55 -->
<g id="edge60" class="edge verb">
<title>Entity6&#45;&gt;Entity55</title>
<path fill="none" stroke="black" d="M5299.72,-2057.18C5210.41,-2103.81 4929.95,-2235.14 4814.13,-2284.95"/>
<polygon fill="black" stroke="black" points="4812.58,-2281.8 4804.76,-2288.95 4815.33,-2288.24 4812.58,-2281.8"/>
<text text-anchor="start" x="5056.93" y="-2174.87" font-family="Times New Roman,serif" font-size="14.00">investigates</text>
</g>
<!-- Entity11 -->
<g id="node8" class="node entity">
<title>Entity11</title>
<ellipse fill="none" stroke="black" cx="2805.88" cy="-2557.62" rx="68.49" ry="18"/>
<text text-anchor="start" x="2761.38" y="-2553.92" font-family="Times New Roman,serif" font-size="14.00">george hw bush</text>
</g>
<!-- Entity18 -->
<g id="node9" class="node entity">
<title>Entity18</title>
<ellipse fill="none" stroke="black" cx="2393.02" cy="-2508.9" rx="63.89" ry="18"/>
<text text-anchor="start" x="2352.02" y="-2505.2" font-family="Times New Roman,serif" font-size="14.00">george w bush</text>
</g>
<!-- Entity11&#45;&gt;Entity18 -->
<g id="edge7" class="edge verb">
<title>Entity11&#45;&gt;Entity18</title>
<path fill="none" stroke="black" d="M2743.18,-2550.22C2667.51,-2541.29 2540.7,-2526.33 2462.23,-2517.07"/>
<polygon fill="black" stroke="black" points="2462.3,-2513.55 2451.96,-2515.86 2461.48,-2520.51 2462.3,-2513.55"/>
<text text-anchor="start" x="2570.7" y="-2537.44" font-family="Times New Roman,serif" font-size="14.00">father</text>
</g>
<!-- Entity11&#45;&gt;Entity53 -->
<g id="edge49" class="edge verb">
<title>Entity11&#45;&gt;Entity53</title>
<path fill="none" stroke="black" d="M2810.51,-2539.46C2815.76,-2518.84 2824.39,-2484.94 2830.51,-2460.89"/>
<polygon fill="black" stroke="black" points="2833.97,-2461.48 2833.04,-2450.93 2827.18,-2459.76 2833.97,-2461.48"/>
<text text-anchor="start" x="2810.51" y="-2503.97" font-family="Times New Roman,serif" font-size="14.00">is</text>
</g>
<!-- Entity18&#45;&gt;Entity53 -->
<g id="edge59" class="edge verb">
<title>Entity18&#45;&gt;Entity53</title>
<path fill="none" stroke="black" d="M2447.55,-2499.57C2538.1,-2484.06 2717.43,-2453.34 2797.47,-2439.64"/>
<polygon fill="black" stroke="black" points="2798.37,-2443.03 2807.63,-2437.9 2797.19,-2436.13 2798.37,-2443.03"/>
<text text-anchor="start" x="2612.51" y="-2473.4" font-family="Times New Roman,serif" font-size="14.00">is</text>
</g>
<!-- Entity3 -->
<g id="node10" class="node entity">
<title>Entity3</title>
<ellipse fill="none" stroke="black" cx="5434.96" cy="-2602.48" rx="65.79" ry="18"/>
<text text-anchor="start" x="5392.46" y="-2598.78" font-family="Times New Roman,serif" font-size="14.00">arthur m young</text>
</g>
<!-- Entity3&#45;&gt;Entity9 -->
<g id="edge8" class="edge verb">
<title>Entity3&#45;&gt;Entity9</title>
<path fill="none" stroke="black" d="M5456.4,-2585.28C5527.3,-2528.43 5754.18,-2346.52 5833.67,-2282.78"/>
<polygon fill="black" stroke="black" points="5836.14,-2285.28 5841.75,-2276.29 5831.76,-2279.82 5836.14,-2285.28"/>
<text text-anchor="start" x="5599.03" y="-2437.83" font-family="Times New Roman,serif" font-size="14.00">member</text>
</g>
<!-- Entity56 -->
<g id="node27" class="node entity">
<title>Entity56</title>
<ellipse fill="none" stroke="black" cx="5645.5" cy="-3221.03" rx="53.89" ry="18"/>
<text text-anchor="start" x="5612" y="-3217.33" font-family="Times New Roman,serif" font-size="14.00">bell aviation</text>
</g>
<!-- Entity3&#45;&gt;Entity56 -->
<g id="edge21" class="edge verb">
<title>Entity3&#45;&gt;Entity56</title>
<path fill="none" stroke="black" d="M5441.14,-2620.66C5470.95,-2708.24 5599.81,-3086.82 5636.01,-3193.16"/>
<polygon fill="black" stroke="black" points="5632.77,-3194.51 5639.31,-3202.85 5639.4,-3192.26 5632.77,-3194.51"/>
<text text-anchor="start" x="5504.58" y="-2910.71" font-family="Times New Roman,serif" font-size="14.00">create</text>
</g>
<!-- Entity3&#45;&gt;Entity55 -->
<g id="edge54" class="edge verb">
<title>Entity3&#45;&gt;Entity55</title>
<path fill="none" stroke="black" d="M5400.26,-2587.07C5288.09,-2537.26 4935.16,-2380.54 4808.86,-2324.46"/>
<polygon fill="black" stroke="black" points="4810.01,-2321.14 4799.45,-2320.28 4807.17,-2327.54 4810.01,-2321.14"/>
<text text-anchor="start" x="5073.56" y="-2459.56" font-family="Times New Roman,serif" font-size="14.00">study</text>
</g>
<!-- Entity16 -->
<g id="node11" class="node entity">
<title>Entity16</title>
<ellipse fill="none" stroke="black" cx="5140.78" cy="-2151.43" rx="63.89" ry="18"/>
<text text-anchor="start" x="5099.78" y="-2147.73" font-family="Times New Roman,serif" font-size="14.00">robert bigelow</text>
</g>
<!-- Entity16&#45;&gt;Entity6 -->
<g id="edge9" class="edge verb">
<title>Entity16&#45;&gt;Entity6</title>
<path fill="none" stroke="black" d="M5168.33,-2135.09C5200.79,-2115.84 5254.82,-2083.78 5290.81,-2062.44"/>
<polygon fill="black" stroke="black" points="5292.72,-2065.37 5299.54,-2057.25 5289.15,-2059.35 5292.72,-2065.37"/>
<text text-anchor="start" x="5197.57" y="-2102.56" font-family="Times New Roman,serif" font-size="14.00">funds</text>
</g>
<!-- Entity16&#45;&gt;Entity55 -->
<g id="edge50" class="edge verb">
<title>Entity16&#45;&gt;Entity55</title>
<path fill="none" stroke="black" d="M5104.25,-2166.22C5035.77,-2193.95 4888.11,-2253.73 4811.56,-2284.72"/>
<polygon fill="black" stroke="black" points="4810.1,-2281.54 4802.14,-2288.54 4812.73,-2288.03 4810.1,-2281.54"/>
<text text-anchor="start" x="4893.91" y="-2229.27" font-family="Times New Roman,serif" font-size="14.00">investigates</text>
</g>
<!-- Entity25 -->
<g id="node12" class="node entity">
<title>Entity25</title>
<ellipse fill="none" stroke="black" cx="2954.36" cy="-1187.23" rx="58.49" ry="18"/>
<text text-anchor="start" x="2917.36" y="-1183.53" font-family="Times New Roman,serif" font-size="14.00">steve bannon</text>
</g>
<!-- Entity8 -->
<g id="node13" class="node entity">
<title>Entity8</title>
<ellipse fill="none" stroke="black" cx="3089.09" cy="-1867.02" rx="59.59" ry="18"/>
<text text-anchor="start" x="3051.09" y="-1863.32" font-family="Times New Roman,serif" font-size="14.00">donald trump</text>
</g>
<!-- Entity25&#45;&gt;Entity8 -->
<g id="edge10" class="edge verb">
<title>Entity25&#45;&gt;Entity8</title>
<path fill="none" stroke="black" d="M2955.58,-1205.52C2968.37,-1299.16 3052.54,-1724.82 3080.52,-1838.85"/>
<polygon fill="black" stroke="black" points="3077.21,-1840.05 3083.04,-1848.89 3084,-1838.34 3077.21,-1840.05"/>
<text text-anchor="start" x="2970.05" y="-1525.98" font-family="Times New Roman,serif" font-size="14.00">promote</text>
</g>
<!-- Entity25&#45;&gt;Entity8 -->
<g id="edge11" class="edge verb">
<title>Entity25&#45;&gt;Entity8</title>
<path fill="none" stroke="black" d="M2960.39,-1205.3C2984.61,-1298.51 3069.3,-1725.01 3086.46,-1838.96"/>
<polygon fill="black" stroke="black" points="3083.01,-1839.59 3087.9,-1848.99 3089.94,-1838.59 3083.01,-1839.59"/>
<text text-anchor="start" x="2987.42" y="-1510.93" font-family="Times New Roman,serif" font-size="14.00">advise</text>
</g>
<!-- Entity76 -->
<g id="node38" class="node entity">
<title>Entity76</title>
<ellipse fill="none" stroke="black" cx="2459.73" cy="-845.55" rx="77.19" ry="18"/>
<text text-anchor="start" x="2408.23" y="-841.85" font-family="Times New Roman,serif" font-size="14.00">hollywood movies</text>
</g>
<!-- Entity25&#45;&gt;Entity76 -->
<g id="edge31" class="edge verb">
<title>Entity25&#45;&gt;Entity76</title>
<path fill="none" stroke="black" d="M2930.5,-1170.75C2849.74,-1114.96 2586.47,-933.1 2493.01,-868.54"/>
<polygon fill="black" stroke="black" points="2494.73,-865.47 2484.51,-862.67 2490.75,-871.23 2494.73,-865.47"/>
<text text-anchor="start" x="2664.76" y="-1023.44" font-family="Times New Roman,serif" font-size="14.00">produce</text>
</g>
<!-- Entity64 -->
<g id="node46" class="node entity">
<title>Entity64</title>
<ellipse fill="none" stroke="black" cx="3236.11" cy="-822.42" rx="38.19" ry="18"/>
<text text-anchor="start" x="3214.61" y="-818.72" font-family="Times New Roman,serif" font-size="14.00">us navy</text>
</g>
<!-- Entity25&#45;&gt;Entity64 -->
<g id="edge40" class="edge verb">
<title>Entity25&#45;&gt;Entity64</title>
<path fill="none" stroke="black" d="M2967.95,-1169.63C3013.8,-1110.26 3162.95,-917.14 3216.63,-847.63"/>
<polygon fill="black" stroke="black" points="3219.64,-849.47 3222.98,-839.41 3214.1,-845.19 3219.64,-849.47"/>
<text text-anchor="start" x="3046.29" y="-1012.43" font-family="Times New Roman,serif" font-size="14.00">member</text>
</g>
<!-- Entity77 -->
<g id="node49" class="node entity">
<title>Entity77</title>
<ellipse fill="none" stroke="black" cx="2651.5" cy="-721.54" rx="64.99" ry="18"/>
<text text-anchor="start" x="2609.5" y="-717.84" font-family="Times New Roman,serif" font-size="14.00">goldman sachs</text>
</g>
<!-- Entity25&#45;&gt;Entity77 -->
<g id="edge45" class="edge verb">
<title>Entity25&#45;&gt;Entity77</title>
<path fill="none" stroke="black" d="M2942.86,-1169.54C2896.62,-1098.45 2724.16,-833.27 2668.76,-748.07"/>
<polygon fill="black" stroke="black" points="2671.56,-745.97 2663.18,-739.5 2665.7,-749.79 2671.56,-745.97"/>
<text text-anchor="start" x="2751.81" y="-962.61" font-family="Times New Roman,serif" font-size="14.00">employee</text>
</g>
<!-- Entity63 -->
<g id="node51" class="node entity">
<title>Entity63</title>
<ellipse fill="none" stroke="black" cx="3137.21" cy="-686.72" rx="53.09" ry="18"/>
<text text-anchor="start" x="3104.21" y="-683.02" font-family="Times New Roman,serif" font-size="14.00">biosphere 2</text>
</g>
<!-- Entity25&#45;&gt;Entity63 -->
<g id="edge51" class="edge verb">
<title>Entity25&#45;&gt;Entity63</title>
<path fill="none" stroke="black" d="M2960.98,-1169.12C2988.47,-1093.86 3093.83,-805.47 3127.09,-714.43"/>
<polygon fill="black" stroke="black" points="3130.46,-715.4 3130.6,-704.8 3123.88,-713 3130.46,-715.4"/>
<text text-anchor="start" x="3010.03" y="-945.57" font-family="Times New Roman,serif" font-size="14.00">create</text>
</g>
<!-- Entity65 -->
<g id="node53" class="node entity">
<title>Entity65</title>
<ellipse fill="none" stroke="black" cx="2789.64" cy="-579.31" rx="61.99" ry="18"/>
<text text-anchor="start" x="2750.14" y="-575.61" font-family="Times New Roman,serif" font-size="14.00">breitbart news</text>
</g>
<!-- Entity25&#45;&gt;Entity65 -->
<g id="edge56" class="edge verb">
<title>Entity25&#45;&gt;Entity65</title>
<path fill="none" stroke="black" d="M2949.43,-1169.03C2925.99,-1082.51 2825.73,-712.52 2797.23,-607.32"/>
<polygon fill="black" stroke="black" points="2800.54,-606.17 2794.55,-597.44 2793.79,-608 2800.54,-606.17"/>
<text text-anchor="start" x="2839.33" y="-891.98" font-family="Times New Roman,serif" font-size="14.00">create</text>
</g>
<!-- Entity61 -->
<g id="node59" class="node entity">
<title>Entity61</title>
<ellipse fill="none" stroke="black" cx="2954.74" cy="-1075.5" rx="35.19" ry="18"/>
<text text-anchor="start" x="2935.74" y="-1071.8" font-family="Times New Roman,serif" font-size="14.00">gurgev</text>
</g>
<!-- Entity25&#45;&gt;Entity61 -->
<g id="edge66" class="edge verb">
<title>Entity25&#45;&gt;Entity61</title>
<path fill="none" stroke="black" d="M2954.42,-1168.78C2954.48,-1151.13 2954.58,-1124.25 2954.65,-1103.87"/>
<polygon fill="black" stroke="black" points="2958.15,-1103.62 2954.68,-1093.61 2951.15,-1103.6 2958.15,-1103.62"/>
<text text-anchor="start" x="2923.53" y="-1140.13" font-family="Times New Roman,serif" font-size="14.00">study</text>
</g>
<!-- Entity30 -->
<g id="node18" class="node entity">
<title>Entity30</title>
<ellipse fill="none" stroke="black" cx="3716.69" cy="-1914.79" rx="50.09" ry="18"/>
<text text-anchor="start" x="3686.19" y="-1911.09" font-family="Times New Roman,serif" font-size="14.00">john trump</text>
</g>
<!-- Entity8&#45;&gt;Entity30 -->
<g id="edge17" class="edge verb">
<title>Entity8&#45;&gt;Entity30</title>
<path fill="none" stroke="black" d="M3147.29,-1871.45C3266.43,-1880.52 3537,-1901.11 3657.22,-1910.26"/>
<polygon fill="black" stroke="black" points="3657.1,-1913.77 3667.34,-1911.04 3657.63,-1906.79 3657.1,-1913.77"/>
<text text-anchor="start" x="3359.25" y="-1894.66" font-family="Times New Roman,serif" font-size="14.00">nephew</text>
</g>
<!-- Entity8&#45;&gt;Entity53 -->
<g id="edge26" class="edge verb">
<title>Entity8&#45;&gt;Entity53</title>
<path fill="none" stroke="black" d="M3081.15,-1884.89C3044.71,-1966.87 2893.43,-2307.28 2849.61,-2405.88"/>
<polygon fill="black" stroke="black" points="2846.35,-2404.6 2845.49,-2415.16 2852.75,-2407.45 2846.35,-2404.6"/>
<text text-anchor="start" x="2955.38" y="-2149.18" font-family="Times New Roman,serif" font-size="14.00">is</text>
</g>
<!-- Entity34 -->
<g id="node14" class="node entity">
<title>Entity34</title>
<ellipse fill="none" stroke="black" cx="1738.34" cy="-3315.4" rx="90.98" ry="18"/>
<text text-anchor="start" x="1676.34" y="-3311.7" font-family="Times New Roman,serif" font-size="14.00">emma hardinge&#45;britten</text>
</g>
<!-- Entity38 -->
<g id="node15" class="node entity">
<title>Entity38</title>
<ellipse fill="none" stroke="black" cx="2338.67" cy="-2808.76" rx="67.69" ry="18"/>
<text text-anchor="start" x="2294.67" y="-2805.06" font-family="Times New Roman,serif" font-size="14.00">abraham lincoln</text>
</g>
<!-- Entity34&#45;&gt;Entity38 -->
<g id="edge12" class="edge verb">
<title>Entity34&#45;&gt;Entity38</title>
<path fill="none" stroke="black" d="M1759.35,-3297.67C1849.87,-3221.28 2206.62,-2920.2 2310.28,-2832.72"/>
<polygon fill="black" stroke="black" points="2312.75,-2835.21 2318.13,-2826.09 2308.23,-2829.86 2312.75,-2835.21"/>
<text text-anchor="start" x="1955.82" y="-3068.99" font-family="Times New Roman,serif" font-size="14.00">spokesperson</text>
</g>
<!-- Entity59 -->
<g id="node37" class="node entity">
<title>Entity59</title>
<ellipse fill="none" stroke="black" cx="1184.28" cy="-3809.21" rx="85.29" ry="18"/>
<text text-anchor="start" x="1126.78" y="-3805.51" font-family="Times New Roman,serif" font-size="14.00">theosophical society</text>
</g>
<!-- Entity34&#45;&gt;Entity59 -->
<g id="edge42" class="edge verb">
<title>Entity34&#45;&gt;Entity59</title>
<path fill="none" stroke="black" d="M1718.62,-3332.98C1634.9,-3407.59 1308.76,-3698.27 1211.69,-3784.79"/>
<polygon fill="black" stroke="black" points="1209.19,-3782.32 1204.05,-3791.59 1213.85,-3787.55 1209.19,-3782.32"/>
<text text-anchor="start" x="1431.15" y="-3562.68" font-family="Times New Roman,serif" font-size="14.00">create</text>
</g>
<!-- Entity68 -->
<g id="node50" class="node entity">
<title>Entity68</title>
<ellipse fill="none" stroke="black" cx="1179.44" cy="-3395.27" rx="39.79" ry="18"/>
<text text-anchor="start" x="1156.94" y="-3391.57" font-family="Times New Roman,serif" font-size="14.00">medium</text>
</g>
<!-- Entity34&#45;&gt;Entity68 -->
<g id="edge46" class="edge verb">
<title>Entity34&#45;&gt;Entity68</title>
<path fill="none" stroke="black" d="M1664.41,-3325.97C1548.05,-3342.6 1325.38,-3374.42 1227.56,-3388.4"/>
<polygon fill="black" stroke="black" points="1226.77,-3384.97 1217.37,-3389.85 1227.76,-3391.9 1226.77,-3384.97"/>
<text text-anchor="start" x="1435.98" y="-3360.98" font-family="Times New Roman,serif" font-size="14.00">is</text>
</g>
<!-- Entity69 -->
<g id="node60" class="node entity">
<title>Entity69</title>
<ellipse fill="none" stroke="black" cx="1563.09" cy="-3924.52" rx="55.79" ry="18"/>
<text text-anchor="start" x="1528.09" y="-3920.82" font-family="Times New Roman,serif" font-size="14.00">orphic circle</text>
</g>
<!-- Entity34&#45;&gt;Entity69 -->
<g id="edge67" class="edge verb">
<title>Entity34&#45;&gt;Entity69</title>
<path fill="none" stroke="black" d="M1733.09,-3333.63C1708.15,-3420.33 1601.49,-3791.05 1571.16,-3896.46"/>
<polygon fill="black" stroke="black" points="1567.71,-3895.78 1568.31,-3906.36 1574.44,-3897.72 1567.71,-3895.78"/>
<text text-anchor="start" x="1606.13" y="-3618.85" font-family="Times New Roman,serif" font-size="14.00">member</text>
</g>
<!-- Entity38&#45;&gt;Entity53 -->
<g id="edge52" class="edge verb">
<title>Entity38&#45;&gt;Entity53</title>
<path fill="none" stroke="black" d="M2361.4,-2791.63C2443.15,-2730.03 2721.93,-2519.96 2810.46,-2453.26"/>
<polygon fill="black" stroke="black" points="2812.78,-2455.89 2818.66,-2447.08 2808.56,-2450.3 2812.78,-2455.89"/>
<text text-anchor="start" x="2575.93" y="-2626.24" font-family="Times New Roman,serif" font-size="14.00">is</text>
</g>
<!-- Entity26 -->
<g id="node16" class="node entity">
<title>Entity26</title>
<ellipse fill="none" stroke="black" cx="1781.74" cy="-1987.85" rx="53.89" ry="18"/>
<text text-anchor="start" x="1748.24" y="-1984.15" font-family="Times New Roman,serif" font-size="14.00">edgar casey</text>
</g>
<!-- Entity27 -->
<g id="node17" class="node entity">
<title>Entity27</title>
<ellipse fill="none" stroke="black" cx="2251.98" cy="-2269.03" rx="71.49" ry="18"/>
<text text-anchor="start" x="2204.98" y="-2265.33" font-family="Times New Roman,serif" font-size="14.00">woodrow wilson</text>
</g>
<!-- Entity26&#45;&gt;Entity27 -->
<g id="edge13" class="edge verb">
<title>Entity26&#45;&gt;Entity27</title>
<path fill="none" stroke="black" d="M1808.03,-2003.57C1887.31,-2050.97 2124.14,-2192.59 2215.48,-2247.21"/>
<polygon fill="black" stroke="black" points="2213.73,-2250.24 2224.11,-2252.37 2217.33,-2244.23 2213.73,-2250.24"/>
<text text-anchor="start" x="1975.76" y="-2129.19" font-family="Times New Roman,serif" font-size="14.00">advise</text>
</g>
<!-- Entity27&#45;&gt;Entity53 -->
<g id="edge39" class="edge verb">
<title>Entity27&#45;&gt;Entity53</title>
<path fill="none" stroke="black" d="M2299.91,-2282.43C2413.47,-2314.17 2697.07,-2393.45 2799.78,-2422.16"/>
<polygon fill="black" stroke="black" points="2798.85,-2425.53 2809.42,-2424.86 2800.74,-2418.79 2798.85,-2425.53"/>
<text text-anchor="start" x="2539.84" y="-2356.09" font-family="Times New Roman,serif" font-size="14.00">is</text>
</g>
<!-- Entity58 -->
<g id="node58" class="node entity">
<title>Entity58</title>
<ellipse fill="none" stroke="black" cx="1644.31" cy="-2228.9" rx="71.49" ry="18"/>
<text text-anchor="start" x="1597.31" y="-2225.2" font-family="Times New Roman,serif" font-size="14.00">leauge of nations</text>
</g>
<!-- Entity27&#45;&gt;Entity58 -->
<g id="edge65" class="edge verb">
<title>Entity27&#45;&gt;Entity58</title>
<path fill="none" stroke="black" d="M2182.57,-2264.45C2068.94,-2256.94 1843.92,-2242.08 1723.97,-2234.16"/>
<polygon fill="black" stroke="black" points="1723.96,-2230.65 1713.75,-2233.49 1723.5,-2237.64 1723.96,-2230.65"/>
<text text-anchor="start" x="1919.27" y="-2253.1" font-family="Times New Roman,serif" font-size="14.00">create</text>
</g>
<!-- Entity17 -->
<g id="node19" class="node entity">
<title>Entity17</title>
<ellipse fill="none" stroke="black" cx="4111.51" cy="-2171.12" rx="27" ry="18"/>
<text text-anchor="start" x="4103.51" y="-2167.42" font-family="Times New Roman,serif" font-size="14.00">cia</text>
</g>
<!-- Entity30&#45;&gt;Entity17 -->
<g id="edge14" class="edge verb">
<title>Entity30&#45;&gt;Entity17</title>
<path fill="none" stroke="black" d="M3741.09,-1930.63C3810.58,-1975.75 4009.27,-2104.75 4083.28,-2152.79"/>
<polygon fill="black" stroke="black" points="4081.78,-2155.99 4092.07,-2158.5 4085.59,-2150.12 4081.78,-2155.99"/>
<text text-anchor="start" x="3866.19" y="-2045.51" font-family="Times New Roman,serif" font-size="14.00">member</text>
</g>
<!-- Entity67 -->
<g id="node47" class="node entity">
<title>Entity67</title>
<ellipse fill="none" stroke="black" cx="3972.71" cy="-1537.51" rx="50.89" ry="18"/>
<text text-anchor="start" x="3941.71" y="-1533.81" font-family="Times New Roman,serif" font-size="14.00">nikola tesla</text>
</g>
<!-- Entity30&#45;&gt;Entity67 -->
<g id="edge41" class="edge verb">
<title>Entity30&#45;&gt;Entity67</title>
<path fill="none" stroke="black" d="M3728.7,-1897.1C3769.94,-1836.33 3905.96,-1635.88 3954.94,-1563.7"/>
<polygon fill="black" stroke="black" points="3958.01,-1565.4 3960.73,-1555.16 3952.22,-1561.47 3958.01,-1565.4"/>
<text text-anchor="start" x="3810.82" y="-1734.2" font-family="Times New Roman,serif" font-size="14.00">study</text>
</g>
<!-- Entity17&#45;&gt;Entity55 -->
<g id="edge28" class="edge verb">
<title>Entity17&#45;&gt;Entity55</title>
<path fill="none" stroke="black" d="M4137.46,-2176.42C4231.06,-2195.54 4553.16,-2261.32 4695.17,-2290.32"/>
<polygon fill="black" stroke="black" points="4694.58,-2293.77 4705.08,-2292.35 4695.98,-2286.92 4694.58,-2293.77"/>
<text text-anchor="start" x="4352.32" y="-2237.17" font-family="Times New Roman,serif" font-size="14.00">investigates</text>
</g>
<!-- Entity54 -->
<g id="node52" class="node entity">
<title>Entity54</title>
<ellipse fill="none" stroke="black" cx="3736.04" cy="-2274.29" rx="27" ry="18"/>
<text text-anchor="start" x="3726.54" y="-2270.59" font-family="Times New Roman,serif" font-size="14.00">ufo</text>
</g>
<!-- Entity17&#45;&gt;Entity54 -->
<g id="edge55" class="edge verb">
<title>Entity17&#45;&gt;Entity54</title>
<path fill="none" stroke="black" d="M4086.29,-2178.05C4020.96,-2196 3846.11,-2244.04 3771.06,-2264.66"/>
<polygon fill="black" stroke="black" points="3769.87,-2261.36 3761.15,-2267.39 3771.72,-2268.11 3769.87,-2261.36"/>
<text text-anchor="start" x="3864.67" y="-2225.16" font-family="Times New Roman,serif" font-size="14.00">investigates</text>
</g>
<!-- Entity40 -->
<g id="node20" class="node entity">
<title>Entity40</title>
<ellipse fill="none" stroke="black" cx="6013.88" cy="-3517.92" rx="57.69" ry="18"/>
<text text-anchor="start" x="5977.38" y="-3514.22" font-family="Times New Roman,serif" font-size="14.00">michael pane</text>
</g>
<!-- Entity37 -->
<g id="node21" class="node entity">
<title>Entity37</title>
<ellipse fill="none" stroke="black" cx="5621.95" cy="-3843.73" rx="74.99" ry="18"/>
<text text-anchor="start" x="5572.45" y="-3840.03" font-family="Times New Roman,serif" font-size="14.00">walter dornberger</text>
</g>
<!-- Entity40&#45;&gt;Entity37 -->
<g id="edge15" class="edge verb">
<title>Entity40&#45;&gt;Entity37</title>
<path fill="none" stroke="black" d="M5993.36,-3534.98C5928.32,-3589.05 5726.59,-3756.75 5650.97,-3819.61"/>
<polygon fill="black" stroke="black" points="5648.67,-3816.97 5643.22,-3826.05 5653.15,-3822.35 5648.67,-3816.97"/>
<text text-anchor="start" x="5768.16" y="-3681.09" font-family="Times New Roman,serif" font-size="14.00">employee</text>
</g>
<!-- Entity40&#45;&gt;Entity56 -->
<g id="edge63" class="edge verb">
<title>Entity40&#45;&gt;Entity56</title>
<path fill="none" stroke="black" d="M5993.02,-3501.11C5930.86,-3451.01 5746.75,-3302.63 5674.79,-3244.64"/>
<polygon fill="black" stroke="black" points="5676.57,-3241.58 5666.59,-3238.03 5672.18,-3247.03 5676.57,-3241.58"/>
<text text-anchor="start" x="5779.9" y="-3376.67" font-family="Times New Roman,serif" font-size="14.00">employee</text>
</g>
<!-- Entity51 -->
<g id="node22" class="node entity">
<title>Entity51</title>
<ellipse fill="none" stroke="black" cx="5152.15" cy="-4154.32" rx="32.49" ry="18"/>
<text text-anchor="start" x="5135.15" y="-4150.62" font-family="Times New Roman,serif" font-size="14.00">nsdap</text>
</g>
<!-- Entity37&#45;&gt;Entity51 -->
<g id="edge16" class="edge verb">
<title>Entity37&#45;&gt;Entity51</title>
<path fill="none" stroke="black" d="M5596.36,-3860.65C5515.73,-3913.96 5267.25,-4078.23 5181.56,-4134.88"/>
<polygon fill="black" stroke="black" points="5179.5,-4132.04 5173.08,-4140.48 5183.36,-4137.88 5179.5,-4132.04"/>
<text text-anchor="start" x="5342.96" y="-4001.56" font-family="Times New Roman,serif" font-size="14.00">member</text>
</g>
<!-- Entity37&#45;&gt;Entity56 -->
<g id="edge33" class="edge verb">
<title>Entity37&#45;&gt;Entity56</title>
<path fill="none" stroke="black" d="M5625.13,-3825.53C5633.96,-3737.56 5648.55,-3356.38 5647.45,-3249.18"/>
<polygon fill="black" stroke="black" points="5650.95,-3249.06 5647.28,-3239.12 5643.95,-3249.18 5650.95,-3249.06"/>
<text text-anchor="start" x="5582.29" y="-3526.15" font-family="Times New Roman,serif" font-size="14.00">employee</text>
</g>
<!-- Entity37&#45;&gt;Entity56 -->
<g id="edge43" class="edge verb">
<title>Entity37&#45;&gt;Entity56</title>
<path fill="none" stroke="black" d="M5620.17,-3825.67C5617.96,-3738.04 5632.18,-3356.88 5641.39,-3249.36"/>
<polygon fill="black" stroke="black" points="5644.89,-3249.55 5642.32,-3239.28 5637.91,-3248.91 5644.89,-3249.55"/>
<text text-anchor="start" x="5551.78" y="-3541.32" font-family="Times New Roman,serif" font-size="14.00">vice&#45;president</text>
</g>
<!-- Entity72 -->
<g id="node48" class="node entity">
<title>Entity72</title>
<ellipse fill="none" stroke="black" cx="5577.89" cy="-3952.46" rx="90.98" ry="18"/>
<text text-anchor="start" x="5515.89" y="-3948.76" font-family="Times New Roman,serif" font-size="14.00">nsdap rocket program</text>
</g>
<!-- Entity37&#45;&gt;Entity72 -->
<g id="edge44" class="edge verb">
<title>Entity37&#45;&gt;Entity72</title>
<path fill="none" stroke="black" d="M5614.68,-3861.68C5607.69,-3878.92 5597.05,-3905.19 5589,-3925.04"/>
<polygon fill="black" stroke="black" points="5585.69,-3923.89 5585.18,-3934.48 5592.18,-3926.52 5585.69,-3923.89"/>
<text text-anchor="start" x="5567.84" y="-3897.16" font-family="Times New Roman,serif" font-size="14.00">create</text>
</g>
<!-- Entity73 -->
<g id="node61" class="node entity">
<title>Entity73</title>
<ellipse fill="none" stroke="black" cx="6164.08" cy="-4118.27" rx="65.79" ry="18"/>
<text text-anchor="start" x="6121.58" y="-4114.57" font-family="Times New Roman,serif" font-size="14.00">x series aircraft</text>
</g>
<!-- Entity37&#45;&gt;Entity73 -->
<g id="edge68" class="edge verb">
<title>Entity37&#45;&gt;Entity73</title>
<path fill="none" stroke="black" d="M5654.24,-3860.08C5747.97,-3907.54 6019.95,-4045.28 6123.45,-4097.69"/>
<polygon fill="black" stroke="black" points="6122.14,-4100.95 6132.64,-4102.34 6125.3,-4094.7 6122.14,-4100.95"/>
<text text-anchor="start" x="5854.85" y="-3982.69" font-family="Times New Roman,serif" font-size="14.00">create</text>
</g>
<!-- Entity74 -->
<g id="node41" class="node entity">
<title>Entity74</title>
<ellipse fill="none" stroke="black" cx="4747.56" cy="-4050.65" rx="38.99" ry="18"/>
<text text-anchor="start" x="4725.56" y="-4046.95" font-family="Times New Roman,serif" font-size="14.00">far right</text>
</g>
<!-- Entity51&#45;&gt;Entity74 -->
<g id="edge48" class="edge verb">
<title>Entity51&#45;&gt;Entity74</title>
<path fill="none" stroke="black" d="M5122.4,-4146.7C5051.97,-4128.65 4874.77,-4083.25 4791.75,-4061.98"/>
<polygon fill="black" stroke="black" points="4792.43,-4058.54 4781.87,-4059.44 4790.69,-4065.32 4792.43,-4058.54"/>
<text text-anchor="start" x="4911.07" y="-4108.14" font-family="Times New Roman,serif" font-size="14.00">member</text>
</g>
<!-- Entity50 -->
<g id="node23" class="node entity">
<title>Entity50</title>
<ellipse fill="none" stroke="black" cx="2875.55" cy="-2145.82" rx="37.89" ry="18"/>
<text text-anchor="start" x="2854.55" y="-2142.12" font-family="Times New Roman,serif" font-size="14.00">hunt oil</text>
</g>
<!-- Entity48 -->
<g id="node24" class="node entity">
<title>Entity48</title>
<ellipse fill="none" stroke="black" cx="2919.4" cy="-2265.73" rx="77.99" ry="18"/>
<text text-anchor="start" x="2867.4" y="-2262.03" font-family="Times New Roman,serif" font-size="14.00">dwight eisenhower</text>
</g>
<!-- Entity50&#45;&gt;Entity48 -->
<g id="edge18" class="edge verb">
<title>Entity50&#45;&gt;Entity48</title>
<path fill="none" stroke="black" d="M2882.11,-2163.77C2889.32,-2183.46 2900.96,-2215.3 2909.32,-2238.16"/>
<polygon fill="black" stroke="black" points="2906.07,-2239.46 2912.79,-2247.65 2912.65,-2237.06 2906.07,-2239.46"/>
<text text-anchor="start" x="2869.72" y="-2204.77" font-family="Times New Roman,serif" font-size="14.00">fund</text>
</g>
<!-- Entity48&#45;&gt;Entity53 -->
<g id="edge53" class="edge verb">
<title>Entity48&#45;&gt;Entity53</title>
<path fill="none" stroke="black" d="M2910.5,-2283.92C2896.08,-2313.39 2867.54,-2371.72 2850.78,-2405.95"/>
<polygon fill="black" stroke="black" points="2847.45,-2404.81 2846.19,-2415.34 2853.73,-2407.89 2847.45,-2404.81"/>
<text text-anchor="start" x="2870.64" y="-2348.74" font-family="Times New Roman,serif" font-size="14.00">is</text>
</g>
<!-- Entity46 -->
<g id="node25" class="node entity">
<title>Entity46</title>
<ellipse fill="none" stroke="black" cx="5929.75" cy="-4281.97" rx="46.29" ry="18"/>
<text text-anchor="start" x="5902.25" y="-4278.27" font-family="Times New Roman,serif" font-size="14.00">van braun</text>
</g>
<!-- Entity46&#45;&gt;Entity37 -->
<g id="edge19" class="edge verb">
<title>Entity46&#45;&gt;Entity37</title>
<path fill="none" stroke="black" d="M5917.5,-4264.52C5869.92,-4196.78 5697.31,-3951.02 5640.34,-3869.91"/>
<polygon fill="black" stroke="black" points="5643.2,-3867.88 5634.58,-3861.71 5637.47,-3871.91 5643.2,-3867.88"/>
<text text-anchor="start" x="5724.92" y="-4071.01" font-family="Times New Roman,serif" font-size="14.00">employee</text>
</g>
<!-- Entity46&#45;&gt;Entity72 -->
<g id="edge47" class="edge verb">
<title>Entity46&#45;&gt;Entity72</title>
<path fill="none" stroke="black" d="M5911.82,-4265.18C5854.11,-4211.13 5672.95,-4041.48 5604.47,-3977.35"/>
<polygon fill="black" stroke="black" points="5606.76,-3974.69 5597.07,-3970.41 5601.97,-3979.8 5606.76,-3974.69"/>
<text text-anchor="start" x="5704.15" y="-4125.06" font-family="Times New Roman,serif" font-size="14.00">employee</text>
</g>
<!-- Entity49 -->
<g id="node26" class="node entity">
<title>Entity49</title>
<ellipse fill="none" stroke="black" cx="5264.18" cy="-4547.46" rx="49.29" ry="18"/>
<text text-anchor="start" x="5234.18" y="-4543.76" font-family="Times New Roman,serif" font-size="14.00">adolf hitler</text>
</g>
<!-- Entity49&#45;&gt;Entity51 -->
<g id="edge20" class="edge verb">
<title>Entity49&#45;&gt;Entity51</title>
<path fill="none" stroke="black" d="M5259.07,-4529.55C5241.25,-4467 5181.69,-4257.99 5160.07,-4182.13"/>
<polygon fill="black" stroke="black" points="5163.39,-4181 5157.28,-4172.34 5156.66,-4182.91 5163.39,-4181"/>
<text text-anchor="start" x="5175.57" y="-4359.64" font-family="Times New Roman,serif" font-size="14.00">create</text>
</g>
<!-- Entity45&#45;&gt;Entity74 -->
<g id="edge34" class="edge verb">
<title>Entity45&#45;&gt;Entity74</title>
<path fill="none" stroke="black" d="M4289.42,-3809.29C4375.04,-3854.39 4621.5,-3984.24 4712.91,-4032.4"/>
<polygon fill="black" stroke="black" points="4711.28,-4035.5 4721.76,-4037.06 4714.55,-4029.3 4711.28,-4035.5"/>
<text text-anchor="start" x="4455.16" y="-3924.64" font-family="Times New Roman,serif" font-size="14.00">member</text>
</g>
<!-- Entity79 -->
<g id="node30" class="node entity">
<title>Entity79</title>
<ellipse fill="none" stroke="black" cx="2627.94" cy="-1751.66" rx="27" ry="18"/>
<text text-anchor="start" x="2617.94" y="-1747.96" font-family="Times New Roman,serif" font-size="14.00">foo</text>
</g>
<!-- Entity80 -->
<g id="node31" class="node entity">
<title>Entity80</title>
<ellipse fill="none" stroke="black" cx="2715.66" cy="-1863.64" rx="27" ry="18"/>
<text text-anchor="start" x="2705.66" y="-1859.94" font-family="Times New Roman,serif" font-size="14.00">baz</text>
</g>
<!-- Entity79&#45;&gt;Entity80 -->
<g id="edge24" class="edge verb">
<title>Entity79&#45;&gt;Entity80</title>
<path fill="none" stroke="black" d="M2640.51,-1767.7C2655.23,-1786.5 2679.76,-1817.82 2696.78,-1839.53"/>
<polygon fill="black" stroke="black" points="2694.19,-1841.91 2703.11,-1847.62 2699.7,-1837.59 2694.19,-1841.91"/>
<text text-anchor="start" x="2648.64" y="-1807.42" font-family="Times New Roman,serif" font-size="14.00">baz</text>
</g>
<!-- Entity13 -->
<g id="node32" class="node entity">
<title>Entity13</title>
<ellipse fill="none" stroke="black" cx="2490.08" cy="-2151.25" rx="58.49" ry="18"/>
<text text-anchor="start" x="2453.08" y="-2147.55" font-family="Times New Roman,serif" font-size="14.00">richard nixon</text>
</g>
<!-- Entity13&#45;&gt;Entity53 -->
<g id="edge25" class="edge verb">
<title>Entity13&#45;&gt;Entity53</title>
<path fill="none" stroke="black" d="M2511.04,-2168.23C2571.29,-2217.02 2744.85,-2357.58 2811.33,-2411.42"/>
<polygon fill="black" stroke="black" points="2809.28,-2414.26 2819.25,-2417.84 2813.69,-2408.82 2809.28,-2414.26"/>
<text text-anchor="start" x="2651.19" y="-2293.62" font-family="Times New Roman,serif" font-size="14.00">is</text>
</g>
<!-- Entity10 -->
<g id="node33" class="node entity">
<title>Entity10</title>
<ellipse fill="none" stroke="black" cx="2731.85" cy="-2904.61" rx="56.59" ry="18"/>
<text text-anchor="start" x="2696.35" y="-2900.91" font-family="Times New Roman,serif" font-size="14.00">harry truman</text>
</g>
<!-- Entity10&#45;&gt;Entity53 -->
<g id="edge27" class="edge verb">
<title>Entity10&#45;&gt;Entity53</title>
<path fill="none" stroke="black" d="M2735.94,-2886.4C2752.13,-2814.21 2811.86,-2547.83 2831.42,-2460.6"/>
<polygon fill="black" stroke="black" points="2834.88,-2461.18 2833.66,-2450.65 2828.05,-2459.64 2834.88,-2461.18"/>
<text text-anchor="start" x="2773.68" y="-2677.3" font-family="Times New Roman,serif" font-size="14.00">is</text>
</g>
<!-- Entity57 -->
<g id="node43" class="node entity">
<title>Entity57</title>
<ellipse fill="none" stroke="black" cx="2574.99" cy="-3387.31" rx="55.79" ry="18"/>
<text text-anchor="start" x="2539.99" y="-3383.61" font-family="Times New Roman,serif" font-size="14.00">freemasonry</text>
</g>
<!-- Entity10&#45;&gt;Entity57 -->
<g id="edge36" class="edge verb">
<title>Entity10&#45;&gt;Entity57</title>
<path fill="none" stroke="black" d="M2725.99,-2922.65C2702.21,-2995.83 2612.84,-3270.84 2584.01,-3359.54"/>
<polygon fill="black" stroke="black" points="2580.64,-3358.59 2580.88,-3369.18 2587.3,-3360.75 2580.64,-3358.59"/>
<text text-anchor="start" x="2609" y="-3144.9" font-family="Times New Roman,serif" font-size="14.00">member</text>
</g>
<!-- Entity22 -->
<g id="node35" class="node entity">
<title>Entity22</title>
<ellipse fill="none" stroke="black" cx="646.82" cy="-4149.59" rx="58.49" ry="18"/>
<text text-anchor="start" x="609.82" y="-4145.89" font-family="Times New Roman,serif" font-size="14.00">rudolf steiner</text>
</g>
<!-- Entity60 -->
<g id="node36" class="node entity">
<title>Entity60</title>
<ellipse fill="none" stroke="black" cx="101.69" cy="-4476.8" rx="102.08" ry="18"/>
<text text-anchor="start" x="31.19" y="-4473.1" font-family="Times New Roman,serif" font-size="14.00">anthroposophical society</text>
</g>
<!-- Entity22&#45;&gt;Entity60 -->
<g id="edge29" class="edge verb">
<title>Entity22&#45;&gt;Entity60</title>
<path fill="none" stroke="black" d="M619.78,-4165.82C530.21,-4219.58 242.98,-4391.99 139.39,-4454.17"/>
<polygon fill="black" stroke="black" points="137.29,-4451.35 130.52,-4459.49 140.9,-4457.35 137.29,-4451.35"/>
<text text-anchor="start" x="345.59" y="-4313.8" font-family="Times New Roman,serif" font-size="14.00">create</text>
</g>
<!-- Entity22&#45;&gt;Entity59 -->
<g id="edge30" class="edge verb">
<title>Entity22&#45;&gt;Entity59</title>
<path fill="none" stroke="black" d="M672.74,-4133.17C760.57,-4077.55 1047.05,-3896.12 1148.37,-3831.95"/>
<polygon fill="black" stroke="black" points="1150.46,-3834.78 1157.03,-3826.47 1146.71,-3828.86 1150.46,-3834.78"/>
<text text-anchor="start" x="864.56" y="-3986.36" font-family="Times New Roman,serif" font-size="14.00">member</text>
</g>
<!-- Entity44 -->
<g id="node39" class="node entity">
<title>Entity44</title>
<ellipse fill="none" stroke="black" cx="3810.94" cy="-1173.66" rx="53.89" ry="18"/>
<text text-anchor="start" x="3777.44" y="-1169.96" font-family="Times New Roman,serif" font-size="14.00">black magic</text>
</g>
<!-- Entity71 -->
<g id="node40" class="node entity">
<title>Entity71</title>
<ellipse fill="none" stroke="black" cx="3898.66" cy="-1285.64" rx="28.7" ry="18"/>
<text text-anchor="start" x="3884.66" y="-1281.94" font-family="Times New Roman,serif" font-size="14.00">x left</text>
</g>
<!-- Entity44&#45;&gt;Entity71 -->
<g id="edge32" class="edge verb">
<title>Entity44&#45;&gt;Entity71</title>
<path fill="none" stroke="black" d="M3824.64,-1191.16C3839.45,-1210.05 3863.14,-1240.29 3879.72,-1261.45"/>
<polygon fill="black" stroke="black" points="3876.98,-1263.64 3885.9,-1269.36 3882.49,-1259.32 3876.98,-1263.64"/>
<text text-anchor="start" x="3806.18" y="-1230.11" font-family="Times New Roman,serif" font-size="14.00">member</text>
</g>
<!-- Entity21 -->
<g id="node42" class="node entity">
<title>Entity21</title>
<ellipse fill="none" stroke="black" cx="2965.69" cy="-2755.01" rx="35.19" ry="18"/>
<text text-anchor="start" x="2946.69" y="-2751.31" font-family="Times New Roman,serif" font-size="14.00">obama</text>
</g>
<!-- Entity21&#45;&gt;Entity53 -->
<g id="edge35" class="edge verb">
<title>Entity21&#45;&gt;Entity53</title>
<path fill="none" stroke="black" d="M2958.62,-2737.22C2937.38,-2683.74 2873.97,-2524.13 2848.47,-2459.93"/>
<polygon fill="black" stroke="black" points="2851.66,-2458.48 2844.71,-2450.48 2845.15,-2461.07 2851.66,-2458.48"/>
<text text-anchor="start" x="2893.55" y="-2602.38" font-family="Times New Roman,serif" font-size="14.00">is</text>
</g>
<!-- Entity14 -->
<g id="node45" class="node entity">
<title>Entity14</title>
<ellipse fill="none" stroke="black" cx="3292.47" cy="-2363.55" rx="31.4" ry="18"/>
<text text-anchor="start" x="3276.47" y="-2359.85" font-family="Times New Roman,serif" font-size="14.00">carter</text>
</g>
<!-- Entity14&#45;&gt;Entity53 -->
<g id="edge38" class="edge verb">
<title>Entity14&#45;&gt;Entity53</title>
<path fill="none" stroke="black" d="M3262.27,-2368.15C3182.79,-2380.24 2967.72,-2412.97 2877.91,-2426.63"/>
<polygon fill="black" stroke="black" points="2877.21,-2423.19 2867.85,-2428.16 2878.27,-2430.11 2877.21,-2423.19"/>
<text text-anchor="start" x="3060.09" y="-2401.19" font-family="Times New Roman,serif" font-size="14.00">is</text>
</g>
<!-- Entity14&#45;&gt;Entity54 -->
<g id="edge64" class="edge verb">
<title>Entity14&#45;&gt;Entity54</title>
<path fill="none" stroke="black" d="M3322.26,-2357.56C3401.04,-2341.7 3614.66,-2298.71 3700.06,-2281.53"/>
<polygon fill="black" stroke="black" points="3700.94,-2284.92 3710.06,-2279.52 3699.56,-2278.06 3700.94,-2284.92"/>
<text text-anchor="start" x="3469.16" y="-2323.34" font-family="Times New Roman,serif" font-size="14.00">witness</text>
</g>
<!-- Entity35 -->
<g id="node54" class="node entity">
<title>Entity35</title>
<ellipse fill="none" stroke="black" cx="4085.94" cy="-2907.66" rx="39.79" ry="18"/>
<text text-anchor="start" x="4063.44" y="-2903.96" font-family="Times New Roman,serif" font-size="14.00">crowley</text>
</g>
<!-- Entity70 -->
<g id="node55" class="node entity">
<title>Entity70</title>
<ellipse fill="none" stroke="black" cx="4173.66" cy="-3019.64" rx="38.99" ry="18"/>
<text text-anchor="start" x="4151.66" y="-3015.94" font-family="Times New Roman,serif" font-size="14.00">x magic</text>
</g>
<!-- Entity35&#45;&gt;Entity70 -->
<g id="edge57" class="edge verb">
<title>Entity35&#45;&gt;Entity70</title>
<path fill="none" stroke="black" d="M4099.26,-2924.67C4113.82,-2943.25 4137.28,-2973.2 4153.96,-2994.49"/>
<polygon fill="black" stroke="black" points="4151.29,-2996.76 4160.21,-3002.47 4156.8,-2992.44 4151.29,-2996.76"/>
<text text-anchor="start" x="4080.61" y="-2963.38" font-family="Times New Roman,serif" font-size="14.00">member</text>
</g>
<!-- Entity24 -->
<g id="node56" class="node entity">
<title>Entity24</title>
<ellipse fill="none" stroke="black" cx="1955.11" cy="-3915.78" rx="73.39" ry="18"/>
<text text-anchor="start" x="1906.61" y="-3912.08" font-family="Times New Roman,serif" font-size="14.00">madam blavatsky</text>
</g>
<!-- Entity24&#45;&gt;Entity59 -->
<g id="edge61" class="edge verb">
<title>Entity24&#45;&gt;Entity59</title>
<path fill="none" stroke="black" d="M1891.04,-3906.92C1751.55,-3887.63 1420.48,-3841.86 1266.13,-3820.53"/>
<polygon fill="black" stroke="black" points="1266.16,-3817 1255.78,-3819.1 1265.2,-3823.93 1266.16,-3817"/>
<text text-anchor="start" x="1544.59" y="-3867.52" font-family="Times New Roman,serif" font-size="14.00">create</text>
</g>
<!-- Entity31 -->
<g id="node57" class="node entity">
<title>Entity31</title>
<ellipse fill="none" stroke="black" cx="2661.36" cy="-17.51" rx="69.59" ry="18"/>
<text text-anchor="start" x="2615.86" y="-13.81" font-family="Times New Roman,serif" font-size="14.00">andrew breitbart</text>
</g>
<!-- Entity31&#45;&gt;Entity65 -->
<g id="edge62" class="edge verb">
<title>Entity31&#45;&gt;Entity65</title>
<path fill="none" stroke="black" d="M2665.49,-35.57C2684.13,-117.2 2760.6,-452.12 2783.27,-551.43"/>
<polygon fill="black" stroke="black" points="2779.89,-552.35 2785.53,-561.32 2786.72,-550.8 2779.89,-552.35"/>
<text text-anchor="start" x="2690.38" y="-297.3" font-family="Times New Roman,serif" font-size="14.00">create</text>
</g>
</g>
</svg>
