<?xml version="1.0" encoding="UTF-8" standalone="no"?>
<?xml-stylesheet href="../styles.css" type="text/css"?>
<!DOCTYPE svg PUBLIC "-//W3C//DTD SVG 1.1//EN"
 "http://www.w3.org/Graphics/SVG/1.1/DTD/svg11.dtd">
<!-- Generated by graphviz version 2.47.3 (20210619.1520)
 -->
<!-- Title: G Pages: 1 -->
<svg width="6573pt" height="5274pt"
 viewBox="0.00 0.00 6573.00 5274.00" xmlns="http://www.w3.org/2000/svg" xmlns:xlink="http://www.w3.org/1999/xlink">
<g id="graph0" class="graph" transform="scale(1 1) rotate(0) translate(4 5270)">
<title>G</title>
<polygon fill="white" stroke="transparent" points="-4,4 -4,-5270 6569,-5270 6569,4 -4,4"/>
<!-- Entity3 -->
<g id="node1" class="node entity">
<title>Entity3</title>
<ellipse fill="none" stroke="black" cx="1198.99" cy="-1639.91" rx="56.59" ry="18"/>
<text text-anchor="start" x="1163.49" y="-1636.21" font-family="Times New Roman,serif" font-size="14.00">arthur young</text>
</g>
<!-- Entity56 -->
<g id="node2" class="node entity">
<title>Entity56</title>
<ellipse fill="none" stroke="black" cx="1385.34" cy="-1056.86" rx="53.89" ry="18"/>
<text text-anchor="start" x="1351.84" y="-1053.16" font-family="Times New Roman,serif" font-size="14.00">bell aviation</text>
</g>
<!-- Entity3&#45;&gt;Entity56 -->
<g id="edge1" class="edge verb">
<title>Entity3&#45;&gt;Entity56</title>
<path fill="none" stroke="black" d="M1204.78,-1621.82C1231.59,-1537.92 1343.93,-1186.44 1376.47,-1084.61"/>
<polygon fill="black" stroke="black" points="1379.82,-1085.62 1379.53,-1075.03 1373.16,-1083.49 1379.82,-1085.62"/>
<text text-anchor="start" x="1256.62" y="-1357.02" font-family="Times New Roman,serif" font-size="14.00">create</text>
</g>
<!-- Entity55 -->
<g id="node4" class="node entity">
<title>Entity55</title>
<ellipse fill="none" stroke="black" cx="1608.13" cy="-2274.88" rx="77.19" ry="18"/>
<text text-anchor="start" x="1556.63" y="-2271.18" font-family="Times New Roman,serif" font-size="14.00">psi&#45;consciousness</text>
</g>
<!-- Entity3&#45;&gt;Entity55 -->
<g id="edge3" class="edge verb">
<title>Entity3&#45;&gt;Entity55</title>
<path fill="none" stroke="black" d="M1210.36,-1657.55C1267.42,-1746.11 1522.53,-2142.03 1591.11,-2248.46"/>
<polygon fill="black" stroke="black" points="1588.26,-2250.51 1596.62,-2257.02 1594.15,-2246.71 1588.26,-2250.51"/>
<text text-anchor="start" x="1369.74" y="-1956.81" font-family="Times New Roman,serif" font-size="14.00">study</text>
</g>
<!-- Entity9 -->
<g id="node56" class="node entity">
<title>Entity9</title>
<ellipse fill="none" stroke="black" cx="654.43" cy="-1552.72" rx="38.19" ry="18"/>
<text text-anchor="start" x="632.93" y="-1549.02" font-family="Times New Roman,serif" font-size="14.00">the nine</text>
</g>
<!-- Entity3&#45;&gt;Entity9 -->
<g id="edge62" class="edge verb">
<title>Entity3&#45;&gt;Entity9</title>
<path fill="none" stroke="black" d="M1148.25,-1631.78C1042.95,-1614.92 802.09,-1576.36 700.73,-1560.13"/>
<polygon fill="black" stroke="black" points="701.22,-1556.66 690.8,-1558.54 700.12,-1563.58 701.22,-1556.66"/>
<text text-anchor="start" x="878.49" y="-1599.76" font-family="Times New Roman,serif" font-size="14.00">member</text>
</g>
<!-- Entity6 -->
<g id="node3" class="node entity">
<title>Entity6</title>
<ellipse fill="none" stroke="black" cx="1058.63" cy="-2176.42" rx="68.49" ry="18"/>
<text text-anchor="start" x="1014.13" y="-2172.72" font-family="Times New Roman,serif" font-size="14.00">jeffrey mishlove</text>
</g>
<!-- Entity6&#45;&gt;Entity55 -->
<g id="edge2" class="edge verb">
<title>Entity6&#45;&gt;Entity55</title>
<path fill="none" stroke="black" d="M1107.16,-2189.24C1201.84,-2209.53 1412,-2247.47 1527.77,-2265.48"/>
<polygon fill="black" stroke="black" points="1527.57,-2268.99 1537.99,-2267.05 1528.64,-2262.07 1527.57,-2268.99"/>
<text text-anchor="start" x="1286.47" y="-2231.16" font-family="Times New Roman,serif" font-size="14.00">study</text>
</g>
<!-- Entity6&#45;&gt;Entity55 -->
<g id="edge9" class="edge verb">
<title>Entity6&#45;&gt;Entity55</title>
<path fill="none" stroke="black" d="M1121.92,-2183.21C1228.32,-2199.19 1441.69,-2237.43 1546.78,-2259.35"/>
<polygon fill="black" stroke="black" points="1546.1,-2262.78 1556.6,-2261.41 1547.54,-2255.93 1546.1,-2262.78"/>
<text text-anchor="start" x="1270.35" y="-2210.08" font-family="Times New Roman,serif" font-size="14.00">investigates</text>
</g>
<!-- Entity1 -->
<g id="node5" class="node entity">
<title>Entity1</title>
<ellipse fill="none" stroke="black" cx="555.22" cy="-1940.6" rx="41.69" ry="18"/>
<text text-anchor="start" x="531.22" y="-1936.9" font-family="Times New Roman,serif" font-size="14.00">uri geller</text>
</g>
<!-- Entity6&#45;&gt;Entity1 -->
<g id="edge4" class="edge verb">
<title>Entity6&#45;&gt;Entity1</title>
<path fill="none" stroke="black" d="M1024.82,-2160.58C934.34,-2118.2 687.19,-2002.42 592.66,-1958.14"/>
<polygon fill="black" stroke="black" points="594.02,-1954.91 583.48,-1953.84 591.05,-1961.25 594.02,-1954.91"/>
<text text-anchor="start" x="760.74" y="-2063.16" font-family="Times New Roman,serif" font-size="14.00">promote</text>
</g>
<!-- Entity1&#45;&gt;Entity9 -->
<g id="edge64" class="edge verb">
<title>Entity1&#45;&gt;Entity9</title>
<path fill="none" stroke="black" d="M559.8,-1922.67C575.64,-1860.77 628.08,-1655.73 647.3,-1580.61"/>
<polygon fill="black" stroke="black" points="650.7,-1581.46 649.78,-1570.91 643.91,-1579.73 650.7,-1581.46"/>
<text text-anchor="start" x="499.55" y="-1755.44" font-family="Times New Roman,serif" font-size="14.00">claiemd to channel</text>
</g>
<!-- Entity11 -->
<g id="node6" class="node entity">
<title>Entity11</title>
<ellipse fill="none" stroke="black" cx="3439.69" cy="-3142.86" rx="68.49" ry="18"/>
<text text-anchor="start" x="3395.19" y="-3139.16" font-family="Times New Roman,serif" font-size="14.00">george hw bush</text>
</g>
<!-- Entity18 -->
<g id="node7" class="node entity">
<title>Entity18</title>
<ellipse fill="none" stroke="black" cx="3010.87" cy="-3015.57" rx="63.89" ry="18"/>
<text text-anchor="start" x="2969.87" y="-3011.87" font-family="Times New Roman,serif" font-size="14.00">george w bush</text>
</g>
<!-- Entity11&#45;&gt;Entity18 -->
<g id="edge5" class="edge verb">
<title>Entity11&#45;&gt;Entity18</title>
<path fill="none" stroke="black" d="M3394.2,-3129.36C3314.48,-3105.69 3149.9,-3056.84 3064.67,-3031.54"/>
<polygon fill="black" stroke="black" points="3065.51,-3028.14 3054.93,-3028.65 3063.52,-3034.85 3065.51,-3028.14"/>
<text text-anchor="start" x="3197.44" y="-3084.25" font-family="Times New Roman,serif" font-size="14.00">father</text>
</g>
<!-- Entity53 -->
<g id="node15" class="node entity">
<title>Entity53</title>
<ellipse fill="none" stroke="black" cx="3052.17" cy="-2907.67" rx="31.4" ry="18"/>
<text text-anchor="start" x="3036.17" y="-2903.97" font-family="Times New Roman,serif" font-size="14.00">potus</text>
</g>
<!-- Entity11&#45;&gt;Entity53 -->
<g id="edge17" class="edge verb">
<title>Entity11&#45;&gt;Entity53</title>
<path fill="none" stroke="black" d="M3412.44,-3126.32C3342.39,-3083.8 3156.39,-2970.91 3082.78,-2926.24"/>
<polygon fill="black" stroke="black" points="3084.33,-2923.09 3073.97,-2920.89 3080.7,-2929.07 3084.33,-2923.09"/>
<text text-anchor="start" x="3237.61" y="-3030.08" font-family="Times New Roman,serif" font-size="14.00">is</text>
</g>
<!-- Entity18&#45;&gt;Entity53 -->
<g id="edge19" class="edge verb">
<title>Entity18&#45;&gt;Entity53</title>
<path fill="none" stroke="black" d="M3017.88,-2997.27C3024.42,-2980.17 3034.28,-2954.41 3041.75,-2934.9"/>
<polygon fill="black" stroke="black" points="3045.1,-2935.93 3045.41,-2925.34 3038.56,-2933.43 3045.1,-2935.93"/>
<text text-anchor="start" x="3019.81" y="-2969.88" font-family="Times New Roman,serif" font-size="14.00">is</text>
</g>
<!-- Entity17 -->
<g id="node8" class="node entity">
<title>Entity17</title>
<ellipse fill="none" stroke="black" cx="2000.28" cy="-2710.3" rx="27" ry="18"/>
<text text-anchor="start" x="1992.28" y="-2706.6" font-family="Times New Roman,serif" font-size="14.00">cia</text>
</g>
<!-- Entity17&#45;&gt;Entity55 -->
<g id="edge6" class="edge verb">
<title>Entity17&#45;&gt;Entity55</title>
<path fill="none" stroke="black" d="M1986.33,-2694.8C1928.02,-2630.06 1703.6,-2380.87 1630.96,-2300.22"/>
<polygon fill="black" stroke="black" points="1633.32,-2297.61 1624.02,-2292.52 1628.12,-2302.3 1633.32,-2297.61"/>
<text text-anchor="start" x="1744.64" y="-2501.31" font-family="Times New Roman,serif" font-size="14.00">investigates</text>
</g>
<!-- Entity54 -->
<g id="node20" class="node entity">
<title>Entity54</title>
<ellipse fill="none" stroke="black" cx="2339.07" cy="-2672.68" rx="27" ry="18"/>
<text text-anchor="start" x="2329.57" y="-2668.98" font-family="Times New Roman,serif" font-size="14.00">ufo</text>
</g>
<!-- Entity17&#45;&gt;Entity54 -->
<g id="edge18" class="edge verb">
<title>Entity17&#45;&gt;Entity54</title>
<path fill="none" stroke="black" d="M2027.15,-2707.31C2087.44,-2700.62 2233.58,-2684.39 2302.26,-2676.77"/>
<polygon fill="black" stroke="black" points="2302.65,-2680.24 2312.2,-2675.66 2301.88,-2673.29 2302.65,-2680.24"/>
<text text-anchor="start" x="2100.71" y="-2695.84" font-family="Times New Roman,serif" font-size="14.00">investigates</text>
</g>
<!-- Entity26 -->
<g id="node9" class="node entity">
<title>Entity26</title>
<ellipse fill="none" stroke="black" cx="1885.49" cy="-3052.67" rx="53.89" ry="18"/>
<text text-anchor="start" x="1851.99" y="-3048.97" font-family="Times New Roman,serif" font-size="14.00">edgar casey</text>
</g>
<!-- Entity27 -->
<g id="node10" class="node entity">
<title>Entity27</title>
<ellipse fill="none" stroke="black" cx="2414.6" cy="-2871.51" rx="71.49" ry="18"/>
<text text-anchor="start" x="2367.6" y="-2867.81" font-family="Times New Roman,serif" font-size="14.00">woodrow wilson</text>
</g>
<!-- Entity26&#45;&gt;Entity27 -->
<g id="edge7" class="edge verb">
<title>Entity26&#45;&gt;Entity27</title>
<path fill="none" stroke="black" d="M1923.54,-3039.65C2016.72,-3007.74 2256.42,-2925.67 2362.62,-2889.31"/>
<polygon fill="black" stroke="black" points="2363.84,-2892.59 2372.17,-2886.04 2361.58,-2885.97 2363.84,-2892.59"/>
<text text-anchor="start" x="2107.08" y="-2968.28" font-family="Times New Roman,serif" font-size="14.00">advise</text>
</g>
<!-- Entity27&#45;&gt;Entity53 -->
<g id="edge24" class="edge verb">
<title>Entity27&#45;&gt;Entity53</title>
<path fill="none" stroke="black" d="M2484.35,-2875.47C2617.41,-2883.01 2903.73,-2899.25 3010.72,-2905.32"/>
<polygon fill="black" stroke="black" points="3010.62,-2908.82 3020.8,-2905.89 3011.02,-2901.83 3010.62,-2908.82"/>
<text text-anchor="start" x="2737.54" y="-2894.19" font-family="Times New Roman,serif" font-size="14.00">is</text>
</g>
<!-- Entity58 -->
<g id="node32" class="node entity">
<title>Entity58</title>
<ellipse fill="none" stroke="black" cx="1704.73" cy="-2679.73" rx="71.49" ry="18"/>
<text text-anchor="start" x="1657.73" y="-2676.03" font-family="Times New Roman,serif" font-size="14.00">leauge of nations</text>
</g>
<!-- Entity27&#45;&gt;Entity58 -->
<g id="edge30" class="edge verb">
<title>Entity27&#45;&gt;Entity58</title>
<path fill="none" stroke="black" d="M2365.81,-2858.33C2239.29,-2824.15 1901,-2732.75 1763.78,-2695.68"/>
<polygon fill="black" stroke="black" points="1764.43,-2692.23 1753.86,-2693 1762.6,-2698.99 1764.43,-2692.23"/>
<text text-anchor="start" x="2030.79" y="-2780.8" font-family="Times New Roman,serif" font-size="14.00">create</text>
</g>
<!-- Entity16 -->
<g id="node11" class="node entity">
<title>Entity16</title>
<ellipse fill="none" stroke="black" cx="1673.81" cy="-2382.83" rx="63.89" ry="18"/>
<text text-anchor="start" x="1632.81" y="-2379.13" font-family="Times New Roman,serif" font-size="14.00">robert bigelow</text>
</g>
<!-- Entity16&#45;&gt;Entity6 -->
<g id="edge8" class="edge verb">
<title>Entity16&#45;&gt;Entity6</title>
<path fill="none" stroke="black" d="M1632.49,-2368.97C1523.88,-2332.53 1230.49,-2234.09 1110.67,-2193.88"/>
<polygon fill="black" stroke="black" points="1111.58,-2190.49 1100.99,-2190.63 1109.35,-2197.13 1111.58,-2190.49"/>
<text text-anchor="start" x="1339.58" y="-2285.23" font-family="Times New Roman,serif" font-size="14.00">funds</text>
</g>
<!-- Entity16&#45;&gt;Entity55 -->
<g id="edge10" class="edge verb">
<title>Entity16&#45;&gt;Entity55</title>
<path fill="none" stroke="black" d="M1662.96,-2365.01C1652.41,-2347.66 1636.25,-2321.1 1624.2,-2301.3"/>
<polygon fill="black" stroke="black" points="1627.18,-2299.45 1618.99,-2292.73 1621.2,-2303.09 1627.18,-2299.45"/>
<text text-anchor="start" x="1579.58" y="-2336.95" font-family="Times New Roman,serif" font-size="14.00">investigates</text>
</g>
<!-- Entity10 -->
<g id="node12" class="node entity">
<title>Entity10</title>
<ellipse fill="none" stroke="black" cx="3510.14" cy="-2957.74" rx="56.59" ry="18"/>
<text text-anchor="start" x="3474.64" y="-2954.04" font-family="Times New Roman,serif" font-size="14.00">harry truman</text>
</g>
<!-- Entity57 -->
<g id="node13" class="node entity">
<title>Entity57</title>
<ellipse fill="none" stroke="black" cx="4015.52" cy="-3035.48" rx="55.79" ry="18"/>
<text text-anchor="start" x="3980.52" y="-3031.78" font-family="Times New Roman,serif" font-size="14.00">freemasonry</text>
</g>
<!-- Entity10&#45;&gt;Entity57 -->
<g id="edge11" class="edge verb">
<title>Entity10&#45;&gt;Entity57</title>
<path fill="none" stroke="black" d="M3561.38,-2965.62C3655.27,-2980.06 3854.46,-3010.7 3954.91,-3026.16"/>
<polygon fill="black" stroke="black" points="3954.48,-3029.63 3964.9,-3027.69 3955.55,-3022.71 3954.48,-3029.63"/>
<text text-anchor="start" x="3712.14" y="-2999.69" font-family="Times New Roman,serif" font-size="14.00">member</text>
</g>
<!-- Entity10&#45;&gt;Entity53 -->
<g id="edge59" class="edge verb">
<title>Entity10&#45;&gt;Entity53</title>
<path fill="none" stroke="black" d="M3456.26,-2951.85C3363.52,-2941.71 3175.73,-2921.17 3092.94,-2912.12"/>
<polygon fill="black" stroke="black" points="3093.23,-2908.63 3082.91,-2911.03 3092.47,-2915.59 3093.23,-2908.63"/>
<text text-anchor="start" x="3264.6" y="-2935.78" font-family="Times New Roman,serif" font-size="14.00">is</text>
</g>
<!-- Entity7 -->
<g id="node14" class="node entity">
<title>Entity7</title>
<ellipse fill="none" stroke="black" cx="3033.64" cy="-2429.89" rx="27" ry="18"/>
<text text-anchor="start" x="3026.14" y="-2426.19" font-family="Times New Roman,serif" font-size="14.00">jfk</text>
</g>
<!-- Entity7&#45;&gt;Entity53 -->
<g id="edge12" class="edge verb">
<title>Entity7&#45;&gt;Entity53</title>
<path fill="none" stroke="black" d="M3034.34,-2448.04C3037.16,-2520.69 3047.64,-2790.9 3051.08,-2879.4"/>
<polygon fill="black" stroke="black" points="3047.58,-2879.65 3051.47,-2889.5 3054.58,-2879.37 3047.58,-2879.65"/>
<text text-anchor="start" x="3032.71" y="-2667.52" font-family="Times New Roman,serif" font-size="14.00">is</text>
</g>
<!-- Entity25 -->
<g id="node16" class="node entity">
<title>Entity25</title>
<ellipse fill="none" stroke="black" cx="2431.43" cy="-4105.13" rx="58.49" ry="18"/>
<text text-anchor="start" x="2394.43" y="-4101.43" font-family="Times New Roman,serif" font-size="14.00">steve bannon</text>
</g>
<!-- Entity8 -->
<g id="node17" class="node entity">
<title>Entity8</title>
<ellipse fill="none" stroke="black" cx="2652.54" cy="-3416.02" rx="59.59" ry="18"/>
<text text-anchor="start" x="2614.54" y="-3412.32" font-family="Times New Roman,serif" font-size="14.00">donald trump</text>
</g>
<!-- Entity25&#45;&gt;Entity8 -->
<g id="edge13" class="edge verb">
<title>Entity25&#45;&gt;Entity8</title>
<path fill="none" stroke="black" d="M2439.74,-4087.08C2475.86,-3993 2615.25,-3559.05 2646.53,-3444.05"/>
<polygon fill="black" stroke="black" points="2649.95,-3444.79 2649.13,-3434.23 2643.18,-3443 2649.95,-3444.79"/>
<text text-anchor="start" x="2495.13" y="-3769.36" font-family="Times New Roman,serif" font-size="14.00">promote</text>
</g>
<!-- Entity25&#45;&gt;Entity8 -->
<g id="edge14" class="edge verb">
<title>Entity25&#45;&gt;Entity8</title>
<path fill="none" stroke="black" d="M2434.8,-4087.04C2459.07,-3992.7 2598.61,-3557.16 2640.75,-3443.31"/>
<polygon fill="black" stroke="black" points="2644.04,-3444.49 2644.29,-3433.89 2637.49,-3442.02 2644.04,-3444.49"/>
<text text-anchor="start" x="2501.77" y="-3753.98" font-family="Times New Roman,serif" font-size="14.00">advise</text>
</g>
<!-- Entity63 -->
<g id="node30" class="node entity">
<title>Entity63</title>
<ellipse fill="none" stroke="black" cx="2540.87" cy="-4626.46" rx="53.09" ry="18"/>
<text text-anchor="start" x="2507.87" y="-4622.76" font-family="Times New Roman,serif" font-size="14.00">biosphere 2</text>
</g>
<!-- Entity25&#45;&gt;Entity63 -->
<g id="edge27" class="edge verb">
<title>Entity25&#45;&gt;Entity63</title>
<path fill="none" stroke="black" d="M2435.26,-4123.38C2451.56,-4201.03 2515.22,-4504.3 2534.98,-4598.43"/>
<polygon fill="black" stroke="black" points="2531.59,-4599.29 2537.07,-4608.36 2538.44,-4597.86 2531.59,-4599.29"/>
<text text-anchor="start" x="2451.12" y="-4364.71" font-family="Times New Roman,serif" font-size="14.00">create</text>
</g>
<!-- Entity61 -->
<g id="node31" class="node entity">
<title>Entity61</title>
<ellipse fill="none" stroke="black" cx="2275.66" cy="-4519.06" rx="35.19" ry="18"/>
<text text-anchor="start" x="2256.66" y="-4515.36" font-family="Times New Roman,serif" font-size="14.00">gurgev</text>
</g>
<!-- Entity25&#45;&gt;Entity61 -->
<g id="edge29" class="edge verb">
<title>Entity25&#45;&gt;Entity61</title>
<path fill="none" stroke="black" d="M2424.63,-4123.18C2400.03,-4188.56 2315.49,-4413.21 2285.95,-4491.71"/>
<polygon fill="black" stroke="black" points="2282.56,-4490.78 2282.31,-4501.38 2289.11,-4493.25 2282.56,-4490.78"/>
<text text-anchor="start" x="2324.29" y="-4311.25" font-family="Times New Roman,serif" font-size="14.00">study</text>
</g>
<!-- Entity64 -->
<g id="node33" class="node entity">
<title>Entity64</title>
<ellipse fill="none" stroke="black" cx="2057.95" cy="-4385.29" rx="38.19" ry="18"/>
<text text-anchor="start" x="2036.45" y="-4381.59" font-family="Times New Roman,serif" font-size="14.00">us navy</text>
</g>
<!-- Entity25&#45;&gt;Entity64 -->
<g id="edge31" class="edge verb">
<title>Entity25&#45;&gt;Entity64</title>
<path fill="none" stroke="black" d="M2409.18,-4121.82C2344.9,-4170.04 2158.88,-4309.58 2086.89,-4363.58"/>
<polygon fill="black" stroke="black" points="2084.59,-4360.93 2078.69,-4369.73 2088.79,-4366.53 2084.59,-4360.93"/>
<text text-anchor="start" x="2202.03" y="-4246.5" font-family="Times New Roman,serif" font-size="14.00">member</text>
</g>
<!-- Entity65 -->
<g id="node34" class="node entity">
<title>Entity65</title>
<ellipse fill="none" stroke="black" cx="2195.73" cy="-4693.27" rx="61.99" ry="18"/>
<text text-anchor="start" x="2156.23" y="-4689.57" font-family="Times New Roman,serif" font-size="14.00">breitbart news</text>
</g>
<!-- Entity25&#45;&gt;Entity65 -->
<g id="edge32" class="edge verb">
<title>Entity25&#45;&gt;Entity65</title>
<path fill="none" stroke="black" d="M2424.24,-4123.05C2390.5,-4207.27 2247.61,-4563.81 2206.71,-4665.87"/>
<polygon fill="black" stroke="black" points="2203.44,-4664.62 2202.97,-4675.2 2209.94,-4667.22 2203.44,-4664.62"/>
<text text-anchor="start" x="2281.48" y="-4398.26" font-family="Times New Roman,serif" font-size="14.00">create</text>
</g>
<!-- Entity77 -->
<g id="node35" class="node entity">
<title>Entity77</title>
<ellipse fill="none" stroke="black" cx="2388.64" cy="-4213.06" rx="64.99" ry="18"/>
<text text-anchor="start" x="2346.64" y="-4209.36" font-family="Times New Roman,serif" font-size="14.00">goldman sachs</text>
</g>
<!-- Entity25&#45;&gt;Entity77 -->
<g id="edge33" class="edge verb">
<title>Entity25&#45;&gt;Entity77</title>
<path fill="none" stroke="black" d="M2424.17,-4123.44C2417.43,-4140.44 2407.3,-4166 2399.58,-4185.47"/>
<polygon fill="black" stroke="black" points="2396.22,-4184.44 2395.79,-4195.03 2402.73,-4187.02 2396.22,-4184.44"/>
<text text-anchor="start" x="2357.87" y="-4158.26" font-family="Times New Roman,serif" font-size="14.00">employee</text>
</g>
<!-- Entity76 -->
<g id="node46" class="node entity">
<title>Entity76</title>
<ellipse fill="none" stroke="black" cx="2863.8" cy="-4518.47" rx="77.19" ry="18"/>
<text text-anchor="start" x="2812.3" y="-4514.77" font-family="Times New Roman,serif" font-size="14.00">hollywood movies</text>
</g>
<!-- Entity25&#45;&gt;Entity76 -->
<g id="edge46" class="edge verb">
<title>Entity25&#45;&gt;Entity76</title>
<path fill="none" stroke="black" d="M2449.46,-4122.37C2517.29,-4187.21 2757.38,-4416.74 2837.53,-4493.36"/>
<polygon fill="black" stroke="black" points="2835.56,-4496.32 2845.21,-4500.7 2840.4,-4491.26 2835.56,-4496.32"/>
<text text-anchor="start" x="2596.49" y="-4311.66" font-family="Times New Roman,serif" font-size="14.00">produce</text>
</g>
<!-- Entity8&#45;&gt;Entity53 -->
<g id="edge60" class="edge verb">
<title>Entity8&#45;&gt;Entity53</title>
<path fill="none" stroke="black" d="M2666.52,-3398.23C2726.68,-3321.7 2963.47,-3020.5 3032.92,-2932.15"/>
<polygon fill="black" stroke="black" points="3035.68,-2934.3 3039.11,-2924.28 3030.18,-2929.98 3035.68,-2934.3"/>
<text text-anchor="start" x="2839.72" y="-3168.99" font-family="Times New Roman,serif" font-size="14.00">is</text>
</g>
<!-- Entity30 -->
<g id="node18" class="node entity">
<title>Entity30</title>
<ellipse fill="none" stroke="black" cx="2140.1" cy="-3160.66" rx="50.09" ry="18"/>
<text text-anchor="start" x="2109.6" y="-3156.96" font-family="Times New Roman,serif" font-size="14.00">john trump</text>
</g>
<!-- Entity8&#45;&gt;Entity30 -->
<g id="edge15" class="edge verb">
<title>Entity8&#45;&gt;Entity30</title>
<path fill="none" stroke="black" d="M2621.25,-3400.43C2532.09,-3356 2276.79,-3228.78 2178.93,-3180.01"/>
<polygon fill="black" stroke="black" points="2180.2,-3176.73 2169.69,-3175.41 2177.08,-3183 2180.2,-3176.73"/>
<text text-anchor="start" x="2357.09" y="-3294.02" font-family="Times New Roman,serif" font-size="14.00">nephew</text>
</g>
<!-- Entity30&#45;&gt;Entity17 -->
<g id="edge21" class="edge verb">
<title>Entity30&#45;&gt;Entity17</title>
<path fill="none" stroke="black" d="M2134.53,-3142.73C2112.98,-3073.31 2034.95,-2821.97 2008.85,-2737.9"/>
<polygon fill="black" stroke="black" points="2012.17,-2736.79 2005.87,-2728.28 2005.49,-2738.87 2012.17,-2736.79"/>
<text text-anchor="start" x="2025.69" y="-2944.11" font-family="Times New Roman,serif" font-size="14.00">member</text>
</g>
<!-- Entity67 -->
<g id="node37" class="node entity">
<title>Entity67</title>
<ellipse fill="none" stroke="black" cx="1768.79" cy="-3461.73" rx="50.89" ry="18"/>
<text text-anchor="start" x="1737.79" y="-3458.03" font-family="Times New Roman,serif" font-size="14.00">nikola tesla</text>
</g>
<!-- Entity30&#45;&gt;Entity67 -->
<g id="edge35" class="edge verb">
<title>Entity30&#45;&gt;Entity67</title>
<path fill="none" stroke="black" d="M2119.6,-3177.28C2057.22,-3227.86 1869.51,-3380.06 1797.42,-3438.51"/>
<polygon fill="black" stroke="black" points="1794.78,-3436.15 1789.22,-3445.16 1799.19,-3441.58 1794.78,-3436.15"/>
<text text-anchor="start" x="1927.51" y="-3311.69" font-family="Times New Roman,serif" font-size="14.00">study</text>
</g>
<!-- Entity21 -->
<g id="node19" class="node entity">
<title>Entity21</title>
<ellipse fill="none" stroke="black" cx="3129.58" cy="-3244.45" rx="35.19" ry="18"/>
<text text-anchor="start" x="3110.58" y="-3240.75" font-family="Times New Roman,serif" font-size="14.00">obama</text>
</g>
<!-- Entity21&#45;&gt;Entity53 -->
<g id="edge16" class="edge verb">
<title>Entity21&#45;&gt;Entity53</title>
<path fill="none" stroke="black" d="M3125.42,-3226.34C3112.66,-3170.83 3074.03,-3002.77 3058.62,-2935.72"/>
<polygon fill="black" stroke="black" points="3062.01,-2934.82 3056.36,-2925.86 3055.18,-2936.39 3062.01,-2934.82"/>
<text text-anchor="start" x="3082.02" y="-3084.83" font-family="Times New Roman,serif" font-size="14.00">is</text>
</g>
<!-- Entity14 -->
<g id="node21" class="node entity">
<title>Entity14</title>
<ellipse fill="none" stroke="black" cx="2698.47" cy="-2756.55" rx="31.4" ry="18"/>
<text text-anchor="start" x="2682.47" y="-2752.85" font-family="Times New Roman,serif" font-size="14.00">carter</text>
</g>
<!-- Entity14&#45;&gt;Entity53 -->
<g id="edge44" class="edge verb">
<title>Entity14&#45;&gt;Entity53</title>
<path fill="none" stroke="black" d="M2723.63,-2767.3C2785.73,-2793.83 2946.43,-2862.49 3017.5,-2892.85"/>
<polygon fill="black" stroke="black" points="3016.34,-2896.16 3026.91,-2896.87 3019.09,-2889.73 3016.34,-2896.16"/>
<text text-anchor="start" x="2860.56" y="-2833.87" font-family="Times New Roman,serif" font-size="14.00">is</text>
</g>
<!-- Entity14&#45;&gt;Entity54 -->
<g id="edge20" class="edge verb">
<title>Entity14&#45;&gt;Entity54</title>
<path fill="none" stroke="black" d="M2669.37,-2749.76C2604.06,-2734.52 2446.03,-2697.64 2374.87,-2681.03"/>
<polygon fill="black" stroke="black" points="2375.55,-2677.6 2365.02,-2678.73 2373.96,-2684.41 2375.55,-2677.6"/>
<text text-anchor="start" x="2480.12" y="-2719.19" font-family="Times New Roman,serif" font-size="14.00">witness</text>
</g>
<!-- Entity34 -->
<g id="node22" class="node entity">
<title>Entity34</title>
<ellipse fill="none" stroke="black" cx="4520.73" cy="-2845.74" rx="90.98" ry="18"/>
<text text-anchor="start" x="4458.73" y="-2842.04" font-family="Times New Roman,serif" font-size="14.00">emma hardinge&#45;britten</text>
</g>
<!-- Entity38 -->
<g id="node23" class="node entity">
<title>Entity38</title>
<ellipse fill="none" stroke="black" cx="3698.41" cy="-2849.73" rx="67.69" ry="18"/>
<text text-anchor="start" x="3654.41" y="-2846.03" font-family="Times New Roman,serif" font-size="14.00">abraham lincoln</text>
</g>
<!-- Entity34&#45;&gt;Entity38 -->
<g id="edge22" class="edge verb">
<title>Entity34&#45;&gt;Entity38</title>
<path fill="none" stroke="black" d="M4429.59,-2846.18C4266.9,-2846.97 3929.26,-2848.61 3776.5,-2849.36"/>
<polygon fill="black" stroke="black" points="3776.25,-2845.86 3766.26,-2849.4 3776.28,-2852.86 3776.25,-2845.86"/>
<text text-anchor="start" x="4024.04" y="-2851.57" font-family="Times New Roman,serif" font-size="14.00">spokesperson</text>
</g>
<!-- Entity59 -->
<g id="node29" class="node entity">
<title>Entity59</title>
<ellipse fill="none" stroke="black" cx="5172.54" cy="-3227.05" rx="85.29" ry="18"/>
<text text-anchor="start" x="5115.04" y="-3223.35" font-family="Times New Roman,serif" font-size="14.00">theosophical society</text>
</g>
<!-- Entity34&#45;&gt;Entity59 -->
<g id="edge47" class="edge verb">
<title>Entity34&#45;&gt;Entity59</title>
<path fill="none" stroke="black" d="M4550.01,-2862.86C4655.51,-2924.58 5016.26,-3135.62 5134.6,-3204.85"/>
<polygon fill="black" stroke="black" points="5132.95,-3207.94 5143.34,-3209.97 5136.48,-3201.9 5132.95,-3207.94"/>
<text text-anchor="start" x="4808.3" y="-3037.66" font-family="Times New Roman,serif" font-size="14.00">create</text>
</g>
<!-- Entity69 -->
<g id="node47" class="node entity">
<title>Entity69</title>
<ellipse fill="none" stroke="black" cx="5135.72" cy="-2759.78" rx="55.79" ry="18"/>
<text text-anchor="start" x="5100.72" y="-2756.08" font-family="Times New Roman,serif" font-size="14.00">orphic circle</text>
</g>
<!-- Entity34&#45;&gt;Entity69 -->
<g id="edge48" class="edge verb">
<title>Entity34&#45;&gt;Entity69</title>
<path fill="none" stroke="black" d="M4595.22,-2835.32C4717.99,-2818.16 4960.54,-2784.26 5074.21,-2768.37"/>
<polygon fill="black" stroke="black" points="5074.73,-2771.84 5084.15,-2766.99 5073.76,-2764.9 5074.73,-2771.84"/>
<text text-anchor="start" x="4788.72" y="-2805.65" font-family="Times New Roman,serif" font-size="14.00">member</text>
</g>
<!-- Entity68 -->
<g id="node48" class="node entity">
<title>Entity68</title>
<ellipse fill="none" stroke="black" cx="4987.84" cy="-2529.14" rx="39.79" ry="18"/>
<text text-anchor="start" x="4965.34" y="-2525.44" font-family="Times New Roman,serif" font-size="14.00">medium</text>
</g>
<!-- Entity34&#45;&gt;Entity68 -->
<g id="edge49" class="edge verb">
<title>Entity34&#45;&gt;Entity68</title>
<path fill="none" stroke="black" d="M4546.51,-2828.26C4626.67,-2773.93 4871.31,-2608.12 4957.44,-2549.75"/>
<polygon fill="black" stroke="black" points="4959.43,-2552.63 4965.74,-2544.12 4955.5,-2546.83 4959.43,-2552.63"/>
<text text-anchor="start" x="4741.98" y="-2692.8" font-family="Times New Roman,serif" font-size="14.00">is</text>
</g>
<!-- Entity38&#45;&gt;Entity53 -->
<g id="edge51" class="edge verb">
<title>Entity38&#45;&gt;Entity53</title>
<path fill="none" stroke="black" d="M3634.09,-2855.5C3501.87,-2867.35 3202.82,-2894.16 3093.33,-2903.98"/>
<polygon fill="black" stroke="black" points="3092.99,-2900.49 3083.34,-2904.87 3093.61,-2907.47 3092.99,-2900.49"/>
<text text-anchor="start" x="3353.71" y="-2883.54" font-family="Times New Roman,serif" font-size="14.00">is</text>
</g>
<!-- Entity40 -->
<g id="node24" class="node entity">
<title>Entity40</title>
<ellipse fill="none" stroke="black" cx="1300.1" cy="-576.72" rx="57.69" ry="18"/>
<text text-anchor="start" x="1263.6" y="-573.02" font-family="Times New Roman,serif" font-size="14.00">michael pane</text>
</g>
<!-- Entity40&#45;&gt;Entity56 -->
<g id="edge37" class="edge verb">
<title>Entity40&#45;&gt;Entity56</title>
<path fill="none" stroke="black" d="M1303.34,-594.95C1316.31,-668.05 1364.62,-940.13 1380.35,-1028.76"/>
<polygon fill="black" stroke="black" points="1376.95,-1029.63 1382.14,-1038.86 1383.84,-1028.41 1376.95,-1029.63"/>
<text text-anchor="start" x="1287.84" y="-815.66" font-family="Times New Roman,serif" font-size="14.00">employee</text>
</g>
<!-- Entity37 -->
<g id="node25" class="node entity">
<title>Entity37</title>
<ellipse fill="none" stroke="black" cx="1825.09" cy="-597.45" rx="74.99" ry="18"/>
<text text-anchor="start" x="1775.59" y="-593.75" font-family="Times New Roman,serif" font-size="14.00">walter dornberger</text>
</g>
<!-- Entity40&#45;&gt;Entity37 -->
<g id="edge23" class="edge verb">
<title>Entity40&#45;&gt;Entity37</title>
<path fill="none" stroke="black" d="M1357.53,-578.98C1450.32,-582.65 1633.64,-589.89 1741.1,-594.13"/>
<polygon fill="black" stroke="black" points="1741.13,-597.63 1751.26,-594.53 1741.41,-590.64 1741.13,-597.63"/>
<text text-anchor="start" x="1495.32" y="-590.36" font-family="Times New Roman,serif" font-size="14.00">employee</text>
</g>
<!-- Entity37&#45;&gt;Entity56 -->
<g id="edge36" class="edge verb">
<title>Entity37&#45;&gt;Entity56</title>
<path fill="none" stroke="black" d="M1804.36,-614.86C1730.02,-685.28 1478.11,-948.35 1405.19,-1031.54"/>
<polygon fill="black" stroke="black" points="1402.43,-1029.39 1398.52,-1039.23 1407.71,-1033.97 1402.43,-1029.39"/>
<text text-anchor="start" x="1550.78" y="-827" font-family="Times New Roman,serif" font-size="14.00">employee</text>
</g>
<!-- Entity37&#45;&gt;Entity56 -->
<g id="edge38" class="edge verb">
<title>Entity37&#45;&gt;Entity56</title>
<path fill="none" stroke="black" d="M1811.64,-615.39C1750.3,-686.96 1497.5,-951.39 1412.95,-1032.87"/>
<polygon fill="black" stroke="black" points="1410.35,-1030.51 1405.54,-1039.95 1415.19,-1035.57 1410.35,-1030.51"/>
<text text-anchor="start" x="1612.3" y="-827.93" font-family="Times New Roman,serif" font-size="14.00">vice&#45;president</text>
</g>
<!-- Entity51 -->
<g id="node38" class="node entity">
<title>Entity51</title>
<ellipse fill="none" stroke="black" cx="2277.6" cy="-599.13" rx="32.49" ry="18"/>
<text text-anchor="start" x="2260.6" y="-595.43" font-family="Times New Roman,serif" font-size="14.00">nsdap</text>
</g>
<!-- Entity37&#45;&gt;Entity51 -->
<g id="edge39" class="edge verb">
<title>Entity37&#45;&gt;Entity51</title>
<path fill="none" stroke="black" d="M1900.07,-597.72C1995.66,-598.08 2157.75,-598.68 2234.65,-598.97"/>
<polygon fill="black" stroke="black" points="2234.91,-602.47 2244.92,-599.01 2234.93,-595.47 2234.91,-602.47"/>
<text text-anchor="start" x="2021.36" y="-602.15" font-family="Times New Roman,serif" font-size="14.00">member</text>
</g>
<!-- Entity72 -->
<g id="node53" class="node entity">
<title>Entity72</title>
<ellipse fill="none" stroke="black" cx="2404.02" cy="-270.97" rx="90.98" ry="18"/>
<text text-anchor="start" x="2342.02" y="-267.27" font-family="Times New Roman,serif" font-size="14.00">nsdap rocket program</text>
</g>
<!-- Entity37&#45;&gt;Entity72 -->
<g id="edge53" class="edge verb">
<title>Entity37&#45;&gt;Entity72</title>
<path fill="none" stroke="black" d="M1854.6,-580.81C1950.87,-526.52 2255.91,-354.5 2364.86,-293.05"/>
<polygon fill="black" stroke="black" points="2366.89,-295.93 2373.88,-287.97 2363.45,-289.83 2366.89,-295.93"/>
<text text-anchor="start" x="2075.73" y="-440.73" font-family="Times New Roman,serif" font-size="14.00">create</text>
</g>
<!-- Entity73 -->
<g id="node54" class="node entity">
<title>Entity73</title>
<ellipse fill="none" stroke="black" cx="1769.51" cy="-17.97" rx="65.79" ry="18"/>
<text text-anchor="start" x="1727.01" y="-14.27" font-family="Times New Roman,serif" font-size="14.00">x series aircraft</text>
</g>
<!-- Entity37&#45;&gt;Entity73 -->
<g id="edge55" class="edge verb">
<title>Entity37&#45;&gt;Entity73</title>
<path fill="none" stroke="black" d="M1823.34,-579.15C1815.3,-495.34 1781.97,-147.9 1772.21,-46.11"/>
<polygon fill="black" stroke="black" points="1775.67,-45.61 1771.24,-35.99 1768.71,-46.28 1775.67,-45.61"/>
<text text-anchor="start" x="1763.77" y="-316.43" font-family="Times New Roman,serif" font-size="14.00">create</text>
</g>
<!-- Entity22 -->
<g id="node26" class="node entity">
<title>Entity22</title>
<ellipse fill="none" stroke="black" cx="5821.34" cy="-3359.8" rx="58.49" ry="18"/>
<text text-anchor="start" x="5784.34" y="-3356.1" font-family="Times New Roman,serif" font-size="14.00">rudolf steiner</text>
</g>
<!-- Entity60 -->
<g id="node27" class="node entity">
<title>Entity60</title>
<ellipse fill="none" stroke="black" cx="6462.56" cy="-3477.18" rx="102.08" ry="18"/>
<text text-anchor="start" x="6392.06" y="-3473.48" font-family="Times New Roman,serif" font-size="14.00">anthroposophical society</text>
</g>
<!-- Entity22&#45;&gt;Entity60 -->
<g id="edge25" class="edge verb">
<title>Entity22&#45;&gt;Entity60</title>
<path fill="none" stroke="black" d="M5871.66,-3369.01C5982.22,-3389.25 6247.17,-3437.75 6381.52,-3462.34"/>
<polygon fill="black" stroke="black" points="6381.28,-3465.85 6391.74,-3464.21 6382.54,-3458.97 6381.28,-3465.85"/>
<text text-anchor="start" x="6092.59" y="-3419.47" font-family="Times New Roman,serif" font-size="14.00">create</text>
</g>
<!-- Entity22&#45;&gt;Entity59 -->
<g id="edge28" class="edge verb">
<title>Entity22&#45;&gt;Entity59</title>
<path fill="none" stroke="black" d="M5772.57,-3349.82C5659.12,-3326.61 5377.05,-3268.89 5244.07,-3241.68"/>
<polygon fill="black" stroke="black" points="5244.48,-3238.19 5233.98,-3239.62 5243.08,-3245.05 5244.48,-3238.19"/>
<text text-anchor="start" x="5462.32" y="-3299.55" font-family="Times New Roman,serif" font-size="14.00">member</text>
</g>
<!-- Entity24 -->
<g id="node28" class="node entity">
<title>Entity24</title>
<ellipse fill="none" stroke="black" cx="4997.76" cy="-3335.03" rx="73.39" ry="18"/>
<text text-anchor="start" x="4949.26" y="-3331.33" font-family="Times New Roman,serif" font-size="14.00">madam blavatsky</text>
</g>
<!-- Entity24&#45;&gt;Entity59 -->
<g id="edge26" class="edge verb">
<title>Entity24&#45;&gt;Entity59</title>
<path fill="none" stroke="black" d="M5025.07,-3318.16C5054.91,-3299.72 5102.85,-3270.1 5135.93,-3249.66"/>
<polygon fill="black" stroke="black" points="5138.18,-3252.39 5144.84,-3244.16 5134.5,-3246.43 5138.18,-3252.39"/>
<text text-anchor="start" x="5046.5" y="-3287.71" font-family="Times New Roman,serif" font-size="14.00">create</text>
</g>
<!-- Entity31 -->
<g id="node36" class="node entity">
<title>Entity31</title>
<ellipse fill="none" stroke="black" cx="2022.08" cy="-5248.43" rx="69.59" ry="18"/>
<text text-anchor="start" x="1976.58" y="-5244.73" font-family="Times New Roman,serif" font-size="14.00">andrew breitbart</text>
</g>
<!-- Entity31&#45;&gt;Entity65 -->
<g id="edge34" class="edge verb">
<title>Entity31&#45;&gt;Entity65</title>
<path fill="none" stroke="black" d="M2027.76,-5230.27C2053.13,-5149.14 2156.26,-4819.45 2187.02,-4721.1"/>
<polygon fill="black" stroke="black" points="2190.45,-4721.88 2190.09,-4711.29 2183.77,-4719.79 2190.45,-4721.88"/>
<text text-anchor="start" x="2073.39" y="-4979.49" font-family="Times New Roman,serif" font-size="14.00">create</text>
</g>
<!-- Entity74 -->
<g id="node55" class="node entity">
<title>Entity74</title>
<ellipse fill="none" stroke="black" cx="2573.02" cy="-931.04" rx="38.99" ry="18"/>
<text text-anchor="start" x="2551.02" y="-927.34" font-family="Times New Roman,serif" font-size="14.00">far right</text>
</g>
<!-- Entity51&#45;&gt;Entity74 -->
<g id="edge58" class="edge verb">
<title>Entity51&#45;&gt;Entity74</title>
<path fill="none" stroke="black" d="M2292.25,-615.59C2340.37,-669.65 2493.77,-842 2551.12,-906.43"/>
<polygon fill="black" stroke="black" points="2548.67,-908.94 2557.93,-914.09 2553.9,-904.29 2548.67,-908.94"/>
<text text-anchor="start" x="2375.68" y="-764.81" font-family="Times New Roman,serif" font-size="14.00">member</text>
</g>
<!-- Entity46 -->
<g id="node39" class="node entity">
<title>Entity46</title>
<ellipse fill="none" stroke="black" cx="2314.83" cy="-378.95" rx="46.29" ry="18"/>
<text text-anchor="start" x="2287.33" y="-375.25" font-family="Times New Roman,serif" font-size="14.00">van braun</text>
</g>
<!-- Entity46&#45;&gt;Entity37 -->
<g id="edge40" class="edge verb">
<title>Entity46&#45;&gt;Entity37</title>
<path fill="none" stroke="black" d="M2284.2,-392.62C2200.7,-429.87 1968.82,-533.32 1870.31,-577.27"/>
<polygon fill="black" stroke="black" points="1868.63,-574.19 1860.92,-581.46 1871.48,-580.58 1868.63,-574.19"/>
<text text-anchor="start" x="2023.25" y="-488.75" font-family="Times New Roman,serif" font-size="14.00">employee</text>
</g>
<!-- Entity46&#45;&gt;Entity72 -->
<g id="edge54" class="edge verb">
<title>Entity46&#45;&gt;Entity72</title>
<path fill="none" stroke="black" d="M2329.16,-361.61C2343.62,-344.1 2366.11,-316.88 2382.66,-296.83"/>
<polygon fill="black" stroke="black" points="2385.46,-298.94 2389.13,-289 2380.07,-294.48 2385.46,-298.94"/>
<text text-anchor="start" x="2301.91" y="-333.02" font-family="Times New Roman,serif" font-size="14.00">employee</text>
</g>
<!-- Entity49 -->
<g id="node40" class="node entity">
<title>Entity49</title>
<ellipse fill="none" stroke="black" cx="1982.89" cy="-257.58" rx="49.29" ry="18"/>
<text text-anchor="start" x="1952.89" y="-253.88" font-family="Times New Roman,serif" font-size="14.00">adolf hitler</text>
</g>
<!-- Entity49&#45;&gt;Entity51 -->
<g id="edge41" class="edge verb">
<title>Entity49&#45;&gt;Entity51</title>
<path fill="none" stroke="black" d="M1997.91,-274.99C2046.62,-331.43 2200.28,-509.52 2256.62,-574.82"/>
<polygon fill="black" stroke="black" points="2254.12,-577.28 2263.3,-582.56 2259.42,-572.7 2254.12,-577.28"/>
<text text-anchor="start" x="2093.27" y="-413.7" font-family="Times New Roman,serif" font-size="14.00">create</text>
</g>
<!-- Entity50 -->
<g id="node41" class="node entity">
<title>Entity50</title>
<ellipse fill="none" stroke="black" cx="3746.29" cy="-3775.31" rx="37.89" ry="18"/>
<text text-anchor="start" x="3725.29" y="-3771.61" font-family="Times New Roman,serif" font-size="14.00">hunt oil</text>
</g>
<!-- Entity48 -->
<g id="node42" class="node entity">
<title>Entity48</title>
<ellipse fill="none" stroke="black" cx="3402.17" cy="-3370.54" rx="77.99" ry="18"/>
<text text-anchor="start" x="3350.17" y="-3366.84" font-family="Times New Roman,serif" font-size="14.00">dwight eisenhower</text>
</g>
<!-- Entity50&#45;&gt;Entity48 -->
<g id="edge42" class="edge verb">
<title>Entity50&#45;&gt;Entity48</title>
<path fill="none" stroke="black" d="M3731.94,-3758.43C3678.18,-3695.2 3488.5,-3472.09 3423.9,-3396.1"/>
<polygon fill="black" stroke="black" points="3426.5,-3393.75 3417.35,-3388.4 3421.16,-3398.28 3426.5,-3393.75"/>
<text text-anchor="start" x="3551.92" y="-3581.07" font-family="Times New Roman,serif" font-size="14.00">fund</text>
</g>
<!-- Entity48&#45;&gt;Entity53 -->
<g id="edge56" class="edge verb">
<title>Entity48&#45;&gt;Entity53</title>
<path fill="none" stroke="black" d="M3388.66,-3352.68C3334.55,-3281.11 3133.32,-3014.98 3070.81,-2932.32"/>
<polygon fill="black" stroke="black" points="3073.54,-2930.12 3064.71,-2924.25 3067.95,-2934.34 3073.54,-2930.12"/>
<text text-anchor="start" x="3219.74" y="-3146.3" font-family="Times New Roman,serif" font-size="14.00">is</text>
</g>
<!-- Entity5 -->
<g id="node43" class="node entity">
<title>Entity5</title>
<ellipse fill="none" stroke="black" cx="2972.37" cy="-1960.11" rx="36.29" ry="18"/>
<text text-anchor="start" x="2952.37" y="-1956.41" font-family="Times New Roman,serif" font-size="14.00">oswald</text>
</g>
<!-- Entity5&#45;&gt;Entity7 -->
<g id="edge66" class="edge verb">
<title>Entity5&#45;&gt;Entity7</title>
<path fill="none" stroke="black" d="M2974.74,-1978.24C2984.1,-2050.03 3018.62,-2314.72 3029.98,-2401.86"/>
<polygon fill="black" stroke="black" points="3026.52,-2402.35 3031.28,-2411.82 3033.46,-2401.45 3026.52,-2402.35"/>
<text text-anchor="start" x="2940.36" y="-2193.85" font-family="Times New Roman,serif" font-size="14.00">assassinate</text>
</g>
<!-- Entity45 -->
<g id="node44" class="node entity">
<title>Entity45</title>
<ellipse fill="none" stroke="black" cx="2821.04" cy="-1419.73" rx="59.29" ry="18"/>
<text text-anchor="start" x="2783.54" y="-1416.03" font-family="Times New Roman,serif" font-size="14.00">guy bannister</text>
</g>
<!-- Entity5&#45;&gt;Entity45 -->
<g id="edge43" class="edge verb">
<title>Entity5&#45;&gt;Entity45</title>
<path fill="none" stroke="black" d="M2967.34,-1942.13C2945.14,-1862.87 2855.94,-1544.36 2828.87,-1447.69"/>
<polygon fill="black" stroke="black" points="2832.16,-1446.46 2826.1,-1437.77 2825.42,-1448.35 2832.16,-1446.46"/>
<text text-anchor="start" x="2844.11" y="-1698.71" font-family="Times New Roman,serif" font-size="14.00">employee</text>
</g>
<!-- Entity45&#45;&gt;Entity74 -->
<g id="edge57" class="edge verb">
<title>Entity45&#45;&gt;Entity74</title>
<path fill="none" stroke="black" d="M2811.92,-1401.75C2774.35,-1327.73 2631.46,-1046.18 2586.59,-957.77"/>
<polygon fill="black" stroke="black" points="2589.61,-956 2581.96,-948.66 2583.37,-959.16 2589.61,-956"/>
<text text-anchor="start" x="2653.25" y="-1183.56" font-family="Times New Roman,serif" font-size="14.00">member</text>
</g>
<!-- Entity13 -->
<g id="node45" class="node entity">
<title>Entity13</title>
<ellipse fill="none" stroke="black" cx="3363.54" cy="-2607.77" rx="58.49" ry="18"/>
<text text-anchor="start" x="3326.54" y="-2604.07" font-family="Times New Roman,serif" font-size="14.00">richard nixon</text>
</g>
<!-- Entity13&#45;&gt;Entity53 -->
<g id="edge45" class="edge verb">
<title>Entity13&#45;&gt;Entity53</title>
<path fill="none" stroke="black" d="M3345.45,-2625.19C3292.17,-2676.52 3135.75,-2827.17 3075.87,-2884.84"/>
<polygon fill="black" stroke="black" points="3073.18,-2882.57 3068.41,-2892.03 3078.04,-2887.61 3073.18,-2882.57"/>
<text text-anchor="start" x="3200.66" y="-2758.82" font-family="Times New Roman,serif" font-size="14.00">is</text>
</g>
<!-- Entity44 -->
<g id="node49" class="node entity">
<title>Entity44</title>
<ellipse fill="none" stroke="black" cx="2587.94" cy="-2189.66" rx="53.89" ry="18"/>
<text text-anchor="start" x="2554.44" y="-2185.96" font-family="Times New Roman,serif" font-size="14.00">black magic</text>
</g>
<!-- Entity71 -->
<g id="node50" class="node entity">
<title>Entity71</title>
<ellipse fill="none" stroke="black" cx="2675.66" cy="-2301.64" rx="28.7" ry="18"/>
<text text-anchor="start" x="2661.66" y="-2297.94" font-family="Times New Roman,serif" font-size="14.00">x left</text>
</g>
<!-- Entity44&#45;&gt;Entity71 -->
<g id="edge50" class="edge verb">
<title>Entity44&#45;&gt;Entity71</title>
<path fill="none" stroke="black" d="M2601.64,-2207.16C2616.45,-2226.05 2640.14,-2256.29 2656.72,-2277.45"/>
<polygon fill="black" stroke="black" points="2653.98,-2279.64 2662.9,-2285.36 2659.49,-2275.32 2653.98,-2279.64"/>
<text text-anchor="start" x="2583.18" y="-2246.11" font-family="Times New Roman,serif" font-size="14.00">member</text>
</g>
<!-- Entity35 -->
<g id="node51" class="node entity">
<title>Entity35</title>
<ellipse fill="none" stroke="black" cx="3659.94" cy="-2189.66" rx="39.79" ry="18"/>
<text text-anchor="start" x="3637.44" y="-2185.96" font-family="Times New Roman,serif" font-size="14.00">crowley</text>
</g>
<!-- Entity70 -->
<g id="node52" class="node entity">
<title>Entity70</title>
<ellipse fill="none" stroke="black" cx="3747.66" cy="-2301.64" rx="38.99" ry="18"/>
<text text-anchor="start" x="3725.66" y="-2297.94" font-family="Times New Roman,serif" font-size="14.00">x magic</text>
</g>
<!-- Entity35&#45;&gt;Entity70 -->
<g id="edge52" class="edge verb">
<title>Entity35&#45;&gt;Entity70</title>
<path fill="none" stroke="black" d="M3673.26,-2206.67C3687.82,-2225.25 3711.28,-2255.2 3727.96,-2276.49"/>
<polygon fill="black" stroke="black" points="3725.29,-2278.76 3734.21,-2284.47 3730.8,-2274.44 3725.29,-2278.76"/>
<text text-anchor="start" x="3654.61" y="-2245.38" font-family="Times New Roman,serif" font-size="14.00">member</text>
</g>
<!-- Entity52 -->
<g id="node57" class="node entity">
<title>Entity52</title>
<ellipse fill="none" stroke="black" cx="206.3" cy="-1176.21" rx="94.48" ry="18"/>
<text text-anchor="start" x="141.8" y="-1172.51" font-family="Times New Roman,serif" font-size="14.00">egyptian gods in a ship</text>
</g>
<!-- Entity9&#45;&gt;Entity52 -->
<g id="edge61" class="edge verb">
<title>Entity9&#45;&gt;Entity52</title>
<path fill="none" stroke="black" d="M635.47,-1536.78C565.25,-1477.79 319.83,-1271.59 235.23,-1200.51"/>
<polygon fill="black" stroke="black" points="237.23,-1197.62 227.32,-1193.87 232.73,-1202.98 237.23,-1197.62"/>
<text text-anchor="start" x="405.35" y="-1372.45" font-family="Times New Roman,serif" font-size="14.00">claim</text>
</g>
<!-- Entity2 -->
<g id="node58" class="node entity">
<title>Entity2</title>
<ellipse fill="none" stroke="black" cx="64.32" cy="-1980.12" rx="64.19" ry="18"/>
<text text-anchor="start" x="22.82" y="-1976.42" font-family="Times New Roman,serif" font-size="14.00">andre puharich</text>
</g>
<!-- Entity2&#45;&gt;Entity1 -->
<g id="edge63" class="edge verb">
<title>Entity2&#45;&gt;Entity1</title>
<path fill="none" stroke="black" d="M126.49,-1975.11C224.62,-1967.21 413.54,-1952.01 504.22,-1944.71"/>
<polygon fill="black" stroke="black" points="504.56,-1948.19 514.25,-1943.9 504,-1941.21 504.56,-1948.19"/>
<text text-anchor="start" x="263.35" y="-1963.71" font-family="Times New Roman,serif" font-size="14.00">sponsore</text>
</g>
<!-- Entity4 -->
<g id="node59" class="node entity">
<title>Entity4</title>
<ellipse fill="none" stroke="black" cx="154.53" cy="-1429.63" rx="74.99" ry="18"/>
<text text-anchor="start" x="105.03" y="-1425.93" font-family="Times New Roman,serif" font-size="14.00">gene roddenberry</text>
</g>
<!-- Entity4&#45;&gt;Entity9 -->
<g id="edge65" class="edge verb">
<title>Entity4&#45;&gt;Entity9</title>
<path fill="none" stroke="black" d="M207.08,-1442.57C306.03,-1466.93 518.28,-1519.19 610.33,-1541.86"/>
<polygon fill="black" stroke="black" points="609.62,-1545.29 620.17,-1544.28 611.3,-1538.49 609.62,-1545.29"/>
<text text-anchor="start" x="304.71" y="-1496.02" font-family="Times New Roman,serif" font-size="14.00">claiemd to channel</text>
</g>
</g>
</svg>
