<?xml version="1.0" encoding="UTF-8" standalone="no"?>
<?xml-stylesheet href="../styles.css" type="text/css"?>
<!DOCTYPE svg PUBLIC "-//W3C//DTD SVG 1.1//EN"
 "http://www.w3.org/Graphics/SVG/1.1/DTD/svg11.dtd">
<!-- Generated by graphviz version 2.47.3 (20210619.1520)
 -->
<!-- Title: G Pages: 1 -->
<svg width="4160pt" height="4781pt"
 viewBox="0.00 0.00 4160.00 4781.00" xmlns="http://www.w3.org/2000/svg" xmlns:xlink="http://www.w3.org/1999/xlink">
<g id="graph0" class="graph" transform="scale(1 1) rotate(0) translate(4 4777)">
<title>G</title>
<polygon fill="white" stroke="transparent" points="-4,4 -4,-4777 4156,-4777 4156,4 -4,4"/>
<!-- Entity2 -->
<g id="node1" class="node entity">
<title>Entity2</title>
<ellipse fill="none" stroke="black" cx="861.47" cy="-18.33" rx="64.19" ry="18"/>
<text text-anchor="start" x="819.97" y="-14.63" font-family="Times New Roman,serif" font-size="14.00">andre puharich</text>
</g>
<!-- Entity1 -->
<g id="node2" class="node entity">
<title>Entity1</title>
<ellipse fill="none" stroke="black" cx="1035.61" cy="-494.47" rx="41.69" ry="18"/>
<text text-anchor="start" x="1011.61" y="-490.77" font-family="Times New Roman,serif" font-size="14.00">uri geller</text>
</g>
<!-- Entity2&#45;&gt;Entity1 -->
<g id="edge1" class="edge verb">
<title>Entity2&#45;&gt;Entity1</title>
<path fill="none" stroke="black" d="M868.08,-36.41C894.65,-109.04 993.68,-379.81 1025.62,-467.14"/>
<polygon fill="black" stroke="black" points="1022.36,-468.43 1029.09,-476.62 1028.94,-466.03 1022.36,-468.43"/>
<text text-anchor="start" x="894.85" y="-255.57" font-family="Times New Roman,serif" font-size="14.00">sponsore</text>
</g>
<!-- Entity9 -->
<g id="node4" class="node entity">
<title>Entity9</title>
<ellipse fill="none" stroke="black" cx="1200.81" cy="-602.46" rx="38.19" ry="18"/>
<text text-anchor="start" x="1179.31" y="-598.76" font-family="Times New Roman,serif" font-size="14.00">the nine</text>
</g>
<!-- Entity1&#45;&gt;Entity9 -->
<g id="edge6" class="edge verb">
<title>Entity1&#45;&gt;Entity9</title>
<path fill="none" stroke="black" d="M1058.58,-509.49C1087.51,-528.4 1137.34,-560.97 1169.67,-582.1"/>
<polygon fill="black" stroke="black" points="1168.01,-585.2 1178.3,-587.74 1171.84,-579.34 1168.01,-585.2"/>
<text text-anchor="start" x="1010.13" y="-549.59" font-family="Times New Roman,serif" font-size="14.00">claiemd to channel</text>
</g>
<!-- Entity4 -->
<g id="node3" class="node entity">
<title>Entity4</title>
<ellipse fill="none" stroke="black" cx="686.53" cy="-445.81" rx="74.99" ry="18"/>
<text text-anchor="start" x="637.03" y="-442.11" font-family="Times New Roman,serif" font-size="14.00">gene roddenberry</text>
</g>
<!-- Entity4&#45;&gt;Entity9 -->
<g id="edge2" class="edge verb">
<title>Entity4&#45;&gt;Entity9</title>
<path fill="none" stroke="black" d="M733.08,-459.99C832.42,-490.25 1063.88,-560.75 1158.92,-589.7"/>
<polygon fill="black" stroke="black" points="1157.91,-593.05 1168.49,-592.61 1159.94,-586.35 1157.91,-593.05"/>
<text text-anchor="start" x="842" y="-528.65" font-family="Times New Roman,serif" font-size="14.00">claiemd to channel</text>
</g>
<!-- Entity52 -->
<g id="node43" class="node entity">
<title>Entity52</title>
<ellipse fill="none" stroke="black" cx="784.42" cy="-195.29" rx="94.48" ry="18"/>
<text text-anchor="start" x="719.92" y="-191.59" font-family="Times New Roman,serif" font-size="14.00">egyptian gods in a ship</text>
</g>
<!-- Entity9&#45;&gt;Entity52 -->
<g id="edge35" class="edge verb">
<title>Entity9&#45;&gt;Entity52</title>
<path fill="none" stroke="black" d="M1183.97,-585.99C1119.54,-522.99 888.38,-296.94 810.36,-220.65"/>
<polygon fill="black" stroke="black" points="812.47,-217.82 802.87,-213.33 807.57,-222.82 812.47,-217.82"/>
<text text-anchor="start" x="967.16" y="-407.12" font-family="Times New Roman,serif" font-size="14.00">claim</text>
</g>
<!-- Entity3 -->
<g id="node5" class="node entity">
<title>Entity3</title>
<ellipse fill="none" stroke="black" cx="1658.18" cy="-938.56" rx="65.79" ry="18"/>
<text text-anchor="start" x="1615.68" y="-934.86" font-family="Times New Roman,serif" font-size="14.00">arthur m young</text>
</g>
<!-- Entity3&#45;&gt;Entity9 -->
<g id="edge3" class="edge verb">
<title>Entity3&#45;&gt;Entity9</title>
<path fill="none" stroke="black" d="M1635.19,-921.66C1558.83,-865.55 1313.78,-685.47 1229.55,-623.58"/>
<polygon fill="black" stroke="black" points="1231.59,-620.73 1221.46,-617.63 1227.44,-626.37 1231.59,-620.73"/>
<text text-anchor="start" x="1386.37" y="-776.42" font-family="Times New Roman,serif" font-size="14.00">member</text>
</g>
<!-- Entity56 -->
<g id="node30" class="node entity">
<title>Entity56</title>
<ellipse fill="none" stroke="black" cx="2226.76" cy="-867.18" rx="53.89" ry="18"/>
<text text-anchor="start" x="2193.26" y="-863.48" font-family="Times New Roman,serif" font-size="14.00">bell aviation</text>
</g>
<!-- Entity3&#45;&gt;Entity56 -->
<g id="edge22" class="edge verb">
<title>Entity3&#45;&gt;Entity56</title>
<path fill="none" stroke="black" d="M1717.95,-931.06C1826.78,-917.39 2056.12,-888.61 2165.81,-874.84"/>
<polygon fill="black" stroke="black" points="2166.56,-878.27 2176.04,-873.55 2165.68,-871.32 2166.56,-878.27"/>
<text text-anchor="start" x="1907.88" y="-906.75" font-family="Times New Roman,serif" font-size="14.00">create</text>
</g>
<!-- Entity55 -->
<g id="node34" class="node entity">
<title>Entity55</title>
<ellipse fill="none" stroke="black" cx="1739.3" cy="-1645.39" rx="77.19" ry="18"/>
<text text-anchor="start" x="1687.8" y="-1641.69" font-family="Times New Roman,serif" font-size="14.00">psi&#45;consciousness</text>
</g>
<!-- Entity3&#45;&gt;Entity55 -->
<g id="edge53" class="edge verb">
<title>Entity3&#45;&gt;Entity55</title>
<path fill="none" stroke="black" d="M1660.27,-956.74C1671.28,-1052.71 1722.65,-1500.37 1736.08,-1617.36"/>
<polygon fill="black" stroke="black" points="1732.6,-1617.79 1737.22,-1627.33 1739.56,-1616.99 1732.6,-1617.79"/>
<text text-anchor="start" x="1667.17" y="-1290.85" font-family="Times New Roman,serif" font-size="14.00">study</text>
</g>
<!-- Entity5 -->
<g id="node6" class="node entity">
<title>Entity5</title>
<ellipse fill="none" stroke="black" cx="4076.92" cy="-2334.22" rx="75.29" ry="18"/>
<text text-anchor="start" x="4026.92" y="-2330.52" font-family="Times New Roman,serif" font-size="14.00">lee harvey oswald</text>
</g>
<!-- Entity7 -->
<g id="node7" class="node entity">
<title>Entity7</title>
<ellipse fill="none" stroke="black" cx="3651.55" cy="-2952.58" rx="64.19" ry="18"/>
<text text-anchor="start" x="3610.05" y="-2948.88" font-family="Times New Roman,serif" font-size="14.00">john f kennedy</text>
</g>
<!-- Entity5&#45;&gt;Entity7 -->
<g id="edge4" class="edge verb">
<title>Entity5&#45;&gt;Entity7</title>
<path fill="none" stroke="black" d="M4064.65,-2352.06C4004.56,-2439.42 3741.35,-2822.05 3669.65,-2926.28"/>
<polygon fill="black" stroke="black" points="3666.66,-2924.45 3663.88,-2934.67 3672.43,-2928.41 3666.66,-2924.45"/>
<text text-anchor="start" x="3805.15" y="-2642.97" font-family="Times New Roman,serif" font-size="14.00">assassinate</text>
</g>
<!-- Entity45 -->
<g id="node29" class="node entity">
<title>Entity45</title>
<ellipse fill="none" stroke="black" cx="4020.59" cy="-1656.85" rx="59.29" ry="18"/>
<text text-anchor="start" x="3983.09" y="-1653.15" font-family="Times New Roman,serif" font-size="14.00">guy bannister</text>
</g>
<!-- Entity5&#45;&gt;Entity45 -->
<g id="edge21" class="edge verb">
<title>Entity5&#45;&gt;Entity45</title>
<path fill="none" stroke="black" d="M4075.41,-2316.11C4067.67,-2223.06 4032.4,-1798.92 4022.93,-1685.06"/>
<polygon fill="black" stroke="black" points="4026.42,-1684.7 4022.1,-1675.03 4019.44,-1685.28 4026.42,-1684.7"/>
<text text-anchor="start" x="3995.17" y="-2004.38" font-family="Times New Roman,serif" font-size="14.00">employee</text>
</g>
<!-- Entity53 -->
<g id="node31" class="node entity">
<title>Entity53</title>
<ellipse fill="none" stroke="black" cx="2956.44" cy="-3045.22" rx="31.4" ry="18"/>
<text text-anchor="start" x="2940.44" y="-3041.52" font-family="Times New Roman,serif" font-size="14.00">potus</text>
</g>
<!-- Entity7&#45;&gt;Entity53 -->
<g id="edge23" class="edge verb">
<title>Entity7&#45;&gt;Entity53</title>
<path fill="none" stroke="black" d="M3593.19,-2960.36C3455.83,-2978.67 3114.87,-3024.11 2997.17,-3039.8"/>
<polygon fill="black" stroke="black" points="2996.58,-3036.34 2987.13,-3041.13 2997.51,-3043.28 2996.58,-3036.34"/>
<text text-anchor="start" x="3285.18" y="-3003.88" font-family="Times New Roman,serif" font-size="14.00">is</text>
</g>
<!-- Entity30 -->
<g id="node8" class="node entity">
<title>Entity30</title>
<ellipse fill="none" stroke="black" cx="2285.03" cy="-2846.85" rx="50.09" ry="18"/>
<text text-anchor="start" x="2254.53" y="-2843.15" font-family="Times New Roman,serif" font-size="14.00">john trump</text>
</g>
<!-- Entity17 -->
<g id="node9" class="node entity">
<title>Entity17</title>
<ellipse fill="none" stroke="black" cx="2069.12" cy="-2289.27" rx="27" ry="18"/>
<text text-anchor="start" x="2061.12" y="-2285.57" font-family="Times New Roman,serif" font-size="14.00">cia</text>
</g>
<!-- Entity30&#45;&gt;Entity17 -->
<g id="edge5" class="edge verb">
<title>Entity30&#45;&gt;Entity17</title>
<path fill="none" stroke="black" d="M2278.09,-2828.93C2246.65,-2747.74 2117.46,-2414.1 2079.6,-2316.32"/>
<polygon fill="black" stroke="black" points="2082.8,-2314.91 2075.93,-2306.85 2076.28,-2317.44 2082.8,-2314.91"/>
<text text-anchor="start" x="2132.85" y="-2576.43" font-family="Times New Roman,serif" font-size="14.00">member</text>
</g>
<!-- Entity67 -->
<g id="node47" class="node entity">
<title>Entity67</title>
<ellipse fill="none" stroke="black" cx="1839.81" cy="-2768.2" rx="50.89" ry="18"/>
<text text-anchor="start" x="1808.81" y="-2764.5" font-family="Times New Roman,serif" font-size="14.00">nikola tesla</text>
</g>
<!-- Entity30&#45;&gt;Entity67 -->
<g id="edge40" class="edge verb">
<title>Entity30&#45;&gt;Entity67</title>
<path fill="none" stroke="black" d="M2239.89,-2838.88C2157.83,-2824.38 1984.47,-2793.76 1895.32,-2778.01"/>
<polygon fill="black" stroke="black" points="1895.86,-2774.55 1885.4,-2776.26 1894.64,-2781.44 1895.86,-2774.55"/>
<text text-anchor="start" x="2036.61" y="-2812.25" font-family="Times New Roman,serif" font-size="14.00">study</text>
</g>
<!-- Entity17&#45;&gt;Entity55 -->
<g id="edge27" class="edge verb">
<title>Entity17&#45;&gt;Entity55</title>
<path fill="none" stroke="black" d="M2060.3,-2272.05C2015.01,-2183.62 1808.54,-1780.58 1753.06,-1672.26"/>
<polygon fill="black" stroke="black" points="1756.13,-1670.58 1748.45,-1663.27 1749.9,-1673.77 1756.13,-1670.58"/>
<text text-anchor="start" x="1842.68" y="-1975.95" font-family="Times New Roman,serif" font-size="14.00">investigates</text>
</g>
<!-- Entity54 -->
<g id="node52" class="node entity">
<title>Entity54</title>
<ellipse fill="none" stroke="black" cx="2374.58" cy="-2473.76" rx="27" ry="18"/>
<text text-anchor="start" x="2365.08" y="-2470.06" font-family="Times New Roman,serif" font-size="14.00">ufo</text>
</g>
<!-- Entity17&#45;&gt;Entity54 -->
<g id="edge54" class="edge verb">
<title>Entity17&#45;&gt;Entity54</title>
<path fill="none" stroke="black" d="M2089.17,-2301.38C2141.81,-2333.17 2284.18,-2419.16 2345.66,-2456.29"/>
<polygon fill="black" stroke="black" points="2344.09,-2459.44 2354.46,-2461.61 2347.71,-2453.45 2344.09,-2459.44"/>
<text text-anchor="start" x="2153.41" y="-2382.64" font-family="Times New Roman,serif" font-size="14.00">investigates</text>
</g>
<!-- Entity6 -->
<g id="node10" class="node entity">
<title>Entity6</title>
<ellipse fill="none" stroke="black" cx="1263.71" cy="-1046.56" rx="68.49" ry="18"/>
<text text-anchor="start" x="1219.21" y="-1042.86" font-family="Times New Roman,serif" font-size="14.00">jeffrey mishlove</text>
</g>
<!-- Entity6&#45;&gt;Entity1 -->
<g id="edge7" class="edge verb">
<title>Entity6&#45;&gt;Entity1</title>
<path fill="none" stroke="black" d="M1256.25,-1028.5C1222.88,-947.73 1087.18,-619.28 1046.92,-521.84"/>
<polygon fill="black" stroke="black" points="1050.07,-520.29 1043.02,-512.39 1043.6,-522.97 1050.07,-520.29"/>
<text text-anchor="start" x="1103.59" y="-778.97" font-family="Times New Roman,serif" font-size="14.00">promote</text>
</g>
<!-- Entity6&#45;&gt;Entity55 -->
<g id="edge57" class="edge verb">
<title>Entity6&#45;&gt;Entity55</title>
<path fill="none" stroke="black" d="M1274.8,-1064.38C1335.74,-1150.08 1628.56,-1519.13 1715.19,-1619.91"/>
<polygon fill="black" stroke="black" points="1712.8,-1622.5 1721.99,-1627.77 1718.09,-1617.92 1712.8,-1622.5"/>
<text text-anchor="start" x="1463.99" y="-1345.95" font-family="Times New Roman,serif" font-size="14.00">study</text>
</g>
<!-- Entity6&#45;&gt;Entity55 -->
<g id="edge59" class="edge verb">
<title>Entity6&#45;&gt;Entity55</title>
<path fill="none" stroke="black" d="M1281.02,-1064.19C1355.58,-1149.32 1647.77,-1517.07 1722.1,-1619.09"/>
<polygon fill="black" stroke="black" points="1719.35,-1621.26 1728.03,-1627.32 1725.02,-1617.17 1719.35,-1621.26"/>
<text text-anchor="start" x="1437.56" y="-1330.44" font-family="Times New Roman,serif" font-size="14.00">investigates</text>
</g>
<!-- Entity79 -->
<g id="node11" class="node entity">
<title>Entity79</title>
<ellipse fill="none" stroke="black" cx="1678.94" cy="-2141.66" rx="27" ry="18"/>
<text text-anchor="start" x="1668.94" y="-2137.96" font-family="Times New Roman,serif" font-size="14.00">foo</text>
</g>
<!-- Entity80 -->
<g id="node12" class="node entity">
<title>Entity80</title>
<ellipse fill="none" stroke="black" cx="1766.66" cy="-2253.64" rx="27" ry="18"/>
<text text-anchor="start" x="1756.66" y="-2249.94" font-family="Times New Roman,serif" font-size="14.00">baz</text>
</g>
<!-- Entity79&#45;&gt;Entity80 -->
<g id="edge8" class="edge verb">
<title>Entity79&#45;&gt;Entity80</title>
<path fill="none" stroke="black" d="M1691.51,-2157.7C1706.23,-2176.5 1730.76,-2207.82 1747.78,-2229.53"/>
<polygon fill="black" stroke="black" points="1745.19,-2231.91 1754.11,-2237.62 1750.7,-2227.59 1745.19,-2231.91"/>
<text text-anchor="start" x="1699.64" y="-2197.42" font-family="Times New Roman,serif" font-size="14.00">baz</text>
</g>
<!-- Entity11 -->
<g id="node13" class="node entity">
<title>Entity11</title>
<ellipse fill="none" stroke="black" cx="2869.87" cy="-2937.28" rx="68.49" ry="18"/>
<text text-anchor="start" x="2825.37" y="-2933.58" font-family="Times New Roman,serif" font-size="14.00">george hw bush</text>
</g>
<!-- Entity18 -->
<g id="node14" class="node entity">
<title>Entity18</title>
<ellipse fill="none" stroke="black" cx="3327.85" cy="-3220.65" rx="63.89" ry="18"/>
<text text-anchor="start" x="3286.85" y="-3216.95" font-family="Times New Roman,serif" font-size="14.00">george w bush</text>
</g>
<!-- Entity11&#45;&gt;Entity18 -->
<g id="edge9" class="edge verb">
<title>Entity11&#45;&gt;Entity18</title>
<path fill="none" stroke="black" d="M2896.81,-2953.95C2975.41,-3002.58 3204.45,-3144.3 3292.65,-3198.88"/>
<polygon fill="black" stroke="black" points="3290.88,-3201.9 3301.23,-3204.18 3294.57,-3195.95 3290.88,-3201.9"/>
<text text-anchor="start" x="3062.73" y="-3080.21" font-family="Times New Roman,serif" font-size="14.00">father</text>
</g>
<!-- Entity11&#45;&gt;Entity53 -->
<g id="edge48" class="edge verb">
<title>Entity11&#45;&gt;Entity53</title>
<path fill="none" stroke="black" d="M2884.17,-2955.11C2898.54,-2973.03 2920.8,-3000.78 2936.82,-3020.76"/>
<polygon fill="black" stroke="black" points="2934.27,-3023.18 2943.26,-3028.79 2939.73,-3018.8 2934.27,-3023.18"/>
<text text-anchor="start" x="2900.49" y="-2991.73" font-family="Times New Roman,serif" font-size="14.00">is</text>
</g>
<!-- Entity18&#45;&gt;Entity53 -->
<g id="edge58" class="edge verb">
<title>Entity18&#45;&gt;Entity53</title>
<path fill="none" stroke="black" d="M3294.89,-3205.09C3224.69,-3171.93 3061.06,-3094.64 2990.18,-3061.16"/>
<polygon fill="black" stroke="black" points="2991.35,-3057.84 2980.81,-3056.74 2988.36,-3064.17 2991.35,-3057.84"/>
<text text-anchor="start" x="3132.53" y="-3136.92" font-family="Times New Roman,serif" font-size="14.00">is</text>
</g>
<!-- Entity16 -->
<g id="node15" class="node entity">
<title>Entity16</title>
<ellipse fill="none" stroke="black" cx="1659.48" cy="-1136.84" rx="63.89" ry="18"/>
<text text-anchor="start" x="1618.48" y="-1133.14" font-family="Times New Roman,serif" font-size="14.00">robert bigelow</text>
</g>
<!-- Entity16&#45;&gt;Entity6 -->
<g id="edge10" class="edge verb">
<title>Entity16&#45;&gt;Entity6</title>
<path fill="none" stroke="black" d="M1609.76,-1125.5C1537.63,-1109.05 1404.07,-1078.58 1325.65,-1060.69"/>
<polygon fill="black" stroke="black" points="1325.95,-1057.17 1315.43,-1058.36 1324.4,-1063.99 1325.95,-1057.17"/>
<text text-anchor="start" x="1435.7" y="-1096.89" font-family="Times New Roman,serif" font-size="14.00">funds</text>
</g>
<!-- Entity16&#45;&gt;Entity55 -->
<g id="edge49" class="edge verb">
<title>Entity16&#45;&gt;Entity55</title>
<path fill="none" stroke="black" d="M1662.32,-1154.94C1674.25,-1230.94 1720.33,-1524.55 1734.87,-1617.21"/>
<polygon fill="black" stroke="black" points="1731.44,-1617.91 1736.45,-1627.24 1738.35,-1616.82 1731.44,-1617.91"/>
<text text-anchor="start" x="1634.6" y="-1389.88" font-family="Times New Roman,serif" font-size="14.00">investigates</text>
</g>
<!-- Entity26 -->
<g id="node16" class="node entity">
<title>Entity26</title>
<ellipse fill="none" stroke="black" cx="2410.26" cy="-3907.06" rx="53.89" ry="18"/>
<text text-anchor="start" x="2376.76" y="-3903.36" font-family="Times New Roman,serif" font-size="14.00">edgar casey</text>
</g>
<!-- Entity27 -->
<g id="node17" class="node entity">
<title>Entity27</title>
<ellipse fill="none" stroke="black" cx="2515.02" cy="-3380.45" rx="71.49" ry="18"/>
<text text-anchor="start" x="2468.02" y="-3376.75" font-family="Times New Roman,serif" font-size="14.00">woodrow wilson</text>
</g>
<!-- Entity26&#45;&gt;Entity27 -->
<g id="edge11" class="edge verb">
<title>Entity26&#45;&gt;Entity27</title>
<path fill="none" stroke="black" d="M2413.87,-3888.93C2429.39,-3810.92 2490.56,-3503.42 2509.44,-3408.5"/>
<polygon fill="black" stroke="black" points="2512.91,-3408.99 2511.43,-3398.5 2506.04,-3407.63 2512.91,-3408.99"/>
<text text-anchor="start" x="2425.65" y="-3652.52" font-family="Times New Roman,serif" font-size="14.00">advise</text>
</g>
<!-- Entity27&#45;&gt;Entity53 -->
<g id="edge38" class="edge verb">
<title>Entity27&#45;&gt;Entity53</title>
<path fill="none" stroke="black" d="M2537.82,-3363.14C2612.26,-3306.61 2847.99,-3127.58 2928.88,-3066.15"/>
<polygon fill="black" stroke="black" points="2931.24,-3068.75 2937.09,-3059.92 2927.01,-3063.18 2931.24,-3068.75"/>
<text text-anchor="start" x="2723.35" y="-3218.44" font-family="Times New Roman,serif" font-size="14.00">is</text>
</g>
<!-- Entity58 -->
<g id="node59" class="node entity">
<title>Entity58</title>
<ellipse fill="none" stroke="black" cx="2076.21" cy="-3799.08" rx="71.49" ry="18"/>
<text text-anchor="start" x="2029.21" y="-3795.38" font-family="Times New Roman,serif" font-size="14.00">leauge of nations</text>
</g>
<!-- Entity27&#45;&gt;Entity58 -->
<g id="edge65" class="edge verb">
<title>Entity27&#45;&gt;Entity58</title>
<path fill="none" stroke="black" d="M2496.72,-3397.91C2427.58,-3463.87 2182.11,-3698.05 2101.82,-3774.64"/>
<polygon fill="black" stroke="black" points="2099.4,-3772.11 2094.58,-3781.55 2104.23,-3777.18 2099.4,-3772.11"/>
<text text-anchor="start" x="2265.27" y="-3590.07" font-family="Times New Roman,serif" font-size="14.00">create</text>
</g>
<!-- Entity25 -->
<g id="node18" class="node entity">
<title>Entity25</title>
<ellipse fill="none" stroke="black" cx="2837.84" cy="-4265.28" rx="58.49" ry="18"/>
<text text-anchor="start" x="2800.84" y="-4261.58" font-family="Times New Roman,serif" font-size="14.00">steve bannon</text>
</g>
<!-- Entity8 -->
<g id="node19" class="node entity">
<title>Entity8</title>
<ellipse fill="none" stroke="black" cx="2660.31" cy="-3488.65" rx="59.59" ry="18"/>
<text text-anchor="start" x="2622.31" y="-3484.95" font-family="Times New Roman,serif" font-size="14.00">donald trump</text>
</g>
<!-- Entity25&#45;&gt;Entity8 -->
<g id="edge12" class="edge verb">
<title>Entity25&#45;&gt;Entity8</title>
<path fill="none" stroke="black" d="M2835.96,-4247.1C2818.6,-4144.88 2703.77,-3641.71 2669.57,-3516.77"/>
<polygon fill="black" stroke="black" points="2672.86,-3515.51 2666.79,-3506.83 2666.11,-3517.4 2672.86,-3515.51"/>
<text text-anchor="start" x="2704.76" y="-3870.74" font-family="Times New Roman,serif" font-size="14.00">promote</text>
</g>
<!-- Entity25&#45;&gt;Entity8 -->
<g id="edge15" class="edge verb">
<title>Entity25&#45;&gt;Entity8</title>
<path fill="none" stroke="black" d="M2831.44,-4247.35C2802.19,-4145.64 2686.79,-3641.5 2663.94,-3516.65"/>
<polygon fill="black" stroke="black" points="2667.37,-3515.96 2662.18,-3506.72 2660.48,-3517.18 2667.37,-3515.96"/>
<text text-anchor="start" x="2711.69" y="-3885.8" font-family="Times New Roman,serif" font-size="14.00">advise</text>
</g>
<!-- Entity76 -->
<g id="node38" class="node entity">
<title>Entity76</title>
<ellipse fill="none" stroke="black" cx="3370.58" cy="-4624.26" rx="77.19" ry="18"/>
<text text-anchor="start" x="3319.08" y="-4620.56" font-family="Times New Roman,serif" font-size="14.00">hollywood movies</text>
</g>
<!-- Entity25&#45;&gt;Entity76 -->
<g id="edge30" class="edge verb">
<title>Entity25&#45;&gt;Entity76</title>
<path fill="none" stroke="black" d="M2862.47,-4281.87C2948.78,-4340.03 3237.69,-4534.71 3336.84,-4601.52"/>
<polygon fill="black" stroke="black" points="3335.04,-4604.53 3345.29,-4607.22 3338.95,-4598.73 3335.04,-4604.53"/>
<text text-anchor="start" x="3052.66" y="-4445.5" font-family="Times New Roman,serif" font-size="14.00">produce</text>
</g>
<!-- Entity64 -->
<g id="node46" class="node entity">
<title>Entity64</title>
<ellipse fill="none" stroke="black" cx="2836.22" cy="-4754.89" rx="38.19" ry="18"/>
<text text-anchor="start" x="2814.72" y="-4751.19" font-family="Times New Roman,serif" font-size="14.00">us navy</text>
</g>
<!-- Entity25&#45;&gt;Entity64 -->
<g id="edge39" class="edge verb">
<title>Entity25&#45;&gt;Entity64</title>
<path fill="none" stroke="black" d="M2837.78,-4283.28C2837.54,-4357.06 2836.61,-4636.57 2836.31,-4726.7"/>
<polygon fill="black" stroke="black" points="2832.81,-4726.71 2836.28,-4736.72 2839.81,-4726.74 2832.81,-4726.71"/>
<text text-anchor="start" x="2791.05" y="-4508.79" font-family="Times New Roman,serif" font-size="14.00">member</text>
</g>
<!-- Entity77 -->
<g id="node49" class="node entity">
<title>Entity77</title>
<ellipse fill="none" stroke="black" cx="3329.9" cy="-4478.84" rx="64.99" ry="18"/>
<text text-anchor="start" x="3287.9" y="-4475.14" font-family="Times New Roman,serif" font-size="14.00">goldman sachs</text>
</g>
<!-- Entity25&#45;&gt;Entity77 -->
<g id="edge44" class="edge verb">
<title>Entity25&#45;&gt;Entity77</title>
<path fill="none" stroke="black" d="M2872.05,-4280.12C2959.06,-4317.89 3188.73,-4417.57 3285.69,-4459.65"/>
<polygon fill="black" stroke="black" points="3284.36,-4462.89 3294.93,-4463.66 3287.15,-4456.47 3284.36,-4462.89"/>
<text text-anchor="start" x="3024.87" y="-4373.69" font-family="Times New Roman,serif" font-size="14.00">employee</text>
</g>
<!-- Entity63 -->
<g id="node51" class="node entity">
<title>Entity63</title>
<ellipse fill="none" stroke="black" cx="3111.21" cy="-4732.27" rx="53.09" ry="18"/>
<text text-anchor="start" x="3078.21" y="-4728.57" font-family="Times New Roman,serif" font-size="14.00">biosphere 2</text>
</g>
<!-- Entity25&#45;&gt;Entity63 -->
<g id="edge50" class="edge verb">
<title>Entity25&#45;&gt;Entity63</title>
<path fill="none" stroke="black" d="M2848.23,-4283.01C2889.96,-4354.31 3045.67,-4620.29 3095.66,-4705.69"/>
<polygon fill="black" stroke="black" points="3092.75,-4707.65 3100.82,-4714.52 3098.79,-4704.12 3092.75,-4707.65"/>
<text text-anchor="start" x="2937.94" y="-4498.15" font-family="Times New Roman,serif" font-size="14.00">create</text>
</g>
<!-- Entity65 -->
<g id="node53" class="node entity">
<title>Entity65</title>
<ellipse fill="none" stroke="black" cx="2445.9" cy="-4622.42" rx="61.99" ry="18"/>
<text text-anchor="start" x="2406.4" y="-4618.72" font-family="Times New Roman,serif" font-size="14.00">breitbart news</text>
</g>
<!-- Entity25&#45;&gt;Entity65 -->
<g id="edge55" class="edge verb">
<title>Entity25&#45;&gt;Entity65</title>
<path fill="none" stroke="black" d="M2818.94,-4282.5C2755.06,-4340.71 2547.05,-4530.25 2472.66,-4598.03"/>
<polygon fill="black" stroke="black" points="2470.11,-4595.62 2465.07,-4604.95 2474.82,-4600.8 2470.11,-4595.62"/>
<text text-anchor="start" x="2611.8" y="-4444.07" font-family="Times New Roman,serif" font-size="14.00">create</text>
</g>
<!-- Entity61 -->
<g id="node58" class="node entity">
<title>Entity61</title>
<ellipse fill="none" stroke="black" cx="2615.95" cy="-4730.37" rx="35.19" ry="18"/>
<text text-anchor="start" x="2596.95" y="-4726.67" font-family="Times New Roman,serif" font-size="14.00">gurgev</text>
</g>
<!-- Entity25&#45;&gt;Entity61 -->
<g id="edge64" class="edge verb">
<title>Entity25&#45;&gt;Entity61</title>
<path fill="none" stroke="black" d="M2829.28,-4283.22C2795.23,-4354.59 2669.3,-4618.54 2628.67,-4703.7"/>
<polygon fill="black" stroke="black" points="2625.51,-4702.19 2624.37,-4712.72 2631.83,-4705.21 2625.51,-4702.19"/>
<text text-anchor="start" x="2697.98" y="-4497.26" font-family="Times New Roman,serif" font-size="14.00">study</text>
</g>
<!-- Entity8&#45;&gt;Entity30 -->
<g id="edge13" class="edge verb">
<title>Entity8&#45;&gt;Entity30</title>
<path fill="none" stroke="black" d="M2649.88,-3470.81C2597.54,-3381.3 2363.5,-2981.06 2300.63,-2873.52"/>
<polygon fill="black" stroke="black" points="2303.48,-2871.47 2295.41,-2864.6 2297.44,-2875 2303.48,-2871.47"/>
<text text-anchor="start" x="2432.25" y="-3175.97" font-family="Times New Roman,serif" font-size="14.00">nephew</text>
</g>
<!-- Entity8&#45;&gt;Entity53 -->
<g id="edge25" class="edge verb">
<title>Entity8&#45;&gt;Entity53</title>
<path fill="none" stroke="black" d="M2672.1,-3470.99C2717.99,-3402.28 2884.77,-3152.54 2939.16,-3071.1"/>
<polygon fill="black" stroke="black" points="2942.29,-3072.71 2944.94,-3062.45 2936.47,-3068.82 2942.29,-3072.71"/>
<text text-anchor="start" x="2795.63" y="-3274.84" font-family="Times New Roman,serif" font-size="14.00">is</text>
</g>
<!-- Entity34 -->
<g id="node20" class="node entity">
<title>Entity34</title>
<ellipse fill="none" stroke="black" cx="1482.24" cy="-3297.41" rx="90.98" ry="18"/>
<text text-anchor="start" x="1420.24" y="-3293.71" font-family="Times New Roman,serif" font-size="14.00">emma hardinge&#45;britten</text>
</g>
<!-- Entity38 -->
<g id="node21" class="node entity">
<title>Entity38</title>
<ellipse fill="none" stroke="black" cx="2319.8" cy="-3168.27" rx="67.69" ry="18"/>
<text text-anchor="start" x="2275.8" y="-3164.57" font-family="Times New Roman,serif" font-size="14.00">abraham lincoln</text>
</g>
<!-- Entity34&#45;&gt;Entity38 -->
<g id="edge14" class="edge verb">
<title>Entity34&#45;&gt;Entity38</title>
<path fill="none" stroke="black" d="M1554.01,-3286.34C1713.35,-3261.77 2094.85,-3202.95 2251.2,-3178.85"/>
<polygon fill="black" stroke="black" points="2251.81,-3182.29 2261.16,-3177.31 2250.75,-3175.37 2251.81,-3182.29"/>
<text text-anchor="start" x="1823.6" y="-3236.39" font-family="Times New Roman,serif" font-size="14.00">spokesperson</text>
</g>
<!-- Entity59 -->
<g id="node37" class="node entity">
<title>Entity59</title>
<ellipse fill="none" stroke="black" cx="1276.81" cy="-3405.43" rx="85.29" ry="18"/>
<text text-anchor="start" x="1219.31" y="-3401.73" font-family="Times New Roman,serif" font-size="14.00">theosophical society</text>
</g>
<!-- Entity34&#45;&gt;Entity59 -->
<g id="edge41" class="edge verb">
<title>Entity34&#45;&gt;Entity59</title>
<path fill="none" stroke="black" d="M1450.14,-3314.29C1414.41,-3333.07 1356.59,-3363.48 1317.66,-3383.95"/>
<polygon fill="black" stroke="black" points="1315.9,-3380.92 1308.68,-3388.67 1319.16,-3387.12 1315.9,-3380.92"/>
<text text-anchor="start" x="1349.9" y="-3352.92" font-family="Times New Roman,serif" font-size="14.00">create</text>
</g>
<!-- Entity68 -->
<g id="node50" class="node entity">
<title>Entity68</title>
<ellipse fill="none" stroke="black" cx="902.36" cy="-3405.45" rx="39.79" ry="18"/>
<text text-anchor="start" x="879.86" y="-3401.75" font-family="Times New Roman,serif" font-size="14.00">medium</text>
</g>
<!-- Entity34&#45;&gt;Entity68 -->
<g id="edge45" class="edge verb">
<title>Entity34&#45;&gt;Entity68</title>
<path fill="none" stroke="black" d="M1415.72,-3309.8C1297.08,-3331.9 1051.8,-3377.6 949.14,-3396.73"/>
<polygon fill="black" stroke="black" points="948.27,-3393.33 939.08,-3398.6 949.55,-3400.21 948.27,-3393.33"/>
<text text-anchor="start" x="1172.43" y="-3357.06" font-family="Times New Roman,serif" font-size="14.00">is</text>
</g>
<!-- Entity69 -->
<g id="node60" class="node entity">
<title>Entity69</title>
<ellipse fill="none" stroke="black" cx="867.31" cy="-3157.86" rx="55.79" ry="18"/>
<text text-anchor="start" x="832.31" y="-3154.16" font-family="Times New Roman,serif" font-size="14.00">orphic circle</text>
</g>
<!-- Entity34&#45;&gt;Entity69 -->
<g id="edge66" class="edge verb">
<title>Entity34&#45;&gt;Entity69</title>
<path fill="none" stroke="black" d="M1422.44,-3283.84C1303.49,-3256.85 1038.75,-3196.77 923.13,-3170.53"/>
<polygon fill="black" stroke="black" points="923.61,-3167.05 913.08,-3168.25 922.06,-3173.88 923.61,-3167.05"/>
<text text-anchor="start" x="1126.78" y="-3230.99" font-family="Times New Roman,serif" font-size="14.00">member</text>
</g>
<!-- Entity38&#45;&gt;Entity53 -->
<g id="edge51" class="edge verb">
<title>Entity38&#45;&gt;Entity53</title>
<path fill="none" stroke="black" d="M2374.63,-3157.67C2500.41,-3133.36 2807.31,-3074.05 2916.81,-3052.88"/>
<polygon fill="black" stroke="black" points="2917.62,-3056.29 2926.78,-3050.96 2916.29,-3049.42 2917.62,-3056.29"/>
<text text-anchor="start" x="2635.72" y="-3109.08" font-family="Times New Roman,serif" font-size="14.00">is</text>
</g>
<!-- Entity40 -->
<g id="node22" class="node entity">
<title>Entity40</title>
<ellipse fill="none" stroke="black" cx="2315.13" cy="-759.18" rx="57.69" ry="18"/>
<text text-anchor="start" x="2278.63" y="-755.48" font-family="Times New Roman,serif" font-size="14.00">michael pane</text>
</g>
<!-- Entity37 -->
<g id="node23" class="node entity">
<title>Entity37</title>
<ellipse fill="none" stroke="black" cx="2828.3" cy="-773.15" rx="74.99" ry="18"/>
<text text-anchor="start" x="2778.8" y="-769.45" font-family="Times New Roman,serif" font-size="14.00">walter dornberger</text>
</g>
<!-- Entity40&#45;&gt;Entity37 -->
<g id="edge16" class="edge verb">
<title>Entity40&#45;&gt;Entity37</title>
<path fill="none" stroke="black" d="M2373,-760.76C2463.43,-763.22 2638.73,-767.99 2743.45,-770.84"/>
<polygon fill="black" stroke="black" points="2743.58,-774.34 2753.68,-771.12 2743.78,-767.34 2743.58,-774.34"/>
<text text-anchor="start" x="2504.23" y="-769.6" font-family="Times New Roman,serif" font-size="14.00">employee</text>
</g>
<!-- Entity40&#45;&gt;Entity56 -->
<g id="edge62" class="edge verb">
<title>Entity40&#45;&gt;Entity56</title>
<path fill="none" stroke="black" d="M2300.54,-777.02C2286.06,-794.71 2263.74,-821.99 2247.44,-841.91"/>
<polygon fill="black" stroke="black" points="2244.71,-839.72 2241.08,-849.68 2250.12,-844.16 2244.71,-839.72"/>
<text text-anchor="start" x="2219.99" y="-813.26" font-family="Times New Roman,serif" font-size="14.00">employee</text>
</g>
<!-- Entity51 -->
<g id="node24" class="node entity">
<title>Entity51</title>
<ellipse fill="none" stroke="black" cx="3439.89" cy="-855.48" rx="32.49" ry="18"/>
<text text-anchor="start" x="3422.89" y="-851.78" font-family="Times New Roman,serif" font-size="14.00">nsdap</text>
</g>
<!-- Entity37&#45;&gt;Entity51 -->
<g id="edge17" class="edge verb">
<title>Entity37&#45;&gt;Entity51</title>
<path fill="none" stroke="black" d="M2893.75,-781.96C3019.92,-798.94 3293.55,-835.78 3398.11,-849.86"/>
<polygon fill="black" stroke="black" points="3397.9,-853.36 3408.27,-851.23 3398.83,-846.42 3397.9,-853.36"/>
<text text-anchor="start" x="3099.93" y="-819.71" font-family="Times New Roman,serif" font-size="14.00">member</text>
</g>
<!-- Entity37&#45;&gt;Entity56 -->
<g id="edge32" class="edge verb">
<title>Entity37&#45;&gt;Entity56</title>
<path fill="none" stroke="black" d="M2758.31,-779.53C2636.91,-795.34 2389.88,-834.1 2280.7,-854.62"/>
<polygon fill="black" stroke="black" points="2279.75,-851.24 2270.58,-856.54 2281.06,-858.11 2279.75,-851.24"/>
<text text-anchor="start" x="2465.51" y="-820.87" font-family="Times New Roman,serif" font-size="14.00">employee</text>
</g>
<!-- Entity37&#45;&gt;Entity56 -->
<g id="edge42" class="edge verb">
<title>Entity37&#45;&gt;Entity56</title>
<path fill="none" stroke="black" d="M2774.49,-785.69C2663.18,-806.61 2408.18,-846.55 2289.57,-861.73"/>
<polygon fill="black" stroke="black" points="2289.04,-858.26 2279.55,-862.99 2289.91,-865.21 2289.04,-858.26"/>
<text text-anchor="start" x="2532.03" y="-827.51" font-family="Times New Roman,serif" font-size="14.00">vice&#45;president</text>
</g>
<!-- Entity72 -->
<g id="node48" class="node entity">
<title>Entity72</title>
<ellipse fill="none" stroke="black" cx="3066.22" cy="-665.17" rx="90.98" ry="18"/>
<text text-anchor="start" x="3004.22" y="-661.47" font-family="Times New Roman,serif" font-size="14.00">nsdap rocket program</text>
</g>
<!-- Entity37&#45;&gt;Entity72 -->
<g id="edge43" class="edge verb">
<title>Entity37&#45;&gt;Entity72</title>
<path fill="none" stroke="black" d="M2863.4,-757.21C2905.13,-738.28 2974.84,-706.64 3020.68,-685.84"/>
<polygon fill="black" stroke="black" points="3022.14,-689.02 3029.8,-681.7 3019.24,-682.65 3022.14,-689.02"/>
<text text-anchor="start" x="2908.04" y="-725.33" font-family="Times New Roman,serif" font-size="14.00">create</text>
</g>
<!-- Entity73 -->
<g id="node61" class="node entity">
<title>Entity73</title>
<ellipse fill="none" stroke="black" cx="3188.92" cy="-275.48" rx="65.79" ry="18"/>
<text text-anchor="start" x="3146.42" y="-271.78" font-family="Times New Roman,serif" font-size="14.00">x series aircraft</text>
</g>
<!-- Entity37&#45;&gt;Entity73 -->
<g id="edge67" class="edge verb">
<title>Entity37&#45;&gt;Entity73</title>
<path fill="none" stroke="black" d="M2841.35,-755.14C2895.91,-679.84 3105.94,-389.99 3170.16,-301.37"/>
<polygon fill="black" stroke="black" points="3173.04,-303.35 3176.07,-293.2 3167.37,-299.25 3173.04,-303.35"/>
<text text-anchor="start" x="2971.75" y="-532.06" font-family="Times New Roman,serif" font-size="14.00">create</text>
</g>
<!-- Entity74 -->
<g id="node41" class="node entity">
<title>Entity74</title>
<ellipse fill="none" stroke="black" cx="3775.2" cy="-1169.03" rx="38.99" ry="18"/>
<text text-anchor="start" x="3753.2" y="-1165.33" font-family="Times New Roman,serif" font-size="14.00">far right</text>
</g>
<!-- Entity51&#45;&gt;Entity74 -->
<g id="edge47" class="edge verb">
<title>Entity51&#45;&gt;Entity74</title>
<path fill="none" stroke="black" d="M3456.52,-871.03C3511.12,-922.09 3685.15,-1084.83 3750.28,-1145.73"/>
<polygon fill="black" stroke="black" points="3747.97,-1148.36 3757.66,-1152.64 3752.75,-1143.25 3747.97,-1148.36"/>
<text text-anchor="start" x="3557.4" y="-1012.18" font-family="Times New Roman,serif" font-size="14.00">member</text>
</g>
<!-- Entity46 -->
<g id="node25" class="node entity">
<title>Entity46</title>
<ellipse fill="none" stroke="black" cx="2853.45" cy="-236.75" rx="46.29" ry="18"/>
<text text-anchor="start" x="2825.95" y="-233.05" font-family="Times New Roman,serif" font-size="14.00">van braun</text>
</g>
<!-- Entity46&#45;&gt;Entity37 -->
<g id="edge18" class="edge verb">
<title>Entity46&#45;&gt;Entity37</title>
<path fill="none" stroke="black" d="M2852.6,-254.9C2848.89,-333.93 2834.15,-648.34 2829.63,-744.84"/>
<polygon fill="black" stroke="black" points="2826.12,-744.84 2829.15,-755 2833.11,-745.17 2826.12,-744.84"/>
<text text-anchor="start" x="2787.11" y="-503.67" font-family="Times New Roman,serif" font-size="14.00">employee</text>
</g>
<!-- Entity46&#45;&gt;Entity72 -->
<g id="edge46" class="edge verb">
<title>Entity46&#45;&gt;Entity72</title>
<path fill="none" stroke="black" d="M2862.32,-254.61C2895.58,-321.57 3012.96,-557.92 3052.84,-638.23"/>
<polygon fill="black" stroke="black" points="3049.73,-639.83 3057.31,-647.23 3056,-636.72 3049.73,-639.83"/>
<text text-anchor="start" x="2903.58" y="-450.22" font-family="Times New Roman,serif" font-size="14.00">employee</text>
</g>
<!-- Entity49 -->
<g id="node26" class="node entity">
<title>Entity49</title>
<ellipse fill="none" stroke="black" cx="3738.44" cy="-559.88" rx="49.29" ry="18"/>
<text text-anchor="start" x="3708.44" y="-556.18" font-family="Times New Roman,serif" font-size="14.00">adolf hitler</text>
</g>
<!-- Entity49&#45;&gt;Entity51 -->
<g id="edge19" class="edge verb">
<title>Entity49&#45;&gt;Entity51</title>
<path fill="none" stroke="black" d="M3721.1,-577.05C3670.13,-627.52 3520.73,-775.44 3463.01,-832.59"/>
<polygon fill="black" stroke="black" points="3460.45,-830.19 3455.81,-839.72 3465.38,-835.17 3460.45,-830.19"/>
<text text-anchor="start" x="3558.06" y="-708.62" font-family="Times New Roman,serif" font-size="14.00">create</text>
</g>
<!-- Entity50 -->
<g id="node27" class="node entity">
<title>Entity50</title>
<ellipse fill="none" stroke="black" cx="3957.58" cy="-2925.77" rx="37.89" ry="18"/>
<text text-anchor="start" x="3936.58" y="-2922.07" font-family="Times New Roman,serif" font-size="14.00">hunt oil</text>
</g>
<!-- Entity48 -->
<g id="node28" class="node entity">
<title>Entity48</title>
<ellipse fill="none" stroke="black" cx="3408.96" cy="-2844.66" rx="77.99" ry="18"/>
<text text-anchor="start" x="3356.96" y="-2840.96" font-family="Times New Roman,serif" font-size="14.00">dwight eisenhower</text>
</g>
<!-- Entity50&#45;&gt;Entity48 -->
<g id="edge20" class="edge verb">
<title>Entity50&#45;&gt;Entity48</title>
<path fill="none" stroke="black" d="M3921.16,-2920.39C3832.68,-2907.31 3604.9,-2873.63 3485.14,-2855.93"/>
<polygon fill="black" stroke="black" points="3485.35,-2852.42 3474.95,-2854.42 3484.33,-2859.34 3485.35,-2852.42"/>
<text text-anchor="start" x="3677.15" y="-2891.96" font-family="Times New Roman,serif" font-size="14.00">fund</text>
</g>
<!-- Entity48&#45;&gt;Entity53 -->
<g id="edge52" class="edge verb">
<title>Entity48&#45;&gt;Entity53</title>
<path fill="none" stroke="black" d="M3372.69,-2860.74C3287.16,-2898.65 3073.76,-2993.23 2990.48,-3030.14"/>
<polygon fill="black" stroke="black" points="2988.95,-3026.99 2981.22,-3034.24 2991.78,-3033.39 2988.95,-3026.99"/>
<text text-anchor="start" x="3171.59" y="-2949.24" font-family="Times New Roman,serif" font-size="14.00">is</text>
</g>
<!-- Entity45&#45;&gt;Entity74 -->
<g id="edge33" class="edge verb">
<title>Entity45&#45;&gt;Entity74</title>
<path fill="none" stroke="black" d="M4011.56,-1638.91C3974.39,-1565.02 3833.01,-1283.96 3788.62,-1195.71"/>
<polygon fill="black" stroke="black" points="3791.66,-1193.98 3784.04,-1186.62 3785.41,-1197.13 3791.66,-1193.98"/>
<text text-anchor="start" x="3854.09" y="-1421.11" font-family="Times New Roman,serif" font-size="14.00">member</text>
</g>
<!-- Entity13 -->
<g id="node32" class="node entity">
<title>Entity13</title>
<ellipse fill="none" stroke="black" cx="3001.75" cy="-2628.58" rx="58.49" ry="18"/>
<text text-anchor="start" x="2964.75" y="-2624.88" font-family="Times New Roman,serif" font-size="14.00">richard nixon</text>
</g>
<!-- Entity13&#45;&gt;Entity53 -->
<g id="edge24" class="edge verb">
<title>Entity13&#45;&gt;Entity53</title>
<path fill="none" stroke="black" d="M2999.77,-2646.75C2992.65,-2712.27 2968.24,-2936.73 2959.54,-3016.67"/>
<polygon fill="black" stroke="black" points="2956.03,-3016.64 2958.43,-3026.96 2962.99,-3017.4 2956.03,-3016.64"/>
<text text-anchor="start" x="2969.66" y="-2835.51" font-family="Times New Roman,serif" font-size="14.00">is</text>
</g>
<!-- Entity10 -->
<g id="node33" class="node entity">
<title>Entity10</title>
<ellipse fill="none" stroke="black" cx="3309.14" cy="-2736.6" rx="56.59" ry="18"/>
<text text-anchor="start" x="3273.64" y="-2732.9" font-family="Times New Roman,serif" font-size="14.00">harry truman</text>
</g>
<!-- Entity10&#45;&gt;Entity53 -->
<g id="edge26" class="edge verb">
<title>Entity10&#45;&gt;Entity53</title>
<path fill="none" stroke="black" d="M3289.68,-2753.63C3229.73,-2806.09 3047.93,-2965.17 2981.28,-3023.49"/>
<polygon fill="black" stroke="black" points="2978.96,-3020.87 2973.73,-3030.09 2983.56,-3026.14 2978.96,-3020.87"/>
<text text-anchor="start" x="3125.48" y="-2892.36" font-family="Times New Roman,serif" font-size="14.00">is</text>
</g>
<!-- Entity57 -->
<g id="node42" class="node entity">
<title>Entity57</title>
<ellipse fill="none" stroke="black" cx="3682.99" cy="-2424.9" rx="55.79" ry="18"/>
<text text-anchor="start" x="3647.99" y="-2421.2" font-family="Times New Roman,serif" font-size="14.00">freemasonry</text>
</g>
<!-- Entity10&#45;&gt;Entity57 -->
<g id="edge34" class="edge verb">
<title>Entity10&#45;&gt;Entity57</title>
<path fill="none" stroke="black" d="M3329.51,-2719.62C3392.3,-2667.26 3583.03,-2508.25 3655.05,-2448.2"/>
<polygon fill="black" stroke="black" points="3657.39,-2450.8 3662.83,-2441.71 3652.91,-2445.42 3657.39,-2450.8"/>
<text text-anchor="start" x="3446.28" y="-2587.71" font-family="Times New Roman,serif" font-size="14.00">member</text>
</g>
<!-- Entity22 -->
<g id="node35" class="node entity">
<title>Entity22</title>
<ellipse fill="none" stroke="black" cx="685.49" cy="-3759.72" rx="58.49" ry="18"/>
<text text-anchor="start" x="648.49" y="-3756.02" font-family="Times New Roman,serif" font-size="14.00">rudolf steiner</text>
</g>
<!-- Entity60 -->
<g id="node36" class="node entity">
<title>Entity60</title>
<ellipse fill="none" stroke="black" cx="102.2" cy="-4083.01" rx="102.08" ry="18"/>
<text text-anchor="start" x="31.7" y="-4079.31" font-family="Times New Roman,serif" font-size="14.00">anthroposophical society</text>
</g>
<!-- Entity22&#45;&gt;Entity60 -->
<g id="edge28" class="edge verb">
<title>Entity22&#45;&gt;Entity60</title>
<path fill="none" stroke="black" d="M656.96,-3775.54C561.52,-3828.43 253.18,-3999.33 142.34,-4060.76"/>
<polygon fill="black" stroke="black" points="140.52,-4057.77 133.47,-4065.68 143.91,-4063.89 140.52,-4057.77"/>
<text text-anchor="start" x="365.65" y="-3921.95" font-family="Times New Roman,serif" font-size="14.00">create</text>
</g>
<!-- Entity22&#45;&gt;Entity59 -->
<g id="edge29" class="edge verb">
<title>Entity22&#45;&gt;Entity59</title>
<path fill="none" stroke="black" d="M712.44,-3743.58C807.81,-3686.44 1129.56,-3493.66 1239.57,-3427.75"/>
<polygon fill="black" stroke="black" points="1241.55,-3430.64 1248.33,-3422.5 1237.96,-3424.63 1241.55,-3430.64"/>
<text text-anchor="start" x="930" y="-3589.46" font-family="Times New Roman,serif" font-size="14.00">member</text>
</g>
<!-- Entity44 -->
<g id="node39" class="node entity">
<title>Entity44</title>
<ellipse fill="none" stroke="black" cx="2885.94" cy="-1669.66" rx="53.89" ry="18"/>
<text text-anchor="start" x="2852.44" y="-1665.96" font-family="Times New Roman,serif" font-size="14.00">black magic</text>
</g>
<!-- Entity71 -->
<g id="node40" class="node entity">
<title>Entity71</title>
<ellipse fill="none" stroke="black" cx="2973.66" cy="-1781.64" rx="28.7" ry="18"/>
<text text-anchor="start" x="2959.66" y="-1777.94" font-family="Times New Roman,serif" font-size="14.00">x left</text>
</g>
<!-- Entity44&#45;&gt;Entity71 -->
<g id="edge31" class="edge verb">
<title>Entity44&#45;&gt;Entity71</title>
<path fill="none" stroke="black" d="M2899.64,-1687.16C2914.45,-1706.05 2938.14,-1736.29 2954.72,-1757.45"/>
<polygon fill="black" stroke="black" points="2951.98,-1759.64 2960.9,-1765.36 2957.49,-1755.32 2951.98,-1759.64"/>
<text text-anchor="start" x="2881.18" y="-1726.11" font-family="Times New Roman,serif" font-size="14.00">member</text>
</g>
<!-- Entity14 -->
<g id="node44" class="node entity">
<title>Entity14</title>
<ellipse fill="none" stroke="black" cx="2668.33" cy="-2735.9" rx="31.4" ry="18"/>
<text text-anchor="start" x="2652.33" y="-2732.2" font-family="Times New Roman,serif" font-size="14.00">carter</text>
</g>
<!-- Entity14&#45;&gt;Entity53 -->
<g id="edge36" class="edge verb">
<title>Entity14&#45;&gt;Entity53</title>
<path fill="none" stroke="black" d="M2683.42,-2752.09C2731.06,-2803.25 2878.5,-2961.54 2934.53,-3021.7"/>
<polygon fill="black" stroke="black" points="2932.13,-3024.26 2941.5,-3029.19 2937.25,-3019.49 2932.13,-3024.26"/>
<text text-anchor="start" x="2798.97" y="-2890.7" font-family="Times New Roman,serif" font-size="14.00">is</text>
</g>
<!-- Entity14&#45;&gt;Entity54 -->
<g id="edge63" class="edge verb">
<title>Entity14&#45;&gt;Entity54</title>
<path fill="none" stroke="black" d="M2651.27,-2720.67C2601.45,-2676.21 2456.09,-2546.5 2398.49,-2495.1"/>
<polygon fill="black" stroke="black" points="2400.75,-2492.43 2390.96,-2488.38 2396.09,-2497.65 2400.75,-2492.43"/>
<text text-anchor="start" x="2482.88" y="-2611.68" font-family="Times New Roman,serif" font-size="14.00">witness</text>
</g>
<!-- Entity21 -->
<g id="node45" class="node entity">
<title>Entity21</title>
<ellipse fill="none" stroke="black" cx="3154.32" cy="-3346.94" rx="35.19" ry="18"/>
<text text-anchor="start" x="3135.32" y="-3343.24" font-family="Times New Roman,serif" font-size="14.00">obama</text>
</g>
<!-- Entity21&#45;&gt;Entity53 -->
<g id="edge37" class="edge verb">
<title>Entity21&#45;&gt;Entity53</title>
<path fill="none" stroke="black" d="M3143.11,-3329.86C3109.99,-3279.35 3012.37,-3130.51 2973.09,-3070.62"/>
<polygon fill="black" stroke="black" points="2975.93,-3068.57 2967.52,-3062.12 2970.08,-3072.4 2975.93,-3068.57"/>
<text text-anchor="start" x="3048.1" y="-3204.04" font-family="Times New Roman,serif" font-size="14.00">is</text>
</g>
<!-- Entity35 -->
<g id="node54" class="node entity">
<title>Entity35</title>
<ellipse fill="none" stroke="black" cx="2399.94" cy="-1905.66" rx="39.79" ry="18"/>
<text text-anchor="start" x="2377.44" y="-1901.96" font-family="Times New Roman,serif" font-size="14.00">crowley</text>
</g>
<!-- Entity70 -->
<g id="node55" class="node entity">
<title>Entity70</title>
<ellipse fill="none" stroke="black" cx="2487.66" cy="-2017.64" rx="38.99" ry="18"/>
<text text-anchor="start" x="2465.66" y="-2013.94" font-family="Times New Roman,serif" font-size="14.00">x magic</text>
</g>
<!-- Entity35&#45;&gt;Entity70 -->
<g id="edge56" class="edge verb">
<title>Entity35&#45;&gt;Entity70</title>
<path fill="none" stroke="black" d="M2413.26,-1922.67C2427.82,-1941.25 2451.28,-1971.2 2467.96,-1992.49"/>
<polygon fill="black" stroke="black" points="2465.29,-1994.76 2474.21,-2000.47 2470.8,-1990.44 2465.29,-1994.76"/>
<text text-anchor="start" x="2394.61" y="-1961.38" font-family="Times New Roman,serif" font-size="14.00">member</text>
</g>
<!-- Entity24 -->
<g id="node56" class="node entity">
<title>Entity24</title>
<ellipse fill="none" stroke="black" cx="1133.38" cy="-3513.45" rx="73.39" ry="18"/>
<text text-anchor="start" x="1084.88" y="-3509.75" font-family="Times New Roman,serif" font-size="14.00">madam blavatsky</text>
</g>
<!-- Entity24&#45;&gt;Entity59 -->
<g id="edge60" class="edge verb">
<title>Entity24&#45;&gt;Entity59</title>
<path fill="none" stroke="black" d="M1156.42,-3496.1C1180.43,-3478.02 1218.22,-3449.56 1245.05,-3429.35"/>
<polygon fill="black" stroke="black" points="1247.46,-3431.92 1253.35,-3423.1 1243.25,-3426.32 1247.46,-3431.92"/>
<text text-anchor="start" x="1166.74" y="-3466.52" font-family="Times New Roman,serif" font-size="14.00">create</text>
</g>
<!-- Entity31 -->
<g id="node57" class="node entity">
<title>Entity31</title>
<ellipse fill="none" stroke="black" cx="2929.95" cy="-4623.87" rx="69.59" ry="18"/>
<text text-anchor="start" x="2884.45" y="-4620.17" font-family="Times New Roman,serif" font-size="14.00">andrew breitbart</text>
</g>
<!-- Entity31&#45;&gt;Entity65 -->
<g id="edge61" class="edge verb">
<title>Entity31&#45;&gt;Entity65</title>
<path fill="none" stroke="black" d="M2860.34,-4623.66C2769.18,-4623.39 2610.16,-4622.91 2517.85,-4622.63"/>
<polygon fill="black" stroke="black" points="2517.77,-4619.13 2507.76,-4622.6 2517.75,-4626.13 2517.77,-4619.13"/>
<text text-anchor="start" x="2655.1" y="-4626.95" font-family="Times New Roman,serif" font-size="14.00">create</text>
</g>
</g>
</svg>
