<?xml version="1.0" encoding="UTF-8" standalone="no"?>
<?xml-stylesheet href="../styles.css" type="text/css"?>
<!DOCTYPE svg PUBLIC "-//W3C//DTD SVG 1.1//EN"
 "http://www.w3.org/Graphics/SVG/1.1/DTD/svg11.dtd">
<!-- Generated by graphviz version 2.47.3 (20210619.1520)
 -->
<!-- Title: G Pages: 1 -->
<svg width="5211pt" height="3712pt"
 viewBox="0.00 0.00 5211.00 3712.00" xmlns="http://www.w3.org/2000/svg" xmlns:xlink="http://www.w3.org/1999/xlink">
<g id="graph0" class="graph" transform="scale(1 1) rotate(0) translate(4 3708)">
<title>G</title>
<polygon fill="white" stroke="transparent" points="-4,4 -4,-3708 5207,-3708 5207,4 -4,4"/>
<!-- Entity5 -->
<g id="node1" class="node entity">
<title>Entity5</title>
<ellipse fill="none" stroke="black" cx="2781.64" cy="-2140.51" rx="75.29" ry="18"/>
<text text-anchor="start" x="2731.64" y="-2136.81" font-family="Times New Roman,serif" font-size="14.00">lee harvey oswald</text>
</g>
<!-- Entity7 -->
<g id="node2" class="node entity">
<title>Entity7</title>
<ellipse fill="none" stroke="black" cx="1967.19" cy="-2128.14" rx="64.19" ry="18"/>
<text text-anchor="start" x="1925.69" y="-2124.44" font-family="Times New Roman,serif" font-size="14.00">john f kennedy</text>
</g>
<!-- Entity5&#45;&gt;Entity7 -->
<g id="edge1" class="edge verb">
<title>Entity5&#45;&gt;Entity7</title>
<path fill="none" stroke="black" d="M2706.11,-2139.37C2550.66,-2137 2196.58,-2131.62 2041.86,-2129.27"/>
<polygon fill="black" stroke="black" points="2041.57,-2125.77 2031.52,-2129.11 2041.46,-2132.76 2041.57,-2125.77"/>
<text text-anchor="start" x="2311.99" y="-2138.12" font-family="Times New Roman,serif" font-size="14.00">assassinate</text>
</g>
<!-- Entity45 -->
<g id="node27" class="node entity">
<title>Entity45</title>
<ellipse fill="none" stroke="black" cx="3550.18" cy="-2060.12" rx="59.29" ry="18"/>
<text text-anchor="start" x="3512.68" y="-2056.42" font-family="Times New Roman,serif" font-size="14.00">guy bannister</text>
</g>
<!-- Entity5&#45;&gt;Entity45 -->
<g id="edge20" class="edge verb">
<title>Entity5&#45;&gt;Entity45</title>
<path fill="none" stroke="black" d="M2850.85,-2133.27C2997.96,-2117.88 3340,-2082.1 3484.19,-2067.02"/>
<polygon fill="black" stroke="black" points="3484.65,-2070.49 3494.23,-2065.97 3483.92,-2063.53 3484.65,-2070.49"/>
<text text-anchor="start" x="3113.52" y="-2103.95" font-family="Times New Roman,serif" font-size="14.00">employee</text>
</g>
<!-- Entity53 -->
<g id="node29" class="node entity">
<title>Entity53</title>
<ellipse fill="none" stroke="black" cx="1311.49" cy="-2069.83" rx="31.4" ry="18"/>
<text text-anchor="start" x="1295.49" y="-2066.13" font-family="Times New Roman,serif" font-size="14.00">potus</text>
</g>
<!-- Entity7&#45;&gt;Entity53 -->
<g id="edge22" class="edge verb">
<title>Entity7&#45;&gt;Entity53</title>
<path fill="none" stroke="black" d="M1905.8,-2122.68C1773.49,-2110.91 1464.4,-2083.43 1352.7,-2073.5"/>
<polygon fill="black" stroke="black" points="1352.79,-2069.99 1342.52,-2072.59 1352.17,-2076.96 1352.79,-2069.99"/>
<text text-anchor="start" x="1619.25" y="-2101.89" font-family="Times New Roman,serif" font-size="14.00">is</text>
</g>
<!-- Entity2 -->
<g id="node3" class="node entity">
<title>Entity2</title>
<ellipse fill="none" stroke="black" cx="4011.99" cy="-194.14" rx="64.19" ry="18"/>
<text text-anchor="start" x="3970.49" y="-190.44" font-family="Times New Roman,serif" font-size="14.00">andre puharich</text>
</g>
<!-- Entity1 -->
<g id="node4" class="node entity">
<title>Entity1</title>
<ellipse fill="none" stroke="black" cx="3825.93" cy="-651.28" rx="41.69" ry="18"/>
<text text-anchor="start" x="3801.93" y="-647.58" font-family="Times New Roman,serif" font-size="14.00">uri geller</text>
</g>
<!-- Entity2&#45;&gt;Entity1 -->
<g id="edge2" class="edge verb">
<title>Entity2&#45;&gt;Entity1</title>
<path fill="none" stroke="black" d="M4004.69,-212.06C3976.09,-282.33 3871.48,-539.37 3837.02,-624.03"/>
<polygon fill="black" stroke="black" points="3833.7,-622.9 3833.18,-633.48 3840.19,-625.54 3833.7,-622.9"/>
<text text-anchor="start" x="3868.86" y="-421.85" font-family="Times New Roman,serif" font-size="14.00">sponsore</text>
</g>
<!-- Entity9 -->
<g id="node6" class="node entity">
<title>Entity9</title>
<ellipse fill="none" stroke="black" cx="4009.62" cy="-1013.98" rx="38.19" ry="18"/>
<text text-anchor="start" x="3988.12" y="-1010.28" font-family="Times New Roman,serif" font-size="14.00">the nine</text>
</g>
<!-- Entity1&#45;&gt;Entity9 -->
<g id="edge4" class="edge verb">
<title>Entity1&#45;&gt;Entity9</title>
<path fill="none" stroke="black" d="M3835.04,-669.26C3864.98,-728.38 3960.45,-916.89 3996.06,-987.2"/>
<polygon fill="black" stroke="black" points="3993.04,-988.97 4000.68,-996.31 3999.28,-985.81 3993.04,-988.97"/>
<text text-anchor="start" x="3811.55" y="-832.03" font-family="Times New Roman,serif" font-size="14.00">claiemd to channel</text>
</g>
<!-- Entity4 -->
<g id="node5" class="node entity">
<title>Entity4</title>
<ellipse fill="none" stroke="black" cx="3990.88" cy="-1446.64" rx="74.99" ry="18"/>
<text text-anchor="start" x="3941.38" y="-1442.94" font-family="Times New Roman,serif" font-size="14.00">gene roddenberry</text>
</g>
<!-- Entity4&#45;&gt;Entity9 -->
<g id="edge3" class="edge verb">
<title>Entity4&#45;&gt;Entity9</title>
<path fill="none" stroke="black" d="M3991.66,-1428.6C3994.58,-1361.25 4004.85,-1124.23 4008.4,-1042.18"/>
<polygon fill="black" stroke="black" points="4011.9,-1042.24 4008.84,-1032.1 4004.91,-1041.94 4011.9,-1042.24"/>
<text text-anchor="start" x="3896.03" y="-1224.19" font-family="Times New Roman,serif" font-size="14.00">claiemd to channel</text>
</g>
<!-- Entity52 -->
<g id="node42" class="node entity">
<title>Entity52</title>
<ellipse fill="none" stroke="black" cx="4239.62" cy="-1554.67" rx="94.48" ry="18"/>
<text text-anchor="start" x="4175.12" y="-1550.97" font-family="Times New Roman,serif" font-size="14.00">egyptian gods in a ship</text>
</g>
<!-- Entity9&#45;&gt;Entity52 -->
<g id="edge34" class="edge verb">
<title>Entity9&#45;&gt;Entity52</title>
<path fill="none" stroke="black" d="M4017.15,-1031.66C4050.72,-1110.59 4187.02,-1431.01 4227.94,-1527.22"/>
<polygon fill="black" stroke="black" points="4224.79,-1528.74 4231.92,-1536.57 4231.23,-1526 4224.79,-1528.74"/>
<text text-anchor="start" x="4092.55" y="-1283.24" font-family="Times New Roman,serif" font-size="14.00">claim</text>
</g>
<!-- Entity3 -->
<g id="node7" class="node entity">
<title>Entity3</title>
<ellipse fill="none" stroke="black" cx="3686.96" cy="-1296.65" rx="65.79" ry="18"/>
<text text-anchor="start" x="3644.46" y="-1292.95" font-family="Times New Roman,serif" font-size="14.00">arthur m young</text>
</g>
<!-- Entity3&#45;&gt;Entity9 -->
<g id="edge5" class="edge verb">
<title>Entity3&#45;&gt;Entity9</title>
<path fill="none" stroke="black" d="M3706.66,-1279.4C3762.31,-1230.64 3920.74,-1091.85 3983.53,-1036.84"/>
<polygon fill="black" stroke="black" points="3986.18,-1039.18 3991.39,-1029.95 3981.56,-1033.91 3986.18,-1039.18"/>
<text text-anchor="start" x="3799.09" y="-1161.92" font-family="Times New Roman,serif" font-size="14.00">member</text>
</g>
<!-- Entity56 -->
<g id="node28" class="node entity">
<title>Entity56</title>
<ellipse fill="none" stroke="black" cx="4248.08" cy="-1177.42" rx="53.89" ry="18"/>
<text text-anchor="start" x="4214.58" y="-1173.72" font-family="Times New Roman,serif" font-size="14.00">bell aviation</text>
</g>
<!-- Entity3&#45;&gt;Entity56 -->
<g id="edge21" class="edge verb">
<title>Entity3&#45;&gt;Entity56</title>
<path fill="none" stroke="black" d="M3739,-1285.6C3844.67,-1263.14 4083.59,-1212.37 4192.32,-1189.27"/>
<polygon fill="black" stroke="black" points="4193.37,-1192.62 4202.42,-1187.12 4191.92,-1185.78 4193.37,-1192.62"/>
<text text-anchor="start" x="3931.66" y="-1241.23" font-family="Times New Roman,serif" font-size="14.00">create</text>
</g>
<!-- Entity55 -->
<g id="node34" class="node entity">
<title>Entity55</title>
<ellipse fill="none" stroke="black" cx="3040.12" cy="-1528.96" rx="77.19" ry="18"/>
<text text-anchor="start" x="2988.62" y="-1525.26" font-family="Times New Roman,serif" font-size="14.00">psi&#45;consciousness</text>
</g>
<!-- Entity3&#45;&gt;Entity55 -->
<g id="edge53" class="edge verb">
<title>Entity3&#45;&gt;Entity55</title>
<path fill="none" stroke="black" d="M3646.99,-1311.01C3534.89,-1351.27 3217.56,-1465.24 3092.1,-1510.3"/>
<polygon fill="black" stroke="black" points="3090.56,-1507.13 3082.33,-1513.8 3092.93,-1513.72 3090.56,-1507.13"/>
<text text-anchor="start" x="3338.54" y="-1414.45" font-family="Times New Roman,serif" font-size="14.00">study</text>
</g>
<!-- Entity6 -->
<g id="node8" class="node entity">
<title>Entity6</title>
<ellipse fill="none" stroke="black" cx="3420.1" cy="-998.37" rx="68.49" ry="18"/>
<text text-anchor="start" x="3375.6" y="-994.67" font-family="Times New Roman,serif" font-size="14.00">jeffrey mishlove</text>
</g>
<!-- Entity6&#45;&gt;Entity1 -->
<g id="edge6" class="edge verb">
<title>Entity6&#45;&gt;Entity1</title>
<path fill="none" stroke="black" d="M3440.23,-981.15C3507.35,-923.74 3723.61,-738.79 3799.4,-673.97"/>
<polygon fill="black" stroke="black" points="3801.78,-676.54 3807.11,-667.38 3797.23,-671.22 3801.78,-676.54"/>
<text text-anchor="start" x="3571.81" y="-831.36" font-family="Times New Roman,serif" font-size="14.00">promote</text>
</g>
<!-- Entity6&#45;&gt;Entity55 -->
<g id="edge57" class="edge verb">
<title>Entity6&#45;&gt;Entity55</title>
<path fill="none" stroke="black" d="M3404.13,-1015.97C3341.8,-1094.01 3116.5,-1408.42 3055.4,-1502.37"/>
<polygon fill="black" stroke="black" points="3052.31,-1500.69 3049.85,-1511 3058.2,-1504.48 3052.31,-1500.69"/>
<text text-anchor="start" x="3198.76" y="-1262.97" font-family="Times New Roman,serif" font-size="14.00">study</text>
</g>
<!-- Entity6&#45;&gt;Entity55 -->
<g id="edge59" class="edge verb">
<title>Entity6&#45;&gt;Entity55</title>
<path fill="none" stroke="black" d="M3410.38,-1016.31C3360.51,-1095.18 3134.88,-1410.63 3062.46,-1503.29"/>
<polygon fill="black" stroke="black" points="3059.58,-1501.28 3056.14,-1511.3 3065.08,-1505.62 3059.58,-1501.28"/>
<text text-anchor="start" x="3236.42" y="-1263.6" font-family="Times New Roman,serif" font-size="14.00">investigates</text>
</g>
<!-- Entity11 -->
<g id="node9" class="node entity">
<title>Entity11</title>
<ellipse fill="none" stroke="black" cx="1156.64" cy="-1960.66" rx="68.49" ry="18"/>
<text text-anchor="start" x="1112.14" y="-1956.96" font-family="Times New Roman,serif" font-size="14.00">george hw bush</text>
</g>
<!-- Entity18 -->
<g id="node10" class="node entity">
<title>Entity18</title>
<ellipse fill="none" stroke="black" cx="987.98" cy="-1852.63" rx="63.89" ry="18"/>
<text text-anchor="start" x="946.98" y="-1848.93" font-family="Times New Roman,serif" font-size="14.00">george w bush</text>
</g>
<!-- Entity11&#45;&gt;Entity18 -->
<g id="edge7" class="edge verb">
<title>Entity11&#45;&gt;Entity18</title>
<path fill="none" stroke="black" d="M1130.29,-1943.78C1101.24,-1925.18 1054.4,-1895.18 1022.46,-1874.72"/>
<polygon fill="black" stroke="black" points="1024.18,-1871.66 1013.87,-1869.22 1020.4,-1877.56 1024.18,-1871.66"/>
<text text-anchor="start" x="1044.37" y="-1913.05" font-family="Times New Roman,serif" font-size="14.00">father</text>
</g>
<!-- Entity11&#45;&gt;Entity53 -->
<g id="edge48" class="edge verb">
<title>Entity11&#45;&gt;Entity53</title>
<path fill="none" stroke="black" d="M1180.83,-1977.72C1208.55,-1997.26 1253.91,-2029.24 1283.23,-2049.9"/>
<polygon fill="black" stroke="black" points="1281.22,-2052.77 1291.41,-2055.67 1285.25,-2047.05 1281.22,-2052.77"/>
<text text-anchor="start" x="1222.03" y="-2017.61" font-family="Times New Roman,serif" font-size="14.00">is</text>
</g>
<!-- Entity18&#45;&gt;Entity53 -->
<g id="edge58" class="edge verb">
<title>Entity18&#45;&gt;Entity53</title>
<path fill="none" stroke="black" d="M1012.83,-1869.32C1071.63,-1908.8 1219.12,-2007.81 1282.16,-2050.14"/>
<polygon fill="black" stroke="black" points="1280.58,-2053.29 1290.83,-2055.96 1284.48,-2047.48 1280.58,-2053.29"/>
<text text-anchor="start" x="1137.5" y="-1963.53" font-family="Times New Roman,serif" font-size="14.00">is</text>
</g>
<!-- Entity26 -->
<g id="node11" class="node entity">
<title>Entity26</title>
<ellipse fill="none" stroke="black" cx="170.49" cy="-1792.52" rx="53.89" ry="18"/>
<text text-anchor="start" x="136.99" y="-1788.82" font-family="Times New Roman,serif" font-size="14.00">edgar casey</text>
</g>
<!-- Entity27 -->
<g id="node12" class="node entity">
<title>Entity27</title>
<ellipse fill="none" stroke="black" cx="702.19" cy="-1985.54" rx="71.49" ry="18"/>
<text text-anchor="start" x="655.19" y="-1981.84" font-family="Times New Roman,serif" font-size="14.00">woodrow wilson</text>
</g>
<!-- Entity26&#45;&gt;Entity27 -->
<g id="edge8" class="edge verb">
<title>Entity26&#45;&gt;Entity27</title>
<path fill="none" stroke="black" d="M207.04,-1805.79C299.98,-1839.53 545.51,-1928.66 651.87,-1967.28"/>
<polygon fill="black" stroke="black" points="650.82,-1970.62 661.42,-1970.74 653.21,-1964.04 650.82,-1970.62"/>
<text text-anchor="start" x="393.46" y="-1890.33" font-family="Times New Roman,serif" font-size="14.00">advise</text>
</g>
<!-- Entity27&#45;&gt;Entity53 -->
<g id="edge38" class="edge verb">
<title>Entity27&#45;&gt;Entity53</title>
<path fill="none" stroke="black" d="M765.1,-1994.25C890.18,-2011.55 1166.99,-2049.84 1270.97,-2064.23"/>
<polygon fill="black" stroke="black" points="1270.67,-2067.72 1281.05,-2065.62 1271.63,-2060.78 1270.67,-2067.72"/>
<text text-anchor="start" x="1008.03" y="-2033.04" font-family="Times New Roman,serif" font-size="14.00">is</text>
</g>
<!-- Entity58 -->
<g id="node59" class="node entity">
<title>Entity58</title>
<ellipse fill="none" stroke="black" cx="71.69" cy="-2032.59" rx="71.49" ry="18"/>
<text text-anchor="start" x="24.69" y="-2028.89" font-family="Times New Roman,serif" font-size="14.00">leauge of nations</text>
</g>
<!-- Entity27&#45;&gt;Entity58 -->
<g id="edge65" class="edge verb">
<title>Entity27&#45;&gt;Entity58</title>
<path fill="none" stroke="black" d="M633.52,-1990.67C515.55,-1999.47 275.12,-2017.41 150.51,-2026.71"/>
<polygon fill="black" stroke="black" points="149.99,-2023.23 140.28,-2027.47 150.52,-2030.21 149.99,-2023.23"/>
<text text-anchor="start" x="358.01" y="-2012.49" font-family="Times New Roman,serif" font-size="14.00">create</text>
</g>
<!-- Entity25 -->
<g id="node13" class="node entity">
<title>Entity25</title>
<ellipse fill="none" stroke="black" cx="1014.71" cy="-3225.06" rx="58.49" ry="18"/>
<text text-anchor="start" x="977.71" y="-3221.36" font-family="Times New Roman,serif" font-size="14.00">steve bannon</text>
</g>
<!-- Entity8 -->
<g id="node14" class="node entity">
<title>Entity8</title>
<ellipse fill="none" stroke="black" cx="1466.42" cy="-2617.32" rx="59.59" ry="18"/>
<text text-anchor="start" x="1428.42" y="-2613.62" font-family="Times New Roman,serif" font-size="14.00">donald trump</text>
</g>
<!-- Entity25&#45;&gt;Entity8 -->
<g id="edge9" class="edge verb">
<title>Entity25&#45;&gt;Entity8</title>
<path fill="none" stroke="black" d="M1030.77,-3207.72C1101.09,-3122.32 1380.27,-2746.9 1450.44,-2643.64"/>
<polygon fill="black" stroke="black" points="1453.54,-2645.31 1456.21,-2635.06 1447.73,-2641.4 1453.54,-2645.31"/>
<text text-anchor="start" x="1192.61" y="-2929.48" font-family="Times New Roman,serif" font-size="14.00">promote</text>
</g>
<!-- Entity25&#45;&gt;Entity8 -->
<g id="edge14" class="edge verb">
<title>Entity25&#45;&gt;Entity8</title>
<path fill="none" stroke="black" d="M1025.1,-3207.06C1082.78,-3120.08 1362,-2744.08 1443.89,-2642.6"/>
<polygon fill="black" stroke="black" points="1446.72,-2644.67 1450.32,-2634.71 1441.29,-2640.25 1446.72,-2644.67"/>
<text text-anchor="start" x="1198.5" y="-2913.63" font-family="Times New Roman,serif" font-size="14.00">advise</text>
</g>
<!-- Entity76 -->
<g id="node38" class="node entity">
<title>Entity76</title>
<ellipse fill="none" stroke="black" cx="1520.52" cy="-3576.2" rx="77.19" ry="18"/>
<text text-anchor="start" x="1469.02" y="-3572.5" font-family="Times New Roman,serif" font-size="14.00">hollywood movies</text>
</g>
<!-- Entity25&#45;&gt;Entity76 -->
<g id="edge30" class="edge verb">
<title>Entity25&#45;&gt;Entity76</title>
<path fill="none" stroke="black" d="M1038.43,-3241.52C1120.44,-3298.46 1392.18,-3487.1 1487.29,-3553.13"/>
<polygon fill="black" stroke="black" points="1485.46,-3556.12 1495.67,-3558.95 1489.45,-3550.37 1485.46,-3556.12"/>
<text text-anchor="start" x="1215.86" y="-3401.13" font-family="Times New Roman,serif" font-size="14.00">produce</text>
</g>
<!-- Entity64 -->
<g id="node46" class="node entity">
<title>Entity64</title>
<ellipse fill="none" stroke="black" cx="697.12" cy="-3578.17" rx="38.19" ry="18"/>
<text text-anchor="start" x="675.62" y="-3574.47" font-family="Times New Roman,serif" font-size="14.00">us navy</text>
</g>
<!-- Entity25&#45;&gt;Entity64 -->
<g id="edge39" class="edge verb">
<title>Entity25&#45;&gt;Entity64</title>
<path fill="none" stroke="black" d="M998.96,-3242.57C946.76,-3300.61 779.33,-3486.76 719.02,-3553.81"/>
<polygon fill="black" stroke="black" points="716.3,-3551.61 712.22,-3561.38 721.51,-3556.29 716.3,-3551.61"/>
<text text-anchor="start" x="812.99" y="-3401.99" font-family="Times New Roman,serif" font-size="14.00">member</text>
</g>
<!-- Entity77 -->
<g id="node49" class="node entity">
<title>Entity77</title>
<ellipse fill="none" stroke="black" cx="397.76" cy="-3468.89" rx="64.99" ry="18"/>
<text text-anchor="start" x="355.76" y="-3465.19" font-family="Times New Roman,serif" font-size="14.00">goldman sachs</text>
</g>
<!-- Entity25&#45;&gt;Entity77 -->
<g id="edge44" class="edge verb">
<title>Entity25&#45;&gt;Entity77</title>
<path fill="none" stroke="black" d="M978.42,-3239.4C872.4,-3281.3 563.18,-3403.51 444.71,-3450.34"/>
<polygon fill="black" stroke="black" points="443.19,-3447.18 435.18,-3454.11 445.76,-3453.69 443.19,-3447.18"/>
<text text-anchor="start" x="657.57" y="-3348.67" font-family="Times New Roman,serif" font-size="14.00">employee</text>
</g>
<!-- Entity63 -->
<g id="node51" class="node entity">
<title>Entity63</title>
<ellipse fill="none" stroke="black" cx="576.19" cy="-3360.84" rx="53.09" ry="18"/>
<text text-anchor="start" x="543.19" y="-3357.14" font-family="Times New Roman,serif" font-size="14.00">biosphere 2</text>
</g>
<!-- Entity25&#45;&gt;Entity63 -->
<g id="edge49" class="edge verb">
<title>Entity25&#45;&gt;Entity63</title>
<path fill="none" stroke="black" d="M973.46,-3237.83C892.37,-3262.94 712.53,-3318.62 625.4,-3345.6"/>
<polygon fill="black" stroke="black" points="624.27,-3342.29 615.75,-3348.59 626.34,-3348.97 624.27,-3342.29"/>
<text text-anchor="start" x="765.43" y="-3295.52" font-family="Times New Roman,serif" font-size="14.00">create</text>
</g>
<!-- Entity65 -->
<g id="node53" class="node entity">
<title>Entity65</title>
<ellipse fill="none" stroke="black" cx="1103.31" cy="-3577.59" rx="61.99" ry="18"/>
<text text-anchor="start" x="1063.81" y="-3573.89" font-family="Times New Roman,serif" font-size="14.00">breitbart news</text>
</g>
<!-- Entity25&#45;&gt;Entity65 -->
<g id="edge55" class="edge verb">
<title>Entity25&#45;&gt;Entity65</title>
<path fill="none" stroke="black" d="M1019.23,-3243.03C1033.65,-3300.41 1078.69,-3479.61 1096.22,-3549.39"/>
<polygon fill="black" stroke="black" points="1092.87,-3550.39 1098.7,-3559.23 1099.66,-3548.68 1092.87,-3550.39"/>
<text text-anchor="start" x="1023.73" y="-3400.01" font-family="Times New Roman,serif" font-size="14.00">create</text>
</g>
<!-- Entity61 -->
<g id="node58" class="node entity">
<title>Entity61</title>
<ellipse fill="none" stroke="black" cx="879.31" cy="-3686.15" rx="35.19" ry="18"/>
<text text-anchor="start" x="860.31" y="-3682.45" font-family="Times New Roman,serif" font-size="14.00">gurgev</text>
</g>
<!-- Entity25&#45;&gt;Entity61 -->
<g id="edge64" class="edge verb">
<title>Entity25&#45;&gt;Entity61</title>
<path fill="none" stroke="black" d="M1009.41,-3243.13C988.61,-3313.94 912.61,-3572.75 887.46,-3658.41"/>
<polygon fill="black" stroke="black" points="884.04,-3657.62 884.58,-3668.2 890.76,-3659.59 884.04,-3657.62"/>
<text text-anchor="start" x="917.43" y="-3454.57" font-family="Times New Roman,serif" font-size="14.00">study</text>
</g>
<!-- Entity30 -->
<g id="node18" class="node entity">
<title>Entity30</title>
<ellipse fill="none" stroke="black" cx="2075.53" cy="-2290.19" rx="50.09" ry="18"/>
<text text-anchor="start" x="2045.03" y="-2286.49" font-family="Times New Roman,serif" font-size="14.00">john trump</text>
</g>
<!-- Entity8&#45;&gt;Entity30 -->
<g id="edge13" class="edge verb">
<title>Entity8&#45;&gt;Entity30</title>
<path fill="none" stroke="black" d="M1495.8,-2601.54C1596.46,-2547.48 1927.37,-2369.76 2038.65,-2310"/>
<polygon fill="black" stroke="black" points="2040.35,-2313.06 2047.5,-2305.24 2037.04,-2306.89 2040.35,-2313.06"/>
<text text-anchor="start" x="1724.23" y="-2459.57" font-family="Times New Roman,serif" font-size="14.00">nephew</text>
</g>
<!-- Entity8&#45;&gt;Entity53 -->
<g id="edge26" class="edge verb">
<title>Entity8&#45;&gt;Entity53</title>
<path fill="none" stroke="black" d="M1461.27,-2599.1C1438.5,-2518.63 1346.84,-2194.73 1319.33,-2097.54"/>
<polygon fill="black" stroke="black" points="1322.68,-2096.51 1316.59,-2087.84 1315.94,-2098.41 1322.68,-2096.51"/>
<text text-anchor="start" x="1380.3" y="-2352.12" font-family="Times New Roman,serif" font-size="14.00">is</text>
</g>
<!-- Entity16 -->
<g id="node15" class="node entity">
<title>Entity16</title>
<ellipse fill="none" stroke="black" cx="3106.19" cy="-1421.01" rx="63.89" ry="18"/>
<text text-anchor="start" x="3065.19" y="-1417.31" font-family="Times New Roman,serif" font-size="14.00">robert bigelow</text>
</g>
<!-- Entity16&#45;&gt;Entity6 -->
<g id="edge10" class="edge verb">
<title>Entity16&#45;&gt;Entity6</title>
<path fill="none" stroke="black" d="M3119.28,-1403.39C3168.44,-1337.2 3342.22,-1103.22 3400.72,-1024.46"/>
<polygon fill="black" stroke="black" points="3403.8,-1026.18 3406.96,-1016.06 3398.18,-1022.01 3403.8,-1026.18"/>
<text text-anchor="start" x="3228" y="-1217.72" font-family="Times New Roman,serif" font-size="14.00">funds</text>
</g>
<!-- Entity16&#45;&gt;Entity55 -->
<g id="edge50" class="edge verb">
<title>Entity16&#45;&gt;Entity55</title>
<path fill="none" stroke="black" d="M3095.28,-1438.84C3084.66,-1456.18 3068.41,-1482.74 3056.29,-1502.55"/>
<polygon fill="black" stroke="black" points="3053.28,-1500.75 3051.05,-1511.11 3059.25,-1504.41 3053.28,-1500.75"/>
<text text-anchor="start" x="3011.78" y="-1474.49" font-family="Times New Roman,serif" font-size="14.00">investigates</text>
</g>
<!-- Entity34 -->
<g id="node16" class="node entity">
<title>Entity34</title>
<ellipse fill="none" stroke="black" cx="704.35" cy="-815.56" rx="90.98" ry="18"/>
<text text-anchor="start" x="642.35" y="-811.86" font-family="Times New Roman,serif" font-size="14.00">emma hardinge&#45;britten</text>
</g>
<!-- Entity38 -->
<g id="node17" class="node entity">
<title>Entity38</title>
<ellipse fill="none" stroke="black" cx="1017.73" cy="-1531.55" rx="67.69" ry="18"/>
<text text-anchor="start" x="973.73" y="-1527.85" font-family="Times New Roman,serif" font-size="14.00">abraham lincoln</text>
</g>
<!-- Entity34&#45;&gt;Entity38 -->
<g id="edge11" class="edge verb">
<title>Entity34&#45;&gt;Entity38</title>
<path fill="none" stroke="black" d="M712.25,-833.61C754.59,-930.34 954.54,-1387.18 1005.75,-1504.2"/>
<polygon fill="black" stroke="black" points="1002.63,-1505.79 1009.85,-1513.54 1009.04,-1502.98 1002.63,-1505.79"/>
<text text-anchor="start" x="780" y="-1172.7" font-family="Times New Roman,serif" font-size="14.00">spokesperson</text>
</g>
<!-- Entity59 -->
<g id="node37" class="node entity">
<title>Entity59</title>
<ellipse fill="none" stroke="black" cx="1328.95" cy="-431.13" rx="85.29" ry="18"/>
<text text-anchor="start" x="1271.45" y="-427.43" font-family="Times New Roman,serif" font-size="14.00">theosophical society</text>
</g>
<!-- Entity34&#45;&gt;Entity59 -->
<g id="edge40" class="edge verb">
<title>Entity34&#45;&gt;Entity59</title>
<path fill="none" stroke="black" d="M732.4,-798.29C833.4,-736.13 1178.5,-523.73 1292.25,-453.71"/>
<polygon fill="black" stroke="black" points="1294.29,-456.57 1300.98,-448.35 1290.62,-450.61 1294.29,-456.57"/>
<text text-anchor="start" x="978.33" y="-629.8" font-family="Times New Roman,serif" font-size="14.00">create</text>
</g>
<!-- Entity68 -->
<g id="node50" class="node entity">
<title>Entity68</title>
<ellipse fill="none" stroke="black" cx="202.89" cy="-535.22" rx="39.79" ry="18"/>
<text text-anchor="start" x="180.39" y="-531.52" font-family="Times New Roman,serif" font-size="14.00">medium</text>
</g>
<!-- Entity34&#45;&gt;Entity68 -->
<g id="edge46" class="edge verb">
<title>Entity34&#45;&gt;Entity68</title>
<path fill="none" stroke="black" d="M673.74,-798.44C585.23,-748.96 329.48,-605.99 236.88,-554.22"/>
<polygon fill="black" stroke="black" points="238.36,-551.04 227.93,-549.21 234.95,-557.15 238.36,-551.04"/>
<text text-anchor="start" x="445.31" y="-680.13" font-family="Times New Roman,serif" font-size="14.00">is</text>
</g>
<!-- Entity69 -->
<g id="node60" class="node entity">
<title>Entity69</title>
<ellipse fill="none" stroke="black" cx="344.54" cy="-297.96" rx="55.79" ry="18"/>
<text text-anchor="start" x="309.54" y="-294.26" font-family="Times New Roman,serif" font-size="14.00">orphic circle</text>
</g>
<!-- Entity34&#45;&gt;Entity69 -->
<g id="edge66" class="edge verb">
<title>Entity34&#45;&gt;Entity69</title>
<path fill="none" stroke="black" d="M691.75,-797.44C637.83,-719.86 426.25,-415.51 362.69,-324.08"/>
<polygon fill="black" stroke="black" points="365.42,-321.88 356.84,-315.67 359.68,-325.88 365.42,-321.88"/>
<text text-anchor="start" x="481.22" y="-564.56" font-family="Times New Roman,serif" font-size="14.00">member</text>
</g>
<!-- Entity38&#45;&gt;Entity53 -->
<g id="edge51" class="edge verb">
<title>Entity38&#45;&gt;Entity53</title>
<path fill="none" stroke="black" d="M1027.5,-1549.46C1070.81,-1628.83 1245.57,-1949.04 1297.11,-2043.49"/>
<polygon fill="black" stroke="black" points="1294.12,-2045.3 1301.98,-2052.4 1300.26,-2041.95 1294.12,-2045.3"/>
<text text-anchor="start" x="1152.31" y="-1800.27" font-family="Times New Roman,serif" font-size="14.00">is</text>
</g>
<!-- Entity17 -->
<g id="node19" class="node entity">
<title>Entity17</title>
<ellipse fill="none" stroke="black" cx="2523.36" cy="-1967.4" rx="27" ry="18"/>
<text text-anchor="start" x="2515.36" y="-1963.7" font-family="Times New Roman,serif" font-size="14.00">cia</text>
</g>
<!-- Entity30&#45;&gt;Entity17 -->
<g id="edge12" class="edge verb">
<title>Entity30&#45;&gt;Entity17</title>
<path fill="none" stroke="black" d="M2098.05,-2273.96C2173.17,-2219.81 2415.08,-2045.45 2496.4,-1986.83"/>
<polygon fill="black" stroke="black" points="2498.57,-1989.58 2504.64,-1980.89 2494.48,-1983.9 2498.57,-1989.58"/>
<text text-anchor="start" x="2251.22" y="-2134.19" font-family="Times New Roman,serif" font-size="14.00">member</text>
</g>
<!-- Entity67 -->
<g id="node47" class="node entity">
<title>Entity67</title>
<ellipse fill="none" stroke="black" cx="2290.18" cy="-1885.44" rx="50.89" ry="18"/>
<text text-anchor="start" x="2259.18" y="-1881.74" font-family="Times New Roman,serif" font-size="14.00">nikola tesla</text>
</g>
<!-- Entity30&#45;&gt;Entity67 -->
<g id="edge41" class="edge verb">
<title>Entity30&#45;&gt;Entity67</title>
<path fill="none" stroke="black" d="M2085.03,-2272.28C2119.11,-2208.01 2235.35,-1988.84 2276,-1912.18"/>
<polygon fill="black" stroke="black" points="2279.2,-1913.62 2280.79,-1903.14 2273.02,-1910.34 2279.2,-1913.62"/>
<text text-anchor="start" x="2149.52" y="-2096.03" font-family="Times New Roman,serif" font-size="14.00">study</text>
</g>
<!-- Entity17&#45;&gt;Entity55 -->
<g id="edge27" class="edge verb">
<title>Entity17&#45;&gt;Entity55</title>
<path fill="none" stroke="black" d="M2540.26,-1953.06C2615.14,-1889.53 2917.43,-1633.06 3011.82,-1552.98"/>
<polygon fill="black" stroke="black" points="3014.17,-1555.57 3019.53,-1546.43 3009.64,-1550.23 3014.17,-1555.57"/>
<text text-anchor="start" x="2712.04" y="-1756.82" font-family="Times New Roman,serif" font-size="14.00">investigates</text>
</g>
<!-- Entity54 -->
<g id="node52" class="node entity">
<title>Entity54</title>
<ellipse fill="none" stroke="black" cx="2137.04" cy="-1993.47" rx="27" ry="18"/>
<text text-anchor="start" x="2127.54" y="-1989.77" font-family="Times New Roman,serif" font-size="14.00">ufo</text>
</g>
<!-- Entity17&#45;&gt;Entity54 -->
<g id="edge54" class="edge verb">
<title>Entity17&#45;&gt;Entity54</title>
<path fill="none" stroke="black" d="M2496.2,-1969.23C2428.37,-1973.81 2251.49,-1985.74 2174.15,-1990.96"/>
<polygon fill="black" stroke="black" points="2173.66,-1987.49 2163.92,-1991.65 2174.13,-1994.47 2173.66,-1987.49"/>
<text text-anchor="start" x="2271.17" y="-1983.9" font-family="Times New Roman,serif" font-size="14.00">investigates</text>
</g>
<!-- Entity46 -->
<g id="node20" class="node entity">
<title>Entity46</title>
<ellipse fill="none" stroke="black" cx="5156.6" cy="-965.4" rx="46.29" ry="18"/>
<text text-anchor="start" x="5129.1" y="-961.7" font-family="Times New Roman,serif" font-size="14.00">van braun</text>
</g>
<!-- Entity37 -->
<g id="node21" class="node entity">
<title>Entity37</title>
<ellipse fill="none" stroke="black" cx="4604.2" cy="-1046.61" rx="74.99" ry="18"/>
<text text-anchor="start" x="4554.7" y="-1042.91" font-family="Times New Roman,serif" font-size="14.00">walter dornberger</text>
</g>
<!-- Entity46&#45;&gt;Entity37 -->
<g id="edge15" class="edge verb">
<title>Entity46&#45;&gt;Entity37</title>
<path fill="none" stroke="black" d="M5113.25,-971.77C5019.09,-985.61 4794.96,-1018.56 4678.03,-1035.75"/>
<polygon fill="black" stroke="black" points="4677.48,-1032.3 4668.09,-1037.21 4678.49,-1039.22 4677.48,-1032.3"/>
<text text-anchor="start" x="4841.64" y="-1007.56" font-family="Times New Roman,serif" font-size="14.00">employee</text>
</g>
<!-- Entity72 -->
<g id="node48" class="node entity">
<title>Entity72</title>
<ellipse fill="none" stroke="black" cx="4742.08" cy="-938.66" rx="90.98" ry="18"/>
<text text-anchor="start" x="4680.08" y="-934.96" font-family="Times New Roman,serif" font-size="14.00">nsdap rocket program</text>
</g>
<!-- Entity46&#45;&gt;Entity72 -->
<g id="edge45" class="edge verb">
<title>Entity46&#45;&gt;Entity72</title>
<path fill="none" stroke="black" d="M5111.05,-962.46C5045.91,-958.26 4924.55,-950.43 4838.83,-944.9"/>
<polygon fill="black" stroke="black" points="4839.03,-941.4 4828.83,-944.25 4838.58,-948.39 4839.03,-941.4"/>
<text text-anchor="start" x="4920.94" y="-957.48" font-family="Times New Roman,serif" font-size="14.00">employee</text>
</g>
<!-- Entity51 -->
<g id="node25" class="node entity">
<title>Entity51</title>
<ellipse fill="none" stroke="black" cx="4615.96" cy="-1663.24" rx="32.49" ry="18"/>
<text text-anchor="start" x="4598.96" y="-1659.54" font-family="Times New Roman,serif" font-size="14.00">nsdap</text>
</g>
<!-- Entity37&#45;&gt;Entity51 -->
<g id="edge18" class="edge verb">
<title>Entity37&#45;&gt;Entity51</title>
<path fill="none" stroke="black" d="M4604.55,-1064.73C4606.21,-1151.86 4613.38,-1527.92 4615.42,-1634.81"/>
<polygon fill="black" stroke="black" points="4611.93,-1635.19 4615.62,-1645.12 4618.92,-1635.06 4611.93,-1635.19"/>
<text text-anchor="start" x="4563.98" y="-1353.57" font-family="Times New Roman,serif" font-size="14.00">member</text>
</g>
<!-- Entity37&#45;&gt;Entity56 -->
<g id="edge32" class="edge verb">
<title>Entity37&#45;&gt;Entity56</title>
<path fill="none" stroke="black" d="M4553.77,-1060C4482,-1083.5 4351.95,-1131.39 4287.07,-1158.33"/>
<polygon fill="black" stroke="black" points="4285.47,-1155.2 4277.61,-1162.3 4288.18,-1161.66 4285.47,-1155.2"/>
<text text-anchor="start" x="4366.42" y="-1112.96" font-family="Times New Roman,serif" font-size="14.00">employee</text>
</g>
<!-- Entity37&#45;&gt;Entity56 -->
<g id="edge42" class="edge verb">
<title>Entity37&#45;&gt;Entity56</title>
<path fill="none" stroke="black" d="M4571.81,-1062.94C4510.19,-1088.97 4375.59,-1138.67 4300.81,-1163.27"/>
<polygon fill="black" stroke="black" points="4299.54,-1160.01 4291.11,-1166.43 4301.7,-1166.66 4299.54,-1160.01"/>
<text text-anchor="start" x="4436.31" y="-1116.9" font-family="Times New Roman,serif" font-size="14.00">vice&#45;president</text>
</g>
<!-- Entity37&#45;&gt;Entity72 -->
<g id="edge43" class="edge verb">
<title>Entity37&#45;&gt;Entity72</title>
<path fill="none" stroke="black" d="M4626.35,-1029.26C4649.43,-1011.19 4685.76,-982.75 4711.55,-962.56"/>
<polygon fill="black" stroke="black" points="4713.81,-965.24 4719.52,-956.32 4709.49,-959.72 4713.81,-965.24"/>
<text text-anchor="start" x="4634.95" y="-999.71" font-family="Times New Roman,serif" font-size="14.00">create</text>
</g>
<!-- Entity73 -->
<g id="node61" class="node entity">
<title>Entity73</title>
<ellipse fill="none" stroke="black" cx="5105.09" cy="-677.21" rx="65.79" ry="18"/>
<text text-anchor="start" x="5062.59" y="-673.51" font-family="Times New Roman,serif" font-size="14.00">x series aircraft</text>
</g>
<!-- Entity37&#45;&gt;Entity73 -->
<g id="edge67" class="edge verb">
<title>Entity37&#45;&gt;Entity73</title>
<path fill="none" stroke="black" d="M4627.69,-1029.28C4709.37,-969.04 4981.11,-768.64 5073.8,-700.28"/>
<polygon fill="black" stroke="black" points="5075.98,-703.03 5081.95,-694.28 5071.82,-697.39 5075.98,-703.03"/>
<text text-anchor="start" x="4816.74" y="-868.58" font-family="Times New Roman,serif" font-size="14.00">create</text>
</g>
<!-- Entity50 -->
<g id="node22" class="node entity">
<title>Entity50</title>
<ellipse fill="none" stroke="black" cx="1458.51" cy="-1455.29" rx="37.89" ry="18"/>
<text text-anchor="start" x="1437.51" y="-1451.59" font-family="Times New Roman,serif" font-size="14.00">hunt oil</text>
</g>
<!-- Entity48 -->
<g id="node23" class="node entity">
<title>Entity48</title>
<ellipse fill="none" stroke="black" cx="1454.44" cy="-1563.19" rx="77.99" ry="18"/>
<text text-anchor="start" x="1402.44" y="-1559.49" font-family="Times New Roman,serif" font-size="14.00">dwight eisenhower</text>
</g>
<!-- Entity50&#45;&gt;Entity48 -->
<g id="edge16" class="edge verb">
<title>Entity50&#45;&gt;Entity48</title>
<path fill="none" stroke="black" d="M1457.82,-1473.6C1457.18,-1490.44 1456.23,-1515.67 1455.5,-1535.07"/>
<polygon fill="black" stroke="black" points="1452,-1535.03 1455.12,-1545.16 1458.99,-1535.3 1452,-1535.03"/>
<text text-anchor="start" x="1430.66" y="-1508.13" font-family="Times New Roman,serif" font-size="14.00">fund</text>
</g>
<!-- Entity48&#45;&gt;Entity53 -->
<g id="edge52" class="edge verb">
<title>Entity48&#45;&gt;Entity53</title>
<path fill="none" stroke="black" d="M1449.35,-1581.22C1427.94,-1657.1 1345.1,-1950.7 1319.25,-2042.35"/>
<polygon fill="black" stroke="black" points="1315.87,-2041.44 1316.52,-2052.02 1322.6,-2043.34 1315.87,-2041.44"/>
<text text-anchor="start" x="1374.3" y="-1815.58" font-family="Times New Roman,serif" font-size="14.00">is</text>
</g>
<!-- Entity49 -->
<g id="node24" class="node entity">
<title>Entity49</title>
<ellipse fill="none" stroke="black" cx="5004.47" cy="-1835.83" rx="49.29" ry="18"/>
<text text-anchor="start" x="4974.47" y="-1832.13" font-family="Times New Roman,serif" font-size="14.00">adolf hitler</text>
</g>
<!-- Entity49&#45;&gt;Entity51 -->
<g id="edge17" class="edge verb">
<title>Entity49&#45;&gt;Entity51</title>
<path fill="none" stroke="black" d="M4973.01,-1821.85C4901.26,-1789.98 4725.98,-1712.11 4650.96,-1678.79"/>
<polygon fill="black" stroke="black" points="4652.04,-1675.44 4641.48,-1674.58 4649.2,-1681.84 4652.04,-1675.44"/>
<text text-anchor="start" x="4777.98" y="-1754.12" font-family="Times New Roman,serif" font-size="14.00">create</text>
</g>
<!-- Entity74 -->
<g id="node41" class="node entity">
<title>Entity74</title>
<ellipse fill="none" stroke="black" cx="4155.49" cy="-1901.52" rx="38.99" ry="18"/>
<text text-anchor="start" x="4133.49" y="-1897.82" font-family="Times New Roman,serif" font-size="14.00">far right</text>
</g>
<!-- Entity51&#45;&gt;Entity74 -->
<g id="edge47" class="edge verb">
<title>Entity51&#45;&gt;Entity74</title>
<path fill="none" stroke="black" d="M4592.17,-1675.55C4516.4,-1714.76 4280.41,-1836.88 4190.64,-1883.34"/>
<polygon fill="black" stroke="black" points="4188.94,-1880.27 4181.67,-1887.98 4192.16,-1886.49 4188.94,-1880.27"/>
<text text-anchor="start" x="4345.41" y="-1783.24" font-family="Times New Roman,serif" font-size="14.00">member</text>
</g>
<!-- Entity40 -->
<g id="node26" class="node entity">
<title>Entity40</title>
<ellipse fill="none" stroke="black" cx="4746.64" cy="-1154.66" rx="57.69" ry="18"/>
<text text-anchor="start" x="4710.14" y="-1150.96" font-family="Times New Roman,serif" font-size="14.00">michael pane</text>
</g>
<!-- Entity40&#45;&gt;Entity37 -->
<g id="edge19" class="edge verb">
<title>Entity40&#45;&gt;Entity37</title>
<path fill="none" stroke="black" d="M4724.38,-1137.78C4700.52,-1119.67 4662.44,-1090.79 4635.55,-1070.39"/>
<polygon fill="black" stroke="black" points="4637.33,-1067.34 4627.24,-1064.09 4633.1,-1072.92 4637.33,-1067.34"/>
<text text-anchor="start" x="4625.97" y="-1107.88" font-family="Times New Roman,serif" font-size="14.00">employee</text>
</g>
<!-- Entity40&#45;&gt;Entity56 -->
<g id="edge62" class="edge verb">
<title>Entity40&#45;&gt;Entity56</title>
<path fill="none" stroke="black" d="M4688.96,-1157.29C4595.01,-1161.58 4409.64,-1170.05 4311.88,-1174.51"/>
<polygon fill="black" stroke="black" points="4311.67,-1171.01 4301.84,-1174.97 4311.99,-1178.01 4311.67,-1171.01"/>
<text text-anchor="start" x="4446.42" y="-1169.7" font-family="Times New Roman,serif" font-size="14.00">employee</text>
</g>
<!-- Entity45&#45;&gt;Entity74 -->
<g id="edge33" class="edge verb">
<title>Entity45&#45;&gt;Entity74</title>
<path fill="none" stroke="black" d="M3595.18,-2048.33C3707.7,-2018.84 4000.2,-1942.21 4111.56,-1913.03"/>
<polygon fill="black" stroke="black" points="4112.67,-1916.36 4121.45,-1910.44 4110.89,-1909.59 4112.67,-1916.36"/>
<text text-anchor="start" x="3807.37" y="-1984.48" font-family="Times New Roman,serif" font-size="14.00">member</text>
</g>
<!-- Entity79 -->
<g id="node30" class="node entity">
<title>Entity79</title>
<ellipse fill="none" stroke="black" cx="1890.94" cy="-1648.66" rx="27" ry="18"/>
<text text-anchor="start" x="1880.94" y="-1644.96" font-family="Times New Roman,serif" font-size="14.00">foo</text>
</g>
<!-- Entity80 -->
<g id="node31" class="node entity">
<title>Entity80</title>
<ellipse fill="none" stroke="black" cx="1978.66" cy="-1760.64" rx="27" ry="18"/>
<text text-anchor="start" x="1968.66" y="-1756.94" font-family="Times New Roman,serif" font-size="14.00">baz</text>
</g>
<!-- Entity79&#45;&gt;Entity80 -->
<g id="edge23" class="edge verb">
<title>Entity79&#45;&gt;Entity80</title>
<path fill="none" stroke="black" d="M1903.51,-1664.7C1918.23,-1683.5 1942.76,-1714.82 1959.78,-1736.53"/>
<polygon fill="black" stroke="black" points="1957.19,-1738.91 1966.11,-1744.62 1962.7,-1734.59 1957.19,-1738.91"/>
<text text-anchor="start" x="1911.64" y="-1704.42" font-family="Times New Roman,serif" font-size="14.00">baz</text>
</g>
<!-- Entity10 -->
<g id="node32" class="node entity">
<title>Entity10</title>
<ellipse fill="none" stroke="black" cx="838.39" cy="-2237.71" rx="56.59" ry="18"/>
<text text-anchor="start" x="802.89" y="-2234.01" font-family="Times New Roman,serif" font-size="14.00">harry truman</text>
</g>
<!-- Entity10&#45;&gt;Entity53 -->
<g id="edge24" class="edge verb">
<title>Entity10&#45;&gt;Entity53</title>
<path fill="none" stroke="black" d="M876.31,-2224.26C965.51,-2192.61 1187.71,-2113.76 1275.24,-2082.7"/>
<polygon fill="black" stroke="black" points="1276.49,-2085.97 1284.74,-2079.33 1274.15,-2079.37 1276.49,-2085.97"/>
<text text-anchor="start" x="1065.77" y="-2157.28" font-family="Times New Roman,serif" font-size="14.00">is</text>
</g>
<!-- Entity57 -->
<g id="node43" class="node entity">
<title>Entity57</title>
<ellipse fill="none" stroke="black" cx="348.71" cy="-2421.26" rx="55.79" ry="18"/>
<text text-anchor="start" x="313.71" y="-2417.56" font-family="Times New Roman,serif" font-size="14.00">freemasonry</text>
</g>
<!-- Entity10&#45;&gt;Entity57 -->
<g id="edge35" class="edge verb">
<title>Entity10&#45;&gt;Entity57</title>
<path fill="none" stroke="black" d="M801.59,-2251.51C713.64,-2284.48 491.42,-2367.77 394.78,-2403.99"/>
<polygon fill="black" stroke="black" points="393.41,-2400.77 385.28,-2407.55 395.87,-2407.32 393.41,-2400.77"/>
<text text-anchor="start" x="552.18" y="-2331.55" font-family="Times New Roman,serif" font-size="14.00">member</text>
</g>
<!-- Entity13 -->
<g id="node33" class="node entity">
<title>Entity13</title>
<ellipse fill="none" stroke="black" cx="999.29" cy="-2372.75" rx="58.49" ry="18"/>
<text text-anchor="start" x="962.29" y="-2369.05" font-family="Times New Roman,serif" font-size="14.00">richard nixon</text>
</g>
<!-- Entity13&#45;&gt;Entity53 -->
<g id="edge25" class="edge verb">
<title>Entity13&#45;&gt;Entity53</title>
<path fill="none" stroke="black" d="M1017.43,-2355.16C1070.86,-2303.32 1227.69,-2151.15 1287.73,-2092.89"/>
<polygon fill="black" stroke="black" points="1290.48,-2095.1 1295.22,-2085.63 1285.6,-2090.08 1290.48,-2095.1"/>
<text text-anchor="start" x="1142.58" y="-2227.82" font-family="Times New Roman,serif" font-size="14.00">is</text>
</g>
<!-- Entity22 -->
<g id="node35" class="node entity">
<title>Entity22</title>
<ellipse fill="none" stroke="black" cx="1850.78" cy="-125.74" rx="58.49" ry="18"/>
<text text-anchor="start" x="1813.78" y="-122.04" font-family="Times New Roman,serif" font-size="14.00">rudolf steiner</text>
</g>
<!-- Entity60 -->
<g id="node36" class="node entity">
<title>Entity60</title>
<ellipse fill="none" stroke="black" cx="1987.19" cy="-17.78" rx="102.08" ry="18"/>
<text text-anchor="start" x="1916.69" y="-14.08" font-family="Times New Roman,serif" font-size="14.00">anthroposophical society</text>
</g>
<!-- Entity22&#45;&gt;Entity60 -->
<g id="edge28" class="edge verb">
<title>Entity22&#45;&gt;Entity60</title>
<path fill="none" stroke="black" d="M1872.09,-108.87C1894.81,-90.89 1930.98,-62.26 1956.71,-41.91"/>
<polygon fill="black" stroke="black" points="1959,-44.56 1964.66,-35.61 1954.65,-39.07 1959,-44.56"/>
<text text-anchor="start" x="1880.4" y="-79.19" font-family="Times New Roman,serif" font-size="14.00">create</text>
</g>
<!-- Entity22&#45;&gt;Entity59 -->
<g id="edge29" class="edge verb">
<title>Entity22&#45;&gt;Entity59</title>
<path fill="none" stroke="black" d="M1823.46,-141.73C1736.62,-192.54 1466.81,-350.45 1366.77,-408.99"/>
<polygon fill="black" stroke="black" points="1364.77,-406.11 1357.91,-414.18 1368.31,-412.15 1364.77,-406.11"/>
<text text-anchor="start" x="1549.11" y="-279.16" font-family="Times New Roman,serif" font-size="14.00">member</text>
</g>
<!-- Entity44 -->
<g id="node39" class="node entity">
<title>Entity44</title>
<ellipse fill="none" stroke="black" cx="3315.94" cy="-2580.66" rx="53.89" ry="18"/>
<text text-anchor="start" x="3282.44" y="-2576.96" font-family="Times New Roman,serif" font-size="14.00">black magic</text>
</g>
<!-- Entity71 -->
<g id="node40" class="node entity">
<title>Entity71</title>
<ellipse fill="none" stroke="black" cx="3403.66" cy="-2692.64" rx="28.7" ry="18"/>
<text text-anchor="start" x="3389.66" y="-2688.94" font-family="Times New Roman,serif" font-size="14.00">x left</text>
</g>
<!-- Entity44&#45;&gt;Entity71 -->
<g id="edge31" class="edge verb">
<title>Entity44&#45;&gt;Entity71</title>
<path fill="none" stroke="black" d="M3329.64,-2598.16C3344.45,-2617.05 3368.14,-2647.29 3384.72,-2668.45"/>
<polygon fill="black" stroke="black" points="3381.98,-2670.64 3390.9,-2676.36 3387.49,-2666.32 3381.98,-2670.64"/>
<text text-anchor="start" x="3311.18" y="-2637.11" font-family="Times New Roman,serif" font-size="14.00">member</text>
</g>
<!-- Entity21 -->
<g id="node44" class="node entity">
<title>Entity21</title>
<ellipse fill="none" stroke="black" cx="1280.08" cy="-2403.42" rx="35.19" ry="18"/>
<text text-anchor="start" x="1261.08" y="-2399.72" font-family="Times New Roman,serif" font-size="14.00">obama</text>
</g>
<!-- Entity21&#45;&gt;Entity53 -->
<g id="edge36" class="edge verb">
<title>Entity21&#45;&gt;Entity53</title>
<path fill="none" stroke="black" d="M1281.81,-2385.01C1287.01,-2329.76 1302.52,-2165.1 1308.8,-2098.38"/>
<polygon fill="black" stroke="black" points="1312.31,-2098.47 1309.76,-2088.19 1305.34,-2097.81 1312.31,-2098.47"/>
<text text-anchor="start" x="1285.31" y="-2245.49" font-family="Times New Roman,serif" font-size="14.00">is</text>
</g>
<!-- Entity14 -->
<g id="node45" class="node entity">
<title>Entity14</title>
<ellipse fill="none" stroke="black" cx="1725.6" cy="-2020.16" rx="31.4" ry="18"/>
<text text-anchor="start" x="1709.6" y="-2016.46" font-family="Times New Roman,serif" font-size="14.00">carter</text>
</g>
<!-- Entity14&#45;&gt;Entity53 -->
<g id="edge37" class="edge verb">
<title>Entity14&#45;&gt;Entity53</title>
<path fill="none" stroke="black" d="M1694.81,-2023.86C1621.2,-2032.69 1435.01,-2055.02 1352.24,-2064.95"/>
<polygon fill="black" stroke="black" points="1351.71,-2061.48 1342.2,-2066.15 1352.55,-2068.43 1351.71,-2061.48"/>
<text text-anchor="start" x="1513.52" y="-2048.2" font-family="Times New Roman,serif" font-size="14.00">is</text>
</g>
<!-- Entity14&#45;&gt;Entity54 -->
<g id="edge63" class="edge verb">
<title>Entity14&#45;&gt;Entity54</title>
<path fill="none" stroke="black" d="M1756.86,-2018.14C1831.43,-2013.3 2019.49,-2001.09 2099.77,-1995.89"/>
<polygon fill="black" stroke="black" points="2100.16,-1999.37 2109.92,-1995.23 2099.71,-1992.38 2100.16,-1999.37"/>
<text text-anchor="start" x="1886.32" y="-2010.81" font-family="Times New Roman,serif" font-size="14.00">witness</text>
</g>
<!-- Entity35 -->
<g id="node54" class="node entity">
<title>Entity35</title>
<ellipse fill="none" stroke="black" cx="2369.94" cy="-1415.66" rx="39.79" ry="18"/>
<text text-anchor="start" x="2347.44" y="-1411.96" font-family="Times New Roman,serif" font-size="14.00">crowley</text>
</g>
<!-- Entity70 -->
<g id="node55" class="node entity">
<title>Entity70</title>
<ellipse fill="none" stroke="black" cx="2457.66" cy="-1527.64" rx="38.99" ry="18"/>
<text text-anchor="start" x="2435.66" y="-1523.94" font-family="Times New Roman,serif" font-size="14.00">x magic</text>
</g>
<!-- Entity35&#45;&gt;Entity70 -->
<g id="edge56" class="edge verb">
<title>Entity35&#45;&gt;Entity70</title>
<path fill="none" stroke="black" d="M2383.26,-1432.67C2397.82,-1451.25 2421.28,-1481.2 2437.96,-1502.49"/>
<polygon fill="black" stroke="black" points="2435.29,-1504.76 2444.21,-1510.47 2440.8,-1500.44 2435.29,-1504.76"/>
<text text-anchor="start" x="2364.61" y="-1471.38" font-family="Times New Roman,serif" font-size="14.00">member</text>
</g>
<!-- Entity24 -->
<g id="node56" class="node entity">
<title>Entity24</title>
<ellipse fill="none" stroke="black" cx="1393.36" cy="-323.15" rx="73.39" ry="18"/>
<text text-anchor="start" x="1344.86" y="-319.45" font-family="Times New Roman,serif" font-size="14.00">madam blavatsky</text>
</g>
<!-- Entity24&#45;&gt;Entity59 -->
<g id="edge60" class="edge verb">
<title>Entity24&#45;&gt;Entity59</title>
<path fill="none" stroke="black" d="M1382.72,-340.98C1372.48,-358.15 1356.86,-384.35 1345.08,-404.08"/>
<polygon fill="black" stroke="black" points="1341.93,-402.53 1339.82,-412.91 1347.95,-406.12 1341.93,-402.53"/>
<text text-anchor="start" x="1329.9" y="-376.33" font-family="Times New Roman,serif" font-size="14.00">create</text>
</g>
<!-- Entity31 -->
<g id="node57" class="node entity">
<title>Entity31</title>
<ellipse fill="none" stroke="black" cx="1193.23" cy="-3685.62" rx="69.59" ry="18"/>
<text text-anchor="start" x="1147.73" y="-3681.92" font-family="Times New Roman,serif" font-size="14.00">andrew breitbart</text>
</g>
<!-- Entity31&#45;&gt;Entity65 -->
<g id="edge61" class="edge verb">
<title>Entity31&#45;&gt;Entity65</title>
<path fill="none" stroke="black" d="M1178.38,-3667.78C1163.65,-3650.08 1140.94,-3622.79 1124.35,-3602.87"/>
<polygon fill="black" stroke="black" points="1126.97,-3600.54 1117.88,-3595.09 1121.59,-3605.02 1126.97,-3600.54"/>
<text text-anchor="start" x="1117.37" y="-3639.12" font-family="Times New Roman,serif" font-size="14.00">create</text>
</g>
</g>
</svg>
