<?xml version="1.0" encoding="UTF-8" standalone="no"?>
<?xml-stylesheet href="../styles.css" type="text/css"?>
<!DOCTYPE svg PUBLIC "-//W3C//DTD SVG 1.1//EN"
 "http://www.w3.org/Graphics/SVG/1.1/DTD/svg11.dtd">
<!-- Generated by graphviz version 2.47.3 (20210619.1520)
 -->
<!-- Title: G Pages: 1 -->
<svg width="5850pt" height="4313pt"
 viewBox="0.00 0.00 5850.00 4313.00" xmlns="http://www.w3.org/2000/svg" xmlns:xlink="http://www.w3.org/1999/xlink">
<g id="graph0" class="graph" transform="scale(1 1) rotate(0) translate(4 4309)">
<title>G</title>
<polygon fill="white" stroke="transparent" points="-4,4 -4,-4309 5846,-4309 5846,4 -4,4"/>
<!-- Entity79 -->
<g id="node1" class="node entity">
<title>Entity79</title>
<ellipse fill="none" stroke="black" cx="2420.94" cy="-1879.66" rx="27" ry="18"/>
<text text-anchor="start" x="2410.94" y="-1875.96" font-family="Times New Roman,serif" font-size="14.00">foo</text>
</g>
<!-- Entity80 -->
<g id="node2" class="node entity">
<title>Entity80</title>
<ellipse fill="none" stroke="black" cx="2508.66" cy="-1991.64" rx="27" ry="18"/>
<text text-anchor="start" x="2498.66" y="-1987.94" font-family="Times New Roman,serif" font-size="14.00">baz</text>
</g>
<!-- Entity79&#45;&gt;Entity80 -->
<g id="edge1" class="edge verb">
<title>Entity79&#45;&gt;Entity80</title>
<path fill="none" stroke="black" d="M2433.51,-1895.7C2448.23,-1914.5 2472.76,-1945.82 2489.78,-1967.53"/>
<polygon fill="black" stroke="black" points="2487.19,-1969.91 2496.11,-1975.62 2492.7,-1965.59 2487.19,-1969.91"/>
<text text-anchor="start" x="2441.64" y="-1935.42" font-family="Times New Roman,serif" font-size="14.00">baz</text>
</g>
<!-- Entity3 -->
<g id="node3" class="node entity">
<title>Entity3</title>
<ellipse fill="none" stroke="black" cx="4625.12" cy="-1767.28" rx="65.79" ry="18"/>
<text text-anchor="start" x="4582.62" y="-1763.58" font-family="Times New Roman,serif" font-size="14.00">arthur m young</text>
</g>
<!-- Entity56 -->
<g id="node4" class="node entity">
<title>Entity56</title>
<ellipse fill="none" stroke="black" cx="4887.11" cy="-1189.44" rx="53.89" ry="18"/>
<text text-anchor="start" x="4853.61" y="-1185.74" font-family="Times New Roman,serif" font-size="14.00">bell aviation</text>
</g>
<!-- Entity3&#45;&gt;Entity56 -->
<g id="edge2" class="edge verb">
<title>Entity3&#45;&gt;Entity56</title>
<path fill="none" stroke="black" d="M4633.25,-1749.35C4670.98,-1666.11 4829.2,-1317.15 4874.78,-1216.64"/>
<polygon fill="black" stroke="black" points="4878.01,-1218 4878.95,-1207.44 4871.63,-1215.11 4878.01,-1218"/>
<text text-anchor="start" x="4720.01" y="-1486.8" font-family="Times New Roman,serif" font-size="14.00">create</text>
</g>
<!-- Entity9 -->
<g id="node9" class="node entity">
<title>Entity9</title>
<ellipse fill="none" stroke="black" cx="5174.78" cy="-1950.85" rx="38.19" ry="18"/>
<text text-anchor="start" x="5153.28" y="-1947.15" font-family="Times New Roman,serif" font-size="14.00">the nine</text>
</g>
<!-- Entity3&#45;&gt;Entity9 -->
<g id="edge5" class="edge verb">
<title>Entity3&#45;&gt;Entity9</title>
<path fill="none" stroke="black" d="M4666.88,-1781.23C4769.32,-1815.44 5032.06,-1903.18 5133.74,-1937.14"/>
<polygon fill="black" stroke="black" points="5132.76,-1940.5 5143.35,-1940.35 5134.98,-1933.86 5132.76,-1940.5"/>
<text text-anchor="start" x="4854.31" y="-1862.98" font-family="Times New Roman,serif" font-size="14.00">member</text>
</g>
<!-- Entity55 -->
<g id="node37" class="node entity">
<title>Entity55</title>
<ellipse fill="none" stroke="black" cx="3891.11" cy="-2075.77" rx="77.19" ry="18"/>
<text text-anchor="start" x="3839.61" y="-2072.07" font-family="Times New Roman,serif" font-size="14.00">psi&#45;consciousness</text>
</g>
<!-- Entity3&#45;&gt;Entity55 -->
<g id="edge53" class="edge verb">
<title>Entity3&#45;&gt;Entity55</title>
<path fill="none" stroke="black" d="M4589.22,-1782.37C4468.07,-1833.28 4074.33,-1998.77 3938.05,-2056.04"/>
<polygon fill="black" stroke="black" points="3936.55,-2052.88 3928.68,-2059.98 3939.26,-2059.33 3936.55,-2052.88"/>
<text text-anchor="start" x="4232.63" y="-1923.01" font-family="Times New Roman,serif" font-size="14.00">study</text>
</g>
<!-- Entity7 -->
<g id="node5" class="node entity">
<title>Entity7</title>
<ellipse fill="none" stroke="black" cx="2399.39" cy="-2149.91" rx="64.19" ry="18"/>
<text text-anchor="start" x="2357.89" y="-2146.21" font-family="Times New Roman,serif" font-size="14.00">john f kennedy</text>
</g>
<!-- Entity53 -->
<g id="node6" class="node entity">
<title>Entity53</title>
<ellipse fill="none" stroke="black" cx="2148.66" cy="-2711.09" rx="31.4" ry="18"/>
<text text-anchor="start" x="2132.66" y="-2707.39" font-family="Times New Roman,serif" font-size="14.00">potus</text>
</g>
<!-- Entity7&#45;&gt;Entity53 -->
<g id="edge3" class="edge verb">
<title>Entity7&#45;&gt;Entity53</title>
<path fill="none" stroke="black" d="M2391.34,-2167.94C2354.79,-2249.75 2204.49,-2586.13 2160.69,-2684.16"/>
<polygon fill="black" stroke="black" points="2157.45,-2682.84 2156.57,-2693.4 2163.84,-2685.7 2157.45,-2682.84"/>
<text text-anchor="start" x="2266.01" y="-2429.85" font-family="Times New Roman,serif" font-size="14.00">is</text>
</g>
<!-- Entity2 -->
<g id="node7" class="node entity">
<title>Entity2</title>
<ellipse fill="none" stroke="black" cx="5505.48" cy="-2608.21" rx="64.19" ry="18"/>
<text text-anchor="start" x="5463.98" y="-2604.51" font-family="Times New Roman,serif" font-size="14.00">andre puharich</text>
</g>
<!-- Entity1 -->
<g id="node8" class="node entity">
<title>Entity1</title>
<ellipse fill="none" stroke="black" cx="5100.68" cy="-2333.7" rx="41.69" ry="18"/>
<text text-anchor="start" x="5076.68" y="-2330" font-family="Times New Roman,serif" font-size="14.00">uri geller</text>
</g>
<!-- Entity2&#45;&gt;Entity1 -->
<g id="edge4" class="edge verb">
<title>Entity2&#45;&gt;Entity1</title>
<path fill="none" stroke="black" d="M5480.77,-2591.46C5410.36,-2543.71 5208.81,-2407.03 5131.44,-2354.56"/>
<polygon fill="black" stroke="black" points="5133.3,-2351.59 5123.06,-2348.88 5129.37,-2357.39 5133.3,-2351.59"/>
<text text-anchor="start" x="5254.1" y="-2476.81" font-family="Times New Roman,serif" font-size="14.00">sponsore</text>
</g>
<!-- Entity1&#45;&gt;Entity9 -->
<g id="edge7" class="edge verb">
<title>Entity1&#45;&gt;Entity9</title>
<path fill="none" stroke="black" d="M5104.15,-2315.75C5115.99,-2254.59 5154.8,-2054.07 5169.28,-1979.29"/>
<polygon fill="black" stroke="black" points="5172.76,-1979.69 5171.23,-1969.21 5165.89,-1978.36 5172.76,-1979.69"/>
<text text-anchor="start" x="5032.71" y="-2151.32" font-family="Times New Roman,serif" font-size="14.00">claiemd to channel</text>
</g>
<!-- Entity52 -->
<g id="node42" class="node entity">
<title>Entity52</title>
<ellipse fill="none" stroke="black" cx="5747.85" cy="-1844.86" rx="94.48" ry="18"/>
<text text-anchor="start" x="5683.35" y="-1841.16" font-family="Times New Roman,serif" font-size="14.00">egyptian gods in a ship</text>
</g>
<!-- Entity9&#45;&gt;Entity52 -->
<g id="edge34" class="edge verb">
<title>Entity9&#45;&gt;Entity52</title>
<path fill="none" stroke="black" d="M5210.63,-1944.22C5301.88,-1927.34 5544.61,-1882.45 5670.18,-1859.23"/>
<polygon fill="black" stroke="black" points="5670.92,-1862.65 5680.12,-1857.39 5669.65,-1855.76 5670.92,-1862.65"/>
<text text-anchor="start" x="5410.41" y="-1905.52" font-family="Times New Roman,serif" font-size="14.00">claim</text>
</g>
<!-- Entity5 -->
<g id="node10" class="node entity">
<title>Entity5</title>
<ellipse fill="none" stroke="black" cx="2866.1" cy="-1552.73" rx="75.29" ry="18"/>
<text text-anchor="start" x="2816.1" y="-1549.03" font-family="Times New Roman,serif" font-size="14.00">lee harvey oswald</text>
</g>
<!-- Entity5&#45;&gt;Entity7 -->
<g id="edge6" class="edge verb">
<title>Entity5&#45;&gt;Entity7</title>
<path fill="none" stroke="black" d="M2852.13,-1570.6C2785.37,-1656.02 2498.78,-2022.74 2419.68,-2123.95"/>
<polygon fill="black" stroke="black" points="2416.71,-2122.07 2413.31,-2132.11 2422.22,-2126.38 2416.71,-2122.07"/>
<text text-anchor="start" x="2573.91" y="-1851.07" font-family="Times New Roman,serif" font-size="14.00">assassinate</text>
</g>
<!-- Entity45 -->
<g id="node31" class="node entity">
<title>Entity45</title>
<ellipse fill="none" stroke="black" cx="3378.82" cy="-1061.42" rx="59.29" ry="18"/>
<text text-anchor="start" x="3341.32" y="-1057.72" font-family="Times New Roman,serif" font-size="14.00">guy bannister</text>
</g>
<!-- Entity5&#45;&gt;Entity45 -->
<g id="edge23" class="edge verb">
<title>Entity5&#45;&gt;Entity45</title>
<path fill="none" stroke="black" d="M2884.35,-1535.24C2961.83,-1461 3263.7,-1171.74 3353.49,-1085.69"/>
<polygon fill="black" stroke="black" points="3355.99,-1088.15 3360.79,-1078.7 3351.15,-1083.09 3355.99,-1088.15"/>
<text text-anchor="start" x="3064.92" y="-1314.27" font-family="Times New Roman,serif" font-size="14.00">employee</text>
</g>
<!-- Entity4 -->
<g id="node11" class="node entity">
<title>Entity4</title>
<ellipse fill="none" stroke="black" cx="5666.93" cy="-2091.04" rx="74.99" ry="18"/>
<text text-anchor="start" x="5617.43" y="-2087.34" font-family="Times New Roman,serif" font-size="14.00">gene roddenberry</text>
</g>
<!-- Entity4&#45;&gt;Entity9 -->
<g id="edge8" class="edge verb">
<title>Entity4&#45;&gt;Entity9</title>
<path fill="none" stroke="black" d="M5618.39,-2077.21C5522.21,-2049.81 5308.83,-1989.03 5217.55,-1963.03"/>
<polygon fill="black" stroke="black" points="5218.39,-1959.63 5207.81,-1960.26 5216.47,-1966.36 5218.39,-1959.63"/>
<text text-anchor="start" x="5313.97" y="-2023.92" font-family="Times New Roman,serif" font-size="14.00">claiemd to channel</text>
</g>
<!-- Entity6 -->
<g id="node12" class="node entity">
<title>Entity6</title>
<ellipse fill="none" stroke="black" cx="4560.83" cy="-2260.22" rx="68.49" ry="18"/>
<text text-anchor="start" x="4516.33" y="-2256.52" font-family="Times New Roman,serif" font-size="14.00">jeffrey mishlove</text>
</g>
<!-- Entity6&#45;&gt;Entity1 -->
<g id="edge9" class="edge verb">
<title>Entity6&#45;&gt;Entity1</title>
<path fill="none" stroke="black" d="M4621.71,-2268.51C4729.44,-2283.17 4951.63,-2313.41 5050.89,-2326.92"/>
<polygon fill="black" stroke="black" points="5050.57,-2330.41 5060.95,-2328.29 5051.52,-2323.48 5050.57,-2330.41"/>
<text text-anchor="start" x="4788.3" y="-2301.51" font-family="Times New Roman,serif" font-size="14.00">promote</text>
</g>
<!-- Entity6&#45;&gt;Entity55 -->
<g id="edge57" class="edge verb">
<title>Entity6&#45;&gt;Entity55</title>
<path fill="none" stroke="black" d="M4520.36,-2245.48C4409.19,-2210.61 4098.2,-2124.69 3959.44,-2090.17"/>
<polygon fill="black" stroke="black" points="3959.9,-2086.68 3949.36,-2087.68 3958.22,-2093.48 3959.9,-2086.68"/>
<text text-anchor="start" x="4208.9" y="-2156.63" font-family="Times New Roman,serif" font-size="14.00">study</text>
</g>
<!-- Entity6&#45;&gt;Entity55 -->
<g id="edge60" class="edge verb">
<title>Entity6&#45;&gt;Entity55</title>
<path fill="none" stroke="black" d="M4506.41,-2249.25C4379.72,-2218.35 4066.49,-2132.07 3942.67,-2093.96"/>
<polygon fill="black" stroke="black" points="3943.62,-2090.59 3933.03,-2090.97 3941.55,-2097.27 3943.62,-2090.59"/>
<text text-anchor="start" x="4224.54" y="-2175.4" font-family="Times New Roman,serif" font-size="14.00">investigates</text>
</g>
<!-- Entity11 -->
<g id="node13" class="node entity">
<title>Entity11</title>
<ellipse fill="none" stroke="black" cx="2597" cy="-2782.87" rx="68.49" ry="18"/>
<text text-anchor="start" x="2552.5" y="-2779.17" font-family="Times New Roman,serif" font-size="14.00">george hw bush</text>
</g>
<!-- Entity11&#45;&gt;Entity53 -->
<g id="edge48" class="edge verb">
<title>Entity11&#45;&gt;Entity53</title>
<path fill="none" stroke="black" d="M2538.39,-2773.49C2445.94,-2758.68 2268.59,-2730.29 2189.03,-2717.55"/>
<polygon fill="black" stroke="black" points="2189.35,-2714.06 2178.92,-2715.93 2188.25,-2720.97 2189.35,-2714.06"/>
<text text-anchor="start" x="2353.71" y="-2749.32" font-family="Times New Roman,serif" font-size="14.00">is</text>
</g>
<!-- Entity18 -->
<g id="node14" class="node entity">
<title>Entity18</title>
<ellipse fill="none" stroke="black" cx="2632.24" cy="-2674.96" rx="63.89" ry="18"/>
<text text-anchor="start" x="2591.24" y="-2671.26" font-family="Times New Roman,serif" font-size="14.00">george w bush</text>
</g>
<!-- Entity11&#45;&gt;Entity18 -->
<g id="edge10" class="edge verb">
<title>Entity11&#45;&gt;Entity18</title>
<path fill="none" stroke="black" d="M2602.98,-2764.57C2608.53,-2747.57 2616.87,-2722.02 2623.23,-2702.55"/>
<polygon fill="black" stroke="black" points="2626.57,-2703.59 2626.35,-2693 2619.92,-2701.42 2626.57,-2703.59"/>
<text text-anchor="start" x="2581.11" y="-2737.36" font-family="Times New Roman,serif" font-size="14.00">father</text>
</g>
<!-- Entity18&#45;&gt;Entity53 -->
<g id="edge58" class="edge verb">
<title>Entity18&#45;&gt;Entity53</title>
<path fill="none" stroke="black" d="M2570.51,-2679.57C2470.29,-2687.06 2274.87,-2701.66 2189.84,-2708.01"/>
<polygon fill="black" stroke="black" points="2189.5,-2704.53 2179.79,-2708.76 2190.02,-2711.51 2189.5,-2704.53"/>
<text text-anchor="start" x="2370.17" y="-2697.59" font-family="Times New Roman,serif" font-size="14.00">is</text>
</g>
<!-- Entity25 -->
<g id="node15" class="node entity">
<title>Entity25</title>
<ellipse fill="none" stroke="black" cx="1261.37" cy="-1940.26" rx="58.49" ry="18"/>
<text text-anchor="start" x="1224.37" y="-1936.56" font-family="Times New Roman,serif" font-size="14.00">steve bannon</text>
</g>
<!-- Entity8 -->
<g id="node16" class="node entity">
<title>Entity8</title>
<ellipse fill="none" stroke="black" cx="1947.47" cy="-2221.67" rx="59.59" ry="18"/>
<text text-anchor="start" x="1909.47" y="-2217.97" font-family="Times New Roman,serif" font-size="14.00">donald trump</text>
</g>
<!-- Entity25&#45;&gt;Entity8 -->
<g id="edge11" class="edge verb">
<title>Entity25&#45;&gt;Entity8</title>
<path fill="none" stroke="black" d="M1291.48,-1955.88C1398.64,-2004.94 1762.09,-2154.26 1896.75,-2204.87"/>
<polygon fill="black" stroke="black" points="1895.83,-2208.26 1906.42,-2208.48 1898.28,-2201.7 1895.83,-2208.26"/>
<text text-anchor="start" x="1546.12" y="-2084.17" font-family="Times New Roman,serif" font-size="14.00">promote</text>
</g>
<!-- Entity25&#45;&gt;Entity8 -->
<g id="edge17" class="edge verb">
<title>Entity25&#45;&gt;Entity8</title>
<path fill="none" stroke="black" d="M1301.99,-1953.29C1424.16,-1998.53 1787.1,-2147.37 1907.89,-2201.74"/>
<polygon fill="black" stroke="black" points="1906.61,-2205.01 1917.16,-2205.95 1909.5,-2198.63 1906.61,-2205.01"/>
<text text-anchor="start" x="1568.94" y="-2066.32" font-family="Times New Roman,serif" font-size="14.00">advise</text>
</g>
<!-- Entity76 -->
<g id="node38" class="node entity">
<title>Entity76</title>
<ellipse fill="none" stroke="black" cx="1039.06" cy="-1832.27" rx="77.19" ry="18"/>
<text text-anchor="start" x="987.56" y="-1828.57" font-family="Times New Roman,serif" font-size="14.00">hollywood movies</text>
</g>
<!-- Entity25&#45;&gt;Entity76 -->
<g id="edge30" class="edge verb">
<title>Entity25&#45;&gt;Entity76</title>
<path fill="none" stroke="black" d="M1229.99,-1925.01C1191.3,-1906.22 1125.35,-1874.19 1081.99,-1853.12"/>
<polygon fill="black" stroke="black" points="1083.35,-1849.9 1072.83,-1848.68 1080.29,-1856.19 1083.35,-1849.9"/>
<text text-anchor="start" x="1108.99" y="-1892.87" font-family="Times New Roman,serif" font-size="14.00">produce</text>
</g>
<!-- Entity64 -->
<g id="node46" class="node entity">
<title>Entity64</title>
<ellipse fill="none" stroke="black" cx="862.55" cy="-1690.8" rx="38.19" ry="18"/>
<text text-anchor="start" x="841.05" y="-1687.1" font-family="Times New Roman,serif" font-size="14.00">us navy</text>
</g>
<!-- Entity25&#45;&gt;Entity64 -->
<g id="edge38" class="edge verb">
<title>Entity25&#45;&gt;Entity64</title>
<path fill="none" stroke="black" d="M1235.51,-1924.08C1165.34,-1880.19 971.52,-1758.96 894.6,-1710.85"/>
<polygon fill="black" stroke="black" points="896.15,-1707.69 885.82,-1705.35 892.44,-1713.63 896.15,-1707.69"/>
<text text-anchor="start" x="1019.05" y="-1806.26" font-family="Times New Roman,serif" font-size="14.00">member</text>
</g>
<!-- Entity77 -->
<g id="node49" class="node entity">
<title>Entity77</title>
<ellipse fill="none" stroke="black" cx="720.01" cy="-2036.77" rx="64.99" ry="18"/>
<text text-anchor="start" x="678.01" y="-2033.07" font-family="Times New Roman,serif" font-size="14.00">goldman sachs</text>
</g>
<!-- Entity25&#45;&gt;Entity77 -->
<g id="edge44" class="edge verb">
<title>Entity25&#45;&gt;Entity77</title>
<path fill="none" stroke="black" d="M1210.44,-1949.34C1111.53,-1966.97 893.64,-2005.82 784.69,-2025.24"/>
<polygon fill="black" stroke="black" points="784.04,-2021.8 774.81,-2027 785.27,-2028.69 784.04,-2021.8"/>
<text text-anchor="start" x="943.56" y="-1991.09" font-family="Times New Roman,serif" font-size="14.00">employee</text>
</g>
<!-- Entity63 -->
<g id="node51" class="node entity">
<title>Entity63</title>
<ellipse fill="none" stroke="black" cx="938.61" cy="-1511.93" rx="53.09" ry="18"/>
<text text-anchor="start" x="905.61" y="-1508.23" font-family="Times New Roman,serif" font-size="14.00">biosphere 2</text>
</g>
<!-- Entity25&#45;&gt;Entity63 -->
<g id="edge50" class="edge verb">
<title>Entity25&#45;&gt;Entity63</title>
<path fill="none" stroke="black" d="M1248.11,-1922.67C1197.74,-1855.82 1018.03,-1617.33 958.17,-1537.89"/>
<polygon fill="black" stroke="black" points="960.61,-1535.31 951.8,-1529.43 955.02,-1539.52 960.61,-1535.31"/>
<text text-anchor="start" x="1069.14" y="-1734.08" font-family="Times New Roman,serif" font-size="14.00">create</text>
</g>
<!-- Entity65 -->
<g id="node53" class="node entity">
<title>Entity65</title>
<ellipse fill="none" stroke="black" cx="621.86" cy="-1833.99" rx="61.99" ry="18"/>
<text text-anchor="start" x="582.36" y="-1830.29" font-family="Times New Roman,serif" font-size="14.00">breitbart news</text>
</g>
<!-- Entity25&#45;&gt;Entity65 -->
<g id="edge55" class="edge verb">
<title>Entity25&#45;&gt;Entity65</title>
<path fill="none" stroke="black" d="M1209.85,-1931.69C1093.79,-1912.41 812.2,-1865.62 685.49,-1844.56"/>
<polygon fill="black" stroke="black" points="685.99,-1841.1 675.55,-1842.91 684.84,-1848 685.99,-1841.1"/>
<text text-anchor="start" x="913.67" y="-1891.93" font-family="Times New Roman,serif" font-size="14.00">create</text>
</g>
<!-- Entity61 -->
<g id="node59" class="node entity">
<title>Entity61</title>
<ellipse fill="none" stroke="black" cx="1203.78" cy="-1492.54" rx="35.19" ry="18"/>
<text text-anchor="start" x="1184.78" y="-1488.84" font-family="Times New Roman,serif" font-size="14.00">gurgev</text>
</g>
<!-- Entity25&#45;&gt;Entity61 -->
<g id="edge65" class="edge verb">
<title>Entity25&#45;&gt;Entity61</title>
<path fill="none" stroke="black" d="M1259.04,-1922.15C1250.15,-1853.03 1218.3,-1605.46 1207.44,-1521"/>
<polygon fill="black" stroke="black" points="1210.88,-1520.34 1206.13,-1510.87 1203.94,-1521.23 1210.88,-1520.34"/>
<text text-anchor="start" x="1202.24" y="-1725.38" font-family="Times New Roman,serif" font-size="14.00">study</text>
</g>
<!-- Entity8&#45;&gt;Entity53 -->
<g id="edge26" class="edge verb">
<title>Entity8&#45;&gt;Entity53</title>
<path fill="none" stroke="black" d="M1954.87,-2239.67C1985.32,-2313.73 2101.03,-2595.21 2137.55,-2684.05"/>
<polygon fill="black" stroke="black" points="2134.37,-2685.52 2141.41,-2693.44 2140.84,-2682.86 2134.37,-2685.52"/>
<text text-anchor="start" x="2036.21" y="-2465.66" font-family="Times New Roman,serif" font-size="14.00">is</text>
</g>
<!-- Entity30 -->
<g id="node20" class="node entity">
<title>Entity30</title>
<ellipse fill="none" stroke="black" cx="2623.85" cy="-2282.69" rx="50.09" ry="18"/>
<text text-anchor="start" x="2593.35" y="-2278.99" font-family="Times New Roman,serif" font-size="14.00">john trump</text>
</g>
<!-- Entity8&#45;&gt;Entity30 -->
<g id="edge14" class="edge verb">
<title>Entity8&#45;&gt;Entity30</title>
<path fill="none" stroke="black" d="M2004.85,-2226.84C2132.03,-2238.32 2436.5,-2265.79 2565.02,-2277.38"/>
<polygon fill="black" stroke="black" points="2564.79,-2280.87 2575.07,-2278.29 2565.42,-2273.9 2564.79,-2280.87"/>
<text text-anchor="start" x="2241.93" y="-2255.91" font-family="Times New Roman,serif" font-size="14.00">nephew</text>
</g>
<!-- Entity16 -->
<g id="node17" class="node entity">
<title>Entity16</title>
<ellipse fill="none" stroke="black" cx="4098.03" cy="-2183.73" rx="63.89" ry="18"/>
<text text-anchor="start" x="4057.03" y="-2180.03" font-family="Times New Roman,serif" font-size="14.00">robert bigelow</text>
</g>
<!-- Entity16&#45;&gt;Entity6 -->
<g id="edge12" class="edge verb">
<title>Entity16&#45;&gt;Entity6</title>
<path fill="none" stroke="black" d="M4153.39,-2192.88C4238.38,-2206.93 4400.79,-2233.77 4492.81,-2248.98"/>
<polygon fill="black" stroke="black" points="4492.42,-2252.46 4502.86,-2250.64 4493.56,-2245.56 4492.42,-2252.46"/>
<text text-anchor="start" x="4291.1" y="-2224.73" font-family="Times New Roman,serif" font-size="14.00">funds</text>
</g>
<!-- Entity16&#45;&gt;Entity55 -->
<g id="edge49" class="edge verb">
<title>Entity16&#45;&gt;Entity55</title>
<path fill="none" stroke="black" d="M4067.5,-2167.8C4031.52,-2149.03 3971.59,-2117.76 3931.72,-2096.96"/>
<polygon fill="black" stroke="black" points="3933.27,-2093.82 3922.79,-2092.3 3930.03,-2100.03 3933.27,-2093.82"/>
<text text-anchor="start" x="3935.61" y="-2136.18" font-family="Times New Roman,serif" font-size="14.00">investigates</text>
</g>
<!-- Entity26 -->
<g id="node18" class="node entity">
<title>Entity26</title>
<ellipse fill="none" stroke="black" cx="1008.7" cy="-2873.88" rx="53.89" ry="18"/>
<text text-anchor="start" x="975.2" y="-2870.18" font-family="Times New Roman,serif" font-size="14.00">edgar casey</text>
</g>
<!-- Entity27 -->
<g id="node19" class="node entity">
<title>Entity27</title>
<ellipse fill="none" stroke="black" cx="1565.88" cy="-2836.59" rx="71.49" ry="18"/>
<text text-anchor="start" x="1518.88" y="-2832.89" font-family="Times New Roman,serif" font-size="14.00">woodrow wilson</text>
</g>
<!-- Entity26&#45;&gt;Entity27 -->
<g id="edge13" class="edge verb">
<title>Entity26&#45;&gt;Entity27</title>
<path fill="none" stroke="black" d="M1061.63,-2870.34C1159.85,-2863.76 1370.84,-2849.64 1486.33,-2841.91"/>
<polygon fill="black" stroke="black" points="1486.77,-2845.39 1496.52,-2841.23 1486.3,-2838.41 1486.77,-2845.39"/>
<text text-anchor="start" x="1237.98" y="-2859.93" font-family="Times New Roman,serif" font-size="14.00">advise</text>
</g>
<!-- Entity27&#45;&gt;Entity53 -->
<g id="edge39" class="edge verb">
<title>Entity27&#45;&gt;Entity53</title>
<path fill="none" stroke="black" d="M1620.45,-2824.84C1736.99,-2799.74 2007.83,-2741.42 2109.32,-2719.56"/>
<polygon fill="black" stroke="black" points="2110.13,-2722.97 2119.16,-2717.44 2108.65,-2716.12 2110.13,-2722.97"/>
<text text-anchor="start" x="1854.88" y="-2776" font-family="Times New Roman,serif" font-size="14.00">is</text>
</g>
<!-- Entity58 -->
<g id="node58" class="node entity">
<title>Entity58</title>
<ellipse fill="none" stroke="black" cx="1014.74" cy="-3132.38" rx="71.49" ry="18"/>
<text text-anchor="start" x="967.74" y="-3128.68" font-family="Times New Roman,serif" font-size="14.00">leauge of nations</text>
</g>
<!-- Entity27&#45;&gt;Entity58 -->
<g id="edge64" class="edge verb">
<title>Entity27&#45;&gt;Entity58</title>
<path fill="none" stroke="black" d="M1535.47,-2852.91C1442.04,-2903.05 1159.23,-3054.83 1054.4,-3111.1"/>
<polygon fill="black" stroke="black" points="1052.56,-3108.11 1045.4,-3115.92 1055.87,-3114.28 1052.56,-3108.11"/>
<text text-anchor="start" x="1260.93" y="-2985.8" font-family="Times New Roman,serif" font-size="14.00">create</text>
</g>
<!-- Entity17 -->
<g id="node21" class="node entity">
<title>Entity17</title>
<ellipse fill="none" stroke="black" cx="3200.86" cy="-2214.81" rx="27" ry="18"/>
<text text-anchor="start" x="3192.86" y="-2211.11" font-family="Times New Roman,serif" font-size="14.00">cia</text>
</g>
<!-- Entity30&#45;&gt;Entity17 -->
<g id="edge15" class="edge verb">
<title>Entity30&#45;&gt;Entity17</title>
<path fill="none" stroke="black" d="M2671.56,-2277.07C2783.96,-2263.85 3063.47,-2230.97 3164.06,-2219.14"/>
<polygon fill="black" stroke="black" points="3164.53,-2222.61 3174.05,-2217.96 3163.71,-2215.65 3164.53,-2222.61"/>
<text text-anchor="start" x="2871.81" y="-2251.91" font-family="Times New Roman,serif" font-size="14.00">member</text>
</g>
<!-- Entity67 -->
<g id="node47" class="node entity">
<title>Entity67</title>
<ellipse fill="none" stroke="black" cx="2744.57" cy="-2174.64" rx="50.89" ry="18"/>
<text text-anchor="start" x="2713.57" y="-2170.94" font-family="Times New Roman,serif" font-size="14.00">nikola tesla</text>
</g>
<!-- Entity30&#45;&gt;Entity67 -->
<g id="edge40" class="edge verb">
<title>Entity30&#45;&gt;Entity67</title>
<path fill="none" stroke="black" d="M2642.71,-2265.8C2663,-2247.65 2695.41,-2218.64 2718.21,-2198.23"/>
<polygon fill="black" stroke="black" points="2720.72,-2200.68 2725.84,-2191.4 2716.05,-2195.46 2720.72,-2200.68"/>
<text text-anchor="start" x="2649.46" y="-2235.82" font-family="Times New Roman,serif" font-size="14.00">study</text>
</g>
<!-- Entity17&#45;&gt;Entity55 -->
<g id="edge29" class="edge verb">
<title>Entity17&#45;&gt;Entity55</title>
<path fill="none" stroke="black" d="M3227.08,-2209.53C3325.29,-2189.74 3673.43,-2119.62 3822.53,-2089.59"/>
<polygon fill="black" stroke="black" points="3823.37,-2092.99 3832.48,-2087.58 3821.99,-2086.12 3823.37,-2092.99"/>
<text text-anchor="start" x="3460.8" y="-2153.36" font-family="Times New Roman,serif" font-size="14.00">investigates</text>
</g>
<!-- Entity54 -->
<g id="node52" class="node entity">
<title>Entity54</title>
<ellipse fill="none" stroke="black" cx="2902.14" cy="-2398.07" rx="27" ry="18"/>
<text text-anchor="start" x="2892.64" y="-2394.37" font-family="Times New Roman,serif" font-size="14.00">ufo</text>
</g>
<!-- Entity17&#45;&gt;Entity54 -->
<g id="edge54" class="edge verb">
<title>Entity17&#45;&gt;Entity54</title>
<path fill="none" stroke="black" d="M3180.8,-2227.12C3129.04,-2258.87 2990.85,-2343.65 2930.74,-2380.53"/>
<polygon fill="black" stroke="black" points="2928.81,-2377.61 2922.12,-2385.82 2932.47,-2383.57 2928.81,-2377.61"/>
<text text-anchor="start" x="2991.77" y="-2307.62" font-family="Times New Roman,serif" font-size="14.00">investigates</text>
</g>
<!-- Entity34 -->
<g id="node22" class="node entity">
<title>Entity34</title>
<ellipse fill="none" stroke="black" cx="1169.57" cy="-3771.8" rx="90.98" ry="18"/>
<text text-anchor="start" x="1107.57" y="-3768.1" font-family="Times New Roman,serif" font-size="14.00">emma hardinge&#45;britten</text>
</g>
<!-- Entity38 -->
<g id="node23" class="node entity">
<title>Entity38</title>
<ellipse fill="none" stroke="black" cx="1622.85" cy="-3121.9" rx="67.69" ry="18"/>
<text text-anchor="start" x="1578.85" y="-3118.2" font-family="Times New Roman,serif" font-size="14.00">abraham lincoln</text>
</g>
<!-- Entity34&#45;&gt;Entity38 -->
<g id="edge16" class="edge verb">
<title>Entity34&#45;&gt;Entity38</title>
<path fill="none" stroke="black" d="M1182.16,-3753.74C1245.51,-3662.92 1529.2,-3256.17 1604.47,-3148.25"/>
<polygon fill="black" stroke="black" points="1607.46,-3150.08 1610.31,-3139.87 1601.72,-3146.07 1607.46,-3150.08"/>
<text text-anchor="start" x="1314.32" y="-3454.8" font-family="Times New Roman,serif" font-size="14.00">spokesperson</text>
</g>
<!-- Entity59 -->
<g id="node35" class="node entity">
<title>Entity59</title>
<ellipse fill="none" stroke="black" cx="1801.27" cy="-3930.38" rx="85.29" ry="18"/>
<text text-anchor="start" x="1743.77" y="-3926.68" font-family="Times New Roman,serif" font-size="14.00">theosophical society</text>
</g>
<!-- Entity34&#45;&gt;Entity59 -->
<g id="edge41" class="edge verb">
<title>Entity34&#45;&gt;Entity59</title>
<path fill="none" stroke="black" d="M1225.9,-3785.95C1343.08,-3815.36 1612.47,-3882.99 1736.55,-3914.14"/>
<polygon fill="black" stroke="black" points="1735.75,-3917.54 1746.3,-3916.58 1737.45,-3910.76 1735.75,-3917.54"/>
<text text-anchor="start" x="1447.23" y="-3853.84" font-family="Times New Roman,serif" font-size="14.00">create</text>
</g>
<!-- Entity68 -->
<g id="node50" class="node entity">
<title>Entity68</title>
<ellipse fill="none" stroke="black" cx="902.88" cy="-4286.51" rx="39.79" ry="18"/>
<text text-anchor="start" x="880.38" y="-4282.81" font-family="Times New Roman,serif" font-size="14.00">medium</text>
</g>
<!-- Entity34&#45;&gt;Entity68 -->
<g id="edge45" class="edge verb">
<title>Entity34&#45;&gt;Entity68</title>
<path fill="none" stroke="black" d="M1160.23,-3789.82C1120.34,-3866.81 964.08,-4168.4 916.62,-4259.99"/>
<polygon fill="black" stroke="black" points="913.49,-4258.41 912,-4268.9 919.71,-4261.64 913.49,-4258.41"/>
<text text-anchor="start" x="1028.43" y="-4028.7" font-family="Times New Roman,serif" font-size="14.00">is</text>
</g>
<!-- Entity69 -->
<g id="node60" class="node entity">
<title>Entity69</title>
<ellipse fill="none" stroke="black" cx="658.3" cy="-4147.74" rx="55.79" ry="18"/>
<text text-anchor="start" x="623.3" y="-4144.04" font-family="Times New Roman,serif" font-size="14.00">orphic circle</text>
</g>
<!-- Entity34&#45;&gt;Entity69 -->
<g id="edge66" class="edge verb">
<title>Entity34&#45;&gt;Entity69</title>
<path fill="none" stroke="black" d="M1145.59,-3789.43C1061.84,-3851.02 782.3,-4056.56 688.95,-4125.2"/>
<polygon fill="black" stroke="black" points="686.74,-4122.48 680.76,-4131.22 690.89,-4128.12 686.74,-4122.48"/>
<text text-anchor="start" x="871.27" y="-3961.12" font-family="Times New Roman,serif" font-size="14.00">member</text>
</g>
<!-- Entity38&#45;&gt;Entity53 -->
<g id="edge51" class="edge verb">
<title>Entity38&#45;&gt;Entity53</title>
<path fill="none" stroke="black" d="M1644.77,-3104.77C1728.83,-3039.09 2030.43,-2803.46 2122.07,-2731.87"/>
<polygon fill="black" stroke="black" points="2124.3,-2734.57 2130.02,-2725.65 2119.99,-2729.05 2124.3,-2734.57"/>
<text text-anchor="start" x="1873.42" y="-2922.12" font-family="Times New Roman,serif" font-size="14.00">is</text>
</g>
<!-- Entity40 -->
<g id="node24" class="node entity">
<title>Entity40</title>
<ellipse fill="none" stroke="black" cx="5266.39" cy="-874.56" rx="57.69" ry="18"/>
<text text-anchor="start" x="5229.89" y="-870.86" font-family="Times New Roman,serif" font-size="14.00">michael pane</text>
</g>
<!-- Entity40&#45;&gt;Entity56 -->
<g id="edge62" class="edge verb">
<title>Entity40&#45;&gt;Entity56</title>
<path fill="none" stroke="black" d="M5246,-891.49C5182.59,-944.13 4988.74,-1105.07 4915.52,-1165.86"/>
<polygon fill="black" stroke="black" points="4913.06,-1163.35 4907.6,-1172.43 4917.53,-1168.73 4913.06,-1163.35"/>
<text text-anchor="start" x="5026.76" y="-1032.47" font-family="Times New Roman,serif" font-size="14.00">employee</text>
</g>
<!-- Entity37 -->
<g id="node25" class="node entity">
<title>Entity37</title>
<ellipse fill="none" stroke="black" cx="4855.58" cy="-574.81" rx="74.99" ry="18"/>
<text text-anchor="start" x="4806.08" y="-571.11" font-family="Times New Roman,serif" font-size="14.00">walter dornberger</text>
</g>
<!-- Entity40&#45;&gt;Entity37 -->
<g id="edge18" class="edge verb">
<title>Entity40&#45;&gt;Entity37</title>
<path fill="none" stroke="black" d="M5243.42,-857.8C5174.13,-807.24 4967.06,-656.15 4887.35,-597.98"/>
<polygon fill="black" stroke="black" points="4889.29,-595.07 4879.15,-592.01 4885.17,-600.73 4889.29,-595.07"/>
<text text-anchor="start" x="5011.38" y="-731.69" font-family="Times New Roman,serif" font-size="14.00">employee</text>
</g>
<!-- Entity37&#45;&gt;Entity56 -->
<g id="edge32" class="edge verb">
<title>Entity37&#45;&gt;Entity56</title>
<path fill="none" stroke="black" d="M4854.03,-593C4853,-680.12 4872.03,-1054.91 4882.61,-1161.22"/>
<polygon fill="black" stroke="black" points="4879.13,-1161.63 4883.67,-1171.21 4886.09,-1160.89 4879.13,-1161.63"/>
<text text-anchor="start" x="4814.32" y="-880.91" font-family="Times New Roman,serif" font-size="14.00">employee</text>
</g>
<!-- Entity37&#45;&gt;Entity56 -->
<g id="edge42" class="edge verb">
<title>Entity37&#45;&gt;Entity56</title>
<path fill="none" stroke="black" d="M4859.03,-593.07C4868.98,-680.28 4888.35,-1054.42 4888.7,-1161"/>
<polygon fill="black" stroke="black" points="4885.2,-1161.28 4888.66,-1171.29 4892.2,-1161.3 4885.2,-1161.28"/>
<text text-anchor="start" x="4794.87" y="-865.84" font-family="Times New Roman,serif" font-size="14.00">vice&#45;president</text>
</g>
<!-- Entity51 -->
<g id="node26" class="node entity">
<title>Entity51</title>
<ellipse fill="none" stroke="black" cx="4276.1" cy="-595.79" rx="32.49" ry="18"/>
<text text-anchor="start" x="4259.1" y="-592.09" font-family="Times New Roman,serif" font-size="14.00">nsdap</text>
</g>
<!-- Entity37&#45;&gt;Entity51 -->
<g id="edge19" class="edge verb">
<title>Entity37&#45;&gt;Entity51</title>
<path fill="none" stroke="black" d="M4781.6,-577.49C4658.84,-581.93 4416.86,-590.69 4318.84,-594.24"/>
<polygon fill="black" stroke="black" points="4318.58,-590.75 4308.71,-594.61 4318.83,-597.74 4318.58,-590.75"/>
<text text-anchor="start" x="4504.22" y="-589.66" font-family="Times New Roman,serif" font-size="14.00">member</text>
</g>
<!-- Entity72 -->
<g id="node48" class="node entity">
<title>Entity72</title>
<ellipse fill="none" stroke="black" cx="4769.28" cy="-466.85" rx="90.98" ry="18"/>
<text text-anchor="start" x="4707.28" y="-463.15" font-family="Times New Roman,serif" font-size="14.00">nsdap rocket program</text>
</g>
<!-- Entity37&#45;&gt;Entity72 -->
<g id="edge43" class="edge verb">
<title>Entity37&#45;&gt;Entity72</title>
<path fill="none" stroke="black" d="M4841.33,-556.98C4827.34,-539.48 4805.85,-512.59 4789.97,-492.73"/>
<polygon fill="black" stroke="black" points="4792.53,-490.33 4783.55,-484.7 4787.06,-494.7 4792.53,-490.33"/>
<text text-anchor="start" x="4781.65" y="-528.66" font-family="Times New Roman,serif" font-size="14.00">create</text>
</g>
<!-- Entity73 -->
<g id="node61" class="node entity">
<title>Entity73</title>
<ellipse fill="none" stroke="black" cx="5110.59" cy="-17.58" rx="65.79" ry="18"/>
<text text-anchor="start" x="5068.09" y="-13.88" font-family="Times New Roman,serif" font-size="14.00">x series aircraft</text>
</g>
<!-- Entity37&#45;&gt;Entity73 -->
<g id="edge67" class="edge verb">
<title>Entity37&#45;&gt;Entity73</title>
<path fill="none" stroke="black" d="M4863.78,-556.9C4900.87,-475.86 5053.13,-143.14 5098.05,-44.97"/>
<polygon fill="black" stroke="black" points="5101.31,-46.26 5102.29,-35.71 5094.95,-43.34 5101.31,-46.26"/>
<text text-anchor="start" x="4946.92" y="-304.73" font-family="Times New Roman,serif" font-size="14.00">create</text>
</g>
<!-- Entity74 -->
<g id="node41" class="node entity">
<title>Entity74</title>
<ellipse fill="none" stroke="black" cx="3846.93" cy="-751.38" rx="38.99" ry="18"/>
<text text-anchor="start" x="3824.93" y="-747.68" font-family="Times New Roman,serif" font-size="14.00">far right</text>
</g>
<!-- Entity51&#45;&gt;Entity74 -->
<g id="edge47" class="edge verb">
<title>Entity51&#45;&gt;Entity74</title>
<path fill="none" stroke="black" d="M4248.6,-605.76C4175.03,-632.43 3973.43,-705.52 3887.07,-736.83"/>
<polygon fill="black" stroke="black" points="3885.82,-733.56 3877.61,-740.26 3888.2,-740.14 3885.82,-733.56"/>
<text text-anchor="start" x="4021.83" y="-675.09" font-family="Times New Roman,serif" font-size="14.00">member</text>
</g>
<!-- Entity50 -->
<g id="node27" class="node entity">
<title>Entity50</title>
<ellipse fill="none" stroke="black" cx="2972.91" cy="-3484.52" rx="37.89" ry="18"/>
<text text-anchor="start" x="2951.91" y="-3480.82" font-family="Times New Roman,serif" font-size="14.00">hunt oil</text>
</g>
<!-- Entity48 -->
<g id="node28" class="node entity">
<title>Entity48</title>
<ellipse fill="none" stroke="black" cx="2670.95" cy="-3039.02" rx="77.99" ry="18"/>
<text text-anchor="start" x="2618.95" y="-3035.32" font-family="Times New Roman,serif" font-size="14.00">dwight eisenhower</text>
</g>
<!-- Entity50&#45;&gt;Entity48 -->
<g id="edge20" class="edge verb">
<title>Entity50&#45;&gt;Entity48</title>
<path fill="none" stroke="black" d="M2961.25,-3467.33C2915.03,-3399.14 2744.41,-3147.4 2688.68,-3065.18"/>
<polygon fill="black" stroke="black" points="2691.57,-3063.2 2683.06,-3056.89 2685.77,-3067.13 2691.57,-3063.2"/>
<text text-anchor="start" x="2798.97" y="-3270.06" font-family="Times New Roman,serif" font-size="14.00">fund</text>
</g>
<!-- Entity48&#45;&gt;Entity53 -->
<g id="edge52" class="edge verb">
<title>Entity48&#45;&gt;Entity53</title>
<path fill="none" stroke="black" d="M2643.97,-3022.08C2555.02,-2966.23 2271.43,-2788.17 2178.48,-2729.81"/>
<polygon fill="black" stroke="black" points="2180.17,-2726.74 2169.84,-2724.38 2176.45,-2732.67 2180.17,-2726.74"/>
<text text-anchor="start" x="2401.22" y="-2879.74" font-family="Times New Roman,serif" font-size="14.00">is</text>
</g>
<!-- Entity49 -->
<g id="node29" class="node entity">
<title>Entity49</title>
<ellipse fill="none" stroke="black" cx="4521.91" cy="-683.07" rx="49.29" ry="18"/>
<text text-anchor="start" x="4491.91" y="-679.37" font-family="Times New Roman,serif" font-size="14.00">adolf hitler</text>
</g>
<!-- Entity49&#45;&gt;Entity51 -->
<g id="edge21" class="edge verb">
<title>Entity49&#45;&gt;Entity51</title>
<path fill="none" stroke="black" d="M4486.43,-670.47C4440.26,-654.07 4359.95,-625.56 4313.06,-608.91"/>
<polygon fill="black" stroke="black" points="4314.18,-605.59 4303.59,-605.55 4311.84,-612.19 4314.18,-605.59"/>
<text text-anchor="start" x="4365.75" y="-643.49" font-family="Times New Roman,serif" font-size="14.00">create</text>
</g>
<!-- Entity46 -->
<g id="node30" class="node entity">
<title>Entity46</title>
<ellipse fill="none" stroke="black" cx="5238.03" cy="-232.18" rx="46.29" ry="18"/>
<text text-anchor="start" x="5210.53" y="-228.48" font-family="Times New Roman,serif" font-size="14.00">van braun</text>
</g>
<!-- Entity46&#45;&gt;Entity37 -->
<g id="edge22" class="edge verb">
<title>Entity46&#45;&gt;Entity37</title>
<path fill="none" stroke="black" d="M5219.59,-248.71C5157.54,-304.3 4956.16,-484.71 4882.71,-550.51"/>
<polygon fill="black" stroke="black" points="4880.32,-547.95 4875.2,-557.23 4884.99,-553.17 4880.32,-547.95"/>
<text text-anchor="start" x="4997.15" y="-403.41" font-family="Times New Roman,serif" font-size="14.00">employee</text>
</g>
<!-- Entity46&#45;&gt;Entity72 -->
<g id="edge46" class="edge verb">
<title>Entity46&#45;&gt;Entity72</title>
<path fill="none" stroke="black" d="M5209.42,-246.51C5129.87,-286.33 4905.8,-398.51 4811.71,-445.61"/>
<polygon fill="black" stroke="black" points="4810.13,-442.48 4802.76,-450.09 4813.27,-448.74 4810.13,-442.48"/>
<text text-anchor="start" x="4956.57" y="-349.86" font-family="Times New Roman,serif" font-size="14.00">employee</text>
</g>
<!-- Entity45&#45;&gt;Entity74 -->
<g id="edge33" class="edge verb">
<title>Entity45&#45;&gt;Entity74</title>
<path fill="none" stroke="black" d="M3403.66,-1044.97C3482.78,-992.57 3728.85,-829.59 3815.98,-771.88"/>
<polygon fill="black" stroke="black" points="3817.97,-774.76 3824.38,-766.32 3814.11,-768.92 3817.97,-774.76"/>
<text text-anchor="start" x="3563.82" y="-912.23" font-family="Times New Roman,serif" font-size="14.00">member</text>
</g>
<!-- Entity13 -->
<g id="node32" class="node entity">
<title>Entity13</title>
<ellipse fill="none" stroke="black" cx="2001.16" cy="-3042.87" rx="58.49" ry="18"/>
<text text-anchor="start" x="1964.16" y="-3039.17" font-family="Times New Roman,serif" font-size="14.00">richard nixon</text>
</g>
<!-- Entity13&#45;&gt;Entity53 -->
<g id="edge24" class="edge verb">
<title>Entity13&#45;&gt;Entity53</title>
<path fill="none" stroke="black" d="M2009.09,-3025.03C2033.51,-2970.11 2107.66,-2803.32 2136.76,-2737.86"/>
<polygon fill="black" stroke="black" points="2140.01,-2739.17 2140.87,-2728.61 2133.61,-2736.33 2140.01,-2739.17"/>
<text text-anchor="start" x="2062.92" y="-2885.25" font-family="Times New Roman,serif" font-size="14.00">is</text>
</g>
<!-- Entity10 -->
<g id="node33" class="node entity">
<title>Entity10</title>
<ellipse fill="none" stroke="black" cx="2346.25" cy="-3147.05" rx="56.59" ry="18"/>
<text text-anchor="start" x="2310.75" y="-3143.35" font-family="Times New Roman,serif" font-size="14.00">harry truman</text>
</g>
<!-- Entity10&#45;&gt;Entity53 -->
<g id="edge25" class="edge verb">
<title>Entity10&#45;&gt;Entity53</title>
<path fill="none" stroke="black" d="M2338.14,-3129.15C2307.4,-3061.32 2197.95,-2819.84 2160.97,-2738.25"/>
<polygon fill="black" stroke="black" points="2164.05,-2736.56 2156.74,-2728.9 2157.68,-2739.45 2164.05,-2736.56"/>
<text text-anchor="start" x="2239.56" y="-2937.5" font-family="Times New Roman,serif" font-size="14.00">is</text>
</g>
<!-- Entity57 -->
<g id="node43" class="node entity">
<title>Entity57</title>
<ellipse fill="none" stroke="black" cx="2378.91" cy="-3255.15" rx="55.79" ry="18"/>
<text text-anchor="start" x="2343.91" y="-3251.45" font-family="Times New Roman,serif" font-size="14.00">freemasonry</text>
</g>
<!-- Entity10&#45;&gt;Entity57 -->
<g id="edge35" class="edge verb">
<title>Entity10&#45;&gt;Entity57</title>
<path fill="none" stroke="black" d="M2351.79,-3165.39C2356.91,-3182.34 2364.6,-3207.77 2370.48,-3227.24"/>
<polygon fill="black" stroke="black" points="2367.21,-3228.52 2373.45,-3237.08 2373.91,-3226.5 2367.21,-3228.52"/>
<text text-anchor="start" x="2315.14" y="-3200.12" font-family="Times New Roman,serif" font-size="14.00">member</text>
</g>
<!-- Entity22 -->
<g id="node34" class="node entity">
<title>Entity22</title>
<ellipse fill="none" stroke="black" cx="1852.86" cy="-3338.38" rx="58.49" ry="18"/>
<text text-anchor="start" x="1815.86" y="-3334.68" font-family="Times New Roman,serif" font-size="14.00">rudolf steiner</text>
</g>
<!-- Entity22&#45;&gt;Entity59 -->
<g id="edge27" class="edge verb">
<title>Entity22&#45;&gt;Entity59</title>
<path fill="none" stroke="black" d="M1851.29,-3356.42C1843.92,-3441.02 1812.75,-3798.62 1803.73,-3902.18"/>
<polygon fill="black" stroke="black" points="1800.24,-3901.93 1802.86,-3912.19 1807.21,-3902.54 1800.24,-3901.93"/>
<text text-anchor="start" x="1781.51" y="-3633.1" font-family="Times New Roman,serif" font-size="14.00">member</text>
</g>
<!-- Entity60 -->
<g id="node36" class="node entity">
<title>Entity60</title>
<ellipse fill="none" stroke="black" cx="1870.38" cy="-3230.3" rx="102.08" ry="18"/>
<text text-anchor="start" x="1799.88" y="-3226.6" font-family="Times New Roman,serif" font-size="14.00">anthroposophical society</text>
</g>
<!-- Entity22&#45;&gt;Entity60 -->
<g id="edge28" class="edge verb">
<title>Entity22&#45;&gt;Entity60</title>
<path fill="none" stroke="black" d="M1855.83,-3320.05C1858.57,-3303.18 1862.66,-3277.9 1865.81,-3258.47"/>
<polygon fill="black" stroke="black" points="1869.3,-3258.8 1867.45,-3248.36 1862.39,-3257.68 1869.3,-3258.8"/>
<text text-anchor="start" x="1826.82" y="-3293.06" font-family="Times New Roman,serif" font-size="14.00">create</text>
</g>
<!-- Entity44 -->
<g id="node39" class="node entity">
<title>Entity44</title>
<ellipse fill="none" stroke="black" cx="3511.94" cy="-2677.66" rx="53.89" ry="18"/>
<text text-anchor="start" x="3478.44" y="-2673.96" font-family="Times New Roman,serif" font-size="14.00">black magic</text>
</g>
<!-- Entity71 -->
<g id="node40" class="node entity">
<title>Entity71</title>
<ellipse fill="none" stroke="black" cx="3599.66" cy="-2789.64" rx="28.7" ry="18"/>
<text text-anchor="start" x="3585.66" y="-2785.94" font-family="Times New Roman,serif" font-size="14.00">x left</text>
</g>
<!-- Entity44&#45;&gt;Entity71 -->
<g id="edge31" class="edge verb">
<title>Entity44&#45;&gt;Entity71</title>
<path fill="none" stroke="black" d="M3525.64,-2695.16C3540.45,-2714.05 3564.14,-2744.29 3580.72,-2765.45"/>
<polygon fill="black" stroke="black" points="3577.98,-2767.64 3586.9,-2773.36 3583.49,-2763.32 3577.98,-2767.64"/>
<text text-anchor="start" x="3507.18" y="-2734.11" font-family="Times New Roman,serif" font-size="14.00">member</text>
</g>
<!-- Entity14 -->
<g id="node44" class="node entity">
<title>Entity14</title>
<ellipse fill="none" stroke="black" cx="2523.68" cy="-2531.63" rx="31.4" ry="18"/>
<text text-anchor="start" x="2507.68" y="-2527.93" font-family="Times New Roman,serif" font-size="14.00">carter</text>
</g>
<!-- Entity14&#45;&gt;Entity53 -->
<g id="edge36" class="edge verb">
<title>Entity14&#45;&gt;Entity53</title>
<path fill="none" stroke="black" d="M2499.65,-2543.13C2434.98,-2574.07 2257.1,-2659.2 2182.4,-2694.95"/>
<polygon fill="black" stroke="black" points="2180.49,-2691.98 2172.98,-2699.45 2183.51,-2698.29 2180.49,-2691.98"/>
<text text-anchor="start" x="2331.02" y="-2622.84" font-family="Times New Roman,serif" font-size="14.00">is</text>
</g>
<!-- Entity14&#45;&gt;Entity54 -->
<g id="edge63" class="edge verb">
<title>Entity14&#45;&gt;Entity54</title>
<path fill="none" stroke="black" d="M2550.6,-2522.13C2618.01,-2498.34 2794.03,-2436.23 2868.3,-2410.02"/>
<polygon fill="black" stroke="black" points="2869.82,-2413.19 2878.08,-2406.56 2867.49,-2406.59 2869.82,-2413.19"/>
<text text-anchor="start" x="2667.45" y="-2469.87" font-family="Times New Roman,serif" font-size="14.00">witness</text>
</g>
<!-- Entity21 -->
<g id="node45" class="node entity">
<title>Entity21</title>
<ellipse fill="none" stroke="black" cx="1835.35" cy="-2582.91" rx="35.19" ry="18"/>
<text text-anchor="start" x="1816.35" y="-2579.21" font-family="Times New Roman,serif" font-size="14.00">obama</text>
</g>
<!-- Entity21&#45;&gt;Entity53 -->
<g id="edge37" class="edge verb">
<title>Entity21&#45;&gt;Entity53</title>
<path fill="none" stroke="black" d="M1862.88,-2594.17C1919.86,-2617.48 2050.65,-2670.99 2113.58,-2696.73"/>
<polygon fill="black" stroke="black" points="2112.49,-2700.07 2123.07,-2700.62 2115.14,-2693.59 2112.49,-2700.07"/>
<text text-anchor="start" x="1978.23" y="-2649.25" font-family="Times New Roman,serif" font-size="14.00">is</text>
</g>
<!-- Entity35 -->
<g id="node54" class="node entity">
<title>Entity35</title>
<ellipse fill="none" stroke="black" cx="3497.94" cy="-1613.66" rx="39.79" ry="18"/>
<text text-anchor="start" x="3475.44" y="-1609.96" font-family="Times New Roman,serif" font-size="14.00">crowley</text>
</g>
<!-- Entity70 -->
<g id="node55" class="node entity">
<title>Entity70</title>
<ellipse fill="none" stroke="black" cx="3585.66" cy="-1725.64" rx="38.99" ry="18"/>
<text text-anchor="start" x="3563.66" y="-1721.94" font-family="Times New Roman,serif" font-size="14.00">x magic</text>
</g>
<!-- Entity35&#45;&gt;Entity70 -->
<g id="edge56" class="edge verb">
<title>Entity35&#45;&gt;Entity70</title>
<path fill="none" stroke="black" d="M3511.26,-1630.67C3525.82,-1649.25 3549.28,-1679.2 3565.96,-1700.49"/>
<polygon fill="black" stroke="black" points="3563.29,-1702.76 3572.21,-1708.47 3568.8,-1698.44 3563.29,-1702.76"/>
<text text-anchor="start" x="3492.61" y="-1669.38" font-family="Times New Roman,serif" font-size="14.00">member</text>
</g>
<!-- Entity24 -->
<g id="node56" class="node entity">
<title>Entity24</title>
<ellipse fill="none" stroke="black" cx="1824.66" cy="-4038.3" rx="73.39" ry="18"/>
<text text-anchor="start" x="1776.16" y="-4034.6" font-family="Times New Roman,serif" font-size="14.00">madam blavatsky</text>
</g>
<!-- Entity24&#45;&gt;Entity59 -->
<g id="edge59" class="edge verb">
<title>Entity24&#45;&gt;Entity59</title>
<path fill="none" stroke="black" d="M1820.7,-4019.99C1817.03,-4003.07 1811.52,-3977.68 1807.31,-3958.24"/>
<polygon fill="black" stroke="black" points="1810.72,-3957.45 1805.18,-3948.42 1803.88,-3958.93 1810.72,-3957.45"/>
<text text-anchor="start" x="1780" y="-3992.92" font-family="Times New Roman,serif" font-size="14.00">create</text>
</g>
<!-- Entity31 -->
<g id="node57" class="node entity">
<title>Entity31</title>
<ellipse fill="none" stroke="black" cx="69.95" cy="-1644.17" rx="69.59" ry="18"/>
<text text-anchor="start" x="24.45" y="-1640.47" font-family="Times New Roman,serif" font-size="14.00">andrew breitbart</text>
</g>
<!-- Entity31&#45;&gt;Entity65 -->
<g id="edge61" class="edge verb">
<title>Entity31&#45;&gt;Entity65</title>
<path fill="none" stroke="black" d="M111.89,-1658.59C212.02,-1693.03 464.72,-1779.94 572.22,-1816.92"/>
<polygon fill="black" stroke="black" points="571.26,-1820.29 581.86,-1820.23 573.54,-1813.67 571.26,-1820.29"/>
<text text-anchor="start" x="308.06" y="-1741.56" font-family="Times New Roman,serif" font-size="14.00">create</text>
</g>
</g>
</svg>
