<?xml version="1.0" encoding="UTF-8" standalone="no"?>
<?xml-stylesheet href="../styles.css" type="text/css"?>
<!DOCTYPE svg PUBLIC "-//W3C//DTD SVG 1.1//EN"
 "http://www.w3.org/Graphics/SVG/1.1/DTD/svg11.dtd">
<!-- Generated by graphviz version 2.47.3 (20210619.1520)
 -->
<!-- Title: G Pages: 1 -->
<svg width="4451pt" height="6866pt"
 viewBox="0.00 0.00 4451.00 6866.00" xmlns="http://www.w3.org/2000/svg" xmlns:xlink="http://www.w3.org/1999/xlink">
<g id="graph0" class="graph" transform="scale(1 1) rotate(0) translate(4 6862)">
<title>G</title>
<polygon fill="white" stroke="transparent" points="-4,4 -4,-6862 4447,-6862 4447,4 -4,4"/>
<!-- Entity5 -->
<g id="node1" class="node entity">
<title>Entity5</title>
<ellipse fill="none" stroke="black" cx="1162.93" cy="-2711.08" rx="75.29" ry="18"/>
<text text-anchor="start" x="1112.93" y="-2707.38" font-family="Times New Roman,serif" font-size="14.00">lee harvey oswald</text>
</g>
<!-- Entity7 -->
<g id="node2" class="node entity">
<title>Entity7</title>
<ellipse fill="none" stroke="black" cx="1765.25" cy="-3147.34" rx="64.19" ry="18"/>
<text text-anchor="start" x="1723.75" y="-3143.64" font-family="Times New Roman,serif" font-size="14.00">john f kennedy</text>
</g>
<!-- Entity5&#45;&gt;Entity7 -->
<g id="edge1" class="edge verb">
<title>Entity5&#45;&gt;Entity7</title>
<path fill="none" stroke="black" d="M1186.55,-2728.19C1280.36,-2796.13 1626.8,-3047.06 1733.66,-3124.46"/>
<polygon fill="black" stroke="black" points="1731.65,-3127.32 1741.8,-3130.35 1735.76,-3121.65 1731.65,-3127.32"/>
<text text-anchor="start" x="1398.1" y="-2930.12" font-family="Times New Roman,serif" font-size="14.00">assassinate</text>
</g>
<!-- Entity45 -->
<g id="node14" class="node entity">
<title>Entity45</title>
<ellipse fill="none" stroke="black" cx="719.22" cy="-2178.09" rx="59.29" ry="18"/>
<text text-anchor="start" x="681.72" y="-2174.39" font-family="Times New Roman,serif" font-size="14.00">guy bannister</text>
</g>
<!-- Entity5&#45;&gt;Entity45 -->
<g id="edge9" class="edge verb">
<title>Entity5&#45;&gt;Entity45</title>
<path fill="none" stroke="black" d="M1148.17,-2693.35C1082.56,-2614.54 817.25,-2295.84 740.26,-2203.37"/>
<polygon fill="black" stroke="black" points="742.9,-2201.07 733.81,-2195.62 737.52,-2205.55 742.9,-2201.07"/>
<text text-anchor="start" x="890.22" y="-2452.16" font-family="Times New Roman,serif" font-size="14.00">employee</text>
</g>
<!-- Entity53 -->
<g id="node13" class="node entity">
<title>Entity53</title>
<ellipse fill="none" stroke="black" cx="2349.71" cy="-3380.6" rx="31.4" ry="18"/>
<text text-anchor="start" x="2333.71" y="-3376.9" font-family="Times New Roman,serif" font-size="14.00">potus</text>
</g>
<!-- Entity7&#45;&gt;Entity53 -->
<g id="edge41" class="edge verb">
<title>Entity7&#45;&gt;Entity53</title>
<path fill="none" stroke="black" d="M1802.25,-3162.11C1908.12,-3204.36 2211.24,-3325.33 2314.65,-3366.61"/>
<polygon fill="black" stroke="black" points="2313.44,-3369.89 2324.02,-3370.35 2316.03,-3363.39 2313.44,-3369.89"/>
<text text-anchor="start" x="2048.45" y="-3268.16" font-family="Times New Roman,serif" font-size="14.00">is</text>
</g>
<!-- Entity2 -->
<g id="node3" class="node entity">
<title>Entity2</title>
<ellipse fill="none" stroke="black" cx="2964.18" cy="-591.67" rx="64.19" ry="18"/>
<text text-anchor="start" x="2922.68" y="-587.97" font-family="Times New Roman,serif" font-size="14.00">andre puharich</text>
</g>
<!-- Entity1 -->
<g id="node4" class="node entity">
<title>Entity1</title>
<ellipse fill="none" stroke="black" cx="2652.71" cy="-970.86" rx="41.69" ry="18"/>
<text text-anchor="start" x="2628.71" y="-967.16" font-family="Times New Roman,serif" font-size="14.00">uri geller</text>
</g>
<!-- Entity2&#45;&gt;Entity1 -->
<g id="edge2" class="edge verb">
<title>Entity2&#45;&gt;Entity1</title>
<path fill="none" stroke="black" d="M2949.57,-609.45C2899.18,-670.8 2732.48,-873.75 2673.56,-945.48"/>
<polygon fill="black" stroke="black" points="2670.56,-943.61 2666.92,-953.55 2675.97,-948.05 2670.56,-943.61"/>
<text text-anchor="start" x="2759.57" y="-781.26" font-family="Times New Roman,serif" font-size="14.00">sponsore</text>
</g>
<!-- Entity9 -->
<g id="node8" class="node entity">
<title>Entity9</title>
<ellipse fill="none" stroke="black" cx="2430.34" cy="-604.06" rx="38.19" ry="18"/>
<text text-anchor="start" x="2408.84" y="-600.36" font-family="Times New Roman,serif" font-size="14.00">the nine</text>
</g>
<!-- Entity1&#45;&gt;Entity9 -->
<g id="edge10" class="edge verb">
<title>Entity1&#45;&gt;Entity9</title>
<path fill="none" stroke="black" d="M2641.98,-953.17C2605.95,-893.73 2489.09,-700.98 2446.26,-630.33"/>
<polygon fill="black" stroke="black" points="2449.13,-628.31 2440.96,-621.58 2443.15,-631.94 2449.13,-628.31"/>
<text text-anchor="start" x="2440.12" y="-795.55" font-family="Times New Roman,serif" font-size="14.00">claiemd to channel</text>
</g>
<!-- Entity10 -->
<g id="node5" class="node entity">
<title>Entity10</title>
<ellipse fill="none" stroke="black" cx="2054.39" cy="-3768.97" rx="56.59" ry="18"/>
<text text-anchor="start" x="2018.89" y="-3765.27" font-family="Times New Roman,serif" font-size="14.00">harry truman</text>
</g>
<!-- Entity57 -->
<g id="node6" class="node entity">
<title>Entity57</title>
<ellipse fill="none" stroke="black" cx="1718.8" cy="-4152.97" rx="55.79" ry="18"/>
<text text-anchor="start" x="1683.8" y="-4149.27" font-family="Times New Roman,serif" font-size="14.00">freemasonry</text>
</g>
<!-- Entity10&#45;&gt;Entity57 -->
<g id="edge3" class="edge verb">
<title>Entity10&#45;&gt;Entity57</title>
<path fill="none" stroke="black" d="M2039.1,-3786.47C1985.27,-3848.06 1804.37,-4055.06 1740.98,-4127.6"/>
<polygon fill="black" stroke="black" points="1738.13,-4125.54 1734.19,-4135.37 1743.4,-4130.14 1738.13,-4125.54"/>
<text text-anchor="start" x="1844.04" y="-3960.83" font-family="Times New Roman,serif" font-size="14.00">member</text>
</g>
<!-- Entity10&#45;&gt;Entity53 -->
<g id="edge15" class="edge verb">
<title>Entity10&#45;&gt;Entity53</title>
<path fill="none" stroke="black" d="M2067.85,-3751.27C2115.45,-3688.67 2275.96,-3477.6 2331,-3405.21"/>
<polygon fill="black" stroke="black" points="2333.91,-3407.16 2337.18,-3397.09 2328.34,-3402.93 2333.91,-3407.16"/>
<text text-anchor="start" x="2189.43" y="-3582.04" font-family="Times New Roman,serif" font-size="14.00">is</text>
</g>
<!-- Entity3 -->
<g id="node7" class="node entity">
<title>Entity3</title>
<ellipse fill="none" stroke="black" cx="2112.83" cy="-1052.6" rx="65.79" ry="18"/>
<text text-anchor="start" x="2070.33" y="-1048.9" font-family="Times New Roman,serif" font-size="14.00">arthur m young</text>
</g>
<!-- Entity3&#45;&gt;Entity9 -->
<g id="edge4" class="edge verb">
<title>Entity3&#45;&gt;Entity9</title>
<path fill="none" stroke="black" d="M2125.48,-1034.74C2174.77,-965.1 2354.23,-711.59 2412.17,-629.73"/>
<polygon fill="black" stroke="black" points="2415.08,-631.67 2418,-621.49 2409.37,-627.63 2415.08,-631.67"/>
<text text-anchor="start" x="2222.82" y="-836.04" font-family="Times New Roman,serif" font-size="14.00">member</text>
</g>
<!-- Entity55 -->
<g id="node11" class="node entity">
<title>Entity55</title>
<ellipse fill="none" stroke="black" cx="2566.59" cy="-1672.1" rx="77.19" ry="18"/>
<text text-anchor="start" x="2515.09" y="-1668.4" font-family="Times New Roman,serif" font-size="14.00">psi&#45;consciousness</text>
</g>
<!-- Entity3&#45;&gt;Entity55 -->
<g id="edge17" class="edge verb">
<title>Entity3&#45;&gt;Entity55</title>
<path fill="none" stroke="black" d="M2125.92,-1070.48C2190.09,-1158.08 2471.37,-1542.09 2547.52,-1646.06"/>
<polygon fill="black" stroke="black" points="2544.72,-1648.15 2553.45,-1654.15 2550.36,-1644.02 2544.72,-1648.15"/>
<text text-anchor="start" x="2305.72" y="-1362.07" font-family="Times New Roman,serif" font-size="14.00">study</text>
</g>
<!-- Entity56 -->
<g id="node39" class="node entity">
<title>Entity56</title>
<ellipse fill="none" stroke="black" cx="1465.84" cy="-889.53" rx="53.89" ry="18"/>
<text text-anchor="start" x="1432.34" y="-885.83" font-family="Times New Roman,serif" font-size="14.00">bell aviation</text>
</g>
<!-- Entity3&#45;&gt;Entity56 -->
<g id="edge35" class="edge verb">
<title>Entity3&#45;&gt;Entity56</title>
<path fill="none" stroke="black" d="M2064.47,-1040.41C1946.05,-1010.57 1642.28,-934 1519.01,-902.93"/>
<polygon fill="black" stroke="black" points="1519.6,-899.47 1509.05,-900.42 1517.89,-906.26 1519.6,-899.47"/>
<text text-anchor="start" x="1757.74" y="-975.47" font-family="Times New Roman,serif" font-size="14.00">create</text>
</g>
<!-- Entity52 -->
<g id="node9" class="node entity">
<title>Entity52</title>
<ellipse fill="none" stroke="black" cx="2412.25" cy="-18.22" rx="94.48" ry="18"/>
<text text-anchor="start" x="2347.75" y="-14.52" font-family="Times New Roman,serif" font-size="14.00">egyptian gods in a ship</text>
</g>
<!-- Entity9&#45;&gt;Entity52 -->
<g id="edge5" class="edge verb">
<title>Entity9&#45;&gt;Entity52</title>
<path fill="none" stroke="black" d="M2429.78,-585.89C2427.18,-501.75 2416.32,-149.85 2413.13,-46.73"/>
<polygon fill="black" stroke="black" points="2416.62,-46.36 2412.82,-36.48 2409.63,-46.58 2416.62,-46.36"/>
<text text-anchor="start" x="2391.45" y="-320.11" font-family="Times New Roman,serif" font-size="14.00">claim</text>
</g>
<!-- Entity6 -->
<g id="node10" class="node entity">
<title>Entity6</title>
<ellipse fill="none" stroke="black" cx="2589.97" cy="-1564.09" rx="68.49" ry="18"/>
<text text-anchor="start" x="2545.47" y="-1560.39" font-family="Times New Roman,serif" font-size="14.00">jeffrey mishlove</text>
</g>
<!-- Entity6&#45;&gt;Entity1 -->
<g id="edge6" class="edge verb">
<title>Entity6&#45;&gt;Entity1</title>
<path fill="none" stroke="black" d="M2591.88,-1546.01C2600.85,-1461.24 2638.74,-1102.9 2649.72,-999.13"/>
<polygon fill="black" stroke="black" points="2653.21,-999.4 2650.78,-989.09 2646.25,-998.66 2653.21,-999.4"/>
<text text-anchor="start" x="2572.8" y="-1276.37" font-family="Times New Roman,serif" font-size="14.00">promote</text>
</g>
<!-- Entity6&#45;&gt;Entity55 -->
<g id="edge7" class="edge verb">
<title>Entity6&#45;&gt;Entity55</title>
<path fill="none" stroke="black" d="M2580.6,-1582.27C2575.23,-1599.12 2569.55,-1624.42 2566.63,-1643.89"/>
<polygon fill="black" stroke="black" points="2563.13,-1643.65 2565.31,-1654.01 2570.07,-1644.55 2563.13,-1643.65"/>
<text text-anchor="start" x="2542.61" y="-1616.88" font-family="Times New Roman,serif" font-size="14.00">study</text>
</g>
<!-- Entity6&#45;&gt;Entity55 -->
<g id="edge22" class="edge verb">
<title>Entity6&#45;&gt;Entity55</title>
<path fill="none" stroke="black" d="M2591.22,-1582.52C2589.38,-1599.48 2584.21,-1624.86 2578.82,-1644.28"/>
<polygon fill="black" stroke="black" points="2575.4,-1643.5 2575.91,-1654.09 2582.11,-1645.5 2575.4,-1643.5"/>
<text text-anchor="start" x="2585.02" y="-1617.2" font-family="Times New Roman,serif" font-size="14.00">investigates</text>
</g>
<!-- Entity13 -->
<g id="node12" class="node entity">
<title>Entity13</title>
<ellipse fill="none" stroke="black" cx="2133.86" cy="-3082.36" rx="58.49" ry="18"/>
<text text-anchor="start" x="2096.86" y="-3078.66" font-family="Times New Roman,serif" font-size="14.00">richard nixon</text>
</g>
<!-- Entity13&#45;&gt;Entity53 -->
<g id="edge8" class="edge verb">
<title>Entity13&#45;&gt;Entity53</title>
<path fill="none" stroke="black" d="M2146.71,-3100.12C2183.4,-3150.82 2288.7,-3296.31 2331.4,-3355.3"/>
<polygon fill="black" stroke="black" points="2328.77,-3357.63 2337.46,-3363.67 2334.44,-3353.52 2328.77,-3357.63"/>
<text text-anchor="start" x="2229.06" y="-3231.51" font-family="Times New Roman,serif" font-size="14.00">is</text>
</g>
<!-- Entity74 -->
<g id="node61" class="node entity">
<title>Entity74</title>
<ellipse fill="none" stroke="black" cx="487.98" cy="-1683.63" rx="38.99" ry="18"/>
<text text-anchor="start" x="465.98" y="-1679.93" font-family="Times New Roman,serif" font-size="14.00">far right</text>
</g>
<!-- Entity45&#45;&gt;Entity74 -->
<g id="edge66" class="edge verb">
<title>Entity45&#45;&gt;Entity74</title>
<path fill="none" stroke="black" d="M710.85,-2160.2C676.01,-2085.69 542.27,-1799.72 500.51,-1710.43"/>
<polygon fill="black" stroke="black" points="503.62,-1708.81 496.22,-1701.23 497.28,-1711.78 503.62,-1708.81"/>
<text text-anchor="start" x="559.68" y="-1939.12" font-family="Times New Roman,serif" font-size="14.00">member</text>
</g>
<!-- Entity4 -->
<g id="node15" class="node entity">
<title>Entity4</title>
<ellipse fill="none" stroke="black" cx="2645.16" cy="-134.57" rx="74.99" ry="18"/>
<text text-anchor="start" x="2595.66" y="-130.87" font-family="Times New Roman,serif" font-size="14.00">gene roddenberry</text>
</g>
<!-- Entity4&#45;&gt;Entity9 -->
<g id="edge11" class="edge verb">
<title>Entity4&#45;&gt;Entity9</title>
<path fill="none" stroke="black" d="M2636.87,-152.69C2603.91,-224.73 2481.99,-491.18 2442.66,-577.14"/>
<polygon fill="black" stroke="black" points="2439.47,-575.7 2438.49,-586.25 2445.83,-578.61 2439.47,-575.7"/>
<text text-anchor="start" x="2435.76" y="-368.71" font-family="Times New Roman,serif" font-size="14.00">claiemd to channel</text>
</g>
<!-- Entity21 -->
<g id="node16" class="node entity">
<title>Entity21</title>
<ellipse fill="none" stroke="black" cx="2452.94" cy="-3723.48" rx="35.19" ry="18"/>
<text text-anchor="start" x="2433.94" y="-3719.78" font-family="Times New Roman,serif" font-size="14.00">obama</text>
</g>
<!-- Entity21&#45;&gt;Entity53 -->
<g id="edge12" class="edge verb">
<title>Entity21&#45;&gt;Entity53</title>
<path fill="none" stroke="black" d="M2447.54,-3705.53C2430.6,-3649.29 2378.5,-3476.22 2358.06,-3408.33"/>
<polygon fill="black" stroke="black" points="2361.3,-3406.94 2355.07,-3398.38 2354.6,-3408.96 2361.3,-3406.94"/>
<text text-anchor="start" x="2392.8" y="-3560.73" font-family="Times New Roman,serif" font-size="14.00">is</text>
</g>
<!-- Entity14 -->
<g id="node17" class="node entity">
<title>Entity14</title>
<ellipse fill="none" stroke="black" cx="2531.09" cy="-2997.08" rx="31.4" ry="18"/>
<text text-anchor="start" x="2515.09" y="-2993.38" font-family="Times New Roman,serif" font-size="14.00">carter</text>
</g>
<!-- Entity14&#45;&gt;Entity53 -->
<g id="edge36" class="edge verb">
<title>Entity14&#45;&gt;Entity53</title>
<path fill="none" stroke="black" d="M2522.82,-3014.55C2493.91,-3075.7 2397.15,-3280.3 2362.33,-3353.92"/>
<polygon fill="black" stroke="black" points="2359.14,-3352.49 2358.03,-3363.02 2365.47,-3355.48 2359.14,-3352.49"/>
<text text-anchor="start" x="2432.58" y="-3188.04" font-family="Times New Roman,serif" font-size="14.00">is</text>
</g>
<!-- Entity54 -->
<g id="node18" class="node entity">
<title>Entity54</title>
<ellipse fill="none" stroke="black" cx="2674.38" cy="-2621.79" rx="27" ry="18"/>
<text text-anchor="start" x="2664.88" y="-2618.09" font-family="Times New Roman,serif" font-size="14.00">ufo</text>
</g>
<!-- Entity14&#45;&gt;Entity54 -->
<g id="edge13" class="edge verb">
<title>Entity14&#45;&gt;Entity54</title>
<path fill="none" stroke="black" d="M2537.81,-2979.48C2560.79,-2919.28 2636.4,-2721.26 2664.1,-2648.72"/>
<polygon fill="black" stroke="black" points="2667.38,-2649.94 2667.68,-2639.35 2660.84,-2647.44 2667.38,-2649.94"/>
<text text-anchor="start" x="2558.95" y="-2817.9" font-family="Times New Roman,serif" font-size="14.00">witness</text>
</g>
<!-- Entity18 -->
<g id="node19" class="node entity">
<title>Entity18</title>
<ellipse fill="none" stroke="black" cx="2168.61" cy="-3265.5" rx="63.89" ry="18"/>
<text text-anchor="start" x="2127.61" y="-3261.8" font-family="Times New Roman,serif" font-size="14.00">george w bush</text>
</g>
<!-- Entity18&#45;&gt;Entity53 -->
<g id="edge14" class="edge verb">
<title>Entity18&#45;&gt;Entity53</title>
<path fill="none" stroke="black" d="M2194.56,-3281.99C2227.69,-3303.05 2284.89,-3339.4 2319.82,-3361.6"/>
<polygon fill="black" stroke="black" points="2318.29,-3364.78 2328.61,-3367.19 2322.05,-3358.87 2318.29,-3364.78"/>
<text text-anchor="start" x="2247.19" y="-3325.6" font-family="Times New Roman,serif" font-size="14.00">is</text>
</g>
<!-- Entity11 -->
<g id="node20" class="node entity">
<title>Entity11</title>
<ellipse fill="none" stroke="black" cx="2028.27" cy="-3373.54" rx="68.49" ry="18"/>
<text text-anchor="start" x="1983.77" y="-3369.84" font-family="Times New Roman,serif" font-size="14.00">george hw bush</text>
</g>
<!-- Entity11&#45;&gt;Entity53 -->
<g id="edge39" class="edge verb">
<title>Entity11&#45;&gt;Entity53</title>
<path fill="none" stroke="black" d="M2096.44,-3375.04C2160.54,-3376.45 2254.43,-3378.51 2308.06,-3379.69"/>
<polygon fill="black" stroke="black" points="2308.15,-3383.19 2318.23,-3379.91 2308.3,-3376.19 2308.15,-3383.19"/>
<text text-anchor="start" x="2192.25" y="-3381.16" font-family="Times New Roman,serif" font-size="14.00">is</text>
</g>
<!-- Entity11&#45;&gt;Entity18 -->
<g id="edge16" class="edge verb">
<title>Entity11&#45;&gt;Entity18</title>
<path fill="none" stroke="black" d="M2050.51,-3356.42C2074.22,-3338.17 2111.92,-3309.14 2138.33,-3288.81"/>
<polygon fill="black" stroke="black" points="2140.69,-3291.42 2146.47,-3282.54 2136.42,-3285.87 2140.69,-3291.42"/>
<text text-anchor="start" x="2062.42" y="-3326.42" font-family="Times New Roman,serif" font-size="14.00">father</text>
</g>
<!-- Entity17 -->
<g id="node21" class="node entity">
<title>Entity17</title>
<ellipse fill="none" stroke="black" cx="2791.61" cy="-2274.16" rx="27" ry="18"/>
<text text-anchor="start" x="2783.61" y="-2270.46" font-family="Times New Roman,serif" font-size="14.00">cia</text>
</g>
<!-- Entity17&#45;&gt;Entity55 -->
<g id="edge18" class="edge verb">
<title>Entity17&#45;&gt;Entity55</title>
<path fill="none" stroke="black" d="M2784.99,-2256.47C2753.17,-2171.32 2615.72,-1803.55 2576.86,-1699.57"/>
<polygon fill="black" stroke="black" points="2580.09,-1698.23 2573.31,-1690.08 2573.54,-1700.68 2580.09,-1698.23"/>
<text text-anchor="start" x="2616.93" y="-1981.82" font-family="Times New Roman,serif" font-size="14.00">investigates</text>
</g>
<!-- Entity17&#45;&gt;Entity54 -->
<g id="edge38" class="edge verb">
<title>Entity17&#45;&gt;Entity54</title>
<path fill="none" stroke="black" d="M2785.63,-2291.88C2766.5,-2348.6 2706.68,-2526 2683.6,-2594.46"/>
<polygon fill="black" stroke="black" points="2680.22,-2593.51 2680.34,-2604.11 2686.86,-2595.75 2680.22,-2593.51"/>
<text text-anchor="start" x="2670.61" y="-2446.97" font-family="Times New Roman,serif" font-size="14.00">investigates</text>
</g>
<!-- Entity16 -->
<g id="node22" class="node entity">
<title>Entity16</title>
<ellipse fill="none" stroke="black" cx="3005.26" cy="-1303.96" rx="63.89" ry="18"/>
<text text-anchor="start" x="2964.26" y="-1300.26" font-family="Times New Roman,serif" font-size="14.00">robert bigelow</text>
</g>
<!-- Entity16&#45;&gt;Entity6 -->
<g id="edge19" class="edge verb">
<title>Entity16&#45;&gt;Entity6</title>
<path fill="none" stroke="black" d="M2978.97,-1320.43C2907.12,-1365.44 2707.41,-1490.53 2625.61,-1541.77"/>
<polygon fill="black" stroke="black" points="2623.3,-1539.08 2616.69,-1547.35 2627.02,-1545.01 2623.3,-1539.08"/>
<text text-anchor="start" x="2770.29" y="-1434.9" font-family="Times New Roman,serif" font-size="14.00">funds</text>
</g>
<!-- Entity16&#45;&gt;Entity55 -->
<g id="edge21" class="edge verb">
<title>Entity16&#45;&gt;Entity55</title>
<path fill="none" stroke="black" d="M2984.7,-1321.22C2913.47,-1381 2677.22,-1579.26 2595.06,-1648.21"/>
<polygon fill="black" stroke="black" points="2592.78,-1645.55 2587.37,-1654.66 2597.28,-1650.91 2592.78,-1645.55"/>
<text text-anchor="start" x="2725.88" y="-1488.52" font-family="Times New Roman,serif" font-size="14.00">investigates</text>
</g>
<!-- Entity25 -->
<g id="node23" class="node entity">
<title>Entity25</title>
<ellipse fill="none" stroke="black" cx="3819.15" cy="-3560.79" rx="58.49" ry="18"/>
<text text-anchor="start" x="3782.15" y="-3557.09" font-family="Times New Roman,serif" font-size="14.00">steve bannon</text>
</g>
<!-- Entity61 -->
<g id="node24" class="node entity">
<title>Entity61</title>
<ellipse fill="none" stroke="black" cx="4323.07" cy="-3643.27" rx="35.19" ry="18"/>
<text text-anchor="start" x="4304.07" y="-3639.57" font-family="Times New Roman,serif" font-size="14.00">gurgev</text>
</g>
<!-- Entity25&#45;&gt;Entity61 -->
<g id="edge20" class="edge verb">
<title>Entity25&#45;&gt;Entity61</title>
<path fill="none" stroke="black" d="M3871.18,-3569.3C3970.82,-3585.61 4186.88,-3620.98 4279.49,-3636.13"/>
<polygon fill="black" stroke="black" points="4279.2,-3639.63 4289.63,-3637.79 4280.33,-3632.73 4279.2,-3639.63"/>
<text text-anchor="start" x="4044.33" y="-3606.52" font-family="Times New Roman,serif" font-size="14.00">study</text>
</g>
<!-- Entity8 -->
<g id="node25" class="node entity">
<title>Entity8</title>
<ellipse fill="none" stroke="black" cx="3050.63" cy="-3346.78" rx="59.59" ry="18"/>
<text text-anchor="start" x="3012.63" y="-3343.08" font-family="Times New Roman,serif" font-size="14.00">donald trump</text>
</g>
<!-- Entity25&#45;&gt;Entity8 -->
<g id="edge23" class="edge verb">
<title>Entity25&#45;&gt;Entity8</title>
<path fill="none" stroke="black" d="M3781.36,-3546.98C3657.25,-3507.68 3261.45,-3397.25 3110.18,-3359.43"/>
<polygon fill="black" stroke="black" points="3110.7,-3355.95 3100.15,-3356.94 3109.01,-3362.74 3110.7,-3355.95"/>
<text text-anchor="start" x="3397.77" y="-3442" font-family="Times New Roman,serif" font-size="14.00">promote</text>
</g>
<!-- Entity25&#45;&gt;Entity8 -->
<g id="edge29" class="edge verb">
<title>Entity25&#45;&gt;Entity8</title>
<path fill="none" stroke="black" d="M3770.14,-3550.76C3631.29,-3516.6 3236.44,-3406.66 3098.72,-3363.83"/>
<polygon fill="black" stroke="black" points="3099.46,-3360.39 3088.87,-3360.74 3097.37,-3367.07 3099.46,-3360.39"/>
<text text-anchor="start" x="3398.43" y="-3461.09" font-family="Times New Roman,serif" font-size="14.00">advise</text>
</g>
<!-- Entity65 -->
<g id="node48" class="node entity">
<title>Entity65</title>
<ellipse fill="none" stroke="black" cx="4032.45" cy="-3669.4" rx="61.99" ry="18"/>
<text text-anchor="start" x="3992.95" y="-3665.7" font-family="Times New Roman,serif" font-size="14.00">breitbart news</text>
</g>
<!-- Entity25&#45;&gt;Entity65 -->
<g id="edge52" class="edge verb">
<title>Entity25&#45;&gt;Entity65</title>
<path fill="none" stroke="black" d="M3849.71,-3576.35C3887.3,-3595.49 3951.2,-3628.03 3992.61,-3649.11"/>
<polygon fill="black" stroke="black" points="3991.1,-3652.27 4001.6,-3653.69 3994.27,-3646.03 3991.1,-3652.27"/>
<text text-anchor="start" x="3887.16" y="-3616.53" font-family="Times New Roman,serif" font-size="14.00">create</text>
</g>
<!-- Entity63 -->
<g id="node49" class="node entity">
<title>Entity63</title>
<ellipse fill="none" stroke="black" cx="4333.28" cy="-3485.58" rx="53.09" ry="18"/>
<text text-anchor="start" x="4300.28" y="-3481.88" font-family="Times New Roman,serif" font-size="14.00">biosphere 2</text>
</g>
<!-- Entity25&#45;&gt;Entity63 -->
<g id="edge47" class="edge verb">
<title>Entity25&#45;&gt;Entity63</title>
<path fill="none" stroke="black" d="M3872.24,-3553.02C3968.97,-3538.87 4173.27,-3508.99 4274.24,-3494.22"/>
<polygon fill="black" stroke="black" points="4274.88,-3497.66 4284.27,-3492.75 4273.87,-3490.73 4274.88,-3497.66"/>
<text text-anchor="start" x="4039.24" y="-3527.42" font-family="Times New Roman,serif" font-size="14.00">create</text>
</g>
<!-- Entity77 -->
<g id="node50" class="node entity">
<title>Entity77</title>
<ellipse fill="none" stroke="black" cx="4308.86" cy="-3884.15" rx="64.99" ry="18"/>
<text text-anchor="start" x="4266.86" y="-3880.45" font-family="Times New Roman,serif" font-size="14.00">goldman sachs</text>
</g>
<!-- Entity25&#45;&gt;Entity77 -->
<g id="edge49" class="edge verb">
<title>Entity25&#45;&gt;Entity77</title>
<path fill="none" stroke="black" d="M3844.11,-3577.27C3925.4,-3630.94 4182.62,-3800.79 4275.23,-3861.94"/>
<polygon fill="black" stroke="black" points="4273.39,-3864.92 4283.66,-3867.51 4277.25,-3859.08 4273.39,-3864.92"/>
<text text-anchor="start" x="4005.67" y="-3723.4" font-family="Times New Roman,serif" font-size="14.00">employee</text>
</g>
<!-- Entity64 -->
<g id="node53" class="node entity">
<title>Entity64</title>
<ellipse fill="none" stroke="black" cx="4030.56" cy="-3992.21" rx="38.19" ry="18"/>
<text text-anchor="start" x="4009.06" y="-3988.51" font-family="Times New Roman,serif" font-size="14.00">us navy</text>
</g>
<!-- Entity25&#45;&gt;Entity64 -->
<g id="edge54" class="edge verb">
<title>Entity25&#45;&gt;Entity64</title>
<path fill="none" stroke="black" d="M3827.97,-3578.77C3861.08,-3646.35 3978.17,-3885.29 4017.54,-3965.63"/>
<polygon fill="black" stroke="black" points="4014.4,-3967.18 4021.94,-3974.62 4020.69,-3964.1 4014.4,-3967.18"/>
<text text-anchor="start" x="3876.75" y="-3761" font-family="Times New Roman,serif" font-size="14.00">member</text>
</g>
<!-- Entity76 -->
<g id="node54" class="node entity">
<title>Entity76</title>
<ellipse fill="none" stroke="black" cx="4365.83" cy="-3297.16" rx="77.19" ry="18"/>
<text text-anchor="start" x="4314.33" y="-3293.46" font-family="Times New Roman,serif" font-size="14.00">hollywood movies</text>
</g>
<!-- Entity25&#45;&gt;Entity76 -->
<g id="edge55" class="edge verb">
<title>Entity25&#45;&gt;Entity76</title>
<path fill="none" stroke="black" d="M3850.91,-3545.47C3944.03,-3500.56 4216.55,-3369.15 4322.76,-3317.93"/>
<polygon fill="black" stroke="black" points="4324.42,-3321.01 4331.91,-3313.52 4321.38,-3314.71 4324.42,-3321.01"/>
<text text-anchor="start" x="4039.83" y="-3435.5" font-family="Times New Roman,serif" font-size="14.00">produce</text>
</g>
<!-- Entity8&#45;&gt;Entity53 -->
<g id="edge43" class="edge verb">
<title>Entity8&#45;&gt;Entity53</title>
<path fill="none" stroke="black" d="M2991.48,-3349.64C2852.92,-3356.32 2510.09,-3372.86 2391.15,-3378.6"/>
<polygon fill="black" stroke="black" points="2390.82,-3375.11 2381,-3379.09 2391.16,-3382.11 2390.82,-3375.11"/>
<text text-anchor="start" x="2681.31" y="-3367.92" font-family="Times New Roman,serif" font-size="14.00">is</text>
</g>
<!-- Entity30 -->
<g id="node28" class="node entity">
<title>Entity30</title>
<ellipse fill="none" stroke="black" cx="3045.76" cy="-2713.34" rx="50.09" ry="18"/>
<text text-anchor="start" x="3015.26" y="-2709.64" font-family="Times New Roman,serif" font-size="14.00">john trump</text>
</g>
<!-- Entity8&#45;&gt;Entity30 -->
<g id="edge25" class="edge verb">
<title>Entity8&#45;&gt;Entity30</title>
<path fill="none" stroke="black" d="M3050.49,-3328.51C3049.81,-3239.37 3046.81,-2850.13 3045.98,-2741.55"/>
<polygon fill="black" stroke="black" points="3049.48,-2741.35 3045.9,-2731.38 3042.48,-2741.41 3049.48,-2741.35"/>
<text text-anchor="start" x="3005.24" y="-3038.83" font-family="Times New Roman,serif" font-size="14.00">nephew</text>
</g>
<!-- Entity79 -->
<g id="node26" class="node entity">
<title>Entity79</title>
<ellipse fill="none" stroke="black" cx="2946.94" cy="-4105.66" rx="27" ry="18"/>
<text text-anchor="start" x="2936.94" y="-4101.96" font-family="Times New Roman,serif" font-size="14.00">foo</text>
</g>
<!-- Entity80 -->
<g id="node27" class="node entity">
<title>Entity80</title>
<ellipse fill="none" stroke="black" cx="3034.66" cy="-4217.64" rx="27" ry="18"/>
<text text-anchor="start" x="3024.66" y="-4213.94" font-family="Times New Roman,serif" font-size="14.00">baz</text>
</g>
<!-- Entity79&#45;&gt;Entity80 -->
<g id="edge24" class="edge verb">
<title>Entity79&#45;&gt;Entity80</title>
<path fill="none" stroke="black" d="M2959.51,-4121.7C2974.23,-4140.5 2998.76,-4171.82 3015.78,-4193.53"/>
<polygon fill="black" stroke="black" points="3013.19,-4195.91 3022.11,-4201.62 3018.7,-4191.59 3013.19,-4195.91"/>
<text text-anchor="start" x="2967.64" y="-4161.42" font-family="Times New Roman,serif" font-size="14.00">baz</text>
</g>
<!-- Entity30&#45;&gt;Entity17 -->
<g id="edge32" class="edge verb">
<title>Entity30&#45;&gt;Entity17</title>
<path fill="none" stroke="black" d="M3035.48,-2695.58C2995.95,-2627.26 2853.57,-2381.23 2806.69,-2300.23"/>
<polygon fill="black" stroke="black" points="2809.5,-2298.09 2801.46,-2291.19 2803.44,-2301.6 2809.5,-2298.09"/>
<text text-anchor="start" x="2875.08" y="-2501.7" font-family="Times New Roman,serif" font-size="14.00">member</text>
</g>
<!-- Entity67 -->
<g id="node29" class="node entity">
<title>Entity67</title>
<ellipse fill="none" stroke="black" cx="3467.57" cy="-2505.09" rx="50.89" ry="18"/>
<text text-anchor="start" x="3436.57" y="-2501.39" font-family="Times New Roman,serif" font-size="14.00">nikola tesla</text>
</g>
<!-- Entity30&#45;&gt;Entity67 -->
<g id="edge26" class="edge verb">
<title>Entity30&#45;&gt;Entity67</title>
<path fill="none" stroke="black" d="M3075.42,-2698.69C3149.99,-2661.87 3345.3,-2565.45 3428.8,-2524.23"/>
<polygon fill="black" stroke="black" points="3430.52,-2527.28 3437.94,-2519.72 3427.42,-2521 3430.52,-2527.28"/>
<text text-anchor="start" x="3221.11" y="-2615.26" font-family="Times New Roman,serif" font-size="14.00">study</text>
</g>
<!-- Entity26 -->
<g id="node30" class="node entity">
<title>Entity26</title>
<ellipse fill="none" stroke="black" cx="1550.98" cy="-2603.5" rx="53.89" ry="18"/>
<text text-anchor="start" x="1517.48" y="-2599.8" font-family="Times New Roman,serif" font-size="14.00">edgar casey</text>
</g>
<!-- Entity27 -->
<g id="node31" class="node entity">
<title>Entity27</title>
<ellipse fill="none" stroke="black" cx="2041.24" cy="-2805.2" rx="71.49" ry="18"/>
<text text-anchor="start" x="1994.24" y="-2801.5" font-family="Times New Roman,serif" font-size="14.00">woodrow wilson</text>
</g>
<!-- Entity26&#45;&gt;Entity27 -->
<g id="edge27" class="edge verb">
<title>Entity26&#45;&gt;Entity27</title>
<path fill="none" stroke="black" d="M1585.07,-2617.53C1670.91,-2652.84 1896.16,-2745.51 1994.35,-2785.91"/>
<polygon fill="black" stroke="black" points="1993.15,-2789.2 2003.73,-2789.76 1995.81,-2782.72 1993.15,-2789.2"/>
<text text-anchor="start" x="1753.71" y="-2705.52" font-family="Times New Roman,serif" font-size="14.00">advise</text>
</g>
<!-- Entity27&#45;&gt;Entity53 -->
<g id="edge45" class="edge verb">
<title>Entity27&#45;&gt;Entity53</title>
<path fill="none" stroke="black" d="M2050.81,-2823.05C2095.34,-2906.12 2282.36,-3254.97 2335.55,-3354.18"/>
<polygon fill="black" stroke="black" points="2332.6,-3356.08 2340.41,-3363.24 2338.77,-3352.77 2332.6,-3356.08"/>
<text text-anchor="start" x="2193.18" y="-3092.41" font-family="Times New Roman,serif" font-size="14.00">is</text>
</g>
<!-- Entity58 -->
<g id="node42" class="node entity">
<title>Entity58</title>
<ellipse fill="none" stroke="black" cx="2007.24" cy="-2697.06" rx="71.49" ry="18"/>
<text text-anchor="start" x="1960.24" y="-2693.36" font-family="Times New Roman,serif" font-size="14.00">leauge of nations</text>
</g>
<!-- Entity27&#45;&gt;Entity58 -->
<g id="edge40" class="edge verb">
<title>Entity27&#45;&gt;Entity58</title>
<path fill="none" stroke="black" d="M2035.47,-2786.85C2030.11,-2769.82 2022.06,-2744.21 2015.93,-2724.7"/>
<polygon fill="black" stroke="black" points="2019.26,-2723.62 2012.92,-2715.13 2012.58,-2725.72 2019.26,-2723.62"/>
<text text-anchor="start" x="1991.7" y="-2759.58" font-family="Times New Roman,serif" font-size="14.00">create</text>
</g>
<!-- Entity40 -->
<g id="node32" class="node entity">
<title>Entity40</title>
<ellipse fill="none" stroke="black" cx="954.31" cy="-735.48" rx="57.69" ry="18"/>
<text text-anchor="start" x="917.81" y="-731.78" font-family="Times New Roman,serif" font-size="14.00">michael pane</text>
</g>
<!-- Entity37 -->
<g id="node33" class="node entity">
<title>Entity37</title>
<ellipse fill="none" stroke="black" cx="839.52" cy="-843.54" rx="74.99" ry="18"/>
<text text-anchor="start" x="790.02" y="-839.84" font-family="Times New Roman,serif" font-size="14.00">walter dornberger</text>
</g>
<!-- Entity40&#45;&gt;Entity37 -->
<g id="edge28" class="edge verb">
<title>Entity40&#45;&gt;Entity37</title>
<path fill="none" stroke="black" d="M936.12,-752.6C917.2,-770.41 887.4,-798.46 865.9,-818.71"/>
<polygon fill="black" stroke="black" points="863.27,-816.37 858.39,-825.78 868.07,-821.47 863.27,-816.37"/>
<text text-anchor="start" x="847.01" y="-789.45" font-family="Times New Roman,serif" font-size="14.00">employee</text>
</g>
<!-- Entity40&#45;&gt;Entity56 -->
<g id="edge57" class="edge verb">
<title>Entity40&#45;&gt;Entity56</title>
<path fill="none" stroke="black" d="M996.17,-748.08C1089.69,-776.25 1315.27,-844.18 1415.91,-874.49"/>
<polygon fill="black" stroke="black" points="1414.96,-877.86 1425.54,-877.39 1416.98,-871.16 1414.96,-877.86"/>
<text text-anchor="start" x="1152.04" y="-815.09" font-family="Times New Roman,serif" font-size="14.00">employee</text>
</g>
<!-- Entity51 -->
<g id="node36" class="node entity">
<title>Entity51</title>
<ellipse fill="none" stroke="black" cx="439.76" cy="-1243.91" rx="32.49" ry="18"/>
<text text-anchor="start" x="422.76" y="-1240.21" font-family="Times New Roman,serif" font-size="14.00">nsdap</text>
</g>
<!-- Entity37&#45;&gt;Entity51 -->
<g id="edge31" class="edge verb">
<title>Entity37&#45;&gt;Entity51</title>
<path fill="none" stroke="black" d="M821.83,-861.26C757.53,-925.65 536.23,-1147.29 463.29,-1220.34"/>
<polygon fill="black" stroke="black" points="460.51,-1218.17 455.92,-1227.72 465.46,-1223.12 460.51,-1218.17"/>
<text text-anchor="start" x="596.56" y="-1044.6" font-family="Times New Roman,serif" font-size="14.00">member</text>
</g>
<!-- Entity37&#45;&gt;Entity56 -->
<g id="edge58" class="edge verb">
<title>Entity37&#45;&gt;Entity56</title>
<path fill="none" stroke="black" d="M904.16,-852.61C1024.49,-864.71 1281.47,-883.57 1401.54,-889.11"/>
<polygon fill="black" stroke="black" points="1401.54,-892.61 1411.68,-889.56 1401.85,-885.62 1401.54,-892.61"/>
<text text-anchor="start" x="1098.85" y="-874.66" font-family="Times New Roman,serif" font-size="14.00">employee</text>
</g>
<!-- Entity37&#45;&gt;Entity56 -->
<g id="edge60" class="edge verb">
<title>Entity37&#45;&gt;Entity56</title>
<path fill="none" stroke="black" d="M914.47,-844.47C1040.48,-850.67 1292.21,-869.29 1406.71,-881.01"/>
<polygon fill="black" stroke="black" points="1406.38,-884.5 1416.69,-882.06 1407.11,-877.54 1406.38,-884.5"/>
<text text-anchor="start" x="1081.59" y="-851.54" font-family="Times New Roman,serif" font-size="14.00">vice&#45;president</text>
</g>
<!-- Entity72 -->
<g id="node58" class="node entity">
<title>Entity72</title>
<ellipse fill="none" stroke="black" cx="1382.9" cy="-617.13" rx="90.98" ry="18"/>
<text text-anchor="start" x="1320.9" y="-613.43" font-family="Times New Roman,serif" font-size="14.00">nsdap rocket program</text>
</g>
<!-- Entity37&#45;&gt;Entity72 -->
<g id="edge61" class="edge verb">
<title>Entity37&#45;&gt;Entity72</title>
<path fill="none" stroke="black" d="M877.3,-827.8C973.43,-787.74 1227.3,-681.96 1334.28,-637.39"/>
<polygon fill="black" stroke="black" points="1335.67,-640.6 1343.55,-633.53 1332.98,-634.14 1335.67,-640.6"/>
<text text-anchor="start" x="1071.79" y="-736.39" font-family="Times New Roman,serif" font-size="14.00">create</text>
</g>
<!-- Entity73 -->
<g id="node60" class="node entity">
<title>Entity73</title>
<ellipse fill="none" stroke="black" cx="430.79" cy="-394.87" rx="65.79" ry="18"/>
<text text-anchor="start" x="388.29" y="-391.17" font-family="Times New Roman,serif" font-size="14.00">x series aircraft</text>
</g>
<!-- Entity37&#45;&gt;Entity73 -->
<g id="edge63" class="edge verb">
<title>Entity37&#45;&gt;Entity73</title>
<path fill="none" stroke="black" d="M823.5,-825.95C760.28,-756.56 528.03,-501.61 453.78,-420.1"/>
<polygon fill="black" stroke="black" points="456.03,-417.37 446.7,-412.33 450.85,-422.08 456.03,-417.37"/>
<text text-anchor="start" x="604.64" y="-626.83" font-family="Times New Roman,serif" font-size="14.00">create</text>
</g>
<!-- Entity34 -->
<g id="node34" class="node entity">
<title>Entity34</title>
<ellipse fill="none" stroke="black" cx="1923.9" cy="-4882.2" rx="90.98" ry="18"/>
<text text-anchor="start" x="1861.9" y="-4878.5" font-family="Times New Roman,serif" font-size="14.00">emma hardinge&#45;britten</text>
</g>
<!-- Entity38 -->
<g id="node35" class="node entity">
<title>Entity38</title>
<ellipse fill="none" stroke="black" cx="2174.99" cy="-4044.16" rx="67.69" ry="18"/>
<text text-anchor="start" x="2130.99" y="-4040.46" font-family="Times New Roman,serif" font-size="14.00">abraham lincoln</text>
</g>
<!-- Entity34&#45;&gt;Entity38 -->
<g id="edge30" class="edge verb">
<title>Entity34&#45;&gt;Entity38</title>
<path fill="none" stroke="black" d="M1929.38,-4863.92C1961.71,-4756.02 2127.51,-4202.65 2166.68,-4071.88"/>
<polygon fill="black" stroke="black" points="2170.07,-4072.79 2169.58,-4062.2 2163.36,-4070.78 2170.07,-4072.79"/>
<text text-anchor="start" x="1969.03" y="-4471.7" font-family="Times New Roman,serif" font-size="14.00">spokesperson</text>
</g>
<!-- Entity59 -->
<g id="node44" class="node entity">
<title>Entity59</title>
<ellipse fill="none" stroke="black" cx="1646.08" cy="-5687.74" rx="85.29" ry="18"/>
<text text-anchor="start" x="1588.58" y="-5684.04" font-family="Times New Roman,serif" font-size="14.00">theosophical society</text>
</g>
<!-- Entity34&#45;&gt;Entity59 -->
<g id="edge51" class="edge verb">
<title>Entity34&#45;&gt;Entity59</title>
<path fill="none" stroke="black" d="M1917.58,-4900.54C1881.28,-5005.78 1699.56,-5532.67 1655.64,-5660.01"/>
<polygon fill="black" stroke="black" points="1652.22,-5659.19 1652.27,-5669.78 1658.84,-5661.47 1652.22,-5659.19"/>
<text text-anchor="start" x="1752.61" y="-5284.07" font-family="Times New Roman,serif" font-size="14.00">create</text>
</g>
<!-- Entity69 -->
<g id="node57" class="node entity">
<title>Entity69</title>
<ellipse fill="none" stroke="black" cx="2044.08" cy="-5470.7" rx="55.79" ry="18"/>
<text text-anchor="start" x="2009.08" y="-5467" font-family="Times New Roman,serif" font-size="14.00">orphic circle</text>
</g>
<!-- Entity34&#45;&gt;Entity69 -->
<g id="edge59" class="edge verb">
<title>Entity34&#45;&gt;Entity69</title>
<path fill="none" stroke="black" d="M1927.63,-4900.46C1944.93,-4985.16 2017.39,-5339.98 2038.37,-5442.72"/>
<polygon fill="black" stroke="black" points="2034.97,-5443.56 2040.4,-5452.66 2041.83,-5442.16 2034.97,-5443.56"/>
<text text-anchor="start" x="1937" y="-5175.39" font-family="Times New Roman,serif" font-size="14.00">member</text>
</g>
<!-- Entity68 -->
<g id="node59" class="node entity">
<title>Entity68</title>
<ellipse fill="none" stroke="black" cx="1576.77" cy="-5301.54" rx="39.79" ry="18"/>
<text text-anchor="start" x="1554.27" y="-5297.84" font-family="Times New Roman,serif" font-size="14.00">medium</text>
</g>
<!-- Entity34&#45;&gt;Entity68 -->
<g id="edge62" class="edge verb">
<title>Entity34&#45;&gt;Entity68</title>
<path fill="none" stroke="black" d="M1908.99,-4900.22C1853.77,-4966.93 1660.89,-5199.93 1597.29,-5276.76"/>
<polygon fill="black" stroke="black" points="1594.55,-5274.59 1590.87,-5284.52 1599.94,-5279.05 1594.55,-5274.59"/>
<text text-anchor="start" x="1743.14" y="-5092.29" font-family="Times New Roman,serif" font-size="14.00">is</text>
</g>
<!-- Entity38&#45;&gt;Entity53 -->
<g id="edge48" class="edge verb">
<title>Entity38&#45;&gt;Entity53</title>
<path fill="none" stroke="black" d="M2179.75,-4026.07C2203.91,-3934.31 2312.9,-3520.4 2342.36,-3408.54"/>
<polygon fill="black" stroke="black" points="2345.79,-3409.24 2344.96,-3398.68 2339.02,-3407.46 2345.79,-3409.24"/>
<text text-anchor="start" x="2251.06" y="-3721.1" font-family="Times New Roman,serif" font-size="14.00">is</text>
</g>
<!-- Entity51&#45;&gt;Entity74 -->
<g id="edge65" class="edge verb">
<title>Entity51&#45;&gt;Entity74</title>
<path fill="none" stroke="black" d="M441.74,-1261.96C449.21,-1330.09 475.72,-1571.84 484.86,-1655.16"/>
<polygon fill="black" stroke="black" points="481.39,-1655.62 485.96,-1665.17 488.35,-1654.85 481.39,-1655.62"/>
<text text-anchor="start" x="417.3" y="-1462.36" font-family="Times New Roman,serif" font-size="14.00">member</text>
</g>
<!-- Entity46 -->
<g id="node37" class="node entity">
<title>Entity46</title>
<ellipse fill="none" stroke="black" cx="1267.8" cy="-725.12" rx="46.29" ry="18"/>
<text text-anchor="start" x="1240.3" y="-721.42" font-family="Times New Roman,serif" font-size="14.00">van braun</text>
</g>
<!-- Entity46&#45;&gt;Entity37 -->
<g id="edge33" class="edge verb">
<title>Entity46&#45;&gt;Entity37</title>
<path fill="none" stroke="black" d="M1229.79,-735.63C1154.91,-756.33 987.82,-802.53 898.5,-827.23"/>
<polygon fill="black" stroke="black" points="897.5,-823.87 888.79,-829.91 899.36,-830.62 897.5,-823.87"/>
<text text-anchor="start" x="1010.15" y="-785.23" font-family="Times New Roman,serif" font-size="14.00">employee</text>
</g>
<!-- Entity46&#45;&gt;Entity72 -->
<g id="edge64" class="edge verb">
<title>Entity46&#45;&gt;Entity72</title>
<path fill="none" stroke="black" d="M1285.78,-708.24C1304.7,-690.49 1334.68,-662.37 1356.33,-642.06"/>
<polygon fill="black" stroke="black" points="1358.99,-644.36 1363.89,-634.96 1354.21,-639.25 1358.99,-644.36"/>
<text text-anchor="start" x="1267.06" y="-678.95" font-family="Times New Roman,serif" font-size="14.00">employee</text>
</g>
<!-- Entity49 -->
<g id="node38" class="node entity">
<title>Entity49</title>
<ellipse fill="none" stroke="black" cx="49.01" cy="-1103.61" rx="49.29" ry="18"/>
<text text-anchor="start" x="19.01" y="-1099.91" font-family="Times New Roman,serif" font-size="14.00">adolf hitler</text>
</g>
<!-- Entity49&#45;&gt;Entity51 -->
<g id="edge34" class="edge verb">
<title>Entity49&#45;&gt;Entity51</title>
<path fill="none" stroke="black" d="M84.37,-1116.31C158.18,-1142.81 327.96,-1203.76 402.97,-1230.7"/>
<polygon fill="black" stroke="black" points="401.89,-1234.03 412.49,-1234.11 404.26,-1227.44 401.89,-1234.03"/>
<text text-anchor="start" x="209.67" y="-1177.3" font-family="Times New Roman,serif" font-size="14.00">create</text>
</g>
<!-- Entity50 -->
<g id="node40" class="node entity">
<title>Entity50</title>
<ellipse fill="none" stroke="black" cx="3306.1" cy="-3238.76" rx="37.89" ry="18"/>
<text text-anchor="start" x="3285.1" y="-3235.06" font-family="Times New Roman,serif" font-size="14.00">hunt oil</text>
</g>
<!-- Entity48 -->
<g id="node41" class="node entity">
<title>Entity48</title>
<ellipse fill="none" stroke="black" cx="2782.12" cy="-3238.75" rx="77.99" ry="18"/>
<text text-anchor="start" x="2730.12" y="-3235.05" font-family="Times New Roman,serif" font-size="14.00">dwight eisenhower</text>
</g>
<!-- Entity50&#45;&gt;Entity48 -->
<g id="edge37" class="edge verb">
<title>Entity50&#45;&gt;Entity48</title>
<path fill="none" stroke="black" d="M3267.99,-3238.76C3185.12,-3238.76 2986.67,-3238.76 2870.64,-3238.76"/>
<polygon fill="black" stroke="black" points="2870.37,-3235.26 2860.37,-3238.76 2870.37,-3242.26 2870.37,-3235.26"/>
<text text-anchor="start" x="3043.32" y="-3242.56" font-family="Times New Roman,serif" font-size="14.00">fund</text>
</g>
<!-- Entity48&#45;&gt;Entity53 -->
<g id="edge67" class="edge verb">
<title>Entity48&#45;&gt;Entity53</title>
<path fill="none" stroke="black" d="M2737.07,-3253.53C2651.19,-3281.71 2465.58,-3342.59 2386.55,-3368.52"/>
<polygon fill="black" stroke="black" points="2385.42,-3365.2 2377.01,-3371.65 2387.61,-3371.85 2385.42,-3365.2"/>
<text text-anchor="start" x="2551.81" y="-3314.83" font-family="Times New Roman,serif" font-size="14.00">is</text>
</g>
<!-- Entity24 -->
<g id="node43" class="node entity">
<title>Entity24</title>
<ellipse fill="none" stroke="black" cx="1700.51" cy="-6327.96" rx="73.39" ry="18"/>
<text text-anchor="start" x="1652.01" y="-6324.26" font-family="Times New Roman,serif" font-size="14.00">madam blavatsky</text>
</g>
<!-- Entity24&#45;&gt;Entity59 -->
<g id="edge42" class="edge verb">
<title>Entity24&#45;&gt;Entity59</title>
<path fill="none" stroke="black" d="M1698.97,-6309.83C1691.36,-6220.33 1657.79,-5825.48 1648.48,-5715.98"/>
<polygon fill="black" stroke="black" points="1651.96,-5715.68 1647.63,-5706.02 1644.99,-5716.28 1651.96,-5715.68"/>
<text text-anchor="start" x="1639.72" y="-6016.71" font-family="Times New Roman,serif" font-size="14.00">create</text>
</g>
<!-- Entity22 -->
<g id="node45" class="node entity">
<title>Entity22</title>
<ellipse fill="none" stroke="black" cx="1304.6" cy="-6243.97" rx="58.49" ry="18"/>
<text text-anchor="start" x="1267.6" y="-6240.27" font-family="Times New Roman,serif" font-size="14.00">rudolf steiner</text>
</g>
<!-- Entity22&#45;&gt;Entity59 -->
<g id="edge50" class="edge verb">
<title>Entity22&#45;&gt;Entity59</title>
<path fill="none" stroke="black" d="M1315.57,-6226.09C1365.34,-6145.03 1569.96,-5811.73 1629.65,-5714.49"/>
<polygon fill="black" stroke="black" points="1632.72,-5716.18 1634.97,-5705.83 1626.75,-5712.52 1632.72,-5716.18"/>
<text text-anchor="start" x="1426.61" y="-5974.09" font-family="Times New Roman,serif" font-size="14.00">member</text>
</g>
<!-- Entity60 -->
<g id="node46" class="node entity">
<title>Entity60</title>
<ellipse fill="none" stroke="black" cx="1045.63" cy="-6839.86" rx="102.08" ry="18"/>
<text text-anchor="start" x="975.13" y="-6836.16" font-family="Times New Roman,serif" font-size="14.00">anthroposophical society</text>
</g>
<!-- Entity22&#45;&gt;Entity60 -->
<g id="edge44" class="edge verb">
<title>Entity22&#45;&gt;Entity60</title>
<path fill="none" stroke="black" d="M1296.71,-6262.13C1259.59,-6347.54 1102.29,-6709.49 1057.55,-6812.44"/>
<polygon fill="black" stroke="black" points="1054.23,-6811.28 1053.46,-6821.84 1060.65,-6814.07 1054.23,-6811.28"/>
<text text-anchor="start" x="1143.13" y="-6541.08" font-family="Times New Roman,serif" font-size="14.00">create</text>
</g>
<!-- Entity31 -->
<g id="node47" class="node entity">
<title>Entity31</title>
<ellipse fill="none" stroke="black" cx="3905.24" cy="-3777.45" rx="69.59" ry="18"/>
<text text-anchor="start" x="3859.74" y="-3773.75" font-family="Times New Roman,serif" font-size="14.00">andrew breitbart</text>
</g>
<!-- Entity31&#45;&gt;Entity65 -->
<g id="edge46" class="edge verb">
<title>Entity31&#45;&gt;Entity65</title>
<path fill="none" stroke="black" d="M3925.68,-3760.09C3947,-3741.98 3980.59,-3713.45 4004.39,-3693.23"/>
<polygon fill="black" stroke="black" points="4006.7,-3695.86 4012.06,-3686.72 4002.17,-3690.52 4006.7,-3695.86"/>
<text text-anchor="start" x="3931.04" y="-3730.46" font-family="Times New Roman,serif" font-size="14.00">create</text>
</g>
<!-- Entity35 -->
<g id="node51" class="node entity">
<title>Entity35</title>
<ellipse fill="none" stroke="black" cx="2375.94" cy="-2353.66" rx="39.79" ry="18"/>
<text text-anchor="start" x="2353.44" y="-2349.96" font-family="Times New Roman,serif" font-size="14.00">crowley</text>
</g>
<!-- Entity70 -->
<g id="node52" class="node entity">
<title>Entity70</title>
<ellipse fill="none" stroke="black" cx="2463.66" cy="-2465.64" rx="38.99" ry="18"/>
<text text-anchor="start" x="2441.66" y="-2461.94" font-family="Times New Roman,serif" font-size="14.00">x magic</text>
</g>
<!-- Entity35&#45;&gt;Entity70 -->
<g id="edge53" class="edge verb">
<title>Entity35&#45;&gt;Entity70</title>
<path fill="none" stroke="black" d="M2389.26,-2370.67C2403.82,-2389.25 2427.28,-2419.2 2443.96,-2440.49"/>
<polygon fill="black" stroke="black" points="2441.29,-2442.76 2450.21,-2448.47 2446.8,-2438.44 2441.29,-2442.76"/>
<text text-anchor="start" x="2370.61" y="-2409.38" font-family="Times New Roman,serif" font-size="14.00">member</text>
</g>
<!-- Entity44 -->
<g id="node55" class="node entity">
<title>Entity44</title>
<ellipse fill="none" stroke="black" cx="1513.94" cy="-3813.66" rx="53.89" ry="18"/>
<text text-anchor="start" x="1480.44" y="-3809.96" font-family="Times New Roman,serif" font-size="14.00">black magic</text>
</g>
<!-- Entity71 -->
<g id="node56" class="node entity">
<title>Entity71</title>
<ellipse fill="none" stroke="black" cx="1601.66" cy="-3925.64" rx="28.7" ry="18"/>
<text text-anchor="start" x="1587.66" y="-3921.94" font-family="Times New Roman,serif" font-size="14.00">x left</text>
</g>
<!-- Entity44&#45;&gt;Entity71 -->
<g id="edge56" class="edge verb">
<title>Entity44&#45;&gt;Entity71</title>
<path fill="none" stroke="black" d="M1527.64,-3831.16C1542.45,-3850.05 1566.14,-3880.29 1582.72,-3901.45"/>
<polygon fill="black" stroke="black" points="1579.98,-3903.64 1588.9,-3909.36 1585.49,-3899.32 1579.98,-3903.64"/>
<text text-anchor="start" x="1509.18" y="-3870.11" font-family="Times New Roman,serif" font-size="14.00">member</text>
</g>
</g>
</svg>
