<?xml version="1.0" encoding="UTF-8" standalone="no"?>
<?xml-stylesheet href="../styles.css" type="text/css"?>
<!DOCTYPE svg PUBLIC "-//W3C//DTD SVG 1.1//EN"
 "http://www.w3.org/Graphics/SVG/1.1/DTD/svg11.dtd">
<!-- Generated by graphviz version 2.47.3 (20210619.1520)
 -->
<!-- Title: G Pages: 1 -->
<svg width="4742pt" height="4589pt"
 viewBox="0.00 0.00 4742.00 4589.00" xmlns="http://www.w3.org/2000/svg" xmlns:xlink="http://www.w3.org/1999/xlink">
<g id="graph0" class="graph" transform="scale(1 1) rotate(0) translate(4 4585)">
<title>G</title>
<polygon fill="white" stroke="transparent" points="-4,4 -4,-4585 4738,-4585 4738,4 -4,4"/>
<!-- Entity5 -->
<g id="node1" class="node entity">
<title>Entity5</title>
<ellipse fill="none" stroke="black" cx="1659.31" cy="-2163.36" rx="75.29" ry="18"/>
<text text-anchor="start" x="1609.31" y="-2159.66" font-family="Times New Roman,serif" font-size="14.00">lee harvey oswald</text>
</g>
<!-- Entity7 -->
<g id="node2" class="node entity">
<title>Entity7</title>
<ellipse fill="none" stroke="black" cx="2037.02" cy="-2771.72" rx="64.19" ry="18"/>
<text text-anchor="start" x="1995.52" y="-2768.02" font-family="Times New Roman,serif" font-size="14.00">john f kennedy</text>
</g>
<!-- Entity5&#45;&gt;Entity7 -->
<g id="edge1" class="edge verb">
<title>Entity5&#45;&gt;Entity7</title>
<path fill="none" stroke="black" d="M1670.41,-2181.24C1724.05,-2267.64 1956.46,-2641.98 2020.58,-2745.25"/>
<polygon fill="black" stroke="black" points="2017.67,-2747.19 2025.92,-2753.84 2023.62,-2743.5 2017.67,-2747.19"/>
<text text-anchor="start" x="1783.5" y="-2467.04" font-family="Times New Roman,serif" font-size="14.00">assassinate</text>
</g>
<!-- Entity45 -->
<g id="node14" class="node entity">
<title>Entity45</title>
<ellipse fill="none" stroke="black" cx="1401.06" cy="-1558.19" rx="59.29" ry="18"/>
<text text-anchor="start" x="1363.56" y="-1554.49" font-family="Times New Roman,serif" font-size="14.00">guy bannister</text>
</g>
<!-- Entity5&#45;&gt;Entity45 -->
<g id="edge9" class="edge verb">
<title>Entity5&#45;&gt;Entity45</title>
<path fill="none" stroke="black" d="M1651.58,-2145.25C1614.75,-2058.94 1457.01,-1689.31 1412.68,-1585.44"/>
<polygon fill="black" stroke="black" points="1415.9,-1584.06 1408.76,-1576.24 1409.46,-1586.81 1415.9,-1584.06"/>
<text text-anchor="start" x="1478.13" y="-1869.14" font-family="Times New Roman,serif" font-size="14.00">employee</text>
</g>
<!-- Entity53 -->
<g id="node13" class="node entity">
<title>Entity53</title>
<ellipse fill="none" stroke="black" cx="2384.79" cy="-3260.59" rx="31.4" ry="18"/>
<text text-anchor="start" x="2368.79" y="-3256.89" font-family="Times New Roman,serif" font-size="14.00">potus</text>
</g>
<!-- Entity7&#45;&gt;Entity53 -->
<g id="edge41" class="edge verb">
<title>Entity7&#45;&gt;Entity53</title>
<path fill="none" stroke="black" d="M2049.6,-2789.41C2102.28,-2863.47 2305.26,-3148.81 2366.92,-3235.48"/>
<polygon fill="black" stroke="black" points="2364.11,-3237.57 2372.76,-3243.69 2369.82,-3233.51 2364.11,-3237.57"/>
<text text-anchor="start" x="2198.26" y="-3016.24" font-family="Times New Roman,serif" font-size="14.00">is</text>
</g>
<!-- Entity2 -->
<g id="node3" class="node entity">
<title>Entity2</title>
<ellipse fill="none" stroke="black" cx="4669.55" cy="-1292.56" rx="64.19" ry="18"/>
<text text-anchor="start" x="4628.05" y="-1288.86" font-family="Times New Roman,serif" font-size="14.00">andre puharich</text>
</g>
<!-- Entity1 -->
<g id="node4" class="node entity">
<title>Entity1</title>
<ellipse fill="none" stroke="black" cx="4226.32" cy="-1517.73" rx="41.69" ry="18"/>
<text text-anchor="start" x="4202.32" y="-1514.03" font-family="Times New Roman,serif" font-size="14.00">uri geller</text>
</g>
<!-- Entity2&#45;&gt;Entity1 -->
<g id="edge2" class="edge verb">
<title>Entity2&#45;&gt;Entity1</title>
<path fill="none" stroke="black" d="M4638.38,-1308.4C4558.61,-1348.92 4347.38,-1456.23 4262.45,-1499.38"/>
<polygon fill="black" stroke="black" points="4260.77,-1496.3 4253.44,-1503.95 4263.94,-1502.55 4260.77,-1496.3"/>
<text text-anchor="start" x="4398.41" y="-1407.69" font-family="Times New Roman,serif" font-size="14.00">sponsore</text>
</g>
<!-- Entity9 -->
<g id="node8" class="node entity">
<title>Entity9</title>
<ellipse fill="none" stroke="black" cx="3838.67" cy="-1292.61" rx="38.19" ry="18"/>
<text text-anchor="start" x="3817.17" y="-1288.91" font-family="Times New Roman,serif" font-size="14.00">the nine</text>
</g>
<!-- Entity1&#45;&gt;Entity9 -->
<g id="edge10" class="edge verb">
<title>Entity1&#45;&gt;Entity9</title>
<path fill="none" stroke="black" d="M4201.19,-1503.13C4133.55,-1463.86 3947.7,-1355.92 3871.71,-1311.79"/>
<polygon fill="black" stroke="black" points="3873.41,-1308.73 3863,-1306.74 3869.89,-1314.78 3873.41,-1308.73"/>
<text text-anchor="start" x="4036.45" y="-1411.26" font-family="Times New Roman,serif" font-size="14.00">claiemd to channel</text>
</g>
<!-- Entity10 -->
<g id="node5" class="node entity">
<title>Entity10</title>
<ellipse fill="none" stroke="black" cx="2071.71" cy="-3402.83" rx="56.59" ry="18"/>
<text text-anchor="start" x="2036.21" y="-3399.13" font-family="Times New Roman,serif" font-size="14.00">harry truman</text>
</g>
<!-- Entity57 -->
<g id="node6" class="node entity">
<title>Entity57</title>
<ellipse fill="none" stroke="black" cx="2040.08" cy="-3510.81" rx="55.79" ry="18"/>
<text text-anchor="start" x="2005.08" y="-3507.11" font-family="Times New Roman,serif" font-size="14.00">freemasonry</text>
</g>
<!-- Entity10&#45;&gt;Entity57 -->
<g id="edge3" class="edge verb">
<title>Entity10&#45;&gt;Entity57</title>
<path fill="none" stroke="black" d="M2066.34,-3421.14C2061.38,-3438.08 2053.94,-3463.48 2048.24,-3482.93"/>
<polygon fill="black" stroke="black" points="2044.81,-3482.18 2045.36,-3492.76 2051.53,-3484.15 2044.81,-3482.18"/>
<text text-anchor="start" x="2011.29" y="-3455.84" font-family="Times New Roman,serif" font-size="14.00">member</text>
</g>
<!-- Entity10&#45;&gt;Entity53 -->
<g id="edge15" class="edge verb">
<title>Entity10&#45;&gt;Entity53</title>
<path fill="none" stroke="black" d="M2104.33,-3388.01C2164.09,-3360.86 2290.55,-3303.4 2351.1,-3275.9"/>
<polygon fill="black" stroke="black" points="2352.57,-3279.07 2360.23,-3271.75 2349.68,-3272.7 2352.57,-3279.07"/>
<text text-anchor="start" x="2217.71" y="-3335.75" font-family="Times New Roman,serif" font-size="14.00">is</text>
</g>
<!-- Entity3 -->
<g id="node7" class="node entity">
<title>Entity3</title>
<ellipse fill="none" stroke="black" cx="3274.73" cy="-1238.96" rx="65.79" ry="18"/>
<text text-anchor="start" x="3232.23" y="-1235.26" font-family="Times New Roman,serif" font-size="14.00">arthur m young</text>
</g>
<!-- Entity3&#45;&gt;Entity9 -->
<g id="edge4" class="edge verb">
<title>Entity3&#45;&gt;Entity9</title>
<path fill="none" stroke="black" d="M3336.97,-1244.88C3450.51,-1255.68 3688.95,-1278.37 3790.85,-1288.06"/>
<polygon fill="black" stroke="black" points="3790.57,-1291.55 3800.85,-1289.01 3791.23,-1284.58 3790.57,-1291.55"/>
<text text-anchor="start" x="3517.91" y="-1270.27" font-family="Times New Roman,serif" font-size="14.00">member</text>
</g>
<!-- Entity55 -->
<g id="node11" class="node entity">
<title>Entity55</title>
<ellipse fill="none" stroke="black" cx="3515.89" cy="-1949.72" rx="77.19" ry="18"/>
<text text-anchor="start" x="3464.39" y="-1946.02" font-family="Times New Roman,serif" font-size="14.00">psi&#45;consciousness</text>
</g>
<!-- Entity3&#45;&gt;Entity55 -->
<g id="edge17" class="edge verb">
<title>Entity3&#45;&gt;Entity55</title>
<path fill="none" stroke="black" d="M3280.81,-1256.89C3313.33,-1352.71 3466.62,-1804.51 3506.43,-1921.83"/>
<polygon fill="black" stroke="black" points="3503.19,-1923.18 3509.72,-1931.52 3509.82,-1920.93 3503.19,-1923.18"/>
<text text-anchor="start" x="3362.62" y="-1593.16" font-family="Times New Roman,serif" font-size="14.00">study</text>
</g>
<!-- Entity56 -->
<g id="node39" class="node entity">
<title>Entity56</title>
<ellipse fill="none" stroke="black" cx="2709.74" cy="-806.27" rx="53.89" ry="18"/>
<text text-anchor="start" x="2676.24" y="-802.57" font-family="Times New Roman,serif" font-size="14.00">bell aviation</text>
</g>
<!-- Entity3&#45;&gt;Entity56 -->
<g id="edge35" class="edge verb">
<title>Entity3&#45;&gt;Entity56</title>
<path fill="none" stroke="black" d="M3252.58,-1222C3164.66,-1154.67 2840.18,-906.17 2739.64,-829.17"/>
<polygon fill="black" stroke="black" points="2741.49,-826.19 2731.43,-822.89 2737.24,-831.75 2741.49,-826.19"/>
<text text-anchor="start" x="2962.11" y="-1029.39" font-family="Times New Roman,serif" font-size="14.00">create</text>
</g>
<!-- Entity52 -->
<g id="node9" class="node entity">
<title>Entity52</title>
<ellipse fill="none" stroke="black" cx="4172.83" cy="-812.64" rx="94.48" ry="18"/>
<text text-anchor="start" x="4108.33" y="-808.94" font-family="Times New Roman,serif" font-size="14.00">egyptian gods in a ship</text>
</g>
<!-- Entity9&#45;&gt;Entity52 -->
<g id="edge5" class="edge verb">
<title>Entity9&#45;&gt;Entity52</title>
<path fill="none" stroke="black" d="M3850.76,-1275.24C3901.1,-1202.94 4094.25,-925.52 4154.66,-838.74"/>
<polygon fill="black" stroke="black" points="4157.56,-840.7 4160.4,-830.49 4151.82,-836.7 4157.56,-840.7"/>
<text text-anchor="start" x="3972.71" y="-1060.79" font-family="Times New Roman,serif" font-size="14.00">claim</text>
</g>
<!-- Entity6 -->
<g id="node10" class="node entity">
<title>Entity6</title>
<ellipse fill="none" stroke="black" cx="4096.57" cy="-2058.8" rx="68.49" ry="18"/>
<text text-anchor="start" x="4052.07" y="-2055.1" font-family="Times New Roman,serif" font-size="14.00">jeffrey mishlove</text>
</g>
<!-- Entity6&#45;&gt;Entity1 -->
<g id="edge6" class="edge verb">
<title>Entity6&#45;&gt;Entity1</title>
<path fill="none" stroke="black" d="M4100.89,-2040.8C4119.92,-1961.44 4196.4,-1642.52 4219.61,-1545.73"/>
<polygon fill="black" stroke="black" points="4223.06,-1546.34 4221.99,-1535.8 4216.26,-1544.71 4223.06,-1546.34"/>
<text text-anchor="start" x="4112.25" y="-1797.06" font-family="Times New Roman,serif" font-size="14.00">promote</text>
</g>
<!-- Entity6&#45;&gt;Entity55 -->
<g id="edge7" class="edge verb">
<title>Entity6&#45;&gt;Entity55</title>
<path fill="none" stroke="black" d="M4048.79,-2045.81C3948.94,-2023.56 3717.33,-1979.77 3594.95,-1959.71"/>
<polygon fill="black" stroke="black" points="3595.32,-1956.22 3584.89,-1958.07 3594.2,-1963.13 3595.32,-1956.22"/>
<text text-anchor="start" x="3790.87" y="-1991.56" font-family="Times New Roman,serif" font-size="14.00">study</text>
</g>
<!-- Entity6&#45;&gt;Entity55 -->
<g id="edge22" class="edge verb">
<title>Entity6&#45;&gt;Entity55</title>
<path fill="none" stroke="black" d="M4034.17,-2051.51C3922.06,-2033.7 3687.92,-1989.72 3576.86,-1965.61"/>
<polygon fill="black" stroke="black" points="3577.34,-1962.14 3566.83,-1963.41 3575.85,-1968.97 3577.34,-1962.14"/>
<text text-anchor="start" x="3741.52" y="-2012.36" font-family="Times New Roman,serif" font-size="14.00">investigates</text>
</g>
<!-- Entity13 -->
<g id="node12" class="node entity">
<title>Entity13</title>
<ellipse fill="none" stroke="black" cx="2336.76" cy="-3724.47" rx="58.49" ry="18"/>
<text text-anchor="start" x="2299.76" y="-3720.77" font-family="Times New Roman,serif" font-size="14.00">richard nixon</text>
</g>
<!-- Entity13&#45;&gt;Entity53 -->
<g id="edge8" class="edge verb">
<title>Entity13&#45;&gt;Entity53</title>
<path fill="none" stroke="black" d="M2338.64,-3706.28C2346.01,-3635.12 2372.92,-3375.2 2381.87,-3288.76"/>
<polygon fill="black" stroke="black" points="2385.37,-3288.96 2382.92,-3278.65 2378.4,-3288.24 2385.37,-3288.96"/>
<text text-anchor="start" x="2350.25" y="-3501.32" font-family="Times New Roman,serif" font-size="14.00">is</text>
</g>
<!-- Entity74 -->
<g id="node61" class="node entity">
<title>Entity74</title>
<ellipse fill="none" stroke="black" cx="1360.04" cy="-1051.73" rx="38.99" ry="18"/>
<text text-anchor="start" x="1338.04" y="-1048.03" font-family="Times New Roman,serif" font-size="14.00">far right</text>
</g>
<!-- Entity45&#45;&gt;Entity74 -->
<g id="edge66" class="edge verb">
<title>Entity45&#45;&gt;Entity74</title>
<path fill="none" stroke="black" d="M1399.6,-1540.17C1393.47,-1464.49 1369.79,-1172.07 1362.32,-1079.79"/>
<polygon fill="black" stroke="black" points="1365.8,-1079.48 1361.51,-1069.8 1358.82,-1080.05 1365.8,-1079.48"/>
<text text-anchor="start" x="1334.96" y="-1313.78" font-family="Times New Roman,serif" font-size="14.00">member</text>
</g>
<!-- Entity4 -->
<g id="node15" class="node entity">
<title>Entity4</title>
<ellipse fill="none" stroke="black" cx="3877.7" cy="-1400.54" rx="74.99" ry="18"/>
<text text-anchor="start" x="3828.2" y="-1396.84" font-family="Times New Roman,serif" font-size="14.00">gene roddenberry</text>
</g>
<!-- Entity4&#45;&gt;Entity9 -->
<g id="edge11" class="edge verb">
<title>Entity4&#45;&gt;Entity9</title>
<path fill="none" stroke="black" d="M3871.08,-1382.23C3864.93,-1365.23 3855.69,-1339.67 3848.65,-1320.2"/>
<polygon fill="black" stroke="black" points="3851.88,-1318.86 3845.19,-1310.65 3845.3,-1321.24 3851.88,-1318.86"/>
<text text-anchor="start" x="3755.86" y="-1355.01" font-family="Times New Roman,serif" font-size="14.00">claiemd to channel</text>
</g>
<!-- Entity21 -->
<g id="node16" class="node entity">
<title>Entity21</title>
<ellipse fill="none" stroke="black" cx="2775.59" cy="-3260.63" rx="35.19" ry="18"/>
<text text-anchor="start" x="2756.59" y="-3256.93" font-family="Times New Roman,serif" font-size="14.00">obama</text>
</g>
<!-- Entity21&#45;&gt;Entity53 -->
<g id="edge12" class="edge verb">
<title>Entity21&#45;&gt;Entity53</title>
<path fill="none" stroke="black" d="M2740.22,-3260.62C2667.99,-3260.62 2503.85,-3260.6 2426.54,-3260.6"/>
<polygon fill="black" stroke="black" points="2426.23,-3257.1 2416.23,-3260.6 2426.23,-3264.1 2426.23,-3257.1"/>
<text text-anchor="start" x="2573.38" y="-3264.41" font-family="Times New Roman,serif" font-size="14.00">is</text>
</g>
<!-- Entity14 -->
<g id="node17" class="node entity">
<title>Entity14</title>
<ellipse fill="none" stroke="black" cx="2745.88" cy="-2995.44" rx="31.4" ry="18"/>
<text text-anchor="start" x="2729.88" y="-2991.74" font-family="Times New Roman,serif" font-size="14.00">carter</text>
</g>
<!-- Entity14&#45;&gt;Entity53 -->
<g id="edge36" class="edge verb">
<title>Entity14&#45;&gt;Entity53</title>
<path fill="none" stroke="black" d="M2726.47,-3009.69C2666.34,-3053.85 2483.04,-3188.45 2412.68,-3240.11"/>
<polygon fill="black" stroke="black" points="2410.28,-3237.53 2404.3,-3246.27 2414.43,-3243.17 2410.28,-3237.53"/>
<text text-anchor="start" x="2559.58" y="-3128.7" font-family="Times New Roman,serif" font-size="14.00">is</text>
</g>
<!-- Entity54 -->
<g id="node18" class="node entity">
<title>Entity54</title>
<ellipse fill="none" stroke="black" cx="3077.75" cy="-2755.87" rx="27" ry="18"/>
<text text-anchor="start" x="3068.25" y="-2752.17" font-family="Times New Roman,serif" font-size="14.00">ufo</text>
</g>
<!-- Entity14&#45;&gt;Entity54 -->
<g id="edge13" class="edge verb">
<title>Entity14&#45;&gt;Entity54</title>
<path fill="none" stroke="black" d="M2765.65,-2981.17C2822.42,-2940.18 2986.05,-2822.06 3050.86,-2775.28"/>
<polygon fill="black" stroke="black" points="3053.27,-2777.86 3059.33,-2769.17 3049.17,-2772.18 3053.27,-2777.86"/>
<text text-anchor="start" x="2866.25" y="-2882.02" font-family="Times New Roman,serif" font-size="14.00">witness</text>
</g>
<!-- Entity18 -->
<g id="node19" class="node entity">
<title>Entity18</title>
<ellipse fill="none" stroke="black" cx="1936.86" cy="-3084.28" rx="63.89" ry="18"/>
<text text-anchor="start" x="1895.86" y="-3080.58" font-family="Times New Roman,serif" font-size="14.00">george w bush</text>
</g>
<!-- Entity18&#45;&gt;Entity53 -->
<g id="edge14" class="edge verb">
<title>Entity18&#45;&gt;Entity53</title>
<path fill="none" stroke="black" d="M1974.28,-3099.01C2059.34,-3132.49 2266.27,-3213.94 2349.38,-3246.66"/>
<polygon fill="black" stroke="black" points="2348.29,-3249.99 2358.88,-3250.4 2350.86,-3243.48 2348.29,-3249.99"/>
<text text-anchor="start" x="2151.83" y="-3176.63" font-family="Times New Roman,serif" font-size="14.00">is</text>
</g>
<!-- Entity11 -->
<g id="node20" class="node entity">
<title>Entity11</title>
<ellipse fill="none" stroke="black" cx="1914.85" cy="-3192.24" rx="68.49" ry="18"/>
<text text-anchor="start" x="1870.35" y="-3188.54" font-family="Times New Roman,serif" font-size="14.00">george hw bush</text>
</g>
<!-- Entity11&#45;&gt;Entity53 -->
<g id="edge39" class="edge verb">
<title>Entity11&#45;&gt;Entity53</title>
<path fill="none" stroke="black" d="M1974.84,-3200.96C2072.01,-3215.1 2261.29,-3242.63 2344.22,-3254.69"/>
<polygon fill="black" stroke="black" points="2343.86,-3258.18 2354.26,-3256.15 2344.87,-3251.25 2343.86,-3258.18"/>
<text text-anchor="start" x="2149.53" y="-3231.63" font-family="Times New Roman,serif" font-size="14.00">is</text>
</g>
<!-- Entity11&#45;&gt;Entity18 -->
<g id="edge16" class="edge verb">
<title>Entity11&#45;&gt;Entity18</title>
<path fill="none" stroke="black" d="M1918.58,-3173.92C1922.03,-3156.99 1927.21,-3131.59 1931.18,-3112.15"/>
<polygon fill="black" stroke="black" points="1934.61,-3112.82 1933.18,-3102.33 1927.75,-3111.42 1934.61,-3112.82"/>
<text text-anchor="start" x="1892.88" y="-3146.84" font-family="Times New Roman,serif" font-size="14.00">father</text>
</g>
<!-- Entity17 -->
<g id="node21" class="node entity">
<title>Entity17</title>
<ellipse fill="none" stroke="black" cx="3382.82" cy="-2546.56" rx="27" ry="18"/>
<text text-anchor="start" x="3374.82" y="-2542.86" font-family="Times New Roman,serif" font-size="14.00">cia</text>
</g>
<!-- Entity17&#45;&gt;Entity55 -->
<g id="edge18" class="edge verb">
<title>Entity17&#45;&gt;Entity55</title>
<path fill="none" stroke="black" d="M3386.8,-2528.7C3405.7,-2443.93 3486.39,-2082.03 3509.62,-1977.87"/>
<polygon fill="black" stroke="black" points="3513.1,-1978.33 3511.86,-1967.81 3506.27,-1976.81 3513.1,-1978.33"/>
<text text-anchor="start" x="3384.21" y="-2257.09" font-family="Times New Roman,serif" font-size="14.00">investigates</text>
</g>
<!-- Entity17&#45;&gt;Entity54 -->
<g id="edge38" class="edge verb">
<title>Entity17&#45;&gt;Entity54</title>
<path fill="none" stroke="black" d="M3363.74,-2559.65C3311.52,-2595.48 3166.13,-2695.23 3105.19,-2737.04"/>
<polygon fill="black" stroke="black" points="3103.09,-2734.23 3096.83,-2742.78 3107.05,-2740.01 3103.09,-2734.23"/>
<text text-anchor="start" x="3170.46" y="-2652.15" font-family="Times New Roman,serif" font-size="14.00">investigates</text>
</g>
<!-- Entity16 -->
<g id="node22" class="node entity">
<title>Entity16</title>
<ellipse fill="none" stroke="black" cx="4066.03" cy="-2166.77" rx="63.89" ry="18"/>
<text text-anchor="start" x="4025.03" y="-2163.07" font-family="Times New Roman,serif" font-size="14.00">robert bigelow</text>
</g>
<!-- Entity16&#45;&gt;Entity6 -->
<g id="edge19" class="edge verb">
<title>Entity16&#45;&gt;Entity6</title>
<path fill="none" stroke="black" d="M4071.21,-2148.45C4076,-2131.52 4083.19,-2106.12 4088.69,-2086.67"/>
<polygon fill="black" stroke="black" points="4092.11,-2087.42 4091.47,-2076.85 4085.38,-2085.52 4092.11,-2087.42"/>
<text text-anchor="start" x="4047.95" y="-2121.36" font-family="Times New Roman,serif" font-size="14.00">funds</text>
</g>
<!-- Entity16&#45;&gt;Entity55 -->
<g id="edge21" class="edge verb">
<title>Entity16&#45;&gt;Entity55</title>
<path fill="none" stroke="black" d="M4028.65,-2152.02C3931.93,-2113.86 3673.46,-2011.89 3564.94,-1969.07"/>
<polygon fill="black" stroke="black" points="3566.12,-1965.78 3555.53,-1965.36 3563.55,-1972.29 3566.12,-1965.78"/>
<text text-anchor="start" x="3732.8" y="-2064.35" font-family="Times New Roman,serif" font-size="14.00">investigates</text>
</g>
<!-- Entity25 -->
<g id="node23" class="node entity">
<title>Entity25</title>
<ellipse fill="none" stroke="black" cx="3690.86" cy="-4042.38" rx="58.49" ry="18"/>
<text text-anchor="start" x="3653.86" y="-4038.68" font-family="Times New Roman,serif" font-size="14.00">steve bannon</text>
</g>
<!-- Entity61 -->
<g id="node24" class="node entity">
<title>Entity61</title>
<ellipse fill="none" stroke="black" cx="3837.09" cy="-4455.07" rx="35.19" ry="18"/>
<text text-anchor="start" x="3818.09" y="-4451.37" font-family="Times New Roman,serif" font-size="14.00">gurgev</text>
</g>
<!-- Entity25&#45;&gt;Entity61 -->
<g id="edge20" class="edge verb">
<title>Entity25&#45;&gt;Entity61</title>
<path fill="none" stroke="black" d="M3697.23,-4060.37C3720.28,-4125.4 3799.33,-4348.51 3827.23,-4427.27"/>
<polygon fill="black" stroke="black" points="3824.04,-4428.72 3830.67,-4436.97 3830.63,-4426.38 3824.04,-4428.72"/>
<text text-anchor="start" x="3731.23" y="-4247.62" font-family="Times New Roman,serif" font-size="14.00">study</text>
</g>
<!-- Entity8 -->
<g id="node25" class="node entity">
<title>Entity8</title>
<ellipse fill="none" stroke="black" cx="3065.87" cy="-3525.91" rx="59.59" ry="18"/>
<text text-anchor="start" x="3027.87" y="-3522.21" font-family="Times New Roman,serif" font-size="14.00">donald trump</text>
</g>
<!-- Entity25&#45;&gt;Entity8 -->
<g id="edge23" class="edge verb">
<title>Entity25&#45;&gt;Entity8</title>
<path fill="none" stroke="black" d="M3673.75,-4024.99C3588.74,-3947.68 3212.1,-3636.17 3098.42,-3548.76"/>
<polygon fill="black" stroke="black" points="3100.46,-3545.91 3090.39,-3542.62 3096.22,-3551.47 3100.46,-3545.91"/>
<text text-anchor="start" x="3338.09" y="-3775.67" font-family="Times New Roman,serif" font-size="14.00">promote</text>
</g>
<!-- Entity25&#45;&gt;Entity8 -->
<g id="edge29" class="edge verb">
<title>Entity25&#45;&gt;Entity8</title>
<path fill="none" stroke="black" d="M3666.5,-4025.8C3566.83,-3950.28 3191,-3639.81 3090.61,-3550.17"/>
<polygon fill="black" stroke="black" points="3092.85,-3547.48 3083.07,-3543.39 3088.16,-3552.68 3092.85,-3547.48"/>
<text text-anchor="start" x="3342.56" y="-3791.78" font-family="Times New Roman,serif" font-size="14.00">advise</text>
</g>
<!-- Entity65 -->
<g id="node48" class="node entity">
<title>Entity65</title>
<ellipse fill="none" stroke="black" cx="3360.95" cy="-3934.34" rx="61.99" ry="18"/>
<text text-anchor="start" x="3321.45" y="-3930.64" font-family="Times New Roman,serif" font-size="14.00">breitbart news</text>
</g>
<!-- Entity25&#45;&gt;Entity65 -->
<g id="edge52" class="edge verb">
<title>Entity25&#45;&gt;Entity65</title>
<path fill="none" stroke="black" d="M3650.73,-4029.24C3590.71,-4009.58 3477.57,-3972.53 3411.82,-3951"/>
<polygon fill="black" stroke="black" points="3412.68,-3947.6 3402.08,-3947.81 3410.5,-3954.25 3412.68,-3947.6"/>
<text text-anchor="start" x="3497.28" y="-3993.92" font-family="Times New Roman,serif" font-size="14.00">create</text>
</g>
<!-- Entity63 -->
<g id="node49" class="node entity">
<title>Entity63</title>
<ellipse fill="none" stroke="black" cx="3572.43" cy="-4563.04" rx="53.09" ry="18"/>
<text text-anchor="start" x="3539.43" y="-4559.34" font-family="Times New Roman,serif" font-size="14.00">biosphere 2</text>
</g>
<!-- Entity25&#45;&gt;Entity63 -->
<g id="edge47" class="edge verb">
<title>Entity25&#45;&gt;Entity63</title>
<path fill="none" stroke="black" d="M3686.71,-4060.6C3669.07,-4138.16 3600.18,-4441.04 3578.8,-4535.05"/>
<polygon fill="black" stroke="black" points="3575.35,-4534.44 3576.54,-4544.96 3582.17,-4535.99 3575.35,-4534.44"/>
<text text-anchor="start" x="3598.75" y="-4301.63" font-family="Times New Roman,serif" font-size="14.00">create</text>
</g>
<!-- Entity77 -->
<g id="node50" class="node entity">
<title>Entity77</title>
<ellipse fill="none" stroke="black" cx="4137.45" cy="-4415.45" rx="64.99" ry="18"/>
<text text-anchor="start" x="4095.45" y="-4411.75" font-family="Times New Roman,serif" font-size="14.00">goldman sachs</text>
</g>
<!-- Entity25&#45;&gt;Entity77 -->
<g id="edge49" class="edge verb">
<title>Entity25&#45;&gt;Entity77</title>
<path fill="none" stroke="black" d="M3711.21,-4059.38C3783.21,-4119.52 4026.02,-4322.37 4109.21,-4391.87"/>
<polygon fill="black" stroke="black" points="4107.06,-4394.63 4116.98,-4398.35 4111.55,-4389.26 4107.06,-4394.63"/>
<text text-anchor="start" x="3856.21" y="-4229.42" font-family="Times New Roman,serif" font-size="14.00">employee</text>
</g>
<!-- Entity64 -->
<g id="node53" class="node entity">
<title>Entity64</title>
<ellipse fill="none" stroke="black" cx="4135.5" cy="-4120.45" rx="38.19" ry="18"/>
<text text-anchor="start" x="4114" y="-4116.75" font-family="Times New Roman,serif" font-size="14.00">us navy</text>
</g>
<!-- Entity25&#45;&gt;Entity64 -->
<g id="edge54" class="edge verb">
<title>Entity25&#45;&gt;Entity64</title>
<path fill="none" stroke="black" d="M3741.86,-4051.33C3829.13,-4066.65 4005.74,-4097.66 4089.47,-4112.37"/>
<polygon fill="black" stroke="black" points="4088.99,-4115.84 4099.45,-4114.12 4090.21,-4108.94 4088.99,-4115.84"/>
<text text-anchor="start" x="3869.67" y="-4085.65" font-family="Times New Roman,serif" font-size="14.00">member</text>
</g>
<!-- Entity76 -->
<g id="node54" class="node entity">
<title>Entity76</title>
<ellipse fill="none" stroke="black" cx="4257.19" cy="-4292.47" rx="77.19" ry="18"/>
<text text-anchor="start" x="4205.69" y="-4288.77" font-family="Times New Roman,serif" font-size="14.00">hollywood movies</text>
</g>
<!-- Entity25&#45;&gt;Entity76 -->
<g id="edge55" class="edge verb">
<title>Entity25&#45;&gt;Entity76</title>
<path fill="none" stroke="black" d="M3724.59,-4057.27C3821.65,-4100.14 4101.74,-4223.82 4211.91,-4272.47"/>
<polygon fill="black" stroke="black" points="4210.54,-4275.7 4221.1,-4276.53 4213.37,-4269.29 4210.54,-4275.7"/>
<text text-anchor="start" x="3921.25" y="-4168.67" font-family="Times New Roman,serif" font-size="14.00">produce</text>
</g>
<!-- Entity8&#45;&gt;Entity53 -->
<g id="edge43" class="edge verb">
<title>Entity8&#45;&gt;Entity53</title>
<path fill="none" stroke="black" d="M3029.25,-3511.65C2910.58,-3465.42 2537.53,-3320.09 2420.36,-3274.45"/>
<polygon fill="black" stroke="black" points="2421.37,-3271.09 2410.78,-3270.72 2418.83,-3277.61 2421.37,-3271.09"/>
<text text-anchor="start" x="2714.81" y="-3396.85" font-family="Times New Roman,serif" font-size="14.00">is</text>
</g>
<!-- Entity30 -->
<g id="node28" class="node entity">
<title>Entity30</title>
<ellipse fill="none" stroke="black" cx="3413.26" cy="-3027.35" rx="50.09" ry="18"/>
<text text-anchor="start" x="3382.76" y="-3023.65" font-family="Times New Roman,serif" font-size="14.00">john trump</text>
</g>
<!-- Entity8&#45;&gt;Entity30 -->
<g id="edge25" class="edge verb">
<title>Entity8&#45;&gt;Entity30</title>
<path fill="none" stroke="black" d="M3078.23,-3508.17C3130.47,-3433.2 3333.21,-3142.24 3395.17,-3053.31"/>
<polygon fill="black" stroke="black" points="3398.2,-3055.09 3401.04,-3044.88 3392.46,-3051.09 3398.2,-3055.09"/>
<text text-anchor="start" x="3193.7" y="-3284.54" font-family="Times New Roman,serif" font-size="14.00">nephew</text>
</g>
<!-- Entity79 -->
<g id="node26" class="node entity">
<title>Entity79</title>
<ellipse fill="none" stroke="black" cx="2002.94" cy="-1746.66" rx="27" ry="18"/>
<text text-anchor="start" x="1992.94" y="-1742.96" font-family="Times New Roman,serif" font-size="14.00">foo</text>
</g>
<!-- Entity80 -->
<g id="node27" class="node entity">
<title>Entity80</title>
<ellipse fill="none" stroke="black" cx="2090.66" cy="-1858.64" rx="27" ry="18"/>
<text text-anchor="start" x="2080.66" y="-1854.94" font-family="Times New Roman,serif" font-size="14.00">baz</text>
</g>
<!-- Entity79&#45;&gt;Entity80 -->
<g id="edge24" class="edge verb">
<title>Entity79&#45;&gt;Entity80</title>
<path fill="none" stroke="black" d="M2015.51,-1762.7C2030.23,-1781.5 2054.76,-1812.82 2071.78,-1834.53"/>
<polygon fill="black" stroke="black" points="2069.19,-1836.91 2078.11,-1842.62 2074.7,-1832.59 2069.19,-1836.91"/>
<text text-anchor="start" x="2023.64" y="-1802.42" font-family="Times New Roman,serif" font-size="14.00">baz</text>
</g>
<!-- Entity30&#45;&gt;Entity17 -->
<g id="edge32" class="edge verb">
<title>Entity30&#45;&gt;Entity17</title>
<path fill="none" stroke="black" d="M3412.1,-3009.09C3407.47,-2935.9 3390.22,-2663.45 3384.6,-2574.7"/>
<polygon fill="black" stroke="black" points="3388.09,-2574.34 3383.96,-2564.58 3381.1,-2574.78 3388.09,-2574.34"/>
<text text-anchor="start" x="3352.35" y="-2795.69" font-family="Times New Roman,serif" font-size="14.00">member</text>
</g>
<!-- Entity67 -->
<g id="node29" class="node entity">
<title>Entity67</title>
<ellipse fill="none" stroke="black" cx="3883.01" cy="-3080.5" rx="50.89" ry="18"/>
<text text-anchor="start" x="3852.01" y="-3076.8" font-family="Times New Roman,serif" font-size="14.00">nikola tesla</text>
</g>
<!-- Entity30&#45;&gt;Entity67 -->
<g id="edge26" class="edge verb">
<title>Entity30&#45;&gt;Entity67</title>
<path fill="none" stroke="black" d="M3461.32,-3032.79C3548.1,-3042.61 3730.6,-3063.25 3824.49,-3073.88"/>
<polygon fill="black" stroke="black" points="3824.33,-3077.38 3834.66,-3075.03 3825.12,-3070.43 3824.33,-3077.38"/>
<text text-anchor="start" x="3611.91" y="-3057.13" font-family="Times New Roman,serif" font-size="14.00">study</text>
</g>
<!-- Entity26 -->
<g id="node30" class="node entity">
<title>Entity26</title>
<ellipse fill="none" stroke="black" cx="2352.74" cy="-2918.54" rx="53.89" ry="18"/>
<text text-anchor="start" x="2319.24" y="-2914.84" font-family="Times New Roman,serif" font-size="14.00">edgar casey</text>
</g>
<!-- Entity27 -->
<g id="node31" class="node entity">
<title>Entity27</title>
<ellipse fill="none" stroke="black" cx="2342.42" cy="-3026.63" rx="71.49" ry="18"/>
<text text-anchor="start" x="2295.42" y="-3022.93" font-family="Times New Roman,serif" font-size="14.00">woodrow wilson</text>
</g>
<!-- Entity26&#45;&gt;Entity27 -->
<g id="edge27" class="edge verb">
<title>Entity26&#45;&gt;Entity27</title>
<path fill="none" stroke="black" d="M2350.99,-2936.88C2349.38,-2953.75 2346.96,-2979.03 2345.11,-2998.46"/>
<polygon fill="black" stroke="black" points="2341.61,-2998.28 2344.14,-3008.57 2348.58,-2998.95 2341.61,-2998.28"/>
<text text-anchor="start" x="2312.05" y="-2971.47" font-family="Times New Roman,serif" font-size="14.00">advise</text>
</g>
<!-- Entity27&#45;&gt;Entity53 -->
<g id="edge45" class="edge verb">
<title>Entity27&#45;&gt;Entity53</title>
<path fill="none" stroke="black" d="M2345.74,-3044.99C2353.12,-3085.75 2370.92,-3184.02 2379.7,-3232.53"/>
<polygon fill="black" stroke="black" points="2376.31,-3233.42 2381.53,-3242.64 2383.2,-3232.18 2376.31,-3233.42"/>
<text text-anchor="start" x="2352.72" y="-3142.56" font-family="Times New Roman,serif" font-size="14.00">is</text>
</g>
<!-- Entity58 -->
<g id="node42" class="node entity">
<title>Entity58</title>
<ellipse fill="none" stroke="black" cx="2138.28" cy="-2461.61" rx="71.49" ry="18"/>
<text text-anchor="start" x="2091.28" y="-2457.91" font-family="Times New Roman,serif" font-size="14.00">leauge of nations</text>
</g>
<!-- Entity27&#45;&gt;Entity58 -->
<g id="edge40" class="edge verb">
<title>Entity27&#45;&gt;Entity58</title>
<path fill="none" stroke="black" d="M2335.86,-3008.47C2306.16,-2926.29 2184.25,-2588.86 2148.3,-2489.35"/>
<polygon fill="black" stroke="black" points="2151.51,-2487.92 2144.82,-2479.7 2144.92,-2490.3 2151.51,-2487.92"/>
<text text-anchor="start" x="2208.08" y="-2752.71" font-family="Times New Roman,serif" font-size="14.00">create</text>
</g>
<!-- Entity40 -->
<g id="node32" class="node entity">
<title>Entity40</title>
<ellipse fill="none" stroke="black" cx="2540.87" cy="-349.42" rx="57.69" ry="18"/>
<text text-anchor="start" x="2504.37" y="-345.72" font-family="Times New Roman,serif" font-size="14.00">michael pane</text>
</g>
<!-- Entity37 -->
<g id="node33" class="node entity">
<title>Entity37</title>
<ellipse fill="none" stroke="black" cx="2050.07" cy="-531.84" rx="74.99" ry="18"/>
<text text-anchor="start" x="2000.57" y="-528.14" font-family="Times New Roman,serif" font-size="14.00">walter dornberger</text>
</g>
<!-- Entity40&#45;&gt;Entity37 -->
<g id="edge28" class="edge verb">
<title>Entity40&#45;&gt;Entity37</title>
<path fill="none" stroke="black" d="M2503.58,-363.28C2416.33,-395.71 2198.86,-476.54 2100.18,-513.22"/>
<polygon fill="black" stroke="black" points="2098.88,-509.97 2090.72,-516.73 2101.32,-516.53 2098.88,-509.97"/>
<text text-anchor="start" x="2247.88" y="-442.05" font-family="Times New Roman,serif" font-size="14.00">employee</text>
</g>
<!-- Entity40&#45;&gt;Entity56 -->
<g id="edge57" class="edge verb">
<title>Entity40&#45;&gt;Entity56</title>
<path fill="none" stroke="black" d="M2547.49,-367.33C2573.39,-437.4 2667.97,-693.28 2699.46,-778.47"/>
<polygon fill="black" stroke="black" points="2696.23,-779.83 2702.98,-787.99 2702.79,-777.4 2696.23,-779.83"/>
<text text-anchor="start" x="2569.48" y="-576.7" font-family="Times New Roman,serif" font-size="14.00">employee</text>
</g>
<!-- Entity51 -->
<g id="node36" class="node entity">
<title>Entity51</title>
<ellipse fill="none" stroke="black" cx="1507.31" cy="-670.39" rx="32.49" ry="18"/>
<text text-anchor="start" x="1490.31" y="-666.69" font-family="Times New Roman,serif" font-size="14.00">nsdap</text>
</g>
<!-- Entity37&#45;&gt;Entity51 -->
<g id="edge31" class="edge verb">
<title>Entity37&#45;&gt;Entity51</title>
<path fill="none" stroke="black" d="M1998.52,-545C1890.65,-572.54 1643.17,-635.71 1546.77,-660.32"/>
<polygon fill="black" stroke="black" points="1545.67,-656.99 1536.84,-662.86 1547.4,-663.77 1545.67,-656.99"/>
<text text-anchor="start" x="1726.64" y="-606.46" font-family="Times New Roman,serif" font-size="14.00">member</text>
</g>
<!-- Entity37&#45;&gt;Entity56 -->
<g id="edge58" class="edge verb">
<title>Entity37&#45;&gt;Entity56</title>
<path fill="none" stroke="black" d="M2081.58,-548.36C2187.74,-597.52 2532.82,-741.28 2661.12,-790.05"/>
<polygon fill="black" stroke="black" points="2660.11,-793.41 2670.7,-793.67 2662.58,-786.86 2660.11,-793.41"/>
<text text-anchor="start" x="2317.35" y="-673" font-family="Times New Roman,serif" font-size="14.00">employee</text>
</g>
<!-- Entity37&#45;&gt;Entity56 -->
<g id="edge60" class="edge verb">
<title>Entity37&#45;&gt;Entity56</title>
<path fill="none" stroke="black" d="M2094.46,-546.46C2216.88,-592.72 2557.66,-734.54 2671.88,-786.84"/>
<polygon fill="black" stroke="black" points="2670.42,-790.02 2680.97,-791.03 2673.36,-783.66 2670.42,-790.02"/>
<text text-anchor="start" x="2304.17" y="-655.45" font-family="Times New Roman,serif" font-size="14.00">vice&#45;president</text>
</g>
<!-- Entity72 -->
<g id="node58" class="node entity">
<title>Entity72</title>
<ellipse fill="none" stroke="black" cx="1507.11" cy="-125.76" rx="90.98" ry="18"/>
<text text-anchor="start" x="1445.11" y="-122.06" font-family="Times New Roman,serif" font-size="14.00">nsdap rocket program</text>
</g>
<!-- Entity37&#45;&gt;Entity72 -->
<g id="edge61" class="edge verb">
<title>Entity37&#45;&gt;Entity72</title>
<path fill="none" stroke="black" d="M2027.09,-514.65C1940.99,-450.26 1637.43,-223.22 1538.52,-149.25"/>
<polygon fill="black" stroke="black" points="1540.51,-146.36 1530.41,-143.18 1536.32,-151.97 1540.51,-146.36"/>
<text text-anchor="start" x="1748.81" y="-335.75" font-family="Times New Roman,serif" font-size="14.00">create</text>
</g>
<!-- Entity73 -->
<g id="node60" class="node entity">
<title>Entity73</title>
<ellipse fill="none" stroke="black" cx="1476.16" cy="-444.66" rx="65.79" ry="18"/>
<text text-anchor="start" x="1433.66" y="-440.96" font-family="Times New Roman,serif" font-size="14.00">x series aircraft</text>
</g>
<!-- Entity37&#45;&gt;Entity73 -->
<g id="edge63" class="edge verb">
<title>Entity37&#45;&gt;Entity73</title>
<path fill="none" stroke="black" d="M1986.74,-522.22C1877.76,-505.67 1655.73,-471.94 1543.84,-454.94"/>
<polygon fill="black" stroke="black" points="1544.1,-451.44 1533.69,-453.4 1543.05,-458.36 1544.1,-451.44"/>
<text text-anchor="start" x="1731.29" y="-492.38" font-family="Times New Roman,serif" font-size="14.00">create</text>
</g>
<!-- Entity34 -->
<g id="node34" class="node entity">
<title>Entity34</title>
<ellipse fill="none" stroke="black" cx="876.09" cy="-3594.45" rx="90.98" ry="18"/>
<text text-anchor="start" x="814.09" y="-3590.75" font-family="Times New Roman,serif" font-size="14.00">emma hardinge&#45;britten</text>
</g>
<!-- Entity38 -->
<g id="node35" class="node entity">
<title>Entity38</title>
<ellipse fill="none" stroke="black" cx="1699.28" cy="-3402.39" rx="67.69" ry="18"/>
<text text-anchor="start" x="1655.28" y="-3398.69" font-family="Times New Roman,serif" font-size="14.00">abraham lincoln</text>
</g>
<!-- Entity34&#45;&gt;Entity38 -->
<g id="edge30" class="edge verb">
<title>Entity34&#45;&gt;Entity38</title>
<path fill="none" stroke="black" d="M934.96,-3580.71C1085.77,-3545.52 1484.87,-3452.41 1638.14,-3416.65"/>
<polygon fill="black" stroke="black" points="1639.37,-3419.96 1648.31,-3414.28 1637.78,-3413.14 1639.37,-3419.96"/>
<text text-anchor="start" x="1207.55" y="-3502.48" font-family="Times New Roman,serif" font-size="14.00">spokesperson</text>
</g>
<!-- Entity59 -->
<g id="node44" class="node entity">
<title>Entity59</title>
<ellipse fill="none" stroke="black" cx="708.52" cy="-3702.51" rx="85.29" ry="18"/>
<text text-anchor="start" x="651.02" y="-3698.81" font-family="Times New Roman,serif" font-size="14.00">theosophical society</text>
</g>
<!-- Entity34&#45;&gt;Entity59 -->
<g id="edge51" class="edge verb">
<title>Entity34&#45;&gt;Entity59</title>
<path fill="none" stroke="black" d="M849.17,-3611.81C820.5,-3630.3 775.02,-3659.63 743.57,-3679.91"/>
<polygon fill="black" stroke="black" points="741.61,-3677.01 735.1,-3685.37 745.4,-3682.89 741.61,-3677.01"/>
<text text-anchor="start" x="762.37" y="-3649.66" font-family="Times New Roman,serif" font-size="14.00">create</text>
</g>
<!-- Entity69 -->
<g id="node57" class="node entity">
<title>Entity69</title>
<ellipse fill="none" stroke="black" cx="449.29" cy="-4056.35" rx="55.79" ry="18"/>
<text text-anchor="start" x="414.29" y="-4052.65" font-family="Times New Roman,serif" font-size="14.00">orphic circle</text>
</g>
<!-- Entity34&#45;&gt;Entity69 -->
<g id="edge59" class="edge verb">
<title>Entity34&#45;&gt;Entity69</title>
<path fill="none" stroke="black" d="M859.62,-3612.27C793.73,-3683.58 548.95,-3948.49 472.35,-4031.39"/>
<polygon fill="black" stroke="black" points="469.69,-4029.11 465.48,-4038.83 474.83,-4033.86 469.69,-4029.11"/>
<text text-anchor="start" x="619.99" y="-3825.63" font-family="Times New Roman,serif" font-size="14.00">member</text>
</g>
<!-- Entity68 -->
<g id="node59" class="node entity">
<title>Entity68</title>
<ellipse fill="none" stroke="black" cx="300.32" cy="-3622.45" rx="39.79" ry="18"/>
<text text-anchor="start" x="277.82" y="-3618.75" font-family="Times New Roman,serif" font-size="14.00">medium</text>
</g>
<!-- Entity34&#45;&gt;Entity68 -->
<g id="edge62" class="edge verb">
<title>Entity34&#45;&gt;Entity68</title>
<path fill="none" stroke="black" d="M787.7,-3598.74C665.13,-3604.71 447.63,-3615.28 350.08,-3620.03"/>
<polygon fill="black" stroke="black" points="349.72,-3616.54 339.91,-3620.52 350.06,-3623.53 349.72,-3616.54"/>
<text text-anchor="start" x="558.89" y="-3613.19" font-family="Times New Roman,serif" font-size="14.00">is</text>
</g>
<!-- Entity38&#45;&gt;Entity53 -->
<g id="edge48" class="edge verb">
<title>Entity38&#45;&gt;Entity53</title>
<path fill="none" stroke="black" d="M1752.78,-3391.32C1885.69,-3363.83 2228.5,-3292.92 2345.2,-3268.78"/>
<polygon fill="black" stroke="black" points="2346.06,-3272.18 2355.14,-3266.73 2344.64,-3265.32 2346.06,-3272.18"/>
<text text-anchor="start" x="2038.99" y="-3333.85" font-family="Times New Roman,serif" font-size="14.00">is</text>
</g>
<!-- Entity51&#45;&gt;Entity74 -->
<g id="edge65" class="edge verb">
<title>Entity51&#45;&gt;Entity74</title>
<path fill="none" stroke="black" d="M1500.5,-688.02C1477,-748.88 1399.15,-950.45 1370.63,-1024.3"/>
<polygon fill="black" stroke="black" points="1367.29,-1023.26 1366.95,-1033.85 1373.82,-1025.78 1367.29,-1023.26"/>
<text text-anchor="start" x="1389.57" y="-859.96" font-family="Times New Roman,serif" font-size="14.00">member</text>
</g>
<!-- Entity46 -->
<g id="node37" class="node entity">
<title>Entity46</title>
<ellipse fill="none" stroke="black" cx="1936.6" cy="-18.5" rx="46.29" ry="18"/>
<text text-anchor="start" x="1909.1" y="-14.8" font-family="Times New Roman,serif" font-size="14.00">van braun</text>
</g>
<!-- Entity46&#45;&gt;Entity37 -->
<g id="edge33" class="edge verb">
<title>Entity46&#45;&gt;Entity37</title>
<path fill="none" stroke="black" d="M1940.57,-36.47C1957.45,-112.85 2023.33,-410.89 2043.9,-503.93"/>
<polygon fill="black" stroke="black" points="2040.5,-504.74 2046.07,-513.75 2047.33,-503.23 2040.5,-504.74"/>
<text text-anchor="start" x="1938.23" y="-274" font-family="Times New Roman,serif" font-size="14.00">employee</text>
</g>
<!-- Entity46&#45;&gt;Entity72 -->
<g id="edge64" class="edge verb">
<title>Entity46&#45;&gt;Entity72</title>
<path fill="none" stroke="black" d="M1897.72,-28.21C1824.28,-46.55 1664.38,-86.48 1573.59,-109.16"/>
<polygon fill="black" stroke="black" points="1572.53,-105.81 1563.67,-111.63 1574.22,-112.6 1572.53,-105.81"/>
<text text-anchor="start" x="1681.65" y="-72.48" font-family="Times New Roman,serif" font-size="14.00">employee</text>
</g>
<!-- Entity49 -->
<g id="node38" class="node entity">
<title>Entity49</title>
<ellipse fill="none" stroke="black" cx="1130.85" cy="-475.74" rx="49.29" ry="18"/>
<text text-anchor="start" x="1100.85" y="-472.04" font-family="Times New Roman,serif" font-size="14.00">adolf hitler</text>
</g>
<!-- Entity49&#45;&gt;Entity51 -->
<g id="edge34" class="edge verb">
<title>Entity49&#45;&gt;Entity51</title>
<path fill="none" stroke="black" d="M1159.45,-490.53C1227.93,-525.94 1401,-615.42 1474.01,-653.17"/>
<polygon fill="black" stroke="black" points="1472.73,-656.45 1483.22,-657.94 1475.94,-650.23 1472.73,-656.45"/>
<text text-anchor="start" x="1282.73" y="-575.65" font-family="Times New Roman,serif" font-size="14.00">create</text>
</g>
<!-- Entity50 -->
<g id="node40" class="node entity">
<title>Entity50</title>
<ellipse fill="none" stroke="black" cx="2508.55" cy="-3476.61" rx="37.89" ry="18"/>
<text text-anchor="start" x="2487.55" y="-3472.91" font-family="Times New Roman,serif" font-size="14.00">hunt oil</text>
</g>
<!-- Entity48 -->
<g id="node41" class="node entity">
<title>Entity48</title>
<ellipse fill="none" stroke="black" cx="2475.38" cy="-3368.57" rx="77.99" ry="18"/>
<text text-anchor="start" x="2423.38" y="-3364.87" font-family="Times New Roman,serif" font-size="14.00">dwight eisenhower</text>
</g>
<!-- Entity50&#45;&gt;Entity48 -->
<g id="edge37" class="edge verb">
<title>Entity50&#45;&gt;Entity48</title>
<path fill="none" stroke="black" d="M2503.07,-3458.77C2497.87,-3441.82 2489.97,-3416.09 2483.93,-3396.44"/>
<polygon fill="black" stroke="black" points="2487.26,-3395.33 2480.97,-3386.8 2480.56,-3397.39 2487.26,-3395.33"/>
<text text-anchor="start" x="2467.5" y="-3431.4" font-family="Times New Roman,serif" font-size="14.00">fund</text>
</g>
<!-- Entity48&#45;&gt;Entity53 -->
<g id="edge67" class="edge verb">
<title>Entity48&#45;&gt;Entity53</title>
<path fill="none" stroke="black" d="M2460.42,-3350.74C2445.31,-3332.74 2421.88,-3304.8 2405.1,-3284.8"/>
<polygon fill="black" stroke="black" points="2407.69,-3282.44 2398.58,-3277.03 2402.32,-3286.94 2407.69,-3282.44"/>
<text text-anchor="start" x="2422.76" y="-3321.57" font-family="Times New Roman,serif" font-size="14.00">is</text>
</g>
<!-- Entity24 -->
<g id="node43" class="node entity">
<title>Entity24</title>
<ellipse fill="none" stroke="black" cx="73.63" cy="-3948.33" rx="73.39" ry="18"/>
<text text-anchor="start" x="25.13" y="-3944.63" font-family="Times New Roman,serif" font-size="14.00">madam blavatsky</text>
</g>
<!-- Entity24&#45;&gt;Entity59 -->
<g id="edge42" class="edge verb">
<title>Entity24&#45;&gt;Entity59</title>
<path fill="none" stroke="black" d="M113.35,-3932.95C223.96,-3890.12 535.47,-3769.51 658.05,-3722.05"/>
<polygon fill="black" stroke="black" points="659.53,-3725.23 667.59,-3718.36 657,-3718.7 659.53,-3725.23"/>
<text text-anchor="start" x="351.7" y="-3831.3" font-family="Times New Roman,serif" font-size="14.00">create</text>
</g>
<!-- Entity22 -->
<g id="node45" class="node entity">
<title>Entity22</title>
<ellipse fill="none" stroke="black" cx="1324.55" cy="-3672.6" rx="58.49" ry="18"/>
<text text-anchor="start" x="1287.55" y="-3668.9" font-family="Times New Roman,serif" font-size="14.00">rudolf steiner</text>
</g>
<!-- Entity22&#45;&gt;Entity59 -->
<g id="edge50" class="edge verb">
<title>Entity22&#45;&gt;Entity59</title>
<path fill="none" stroke="black" d="M1266.6,-3675.41C1159.72,-3680.6 930.74,-3691.72 801.77,-3697.98"/>
<polygon fill="black" stroke="black" points="801.34,-3694.5 791.52,-3698.48 801.67,-3701.49 801.34,-3694.5"/>
<text text-anchor="start" x="988.18" y="-3690.5" font-family="Times New Roman,serif" font-size="14.00">member</text>
</g>
<!-- Entity60 -->
<g id="node46" class="node entity">
<title>Entity60</title>
<ellipse fill="none" stroke="black" cx="1270.25" cy="-3780.63" rx="102.08" ry="18"/>
<text text-anchor="start" x="1199.75" y="-3776.93" font-family="Times New Roman,serif" font-size="14.00">anthroposophical society</text>
</g>
<!-- Entity22&#45;&gt;Entity60 -->
<g id="edge44" class="edge verb">
<title>Entity22&#45;&gt;Entity60</title>
<path fill="none" stroke="black" d="M1315.58,-3690.44C1306.99,-3707.54 1293.9,-3733.58 1283.99,-3753.3"/>
<polygon fill="black" stroke="black" points="1280.78,-3751.89 1279.41,-3762.4 1287.03,-3755.04 1280.78,-3751.89"/>
<text text-anchor="start" x="1265.79" y="-3725.67" font-family="Times New Roman,serif" font-size="14.00">create</text>
</g>
<!-- Entity31 -->
<g id="node47" class="node entity">
<title>Entity31</title>
<ellipse fill="none" stroke="black" cx="3305.46" cy="-4042.34" rx="69.59" ry="18"/>
<text text-anchor="start" x="3259.96" y="-4038.64" font-family="Times New Roman,serif" font-size="14.00">andrew breitbart</text>
</g>
<!-- Entity31&#45;&gt;Entity65 -->
<g id="edge46" class="edge verb">
<title>Entity31&#45;&gt;Entity65</title>
<path fill="none" stroke="black" d="M3314.87,-4024.02C3323.69,-4006.85 3336.99,-3980.97 3347.04,-3961.42"/>
<polygon fill="black" stroke="black" points="3350.22,-3962.89 3351.67,-3952.39 3343.99,-3959.69 3350.22,-3962.89"/>
<text text-anchor="start" x="3296.95" y="-3996.52" font-family="Times New Roman,serif" font-size="14.00">create</text>
</g>
<!-- Entity35 -->
<g id="node51" class="node entity">
<title>Entity35</title>
<ellipse fill="none" stroke="black" cx="2509.94" cy="-1746.66" rx="39.79" ry="18"/>
<text text-anchor="start" x="2487.44" y="-1742.96" font-family="Times New Roman,serif" font-size="14.00">crowley</text>
</g>
<!-- Entity70 -->
<g id="node52" class="node entity">
<title>Entity70</title>
<ellipse fill="none" stroke="black" cx="2597.66" cy="-1858.64" rx="38.99" ry="18"/>
<text text-anchor="start" x="2575.66" y="-1854.94" font-family="Times New Roman,serif" font-size="14.00">x magic</text>
</g>
<!-- Entity35&#45;&gt;Entity70 -->
<g id="edge53" class="edge verb">
<title>Entity35&#45;&gt;Entity70</title>
<path fill="none" stroke="black" d="M2523.26,-1763.67C2537.82,-1782.25 2561.28,-1812.2 2577.96,-1833.49"/>
<polygon fill="black" stroke="black" points="2575.29,-1835.76 2584.21,-1841.47 2580.8,-1831.44 2575.29,-1835.76"/>
<text text-anchor="start" x="2504.61" y="-1802.38" font-family="Times New Roman,serif" font-size="14.00">member</text>
</g>
<!-- Entity44 -->
<g id="node55" class="node entity">
<title>Entity44</title>
<ellipse fill="none" stroke="black" cx="2523.94" cy="-2240.66" rx="53.89" ry="18"/>
<text text-anchor="start" x="2490.44" y="-2236.96" font-family="Times New Roman,serif" font-size="14.00">black magic</text>
</g>
<!-- Entity71 -->
<g id="node56" class="node entity">
<title>Entity71</title>
<ellipse fill="none" stroke="black" cx="2611.66" cy="-2352.64" rx="28.7" ry="18"/>
<text text-anchor="start" x="2597.66" y="-2348.94" font-family="Times New Roman,serif" font-size="14.00">x left</text>
</g>
<!-- Entity44&#45;&gt;Entity71 -->
<g id="edge56" class="edge verb">
<title>Entity44&#45;&gt;Entity71</title>
<path fill="none" stroke="black" d="M2537.64,-2258.16C2552.45,-2277.05 2576.14,-2307.29 2592.72,-2328.45"/>
<polygon fill="black" stroke="black" points="2589.98,-2330.64 2598.9,-2336.36 2595.49,-2326.32 2589.98,-2330.64"/>
<text text-anchor="start" x="2519.18" y="-2297.11" font-family="Times New Roman,serif" font-size="14.00">member</text>
</g>
</g>
</svg>
