<?xml version="1.0" encoding="UTF-8" standalone="no"?>
<?xml-stylesheet href="../styles.css" type="text/css"?>
<!DOCTYPE svg PUBLIC "-//W3C//DTD SVG 1.1//EN"
 "http://www.w3.org/Graphics/SVG/1.1/DTD/svg11.dtd">
<!-- Generated by graphviz version 2.47.3 (20210619.1520)
 -->
<!-- Title: G Pages: 1 -->
<svg width="5469pt" height="3998pt"
 viewBox="0.00 0.00 5469.00 3998.00" xmlns="http://www.w3.org/2000/svg" xmlns:xlink="http://www.w3.org/1999/xlink">
<g id="graph0" class="graph" transform="scale(1 1) rotate(0) translate(4 3994)">
<title>G</title>
<polygon fill="white" stroke="transparent" points="-4,4 -4,-3994 5465,-3994 5465,4 -4,4"/>
<!-- Entity2 -->
<g id="node1" class="node entity">
<title>Entity2</title>
<ellipse fill="none" stroke="black" cx="2185.11" cy="-1427.13" rx="36.29" ry="18"/>
<text text-anchor="start" x="2165.11" y="-1423.43" font-family="Times New Roman,serif" font-size="14.00">oswald</text>
</g>
<!-- Entity14 -->
<g id="node2" class="node entity">
<title>Entity14</title>
<ellipse fill="none" stroke="black" cx="1819.24" cy="-1746.44" rx="27" ry="18"/>
<text text-anchor="start" x="1811.74" y="-1742.74" font-family="Times New Roman,serif" font-size="14.00">jfk</text>
</g>
<!-- Entity2&#45;&gt;Entity14 -->
<g id="edge1" class="edge verb">
<title>Entity2&#45;&gt;Entity14</title>
<path fill="none" stroke="black" d="M2166.96,-1442.96C2106.55,-1495.69 1912.17,-1665.34 1843.52,-1725.25"/>
<polygon fill="black" stroke="black" points="1841.02,-1722.78 1835.79,-1731.99 1845.63,-1728.06 1841.02,-1722.78"/>
<text text-anchor="start" x="1943.24" y="-1587.9" font-family="Times New Roman,serif" font-size="14.00">assassinate</text>
</g>
<!-- Entity49 -->
<g id="node42" class="node entity">
<title>Entity49</title>
<ellipse fill="none" stroke="black" cx="2662.11" cy="-1103.72" rx="59.29" ry="18"/>
<text text-anchor="start" x="2624.61" y="-1100.02" font-family="Times New Roman,serif" font-size="14.00">guy bannister</text>
</g>
<!-- Entity2&#45;&gt;Entity49 -->
<g id="edge31" class="edge verb">
<title>Entity2&#45;&gt;Entity49</title>
<path fill="none" stroke="black" d="M2206.84,-1412.39C2283.03,-1360.74 2538.28,-1187.68 2629.43,-1125.89"/>
<polygon fill="black" stroke="black" points="2631.41,-1128.77 2637.72,-1120.26 2627.48,-1122.98 2631.41,-1128.77"/>
<text text-anchor="start" x="2364.13" y="-1272.94" font-family="Times New Roman,serif" font-size="14.00">employee</text>
</g>
<!-- Entity57 -->
<g id="node15" class="node entity">
<title>Entity57</title>
<ellipse fill="none" stroke="black" cx="1485.4" cy="-2101.57" rx="31.4" ry="18"/>
<text text-anchor="start" x="1469.4" y="-2097.87" font-family="Times New Roman,serif" font-size="14.00">potus</text>
</g>
<!-- Entity14&#45;&gt;Entity57 -->
<g id="edge8" class="edge verb">
<title>Entity14&#45;&gt;Entity57</title>
<path fill="none" stroke="black" d="M1804.89,-1761.7C1752.48,-1817.45 1571.13,-2010.38 1507.59,-2077.96"/>
<polygon fill="black" stroke="black" points="1504.75,-2075.88 1500.45,-2085.56 1509.85,-2080.67 1504.75,-2075.88"/>
<text text-anchor="start" x="1646.24" y="-1923.63" font-family="Times New Roman,serif" font-size="14.00">is</text>
</g>
<!-- Entity5 -->
<g id="node3" class="node entity">
<title>Entity5</title>
<ellipse fill="none" stroke="black" cx="5168.85" cy="-2579.66" rx="74.99" ry="18"/>
<text text-anchor="start" x="5119.35" y="-2575.96" font-family="Times New Roman,serif" font-size="14.00">gene roddenberry</text>
</g>
<!-- Entity8 -->
<g id="node4" class="node entity">
<title>Entity8</title>
<ellipse fill="none" stroke="black" cx="4766.59" cy="-2248.4" rx="38.19" ry="18"/>
<text text-anchor="start" x="4745.09" y="-2244.7" font-family="Times New Roman,serif" font-size="14.00">the nine</text>
</g>
<!-- Entity5&#45;&gt;Entity8 -->
<g id="edge2" class="edge verb">
<title>Entity5&#45;&gt;Entity8</title>
<path fill="none" stroke="black" d="M5147.79,-2562.32C5080.39,-2506.81 4869.98,-2333.54 4794.17,-2271.11"/>
<polygon fill="black" stroke="black" points="4795.96,-2268.05 4786.02,-2264.4 4791.51,-2273.46 4795.96,-2268.05"/>
<text text-anchor="start" x="4866.98" y="-2420.51" font-family="Times New Roman,serif" font-size="14.00">claiemd to channel</text>
</g>
<!-- Entity60 -->
<g id="node28" class="node entity">
<title>Entity60</title>
<ellipse fill="none" stroke="black" cx="5366.68" cy="-2359.58" rx="94.48" ry="18"/>
<text text-anchor="start" x="5302.18" y="-2355.88" font-family="Times New Roman,serif" font-size="14.00">egyptian gods in a ship</text>
</g>
<!-- Entity8&#45;&gt;Entity60 -->
<g id="edge16" class="edge verb">
<title>Entity8&#45;&gt;Entity60</title>
<path fill="none" stroke="black" d="M4802.33,-2255.02C4897.26,-2272.61 5157.37,-2320.8 5288.67,-2345.12"/>
<polygon fill="black" stroke="black" points="5288.2,-2348.59 5298.67,-2346.97 5289.47,-2341.71 5288.2,-2348.59"/>
<text text-anchor="start" x="5015.5" y="-2303.87" font-family="Times New Roman,serif" font-size="14.00">claim</text>
</g>
<!-- Entity10 -->
<g id="node5" class="node entity">
<title>Entity10</title>
<ellipse fill="none" stroke="black" cx="1025.98" cy="-2004.34" rx="68.49" ry="18"/>
<text text-anchor="start" x="981.48" y="-2000.64" font-family="Times New Roman,serif" font-size="14.00">george hw bush</text>
</g>
<!-- Entity16 -->
<g id="node6" class="node entity">
<title>Entity16</title>
<ellipse fill="none" stroke="black" cx="1422.14" cy="-1993.59" rx="63.89" ry="18"/>
<text text-anchor="start" x="1381.14" y="-1989.89" font-family="Times New Roman,serif" font-size="14.00">george w bush</text>
</g>
<!-- Entity10&#45;&gt;Entity16 -->
<g id="edge3" class="edge verb">
<title>Entity10&#45;&gt;Entity16</title>
<path fill="none" stroke="black" d="M1094.08,-2002.49C1164.97,-2000.57 1275.62,-1997.57 1348.49,-1995.59"/>
<polygon fill="black" stroke="black" points="1348.62,-1999.09 1358.52,-1995.32 1348.43,-1992.09 1348.62,-1999.09"/>
<text text-anchor="start" x="1189.29" y="-2002.84" font-family="Times New Roman,serif" font-size="14.00">father</text>
</g>
<!-- Entity10&#45;&gt;Entity57 -->
<g id="edge62" class="edge verb">
<title>Entity10&#45;&gt;Entity57</title>
<path fill="none" stroke="black" d="M1079.58,-2015.68C1172.99,-2035.45 1363.49,-2075.77 1445.92,-2093.21"/>
<polygon fill="black" stroke="black" points="1445.38,-2096.68 1455.89,-2095.32 1446.83,-2089.83 1445.38,-2096.68"/>
<text text-anchor="start" x="1252.75" y="-2058.25" font-family="Times New Roman,serif" font-size="14.00">is</text>
</g>
<!-- Entity16&#45;&gt;Entity57 -->
<g id="edge24" class="edge verb">
<title>Entity16&#45;&gt;Entity57</title>
<path fill="none" stroke="black" d="M1432.58,-2011.42C1442.82,-2028.9 1458.55,-2055.74 1470.18,-2075.58"/>
<polygon fill="black" stroke="black" points="1467.28,-2077.57 1475.36,-2084.43 1473.32,-2074.03 1467.28,-2077.57"/>
<text text-anchor="start" x="1441.38" y="-2047.3" font-family="Times New Roman,serif" font-size="14.00">is</text>
</g>
<!-- Entity25 -->
<g id="node7" class="node entity">
<title>Entity25</title>
<ellipse fill="none" stroke="black" cx="1450.48" cy="-3423.83" rx="58.49" ry="18"/>
<text text-anchor="start" x="1413.48" y="-3420.13" font-family="Times New Roman,serif" font-size="14.00">steve bannon</text>
</g>
<!-- Entity13 -->
<g id="node8" class="node entity">
<title>Entity13</title>
<ellipse fill="none" stroke="black" cx="1704.42" cy="-2716.08" rx="59.59" ry="18"/>
<text text-anchor="start" x="1666.42" y="-2712.38" font-family="Times New Roman,serif" font-size="14.00">donald trump</text>
</g>
<!-- Entity25&#45;&gt;Entity13 -->
<g id="edge4" class="edge verb">
<title>Entity25&#45;&gt;Entity13</title>
<path fill="none" stroke="black" d="M1459.51,-3405.71C1500.01,-3309.68 1661.28,-2860.62 1697.42,-2743.87"/>
<polygon fill="black" stroke="black" points="1700.79,-2744.81 1700.34,-2734.23 1694.09,-2742.78 1700.79,-2744.81"/>
<text text-anchor="start" x="1542.46" y="-3078.59" font-family="Times New Roman,serif" font-size="14.00">advise</text>
</g>
<!-- Entity25&#45;&gt;Entity13 -->
<g id="edge21" class="edge verb">
<title>Entity25&#45;&gt;Entity13</title>
<path fill="none" stroke="black" d="M1454.6,-3405.56C1483.1,-3309.1 1644.31,-2859.25 1691.6,-2743.36"/>
<polygon fill="black" stroke="black" points="1694.84,-2744.68 1695.44,-2734.1 1688.37,-2742 1694.84,-2744.68"/>
<text text-anchor="start" x="1525.1" y="-3063.26" font-family="Times New Roman,serif" font-size="14.00">promote</text>
</g>
<!-- Entity64 -->
<g id="node18" class="node entity">
<title>Entity64</title>
<ellipse fill="none" stroke="black" cx="1618.88" cy="-3846.47" rx="35.19" ry="18"/>
<text text-anchor="start" x="1599.88" y="-3842.77" font-family="Times New Roman,serif" font-size="14.00">gurgev</text>
</g>
<!-- Entity25&#45;&gt;Entity64 -->
<g id="edge10" class="edge verb">
<title>Entity25&#45;&gt;Entity64</title>
<path fill="none" stroke="black" d="M1457.61,-3441.72C1484.02,-3508.02 1576.43,-3739.94 1608.12,-3819.46"/>
<polygon fill="black" stroke="black" points="1604.89,-3820.81 1611.84,-3828.81 1611.39,-3818.22 1604.89,-3820.81"/>
<text text-anchor="start" x="1501.86" y="-3634.39" font-family="Times New Roman,serif" font-size="14.00">study</text>
</g>
<!-- Entity65 -->
<g id="node19" class="node entity">
<title>Entity65</title>
<ellipse fill="none" stroke="black" cx="1805.87" cy="-3222.24" rx="61.99" ry="18"/>
<text text-anchor="start" x="1766.37" y="-3218.54" font-family="Times New Roman,serif" font-size="14.00">breitbart news</text>
</g>
<!-- Entity25&#45;&gt;Entity65 -->
<g id="edge11" class="edge verb">
<title>Entity25&#45;&gt;Entity65</title>
<path fill="none" stroke="black" d="M1478.66,-3407.85C1542.27,-3371.77 1696.97,-3284.01 1768.49,-3243.45"/>
<polygon fill="black" stroke="black" points="1770.22,-3246.49 1777.19,-3238.51 1766.77,-3240.4 1770.22,-3246.49"/>
<text text-anchor="start" x="1589.58" y="-3329.45" font-family="Times New Roman,serif" font-size="14.00">create</text>
</g>
<!-- Entity75 -->
<g id="node31" class="node entity">
<title>Entity75</title>
<ellipse fill="none" stroke="black" cx="1388.03" cy="-3849.82" rx="38.19" ry="18"/>
<text text-anchor="start" x="1366.53" y="-3846.12" font-family="Times New Roman,serif" font-size="14.00">us navy</text>
</g>
<!-- Entity25&#45;&gt;Entity75 -->
<g id="edge18" class="edge verb">
<title>Entity25&#45;&gt;Entity75</title>
<path fill="none" stroke="black" d="M1447.84,-3441.86C1438.08,-3508.4 1404.06,-3740.44 1392.17,-3821.56"/>
<polygon fill="black" stroke="black" points="1388.69,-3821.15 1390.71,-3831.55 1395.62,-3822.16 1388.69,-3821.15"/>
<text text-anchor="start" x="1374" y="-3635.51" font-family="Times New Roman,serif" font-size="14.00">member</text>
</g>
<!-- Entity62 -->
<g id="node35" class="node entity">
<title>Entity62</title>
<ellipse fill="none" stroke="black" cx="1432.87" cy="-3972.29" rx="53.09" ry="18"/>
<text text-anchor="start" x="1399.87" y="-3968.59" font-family="Times New Roman,serif" font-size="14.00">biosphere 2</text>
</g>
<!-- Entity25&#45;&gt;Entity62 -->
<g id="edge25" class="edge verb">
<title>Entity25&#45;&gt;Entity62</title>
<path fill="none" stroke="black" d="M1449.89,-3442.08C1447.31,-3522.61 1436.91,-3846.51 1433.77,-3944.24"/>
<polygon fill="black" stroke="black" points="1430.27,-3944.14 1433.45,-3954.25 1437.26,-3944.37 1430.27,-3944.14"/>
<text text-anchor="start" x="1407.83" y="-3696.96" font-family="Times New Roman,serif" font-size="14.00">create</text>
</g>
<!-- Entity76 -->
<g id="node55" class="node entity">
<title>Entity76</title>
<ellipse fill="none" stroke="black" cx="981.37" cy="-3710.27" rx="64.99" ry="18"/>
<text text-anchor="start" x="939.37" y="-3706.57" font-family="Times New Roman,serif" font-size="14.00">goldman sachs</text>
</g>
<!-- Entity25&#45;&gt;Entity76 -->
<g id="edge45" class="edge verb">
<title>Entity25&#45;&gt;Entity76</title>
<path fill="none" stroke="black" d="M1423.91,-3440.05C1344.28,-3488.68 1107.45,-3633.29 1017.01,-3688.51"/>
<polygon fill="black" stroke="black" points="1014.94,-3685.68 1008.23,-3693.88 1018.58,-3691.65 1014.94,-3685.68"/>
<text text-anchor="start" x="1166.46" y="-3568.08" font-family="Times New Roman,serif" font-size="14.00">employee</text>
</g>
<!-- Entity79 -->
<g id="node59" class="node entity">
<title>Entity79</title>
<ellipse fill="none" stroke="black" cx="1041.04" cy="-3893.39" rx="77.19" ry="18"/>
<text text-anchor="start" x="989.54" y="-3889.69" font-family="Times New Roman,serif" font-size="14.00">hollywood movies</text>
</g>
<!-- Entity25&#45;&gt;Entity79 -->
<g id="edge54" class="edge verb">
<title>Entity25&#45;&gt;Entity79</title>
<path fill="none" stroke="black" d="M1435.18,-3441.38C1372.73,-3513 1137.05,-3783.29 1063.27,-3867.91"/>
<polygon fill="black" stroke="black" points="1060.58,-3865.67 1056.64,-3875.5 1065.85,-3870.27 1060.58,-3865.67"/>
<text text-anchor="start" x="1202.22" y="-3658.45" font-family="Times New Roman,serif" font-size="14.00">produce</text>
</g>
<!-- Entity13&#45;&gt;Entity57 -->
<g id="edge41" class="edge verb">
<title>Entity13&#45;&gt;Entity57</title>
<path fill="none" stroke="black" d="M1697.98,-2698.02C1666.94,-2610.92 1532.63,-2234.07 1495.15,-2128.91"/>
<polygon fill="black" stroke="black" points="1498.39,-2127.57 1491.73,-2119.33 1491.79,-2129.92 1498.39,-2127.57"/>
<text text-anchor="start" x="1586.56" y="-2417.27" font-family="Times New Roman,serif" font-size="14.00">is</text>
</g>
<!-- Entity33 -->
<g id="node38" class="node entity">
<title>Entity33</title>
<ellipse fill="none" stroke="black" cx="2359.7" cy="-2631.7" rx="50.09" ry="18"/>
<text text-anchor="start" x="2329.2" y="-2628" font-family="Times New Roman,serif" font-size="14.00">john trump</text>
</g>
<!-- Entity13&#45;&gt;Entity33 -->
<g id="edge59" class="edge verb">
<title>Entity13&#45;&gt;Entity33</title>
<path fill="none" stroke="black" d="M1759.44,-2709C1882.15,-2693.2 2177.21,-2655.2 2302.2,-2639.11"/>
<polygon fill="black" stroke="black" points="2302.86,-2642.55 2312.33,-2637.8 2301.97,-2635.61 2302.86,-2642.55"/>
<text text-anchor="start" x="1987.82" y="-2677.85" font-family="Times New Roman,serif" font-size="14.00">nephew</text>
</g>
<!-- Entity50 -->
<g id="node9" class="node entity">
<title>Entity50</title>
<ellipse fill="none" stroke="black" cx="3743.86" cy="-369.19" rx="49.29" ry="18"/>
<text text-anchor="start" x="3713.86" y="-365.49" font-family="Times New Roman,serif" font-size="14.00">adolf hitler</text>
</g>
<!-- Entity53 -->
<g id="node10" class="node entity">
<title>Entity53</title>
<ellipse fill="none" stroke="black" cx="3620.18" cy="-764.67" rx="32.49" ry="18"/>
<text text-anchor="start" x="3603.18" y="-760.97" font-family="Times New Roman,serif" font-size="14.00">nsdap</text>
</g>
<!-- Entity50&#45;&gt;Entity53 -->
<g id="edge5" class="edge verb">
<title>Entity50&#45;&gt;Entity53</title>
<path fill="none" stroke="black" d="M3738.22,-387.21C3718.54,-450.14 3652.79,-660.38 3628.93,-736.69"/>
<polygon fill="black" stroke="black" points="3625.49,-735.95 3625.85,-746.54 3632.17,-738.04 3625.49,-735.95"/>
<text text-anchor="start" x="3649.58" y="-565.75" font-family="Times New Roman,serif" font-size="14.00">create</text>
</g>
<!-- Entity73 -->
<g id="node51" class="node entity">
<title>Entity73</title>
<ellipse fill="none" stroke="black" cx="3173.62" cy="-864.91" rx="38.99" ry="18"/>
<text text-anchor="start" x="3151.62" y="-861.21" font-family="Times New Roman,serif" font-size="14.00">far right</text>
</g>
<!-- Entity53&#45;&gt;Entity73 -->
<g id="edge47" class="edge verb">
<title>Entity53&#45;&gt;Entity73</title>
<path fill="none" stroke="black" d="M3589.84,-771.48C3512.9,-788.75 3309.89,-834.32 3218.88,-854.75"/>
<polygon fill="black" stroke="black" points="3217.86,-851.39 3208.87,-856.99 3219.4,-858.22 3217.86,-851.39"/>
<text text-anchor="start" x="3358.36" y="-816.91" font-family="Times New Roman,serif" font-size="14.00">member</text>
</g>
<!-- Entity52 -->
<g id="node11" class="node entity">
<title>Entity52</title>
<ellipse fill="none" stroke="black" cx="1873.96" cy="-2256.49" rx="37.89" ry="18"/>
<text text-anchor="start" x="1852.96" y="-2252.79" font-family="Times New Roman,serif" font-size="14.00">hunt oil</text>
</g>
<!-- Entity45 -->
<g id="node12" class="node entity">
<title>Entity45</title>
<ellipse fill="none" stroke="black" cx="1812.63" cy="-2148.45" rx="77.99" ry="18"/>
<text text-anchor="start" x="1760.63" y="-2144.75" font-family="Times New Roman,serif" font-size="14.00">dwight eisenhower</text>
</g>
<!-- Entity52&#45;&gt;Entity45 -->
<g id="edge6" class="edge verb">
<title>Entity52&#45;&gt;Entity45</title>
<path fill="none" stroke="black" d="M1863.83,-2238.65C1854.02,-2221.37 1839.02,-2194.94 1827.79,-2175.15"/>
<polygon fill="black" stroke="black" points="1830.75,-2173.28 1822.77,-2166.31 1824.67,-2176.74 1830.75,-2173.28"/>
<text text-anchor="start" x="1819.81" y="-2210.7" font-family="Times New Roman,serif" font-size="14.00">fund</text>
</g>
<!-- Entity45&#45;&gt;Entity57 -->
<g id="edge51" class="edge verb">
<title>Entity45&#45;&gt;Entity57</title>
<path fill="none" stroke="black" d="M1746.02,-2138.9C1680.01,-2129.45 1581.03,-2115.27 1526,-2107.38"/>
<polygon fill="black" stroke="black" points="1526.32,-2103.89 1515.92,-2105.94 1525.33,-2110.82 1526.32,-2103.89"/>
<text text-anchor="start" x="1626.01" y="-2126.94" font-family="Times New Roman,serif" font-size="14.00">is</text>
</g>
<!-- Entity7 -->
<g id="node13" class="node entity">
<title>Entity7</title>
<ellipse fill="none" stroke="black" cx="989.18" cy="-2162.33" rx="56.59" ry="18"/>
<text text-anchor="start" x="953.68" y="-2158.63" font-family="Times New Roman,serif" font-size="14.00">harry truman</text>
</g>
<!-- Entity55 -->
<g id="node14" class="node entity">
<title>Entity55</title>
<ellipse fill="none" stroke="black" cx="465.31" cy="-2122" rx="55.79" ry="18"/>
<text text-anchor="start" x="430.31" y="-2118.3" font-family="Times New Roman,serif" font-size="14.00">freemasonry</text>
</g>
<!-- Entity7&#45;&gt;Entity55 -->
<g id="edge7" class="edge verb">
<title>Entity7&#45;&gt;Entity55</title>
<path fill="none" stroke="black" d="M934.11,-2158.09C836.61,-2150.59 634.13,-2135 530.1,-2126.99"/>
<polygon fill="black" stroke="black" points="530.28,-2123.49 520.04,-2126.22 529.74,-2130.47 530.28,-2123.49"/>
<text text-anchor="start" x="686.1" y="-2146.34" font-family="Times New Roman,serif" font-size="14.00">member</text>
</g>
<!-- Entity7&#45;&gt;Entity57 -->
<g id="edge28" class="edge verb">
<title>Entity7&#45;&gt;Entity57</title>
<path fill="none" stroke="black" d="M1042.29,-2155.83C1141.97,-2143.62 1355.12,-2117.52 1444.56,-2106.57"/>
<polygon fill="black" stroke="black" points="1445.09,-2110.03 1454.59,-2105.34 1444.24,-2103.08 1445.09,-2110.03"/>
<text text-anchor="start" x="1233.42" y="-2135" font-family="Times New Roman,serif" font-size="14.00">is</text>
</g>
<!-- Entity17 -->
<g id="node16" class="node entity">
<title>Entity17</title>
<ellipse fill="none" stroke="black" cx="2048.71" cy="-2040.42" rx="31.4" ry="18"/>
<text text-anchor="start" x="2032.71" y="-2036.72" font-family="Times New Roman,serif" font-size="14.00">carter</text>
</g>
<!-- Entity17&#45;&gt;Entity57 -->
<g id="edge48" class="edge verb">
<title>Entity17&#45;&gt;Entity57</title>
<path fill="none" stroke="black" d="M2018.02,-2043.75C1923.04,-2054.06 1633.78,-2085.46 1526.24,-2097.13"/>
<polygon fill="black" stroke="black" points="1525.68,-2093.67 1516.11,-2098.23 1526.43,-2100.63 1525.68,-2093.67"/>
<text text-anchor="start" x="1762.13" y="-2074.24" font-family="Times New Roman,serif" font-size="14.00">is</text>
</g>
<!-- Entity61 -->
<g id="node17" class="node entity">
<title>Entity61</title>
<ellipse fill="none" stroke="black" cx="2453.07" cy="-2193.92" rx="27" ry="18"/>
<text text-anchor="start" x="2443.57" y="-2190.22" font-family="Times New Roman,serif" font-size="14.00">ufo</text>
</g>
<!-- Entity17&#45;&gt;Entity61 -->
<g id="edge9" class="edge verb">
<title>Entity17&#45;&gt;Entity61</title>
<path fill="none" stroke="black" d="M2074.93,-2050.38C2145.92,-2077.33 2341.78,-2151.68 2420.09,-2181.4"/>
<polygon fill="black" stroke="black" points="2418.88,-2184.69 2429.47,-2184.96 2421.36,-2178.14 2418.88,-2184.69"/>
<text text-anchor="start" x="2205.51" y="-2119.69" font-family="Times New Roman,serif" font-size="14.00">witness</text>
</g>
<!-- Entity44 -->
<g id="node20" class="node entity">
<title>Entity44</title>
<ellipse fill="none" stroke="black" cx="4114.79" cy="-1047.11" rx="74.99" ry="18"/>
<text text-anchor="start" x="4065.29" y="-1043.41" font-family="Times New Roman,serif" font-size="14.00">walter dornberger</text>
</g>
<!-- Entity44&#45;&gt;Entity53 -->
<g id="edge22" class="edge verb">
<title>Entity44&#45;&gt;Entity53</title>
<path fill="none" stroke="black" d="M4085.69,-1030.5C3998.89,-980.93 3742.21,-834.35 3651.98,-782.83"/>
<polygon fill="black" stroke="black" points="3653.46,-779.64 3643.04,-777.72 3649.99,-785.72 3653.46,-779.64"/>
<text text-anchor="start" x="3822.84" y="-910.46" font-family="Times New Roman,serif" font-size="14.00">member</text>
</g>
<!-- Entity54 -->
<g id="node21" class="node entity">
<title>Entity54</title>
<ellipse fill="none" stroke="black" cx="4354.46" cy="-1570.86" rx="53.89" ry="18"/>
<text text-anchor="start" x="4320.96" y="-1567.16" font-family="Times New Roman,serif" font-size="14.00">bell aviation</text>
</g>
<!-- Entity44&#45;&gt;Entity54 -->
<g id="edge12" class="edge verb">
<title>Entity44&#45;&gt;Entity54</title>
<path fill="none" stroke="black" d="M4120.25,-1065.32C4150.23,-1143.55 4290.68,-1451 4338.61,-1544.05"/>
<polygon fill="black" stroke="black" points="4335.6,-1545.86 4343.34,-1553.1 4341.81,-1542.62 4335.6,-1545.86"/>
<text text-anchor="start" x="4150.43" y="-1308.49" font-family="Times New Roman,serif" font-size="14.00">vice&#45;president</text>
</g>
<!-- Entity44&#45;&gt;Entity54 -->
<g id="edge52" class="edge verb">
<title>Entity44&#45;&gt;Entity54</title>
<path fill="none" stroke="black" d="M4125.94,-1064.92C4167.08,-1142.29 4307.69,-1449.22 4345.33,-1543.31"/>
<polygon fill="black" stroke="black" points="4342.12,-1544.7 4349.03,-1552.73 4348.63,-1542.14 4342.12,-1544.7"/>
<text text-anchor="start" x="4181.64" y="-1292.92" font-family="Times New Roman,serif" font-size="14.00">employee</text>
</g>
<!-- Entity72 -->
<g id="node23" class="node entity">
<title>Entity72</title>
<ellipse fill="none" stroke="black" cx="4726.86" cy="-863" rx="90.98" ry="18"/>
<text text-anchor="start" x="4664.86" y="-859.3" font-family="Times New Roman,serif" font-size="14.00">nsdap rocket program</text>
</g>
<!-- Entity44&#45;&gt;Entity72 -->
<g id="edge67" class="edge verb">
<title>Entity44&#45;&gt;Entity72</title>
<path fill="none" stroke="black" d="M4161.54,-1033.04C4271.22,-1000.05 4544.92,-917.73 4666.74,-881.09"/>
<polygon fill="black" stroke="black" points="4668.08,-884.34 4676.65,-878.11 4666.07,-877.64 4668.08,-884.34"/>
<text text-anchor="start" x="4380.14" y="-960.87" font-family="Times New Roman,serif" font-size="14.00">create</text>
</g>
<!-- Entity74 -->
<g id="node56" class="node entity">
<title>Entity74</title>
<ellipse fill="none" stroke="black" cx="4051.33" cy="-939.16" rx="65.79" ry="18"/>
<text text-anchor="start" x="4008.83" y="-935.46" font-family="Times New Roman,serif" font-size="14.00">x series aircraft</text>
</g>
<!-- Entity44&#45;&gt;Entity74 -->
<g id="edge46" class="edge verb">
<title>Entity44&#45;&gt;Entity74</title>
<path fill="none" stroke="black" d="M4104.31,-1029.28C4094.16,-1012.02 4078.64,-985.62 4067.02,-965.85"/>
<polygon fill="black" stroke="black" points="4069.91,-963.86 4061.83,-957.02 4063.88,-967.41 4069.91,-963.86"/>
<text text-anchor="start" x="4051.66" y="-1001.37" font-family="Times New Roman,serif" font-size="14.00">create</text>
</g>
<!-- Entity48 -->
<g id="node22" class="node entity">
<title>Entity48</title>
<ellipse fill="none" stroke="black" cx="4523.13" cy="-755.04" rx="46.29" ry="18"/>
<text text-anchor="start" x="4495.63" y="-751.34" font-family="Times New Roman,serif" font-size="14.00">van braun</text>
</g>
<!-- Entity48&#45;&gt;Entity44 -->
<g id="edge23" class="edge verb">
<title>Entity48&#45;&gt;Entity44</title>
<path fill="none" stroke="black" d="M4500.89,-770.95C4432.8,-819.65 4227.02,-966.83 4147.06,-1024.03"/>
<polygon fill="black" stroke="black" points="4144.93,-1021.25 4138.83,-1029.91 4149,-1026.94 4144.93,-1021.25"/>
<text text-anchor="start" x="4269.97" y="-901.29" font-family="Times New Roman,serif" font-size="14.00">employee</text>
</g>
<!-- Entity48&#45;&gt;Entity72 -->
<g id="edge13" class="edge verb">
<title>Entity48&#45;&gt;Entity72</title>
<path fill="none" stroke="black" d="M4550.61,-769.6C4585.37,-788.02 4645.55,-819.91 4685.78,-841.23"/>
<polygon fill="black" stroke="black" points="4684.32,-844.42 4694.8,-846.01 4687.6,-838.24 4684.32,-844.42"/>
<text text-anchor="start" x="4564.19" y="-809.22" font-family="Times New Roman,serif" font-size="14.00">employee</text>
</g>
<!-- Entity4 -->
<g id="node24" class="node entity">
<title>Entity4</title>
<ellipse fill="none" stroke="black" cx="5138.34" cy="-2251.59" rx="64.19" ry="18"/>
<text text-anchor="start" x="5096.84" y="-2247.89" font-family="Times New Roman,serif" font-size="14.00">andre puharich</text>
</g>
<!-- Entity1 -->
<g id="node25" class="node entity">
<title>Entity1</title>
<ellipse fill="none" stroke="black" cx="4684.25" cy="-2356.45" rx="41.69" ry="18"/>
<text text-anchor="start" x="4660.25" y="-2352.75" font-family="Times New Roman,serif" font-size="14.00">uri geller</text>
</g>
<!-- Entity4&#45;&gt;Entity1 -->
<g id="edge14" class="edge verb">
<title>Entity4&#45;&gt;Entity1</title>
<path fill="none" stroke="black" d="M5088.45,-2263.11C5000.02,-2283.53 4817.04,-2325.78 4730.95,-2345.66"/>
<polygon fill="black" stroke="black" points="4730.15,-2342.26 4721.19,-2347.92 4731.72,-2349.08 4730.15,-2342.26"/>
<text text-anchor="start" x="4857.7" y="-2308.19" font-family="Times New Roman,serif" font-size="14.00">sponsore</text>
</g>
<!-- Entity1&#45;&gt;Entity8 -->
<g id="edge55" class="edge verb">
<title>Entity1&#45;&gt;Entity8</title>
<path fill="none" stroke="black" d="M4697.48,-2339.09C4711.01,-2321.34 4732.15,-2293.6 4747.49,-2273.47"/>
<polygon fill="black" stroke="black" points="4750.39,-2275.44 4753.67,-2265.36 4744.82,-2271.19 4750.39,-2275.44"/>
<text text-anchor="start" x="4618.48" y="-2310.08" font-family="Times New Roman,serif" font-size="14.00">claiemd to channel</text>
</g>
<!-- Entity21 -->
<g id="node26" class="node entity">
<title>Entity21</title>
<ellipse fill="none" stroke="black" cx="3672.84" cy="-2325.78" rx="63.89" ry="18"/>
<text text-anchor="start" x="3631.84" y="-2322.08" font-family="Times New Roman,serif" font-size="14.00">robert bigelow</text>
</g>
<!-- Entity6 -->
<g id="node27" class="node entity">
<title>Entity6</title>
<ellipse fill="none" stroke="black" cx="4141.84" cy="-2382.42" rx="68.49" ry="18"/>
<text text-anchor="start" x="4097.34" y="-2378.72" font-family="Times New Roman,serif" font-size="14.00">jeffrey mishlove</text>
</g>
<!-- Entity21&#45;&gt;Entity6 -->
<g id="edge15" class="edge verb">
<title>Entity21&#45;&gt;Entity6</title>
<path fill="none" stroke="black" d="M3731.77,-2332.89C3817.49,-2343.24 3976.46,-2362.44 4069.27,-2373.65"/>
<polygon fill="black" stroke="black" points="4069.08,-2377.15 4079.43,-2374.88 4069.92,-2370.2 4069.08,-2377.15"/>
<text text-anchor="start" x="3868.52" y="-2357.07" font-family="Times New Roman,serif" font-size="14.00">funds</text>
</g>
<!-- Entity56 -->
<g id="node44" class="node entity">
<title>Entity56</title>
<ellipse fill="none" stroke="black" cx="3474.24" cy="-2217.73" rx="77.19" ry="18"/>
<text text-anchor="start" x="3422.74" y="-2214.03" font-family="Times New Roman,serif" font-size="14.00">psi&#45;consciousness</text>
</g>
<!-- Entity21&#45;&gt;Entity56 -->
<g id="edge49" class="edge verb">
<title>Entity21&#45;&gt;Entity56</title>
<path fill="none" stroke="black" d="M3643.11,-2309.6C3608.79,-2290.93 3552.2,-2260.15 3514.09,-2239.42"/>
<polygon fill="black" stroke="black" points="3515.28,-2236.08 3504.83,-2234.38 3511.94,-2242.23 3515.28,-2236.08"/>
<text text-anchor="start" x="3514.6" y="-2278.31" font-family="Times New Roman,serif" font-size="14.00">investigates</text>
</g>
<!-- Entity6&#45;&gt;Entity1 -->
<g id="edge56" class="edge verb">
<title>Entity6&#45;&gt;Entity1</title>
<path fill="none" stroke="black" d="M4209.17,-2379.19C4318.91,-2373.94 4534,-2363.64 4632.62,-2358.92"/>
<polygon fill="black" stroke="black" points="4632.82,-2362.41 4642.64,-2358.44 4632.48,-2355.42 4632.82,-2362.41"/>
<text text-anchor="start" x="4372.89" y="-2372.86" font-family="Times New Roman,serif" font-size="14.00">promote</text>
</g>
<!-- Entity6&#45;&gt;Entity56 -->
<g id="edge33" class="edge verb">
<title>Entity6&#45;&gt;Entity56</title>
<path fill="none" stroke="black" d="M4099.4,-2368.3C3987.74,-2336.65 3684.87,-2261.66 3545.8,-2230.91"/>
<polygon fill="black" stroke="black" points="3546.19,-2227.41 3535.68,-2228.69 3544.69,-2234.25 3546.19,-2227.41"/>
<text text-anchor="start" x="3758.6" y="-2288.4" font-family="Times New Roman,serif" font-size="14.00">investigates</text>
</g>
<!-- Entity6&#45;&gt;Entity56 -->
<g id="edge61" class="edge verb">
<title>Entity6&#45;&gt;Entity56</title>
<path fill="none" stroke="black" d="M4084.83,-2372.43C3957.88,-2344.96 3653.3,-2269.82 3528.73,-2235.23"/>
<polygon fill="black" stroke="black" points="3529.58,-2231.84 3519.01,-2232.51 3527.7,-2238.58 3529.58,-2231.84"/>
<text text-anchor="start" x="3775.78" y="-2307.63" font-family="Times New Roman,serif" font-size="14.00">study</text>
</g>
<!-- Entity29 -->
<g id="node29" class="node entity">
<title>Entity29</title>
<ellipse fill="none" stroke="black" cx="314.23" cy="-246.34" rx="73.39" ry="18"/>
<text text-anchor="start" x="265.73" y="-242.64" font-family="Times New Roman,serif" font-size="14.00">madam blavatsky</text>
</g>
<!-- Entity63 -->
<g id="node30" class="node entity">
<title>Entity63</title>
<ellipse fill="none" stroke="black" cx="684.59" cy="-807.2" rx="85.29" ry="18"/>
<text text-anchor="start" x="627.09" y="-803.5" font-family="Times New Roman,serif" font-size="14.00">theosophical society</text>
</g>
<!-- Entity29&#45;&gt;Entity63 -->
<g id="edge17" class="edge verb">
<title>Entity29&#45;&gt;Entity63</title>
<path fill="none" stroke="black" d="M326.13,-264.37C380.22,-346.28 602.98,-683.61 667.19,-780.85"/>
<polygon fill="black" stroke="black" points="664.3,-782.83 672.73,-789.24 670.14,-778.97 664.3,-782.83"/>
<text text-anchor="start" x="462.66" y="-526.41" font-family="Times New Roman,serif" font-size="14.00">create</text>
</g>
<!-- Entity41 -->
<g id="node32" class="node entity">
<title>Entity41</title>
<ellipse fill="none" stroke="black" cx="1120.13" cy="-1579.54" rx="67.69" ry="18"/>
<text text-anchor="start" x="1076.13" y="-1575.84" font-family="Times New Roman,serif" font-size="14.00">abraham lincoln</text>
</g>
<!-- Entity41&#45;&gt;Entity57 -->
<g id="edge19" class="edge verb">
<title>Entity41&#45;&gt;Entity57</title>
<path fill="none" stroke="black" d="M1132.71,-1597.51C1187.34,-1675.59 1404.2,-1985.52 1467.79,-2076.4"/>
<polygon fill="black" stroke="black" points="1465.02,-2078.55 1473.62,-2084.73 1470.76,-2074.53 1465.02,-2078.55"/>
<text text-anchor="start" x="1290.25" y="-1840.75" font-family="Times New Roman,serif" font-size="14.00">is</text>
</g>
<!-- Entity36 -->
<g id="node33" class="node entity">
<title>Entity36</title>
<ellipse fill="none" stroke="black" cx="664" cy="-915.14" rx="90.98" ry="18"/>
<text text-anchor="start" x="602" y="-911.44" font-family="Times New Roman,serif" font-size="14.00">emma hardinge&#45;britten</text>
</g>
<!-- Entity36&#45;&gt;Entity63 -->
<g id="edge65" class="edge verb">
<title>Entity36&#45;&gt;Entity63</title>
<path fill="none" stroke="black" d="M667.49,-896.83C670.71,-879.98 675.52,-854.74 679.22,-835.33"/>
<polygon fill="black" stroke="black" points="682.71,-835.72 681.15,-825.24 675.84,-834.41 682.71,-835.72"/>
<text text-anchor="start" x="639.36" y="-869.88" font-family="Times New Roman,serif" font-size="14.00">create</text>
</g>
<!-- Entity36&#45;&gt;Entity41 -->
<g id="edge30" class="edge verb">
<title>Entity36&#45;&gt;Entity41</title>
<path fill="none" stroke="black" d="M676.44,-933.25C739.84,-1025.6 1026.96,-1443.83 1102.1,-1553.27"/>
<polygon fill="black" stroke="black" points="1099.37,-1555.49 1107.92,-1561.75 1105.14,-1551.52 1099.37,-1555.49"/>
<text text-anchor="start" x="810.27" y="-1247.06" font-family="Times New Roman,serif" font-size="14.00">spokesperson</text>
</g>
<!-- Entity78 -->
<g id="node34" class="node entity">
<title>Entity78</title>
<ellipse fill="none" stroke="black" cx="228.18" cy="-545.92" rx="39.79" ry="18"/>
<text text-anchor="start" x="205.68" y="-542.22" font-family="Times New Roman,serif" font-size="14.00">medium</text>
</g>
<!-- Entity36&#45;&gt;Entity78 -->
<g id="edge20" class="edge verb">
<title>Entity36&#45;&gt;Entity78</title>
<path fill="none" stroke="black" d="M643.27,-897.58C571.64,-836.89 334.56,-636.04 254.7,-568.39"/>
<polygon fill="black" stroke="black" points="256.93,-565.7 247.04,-561.9 252.41,-571.04 256.93,-565.7"/>
<text text-anchor="start" x="438.99" y="-736.78" font-family="Times New Roman,serif" font-size="14.00">is</text>
</g>
<!-- Entity70 -->
<g id="node61" class="node entity">
<title>Entity70</title>
<ellipse fill="none" stroke="black" cx="55.52" cy="-744.57" rx="55.79" ry="18"/>
<text text-anchor="start" x="20.52" y="-740.87" font-family="Times New Roman,serif" font-size="14.00">orphic circle</text>
</g>
<!-- Entity36&#45;&gt;Entity70 -->
<g id="edge66" class="edge verb">
<title>Entity36&#45;&gt;Entity70</title>
<path fill="none" stroke="black" d="M611.33,-900.37C496.15,-868.09 222.99,-791.52 107.99,-759.28"/>
<polygon fill="black" stroke="black" points="108.59,-755.81 98.02,-756.48 106.71,-762.55 108.59,-755.81"/>
<text text-anchor="start" x="313.66" y="-833.63" font-family="Times New Roman,serif" font-size="14.00">member</text>
</g>
<!-- Entity40 -->
<g id="node36" class="node entity">
<title>Entity40</title>
<ellipse fill="none" stroke="black" cx="3264.94" cy="-1499.66" rx="53.89" ry="18"/>
<text text-anchor="start" x="3231.44" y="-1495.96" font-family="Times New Roman,serif" font-size="14.00">black magic</text>
</g>
<!-- Entity69 -->
<g id="node37" class="node entity">
<title>Entity69</title>
<ellipse fill="none" stroke="black" cx="3352.66" cy="-1611.64" rx="28.7" ry="18"/>
<text text-anchor="start" x="3338.66" y="-1607.94" font-family="Times New Roman,serif" font-size="14.00">x left</text>
</g>
<!-- Entity40&#45;&gt;Entity69 -->
<g id="edge26" class="edge verb">
<title>Entity40&#45;&gt;Entity69</title>
<path fill="none" stroke="black" d="M3278.64,-1517.16C3293.45,-1536.05 3317.14,-1566.29 3333.72,-1587.45"/>
<polygon fill="black" stroke="black" points="3330.98,-1589.64 3339.9,-1595.36 3336.49,-1585.32 3330.98,-1589.64"/>
<text text-anchor="start" x="3260.18" y="-1556.11" font-family="Times New Roman,serif" font-size="14.00">member</text>
</g>
<!-- Entity15 -->
<g id="node39" class="node entity">
<title>Entity15</title>
<ellipse fill="none" stroke="black" cx="2815.08" cy="-2364.33" rx="27" ry="18"/>
<text text-anchor="start" x="2807.08" y="-2360.63" font-family="Times New Roman,serif" font-size="14.00">cia</text>
</g>
<!-- Entity33&#45;&gt;Entity15 -->
<g id="edge27" class="edge verb">
<title>Entity33&#45;&gt;Entity15</title>
<path fill="none" stroke="black" d="M2386.15,-2616.17C2465.83,-2569.39 2703.17,-2430.04 2786.09,-2381.35"/>
<polygon fill="black" stroke="black" points="2787.9,-2384.34 2794.75,-2376.26 2784.36,-2378.31 2787.9,-2384.34"/>
<text text-anchor="start" x="2540.12" y="-2502.56" font-family="Times New Roman,serif" font-size="14.00">member</text>
</g>
<!-- Entity77 -->
<g id="node50" class="node entity">
<title>Entity77</title>
<ellipse fill="none" stroke="black" cx="2617.45" cy="-3022.7" rx="50.89" ry="18"/>
<text text-anchor="start" x="2586.45" y="-3019" font-family="Times New Roman,serif" font-size="14.00">nikola tesla</text>
</g>
<!-- Entity33&#45;&gt;Entity77 -->
<g id="edge39" class="edge verb">
<title>Entity33&#45;&gt;Entity77</title>
<path fill="none" stroke="black" d="M2371.28,-2649.26C2412.32,-2711.52 2551.03,-2921.94 2600.09,-2996.36"/>
<polygon fill="black" stroke="black" points="2597.19,-2998.31 2605.61,-3004.74 2603.03,-2994.46 2597.19,-2998.31"/>
<text text-anchor="start" x="2454.68" y="-2826.61" font-family="Times New Roman,serif" font-size="14.00">study</text>
</g>
<!-- Entity15&#45;&gt;Entity61 -->
<g id="edge63" class="edge verb">
<title>Entity15&#45;&gt;Entity61</title>
<path fill="none" stroke="black" d="M2792.98,-2353.92C2731.25,-2324.87 2556.84,-2242.77 2484.8,-2208.86"/>
<polygon fill="black" stroke="black" points="2485.88,-2205.5 2475.34,-2204.4 2482.89,-2211.83 2485.88,-2205.5"/>
<text text-anchor="start" x="2574.89" y="-2285.19" font-family="Times New Roman,serif" font-size="14.00">investigates</text>
</g>
<!-- Entity15&#45;&gt;Entity56 -->
<g id="edge43" class="edge verb">
<title>Entity15&#45;&gt;Entity56</title>
<path fill="none" stroke="black" d="M2840.92,-2358.58C2935.7,-2337.5 3266.12,-2264.02 3408.32,-2232.39"/>
<polygon fill="black" stroke="black" points="3409.23,-2235.78 3418.23,-2230.19 3407.71,-2228.94 3409.23,-2235.78"/>
<text text-anchor="start" x="3060.62" y="-2299.29" font-family="Times New Roman,serif" font-size="14.00">investigates</text>
</g>
<!-- Entity20 -->
<g id="node40" class="node entity">
<title>Entity20</title>
<ellipse fill="none" stroke="black" cx="951.59" cy="-2393.7" rx="71.49" ry="18"/>
<text text-anchor="start" x="904.59" y="-2390" font-family="Times New Roman,serif" font-size="14.00">woodrow wilson</text>
</g>
<!-- Entity20&#45;&gt;Entity57 -->
<g id="edge34" class="edge verb">
<title>Entity20&#45;&gt;Entity57</title>
<path fill="none" stroke="black" d="M981.82,-2377.16C1075.21,-2326.05 1358.52,-2171.01 1453.77,-2118.88"/>
<polygon fill="black" stroke="black" points="1455.55,-2121.89 1462.65,-2114.02 1452.19,-2115.75 1455.55,-2121.89"/>
<text text-anchor="start" x="1207.8" y="-2251.82" font-family="Times New Roman,serif" font-size="14.00">is</text>
</g>
<!-- Entity66 -->
<g id="node41" class="node entity">
<title>Entity66</title>
<ellipse fill="none" stroke="black" cx="439.17" cy="-2754.88" rx="71.49" ry="18"/>
<text text-anchor="start" x="392.17" y="-2751.18" font-family="Times New Roman,serif" font-size="14.00">leauge of nations</text>
</g>
<!-- Entity20&#45;&gt;Entity66 -->
<g id="edge29" class="edge verb">
<title>Entity20&#45;&gt;Entity66</title>
<path fill="none" stroke="black" d="M927.22,-2410.88C843.42,-2469.95 567.02,-2664.77 471.77,-2731.91"/>
<polygon fill="black" stroke="black" points="469.55,-2729.19 463.39,-2737.81 473.58,-2734.91 469.55,-2729.19"/>
<text text-anchor="start" x="665.5" y="-2575.19" font-family="Times New Roman,serif" font-size="14.00">create</text>
</g>
<!-- Entity49&#45;&gt;Entity73 -->
<g id="edge40" class="edge verb">
<title>Entity49&#45;&gt;Entity73</title>
<path fill="none" stroke="black" d="M2694.5,-1088.6C2785.16,-1046.28 3041.1,-926.78 3136.85,-882.07"/>
<polygon fill="black" stroke="black" points="3138.56,-885.14 3146.14,-877.74 3135.6,-878.8 3138.56,-885.14"/>
<text text-anchor="start" x="2869.68" y="-989.14" font-family="Times New Roman,serif" font-size="14.00">member</text>
</g>
<!-- Entity39 -->
<g id="node43" class="node entity">
<title>Entity39</title>
<ellipse fill="none" stroke="black" cx="4632.79" cy="-1203.02" rx="57.69" ry="18"/>
<text text-anchor="start" x="4596.29" y="-1199.32" font-family="Times New Roman,serif" font-size="14.00">michael pane</text>
</g>
<!-- Entity39&#45;&gt;Entity44 -->
<g id="edge32" class="edge verb">
<title>Entity39&#45;&gt;Entity44</title>
<path fill="none" stroke="black" d="M4590.84,-1190.39C4498.2,-1162.51 4276.13,-1095.67 4171.34,-1064.13"/>
<polygon fill="black" stroke="black" points="4172.16,-1060.72 4161.57,-1061.19 4170.14,-1067.42 4172.16,-1060.72"/>
<text text-anchor="start" x="4327.09" y="-1131.06" font-family="Times New Roman,serif" font-size="14.00">employee</text>
</g>
<!-- Entity39&#45;&gt;Entity54 -->
<g id="edge50" class="edge verb">
<title>Entity39&#45;&gt;Entity54</title>
<path fill="none" stroke="black" d="M4619.36,-1220.76C4574.17,-1280.49 4427.41,-1474.45 4374.07,-1544.94"/>
<polygon fill="black" stroke="black" points="4370.99,-1543.21 4367.75,-1553.29 4376.58,-1547.43 4370.99,-1543.21"/>
<text text-anchor="start" x="4442.72" y="-1386.65" font-family="Times New Roman,serif" font-size="14.00">employee</text>
</g>
<!-- Entity42 -->
<g id="node45" class="node entity">
<title>Entity42</title>
<ellipse fill="none" stroke="black" cx="2756.94" cy="-1746.66" rx="39.79" ry="18"/>
<text text-anchor="start" x="2734.44" y="-1742.96" font-family="Times New Roman,serif" font-size="14.00">crowley</text>
</g>
<!-- Entity71 -->
<g id="node46" class="node entity">
<title>Entity71</title>
<ellipse fill="none" stroke="black" cx="2844.66" cy="-1858.64" rx="38.99" ry="18"/>
<text text-anchor="start" x="2822.66" y="-1854.94" font-family="Times New Roman,serif" font-size="14.00">x magic</text>
</g>
<!-- Entity42&#45;&gt;Entity71 -->
<g id="edge35" class="edge verb">
<title>Entity42&#45;&gt;Entity71</title>
<path fill="none" stroke="black" d="M2770.26,-1763.67C2784.82,-1782.25 2808.28,-1812.2 2824.96,-1833.49"/>
<polygon fill="black" stroke="black" points="2822.29,-1835.76 2831.21,-1841.47 2827.8,-1831.44 2822.29,-1835.76"/>
<text text-anchor="start" x="2751.61" y="-1802.38" font-family="Times New Roman,serif" font-size="14.00">member</text>
</g>
<!-- Entity3 -->
<g id="node47" class="node entity">
<title>Entity3</title>
<ellipse fill="none" stroke="black" cx="4214.02" cy="-2097.19" rx="56.59" ry="18"/>
<text text-anchor="start" x="4178.52" y="-2093.49" font-family="Times New Roman,serif" font-size="14.00">arthur young</text>
</g>
<!-- Entity3&#45;&gt;Entity8 -->
<g id="edge57" class="edge verb">
<title>Entity3&#45;&gt;Entity8</title>
<path fill="none" stroke="black" d="M4256.92,-2108.93C4359.99,-2137.13 4620.63,-2208.46 4723.69,-2236.66"/>
<polygon fill="black" stroke="black" points="4722.88,-2240.07 4733.45,-2239.33 4724.73,-2233.32 4722.88,-2240.07"/>
<text text-anchor="start" x="4444.31" y="-2176.6" font-family="Times New Roman,serif" font-size="14.00">member</text>
</g>
<!-- Entity3&#45;&gt;Entity54 -->
<g id="edge60" class="edge verb">
<title>Entity3&#45;&gt;Entity54</title>
<path fill="none" stroke="black" d="M4218.85,-2079.07C4239.68,-2001.02 4321.83,-1693.13 4347.06,-1598.6"/>
<polygon fill="black" stroke="black" points="4350.45,-1599.46 4349.65,-1588.9 4343.69,-1597.66 4350.45,-1599.46"/>
<text text-anchor="start" x="4248.96" y="-1842.64" font-family="Times New Roman,serif" font-size="14.00">create</text>
</g>
<!-- Entity3&#45;&gt;Entity56 -->
<g id="edge36" class="edge verb">
<title>Entity3&#45;&gt;Entity56</title>
<path fill="none" stroke="black" d="M4163.46,-2105.43C4035.34,-2126.3 3697.5,-2181.36 3547.63,-2205.78"/>
<polygon fill="black" stroke="black" points="3546.91,-2202.35 3537.6,-2207.41 3548.03,-2209.26 3546.91,-2202.35"/>
<text text-anchor="start" x="3824.55" y="-2159.4" font-family="Times New Roman,serif" font-size="14.00">study</text>
</g>
<!-- Entity19 -->
<g id="node48" class="node entity">
<title>Entity19</title>
<ellipse fill="none" stroke="black" cx="1139.05" cy="-1845.97" rx="58.49" ry="18"/>
<text text-anchor="start" x="1102.05" y="-1842.27" font-family="Times New Roman,serif" font-size="14.00">richard nixon</text>
</g>
<!-- Entity19&#45;&gt;Entity57 -->
<g id="edge37" class="edge verb">
<title>Entity19&#45;&gt;Entity57</title>
<path fill="none" stroke="black" d="M1161.78,-1862.74C1222.99,-1907.91 1391.18,-2032.03 1457.75,-2081.16"/>
<polygon fill="black" stroke="black" points="1455.96,-2084.19 1466.08,-2087.31 1460.12,-2078.56 1455.96,-2084.19"/>
<text text-anchor="start" x="1299.76" y="-1975.75" font-family="Times New Roman,serif" font-size="14.00">is</text>
</g>
<!-- Entity34 -->
<g id="node49" class="node entity">
<title>Entity34</title>
<ellipse fill="none" stroke="black" cx="1860.96" cy="-3330.2" rx="69.59" ry="18"/>
<text text-anchor="start" x="1815.46" y="-3326.5" font-family="Times New Roman,serif" font-size="14.00">andrew breitbart</text>
</g>
<!-- Entity34&#45;&gt;Entity65 -->
<g id="edge38" class="edge verb">
<title>Entity34&#45;&gt;Entity65</title>
<path fill="none" stroke="black" d="M1851.61,-3311.89C1842.86,-3294.72 1829.66,-3268.85 1819.68,-3249.31"/>
<polygon fill="black" stroke="black" points="1822.74,-3247.6 1815.08,-3240.28 1816.51,-3250.78 1822.74,-3247.6"/>
<text text-anchor="start" x="1801.65" y="-3284.4" font-family="Times New Roman,serif" font-size="14.00">create</text>
</g>
<!-- Entity11 -->
<g id="node52" class="node entity">
<title>Entity11</title>
<ellipse fill="none" stroke="black" cx="1419.81" cy="-1755.39" rx="35.19" ry="18"/>
<text text-anchor="start" x="1400.81" y="-1751.69" font-family="Times New Roman,serif" font-size="14.00">obama</text>
</g>
<!-- Entity11&#45;&gt;Entity57 -->
<g id="edge42" class="edge verb">
<title>Entity11&#45;&gt;Entity57</title>
<path fill="none" stroke="black" d="M1423.24,-1773.51C1434,-1830.3 1467.11,-2005.03 1480.1,-2073.57"/>
<polygon fill="black" stroke="black" points="1476.7,-2074.45 1482,-2083.62 1483.58,-2073.15 1476.7,-2074.45"/>
<text text-anchor="start" x="1441.67" y="-1927.34" font-family="Times New Roman,serif" font-size="14.00">is</text>
</g>
<!-- Entity28 -->
<g id="node53" class="node entity">
<title>Entity28</title>
<ellipse fill="none" stroke="black" cx="1075.91" cy="-125.61" rx="58.49" ry="18"/>
<text text-anchor="start" x="1038.91" y="-121.91" font-family="Times New Roman,serif" font-size="14.00">rudolf steiner</text>
</g>
<!-- Entity28&#45;&gt;Entity63 -->
<g id="edge64" class="edge verb">
<title>Entity28&#45;&gt;Entity63</title>
<path fill="none" stroke="black" d="M1065.64,-143.49C1012.04,-236.86 764.3,-668.36 699.92,-780.51"/>
<polygon fill="black" stroke="black" points="696.87,-778.78 694.93,-789.19 702.94,-782.26 696.87,-778.78"/>
<text text-anchor="start" x="836.78" y="-465.8" font-family="Times New Roman,serif" font-size="14.00">member</text>
</g>
<!-- Entity68 -->
<g id="node54" class="node entity">
<title>Entity68</title>
<ellipse fill="none" stroke="black" cx="1161.88" cy="-17.69" rx="102.08" ry="18"/>
<text text-anchor="start" x="1091.38" y="-13.99" font-family="Times New Roman,serif" font-size="14.00">anthroposophical society</text>
</g>
<!-- Entity28&#45;&gt;Entity68 -->
<g id="edge44" class="edge verb">
<title>Entity28&#45;&gt;Entity68</title>
<path fill="none" stroke="black" d="M1090.1,-107.79C1104.04,-90.3 1125.46,-63.42 1141.27,-43.57"/>
<polygon fill="black" stroke="black" points="1144.17,-45.54 1147.66,-35.54 1138.7,-41.18 1144.17,-45.54"/>
<text text-anchor="start" x="1081.69" y="-79.48" font-family="Times New Roman,serif" font-size="14.00">create</text>
</g>
<!-- Entity80 -->
<g id="node57" class="node entity">
<title>Entity80</title>
<ellipse fill="none" stroke="black" cx="3484.94" cy="-2734.66" rx="27" ry="18"/>
<text text-anchor="start" x="3474.94" y="-2730.96" font-family="Times New Roman,serif" font-size="14.00">foo</text>
</g>
<!-- Entity81 -->
<g id="node58" class="node entity">
<title>Entity81</title>
<ellipse fill="none" stroke="black" cx="3572.66" cy="-2846.64" rx="27" ry="18"/>
<text text-anchor="start" x="3562.66" y="-2842.94" font-family="Times New Roman,serif" font-size="14.00">baz</text>
</g>
<!-- Entity80&#45;&gt;Entity81 -->
<g id="edge53" class="edge verb">
<title>Entity80&#45;&gt;Entity81</title>
<path fill="none" stroke="black" d="M3497.51,-2750.7C3512.23,-2769.5 3536.76,-2800.82 3553.78,-2822.53"/>
<polygon fill="black" stroke="black" points="3551.19,-2824.91 3560.11,-2830.62 3556.7,-2820.59 3551.19,-2824.91"/>
<text text-anchor="start" x="3505.64" y="-2790.42" font-family="Times New Roman,serif" font-size="14.00">baz</text>
</g>
<!-- Entity23 -->
<g id="node60" class="node entity">
<title>Entity23</title>
<ellipse fill="none" stroke="black" cx="396.73" cy="-2512" rx="53.89" ry="18"/>
<text text-anchor="start" x="363.23" y="-2508.3" font-family="Times New Roman,serif" font-size="14.00">edgar casey</text>
</g>
<!-- Entity23&#45;&gt;Entity20 -->
<g id="edge58" class="edge verb">
<title>Entity23&#45;&gt;Entity20</title>
<path fill="none" stroke="black" d="M442.61,-2502.22C541.16,-2481.21 773.3,-2431.72 886.81,-2407.52"/>
<polygon fill="black" stroke="black" points="887.71,-2410.9 896.76,-2405.39 886.25,-2404.06 887.71,-2410.9"/>
<text text-anchor="start" x="628.71" y="-2458.67" font-family="Times New Roman,serif" font-size="14.00">advise</text>
</g>
</g>
</svg>
