<?xml version="1.0" encoding="UTF-8" standalone="no"?>
<?xml-stylesheet href="../styles.css" type="text/css"?>
<!DOCTYPE svg PUBLIC "-//W3C//DTD SVG 1.1//EN"
 "http://www.w3.org/Graphics/SVG/1.1/DTD/svg11.dtd">
<!-- Generated by graphviz version 2.47.3 (20210619.1520)
 -->
<!-- Title: G Pages: 1 -->
<svg width="6438pt" height="5033pt"
 viewBox="0.00 0.00 6438.00 5033.00" xmlns="http://www.w3.org/2000/svg" xmlns:xlink="http://www.w3.org/1999/xlink">
<g id="graph0" class="graph" transform="scale(1 1) rotate(0) translate(4 5029)">
<title>G</title>
<polygon fill="white" stroke="transparent" points="-4,4 -4,-5029 6434,-5029 6434,4 -4,4"/>
<!-- Entity1 -->
<g id="node1" class="node entity">
<title>Entity1</title>
<ellipse fill="none" stroke="black" cx="3654.62" cy="-2614.66" rx="75.29" ry="18"/>
<text text-anchor="start" x="3604.62" y="-2610.96" font-family="Times New Roman,serif" font-size="14.00">lee harvey oswald</text>
</g>
<!-- Entity16 -->
<g id="node2" class="node entity">
<title>Entity16</title>
<ellipse fill="none" stroke="black" cx="2768.68" cy="-2597.06" rx="64.19" ry="18"/>
<text text-anchor="start" x="2727.18" y="-2593.36" font-family="Times New Roman,serif" font-size="14.00">john f kennedy</text>
</g>
<!-- Entity1&#45;&gt;Entity16 -->
<g id="edge1" class="edge verb">
<title>Entity1&#45;&gt;Entity16</title>
<path fill="none" stroke="black" d="M3579.47,-2613.17C3411.99,-2609.84 3009.76,-2601.85 2843.03,-2598.54"/>
<polygon fill="black" stroke="black" points="2842.94,-2595.04 2832.87,-2598.34 2842.8,-2602.04 2842.94,-2595.04"/>
<text text-anchor="start" x="3149.25" y="-2609.66" font-family="Times New Roman,serif" font-size="14.00">assassinate</text>
</g>
<!-- Entity56 -->
<g id="node48" class="node entity">
<title>Entity56</title>
<ellipse fill="none" stroke="black" cx="4281.6" cy="-3078.09" rx="59.29" ry="18"/>
<text text-anchor="start" x="4244.1" y="-3074.39" font-family="Times New Roman,serif" font-size="14.00">guy bannister</text>
</g>
<!-- Entity1&#45;&gt;Entity56 -->
<g id="edge48" class="edge verb">
<title>Entity1&#45;&gt;Entity56</title>
<path fill="none" stroke="black" d="M3678.06,-2631.99C3774.59,-2703.34 4141.52,-2974.55 4250.75,-3055.29"/>
<polygon fill="black" stroke="black" points="4248.92,-3058.29 4259.04,-3061.42 4253.08,-3052.66 4248.92,-3058.29"/>
<text text-anchor="start" x="3910.4" y="-2847.44" font-family="Times New Roman,serif" font-size="14.00">employee</text>
</g>
<!-- Entity60 -->
<g id="node10" class="node entity">
<title>Entity60</title>
<ellipse fill="none" stroke="black" cx="2042.1" cy="-2401.55" rx="31.4" ry="18"/>
<text text-anchor="start" x="2026.1" y="-2397.85" font-family="Times New Roman,serif" font-size="14.00">potus</text>
</g>
<!-- Entity16&#45;&gt;Entity60 -->
<g id="edge7" class="edge verb">
<title>Entity16&#45;&gt;Entity60</title>
<path fill="none" stroke="black" d="M2722.12,-2584.54C2588.08,-2548.47 2203,-2444.85 2080.21,-2411.81"/>
<polygon fill="black" stroke="black" points="2081.05,-2408.41 2070.49,-2409.19 2079.23,-2415.17 2081.05,-2408.41"/>
<text text-anchor="start" x="2391.16" y="-2486.97" font-family="Times New Roman,serif" font-size="14.00">is</text>
</g>
<!-- Entity5 -->
<g id="node3" class="node entity">
<title>Entity5</title>
<ellipse fill="none" stroke="black" cx="3608.16" cy="-38.48" rx="64.19" ry="18"/>
<text text-anchor="start" x="3566.66" y="-34.78" font-family="Times New Roman,serif" font-size="14.00">andre puharich</text>
</g>
<!-- Entity2 -->
<g id="node4" class="node entity">
<title>Entity2</title>
<ellipse fill="none" stroke="black" cx="3771.17" cy="-652.99" rx="41.69" ry="18"/>
<text text-anchor="start" x="3747.17" y="-649.29" font-family="Times New Roman,serif" font-size="14.00">uri geller</text>
</g>
<!-- Entity5&#45;&gt;Entity2 -->
<g id="edge2" class="edge verb">
<title>Entity5&#45;&gt;Entity2</title>
<path fill="none" stroke="black" d="M3612.95,-56.54C3636.01,-143.46 3735.6,-518.9 3763.74,-624.98"/>
<polygon fill="black" stroke="black" points="3760.43,-626.16 3766.38,-634.93 3767.2,-624.37 3760.43,-626.16"/>
<text text-anchor="start" x="3636.34" y="-344.56" font-family="Times New Roman,serif" font-size="14.00">sponsore</text>
</g>
<!-- Entity19 -->
<g id="node6" class="node entity">
<title>Entity19</title>
<ellipse fill="none" stroke="black" cx="4083.8" cy="-734.46" rx="38.19" ry="18"/>
<text text-anchor="start" x="4062.3" y="-730.76" font-family="Times New Roman,serif" font-size="14.00">the nine</text>
</g>
<!-- Entity2&#45;&gt;Entity19 -->
<g id="edge24" class="edge verb">
<title>Entity2&#45;&gt;Entity19</title>
<path fill="none" stroke="black" d="M3807.03,-662.34C3864.76,-677.38 3978.12,-706.92 4040.35,-723.14"/>
<polygon fill="black" stroke="black" points="4039.69,-726.59 4050.25,-725.72 4041.46,-719.81 4039.69,-726.59"/>
<text text-anchor="start" x="3819.69" y="-696.54" font-family="Times New Roman,serif" font-size="14.00">claiemd to channel</text>
</g>
<!-- Entity4 -->
<g id="node5" class="node entity">
<title>Entity4</title>
<ellipse fill="none" stroke="black" cx="4298.39" cy="-1265.07" rx="65.79" ry="18"/>
<text text-anchor="start" x="4255.89" y="-1261.37" font-family="Times New Roman,serif" font-size="14.00">arthur m young</text>
</g>
<!-- Entity4&#45;&gt;Entity19 -->
<g id="edge3" class="edge verb">
<title>Entity4&#45;&gt;Entity19</title>
<path fill="none" stroke="black" d="M4291.12,-1247.12C4259.44,-1168.78 4133.22,-856.66 4094.89,-761.89"/>
<polygon fill="black" stroke="black" points="4098.05,-760.38 4091.06,-752.42 4091.57,-763 4098.05,-760.38"/>
<text text-anchor="start" x="4147.01" y="-1008.3" font-family="Times New Roman,serif" font-size="14.00">member</text>
</g>
<!-- Entity61 -->
<g id="node8" class="node entity">
<title>Entity61</title>
<ellipse fill="none" stroke="black" cx="4843.6" cy="-1289.56" rx="53.89" ry="18"/>
<text text-anchor="start" x="4810.1" y="-1285.86" font-family="Times New Roman,serif" font-size="14.00">bell aviation</text>
</g>
<!-- Entity4&#45;&gt;Entity61 -->
<g id="edge59" class="edge verb">
<title>Entity4&#45;&gt;Entity61</title>
<path fill="none" stroke="black" d="M4363.34,-1267.99C4468.68,-1272.72 4675.5,-1282.01 4779.98,-1286.71"/>
<polygon fill="black" stroke="black" points="4779.92,-1290.21 4790.07,-1287.16 4780.24,-1283.21 4779.92,-1290.21"/>
<text text-anchor="start" x="4537.66" y="-1281.15" font-family="Times New Roman,serif" font-size="14.00">create</text>
</g>
<!-- Entity58 -->
<g id="node45" class="node entity">
<title>Entity58</title>
<ellipse fill="none" stroke="black" cx="3578.53" cy="-1397.65" rx="77.19" ry="18"/>
<text text-anchor="start" x="3527.03" y="-1393.95" font-family="Times New Roman,serif" font-size="14.00">psi&#45;consciousness</text>
</g>
<!-- Entity4&#45;&gt;Entity58 -->
<g id="edge46" class="edge verb">
<title>Entity4&#45;&gt;Entity58</title>
<path fill="none" stroke="black" d="M4243.69,-1275.15C4114.88,-1298.87 3792.54,-1358.23 3649.18,-1384.64"/>
<polygon fill="black" stroke="black" points="3648.38,-1381.23 3639.18,-1386.48 3649.64,-1388.11 3648.38,-1381.23"/>
<text text-anchor="start" x="3915.44" y="-1333.69" font-family="Times New Roman,serif" font-size="14.00">study</text>
</g>
<!-- Entity63 -->
<g id="node58" class="node entity">
<title>Entity63</title>
<ellipse fill="none" stroke="black" cx="4398.52" cy="-558.81" rx="94.48" ry="18"/>
<text text-anchor="start" x="4334.02" y="-555.11" font-family="Times New Roman,serif" font-size="14.00">egyptian gods in a ship</text>
</g>
<!-- Entity19&#45;&gt;Entity63 -->
<g id="edge61" class="edge verb">
<title>Entity19&#45;&gt;Entity63</title>
<path fill="none" stroke="black" d="M4108.5,-720.68C4162.75,-690.4 4292.73,-617.85 4358.69,-581.04"/>
<polygon fill="black" stroke="black" points="4360.53,-584.02 4367.56,-576.09 4357.12,-577.91 4360.53,-584.02"/>
<text text-anchor="start" x="4203.59" y="-654.66" font-family="Times New Roman,serif" font-size="14.00">claim</text>
</g>
<!-- Entity49 -->
<g id="node7" class="node entity">
<title>Entity49</title>
<ellipse fill="none" stroke="black" cx="5802.73" cy="-457.5" rx="57.69" ry="18"/>
<text text-anchor="start" x="5766.23" y="-453.8" font-family="Times New Roman,serif" font-size="14.00">michael pane</text>
</g>
<!-- Entity49&#45;&gt;Entity61 -->
<g id="edge4" class="edge verb">
<title>Entity49&#45;&gt;Entity61</title>
<path fill="none" stroke="black" d="M5783.14,-474.49C5661.75,-579.8 5012.93,-1142.67 4871.03,-1265.77"/>
<polygon fill="black" stroke="black" points="4868.42,-1263.4 4863.16,-1272.59 4873.01,-1268.68 4868.42,-1263.4"/>
<text text-anchor="start" x="5273.08" y="-873.93" font-family="Times New Roman,serif" font-size="14.00">employee</text>
</g>
<!-- Entity46 -->
<g id="node9" class="node entity">
<title>Entity46</title>
<ellipse fill="none" stroke="black" cx="5298.04" cy="-1778.71" rx="74.99" ry="18"/>
<text text-anchor="start" x="5248.54" y="-1775.01" font-family="Times New Roman,serif" font-size="14.00">walter dornberger</text>
</g>
<!-- Entity49&#45;&gt;Entity46 -->
<g id="edge42" class="edge verb">
<title>Entity49&#45;&gt;Entity46</title>
<path fill="none" stroke="black" d="M5795.79,-475.67C5740.77,-619.71 5375.53,-1575.86 5308.58,-1751.14"/>
<polygon fill="black" stroke="black" points="5305.23,-1750.08 5304.94,-1760.67 5311.77,-1752.58 5305.23,-1750.08"/>
<text text-anchor="start" x="5498.18" y="-1117.21" font-family="Times New Roman,serif" font-size="14.00">employee</text>
</g>
<!-- Entity46&#45;&gt;Entity61 -->
<g id="edge5" class="edge verb">
<title>Entity46&#45;&gt;Entity61</title>
<path fill="none" stroke="black" d="M5285.09,-1760.94C5223.04,-1686.38 4956.78,-1399.46 4870.58,-1313.79"/>
<polygon fill="black" stroke="black" points="4872.85,-1311.12 4863.27,-1306.6 4867.94,-1316.11 4872.85,-1311.12"/>
<text text-anchor="start" x="5023.83" y="-1526.17" font-family="Times New Roman,serif" font-size="14.00">employee</text>
</g>
<!-- Entity46&#45;&gt;Entity61 -->
<g id="edge6" class="edge verb">
<title>Entity46&#45;&gt;Entity61</title>
<path fill="none" stroke="black" d="M5277.86,-1761.18C5202.31,-1687.37 4937.52,-1402.48 4863.11,-1315.12"/>
<polygon fill="black" stroke="black" points="4865.64,-1312.69 4856.52,-1307.3 4860.29,-1317.2 4865.64,-1312.69"/>
<text text-anchor="start" x="4991.48" y="-1541.95" font-family="Times New Roman,serif" font-size="14.00">vice&#45;president</text>
</g>
<!-- Entity54 -->
<g id="node42" class="node entity">
<title>Entity54</title>
<ellipse fill="none" stroke="black" cx="5155.95" cy="-2180.01" rx="32.49" ry="18"/>
<text text-anchor="start" x="5138.95" y="-2176.31" font-family="Times New Roman,serif" font-size="14.00">nsdap</text>
</g>
<!-- Entity46&#45;&gt;Entity54 -->
<g id="edge43" class="edge verb">
<title>Entity46&#45;&gt;Entity54</title>
<path fill="none" stroke="black" d="M5291.66,-1796.74C5269.08,-1860.52 5192.84,-2075.83 5165.67,-2152.56"/>
<polygon fill="black" stroke="black" points="5162.35,-2151.44 5162.31,-2162.03 5168.95,-2153.77 5162.35,-2151.44"/>
<text text-anchor="start" x="5182.66" y="-1978.45" font-family="Times New Roman,serif" font-size="14.00">member</text>
</g>
<!-- Entity73 -->
<g id="node51" class="node entity">
<title>Entity73</title>
<ellipse fill="none" stroke="black" cx="5546.59" cy="-1567.14" rx="90.98" ry="18"/>
<text text-anchor="start" x="5484.59" y="-1563.44" font-family="Times New Roman,serif" font-size="14.00">nsdap rocket program</text>
</g>
<!-- Entity46&#45;&gt;Entity73 -->
<g id="edge51" class="edge verb">
<title>Entity46&#45;&gt;Entity73</title>
<path fill="none" stroke="black" d="M5318.81,-1761.04C5363.22,-1723.24 5467.49,-1634.48 5518.07,-1591.42"/>
<polygon fill="black" stroke="black" points="5520.36,-1594.06 5525.71,-1584.91 5515.83,-1588.73 5520.36,-1594.06"/>
<text text-anchor="start" x="5384.44" y="-1680.03" font-family="Times New Roman,serif" font-size="14.00">create</text>
</g>
<!-- Entity79 -->
<g id="node54" class="node entity">
<title>Entity79</title>
<ellipse fill="none" stroke="black" cx="6364.74" cy="-2068.28" rx="65.79" ry="18"/>
<text text-anchor="start" x="6322.24" y="-2064.58" font-family="Times New Roman,serif" font-size="14.00">x series aircraft</text>
</g>
<!-- Entity46&#45;&gt;Entity79 -->
<g id="edge53" class="edge verb">
<title>Entity46&#45;&gt;Entity79</title>
<path fill="none" stroke="black" d="M5347.71,-1792.2C5524.19,-1840.11 6120.52,-2001.99 6307.9,-2052.85"/>
<polygon fill="black" stroke="black" points="6307.26,-2056.31 6317.83,-2055.55 6309.09,-2049.55 6307.26,-2056.31"/>
<text text-anchor="start" x="5793.81" y="-1926.33" font-family="Times New Roman,serif" font-size="14.00">create</text>
</g>
<!-- Entity18 -->
<g id="node11" class="node entity">
<title>Entity18</title>
<ellipse fill="none" stroke="black" cx="1952.48" cy="-2217.74" rx="63.89" ry="18"/>
<text text-anchor="start" x="1911.48" y="-2214.04" font-family="Times New Roman,serif" font-size="14.00">george w bush</text>
</g>
<!-- Entity18&#45;&gt;Entity60 -->
<g id="edge8" class="edge verb">
<title>Entity18&#45;&gt;Entity60</title>
<path fill="none" stroke="black" d="M1961.23,-2235.7C1977.04,-2268.12 2010.43,-2336.59 2028.98,-2374.64"/>
<polygon fill="black" stroke="black" points="2026.04,-2376.6 2033.57,-2384.06 2032.33,-2373.54 2026.04,-2376.6"/>
<text text-anchor="start" x="1985.1" y="-2308.97" font-family="Times New Roman,serif" font-size="14.00">is</text>
</g>
<!-- Entity11 -->
<g id="node12" class="node entity">
<title>Entity11</title>
<ellipse fill="none" stroke="black" cx="2557.99" cy="-2977.02" rx="59.59" ry="18"/>
<text text-anchor="start" x="2519.99" y="-2973.32" font-family="Times New Roman,serif" font-size="14.00">donald trump</text>
</g>
<!-- Entity11&#45;&gt;Entity60 -->
<g id="edge9" class="edge verb">
<title>Entity11&#45;&gt;Entity60</title>
<path fill="none" stroke="black" d="M2542.27,-2959.49C2467.61,-2876.21 2148.94,-2520.73 2063.34,-2425.24"/>
<polygon fill="black" stroke="black" points="2065.74,-2422.68 2056.46,-2417.57 2060.53,-2427.35 2065.74,-2422.68"/>
<text text-anchor="start" x="2292.8" y="-2696.16" font-family="Times New Roman,serif" font-size="14.00">is</text>
</g>
<!-- Entity35 -->
<g id="node34" class="node entity">
<title>Entity35</title>
<ellipse fill="none" stroke="black" cx="2940.2" cy="-2228.49" rx="50.09" ry="18"/>
<text text-anchor="start" x="2909.7" y="-2224.79" font-family="Times New Roman,serif" font-size="14.00">john trump</text>
</g>
<!-- Entity11&#45;&gt;Entity35 -->
<g id="edge38" class="edge verb">
<title>Entity11&#45;&gt;Entity35</title>
<path fill="none" stroke="black" d="M2567.25,-2958.89C2618.26,-2858.99 2864.92,-2375.92 2926.33,-2255.65"/>
<polygon fill="black" stroke="black" points="2929.63,-2256.88 2931.06,-2246.38 2923.4,-2253.69 2929.63,-2256.88"/>
<text text-anchor="start" x="2703.79" y="-2611.07" font-family="Times New Roman,serif" font-size="14.00">nephew</text>
</g>
<!-- Entity9 -->
<g id="node13" class="node entity">
<title>Entity9</title>
<ellipse fill="none" stroke="black" cx="1537.39" cy="-2526.88" rx="56.59" ry="18"/>
<text text-anchor="start" x="1501.89" y="-2523.18" font-family="Times New Roman,serif" font-size="14.00">harry truman</text>
</g>
<!-- Entity9&#45;&gt;Entity60 -->
<g id="edge10" class="edge verb">
<title>Entity9&#45;&gt;Entity60</title>
<path fill="none" stroke="black" d="M1582.18,-2515.76C1680.08,-2491.45 1911.69,-2433.93 2003.58,-2411.12"/>
<polygon fill="black" stroke="black" points="2004.44,-2414.51 2013.31,-2408.7 2002.76,-2407.71 2004.44,-2414.51"/>
<text text-anchor="start" x="1782.88" y="-2467.24" font-family="Times New Roman,serif" font-size="14.00">is</text>
</g>
<!-- Entity59 -->
<g id="node59" class="node entity">
<title>Entity59</title>
<ellipse fill="none" stroke="black" cx="427.17" cy="-2583.04" rx="55.79" ry="18"/>
<text text-anchor="start" x="392.17" y="-2579.34" font-family="Times New Roman,serif" font-size="14.00">freemasonry</text>
</g>
<!-- Entity9&#45;&gt;Entity59 -->
<g id="edge62" class="edge verb">
<title>Entity9&#45;&gt;Entity59</title>
<path fill="none" stroke="black" d="M1481.19,-2529.72C1294.13,-2539.19 693.05,-2569.59 492.78,-2579.72"/>
<polygon fill="black" stroke="black" points="492.52,-2576.23 482.71,-2580.23 492.87,-2583.22 492.52,-2576.23"/>
<text text-anchor="start" x="940.99" y="-2558.52" font-family="Times New Roman,serif" font-size="14.00">member</text>
</g>
<!-- Entity13 -->
<g id="node14" class="node entity">
<title>Entity13</title>
<ellipse fill="none" stroke="black" cx="1464.5" cy="-2151.66" rx="58.49" ry="18"/>
<text text-anchor="start" x="1427.5" y="-2147.96" font-family="Times New Roman,serif" font-size="14.00">richard nixon</text>
</g>
<!-- Entity13&#45;&gt;Entity60 -->
<g id="edge11" class="edge verb">
<title>Entity13&#45;&gt;Entity60</title>
<path fill="none" stroke="black" d="M1498.47,-2166.36C1600.73,-2210.6 1904.89,-2342.19 2007.7,-2386.67"/>
<polygon fill="black" stroke="black" points="2006.44,-2389.94 2017.01,-2390.7 2009.22,-2383.51 2006.44,-2389.94"/>
<text text-anchor="start" x="1743.09" y="-2280.31" font-family="Times New Roman,serif" font-size="14.00">is</text>
</g>
<!-- Entity14 -->
<g id="node15" class="node entity">
<title>Entity14</title>
<ellipse fill="none" stroke="black" cx="2340.42" cy="-1853.03" rx="31.4" ry="18"/>
<text text-anchor="start" x="2324.42" y="-1849.33" font-family="Times New Roman,serif" font-size="14.00">carter</text>
</g>
<!-- Entity14&#45;&gt;Entity60 -->
<g id="edge12" class="edge verb">
<title>Entity14&#45;&gt;Entity60</title>
<path fill="none" stroke="black" d="M2331,-1870.36C2287.82,-1949.76 2108.66,-2279.17 2056.44,-2375.18"/>
<polygon fill="black" stroke="black" points="2053.23,-2373.77 2051.52,-2384.22 2059.38,-2377.11 2053.23,-2373.77"/>
<text text-anchor="start" x="2183.72" y="-2126.57" font-family="Times New Roman,serif" font-size="14.00">is</text>
</g>
<!-- Entity64 -->
<g id="node16" class="node entity">
<title>Entity64</title>
<ellipse fill="none" stroke="black" cx="2621.98" cy="-1531.14" rx="27" ry="18"/>
<text text-anchor="start" x="2612.48" y="-1527.44" font-family="Times New Roman,serif" font-size="14.00">ufo</text>
</g>
<!-- Entity14&#45;&gt;Entity64 -->
<g id="edge13" class="edge verb">
<title>Entity14&#45;&gt;Entity64</title>
<path fill="none" stroke="black" d="M2354.77,-1836.63C2401.21,-1783.54 2547.51,-1616.27 2601.61,-1554.43"/>
<polygon fill="black" stroke="black" points="2604.37,-1556.59 2608.32,-1546.75 2599.1,-1551.98 2604.37,-1556.59"/>
<text text-anchor="start" x="2436.19" y="-1699.33" font-family="Times New Roman,serif" font-size="14.00">witness</text>
</g>
<!-- Entity17 -->
<g id="node17" class="node entity">
<title>Entity17</title>
<ellipse fill="none" stroke="black" cx="1986.39" cy="-1743.28" rx="35.19" ry="18"/>
<text text-anchor="start" x="1967.39" y="-1739.58" font-family="Times New Roman,serif" font-size="14.00">obama</text>
</g>
<!-- Entity17&#45;&gt;Entity60 -->
<g id="edge14" class="edge verb">
<title>Entity17&#45;&gt;Entity60</title>
<path fill="none" stroke="black" d="M1987.94,-1761.58C1995.69,-1853.11 2030.24,-2261.43 2039.7,-2373.19"/>
<polygon fill="black" stroke="black" points="2036.23,-2373.68 2040.56,-2383.35 2043.2,-2373.09 2036.23,-2373.68"/>
<text text-anchor="start" x="2003.82" y="-2071.18" font-family="Times New Roman,serif" font-size="14.00">is</text>
</g>
<!-- Entity10 -->
<g id="node18" class="node entity">
<title>Entity10</title>
<ellipse fill="none" stroke="black" cx="1501" cy="-2340.75" rx="68.49" ry="18"/>
<text text-anchor="start" x="1456.5" y="-2337.05" font-family="Times New Roman,serif" font-size="14.00">george hw bush</text>
</g>
<!-- Entity10&#45;&gt;Entity60 -->
<g id="edge15" class="edge verb">
<title>Entity10&#45;&gt;Entity60</title>
<path fill="none" stroke="black" d="M1563.87,-2347.81C1676.07,-2360.42 1907.82,-2386.46 2001.49,-2396.99"/>
<polygon fill="black" stroke="black" points="2001.1,-2400.47 2011.43,-2398.1 2001.89,-2393.51 2001.1,-2400.47"/>
<text text-anchor="start" x="1772.68" y="-2376.2" font-family="Times New Roman,serif" font-size="14.00">is</text>
</g>
<!-- Entity10&#45;&gt;Entity18 -->
<g id="edge29" class="edge verb">
<title>Entity10&#45;&gt;Entity18</title>
<path fill="none" stroke="black" d="M1548.89,-2327.7C1633.11,-2304.76 1807.25,-2257.31 1896.73,-2232.92"/>
<polygon fill="black" stroke="black" points="1897.7,-2236.29 1906.43,-2230.28 1895.86,-2229.53 1897.7,-2236.29"/>
<text text-anchor="start" x="1690.81" y="-2284.11" font-family="Times New Roman,serif" font-size="14.00">father</text>
</g>
<!-- Entity26 -->
<g id="node19" class="node entity">
<title>Entity26</title>
<ellipse fill="none" stroke="black" cx="2059.96" cy="-802.25" rx="58.49" ry="18"/>
<text text-anchor="start" x="2022.96" y="-798.55" font-family="Times New Roman,serif" font-size="14.00">rudolf steiner</text>
</g>
<!-- Entity68 -->
<g id="node20" class="node entity">
<title>Entity68</title>
<ellipse fill="none" stroke="black" cx="2060.78" cy="-41.37" rx="102.08" ry="18"/>
<text text-anchor="start" x="1990.28" y="-37.67" font-family="Times New Roman,serif" font-size="14.00">anthroposophical society</text>
</g>
<!-- Entity26&#45;&gt;Entity68 -->
<g id="edge16" class="edge verb">
<title>Entity26&#45;&gt;Entity68</title>
<path fill="none" stroke="black" d="M2059.98,-784.19C2060.09,-683.7 2060.62,-193.51 2060.75,-69.78"/>
<polygon fill="black" stroke="black" points="2064.25,-69.6 2060.76,-59.6 2057.25,-69.59 2064.25,-69.6"/>
<text text-anchor="start" x="2026.36" y="-430.78" font-family="Times New Roman,serif" font-size="14.00">create</text>
</g>
<!-- Entity66 -->
<g id="node23" class="node entity">
<title>Entity66</title>
<ellipse fill="none" stroke="black" cx="1238" cy="-776.22" rx="85.29" ry="18"/>
<text text-anchor="start" x="1180.5" y="-772.52" font-family="Times New Roman,serif" font-size="14.00">theosophical society</text>
</g>
<!-- Entity26&#45;&gt;Entity66 -->
<g id="edge21" class="edge verb">
<title>Entity26&#45;&gt;Entity66</title>
<path fill="none" stroke="black" d="M2001.5,-800.39C1861.08,-795.95 1503.72,-784.63 1332.4,-779.21"/>
<polygon fill="black" stroke="black" points="1332.49,-775.71 1322.38,-778.89 1332.27,-782.7 1332.49,-775.71"/>
<text text-anchor="start" x="1620.95" y="-793.6" font-family="Times New Roman,serif" font-size="14.00">member</text>
</g>
<!-- Entity22 -->
<g id="node21" class="node entity">
<title>Entity22</title>
<ellipse fill="none" stroke="black" cx="3209.78" cy="-1674.24" rx="27" ry="18"/>
<text text-anchor="start" x="3201.78" y="-1670.54" font-family="Times New Roman,serif" font-size="14.00">cia</text>
</g>
<!-- Entity22&#45;&gt;Entity64 -->
<g id="edge17" class="edge verb">
<title>Entity22&#45;&gt;Entity64</title>
<path fill="none" stroke="black" d="M3184.14,-1668C3090.28,-1645.15 2765.19,-1566.01 2657.17,-1539.71"/>
<polygon fill="black" stroke="black" points="2657.96,-1536.3 2647.41,-1537.33 2656.3,-1543.1 2657.96,-1536.3"/>
<text text-anchor="start" x="2856.66" y="-1607.65" font-family="Times New Roman,serif" font-size="14.00">investigates</text>
</g>
<!-- Entity22&#45;&gt;Entity58 -->
<g id="edge63" class="edge verb">
<title>Entity22&#45;&gt;Entity58</title>
<path fill="none" stroke="black" d="M3227.81,-1660.71C3286.57,-1616.64 3472.96,-1476.83 3547.39,-1421.01"/>
<polygon fill="black" stroke="black" points="3549.58,-1423.74 3555.48,-1414.93 3545.38,-1418.14 3549.58,-1423.74"/>
<text text-anchor="start" x="3323.6" y="-1544.66" font-family="Times New Roman,serif" font-size="14.00">investigates</text>
</g>
<!-- Entity28 -->
<g id="node22" class="node entity">
<title>Entity28</title>
<ellipse fill="none" stroke="black" cx="1050.11" cy="-97.78" rx="73.39" ry="18"/>
<text text-anchor="start" x="1001.61" y="-94.08" font-family="Times New Roman,serif" font-size="14.00">madam blavatsky</text>
</g>
<!-- Entity28&#45;&gt;Entity66 -->
<g id="edge18" class="edge verb">
<title>Entity28&#45;&gt;Entity66</title>
<path fill="none" stroke="black" d="M1055.14,-115.93C1080.97,-209.21 1198.83,-634.79 1230.27,-748.31"/>
<polygon fill="black" stroke="black" points="1226.91,-749.31 1232.96,-758.01 1233.66,-747.44 1226.91,-749.31"/>
<text text-anchor="start" x="1108.7" y="-435.92" font-family="Times New Roman,serif" font-size="14.00">create</text>
</g>
<!-- Entity24 -->
<g id="node24" class="node entity">
<title>Entity24</title>
<ellipse fill="none" stroke="black" cx="2401.75" cy="-2286.87" rx="71.49" ry="18"/>
<text text-anchor="start" x="2354.75" y="-2283.17" font-family="Times New Roman,serif" font-size="14.00">woodrow wilson</text>
</g>
<!-- Entity24&#45;&gt;Entity60 -->
<g id="edge20" class="edge verb">
<title>Entity24&#45;&gt;Entity60</title>
<path fill="none" stroke="black" d="M2357.29,-2301.05C2285.61,-2323.9 2145.81,-2368.48 2079.16,-2389.73"/>
<polygon fill="black" stroke="black" points="2077.96,-2386.44 2069.49,-2392.82 2080.08,-2393.11 2077.96,-2386.44"/>
<text text-anchor="start" x="2208.23" y="-2349.19" font-family="Times New Roman,serif" font-size="14.00">is</text>
</g>
<!-- Entity67 -->
<g id="node25" class="node entity">
<title>Entity67</title>
<ellipse fill="none" stroke="black" cx="2362.18" cy="-2521.5" rx="71.49" ry="18"/>
<text text-anchor="start" x="2315.18" y="-2517.8" font-family="Times New Roman,serif" font-size="14.00">leauge of nations</text>
</g>
<!-- Entity24&#45;&gt;Entity67 -->
<g id="edge19" class="edge verb">
<title>Entity24&#45;&gt;Entity67</title>
<path fill="none" stroke="black" d="M2398.71,-2304.89C2391.85,-2345.58 2375.11,-2444.81 2366.89,-2493.55"/>
<polygon fill="black" stroke="black" points="2363.44,-2492.98 2365.23,-2503.42 2370.34,-2494.14 2363.44,-2492.98"/>
<text text-anchor="start" x="2348.8" y="-2403.02" font-family="Times New Roman,serif" font-size="14.00">create</text>
</g>
<!-- Entity29 -->
<g id="node26" class="node entity">
<title>Entity29</title>
<ellipse fill="none" stroke="black" cx="2367.43" cy="-3453.07" rx="58.49" ry="18"/>
<text text-anchor="start" x="2330.43" y="-3449.37" font-family="Times New Roman,serif" font-size="14.00">steve bannon</text>
</g>
<!-- Entity29&#45;&gt;Entity11 -->
<g id="edge36" class="edge verb">
<title>Entity29&#45;&gt;Entity11</title>
<path fill="none" stroke="black" d="M2377.66,-3435.18C2412.04,-3362.86 2520.58,-3092.13 2550.53,-3004.53"/>
<polygon fill="black" stroke="black" points="2553.86,-3005.61 2553.71,-2995.01 2547.22,-3003.39 2553.86,-3005.61"/>
<text text-anchor="start" x="2416.1" y="-3223.66" font-family="Times New Roman,serif" font-size="14.00">promote</text>
</g>
<!-- Entity29&#45;&gt;Entity11 -->
<g id="edge39" class="edge verb">
<title>Entity29&#45;&gt;Entity11</title>
<path fill="none" stroke="black" d="M2371.78,-3434.83C2395.46,-3361.91 2503.56,-3091.26 2543.44,-3004.18"/>
<polygon fill="black" stroke="black" points="2546.69,-3005.49 2547.74,-2994.95 2540.34,-3002.54 2546.69,-3005.49"/>
<text text-anchor="start" x="2421.61" y="-3208.31" font-family="Times New Roman,serif" font-size="14.00">advise</text>
</g>
<!-- Entity74 -->
<g id="node27" class="node entity">
<title>Entity74</title>
<ellipse fill="none" stroke="black" cx="1829.79" cy="-3651.71" rx="38.19" ry="18"/>
<text text-anchor="start" x="1808.29" y="-3648.01" font-family="Times New Roman,serif" font-size="14.00">us navy</text>
</g>
<!-- Entity29&#45;&gt;Entity74 -->
<g id="edge22" class="edge verb">
<title>Entity29&#45;&gt;Entity74</title>
<path fill="none" stroke="black" d="M2329.62,-3467.04C2231.54,-3503.28 1969.63,-3600.05 1869.49,-3637.05"/>
<polygon fill="black" stroke="black" points="1868.2,-3633.79 1860.03,-3640.54 1870.62,-3640.36 1868.2,-3633.79"/>
<text text-anchor="start" x="2053.55" y="-3555.85" font-family="Times New Roman,serif" font-size="14.00">member</text>
</g>
<!-- Entity65 -->
<g id="node28" class="node entity">
<title>Entity65</title>
<ellipse fill="none" stroke="black" cx="2224.72" cy="-3937.35" rx="35.19" ry="18"/>
<text text-anchor="start" x="2205.72" y="-3933.65" font-family="Times New Roman,serif" font-size="14.00">gurgev</text>
</g>
<!-- Entity29&#45;&gt;Entity65 -->
<g id="edge23" class="edge verb">
<title>Entity29&#45;&gt;Entity65</title>
<path fill="none" stroke="black" d="M2362.09,-3471.17C2340.43,-3544.67 2258.97,-3821.11 2232.84,-3909.79"/>
<polygon fill="black" stroke="black" points="2229.48,-3908.83 2230.01,-3919.41 2236.19,-3910.81 2229.48,-3908.83"/>
<text text-anchor="start" x="2266.47" y="-3694.28" font-family="Times New Roman,serif" font-size="14.00">study</text>
</g>
<!-- Entity82 -->
<g id="node29" class="node entity">
<title>Entity82</title>
<ellipse fill="none" stroke="black" cx="899.32" cy="-4432.05" rx="77.19" ry="18"/>
<text text-anchor="start" x="847.82" y="-4428.35" font-family="Times New Roman,serif" font-size="14.00">hollywood movies</text>
</g>
<!-- Entity29&#45;&gt;Entity82 -->
<g id="edge25" class="edge verb">
<title>Entity29&#45;&gt;Entity82</title>
<path fill="none" stroke="black" d="M2342.87,-3469.45C2169.84,-3584.83 1135.3,-4274.69 933.45,-4409.29"/>
<polygon fill="black" stroke="black" points="931.38,-4406.46 925.01,-4414.92 935.27,-4412.28 931.38,-4406.46"/>
<text text-anchor="start" x="1591.16" y="-3943.17" font-family="Times New Roman,serif" font-size="14.00">produce</text>
</g>
<!-- Entity76 -->
<g id="node30" class="node entity">
<title>Entity76</title>
<ellipse fill="none" stroke="black" cx="2560.55" cy="-4246.49" rx="53.09" ry="18"/>
<text text-anchor="start" x="2527.55" y="-4242.79" font-family="Times New Roman,serif" font-size="14.00">biosphere 2</text>
</g>
<!-- Entity29&#45;&gt;Entity76 -->
<g id="edge26" class="edge verb">
<title>Entity29&#45;&gt;Entity76</title>
<path fill="none" stroke="black" d="M2371.82,-3471.14C2397,-3574.57 2522.85,-4091.6 2553.71,-4218.39"/>
<polygon fill="black" stroke="black" points="2550.4,-4219.57 2556.16,-4228.46 2557.2,-4217.92 2550.4,-4219.57"/>
<text text-anchor="start" x="2428.77" y="-3848.56" font-family="Times New Roman,serif" font-size="14.00">create</text>
</g>
<!-- Entity69 -->
<g id="node31" class="node entity">
<title>Entity69</title>
<ellipse fill="none" stroke="black" cx="2220.28" cy="-4326.91" rx="61.99" ry="18"/>
<text text-anchor="start" x="2180.78" y="-4323.21" font-family="Times New Roman,serif" font-size="14.00">breitbart news</text>
</g>
<!-- Entity29&#45;&gt;Entity69 -->
<g id="edge27" class="edge verb">
<title>Entity29&#45;&gt;Entity69</title>
<path fill="none" stroke="black" d="M2364.35,-3471.32C2345.71,-3582.05 2247.8,-4163.49 2225.02,-4298.77"/>
<polygon fill="black" stroke="black" points="2221.54,-4298.31 2223.33,-4308.76 2228.45,-4299.48 2221.54,-4298.31"/>
<text text-anchor="start" x="2260.68" y="-3888.85" font-family="Times New Roman,serif" font-size="14.00">create</text>
</g>
<!-- Entity75 -->
<g id="node50" class="node entity">
<title>Entity75</title>
<ellipse fill="none" stroke="black" cx="3755.71" cy="-4430.51" rx="64.99" ry="18"/>
<text text-anchor="start" x="3713.71" y="-4426.81" font-family="Times New Roman,serif" font-size="14.00">goldman sachs</text>
</g>
<!-- Entity29&#45;&gt;Entity75 -->
<g id="edge50" class="edge verb">
<title>Entity29&#45;&gt;Entity75</title>
<path fill="none" stroke="black" d="M2390.94,-3469.63C2555.43,-3585.44 3532.86,-4273.61 3723.49,-4407.83"/>
<polygon fill="black" stroke="black" points="3721.53,-4410.72 3731.72,-4413.62 3725.56,-4405 3721.53,-4410.72"/>
<text text-anchor="start" x="3003.22" y="-3942.53" font-family="Times New Roman,serif" font-size="14.00">employee</text>
</g>
<!-- Entity7 -->
<g id="node32" class="node entity">
<title>Entity7</title>
<ellipse fill="none" stroke="black" cx="3646.06" cy="-1017.3" rx="68.49" ry="18"/>
<text text-anchor="start" x="3601.56" y="-1013.6" font-family="Times New Roman,serif" font-size="14.00">jeffrey mishlove</text>
</g>
<!-- Entity7&#45;&gt;Entity2 -->
<g id="edge28" class="edge verb">
<title>Entity7&#45;&gt;Entity2</title>
<path fill="none" stroke="black" d="M3652.26,-999.23C3672.56,-940.11 3737.11,-752.16 3761.61,-680.82"/>
<polygon fill="black" stroke="black" points="3764.99,-681.76 3764.93,-671.17 3758.37,-679.49 3764.99,-681.76"/>
<text text-anchor="start" x="3658.94" y="-843.82" font-family="Times New Roman,serif" font-size="14.00">promote</text>
</g>
<!-- Entity7&#45;&gt;Entity58 -->
<g id="edge60" class="edge verb">
<title>Entity7&#45;&gt;Entity58</title>
<path fill="none" stroke="black" d="M3639.67,-1035.35C3624.14,-1096.38 3588.63,-1295.25 3579.76,-1369.43"/>
<polygon fill="black" stroke="black" points="3576.28,-1369.11 3578.65,-1379.43 3583.23,-1369.88 3576.28,-1369.11"/>
<text text-anchor="start" x="3578.72" y="-1206.19" font-family="Times New Roman,serif" font-size="14.00">study</text>
</g>
<!-- Entity7&#45;&gt;Entity58 -->
<g id="edge64" class="edge verb">
<title>Entity7&#45;&gt;Entity58</title>
<path fill="none" stroke="black" d="M3645.94,-1035.41C3639.83,-1096.53 3604.78,-1295.36 3587.37,-1369.47"/>
<polygon fill="black" stroke="black" points="3583.91,-1368.93 3584.94,-1379.47 3590.71,-1370.58 3583.91,-1368.93"/>
<text text-anchor="start" x="3616.66" y="-1206.24" font-family="Times New Roman,serif" font-size="14.00">investigates</text>
</g>
<!-- Entity40 -->
<g id="node33" class="node entity">
<title>Entity40</title>
<ellipse fill="none" stroke="black" cx="1550.84" cy="-1688.66" rx="67.69" ry="18"/>
<text text-anchor="start" x="1506.84" y="-1684.96" font-family="Times New Roman,serif" font-size="14.00">abraham lincoln</text>
</g>
<!-- Entity40&#45;&gt;Entity60 -->
<g id="edge30" class="edge verb">
<title>Entity40&#45;&gt;Entity60</title>
<path fill="none" stroke="black" d="M1563.23,-1706.64C1629.95,-1803.46 1946.37,-2262.63 2024.59,-2376.13"/>
<polygon fill="black" stroke="black" points="2021.85,-2378.33 2030.41,-2384.58 2027.61,-2374.36 2021.85,-2378.33"/>
<text text-anchor="start" x="1783.91" y="-2045.19" font-family="Times New Roman,serif" font-size="14.00">is</text>
</g>
<!-- Entity35&#45;&gt;Entity22 -->
<g id="edge37" class="edge verb">
<title>Entity35&#45;&gt;Entity22</title>
<path fill="none" stroke="black" d="M2948.86,-2210.67C2988.2,-2129.79 3150.11,-1796.91 3197,-1700.51"/>
<polygon fill="black" stroke="black" points="3200.19,-1701.96 3201.41,-1691.43 3193.89,-1698.9 3200.19,-1701.96"/>
<text text-anchor="start" x="3026.93" y="-1959.39" font-family="Times New Roman,serif" font-size="14.00">member</text>
</g>
<!-- Entity77 -->
<g id="node35" class="node entity">
<title>Entity77</title>
<ellipse fill="none" stroke="black" cx="3257.12" cy="-2958.99" rx="50.89" ry="18"/>
<text text-anchor="start" x="3226.12" y="-2955.29" font-family="Times New Roman,serif" font-size="14.00">nikola tesla</text>
</g>
<!-- Entity35&#45;&gt;Entity77 -->
<g id="edge31" class="edge verb">
<title>Entity35&#45;&gt;Entity77</title>
<path fill="none" stroke="black" d="M2948.03,-2246.54C2990.54,-2344.53 3193.53,-2812.41 3245.15,-2931.41"/>
<polygon fill="black" stroke="black" points="3242.08,-2933.12 3249.27,-2940.91 3248.5,-2930.34 3242.08,-2933.12"/>
<text text-anchor="start" x="3065.59" y="-2592.78" font-family="Times New Roman,serif" font-size="14.00">study</text>
</g>
<!-- Entity41 -->
<g id="node36" class="node entity">
<title>Entity41</title>
<ellipse fill="none" stroke="black" cx="1863.03" cy="-5007.22" rx="69.59" ry="18"/>
<text text-anchor="start" x="1817.53" y="-5003.52" font-family="Times New Roman,serif" font-size="14.00">andrew breitbart</text>
</g>
<!-- Entity41&#45;&gt;Entity69 -->
<g id="edge32" class="edge verb">
<title>Entity41&#45;&gt;Entity69</title>
<path fill="none" stroke="black" d="M1872.4,-4989.37C1921.28,-4896.28 2147.05,-4466.35 2206.11,-4353.89"/>
<polygon fill="black" stroke="black" points="2209.29,-4355.36 2210.84,-4344.88 2203.09,-4352.11 2209.29,-4355.36"/>
<text text-anchor="start" x="2005.25" y="-4675.43" font-family="Times New Roman,serif" font-size="14.00">create</text>
</g>
<!-- Entity38 -->
<g id="node37" class="node entity">
<title>Entity38</title>
<ellipse fill="none" stroke="black" cx="1050.67" cy="-1460.01" rx="90.98" ry="18"/>
<text text-anchor="start" x="988.67" y="-1456.31" font-family="Times New Roman,serif" font-size="14.00">emma hardinge&#45;britten</text>
</g>
<!-- Entity38&#45;&gt;Entity66 -->
<g id="edge33" class="edge verb">
<title>Entity38&#45;&gt;Entity66</title>
<path fill="none" stroke="black" d="M1055.68,-1441.72C1081.47,-1347.6 1199.2,-917.82 1230.39,-803.96"/>
<polygon fill="black" stroke="black" points="1233.79,-804.81 1233.06,-794.24 1227.04,-802.96 1233.79,-804.81"/>
<text text-anchor="start" x="1109.04" y="-1126.64" font-family="Times New Roman,serif" font-size="14.00">create</text>
</g>
<!-- Entity38&#45;&gt;Entity40 -->
<g id="edge40" class="edge verb">
<title>Entity38&#45;&gt;Entity40</title>
<path fill="none" stroke="black" d="M1087.05,-1476.64C1177.11,-1517.81 1410.23,-1624.38 1507.35,-1668.78"/>
<polygon fill="black" stroke="black" points="1506.04,-1672.03 1516.59,-1673.01 1508.96,-1665.67 1506.04,-1672.03"/>
<text text-anchor="start" x="1218.2" y="-1576.51" font-family="Times New Roman,serif" font-size="14.00">spokesperson</text>
</g>
<!-- Entity72 -->
<g id="node43" class="node entity">
<title>Entity72</title>
<ellipse fill="none" stroke="black" cx="55.74" cy="-1540.26" rx="55.79" ry="18"/>
<text text-anchor="start" x="20.74" y="-1536.56" font-family="Times New Roman,serif" font-size="14.00">orphic circle</text>
</g>
<!-- Entity38&#45;&gt;Entity72 -->
<g id="edge44" class="edge verb">
<title>Entity38&#45;&gt;Entity72</title>
<path fill="none" stroke="black" d="M966.27,-1466.82C771.45,-1482.53 293.76,-1521.06 120.14,-1535.06"/>
<polygon fill="black" stroke="black" points="119.82,-1531.58 110.13,-1535.87 120.38,-1538.56 119.82,-1531.58"/>
<text text-anchor="start" x="497.21" y="-1504.74" font-family="Times New Roman,serif" font-size="14.00">member</text>
</g>
<!-- Entity78 -->
<g id="node49" class="node entity">
<title>Entity78</title>
<ellipse fill="none" stroke="black" cx="235.05" cy="-385.37" rx="39.79" ry="18"/>
<text text-anchor="start" x="212.55" y="-381.67" font-family="Times New Roman,serif" font-size="14.00">medium</text>
</g>
<!-- Entity38&#45;&gt;Entity78 -->
<g id="edge49" class="edge verb">
<title>Entity38&#45;&gt;Entity78</title>
<path fill="none" stroke="black" d="M1036.86,-1441.81C940.29,-1314.57 366.83,-559 254.23,-410.64"/>
<polygon fill="black" stroke="black" points="256.89,-408.36 248.05,-402.51 251.31,-412.59 256.89,-408.36"/>
<text text-anchor="start" x="635.54" y="-930.03" font-family="Times New Roman,serif" font-size="14.00">is</text>
</g>
<!-- Entity20 -->
<g id="node38" class="node entity">
<title>Entity20</title>
<ellipse fill="none" stroke="black" cx="3028.49" cy="-463.97" rx="63.89" ry="18"/>
<text text-anchor="start" x="2987.49" y="-460.27" font-family="Times New Roman,serif" font-size="14.00">robert bigelow</text>
</g>
<!-- Entity20&#45;&gt;Entity7 -->
<g id="edge34" class="edge verb">
<title>Entity20&#45;&gt;Entity7</title>
<path fill="none" stroke="black" d="M3047.65,-481.14C3137.14,-561.32 3514.01,-898.98 3618.88,-992.94"/>
<polygon fill="black" stroke="black" points="3616.73,-995.72 3626.51,-999.78 3621.4,-990.5 3616.73,-995.72"/>
<text text-anchor="start" x="3301.26" y="-740.84" font-family="Times New Roman,serif" font-size="14.00">funds</text>
</g>
<!-- Entity20&#45;&gt;Entity58 -->
<g id="edge66" class="edge verb">
<title>Entity20&#45;&gt;Entity58</title>
<path fill="none" stroke="black" d="M3038.99,-481.79C3106.64,-596.63 3481,-1232.11 3562.75,-1370.88"/>
<polygon fill="black" stroke="black" points="3559.83,-1372.81 3567.92,-1379.65 3565.86,-1369.25 3559.83,-1372.81"/>
<text text-anchor="start" x="3236.87" y="-930.13" font-family="Times New Roman,serif" font-size="14.00">investigates</text>
</g>
<!-- Entity31 -->
<g id="node39" class="node entity">
<title>Entity31</title>
<ellipse fill="none" stroke="black" cx="2028.85" cy="-2906.03" rx="53.89" ry="18"/>
<text text-anchor="start" x="1995.35" y="-2902.33" font-family="Times New Roman,serif" font-size="14.00">edgar casey</text>
</g>
<!-- Entity31&#45;&gt;Entity24 -->
<g id="edge35" class="edge verb">
<title>Entity31&#45;&gt;Entity24</title>
<path fill="none" stroke="black" d="M2039.61,-2888.17C2092.24,-2800.79 2322.57,-2418.34 2385.7,-2313.52"/>
<polygon fill="black" stroke="black" points="2388.79,-2315.18 2390.95,-2304.8 2382.79,-2311.56 2388.79,-2315.18"/>
<text text-anchor="start" x="2176.66" y="-2604.64" font-family="Times New Roman,serif" font-size="14.00">advise</text>
</g>
<!-- Entity45 -->
<g id="node40" class="node entity">
<title>Entity45</title>
<ellipse fill="none" stroke="black" cx="3049.94" cy="-3328.66" rx="39.79" ry="18"/>
<text text-anchor="start" x="3027.44" y="-3324.96" font-family="Times New Roman,serif" font-size="14.00">crowley</text>
</g>
<!-- Entity71 -->
<g id="node41" class="node entity">
<title>Entity71</title>
<ellipse fill="none" stroke="black" cx="3137.66" cy="-3440.64" rx="38.99" ry="18"/>
<text text-anchor="start" x="3115.66" y="-3436.94" font-family="Times New Roman,serif" font-size="14.00">x magic</text>
</g>
<!-- Entity45&#45;&gt;Entity71 -->
<g id="edge41" class="edge verb">
<title>Entity45&#45;&gt;Entity71</title>
<path fill="none" stroke="black" d="M3063.26,-3345.67C3077.82,-3364.25 3101.28,-3394.2 3117.96,-3415.49"/>
<polygon fill="black" stroke="black" points="3115.29,-3417.76 3124.21,-3423.47 3120.8,-3413.44 3115.29,-3417.76"/>
<text text-anchor="start" x="3044.61" y="-3384.38" font-family="Times New Roman,serif" font-size="14.00">member</text>
</g>
<!-- Entity80 -->
<g id="node55" class="node entity">
<title>Entity80</title>
<ellipse fill="none" stroke="black" cx="4827.98" cy="-3064.82" rx="38.99" ry="18"/>
<text text-anchor="start" x="4805.98" y="-3061.12" font-family="Times New Roman,serif" font-size="14.00">far right</text>
</g>
<!-- Entity54&#45;&gt;Entity80 -->
<g id="edge55" class="edge verb">
<title>Entity54&#45;&gt;Entity80</title>
<path fill="none" stroke="black" d="M5149.4,-2197.68C5108.53,-2307.94 4888.65,-2901.14 4838.27,-3037.06"/>
<polygon fill="black" stroke="black" points="4834.88,-3036.14 4834.68,-3046.73 4841.44,-3038.57 4834.88,-3036.14"/>
<text text-anchor="start" x="4947.83" y="-2621.17" font-family="Times New Roman,serif" font-size="14.00">member</text>
</g>
<!-- Entity47 -->
<g id="node44" class="node entity">
<title>Entity47</title>
<ellipse fill="none" stroke="black" cx="6362.34" cy="-971.42" rx="46.29" ry="18"/>
<text text-anchor="start" x="6334.84" y="-967.72" font-family="Times New Roman,serif" font-size="14.00">van braun</text>
</g>
<!-- Entity47&#45;&gt;Entity46 -->
<g id="edge45" class="edge verb">
<title>Entity47&#45;&gt;Entity46</title>
<path fill="none" stroke="black" d="M6341.08,-987.54C6207.81,-1088.63 5487.99,-1634.63 5329.1,-1755.16"/>
<polygon fill="black" stroke="black" points="5326.55,-1752.7 5320.69,-1761.53 5330.78,-1758.28 5326.55,-1752.7"/>
<text text-anchor="start" x="5781.09" y="-1375.15" font-family="Times New Roman,serif" font-size="14.00">employee</text>
</g>
<!-- Entity47&#45;&gt;Entity73 -->
<g id="edge57" class="edge verb">
<title>Entity47&#45;&gt;Entity73</title>
<path fill="none" stroke="black" d="M6340.52,-987.35C6227.96,-1069.55 5713.02,-1445.6 5578.71,-1543.69"/>
<polygon fill="black" stroke="black" points="5576.43,-1541.02 5570.42,-1549.74 5580.56,-1546.67 5576.43,-1541.02"/>
<text text-anchor="start" x="5905.61" y="-1269.32" font-family="Times New Roman,serif" font-size="14.00">employee</text>
</g>
<!-- Entity55 -->
<g id="node46" class="node entity">
<title>Entity55</title>
<ellipse fill="none" stroke="black" cx="462.13" cy="-3655.17" rx="37.89" ry="18"/>
<text text-anchor="start" x="441.13" y="-3651.47" font-family="Times New Roman,serif" font-size="14.00">hunt oil</text>
</g>
<!-- Entity53 -->
<g id="node47" class="node entity">
<title>Entity53</title>
<ellipse fill="none" stroke="black" cx="1634.55" cy="-2887.95" rx="77.99" ry="18"/>
<text text-anchor="start" x="1582.55" y="-2884.25" font-family="Times New Roman,serif" font-size="14.00">dwight eisenhower</text>
</g>
<!-- Entity55&#45;&gt;Entity53 -->
<g id="edge47" class="edge verb">
<title>Entity55&#45;&gt;Entity53</title>
<path fill="none" stroke="black" d="M484.5,-3640.52C628.49,-3546.3 1424.19,-3025.61 1600.11,-2910.49"/>
<polygon fill="black" stroke="black" points="1602.04,-2913.41 1608.49,-2905.01 1598.2,-2907.56 1602.04,-2913.41"/>
<text text-anchor="start" x="1016.31" y="-3279.31" font-family="Times New Roman,serif" font-size="14.00">fund</text>
</g>
<!-- Entity53&#45;&gt;Entity60 -->
<g id="edge54" class="edge verb">
<title>Entity53&#45;&gt;Entity60</title>
<path fill="none" stroke="black" d="M1649.54,-2870.06C1711.8,-2795.75 1950.11,-2511.34 2021.67,-2425.94"/>
<polygon fill="black" stroke="black" points="2024.51,-2428 2028.25,-2418.08 2019.14,-2423.5 2024.51,-2428"/>
<text text-anchor="start" x="1825.6" y="-2651.8" font-family="Times New Roman,serif" font-size="14.00">is</text>
</g>
<!-- Entity56&#45;&gt;Entity80 -->
<g id="edge56" class="edge verb">
<title>Entity56&#45;&gt;Entity80</title>
<path fill="none" stroke="black" d="M4340.59,-3076.66C4448.93,-3074.03 4677.7,-3068.47 4778.5,-3066.02"/>
<polygon fill="black" stroke="black" points="4778.8,-3069.51 4788.71,-3065.77 4778.63,-3062.52 4778.8,-3069.51"/>
<text text-anchor="start" x="4513.55" y="-3075.14" font-family="Times New Roman,serif" font-size="14.00">member</text>
</g>
<!-- Entity44 -->
<g id="node52" class="node entity">
<title>Entity44</title>
<ellipse fill="none" stroke="black" cx="3966.94" cy="-3328.66" rx="53.89" ry="18"/>
<text text-anchor="start" x="3933.44" y="-3324.96" font-family="Times New Roman,serif" font-size="14.00">black magic</text>
</g>
<!-- Entity70 -->
<g id="node53" class="node entity">
<title>Entity70</title>
<ellipse fill="none" stroke="black" cx="4054.66" cy="-3440.64" rx="28.7" ry="18"/>
<text text-anchor="start" x="4040.66" y="-3436.94" font-family="Times New Roman,serif" font-size="14.00">x left</text>
</g>
<!-- Entity44&#45;&gt;Entity70 -->
<g id="edge52" class="edge verb">
<title>Entity44&#45;&gt;Entity70</title>
<path fill="none" stroke="black" d="M3980.64,-3346.16C3995.45,-3365.05 4019.14,-3395.29 4035.72,-3416.45"/>
<polygon fill="black" stroke="black" points="4032.98,-3418.64 4041.9,-3424.36 4038.49,-3414.32 4032.98,-3418.64"/>
<text text-anchor="start" x="3962.18" y="-3385.11" font-family="Times New Roman,serif" font-size="14.00">member</text>
</g>
<!-- Entity83 -->
<g id="node56" class="node entity">
<title>Entity83</title>
<ellipse fill="none" stroke="black" cx="3939.94" cy="-2124.66" rx="27" ry="18"/>
<text text-anchor="start" x="3929.94" y="-2120.96" font-family="Times New Roman,serif" font-size="14.00">foo</text>
</g>
<!-- Entity84 -->
<g id="node57" class="node entity">
<title>Entity84</title>
<ellipse fill="none" stroke="black" cx="4027.66" cy="-2236.64" rx="27" ry="18"/>
<text text-anchor="start" x="4017.66" y="-2232.94" font-family="Times New Roman,serif" font-size="14.00">baz</text>
</g>
<!-- Entity83&#45;&gt;Entity84 -->
<g id="edge58" class="edge verb">
<title>Entity83&#45;&gt;Entity84</title>
<path fill="none" stroke="black" d="M3952.51,-2140.7C3967.23,-2159.5 3991.76,-2190.82 4008.78,-2212.53"/>
<polygon fill="black" stroke="black" points="4006.19,-2214.91 4015.11,-2220.62 4011.7,-2210.59 4006.19,-2214.91"/>
<text text-anchor="start" x="3960.64" y="-2180.42" font-family="Times New Roman,serif" font-size="14.00">baz</text>
</g>
<!-- Entity57 -->
<g id="node60" class="node entity">
<title>Entity57</title>
<ellipse fill="none" stroke="black" cx="5925.73" cy="-3869.41" rx="49.29" ry="18"/>
<text text-anchor="start" x="5895.73" y="-3865.71" font-family="Times New Roman,serif" font-size="14.00">adolf hitler</text>
</g>
<!-- Entity57&#45;&gt;Entity54 -->
<g id="edge65" class="edge verb">
<title>Entity57&#45;&gt;Entity54</title>
<path fill="none" stroke="black" d="M5917.61,-3851.58C5841.88,-3685.38 5260.2,-2408.81 5168.19,-2206.87"/>
<polygon fill="black" stroke="black" points="5171.29,-2205.22 5163.95,-2197.57 5164.92,-2208.13 5171.29,-2205.22"/>
<text text-anchor="start" x="5508.9" y="-3033.03" font-family="Times New Roman,serif" font-size="14.00">create</text>
</g>
<!-- Entity3 -->
<g id="node61" class="node entity">
<title>Entity3</title>
<ellipse fill="none" stroke="black" cx="4796.03" cy="-18.48" rx="74.99" ry="18"/>
<text text-anchor="start" x="4746.53" y="-14.78" font-family="Times New Roman,serif" font-size="14.00">gene roddenberry</text>
</g>
<!-- Entity3&#45;&gt;Entity19 -->
<g id="edge67" class="edge verb">
<title>Entity3&#45;&gt;Entity19</title>
<path fill="none" stroke="black" d="M4778.42,-36.18C4681.98,-133.12 4218.09,-599.46 4107.51,-710.63"/>
<polygon fill="black" stroke="black" points="4104.73,-708.45 4100.16,-718.01 4109.7,-713.39 4104.73,-708.45"/>
<text text-anchor="start" x="4338.96" y="-377.2" font-family="Times New Roman,serif" font-size="14.00">claiemd to channel</text>
</g>
</g>
</svg>
