<?xml version="1.0" encoding="UTF-8" standalone="no"?>
<?xml-stylesheet href="../styles.css" type="text/css"?>
<!DOCTYPE svg PUBLIC "-//W3C//DTD SVG 1.1//EN"
 "http://www.w3.org/Graphics/SVG/1.1/DTD/svg11.dtd">
<!-- Generated by graphviz version 2.47.3 (20210619.1520)
 -->
<!-- Title: G Pages: 1 -->
<svg width="4250pt" height="3702pt"
 viewBox="0.00 0.00 4250.00 3702.00" xmlns="http://www.w3.org/2000/svg" xmlns:xlink="http://www.w3.org/1999/xlink">
<g id="graph0" class="graph" transform="scale(1 1) rotate(0) translate(4 3698)">
<title>G</title>
<polygon fill="white" stroke="transparent" points="-4,4 -4,-3698 4246,-3698 4246,4 -4,4"/>
<!-- Entity2 -->
<g id="node1" class="node entity">
<title>Entity2</title>
<ellipse fill="none" stroke="black" cx="64.06" cy="-809" rx="64.19" ry="18"/>
<text text-anchor="start" x="22.56" y="-805.3" font-family="Times New Roman,serif" font-size="14.00">andre puharich</text>
</g>
<!-- Entity1 -->
<g id="node2" class="node entity">
<title>Entity1</title>
<ellipse fill="none" stroke="black" cx="561.86" cy="-933.83" rx="41.69" ry="18"/>
<text text-anchor="start" x="537.86" y="-930.13" font-family="Times New Roman,serif" font-size="14.00">uri geller</text>
</g>
<!-- Entity2&#45;&gt;Entity1 -->
<g id="edge1" class="edge verb">
<title>Entity2&#45;&gt;Entity1</title>
<path fill="none" stroke="black" d="M112.24,-821.08C208.17,-845.14 421.91,-898.74 515.95,-922.32"/>
<polygon fill="black" stroke="black" points="515.19,-925.74 525.74,-924.77 516.89,-918.95 515.19,-925.74"/>
<text text-anchor="start" x="262.09" y="-875.5" font-family="Times New Roman,serif" font-size="14.00">sponsore</text>
</g>
<!-- Entity9 -->
<g id="node4" class="node entity">
<title>Entity9</title>
<ellipse fill="none" stroke="black" cx="964.72" cy="-1223.81" rx="38.19" ry="18"/>
<text text-anchor="start" x="943.22" y="-1220.11" font-family="Times New Roman,serif" font-size="14.00">the nine</text>
</g>
<!-- Entity1&#45;&gt;Entity9 -->
<g id="edge6" class="edge verb">
<title>Entity1&#45;&gt;Entity9</title>
<path fill="none" stroke="black" d="M583.52,-949.42C651.03,-998.02 857.74,-1146.81 935.09,-1202.49"/>
<polygon fill="black" stroke="black" points="933.28,-1205.5 943.44,-1208.5 937.37,-1199.81 933.28,-1205.5"/>
<text text-anchor="start" x="655.3" y="-1079.75" font-family="Times New Roman,serif" font-size="14.00">claiemd to channel</text>
</g>
<!-- Entity4 -->
<g id="node3" class="node entity">
<title>Entity4</title>
<ellipse fill="none" stroke="black" cx="421.81" cy="-1272.58" rx="74.99" ry="18"/>
<text text-anchor="start" x="372.31" y="-1268.88" font-family="Times New Roman,serif" font-size="14.00">gene roddenberry</text>
</g>
<!-- Entity4&#45;&gt;Entity9 -->
<g id="edge2" class="edge verb">
<title>Entity4&#45;&gt;Entity9</title>
<path fill="none" stroke="black" d="M491.95,-1266.28C604.1,-1256.21 820.91,-1236.73 916.95,-1228.1"/>
<polygon fill="black" stroke="black" points="917.31,-1231.59 926.95,-1227.21 916.68,-1224.61 917.31,-1231.59"/>
<text text-anchor="start" x="600.45" y="-1250.99" font-family="Times New Roman,serif" font-size="14.00">claiemd to channel</text>
</g>
<!-- Entity52 -->
<g id="node43" class="node entity">
<title>Entity52</title>
<ellipse fill="none" stroke="black" cx="928.83" cy="-1331.78" rx="94.48" ry="18"/>
<text text-anchor="start" x="864.33" y="-1328.08" font-family="Times New Roman,serif" font-size="14.00">egyptian gods in a ship</text>
</g>
<!-- Entity9&#45;&gt;Entity52 -->
<g id="edge35" class="edge verb">
<title>Entity9&#45;&gt;Entity52</title>
<path fill="none" stroke="black" d="M958.8,-1241.64C953.17,-1258.57 944.62,-1284.29 938.09,-1303.93"/>
<polygon fill="black" stroke="black" points="934.72,-1302.97 934.89,-1313.56 941.36,-1305.18 934.72,-1302.97"/>
<text text-anchor="start" x="918.44" y="-1276.58" font-family="Times New Roman,serif" font-size="14.00">claim</text>
</g>
<!-- Entity3 -->
<g id="node5" class="node entity">
<title>Entity3</title>
<ellipse fill="none" stroke="black" cx="1642.44" cy="-1122.09" rx="65.79" ry="18"/>
<text text-anchor="start" x="1599.94" y="-1118.39" font-family="Times New Roman,serif" font-size="14.00">arthur m young</text>
</g>
<!-- Entity3&#45;&gt;Entity9 -->
<g id="edge3" class="edge verb">
<title>Entity3&#45;&gt;Entity9</title>
<path fill="none" stroke="black" d="M1584.66,-1130.76C1452.78,-1150.56 1131.73,-1198.75 1011.34,-1216.82"/>
<polygon fill="black" stroke="black" points="1010.71,-1213.37 1001.34,-1218.32 1011.75,-1220.29 1010.71,-1213.37"/>
<text text-anchor="start" x="1252" y="-1177.59" font-family="Times New Roman,serif" font-size="14.00">member</text>
</g>
<!-- Entity56 -->
<g id="node30" class="node entity">
<title>Entity56</title>
<ellipse fill="none" stroke="black" cx="2431.19" cy="-1335.24" rx="53.89" ry="18"/>
<text text-anchor="start" x="2397.69" y="-1331.54" font-family="Times New Roman,serif" font-size="14.00">bell aviation</text>
</g>
<!-- Entity3&#45;&gt;Entity56 -->
<g id="edge22" class="edge verb">
<title>Entity3&#45;&gt;Entity56</title>
<path fill="none" stroke="black" d="M1689.42,-1134.78C1827.87,-1172.2 2233.72,-1281.87 2378.84,-1321.09"/>
<polygon fill="black" stroke="black" points="2378.27,-1324.56 2388.83,-1323.79 2380.09,-1317.8 2378.27,-1324.56"/>
<text text-anchor="start" x="2000.13" y="-1231.74" font-family="Times New Roman,serif" font-size="14.00">create</text>
</g>
<!-- Entity55 -->
<g id="node34" class="node entity">
<title>Entity55</title>
<ellipse fill="none" stroke="black" cx="1351.86" cy="-451.55" rx="77.19" ry="18"/>
<text text-anchor="start" x="1300.36" y="-447.85" font-family="Times New Roman,serif" font-size="14.00">psi&#45;consciousness</text>
</g>
<!-- Entity3&#45;&gt;Entity55 -->
<g id="edge53" class="edge verb">
<title>Entity3&#45;&gt;Entity55</title>
<path fill="none" stroke="black" d="M1634.67,-1104.15C1594.67,-1011.86 1412.07,-590.49 1363.66,-478.79"/>
<polygon fill="black" stroke="black" points="1366.84,-477.33 1359.65,-469.55 1360.42,-480.11 1366.84,-477.33"/>
<text text-anchor="start" x="1468.16" y="-795.27" font-family="Times New Roman,serif" font-size="14.00">study</text>
</g>
<!-- Entity5 -->
<g id="node6" class="node entity">
<title>Entity5</title>
<ellipse fill="none" stroke="black" cx="3115.03" cy="-1926.04" rx="75.29" ry="18"/>
<text text-anchor="start" x="3065.03" y="-1922.34" font-family="Times New Roman,serif" font-size="14.00">lee harvey oswald</text>
</g>
<!-- Entity7 -->
<g id="node7" class="node entity">
<title>Entity7</title>
<ellipse fill="none" stroke="black" cx="2600.69" cy="-1466.5" rx="64.19" ry="18"/>
<text text-anchor="start" x="2559.19" y="-1462.8" font-family="Times New Roman,serif" font-size="14.00">john f kennedy</text>
</g>
<!-- Entity5&#45;&gt;Entity7 -->
<g id="edge4" class="edge verb">
<title>Entity5&#45;&gt;Entity7</title>
<path fill="none" stroke="black" d="M3095.5,-1908.59C3016.32,-1837.85 2719.19,-1572.37 2627.69,-1490.62"/>
<polygon fill="black" stroke="black" points="2629.76,-1487.78 2619.97,-1483.73 2625.1,-1493 2629.76,-1487.78"/>
<text text-anchor="start" x="2799.59" y="-1703.4" font-family="Times New Roman,serif" font-size="14.00">assassinate</text>
</g>
<!-- Entity45 -->
<g id="node29" class="node entity">
<title>Entity45</title>
<ellipse fill="none" stroke="black" cx="3611.86" cy="-2285.97" rx="59.29" ry="18"/>
<text text-anchor="start" x="3574.36" y="-2282.27" font-family="Times New Roman,serif" font-size="14.00">guy bannister</text>
</g>
<!-- Entity5&#45;&gt;Entity45 -->
<g id="edge21" class="edge verb">
<title>Entity5&#45;&gt;Entity45</title>
<path fill="none" stroke="black" d="M3138.66,-1943.16C3220.02,-2002.1 3488.6,-2196.67 3580.61,-2263.33"/>
<polygon fill="black" stroke="black" points="3578.8,-2266.34 3588.95,-2269.38 3582.91,-2260.68 3578.8,-2266.34"/>
<text text-anchor="start" x="3305.64" y="-2107.05" font-family="Times New Roman,serif" font-size="14.00">employee</text>
</g>
<!-- Entity53 -->
<g id="node31" class="node entity">
<title>Entity53</title>
<ellipse fill="none" stroke="black" cx="2516.45" cy="-940.46" rx="31.4" ry="18"/>
<text text-anchor="start" x="2500.45" y="-936.76" font-family="Times New Roman,serif" font-size="14.00">potus</text>
</g>
<!-- Entity7&#45;&gt;Entity53 -->
<g id="edge23" class="edge verb">
<title>Entity7&#45;&gt;Entity53</title>
<path fill="none" stroke="black" d="M2597.79,-1448.4C2585.31,-1370.46 2536.12,-1063.29 2520.94,-968.48"/>
<polygon fill="black" stroke="black" points="2524.38,-967.81 2519.34,-958.49 2517.47,-968.92 2524.38,-967.81"/>
<text text-anchor="start" x="2549.37" y="-1212.24" font-family="Times New Roman,serif" font-size="14.00">is</text>
</g>
<!-- Entity30 -->
<g id="node8" class="node entity">
<title>Entity30</title>
<ellipse fill="none" stroke="black" cx="1843.15" cy="-614.28" rx="50.09" ry="18"/>
<text text-anchor="start" x="1812.65" y="-610.58" font-family="Times New Roman,serif" font-size="14.00">john trump</text>
</g>
<!-- Entity17 -->
<g id="node9" class="node entity">
<title>Entity17</title>
<ellipse fill="none" stroke="black" cx="1901.89" cy="-264.97" rx="27" ry="18"/>
<text text-anchor="start" x="1893.89" y="-261.27" font-family="Times New Roman,serif" font-size="14.00">cia</text>
</g>
<!-- Entity30&#45;&gt;Entity17 -->
<g id="edge5" class="edge verb">
<title>Entity30&#45;&gt;Entity17</title>
<path fill="none" stroke="black" d="M1846.23,-596C1855.86,-538.7 1885.51,-362.38 1897.14,-293.23"/>
<polygon fill="black" stroke="black" points="1900.64,-293.52 1898.84,-283.08 1893.73,-292.36 1900.64,-293.52"/>
<text text-anchor="start" x="1825.68" y="-448.41" font-family="Times New Roman,serif" font-size="14.00">member</text>
</g>
<!-- Entity67 -->
<g id="node47" class="node entity">
<title>Entity67</title>
<ellipse fill="none" stroke="black" cx="1743.12" cy="-102.64" rx="50.89" ry="18"/>
<text text-anchor="start" x="1712.12" y="-98.94" font-family="Times New Roman,serif" font-size="14.00">nikola tesla</text>
</g>
<!-- Entity30&#45;&gt;Entity67 -->
<g id="edge40" class="edge verb">
<title>Entity30&#45;&gt;Entity67</title>
<path fill="none" stroke="black" d="M1839.59,-596.07C1824.63,-519.53 1766.76,-223.55 1748.61,-130.69"/>
<polygon fill="black" stroke="black" points="1752,-129.78 1746.64,-120.64 1745.13,-131.12 1752,-129.78"/>
<text text-anchor="start" x="1763.1" y="-367.18" font-family="Times New Roman,serif" font-size="14.00">study</text>
</g>
<!-- Entity17&#45;&gt;Entity55 -->
<g id="edge27" class="edge verb">
<title>Entity17&#45;&gt;Entity55</title>
<path fill="none" stroke="black" d="M1877.55,-273.23C1794.72,-301.33 1522.51,-393.67 1405.79,-433.26"/>
<polygon fill="black" stroke="black" points="1404.33,-430.06 1395.99,-436.59 1406.58,-436.69 1404.33,-430.06"/>
<text text-anchor="start" x="1577.67" y="-357.05" font-family="Times New Roman,serif" font-size="14.00">investigates</text>
</g>
<!-- Entity54 -->
<g id="node52" class="node entity">
<title>Entity54</title>
<ellipse fill="none" stroke="black" cx="2222.64" cy="-190.74" rx="27" ry="18"/>
<text text-anchor="start" x="2213.14" y="-187.04" font-family="Times New Roman,serif" font-size="14.00">ufo</text>
</g>
<!-- Entity17&#45;&gt;Entity54 -->
<g id="edge54" class="edge verb">
<title>Entity17&#45;&gt;Entity54</title>
<path fill="none" stroke="black" d="M1927.6,-259.02C1984.6,-245.83 2121.73,-214.09 2186.98,-198.99"/>
<polygon fill="black" stroke="black" points="2187.86,-202.38 2196.81,-196.72 2186.28,-195.56 2187.86,-202.38"/>
<text text-anchor="start" x="1993.29" y="-232.81" font-family="Times New Roman,serif" font-size="14.00">investigates</text>
</g>
<!-- Entity6 -->
<g id="node10" class="node entity">
<title>Entity6</title>
<ellipse fill="none" stroke="black" cx="710.74" cy="-460" rx="68.49" ry="18"/>
<text text-anchor="start" x="666.24" y="-456.3" font-family="Times New Roman,serif" font-size="14.00">jeffrey mishlove</text>
</g>
<!-- Entity6&#45;&gt;Entity1 -->
<g id="edge7" class="edge verb">
<title>Entity6&#45;&gt;Entity1</title>
<path fill="none" stroke="black" d="M705.09,-477.99C682.43,-550.12 598.07,-818.58 570.58,-906.07"/>
<polygon fill="black" stroke="black" points="567.17,-905.23 567.52,-915.82 573.85,-907.33 567.17,-905.23"/>
<text text-anchor="start" x="589.83" y="-695.83" font-family="Times New Roman,serif" font-size="14.00">promote</text>
</g>
<!-- Entity6&#45;&gt;Entity55 -->
<g id="edge57" class="edge verb">
<title>Entity6&#45;&gt;Entity55</title>
<path fill="none" stroke="black" d="M777.9,-463.44C895.65,-464.98 1139.05,-461.91 1267.79,-457.4"/>
<polygon fill="black" stroke="black" points="1268.12,-460.89 1277.99,-457.03 1267.87,-453.9 1268.12,-460.89"/>
<text text-anchor="start" x="991.84" y="-464.22" font-family="Times New Roman,serif" font-size="14.00">study</text>
</g>
<!-- Entity6&#45;&gt;Entity55 -->
<g id="edge59" class="edge verb">
<title>Entity6&#45;&gt;Entity55</title>
<path fill="none" stroke="black" d="M776.29,-454.84C892.77,-450.2 1135.76,-446.84 1265.64,-447.91"/>
<polygon fill="black" stroke="black" points="1265.91,-451.41 1275.94,-448 1265.97,-444.41 1265.91,-451.41"/>
<text text-anchor="start" x="956.96" y="-440.17" font-family="Times New Roman,serif" font-size="14.00">investigates</text>
</g>
<!-- Entity79 -->
<g id="node11" class="node entity">
<title>Entity79</title>
<ellipse fill="none" stroke="black" cx="1286.94" cy="-2747.66" rx="27" ry="18"/>
<text text-anchor="start" x="1276.94" y="-2743.96" font-family="Times New Roman,serif" font-size="14.00">foo</text>
</g>
<!-- Entity80 -->
<g id="node12" class="node entity">
<title>Entity80</title>
<ellipse fill="none" stroke="black" cx="1374.66" cy="-2859.64" rx="27" ry="18"/>
<text text-anchor="start" x="1364.66" y="-2855.94" font-family="Times New Roman,serif" font-size="14.00">baz</text>
</g>
<!-- Entity79&#45;&gt;Entity80 -->
<g id="edge8" class="edge verb">
<title>Entity79&#45;&gt;Entity80</title>
<path fill="none" stroke="black" d="M1299.51,-2763.7C1314.23,-2782.5 1338.76,-2813.82 1355.78,-2835.53"/>
<polygon fill="black" stroke="black" points="1353.19,-2837.91 1362.11,-2843.62 1358.7,-2833.59 1353.19,-2837.91"/>
<text text-anchor="start" x="1307.64" y="-2803.42" font-family="Times New Roman,serif" font-size="14.00">baz</text>
</g>
<!-- Entity11 -->
<g id="node13" class="node entity">
<title>Entity11</title>
<ellipse fill="none" stroke="black" cx="2773.98" cy="-472.49" rx="68.49" ry="18"/>
<text text-anchor="start" x="2729.48" y="-468.79" font-family="Times New Roman,serif" font-size="14.00">george hw bush</text>
</g>
<!-- Entity18 -->
<g id="node14" class="node entity">
<title>Entity18</title>
<ellipse fill="none" stroke="black" cx="2589.72" cy="-832.45" rx="63.89" ry="18"/>
<text text-anchor="start" x="2548.72" y="-828.75" font-family="Times New Roman,serif" font-size="14.00">george w bush</text>
</g>
<!-- Entity11&#45;&gt;Entity18 -->
<g id="edge9" class="edge verb">
<title>Entity11&#45;&gt;Entity18</title>
<path fill="none" stroke="black" d="M2764.84,-490.34C2734.88,-548.87 2639.48,-735.23 2603.57,-805.39"/>
<polygon fill="black" stroke="black" points="2600.35,-804 2598.91,-814.49 2606.58,-807.19 2600.35,-804"/>
<text text-anchor="start" x="2652.21" y="-651.67" font-family="Times New Roman,serif" font-size="14.00">father</text>
</g>
<!-- Entity11&#45;&gt;Entity53 -->
<g id="edge48" class="edge verb">
<title>Entity11&#45;&gt;Entity53</title>
<path fill="none" stroke="black" d="M2764.04,-490.55C2724.43,-562.53 2577.71,-829.14 2530.9,-914.2"/>
<polygon fill="black" stroke="black" points="2527.7,-912.76 2525.95,-923.21 2533.84,-916.13 2527.7,-912.76"/>
<text text-anchor="start" x="2637.47" y="-706.18" font-family="Times New Roman,serif" font-size="14.00">is</text>
</g>
<!-- Entity18&#45;&gt;Entity53 -->
<g id="edge58" class="edge verb">
<title>Entity18&#45;&gt;Entity53</title>
<path fill="none" stroke="black" d="M2577.62,-850.29C2565.58,-868.03 2547,-895.42 2533.48,-915.36"/>
<polygon fill="black" stroke="black" points="2530.56,-913.43 2527.85,-923.67 2536.36,-917.36 2530.56,-913.43"/>
<text text-anchor="start" x="2545.55" y="-886.62" font-family="Times New Roman,serif" font-size="14.00">is</text>
</g>
<!-- Entity16 -->
<g id="node15" class="node entity">
<title>Entity16</title>
<ellipse fill="none" stroke="black" cx="897.02" cy="-17.57" rx="63.89" ry="18"/>
<text text-anchor="start" x="856.02" y="-13.87" font-family="Times New Roman,serif" font-size="14.00">robert bigelow</text>
</g>
<!-- Entity16&#45;&gt;Entity6 -->
<g id="edge10" class="edge verb">
<title>Entity16&#45;&gt;Entity6</title>
<path fill="none" stroke="black" d="M889.49,-35.46C860.65,-103.97 757.1,-349.9 722.27,-432.63"/>
<polygon fill="black" stroke="black" points="719.03,-431.31 718.37,-441.88 725.48,-434.02 719.03,-431.31"/>
<text text-anchor="start" x="773.88" y="-237.84" font-family="Times New Roman,serif" font-size="14.00">funds</text>
</g>
<!-- Entity16&#45;&gt;Entity55 -->
<g id="edge49" class="edge verb">
<title>Entity16&#45;&gt;Entity55</title>
<path fill="none" stroke="black" d="M915.13,-34.85C985.72,-102.2 1242.58,-347.28 1325.71,-426.6"/>
<polygon fill="black" stroke="black" points="1323.55,-429.38 1333.2,-433.75 1328.38,-424.31 1323.55,-429.38"/>
<text text-anchor="start" x="1056.42" y="-234.53" font-family="Times New Roman,serif" font-size="14.00">investigates</text>
</g>
<!-- Entity26 -->
<g id="node16" class="node entity">
<title>Entity26</title>
<ellipse fill="none" stroke="black" cx="1531.03" cy="-559.55" rx="53.89" ry="18"/>
<text text-anchor="start" x="1497.53" y="-555.85" font-family="Times New Roman,serif" font-size="14.00">edgar casey</text>
</g>
<!-- Entity27 -->
<g id="node17" class="node entity">
<title>Entity27</title>
<ellipse fill="none" stroke="black" cx="2022.11" cy="-722.33" rx="71.49" ry="18"/>
<text text-anchor="start" x="1975.11" y="-718.63" font-family="Times New Roman,serif" font-size="14.00">woodrow wilson</text>
</g>
<!-- Entity26&#45;&gt;Entity27 -->
<g id="edge11" class="edge verb">
<title>Entity26&#45;&gt;Entity27</title>
<path fill="none" stroke="black" d="M1569.56,-572.32C1656.76,-601.23 1869.36,-671.7 1968.97,-704.72"/>
<polygon fill="black" stroke="black" points="1967.94,-708.06 1978.54,-707.89 1970.15,-701.42 1967.94,-708.06"/>
<text text-anchor="start" x="1733.27" y="-642.32" font-family="Times New Roman,serif" font-size="14.00">advise</text>
</g>
<!-- Entity27&#45;&gt;Entity53 -->
<g id="edge38" class="edge verb">
<title>Entity27&#45;&gt;Entity53</title>
<path fill="none" stroke="black" d="M2057.66,-738.02C2149.19,-778.41 2392.05,-885.57 2482.17,-925.33"/>
<polygon fill="black" stroke="black" points="2480.83,-928.57 2491.4,-929.41 2483.66,-922.17 2480.83,-928.57"/>
<text text-anchor="start" x="2259.92" y="-835.48" font-family="Times New Roman,serif" font-size="14.00">is</text>
</g>
<!-- Entity58 -->
<g id="node59" class="node entity">
<title>Entity58</title>
<ellipse fill="none" stroke="black" cx="1606.5" cy="-213.56" rx="71.49" ry="18"/>
<text text-anchor="start" x="1559.5" y="-209.86" font-family="Times New Roman,serif" font-size="14.00">leauge of nations</text>
</g>
<!-- Entity27&#45;&gt;Entity58 -->
<g id="edge65" class="edge verb">
<title>Entity27&#45;&gt;Entity58</title>
<path fill="none" stroke="black" d="M2007.56,-704.52C1945.22,-628.2 1700.45,-328.56 1627.27,-238.99"/>
<polygon fill="black" stroke="black" points="1629.97,-236.76 1620.93,-231.23 1624.55,-241.18 1629.97,-236.76"/>
<text text-anchor="start" x="1783.42" y="-475.55" font-family="Times New Roman,serif" font-size="14.00">create</text>
</g>
<!-- Entity25 -->
<g id="node18" class="node entity">
<title>Entity25</title>
<ellipse fill="none" stroke="black" cx="1529.58" cy="-1759.66" rx="58.49" ry="18"/>
<text text-anchor="start" x="1492.58" y="-1755.96" font-family="Times New Roman,serif" font-size="14.00">steve bannon</text>
</g>
<!-- Entity8 -->
<g id="node19" class="node entity">
<title>Entity8</title>
<ellipse fill="none" stroke="black" cx="2018.84" cy="-1207.76" rx="59.59" ry="18"/>
<text text-anchor="start" x="1980.84" y="-1204.06" font-family="Times New Roman,serif" font-size="14.00">donald trump</text>
</g>
<!-- Entity25&#45;&gt;Entity8 -->
<g id="edge12" class="edge verb">
<title>Entity25&#45;&gt;Entity8</title>
<path fill="none" stroke="black" d="M1548.42,-1742.44C1626.31,-1662.63 1921.81,-1329.43 1999.89,-1233.6"/>
<polygon fill="black" stroke="black" points="2002.8,-1235.56 2006.36,-1225.58 1997.35,-1231.17 2002.8,-1235.56"/>
<text text-anchor="start" x="1726.16" y="-1491.82" font-family="Times New Roman,serif" font-size="14.00">promote</text>
</g>
<!-- Entity25&#45;&gt;Entity8 -->
<g id="edge15" class="edge verb">
<title>Entity25&#45;&gt;Entity8</title>
<path fill="none" stroke="black" d="M1542.1,-1741.79C1606.86,-1660.49 1902.97,-1326.16 1992.92,-1232.31"/>
<polygon fill="black" stroke="black" points="1995.57,-1234.6 2000.01,-1224.98 1990.54,-1229.74 1995.57,-1234.6"/>
<text text-anchor="start" x="1731.51" y="-1475.85" font-family="Times New Roman,serif" font-size="14.00">advise</text>
</g>
<!-- Entity76 -->
<g id="node38" class="node entity">
<title>Entity76</title>
<ellipse fill="none" stroke="black" cx="1401.49" cy="-1867.71" rx="77.19" ry="18"/>
<text text-anchor="start" x="1349.99" y="-1864.01" font-family="Times New Roman,serif" font-size="14.00">hollywood movies</text>
</g>
<!-- Entity25&#45;&gt;Entity76 -->
<g id="edge30" class="edge verb">
<title>Entity25&#45;&gt;Entity76</title>
<path fill="none" stroke="black" d="M1509.29,-1776.78C1487.86,-1794.85 1453.93,-1823.47 1429.87,-1843.77"/>
<polygon fill="black" stroke="black" points="1427.5,-1841.19 1422.11,-1850.31 1432.01,-1846.54 1427.5,-1841.19"/>
<text text-anchor="start" x="1422.58" y="-1814.08" font-family="Times New Roman,serif" font-size="14.00">produce</text>
</g>
<!-- Entity64 -->
<g id="node46" class="node entity">
<title>Entity64</title>
<ellipse fill="none" stroke="black" cx="1188.39" cy="-2128.18" rx="38.19" ry="18"/>
<text text-anchor="start" x="1166.89" y="-2124.48" font-family="Times New Roman,serif" font-size="14.00">us navy</text>
</g>
<!-- Entity25&#45;&gt;Entity64 -->
<g id="edge39" class="edge verb">
<title>Entity25&#45;&gt;Entity64</title>
<path fill="none" stroke="black" d="M1513.13,-1777.44C1457.24,-1837.8 1274.67,-2034.99 1210.74,-2104.04"/>
<polygon fill="black" stroke="black" points="1208.12,-2101.72 1203.9,-2111.44 1213.26,-2106.48 1208.12,-2101.72"/>
<text text-anchor="start" x="1315.94" y="-1944.54" font-family="Times New Roman,serif" font-size="14.00">member</text>
</g>
<!-- Entity77 -->
<g id="node49" class="node entity">
<title>Entity77</title>
<ellipse fill="none" stroke="black" cx="996.52" cy="-2020.19" rx="64.99" ry="18"/>
<text text-anchor="start" x="954.52" y="-2016.49" font-family="Times New Roman,serif" font-size="14.00">goldman sachs</text>
</g>
<!-- Entity25&#45;&gt;Entity77 -->
<g id="edge44" class="edge verb">
<title>Entity25&#45;&gt;Entity77</title>
<path fill="none" stroke="black" d="M1498.23,-1774.99C1406.9,-1819.62 1141.06,-1949.55 1038.01,-1999.91"/>
<polygon fill="black" stroke="black" points="1036.29,-1996.85 1028.85,-2004.39 1039.37,-2003.14 1036.29,-1996.85"/>
<text text-anchor="start" x="1214.12" y="-1891.25" font-family="Times New Roman,serif" font-size="14.00">employee</text>
</g>
<!-- Entity63 -->
<g id="node51" class="node entity">
<title>Entity63</title>
<ellipse fill="none" stroke="black" cx="1009.57" cy="-1828.36" rx="53.09" ry="18"/>
<text text-anchor="start" x="976.57" y="-1824.66" font-family="Times New Roman,serif" font-size="14.00">biosphere 2</text>
</g>
<!-- Entity25&#45;&gt;Entity63 -->
<g id="edge50" class="edge verb">
<title>Entity25&#45;&gt;Entity63</title>
<path fill="none" stroke="black" d="M1475.4,-1766.82C1377.45,-1779.76 1171.6,-1806.96 1069.55,-1820.44"/>
<polygon fill="black" stroke="black" points="1068.87,-1817 1059.41,-1821.78 1069.79,-1823.94 1068.87,-1817"/>
<text text-anchor="start" x="1238.48" y="-1797.43" font-family="Times New Roman,serif" font-size="14.00">create</text>
</g>
<!-- Entity65 -->
<g id="node53" class="node entity">
<title>Entity65</title>
<ellipse fill="none" stroke="black" cx="1656.28" cy="-2304.09" rx="61.99" ry="18"/>
<text text-anchor="start" x="1616.78" y="-2300.39" font-family="Times New Roman,serif" font-size="14.00">breitbart news</text>
</g>
<!-- Entity25&#45;&gt;Entity65 -->
<g id="edge55" class="edge verb">
<title>Entity25&#45;&gt;Entity65</title>
<path fill="none" stroke="black" d="M1533.8,-1777.78C1552.38,-1857.63 1627.06,-2178.53 1649.73,-2275.92"/>
<polygon fill="black" stroke="black" points="1646.38,-2276.96 1652.05,-2285.91 1653.19,-2275.38 1646.38,-2276.96"/>
<text text-anchor="start" x="1557.76" y="-2030.65" font-family="Times New Roman,serif" font-size="14.00">create</text>
</g>
<!-- Entity61 -->
<g id="node58" class="node entity">
<title>Entity61</title>
<ellipse fill="none" stroke="black" cx="1408.64" cy="-2195.38" rx="35.19" ry="18"/>
<text text-anchor="start" x="1389.64" y="-2191.68" font-family="Times New Roman,serif" font-size="14.00">gurgev</text>
</g>
<!-- Entity25&#45;&gt;Entity61 -->
<g id="edge64" class="edge verb">
<title>Entity25&#45;&gt;Entity61</title>
<path fill="none" stroke="black" d="M1524.54,-1777.83C1505.68,-1845.79 1439.19,-2085.33 1416.39,-2167.48"/>
<polygon fill="black" stroke="black" points="1413.01,-2166.56 1413.71,-2177.13 1419.76,-2168.43 1413.01,-2166.56"/>
<text text-anchor="start" x="1439.46" y="-1976.45" font-family="Times New Roman,serif" font-size="14.00">study</text>
</g>
<!-- Entity8&#45;&gt;Entity30 -->
<g id="edge13" class="edge verb">
<title>Entity8&#45;&gt;Entity30</title>
<path fill="none" stroke="black" d="M2013.49,-1189.67C1988.33,-1104.69 1881.81,-744.86 1851.33,-641.91"/>
<polygon fill="black" stroke="black" points="1854.66,-640.82 1848.47,-632.23 1847.95,-642.81 1854.66,-640.82"/>
<text text-anchor="start" x="1889.41" y="-919.59" font-family="Times New Roman,serif" font-size="14.00">nephew</text>
</g>
<!-- Entity8&#45;&gt;Entity53 -->
<g id="edge25" class="edge verb">
<title>Entity8&#45;&gt;Entity53</title>
<path fill="none" stroke="black" d="M2048.11,-1192.04C2135.44,-1145.13 2393.68,-1006.41 2484.46,-957.65"/>
<polygon fill="black" stroke="black" points="2486.3,-960.63 2493.45,-952.82 2482.99,-954.47 2486.3,-960.63"/>
<text text-anchor="start" x="2256.28" y="-1078.64" font-family="Times New Roman,serif" font-size="14.00">is</text>
</g>
<!-- Entity34 -->
<g id="node20" class="node entity">
<title>Entity34</title>
<ellipse fill="none" stroke="black" cx="2072.9" cy="-2415.87" rx="90.98" ry="18"/>
<text text-anchor="start" x="2010.9" y="-2412.17" font-family="Times New Roman,serif" font-size="14.00">emma hardinge&#45;britten</text>
</g>
<!-- Entity38 -->
<g id="node21" class="node entity">
<title>Entity38</title>
<ellipse fill="none" stroke="black" cx="2331.58" cy="-1586.04" rx="67.69" ry="18"/>
<text text-anchor="start" x="2287.58" y="-1582.34" font-family="Times New Roman,serif" font-size="14.00">abraham lincoln</text>
</g>
<!-- Entity34&#45;&gt;Entity38 -->
<g id="edge14" class="edge verb">
<title>Entity34&#45;&gt;Entity38</title>
<path fill="none" stroke="black" d="M2078.54,-2397.77C2111.81,-2291.04 2282.29,-1744.15 2322.89,-1613.9"/>
<polygon fill="black" stroke="black" points="2326.26,-1614.85 2325.9,-1604.26 2319.58,-1612.76 2326.26,-1614.85"/>
<text text-anchor="start" x="2121.72" y="-2009.64" font-family="Times New Roman,serif" font-size="14.00">spokesperson</text>
</g>
<!-- Entity59 -->
<g id="node37" class="node entity">
<title>Entity59</title>
<ellipse fill="none" stroke="black" cx="2501.69" cy="-3016.1" rx="85.29" ry="18"/>
<text text-anchor="start" x="2444.19" y="-3012.4" font-family="Times New Roman,serif" font-size="14.00">theosophical society</text>
</g>
<!-- Entity34&#45;&gt;Entity59 -->
<g id="edge41" class="edge verb">
<title>Entity34&#45;&gt;Entity59</title>
<path fill="none" stroke="black" d="M2085.73,-2433.84C2147.07,-2519.7 2410.38,-2888.27 2483.05,-2990"/>
<polygon fill="black" stroke="black" points="2480.25,-2992.1 2488.91,-2998.2 2485.94,-2988.03 2480.25,-2992.1"/>
<text text-anchor="start" x="2250.39" y="-2715.72" font-family="Times New Roman,serif" font-size="14.00">create</text>
</g>
<!-- Entity68 -->
<g id="node50" class="node entity">
<title>Entity68</title>
<ellipse fill="none" stroke="black" cx="1840.8" cy="-2962.39" rx="39.79" ry="18"/>
<text text-anchor="start" x="1818.3" y="-2958.69" font-family="Times New Roman,serif" font-size="14.00">medium</text>
</g>
<!-- Entity34&#45;&gt;Entity68 -->
<g id="edge45" class="edge verb">
<title>Entity34&#45;&gt;Entity68</title>
<path fill="none" stroke="black" d="M2065.18,-2434.06C2030.99,-2514.55 1893.16,-2839.09 1852.28,-2935.35"/>
<polygon fill="black" stroke="black" points="1849,-2934.11 1848.31,-2944.69 1855.44,-2936.85 1849,-2934.11"/>
<text text-anchor="start" x="1948.73" y="-2688.5" font-family="Times New Roman,serif" font-size="14.00">is</text>
</g>
<!-- Entity69 -->
<g id="node60" class="node entity">
<title>Entity69</title>
<ellipse fill="none" stroke="black" cx="2078.48" cy="-3070.34" rx="55.79" ry="18"/>
<text text-anchor="start" x="2043.48" y="-3066.64" font-family="Times New Roman,serif" font-size="14.00">orphic circle</text>
</g>
<!-- Entity34&#45;&gt;Entity69 -->
<g id="edge66" class="edge verb">
<title>Entity34&#45;&gt;Entity69</title>
<path fill="none" stroke="black" d="M2073.05,-2434.06C2073.83,-2525.07 2077.29,-2931.03 2078.24,-3042.14"/>
<polygon fill="black" stroke="black" points="2074.74,-3042.27 2078.32,-3052.24 2081.74,-3042.21 2074.74,-3042.27"/>
<text text-anchor="start" x="2029.65" y="-2741.9" font-family="Times New Roman,serif" font-size="14.00">member</text>
</g>
<!-- Entity38&#45;&gt;Entity53 -->
<g id="edge51" class="edge verb">
<title>Entity38&#45;&gt;Entity53</title>
<path fill="none" stroke="black" d="M2336.81,-1567.76C2362.72,-1477.3 2477.18,-1077.6 2508.5,-968.22"/>
<polygon fill="black" stroke="black" points="2511.96,-968.86 2511.35,-958.28 2505.23,-966.93 2511.96,-968.86"/>
<text text-anchor="start" x="2412.66" y="-1271.79" font-family="Times New Roman,serif" font-size="14.00">is</text>
</g>
<!-- Entity40 -->
<g id="node22" class="node entity">
<title>Entity40</title>
<ellipse fill="none" stroke="black" cx="2967.33" cy="-1435.06" rx="57.69" ry="18"/>
<text text-anchor="start" x="2930.83" y="-1431.36" font-family="Times New Roman,serif" font-size="14.00">michael pane</text>
</g>
<!-- Entity37 -->
<g id="node23" class="node entity">
<title>Entity37</title>
<ellipse fill="none" stroke="black" cx="3207.51" cy="-1543.12" rx="74.99" ry="18"/>
<text text-anchor="start" x="3158.01" y="-1539.42" font-family="Times New Roman,serif" font-size="14.00">walter dornberger</text>
</g>
<!-- Entity40&#45;&gt;Entity37 -->
<g id="edge16" class="edge verb">
<title>Entity40&#45;&gt;Entity37</title>
<path fill="none" stroke="black" d="M3000.47,-1449.97C3042.61,-1468.93 3115.53,-1501.73 3162.63,-1522.92"/>
<polygon fill="black" stroke="black" points="3161.42,-1526.22 3171.97,-1527.13 3164.29,-1519.83 3161.42,-1526.22"/>
<text text-anchor="start" x="3027.55" y="-1490.25" font-family="Times New Roman,serif" font-size="14.00">employee</text>
</g>
<!-- Entity40&#45;&gt;Entity56 -->
<g id="edge62" class="edge verb">
<title>Entity40&#45;&gt;Entity56</title>
<path fill="none" stroke="black" d="M2917.37,-1425.76C2817.52,-1407.17 2593.86,-1365.52 2488.35,-1345.88"/>
<polygon fill="black" stroke="black" points="2488.99,-1342.44 2478.52,-1344.05 2487.71,-1349.32 2488.99,-1342.44"/>
<text text-anchor="start" x="2648.86" y="-1389.62" font-family="Times New Roman,serif" font-size="14.00">employee</text>
</g>
<!-- Entity51 -->
<g id="node24" class="node entity">
<title>Entity51</title>
<ellipse fill="none" stroke="black" cx="3758.84" cy="-1859.86" rx="32.49" ry="18"/>
<text text-anchor="start" x="3741.84" y="-1856.16" font-family="Times New Roman,serif" font-size="14.00">nsdap</text>
</g>
<!-- Entity37&#45;&gt;Entity51 -->
<g id="edge17" class="edge verb">
<title>Entity37&#45;&gt;Entity51</title>
<path fill="none" stroke="black" d="M3236.76,-1559.92C3331.44,-1614.31 3629.04,-1785.29 3727.13,-1841.65"/>
<polygon fill="black" stroke="black" points="3725.58,-1844.79 3735.99,-1846.73 3729.06,-1838.72 3725.58,-1844.79"/>
<text text-anchor="start" x="3435.95" y="-1704.58" font-family="Times New Roman,serif" font-size="14.00">member</text>
</g>
<!-- Entity37&#45;&gt;Entity56 -->
<g id="edge32" class="edge verb">
<title>Entity37&#45;&gt;Entity56</title>
<path fill="none" stroke="black" d="M3164.97,-1528.29C3033.92,-1488.6 2636.37,-1382.01 2487.91,-1346.59"/>
<polygon fill="black" stroke="black" points="2488.61,-1343.16 2478.07,-1344.27 2487,-1349.98 2488.61,-1343.16"/>
<text text-anchor="start" x="2772.44" y="-1426.24" font-family="Times New Roman,serif" font-size="14.00">employee</text>
</g>
<!-- Entity37&#45;&gt;Entity56 -->
<g id="edge42" class="edge verb">
<title>Entity37&#45;&gt;Entity56</title>
<path fill="none" stroke="black" d="M3149.77,-1531.52C3002.08,-1496.23 2612.71,-1391.87 2477.91,-1351.33"/>
<polygon fill="black" stroke="black" points="2478.86,-1347.96 2468.27,-1348.4 2476.83,-1354.66 2478.86,-1347.96"/>
<text text-anchor="start" x="2734.84" y="-1445.22" font-family="Times New Roman,serif" font-size="14.00">vice&#45;president</text>
</g>
<!-- Entity72 -->
<g id="node48" class="node entity">
<title>Entity72</title>
<ellipse fill="none" stroke="black" cx="3854.22" cy="-1357.64" rx="90.98" ry="18"/>
<text text-anchor="start" x="3792.22" y="-1353.94" font-family="Times New Roman,serif" font-size="14.00">nsdap rocket program</text>
</g>
<!-- Entity37&#45;&gt;Entity72 -->
<g id="edge43" class="edge verb">
<title>Entity37&#45;&gt;Entity72</title>
<path fill="none" stroke="black" d="M3255.59,-1529.33C3371.13,-1496.19 3664.31,-1412.1 3792.56,-1375.32"/>
<polygon fill="black" stroke="black" points="3793.6,-1378.66 3802.24,-1372.54 3791.67,-1371.94 3793.6,-1378.66"/>
<text text-anchor="start" x="3490.08" y="-1456.12" font-family="Times New Roman,serif" font-size="14.00">create</text>
</g>
<!-- Entity73 -->
<g id="node61" class="node entity">
<title>Entity73</title>
<ellipse fill="none" stroke="black" cx="3830.46" cy="-1622.39" rx="65.79" ry="18"/>
<text text-anchor="start" x="3787.96" y="-1618.69" font-family="Times New Roman,serif" font-size="14.00">x series aircraft</text>
</g>
<!-- Entity37&#45;&gt;Entity73 -->
<g id="edge67" class="edge verb">
<title>Entity37&#45;&gt;Entity73</title>
<path fill="none" stroke="black" d="M3273.88,-1551.56C3392.38,-1566.64 3639.26,-1598.06 3760.38,-1613.47"/>
<polygon fill="black" stroke="black" points="3760.28,-1616.99 3770.64,-1614.78 3761.16,-1610.04 3760.28,-1616.99"/>
<text text-anchor="start" x="3483.13" y="-1586.32" font-family="Times New Roman,serif" font-size="14.00">create</text>
</g>
<!-- Entity74 -->
<g id="node41" class="node entity">
<title>Entity74</title>
<ellipse fill="none" stroke="black" cx="4003.42" cy="-2165.82" rx="38.99" ry="18"/>
<text text-anchor="start" x="3981.42" y="-2162.12" font-family="Times New Roman,serif" font-size="14.00">far right</text>
</g>
<!-- Entity51&#45;&gt;Entity74 -->
<g id="edge47" class="edge verb">
<title>Entity51&#45;&gt;Entity74</title>
<path fill="none" stroke="black" d="M3772.34,-1876.75C3813.09,-1927.72 3935,-2080.22 3983.35,-2140.7"/>
<polygon fill="black" stroke="black" points="3980.69,-2142.98 3989.67,-2148.61 3986.16,-2138.61 3980.69,-2142.98"/>
<text text-anchor="start" x="3831.84" y="-2012.53" font-family="Times New Roman,serif" font-size="14.00">member</text>
</g>
<!-- Entity46 -->
<g id="node25" class="node entity">
<title>Entity46</title>
<ellipse fill="none" stroke="black" cx="3683.85" cy="-1465.6" rx="46.29" ry="18"/>
<text text-anchor="start" x="3656.35" y="-1461.9" font-family="Times New Roman,serif" font-size="14.00">van braun</text>
</g>
<!-- Entity46&#45;&gt;Entity37 -->
<g id="edge18" class="edge verb">
<title>Entity46&#45;&gt;Entity37</title>
<path fill="none" stroke="black" d="M3641.16,-1472.55C3559.47,-1485.84 3380.25,-1515.01 3279.66,-1531.37"/>
<polygon fill="black" stroke="black" points="3278.89,-1527.95 3269.58,-1533.01 3280.01,-1534.86 3278.89,-1527.95"/>
<text text-anchor="start" x="3406.41" y="-1505.76" font-family="Times New Roman,serif" font-size="14.00">employee</text>
</g>
<!-- Entity46&#45;&gt;Entity72 -->
<g id="edge46" class="edge verb">
<title>Entity46&#45;&gt;Entity72</title>
<path fill="none" stroke="black" d="M3708.26,-1450.13C3737.15,-1431.83 3785.49,-1401.19 3818.56,-1380.23"/>
<polygon fill="black" stroke="black" points="3820.46,-1383.17 3827.04,-1374.86 3816.72,-1377.26 3820.46,-1383.17"/>
<text text-anchor="start" x="3709.41" y="-1418.98" font-family="Times New Roman,serif" font-size="14.00">employee</text>
</g>
<!-- Entity49 -->
<g id="node26" class="node entity">
<title>Entity49</title>
<ellipse fill="none" stroke="black" cx="4192.59" cy="-1955.01" rx="49.29" ry="18"/>
<text text-anchor="start" x="4162.59" y="-1951.31" font-family="Times New Roman,serif" font-size="14.00">adolf hitler</text>
</g>
<!-- Entity49&#45;&gt;Entity51 -->
<g id="edge19" class="edge verb">
<title>Entity49&#45;&gt;Entity51</title>
<path fill="none" stroke="black" d="M4150.21,-1945.71C4066.5,-1927.35 3880.96,-1886.65 3799.05,-1868.68"/>
<polygon fill="black" stroke="black" points="3799.64,-1865.23 3789.12,-1866.5 3798.14,-1872.07 3799.64,-1865.23"/>
<text text-anchor="start" x="3940.63" y="-1911" font-family="Times New Roman,serif" font-size="14.00">create</text>
</g>
<!-- Entity50 -->
<g id="node27" class="node entity">
<title>Entity50</title>
<ellipse fill="none" stroke="black" cx="2644.89" cy="-580.55" rx="37.89" ry="18"/>
<text text-anchor="start" x="2623.89" y="-576.85" font-family="Times New Roman,serif" font-size="14.00">hunt oil</text>
</g>
<!-- Entity48 -->
<g id="node28" class="node entity">
<title>Entity48</title>
<ellipse fill="none" stroke="black" cx="3018.89" cy="-753.8" rx="77.99" ry="18"/>
<text text-anchor="start" x="2966.89" y="-750.1" font-family="Times New Roman,serif" font-size="14.00">dwight eisenhower</text>
</g>
<!-- Entity50&#45;&gt;Entity48 -->
<g id="edge20" class="edge verb">
<title>Entity50&#45;&gt;Entity48</title>
<path fill="none" stroke="black" d="M2672.09,-593.15C2736.14,-622.82 2896.91,-697.29 2974.98,-733.46"/>
<polygon fill="black" stroke="black" points="2973.54,-736.65 2984.08,-737.67 2976.48,-730.3 2973.54,-736.65"/>
<text text-anchor="start" x="2797.54" y="-667.1" font-family="Times New Roman,serif" font-size="14.00">fund</text>
</g>
<!-- Entity48&#45;&gt;Entity53 -->
<g id="edge52" class="edge verb">
<title>Entity48&#45;&gt;Entity53</title>
<path fill="none" stroke="black" d="M2977.34,-769.23C2880.92,-805.06 2643.24,-893.36 2552.48,-927.08"/>
<polygon fill="black" stroke="black" points="2551.06,-923.87 2542.91,-930.63 2553.5,-930.43 2551.06,-923.87"/>
<text text-anchor="start" x="2754.91" y="-851.96" font-family="Times New Roman,serif" font-size="14.00">is</text>
</g>
<!-- Entity45&#45;&gt;Entity74 -->
<g id="edge33" class="edge verb">
<title>Entity45&#45;&gt;Entity74</title>
<path fill="none" stroke="black" d="M3653.77,-2273.12C3728.91,-2250.05 3885.77,-2201.92 3961.17,-2178.78"/>
<polygon fill="black" stroke="black" points="3962.28,-2182.1 3970.82,-2175.82 3960.23,-2175.41 3962.28,-2182.1"/>
<text text-anchor="start" x="3761.47" y="-2229.75" font-family="Times New Roman,serif" font-size="14.00">member</text>
</g>
<!-- Entity13 -->
<g id="node32" class="node entity">
<title>Entity13</title>
<ellipse fill="none" stroke="black" cx="2356.17" cy="-614.26" rx="58.49" ry="18"/>
<text text-anchor="start" x="2319.17" y="-610.56" font-family="Times New Roman,serif" font-size="14.00">richard nixon</text>
</g>
<!-- Entity13&#45;&gt;Entity53 -->
<g id="edge24" class="edge verb">
<title>Entity13&#45;&gt;Entity53</title>
<path fill="none" stroke="black" d="M2365.01,-632.27C2391.73,-686.64 2471.7,-849.39 2503.35,-913.8"/>
<polygon fill="black" stroke="black" points="2500.28,-915.48 2507.83,-922.91 2506.56,-912.39 2500.28,-915.48"/>
<text text-anchor="start" x="2424.18" y="-776.83" font-family="Times New Roman,serif" font-size="14.00">is</text>
</g>
<!-- Entity10 -->
<g id="node33" class="node entity">
<title>Entity10</title>
<ellipse fill="none" stroke="black" cx="2928.12" cy="-580.53" rx="56.59" ry="18"/>
<text text-anchor="start" x="2892.62" y="-576.83" font-family="Times New Roman,serif" font-size="14.00">harry truman</text>
</g>
<!-- Entity10&#45;&gt;Entity53 -->
<g id="edge26" class="edge verb">
<title>Entity10&#45;&gt;Entity53</title>
<path fill="none" stroke="black" d="M2908.54,-597.65C2840.86,-656.83 2616.82,-852.71 2541.45,-918.61"/>
<polygon fill="black" stroke="black" points="2539.04,-916.07 2533.81,-925.28 2543.65,-921.34 2539.04,-916.07"/>
<text text-anchor="start" x="2714.99" y="-761.93" font-family="Times New Roman,serif" font-size="14.00">is</text>
</g>
<!-- Entity57 -->
<g id="node42" class="node entity">
<title>Entity57</title>
<ellipse fill="none" stroke="black" cx="3303.42" cy="-182.57" rx="55.79" ry="18"/>
<text text-anchor="start" x="3268.42" y="-178.87" font-family="Times New Roman,serif" font-size="14.00">freemasonry</text>
</g>
<!-- Entity10&#45;&gt;Entity57 -->
<g id="edge34" class="edge verb">
<title>Entity10&#45;&gt;Entity57</title>
<path fill="none" stroke="black" d="M2944.48,-563.18C3004.11,-499.95 3209.84,-281.8 3279.87,-207.55"/>
<polygon fill="black" stroke="black" points="3282.65,-209.7 3286.97,-200.02 3277.56,-204.89 3282.65,-209.7"/>
<text text-anchor="start" x="3066.18" y="-389.16" font-family="Times New Roman,serif" font-size="14.00">member</text>
</g>
<!-- Entity22 -->
<g id="node35" class="node entity">
<title>Entity22</title>
<ellipse fill="none" stroke="black" cx="2521.36" cy="-2379.44" rx="58.49" ry="18"/>
<text text-anchor="start" x="2484.36" y="-2375.74" font-family="Times New Roman,serif" font-size="14.00">rudolf steiner</text>
</g>
<!-- Entity60 -->
<g id="node36" class="node entity">
<title>Entity60</title>
<ellipse fill="none" stroke="black" cx="2652.04" cy="-2487.39" rx="102.08" ry="18"/>
<text text-anchor="start" x="2581.54" y="-2483.69" font-family="Times New Roman,serif" font-size="14.00">anthroposophical society</text>
</g>
<!-- Entity22&#45;&gt;Entity60 -->
<g id="edge28" class="edge verb">
<title>Entity22&#45;&gt;Entity60</title>
<path fill="none" stroke="black" d="M2542.07,-2396.54C2563.79,-2414.49 2598.13,-2442.85 2622.66,-2463.11"/>
<polygon fill="black" stroke="black" points="2620.63,-2465.97 2630.56,-2469.64 2625.08,-2460.58 2620.63,-2465.97"/>
<text text-anchor="start" x="2548.36" y="-2433.63" font-family="Times New Roman,serif" font-size="14.00">create</text>
</g>
<!-- Entity22&#45;&gt;Entity59 -->
<g id="edge29" class="edge verb">
<title>Entity22&#45;&gt;Entity59</title>
<path fill="none" stroke="black" d="M2520.8,-2397.47C2518.05,-2486.38 2505.95,-2878.33 2502.57,-2987.68"/>
<polygon fill="black" stroke="black" points="2499.06,-2987.82 2502.25,-2997.92 2506.06,-2988.03 2499.06,-2987.82"/>
<text text-anchor="start" x="2465.69" y="-2696.37" font-family="Times New Roman,serif" font-size="14.00">member</text>
</g>
<!-- Entity44 -->
<g id="node39" class="node entity">
<title>Entity44</title>
<ellipse fill="none" stroke="black" cx="2783.94" cy="-1907.66" rx="53.89" ry="18"/>
<text text-anchor="start" x="2750.44" y="-1903.96" font-family="Times New Roman,serif" font-size="14.00">black magic</text>
</g>
<!-- Entity71 -->
<g id="node40" class="node entity">
<title>Entity71</title>
<ellipse fill="none" stroke="black" cx="2871.66" cy="-2019.64" rx="28.7" ry="18"/>
<text text-anchor="start" x="2857.66" y="-2015.94" font-family="Times New Roman,serif" font-size="14.00">x left</text>
</g>
<!-- Entity44&#45;&gt;Entity71 -->
<g id="edge31" class="edge verb">
<title>Entity44&#45;&gt;Entity71</title>
<path fill="none" stroke="black" d="M2797.64,-1925.16C2812.45,-1944.05 2836.14,-1974.29 2852.72,-1995.45"/>
<polygon fill="black" stroke="black" points="2849.98,-1997.64 2858.9,-2003.36 2855.49,-1993.32 2849.98,-1997.64"/>
<text text-anchor="start" x="2779.18" y="-1964.11" font-family="Times New Roman,serif" font-size="14.00">member</text>
</g>
<!-- Entity14 -->
<g id="node44" class="node entity">
<title>Entity14</title>
<ellipse fill="none" stroke="black" cx="2421.26" cy="-506.34" rx="31.4" ry="18"/>
<text text-anchor="start" x="2405.26" y="-502.64" font-family="Times New Roman,serif" font-size="14.00">carter</text>
</g>
<!-- Entity14&#45;&gt;Entity53 -->
<g id="edge36" class="edge verb">
<title>Entity14&#45;&gt;Entity53</title>
<path fill="none" stroke="black" d="M2425.23,-524.44C2440.06,-592.08 2492.3,-830.33 2510.3,-912.42"/>
<polygon fill="black" stroke="black" points="2506.91,-913.27 2512.47,-922.28 2513.74,-911.77 2506.91,-913.27"/>
<text text-anchor="start" x="2457.76" y="-722.23" font-family="Times New Roman,serif" font-size="14.00">is</text>
</g>
<!-- Entity14&#45;&gt;Entity54 -->
<g id="edge63" class="edge verb">
<title>Entity14&#45;&gt;Entity54</title>
<path fill="none" stroke="black" d="M2410.58,-489.37C2377.7,-437.13 2277.85,-278.48 2238.67,-216.21"/>
<polygon fill="black" stroke="black" points="2241.42,-214.01 2233.13,-207.41 2235.49,-217.74 2241.42,-214.01"/>
<text text-anchor="start" x="2282.62" y="-356.59" font-family="Times New Roman,serif" font-size="14.00">witness</text>
</g>
<!-- Entity21 -->
<g id="node45" class="node entity">
<title>Entity21</title>
<ellipse fill="none" stroke="black" cx="2879.93" cy="-940.32" rx="35.19" ry="18"/>
<text text-anchor="start" x="2860.93" y="-936.62" font-family="Times New Roman,serif" font-size="14.00">obama</text>
</g>
<!-- Entity21&#45;&gt;Entity53 -->
<g id="edge37" class="edge verb">
<title>Entity21&#45;&gt;Entity53</title>
<path fill="none" stroke="black" d="M2844.75,-940.33C2777.25,-940.36 2629.88,-940.42 2557.81,-940.45"/>
<polygon fill="black" stroke="black" points="2557.74,-936.95 2547.74,-940.45 2557.74,-943.95 2557.74,-936.95"/>
<text text-anchor="start" x="2691.28" y="-944.19" font-family="Times New Roman,serif" font-size="14.00">is</text>
</g>
<!-- Entity35 -->
<g id="node54" class="node entity">
<title>Entity35</title>
<ellipse fill="none" stroke="black" cx="1509.94" cy="-1487.66" rx="39.79" ry="18"/>
<text text-anchor="start" x="1487.44" y="-1483.96" font-family="Times New Roman,serif" font-size="14.00">crowley</text>
</g>
<!-- Entity70 -->
<g id="node55" class="node entity">
<title>Entity70</title>
<ellipse fill="none" stroke="black" cx="1597.66" cy="-1599.64" rx="38.99" ry="18"/>
<text text-anchor="start" x="1575.66" y="-1595.94" font-family="Times New Roman,serif" font-size="14.00">x magic</text>
</g>
<!-- Entity35&#45;&gt;Entity70 -->
<g id="edge56" class="edge verb">
<title>Entity35&#45;&gt;Entity70</title>
<path fill="none" stroke="black" d="M1523.26,-1504.67C1537.82,-1523.25 1561.28,-1553.2 1577.96,-1574.49"/>
<polygon fill="black" stroke="black" points="1575.29,-1576.76 1584.21,-1582.47 1580.8,-1572.44 1575.29,-1576.76"/>
<text text-anchor="start" x="1504.61" y="-1543.38" font-family="Times New Roman,serif" font-size="14.00">member</text>
</g>
<!-- Entity24 -->
<g id="node56" class="node entity">
<title>Entity24</title>
<ellipse fill="none" stroke="black" cx="2642.84" cy="-3676.43" rx="73.39" ry="18"/>
<text text-anchor="start" x="2594.34" y="-3672.73" font-family="Times New Roman,serif" font-size="14.00">madam blavatsky</text>
</g>
<!-- Entity24&#45;&gt;Entity59 -->
<g id="edge60" class="edge verb">
<title>Entity24&#45;&gt;Entity59</title>
<path fill="none" stroke="black" d="M2638.99,-3658.42C2619.47,-3567.11 2531.43,-3155.21 2507.63,-3043.9"/>
<polygon fill="black" stroke="black" points="2511.05,-3043.13 2505.54,-3034.08 2504.2,-3044.59 2511.05,-3043.13"/>
<text text-anchor="start" x="2539.31" y="-3354.96" font-family="Times New Roman,serif" font-size="14.00">create</text>
</g>
<!-- Entity31 -->
<g id="node57" class="node entity">
<title>Entity31</title>
<ellipse fill="none" stroke="black" cx="1590.53" cy="-2412.1" rx="69.59" ry="18"/>
<text text-anchor="start" x="1545.03" y="-2408.4" font-family="Times New Roman,serif" font-size="14.00">andrew breitbart</text>
</g>
<!-- Entity31&#45;&gt;Entity65 -->
<g id="edge61" class="edge verb">
<title>Entity31&#45;&gt;Entity65</title>
<path fill="none" stroke="black" d="M1601.39,-2394.27C1611.95,-2376.91 1628.13,-2350.33 1640.19,-2330.52"/>
<polygon fill="black" stroke="black" points="1643.2,-2332.32 1645.41,-2321.95 1637.22,-2328.68 1643.2,-2332.32"/>
<text text-anchor="start" x="1586.79" y="-2366.19" font-family="Times New Roman,serif" font-size="14.00">create</text>
</g>
</g>
</svg>
