<?xml version="1.0" encoding="UTF-8" standalone="no"?>
<?xml-stylesheet href="../styles.css" type="text/css"?>
<!DOCTYPE svg PUBLIC "-//W3C//DTD SVG 1.1//EN"
 "http://www.w3.org/Graphics/SVG/1.1/DTD/svg11.dtd">
<!-- Generated by graphviz version 2.47.3 (20210619.1520)
 -->
<!-- Title: G Pages: 1 -->
<svg width="7303pt" height="3883pt"
 viewBox="0.00 0.00 7303.00 3883.00" xmlns="http://www.w3.org/2000/svg" xmlns:xlink="http://www.w3.org/1999/xlink">
<g id="graph0" class="graph" transform="scale(1 1) rotate(0) translate(4 3879)">
<title>G</title>
<polygon fill="white" stroke="transparent" points="-4,4 -4,-3879 7299,-3879 7299,4 -4,4"/>
<!-- Entity5 -->
<g id="node1" class="node entity">
<title>Entity5</title>
<ellipse fill="none" stroke="black" cx="4561.42" cy="-2577.75" rx="75.29" ry="18"/>
<text text-anchor="start" x="4511.42" y="-2574.05" font-family="Times New Roman,serif" font-size="14.00">lee harvey oswald</text>
</g>
<!-- Entity7 -->
<g id="node2" class="node entity">
<title>Entity7</title>
<ellipse fill="none" stroke="black" cx="3857.06" cy="-2307.52" rx="64.19" ry="18"/>
<text text-anchor="start" x="3815.56" y="-2303.82" font-family="Times New Roman,serif" font-size="14.00">john f kennedy</text>
</g>
<!-- Entity5&#45;&gt;Entity7 -->
<g id="edge1" class="edge verb">
<title>Entity5&#45;&gt;Entity7</title>
<path fill="none" stroke="black" d="M4527.62,-2561.41C4414.59,-2513.13 4049.27,-2372.75 3910.87,-2324.13"/>
<polygon fill="black" stroke="black" points="3911.9,-2320.79 3901.3,-2320.8 3909.59,-2327.4 3911.9,-2320.79"/>
<text text-anchor="start" x="4157.24" y="-2431.57" font-family="Times New Roman,serif" font-size="14.00">assassinate</text>
</g>
<!-- Entity5&#45;&gt;Entity7 -->
<g id="edge4" class="edge verb">
<title>Entity5&#45;&gt;Entity7</title>
<path fill="none" stroke="black" d="M4514.48,-2563.53C4384.71,-2518.36 4022.64,-2379.42 3899.03,-2327.32"/>
<polygon fill="black" stroke="black" points="3900.1,-2323.97 3889.52,-2323.29 3897.36,-2330.42 3900.1,-2323.97"/>
<text text-anchor="start" x="4166.76" y="-2449.23" font-family="Times New Roman,serif" font-size="14.00">oswald</text>
</g>
<!-- Entity45 -->
<g id="node29" class="node entity">
<title>Entity45</title>
<ellipse fill="none" stroke="black" cx="5269.68" cy="-2688.43" rx="59.29" ry="18"/>
<text text-anchor="start" x="5232.18" y="-2684.73" font-family="Times New Roman,serif" font-size="14.00">guy bannister</text>
</g>
<!-- Entity5&#45;&gt;Entity45 -->
<g id="edge23" class="edge verb">
<title>Entity5&#45;&gt;Entity45</title>
<path fill="none" stroke="black" d="M4624.58,-2587.62C4759.07,-2608.64 5072.37,-2657.6 5206.69,-2678.59"/>
<polygon fill="black" stroke="black" points="5206.4,-2682.09 5216.82,-2680.17 5207.48,-2675.17 5206.4,-2682.09"/>
<text text-anchor="start" x="4861.64" y="-2636.91" font-family="Times New Roman,serif" font-size="14.00">employee</text>
</g>
<!-- Entity53 -->
<g id="node28" class="node entity">
<title>Entity53</title>
<ellipse fill="none" stroke="black" cx="3325.41" cy="-2001.21" rx="31.4" ry="18"/>
<text text-anchor="start" x="3309.41" y="-1997.51" font-family="Times New Roman,serif" font-size="14.00">potus</text>
</g>
<!-- Entity7&#45;&gt;Entity53 -->
<g id="edge22" class="edge verb">
<title>Entity7&#45;&gt;Entity53</title>
<path fill="none" stroke="black" d="M3828.85,-2291.26C3737.75,-2238.78 3451.81,-2074.04 3356.6,-2019.18"/>
<polygon fill="black" stroke="black" points="3358.15,-2016.03 3347.74,-2014.07 3354.66,-2022.1 3358.15,-2016.03"/>
<text text-anchor="start" x="3582.73" y="-2159.02" font-family="Times New Roman,serif" font-size="14.00">is</text>
</g>
<!-- Entity1 -->
<g id="node3" class="node entity">
<title>Entity1</title>
<ellipse fill="none" stroke="black" cx="6041.36" cy="-322.92" rx="41.69" ry="18"/>
<text text-anchor="start" x="6017.36" y="-319.22" font-family="Times New Roman,serif" font-size="14.00">uri geller</text>
</g>
<!-- Entity9 -->
<g id="node4" class="node entity">
<title>Entity9</title>
<ellipse fill="none" stroke="black" cx="6386.82" cy="-469.66" rx="38.19" ry="18"/>
<text text-anchor="start" x="6365.32" y="-465.96" font-family="Times New Roman,serif" font-size="14.00">the nine</text>
</g>
<!-- Entity1&#45;&gt;Entity9 -->
<g id="edge2" class="edge verb">
<title>Entity1&#45;&gt;Entity9</title>
<path fill="none" stroke="black" d="M6071.11,-335.55C6133.79,-362.18 6279.35,-424.01 6348.73,-453.48"/>
<polygon fill="black" stroke="black" points="6347.42,-456.73 6357.99,-457.42 6350.16,-450.28 6347.42,-456.73"/>
<text text-anchor="start" x="6105.92" y="-398.32" font-family="Times New Roman,serif" font-size="14.00">claiemd to channel</text>
</g>
<!-- Entity52 -->
<g id="node44" class="node entity">
<title>Entity52</title>
<ellipse fill="none" stroke="black" cx="6915.86" cy="-226.11" rx="94.48" ry="18"/>
<text text-anchor="start" x="6851.36" y="-222.41" font-family="Times New Roman,serif" font-size="14.00">egyptian gods in a ship</text>
</g>
<!-- Entity9&#45;&gt;Entity52 -->
<g id="edge37" class="edge verb">
<title>Entity9&#45;&gt;Entity52</title>
<path fill="none" stroke="black" d="M6414.52,-456.91C6500.58,-417.29 6763.92,-296.06 6870.43,-247.02"/>
<polygon fill="black" stroke="black" points="6872.02,-250.14 6879.64,-242.78 6869.09,-243.79 6872.02,-250.14"/>
<text text-anchor="start" x="6612.48" y="-355.77" font-family="Times New Roman,serif" font-size="14.00">claim</text>
</g>
<!-- Entity4 -->
<g id="node5" class="node entity">
<title>Entity4</title>
<ellipse fill="none" stroke="black" cx="6743.61" cy="-17.61" rx="74.99" ry="18"/>
<text text-anchor="start" x="6694.11" y="-13.91" font-family="Times New Roman,serif" font-size="14.00">gene roddenberry</text>
</g>
<!-- Entity4&#45;&gt;Entity9 -->
<g id="edge3" class="edge verb">
<title>Entity4&#45;&gt;Entity9</title>
<path fill="none" stroke="black" d="M6729.63,-35.33C6674.43,-105.26 6471.61,-362.23 6406.84,-444.29"/>
<polygon fill="black" stroke="black" points="6403.78,-442.53 6400.33,-452.55 6409.27,-446.87 6403.78,-442.53"/>
<text text-anchor="start" x="6464.24" y="-243.61" font-family="Times New Roman,serif" font-size="14.00">claiemd to channel</text>
</g>
<!-- Entity2 -->
<g id="node6" class="node entity">
<title>Entity2</title>
<ellipse fill="none" stroke="black" cx="6328.81" cy="-124.97" rx="64.19" ry="18"/>
<text text-anchor="start" x="6287.31" y="-121.27" font-family="Times New Roman,serif" font-size="14.00">andre puharich</text>
</g>
<!-- Entity2&#45;&gt;Entity1 -->
<g id="edge5" class="edge verb">
<title>Entity2&#45;&gt;Entity1</title>
<path fill="none" stroke="black" d="M6304.31,-141.84C6252,-177.86 6129.55,-262.18 6072.12,-301.73"/>
<polygon fill="black" stroke="black" points="6070.06,-298.9 6063.8,-307.46 6074.03,-304.67 6070.06,-298.9"/>
<text text-anchor="start" x="6136.21" y="-225.59" font-family="Times New Roman,serif" font-size="14.00">sponsore</text>
</g>
<!-- Entity6 -->
<g id="node7" class="node entity">
<title>Entity6</title>
<ellipse fill="none" stroke="black" cx="5611.29" cy="-581.37" rx="68.49" ry="18"/>
<text text-anchor="start" x="5566.79" y="-577.67" font-family="Times New Roman,serif" font-size="14.00">jeffrey mishlove</text>
</g>
<!-- Entity6&#45;&gt;Entity1 -->
<g id="edge6" class="edge verb">
<title>Entity6&#45;&gt;Entity1</title>
<path fill="none" stroke="black" d="M5638.85,-564.81C5714.63,-519.27 5925.95,-392.27 6008.1,-342.9"/>
<polygon fill="black" stroke="black" points="6010.23,-345.7 6017,-337.55 6006.63,-339.7 6010.23,-345.7"/>
<text text-anchor="start" x="5775.47" y="-457.66" font-family="Times New Roman,serif" font-size="14.00">promote</text>
</g>
<!-- Entity55 -->
<g id="node34" class="node entity">
<title>Entity55</title>
<ellipse fill="none" stroke="black" cx="5175.54" cy="-1060.1" rx="77.19" ry="18"/>
<text text-anchor="start" x="5124.04" y="-1056.4" font-family="Times New Roman,serif" font-size="14.00">psi&#45;consciousness</text>
</g>
<!-- Entity6&#45;&gt;Entity55 -->
<g id="edge58" class="edge verb">
<title>Entity6&#45;&gt;Entity55</title>
<path fill="none" stroke="black" d="M5591.55,-598.8C5518.76,-671.22 5266.75,-947.96 5194.79,-1034.28"/>
<polygon fill="black" stroke="black" points="5191.88,-1032.32 5188.22,-1042.26 5197.28,-1036.77 5191.88,-1032.32"/>
<text text-anchor="start" x="5362.17" y="-820.34" font-family="Times New Roman,serif" font-size="14.00">study</text>
</g>
<!-- Entity6&#45;&gt;Entity55 -->
<g id="edge60" class="edge verb">
<title>Entity6&#45;&gt;Entity55</title>
<path fill="none" stroke="black" d="M5598.74,-599.07C5539.26,-672.21 5286.45,-950.31 5202.61,-1035.32"/>
<polygon fill="black" stroke="black" points="5200.06,-1032.92 5195.49,-1042.48 5205.02,-1037.86 5200.06,-1032.92"/>
<text text-anchor="start" x="5400.68" y="-821" font-family="Times New Roman,serif" font-size="14.00">investigates</text>
</g>
<!-- Entity11 -->
<g id="node8" class="node entity">
<title>Entity11</title>
<ellipse fill="none" stroke="black" cx="2888.27" cy="-2025.26" rx="68.49" ry="18"/>
<text text-anchor="start" x="2843.77" y="-2021.56" font-family="Times New Roman,serif" font-size="14.00">george hw bush</text>
</g>
<!-- Entity18 -->
<g id="node9" class="node entity">
<title>Entity18</title>
<ellipse fill="none" stroke="black" cx="2919.24" cy="-2133.17" rx="63.89" ry="18"/>
<text text-anchor="start" x="2878.24" y="-2129.47" font-family="Times New Roman,serif" font-size="14.00">george w bush</text>
</g>
<!-- Entity11&#45;&gt;Entity18 -->
<g id="edge7" class="edge verb">
<title>Entity11&#45;&gt;Entity18</title>
<path fill="none" stroke="black" d="M2893.52,-2043.56C2898.38,-2060.49 2905.66,-2085.88 2911.24,-2105.32"/>
<polygon fill="black" stroke="black" points="2907.94,-2106.49 2914.06,-2115.14 2914.67,-2104.56 2907.94,-2106.49"/>
<text text-anchor="start" x="2870.38" y="-2078.24" font-family="Times New Roman,serif" font-size="14.00">father</text>
</g>
<!-- Entity11&#45;&gt;Entity53 -->
<g id="edge49" class="edge verb">
<title>Entity11&#45;&gt;Entity53</title>
<path fill="none" stroke="black" d="M2955.13,-2021.58C3046.74,-2016.54 3208.48,-2007.64 3284.18,-2003.48"/>
<polygon fill="black" stroke="black" points="3284.48,-2006.97 3294.27,-2002.92 3284.09,-1999.98 3284.48,-2006.97"/>
<text text-anchor="start" x="3109.66" y="-2016.33" font-family="Times New Roman,serif" font-size="14.00">is</text>
</g>
<!-- Entity18&#45;&gt;Entity53 -->
<g id="edge59" class="edge verb">
<title>Entity18&#45;&gt;Entity53</title>
<path fill="none" stroke="black" d="M2961.18,-2119.55C3040.9,-2093.65 3213.1,-2037.7 3288.64,-2013.16"/>
<polygon fill="black" stroke="black" points="3289.78,-2016.47 3298.21,-2010.05 3287.62,-2009.81 3289.78,-2016.47"/>
<text text-anchor="start" x="3114.91" y="-2070.15" font-family="Times New Roman,serif" font-size="14.00">is</text>
</g>
<!-- Entity3 -->
<g id="node10" class="node entity">
<title>Entity3</title>
<ellipse fill="none" stroke="black" cx="5978.1" cy="-928.29" rx="65.79" ry="18"/>
<text text-anchor="start" x="5935.6" y="-924.59" font-family="Times New Roman,serif" font-size="14.00">arthur m young</text>
</g>
<!-- Entity3&#45;&gt;Entity9 -->
<g id="edge8" class="edge verb">
<title>Entity3&#45;&gt;Entity9</title>
<path fill="none" stroke="black" d="M5993.87,-910.59C6057.05,-839.7 6291.96,-576.11 6365,-494.14"/>
<polygon fill="black" stroke="black" points="6367.71,-496.37 6371.75,-486.57 6362.48,-491.71 6367.71,-496.37"/>
<text text-anchor="start" x="6133.44" y="-706.17" font-family="Times New Roman,serif" font-size="14.00">member</text>
</g>
<!-- Entity56 -->
<g id="node27" class="node entity">
<title>Entity56</title>
<ellipse fill="none" stroke="black" cx="6421.65" cy="-1391.08" rx="53.89" ry="18"/>
<text text-anchor="start" x="6388.15" y="-1387.38" font-family="Times New Roman,serif" font-size="14.00">bell aviation</text>
</g>
<!-- Entity3&#45;&gt;Entity56 -->
<g id="edge21" class="edge verb">
<title>Entity3&#45;&gt;Entity56</title>
<path fill="none" stroke="black" d="M5994.95,-945.87C6063.01,-1016.88 6317.86,-1282.78 6397.63,-1366.01"/>
<polygon fill="black" stroke="black" points="6395.34,-1368.68 6404.79,-1373.48 6400.4,-1363.84 6395.34,-1368.68"/>
<text text-anchor="start" x="6162.29" y="-1159.74" font-family="Times New Roman,serif" font-size="14.00">create</text>
</g>
<!-- Entity3&#45;&gt;Entity55 -->
<g id="edge54" class="edge verb">
<title>Entity3&#45;&gt;Entity55</title>
<path fill="none" stroke="black" d="M5921.67,-937.56C5779.66,-960.88 5407.56,-1022 5248.91,-1048.05"/>
<polygon fill="black" stroke="black" points="5248.07,-1044.64 5238.77,-1049.72 5249.21,-1051.55 5248.07,-1044.64"/>
<text text-anchor="start" x="5554.29" y="-996.61" font-family="Times New Roman,serif" font-size="14.00">study</text>
</g>
<!-- Entity16 -->
<g id="node11" class="node entity">
<title>Entity16</title>
<ellipse fill="none" stroke="black" cx="5267.96" cy="-952.04" rx="63.89" ry="18"/>
<text text-anchor="start" x="5226.96" y="-948.34" font-family="Times New Roman,serif" font-size="14.00">robert bigelow</text>
</g>
<!-- Entity16&#45;&gt;Entity6 -->
<g id="edge9" class="edge verb">
<title>Entity16&#45;&gt;Entity6</title>
<path fill="none" stroke="black" d="M5284.52,-934.16C5340.49,-873.73 5522.79,-676.92 5587.91,-606.62"/>
<polygon fill="black" stroke="black" points="5590.67,-608.78 5594.9,-599.07 5585.54,-604.03 5590.67,-608.78"/>
<text text-anchor="start" x="5404.21" y="-774.19" font-family="Times New Roman,serif" font-size="14.00">funds</text>
</g>
<!-- Entity16&#45;&gt;Entity55 -->
<g id="edge50" class="edge verb">
<title>Entity16&#45;&gt;Entity55</title>
<path fill="none" stroke="black" d="M5252.7,-969.88C5237.65,-987.48 5214.49,-1014.56 5197.47,-1034.46"/>
<polygon fill="black" stroke="black" points="5194.67,-1032.36 5190.83,-1042.23 5199.99,-1036.91 5194.67,-1032.36"/>
<text text-anchor="start" x="5161.09" y="-1005.97" font-family="Times New Roman,serif" font-size="14.00">investigates</text>
</g>
<!-- Entity25 -->
<g id="node12" class="node entity">
<title>Entity25</title>
<ellipse fill="none" stroke="black" cx="4367.21" cy="-1339.5" rx="58.49" ry="18"/>
<text text-anchor="start" x="4330.21" y="-1335.8" font-family="Times New Roman,serif" font-size="14.00">steve bannon</text>
</g>
<!-- Entity8 -->
<g id="node13" class="node entity">
<title>Entity8</title>
<ellipse fill="none" stroke="black" cx="3933.35" cy="-1778.29" rx="59.59" ry="18"/>
<text text-anchor="start" x="3895.35" y="-1774.59" font-family="Times New Roman,serif" font-size="14.00">donald trump</text>
</g>
<!-- Entity25&#45;&gt;Entity8 -->
<g id="edge10" class="edge verb">
<title>Entity25&#45;&gt;Entity8</title>
<path fill="none" stroke="black" d="M4346.17,-1356.55C4272.49,-1424.03 4027.2,-1671.98 3954.05,-1752.74"/>
<polygon fill="black" stroke="black" points="3951.2,-1750.68 3947.13,-1760.46 3956.42,-1755.35 3951.2,-1750.68"/>
<text text-anchor="start" x="4102.11" y="-1558.44" font-family="Times New Roman,serif" font-size="14.00">promote</text>
</g>
<!-- Entity25&#45;&gt;Entity8 -->
<g id="edge11" class="edge verb">
<title>Entity25&#45;&gt;Entity8</title>
<path fill="none" stroke="black" d="M4353.69,-1357.02C4293.01,-1425.7 4046.03,-1675.83 3961.68,-1754.5"/>
<polygon fill="black" stroke="black" points="3959.23,-1752 3954.26,-1761.36 3963.98,-1757.14 3959.23,-1752"/>
<text text-anchor="start" x="4157.68" y="-1559.56" font-family="Times New Roman,serif" font-size="14.00">advise</text>
</g>
<!-- Entity76 -->
<g id="node38" class="node entity">
<title>Entity76</title>
<ellipse fill="none" stroke="black" cx="4189.58" cy="-751.47" rx="77.19" ry="18"/>
<text text-anchor="start" x="4138.08" y="-747.77" font-family="Times New Roman,serif" font-size="14.00">hollywood movies</text>
</g>
<!-- Entity25&#45;&gt;Entity76 -->
<g id="edge31" class="edge verb">
<title>Entity25&#45;&gt;Entity76</title>
<path fill="none" stroke="black" d="M4361.7,-1321.26C4336.11,-1236.54 4228.81,-881.37 4197.93,-779.12"/>
<polygon fill="black" stroke="black" points="4201.26,-778.06 4195.02,-769.5 4194.56,-780.08 4201.26,-778.06"/>
<text text-anchor="start" x="4232.81" y="-1053.99" font-family="Times New Roman,serif" font-size="14.00">produce</text>
</g>
<!-- Entity64 -->
<g id="node46" class="node entity">
<title>Entity64</title>
<ellipse fill="none" stroke="black" cx="4703.75" cy="-1582.08" rx="38.19" ry="18"/>
<text text-anchor="start" x="4682.25" y="-1578.38" font-family="Times New Roman,serif" font-size="14.00">us navy</text>
</g>
<!-- Entity25&#45;&gt;Entity64 -->
<g id="edge40" class="edge verb">
<title>Entity25&#45;&gt;Entity64</title>
<path fill="none" stroke="black" d="M4390.34,-1356.17C4449.89,-1399.1 4608.41,-1513.35 4674.34,-1560.88"/>
<polygon fill="black" stroke="black" points="4672.49,-1563.85 4682.65,-1566.86 4676.58,-1558.18 4672.49,-1563.85"/>
<text text-anchor="start" x="4486.34" y="-1462.33" font-family="Times New Roman,serif" font-size="14.00">member</text>
</g>
<!-- Entity77 -->
<g id="node49" class="node entity">
<title>Entity77</title>
<ellipse fill="none" stroke="black" cx="4616.63" cy="-838.69" rx="64.99" ry="18"/>
<text text-anchor="start" x="4574.63" y="-834.99" font-family="Times New Roman,serif" font-size="14.00">goldman sachs</text>
</g>
<!-- Entity25&#45;&gt;Entity77 -->
<g id="edge45" class="edge verb">
<title>Entity25&#45;&gt;Entity77</title>
<path fill="none" stroke="black" d="M4376.08,-1321.68C4413.47,-1246.61 4558.24,-955.93 4603.22,-865.62"/>
<polygon fill="black" stroke="black" points="4606.4,-867.08 4607.73,-856.57 4600.14,-863.96 4606.4,-867.08"/>
<text text-anchor="start" x="4435.65" y="-1097.45" font-family="Times New Roman,serif" font-size="14.00">employee</text>
</g>
<!-- Entity63 -->
<g id="node51" class="node entity">
<title>Entity63</title>
<ellipse fill="none" stroke="black" cx="4513.44" cy="-1793.09" rx="53.09" ry="18"/>
<text text-anchor="start" x="4480.44" y="-1789.39" font-family="Times New Roman,serif" font-size="14.00">biosphere 2</text>
</g>
<!-- Entity25&#45;&gt;Entity63 -->
<g id="edge51" class="edge verb">
<title>Entity25&#45;&gt;Entity63</title>
<path fill="none" stroke="black" d="M4373.03,-1357.56C4395.57,-1427.47 4477.18,-1680.62 4504.48,-1765.29"/>
<polygon fill="black" stroke="black" points="4501.2,-1766.54 4507.6,-1774.98 4507.86,-1764.39 4501.2,-1766.54"/>
<text text-anchor="start" x="4404.75" y="-1565.23" font-family="Times New Roman,serif" font-size="14.00">create</text>
</g>
<!-- Entity65 -->
<g id="node53" class="node entity">
<title>Entity65</title>
<ellipse fill="none" stroke="black" cx="4910.8" cy="-1442.43" rx="61.99" ry="18"/>
<text text-anchor="start" x="4871.3" y="-1438.73" font-family="Times New Roman,serif" font-size="14.00">breitbart news</text>
</g>
<!-- Entity25&#45;&gt;Entity65 -->
<g id="edge56" class="edge verb">
<title>Entity25&#45;&gt;Entity65</title>
<path fill="none" stroke="black" d="M4417.37,-1349C4517.16,-1367.89 4740.26,-1410.14 4848.93,-1430.72"/>
<polygon fill="black" stroke="black" points="4848.29,-1434.16 4858.77,-1432.58 4849.59,-1427.28 4848.29,-1434.16"/>
<text text-anchor="start" x="4599.15" y="-1393.66" font-family="Times New Roman,serif" font-size="14.00">create</text>
</g>
<!-- Entity61 -->
<g id="node59" class="node entity">
<title>Entity61</title>
<ellipse fill="none" stroke="black" cx="4316.25" cy="-903.41" rx="35.19" ry="18"/>
<text text-anchor="start" x="4297.25" y="-899.71" font-family="Times New Roman,serif" font-size="14.00">gurgev</text>
</g>
<!-- Entity25&#45;&gt;Entity61 -->
<g id="edge66" class="edge verb">
<title>Entity25&#45;&gt;Entity61</title>
<path fill="none" stroke="black" d="M4365.08,-1321.32C4357.15,-1253.44 4329.24,-1014.53 4319.57,-931.83"/>
<polygon fill="black" stroke="black" points="4323.02,-931.19 4318.38,-921.67 4316.07,-932.01 4323.02,-931.19"/>
<text text-anchor="start" x="4311.33" y="-1130.37" font-family="Times New Roman,serif" font-size="14.00">study</text>
</g>
<!-- Entity30 -->
<g id="node18" class="node entity">
<title>Entity30</title>
<ellipse fill="none" stroke="black" cx="4042.35" cy="-1231.55" rx="50.09" ry="18"/>
<text text-anchor="start" x="4011.85" y="-1227.85" font-family="Times New Roman,serif" font-size="14.00">john trump</text>
</g>
<!-- Entity8&#45;&gt;Entity30 -->
<g id="edge17" class="edge verb">
<title>Entity8&#45;&gt;Entity30</title>
<path fill="none" stroke="black" d="M3936.98,-1760.1C3952.98,-1679.82 4017.36,-1356.93 4036.78,-1259.52"/>
<polygon fill="black" stroke="black" points="4040.24,-1260.03 4038.77,-1249.53 4033.38,-1258.66 4040.24,-1260.03"/>
<text text-anchor="start" x="3943.88" y="-1513.61" font-family="Times New Roman,serif" font-size="14.00">nephew</text>
</g>
<!-- Entity8&#45;&gt;Entity53 -->
<g id="edge26" class="edge verb">
<title>Entity8&#45;&gt;Entity53</title>
<path fill="none" stroke="black" d="M3895.32,-1792.23C3785.42,-1832.53 3468.4,-1948.78 3361.27,-1988.06"/>
<polygon fill="black" stroke="black" points="3360.05,-1984.78 3351.86,-1991.51 3362.46,-1991.35 3360.05,-1984.78"/>
<text text-anchor="start" x="3618.3" y="-1893.95" font-family="Times New Roman,serif" font-size="14.00">is</text>
</g>
<!-- Entity34 -->
<g id="node14" class="node entity">
<title>Entity34</title>
<ellipse fill="none" stroke="black" cx="2012.35" cy="-2866.41" rx="90.98" ry="18"/>
<text text-anchor="start" x="1950.35" y="-2862.71" font-family="Times New Roman,serif" font-size="14.00">emma hardinge&#45;britten</text>
</g>
<!-- Entity38 -->
<g id="node15" class="node entity">
<title>Entity38</title>
<ellipse fill="none" stroke="black" cx="2750.11" cy="-2389.2" rx="67.69" ry="18"/>
<text text-anchor="start" x="2706.11" y="-2385.5" font-family="Times New Roman,serif" font-size="14.00">abraham lincoln</text>
</g>
<!-- Entity34&#45;&gt;Entity38 -->
<g id="edge12" class="edge verb">
<title>Entity34&#45;&gt;Entity38</title>
<path fill="none" stroke="black" d="M2039.04,-2849.15C2151.81,-2776.2 2589.16,-2493.3 2715.66,-2411.48"/>
<polygon fill="black" stroke="black" points="2717.72,-2414.31 2724.22,-2405.94 2713.92,-2408.44 2717.72,-2414.31"/>
<text text-anchor="start" x="2298.35" y="-2634.11" font-family="Times New Roman,serif" font-size="14.00">spokesperson</text>
</g>
<!-- Entity59 -->
<g id="node37" class="node entity">
<title>Entity59</title>
<ellipse fill="none" stroke="black" cx="1286.88" cy="-3317.89" rx="85.29" ry="18"/>
<text text-anchor="start" x="1229.38" y="-3314.19" font-family="Times New Roman,serif" font-size="14.00">theosophical society</text>
</g>
<!-- Entity34&#45;&gt;Entity59 -->
<g id="edge42" class="edge verb">
<title>Entity34&#45;&gt;Entity59</title>
<path fill="none" stroke="black" d="M1984.36,-2883.84C1871.45,-2954.1 1449.56,-3216.65 1323,-3295.42"/>
<polygon fill="black" stroke="black" points="1321.05,-3292.51 1314.41,-3300.77 1324.75,-3298.45 1321.05,-3292.51"/>
<text text-anchor="start" x="1619.68" y="-3093.43" font-family="Times New Roman,serif" font-size="14.00">create</text>
</g>
<!-- Entity68 -->
<g id="node50" class="node entity">
<title>Entity68</title>
<ellipse fill="none" stroke="black" cx="1469.93" cy="-2944.96" rx="39.79" ry="18"/>
<text text-anchor="start" x="1447.43" y="-2941.26" font-family="Times New Roman,serif" font-size="14.00">medium</text>
</g>
<!-- Entity34&#45;&gt;Entity68 -->
<g id="edge46" class="edge verb">
<title>Entity34&#45;&gt;Entity68</title>
<path fill="none" stroke="black" d="M1938.91,-2877.05C1825.96,-2893.4 1612.7,-2924.28 1517.69,-2938.04"/>
<polygon fill="black" stroke="black" points="1517.18,-2934.58 1507.79,-2939.48 1518.18,-2941.51 1517.18,-2934.58"/>
<text text-anchor="start" x="1718.3" y="-2911.34" font-family="Times New Roman,serif" font-size="14.00">is</text>
</g>
<!-- Entity69 -->
<g id="node60" class="node entity">
<title>Entity69</title>
<ellipse fill="none" stroke="black" cx="1712.9" cy="-3386.17" rx="55.79" ry="18"/>
<text text-anchor="start" x="1677.9" y="-3382.47" font-family="Times New Roman,serif" font-size="14.00">orphic circle</text>
</g>
<!-- Entity34&#45;&gt;Entity69 -->
<g id="edge67" class="edge verb">
<title>Entity34&#45;&gt;Entity69</title>
<path fill="none" stroke="black" d="M2002.04,-2884.31C1957.5,-2961.62 1781.4,-3267.27 1728.2,-3359.61"/>
<polygon fill="black" stroke="black" points="1725.12,-3357.94 1723.16,-3368.35 1731.19,-3361.44 1725.12,-3357.94"/>
<text text-anchor="start" x="1819.12" y="-3125.76" font-family="Times New Roman,serif" font-size="14.00">member</text>
</g>
<!-- Entity38&#45;&gt;Entity53 -->
<g id="edge52" class="edge verb">
<title>Entity38&#45;&gt;Entity53</title>
<path fill="none" stroke="black" d="M2775.2,-2372.28C2868.72,-2309.2 3196.78,-2087.96 3296.46,-2020.73"/>
<polygon fill="black" stroke="black" points="3298.52,-2023.57 3304.85,-2015.08 3294.61,-2017.76 3298.52,-2023.57"/>
<text text-anchor="start" x="3025.83" y="-2200.31" font-family="Times New Roman,serif" font-size="14.00">is</text>
</g>
<!-- Entity26 -->
<g id="node16" class="node entity">
<title>Entity26</title>
<ellipse fill="none" stroke="black" cx="2186.05" cy="-1828.44" rx="53.89" ry="18"/>
<text text-anchor="start" x="2152.55" y="-1824.74" font-family="Times New Roman,serif" font-size="14.00">edgar casey</text>
</g>
<!-- Entity27 -->
<g id="node17" class="node entity">
<title>Entity27</title>
<ellipse fill="none" stroke="black" cx="2744.79" cy="-1834.26" rx="71.49" ry="18"/>
<text text-anchor="start" x="2697.79" y="-1830.56" font-family="Times New Roman,serif" font-size="14.00">woodrow wilson</text>
</g>
<!-- Entity26&#45;&gt;Entity27 -->
<g id="edge13" class="edge verb">
<title>Entity26&#45;&gt;Entity27</title>
<path fill="none" stroke="black" d="M2240.14,-1829C2338.5,-1830.03 2547.19,-1832.2 2663.03,-1833.41"/>
<polygon fill="black" stroke="black" points="2663.22,-1836.91 2673.25,-1833.51 2663.29,-1829.91 2663.22,-1836.91"/>
<text text-anchor="start" x="2415.58" y="-1835.01" font-family="Times New Roman,serif" font-size="14.00">advise</text>
</g>
<!-- Entity27&#45;&gt;Entity53 -->
<g id="edge39" class="edge verb">
<title>Entity27&#45;&gt;Entity53</title>
<path fill="none" stroke="black" d="M2792.31,-1847.92C2904.77,-1880.26 3185.46,-1960.97 3287.54,-1990.32"/>
<polygon fill="black" stroke="black" points="3286.83,-1993.76 3297.41,-1993.16 3288.77,-1987.03 3286.83,-1993.76"/>
<text text-anchor="start" x="3029.92" y="-1922.92" font-family="Times New Roman,serif" font-size="14.00">is</text>
</g>
<!-- Entity58 -->
<g id="node58" class="node entity">
<title>Entity58</title>
<ellipse fill="none" stroke="black" cx="2188.14" cy="-1552.61" rx="71.49" ry="18"/>
<text text-anchor="start" x="2141.14" y="-1548.91" font-family="Times New Roman,serif" font-size="14.00">leauge of nations</text>
</g>
<!-- Entity27&#45;&gt;Entity58 -->
<g id="edge65" class="edge verb">
<title>Entity27&#45;&gt;Entity58</title>
<path fill="none" stroke="black" d="M2712.87,-1818.1C2617.67,-1769.94 2335.83,-1627.33 2229.43,-1573.5"/>
<polygon fill="black" stroke="black" points="2230.79,-1570.26 2220.29,-1568.87 2227.63,-1576.51 2230.79,-1570.26"/>
<text text-anchor="start" x="2437.15" y="-1699.6" font-family="Times New Roman,serif" font-size="14.00">create</text>
</g>
<!-- Entity17 -->
<g id="node19" class="node entity">
<title>Entity17</title>
<ellipse fill="none" stroke="black" cx="4498.52" cy="-1231.5" rx="27" ry="18"/>
<text text-anchor="start" x="4490.52" y="-1227.8" font-family="Times New Roman,serif" font-size="14.00">cia</text>
</g>
<!-- Entity30&#45;&gt;Entity17 -->
<g id="edge14" class="edge verb">
<title>Entity30&#45;&gt;Entity17</title>
<path fill="none" stroke="black" d="M4092.47,-1231.55C4184.73,-1231.54 4379.44,-1231.52 4461.16,-1231.51"/>
<polygon fill="black" stroke="black" points="4461.47,-1235.01 4471.47,-1231.51 4461.47,-1228.01 4461.47,-1235.01"/>
<text text-anchor="start" x="4230.82" y="-1235.33" font-family="Times New Roman,serif" font-size="14.00">member</text>
</g>
<!-- Entity67 -->
<g id="node47" class="node entity">
<title>Entity67</title>
<ellipse fill="none" stroke="black" cx="3773.76" cy="-829.03" rx="50.89" ry="18"/>
<text text-anchor="start" x="3742.76" y="-825.33" font-family="Times New Roman,serif" font-size="14.00">nikola tesla</text>
</g>
<!-- Entity30&#45;&gt;Entity67 -->
<g id="edge41" class="edge verb">
<title>Entity30&#45;&gt;Entity67</title>
<path fill="none" stroke="black" d="M4030.64,-1214C3988.14,-1150.31 3841.92,-931.18 3791.23,-855.21"/>
<polygon fill="black" stroke="black" points="3794,-853.05 3785.53,-846.68 3788.17,-856.94 3794,-853.05"/>
<text text-anchor="start" x="3879.93" y="-1038.41" font-family="Times New Roman,serif" font-size="14.00">study</text>
</g>
<!-- Entity17&#45;&gt;Entity55 -->
<g id="edge28" class="edge verb">
<title>Entity17&#45;&gt;Entity55</title>
<path fill="none" stroke="black" d="M4523.82,-1225.1C4620.64,-1200.59 4969.34,-1112.31 5113.01,-1075.94"/>
<polygon fill="black" stroke="black" points="5114.15,-1079.26 5122.99,-1073.41 5112.44,-1072.47 5114.15,-1079.26"/>
<text text-anchor="start" x="4754.41" y="-1154.32" font-family="Times New Roman,serif" font-size="14.00">investigates</text>
</g>
<!-- Entity54 -->
<g id="node52" class="node entity">
<title>Entity54</title>
<ellipse fill="none" stroke="black" cx="4079.62" cy="-1442.91" rx="27" ry="18"/>
<text text-anchor="start" x="4070.12" y="-1439.21" font-family="Times New Roman,serif" font-size="14.00">ufo</text>
</g>
<!-- Entity17&#45;&gt;Entity54 -->
<g id="edge55" class="edge verb">
<title>Entity17&#45;&gt;Entity54</title>
<path fill="none" stroke="black" d="M4476.88,-1242.42C4407.65,-1277.36 4191.42,-1386.48 4110.55,-1427.3"/>
<polygon fill="black" stroke="black" points="4108.73,-1424.3 4101.38,-1431.93 4111.88,-1430.54 4108.73,-1424.3"/>
<text text-anchor="start" x="4229.71" y="-1338.66" font-family="Times New Roman,serif" font-size="14.00">investigates</text>
</g>
<!-- Entity40 -->
<g id="node20" class="node entity">
<title>Entity40</title>
<ellipse fill="none" stroke="black" cx="6882.5" cy="-1539.92" rx="57.69" ry="18"/>
<text text-anchor="start" x="6846" y="-1536.22" font-family="Times New Roman,serif" font-size="14.00">michael pane</text>
</g>
<!-- Entity37 -->
<g id="node21" class="node entity">
<title>Entity37</title>
<ellipse fill="none" stroke="black" cx="6617.09" cy="-1993.25" rx="74.99" ry="18"/>
<text text-anchor="start" x="6567.59" y="-1989.55" font-family="Times New Roman,serif" font-size="14.00">walter dornberger</text>
</g>
<!-- Entity40&#45;&gt;Entity37 -->
<g id="edge15" class="edge verb">
<title>Entity40&#45;&gt;Entity37</title>
<path fill="none" stroke="black" d="M6872.1,-1557.69C6831.26,-1627.43 6681.82,-1882.68 6632.79,-1966.43"/>
<polygon fill="black" stroke="black" points="6629.74,-1964.71 6627.71,-1975.1 6635.78,-1968.24 6629.74,-1964.71"/>
<text text-anchor="start" x="6698.44" y="-1765.86" font-family="Times New Roman,serif" font-size="14.00">employee</text>
</g>
<!-- Entity40&#45;&gt;Entity56 -->
<g id="edge63" class="edge verb">
<title>Entity40&#45;&gt;Entity56</title>
<path fill="none" stroke="black" d="M6842.01,-1526.84C6757.24,-1499.46 6561.42,-1436.22 6470.14,-1406.74"/>
<polygon fill="black" stroke="black" points="6471.18,-1403.39 6460.58,-1403.65 6469.02,-1410.05 6471.18,-1403.39"/>
<text text-anchor="start" x="6602.07" y="-1470.59" font-family="Times New Roman,serif" font-size="14.00">employee</text>
</g>
<!-- Entity51 -->
<g id="node22" class="node entity">
<title>Entity51</title>
<ellipse fill="none" stroke="black" cx="6285.51" cy="-2487.02" rx="32.49" ry="18"/>
<text text-anchor="start" x="6268.51" y="-2483.32" font-family="Times New Roman,serif" font-size="14.00">nsdap</text>
</g>
<!-- Entity37&#45;&gt;Entity51 -->
<g id="edge16" class="edge verb">
<title>Entity37&#45;&gt;Entity51</title>
<path fill="none" stroke="black" d="M6605.09,-2011.11C6554.91,-2085.84 6361.72,-2373.53 6302.72,-2461.39"/>
<polygon fill="black" stroke="black" points="6299.64,-2459.69 6296.97,-2469.95 6305.45,-2463.6 6299.64,-2459.69"/>
<text text-anchor="start" x="6407.9" y="-2240.05" font-family="Times New Roman,serif" font-size="14.00">member</text>
</g>
<!-- Entity37&#45;&gt;Entity56 -->
<g id="edge33" class="edge verb">
<title>Entity37&#45;&gt;Entity56</title>
<path fill="none" stroke="black" d="M6613.79,-1975.11C6591.65,-1889.06 6472.71,-1521.92 6433.74,-1418.36"/>
<polygon fill="black" stroke="black" points="6436.96,-1417 6430.11,-1408.91 6430.42,-1419.5 6436.96,-1417"/>
<text text-anchor="start" x="6469.76" y="-1685.54" font-family="Times New Roman,serif" font-size="14.00">employee</text>
</g>
<!-- Entity37&#45;&gt;Entity56 -->
<g id="edge43" class="edge verb">
<title>Entity37&#45;&gt;Entity56</title>
<path fill="none" stroke="black" d="M6608.6,-1975.35C6575.14,-1889.9 6456.03,-1523.39 6427.54,-1418.94"/>
<polygon fill="black" stroke="black" points="6430.88,-1417.9 6424.93,-1409.13 6424.11,-1419.7 6430.88,-1417.9"/>
<text text-anchor="start" x="6439.07" y="-1700.95" font-family="Times New Roman,serif" font-size="14.00">vice&#45;president</text>
</g>
<!-- Entity72 -->
<g id="node48" class="node entity">
<title>Entity72</title>
<ellipse fill="none" stroke="black" cx="6727.03" cy="-2101.21" rx="90.98" ry="18"/>
<text text-anchor="start" x="6665.03" y="-2097.51" font-family="Times New Roman,serif" font-size="14.00">nsdap rocket program</text>
</g>
<!-- Entity37&#45;&gt;Entity72 -->
<g id="edge44" class="edge verb">
<title>Entity37&#45;&gt;Entity72</title>
<path fill="none" stroke="black" d="M6635.24,-2011.07C6653.31,-2028.81 6681.18,-2056.19 6701.48,-2076.12"/>
<polygon fill="black" stroke="black" points="6699.26,-2078.85 6708.85,-2083.36 6704.17,-2073.85 6699.26,-2078.85"/>
<text text-anchor="start" x="6634.36" y="-2047.4" font-family="Times New Roman,serif" font-size="14.00">create</text>
</g>
<!-- Entity73 -->
<g id="node61" class="node entity">
<title>Entity73</title>
<ellipse fill="none" stroke="black" cx="7229.09" cy="-2031.68" rx="65.79" ry="18"/>
<text text-anchor="start" x="7186.59" y="-2027.98" font-family="Times New Roman,serif" font-size="14.00">x series aircraft</text>
</g>
<!-- Entity37&#45;&gt;Entity73 -->
<g id="edge68" class="edge verb">
<title>Entity37&#45;&gt;Entity73</title>
<path fill="none" stroke="black" d="M6689.69,-1997.81C6806.91,-2005.17 7036.63,-2019.59 7154.87,-2027.02"/>
<polygon fill="black" stroke="black" points="7154.72,-2030.52 7164.92,-2027.65 7155.16,-2023.53 7154.72,-2030.52"/>
<text text-anchor="start" x="6888.28" y="-2016.21" font-family="Times New Roman,serif" font-size="14.00">create</text>
</g>
<!-- Entity74 -->
<g id="node41" class="node entity">
<title>Entity74</title>
<ellipse fill="none" stroke="black" cx="5840.89" cy="-2642.28" rx="38.99" ry="18"/>
<text text-anchor="start" x="5818.89" y="-2638.58" font-family="Times New Roman,serif" font-size="14.00">far right</text>
</g>
<!-- Entity51&#45;&gt;Entity74 -->
<g id="edge48" class="edge verb">
<title>Entity51&#45;&gt;Entity74</title>
<path fill="none" stroke="black" d="M6257.69,-2496.73C6181.83,-2523.22 5971.04,-2596.83 5881.73,-2628.02"/>
<polygon fill="black" stroke="black" points="5880.49,-2624.74 5872.21,-2631.35 5882.8,-2631.35 5880.49,-2624.74"/>
<text text-anchor="start" x="6023.71" y="-2566.18" font-family="Times New Roman,serif" font-size="14.00">member</text>
</g>
<!-- Entity50 -->
<g id="node23" class="node entity">
<title>Entity50</title>
<ellipse fill="none" stroke="black" cx="2573.36" cy="-1201.63" rx="37.89" ry="18"/>
<text text-anchor="start" x="2552.36" y="-1197.93" font-family="Times New Roman,serif" font-size="14.00">hunt oil</text>
</g>
<!-- Entity48 -->
<g id="node24" class="node entity">
<title>Entity48</title>
<ellipse fill="none" stroke="black" cx="2944.41" cy="-1581.21" rx="77.99" ry="18"/>
<text text-anchor="start" x="2892.41" y="-1577.51" font-family="Times New Roman,serif" font-size="14.00">dwight eisenhower</text>
</g>
<!-- Entity50&#45;&gt;Entity48 -->
<g id="edge18" class="edge verb">
<title>Entity50&#45;&gt;Entity48</title>
<path fill="none" stroke="black" d="M2589.78,-1218.43C2648.65,-1278.65 2849.31,-1483.92 2919.74,-1555.97"/>
<polygon fill="black" stroke="black" points="2917.41,-1558.59 2926.9,-1563.3 2922.42,-1553.7 2917.41,-1558.59"/>
<text text-anchor="start" x="2728.76" y="-1391" font-family="Times New Roman,serif" font-size="14.00">fund</text>
</g>
<!-- Entity48&#45;&gt;Entity53 -->
<g id="edge53" class="edge verb">
<title>Entity48&#45;&gt;Entity53</title>
<path fill="none" stroke="black" d="M2960.54,-1598.99C3021.08,-1665.72 3234.83,-1901.35 3303.79,-1977.37"/>
<polygon fill="black" stroke="black" points="3301.43,-1979.98 3310.74,-1985.03 3306.61,-1975.27 3301.43,-1979.98"/>
<text text-anchor="start" x="3122.17" y="-1791.98" font-family="Times New Roman,serif" font-size="14.00">is</text>
</g>
<!-- Entity46 -->
<g id="node25" class="node entity">
<title>Entity46</title>
<ellipse fill="none" stroke="black" cx="7084.57" cy="-2269.18" rx="46.29" ry="18"/>
<text text-anchor="start" x="7057.07" y="-2265.48" font-family="Times New Roman,serif" font-size="14.00">van braun</text>
</g>
<!-- Entity46&#45;&gt;Entity37 -->
<g id="edge19" class="edge verb">
<title>Entity46&#45;&gt;Entity37</title>
<path fill="none" stroke="black" d="M7059.1,-2254.15C6981.19,-2208.16 6745.82,-2069.23 6654.17,-2015.13"/>
<polygon fill="black" stroke="black" points="6655.89,-2012.09 6645.5,-2010.02 6652.34,-2018.12 6655.89,-2012.09"/>
<text text-anchor="start" x="6802.63" y="-2138.44" font-family="Times New Roman,serif" font-size="14.00">employee</text>
</g>
<!-- Entity46&#45;&gt;Entity72 -->
<g id="edge47" class="edge verb">
<title>Entity46&#45;&gt;Entity72</title>
<path fill="none" stroke="black" d="M7055,-2255.29C6992.27,-2225.82 6845.52,-2156.88 6771.46,-2122.08"/>
<polygon fill="black" stroke="black" points="6772.91,-2118.89 6762.37,-2117.81 6769.93,-2125.23 6772.91,-2118.89"/>
<text text-anchor="start" x="6859.23" y="-2192.49" font-family="Times New Roman,serif" font-size="14.00">employee</text>
</g>
<!-- Entity49 -->
<g id="node26" class="node entity">
<title>Entity49</title>
<ellipse fill="none" stroke="black" cx="6546.76" cy="-2808.7" rx="49.29" ry="18"/>
<text text-anchor="start" x="6516.76" y="-2805" font-family="Times New Roman,serif" font-size="14.00">adolf hitler</text>
</g>
<!-- Entity49&#45;&gt;Entity51 -->
<g id="edge20" class="edge verb">
<title>Entity49&#45;&gt;Entity51</title>
<path fill="none" stroke="black" d="M6532.72,-2791.41C6489.19,-2737.81 6356.44,-2574.36 6305.6,-2511.76"/>
<polygon fill="black" stroke="black" points="6308.01,-2509.18 6298.99,-2503.62 6302.58,-2513.59 6308.01,-2509.18"/>
<text text-anchor="start" x="6385.16" y="-2655.39" font-family="Times New Roman,serif" font-size="14.00">create</text>
</g>
<!-- Entity45&#45;&gt;Entity74 -->
<g id="edge34" class="edge verb">
<title>Entity45&#45;&gt;Entity74</title>
<path fill="none" stroke="black" d="M5327.06,-2683.8C5439.59,-2674.7 5687.39,-2654.68 5792.37,-2646.2"/>
<polygon fill="black" stroke="black" points="5792.68,-2649.69 5802.37,-2645.39 5792.12,-2642.71 5792.68,-2649.69"/>
<text text-anchor="start" x="5513.71" y="-2668.8" font-family="Times New Roman,serif" font-size="14.00">member</text>
</g>
<!-- Entity79 -->
<g id="node30" class="node entity">
<title>Entity79</title>
<ellipse fill="none" stroke="black" cx="3128.94" cy="-1145.66" rx="27" ry="18"/>
<text text-anchor="start" x="3118.94" y="-1141.96" font-family="Times New Roman,serif" font-size="14.00">foo</text>
</g>
<!-- Entity80 -->
<g id="node31" class="node entity">
<title>Entity80</title>
<ellipse fill="none" stroke="black" cx="3216.66" cy="-1257.64" rx="27" ry="18"/>
<text text-anchor="start" x="3206.66" y="-1253.94" font-family="Times New Roman,serif" font-size="14.00">baz</text>
</g>
<!-- Entity79&#45;&gt;Entity80 -->
<g id="edge24" class="edge verb">
<title>Entity79&#45;&gt;Entity80</title>
<path fill="none" stroke="black" d="M3141.51,-1161.7C3156.23,-1180.5 3180.76,-1211.82 3197.78,-1233.53"/>
<polygon fill="black" stroke="black" points="3195.19,-1235.91 3204.11,-1241.62 3200.7,-1231.59 3195.19,-1235.91"/>
<text text-anchor="start" x="3149.64" y="-1201.42" font-family="Times New Roman,serif" font-size="14.00">baz</text>
</g>
<!-- Entity13 -->
<g id="node32" class="node entity">
<title>Entity13</title>
<ellipse fill="none" stroke="black" cx="3337.43" cy="-2109.28" rx="58.49" ry="18"/>
<text text-anchor="start" x="3300.43" y="-2105.58" font-family="Times New Roman,serif" font-size="14.00">richard nixon</text>
</g>
<!-- Entity13&#45;&gt;Entity53 -->
<g id="edge25" class="edge verb">
<title>Entity13&#45;&gt;Entity53</title>
<path fill="none" stroke="black" d="M3335.39,-2090.95C3333.51,-2074.08 3330.7,-2048.81 3328.54,-2029.38"/>
<polygon fill="black" stroke="black" points="3332,-2028.82 3327.42,-2019.27 3325.05,-2029.6 3332,-2028.82"/>
<text text-anchor="start" x="3321.97" y="-2063.96" font-family="Times New Roman,serif" font-size="14.00">is</text>
</g>
<!-- Entity10 -->
<g id="node33" class="node entity">
<title>Entity10</title>
<ellipse fill="none" stroke="black" cx="3249.06" cy="-2495.94" rx="56.59" ry="18"/>
<text text-anchor="start" x="3213.56" y="-2492.24" font-family="Times New Roman,serif" font-size="14.00">harry truman</text>
</g>
<!-- Entity10&#45;&gt;Entity53 -->
<g id="edge27" class="edge verb">
<title>Entity10&#45;&gt;Entity53</title>
<path fill="none" stroke="black" d="M3251.87,-2477.74C3263.39,-2403.11 3307.06,-2120.13 3321.06,-2029.39"/>
<polygon fill="black" stroke="black" points="3324.55,-2029.73 3322.62,-2019.31 3317.63,-2028.66 3324.55,-2029.73"/>
<text text-anchor="start" x="3276.47" y="-2257.37" font-family="Times New Roman,serif" font-size="14.00">is</text>
</g>
<!-- Entity57 -->
<g id="node43" class="node entity">
<title>Entity57</title>
<ellipse fill="none" stroke="black" cx="3133.15" cy="-2997.7" rx="55.79" ry="18"/>
<text text-anchor="start" x="3098.15" y="-2994" font-family="Times New Roman,serif" font-size="14.00">freemasonry</text>
</g>
<!-- Entity10&#45;&gt;Entity57 -->
<g id="edge36" class="edge verb">
<title>Entity10&#45;&gt;Entity57</title>
<path fill="none" stroke="black" d="M3244.87,-2514.09C3227.46,-2589.47 3160.79,-2878.07 3139.63,-2969.64"/>
<polygon fill="black" stroke="black" points="3136.18,-2969.04 3137.34,-2979.57 3143,-2970.61 3136.18,-2969.04"/>
<text text-anchor="start" x="3146.25" y="-2745.67" font-family="Times New Roman,serif" font-size="14.00">member</text>
</g>
<!-- Entity22 -->
<g id="node35" class="node entity">
<title>Entity22</title>
<ellipse fill="none" stroke="black" cx="681.14" cy="-3565.06" rx="58.49" ry="18"/>
<text text-anchor="start" x="644.14" y="-3561.36" font-family="Times New Roman,serif" font-size="14.00">rudolf steiner</text>
</g>
<!-- Entity60 -->
<g id="node36" class="node entity">
<title>Entity60</title>
<ellipse fill="none" stroke="black" cx="101.57" cy="-3856.6" rx="102.08" ry="18"/>
<text text-anchor="start" x="31.07" y="-3852.9" font-family="Times New Roman,serif" font-size="14.00">anthroposophical society</text>
</g>
<!-- Entity22&#45;&gt;Entity60 -->
<g id="edge29" class="edge verb">
<title>Entity22&#45;&gt;Entity60</title>
<path fill="none" stroke="black" d="M650.39,-3580.53C553.76,-3629.13 256.07,-3778.88 144.44,-3835.04"/>
<polygon fill="black" stroke="black" points="142.83,-3831.93 135.47,-3839.55 145.98,-3838.18 142.83,-3831.93"/>
<text text-anchor="start" x="363.41" y="-3711.58" font-family="Times New Roman,serif" font-size="14.00">create</text>
</g>
<!-- Entity22&#45;&gt;Entity59 -->
<g id="edge30" class="edge verb">
<title>Entity22&#45;&gt;Entity59</title>
<path fill="none" stroke="black" d="M716.77,-3550.52C820,-3508.4 1119.44,-3386.22 1237.86,-3337.9"/>
<polygon fill="black" stroke="black" points="1239.47,-3341.02 1247.41,-3334 1236.83,-3334.54 1239.47,-3341.02"/>
<text text-anchor="start" x="931.31" y="-3448.01" font-family="Times New Roman,serif" font-size="14.00">member</text>
</g>
<!-- Entity44 -->
<g id="node39" class="node entity">
<title>Entity44</title>
<ellipse fill="none" stroke="black" cx="4001.94" cy="-2837.66" rx="53.89" ry="18"/>
<text text-anchor="start" x="3968.44" y="-2833.96" font-family="Times New Roman,serif" font-size="14.00">black magic</text>
</g>
<!-- Entity71 -->
<g id="node40" class="node entity">
<title>Entity71</title>
<ellipse fill="none" stroke="black" cx="4089.66" cy="-2949.64" rx="28.7" ry="18"/>
<text text-anchor="start" x="4075.66" y="-2945.94" font-family="Times New Roman,serif" font-size="14.00">x left</text>
</g>
<!-- Entity44&#45;&gt;Entity71 -->
<g id="edge32" class="edge verb">
<title>Entity44&#45;&gt;Entity71</title>
<path fill="none" stroke="black" d="M4015.64,-2855.16C4030.45,-2874.05 4054.14,-2904.29 4070.72,-2925.45"/>
<polygon fill="black" stroke="black" points="4067.98,-2927.64 4076.9,-2933.36 4073.49,-2923.32 4067.98,-2927.64"/>
<text text-anchor="start" x="3997.18" y="-2894.11" font-family="Times New Roman,serif" font-size="14.00">member</text>
</g>
<!-- Entity21 -->
<g id="node42" class="node entity">
<title>Entity21</title>
<ellipse fill="none" stroke="black" cx="3156.05" cy="-2303.47" rx="35.19" ry="18"/>
<text text-anchor="start" x="3137.05" y="-2299.77" font-family="Times New Roman,serif" font-size="14.00">obama</text>
</g>
<!-- Entity21&#45;&gt;Entity53 -->
<g id="edge35" class="edge verb">
<title>Entity21&#45;&gt;Entity53</title>
<path fill="none" stroke="black" d="M3165.89,-2285.91C3194.37,-2235.09 3277,-2087.6 3310.77,-2027.34"/>
<polygon fill="black" stroke="black" points="3313.92,-2028.87 3315.76,-2018.44 3307.82,-2025.45 3313.92,-2028.87"/>
<text text-anchor="start" x="3228.33" y="-2160.42" font-family="Times New Roman,serif" font-size="14.00">is</text>
</g>
<!-- Entity14 -->
<g id="node45" class="node entity">
<title>Entity14</title>
<ellipse fill="none" stroke="black" cx="3661.82" cy="-1670.33" rx="31.4" ry="18"/>
<text text-anchor="start" x="3645.82" y="-1666.63" font-family="Times New Roman,serif" font-size="14.00">carter</text>
</g>
<!-- Entity14&#45;&gt;Entity53 -->
<g id="edge38" class="edge verb">
<title>Entity14&#45;&gt;Entity53</title>
<path fill="none" stroke="black" d="M3645.6,-1686.29C3590.86,-1740.12 3412.86,-1915.2 3348.72,-1978.29"/>
<polygon fill="black" stroke="black" points="3346.15,-1975.9 3341.47,-1985.41 3351.06,-1980.89 3346.15,-1975.9"/>
<text text-anchor="start" x="3487.16" y="-1836.09" font-family="Times New Roman,serif" font-size="14.00">is</text>
</g>
<!-- Entity14&#45;&gt;Entity54 -->
<g id="edge64" class="edge verb">
<title>Entity14&#45;&gt;Entity54</title>
<path fill="none" stroke="black" d="M3684.58,-1657.94C3755.11,-1619.55 3970.02,-1502.56 4049.58,-1459.26"/>
<polygon fill="black" stroke="black" points="4051.48,-1462.21 4058.59,-1454.35 4048.14,-1456.06 4051.48,-1462.21"/>
<text text-anchor="start" x="3825.08" y="-1562.4" font-family="Times New Roman,serif" font-size="14.00">witness</text>
</g>
<!-- Entity35 -->
<g id="node54" class="node entity">
<title>Entity35</title>
<ellipse fill="none" stroke="black" cx="4551.94" cy="-2273.66" rx="39.79" ry="18"/>
<text text-anchor="start" x="4529.44" y="-2269.96" font-family="Times New Roman,serif" font-size="14.00">crowley</text>
</g>
<!-- Entity70 -->
<g id="node55" class="node entity">
<title>Entity70</title>
<ellipse fill="none" stroke="black" cx="4639.66" cy="-2385.64" rx="38.99" ry="18"/>
<text text-anchor="start" x="4617.66" y="-2381.94" font-family="Times New Roman,serif" font-size="14.00">x magic</text>
</g>
<!-- Entity35&#45;&gt;Entity70 -->
<g id="edge57" class="edge verb">
<title>Entity35&#45;&gt;Entity70</title>
<path fill="none" stroke="black" d="M4565.26,-2290.67C4579.82,-2309.25 4603.28,-2339.2 4619.96,-2360.49"/>
<polygon fill="black" stroke="black" points="4617.29,-2362.76 4626.21,-2368.47 4622.8,-2358.44 4617.29,-2362.76"/>
<text text-anchor="start" x="4546.61" y="-2329.38" font-family="Times New Roman,serif" font-size="14.00">member</text>
</g>
<!-- Entity24 -->
<g id="node56" class="node entity">
<title>Entity24</title>
<ellipse fill="none" stroke="black" cx="894.99" cy="-3826.9" rx="73.39" ry="18"/>
<text text-anchor="start" x="846.49" y="-3823.2" font-family="Times New Roman,serif" font-size="14.00">madam blavatsky</text>
</g>
<!-- Entity24&#45;&gt;Entity59 -->
<g id="edge61" class="edge verb">
<title>Entity24&#45;&gt;Entity59</title>
<path fill="none" stroke="black" d="M908.71,-3809.08C967.38,-3732.88 1197.32,-3434.22 1266.86,-3343.91"/>
<polygon fill="black" stroke="black" points="1269.75,-3345.89 1273.07,-3335.83 1264.2,-3341.62 1269.75,-3345.89"/>
<text text-anchor="start" x="1053.78" y="-3580.29" font-family="Times New Roman,serif" font-size="14.00">create</text>
</g>
<!-- Entity31 -->
<g id="node57" class="node entity">
<title>Entity31</title>
<ellipse fill="none" stroke="black" cx="5407.72" cy="-1653.37" rx="69.59" ry="18"/>
<text text-anchor="start" x="5362.22" y="-1649.67" font-family="Times New Roman,serif" font-size="14.00">andrew breitbart</text>
</g>
<!-- Entity31&#45;&gt;Entity65 -->
<g id="edge62" class="edge verb">
<title>Entity31&#45;&gt;Entity65</title>
<path fill="none" stroke="black" d="M5371.18,-1637.86C5281.81,-1599.92 5052.43,-1502.55 4955.31,-1461.33"/>
<polygon fill="black" stroke="black" points="4956.63,-1458.08 4946.06,-1457.4 4953.89,-1464.53 4956.63,-1458.08"/>
<text text-anchor="start" x="5129.24" y="-1553.39" font-family="Times New Roman,serif" font-size="14.00">create</text>
</g>
</g>
</svg>
