<?xml version="1.0" encoding="UTF-8" standalone="no"?>
<?xml-stylesheet href="../styles.css" type="text/css"?>
<!DOCTYPE svg PUBLIC "-//W3C//DTD SVG 1.1//EN"
 "http://www.w3.org/Graphics/SVG/1.1/DTD/svg11.dtd">
<!-- Generated by graphviz version 2.47.3 (20210619.1520)
 -->
<!-- Title: G Pages: 1 -->
<svg width="5001pt" height="3352pt"
 viewBox="0.00 0.00 5001.00 3352.00" xmlns="http://www.w3.org/2000/svg" xmlns:xlink="http://www.w3.org/1999/xlink">
<g id="graph0" class="graph" transform="scale(1 1) rotate(0) translate(4 3348)">
<title>G</title>
<polygon fill="white" stroke="transparent" points="-4,4 -4,-3348 4997,-3348 4997,4 -4,4"/>
<!-- Entity79 -->
<g id="node1" class="node entity">
<title>Entity79</title>
<ellipse fill="none" stroke="black" cx="2630.94" cy="-1753.66" rx="27" ry="18"/>
<text text-anchor="start" x="2620.94" y="-1749.96" font-family="Times New Roman,serif" font-size="14.00">foo</text>
</g>
<!-- Entity80 -->
<g id="node2" class="node entity">
<title>Entity80</title>
<ellipse fill="none" stroke="black" cx="2718.66" cy="-1865.64" rx="27" ry="18"/>
<text text-anchor="start" x="2708.66" y="-1861.94" font-family="Times New Roman,serif" font-size="14.00">baz</text>
</g>
<!-- Entity79&#45;&gt;Entity80 -->
<g id="edge1" class="edge verb">
<title>Entity79&#45;&gt;Entity80</title>
<path fill="none" stroke="black" d="M2643.51,-1769.7C2658.23,-1788.5 2682.76,-1819.82 2699.78,-1841.53"/>
<polygon fill="black" stroke="black" points="2697.19,-1843.91 2706.11,-1849.62 2702.7,-1839.59 2697.19,-1843.91"/>
<text text-anchor="start" x="2651.64" y="-1809.42" font-family="Times New Roman,serif" font-size="14.00">baz</text>
</g>
<!-- Entity3 -->
<g id="node3" class="node entity">
<title>Entity3</title>
<ellipse fill="none" stroke="black" cx="3768.22" cy="-1016.67" rx="65.79" ry="18"/>
<text text-anchor="start" x="3725.72" y="-1012.97" font-family="Times New Roman,serif" font-size="14.00">arthur m young</text>
</g>
<!-- Entity56 -->
<g id="node4" class="node entity">
<title>Entity56</title>
<ellipse fill="none" stroke="black" cx="3815.89" cy="-451.46" rx="53.89" ry="18"/>
<text text-anchor="start" x="3782.39" y="-447.76" font-family="Times New Roman,serif" font-size="14.00">bell aviation</text>
</g>
<!-- Entity3&#45;&gt;Entity56 -->
<g id="edge2" class="edge verb">
<title>Entity3&#45;&gt;Entity56</title>
<path fill="none" stroke="black" d="M3769.76,-998.5C3776.67,-916.46 3805.04,-580.11 3813.5,-479.82"/>
<polygon fill="black" stroke="black" points="3817.01,-479.82 3814.36,-469.56 3810.03,-479.23 3817.01,-479.82"/>
<text text-anchor="start" x="3757.63" y="-742.96" font-family="Times New Roman,serif" font-size="14.00">create</text>
</g>
<!-- Entity9 -->
<g id="node9" class="node entity">
<title>Entity9</title>
<ellipse fill="none" stroke="black" cx="4302.13" cy="-1291.2" rx="38.19" ry="18"/>
<text text-anchor="start" x="4280.63" y="-1287.5" font-family="Times New Roman,serif" font-size="14.00">the nine</text>
</g>
<!-- Entity3&#45;&gt;Entity9 -->
<g id="edge5" class="edge verb">
<title>Entity3&#45;&gt;Entity9</title>
<path fill="none" stroke="black" d="M3799.24,-1032.61C3892.38,-1080.51 4169.24,-1222.87 4267.26,-1273.27"/>
<polygon fill="black" stroke="black" points="4265.68,-1276.4 4276.17,-1277.86 4268.88,-1270.17 4265.68,-1276.4"/>
<text text-anchor="start" x="3987.25" y="-1156.74" font-family="Times New Roman,serif" font-size="14.00">member</text>
</g>
<!-- Entity55 -->
<g id="node37" class="node entity">
<title>Entity55</title>
<ellipse fill="none" stroke="black" cx="3017.15" cy="-990.38" rx="77.19" ry="18"/>
<text text-anchor="start" x="2965.65" y="-986.68" font-family="Times New Roman,serif" font-size="14.00">psi&#45;consciousness</text>
</g>
<!-- Entity3&#45;&gt;Entity55 -->
<g id="edge53" class="edge verb">
<title>Entity3&#45;&gt;Entity55</title>
<path fill="none" stroke="black" d="M3702.89,-1014.38C3567.43,-1009.64 3255.99,-998.74 3103.9,-993.41"/>
<polygon fill="black" stroke="black" points="3103.79,-989.91 3093.68,-993.06 3103.55,-996.9 3103.79,-989.91"/>
<text text-anchor="start" x="3372.39" y="-1007.7" font-family="Times New Roman,serif" font-size="14.00">study</text>
</g>
<!-- Entity7 -->
<g id="node5" class="node entity">
<title>Entity7</title>
<ellipse fill="none" stroke="black" cx="1832.61" cy="-1225.1" rx="64.19" ry="18"/>
<text text-anchor="start" x="1791.11" y="-1221.4" font-family="Times New Roman,serif" font-size="14.00">john f kennedy</text>
</g>
<!-- Entity53 -->
<g id="node6" class="node entity">
<title>Entity53</title>
<ellipse fill="none" stroke="black" cx="1330.38" cy="-1548.79" rx="31.4" ry="18"/>
<text text-anchor="start" x="1314.38" y="-1545.09" font-family="Times New Roman,serif" font-size="14.00">potus</text>
</g>
<!-- Entity7&#45;&gt;Entity53 -->
<g id="edge3" class="edge verb">
<title>Entity7&#45;&gt;Entity53</title>
<path fill="none" stroke="black" d="M1806.66,-1241.82C1721.41,-1296.76 1450.21,-1471.55 1359.93,-1529.74"/>
<polygon fill="black" stroke="black" points="1357.79,-1526.95 1351.29,-1535.31 1361.59,-1532.84 1357.79,-1526.95"/>
<text text-anchor="start" x="1573.3" y="-1389.58" font-family="Times New Roman,serif" font-size="14.00">is</text>
</g>
<!-- Entity2 -->
<g id="node7" class="node entity">
<title>Entity2</title>
<ellipse fill="none" stroke="black" cx="4479.18" cy="-1972.05" rx="64.19" ry="18"/>
<text text-anchor="start" x="4437.68" y="-1968.35" font-family="Times New Roman,serif" font-size="14.00">andre puharich</text>
</g>
<!-- Entity1 -->
<g id="node8" class="node entity">
<title>Entity1</title>
<ellipse fill="none" stroke="black" cx="4122.96" cy="-1624.15" rx="41.69" ry="18"/>
<text text-anchor="start" x="4098.96" y="-1620.45" font-family="Times New Roman,serif" font-size="14.00">uri geller</text>
</g>
<!-- Entity2&#45;&gt;Entity1 -->
<g id="edge4" class="edge verb">
<title>Entity2&#45;&gt;Entity1</title>
<path fill="none" stroke="black" d="M4461.02,-1954.32C4401.78,-1896.45 4214.03,-1713.1 4147.02,-1647.65"/>
<polygon fill="black" stroke="black" points="4149.43,-1645.1 4139.83,-1640.62 4144.53,-1650.11 4149.43,-1645.1"/>
<text text-anchor="start" x="4252.02" y="-1804.78" font-family="Times New Roman,serif" font-size="14.00">sponsore</text>
</g>
<!-- Entity1&#45;&gt;Entity9 -->
<g id="edge7" class="edge verb">
<title>Entity1&#45;&gt;Entity9</title>
<path fill="none" stroke="black" d="M4132.6,-1606.25C4162.32,-1551.02 4252.69,-1383.07 4287.88,-1317.67"/>
<polygon fill="black" stroke="black" points="4291.01,-1319.25 4292.66,-1308.79 4284.84,-1315.94 4291.01,-1319.25"/>
<text text-anchor="start" x="4106.24" y="-1465.76" font-family="Times New Roman,serif" font-size="14.00">claiemd to channel</text>
</g>
<!-- Entity52 -->
<g id="node42" class="node entity">
<title>Entity52</title>
<ellipse fill="none" stroke="black" cx="4898.59" cy="-1325.85" rx="94.48" ry="18"/>
<text text-anchor="start" x="4834.09" y="-1322.15" font-family="Times New Roman,serif" font-size="14.00">egyptian gods in a ship</text>
</g>
<!-- Entity9&#45;&gt;Entity52 -->
<g id="edge34" class="edge verb">
<title>Entity9&#45;&gt;Entity52</title>
<path fill="none" stroke="black" d="M4340.34,-1293.42C4431.37,-1298.71 4663.42,-1312.19 4797.95,-1320.01"/>
<polygon fill="black" stroke="black" points="4798.07,-1323.52 4808.26,-1320.6 4798.48,-1316.53 4798.07,-1323.52"/>
<text text-anchor="start" x="4539.15" y="-1310.51" font-family="Times New Roman,serif" font-size="14.00">claim</text>
</g>
<!-- Entity5 -->
<g id="node10" class="node entity">
<title>Entity5</title>
<ellipse fill="none" stroke="black" cx="2558.99" cy="-929.44" rx="75.29" ry="18"/>
<text text-anchor="start" x="2508.99" y="-925.74" font-family="Times New Roman,serif" font-size="14.00">lee harvey oswald</text>
</g>
<!-- Entity5&#45;&gt;Entity7 -->
<g id="edge6" class="edge verb">
<title>Entity5&#45;&gt;Entity7</title>
<path fill="none" stroke="black" d="M2520.71,-945.02C2397.67,-995.1 2012.64,-1151.82 1878.91,-1206.25"/>
<polygon fill="black" stroke="black" points="1877.3,-1203.13 1869.35,-1210.14 1879.94,-1209.61 1877.3,-1203.13"/>
<text text-anchor="start" x="2137.81" y="-1079.44" font-family="Times New Roman,serif" font-size="14.00">assassinate</text>
</g>
<!-- Entity45 -->
<g id="node31" class="node entity">
<title>Entity45</title>
<ellipse fill="none" stroke="black" cx="3263.77" cy="-744.51" rx="59.29" ry="18"/>
<text text-anchor="start" x="3226.27" y="-740.81" font-family="Times New Roman,serif" font-size="14.00">guy bannister</text>
</g>
<!-- Entity5&#45;&gt;Entity45 -->
<g id="edge23" class="edge verb">
<title>Entity5&#45;&gt;Entity45</title>
<path fill="none" stroke="black" d="M2609.96,-916.06C2738.62,-882.3 3075.72,-793.85 3208.69,-758.96"/>
<polygon fill="black" stroke="black" points="3209.88,-762.27 3218.66,-756.34 3208.1,-755.5 3209.88,-762.27"/>
<text text-anchor="start" x="2855.33" y="-841.31" font-family="Times New Roman,serif" font-size="14.00">employee</text>
</g>
<!-- Entity4 -->
<g id="node11" class="node entity">
<title>Entity4</title>
<ellipse fill="none" stroke="black" cx="4766.22" cy="-1533.15" rx="74.99" ry="18"/>
<text text-anchor="start" x="4716.72" y="-1529.45" font-family="Times New Roman,serif" font-size="14.00">gene roddenberry</text>
</g>
<!-- Entity4&#45;&gt;Entity9 -->
<g id="edge8" class="edge verb">
<title>Entity4&#45;&gt;Entity9</title>
<path fill="none" stroke="black" d="M4734.68,-1516.71C4651.03,-1473.1 4423.91,-1354.69 4336.79,-1309.28"/>
<polygon fill="black" stroke="black" points="4338.32,-1306.13 4327.84,-1304.61 4335.09,-1312.33 4338.32,-1306.13"/>
<text text-anchor="start" x="4431.74" y="-1416.79" font-family="Times New Roman,serif" font-size="14.00">claiemd to channel</text>
</g>
<!-- Entity6 -->
<g id="node12" class="node entity">
<title>Entity6</title>
<ellipse fill="none" stroke="black" cx="3619.8" cy="-1373.03" rx="68.49" ry="18"/>
<text text-anchor="start" x="3575.3" y="-1369.33" font-family="Times New Roman,serif" font-size="14.00">jeffrey mishlove</text>
</g>
<!-- Entity6&#45;&gt;Entity1 -->
<g id="edge9" class="edge verb">
<title>Entity6&#45;&gt;Entity1</title>
<path fill="none" stroke="black" d="M3652.04,-1389.12C3741.48,-1433.76 3992.29,-1558.94 4086.55,-1605.98"/>
<polygon fill="black" stroke="black" points="4085.18,-1609.21 4095.69,-1610.54 4088.31,-1602.94 4085.18,-1609.21"/>
<text text-anchor="start" x="3821.29" y="-1501.35" font-family="Times New Roman,serif" font-size="14.00">promote</text>
</g>
<!-- Entity6&#45;&gt;Entity55 -->
<g id="edge57" class="edge verb">
<title>Entity6&#45;&gt;Entity55</title>
<path fill="none" stroke="black" d="M3598.05,-1355.89C3509.34,-1293.64 3174.38,-1080.68 3057.58,-1011.88"/>
<polygon fill="black" stroke="black" points="3059.31,-1008.84 3048.91,-1006.8 3055.77,-1014.88 3059.31,-1008.84"/>
<text text-anchor="start" x="3296.82" y="-1172.69" font-family="Times New Roman,serif" font-size="14.00">study</text>
</g>
<!-- Entity6&#45;&gt;Entity55 -->
<g id="edge60" class="edge verb">
<title>Entity6&#45;&gt;Entity55</title>
<path fill="none" stroke="black" d="M3588.65,-1356.96C3484.7,-1296.63 3150.79,-1084.66 3047.71,-1013.65"/>
<polygon fill="black" stroke="black" points="3049.51,-1010.63 3039.3,-1007.8 3045.52,-1016.38 3049.51,-1010.63"/>
<text text-anchor="start" x="3254.18" y="-1189.1" font-family="Times New Roman,serif" font-size="14.00">investigates</text>
</g>
<!-- Entity11 -->
<g id="node13" class="node entity">
<title>Entity11</title>
<ellipse fill="none" stroke="black" cx="1308.44" cy="-1440.76" rx="68.49" ry="18"/>
<text text-anchor="start" x="1263.94" y="-1437.06" font-family="Times New Roman,serif" font-size="14.00">george hw bush</text>
</g>
<!-- Entity11&#45;&gt;Entity53 -->
<g id="edge48" class="edge verb">
<title>Entity11&#45;&gt;Entity53</title>
<path fill="none" stroke="black" d="M1312.16,-1459.08C1315.6,-1476.03 1320.76,-1501.44 1324.72,-1520.9"/>
<polygon fill="black" stroke="black" points="1321.29,-1521.63 1326.71,-1530.73 1328.15,-1520.24 1321.29,-1521.63"/>
<text text-anchor="start" x="1308.44" y="-1493.79" font-family="Times New Roman,serif" font-size="14.00">is</text>
</g>
<!-- Entity18 -->
<g id="node14" class="node entity">
<title>Entity18</title>
<ellipse fill="none" stroke="black" cx="871.43" cy="-1543.81" rx="63.89" ry="18"/>
<text text-anchor="start" x="830.43" y="-1540.11" font-family="Times New Roman,serif" font-size="14.00">george w bush</text>
</g>
<!-- Entity11&#45;&gt;Entity18 -->
<g id="edge10" class="edge verb">
<title>Entity11&#45;&gt;Entity18</title>
<path fill="none" stroke="black" d="M1257.46,-1452.78C1175.91,-1472.01 1016.59,-1509.58 930.31,-1529.93"/>
<polygon fill="black" stroke="black" points="929.35,-1526.56 920.42,-1532.26 930.95,-1533.37 929.35,-1526.56"/>
<text text-anchor="start" x="1061.88" y="-1495.16" font-family="Times New Roman,serif" font-size="14.00">father</text>
</g>
<!-- Entity18&#45;&gt;Entity53 -->
<g id="edge58" class="edge verb">
<title>Entity18&#45;&gt;Entity53</title>
<path fill="none" stroke="black" d="M935.24,-1544.51C1030.83,-1545.54 1208.52,-1547.47 1288.94,-1548.34"/>
<polygon fill="black" stroke="black" points="1289.13,-1551.84 1299.16,-1548.45 1289.2,-1544.84 1289.13,-1551.84"/>
<text text-anchor="start" x="1102.09" y="-1550.22" font-family="Times New Roman,serif" font-size="14.00">is</text>
</g>
<!-- Entity25 -->
<g id="node15" class="node entity">
<title>Entity25</title>
<ellipse fill="none" stroke="black" cx="1012.36" cy="-635.78" rx="58.49" ry="18"/>
<text text-anchor="start" x="975.36" y="-632.08" font-family="Times New Roman,serif" font-size="14.00">steve bannon</text>
</g>
<!-- Entity8 -->
<g id="node16" class="node entity">
<title>Entity8</title>
<ellipse fill="none" stroke="black" cx="1420.76" cy="-1038.96" rx="59.59" ry="18"/>
<text text-anchor="start" x="1382.76" y="-1035.26" font-family="Times New Roman,serif" font-size="14.00">donald trump</text>
</g>
<!-- Entity25&#45;&gt;Entity8 -->
<g id="edge11" class="edge verb">
<title>Entity25&#45;&gt;Entity8</title>
<path fill="none" stroke="black" d="M1026.14,-653.34C1084.36,-717.82 1309.92,-940.84 1391.33,-1014.91"/>
<polygon fill="black" stroke="black" points="1389.42,-1017.9 1399.19,-1022 1394.11,-1012.7 1389.42,-1017.9"/>
<text text-anchor="start" x="1160.73" y="-837.92" font-family="Times New Roman,serif" font-size="14.00">promote</text>
</g>
<!-- Entity25&#45;&gt;Entity8 -->
<g id="edge17" class="edge verb">
<title>Entity25&#45;&gt;Entity8</title>
<path fill="none" stroke="black" d="M1033.95,-652.75C1104.92,-716.08 1329.83,-937.99 1399.83,-1013.59"/>
<polygon fill="black" stroke="black" points="1397.52,-1016.24 1406.85,-1021.25 1402.68,-1011.52 1397.52,-1016.24"/>
<text text-anchor="start" x="1180.89" y="-821.97" font-family="Times New Roman,serif" font-size="14.00">advise</text>
</g>
<!-- Entity76 -->
<g id="node38" class="node entity">
<title>Entity76</title>
<ellipse fill="none" stroke="black" cx="433.15" cy="-378.59" rx="77.19" ry="18"/>
<text text-anchor="start" x="381.65" y="-374.89" font-family="Times New Roman,serif" font-size="14.00">hollywood movies</text>
</g>
<!-- Entity25&#45;&gt;Entity76 -->
<g id="edge30" class="edge verb">
<title>Entity25&#45;&gt;Entity76</title>
<path fill="none" stroke="black" d="M978.71,-620.84C879.95,-576.98 590.74,-448.57 478.45,-398.71"/>
<polygon fill="black" stroke="black" points="479.66,-395.41 469.1,-394.55 476.82,-401.81 479.66,-395.41"/>
<text text-anchor="start" x="681.58" y="-513.57" font-family="Times New Roman,serif" font-size="14.00">produce</text>
</g>
<!-- Entity64 -->
<g id="node46" class="node entity">
<title>Entity64</title>
<ellipse fill="none" stroke="black" cx="543.16" cy="-576.25" rx="38.19" ry="18"/>
<text text-anchor="start" x="521.66" y="-572.55" font-family="Times New Roman,serif" font-size="14.00">us navy</text>
</g>
<!-- Entity25&#45;&gt;Entity64 -->
<g id="edge38" class="edge verb">
<title>Entity25&#45;&gt;Entity64</title>
<path fill="none" stroke="black" d="M958.08,-628.89C865.36,-617.13 678.01,-593.36 590.37,-582.24"/>
<polygon fill="black" stroke="black" points="590.55,-578.73 580.19,-580.95 589.67,-585.68 590.55,-578.73"/>
<text text-anchor="start" x="728.22" y="-609.36" font-family="Times New Roman,serif" font-size="14.00">member</text>
</g>
<!-- Entity77 -->
<g id="node49" class="node entity">
<title>Entity77</title>
<ellipse fill="none" stroke="black" cx="860.68" cy="-527.77" rx="64.99" ry="18"/>
<text text-anchor="start" x="818.68" y="-524.07" font-family="Times New Roman,serif" font-size="14.00">goldman sachs</text>
</g>
<!-- Entity25&#45;&gt;Entity77 -->
<g id="edge44" class="edge verb">
<title>Entity25&#45;&gt;Entity77</title>
<path fill="none" stroke="black" d="M988.99,-619.14C963.24,-600.8 921.64,-571.18 892.83,-550.66"/>
<polygon fill="black" stroke="black" points="894.5,-547.55 884.33,-544.61 890.44,-553.26 894.5,-547.55"/>
<text text-anchor="start" x="886.91" y="-588.7" font-family="Times New Roman,serif" font-size="14.00">employee</text>
</g>
<!-- Entity63 -->
<g id="node51" class="node entity">
<title>Entity63</title>
<ellipse fill="none" stroke="black" cx="601.09" cy="-270.51" rx="53.09" ry="18"/>
<text text-anchor="start" x="568.09" y="-266.81" font-family="Times New Roman,serif" font-size="14.00">biosphere 2</text>
</g>
<!-- Entity25&#45;&gt;Entity63 -->
<g id="edge50" class="edge verb">
<title>Entity25&#45;&gt;Entity63</title>
<path fill="none" stroke="black" d="M993.07,-618.65C926.42,-559.45 705.64,-363.37 628.21,-294.6"/>
<polygon fill="black" stroke="black" points="630.13,-291.63 620.33,-287.6 625.48,-296.86 630.13,-291.63"/>
<text text-anchor="start" x="776.64" y="-460.42" font-family="Times New Roman,serif" font-size="14.00">create</text>
</g>
<!-- Entity65 -->
<g id="node53" class="node entity">
<title>Entity65</title>
<ellipse fill="none" stroke="black" cx="1157" cy="-182.07" rx="61.99" ry="18"/>
<text text-anchor="start" x="1117.5" y="-178.37" font-family="Times New Roman,serif" font-size="14.00">breitbart news</text>
</g>
<!-- Entity25&#45;&gt;Entity65 -->
<g id="edge55" class="edge verb">
<title>Entity25&#45;&gt;Entity65</title>
<path fill="none" stroke="black" d="M1018.12,-617.71C1040.41,-547.78 1121.14,-294.57 1148.14,-209.88"/>
<polygon fill="black" stroke="black" points="1151.52,-210.78 1151.23,-200.18 1144.85,-208.65 1151.52,-210.78"/>
<text text-anchor="start" x="1049.13" y="-417.59" font-family="Times New Roman,serif" font-size="14.00">create</text>
</g>
<!-- Entity61 -->
<g id="node59" class="node entity">
<title>Entity61</title>
<ellipse fill="none" stroke="black" cx="866.2" cy="-183.21" rx="35.19" ry="18"/>
<text text-anchor="start" x="847.2" y="-179.51" font-family="Times New Roman,serif" font-size="14.00">gurgev</text>
</g>
<!-- Entity25&#45;&gt;Entity61 -->
<g id="edge65" class="edge verb">
<title>Entity25&#45;&gt;Entity61</title>
<path fill="none" stroke="black" d="M1006.54,-617.76C984.01,-548 902.44,-295.43 875.16,-210.95"/>
<polygon fill="black" stroke="black" points="878.44,-209.72 872.03,-201.28 871.78,-211.87 878.44,-209.72"/>
<text text-anchor="start" x="909.85" y="-418.15" font-family="Times New Roman,serif" font-size="14.00">study</text>
</g>
<!-- Entity8&#45;&gt;Entity53 -->
<g id="edge26" class="edge verb">
<title>Entity8&#45;&gt;Entity53</title>
<path fill="none" stroke="black" d="M1417.55,-1057.1C1404.02,-1133.37 1351.74,-1428.31 1335.33,-1520.85"/>
<polygon fill="black" stroke="black" points="1331.85,-1520.4 1333.56,-1530.86 1338.75,-1521.63 1331.85,-1520.4"/>
<text text-anchor="start" x="1366.44" y="-1292.77" font-family="Times New Roman,serif" font-size="14.00">is</text>
</g>
<!-- Entity30 -->
<g id="node20" class="node entity">
<title>Entity30</title>
<ellipse fill="none" stroke="black" cx="1971.69" cy="-901.45" rx="50.09" ry="18"/>
<text text-anchor="start" x="1941.19" y="-897.75" font-family="Times New Roman,serif" font-size="14.00">john trump</text>
</g>
<!-- Entity8&#45;&gt;Entity30 -->
<g id="edge14" class="edge verb">
<title>Entity8&#45;&gt;Entity30</title>
<path fill="none" stroke="black" d="M1467.26,-1027.35C1569.67,-1001.79 1814.03,-940.8 1920.57,-914.21"/>
<polygon fill="black" stroke="black" points="1921.58,-917.57 1930.44,-911.75 1919.89,-910.78 1921.58,-917.57"/>
<text text-anchor="start" x="1650.91" y="-974.58" font-family="Times New Roman,serif" font-size="14.00">nephew</text>
</g>
<!-- Entity16 -->
<g id="node17" class="node entity">
<title>Entity16</title>
<ellipse fill="none" stroke="black" cx="3234.32" cy="-1098.36" rx="63.89" ry="18"/>
<text text-anchor="start" x="3193.32" y="-1094.66" font-family="Times New Roman,serif" font-size="14.00">robert bigelow</text>
</g>
<!-- Entity16&#45;&gt;Entity6 -->
<g id="edge12" class="edge verb">
<title>Entity16&#45;&gt;Entity6</title>
<path fill="none" stroke="black" d="M3257.85,-1115.13C3324.12,-1162.35 3512.34,-1296.47 3587.87,-1350.28"/>
<polygon fill="black" stroke="black" points="3585.91,-1353.18 3596.08,-1356.14 3589.97,-1347.48 3585.91,-1353.18"/>
<text text-anchor="start" x="3390.86" y="-1236.51" font-family="Times New Roman,serif" font-size="14.00">funds</text>
</g>
<!-- Entity16&#45;&gt;Entity55 -->
<g id="edge49" class="edge verb">
<title>Entity16&#45;&gt;Entity55</title>
<path fill="none" stroke="black" d="M3202.74,-1082.66C3164.9,-1063.84 3101.35,-1032.24 3059.33,-1011.35"/>
<polygon fill="black" stroke="black" points="3060.7,-1008.12 3050.19,-1006.81 3057.58,-1014.39 3060.7,-1008.12"/>
<text text-anchor="start" x="3067.04" y="-1050.81" font-family="Times New Roman,serif" font-size="14.00">investigates</text>
</g>
<!-- Entity26 -->
<g id="node18" class="node entity">
<title>Entity26</title>
<ellipse fill="none" stroke="black" cx="190.74" cy="-1956.81" rx="53.89" ry="18"/>
<text text-anchor="start" x="157.24" y="-1953.11" font-family="Times New Roman,serif" font-size="14.00">edgar casey</text>
</g>
<!-- Entity27 -->
<g id="node19" class="node entity">
<title>Entity27</title>
<ellipse fill="none" stroke="black" cx="709.43" cy="-1700.35" rx="71.49" ry="18"/>
<text text-anchor="start" x="662.43" y="-1696.65" font-family="Times New Roman,serif" font-size="14.00">woodrow wilson</text>
</g>
<!-- Entity26&#45;&gt;Entity27 -->
<g id="edge13" class="edge verb">
<title>Entity26&#45;&gt;Entity27</title>
<path fill="none" stroke="black" d="M221.25,-1941.72C309.8,-1897.94 566.95,-1770.8 667.98,-1720.84"/>
<polygon fill="black" stroke="black" points="669.57,-1723.97 676.98,-1716.4 666.46,-1717.69 669.57,-1723.97"/>
<text text-anchor="start" x="408.62" y="-1835.08" font-family="Times New Roman,serif" font-size="14.00">advise</text>
</g>
<!-- Entity27&#45;&gt;Entity53 -->
<g id="edge39" class="edge verb">
<title>Entity27&#45;&gt;Entity53</title>
<path fill="none" stroke="black" d="M760.77,-1687.82C882.1,-1658.21 1184.34,-1584.43 1291.75,-1558.22"/>
<polygon fill="black" stroke="black" points="1292.64,-1561.6 1301.52,-1555.83 1290.98,-1554.8 1292.64,-1561.6"/>
<text text-anchor="start" x="1016.26" y="-1626.82" font-family="Times New Roman,serif" font-size="14.00">is</text>
</g>
<!-- Entity58 -->
<g id="node58" class="node entity">
<title>Entity58</title>
<ellipse fill="none" stroke="black" cx="71.72" cy="-1736.97" rx="71.49" ry="18"/>
<text text-anchor="start" x="24.72" y="-1733.27" font-family="Times New Roman,serif" font-size="14.00">leauge of nations</text>
</g>
<!-- Entity27&#45;&gt;Entity58 -->
<g id="edge64" class="edge verb">
<title>Entity27&#45;&gt;Entity58</title>
<path fill="none" stroke="black" d="M639.67,-1704.36C520.37,-1711.21 277.89,-1725.13 151.84,-1732.37"/>
<polygon fill="black" stroke="black" points="151.28,-1728.9 141.5,-1732.96 151.68,-1735.88 151.28,-1728.9"/>
<text text-anchor="start" x="361.76" y="-1722.16" font-family="Times New Roman,serif" font-size="14.00">create</text>
</g>
<!-- Entity17 -->
<g id="node21" class="node entity">
<title>Entity17</title>
<ellipse fill="none" stroke="black" cx="2409.17" cy="-1037.43" rx="27" ry="18"/>
<text text-anchor="start" x="2401.17" y="-1033.73" font-family="Times New Roman,serif" font-size="14.00">cia</text>
</g>
<!-- Entity30&#45;&gt;Entity17 -->
<g id="edge15" class="edge verb">
<title>Entity30&#45;&gt;Entity17</title>
<path fill="none" stroke="black" d="M2009.75,-913.28C2093.88,-939.43 2294.56,-1001.8 2374.98,-1026.8"/>
<polygon fill="black" stroke="black" points="2374.03,-1030.17 2384.62,-1029.79 2376.11,-1023.48 2374.03,-1030.17"/>
<text text-anchor="start" x="2146.36" y="-973.84" font-family="Times New Roman,serif" font-size="14.00">member</text>
</g>
<!-- Entity67 -->
<g id="node47" class="node entity">
<title>Entity67</title>
<ellipse fill="none" stroke="black" cx="1975.94" cy="-793.35" rx="50.89" ry="18"/>
<text text-anchor="start" x="1944.94" y="-789.65" font-family="Times New Roman,serif" font-size="14.00">nikola tesla</text>
</g>
<!-- Entity30&#45;&gt;Entity67 -->
<g id="edge40" class="edge verb">
<title>Entity30&#45;&gt;Entity67</title>
<path fill="none" stroke="black" d="M1972.41,-883.12C1973.07,-866.24 1974.07,-840.96 1974.83,-821.52"/>
<polygon fill="black" stroke="black" points="1978.33,-821.55 1975.23,-811.42 1971.34,-821.27 1978.33,-821.55"/>
<text text-anchor="start" x="1942.62" y="-856.12" font-family="Times New Roman,serif" font-size="14.00">study</text>
</g>
<!-- Entity17&#45;&gt;Entity55 -->
<g id="edge29" class="edge verb">
<title>Entity17&#45;&gt;Entity55</title>
<path fill="none" stroke="black" d="M2436.08,-1035.34C2522.34,-1028.67 2794.42,-1007.61 2933.51,-996.85"/>
<polygon fill="black" stroke="black" points="2934,-1000.32 2943.7,-996.06 2933.46,-993.34 2934,-1000.32"/>
<text text-anchor="start" x="2620.8" y="-1019.9" font-family="Times New Roman,serif" font-size="14.00">investigates</text>
</g>
<!-- Entity54 -->
<g id="node52" class="node entity">
<title>Entity54</title>
<ellipse fill="none" stroke="black" cx="2106.66" cy="-1248.22" rx="27" ry="18"/>
<text text-anchor="start" x="2097.16" y="-1244.52" font-family="Times New Roman,serif" font-size="14.00">ufo</text>
</g>
<!-- Entity17&#45;&gt;Entity54 -->
<g id="edge54" class="edge verb">
<title>Entity17&#45;&gt;Entity54</title>
<path fill="none" stroke="black" d="M2390.25,-1050.61C2338.47,-1086.69 2194.3,-1187.16 2133.87,-1229.27"/>
<polygon fill="black" stroke="black" points="2131.78,-1226.45 2125.58,-1235.04 2135.78,-1232.2 2131.78,-1226.45"/>
<text text-anchor="start" x="2198.06" y="-1143.74" font-family="Times New Roman,serif" font-size="14.00">investigates</text>
</g>
<!-- Entity34 -->
<g id="node22" class="node entity">
<title>Entity34</title>
<ellipse fill="none" stroke="black" cx="1748.73" cy="-2092.71" rx="90.98" ry="18"/>
<text text-anchor="start" x="1686.73" y="-2089.01" font-family="Times New Roman,serif" font-size="14.00">emma hardinge&#45;britten</text>
</g>
<!-- Entity38 -->
<g id="node23" class="node entity">
<title>Entity38</title>
<ellipse fill="none" stroke="black" cx="1224.32" cy="-2030.49" rx="67.69" ry="18"/>
<text text-anchor="start" x="1180.32" y="-2026.79" font-family="Times New Roman,serif" font-size="14.00">abraham lincoln</text>
</g>
<!-- Entity34&#45;&gt;Entity38 -->
<g id="edge16" class="edge verb">
<title>Entity34&#45;&gt;Entity38</title>
<path fill="none" stroke="black" d="M1670.5,-2083.43C1569.3,-2071.42 1394.38,-2050.67 1296.31,-2039.03"/>
<polygon fill="black" stroke="black" points="1296.54,-2035.53 1286.2,-2037.83 1295.71,-2042.48 1296.54,-2035.53"/>
<text text-anchor="start" x="1404.41" y="-2065.03" font-family="Times New Roman,serif" font-size="14.00">spokesperson</text>
</g>
<!-- Entity59 -->
<g id="node35" class="node entity">
<title>Entity59</title>
<ellipse fill="none" stroke="black" cx="2305.31" cy="-2001.98" rx="85.29" ry="18"/>
<text text-anchor="start" x="2247.81" y="-1998.28" font-family="Times New Roman,serif" font-size="14.00">theosophical society</text>
</g>
<!-- Entity34&#45;&gt;Entity59 -->
<g id="edge41" class="edge verb">
<title>Entity34&#45;&gt;Entity59</title>
<path fill="none" stroke="black" d="M1819.22,-2081.22C1923.75,-2064.18 2119.15,-2032.33 2227.66,-2014.64"/>
<polygon fill="black" stroke="black" points="2228.26,-2018.09 2237.56,-2013.02 2227.13,-2011.18 2228.26,-2018.09"/>
<text text-anchor="start" x="1989.44" y="-2051.73" font-family="Times New Roman,serif" font-size="14.00">create</text>
</g>
<!-- Entity68 -->
<g id="node50" class="node entity">
<title>Entity68</title>
<ellipse fill="none" stroke="black" cx="1632.07" cy="-2678.46" rx="39.79" ry="18"/>
<text text-anchor="start" x="1609.57" y="-2674.76" font-family="Times New Roman,serif" font-size="14.00">medium</text>
</g>
<!-- Entity34&#45;&gt;Entity68 -->
<g id="edge45" class="edge verb">
<title>Entity34&#45;&gt;Entity68</title>
<path fill="none" stroke="black" d="M1745.11,-2110.89C1728.32,-2195.18 1657.99,-2548.35 1637.62,-2650.61"/>
<polygon fill="black" stroke="black" points="1634.17,-2650.01 1635.65,-2660.5 1641.04,-2651.37 1634.17,-2650.01"/>
<text text-anchor="start" x="1681.37" y="-2384.55" font-family="Times New Roman,serif" font-size="14.00">is</text>
</g>
<!-- Entity69 -->
<g id="node60" class="node entity">
<title>Entity69</title>
<ellipse fill="none" stroke="black" cx="1716.54" cy="-2200.8" rx="55.79" ry="18"/>
<text text-anchor="start" x="1681.54" y="-2197.1" font-family="Times New Roman,serif" font-size="14.00">orphic circle</text>
</g>
<!-- Entity34&#45;&gt;Entity69 -->
<g id="edge66" class="edge verb">
<title>Entity34&#45;&gt;Entity69</title>
<path fill="none" stroke="black" d="M1743.27,-2111.05C1738.22,-2128 1730.65,-2153.43 1724.85,-2172.9"/>
<polygon fill="black" stroke="black" points="1721.42,-2172.16 1721.92,-2182.74 1728.13,-2174.15 1721.42,-2172.16"/>
<text text-anchor="start" x="1688.06" y="-2145.78" font-family="Times New Roman,serif" font-size="14.00">member</text>
</g>
<!-- Entity38&#45;&gt;Entity53 -->
<g id="edge51" class="edge verb">
<title>Entity38&#45;&gt;Entity53</title>
<path fill="none" stroke="black" d="M1228.29,-2012.48C1244.35,-1939.53 1304.66,-1665.58 1324.22,-1576.77"/>
<polygon fill="black" stroke="black" points="1327.66,-1577.4 1326.39,-1566.88 1320.82,-1575.9 1327.66,-1577.4"/>
<text text-anchor="start" x="1266.25" y="-1798.43" font-family="Times New Roman,serif" font-size="14.00">is</text>
</g>
<!-- Entity40 -->
<g id="node24" class="node entity">
<title>Entity40</title>
<ellipse fill="none" stroke="black" cx="3999.31" cy="-17.61" rx="57.69" ry="18"/>
<text text-anchor="start" x="3962.81" y="-13.91" font-family="Times New Roman,serif" font-size="14.00">michael pane</text>
</g>
<!-- Entity40&#45;&gt;Entity56 -->
<g id="edge62" class="edge verb">
<title>Entity40&#45;&gt;Entity56</title>
<path fill="none" stroke="black" d="M3991.66,-35.7C3963.03,-103.44 3862.01,-342.37 3827.52,-423.94"/>
<polygon fill="black" stroke="black" points="3824.24,-422.72 3823.57,-433.3 3830.69,-425.45 3824.24,-422.72"/>
<text text-anchor="start" x="3855.59" y="-233.62" font-family="Times New Roman,serif" font-size="14.00">employee</text>
</g>
<!-- Entity37 -->
<g id="node25" class="node entity">
<title>Entity37</title>
<ellipse fill="none" stroke="black" cx="4014.81" cy="-559.53" rx="74.99" ry="18"/>
<text text-anchor="start" x="3965.31" y="-555.83" font-family="Times New Roman,serif" font-size="14.00">walter dornberger</text>
</g>
<!-- Entity40&#45;&gt;Entity37 -->
<g id="edge18" class="edge verb">
<title>Entity40&#45;&gt;Entity37</title>
<path fill="none" stroke="black" d="M3999.83,-35.65C4002.1,-115.05 4011.22,-433.9 4014,-531.2"/>
<polygon fill="black" stroke="black" points="4010.51,-531.54 4014.29,-541.43 4017.5,-531.34 4010.51,-531.54"/>
<text text-anchor="start" x="3952.91" y="-287.22" font-family="Times New Roman,serif" font-size="14.00">employee</text>
</g>
<!-- Entity37&#45;&gt;Entity56 -->
<g id="edge32" class="edge verb">
<title>Entity37&#45;&gt;Entity56</title>
<path fill="none" stroke="black" d="M3992.62,-542.22C3960.9,-522.2 3901.99,-489.81 3860.92,-469.51"/>
<polygon fill="black" stroke="black" points="3862.46,-466.36 3851.93,-465.12 3859.39,-472.65 3862.46,-466.36"/>
<text text-anchor="start" x="3872.77" y="-494.67" font-family="Times New Roman,serif" font-size="14.00">employee</text>
</g>
<!-- Entity37&#45;&gt;Entity56 -->
<g id="edge42" class="edge verb">
<title>Entity37&#45;&gt;Entity56</title>
<path fill="none" stroke="black" d="M3975.29,-544.19C3937.15,-525.63 3880.3,-494.65 3845.78,-473.55"/>
<polygon fill="black" stroke="black" points="3847.43,-470.46 3837.09,-468.15 3843.73,-476.4 3847.43,-470.46"/>
<text text-anchor="start" x="3831.53" y="-512.67" font-family="Times New Roman,serif" font-size="14.00">vice&#45;president</text>
</g>
<!-- Entity51 -->
<g id="node26" class="node entity">
<title>Entity51</title>
<ellipse fill="none" stroke="black" cx="4323.28" cy="-667.54" rx="32.49" ry="18"/>
<text text-anchor="start" x="4306.28" y="-663.84" font-family="Times New Roman,serif" font-size="14.00">nsdap</text>
</g>
<!-- Entity37&#45;&gt;Entity51 -->
<g id="edge19" class="edge verb">
<title>Entity37&#45;&gt;Entity51</title>
<path fill="none" stroke="black" d="M4057.37,-574.44C4118.03,-595.67 4228.33,-634.29 4285.96,-654.47"/>
<polygon fill="black" stroke="black" points="4285.15,-657.9 4295.74,-657.9 4287.46,-651.29 4285.15,-657.9"/>
<text text-anchor="start" x="4125.67" y="-618.25" font-family="Times New Roman,serif" font-size="14.00">member</text>
</g>
<!-- Entity72 -->
<g id="node48" class="node entity">
<title>Entity72</title>
<ellipse fill="none" stroke="black" cx="4445.91" cy="-30.19" rx="90.98" ry="18"/>
<text text-anchor="start" x="4383.91" y="-26.49" font-family="Times New Roman,serif" font-size="14.00">nsdap rocket program</text>
</g>
<!-- Entity37&#45;&gt;Entity72 -->
<g id="edge43" class="edge verb">
<title>Entity37&#45;&gt;Entity72</title>
<path fill="none" stroke="black" d="M4029.4,-541.61C4093.37,-463.07 4349.2,-148.93 4424.78,-56.13"/>
<polygon fill="black" stroke="black" points="4427.72,-58.06 4431.32,-48.1 4422.29,-53.64 4427.72,-58.06"/>
<text text-anchor="start" x="4193.09" y="-302.67" font-family="Times New Roman,serif" font-size="14.00">create</text>
</g>
<!-- Entity73 -->
<g id="node61" class="node entity">
<title>Entity73</title>
<ellipse fill="none" stroke="black" cx="4557.49" cy="-251.41" rx="65.79" ry="18"/>
<text text-anchor="start" x="4514.99" y="-247.71" font-family="Times New Roman,serif" font-size="14.00">x series aircraft</text>
</g>
<!-- Entity37&#45;&gt;Entity73 -->
<g id="edge67" class="edge verb">
<title>Entity37&#45;&gt;Entity73</title>
<path fill="none" stroke="black" d="M4044.37,-542.75C4136.48,-490.45 4418.2,-330.49 4520.16,-272.6"/>
<polygon fill="black" stroke="black" points="4521.92,-275.63 4528.89,-267.64 4518.47,-269.54 4521.92,-275.63"/>
<text text-anchor="start" x="4248.26" y="-411.47" font-family="Times New Roman,serif" font-size="14.00">create</text>
</g>
<!-- Entity74 -->
<g id="node41" class="node entity">
<title>Entity74</title>
<ellipse fill="none" stroke="black" cx="3845.49" cy="-696.67" rx="38.99" ry="18"/>
<text text-anchor="start" x="3823.49" y="-692.97" font-family="Times New Roman,serif" font-size="14.00">far right</text>
</g>
<!-- Entity51&#45;&gt;Entity74 -->
<g id="edge47" class="edge verb">
<title>Entity51&#45;&gt;Entity74</title>
<path fill="none" stroke="black" d="M4290.81,-669.52C4208.64,-674.53 3992.02,-687.74 3894.41,-693.69"/>
<polygon fill="black" stroke="black" points="3893.99,-690.21 3884.22,-694.31 3894.42,-697.2 3893.99,-690.21"/>
<text text-anchor="start" x="4046.61" y="-685.41" font-family="Times New Roman,serif" font-size="14.00">member</text>
</g>
<!-- Entity50 -->
<g id="node27" class="node entity">
<title>Entity50</title>
<ellipse fill="none" stroke="black" cx="2576.64" cy="-2109.97" rx="37.89" ry="18"/>
<text text-anchor="start" x="2555.64" y="-2106.27" font-family="Times New Roman,serif" font-size="14.00">hunt oil</text>
</g>
<!-- Entity48 -->
<g id="node28" class="node entity">
<title>Entity48</title>
<ellipse fill="none" stroke="black" cx="1938.41" cy="-1849.5" rx="77.99" ry="18"/>
<text text-anchor="start" x="1886.41" y="-1845.8" font-family="Times New Roman,serif" font-size="14.00">dwight eisenhower</text>
</g>
<!-- Entity50&#45;&gt;Entity48 -->
<g id="edge20" class="edge verb">
<title>Entity50&#45;&gt;Entity48</title>
<path fill="none" stroke="black" d="M2547.97,-2098.27C2447.74,-2057.36 2112.23,-1920.43 1986.52,-1869.13"/>
<polygon fill="black" stroke="black" points="1987.71,-1865.83 1977.13,-1865.3 1985.06,-1872.32 1987.71,-1865.83"/>
<text text-anchor="start" x="2241.25" y="-1972.5" font-family="Times New Roman,serif" font-size="14.00">fund</text>
</g>
<!-- Entity48&#45;&gt;Entity53 -->
<g id="edge52" class="edge verb">
<title>Entity48&#45;&gt;Entity53</title>
<path fill="none" stroke="black" d="M1905.29,-1833.11C1799.31,-1780.7 1469.28,-1617.49 1363.42,-1565.13"/>
<polygon fill="black" stroke="black" points="1364.69,-1561.85 1354.17,-1560.56 1361.58,-1568.13 1364.69,-1561.85"/>
<text text-anchor="start" x="1624.35" y="-1702.92" font-family="Times New Roman,serif" font-size="14.00">is</text>
</g>
<!-- Entity49 -->
<g id="node29" class="node entity">
<title>Entity49</title>
<ellipse fill="none" stroke="black" cx="4748.45" cy="-590.01" rx="49.29" ry="18"/>
<text text-anchor="start" x="4718.45" y="-586.31" font-family="Times New Roman,serif" font-size="14.00">adolf hitler</text>
</g>
<!-- Entity49&#45;&gt;Entity51 -->
<g id="edge21" class="edge verb">
<title>Entity49&#45;&gt;Entity51</title>
<path fill="none" stroke="black" d="M4704.15,-598.09C4621.51,-613.16 4444.95,-645.35 4364.61,-660"/>
<polygon fill="black" stroke="black" points="4363.6,-656.63 4354.39,-661.87 4364.85,-663.52 4363.6,-656.63"/>
<text text-anchor="start" x="4500.38" y="-632.84" font-family="Times New Roman,serif" font-size="14.00">create</text>
</g>
<!-- Entity46 -->
<g id="node30" class="node entity">
<title>Entity46</title>
<ellipse fill="none" stroke="black" cx="4117.61" cy="-451.49" rx="46.29" ry="18"/>
<text text-anchor="start" x="4090.11" y="-447.79" font-family="Times New Roman,serif" font-size="14.00">van braun</text>
</g>
<!-- Entity46&#45;&gt;Entity37 -->
<g id="edge22" class="edge verb">
<title>Entity46&#45;&gt;Entity37</title>
<path fill="none" stroke="black" d="M4101.54,-468.37C4084.72,-486.05 4058.1,-514.02 4038.79,-534.32"/>
<polygon fill="black" stroke="black" points="4036.14,-532.03 4031.78,-541.69 4041.21,-536.86 4036.14,-532.03"/>
<text text-anchor="start" x="4016.17" y="-505.15" font-family="Times New Roman,serif" font-size="14.00">employee</text>
</g>
<!-- Entity46&#45;&gt;Entity72 -->
<g id="edge46" class="edge verb">
<title>Entity46&#45;&gt;Entity72</title>
<path fill="none" stroke="black" d="M4131.09,-434.19C4182.19,-368.6 4364.2,-135.04 4425.55,-56.31"/>
<polygon fill="black" stroke="black" points="4428.38,-58.38 4431.76,-48.34 4422.85,-54.07 4428.38,-58.38"/>
<text text-anchor="start" x="4224.32" y="-249.05" font-family="Times New Roman,serif" font-size="14.00">employee</text>
</g>
<!-- Entity45&#45;&gt;Entity74 -->
<g id="edge33" class="edge verb">
<title>Entity45&#45;&gt;Entity74</title>
<path fill="none" stroke="black" d="M3320.87,-739.81C3435.01,-730.43 3689.54,-709.5 3796.58,-700.7"/>
<polygon fill="black" stroke="black" points="3797.09,-704.17 3806.77,-699.86 3796.51,-697.19 3797.09,-704.17"/>
<text text-anchor="start" x="3512.72" y="-724.05" font-family="Times New Roman,serif" font-size="14.00">member</text>
</g>
<!-- Entity13 -->
<g id="node32" class="node entity">
<title>Entity13</title>
<ellipse fill="none" stroke="black" cx="1159.1" cy="-1922.34" rx="58.49" ry="18"/>
<text text-anchor="start" x="1122.1" y="-1918.64" font-family="Times New Roman,serif" font-size="14.00">richard nixon</text>
</g>
<!-- Entity13&#45;&gt;Entity53 -->
<g id="edge24" class="edge verb">
<title>Entity13&#45;&gt;Entity53</title>
<path fill="none" stroke="black" d="M1167.37,-1904.32C1195.13,-1843.78 1285.17,-1647.39 1318.14,-1575.49"/>
<polygon fill="black" stroke="black" points="1321.41,-1576.74 1322.4,-1566.19 1315.05,-1573.82 1321.41,-1576.74"/>
<text text-anchor="start" x="1232.75" y="-1743.71" font-family="Times New Roman,serif" font-size="14.00">is</text>
</g>
<!-- Entity10 -->
<g id="node33" class="node entity">
<title>Entity10</title>
<ellipse fill="none" stroke="black" cx="859.72" cy="-1814.33" rx="56.59" ry="18"/>
<text text-anchor="start" x="824.22" y="-1810.63" font-family="Times New Roman,serif" font-size="14.00">harry truman</text>
</g>
<!-- Entity10&#45;&gt;Entity53 -->
<g id="edge25" class="edge verb">
<title>Entity10&#45;&gt;Entity53</title>
<path fill="none" stroke="black" d="M887.75,-1798.51C970.33,-1751.92 1212.33,-1615.39 1299.02,-1566.48"/>
<polygon fill="black" stroke="black" points="1300.88,-1569.45 1307.87,-1561.49 1297.44,-1563.35 1300.88,-1569.45"/>
<text text-anchor="start" x="1083.39" y="-1686.3" font-family="Times New Roman,serif" font-size="14.00">is</text>
</g>
<!-- Entity57 -->
<g id="node43" class="node entity">
<title>Entity57</title>
<ellipse fill="none" stroke="black" cx="477.61" cy="-2189.72" rx="55.79" ry="18"/>
<text text-anchor="start" x="442.61" y="-2186.02" font-family="Times New Roman,serif" font-size="14.00">freemasonry</text>
</g>
<!-- Entity10&#45;&gt;Entity57 -->
<g id="edge35" class="edge verb">
<title>Entity10&#45;&gt;Entity57</title>
<path fill="none" stroke="black" d="M842.05,-1831.68C780.31,-1892.34 574,-2095.02 502.37,-2165.4"/>
<polygon fill="black" stroke="black" points="499.77,-2163.05 495.08,-2172.55 504.67,-2168.04 499.77,-2163.05"/>
<text text-anchor="start" x="626.21" y="-2002.34" font-family="Times New Roman,serif" font-size="14.00">member</text>
</g>
<!-- Entity22 -->
<g id="node34" class="node entity">
<title>Entity22</title>
<ellipse fill="none" stroke="black" cx="2497.06" cy="-2670.09" rx="58.49" ry="18"/>
<text text-anchor="start" x="2460.06" y="-2666.39" font-family="Times New Roman,serif" font-size="14.00">rudolf steiner</text>
</g>
<!-- Entity22&#45;&gt;Entity59 -->
<g id="edge27" class="edge verb">
<title>Entity22&#45;&gt;Entity59</title>
<path fill="none" stroke="black" d="M2491.83,-2651.88C2465.31,-2559.49 2345.7,-2142.73 2313.38,-2030.11"/>
<polygon fill="black" stroke="black" points="2316.65,-2028.83 2310.53,-2020.18 2309.93,-2030.76 2316.65,-2028.83"/>
<text text-anchor="start" x="2356.6" y="-2344.79" font-family="Times New Roman,serif" font-size="14.00">member</text>
</g>
<!-- Entity60 -->
<g id="node36" class="node entity">
<title>Entity60</title>
<ellipse fill="none" stroke="black" cx="2655.54" cy="-3325.97" rx="102.08" ry="18"/>
<text text-anchor="start" x="2585.04" y="-3322.27" font-family="Times New Roman,serif" font-size="14.00">anthroposophical society</text>
</g>
<!-- Entity22&#45;&gt;Entity60 -->
<g id="edge28" class="edge verb">
<title>Entity22&#45;&gt;Entity60</title>
<path fill="none" stroke="black" d="M2501.46,-2688.32C2523.52,-2779.62 2622,-3187.18 2648.79,-3298.05"/>
<polygon fill="black" stroke="black" points="2645.41,-3298.93 2651.16,-3307.83 2652.21,-3297.29 2645.41,-3298.93"/>
<text text-anchor="start" x="2541.13" y="-2996.99" font-family="Times New Roman,serif" font-size="14.00">create</text>
</g>
<!-- Entity44 -->
<g id="node39" class="node entity">
<title>Entity44</title>
<ellipse fill="none" stroke="black" cx="3091.94" cy="-1970.66" rx="53.89" ry="18"/>
<text text-anchor="start" x="3058.44" y="-1966.96" font-family="Times New Roman,serif" font-size="14.00">black magic</text>
</g>
<!-- Entity71 -->
<g id="node40" class="node entity">
<title>Entity71</title>
<ellipse fill="none" stroke="black" cx="3179.66" cy="-2082.64" rx="28.7" ry="18"/>
<text text-anchor="start" x="3165.66" y="-2078.94" font-family="Times New Roman,serif" font-size="14.00">x left</text>
</g>
<!-- Entity44&#45;&gt;Entity71 -->
<g id="edge31" class="edge verb">
<title>Entity44&#45;&gt;Entity71</title>
<path fill="none" stroke="black" d="M3105.64,-1988.16C3120.45,-2007.05 3144.14,-2037.29 3160.72,-2058.45"/>
<polygon fill="black" stroke="black" points="3157.98,-2060.64 3166.9,-2066.36 3163.49,-2056.32 3157.98,-2060.64"/>
<text text-anchor="start" x="3087.18" y="-2027.11" font-family="Times New Roman,serif" font-size="14.00">member</text>
</g>
<!-- Entity14 -->
<g id="node44" class="node entity">
<title>Entity14</title>
<ellipse fill="none" stroke="black" cx="1726.16" cy="-1409.98" rx="31.4" ry="18"/>
<text text-anchor="start" x="1710.16" y="-1406.28" font-family="Times New Roman,serif" font-size="14.00">carter</text>
</g>
<!-- Entity14&#45;&gt;Entity53 -->
<g id="edge36" class="edge verb">
<title>Entity14&#45;&gt;Entity53</title>
<path fill="none" stroke="black" d="M1699.27,-1419.41C1629.94,-1443.73 1445.1,-1508.55 1366.53,-1536.11"/>
<polygon fill="black" stroke="black" points="1365.32,-1532.82 1357.05,-1539.44 1367.64,-1539.43 1365.32,-1532.82"/>
<text text-anchor="start" x="1522.9" y="-1481.56" font-family="Times New Roman,serif" font-size="14.00">is</text>
</g>
<!-- Entity14&#45;&gt;Entity54 -->
<g id="edge63" class="edge verb">
<title>Entity14&#45;&gt;Entity54</title>
<path fill="none" stroke="black" d="M1751.42,-1399.24C1818.3,-1370.81 1999.91,-1293.61 2074.26,-1262"/>
<polygon fill="black" stroke="black" points="2075.77,-1265.16 2083.61,-1258.02 2073.03,-1258.72 2075.77,-1265.16"/>
<text text-anchor="start" x="1870.84" y="-1334.42" font-family="Times New Roman,serif" font-size="14.00">witness</text>
</g>
<!-- Entity21 -->
<g id="node45" class="node entity">
<title>Entity21</title>
<ellipse fill="none" stroke="black" cx="998.43" cy="-1408.99" rx="35.19" ry="18"/>
<text text-anchor="start" x="979.43" y="-1405.29" font-family="Times New Roman,serif" font-size="14.00">obama</text>
</g>
<!-- Entity21&#45;&gt;Entity53 -->
<g id="edge37" class="edge verb">
<title>Entity21&#45;&gt;Entity53</title>
<path fill="none" stroke="black" d="M1025.6,-1420.43C1085.54,-1445.67 1229.08,-1506.13 1295.53,-1534.11"/>
<polygon fill="black" stroke="black" points="1294.56,-1537.5 1305.13,-1538.16 1297.27,-1531.05 1294.56,-1537.5"/>
<text text-anchor="start" x="1150.56" y="-1481.07" font-family="Times New Roman,serif" font-size="14.00">is</text>
</g>
<!-- Entity35 -->
<g id="node54" class="node entity">
<title>Entity35</title>
<ellipse fill="none" stroke="black" cx="3077.94" cy="-1536.66" rx="39.79" ry="18"/>
<text text-anchor="start" x="3055.44" y="-1532.96" font-family="Times New Roman,serif" font-size="14.00">crowley</text>
</g>
<!-- Entity70 -->
<g id="node55" class="node entity">
<title>Entity70</title>
<ellipse fill="none" stroke="black" cx="3165.66" cy="-1648.64" rx="38.99" ry="18"/>
<text text-anchor="start" x="3143.66" y="-1644.94" font-family="Times New Roman,serif" font-size="14.00">x magic</text>
</g>
<!-- Entity35&#45;&gt;Entity70 -->
<g id="edge56" class="edge verb">
<title>Entity35&#45;&gt;Entity70</title>
<path fill="none" stroke="black" d="M3091.26,-1553.67C3105.82,-1572.25 3129.28,-1602.2 3145.96,-1623.49"/>
<polygon fill="black" stroke="black" points="3143.29,-1625.76 3152.21,-1631.47 3148.8,-1621.44 3143.29,-1625.76"/>
<text text-anchor="start" x="3072.61" y="-1592.38" font-family="Times New Roman,serif" font-size="14.00">member</text>
</g>
<!-- Entity24 -->
<g id="node56" class="node entity">
<title>Entity24</title>
<ellipse fill="none" stroke="black" cx="2242.87" cy="-2110.06" rx="73.39" ry="18"/>
<text text-anchor="start" x="2194.37" y="-2106.36" font-family="Times New Roman,serif" font-size="14.00">madam blavatsky</text>
</g>
<!-- Entity24&#45;&gt;Entity59 -->
<g id="edge59" class="edge verb">
<title>Entity24&#45;&gt;Entity59</title>
<path fill="none" stroke="black" d="M2253.18,-2092.21C2263.17,-2074.93 2278.44,-2048.49 2289.87,-2028.7"/>
<polygon fill="black" stroke="black" points="2293.01,-2030.26 2294.98,-2019.85 2286.95,-2026.76 2293.01,-2030.26"/>
<text text-anchor="start" x="2237.53" y="-2064.25" font-family="Times New Roman,serif" font-size="14.00">create</text>
</g>
<!-- Entity31 -->
<g id="node57" class="node entity">
<title>Entity31</title>
<ellipse fill="none" stroke="black" cx="1138.9" cy="-74.09" rx="69.59" ry="18"/>
<text text-anchor="start" x="1093.4" y="-70.39" font-family="Times New Roman,serif" font-size="14.00">andrew breitbart</text>
</g>
<!-- Entity31&#45;&gt;Entity65 -->
<g id="edge61" class="edge verb">
<title>Entity31&#45;&gt;Entity65</title>
<path fill="none" stroke="black" d="M1141.97,-92.41C1144.8,-109.26 1149.03,-134.51 1152.29,-153.93"/>
<polygon fill="black" stroke="black" points="1148.87,-154.74 1153.98,-164.02 1155.78,-153.58 1148.87,-154.74"/>
<text text-anchor="start" x="1113.13" y="-126.97" font-family="Times New Roman,serif" font-size="14.00">create</text>
</g>
</g>
</svg>
