<?xml version="1.0" encoding="UTF-8" standalone="no"?>
<?xml-stylesheet href="../styles.css" type="text/css"?>
<!DOCTYPE svg PUBLIC "-//W3C//DTD SVG 1.1//EN"
 "http://www.w3.org/Graphics/SVG/1.1/DTD/svg11.dtd">
<!-- Generated by graphviz version 2.47.3 (20210619.1520)
 -->
<!-- Title: G Pages: 1 -->
<svg width="5104pt" height="3880pt"
 viewBox="0.00 0.00 5104.00 3880.00" xmlns="http://www.w3.org/2000/svg" xmlns:xlink="http://www.w3.org/1999/xlink">
<g id="graph0" class="graph" transform="scale(1 1) rotate(0) translate(4 3876)">
<title>G</title>
<polygon fill="white" stroke="transparent" points="-4,4 -4,-3876 5100,-3876 5100,4 -4,4"/>
<!-- Entity3 -->
<g id="node1" class="node entity">
<title>Entity3</title>
<ellipse fill="none" stroke="black" cx="1602.56" cy="-2334.94" rx="56.59" ry="18"/>
<text text-anchor="start" x="1567.06" y="-2331.24" font-family="Times New Roman,serif" font-size="14.00">arthur young</text>
</g>
<!-- Entity56 -->
<g id="node2" class="node entity">
<title>Entity56</title>
<ellipse fill="none" stroke="black" cx="1559.92" cy="-1649.23" rx="53.89" ry="18"/>
<text text-anchor="start" x="1526.42" y="-1645.53" font-family="Times New Roman,serif" font-size="14.00">bell aviation</text>
</g>
<!-- Entity3&#45;&gt;Entity56 -->
<g id="edge1" class="edge verb">
<title>Entity3&#45;&gt;Entity56</title>
<path fill="none" stroke="black" d="M1601.42,-2316.6C1595.56,-2222.3 1568.81,-1792.1 1561.68,-1677.4"/>
<polygon fill="black" stroke="black" points="1565.16,-1677.07 1561.05,-1667.31 1558.18,-1677.51 1565.16,-1677.07"/>
<text text-anchor="start" x="1547.55" y="-2000.8" font-family="Times New Roman,serif" font-size="14.00">create</text>
</g>
<!-- Entity55 -->
<g id="node4" class="node entity">
<title>Entity55</title>
<ellipse fill="none" stroke="black" cx="1721.79" cy="-2836.9" rx="77.19" ry="18"/>
<text text-anchor="start" x="1670.29" y="-2833.2" font-family="Times New Roman,serif" font-size="14.00">psi&#45;consciousness</text>
</g>
<!-- Entity3&#45;&gt;Entity55 -->
<g id="edge3" class="edge verb">
<title>Entity3&#45;&gt;Entity55</title>
<path fill="none" stroke="black" d="M1606.88,-2353.1C1624.79,-2428.5 1693.36,-2717.22 1715.12,-2808.83"/>
<polygon fill="black" stroke="black" points="1711.76,-2809.84 1717.48,-2818.76 1718.58,-2808.22 1711.76,-2809.84"/>
<text text-anchor="start" x="1630" y="-2584.76" font-family="Times New Roman,serif" font-size="14.00">study</text>
</g>
<!-- Entity9 -->
<g id="node56" class="node entity">
<title>Entity9</title>
<ellipse fill="none" stroke="black" cx="1380.88" cy="-2944.84" rx="38.19" ry="18"/>
<text text-anchor="start" x="1359.38" y="-2941.14" font-family="Times New Roman,serif" font-size="14.00">the nine</text>
</g>
<!-- Entity3&#45;&gt;Entity9 -->
<g id="edge62" class="edge verb">
<title>Entity3&#45;&gt;Entity9</title>
<path fill="none" stroke="black" d="M1596.05,-2352.86C1564.66,-2439.22 1428.98,-2812.51 1390.87,-2917.36"/>
<polygon fill="black" stroke="black" points="1387.52,-2916.33 1387.4,-2926.92 1394.1,-2918.72 1387.52,-2916.33"/>
<text text-anchor="start" x="1447.46" y="-2638.91" font-family="Times New Roman,serif" font-size="14.00">member</text>
</g>
<!-- Entity6 -->
<g id="node3" class="node entity">
<title>Entity6</title>
<ellipse fill="none" stroke="black" cx="1025.95" cy="-2944.74" rx="68.49" ry="18"/>
<text text-anchor="start" x="981.45" y="-2941.04" font-family="Times New Roman,serif" font-size="14.00">jeffrey mishlove</text>
</g>
<!-- Entity6&#45;&gt;Entity55 -->
<g id="edge2" class="edge verb">
<title>Entity6&#45;&gt;Entity55</title>
<path fill="none" stroke="black" d="M1090.8,-2938.85C1223.15,-2921.88 1523.09,-2875.41 1656.13,-2851.29"/>
<polygon fill="black" stroke="black" points="1656.97,-2854.69 1666.18,-2849.45 1655.71,-2847.81 1656.97,-2854.69"/>
<text text-anchor="start" x="1342.46" y="-2898.87" font-family="Times New Roman,serif" font-size="14.00">study</text>
</g>
<!-- Entity6&#45;&gt;Entity55 -->
<g id="edge8" class="edge verb">
<title>Entity6&#45;&gt;Entity55</title>
<path fill="none" stroke="black" d="M1077.67,-2932.91C1197.48,-2910.59 1494.83,-2864.26 1639.76,-2845.03"/>
<polygon fill="black" stroke="black" points="1640.47,-2848.46 1649.92,-2843.69 1639.55,-2841.52 1640.47,-2848.46"/>
<text text-anchor="start" x="1294.72" y="-2877.77" font-family="Times New Roman,serif" font-size="14.00">investigates</text>
</g>
<!-- Entity1 -->
<g id="node5" class="node entity">
<title>Entity1</title>
<ellipse fill="none" stroke="black" cx="1316" cy="-3379.3" rx="41.69" ry="18"/>
<text text-anchor="start" x="1292" y="-3375.6" font-family="Times New Roman,serif" font-size="14.00">uri geller</text>
</g>
<!-- Entity6&#45;&gt;Entity1 -->
<g id="edge4" class="edge verb">
<title>Entity6&#45;&gt;Entity1</title>
<path fill="none" stroke="black" d="M1037.86,-2962.59C1083.13,-3030.41 1244.63,-3272.37 1298.42,-3352.96"/>
<polygon fill="black" stroke="black" points="1295.69,-3355.17 1304.15,-3361.55 1301.51,-3351.28 1295.69,-3355.17"/>
<text text-anchor="start" x="1120.14" y="-3161.58" font-family="Times New Roman,serif" font-size="14.00">promote</text>
</g>
<!-- Entity1&#45;&gt;Entity9 -->
<g id="edge64" class="edge verb">
<title>Entity1&#45;&gt;Entity9</title>
<path fill="none" stroke="black" d="M1318.7,-3361.18C1328.8,-3293.56 1364.35,-3055.55 1376.65,-2973.16"/>
<polygon fill="black" stroke="black" points="1380.15,-2973.44 1378.17,-2963.04 1373.23,-2972.41 1380.15,-2973.44"/>
<text text-anchor="start" x="1243.68" y="-3170.97" font-family="Times New Roman,serif" font-size="14.00">claiemd to channel</text>
</g>
<!-- Entity11 -->
<g id="node6" class="node entity">
<title>Entity11</title>
<ellipse fill="none" stroke="black" cx="3082.3" cy="-2069.62" rx="68.49" ry="18"/>
<text text-anchor="start" x="3037.8" y="-2065.92" font-family="Times New Roman,serif" font-size="14.00">george hw bush</text>
</g>
<!-- Entity18 -->
<g id="node7" class="node entity">
<title>Entity18</title>
<ellipse fill="none" stroke="black" cx="3280.13" cy="-2177.6" rx="63.89" ry="18"/>
<text text-anchor="start" x="3239.13" y="-2173.9" font-family="Times New Roman,serif" font-size="14.00">george w bush</text>
</g>
<!-- Entity11&#45;&gt;Entity18 -->
<g id="edge5" class="edge verb">
<title>Entity11&#45;&gt;Entity18</title>
<path fill="none" stroke="black" d="M3112.34,-2086.02C3146.92,-2104.89 3203.79,-2135.93 3241.6,-2156.57"/>
<polygon fill="black" stroke="black" points="3240.32,-2159.86 3250.77,-2161.57 3243.67,-2153.71 3240.32,-2159.86"/>
<text text-anchor="start" x="3144.97" y="-2125.09" font-family="Times New Roman,serif" font-size="14.00">father</text>
</g>
<!-- Entity53 -->
<g id="node14" class="node entity">
<title>Entity53</title>
<ellipse fill="none" stroke="black" cx="2893.15" cy="-2177.68" rx="31.4" ry="18"/>
<text text-anchor="start" x="2877.15" y="-2173.98" font-family="Times New Roman,serif" font-size="14.00">potus</text>
</g>
<!-- Entity11&#45;&gt;Entity53 -->
<g id="edge43" class="edge verb">
<title>Entity11&#45;&gt;Entity53</title>
<path fill="none" stroke="black" d="M3053.57,-2086.03C3018.75,-2105.92 2960.3,-2139.32 2924.39,-2159.83"/>
<polygon fill="black" stroke="black" points="2922.28,-2157 2915.34,-2165 2925.76,-2163.08 2922.28,-2157"/>
<text text-anchor="start" x="2978.98" y="-2126.73" font-family="Times New Roman,serif" font-size="14.00">is</text>
</g>
<!-- Entity18&#45;&gt;Entity53 -->
<g id="edge16" class="edge verb">
<title>Entity18&#45;&gt;Entity53</title>
<path fill="none" stroke="black" d="M3216.23,-2177.61C3136.55,-2177.63 3002.62,-2177.65 2934.96,-2177.67"/>
<polygon fill="black" stroke="black" points="2934.69,-2174.17 2924.69,-2177.67 2934.69,-2181.17 2934.69,-2174.17"/>
<text text-anchor="start" x="3065.6" y="-2181.44" font-family="Times New Roman,serif" font-size="14.00">is</text>
</g>
<!-- Entity26 -->
<g id="node8" class="node entity">
<title>Entity26</title>
<ellipse fill="none" stroke="black" cx="3940.1" cy="-1631.82" rx="53.89" ry="18"/>
<text text-anchor="start" x="3906.6" y="-1628.12" font-family="Times New Roman,serif" font-size="14.00">edgar casey</text>
</g>
<!-- Entity27 -->
<g id="node9" class="node entity">
<title>Entity27</title>
<ellipse fill="none" stroke="black" cx="3502.04" cy="-1990.74" rx="71.49" ry="18"/>
<text text-anchor="start" x="3455.04" y="-1987.04" font-family="Times New Roman,serif" font-size="14.00">woodrow wilson</text>
</g>
<!-- Entity26&#45;&gt;Entity27 -->
<g id="edge6" class="edge verb">
<title>Entity26&#45;&gt;Entity27</title>
<path fill="none" stroke="black" d="M3919.56,-1648.65C3848.59,-1706.8 3613.54,-1899.39 3531,-1967.01"/>
<polygon fill="black" stroke="black" points="3528.57,-1964.48 3523.05,-1973.53 3533,-1969.9 3528.57,-1964.48"/>
<text text-anchor="start" x="3689.28" y="-1811.63" font-family="Times New Roman,serif" font-size="14.00">advise</text>
</g>
<!-- Entity27&#45;&gt;Entity53 -->
<g id="edge21" class="edge verb">
<title>Entity27&#45;&gt;Entity53</title>
<path fill="none" stroke="black" d="M3456.28,-2004.79C3340.4,-2040.37 3037.07,-2133.49 2930.68,-2166.15"/>
<polygon fill="black" stroke="black" points="2929.55,-2162.84 2921.01,-2169.12 2931.6,-2169.53 2929.55,-2162.84"/>
<text text-anchor="start" x="3183.48" y="-2089.27" font-family="Times New Roman,serif" font-size="14.00">is</text>
</g>
<!-- Entity58 -->
<g id="node31" class="node entity">
<title>Entity58</title>
<ellipse fill="none" stroke="black" cx="4106.5" cy="-1828.21" rx="71.49" ry="18"/>
<text text-anchor="start" x="4059.5" y="-1824.51" font-family="Times New Roman,serif" font-size="14.00">leauge of nations</text>
</g>
<!-- Entity27&#45;&gt;Entity58 -->
<g id="edge27" class="edge verb">
<title>Entity27&#45;&gt;Entity58</title>
<path fill="none" stroke="black" d="M3551,-1977.58C3661.3,-1947.92 3928.9,-1875.96 4047.84,-1843.98"/>
<polygon fill="black" stroke="black" points="4048.77,-1847.36 4057.51,-1841.38 4046.95,-1840.6 4048.77,-1847.36"/>
<text text-anchor="start" x="3765.42" y="-1914.58" font-family="Times New Roman,serif" font-size="14.00">create</text>
</g>
<!-- Entity16 -->
<g id="node10" class="node entity">
<title>Entity16</title>
<ellipse fill="none" stroke="black" cx="1075.84" cy="-2836.65" rx="63.89" ry="18"/>
<text text-anchor="start" x="1034.84" y="-2832.95" font-family="Times New Roman,serif" font-size="14.00">robert bigelow</text>
</g>
<!-- Entity16&#45;&gt;Entity6 -->
<g id="edge7" class="edge verb">
<title>Entity16&#45;&gt;Entity6</title>
<path fill="none" stroke="black" d="M1067.38,-2854.99C1059.48,-2872.09 1047.6,-2897.84 1038.58,-2917.38"/>
<polygon fill="black" stroke="black" points="1035.3,-2916.13 1034.29,-2926.68 1041.66,-2919.06 1035.3,-2916.13"/>
<text text-anchor="start" x="1020.98" y="-2889.98" font-family="Times New Roman,serif" font-size="14.00">funds</text>
</g>
<!-- Entity16&#45;&gt;Entity55 -->
<g id="edge9" class="edge verb">
<title>Entity16&#45;&gt;Entity55</title>
<path fill="none" stroke="black" d="M1139.54,-2836.68C1255.79,-2836.72 1502.48,-2836.81 1634.35,-2836.86"/>
<polygon fill="black" stroke="black" points="1634.41,-2840.36 1644.41,-2836.87 1634.42,-2833.36 1634.41,-2840.36"/>
<text text-anchor="start" x="1322.95" y="-2840.57" font-family="Times New Roman,serif" font-size="14.00">investigates</text>
</g>
<!-- Entity10 -->
<g id="node11" class="node entity">
<title>Entity10</title>
<ellipse fill="none" stroke="black" cx="3175.59" cy="-2579.89" rx="56.59" ry="18"/>
<text text-anchor="start" x="3140.09" y="-2576.19" font-family="Times New Roman,serif" font-size="14.00">harry truman</text>
</g>
<!-- Entity57 -->
<g id="node12" class="node entity">
<title>Entity57</title>
<ellipse fill="none" stroke="black" cx="3463.48" cy="-3007.22" rx="55.79" ry="18"/>
<text text-anchor="start" x="3428.48" y="-3003.52" font-family="Times New Roman,serif" font-size="14.00">freemasonry</text>
</g>
<!-- Entity10&#45;&gt;Entity57 -->
<g id="edge10" class="edge verb">
<title>Entity10&#45;&gt;Entity57</title>
<path fill="none" stroke="black" d="M3187.6,-2597.71C3232.68,-2664.63 3392.06,-2901.2 3445.71,-2980.83"/>
<polygon fill="black" stroke="black" points="3442.94,-2982.99 3451.43,-2989.32 3448.74,-2979.07 3442.94,-2982.99"/>
<text text-anchor="start" x="3270.65" y="-2793.07" font-family="Times New Roman,serif" font-size="14.00">member</text>
</g>
<!-- Entity10&#45;&gt;Entity53 -->
<g id="edge59" class="edge verb">
<title>Entity10&#45;&gt;Entity53</title>
<path fill="none" stroke="black" d="M3163.09,-2562.09C3117.95,-2497.81 2963.28,-2277.54 2910.76,-2202.75"/>
<polygon fill="black" stroke="black" points="2913.49,-2200.55 2904.88,-2194.37 2907.76,-2204.57 2913.49,-2200.55"/>
<text text-anchor="start" x="3026.93" y="-2386.22" font-family="Times New Roman,serif" font-size="14.00">is</text>
</g>
<!-- Entity7 -->
<g id="node13" class="node entity">
<title>Entity7</title>
<ellipse fill="none" stroke="black" cx="2972.11" cy="-1723.64" rx="27" ry="18"/>
<text text-anchor="start" x="2964.61" y="-1719.94" font-family="Times New Roman,serif" font-size="14.00">jfk</text>
</g>
<!-- Entity7&#45;&gt;Entity53 -->
<g id="edge11" class="edge verb">
<title>Entity7&#45;&gt;Entity53</title>
<path fill="none" stroke="black" d="M2968.96,-1741.72C2956.81,-1811.63 2912.82,-2064.58 2898.04,-2149.59"/>
<polygon fill="black" stroke="black" points="2894.57,-2149.09 2896.3,-2159.54 2901.47,-2150.29 2894.57,-2149.09"/>
<text text-anchor="start" x="2923.5" y="-1949.45" font-family="Times New Roman,serif" font-size="14.00">is</text>
</g>
<!-- Entity25 -->
<g id="node15" class="node entity">
<title>Entity25</title>
<ellipse fill="none" stroke="black" cx="1257.53" cy="-2396.69" rx="58.49" ry="18"/>
<text text-anchor="start" x="1220.53" y="-2392.99" font-family="Times New Roman,serif" font-size="14.00">steve bannon</text>
</g>
<!-- Entity8 -->
<g id="node16" class="node entity">
<title>Entity8</title>
<ellipse fill="none" stroke="black" cx="2134.05" cy="-2338.2" rx="59.59" ry="18"/>
<text text-anchor="start" x="2096.05" y="-2334.5" font-family="Times New Roman,serif" font-size="14.00">donald trump</text>
</g>
<!-- Entity25&#45;&gt;Entity8 -->
<g id="edge12" class="edge verb">
<title>Entity25&#45;&gt;Entity8</title>
<path fill="none" stroke="black" d="M1316.3,-2396.36C1473.8,-2390.02 1904.55,-2361.33 2069.03,-2346.3"/>
<polygon fill="black" stroke="black" points="2069.38,-2349.79 2079.01,-2345.38 2068.73,-2342.82 2069.38,-2349.79"/>
<text text-anchor="start" x="1644.67" y="-2375.13" font-family="Times New Roman,serif" font-size="14.00">promote</text>
</g>
<!-- Entity25&#45;&gt;Entity8 -->
<g id="edge13" class="edge verb">
<title>Entity25&#45;&gt;Entity8</title>
<path fill="none" stroke="black" d="M1311.47,-2389.61C1463.26,-2375.24 1894.03,-2346.36 2063.92,-2339"/>
<polygon fill="black" stroke="black" points="2064.16,-2342.49 2074,-2338.58 2063.86,-2335.5 2064.16,-2342.49"/>
<text text-anchor="start" x="1687.7" y="-2353.11" font-family="Times New Roman,serif" font-size="14.00">advise</text>
</g>
<!-- Entity63 -->
<g id="node29" class="node entity">
<title>Entity63</title>
<ellipse fill="none" stroke="black" cx="1000.91" cy="-2218.43" rx="53.09" ry="18"/>
<text text-anchor="start" x="967.91" y="-2214.73" font-family="Times New Roman,serif" font-size="14.00">biosphere 2</text>
</g>
<!-- Entity25&#45;&gt;Entity63 -->
<g id="edge24" class="edge verb">
<title>Entity25&#45;&gt;Entity63</title>
<path fill="none" stroke="black" d="M1233.39,-2379.92C1186.92,-2347.64 1085.03,-2276.86 1032.95,-2240.68"/>
<polygon fill="black" stroke="black" points="1034.64,-2237.59 1024.43,-2234.76 1030.65,-2243.34 1034.64,-2237.59"/>
<text text-anchor="start" x="1099.17" y="-2314.1" font-family="Times New Roman,serif" font-size="14.00">create</text>
</g>
<!-- Entity61 -->
<g id="node30" class="node entity">
<title>Entity61</title>
<ellipse fill="none" stroke="black" cx="873.27" cy="-2110.41" rx="35.19" ry="18"/>
<text text-anchor="start" x="854.27" y="-2106.71" font-family="Times New Roman,serif" font-size="14.00">gurgev</text>
</g>
<!-- Entity25&#45;&gt;Entity61 -->
<g id="edge26" class="edge verb">
<title>Entity25&#45;&gt;Entity61</title>
<path fill="none" stroke="black" d="M1234.93,-2379.85C1168.61,-2330.44 974.63,-2185.92 901.55,-2131.48"/>
<polygon fill="black" stroke="black" points="903.37,-2128.47 893.26,-2125.3 899.19,-2134.08 903.37,-2128.47"/>
<text text-anchor="start" x="1037.24" y="-2259.46" font-family="Times New Roman,serif" font-size="14.00">study</text>
</g>
<!-- Entity64 -->
<g id="node32" class="node entity">
<title>Entity64</title>
<ellipse fill="none" stroke="black" cx="1275.87" cy="-2288.59" rx="38.19" ry="18"/>
<text text-anchor="start" x="1254.37" y="-2284.89" font-family="Times New Roman,serif" font-size="14.00">us navy</text>
</g>
<!-- Entity25&#45;&gt;Entity64 -->
<g id="edge28" class="edge verb">
<title>Entity25&#45;&gt;Entity64</title>
<path fill="none" stroke="black" d="M1260.64,-2378.35C1263.5,-2361.48 1267.79,-2336.2 1271.09,-2316.76"/>
<polygon fill="black" stroke="black" points="1274.58,-2317.1 1272.8,-2306.65 1267.68,-2315.93 1274.58,-2317.1"/>
<text text-anchor="start" x="1219.86" y="-2351.35" font-family="Times New Roman,serif" font-size="14.00">member</text>
</g>
<!-- Entity65 -->
<g id="node33" class="node entity">
<title>Entity65</title>
<ellipse fill="none" stroke="black" cx="652.85" cy="-2605.54" rx="61.99" ry="18"/>
<text text-anchor="start" x="613.35" y="-2601.84" font-family="Times New Roman,serif" font-size="14.00">breitbart news</text>
</g>
<!-- Entity25&#45;&gt;Entity65 -->
<g id="edge29" class="edge verb">
<title>Entity25&#45;&gt;Entity65</title>
<path fill="none" stroke="black" d="M1218.32,-2410.23C1112.17,-2446.89 819.34,-2548.03 702.21,-2588.49"/>
<polygon fill="black" stroke="black" points="701.07,-2585.18 692.76,-2591.75 703.35,-2591.8 701.07,-2585.18"/>
<text text-anchor="start" x="926.27" y="-2503.16" font-family="Times New Roman,serif" font-size="14.00">create</text>
</g>
<!-- Entity77 -->
<g id="node34" class="node entity">
<title>Entity77</title>
<ellipse fill="none" stroke="black" cx="645.96" cy="-2276.21" rx="64.99" ry="18"/>
<text text-anchor="start" x="603.96" y="-2272.51" font-family="Times New Roman,serif" font-size="14.00">goldman sachs</text>
</g>
<!-- Entity25&#45;&gt;Entity77 -->
<g id="edge30" class="edge verb">
<title>Entity25&#45;&gt;Entity77</title>
<path fill="none" stroke="black" d="M1208.26,-2386.98C1097.94,-2365.25 831.19,-2312.7 709,-2288.63"/>
<polygon fill="black" stroke="black" points="709.53,-2285.17 699.04,-2286.67 708.18,-2292.03 709.53,-2285.17"/>
<text text-anchor="start" x="904.63" y="-2341.61" font-family="Times New Roman,serif" font-size="14.00">employee</text>
</g>
<!-- Entity76 -->
<g id="node46" class="node entity">
<title>Entity76</title>
<ellipse fill="none" stroke="black" cx="644.27" cy="-2434.09" rx="77.19" ry="18"/>
<text text-anchor="start" x="592.77" y="-2430.39" font-family="Times New Roman,serif" font-size="14.00">hollywood movies</text>
</g>
<!-- Entity25&#45;&gt;Entity76 -->
<g id="edge45" class="edge verb">
<title>Entity25&#45;&gt;Entity76</title>
<path fill="none" stroke="black" d="M1200.11,-2400.19C1091.69,-2406.8 856.33,-2421.16 729.44,-2428.9"/>
<polygon fill="black" stroke="black" points="729.14,-2425.41 719.38,-2429.51 729.57,-2432.4 729.14,-2425.41"/>
<text text-anchor="start" x="917.78" y="-2418.34" font-family="Times New Roman,serif" font-size="14.00">produce</text>
</g>
<!-- Entity8&#45;&gt;Entity53 -->
<g id="edge60" class="edge verb">
<title>Entity8&#45;&gt;Entity53</title>
<path fill="none" stroke="black" d="M2182.98,-2327.85C2323.31,-2298.18 2725.23,-2213.18 2853.38,-2186.09"/>
<polygon fill="black" stroke="black" points="2854.47,-2189.43 2863.53,-2183.94 2853.02,-2182.58 2854.47,-2189.43"/>
<text text-anchor="start" x="2508.18" y="-2260.77" font-family="Times New Roman,serif" font-size="14.00">is</text>
</g>
<!-- Entity30 -->
<g id="node17" class="node entity">
<title>Entity30</title>
<ellipse fill="none" stroke="black" cx="2103.95" cy="-2879.09" rx="50.09" ry="18"/>
<text text-anchor="start" x="2073.45" y="-2875.39" font-family="Times New Roman,serif" font-size="14.00">john trump</text>
</g>
<!-- Entity8&#45;&gt;Entity30 -->
<g id="edge14" class="edge verb">
<title>Entity8&#45;&gt;Entity30</title>
<path fill="none" stroke="black" d="M2133.03,-2356.5C2128.59,-2436.29 2110.91,-2753.95 2105.52,-2850.87"/>
<polygon fill="black" stroke="black" points="2102.01,-2850.89 2104.95,-2861.07 2109,-2851.28 2102.01,-2850.89"/>
<text text-anchor="start" x="2076.28" y="-2607.49" font-family="Times New Roman,serif" font-size="14.00">nephew</text>
</g>
<!-- Entity17 -->
<g id="node18" class="node entity">
<title>Entity17</title>
<ellipse fill="none" stroke="black" cx="2220.3" cy="-2987.2" rx="27" ry="18"/>
<text text-anchor="start" x="2212.3" y="-2983.5" font-family="Times New Roman,serif" font-size="14.00">cia</text>
</g>
<!-- Entity30&#45;&gt;Entity17 -->
<g id="edge18" class="edge verb">
<title>Entity30&#45;&gt;Entity17</title>
<path fill="none" stroke="black" d="M2122.13,-2895.99C2142.28,-2914.71 2174.84,-2944.96 2196.88,-2965.45"/>
<polygon fill="black" stroke="black" points="2194.78,-2968.27 2204.48,-2972.51 2199.54,-2963.14 2194.78,-2968.27"/>
<text text-anchor="start" x="2113.5" y="-2934.52" font-family="Times New Roman,serif" font-size="14.00">member</text>
</g>
<!-- Entity67 -->
<g id="node36" class="node entity">
<title>Entity67</title>
<ellipse fill="none" stroke="black" cx="2152.24" cy="-3368.66" rx="50.89" ry="18"/>
<text text-anchor="start" x="2121.24" y="-3364.96" font-family="Times New Roman,serif" font-size="14.00">nikola tesla</text>
</g>
<!-- Entity30&#45;&gt;Entity67 -->
<g id="edge32" class="edge verb">
<title>Entity30&#45;&gt;Entity67</title>
<path fill="none" stroke="black" d="M2105.73,-2897.1C2113,-2970.87 2140.57,-3250.35 2149.46,-3340.47"/>
<polygon fill="black" stroke="black" points="2145.99,-3340.88 2150.45,-3350.49 2152.95,-3340.2 2145.99,-3340.88"/>
<text text-anchor="start" x="2096.59" y="-3122.58" font-family="Times New Roman,serif" font-size="14.00">study</text>
</g>
<!-- Entity17&#45;&gt;Entity55 -->
<g id="edge46" class="edge verb">
<title>Entity17&#45;&gt;Entity55</title>
<path fill="none" stroke="black" d="M2195.57,-2979.75C2119.56,-2956.83 1887.86,-2886.97 1779.19,-2854.2"/>
<polygon fill="black" stroke="black" points="1779.97,-2850.78 1769.38,-2851.25 1777.95,-2857.48 1779.97,-2850.78"/>
<text text-anchor="start" x="1923.38" y="-2920.78" font-family="Times New Roman,serif" font-size="14.00">investigates</text>
</g>
<!-- Entity54 -->
<g id="node19" class="node entity">
<title>Entity54</title>
<ellipse fill="none" stroke="black" cx="2542.61" cy="-2860.83" rx="27" ry="18"/>
<text text-anchor="start" x="2533.11" y="-2857.13" font-family="Times New Roman,serif" font-size="14.00">ufo</text>
</g>
<!-- Entity17&#45;&gt;Entity54 -->
<g id="edge15" class="edge verb">
<title>Entity17&#45;&gt;Entity54</title>
<path fill="none" stroke="black" d="M2243.73,-2978.01C2300.37,-2955.81 2444.76,-2899.2 2509.88,-2873.66"/>
<polygon fill="black" stroke="black" points="2511.22,-2876.9 2519.25,-2869.99 2508.67,-2870.38 2511.22,-2876.9"/>
<text text-anchor="start" x="2312.8" y="-2929.64" font-family="Times New Roman,serif" font-size="14.00">investigates</text>
</g>
<!-- Entity14 -->
<g id="node20" class="node entity">
<title>Entity14</title>
<ellipse fill="none" stroke="black" cx="2753.01" cy="-2555.55" rx="31.4" ry="18"/>
<text text-anchor="start" x="2737.01" y="-2551.85" font-family="Times New Roman,serif" font-size="14.00">carter</text>
</g>
<!-- Entity14&#45;&gt;Entity53 -->
<g id="edge41" class="edge verb">
<title>Entity14&#45;&gt;Entity53</title>
<path fill="none" stroke="black" d="M2759.58,-2537.83C2782.06,-2477.21 2856.01,-2277.83 2883.09,-2204.8"/>
<polygon fill="black" stroke="black" points="2886.4,-2205.95 2886.59,-2195.36 2879.84,-2203.51 2886.4,-2205.95"/>
<text text-anchor="start" x="2811.34" y="-2375.11" font-family="Times New Roman,serif" font-size="14.00">is</text>
</g>
<!-- Entity14&#45;&gt;Entity54 -->
<g id="edge17" class="edge verb">
<title>Entity14&#45;&gt;Entity54</title>
<path fill="none" stroke="black" d="M2741.4,-2572.4C2706.33,-2623.28 2601.35,-2775.6 2559.8,-2835.88"/>
<polygon fill="black" stroke="black" points="2556.72,-2834.19 2553.93,-2844.41 2562.48,-2838.16 2556.72,-2834.19"/>
<text text-anchor="start" x="2608.6" y="-2707.94" font-family="Times New Roman,serif" font-size="14.00">witness</text>
</g>
<!-- Entity34 -->
<g id="node21" class="node entity">
<title>Entity34</title>
<ellipse fill="none" stroke="black" cx="4309.29" cy="-2667.27" rx="90.98" ry="18"/>
<text text-anchor="start" x="4247.29" y="-2663.57" font-family="Times New Roman,serif" font-size="14.00">emma hardinge&#45;britten</text>
</g>
<!-- Entity38 -->
<g id="node22" class="node entity">
<title>Entity38</title>
<ellipse fill="none" stroke="black" cx="3515.18" cy="-2398.35" rx="67.69" ry="18"/>
<text text-anchor="start" x="3471.18" y="-2394.65" font-family="Times New Roman,serif" font-size="14.00">abraham lincoln</text>
</g>
<!-- Entity34&#45;&gt;Entity38 -->
<g id="edge19" class="edge verb">
<title>Entity34&#45;&gt;Entity38</title>
<path fill="none" stroke="black" d="M4263.16,-2651.65C4124.51,-2604.69 3712.09,-2465.03 3566.65,-2415.78"/>
<polygon fill="black" stroke="black" points="3567.65,-2412.42 3557.05,-2412.53 3565.4,-2419.05 3567.65,-2412.42"/>
<text text-anchor="start" x="3835.91" y="-2537.51" font-family="Times New Roman,serif" font-size="14.00">spokesperson</text>
</g>
<!-- Entity59 -->
<g id="node28" class="node entity">
<title>Entity59</title>
<ellipse fill="none" stroke="black" cx="4409.22" cy="-2775.26" rx="85.29" ry="18"/>
<text text-anchor="start" x="4351.72" y="-2771.56" font-family="Times New Roman,serif" font-size="14.00">theosophical society</text>
</g>
<!-- Entity34&#45;&gt;Entity59 -->
<g id="edge47" class="edge verb">
<title>Entity34&#45;&gt;Entity59</title>
<path fill="none" stroke="black" d="M4325.79,-2685.1C4342.14,-2702.77 4367.33,-2729.98 4385.75,-2749.89"/>
<polygon fill="black" stroke="black" points="4383.33,-2752.44 4392.69,-2757.4 4388.47,-2747.68 4383.33,-2752.44"/>
<text text-anchor="start" x="4321.77" y="-2721.3" font-family="Times New Roman,serif" font-size="14.00">create</text>
</g>
<!-- Entity69 -->
<g id="node47" class="node entity">
<title>Entity69</title>
<ellipse fill="none" stroke="black" cx="4932.78" cy="-2774.38" rx="55.79" ry="18"/>
<text text-anchor="start" x="4897.78" y="-2770.68" font-family="Times New Roman,serif" font-size="14.00">orphic circle</text>
</g>
<!-- Entity34&#45;&gt;Entity69 -->
<g id="edge48" class="edge verb">
<title>Entity34&#45;&gt;Entity69</title>
<path fill="none" stroke="black" d="M4378.1,-2679.09C4501.22,-2700.24 4757.17,-2744.21 4873.24,-2764.15"/>
<polygon fill="black" stroke="black" points="4872.92,-2767.64 4883.36,-2765.89 4874.1,-2760.75 4872.92,-2767.64"/>
<text text-anchor="start" x="4579.67" y="-2725.42" font-family="Times New Roman,serif" font-size="14.00">member</text>
</g>
<!-- Entity68 -->
<g id="node48" class="node entity">
<title>Entity68</title>
<ellipse fill="none" stroke="black" cx="4869.67" cy="-2525.01" rx="39.79" ry="18"/>
<text text-anchor="start" x="4847.17" y="-2521.31" font-family="Times New Roman,serif" font-size="14.00">medium</text>
</g>
<!-- Entity34&#45;&gt;Entity68 -->
<g id="edge49" class="edge verb">
<title>Entity34&#45;&gt;Entity68</title>
<path fill="none" stroke="black" d="M4365.33,-2653.04C4476.68,-2624.78 4723.76,-2562.05 4825.04,-2536.34"/>
<polygon fill="black" stroke="black" points="4826.12,-2539.67 4834.95,-2533.82 4824.39,-2532.89 4826.12,-2539.67"/>
<text text-anchor="start" x="4585.18" y="-2598.49" font-family="Times New Roman,serif" font-size="14.00">is</text>
</g>
<!-- Entity38&#45;&gt;Entity53 -->
<g id="edge51" class="edge verb">
<title>Entity38&#45;&gt;Entity53</title>
<path fill="none" stroke="black" d="M3474.37,-2383.87C3360.09,-2343.33 3038.21,-2229.14 2929.52,-2190.58"/>
<polygon fill="black" stroke="black" points="2930.57,-2187.24 2919.98,-2187.19 2928.23,-2193.83 2930.57,-2187.24"/>
<text text-anchor="start" x="3191.94" y="-2291.02" font-family="Times New Roman,serif" font-size="14.00">is</text>
</g>
<!-- Entity40 -->
<g id="node23" class="node entity">
<title>Entity40</title>
<ellipse fill="none" stroke="black" cx="1271.27" cy="-1236.43" rx="57.69" ry="18"/>
<text text-anchor="start" x="1234.77" y="-1232.73" font-family="Times New Roman,serif" font-size="14.00">michael pane</text>
</g>
<!-- Entity40&#45;&gt;Entity56 -->
<g id="edge34" class="edge verb">
<title>Entity40&#45;&gt;Entity56</title>
<path fill="none" stroke="black" d="M1283.68,-1254.17C1329.29,-1319.4 1487.88,-1546.2 1541.81,-1623.33"/>
<polygon fill="black" stroke="black" points="1538.97,-1625.37 1547.57,-1631.56 1544.71,-1621.36 1538.97,-1625.37"/>
<text text-anchor="start" x="1358.74" y="-1442.55" font-family="Times New Roman,serif" font-size="14.00">employee</text>
</g>
<!-- Entity37 -->
<g id="node24" class="node entity">
<title>Entity37</title>
<ellipse fill="none" stroke="black" cx="1686.2" cy="-955.54" rx="74.99" ry="18"/>
<text text-anchor="start" x="1636.7" y="-951.84" font-family="Times New Roman,serif" font-size="14.00">walter dornberger</text>
</g>
<!-- Entity40&#45;&gt;Entity37 -->
<g id="edge20" class="edge verb">
<title>Entity40&#45;&gt;Entity37</title>
<path fill="none" stroke="black" d="M1295.68,-1219.91C1366.41,-1172.03 1571.61,-1033.11 1652.68,-978.23"/>
<polygon fill="black" stroke="black" points="1654.72,-981.08 1661.04,-972.57 1650.79,-975.28 1654.72,-981.08"/>
<text text-anchor="start" x="1420.18" y="-1102.87" font-family="Times New Roman,serif" font-size="14.00">employee</text>
</g>
<!-- Entity37&#45;&gt;Entity56 -->
<g id="edge33" class="edge verb">
<title>Entity37&#45;&gt;Entity56</title>
<path fill="none" stroke="black" d="M1680.48,-973.67C1657.51,-1068.25 1577.82,-1505.13 1562.16,-1620.97"/>
<polygon fill="black" stroke="black" points="1558.66,-1620.8 1560.85,-1631.16 1565.6,-1621.69 1558.66,-1620.8"/>
<text text-anchor="start" x="1567.32" y="-1301.12" font-family="Times New Roman,serif" font-size="14.00">employee</text>
</g>
<!-- Entity37&#45;&gt;Entity56 -->
<g id="edge35" class="edge verb">
<title>Entity37&#45;&gt;Entity56</title>
<path fill="none" stroke="black" d="M1685.25,-973.8C1673.75,-1068.8 1594.26,-1506.46 1567.91,-1621.48"/>
<polygon fill="black" stroke="black" points="1564.48,-1620.75 1565.6,-1631.29 1571.3,-1622.36 1564.48,-1620.75"/>
<text text-anchor="start" x="1626.58" y="-1301.44" font-family="Times New Roman,serif" font-size="14.00">vice&#45;president</text>
</g>
<!-- Entity51 -->
<g id="node37" class="node entity">
<title>Entity51</title>
<ellipse fill="none" stroke="black" cx="1982.14" cy="-445.69" rx="32.49" ry="18"/>
<text text-anchor="start" x="1965.14" y="-441.99" font-family="Times New Roman,serif" font-size="14.00">nsdap</text>
</g>
<!-- Entity37&#45;&gt;Entity51 -->
<g id="edge36" class="edge verb">
<title>Entity37&#45;&gt;Entity51</title>
<path fill="none" stroke="black" d="M1696.56,-937.69C1740.87,-861.35 1914.62,-562.02 1967.07,-471.66"/>
<polygon fill="black" stroke="black" points="1970.17,-473.28 1972.17,-462.87 1964.12,-469.76 1970.17,-473.28"/>
<text text-anchor="start" x="1785.81" y="-708.48" font-family="Times New Roman,serif" font-size="14.00">member</text>
</g>
<!-- Entity72 -->
<g id="node53" class="node entity">
<title>Entity72</title>
<ellipse fill="none" stroke="black" cx="1217.86" cy="-483.14" rx="90.98" ry="18"/>
<text text-anchor="start" x="1155.86" y="-479.44" font-family="Times New Roman,serif" font-size="14.00">nsdap rocket program</text>
</g>
<!-- Entity37&#45;&gt;Entity72 -->
<g id="edge53" class="edge verb">
<title>Entity37&#45;&gt;Entity72</title>
<path fill="none" stroke="black" d="M1668.69,-937.88C1597.12,-865.69 1326.59,-592.81 1242.78,-508.27"/>
<polygon fill="black" stroke="black" points="1245.23,-505.78 1235.71,-501.14 1240.26,-510.7 1245.23,-505.78"/>
<text text-anchor="start" x="1421.73" y="-726.88" font-family="Times New Roman,serif" font-size="14.00">create</text>
</g>
<!-- Entity73 -->
<g id="node54" class="node entity">
<title>Entity73</title>
<ellipse fill="none" stroke="black" cx="1477.85" cy="-375.16" rx="65.79" ry="18"/>
<text text-anchor="start" x="1435.35" y="-371.46" font-family="Times New Roman,serif" font-size="14.00">x series aircraft</text>
</g>
<!-- Entity37&#45;&gt;Entity73 -->
<g id="edge55" class="edge verb">
<title>Entity37&#45;&gt;Entity73</title>
<path fill="none" stroke="black" d="M1679.73,-937.53C1649.75,-854.02 1524.15,-504.14 1487.76,-402.79"/>
<polygon fill="black" stroke="black" points="1491.01,-401.47 1484.34,-393.24 1484.42,-403.84 1491.01,-401.47"/>
<text text-anchor="start" x="1549.75" y="-673.96" font-family="Times New Roman,serif" font-size="14.00">create</text>
</g>
<!-- Entity22 -->
<g id="node25" class="node entity">
<title>Entity22</title>
<ellipse fill="none" stroke="black" cx="4488.51" cy="-3402.48" rx="58.49" ry="18"/>
<text text-anchor="start" x="4451.51" y="-3398.78" font-family="Times New Roman,serif" font-size="14.00">rudolf steiner</text>
</g>
<!-- Entity60 -->
<g id="node26" class="node entity">
<title>Entity60</title>
<ellipse fill="none" stroke="black" cx="4501.15" cy="-3510.51" rx="102.08" ry="18"/>
<text text-anchor="start" x="4430.65" y="-3506.81" font-family="Times New Roman,serif" font-size="14.00">anthroposophical society</text>
</g>
<!-- Entity22&#45;&gt;Entity60 -->
<g id="edge22" class="edge verb">
<title>Entity22&#45;&gt;Entity60</title>
<path fill="none" stroke="black" d="M4490.65,-3420.81C4492.63,-3437.67 4495.58,-3462.93 4497.85,-3482.35"/>
<polygon fill="black" stroke="black" points="4494.4,-3482.93 4499.03,-3492.45 4501.35,-3482.11 4494.4,-3482.93"/>
<text text-anchor="start" x="4460.25" y="-3455.38" font-family="Times New Roman,serif" font-size="14.00">create</text>
</g>
<!-- Entity22&#45;&gt;Entity59 -->
<g id="edge25" class="edge verb">
<title>Entity22&#45;&gt;Entity59</title>
<path fill="none" stroke="black" d="M4486.22,-3384.39C4475.08,-3296.23 4426.45,-2911.56 4412.79,-2803.55"/>
<polygon fill="black" stroke="black" points="4416.24,-2802.91 4411.51,-2793.42 4409.3,-2803.78 4416.24,-2802.91"/>
<text text-anchor="start" x="4403.51" y="-3097.77" font-family="Times New Roman,serif" font-size="14.00">member</text>
</g>
<!-- Entity24 -->
<g id="node27" class="node entity">
<title>Entity24</title>
<ellipse fill="none" stroke="black" cx="5022.54" cy="-3066.79" rx="73.39" ry="18"/>
<text text-anchor="start" x="4974.04" y="-3063.09" font-family="Times New Roman,serif" font-size="14.00">madam blavatsky</text>
</g>
<!-- Entity24&#45;&gt;Entity59 -->
<g id="edge23" class="edge verb">
<title>Entity24&#45;&gt;Entity59</title>
<path fill="none" stroke="black" d="M4988.69,-3050.7C4884.76,-3001.3 4570.22,-2851.79 4453.47,-2796.29"/>
<polygon fill="black" stroke="black" points="4454.63,-2792.97 4444.1,-2791.84 4451.63,-2799.29 4454.63,-2792.97"/>
<text text-anchor="start" x="4687.08" y="-2927.29" font-family="Times New Roman,serif" font-size="14.00">create</text>
</g>
<!-- Entity31 -->
<g id="node35" class="node entity">
<title>Entity31</title>
<ellipse fill="none" stroke="black" cx="69.4" cy="-2733.29" rx="69.59" ry="18"/>
<text text-anchor="start" x="23.9" y="-2729.59" font-family="Times New Roman,serif" font-size="14.00">andrew breitbart</text>
</g>
<!-- Entity31&#45;&gt;Entity65 -->
<g id="edge31" class="edge verb">
<title>Entity31&#45;&gt;Entity65</title>
<path fill="none" stroke="black" d="M122.72,-2721.61C231.67,-2697.75 479.15,-2643.57 593.22,-2618.59"/>
<polygon fill="black" stroke="black" points="594.16,-2621.97 603.18,-2616.41 592.66,-2615.13 594.16,-2621.97"/>
<text text-anchor="start" x="323.97" y="-2673.9" font-family="Times New Roman,serif" font-size="14.00">create</text>
</g>
<!-- Entity74 -->
<g id="node55" class="node entity">
<title>Entity74</title>
<ellipse fill="none" stroke="black" cx="2389.06" cy="-440.69" rx="38.99" ry="18"/>
<text text-anchor="start" x="2367.06" y="-436.99" font-family="Times New Roman,serif" font-size="14.00">far right</text>
</g>
<!-- Entity51&#45;&gt;Entity74 -->
<g id="edge58" class="edge verb">
<title>Entity51&#45;&gt;Entity74</title>
<path fill="none" stroke="black" d="M2014.75,-445.29C2085.9,-444.42 2255.43,-442.33 2339.72,-441.3"/>
<polygon fill="black" stroke="black" points="2339.86,-444.8 2349.81,-441.17 2339.77,-437.8 2339.86,-444.8"/>
<text text-anchor="start" x="2131.24" y="-447.1" font-family="Times New Roman,serif" font-size="14.00">member</text>
</g>
<!-- Entity46 -->
<g id="node38" class="node entity">
<title>Entity46</title>
<ellipse fill="none" stroke="black" cx="1615.01" cy="-847.57" rx="46.29" ry="18"/>
<text text-anchor="start" x="1587.51" y="-843.87" font-family="Times New Roman,serif" font-size="14.00">van braun</text>
</g>
<!-- Entity46&#45;&gt;Entity37 -->
<g id="edge37" class="edge verb">
<title>Entity46&#45;&gt;Entity37</title>
<path fill="none" stroke="black" d="M1626.77,-865.4C1638.2,-882.75 1655.72,-909.31 1668.78,-929.12"/>
<polygon fill="black" stroke="black" points="1666,-931.26 1674.43,-937.68 1671.84,-927.41 1666,-931.26"/>
<text text-anchor="start" x="1593.77" y="-901.06" font-family="Times New Roman,serif" font-size="14.00">employee</text>
</g>
<!-- Entity46&#45;&gt;Entity72 -->
<g id="edge54" class="edge verb">
<title>Entity46&#45;&gt;Entity72</title>
<path fill="none" stroke="black" d="M1596.91,-830.97C1533.52,-772.79 1321.21,-577.97 1245.21,-508.23"/>
<polygon fill="black" stroke="black" points="1247.19,-505.3 1237.46,-501.12 1242.46,-510.46 1247.19,-505.3"/>
<text text-anchor="start" x="1367.06" y="-673.4" font-family="Times New Roman,serif" font-size="14.00">employee</text>
</g>
<!-- Entity49 -->
<g id="node39" class="node entity">
<title>Entity49</title>
<ellipse fill="none" stroke="black" cx="1953.94" cy="-17.83" rx="49.29" ry="18"/>
<text text-anchor="start" x="1923.94" y="-14.13" font-family="Times New Roman,serif" font-size="14.00">adolf hitler</text>
</g>
<!-- Entity49&#45;&gt;Entity51 -->
<g id="edge38" class="edge verb">
<title>Entity49&#45;&gt;Entity51</title>
<path fill="none" stroke="black" d="M1955.14,-35.94C1959.54,-102.77 1974.9,-335.83 1980.27,-417.31"/>
<polygon fill="black" stroke="black" points="1976.78,-417.59 1980.93,-427.34 1983.76,-417.13 1976.78,-417.59"/>
<text text-anchor="start" x="1933.7" y="-230.43" font-family="Times New Roman,serif" font-size="14.00">create</text>
</g>
<!-- Entity50 -->
<g id="node40" class="node entity">
<title>Entity50</title>
<ellipse fill="none" stroke="black" cx="2705.07" cy="-1161.27" rx="37.89" ry="18"/>
<text text-anchor="start" x="2684.07" y="-1157.57" font-family="Times New Roman,serif" font-size="14.00">hunt oil</text>
</g>
<!-- Entity48 -->
<g id="node41" class="node entity">
<title>Entity48</title>
<ellipse fill="none" stroke="black" cx="2657.07" cy="-1674.4" rx="77.99" ry="18"/>
<text text-anchor="start" x="2605.07" y="-1670.7" font-family="Times New Roman,serif" font-size="14.00">dwight eisenhower</text>
</g>
<!-- Entity50&#45;&gt;Entity48 -->
<g id="edge39" class="edge verb">
<title>Entity50&#45;&gt;Entity48</title>
<path fill="none" stroke="black" d="M2703.36,-1179.53C2696.18,-1256.29 2668.41,-1553.13 2659.7,-1646.27"/>
<polygon fill="black" stroke="black" points="2656.2,-1646.07 2658.75,-1656.35 2663.17,-1646.72 2656.2,-1646.07"/>
<text text-anchor="start" x="2655.53" y="-1416.7" font-family="Times New Roman,serif" font-size="14.00">fund</text>
</g>
<!-- Entity48&#45;&gt;Entity53 -->
<g id="edge56" class="edge verb">
<title>Entity48&#45;&gt;Entity53</title>
<path fill="none" stroke="black" d="M2665.47,-1692.31C2700.9,-1767.84 2838.22,-2060.58 2880.62,-2150.95"/>
<polygon fill="black" stroke="black" points="2877.56,-2152.67 2884.97,-2160.24 2883.89,-2149.7 2877.56,-2152.67"/>
<text text-anchor="start" x="2763.04" y="-1925.43" font-family="Times New Roman,serif" font-size="14.00">is</text>
</g>
<!-- Entity5 -->
<g id="node42" class="node entity">
<title>Entity5</title>
<ellipse fill="none" stroke="black" cx="2949.04" cy="-1270.26" rx="36.29" ry="18"/>
<text text-anchor="start" x="2929.04" y="-1266.56" font-family="Times New Roman,serif" font-size="14.00">oswald</text>
</g>
<!-- Entity5&#45;&gt;Entity7 -->
<g id="edge66" class="edge verb">
<title>Entity5&#45;&gt;Entity7</title>
<path fill="none" stroke="black" d="M2949.96,-1288.31C2953.51,-1358.05 2966.34,-1610.19 2970.67,-1695.33"/>
<polygon fill="black" stroke="black" points="2967.18,-1695.73 2971.19,-1705.54 2974.17,-1695.37 2967.18,-1695.73"/>
<text text-anchor="start" x="2898.31" y="-1495.62" font-family="Times New Roman,serif" font-size="14.00">assassinate</text>
</g>
<!-- Entity45 -->
<g id="node43" class="node entity">
<title>Entity45</title>
<ellipse fill="none" stroke="black" cx="2767.59" cy="-771.59" rx="59.29" ry="18"/>
<text text-anchor="start" x="2730.09" y="-767.89" font-family="Times New Roman,serif" font-size="14.00">guy bannister</text>
</g>
<!-- Entity5&#45;&gt;Entity45 -->
<g id="edge40" class="edge verb">
<title>Entity5&#45;&gt;Entity45</title>
<path fill="none" stroke="black" d="M2942.58,-1252.51C2915.47,-1178 2810.73,-890.14 2777.65,-799.25"/>
<polygon fill="black" stroke="black" points="2780.87,-797.85 2774.16,-789.65 2774.29,-800.24 2780.87,-797.85"/>
<text text-anchor="start" x="2806.12" y="-1029.68" font-family="Times New Roman,serif" font-size="14.00">employee</text>
</g>
<!-- Entity45&#45;&gt;Entity74 -->
<g id="edge57" class="edge verb">
<title>Entity45&#45;&gt;Entity74</title>
<path fill="none" stroke="black" d="M2748.03,-754.5C2684.92,-699.32 2486.56,-525.92 2415.07,-463.42"/>
<polygon fill="black" stroke="black" points="2417.22,-460.65 2407.38,-456.71 2412.61,-465.92 2417.22,-460.65"/>
<text text-anchor="start" x="2535.55" y="-612.76" font-family="Times New Roman,serif" font-size="14.00">member</text>
</g>
<!-- Entity13 -->
<g id="node44" class="node entity">
<title>Entity13</title>
<ellipse fill="none" stroke="black" cx="3221.92" cy="-1882.74" rx="58.49" ry="18"/>
<text text-anchor="start" x="3184.92" y="-1879.04" font-family="Times New Roman,serif" font-size="14.00">richard nixon</text>
</g>
<!-- Entity13&#45;&gt;Entity53 -->
<g id="edge42" class="edge verb">
<title>Entity13&#45;&gt;Entity53</title>
<path fill="none" stroke="black" d="M3202.82,-1899.87C3146.44,-1950.45 2980.73,-2099.11 2917.79,-2155.57"/>
<polygon fill="black" stroke="black" points="2915.4,-2153.02 2910.29,-2162.3 2920.07,-2158.23 2915.4,-2153.02"/>
<text text-anchor="start" x="3050.3" y="-2031.52" font-family="Times New Roman,serif" font-size="14.00">is</text>
</g>
<!-- Entity21 -->
<g id="node45" class="node entity">
<title>Entity21</title>
<ellipse fill="none" stroke="black" cx="2684.89" cy="-1962.43" rx="35.19" ry="18"/>
<text text-anchor="start" x="2665.89" y="-1958.73" font-family="Times New Roman,serif" font-size="14.00">obama</text>
</g>
<!-- Entity21&#45;&gt;Entity53 -->
<g id="edge44" class="edge verb">
<title>Entity21&#45;&gt;Entity53</title>
<path fill="none" stroke="black" d="M2700.54,-1978.61C2737.13,-2016.42 2828.36,-2110.71 2870.79,-2154.56"/>
<polygon fill="black" stroke="black" points="2868.41,-2157.14 2877.88,-2161.89 2873.44,-2152.27 2868.41,-2157.14"/>
<text text-anchor="start" x="2775.67" y="-2070.39" font-family="Times New Roman,serif" font-size="14.00">is</text>
</g>
<!-- Entity44 -->
<g id="node49" class="node entity">
<title>Entity44</title>
<ellipse fill="none" stroke="black" cx="2245.94" cy="-1387.66" rx="53.89" ry="18"/>
<text text-anchor="start" x="2212.44" y="-1383.96" font-family="Times New Roman,serif" font-size="14.00">black magic</text>
</g>
<!-- Entity71 -->
<g id="node50" class="node entity">
<title>Entity71</title>
<ellipse fill="none" stroke="black" cx="2333.66" cy="-1499.64" rx="28.7" ry="18"/>
<text text-anchor="start" x="2319.66" y="-1495.94" font-family="Times New Roman,serif" font-size="14.00">x left</text>
</g>
<!-- Entity44&#45;&gt;Entity71 -->
<g id="edge50" class="edge verb">
<title>Entity44&#45;&gt;Entity71</title>
<path fill="none" stroke="black" d="M2259.64,-1405.16C2274.45,-1424.05 2298.14,-1454.29 2314.72,-1475.45"/>
<polygon fill="black" stroke="black" points="2311.98,-1477.64 2320.9,-1483.36 2317.49,-1473.32 2311.98,-1477.64"/>
<text text-anchor="start" x="2241.18" y="-1444.11" font-family="Times New Roman,serif" font-size="14.00">member</text>
</g>
<!-- Entity35 -->
<g id="node51" class="node entity">
<title>Entity35</title>
<ellipse fill="none" stroke="black" cx="2231.94" cy="-1935.66" rx="39.79" ry="18"/>
<text text-anchor="start" x="2209.44" y="-1931.96" font-family="Times New Roman,serif" font-size="14.00">crowley</text>
</g>
<!-- Entity70 -->
<g id="node52" class="node entity">
<title>Entity70</title>
<ellipse fill="none" stroke="black" cx="2319.66" cy="-2047.64" rx="38.99" ry="18"/>
<text text-anchor="start" x="2297.66" y="-2043.94" font-family="Times New Roman,serif" font-size="14.00">x magic</text>
</g>
<!-- Entity35&#45;&gt;Entity70 -->
<g id="edge52" class="edge verb">
<title>Entity35&#45;&gt;Entity70</title>
<path fill="none" stroke="black" d="M2245.26,-1952.67C2259.82,-1971.25 2283.28,-2001.2 2299.96,-2022.49"/>
<polygon fill="black" stroke="black" points="2297.29,-2024.76 2306.21,-2030.47 2302.8,-2020.44 2297.29,-2024.76"/>
<text text-anchor="start" x="2226.61" y="-1991.38" font-family="Times New Roman,serif" font-size="14.00">member</text>
</g>
<!-- Entity52 -->
<g id="node57" class="node entity">
<title>Entity52</title>
<ellipse fill="none" stroke="black" cx="908.51" cy="-3349.83" rx="94.48" ry="18"/>
<text text-anchor="start" x="844.01" y="-3346.13" font-family="Times New Roman,serif" font-size="14.00">egyptian gods in a ship</text>
</g>
<!-- Entity9&#45;&gt;Entity52 -->
<g id="edge61" class="edge verb">
<title>Entity9&#45;&gt;Entity52</title>
<path fill="none" stroke="black" d="M1362.37,-2960.72C1289.83,-3022.91 1024.73,-3250.19 936.95,-3325.45"/>
<polygon fill="black" stroke="black" points="934.58,-3322.88 929.26,-3332.04 939.13,-3328.19 934.58,-3322.88"/>
<text text-anchor="start" x="1119.66" y="-3131.88" font-family="Times New Roman,serif" font-size="14.00">claim</text>
</g>
<!-- Entity2 -->
<g id="node58" class="node entity">
<title>Entity2</title>
<ellipse fill="none" stroke="black" cx="1123.01" cy="-3854.45" rx="64.19" ry="18"/>
<text text-anchor="start" x="1081.51" y="-3850.75" font-family="Times New Roman,serif" font-size="14.00">andre puharich</text>
</g>
<!-- Entity2&#45;&gt;Entity1 -->
<g id="edge63" class="edge verb">
<title>Entity2&#45;&gt;Entity1</title>
<path fill="none" stroke="black" d="M1130.34,-3836.4C1159.75,-3764 1269.28,-3494.33 1304.8,-3406.87"/>
<polygon fill="black" stroke="black" points="1308.14,-3407.95 1308.66,-3397.36 1301.66,-3405.31 1308.14,-3407.95"/>
<text text-anchor="start" x="1165.57" y="-3625.44" font-family="Times New Roman,serif" font-size="14.00">sponsore</text>
</g>
<!-- Entity4 -->
<g id="node59" class="node entity">
<title>Entity4</title>
<ellipse fill="none" stroke="black" cx="1405.67" cy="-3052.84" rx="74.99" ry="18"/>
<text text-anchor="start" x="1356.17" y="-3049.14" font-family="Times New Roman,serif" font-size="14.00">gene roddenberry</text>
</g>
<!-- Entity4&#45;&gt;Entity9 -->
<g id="edge65" class="edge verb">
<title>Entity4&#45;&gt;Entity9</title>
<path fill="none" stroke="black" d="M1401.47,-3034.52C1397.58,-3017.58 1391.75,-2992.17 1387.28,-2972.72"/>
<polygon fill="black" stroke="black" points="1390.67,-2971.86 1385.03,-2962.89 1383.85,-2973.42 1390.67,-2971.86"/>
<text text-anchor="start" x="1290.37" y="-3007.42" font-family="Times New Roman,serif" font-size="14.00">claiemd to channel</text>
</g>
</g>
</svg>
