<?xml version="1.0" encoding="UTF-8" standalone="no"?>
<?xml-stylesheet href="../styles.css" type="text/css"?>
<!DOCTYPE svg PUBLIC "-//W3C//DTD SVG 1.1//EN"
 "http://www.w3.org/Graphics/SVG/1.1/DTD/svg11.dtd">
<!-- Generated by graphviz version 2.47.3 (20210619.1520)
 -->
<!-- Title: G Pages: 1 -->
<svg width="6016pt" height="3733pt"
 viewBox="0.00 0.00 6016.00 3733.00" xmlns="http://www.w3.org/2000/svg" xmlns:xlink="http://www.w3.org/1999/xlink">
<g id="graph0" class="graph" transform="scale(1 1) rotate(0) translate(4 3729)">
<title>G</title>
<polygon fill="white" stroke="transparent" points="-4,4 -4,-3729 6012,-3729 6012,4 -4,4"/>
<!-- Entity79 -->
<g id="node1" class="node entity">
<title>Entity79</title>
<ellipse fill="none" stroke="black" cx="3038.94" cy="-1774.66" rx="27" ry="18"/>
<text text-anchor="start" x="3028.94" y="-1770.96" font-family="Times New Roman,serif" font-size="14.00">foo</text>
</g>
<!-- Entity80 -->
<g id="node2" class="node entity">
<title>Entity80</title>
<ellipse fill="none" stroke="black" cx="3126.66" cy="-1886.64" rx="27" ry="18"/>
<text text-anchor="start" x="3116.66" y="-1882.94" font-family="Times New Roman,serif" font-size="14.00">baz</text>
</g>
<!-- Entity79&#45;&gt;Entity80 -->
<g id="edge1" class="edge verb">
<title>Entity79&#45;&gt;Entity80</title>
<path fill="none" stroke="black" d="M3051.51,-1790.7C3066.23,-1809.5 3090.76,-1840.82 3107.78,-1862.53"/>
<polygon fill="black" stroke="black" points="3105.19,-1864.91 3114.11,-1870.62 3110.7,-1860.59 3105.19,-1864.91"/>
<text text-anchor="start" x="3059.64" y="-1830.42" font-family="Times New Roman,serif" font-size="14.00">baz</text>
</g>
<!-- Entity3 -->
<g id="node3" class="node entity">
<title>Entity3</title>
<ellipse fill="none" stroke="black" cx="4283.21" cy="-1285.07" rx="65.79" ry="18"/>
<text text-anchor="start" x="4240.71" y="-1281.37" font-family="Times New Roman,serif" font-size="14.00">arthur m young</text>
</g>
<!-- Entity56 -->
<g id="node4" class="node entity">
<title>Entity56</title>
<ellipse fill="none" stroke="black" cx="4907.7" cy="-1066.61" rx="53.89" ry="18"/>
<text text-anchor="start" x="4874.2" y="-1062.91" font-family="Times New Roman,serif" font-size="14.00">bell aviation</text>
</g>
<!-- Entity3&#45;&gt;Entity56 -->
<g id="edge2" class="edge verb">
<title>Entity3&#45;&gt;Entity56</title>
<path fill="none" stroke="black" d="M4324.18,-1270.74C4435.43,-1231.82 4742.66,-1124.35 4860.68,-1083.06"/>
<polygon fill="black" stroke="black" points="4861.89,-1086.35 4870.18,-1079.74 4859.58,-1079.74 4861.89,-1086.35"/>
<text text-anchor="start" x="4558.43" y="-1180.7" font-family="Times New Roman,serif" font-size="14.00">create</text>
</g>
<!-- Entity9 -->
<g id="node9" class="node entity">
<title>Entity9</title>
<ellipse fill="none" stroke="black" cx="4304.22" cy="-945.76" rx="38.19" ry="18"/>
<text text-anchor="start" x="4282.72" y="-942.06" font-family="Times New Roman,serif" font-size="14.00">the nine</text>
</g>
<!-- Entity3&#45;&gt;Entity9 -->
<g id="edge5" class="edge verb">
<title>Entity3&#45;&gt;Entity9</title>
<path fill="none" stroke="black" d="M4284.34,-1266.83C4287.79,-1211.02 4298.24,-1042.27 4302.45,-974.44"/>
<polygon fill="black" stroke="black" points="4305.96,-974.29 4303.09,-964.09 4298.98,-973.86 4305.96,-974.29"/>
<text text-anchor="start" x="4247.39" y="-1124.44" font-family="Times New Roman,serif" font-size="14.00">member</text>
</g>
<!-- Entity55 -->
<g id="node37" class="node entity">
<title>Entity55</title>
<ellipse fill="none" stroke="black" cx="3521.26" cy="-1414.27" rx="77.19" ry="18"/>
<text text-anchor="start" x="3469.76" y="-1410.57" font-family="Times New Roman,serif" font-size="14.00">psi&#45;consciousness</text>
</g>
<!-- Entity3&#45;&gt;Entity55 -->
<g id="edge53" class="edge verb">
<title>Entity3&#45;&gt;Entity55</title>
<path fill="none" stroke="black" d="M4227.18,-1294.57C4091.54,-1317.57 3745.54,-1376.24 3594.1,-1401.92"/>
<polygon fill="black" stroke="black" points="3593.25,-1398.52 3583.97,-1403.64 3594.42,-1405.42 3593.25,-1398.52"/>
<text text-anchor="start" x="3879.64" y="-1352.05" font-family="Times New Roman,serif" font-size="14.00">study</text>
</g>
<!-- Entity7 -->
<g id="node5" class="node entity">
<title>Entity7</title>
<ellipse fill="none" stroke="black" cx="2333.26" cy="-1445.83" rx="64.19" ry="18"/>
<text text-anchor="start" x="2291.76" y="-1442.13" font-family="Times New Roman,serif" font-size="14.00">john f kennedy</text>
</g>
<!-- Entity53 -->
<g id="node6" class="node entity">
<title>Entity53</title>
<ellipse fill="none" stroke="black" cx="1813.03" cy="-1814.34" rx="31.4" ry="18"/>
<text text-anchor="start" x="1797.03" y="-1810.64" font-family="Times New Roman,serif" font-size="14.00">potus</text>
</g>
<!-- Entity7&#45;&gt;Entity53 -->
<g id="edge3" class="edge verb">
<title>Entity7&#45;&gt;Entity53</title>
<path fill="none" stroke="black" d="M2309.55,-1462.62C2224.25,-1523.05 1933.11,-1729.29 1841.12,-1794.45"/>
<polygon fill="black" stroke="black" points="1839,-1791.66 1832.86,-1800.3 1843.04,-1797.38 1839,-1791.66"/>
<text text-anchor="start" x="2065.34" y="-1632.34" font-family="Times New Roman,serif" font-size="14.00">is</text>
</g>
<!-- Entity2 -->
<g id="node7" class="node entity">
<title>Entity2</title>
<ellipse fill="none" stroke="black" cx="3996.05" cy="-867.39" rx="64.19" ry="18"/>
<text text-anchor="start" x="3954.55" y="-863.69" font-family="Times New Roman,serif" font-size="14.00">andre puharich</text>
</g>
<!-- Entity1 -->
<g id="node8" class="node entity">
<title>Entity1</title>
<ellipse fill="none" stroke="black" cx="3961.41" cy="-1298.54" rx="41.69" ry="18"/>
<text text-anchor="start" x="3937.41" y="-1294.84" font-family="Times New Roman,serif" font-size="14.00">uri geller</text>
</g>
<!-- Entity2&#45;&gt;Entity1 -->
<g id="edge4" class="edge verb">
<title>Entity2&#45;&gt;Entity1</title>
<path fill="none" stroke="black" d="M3994.59,-885.64C3989.16,-953.13 3970.22,-1188.9 3963.66,-1270.5"/>
<polygon fill="black" stroke="black" points="3960.17,-1270.28 3962.86,-1280.53 3967.15,-1270.84 3960.17,-1270.28"/>
<text text-anchor="start" x="3927.12" y="-1081.87" font-family="Times New Roman,serif" font-size="14.00">sponsore</text>
</g>
<!-- Entity1&#45;&gt;Entity9 -->
<g id="edge7" class="edge verb">
<title>Entity1&#45;&gt;Entity9</title>
<path fill="none" stroke="black" d="M3977.94,-1281.53C4033.85,-1223.99 4215.95,-1036.6 4280.92,-969.73"/>
<polygon fill="black" stroke="black" points="4283.79,-971.8 4288.25,-962.19 4278.77,-966.93 4283.79,-971.8"/>
<text text-anchor="start" x="4025.43" y="-1129.43" font-family="Times New Roman,serif" font-size="14.00">claiemd to channel</text>
</g>
<!-- Entity52 -->
<g id="node42" class="node entity">
<title>Entity52</title>
<ellipse fill="none" stroke="black" cx="4850.09" cy="-848.27" rx="94.48" ry="18"/>
<text text-anchor="start" x="4785.59" y="-844.57" font-family="Times New Roman,serif" font-size="14.00">egyptian gods in a ship</text>
</g>
<!-- Entity9&#45;&gt;Entity52 -->
<g id="edge34" class="edge verb">
<title>Entity9&#45;&gt;Entity52</title>
<path fill="none" stroke="black" d="M4340.46,-939.29C4427.78,-923.69 4651.43,-883.75 4771.34,-862.34"/>
<polygon fill="black" stroke="black" points="4771.97,-865.78 4781.2,-860.57 4770.74,-858.89 4771.97,-865.78"/>
<text text-anchor="start" x="4525.9" y="-904.61" font-family="Times New Roman,serif" font-size="14.00">claim</text>
</g>
<!-- Entity5 -->
<g id="node10" class="node entity">
<title>Entity5</title>
<ellipse fill="none" stroke="black" cx="3019.89" cy="-1041.8" rx="75.29" ry="18"/>
<text text-anchor="start" x="2969.89" y="-1038.1" font-family="Times New Roman,serif" font-size="14.00">lee harvey oswald</text>
</g>
<!-- Entity5&#45;&gt;Entity7 -->
<g id="edge6" class="edge verb">
<title>Entity5&#45;&gt;Entity7</title>
<path fill="none" stroke="black" d="M2991.26,-1058.64C2882.06,-1122.9 2491.76,-1352.56 2369.89,-1424.28"/>
<polygon fill="black" stroke="black" points="2368.09,-1421.27 2361.25,-1429.36 2371.64,-1427.31 2368.09,-1421.27"/>
<text text-anchor="start" x="2618.57" y="-1245.26" font-family="Times New Roman,serif" font-size="14.00">assassinate</text>
</g>
<!-- Entity45 -->
<g id="node31" class="node entity">
<title>Entity45</title>
<ellipse fill="none" stroke="black" cx="3696.34" cy="-705.38" rx="59.29" ry="18"/>
<text text-anchor="start" x="3658.84" y="-701.68" font-family="Times New Roman,serif" font-size="14.00">guy bannister</text>
</g>
<!-- Entity5&#45;&gt;Entity45 -->
<g id="edge23" class="edge verb">
<title>Entity5&#45;&gt;Entity45</title>
<path fill="none" stroke="black" d="M3052.97,-1025.34C3165.56,-969.35 3533.62,-786.31 3656.21,-725.34"/>
<polygon fill="black" stroke="black" points="3657.89,-728.42 3665.28,-720.83 3654.77,-722.15 3657.89,-728.42"/>
<text text-anchor="start" x="3300.59" y="-879.14" font-family="Times New Roman,serif" font-size="14.00">employee</text>
</g>
<!-- Entity4 -->
<g id="node11" class="node entity">
<title>Entity4</title>
<ellipse fill="none" stroke="black" cx="4464.47" cy="-406.73" rx="74.99" ry="18"/>
<text text-anchor="start" x="4414.97" y="-403.03" font-family="Times New Roman,serif" font-size="14.00">gene roddenberry</text>
</g>
<!-- Entity4&#45;&gt;Entity9 -->
<g id="edge8" class="edge verb">
<title>Entity4&#45;&gt;Entity9</title>
<path fill="none" stroke="black" d="M4459.05,-424.97C4435.39,-504.56 4341.11,-821.69 4312.5,-917.93"/>
<polygon fill="black" stroke="black" points="4309.06,-917.21 4309.56,-927.79 4315.77,-919.21 4309.06,-917.21"/>
<text text-anchor="start" x="4281.77" y="-675.25" font-family="Times New Roman,serif" font-size="14.00">claiemd to channel</text>
</g>
<!-- Entity6 -->
<g id="node12" class="node entity">
<title>Entity6</title>
<ellipse fill="none" stroke="black" cx="3825.57" cy="-1856.04" rx="68.49" ry="18"/>
<text text-anchor="start" x="3781.07" y="-1852.34" font-family="Times New Roman,serif" font-size="14.00">jeffrey mishlove</text>
</g>
<!-- Entity6&#45;&gt;Entity1 -->
<g id="edge9" class="edge verb">
<title>Entity6&#45;&gt;Entity1</title>
<path fill="none" stroke="black" d="M3830.01,-1837.81C3849.87,-1756.33 3930.54,-1425.25 3954.6,-1326.48"/>
<polygon fill="black" stroke="black" points="3958.03,-1327.18 3957,-1316.63 3951.23,-1325.52 3958.03,-1327.18"/>
<text text-anchor="start" x="3844.31" y="-1585.95" font-family="Times New Roman,serif" font-size="14.00">promote</text>
</g>
<!-- Entity6&#45;&gt;Entity55 -->
<g id="edge57" class="edge verb">
<title>Entity6&#45;&gt;Entity55</title>
<path fill="none" stroke="black" d="M3816.48,-1837.96C3775.03,-1768.9 3605.34,-1522.12 3543.66,-1440.59"/>
<polygon fill="black" stroke="black" points="3546.22,-1438.17 3537.36,-1432.35 3540.66,-1442.42 3546.22,-1438.17"/>
<text text-anchor="start" x="3649.07" y="-1628.07" font-family="Times New Roman,serif" font-size="14.00">study</text>
</g>
<!-- Entity6&#45;&gt;Entity55 -->
<g id="edge60" class="edge verb">
<title>Entity6&#45;&gt;Entity55</title>
<path fill="none" stroke="black" d="M3809.85,-1838.46C3756.9,-1770.25 3586.64,-1523.3 3535.67,-1441.07"/>
<polygon fill="black" stroke="black" points="3538.53,-1439.03 3530.33,-1432.32 3532.55,-1442.68 3538.53,-1439.03"/>
<text text-anchor="start" x="3608.76" y="-1643.57" font-family="Times New Roman,serif" font-size="14.00">investigates</text>
</g>
<!-- Entity11 -->
<g id="node13" class="node entity">
<title>Entity11</title>
<ellipse fill="none" stroke="black" cx="1371.26" cy="-1663.91" rx="68.49" ry="18"/>
<text text-anchor="start" x="1326.76" y="-1660.21" font-family="Times New Roman,serif" font-size="14.00">george hw bush</text>
</g>
<!-- Entity11&#45;&gt;Entity53 -->
<g id="edge48" class="edge verb">
<title>Entity11&#45;&gt;Entity53</title>
<path fill="none" stroke="black" d="M1413.22,-1678.2C1499.35,-1707.53 1694.84,-1774.1 1776.31,-1801.84"/>
<polygon fill="black" stroke="black" points="1775.53,-1805.27 1786.12,-1805.18 1777.79,-1798.64 1775.53,-1805.27"/>
<text text-anchor="start" x="1584.77" y="-1743.82" font-family="Times New Roman,serif" font-size="14.00">is</text>
</g>
<!-- Entity18 -->
<g id="node14" class="node entity">
<title>Entity18</title>
<ellipse fill="none" stroke="black" cx="1767.18" cy="-1706.44" rx="63.89" ry="18"/>
<text text-anchor="start" x="1726.18" y="-1702.74" font-family="Times New Roman,serif" font-size="14.00">george w bush</text>
</g>
<!-- Entity11&#45;&gt;Entity18 -->
<g id="edge10" class="edge verb">
<title>Entity11&#45;&gt;Entity18</title>
<path fill="none" stroke="black" d="M1434.87,-1670.75C1506.69,-1678.46 1623.17,-1690.97 1697.43,-1698.95"/>
<polygon fill="black" stroke="black" points="1697.3,-1702.45 1707.61,-1700.04 1698.05,-1695.49 1697.3,-1702.45"/>
<text text-anchor="start" x="1534.15" y="-1688.65" font-family="Times New Roman,serif" font-size="14.00">father</text>
</g>
<!-- Entity18&#45;&gt;Entity53 -->
<g id="edge58" class="edge verb">
<title>Entity18&#45;&gt;Entity53</title>
<path fill="none" stroke="black" d="M1774.96,-1724.74C1782.26,-1741.92 1793.27,-1767.83 1801.58,-1787.38"/>
<polygon fill="black" stroke="black" points="1798.39,-1788.83 1805.52,-1796.67 1804.83,-1786.1 1798.39,-1788.83"/>
<text text-anchor="start" x="1778.27" y="-1759.86" font-family="Times New Roman,serif" font-size="14.00">is</text>
</g>
<!-- Entity25 -->
<g id="node15" class="node entity">
<title>Entity25</title>
<ellipse fill="none" stroke="black" cx="1171.69" cy="-541.92" rx="58.49" ry="18"/>
<text text-anchor="start" x="1134.69" y="-538.22" font-family="Times New Roman,serif" font-size="14.00">steve bannon</text>
</g>
<!-- Entity8 -->
<g id="node16" class="node entity">
<title>Entity8</title>
<ellipse fill="none" stroke="black" cx="1694.32" cy="-1150.95" rx="59.59" ry="18"/>
<text text-anchor="start" x="1656.32" y="-1147.25" font-family="Times New Roman,serif" font-size="14.00">donald trump</text>
</g>
<!-- Entity25&#45;&gt;Entity8 -->
<g id="edge11" class="edge verb">
<title>Entity25&#45;&gt;Entity8</title>
<path fill="none" stroke="black" d="M1183.87,-559.76C1251.04,-646.66 1575.31,-1024.86 1669,-1126.03"/>
<polygon fill="black" stroke="black" points="1666.71,-1128.71 1676.09,-1133.63 1671.82,-1123.93 1666.71,-1128.71"/>
<text text-anchor="start" x="1378.43" y="-846.69" font-family="Times New Roman,serif" font-size="14.00">promote</text>
</g>
<!-- Entity25&#45;&gt;Entity8 -->
<g id="edge17" class="edge verb">
<title>Entity25&#45;&gt;Entity8</title>
<path fill="none" stroke="black" d="M1189.84,-559.15C1270.43,-644.62 1594.56,-1022.18 1675.83,-1125.04"/>
<polygon fill="black" stroke="black" points="1673.18,-1127.33 1682.1,-1133.05 1678.7,-1123.02 1673.18,-1127.33"/>
<text text-anchor="start" x="1396.84" y="-830.9" font-family="Times New Roman,serif" font-size="14.00">advise</text>
</g>
<!-- Entity76 -->
<g id="node38" class="node entity">
<title>Entity76</title>
<ellipse fill="none" stroke="black" cx="637.54" cy="-233.77" rx="77.19" ry="18"/>
<text text-anchor="start" x="586.04" y="-230.07" font-family="Times New Roman,serif" font-size="14.00">hollywood movies</text>
</g>
<!-- Entity25&#45;&gt;Entity76 -->
<g id="edge30" class="edge verb">
<title>Entity25&#45;&gt;Entity76</title>
<path fill="none" stroke="black" d="M1144.1,-526C1055.34,-474.8 777.09,-314.27 675.31,-255.56"/>
<polygon fill="black" stroke="black" points="677,-252.49 666.59,-250.53 673.5,-258.55 677,-252.49"/>
<text text-anchor="start" x="862.71" y="-394.58" font-family="Times New Roman,serif" font-size="14.00">produce</text>
</g>
<!-- Entity64 -->
<g id="node46" class="node entity">
<title>Entity64</title>
<ellipse fill="none" stroke="black" cx="1088.18" cy="-17.83" rx="38.19" ry="18"/>
<text text-anchor="start" x="1066.68" y="-14.13" font-family="Times New Roman,serif" font-size="14.00">us navy</text>
</g>
<!-- Entity25&#45;&gt;Entity64 -->
<g id="edge38" class="edge verb">
<title>Entity25&#45;&gt;Entity64</title>
<path fill="none" stroke="black" d="M1168.82,-523.88C1156.45,-446.23 1107.68,-140.21 1092.63,-45.75"/>
<polygon fill="black" stroke="black" points="1096.08,-45.12 1091.05,-35.8 1089.16,-46.22 1096.08,-45.12"/>
<text text-anchor="start" x="1084.72" y="-288.61" font-family="Times New Roman,serif" font-size="14.00">member</text>
</g>
<!-- Entity77 -->
<g id="node49" class="node entity">
<title>Entity77</title>
<ellipse fill="none" stroke="black" cx="960.74" cy="-433.91" rx="64.99" ry="18"/>
<text text-anchor="start" x="918.74" y="-430.21" font-family="Times New Roman,serif" font-size="14.00">goldman sachs</text>
</g>
<!-- Entity25&#45;&gt;Entity77 -->
<g id="edge44" class="edge verb">
<title>Entity25&#45;&gt;Entity77</title>
<path fill="none" stroke="black" d="M1141.47,-526.44C1104.5,-507.52 1041.81,-475.42 1000.84,-454.44"/>
<polygon fill="black" stroke="black" points="1002.44,-451.33 991.94,-449.88 999.25,-457.56 1002.44,-451.33"/>
<text text-anchor="start" x="1017.16" y="-494.24" font-family="Times New Roman,serif" font-size="14.00">employee</text>
</g>
<!-- Entity63 -->
<g id="node51" class="node entity">
<title>Entity63</title>
<ellipse fill="none" stroke="black" cx="860.67" cy="-125.75" rx="53.09" ry="18"/>
<text text-anchor="start" x="827.67" y="-122.05" font-family="Times New Roman,serif" font-size="14.00">biosphere 2</text>
</g>
<!-- Entity25&#45;&gt;Entity63 -->
<g id="edge50" class="edge verb">
<title>Entity25&#45;&gt;Entity63</title>
<path fill="none" stroke="black" d="M1158.53,-524.3C1109.65,-458.9 938.45,-229.83 880.23,-151.92"/>
<polygon fill="black" stroke="black" points="882.8,-149.52 874.01,-143.6 877.2,-153.71 882.8,-149.52"/>
<text text-anchor="start" x="985.38" y="-341.91" font-family="Times New Roman,serif" font-size="14.00">create</text>
</g>
<!-- Entity65 -->
<g id="node53" class="node entity">
<title>Entity65</title>
<ellipse fill="none" stroke="black" cx="580.56" cy="-369.13" rx="61.99" ry="18"/>
<text text-anchor="start" x="541.06" y="-365.43" font-family="Times New Roman,serif" font-size="14.00">breitbart news</text>
</g>
<!-- Entity25&#45;&gt;Entity65 -->
<g id="edge55" class="edge verb">
<title>Entity25&#45;&gt;Entity65</title>
<path fill="none" stroke="black" d="M1129.18,-529.49C1023.71,-498.66 750.21,-418.72 634.03,-384.76"/>
<polygon fill="black" stroke="black" points="634.86,-381.35 624.28,-381.91 632.9,-388.07 634.86,-381.35"/>
<text text-anchor="start" x="847.6" y="-460.92" font-family="Times New Roman,serif" font-size="14.00">create</text>
</g>
<!-- Entity61 -->
<g id="node59" class="node entity">
<title>Entity61</title>
<ellipse fill="none" stroke="black" cx="1301.4" cy="-125.88" rx="35.19" ry="18"/>
<text text-anchor="start" x="1282.4" y="-122.18" font-family="Times New Roman,serif" font-size="14.00">gurgev</text>
</g>
<!-- Entity25&#45;&gt;Entity61 -->
<g id="edge65" class="edge verb">
<title>Entity25&#45;&gt;Entity61</title>
<path fill="none" stroke="black" d="M1177.35,-523.77C1197.79,-458.21 1267.91,-233.3 1292.67,-153.9"/>
<polygon fill="black" stroke="black" points="1296.08,-154.7 1295.72,-144.12 1289.4,-152.62 1296.08,-154.7"/>
<text text-anchor="start" x="1204.01" y="-342.64" font-family="Times New Roman,serif" font-size="14.00">study</text>
</g>
<!-- Entity8&#45;&gt;Entity53 -->
<g id="edge26" class="edge verb">
<title>Entity8&#45;&gt;Entity53</title>
<path fill="none" stroke="black" d="M1697.56,-1169.04C1713.98,-1260.78 1788.02,-1674.59 1808.04,-1786.41"/>
<polygon fill="black" stroke="black" points="1804.59,-1787.05 1809.8,-1796.27 1811.48,-1785.81 1804.59,-1787.05"/>
<text text-anchor="start" x="1742.8" y="-1481.53" font-family="Times New Roman,serif" font-size="14.00">is</text>
</g>
<!-- Entity30 -->
<g id="node20" class="node entity">
<title>Entity30</title>
<ellipse fill="none" stroke="black" cx="2350.77" cy="-1131.63" rx="50.09" ry="18"/>
<text text-anchor="start" x="2320.27" y="-1127.93" font-family="Times New Roman,serif" font-size="14.00">john trump</text>
</g>
<!-- Entity8&#45;&gt;Entity30 -->
<g id="edge14" class="edge verb">
<title>Entity8&#45;&gt;Entity30</title>
<path fill="none" stroke="black" d="M1754.03,-1149.2C1878.68,-1145.53 2165.4,-1137.09 2290.53,-1133.4"/>
<polygon fill="black" stroke="black" points="2290.8,-1136.9 2300.69,-1133.1 2290.59,-1129.9 2290.8,-1136.9"/>
<text text-anchor="start" x="1979.28" y="-1145.1" font-family="Times New Roman,serif" font-size="14.00">nephew</text>
</g>
<!-- Entity16 -->
<g id="node17" class="node entity">
<title>Entity16</title>
<ellipse fill="none" stroke="black" cx="3768.14" cy="-1964.11" rx="63.89" ry="18"/>
<text text-anchor="start" x="3727.14" y="-1960.41" font-family="Times New Roman,serif" font-size="14.00">robert bigelow</text>
</g>
<!-- Entity16&#45;&gt;Entity6 -->
<g id="edge12" class="edge verb">
<title>Entity16&#45;&gt;Entity6</title>
<path fill="none" stroke="black" d="M3777.63,-1946.26C3786.81,-1928.98 3800.86,-1902.55 3811.37,-1882.76"/>
<polygon fill="black" stroke="black" points="3814.47,-1884.39 3816.07,-1873.91 3808.29,-1881.1 3814.47,-1884.39"/>
<text text-anchor="start" x="3762.5" y="-1918.31" font-family="Times New Roman,serif" font-size="14.00">funds</text>
</g>
<!-- Entity16&#45;&gt;Entity55 -->
<g id="edge49" class="edge verb">
<title>Entity16&#45;&gt;Entity55</title>
<path fill="none" stroke="black" d="M3760.07,-1946.13C3723.95,-1865.69 3577.1,-1538.64 3533.51,-1441.56"/>
<polygon fill="black" stroke="black" points="3536.68,-1440.08 3529.4,-1432.39 3530.3,-1442.95 3536.68,-1440.08"/>
<text text-anchor="start" x="3582.79" y="-1697.64" font-family="Times New Roman,serif" font-size="14.00">investigates</text>
</g>
<!-- Entity26 -->
<g id="node18" class="node entity">
<title>Entity26</title>
<ellipse fill="none" stroke="black" cx="646.16" cy="-2051.83" rx="53.89" ry="18"/>
<text text-anchor="start" x="612.66" y="-2048.13" font-family="Times New Roman,serif" font-size="14.00">edgar casey</text>
</g>
<!-- Entity27 -->
<g id="node19" class="node entity">
<title>Entity27</title>
<ellipse fill="none" stroke="black" cx="1191.26" cy="-1867.33" rx="71.49" ry="18"/>
<text text-anchor="start" x="1144.26" y="-1863.63" font-family="Times New Roman,serif" font-size="14.00">woodrow wilson</text>
</g>
<!-- Entity26&#45;&gt;Entity27 -->
<g id="edge13" class="edge verb">
<title>Entity26&#45;&gt;Entity27</title>
<path fill="none" stroke="black" d="M684.06,-2039.01C779.44,-2006.72 1029.62,-1922.04 1138.91,-1885.05"/>
<polygon fill="black" stroke="black" points="1140.06,-1888.36 1148.41,-1881.83 1137.82,-1881.72 1140.06,-1888.36"/>
<text text-anchor="start" x="875.48" y="-1965.83" font-family="Times New Roman,serif" font-size="14.00">advise</text>
</g>
<!-- Entity27&#45;&gt;Entity53 -->
<g id="edge39" class="edge verb">
<title>Entity27&#45;&gt;Entity53</title>
<path fill="none" stroke="black" d="M1258.98,-1861.56C1388.31,-1850.54 1666.89,-1826.8 1771.88,-1817.85"/>
<polygon fill="black" stroke="black" points="1772.4,-1821.32 1782.06,-1816.98 1771.8,-1814.35 1772.4,-1821.32"/>
<text text-anchor="start" x="1505.43" y="-1843.51" font-family="Times New Roman,serif" font-size="14.00">is</text>
</g>
<!-- Entity58 -->
<g id="node58" class="node entity">
<title>Entity58</title>
<ellipse fill="none" stroke="black" cx="559.06" cy="-1823.73" rx="71.49" ry="18"/>
<text text-anchor="start" x="512.06" y="-1820.03" font-family="Times New Roman,serif" font-size="14.00">leauge of nations</text>
</g>
<!-- Entity27&#45;&gt;Entity58 -->
<g id="edge64" class="edge verb">
<title>Entity27&#45;&gt;Entity58</title>
<path fill="none" stroke="black" d="M1122.09,-1862.56C1003.83,-1854.4 763.45,-1837.82 638.49,-1829.21"/>
<polygon fill="black" stroke="black" points="638.45,-1825.69 628.24,-1828.5 637.97,-1832.68 638.45,-1825.69"/>
<text text-anchor="start" x="846.29" y="-1849.68" font-family="Times New Roman,serif" font-size="14.00">create</text>
</g>
<!-- Entity17 -->
<g id="node21" class="node entity">
<title>Entity17</title>
<ellipse fill="none" stroke="black" cx="2859.41" cy="-1327.48" rx="27" ry="18"/>
<text text-anchor="start" x="2851.41" y="-1323.78" font-family="Times New Roman,serif" font-size="14.00">cia</text>
</g>
<!-- Entity30&#45;&gt;Entity17 -->
<g id="edge15" class="edge verb">
<title>Entity30&#45;&gt;Entity17</title>
<path fill="none" stroke="black" d="M2384.93,-1144.78C2477.9,-1180.58 2734.58,-1279.41 2826.3,-1314.73"/>
<polygon fill="black" stroke="black" points="2825.31,-1318.1 2835.9,-1318.43 2827.83,-1311.57 2825.31,-1318.1"/>
<text text-anchor="start" x="2559.62" y="-1233.56" font-family="Times New Roman,serif" font-size="14.00">member</text>
</g>
<!-- Entity67 -->
<g id="node47" class="node entity">
<title>Entity67</title>
<ellipse fill="none" stroke="black" cx="2375.38" cy="-666.8" rx="50.89" ry="18"/>
<text text-anchor="start" x="2344.38" y="-663.1" font-family="Times New Roman,serif" font-size="14.00">nikola tesla</text>
</g>
<!-- Entity30&#45;&gt;Entity67 -->
<g id="edge40" class="edge verb">
<title>Entity30&#45;&gt;Entity67</title>
<path fill="none" stroke="black" d="M2351.73,-1113.41C2355.51,-1042.1 2369.3,-781.65 2373.89,-695.03"/>
<polygon fill="black" stroke="black" points="2377.39,-695.07 2374.42,-684.9 2370.4,-694.7 2377.39,-695.07"/>
<text text-anchor="start" x="2331.81" y="-908.02" font-family="Times New Roman,serif" font-size="14.00">study</text>
</g>
<!-- Entity17&#45;&gt;Entity55 -->
<g id="edge29" class="edge verb">
<title>Entity17&#45;&gt;Entity55</title>
<path fill="none" stroke="black" d="M2886.18,-1330.99C2979.97,-1343.29 3296.08,-1384.74 3443.88,-1404.13"/>
<polygon fill="black" stroke="black" points="3443.42,-1407.6 3453.79,-1405.43 3444.33,-1400.66 3443.42,-1407.6"/>
<text text-anchor="start" x="3101.03" y="-1371.36" font-family="Times New Roman,serif" font-size="14.00">investigates</text>
</g>
<!-- Entity54 -->
<g id="node52" class="node entity">
<title>Entity54</title>
<ellipse fill="none" stroke="black" cx="2580.5" cy="-1553.83" rx="27" ry="18"/>
<text text-anchor="start" x="2571" y="-1550.13" font-family="Times New Roman,serif" font-size="14.00">ufo</text>
</g>
<!-- Entity17&#45;&gt;Entity54 -->
<g id="edge54" class="edge verb">
<title>Entity17&#45;&gt;Entity54</title>
<path fill="none" stroke="black" d="M2841.97,-1341.64C2794.32,-1380.3 2661.85,-1487.82 2605.92,-1533.2"/>
<polygon fill="black" stroke="black" points="2603.5,-1530.66 2597.94,-1539.68 2607.91,-1536.09 2603.5,-1530.66"/>
<text text-anchor="start" x="2659.95" y="-1441.22" font-family="Times New Roman,serif" font-size="14.00">investigates</text>
</g>
<!-- Entity34 -->
<g id="node22" class="node entity">
<title>Entity34</title>
<ellipse fill="none" stroke="black" cx="1468.57" cy="-2381" rx="90.98" ry="18"/>
<text text-anchor="start" x="1406.57" y="-2377.3" font-family="Times New Roman,serif" font-size="14.00">emma hardinge&#45;britten</text>
</g>
<!-- Entity38 -->
<g id="node23" class="node entity">
<title>Entity38</title>
<ellipse fill="none" stroke="black" cx="1508.97" cy="-2273.05" rx="67.69" ry="18"/>
<text text-anchor="start" x="1464.97" y="-2269.35" font-family="Times New Roman,serif" font-size="14.00">abraham lincoln</text>
</g>
<!-- Entity34&#45;&gt;Entity38 -->
<g id="edge16" class="edge verb">
<title>Entity34&#45;&gt;Entity38</title>
<path fill="none" stroke="black" d="M1475.42,-2362.69C1481.79,-2345.68 1491.35,-2320.12 1498.64,-2300.64"/>
<polygon fill="black" stroke="black" points="1501.99,-2301.68 1502.22,-2291.09 1495.43,-2299.23 1501.99,-2301.68"/>
<text text-anchor="start" x="1408.03" y="-2335.47" font-family="Times New Roman,serif" font-size="14.00">spokesperson</text>
</g>
<!-- Entity59 -->
<g id="node35" class="node entity">
<title>Entity59</title>
<ellipse fill="none" stroke="black" cx="1967.31" cy="-2329.8" rx="85.29" ry="18"/>
<text text-anchor="start" x="1909.81" y="-2326.1" font-family="Times New Roman,serif" font-size="14.00">theosophical society</text>
</g>
<!-- Entity34&#45;&gt;Entity59 -->
<g id="edge41" class="edge verb">
<title>Entity34&#45;&gt;Entity59</title>
<path fill="none" stroke="black" d="M1549.53,-2372.69C1640.42,-2363.36 1787.35,-2348.27 1880.55,-2338.71"/>
<polygon fill="black" stroke="black" points="1880.93,-2342.19 1890.52,-2337.68 1880.22,-2335.22 1880.93,-2342.19"/>
<text text-anchor="start" x="1681.04" y="-2359.5" font-family="Times New Roman,serif" font-size="14.00">create</text>
</g>
<!-- Entity68 -->
<g id="node50" class="node entity">
<title>Entity68</title>
<ellipse fill="none" stroke="black" cx="1140.21" cy="-2884.76" rx="39.79" ry="18"/>
<text text-anchor="start" x="1117.71" y="-2881.06" font-family="Times New Roman,serif" font-size="14.00">medium</text>
</g>
<!-- Entity34&#45;&gt;Entity68 -->
<g id="edge45" class="edge verb">
<title>Entity34&#45;&gt;Entity68</title>
<path fill="none" stroke="black" d="M1456.88,-2398.93C1407.45,-2474.76 1215.44,-2769.33 1157.11,-2858.83"/>
<polygon fill="black" stroke="black" points="1154.11,-2857.02 1151.59,-2867.3 1159.98,-2860.84 1154.11,-2857.02"/>
<text text-anchor="start" x="1297" y="-2632.68" font-family="Times New Roman,serif" font-size="14.00">is</text>
</g>
<!-- Entity69 -->
<g id="node60" class="node entity">
<title>Entity69</title>
<ellipse fill="none" stroke="black" cx="1473.62" cy="-2488.98" rx="55.79" ry="18"/>
<text text-anchor="start" x="1438.62" y="-2485.28" font-family="Times New Roman,serif" font-size="14.00">orphic circle</text>
</g>
<!-- Entity34&#45;&gt;Entity69 -->
<g id="edge66" class="edge verb">
<title>Entity34&#45;&gt;Entity69</title>
<path fill="none" stroke="black" d="M1469.42,-2399.32C1470.21,-2416.17 1471.39,-2441.43 1472.3,-2460.84"/>
<polygon fill="black" stroke="black" points="1468.81,-2461.11 1472.78,-2470.94 1475.8,-2460.78 1468.81,-2461.11"/>
<text text-anchor="start" x="1424.86" y="-2433.88" font-family="Times New Roman,serif" font-size="14.00">member</text>
</g>
<!-- Entity38&#45;&gt;Entity53 -->
<g id="edge51" class="edge verb">
<title>Entity38&#45;&gt;Entity53</title>
<path fill="none" stroke="black" d="M1520.89,-2255.06C1567.98,-2184.02 1741.2,-1922.71 1796.17,-1839.78"/>
<polygon fill="black" stroke="black" points="1799.24,-1841.49 1801.84,-1831.22 1793.4,-1837.62 1799.24,-1841.49"/>
<text text-anchor="start" x="1648.53" y="-2051.22" font-family="Times New Roman,serif" font-size="14.00">is</text>
</g>
<!-- Entity40 -->
<g id="node24" class="node entity">
<title>Entity40</title>
<ellipse fill="none" stroke="black" cx="5409.91" cy="-1079.1" rx="57.69" ry="18"/>
<text text-anchor="start" x="5373.41" y="-1075.4" font-family="Times New Roman,serif" font-size="14.00">michael pane</text>
</g>
<!-- Entity40&#45;&gt;Entity56 -->
<g id="edge62" class="edge verb">
<title>Entity40&#45;&gt;Entity56</title>
<path fill="none" stroke="black" d="M5351.81,-1077.66C5257.18,-1075.3 5070.44,-1070.66 4971.97,-1068.21"/>
<polygon fill="black" stroke="black" points="4971.93,-1064.71 4961.85,-1067.96 4971.76,-1071.71 4971.93,-1064.71"/>
<text text-anchor="start" x="5107.89" y="-1076.73" font-family="Times New Roman,serif" font-size="14.00">employee</text>
</g>
<!-- Entity37 -->
<g id="node25" class="node entity">
<title>Entity37</title>
<ellipse fill="none" stroke="black" cx="5317.04" cy="-583.94" rx="74.99" ry="18"/>
<text text-anchor="start" x="5267.54" y="-580.24" font-family="Times New Roman,serif" font-size="14.00">walter dornberger</text>
</g>
<!-- Entity40&#45;&gt;Entity37 -->
<g id="edge18" class="edge verb">
<title>Entity40&#45;&gt;Entity37</title>
<path fill="none" stroke="black" d="M5406.5,-1060.89C5392.49,-986.2 5339.37,-702.97 5322.33,-612.15"/>
<polygon fill="black" stroke="black" points="5325.72,-611.24 5320.44,-602.05 5318.84,-612.53 5325.72,-611.24"/>
<text text-anchor="start" x="5310.41" y="-840.32" font-family="Times New Roman,serif" font-size="14.00">employee</text>
</g>
<!-- Entity37&#45;&gt;Entity56 -->
<g id="edge32" class="edge verb">
<title>Entity37&#45;&gt;Entity56</title>
<path fill="none" stroke="black" d="M5298.3,-601.6C5229.58,-674.78 4992.83,-953.8 4925.57,-1040.68"/>
<polygon fill="black" stroke="black" points="4922.73,-1038.64 4919.43,-1048.71 4928.28,-1042.89 4922.73,-1038.64"/>
<text text-anchor="start" x="5057.93" y="-824.94" font-family="Times New Roman,serif" font-size="14.00">employee</text>
</g>
<!-- Entity37&#45;&gt;Entity56 -->
<g id="edge42" class="edge verb">
<title>Entity37&#45;&gt;Entity56</title>
<path fill="none" stroke="black" d="M5305.21,-601.99C5249.14,-676.2 5011.1,-957.22 4932.74,-1042.19"/>
<polygon fill="black" stroke="black" points="4930.13,-1039.85 4925.88,-1049.56 4935.25,-1044.62 4930.13,-1039.85"/>
<text text-anchor="start" x="5118.97" y="-825.89" font-family="Times New Roman,serif" font-size="14.00">vice&#45;president</text>
</g>
<!-- Entity51 -->
<g id="node26" class="node entity">
<title>Entity51</title>
<ellipse fill="none" stroke="black" cx="4786.16" cy="-410.62" rx="32.49" ry="18"/>
<text text-anchor="start" x="4769.16" y="-406.92" font-family="Times New Roman,serif" font-size="14.00">nsdap</text>
</g>
<!-- Entity37&#45;&gt;Entity51 -->
<g id="edge19" class="edge verb">
<title>Entity37&#45;&gt;Entity51</title>
<path fill="none" stroke="black" d="M5272.24,-569.31C5169.63,-535.81 4919.12,-454.03 4823.81,-422.92"/>
<polygon fill="black" stroke="black" points="4824.88,-419.58 4814.29,-419.81 4822.71,-426.24 4824.88,-419.58"/>
<text text-anchor="start" x="5002.02" y="-499.92" font-family="Times New Roman,serif" font-size="14.00">member</text>
</g>
<!-- Entity72 -->
<g id="node48" class="node entity">
<title>Entity72</title>
<ellipse fill="none" stroke="black" cx="5916.79" cy="-256.22" rx="90.98" ry="18"/>
<text text-anchor="start" x="5854.79" y="-252.52" font-family="Times New Roman,serif" font-size="14.00">nsdap rocket program</text>
</g>
<!-- Entity37&#45;&gt;Entity72 -->
<g id="edge43" class="edge verb">
<title>Entity37&#45;&gt;Entity72</title>
<path fill="none" stroke="black" d="M5347.19,-567.46C5446.54,-513.18 5763.66,-339.89 5876.48,-278.25"/>
<polygon fill="black" stroke="black" points="5878.4,-281.19 5885.5,-273.32 5875.04,-275.05 5878.4,-281.19"/>
<text text-anchor="start" x="5577.83" y="-426.66" font-family="Times New Roman,serif" font-size="14.00">create</text>
</g>
<!-- Entity73 -->
<g id="node61" class="node entity">
<title>Entity73</title>
<ellipse fill="none" stroke="black" cx="5921.8" cy="-604.18" rx="65.79" ry="18"/>
<text text-anchor="start" x="5879.3" y="-600.48" font-family="Times New Roman,serif" font-size="14.00">x series aircraft</text>
</g>
<!-- Entity37&#45;&gt;Entity73 -->
<g id="edge67" class="edge verb">
<title>Entity37&#45;&gt;Entity73</title>
<path fill="none" stroke="black" d="M5391.2,-586.42C5506.93,-590.3 5729.29,-597.74 5846.02,-601.65"/>
<polygon fill="black" stroke="black" points="5846.18,-605.15 5856.29,-601.99 5846.41,-598.16 5846.18,-605.15"/>
<text text-anchor="start" x="5584.61" y="-597.83" font-family="Times New Roman,serif" font-size="14.00">create</text>
</g>
<!-- Entity74 -->
<g id="node41" class="node entity">
<title>Entity74</title>
<ellipse fill="none" stroke="black" cx="4277.52" cy="-514.7" rx="38.99" ry="18"/>
<text text-anchor="start" x="4255.52" y="-511" font-family="Times New Roman,serif" font-size="14.00">far right</text>
</g>
<!-- Entity51&#45;&gt;Entity74 -->
<g id="edge47" class="edge verb">
<title>Entity51&#45;&gt;Entity74</title>
<path fill="none" stroke="black" d="M4755.49,-416.9C4669.42,-434.51 4425.27,-484.47 4323.23,-505.34"/>
<polygon fill="black" stroke="black" points="4322.32,-501.96 4313.23,-507.39 4323.73,-508.81 4322.32,-501.96"/>
<text text-anchor="start" x="4493.36" y="-464.92" font-family="Times New Roman,serif" font-size="14.00">member</text>
</g>
<!-- Entity50 -->
<g id="node27" class="node entity">
<title>Entity50</title>
<ellipse fill="none" stroke="black" cx="2476.41" cy="-2688.25" rx="37.89" ry="18"/>
<text text-anchor="start" x="2455.41" y="-2684.55" font-family="Times New Roman,serif" font-size="14.00">hunt oil</text>
</g>
<!-- Entity48 -->
<g id="node28" class="node entity">
<title>Entity48</title>
<ellipse fill="none" stroke="black" cx="2212.9" cy="-2221.81" rx="77.99" ry="18"/>
<text text-anchor="start" x="2160.9" y="-2218.11" font-family="Times New Roman,serif" font-size="14.00">dwight eisenhower</text>
</g>
<!-- Entity50&#45;&gt;Entity48 -->
<g id="edge20" class="edge verb">
<title>Entity50&#45;&gt;Entity48</title>
<path fill="none" stroke="black" d="M2466.56,-2670.81C2426.62,-2600.11 2276.55,-2334.48 2228.09,-2248.7"/>
<polygon fill="black" stroke="black" points="2231.04,-2246.82 2223.08,-2239.84 2224.95,-2250.26 2231.04,-2246.82"/>
<text text-anchor="start" x="2321.32" y="-2463.56" font-family="Times New Roman,serif" font-size="14.00">fund</text>
</g>
<!-- Entity48&#45;&gt;Entity53 -->
<g id="edge52" class="edge verb">
<title>Entity48&#45;&gt;Entity53</title>
<path fill="none" stroke="black" d="M2195.46,-2204.04C2131.35,-2138.72 1908.72,-1911.85 1836.12,-1837.87"/>
<polygon fill="black" stroke="black" points="1838.3,-1835.09 1828.8,-1830.41 1833.3,-1840 1838.3,-1835.09"/>
<text text-anchor="start" x="2005.79" y="-2024.76" font-family="Times New Roman,serif" font-size="14.00">is</text>
</g>
<!-- Entity49 -->
<g id="node29" class="node entity">
<title>Entity49</title>
<ellipse fill="none" stroke="black" cx="5021.58" cy="-68.37" rx="49.29" ry="18"/>
<text text-anchor="start" x="4991.58" y="-64.67" font-family="Times New Roman,serif" font-size="14.00">adolf hitler</text>
</g>
<!-- Entity49&#45;&gt;Entity51 -->
<g id="edge21" class="edge verb">
<title>Entity49&#45;&gt;Entity51</title>
<path fill="none" stroke="black" d="M5009.26,-86.29C4970.22,-143.04 4849.22,-318.94 4803.71,-385.11"/>
<polygon fill="black" stroke="black" points="4800.59,-383.47 4797.8,-393.7 4806.35,-387.44 4800.59,-383.47"/>
<text text-anchor="start" x="4872.48" y="-239.5" font-family="Times New Roman,serif" font-size="14.00">create</text>
</g>
<!-- Entity46 -->
<g id="node30" class="node entity">
<title>Entity46</title>
<ellipse fill="none" stroke="black" cx="5588.14" cy="-148.26" rx="46.29" ry="18"/>
<text text-anchor="start" x="5560.64" y="-144.56" font-family="Times New Roman,serif" font-size="14.00">van braun</text>
</g>
<!-- Entity46&#45;&gt;Entity37 -->
<g id="edge22" class="edge verb">
<title>Entity46&#45;&gt;Entity37</title>
<path fill="none" stroke="black" d="M5577.18,-165.87C5535.11,-233.48 5383.89,-476.51 5333.5,-557.48"/>
<polygon fill="black" stroke="black" points="5330.45,-555.76 5328.14,-566.1 5336.4,-559.46 5330.45,-555.76"/>
<text text-anchor="start" x="5401.34" y="-365.48" font-family="Times New Roman,serif" font-size="14.00">employee</text>
</g>
<!-- Entity46&#45;&gt;Entity72 -->
<g id="edge46" class="edge verb">
<title>Entity46&#45;&gt;Entity72</title>
<path fill="none" stroke="black" d="M5623.62,-159.91C5680.34,-178.54 5791.92,-215.2 5859.88,-237.53"/>
<polygon fill="black" stroke="black" points="5858.99,-240.92 5869.58,-240.71 5861.17,-234.27 5858.99,-240.92"/>
<text text-anchor="start" x="5687.75" y="-202.52" font-family="Times New Roman,serif" font-size="14.00">employee</text>
</g>
<!-- Entity45&#45;&gt;Entity74 -->
<g id="edge33" class="edge verb">
<title>Entity45&#45;&gt;Entity74</title>
<path fill="none" stroke="black" d="M3736.75,-692.12C3842.84,-657.32 4128.52,-563.58 4235.93,-528.34"/>
<polygon fill="black" stroke="black" points="4237.05,-531.66 4245.46,-525.22 4234.86,-525.01 4237.05,-531.66"/>
<text text-anchor="start" x="3940.34" y="-614.03" font-family="Times New Roman,serif" font-size="14.00">member</text>
</g>
<!-- Entity13 -->
<g id="node32" class="node entity">
<title>Entity13</title>
<ellipse fill="none" stroke="black" cx="1531.58" cy="-1494.8" rx="58.49" ry="18"/>
<text text-anchor="start" x="1494.58" y="-1491.1" font-family="Times New Roman,serif" font-size="14.00">richard nixon</text>
</g>
<!-- Entity13&#45;&gt;Entity53 -->
<g id="edge24" class="edge verb">
<title>Entity13&#45;&gt;Entity53</title>
<path fill="none" stroke="black" d="M1547.11,-1512.44C1594.53,-1566.28 1737.52,-1728.61 1791.81,-1790.25"/>
<polygon fill="black" stroke="black" points="1789.33,-1792.73 1798.57,-1797.92 1794.59,-1788.1 1789.33,-1792.73"/>
<text text-anchor="start" x="1659.46" y="-1655.14" font-family="Times New Roman,serif" font-size="14.00">is</text>
</g>
<!-- Entity10 -->
<g id="node33" class="node entity">
<title>Entity10</title>
<ellipse fill="none" stroke="black" cx="1363.79" cy="-2043.24" rx="56.59" ry="18"/>
<text text-anchor="start" x="1328.29" y="-2039.54" font-family="Times New Roman,serif" font-size="14.00">harry truman</text>
</g>
<!-- Entity10&#45;&gt;Entity53 -->
<g id="edge25" class="edge verb">
<title>Entity10&#45;&gt;Entity53</title>
<path fill="none" stroke="black" d="M1393.96,-2027.87C1474.95,-1986.61 1696.59,-1873.67 1780.37,-1830.99"/>
<polygon fill="black" stroke="black" points="1782.11,-1834.03 1789.43,-1826.37 1778.93,-1827.79 1782.11,-1834.03"/>
<text text-anchor="start" x="1577.17" y="-1933.23" font-family="Times New Roman,serif" font-size="14.00">is</text>
</g>
<!-- Entity57 -->
<g id="node43" class="node entity">
<title>Entity57</title>
<ellipse fill="none" stroke="black" cx="913.05" cy="-2332.61" rx="55.79" ry="18"/>
<text text-anchor="start" x="878.05" y="-2328.91" font-family="Times New Roman,serif" font-size="14.00">freemasonry</text>
</g>
<!-- Entity10&#45;&gt;Entity57 -->
<g id="edge35" class="edge verb">
<title>Entity10&#45;&gt;Entity57</title>
<path fill="none" stroke="black" d="M1338.59,-2059.42C1262.31,-2108.39 1033.83,-2255.07 947.02,-2310.8"/>
<polygon fill="black" stroke="black" points="944.87,-2308.02 938.35,-2316.37 948.65,-2313.91 944.87,-2308.02"/>
<text text-anchor="start" x="1096.81" y="-2188.91" font-family="Times New Roman,serif" font-size="14.00">member</text>
</g>
<!-- Entity22 -->
<g id="node34" class="node entity">
<title>Entity22</title>
<ellipse fill="none" stroke="black" cx="1955.03" cy="-3030.96" rx="58.49" ry="18"/>
<text text-anchor="start" x="1918.03" y="-3027.26" font-family="Times New Roman,serif" font-size="14.00">rudolf steiner</text>
</g>
<!-- Entity22&#45;&gt;Entity59 -->
<g id="edge27" class="edge verb">
<title>Entity22&#45;&gt;Entity59</title>
<path fill="none" stroke="black" d="M1955.35,-3012.92C1957.01,-2917.92 1964.76,-2475.52 1966.81,-2358.34"/>
<polygon fill="black" stroke="black" points="1970.32,-2358.1 1966.99,-2348.04 1963.32,-2357.98 1970.32,-2358.1"/>
<text text-anchor="start" x="1915.08" y="-2689.43" font-family="Times New Roman,serif" font-size="14.00">member</text>
</g>
<!-- Entity60 -->
<g id="node36" class="node entity">
<title>Entity60</title>
<ellipse fill="none" stroke="black" cx="1919.38" cy="-3706.86" rx="102.08" ry="18"/>
<text text-anchor="start" x="1848.88" y="-3703.16" font-family="Times New Roman,serif" font-size="14.00">anthroposophical society</text>
</g>
<!-- Entity22&#45;&gt;Entity60 -->
<g id="edge28" class="edge verb">
<title>Entity22&#45;&gt;Entity60</title>
<path fill="none" stroke="black" d="M1954.08,-3049.04C1949.18,-3141.88 1926.86,-3565.1 1920.87,-3678.72"/>
<polygon fill="black" stroke="black" points="1917.37,-3678.55 1920.34,-3688.72 1924.36,-3678.92 1917.37,-3678.55"/>
<text text-anchor="start" x="1903.47" y="-3367.68" font-family="Times New Roman,serif" font-size="14.00">create</text>
</g>
<!-- Entity44 -->
<g id="node39" class="node entity">
<title>Entity44</title>
<ellipse fill="none" stroke="black" cx="3567.94" cy="-2276.66" rx="53.89" ry="18"/>
<text text-anchor="start" x="3534.44" y="-2272.96" font-family="Times New Roman,serif" font-size="14.00">black magic</text>
</g>
<!-- Entity71 -->
<g id="node40" class="node entity">
<title>Entity71</title>
<ellipse fill="none" stroke="black" cx="3655.66" cy="-2388.64" rx="28.7" ry="18"/>
<text text-anchor="start" x="3641.66" y="-2384.94" font-family="Times New Roman,serif" font-size="14.00">x left</text>
</g>
<!-- Entity44&#45;&gt;Entity71 -->
<g id="edge31" class="edge verb">
<title>Entity44&#45;&gt;Entity71</title>
<path fill="none" stroke="black" d="M3581.64,-2294.16C3596.45,-2313.05 3620.14,-2343.29 3636.72,-2364.45"/>
<polygon fill="black" stroke="black" points="3633.98,-2366.64 3642.9,-2372.36 3639.49,-2362.32 3633.98,-2366.64"/>
<text text-anchor="start" x="3563.18" y="-2333.11" font-family="Times New Roman,serif" font-size="14.00">member</text>
</g>
<!-- Entity14 -->
<g id="node44" class="node entity">
<title>Entity14</title>
<ellipse fill="none" stroke="black" cx="2214.46" cy="-1700.26" rx="31.4" ry="18"/>
<text text-anchor="start" x="2198.46" y="-1696.56" font-family="Times New Roman,serif" font-size="14.00">carter</text>
</g>
<!-- Entity14&#45;&gt;Entity53 -->
<g id="edge36" class="edge verb">
<title>Entity14&#45;&gt;Entity53</title>
<path fill="none" stroke="black" d="M2186.24,-1708.28C2115.55,-1728.37 1930.9,-1780.85 1850.9,-1803.58"/>
<polygon fill="black" stroke="black" points="1849.89,-1800.23 1841.23,-1806.33 1851.81,-1806.96 1849.89,-1800.23"/>
<text text-anchor="start" x="2008.57" y="-1759.73" font-family="Times New Roman,serif" font-size="14.00">is</text>
</g>
<!-- Entity14&#45;&gt;Entity54 -->
<g id="edge63" class="edge verb">
<title>Entity14&#45;&gt;Entity54</title>
<path fill="none" stroke="black" d="M2240.2,-1689.96C2305.17,-1663.97 2475.72,-1595.75 2547.7,-1566.95"/>
<polygon fill="black" stroke="black" points="2549.19,-1570.13 2557.18,-1563.16 2546.59,-1563.63 2549.19,-1570.13"/>
<text text-anchor="start" x="2351.95" y="-1632.26" font-family="Times New Roman,serif" font-size="14.00">witness</text>
</g>
<!-- Entity21 -->
<g id="node45" class="node entity">
<title>Entity21</title>
<ellipse fill="none" stroke="black" cx="1756.44" cy="-2124.07" rx="35.19" ry="18"/>
<text text-anchor="start" x="1737.44" y="-2120.37" font-family="Times New Roman,serif" font-size="14.00">obama</text>
</g>
<!-- Entity21&#45;&gt;Entity53 -->
<g id="edge37" class="edge verb">
<title>Entity21&#45;&gt;Entity53</title>
<path fill="none" stroke="black" d="M1759.72,-2106.08C1769.18,-2054.33 1796.5,-1904.82 1807.92,-1842.32"/>
<polygon fill="black" stroke="black" points="1811.38,-1842.85 1809.74,-1832.38 1804.5,-1841.59 1811.38,-1842.85"/>
<text text-anchor="start" x="1773.82" y="-1978" font-family="Times New Roman,serif" font-size="14.00">is</text>
</g>
<!-- Entity35 -->
<g id="node54" class="node entity">
<title>Entity35</title>
<ellipse fill="none" stroke="black" cx="2800.94" cy="-2276.66" rx="39.79" ry="18"/>
<text text-anchor="start" x="2778.44" y="-2272.96" font-family="Times New Roman,serif" font-size="14.00">crowley</text>
</g>
<!-- Entity70 -->
<g id="node55" class="node entity">
<title>Entity70</title>
<ellipse fill="none" stroke="black" cx="2888.66" cy="-2388.64" rx="38.99" ry="18"/>
<text text-anchor="start" x="2866.66" y="-2384.94" font-family="Times New Roman,serif" font-size="14.00">x magic</text>
</g>
<!-- Entity35&#45;&gt;Entity70 -->
<g id="edge56" class="edge verb">
<title>Entity35&#45;&gt;Entity70</title>
<path fill="none" stroke="black" d="M2814.26,-2293.67C2828.82,-2312.25 2852.28,-2342.2 2868.96,-2363.49"/>
<polygon fill="black" stroke="black" points="2866.29,-2365.76 2875.21,-2371.47 2871.8,-2361.44 2866.29,-2365.76"/>
<text text-anchor="start" x="2795.61" y="-2332.38" font-family="Times New Roman,serif" font-size="14.00">member</text>
</g>
<!-- Entity24 -->
<g id="node56" class="node entity">
<title>Entity24</title>
<ellipse fill="none" stroke="black" cx="2020.53" cy="-2437.83" rx="73.39" ry="18"/>
<text text-anchor="start" x="1972.03" y="-2434.13" font-family="Times New Roman,serif" font-size="14.00">madam blavatsky</text>
</g>
<!-- Entity24&#45;&gt;Entity59 -->
<g id="edge59" class="edge verb">
<title>Entity24&#45;&gt;Entity59</title>
<path fill="none" stroke="black" d="M2011.5,-2419.51C2003.04,-2402.33 1990.29,-2376.44 1980.65,-2356.88"/>
<polygon fill="black" stroke="black" points="1983.76,-2355.28 1976.21,-2347.86 1977.49,-2358.37 1983.76,-2355.28"/>
<text text-anchor="start" x="1962.08" y="-2391.99" font-family="Times New Roman,serif" font-size="14.00">create</text>
</g>
<!-- Entity31 -->
<g id="node57" class="node entity">
<title>Entity31</title>
<ellipse fill="none" stroke="black" cx="69.5" cy="-88.32" rx="69.59" ry="18"/>
<text text-anchor="start" x="24" y="-84.62" font-family="Times New Roman,serif" font-size="14.00">andrew breitbart</text>
</g>
<!-- Entity31&#45;&gt;Entity65 -->
<g id="edge61" class="edge verb">
<title>Entity31&#45;&gt;Entity65</title>
<path fill="none" stroke="black" d="M99.18,-104.63C186.89,-152.83 444.82,-294.54 542.48,-348.21"/>
<polygon fill="black" stroke="black" points="540.98,-351.37 551.43,-353.12 544.35,-345.24 540.98,-351.37"/>
<text text-anchor="start" x="286.83" y="-230.22" font-family="Times New Roman,serif" font-size="14.00">create</text>
</g>
</g>
</svg>
