<?xml version="1.0" encoding="UTF-8" standalone="no"?>
<?xml-stylesheet href="../styles.css" type="text/css"?>
<!DOCTYPE svg PUBLIC "-//W3C//DTD SVG 1.1//EN"
 "http://www.w3.org/Graphics/SVG/1.1/DTD/svg11.dtd">
<!-- Generated by graphviz version 2.47.3 (20210619.1520)
 -->
<!-- Title: G Pages: 1 -->
<svg width="5125pt" height="3722pt"
 viewBox="0.00 0.00 5125.00 3722.00" xmlns="http://www.w3.org/2000/svg" xmlns:xlink="http://www.w3.org/1999/xlink">
<g id="graph0" class="graph" transform="scale(1 1) rotate(0) translate(4 3718)">
<title>G</title>
<polygon fill="white" stroke="transparent" points="-4,4 -4,-3718 5121,-3718 5121,4 -4,4"/>
<!-- Entity5 -->
<g id="node1" class="node entity">
<title>Entity5</title>
<ellipse fill="none" stroke="black" cx="1161.61" cy="-2150.76" rx="75.29" ry="18"/>
<text text-anchor="start" x="1111.61" y="-2147.06" font-family="Times New Roman,serif" font-size="14.00">lee harvey oswald</text>
</g>
<!-- Entity7 -->
<g id="node2" class="node entity">
<title>Entity7</title>
<ellipse fill="none" stroke="black" cx="1925.24" cy="-2339.04" rx="64.19" ry="18"/>
<text text-anchor="start" x="1883.74" y="-2335.34" font-family="Times New Roman,serif" font-size="14.00">john f kennedy</text>
</g>
<!-- Entity5&#45;&gt;Entity7 -->
<g id="edge1" class="edge verb">
<title>Entity5&#45;&gt;Entity7</title>
<path fill="none" stroke="black" d="M1214.1,-2163.7C1351.81,-2197.66 1722.79,-2289.12 1866.89,-2324.65"/>
<polygon fill="black" stroke="black" points="1866.32,-2328.12 1876.86,-2327.11 1867.99,-2321.32 1866.32,-2328.12"/>
<text text-anchor="start" x="1478.49" y="-2247.98" font-family="Times New Roman,serif" font-size="14.00">assassinate</text>
</g>
<!-- Entity45 -->
<g id="node14" class="node entity">
<title>Entity45</title>
<ellipse fill="none" stroke="black" cx="472.51" cy="-1840.09" rx="59.29" ry="18"/>
<text text-anchor="start" x="435.01" y="-1836.39" font-family="Times New Roman,serif" font-size="14.00">guy bannister</text>
</g>
<!-- Entity5&#45;&gt;Entity45 -->
<g id="edge9" class="edge verb">
<title>Entity5&#45;&gt;Entity45</title>
<path fill="none" stroke="black" d="M1126.01,-2134.71C1009.71,-2082.28 641.16,-1916.12 515.2,-1859.34"/>
<polygon fill="black" stroke="black" points="516.41,-1856.04 505.86,-1855.12 513.53,-1862.42 516.41,-1856.04"/>
<text text-anchor="start" x="766.61" y="-2000.82" font-family="Times New Roman,serif" font-size="14.00">employee</text>
</g>
<!-- Entity53 -->
<g id="node13" class="node entity">
<title>Entity53</title>
<ellipse fill="none" stroke="black" cx="2581.44" cy="-2393.24" rx="31.4" ry="18"/>
<text text-anchor="start" x="2565.44" y="-2389.54" font-family="Times New Roman,serif" font-size="14.00">potus</text>
</g>
<!-- Entity7&#45;&gt;Entity53 -->
<g id="edge41" class="edge verb">
<title>Entity7&#45;&gt;Entity53</title>
<path fill="none" stroke="black" d="M1986.97,-2344.14C2119.57,-2355.09 2428.58,-2380.62 2540.25,-2389.84"/>
<polygon fill="black" stroke="black" points="2540.17,-2393.35 2550.43,-2390.68 2540.75,-2386.37 2540.17,-2393.35"/>
<text text-anchor="start" x="2253.61" y="-2370.79" font-family="Times New Roman,serif" font-size="14.00">is</text>
</g>
<!-- Entity2 -->
<g id="node3" class="node entity">
<title>Entity2</title>
<ellipse fill="none" stroke="black" cx="3986.06" cy="-313.43" rx="64.19" ry="18"/>
<text text-anchor="start" x="3944.56" y="-309.73" font-family="Times New Roman,serif" font-size="14.00">andre puharich</text>
</g>
<!-- Entity1 -->
<g id="node4" class="node entity">
<title>Entity1</title>
<ellipse fill="none" stroke="black" cx="3637.8" cy="-675.33" rx="41.69" ry="18"/>
<text text-anchor="start" x="3613.8" y="-671.63" font-family="Times New Roman,serif" font-size="14.00">uri geller</text>
</g>
<!-- Entity2&#45;&gt;Entity1 -->
<g id="edge2" class="edge verb">
<title>Entity2&#45;&gt;Entity1</title>
<path fill="none" stroke="black" d="M3969.27,-330.89C3912.36,-390.03 3726.73,-582.92 3661.07,-651.15"/>
<polygon fill="black" stroke="black" points="3658.44,-648.84 3654.03,-658.47 3663.48,-653.69 3658.44,-648.84"/>
<text text-anchor="start" x="3763.17" y="-494.82" font-family="Times New Roman,serif" font-size="14.00">sponsore</text>
</g>
<!-- Entity9 -->
<g id="node8" class="node entity">
<title>Entity9</title>
<ellipse fill="none" stroke="black" cx="3187.99" cy="-831.3" rx="38.19" ry="18"/>
<text text-anchor="start" x="3166.49" y="-827.6" font-family="Times New Roman,serif" font-size="14.00">the nine</text>
</g>
<!-- Entity1&#45;&gt;Entity9 -->
<g id="edge10" class="edge verb">
<title>Entity1&#45;&gt;Entity9</title>
<path fill="none" stroke="black" d="M3605.09,-686.67C3524.6,-714.58 3317.06,-786.54 3228.75,-817.16"/>
<polygon fill="black" stroke="black" points="3227.38,-813.93 3219.08,-820.52 3229.67,-820.55 3227.38,-813.93"/>
<text text-anchor="start" x="3312.92" y="-755.72" font-family="Times New Roman,serif" font-size="14.00">claiemd to channel</text>
</g>
<!-- Entity10 -->
<g id="node5" class="node entity">
<title>Entity10</title>
<ellipse fill="none" stroke="black" cx="2567.22" cy="-2617.87" rx="56.59" ry="18"/>
<text text-anchor="start" x="2531.72" y="-2614.17" font-family="Times New Roman,serif" font-size="14.00">harry truman</text>
</g>
<!-- Entity57 -->
<g id="node6" class="node entity">
<title>Entity57</title>
<ellipse fill="none" stroke="black" cx="2527.27" cy="-2733.09" rx="55.79" ry="18"/>
<text text-anchor="start" x="2492.27" y="-2729.39" font-family="Times New Roman,serif" font-size="14.00">freemasonry</text>
</g>
<!-- Entity10&#45;&gt;Entity57 -->
<g id="edge3" class="edge verb">
<title>Entity10&#45;&gt;Entity57</title>
<path fill="none" stroke="black" d="M2560.98,-2635.87C2554.54,-2654.45 2544.4,-2683.67 2536.93,-2705.24"/>
<polygon fill="black" stroke="black" points="2533.57,-2704.23 2533.6,-2714.83 2540.19,-2706.53 2533.57,-2704.23"/>
<text text-anchor="start" x="2502.95" y="-2674.35" font-family="Times New Roman,serif" font-size="14.00">member</text>
</g>
<!-- Entity10&#45;&gt;Entity53 -->
<g id="edge15" class="edge verb">
<title>Entity10&#45;&gt;Entity53</title>
<path fill="none" stroke="black" d="M2568.36,-2599.86C2570.83,-2560.84 2576.69,-2468.23 2579.66,-2421.4"/>
<polygon fill="black" stroke="black" points="2583.15,-2421.53 2580.29,-2411.33 2576.17,-2421.09 2583.15,-2421.53"/>
<text text-anchor="start" x="2564.01" y="-2514.43" font-family="Times New Roman,serif" font-size="14.00">is</text>
</g>
<!-- Entity3 -->
<g id="node7" class="node entity">
<title>Entity3</title>
<ellipse fill="none" stroke="black" cx="2667.61" cy="-757.7" rx="65.79" ry="18"/>
<text text-anchor="start" x="2625.11" y="-754" font-family="Times New Roman,serif" font-size="14.00">arthur m young</text>
</g>
<!-- Entity3&#45;&gt;Entity9 -->
<g id="edge4" class="edge verb">
<title>Entity3&#45;&gt;Entity9</title>
<path fill="none" stroke="black" d="M2726.04,-765.96C2830.18,-780.69 3045.85,-811.19 3141.06,-824.66"/>
<polygon fill="black" stroke="black" points="3140.59,-828.13 3150.98,-826.06 3141.57,-821.2 3140.59,-828.13"/>
<text text-anchor="start" x="2887.55" y="-799.11" font-family="Times New Roman,serif" font-size="14.00">member</text>
</g>
<!-- Entity55 -->
<g id="node11" class="node entity">
<title>Entity55</title>
<ellipse fill="none" stroke="black" cx="3269.62" cy="-1214.58" rx="77.19" ry="18"/>
<text text-anchor="start" x="3218.12" y="-1210.88" font-family="Times New Roman,serif" font-size="14.00">psi&#45;consciousness</text>
</g>
<!-- Entity3&#45;&gt;Entity55 -->
<g id="edge17" class="edge verb">
<title>Entity3&#45;&gt;Entity55</title>
<path fill="none" stroke="black" d="M2690.11,-774.78C2782.39,-844.81 3131.96,-1110.1 3238.57,-1191.01"/>
<polygon fill="black" stroke="black" points="3236.6,-1193.91 3246.68,-1197.17 3240.83,-1188.34 3236.6,-1193.91"/>
<text text-anchor="start" x="2933.34" y="-986.69" font-family="Times New Roman,serif" font-size="14.00">study</text>
</g>
<!-- Entity56 -->
<g id="node39" class="node entity">
<title>Entity56</title>
<ellipse fill="none" stroke="black" cx="1999.86" cy="-540.47" rx="53.89" ry="18"/>
<text text-anchor="start" x="1966.36" y="-536.77" font-family="Times New Roman,serif" font-size="14.00">bell aviation</text>
</g>
<!-- Entity3&#45;&gt;Entity56 -->
<g id="edge35" class="edge verb">
<title>Entity3&#45;&gt;Entity56</title>
<path fill="none" stroke="black" d="M2625.08,-743.86C2506.63,-705.33 2173.46,-596.94 2048.24,-556.21"/>
<polygon fill="black" stroke="black" points="2049.13,-552.82 2038.53,-553.05 2046.96,-559.47 2049.13,-552.82"/>
<text text-anchor="start" x="2302.66" y="-653.84" font-family="Times New Roman,serif" font-size="14.00">create</text>
</g>
<!-- Entity52 -->
<g id="node9" class="node entity">
<title>Entity52</title>
<ellipse fill="none" stroke="black" cx="3378.04" cy="-263.18" rx="94.48" ry="18"/>
<text text-anchor="start" x="3313.54" y="-259.48" font-family="Times New Roman,serif" font-size="14.00">egyptian gods in a ship</text>
</g>
<!-- Entity9&#45;&gt;Entity52 -->
<g id="edge5" class="edge verb">
<title>Entity9&#45;&gt;Entity52</title>
<path fill="none" stroke="black" d="M3193.99,-813.36C3221.44,-731.29 3335.15,-391.38 3368.69,-291.13"/>
<polygon fill="black" stroke="black" points="3372.08,-292.01 3371.94,-281.41 3365.45,-289.79 3372.08,-292.01"/>
<text text-anchor="start" x="3251.34" y="-556.04" font-family="Times New Roman,serif" font-size="14.00">claim</text>
</g>
<!-- Entity6 -->
<g id="node10" class="node entity">
<title>Entity6</title>
<ellipse fill="none" stroke="black" cx="3846.07" cy="-1134.24" rx="68.49" ry="18"/>
<text text-anchor="start" x="3801.57" y="-1130.54" font-family="Times New Roman,serif" font-size="14.00">jeffrey mishlove</text>
</g>
<!-- Entity6&#45;&gt;Entity1 -->
<g id="edge6" class="edge verb">
<title>Entity6&#45;&gt;Entity1</title>
<path fill="none" stroke="black" d="M3837.9,-1116.25C3805.86,-1045.64 3688.55,-787.14 3650.1,-702.42"/>
<polygon fill="black" stroke="black" points="3653.23,-700.86 3645.91,-693.2 3646.86,-703.75 3653.23,-700.86"/>
<text text-anchor="start" x="3696" y="-913.14" font-family="Times New Roman,serif" font-size="14.00">promote</text>
</g>
<!-- Entity6&#45;&gt;Entity55 -->
<g id="edge7" class="edge verb">
<title>Entity6&#45;&gt;Entity55</title>
<path fill="none" stroke="black" d="M3779.89,-1138.95C3669.3,-1151.32 3448.15,-1182.12 3336.86,-1200.62"/>
<polygon fill="black" stroke="black" points="3336.05,-1197.21 3326.77,-1202.32 3337.21,-1204.11 3336.05,-1197.21"/>
<text text-anchor="start" x="3527.37" y="-1173.58" font-family="Times New Roman,serif" font-size="14.00">study</text>
</g>
<!-- Entity6&#45;&gt;Entity55 -->
<g id="edge22" class="edge verb">
<title>Entity6&#45;&gt;Entity55</title>
<path fill="none" stroke="black" d="M3793.44,-1145.73C3693.17,-1162.96 3474.03,-1193.77 3353.39,-1207.86"/>
<polygon fill="black" stroke="black" points="3352.99,-1204.38 3343.46,-1209.01 3353.79,-1211.34 3352.99,-1204.38"/>
<text text-anchor="start" x="3573.42" y="-1180.6" font-family="Times New Roman,serif" font-size="14.00">investigates</text>
</g>
<!-- Entity13 -->
<g id="node12" class="node entity">
<title>Entity13</title>
<ellipse fill="none" stroke="black" cx="2418.56" cy="-2848.91" rx="58.49" ry="18"/>
<text text-anchor="start" x="2381.56" y="-2845.21" font-family="Times New Roman,serif" font-size="14.00">richard nixon</text>
</g>
<!-- Entity13&#45;&gt;Entity53 -->
<g id="edge8" class="edge verb">
<title>Entity13&#45;&gt;Entity53</title>
<path fill="none" stroke="black" d="M2425.05,-2830.77C2450.21,-2760.37 2541.46,-2505.08 2571.66,-2420.6"/>
<polygon fill="black" stroke="black" points="2575.04,-2421.54 2575.11,-2410.95 2568.45,-2419.18 2575.04,-2421.54"/>
<text text-anchor="start" x="2488.35" y="-2629.48" font-family="Times New Roman,serif" font-size="14.00">is</text>
</g>
<!-- Entity74 -->
<g id="node61" class="node entity">
<title>Entity74</title>
<ellipse fill="none" stroke="black" cx="515.61" cy="-1265.09" rx="38.99" ry="18"/>
<text text-anchor="start" x="493.61" y="-1261.39" font-family="Times New Roman,serif" font-size="14.00">far right</text>
</g>
<!-- Entity45&#45;&gt;Entity74 -->
<g id="edge66" class="edge verb">
<title>Entity45&#45;&gt;Entity74</title>
<path fill="none" stroke="black" d="M473.87,-1821.93C480.09,-1738.86 505.89,-1394.78 513.49,-1293.35"/>
<polygon fill="black" stroke="black" points="516.99,-1293.49 514.25,-1283.25 510.01,-1292.96 516.99,-1293.49"/>
<text text-anchor="start" x="447.68" y="-1561.44" font-family="Times New Roman,serif" font-size="14.00">member</text>
</g>
<!-- Entity4 -->
<g id="node15" class="node entity">
<title>Entity4</title>
<ellipse fill="none" stroke="black" cx="3207.74" cy="-722.75" rx="74.99" ry="18"/>
<text text-anchor="start" x="3158.24" y="-719.05" font-family="Times New Roman,serif" font-size="14.00">gene roddenberry</text>
</g>
<!-- Entity4&#45;&gt;Entity9 -->
<g id="edge11" class="edge verb">
<title>Entity4&#45;&gt;Entity9</title>
<path fill="none" stroke="black" d="M3204.39,-741.17C3201.29,-758.19 3196.65,-783.73 3193.09,-803.28"/>
<polygon fill="black" stroke="black" points="3189.64,-802.69 3191.29,-813.16 3196.52,-803.94 3189.64,-802.69"/>
<text text-anchor="start" x="3094.74" y="-776.02" font-family="Times New Roman,serif" font-size="14.00">claiemd to channel</text>
</g>
<!-- Entity21 -->
<g id="node16" class="node entity">
<title>Entity21</title>
<ellipse fill="none" stroke="black" cx="2808.83" cy="-2730.18" rx="35.19" ry="18"/>
<text text-anchor="start" x="2789.83" y="-2726.48" font-family="Times New Roman,serif" font-size="14.00">obama</text>
</g>
<!-- Entity21&#45;&gt;Entity53 -->
<g id="edge12" class="edge verb">
<title>Entity21&#45;&gt;Entity53</title>
<path fill="none" stroke="black" d="M2797.24,-2713.01C2759.99,-2657.81 2643.14,-2484.68 2598.77,-2418.92"/>
<polygon fill="black" stroke="black" points="2601.5,-2416.71 2593,-2410.38 2595.7,-2420.63 2601.5,-2416.71"/>
<text text-anchor="start" x="2688" y="-2569.77" font-family="Times New Roman,serif" font-size="14.00">is</text>
</g>
<!-- Entity14 -->
<g id="node17" class="node entity">
<title>Entity14</title>
<ellipse fill="none" stroke="black" cx="2969.61" cy="-2257.7" rx="31.4" ry="18"/>
<text text-anchor="start" x="2953.61" y="-2254" font-family="Times New Roman,serif" font-size="14.00">carter</text>
</g>
<!-- Entity14&#45;&gt;Entity53 -->
<g id="edge36" class="edge verb">
<title>Entity14&#45;&gt;Entity53</title>
<path fill="none" stroke="black" d="M2942.62,-2267.13C2874.5,-2290.91 2695.52,-2353.41 2618.05,-2380.46"/>
<polygon fill="black" stroke="black" points="2616.53,-2377.28 2608.25,-2383.88 2618.84,-2383.89 2616.53,-2377.28"/>
<text text-anchor="start" x="2770.33" y="-2327.59" font-family="Times New Roman,serif" font-size="14.00">is</text>
</g>
<!-- Entity54 -->
<g id="node18" class="node entity">
<title>Entity54</title>
<ellipse fill="none" stroke="black" cx="3267.75" cy="-2044.02" rx="27" ry="18"/>
<text text-anchor="start" x="3258.25" y="-2040.32" font-family="Times New Roman,serif" font-size="14.00">ufo</text>
</g>
<!-- Entity14&#45;&gt;Entity54 -->
<g id="edge13" class="edge verb">
<title>Entity14&#45;&gt;Entity54</title>
<path fill="none" stroke="black" d="M2989.63,-2243.35C3041.79,-2205.97 3181.87,-2105.57 3240.92,-2063.25"/>
<polygon fill="black" stroke="black" points="3243.26,-2065.88 3249.35,-2057.21 3239.18,-2060.19 3243.26,-2065.88"/>
<text text-anchor="start" x="3073.28" y="-2157.1" font-family="Times New Roman,serif" font-size="14.00">witness</text>
</g>
<!-- Entity18 -->
<g id="node19" class="node entity">
<title>Entity18</title>
<ellipse fill="none" stroke="black" cx="2182.94" cy="-2229.71" rx="63.89" ry="18"/>
<text text-anchor="start" x="2141.94" y="-2226.01" font-family="Times New Roman,serif" font-size="14.00">george w bush</text>
</g>
<!-- Entity18&#45;&gt;Entity53 -->
<g id="edge14" class="edge verb">
<title>Entity18&#45;&gt;Entity53</title>
<path fill="none" stroke="black" d="M2219.36,-2244.65C2295.67,-2275.97 2471.47,-2348.11 2546.48,-2378.9"/>
<polygon fill="black" stroke="black" points="2545.38,-2382.23 2555.96,-2382.79 2548.04,-2375.75 2545.38,-2382.23"/>
<text text-anchor="start" x="2372.92" y="-2315.58" font-family="Times New Roman,serif" font-size="14.00">is</text>
</g>
<!-- Entity11 -->
<g id="node20" class="node entity">
<title>Entity11</title>
<ellipse fill="none" stroke="black" cx="2652.37" cy="-2034.47" rx="68.49" ry="18"/>
<text text-anchor="start" x="2607.87" y="-2030.77" font-family="Times New Roman,serif" font-size="14.00">george hw bush</text>
</g>
<!-- Entity11&#45;&gt;Entity53 -->
<g id="edge39" class="edge verb">
<title>Entity11&#45;&gt;Entity53</title>
<path fill="none" stroke="black" d="M2648.76,-2052.76C2637.18,-2111.3 2600.99,-2294.38 2587.02,-2365.04"/>
<polygon fill="black" stroke="black" points="2583.55,-2364.51 2585.05,-2375 2590.42,-2365.87 2583.55,-2364.51"/>
<text text-anchor="start" x="2607.89" y="-2212.7" font-family="Times New Roman,serif" font-size="14.00">is</text>
</g>
<!-- Entity11&#45;&gt;Entity18 -->
<g id="edge16" class="edge verb">
<title>Entity11&#45;&gt;Entity18</title>
<path fill="none" stroke="black" d="M2615.54,-2049.79C2530.58,-2085.13 2321.08,-2172.26 2228.35,-2210.82"/>
<polygon fill="black" stroke="black" points="2226.85,-2207.66 2218.96,-2214.73 2229.54,-2214.12 2226.85,-2207.66"/>
<text text-anchor="start" x="2389.95" y="-2134.11" font-family="Times New Roman,serif" font-size="14.00">father</text>
</g>
<!-- Entity17 -->
<g id="node21" class="node entity">
<title>Entity17</title>
<ellipse fill="none" stroke="black" cx="3452.91" cy="-1767.06" rx="27" ry="18"/>
<text text-anchor="start" x="3444.91" y="-1763.36" font-family="Times New Roman,serif" font-size="14.00">cia</text>
</g>
<!-- Entity17&#45;&gt;Entity55 -->
<g id="edge18" class="edge verb">
<title>Entity17&#45;&gt;Entity55</title>
<path fill="none" stroke="black" d="M3447.02,-1749.3C3420.41,-1669.11 3311.36,-1340.39 3278.82,-1242.32"/>
<polygon fill="black" stroke="black" points="3282.05,-1240.93 3275.58,-1232.54 3275.41,-1243.14 3282.05,-1240.93"/>
<text text-anchor="start" x="3298.92" y="-1499.61" font-family="Times New Roman,serif" font-size="14.00">investigates</text>
</g>
<!-- Entity17&#45;&gt;Entity54 -->
<g id="edge38" class="edge verb">
<title>Entity17&#45;&gt;Entity54</title>
<path fill="none" stroke="black" d="M3441.88,-1783.55C3410.76,-1830.11 3322.09,-1962.74 3284.7,-2018.66"/>
<polygon fill="black" stroke="black" points="3281.6,-2017 3278.96,-2027.26 3287.42,-2020.89 3281.6,-2017"/>
<text text-anchor="start" x="3299.29" y="-1904.91" font-family="Times New Roman,serif" font-size="14.00">investigates</text>
</g>
<!-- Entity16 -->
<g id="node22" class="node entity">
<title>Entity16</title>
<ellipse fill="none" stroke="black" cx="3859.14" cy="-1242.33" rx="63.89" ry="18"/>
<text text-anchor="start" x="3818.14" y="-1238.63" font-family="Times New Roman,serif" font-size="14.00">robert bigelow</text>
</g>
<!-- Entity16&#45;&gt;Entity6 -->
<g id="edge19" class="edge verb">
<title>Entity16&#45;&gt;Entity6</title>
<path fill="none" stroke="black" d="M3856.92,-1223.99C3854.88,-1207.12 3851.82,-1181.85 3849.47,-1162.41"/>
<polygon fill="black" stroke="black" points="3852.93,-1161.82 3848.25,-1152.31 3845.98,-1162.66 3852.93,-1161.82"/>
<text text-anchor="start" x="3821.2" y="-1197" font-family="Times New Roman,serif" font-size="14.00">funds</text>
</g>
<!-- Entity16&#45;&gt;Entity55 -->
<g id="edge21" class="edge verb">
<title>Entity16&#45;&gt;Entity55</title>
<path fill="none" stroke="black" d="M3796.05,-1239.36C3689.98,-1234.37 3475.8,-1224.28 3355.9,-1218.64"/>
<polygon fill="black" stroke="black" points="3355.81,-1215.13 3345.66,-1218.16 3355.48,-1222.12 3355.81,-1215.13"/>
<text text-anchor="start" x="3511.97" y="-1232.8" font-family="Times New Roman,serif" font-size="14.00">investigates</text>
</g>
<!-- Entity25 -->
<g id="node23" class="node entity">
<title>Entity25</title>
<ellipse fill="none" stroke="black" cx="3859.12" cy="-3178.95" rx="58.49" ry="18"/>
<text text-anchor="start" x="3822.12" y="-3175.25" font-family="Times New Roman,serif" font-size="14.00">steve bannon</text>
</g>
<!-- Entity61 -->
<g id="node24" class="node entity">
<title>Entity61</title>
<ellipse fill="none" stroke="black" cx="4001.6" cy="-3587.51" rx="35.19" ry="18"/>
<text text-anchor="start" x="3982.6" y="-3583.81" font-family="Times New Roman,serif" font-size="14.00">gurgev</text>
</g>
<!-- Entity25&#45;&gt;Entity61 -->
<g id="edge20" class="edge verb">
<title>Entity25&#45;&gt;Entity61</title>
<path fill="none" stroke="black" d="M3865.43,-3197.04C3888,-3261.77 3964.89,-3482.24 3992.03,-3560.05"/>
<polygon fill="black" stroke="black" points="3988.77,-3561.35 3995.37,-3569.64 3995.38,-3559.05 3988.77,-3561.35"/>
<text text-anchor="start" x="3897.73" y="-3382.34" font-family="Times New Roman,serif" font-size="14.00">study</text>
</g>
<!-- Entity8 -->
<g id="node25" class="node entity">
<title>Entity8</title>
<ellipse fill="none" stroke="black" cx="3237.95" cy="-2680.65" rx="59.59" ry="18"/>
<text text-anchor="start" x="3199.95" y="-2676.95" font-family="Times New Roman,serif" font-size="14.00">donald trump</text>
</g>
<!-- Entity25&#45;&gt;Entity8 -->
<g id="edge23" class="edge verb">
<title>Entity25&#45;&gt;Entity8</title>
<path fill="none" stroke="black" d="M3841.44,-3161.51C3755.9,-3085.98 3385.07,-2788.23 3271.26,-2703.3"/>
<polygon fill="black" stroke="black" points="3273.01,-2700.25 3262.89,-2697.1 3268.84,-2705.87 3273.01,-2700.25"/>
<text text-anchor="start" x="3508.35" y="-2921.2" font-family="Times New Roman,serif" font-size="14.00">promote</text>
</g>
<!-- Entity25&#45;&gt;Entity8 -->
<g id="edge29" class="edge verb">
<title>Entity25&#45;&gt;Entity8</title>
<path fill="none" stroke="black" d="M3834.17,-3162.49C3734.18,-3088.99 3363.5,-2791.72 3263.12,-2704.65"/>
<polygon fill="black" stroke="black" points="3265.4,-2701.99 3255.57,-2698.05 3260.79,-2707.26 3265.4,-2701.99"/>
<text text-anchor="start" x="3512.64" y="-2937.37" font-family="Times New Roman,serif" font-size="14.00">advise</text>
</g>
<!-- Entity65 -->
<g id="node48" class="node entity">
<title>Entity65</title>
<ellipse fill="none" stroke="black" cx="4468.12" cy="-3194.7" rx="61.99" ry="18"/>
<text text-anchor="start" x="4428.62" y="-3191" font-family="Times New Roman,serif" font-size="14.00">breitbart news</text>
</g>
<!-- Entity25&#45;&gt;Entity65 -->
<g id="edge52" class="edge verb">
<title>Entity25&#45;&gt;Entity65</title>
<path fill="none" stroke="black" d="M3917.51,-3180.46C4029.46,-3183.36 4273.98,-3189.68 4395.94,-3192.83"/>
<polygon fill="black" stroke="black" points="4396.2,-3196.34 4406.29,-3193.1 4396.38,-3189.34 4396.2,-3196.34"/>
<text text-anchor="start" x="4122.73" y="-3190.45" font-family="Times New Roman,serif" font-size="14.00">create</text>
</g>
<!-- Entity63 -->
<g id="node49" class="node entity">
<title>Entity63</title>
<ellipse fill="none" stroke="black" cx="3820.9" cy="-3695.6" rx="53.09" ry="18"/>
<text text-anchor="start" x="3787.9" y="-3691.9" font-family="Times New Roman,serif" font-size="14.00">biosphere 2</text>
</g>
<!-- Entity25&#45;&gt;Entity63 -->
<g id="edge47" class="edge verb">
<title>Entity25&#45;&gt;Entity63</title>
<path fill="none" stroke="black" d="M3857.78,-3197.04C3852.1,-3273.83 3829.95,-3573.26 3823,-3667.23"/>
<polygon fill="black" stroke="black" points="3819.49,-3667.16 3822.25,-3677.4 3826.47,-3667.68 3819.49,-3667.16"/>
<text text-anchor="start" x="3806.39" y="-3435.93" font-family="Times New Roman,serif" font-size="14.00">create</text>
</g>
<!-- Entity77 -->
<g id="node50" class="node entity">
<title>Entity77</title>
<ellipse fill="none" stroke="black" cx="4305.62" cy="-3494.17" rx="64.99" ry="18"/>
<text text-anchor="start" x="4263.62" y="-3490.47" font-family="Times New Roman,serif" font-size="14.00">goldman sachs</text>
</g>
<!-- Entity25&#45;&gt;Entity77 -->
<g id="edge49" class="edge verb">
<title>Entity25&#45;&gt;Entity77</title>
<path fill="none" stroke="black" d="M3882.5,-3195.46C3956.83,-3247.94 4187.89,-3411.05 4273.38,-3471.41"/>
<polygon fill="black" stroke="black" points="4271.48,-3474.35 4281.66,-3477.26 4275.51,-3468.63 4271.48,-3474.35"/>
<text text-anchor="start" x="4023.94" y="-3337.23" font-family="Times New Roman,serif" font-size="14.00">employee</text>
</g>
<!-- Entity64 -->
<g id="node53" class="node entity">
<title>Entity64</title>
<ellipse fill="none" stroke="black" cx="4267.65" cy="-3307.05" rx="38.19" ry="18"/>
<text text-anchor="start" x="4246.15" y="-3303.35" font-family="Times New Roman,serif" font-size="14.00">us navy</text>
</g>
<!-- Entity25&#45;&gt;Entity64 -->
<g id="edge54" class="edge verb">
<title>Entity25&#45;&gt;Entity64</title>
<path fill="none" stroke="black" d="M3900.16,-3191.82C3978.26,-3216.31 4147.47,-3269.36 4226.02,-3293.99"/>
<polygon fill="black" stroke="black" points="4225,-3297.34 4235.59,-3296.99 4227.1,-3290.66 4225,-3297.34"/>
<text text-anchor="start" x="4017.09" y="-3246.71" font-family="Times New Roman,serif" font-size="14.00">member</text>
</g>
<!-- Entity76 -->
<g id="node54" class="node entity">
<title>Entity76</title>
<ellipse fill="none" stroke="black" cx="4341" cy="-3616.95" rx="77.19" ry="18"/>
<text text-anchor="start" x="4289.5" y="-3613.25" font-family="Times New Roman,serif" font-size="14.00">hollywood movies</text>
</g>
<!-- Entity25&#45;&gt;Entity76 -->
<g id="edge55" class="edge verb">
<title>Entity25&#45;&gt;Entity76</title>
<path fill="none" stroke="black" d="M3878.01,-3196.12C3952.59,-3263.92 4226.78,-3513.13 4314.1,-3592.5"/>
<polygon fill="black" stroke="black" points="4311.97,-3595.29 4321.72,-3599.43 4316.67,-3590.11 4311.97,-3595.29"/>
<text text-anchor="start" x="4049.05" y="-3398.11" font-family="Times New Roman,serif" font-size="14.00">produce</text>
</g>
<!-- Entity8&#45;&gt;Entity53 -->
<g id="edge43" class="edge verb">
<title>Entity8&#45;&gt;Entity53</title>
<path fill="none" stroke="black" d="M3204.04,-2665.8C3091.14,-2616.38 2728.78,-2457.75 2615.57,-2408.19"/>
<polygon fill="black" stroke="black" points="2616.88,-2404.94 2606.32,-2404.14 2614.07,-2411.35 2616.88,-2404.94"/>
<text text-anchor="start" x="2899.8" y="-2540.79" font-family="Times New Roman,serif" font-size="14.00">is</text>
</g>
<!-- Entity30 -->
<g id="node28" class="node entity">
<title>Entity30</title>
<ellipse fill="none" stroke="black" cx="3587.13" cy="-2217.77" rx="50.09" ry="18"/>
<text text-anchor="start" x="3556.63" y="-2214.07" font-family="Times New Roman,serif" font-size="14.00">john trump</text>
</g>
<!-- Entity8&#45;&gt;Entity30 -->
<g id="edge25" class="edge verb">
<title>Entity8&#45;&gt;Entity30</title>
<path fill="none" stroke="black" d="M3251.21,-2663.07C3304.63,-2592.25 3504.21,-2327.69 3567.65,-2243.6"/>
<polygon fill="black" stroke="black" points="3570.63,-2245.46 3573.86,-2235.37 3565.04,-2241.24 3570.63,-2245.46"/>
<text text-anchor="start" x="3366.43" y="-2457.14" font-family="Times New Roman,serif" font-size="14.00">nephew</text>
</g>
<!-- Entity79 -->
<g id="node26" class="node entity">
<title>Entity79</title>
<ellipse fill="none" stroke="black" cx="1643.94" cy="-941.66" rx="27" ry="18"/>
<text text-anchor="start" x="1633.94" y="-937.96" font-family="Times New Roman,serif" font-size="14.00">foo</text>
</g>
<!-- Entity80 -->
<g id="node27" class="node entity">
<title>Entity80</title>
<ellipse fill="none" stroke="black" cx="1731.66" cy="-1053.64" rx="27" ry="18"/>
<text text-anchor="start" x="1721.66" y="-1049.94" font-family="Times New Roman,serif" font-size="14.00">baz</text>
</g>
<!-- Entity79&#45;&gt;Entity80 -->
<g id="edge24" class="edge verb">
<title>Entity79&#45;&gt;Entity80</title>
<path fill="none" stroke="black" d="M1656.51,-957.7C1671.23,-976.5 1695.76,-1007.82 1712.78,-1029.53"/>
<polygon fill="black" stroke="black" points="1710.19,-1031.91 1719.11,-1037.62 1715.7,-1027.59 1710.19,-1031.91"/>
<text text-anchor="start" x="1664.64" y="-997.42" font-family="Times New Roman,serif" font-size="14.00">baz</text>
</g>
<!-- Entity30&#45;&gt;Entity17 -->
<g id="edge32" class="edge verb">
<title>Entity30&#45;&gt;Entity17</title>
<path fill="none" stroke="black" d="M3581.79,-2199.82C3561.1,-2130.35 3486.19,-1878.81 3461.14,-1794.68"/>
<polygon fill="black" stroke="black" points="3464.48,-1793.64 3458.27,-1785.05 3457.77,-1795.64 3464.48,-1793.64"/>
<text text-anchor="start" x="3475.46" y="-2001.05" font-family="Times New Roman,serif" font-size="14.00">member</text>
</g>
<!-- Entity67 -->
<g id="node29" class="node entity">
<title>Entity67</title>
<ellipse fill="none" stroke="black" cx="4063.17" cy="-2242.54" rx="50.89" ry="18"/>
<text text-anchor="start" x="4032.17" y="-2238.84" font-family="Times New Roman,serif" font-size="14.00">nikola tesla</text>
</g>
<!-- Entity30&#45;&gt;Entity67 -->
<g id="edge26" class="edge verb">
<title>Entity30&#45;&gt;Entity67</title>
<path fill="none" stroke="black" d="M3636.73,-2220.35C3724.73,-2224.93 3907.84,-2234.46 4002.93,-2239.41"/>
<polygon fill="black" stroke="black" points="4002.8,-2242.9 4012.97,-2239.93 4003.16,-2235.91 4002.8,-2242.9"/>
<text text-anchor="start" x="3788.83" y="-2233.68" font-family="Times New Roman,serif" font-size="14.00">study</text>
</g>
<!-- Entity26 -->
<g id="node30" class="node entity">
<title>Entity26</title>
<ellipse fill="none" stroke="black" cx="2370.15" cy="-1350.74" rx="53.89" ry="18"/>
<text text-anchor="start" x="2336.65" y="-1347.04" font-family="Times New Roman,serif" font-size="14.00">edgar casey</text>
</g>
<!-- Entity27 -->
<g id="node31" class="node entity">
<title>Entity27</title>
<ellipse fill="none" stroke="black" cx="2472.04" cy="-1872.51" rx="71.49" ry="18"/>
<text text-anchor="start" x="2425.04" y="-1868.81" font-family="Times New Roman,serif" font-size="14.00">woodrow wilson</text>
</g>
<!-- Entity26&#45;&gt;Entity27 -->
<g id="edge27" class="edge verb">
<title>Entity26&#45;&gt;Entity27</title>
<path fill="none" stroke="black" d="M2373.71,-1369C2388.89,-1446.72 2448.16,-1750.25 2466.56,-1844.46"/>
<polygon fill="black" stroke="black" points="2463.15,-1845.25 2468.5,-1854.4 2470.02,-1843.91 2463.15,-1845.25"/>
<text text-anchor="start" x="2384.14" y="-1610.53" font-family="Times New Roman,serif" font-size="14.00">advise</text>
</g>
<!-- Entity27&#45;&gt;Entity53 -->
<g id="edge45" class="edge verb">
<title>Entity27&#45;&gt;Entity53</title>
<path fill="none" stroke="black" d="M2475.87,-1890.74C2492.16,-1968.31 2555.8,-2271.22 2575.56,-2365.25"/>
<polygon fill="black" stroke="black" points="2572.16,-2366.1 2577.64,-2375.16 2579.01,-2364.66 2572.16,-2366.1"/>
<text text-anchor="start" x="2515.71" y="-2131.79" font-family="Times New Roman,serif" font-size="14.00">is</text>
</g>
<!-- Entity58 -->
<g id="node42" class="node entity">
<title>Entity58</title>
<ellipse fill="none" stroke="black" cx="2446.69" cy="-1755.3" rx="71.49" ry="18"/>
<text text-anchor="start" x="2399.69" y="-1751.6" font-family="Times New Roman,serif" font-size="14.00">leauge of nations</text>
</g>
<!-- Entity27&#45;&gt;Entity58 -->
<g id="edge40" class="edge verb">
<title>Entity27&#45;&gt;Entity58</title>
<path fill="none" stroke="black" d="M2468.13,-1854.45C2464.03,-1835.5 2457.53,-1805.43 2452.76,-1783.38"/>
<polygon fill="black" stroke="black" points="2456.17,-1782.61 2450.64,-1773.57 2449.33,-1784.09 2456.17,-1782.61"/>
<text text-anchor="start" x="2426.45" y="-1822.72" font-family="Times New Roman,serif" font-size="14.00">create</text>
</g>
<!-- Entity40 -->
<g id="node32" class="node entity">
<title>Entity40</title>
<ellipse fill="none" stroke="black" cx="1674.96" cy="-169.15" rx="57.69" ry="18"/>
<text text-anchor="start" x="1638.46" y="-165.45" font-family="Times New Roman,serif" font-size="14.00">michael pane</text>
</g>
<!-- Entity37 -->
<g id="node33" class="node entity">
<title>Entity37</title>
<ellipse fill="none" stroke="black" cx="1292.51" cy="-552.62" rx="74.99" ry="18"/>
<text text-anchor="start" x="1243.01" y="-548.92" font-family="Times New Roman,serif" font-size="14.00">walter dornberger</text>
</g>
<!-- Entity40&#45;&gt;Entity37 -->
<g id="edge28" class="edge verb">
<title>Entity40&#45;&gt;Entity37</title>
<path fill="none" stroke="black" d="M1657.79,-186.38C1596.64,-247.68 1389.39,-455.49 1317.4,-527.67"/>
<polygon fill="black" stroke="black" points="1314.66,-525.46 1310.08,-535.01 1319.62,-530.4 1314.66,-525.46"/>
<text text-anchor="start" x="1433.59" y="-360.82" font-family="Times New Roman,serif" font-size="14.00">employee</text>
</g>
<!-- Entity40&#45;&gt;Entity56 -->
<g id="edge57" class="edge verb">
<title>Entity40&#45;&gt;Entity56</title>
<path fill="none" stroke="black" d="M1690.2,-186.57C1742.75,-246.62 1916.56,-445.27 1978.06,-515.55"/>
<polygon fill="black" stroke="black" points="1975.44,-517.87 1984.66,-523.09 1980.7,-513.26 1975.44,-517.87"/>
<text text-anchor="start" x="1780.13" y="-354.86" font-family="Times New Roman,serif" font-size="14.00">employee</text>
</g>
<!-- Entity51 -->
<g id="node36" class="node entity">
<title>Entity51</title>
<ellipse fill="none" stroke="black" cx="720.53" cy="-837.04" rx="32.49" ry="18"/>
<text text-anchor="start" x="703.53" y="-833.34" font-family="Times New Roman,serif" font-size="14.00">nsdap</text>
</g>
<!-- Entity37&#45;&gt;Entity51 -->
<g id="edge31" class="edge verb">
<title>Entity37&#45;&gt;Entity51</title>
<path fill="none" stroke="black" d="M1259.71,-568.93C1159.1,-618.96 855.59,-769.88 754.04,-820.37"/>
<polygon fill="black" stroke="black" points="752.25,-817.35 744.86,-824.94 755.37,-823.62 752.25,-817.35"/>
<text text-anchor="start" x="960.87" y="-698.45" font-family="Times New Roman,serif" font-size="14.00">member</text>
</g>
<!-- Entity37&#45;&gt;Entity56 -->
<g id="edge58" class="edge verb">
<title>Entity37&#45;&gt;Entity56</title>
<path fill="none" stroke="black" d="M1366.29,-555.68C1506.04,-556.6 1807.06,-551.34 1937.49,-545.58"/>
<polygon fill="black" stroke="black" points="1937.87,-549.06 1947.7,-545.11 1937.55,-542.07 1937.87,-549.06"/>
<text text-anchor="start" x="1597.89" y="-554.43" font-family="Times New Roman,serif" font-size="14.00">employee</text>
</g>
<!-- Entity37&#45;&gt;Entity56 -->
<g id="edge60" class="edge verb">
<title>Entity37&#45;&gt;Entity56</title>
<path fill="none" stroke="black" d="M1363.83,-547.13C1501.92,-541.38 1803.82,-536.26 1935.88,-537.49"/>
<polygon fill="black" stroke="black" points="1936.19,-540.99 1946.22,-537.6 1936.26,-533.99 1936.19,-540.99"/>
<text text-anchor="start" x="1570.85" y="-531.11" font-family="Times New Roman,serif" font-size="14.00">vice&#45;president</text>
</g>
<!-- Entity72 -->
<g id="node58" class="node entity">
<title>Entity72</title>
<ellipse fill="none" stroke="black" cx="729.46" cy="-113.01" rx="90.98" ry="18"/>
<text text-anchor="start" x="667.46" y="-109.31" font-family="Times New Roman,serif" font-size="14.00">nsdap rocket program</text>
</g>
<!-- Entity37&#45;&gt;Entity72 -->
<g id="edge61" class="edge verb">
<title>Entity37&#45;&gt;Entity72</title>
<path fill="none" stroke="black" d="M1270.44,-535.39C1183.03,-467.14 860.99,-215.7 759.98,-136.83"/>
<polygon fill="black" stroke="black" points="762.03,-134 752,-130.6 757.72,-139.51 762.03,-134"/>
<text text-anchor="start" x="981.21" y="-339.91" font-family="Times New Roman,serif" font-size="14.00">create</text>
</g>
<!-- Entity73 -->
<g id="node60" class="node entity">
<title>Entity73</title>
<ellipse fill="none" stroke="black" cx="1148.85" cy="-444.48" rx="65.79" ry="18"/>
<text text-anchor="start" x="1106.35" y="-440.78" font-family="Times New Roman,serif" font-size="14.00">x series aircraft</text>
</g>
<!-- Entity37&#45;&gt;Entity73 -->
<g id="edge63" class="edge verb">
<title>Entity37&#45;&gt;Entity73</title>
<path fill="none" stroke="black" d="M1269.43,-535.25C1245.1,-516.93 1206.63,-487.97 1179.7,-467.71"/>
<polygon fill="black" stroke="black" points="1181.49,-464.67 1171.4,-461.46 1177.28,-470.27 1181.49,-464.67"/>
<text text-anchor="start" x="1190.57" y="-505.28" font-family="Times New Roman,serif" font-size="14.00">create</text>
</g>
<!-- Entity34 -->
<g id="node34" class="node entity">
<title>Entity34</title>
<ellipse fill="none" stroke="black" cx="1452.81" cy="-1490.74" rx="90.98" ry="18"/>
<text text-anchor="start" x="1390.81" y="-1487.04" font-family="Times New Roman,serif" font-size="14.00">emma hardinge&#45;britten</text>
</g>
<!-- Entity38 -->
<g id="node35" class="node entity">
<title>Entity38</title>
<ellipse fill="none" stroke="black" cx="2072.71" cy="-2025.01" rx="67.69" ry="18"/>
<text text-anchor="start" x="2028.71" y="-2021.31" font-family="Times New Roman,serif" font-size="14.00">abraham lincoln</text>
</g>
<!-- Entity34&#45;&gt;Entity38 -->
<g id="edge30" class="edge verb">
<title>Entity34&#45;&gt;Entity38</title>
<path fill="none" stroke="black" d="M1473.44,-1508.52C1565.58,-1587.93 1939.58,-1910.27 2044.96,-2001.09"/>
<polygon fill="black" stroke="black" points="2042.77,-2003.83 2052.63,-2007.71 2047.34,-1998.53 2042.77,-2003.83"/>
<text text-anchor="start" x="1680.2" y="-1758.6" font-family="Times New Roman,serif" font-size="14.00">spokesperson</text>
</g>
<!-- Entity59 -->
<g id="node44" class="node entity">
<title>Entity59</title>
<ellipse fill="none" stroke="black" cx="774.91" cy="-1727.17" rx="85.29" ry="18"/>
<text text-anchor="start" x="717.41" y="-1723.47" font-family="Times New Roman,serif" font-size="14.00">theosophical society</text>
</g>
<!-- Entity34&#45;&gt;Entity59 -->
<g id="edge51" class="edge verb">
<title>Entity34&#45;&gt;Entity59</title>
<path fill="none" stroke="black" d="M1407.81,-1506.44C1287.63,-1548.35 959.46,-1662.8 829.22,-1708.23"/>
<polygon fill="black" stroke="black" points="827.74,-1705.04 819.45,-1711.63 830.05,-1711.65 827.74,-1705.04"/>
<text text-anchor="start" x="1084.52" y="-1611.13" font-family="Times New Roman,serif" font-size="14.00">create</text>
</g>
<!-- Entity69 -->
<g id="node57" class="node entity">
<title>Entity69</title>
<ellipse fill="none" stroke="black" cx="1415.84" cy="-1382.7" rx="55.79" ry="18"/>
<text text-anchor="start" x="1380.84" y="-1379" font-family="Times New Roman,serif" font-size="14.00">orphic circle</text>
</g>
<!-- Entity34&#45;&gt;Entity69 -->
<g id="edge59" class="edge verb">
<title>Entity34&#45;&gt;Entity69</title>
<path fill="none" stroke="black" d="M1446.54,-1472.41C1440.72,-1455.39 1431.96,-1429.82 1425.29,-1410.32"/>
<polygon fill="black" stroke="black" points="1428.57,-1409.09 1422.02,-1400.76 1421.95,-1411.36 1428.57,-1409.09"/>
<text text-anchor="start" x="1389.92" y="-1445.17" font-family="Times New Roman,serif" font-size="14.00">member</text>
</g>
<!-- Entity68 -->
<g id="node59" class="node entity">
<title>Entity68</title>
<ellipse fill="none" stroke="black" cx="962.58" cy="-1252.91" rx="39.79" ry="18"/>
<text text-anchor="start" x="940.08" y="-1249.21" font-family="Times New Roman,serif" font-size="14.00">medium</text>
</g>
<!-- Entity34&#45;&gt;Entity68 -->
<g id="edge62" class="edge verb">
<title>Entity34&#45;&gt;Entity68</title>
<path fill="none" stroke="black" d="M1418.34,-1474.02C1328.99,-1430.67 1090.49,-1314.96 999.01,-1270.58"/>
<polygon fill="black" stroke="black" points="1000.38,-1267.36 989.86,-1266.14 997.33,-1273.66 1000.38,-1267.36"/>
<text text-anchor="start" x="1198.67" y="-1376.1" font-family="Times New Roman,serif" font-size="14.00">is</text>
</g>
<!-- Entity38&#45;&gt;Entity53 -->
<g id="edge48" class="edge verb">
<title>Entity38&#45;&gt;Entity53</title>
<path fill="none" stroke="black" d="M2096.23,-2042.03C2179.99,-2102.67 2463.62,-2307.96 2553.72,-2373.18"/>
<polygon fill="black" stroke="black" points="2551.67,-2376.02 2561.82,-2379.05 2555.78,-2370.35 2551.67,-2376.02"/>
<text text-anchor="start" x="2314.97" y="-2211.41" font-family="Times New Roman,serif" font-size="14.00">is</text>
</g>
<!-- Entity51&#45;&gt;Entity74 -->
<g id="edge65" class="edge verb">
<title>Entity51&#45;&gt;Entity74</title>
<path fill="none" stroke="black" d="M712.11,-854.61C680.34,-921 567.47,-1156.75 528.76,-1237.63"/>
<polygon fill="black" stroke="black" points="525.37,-1236.6 524.21,-1247.13 531.69,-1239.62 525.37,-1236.6"/>
<text text-anchor="start" x="574.44" y="-1049.92" font-family="Times New Roman,serif" font-size="14.00">member</text>
</g>
<!-- Entity46 -->
<g id="node37" class="node entity">
<title>Entity46</title>
<ellipse fill="none" stroke="black" cx="1141.21" cy="-18.31" rx="46.29" ry="18"/>
<text text-anchor="start" x="1113.71" y="-14.61" font-family="Times New Roman,serif" font-size="14.00">van braun</text>
</g>
<!-- Entity46&#45;&gt;Entity37 -->
<g id="edge33" class="edge verb">
<title>Entity46&#45;&gt;Entity37</title>
<path fill="none" stroke="black" d="M1146.33,-36.39C1168.64,-115.2 1257.49,-428.94 1284.61,-524.71"/>
<polygon fill="black" stroke="black" points="1281.3,-525.87 1287.39,-534.54 1288.04,-523.97 1281.3,-525.87"/>
<text text-anchor="start" x="1161.47" y="-284.35" font-family="Times New Roman,serif" font-size="14.00">employee</text>
</g>
<!-- Entity46&#45;&gt;Entity72 -->
<g id="edge64" class="edge verb">
<title>Entity46&#45;&gt;Entity72</title>
<path fill="none" stroke="black" d="M1101.35,-27.47C1031.39,-43.56 885.7,-77.07 798.89,-97.04"/>
<polygon fill="black" stroke="black" points="798.08,-93.63 789.12,-99.29 799.65,-100.46 798.08,-93.63"/>
<text text-anchor="start" x="896.12" y="-66.06" font-family="Times New Roman,serif" font-size="14.00">employee</text>
</g>
<!-- Entity49 -->
<g id="node38" class="node entity">
<title>Entity49</title>
<ellipse fill="none" stroke="black" cx="346.52" cy="-632.47" rx="49.29" ry="18"/>
<text text-anchor="start" x="316.52" y="-628.77" font-family="Times New Roman,serif" font-size="14.00">adolf hitler</text>
</g>
<!-- Entity49&#45;&gt;Entity51 -->
<g id="edge34" class="edge verb">
<title>Entity49&#45;&gt;Entity51</title>
<path fill="none" stroke="black" d="M374.03,-647.51C441.67,-684.51 615.9,-779.81 688.27,-819.39"/>
<polygon fill="black" stroke="black" points="686.93,-822.65 697.38,-824.37 690.29,-816.51 686.93,-822.65"/>
<text text-anchor="start" x="497.15" y="-737.25" font-family="Times New Roman,serif" font-size="14.00">create</text>
</g>
<!-- Entity50 -->
<g id="node40" class="node entity">
<title>Entity50</title>
<ellipse fill="none" stroke="black" cx="2258.58" cy="-2558.82" rx="37.89" ry="18"/>
<text text-anchor="start" x="2237.58" y="-2555.12" font-family="Times New Roman,serif" font-size="14.00">hunt oil</text>
</g>
<!-- Entity48 -->
<g id="node41" class="node entity">
<title>Entity48</title>
<ellipse fill="none" stroke="black" cx="2608.03" cy="-2282.63" rx="77.99" ry="18"/>
<text text-anchor="start" x="2556.03" y="-2278.93" font-family="Times New Roman,serif" font-size="14.00">dwight eisenhower</text>
</g>
<!-- Entity50&#45;&gt;Entity48 -->
<g id="edge37" class="edge verb">
<title>Entity50&#45;&gt;Entity48</title>
<path fill="none" stroke="black" d="M2278.12,-2543.37C2336.13,-2497.53 2507.68,-2361.94 2577.73,-2306.58"/>
<polygon fill="black" stroke="black" points="2580.08,-2309.19 2585.75,-2300.24 2575.74,-2303.7 2580.08,-2309.19"/>
<text text-anchor="start" x="2401.92" y="-2428.78" font-family="Times New Roman,serif" font-size="14.00">fund</text>
</g>
<!-- Entity48&#45;&gt;Entity53 -->
<g id="edge67" class="edge verb">
<title>Entity48&#45;&gt;Entity53</title>
<path fill="none" stroke="black" d="M2603.64,-2300.9C2599.42,-2318.45 2592.98,-2345.23 2588.12,-2365.43"/>
<polygon fill="black" stroke="black" points="2584.68,-2364.78 2585.75,-2375.32 2591.49,-2366.41 2584.68,-2364.78"/>
<text text-anchor="start" x="2585.88" y="-2336.97" font-family="Times New Roman,serif" font-size="14.00">is</text>
</g>
<!-- Entity24 -->
<g id="node43" class="node entity">
<title>Entity24</title>
<ellipse fill="none" stroke="black" cx="73.9" cy="-1759.66" rx="73.39" ry="18"/>
<text text-anchor="start" x="25.4" y="-1755.96" font-family="Times New Roman,serif" font-size="14.00">madam blavatsky</text>
</g>
<!-- Entity24&#45;&gt;Entity59 -->
<g id="edge42" class="edge verb">
<title>Entity24&#45;&gt;Entity59</title>
<path fill="none" stroke="black" d="M146.28,-1756.3C274.09,-1750.38 539.59,-1738.08 681.2,-1731.51"/>
<polygon fill="black" stroke="black" points="681.76,-1734.99 691.59,-1731.03 681.44,-1728 681.76,-1734.99"/>
<text text-anchor="start" x="379.74" y="-1747.71" font-family="Times New Roman,serif" font-size="14.00">create</text>
</g>
<!-- Entity22 -->
<g id="node45" class="node entity">
<title>Entity22</title>
<ellipse fill="none" stroke="black" cx="828.67" cy="-1839.24" rx="58.49" ry="18"/>
<text text-anchor="start" x="791.67" y="-1835.54" font-family="Times New Roman,serif" font-size="14.00">rudolf steiner</text>
</g>
<!-- Entity22&#45;&gt;Entity59 -->
<g id="edge50" class="edge verb">
<title>Entity22&#45;&gt;Entity59</title>
<path fill="none" stroke="black" d="M820.03,-1821.24C811.37,-1803.18 797.92,-1775.15 787.96,-1754.38"/>
<polygon fill="black" stroke="black" points="791,-1752.63 783.52,-1745.13 784.69,-1755.66 791,-1752.63"/>
<text text-anchor="start" x="758" y="-1791.61" font-family="Times New Roman,serif" font-size="14.00">member</text>
</g>
<!-- Entity60 -->
<g id="node46" class="node entity">
<title>Entity60</title>
<ellipse fill="none" stroke="black" cx="239.72" cy="-2195.48" rx="102.08" ry="18"/>
<text text-anchor="start" x="169.22" y="-2191.78" font-family="Times New Roman,serif" font-size="14.00">anthroposophical society</text>
</g>
<!-- Entity22&#45;&gt;Entity60 -->
<g id="edge44" class="edge verb">
<title>Entity22&#45;&gt;Entity60</title>
<path fill="none" stroke="black" d="M801.83,-1855.48C706.95,-1912.87 387.12,-2106.33 277.2,-2172.82"/>
<polygon fill="black" stroke="black" points="275.18,-2169.95 268.43,-2178.12 278.8,-2175.94 275.18,-2169.95"/>
<text text-anchor="start" x="505.51" y="-2017.95" font-family="Times New Roman,serif" font-size="14.00">create</text>
</g>
<!-- Entity31 -->
<g id="node47" class="node entity">
<title>Entity31</title>
<ellipse fill="none" stroke="black" cx="5047.61" cy="-3197.38" rx="69.59" ry="18"/>
<text text-anchor="start" x="5002.11" y="-3193.68" font-family="Times New Roman,serif" font-size="14.00">andrew breitbart</text>
</g>
<!-- Entity31&#45;&gt;Entity65 -->
<g id="edge46" class="edge verb">
<title>Entity31&#45;&gt;Entity65</title>
<path fill="none" stroke="black" d="M4978,-3197.06C4867.33,-3196.55 4652.33,-3195.55 4540.16,-3195.03"/>
<polygon fill="black" stroke="black" points="4539.97,-3191.53 4529.96,-3194.98 4539.94,-3198.53 4539.97,-3191.53"/>
<text text-anchor="start" x="4725.08" y="-3199.84" font-family="Times New Roman,serif" font-size="14.00">create</text>
</g>
<!-- Entity35 -->
<g id="node51" class="node entity">
<title>Entity35</title>
<ellipse fill="none" stroke="black" cx="2811.94" cy="-1403.66" rx="39.79" ry="18"/>
<text text-anchor="start" x="2789.44" y="-1399.96" font-family="Times New Roman,serif" font-size="14.00">crowley</text>
</g>
<!-- Entity70 -->
<g id="node52" class="node entity">
<title>Entity70</title>
<ellipse fill="none" stroke="black" cx="2899.66" cy="-1515.64" rx="38.99" ry="18"/>
<text text-anchor="start" x="2877.66" y="-1511.94" font-family="Times New Roman,serif" font-size="14.00">x magic</text>
</g>
<!-- Entity35&#45;&gt;Entity70 -->
<g id="edge53" class="edge verb">
<title>Entity35&#45;&gt;Entity70</title>
<path fill="none" stroke="black" d="M2825.26,-1420.67C2839.82,-1439.25 2863.28,-1469.2 2879.96,-1490.49"/>
<polygon fill="black" stroke="black" points="2877.29,-1492.76 2886.21,-1498.47 2882.8,-1488.44 2877.29,-1492.76"/>
<text text-anchor="start" x="2806.61" y="-1459.38" font-family="Times New Roman,serif" font-size="14.00">member</text>
</g>
<!-- Entity44 -->
<g id="node55" class="node entity">
<title>Entity44</title>
<ellipse fill="none" stroke="black" cx="1901.94" cy="-1403.66" rx="53.89" ry="18"/>
<text text-anchor="start" x="1868.44" y="-1399.96" font-family="Times New Roman,serif" font-size="14.00">black magic</text>
</g>
<!-- Entity71 -->
<g id="node56" class="node entity">
<title>Entity71</title>
<ellipse fill="none" stroke="black" cx="1989.66" cy="-1515.64" rx="28.7" ry="18"/>
<text text-anchor="start" x="1975.66" y="-1511.94" font-family="Times New Roman,serif" font-size="14.00">x left</text>
</g>
<!-- Entity44&#45;&gt;Entity71 -->
<g id="edge56" class="edge verb">
<title>Entity44&#45;&gt;Entity71</title>
<path fill="none" stroke="black" d="M1915.64,-1421.16C1930.45,-1440.05 1954.14,-1470.29 1970.72,-1491.45"/>
<polygon fill="black" stroke="black" points="1967.98,-1493.64 1976.9,-1499.36 1973.49,-1489.32 1967.98,-1493.64"/>
<text text-anchor="start" x="1897.18" y="-1460.11" font-family="Times New Roman,serif" font-size="14.00">member</text>
</g>
</g>
</svg>
