<?xml version="1.0" encoding="UTF-8" standalone="no"?>
<?xml-stylesheet href="../styles.css" type="text/css"?>
<!DOCTYPE svg PUBLIC "-//W3C//DTD SVG 1.1//EN"
 "http://www.w3.org/Graphics/SVG/1.1/DTD/svg11.dtd">
<!-- Generated by graphviz version 2.47.3 (20210619.1520)
 -->
<!-- Title: G Pages: 1 -->
<svg width="5491pt" height="4161pt"
 viewBox="0.00 0.00 5491.00 4161.00" xmlns="http://www.w3.org/2000/svg" xmlns:xlink="http://www.w3.org/1999/xlink">
<g id="graph0" class="graph" transform="scale(1 1) rotate(0) translate(4 4157)">
<title>G</title>
<polygon fill="white" stroke="transparent" points="-4,4 -4,-4157 5487,-4157 5487,4 -4,4"/>
<!-- Entity5 -->
<g id="node1" class="node entity">
<title>Entity5</title>
<ellipse fill="none" stroke="black" cx="2861.15" cy="-3208.76" rx="75.29" ry="18"/>
<text text-anchor="start" x="2811.15" y="-3205.06" font-family="Times New Roman,serif" font-size="14.00">lee harvey oswald</text>
</g>
<!-- Entity7 -->
<g id="node2" class="node entity">
<title>Entity7</title>
<ellipse fill="none" stroke="black" cx="2292.99" cy="-2748.36" rx="64.19" ry="18"/>
<text text-anchor="start" x="2251.49" y="-2744.66" font-family="Times New Roman,serif" font-size="14.00">john f kennedy</text>
</g>
<!-- Entity5&#45;&gt;Entity7 -->
<g id="edge1" class="edge verb">
<title>Entity5&#45;&gt;Entity7</title>
<path fill="none" stroke="black" d="M2843.59,-3191.12C2763.56,-3119.53 2433.36,-2851.68 2326.49,-2771.26"/>
<polygon fill="black" stroke="black" points="2328.41,-2768.32 2318.31,-2765.14 2324.22,-2773.93 2328.41,-2768.32"/>
<text text-anchor="start" x="2523.04" y="-2969.99" font-family="Times New Roman,serif" font-size="14.00">assassinate</text>
</g>
<!-- Entity5&#45;&gt;Entity7 -->
<g id="edge4" class="edge verb">
<title>Entity5&#45;&gt;Entity7</title>
<path fill="none" stroke="black" d="M2835.25,-3191.55C2740.14,-3120.96 2411.19,-2854.46 2317.83,-2772.45"/>
<polygon fill="black" stroke="black" points="2320.08,-2769.77 2310.28,-2765.76 2315.44,-2775.01 2320.08,-2769.77"/>
<text text-anchor="start" x="2536.54" y="-2985.8" font-family="Times New Roman,serif" font-size="14.00">oswald</text>
</g>
<!-- Entity45 -->
<g id="node29" class="node entity">
<title>Entity45</title>
<ellipse fill="none" stroke="black" cx="3437.23" cy="-3547.15" rx="59.29" ry="18"/>
<text text-anchor="start" x="3399.73" y="-3543.45" font-family="Times New Roman,serif" font-size="14.00">guy bannister</text>
</g>
<!-- Entity5&#45;&gt;Entity45 -->
<g id="edge23" class="edge verb">
<title>Entity5&#45;&gt;Entity45</title>
<path fill="none" stroke="black" d="M2889.72,-3225.54C2985.46,-3281.78 3294.92,-3463.55 3401.09,-3525.92"/>
<polygon fill="black" stroke="black" points="3399.45,-3529.01 3409.85,-3531.06 3403,-3522.98 3399.45,-3529.01"/>
<text text-anchor="start" x="3091.41" y="-3379.53" font-family="Times New Roman,serif" font-size="14.00">employee</text>
</g>
<!-- Entity53 -->
<g id="node28" class="node entity">
<title>Entity53</title>
<ellipse fill="none" stroke="black" cx="1902.48" cy="-2320.8" rx="31.4" ry="18"/>
<text text-anchor="start" x="1886.48" y="-2317.1" font-family="Times New Roman,serif" font-size="14.00">potus</text>
</g>
<!-- Entity7&#45;&gt;Entity53 -->
<g id="edge22" class="edge verb">
<title>Entity7&#45;&gt;Entity53</title>
<path fill="none" stroke="black" d="M2276.95,-2730.81C2215.47,-2663.49 1994.71,-2421.79 1924.26,-2344.65"/>
<polygon fill="black" stroke="black" points="1926.5,-2341.91 1917.17,-2336.89 1921.33,-2346.63 1926.5,-2341.91"/>
<text text-anchor="start" x="2090.61" y="-2541.53" font-family="Times New Roman,serif" font-size="14.00">is</text>
</g>
<!-- Entity1 -->
<g id="node3" class="node entity">
<title>Entity1</title>
<ellipse fill="none" stroke="black" cx="4583.02" cy="-2209.89" rx="41.69" ry="18"/>
<text text-anchor="start" x="4559.02" y="-2206.19" font-family="Times New Roman,serif" font-size="14.00">uri geller</text>
</g>
<!-- Entity9 -->
<g id="node4" class="node entity">
<title>Entity9</title>
<ellipse fill="none" stroke="black" cx="4882.82" cy="-2442.91" rx="38.19" ry="18"/>
<text text-anchor="start" x="4861.32" y="-2439.21" font-family="Times New Roman,serif" font-size="14.00">the nine</text>
</g>
<!-- Entity1&#45;&gt;Entity9 -->
<g id="edge2" class="edge verb">
<title>Entity1&#45;&gt;Entity9</title>
<path fill="none" stroke="black" d="M4603.63,-2225.9C4656.08,-2266.67 4794.73,-2374.44 4854.62,-2420.99"/>
<polygon fill="black" stroke="black" points="4852.82,-2424.02 4862.86,-2427.39 4857.11,-2418.49 4852.82,-2424.02"/>
<text text-anchor="start" x="4625.12" y="-2327.24" font-family="Times New Roman,serif" font-size="14.00">claiemd to channel</text>
</g>
<!-- Entity52 -->
<g id="node44" class="node entity">
<title>Entity52</title>
<ellipse fill="none" stroke="black" cx="5388.55" cy="-2147.82" rx="94.48" ry="18"/>
<text text-anchor="start" x="5324.05" y="-2144.12" font-family="Times New Roman,serif" font-size="14.00">egyptian gods in a ship</text>
</g>
<!-- Entity9&#45;&gt;Entity52 -->
<g id="edge37" class="edge verb">
<title>Entity9&#45;&gt;Entity52</title>
<path fill="none" stroke="black" d="M4906.87,-2428.87C4987.87,-2381.62 5251.15,-2228 5350.31,-2170.14"/>
<polygon fill="black" stroke="black" points="5352.23,-2173.07 5359.11,-2165.01 5348.71,-2167.02 5352.23,-2173.07"/>
<text text-anchor="start" x="5098.59" y="-2303.31" font-family="Times New Roman,serif" font-size="14.00">claim</text>
</g>
<!-- Entity4 -->
<g id="node5" class="node entity">
<title>Entity4</title>
<ellipse fill="none" stroke="black" cx="5397.11" cy="-2418.99" rx="74.99" ry="18"/>
<text text-anchor="start" x="5347.61" y="-2415.29" font-family="Times New Roman,serif" font-size="14.00">gene roddenberry</text>
</g>
<!-- Entity4&#45;&gt;Entity9 -->
<g id="edge3" class="edge verb">
<title>Entity4&#45;&gt;Entity9</title>
<path fill="none" stroke="black" d="M5323.7,-2422.4C5217.05,-2427.36 5022.13,-2436.43 4931.52,-2440.64"/>
<polygon fill="black" stroke="black" points="4931.09,-2437.16 4921.26,-2441.12 4931.42,-2444.15 4931.09,-2437.16"/>
<text text-anchor="start" x="5023.61" y="-2435.32" font-family="Times New Roman,serif" font-size="14.00">claiemd to channel</text>
</g>
<!-- Entity2 -->
<g id="node6" class="node entity">
<title>Entity2</title>
<ellipse fill="none" stroke="black" cx="4625.78" cy="-2094.93" rx="64.19" ry="18"/>
<text text-anchor="start" x="4584.28" y="-2091.23" font-family="Times New Roman,serif" font-size="14.00">andre puharich</text>
</g>
<!-- Entity2&#45;&gt;Entity1 -->
<g id="edge5" class="edge verb">
<title>Entity2&#45;&gt;Entity1</title>
<path fill="none" stroke="black" d="M4619.1,-2112.89C4612.16,-2131.53 4601.23,-2160.93 4593.22,-2182.48"/>
<polygon fill="black" stroke="black" points="4589.86,-2181.46 4589.66,-2192.05 4596.42,-2183.9 4589.86,-2181.46"/>
<text text-anchor="start" x="4554.16" y="-2151.48" font-family="Times New Roman,serif" font-size="14.00">sponsore</text>
</g>
<!-- Entity6 -->
<g id="node7" class="node entity">
<title>Entity6</title>
<ellipse fill="none" stroke="black" cx="4161.17" cy="-2094.8" rx="68.49" ry="18"/>
<text text-anchor="start" x="4116.67" y="-2091.1" font-family="Times New Roman,serif" font-size="14.00">jeffrey mishlove</text>
</g>
<!-- Entity6&#45;&gt;Entity1 -->
<g id="edge6" class="edge verb">
<title>Entity6&#45;&gt;Entity1</title>
<path fill="none" stroke="black" d="M4208.75,-2107.78C4290.78,-2130.16 4457.76,-2175.71 4538,-2197.6"/>
<polygon fill="black" stroke="black" points="4537.24,-2201.02 4547.81,-2200.28 4539.08,-2194.27 4537.24,-2201.02"/>
<text text-anchor="start" x="4325.37" y="-2156.49" font-family="Times New Roman,serif" font-size="14.00">promote</text>
</g>
<!-- Entity55 -->
<g id="node34" class="node entity">
<title>Entity55</title>
<ellipse fill="none" stroke="black" cx="3687.27" cy="-2400.83" rx="77.19" ry="18"/>
<text text-anchor="start" x="3635.77" y="-2397.13" font-family="Times New Roman,serif" font-size="14.00">psi&#45;consciousness</text>
</g>
<!-- Entity6&#45;&gt;Entity55 -->
<g id="edge58" class="edge verb">
<title>Entity6&#45;&gt;Entity55</title>
<path fill="none" stroke="black" d="M4129.64,-2111.02C4042.85,-2161.92 3801.52,-2317.72 3716.96,-2377.38"/>
<polygon fill="black" stroke="black" points="3714.7,-2374.7 3708.59,-2383.35 3718.76,-2380.4 3714.7,-2374.7"/>
<text text-anchor="start" x="3892.3" y="-2248" font-family="Times New Roman,serif" font-size="14.00">study</text>
</g>
<!-- Entity6&#45;&gt;Entity55 -->
<g id="edge60" class="edge verb">
<title>Entity6&#45;&gt;Entity55</title>
<path fill="none" stroke="black" d="M4140.31,-2111.95C4067.62,-2164.36 3824.96,-2321.38 3727.89,-2379.24"/>
<polygon fill="black" stroke="black" points="3726.05,-2376.26 3719.23,-2384.36 3729.62,-2382.28 3726.05,-2376.26"/>
<text text-anchor="start" x="3934.1" y="-2249.4" font-family="Times New Roman,serif" font-size="14.00">investigates</text>
</g>
<!-- Entity11 -->
<g id="node8" class="node entity">
<title>Entity11</title>
<ellipse fill="none" stroke="black" cx="2302.32" cy="-2438.3" rx="68.49" ry="18"/>
<text text-anchor="start" x="2257.82" y="-2434.6" font-family="Times New Roman,serif" font-size="14.00">george hw bush</text>
</g>
<!-- Entity18 -->
<g id="node9" class="node entity">
<title>Entity18</title>
<ellipse fill="none" stroke="black" cx="2383.86" cy="-2324.35" rx="63.89" ry="18"/>
<text text-anchor="start" x="2342.86" y="-2320.65" font-family="Times New Roman,serif" font-size="14.00">george w bush</text>
</g>
<!-- Entity11&#45;&gt;Entity18 -->
<g id="edge7" class="edge verb">
<title>Entity11&#45;&gt;Entity18</title>
<path fill="none" stroke="black" d="M2315.06,-2420.5C2328.52,-2401.68 2349.89,-2371.82 2365.24,-2350.36"/>
<polygon fill="black" stroke="black" points="2368.23,-2352.2 2371.21,-2342.03 2362.54,-2348.12 2368.23,-2352.2"/>
<text text-anchor="start" x="2308.15" y="-2389.23" font-family="Times New Roman,serif" font-size="14.00">father</text>
</g>
<!-- Entity11&#45;&gt;Entity53 -->
<g id="edge49" class="edge verb">
<title>Entity11&#45;&gt;Entity53</title>
<path fill="none" stroke="black" d="M2256.45,-2424.82C2176.71,-2401.39 2014.02,-2353.58 1940.29,-2331.92"/>
<polygon fill="black" stroke="black" points="1941.08,-2328.5 1930.5,-2329.04 1939.11,-2335.22 1941.08,-2328.5"/>
<text text-anchor="start" x="2088.37" y="-2382.17" font-family="Times New Roman,serif" font-size="14.00">is</text>
</g>
<!-- Entity18&#45;&gt;Entity53 -->
<g id="edge59" class="edge verb">
<title>Entity18&#45;&gt;Entity53</title>
<path fill="none" stroke="black" d="M2319.93,-2323.88C2219.74,-2323.14 2028.48,-2321.73 1944.17,-2321.11"/>
<polygon fill="black" stroke="black" points="1943.98,-2317.61 1933.95,-2321.04 1943.92,-2324.61 1943.98,-2317.61"/>
<text text-anchor="start" x="2122.05" y="-2326.29" font-family="Times New Roman,serif" font-size="14.00">is</text>
</g>
<!-- Entity3 -->
<g id="node10" class="node entity">
<title>Entity3</title>
<ellipse fill="none" stroke="black" cx="4415.92" cy="-2719.7" rx="65.79" ry="18"/>
<text text-anchor="start" x="4373.42" y="-2716" font-family="Times New Roman,serif" font-size="14.00">arthur m young</text>
</g>
<!-- Entity3&#45;&gt;Entity9 -->
<g id="edge8" class="edge verb">
<title>Entity3&#45;&gt;Entity9</title>
<path fill="none" stroke="black" d="M4443.73,-2703.21C4525.17,-2654.94 4762.87,-2514.02 4850.17,-2462.26"/>
<polygon fill="black" stroke="black" points="4852.04,-2465.22 4858.86,-2457.11 4848.47,-2459.2 4852.04,-2465.22"/>
<text text-anchor="start" x="4600.95" y="-2586.54" font-family="Times New Roman,serif" font-size="14.00">member</text>
</g>
<!-- Entity56 -->
<g id="node27" class="node entity">
<title>Entity56</title>
<ellipse fill="none" stroke="black" cx="4774.73" cy="-3264.37" rx="53.89" ry="18"/>
<text text-anchor="start" x="4741.23" y="-3260.67" font-family="Times New Roman,serif" font-size="14.00">bell aviation</text>
</g>
<!-- Entity3&#45;&gt;Entity56 -->
<g id="edge21" class="edge verb">
<title>Entity3&#45;&gt;Entity56</title>
<path fill="none" stroke="black" d="M4427.66,-2737.51C4480.31,-2817.44 4694.91,-3143.2 4757.51,-3238.23"/>
<polygon fill="black" stroke="black" points="4754.66,-3240.27 4763.09,-3246.69 4760.51,-3236.41 4754.66,-3240.27"/>
<text text-anchor="start" x="4558.58" y="-2991.67" font-family="Times New Roman,serif" font-size="14.00">create</text>
</g>
<!-- Entity3&#45;&gt;Entity55 -->
<g id="edge54" class="edge verb">
<title>Entity3&#45;&gt;Entity55</title>
<path fill="none" stroke="black" d="M4380.78,-2704.32C4260.85,-2651.84 3867.71,-2479.79 3733.02,-2420.85"/>
<polygon fill="black" stroke="black" points="3734.34,-2417.61 3723.78,-2416.8 3731.54,-2424.02 3734.34,-2417.61"/>
<text text-anchor="start" x="4025.9" y="-2566.38" font-family="Times New Roman,serif" font-size="14.00">study</text>
</g>
<!-- Entity16 -->
<g id="node11" class="node entity">
<title>Entity16</title>
<ellipse fill="none" stroke="black" cx="3685.42" cy="-2290.46" rx="63.89" ry="18"/>
<text text-anchor="start" x="3644.42" y="-2286.76" font-family="Times New Roman,serif" font-size="14.00">robert bigelow</text>
</g>
<!-- Entity16&#45;&gt;Entity6 -->
<g id="edge9" class="edge verb">
<title>Entity16&#45;&gt;Entity6</title>
<path fill="none" stroke="black" d="M3721.57,-2275.59C3806.79,-2240.55 4020.19,-2152.78 4114.78,-2113.88"/>
<polygon fill="black" stroke="black" points="4116.18,-2117.09 4124.1,-2110.05 4113.52,-2110.62 4116.18,-2117.09"/>
<text text-anchor="start" x="3886.18" y="-2198.54" font-family="Times New Roman,serif" font-size="14.00">funds</text>
</g>
<!-- Entity16&#45;&gt;Entity55 -->
<g id="edge50" class="edge verb">
<title>Entity16&#45;&gt;Entity55</title>
<path fill="none" stroke="black" d="M3685.73,-2308.68C3686.02,-2326.02 3686.46,-2352.36 3686.8,-2372.44"/>
<polygon fill="black" stroke="black" points="3683.3,-2372.63 3686.97,-2382.57 3690.3,-2372.52 3683.3,-2372.63"/>
<text text-anchor="start" x="3622.26" y="-2344.36" font-family="Times New Roman,serif" font-size="14.00">investigates</text>
</g>
<!-- Entity25 -->
<g id="node12" class="node entity">
<title>Entity25</title>
<ellipse fill="none" stroke="black" cx="2000.6" cy="-1007.57" rx="58.49" ry="18"/>
<text text-anchor="start" x="1963.6" y="-1003.87" font-family="Times New Roman,serif" font-size="14.00">steve bannon</text>
</g>
<!-- Entity8 -->
<g id="node13" class="node entity">
<title>Entity8</title>
<ellipse fill="none" stroke="black" cx="2112.09" cy="-1740.12" rx="59.59" ry="18"/>
<text text-anchor="start" x="2074.09" y="-1736.42" font-family="Times New Roman,serif" font-size="14.00">donald trump</text>
</g>
<!-- Entity25&#45;&gt;Entity8 -->
<g id="edge10" class="edge verb">
<title>Entity25&#45;&gt;Entity8</title>
<path fill="none" stroke="black" d="M2001.06,-1025.66C2010.14,-1123.78 2081.23,-1592.11 2104.97,-1712.07"/>
<polygon fill="black" stroke="black" points="2101.56,-1712.86 2106.99,-1721.96 2108.42,-1711.47 2101.56,-1712.86"/>
<text text-anchor="start" x="2005.01" y="-1372.67" font-family="Times New Roman,serif" font-size="14.00">promote</text>
</g>
<!-- Entity25&#45;&gt;Entity8 -->
<g id="edge11" class="edge verb">
<title>Entity25&#45;&gt;Entity8</title>
<path fill="none" stroke="black" d="M2005.7,-1025.7C2026.45,-1123.82 2097.77,-1591.33 2110.61,-1711.77"/>
<polygon fill="black" stroke="black" points="2107.15,-1712.41 2111.64,-1722.01 2114.12,-1711.71 2107.15,-1712.41"/>
<text text-anchor="start" x="2022.16" y="-1357.53" font-family="Times New Roman,serif" font-size="14.00">advise</text>
</g>
<!-- Entity76 -->
<g id="node38" class="node entity">
<title>Entity76</title>
<ellipse fill="none" stroke="black" cx="1640.68" cy="-513.86" rx="77.19" ry="18"/>
<text text-anchor="start" x="1589.18" y="-510.16" font-family="Times New Roman,serif" font-size="14.00">hollywood movies</text>
</g>
<!-- Entity25&#45;&gt;Entity76 -->
<g id="edge31" class="edge verb">
<title>Entity25&#45;&gt;Entity76</title>
<path fill="none" stroke="black" d="M1987.79,-990C1933.74,-915.86 1724.13,-628.34 1659.66,-539.9"/>
<polygon fill="black" stroke="black" points="1662.43,-537.76 1653.71,-531.74 1656.77,-541.88 1662.43,-537.76"/>
<text text-anchor="start" x="1776.72" y="-768.75" font-family="Times New Roman,serif" font-size="14.00">produce</text>
</g>
<!-- Entity64 -->
<g id="node46" class="node entity">
<title>Entity64</title>
<ellipse fill="none" stroke="black" cx="1761.03" cy="-650.97" rx="38.19" ry="18"/>
<text text-anchor="start" x="1739.53" y="-647.27" font-family="Times New Roman,serif" font-size="14.00">us navy</text>
</g>
<!-- Entity25&#45;&gt;Entity64 -->
<g id="edge40" class="edge verb">
<title>Entity25&#45;&gt;Entity64</title>
<path fill="none" stroke="black" d="M1988.72,-989.89C1949.6,-931.65 1824.65,-745.67 1778.43,-676.87"/>
<polygon fill="black" stroke="black" points="1781.18,-674.69 1772.7,-668.34 1775.37,-678.59 1781.18,-674.69"/>
<text text-anchor="start" x="1837.58" y="-837.18" font-family="Times New Roman,serif" font-size="14.00">member</text>
</g>
<!-- Entity77 -->
<g id="node49" class="node entity">
<title>Entity77</title>
<ellipse fill="none" stroke="black" cx="1517.68" cy="-760.22" rx="64.99" ry="18"/>
<text text-anchor="start" x="1475.68" y="-756.52" font-family="Times New Roman,serif" font-size="14.00">goldman sachs</text>
</g>
<!-- Entity25&#45;&gt;Entity77 -->
<g id="edge45" class="edge verb">
<title>Entity25&#45;&gt;Entity77</title>
<path fill="none" stroke="black" d="M1970.39,-992.1C1886.76,-949.26 1652.16,-829.1 1557.77,-780.75"/>
<polygon fill="black" stroke="black" points="1559.31,-777.61 1548.81,-776.17 1556.12,-783.84 1559.31,-777.61"/>
<text text-anchor="start" x="1710.08" y="-890.23" font-family="Times New Roman,serif" font-size="14.00">employee</text>
</g>
<!-- Entity63 -->
<g id="node51" class="node entity">
<title>Entity63</title>
<ellipse fill="none" stroke="black" cx="2038.35" cy="-488.01" rx="53.09" ry="18"/>
<text text-anchor="start" x="2005.35" y="-484.31" font-family="Times New Roman,serif" font-size="14.00">biosphere 2</text>
</g>
<!-- Entity25&#45;&gt;Entity63 -->
<g id="edge51" class="edge verb">
<title>Entity25&#45;&gt;Entity63</title>
<path fill="none" stroke="black" d="M2001.92,-989.39C2007.54,-912.07 2029.46,-610.37 2036.3,-516.23"/>
<polygon fill="black" stroke="black" points="2039.81,-516.28 2037.04,-506.05 2032.83,-515.77 2039.81,-516.28"/>
<text text-anchor="start" x="1985.11" y="-756.61" font-family="Times New Roman,serif" font-size="14.00">create</text>
</g>
<!-- Entity65 -->
<g id="node53" class="node entity">
<title>Entity65</title>
<ellipse fill="none" stroke="black" cx="2406.5" cy="-579.25" rx="61.99" ry="18"/>
<text text-anchor="start" x="2367" y="-575.55" font-family="Times New Roman,serif" font-size="14.00">breitbart news</text>
</g>
<!-- Entity25&#45;&gt;Entity65 -->
<g id="edge56" class="edge verb">
<title>Entity25&#45;&gt;Entity65</title>
<path fill="none" stroke="black" d="M2017.02,-990.25C2080.25,-923.52 2308.25,-682.92 2382.76,-604.3"/>
<polygon fill="black" stroke="black" points="2385.54,-606.45 2389.88,-596.79 2380.46,-601.64 2385.54,-606.45"/>
<text text-anchor="start" x="2165.89" y="-801.08" font-family="Times New Roman,serif" font-size="14.00">create</text>
</g>
<!-- Entity61 -->
<g id="node59" class="node entity">
<title>Entity61</title>
<ellipse fill="none" stroke="black" cx="1984.46" cy="-602.95" rx="35.19" ry="18"/>
<text text-anchor="start" x="1965.46" y="-599.25" font-family="Times New Roman,serif" font-size="14.00">gurgev</text>
</g>
<!-- Entity25&#45;&gt;Entity61 -->
<g id="edge66" class="edge verb">
<title>Entity25&#45;&gt;Entity61</title>
<path fill="none" stroke="black" d="M1999.88,-989.4C1997.32,-925.22 1988.68,-708.88 1985.58,-631.1"/>
<polygon fill="black" stroke="black" points="1989.08,-630.92 1985.18,-621.07 1982.08,-631.2 1989.08,-630.92"/>
<text text-anchor="start" x="1961.73" y="-814.05" font-family="Times New Roman,serif" font-size="14.00">study</text>
</g>
<!-- Entity30 -->
<g id="node18" class="node entity">
<title>Entity30</title>
<ellipse fill="none" stroke="black" cx="2722.94" cy="-1832.26" rx="50.09" ry="18"/>
<text text-anchor="start" x="2692.44" y="-1828.56" font-family="Times New Roman,serif" font-size="14.00">john trump</text>
</g>
<!-- Entity8&#45;&gt;Entity30 -->
<g id="edge17" class="edge verb">
<title>Entity8&#45;&gt;Entity30</title>
<path fill="none" stroke="black" d="M2165.76,-1748.21C2280.5,-1765.52 2548.73,-1805.98 2666.17,-1823.7"/>
<polygon fill="black" stroke="black" points="2665.97,-1827.21 2676.38,-1825.24 2667.01,-1820.29 2665.97,-1827.21"/>
<text text-anchor="start" x="2372.97" y="-1789.76" font-family="Times New Roman,serif" font-size="14.00">nephew</text>
</g>
<!-- Entity8&#45;&gt;Entity53 -->
<g id="edge26" class="edge verb">
<title>Entity8&#45;&gt;Entity53</title>
<path fill="none" stroke="black" d="M2105.59,-1758.13C2075.39,-1841.79 1948.78,-2192.53 1912.33,-2293.5"/>
<polygon fill="black" stroke="black" points="1909.01,-2292.41 1908.91,-2303 1915.59,-2294.78 1909.01,-2292.41"/>
<text text-anchor="start" x="1998.96" y="-2029.62" font-family="Times New Roman,serif" font-size="14.00">is</text>
</g>
<!-- Entity34 -->
<g id="node14" class="node entity">
<title>Entity34</title>
<ellipse fill="none" stroke="black" cx="691.54" cy="-3003.23" rx="90.98" ry="18"/>
<text text-anchor="start" x="629.54" y="-2999.53" font-family="Times New Roman,serif" font-size="14.00">emma hardinge&#45;britten</text>
</g>
<!-- Entity38 -->
<g id="node15" class="node entity">
<title>Entity38</title>
<ellipse fill="none" stroke="black" cx="1326.71" cy="-2578.13" rx="67.69" ry="18"/>
<text text-anchor="start" x="1282.71" y="-2574.43" font-family="Times New Roman,serif" font-size="14.00">abraham lincoln</text>
</g>
<!-- Entity34&#45;&gt;Entity38 -->
<g id="edge12" class="edge verb">
<title>Entity34&#45;&gt;Entity38</title>
<path fill="none" stroke="black" d="M717.63,-2985.78C818.09,-2918.54 1179.97,-2676.34 1292.84,-2600.8"/>
<polygon fill="black" stroke="black" points="1295.09,-2603.51 1301.46,-2595.04 1291.2,-2597.69 1295.09,-2603.51"/>
<text text-anchor="start" x="926.24" y="-2797.09" font-family="Times New Roman,serif" font-size="14.00">spokesperson</text>
</g>
<!-- Entity59 -->
<g id="node37" class="node entity">
<title>Entity59</title>
<ellipse fill="none" stroke="black" cx="927.65" cy="-3640.64" rx="85.29" ry="18"/>
<text text-anchor="start" x="870.15" y="-3636.94" font-family="Times New Roman,serif" font-size="14.00">theosophical society</text>
</g>
<!-- Entity34&#45;&gt;Entity59 -->
<g id="edge42" class="edge verb">
<title>Entity34&#45;&gt;Entity59</title>
<path fill="none" stroke="black" d="M698.23,-3021.28C731.27,-3110.49 877.14,-3504.3 917.35,-3612.85"/>
<polygon fill="black" stroke="black" points="914.15,-3614.28 920.91,-3622.44 920.71,-3611.85 914.15,-3614.28"/>
<text text-anchor="start" x="773.79" y="-3320.87" font-family="Times New Roman,serif" font-size="14.00">create</text>
</g>
<!-- Entity68 -->
<g id="node50" class="node entity">
<title>Entity68</title>
<ellipse fill="none" stroke="black" cx="196.22" cy="-3307.64" rx="39.79" ry="18"/>
<text text-anchor="start" x="173.72" y="-3303.94" font-family="Times New Roman,serif" font-size="14.00">medium</text>
</g>
<!-- Entity34&#45;&gt;Entity68 -->
<g id="edge46" class="edge verb">
<title>Entity34&#45;&gt;Entity68</title>
<path fill="none" stroke="black" d="M663.49,-3020.47C577.74,-3073.18 319.35,-3231.97 228.36,-3287.89"/>
<polygon fill="black" stroke="black" points="226.52,-3284.91 219.84,-3293.13 230.19,-3290.88 226.52,-3284.91"/>
<text text-anchor="start" x="435.93" y="-3157.98" font-family="Times New Roman,serif" font-size="14.00">is</text>
</g>
<!-- Entity69 -->
<g id="node60" class="node entity">
<title>Entity69</title>
<ellipse fill="none" stroke="black" cx="55.98" cy="-3065.71" rx="55.79" ry="18"/>
<text text-anchor="start" x="20.98" y="-3062.01" font-family="Times New Roman,serif" font-size="14.00">orphic circle</text>
</g>
<!-- Entity34&#45;&gt;Entity69 -->
<g id="edge67" class="edge verb">
<title>Entity34&#45;&gt;Entity69</title>
<path fill="none" stroke="black" d="M609.76,-3011.27C481.53,-3023.88 235.87,-3048.03 119.77,-3059.44"/>
<polygon fill="black" stroke="black" points="119.23,-3055.97 109.62,-3060.44 119.91,-3062.94 119.23,-3055.97"/>
<text text-anchor="start" x="318.76" y="-3039.16" font-family="Times New Roman,serif" font-size="14.00">member</text>
</g>
<!-- Entity38&#45;&gt;Entity53 -->
<g id="edge52" class="edge verb">
<title>Entity38&#45;&gt;Entity53</title>
<path fill="none" stroke="black" d="M1361.43,-2562.62C1464.24,-2516.67 1766.28,-2381.68 1868.34,-2336.06"/>
<polygon fill="black" stroke="black" points="1869.87,-2339.21 1877.58,-2331.93 1867.02,-2332.82 1869.87,-2339.21"/>
<text text-anchor="start" x="1604.88" y="-2453.14" font-family="Times New Roman,serif" font-size="14.00">is</text>
</g>
<!-- Entity26 -->
<g id="node16" class="node entity">
<title>Entity26</title>
<ellipse fill="none" stroke="black" cx="764.59" cy="-2294.78" rx="53.89" ry="18"/>
<text text-anchor="start" x="731.09" y="-2291.08" font-family="Times New Roman,serif" font-size="14.00">edgar casey</text>
</g>
<!-- Entity27 -->
<g id="node17" class="node entity">
<title>Entity27</title>
<ellipse fill="none" stroke="black" cx="1308.42" cy="-2248.65" rx="71.49" ry="18"/>
<text text-anchor="start" x="1261.42" y="-2244.95" font-family="Times New Roman,serif" font-size="14.00">woodrow wilson</text>
</g>
<!-- Entity26&#45;&gt;Entity27 -->
<g id="edge13" class="edge verb">
<title>Entity26&#45;&gt;Entity27</title>
<path fill="none" stroke="black" d="M817.23,-2290.32C913.39,-2282.16 1117.88,-2264.81 1230.32,-2255.27"/>
<polygon fill="black" stroke="black" points="1230.9,-2258.73 1240.57,-2254.4 1230.31,-2251.76 1230.9,-2258.73"/>
<text text-anchor="start" x="987.77" y="-2276.59" font-family="Times New Roman,serif" font-size="14.00">advise</text>
</g>
<!-- Entity27&#45;&gt;Entity53 -->
<g id="edge39" class="edge verb">
<title>Entity27&#45;&gt;Entity53</title>
<path fill="none" stroke="black" d="M1372.84,-2256.47C1495.7,-2271.39 1760.28,-2303.53 1861.73,-2315.86"/>
<polygon fill="black" stroke="black" points="1861.53,-2319.36 1871.88,-2317.09 1862.37,-2312.41 1861.53,-2319.36"/>
<text text-anchor="start" x="1607.29" y="-2289.96" font-family="Times New Roman,serif" font-size="14.00">is</text>
</g>
<!-- Entity58 -->
<g id="node58" class="node entity">
<title>Entity58</title>
<ellipse fill="none" stroke="black" cx="733.85" cy="-2034.92" rx="71.49" ry="18"/>
<text text-anchor="start" x="686.85" y="-2031.22" font-family="Times New Roman,serif" font-size="14.00">leauge of nations</text>
</g>
<!-- Entity27&#45;&gt;Entity58 -->
<g id="edge65" class="edge verb">
<title>Entity27&#45;&gt;Entity58</title>
<path fill="none" stroke="black" d="M1268.02,-2233.62C1165.51,-2195.49 895.53,-2095.06 783.59,-2053.42"/>
<polygon fill="black" stroke="black" points="784.8,-2050.14 774.21,-2049.93 782.36,-2056.7 784.8,-2050.14"/>
<text text-anchor="start" x="991.8" y="-2147.32" font-family="Times New Roman,serif" font-size="14.00">create</text>
</g>
<!-- Entity17 -->
<g id="node19" class="node entity">
<title>Entity17</title>
<ellipse fill="none" stroke="black" cx="3088.49" cy="-2130.55" rx="27" ry="18"/>
<text text-anchor="start" x="3080.49" y="-2126.85" font-family="Times New Roman,serif" font-size="14.00">cia</text>
</g>
<!-- Entity30&#45;&gt;Entity17 -->
<g id="edge14" class="edge verb">
<title>Entity30&#45;&gt;Entity17</title>
<path fill="none" stroke="black" d="M2743.37,-1848.94C2805.81,-1899.89 2993.97,-2053.42 3062.86,-2109.64"/>
<polygon fill="black" stroke="black" points="3061.06,-2112.69 3071.02,-2116.3 3065.49,-2107.26 3061.06,-2112.69"/>
<text text-anchor="start" x="2857.12" y="-1983.09" font-family="Times New Roman,serif" font-size="14.00">member</text>
</g>
<!-- Entity67 -->
<g id="node47" class="node entity">
<title>Entity67</title>
<ellipse fill="none" stroke="black" cx="2949.5" cy="-1440.68" rx="50.89" ry="18"/>
<text text-anchor="start" x="2918.5" y="-1436.98" font-family="Times New Roman,serif" font-size="14.00">nikola tesla</text>
</g>
<!-- Entity30&#45;&gt;Entity67 -->
<g id="edge41" class="edge verb">
<title>Entity30&#45;&gt;Entity67</title>
<path fill="none" stroke="black" d="M2733.26,-1814.42C2769.46,-1751.86 2890.74,-1542.23 2934,-1467.46"/>
<polygon fill="black" stroke="black" points="2937.13,-1469.03 2939.11,-1458.62 2931.07,-1465.53 2937.13,-1469.03"/>
<text text-anchor="start" x="2802.63" y="-1644.74" font-family="Times New Roman,serif" font-size="14.00">study</text>
</g>
<!-- Entity17&#45;&gt;Entity55 -->
<g id="edge28" class="edge verb">
<title>Entity17&#45;&gt;Entity55</title>
<path fill="none" stroke="black" d="M3110.87,-2140.65C3198.93,-2180.4 3522.58,-2326.49 3642.33,-2380.54"/>
<polygon fill="black" stroke="black" points="3641.05,-2383.8 3651.6,-2384.73 3643.93,-2377.42 3641.05,-2383.8"/>
<text text-anchor="start" x="3312.6" y="-2264.4" font-family="Times New Roman,serif" font-size="14.00">investigates</text>
</g>
<!-- Entity54 -->
<g id="node52" class="node entity">
<title>Entity54</title>
<ellipse fill="none" stroke="black" cx="2728.04" cy="-2165.79" rx="27" ry="18"/>
<text text-anchor="start" x="2718.54" y="-2162.09" font-family="Times New Roman,serif" font-size="14.00">ufo</text>
</g>
<!-- Entity17&#45;&gt;Entity54 -->
<g id="edge55" class="edge verb">
<title>Entity17&#45;&gt;Entity54</title>
<path fill="none" stroke="black" d="M3061.69,-2133.17C2998.09,-2139.39 2837.92,-2155.05 2765.1,-2162.17"/>
<polygon fill="black" stroke="black" points="2764.62,-2158.7 2755.01,-2163.15 2765.3,-2165.66 2764.62,-2158.7"/>
<text text-anchor="start" x="2849.39" y="-2151.47" font-family="Times New Roman,serif" font-size="14.00">investigates</text>
</g>
<!-- Entity40 -->
<g id="node20" class="node entity">
<title>Entity40</title>
<ellipse fill="none" stroke="black" cx="5281.43" cy="-3334.49" rx="57.69" ry="18"/>
<text text-anchor="start" x="5244.93" y="-3330.79" font-family="Times New Roman,serif" font-size="14.00">michael pane</text>
</g>
<!-- Entity37 -->
<g id="node21" class="node entity">
<title>Entity37</title>
<ellipse fill="none" stroke="black" cx="4812.75" cy="-3376.27" rx="74.99" ry="18"/>
<text text-anchor="start" x="4763.25" y="-3372.57" font-family="Times New Roman,serif" font-size="14.00">walter dornberger</text>
</g>
<!-- Entity40&#45;&gt;Entity37 -->
<g id="edge15" class="edge verb">
<title>Entity40&#45;&gt;Entity37</title>
<path fill="none" stroke="black" d="M5225.36,-3339.49C5142.72,-3346.85 4987.81,-3360.66 4893.1,-3369.1"/>
<polygon fill="black" stroke="black" points="4892.64,-3365.63 4882.99,-3370 4893.27,-3372.6 4892.64,-3365.63"/>
<text text-anchor="start" x="5005.23" y="-3358.1" font-family="Times New Roman,serif" font-size="14.00">employee</text>
</g>
<!-- Entity40&#45;&gt;Entity56 -->
<g id="edge63" class="edge verb">
<title>Entity40&#45;&gt;Entity56</title>
<path fill="none" stroke="black" d="M5228.16,-3327.12C5132.97,-3313.95 4934.32,-3286.45 4834.58,-3272.65"/>
<polygon fill="black" stroke="black" points="4835.04,-3269.18 4824.66,-3271.28 4834.09,-3276.11 4835.04,-3269.18"/>
<text text-anchor="start" x="4977.37" y="-3303.68" font-family="Times New Roman,serif" font-size="14.00">employee</text>
</g>
<!-- Entity51 -->
<g id="node22" class="node entity">
<title>Entity51</title>
<ellipse fill="none" stroke="black" cx="4382.94" cy="-3753.85" rx="32.49" ry="18"/>
<text text-anchor="start" x="4365.94" y="-3750.15" font-family="Times New Roman,serif" font-size="14.00">nsdap</text>
</g>
<!-- Entity37&#45;&gt;Entity51 -->
<g id="edge16" class="edge verb">
<title>Entity37&#45;&gt;Entity51</title>
<path fill="none" stroke="black" d="M4792.88,-3393.72C4722.79,-3455.29 4487.09,-3662.35 4408.61,-3731.3"/>
<polygon fill="black" stroke="black" points="4405.87,-3729.05 4400.67,-3738.28 4410.49,-3734.31 4405.87,-3729.05"/>
<text text-anchor="start" x="4554.74" y="-3566.31" font-family="Times New Roman,serif" font-size="14.00">member</text>
</g>
<!-- Entity37&#45;&gt;Entity56 -->
<g id="edge33" class="edge verb">
<title>Entity37&#45;&gt;Entity56</title>
<path fill="none" stroke="black" d="M4811.83,-3358.16C4807.78,-3340.1 4798.66,-3312.18 4790.29,-3291.49"/>
<polygon fill="black" stroke="black" points="4793.5,-3290.11 4786.39,-3282.26 4787.06,-3292.84 4793.5,-3290.11"/>
<text text-anchor="start" x="4747.06" y="-3313.62" font-family="Times New Roman,serif" font-size="14.00">employee</text>
</g>
<!-- Entity37&#45;&gt;Entity56 -->
<g id="edge43" class="edge verb">
<title>Entity37&#45;&gt;Entity56</title>
<path fill="none" stroke="black" d="M4801.14,-3358.47C4793.24,-3340.72 4783.7,-3313.22 4778.15,-3292.52"/>
<polygon fill="black" stroke="black" points="4781.51,-3291.54 4775.7,-3282.68 4774.72,-3293.23 4781.51,-3291.54"/>
<text text-anchor="start" x="4710.64" y="-3329.29" font-family="Times New Roman,serif" font-size="14.00">vice&#45;president</text>
</g>
<!-- Entity72 -->
<g id="node48" class="node entity">
<title>Entity72</title>
<ellipse fill="none" stroke="black" cx="4601.22" cy="-3496.71" rx="90.98" ry="18"/>
<text text-anchor="start" x="4539.22" y="-3493.01" font-family="Times New Roman,serif" font-size="14.00">nsdap rocket program</text>
</g>
<!-- Entity37&#45;&gt;Entity72 -->
<g id="edge44" class="edge verb">
<title>Entity37&#45;&gt;Entity72</title>
<path fill="none" stroke="black" d="M4783.34,-3393.01C4746,-3414.27 4681.49,-3451 4640.12,-3474.56"/>
<polygon fill="black" stroke="black" points="4638.36,-3471.53 4631.4,-3479.52 4641.83,-3477.61 4638.36,-3471.53"/>
<text text-anchor="start" x="4677.73" y="-3437.59" font-family="Times New Roman,serif" font-size="14.00">create</text>
</g>
<!-- Entity73 -->
<g id="node61" class="node entity">
<title>Entity73</title>
<ellipse fill="none" stroke="black" cx="5353.38" cy="-3664.96" rx="65.79" ry="18"/>
<text text-anchor="start" x="5310.88" y="-3661.26" font-family="Times New Roman,serif" font-size="14.00">x series aircraft</text>
</g>
<!-- Entity37&#45;&gt;Entity73 -->
<g id="edge68" class="edge verb">
<title>Entity37&#45;&gt;Entity73</title>
<path fill="none" stroke="black" d="M4843.76,-3392.82C4936.45,-3442.32 5211.33,-3589.1 5314.06,-3643.96"/>
<polygon fill="black" stroke="black" points="5312.7,-3647.2 5323.17,-3648.83 5315.99,-3641.03 5312.7,-3647.2"/>
<text text-anchor="start" x="5044.91" y="-3522.19" font-family="Times New Roman,serif" font-size="14.00">create</text>
</g>
<!-- Entity74 -->
<g id="node41" class="node entity">
<title>Entity74</title>
<ellipse fill="none" stroke="black" cx="3938.82" cy="-3719.88" rx="38.99" ry="18"/>
<text text-anchor="start" x="3916.82" y="-3716.18" font-family="Times New Roman,serif" font-size="14.00">far right</text>
</g>
<!-- Entity51&#45;&gt;Entity74 -->
<g id="edge48" class="edge verb">
<title>Entity51&#45;&gt;Entity74</title>
<path fill="none" stroke="black" d="M4350.64,-3751.38C4273.66,-3745.49 4079.02,-3730.6 3987.63,-3723.61"/>
<polygon fill="black" stroke="black" points="3987.77,-3720.11 3977.54,-3722.84 3987.24,-3727.09 3987.77,-3720.11"/>
<text text-anchor="start" x="4123.13" y="-3741.3" font-family="Times New Roman,serif" font-size="14.00">member</text>
</g>
<!-- Entity50 -->
<g id="node23" class="node entity">
<title>Entity50</title>
<ellipse fill="none" stroke="black" cx="1034.01" cy="-1663.38" rx="37.89" ry="18"/>
<text text-anchor="start" x="1013.01" y="-1659.68" font-family="Times New Roman,serif" font-size="14.00">hunt oil</text>
</g>
<!-- Entity48 -->
<g id="node24" class="node entity">
<title>Entity48</title>
<ellipse fill="none" stroke="black" cx="1450.62" cy="-1965.7" rx="77.99" ry="18"/>
<text text-anchor="start" x="1398.62" y="-1962" font-family="Times New Roman,serif" font-size="14.00">dwight eisenhower</text>
</g>
<!-- Entity50&#45;&gt;Entity48 -->
<g id="edge18" class="edge verb">
<title>Entity50&#45;&gt;Entity48</title>
<path fill="none" stroke="black" d="M1054.96,-1678.58C1122.78,-1727.79 1336.69,-1883.03 1418.43,-1942.35"/>
<polygon fill="black" stroke="black" points="1416.68,-1945.4 1426.83,-1948.44 1420.79,-1939.73 1416.68,-1945.4"/>
<text text-anchor="start" x="1210.7" y="-1814.26" font-family="Times New Roman,serif" font-size="14.00">fund</text>
</g>
<!-- Entity48&#45;&gt;Entity53 -->
<g id="edge53" class="edge verb">
<title>Entity48&#45;&gt;Entity53</title>
<path fill="none" stroke="black" d="M1472.72,-1983.07C1547.94,-2042.19 1793.88,-2235.46 1875.72,-2299.78"/>
<polygon fill="black" stroke="black" points="1873.97,-2302.85 1884,-2306.28 1878.3,-2297.35 1873.97,-2302.85"/>
<text text-anchor="start" x="1664.22" y="-2145.22" font-family="Times New Roman,serif" font-size="14.00">is</text>
</g>
<!-- Entity46 -->
<g id="node25" class="node entity">
<title>Entity46</title>
<ellipse fill="none" stroke="black" cx="5045.3" cy="-3820.35" rx="46.29" ry="18"/>
<text text-anchor="start" x="5017.8" y="-3816.65" font-family="Times New Roman,serif" font-size="14.00">van braun</text>
</g>
<!-- Entity46&#45;&gt;Entity37 -->
<g id="edge19" class="edge verb">
<title>Entity46&#45;&gt;Entity37</title>
<path fill="none" stroke="black" d="M5036.04,-3802.67C5000.21,-3734.24 4870.47,-3486.5 4827.04,-3403.54"/>
<polygon fill="black" stroke="black" points="4830.03,-3401.72 4822.29,-3394.49 4823.83,-3404.97 4830.03,-3401.72"/>
<text text-anchor="start" x="4877.54" y="-3606.91" font-family="Times New Roman,serif" font-size="14.00">employee</text>
</g>
<!-- Entity46&#45;&gt;Entity72 -->
<g id="edge47" class="edge verb">
<title>Entity46&#45;&gt;Entity72</title>
<path fill="none" stroke="black" d="M5023.28,-3804.3C4950.78,-3751.46 4719.28,-3582.75 4633.55,-3520.27"/>
<polygon fill="black" stroke="black" points="4635.39,-3517.28 4625.25,-3514.22 4631.27,-3522.94 4635.39,-3517.28"/>
<text text-anchor="start" x="4774.42" y="-3666.09" font-family="Times New Roman,serif" font-size="14.00">employee</text>
</g>
<!-- Entity49 -->
<g id="node26" class="node entity">
<title>Entity49</title>
<ellipse fill="none" stroke="black" cx="4515.01" cy="-4134.58" rx="49.29" ry="18"/>
<text text-anchor="start" x="4485.01" y="-4130.88" font-family="Times New Roman,serif" font-size="14.00">adolf hitler</text>
</g>
<!-- Entity49&#45;&gt;Entity51 -->
<g id="edge20" class="edge verb">
<title>Entity49&#45;&gt;Entity51</title>
<path fill="none" stroke="black" d="M4508.73,-4116.47C4487.43,-4055.08 4417.87,-3854.56 4392.4,-3781.12"/>
<polygon fill="black" stroke="black" points="4395.69,-3779.93 4389.1,-3771.63 4389.07,-3782.22 4395.69,-3779.93"/>
<text text-anchor="start" x="4416.56" y="-3952.6" font-family="Times New Roman,serif" font-size="14.00">create</text>
</g>
<!-- Entity45&#45;&gt;Entity74 -->
<g id="edge34" class="edge verb">
<title>Entity45&#45;&gt;Entity74</title>
<path fill="none" stroke="black" d="M3476.59,-3560.7C3569.83,-3592.81 3803.42,-3673.25 3898.05,-3705.84"/>
<polygon fill="black" stroke="black" points="3896.97,-3709.17 3907.57,-3709.11 3899.25,-3702.55 3896.97,-3709.17"/>
<text text-anchor="start" x="3641.32" y="-3637.07" font-family="Times New Roman,serif" font-size="14.00">member</text>
</g>
<!-- Entity79 -->
<g id="node30" class="node entity">
<title>Entity79</title>
<ellipse fill="none" stroke="black" cx="2556.94" cy="-1282.66" rx="27" ry="18"/>
<text text-anchor="start" x="2546.94" y="-1278.96" font-family="Times New Roman,serif" font-size="14.00">foo</text>
</g>
<!-- Entity80 -->
<g id="node31" class="node entity">
<title>Entity80</title>
<ellipse fill="none" stroke="black" cx="2644.66" cy="-1394.64" rx="27" ry="18"/>
<text text-anchor="start" x="2634.66" y="-1390.94" font-family="Times New Roman,serif" font-size="14.00">baz</text>
</g>
<!-- Entity79&#45;&gt;Entity80 -->
<g id="edge24" class="edge verb">
<title>Entity79&#45;&gt;Entity80</title>
<path fill="none" stroke="black" d="M2569.51,-1298.7C2584.23,-1317.5 2608.76,-1348.82 2625.78,-1370.53"/>
<polygon fill="black" stroke="black" points="2623.19,-1372.91 2632.11,-1378.62 2628.7,-1368.59 2623.19,-1372.91"/>
<text text-anchor="start" x="2577.64" y="-1338.42" font-family="Times New Roman,serif" font-size="14.00">baz</text>
</g>
<!-- Entity13 -->
<g id="node32" class="node entity">
<title>Entity13</title>
<ellipse fill="none" stroke="black" cx="1708.59" cy="-2654.77" rx="58.49" ry="18"/>
<text text-anchor="start" x="1671.59" y="-2651.07" font-family="Times New Roman,serif" font-size="14.00">richard nixon</text>
</g>
<!-- Entity13&#45;&gt;Entity53 -->
<g id="edge25" class="edge verb">
<title>Entity13&#45;&gt;Entity53</title>
<path fill="none" stroke="black" d="M1719.01,-2636.81C1751.25,-2581.29 1849.43,-2412.17 1887.33,-2346.89"/>
<polygon fill="black" stroke="black" points="1890.48,-2348.45 1892.47,-2338.04 1884.42,-2344.93 1890.48,-2348.45"/>
<text text-anchor="start" x="1793.17" y="-2495.65" font-family="Times New Roman,serif" font-size="14.00">is</text>
</g>
<!-- Entity10 -->
<g id="node33" class="node entity">
<title>Entity10</title>
<ellipse fill="none" stroke="black" cx="1782.09" cy="-2822.7" rx="56.59" ry="18"/>
<text text-anchor="start" x="1746.59" y="-2819" font-family="Times New Roman,serif" font-size="14.00">harry truman</text>
</g>
<!-- Entity10&#45;&gt;Entity53 -->
<g id="edge27" class="edge verb">
<title>Entity10&#45;&gt;Entity53</title>
<path fill="none" stroke="black" d="M1786.44,-2804.54C1804.55,-2729.06 1873.93,-2439.82 1895.82,-2348.56"/>
<polygon fill="black" stroke="black" points="1899.26,-2349.22 1898.19,-2338.68 1892.45,-2347.58 1899.26,-2349.22"/>
<text text-anchor="start" x="1831.13" y="-2580.35" font-family="Times New Roman,serif" font-size="14.00">is</text>
</g>
<!-- Entity57 -->
<g id="node43" class="node entity">
<title>Entity57</title>
<ellipse fill="none" stroke="black" cx="1749.6" cy="-2954.97" rx="55.79" ry="18"/>
<text text-anchor="start" x="1714.6" y="-2951.27" font-family="Times New Roman,serif" font-size="14.00">freemasonry</text>
</g>
<!-- Entity10&#45;&gt;Entity57 -->
<g id="edge36" class="edge verb">
<title>Entity10&#45;&gt;Entity57</title>
<path fill="none" stroke="black" d="M1777.64,-2840.81C1772.2,-2862.95 1762.94,-2900.66 1756.56,-2926.65"/>
<polygon fill="black" stroke="black" points="1753.09,-2926.1 1754.1,-2936.65 1759.89,-2927.77 1753.09,-2926.1"/>
<text text-anchor="start" x="1721.1" y="-2887.53" font-family="Times New Roman,serif" font-size="14.00">member</text>
</g>
<!-- Entity22 -->
<g id="node35" class="node entity">
<title>Entity22</title>
<ellipse fill="none" stroke="black" cx="1421.74" cy="-3824.83" rx="58.49" ry="18"/>
<text text-anchor="start" x="1384.74" y="-3821.13" font-family="Times New Roman,serif" font-size="14.00">rudolf steiner</text>
</g>
<!-- Entity60 -->
<g id="node36" class="node entity">
<title>Entity60</title>
<ellipse fill="none" stroke="black" cx="1492.29" cy="-3934.17" rx="102.08" ry="18"/>
<text text-anchor="start" x="1421.79" y="-3930.47" font-family="Times New Roman,serif" font-size="14.00">anthroposophical society</text>
</g>
<!-- Entity22&#45;&gt;Entity60 -->
<g id="edge29" class="edge verb">
<title>Entity22&#45;&gt;Entity60</title>
<path fill="none" stroke="black" d="M1433.39,-3842.88C1444.78,-3860.53 1462.24,-3887.6 1475.2,-3907.68"/>
<polygon fill="black" stroke="black" points="1472.26,-3909.58 1480.62,-3916.09 1478.14,-3905.79 1472.26,-3909.58"/>
<text text-anchor="start" x="1420.29" y="-3879.08" font-family="Times New Roman,serif" font-size="14.00">create</text>
</g>
<!-- Entity22&#45;&gt;Entity59 -->
<g id="edge30" class="edge verb">
<title>Entity22&#45;&gt;Entity59</title>
<path fill="none" stroke="black" d="M1384.2,-3810.83C1296.8,-3778.25 1079.6,-3697.28 979.58,-3660"/>
<polygon fill="black" stroke="black" points="980.58,-3656.64 969.98,-3656.42 978.13,-3663.19 980.58,-3656.64"/>
<text text-anchor="start" x="1135.89" y="-3739.22" font-family="Times New Roman,serif" font-size="14.00">member</text>
</g>
<!-- Entity44 -->
<g id="node39" class="node entity">
<title>Entity44</title>
<ellipse fill="none" stroke="black" cx="3342.94" cy="-1282.66" rx="53.89" ry="18"/>
<text text-anchor="start" x="3309.44" y="-1278.96" font-family="Times New Roman,serif" font-size="14.00">black magic</text>
</g>
<!-- Entity71 -->
<g id="node40" class="node entity">
<title>Entity71</title>
<ellipse fill="none" stroke="black" cx="3430.66" cy="-1394.64" rx="28.7" ry="18"/>
<text text-anchor="start" x="3416.66" y="-1390.94" font-family="Times New Roman,serif" font-size="14.00">x left</text>
</g>
<!-- Entity44&#45;&gt;Entity71 -->
<g id="edge32" class="edge verb">
<title>Entity44&#45;&gt;Entity71</title>
<path fill="none" stroke="black" d="M3356.64,-1300.16C3371.45,-1319.05 3395.14,-1349.29 3411.72,-1370.45"/>
<polygon fill="black" stroke="black" points="3408.98,-1372.64 3417.9,-1378.36 3414.49,-1368.32 3408.98,-1372.64"/>
<text text-anchor="start" x="3338.18" y="-1339.11" font-family="Times New Roman,serif" font-size="14.00">member</text>
</g>
<!-- Entity21 -->
<g id="node42" class="node entity">
<title>Entity21</title>
<ellipse fill="none" stroke="black" cx="1644.7" cy="-2119.74" rx="35.19" ry="18"/>
<text text-anchor="start" x="1625.7" y="-2116.04" font-family="Times New Roman,serif" font-size="14.00">obama</text>
</g>
<!-- Entity21&#45;&gt;Entity53 -->
<g id="edge35" class="edge verb">
<title>Entity21&#45;&gt;Entity53</title>
<path fill="none" stroke="black" d="M1664.08,-2134.85C1709.66,-2170.41 1823.77,-2259.41 1875.83,-2300.02"/>
<polygon fill="black" stroke="black" points="1873.89,-2302.94 1883.92,-2306.33 1878.19,-2297.42 1873.89,-2302.94"/>
<text text-anchor="start" x="1759.95" y="-2221.24" font-family="Times New Roman,serif" font-size="14.00">is</text>
</g>
<!-- Entity14 -->
<g id="node45" class="node entity">
<title>Entity14</title>
<ellipse fill="none" stroke="black" cx="2296.74" cy="-2198.77" rx="31.4" ry="18"/>
<text text-anchor="start" x="2280.74" y="-2195.07" font-family="Times New Roman,serif" font-size="14.00">carter</text>
</g>
<!-- Entity14&#45;&gt;Entity53 -->
<g id="edge38" class="edge verb">
<title>Entity14&#45;&gt;Entity53</title>
<path fill="none" stroke="black" d="M2269.02,-2207.35C2199.74,-2228.8 2018.98,-2284.74 1940.15,-2309.14"/>
<polygon fill="black" stroke="black" points="1938.69,-2305.93 1930.17,-2312.23 1940.76,-2312.62 1938.69,-2305.93"/>
<text text-anchor="start" x="2094.59" y="-2262.05" font-family="Times New Roman,serif" font-size="14.00">is</text>
</g>
<!-- Entity14&#45;&gt;Entity54 -->
<g id="edge64" class="edge verb">
<title>Entity14&#45;&gt;Entity54</title>
<path fill="none" stroke="black" d="M2327.76,-2196.4C2405.28,-2190.47 2607.21,-2175.03 2690.89,-2168.63"/>
<polygon fill="black" stroke="black" points="2691.25,-2172.11 2700.95,-2167.86 2690.72,-2165.13 2691.25,-2172.11"/>
<text text-anchor="start" x="2467.32" y="-2186.32" font-family="Times New Roman,serif" font-size="14.00">witness</text>
</g>
<!-- Entity35 -->
<g id="node54" class="node entity">
<title>Entity35</title>
<ellipse fill="none" stroke="black" cx="3328.94" cy="-2547.66" rx="39.79" ry="18"/>
<text text-anchor="start" x="3306.44" y="-2543.96" font-family="Times New Roman,serif" font-size="14.00">crowley</text>
</g>
<!-- Entity70 -->
<g id="node55" class="node entity">
<title>Entity70</title>
<ellipse fill="none" stroke="black" cx="3416.66" cy="-2659.64" rx="38.99" ry="18"/>
<text text-anchor="start" x="3394.66" y="-2655.94" font-family="Times New Roman,serif" font-size="14.00">x magic</text>
</g>
<!-- Entity35&#45;&gt;Entity70 -->
<g id="edge57" class="edge verb">
<title>Entity35&#45;&gt;Entity70</title>
<path fill="none" stroke="black" d="M3342.26,-2564.67C3356.82,-2583.25 3380.28,-2613.2 3396.96,-2634.49"/>
<polygon fill="black" stroke="black" points="3394.29,-2636.76 3403.21,-2642.47 3399.8,-2632.44 3394.29,-2636.76"/>
<text text-anchor="start" x="3323.61" y="-2603.38" font-family="Times New Roman,serif" font-size="14.00">member</text>
</g>
<!-- Entity24 -->
<g id="node56" class="node entity">
<title>Entity24</title>
<ellipse fill="none" stroke="black" cx="915.64" cy="-3749.36" rx="73.39" ry="18"/>
<text text-anchor="start" x="867.14" y="-3745.66" font-family="Times New Roman,serif" font-size="14.00">madam blavatsky</text>
</g>
<!-- Entity24&#45;&gt;Entity59 -->
<g id="edge61" class="edge verb">
<title>Entity24&#45;&gt;Entity59</title>
<path fill="none" stroke="black" d="M917.67,-3730.92C919.55,-3713.95 922.36,-3688.52 924.52,-3668.97"/>
<polygon fill="black" stroke="black" points="928.02,-3669.13 925.64,-3658.81 921.06,-3668.37 928.02,-3669.13"/>
<text text-anchor="start" x="887.09" y="-3703.75" font-family="Times New Roman,serif" font-size="14.00">create</text>
</g>
<!-- Entity31 -->
<g id="node57" class="node entity">
<title>Entity31</title>
<ellipse fill="none" stroke="black" cx="2519.39" cy="-18.38" rx="69.59" ry="18"/>
<text text-anchor="start" x="2473.89" y="-14.68" font-family="Times New Roman,serif" font-size="14.00">andrew breitbart</text>
</g>
<!-- Entity31&#45;&gt;Entity65 -->
<g id="edge62" class="edge verb">
<title>Entity31&#45;&gt;Entity65</title>
<path fill="none" stroke="black" d="M2515.77,-36.4C2499.38,-117.81 2432.21,-451.52 2412.17,-551.08"/>
<polygon fill="black" stroke="black" points="2408.71,-550.51 2410.17,-561.01 2415.58,-551.9 2408.71,-550.51"/>
<text text-anchor="start" x="2429.97" y="-297.54" font-family="Times New Roman,serif" font-size="14.00">create</text>
</g>
</g>
</svg>
