<?xml version="1.0" encoding="UTF-8" standalone="no"?>
<?xml-stylesheet href="../styles.css" type="text/css"?>
<!DOCTYPE svg PUBLIC "-//W3C//DTD SVG 1.1//EN"
 "http://www.w3.org/Graphics/SVG/1.1/DTD/svg11.dtd">
<!-- Generated by graphviz version 2.47.3 (20210619.1520)
 -->
<!-- Title: G Pages: 1 -->
<svg width="4879pt" height="4659pt"
 viewBox="0.00 0.00 4879.00 4659.00" xmlns="http://www.w3.org/2000/svg" xmlns:xlink="http://www.w3.org/1999/xlink">
<g id="graph0" class="graph" transform="scale(1 1) rotate(0) translate(4 4655)">
<title>G</title>
<polygon fill="white" stroke="transparent" points="-4,4 -4,-4655 4875,-4655 4875,4 -4,4"/>
<!-- Entity2 -->
<g id="node1" class="node entity">
<title>Entity2</title>
<ellipse fill="none" stroke="black" cx="1581.93" cy="-1993.11" rx="36.29" ry="18"/>
<text text-anchor="start" x="1561.93" y="-1989.41" font-family="Times New Roman,serif" font-size="14.00">oswald</text>
</g>
<!-- Entity14 -->
<g id="node2" class="node entity">
<title>Entity14</title>
<ellipse fill="none" stroke="black" cx="1288.27" cy="-2348.12" rx="27" ry="18"/>
<text text-anchor="start" x="1280.77" y="-2344.42" font-family="Times New Roman,serif" font-size="14.00">jfk</text>
</g>
<!-- Entity2&#45;&gt;Entity14 -->
<g id="edge1" class="edge verb">
<title>Entity2&#45;&gt;Entity14</title>
<path fill="none" stroke="black" d="M1567.77,-2010.23C1519.87,-2068.15 1363.8,-2256.81 1308.18,-2324.05"/>
<polygon fill="black" stroke="black" points="1305.29,-2322.06 1301.61,-2331.99 1310.68,-2326.52 1305.29,-2322.06"/>
<text text-anchor="start" x="1375.98" y="-2170.94" font-family="Times New Roman,serif" font-size="14.00">assassinate</text>
</g>
<!-- Entity49 -->
<g id="node42" class="node entity">
<title>Entity49</title>
<ellipse fill="none" stroke="black" cx="1997" cy="-1631.66" rx="59.29" ry="18"/>
<text text-anchor="start" x="1959.5" y="-1627.96" font-family="Times New Roman,serif" font-size="14.00">guy bannister</text>
</g>
<!-- Entity2&#45;&gt;Entity49 -->
<g id="edge31" class="edge verb">
<title>Entity2&#45;&gt;Entity49</title>
<path fill="none" stroke="black" d="M1600.04,-1977.35C1665.65,-1920.2 1891.3,-1723.7 1969.81,-1655.33"/>
<polygon fill="black" stroke="black" points="1972.12,-1657.96 1977.37,-1648.75 1967.53,-1652.68 1972.12,-1657.96"/>
<text text-anchor="start" x="1730.92" y="-1820.14" font-family="Times New Roman,serif" font-size="14.00">employee</text>
</g>
<!-- Entity57 -->
<g id="node15" class="node entity">
<title>Entity57</title>
<ellipse fill="none" stroke="black" cx="1045.6" cy="-2738.35" rx="31.4" ry="18"/>
<text text-anchor="start" x="1029.6" y="-2734.65" font-family="Times New Roman,serif" font-size="14.00">potus</text>
</g>
<!-- Entity14&#45;&gt;Entity57 -->
<g id="edge8" class="edge verb">
<title>Entity14&#45;&gt;Entity57</title>
<path fill="none" stroke="black" d="M1277.84,-2364.89C1239.74,-2426.17 1107.85,-2638.25 1061.7,-2712.47"/>
<polygon fill="black" stroke="black" points="1058.57,-2710.87 1056.26,-2721.21 1064.52,-2714.57 1058.57,-2710.87"/>
<text text-anchor="start" x="1159.77" y="-2542.48" font-family="Times New Roman,serif" font-size="14.00">is</text>
</g>
<!-- Entity5 -->
<g id="node3" class="node entity">
<title>Entity5</title>
<ellipse fill="none" stroke="black" cx="4692.42" cy="-3139.45" rx="74.99" ry="18"/>
<text text-anchor="start" x="4642.92" y="-3135.75" font-family="Times New Roman,serif" font-size="14.00">gene roddenberry</text>
</g>
<!-- Entity8 -->
<g id="node4" class="node entity">
<title>Entity8</title>
<ellipse fill="none" stroke="black" cx="4201.15" cy="-2988.97" rx="38.19" ry="18"/>
<text text-anchor="start" x="4179.65" y="-2985.27" font-family="Times New Roman,serif" font-size="14.00">the nine</text>
</g>
<!-- Entity5&#45;&gt;Entity8 -->
<g id="edge2" class="edge verb">
<title>Entity5&#45;&gt;Entity8</title>
<path fill="none" stroke="black" d="M4646.2,-3125.29C4551.12,-3096.16 4334.86,-3029.92 4243.32,-3001.89"/>
<polygon fill="black" stroke="black" points="4244.16,-2998.48 4233.57,-2998.9 4242.11,-3005.17 4244.16,-2998.48"/>
<text text-anchor="start" x="4340.76" y="-3067.39" font-family="Times New Roman,serif" font-size="14.00">claiemd to channel</text>
</g>
<!-- Entity60 -->
<g id="node28" class="node entity">
<title>Entity60</title>
<ellipse fill="none" stroke="black" cx="4776.94" cy="-2892.75" rx="94.48" ry="18"/>
<text text-anchor="start" x="4712.44" y="-2889.05" font-family="Times New Roman,serif" font-size="14.00">egyptian gods in a ship</text>
</g>
<!-- Entity8&#45;&gt;Entity60 -->
<g id="edge16" class="edge verb">
<title>Entity8&#45;&gt;Entity60</title>
<path fill="none" stroke="black" d="M4237.6,-2982.88C4328.83,-2967.63 4568.71,-2927.54 4695.58,-2906.34"/>
<polygon fill="black" stroke="black" points="4696.35,-2909.76 4705.64,-2904.66 4695.2,-2902.86 4696.35,-2909.76"/>
<text text-anchor="start" x="4436.59" y="-2948.41" font-family="Times New Roman,serif" font-size="14.00">claim</text>
</g>
<!-- Entity10 -->
<g id="node5" class="node entity">
<title>Entity10</title>
<ellipse fill="none" stroke="black" cx="571.39" cy="-2638.93" rx="68.49" ry="18"/>
<text text-anchor="start" x="526.89" y="-2635.23" font-family="Times New Roman,serif" font-size="14.00">george hw bush</text>
</g>
<!-- Entity16 -->
<g id="node6" class="node entity">
<title>Entity16</title>
<ellipse fill="none" stroke="black" cx="967.17" cy="-2630.41" rx="63.89" ry="18"/>
<text text-anchor="start" x="926.17" y="-2626.71" font-family="Times New Roman,serif" font-size="14.00">george w bush</text>
</g>
<!-- Entity10&#45;&gt;Entity16 -->
<g id="edge3" class="edge verb">
<title>Entity10&#45;&gt;Entity16</title>
<path fill="none" stroke="black" d="M639.43,-2637.47C710.25,-2635.94 820.79,-2633.56 893.6,-2631.99"/>
<polygon fill="black" stroke="black" points="893.7,-2635.49 903.62,-2631.78 893.54,-2628.49 893.7,-2635.49"/>
<text text-anchor="start" x="734.51" y="-2638.53" font-family="Times New Roman,serif" font-size="14.00">father</text>
</g>
<!-- Entity10&#45;&gt;Entity57 -->
<g id="edge62" class="edge verb">
<title>Entity10&#45;&gt;Entity57</title>
<path fill="none" stroke="black" d="M624.86,-2650.14C721.01,-2670.3 920.97,-2712.22 1005.98,-2730.05"/>
<polygon fill="black" stroke="black" points="1005.49,-2733.52 1016,-2732.15 1006.93,-2726.67 1005.49,-2733.52"/>
<text text-anchor="start" x="805.42" y="-2693.89" font-family="Times New Roman,serif" font-size="14.00">is</text>
</g>
<!-- Entity16&#45;&gt;Entity57 -->
<g id="edge24" class="edge verb">
<title>Entity16&#45;&gt;Entity57</title>
<path fill="none" stroke="black" d="M980.13,-2648.23C993.01,-2665.97 1012.9,-2693.34 1027.38,-2713.27"/>
<polygon fill="black" stroke="black" points="1024.7,-2715.54 1033.41,-2721.57 1030.36,-2711.42 1024.7,-2715.54"/>
<text text-anchor="start" x="993.75" y="-2684.55" font-family="Times New Roman,serif" font-size="14.00">is</text>
</g>
<!-- Entity25 -->
<g id="node7" class="node entity">
<title>Entity25</title>
<ellipse fill="none" stroke="black" cx="784.39" cy="-4064.39" rx="58.49" ry="18"/>
<text text-anchor="start" x="747.39" y="-4060.69" font-family="Times New Roman,serif" font-size="14.00">steve bannon</text>
</g>
<!-- Entity13 -->
<g id="node8" class="node entity">
<title>Entity13</title>
<ellipse fill="none" stroke="black" cx="1165.47" cy="-3396.61" rx="59.59" ry="18"/>
<text text-anchor="start" x="1127.47" y="-3392.91" font-family="Times New Roman,serif" font-size="14.00">donald trump</text>
</g>
<!-- Entity25&#45;&gt;Entity13 -->
<g id="edge4" class="edge verb">
<title>Entity25&#45;&gt;Entity13</title>
<path fill="none" stroke="black" d="M797.3,-4046.7C856.03,-3955.11 1095.67,-3535.45 1153.15,-3423.89"/>
<polygon fill="black" stroke="black" points="1156.44,-3425.14 1157.85,-3414.64 1150.2,-3421.97 1156.44,-3425.14"/>
<text text-anchor="start" x="939.23" y="-3739.09" font-family="Times New Roman,serif" font-size="14.00">advise</text>
</g>
<!-- Entity25&#45;&gt;Entity13 -->
<g id="edge21" class="edge verb">
<title>Entity25&#45;&gt;Entity13</title>
<path fill="none" stroke="black" d="M791.99,-4046.41C838.17,-3953.96 1078.27,-3532.82 1147.12,-3422.9"/>
<polygon fill="black" stroke="black" points="1150.13,-3424.7 1152.52,-3414.38 1144.21,-3420.95 1150.13,-3424.7"/>
<text text-anchor="start" x="921.55" y="-3723.45" font-family="Times New Roman,serif" font-size="14.00">promote</text>
</g>
<!-- Entity64 -->
<g id="node18" class="node entity">
<title>Entity64</title>
<ellipse fill="none" stroke="black" cx="719.33" cy="-4509.06" rx="35.19" ry="18"/>
<text text-anchor="start" x="700.33" y="-4505.36" font-family="Times New Roman,serif" font-size="14.00">gurgev</text>
</g>
<!-- Entity25&#45;&gt;Entity64 -->
<g id="edge10" class="edge verb">
<title>Entity25&#45;&gt;Entity64</title>
<path fill="none" stroke="black" d="M781.75,-4082.38C771.71,-4151.02 735.74,-4396.9 723.47,-4480.78"/>
<polygon fill="black" stroke="black" points="719.98,-4480.45 721.99,-4490.85 726.9,-4481.46 719.98,-4480.45"/>
<text text-anchor="start" x="721.61" y="-4285.38" font-family="Times New Roman,serif" font-size="14.00">study</text>
</g>
<!-- Entity65 -->
<g id="node19" class="node entity">
<title>Entity65</title>
<ellipse fill="none" stroke="black" cx="1062.15" cy="-3802.6" rx="61.99" ry="18"/>
<text text-anchor="start" x="1022.65" y="-3798.9" font-family="Times New Roman,serif" font-size="14.00">breitbart news</text>
</g>
<!-- Entity25&#45;&gt;Entity65 -->
<g id="edge11" class="edge verb">
<title>Entity25&#45;&gt;Entity65</title>
<path fill="none" stroke="black" d="M802.61,-4047.22C850.68,-4001.91 981.01,-3879.08 1036.54,-3826.74"/>
<polygon fill="black" stroke="black" points="1038.98,-3829.25 1043.86,-3819.84 1034.18,-3824.15 1038.98,-3829.25"/>
<text text-anchor="start" x="885.57" y="-3940.78" font-family="Times New Roman,serif" font-size="14.00">create</text>
</g>
<!-- Entity75 -->
<g id="node31" class="node entity">
<title>Entity75</title>
<ellipse fill="none" stroke="black" cx="499" cy="-4418.31" rx="38.19" ry="18"/>
<text text-anchor="start" x="477.5" y="-4414.61" font-family="Times New Roman,serif" font-size="14.00">us navy</text>
</g>
<!-- Entity25&#45;&gt;Entity75 -->
<g id="edge18" class="edge verb">
<title>Entity25&#45;&gt;Entity75</title>
<path fill="none" stroke="black" d="M770.23,-4081.95C723.53,-4139.86 574.18,-4325.08 519.39,-4393.02"/>
<polygon fill="black" stroke="black" points="516.45,-4391.09 512.9,-4401.07 521.9,-4395.48 516.45,-4391.09"/>
<text text-anchor="start" x="598.81" y="-4241.28" font-family="Times New Roman,serif" font-size="14.00">member</text>
</g>
<!-- Entity62 -->
<g id="node35" class="node entity">
<title>Entity62</title>
<ellipse fill="none" stroke="black" cx="304.59" cy="-4267.86" rx="53.09" ry="18"/>
<text text-anchor="start" x="271.59" y="-4264.16" font-family="Times New Roman,serif" font-size="14.00">biosphere 2</text>
</g>
<!-- Entity25&#45;&gt;Entity62 -->
<g id="edge25" class="edge verb">
<title>Entity25&#45;&gt;Entity62</title>
<path fill="none" stroke="black" d="M749.88,-4079.03C664.07,-4115.42 441.2,-4209.93 347.3,-4249.75"/>
<polygon fill="black" stroke="black" points="345.67,-4246.64 337.83,-4253.76 348.4,-4253.08 345.67,-4246.64"/>
<text text-anchor="start" x="514.59" y="-4168.19" font-family="Times New Roman,serif" font-size="14.00">create</text>
</g>
<!-- Entity76 -->
<g id="node55" class="node entity">
<title>Entity76</title>
<ellipse fill="none" stroke="black" cx="852.97" cy="-4632.53" rx="64.99" ry="18"/>
<text text-anchor="start" x="810.97" y="-4628.83" font-family="Times New Roman,serif" font-size="14.00">goldman sachs</text>
</g>
<!-- Entity25&#45;&gt;Entity76 -->
<g id="edge45" class="edge verb">
<title>Entity25&#45;&gt;Entity76</title>
<path fill="none" stroke="black" d="M786.59,-4082.65C796.56,-4165.21 837.44,-4503.9 849.56,-4604.33"/>
<polygon fill="black" stroke="black" points="846.1,-4604.83 850.77,-4614.34 853.05,-4603.99 846.1,-4604.83"/>
<text text-anchor="start" x="764.08" y="-4347.29" font-family="Times New Roman,serif" font-size="14.00">employee</text>
</g>
<!-- Entity79 -->
<g id="node59" class="node entity">
<title>Entity79</title>
<ellipse fill="none" stroke="black" cx="382" cy="-4554.94" rx="77.19" ry="18"/>
<text text-anchor="start" x="330.5" y="-4551.24" font-family="Times New Roman,serif" font-size="14.00">hollywood movies</text>
</g>
<!-- Entity25&#45;&gt;Entity79 -->
<g id="edge54" class="edge verb">
<title>Entity25&#45;&gt;Entity79</title>
<path fill="none" stroke="black" d="M770.06,-4081.85C709.58,-4155.6 474.83,-4441.78 403,-4529.34"/>
<polygon fill="black" stroke="black" points="400.21,-4527.23 396.57,-4537.18 405.62,-4531.67 400.21,-4527.23"/>
<text text-anchor="start" x="539.53" y="-4309.4" font-family="Times New Roman,serif" font-size="14.00">produce</text>
</g>
<!-- Entity13&#45;&gt;Entity57 -->
<g id="edge41" class="edge verb">
<title>Entity13&#45;&gt;Entity57</title>
<path fill="none" stroke="black" d="M1162.14,-3378.32C1145.47,-3286.78 1071.12,-2878.47 1050.77,-2766.71"/>
<polygon fill="black" stroke="black" points="1054.15,-2765.77 1048.92,-2756.56 1047.27,-2767.02 1054.15,-2765.77"/>
<text text-anchor="start" x="1096.46" y="-3076.32" font-family="Times New Roman,serif" font-size="14.00">is</text>
</g>
<!-- Entity33 -->
<g id="node38" class="node entity">
<title>Entity33</title>
<ellipse fill="none" stroke="black" cx="1833.96" cy="-3432.17" rx="50.09" ry="18"/>
<text text-anchor="start" x="1803.46" y="-3428.47" font-family="Times New Roman,serif" font-size="14.00">john trump</text>
</g>
<!-- Entity13&#45;&gt;Entity33 -->
<g id="edge59" class="edge verb">
<title>Entity13&#45;&gt;Entity33</title>
<path fill="none" stroke="black" d="M1224.5,-3399.75C1350.97,-3406.47 1646.87,-3422.21 1774.08,-3428.98"/>
<polygon fill="black" stroke="black" points="1774.23,-3432.49 1784.4,-3429.53 1774.6,-3425.5 1774.23,-3432.49"/>
<text text-anchor="start" x="1456.29" y="-3418.16" font-family="Times New Roman,serif" font-size="14.00">nephew</text>
</g>
<!-- Entity50 -->
<g id="node9" class="node entity">
<title>Entity50</title>
<ellipse fill="none" stroke="black" cx="3034.42" cy="-856.72" rx="49.29" ry="18"/>
<text text-anchor="start" x="3004.42" y="-853.02" font-family="Times New Roman,serif" font-size="14.00">adolf hitler</text>
</g>
<!-- Entity53 -->
<g id="node10" class="node entity">
<title>Entity53</title>
<ellipse fill="none" stroke="black" cx="2869.48" cy="-1240.84" rx="32.49" ry="18"/>
<text text-anchor="start" x="2852.48" y="-1237.14" font-family="Times New Roman,serif" font-size="14.00">nsdap</text>
</g>
<!-- Entity50&#45;&gt;Entity53 -->
<g id="edge5" class="edge verb">
<title>Entity50&#45;&gt;Entity53</title>
<path fill="none" stroke="black" d="M3026.69,-874.73C3000.17,-936.49 2912.8,-1139.96 2881.1,-1213.78"/>
<polygon fill="black" stroke="black" points="2877.74,-1212.74 2877.01,-1223.31 2884.17,-1215.5 2877.74,-1212.74"/>
<text text-anchor="start" x="2919.89" y="-1048.05" font-family="Times New Roman,serif" font-size="14.00">create</text>
</g>
<!-- Entity73 -->
<g id="node51" class="node entity">
<title>Entity73</title>
<ellipse fill="none" stroke="black" cx="2457.51" cy="-1356.13" rx="38.99" ry="18"/>
<text text-anchor="start" x="2435.51" y="-1352.43" font-family="Times New Roman,serif" font-size="14.00">far right</text>
</g>
<!-- Entity53&#45;&gt;Entity73 -->
<g id="edge47" class="edge verb">
<title>Entity53&#45;&gt;Entity73</title>
<path fill="none" stroke="black" d="M2840.18,-1249.04C2768.64,-1269.06 2584.76,-1320.52 2500.66,-1344.05"/>
<polygon fill="black" stroke="black" points="2499.6,-1340.71 2490.91,-1346.78 2501.49,-1347.46 2499.6,-1340.71"/>
<text text-anchor="start" x="2624.42" y="-1300.34" font-family="Times New Roman,serif" font-size="14.00">member</text>
</g>
<!-- Entity52 -->
<g id="node11" class="node entity">
<title>Entity52</title>
<ellipse fill="none" stroke="black" cx="1894.45" cy="-2248.88" rx="37.89" ry="18"/>
<text text-anchor="start" x="1873.45" y="-2245.18" font-family="Times New Roman,serif" font-size="14.00">hunt oil</text>
</g>
<!-- Entity45 -->
<g id="node12" class="node entity">
<title>Entity45</title>
<ellipse fill="none" stroke="black" cx="1480.26" cy="-2493.36" rx="77.99" ry="18"/>
<text text-anchor="start" x="1428.26" y="-2489.66" font-family="Times New Roman,serif" font-size="14.00">dwight eisenhower</text>
</g>
<!-- Entity52&#45;&gt;Entity45 -->
<g id="edge6" class="edge verb">
<title>Entity52&#45;&gt;Entity45</title>
<path fill="none" stroke="black" d="M1870.7,-2262.91C1801.7,-2303.63 1600.94,-2422.13 1517.4,-2471.43"/>
<polygon fill="black" stroke="black" points="1515.58,-2468.44 1508.75,-2476.54 1519.14,-2474.47 1515.58,-2468.44"/>
<text text-anchor="start" x="1668.05" y="-2370.97" font-family="Times New Roman,serif" font-size="14.00">fund</text>
</g>
<!-- Entity45&#45;&gt;Entity57 -->
<g id="edge51" class="edge verb">
<title>Entity45&#45;&gt;Entity57</title>
<path fill="none" stroke="black" d="M1450.38,-2510.2C1371.5,-2554.66 1158.16,-2674.91 1077.27,-2720.5"/>
<polygon fill="black" stroke="black" points="1075.08,-2717.72 1068.09,-2725.68 1078.52,-2723.82 1075.08,-2717.72"/>
<text text-anchor="start" x="1253.83" y="-2619.15" font-family="Times New Roman,serif" font-size="14.00">is</text>
</g>
<!-- Entity7 -->
<g id="node13" class="node entity">
<title>Entity7</title>
<ellipse fill="none" stroke="black" cx="594.02" cy="-2488.47" rx="56.59" ry="18"/>
<text text-anchor="start" x="558.52" y="-2484.77" font-family="Times New Roman,serif" font-size="14.00">harry truman</text>
</g>
<!-- Entity55 -->
<g id="node14" class="node entity">
<title>Entity55</title>
<ellipse fill="none" stroke="black" cx="85.09" cy="-2338.61" rx="55.79" ry="18"/>
<text text-anchor="start" x="50.09" y="-2334.91" font-family="Times New Roman,serif" font-size="14.00">freemasonry</text>
</g>
<!-- Entity7&#45;&gt;Entity55 -->
<g id="edge7" class="edge verb">
<title>Entity7&#45;&gt;Entity55</title>
<path fill="none" stroke="black" d="M552.37,-2476.21C459.78,-2448.94 237.11,-2383.37 136.26,-2353.67"/>
<polygon fill="black" stroke="black" points="137.18,-2350.3 126.6,-2350.83 135.2,-2357.01 137.18,-2350.3"/>
<text text-anchor="start" x="298.31" y="-2418.74" font-family="Times New Roman,serif" font-size="14.00">member</text>
</g>
<!-- Entity7&#45;&gt;Entity57 -->
<g id="edge28" class="edge verb">
<title>Entity7&#45;&gt;Entity57</title>
<path fill="none" stroke="black" d="M622.26,-2504.11C702.29,-2548.39 930.16,-2674.48 1014.08,-2720.91"/>
<polygon fill="black" stroke="black" points="1012.45,-2724.01 1022.89,-2725.79 1015.84,-2717.89 1012.45,-2724.01"/>
<text text-anchor="start" x="808.17" y="-2616.31" font-family="Times New Roman,serif" font-size="14.00">is</text>
</g>
<!-- Entity17 -->
<g id="node16" class="node entity">
<title>Entity17</title>
<ellipse fill="none" stroke="black" cx="1496.84" cy="-2928.22" rx="31.4" ry="18"/>
<text text-anchor="start" x="1480.84" y="-2924.52" font-family="Times New Roman,serif" font-size="14.00">carter</text>
</g>
<!-- Entity17&#45;&gt;Entity57 -->
<g id="edge48" class="edge verb">
<title>Entity17&#45;&gt;Entity57</title>
<path fill="none" stroke="black" d="M1471.61,-2917.61C1395.48,-2885.57 1167.9,-2789.81 1080.41,-2753"/>
<polygon fill="black" stroke="black" points="1081.51,-2749.66 1070.93,-2749.01 1078.79,-2756.12 1081.51,-2749.66"/>
<text text-anchor="start" x="1266.01" y="-2839.1" font-family="Times New Roman,serif" font-size="14.00">is</text>
</g>
<!-- Entity61 -->
<g id="node17" class="node entity">
<title>Entity61</title>
<ellipse fill="none" stroke="black" cx="1928.8" cy="-3093.08" rx="27" ry="18"/>
<text text-anchor="start" x="1919.3" y="-3089.38" font-family="Times New Roman,serif" font-size="14.00">ufo</text>
</g>
<!-- Entity17&#45;&gt;Entity61 -->
<g id="edge9" class="edge verb">
<title>Entity17&#45;&gt;Entity61</title>
<path fill="none" stroke="black" d="M1522.89,-2938.16C1597.65,-2966.7 1812.81,-3048.81 1895.7,-3080.45"/>
<polygon fill="black" stroke="black" points="1894.54,-3083.75 1905.13,-3084.05 1897.04,-3077.21 1894.54,-3083.75"/>
<text text-anchor="start" x="1667.3" y="-3013.11" font-family="Times New Roman,serif" font-size="14.00">witness</text>
</g>
<!-- Entity44 -->
<g id="node20" class="node entity">
<title>Entity44</title>
<ellipse fill="none" stroke="black" cx="3222.78" cy="-1647.94" rx="74.99" ry="18"/>
<text text-anchor="start" x="3173.28" y="-1644.24" font-family="Times New Roman,serif" font-size="14.00">walter dornberger</text>
</g>
<!-- Entity44&#45;&gt;Entity53 -->
<g id="edge22" class="edge verb">
<title>Entity44&#45;&gt;Entity53</title>
<path fill="none" stroke="black" d="M3207.38,-1630.18C3150.98,-1565.2 2955.71,-1340.2 2890.71,-1265.3"/>
<polygon fill="black" stroke="black" points="2892.99,-1262.59 2883.79,-1257.33 2887.7,-1267.18 2892.99,-1262.59"/>
<text text-anchor="start" x="3003.04" y="-1451.54" font-family="Times New Roman,serif" font-size="14.00">member</text>
</g>
<!-- Entity54 -->
<g id="node21" class="node entity">
<title>Entity54</title>
<ellipse fill="none" stroke="black" cx="3551.87" cy="-2221.41" rx="53.89" ry="18"/>
<text text-anchor="start" x="3518.37" y="-2217.71" font-family="Times New Roman,serif" font-size="14.00">bell aviation</text>
</g>
<!-- Entity44&#45;&gt;Entity54 -->
<g id="edge12" class="edge verb">
<title>Entity44&#45;&gt;Entity54</title>
<path fill="none" stroke="black" d="M3230.3,-1666.03C3271.88,-1749.49 3471.09,-2097.04 3533.37,-2195.4"/>
<polygon fill="black" stroke="black" points="3530.45,-2197.33 3538.79,-2203.87 3536.34,-2193.56 3530.45,-2197.33"/>
<text text-anchor="start" x="3302.83" y="-1934.51" font-family="Times New Roman,serif" font-size="14.00">vice&#45;president</text>
</g>
<!-- Entity44&#45;&gt;Entity54 -->
<g id="edge52" class="edge verb">
<title>Entity44&#45;&gt;Entity54</title>
<path fill="none" stroke="black" d="M3236.02,-1665.71C3289.62,-1748.34 3488.52,-2094.7 3539.86,-2194.45"/>
<polygon fill="black" stroke="black" points="3536.84,-2196.24 3544.49,-2203.58 3543.09,-2193.08 3536.84,-2196.24"/>
<text text-anchor="start" x="3333.94" y="-1918.88" font-family="Times New Roman,serif" font-size="14.00">employee</text>
</g>
<!-- Entity72 -->
<g id="node23" class="node entity">
<title>Entity72</title>
<ellipse fill="none" stroke="black" cx="3719.97" cy="-1550.43" rx="90.98" ry="18"/>
<text text-anchor="start" x="3657.97" y="-1546.73" font-family="Times New Roman,serif" font-size="14.00">nsdap rocket program</text>
</g>
<!-- Entity44&#45;&gt;Entity72 -->
<g id="edge67" class="edge verb">
<title>Entity44&#45;&gt;Entity72</title>
<path fill="none" stroke="black" d="M3280.79,-1636.56C3371.18,-1618.83 3545.6,-1584.63 3645.27,-1565.08"/>
<polygon fill="black" stroke="black" points="3646.13,-1568.48 3655.27,-1563.12 3644.79,-1561.61 3646.13,-1568.48"/>
<text text-anchor="start" x="3429.03" y="-1604.62" font-family="Times New Roman,serif" font-size="14.00">create</text>
</g>
<!-- Entity74 -->
<g id="node56" class="node entity">
<title>Entity74</title>
<ellipse fill="none" stroke="black" cx="3197.77" cy="-1540.01" rx="65.79" ry="18"/>
<text text-anchor="start" x="3155.27" y="-1536.31" font-family="Times New Roman,serif" font-size="14.00">x series aircraft</text>
</g>
<!-- Entity44&#45;&gt;Entity74 -->
<g id="edge46" class="edge verb">
<title>Entity44&#45;&gt;Entity74</title>
<path fill="none" stroke="black" d="M3218.54,-1629.63C3214.62,-1612.7 3208.73,-1587.31 3204.23,-1567.87"/>
<polygon fill="black" stroke="black" points="3207.62,-1567 3201.95,-1558.04 3200.8,-1568.58 3207.62,-1567"/>
<text text-anchor="start" x="3177.38" y="-1602.55" font-family="Times New Roman,serif" font-size="14.00">create</text>
</g>
<!-- Entity48 -->
<g id="node22" class="node entity">
<title>Entity48</title>
<ellipse fill="none" stroke="black" cx="3585.77" cy="-1658.4" rx="46.29" ry="18"/>
<text text-anchor="start" x="3558.27" y="-1654.7" font-family="Times New Roman,serif" font-size="14.00">van braun</text>
</g>
<!-- Entity48&#45;&gt;Entity44 -->
<g id="edge23" class="edge verb">
<title>Entity48&#45;&gt;Entity44</title>
<path fill="none" stroke="black" d="M3539.43,-1657.06C3481.02,-1655.38 3379.51,-1652.45 3307.18,-1650.37"/>
<polygon fill="black" stroke="black" points="3307.27,-1646.87 3297.17,-1650.08 3307.07,-1653.87 3307.27,-1646.87"/>
<text text-anchor="start" x="3369.3" y="-1657.52" font-family="Times New Roman,serif" font-size="14.00">employee</text>
</g>
<!-- Entity48&#45;&gt;Entity72 -->
<g id="edge13" class="edge verb">
<title>Entity48&#45;&gt;Entity72</title>
<path fill="none" stroke="black" d="M3606.15,-1642C3628.52,-1624.01 3664.62,-1594.96 3690.17,-1574.41"/>
<polygon fill="black" stroke="black" points="3692.46,-1577.06 3698.06,-1568.06 3688.07,-1571.6 3692.46,-1577.06"/>
<text text-anchor="start" x="3594.16" y="-1612" font-family="Times New Roman,serif" font-size="14.00">employee</text>
</g>
<!-- Entity4 -->
<g id="node24" class="node entity">
<title>Entity4</title>
<ellipse fill="none" stroke="black" cx="4648.09" cy="-3673.23" rx="64.19" ry="18"/>
<text text-anchor="start" x="4606.59" y="-3669.53" font-family="Times New Roman,serif" font-size="14.00">andre puharich</text>
</g>
<!-- Entity1 -->
<g id="node25" class="node entity">
<title>Entity1</title>
<ellipse fill="none" stroke="black" cx="4253.17" cy="-3377.99" rx="41.69" ry="18"/>
<text text-anchor="start" x="4229.17" y="-3374.29" font-family="Times New Roman,serif" font-size="14.00">uri geller</text>
</g>
<!-- Entity4&#45;&gt;Entity1 -->
<g id="edge14" class="edge verb">
<title>Entity4&#45;&gt;Entity1</title>
<path fill="none" stroke="black" d="M4625.44,-3656.3C4557.9,-3605.8 4357.9,-3456.28 4282.44,-3399.86"/>
<polygon fill="black" stroke="black" points="4284.39,-3396.95 4274.28,-3393.77 4280.19,-3402.56 4284.39,-3396.95"/>
<text text-anchor="start" x="4401.94" y="-3531.88" font-family="Times New Roman,serif" font-size="14.00">sponsore</text>
</g>
<!-- Entity1&#45;&gt;Entity8 -->
<g id="edge55" class="edge verb">
<title>Entity1&#45;&gt;Entity8</title>
<path fill="none" stroke="black" d="M4250.77,-3360C4242.48,-3298.05 4215.08,-3093.13 4204.95,-3017.41"/>
<polygon fill="black" stroke="black" points="4208.38,-3016.66 4203.59,-3007.21 4201.45,-3017.58 4208.38,-3016.66"/>
<text text-anchor="start" x="4123.86" y="-3192.51" font-family="Times New Roman,serif" font-size="14.00">claiemd to channel</text>
</g>
<!-- Entity21 -->
<g id="node26" class="node entity">
<title>Entity21</title>
<ellipse fill="none" stroke="black" cx="3584.25" cy="-3355.67" rx="63.89" ry="18"/>
<text text-anchor="start" x="3543.25" y="-3351.97" font-family="Times New Roman,serif" font-size="14.00">robert bigelow</text>
</g>
<!-- Entity6 -->
<g id="node27" class="node entity">
<title>Entity6</title>
<ellipse fill="none" stroke="black" cx="3733.74" cy="-3247.64" rx="68.49" ry="18"/>
<text text-anchor="start" x="3689.24" y="-3243.94" font-family="Times New Roman,serif" font-size="14.00">jeffrey mishlove</text>
</g>
<!-- Entity21&#45;&gt;Entity6 -->
<g id="edge15" class="edge verb">
<title>Entity21&#45;&gt;Entity6</title>
<path fill="none" stroke="black" d="M3607.61,-3338.79C3632.91,-3320.5 3673.44,-3291.22 3701.71,-3270.79"/>
<polygon fill="black" stroke="black" points="3704,-3273.45 3710.06,-3264.76 3699.9,-3267.78 3704,-3273.45"/>
<text text-anchor="start" x="3622.66" y="-3308.59" font-family="Times New Roman,serif" font-size="14.00">funds</text>
</g>
<!-- Entity56 -->
<g id="node44" class="node entity">
<title>Entity56</title>
<ellipse fill="none" stroke="black" cx="3042.08" cy="-3157.11" rx="77.19" ry="18"/>
<text text-anchor="start" x="2990.58" y="-3153.41" font-family="Times New Roman,serif" font-size="14.00">psi&#45;consciousness</text>
</g>
<!-- Entity21&#45;&gt;Entity56 -->
<g id="edge49" class="edge verb">
<title>Entity21&#45;&gt;Entity56</title>
<path fill="none" stroke="black" d="M3545.26,-3341.39C3449.2,-3306.21 3201.13,-3215.36 3093.34,-3175.88"/>
<polygon fill="black" stroke="black" points="3094.26,-3172.49 3083.67,-3172.34 3091.85,-3179.06 3094.26,-3172.49"/>
<text text-anchor="start" x="3255.3" y="-3262.44" font-family="Times New Roman,serif" font-size="14.00">investigates</text>
</g>
<!-- Entity6&#45;&gt;Entity1 -->
<g id="edge56" class="edge verb">
<title>Entity6&#45;&gt;Entity1</title>
<path fill="none" stroke="black" d="M3783.55,-3260.14C3884.1,-3285.37 4110.03,-3342.07 4207.25,-3366.46"/>
<polygon fill="black" stroke="black" points="4206.53,-3369.89 4217.08,-3368.93 4208.23,-3363.1 4206.53,-3369.89"/>
<text text-anchor="start" x="3947.4" y="-3317.1" font-family="Times New Roman,serif" font-size="14.00">promote</text>
</g>
<!-- Entity6&#45;&gt;Entity56 -->
<g id="edge33" class="edge verb">
<title>Entity6&#45;&gt;Entity56</title>
<path fill="none" stroke="black" d="M3679.39,-3236.63C3559.18,-3217.28 3270.05,-3179.19 3126.24,-3163.5"/>
<polygon fill="black" stroke="black" points="3126.46,-3160 3116.14,-3162.41 3125.71,-3166.96 3126.46,-3160"/>
<text text-anchor="start" x="3338.82" y="-3188.87" font-family="Times New Roman,serif" font-size="14.00">investigates</text>
</g>
<!-- Entity6&#45;&gt;Entity56 -->
<g id="edge61" class="edge verb">
<title>Entity6&#45;&gt;Entity56</title>
<path fill="none" stroke="black" d="M3667.51,-3243.17C3536.26,-3229.44 3244.36,-3191.26 3110.98,-3170.42"/>
<polygon fill="black" stroke="black" points="3111.3,-3166.93 3100.88,-3168.83 3110.21,-3173.84 3111.3,-3166.93"/>
<text text-anchor="start" x="3358.24" y="-3210.59" font-family="Times New Roman,serif" font-size="14.00">study</text>
</g>
<!-- Entity29 -->
<g id="node29" class="node entity">
<title>Entity29</title>
<ellipse fill="none" stroke="black" cx="671.46" cy="-17.88" rx="73.39" ry="18"/>
<text text-anchor="start" x="622.96" y="-14.18" font-family="Times New Roman,serif" font-size="14.00">madam blavatsky</text>
</g>
<!-- Entity63 -->
<g id="node30" class="node entity">
<title>Entity63</title>
<ellipse fill="none" stroke="black" cx="864.95" cy="-644.08" rx="85.29" ry="18"/>
<text text-anchor="start" x="807.45" y="-640.38" font-family="Times New Roman,serif" font-size="14.00">theosophical society</text>
</g>
<!-- Entity29&#45;&gt;Entity63 -->
<g id="edge17" class="edge verb">
<title>Entity29&#45;&gt;Entity63</title>
<path fill="none" stroke="black" d="M677.04,-35.95C704.26,-124.06 823.14,-508.78 856.32,-616.16"/>
<polygon fill="black" stroke="black" points="853.05,-617.42 859.35,-625.95 859.74,-615.36 853.05,-617.42"/>
<text text-anchor="start" x="732.68" y="-329.86" font-family="Times New Roman,serif" font-size="14.00">create</text>
</g>
<!-- Entity41 -->
<g id="node32" class="node entity">
<title>Entity41</title>
<ellipse fill="none" stroke="black" cx="805.65" cy="-2138.82" rx="67.69" ry="18"/>
<text text-anchor="start" x="761.65" y="-2135.12" font-family="Times New Roman,serif" font-size="14.00">abraham lincoln</text>
</g>
<!-- Entity41&#45;&gt;Entity57 -->
<g id="edge19" class="edge verb">
<title>Entity41&#45;&gt;Entity57</title>
<path fill="none" stroke="black" d="M812.83,-2156.76C847.05,-2242.27 993.64,-2608.53 1034.81,-2711.39"/>
<polygon fill="black" stroke="black" points="1031.6,-2712.79 1038.57,-2720.77 1038.1,-2710.19 1031.6,-2712.79"/>
<text text-anchor="start" x="913.82" y="-2437.88" font-family="Times New Roman,serif" font-size="14.00">is</text>
</g>
<!-- Entity36 -->
<g id="node33" class="node entity">
<title>Entity36</title>
<ellipse fill="none" stroke="black" cx="541.4" cy="-1357.31" rx="90.98" ry="18"/>
<text text-anchor="start" x="479.4" y="-1353.61" font-family="Times New Roman,serif" font-size="14.00">emma hardinge&#45;britten</text>
</g>
<!-- Entity36&#45;&gt;Entity63 -->
<g id="edge65" class="edge verb">
<title>Entity36&#45;&gt;Entity63</title>
<path fill="none" stroke="black" d="M549.56,-1339.33C593.27,-1242.97 799.71,-787.9 852.59,-671.33"/>
<polygon fill="black" stroke="black" points="855.87,-672.58 856.81,-662.02 849.5,-669.68 855.87,-672.58"/>
<text text-anchor="start" x="667.07" y="-1009.13" font-family="Times New Roman,serif" font-size="14.00">create</text>
</g>
<!-- Entity36&#45;&gt;Entity41 -->
<g id="edge30" class="edge verb">
<title>Entity36&#45;&gt;Entity41</title>
<path fill="none" stroke="black" d="M547.54,-1375.48C582.29,-1478.24 754.13,-1986.47 796.29,-2111.16"/>
<polygon fill="black" stroke="black" points="793.02,-2112.4 799.54,-2120.75 799.65,-2110.16 793.02,-2112.4"/>
<text text-anchor="start" x="592.92" y="-1747.12" font-family="Times New Roman,serif" font-size="14.00">spokesperson</text>
</g>
<!-- Entity78 -->
<g id="node34" class="node entity">
<title>Entity78</title>
<ellipse fill="none" stroke="black" cx="40.14" cy="-1085.1" rx="39.79" ry="18"/>
<text text-anchor="start" x="17.64" y="-1081.4" font-family="Times New Roman,serif" font-size="14.00">medium</text>
</g>
<!-- Entity36&#45;&gt;Entity78 -->
<g id="edge20" class="edge verb">
<title>Entity36&#45;&gt;Entity78</title>
<path fill="none" stroke="black" d="M510.04,-1340.29C421.04,-1291.95 167.33,-1154.17 74.61,-1103.82"/>
<polygon fill="black" stroke="black" points="76.1,-1100.64 65.64,-1098.95 72.76,-1106.8 76.1,-1100.64"/>
<text text-anchor="start" x="282.33" y="-1225.85" font-family="Times New Roman,serif" font-size="14.00">is</text>
</g>
<!-- Entity70 -->
<g id="node61" class="node entity">
<title>Entity70</title>
<ellipse fill="none" stroke="black" cx="178.73" cy="-847.84" rx="55.79" ry="18"/>
<text text-anchor="start" x="143.73" y="-844.14" font-family="Times New Roman,serif" font-size="14.00">orphic circle</text>
</g>
<!-- Entity36&#45;&gt;Entity70 -->
<g id="edge66" class="edge verb">
<title>Entity36&#45;&gt;Entity70</title>
<path fill="none" stroke="black" d="M528.7,-1339.48C474.41,-1263.21 261.57,-964.21 197.24,-873.85"/>
<polygon fill="black" stroke="black" points="199.97,-871.65 191.32,-865.53 194.27,-875.71 199.97,-871.65"/>
<text text-anchor="start" x="316.97" y="-1110.47" font-family="Times New Roman,serif" font-size="14.00">member</text>
</g>
<!-- Entity40 -->
<g id="node36" class="node entity">
<title>Entity40</title>
<ellipse fill="none" stroke="black" cx="2573.94" cy="-1781.66" rx="53.89" ry="18"/>
<text text-anchor="start" x="2540.44" y="-1777.96" font-family="Times New Roman,serif" font-size="14.00">black magic</text>
</g>
<!-- Entity69 -->
<g id="node37" class="node entity">
<title>Entity69</title>
<ellipse fill="none" stroke="black" cx="2661.66" cy="-1893.64" rx="28.7" ry="18"/>
<text text-anchor="start" x="2647.66" y="-1889.94" font-family="Times New Roman,serif" font-size="14.00">x left</text>
</g>
<!-- Entity40&#45;&gt;Entity69 -->
<g id="edge26" class="edge verb">
<title>Entity40&#45;&gt;Entity69</title>
<path fill="none" stroke="black" d="M2587.64,-1799.16C2602.45,-1818.05 2626.14,-1848.29 2642.72,-1869.45"/>
<polygon fill="black" stroke="black" points="2639.98,-1871.64 2648.9,-1877.36 2645.49,-1867.32 2639.98,-1871.64"/>
<text text-anchor="start" x="2569.18" y="-1838.11" font-family="Times New Roman,serif" font-size="14.00">member</text>
</g>
<!-- Entity15 -->
<g id="node39" class="node entity">
<title>Entity15</title>
<ellipse fill="none" stroke="black" cx="2333.22" cy="-3240.22" rx="27" ry="18"/>
<text text-anchor="start" x="2325.22" y="-3236.52" font-family="Times New Roman,serif" font-size="14.00">cia</text>
</g>
<!-- Entity33&#45;&gt;Entity15 -->
<g id="edge27" class="edge verb">
<title>Entity33&#45;&gt;Entity15</title>
<path fill="none" stroke="black" d="M1868.27,-3418.97C1960.01,-3383.7 2210.05,-3287.57 2300.23,-3252.9"/>
<polygon fill="black" stroke="black" points="2301.61,-3256.12 2309.68,-3249.27 2299.09,-3249.59 2301.61,-3256.12"/>
<text text-anchor="start" x="2038.25" y="-3339.74" font-family="Times New Roman,serif" font-size="14.00">member</text>
</g>
<!-- Entity77 -->
<g id="node50" class="node entity">
<title>Entity77</title>
<ellipse fill="none" stroke="black" cx="2027.51" cy="-3863.88" rx="50.89" ry="18"/>
<text text-anchor="start" x="1996.51" y="-3860.18" font-family="Times New Roman,serif" font-size="14.00">nikola tesla</text>
</g>
<!-- Entity33&#45;&gt;Entity77 -->
<g id="edge39" class="edge verb">
<title>Entity33&#45;&gt;Entity77</title>
<path fill="none" stroke="black" d="M1842.03,-3450.17C1872.22,-3517.5 1978.62,-3754.84 2015.12,-3836.24"/>
<polygon fill="black" stroke="black" points="2012.12,-3838.11 2019.41,-3845.81 2018.51,-3835.25 2012.12,-3838.11"/>
<text text-anchor="start" x="1897.57" y="-3647.01" font-family="Times New Roman,serif" font-size="14.00">study</text>
</g>
<!-- Entity15&#45;&gt;Entity61 -->
<g id="edge63" class="edge verb">
<title>Entity15&#45;&gt;Entity61</title>
<path fill="none" stroke="black" d="M2309.43,-3231.57C2240.67,-3206.55 2041.5,-3134.09 1962.08,-3105.19"/>
<polygon fill="black" stroke="black" points="1963.16,-3101.86 1952.56,-3101.73 1960.76,-3108.44 1963.16,-3101.86"/>
<text text-anchor="start" x="2071.75" y="-3172.18" font-family="Times New Roman,serif" font-size="14.00">investigates</text>
</g>
<!-- Entity15&#45;&gt;Entity56 -->
<g id="edge43" class="edge verb">
<title>Entity15&#45;&gt;Entity56</title>
<path fill="none" stroke="black" d="M2360.14,-3237.06C2459.13,-3225.46 2805.3,-3184.87 2962.88,-3166.39"/>
<polygon fill="black" stroke="black" points="2963.46,-3169.85 2972.98,-3165.21 2962.64,-3162.9 2963.46,-3169.85"/>
<text text-anchor="start" x="2597.51" y="-3205.53" font-family="Times New Roman,serif" font-size="14.00">investigates</text>
</g>
<!-- Entity20 -->
<g id="node40" class="node entity">
<title>Entity20</title>
<ellipse fill="none" stroke="black" cx="1002" cy="-2884.55" rx="71.49" ry="18"/>
<text text-anchor="start" x="955" y="-2880.85" font-family="Times New Roman,serif" font-size="14.00">woodrow wilson</text>
</g>
<!-- Entity20&#45;&gt;Entity57 -->
<g id="edge34" class="edge verb">
<title>Entity20&#45;&gt;Entity57</title>
<path fill="none" stroke="black" d="M1007.43,-2866.33C1014.95,-2841.13 1028.58,-2795.43 1037.35,-2766.01"/>
<polygon fill="black" stroke="black" points="1040.73,-2766.93 1040.24,-2756.34 1034.03,-2764.93 1040.73,-2766.93"/>
<text text-anchor="start" x="1012.39" y="-2819.97" font-family="Times New Roman,serif" font-size="14.00">is</text>
</g>
<!-- Entity66 -->
<g id="node41" class="node entity">
<title>Entity66</title>
<ellipse fill="none" stroke="black" cx="502.41" cy="-3268.49" rx="71.49" ry="18"/>
<text text-anchor="start" x="455.41" y="-3264.79" font-family="Times New Roman,serif" font-size="14.00">leauge of nations</text>
</g>
<!-- Entity20&#45;&gt;Entity66 -->
<g id="edge29" class="edge verb">
<title>Entity20&#45;&gt;Entity66</title>
<path fill="none" stroke="black" d="M979.56,-2901.79C899.1,-2963.63 624.96,-3174.31 532.87,-3245.09"/>
<polygon fill="black" stroke="black" points="530.58,-3242.43 524.79,-3251.3 534.85,-3247.98 530.58,-3242.43"/>
<text text-anchor="start" x="722.22" y="-3077.24" font-family="Times New Roman,serif" font-size="14.00">create</text>
</g>
<!-- Entity49&#45;&gt;Entity73 -->
<g id="edge40" class="edge verb">
<title>Entity49&#45;&gt;Entity73</title>
<path fill="none" stroke="black" d="M2024.08,-1615.45C2103.97,-1567.65 2338.41,-1427.39 2424.94,-1375.62"/>
<polygon fill="black" stroke="black" points="2426.77,-1378.6 2433.56,-1370.46 2423.18,-1372.59 2426.77,-1378.6"/>
<text text-anchor="start" x="2178.51" y="-1499.33" font-family="Times New Roman,serif" font-size="14.00">member</text>
</g>
<!-- Entity39 -->
<g id="node43" class="node entity">
<title>Entity39</title>
<ellipse fill="none" stroke="black" cx="3763.1" cy="-1821.44" rx="57.69" ry="18"/>
<text text-anchor="start" x="3726.6" y="-1817.74" font-family="Times New Roman,serif" font-size="14.00">michael pane</text>
</g>
<!-- Entity39&#45;&gt;Entity44 -->
<g id="edge32" class="edge verb">
<title>Entity39&#45;&gt;Entity44</title>
<path fill="none" stroke="black" d="M3722.49,-1808.39C3626.57,-1777.6 3385.95,-1700.33 3277.41,-1665.48"/>
<polygon fill="black" stroke="black" points="3278.23,-1662.07 3267.64,-1662.34 3276.09,-1668.73 3278.23,-1662.07"/>
<text text-anchor="start" x="3445.95" y="-1740.74" font-family="Times New Roman,serif" font-size="14.00">employee</text>
</g>
<!-- Entity39&#45;&gt;Entity54 -->
<g id="edge50" class="edge verb">
<title>Entity39&#45;&gt;Entity54</title>
<path fill="none" stroke="black" d="M3753.61,-1839.4C3719.97,-1903.1 3606.25,-2118.45 3566.07,-2194.53"/>
<polygon fill="black" stroke="black" points="3562.91,-2193.02 3561.33,-2203.5 3569.1,-2196.29 3562.91,-2193.02"/>
<text text-anchor="start" x="3605.84" y="-2020.76" font-family="Times New Roman,serif" font-size="14.00">employee</text>
</g>
<!-- Entity42 -->
<g id="node45" class="node entity">
<title>Entity42</title>
<ellipse fill="none" stroke="black" cx="3063.94" cy="-2537.66" rx="39.79" ry="18"/>
<text text-anchor="start" x="3041.44" y="-2533.96" font-family="Times New Roman,serif" font-size="14.00">crowley</text>
</g>
<!-- Entity71 -->
<g id="node46" class="node entity">
<title>Entity71</title>
<ellipse fill="none" stroke="black" cx="3151.66" cy="-2649.64" rx="38.99" ry="18"/>
<text text-anchor="start" x="3129.66" y="-2645.94" font-family="Times New Roman,serif" font-size="14.00">x magic</text>
</g>
<!-- Entity42&#45;&gt;Entity71 -->
<g id="edge35" class="edge verb">
<title>Entity42&#45;&gt;Entity71</title>
<path fill="none" stroke="black" d="M3077.26,-2554.67C3091.82,-2573.25 3115.28,-2603.2 3131.96,-2624.49"/>
<polygon fill="black" stroke="black" points="3129.29,-2626.76 3138.21,-2632.47 3134.8,-2622.44 3129.29,-2626.76"/>
<text text-anchor="start" x="3058.61" y="-2593.38" font-family="Times New Roman,serif" font-size="14.00">member</text>
</g>
<!-- Entity3 -->
<g id="node47" class="node entity">
<title>Entity3</title>
<ellipse fill="none" stroke="black" cx="3667.16" cy="-2810" rx="56.59" ry="18"/>
<text text-anchor="start" x="3631.66" y="-2806.3" font-family="Times New Roman,serif" font-size="14.00">arthur young</text>
</g>
<!-- Entity3&#45;&gt;Entity8 -->
<g id="edge57" class="edge verb">
<title>Entity3&#45;&gt;Entity8</title>
<path fill="none" stroke="black" d="M3706.43,-2823.16C3804.58,-2856.06 4059.88,-2941.62 4160.01,-2975.18"/>
<polygon fill="black" stroke="black" points="4159.17,-2978.59 4169.76,-2978.45 4161.39,-2971.95 4159.17,-2978.59"/>
<text text-anchor="start" x="3887.22" y="-2902.97" font-family="Times New Roman,serif" font-size="14.00">member</text>
</g>
<!-- Entity3&#45;&gt;Entity54 -->
<g id="edge60" class="edge verb">
<title>Entity3&#45;&gt;Entity54</title>
<path fill="none" stroke="black" d="M3663.59,-2791.74C3646.99,-2707.03 3577.48,-2352.15 3557.36,-2249.4"/>
<polygon fill="black" stroke="black" points="3560.77,-2248.6 3555.41,-2239.46 3553.9,-2249.95 3560.77,-2248.6"/>
<text text-anchor="start" x="3576.47" y="-2524.37" font-family="Times New Roman,serif" font-size="14.00">create</text>
</g>
<!-- Entity3&#45;&gt;Entity56 -->
<g id="edge36" class="edge verb">
<title>Entity3&#45;&gt;Entity56</title>
<path fill="none" stroke="black" d="M3638.68,-2825.82C3537.76,-2881.86 3197.06,-3071.05 3081.1,-3135.44"/>
<polygon fill="black" stroke="black" points="3079.22,-3132.48 3072.18,-3140.39 3082.62,-3138.6 3079.22,-3132.48"/>
<text text-anchor="start" x="3328.89" y="-2984.43" font-family="Times New Roman,serif" font-size="14.00">study</text>
</g>
<!-- Entity19 -->
<g id="node48" class="node entity">
<title>Entity19</title>
<ellipse fill="none" stroke="black" cx="612.08" cy="-2814.32" rx="58.49" ry="18"/>
<text text-anchor="start" x="575.08" y="-2810.62" font-family="Times New Roman,serif" font-size="14.00">richard nixon</text>
</g>
<!-- Entity19&#45;&gt;Entity57 -->
<g id="edge37" class="edge verb">
<title>Entity19&#45;&gt;Entity57</title>
<path fill="none" stroke="black" d="M663.08,-2805.38C750.37,-2790.09 926.62,-2759.2 1005.66,-2745.35"/>
<polygon fill="black" stroke="black" points="1006.46,-2748.77 1015.7,-2743.59 1005.25,-2741.87 1006.46,-2748.77"/>
<text text-anchor="start" x="824.37" y="-2779.17" font-family="Times New Roman,serif" font-size="14.00">is</text>
</g>
<!-- Entity34 -->
<g id="node49" class="node entity">
<title>Entity34</title>
<ellipse fill="none" stroke="black" cx="1095.07" cy="-3910.55" rx="69.59" ry="18"/>
<text text-anchor="start" x="1049.57" y="-3906.85" font-family="Times New Roman,serif" font-size="14.00">andrew breitbart</text>
</g>
<!-- Entity34&#45;&gt;Entity65 -->
<g id="edge38" class="edge verb">
<title>Entity34&#45;&gt;Entity65</title>
<path fill="none" stroke="black" d="M1089.49,-3892.24C1084.32,-3875.31 1076.58,-3849.91 1070.65,-3830.47"/>
<polygon fill="black" stroke="black" points="1073.92,-3829.19 1067.65,-3820.64 1067.22,-3831.23 1073.92,-3829.19"/>
<text text-anchor="start" x="1046.07" y="-3865.15" font-family="Times New Roman,serif" font-size="14.00">create</text>
</g>
<!-- Entity11 -->
<g id="node52" class="node entity">
<title>Entity11</title>
<ellipse fill="none" stroke="black" cx="794.58" cy="-2992.51" rx="35.19" ry="18"/>
<text text-anchor="start" x="775.58" y="-2988.81" font-family="Times New Roman,serif" font-size="14.00">obama</text>
</g>
<!-- Entity11&#45;&gt;Entity57 -->
<g id="edge42" class="edge verb">
<title>Entity11&#45;&gt;Entity57</title>
<path fill="none" stroke="black" d="M810.67,-2976.22C853.9,-2932.46 972.7,-2812.17 1022.82,-2761.42"/>
<polygon fill="black" stroke="black" points="1025.44,-2763.75 1029.98,-2754.18 1020.46,-2758.83 1025.44,-2763.75"/>
<text text-anchor="start" x="906.74" y="-2872.62" font-family="Times New Roman,serif" font-size="14.00">is</text>
</g>
<!-- Entity28 -->
<g id="node53" class="node entity">
<title>Entity28</title>
<ellipse fill="none" stroke="black" cx="1503.98" cy="-649.94" rx="58.49" ry="18"/>
<text text-anchor="start" x="1466.98" y="-646.24" font-family="Times New Roman,serif" font-size="14.00">rudolf steiner</text>
</g>
<!-- Entity28&#45;&gt;Entity63 -->
<g id="edge64" class="edge verb">
<title>Entity28&#45;&gt;Entity63</title>
<path fill="none" stroke="black" d="M1445.3,-649.4C1334.71,-648.39 1094.56,-646.19 960.44,-644.96"/>
<polygon fill="black" stroke="black" points="960.2,-641.46 950.17,-644.86 960.14,-648.46 960.2,-641.46"/>
<text text-anchor="start" x="1156.87" y="-650.98" font-family="Times New Roman,serif" font-size="14.00">member</text>
</g>
<!-- Entity68 -->
<g id="node54" class="node entity">
<title>Entity68</title>
<ellipse fill="none" stroke="black" cx="1856.02" cy="-528.62" rx="102.08" ry="18"/>
<text text-anchor="start" x="1785.52" y="-524.92" font-family="Times New Roman,serif" font-size="14.00">anthroposophical society</text>
</g>
<!-- Entity28&#45;&gt;Entity68 -->
<g id="edge44" class="edge verb">
<title>Entity28&#45;&gt;Entity68</title>
<path fill="none" stroke="black" d="M1543,-636.49C1605.32,-615.02 1727.61,-572.88 1799.5,-548.1"/>
<polygon fill="black" stroke="black" points="1800.99,-551.29 1809.3,-544.72 1798.71,-544.67 1800.99,-551.29"/>
<text text-anchor="start" x="1637.25" y="-596.1" font-family="Times New Roman,serif" font-size="14.00">create</text>
</g>
<!-- Entity80 -->
<g id="node57" class="node entity">
<title>Entity80</title>
<ellipse fill="none" stroke="black" cx="2546.94" cy="-2285.66" rx="27" ry="18"/>
<text text-anchor="start" x="2536.94" y="-2281.96" font-family="Times New Roman,serif" font-size="14.00">foo</text>
</g>
<!-- Entity81 -->
<g id="node58" class="node entity">
<title>Entity81</title>
<ellipse fill="none" stroke="black" cx="2634.66" cy="-2397.64" rx="27" ry="18"/>
<text text-anchor="start" x="2624.66" y="-2393.94" font-family="Times New Roman,serif" font-size="14.00">baz</text>
</g>
<!-- Entity80&#45;&gt;Entity81 -->
<g id="edge53" class="edge verb">
<title>Entity80&#45;&gt;Entity81</title>
<path fill="none" stroke="black" d="M2559.51,-2301.7C2574.23,-2320.5 2598.76,-2351.82 2615.78,-2373.53"/>
<polygon fill="black" stroke="black" points="2613.19,-2375.91 2622.11,-2381.62 2618.7,-2371.59 2613.19,-2375.91"/>
<text text-anchor="start" x="2567.64" y="-2341.42" font-family="Times New Roman,serif" font-size="14.00">baz</text>
</g>
<!-- Entity23 -->
<g id="node60" class="node entity">
<title>Entity23</title>
<ellipse fill="none" stroke="black" cx="439.13" cy="-3030.51" rx="53.89" ry="18"/>
<text text-anchor="start" x="405.63" y="-3026.81" font-family="Times New Roman,serif" font-size="14.00">edgar casey</text>
</g>
<!-- Entity23&#45;&gt;Entity20 -->
<g id="edge58" class="edge verb">
<title>Entity23&#45;&gt;Entity20</title>
<path fill="none" stroke="black" d="M481.9,-3019.42C581.26,-2993.65 827.92,-2929.69 942.16,-2900.06"/>
<polygon fill="black" stroke="black" points="943.34,-2903.37 952.14,-2897.48 941.58,-2896.6 943.34,-2903.37"/>
<text text-anchor="start" x="676.03" y="-2963.54" font-family="Times New Roman,serif" font-size="14.00">advise</text>
</g>
</g>
</svg>
