<?xml version="1.0" encoding="UTF-8" standalone="no"?>
<?xml-stylesheet href="../styles.css" type="text/css"?>
<!DOCTYPE svg PUBLIC "-//W3C//DTD SVG 1.1//EN"
 "http://www.w3.org/Graphics/SVG/1.1/DTD/svg11.dtd">
<!-- Generated by graphviz version 2.47.3 (20210619.1520)
 -->
<!-- Title: G Pages: 1 -->
<svg width="4778pt" height="5277pt"
 viewBox="0.00 0.00 4778.00 5277.00" xmlns="http://www.w3.org/2000/svg" xmlns:xlink="http://www.w3.org/1999/xlink">
<g id="graph0" class="graph" transform="scale(1 1) rotate(0) translate(4 5273)">
<title>G</title>
<polygon fill="white" stroke="transparent" points="-4,4 -4,-5273 4774,-5273 4774,4 -4,4"/>
<!-- Entity1 -->
<g id="node1" class="node entity">
<title>Entity1</title>
<ellipse fill="none" stroke="black" cx="3069.68" cy="-1852.24" rx="75.29" ry="18"/>
<text text-anchor="start" x="3019.68" y="-1848.54" font-family="Times New Roman,serif" font-size="14.00">lee harvey oswald</text>
</g>
<!-- Entity16 -->
<g id="node2" class="node entity">
<title>Entity16</title>
<ellipse fill="none" stroke="black" cx="2369.4" cy="-2122.33" rx="64.19" ry="18"/>
<text text-anchor="start" x="2327.9" y="-2118.63" font-family="Times New Roman,serif" font-size="14.00">john f kennedy</text>
</g>
<!-- Entity1&#45;&gt;Entity16 -->
<g id="edge1" class="edge verb">
<title>Entity1&#45;&gt;Entity16</title>
<path fill="none" stroke="black" d="M3029.77,-1867.63C2908.95,-1914.23 2547.47,-2053.65 2417.02,-2103.97"/>
<polygon fill="black" stroke="black" points="2415.37,-2100.85 2407.3,-2107.71 2417.89,-2107.38 2415.37,-2100.85"/>
<text text-anchor="start" x="2661.39" y="-1989.6" font-family="Times New Roman,serif" font-size="14.00">assassinate</text>
</g>
<!-- Entity56 -->
<g id="node48" class="node entity">
<title>Entity56</title>
<ellipse fill="none" stroke="black" cx="3706.55" cy="-1760.42" rx="59.29" ry="18"/>
<text text-anchor="start" x="3669.05" y="-1756.72" font-family="Times New Roman,serif" font-size="14.00">guy bannister</text>
</g>
<!-- Entity1&#45;&gt;Entity56 -->
<g id="edge48" class="edge verb">
<title>Entity1&#45;&gt;Entity56</title>
<path fill="none" stroke="black" d="M3134.25,-1842.93C3256.67,-1825.28 3521.13,-1787.15 3642.86,-1769.6"/>
<polygon fill="black" stroke="black" points="3643.39,-1773.06 3652.79,-1768.17 3642.39,-1766.13 3643.39,-1773.06"/>
<text text-anchor="start" x="3334.56" y="-1810.07" font-family="Times New Roman,serif" font-size="14.00">employee</text>
</g>
<!-- Entity60 -->
<g id="node10" class="node entity">
<title>Entity60</title>
<ellipse fill="none" stroke="black" cx="1808.34" cy="-2463.93" rx="31.4" ry="18"/>
<text text-anchor="start" x="1792.34" y="-2460.23" font-family="Times New Roman,serif" font-size="14.00">potus</text>
</g>
<!-- Entity16&#45;&gt;Entity60 -->
<g id="edge7" class="edge verb">
<title>Entity16&#45;&gt;Entity60</title>
<path fill="none" stroke="black" d="M2342.34,-2138.8C2248.41,-2195.99 1936.85,-2385.69 1838.42,-2445.62"/>
<polygon fill="black" stroke="black" points="1836.56,-2442.66 1829.84,-2450.85 1840.2,-2448.64 1836.56,-2442.66"/>
<text text-anchor="start" x="2080.38" y="-2296.01" font-family="Times New Roman,serif" font-size="14.00">is</text>
</g>
<!-- Entity5 -->
<g id="node3" class="node entity">
<title>Entity5</title>
<ellipse fill="none" stroke="black" cx="907.1" cy="-3617.77" rx="64.19" ry="18"/>
<text text-anchor="start" x="865.6" y="-3614.07" font-family="Times New Roman,serif" font-size="14.00">andre puharich</text>
</g>
<!-- Entity2 -->
<g id="node4" class="node entity">
<title>Entity2</title>
<ellipse fill="none" stroke="black" cx="1376.51" cy="-3418.72" rx="41.69" ry="18"/>
<text text-anchor="start" x="1352.51" y="-3415.02" font-family="Times New Roman,serif" font-size="14.00">uri geller</text>
</g>
<!-- Entity5&#45;&gt;Entity2 -->
<g id="edge2" class="edge verb">
<title>Entity5&#45;&gt;Entity2</title>
<path fill="none" stroke="black" d="M942.76,-3602.65C1028.95,-3566.1 1248.01,-3473.21 1337.51,-3435.26"/>
<polygon fill="black" stroke="black" points="1338.92,-3438.46 1346.76,-3431.33 1336.19,-3432.01 1338.92,-3438.46"/>
<text text-anchor="start" x="1088.14" y="-3522.75" font-family="Times New Roman,serif" font-size="14.00">sponsore</text>
</g>
<!-- Entity19 -->
<g id="node6" class="node entity">
<title>Entity19</title>
<ellipse fill="none" stroke="black" cx="1865.46" cy="-3504.21" rx="38.19" ry="18"/>
<text text-anchor="start" x="1843.96" y="-3500.51" font-family="Times New Roman,serif" font-size="14.00">the nine</text>
</g>
<!-- Entity2&#45;&gt;Entity19 -->
<g id="edge24" class="edge verb">
<title>Entity2&#45;&gt;Entity19</title>
<path fill="none" stroke="black" d="M1415.29,-3425.5C1504.42,-3441.08 1723.58,-3479.4 1819.38,-3496.16"/>
<polygon fill="black" stroke="black" points="1818.89,-3499.62 1829.35,-3497.9 1820.1,-3492.73 1818.89,-3499.62"/>
<text text-anchor="start" x="1513.33" y="-3464.63" font-family="Times New Roman,serif" font-size="14.00">claiemd to channel</text>
</g>
<!-- Entity4 -->
<g id="node5" class="node entity">
<title>Entity4</title>
<ellipse fill="none" stroke="black" cx="2489.68" cy="-3218.44" rx="65.79" ry="18"/>
<text text-anchor="start" x="2447.18" y="-3214.74" font-family="Times New Roman,serif" font-size="14.00">arthur m young</text>
</g>
<!-- Entity4&#45;&gt;Entity19 -->
<g id="edge3" class="edge verb">
<title>Entity4&#45;&gt;Entity19</title>
<path fill="none" stroke="black" d="M2455.68,-3234C2347.77,-3283.41 2013.61,-3436.39 1902.1,-3487.44"/>
<polygon fill="black" stroke="black" points="1900.57,-3484.29 1892.93,-3491.64 1903.48,-3490.66 1900.57,-3484.29"/>
<text text-anchor="start" x="2132.89" y="-3364.52" font-family="Times New Roman,serif" font-size="14.00">member</text>
</g>
<!-- Entity61 -->
<g id="node8" class="node entity">
<title>Entity61</title>
<ellipse fill="none" stroke="black" cx="3247.47" cy="-2989.13" rx="53.89" ry="18"/>
<text text-anchor="start" x="3213.97" y="-2985.43" font-family="Times New Roman,serif" font-size="14.00">bell aviation</text>
</g>
<!-- Entity4&#45;&gt;Entity61 -->
<g id="edge59" class="edge verb">
<title>Entity4&#45;&gt;Entity61</title>
<path fill="none" stroke="black" d="M2533.98,-3205.03C2666.3,-3164.99 3058.07,-3046.44 3197.51,-3004.25"/>
<polygon fill="black" stroke="black" points="3198.54,-3007.59 3207.1,-3001.34 3196.52,-3000.89 3198.54,-3007.59"/>
<text text-anchor="start" x="2831.74" y="-3108.44" font-family="Times New Roman,serif" font-size="14.00">create</text>
</g>
<!-- Entity58 -->
<g id="node45" class="node entity">
<title>Entity58</title>
<ellipse fill="none" stroke="black" cx="1790.47" cy="-3041.99" rx="77.19" ry="18"/>
<text text-anchor="start" x="1738.97" y="-3038.29" font-family="Times New Roman,serif" font-size="14.00">psi&#45;consciousness</text>
</g>
<!-- Entity4&#45;&gt;Entity58 -->
<g id="edge46" class="edge verb">
<title>Entity4&#45;&gt;Entity58</title>
<path fill="none" stroke="black" d="M2441.35,-3206.24C2317.85,-3175.08 1990.8,-3092.54 1853.04,-3057.78"/>
<polygon fill="black" stroke="black" points="1853.61,-3054.31 1843.06,-3055.26 1851.9,-3061.1 1853.61,-3054.31"/>
<text text-anchor="start" x="2116.19" y="-3135.81" font-family="Times New Roman,serif" font-size="14.00">study</text>
</g>
<!-- Entity63 -->
<g id="node58" class="node entity">
<title>Entity63</title>
<ellipse fill="none" stroke="black" cx="1738.54" cy="-3612.2" rx="94.48" ry="18"/>
<text text-anchor="start" x="1674.04" y="-3608.5" font-family="Times New Roman,serif" font-size="14.00">egyptian gods in a ship</text>
</g>
<!-- Entity19&#45;&gt;Entity63 -->
<g id="edge61" class="edge verb">
<title>Entity19&#45;&gt;Entity63</title>
<path fill="none" stroke="black" d="M1846.73,-3520.15C1825.79,-3537.96 1791.63,-3567.03 1767.3,-3587.73"/>
<polygon fill="black" stroke="black" points="1764.81,-3585.25 1759.46,-3594.4 1769.34,-3590.58 1764.81,-3585.25"/>
<text text-anchor="start" x="1777.02" y="-3557.74" font-family="Times New Roman,serif" font-size="14.00">claim</text>
</g>
<!-- Entity49 -->
<g id="node7" class="node entity">
<title>Entity49</title>
<ellipse fill="none" stroke="black" cx="3778.08" cy="-2813.6" rx="57.69" ry="18"/>
<text text-anchor="start" x="3741.58" y="-2809.9" font-family="Times New Roman,serif" font-size="14.00">michael pane</text>
</g>
<!-- Entity49&#45;&gt;Entity61 -->
<g id="edge4" class="edge verb">
<title>Entity49&#45;&gt;Entity61</title>
<path fill="none" stroke="black" d="M3738.19,-2826.79C3642.35,-2858.5 3399.36,-2938.88 3295.61,-2973.2"/>
<polygon fill="black" stroke="black" points="3294.41,-2969.91 3286.02,-2976.38 3296.61,-2976.56 3294.41,-2969.91"/>
<text text-anchor="start" x="3462.9" y="-2903.8" font-family="Times New Roman,serif" font-size="14.00">employee</text>
</g>
<!-- Entity46 -->
<g id="node9" class="node entity">
<title>Entity46</title>
<ellipse fill="none" stroke="black" cx="3939.9" cy="-2705.59" rx="74.99" ry="18"/>
<text text-anchor="start" x="3890.4" y="-2701.89" font-family="Times New Roman,serif" font-size="14.00">walter dornberger</text>
</g>
<!-- Entity49&#45;&gt;Entity46 -->
<g id="edge42" class="edge verb">
<title>Entity49&#45;&gt;Entity46</title>
<path fill="none" stroke="black" d="M3802.65,-2797.2C3830.09,-2778.88 3874.7,-2749.11 3905.57,-2728.5"/>
<polygon fill="black" stroke="black" points="3907.91,-2731.14 3914.28,-2722.68 3904.02,-2725.32 3907.91,-2731.14"/>
<text text-anchor="start" x="3800.11" y="-2766.65" font-family="Times New Roman,serif" font-size="14.00">employee</text>
</g>
<!-- Entity46&#45;&gt;Entity61 -->
<g id="edge5" class="edge verb">
<title>Entity46&#45;&gt;Entity61</title>
<path fill="none" stroke="black" d="M3895.26,-2720.1C3768.06,-2767.44 3405.28,-2916.04 3286,-2969.72"/>
<polygon fill="black" stroke="black" points="3284.51,-2966.55 3276.85,-2973.87 3287.4,-2972.93 3284.51,-2966.55"/>
<text text-anchor="start" x="3536.63" y="-2848.71" font-family="Times New Roman,serif" font-size="14.00">employee</text>
</g>
<!-- Entity46&#45;&gt;Entity61 -->
<g id="edge6" class="edge verb">
<title>Entity46&#45;&gt;Entity61</title>
<path fill="none" stroke="black" d="M3908.14,-2721.93C3797.69,-2772.23 3429.96,-2923.01 3296.44,-2973"/>
<polygon fill="black" stroke="black" points="3295.02,-2969.8 3286.86,-2976.56 3297.46,-2976.36 3295.02,-2969.8"/>
<text text-anchor="start" x="3602.29" y="-2851.27" font-family="Times New Roman,serif" font-size="14.00">vice&#45;president</text>
</g>
<!-- Entity54 -->
<g id="node42" class="node entity">
<title>Entity54</title>
<ellipse fill="none" stroke="black" cx="4319.73" cy="-2273.38" rx="32.49" ry="18"/>
<text text-anchor="start" x="4302.73" y="-2269.68" font-family="Times New Roman,serif" font-size="14.00">nsdap</text>
</g>
<!-- Entity46&#45;&gt;Entity54 -->
<g id="edge43" class="edge verb">
<title>Entity46&#45;&gt;Entity54</title>
<path fill="none" stroke="black" d="M3955.49,-2687.84C4015.3,-2619.79 4230.02,-2375.46 4298.55,-2297.48"/>
<polygon fill="black" stroke="black" points="4301.47,-2299.46 4305.44,-2289.63 4296.21,-2294.83 4301.47,-2299.46"/>
<text text-anchor="start" x="4081.02" y="-2496.46" font-family="Times New Roman,serif" font-size="14.00">member</text>
</g>
<!-- Entity73 -->
<g id="node51" class="node entity">
<title>Entity73</title>
<ellipse fill="none" stroke="black" cx="4623.79" cy="-2784.68" rx="90.98" ry="18"/>
<text text-anchor="start" x="4561.79" y="-2780.98" font-family="Times New Roman,serif" font-size="14.00">nsdap rocket program</text>
</g>
<!-- Entity46&#45;&gt;Entity73 -->
<g id="edge51" class="edge verb">
<title>Entity46&#45;&gt;Entity73</title>
<path fill="none" stroke="black" d="M4007.34,-2713.39C4131.53,-2727.75 4396.32,-2758.37 4534.96,-2774.4"/>
<polygon fill="black" stroke="black" points="4534.79,-2777.91 4545.13,-2775.58 4535.6,-2770.95 4534.79,-2777.91"/>
<text text-anchor="start" x="4237.15" y="-2747.7" font-family="Times New Roman,serif" font-size="14.00">create</text>
</g>
<!-- Entity79 -->
<g id="node54" class="node entity">
<title>Entity79</title>
<ellipse fill="none" stroke="black" cx="4152.75" cy="-2813.58" rx="65.79" ry="18"/>
<text text-anchor="start" x="4110.25" y="-2809.88" font-family="Times New Roman,serif" font-size="14.00">x series aircraft</text>
</g>
<!-- Entity46&#45;&gt;Entity79 -->
<g id="edge53" class="edge verb">
<title>Entity46&#45;&gt;Entity79</title>
<path fill="none" stroke="black" d="M3972.22,-2721.99C4009.77,-2741.04 4071.75,-2772.48 4112.41,-2793.11"/>
<polygon fill="black" stroke="black" points="4111.01,-2796.33 4121.51,-2797.73 4114.17,-2790.08 4111.01,-2796.33"/>
<text text-anchor="start" x="4008.32" y="-2761.35" font-family="Times New Roman,serif" font-size="14.00">create</text>
</g>
<!-- Entity18 -->
<g id="node11" class="node entity">
<title>Entity18</title>
<ellipse fill="none" stroke="black" cx="1765.27" cy="-2356.02" rx="63.89" ry="18"/>
<text text-anchor="start" x="1724.27" y="-2352.32" font-family="Times New Roman,serif" font-size="14.00">george w bush</text>
</g>
<!-- Entity18&#45;&gt;Entity60 -->
<g id="edge8" class="edge verb">
<title>Entity18&#45;&gt;Entity60</title>
<path fill="none" stroke="black" d="M1772.58,-2374.33C1779.43,-2391.51 1789.78,-2417.42 1797.58,-2436.97"/>
<polygon fill="black" stroke="black" points="1794.33,-2438.27 1801.29,-2446.26 1800.83,-2435.67 1794.33,-2438.27"/>
<text text-anchor="start" x="1775.08" y="-2409.45" font-family="Times New Roman,serif" font-size="14.00">is</text>
</g>
<!-- Entity11 -->
<g id="node12" class="node entity">
<title>Entity11</title>
<ellipse fill="none" stroke="black" cx="1803.27" cy="-3227.43" rx="59.59" ry="18"/>
<text text-anchor="start" x="1765.27" y="-3223.73" font-family="Times New Roman,serif" font-size="14.00">donald trump</text>
</g>
<!-- Entity11&#45;&gt;Entity60 -->
<g id="edge9" class="edge verb">
<title>Entity11&#45;&gt;Entity60</title>
<path fill="none" stroke="black" d="M1803.39,-3209.31C1804.06,-3108.48 1807.33,-2616.6 1808.15,-2492.44"/>
<polygon fill="black" stroke="black" points="1811.65,-2492.25 1808.22,-2482.22 1804.65,-2492.2 1811.65,-2492.25"/>
<text text-anchor="start" x="1795.77" y="-2854.67" font-family="Times New Roman,serif" font-size="14.00">is</text>
</g>
<!-- Entity35 -->
<g id="node34" class="node entity">
<title>Entity35</title>
<ellipse fill="none" stroke="black" cx="2220.7" cy="-3594.7" rx="50.09" ry="18"/>
<text text-anchor="start" x="2190.2" y="-3591" font-family="Times New Roman,serif" font-size="14.00">john trump</text>
</g>
<!-- Entity11&#45;&gt;Entity35 -->
<g id="edge38" class="edge verb">
<title>Entity11&#45;&gt;Entity35</title>
<path fill="none" stroke="black" d="M1822.84,-3244.65C1890.65,-3304.31 2115.61,-3502.24 2193.71,-3570.96"/>
<polygon fill="black" stroke="black" points="2191.83,-3573.96 2201.65,-3577.94 2196.45,-3568.71 2191.83,-3573.96"/>
<text text-anchor="start" x="1965.28" y="-3411.6" font-family="Times New Roman,serif" font-size="14.00">nephew</text>
</g>
<!-- Entity9 -->
<g id="node13" class="node entity">
<title>Entity9</title>
<ellipse fill="none" stroke="black" cx="1742.94" cy="-1957.94" rx="56.59" ry="18"/>
<text text-anchor="start" x="1707.44" y="-1954.24" font-family="Times New Roman,serif" font-size="14.00">harry truman</text>
</g>
<!-- Entity9&#45;&gt;Entity60 -->
<g id="edge10" class="edge verb">
<title>Entity9&#45;&gt;Entity60</title>
<path fill="none" stroke="black" d="M1745.27,-1975.94C1755.04,-2051.56 1792.8,-2343.7 1804.72,-2435.89"/>
<polygon fill="black" stroke="black" points="1801.26,-2436.41 1806.01,-2445.88 1808.2,-2435.51 1801.26,-2436.41"/>
<text text-anchor="start" x="1764.99" y="-2209.72" font-family="Times New Roman,serif" font-size="14.00">is</text>
</g>
<!-- Entity59 -->
<g id="node59" class="node entity">
<title>Entity59</title>
<ellipse fill="none" stroke="black" cx="1693.43" cy="-1436.73" rx="55.79" ry="18"/>
<text text-anchor="start" x="1658.43" y="-1433.03" font-family="Times New Roman,serif" font-size="14.00">freemasonry</text>
</g>
<!-- Entity9&#45;&gt;Entity59 -->
<g id="edge62" class="edge verb">
<title>Entity9&#45;&gt;Entity59</title>
<path fill="none" stroke="black" d="M1741.21,-1939.69C1733.84,-1862.13 1705.09,-1559.47 1696.12,-1465.03"/>
<polygon fill="black" stroke="black" points="1699.58,-1464.45 1695.15,-1454.82 1692.61,-1465.11 1699.58,-1464.45"/>
<text text-anchor="start" x="1672.67" y="-1706.16" font-family="Times New Roman,serif" font-size="14.00">member</text>
</g>
<!-- Entity13 -->
<g id="node14" class="node entity">
<title>Entity13</title>
<ellipse fill="none" stroke="black" cx="1973.75" cy="-2065.88" rx="58.49" ry="18"/>
<text text-anchor="start" x="1936.75" y="-2062.18" font-family="Times New Roman,serif" font-size="14.00">richard nixon</text>
</g>
<!-- Entity13&#45;&gt;Entity60 -->
<g id="edge11" class="edge verb">
<title>Entity13&#45;&gt;Entity60</title>
<path fill="none" stroke="black" d="M1966.32,-2083.75C1940.03,-2147.02 1851.28,-2360.6 1819.65,-2436.71"/>
<polygon fill="black" stroke="black" points="1816.36,-2435.53 1815.75,-2446.11 1822.82,-2438.21 1816.36,-2435.53"/>
<text text-anchor="start" x="1882.99" y="-2264.03" font-family="Times New Roman,serif" font-size="14.00">is</text>
</g>
<!-- Entity14 -->
<g id="node15" class="node entity">
<title>Entity14</title>
<ellipse fill="none" stroke="black" cx="2096.27" cy="-2673.06" rx="31.4" ry="18"/>
<text text-anchor="start" x="2080.27" y="-2669.36" font-family="Times New Roman,serif" font-size="14.00">carter</text>
</g>
<!-- Entity14&#45;&gt;Entity60 -->
<g id="edge12" class="edge verb">
<title>Entity14&#45;&gt;Entity60</title>
<path fill="none" stroke="black" d="M2076.48,-2658.69C2026.33,-2622.26 1894.13,-2526.24 1836.2,-2484.17"/>
<polygon fill="black" stroke="black" points="1838.04,-2481.18 1827.89,-2478.13 1833.92,-2486.84 1838.04,-2481.18"/>
<text text-anchor="start" x="1946.34" y="-2575.23" font-family="Times New Roman,serif" font-size="14.00">is</text>
</g>
<!-- Entity64 -->
<g id="node16" class="node entity">
<title>Entity64</title>
<ellipse fill="none" stroke="black" cx="2286.88" cy="-2939.74" rx="27" ry="18"/>
<text text-anchor="start" x="2277.38" y="-2936.04" font-family="Times New Roman,serif" font-size="14.00">ufo</text>
</g>
<!-- Entity14&#45;&gt;Entity64 -->
<g id="edge13" class="edge verb">
<title>Entity14&#45;&gt;Entity64</title>
<path fill="none" stroke="black" d="M2108.19,-2689.74C2140.7,-2735.22 2230.97,-2861.52 2269.31,-2915.15"/>
<polygon fill="black" stroke="black" points="2266.54,-2917.3 2275.21,-2923.4 2272.24,-2913.23 2266.54,-2917.3"/>
<text text-anchor="start" x="2146.75" y="-2806.25" font-family="Times New Roman,serif" font-size="14.00">witness</text>
</g>
<!-- Entity17 -->
<g id="node17" class="node entity">
<title>Entity17</title>
<ellipse fill="none" stroke="black" cx="1594.26" cy="-2187.52" rx="35.19" ry="18"/>
<text text-anchor="start" x="1575.26" y="-2183.82" font-family="Times New Roman,serif" font-size="14.00">obama</text>
</g>
<!-- Entity17&#45;&gt;Entity60 -->
<g id="edge14" class="edge verb">
<title>Entity17&#45;&gt;Entity60</title>
<path fill="none" stroke="black" d="M1607.33,-2204.39C1643.69,-2251.34 1746.2,-2383.69 1789.09,-2439.08"/>
<polygon fill="black" stroke="black" points="1786.55,-2441.52 1795.44,-2447.28 1792.09,-2437.23 1786.55,-2441.52"/>
<text text-anchor="start" x="1688.21" y="-2325.53" font-family="Times New Roman,serif" font-size="14.00">is</text>
</g>
<!-- Entity10 -->
<g id="node18" class="node entity">
<title>Entity10</title>
<ellipse fill="none" stroke="black" cx="1351.65" cy="-2460.61" rx="68.49" ry="18"/>
<text text-anchor="start" x="1307.15" y="-2456.91" font-family="Times New Roman,serif" font-size="14.00">george hw bush</text>
</g>
<!-- Entity10&#45;&gt;Entity60 -->
<g id="edge15" class="edge verb">
<title>Entity10&#45;&gt;Entity60</title>
<path fill="none" stroke="black" d="M1420.03,-2461.11C1516.11,-2461.81 1688.15,-2463.06 1766.92,-2463.63"/>
<polygon fill="black" stroke="black" points="1766.92,-2467.13 1776.94,-2463.7 1766.97,-2460.13 1766.92,-2467.13"/>
<text text-anchor="start" x="1583.47" y="-2466.17" font-family="Times New Roman,serif" font-size="14.00">is</text>
</g>
<!-- Entity10&#45;&gt;Entity18 -->
<g id="edge29" class="edge verb">
<title>Entity10&#45;&gt;Entity18</title>
<path fill="none" stroke="black" d="M1401.14,-2448.1C1478.04,-2428.65 1625.89,-2391.27 1707.54,-2370.62"/>
<polygon fill="black" stroke="black" points="1708.81,-2373.91 1717.65,-2368.06 1707.09,-2367.12 1708.81,-2373.91"/>
<text text-anchor="start" x="1522.34" y="-2413.16" font-family="Times New Roman,serif" font-size="14.00">father</text>
</g>
<!-- Entity26 -->
<g id="node19" class="node entity">
<title>Entity26</title>
<ellipse fill="none" stroke="black" cx="849.38" cy="-126.11" rx="58.49" ry="18"/>
<text text-anchor="start" x="812.38" y="-122.41" font-family="Times New Roman,serif" font-size="14.00">rudolf steiner</text>
</g>
<!-- Entity68 -->
<g id="node20" class="node entity">
<title>Entity68</title>
<ellipse fill="none" stroke="black" cx="926.7" cy="-18.18" rx="102.08" ry="18"/>
<text text-anchor="start" x="856.2" y="-14.48" font-family="Times New Roman,serif" font-size="14.00">anthroposophical society</text>
</g>
<!-- Entity26&#45;&gt;Entity68 -->
<g id="edge16" class="edge verb">
<title>Entity26&#45;&gt;Entity68</title>
<path fill="none" stroke="black" d="M862.15,-108.29C874.55,-90.97 893.54,-64.47 907.72,-44.68"/>
<polygon fill="black" stroke="black" points="910.68,-46.55 913.66,-36.39 904.99,-42.48 910.68,-46.55"/>
<text text-anchor="start" x="850.93" y="-80.28" font-family="Times New Roman,serif" font-size="14.00">create</text>
</g>
<!-- Entity66 -->
<g id="node23" class="node entity">
<title>Entity66</title>
<ellipse fill="none" stroke="black" cx="498.65" cy="-563.16" rx="85.29" ry="18"/>
<text text-anchor="start" x="441.15" y="-559.46" font-family="Times New Roman,serif" font-size="14.00">theosophical society</text>
</g>
<!-- Entity26&#45;&gt;Entity66 -->
<g id="edge21" class="edge verb">
<title>Entity26&#45;&gt;Entity66</title>
<path fill="none" stroke="black" d="M835.2,-143.78C780.67,-211.73 584.34,-456.38 519.56,-537.11"/>
<polygon fill="black" stroke="black" points="516.54,-535.27 513.01,-545.26 522,-539.65 516.54,-535.27"/>
<text text-anchor="start" x="631.38" y="-344.25" font-family="Times New Roman,serif" font-size="14.00">member</text>
</g>
<!-- Entity22 -->
<g id="node21" class="node entity">
<title>Entity22</title>
<ellipse fill="none" stroke="black" cx="2211.46" cy="-3234.61" rx="27" ry="18"/>
<text text-anchor="start" x="2203.46" y="-3230.91" font-family="Times New Roman,serif" font-size="14.00">cia</text>
</g>
<!-- Entity22&#45;&gt;Entity64 -->
<g id="edge17" class="edge verb">
<title>Entity22&#45;&gt;Entity64</title>
<path fill="none" stroke="black" d="M2216.07,-3216.61C2228.8,-3166.83 2264.54,-3027.07 2279.82,-2967.36"/>
<polygon fill="black" stroke="black" points="2283.25,-2968.06 2282.34,-2957.5 2276.47,-2966.32 2283.25,-2968.06"/>
<text text-anchor="start" x="2183.94" y="-3095.78" font-family="Times New Roman,serif" font-size="14.00">investigates</text>
</g>
<!-- Entity22&#45;&gt;Entity58 -->
<g id="edge63" class="edge verb">
<title>Entity22&#45;&gt;Entity58</title>
<path fill="none" stroke="black" d="M2189.13,-3224.39C2122.54,-3193.92 1924.48,-3103.3 1835.1,-3062.41"/>
<polygon fill="black" stroke="black" points="1836.33,-3059.12 1825.78,-3058.14 1833.42,-3065.49 1836.33,-3059.12"/>
<text text-anchor="start" x="1948.11" y="-3147.2" font-family="Times New Roman,serif" font-size="14.00">investigates</text>
</g>
<!-- Entity28 -->
<g id="node22" class="node entity">
<title>Entity28</title>
<ellipse fill="none" stroke="black" cx="73.08" cy="-58.53" rx="73.39" ry="18"/>
<text text-anchor="start" x="24.58" y="-54.83" font-family="Times New Roman,serif" font-size="14.00">madam blavatsky</text>
</g>
<!-- Entity28&#45;&gt;Entity66 -->
<g id="edge18" class="edge verb">
<title>Entity28&#45;&gt;Entity66</title>
<path fill="none" stroke="black" d="M87.98,-76.19C151.75,-151.81 401.89,-448.42 477.13,-537.64"/>
<polygon fill="black" stroke="black" points="474.53,-539.99 483.66,-545.37 479.88,-535.47 474.53,-539.99"/>
<text text-anchor="start" x="248.55" y="-310.71" font-family="Times New Roman,serif" font-size="14.00">create</text>
</g>
<!-- Entity24 -->
<g id="node24" class="node entity">
<title>Entity24</title>
<ellipse fill="none" stroke="black" cx="2244.67" cy="-2230.31" rx="71.49" ry="18"/>
<text text-anchor="start" x="2197.67" y="-2226.61" font-family="Times New Roman,serif" font-size="14.00">woodrow wilson</text>
</g>
<!-- Entity24&#45;&gt;Entity60 -->
<g id="edge20" class="edge verb">
<title>Entity24&#45;&gt;Entity60</title>
<path fill="none" stroke="black" d="M2213.99,-2246.74C2134.4,-2289.36 1921.85,-2403.16 1840.57,-2446.68"/>
<polygon fill="black" stroke="black" points="1838.49,-2443.82 1831.32,-2451.63 1841.79,-2449.99 1838.49,-2443.82"/>
<text text-anchor="start" x="2017.28" y="-2350.51" font-family="Times New Roman,serif" font-size="14.00">is</text>
</g>
<!-- Entity67 -->
<g id="node25" class="node entity">
<title>Entity67</title>
<ellipse fill="none" stroke="black" cx="2739.86" cy="-1960.19" rx="71.49" ry="18"/>
<text text-anchor="start" x="2692.86" y="-1956.49" font-family="Times New Roman,serif" font-size="14.00">leauge of nations</text>
</g>
<!-- Entity24&#45;&gt;Entity67 -->
<g id="edge19" class="edge verb">
<title>Entity24&#45;&gt;Entity67</title>
<path fill="none" stroke="black" d="M2274.9,-2213.82C2360.56,-2167.1 2604.86,-2033.83 2700.65,-1981.58"/>
<polygon fill="black" stroke="black" points="2702.61,-1984.49 2709.72,-1976.63 2699.26,-1978.35 2702.61,-1984.49"/>
<text text-anchor="start" x="2453.78" y="-2101.5" font-family="Times New Roman,serif" font-size="14.00">create</text>
</g>
<!-- Entity29 -->
<g id="node26" class="node entity">
<title>Entity29</title>
<ellipse fill="none" stroke="black" cx="1684.9" cy="-4053.81" rx="58.49" ry="18"/>
<text text-anchor="start" x="1647.9" y="-4050.11" font-family="Times New Roman,serif" font-size="14.00">steve bannon</text>
</g>
<!-- Entity29&#45;&gt;Entity11 -->
<g id="edge36" class="edge verb">
<title>Entity29&#45;&gt;Entity11</title>
<path fill="none" stroke="black" d="M1689.71,-4035.7C1710.94,-3929.29 1788.96,-3385.66 1801.92,-3255.47"/>
<polygon fill="black" stroke="black" points="1805.41,-3255.77 1802.85,-3245.49 1798.44,-3255.12 1805.41,-3255.77"/>
<text text-anchor="start" x="1697.81" y="-3649.38" font-family="Times New Roman,serif" font-size="14.00">promote</text>
</g>
<!-- Entity29&#45;&gt;Entity11 -->
<g id="edge39" class="edge verb">
<title>Entity29&#45;&gt;Entity11</title>
<path fill="none" stroke="black" d="M1685.34,-4035.47C1694.66,-3928.56 1772.2,-3385.98 1796.53,-3255.62"/>
<polygon fill="black" stroke="black" points="1800,-3256.1 1798.45,-3245.62 1793.13,-3254.78 1800,-3256.1"/>
<text text-anchor="start" x="1704.94" y="-3634.34" font-family="Times New Roman,serif" font-size="14.00">advise</text>
</g>
<!-- Entity74 -->
<g id="node27" class="node entity">
<title>Entity74</title>
<ellipse fill="none" stroke="black" cx="1650.07" cy="-4514.19" rx="38.19" ry="18"/>
<text text-anchor="start" x="1628.57" y="-4510.49" font-family="Times New Roman,serif" font-size="14.00">us navy</text>
</g>
<!-- Entity29&#45;&gt;Entity74 -->
<g id="edge22" class="edge verb">
<title>Entity29&#45;&gt;Entity74</title>
<path fill="none" stroke="black" d="M1683.54,-4071.85C1678.2,-4142.4 1658.72,-4399.86 1652.21,-4485.94"/>
<polygon fill="black" stroke="black" points="1648.71,-4485.79 1651.45,-4496.02 1655.69,-4486.31 1648.71,-4485.79"/>
<text text-anchor="start" x="1621.87" y="-4282.7" font-family="Times New Roman,serif" font-size="14.00">member</text>
</g>
<!-- Entity65 -->
<g id="node28" class="node entity">
<title>Entity65</title>
<ellipse fill="none" stroke="black" cx="1908.71" cy="-4442.07" rx="35.19" ry="18"/>
<text text-anchor="start" x="1889.71" y="-4438.37" font-family="Times New Roman,serif" font-size="14.00">gurgev</text>
</g>
<!-- Entity29&#45;&gt;Entity65 -->
<g id="edge23" class="edge verb">
<title>Entity29&#45;&gt;Entity65</title>
<path fill="none" stroke="black" d="M1695.25,-4071.76C1731.28,-4134.26 1851.33,-4342.53 1893.73,-4416.08"/>
<polygon fill="black" stroke="black" points="1890.7,-4417.84 1898.73,-4424.75 1896.77,-4414.34 1890.7,-4417.84"/>
<text text-anchor="start" x="1763.49" y="-4247.72" font-family="Times New Roman,serif" font-size="14.00">study</text>
</g>
<!-- Entity82 -->
<g id="node29" class="node entity">
<title>Entity82</title>
<ellipse fill="none" stroke="black" cx="1462.51" cy="-4645.04" rx="77.19" ry="18"/>
<text text-anchor="start" x="1411.01" y="-4641.34" font-family="Times New Roman,serif" font-size="14.00">hollywood movies</text>
</g>
<!-- Entity29&#45;&gt;Entity82 -->
<g id="edge25" class="edge verb">
<title>Entity29&#45;&gt;Entity82</title>
<path fill="none" stroke="black" d="M1678.13,-4071.82C1646.28,-4156.48 1511.46,-4514.89 1472.87,-4617.5"/>
<polygon fill="black" stroke="black" points="1469.59,-4616.28 1469.34,-4626.87 1476.14,-4618.75 1469.59,-4616.28"/>
<text text-anchor="start" x="1528.5" y="-4348.46" font-family="Times New Roman,serif" font-size="14.00">produce</text>
</g>
<!-- Entity76 -->
<g id="node30" class="node entity">
<title>Entity76</title>
<ellipse fill="none" stroke="black" cx="1375.2" cy="-4471.59" rx="53.09" ry="18"/>
<text text-anchor="start" x="1342.2" y="-4467.89" font-family="Times New Roman,serif" font-size="14.00">biosphere 2</text>
</g>
<!-- Entity29&#45;&gt;Entity76 -->
<g id="edge26" class="edge verb">
<title>Entity29&#45;&gt;Entity76</title>
<path fill="none" stroke="black" d="M1671.79,-4071.49C1623.13,-4137.14 1452.66,-4367.1 1394.68,-4445.32"/>
<polygon fill="black" stroke="black" points="1391.63,-4443.55 1388.49,-4453.67 1397.26,-4447.72 1391.63,-4443.55"/>
<text text-anchor="start" x="1499.24" y="-4262.2" font-family="Times New Roman,serif" font-size="14.00">create</text>
</g>
<!-- Entity69 -->
<g id="node31" class="node entity">
<title>Entity69</title>
<ellipse fill="none" stroke="black" cx="1879.73" cy="-4663.41" rx="61.99" ry="18"/>
<text text-anchor="start" x="1840.23" y="-4659.71" font-family="Times New Roman,serif" font-size="14.00">breitbart news</text>
</g>
<!-- Entity29&#45;&gt;Entity69 -->
<g id="edge27" class="edge verb">
<title>Entity29&#45;&gt;Entity69</title>
<path fill="none" stroke="black" d="M1690.63,-4071.72C1718.18,-4157.94 1837.19,-4530.32 1870.84,-4635.59"/>
<polygon fill="black" stroke="black" points="1867.53,-4636.74 1873.91,-4645.2 1874.2,-4634.61 1867.53,-4636.74"/>
<text text-anchor="start" x="1746.73" y="-4357.46" font-family="Times New Roman,serif" font-size="14.00">create</text>
</g>
<!-- Entity75 -->
<g id="node50" class="node entity">
<title>Entity75</title>
<ellipse fill="none" stroke="black" cx="1204.21" cy="-4363.61" rx="64.99" ry="18"/>
<text text-anchor="start" x="1162.21" y="-4359.91" font-family="Times New Roman,serif" font-size="14.00">goldman sachs</text>
</g>
<!-- Entity29&#45;&gt;Entity75 -->
<g id="edge50" class="edge verb">
<title>Entity29&#45;&gt;Entity75</title>
<path fill="none" stroke="black" d="M1659.4,-4070.25C1578.91,-4122.12 1330.19,-4282.42 1238.56,-4341.47"/>
<polygon fill="black" stroke="black" points="1236.45,-4338.67 1229.94,-4347.03 1240.24,-4344.55 1236.45,-4338.67"/>
<text text-anchor="start" x="1394.98" y="-4209.66" font-family="Times New Roman,serif" font-size="14.00">employee</text>
</g>
<!-- Entity7 -->
<g id="node32" class="node entity">
<title>Entity7</title>
<ellipse fill="none" stroke="black" cx="1172.94" cy="-2921.99" rx="68.49" ry="18"/>
<text text-anchor="start" x="1128.44" y="-2918.29" font-family="Times New Roman,serif" font-size="14.00">jeffrey mishlove</text>
</g>
<!-- Entity7&#45;&gt;Entity2 -->
<g id="edge28" class="edge verb">
<title>Entity7&#45;&gt;Entity2</title>
<path fill="none" stroke="black" d="M1180.3,-2939.97C1210.95,-3014.74 1328.45,-3301.45 1365.35,-3391.49"/>
<polygon fill="black" stroke="black" points="1362.12,-3392.84 1369.15,-3400.77 1368.6,-3390.19 1362.12,-3392.84"/>
<text text-anchor="start" x="1224.83" y="-3169.53" font-family="Times New Roman,serif" font-size="14.00">promote</text>
</g>
<!-- Entity7&#45;&gt;Entity58 -->
<g id="edge60" class="edge verb">
<title>Entity7&#45;&gt;Entity58</title>
<path fill="none" stroke="black" d="M1220.15,-2935.06C1325.93,-2959.29 1582.8,-3009.48 1712.62,-3031.59"/>
<polygon fill="black" stroke="black" points="1712.06,-3035.05 1722.5,-3033.26 1713.23,-3028.15 1712.06,-3035.05"/>
<text text-anchor="start" x="1435.39" y="-2987.13" font-family="Times New Roman,serif" font-size="14.00">study</text>
</g>
<!-- Entity7&#45;&gt;Entity58 -->
<g id="edge64" class="edge verb">
<title>Entity7&#45;&gt;Entity58</title>
<path fill="none" stroke="black" d="M1234.93,-2929.72C1353.84,-2949.41 1612.57,-2999.69 1730.15,-3025.96"/>
<polygon fill="black" stroke="black" points="1729.54,-3029.41 1740.07,-3028.19 1731.08,-3022.58 1729.54,-3029.41"/>
<text text-anchor="start" x="1418.54" y="-2966.64" font-family="Times New Roman,serif" font-size="14.00">investigates</text>
</g>
<!-- Entity40 -->
<g id="node33" class="node entity">
<title>Entity40</title>
<ellipse fill="none" stroke="black" cx="1370.58" cy="-1945.48" rx="67.69" ry="18"/>
<text text-anchor="start" x="1326.58" y="-1941.78" font-family="Times New Roman,serif" font-size="14.00">abraham lincoln</text>
</g>
<!-- Entity40&#45;&gt;Entity60 -->
<g id="edge30" class="edge verb">
<title>Entity40&#45;&gt;Entity60</title>
<path fill="none" stroke="black" d="M1385.65,-1963.32C1451.4,-2041.2 1713.24,-2351.3 1788.2,-2440.07"/>
<polygon fill="black" stroke="black" points="1785.53,-2442.35 1794.66,-2447.73 1790.88,-2437.83 1785.53,-2442.35"/>
<text text-anchor="start" x="1576.92" y="-2205.5" font-family="Times New Roman,serif" font-size="14.00">is</text>
</g>
<!-- Entity35&#45;&gt;Entity22 -->
<g id="edge37" class="edge verb">
<title>Entity35&#45;&gt;Entity22</title>
<path fill="none" stroke="black" d="M2220.23,-3576.35C2218.72,-3517.6 2214.01,-3333.84 2212.19,-3262.92"/>
<polygon fill="black" stroke="black" points="2215.69,-3262.83 2211.93,-3252.92 2208.69,-3263.01 2215.69,-3262.83"/>
<text text-anchor="start" x="2170.21" y="-3423.44" font-family="Times New Roman,serif" font-size="14.00">member</text>
</g>
<!-- Entity77 -->
<g id="node35" class="node entity">
<title>Entity77</title>
<ellipse fill="none" stroke="black" cx="2534.91" cy="-3964.81" rx="50.89" ry="18"/>
<text text-anchor="start" x="2503.91" y="-3961.11" font-family="Times New Roman,serif" font-size="14.00">nikola tesla</text>
</g>
<!-- Entity35&#45;&gt;Entity77 -->
<g id="edge31" class="edge verb">
<title>Entity35&#45;&gt;Entity77</title>
<path fill="none" stroke="black" d="M2235.43,-3612.06C2286.15,-3671.8 2453.67,-3869.12 2513.46,-3939.55"/>
<polygon fill="black" stroke="black" points="2511.06,-3942.14 2520.2,-3947.49 2516.4,-3937.61 2511.06,-3942.14"/>
<text text-anchor="start" x="2343.45" y="-3779.6" font-family="Times New Roman,serif" font-size="14.00">study</text>
</g>
<!-- Entity41 -->
<g id="node36" class="node entity">
<title>Entity41</title>
<ellipse fill="none" stroke="black" cx="1924.48" cy="-5250.86" rx="69.59" ry="18"/>
<text text-anchor="start" x="1878.98" y="-5247.16" font-family="Times New Roman,serif" font-size="14.00">andrew breitbart</text>
</g>
<!-- Entity41&#45;&gt;Entity69 -->
<g id="edge32" class="edge verb">
<title>Entity41&#45;&gt;Entity69</title>
<path fill="none" stroke="black" d="M1923.09,-5232.64C1916.66,-5148.18 1889.72,-4794.62 1881.88,-4691.66"/>
<polygon fill="black" stroke="black" points="1885.35,-4691.13 1881.1,-4681.43 1878.37,-4691.66 1885.35,-4691.13"/>
<text text-anchor="start" x="1868.48" y="-4965.95" font-family="Times New Roman,serif" font-size="14.00">create</text>
</g>
<!-- Entity38 -->
<g id="node37" class="node entity">
<title>Entity38</title>
<ellipse fill="none" stroke="black" cx="812.64" cy="-1296.12" rx="90.98" ry="18"/>
<text text-anchor="start" x="750.64" y="-1292.42" font-family="Times New Roman,serif" font-size="14.00">emma hardinge&#45;britten</text>
</g>
<!-- Entity38&#45;&gt;Entity66 -->
<g id="edge33" class="edge verb">
<title>Entity38&#45;&gt;Entity66</title>
<path fill="none" stroke="black" d="M804.88,-1278C762.76,-1179.68 561.65,-710.22 510.51,-590.83"/>
<polygon fill="black" stroke="black" points="513.58,-589.11 506.42,-581.3 507.14,-591.87 513.58,-589.11"/>
<text text-anchor="start" x="623.69" y="-938.22" font-family="Times New Roman,serif" font-size="14.00">create</text>
</g>
<!-- Entity38&#45;&gt;Entity40 -->
<g id="edge40" class="edge verb">
<title>Entity38&#45;&gt;Entity40</title>
<path fill="none" stroke="black" d="M828.14,-1314.17C906.36,-1405.2 1257.48,-1813.85 1348.81,-1920.14"/>
<polygon fill="black" stroke="black" points="1346.24,-1922.52 1355.41,-1927.82 1351.55,-1917.96 1346.24,-1922.52"/>
<text text-anchor="start" x="1009.48" y="-1620.95" font-family="Times New Roman,serif" font-size="14.00">spokesperson</text>
</g>
<!-- Entity72 -->
<g id="node43" class="node entity">
<title>Entity72</title>
<ellipse fill="none" stroke="black" cx="354.89" cy="-881.12" rx="55.79" ry="18"/>
<text text-anchor="start" x="319.89" y="-877.42" font-family="Times New Roman,serif" font-size="14.00">orphic circle</text>
</g>
<!-- Entity38&#45;&gt;Entity72 -->
<g id="edge44" class="edge verb">
<title>Entity38&#45;&gt;Entity72</title>
<path fill="none" stroke="black" d="M792.97,-1278.29C720.03,-1212.16 464.91,-980.87 381.5,-905.25"/>
<polygon fill="black" stroke="black" points="383.74,-902.55 373.98,-898.42 379.03,-907.73 383.74,-902.55"/>
<text text-anchor="start" x="541.23" y="-1095.57" font-family="Times New Roman,serif" font-size="14.00">member</text>
</g>
<!-- Entity78 -->
<g id="node49" class="node entity">
<title>Entity78</title>
<ellipse fill="none" stroke="black" cx="270.76" cy="-1129.62" rx="39.79" ry="18"/>
<text text-anchor="start" x="248.26" y="-1125.92" font-family="Times New Roman,serif" font-size="14.00">medium</text>
</g>
<!-- Entity38&#45;&gt;Entity78 -->
<g id="edge49" class="edge verb">
<title>Entity38&#45;&gt;Entity78</title>
<path fill="none" stroke="black" d="M763.11,-1280.9C657.66,-1248.5 412.48,-1173.17 313.42,-1142.73"/>
<polygon fill="black" stroke="black" points="314.33,-1139.35 303.74,-1139.75 312.27,-1146.04 314.33,-1139.35"/>
<text text-anchor="start" x="528.27" y="-1215.62" font-family="Times New Roman,serif" font-size="14.00">is</text>
</g>
<!-- Entity20 -->
<g id="node38" class="node entity">
<title>Entity20</title>
<ellipse fill="none" stroke="black" cx="1154.44" cy="-2813.97" rx="63.89" ry="18"/>
<text text-anchor="start" x="1113.44" y="-2810.27" font-family="Times New Roman,serif" font-size="14.00">robert bigelow</text>
</g>
<!-- Entity20&#45;&gt;Entity7 -->
<g id="edge34" class="edge verb">
<title>Entity20&#45;&gt;Entity7</title>
<path fill="none" stroke="black" d="M1157.57,-2832.29C1160.46,-2849.15 1164.79,-2874.42 1168.12,-2893.84"/>
<polygon fill="black" stroke="black" points="1164.71,-2894.67 1169.84,-2903.94 1171.61,-2893.49 1164.71,-2894.67"/>
<text text-anchor="start" x="1130.84" y="-2866.87" font-family="Times New Roman,serif" font-size="14.00">funds</text>
</g>
<!-- Entity20&#45;&gt;Entity58 -->
<g id="edge66" class="edge verb">
<title>Entity20&#45;&gt;Entity58</title>
<path fill="none" stroke="black" d="M1194.22,-2828.23C1304.64,-2867.82 1614.87,-2979.03 1738.58,-3023.39"/>
<polygon fill="black" stroke="black" points="1737.62,-3026.76 1748.21,-3026.84 1739.98,-3020.17 1737.62,-3026.76"/>
<text text-anchor="start" x="1402.4" y="-2929.61" font-family="Times New Roman,serif" font-size="14.00">investigates</text>
</g>
<!-- Entity31 -->
<g id="node39" class="node entity">
<title>Entity31</title>
<ellipse fill="none" stroke="black" cx="2450.37" cy="-1699.81" rx="53.89" ry="18"/>
<text text-anchor="start" x="2416.87" y="-1696.11" font-family="Times New Roman,serif" font-size="14.00">edgar casey</text>
</g>
<!-- Entity31&#45;&gt;Entity24 -->
<g id="edge35" class="edge verb">
<title>Entity31&#45;&gt;Entity24</title>
<path fill="none" stroke="black" d="M2443.41,-1717.77C2413.04,-1796.09 2292.04,-2108.15 2255.3,-2202.89"/>
<polygon fill="black" stroke="black" points="2251.98,-2201.77 2251.63,-2212.36 2258.51,-2204.31 2251.98,-2201.77"/>
<text text-anchor="start" x="2313.35" y="-1964.13" font-family="Times New Roman,serif" font-size="14.00">advise</text>
</g>
<!-- Entity45 -->
<g id="node40" class="node entity">
<title>Entity45</title>
<ellipse fill="none" stroke="black" cx="3219.94" cy="-2402.66" rx="39.79" ry="18"/>
<text text-anchor="start" x="3197.44" y="-2398.96" font-family="Times New Roman,serif" font-size="14.00">crowley</text>
</g>
<!-- Entity71 -->
<g id="node41" class="node entity">
<title>Entity71</title>
<ellipse fill="none" stroke="black" cx="3307.66" cy="-2514.64" rx="38.99" ry="18"/>
<text text-anchor="start" x="3285.66" y="-2510.94" font-family="Times New Roman,serif" font-size="14.00">x magic</text>
</g>
<!-- Entity45&#45;&gt;Entity71 -->
<g id="edge41" class="edge verb">
<title>Entity45&#45;&gt;Entity71</title>
<path fill="none" stroke="black" d="M3233.26,-2419.67C3247.82,-2438.25 3271.28,-2468.2 3287.96,-2489.49"/>
<polygon fill="black" stroke="black" points="3285.29,-2491.76 3294.21,-2497.47 3290.8,-2487.44 3285.29,-2491.76"/>
<text text-anchor="start" x="3214.61" y="-2458.38" font-family="Times New Roman,serif" font-size="14.00">member</text>
</g>
<!-- Entity80 -->
<g id="node55" class="node entity">
<title>Entity80</title>
<ellipse fill="none" stroke="black" cx="4165.76" cy="-1916.47" rx="38.99" ry="18"/>
<text text-anchor="start" x="4143.76" y="-1912.77" font-family="Times New Roman,serif" font-size="14.00">far right</text>
</g>
<!-- Entity54&#45;&gt;Entity80 -->
<g id="edge55" class="edge verb">
<title>Entity54&#45;&gt;Entity80</title>
<path fill="none" stroke="black" d="M4312.09,-2255.68C4287.11,-2197.76 4207.67,-2013.62 4177.52,-1943.73"/>
<polygon fill="black" stroke="black" points="4180.62,-1942.07 4173.44,-1934.28 4174.19,-1944.84 4180.62,-1942.07"/>
<text text-anchor="start" x="4198.81" y="-2103.5" font-family="Times New Roman,serif" font-size="14.00">member</text>
</g>
<!-- Entity47 -->
<g id="node44" class="node entity">
<title>Entity47</title>
<ellipse fill="none" stroke="black" cx="4488.12" cy="-2892.69" rx="46.29" ry="18"/>
<text text-anchor="start" x="4460.62" y="-2888.99" font-family="Times New Roman,serif" font-size="14.00">van braun</text>
</g>
<!-- Entity47&#45;&gt;Entity46 -->
<g id="edge45" class="edge verb">
<title>Entity47&#45;&gt;Entity46</title>
<path fill="none" stroke="black" d="M4452.99,-2880.7C4359.51,-2848.79 4104.22,-2761.67 3992.93,-2723.69"/>
<polygon fill="black" stroke="black" points="3993.85,-2720.3 3983.26,-2720.38 3991.59,-2726.93 3993.85,-2720.3"/>
<text text-anchor="start" x="4222.96" y="-2805.99" font-family="Times New Roman,serif" font-size="14.00">employee</text>
</g>
<!-- Entity47&#45;&gt;Entity73 -->
<g id="edge57" class="edge verb">
<title>Entity47&#45;&gt;Entity73</title>
<path fill="none" stroke="black" d="M4508.43,-2876.52C4530.98,-2858.57 4567.6,-2829.41 4593.53,-2808.77"/>
<polygon fill="black" stroke="black" points="4595.89,-2811.36 4601.54,-2802.4 4591.53,-2805.89 4595.89,-2811.36"/>
<text text-anchor="start" x="4496.98" y="-2846.44" font-family="Times New Roman,serif" font-size="14.00">employee</text>
</g>
<!-- Entity55 -->
<g id="node46" class="node entity">
<title>Entity55</title>
<ellipse fill="none" stroke="black" cx="738.92" cy="-2110.48" rx="37.89" ry="18"/>
<text text-anchor="start" x="717.92" y="-2106.78" font-family="Times New Roman,serif" font-size="14.00">hunt oil</text>
</g>
<!-- Entity53 -->
<g id="node47" class="node entity">
<title>Entity53</title>
<ellipse fill="none" stroke="black" cx="1254.89" cy="-2261.87" rx="77.99" ry="18"/>
<text text-anchor="start" x="1202.89" y="-2258.17" font-family="Times New Roman,serif" font-size="14.00">dwight eisenhower</text>
</g>
<!-- Entity55&#45;&gt;Entity53 -->
<g id="edge47" class="edge verb">
<title>Entity55&#45;&gt;Entity53</title>
<path fill="none" stroke="black" d="M771.19,-2119.95C856.24,-2144.91 1087.39,-2212.72 1196.45,-2244.72"/>
<polygon fill="black" stroke="black" points="1195.72,-2248.15 1206.3,-2247.61 1197.69,-2241.44 1195.72,-2248.15"/>
<text text-anchor="start" x="957.82" y="-2186.14" font-family="Times New Roman,serif" font-size="14.00">fund</text>
</g>
<!-- Entity53&#45;&gt;Entity60 -->
<g id="edge54" class="edge verb">
<title>Entity53&#45;&gt;Entity60</title>
<path fill="none" stroke="black" d="M1296.94,-2277.22C1401.94,-2315.55 1674.17,-2414.95 1772.36,-2450.8"/>
<polygon fill="black" stroke="black" points="1771.26,-2454.12 1781.85,-2454.26 1773.66,-2447.54 1771.26,-2454.12"/>
<text text-anchor="start" x="1524.65" y="-2367.81" font-family="Times New Roman,serif" font-size="14.00">is</text>
</g>
<!-- Entity56&#45;&gt;Entity80 -->
<g id="edge56" class="edge verb">
<title>Entity56&#45;&gt;Entity80</title>
<path fill="none" stroke="black" d="M3746.1,-1773.86C3832.4,-1803.19 4036.91,-1872.68 4124.64,-1902.5"/>
<polygon fill="black" stroke="black" points="4123.65,-1905.86 4134.25,-1905.76 4125.91,-1899.23 4123.65,-1905.86"/>
<text text-anchor="start" x="3889.37" y="-1841.98" font-family="Times New Roman,serif" font-size="14.00">member</text>
</g>
<!-- Entity44 -->
<g id="node52" class="node entity">
<title>Entity44</title>
<ellipse fill="none" stroke="black" cx="3233.94" cy="-3462.66" rx="53.89" ry="18"/>
<text text-anchor="start" x="3200.44" y="-3458.96" font-family="Times New Roman,serif" font-size="14.00">black magic</text>
</g>
<!-- Entity70 -->
<g id="node53" class="node entity">
<title>Entity70</title>
<ellipse fill="none" stroke="black" cx="3321.66" cy="-3574.64" rx="28.7" ry="18"/>
<text text-anchor="start" x="3307.66" y="-3570.94" font-family="Times New Roman,serif" font-size="14.00">x left</text>
</g>
<!-- Entity44&#45;&gt;Entity70 -->
<g id="edge52" class="edge verb">
<title>Entity44&#45;&gt;Entity70</title>
<path fill="none" stroke="black" d="M3247.64,-3480.16C3262.45,-3499.05 3286.14,-3529.29 3302.72,-3550.45"/>
<polygon fill="black" stroke="black" points="3299.98,-3552.64 3308.9,-3558.36 3305.49,-3548.32 3299.98,-3552.64"/>
<text text-anchor="start" x="3229.18" y="-3519.11" font-family="Times New Roman,serif" font-size="14.00">member</text>
</g>
<!-- Entity83 -->
<g id="node56" class="node entity">
<title>Entity83</title>
<ellipse fill="none" stroke="black" cx="2676.94" cy="-2667.66" rx="27" ry="18"/>
<text text-anchor="start" x="2666.94" y="-2663.96" font-family="Times New Roman,serif" font-size="14.00">foo</text>
</g>
<!-- Entity84 -->
<g id="node57" class="node entity">
<title>Entity84</title>
<ellipse fill="none" stroke="black" cx="2764.66" cy="-2779.64" rx="27" ry="18"/>
<text text-anchor="start" x="2754.66" y="-2775.94" font-family="Times New Roman,serif" font-size="14.00">baz</text>
</g>
<!-- Entity83&#45;&gt;Entity84 -->
<g id="edge58" class="edge verb">
<title>Entity83&#45;&gt;Entity84</title>
<path fill="none" stroke="black" d="M2689.51,-2683.7C2704.23,-2702.5 2728.76,-2733.82 2745.78,-2755.53"/>
<polygon fill="black" stroke="black" points="2743.19,-2757.91 2752.11,-2763.62 2748.7,-2753.59 2743.19,-2757.91"/>
<text text-anchor="start" x="2697.64" y="-2723.42" font-family="Times New Roman,serif" font-size="14.00">baz</text>
</g>
<!-- Entity57 -->
<g id="node60" class="node entity">
<title>Entity57</title>
<ellipse fill="none" stroke="black" cx="4720.65" cy="-2135.98" rx="49.29" ry="18"/>
<text text-anchor="start" x="4690.65" y="-2132.28" font-family="Times New Roman,serif" font-size="14.00">adolf hitler</text>
</g>
<!-- Entity57&#45;&gt;Entity54 -->
<g id="edge65" class="edge verb">
<title>Entity57&#45;&gt;Entity54</title>
<path fill="none" stroke="black" d="M4684.37,-2148.41C4608.55,-2174.4 4434.02,-2234.21 4357.19,-2260.54"/>
<polygon fill="black" stroke="black" points="4355.78,-2257.32 4347.45,-2263.88 4358.05,-2263.94 4355.78,-2257.32"/>
<text text-anchor="start" x="4486.78" y="-2208.28" font-family="Times New Roman,serif" font-size="14.00">create</text>
</g>
<!-- Entity3 -->
<g id="node61" class="node entity">
<title>Entity3</title>
<ellipse fill="none" stroke="black" cx="1499.81" cy="-3863.18" rx="74.99" ry="18"/>
<text text-anchor="start" x="1450.31" y="-3859.48" font-family="Times New Roman,serif" font-size="14.00">gene roddenberry</text>
</g>
<!-- Entity3&#45;&gt;Entity19 -->
<g id="edge67" class="edge verb">
<title>Entity3&#45;&gt;Entity19</title>
<path fill="none" stroke="black" d="M1517.7,-3845.62C1577.89,-3786.53 1773.18,-3594.8 1841.55,-3527.68"/>
<polygon fill="black" stroke="black" points="1844.19,-3529.99 1848.88,-3520.49 1839.29,-3525 1844.19,-3529.99"/>
<text text-anchor="start" x="1575.62" y="-3690.45" font-family="Times New Roman,serif" font-size="14.00">claiemd to channel</text>
</g>
</g>
</svg>
