<?xml version="1.0" encoding="UTF-8" standalone="no"?>
<?xml-stylesheet href="../styles.css" type="text/css"?>
<!DOCTYPE svg PUBLIC "-//W3C//DTD SVG 1.1//EN"
 "http://www.w3.org/Graphics/SVG/1.1/DTD/svg11.dtd">
<!-- Generated by graphviz version 2.47.3 (20210619.1520)
 -->
<!-- Title: G Pages: 1 -->
<svg width="4582pt" height="5002pt"
 viewBox="0.00 0.00 4582.00 5002.00" xmlns="http://www.w3.org/2000/svg" xmlns:xlink="http://www.w3.org/1999/xlink">
<g id="graph0" class="graph" transform="scale(1 1) rotate(0) translate(4 4998)">
<title>G</title>
<polygon fill="white" stroke="transparent" points="-4,4 -4,-4998 4578,-4998 4578,4 -4,4"/>
<!-- Entity5 -->
<g id="node1" class="node entity">
<title>Entity5</title>
<ellipse fill="none" stroke="black" cx="2443.76" cy="-2457.43" rx="75.29" ry="18"/>
<text text-anchor="start" x="2393.76" y="-2453.73" font-family="Times New Roman,serif" font-size="14.00">lee harvey oswald</text>
</g>
<!-- Entity7 -->
<g id="node2" class="node entity">
<title>Entity7</title>
<ellipse fill="none" stroke="black" cx="1709.37" cy="-2703.92" rx="64.19" ry="18"/>
<text text-anchor="start" x="1667.87" y="-2700.22" font-family="Times New Roman,serif" font-size="14.00">john f kennedy</text>
</g>
<!-- Entity5&#45;&gt;Entity7 -->
<g id="edge1" class="edge verb">
<title>Entity5&#45;&gt;Entity7</title>
<path fill="none" stroke="black" d="M2400.02,-2472.11C2271.84,-2515.13 1897.52,-2640.77 1760.44,-2686.78"/>
<polygon fill="black" stroke="black" points="1758.97,-2683.58 1750.6,-2690.08 1761.2,-2690.22 1758.97,-2683.58"/>
<text text-anchor="start" x="2018.23" y="-2583.24" font-family="Times New Roman,serif" font-size="14.00">assassinate</text>
</g>
<!-- Entity45 -->
<g id="node26" class="node entity">
<title>Entity45</title>
<ellipse fill="none" stroke="black" cx="3097.1" cy="-2114.99" rx="59.29" ry="18"/>
<text text-anchor="start" x="3059.6" y="-2111.29" font-family="Times New Roman,serif" font-size="14.00">guy bannister</text>
</g>
<!-- Entity5&#45;&gt;Entity45 -->
<g id="edge19" class="edge verb">
<title>Entity5&#45;&gt;Entity45</title>
<path fill="none" stroke="black" d="M2475.28,-2440.91C2583.36,-2384.26 2938.9,-2197.91 3057.9,-2135.53"/>
<polygon fill="black" stroke="black" points="3059.81,-2138.49 3067.04,-2130.74 3056.56,-2132.29 3059.81,-2138.49"/>
<text text-anchor="start" x="2712.59" y="-2292.02" font-family="Times New Roman,serif" font-size="14.00">employee</text>
</g>
<!-- Entity53 -->
<g id="node29" class="node entity">
<title>Entity53</title>
<ellipse fill="none" stroke="black" cx="1082.76" cy="-2810.33" rx="31.4" ry="18"/>
<text text-anchor="start" x="1066.76" y="-2806.63" font-family="Times New Roman,serif" font-size="14.00">potus</text>
</g>
<!-- Entity7&#45;&gt;Entity53 -->
<g id="edge22" class="edge verb">
<title>Entity7&#45;&gt;Entity53</title>
<path fill="none" stroke="black" d="M1654.32,-2713.27C1530.2,-2734.35 1231,-2785.15 1122.72,-2803.54"/>
<polygon fill="black" stroke="black" points="1122.13,-2800.09 1112.85,-2805.22 1123.3,-2806.99 1122.13,-2800.09"/>
<text text-anchor="start" x="1378.52" y="-2762.2" font-family="Times New Roman,serif" font-size="14.00">is</text>
</g>
<!-- Entity3 -->
<g id="node3" class="node entity">
<title>Entity3</title>
<ellipse fill="none" stroke="black" cx="2526.78" cy="-848.95" rx="65.79" ry="18"/>
<text text-anchor="start" x="2484.28" y="-845.25" font-family="Times New Roman,serif" font-size="14.00">arthur m young</text>
</g>
<!-- Entity9 -->
<g id="node4" class="node entity">
<title>Entity9</title>
<ellipse fill="none" stroke="black" cx="2062.32" cy="-744.16" rx="38.19" ry="18"/>
<text text-anchor="start" x="2040.82" y="-740.46" font-family="Times New Roman,serif" font-size="14.00">the nine</text>
</g>
<!-- Entity3&#45;&gt;Entity9 -->
<g id="edge2" class="edge verb">
<title>Entity3&#45;&gt;Entity9</title>
<path fill="none" stroke="black" d="M2475.75,-837.44C2384.17,-816.77 2193.44,-773.74 2106.83,-754.2"/>
<polygon fill="black" stroke="black" points="2107.57,-750.78 2097.04,-751.99 2106.03,-757.61 2107.57,-750.78"/>
<text text-anchor="start" x="2245.29" y="-799.62" font-family="Times New Roman,serif" font-size="14.00">member</text>
</g>
<!-- Entity56 -->
<g id="node28" class="node entity">
<title>Entity56</title>
<ellipse fill="none" stroke="black" cx="3220.87" cy="-753.75" rx="53.89" ry="18"/>
<text text-anchor="start" x="3187.37" y="-750.05" font-family="Times New Roman,serif" font-size="14.00">bell aviation</text>
</g>
<!-- Entity3&#45;&gt;Entity56 -->
<g id="edge21" class="edge verb">
<title>Entity3&#45;&gt;Entity56</title>
<path fill="none" stroke="black" d="M2585.66,-840.87C2716.3,-822.95 3029.23,-780.03 3160.89,-761.97"/>
<polygon fill="black" stroke="black" points="3161.37,-765.44 3170.8,-760.61 3160.42,-758.5 3161.37,-765.44"/>
<text text-anchor="start" x="2839.27" y="-805.22" font-family="Times New Roman,serif" font-size="14.00">create</text>
</g>
<!-- Entity55 -->
<g id="node39" class="node entity">
<title>Entity55</title>
<ellipse fill="none" stroke="black" cx="1802.3" cy="-1142.73" rx="77.19" ry="18"/>
<text text-anchor="start" x="1750.8" y="-1139.03" font-family="Times New Roman,serif" font-size="14.00">psi&#45;consciousness</text>
</g>
<!-- Entity3&#45;&gt;Entity55 -->
<g id="edge54" class="edge verb">
<title>Entity3&#45;&gt;Entity55</title>
<path fill="none" stroke="black" d="M2489.86,-863.92C2369.05,-912.91 1985.6,-1068.4 1850.21,-1123.31"/>
<polygon fill="black" stroke="black" points="1848.85,-1120.08 1840.9,-1127.08 1851.48,-1126.57 1848.85,-1120.08"/>
<text text-anchor="start" x="2139.03" y="-997.41" font-family="Times New Roman,serif" font-size="14.00">study</text>
</g>
<!-- Entity52 -->
<g id="node44" class="node entity">
<title>Entity52</title>
<ellipse fill="none" stroke="black" cx="2125.87" cy="-150.89" rx="94.48" ry="18"/>
<text text-anchor="start" x="2061.37" y="-147.19" font-family="Times New Roman,serif" font-size="14.00">egyptian gods in a ship</text>
</g>
<!-- Entity9&#45;&gt;Entity52 -->
<g id="edge37" class="edge verb">
<title>Entity9&#45;&gt;Entity52</title>
<path fill="none" stroke="black" d="M2064.26,-726.08C2073.34,-641.31 2111.73,-282.94 2122.85,-179.16"/>
<polygon fill="black" stroke="black" points="2126.34,-179.43 2123.92,-169.12 2119.38,-178.69 2126.34,-179.43"/>
<text text-anchor="start" x="2063.55" y="-456.42" font-family="Times New Roman,serif" font-size="14.00">claim</text>
</g>
<!-- Entity30 -->
<g id="node5" class="node entity">
<title>Entity30</title>
<ellipse fill="none" stroke="black" cx="1497.74" cy="-2374.11" rx="50.09" ry="18"/>
<text text-anchor="start" x="1467.24" y="-2370.41" font-family="Times New Roman,serif" font-size="14.00">john trump</text>
</g>
<!-- Entity17 -->
<g id="node6" class="node entity">
<title>Entity17</title>
<ellipse fill="none" stroke="black" cx="1562.32" cy="-1806.5" rx="27" ry="18"/>
<text text-anchor="start" x="1554.32" y="-1802.8" font-family="Times New Roman,serif" font-size="14.00">cia</text>
</g>
<!-- Entity30&#45;&gt;Entity17 -->
<g id="edge3" class="edge verb">
<title>Entity30&#45;&gt;Entity17</title>
<path fill="none" stroke="black" d="M1499.82,-2355.86C1509.2,-2273.38 1547.7,-1935.01 1559.11,-1834.67"/>
<polygon fill="black" stroke="black" points="1562.6,-1835.01 1560.25,-1824.68 1555.64,-1834.22 1562.6,-1835.01"/>
<text text-anchor="start" x="1483.46" y="-2099.07" font-family="Times New Roman,serif" font-size="14.00">member</text>
</g>
<!-- Entity67 -->
<g id="node47" class="node entity">
<title>Entity67</title>
<ellipse fill="none" stroke="black" cx="1057.97" cy="-2161.33" rx="50.89" ry="18"/>
<text text-anchor="start" x="1026.97" y="-2157.63" font-family="Times New Roman,serif" font-size="14.00">nikola tesla</text>
</g>
<!-- Entity30&#45;&gt;Entity67 -->
<g id="edge41" class="edge verb">
<title>Entity30&#45;&gt;Entity67</title>
<path fill="none" stroke="black" d="M1467.86,-2359.65C1390.62,-2322.28 1184.35,-2222.47 1097.44,-2180.42"/>
<polygon fill="black" stroke="black" points="1098.71,-2177.15 1088.19,-2175.95 1095.66,-2183.45 1098.71,-2177.15"/>
<text text-anchor="start" x="1251.65" y="-2273.84" font-family="Times New Roman,serif" font-size="14.00">study</text>
</g>
<!-- Entity17&#45;&gt;Entity55 -->
<g id="edge30" class="edge verb">
<title>Entity17&#45;&gt;Entity55</title>
<path fill="none" stroke="black" d="M1568.74,-1788.75C1601.7,-1697.58 1751.94,-1282.02 1792.3,-1170.4"/>
<polygon fill="black" stroke="black" points="1795.64,-1171.45 1795.75,-1160.85 1789.06,-1169.07 1795.64,-1171.45"/>
<text text-anchor="start" x="1616.52" y="-1483.37" font-family="Times New Roman,serif" font-size="14.00">investigates</text>
</g>
<!-- Entity54 -->
<g id="node54" class="node entity">
<title>Entity54</title>
<ellipse fill="none" stroke="black" cx="1290.98" cy="-2059.02" rx="27" ry="18"/>
<text text-anchor="start" x="1281.48" y="-2055.32" font-family="Times New Roman,serif" font-size="14.00">ufo</text>
</g>
<!-- Entity17&#45;&gt;Entity54 -->
<g id="edge55" class="edge verb">
<title>Entity17&#45;&gt;Entity54</title>
<path fill="none" stroke="black" d="M1546.56,-1821.17C1500.85,-1863.71 1368.07,-1987.28 1314.15,-2037.46"/>
<polygon fill="black" stroke="black" points="1311.72,-2034.94 1306.78,-2044.31 1316.49,-2040.06 1311.72,-2034.94"/>
<text text-anchor="start" x="1366.35" y="-1933.11" font-family="Times New Roman,serif" font-size="14.00">investigates</text>
</g>
<!-- Entity4 -->
<g id="node7" class="node entity">
<title>Entity4</title>
<ellipse fill="none" stroke="black" cx="2053.4" cy="-636.2" rx="74.99" ry="18"/>
<text text-anchor="start" x="2003.9" y="-632.5" font-family="Times New Roman,serif" font-size="14.00">gene roddenberry</text>
</g>
<!-- Entity4&#45;&gt;Entity9 -->
<g id="edge4" class="edge verb">
<title>Entity4&#45;&gt;Entity9</title>
<path fill="none" stroke="black" d="M2054.92,-654.52C2056.31,-671.37 2058.4,-696.61 2060,-716.03"/>
<polygon fill="black" stroke="black" points="2056.52,-716.44 2060.83,-726.12 2063.5,-715.86 2056.52,-716.44"/>
<text text-anchor="start" x="1953.46" y="-689.07" font-family="Times New Roman,serif" font-size="14.00">claiemd to channel</text>
</g>
<!-- Entity2 -->
<g id="node8" class="node entity">
<title>Entity2</title>
<ellipse fill="none" stroke="black" cx="1566.06" cy="-17.7" rx="64.19" ry="18"/>
<text text-anchor="start" x="1524.56" y="-14" font-family="Times New Roman,serif" font-size="14.00">andre puharich</text>
</g>
<!-- Entity1 -->
<g id="node9" class="node entity">
<title>Entity1</title>
<ellipse fill="none" stroke="black" cx="1744.24" cy="-491.43" rx="41.69" ry="18"/>
<text text-anchor="start" x="1720.24" y="-487.73" font-family="Times New Roman,serif" font-size="14.00">uri geller</text>
</g>
<!-- Entity2&#45;&gt;Entity1 -->
<g id="edge5" class="edge verb">
<title>Entity2&#45;&gt;Entity1</title>
<path fill="none" stroke="black" d="M1572.83,-35.69C1599.98,-107.87 1701.1,-376.75 1733.9,-463.94"/>
<polygon fill="black" stroke="black" points="1730.67,-465.29 1737.46,-473.42 1737.22,-462.83 1730.67,-465.29"/>
<text text-anchor="start" x="1601.36" y="-253.62" font-family="Times New Roman,serif" font-size="14.00">sponsore</text>
</g>
<!-- Entity1&#45;&gt;Entity9 -->
<g id="edge6" class="edge verb">
<title>Entity1&#45;&gt;Entity9</title>
<path fill="none" stroke="black" d="M1764.14,-507.24C1818.8,-550.68 1971.42,-671.93 2034.5,-722.05"/>
<polygon fill="black" stroke="black" points="2032.43,-724.88 2042.43,-728.36 2036.78,-719.4 2032.43,-724.88"/>
<text text-anchor="start" x="1795.32" y="-618.45" font-family="Times New Roman,serif" font-size="14.00">claiemd to channel</text>
</g>
<!-- Entity6 -->
<g id="node10" class="node entity">
<title>Entity6</title>
<ellipse fill="none" stroke="black" cx="1768.1" cy="-1034.73" rx="68.49" ry="18"/>
<text text-anchor="start" x="1723.6" y="-1031.03" font-family="Times New Roman,serif" font-size="14.00">jeffrey mishlove</text>
</g>
<!-- Entity6&#45;&gt;Entity1 -->
<g id="edge7" class="edge verb">
<title>Entity6&#45;&gt;Entity1</title>
<path fill="none" stroke="black" d="M1767.31,-1016.65C1763.81,-937.05 1749.77,-617.38 1745.49,-519.84"/>
<polygon fill="black" stroke="black" points="1748.97,-519.41 1745.03,-509.58 1741.98,-519.72 1748.97,-519.41"/>
<text text-anchor="start" x="1708.4" y="-772.05" font-family="Times New Roman,serif" font-size="14.00">promote</text>
</g>
<!-- Entity6&#45;&gt;Entity55 -->
<g id="edge57" class="edge verb">
<title>Entity6&#45;&gt;Entity55</title>
<path fill="none" stroke="black" d="M1768.62,-1053.13C1772.09,-1070.16 1779.81,-1095.66 1787.17,-1115.12"/>
<polygon fill="black" stroke="black" points="1784.02,-1116.66 1790.97,-1124.66 1790.53,-1114.08 1784.02,-1116.66"/>
<text text-anchor="start" x="1746.9" y="-1087.93" font-family="Times New Roman,serif" font-size="14.00">study</text>
</g>
<!-- Entity6&#45;&gt;Entity55 -->
<g id="edge60" class="edge verb">
<title>Entity6&#45;&gt;Entity55</title>
<path fill="none" stroke="black" d="M1779.49,-1052.92C1786.59,-1069.87 1794.84,-1095.35 1799.64,-1114.86"/>
<polygon fill="black" stroke="black" points="1796.25,-1115.73 1801.86,-1124.71 1803.08,-1114.19 1796.25,-1115.73"/>
<text text-anchor="start" x="1725.56" y="-1072.69" font-family="Times New Roman,serif" font-size="14.00">investigates</text>
</g>
<!-- Entity11 -->
<g id="node11" class="node entity">
<title>Entity11</title>
<ellipse fill="none" stroke="black" cx="571" cy="-2916.07" rx="68.49" ry="18"/>
<text text-anchor="start" x="526.5" y="-2912.37" font-family="Times New Roman,serif" font-size="14.00">george hw bush</text>
</g>
<!-- Entity18 -->
<g id="node12" class="node entity">
<title>Entity18</title>
<ellipse fill="none" stroke="black" cx="361.39" cy="-2418.29" rx="63.89" ry="18"/>
<text text-anchor="start" x="320.39" y="-2414.59" font-family="Times New Roman,serif" font-size="14.00">george w bush</text>
</g>
<!-- Entity11&#45;&gt;Entity18 -->
<g id="edge8" class="edge verb">
<title>Entity11&#45;&gt;Entity18</title>
<path fill="none" stroke="black" d="M563.42,-2898.06C531.87,-2823.13 410.88,-2535.81 372.88,-2445.57"/>
<polygon fill="black" stroke="black" points="376.08,-2444.13 368.97,-2436.27 369.62,-2446.85 376.08,-2444.13"/>
<text text-anchor="start" x="436.15" y="-2675.61" font-family="Times New Roman,serif" font-size="14.00">father</text>
</g>
<!-- Entity11&#45;&gt;Entity53 -->
<g id="edge48" class="edge verb">
<title>Entity11&#45;&gt;Entity53</title>
<path fill="none" stroke="black" d="M624.8,-2904.95C728.22,-2883.58 952.53,-2837.24 1043.38,-2818.46"/>
<polygon fill="black" stroke="black" points="1044.19,-2821.87 1053.27,-2816.42 1042.77,-2815.02 1044.19,-2821.87"/>
<text text-anchor="start" x="824.09" y="-2865.51" font-family="Times New Roman,serif" font-size="14.00">is</text>
</g>
<!-- Entity18&#45;&gt;Entity53 -->
<g id="edge58" class="edge verb">
<title>Entity18&#45;&gt;Entity53</title>
<path fill="none" stroke="black" d="M391.02,-2434.39C507.18,-2497.52 931.08,-2727.89 1050.98,-2793.05"/>
<polygon fill="black" stroke="black" points="1049.58,-2796.28 1060.04,-2797.97 1052.92,-2790.12 1049.58,-2796.28"/>
<text text-anchor="start" x="711" y="-2617.52" font-family="Times New Roman,serif" font-size="14.00">is</text>
</g>
<!-- Entity16 -->
<g id="node13" class="node entity">
<title>Entity16</title>
<ellipse fill="none" stroke="black" cx="1396.3" cy="-708.61" rx="63.89" ry="18"/>
<text text-anchor="start" x="1355.3" y="-704.91" font-family="Times New Roman,serif" font-size="14.00">robert bigelow</text>
</g>
<!-- Entity16&#45;&gt;Entity6 -->
<g id="edge9" class="edge verb">
<title>Entity16&#45;&gt;Entity6</title>
<path fill="none" stroke="black" d="M1416.03,-725.91C1478.04,-780.3 1669.16,-947.95 1740.7,-1010.69"/>
<polygon fill="black" stroke="black" points="1738.6,-1013.5 1748.42,-1017.47 1743.21,-1008.24 1738.6,-1013.5"/>
<text text-anchor="start" x="1546.36" y="-872.1" font-family="Times New Roman,serif" font-size="14.00">funds</text>
</g>
<!-- Entity16&#45;&gt;Entity55 -->
<g id="edge49" class="edge verb">
<title>Entity16&#45;&gt;Entity55</title>
<path fill="none" stroke="black" d="M1412.72,-726.16C1475.97,-793.79 1704.03,-1037.65 1778.56,-1117.34"/>
<polygon fill="black" stroke="black" points="1776.29,-1120.04 1785.68,-1124.96 1781.41,-1115.26 1776.29,-1120.04"/>
<text text-anchor="start" x="1531.64" y="-925.55" font-family="Times New Roman,serif" font-size="14.00">investigates</text>
</g>
<!-- Entity26 -->
<g id="node14" class="node entity">
<title>Entity26</title>
<ellipse fill="none" stroke="black" cx="489.29" cy="-3837.54" rx="53.89" ry="18"/>
<text text-anchor="start" x="455.79" y="-3833.84" font-family="Times New Roman,serif" font-size="14.00">edgar casey</text>
</g>
<!-- Entity27 -->
<g id="node15" class="node entity">
<title>Entity27</title>
<ellipse fill="none" stroke="black" cx="726.17" cy="-3319.96" rx="71.49" ry="18"/>
<text text-anchor="start" x="679.17" y="-3316.26" font-family="Times New Roman,serif" font-size="14.00">woodrow wilson</text>
</g>
<!-- Entity26&#45;&gt;Entity27 -->
<g id="edge10" class="edge verb">
<title>Entity26&#45;&gt;Entity27</title>
<path fill="none" stroke="black" d="M497.45,-3819.73C532.57,-3742.98 671.11,-3440.26 713.67,-3347.27"/>
<polygon fill="black" stroke="black" points="716.95,-3348.51 717.93,-3337.97 710.58,-3345.6 716.95,-3348.51"/>
<text text-anchor="start" x="569.56" y="-3587.3" font-family="Times New Roman,serif" font-size="14.00">advise</text>
</g>
<!-- Entity27&#45;&gt;Entity53 -->
<g id="edge40" class="edge verb">
<title>Entity27&#45;&gt;Entity53</title>
<path fill="none" stroke="black" d="M738.65,-3302.12C792.22,-3225.56 1002.72,-2924.72 1065.19,-2835.44"/>
<polygon fill="black" stroke="black" points="1068.07,-2837.44 1070.93,-2827.24 1062.33,-2833.42 1068.07,-2837.44"/>
<text text-anchor="start" x="891.92" y="-3072.58" font-family="Times New Roman,serif" font-size="14.00">is</text>
</g>
<!-- Entity58 -->
<g id="node59" class="node entity">
<title>Entity58</title>
<ellipse fill="none" stroke="black" cx="238.39" cy="-3729.1" rx="71.49" ry="18"/>
<text text-anchor="start" x="191.39" y="-3725.4" font-family="Times New Roman,serif" font-size="14.00">leauge of nations</text>
</g>
<!-- Entity27&#45;&gt;Entity58 -->
<g id="edge65" class="edge verb">
<title>Entity27&#45;&gt;Entity58</title>
<path fill="none" stroke="black" d="M705.52,-3337.28C628.24,-3402.1 355.94,-3630.51 266.84,-3705.24"/>
<polygon fill="black" stroke="black" points="264.46,-3702.67 259.04,-3711.78 268.95,-3708.04 264.46,-3702.67"/>
<text text-anchor="start" x="452.18" y="-3525.06" font-family="Times New Roman,serif" font-size="14.00">create</text>
</g>
<!-- Entity25 -->
<g id="node16" class="node entity">
<title>Entity25</title>
<ellipse fill="none" stroke="black" cx="1867.45" cy="-3804.9" rx="58.49" ry="18"/>
<text text-anchor="start" x="1830.45" y="-3801.2" font-family="Times New Roman,serif" font-size="14.00">steve bannon</text>
</g>
<!-- Entity8 -->
<g id="node17" class="node entity">
<title>Entity8</title>
<ellipse fill="none" stroke="black" cx="1557.07" cy="-3084.64" rx="59.59" ry="18"/>
<text text-anchor="start" x="1519.07" y="-3080.94" font-family="Times New Roman,serif" font-size="14.00">donald trump</text>
</g>
<!-- Entity25&#45;&gt;Entity8 -->
<g id="edge11" class="edge verb">
<title>Entity25&#45;&gt;Entity8</title>
<path fill="none" stroke="black" d="M1862.15,-3786.92C1826.63,-3689.82 1628.07,-3228.58 1571.78,-3111.63"/>
<polygon fill="black" stroke="black" points="1574.9,-3110.06 1567.37,-3102.6 1568.61,-3113.13 1574.9,-3110.06"/>
<text text-anchor="start" x="1668.96" y="-3438.07" font-family="Times New Roman,serif" font-size="14.00">promote</text>
</g>
<!-- Entity25&#45;&gt;Entity8 -->
<g id="edge13" class="edge verb">
<title>Entity25&#45;&gt;Entity8</title>
<path fill="none" stroke="black" d="M1857.14,-3786.94C1809.13,-3690 1610.56,-3229.53 1565.87,-3111.99"/>
<polygon fill="black" stroke="black" points="1569.14,-3110.75 1562.36,-3102.61 1562.58,-3113.2 1569.14,-3110.75"/>
<text text-anchor="start" x="1675.5" y="-3453.27" font-family="Times New Roman,serif" font-size="14.00">advise</text>
</g>
<!-- Entity76 -->
<g id="node41" class="node entity">
<title>Entity76</title>
<ellipse fill="none" stroke="black" cx="2440.22" cy="-3969.96" rx="77.19" ry="18"/>
<text text-anchor="start" x="2388.72" y="-3966.26" font-family="Times New Roman,serif" font-size="14.00">hollywood movies</text>
</g>
<!-- Entity25&#45;&gt;Entity76 -->
<g id="edge32" class="edge verb">
<title>Entity25&#45;&gt;Entity76</title>
<path fill="none" stroke="black" d="M1910.5,-3817.31C2012,-3846.56 2266.37,-3919.86 2381.72,-3953.11"/>
<polygon fill="black" stroke="black" points="2380.86,-3956.5 2391.44,-3955.91 2382.8,-3949.78 2380.86,-3956.5"/>
<text text-anchor="start" x="2099.11" y="-3889.01" font-family="Times New Roman,serif" font-size="14.00">produce</text>
</g>
<!-- Entity64 -->
<g id="node42" class="node entity">
<title>Entity64</title>
<ellipse fill="none" stroke="black" cx="1933.51" cy="-4233.95" rx="38.19" ry="18"/>
<text text-anchor="start" x="1912.01" y="-4230.25" font-family="Times New Roman,serif" font-size="14.00">us navy</text>
</g>
<!-- Entity25&#45;&gt;Entity64 -->
<g id="edge34" class="edge verb">
<title>Entity25&#45;&gt;Entity64</title>
<path fill="none" stroke="black" d="M1870.25,-3823.06C1880.56,-3890.07 1916.55,-4123.78 1929.13,-4205.48"/>
<polygon fill="black" stroke="black" points="1925.69,-4206.19 1930.67,-4215.54 1932.61,-4205.12 1925.69,-4206.19"/>
<text text-anchor="start" x="1853.69" y="-4018.07" font-family="Times New Roman,serif" font-size="14.00">member</text>
</g>
<!-- Entity77 -->
<g id="node49" class="node entity">
<title>Entity77</title>
<ellipse fill="none" stroke="black" cx="2247.5" cy="-4233.69" rx="64.99" ry="18"/>
<text text-anchor="start" x="2205.5" y="-4229.99" font-family="Times New Roman,serif" font-size="14.00">goldman sachs</text>
</g>
<!-- Entity25&#45;&gt;Entity77 -->
<g id="edge45" class="edge verb">
<title>Entity25&#45;&gt;Entity77</title>
<path fill="none" stroke="black" d="M1883.06,-3822.51C1942.61,-3889.7 2155.7,-4130.11 2225.32,-4208.66"/>
<polygon fill="black" stroke="black" points="2222.72,-4211.01 2231.98,-4216.17 2227.96,-4206.37 2222.72,-4211.01"/>
<text text-anchor="start" x="2000.19" y="-4019.39" font-family="Times New Roman,serif" font-size="14.00">employee</text>
</g>
<!-- Entity63 -->
<g id="node51" class="node entity">
<title>Entity63</title>
<ellipse fill="none" stroke="black" cx="1656.41" cy="-4273.08" rx="53.09" ry="18"/>
<text text-anchor="start" x="1623.41" y="-4269.38" font-family="Times New Roman,serif" font-size="14.00">biosphere 2</text>
</g>
<!-- Entity25&#45;&gt;Entity63 -->
<g id="edge50" class="edge verb">
<title>Entity25&#45;&gt;Entity63</title>
<path fill="none" stroke="black" d="M1859.31,-3822.97C1826.96,-3894.73 1707.42,-4159.91 1668.64,-4245.94"/>
<polygon fill="black" stroke="black" points="1665.45,-4244.51 1664.53,-4255.07 1671.83,-4247.39 1665.45,-4244.51"/>
<text text-anchor="start" x="1729.98" y="-4038.25" font-family="Times New Roman,serif" font-size="14.00">create</text>
</g>
<!-- Entity65 -->
<g id="node55" class="node entity">
<title>Entity65</title>
<ellipse fill="none" stroke="black" cx="1998.3" cy="-4419.39" rx="61.99" ry="18"/>
<text text-anchor="start" x="1958.8" y="-4415.69" font-family="Times New Roman,serif" font-size="14.00">breitbart news</text>
</g>
<!-- Entity25&#45;&gt;Entity65 -->
<g id="edge56" class="edge verb">
<title>Entity25&#45;&gt;Entity65</title>
<path fill="none" stroke="black" d="M1871.29,-3822.96C1889.8,-3909.88 1969.75,-4285.3 1992.34,-4391.38"/>
<polygon fill="black" stroke="black" points="1988.95,-4392.28 1994.46,-4401.33 1995.8,-4390.82 1988.95,-4392.28"/>
<text text-anchor="start" x="1897.82" y="-4110.97" font-family="Times New Roman,serif" font-size="14.00">create</text>
</g>
<!-- Entity61 -->
<g id="node60" class="node entity">
<title>Entity61</title>
<ellipse fill="none" stroke="black" cx="2179.81" cy="-4079.32" rx="35.19" ry="18"/>
<text text-anchor="start" x="2160.81" y="-4075.62" font-family="Times New Roman,serif" font-size="14.00">gurgev</text>
</g>
<!-- Entity25&#45;&gt;Entity61 -->
<g id="edge66" class="edge verb">
<title>Entity25&#45;&gt;Entity61</title>
<path fill="none" stroke="black" d="M1886.99,-3822.07C1941.19,-3869.68 2093.4,-4003.41 2154.23,-4056.85"/>
<polygon fill="black" stroke="black" points="2152.03,-4059.58 2161.85,-4063.55 2156.65,-4054.32 2152.03,-4059.58"/>
<text text-anchor="start" x="1989.61" y="-3943.26" font-family="Times New Roman,serif" font-size="14.00">study</text>
</g>
<!-- Entity8&#45;&gt;Entity30 -->
<g id="edge12" class="edge verb">
<title>Entity8&#45;&gt;Entity30</title>
<path fill="none" stroke="black" d="M1555.54,-3066.37C1547.49,-2969.89 1509.91,-2519.89 1500.1,-2402.28"/>
<polygon fill="black" stroke="black" points="1503.58,-2401.94 1499.26,-2392.26 1496.6,-2402.52 1503.58,-2401.94"/>
<text text-anchor="start" x="1484.82" y="-2738.12" font-family="Times New Roman,serif" font-size="14.00">nephew</text>
</g>
<!-- Entity8&#45;&gt;Entity53 -->
<g id="edge29" class="edge verb">
<title>Entity8&#45;&gt;Entity53</title>
<path fill="none" stroke="black" d="M1529.17,-3068.51C1446.11,-3020.47 1200.85,-2878.62 1113.82,-2828.29"/>
<polygon fill="black" stroke="black" points="1115.37,-2825.14 1104.96,-2823.16 1111.86,-2831.2 1115.37,-2825.14"/>
<text text-anchor="start" x="1311.5" y="-2952.2" font-family="Times New Roman,serif" font-size="14.00">is</text>
</g>
<!-- Entity34 -->
<g id="node18" class="node entity">
<title>Entity34</title>
<ellipse fill="none" stroke="black" cx="1870.09" cy="-2108.28" rx="90.98" ry="18"/>
<text text-anchor="start" x="1808.09" y="-2104.58" font-family="Times New Roman,serif" font-size="14.00">emma hardinge&#45;britten</text>
</g>
<!-- Entity38 -->
<g id="node19" class="node entity">
<title>Entity38</title>
<ellipse fill="none" stroke="black" cx="1454.58" cy="-2595.92" rx="67.69" ry="18"/>
<text text-anchor="start" x="1410.58" y="-2592.22" font-family="Times New Roman,serif" font-size="14.00">abraham lincoln</text>
</g>
<!-- Entity34&#45;&gt;Entity38 -->
<g id="edge14" class="edge verb">
<title>Entity34&#45;&gt;Entity38</title>
<path fill="none" stroke="black" d="M1854.81,-2126.21C1791.55,-2200.46 1550.04,-2483.88 1476.17,-2570.57"/>
<polygon fill="black" stroke="black" points="1473.38,-2568.45 1469.56,-2578.34 1478.71,-2572.99 1473.38,-2568.45"/>
<text text-anchor="start" x="1586.49" y="-2352.19" font-family="Times New Roman,serif" font-size="14.00">spokesperson</text>
</g>
<!-- Entity59 -->
<g id="node33" class="node entity">
<title>Entity59</title>
<ellipse fill="none" stroke="black" cx="2609.73" cy="-1962.57" rx="85.29" ry="18"/>
<text text-anchor="start" x="2552.23" y="-1958.87" font-family="Times New Roman,serif" font-size="14.00">theosophical society</text>
</g>
<!-- Entity34&#45;&gt;Entity59 -->
<g id="edge35" class="edge verb">
<title>Entity34&#45;&gt;Entity59</title>
<path fill="none" stroke="black" d="M1934.75,-2095.54C2072.34,-2068.44 2393.23,-2005.22 2537.37,-1976.83"/>
<polygon fill="black" stroke="black" points="2538.3,-1980.21 2547.43,-1974.84 2536.95,-1973.34 2538.3,-1980.21"/>
<text text-anchor="start" x="2202.06" y="-2039.98" font-family="Times New Roman,serif" font-size="14.00">create</text>
</g>
<!-- Entity68 -->
<g id="node50" class="node entity">
<title>Entity68</title>
<ellipse fill="none" stroke="black" cx="1791.71" cy="-2000.34" rx="39.79" ry="18"/>
<text text-anchor="start" x="1769.21" y="-1996.64" font-family="Times New Roman,serif" font-size="14.00">medium</text>
</g>
<!-- Entity34&#45;&gt;Entity68 -->
<g id="edge47" class="edge verb">
<title>Entity34&#45;&gt;Entity68</title>
<path fill="none" stroke="black" d="M1857.14,-2090.46C1844.34,-2072.83 1824.63,-2045.67 1810.18,-2025.78"/>
<polygon fill="black" stroke="black" points="1812.86,-2023.51 1804.15,-2017.47 1807.2,-2027.62 1812.86,-2023.51"/>
<text text-anchor="start" x="1823.66" y="-2061.92" font-family="Times New Roman,serif" font-size="14.00">is</text>
</g>
<!-- Entity69 -->
<g id="node58" class="node entity">
<title>Entity69</title>
<ellipse fill="none" stroke="black" cx="1313.62" cy="-1730.46" rx="55.79" ry="18"/>
<text text-anchor="start" x="1278.62" y="-1726.76" font-family="Times New Roman,serif" font-size="14.00">orphic circle</text>
</g>
<!-- Entity34&#45;&gt;Entity69 -->
<g id="edge63" class="edge verb">
<title>Entity34&#45;&gt;Entity69</title>
<path fill="none" stroke="black" d="M1844.36,-2090.82C1753.39,-2029.05 1446.94,-1820.97 1346.09,-1752.5"/>
<polygon fill="black" stroke="black" points="1348.05,-1749.6 1337.81,-1746.88 1344.12,-1755.39 1348.05,-1749.6"/>
<text text-anchor="start" x="1549.23" y="-1925.46" font-family="Times New Roman,serif" font-size="14.00">member</text>
</g>
<!-- Entity38&#45;&gt;Entity53 -->
<g id="edge51" class="edge verb">
<title>Entity38&#45;&gt;Entity53</title>
<path fill="none" stroke="black" d="M1426.02,-2612.39C1357.67,-2651.8 1185.08,-2751.33 1114.05,-2792.29"/>
<polygon fill="black" stroke="black" points="1112.03,-2789.41 1105.11,-2797.44 1115.52,-2795.48 1112.03,-2789.41"/>
<text text-anchor="start" x="1260.03" y="-2706.14" font-family="Times New Roman,serif" font-size="14.00">is</text>
</g>
<!-- Entity37 -->
<g id="node20" class="node entity">
<title>Entity37</title>
<ellipse fill="none" stroke="black" cx="3888.13" cy="-802.8" rx="74.99" ry="18"/>
<text text-anchor="start" x="3838.63" y="-799.1" font-family="Times New Roman,serif" font-size="14.00">walter dornberger</text>
</g>
<!-- Entity51 -->
<g id="node21" class="node entity">
<title>Entity51</title>
<ellipse fill="none" stroke="black" cx="3870.06" cy="-1376.48" rx="32.49" ry="18"/>
<text text-anchor="start" x="3853.06" y="-1372.78" font-family="Times New Roman,serif" font-size="14.00">nsdap</text>
</g>
<!-- Entity37&#45;&gt;Entity51 -->
<g id="edge15" class="edge verb">
<title>Entity37&#45;&gt;Entity51</title>
<path fill="none" stroke="black" d="M3887.56,-820.91C3884.95,-903.79 3874.14,-1247.09 3870.95,-1348.28"/>
<polygon fill="black" stroke="black" points="3867.45,-1348.25 3870.63,-1358.36 3874.45,-1348.47 3867.45,-1348.25"/>
<text text-anchor="start" x="3833.25" y="-1088.4" font-family="Times New Roman,serif" font-size="14.00">member</text>
</g>
<!-- Entity37&#45;&gt;Entity56 -->
<g id="edge33" class="edge verb">
<title>Entity37&#45;&gt;Entity56</title>
<path fill="none" stroke="black" d="M3823.24,-793.8C3695.46,-781.01 3412.6,-760.22 3285.24,-754.29"/>
<polygon fill="black" stroke="black" points="3285.38,-750.79 3275.24,-753.84 3285.07,-757.78 3285.38,-750.79"/>
<text text-anchor="start" x="3500.24" y="-762.84" font-family="Times New Roman,serif" font-size="14.00">employee</text>
</g>
<!-- Entity37&#45;&gt;Entity56 -->
<g id="edge43" class="edge verb">
<title>Entity37&#45;&gt;Entity56</title>
<path fill="none" stroke="black" d="M3813.2,-801.75C3679.47,-795.12 3402.29,-774.62 3280.49,-762.21"/>
<polygon fill="black" stroke="black" points="3280.55,-758.69 3270.24,-761.14 3279.82,-765.66 3280.55,-758.69"/>
<text text-anchor="start" x="3467.84" y="-785.78" font-family="Times New Roman,serif" font-size="14.00">vice&#45;president</text>
</g>
<!-- Entity72 -->
<g id="node48" class="node entity">
<title>Entity72</title>
<ellipse fill="none" stroke="black" cx="4483.45" cy="-428.91" rx="90.98" ry="18"/>
<text text-anchor="start" x="4421.45" y="-425.21" font-family="Times New Roman,serif" font-size="14.00">nsdap rocket program</text>
</g>
<!-- Entity37&#45;&gt;Entity72 -->
<g id="edge42" class="edge verb">
<title>Entity37&#45;&gt;Entity72</title>
<path fill="none" stroke="black" d="M3915.26,-785.76C4011.61,-725.25 4337.45,-520.61 4447.1,-451.74"/>
<polygon fill="black" stroke="black" points="4449.22,-454.54 4455.83,-446.26 4445.5,-448.62 4449.22,-454.54"/>
<text text-anchor="start" x="4147.18" y="-622.55" font-family="Times New Roman,serif" font-size="14.00">create</text>
</g>
<!-- Entity73 -->
<g id="node61" class="node entity">
<title>Entity73</title>
<ellipse fill="none" stroke="black" cx="4477.19" cy="-684.18" rx="65.79" ry="18"/>
<text text-anchor="start" x="4434.69" y="-680.48" font-family="Times New Roman,serif" font-size="14.00">x series aircraft</text>
</g>
<!-- Entity37&#45;&gt;Entity73 -->
<g id="edge67" class="edge verb">
<title>Entity37&#45;&gt;Entity73</title>
<path fill="none" stroke="black" d="M3945.68,-791.21C4056.54,-768.88 4298.9,-720.08 4414.04,-696.89"/>
<polygon fill="black" stroke="black" points="4414.99,-700.27 4424.11,-694.87 4413.61,-693.41 4414.99,-700.27"/>
<text text-anchor="start" x="4145.86" y="-747.85" font-family="Times New Roman,serif" font-size="14.00">create</text>
</g>
<!-- Entity74 -->
<g id="node36" class="node entity">
<title>Entity74</title>
<ellipse fill="none" stroke="black" cx="3562.83" cy="-1743.25" rx="38.99" ry="18"/>
<text text-anchor="start" x="3540.83" y="-1739.55" font-family="Times New Roman,serif" font-size="14.00">far right</text>
</g>
<!-- Entity51&#45;&gt;Entity74 -->
<g id="edge44" class="edge verb">
<title>Entity51&#45;&gt;Entity74</title>
<path fill="none" stroke="black" d="M3856.06,-1393.19C3806.88,-1451.91 3641.84,-1648.93 3583.48,-1718.59"/>
<polygon fill="black" stroke="black" points="3580.65,-1716.52 3576.91,-1726.44 3586.01,-1721.02 3580.65,-1716.52"/>
<text text-anchor="start" x="3673.77" y="-1559.69" font-family="Times New Roman,serif" font-size="14.00">member</text>
</g>
<!-- Entity46 -->
<g id="node22" class="node entity">
<title>Entity46</title>
<ellipse fill="none" stroke="black" cx="4118.31" cy="-320.91" rx="46.29" ry="18"/>
<text text-anchor="start" x="4090.81" y="-317.21" font-family="Times New Roman,serif" font-size="14.00">van braun</text>
</g>
<!-- Entity46&#45;&gt;Entity37 -->
<g id="edge16" class="edge verb">
<title>Entity46&#45;&gt;Entity37</title>
<path fill="none" stroke="black" d="M4109.85,-338.63C4075.06,-411.46 3942.96,-688.02 3901,-775.85"/>
<polygon fill="black" stroke="black" points="3897.82,-774.38 3896.67,-784.91 3904.14,-777.4 3897.82,-774.38"/>
<text text-anchor="start" x="3951.42" y="-561.04" font-family="Times New Roman,serif" font-size="14.00">employee</text>
</g>
<!-- Entity46&#45;&gt;Entity72 -->
<g id="edge46" class="edge verb">
<title>Entity46&#45;&gt;Entity72</title>
<path fill="none" stroke="black" d="M4155.34,-331.86C4218.24,-350.46 4346.54,-388.41 4422.74,-410.95"/>
<polygon fill="black" stroke="black" points="4422.09,-414.41 4432.68,-413.89 4424.08,-407.7 4422.09,-414.41"/>
<text text-anchor="start" x="4235.04" y="-375.2" font-family="Times New Roman,serif" font-size="14.00">employee</text>
</g>
<!-- Entity40 -->
<g id="node23" class="node entity">
<title>Entity40</title>
<ellipse fill="none" stroke="black" cx="3728.13" cy="-694.77" rx="57.69" ry="18"/>
<text text-anchor="start" x="3691.63" y="-691.07" font-family="Times New Roman,serif" font-size="14.00">michael pane</text>
</g>
<!-- Entity40&#45;&gt;Entity37 -->
<g id="edge17" class="edge verb">
<title>Entity40&#45;&gt;Entity37</title>
<path fill="none" stroke="black" d="M3752.43,-711.18C3779.56,-729.5 3823.66,-759.27 3854.19,-779.88"/>
<polygon fill="black" stroke="black" points="3852.56,-783 3862.81,-785.7 3856.48,-777.2 3852.56,-783"/>
<text text-anchor="start" x="3749.31" y="-749.33" font-family="Times New Roman,serif" font-size="14.00">employee</text>
</g>
<!-- Entity40&#45;&gt;Entity56 -->
<g id="edge62" class="edge verb">
<title>Entity40&#45;&gt;Entity56</title>
<path fill="none" stroke="black" d="M3673.84,-701.08C3578.59,-712.16 3381.99,-735.01 3282.06,-746.63"/>
<polygon fill="black" stroke="black" points="3281.64,-743.16 3272.12,-747.79 3282.45,-750.11 3281.64,-743.16"/>
<text text-anchor="start" x="3423.95" y="-727.66" font-family="Times New Roman,serif" font-size="14.00">employee</text>
</g>
<!-- Entity50 -->
<g id="node24" class="node entity">
<title>Entity50</title>
<ellipse fill="none" stroke="black" cx="37.78" cy="-3292.8" rx="37.89" ry="18"/>
<text text-anchor="start" x="16.78" y="-3289.1" font-family="Times New Roman,serif" font-size="14.00">hunt oil</text>
</g>
<!-- Entity48 -->
<g id="node25" class="node entity">
<title>Entity48</title>
<ellipse fill="none" stroke="black" cx="553.98" cy="-3097.44" rx="77.99" ry="18"/>
<text text-anchor="start" x="501.98" y="-3093.74" font-family="Times New Roman,serif" font-size="14.00">dwight eisenhower</text>
</g>
<!-- Entity50&#45;&gt;Entity48 -->
<g id="edge18" class="edge verb">
<title>Entity50&#45;&gt;Entity48</title>
<path fill="none" stroke="black" d="M67.38,-3281.6C152.25,-3249.48 397.07,-3156.82 503.54,-3116.53"/>
<polygon fill="black" stroke="black" points="504.98,-3119.73 513.09,-3112.91 502.5,-3113.18 504.98,-3119.73"/>
<text text-anchor="start" x="259.46" y="-3202.87" font-family="Times New Roman,serif" font-size="14.00">fund</text>
</g>
<!-- Entity48&#45;&gt;Entity53 -->
<g id="edge52" class="edge verb">
<title>Entity48&#45;&gt;Entity53</title>
<path fill="none" stroke="black" d="M584.7,-3080.76C677.92,-3030.15 956.96,-2878.63 1051.24,-2827.44"/>
<polygon fill="black" stroke="black" points="1052.92,-2830.52 1060.03,-2822.67 1049.58,-2824.36 1052.92,-2830.52"/>
<text text-anchor="start" x="807.97" y="-2957.9" font-family="Times New Roman,serif" font-size="14.00">is</text>
</g>
<!-- Entity45&#45;&gt;Entity74 -->
<g id="edge26" class="edge verb">
<title>Entity45&#45;&gt;Entity74</title>
<path fill="none" stroke="black" d="M3118.32,-2098.05C3193.93,-2037.7 3450.12,-1833.21 3535.15,-1765.34"/>
<polygon fill="black" stroke="black" points="3537.43,-1768 3543.06,-1759.03 3533.06,-1762.53 3537.43,-1768"/>
<text text-anchor="start" x="3280.74" y="-1935.49" font-family="Times New Roman,serif" font-size="14.00">member</text>
</g>
<!-- Entity49 -->
<g id="node27" class="node entity">
<title>Entity49</title>
<ellipse fill="none" stroke="black" cx="4284.87" cy="-1398.51" rx="49.29" ry="18"/>
<text text-anchor="start" x="4254.87" y="-1394.81" font-family="Times New Roman,serif" font-size="14.00">adolf hitler</text>
</g>
<!-- Entity49&#45;&gt;Entity51 -->
<g id="edge20" class="edge verb">
<title>Entity49&#45;&gt;Entity51</title>
<path fill="none" stroke="black" d="M4235.66,-1395.9C4153.67,-1391.54 3990.49,-1382.88 3912.93,-1378.76"/>
<polygon fill="black" stroke="black" points="3912.74,-1375.24 3902.57,-1378.21 3912.37,-1382.23 3912.74,-1375.24"/>
<text text-anchor="start" x="4040.29" y="-1391.13" font-family="Times New Roman,serif" font-size="14.00">create</text>
</g>
<!-- Entity79 -->
<g id="node30" class="node entity">
<title>Entity79</title>
<ellipse fill="none" stroke="black" cx="2809.94" cy="-3053.66" rx="27" ry="18"/>
<text text-anchor="start" x="2799.94" y="-3049.96" font-family="Times New Roman,serif" font-size="14.00">foo</text>
</g>
<!-- Entity80 -->
<g id="node31" class="node entity">
<title>Entity80</title>
<ellipse fill="none" stroke="black" cx="2897.66" cy="-3165.64" rx="27" ry="18"/>
<text text-anchor="start" x="2887.66" y="-3161.94" font-family="Times New Roman,serif" font-size="14.00">baz</text>
</g>
<!-- Entity79&#45;&gt;Entity80 -->
<g id="edge23" class="edge verb">
<title>Entity79&#45;&gt;Entity80</title>
<path fill="none" stroke="black" d="M2822.51,-3069.7C2837.23,-3088.5 2861.76,-3119.82 2878.78,-3141.53"/>
<polygon fill="black" stroke="black" points="2876.19,-3143.91 2885.11,-3149.62 2881.7,-3139.59 2876.19,-3143.91"/>
<text text-anchor="start" x="2830.64" y="-3109.42" font-family="Times New Roman,serif" font-size="14.00">baz</text>
</g>
<!-- Entity22 -->
<g id="node32" class="node entity">
<title>Entity22</title>
<ellipse fill="none" stroke="black" cx="2454.98" cy="-1432.21" rx="58.49" ry="18"/>
<text text-anchor="start" x="2417.98" y="-1428.51" font-family="Times New Roman,serif" font-size="14.00">rudolf steiner</text>
</g>
<!-- Entity22&#45;&gt;Entity59 -->
<g id="edge24" class="edge verb">
<title>Entity22&#45;&gt;Entity59</title>
<path fill="none" stroke="black" d="M2460.22,-1450.16C2483.01,-1528.29 2573.7,-1839.11 2601.55,-1934.55"/>
<polygon fill="black" stroke="black" points="2598.25,-1935.73 2604.41,-1944.35 2604.97,-1933.77 2598.25,-1935.73"/>
<text text-anchor="start" x="2484.88" y="-1696.16" font-family="Times New Roman,serif" font-size="14.00">member</text>
</g>
<!-- Entity60 -->
<g id="node40" class="node entity">
<title>Entity60</title>
<ellipse fill="none" stroke="black" cx="2510.07" cy="-1324.22" rx="102.08" ry="18"/>
<text text-anchor="start" x="2439.57" y="-1320.52" font-family="Times New Roman,serif" font-size="14.00">anthroposophical society</text>
</g>
<!-- Entity22&#45;&gt;Entity60 -->
<g id="edge31" class="edge verb">
<title>Entity22&#45;&gt;Entity60</title>
<path fill="none" stroke="black" d="M2464.08,-1414.38C2472.8,-1397.29 2486.08,-1371.25 2496.14,-1351.54"/>
<polygon fill="black" stroke="black" points="2499.35,-1352.94 2500.78,-1342.44 2493.11,-1349.76 2499.35,-1352.94"/>
<text text-anchor="start" x="2446.11" y="-1386.76" font-family="Times New Roman,serif" font-size="14.00">create</text>
</g>
<!-- Entity44 -->
<g id="node34" class="node entity">
<title>Entity44</title>
<ellipse fill="none" stroke="black" cx="3089.94" cy="-2547.66" rx="53.89" ry="18"/>
<text text-anchor="start" x="3056.44" y="-2543.96" font-family="Times New Roman,serif" font-size="14.00">black magic</text>
</g>
<!-- Entity71 -->
<g id="node35" class="node entity">
<title>Entity71</title>
<ellipse fill="none" stroke="black" cx="3177.66" cy="-2659.64" rx="28.7" ry="18"/>
<text text-anchor="start" x="3163.66" y="-2655.94" font-family="Times New Roman,serif" font-size="14.00">x left</text>
</g>
<!-- Entity44&#45;&gt;Entity71 -->
<g id="edge25" class="edge verb">
<title>Entity44&#45;&gt;Entity71</title>
<path fill="none" stroke="black" d="M3103.64,-2565.16C3118.45,-2584.05 3142.14,-2614.29 3158.72,-2635.45"/>
<polygon fill="black" stroke="black" points="3155.98,-2637.64 3164.9,-2643.36 3161.49,-2633.32 3155.98,-2637.64"/>
<text text-anchor="start" x="3085.18" y="-2604.11" font-family="Times New Roman,serif" font-size="14.00">member</text>
</g>
<!-- Entity10 -->
<g id="node37" class="node entity">
<title>Entity10</title>
<ellipse fill="none" stroke="black" cx="797.25" cy="-2723.44" rx="56.59" ry="18"/>
<text text-anchor="start" x="761.75" y="-2719.74" font-family="Times New Roman,serif" font-size="14.00">harry truman</text>
</g>
<!-- Entity10&#45;&gt;Entity53 -->
<g id="edge27" class="edge verb">
<title>Entity10&#45;&gt;Entity53</title>
<path fill="none" stroke="black" d="M838.16,-2735.89C893.5,-2752.73 991.43,-2782.53 1045.06,-2798.85"/>
<polygon fill="black" stroke="black" points="1044.27,-2802.27 1054.86,-2801.83 1046.31,-2795.57 1044.27,-2802.27"/>
<text text-anchor="start" x="931.61" y="-2771.17" font-family="Times New Roman,serif" font-size="14.00">is</text>
</g>
<!-- Entity57 -->
<g id="node43" class="node entity">
<title>Entity57</title>
<ellipse fill="none" stroke="black" cx="196.83" cy="-2915.9" rx="55.79" ry="18"/>
<text text-anchor="start" x="161.83" y="-2912.2" font-family="Times New Roman,serif" font-size="14.00">freemasonry</text>
</g>
<!-- Entity10&#45;&gt;Entity57 -->
<g id="edge36" class="edge verb">
<title>Entity10&#45;&gt;Entity57</title>
<path fill="none" stroke="black" d="M757.39,-2736.22C651.4,-2770.2 362.73,-2862.72 246.4,-2900.01"/>
<polygon fill="black" stroke="black" points="245.14,-2896.74 236.68,-2903.12 247.27,-2903.41 245.14,-2896.74"/>
<text text-anchor="start" x="455.9" y="-2821.91" font-family="Times New Roman,serif" font-size="14.00">member</text>
</g>
<!-- Entity13 -->
<g id="node38" class="node entity">
<title>Entity13</title>
<ellipse fill="none" stroke="black" cx="1071.85" cy="-2918.33" rx="58.49" ry="18"/>
<text text-anchor="start" x="1034.85" y="-2914.63" font-family="Times New Roman,serif" font-size="14.00">richard nixon</text>
</g>
<!-- Entity13&#45;&gt;Entity53 -->
<g id="edge28" class="edge verb">
<title>Entity13&#45;&gt;Entity53</title>
<path fill="none" stroke="black" d="M1073.7,-2900.01C1075.41,-2883.15 1077.96,-2857.89 1079.92,-2838.47"/>
<polygon fill="black" stroke="black" points="1083.42,-2838.68 1080.94,-2828.38 1076.45,-2837.97 1083.42,-2838.68"/>
<text text-anchor="start" x="1066.81" y="-2873.04" font-family="Times New Roman,serif" font-size="14.00">is</text>
</g>
<!-- Entity21 -->
<g id="node45" class="node entity">
<title>Entity21</title>
<ellipse fill="none" stroke="black" cx="1014.39" cy="-3168.34" rx="35.19" ry="18"/>
<text text-anchor="start" x="995.39" y="-3164.64" font-family="Times New Roman,serif" font-size="14.00">obama</text>
</g>
<!-- Entity21&#45;&gt;Entity53 -->
<g id="edge38" class="edge verb">
<title>Entity21&#45;&gt;Entity53</title>
<path fill="none" stroke="black" d="M1017.87,-3150.09C1029.03,-3091.68 1063.92,-2908.98 1077.39,-2838.47"/>
<polygon fill="black" stroke="black" points="1080.85,-2839.01 1079.29,-2828.53 1073.97,-2837.7 1080.85,-2839.01"/>
<text text-anchor="start" x="1037.63" y="-2998.08" font-family="Times New Roman,serif" font-size="14.00">is</text>
</g>
<!-- Entity14 -->
<g id="node46" class="node entity">
<title>Entity14</title>
<ellipse fill="none" stroke="black" cx="1119.25" cy="-2410.17" rx="31.4" ry="18"/>
<text text-anchor="start" x="1103.25" y="-2406.47" font-family="Times New Roman,serif" font-size="14.00">carter</text>
</g>
<!-- Entity14&#45;&gt;Entity53 -->
<g id="edge39" class="edge verb">
<title>Entity14&#45;&gt;Entity53</title>
<path fill="none" stroke="black" d="M1117.59,-2428.4C1111.78,-2492.07 1092.39,-2704.81 1085.35,-2782.02"/>
<polygon fill="black" stroke="black" points="1081.86,-2781.71 1084.44,-2791.98 1088.83,-2782.34 1081.86,-2781.71"/>
<text text-anchor="start" x="1091.47" y="-2609.01" font-family="Times New Roman,serif" font-size="14.00">is</text>
</g>
<!-- Entity14&#45;&gt;Entity54 -->
<g id="edge64" class="edge verb">
<title>Entity14&#45;&gt;Entity54</title>
<path fill="none" stroke="black" d="M1127.77,-2392.75C1155.63,-2335.77 1244.23,-2154.6 1277.86,-2085.84"/>
<polygon fill="black" stroke="black" points="1281.16,-2087.06 1282.41,-2076.54 1274.87,-2083.98 1281.16,-2087.06"/>
<text text-anchor="start" x="1160.82" y="-2243.1" font-family="Times New Roman,serif" font-size="14.00">witness</text>
</g>
<!-- Entity35 -->
<g id="node52" class="node entity">
<title>Entity35</title>
<ellipse fill="none" stroke="black" cx="2316.94" cy="-3053.66" rx="39.79" ry="18"/>
<text text-anchor="start" x="2294.44" y="-3049.96" font-family="Times New Roman,serif" font-size="14.00">crowley</text>
</g>
<!-- Entity70 -->
<g id="node53" class="node entity">
<title>Entity70</title>
<ellipse fill="none" stroke="black" cx="2404.66" cy="-3165.64" rx="38.99" ry="18"/>
<text text-anchor="start" x="2382.66" y="-3161.94" font-family="Times New Roman,serif" font-size="14.00">x magic</text>
</g>
<!-- Entity35&#45;&gt;Entity70 -->
<g id="edge53" class="edge verb">
<title>Entity35&#45;&gt;Entity70</title>
<path fill="none" stroke="black" d="M2330.26,-3070.67C2344.82,-3089.25 2368.28,-3119.2 2384.96,-3140.49"/>
<polygon fill="black" stroke="black" points="2382.29,-3142.76 2391.21,-3148.47 2387.8,-3138.44 2382.29,-3142.76"/>
<text text-anchor="start" x="2311.61" y="-3109.38" font-family="Times New Roman,serif" font-size="14.00">member</text>
</g>
<!-- Entity24 -->
<g id="node56" class="node entity">
<title>Entity24</title>
<ellipse fill="none" stroke="black" cx="3265.49" cy="-2007.03" rx="73.39" ry="18"/>
<text text-anchor="start" x="3216.99" y="-2003.33" font-family="Times New Roman,serif" font-size="14.00">madam blavatsky</text>
</g>
<!-- Entity24&#45;&gt;Entity59 -->
<g id="edge59" class="edge verb">
<title>Entity24&#45;&gt;Entity59</title>
<path fill="none" stroke="black" d="M3194.69,-2002.23C3075.1,-1994.12 2833.24,-1977.72 2701.06,-1968.76"/>
<polygon fill="black" stroke="black" points="2701.17,-1965.26 2690.95,-1968.08 2700.69,-1972.25 2701.17,-1965.26"/>
<text text-anchor="start" x="2913.87" y="-1989.29" font-family="Times New Roman,serif" font-size="14.00">create</text>
</g>
<!-- Entity31 -->
<g id="node57" class="node entity">
<title>Entity31</title>
<ellipse fill="none" stroke="black" cx="2165.61" cy="-4975.8" rx="69.59" ry="18"/>
<text text-anchor="start" x="2120.11" y="-4972.1" font-family="Times New Roman,serif" font-size="14.00">andrew breitbart</text>
</g>
<!-- Entity31&#45;&gt;Entity65 -->
<g id="edge61" class="edge verb">
<title>Entity31&#45;&gt;Entity65</title>
<path fill="none" stroke="black" d="M2160.14,-4957.6C2135.69,-4876.28 2036.33,-4545.85 2006.69,-4447.28"/>
<polygon fill="black" stroke="black" points="2009.96,-4446.02 2003.73,-4437.45 2003.26,-4448.03 2009.96,-4446.02"/>
<text text-anchor="start" x="2049.41" y="-4706.24" font-family="Times New Roman,serif" font-size="14.00">create</text>
</g>
</g>
</svg>
