<?xml version="1.0" encoding="UTF-8" standalone="no"?>
<?xml-stylesheet href="../styles.css" type="text/css"?>
<!DOCTYPE svg PUBLIC "-//W3C//DTD SVG 1.1//EN"
 "http://www.w3.org/Graphics/SVG/1.1/DTD/svg11.dtd">
<!-- Generated by graphviz version 2.47.3 (20210619.1520)
 -->
<!-- Title: G Pages: 1 -->
<svg width="3660pt" height="4293pt"
 viewBox="0.00 0.00 3660.00 4293.00" xmlns="http://www.w3.org/2000/svg" xmlns:xlink="http://www.w3.org/1999/xlink">
<g id="graph0" class="graph" transform="scale(1 1) rotate(0) translate(4 4289)">
<title>G</title>
<polygon fill="white" stroke="transparent" points="-4,4 -4,-4289 3656,-4289 3656,4 -4,4"/>
<!-- Entity5 -->
<g id="node1" class="node entity">
<title>Entity5</title>
<ellipse fill="none" stroke="black" cx="495.96" cy="-4093.98" rx="74.99" ry="18"/>
<text text-anchor="start" x="446.46" y="-4090.28" font-family="Times New Roman,serif" font-size="14.00">gene roddenberry</text>
</g>
<!-- Entity8 -->
<g id="node2" class="node entity">
<title>Entity8</title>
<ellipse fill="none" stroke="black" cx="823.39" cy="-3698.85" rx="38.19" ry="18"/>
<text text-anchor="start" x="801.89" y="-3695.15" font-family="Times New Roman,serif" font-size="14.00">the nine</text>
</g>
<!-- Entity5&#45;&gt;Entity8 -->
<g id="edge1" class="edge verb">
<title>Entity5&#45;&gt;Entity8</title>
<path fill="none" stroke="black" d="M510.66,-4076.24C563.26,-4012.76 742.17,-3796.86 802.97,-3723.49"/>
<polygon fill="black" stroke="black" points="805.77,-3725.59 809.46,-3715.66 800.38,-3721.13 805.77,-3725.59"/>
<text text-anchor="start" x="552.82" y="-3903.66" font-family="Times New Roman,serif" font-size="14.00">claiemd to channel</text>
</g>
<!-- Entity60 -->
<g id="node26" class="node entity">
<title>Entity60</title>
<ellipse fill="none" stroke="black" cx="691.48" cy="-4266.91" rx="94.48" ry="18"/>
<text text-anchor="start" x="626.98" y="-4263.21" font-family="Times New Roman,serif" font-size="14.00">egyptian gods in a ship</text>
</g>
<!-- Entity8&#45;&gt;Entity60 -->
<g id="edge15" class="edge verb">
<title>Entity8&#45;&gt;Entity60</title>
<path fill="none" stroke="black" d="M819.22,-3716.79C800.19,-3798.76 721.4,-4138.03 698.04,-4238.65"/>
<polygon fill="black" stroke="black" points="694.56,-4238.15 695.71,-4248.68 701.38,-4239.73 694.56,-4238.15"/>
<text text-anchor="start" x="728.63" y="-3981.52" font-family="Times New Roman,serif" font-size="14.00">claim</text>
</g>
<!-- Entity14 -->
<g id="node3" class="node entity">
<title>Entity14</title>
<ellipse fill="none" stroke="black" cx="2682.04" cy="-1427.36" rx="64.19" ry="18"/>
<text text-anchor="start" x="2640.54" y="-1423.66" font-family="Times New Roman,serif" font-size="14.00">john f kennedy</text>
</g>
<!-- Entity57 -->
<g id="node4" class="node entity">
<title>Entity57</title>
<ellipse fill="none" stroke="black" cx="2047.86" cy="-1215.69" rx="31.4" ry="18"/>
<text text-anchor="start" x="2031.86" y="-1211.99" font-family="Times New Roman,serif" font-size="14.00">potus</text>
</g>
<!-- Entity14&#45;&gt;Entity57 -->
<g id="edge2" class="edge verb">
<title>Entity14&#45;&gt;Entity57</title>
<path fill="none" stroke="black" d="M2640.43,-1413.47C2523.79,-1374.54 2195,-1264.8 2084.56,-1227.94"/>
<polygon fill="black" stroke="black" points="2085.47,-1224.55 2074.87,-1224.71 2083.25,-1231.19 2085.47,-1224.55"/>
<text text-anchor="start" x="2352.5" y="-1324.51" font-family="Times New Roman,serif" font-size="14.00">is</text>
</g>
<!-- Entity2 -->
<g id="node5" class="node entity">
<title>Entity2</title>
<ellipse fill="none" stroke="black" cx="3298.95" cy="-1893.19" rx="75.29" ry="18"/>
<text text-anchor="start" x="3248.95" y="-1889.49" font-family="Times New Roman,serif" font-size="14.00">lee harvey oswald</text>
</g>
<!-- Entity2&#45;&gt;Entity14 -->
<g id="edge3" class="edge verb">
<title>Entity2&#45;&gt;Entity14</title>
<path fill="none" stroke="black" d="M3275.89,-1875.78C3181.01,-1804.14 2820.68,-1532.05 2712.76,-1450.56"/>
<polygon fill="black" stroke="black" points="2714.65,-1447.6 2704.56,-1444.36 2710.43,-1453.18 2714.65,-1447.6"/>
<text text-anchor="start" x="2932.33" y="-1666.97" font-family="Times New Roman,serif" font-size="14.00">assassinate</text>
</g>
<!-- Entity49 -->
<g id="node46" class="node entity">
<title>Entity49</title>
<ellipse fill="none" stroke="black" cx="3492.51" cy="-2543.86" rx="59.29" ry="18"/>
<text text-anchor="start" x="3455.01" y="-2540.16" font-family="Times New Roman,serif" font-size="14.00">guy bannister</text>
</g>
<!-- Entity2&#45;&gt;Entity49 -->
<g id="edge35" class="edge verb">
<title>Entity2&#45;&gt;Entity49</title>
<path fill="none" stroke="black" d="M3304.33,-1911.28C3331.27,-2001.84 3451.55,-2406.17 3484.27,-2516.16"/>
<polygon fill="black" stroke="black" points="3480.95,-2517.28 3487.16,-2525.87 3487.66,-2515.29 3480.95,-2517.28"/>
<text text-anchor="start" x="3340.3" y="-2217.52" font-family="Times New Roman,serif" font-size="14.00">employee</text>
</g>
<!-- Entity10 -->
<g id="node6" class="node entity">
<title>Entity10</title>
<ellipse fill="none" stroke="black" cx="2475.78" cy="-1023.65" rx="68.49" ry="18"/>
<text text-anchor="start" x="2431.28" y="-1019.95" font-family="Times New Roman,serif" font-size="14.00">george hw bush</text>
</g>
<!-- Entity10&#45;&gt;Entity57 -->
<g id="edge56" class="edge verb">
<title>Entity10&#45;&gt;Entity57</title>
<path fill="none" stroke="black" d="M2441.12,-1039.2C2360.7,-1075.3 2162.15,-1164.4 2082.12,-1200.32"/>
<polygon fill="black" stroke="black" points="2080.21,-1197.34 2072.52,-1204.63 2083.08,-1203.73 2080.21,-1197.34"/>
<text text-anchor="start" x="2251.62" y="-1123.56" font-family="Times New Roman,serif" font-size="14.00">is</text>
</g>
<!-- Entity16 -->
<g id="node7" class="node entity">
<title>Entity16</title>
<ellipse fill="none" stroke="black" cx="2032.52" cy="-1107.69" rx="63.89" ry="18"/>
<text text-anchor="start" x="1991.52" y="-1103.99" font-family="Times New Roman,serif" font-size="14.00">george w bush</text>
</g>
<!-- Entity10&#45;&gt;Entity16 -->
<g id="edge4" class="edge verb">
<title>Entity10&#45;&gt;Entity16</title>
<path fill="none" stroke="black" d="M2420.09,-1034.21C2337.33,-1049.9 2182.35,-1079.28 2095.55,-1095.74"/>
<polygon fill="black" stroke="black" points="2094.74,-1092.33 2085.57,-1097.63 2096.05,-1099.21 2094.74,-1092.33"/>
<text text-anchor="start" x="2225.82" y="-1068.77" font-family="Times New Roman,serif" font-size="14.00">father</text>
</g>
<!-- Entity16&#45;&gt;Entity57 -->
<g id="edge23" class="edge verb">
<title>Entity16&#45;&gt;Entity57</title>
<path fill="none" stroke="black" d="M2035.13,-1126.01C2037.52,-1142.87 2041.11,-1168.13 2043.87,-1187.55"/>
<polygon fill="black" stroke="black" points="2040.43,-1188.23 2045.3,-1197.64 2047.36,-1187.25 2040.43,-1188.23"/>
<text text-anchor="start" x="2029.5" y="-1160.58" font-family="Times New Roman,serif" font-size="14.00">is</text>
</g>
<!-- Entity50 -->
<g id="node8" class="node entity">
<title>Entity50</title>
<ellipse fill="none" stroke="black" cx="3602.81" cy="-3714.96" rx="49.29" ry="18"/>
<text text-anchor="start" x="3572.81" y="-3711.26" font-family="Times New Roman,serif" font-size="14.00">adolf hitler</text>
</g>
<!-- Entity53 -->
<g id="node9" class="node entity">
<title>Entity53</title>
<ellipse fill="none" stroke="black" cx="3260.24" cy="-3473.16" rx="32.49" ry="18"/>
<text text-anchor="start" x="3243.24" y="-3469.46" font-family="Times New Roman,serif" font-size="14.00">nsdap</text>
</g>
<!-- Entity50&#45;&gt;Entity53 -->
<g id="edge5" class="edge verb">
<title>Entity50&#45;&gt;Entity53</title>
<path fill="none" stroke="black" d="M3580.07,-3698.91C3519.71,-3656.31 3355.58,-3540.45 3288.94,-3493.42"/>
<polygon fill="black" stroke="black" points="3290.76,-3490.42 3280.57,-3487.51 3286.72,-3496.14 3290.76,-3490.42"/>
<text text-anchor="start" x="3400.5" y="-3599.96" font-family="Times New Roman,serif" font-size="14.00">create</text>
</g>
<!-- Entity73 -->
<g id="node51" class="node entity">
<title>Entity73</title>
<ellipse fill="none" stroke="black" cx="3457.05" cy="-3078.21" rx="38.99" ry="18"/>
<text text-anchor="start" x="3435.05" y="-3074.51" font-family="Times New Roman,serif" font-size="14.00">far right</text>
</g>
<!-- Entity53&#45;&gt;Entity73 -->
<g id="edge46" class="edge verb">
<title>Entity53&#45;&gt;Entity73</title>
<path fill="none" stroke="black" d="M3268.96,-3455.68C3300.07,-3393.25 3405.85,-3180.95 3443.56,-3105.28"/>
<polygon fill="black" stroke="black" points="3446.89,-3106.45 3448.21,-3095.94 3440.62,-3103.32 3446.89,-3106.45"/>
<text text-anchor="start" x="3310.26" y="-3284.28" font-family="Times New Roman,serif" font-size="14.00">member</text>
</g>
<!-- Entity7 -->
<g id="node10" class="node entity">
<title>Entity7</title>
<ellipse fill="none" stroke="black" cx="2146.33" cy="-1670.24" rx="56.59" ry="18"/>
<text text-anchor="start" x="2110.83" y="-1666.54" font-family="Times New Roman,serif" font-size="14.00">harry truman</text>
</g>
<!-- Entity7&#45;&gt;Entity57 -->
<g id="edge28" class="edge verb">
<title>Entity7&#45;&gt;Entity57</title>
<path fill="none" stroke="black" d="M2142.41,-1652.14C2127.25,-1582.15 2072.39,-1328.92 2053.95,-1243.81"/>
<polygon fill="black" stroke="black" points="2057.33,-1242.88 2051.8,-1233.84 2050.49,-1244.36 2057.33,-1242.88"/>
<text text-anchor="start" x="2088.18" y="-1451.78" font-family="Times New Roman,serif" font-size="14.00">is</text>
</g>
<!-- Entity55 -->
<g id="node11" class="node entity">
<title>Entity55</title>
<ellipse fill="none" stroke="black" cx="2171" cy="-1778.24" rx="55.79" ry="18"/>
<text text-anchor="start" x="2136" y="-1774.54" font-family="Times New Roman,serif" font-size="14.00">freemasonry</text>
</g>
<!-- Entity7&#45;&gt;Entity55 -->
<g id="edge6" class="edge verb">
<title>Entity7&#45;&gt;Entity55</title>
<path fill="none" stroke="black" d="M2150.52,-1688.56C2154.38,-1705.49 2160.19,-1730.91 2164.63,-1750.36"/>
<polygon fill="black" stroke="black" points="2161.24,-1751.22 2166.87,-1760.19 2168.06,-1749.66 2161.24,-1751.22"/>
<text text-anchor="start" x="2111.57" y="-1723.26" font-family="Times New Roman,serif" font-size="14.00">member</text>
</g>
<!-- Entity25 -->
<g id="node12" class="node entity">
<title>Entity25</title>
<ellipse fill="none" stroke="black" cx="647.98" cy="-760.92" rx="58.49" ry="18"/>
<text text-anchor="start" x="610.98" y="-757.22" font-family="Times New Roman,serif" font-size="14.00">steve bannon</text>
</g>
<!-- Entity64 -->
<g id="node13" class="node entity">
<title>Entity64</title>
<ellipse fill="none" stroke="black" cx="217.15" cy="-910.33" rx="35.19" ry="18"/>
<text text-anchor="start" x="198.15" y="-906.63" font-family="Times New Roman,serif" font-size="14.00">gurgev</text>
</g>
<!-- Entity25&#45;&gt;Entity64 -->
<g id="edge7" class="edge verb">
<title>Entity25&#45;&gt;Entity64</title>
<path fill="none" stroke="black" d="M608.99,-774.44C527.07,-802.85 337.9,-868.46 256.05,-896.84"/>
<polygon fill="black" stroke="black" points="254.69,-893.61 246.39,-900.19 256.98,-900.22 254.69,-893.61"/>
<text text-anchor="start" x="401.52" y="-839.44" font-family="Times New Roman,serif" font-size="14.00">study</text>
</g>
<!-- Entity65 -->
<g id="node14" class="node entity">
<title>Entity65</title>
<ellipse fill="none" stroke="black" cx="460.24" cy="-652.49" rx="61.99" ry="18"/>
<text text-anchor="start" x="420.74" y="-648.79" font-family="Times New Roman,serif" font-size="14.00">breitbart news</text>
</g>
<!-- Entity25&#45;&gt;Entity65 -->
<g id="edge8" class="edge verb">
<title>Entity25&#45;&gt;Entity65</title>
<path fill="none" stroke="black" d="M620.28,-744.92C587.65,-726.08 533.33,-694.7 497.15,-673.8"/>
<polygon fill="black" stroke="black" points="498.78,-670.7 488.37,-668.73 495.28,-676.76 498.78,-670.7"/>
<text text-anchor="start" x="524.72" y="-713.16" font-family="Times New Roman,serif" font-size="14.00">create</text>
</g>
<!-- Entity13 -->
<g id="node15" class="node entity">
<title>Entity13</title>
<ellipse fill="none" stroke="black" cx="1345.8" cy="-1128.72" rx="59.59" ry="18"/>
<text text-anchor="start" x="1307.8" y="-1125.02" font-family="Times New Roman,serif" font-size="14.00">donald trump</text>
</g>
<!-- Entity25&#45;&gt;Entity13 -->
<g id="edge9" class="edge verb">
<title>Entity25&#45;&gt;Entity13</title>
<path fill="none" stroke="black" d="M673.18,-777.36C776.71,-837.64 1169.78,-1045.06 1302.07,-1109.55"/>
<polygon fill="black" stroke="black" points="1300.61,-1112.73 1311.14,-1113.94 1303.66,-1106.43 1300.61,-1112.73"/>
<text text-anchor="start" x="951.63" y="-947.26" font-family="Times New Roman,serif" font-size="14.00">advise</text>
</g>
<!-- Entity25&#45;&gt;Entity13 -->
<g id="edge21" class="edge verb">
<title>Entity25&#45;&gt;Entity13</title>
<path fill="none" stroke="black" d="M682.61,-775.68C801.7,-832.97 1193.37,-1039.37 1311.68,-1107.13"/>
<polygon fill="black" stroke="black" points="1310.27,-1110.36 1320.68,-1112.32 1313.77,-1104.29 1310.27,-1110.36"/>
<text text-anchor="start" x="949.15" y="-930.21" font-family="Times New Roman,serif" font-size="14.00">promote</text>
</g>
<!-- Entity75 -->
<g id="node31" class="node entity">
<title>Entity75</title>
<ellipse fill="none" stroke="black" cx="159.97" cy="-723.37" rx="38.19" ry="18"/>
<text text-anchor="start" x="138.47" y="-719.67" font-family="Times New Roman,serif" font-size="14.00">us navy</text>
</g>
<!-- Entity25&#45;&gt;Entity75 -->
<g id="edge18" class="edge verb">
<title>Entity25&#45;&gt;Entity75</title>
<path fill="none" stroke="black" d="M591.05,-756.54C494.08,-749.08 298.63,-734.04 208.06,-727.07"/>
<polygon fill="black" stroke="black" points="208.31,-723.58 198.07,-726.3 207.77,-730.56 208.31,-723.58"/>
<text text-anchor="start" x="353.55" y="-745.6" font-family="Times New Roman,serif" font-size="14.00">member</text>
</g>
<!-- Entity62 -->
<g id="node35" class="node entity">
<title>Entity62</title>
<ellipse fill="none" stroke="black" cx="557.32" cy="-241.38" rx="53.09" ry="18"/>
<text text-anchor="start" x="524.32" y="-237.68" font-family="Times New Roman,serif" font-size="14.00">biosphere 2</text>
</g>
<!-- Entity25&#45;&gt;Entity62 -->
<g id="edge24" class="edge verb">
<title>Entity25&#45;&gt;Entity62</title>
<path fill="none" stroke="black" d="M644.81,-742.74C631.31,-665.35 578.56,-363.12 562.19,-269.31"/>
<polygon fill="black" stroke="black" points="565.63,-268.66 560.47,-259.41 558.74,-269.87 565.63,-268.66"/>
<text text-anchor="start" x="569.5" y="-509.82" font-family="Times New Roman,serif" font-size="14.00">create</text>
</g>
<!-- Entity76 -->
<g id="node56" class="node entity">
<title>Entity76</title>
<ellipse fill="none" stroke="black" cx="238.2" cy="-349.37" rx="64.99" ry="18"/>
<text text-anchor="start" x="196.2" y="-345.67" font-family="Times New Roman,serif" font-size="14.00">goldman sachs</text>
</g>
<!-- Entity25&#45;&gt;Entity76 -->
<g id="edge47" class="edge verb">
<title>Entity25&#45;&gt;Entity76</title>
<path fill="none" stroke="black" d="M630.64,-743.5C565.98,-678.57 338.85,-450.46 263.04,-374.32"/>
<polygon fill="black" stroke="black" points="265.32,-371.64 255.78,-367.03 260.36,-376.58 265.32,-371.64"/>
<text text-anchor="start" x="392.84" y="-562.71" font-family="Times New Roman,serif" font-size="14.00">employee</text>
</g>
<!-- Entity79 -->
<g id="node59" class="node entity">
<title>Entity79</title>
<ellipse fill="none" stroke="black" cx="77.4" cy="-499.25" rx="77.19" ry="18"/>
<text text-anchor="start" x="25.9" y="-495.55" font-family="Times New Roman,serif" font-size="14.00">hollywood movies</text>
</g>
<!-- Entity25&#45;&gt;Entity79 -->
<g id="edge54" class="edge verb">
<title>Entity25&#45;&gt;Entity79</title>
<path fill="none" stroke="black" d="M615.26,-745.91C518.27,-701.44 232.28,-570.28 121.73,-519.58"/>
<polygon fill="black" stroke="black" points="123.07,-516.34 112.52,-515.36 120.15,-522.71 123.07,-516.34"/>
<text text-anchor="start" x="321.49" y="-636.55" font-family="Times New Roman,serif" font-size="14.00">produce</text>
</g>
<!-- Entity13&#45;&gt;Entity57 -->
<g id="edge41" class="edge verb">
<title>Entity13&#45;&gt;Entity57</title>
<path fill="none" stroke="black" d="M1401.18,-1135.58C1537.59,-1152.48 1887.35,-1195.81 2007,-1210.63"/>
<polygon fill="black" stroke="black" points="2006.84,-1214.14 2017.19,-1211.89 2007.7,-1207.19 2006.84,-1214.14"/>
<text text-anchor="start" x="1694.09" y="-1176.91" font-family="Times New Roman,serif" font-size="14.00">is</text>
</g>
<!-- Entity33 -->
<g id="node38" class="node entity">
<title>Entity33</title>
<ellipse fill="none" stroke="black" cx="1116.13" cy="-1687.05" rx="50.09" ry="18"/>
<text text-anchor="start" x="1085.63" y="-1683.35" font-family="Times New Roman,serif" font-size="14.00">john trump</text>
</g>
<!-- Entity13&#45;&gt;Entity33 -->
<g id="edge64" class="edge verb">
<title>Entity13&#45;&gt;Entity33</title>
<path fill="none" stroke="black" d="M1338.42,-1146.66C1305.01,-1227.88 1167.85,-1561.31 1127.4,-1659.64"/>
<polygon fill="black" stroke="black" points="1124.05,-1658.6 1123.48,-1669.18 1130.52,-1661.26 1124.05,-1658.6"/>
<text text-anchor="start" x="1189.91" y="-1406.95" font-family="Times New Roman,serif" font-size="14.00">nephew</text>
</g>
<!-- Entity44 -->
<g id="node16" class="node entity">
<title>Entity44</title>
<ellipse fill="none" stroke="black" cx="2698.54" cy="-3655.56" rx="74.99" ry="18"/>
<text text-anchor="start" x="2649.04" y="-3651.86" font-family="Times New Roman,serif" font-size="14.00">walter dornberger</text>
</g>
<!-- Entity44&#45;&gt;Entity53 -->
<g id="edge22" class="edge verb">
<title>Entity44&#45;&gt;Entity53</title>
<path fill="none" stroke="black" d="M2743.08,-3641.1C2850.46,-3606.23 3122.06,-3518.03 3222.31,-3485.48"/>
<polygon fill="black" stroke="black" points="3223.59,-3488.75 3232.02,-3482.33 3221.43,-3482.09 3223.59,-3488.75"/>
<text text-anchor="start" x="2936.7" y="-3567.09" font-family="Times New Roman,serif" font-size="14.00">member</text>
</g>
<!-- Entity54 -->
<g id="node17" class="node entity">
<title>Entity54</title>
<ellipse fill="none" stroke="black" cx="2005.63" cy="-3661.65" rx="53.89" ry="18"/>
<text text-anchor="start" x="1972.13" y="-3657.95" font-family="Times New Roman,serif" font-size="14.00">bell aviation</text>
</g>
<!-- Entity44&#45;&gt;Entity54 -->
<g id="edge10" class="edge verb">
<title>Entity44&#45;&gt;Entity54</title>
<path fill="none" stroke="black" d="M2625.33,-3651.86C2488.63,-3649.77 2196.82,-3652.42 2068.44,-3657.01"/>
<polygon fill="black" stroke="black" points="2068.24,-3653.52 2058.38,-3657.39 2068.5,-3660.51 2068.24,-3653.52"/>
<text text-anchor="start" x="2267.89" y="-3658.24" font-family="Times New Roman,serif" font-size="14.00">vice&#45;president</text>
</g>
<!-- Entity44&#45;&gt;Entity54 -->
<g id="edge50" class="edge verb">
<title>Entity44&#45;&gt;Entity54</title>
<path fill="none" stroke="black" d="M2626.38,-3660.52C2490.41,-3665.02 2198.31,-3667.51 2069.21,-3665.19"/>
<polygon fill="black" stroke="black" points="2069.15,-3661.69 2059.09,-3664.99 2069.01,-3668.69 2069.15,-3661.69"/>
<text text-anchor="start" x="2347.8" y="-3666.66" font-family="Times New Roman,serif" font-size="14.00">employee</text>
</g>
<!-- Entity72 -->
<g id="node23" class="node entity">
<title>Entity72</title>
<ellipse fill="none" stroke="black" cx="2777.39" cy="-3547.57" rx="90.98" ry="18"/>
<text text-anchor="start" x="2715.39" y="-3543.87" font-family="Times New Roman,serif" font-size="14.00">nsdap rocket program</text>
</g>
<!-- Entity44&#45;&gt;Entity72 -->
<g id="edge67" class="edge verb">
<title>Entity44&#45;&gt;Entity72</title>
<path fill="none" stroke="black" d="M2711.56,-3637.73C2724.29,-3620.3 2743.81,-3593.56 2758.29,-3573.73"/>
<polygon fill="black" stroke="black" points="2761.28,-3575.57 2764.35,-3565.43 2755.63,-3571.44 2761.28,-3575.57"/>
<text text-anchor="start" x="2700.92" y="-3609.53" font-family="Times New Roman,serif" font-size="14.00">create</text>
</g>
<!-- Entity74 -->
<g id="node55" class="node entity">
<title>Entity74</title>
<ellipse fill="none" stroke="black" cx="2861.62" cy="-4243.86" rx="65.79" ry="18"/>
<text text-anchor="start" x="2819.12" y="-4240.16" font-family="Times New Roman,serif" font-size="14.00">x series aircraft</text>
</g>
<!-- Entity44&#45;&gt;Entity74 -->
<g id="edge45" class="edge verb">
<title>Entity44&#45;&gt;Entity74</title>
<path fill="none" stroke="black" d="M2703.6,-3673.81C2727.07,-3758.48 2825.39,-4113.19 2853.86,-4215.89"/>
<polygon fill="black" stroke="black" points="2850.57,-4217.12 2856.62,-4225.82 2857.32,-4215.25 2850.57,-4217.12"/>
<text text-anchor="start" x="2744.73" y="-3948.65" font-family="Times New Roman,serif" font-size="14.00">create</text>
</g>
<!-- Entity52 -->
<g id="node18" class="node entity">
<title>Entity52</title>
<ellipse fill="none" stroke="black" cx="1536.12" cy="-259.86" rx="37.89" ry="18"/>
<text text-anchor="start" x="1515.12" y="-256.16" font-family="Times New Roman,serif" font-size="14.00">hunt oil</text>
</g>
<!-- Entity45 -->
<g id="node19" class="node entity">
<title>Entity45</title>
<ellipse fill="none" stroke="black" cx="1776.43" cy="-728.42" rx="77.99" ry="18"/>
<text text-anchor="start" x="1724.43" y="-724.72" font-family="Times New Roman,serif" font-size="14.00">dwight eisenhower</text>
</g>
<!-- Entity52&#45;&gt;Entity45 -->
<g id="edge11" class="edge verb">
<title>Entity52&#45;&gt;Entity45</title>
<path fill="none" stroke="black" d="M1545.1,-277.38C1581.53,-348.4 1718.38,-615.24 1762.58,-701.41"/>
<polygon fill="black" stroke="black" points="1759.47,-703.02 1767.15,-710.32 1765.7,-699.82 1759.47,-703.02"/>
<text text-anchor="start" x="1627.84" y="-493.19" font-family="Times New Roman,serif" font-size="14.00">fund</text>
</g>
<!-- Entity45&#45;&gt;Entity57 -->
<g id="edge51" class="edge verb">
<title>Entity45&#45;&gt;Entity57</title>
<path fill="none" stroke="black" d="M1786.41,-746.34C1827.62,-820.31 1984.58,-1102.09 2033.33,-1189.61"/>
<polygon fill="black" stroke="black" points="2030.29,-1191.35 2038.22,-1198.38 2036.41,-1187.94 2030.29,-1191.35"/>
<text text-anchor="start" x="1899.87" y="-971.77" font-family="Times New Roman,serif" font-size="14.00">is</text>
</g>
<!-- Entity17 -->
<g id="node20" class="node entity">
<title>Entity17</title>
<ellipse fill="none" stroke="black" cx="1744.11" cy="-1545.29" rx="31.4" ry="18"/>
<text text-anchor="start" x="1728.11" y="-1541.59" font-family="Times New Roman,serif" font-size="14.00">carter</text>
</g>
<!-- Entity17&#45;&gt;Entity57 -->
<g id="edge52" class="edge verb">
<title>Entity17&#45;&gt;Entity57</title>
<path fill="none" stroke="black" d="M1758.76,-1529.39C1807.97,-1476 1967.52,-1302.88 2026.06,-1239.35"/>
<polygon fill="black" stroke="black" points="2028.8,-1241.54 2033,-1231.82 2023.65,-1236.8 2028.8,-1241.54"/>
<text text-anchor="start" x="1882.41" y="-1388.17" font-family="Times New Roman,serif" font-size="14.00">is</text>
</g>
<!-- Entity61 -->
<g id="node21" class="node entity">
<title>Entity61</title>
<ellipse fill="none" stroke="black" cx="1472.63" cy="-1864.87" rx="27" ry="18"/>
<text text-anchor="start" x="1463.13" y="-1861.17" font-family="Times New Roman,serif" font-size="14.00">ufo</text>
</g>
<!-- Entity17&#45;&gt;Entity61 -->
<g id="edge12" class="edge verb">
<title>Entity17&#45;&gt;Entity61</title>
<path fill="none" stroke="black" d="M1730.27,-1561.58C1685.6,-1614.16 1545.08,-1779.58 1492.63,-1841.32"/>
<polygon fill="black" stroke="black" points="1489.92,-1839.1 1486.12,-1848.99 1495.26,-1843.64 1489.92,-1839.1"/>
<text text-anchor="start" x="1569.45" y="-1705.25" font-family="Times New Roman,serif" font-size="14.00">witness</text>
</g>
<!-- Entity48 -->
<g id="node22" class="node entity">
<title>Entity48</title>
<ellipse fill="none" stroke="black" cx="3085.94" cy="-3976.81" rx="46.29" ry="18"/>
<text text-anchor="start" x="3058.44" y="-3973.11" font-family="Times New Roman,serif" font-size="14.00">van braun</text>
</g>
<!-- Entity48&#45;&gt;Entity44 -->
<g id="edge26" class="edge verb">
<title>Entity48&#45;&gt;Entity44</title>
<path fill="none" stroke="black" d="M3066.2,-3960.43C3002.65,-3907.74 2803.2,-3742.35 2727.8,-3679.83"/>
<polygon fill="black" stroke="black" points="2729.58,-3676.76 2719.65,-3673.07 2725.11,-3682.15 2729.58,-3676.76"/>
<text text-anchor="start" x="2843" y="-3823.93" font-family="Times New Roman,serif" font-size="14.00">employee</text>
</g>
<!-- Entity48&#45;&gt;Entity72 -->
<g id="edge13" class="edge verb">
<title>Entity48&#45;&gt;Entity72</title>
<path fill="none" stroke="black" d="M3073.46,-3959.45C3025.7,-3893 2854.25,-3654.49 2796.52,-3574.18"/>
<polygon fill="black" stroke="black" points="2799.04,-3571.69 2790.36,-3565.62 2793.36,-3575.78 2799.04,-3571.69"/>
<text text-anchor="start" x="2880.99" y="-3770.61" font-family="Times New Roman,serif" font-size="14.00">employee</text>
</g>
<!-- Entity4 -->
<g id="node24" class="node entity">
<title>Entity4</title>
<ellipse fill="none" stroke="black" cx="89.01" cy="-3641.45" rx="64.19" ry="18"/>
<text text-anchor="start" x="47.51" y="-3637.75" font-family="Times New Roman,serif" font-size="14.00">andre puharich</text>
</g>
<!-- Entity1 -->
<g id="node25" class="node entity">
<title>Entity1</title>
<ellipse fill="none" stroke="black" cx="500.69" cy="-3372.25" rx="41.69" ry="18"/>
<text text-anchor="start" x="476.69" y="-3368.55" font-family="Times New Roman,serif" font-size="14.00">uri geller</text>
</g>
<!-- Entity4&#45;&gt;Entity1 -->
<g id="edge14" class="edge verb">
<title>Entity4&#45;&gt;Entity1</title>
<path fill="none" stroke="black" d="M114.45,-3624.81C186.28,-3577.85 390.48,-3444.32 469.21,-3392.84"/>
<polygon fill="black" stroke="black" points="471.28,-3395.67 477.73,-3387.27 467.45,-3389.81 471.28,-3395.67"/>
<text text-anchor="start" x="239.83" y="-3512.63" font-family="Times New Roman,serif" font-size="14.00">sponsore</text>
</g>
<!-- Entity1&#45;&gt;Entity8 -->
<g id="edge60" class="edge verb">
<title>Entity1&#45;&gt;Entity8</title>
<path fill="none" stroke="black" d="M517.14,-3388.9C570.33,-3442.74 737.86,-3612.29 799.94,-3675.12"/>
<polygon fill="black" stroke="black" points="797.45,-3677.59 806.97,-3682.24 802.43,-3672.67 797.45,-3677.59"/>
<text text-anchor="start" x="554.54" y="-3535.81" font-family="Times New Roman,serif" font-size="14.00">claiemd to channel</text>
</g>
<!-- Entity21 -->
<g id="node27" class="node entity">
<title>Entity21</title>
<ellipse fill="none" stroke="black" cx="549.99" cy="-2676.93" rx="63.89" ry="18"/>
<text text-anchor="start" x="508.99" y="-2673.23" font-family="Times New Roman,serif" font-size="14.00">robert bigelow</text>
</g>
<!-- Entity6 -->
<g id="node28" class="node entity">
<title>Entity6</title>
<ellipse fill="none" stroke="black" cx="538.22" cy="-2784.91" rx="68.49" ry="18"/>
<text text-anchor="start" x="493.72" y="-2781.21" font-family="Times New Roman,serif" font-size="14.00">jeffrey mishlove</text>
</g>
<!-- Entity21&#45;&gt;Entity6 -->
<g id="edge16" class="edge verb">
<title>Entity21&#45;&gt;Entity6</title>
<path fill="none" stroke="black" d="M547.99,-2695.25C546.16,-2712.11 543.4,-2737.36 541.29,-2756.77"/>
<polygon fill="black" stroke="black" points="537.79,-2756.55 540.19,-2766.87 544.75,-2757.31 537.79,-2756.55"/>
<text text-anchor="start" x="512.64" y="-2729.81" font-family="Times New Roman,serif" font-size="14.00">funds</text>
</g>
<!-- Entity56 -->
<g id="node42" class="node entity">
<title>Entity56</title>
<ellipse fill="none" stroke="black" cx="1118.43" cy="-2759.59" rx="77.19" ry="18"/>
<text text-anchor="start" x="1066.93" y="-2755.89" font-family="Times New Roman,serif" font-size="14.00">psi&#45;consciousness</text>
</g>
<!-- Entity21&#45;&gt;Entity56 -->
<g id="edge48" class="edge verb">
<title>Entity21&#45;&gt;Entity56</title>
<path fill="none" stroke="black" d="M606.83,-2685.2C709.73,-2700.16 926.9,-2731.74 1042.42,-2748.53"/>
<polygon fill="black" stroke="black" points="1042.19,-2752.04 1052.59,-2750.01 1043.2,-2745.11 1042.19,-2752.04"/>
<text text-anchor="start" x="760.63" y="-2720.67" font-family="Times New Roman,serif" font-size="14.00">investigates</text>
</g>
<!-- Entity6&#45;&gt;Entity1 -->
<g id="edge61" class="edge verb">
<title>Entity6&#45;&gt;Entity1</title>
<path fill="none" stroke="black" d="M537.05,-2803.14C531.66,-2887.58 509.08,-3241.08 502.5,-3344.01"/>
<polygon fill="black" stroke="black" points="498.99,-3344.04 501.85,-3354.24 505.98,-3344.49 498.99,-3344.04"/>
<text text-anchor="start" x="471.78" y="-3077.38" font-family="Times New Roman,serif" font-size="14.00">promote</text>
</g>
<!-- Entity6&#45;&gt;Entity56 -->
<g id="edge31" class="edge verb">
<title>Entity6&#45;&gt;Entity56</title>
<path fill="none" stroke="black" d="M606.39,-2786.47C714.14,-2784.62 923.31,-2775.6 1038.15,-2767.94"/>
<polygon fill="black" stroke="black" points="1038.55,-2771.42 1048.29,-2767.25 1038.07,-2764.43 1038.55,-2771.42"/>
<text text-anchor="start" x="758.27" y="-2781" font-family="Times New Roman,serif" font-size="14.00">investigates</text>
</g>
<!-- Entity6&#45;&gt;Entity56 -->
<g id="edge63" class="edge verb">
<title>Entity6&#45;&gt;Entity56</title>
<path fill="none" stroke="black" d="M600.95,-2777.78C704.87,-2770.31 912.97,-2761.03 1031.16,-2758.4"/>
<polygon fill="black" stroke="black" points="1031.34,-2761.9 1041.26,-2758.19 1031.19,-2754.9 1031.34,-2761.9"/>
<text text-anchor="start" x="785.06" y="-2756.89" font-family="Times New Roman,serif" font-size="14.00">study</text>
</g>
<!-- Entity29 -->
<g id="node29" class="node entity">
<title>Entity29</title>
<ellipse fill="none" stroke="black" cx="1903.05" cy="-17.85" rx="73.39" ry="18"/>
<text text-anchor="start" x="1854.55" y="-14.15" font-family="Times New Roman,serif" font-size="14.00">madam blavatsky</text>
</g>
<!-- Entity63 -->
<g id="node30" class="node entity">
<title>Entity63</title>
<ellipse fill="none" stroke="black" cx="1926.54" cy="-125.92" rx="85.29" ry="18"/>
<text text-anchor="start" x="1869.04" y="-122.22" font-family="Times New Roman,serif" font-size="14.00">theosophical society</text>
</g>
<!-- Entity29&#45;&gt;Entity63 -->
<g id="edge17" class="edge verb">
<title>Entity29&#45;&gt;Entity63</title>
<path fill="none" stroke="black" d="M1907.04,-36.18C1910.72,-53.13 1916.25,-78.56 1920.48,-98.02"/>
<polygon fill="black" stroke="black" points="1917.07,-98.83 1922.62,-107.86 1923.91,-97.34 1917.07,-98.83"/>
<text text-anchor="start" x="1879.76" y="-70.9" font-family="Times New Roman,serif" font-size="14.00">create</text>
</g>
<!-- Entity41 -->
<g id="node32" class="node entity">
<title>Entity41</title>
<ellipse fill="none" stroke="black" cx="2356.52" cy="-721.62" rx="67.69" ry="18"/>
<text text-anchor="start" x="2312.52" y="-717.92" font-family="Times New Roman,serif" font-size="14.00">abraham lincoln</text>
</g>
<!-- Entity41&#45;&gt;Entity57 -->
<g id="edge19" class="edge verb">
<title>Entity41&#45;&gt;Entity57</title>
<path fill="none" stroke="black" d="M2345.36,-739.5C2298.64,-814.27 2118.81,-1102.14 2063.88,-1190.05"/>
<polygon fill="black" stroke="black" points="2060.86,-1188.28 2058.53,-1198.61 2066.8,-1191.99 2060.86,-1188.28"/>
<text text-anchor="start" x="2194.62" y="-968.57" font-family="Times New Roman,serif" font-size="14.00">is</text>
</g>
<!-- Entity36 -->
<g id="node33" class="node entity">
<title>Entity36</title>
<ellipse fill="none" stroke="black" cx="2431.11" cy="-613.69" rx="90.98" ry="18"/>
<text text-anchor="start" x="2369.11" y="-609.99" font-family="Times New Roman,serif" font-size="14.00">emma hardinge&#45;britten</text>
</g>
<!-- Entity36&#45;&gt;Entity63 -->
<g id="edge66" class="edge verb">
<title>Entity36&#45;&gt;Entity63</title>
<path fill="none" stroke="black" d="M2412.85,-596.04C2336.29,-522.02 2040.93,-236.49 1952.01,-150.54"/>
<polygon fill="black" stroke="black" points="1954.4,-147.98 1944.77,-143.54 1949.53,-153.01 1954.4,-147.98"/>
<text text-anchor="start" x="2148.43" y="-377.09" font-family="Times New Roman,serif" font-size="14.00">create</text>
</g>
<!-- Entity36&#45;&gt;Entity41 -->
<g id="edge32" class="edge verb">
<title>Entity36&#45;&gt;Entity41</title>
<path fill="none" stroke="black" d="M2418.46,-632C2406.49,-649.31 2388.4,-675.5 2374.86,-695.1"/>
<polygon fill="black" stroke="black" points="2371.8,-693.37 2368.99,-703.59 2377.55,-697.35 2371.8,-693.37"/>
<text text-anchor="start" x="2317.66" y="-667.35" font-family="Times New Roman,serif" font-size="14.00">spokesperson</text>
</g>
<!-- Entity78 -->
<g id="node34" class="node entity">
<title>Entity78</title>
<ellipse fill="none" stroke="black" cx="2815.13" cy="-155.32" rx="39.79" ry="18"/>
<text text-anchor="start" x="2792.63" y="-151.62" font-family="Times New Roman,serif" font-size="14.00">medium</text>
</g>
<!-- Entity36&#45;&gt;Entity78 -->
<g id="edge20" class="edge verb">
<title>Entity36&#45;&gt;Entity78</title>
<path fill="none" stroke="black" d="M2446.16,-595.72C2505.82,-524.51 2725.74,-262.02 2794.47,-179.98"/>
<polygon fill="black" stroke="black" points="2797.26,-182.1 2801,-172.19 2791.9,-177.6 2797.26,-182.1"/>
<text text-anchor="start" x="2610.32" y="-391.65" font-family="Times New Roman,serif" font-size="14.00">is</text>
</g>
<!-- Entity70 -->
<g id="node61" class="node entity">
<title>Entity70</title>
<ellipse fill="none" stroke="black" cx="3003.36" cy="-302.51" rx="55.79" ry="18"/>
<text text-anchor="start" x="2968.36" y="-298.81" font-family="Times New Roman,serif" font-size="14.00">orphic circle</text>
</g>
<!-- Entity36&#45;&gt;Entity70 -->
<g id="edge65" class="edge verb">
<title>Entity36&#45;&gt;Entity70</title>
<path fill="none" stroke="black" d="M2462.28,-596.73C2559.86,-543.67 2859.26,-380.87 2965.49,-323.1"/>
<polygon fill="black" stroke="black" points="2967.46,-326.02 2974.57,-318.17 2964.11,-319.87 2967.46,-326.02"/>
<text text-anchor="start" x="2667.89" y="-463.72" font-family="Times New Roman,serif" font-size="14.00">member</text>
</g>
<!-- Entity40 -->
<g id="node36" class="node entity">
<title>Entity40</title>
<ellipse fill="none" stroke="black" cx="1943.94" cy="-2117.66" rx="53.89" ry="18"/>
<text text-anchor="start" x="1910.44" y="-2113.96" font-family="Times New Roman,serif" font-size="14.00">black magic</text>
</g>
<!-- Entity69 -->
<g id="node37" class="node entity">
<title>Entity69</title>
<ellipse fill="none" stroke="black" cx="2031.66" cy="-2229.64" rx="28.7" ry="18"/>
<text text-anchor="start" x="2017.66" y="-2225.94" font-family="Times New Roman,serif" font-size="14.00">x left</text>
</g>
<!-- Entity40&#45;&gt;Entity69 -->
<g id="edge25" class="edge verb">
<title>Entity40&#45;&gt;Entity69</title>
<path fill="none" stroke="black" d="M1957.64,-2135.16C1972.45,-2154.05 1996.14,-2184.29 2012.72,-2205.45"/>
<polygon fill="black" stroke="black" points="2009.98,-2207.64 2018.9,-2213.36 2015.49,-2203.32 2009.98,-2207.64"/>
<text text-anchor="start" x="1939.18" y="-2174.11" font-family="Times New Roman,serif" font-size="14.00">member</text>
</g>
<!-- Entity15 -->
<g id="node39" class="node entity">
<title>Entity15</title>
<ellipse fill="none" stroke="black" cx="1213.2" cy="-2149.86" rx="27" ry="18"/>
<text text-anchor="start" x="1205.2" y="-2146.16" font-family="Times New Roman,serif" font-size="14.00">cia</text>
</g>
<!-- Entity33&#45;&gt;Entity15 -->
<g id="edge27" class="edge verb">
<title>Entity33&#45;&gt;Entity15</title>
<path fill="none" stroke="black" d="M1119.93,-1705.2C1134.84,-1776.27 1189.33,-2036.04 1207.36,-2122.02"/>
<polygon fill="black" stroke="black" points="1203.94,-2122.77 1209.42,-2131.84 1210.79,-2121.34 1203.94,-2122.77"/>
<text text-anchor="start" x="1117.65" y="-1917.41" font-family="Times New Roman,serif" font-size="14.00">member</text>
</g>
<!-- Entity77 -->
<g id="node50" class="node entity">
<title>Entity77</title>
<ellipse fill="none" stroke="black" cx="659.49" cy="-1773.2" rx="50.89" ry="18"/>
<text text-anchor="start" x="628.49" y="-1769.5" font-family="Times New Roman,serif" font-size="14.00">nikola tesla</text>
</g>
<!-- Entity33&#45;&gt;Entity77 -->
<g id="edge39" class="edge verb">
<title>Entity33&#45;&gt;Entity77</title>
<path fill="none" stroke="black" d="M1071.51,-1695.47C987.37,-1711.34 805.5,-1745.65 714.17,-1762.88"/>
<polygon fill="black" stroke="black" points="713.47,-1759.45 704.29,-1764.75 714.76,-1766.33 713.47,-1759.45"/>
<text text-anchor="start" x="861.84" y="-1732.98" font-family="Times New Roman,serif" font-size="14.00">study</text>
</g>
<!-- Entity15&#45;&gt;Entity61 -->
<g id="edge55" class="edge verb">
<title>Entity15&#45;&gt;Entity61</title>
<path fill="none" stroke="black" d="M1227.52,-2134.13C1270.75,-2086.64 1400.13,-1944.51 1451.38,-1888.21"/>
<polygon fill="black" stroke="black" points="1454.21,-1890.3 1458.36,-1880.55 1449.04,-1885.59 1454.21,-1890.3"/>
<text text-anchor="start" x="1275.45" y="-2014.97" font-family="Times New Roman,serif" font-size="14.00">investigates</text>
</g>
<!-- Entity15&#45;&gt;Entity56 -->
<g id="edge42" class="edge verb">
<title>Entity15&#45;&gt;Entity56</title>
<path fill="none" stroke="black" d="M1210.42,-2167.78C1197.03,-2253.93 1139.24,-2625.71 1122.8,-2731.44"/>
<polygon fill="black" stroke="black" points="1119.34,-2730.95 1121.26,-2741.37 1126.26,-2732.03 1119.34,-2730.95"/>
<text text-anchor="start" x="1102.61" y="-2453.41" font-family="Times New Roman,serif" font-size="14.00">investigates</text>
</g>
<!-- Entity20 -->
<g id="node40" class="node entity">
<title>Entity20</title>
<ellipse fill="none" stroke="black" cx="2496.34" cy="-1535.34" rx="71.49" ry="18"/>
<text text-anchor="start" x="2449.34" y="-1531.64" font-family="Times New Roman,serif" font-size="14.00">woodrow wilson</text>
</g>
<!-- Entity20&#45;&gt;Entity57 -->
<g id="edge30" class="edge verb">
<title>Entity20&#45;&gt;Entity57</title>
<path fill="none" stroke="black" d="M2472.23,-1518.15C2395.69,-1463.6 2158.45,-1294.51 2076.25,-1235.92"/>
<polygon fill="black" stroke="black" points="2078.07,-1232.92 2067.89,-1229.97 2074.01,-1238.63 2078.07,-1232.92"/>
<text text-anchor="start" x="2264.24" y="-1380.84" font-family="Times New Roman,serif" font-size="14.00">is</text>
</g>
<!-- Entity66 -->
<g id="node41" class="node entity">
<title>Entity66</title>
<ellipse fill="none" stroke="black" cx="3117.44" cy="-1457.19" rx="71.49" ry="18"/>
<text text-anchor="start" x="3070.44" y="-1453.49" font-family="Times New Roman,serif" font-size="14.00">leauge of nations</text>
</g>
<!-- Entity20&#45;&gt;Entity66 -->
<g id="edge29" class="edge verb">
<title>Entity20&#45;&gt;Entity66</title>
<path fill="none" stroke="black" d="M2560.47,-1527.27C2676.38,-1512.69 2920.13,-1482.02 3043.12,-1466.55"/>
<polygon fill="black" stroke="black" points="3043.71,-1470 3053.2,-1465.28 3042.84,-1463.05 3043.71,-1470"/>
<text text-anchor="start" x="2767.79" y="-1500.71" font-family="Times New Roman,serif" font-size="14.00">create</text>
</g>
<!-- Entity42 -->
<g id="node43" class="node entity">
<title>Entity42</title>
<ellipse fill="none" stroke="black" cx="1929.94" cy="-2537.66" rx="39.79" ry="18"/>
<text text-anchor="start" x="1907.44" y="-2533.96" font-family="Times New Roman,serif" font-size="14.00">crowley</text>
</g>
<!-- Entity71 -->
<g id="node44" class="node entity">
<title>Entity71</title>
<ellipse fill="none" stroke="black" cx="2017.66" cy="-2649.64" rx="38.99" ry="18"/>
<text text-anchor="start" x="1995.66" y="-2645.94" font-family="Times New Roman,serif" font-size="14.00">x magic</text>
</g>
<!-- Entity42&#45;&gt;Entity71 -->
<g id="edge33" class="edge verb">
<title>Entity42&#45;&gt;Entity71</title>
<path fill="none" stroke="black" d="M1943.26,-2554.67C1957.82,-2573.25 1981.28,-2603.2 1997.96,-2624.49"/>
<polygon fill="black" stroke="black" points="1995.29,-2626.76 2004.21,-2632.47 2000.8,-2622.44 1995.29,-2626.76"/>
<text text-anchor="start" x="1924.61" y="-2593.38" font-family="Times New Roman,serif" font-size="14.00">member</text>
</g>
<!-- Entity39 -->
<g id="node45" class="node entity">
<title>Entity39</title>
<ellipse fill="none" stroke="black" cx="2311.46" cy="-4030.62" rx="57.69" ry="18"/>
<text text-anchor="start" x="2274.96" y="-4026.92" font-family="Times New Roman,serif" font-size="14.00">michael pane</text>
</g>
<!-- Entity39&#45;&gt;Entity44 -->
<g id="edge34" class="edge verb">
<title>Entity39&#45;&gt;Entity44</title>
<path fill="none" stroke="black" d="M2329.35,-4013.28C2391.76,-3952.81 2599.93,-3751.1 2672.96,-3680.35"/>
<polygon fill="black" stroke="black" points="2675.64,-3682.62 2680.39,-3673.15 2670.77,-3677.59 2675.64,-3682.62"/>
<text text-anchor="start" x="2447.16" y="-3850.61" font-family="Times New Roman,serif" font-size="14.00">employee</text>
</g>
<!-- Entity39&#45;&gt;Entity54 -->
<g id="edge49" class="edge verb">
<title>Entity39&#45;&gt;Entity54</title>
<path fill="none" stroke="black" d="M2296.71,-4012.82C2246.95,-3952.79 2085.12,-3757.56 2026.81,-3687.21"/>
<polygon fill="black" stroke="black" points="2029.31,-3684.73 2020.23,-3679.27 2023.92,-3689.2 2029.31,-3684.73"/>
<text text-anchor="start" x="2107.76" y="-3853.82" font-family="Times New Roman,serif" font-size="14.00">employee</text>
</g>
<!-- Entity49&#45;&gt;Entity73 -->
<g id="edge40" class="edge verb">
<title>Entity49&#45;&gt;Entity73</title>
<path fill="none" stroke="black" d="M3491.31,-2561.95C3486.09,-2640.68 3465.3,-2953.88 3458.92,-3050.01"/>
<polygon fill="black" stroke="black" points="3455.42,-3049.92 3458.25,-3060.13 3462.4,-3050.38 3455.42,-3049.92"/>
<text text-anchor="start" x="3429.12" y="-2809.78" font-family="Times New Roman,serif" font-size="14.00">member</text>
</g>
<!-- Entity3 -->
<g id="node47" class="node entity">
<title>Entity3</title>
<ellipse fill="none" stroke="black" cx="1354.52" cy="-3457.12" rx="65.79" ry="18"/>
<text text-anchor="start" x="1312.02" y="-3453.42" font-family="Times New Roman,serif" font-size="14.00">arthur m young</text>
</g>
<!-- Entity3&#45;&gt;Entity8 -->
<g id="edge59" class="edge verb">
<title>Entity3&#45;&gt;Entity8</title>
<path fill="none" stroke="black" d="M1320.49,-3472.61C1225.65,-3515.77 958.92,-3637.17 860.48,-3681.97"/>
<polygon fill="black" stroke="black" points="858.87,-3678.85 851.22,-3686.18 861.77,-3685.23 858.87,-3678.85"/>
<text text-anchor="start" x="1044.49" y="-3581.09" font-family="Times New Roman,serif" font-size="14.00">member</text>
</g>
<!-- Entity3&#45;&gt;Entity54 -->
<g id="edge62" class="edge verb">
<title>Entity3&#45;&gt;Entity54</title>
<path fill="none" stroke="black" d="M1397.75,-3470.7C1514.05,-3507.24 1833.15,-3607.47 1956.27,-3646.14"/>
<polygon fill="black" stroke="black" points="1955.59,-3649.6 1966.18,-3649.26 1957.68,-3642.92 1955.59,-3649.6"/>
<text text-anchor="start" x="1643.01" y="-3562.22" font-family="Times New Roman,serif" font-size="14.00">create</text>
</g>
<!-- Entity3&#45;&gt;Entity56 -->
<g id="edge36" class="edge verb">
<title>Entity3&#45;&gt;Entity56</title>
<path fill="none" stroke="black" d="M1348.45,-3439.18C1316.4,-3344.48 1166.89,-2902.77 1127.8,-2787.28"/>
<polygon fill="black" stroke="black" points="1131.09,-2786.08 1124.57,-2777.73 1124.46,-2788.33 1131.09,-2786.08"/>
<text text-anchor="start" x="1207.13" y="-3117.03" font-family="Times New Roman,serif" font-size="14.00">study</text>
</g>
<!-- Entity19 -->
<g id="node48" class="node entity">
<title>Entity19</title>
<ellipse fill="none" stroke="black" cx="2175.52" cy="-836.39" rx="58.49" ry="18"/>
<text text-anchor="start" x="2138.52" y="-832.69" font-family="Times New Roman,serif" font-size="14.00">richard nixon</text>
</g>
<!-- Entity19&#45;&gt;Entity57 -->
<g id="edge37" class="edge verb">
<title>Entity19&#45;&gt;Entity57</title>
<path fill="none" stroke="black" d="M2169.45,-854.43C2148.9,-915.47 2081.9,-1114.55 2057.16,-1188.08"/>
<polygon fill="black" stroke="black" points="2053.7,-1187.39 2053.82,-1197.98 2060.33,-1189.62 2053.7,-1187.39"/>
<text text-anchor="start" x="2103.3" y="-1025.06" font-family="Times New Roman,serif" font-size="14.00">is</text>
</g>
<!-- Entity34 -->
<g id="node49" class="node entity">
<title>Entity34</title>
<ellipse fill="none" stroke="black" cx="518.1" cy="-544.42" rx="69.59" ry="18"/>
<text text-anchor="start" x="472.6" y="-540.72" font-family="Times New Roman,serif" font-size="14.00">andrew breitbart</text>
</g>
<!-- Entity34&#45;&gt;Entity65 -->
<g id="edge38" class="edge verb">
<title>Entity34&#45;&gt;Entity65</title>
<path fill="none" stroke="black" d="M508.55,-562.27C499.3,-579.55 485.14,-605.98 474.55,-625.77"/>
<polygon fill="black" stroke="black" points="471.45,-624.15 469.81,-634.62 477.62,-627.45 471.45,-624.15"/>
<text text-anchor="start" x="457.55" y="-597.82" font-family="Times New Roman,serif" font-size="14.00">create</text>
</g>
<!-- Entity11 -->
<g id="node52" class="node entity">
<title>Entity11</title>
<ellipse fill="none" stroke="black" cx="2375.75" cy="-1222.69" rx="35.19" ry="18"/>
<text text-anchor="start" x="2356.75" y="-1218.99" font-family="Times New Roman,serif" font-size="14.00">obama</text>
</g>
<!-- Entity11&#45;&gt;Entity57 -->
<g id="edge43" class="edge verb">
<title>Entity11&#45;&gt;Entity57</title>
<path fill="none" stroke="black" d="M2340.66,-1221.94C2279.78,-1220.64 2154.87,-1217.98 2089.63,-1216.58"/>
<polygon fill="black" stroke="black" points="2089.38,-1213.08 2079.31,-1216.36 2089.23,-1220.08 2089.38,-1213.08"/>
<text text-anchor="start" x="2205.15" y="-1223.06" font-family="Times New Roman,serif" font-size="14.00">is</text>
</g>
<!-- Entity28 -->
<g id="node53" class="node entity">
<title>Entity28</title>
<ellipse fill="none" stroke="black" cx="2402.46" cy="-126.39" rx="58.49" ry="18"/>
<text text-anchor="start" x="2365.46" y="-122.69" font-family="Times New Roman,serif" font-size="14.00">rudolf steiner</text>
</g>
<!-- Entity28&#45;&gt;Entity63 -->
<g id="edge57" class="edge verb">
<title>Entity28&#45;&gt;Entity63</title>
<path fill="none" stroke="black" d="M2343.63,-126.33C2263.16,-126.25 2117.84,-126.11 2021.76,-126.01"/>
<polygon fill="black" stroke="black" points="2021.75,-122.51 2011.75,-126 2021.74,-129.51 2021.75,-122.51"/>
<text text-anchor="start" x="2136.69" y="-129.97" font-family="Times New Roman,serif" font-size="14.00">member</text>
</g>
<!-- Entity68 -->
<g id="node54" class="node entity">
<title>Entity68</title>
<ellipse fill="none" stroke="black" cx="2488.12" cy="-18.4" rx="102.08" ry="18"/>
<text text-anchor="start" x="2417.62" y="-14.7" font-family="Times New Roman,serif" font-size="14.00">anthroposophical society</text>
</g>
<!-- Entity28&#45;&gt;Entity68 -->
<g id="edge44" class="edge verb">
<title>Entity28&#45;&gt;Entity68</title>
<path fill="none" stroke="black" d="M2416.61,-108.56C2430.49,-91.05 2451.83,-64.15 2467.58,-44.29"/>
<polygon fill="black" stroke="black" points="2470.48,-46.27 2473.95,-36.26 2465,-41.92 2470.48,-46.27"/>
<text text-anchor="start" x="2408.09" y="-80.22" font-family="Times New Roman,serif" font-size="14.00">create</text>
</g>
<!-- Entity80 -->
<g id="node57" class="node entity">
<title>Entity80</title>
<ellipse fill="none" stroke="black" cx="2336.94" cy="-2117.66" rx="27" ry="18"/>
<text text-anchor="start" x="2326.94" y="-2113.96" font-family="Times New Roman,serif" font-size="14.00">foo</text>
</g>
<!-- Entity81 -->
<g id="node58" class="node entity">
<title>Entity81</title>
<ellipse fill="none" stroke="black" cx="2424.66" cy="-2229.64" rx="27" ry="18"/>
<text text-anchor="start" x="2414.66" y="-2225.94" font-family="Times New Roman,serif" font-size="14.00">baz</text>
</g>
<!-- Entity80&#45;&gt;Entity81 -->
<g id="edge53" class="edge verb">
<title>Entity80&#45;&gt;Entity81</title>
<path fill="none" stroke="black" d="M2349.51,-2133.7C2364.23,-2152.5 2388.76,-2183.82 2405.78,-2205.53"/>
<polygon fill="black" stroke="black" points="2403.19,-2207.91 2412.11,-2213.62 2408.7,-2203.59 2403.19,-2207.91"/>
<text text-anchor="start" x="2357.64" y="-2173.42" font-family="Times New Roman,serif" font-size="14.00">baz</text>
</g>
<!-- Entity23 -->
<g id="node60" class="node entity">
<title>Entity23</title>
<ellipse fill="none" stroke="black" cx="2910.9" cy="-1869.86" rx="53.89" ry="18"/>
<text text-anchor="start" x="2877.4" y="-1866.16" font-family="Times New Roman,serif" font-size="14.00">edgar casey</text>
</g>
<!-- Entity23&#45;&gt;Entity20 -->
<g id="edge58" class="edge verb">
<title>Entity23&#45;&gt;Entity20</title>
<path fill="none" stroke="black" d="M2890.06,-1853.04C2821.94,-1798.07 2605.69,-1623.58 2526.11,-1559.36"/>
<polygon fill="black" stroke="black" points="2527.95,-1556.35 2517.97,-1552.79 2523.55,-1561.79 2527.95,-1556.35"/>
<text text-anchor="start" x="2672.08" y="-1710" font-family="Times New Roman,serif" font-size="14.00">advise</text>
</g>
</g>
</svg>
