<?xml version="1.0" encoding="UTF-8" standalone="no"?>
<?xml-stylesheet href="../styles.css" type="text/css"?>
<!DOCTYPE svg PUBLIC "-//W3C//DTD SVG 1.1//EN"
 "http://www.w3.org/Graphics/SVG/1.1/DTD/svg11.dtd">
<!-- Generated by graphviz version 2.47.3 (20210619.1520)
 -->
<!-- Title: G Pages: 1 -->
<svg width="4530pt" height="3789pt"
 viewBox="0.00 0.00 4530.00 3789.00" xmlns="http://www.w3.org/2000/svg" xmlns:xlink="http://www.w3.org/1999/xlink">
<g id="graph0" class="graph" transform="scale(1 1) rotate(0) translate(4 3785)">
<title>G</title>
<polygon fill="white" stroke="transparent" points="-4,4 -4,-3785 4526,-3785 4526,4 -4,4"/>
<!-- Entity2 -->
<g id="node1" class="node entity">
<title>Entity2</title>
<ellipse fill="none" stroke="black" cx="64.77" cy="-865.45" rx="64.19" ry="18"/>
<text text-anchor="start" x="23.27" y="-861.75" font-family="Times New Roman,serif" font-size="14.00">andre puharich</text>
</g>
<!-- Entity1 -->
<g id="node2" class="node entity">
<title>Entity1</title>
<ellipse fill="none" stroke="black" cx="648.12" cy="-757.41" rx="41.69" ry="18"/>
<text text-anchor="start" x="624.12" y="-753.71" font-family="Times New Roman,serif" font-size="14.00">uri geller</text>
</g>
<!-- Entity2&#45;&gt;Entity1 -->
<g id="edge1" class="edge verb">
<title>Entity2&#45;&gt;Entity1</title>
<path fill="none" stroke="black" d="M118.61,-855.48C231.59,-834.56 491.91,-786.34 599.86,-766.35"/>
<polygon fill="black" stroke="black" points="600.62,-769.77 609.82,-764.5 599.35,-762.88 600.62,-769.77"/>
<text text-anchor="start" x="307.23" y="-814.71" font-family="Times New Roman,serif" font-size="14.00">sponsore</text>
</g>
<!-- Entity9 -->
<g id="node4" class="node entity">
<title>Entity9</title>
<ellipse fill="none" stroke="black" cx="1154.5" cy="-842.7" rx="38.19" ry="18"/>
<text text-anchor="start" x="1133" y="-839" font-family="Times New Roman,serif" font-size="14.00">the nine</text>
</g>
<!-- Entity1&#45;&gt;Entity9 -->
<g id="edge6" class="edge verb">
<title>Entity1&#45;&gt;Entity9</title>
<path fill="none" stroke="black" d="M687.02,-763.96C778.95,-779.44 1009.33,-818.25 1108.22,-834.91"/>
<polygon fill="black" stroke="black" points="1107.77,-838.38 1118.21,-836.59 1108.93,-831.48 1107.77,-838.38"/>
<text text-anchor="start" x="793.62" y="-803.23" font-family="Times New Roman,serif" font-size="14.00">claiemd to channel</text>
</g>
<!-- Entity4 -->
<g id="node3" class="node entity">
<title>Entity4</title>
<ellipse fill="none" stroke="black" cx="674.46" cy="-1017.75" rx="74.99" ry="18"/>
<text text-anchor="start" x="624.96" y="-1014.05" font-family="Times New Roman,serif" font-size="14.00">gene roddenberry</text>
</g>
<!-- Entity4&#45;&gt;Entity9 -->
<g id="edge2" class="edge verb">
<title>Entity4&#45;&gt;Entity9</title>
<path fill="none" stroke="black" d="M715.8,-1002.67C806.99,-969.42 1024.41,-890.14 1114.42,-857.32"/>
<polygon fill="black" stroke="black" points="1115.79,-860.54 1123.99,-853.83 1113.4,-853.97 1115.79,-860.54"/>
<text text-anchor="start" x="811.11" y="-933.79" font-family="Times New Roman,serif" font-size="14.00">claiemd to channel</text>
</g>
<!-- Entity52 -->
<g id="node43" class="node entity">
<title>Entity52</title>
<ellipse fill="none" stroke="black" cx="560.08" cy="-865.36" rx="94.48" ry="18"/>
<text text-anchor="start" x="495.58" y="-861.66" font-family="Times New Roman,serif" font-size="14.00">egyptian gods in a ship</text>
</g>
<!-- Entity9&#45;&gt;Entity52 -->
<g id="edge35" class="edge verb">
<title>Entity9&#45;&gt;Entity52</title>
<path fill="none" stroke="black" d="M1115.95,-844.17C1025.5,-847.62 797.15,-856.32 662.94,-861.44"/>
<polygon fill="black" stroke="black" points="662.51,-857.95 652.65,-861.83 662.77,-864.94 662.51,-857.95"/>
<text text-anchor="start" x="859.45" y="-856.6" font-family="Times New Roman,serif" font-size="14.00">claim</text>
</g>
<!-- Entity3 -->
<g id="node5" class="node entity">
<title>Entity3</title>
<ellipse fill="none" stroke="black" cx="1822.14" cy="-956.56" rx="65.79" ry="18"/>
<text text-anchor="start" x="1779.64" y="-952.86" font-family="Times New Roman,serif" font-size="14.00">arthur m young</text>
</g>
<!-- Entity3&#45;&gt;Entity9 -->
<g id="edge3" class="edge verb">
<title>Entity3&#45;&gt;Entity9</title>
<path fill="none" stroke="black" d="M1766.37,-947.05C1637.25,-925.03 1319.74,-870.88 1200.63,-850.57"/>
<polygon fill="black" stroke="black" points="1201.18,-847.11 1190.73,-848.88 1200,-854.01 1201.18,-847.11"/>
<text text-anchor="start" x="1437.5" y="-902.61" font-family="Times New Roman,serif" font-size="14.00">member</text>
</g>
<!-- Entity56 -->
<g id="node30" class="node entity">
<title>Entity56</title>
<ellipse fill="none" stroke="black" cx="2722.07" cy="-574.43" rx="53.89" ry="18"/>
<text text-anchor="start" x="2688.57" y="-570.73" font-family="Times New Roman,serif" font-size="14.00">bell aviation</text>
</g>
<!-- Entity3&#45;&gt;Entity56 -->
<g id="edge22" class="edge verb">
<title>Entity3&#45;&gt;Entity56</title>
<path fill="none" stroke="black" d="M1857.98,-941.34C2000.16,-880.97 2524.36,-658.38 2678.91,-592.75"/>
<polygon fill="black" stroke="black" points="2680.71,-595.79 2688.55,-588.66 2677.97,-589.35 2680.71,-595.79"/>
<text text-anchor="start" x="2234.44" y="-770.85" font-family="Times New Roman,serif" font-size="14.00">create</text>
</g>
<!-- Entity55 -->
<g id="node34" class="node entity">
<title>Entity55</title>
<ellipse fill="none" stroke="black" cx="1013.56" cy="-734.71" rx="77.19" ry="18"/>
<text text-anchor="start" x="962.06" y="-731.01" font-family="Times New Roman,serif" font-size="14.00">psi&#45;consciousness</text>
</g>
<!-- Entity3&#45;&gt;Entity55 -->
<g id="edge53" class="edge verb">
<title>Entity3&#45;&gt;Entity55</title>
<path fill="none" stroke="black" d="M1775.47,-943.76C1636.93,-905.74 1228.08,-793.57 1073.6,-751.19"/>
<polygon fill="black" stroke="black" points="1074.37,-747.77 1063.8,-748.5 1072.51,-754.52 1074.37,-747.77"/>
<text text-anchor="start" x="1393.54" y="-851.27" font-family="Times New Roman,serif" font-size="14.00">study</text>
</g>
<!-- Entity5 -->
<g id="node6" class="node entity">
<title>Entity5</title>
<ellipse fill="none" stroke="black" cx="3430.33" cy="-1215.22" rx="75.29" ry="18"/>
<text text-anchor="start" x="3380.33" y="-1211.52" font-family="Times New Roman,serif" font-size="14.00">lee harvey oswald</text>
</g>
<!-- Entity7 -->
<g id="node7" class="node entity">
<title>Entity7</title>
<ellipse fill="none" stroke="black" cx="2731.9" cy="-1182.05" rx="64.19" ry="18"/>
<text text-anchor="start" x="2690.4" y="-1178.35" font-family="Times New Roman,serif" font-size="14.00">john f kennedy</text>
</g>
<!-- Entity5&#45;&gt;Entity7 -->
<g id="edge4" class="edge verb">
<title>Entity5&#45;&gt;Entity7</title>
<path fill="none" stroke="black" d="M3356.25,-1211.7C3221.95,-1205.32 2939.81,-1191.92 2805.71,-1185.55"/>
<polygon fill="black" stroke="black" points="2805.69,-1182.05 2795.54,-1185.07 2805.36,-1189.04 2805.69,-1182.05"/>
<text text-anchor="start" x="3018.98" y="-1202.43" font-family="Times New Roman,serif" font-size="14.00">assassinate</text>
</g>
<!-- Entity45 -->
<g id="node29" class="node entity">
<title>Entity45</title>
<ellipse fill="none" stroke="black" cx="4052.59" cy="-1148.33" rx="59.29" ry="18"/>
<text text-anchor="start" x="4015.09" y="-1144.63" font-family="Times New Roman,serif" font-size="14.00">guy bannister</text>
</g>
<!-- Entity5&#45;&gt;Entity45 -->
<g id="edge21" class="edge verb">
<title>Entity5&#45;&gt;Entity45</title>
<path fill="none" stroke="black" d="M3499.3,-1207.8C3619.98,-1194.83 3867.87,-1168.18 3986.5,-1155.43"/>
<polygon fill="black" stroke="black" points="3986.97,-1158.9 3996.53,-1154.35 3986.22,-1151.94 3986.97,-1158.9"/>
<text text-anchor="start" x="3688.9" y="-1185.42" font-family="Times New Roman,serif" font-size="14.00">employee</text>
</g>
<!-- Entity53 -->
<g id="node31" class="node entity">
<title>Entity53</title>
<ellipse fill="none" stroke="black" cx="2147.89" cy="-1117.28" rx="31.4" ry="18"/>
<text text-anchor="start" x="2131.89" y="-1113.58" font-family="Times New Roman,serif" font-size="14.00">potus</text>
</g>
<!-- Entity7&#45;&gt;Entity53 -->
<g id="edge23" class="edge verb">
<title>Entity7&#45;&gt;Entity53</title>
<path fill="none" stroke="black" d="M2671.87,-1175.39C2552.96,-1162.2 2290.19,-1133.06 2188.86,-1121.83"/>
<polygon fill="black" stroke="black" points="2189.05,-1118.33 2178.72,-1120.7 2188.27,-1125.28 2189.05,-1118.33"/>
<text text-anchor="start" x="2420.37" y="-1152.41" font-family="Times New Roman,serif" font-size="14.00">is</text>
</g>
<!-- Entity30 -->
<g id="node8" class="node entity">
<title>Entity30</title>
<ellipse fill="none" stroke="black" cx="1631.77" cy="-1407.61" rx="50.09" ry="18"/>
<text text-anchor="start" x="1601.27" y="-1403.91" font-family="Times New Roman,serif" font-size="14.00">john trump</text>
</g>
<!-- Entity17 -->
<g id="node9" class="node entity">
<title>Entity17</title>
<ellipse fill="none" stroke="black" cx="1422.83" cy="-994.81" rx="27" ry="18"/>
<text text-anchor="start" x="1414.83" y="-991.11" font-family="Times New Roman,serif" font-size="14.00">cia</text>
</g>
<!-- Entity30&#45;&gt;Entity17 -->
<g id="edge5" class="edge verb">
<title>Entity30&#45;&gt;Entity17</title>
<path fill="none" stroke="black" d="M1622.79,-1389.87C1589.83,-1324.76 1475.39,-1098.65 1436.15,-1021.13"/>
<polygon fill="black" stroke="black" points="1439.18,-1019.36 1431.54,-1012.02 1432.94,-1022.52 1439.18,-1019.36"/>
<text text-anchor="start" x="1483.47" y="-1209.3" font-family="Times New Roman,serif" font-size="14.00">member</text>
</g>
<!-- Entity67 -->
<g id="node47" class="node entity">
<title>Entity67</title>
<ellipse fill="none" stroke="black" cx="1188.72" cy="-1557.65" rx="50.89" ry="18"/>
<text text-anchor="start" x="1157.72" y="-1553.95" font-family="Times New Roman,serif" font-size="14.00">nikola tesla</text>
</g>
<!-- Entity30&#45;&gt;Entity67 -->
<g id="edge40" class="edge verb">
<title>Entity30&#45;&gt;Entity67</title>
<path fill="none" stroke="black" d="M1595.14,-1420.02C1514.91,-1447.19 1323.77,-1511.92 1235.22,-1541.91"/>
<polygon fill="black" stroke="black" points="1234.06,-1538.61 1225.71,-1545.13 1236.3,-1545.24 1234.06,-1538.61"/>
<text text-anchor="start" x="1384.18" y="-1484.76" font-family="Times New Roman,serif" font-size="14.00">study</text>
</g>
<!-- Entity17&#45;&gt;Entity55 -->
<g id="edge27" class="edge verb">
<title>Entity17&#45;&gt;Entity55</title>
<path fill="none" stroke="black" d="M1403.09,-982.26C1338.39,-941.14 1132.09,-810.04 1048.87,-757.15"/>
<polygon fill="black" stroke="black" points="1050.6,-754.1 1040.28,-751.69 1046.84,-760.01 1050.6,-754.1"/>
<text text-anchor="start" x="1161.98" y="-873.51" font-family="Times New Roman,serif" font-size="14.00">investigates</text>
</g>
<!-- Entity54 -->
<g id="node52" class="node entity">
<title>Entity54</title>
<ellipse fill="none" stroke="black" cx="1555.95" cy="-668.9" rx="27" ry="18"/>
<text text-anchor="start" x="1546.45" y="-665.2" font-family="Times New Roman,serif" font-size="14.00">ufo</text>
</g>
<!-- Entity17&#45;&gt;Entity54 -->
<g id="edge54" class="edge verb">
<title>Entity17&#45;&gt;Entity54</title>
<path fill="none" stroke="black" d="M1429.99,-977.29C1451.93,-923.57 1518.36,-760.94 1544.86,-696.05"/>
<polygon fill="black" stroke="black" points="1548.22,-697.09 1548.76,-686.51 1541.74,-694.45 1548.22,-697.09"/>
<text text-anchor="start" x="1423.42" y="-825.47" font-family="Times New Roman,serif" font-size="14.00">investigates</text>
</g>
<!-- Entity6 -->
<g id="node10" class="node entity">
<title>Entity6</title>
<ellipse fill="none" stroke="black" cx="286.17" cy="-757.41" rx="68.49" ry="18"/>
<text text-anchor="start" x="241.67" y="-753.71" font-family="Times New Roman,serif" font-size="14.00">jeffrey mishlove</text>
</g>
<!-- Entity6&#45;&gt;Entity1 -->
<g id="edge7" class="edge verb">
<title>Entity6&#45;&gt;Entity1</title>
<path fill="none" stroke="black" d="M354.68,-757.41C424.95,-757.41 532.72,-757.41 596.24,-757.41"/>
<polygon fill="black" stroke="black" points="596.42,-760.91 606.42,-757.41 596.42,-753.91 596.42,-760.91"/>
<text text-anchor="start" x="427.46" y="-761.21" font-family="Times New Roman,serif" font-size="14.00">promote</text>
</g>
<!-- Entity6&#45;&gt;Entity55 -->
<g id="edge57" class="edge verb">
<title>Entity6&#45;&gt;Entity55</title>
<path fill="none" stroke="black" d="M354.08,-759.42C488.08,-758.61 786.07,-749.43 931.09,-741.77"/>
<polygon fill="black" stroke="black" points="931.47,-745.25 941.26,-741.22 931.09,-738.26 931.47,-745.25"/>
<text text-anchor="start" x="611.58" y="-739.39" font-family="Times New Roman,serif" font-size="14.00">study</text>
</g>
<!-- Entity6&#45;&gt;Entity55 -->
<g id="edge59" class="edge verb">
<title>Entity6&#45;&gt;Entity55</title>
<path fill="none" stroke="black" d="M350.6,-751.35C481.38,-743.85 778.14,-734.41 926.18,-732.86"/>
<polygon fill="black" stroke="black" points="926.62,-736.36 936.58,-732.77 926.55,-729.36 926.62,-736.36"/>
<text text-anchor="start" x="574.39" y="-730.91" font-family="Times New Roman,serif" font-size="14.00">investigates</text>
</g>
<!-- Entity79 -->
<g id="node11" class="node entity">
<title>Entity79</title>
<ellipse fill="none" stroke="black" cx="2435.94" cy="-1769.66" rx="27" ry="18"/>
<text text-anchor="start" x="2425.94" y="-1765.96" font-family="Times New Roman,serif" font-size="14.00">foo</text>
</g>
<!-- Entity80 -->
<g id="node12" class="node entity">
<title>Entity80</title>
<ellipse fill="none" stroke="black" cx="2523.66" cy="-1881.64" rx="27" ry="18"/>
<text text-anchor="start" x="2513.66" y="-1877.94" font-family="Times New Roman,serif" font-size="14.00">baz</text>
</g>
<!-- Entity79&#45;&gt;Entity80 -->
<g id="edge8" class="edge verb">
<title>Entity79&#45;&gt;Entity80</title>
<path fill="none" stroke="black" d="M2448.51,-1785.7C2463.23,-1804.5 2487.76,-1835.82 2504.78,-1857.53"/>
<polygon fill="black" stroke="black" points="2502.19,-1859.91 2511.11,-1865.62 2507.7,-1855.59 2502.19,-1859.91"/>
<text text-anchor="start" x="2456.64" y="-1825.42" font-family="Times New Roman,serif" font-size="14.00">baz</text>
</g>
<!-- Entity11 -->
<g id="node13" class="node entity">
<title>Entity11</title>
<ellipse fill="none" stroke="black" cx="2399.82" cy="-371.99" rx="68.49" ry="18"/>
<text text-anchor="start" x="2355.32" y="-368.29" font-family="Times New Roman,serif" font-size="14.00">george hw bush</text>
</g>
<!-- Entity18 -->
<g id="node14" class="node entity">
<title>Entity18</title>
<ellipse fill="none" stroke="black" cx="2514.15" cy="-809.09" rx="63.89" ry="18"/>
<text text-anchor="start" x="2473.15" y="-805.39" font-family="Times New Roman,serif" font-size="14.00">george w bush</text>
</g>
<!-- Entity11&#45;&gt;Entity18 -->
<g id="edge9" class="edge verb">
<title>Entity11&#45;&gt;Entity18</title>
<path fill="none" stroke="black" d="M2404.59,-390.22C2422.42,-458.39 2485.27,-698.69 2506.83,-781.1"/>
<polygon fill="black" stroke="black" points="2503.45,-781.99 2509.36,-790.78 2510.22,-780.22 2503.45,-781.99"/>
<text text-anchor="start" x="2423.71" y="-589.46" font-family="Times New Roman,serif" font-size="14.00">father</text>
</g>
<!-- Entity11&#45;&gt;Entity53 -->
<g id="edge48" class="edge verb">
<title>Entity11&#45;&gt;Entity53</title>
<path fill="none" stroke="black" d="M2393.72,-390.04C2360.13,-489.41 2197.83,-969.52 2157.15,-1089.88"/>
<polygon fill="black" stroke="black" points="2153.8,-1088.87 2153.91,-1099.47 2160.43,-1091.11 2153.8,-1088.87"/>
<text text-anchor="start" x="2265.43" y="-743.76" font-family="Times New Roman,serif" font-size="14.00">is</text>
</g>
<!-- Entity18&#45;&gt;Entity53 -->
<g id="edge58" class="edge verb">
<title>Entity18&#45;&gt;Entity53</title>
<path fill="none" stroke="black" d="M2493.67,-826.32C2431.13,-878.94 2242.69,-1037.51 2173.62,-1095.63"/>
<polygon fill="black" stroke="black" points="2171.21,-1093.09 2165.81,-1102.2 2175.71,-1098.44 2171.21,-1093.09"/>
<text text-anchor="start" x="2323.65" y="-964.77" font-family="Times New Roman,serif" font-size="14.00">is</text>
</g>
<!-- Entity16 -->
<g id="node15" class="node entity">
<title>Entity16</title>
<ellipse fill="none" stroke="black" cx="332.66" cy="-649.33" rx="63.89" ry="18"/>
<text text-anchor="start" x="291.66" y="-645.63" font-family="Times New Roman,serif" font-size="14.00">robert bigelow</text>
</g>
<!-- Entity16&#45;&gt;Entity6 -->
<g id="edge10" class="edge verb">
<title>Entity16&#45;&gt;Entity6</title>
<path fill="none" stroke="black" d="M324.77,-667.66C317.41,-684.77 306.34,-710.51 297.94,-730.05"/>
<polygon fill="black" stroke="black" points="294.68,-728.77 293.94,-739.34 301.11,-731.54 294.68,-728.77"/>
<text text-anchor="start" x="279.35" y="-702.65" font-family="Times New Roman,serif" font-size="14.00">funds</text>
</g>
<!-- Entity16&#45;&gt;Entity55 -->
<g id="edge49" class="edge verb">
<title>Entity16&#45;&gt;Entity55</title>
<path fill="none" stroke="black" d="M391,-656.65C513.4,-672 797.03,-707.56 935.16,-724.88"/>
<polygon fill="black" stroke="black" points="934.89,-728.38 945.25,-726.15 935.76,-721.43 934.89,-728.38"/>
<text text-anchor="start" x="599.08" y="-694.56" font-family="Times New Roman,serif" font-size="14.00">investigates</text>
</g>
<!-- Entity26 -->
<g id="node16" class="node entity">
<title>Entity26</title>
<ellipse fill="none" stroke="black" cx="2161.18" cy="-758.82" rx="53.89" ry="18"/>
<text text-anchor="start" x="2127.68" y="-755.12" font-family="Times New Roman,serif" font-size="14.00">edgar casey</text>
</g>
<!-- Entity27 -->
<g id="node17" class="node entity">
<title>Entity27</title>
<ellipse fill="none" stroke="black" cx="1599.03" cy="-817.07" rx="71.49" ry="18"/>
<text text-anchor="start" x="1552.03" y="-813.37" font-family="Times New Roman,serif" font-size="14.00">woodrow wilson</text>
</g>
<!-- Entity26&#45;&gt;Entity27 -->
<g id="edge11" class="edge verb">
<title>Entity26&#45;&gt;Entity27</title>
<path fill="none" stroke="black" d="M2109.31,-764.2C2009.84,-774.51 1791.87,-797.09 1675.62,-809.13"/>
<polygon fill="black" stroke="black" points="1674.96,-805.68 1665.38,-810.2 1675.68,-812.65 1674.96,-805.68"/>
<text text-anchor="start" x="1856.46" y="-790.47" font-family="Times New Roman,serif" font-size="14.00">advise</text>
</g>
<!-- Entity27&#45;&gt;Entity53 -->
<g id="edge38" class="edge verb">
<title>Entity27&#45;&gt;Entity53</title>
<path fill="none" stroke="black" d="M1628.93,-833.42C1724.06,-885.46 2019.21,-1046.9 2116.46,-1100.09"/>
<polygon fill="black" stroke="black" points="2114.78,-1103.16 2125.24,-1104.89 2118.14,-1097.02 2114.78,-1103.16"/>
<text text-anchor="start" x="1862.69" y="-970.56" font-family="Times New Roman,serif" font-size="14.00">is</text>
</g>
<!-- Entity58 -->
<g id="node59" class="node entity">
<title>Entity58</title>
<ellipse fill="none" stroke="black" cx="1376.28" cy="-169.1" rx="71.49" ry="18"/>
<text text-anchor="start" x="1329.28" y="-165.4" font-family="Times New Roman,serif" font-size="14.00">leauge of nations</text>
</g>
<!-- Entity27&#45;&gt;Entity58 -->
<g id="edge65" class="edge verb">
<title>Entity27&#45;&gt;Entity58</title>
<path fill="none" stroke="black" d="M1592.84,-799.06C1561.87,-708.97 1423.72,-307.1 1385.88,-197.05"/>
<polygon fill="black" stroke="black" points="1389.1,-195.65 1382.54,-187.33 1382.48,-197.92 1389.1,-195.65"/>
<text text-anchor="start" x="1455.36" y="-501.86" font-family="Times New Roman,serif" font-size="14.00">create</text>
</g>
<!-- Entity25 -->
<g id="node18" class="node entity">
<title>Entity25</title>
<ellipse fill="none" stroke="black" cx="2327.9" cy="-2554.64" rx="58.49" ry="18"/>
<text text-anchor="start" x="2290.9" y="-2550.94" font-family="Times New Roman,serif" font-size="14.00">steve bannon</text>
</g>
<!-- Entity8 -->
<g id="node19" class="node entity">
<title>Entity8</title>
<ellipse fill="none" stroke="black" cx="2121.33" cy="-1778.74" rx="59.59" ry="18"/>
<text text-anchor="start" x="2083.33" y="-1775.04" font-family="Times New Roman,serif" font-size="14.00">donald trump</text>
</g>
<!-- Entity25&#45;&gt;Entity8 -->
<g id="edge12" class="edge verb">
<title>Entity25&#45;&gt;Entity8</title>
<path fill="none" stroke="black" d="M2325.33,-2536.41C2304.13,-2433.97 2170.24,-1930.37 2131.52,-1806.36"/>
<polygon fill="black" stroke="black" points="2134.85,-1805.29 2128.49,-1796.82 2128.18,-1807.41 2134.85,-1805.29"/>
<text text-anchor="start" x="2180.42" y="-2160.18" font-family="Times New Roman,serif" font-size="14.00">promote</text>
</g>
<!-- Entity25&#45;&gt;Entity8 -->
<g id="edge15" class="edge verb">
<title>Entity25&#45;&gt;Entity8</title>
<path fill="none" stroke="black" d="M2320.7,-2536.43C2287.44,-2434.14 2153.45,-1931.42 2125.99,-1806.75"/>
<polygon fill="black" stroke="black" points="2129.39,-1805.88 2123.87,-1796.83 2122.54,-1807.35 2129.39,-1805.88"/>
<text text-anchor="start" x="2187.35" y="-2175.39" font-family="Times New Roman,serif" font-size="14.00">advise</text>
</g>
<!-- Entity76 -->
<g id="node38" class="node entity">
<title>Entity76</title>
<ellipse fill="none" stroke="black" cx="2857.84" cy="-2850.1" rx="77.19" ry="18"/>
<text text-anchor="start" x="2806.34" y="-2846.4" font-family="Times New Roman,serif" font-size="14.00">hollywood movies</text>
</g>
<!-- Entity25&#45;&gt;Entity76 -->
<g id="edge30" class="edge verb">
<title>Entity25&#45;&gt;Entity76</title>
<path fill="none" stroke="black" d="M2356.39,-2570.52C2445.2,-2620.04 2717.14,-2771.66 2818.88,-2828.38"/>
<polygon fill="black" stroke="black" points="2817.46,-2831.6 2827.9,-2833.41 2820.87,-2825.49 2817.46,-2831.6"/>
<text text-anchor="start" x="2540.63" y="-2703.25" font-family="Times New Roman,serif" font-size="14.00">produce</text>
</g>
<!-- Entity64 -->
<g id="node46" class="node entity">
<title>Entity64</title>
<ellipse fill="none" stroke="black" cx="2510.89" cy="-2899.73" rx="38.19" ry="18"/>
<text text-anchor="start" x="2489.39" y="-2896.03" font-family="Times New Roman,serif" font-size="14.00">us navy</text>
</g>
<!-- Entity25&#45;&gt;Entity64 -->
<g id="edge39" class="edge verb">
<title>Entity25&#45;&gt;Entity64</title>
<path fill="none" stroke="black" d="M2337.48,-2572.7C2367.69,-2629.67 2461.05,-2805.75 2496.78,-2873.13"/>
<polygon fill="black" stroke="black" points="2493.84,-2875.06 2501.62,-2882.25 2500.03,-2871.78 2493.84,-2875.06"/>
<text text-anchor="start" x="2371.13" y="-2726.71" font-family="Times New Roman,serif" font-size="14.00">member</text>
</g>
<!-- Entity77 -->
<g id="node49" class="node entity">
<title>Entity77</title>
<ellipse fill="none" stroke="black" cx="2666.84" cy="-3018.67" rx="64.99" ry="18"/>
<text text-anchor="start" x="2624.84" y="-3014.97" font-family="Times New Roman,serif" font-size="14.00">goldman sachs</text>
</g>
<!-- Entity25&#45;&gt;Entity77 -->
<g id="edge44" class="edge verb">
<title>Entity25&#45;&gt;Entity77</title>
<path fill="none" stroke="black" d="M2340.77,-2572.26C2392.56,-2643.17 2585.91,-2907.88 2647.72,-2992.49"/>
<polygon fill="black" stroke="black" points="2645.05,-2994.77 2653.77,-3000.78 2650.7,-2990.64 2645.05,-2994.77"/>
<text text-anchor="start" x="2440.24" y="-2786.17" font-family="Times New Roman,serif" font-size="14.00">employee</text>
</g>
<!-- Entity63 -->
<g id="node51" class="node entity">
<title>Entity63</title>
<ellipse fill="none" stroke="black" cx="2025.24" cy="-2978.58" rx="53.09" ry="18"/>
<text text-anchor="start" x="1992.24" y="-2974.88" font-family="Times New Roman,serif" font-size="14.00">biosphere 2</text>
</g>
<!-- Entity25&#45;&gt;Entity63 -->
<g id="edge50" class="edge verb">
<title>Entity25&#45;&gt;Entity63</title>
<path fill="none" stroke="black" d="M2315.28,-2572.31C2267.88,-2638.71 2100.32,-2873.41 2043.92,-2952.41"/>
<polygon fill="black" stroke="black" points="2040.87,-2950.66 2037.91,-2960.83 2046.57,-2954.72 2040.87,-2950.66"/>
<text text-anchor="start" x="2145.6" y="-2766.16" font-family="Times New Roman,serif" font-size="14.00">create</text>
</g>
<!-- Entity65 -->
<g id="node53" class="node entity">
<title>Entity65</title>
<ellipse fill="none" stroke="black" cx="2429.83" cy="-3184.75" rx="61.99" ry="18"/>
<text text-anchor="start" x="2390.33" y="-3181.05" font-family="Times New Roman,serif" font-size="14.00">breitbart news</text>
</g>
<!-- Entity25&#45;&gt;Entity65 -->
<g id="edge55" class="edge verb">
<title>Entity25&#45;&gt;Entity65</title>
<path fill="none" stroke="black" d="M2330.84,-2572.82C2345.16,-2661.38 2407.68,-3047.82 2425.23,-3156.33"/>
<polygon fill="black" stroke="black" points="2421.82,-3157.19 2426.88,-3166.5 2428.74,-3156.07 2421.82,-3157.19"/>
<text text-anchor="start" x="2344.03" y="-2868.37" font-family="Times New Roman,serif" font-size="14.00">create</text>
</g>
<!-- Entity61 -->
<g id="node58" class="node entity">
<title>Entity61</title>
<ellipse fill="none" stroke="black" cx="2290.5" cy="-3007.22" rx="35.19" ry="18"/>
<text text-anchor="start" x="2271.5" y="-3003.52" font-family="Times New Roman,serif" font-size="14.00">gurgev</text>
</g>
<!-- Entity25&#45;&gt;Entity61 -->
<g id="edge64" class="edge verb">
<title>Entity25&#45;&gt;Entity61</title>
<path fill="none" stroke="black" d="M2326.41,-2572.66C2320.65,-2642.27 2299.86,-2893.97 2292.83,-2978.96"/>
<polygon fill="black" stroke="black" points="2289.33,-2978.89 2291.99,-2989.15 2296.3,-2979.47 2289.33,-2978.89"/>
<text text-anchor="start" x="2278.62" y="-2779.61" font-family="Times New Roman,serif" font-size="14.00">study</text>
</g>
<!-- Entity8&#45;&gt;Entity30 -->
<g id="edge13" class="edge verb">
<title>Entity8&#45;&gt;Entity30</title>
<path fill="none" stroke="black" d="M2099.02,-1761.83C2019.74,-1701.73 1751.54,-1498.41 1661.52,-1430.16"/>
<polygon fill="black" stroke="black" points="1663.46,-1427.24 1653.37,-1423.99 1659.23,-1432.82 1663.46,-1427.24"/>
<text text-anchor="start" x="1837.27" y="-1599.8" font-family="Times New Roman,serif" font-size="14.00">nephew</text>
</g>
<!-- Entity8&#45;&gt;Entity53 -->
<g id="edge25" class="edge verb">
<title>Entity8&#45;&gt;Entity53</title>
<path fill="none" stroke="black" d="M2122.05,-1760.71C2125.72,-1669.33 2142.26,-1257.47 2146.76,-1145.47"/>
<polygon fill="black" stroke="black" points="2150.26,-1145.43 2147.16,-1135.3 2143.27,-1145.15 2150.26,-1145.43"/>
<text text-anchor="start" x="2124.41" y="-1456.89" font-family="Times New Roman,serif" font-size="14.00">is</text>
</g>
<!-- Entity34 -->
<g id="node20" class="node entity">
<title>Entity34</title>
<ellipse fill="none" stroke="black" cx="966.38" cy="-1941.99" rx="90.98" ry="18"/>
<text text-anchor="start" x="904.38" y="-1938.29" font-family="Times New Roman,serif" font-size="14.00">emma hardinge&#45;britten</text>
</g>
<!-- Entity38 -->
<g id="node21" class="node entity">
<title>Entity38</title>
<ellipse fill="none" stroke="black" cx="1664.75" cy="-1515.63" rx="67.69" ry="18"/>
<text text-anchor="start" x="1620.75" y="-1511.93" font-family="Times New Roman,serif" font-size="14.00">abraham lincoln</text>
</g>
<!-- Entity34&#45;&gt;Entity38 -->
<g id="edge14" class="edge verb">
<title>Entity34&#45;&gt;Entity38</title>
<path fill="none" stroke="black" d="M994.62,-1924.75C1104.9,-1857.42 1506.49,-1612.25 1629.01,-1537.45"/>
<polygon fill="black" stroke="black" points="1630.97,-1540.36 1637.68,-1532.16 1627.32,-1534.38 1630.97,-1540.36"/>
<text text-anchor="start" x="1232.81" y="-1734.9" font-family="Times New Roman,serif" font-size="14.00">spokesperson</text>
</g>
<!-- Entity59 -->
<g id="node37" class="node entity">
<title>Entity59</title>
<ellipse fill="none" stroke="black" cx="1546.65" cy="-2003.36" rx="85.29" ry="18"/>
<text text-anchor="start" x="1489.15" y="-1999.66" font-family="Times New Roman,serif" font-size="14.00">theosophical society</text>
</g>
<!-- Entity34&#45;&gt;Entity59 -->
<g id="edge41" class="edge verb">
<title>Entity34&#45;&gt;Entity59</title>
<path fill="none" stroke="black" d="M1046.76,-1950.49C1155.38,-1961.98 1348.28,-1982.38 1460.03,-1994.2"/>
<polygon fill="black" stroke="black" points="1459.94,-1997.71 1470.26,-1995.28 1460.68,-1990.75 1459.94,-1997.71"/>
<text text-anchor="start" x="1219.39" y="-1976.15" font-family="Times New Roman,serif" font-size="14.00">create</text>
</g>
<!-- Entity68 -->
<g id="node50" class="node entity">
<title>Entity68</title>
<ellipse fill="none" stroke="black" cx="541.39" cy="-2354.5" rx="39.79" ry="18"/>
<text text-anchor="start" x="518.89" y="-2350.8" font-family="Times New Roman,serif" font-size="14.00">medium</text>
</g>
<!-- Entity34&#45;&gt;Entity68 -->
<g id="edge45" class="edge verb">
<title>Entity34&#45;&gt;Entity68</title>
<path fill="none" stroke="black" d="M948.11,-1959.72C880.38,-2025.47 643.42,-2255.47 566.04,-2330.58"/>
<polygon fill="black" stroke="black" points="563.39,-2328.28 558.65,-2337.75 568.26,-2333.3 563.39,-2328.28"/>
<text text-anchor="start" x="747.08" y="-2148.95" font-family="Times New Roman,serif" font-size="14.00">is</text>
</g>
<!-- Entity69 -->
<g id="node60" class="node entity">
<title>Entity69</title>
<ellipse fill="none" stroke="black" cx="360.53" cy="-2171.85" rx="55.79" ry="18"/>
<text text-anchor="start" x="325.53" y="-2168.15" font-family="Times New Roman,serif" font-size="14.00">orphic circle</text>
</g>
<!-- Entity34&#45;&gt;Entity69 -->
<g id="edge66" class="edge verb">
<title>Entity34&#45;&gt;Entity69</title>
<path fill="none" stroke="black" d="M924.25,-1957.97C814.48,-1999.62 520.26,-2111.25 406.4,-2154.44"/>
<polygon fill="black" stroke="black" points="405.02,-2151.22 396.91,-2158.04 407.5,-2157.77 405.02,-2151.22"/>
<text text-anchor="start" x="619.33" y="-2060.01" font-family="Times New Roman,serif" font-size="14.00">member</text>
</g>
<!-- Entity38&#45;&gt;Entity53 -->
<g id="edge51" class="edge verb">
<title>Entity38&#45;&gt;Entity53</title>
<path fill="none" stroke="black" d="M1685.82,-1498.26C1763.86,-1433.91 2036.36,-1209.24 2121.95,-1138.67"/>
<polygon fill="black" stroke="black" points="2124.38,-1141.2 2129.87,-1132.14 2119.93,-1135.8 2124.38,-1141.2"/>
<text text-anchor="start" x="1893.89" y="-1322.26" font-family="Times New Roman,serif" font-size="14.00">is</text>
</g>
<!-- Entity40 -->
<g id="node22" class="node entity">
<title>Entity40</title>
<ellipse fill="none" stroke="black" cx="3014.44" cy="-240.88" rx="57.69" ry="18"/>
<text text-anchor="start" x="2977.94" y="-237.18" font-family="Times New Roman,serif" font-size="14.00">michael pane</text>
</g>
<!-- Entity37 -->
<g id="node23" class="node entity">
<title>Entity37</title>
<ellipse fill="none" stroke="black" cx="3425.97" cy="-535.31" rx="74.99" ry="18"/>
<text text-anchor="start" x="3376.47" y="-531.61" font-family="Times New Roman,serif" font-size="14.00">walter dornberger</text>
</g>
<!-- Entity40&#45;&gt;Entity37 -->
<g id="edge16" class="edge verb">
<title>Entity40&#45;&gt;Entity37</title>
<path fill="none" stroke="black" d="M3037.74,-257.56C3107.3,-307.32 3313.56,-454.88 3393.66,-512.19"/>
<polygon fill="black" stroke="black" points="3391.73,-515.11 3401.9,-518.09 3395.8,-509.42 3391.73,-515.11"/>
<text text-anchor="start" x="3161.7" y="-388.67" font-family="Times New Roman,serif" font-size="14.00">employee</text>
</g>
<!-- Entity40&#45;&gt;Entity56 -->
<g id="edge62" class="edge verb">
<title>Entity40&#45;&gt;Entity56</title>
<path fill="none" stroke="black" d="M2999.13,-258.35C2950.68,-313.62 2800.55,-484.89 2743.95,-549.46"/>
<polygon fill="black" stroke="black" points="2741.18,-547.31 2737.22,-557.14 2746.45,-551.92 2741.18,-547.31"/>
<text text-anchor="start" x="2817.54" y="-407.7" font-family="Times New Roman,serif" font-size="14.00">employee</text>
</g>
<!-- Entity51 -->
<g id="node24" class="node entity">
<title>Entity51</title>
<ellipse fill="none" stroke="black" cx="4069.04" cy="-588.56" rx="32.49" ry="18"/>
<text text-anchor="start" x="4052.04" y="-584.86" font-family="Times New Roman,serif" font-size="14.00">nsdap</text>
</g>
<!-- Entity37&#45;&gt;Entity51 -->
<g id="edge17" class="edge verb">
<title>Entity37&#45;&gt;Entity51</title>
<path fill="none" stroke="black" d="M3496.94,-541.19C3631.13,-552.3 3918.3,-576.08 4026.56,-585.04"/>
<polygon fill="black" stroke="black" points="4026.52,-588.55 4036.77,-585.89 4027.09,-581.57 4026.52,-588.55"/>
<text text-anchor="start" x="3715.75" y="-566.91" font-family="Times New Roman,serif" font-size="14.00">member</text>
</g>
<!-- Entity37&#45;&gt;Entity56 -->
<g id="edge32" class="edge verb">
<title>Entity37&#45;&gt;Entity56</title>
<path fill="none" stroke="black" d="M3351.07,-535.11C3210.84,-539.59 2911.31,-556.35 2782.74,-567.05"/>
<polygon fill="black" stroke="black" points="2782.35,-563.57 2772.68,-567.9 2782.94,-570.54 2782.35,-563.57"/>
<text text-anchor="start" x="3012.9" y="-554.88" font-family="Times New Roman,serif" font-size="14.00">employee</text>
</g>
<!-- Entity37&#45;&gt;Entity56 -->
<g id="edge42" class="edge verb">
<title>Entity37&#45;&gt;Entity56</title>
<path fill="none" stroke="black" d="M3358.71,-543.23C3223.24,-554.22 2919.18,-571.09 2786.29,-574.95"/>
<polygon fill="black" stroke="black" points="2786.15,-571.45 2776.25,-575.23 2786.35,-578.45 2786.15,-571.45"/>
<text text-anchor="start" x="3072.5" y="-562.89" font-family="Times New Roman,serif" font-size="14.00">vice&#45;president</text>
</g>
<!-- Entity72 -->
<g id="node48" class="node entity">
<title>Entity72</title>
<ellipse fill="none" stroke="black" cx="3923.19" cy="-480.59" rx="90.98" ry="18"/>
<text text-anchor="start" x="3861.19" y="-476.89" font-family="Times New Roman,serif" font-size="14.00">nsdap rocket program</text>
</g>
<!-- Entity37&#45;&gt;Entity72 -->
<g id="edge43" class="edge verb">
<title>Entity37&#45;&gt;Entity72</title>
<path fill="none" stroke="black" d="M3494.06,-527.82C3582.17,-518.12 3735.92,-501.2 3833.47,-490.47"/>
<polygon fill="black" stroke="black" points="3834.05,-493.92 3843.61,-489.35 3833.29,-486.97 3834.05,-493.92"/>
<text text-anchor="start" x="3629.77" y="-512.94" font-family="Times New Roman,serif" font-size="14.00">create</text>
</g>
<!-- Entity73 -->
<g id="node61" class="node entity">
<title>Entity73</title>
<ellipse fill="none" stroke="black" cx="3775.21" cy="-18.21" rx="65.79" ry="18"/>
<text text-anchor="start" x="3732.71" y="-14.51" font-family="Times New Roman,serif" font-size="14.00">x series aircraft</text>
</g>
<!-- Entity37&#45;&gt;Entity73 -->
<g id="edge67" class="edge verb">
<title>Entity37&#45;&gt;Entity73</title>
<path fill="none" stroke="black" d="M3437.99,-517.51C3489.99,-440.51 3695.74,-135.89 3757.55,-44.36"/>
<polygon fill="black" stroke="black" points="3760.54,-46.18 3763.24,-35.94 3754.74,-42.27 3760.54,-46.18"/>
<text text-anchor="start" x="3563.77" y="-284.73" font-family="Times New Roman,serif" font-size="14.00">create</text>
</g>
<!-- Entity74 -->
<g id="node41" class="node entity">
<title>Entity74</title>
<ellipse fill="none" stroke="black" cx="4362.48" cy="-828" rx="38.99" ry="18"/>
<text text-anchor="start" x="4340.48" y="-824.3" font-family="Times New Roman,serif" font-size="14.00">far right</text>
</g>
<!-- Entity51&#45;&gt;Entity74 -->
<g id="edge47" class="edge verb">
<title>Entity51&#45;&gt;Entity74</title>
<path fill="none" stroke="black" d="M4087.39,-603.54C4137.37,-644.31 4276.04,-757.47 4335.19,-805.73"/>
<polygon fill="black" stroke="black" points="4333.03,-808.48 4342.99,-812.09 4337.45,-803.06 4333.03,-808.48"/>
<text text-anchor="start" x="4165.29" y="-708.43" font-family="Times New Roman,serif" font-size="14.00">member</text>
</g>
<!-- Entity46 -->
<g id="node25" class="node entity">
<title>Entity46</title>
<ellipse fill="none" stroke="black" cx="3832.89" cy="-588.57" rx="46.29" ry="18"/>
<text text-anchor="start" x="3805.39" y="-584.87" font-family="Times New Roman,serif" font-size="14.00">van braun</text>
</g>
<!-- Entity46&#45;&gt;Entity37 -->
<g id="edge18" class="edge verb">
<title>Entity46&#45;&gt;Entity37</title>
<path fill="none" stroke="black" d="M3788.96,-582.82C3720.24,-573.83 3586.44,-556.31 3501.89,-545.25"/>
<polygon fill="black" stroke="black" points="3502.2,-541.76 3491.83,-543.93 3501.29,-548.7 3502.2,-541.76"/>
<text text-anchor="start" x="3591.42" y="-567.83" font-family="Times New Roman,serif" font-size="14.00">employee</text>
</g>
<!-- Entity46&#45;&gt;Entity72 -->
<g id="edge46" class="edge verb">
<title>Entity46&#45;&gt;Entity72</title>
<path fill="none" stroke="black" d="M3847.4,-571.22C3862.04,-553.72 3884.8,-526.5 3901.57,-506.45"/>
<polygon fill="black" stroke="black" points="3904.39,-508.54 3908.12,-498.62 3899.02,-504.05 3904.39,-508.54"/>
<text text-anchor="start" x="3820.48" y="-542.64" font-family="Times New Roman,serif" font-size="14.00">employee</text>
</g>
<!-- Entity49 -->
<g id="node26" class="node entity">
<title>Entity49</title>
<ellipse fill="none" stroke="black" cx="4472.41" cy="-421.27" rx="49.29" ry="18"/>
<text text-anchor="start" x="4442.41" y="-417.57" font-family="Times New Roman,serif" font-size="14.00">adolf hitler</text>
</g>
<!-- Entity49&#45;&gt;Entity51 -->
<g id="edge19" class="edge verb">
<title>Entity49&#45;&gt;Entity51</title>
<path fill="none" stroke="black" d="M4439.74,-434.82C4365.01,-465.82 4182.08,-541.68 4104.62,-573.8"/>
<polygon fill="black" stroke="black" points="4103.17,-570.61 4095.27,-577.68 4105.85,-577.08 4103.17,-570.61"/>
<text text-anchor="start" x="4238.18" y="-508.11" font-family="Times New Roman,serif" font-size="14.00">create</text>
</g>
<!-- Entity50 -->
<g id="node27" class="node entity">
<title>Entity50</title>
<ellipse fill="none" stroke="black" cx="3087.98" cy="-617.34" rx="37.89" ry="18"/>
<text text-anchor="start" x="3066.98" y="-613.64" font-family="Times New Roman,serif" font-size="14.00">hunt oil</text>
</g>
<!-- Entity48 -->
<g id="node28" class="node entity">
<title>Entity48</title>
<ellipse fill="none" stroke="black" cx="2666.52" cy="-920.21" rx="77.99" ry="18"/>
<text text-anchor="start" x="2614.52" y="-916.51" font-family="Times New Roman,serif" font-size="14.00">dwight eisenhower</text>
</g>
<!-- Entity50&#45;&gt;Entity48 -->
<g id="edge20" class="edge verb">
<title>Entity50&#45;&gt;Entity48</title>
<path fill="none" stroke="black" d="M3067.08,-632.36C2998.66,-681.53 2781.06,-837.9 2698.6,-897.15"/>
<polygon fill="black" stroke="black" points="2696.45,-894.39 2690.37,-903.07 2700.53,-900.07 2696.45,-894.39"/>
<text text-anchor="start" x="2856.84" y="-768.55" font-family="Times New Roman,serif" font-size="14.00">fund</text>
</g>
<!-- Entity48&#45;&gt;Entity53 -->
<g id="edge52" class="edge verb">
<title>Entity48&#45;&gt;Entity53</title>
<path fill="none" stroke="black" d="M2625.82,-935.67C2527.21,-973.14 2276.76,-1068.31 2183.55,-1103.73"/>
<polygon fill="black" stroke="black" points="2182.11,-1100.53 2174.01,-1107.36 2184.6,-1107.08 2182.11,-1100.53"/>
<text text-anchor="start" x="2394.69" y="-1023.5" font-family="Times New Roman,serif" font-size="14.00">is</text>
</g>
<!-- Entity45&#45;&gt;Entity74 -->
<g id="edge33" class="edge verb">
<title>Entity45&#45;&gt;Entity74</title>
<path fill="none" stroke="black" d="M4069.69,-1130.65C4122.01,-1076.56 4279.98,-913.28 4339.48,-851.78"/>
<polygon fill="black" stroke="black" points="4342.12,-854.08 4346.56,-844.46 4337.09,-849.22 4342.12,-854.08"/>
<text text-anchor="start" x="4158.58" y="-995.01" font-family="Times New Roman,serif" font-size="14.00">member</text>
</g>
<!-- Entity13 -->
<g id="node32" class="node entity">
<title>Entity13</title>
<ellipse fill="none" stroke="black" cx="2262.57" cy="-1503.83" rx="58.49" ry="18"/>
<text text-anchor="start" x="2225.57" y="-1500.13" font-family="Times New Roman,serif" font-size="14.00">richard nixon</text>
</g>
<!-- Entity13&#45;&gt;Entity53 -->
<g id="edge24" class="edge verb">
<title>Entity13&#45;&gt;Entity53</title>
<path fill="none" stroke="black" d="M2257.19,-1485.7C2238.79,-1423.69 2178.28,-1219.73 2156.12,-1145.02"/>
<polygon fill="black" stroke="black" points="2159.45,-1143.96 2153.25,-1135.37 2152.74,-1145.95 2159.45,-1143.96"/>
<text text-anchor="start" x="2196.65" y="-1319.16" font-family="Times New Roman,serif" font-size="14.00">is</text>
</g>
<!-- Entity10 -->
<g id="node33" class="node entity">
<title>Entity10</title>
<ellipse fill="none" stroke="black" cx="2553.7" cy="-1395.85" rx="56.59" ry="18"/>
<text text-anchor="start" x="2518.2" y="-1392.15" font-family="Times New Roman,serif" font-size="14.00">harry truman</text>
</g>
<!-- Entity10&#45;&gt;Entity53 -->
<g id="edge26" class="edge verb">
<title>Entity10&#45;&gt;Entity53</title>
<path fill="none" stroke="black" d="M2529.83,-1379.47C2459.46,-1331.16 2253.02,-1189.45 2176.69,-1137.05"/>
<polygon fill="black" stroke="black" points="2178.27,-1133.89 2168.04,-1131.12 2174.31,-1139.66 2178.27,-1133.89"/>
<text text-anchor="start" x="2343.26" y="-1262.06" font-family="Times New Roman,serif" font-size="14.00">is</text>
</g>
<!-- Entity57 -->
<g id="node42" class="node entity">
<title>Entity57</title>
<ellipse fill="none" stroke="black" cx="2975.82" cy="-1696.51" rx="55.79" ry="18"/>
<text text-anchor="start" x="2940.82" y="-1692.81" font-family="Times New Roman,serif" font-size="14.00">freemasonry</text>
</g>
<!-- Entity10&#45;&gt;Entity57 -->
<g id="edge34" class="edge verb">
<title>Entity10&#45;&gt;Entity57</title>
<path fill="none" stroke="black" d="M2576.99,-1412.44C2648.2,-1463.16 2863.05,-1616.19 2944.26,-1674.03"/>
<polygon fill="black" stroke="black" points="2942.42,-1677.02 2952.59,-1679.97 2946.48,-1671.32 2942.42,-1677.02"/>
<text text-anchor="start" x="2714.63" y="-1547.04" font-family="Times New Roman,serif" font-size="14.00">member</text>
</g>
<!-- Entity22 -->
<g id="node35" class="node entity">
<title>Entity22</title>
<ellipse fill="none" stroke="black" cx="1324.24" cy="-2266.92" rx="58.49" ry="18"/>
<text text-anchor="start" x="1287.24" y="-2263.22" font-family="Times New Roman,serif" font-size="14.00">rudolf steiner</text>
</g>
<!-- Entity60 -->
<g id="node36" class="node entity">
<title>Entity60</title>
<ellipse fill="none" stroke="black" cx="1255.93" cy="-2374.84" rx="102.08" ry="18"/>
<text text-anchor="start" x="1185.43" y="-2371.14" font-family="Times New Roman,serif" font-size="14.00">anthroposophical society</text>
</g>
<!-- Entity22&#45;&gt;Entity60 -->
<g id="edge28" class="edge verb">
<title>Entity22&#45;&gt;Entity60</title>
<path fill="none" stroke="black" d="M1312.96,-2284.74C1302.05,-2301.98 1285.38,-2328.32 1272.87,-2348.07"/>
<polygon fill="black" stroke="black" points="1269.85,-2346.31 1267.46,-2356.63 1275.76,-2350.05 1269.85,-2346.31"/>
<text text-anchor="start" x="1258.92" y="-2320.21" font-family="Times New Roman,serif" font-size="14.00">create</text>
</g>
<!-- Entity22&#45;&gt;Entity59 -->
<g id="edge29" class="edge verb">
<title>Entity22&#45;&gt;Entity59</title>
<path fill="none" stroke="black" d="M1339.18,-2249.22C1377.55,-2203.75 1479.69,-2082.71 1524.76,-2029.3"/>
<polygon fill="black" stroke="black" points="1527.71,-2031.23 1531.49,-2021.33 1522.36,-2026.72 1527.71,-2031.23"/>
<text text-anchor="start" x="1385.97" y="-2143.06" font-family="Times New Roman,serif" font-size="14.00">member</text>
</g>
<!-- Entity44 -->
<g id="node39" class="node entity">
<title>Entity44</title>
<ellipse fill="none" stroke="black" cx="2900.94" cy="-2426.66" rx="53.89" ry="18"/>
<text text-anchor="start" x="2867.44" y="-2422.96" font-family="Times New Roman,serif" font-size="14.00">black magic</text>
</g>
<!-- Entity71 -->
<g id="node40" class="node entity">
<title>Entity71</title>
<ellipse fill="none" stroke="black" cx="2988.66" cy="-2538.64" rx="28.7" ry="18"/>
<text text-anchor="start" x="2974.66" y="-2534.94" font-family="Times New Roman,serif" font-size="14.00">x left</text>
</g>
<!-- Entity44&#45;&gt;Entity71 -->
<g id="edge31" class="edge verb">
<title>Entity44&#45;&gt;Entity71</title>
<path fill="none" stroke="black" d="M2914.64,-2444.16C2929.45,-2463.05 2953.14,-2493.29 2969.72,-2514.45"/>
<polygon fill="black" stroke="black" points="2966.98,-2516.64 2975.9,-2522.36 2972.49,-2512.32 2966.98,-2516.64"/>
<text text-anchor="start" x="2896.18" y="-2483.11" font-family="Times New Roman,serif" font-size="14.00">member</text>
</g>
<!-- Entity14 -->
<g id="node44" class="node entity">
<title>Entity14</title>
<ellipse fill="none" stroke="black" cx="1905.8" cy="-747.08" rx="31.4" ry="18"/>
<text text-anchor="start" x="1889.8" y="-743.38" font-family="Times New Roman,serif" font-size="14.00">carter</text>
</g>
<!-- Entity14&#45;&gt;Entity53 -->
<g id="edge36" class="edge verb">
<title>Entity14&#45;&gt;Entity53</title>
<path fill="none" stroke="black" d="M1916.83,-763.95C1955.42,-822.97 2084.58,-1020.47 2131.05,-1091.53"/>
<polygon fill="black" stroke="black" points="2128.39,-1093.86 2136.79,-1100.31 2134.25,-1090.03 2128.39,-1093.86"/>
<text text-anchor="start" x="2013.94" y="-931.54" font-family="Times New Roman,serif" font-size="14.00">is</text>
</g>
<!-- Entity14&#45;&gt;Entity54 -->
<g id="edge63" class="edge verb">
<title>Entity14&#45;&gt;Entity54</title>
<path fill="none" stroke="black" d="M1876.57,-740.55C1812.84,-726.31 1661.52,-692.49 1592.01,-676.96"/>
<polygon fill="black" stroke="black" points="1592.49,-673.48 1581.97,-674.72 1590.97,-680.31 1592.49,-673.48"/>
<text text-anchor="start" x="1692.29" y="-712.56" font-family="Times New Roman,serif" font-size="14.00">witness</text>
</g>
<!-- Entity21 -->
<g id="node45" class="node entity">
<title>Entity21</title>
<ellipse fill="none" stroke="black" cx="2105.19" cy="-650.83" rx="35.19" ry="18"/>
<text text-anchor="start" x="2086.19" y="-647.13" font-family="Times New Roman,serif" font-size="14.00">obama</text>
</g>
<!-- Entity21&#45;&gt;Entity53 -->
<g id="edge37" class="edge verb">
<title>Entity21&#45;&gt;Entity53</title>
<path fill="none" stroke="black" d="M2106.84,-668.83C2113.35,-739.95 2137.32,-1001.8 2145.29,-1088.9"/>
<polygon fill="black" stroke="black" points="2141.83,-1089.45 2146.22,-1099.08 2148.8,-1088.81 2141.83,-1089.45"/>
<text text-anchor="start" x="2116.06" y="-882.66" font-family="Times New Roman,serif" font-size="14.00">is</text>
</g>
<!-- Entity35 -->
<g id="node54" class="node entity">
<title>Entity35</title>
<ellipse fill="none" stroke="black" cx="3105.94" cy="-1988.66" rx="39.79" ry="18"/>
<text text-anchor="start" x="3083.44" y="-1984.96" font-family="Times New Roman,serif" font-size="14.00">crowley</text>
</g>
<!-- Entity70 -->
<g id="node55" class="node entity">
<title>Entity70</title>
<ellipse fill="none" stroke="black" cx="3193.66" cy="-2100.64" rx="38.99" ry="18"/>
<text text-anchor="start" x="3171.66" y="-2096.94" font-family="Times New Roman,serif" font-size="14.00">x magic</text>
</g>
<!-- Entity35&#45;&gt;Entity70 -->
<g id="edge56" class="edge verb">
<title>Entity35&#45;&gt;Entity70</title>
<path fill="none" stroke="black" d="M3119.26,-2005.67C3133.82,-2024.25 3157.28,-2054.2 3173.96,-2075.49"/>
<polygon fill="black" stroke="black" points="3171.29,-2077.76 3180.21,-2083.47 3176.8,-2073.44 3171.29,-2077.76"/>
<text text-anchor="start" x="3100.61" y="-2044.38" font-family="Times New Roman,serif" font-size="14.00">member</text>
</g>
<!-- Entity24 -->
<g id="node56" class="node entity">
<title>Entity24</title>
<ellipse fill="none" stroke="black" cx="1572.74" cy="-2111.26" rx="73.39" ry="18"/>
<text text-anchor="start" x="1524.24" y="-2107.56" font-family="Times New Roman,serif" font-size="14.00">madam blavatsky</text>
</g>
<!-- Entity24&#45;&gt;Entity59 -->
<g id="edge60" class="edge verb">
<title>Entity24&#45;&gt;Entity59</title>
<path fill="none" stroke="black" d="M1568.32,-2092.95C1564.22,-2076.03 1558.09,-2050.64 1553.39,-2031.21"/>
<polygon fill="black" stroke="black" points="1556.77,-2030.29 1551.01,-2021.39 1549.96,-2031.93 1556.77,-2030.29"/>
<text text-anchor="start" x="1526.85" y="-2065.88" font-family="Times New Roman,serif" font-size="14.00">create</text>
</g>
<!-- Entity31 -->
<g id="node57" class="node entity">
<title>Entity31</title>
<ellipse fill="none" stroke="black" cx="2539.31" cy="-3763.02" rx="69.59" ry="18"/>
<text text-anchor="start" x="2493.81" y="-3759.32" font-family="Times New Roman,serif" font-size="14.00">andrew breitbart</text>
</g>
<!-- Entity31&#45;&gt;Entity65 -->
<g id="edge61" class="edge verb">
<title>Entity31&#45;&gt;Entity65</title>
<path fill="none" stroke="black" d="M2535.85,-3744.76C2520.02,-3661.12 2454.38,-3314.41 2435.15,-3212.83"/>
<polygon fill="black" stroke="black" points="2438.53,-3211.9 2433.23,-3202.73 2431.65,-3213.21 2438.53,-3211.9"/>
<text text-anchor="start" x="2451.5" y="-3482.59" font-family="Times New Roman,serif" font-size="14.00">create</text>
</g>
</g>
</svg>
