<?xml version="1.0" encoding="UTF-8" standalone="no"?>
<?xml-stylesheet href="../styles.css" type="text/css"?>
<!DOCTYPE svg PUBLIC "-//W3C//DTD SVG 1.1//EN"
 "http://www.w3.org/Graphics/SVG/1.1/DTD/svg11.dtd">
<!-- Generated by graphviz version 2.47.3 (20210619.1520)
 -->
<!-- Title: G Pages: 1 -->
<svg width="5166pt" height="2828pt"
 viewBox="0.00 0.00 5166.00 2828.00" xmlns="http://www.w3.org/2000/svg" xmlns:xlink="http://www.w3.org/1999/xlink">
<g id="graph0" class="graph" transform="scale(1 1) rotate(0) translate(4 2824)">
<title>G</title>
<polygon fill="white" stroke="transparent" points="-4,4 -4,-2824 5162,-2824 5162,4 -4,4"/>
<!-- Entity2 -->
<g id="node1" class="node entity">
<title>Entity2</title>
<ellipse fill="none" stroke="black" cx="1648.09" cy="-869.58" rx="36.29" ry="18"/>
<text text-anchor="start" x="1628.09" y="-865.88" font-family="Times New Roman,serif" font-size="14.00">oswald</text>
</g>
<!-- Entity14 -->
<g id="node2" class="node entity">
<title>Entity14</title>
<ellipse fill="none" stroke="black" cx="1339.27" cy="-1234.36" rx="27" ry="18"/>
<text text-anchor="start" x="1331.77" y="-1230.66" font-family="Times New Roman,serif" font-size="14.00">jfk</text>
</g>
<!-- Entity2&#45;&gt;Entity14 -->
<g id="edge1" class="edge verb">
<title>Entity2&#45;&gt;Entity14</title>
<path fill="none" stroke="black" d="M1634.02,-886.2C1584.36,-944.86 1417.16,-1142.35 1359.23,-1210.78"/>
<polygon fill="black" stroke="black" points="1356.51,-1208.58 1352.72,-1218.47 1361.85,-1213.1 1356.51,-1208.58"/>
<text text-anchor="start" x="1434.62" y="-1052.29" font-family="Times New Roman,serif" font-size="14.00">assassinate</text>
</g>
<!-- Entity49 -->
<g id="node42" class="node entity">
<title>Entity49</title>
<ellipse fill="none" stroke="black" cx="2132.67" cy="-532.92" rx="59.29" ry="18"/>
<text text-anchor="start" x="2095.17" y="-529.22" font-family="Times New Roman,serif" font-size="14.00">guy bannister</text>
</g>
<!-- Entity2&#45;&gt;Entity49 -->
<g id="edge31" class="edge verb">
<title>Entity2&#45;&gt;Entity49</title>
<path fill="none" stroke="black" d="M1669.23,-854.89C1745.73,-801.74 2008.52,-619.17 2100.54,-555.24"/>
<polygon fill="black" stroke="black" points="2102.68,-558.01 2108.9,-549.43 2098.69,-552.26 2102.68,-558.01"/>
<text text-anchor="start" x="1830.88" y="-708.87" font-family="Times New Roman,serif" font-size="14.00">employee</text>
</g>
<!-- Entity57 -->
<g id="node15" class="node entity">
<title>Entity57</title>
<ellipse fill="none" stroke="black" cx="1134.79" cy="-1659.17" rx="31.4" ry="18"/>
<text text-anchor="start" x="1118.79" y="-1655.47" font-family="Times New Roman,serif" font-size="14.00">potus</text>
</g>
<!-- Entity14&#45;&gt;Entity57 -->
<g id="edge8" class="edge verb">
<title>Entity14&#45;&gt;Entity57</title>
<path fill="none" stroke="black" d="M1331,-1251.54C1299.4,-1317.19 1186.13,-1552.5 1147.67,-1632.41"/>
<polygon fill="black" stroke="black" points="1144.34,-1631.25 1143.16,-1641.78 1150.65,-1634.29 1144.34,-1631.25"/>
<text text-anchor="start" x="1229.33" y="-1445.77" font-family="Times New Roman,serif" font-size="14.00">is</text>
</g>
<!-- Entity5 -->
<g id="node3" class="node entity">
<title>Entity5</title>
<ellipse fill="none" stroke="black" cx="4680.78" cy="-2801.57" rx="74.99" ry="18"/>
<text text-anchor="start" x="4631.28" y="-2797.87" font-family="Times New Roman,serif" font-size="14.00">gene roddenberry</text>
</g>
<!-- Entity8 -->
<g id="node4" class="node entity">
<title>Entity8</title>
<ellipse fill="none" stroke="black" cx="4353.28" cy="-2394.93" rx="38.19" ry="18"/>
<text text-anchor="start" x="4331.78" y="-2391.23" font-family="Times New Roman,serif" font-size="14.00">the nine</text>
</g>
<!-- Entity5&#45;&gt;Entity8 -->
<g id="edge2" class="edge verb">
<title>Entity5&#45;&gt;Entity8</title>
<path fill="none" stroke="black" d="M4666.5,-2783.83C4614.34,-2719.07 4434.03,-2495.2 4373.37,-2419.88"/>
<polygon fill="black" stroke="black" points="4375.91,-2417.45 4366.91,-2411.85 4370.46,-2421.84 4375.91,-2417.45"/>
<text text-anchor="start" x="4415.94" y="-2605.66" font-family="Times New Roman,serif" font-size="14.00">claiemd to channel</text>
</g>
<!-- Entity60 -->
<g id="node28" class="node entity">
<title>Entity60</title>
<ellipse fill="none" stroke="black" cx="4889.33" cy="-2653.95" rx="94.48" ry="18"/>
<text text-anchor="start" x="4824.83" y="-2650.25" font-family="Times New Roman,serif" font-size="14.00">egyptian gods in a ship</text>
</g>
<!-- Entity8&#45;&gt;Entity60 -->
<g id="edge16" class="edge verb">
<title>Entity8&#45;&gt;Entity60</title>
<path fill="none" stroke="black" d="M4380.23,-2407.96C4466.79,-2449.78 4738.3,-2580.97 4845.33,-2632.69"/>
<polygon fill="black" stroke="black" points="4844.03,-2635.95 4854.56,-2637.15 4847.08,-2629.64 4844.03,-2635.95"/>
<text text-anchor="start" x="4582.78" y="-2524.12" font-family="Times New Roman,serif" font-size="14.00">claim</text>
</g>
<!-- Entity10 -->
<g id="node5" class="node entity">
<title>Entity10</title>
<ellipse fill="none" stroke="black" cx="717.44" cy="-1764.51" rx="68.49" ry="18"/>
<text text-anchor="start" x="672.94" y="-1760.81" font-family="Times New Roman,serif" font-size="14.00">george hw bush</text>
</g>
<!-- Entity16 -->
<g id="node6" class="node entity">
<title>Entity16</title>
<ellipse fill="none" stroke="black" cx="1078.49" cy="-1407.12" rx="63.89" ry="18"/>
<text text-anchor="start" x="1037.49" y="-1403.42" font-family="Times New Roman,serif" font-size="14.00">george w bush</text>
</g>
<!-- Entity10&#45;&gt;Entity16 -->
<g id="edge3" class="edge verb">
<title>Entity10&#45;&gt;Entity16</title>
<path fill="none" stroke="black" d="M735.34,-1746.78C794.67,-1688.06 984.92,-1499.74 1053.52,-1431.83"/>
<polygon fill="black" stroke="black" points="1056.25,-1434.05 1060.9,-1424.53 1051.33,-1429.08 1056.25,-1434.05"/>
<text text-anchor="start" x="862.43" y="-1593.11" font-family="Times New Roman,serif" font-size="14.00">father</text>
</g>
<!-- Entity10&#45;&gt;Entity57 -->
<g id="edge62" class="edge verb">
<title>Entity10&#45;&gt;Entity57</title>
<path fill="none" stroke="black" d="M766.95,-1752.01C850.99,-1730.8 1019.81,-1688.19 1095.96,-1668.97"/>
<polygon fill="black" stroke="black" points="1097.23,-1672.26 1106.07,-1666.42 1095.51,-1665.48 1097.23,-1672.26"/>
<text text-anchor="start" x="921.45" y="-1714.29" font-family="Times New Roman,serif" font-size="14.00">is</text>
</g>
<!-- Entity16&#45;&gt;Entity57 -->
<g id="edge24" class="edge verb">
<title>Entity16&#45;&gt;Entity57</title>
<path fill="none" stroke="black" d="M1082.53,-1425.25C1092.25,-1468.76 1116.95,-1579.33 1128.57,-1631.34"/>
<polygon fill="black" stroke="black" points="1125.18,-1632.21 1130.77,-1641.21 1132.01,-1630.69 1125.18,-1632.21"/>
<text text-anchor="start" x="1095.55" y="-1532.09" font-family="Times New Roman,serif" font-size="14.00">is</text>
</g>
<!-- Entity25 -->
<g id="node7" class="node entity">
<title>Entity25</title>
<ellipse fill="none" stroke="black" cx="2532.74" cy="-2181.55" rx="58.49" ry="18"/>
<text text-anchor="start" x="2495.74" y="-2177.85" font-family="Times New Roman,serif" font-size="14.00">steve bannon</text>
</g>
<!-- Entity13 -->
<g id="node8" class="node entity">
<title>Entity13</title>
<ellipse fill="none" stroke="black" cx="1778.15" cy="-1905.33" rx="59.59" ry="18"/>
<text text-anchor="start" x="1740.15" y="-1901.63" font-family="Times New Roman,serif" font-size="14.00">donald trump</text>
</g>
<!-- Entity25&#45;&gt;Entity13 -->
<g id="edge4" class="edge verb">
<title>Entity25&#45;&gt;Entity13</title>
<path fill="none" stroke="black" d="M2500.37,-2166.52C2382.82,-2118.39 1977.82,-1969.91 1831.45,-1920.97"/>
<polygon fill="black" stroke="black" points="1832.37,-1917.59 1821.78,-1917.76 1830.17,-1924.23 1832.37,-1917.59"/>
<text text-anchor="start" x="2129.91" y="-2032.55" font-family="Times New Roman,serif" font-size="14.00">advise</text>
</g>
<!-- Entity25&#45;&gt;Entity13 -->
<g id="edge21" class="edge verb">
<title>Entity25&#45;&gt;Entity13</title>
<path fill="none" stroke="black" d="M2489.69,-2169.32C2356.55,-2125.45 1952.58,-1977.59 1820.46,-1924.4"/>
<polygon fill="black" stroke="black" points="1821.64,-1921.11 1811.06,-1920.59 1819.01,-1927.59 1821.64,-1921.11"/>
<text text-anchor="start" x="2155.07" y="-2050.66" font-family="Times New Roman,serif" font-size="14.00">promote</text>
</g>
<!-- Entity64 -->
<g id="node18" class="node entity">
<title>Entity64</title>
<ellipse fill="none" stroke="black" cx="2845.67" cy="-2506.43" rx="35.19" ry="18"/>
<text text-anchor="start" x="2826.67" y="-2502.73" font-family="Times New Roman,serif" font-size="14.00">gurgev</text>
</g>
<!-- Entity25&#45;&gt;Entity64 -->
<g id="edge10" class="edge verb">
<title>Entity25&#45;&gt;Entity64</title>
<path fill="none" stroke="black" d="M2549.56,-2199.02C2602.04,-2253.49 2762.76,-2420.35 2822.76,-2482.65"/>
<polygon fill="black" stroke="black" points="2820.43,-2485.28 2829.89,-2490.05 2825.48,-2480.42 2820.43,-2485.28"/>
<text text-anchor="start" x="2655.16" y="-2344.63" font-family="Times New Roman,serif" font-size="14.00">study</text>
</g>
<!-- Entity65 -->
<g id="node19" class="node entity">
<title>Entity65</title>
<ellipse fill="none" stroke="black" cx="2172.27" cy="-2184.25" rx="61.99" ry="18"/>
<text text-anchor="start" x="2132.77" y="-2180.55" font-family="Times New Roman,serif" font-size="14.00">breitbart news</text>
</g>
<!-- Entity25&#45;&gt;Entity65 -->
<g id="edge11" class="edge verb">
<title>Entity25&#45;&gt;Entity65</title>
<path fill="none" stroke="black" d="M2474.02,-2181.99C2411.31,-2182.46 2311.85,-2183.2 2244.41,-2183.71"/>
<polygon fill="black" stroke="black" points="2244.26,-2180.21 2234.29,-2183.78 2244.32,-2187.21 2244.26,-2180.21"/>
<text text-anchor="start" x="2325.22" y="-2186.65" font-family="Times New Roman,serif" font-size="14.00">create</text>
</g>
<!-- Entity75 -->
<g id="node31" class="node entity">
<title>Entity75</title>
<ellipse fill="none" stroke="black" cx="2631.96" cy="-2634.96" rx="38.19" ry="18"/>
<text text-anchor="start" x="2610.46" y="-2631.26" font-family="Times New Roman,serif" font-size="14.00">us navy</text>
</g>
<!-- Entity25&#45;&gt;Entity75 -->
<g id="edge18" class="edge verb">
<title>Entity25&#45;&gt;Entity75</title>
<path fill="none" stroke="black" d="M2536.69,-2199.61C2551.97,-2269.42 2607.25,-2522.02 2625.82,-2606.91"/>
<polygon fill="black" stroke="black" points="2622.44,-2607.83 2628,-2616.85 2629.28,-2606.34 2622.44,-2607.83"/>
<text text-anchor="start" x="2535.26" y="-2407.06" font-family="Times New Roman,serif" font-size="14.00">member</text>
</g>
<!-- Entity62 -->
<g id="node35" class="node entity">
<title>Entity62</title>
<ellipse fill="none" stroke="black" cx="2357.03" cy="-2693.39" rx="53.09" ry="18"/>
<text text-anchor="start" x="2324.03" y="-2689.69" font-family="Times New Roman,serif" font-size="14.00">biosphere 2</text>
</g>
<!-- Entity25&#45;&gt;Entity62 -->
<g id="edge25" class="edge verb">
<title>Entity25&#45;&gt;Entity62</title>
<path fill="none" stroke="black" d="M2526.59,-2199.47C2500.42,-2275.7 2398.22,-2573.39 2366.49,-2665.85"/>
<polygon fill="black" stroke="black" points="2363.16,-2664.76 2363.22,-2675.36 2369.78,-2667.03 2363.16,-2664.76"/>
<text text-anchor="start" x="2412.54" y="-2436.46" font-family="Times New Roman,serif" font-size="14.00">create</text>
</g>
<!-- Entity76 -->
<g id="node55" class="node entity">
<title>Entity76</title>
<ellipse fill="none" stroke="black" cx="3009.23" cy="-2163.28" rx="64.99" ry="18"/>
<text text-anchor="start" x="2967.23" y="-2159.58" font-family="Times New Roman,serif" font-size="14.00">goldman sachs</text>
</g>
<!-- Entity25&#45;&gt;Entity76 -->
<g id="edge45" class="edge verb">
<title>Entity25&#45;&gt;Entity76</title>
<path fill="none" stroke="black" d="M2591.17,-2179.31C2677.61,-2176 2839.54,-2169.79 2934.51,-2166.14"/>
<polygon fill="black" stroke="black" points="2934.76,-2169.64 2944.62,-2165.76 2934.49,-2162.64 2934.76,-2169.64"/>
<text text-anchor="start" x="2708.84" y="-2176.53" font-family="Times New Roman,serif" font-size="14.00">employee</text>
</g>
<!-- Entity79 -->
<g id="node59" class="node entity">
<title>Entity79</title>
<ellipse fill="none" stroke="black" cx="2748.95" cy="-2776.95" rx="77.19" ry="18"/>
<text text-anchor="start" x="2697.45" y="-2773.25" font-family="Times New Roman,serif" font-size="14.00">hollywood movies</text>
</g>
<!-- Entity25&#45;&gt;Entity79 -->
<g id="edge54" class="edge verb">
<title>Entity25&#45;&gt;Entity79</title>
<path fill="none" stroke="black" d="M2539.33,-2199.7C2570.29,-2284.96 2701.38,-2645.96 2738.88,-2749.24"/>
<polygon fill="black" stroke="black" points="2735.71,-2750.75 2742.41,-2758.95 2742.29,-2748.36 2735.71,-2750.75"/>
<text text-anchor="start" x="2592.11" y="-2478.27" font-family="Times New Roman,serif" font-size="14.00">produce</text>
</g>
<!-- Entity13&#45;&gt;Entity57 -->
<g id="edge41" class="edge verb">
<title>Entity13&#45;&gt;Entity57</title>
<path fill="none" stroke="black" d="M1740.78,-1891.04C1626.5,-1847.31 1282.66,-1715.75 1170.55,-1672.86"/>
<polygon fill="black" stroke="black" points="1171.64,-1669.53 1161.05,-1669.22 1169.14,-1676.07 1171.64,-1669.53"/>
<text text-anchor="start" x="1445.67" y="-1785.75" font-family="Times New Roman,serif" font-size="14.00">is</text>
</g>
<!-- Entity33 -->
<g id="node38" class="node entity">
<title>Entity33</title>
<ellipse fill="none" stroke="black" cx="2091.34" cy="-2076.3" rx="50.09" ry="18"/>
<text text-anchor="start" x="2060.84" y="-2072.6" font-family="Times New Roman,serif" font-size="14.00">john trump</text>
</g>
<!-- Entity13&#45;&gt;Entity33 -->
<g id="edge59" class="edge verb">
<title>Entity13&#45;&gt;Entity33</title>
<path fill="none" stroke="black" d="M1807.05,-1921.11C1864.21,-1952.31 1991.59,-2021.85 2054.59,-2056.24"/>
<polygon fill="black" stroke="black" points="2052.95,-2059.33 2063.4,-2061.05 2056.3,-2053.19 2052.95,-2059.33"/>
<text text-anchor="start" x="1887.82" y="-1992.48" font-family="Times New Roman,serif" font-size="14.00">nephew</text>
</g>
<!-- Entity50 -->
<g id="node9" class="node entity">
<title>Entity50</title>
<ellipse fill="none" stroke="black" cx="3360.33" cy="-17.66" rx="49.29" ry="18"/>
<text text-anchor="start" x="3330.33" y="-13.96" font-family="Times New Roman,serif" font-size="14.00">adolf hitler</text>
</g>
<!-- Entity53 -->
<g id="node10" class="node entity">
<title>Entity53</title>
<ellipse fill="none" stroke="black" cx="3169.95" cy="-404.74" rx="32.49" ry="18"/>
<text text-anchor="start" x="3152.95" y="-401.04" font-family="Times New Roman,serif" font-size="14.00">nsdap</text>
</g>
<!-- Entity50&#45;&gt;Entity53 -->
<g id="edge5" class="edge verb">
<title>Entity50&#45;&gt;Entity53</title>
<path fill="none" stroke="black" d="M3351.53,-35.55C3321.02,-97.59 3219.64,-303.72 3183.17,-377.87"/>
<polygon fill="black" stroke="black" points="3179.93,-376.52 3178.66,-387.04 3186.21,-379.61 3179.93,-376.52"/>
<text text-anchor="start" x="3233.35" y="-210.51" font-family="Times New Roman,serif" font-size="14.00">create</text>
</g>
<!-- Entity73 -->
<g id="node51" class="node entity">
<title>Entity73</title>
<ellipse fill="none" stroke="black" cx="2692.42" cy="-348.45" rx="38.99" ry="18"/>
<text text-anchor="start" x="2670.42" y="-344.75" font-family="Times New Roman,serif" font-size="14.00">far right</text>
</g>
<!-- Entity53&#45;&gt;Entity73 -->
<g id="edge47" class="edge verb">
<title>Entity53&#45;&gt;Entity73</title>
<path fill="none" stroke="black" d="M3137.88,-400.96C3055.86,-391.29 2838.1,-365.62 2740.69,-354.14"/>
<polygon fill="black" stroke="black" points="2740.88,-350.64 2730.54,-352.95 2740.06,-357.59 2740.88,-350.64"/>
<text text-anchor="start" x="2893.29" y="-381.35" font-family="Times New Roman,serif" font-size="14.00">member</text>
</g>
<!-- Entity52 -->
<g id="node11" class="node entity">
<title>Entity52</title>
<ellipse fill="none" stroke="black" cx="82.04" cy="-1190.05" rx="37.89" ry="18"/>
<text text-anchor="start" x="61.04" y="-1186.35" font-family="Times New Roman,serif" font-size="14.00">hunt oil</text>
</g>
<!-- Entity45 -->
<g id="node12" class="node entity">
<title>Entity45</title>
<ellipse fill="none" stroke="black" cx="578.11" cy="-1423.23" rx="77.99" ry="18"/>
<text text-anchor="start" x="526.11" y="-1419.53" font-family="Times New Roman,serif" font-size="14.00">dwight eisenhower</text>
</g>
<!-- Entity52&#45;&gt;Entity45 -->
<g id="edge6" class="edge verb">
<title>Entity52&#45;&gt;Entity45</title>
<path fill="none" stroke="black" d="M109.07,-1202.75C190.55,-1241.05 434.35,-1355.66 534.47,-1402.72"/>
<polygon fill="black" stroke="black" points="533.16,-1405.97 543.7,-1407.05 536.14,-1399.63 533.16,-1405.97"/>
<text text-anchor="start" x="295.77" y="-1306.53" font-family="Times New Roman,serif" font-size="14.00">fund</text>
</g>
<!-- Entity45&#45;&gt;Entity57 -->
<g id="edge51" class="edge verb">
<title>Entity45&#45;&gt;Entity57</title>
<path fill="none" stroke="black" d="M615.5,-1439.08C717.77,-1482.43 1001.09,-1602.51 1100.1,-1644.47"/>
<polygon fill="black" stroke="black" points="1098.79,-1647.72 1109.36,-1648.4 1101.52,-1641.27 1098.79,-1647.72"/>
<text text-anchor="start" x="847.8" y="-1545.58" font-family="Times New Roman,serif" font-size="14.00">is</text>
</g>
<!-- Entity7 -->
<g id="node13" class="node entity">
<title>Entity7</title>
<ellipse fill="none" stroke="black" cx="614.18" cy="-1641.2" rx="56.59" ry="18"/>
<text text-anchor="start" x="578.68" y="-1637.5" font-family="Times New Roman,serif" font-size="14.00">harry truman</text>
</g>
<!-- Entity55 -->
<g id="node14" class="node entity">
<title>Entity55</title>
<ellipse fill="none" stroke="black" cx="78.54" cy="-1628.79" rx="55.79" ry="18"/>
<text text-anchor="start" x="43.54" y="-1625.09" font-family="Times New Roman,serif" font-size="14.00">freemasonry</text>
</g>
<!-- Entity7&#45;&gt;Entity55 -->
<g id="edge7" class="edge verb">
<title>Entity7&#45;&gt;Entity55</title>
<path fill="none" stroke="black" d="M557.62,-1639.89C457.81,-1637.57 250.97,-1632.78 144.71,-1630.32"/>
<polygon fill="black" stroke="black" points="144.52,-1626.81 134.44,-1630.08 144.35,-1633.81 144.52,-1626.81"/>
<text text-anchor="start" x="305.16" y="-1638.9" font-family="Times New Roman,serif" font-size="14.00">member</text>
</g>
<!-- Entity7&#45;&gt;Entity57 -->
<g id="edge28" class="edge verb">
<title>Entity7&#45;&gt;Entity57</title>
<path fill="none" stroke="black" d="M670.88,-1643.15C776.45,-1646.8 1000.78,-1654.55 1093.43,-1657.75"/>
<polygon fill="black" stroke="black" points="1093.42,-1661.25 1103.54,-1658.09 1093.66,-1654.25 1093.42,-1661.25"/>
<text text-anchor="start" x="872.15" y="-1654.25" font-family="Times New Roman,serif" font-size="14.00">is</text>
</g>
<!-- Entity17 -->
<g id="node16" class="node entity">
<title>Entity17</title>
<ellipse fill="none" stroke="black" cx="1483.23" cy="-1963.97" rx="31.4" ry="18"/>
<text text-anchor="start" x="1467.23" y="-1960.27" font-family="Times New Roman,serif" font-size="14.00">carter</text>
</g>
<!-- Entity17&#45;&gt;Entity57 -->
<g id="edge48" class="edge verb">
<title>Entity17&#45;&gt;Entity57</title>
<path fill="none" stroke="black" d="M1465.95,-1948.86C1408.95,-1898.99 1226.68,-1739.56 1159.74,-1681.01"/>
<polygon fill="black" stroke="black" points="1162,-1678.33 1152.17,-1674.38 1157.39,-1683.6 1162,-1678.33"/>
<text text-anchor="start" x="1302.85" y="-1818.73" font-family="Times New Roman,serif" font-size="14.00">is</text>
</g>
<!-- Entity61 -->
<g id="node17" class="node entity">
<title>Entity61</title>
<ellipse fill="none" stroke="black" cx="1884.47" cy="-2184.24" rx="27" ry="18"/>
<text text-anchor="start" x="1874.97" y="-2180.54" font-family="Times New Roman,serif" font-size="14.00">ufo</text>
</g>
<!-- Entity17&#45;&gt;Entity61 -->
<g id="edge9" class="edge verb">
<title>Entity17&#45;&gt;Entity61</title>
<path fill="none" stroke="black" d="M1505.95,-1976.45C1574.16,-2013.89 1777.15,-2125.32 1854.28,-2167.66"/>
<polygon fill="black" stroke="black" points="1853.01,-2170.96 1863.46,-2172.7 1856.38,-2164.82 1853.01,-2170.96"/>
<text text-anchor="start" x="1638.12" y="-2075.85" font-family="Times New Roman,serif" font-size="14.00">witness</text>
</g>
<!-- Entity44 -->
<g id="node20" class="node entity">
<title>Entity44</title>
<ellipse fill="none" stroke="black" cx="3528.36" cy="-893.39" rx="74.99" ry="18"/>
<text text-anchor="start" x="3478.86" y="-889.69" font-family="Times New Roman,serif" font-size="14.00">walter dornberger</text>
</g>
<!-- Entity44&#45;&gt;Entity53 -->
<g id="edge22" class="edge verb">
<title>Entity44&#45;&gt;Entity53</title>
<path fill="none" stroke="black" d="M3515.18,-875.42C3460.54,-800.93 3251.74,-516.25 3188.32,-429.79"/>
<polygon fill="black" stroke="black" points="3191.05,-427.59 3182.32,-421.6 3185.41,-431.73 3191.05,-427.59"/>
<text text-anchor="start" x="3305.75" y="-656.4" font-family="Times New Roman,serif" font-size="14.00">member</text>
</g>
<!-- Entity54 -->
<g id="node21" class="node entity">
<title>Entity54</title>
<ellipse fill="none" stroke="black" cx="3900.46" cy="-1433.97" rx="53.89" ry="18"/>
<text text-anchor="start" x="3866.96" y="-1430.27" font-family="Times New Roman,serif" font-size="14.00">bell aviation</text>
</g>
<!-- Entity44&#45;&gt;Entity54 -->
<g id="edge12" class="edge verb">
<title>Entity44&#45;&gt;Entity54</title>
<path fill="none" stroke="black" d="M3537.62,-911.3C3586.08,-991.24 3808.76,-1315.12 3879.17,-1408.62"/>
<polygon fill="black" stroke="black" points="3876.47,-1410.85 3885.31,-1416.69 3882.04,-1406.61 3876.47,-1410.85"/>
<text text-anchor="start" x="3629.4" y="-1163.76" font-family="Times New Roman,serif" font-size="14.00">vice&#45;president</text>
</g>
<!-- Entity44&#45;&gt;Entity54 -->
<g id="edge52" class="edge verb">
<title>Entity44&#45;&gt;Entity54</title>
<path fill="none" stroke="black" d="M3543.84,-911.09C3604.75,-990.29 3826.22,-1311.84 3885.75,-1407.22"/>
<polygon fill="black" stroke="black" points="3882.92,-1409.3 3891.15,-1415.98 3888.88,-1405.63 3882.92,-1409.3"/>
<text text-anchor="start" x="3660.8" y="-1147.96" font-family="Times New Roman,serif" font-size="14.00">employee</text>
</g>
<!-- Entity72 -->
<g id="node23" class="node entity">
<title>Entity72</title>
<ellipse fill="none" stroke="black" cx="3740.23" cy="-1001.42" rx="90.98" ry="18"/>
<text text-anchor="start" x="3678.23" y="-997.72" font-family="Times New Roman,serif" font-size="14.00">nsdap rocket program</text>
</g>
<!-- Entity44&#45;&gt;Entity72 -->
<g id="edge67" class="edge verb">
<title>Entity44&#45;&gt;Entity72</title>
<path fill="none" stroke="black" d="M3560.54,-909.8C3597.27,-928.53 3657.48,-959.23 3697.97,-979.87"/>
<polygon fill="black" stroke="black" points="3696.55,-983.07 3707.05,-984.5 3699.73,-976.84 3696.55,-983.07"/>
<text text-anchor="start" x="3595.25" y="-948.63" font-family="Times New Roman,serif" font-size="14.00">create</text>
</g>
<!-- Entity74 -->
<g id="node56" class="node entity">
<title>Entity74</title>
<ellipse fill="none" stroke="black" cx="3627.31" cy="-785.38" rx="65.79" ry="18"/>
<text text-anchor="start" x="3584.81" y="-781.68" font-family="Times New Roman,serif" font-size="14.00">x series aircraft</text>
</g>
<!-- Entity44&#45;&gt;Entity74 -->
<g id="edge46" class="edge verb">
<title>Entity44&#45;&gt;Entity74</title>
<path fill="none" stroke="black" d="M3544.7,-875.56C3560.98,-857.78 3586.13,-830.34 3604.4,-810.39"/>
<polygon fill="black" stroke="black" points="3607.1,-812.63 3611.27,-802.89 3601.94,-807.9 3607.1,-812.63"/>
<text text-anchor="start" x="3540.55" y="-846.78" font-family="Times New Roman,serif" font-size="14.00">create</text>
</g>
<!-- Entity48 -->
<g id="node22" class="node entity">
<title>Entity48</title>
<ellipse fill="none" stroke="black" cx="3966.84" cy="-561.23" rx="46.29" ry="18"/>
<text text-anchor="start" x="3939.34" y="-557.53" font-family="Times New Roman,serif" font-size="14.00">van braun</text>
</g>
<!-- Entity48&#45;&gt;Entity44 -->
<g id="edge23" class="edge verb">
<title>Entity48&#45;&gt;Entity44</title>
<path fill="none" stroke="black" d="M3945.69,-577.25C3874.49,-631.19 3643.27,-806.34 3559.25,-870"/>
<polygon fill="black" stroke="black" points="3556.98,-867.32 3551.12,-876.15 3561.21,-872.9 3556.98,-867.32"/>
<text text-anchor="start" x="3698.47" y="-727.42" font-family="Times New Roman,serif" font-size="14.00">employee</text>
</g>
<!-- Entity48&#45;&gt;Entity72 -->
<g id="edge13" class="edge verb">
<title>Entity48&#45;&gt;Entity72</title>
<path fill="none" stroke="black" d="M3957.68,-579.03C3922.59,-647.19 3796.62,-891.88 3754.25,-974.18"/>
<polygon fill="black" stroke="black" points="3750.97,-972.9 3749.51,-983.39 3757.2,-976.1 3750.97,-972.9"/>
<text text-anchor="start" x="3801.96" y="-780.41" font-family="Times New Roman,serif" font-size="14.00">employee</text>
</g>
<!-- Entity4 -->
<g id="node24" class="node entity">
<title>Entity4</title>
<ellipse fill="none" stroke="black" cx="5093.82" cy="-2335.79" rx="64.19" ry="18"/>
<text text-anchor="start" x="5052.32" y="-2332.09" font-family="Times New Roman,serif" font-size="14.00">andre puharich</text>
</g>
<!-- Entity1 -->
<g id="node25" class="node entity">
<title>Entity1</title>
<ellipse fill="none" stroke="black" cx="4593.17" cy="-2295.04" rx="41.69" ry="18"/>
<text text-anchor="start" x="4569.17" y="-2291.34" font-family="Times New Roman,serif" font-size="14.00">uri geller</text>
</g>
<!-- Entity4&#45;&gt;Entity1 -->
<g id="edge14" class="edge verb">
<title>Entity4&#45;&gt;Entity1</title>
<path fill="none" stroke="black" d="M5031.93,-2330.76C4932.05,-2322.62 4737.16,-2306.76 4644.49,-2299.22"/>
<polygon fill="black" stroke="black" points="4644.5,-2295.71 4634.25,-2298.38 4643.93,-2302.68 4644.5,-2295.71"/>
<text text-anchor="start" x="4786.21" y="-2318.79" font-family="Times New Roman,serif" font-size="14.00">sponsore</text>
</g>
<!-- Entity1&#45;&gt;Entity8 -->
<g id="edge55" class="edge verb">
<title>Entity1&#45;&gt;Entity8</title>
<path fill="none" stroke="black" d="M4562.79,-2307.69C4519.27,-2325.82 4439.19,-2359.16 4391.64,-2378.96"/>
<polygon fill="black" stroke="black" points="4390.18,-2375.78 4382.3,-2382.85 4392.87,-2382.24 4390.18,-2375.78"/>
<text text-anchor="start" x="4373.21" y="-2347.13" font-family="Times New Roman,serif" font-size="14.00">claiemd to channel</text>
</g>
<!-- Entity21 -->
<g id="node26" class="node entity">
<title>Entity21</title>
<ellipse fill="none" stroke="black" cx="3845.57" cy="-2380.58" rx="63.89" ry="18"/>
<text text-anchor="start" x="3804.57" y="-2376.88" font-family="Times New Roman,serif" font-size="14.00">robert bigelow</text>
</g>
<!-- Entity6 -->
<g id="node27" class="node entity">
<title>Entity6</title>
<ellipse fill="none" stroke="black" cx="4008.12" cy="-2272.52" rx="68.49" ry="18"/>
<text text-anchor="start" x="3963.62" y="-2268.82" font-family="Times New Roman,serif" font-size="14.00">jeffrey mishlove</text>
</g>
<!-- Entity21&#45;&gt;Entity6 -->
<g id="edge15" class="edge verb">
<title>Entity21&#45;&gt;Entity6</title>
<path fill="none" stroke="black" d="M3870.61,-2363.93C3898.33,-2345.5 3943.17,-2315.7 3974.07,-2295.16"/>
<polygon fill="black" stroke="black" points="3976.39,-2297.82 3982.78,-2289.37 3972.51,-2291.99 3976.39,-2297.82"/>
<text text-anchor="start" x="3890.34" y="-2333.34" font-family="Times New Roman,serif" font-size="14.00">funds</text>
</g>
<!-- Entity56 -->
<g id="node44" class="node entity">
<title>Entity56</title>
<ellipse fill="none" stroke="black" cx="3234.36" cy="-2271.31" rx="77.19" ry="18"/>
<text text-anchor="start" x="3182.86" y="-2267.61" font-family="Times New Roman,serif" font-size="14.00">psi&#45;consciousness</text>
</g>
<!-- Entity21&#45;&gt;Entity56 -->
<g id="edge49" class="edge verb">
<title>Entity21&#45;&gt;Entity56</title>
<path fill="none" stroke="black" d="M3791.59,-2370.93C3681.21,-2351.19 3429.66,-2306.22 3305.87,-2284.09"/>
<polygon fill="black" stroke="black" points="3306.2,-2280.6 3295.74,-2282.28 3304.97,-2287.49 3306.2,-2280.6"/>
<text text-anchor="start" x="3484.73" y="-2331.31" font-family="Times New Roman,serif" font-size="14.00">investigates</text>
</g>
<!-- Entity6&#45;&gt;Entity1 -->
<g id="edge56" class="edge verb">
<title>Entity6&#45;&gt;Entity1</title>
<path fill="none" stroke="black" d="M4075.8,-2275.13C4193.99,-2279.68 4435.47,-2288.97 4541.41,-2293.05"/>
<polygon fill="black" stroke="black" points="4541.4,-2296.55 4551.53,-2293.44 4541.67,-2289.55 4541.4,-2296.55"/>
<text text-anchor="start" x="4260.6" y="-2287.89" font-family="Times New Roman,serif" font-size="14.00">promote</text>
</g>
<!-- Entity6&#45;&gt;Entity56 -->
<g id="edge33" class="edge verb">
<title>Entity6&#45;&gt;Entity56</title>
<path fill="none" stroke="black" d="M3941.48,-2268.42C3801.29,-2264.68 3475.97,-2264.03 3320.33,-2267.01"/>
<polygon fill="black" stroke="black" points="3319.8,-2263.52 3309.87,-2267.22 3319.94,-2270.52 3319.8,-2263.52"/>
<text text-anchor="start" x="3566.91" y="-2256.51" font-family="Times New Roman,serif" font-size="14.00">investigates</text>
</g>
<!-- Entity6&#45;&gt;Entity56 -->
<g id="edge61" class="edge verb">
<title>Entity6&#45;&gt;Entity56</title>
<path fill="none" stroke="black" d="M3941.47,-2276.41C3801.18,-2279.71 3475.53,-2279.35 3320.02,-2275.87"/>
<polygon fill="black" stroke="black" points="3319.65,-2272.36 3309.57,-2275.63 3319.49,-2279.36 3319.65,-2272.36"/>
<text text-anchor="start" x="3599.74" y="-2279.94" font-family="Times New Roman,serif" font-size="14.00">study</text>
</g>
<!-- Entity29 -->
<g id="node29" class="node entity">
<title>Entity29</title>
<ellipse fill="none" stroke="black" cx="1741.15" cy="-171.08" rx="73.39" ry="18"/>
<text text-anchor="start" x="1692.65" y="-167.38" font-family="Times New Roman,serif" font-size="14.00">madam blavatsky</text>
</g>
<!-- Entity63 -->
<g id="node30" class="node entity">
<title>Entity63</title>
<ellipse fill="none" stroke="black" cx="2066.54" cy="-780.06" rx="85.29" ry="18"/>
<text text-anchor="start" x="2009.04" y="-776.36" font-family="Times New Roman,serif" font-size="14.00">theosophical society</text>
</g>
<!-- Entity29&#45;&gt;Entity63 -->
<g id="edge17" class="edge verb">
<title>Entity29&#45;&gt;Entity63</title>
<path fill="none" stroke="black" d="M1750.72,-188.98C1796.88,-275.38 1996.74,-649.43 2052.22,-753.25"/>
<polygon fill="black" stroke="black" points="2049.18,-754.99 2056.98,-762.16 2055.35,-751.69 2049.18,-754.99"/>
<text text-anchor="start" x="1867.47" y="-474.91" font-family="Times New Roman,serif" font-size="14.00">create</text>
</g>
<!-- Entity41 -->
<g id="node32" class="node entity">
<title>Entity41</title>
<ellipse fill="none" stroke="black" cx="1542.81" cy="-1342.33" rx="67.69" ry="18"/>
<text text-anchor="start" x="1498.81" y="-1338.63" font-family="Times New Roman,serif" font-size="14.00">abraham lincoln</text>
</g>
<!-- Entity41&#45;&gt;Entity57 -->
<g id="edge19" class="edge verb">
<title>Entity41&#45;&gt;Entity57</title>
<path fill="none" stroke="black" d="M1520.87,-1359.37C1451.54,-1413.21 1237.25,-1579.6 1161.58,-1638.36"/>
<polygon fill="black" stroke="black" points="1159.22,-1635.77 1153.47,-1644.66 1163.51,-1641.3 1159.22,-1635.77"/>
<text text-anchor="start" x="1331.23" y="-1502.67" font-family="Times New Roman,serif" font-size="14.00">is</text>
</g>
<!-- Entity36 -->
<g id="node33" class="node entity">
<title>Entity36</title>
<ellipse fill="none" stroke="black" cx="2063.53" cy="-888.05" rx="90.98" ry="18"/>
<text text-anchor="start" x="2001.53" y="-884.35" font-family="Times New Roman,serif" font-size="14.00">emma hardinge&#45;britten</text>
</g>
<!-- Entity36&#45;&gt;Entity63 -->
<g id="edge65" class="edge verb">
<title>Entity36&#45;&gt;Entity63</title>
<path fill="none" stroke="black" d="M2064.04,-869.73C2064.51,-852.87 2065.22,-827.62 2065.76,-808.2"/>
<polygon fill="black" stroke="black" points="2069.26,-808.2 2066.04,-798.11 2062.26,-808.01 2069.26,-808.2"/>
<text text-anchor="start" x="2030.9" y="-842.77" font-family="Times New Roman,serif" font-size="14.00">create</text>
</g>
<!-- Entity36&#45;&gt;Entity41 -->
<g id="edge30" class="edge verb">
<title>Entity36&#45;&gt;Entity41</title>
<path fill="none" stroke="black" d="M2043.12,-905.86C1962.09,-976.55 1663.03,-1237.45 1570.36,-1318.29"/>
<polygon fill="black" stroke="black" points="1568.03,-1315.68 1562.8,-1324.89 1572.63,-1320.96 1568.03,-1315.68"/>
<text text-anchor="start" x="1727.74" y="-1115.88" font-family="Times New Roman,serif" font-size="14.00">spokesperson</text>
</g>
<!-- Entity78 -->
<g id="node34" class="node entity">
<title>Entity78</title>
<ellipse fill="none" stroke="black" cx="2501.9" cy="-735.41" rx="39.79" ry="18"/>
<text text-anchor="start" x="2479.4" y="-731.71" font-family="Times New Roman,serif" font-size="14.00">medium</text>
</g>
<!-- Entity36&#45;&gt;Entity78 -->
<g id="edge20" class="edge verb">
<title>Entity36&#45;&gt;Entity78</title>
<path fill="none" stroke="black" d="M2108.79,-872.29C2194.35,-842.5 2378.57,-778.35 2460.8,-749.71"/>
<polygon fill="black" stroke="black" points="2462.02,-753 2470.31,-746.4 2459.72,-746.39 2462.02,-753"/>
<text text-anchor="start" x="2274.8" y="-814.8" font-family="Times New Roman,serif" font-size="14.00">is</text>
</g>
<!-- Entity70 -->
<g id="node61" class="node entity">
<title>Entity70</title>
<ellipse fill="none" stroke="black" cx="2129.07" cy="-243.05" rx="55.79" ry="18"/>
<text text-anchor="start" x="2094.07" y="-239.35" font-family="Times New Roman,serif" font-size="14.00">orphic circle</text>
</g>
<!-- Entity36&#45;&gt;Entity70 -->
<g id="edge66" class="edge verb">
<title>Entity36&#45;&gt;Entity70</title>
<path fill="none" stroke="black" d="M2065.39,-869.79C2074.56,-779.51 2115.06,-380.94 2126.21,-271.14"/>
<polygon fill="black" stroke="black" points="2129.7,-271.46 2127.23,-261.15 2122.74,-270.75 2129.7,-271.46"/>
<text text-anchor="start" x="2049.8" y="-574.26" font-family="Times New Roman,serif" font-size="14.00">member</text>
</g>
<!-- Entity40 -->
<g id="node36" class="node entity">
<title>Entity40</title>
<ellipse fill="none" stroke="black" cx="2692.94" cy="-1438.66" rx="53.89" ry="18"/>
<text text-anchor="start" x="2659.44" y="-1434.96" font-family="Times New Roman,serif" font-size="14.00">black magic</text>
</g>
<!-- Entity69 -->
<g id="node37" class="node entity">
<title>Entity69</title>
<ellipse fill="none" stroke="black" cx="2780.66" cy="-1550.64" rx="28.7" ry="18"/>
<text text-anchor="start" x="2766.66" y="-1546.94" font-family="Times New Roman,serif" font-size="14.00">x left</text>
</g>
<!-- Entity40&#45;&gt;Entity69 -->
<g id="edge26" class="edge verb">
<title>Entity40&#45;&gt;Entity69</title>
<path fill="none" stroke="black" d="M2706.64,-1456.16C2721.45,-1475.05 2745.14,-1505.29 2761.72,-1526.45"/>
<polygon fill="black" stroke="black" points="2758.98,-1528.64 2767.9,-1534.36 2764.49,-1524.32 2758.98,-1528.64"/>
<text text-anchor="start" x="2688.18" y="-1495.11" font-family="Times New Roman,serif" font-size="14.00">member</text>
</g>
<!-- Entity15 -->
<g id="node39" class="node entity">
<title>Entity15</title>
<ellipse fill="none" stroke="black" cx="2439.92" cy="-2289.47" rx="27" ry="18"/>
<text text-anchor="start" x="2431.92" y="-2285.77" font-family="Times New Roman,serif" font-size="14.00">cia</text>
</g>
<!-- Entity33&#45;&gt;Entity15 -->
<g id="edge27" class="edge verb">
<title>Entity33&#45;&gt;Entity15</title>
<path fill="none" stroke="black" d="M2116.97,-2091.97C2180.34,-2130.73 2344.06,-2230.85 2410.88,-2271.71"/>
<polygon fill="black" stroke="black" points="2409.28,-2274.84 2419.64,-2277.07 2412.94,-2268.86 2409.28,-2274.84"/>
<text text-anchor="start" x="2263.92" y="-2185.64" font-family="Times New Roman,serif" font-size="14.00">member</text>
</g>
<!-- Entity77 -->
<g id="node50" class="node entity">
<title>Entity77</title>
<ellipse fill="none" stroke="black" cx="1862.53" cy="-2522.86" rx="50.89" ry="18"/>
<text text-anchor="start" x="1831.53" y="-2519.16" font-family="Times New Roman,serif" font-size="14.00">nikola tesla</text>
</g>
<!-- Entity33&#45;&gt;Entity77 -->
<g id="edge39" class="edge verb">
<title>Entity33&#45;&gt;Entity77</title>
<path fill="none" stroke="black" d="M2082.22,-2094.08C2046.89,-2163.05 1918.74,-2413.15 1876.3,-2496"/>
<polygon fill="black" stroke="black" points="1873.11,-2494.54 1871.67,-2505.03 1879.34,-2497.73 1873.11,-2494.54"/>
<text text-anchor="start" x="1948.26" y="-2298.84" font-family="Times New Roman,serif" font-size="14.00">study</text>
</g>
<!-- Entity15&#45;&gt;Entity61 -->
<g id="edge63" class="edge verb">
<title>Entity15&#45;&gt;Entity61</title>
<path fill="none" stroke="black" d="M2413.87,-2284.53C2323.67,-2267.44 2024.47,-2210.76 1920.47,-2191.06"/>
<polygon fill="black" stroke="black" points="1920.94,-2187.58 1910.46,-2189.16 1919.64,-2194.46 1920.94,-2187.58"/>
<text text-anchor="start" x="2103.17" y="-2226.59" font-family="Times New Roman,serif" font-size="14.00">investigates</text>
</g>
<!-- Entity15&#45;&gt;Entity56 -->
<g id="edge43" class="edge verb">
<title>Entity15&#45;&gt;Entity56</title>
<path fill="none" stroke="black" d="M2467.26,-2288.84C2574.59,-2286.39 2969.79,-2277.36 3147.18,-2273.3"/>
<polygon fill="black" stroke="black" points="3147.34,-2276.8 3157.26,-2273.07 3147.18,-2269.8 3147.34,-2276.8"/>
<text text-anchor="start" x="2743.22" y="-2284.87" font-family="Times New Roman,serif" font-size="14.00">investigates</text>
</g>
<!-- Entity20 -->
<g id="node40" class="node entity">
<title>Entity20</title>
<ellipse fill="none" stroke="black" cx="602.31" cy="-1992.04" rx="71.49" ry="18"/>
<text text-anchor="start" x="555.31" y="-1988.34" font-family="Times New Roman,serif" font-size="14.00">woodrow wilson</text>
</g>
<!-- Entity20&#45;&gt;Entity57 -->
<g id="edge34" class="edge verb">
<title>Entity20&#45;&gt;Entity57</title>
<path fill="none" stroke="black" d="M629.08,-1975.31C719.08,-1919.05 1010.35,-1736.96 1104.87,-1677.88"/>
<polygon fill="black" stroke="black" points="1106.76,-1680.82 1113.39,-1672.55 1103.05,-1674.88 1106.76,-1680.82"/>
<text text-anchor="start" x="856.98" y="-1830.39" font-family="Times New Roman,serif" font-size="14.00">is</text>
</g>
<!-- Entity66 -->
<g id="node41" class="node entity">
<title>Entity66</title>
<ellipse fill="none" stroke="black" cx="126.79" cy="-2409.34" rx="71.49" ry="18"/>
<text text-anchor="start" x="79.79" y="-2405.64" font-family="Times New Roman,serif" font-size="14.00">leauge of nations</text>
</g>
<!-- Entity20&#45;&gt;Entity66 -->
<g id="edge29" class="edge verb">
<title>Entity20&#45;&gt;Entity66</title>
<path fill="none" stroke="black" d="M582.49,-2009.44C507.49,-2075.26 241.01,-2309.1 154.29,-2385.21"/>
<polygon fill="black" stroke="black" points="151.91,-2382.64 146.7,-2391.87 156.53,-2387.91 151.91,-2382.64"/>
<text text-anchor="start" x="334.39" y="-2201.13" font-family="Times New Roman,serif" font-size="14.00">create</text>
</g>
<!-- Entity49&#45;&gt;Entity73 -->
<g id="edge40" class="edge verb">
<title>Entity49&#45;&gt;Entity73</title>
<path fill="none" stroke="black" d="M2172.93,-519.65C2275.65,-485.8 2546.71,-396.47 2650.85,-362.15"/>
<polygon fill="black" stroke="black" points="2652,-365.46 2660.4,-359.01 2649.8,-358.81 2652,-365.46"/>
<text text-anchor="start" x="2365.89" y="-444.7" font-family="Times New Roman,serif" font-size="14.00">member</text>
</g>
<!-- Entity39 -->
<g id="node43" class="node entity">
<title>Entity39</title>
<ellipse fill="none" stroke="black" cx="4186.73" cy="-1017.3" rx="57.69" ry="18"/>
<text text-anchor="start" x="4150.23" y="-1013.6" font-family="Times New Roman,serif" font-size="14.00">michael pane</text>
</g>
<!-- Entity39&#45;&gt;Entity44 -->
<g id="edge32" class="edge verb">
<title>Entity39&#45;&gt;Entity44</title>
<path fill="none" stroke="black" d="M4136.97,-1007.94C4020.77,-986.07 3731.32,-931.59 3597.82,-906.47"/>
<polygon fill="black" stroke="black" points="3598.19,-902.97 3587.71,-904.56 3596.89,-909.85 3598.19,-902.97"/>
<text text-anchor="start" x="3813.4" y="-961" font-family="Times New Roman,serif" font-size="14.00">employee</text>
</g>
<!-- Entity39&#45;&gt;Entity54 -->
<g id="edge50" class="edge verb">
<title>Entity39&#45;&gt;Entity54</title>
<path fill="none" stroke="black" d="M4174.61,-1034.94C4129.62,-1100.42 3972.06,-1329.77 3918.46,-1407.77"/>
<polygon fill="black" stroke="black" points="3915.52,-1405.88 3912.74,-1416.1 3921.29,-1409.84 3915.52,-1405.88"/>
<text text-anchor="start" x="3992.54" y="-1225.16" font-family="Times New Roman,serif" font-size="14.00">employee</text>
</g>
<!-- Entity42 -->
<g id="node45" class="node entity">
<title>Entity42</title>
<ellipse fill="none" stroke="black" cx="2881.94" cy="-1032.66" rx="39.79" ry="18"/>
<text text-anchor="start" x="2859.44" y="-1028.96" font-family="Times New Roman,serif" font-size="14.00">crowley</text>
</g>
<!-- Entity71 -->
<g id="node46" class="node entity">
<title>Entity71</title>
<ellipse fill="none" stroke="black" cx="2969.66" cy="-1144.64" rx="38.99" ry="18"/>
<text text-anchor="start" x="2947.66" y="-1140.94" font-family="Times New Roman,serif" font-size="14.00">x magic</text>
</g>
<!-- Entity42&#45;&gt;Entity71 -->
<g id="edge35" class="edge verb">
<title>Entity42&#45;&gt;Entity71</title>
<path fill="none" stroke="black" d="M2895.26,-1049.67C2909.82,-1068.25 2933.28,-1098.2 2949.96,-1119.49"/>
<polygon fill="black" stroke="black" points="2947.29,-1121.76 2956.21,-1127.47 2952.8,-1117.44 2947.29,-1121.76"/>
<text text-anchor="start" x="2876.61" y="-1088.38" font-family="Times New Roman,serif" font-size="14.00">member</text>
</g>
<!-- Entity3 -->
<g id="node47" class="node entity">
<title>Entity3</title>
<ellipse fill="none" stroke="black" cx="3907.95" cy="-2044.69" rx="56.59" ry="18"/>
<text text-anchor="start" x="3872.45" y="-2040.99" font-family="Times New Roman,serif" font-size="14.00">arthur young</text>
</g>
<!-- Entity3&#45;&gt;Entity8 -->
<g id="edge57" class="edge verb">
<title>Entity3&#45;&gt;Entity8</title>
<path fill="none" stroke="black" d="M3929.43,-2061.59C4002.83,-2119.32 4243.7,-2308.75 4325.68,-2373.23"/>
<polygon fill="black" stroke="black" points="4323.53,-2375.99 4333.55,-2379.42 4327.85,-2370.48 4323.53,-2375.99"/>
<text text-anchor="start" x="4081.55" y="-2221.21" font-family="Times New Roman,serif" font-size="14.00">member</text>
</g>
<!-- Entity3&#45;&gt;Entity54 -->
<g id="edge60" class="edge verb">
<title>Entity3&#45;&gt;Entity54</title>
<path fill="none" stroke="black" d="M3907.72,-2026.42C3906.66,-1939.58 3902.11,-1568.54 3900.81,-1462.43"/>
<polygon fill="black" stroke="black" points="3904.31,-1462.14 3900.69,-1452.18 3897.31,-1462.22 3904.31,-1462.14"/>
<text text-anchor="start" x="3870.27" y="-1748.22" font-family="Times New Roman,serif" font-size="14.00">create</text>
</g>
<!-- Entity3&#45;&gt;Entity56 -->
<g id="edge36" class="edge verb">
<title>Entity3&#45;&gt;Entity56</title>
<path fill="none" stroke="black" d="M3868.82,-2057.86C3754.32,-2096.38 3419.73,-2208.95 3288.28,-2253.17"/>
<polygon fill="black" stroke="black" points="3287.16,-2249.85 3278.8,-2256.36 3289.39,-2256.49 3287.16,-2249.85"/>
<text text-anchor="start" x="3547.55" y="-2159.31" font-family="Times New Roman,serif" font-size="14.00">study</text>
</g>
<!-- Entity19 -->
<g id="node48" class="node entity">
<title>Entity19</title>
<ellipse fill="none" stroke="black" cx="711.83" cy="-1310.37" rx="58.49" ry="18"/>
<text text-anchor="start" x="674.83" y="-1306.67" font-family="Times New Roman,serif" font-size="14.00">richard nixon</text>
</g>
<!-- Entity19&#45;&gt;Entity57 -->
<g id="edge37" class="edge verb">
<title>Entity19&#45;&gt;Entity57</title>
<path fill="none" stroke="black" d="M732.52,-1327.43C802.6,-1385.23 1031.05,-1573.62 1108.69,-1637.65"/>
<polygon fill="black" stroke="black" points="1106.62,-1640.48 1116.56,-1644.14 1111.07,-1635.08 1106.62,-1640.48"/>
<text text-anchor="start" x="910.6" y="-1486.34" font-family="Times New Roman,serif" font-size="14.00">is</text>
</g>
<!-- Entity34 -->
<g id="node49" class="node entity">
<title>Entity34</title>
<ellipse fill="none" stroke="black" cx="2150.17" cy="-2292.24" rx="69.59" ry="18"/>
<text text-anchor="start" x="2104.67" y="-2288.54" font-family="Times New Roman,serif" font-size="14.00">andrew breitbart</text>
</g>
<!-- Entity34&#45;&gt;Entity65 -->
<g id="edge38" class="edge verb">
<title>Entity34&#45;&gt;Entity65</title>
<path fill="none" stroke="black" d="M2153.92,-2273.92C2157.39,-2256.99 2162.59,-2231.58 2166.57,-2212.12"/>
<polygon fill="black" stroke="black" points="2170,-2212.8 2168.58,-2202.3 2163.15,-2211.39 2170,-2212.8"/>
<text text-anchor="start" x="2126.25" y="-2246.82" font-family="Times New Roman,serif" font-size="14.00">create</text>
</g>
<!-- Entity11 -->
<g id="node52" class="node entity">
<title>Entity11</title>
<ellipse fill="none" stroke="black" cx="924.52" cy="-1950.96" rx="35.19" ry="18"/>
<text text-anchor="start" x="905.52" y="-1947.26" font-family="Times New Roman,serif" font-size="14.00">obama</text>
</g>
<!-- Entity11&#45;&gt;Entity57 -->
<g id="edge42" class="edge verb">
<title>Entity11&#45;&gt;Entity57</title>
<path fill="none" stroke="black" d="M936.73,-1934.01C972.17,-1884.84 1075.11,-1741.99 1116.87,-1684.04"/>
<polygon fill="black" stroke="black" points="1119.79,-1685.97 1122.8,-1675.81 1114.11,-1681.87 1119.79,-1685.97"/>
<text text-anchor="start" x="1016.8" y="-1812.82" font-family="Times New Roman,serif" font-size="14.00">is</text>
</g>
<!-- Entity28 -->
<g id="node53" class="node entity">
<title>Entity28</title>
<ellipse fill="none" stroke="black" cx="2593.19" cy="-620.79" rx="58.49" ry="18"/>
<text text-anchor="start" x="2556.19" y="-617.09" font-family="Times New Roman,serif" font-size="14.00">rudolf steiner</text>
</g>
<!-- Entity28&#45;&gt;Entity63 -->
<g id="edge64" class="edge verb">
<title>Entity28&#45;&gt;Entity63</title>
<path fill="none" stroke="black" d="M2551.42,-633.42C2458.12,-661.64 2232.52,-729.86 2125.19,-762.32"/>
<polygon fill="black" stroke="black" points="2124.04,-759.01 2115.49,-765.26 2126.07,-765.71 2124.04,-759.01"/>
<text text-anchor="start" x="2292.31" y="-701.67" font-family="Times New Roman,serif" font-size="14.00">member</text>
</g>
<!-- Entity68 -->
<g id="node54" class="node entity">
<title>Entity68</title>
<ellipse fill="none" stroke="black" cx="2775.1" cy="-512.74" rx="102.08" ry="18"/>
<text text-anchor="start" x="2704.6" y="-509.04" font-family="Times New Roman,serif" font-size="14.00">anthroposophical society</text>
</g>
<!-- Entity28&#45;&gt;Entity68 -->
<g id="edge44" class="edge verb">
<title>Entity28&#45;&gt;Entity68</title>
<path fill="none" stroke="black" d="M2620.42,-604.61C2651.36,-586.24 2702.06,-556.12 2736.93,-535.41"/>
<polygon fill="black" stroke="black" points="2739.06,-538.21 2745.87,-530.1 2735.49,-532.2 2739.06,-538.21"/>
<text text-anchor="start" x="2644.68" y="-573.81" font-family="Times New Roman,serif" font-size="14.00">create</text>
</g>
<!-- Entity80 -->
<g id="node57" class="node entity">
<title>Entity80</title>
<ellipse fill="none" stroke="black" cx="2259.94" cy="-1438.66" rx="27" ry="18"/>
<text text-anchor="start" x="2249.94" y="-1434.96" font-family="Times New Roman,serif" font-size="14.00">foo</text>
</g>
<!-- Entity81 -->
<g id="node58" class="node entity">
<title>Entity81</title>
<ellipse fill="none" stroke="black" cx="2347.66" cy="-1550.64" rx="27" ry="18"/>
<text text-anchor="start" x="2337.66" y="-1546.94" font-family="Times New Roman,serif" font-size="14.00">baz</text>
</g>
<!-- Entity80&#45;&gt;Entity81 -->
<g id="edge53" class="edge verb">
<title>Entity80&#45;&gt;Entity81</title>
<path fill="none" stroke="black" d="M2272.51,-1454.7C2287.23,-1473.5 2311.76,-1504.82 2328.78,-1526.53"/>
<polygon fill="black" stroke="black" points="2326.19,-1528.91 2335.11,-1534.62 2331.7,-1524.59 2326.19,-1528.91"/>
<text text-anchor="start" x="2280.64" y="-1494.42" font-family="Times New Roman,serif" font-size="14.00">baz</text>
</g>
<!-- Entity23 -->
<g id="node60" class="node entity">
<title>Entity23</title>
<ellipse fill="none" stroke="black" cx="54.25" cy="-2160.39" rx="53.89" ry="18"/>
<text text-anchor="start" x="20.75" y="-2156.69" font-family="Times New Roman,serif" font-size="14.00">edgar casey</text>
</g>
<!-- Entity23&#45;&gt;Entity20 -->
<g id="edge58" class="edge verb">
<title>Entity23&#45;&gt;Entity20</title>
<path fill="none" stroke="black" d="M94.11,-2148.15C190.59,-2118.51 436.87,-2042.86 547.29,-2008.94"/>
<polygon fill="black" stroke="black" points="548.38,-2012.27 556.91,-2005.99 546.32,-2005.58 548.38,-2012.27"/>
<text text-anchor="start" x="284.7" y="-2082.35" font-family="Times New Roman,serif" font-size="14.00">advise</text>
</g>
</g>
</svg>
