<?xml version="1.0" encoding="UTF-8" standalone="no"?>
<?xml-stylesheet href="../styles.css" type="text/css"?>
<!DOCTYPE svg PUBLIC "-//W3C//DTD SVG 1.1//EN"
 "http://www.w3.org/Graphics/SVG/1.1/DTD/svg11.dtd">
<!-- Generated by graphviz version 2.47.3 (20210619.1520)
 -->
<!-- Title: G Pages: 1 -->
<svg width="4828pt" height="4906pt"
 viewBox="0.00 0.00 4828.00 4906.00" xmlns="http://www.w3.org/2000/svg" xmlns:xlink="http://www.w3.org/1999/xlink">
<g id="graph0" class="graph" transform="scale(1 1) rotate(0) translate(4 4902)">
<title>G</title>
<polygon fill="white" stroke="transparent" points="-4,4 -4,-4902 4824,-4902 4824,4 -4,4"/>
<!-- Entity5 -->
<g id="node1" class="node entity">
<title>Entity5</title>
<ellipse fill="none" stroke="black" cx="238.2" cy="-2600.43" rx="74.99" ry="18"/>
<text text-anchor="start" x="188.7" y="-2596.73" font-family="Times New Roman,serif" font-size="14.00">gene roddenberry</text>
</g>
<!-- Entity8 -->
<g id="node2" class="node entity">
<title>Entity8</title>
<ellipse fill="none" stroke="black" cx="759.09" cy="-2518.76" rx="38.19" ry="18"/>
<text text-anchor="start" x="737.59" y="-2515.06" font-family="Times New Roman,serif" font-size="14.00">the nine</text>
</g>
<!-- Entity5&#45;&gt;Entity8 -->
<g id="edge1" class="edge verb">
<title>Entity5&#45;&gt;Entity8</title>
<path fill="none" stroke="black" d="M301.03,-2590.58C406.92,-2573.98 618.54,-2540.8 712.4,-2526.09"/>
<polygon fill="black" stroke="black" points="713.11,-2529.52 722.45,-2524.51 712.03,-2522.6 713.11,-2529.52"/>
<text text-anchor="start" x="402.72" y="-2562.13" font-family="Times New Roman,serif" font-size="14.00">claiemd to channel</text>
</g>
<!-- Entity60 -->
<g id="node26" class="node entity">
<title>Entity60</title>
<ellipse fill="none" stroke="black" cx="745.11" cy="-2626.74" rx="94.48" ry="18"/>
<text text-anchor="start" x="680.61" y="-2623.04" font-family="Times New Roman,serif" font-size="14.00">egyptian gods in a ship</text>
</g>
<!-- Entity8&#45;&gt;Entity60 -->
<g id="edge15" class="edge verb">
<title>Entity8&#45;&gt;Entity60</title>
<path fill="none" stroke="black" d="M756.72,-2537.08C754.54,-2553.93 751.27,-2579.18 748.76,-2598.6"/>
<polygon fill="black" stroke="black" points="745.26,-2598.33 747.45,-2608.69 752.21,-2599.22 745.26,-2598.33"/>
<text text-anchor="start" x="722.74" y="-2571.64" font-family="Times New Roman,serif" font-size="14.00">claim</text>
</g>
<!-- Entity14 -->
<g id="node3" class="node entity">
<title>Entity14</title>
<ellipse fill="none" stroke="black" cx="3682.5" cy="-2781.36" rx="64.19" ry="18"/>
<text text-anchor="start" x="3641" y="-2777.66" font-family="Times New Roman,serif" font-size="14.00">john f kennedy</text>
</g>
<!-- Entity57 -->
<g id="node4" class="node entity">
<title>Entity57</title>
<ellipse fill="none" stroke="black" cx="3603.81" cy="-2183.52" rx="31.4" ry="18"/>
<text text-anchor="start" x="3587.81" y="-2179.82" font-family="Times New Roman,serif" font-size="14.00">potus</text>
</g>
<!-- Entity14&#45;&gt;Entity57 -->
<g id="edge2" class="edge verb">
<title>Entity14&#45;&gt;Entity57</title>
<path fill="none" stroke="black" d="M3680.1,-2763.14C3668.85,-2677.62 3621.22,-2315.79 3607.52,-2211.66"/>
<polygon fill="black" stroke="black" points="3610.97,-2211.06 3606.19,-2201.6 3604.03,-2211.97 3610.97,-2211.06"/>
<text text-anchor="start" x="3633.81" y="-2491.2" font-family="Times New Roman,serif" font-size="14.00">is</text>
</g>
<!-- Entity2 -->
<g id="node5" class="node entity">
<title>Entity2</title>
<ellipse fill="none" stroke="black" cx="3447.57" cy="-3470.44" rx="75.29" ry="18"/>
<text text-anchor="start" x="3397.57" y="-3466.74" font-family="Times New Roman,serif" font-size="14.00">lee harvey oswald</text>
</g>
<!-- Entity2&#45;&gt;Entity14 -->
<g id="edge3" class="edge verb">
<title>Entity2&#45;&gt;Entity14</title>
<path fill="none" stroke="black" d="M3453.74,-3452.36C3485.85,-3358.16 3634.05,-2923.48 3673.07,-2809.03"/>
<polygon fill="black" stroke="black" points="3676.38,-2810.16 3676.29,-2799.57 3669.75,-2807.9 3676.38,-2810.16"/>
<text text-anchor="start" x="3501.4" y="-3134.5" font-family="Times New Roman,serif" font-size="14.00">assassinate</text>
</g>
<!-- Entity49 -->
<g id="node46" class="node entity">
<title>Entity49</title>
<ellipse fill="none" stroke="black" cx="3070.91" cy="-4034.74" rx="59.29" ry="18"/>
<text text-anchor="start" x="3033.41" y="-4031.04" font-family="Times New Roman,serif" font-size="14.00">guy bannister</text>
</g>
<!-- Entity2&#45;&gt;Entity49 -->
<g id="edge35" class="edge verb">
<title>Entity2&#45;&gt;Entity49</title>
<path fill="none" stroke="black" d="M3435.68,-3488.26C3380.99,-3570.19 3153.58,-3910.89 3088.43,-4008.49"/>
<polygon fill="black" stroke="black" points="3085.45,-4006.65 3082.81,-4016.91 3091.28,-4010.54 3085.45,-4006.65"/>
<text text-anchor="start" x="3208.05" y="-3752.18" font-family="Times New Roman,serif" font-size="14.00">employee</text>
</g>
<!-- Entity10 -->
<g id="node6" class="node entity">
<title>Entity10</title>
<ellipse fill="none" stroke="black" cx="4080.49" cy="-2250.57" rx="68.49" ry="18"/>
<text text-anchor="start" x="4035.99" y="-2246.87" font-family="Times New Roman,serif" font-size="14.00">george hw bush</text>
</g>
<!-- Entity10&#45;&gt;Entity57 -->
<g id="edge56" class="edge verb">
<title>Entity10&#45;&gt;Entity57</title>
<path fill="none" stroke="black" d="M4020.12,-2242.08C3921.4,-2228.19 3728.03,-2200.99 3644.19,-2189.2"/>
<polygon fill="black" stroke="black" points="3644.68,-2185.73 3634.29,-2187.81 3643.7,-2192.67 3644.68,-2185.73"/>
<text text-anchor="start" x="3822.16" y="-2219.44" font-family="Times New Roman,serif" font-size="14.00">is</text>
</g>
<!-- Entity16 -->
<g id="node7" class="node entity">
<title>Entity16</title>
<ellipse fill="none" stroke="black" cx="3684.73" cy="-2291.51" rx="63.89" ry="18"/>
<text text-anchor="start" x="3643.73" y="-2287.81" font-family="Times New Roman,serif" font-size="14.00">george w bush</text>
</g>
<!-- Entity10&#45;&gt;Entity16 -->
<g id="edge4" class="edge verb">
<title>Entity10&#45;&gt;Entity16</title>
<path fill="none" stroke="black" d="M4016.91,-2257.15C3945.22,-2264.56 3829.02,-2276.58 3754.78,-2284.26"/>
<polygon fill="black" stroke="black" points="3754.18,-2280.81 3744.6,-2285.32 3754.9,-2287.77 3754.18,-2280.81"/>
<text text-anchor="start" x="3853.85" y="-2274.5" font-family="Times New Roman,serif" font-size="14.00">father</text>
</g>
<!-- Entity16&#45;&gt;Entity57 -->
<g id="edge23" class="edge verb">
<title>Entity16&#45;&gt;Entity57</title>
<path fill="none" stroke="black" d="M3671.37,-2273.68C3658.02,-2255.86 3637.37,-2228.31 3622.42,-2208.35"/>
<polygon fill="black" stroke="black" points="3625.19,-2206.22 3616.4,-2200.31 3619.59,-2210.41 3625.19,-2206.22"/>
<text text-anchor="start" x="3636.89" y="-2244.81" font-family="Times New Roman,serif" font-size="14.00">is</text>
</g>
<!-- Entity50 -->
<g id="node8" class="node entity">
<title>Entity50</title>
<ellipse fill="none" stroke="black" cx="2220.05" cy="-4879.68" rx="49.29" ry="18"/>
<text text-anchor="start" x="2190.05" y="-4875.98" font-family="Times New Roman,serif" font-size="14.00">adolf hitler</text>
</g>
<!-- Entity53 -->
<g id="node9" class="node entity">
<title>Entity53</title>
<ellipse fill="none" stroke="black" cx="2212.62" cy="-4459.59" rx="32.49" ry="18"/>
<text text-anchor="start" x="2195.62" y="-4455.89" font-family="Times New Roman,serif" font-size="14.00">nsdap</text>
</g>
<!-- Entity50&#45;&gt;Entity53 -->
<g id="edge5" class="edge verb">
<title>Entity50&#45;&gt;Entity53</title>
<path fill="none" stroke="black" d="M2219.73,-4861.63C2218.57,-4795.93 2214.56,-4569.21 2213.13,-4488.44"/>
<polygon fill="black" stroke="black" points="2216.62,-4487.98 2212.95,-4478.04 2209.62,-4488.11 2216.62,-4487.98"/>
<text text-anchor="start" x="2182.43" y="-4678.83" font-family="Times New Roman,serif" font-size="14.00">create</text>
</g>
<!-- Entity73 -->
<g id="node51" class="node entity">
<title>Entity73</title>
<ellipse fill="none" stroke="black" cx="2641.79" cy="-4355.63" rx="38.99" ry="18"/>
<text text-anchor="start" x="2619.79" y="-4351.93" font-family="Times New Roman,serif" font-size="14.00">far right</text>
</g>
<!-- Entity53&#45;&gt;Entity73 -->
<g id="edge46" class="edge verb">
<title>Entity53&#45;&gt;Entity73</title>
<path fill="none" stroke="black" d="M2242.46,-4452.36C2316.6,-4434.4 2509.54,-4387.66 2597.24,-4366.42"/>
<polygon fill="black" stroke="black" points="2598.26,-4369.78 2607.15,-4364.02 2596.61,-4362.97 2598.26,-4369.78"/>
<text text-anchor="start" x="2373.85" y="-4413.19" font-family="Times New Roman,serif" font-size="14.00">member</text>
</g>
<!-- Entity7 -->
<g id="node10" class="node entity">
<title>Entity7</title>
<ellipse fill="none" stroke="black" cx="3606" cy="-1757.73" rx="56.59" ry="18"/>
<text text-anchor="start" x="3570.5" y="-1754.03" font-family="Times New Roman,serif" font-size="14.00">harry truman</text>
</g>
<!-- Entity7&#45;&gt;Entity57 -->
<g id="edge28" class="edge verb">
<title>Entity7&#45;&gt;Entity57</title>
<path fill="none" stroke="black" d="M3605.91,-1775.76C3605.57,-1842.12 3604.38,-2073.24 3603.96,-2154.78"/>
<polygon fill="black" stroke="black" points="3600.46,-2155.24 3603.91,-2165.26 3607.46,-2155.27 3600.46,-2155.24"/>
<text text-anchor="start" x="3594.94" y="-1969.07" font-family="Times New Roman,serif" font-size="14.00">is</text>
</g>
<!-- Entity55 -->
<g id="node11" class="node entity">
<title>Entity55</title>
<ellipse fill="none" stroke="black" cx="3568.27" cy="-1256.42" rx="55.79" ry="18"/>
<text text-anchor="start" x="3533.27" y="-1252.72" font-family="Times New Roman,serif" font-size="14.00">freemasonry</text>
</g>
<!-- Entity7&#45;&gt;Entity55 -->
<g id="edge6" class="edge verb">
<title>Entity7&#45;&gt;Entity55</title>
<path fill="none" stroke="black" d="M3604.64,-1739.6C3598.98,-1664.37 3577.31,-1376.53 3570.4,-1284.73"/>
<polygon fill="black" stroke="black" points="3573.88,-1284.25 3569.64,-1274.54 3566.9,-1284.77 3573.88,-1284.25"/>
<text text-anchor="start" x="3541.52" y="-1515.96" font-family="Times New Roman,serif" font-size="14.00">member</text>
</g>
<!-- Entity25 -->
<g id="node12" class="node entity">
<title>Entity25</title>
<ellipse fill="none" stroke="black" cx="2668.04" cy="-1215.19" rx="58.49" ry="18"/>
<text text-anchor="start" x="2631.04" y="-1211.49" font-family="Times New Roman,serif" font-size="14.00">steve bannon</text>
</g>
<!-- Entity64 -->
<g id="node13" class="node entity">
<title>Entity64</title>
<ellipse fill="none" stroke="black" cx="2775.4" cy="-776.56" rx="35.19" ry="18"/>
<text text-anchor="start" x="2756.4" y="-772.86" font-family="Times New Roman,serif" font-size="14.00">gurgev</text>
</g>
<!-- Entity25&#45;&gt;Entity64 -->
<g id="edge7" class="edge verb">
<title>Entity25&#45;&gt;Entity64</title>
<path fill="none" stroke="black" d="M2672.45,-1197.17C2689.12,-1129.07 2748.37,-886.97 2768.58,-804.39"/>
<polygon fill="black" stroke="black" points="2772.03,-805.03 2771.01,-794.48 2765.23,-803.36 2772.03,-805.03"/>
<text text-anchor="start" x="2689.52" y="-1004.58" font-family="Times New Roman,serif" font-size="14.00">study</text>
</g>
<!-- Entity65 -->
<g id="node14" class="node entity">
<title>Entity65</title>
<ellipse fill="none" stroke="black" cx="2562.47" cy="-588.96" rx="61.99" ry="18"/>
<text text-anchor="start" x="2522.97" y="-585.26" font-family="Times New Roman,serif" font-size="14.00">breitbart news</text>
</g>
<!-- Entity25&#45;&gt;Entity65 -->
<g id="edge8" class="edge verb">
<title>Entity25&#45;&gt;Entity65</title>
<path fill="none" stroke="black" d="M2665,-1197.12C2650.16,-1109.1 2585.41,-725.04 2567.23,-617.21"/>
<polygon fill="black" stroke="black" points="2570.64,-616.38 2565.52,-607.1 2563.74,-617.54 2570.64,-616.38"/>
<text text-anchor="start" x="2582.11" y="-910.96" font-family="Times New Roman,serif" font-size="14.00">create</text>
</g>
<!-- Entity13 -->
<g id="node15" class="node entity">
<title>Entity13</title>
<ellipse fill="none" stroke="black" cx="3068.2" cy="-1809.27" rx="59.59" ry="18"/>
<text text-anchor="start" x="3030.2" y="-1805.57" font-family="Times New Roman,serif" font-size="14.00">donald trump</text>
</g>
<!-- Entity25&#45;&gt;Entity13 -->
<g id="edge9" class="edge verb">
<title>Entity25&#45;&gt;Entity13</title>
<path fill="none" stroke="black" d="M2677.16,-1233.05C2727.86,-1318.27 2973.32,-1683.06 3047.21,-1783.57"/>
<polygon fill="black" stroke="black" points="3044.45,-1785.73 3053.22,-1791.67 3050.07,-1781.56 3044.45,-1785.73"/>
<text text-anchor="start" x="2826.18" y="-1512.11" font-family="Times New Roman,serif" font-size="14.00">advise</text>
</g>
<!-- Entity25&#45;&gt;Entity13 -->
<g id="edge21" class="edge verb">
<title>Entity25&#45;&gt;Entity13</title>
<path fill="none" stroke="black" d="M2683.05,-1232.83C2746.51,-1317.33 2991.05,-1680.18 3053.64,-1782.4"/>
<polygon fill="black" stroke="black" points="3050.79,-1784.45 3058.96,-1791.2 3056.78,-1780.83 3050.79,-1784.45"/>
<text text-anchor="start" x="2820.35" y="-1496.42" font-family="Times New Roman,serif" font-size="14.00">promote</text>
</g>
<!-- Entity75 -->
<g id="node31" class="node entity">
<title>Entity75</title>
<ellipse fill="none" stroke="black" cx="2329.78" cy="-900.23" rx="38.19" ry="18"/>
<text text-anchor="start" x="2308.28" y="-896.53" font-family="Times New Roman,serif" font-size="14.00">us navy</text>
</g>
<!-- Entity25&#45;&gt;Entity75 -->
<g id="edge18" class="edge verb">
<title>Entity25&#45;&gt;Entity75</title>
<path fill="none" stroke="black" d="M2649.38,-1197.8C2592.15,-1144.52 2419.13,-983.43 2354.5,-923.24"/>
<polygon fill="black" stroke="black" points="2356.87,-920.67 2347.17,-916.42 2352.1,-925.79 2356.87,-920.67"/>
<text text-anchor="start" x="2455.94" y="-1064.32" font-family="Times New Roman,serif" font-size="14.00">member</text>
</g>
<!-- Entity62 -->
<g id="node35" class="node entity">
<title>Entity62</title>
<ellipse fill="none" stroke="black" cx="2442.75" cy="-743.58" rx="53.09" ry="18"/>
<text text-anchor="start" x="2409.75" y="-739.88" font-family="Times New Roman,serif" font-size="14.00">biosphere 2</text>
</g>
<!-- Entity25&#45;&gt;Entity62 -->
<g id="edge24" class="edge verb">
<title>Entity25&#45;&gt;Entity62</title>
<path fill="none" stroke="black" d="M2659.49,-1197.27C2625.12,-1125.34 2497.03,-857.21 2455.69,-770.68"/>
<polygon fill="black" stroke="black" points="2458.78,-769.03 2451.31,-761.51 2452.46,-772.04 2458.78,-769.03"/>
<text text-anchor="start" x="2523.59" y="-987.78" font-family="Times New Roman,serif" font-size="14.00">create</text>
</g>
<!-- Entity76 -->
<g id="node56" class="node entity">
<title>Entity76</title>
<ellipse fill="none" stroke="black" cx="2141.69" cy="-1008.47" rx="64.99" ry="18"/>
<text text-anchor="start" x="2099.69" y="-1004.77" font-family="Times New Roman,serif" font-size="14.00">goldman sachs</text>
</g>
<!-- Entity25&#45;&gt;Entity76 -->
<g id="edge47" class="edge verb">
<title>Entity25&#45;&gt;Entity76</title>
<path fill="none" stroke="black" d="M2631.87,-1200.98C2539.05,-1164.53 2292.52,-1067.7 2188.76,-1026.95"/>
<polygon fill="black" stroke="black" points="2189.76,-1023.59 2179.18,-1023.19 2187.2,-1030.1 2189.76,-1023.59"/>
<text text-anchor="start" x="2356.31" y="-1117.76" font-family="Times New Roman,serif" font-size="14.00">employee</text>
</g>
<!-- Entity79 -->
<g id="node59" class="node entity">
<title>Entity79</title>
<ellipse fill="none" stroke="black" cx="2568.78" cy="-1107.24" rx="77.19" ry="18"/>
<text text-anchor="start" x="2517.28" y="-1103.54" font-family="Times New Roman,serif" font-size="14.00">hollywood movies</text>
</g>
<!-- Entity25&#45;&gt;Entity79 -->
<g id="edge54" class="edge verb">
<title>Entity25&#45;&gt;Entity79</title>
<path fill="none" stroke="black" d="M2652.1,-1197.84C2635.84,-1180.16 2610.46,-1152.56 2591.98,-1132.46"/>
<polygon fill="black" stroke="black" points="2594.36,-1129.89 2585.02,-1124.9 2589.21,-1134.63 2594.36,-1129.89"/>
<text text-anchor="start" x="2575.04" y="-1168.95" font-family="Times New Roman,serif" font-size="14.00">produce</text>
</g>
<!-- Entity13&#45;&gt;Entity57 -->
<g id="edge41" class="edge verb">
<title>Entity13&#45;&gt;Entity57</title>
<path fill="none" stroke="black" d="M3091.9,-1825.83C3178.98,-1886.68 3481.03,-2097.73 3575.41,-2163.67"/>
<polygon fill="black" stroke="black" points="3573.68,-2166.73 3583.88,-2169.59 3577.69,-2161 3573.68,-2166.73"/>
<text text-anchor="start" x="3323.66" y="-1998.55" font-family="Times New Roman,serif" font-size="14.00">is</text>
</g>
<!-- Entity33 -->
<g id="node38" class="node entity">
<title>Entity33</title>
<ellipse fill="none" stroke="black" cx="2540.04" cy="-2031.06" rx="50.09" ry="18"/>
<text text-anchor="start" x="2509.54" y="-2027.36" font-family="Times New Roman,serif" font-size="14.00">john trump</text>
</g>
<!-- Entity13&#45;&gt;Entity33 -->
<g id="edge64" class="edge verb">
<title>Entity13&#45;&gt;Entity33</title>
<path fill="none" stroke="black" d="M3033.13,-1823.99C2939.39,-1863.36 2683.24,-1970.92 2582.01,-2013.44"/>
<polygon fill="black" stroke="black" points="2580.57,-2010.24 2572.71,-2017.34 2583.28,-2016.7 2580.57,-2010.24"/>
<text text-anchor="start" x="2764.57" y="-1922.51" font-family="Times New Roman,serif" font-size="14.00">nephew</text>
</g>
<!-- Entity44 -->
<g id="node16" class="node entity">
<title>Entity44</title>
<ellipse fill="none" stroke="black" cx="1732.71" cy="-4110.31" rx="74.99" ry="18"/>
<text text-anchor="start" x="1683.21" y="-4106.61" font-family="Times New Roman,serif" font-size="14.00">walter dornberger</text>
</g>
<!-- Entity44&#45;&gt;Entity53 -->
<g id="edge22" class="edge verb">
<title>Entity44&#45;&gt;Entity53</title>
<path fill="none" stroke="black" d="M1756.51,-4127.63C1836.88,-4186.12 2097.99,-4376.16 2184.49,-4439.12"/>
<polygon fill="black" stroke="black" points="2182.63,-4442.09 2192.77,-4445.14 2186.75,-4436.43 2182.63,-4442.09"/>
<text text-anchor="start" x="1924.5" y="-4287.17" font-family="Times New Roman,serif" font-size="14.00">member</text>
</g>
<!-- Entity54 -->
<g id="node17" class="node entity">
<title>Entity54</title>
<ellipse fill="none" stroke="black" cx="1333.76" cy="-3587.74" rx="53.89" ry="18"/>
<text text-anchor="start" x="1300.26" y="-3584.04" font-family="Times New Roman,serif" font-size="14.00">bell aviation</text>
</g>
<!-- Entity44&#45;&gt;Entity54 -->
<g id="edge10" class="edge verb">
<title>Entity44&#45;&gt;Entity54</title>
<path fill="none" stroke="black" d="M1722.16,-4092.25C1669.06,-4013.88 1432.58,-3703.77 1356.98,-3612.87"/>
<polygon fill="black" stroke="black" points="1359.49,-3610.42 1350.38,-3605.01 1354.13,-3614.92 1359.49,-3610.42"/>
<text text-anchor="start" x="1460.57" y="-3841.36" font-family="Times New Roman,serif" font-size="14.00">vice&#45;president</text>
</g>
<!-- Entity44&#45;&gt;Entity54 -->
<g id="edge50" class="edge verb">
<title>Entity44&#45;&gt;Entity54</title>
<path fill="none" stroke="black" d="M1715.85,-4092.76C1650.34,-4015.56 1414.26,-3706.49 1349.94,-3613.99"/>
<polygon fill="black" stroke="black" points="1352.65,-3611.75 1344.1,-3605.48 1346.88,-3615.71 1352.65,-3611.75"/>
<text text-anchor="start" x="1478.9" y="-3857.18" font-family="Times New Roman,serif" font-size="14.00">employee</text>
</g>
<!-- Entity72 -->
<g id="node23" class="node entity">
<title>Entity72</title>
<ellipse fill="none" stroke="black" cx="1236.6" cy="-4293.36" rx="90.98" ry="18"/>
<text text-anchor="start" x="1174.6" y="-4289.66" font-family="Times New Roman,serif" font-size="14.00">nsdap rocket program</text>
</g>
<!-- Entity44&#45;&gt;Entity72 -->
<g id="edge67" class="edge verb">
<title>Entity44&#45;&gt;Entity72</title>
<path fill="none" stroke="black" d="M1691.69,-4125.45C1602.05,-4158.52 1388.76,-4237.22 1289.32,-4273.91"/>
<polygon fill="black" stroke="black" points="1287.95,-4270.68 1279.78,-4277.43 1290.37,-4277.25 1287.95,-4270.68"/>
<text text-anchor="start" x="1456.51" y="-4203.48" font-family="Times New Roman,serif" font-size="14.00">create</text>
</g>
<!-- Entity74 -->
<g id="node55" class="node entity">
<title>Entity74</title>
<ellipse fill="none" stroke="black" cx="2096.45" cy="-4248.23" rx="65.79" ry="18"/>
<text text-anchor="start" x="2053.95" y="-4244.53" font-family="Times New Roman,serif" font-size="14.00">x series aircraft</text>
</g>
<!-- Entity44&#45;&gt;Entity74 -->
<g id="edge45" class="edge verb">
<title>Entity44&#45;&gt;Entity74</title>
<path fill="none" stroke="black" d="M1773.03,-4125.6C1840.42,-4151.15 1975.69,-4202.44 2048.09,-4229.89"/>
<polygon fill="black" stroke="black" points="2047.29,-4233.33 2057.88,-4233.6 2049.77,-4226.78 2047.29,-4233.33"/>
<text text-anchor="start" x="1876.56" y="-4181.54" font-family="Times New Roman,serif" font-size="14.00">create</text>
</g>
<!-- Entity52 -->
<g id="node18" class="node entity">
<title>Entity52</title>
<ellipse fill="none" stroke="black" cx="3376.37" cy="-2781" rx="37.89" ry="18"/>
<text text-anchor="start" x="3355.37" y="-2777.3" font-family="Times New Roman,serif" font-size="14.00">hunt oil</text>
</g>
<!-- Entity45 -->
<g id="node19" class="node entity">
<title>Entity45</title>
<ellipse fill="none" stroke="black" cx="3489.46" cy="-2673" rx="77.99" ry="18"/>
<text text-anchor="start" x="3437.46" y="-2669.3" font-family="Times New Roman,serif" font-size="14.00">dwight eisenhower</text>
</g>
<!-- Entity52&#45;&gt;Entity45 -->
<g id="edge11" class="edge verb">
<title>Entity52&#45;&gt;Entity45</title>
<path fill="none" stroke="black" d="M3393.55,-2764.59C3412.15,-2746.83 3442.03,-2718.29 3463.5,-2697.79"/>
<polygon fill="black" stroke="black" points="3466.18,-2700.08 3470.99,-2690.64 3461.34,-2695.01 3466.18,-2700.08"/>
<text text-anchor="start" x="3402.52" y="-2734.99" font-family="Times New Roman,serif" font-size="14.00">fund</text>
</g>
<!-- Entity45&#45;&gt;Entity57 -->
<g id="edge51" class="edge verb">
<title>Entity45&#45;&gt;Entity57</title>
<path fill="none" stroke="black" d="M3493.67,-2655C3510.92,-2581.17 3576.33,-2301.19 3597.3,-2211.41"/>
<polygon fill="black" stroke="black" points="3600.76,-2211.96 3599.63,-2201.43 3593.95,-2210.37 3600.76,-2211.96"/>
<text text-anchor="start" x="3535.48" y="-2437" font-family="Times New Roman,serif" font-size="14.00">is</text>
</g>
<!-- Entity17 -->
<g id="node20" class="node entity">
<title>Entity17</title>
<ellipse fill="none" stroke="black" cx="3149.23" cy="-2290.05" rx="31.4" ry="18"/>
<text text-anchor="start" x="3133.23" y="-2286.35" font-family="Times New Roman,serif" font-size="14.00">carter</text>
</g>
<!-- Entity17&#45;&gt;Entity57 -->
<g id="edge52" class="edge verb">
<title>Entity17&#45;&gt;Entity57</title>
<path fill="none" stroke="black" d="M3178.36,-2283.22C3257.33,-2264.72 3475.54,-2213.58 3564.89,-2192.64"/>
<polygon fill="black" stroke="black" points="3565.7,-2196.05 3574.64,-2190.36 3564.1,-2189.23 3565.7,-2196.05"/>
<text text-anchor="start" x="3361.63" y="-2241.73" font-family="Times New Roman,serif" font-size="14.00">is</text>
</g>
<!-- Entity61 -->
<g id="node21" class="node entity">
<title>Entity61</title>
<ellipse fill="none" stroke="black" cx="2711.14" cy="-2362.72" rx="27" ry="18"/>
<text text-anchor="start" x="2701.64" y="-2359.02" font-family="Times New Roman,serif" font-size="14.00">ufo</text>
</g>
<!-- Entity17&#45;&gt;Entity61 -->
<g id="edge12" class="edge verb">
<title>Entity17&#45;&gt;Entity61</title>
<path fill="none" stroke="black" d="M3119.12,-2295.05C3040.99,-2308.01 2832.01,-2342.67 2747.42,-2356.7"/>
<polygon fill="black" stroke="black" points="2746.8,-2353.26 2737.51,-2358.35 2747.94,-2360.16 2746.8,-2353.26"/>
<text text-anchor="start" x="2891.27" y="-2329.67" font-family="Times New Roman,serif" font-size="14.00">witness</text>
</g>
<!-- Entity48 -->
<g id="node22" class="node entity">
<title>Entity48</title>
<ellipse fill="none" stroke="black" cx="1528.68" cy="-4401.36" rx="46.29" ry="18"/>
<text text-anchor="start" x="1501.18" y="-4397.66" font-family="Times New Roman,serif" font-size="14.00">van braun</text>
</g>
<!-- Entity48&#45;&gt;Entity44 -->
<g id="edge26" class="edge verb">
<title>Entity48&#45;&gt;Entity44</title>
<path fill="none" stroke="black" d="M1541.14,-4383.6C1575.78,-4334.17 1673.42,-4194.89 1714.33,-4136.54"/>
<polygon fill="black" stroke="black" points="1717.29,-4138.41 1720.16,-4128.22 1711.56,-4134.4 1717.29,-4138.41"/>
<text text-anchor="start" x="1573.73" y="-4263.87" font-family="Times New Roman,serif" font-size="14.00">employee</text>
</g>
<!-- Entity48&#45;&gt;Entity72 -->
<g id="edge13" class="edge verb">
<title>Entity48&#45;&gt;Entity72</title>
<path fill="none" stroke="black" d="M1495.18,-4388.98C1444.79,-4370.34 1349.04,-4334.94 1289.26,-4312.83"/>
<polygon fill="black" stroke="black" points="1290.21,-4309.46 1279.62,-4309.27 1287.79,-4316.02 1290.21,-4309.46"/>
<text text-anchor="start" x="1338.22" y="-4354.7" font-family="Times New Roman,serif" font-size="14.00">employee</text>
</g>
<!-- Entity4 -->
<g id="node24" class="node entity">
<title>Entity4</title>
<ellipse fill="none" stroke="black" cx="64.3" cy="-2128.3" rx="64.19" ry="18"/>
<text text-anchor="start" x="22.8" y="-2124.6" font-family="Times New Roman,serif" font-size="14.00">andre puharich</text>
</g>
<!-- Entity1 -->
<g id="node25" class="node entity">
<title>Entity1</title>
<ellipse fill="none" stroke="black" cx="540.9" cy="-2272.53" rx="41.69" ry="18"/>
<text text-anchor="start" x="516.9" y="-2268.83" font-family="Times New Roman,serif" font-size="14.00">uri geller</text>
</g>
<!-- Entity4&#45;&gt;Entity1 -->
<g id="edge14" class="edge verb">
<title>Entity4&#45;&gt;Entity1</title>
<path fill="none" stroke="black" d="M108.28,-2141.61C199.02,-2169.07 406.05,-2231.72 496.85,-2259.2"/>
<polygon fill="black" stroke="black" points="495.97,-2262.59 506.55,-2262.14 498,-2255.89 495.97,-2262.59"/>
<text text-anchor="start" x="250.56" y="-2204.21" font-family="Times New Roman,serif" font-size="14.00">sponsore</text>
</g>
<!-- Entity1&#45;&gt;Entity8 -->
<g id="edge60" class="edge verb">
<title>Entity1&#45;&gt;Entity8</title>
<path fill="none" stroke="black" d="M555.9,-2289.45C593.75,-2332.17 693.26,-2444.47 737.44,-2494.33"/>
<polygon fill="black" stroke="black" points="735.03,-2496.88 744.28,-2502.05 740.27,-2492.24 735.03,-2496.88"/>
<text text-anchor="start" x="542.67" y="-2395.69" font-family="Times New Roman,serif" font-size="14.00">claiemd to channel</text>
</g>
<!-- Entity21 -->
<g id="node27" class="node entity">
<title>Entity21</title>
<ellipse fill="none" stroke="black" cx="1231.04" cy="-2553.39" rx="63.89" ry="18"/>
<text text-anchor="start" x="1190.04" y="-2549.69" font-family="Times New Roman,serif" font-size="14.00">robert bigelow</text>
</g>
<!-- Entity6 -->
<g id="node28" class="node entity">
<title>Entity6</title>
<ellipse fill="none" stroke="black" cx="1079.23" cy="-2445.39" rx="68.49" ry="18"/>
<text text-anchor="start" x="1034.73" y="-2441.69" font-family="Times New Roman,serif" font-size="14.00">jeffrey mishlove</text>
</g>
<!-- Entity21&#45;&gt;Entity6 -->
<g id="edge16" class="edge verb">
<title>Entity21&#45;&gt;Entity6</title>
<path fill="none" stroke="black" d="M1207.32,-2536.52C1181.55,-2518.18 1140.23,-2488.78 1111.51,-2468.35"/>
<polygon fill="black" stroke="black" points="1113.21,-2465.27 1103.04,-2462.32 1109.15,-2470.97 1113.21,-2465.27"/>
<text text-anchor="start" x="1127.42" y="-2506.23" font-family="Times New Roman,serif" font-size="14.00">funds</text>
</g>
<!-- Entity56 -->
<g id="node42" class="node entity">
<title>Entity56</title>
<ellipse fill="none" stroke="black" cx="1704.06" cy="-2572.97" rx="77.19" ry="18"/>
<text text-anchor="start" x="1652.56" y="-2569.27" font-family="Times New Roman,serif" font-size="14.00">psi&#45;consciousness</text>
</g>
<!-- Entity21&#45;&gt;Entity56 -->
<g id="edge48" class="edge verb">
<title>Entity21&#45;&gt;Entity56</title>
<path fill="none" stroke="black" d="M1294.35,-2556.01C1377.57,-2559.46 1524.15,-2565.52 1617.56,-2569.39"/>
<polygon fill="black" stroke="black" points="1617.7,-2572.9 1627.84,-2569.81 1617.99,-2565.9 1617.7,-2572.9"/>
<text text-anchor="start" x="1391.95" y="-2566.5" font-family="Times New Roman,serif" font-size="14.00">investigates</text>
</g>
<!-- Entity6&#45;&gt;Entity1 -->
<g id="edge61" class="edge verb">
<title>Entity6&#45;&gt;Entity1</title>
<path fill="none" stroke="black" d="M1035.63,-2431.39C934.5,-2398.91 684.89,-2318.76 584.12,-2286.41"/>
<polygon fill="black" stroke="black" points="585.15,-2283.06 574.56,-2283.34 583.01,-2289.73 585.15,-2283.06"/>
<text text-anchor="start" x="761.88" y="-2362.7" font-family="Times New Roman,serif" font-size="14.00">promote</text>
</g>
<!-- Entity6&#45;&gt;Entity56 -->
<g id="edge31" class="edge verb">
<title>Entity6&#45;&gt;Entity56</title>
<path fill="none" stroke="black" d="M1125.44,-2458.67C1232.03,-2484.19 1495.99,-2538.36 1627.32,-2561.99"/>
<polygon fill="black" stroke="black" points="1626.85,-2565.46 1637.31,-2563.77 1628.08,-2558.57 1626.85,-2565.46"/>
<text text-anchor="start" x="1312.38" y="-2514.13" font-family="Times New Roman,serif" font-size="14.00">investigates</text>
</g>
<!-- Entity6&#45;&gt;Entity56 -->
<g id="edge63" class="edge verb">
<title>Entity6&#45;&gt;Entity56</title>
<path fill="none" stroke="black" d="M1140.26,-2453.58C1260.42,-2474.62 1526.24,-2528.9 1644.89,-2556.62"/>
<polygon fill="black" stroke="black" points="1644.34,-2560.09 1654.88,-2558.97 1645.95,-2553.27 1644.34,-2560.09"/>
<text text-anchor="start" x="1361.57" y="-2493.9" font-family="Times New Roman,serif" font-size="14.00">study</text>
</g>
<!-- Entity29 -->
<g id="node29" class="node entity">
<title>Entity29</title>
<ellipse fill="none" stroke="black" cx="4467.75" cy="-982.62" rx="73.39" ry="18"/>
<text text-anchor="start" x="4419.25" y="-978.92" font-family="Times New Roman,serif" font-size="14.00">madam blavatsky</text>
</g>
<!-- Entity63 -->
<g id="node30" class="node entity">
<title>Entity63</title>
<ellipse fill="none" stroke="black" cx="3881.46" cy="-1382.52" rx="85.29" ry="18"/>
<text text-anchor="start" x="3823.96" y="-1378.82" font-family="Times New Roman,serif" font-size="14.00">theosophical society</text>
</g>
<!-- Entity29&#45;&gt;Entity63 -->
<g id="edge17" class="edge verb">
<title>Entity29&#45;&gt;Entity63</title>
<path fill="none" stroke="black" d="M4442.56,-999.8C4349.07,-1063.57 4021.98,-1286.68 3915.35,-1359.41"/>
<polygon fill="black" stroke="black" points="3913.18,-1356.65 3906.89,-1365.18 3917.13,-1362.44 3913.18,-1356.65"/>
<text text-anchor="start" x="4144.95" y="-1183.41" font-family="Times New Roman,serif" font-size="14.00">create</text>
</g>
<!-- Entity41 -->
<g id="node32" class="node entity">
<title>Entity41</title>
<ellipse fill="none" stroke="black" cx="3723.57" cy="-1598.56" rx="67.69" ry="18"/>
<text text-anchor="start" x="3679.57" y="-1594.86" font-family="Times New Roman,serif" font-size="14.00">abraham lincoln</text>
</g>
<!-- Entity41&#45;&gt;Entity57 -->
<g id="edge19" class="edge verb">
<title>Entity41&#45;&gt;Entity57</title>
<path fill="none" stroke="black" d="M3719.85,-1616.7C3702.62,-1700.89 3630.41,-2053.59 3609.51,-2155.71"/>
<polygon fill="black" stroke="black" points="3606.06,-2155.09 3607.49,-2165.59 3612.92,-2156.49 3606.06,-2155.09"/>
<text text-anchor="start" x="3654.68" y="-1890.01" font-family="Times New Roman,serif" font-size="14.00">is</text>
</g>
<!-- Entity36 -->
<g id="node33" class="node entity">
<title>Entity36</title>
<ellipse fill="none" stroke="black" cx="3723.02" cy="-1490.5" rx="90.98" ry="18"/>
<text text-anchor="start" x="3661.02" y="-1486.8" font-family="Times New Roman,serif" font-size="14.00">emma hardinge&#45;britten</text>
</g>
<!-- Entity36&#45;&gt;Entity63 -->
<g id="edge66" class="edge verb">
<title>Entity36&#45;&gt;Entity63</title>
<path fill="none" stroke="black" d="M3748.48,-1473.15C3775.39,-1454.81 3817.97,-1425.79 3847.68,-1405.55"/>
<polygon fill="black" stroke="black" points="3849.78,-1408.35 3856.07,-1399.83 3845.84,-1402.57 3849.78,-1408.35"/>
<text text-anchor="start" x="3764.08" y="-1443.15" font-family="Times New Roman,serif" font-size="14.00">create</text>
</g>
<!-- Entity36&#45;&gt;Entity41 -->
<g id="edge32" class="edge verb">
<title>Entity36&#45;&gt;Entity41</title>
<path fill="none" stroke="black" d="M3723.11,-1508.83C3723.2,-1525.7 3723.33,-1550.97 3723.43,-1570.39"/>
<polygon fill="black" stroke="black" points="3719.93,-1570.51 3723.48,-1580.5 3726.93,-1570.48 3719.93,-1570.51"/>
<text text-anchor="start" x="3644.27" y="-1543.41" font-family="Times New Roman,serif" font-size="14.00">spokesperson</text>
</g>
<!-- Entity78 -->
<g id="node34" class="node entity">
<title>Entity78</title>
<ellipse fill="none" stroke="black" cx="4128.5" cy="-1059.76" rx="39.79" ry="18"/>
<text text-anchor="start" x="4106" y="-1056.06" font-family="Times New Roman,serif" font-size="14.00">medium</text>
</g>
<!-- Entity36&#45;&gt;Entity78 -->
<g id="edge20" class="edge verb">
<title>Entity36&#45;&gt;Entity78</title>
<path fill="none" stroke="black" d="M3739.93,-1472.54C3804.12,-1404.35 4032.82,-1161.4 4105.88,-1083.78"/>
<polygon fill="black" stroke="black" points="4108.54,-1086.06 4112.84,-1076.38 4103.44,-1081.26 4108.54,-1086.06"/>
<text text-anchor="start" x="3912.9" y="-1281.96" font-family="Times New Roman,serif" font-size="14.00">is</text>
</g>
<!-- Entity70 -->
<g id="node61" class="node entity">
<title>Entity70</title>
<ellipse fill="none" stroke="black" cx="4345.99" cy="-1308.21" rx="55.79" ry="18"/>
<text text-anchor="start" x="4310.99" y="-1304.51" font-family="Times New Roman,serif" font-size="14.00">orphic circle</text>
</g>
<!-- Entity36&#45;&gt;Entity70 -->
<g id="edge65" class="edge verb">
<title>Entity36&#45;&gt;Entity70</title>
<path fill="none" stroke="black" d="M3774,-1475.58C3890.9,-1441.38 4177.2,-1357.6 4294.54,-1323.26"/>
<polygon fill="black" stroke="black" points="4295.75,-1326.56 4304.37,-1320.39 4293.78,-1319.84 4295.75,-1326.56"/>
<text text-anchor="start" x="3988.27" y="-1403.22" font-family="Times New Roman,serif" font-size="14.00">member</text>
</g>
<!-- Entity40 -->
<g id="node36" class="node entity">
<title>Entity40</title>
<ellipse fill="none" stroke="black" cx="2109.94" cy="-3101.66" rx="53.89" ry="18"/>
<text text-anchor="start" x="2076.44" y="-3097.96" font-family="Times New Roman,serif" font-size="14.00">black magic</text>
</g>
<!-- Entity69 -->
<g id="node37" class="node entity">
<title>Entity69</title>
<ellipse fill="none" stroke="black" cx="2197.66" cy="-3213.64" rx="28.7" ry="18"/>
<text text-anchor="start" x="2183.66" y="-3209.94" font-family="Times New Roman,serif" font-size="14.00">x left</text>
</g>
<!-- Entity40&#45;&gt;Entity69 -->
<g id="edge25" class="edge verb">
<title>Entity40&#45;&gt;Entity69</title>
<path fill="none" stroke="black" d="M2123.64,-3119.16C2138.45,-3138.05 2162.14,-3168.29 2178.72,-3189.45"/>
<polygon fill="black" stroke="black" points="2175.98,-3191.64 2184.9,-3197.36 2181.49,-3187.32 2175.98,-3191.64"/>
<text text-anchor="start" x="2105.18" y="-3158.11" font-family="Times New Roman,serif" font-size="14.00">member</text>
</g>
<!-- Entity15 -->
<g id="node39" class="node entity">
<title>Entity15</title>
<ellipse fill="none" stroke="black" cx="2293.09" cy="-2382.21" rx="27" ry="18"/>
<text text-anchor="start" x="2285.09" y="-2378.51" font-family="Times New Roman,serif" font-size="14.00">cia</text>
</g>
<!-- Entity33&#45;&gt;Entity15 -->
<g id="edge27" class="edge verb">
<title>Entity33&#45;&gt;Entity15</title>
<path fill="none" stroke="black" d="M2527.45,-2048.96C2486.63,-2107.01 2357.81,-2290.19 2310.63,-2357.28"/>
<polygon fill="black" stroke="black" points="2307.67,-2355.4 2304.78,-2365.59 2313.4,-2359.42 2307.67,-2355.4"/>
<text text-anchor="start" x="2373.04" y="-2206.92" font-family="Times New Roman,serif" font-size="14.00">member</text>
</g>
<!-- Entity77 -->
<g id="node50" class="node entity">
<title>Entity77</title>
<ellipse fill="none" stroke="black" cx="2118.18" cy="-1869.95" rx="50.89" ry="18"/>
<text text-anchor="start" x="2087.18" y="-1866.25" font-family="Times New Roman,serif" font-size="14.00">nikola tesla</text>
</g>
<!-- Entity33&#45;&gt;Entity77 -->
<g id="edge39" class="edge verb">
<title>Entity33&#45;&gt;Entity77</title>
<path fill="none" stroke="black" d="M2505.52,-2017.88C2429.33,-1988.78 2246.88,-1919.1 2162.44,-1886.85"/>
<polygon fill="black" stroke="black" points="2163.47,-1883.5 2152.88,-1883.2 2160.98,-1890.04 2163.47,-1883.5"/>
<text text-anchor="start" x="2302.98" y="-1956.16" font-family="Times New Roman,serif" font-size="14.00">study</text>
</g>
<!-- Entity15&#45;&gt;Entity61 -->
<g id="edge55" class="edge verb">
<title>Entity15&#45;&gt;Entity61</title>
<path fill="none" stroke="black" d="M2320.2,-2380.95C2392.65,-2377.57 2590.91,-2368.33 2673.87,-2364.46"/>
<polygon fill="black" stroke="black" points="2674.26,-2367.94 2684.09,-2363.98 2673.94,-2360.95 2674.26,-2367.94"/>
<text text-anchor="start" x="2433.03" y="-2376.5" font-family="Times New Roman,serif" font-size="14.00">investigates</text>
</g>
<!-- Entity15&#45;&gt;Entity56 -->
<g id="edge42" class="edge verb">
<title>Entity15&#45;&gt;Entity56</title>
<path fill="none" stroke="black" d="M2268.53,-2390.17C2181.09,-2418.49 1883.5,-2514.86 1759.26,-2555.09"/>
<polygon fill="black" stroke="black" points="1757.99,-2551.83 1749.56,-2558.24 1760.15,-2558.49 1757.99,-2551.83"/>
<text text-anchor="start" x="1949.9" y="-2476.43" font-family="Times New Roman,serif" font-size="14.00">investigates</text>
</g>
<!-- Entity20 -->
<g id="node40" class="node entity">
<title>Entity20</title>
<ellipse fill="none" stroke="black" cx="4196" cy="-2407.33" rx="71.49" ry="18"/>
<text text-anchor="start" x="4149" y="-2403.63" font-family="Times New Roman,serif" font-size="14.00">woodrow wilson</text>
</g>
<!-- Entity20&#45;&gt;Entity57 -->
<g id="edge30" class="edge verb">
<title>Entity20&#45;&gt;Entity57</title>
<path fill="none" stroke="black" d="M4156.22,-2392.3C4047.07,-2351.05 3744.03,-2236.52 3639.67,-2197.07"/>
<polygon fill="black" stroke="black" points="3640.8,-2193.76 3630.21,-2193.5 3638.33,-2200.31 3640.8,-2193.76"/>
<text text-anchor="start" x="3887.95" y="-2298.49" font-family="Times New Roman,serif" font-size="14.00">is</text>
</g>
<!-- Entity66 -->
<g id="node41" class="node entity">
<title>Entity66</title>
<ellipse fill="none" stroke="black" cx="4742.93" cy="-2726.78" rx="71.49" ry="18"/>
<text text-anchor="start" x="4695.93" y="-2723.08" font-family="Times New Roman,serif" font-size="14.00">leauge of nations</text>
</g>
<!-- Entity20&#45;&gt;Entity66 -->
<g id="edge29" class="edge verb">
<title>Entity20&#45;&gt;Entity66</title>
<path fill="none" stroke="black" d="M4224.63,-2424.06C4316.38,-2477.64 4603,-2645.05 4705.78,-2705.09"/>
<polygon fill="black" stroke="black" points="4704.17,-2708.2 4714.57,-2710.22 4707.7,-2702.16 4704.17,-2708.2"/>
<text text-anchor="start" x="4431.21" y="-2568.37" font-family="Times New Roman,serif" font-size="14.00">create</text>
</g>
<!-- Entity42 -->
<g id="node43" class="node entity">
<title>Entity42</title>
<ellipse fill="none" stroke="black" cx="2609.94" cy="-2844.66" rx="39.79" ry="18"/>
<text text-anchor="start" x="2587.44" y="-2840.96" font-family="Times New Roman,serif" font-size="14.00">crowley</text>
</g>
<!-- Entity71 -->
<g id="node44" class="node entity">
<title>Entity71</title>
<ellipse fill="none" stroke="black" cx="2697.66" cy="-2956.64" rx="38.99" ry="18"/>
<text text-anchor="start" x="2675.66" y="-2952.94" font-family="Times New Roman,serif" font-size="14.00">x magic</text>
</g>
<!-- Entity42&#45;&gt;Entity71 -->
<g id="edge33" class="edge verb">
<title>Entity42&#45;&gt;Entity71</title>
<path fill="none" stroke="black" d="M2623.26,-2861.67C2637.82,-2880.25 2661.28,-2910.2 2677.96,-2931.49"/>
<polygon fill="black" stroke="black" points="2675.29,-2933.76 2684.21,-2939.47 2680.8,-2929.44 2675.29,-2933.76"/>
<text text-anchor="start" x="2604.61" y="-2900.38" font-family="Times New Roman,serif" font-size="14.00">member</text>
</g>
<!-- Entity39 -->
<g id="node45" class="node entity">
<title>Entity39</title>
<ellipse fill="none" stroke="black" cx="1199.91" cy="-4035.16" rx="57.69" ry="18"/>
<text text-anchor="start" x="1163.41" y="-4031.46" font-family="Times New Roman,serif" font-size="14.00">michael pane</text>
</g>
<!-- Entity39&#45;&gt;Entity44 -->
<g id="edge34" class="edge verb">
<title>Entity39&#45;&gt;Entity44</title>
<path fill="none" stroke="black" d="M1252.95,-4042.64C1348.28,-4056.08 1548.82,-4084.37 1658.02,-4099.77"/>
<polygon fill="black" stroke="black" points="1657.58,-4103.25 1667.97,-4101.18 1658.56,-4096.32 1657.58,-4103.25"/>
<text text-anchor="start" x="1401.48" y="-4075.01" font-family="Times New Roman,serif" font-size="14.00">employee</text>
</g>
<!-- Entity39&#45;&gt;Entity54 -->
<g id="edge49" class="edge verb">
<title>Entity39&#45;&gt;Entity54</title>
<path fill="none" stroke="black" d="M1205.32,-4017.06C1226.03,-3947.85 1300.3,-3699.58 1325.4,-3615.68"/>
<polygon fill="black" stroke="black" points="1328.77,-3616.65 1328.28,-3606.06 1322.06,-3614.64 1328.77,-3616.65"/>
<text text-anchor="start" x="1211.36" y="-3820.17" font-family="Times New Roman,serif" font-size="14.00">employee</text>
</g>
<!-- Entity49&#45;&gt;Entity73 -->
<g id="edge40" class="edge verb">
<title>Entity49&#45;&gt;Entity73</title>
<path fill="none" stroke="black" d="M3048.45,-4051.54C2976.4,-4105.41 2751.17,-4273.83 2670.72,-4334"/>
<polygon fill="black" stroke="black" points="2668.43,-4331.34 2662.52,-4340.13 2672.62,-4336.95 2668.43,-4331.34"/>
<text text-anchor="start" x="2813.58" y="-4196.57" font-family="Times New Roman,serif" font-size="14.00">member</text>
</g>
<!-- Entity3 -->
<g id="node47" class="node entity">
<title>Entity3</title>
<ellipse fill="none" stroke="black" cx="1148.19" cy="-2965.3" rx="65.79" ry="18"/>
<text text-anchor="start" x="1105.69" y="-2961.6" font-family="Times New Roman,serif" font-size="14.00">arthur m young</text>
</g>
<!-- Entity3&#45;&gt;Entity8 -->
<g id="edge59" class="edge verb">
<title>Entity3&#45;&gt;Entity8</title>
<path fill="none" stroke="black" d="M1132.7,-2947.52C1072.03,-2877.89 850.48,-2623.64 780.46,-2543.28"/>
<polygon fill="black" stroke="black" points="783,-2540.87 773.79,-2535.63 777.72,-2545.47 783,-2540.87"/>
<text text-anchor="start" x="910.58" y="-2749.2" font-family="Times New Roman,serif" font-size="14.00">member</text>
</g>
<!-- Entity3&#45;&gt;Entity54 -->
<g id="edge62" class="edge verb">
<title>Entity3&#45;&gt;Entity54</title>
<path fill="none" stroke="black" d="M1153.54,-2983.26C1179.65,-3070.84 1293.67,-3453.25 1325.49,-3559.99"/>
<polygon fill="black" stroke="black" points="1322.18,-3561.13 1328.39,-3569.71 1328.88,-3559.13 1322.18,-3561.13"/>
<text text-anchor="start" x="1205.52" y="-3275.42" font-family="Times New Roman,serif" font-size="14.00">create</text>
</g>
<!-- Entity3&#45;&gt;Entity56 -->
<g id="edge36" class="edge verb">
<title>Entity3&#45;&gt;Entity56</title>
<path fill="none" stroke="black" d="M1172.08,-2948.44C1260.52,-2886.02 1569.51,-2667.94 1671.28,-2596.11"/>
<polygon fill="black" stroke="black" points="1673.49,-2598.83 1679.64,-2590.21 1669.45,-2593.11 1673.49,-2598.83"/>
<text text-anchor="start" x="1390.68" y="-2776.08" font-family="Times New Roman,serif" font-size="14.00">study</text>
</g>
<!-- Entity19 -->
<g id="node48" class="node entity">
<title>Entity19</title>
<ellipse fill="none" stroke="black" cx="4028.42" cy="-2056.86" rx="58.49" ry="18"/>
<text text-anchor="start" x="3991.42" y="-2053.16" font-family="Times New Roman,serif" font-size="14.00">richard nixon</text>
</g>
<!-- Entity19&#45;&gt;Entity57 -->
<g id="edge37" class="edge verb">
<title>Entity19&#45;&gt;Entity57</title>
<path fill="none" stroke="black" d="M3986.16,-2069.47C3903.35,-2094.17 3720.93,-2148.59 3641.74,-2172.21"/>
<polygon fill="black" stroke="black" points="3640.3,-2168.99 3631.72,-2175.2 3642.3,-2175.69 3640.3,-2168.99"/>
<text text-anchor="start" x="3803.95" y="-2124.64" font-family="Times New Roman,serif" font-size="14.00">is</text>
</g>
<!-- Entity34 -->
<g id="node49" class="node entity">
<title>Entity34</title>
<ellipse fill="none" stroke="black" cx="2422.9" cy="-18.28" rx="69.59" ry="18"/>
<text text-anchor="start" x="2377.4" y="-14.58" font-family="Times New Roman,serif" font-size="14.00">andrew breitbart</text>
</g>
<!-- Entity34&#45;&gt;Entity65 -->
<g id="edge38" class="edge verb">
<title>Entity34&#45;&gt;Entity65</title>
<path fill="none" stroke="black" d="M2427.3,-36.3C2447.49,-118.83 2531.16,-460.94 2555.68,-561.22"/>
<polygon fill="black" stroke="black" points="2552.28,-562.05 2558.06,-570.93 2559.08,-560.39 2552.28,-562.05"/>
<text text-anchor="start" x="2457.49" y="-302.56" font-family="Times New Roman,serif" font-size="14.00">create</text>
</g>
<!-- Entity11 -->
<g id="node52" class="node entity">
<title>Entity11</title>
<ellipse fill="none" stroke="black" cx="3871.92" cy="-2433.43" rx="35.19" ry="18"/>
<text text-anchor="start" x="3852.92" y="-2429.73" font-family="Times New Roman,serif" font-size="14.00">obama</text>
</g>
<!-- Entity11&#45;&gt;Entity57 -->
<g id="edge43" class="edge verb">
<title>Entity11&#45;&gt;Entity57</title>
<path fill="none" stroke="black" d="M3854.74,-2417.42C3808.57,-2374.38 3681.68,-2256.11 3628.15,-2206.21"/>
<polygon fill="black" stroke="black" points="3630.21,-2203.34 3620.51,-2199.08 3625.43,-2208.46 3630.21,-2203.34"/>
<text text-anchor="start" x="3731.44" y="-2315.61" font-family="Times New Roman,serif" font-size="14.00">is</text>
</g>
<!-- Entity28 -->
<g id="node53" class="node entity">
<title>Entity28</title>
<ellipse fill="none" stroke="black" cx="3777" cy="-953.5" rx="58.49" ry="18"/>
<text text-anchor="start" x="3740" y="-949.8" font-family="Times New Roman,serif" font-size="14.00">rudolf steiner</text>
</g>
<!-- Entity28&#45;&gt;Entity63 -->
<g id="edge57" class="edge verb">
<title>Entity28&#45;&gt;Entity63</title>
<path fill="none" stroke="black" d="M3781.42,-971.66C3797.74,-1038.67 3854.64,-1272.36 3874.53,-1354.06"/>
<polygon fill="black" stroke="black" points="3871.22,-1355.23 3876.98,-1364.12 3878.02,-1353.57 3871.22,-1355.23"/>
<text text-anchor="start" x="3781.98" y="-1166.66" font-family="Times New Roman,serif" font-size="14.00">member</text>
</g>
<!-- Entity68 -->
<g id="node54" class="node entity">
<title>Entity68</title>
<ellipse fill="none" stroke="black" cx="3803.67" cy="-845.49" rx="102.08" ry="18"/>
<text text-anchor="start" x="3733.17" y="-841.79" font-family="Times New Roman,serif" font-size="14.00">anthroposophical society</text>
</g>
<!-- Entity28&#45;&gt;Entity68 -->
<g id="edge44" class="edge verb">
<title>Entity28&#45;&gt;Entity68</title>
<path fill="none" stroke="black" d="M3781.52,-935.18C3785.71,-918.24 3791.98,-892.83 3796.78,-873.37"/>
<polygon fill="black" stroke="black" points="3800.21,-874.09 3799.21,-863.54 3793.42,-872.41 3800.21,-874.09"/>
<text text-anchor="start" x="3755.15" y="-908.08" font-family="Times New Roman,serif" font-size="14.00">create</text>
</g>
<!-- Entity80 -->
<g id="node57" class="node entity">
<title>Entity80</title>
<ellipse fill="none" stroke="black" cx="1825.94" cy="-2073.66" rx="27" ry="18"/>
<text text-anchor="start" x="1815.94" y="-2069.96" font-family="Times New Roman,serif" font-size="14.00">foo</text>
</g>
<!-- Entity81 -->
<g id="node58" class="node entity">
<title>Entity81</title>
<ellipse fill="none" stroke="black" cx="1913.66" cy="-2185.64" rx="27" ry="18"/>
<text text-anchor="start" x="1903.66" y="-2181.94" font-family="Times New Roman,serif" font-size="14.00">baz</text>
</g>
<!-- Entity80&#45;&gt;Entity81 -->
<g id="edge53" class="edge verb">
<title>Entity80&#45;&gt;Entity81</title>
<path fill="none" stroke="black" d="M1838.51,-2089.7C1853.23,-2108.5 1877.76,-2139.82 1894.78,-2161.53"/>
<polygon fill="black" stroke="black" points="1892.19,-2163.91 1901.11,-2169.62 1897.7,-2159.59 1892.19,-2163.91"/>
<text text-anchor="start" x="1846.64" y="-2129.42" font-family="Times New Roman,serif" font-size="14.00">baz</text>
</g>
<!-- Entity23 -->
<g id="node60" class="node entity">
<title>Entity23</title>
<ellipse fill="none" stroke="black" cx="4766.21" cy="-2462.41" rx="53.89" ry="18"/>
<text text-anchor="start" x="4732.71" y="-2458.71" font-family="Times New Roman,serif" font-size="14.00">edgar casey</text>
</g>
<!-- Entity23&#45;&gt;Entity20 -->
<g id="edge58" class="edge verb">
<title>Entity23&#45;&gt;Entity20</title>
<path fill="none" stroke="black" d="M4714.35,-2457.4C4613.64,-2447.68 4391.18,-2426.19 4273.11,-2414.78"/>
<polygon fill="black" stroke="black" points="4273.35,-2411.29 4263.06,-2413.81 4272.68,-2418.26 4273.35,-2411.29"/>
<text text-anchor="start" x="4457.73" y="-2439.89" font-family="Times New Roman,serif" font-size="14.00">advise</text>
</g>
</g>
</svg>
