<?xml version="1.0" encoding="UTF-8" standalone="no"?>
<?xml-stylesheet href="../styles.css" type="text/css"?>
<!DOCTYPE svg PUBLIC "-//W3C//DTD SVG 1.1//EN"
 "http://www.w3.org/Graphics/SVG/1.1/DTD/svg11.dtd">
<!-- Generated by graphviz version 2.47.3 (20210619.1520)
 -->
<!-- Title: G Pages: 1 -->
<svg width="6168pt" height="4745pt"
 viewBox="0.00 0.00 6168.00 4745.00" xmlns="http://www.w3.org/2000/svg" xmlns:xlink="http://www.w3.org/1999/xlink">
<g id="graph0" class="graph" transform="scale(1 1) rotate(0) translate(4 4741)">
<title>G</title>
<polygon fill="white" stroke="transparent" points="-4,4 -4,-4741 6164,-4741 6164,4 -4,4"/>
<!-- Entity79 -->
<g id="node1" class="node entity">
<title>Entity79</title>
<ellipse fill="none" stroke="black" cx="4030.94" cy="-3163.66" rx="27" ry="18"/>
<text text-anchor="start" x="4020.94" y="-3159.96" font-family="Times New Roman,serif" font-size="14.00">foo</text>
</g>
<!-- Entity80 -->
<g id="node2" class="node entity">
<title>Entity80</title>
<ellipse fill="none" stroke="black" cx="4118.66" cy="-3275.64" rx="27" ry="18"/>
<text text-anchor="start" x="4108.66" y="-3271.94" font-family="Times New Roman,serif" font-size="14.00">baz</text>
</g>
<!-- Entity79&#45;&gt;Entity80 -->
<g id="edge1" class="edge verb">
<title>Entity79&#45;&gt;Entity80</title>
<path fill="none" stroke="black" d="M4043.51,-3179.7C4058.23,-3198.5 4082.76,-3229.82 4099.78,-3251.53"/>
<polygon fill="black" stroke="black" points="4097.19,-3253.91 4106.11,-3259.62 4102.7,-3249.59 4097.19,-3253.91"/>
<text text-anchor="start" x="4051.64" y="-3219.42" font-family="Times New Roman,serif" font-size="14.00">baz</text>
</g>
<!-- Entity3 -->
<g id="node3" class="node entity">
<title>Entity3</title>
<ellipse fill="none" stroke="black" cx="4911.85" cy="-1614.61" rx="65.79" ry="18"/>
<text text-anchor="start" x="4869.35" y="-1610.91" font-family="Times New Roman,serif" font-size="14.00">arthur m young</text>
</g>
<!-- Entity56 -->
<g id="node4" class="node entity">
<title>Entity56</title>
<ellipse fill="none" stroke="black" cx="4881.52" cy="-1043.24" rx="53.89" ry="18"/>
<text text-anchor="start" x="4848.02" y="-1039.54" font-family="Times New Roman,serif" font-size="14.00">bell aviation</text>
</g>
<!-- Entity3&#45;&gt;Entity56 -->
<g id="edge2" class="edge verb">
<title>Entity3&#45;&gt;Entity56</title>
<path fill="none" stroke="black" d="M4910.89,-1596.56C4906.51,-1514.02 4888.36,-1172.11 4883.01,-1071.32"/>
<polygon fill="black" stroke="black" points="4886.5,-1071.09 4882.47,-1061.29 4879.51,-1071.46 4886.5,-1071.09"/>
<text text-anchor="start" x="4862.95" y="-1337.74" font-family="Times New Roman,serif" font-size="14.00">create</text>
</g>
<!-- Entity9 -->
<g id="node9" class="node entity">
<title>Entity9</title>
<ellipse fill="none" stroke="black" cx="5474.02" cy="-1659.22" rx="38.19" ry="18"/>
<text text-anchor="start" x="5452.52" y="-1655.52" font-family="Times New Roman,serif" font-size="14.00">the nine</text>
</g>
<!-- Entity3&#45;&gt;Entity9 -->
<g id="edge5" class="edge verb">
<title>Entity3&#45;&gt;Entity9</title>
<path fill="none" stroke="black" d="M4974.97,-1619.62C5088.42,-1628.62 5324.38,-1647.35 5425.89,-1655.4"/>
<polygon fill="black" stroke="black" points="5425.9,-1658.92 5436.15,-1656.22 5426.46,-1651.94 5425.9,-1658.92"/>
<text text-anchor="start" x="5154.43" y="-1641.31" font-family="Times New Roman,serif" font-size="14.00">member</text>
</g>
<!-- Entity55 -->
<g id="node37" class="node entity">
<title>Entity55</title>
<ellipse fill="none" stroke="black" cx="4254.48" cy="-1974.01" rx="77.19" ry="18"/>
<text text-anchor="start" x="4202.98" y="-1970.31" font-family="Times New Roman,serif" font-size="14.00">psi&#45;consciousness</text>
</g>
<!-- Entity3&#45;&gt;Entity55 -->
<g id="edge53" class="edge verb">
<title>Entity3&#45;&gt;Entity55</title>
<path fill="none" stroke="black" d="M4882.32,-1630.75C4776.29,-1688.72 4414.59,-1886.48 4293.98,-1952.42"/>
<polygon fill="black" stroke="black" points="4292.15,-1949.43 4285.06,-1957.3 4295.51,-1955.57 4292.15,-1949.43"/>
<text text-anchor="start" x="4557.15" y="-1795.38" font-family="Times New Roman,serif" font-size="14.00">study</text>
</g>
<!-- Entity7 -->
<g id="node5" class="node entity">
<title>Entity7</title>
<ellipse fill="none" stroke="black" cx="3016.85" cy="-2751.27" rx="64.19" ry="18"/>
<text text-anchor="start" x="2975.35" y="-2747.57" font-family="Times New Roman,serif" font-size="14.00">john f kennedy</text>
</g>
<!-- Entity53 -->
<g id="node6" class="node entity">
<title>Entity53</title>
<ellipse fill="none" stroke="black" cx="2512.13" cy="-2822.73" rx="31.4" ry="18"/>
<text text-anchor="start" x="2496.13" y="-2819.03" font-family="Times New Roman,serif" font-size="14.00">potus</text>
</g>
<!-- Entity7&#45;&gt;Entity53 -->
<g id="edge3" class="edge verb">
<title>Entity7&#45;&gt;Entity53</title>
<path fill="none" stroke="black" d="M2958.95,-2759.47C2855.59,-2774.1 2641.78,-2804.37 2552.59,-2817"/>
<polygon fill="black" stroke="black" points="2552.01,-2813.55 2542.59,-2818.41 2552.99,-2820.48 2552.01,-2813.55"/>
<text text-anchor="start" x="2745.77" y="-2792.03" font-family="Times New Roman,serif" font-size="14.00">is</text>
</g>
<!-- Entity2 -->
<g id="node7" class="node entity">
<title>Entity2</title>
<ellipse fill="none" stroke="black" cx="5909.27" cy="-2218.63" rx="64.19" ry="18"/>
<text text-anchor="start" x="5867.77" y="-2214.93" font-family="Times New Roman,serif" font-size="14.00">andre puharich</text>
</g>
<!-- Entity1 -->
<g id="node8" class="node entity">
<title>Entity1</title>
<ellipse fill="none" stroke="black" cx="5451.45" cy="-2052.88" rx="41.69" ry="18"/>
<text text-anchor="start" x="5427.45" y="-2049.18" font-family="Times New Roman,serif" font-size="14.00">uri geller</text>
</g>
<!-- Entity2&#45;&gt;Entity1 -->
<g id="edge4" class="edge verb">
<title>Entity2&#45;&gt;Entity1</title>
<path fill="none" stroke="black" d="M5869.84,-2204.35C5784,-2173.28 5580.9,-2099.75 5493.09,-2067.96"/>
<polygon fill="black" stroke="black" points="5494.06,-2064.59 5483.46,-2064.47 5491.67,-2071.17 5494.06,-2064.59"/>
<text text-anchor="start" x="5629.46" y="-2139.96" font-family="Times New Roman,serif" font-size="14.00">sponsore</text>
</g>
<!-- Entity1&#45;&gt;Entity9 -->
<g id="edge7" class="edge verb">
<title>Entity1&#45;&gt;Entity9</title>
<path fill="none" stroke="black" d="M5452.49,-2034.68C5456.1,-1971.85 5468.03,-1763.67 5472.4,-1687.48"/>
<polygon fill="black" stroke="black" points="5475.91,-1687.41 5472.99,-1677.23 5468.92,-1687.01 5475.91,-1687.41"/>
<text text-anchor="start" x="5358.45" y="-1864.88" font-family="Times New Roman,serif" font-size="14.00">claiemd to channel</text>
</g>
<!-- Entity52 -->
<g id="node42" class="node entity">
<title>Entity52</title>
<ellipse fill="none" stroke="black" cx="6065.35" cy="-1634.54" rx="94.48" ry="18"/>
<text text-anchor="start" x="6000.85" y="-1630.84" font-family="Times New Roman,serif" font-size="14.00">egyptian gods in a ship</text>
</g>
<!-- Entity9&#45;&gt;Entity52 -->
<g id="edge34" class="edge verb">
<title>Entity9&#45;&gt;Entity52</title>
<path fill="none" stroke="black" d="M5512.36,-1657.62C5602.35,-1653.87 5829.51,-1644.39 5963.02,-1638.81"/>
<polygon fill="black" stroke="black" points="5963.42,-1642.3 5973.26,-1638.39 5963.12,-1635.31 5963.42,-1642.3"/>
<text text-anchor="start" x="5707.69" y="-1652.02" font-family="Times New Roman,serif" font-size="14.00">claim</text>
</g>
<!-- Entity5 -->
<g id="node10" class="node entity">
<title>Entity5</title>
<ellipse fill="none" stroke="black" cx="3581.74" cy="-2471.62" rx="75.29" ry="18"/>
<text text-anchor="start" x="3531.74" y="-2467.92" font-family="Times New Roman,serif" font-size="14.00">lee harvey oswald</text>
</g>
<!-- Entity5&#45;&gt;Entity7 -->
<g id="edge6" class="edge verb">
<title>Entity5&#45;&gt;Entity7</title>
<path fill="none" stroke="black" d="M3548.93,-2487.86C3451.67,-2536.01 3165.07,-2677.9 3057.91,-2730.95"/>
<polygon fill="black" stroke="black" points="3056.11,-2727.93 3048.7,-2735.51 3059.22,-2734.21 3056.11,-2727.93"/>
<text text-anchor="start" x="3241.42" y="-2613.21" font-family="Times New Roman,serif" font-size="14.00">assassinate</text>
</g>
<!-- Entity45 -->
<g id="node31" class="node entity">
<title>Entity45</title>
<ellipse fill="none" stroke="black" cx="3830.56" cy="-1922.86" rx="59.29" ry="18"/>
<text text-anchor="start" x="3793.06" y="-1919.16" font-family="Times New Roman,serif" font-size="14.00">guy bannister</text>
</g>
<!-- Entity5&#45;&gt;Entity45 -->
<g id="edge23" class="edge verb">
<title>Entity5&#45;&gt;Entity45</title>
<path fill="none" stroke="black" d="M3589.88,-2453.67C3626.28,-2373.4 3774.28,-2046.98 3818.21,-1950.09"/>
<polygon fill="black" stroke="black" points="3821.42,-1951.49 3822.36,-1940.94 3815.04,-1948.6 3821.42,-1951.49"/>
<text text-anchor="start" x="3650.04" y="-2205.68" font-family="Times New Roman,serif" font-size="14.00">employee</text>
</g>
<!-- Entity4 -->
<g id="node11" class="node entity">
<title>Entity4</title>
<ellipse fill="none" stroke="black" cx="5927.46" cy="-1403.95" rx="74.99" ry="18"/>
<text text-anchor="start" x="5877.96" y="-1400.25" font-family="Times New Roman,serif" font-size="14.00">gene roddenberry</text>
</g>
<!-- Entity4&#45;&gt;Entity9 -->
<g id="edge8" class="edge verb">
<title>Entity4&#45;&gt;Entity9</title>
<path fill="none" stroke="black" d="M5898.06,-1420.5C5817.4,-1465.91 5592.97,-1592.26 5507.58,-1640.33"/>
<polygon fill="black" stroke="black" points="5505.81,-1637.31 5498.82,-1645.26 5509.25,-1643.41 5505.81,-1637.31"/>
<text text-anchor="start" x="5598.82" y="-1534.22" font-family="Times New Roman,serif" font-size="14.00">claiemd to channel</text>
</g>
<!-- Entity6 -->
<g id="node12" class="node entity">
<title>Entity6</title>
<ellipse fill="none" stroke="black" cx="4909.45" cy="-2134.86" rx="68.49" ry="18"/>
<text text-anchor="start" x="4864.95" y="-2131.16" font-family="Times New Roman,serif" font-size="14.00">jeffrey mishlove</text>
</g>
<!-- Entity6&#45;&gt;Entity1 -->
<g id="edge9" class="edge verb">
<title>Entity6&#45;&gt;Entity1</title>
<path fill="none" stroke="black" d="M4968.74,-2125.89C5076.32,-2109.62 5301.75,-2075.52 5401.8,-2060.39"/>
<polygon fill="black" stroke="black" points="5402.58,-2063.81 5411.94,-2058.86 5401.53,-2056.89 5402.58,-2063.81"/>
<text text-anchor="start" x="5137.27" y="-2096.94" font-family="Times New Roman,serif" font-size="14.00">promote</text>
</g>
<!-- Entity6&#45;&gt;Entity55 -->
<g id="edge57" class="edge verb">
<title>Entity6&#45;&gt;Entity55</title>
<path fill="none" stroke="black" d="M4866.82,-2120.7C4756.96,-2089.67 4463.27,-2017.27 4326.46,-1987.17"/>
<polygon fill="black" stroke="black" points="4327.01,-1983.71 4316.49,-1984.99 4325.52,-1990.54 4327.01,-1983.71"/>
<text text-anchor="start" x="4565.64" y="-2042.74" font-family="Times New Roman,serif" font-size="14.00">study</text>
</g>
<!-- Entity6&#45;&gt;Entity55 -->
<g id="edge60" class="edge verb">
<title>Entity6&#45;&gt;Entity55</title>
<path fill="none" stroke="black" d="M4852.37,-2124.95C4727.64,-2098.11 4432.12,-2025.54 4309.39,-1991.6"/>
<polygon fill="black" stroke="black" points="4310.03,-1988.14 4299.46,-1988.83 4308.15,-1994.88 4310.03,-1988.14"/>
<text text-anchor="start" x="4516.88" y="-2062.07" font-family="Times New Roman,serif" font-size="14.00">investigates</text>
</g>
<!-- Entity11 -->
<g id="node13" class="node entity">
<title>Entity11</title>
<ellipse fill="none" stroke="black" cx="2695.85" cy="-2931.5" rx="68.49" ry="18"/>
<text text-anchor="start" x="2651.35" y="-2927.8" font-family="Times New Roman,serif" font-size="14.00">george hw bush</text>
</g>
<!-- Entity11&#45;&gt;Entity53 -->
<g id="edge48" class="edge verb">
<title>Entity11&#45;&gt;Entity53</title>
<path fill="none" stroke="black" d="M2667.95,-2914.98C2634.22,-2895.01 2577.66,-2861.53 2542.76,-2840.86"/>
<polygon fill="black" stroke="black" points="2544.34,-2837.73 2533.95,-2835.65 2540.77,-2843.75 2544.34,-2837.73"/>
<text text-anchor="start" x="2595.35" y="-2881.72" font-family="Times New Roman,serif" font-size="14.00">is</text>
</g>
<!-- Entity18 -->
<g id="node14" class="node entity">
<title>Entity18</title>
<ellipse fill="none" stroke="black" cx="2255.61" cy="-2637.58" rx="63.89" ry="18"/>
<text text-anchor="start" x="2214.61" y="-2633.88" font-family="Times New Roman,serif" font-size="14.00">george w bush</text>
</g>
<!-- Entity11&#45;&gt;Entity18 -->
<g id="edge10" class="edge verb">
<title>Entity11&#45;&gt;Entity18</title>
<path fill="none" stroke="black" d="M2670.6,-2914.64C2595.52,-2864.52 2373.61,-2716.36 2288.94,-2659.84"/>
<polygon fill="black" stroke="black" points="2290.74,-2656.83 2280.48,-2654.19 2286.86,-2662.65 2290.74,-2656.83"/>
<text text-anchor="start" x="2447.77" y="-2791.04" font-family="Times New Roman,serif" font-size="14.00">father</text>
</g>
<!-- Entity18&#45;&gt;Entity53 -->
<g id="edge58" class="edge verb">
<title>Entity18&#45;&gt;Entity53</title>
<path fill="none" stroke="black" d="M2279.28,-2654.67C2326.77,-2688.94 2433.43,-2765.92 2484.22,-2802.58"/>
<polygon fill="black" stroke="black" points="2482.3,-2805.51 2492.45,-2808.52 2486.39,-2799.83 2482.3,-2805.51"/>
<text text-anchor="start" x="2371.75" y="-2732.42" font-family="Times New Roman,serif" font-size="14.00">is</text>
</g>
<!-- Entity25 -->
<g id="node15" class="node entity">
<title>Entity25</title>
<ellipse fill="none" stroke="black" cx="1666.71" cy="-1890.14" rx="58.49" ry="18"/>
<text text-anchor="start" x="1629.71" y="-1886.44" font-family="Times New Roman,serif" font-size="14.00">steve bannon</text>
</g>
<!-- Entity8 -->
<g id="node16" class="node entity">
<title>Entity8</title>
<ellipse fill="none" stroke="black" cx="2347.26" cy="-2236.55" rx="59.59" ry="18"/>
<text text-anchor="start" x="2309.26" y="-2232.85" font-family="Times New Roman,serif" font-size="14.00">donald trump</text>
</g>
<!-- Entity25&#45;&gt;Entity8 -->
<g id="edge11" class="edge verb">
<title>Entity25&#45;&gt;Entity8</title>
<path fill="none" stroke="black" d="M1692.51,-1906.48C1794.69,-1964.06 2171.52,-2156.11 2302.25,-2217.59"/>
<polygon fill="black" stroke="black" points="2301.06,-2220.89 2311.6,-2221.95 2304.02,-2214.55 2301.06,-2220.89"/>
<text text-anchor="start" x="1949.38" y="-2065.83" font-family="Times New Roman,serif" font-size="14.00">promote</text>
</g>
<!-- Entity25&#45;&gt;Entity8 -->
<g id="edge17" class="edge verb">
<title>Entity25&#45;&gt;Entity8</title>
<path fill="none" stroke="black" d="M1702.36,-1904.74C1820.25,-1959.41 2196.44,-2150.87 2312.71,-2215.32"/>
<polygon fill="black" stroke="black" points="2311.13,-2218.45 2321.57,-2220.28 2314.55,-2212.34 2311.13,-2218.45"/>
<text text-anchor="start" x="1971.53" y="-2048.83" font-family="Times New Roman,serif" font-size="14.00">advise</text>
</g>
<!-- Entity76 -->
<g id="node38" class="node entity">
<title>Entity76</title>
<ellipse fill="none" stroke="black" cx="1061.94" cy="-1841.21" rx="77.19" ry="18"/>
<text text-anchor="start" x="1010.44" y="-1837.51" font-family="Times New Roman,serif" font-size="14.00">hollywood movies</text>
</g>
<!-- Entity25&#45;&gt;Entity76 -->
<g id="edge30" class="edge verb">
<title>Entity25&#45;&gt;Entity76</title>
<path fill="none" stroke="black" d="M1610.08,-1885.56C1502.98,-1876.9 1270.29,-1858.07 1145.31,-1847.96"/>
<polygon fill="black" stroke="black" points="1145.27,-1844.45 1135.03,-1847.13 1144.71,-1851.42 1145.27,-1844.45"/>
<text text-anchor="start" x="1330.69" y="-1870.56" font-family="Times New Roman,serif" font-size="14.00">produce</text>
</g>
<!-- Entity64 -->
<g id="node46" class="node entity">
<title>Entity64</title>
<ellipse fill="none" stroke="black" cx="1336.3" cy="-1586.6" rx="38.19" ry="18"/>
<text text-anchor="start" x="1314.8" y="-1582.9" font-family="Times New Roman,serif" font-size="14.00">us navy</text>
</g>
<!-- Entity25&#45;&gt;Entity64 -->
<g id="edge38" class="edge verb">
<title>Entity25&#45;&gt;Entity64</title>
<path fill="none" stroke="black" d="M1648,-1872.95C1591.96,-1821.48 1425.46,-1668.51 1361.61,-1609.85"/>
<polygon fill="black" stroke="black" points="1363.73,-1607.05 1353.99,-1602.86 1358.99,-1612.2 1363.73,-1607.05"/>
<text text-anchor="start" x="1458.8" y="-1745.2" font-family="Times New Roman,serif" font-size="14.00">member</text>
</g>
<!-- Entity77 -->
<g id="node49" class="node entity">
<title>Entity77</title>
<ellipse fill="none" stroke="black" cx="1104.91" cy="-1697.57" rx="64.99" ry="18"/>
<text text-anchor="start" x="1062.91" y="-1693.87" font-family="Times New Roman,serif" font-size="14.00">goldman sachs</text>
</g>
<!-- Entity25&#45;&gt;Entity77 -->
<g id="edge44" class="edge verb">
<title>Entity25&#45;&gt;Entity77</title>
<path fill="none" stroke="black" d="M1627.2,-1876.6C1527.56,-1842.45 1266.08,-1752.82 1155.47,-1714.9"/>
<polygon fill="black" stroke="black" points="1156.47,-1711.55 1145.88,-1711.61 1154.2,-1718.17 1156.47,-1711.55"/>
<text text-anchor="start" x="1337.34" y="-1799.55" font-family="Times New Roman,serif" font-size="14.00">employee</text>
</g>
<!-- Entity63 -->
<g id="node51" class="node entity">
<title>Entity63</title>
<ellipse fill="none" stroke="black" cx="1189.77" cy="-2001.12" rx="53.09" ry="18"/>
<text text-anchor="start" x="1156.77" y="-1997.42" font-family="Times New Roman,serif" font-size="14.00">biosphere 2</text>
</g>
<!-- Entity25&#45;&gt;Entity63 -->
<g id="edge50" class="edge verb">
<title>Entity25&#45;&gt;Entity63</title>
<path fill="none" stroke="black" d="M1619.67,-1901.09C1530.56,-1921.82 1337.65,-1966.71 1243.56,-1988.6"/>
<polygon fill="black" stroke="black" points="1242.62,-1985.23 1233.68,-1990.9 1244.21,-1992.05 1242.62,-1985.23"/>
<text text-anchor="start" x="1397.61" y="-1948.65" font-family="Times New Roman,serif" font-size="14.00">create</text>
</g>
<!-- Entity65 -->
<g id="node53" class="node entity">
<title>Entity65</title>
<ellipse fill="none" stroke="black" cx="1786.17" cy="-1446.71" rx="61.99" ry="18"/>
<text text-anchor="start" x="1746.67" y="-1443.01" font-family="Times New Roman,serif" font-size="14.00">breitbart news</text>
</g>
<!-- Entity25&#45;&gt;Entity65 -->
<g id="edge55" class="edge verb">
<title>Entity25&#45;&gt;Entity65</title>
<path fill="none" stroke="black" d="M1671.61,-1871.93C1690.18,-1803.01 1756.24,-1557.83 1778.66,-1474.6"/>
<polygon fill="black" stroke="black" points="1782.07,-1475.4 1781.29,-1464.83 1775.31,-1473.58 1782.07,-1475.4"/>
<text text-anchor="start" x="1691.14" y="-1677.06" font-family="Times New Roman,serif" font-size="14.00">create</text>
</g>
<!-- Entity61 -->
<g id="node59" class="node entity">
<title>Entity61</title>
<ellipse fill="none" stroke="black" cx="1482.44" cy="-1476.25" rx="35.19" ry="18"/>
<text text-anchor="start" x="1463.44" y="-1472.55" font-family="Times New Roman,serif" font-size="14.00">gurgev</text>
</g>
<!-- Entity25&#45;&gt;Entity61 -->
<g id="edge65" class="edge verb">
<title>Entity25&#45;&gt;Entity61</title>
<path fill="none" stroke="black" d="M1658.67,-1872.09C1629.51,-1806.59 1529.15,-1581.18 1494.4,-1503.12"/>
<polygon fill="black" stroke="black" points="1497.57,-1501.65 1490.31,-1493.93 1491.18,-1504.49 1497.57,-1501.65"/>
<text text-anchor="start" x="1545.53" y="-1691.4" font-family="Times New Roman,serif" font-size="14.00">study</text>
</g>
<!-- Entity8&#45;&gt;Entity53 -->
<g id="edge26" class="edge verb">
<title>Entity8&#45;&gt;Entity53</title>
<path fill="none" stroke="black" d="M2352.38,-2254.74C2376.1,-2339.1 2475.51,-2692.52 2504.29,-2794.85"/>
<polygon fill="black" stroke="black" points="2501,-2796.07 2507.07,-2804.75 2507.74,-2794.18 2501,-2796.07"/>
<text text-anchor="start" x="2418.33" y="-2528.59" font-family="Times New Roman,serif" font-size="14.00">is</text>
</g>
<!-- Entity30 -->
<g id="node20" class="node entity">
<title>Entity30</title>
<ellipse fill="none" stroke="black" cx="2999.71" cy="-2051.36" rx="50.09" ry="18"/>
<text text-anchor="start" x="2969.21" y="-2047.66" font-family="Times New Roman,serif" font-size="14.00">john trump</text>
</g>
<!-- Entity8&#45;&gt;Entity30 -->
<g id="edge14" class="edge verb">
<title>Entity8&#45;&gt;Entity30</title>
<path fill="none" stroke="black" d="M2390.83,-2224.18C2507.6,-2191.04 2827.06,-2100.37 2950.3,-2065.39"/>
<polygon fill="black" stroke="black" points="2951.56,-2068.67 2960.22,-2062.57 2949.64,-2061.93 2951.56,-2068.67"/>
<text text-anchor="start" x="2627.56" y="-2148.58" font-family="Times New Roman,serif" font-size="14.00">nephew</text>
</g>
<!-- Entity16 -->
<g id="node17" class="node entity">
<title>Entity16</title>
<ellipse fill="none" stroke="black" cx="4732.34" cy="-2252.46" rx="63.89" ry="18"/>
<text text-anchor="start" x="4691.34" y="-2248.76" font-family="Times New Roman,serif" font-size="14.00">robert bigelow</text>
</g>
<!-- Entity16&#45;&gt;Entity6 -->
<g id="edge12" class="edge verb">
<title>Entity16&#45;&gt;Entity6</title>
<path fill="none" stroke="black" d="M4757.34,-2235.86C4788.28,-2215.32 4841.1,-2180.24 4875.64,-2157.31"/>
<polygon fill="black" stroke="black" points="4877.61,-2160.2 4884,-2151.75 4873.73,-2154.37 4877.61,-2160.2"/>
<text text-anchor="start" x="4784.49" y="-2200.38" font-family="Times New Roman,serif" font-size="14.00">funds</text>
</g>
<!-- Entity16&#45;&gt;Entity55 -->
<g id="edge49" class="edge verb">
<title>Entity16&#45;&gt;Entity55</title>
<path fill="none" stroke="black" d="M4704.23,-2236.08C4622.53,-2188.47 4385.01,-2050.07 4292.24,-1996.01"/>
<polygon fill="black" stroke="black" points="4293.86,-1992.91 4283.46,-1990.9 4290.34,-1998.96 4293.86,-1992.91"/>
<text text-anchor="start" x="4434.23" y="-2119.85" font-family="Times New Roman,serif" font-size="14.00">investigates</text>
</g>
<!-- Entity26 -->
<g id="node18" class="node entity">
<title>Entity26</title>
<ellipse fill="none" stroke="black" cx="1416.47" cy="-2863.65" rx="53.89" ry="18"/>
<text text-anchor="start" x="1382.97" y="-2859.95" font-family="Times New Roman,serif" font-size="14.00">edgar casey</text>
</g>
<!-- Entity27 -->
<g id="node19" class="node entity">
<title>Entity27</title>
<ellipse fill="none" stroke="black" cx="1949.02" cy="-2904.86" rx="71.49" ry="18"/>
<text text-anchor="start" x="1902.02" y="-2901.16" font-family="Times New Roman,serif" font-size="14.00">woodrow wilson</text>
</g>
<!-- Entity26&#45;&gt;Entity27 -->
<g id="edge13" class="edge verb">
<title>Entity26&#45;&gt;Entity27</title>
<path fill="none" stroke="black" d="M1469.48,-2867.76C1563.62,-2875.04 1760.41,-2890.27 1870.38,-2898.77"/>
<polygon fill="black" stroke="black" points="1870.18,-2902.27 1880.42,-2899.55 1870.72,-2895.29 1870.18,-2902.27"/>
<text text-anchor="start" x="1633.93" y="-2887.07" font-family="Times New Roman,serif" font-size="14.00">advise</text>
</g>
<!-- Entity27&#45;&gt;Entity53 -->
<g id="edge39" class="edge verb">
<title>Entity27&#45;&gt;Entity53</title>
<path fill="none" stroke="black" d="M2010.9,-2895.84C2126.95,-2878.91 2374.34,-2842.82 2471.63,-2828.63"/>
<polygon fill="black" stroke="black" points="2472.27,-2832.08 2481.66,-2827.17 2471.25,-2825.15 2472.27,-2832.08"/>
<text text-anchor="start" x="2231.26" y="-2866.03" font-family="Times New Roman,serif" font-size="14.00">is</text>
</g>
<!-- Entity58 -->
<g id="node58" class="node entity">
<title>Entity58</title>
<ellipse fill="none" stroke="black" cx="1417.73" cy="-3166.48" rx="71.49" ry="18"/>
<text text-anchor="start" x="1370.73" y="-3162.78" font-family="Times New Roman,serif" font-size="14.00">leauge of nations</text>
</g>
<!-- Entity27&#45;&gt;Entity58 -->
<g id="edge64" class="edge verb">
<title>Entity27&#45;&gt;Entity58</title>
<path fill="none" stroke="black" d="M1916.19,-2921.03C1823.83,-2966.51 1561.84,-3095.52 1459.46,-3145.93"/>
<polygon fill="black" stroke="black" points="1457.77,-3142.86 1450.35,-3150.42 1460.86,-3149.14 1457.77,-3142.86"/>
<text text-anchor="start" x="1653.83" y="-3037.28" font-family="Times New Roman,serif" font-size="14.00">create</text>
</g>
<!-- Entity17 -->
<g id="node21" class="node entity">
<title>Entity17</title>
<ellipse fill="none" stroke="black" cx="3544.27" cy="-2076.17" rx="27" ry="18"/>
<text text-anchor="start" x="3536.27" y="-2072.47" font-family="Times New Roman,serif" font-size="14.00">cia</text>
</g>
<!-- Entity30&#45;&gt;Entity17 -->
<g id="edge15" class="edge verb">
<title>Entity30&#45;&gt;Entity17</title>
<path fill="none" stroke="black" d="M3049.48,-2053.63C3157.54,-2058.55 3411.59,-2070.12 3507.1,-2074.47"/>
<polygon fill="black" stroke="black" points="3507.01,-2077.97 3517.16,-2074.93 3507.33,-2070.98 3507.01,-2077.97"/>
<text text-anchor="start" x="3232.29" y="-2067.85" font-family="Times New Roman,serif" font-size="14.00">member</text>
</g>
<!-- Entity67 -->
<g id="node47" class="node entity">
<title>Entity67</title>
<ellipse fill="none" stroke="black" cx="2938.1" cy="-1597.62" rx="50.89" ry="18"/>
<text text-anchor="start" x="2907.1" y="-1593.92" font-family="Times New Roman,serif" font-size="14.00">nikola tesla</text>
</g>
<!-- Entity30&#45;&gt;Entity67 -->
<g id="edge40" class="edge verb">
<title>Entity30&#45;&gt;Entity67</title>
<path fill="none" stroke="black" d="M2997.25,-2033.3C2987.77,-1963.43 2953.44,-1710.65 2941.91,-1625.69"/>
<polygon fill="black" stroke="black" points="2945.37,-1625.18 2940.56,-1615.74 2938.43,-1626.12 2945.37,-1625.18"/>
<text text-anchor="start" x="2938.58" y="-1833.29" font-family="Times New Roman,serif" font-size="14.00">study</text>
</g>
<!-- Entity17&#45;&gt;Entity55 -->
<g id="edge29" class="edge verb">
<title>Entity17&#45;&gt;Entity55</title>
<path fill="none" stroke="black" d="M3570.81,-2072.35C3670.12,-2058.07 4022.01,-2007.45 4178.5,-1984.94"/>
<polygon fill="black" stroke="black" points="4179.12,-1988.39 4188.52,-1983.5 4178.12,-1981.46 4179.12,-1988.39"/>
<text text-anchor="start" x="3810.66" y="-2032.45" font-family="Times New Roman,serif" font-size="14.00">investigates</text>
</g>
<!-- Entity54 -->
<g id="node52" class="node entity">
<title>Entity54</title>
<ellipse fill="none" stroke="black" cx="3238.1" cy="-2311.64" rx="27" ry="18"/>
<text text-anchor="start" x="3228.6" y="-2307.94" font-family="Times New Roman,serif" font-size="14.00">ufo</text>
</g>
<!-- Entity17&#45;&gt;Entity54 -->
<g id="edge54" class="edge verb">
<title>Entity17&#45;&gt;Entity54</title>
<path fill="none" stroke="black" d="M3526.49,-2089.84C3474.8,-2129.59 3324.47,-2245.21 3263.87,-2291.82"/>
<polygon fill="black" stroke="black" points="3261.72,-2289.05 3255.93,-2297.92 3265.99,-2294.6 3261.72,-2289.05"/>
<text text-anchor="start" x="3331.18" y="-2194.63" font-family="Times New Roman,serif" font-size="14.00">investigates</text>
</g>
<!-- Entity34 -->
<g id="node22" class="node entity">
<title>Entity34</title>
<ellipse fill="none" stroke="black" cx="1331.64" cy="-3702.4" rx="90.98" ry="18"/>
<text text-anchor="start" x="1269.64" y="-3698.7" font-family="Times New Roman,serif" font-size="14.00">emma hardinge&#45;britten</text>
</g>
<!-- Entity38 -->
<g id="node23" class="node entity">
<title>Entity38</title>
<ellipse fill="none" stroke="black" cx="1996.17" cy="-3234.99" rx="67.69" ry="18"/>
<text text-anchor="start" x="1952.17" y="-3231.29" font-family="Times New Roman,serif" font-size="14.00">abraham lincoln</text>
</g>
<!-- Entity34&#45;&gt;Entity38 -->
<g id="edge16" class="edge verb">
<title>Entity34&#45;&gt;Entity38</title>
<path fill="none" stroke="black" d="M1356.47,-3684.93C1458.78,-3612.97 1847.61,-3339.49 1963.43,-3258.03"/>
<polygon fill="black" stroke="black" points="1965.75,-3260.67 1971.91,-3252.06 1961.72,-3254.95 1965.75,-3260.67"/>
<text text-anchor="start" x="1580.95" y="-3475.28" font-family="Times New Roman,serif" font-size="14.00">spokesperson</text>
</g>
<!-- Entity59 -->
<g id="node35" class="node entity">
<title>Entity59</title>
<ellipse fill="none" stroke="black" cx="1048.92" cy="-3818.11" rx="85.29" ry="18"/>
<text text-anchor="start" x="991.42" y="-3814.41" font-family="Times New Roman,serif" font-size="14.00">theosophical society</text>
</g>
<!-- Entity34&#45;&gt;Entity59 -->
<g id="edge41" class="edge verb">
<title>Entity34&#45;&gt;Entity59</title>
<path fill="none" stroke="black" d="M1292.03,-3718.61C1241.14,-3739.44 1152.81,-3775.59 1097.8,-3798.11"/>
<polygon fill="black" stroke="black" points="1096.19,-3794.99 1088.26,-3802.01 1098.84,-3801.46 1096.19,-3794.99"/>
<text text-anchor="start" x="1160.91" y="-3762.16" font-family="Times New Roman,serif" font-size="14.00">create</text>
</g>
<!-- Entity68 -->
<g id="node50" class="node entity">
<title>Entity68</title>
<ellipse fill="none" stroke="black" cx="806.7" cy="-3929.85" rx="39.79" ry="18"/>
<text text-anchor="start" x="784.2" y="-3926.15" font-family="Times New Roman,serif" font-size="14.00">medium</text>
</g>
<!-- Entity34&#45;&gt;Entity68 -->
<g id="edge45" class="edge verb">
<title>Entity34&#45;&gt;Entity68</title>
<path fill="none" stroke="black" d="M1293.46,-3718.94C1196.52,-3760.95 941.68,-3871.36 844.81,-3913.34"/>
<polygon fill="black" stroke="black" points="843.18,-3910.23 835.4,-3917.41 845.96,-3916.65 843.18,-3910.23"/>
<text text-anchor="start" x="1059.13" y="-3819.94" font-family="Times New Roman,serif" font-size="14.00">is</text>
</g>
<!-- Entity69 -->
<g id="node60" class="node entity">
<title>Entity69</title>
<ellipse fill="none" stroke="black" cx="1136.07" cy="-4295.21" rx="55.79" ry="18"/>
<text text-anchor="start" x="1101.07" y="-4291.51" font-family="Times New Roman,serif" font-size="14.00">orphic circle</text>
</g>
<!-- Entity34&#45;&gt;Entity69 -->
<g id="edge66" class="edge verb">
<title>Entity34&#45;&gt;Entity69</title>
<path fill="none" stroke="black" d="M1325.68,-3720.47C1297.67,-3805.36 1179.1,-4164.78 1145.17,-4267.62"/>
<polygon fill="black" stroke="black" points="1141.8,-4266.69 1141.99,-4277.28 1148.44,-4268.88 1141.8,-4266.69"/>
<text text-anchor="start" x="1189.43" y="-3997.84" font-family="Times New Roman,serif" font-size="14.00">member</text>
</g>
<!-- Entity38&#45;&gt;Entity53 -->
<g id="edge51" class="edge verb">
<title>Entity38&#45;&gt;Entity53</title>
<path fill="none" stroke="black" d="M2017.68,-3217.8C2100.09,-3151.96 2395.52,-2915.9 2485.76,-2843.79"/>
<polygon fill="black" stroke="black" points="2488.21,-2846.32 2493.84,-2837.34 2483.84,-2840.85 2488.21,-2846.32"/>
<text text-anchor="start" x="2241.72" y="-3034.6" font-family="Times New Roman,serif" font-size="14.00">is</text>
</g>
<!-- Entity40 -->
<g id="node24" class="node entity">
<title>Entity40</title>
<ellipse fill="none" stroke="black" cx="4541.86" cy="-897.94" rx="57.69" ry="18"/>
<text text-anchor="start" x="4505.36" y="-894.24" font-family="Times New Roman,serif" font-size="14.00">michael pane</text>
</g>
<!-- Entity40&#45;&gt;Entity56 -->
<g id="edge62" class="edge verb">
<title>Entity40&#45;&gt;Entity56</title>
<path fill="none" stroke="black" d="M4575.99,-912.54C4638.2,-939.15 4769.94,-995.51 4838.31,-1024.76"/>
<polygon fill="black" stroke="black" points="4837.35,-1028.15 4847.92,-1028.87 4840.1,-1021.72 4837.35,-1028.15"/>
<text text-anchor="start" x="4653.15" y="-972.45" font-family="Times New Roman,serif" font-size="14.00">employee</text>
</g>
<!-- Entity37 -->
<g id="node25" class="node entity">
<title>Entity37</title>
<ellipse fill="none" stroke="black" cx="4549.03" cy="-554.23" rx="74.99" ry="18"/>
<text text-anchor="start" x="4499.53" y="-550.53" font-family="Times New Roman,serif" font-size="14.00">walter dornberger</text>
</g>
<!-- Entity40&#45;&gt;Entity37 -->
<g id="edge18" class="edge verb">
<title>Entity40&#45;&gt;Entity37</title>
<path fill="none" stroke="black" d="M4542.25,-879.46C4543.43,-822.68 4547.02,-650.49 4548.44,-582.39"/>
<polygon fill="black" stroke="black" points="4551.94,-582.46 4548.65,-572.39 4544.94,-582.31 4551.94,-582.46"/>
<text text-anchor="start" x="4491.34" y="-734.72" font-family="Times New Roman,serif" font-size="14.00">employee</text>
</g>
<!-- Entity37&#45;&gt;Entity56 -->
<g id="edge32" class="edge verb">
<title>Entity37&#45;&gt;Entity56</title>
<path fill="none" stroke="black" d="M4558.09,-572.27C4602.5,-646.91 4795.5,-931.15 4860.32,-1017.95"/>
<polygon fill="black" stroke="black" points="4857.54,-1020.08 4866.36,-1025.95 4863.13,-1015.86 4857.54,-1020.08"/>
<text text-anchor="start" x="4655.2" y="-798.91" font-family="Times New Roman,serif" font-size="14.00">employee</text>
</g>
<!-- Entity37&#45;&gt;Entity56 -->
<g id="edge42" class="edge verb">
<title>Entity37&#45;&gt;Entity56</title>
<path fill="none" stroke="black" d="M4564.63,-572.1C4621.09,-646.1 4813.11,-928.33 4867.3,-1016.67"/>
<polygon fill="black" stroke="black" points="4864.35,-1018.56 4872.52,-1025.31 4870.34,-1014.94 4864.35,-1018.56"/>
<text text-anchor="start" x="4636.96" y="-783.19" font-family="Times New Roman,serif" font-size="14.00">vice&#45;president</text>
</g>
<!-- Entity51 -->
<g id="node26" class="node entity">
<title>Entity51</title>
<ellipse fill="none" stroke="black" cx="4223.83" cy="-993.57" rx="32.49" ry="18"/>
<text text-anchor="start" x="4206.83" y="-989.87" font-family="Times New Roman,serif" font-size="14.00">nsdap</text>
</g>
<!-- Entity37&#45;&gt;Entity51 -->
<g id="edge19" class="edge verb">
<title>Entity37&#45;&gt;Entity51</title>
<path fill="none" stroke="black" d="M4535.88,-572C4485.09,-640.62 4301.62,-888.47 4242.4,-968.48"/>
<polygon fill="black" stroke="black" points="4239.57,-966.42 4236.43,-976.54 4245.2,-970.58 4239.57,-966.42"/>
<text text-anchor="start" x="4343.14" y="-774.04" font-family="Times New Roman,serif" font-size="14.00">member</text>
</g>
<!-- Entity72 -->
<g id="node48" class="node entity">
<title>Entity72</title>
<ellipse fill="none" stroke="black" cx="4159.57" cy="-344.98" rx="90.98" ry="18"/>
<text text-anchor="start" x="4097.57" y="-341.28" font-family="Times New Roman,serif" font-size="14.00">nsdap rocket program</text>
</g>
<!-- Entity37&#45;&gt;Entity72 -->
<g id="edge43" class="edge verb">
<title>Entity37&#45;&gt;Entity72</title>
<path fill="none" stroke="black" d="M4518.14,-537.64C4448.38,-500.16 4278.63,-408.96 4200.35,-366.9"/>
<polygon fill="black" stroke="black" points="4201.73,-363.67 4191.27,-362.02 4198.42,-369.83 4201.73,-363.67"/>
<text text-anchor="start" x="4325.24" y="-456.07" font-family="Times New Roman,serif" font-size="14.00">create</text>
</g>
<!-- Entity73 -->
<g id="node61" class="node entity">
<title>Entity73</title>
<ellipse fill="none" stroke="black" cx="4816.75" cy="-17.58" rx="65.79" ry="18"/>
<text text-anchor="start" x="4774.25" y="-13.88" font-family="Times New Roman,serif" font-size="14.00">x series aircraft</text>
</g>
<!-- Entity37&#45;&gt;Entity73 -->
<g id="edge67" class="edge verb">
<title>Entity37&#45;&gt;Entity73</title>
<path fill="none" stroke="black" d="M4558.09,-536.07C4597.74,-456.59 4756.09,-139.18 4803.36,-44.42"/>
<polygon fill="black" stroke="black" points="4806.5,-45.97 4807.83,-35.46 4800.24,-42.85 4806.5,-45.97"/>
<text text-anchor="start" x="4646.73" y="-294.04" font-family="Times New Roman,serif" font-size="14.00">create</text>
</g>
<!-- Entity74 -->
<g id="node41" class="node entity">
<title>Entity74</title>
<ellipse fill="none" stroke="black" cx="4055.94" cy="-1413.86" rx="38.99" ry="18"/>
<text text-anchor="start" x="4033.94" y="-1410.16" font-family="Times New Roman,serif" font-size="14.00">far right</text>
</g>
<!-- Entity51&#45;&gt;Entity74 -->
<g id="edge47" class="edge verb">
<title>Entity51&#45;&gt;Entity74</title>
<path fill="none" stroke="black" d="M4216.72,-1011.36C4190.45,-1077.14 4098.68,-1306.87 4066.88,-1386.46"/>
<polygon fill="black" stroke="black" points="4063.6,-1385.24 4063.14,-1395.83 4070.1,-1387.84 4063.6,-1385.24"/>
<text text-anchor="start" x="4095.8" y="-1202.71" font-family="Times New Roman,serif" font-size="14.00">member</text>
</g>
<!-- Entity50 -->
<g id="node27" class="node entity">
<title>Entity50</title>
<ellipse fill="none" stroke="black" cx="3315.75" cy="-3593.06" rx="37.89" ry="18"/>
<text text-anchor="start" x="3294.75" y="-3589.36" font-family="Times New Roman,serif" font-size="14.00">hunt oil</text>
</g>
<!-- Entity48 -->
<g id="node28" class="node entity">
<title>Entity48</title>
<ellipse fill="none" stroke="black" cx="3040.62" cy="-3134.07" rx="77.99" ry="18"/>
<text text-anchor="start" x="2988.62" y="-3130.37" font-family="Times New Roman,serif" font-size="14.00">dwight eisenhower</text>
</g>
<!-- Entity50&#45;&gt;Entity48 -->
<g id="edge20" class="edge verb">
<title>Entity50&#45;&gt;Entity48</title>
<path fill="none" stroke="black" d="M3305.31,-3575.63C3263.39,-3505.7 3107.3,-3245.3 3056.62,-3160.76"/>
<polygon fill="black" stroke="black" points="3059.52,-3158.79 3051.38,-3152.01 3053.52,-3162.39 3059.52,-3158.79"/>
<text text-anchor="start" x="3154.96" y="-3371.99" font-family="Times New Roman,serif" font-size="14.00">fund</text>
</g>
<!-- Entity48&#45;&gt;Entity53 -->
<g id="edge52" class="edge verb">
<title>Entity48&#45;&gt;Entity53</title>
<path fill="none" stroke="black" d="M3011.83,-3117.11C2920.42,-3063.26 2637.25,-2896.44 2543,-2840.91"/>
<polygon fill="black" stroke="black" points="2544.62,-2837.8 2534.23,-2835.74 2541.07,-2843.83 2544.62,-2837.8"/>
<text text-anchor="start" x="2767.42" y="-2982.81" font-family="Times New Roman,serif" font-size="14.00">is</text>
</g>
<!-- Entity49 -->
<g id="node29" class="node entity">
<title>Entity49</title>
<ellipse fill="none" stroke="black" cx="4116.91" cy="-633.78" rx="49.29" ry="18"/>
<text text-anchor="start" x="4086.91" y="-630.08" font-family="Times New Roman,serif" font-size="14.00">adolf hitler</text>
</g>
<!-- Entity49&#45;&gt;Entity51 -->
<g id="edge21" class="edge verb">
<title>Entity49&#45;&gt;Entity51</title>
<path fill="none" stroke="black" d="M4122.36,-652.12C4139.84,-710.96 4194.62,-895.28 4215.57,-965.77"/>
<polygon fill="black" stroke="black" points="4212.31,-967.11 4218.52,-975.7 4219.02,-965.11 4212.31,-967.11"/>
<text text-anchor="start" x="4134.96" y="-812.75" font-family="Times New Roman,serif" font-size="14.00">create</text>
</g>
<!-- Entity46 -->
<g id="node30" class="node entity">
<title>Entity46</title>
<ellipse fill="none" stroke="black" cx="4466.69" cy="-21.21" rx="46.29" ry="18"/>
<text text-anchor="start" x="4439.19" y="-17.51" font-family="Times New Roman,serif" font-size="14.00">van braun</text>
</g>
<!-- Entity46&#45;&gt;Entity37 -->
<g id="edge22" class="edge verb">
<title>Entity46&#45;&gt;Entity37</title>
<path fill="none" stroke="black" d="M4469.47,-39.25C4481.61,-117.79 4529.87,-430.22 4544.68,-526.1"/>
<polygon fill="black" stroke="black" points="4541.25,-526.85 4546.24,-536.2 4548.17,-525.78 4541.25,-526.85"/>
<text text-anchor="start" x="4453.08" y="-286.48" font-family="Times New Roman,serif" font-size="14.00">employee</text>
</g>
<!-- Entity46&#45;&gt;Entity72 -->
<g id="edge46" class="edge verb">
<title>Entity46&#45;&gt;Entity72</title>
<path fill="none" stroke="black" d="M4450.61,-38.16C4400.07,-91.44 4244.21,-255.76 4183.82,-319.42"/>
<polygon fill="black" stroke="black" points="4180.95,-317.35 4176.61,-327.02 4186.03,-322.17 4180.95,-317.35"/>
<text text-anchor="start" x="4263.21" y="-182.59" font-family="Times New Roman,serif" font-size="14.00">employee</text>
</g>
<!-- Entity45&#45;&gt;Entity74 -->
<g id="edge33" class="edge verb">
<title>Entity45&#45;&gt;Entity74</title>
<path fill="none" stroke="black" d="M3838.58,-1904.74C3872.4,-1828.36 4003.47,-1532.35 4043.96,-1440.92"/>
<polygon fill="black" stroke="black" points="4047.17,-1442.32 4048.02,-1431.76 4040.77,-1439.48 4047.17,-1442.32"/>
<text text-anchor="start" x="3895.27" y="-1676.63" font-family="Times New Roman,serif" font-size="14.00">member</text>
</g>
<!-- Entity13 -->
<g id="node32" class="node entity">
<title>Entity13</title>
<ellipse fill="none" stroke="black" cx="2741.21" cy="-3247.89" rx="58.49" ry="18"/>
<text text-anchor="start" x="2704.21" y="-3244.19" font-family="Times New Roman,serif" font-size="14.00">richard nixon</text>
</g>
<!-- Entity13&#45;&gt;Entity53 -->
<g id="edge24" class="edge verb">
<title>Entity13&#45;&gt;Entity53</title>
<path fill="none" stroke="black" d="M2731.52,-3229.9C2695.43,-3162.92 2568.79,-2927.88 2526.21,-2848.86"/>
<polygon fill="black" stroke="black" points="2529.27,-2847.17 2521.45,-2840.02 2523.11,-2850.49 2529.27,-2847.17"/>
<text text-anchor="start" x="2618.86" y="-3043.18" font-family="Times New Roman,serif" font-size="14.00">is</text>
</g>
<!-- Entity10 -->
<g id="node33" class="node entity">
<title>Entity10</title>
<ellipse fill="none" stroke="black" cx="2401.39" cy="-3137.54" rx="56.59" ry="18"/>
<text text-anchor="start" x="2365.89" y="-3133.84" font-family="Times New Roman,serif" font-size="14.00">harry truman</text>
</g>
<!-- Entity10&#45;&gt;Entity53 -->
<g id="edge25" class="edge verb">
<title>Entity10&#45;&gt;Entity53</title>
<path fill="none" stroke="black" d="M2407.83,-3119.25C2426.41,-3066.42 2480.26,-2913.34 2502.42,-2850.32"/>
<polygon fill="black" stroke="black" points="2505.8,-2851.26 2505.82,-2840.67 2499.2,-2848.94 2505.8,-2851.26"/>
<text text-anchor="start" x="2445.12" y="-2988.59" font-family="Times New Roman,serif" font-size="14.00">is</text>
</g>
<!-- Entity57 -->
<g id="node43" class="node entity">
<title>Entity57</title>
<ellipse fill="none" stroke="black" cx="2386.81" cy="-3261.51" rx="55.79" ry="18"/>
<text text-anchor="start" x="2351.81" y="-3257.81" font-family="Times New Roman,serif" font-size="14.00">freemasonry</text>
</g>
<!-- Entity10&#45;&gt;Entity57 -->
<g id="edge35" class="edge verb">
<title>Entity10&#45;&gt;Entity57</title>
<path fill="none" stroke="black" d="M2399.27,-3155.57C2396.87,-3175.95 2392.94,-3209.39 2390.13,-3233.25"/>
<polygon fill="black" stroke="black" points="2386.62,-3233.12 2388.93,-3243.46 2393.57,-3233.94 2386.62,-3233.12"/>
<text text-anchor="start" x="2348.7" y="-3198.21" font-family="Times New Roman,serif" font-size="14.00">member</text>
</g>
<!-- Entity22 -->
<g id="node34" class="node entity">
<title>Entity22</title>
<ellipse fill="none" stroke="black" cx="584.27" cy="-4286.45" rx="58.49" ry="18"/>
<text text-anchor="start" x="547.27" y="-4282.75" font-family="Times New Roman,serif" font-size="14.00">rudolf steiner</text>
</g>
<!-- Entity22&#45;&gt;Entity59 -->
<g id="edge27" class="edge verb">
<title>Entity22&#45;&gt;Entity59</title>
<path fill="none" stroke="black" d="M601.35,-4269.23C671.85,-4198.17 940.29,-3927.61 1023.9,-3843.33"/>
<polygon fill="black" stroke="black" points="1026.62,-3845.56 1031.18,-3835.99 1021.65,-3840.63 1026.62,-3845.56"/>
<text text-anchor="start" x="766.63" y="-4060.08" font-family="Times New Roman,serif" font-size="14.00">member</text>
</g>
<!-- Entity60 -->
<g id="node36" class="node entity">
<title>Entity60</title>
<ellipse fill="none" stroke="black" cx="102.24" cy="-4719.3" rx="102.08" ry="18"/>
<text text-anchor="start" x="31.74" y="-4715.6" font-family="Times New Roman,serif" font-size="14.00">anthroposophical society</text>
</g>
<!-- Entity22&#45;&gt;Entity60 -->
<g id="edge28" class="edge verb">
<title>Entity22&#45;&gt;Entity60</title>
<path fill="none" stroke="black" d="M565.07,-4303.69C490.19,-4370.93 217.51,-4615.8 129.69,-4694.65"/>
<polygon fill="black" stroke="black" points="127.12,-4692.26 122.02,-4701.54 131.8,-4697.47 127.12,-4692.26"/>
<text text-anchor="start" x="313.38" y="-4502.97" font-family="Times New Roman,serif" font-size="14.00">create</text>
</g>
<!-- Entity44 -->
<g id="node39" class="node entity">
<title>Entity44</title>
<ellipse fill="none" stroke="black" cx="2627.94" cy="-1733.66" rx="53.89" ry="18"/>
<text text-anchor="start" x="2594.44" y="-1729.96" font-family="Times New Roman,serif" font-size="14.00">black magic</text>
</g>
<!-- Entity71 -->
<g id="node40" class="node entity">
<title>Entity71</title>
<ellipse fill="none" stroke="black" cx="2715.66" cy="-1845.64" rx="28.7" ry="18"/>
<text text-anchor="start" x="2701.66" y="-1841.94" font-family="Times New Roman,serif" font-size="14.00">x left</text>
</g>
<!-- Entity44&#45;&gt;Entity71 -->
<g id="edge31" class="edge verb">
<title>Entity44&#45;&gt;Entity71</title>
<path fill="none" stroke="black" d="M2641.64,-1751.16C2656.45,-1770.05 2680.14,-1800.29 2696.72,-1821.45"/>
<polygon fill="black" stroke="black" points="2693.98,-1823.64 2702.9,-1829.36 2699.49,-1819.32 2693.98,-1823.64"/>
<text text-anchor="start" x="2623.18" y="-1790.11" font-family="Times New Roman,serif" font-size="14.00">member</text>
</g>
<!-- Entity14 -->
<g id="node44" class="node entity">
<title>Entity14</title>
<ellipse fill="none" stroke="black" cx="2874.75" cy="-2557.75" rx="31.4" ry="18"/>
<text text-anchor="start" x="2858.75" y="-2554.05" font-family="Times New Roman,serif" font-size="14.00">carter</text>
</g>
<!-- Entity14&#45;&gt;Entity53 -->
<g id="edge36" class="edge verb">
<title>Entity14&#45;&gt;Entity53</title>
<path fill="none" stroke="black" d="M2855.25,-2571.99C2794.87,-2616.11 2610.79,-2750.63 2540.15,-2802.25"/>
<polygon fill="black" stroke="black" points="2537.73,-2799.68 2531.72,-2808.41 2541.86,-2805.33 2537.73,-2799.68"/>
<text text-anchor="start" x="2687.7" y="-2690.92" font-family="Times New Roman,serif" font-size="14.00">is</text>
</g>
<!-- Entity14&#45;&gt;Entity54 -->
<g id="edge63" class="edge verb">
<title>Entity14&#45;&gt;Entity54</title>
<path fill="none" stroke="black" d="M2895.06,-2543.99C2956.55,-2502.34 3140.7,-2377.61 3210.69,-2330.2"/>
<polygon fill="black" stroke="black" points="3212.71,-2333.06 3219.03,-2324.55 3208.79,-2327.26 3212.71,-2333.06"/>
<text text-anchor="start" x="3010.88" y="-2440.89" font-family="Times New Roman,serif" font-size="14.00">witness</text>
</g>
<!-- Entity21 -->
<g id="node45" class="node entity">
<title>Entity21</title>
<ellipse fill="none" stroke="black" cx="2246.23" cy="-3016.43" rx="35.19" ry="18"/>
<text text-anchor="start" x="2227.23" y="-3012.73" font-family="Times New Roman,serif" font-size="14.00">obama</text>
</g>
<!-- Entity21&#45;&gt;Entity53 -->
<g id="edge37" class="edge verb">
<title>Entity21&#45;&gt;Entity53</title>
<path fill="none" stroke="black" d="M2266.66,-3001.55C2313.89,-2967.15 2430.71,-2882.04 2484.37,-2842.95"/>
<polygon fill="black" stroke="black" points="2486.7,-2845.58 2492.72,-2836.86 2482.58,-2839.92 2486.7,-2845.58"/>
<text text-anchor="start" x="2365.51" y="-2926.05" font-family="Times New Roman,serif" font-size="14.00">is</text>
</g>
<!-- Entity35 -->
<g id="node54" class="node entity">
<title>Entity35</title>
<ellipse fill="none" stroke="black" cx="3471.94" cy="-1733.66" rx="39.79" ry="18"/>
<text text-anchor="start" x="3449.44" y="-1729.96" font-family="Times New Roman,serif" font-size="14.00">crowley</text>
</g>
<!-- Entity70 -->
<g id="node55" class="node entity">
<title>Entity70</title>
<ellipse fill="none" stroke="black" cx="3559.66" cy="-1845.64" rx="38.99" ry="18"/>
<text text-anchor="start" x="3537.66" y="-1841.94" font-family="Times New Roman,serif" font-size="14.00">x magic</text>
</g>
<!-- Entity35&#45;&gt;Entity70 -->
<g id="edge56" class="edge verb">
<title>Entity35&#45;&gt;Entity70</title>
<path fill="none" stroke="black" d="M3485.26,-1750.67C3499.82,-1769.25 3523.28,-1799.2 3539.96,-1820.49"/>
<polygon fill="black" stroke="black" points="3537.29,-1822.76 3546.21,-1828.47 3542.8,-1818.44 3537.29,-1822.76"/>
<text text-anchor="start" x="3466.61" y="-1789.38" font-family="Times New Roman,serif" font-size="14.00">member</text>
</g>
<!-- Entity24 -->
<g id="node56" class="node entity">
<title>Entity24</title>
<ellipse fill="none" stroke="black" cx="407.1" cy="-3911.87" rx="73.39" ry="18"/>
<text text-anchor="start" x="358.6" y="-3908.17" font-family="Times New Roman,serif" font-size="14.00">madam blavatsky</text>
</g>
<!-- Entity24&#45;&gt;Entity59 -->
<g id="edge59" class="edge verb">
<title>Entity24&#45;&gt;Entity59</title>
<path fill="none" stroke="black" d="M470.4,-3902.63C587.87,-3885.47 839.38,-3848.72 968.62,-3829.85"/>
<polygon fill="black" stroke="black" points="969.45,-3833.26 978.84,-3828.35 968.44,-3826.33 969.45,-3833.26"/>
<text text-anchor="start" x="685.51" y="-3870.04" font-family="Times New Roman,serif" font-size="14.00">create</text>
</g>
<!-- Entity31 -->
<g id="node57" class="node entity">
<title>Entity31</title>
<ellipse fill="none" stroke="black" cx="1754.12" cy="-1335.4" rx="69.59" ry="18"/>
<text text-anchor="start" x="1708.62" y="-1331.7" font-family="Times New Roman,serif" font-size="14.00">andrew breitbart</text>
</g>
<!-- Entity31&#45;&gt;Entity65 -->
<g id="edge61" class="edge verb">
<title>Entity31&#45;&gt;Entity65</title>
<path fill="none" stroke="black" d="M1759.41,-1353.78C1764.52,-1371.53 1772.33,-1398.64 1778.2,-1419.01"/>
<polygon fill="black" stroke="black" points="1774.85,-1420.03 1780.98,-1428.67 1781.58,-1418.1 1774.85,-1420.03"/>
<text text-anchor="start" x="1734.8" y="-1390.19" font-family="Times New Roman,serif" font-size="14.00">create</text>
</g>
</g>
</svg>
