<?xml version="1.0" encoding="UTF-8" standalone="no"?>
<?xml-stylesheet href="../styles.css" type="text/css"?>
<!DOCTYPE svg PUBLIC "-//W3C//DTD SVG 1.1//EN"
 "http://www.w3.org/Graphics/SVG/1.1/DTD/svg11.dtd">
<!-- Generated by graphviz version 2.47.3 (20210619.1520)
 -->
<!-- Title: G Pages: 1 -->
<svg width="5880pt" height="4387pt"
 viewBox="0.00 0.00 5880.00 4387.00" xmlns="http://www.w3.org/2000/svg" xmlns:xlink="http://www.w3.org/1999/xlink">
<g id="graph0" class="graph" transform="scale(1 1) rotate(0) translate(4 4383)">
<title>G</title>
<polygon fill="white" stroke="transparent" points="-4,4 -4,-4383 5876,-4383 5876,4 -4,4"/>
<!-- Entity1 -->
<g id="node1" class="node entity">
<title>Entity1</title>
<ellipse fill="none" stroke="black" cx="2943.78" cy="-2319.42" rx="75.29" ry="18"/>
<text text-anchor="start" x="2893.78" y="-2315.72" font-family="Times New Roman,serif" font-size="14.00">lee harvey oswald</text>
</g>
<!-- Entity16 -->
<g id="node2" class="node entity">
<title>Entity16</title>
<ellipse fill="none" stroke="black" cx="2173.01" cy="-2189.05" rx="64.19" ry="18"/>
<text text-anchor="start" x="2131.51" y="-2185.35" font-family="Times New Roman,serif" font-size="14.00">john f kennedy</text>
</g>
<!-- Entity1&#45;&gt;Entity16 -->
<g id="edge1" class="edge verb">
<title>Entity1&#45;&gt;Entity16</title>
<path fill="none" stroke="black" d="M2882.01,-2308.97C2738.8,-2284.75 2385.21,-2224.94 2238.47,-2200.12"/>
<polygon fill="black" stroke="black" points="2238.71,-2196.61 2228.27,-2198.4 2237.54,-2203.51 2238.71,-2196.61"/>
<text text-anchor="start" x="2498.24" y="-2258.35" font-family="Times New Roman,serif" font-size="14.00">assassinate</text>
</g>
<!-- Entity56 -->
<g id="node48" class="node entity">
<title>Entity56</title>
<ellipse fill="none" stroke="black" cx="3681.29" cy="-2346.12" rx="59.29" ry="18"/>
<text text-anchor="start" x="3643.79" y="-2342.42" font-family="Times New Roman,serif" font-size="14.00">guy bannister</text>
</g>
<!-- Entity1&#45;&gt;Entity56 -->
<g id="edge48" class="edge verb">
<title>Entity1&#45;&gt;Entity56</title>
<path fill="none" stroke="black" d="M3018.56,-2322.13C3162,-2327.32 3473.84,-2338.61 3612.47,-2343.62"/>
<polygon fill="black" stroke="black" points="3612.43,-2347.13 3622.55,-2343.99 3612.68,-2340.13 3612.43,-2347.13"/>
<text text-anchor="start" x="3261.51" y="-2336.68" font-family="Times New Roman,serif" font-size="14.00">employee</text>
</g>
<!-- Entity60 -->
<g id="node10" class="node entity">
<title>Entity60</title>
<ellipse fill="none" stroke="black" cx="1557.01" cy="-2058.03" rx="31.4" ry="18"/>
<text text-anchor="start" x="1541.01" y="-2054.33" font-family="Times New Roman,serif" font-size="14.00">potus</text>
</g>
<!-- Entity16&#45;&gt;Entity60 -->
<g id="edge7" class="edge verb">
<title>Entity16&#45;&gt;Entity60</title>
<path fill="none" stroke="black" d="M2121.55,-2178.1C2001.36,-2152.54 1704.25,-2089.35 1596.69,-2066.47"/>
<polygon fill="black" stroke="black" points="1597.1,-2062.98 1586.59,-2064.32 1595.64,-2069.82 1597.1,-2062.98"/>
<text text-anchor="start" x="1849.12" y="-2126.09" font-family="Times New Roman,serif" font-size="14.00">is</text>
</g>
<!-- Entity5 -->
<g id="node3" class="node entity">
<title>Entity5</title>
<ellipse fill="none" stroke="black" cx="4423.35" cy="-17.54" rx="64.19" ry="18"/>
<text text-anchor="start" x="4381.85" y="-13.84" font-family="Times New Roman,serif" font-size="14.00">andre puharich</text>
</g>
<!-- Entity2 -->
<g id="node4" class="node entity">
<title>Entity2</title>
<ellipse fill="none" stroke="black" cx="4222.44" cy="-467.63" rx="41.69" ry="18"/>
<text text-anchor="start" x="4198.44" y="-463.93" font-family="Times New Roman,serif" font-size="14.00">uri geller</text>
</g>
<!-- Entity5&#45;&gt;Entity2 -->
<g id="edge2" class="edge verb">
<title>Entity5&#45;&gt;Entity2</title>
<path fill="none" stroke="black" d="M4415.35,-35.47C4384.36,-104.91 4272.03,-356.54 4234.64,-440.29"/>
<polygon fill="black" stroke="black" points="4231.35,-439.1 4230.47,-449.65 4237.74,-441.95 4231.35,-439.1"/>
<text text-anchor="start" x="4273" y="-241.68" font-family="Times New Roman,serif" font-size="14.00">sponsore</text>
</g>
<!-- Entity19 -->
<g id="node6" class="node entity">
<title>Entity19</title>
<ellipse fill="none" stroke="black" cx="4359.63" cy="-859.05" rx="38.19" ry="18"/>
<text text-anchor="start" x="4338.13" y="-855.35" font-family="Times New Roman,serif" font-size="14.00">the nine</text>
</g>
<!-- Entity2&#45;&gt;Entity19 -->
<g id="edge24" class="edge verb">
<title>Entity2&#45;&gt;Entity19</title>
<path fill="none" stroke="black" d="M4228.69,-485.46C4250.52,-547.74 4323.46,-755.83 4349.93,-831.36"/>
<polygon fill="black" stroke="black" points="4346.74,-832.83 4353.35,-841.11 4353.34,-830.51 4346.74,-832.83"/>
<text text-anchor="start" x="4185.31" y="-662.21" font-family="Times New Roman,serif" font-size="14.00">claiemd to channel</text>
</g>
<!-- Entity4 -->
<g id="node5" class="node entity">
<title>Entity4</title>
<ellipse fill="none" stroke="black" cx="4108.99" cy="-1255.35" rx="65.79" ry="18"/>
<text text-anchor="start" x="4066.49" y="-1251.65" font-family="Times New Roman,serif" font-size="14.00">arthur m young</text>
</g>
<!-- Entity4&#45;&gt;Entity19 -->
<g id="edge3" class="edge verb">
<title>Entity4&#45;&gt;Entity19</title>
<path fill="none" stroke="black" d="M4120.25,-1237.55C4160.26,-1174.29 4295.74,-960.08 4343.11,-885.17"/>
<polygon fill="black" stroke="black" points="4346.31,-886.67 4348.69,-876.35 4340.39,-882.93 4346.31,-886.67"/>
<text text-anchor="start" x="4185.68" y="-1065.16" font-family="Times New Roman,serif" font-size="14.00">member</text>
</g>
<!-- Entity61 -->
<g id="node8" class="node entity">
<title>Entity61</title>
<ellipse fill="none" stroke="black" cx="4680.87" cy="-1446.36" rx="53.89" ry="18"/>
<text text-anchor="start" x="4647.37" y="-1442.66" font-family="Times New Roman,serif" font-size="14.00">bell aviation</text>
</g>
<!-- Entity4&#45;&gt;Entity61 -->
<g id="edge59" class="edge verb">
<title>Entity4&#45;&gt;Entity61</title>
<path fill="none" stroke="black" d="M4151.05,-1269.4C4254.96,-1304.1 4523.34,-1393.74 4633.06,-1430.39"/>
<polygon fill="black" stroke="black" points="4631.96,-1433.71 4642.55,-1433.56 4634.17,-1427.07 4631.96,-1433.71"/>
<text text-anchor="start" x="4358.05" y="-1353.69" font-family="Times New Roman,serif" font-size="14.00">create</text>
</g>
<!-- Entity58 -->
<g id="node45" class="node entity">
<title>Entity58</title>
<ellipse fill="none" stroke="black" cx="3390.59" cy="-1281.1" rx="77.19" ry="18"/>
<text text-anchor="start" x="3339.09" y="-1277.4" font-family="Times New Roman,serif" font-size="14.00">psi&#45;consciousness</text>
</g>
<!-- Entity4&#45;&gt;Entity58 -->
<g id="edge46" class="edge verb">
<title>Entity4&#45;&gt;Entity58</title>
<path fill="none" stroke="black" d="M4043.66,-1257.69C3913.78,-1262.35 3623.15,-1272.77 3477.41,-1277.99"/>
<polygon fill="black" stroke="black" points="3477.04,-1274.5 3467.17,-1278.36 3477.29,-1281.5 3477.04,-1274.5"/>
<text text-anchor="start" x="3729.53" y="-1271.64" font-family="Times New Roman,serif" font-size="14.00">study</text>
</g>
<!-- Entity63 -->
<g id="node58" class="node entity">
<title>Entity63</title>
<ellipse fill="none" stroke="black" cx="4332.99" cy="-967.04" rx="94.48" ry="18"/>
<text text-anchor="start" x="4268.49" y="-963.34" font-family="Times New Roman,serif" font-size="14.00">egyptian gods in a ship</text>
</g>
<!-- Entity19&#45;&gt;Entity63 -->
<g id="edge61" class="edge verb">
<title>Entity19&#45;&gt;Entity63</title>
<path fill="none" stroke="black" d="M4355.11,-877.37C4350.94,-894.3 4344.67,-919.71 4339.87,-939.16"/>
<polygon fill="black" stroke="black" points="4336.44,-938.44 4337.44,-948.99 4343.24,-940.12 4336.44,-938.44"/>
<text text-anchor="start" x="4317.49" y="-912.06" font-family="Times New Roman,serif" font-size="14.00">claim</text>
</g>
<!-- Entity49 -->
<g id="node7" class="node entity">
<title>Entity49</title>
<ellipse fill="none" stroke="black" cx="5120.89" cy="-1652.13" rx="57.69" ry="18"/>
<text text-anchor="start" x="5084.39" y="-1648.43" font-family="Times New Roman,serif" font-size="14.00">michael pane</text>
</g>
<!-- Entity49&#45;&gt;Entity61 -->
<g id="edge4" class="edge verb">
<title>Entity49&#45;&gt;Entity61</title>
<path fill="none" stroke="black" d="M5088.53,-1637C5009.81,-1600.18 4808.41,-1506 4721.64,-1465.43"/>
<polygon fill="black" stroke="black" points="4722.92,-1462.16 4712.38,-1461.09 4719.96,-1468.5 4722.92,-1462.16"/>
<text text-anchor="start" x="4851.09" y="-1555.01" font-family="Times New Roman,serif" font-size="14.00">employee</text>
</g>
<!-- Entity46 -->
<g id="node9" class="node entity">
<title>Entity46</title>
<ellipse fill="none" stroke="black" cx="5135.1" cy="-1760.04" rx="74.99" ry="18"/>
<text text-anchor="start" x="5085.6" y="-1756.34" font-family="Times New Roman,serif" font-size="14.00">walter dornberger</text>
</g>
<!-- Entity49&#45;&gt;Entity46 -->
<g id="edge42" class="edge verb">
<title>Entity49&#45;&gt;Entity46</title>
<path fill="none" stroke="black" d="M5123.3,-1670.43C5125.52,-1687.28 5128.84,-1712.51 5131.39,-1731.91"/>
<polygon fill="black" stroke="black" points="5127.95,-1732.54 5132.72,-1742 5134.89,-1731.63 5127.95,-1732.54"/>
<text text-anchor="start" x="5073.35" y="-1704.97" font-family="Times New Roman,serif" font-size="14.00">employee</text>
</g>
<!-- Entity46&#45;&gt;Entity61 -->
<g id="edge5" class="edge verb">
<title>Entity46&#45;&gt;Entity61</title>
<path fill="none" stroke="black" d="M5115.25,-1742.58C5045.28,-1688.63 4809.75,-1525.69 4717.92,-1467.32"/>
<polygon fill="black" stroke="black" points="4719.56,-1464.21 4709.24,-1461.84 4715.83,-1470.13 4719.56,-1464.21"/>
<text text-anchor="start" x="4862.58" y="-1593.75" font-family="Times New Roman,serif" font-size="14.00">employee</text>
</g>
<!-- Entity46&#45;&gt;Entity61 -->
<g id="edge6" class="edge verb">
<title>Entity46&#45;&gt;Entity61</title>
<path fill="none" stroke="black" d="M5105.05,-1743.51C5021.58,-1691.16 4788.01,-1529.88 4708.07,-1469.43"/>
<polygon fill="black" stroke="black" points="4710.02,-1466.52 4699.95,-1463.23 4705.78,-1472.08 4710.02,-1466.52"/>
<text text-anchor="start" x="4827.56" y="-1610.27" font-family="Times New Roman,serif" font-size="14.00">vice&#45;president</text>
</g>
<!-- Entity54 -->
<g id="node42" class="node entity">
<title>Entity54</title>
<ellipse fill="none" stroke="black" cx="4732.25" cy="-2178.91" rx="32.49" ry="18"/>
<text text-anchor="start" x="4715.25" y="-2175.21" font-family="Times New Roman,serif" font-size="14.00">nsdap</text>
</g>
<!-- Entity46&#45;&gt;Entity54 -->
<g id="edge43" class="edge verb">
<title>Entity46&#45;&gt;Entity54</title>
<path fill="none" stroke="black" d="M5118.04,-1777.77C5054.03,-1844.33 4828.03,-2079.32 4755.11,-2155.14"/>
<polygon fill="black" stroke="black" points="4752.18,-2153.14 4747.77,-2162.78 4757.22,-2158 4752.18,-2153.14"/>
<text text-anchor="start" x="4890.58" y="-1970.25" font-family="Times New Roman,serif" font-size="14.00">member</text>
</g>
<!-- Entity73 -->
<g id="node51" class="node entity">
<title>Entity73</title>
<ellipse fill="none" stroke="black" cx="5780.86" cy="-1759.13" rx="90.98" ry="18"/>
<text text-anchor="start" x="5718.86" y="-1755.43" font-family="Times New Roman,serif" font-size="14.00">nsdap rocket program</text>
</g>
<!-- Entity46&#45;&gt;Entity73 -->
<g id="edge51" class="edge verb">
<title>Entity46&#45;&gt;Entity73</title>
<path fill="none" stroke="black" d="M5210.12,-1759.93C5326.13,-1759.77 5549.22,-1759.45 5679.48,-1759.27"/>
<polygon fill="black" stroke="black" points="5679.86,-1762.77 5689.85,-1759.25 5679.85,-1755.77 5679.86,-1762.77"/>
<text text-anchor="start" x="5410.8" y="-1763.4" font-family="Times New Roman,serif" font-size="14.00">create</text>
</g>
<!-- Entity79 -->
<g id="node54" class="node entity">
<title>Entity79</title>
<ellipse fill="none" stroke="black" cx="5672.12" cy="-2059.06" rx="65.79" ry="18"/>
<text text-anchor="start" x="5629.62" y="-2055.36" font-family="Times New Roman,serif" font-size="14.00">x series aircraft</text>
</g>
<!-- Entity46&#45;&gt;Entity79 -->
<g id="edge53" class="edge verb">
<title>Entity46&#45;&gt;Entity79</title>
<path fill="none" stroke="black" d="M5165.12,-1776.76C5256.69,-1827.74 5532.36,-1981.24 5633.97,-2037.82"/>
<polygon fill="black" stroke="black" points="5632.52,-2041.02 5642.96,-2042.83 5635.93,-2034.91 5632.52,-2041.02"/>
<text text-anchor="start" x="5365.54" y="-1911.09" font-family="Times New Roman,serif" font-size="14.00">create</text>
</g>
<!-- Entity18 -->
<g id="node11" class="node entity">
<title>Entity18</title>
<ellipse fill="none" stroke="black" cx="1652.61" cy="-2166.01" rx="63.89" ry="18"/>
<text text-anchor="start" x="1611.61" y="-2162.31" font-family="Times New Roman,serif" font-size="14.00">george w bush</text>
</g>
<!-- Entity18&#45;&gt;Entity60 -->
<g id="edge8" class="edge verb">
<title>Entity18&#45;&gt;Entity60</title>
<path fill="none" stroke="black" d="M1636.82,-2148.18C1620.72,-2129.98 1595.64,-2101.66 1577.9,-2081.62"/>
<polygon fill="black" stroke="black" points="1580.51,-2079.29 1571.26,-2074.12 1575.27,-2083.93 1580.51,-2079.29"/>
<text text-anchor="start" x="1597.36" y="-2118.7" font-family="Times New Roman,serif" font-size="14.00">is</text>
</g>
<!-- Entity11 -->
<g id="node12" class="node entity">
<title>Entity11</title>
<ellipse fill="none" stroke="black" cx="1984.77" cy="-2531.62" rx="59.59" ry="18"/>
<text text-anchor="start" x="1946.77" y="-2527.92" font-family="Times New Roman,serif" font-size="14.00">donald trump</text>
</g>
<!-- Entity11&#45;&gt;Entity60 -->
<g id="edge9" class="edge verb">
<title>Entity11&#45;&gt;Entity60</title>
<path fill="none" stroke="black" d="M1969.03,-2514.21C1903.69,-2441.85 1653.56,-2164.93 1578.46,-2081.77"/>
<polygon fill="black" stroke="black" points="1580.85,-2079.2 1571.55,-2074.13 1575.66,-2083.89 1580.85,-2079.2"/>
<text text-anchor="start" x="1763.75" y="-2301.79" font-family="Times New Roman,serif" font-size="14.00">is</text>
</g>
<!-- Entity35 -->
<g id="node34" class="node entity">
<title>Entity35</title>
<ellipse fill="none" stroke="black" cx="2477.02" cy="-2079.52" rx="50.09" ry="18"/>
<text text-anchor="start" x="2446.52" y="-2075.82" font-family="Times New Roman,serif" font-size="14.00">john trump</text>
</g>
<!-- Entity11&#45;&gt;Entity35 -->
<g id="edge38" class="edge verb">
<title>Entity11&#45;&gt;Entity35</title>
<path fill="none" stroke="black" d="M2003.46,-2514.45C2079.24,-2444.86 2363.62,-2183.67 2451.19,-2103.24"/>
<polygon fill="black" stroke="black" points="2453.57,-2105.8 2458.57,-2096.46 2448.84,-2100.65 2453.57,-2105.8"/>
<text text-anchor="start" x="2184.33" y="-2312.65" font-family="Times New Roman,serif" font-size="14.00">nephew</text>
</g>
<!-- Entity9 -->
<g id="node13" class="node entity">
<title>Entity9</title>
<ellipse fill="none" stroke="black" cx="1080.39" cy="-1904.72" rx="56.59" ry="18"/>
<text text-anchor="start" x="1044.89" y="-1901.02" font-family="Times New Roman,serif" font-size="14.00">harry truman</text>
</g>
<!-- Entity9&#45;&gt;Entity60 -->
<g id="edge10" class="edge verb">
<title>Entity9&#45;&gt;Entity60</title>
<path fill="none" stroke="black" d="M1120.21,-1917.53C1211.01,-1946.74 1432.33,-2017.93 1520.19,-2046.19"/>
<polygon fill="black" stroke="black" points="1519.14,-2049.53 1529.74,-2049.26 1521.29,-2042.86 1519.14,-2049.53"/>
<text text-anchor="start" x="1310.2" y="-1985.66" font-family="Times New Roman,serif" font-size="14.00">is</text>
</g>
<!-- Entity59 -->
<g id="node59" class="node entity">
<title>Entity59</title>
<ellipse fill="none" stroke="black" cx="569.2" cy="-1788.14" rx="55.79" ry="18"/>
<text text-anchor="start" x="534.2" y="-1784.44" font-family="Times New Roman,serif" font-size="14.00">freemasonry</text>
</g>
<!-- Entity9&#45;&gt;Entity59 -->
<g id="edge62" class="edge verb">
<title>Entity9&#45;&gt;Entity59</title>
<path fill="none" stroke="black" d="M1034.12,-1894.17C939.93,-1872.69 726.27,-1823.96 624.75,-1800.81"/>
<polygon fill="black" stroke="black" points="625.52,-1797.39 614.99,-1798.58 623.96,-1804.22 625.52,-1797.39"/>
<text text-anchor="start" x="783.44" y="-1851.29" font-family="Times New Roman,serif" font-size="14.00">member</text>
</g>
<!-- Entity13 -->
<g id="node14" class="node entity">
<title>Entity13</title>
<ellipse fill="none" stroke="black" cx="1551.11" cy="-1637.12" rx="58.49" ry="18"/>
<text text-anchor="start" x="1514.11" y="-1633.42" font-family="Times New Roman,serif" font-size="14.00">richard nixon</text>
</g>
<!-- Entity13&#45;&gt;Entity60 -->
<g id="edge11" class="edge verb">
<title>Entity13&#45;&gt;Entity60</title>
<path fill="none" stroke="black" d="M1551.37,-1655.21C1552.29,-1721.18 1555.49,-1949.24 1556.62,-2029.67"/>
<polygon fill="black" stroke="black" points="1553.12,-2030.06 1556.76,-2040.01 1560.12,-2029.96 1553.12,-2030.06"/>
<text text-anchor="start" x="1543.99" y="-1846.24" font-family="Times New Roman,serif" font-size="14.00">is</text>
</g>
<!-- Entity14 -->
<g id="node15" class="node entity">
<title>Entity14</title>
<ellipse fill="none" stroke="black" cx="1975.17" cy="-1858.21" rx="31.4" ry="18"/>
<text text-anchor="start" x="1959.17" y="-1854.51" font-family="Times New Roman,serif" font-size="14.00">carter</text>
</g>
<!-- Entity14&#45;&gt;Entity60 -->
<g id="edge12" class="edge verb">
<title>Entity14&#45;&gt;Entity60</title>
<path fill="none" stroke="black" d="M1950.88,-1869.82C1879.78,-1903.8 1671.96,-2003.1 1590.41,-2042.07"/>
<polygon fill="black" stroke="black" points="1588.62,-2039.05 1581.11,-2046.52 1591.64,-2045.36 1588.62,-2039.05"/>
<text text-anchor="start" x="1760.65" y="-1959.75" font-family="Times New Roman,serif" font-size="14.00">is</text>
</g>
<!-- Entity64 -->
<g id="node16" class="node entity">
<title>Entity64</title>
<ellipse fill="none" stroke="black" cx="2391.49" cy="-1717.6" rx="27" ry="18"/>
<text text-anchor="start" x="2381.99" y="-1713.9" font-family="Times New Roman,serif" font-size="14.00">ufo</text>
</g>
<!-- Entity14&#45;&gt;Entity64 -->
<g id="edge13" class="edge verb">
<title>Entity14&#45;&gt;Entity64</title>
<path fill="none" stroke="black" d="M2002.17,-1849.09C2075.26,-1824.41 2276.91,-1756.3 2357.53,-1729.07"/>
<polygon fill="black" stroke="black" points="2358.84,-1732.32 2367.19,-1725.81 2356.6,-1725.69 2358.84,-1732.32"/>
<text text-anchor="start" x="2137.85" y="-1792.88" font-family="Times New Roman,serif" font-size="14.00">witness</text>
</g>
<!-- Entity17 -->
<g id="node17" class="node entity">
<title>Entity17</title>
<ellipse fill="none" stroke="black" cx="1578.25" cy="-2406.44" rx="35.19" ry="18"/>
<text text-anchor="start" x="1559.25" y="-2402.74" font-family="Times New Roman,serif" font-size="14.00">obama</text>
</g>
<!-- Entity17&#45;&gt;Entity60 -->
<g id="edge14" class="edge verb">
<title>Entity17&#45;&gt;Entity60</title>
<path fill="none" stroke="black" d="M1577.14,-2388.2C1573.65,-2331.05 1562.94,-2155.19 1558.73,-2086.21"/>
<polygon fill="black" stroke="black" points="1562.22,-2085.86 1558.12,-2076.09 1555.23,-2086.29 1562.22,-2085.86"/>
<text text-anchor="start" x="1557.94" y="-2241" font-family="Times New Roman,serif" font-size="14.00">is</text>
</g>
<!-- Entity10 -->
<g id="node18" class="node entity">
<title>Entity10</title>
<ellipse fill="none" stroke="black" cx="1268.22" cy="-2436.74" rx="68.49" ry="18"/>
<text text-anchor="start" x="1223.72" y="-2433.04" font-family="Times New Roman,serif" font-size="14.00">george hw bush</text>
</g>
<!-- Entity10&#45;&gt;Entity60 -->
<g id="edge15" class="edge verb">
<title>Entity10&#45;&gt;Entity60</title>
<path fill="none" stroke="black" d="M1281.76,-2418.99C1328.59,-2357.58 1483.76,-2154.09 1538.06,-2082.89"/>
<polygon fill="black" stroke="black" points="1540.88,-2084.96 1544.16,-2074.88 1535.32,-2080.71 1540.88,-2084.96"/>
<text text-anchor="start" x="1399.91" y="-2254.74" font-family="Times New Roman,serif" font-size="14.00">is</text>
</g>
<!-- Entity10&#45;&gt;Entity18 -->
<g id="edge29" class="edge verb">
<title>Entity10&#45;&gt;Entity18</title>
<path fill="none" stroke="black" d="M1292.26,-2419.81C1358.73,-2372.99 1545.01,-2241.79 1620.37,-2188.71"/>
<polygon fill="black" stroke="black" points="1622.41,-2191.55 1628.57,-2182.93 1618.38,-2185.83 1622.41,-2191.55"/>
<text text-anchor="start" x="1424.31" y="-2308.06" font-family="Times New Roman,serif" font-size="14.00">father</text>
</g>
<!-- Entity26 -->
<g id="node19" class="node entity">
<title>Entity26</title>
<ellipse fill="none" stroke="black" cx="1165.39" cy="-419.77" rx="58.49" ry="18"/>
<text text-anchor="start" x="1128.39" y="-416.07" font-family="Times New Roman,serif" font-size="14.00">rudolf steiner</text>
</g>
<!-- Entity68 -->
<g id="node20" class="node entity">
<title>Entity68</title>
<ellipse fill="none" stroke="black" cx="1328" cy="-311.74" rx="102.08" ry="18"/>
<text text-anchor="start" x="1257.5" y="-308.04" font-family="Times New Roman,serif" font-size="14.00">anthroposophical society</text>
</g>
<!-- Entity26&#45;&gt;Entity68 -->
<g id="edge16" class="edge verb">
<title>Entity26&#45;&gt;Entity68</title>
<path fill="none" stroke="black" d="M1190.09,-403.36C1217.62,-385.07 1262.34,-355.36 1293.36,-334.75"/>
<polygon fill="black" stroke="black" points="1295.33,-337.65 1301.72,-329.2 1291.46,-331.82 1295.33,-337.65"/>
<text text-anchor="start" x="1207.72" y="-372.86" font-family="Times New Roman,serif" font-size="14.00">create</text>
</g>
<!-- Entity66 -->
<g id="node23" class="node entity">
<title>Entity66</title>
<ellipse fill="none" stroke="black" cx="685.65" cy="-872.86" rx="85.29" ry="18"/>
<text text-anchor="start" x="628.15" y="-869.16" font-family="Times New Roman,serif" font-size="14.00">theosophical society</text>
</g>
<!-- Entity26&#45;&gt;Entity66 -->
<g id="edge21" class="edge verb">
<title>Entity26&#45;&gt;Entity66</title>
<path fill="none" stroke="black" d="M1147.17,-436.98C1073.57,-506.49 798.04,-766.72 711.7,-848.26"/>
<polygon fill="black" stroke="black" points="709.27,-845.74 704.41,-855.15 714.08,-850.83 709.27,-845.74"/>
<text text-anchor="start" x="883.43" y="-646.42" font-family="Times New Roman,serif" font-size="14.00">member</text>
</g>
<!-- Entity22 -->
<g id="node21" class="node entity">
<title>Entity22</title>
<ellipse fill="none" stroke="black" cx="2800.8" cy="-1655.45" rx="27" ry="18"/>
<text text-anchor="start" x="2792.8" y="-1651.75" font-family="Times New Roman,serif" font-size="14.00">cia</text>
</g>
<!-- Entity22&#45;&gt;Entity64 -->
<g id="edge17" class="edge verb">
<title>Entity22&#45;&gt;Entity64</title>
<path fill="none" stroke="black" d="M2774.26,-1659.48C2703.39,-1670.24 2509.59,-1699.67 2428.23,-1712.02"/>
<polygon fill="black" stroke="black" points="2427.33,-1708.62 2417.97,-1713.58 2428.38,-1715.54 2427.33,-1708.62"/>
<text text-anchor="start" x="2537.24" y="-1689.55" font-family="Times New Roman,serif" font-size="14.00">investigates</text>
</g>
<!-- Entity22&#45;&gt;Entity58 -->
<g id="edge63" class="edge verb">
<title>Entity22&#45;&gt;Entity58</title>
<path fill="none" stroke="black" d="M2820.42,-1642.99C2905.66,-1588.89 3244.46,-1373.86 3355.29,-1303.51"/>
<polygon fill="black" stroke="black" points="3357.22,-1306.43 3363.79,-1298.12 3353.47,-1300.52 3357.22,-1306.43"/>
<text text-anchor="start" x="3023.86" y="-1477.05" font-family="Times New Roman,serif" font-size="14.00">investigates</text>
</g>
<!-- Entity28 -->
<g id="node22" class="node entity">
<title>Entity28</title>
<ellipse fill="none" stroke="black" cx="309.38" cy="-314.64" rx="73.39" ry="18"/>
<text text-anchor="start" x="260.88" y="-310.94" font-family="Times New Roman,serif" font-size="14.00">madam blavatsky</text>
</g>
<!-- Entity28&#45;&gt;Entity66 -->
<g id="edge18" class="edge verb">
<title>Entity28&#45;&gt;Entity66</title>
<path fill="none" stroke="black" d="M321.47,-332.58C376.42,-414.11 602.73,-749.85 667.97,-846.64"/>
<polygon fill="black" stroke="black" points="665.11,-848.65 673.6,-854.99 670.92,-844.74 665.11,-848.65"/>
<text text-anchor="start" x="460.72" y="-593.41" font-family="Times New Roman,serif" font-size="14.00">create</text>
</g>
<!-- Entity24 -->
<g id="node24" class="node entity">
<title>Entity24</title>
<ellipse fill="none" stroke="black" cx="1248.91" cy="-2045.44" rx="71.49" ry="18"/>
<text text-anchor="start" x="1201.91" y="-2041.74" font-family="Times New Roman,serif" font-size="14.00">woodrow wilson</text>
</g>
<!-- Entity24&#45;&gt;Entity60 -->
<g id="edge20" class="edge verb">
<title>Entity24&#45;&gt;Entity60</title>
<path fill="none" stroke="black" d="M1319.6,-2048.33C1380.14,-2050.8 1465.26,-2054.28 1515.42,-2056.33"/>
<polygon fill="black" stroke="black" points="1515.44,-2059.83 1525.58,-2056.75 1515.73,-2052.84 1515.44,-2059.83"/>
<text text-anchor="start" x="1407.51" y="-2056.13" font-family="Times New Roman,serif" font-size="14.00">is</text>
</g>
<!-- Entity67 -->
<g id="node25" class="node entity">
<title>Entity67</title>
<ellipse fill="none" stroke="black" cx="1246.99" cy="-2153.36" rx="71.49" ry="18"/>
<text text-anchor="start" x="1199.99" y="-2149.66" font-family="Times New Roman,serif" font-size="14.00">leauge of nations</text>
</g>
<!-- Entity24&#45;&gt;Entity67 -->
<g id="edge19" class="edge verb">
<title>Entity24&#45;&gt;Entity67</title>
<path fill="none" stroke="black" d="M1248.58,-2063.75C1248.28,-2080.59 1247.83,-2105.83 1247.49,-2125.23"/>
<polygon fill="black" stroke="black" points="1243.99,-2125.26 1247.31,-2135.32 1250.98,-2125.39 1243.99,-2125.26"/>
<text text-anchor="start" x="1214.04" y="-2098.29" font-family="Times New Roman,serif" font-size="14.00">create</text>
</g>
<!-- Entity29 -->
<g id="node26" class="node entity">
<title>Entity29</title>
<ellipse fill="none" stroke="black" cx="2024.06" cy="-3297.83" rx="58.49" ry="18"/>
<text text-anchor="start" x="1987.06" y="-3294.13" font-family="Times New Roman,serif" font-size="14.00">steve bannon</text>
</g>
<!-- Entity29&#45;&gt;Entity11 -->
<g id="edge36" class="edge verb">
<title>Entity29&#45;&gt;Entity11</title>
<path fill="none" stroke="black" d="M2025.38,-3279.53C2026,-3178.04 2000.86,-2684.41 1989,-2560.09"/>
<polygon fill="black" stroke="black" points="1992.46,-2559.46 1987.97,-2549.86 1985.49,-2560.16 1992.46,-2559.46"/>
<text text-anchor="start" x="1959.19" y="-2908.61" font-family="Times New Roman,serif" font-size="14.00">promote</text>
</g>
<!-- Entity29&#45;&gt;Entity11 -->
<g id="edge39" class="edge verb">
<title>Entity29&#45;&gt;Entity11</title>
<path fill="none" stroke="black" d="M2020.88,-3279.76C2009.87,-3178.76 1984.33,-2684.18 1983.46,-2559.97"/>
<polygon fill="black" stroke="black" points="1986.96,-2559.75 1983.45,-2549.75 1979.96,-2559.76 1986.96,-2559.75"/>
<text text-anchor="start" x="1966.17" y="-2923.66" font-family="Times New Roman,serif" font-size="14.00">advise</text>
</g>
<!-- Entity74 -->
<g id="node27" class="node entity">
<title>Entity74</title>
<ellipse fill="none" stroke="black" cx="1909.92" cy="-3693.44" rx="38.19" ry="18"/>
<text text-anchor="start" x="1888.42" y="-3689.74" font-family="Times New Roman,serif" font-size="14.00">us navy</text>
</g>
<!-- Entity29&#45;&gt;Entity74 -->
<g id="edge22" class="edge verb">
<title>Entity29&#45;&gt;Entity74</title>
<path fill="none" stroke="black" d="M2018.86,-3315.86C2000.7,-3378.8 1940.02,-3589.12 1917.99,-3665.45"/>
<polygon fill="black" stroke="black" points="1914.56,-3664.73 1915.15,-3675.31 1921.28,-3666.67 1914.56,-3664.73"/>
<text text-anchor="start" x="1922.43" y="-3494.45" font-family="Times New Roman,serif" font-size="14.00">member</text>
</g>
<!-- Entity65 -->
<g id="node28" class="node entity">
<title>Entity65</title>
<ellipse fill="none" stroke="black" cx="2130.46" cy="-3740.12" rx="35.19" ry="18"/>
<text text-anchor="start" x="2111.46" y="-3736.42" font-family="Times New Roman,serif" font-size="14.00">gurgev</text>
</g>
<!-- Entity29&#45;&gt;Entity65 -->
<g id="edge23" class="edge verb">
<title>Entity29&#45;&gt;Entity65</title>
<path fill="none" stroke="black" d="M2028.43,-3315.99C2044.97,-3384.74 2103.8,-3629.29 2123.77,-3712.31"/>
<polygon fill="black" stroke="black" points="2120.37,-3713.14 2126.11,-3722.05 2127.17,-3711.51 2120.37,-3713.14"/>
<text text-anchor="start" x="2045.1" y="-3517.95" font-family="Times New Roman,serif" font-size="14.00">study</text>
</g>
<!-- Entity82 -->
<g id="node29" class="node entity">
<title>Entity82</title>
<ellipse fill="none" stroke="black" cx="2074.08" cy="-3405.87" rx="77.19" ry="18"/>
<text text-anchor="start" x="2022.58" y="-3402.17" font-family="Times New Roman,serif" font-size="14.00">hollywood movies</text>
</g>
<!-- Entity29&#45;&gt;Entity82 -->
<g id="edge25" class="edge verb">
<title>Entity29&#45;&gt;Entity82</title>
<path fill="none" stroke="black" d="M2032.32,-3315.67C2040.24,-3332.77 2052.3,-3358.82 2061.43,-3378.54"/>
<polygon fill="black" stroke="black" points="2058.26,-3380.04 2065.64,-3387.64 2064.61,-3377.1 2058.26,-3380.04"/>
<text text-anchor="start" x="1999.87" y="-3350.9" font-family="Times New Roman,serif" font-size="14.00">produce</text>
</g>
<!-- Entity76 -->
<g id="node30" class="node entity">
<title>Entity76</title>
<ellipse fill="none" stroke="black" cx="1818.06" cy="-3801.45" rx="53.09" ry="18"/>
<text text-anchor="start" x="1785.06" y="-3797.75" font-family="Times New Roman,serif" font-size="14.00">biosphere 2</text>
</g>
<!-- Entity29&#45;&gt;Entity76 -->
<g id="edge26" class="edge verb">
<title>Entity29&#45;&gt;Entity76</title>
<path fill="none" stroke="black" d="M2016.73,-3315.75C1985.89,-3391.16 1866.52,-3682.97 1829.25,-3774.1"/>
<polygon fill="black" stroke="black" points="1825.96,-3772.9 1825.41,-3783.48 1832.44,-3775.55 1825.96,-3772.9"/>
<text text-anchor="start" x="1888.99" y="-3548.73" font-family="Times New Roman,serif" font-size="14.00">create</text>
</g>
<!-- Entity69 -->
<g id="node31" class="node entity">
<title>Entity69</title>
<ellipse fill="none" stroke="black" cx="2420.91" cy="-3799.86" rx="61.99" ry="18"/>
<text text-anchor="start" x="2381.41" y="-3796.16" font-family="Times New Roman,serif" font-size="14.00">breitbart news</text>
</g>
<!-- Entity29&#45;&gt;Entity69 -->
<g id="edge27" class="edge verb">
<title>Entity29&#45;&gt;Entity69</title>
<path fill="none" stroke="black" d="M2037.95,-3315.4C2097.36,-3390.55 2330.21,-3685.13 2400.63,-3774.21"/>
<polygon fill="black" stroke="black" points="2397.98,-3776.5 2406.92,-3782.17 2403.47,-3772.15 2397.98,-3776.5"/>
<text text-anchor="start" x="2185.29" y="-3548.6" font-family="Times New Roman,serif" font-size="14.00">create</text>
</g>
<!-- Entity75 -->
<g id="node50" class="node entity">
<title>Entity75</title>
<ellipse fill="none" stroke="black" cx="1599.97" cy="-3665.94" rx="64.99" ry="18"/>
<text text-anchor="start" x="1557.97" y="-3662.24" font-family="Times New Roman,serif" font-size="14.00">goldman sachs</text>
</g>
<!-- Entity29&#45;&gt;Entity75 -->
<g id="edge50" class="edge verb">
<title>Entity29&#45;&gt;Entity75</title>
<path fill="none" stroke="black" d="M2004.46,-3314.84C1935.95,-3374.31 1707.08,-3572.97 1627.51,-3642.03"/>
<polygon fill="black" stroke="black" points="1625.11,-3639.48 1619.86,-3648.68 1629.7,-3644.77 1625.11,-3639.48"/>
<text text-anchor="start" x="1761.99" y="-3482.24" font-family="Times New Roman,serif" font-size="14.00">employee</text>
</g>
<!-- Entity7 -->
<g id="node32" class="node entity">
<title>Entity7</title>
<ellipse fill="none" stroke="black" cx="3789.84" cy="-768.24" rx="68.49" ry="18"/>
<text text-anchor="start" x="3745.34" y="-764.54" font-family="Times New Roman,serif" font-size="14.00">jeffrey mishlove</text>
</g>
<!-- Entity7&#45;&gt;Entity2 -->
<g id="edge28" class="edge verb">
<title>Entity7&#45;&gt;Entity2</title>
<path fill="none" stroke="black" d="M3814.34,-751.22C3888.5,-699.69 4110.44,-545.46 4191.97,-488.8"/>
<polygon fill="black" stroke="black" points="4194.09,-491.59 4200.31,-483.01 4190.1,-485.84 4194.09,-491.59"/>
<text text-anchor="start" x="3955.16" y="-623.81" font-family="Times New Roman,serif" font-size="14.00">promote</text>
</g>
<!-- Entity7&#45;&gt;Entity58 -->
<g id="edge60" class="edge verb">
<title>Entity7&#45;&gt;Entity58</title>
<path fill="none" stroke="black" d="M3772.73,-785.71C3706.98,-861.71 3472.07,-1163.3 3407.19,-1254.74"/>
<polygon fill="black" stroke="black" points="3404.17,-1252.96 3401.29,-1263.15 3409.9,-1256.98 3404.17,-1252.96"/>
<text text-anchor="start" x="3558.96" y="-1024.02" font-family="Times New Roman,serif" font-size="14.00">study</text>
</g>
<!-- Entity7&#45;&gt;Entity58 -->
<g id="edge64" class="edge verb">
<title>Entity7&#45;&gt;Entity58</title>
<path fill="none" stroke="black" d="M3779.06,-786.32C3725.65,-863.57 3490.82,-1165.58 3414.52,-1255.66"/>
<polygon fill="black" stroke="black" points="3411.69,-1253.58 3407.85,-1263.46 3417.01,-1258.13 3411.69,-1253.58"/>
<text text-anchor="start" x="3596.79" y="-1024.79" font-family="Times New Roman,serif" font-size="14.00">investigates</text>
</g>
<!-- Entity40 -->
<g id="node33" class="node entity">
<title>Entity40</title>
<ellipse fill="none" stroke="black" cx="1172.76" cy="-1580.91" rx="67.69" ry="18"/>
<text text-anchor="start" x="1128.76" y="-1577.21" font-family="Times New Roman,serif" font-size="14.00">abraham lincoln</text>
</g>
<!-- Entity40&#45;&gt;Entity60 -->
<g id="edge30" class="edge verb">
<title>Entity40&#45;&gt;Entity60</title>
<path fill="none" stroke="black" d="M1187.12,-1598.75C1246,-1671.86 1469.01,-1948.76 1537.13,-2033.34"/>
<polygon fill="black" stroke="black" points="1534.59,-2035.77 1543.59,-2041.36 1540.04,-2031.38 1534.59,-2035.77"/>
<text text-anchor="start" x="1352.13" y="-1819.84" font-family="Times New Roman,serif" font-size="14.00">is</text>
</g>
<!-- Entity35&#45;&gt;Entity22 -->
<g id="edge37" class="edge verb">
<title>Entity35&#45;&gt;Entity22</title>
<path fill="none" stroke="black" d="M2490.32,-2062.1C2541.08,-1995.62 2722.77,-1757.66 2781.99,-1680.09"/>
<polygon fill="black" stroke="black" points="2784.99,-1681.93 2788.28,-1671.85 2779.43,-1677.68 2784.99,-1681.93"/>
<text text-anchor="start" x="2590.15" y="-1874.89" font-family="Times New Roman,serif" font-size="14.00">member</text>
</g>
<!-- Entity77 -->
<g id="node35" class="node entity">
<title>Entity77</title>
<ellipse fill="none" stroke="black" cx="2903.84" cy="-2096.51" rx="50.89" ry="18"/>
<text text-anchor="start" x="2872.84" y="-2092.81" font-family="Times New Roman,serif" font-size="14.00">nikola tesla</text>
</g>
<!-- Entity35&#45;&gt;Entity77 -->
<g id="edge31" class="edge verb">
<title>Entity35&#45;&gt;Entity77</title>
<path fill="none" stroke="black" d="M2526.82,-2081.5C2605.53,-2084.63 2758.46,-2090.72 2843.36,-2094.11"/>
<polygon fill="black" stroke="black" points="2843.24,-2097.6 2853.37,-2094.5 2843.52,-2090.61 2843.24,-2097.6"/>
<text text-anchor="start" x="2654.09" y="-2091.6" font-family="Times New Roman,serif" font-size="14.00">study</text>
</g>
<!-- Entity41 -->
<g id="node36" class="node entity">
<title>Entity41</title>
<ellipse fill="none" stroke="black" cx="2552.56" cy="-4361.41" rx="69.59" ry="18"/>
<text text-anchor="start" x="2507.06" y="-4357.71" font-family="Times New Roman,serif" font-size="14.00">andrew breitbart</text>
</g>
<!-- Entity41&#45;&gt;Entity69 -->
<g id="edge32" class="edge verb">
<title>Entity41&#45;&gt;Entity69</title>
<path fill="none" stroke="black" d="M2548.33,-4343.37C2529.2,-4261.77 2450.71,-3927 2427.44,-3827.73"/>
<polygon fill="black" stroke="black" points="2430.81,-3826.78 2425.12,-3817.84 2424,-3828.38 2430.81,-3826.78"/>
<text text-anchor="start" x="2453.88" y="-4089.35" font-family="Times New Roman,serif" font-size="14.00">create</text>
</g>
<!-- Entity38 -->
<g id="node37" class="node entity">
<title>Entity38</title>
<ellipse fill="none" stroke="black" cx="670.24" cy="-980.82" rx="90.98" ry="18"/>
<text text-anchor="start" x="608.24" y="-977.12" font-family="Times New Roman,serif" font-size="14.00">emma hardinge&#45;britten</text>
</g>
<!-- Entity38&#45;&gt;Entity66 -->
<g id="edge33" class="edge verb">
<title>Entity38&#45;&gt;Entity66</title>
<path fill="none" stroke="black" d="M672.85,-962.51C675.26,-945.66 678.86,-920.41 681.63,-901"/>
<polygon fill="black" stroke="black" points="685.13,-901.3 683.08,-890.91 678.2,-900.31 685.13,-901.3"/>
<text text-anchor="start" x="643.24" y="-935.55" font-family="Times New Roman,serif" font-size="14.00">create</text>
</g>
<!-- Entity38&#45;&gt;Entity40 -->
<g id="edge40" class="edge verb">
<title>Entity38&#45;&gt;Entity40</title>
<path fill="none" stroke="black" d="M685.28,-998.78C757.31,-1084.8 1067.05,-1454.68 1151.45,-1555.47"/>
<polygon fill="black" stroke="black" points="1148.92,-1557.9 1158.02,-1563.32 1154.29,-1553.4 1148.92,-1557.9"/>
<text text-anchor="start" x="839.36" y="-1280.92" font-family="Times New Roman,serif" font-size="14.00">spokesperson</text>
</g>
<!-- Entity72 -->
<g id="node43" class="node entity">
<title>Entity72</title>
<ellipse fill="none" stroke="black" cx="55.48" cy="-824.35" rx="55.79" ry="18"/>
<text text-anchor="start" x="20.48" y="-820.65" font-family="Times New Roman,serif" font-size="14.00">orphic circle</text>
</g>
<!-- Entity38&#45;&gt;Entity72 -->
<g id="edge44" class="edge verb">
<title>Entity38&#45;&gt;Entity72</title>
<path fill="none" stroke="black" d="M614.32,-966.59C496.69,-936.65 224.97,-867.49 109.24,-838.04"/>
<polygon fill="black" stroke="black" points="110.08,-834.64 99.53,-835.56 108.36,-841.42 110.08,-834.64"/>
<text text-anchor="start" x="315.78" y="-906.11" font-family="Times New Roman,serif" font-size="14.00">member</text>
</g>
<!-- Entity78 -->
<g id="node49" class="node entity">
<title>Entity78</title>
<ellipse fill="none" stroke="black" cx="223.91" cy="-620.28" rx="39.79" ry="18"/>
<text text-anchor="start" x="201.41" y="-616.58" font-family="Times New Roman,serif" font-size="14.00">medium</text>
</g>
<!-- Entity38&#45;&gt;Entity78 -->
<g id="edge49" class="edge verb">
<title>Entity38&#45;&gt;Entity78</title>
<path fill="none" stroke="black" d="M648.41,-963.19C574.47,-903.46 333.51,-708.81 251.52,-642.58"/>
<polygon fill="black" stroke="black" points="253.63,-639.78 243.65,-636.22 249.23,-645.23 253.63,-639.78"/>
<text text-anchor="start" x="439.96" y="-806.68" font-family="Times New Roman,serif" font-size="14.00">is</text>
</g>
<!-- Entity20 -->
<g id="node38" class="node entity">
<title>Entity20</title>
<ellipse fill="none" stroke="black" cx="3454.56" cy="-1173.07" rx="63.89" ry="18"/>
<text text-anchor="start" x="3413.56" y="-1169.37" font-family="Times New Roman,serif" font-size="14.00">robert bigelow</text>
</g>
<!-- Entity20&#45;&gt;Entity7 -->
<g id="edge34" class="edge verb">
<title>Entity20&#45;&gt;Entity7</title>
<path fill="none" stroke="black" d="M3469.18,-1155.42C3522.34,-1091.23 3705.5,-870.08 3768.42,-794.11"/>
<polygon fill="black" stroke="black" points="3771.46,-795.93 3775.15,-785.99 3766.07,-791.46 3771.46,-795.93"/>
<text text-anchor="start" x="3586.8" y="-978.56" font-family="Times New Roman,serif" font-size="14.00">funds</text>
</g>
<!-- Entity20&#45;&gt;Entity58 -->
<g id="edge66" class="edge verb">
<title>Entity20&#45;&gt;Entity58</title>
<path fill="none" stroke="black" d="M3444,-1190.91C3433.76,-1208.19 3418.12,-1234.61 3406.4,-1254.4"/>
<polygon fill="black" stroke="black" points="3403.25,-1252.85 3401.17,-1263.24 3409.27,-1256.42 3403.25,-1252.85"/>
<text text-anchor="start" x="3361.2" y="-1226.45" font-family="Times New Roman,serif" font-size="14.00">investigates</text>
</g>
<!-- Entity31 -->
<g id="node39" class="node entity">
<title>Entity31</title>
<ellipse fill="none" stroke="black" cx="763.1" cy="-2353.83" rx="53.89" ry="18"/>
<text text-anchor="start" x="729.6" y="-2350.13" font-family="Times New Roman,serif" font-size="14.00">edgar casey</text>
</g>
<!-- Entity31&#45;&gt;Entity24 -->
<g id="edge35" class="edge verb">
<title>Entity31&#45;&gt;Entity24</title>
<path fill="none" stroke="black" d="M788.54,-2337.69C869.49,-2286.3 1121.24,-2126.48 1214.07,-2067.55"/>
<polygon fill="black" stroke="black" points="1215.98,-2070.49 1222.55,-2062.17 1212.23,-2064.58 1215.98,-2070.49"/>
<text text-anchor="start" x="965.31" y="-2206.42" font-family="Times New Roman,serif" font-size="14.00">advise</text>
</g>
<!-- Entity45 -->
<g id="node40" class="node entity">
<title>Entity45</title>
<ellipse fill="none" stroke="black" cx="3267.94" cy="-1900.66" rx="39.79" ry="18"/>
<text text-anchor="start" x="3245.44" y="-1896.96" font-family="Times New Roman,serif" font-size="14.00">crowley</text>
</g>
<!-- Entity71 -->
<g id="node41" class="node entity">
<title>Entity71</title>
<ellipse fill="none" stroke="black" cx="3355.66" cy="-2012.64" rx="38.99" ry="18"/>
<text text-anchor="start" x="3333.66" y="-2008.94" font-family="Times New Roman,serif" font-size="14.00">x magic</text>
</g>
<!-- Entity45&#45;&gt;Entity71 -->
<g id="edge41" class="edge verb">
<title>Entity45&#45;&gt;Entity71</title>
<path fill="none" stroke="black" d="M3281.26,-1917.67C3295.82,-1936.25 3319.28,-1966.2 3335.96,-1987.49"/>
<polygon fill="black" stroke="black" points="3333.29,-1989.76 3342.21,-1995.47 3338.8,-1985.44 3333.29,-1989.76"/>
<text text-anchor="start" x="3262.61" y="-1956.38" font-family="Times New Roman,serif" font-size="14.00">member</text>
</g>
<!-- Entity80 -->
<g id="node55" class="node entity">
<title>Entity80</title>
<ellipse fill="none" stroke="black" cx="4267.25" cy="-2296.06" rx="38.99" ry="18"/>
<text text-anchor="start" x="4245.25" y="-2292.36" font-family="Times New Roman,serif" font-size="14.00">far right</text>
</g>
<!-- Entity54&#45;&gt;Entity80 -->
<g id="edge55" class="edge verb">
<title>Entity54&#45;&gt;Entity80</title>
<path fill="none" stroke="black" d="M4702.46,-2186.42C4622.97,-2206.44 4405.54,-2261.22 4311.53,-2284.91"/>
<polygon fill="black" stroke="black" points="4310.6,-2281.53 4301.75,-2287.37 4312.31,-2288.32 4310.6,-2281.53"/>
<text text-anchor="start" x="4460.99" y="-2239.46" font-family="Times New Roman,serif" font-size="14.00">member</text>
</g>
<!-- Entity47 -->
<g id="node44" class="node entity">
<title>Entity47</title>
<ellipse fill="none" stroke="black" cx="5593.37" cy="-1867.12" rx="46.29" ry="18"/>
<text text-anchor="start" x="5565.87" y="-1863.42" font-family="Times New Roman,serif" font-size="14.00">van braun</text>
</g>
<!-- Entity47&#45;&gt;Entity46 -->
<g id="edge45" class="edge verb">
<title>Entity47&#45;&gt;Entity46</title>
<path fill="none" stroke="black" d="M5553.5,-1857.8C5473.89,-1839.2 5294.67,-1797.32 5198.66,-1774.89"/>
<polygon fill="black" stroke="black" points="5199.32,-1771.45 5188.79,-1772.58 5197.73,-1778.27 5199.32,-1771.45"/>
<text text-anchor="start" x="5322.08" y="-1820.15" font-family="Times New Roman,serif" font-size="14.00">employee</text>
</g>
<!-- Entity47&#45;&gt;Entity73 -->
<g id="edge57" class="edge verb">
<title>Entity47&#45;&gt;Entity73</title>
<path fill="none" stroke="black" d="M5619.44,-1852.1C5651.25,-1833.78 5705.34,-1802.62 5742.06,-1781.48"/>
<polygon fill="black" stroke="black" points="5744.07,-1784.36 5750.99,-1776.33 5740.58,-1778.29 5744.07,-1784.36"/>
<text text-anchor="start" x="5626.75" y="-1820.59" font-family="Times New Roman,serif" font-size="14.00">employee</text>
</g>
<!-- Entity55 -->
<g id="node46" class="node entity">
<title>Entity55</title>
<ellipse fill="none" stroke="black" cx="268.57" cy="-2161.5" rx="37.89" ry="18"/>
<text text-anchor="start" x="247.57" y="-2157.8" font-family="Times New Roman,serif" font-size="14.00">hunt oil</text>
</g>
<!-- Entity53 -->
<g id="node47" class="node entity">
<title>Entity53</title>
<ellipse fill="none" stroke="black" cx="800.41" cy="-2045.49" rx="77.99" ry="18"/>
<text text-anchor="start" x="748.41" y="-2041.79" font-family="Times New Roman,serif" font-size="14.00">dwight eisenhower</text>
</g>
<!-- Entity55&#45;&gt;Entity53 -->
<g id="edge47" class="edge verb">
<title>Entity55&#45;&gt;Entity53</title>
<path fill="none" stroke="black" d="M303.06,-2153.98C389.98,-2135.02 619.21,-2085.01 733.56,-2060.07"/>
<polygon fill="black" stroke="black" points="734.57,-2063.43 743.59,-2057.88 733.08,-2056.59 734.57,-2063.43"/>
<text text-anchor="start" x="492.31" y="-2110.82" font-family="Times New Roman,serif" font-size="14.00">fund</text>
</g>
<!-- Entity53&#45;&gt;Entity60 -->
<g id="edge54" class="edge verb">
<title>Entity53&#45;&gt;Entity60</title>
<path fill="none" stroke="black" d="M878.53,-2046.78C1037.57,-2049.42 1394.15,-2055.33 1515.59,-2057.34"/>
<polygon fill="black" stroke="black" points="1515.54,-2060.84 1525.6,-2057.51 1515.66,-2053.84 1515.54,-2060.84"/>
<text text-anchor="start" x="1187.06" y="-2055.86" font-family="Times New Roman,serif" font-size="14.00">is</text>
</g>
<!-- Entity56&#45;&gt;Entity80 -->
<g id="edge56" class="edge verb">
<title>Entity56&#45;&gt;Entity80</title>
<path fill="none" stroke="black" d="M3738.27,-2341.25C3853.22,-2331.43 4111.06,-2309.4 4218.65,-2300.21"/>
<polygon fill="black" stroke="black" points="4219.22,-2303.68 4228.88,-2299.34 4218.62,-2296.7 4219.22,-2303.68"/>
<text text-anchor="start" x="3932.46" y="-2324.53" font-family="Times New Roman,serif" font-size="14.00">member</text>
</g>
<!-- Entity44 -->
<g id="node52" class="node entity">
<title>Entity44</title>
<ellipse fill="none" stroke="black" cx="2743.94" cy="-2707.66" rx="53.89" ry="18"/>
<text text-anchor="start" x="2710.44" y="-2703.96" font-family="Times New Roman,serif" font-size="14.00">black magic</text>
</g>
<!-- Entity70 -->
<g id="node53" class="node entity">
<title>Entity70</title>
<ellipse fill="none" stroke="black" cx="2831.66" cy="-2819.64" rx="28.7" ry="18"/>
<text text-anchor="start" x="2817.66" y="-2815.94" font-family="Times New Roman,serif" font-size="14.00">x left</text>
</g>
<!-- Entity44&#45;&gt;Entity70 -->
<g id="edge52" class="edge verb">
<title>Entity44&#45;&gt;Entity70</title>
<path fill="none" stroke="black" d="M2757.64,-2725.16C2772.45,-2744.05 2796.14,-2774.29 2812.72,-2795.45"/>
<polygon fill="black" stroke="black" points="2809.98,-2797.64 2818.9,-2803.36 2815.49,-2793.32 2809.98,-2797.64"/>
<text text-anchor="start" x="2739.18" y="-2764.11" font-family="Times New Roman,serif" font-size="14.00">member</text>
</g>
<!-- Entity83 -->
<g id="node56" class="node entity">
<title>Entity83</title>
<ellipse fill="none" stroke="black" cx="2178.94" cy="-1362.66" rx="27" ry="18"/>
<text text-anchor="start" x="2168.94" y="-1358.96" font-family="Times New Roman,serif" font-size="14.00">foo</text>
</g>
<!-- Entity84 -->
<g id="node57" class="node entity">
<title>Entity84</title>
<ellipse fill="none" stroke="black" cx="2266.66" cy="-1474.64" rx="27" ry="18"/>
<text text-anchor="start" x="2256.66" y="-1470.94" font-family="Times New Roman,serif" font-size="14.00">baz</text>
</g>
<!-- Entity83&#45;&gt;Entity84 -->
<g id="edge58" class="edge verb">
<title>Entity83&#45;&gt;Entity84</title>
<path fill="none" stroke="black" d="M2191.51,-1378.7C2206.23,-1397.5 2230.76,-1428.82 2247.78,-1450.53"/>
<polygon fill="black" stroke="black" points="2245.19,-1452.91 2254.11,-1458.62 2250.7,-1448.59 2245.19,-1452.91"/>
<text text-anchor="start" x="2199.64" y="-1418.42" font-family="Times New Roman,serif" font-size="14.00">baz</text>
</g>
<!-- Entity57 -->
<g id="node60" class="node entity">
<title>Entity57</title>
<ellipse fill="none" stroke="black" cx="5035.72" cy="-2452.93" rx="49.29" ry="18"/>
<text text-anchor="start" x="5005.72" y="-2449.23" font-family="Times New Roman,serif" font-size="14.00">adolf hitler</text>
</g>
<!-- Entity57&#45;&gt;Entity54 -->
<g id="edge65" class="edge verb">
<title>Entity57&#45;&gt;Entity54</title>
<path fill="none" stroke="black" d="M5017.19,-2436.2C4964.96,-2389.03 4816.46,-2254.94 4757.16,-2201.4"/>
<polygon fill="black" stroke="black" points="4759.17,-2198.5 4749.4,-2194.4 4754.48,-2203.69 4759.17,-2198.5"/>
<text text-anchor="start" x="4853.17" y="-2322.6" font-family="Times New Roman,serif" font-size="14.00">create</text>
</g>
<!-- Entity3 -->
<g id="node61" class="node entity">
<title>Entity3</title>
<ellipse fill="none" stroke="black" cx="4756.33" cy="-524.14" rx="74.99" ry="18"/>
<text text-anchor="start" x="4706.83" y="-520.44" font-family="Times New Roman,serif" font-size="14.00">gene roddenberry</text>
</g>
<!-- Entity3&#45;&gt;Entity19 -->
<g id="edge67" class="edge verb">
<title>Entity3&#45;&gt;Entity19</title>
<path fill="none" stroke="black" d="M4735.56,-541.67C4668.94,-597.92 4460.63,-773.78 4386.31,-836.52"/>
<polygon fill="black" stroke="black" points="4383.72,-834.14 4378.33,-843.26 4388.23,-839.48 4383.72,-834.14"/>
<text text-anchor="start" x="4456.94" y="-692.9" font-family="Times New Roman,serif" font-size="14.00">claiemd to channel</text>
</g>
</g>
</svg>
