<?xml version="1.0" encoding="UTF-8" standalone="no"?>
<?xml-stylesheet href="../styles.css" type="text/css"?>
<!DOCTYPE svg PUBLIC "-//W3C//DTD SVG 1.1//EN"
 "http://www.w3.org/Graphics/SVG/1.1/DTD/svg11.dtd">
<!-- Generated by graphviz version 2.47.3 (20210619.1520)
 -->
<!-- Title: G Pages: 1 -->
<svg width="3919pt" height="5298pt"
 viewBox="0.00 0.00 3919.00 5298.00" xmlns="http://www.w3.org/2000/svg" xmlns:xlink="http://www.w3.org/1999/xlink">
<g id="graph0" class="graph" transform="scale(1 1) rotate(0) translate(4 5294)">
<title>G</title>
<polygon fill="white" stroke="transparent" points="-4,4 -4,-5294 3915,-5294 3915,4 -4,4"/>
<!-- Entity2 -->
<g id="node1" class="node entity">
<title>Entity2</title>
<ellipse fill="none" stroke="black" cx="295.13" cy="-540.58" rx="64.19" ry="18"/>
<text text-anchor="start" x="253.63" y="-536.88" font-family="Times New Roman,serif" font-size="14.00">andre puharich</text>
</g>
<!-- Entity1 -->
<g id="node2" class="node entity">
<title>Entity1</title>
<ellipse fill="none" stroke="black" cx="688.13" cy="-823.7" rx="41.69" ry="18"/>
<text text-anchor="start" x="664.13" y="-820" font-family="Times New Roman,serif" font-size="14.00">uri geller</text>
</g>
<!-- Entity2&#45;&gt;Entity1 -->
<g id="edge1" class="edge verb">
<title>Entity2&#45;&gt;Entity1</title>
<path fill="none" stroke="black" d="M318.54,-557.44C386.32,-606.27 582.72,-747.76 658.14,-802.1"/>
<polygon fill="black" stroke="black" points="656.15,-804.97 666.31,-807.98 660.24,-799.29 656.15,-804.97"/>
<text text-anchor="start" x="436.34" y="-683.57" font-family="Times New Roman,serif" font-size="14.00">sponsore</text>
</g>
<!-- Entity9 -->
<g id="node4" class="node entity">
<title>Entity9</title>
<ellipse fill="none" stroke="black" cx="941.29" cy="-794.45" rx="38.19" ry="18"/>
<text text-anchor="start" x="919.79" y="-790.75" font-family="Times New Roman,serif" font-size="14.00">the nine</text>
</g>
<!-- Entity1&#45;&gt;Entity9 -->
<g id="edge6" class="edge verb">
<title>Entity1&#45;&gt;Entity9</title>
<path fill="none" stroke="black" d="M728.52,-819.03C773.52,-813.84 846.2,-805.44 893.86,-799.93"/>
<polygon fill="black" stroke="black" points="894.39,-803.4 903.93,-798.77 893.59,-796.44 894.39,-803.4"/>
<text text-anchor="start" x="785.19" y="-798.28" font-family="Times New Roman,serif" font-size="14.00">claiemd to channel</text>
</g>
<!-- Entity4 -->
<g id="node3" class="node entity">
<title>Entity4</title>
<ellipse fill="none" stroke="black" cx="409.88" cy="-934.76" rx="74.99" ry="18"/>
<text text-anchor="start" x="360.38" y="-931.06" font-family="Times New Roman,serif" font-size="14.00">gene roddenberry</text>
</g>
<!-- Entity4&#45;&gt;Entity9 -->
<g id="edge2" class="edge verb">
<title>Entity4&#45;&gt;Entity9</title>
<path fill="none" stroke="black" d="M460.35,-921.43C564.2,-894.01 800.19,-831.71 897.79,-805.94"/>
<polygon fill="black" stroke="black" points="898.85,-809.28 907.62,-803.34 897.06,-802.51 898.85,-809.28"/>
<text text-anchor="start" x="575.07" y="-867.49" font-family="Times New Roman,serif" font-size="14.00">claiemd to channel</text>
</g>
<!-- Entity52 -->
<g id="node43" class="node entity">
<title>Entity52</title>
<ellipse fill="none" stroke="black" cx="674.38" cy="-297.22" rx="94.48" ry="18"/>
<text text-anchor="start" x="609.88" y="-293.52" font-family="Times New Roman,serif" font-size="14.00">egyptian gods in a ship</text>
</g>
<!-- Entity9&#45;&gt;Entity52 -->
<g id="edge35" class="edge verb">
<title>Entity9&#45;&gt;Entity52</title>
<path fill="none" stroke="black" d="M931.79,-776.76C891.83,-702.31 737.21,-414.26 688.89,-324.25"/>
<polygon fill="black" stroke="black" points="691.85,-322.38 684.04,-315.22 685.69,-325.69 691.85,-322.38"/>
<text text-anchor="start" x="780.34" y="-554.31" font-family="Times New Roman,serif" font-size="14.00">claim</text>
</g>
<!-- Entity3 -->
<g id="node5" class="node entity">
<title>Entity3</title>
<ellipse fill="none" stroke="black" cx="1483.16" cy="-995.92" rx="65.79" ry="18"/>
<text text-anchor="start" x="1440.66" y="-992.22" font-family="Times New Roman,serif" font-size="14.00">arthur m young</text>
</g>
<!-- Entity3&#45;&gt;Entity9 -->
<g id="edge3" class="edge verb">
<title>Entity3&#45;&gt;Entity9</title>
<path fill="none" stroke="black" d="M1444.19,-981.43C1344.61,-944.41 1081.63,-846.63 981.12,-809.26"/>
<polygon fill="black" stroke="black" points="982.22,-805.94 971.63,-805.74 979.79,-812.5 982.22,-805.94"/>
<text text-anchor="start" x="1166.65" y="-899.15" font-family="Times New Roman,serif" font-size="14.00">member</text>
</g>
<!-- Entity56 -->
<g id="node30" class="node entity">
<title>Entity56</title>
<ellipse fill="none" stroke="black" cx="2055.99" cy="-688.07" rx="53.89" ry="18"/>
<text text-anchor="start" x="2022.49" y="-684.37" font-family="Times New Roman,serif" font-size="14.00">bell aviation</text>
</g>
<!-- Entity3&#45;&gt;Entity56 -->
<g id="edge22" class="edge verb">
<title>Entity3&#45;&gt;Entity56</title>
<path fill="none" stroke="black" d="M1513.15,-979.81C1609.57,-927.99 1911.53,-765.71 2018.21,-708.38"/>
<polygon fill="black" stroke="black" points="2020.17,-711.3 2027.32,-703.48 2016.85,-705.13 2020.17,-711.3"/>
<text text-anchor="start" x="1731.68" y="-847.89" font-family="Times New Roman,serif" font-size="14.00">create</text>
</g>
<!-- Entity55 -->
<g id="node34" class="node entity">
<title>Entity55</title>
<ellipse fill="none" stroke="black" cx="1508.62" cy="-1693.06" rx="77.19" ry="18"/>
<text text-anchor="start" x="1457.12" y="-1689.36" font-family="Times New Roman,serif" font-size="14.00">psi&#45;consciousness</text>
</g>
<!-- Entity3&#45;&gt;Entity55 -->
<g id="edge53" class="edge verb">
<title>Entity3&#45;&gt;Entity55</title>
<path fill="none" stroke="black" d="M1483.83,-1014.21C1487.3,-1109.43 1503.34,-1548.47 1507.59,-1664.74"/>
<polygon fill="black" stroke="black" points="1504.1,-1665.1 1507.96,-1674.96 1511.09,-1664.84 1504.1,-1665.1"/>
<text text-anchor="start" x="1464.71" y="-1343.28" font-family="Times New Roman,serif" font-size="14.00">study</text>
</g>
<!-- Entity5 -->
<g id="node6" class="node entity">
<title>Entity5</title>
<ellipse fill="none" stroke="black" cx="3835.79" cy="-2002.32" rx="75.29" ry="18"/>
<text text-anchor="start" x="3785.79" y="-1998.62" font-family="Times New Roman,serif" font-size="14.00">lee harvey oswald</text>
</g>
<!-- Entity7 -->
<g id="node7" class="node entity">
<title>Entity7</title>
<ellipse fill="none" stroke="black" cx="3361.13" cy="-2527.62" rx="64.19" ry="18"/>
<text text-anchor="start" x="3319.63" y="-2523.92" font-family="Times New Roman,serif" font-size="14.00">john f kennedy</text>
</g>
<!-- Entity5&#45;&gt;Entity7 -->
<g id="edge4" class="edge verb">
<title>Entity5&#45;&gt;Entity7</title>
<path fill="none" stroke="black" d="M3819.73,-2020.1C3749.15,-2098.21 3466.41,-2411.11 3383.87,-2502.46"/>
<polygon fill="black" stroke="black" points="3381.06,-2500.35 3376.95,-2510.12 3386.25,-2505.04 3381.06,-2500.35"/>
<text text-anchor="start" x="3539.8" y="-2265.08" font-family="Times New Roman,serif" font-size="14.00">assassinate</text>
</g>
<!-- Entity45 -->
<g id="node29" class="node entity">
<title>Entity45</title>
<ellipse fill="none" stroke="black" cx="3831.58" cy="-1354.61" rx="59.29" ry="18"/>
<text text-anchor="start" x="3794.08" y="-1350.91" font-family="Times New Roman,serif" font-size="14.00">guy bannister</text>
</g>
<!-- Entity5&#45;&gt;Entity45 -->
<g id="edge21" class="edge verb">
<title>Entity5&#45;&gt;Entity45</title>
<path fill="none" stroke="black" d="M3835.67,-1983.98C3835.08,-1893.32 3832.48,-1493.09 3831.76,-1382.82"/>
<polygon fill="black" stroke="black" points="3835.26,-1382.77 3831.7,-1372.79 3828.26,-1382.82 3835.26,-1382.77"/>
<text text-anchor="start" x="3779.72" y="-1687.2" font-family="Times New Roman,serif" font-size="14.00">employee</text>
</g>
<!-- Entity53 -->
<g id="node31" class="node entity">
<title>Entity53</title>
<ellipse fill="none" stroke="black" cx="2830.47" cy="-2811.9" rx="31.4" ry="18"/>
<text text-anchor="start" x="2814.47" y="-2808.2" font-family="Times New Roman,serif" font-size="14.00">potus</text>
</g>
<!-- Entity7&#45;&gt;Entity53 -->
<g id="edge23" class="edge verb">
<title>Entity7&#45;&gt;Entity53</title>
<path fill="none" stroke="black" d="M3331.08,-2543.72C3238.35,-2593.39 2957.25,-2743.98 2862.24,-2794.88"/>
<polygon fill="black" stroke="black" points="2860.54,-2791.82 2853.38,-2799.62 2863.85,-2797.99 2860.54,-2791.82"/>
<text text-anchor="start" x="3086.66" y="-2673.1" font-family="Times New Roman,serif" font-size="14.00">is</text>
</g>
<!-- Entity30 -->
<g id="node8" class="node entity">
<title>Entity30</title>
<ellipse fill="none" stroke="black" cx="2084.54" cy="-2742.54" rx="50.09" ry="18"/>
<text text-anchor="start" x="2054.04" y="-2738.84" font-family="Times New Roman,serif" font-size="14.00">john trump</text>
</g>
<!-- Entity17 -->
<g id="node9" class="node entity">
<title>Entity17</title>
<ellipse fill="none" stroke="black" cx="1855.66" cy="-2265.45" rx="27" ry="18"/>
<text text-anchor="start" x="1847.66" y="-2261.75" font-family="Times New Roman,serif" font-size="14.00">cia</text>
</g>
<!-- Entity30&#45;&gt;Entity17 -->
<g id="edge5" class="edge verb">
<title>Entity30&#45;&gt;Entity17</title>
<path fill="none" stroke="black" d="M2075.99,-2724.71C2041.14,-2652.06 1909.74,-2378.18 1868.28,-2291.75"/>
<polygon fill="black" stroke="black" points="1871.38,-2290.11 1863.9,-2282.61 1865.07,-2293.14 1871.38,-2290.11"/>
<text text-anchor="start" x="1926.13" y="-2512.03" font-family="Times New Roman,serif" font-size="14.00">member</text>
</g>
<!-- Entity67 -->
<g id="node47" class="node entity">
<title>Entity67</title>
<ellipse fill="none" stroke="black" cx="1630.26" cy="-2806.83" rx="50.89" ry="18"/>
<text text-anchor="start" x="1599.26" y="-2803.13" font-family="Times New Roman,serif" font-size="14.00">nikola tesla</text>
</g>
<!-- Entity30&#45;&gt;Entity67 -->
<g id="edge40" class="edge verb">
<title>Entity30&#45;&gt;Entity67</title>
<path fill="none" stroke="black" d="M2037.64,-2749.18C1953.82,-2761.04 1778.6,-2785.83 1687.71,-2798.7"/>
<polygon fill="black" stroke="black" points="1687,-2795.26 1677.59,-2800.13 1687.98,-2802.19 1687,-2795.26"/>
<text text-anchor="start" x="1831.68" y="-2777.74" font-family="Times New Roman,serif" font-size="14.00">study</text>
</g>
<!-- Entity17&#45;&gt;Entity55 -->
<g id="edge27" class="edge verb">
<title>Entity17&#45;&gt;Entity55</title>
<path fill="none" stroke="black" d="M1845.46,-2248.63C1796.44,-2167.78 1584.94,-1818.94 1524.69,-1719.57"/>
<polygon fill="black" stroke="black" points="1527.68,-1717.74 1519.5,-1711.01 1521.69,-1721.37 1527.68,-1717.74"/>
<text text-anchor="start" x="1621.08" y="-1987.9" font-family="Times New Roman,serif" font-size="14.00">investigates</text>
</g>
<!-- Entity54 -->
<g id="node52" class="node entity">
<title>Entity54</title>
<ellipse fill="none" stroke="black" cx="2153.76" cy="-2394.79" rx="27" ry="18"/>
<text text-anchor="start" x="2144.26" y="-2391.09" font-family="Times New Roman,serif" font-size="14.00">ufo</text>
</g>
<!-- Entity17&#45;&gt;Entity54 -->
<g id="edge54" class="edge verb">
<title>Entity17&#45;&gt;Entity54</title>
<path fill="none" stroke="black" d="M1878.56,-2275.38C1931.12,-2298.19 2060.57,-2354.35 2121.31,-2380.71"/>
<polygon fill="black" stroke="black" points="2120.22,-2384.05 2130.79,-2384.82 2123,-2377.63 2120.22,-2384.05"/>
<text text-anchor="start" x="1935.93" y="-2331.85" font-family="Times New Roman,serif" font-size="14.00">investigates</text>
</g>
<!-- Entity6 -->
<g id="node10" class="node entity">
<title>Entity6</title>
<ellipse fill="none" stroke="black" cx="1023.58" cy="-1247.28" rx="68.49" ry="18"/>
<text text-anchor="start" x="979.08" y="-1243.58" font-family="Times New Roman,serif" font-size="14.00">jeffrey mishlove</text>
</g>
<!-- Entity6&#45;&gt;Entity1 -->
<g id="edge7" class="edge verb">
<title>Entity6&#45;&gt;Entity1</title>
<path fill="none" stroke="black" d="M1009.6,-1229.62C956.84,-1163 769.75,-926.76 708.04,-848.84"/>
<polygon fill="black" stroke="black" points="710.76,-846.64 701.81,-840.97 705.27,-850.98 710.76,-846.64"/>
<text text-anchor="start" x="810.82" y="-1043.03" font-family="Times New Roman,serif" font-size="14.00">promote</text>
</g>
<!-- Entity6&#45;&gt;Entity55 -->
<g id="edge57" class="edge verb">
<title>Entity6&#45;&gt;Entity55</title>
<path fill="none" stroke="black" d="M1038.74,-1264.87C1106.77,-1334.4 1383.85,-1589.37 1477.54,-1669.13"/>
<polygon fill="black" stroke="black" points="1475.36,-1671.86 1485.26,-1675.64 1479.88,-1666.52 1475.36,-1671.86"/>
<text text-anchor="start" x="1227.14" y="-1470.8" font-family="Times New Roman,serif" font-size="14.00">study</text>
</g>
<!-- Entity6&#45;&gt;Entity55 -->
<g id="edge59" class="edge verb">
<title>Entity6&#45;&gt;Entity55</title>
<path fill="none" stroke="black" d="M1046.42,-1264.26C1128.14,-1332.59 1404.88,-1586.83 1486.09,-1668.03"/>
<polygon fill="black" stroke="black" points="1483.81,-1670.7 1493.33,-1675.34 1488.78,-1665.77 1483.81,-1670.7"/>
<text text-anchor="start" x="1202.26" y="-1454.95" font-family="Times New Roman,serif" font-size="14.00">investigates</text>
</g>
<!-- Entity79 -->
<g id="node11" class="node entity">
<title>Entity79</title>
<ellipse fill="none" stroke="black" cx="1472.94" cy="-2427.66" rx="27" ry="18"/>
<text text-anchor="start" x="1462.94" y="-2423.96" font-family="Times New Roman,serif" font-size="14.00">foo</text>
</g>
<!-- Entity80 -->
<g id="node12" class="node entity">
<title>Entity80</title>
<ellipse fill="none" stroke="black" cx="1560.66" cy="-2539.64" rx="27" ry="18"/>
<text text-anchor="start" x="1550.66" y="-2535.94" font-family="Times New Roman,serif" font-size="14.00">baz</text>
</g>
<!-- Entity79&#45;&gt;Entity80 -->
<g id="edge8" class="edge verb">
<title>Entity79&#45;&gt;Entity80</title>
<path fill="none" stroke="black" d="M1485.51,-2443.7C1500.23,-2462.5 1524.76,-2493.82 1541.78,-2515.53"/>
<polygon fill="black" stroke="black" points="1539.19,-2517.91 1548.11,-2523.62 1544.7,-2513.59 1539.19,-2517.91"/>
<text text-anchor="start" x="1493.64" y="-2483.42" font-family="Times New Roman,serif" font-size="14.00">baz</text>
</g>
<!-- Entity11 -->
<g id="node13" class="node entity">
<title>Entity11</title>
<ellipse fill="none" stroke="black" cx="2827.03" cy="-2920.17" rx="68.49" ry="18"/>
<text text-anchor="start" x="2782.53" y="-2916.47" font-family="Times New Roman,serif" font-size="14.00">george hw bush</text>
</g>
<!-- Entity18 -->
<g id="node14" class="node entity">
<title>Entity18</title>
<ellipse fill="none" stroke="black" cx="3283.99" cy="-2896.5" rx="63.89" ry="18"/>
<text text-anchor="start" x="3242.99" y="-2892.8" font-family="Times New Roman,serif" font-size="14.00">george w bush</text>
</g>
<!-- Entity11&#45;&gt;Entity18 -->
<g id="edge9" class="edge verb">
<title>Entity11&#45;&gt;Entity18</title>
<path fill="none" stroke="black" d="M2894.46,-2916.68C2979.12,-2912.29 3123.79,-2904.8 3210.99,-2900.28"/>
<polygon fill="black" stroke="black" points="3211.27,-2903.77 3221.07,-2899.76 3210.9,-2896.78 3211.27,-2903.77"/>
<text text-anchor="start" x="3020.73" y="-2912.28" font-family="Times New Roman,serif" font-size="14.00">father</text>
</g>
<!-- Entity11&#45;&gt;Entity53 -->
<g id="edge48" class="edge verb">
<title>Entity11&#45;&gt;Entity53</title>
<path fill="none" stroke="black" d="M2827.62,-2901.81C2828.15,-2884.9 2828.96,-2859.58 2829.57,-2840.12"/>
<polygon fill="black" stroke="black" points="2833.08,-2840.1 2829.9,-2829.99 2826.08,-2839.88 2833.08,-2840.1"/>
<text text-anchor="start" x="2818.6" y="-2874.76" font-family="Times New Roman,serif" font-size="14.00">is</text>
</g>
<!-- Entity18&#45;&gt;Entity53 -->
<g id="edge58" class="edge verb">
<title>Entity18&#45;&gt;Entity53</title>
<path fill="none" stroke="black" d="M3230.63,-2886.54C3138.57,-2869.37 2951.92,-2834.55 2870.24,-2819.32"/>
<polygon fill="black" stroke="black" points="2870.83,-2815.86 2860.36,-2817.47 2869.55,-2822.75 2870.83,-2815.86"/>
<text text-anchor="start" x="3040.44" y="-2856.73" font-family="Times New Roman,serif" font-size="14.00">is</text>
</g>
<!-- Entity16 -->
<g id="node15" class="node entity">
<title>Entity16</title>
<ellipse fill="none" stroke="black" cx="935.12" cy="-1673.85" rx="63.89" ry="18"/>
<text text-anchor="start" x="894.12" y="-1670.15" font-family="Times New Roman,serif" font-size="14.00">robert bigelow</text>
</g>
<!-- Entity16&#45;&gt;Entity6 -->
<g id="edge10" class="edge verb">
<title>Entity16&#45;&gt;Entity6</title>
<path fill="none" stroke="black" d="M938.87,-1655.8C952.68,-1589.17 1000.87,-1356.81 1017.71,-1275.58"/>
<polygon fill="black" stroke="black" points="1021.18,-1276.08 1019.79,-1265.58 1014.33,-1274.66 1021.18,-1276.08"/>
<text text-anchor="start" x="946.29" y="-1469.49" font-family="Times New Roman,serif" font-size="14.00">funds</text>
</g>
<!-- Entity16&#45;&gt;Entity55 -->
<g id="edge49" class="edge verb">
<title>Entity16&#45;&gt;Entity55</title>
<path fill="none" stroke="black" d="M998.41,-1675.97C1101.34,-1679.42 1305.19,-1686.25 1421.65,-1690.15"/>
<polygon fill="black" stroke="black" points="1421.84,-1693.66 1431.95,-1690.49 1422.08,-1686.66 1421.84,-1693.66"/>
<text text-anchor="start" x="1146.03" y="-1686.86" font-family="Times New Roman,serif" font-size="14.00">investigates</text>
</g>
<!-- Entity26 -->
<g id="node16" class="node entity">
<title>Entity26</title>
<ellipse fill="none" stroke="black" cx="3444.61" cy="-1957.42" rx="53.89" ry="18"/>
<text text-anchor="start" x="3411.11" y="-1953.72" font-family="Times New Roman,serif" font-size="14.00">edgar casey</text>
</g>
<!-- Entity27 -->
<g id="node17" class="node entity">
<title>Entity27</title>
<ellipse fill="none" stroke="black" cx="3202.36" cy="-2411.23" rx="71.49" ry="18"/>
<text text-anchor="start" x="3155.36" y="-2407.53" font-family="Times New Roman,serif" font-size="14.00">woodrow wilson</text>
</g>
<!-- Entity26&#45;&gt;Entity27 -->
<g id="edge11" class="edge verb">
<title>Entity26&#45;&gt;Entity27</title>
<path fill="none" stroke="black" d="M3435.12,-1975.21C3397.89,-2044.95 3261.73,-2300.02 3216.83,-2384.13"/>
<polygon fill="black" stroke="black" points="3213.68,-2382.6 3212.06,-2393.07 3219.85,-2385.9 3213.68,-2382.6"/>
<text text-anchor="start" x="3289.97" y="-2183.47" font-family="Times New Roman,serif" font-size="14.00">advise</text>
</g>
<!-- Entity27&#45;&gt;Entity53 -->
<g id="edge38" class="edge verb">
<title>Entity27&#45;&gt;Entity53</title>
<path fill="none" stroke="black" d="M3185.9,-2428.96C3126.09,-2493.4 2920.22,-2715.21 2852.36,-2788.32"/>
<polygon fill="black" stroke="black" points="2849.74,-2785.99 2845.5,-2795.7 2854.87,-2790.75 2849.74,-2785.99"/>
<text text-anchor="start" x="3009.13" y="-2612.44" font-family="Times New Roman,serif" font-size="14.00">is</text>
</g>
<!-- Entity58 -->
<g id="node59" class="node entity">
<title>Entity58</title>
<ellipse fill="none" stroke="black" cx="3835.35" cy="-2399.81" rx="71.49" ry="18"/>
<text text-anchor="start" x="3788.35" y="-2396.11" font-family="Times New Roman,serif" font-size="14.00">leauge of nations</text>
</g>
<!-- Entity27&#45;&gt;Entity58 -->
<g id="edge65" class="edge verb">
<title>Entity27&#45;&gt;Entity58</title>
<path fill="none" stroke="black" d="M3273.74,-2409.94C3392.15,-2407.8 3628.48,-2403.54 3753.47,-2401.28"/>
<polygon fill="black" stroke="black" points="3753.81,-2404.78 3763.74,-2401.1 3753.68,-2397.78 3753.81,-2404.78"/>
<text text-anchor="start" x="3479.61" y="-2409.41" font-family="Times New Roman,serif" font-size="14.00">create</text>
</g>
<!-- Entity25 -->
<g id="node18" class="node entity">
<title>Entity25</title>
<ellipse fill="none" stroke="black" cx="2702.12" cy="-3949.44" rx="58.49" ry="18"/>
<text text-anchor="start" x="2665.12" y="-3945.74" font-family="Times New Roman,serif" font-size="14.00">steve bannon</text>
</g>
<!-- Entity8 -->
<g id="node19" class="node entity">
<title>Entity8</title>
<ellipse fill="none" stroke="black" cx="2542.89" cy="-3255.44" rx="59.59" ry="18"/>
<text text-anchor="start" x="2504.89" y="-3251.74" font-family="Times New Roman,serif" font-size="14.00">donald trump</text>
</g>
<!-- Entity25&#45;&gt;Entity8 -->
<g id="edge12" class="edge verb">
<title>Entity25&#45;&gt;Entity8</title>
<path fill="none" stroke="black" d="M2700.36,-3931.42C2684.55,-3836.98 2584.3,-3399.16 2552.31,-3283.51"/>
<polygon fill="black" stroke="black" points="2555.6,-3282.31 2549.51,-3273.64 2548.87,-3284.22 2555.6,-3282.31"/>
<text text-anchor="start" x="2578.33" y="-3611.26" font-family="Times New Roman,serif" font-size="14.00">promote</text>
</g>
<!-- Entity25&#45;&gt;Entity8 -->
<g id="edge15" class="edge verb">
<title>Entity25&#45;&gt;Entity8</title>
<path fill="none" stroke="black" d="M2695.54,-3931.41C2668.05,-3836.94 2567.43,-3399.08 2546.4,-3283.48"/>
<polygon fill="black" stroke="black" points="2549.85,-3282.86 2544.67,-3273.62 2542.95,-3284.07 2549.85,-3282.86"/>
<text text-anchor="start" x="2584.97" y="-3596.25" font-family="Times New Roman,serif" font-size="14.00">advise</text>
</g>
<!-- Entity76 -->
<g id="node38" class="node entity">
<title>Entity76</title>
<ellipse fill="none" stroke="black" cx="3191.04" cy="-4310.29" rx="77.19" ry="18"/>
<text text-anchor="start" x="3139.54" y="-4306.59" font-family="Times New Roman,serif" font-size="14.00">hollywood movies</text>
</g>
<!-- Entity25&#45;&gt;Entity76 -->
<g id="edge30" class="edge verb">
<title>Entity25&#45;&gt;Entity76</title>
<path fill="none" stroke="black" d="M2724.72,-3966.12C2803.76,-4024.46 3067.94,-4219.44 3159.48,-4287.01"/>
<polygon fill="black" stroke="black" points="3157.42,-4289.83 3167.54,-4292.95 3161.57,-4284.2 3157.42,-4289.83"/>
<text text-anchor="start" x="2895.1" y="-4130.36" font-family="Times New Roman,serif" font-size="14.00">produce</text>
</g>
<!-- Entity64 -->
<g id="node46" class="node entity">
<title>Entity64</title>
<ellipse fill="none" stroke="black" cx="2823.72" cy="-4294.3" rx="38.19" ry="18"/>
<text text-anchor="start" x="2802.22" y="-4290.6" font-family="Times New Roman,serif" font-size="14.00">us navy</text>
</g>
<!-- Entity25&#45;&gt;Entity64 -->
<g id="edge39" class="edge verb">
<title>Entity25&#45;&gt;Entity64</title>
<path fill="none" stroke="black" d="M2708.49,-3967.49C2728.47,-4024.18 2790.06,-4198.85 2814.03,-4266.83"/>
<polygon fill="black" stroke="black" points="2810.79,-4268.16 2817.42,-4276.43 2817.39,-4265.83 2810.79,-4268.16"/>
<text text-anchor="start" x="2715.26" y="-4120.96" font-family="Times New Roman,serif" font-size="14.00">member</text>
</g>
<!-- Entity77 -->
<g id="node49" class="node entity">
<title>Entity77</title>
<ellipse fill="none" stroke="black" cx="2355.07" cy="-4400.83" rx="64.99" ry="18"/>
<text text-anchor="start" x="2313.07" y="-4397.13" font-family="Times New Roman,serif" font-size="14.00">goldman sachs</text>
</g>
<!-- Entity25&#45;&gt;Entity77 -->
<g id="edge44" class="edge verb">
<title>Entity25&#45;&gt;Entity77</title>
<path fill="none" stroke="black" d="M2688.52,-3967.13C2635.02,-4036.72 2438.92,-4291.77 2375.21,-4374.63"/>
<polygon fill="black" stroke="black" points="2372.28,-4372.71 2368.96,-4382.77 2377.83,-4376.98 2372.28,-4372.71"/>
<text text-anchor="start" x="2477.86" y="-4174.68" font-family="Times New Roman,serif" font-size="14.00">employee</text>
</g>
<!-- Entity63 -->
<g id="node51" class="node entity">
<title>Entity63</title>
<ellipse fill="none" stroke="black" cx="2960.35" cy="-4432.13" rx="53.09" ry="18"/>
<text text-anchor="start" x="2927.35" y="-4428.43" font-family="Times New Roman,serif" font-size="14.00">biosphere 2</text>
</g>
<!-- Entity25&#45;&gt;Entity63 -->
<g id="edge50" class="edge verb">
<title>Entity25&#45;&gt;Entity63</title>
<path fill="none" stroke="black" d="M2711.77,-3967.48C2751.04,-4040.89 2898.97,-4317.39 2945.94,-4405.19"/>
<polygon fill="black" stroke="black" points="2942.98,-4407.09 2950.79,-4414.25 2949.16,-4403.78 2942.98,-4407.09"/>
<text text-anchor="start" x="2794.86" y="-4190.14" font-family="Times New Roman,serif" font-size="14.00">create</text>
</g>
<!-- Entity65 -->
<g id="node53" class="node entity">
<title>Entity65</title>
<ellipse fill="none" stroke="black" cx="2278.21" cy="-3873.82" rx="61.99" ry="18"/>
<text text-anchor="start" x="2238.71" y="-3870.12" font-family="Times New Roman,serif" font-size="14.00">breitbart news</text>
</g>
<!-- Entity25&#45;&gt;Entity65 -->
<g id="edge55" class="edge verb">
<title>Entity25&#45;&gt;Entity65</title>
<path fill="none" stroke="black" d="M2651.41,-3940.39C2573.69,-3926.53 2425.3,-3900.06 2340.94,-3885.01"/>
<polygon fill="black" stroke="black" points="2341.43,-3881.54 2330.97,-3883.23 2340.2,-3888.43 2341.43,-3881.54"/>
<text text-anchor="start" x="2462.17" y="-3916.5" font-family="Times New Roman,serif" font-size="14.00">create</text>
</g>
<!-- Entity61 -->
<g id="node58" class="node entity">
<title>Entity61</title>
<ellipse fill="none" stroke="black" cx="2656.62" cy="-4430.36" rx="35.19" ry="18"/>
<text text-anchor="start" x="2637.62" y="-4426.66" font-family="Times New Roman,serif" font-size="14.00">gurgev</text>
</g>
<!-- Entity25&#45;&gt;Entity61 -->
<g id="edge64" class="edge verb">
<title>Entity25&#45;&gt;Entity61</title>
<path fill="none" stroke="black" d="M2700.39,-3967.7C2693.47,-4040.91 2667.68,-4313.44 2659.28,-4402.21"/>
<polygon fill="black" stroke="black" points="2655.78,-4402.04 2658.32,-4412.33 2662.75,-4402.7 2655.78,-4402.04"/>
<text text-anchor="start" x="2648.84" y="-4188.76" font-family="Times New Roman,serif" font-size="14.00">study</text>
</g>
<!-- Entity8&#45;&gt;Entity30 -->
<g id="edge13" class="edge verb">
<title>Entity8&#45;&gt;Entity30</title>
<path fill="none" stroke="black" d="M2527.11,-3237.78C2458.58,-3161.09 2186.6,-2856.75 2106.72,-2767.35"/>
<polygon fill="black" stroke="black" points="2109.29,-2764.98 2100.02,-2759.86 2104.07,-2769.65 2109.29,-2764.98"/>
<text text-anchor="start" x="2273.91" y="-3006.37" font-family="Times New Roman,serif" font-size="14.00">nephew</text>
</g>
<!-- Entity8&#45;&gt;Entity53 -->
<g id="edge25" class="edge verb">
<title>Entity8&#45;&gt;Entity53</title>
<path fill="none" stroke="black" d="M2554.52,-3237.5C2599.34,-3168.37 2761.02,-2919.02 2813.73,-2837.72"/>
<polygon fill="black" stroke="black" points="2816.82,-2839.39 2819.32,-2829.09 2810.94,-2835.58 2816.82,-2839.39"/>
<text text-anchor="start" x="2674.12" y="-3041.41" font-family="Times New Roman,serif" font-size="14.00">is</text>
</g>
<!-- Entity34 -->
<g id="node20" class="node entity">
<title>Entity34</title>
<ellipse fill="none" stroke="black" cx="1553.46" cy="-3693.77" rx="90.98" ry="18"/>
<text text-anchor="start" x="1491.46" y="-3690.07" font-family="Times New Roman,serif" font-size="14.00">emma hardinge&#45;britten</text>
</g>
<!-- Entity38 -->
<g id="node21" class="node entity">
<title>Entity38</title>
<ellipse fill="none" stroke="black" cx="2225.15" cy="-3146.88" rx="67.69" ry="18"/>
<text text-anchor="start" x="2181.15" y="-3143.18" font-family="Times New Roman,serif" font-size="14.00">abraham lincoln</text>
</g>
<!-- Entity34&#45;&gt;Entity38 -->
<g id="edge14" class="edge verb">
<title>Entity34&#45;&gt;Entity38</title>
<path fill="none" stroke="black" d="M1575.04,-3676.2C1673.85,-3595.75 2082.94,-3262.68 2196.05,-3170.57"/>
<polygon fill="black" stroke="black" points="2198.44,-3173.15 2203.98,-3164.12 2194.02,-3167.72 2198.44,-3173.15"/>
<text text-anchor="start" x="1806.55" y="-3427.19" font-family="Times New Roman,serif" font-size="14.00">spokesperson</text>
</g>
<!-- Entity59 -->
<g id="node37" class="node entity">
<title>Entity59</title>
<ellipse fill="none" stroke="black" cx="921.04" cy="-4266.46" rx="85.29" ry="18"/>
<text text-anchor="start" x="863.54" y="-4262.76" font-family="Times New Roman,serif" font-size="14.00">theosophical society</text>
</g>
<!-- Entity34&#45;&gt;Entity59 -->
<g id="edge41" class="edge verb">
<title>Entity34&#45;&gt;Entity59</title>
<path fill="none" stroke="black" d="M1533.84,-3711.54C1441.9,-3794.79 1053.78,-4146.26 947.85,-4242.18"/>
<polygon fill="black" stroke="black" points="945.5,-4239.59 940.44,-4248.9 950.2,-4244.78 945.5,-4239.59"/>
<text text-anchor="start" x="1206.84" y="-3980.66" font-family="Times New Roman,serif" font-size="14.00">create</text>
</g>
<!-- Entity68 -->
<g id="node50" class="node entity">
<title>Entity68</title>
<ellipse fill="none" stroke="black" cx="1303.82" cy="-4182.81" rx="39.79" ry="18"/>
<text text-anchor="start" x="1281.32" y="-4179.11" font-family="Times New Roman,serif" font-size="14.00">medium</text>
</g>
<!-- Entity34&#45;&gt;Entity68 -->
<g id="edge45" class="edge verb">
<title>Entity34&#45;&gt;Entity68</title>
<path fill="none" stroke="black" d="M1544.28,-3711.76C1506.46,-3785.84 1362.64,-4067.6 1317.48,-4156.07"/>
<polygon fill="black" stroke="black" points="1314.25,-4154.68 1312.82,-4165.18 1320.49,-4157.87 1314.25,-4154.68"/>
<text text-anchor="start" x="1420.88" y="-3937.71" font-family="Times New Roman,serif" font-size="14.00">is</text>
</g>
<!-- Entity69 -->
<g id="node60" class="node entity">
<title>Entity69</title>
<ellipse fill="none" stroke="black" cx="973.2" cy="-3855.37" rx="55.79" ry="18"/>
<text text-anchor="start" x="938.2" y="-3851.67" font-family="Times New Roman,serif" font-size="14.00">orphic circle</text>
</g>
<!-- Entity34&#45;&gt;Entity69 -->
<g id="edge66" class="edge verb">
<title>Entity34&#45;&gt;Entity69</title>
<path fill="none" stroke="black" d="M1500.68,-3708.47C1390.15,-3739.25 1135.46,-3810.18 1025.42,-3840.83"/>
<polygon fill="black" stroke="black" points="1024.24,-3837.53 1015.54,-3843.58 1026.11,-3844.27 1024.24,-3837.53"/>
<text text-anchor="start" x="1217.05" y="-3778.45" font-family="Times New Roman,serif" font-size="14.00">member</text>
</g>
<!-- Entity38&#45;&gt;Entity53 -->
<g id="edge51" class="edge verb">
<title>Entity38&#45;&gt;Entity53</title>
<path fill="none" stroke="black" d="M2254.76,-3130.5C2356.83,-3074.01 2693.56,-2887.67 2798.77,-2829.44"/>
<polygon fill="black" stroke="black" points="2800.59,-2832.43 2807.65,-2824.53 2797.21,-2826.31 2800.59,-2832.43"/>
<text text-anchor="start" x="2516.76" y="-2983.77" font-family="Times New Roman,serif" font-size="14.00">is</text>
</g>
<!-- Entity40 -->
<g id="node22" class="node entity">
<title>Entity40</title>
<ellipse fill="none" stroke="black" cx="2266.48" cy="-275.76" rx="57.69" ry="18"/>
<text text-anchor="start" x="2229.98" y="-272.06" font-family="Times New Roman,serif" font-size="14.00">michael pane</text>
</g>
<!-- Entity37 -->
<g id="node23" class="node entity">
<title>Entity37</title>
<ellipse fill="none" stroke="black" cx="2681.7" cy="-616.67" rx="74.99" ry="18"/>
<text text-anchor="start" x="2632.2" y="-612.97" font-family="Times New Roman,serif" font-size="14.00">walter dornberger</text>
</g>
<!-- Entity40&#45;&gt;Entity37 -->
<g id="edge16" class="edge verb">
<title>Entity40&#45;&gt;Entity37</title>
<path fill="none" stroke="black" d="M2287.07,-292.67C2355.12,-348.54 2572.95,-527.39 2652.37,-592.59"/>
<polygon fill="black" stroke="black" points="2650.54,-595.62 2660.49,-599.26 2654.98,-590.21 2650.54,-595.62"/>
<text text-anchor="start" x="2415.72" y="-446.43" font-family="Times New Roman,serif" font-size="14.00">employee</text>
</g>
<!-- Entity40&#45;&gt;Entity56 -->
<g id="edge62" class="edge verb">
<title>Entity40&#45;&gt;Entity56</title>
<path fill="none" stroke="black" d="M2257.3,-293.74C2224.06,-358.85 2109.87,-582.52 2069.92,-660.78"/>
<polygon fill="black" stroke="black" points="2066.65,-659.5 2065.22,-670 2072.88,-662.68 2066.65,-659.5"/>
<text text-anchor="start" x="2109.61" y="-481.06" font-family="Times New Roman,serif" font-size="14.00">employee</text>
</g>
<!-- Entity51 -->
<g id="node24" class="node entity">
<title>Entity51</title>
<ellipse fill="none" stroke="black" cx="3289.16" cy="-616.9" rx="32.49" ry="18"/>
<text text-anchor="start" x="3272.16" y="-613.2" font-family="Times New Roman,serif" font-size="14.00">nsdap</text>
</g>
<!-- Entity37&#45;&gt;Entity51 -->
<g id="edge17" class="edge verb">
<title>Entity37&#45;&gt;Entity51</title>
<path fill="none" stroke="black" d="M2756.49,-616.7C2885.13,-616.75 3144.29,-616.84 3246.4,-616.88"/>
<polygon fill="black" stroke="black" points="3246.64,-620.38 3256.64,-616.89 3246.64,-613.38 3246.64,-620.38"/>
<text text-anchor="start" x="2955.45" y="-620.59" font-family="Times New Roman,serif" font-size="14.00">member</text>
</g>
<!-- Entity37&#45;&gt;Entity56 -->
<g id="edge32" class="edge verb">
<title>Entity37&#45;&gt;Entity56</title>
<path fill="none" stroke="black" d="M2608.49,-620.48C2482.32,-631.74 2226.51,-661.08 2112.74,-677.47"/>
<polygon fill="black" stroke="black" points="2112.23,-674.01 2102.84,-678.92 2113.24,-680.94 2112.23,-674.01"/>
<text text-anchor="start" x="2306.62" y="-652.77" font-family="Times New Roman,serif" font-size="14.00">employee</text>
</g>
<!-- Entity37&#45;&gt;Entity56 -->
<g id="edge42" class="edge verb">
<title>Entity37&#45;&gt;Entity56</title>
<path fill="none" stroke="black" d="M2622.17,-627.67C2504.27,-644.54 2241.93,-674.51 2120.26,-685.05"/>
<polygon fill="black" stroke="black" points="2119.65,-681.59 2109.98,-685.92 2120.24,-688.56 2119.65,-681.59"/>
<text text-anchor="start" x="2371.22" y="-660.16" font-family="Times New Roman,serif" font-size="14.00">vice&#45;president</text>
</g>
<!-- Entity72 -->
<g id="node48" class="node entity">
<title>Entity72</title>
<ellipse fill="none" stroke="black" cx="2932.56" cy="-498.47" rx="90.98" ry="18"/>
<text text-anchor="start" x="2870.56" y="-494.77" font-family="Times New Roman,serif" font-size="14.00">nsdap rocket program</text>
</g>
<!-- Entity37&#45;&gt;Entity72 -->
<g id="edge43" class="edge verb">
<title>Entity37&#45;&gt;Entity72</title>
<path fill="none" stroke="black" d="M2715.79,-600.61C2760.47,-579.56 2838.92,-542.59 2888.18,-519.38"/>
<polygon fill="black" stroke="black" points="2889.77,-522.5 2897.33,-515.07 2886.79,-516.17 2889.77,-522.5"/>
<text text-anchor="start" x="2767.99" y="-563.79" font-family="Times New Roman,serif" font-size="14.00">create</text>
</g>
<!-- Entity73 -->
<g id="node61" class="node entity">
<title>Entity73</title>
<ellipse fill="none" stroke="black" cx="2802.06" cy="-17.79" rx="65.79" ry="18"/>
<text text-anchor="start" x="2759.56" y="-14.09" font-family="Times New Roman,serif" font-size="14.00">x series aircraft</text>
</g>
<!-- Entity37&#45;&gt;Entity73 -->
<g id="edge67" class="edge verb">
<title>Entity37&#45;&gt;Entity73</title>
<path fill="none" stroke="black" d="M2685.36,-598.42C2702.58,-512.75 2775.43,-150.29 2796.39,-45.98"/>
<polygon fill="black" stroke="black" points="2799.88,-46.39 2798.42,-35.9 2793.02,-45.01 2799.88,-46.39"/>
<text text-anchor="start" x="2706.88" y="-326" font-family="Times New Roman,serif" font-size="14.00">create</text>
</g>
<!-- Entity74 -->
<g id="node41" class="node entity">
<title>Entity74</title>
<ellipse fill="none" stroke="black" cx="3605.07" cy="-881.37" rx="38.99" ry="18"/>
<text text-anchor="start" x="3583.07" y="-877.67" font-family="Times New Roman,serif" font-size="14.00">far right</text>
</g>
<!-- Entity51&#45;&gt;Entity74 -->
<g id="edge47" class="edge verb">
<title>Entity51&#45;&gt;Entity74</title>
<path fill="none" stroke="black" d="M3307.51,-632.26C3360.69,-676.79 3515.12,-806.06 3577.98,-858.69"/>
<polygon fill="black" stroke="black" points="3575.96,-861.56 3585.87,-865.3 3580.45,-856.19 3575.96,-861.56"/>
<text text-anchor="start" x="3396.74" y="-749.27" font-family="Times New Roman,serif" font-size="14.00">member</text>
</g>
<!-- Entity46 -->
<g id="node25" class="node entity">
<title>Entity46</title>
<ellipse fill="none" stroke="black" cx="2499.61" cy="-496.42" rx="46.29" ry="18"/>
<text text-anchor="start" x="2472.11" y="-492.72" font-family="Times New Roman,serif" font-size="14.00">van braun</text>
</g>
<!-- Entity46&#45;&gt;Entity37 -->
<g id="edge18" class="edge verb">
<title>Entity46&#45;&gt;Entity37</title>
<path fill="none" stroke="black" d="M2523.42,-512.14C2554.96,-532.97 2610.85,-569.88 2647.07,-593.8"/>
<polygon fill="black" stroke="black" points="2645.56,-597 2655.83,-599.59 2649.41,-591.15 2645.56,-597"/>
<text text-anchor="start" x="2531.24" y="-556.77" font-family="Times New Roman,serif" font-size="14.00">employee</text>
</g>
<!-- Entity46&#45;&gt;Entity72 -->
<g id="edge46" class="edge verb">
<title>Entity46&#45;&gt;Entity72</title>
<path fill="none" stroke="black" d="M2545.95,-496.64C2613.58,-496.96 2741.08,-497.56 2831.13,-497.99"/>
<polygon fill="black" stroke="black" points="2831.35,-501.49 2841.37,-498.04 2831.39,-494.49 2831.35,-501.49"/>
<text text-anchor="start" x="2634.54" y="-501.11" font-family="Times New Roman,serif" font-size="14.00">employee</text>
</g>
<!-- Entity49 -->
<g id="node26" class="node entity">
<title>Entity49</title>
<ellipse fill="none" stroke="black" cx="3532.77" cy="-282.14" rx="49.29" ry="18"/>
<text text-anchor="start" x="3502.77" y="-278.44" font-family="Times New Roman,serif" font-size="14.00">adolf hitler</text>
</g>
<!-- Entity49&#45;&gt;Entity51 -->
<g id="edge19" class="edge verb">
<title>Entity49&#45;&gt;Entity51</title>
<path fill="none" stroke="black" d="M3520.01,-299.67C3479.71,-355.05 3354.99,-526.43 3307.64,-591.49"/>
<polygon fill="black" stroke="black" points="3304.55,-589.8 3301.49,-599.95 3310.21,-593.92 3304.55,-589.8"/>
<text text-anchor="start" x="3379.83" y="-449.38" font-family="Times New Roman,serif" font-size="14.00">create</text>
</g>
<!-- Entity50 -->
<g id="node27" class="node entity">
<title>Entity50</title>
<ellipse fill="none" stroke="black" cx="2991.91" cy="-2590.5" rx="37.89" ry="18"/>
<text text-anchor="start" x="2970.91" y="-2586.8" font-family="Times New Roman,serif" font-size="14.00">hunt oil</text>
</g>
<!-- Entity48 -->
<g id="node28" class="node entity">
<title>Entity48</title>
<ellipse fill="none" stroke="black" cx="2919.85" cy="-2698.73" rx="77.99" ry="18"/>
<text text-anchor="start" x="2867.85" y="-2695.03" font-family="Times New Roman,serif" font-size="14.00">dwight eisenhower</text>
</g>
<!-- Entity50&#45;&gt;Entity48 -->
<g id="edge20" class="edge verb">
<title>Entity50&#45;&gt;Entity48</title>
<path fill="none" stroke="black" d="M2980.34,-2607.89C2968.76,-2625.28 2950.81,-2652.24 2937.47,-2672.27"/>
<polygon fill="black" stroke="black" points="2934.51,-2670.4 2931.88,-2680.66 2940.34,-2674.28 2934.51,-2670.4"/>
<text text-anchor="start" x="2932.9" y="-2643.88" font-family="Times New Roman,serif" font-size="14.00">fund</text>
</g>
<!-- Entity48&#45;&gt;Entity53 -->
<g id="edge52" class="edge verb">
<title>Entity48&#45;&gt;Entity53</title>
<path fill="none" stroke="black" d="M2905.69,-2716.66C2890.65,-2735.7 2866.79,-2765.92 2849.98,-2787.2"/>
<polygon fill="black" stroke="black" points="2847.14,-2785.14 2843.69,-2795.16 2852.64,-2789.48 2847.14,-2785.14"/>
<text text-anchor="start" x="2867.83" y="-2755.73" font-family="Times New Roman,serif" font-size="14.00">is</text>
</g>
<!-- Entity45&#45;&gt;Entity74 -->
<g id="edge33" class="edge verb">
<title>Entity45&#45;&gt;Entity74</title>
<path fill="none" stroke="black" d="M3822.98,-1336.64C3788.43,-1264.46 3659.65,-995.39 3618.09,-908.56"/>
<polygon fill="black" stroke="black" points="3621.16,-906.87 3613.68,-899.36 3614.85,-909.89 3621.16,-906.87"/>
<text text-anchor="start" x="3674.53" y="-1126.4" font-family="Times New Roman,serif" font-size="14.00">member</text>
</g>
<!-- Entity13 -->
<g id="node32" class="node entity">
<title>Entity13</title>
<ellipse fill="none" stroke="black" cx="3032.67" cy="-3213.46" rx="58.49" ry="18"/>
<text text-anchor="start" x="2995.67" y="-3209.76" font-family="Times New Roman,serif" font-size="14.00">richard nixon</text>
</g>
<!-- Entity13&#45;&gt;Entity53 -->
<g id="edge24" class="edge verb">
<title>Entity13&#45;&gt;Entity53</title>
<path fill="none" stroke="black" d="M3023.59,-3195.42C2991.31,-3131.32 2882.02,-2914.27 2843.8,-2838.37"/>
<polygon fill="black" stroke="black" points="2846.92,-2836.78 2839.3,-2829.43 2840.67,-2839.93 2846.92,-2836.78"/>
<text text-anchor="start" x="2923.7" y="-3020.7" font-family="Times New Roman,serif" font-size="14.00">is</text>
</g>
<!-- Entity10 -->
<g id="node33" class="node entity">
<title>Entity10</title>
<ellipse fill="none" stroke="black" cx="3271.11" cy="-3094.59" rx="56.59" ry="18"/>
<text text-anchor="start" x="3235.61" y="-3090.89" font-family="Times New Roman,serif" font-size="14.00">harry truman</text>
</g>
<!-- Entity10&#45;&gt;Entity53 -->
<g id="edge26" class="edge verb">
<title>Entity10&#45;&gt;Entity53</title>
<path fill="none" stroke="black" d="M3245.84,-3078.37C3169.59,-3029.46 2942.09,-2883.5 2860.23,-2830.99"/>
<polygon fill="black" stroke="black" points="2861.74,-2827.8 2851.43,-2825.34 2857.96,-2833.69 2861.74,-2827.8"/>
<text text-anchor="start" x="3043.03" y="-2958.48" font-family="Times New Roman,serif" font-size="14.00">is</text>
</g>
<!-- Entity57 -->
<g id="node42" class="node entity">
<title>Entity57</title>
<ellipse fill="none" stroke="black" cx="3733" cy="-3322.78" rx="55.79" ry="18"/>
<text text-anchor="start" x="3698" y="-3319.08" font-family="Times New Roman,serif" font-size="14.00">freemasonry</text>
</g>
<!-- Entity10&#45;&gt;Entity57 -->
<g id="edge34" class="edge verb">
<title>Entity10&#45;&gt;Entity57</title>
<path fill="none" stroke="black" d="M3301.78,-3109.73C3382.83,-3149.78 3602.71,-3258.41 3693.24,-3303.13"/>
<polygon fill="black" stroke="black" points="3691.83,-3306.35 3702.35,-3307.64 3694.93,-3300.07 3691.83,-3306.35"/>
<text text-anchor="start" x="3451.51" y="-3210.23" font-family="Times New Roman,serif" font-size="14.00">member</text>
</g>
<!-- Entity22 -->
<g id="node35" class="node entity">
<title>Entity22</title>
<ellipse fill="none" stroke="black" cx="534.56" cy="-4780.46" rx="58.49" ry="18"/>
<text text-anchor="start" x="497.56" y="-4776.76" font-family="Times New Roman,serif" font-size="14.00">rudolf steiner</text>
</g>
<!-- Entity60 -->
<g id="node36" class="node entity">
<title>Entity60</title>
<ellipse fill="none" stroke="black" cx="101.99" cy="-5272.03" rx="102.08" ry="18"/>
<text text-anchor="start" x="31.49" y="-5268.33" font-family="Times New Roman,serif" font-size="14.00">anthroposophical society</text>
</g>
<!-- Entity22&#45;&gt;Entity60 -->
<g id="edge28" class="edge verb">
<title>Entity22&#45;&gt;Entity60</title>
<path fill="none" stroke="black" d="M519.16,-4797.95C454.07,-4871.92 201.27,-5159.21 124.34,-5246.64"/>
<polygon fill="black" stroke="black" points="121.63,-5244.41 117.65,-5254.23 126.89,-5249.04 121.63,-5244.41"/>
<text text-anchor="start" x="287.75" y="-5026.1" font-family="Times New Roman,serif" font-size="14.00">create</text>
</g>
<!-- Entity22&#45;&gt;Entity59 -->
<g id="edge29" class="edge verb">
<title>Entity22&#45;&gt;Entity59</title>
<path fill="none" stroke="black" d="M547.86,-4762.76C605.4,-4686.24 833.04,-4383.49 901.48,-4292.47"/>
<polygon fill="black" stroke="black" points="904.38,-4294.44 907.6,-4284.34 898.79,-4290.23 904.38,-4294.44"/>
<text text-anchor="start" x="678.67" y="-4531.42" font-family="Times New Roman,serif" font-size="14.00">member</text>
</g>
<!-- Entity44 -->
<g id="node39" class="node entity">
<title>Entity44</title>
<ellipse fill="none" stroke="black" cx="1740.94" cy="-3150.66" rx="53.89" ry="18"/>
<text text-anchor="start" x="1707.44" y="-3146.96" font-family="Times New Roman,serif" font-size="14.00">black magic</text>
</g>
<!-- Entity71 -->
<g id="node40" class="node entity">
<title>Entity71</title>
<ellipse fill="none" stroke="black" cx="1828.66" cy="-3262.64" rx="28.7" ry="18"/>
<text text-anchor="start" x="1814.66" y="-3258.94" font-family="Times New Roman,serif" font-size="14.00">x left</text>
</g>
<!-- Entity44&#45;&gt;Entity71 -->
<g id="edge31" class="edge verb">
<title>Entity44&#45;&gt;Entity71</title>
<path fill="none" stroke="black" d="M1754.64,-3168.16C1769.45,-3187.05 1793.14,-3217.29 1809.72,-3238.45"/>
<polygon fill="black" stroke="black" points="1806.98,-3240.64 1815.9,-3246.36 1812.49,-3236.32 1806.98,-3240.64"/>
<text text-anchor="start" x="1736.18" y="-3207.11" font-family="Times New Roman,serif" font-size="14.00">member</text>
</g>
<!-- Entity14 -->
<g id="node44" class="node entity">
<title>Entity14</title>
<ellipse fill="none" stroke="black" cx="2483.59" cy="-2602.87" rx="31.4" ry="18"/>
<text text-anchor="start" x="2467.59" y="-2599.17" font-family="Times New Roman,serif" font-size="14.00">carter</text>
</g>
<!-- Entity14&#45;&gt;Entity53 -->
<g id="edge36" class="edge verb">
<title>Entity14&#45;&gt;Entity53</title>
<path fill="none" stroke="black" d="M2505.29,-2615.95C2564.91,-2651.87 2731.34,-2752.16 2800.12,-2793.61"/>
<polygon fill="black" stroke="black" points="2798.41,-2796.66 2808.78,-2798.83 2802.02,-2790.67 2798.41,-2796.66"/>
<text text-anchor="start" x="2642.71" y="-2708.58" font-family="Times New Roman,serif" font-size="14.00">is</text>
</g>
<!-- Entity14&#45;&gt;Entity54 -->
<g id="edge63" class="edge verb">
<title>Entity14&#45;&gt;Entity54</title>
<path fill="none" stroke="black" d="M2462.46,-2589.54C2405.15,-2553.39 2246.78,-2453.47 2181.96,-2412.58"/>
<polygon fill="black" stroke="black" points="2183.78,-2409.59 2173.46,-2407.22 2180.05,-2415.52 2183.78,-2409.59"/>
<text text-anchor="start" x="2280.21" y="-2504.86" font-family="Times New Roman,serif" font-size="14.00">witness</text>
</g>
<!-- Entity21 -->
<g id="node45" class="node entity">
<title>Entity21</title>
<ellipse fill="none" stroke="black" cx="2769.18" cy="-2479.03" rx="35.19" ry="18"/>
<text text-anchor="start" x="2750.18" y="-2475.33" font-family="Times New Roman,serif" font-size="14.00">obama</text>
</g>
<!-- Entity21&#45;&gt;Entity53 -->
<g id="edge37" class="edge verb">
<title>Entity21&#45;&gt;Entity53</title>
<path fill="none" stroke="black" d="M2772.57,-2497.4C2782.74,-2552.65 2813.11,-2717.6 2825.31,-2783.87"/>
<polygon fill="black" stroke="black" points="2821.92,-2784.79 2827.17,-2793.99 2828.8,-2783.52 2821.92,-2784.79"/>
<text text-anchor="start" x="2788.94" y="-2644.44" font-family="Times New Roman,serif" font-size="14.00">is</text>
</g>
<!-- Entity35 -->
<g id="node54" class="node entity">
<title>Entity35</title>
<ellipse fill="none" stroke="black" cx="2208.94" cy="-1945.66" rx="39.79" ry="18"/>
<text text-anchor="start" x="2186.44" y="-1941.96" font-family="Times New Roman,serif" font-size="14.00">crowley</text>
</g>
<!-- Entity70 -->
<g id="node55" class="node entity">
<title>Entity70</title>
<ellipse fill="none" stroke="black" cx="2296.66" cy="-2057.64" rx="38.99" ry="18"/>
<text text-anchor="start" x="2274.66" y="-2053.94" font-family="Times New Roman,serif" font-size="14.00">x magic</text>
</g>
<!-- Entity35&#45;&gt;Entity70 -->
<g id="edge56" class="edge verb">
<title>Entity35&#45;&gt;Entity70</title>
<path fill="none" stroke="black" d="M2222.26,-1962.67C2236.82,-1981.25 2260.28,-2011.2 2276.96,-2032.49"/>
<polygon fill="black" stroke="black" points="2274.29,-2034.76 2283.21,-2040.47 2279.8,-2030.44 2274.29,-2034.76"/>
<text text-anchor="start" x="2203.61" y="-2001.38" font-family="Times New Roman,serif" font-size="14.00">member</text>
</g>
<!-- Entity24 -->
<g id="node56" class="node entity">
<title>Entity24</title>
<ellipse fill="none" stroke="black" cx="337.6" cy="-4528.99" rx="73.39" ry="18"/>
<text text-anchor="start" x="289.1" y="-4525.29" font-family="Times New Roman,serif" font-size="14.00">madam blavatsky</text>
</g>
<!-- Entity24&#45;&gt;Entity59 -->
<g id="edge60" class="edge verb">
<title>Entity24&#45;&gt;Entity59</title>
<path fill="none" stroke="black" d="M372.78,-4513.15C473.45,-4467.86 762.61,-4337.75 875.3,-4287.04"/>
<polygon fill="black" stroke="black" points="877.01,-4290.11 884.7,-4282.81 874.14,-4283.72 877.01,-4290.11"/>
<text text-anchor="start" x="590.04" y="-4403.9" font-family="Times New Roman,serif" font-size="14.00">create</text>
</g>
<!-- Entity31 -->
<g id="node57" class="node entity">
<title>Entity31</title>
<ellipse fill="none" stroke="black" cx="2166.53" cy="-3983.81" rx="69.59" ry="18"/>
<text text-anchor="start" x="2121.03" y="-3980.11" font-family="Times New Roman,serif" font-size="14.00">andrew breitbart</text>
</g>
<!-- Entity31&#45;&gt;Entity65 -->
<g id="edge61" class="edge verb">
<title>Entity31&#45;&gt;Entity65</title>
<path fill="none" stroke="black" d="M2184.47,-3966.14C2203.14,-3947.75 2232.52,-3918.82 2253.4,-3898.25"/>
<polygon fill="black" stroke="black" points="2256.01,-3900.6 2260.68,-3891.09 2251.1,-3895.61 2256.01,-3900.6"/>
<text text-anchor="start" x="2184.94" y="-3936" font-family="Times New Roman,serif" font-size="14.00">create</text>
</g>
</g>
</svg>
