<?xml version="1.0" encoding="UTF-8" standalone="no"?>
<?xml-stylesheet href="../styles.css" type="text/css"?>
<!DOCTYPE svg PUBLIC "-//W3C//DTD SVG 1.1//EN"
 "http://www.w3.org/Graphics/SVG/1.1/DTD/svg11.dtd">
<!-- Generated by graphviz version 2.47.3 (20210619.1520)
 -->
<!-- Title: G Pages: 1 -->
<svg width="5380pt" height="2886pt"
 viewBox="0.00 0.00 5380.00 2886.00" xmlns="http://www.w3.org/2000/svg" xmlns:xlink="http://www.w3.org/1999/xlink">
<g id="graph0" class="graph" transform="scale(1 1) rotate(0) translate(4 2882)">
<title>G</title>
<polygon fill="white" stroke="transparent" points="-4,4 -4,-2882 5376,-2882 5376,4 -4,4"/>
<!-- Entity3 -->
<g id="node1" class="node entity">
<title>Entity3</title>
<ellipse fill="none" stroke="black" cx="1259.97" cy="-1820.8" rx="56.59" ry="18"/>
<text text-anchor="start" x="1224.47" y="-1817.1" font-family="Times New Roman,serif" font-size="14.00">arthur young</text>
</g>
<!-- Entity56 -->
<g id="node2" class="node entity">
<title>Entity56</title>
<ellipse fill="none" stroke="black" cx="1924.12" cy="-1519.41" rx="53.89" ry="18"/>
<text text-anchor="start" x="1890.62" y="-1515.71" font-family="Times New Roman,serif" font-size="14.00">bell aviation</text>
</g>
<!-- Entity3&#45;&gt;Entity56 -->
<g id="edge1" class="edge verb">
<title>Entity3&#45;&gt;Entity56</title>
<path fill="none" stroke="black" d="M1292.46,-1806.06C1402.38,-1756.18 1760.33,-1593.74 1882.68,-1538.21"/>
<polygon fill="black" stroke="black" points="1884.43,-1541.26 1892.09,-1533.94 1881.54,-1534.89 1884.43,-1541.26"/>
<text text-anchor="start" x="1553.57" y="-1675.94" font-family="Times New Roman,serif" font-size="14.00">create</text>
</g>
<!-- Entity55 -->
<g id="node4" class="node entity">
<title>Entity55</title>
<ellipse fill="none" stroke="black" cx="1339.33" cy="-1928.82" rx="77.19" ry="18"/>
<text text-anchor="start" x="1287.83" y="-1925.12" font-family="Times New Roman,serif" font-size="14.00">psi&#45;consciousness</text>
</g>
<!-- Entity3&#45;&gt;Entity55 -->
<g id="edge3" class="edge verb">
<title>Entity3&#45;&gt;Entity55</title>
<path fill="none" stroke="black" d="M1273.08,-1838.64C1285.88,-1856.07 1305.53,-1882.81 1320.11,-1902.65"/>
<polygon fill="black" stroke="black" points="1317.46,-1904.97 1326.2,-1910.96 1323.11,-1900.83 1317.46,-1904.97"/>
<text text-anchor="start" x="1265.59" y="-1874.45" font-family="Times New Roman,serif" font-size="14.00">study</text>
</g>
<!-- Entity9 -->
<g id="node56" class="node entity">
<title>Entity9</title>
<ellipse fill="none" stroke="black" cx="702.73" cy="-2137.85" rx="38.19" ry="18"/>
<text text-anchor="start" x="681.23" y="-2134.15" font-family="Times New Roman,serif" font-size="14.00">the nine</text>
</g>
<!-- Entity3&#45;&gt;Entity9 -->
<g id="edge62" class="edge verb">
<title>Entity3&#45;&gt;Entity9</title>
<path fill="none" stroke="black" d="M1232.34,-1836.52C1139.27,-1889.47 837.45,-2061.19 736.2,-2118.8"/>
<polygon fill="black" stroke="black" points="734.27,-2115.87 727.31,-2123.86 737.73,-2121.96 734.27,-2115.87"/>
<text text-anchor="start" x="938.27" y="-1981.46" font-family="Times New Roman,serif" font-size="14.00">member</text>
</g>
<!-- Entity6 -->
<g id="node3" class="node entity">
<title>Entity6</title>
<ellipse fill="none" stroke="black" cx="877.64" cy="-2389.36" rx="68.49" ry="18"/>
<text text-anchor="start" x="833.14" y="-2385.66" font-family="Times New Roman,serif" font-size="14.00">jeffrey mishlove</text>
</g>
<!-- Entity6&#45;&gt;Entity55 -->
<g id="edge2" class="edge verb">
<title>Entity6&#45;&gt;Entity55</title>
<path fill="none" stroke="black" d="M898.95,-2372.22C976.4,-2302.06 1241.84,-2037.41 1318.5,-1954.05"/>
<polygon fill="black" stroke="black" points="1321.18,-1956.32 1325.32,-1946.57 1316,-1951.61 1321.18,-1956.32"/>
<text text-anchor="start" x="1077.73" y="-2166.94" font-family="Times New Roman,serif" font-size="14.00">study</text>
</g>
<!-- Entity6&#45;&gt;Entity55 -->
<g id="edge8" class="edge verb">
<title>Entity6&#45;&gt;Entity55</title>
<path fill="none" stroke="black" d="M891.65,-2371.61C955.78,-2300.31 1221.1,-2035.32 1310.12,-1953.19"/>
<polygon fill="black" stroke="black" points="1312.67,-1955.6 1317.69,-1946.26 1307.95,-1950.43 1312.67,-1955.6"/>
<text text-anchor="start" x="1036.88" y="-2151.2" font-family="Times New Roman,serif" font-size="14.00">investigates</text>
</g>
<!-- Entity1 -->
<g id="node5" class="node entity">
<title>Entity1</title>
<ellipse fill="none" stroke="black" cx="435.09" cy="-2513.78" rx="41.69" ry="18"/>
<text text-anchor="start" x="411.09" y="-2510.08" font-family="Times New Roman,serif" font-size="14.00">uri geller</text>
</g>
<!-- Entity6&#45;&gt;Entity1 -->
<g id="edge4" class="edge verb">
<title>Entity6&#45;&gt;Entity1</title>
<path fill="none" stroke="black" d="M830.7,-2402.55C744.98,-2426.65 564.21,-2477.48 480.01,-2501.15"/>
<polygon fill="black" stroke="black" points="478.91,-2497.82 470.23,-2503.9 480.8,-2504.56 478.91,-2497.82"/>
<text text-anchor="start" x="607.35" y="-2455.65" font-family="Times New Roman,serif" font-size="14.00">promote</text>
</g>
<!-- Entity1&#45;&gt;Entity9 -->
<g id="edge64" class="edge verb">
<title>Entity1&#45;&gt;Entity9</title>
<path fill="none" stroke="black" d="M447.64,-2496.15C490.85,-2435.46 633.6,-2234.94 684.5,-2163.45"/>
<polygon fill="black" stroke="black" points="687.56,-2165.18 690.51,-2155 681.86,-2161.12 687.56,-2165.18"/>
<text text-anchor="start" x="462.07" y="-2333.6" font-family="Times New Roman,serif" font-size="14.00">claiemd to channel</text>
</g>
<!-- Entity11 -->
<g id="node6" class="node entity">
<title>Entity11</title>
<ellipse fill="none" stroke="black" cx="2029.91" cy="-1284.96" rx="68.49" ry="18"/>
<text text-anchor="start" x="1985.41" y="-1281.26" font-family="Times New Roman,serif" font-size="14.00">george hw bush</text>
</g>
<!-- Entity18 -->
<g id="node7" class="node entity">
<title>Entity18</title>
<ellipse fill="none" stroke="black" cx="2015.92" cy="-1176.94" rx="63.89" ry="18"/>
<text text-anchor="start" x="1974.92" y="-1173.24" font-family="Times New Roman,serif" font-size="14.00">george w bush</text>
</g>
<!-- Entity11&#45;&gt;Entity18 -->
<g id="edge5" class="edge verb">
<title>Entity11&#45;&gt;Entity18</title>
<path fill="none" stroke="black" d="M2027.53,-1266.63C2025.35,-1249.77 2022.08,-1224.51 2019.57,-1205.09"/>
<polygon fill="black" stroke="black" points="2023.01,-1204.46 2018.26,-1194.99 2016.07,-1205.36 2023.01,-1204.46"/>
<text text-anchor="start" x="1991.55" y="-1239.66" font-family="Times New Roman,serif" font-size="14.00">father</text>
</g>
<!-- Entity53 -->
<g id="node14" class="node entity">
<title>Entity53</title>
<ellipse fill="none" stroke="black" cx="2362.75" cy="-1312.85" rx="31.4" ry="18"/>
<text text-anchor="start" x="2346.75" y="-1309.15" font-family="Times New Roman,serif" font-size="14.00">potus</text>
</g>
<!-- Entity11&#45;&gt;Entity53 -->
<g id="edge43" class="edge verb">
<title>Entity11&#45;&gt;Entity53</title>
<path fill="none" stroke="black" d="M2095.27,-1290.44C2162.46,-1296.07 2265.03,-1304.66 2321.64,-1309.41"/>
<polygon fill="black" stroke="black" points="2321.4,-1312.9 2331.66,-1310.25 2321.98,-1305.92 2321.4,-1312.9"/>
<text text-anchor="start" x="2198.45" y="-1303.72" font-family="Times New Roman,serif" font-size="14.00">is</text>
</g>
<!-- Entity18&#45;&gt;Entity53 -->
<g id="edge16" class="edge verb">
<title>Entity18&#45;&gt;Entity53</title>
<path fill="none" stroke="black" d="M2053.37,-1191.61C2120.68,-1217.99 2261.23,-1273.07 2327.16,-1298.91"/>
<polygon fill="black" stroke="black" points="2326.12,-1302.26 2336.71,-1302.65 2328.67,-1295.74 2326.12,-1302.26"/>
<text text-anchor="start" x="2180.27" y="-1249.06" font-family="Times New Roman,serif" font-size="14.00">is</text>
</g>
<!-- Entity26 -->
<g id="node8" class="node entity">
<title>Entity26</title>
<ellipse fill="none" stroke="black" cx="2415.09" cy="-140.9" rx="53.89" ry="18"/>
<text text-anchor="start" x="2381.59" y="-137.2" font-family="Times New Roman,serif" font-size="14.00">edgar casey</text>
</g>
<!-- Entity27 -->
<g id="node9" class="node entity">
<title>Entity27</title>
<ellipse fill="none" stroke="black" cx="2390.13" cy="-723.05" rx="71.49" ry="18"/>
<text text-anchor="start" x="2343.13" y="-719.35" font-family="Times New Roman,serif" font-size="14.00">woodrow wilson</text>
</g>
<!-- Entity26&#45;&gt;Entity27 -->
<g id="edge6" class="edge verb">
<title>Entity26&#45;&gt;Entity27</title>
<path fill="none" stroke="black" d="M2414.32,-158.96C2410.73,-242.56 2395.74,-592.25 2391.34,-694.72"/>
<polygon fill="black" stroke="black" points="2387.84,-694.77 2390.91,-704.91 2394.83,-695.07 2387.84,-694.77"/>
<text text-anchor="start" x="2366.83" y="-430.64" font-family="Times New Roman,serif" font-size="14.00">advise</text>
</g>
<!-- Entity27&#45;&gt;Entity53 -->
<g id="edge21" class="edge verb">
<title>Entity27&#45;&gt;Entity53</title>
<path fill="none" stroke="black" d="M2389.28,-741.35C2385.34,-826.14 2368.87,-1181.12 2364.07,-1284.5"/>
<polygon fill="black" stroke="black" points="2360.56,-1284.62 2363.59,-1294.77 2367.55,-1284.94 2360.56,-1284.62"/>
<text text-anchor="start" x="2366.67" y="-1016.72" font-family="Times New Roman,serif" font-size="14.00">is</text>
</g>
<!-- Entity58 -->
<g id="node31" class="node entity">
<title>Entity58</title>
<ellipse fill="none" stroke="black" cx="2395.54" cy="-615.1" rx="71.49" ry="18"/>
<text text-anchor="start" x="2348.54" y="-611.4" font-family="Times New Roman,serif" font-size="14.00">leauge of nations</text>
</g>
<!-- Entity27&#45;&gt;Entity58 -->
<g id="edge27" class="edge verb">
<title>Entity27&#45;&gt;Entity58</title>
<path fill="none" stroke="black" d="M2391.05,-704.74C2391.89,-687.89 2393.16,-662.64 2394.13,-643.23"/>
<polygon fill="black" stroke="black" points="2397.63,-643.3 2394.64,-633.14 2390.64,-642.95 2397.63,-643.3"/>
<text text-anchor="start" x="2358.59" y="-677.78" font-family="Times New Roman,serif" font-size="14.00">create</text>
</g>
<!-- Entity16 -->
<g id="node10" class="node entity">
<title>Entity16</title>
<ellipse fill="none" stroke="black" cx="1198.09" cy="-2036.87" rx="63.89" ry="18"/>
<text text-anchor="start" x="1157.09" y="-2033.17" font-family="Times New Roman,serif" font-size="14.00">robert bigelow</text>
</g>
<!-- Entity16&#45;&gt;Entity6 -->
<g id="edge7" class="edge verb">
<title>Entity16&#45;&gt;Entity6</title>
<path fill="none" stroke="black" d="M1182.2,-2054.35C1129.77,-2112.01 962.15,-2296.4 900.59,-2364.11"/>
<polygon fill="black" stroke="black" points="897.77,-2362.02 893.63,-2371.77 902.94,-2366.72 897.77,-2362.02"/>
<text text-anchor="start" x="1009.39" y="-2213.03" font-family="Times New Roman,serif" font-size="14.00">funds</text>
</g>
<!-- Entity16&#45;&gt;Entity55 -->
<g id="edge9" class="edge verb">
<title>Entity16&#45;&gt;Entity55</title>
<path fill="none" stroke="black" d="M1220.47,-2019.75C1244.19,-2001.6 1281.83,-1972.81 1308.38,-1952.49"/>
<polygon fill="black" stroke="black" points="1310.77,-1955.08 1316.58,-1946.22 1306.52,-1949.52 1310.77,-1955.08"/>
<text text-anchor="start" x="1200.43" y="-1989.92" font-family="Times New Roman,serif" font-size="14.00">investigates</text>
</g>
<!-- Entity10 -->
<g id="node11" class="node entity">
<title>Entity10</title>
<ellipse fill="none" stroke="black" cx="2800.23" cy="-1038.71" rx="56.59" ry="18"/>
<text text-anchor="start" x="2764.73" y="-1035.01" font-family="Times New Roman,serif" font-size="14.00">harry truman</text>
</g>
<!-- Entity57 -->
<g id="node12" class="node entity">
<title>Entity57</title>
<ellipse fill="none" stroke="black" cx="3341.25" cy="-868.69" rx="55.79" ry="18"/>
<text text-anchor="start" x="3306.25" y="-864.99" font-family="Times New Roman,serif" font-size="14.00">freemasonry</text>
</g>
<!-- Entity10&#45;&gt;Entity57 -->
<g id="edge10" class="edge verb">
<title>Entity10&#45;&gt;Entity57</title>
<path fill="none" stroke="black" d="M2840.9,-1025.93C2938.38,-995.29 3185.18,-917.74 3291.39,-884.36"/>
<polygon fill="black" stroke="black" points="3292.73,-887.61 3301.22,-881.27 3290.63,-880.93 3292.73,-887.61"/>
<text text-anchor="start" x="3020.14" y="-958.95" font-family="Times New Roman,serif" font-size="14.00">member</text>
</g>
<!-- Entity10&#45;&gt;Entity53 -->
<g id="edge59" class="edge verb">
<title>Entity10&#45;&gt;Entity53</title>
<path fill="none" stroke="black" d="M2774.5,-1054.83C2698.31,-1102.58 2474.14,-1243.05 2392.73,-1294.07"/>
<polygon fill="black" stroke="black" points="2390.59,-1291.28 2383.97,-1299.56 2394.31,-1297.21 2390.59,-1291.28"/>
<text text-anchor="start" x="2573.62" y="-1178.25" font-family="Times New Roman,serif" font-size="14.00">is</text>
</g>
<!-- Entity7 -->
<g id="node13" class="node entity">
<title>Entity7</title>
<ellipse fill="none" stroke="black" cx="2547.93" cy="-1741.21" rx="27" ry="18"/>
<text text-anchor="start" x="2540.43" y="-1737.51" font-family="Times New Roman,serif" font-size="14.00">jfk</text>
</g>
<!-- Entity7&#45;&gt;Entity53 -->
<g id="edge11" class="edge verb">
<title>Entity7&#45;&gt;Entity53</title>
<path fill="none" stroke="black" d="M2540.45,-1723.88C2511.83,-1657.69 2409.25,-1420.41 2374.42,-1339.84"/>
<polygon fill="black" stroke="black" points="2377.52,-1338.18 2370.33,-1330.39 2371.09,-1340.96 2377.52,-1338.18"/>
<text text-anchor="start" x="2447.43" y="-1535.66" font-family="Times New Roman,serif" font-size="14.00">is</text>
</g>
<!-- Entity25 -->
<g id="node15" class="node entity">
<title>Entity25</title>
<ellipse fill="none" stroke="black" cx="1061.53" cy="-764.81" rx="58.49" ry="18"/>
<text text-anchor="start" x="1024.53" y="-761.11" font-family="Times New Roman,serif" font-size="14.00">steve bannon</text>
</g>
<!-- Entity8 -->
<g id="node16" class="node entity">
<title>Entity8</title>
<ellipse fill="none" stroke="black" cx="1645.58" cy="-1217.63" rx="59.59" ry="18"/>
<text text-anchor="start" x="1607.58" y="-1213.93" font-family="Times New Roman,serif" font-size="14.00">donald trump</text>
</g>
<!-- Entity25&#45;&gt;Entity8 -->
<g id="edge12" class="edge verb">
<title>Entity25&#45;&gt;Entity8</title>
<path fill="none" stroke="black" d="M1079.35,-781.96C1161.22,-852.08 1501.28,-1116.02 1611.19,-1195.15"/>
<polygon fill="black" stroke="black" points="1609.44,-1198.2 1619.61,-1201.17 1613.51,-1192.51 1609.44,-1198.2"/>
<text text-anchor="start" x="1297.27" y="-992.36" font-family="Times New Roman,serif" font-size="14.00">promote</text>
</g>
<!-- Entity25&#45;&gt;Entity8 -->
<g id="edge13" class="edge verb">
<title>Entity25&#45;&gt;Entity8</title>
<path fill="none" stroke="black" d="M1087.29,-781.12C1183.84,-849.55 1523.29,-1112.65 1619.83,-1193.77"/>
<polygon fill="black" stroke="black" points="1617.75,-1196.59 1627.64,-1200.38 1622.28,-1191.25 1617.75,-1196.59"/>
<text text-anchor="start" x="1317.56" y="-976.24" font-family="Times New Roman,serif" font-size="14.00">advise</text>
</g>
<!-- Entity63 -->
<g id="node29" class="node entity">
<title>Entity63</title>
<ellipse fill="none" stroke="black" cx="535.16" cy="-767.28" rx="53.09" ry="18"/>
<text text-anchor="start" x="502.16" y="-763.58" font-family="Times New Roman,serif" font-size="14.00">biosphere 2</text>
</g>
<!-- Entity25&#45;&gt;Entity63 -->
<g id="edge24" class="edge verb">
<title>Entity25&#45;&gt;Entity63</title>
<path fill="none" stroke="black" d="M1002.94,-765.09C903.32,-765.56 701.77,-766.5 598.82,-766.98"/>
<polygon fill="black" stroke="black" points="598.55,-763.49 588.57,-767.03 598.58,-770.49 598.55,-763.49"/>
<text text-anchor="start" x="766.88" y="-769.84" font-family="Times New Roman,serif" font-size="14.00">create</text>
</g>
<!-- Entity61 -->
<g id="node30" class="node entity">
<title>Entity61</title>
<ellipse fill="none" stroke="black" cx="1084.07" cy="-308.3" rx="35.19" ry="18"/>
<text text-anchor="start" x="1065.07" y="-304.6" font-family="Times New Roman,serif" font-size="14.00">gurgev</text>
</g>
<!-- Entity25&#45;&gt;Entity61 -->
<g id="edge26" class="edge verb">
<title>Entity25&#45;&gt;Entity61</title>
<path fill="none" stroke="black" d="M1062.43,-746.63C1065.9,-676.34 1078.46,-422.01 1082.68,-336.54"/>
<polygon fill="black" stroke="black" points="1086.17,-336.69 1083.17,-326.53 1079.18,-336.34 1086.17,-336.69"/>
<text text-anchor="start" x="1041.55" y="-545.39" font-family="Times New Roman,serif" font-size="14.00">study</text>
</g>
<!-- Entity64 -->
<g id="node32" class="node entity">
<title>Entity64</title>
<ellipse fill="none" stroke="black" cx="639.84" cy="-574.19" rx="38.19" ry="18"/>
<text text-anchor="start" x="618.34" y="-570.49" font-family="Times New Roman,serif" font-size="14.00">us navy</text>
</g>
<!-- Entity25&#45;&gt;Entity64 -->
<g id="edge28" class="edge verb">
<title>Entity25&#45;&gt;Entity64</title>
<path fill="none" stroke="black" d="M1028.44,-749.85C951.01,-714.85 758.45,-627.81 677.08,-591.02"/>
<polygon fill="black" stroke="black" points="678.28,-587.72 667.72,-586.79 675.39,-594.1 678.28,-587.72"/>
<text text-anchor="start" x="806.76" y="-674.24" font-family="Times New Roman,serif" font-size="14.00">member</text>
</g>
<!-- Entity65 -->
<g id="node33" class="node entity">
<title>Entity65</title>
<ellipse fill="none" stroke="black" cx="553.81" cy="-378.18" rx="61.99" ry="18"/>
<text text-anchor="start" x="514.31" y="-374.48" font-family="Times New Roman,serif" font-size="14.00">breitbart news</text>
</g>
<!-- Entity25&#45;&gt;Entity65 -->
<g id="edge29" class="edge verb">
<title>Entity25&#45;&gt;Entity65</title>
<path fill="none" stroke="black" d="M1039.39,-747.95C958.32,-686.22 677.59,-472.44 584.25,-401.36"/>
<polygon fill="black" stroke="black" points="586.14,-398.41 576.07,-395.13 581.9,-403.98 586.14,-398.41"/>
<text text-anchor="start" x="777.82" y="-578.46" font-family="Times New Roman,serif" font-size="14.00">create</text>
</g>
<!-- Entity77 -->
<g id="node34" class="node entity">
<title>Entity77</title>
<ellipse fill="none" stroke="black" cx="783.74" cy="-265.36" rx="64.99" ry="18"/>
<text text-anchor="start" x="741.74" y="-261.66" font-family="Times New Roman,serif" font-size="14.00">goldman sachs</text>
</g>
<!-- Entity25&#45;&gt;Entity77 -->
<g id="edge30" class="edge verb">
<title>Entity25&#45;&gt;Entity77</title>
<path fill="none" stroke="black" d="M1051.65,-747.04C1009.97,-672.1 848.44,-381.69 798.52,-291.94"/>
<polygon fill="black" stroke="black" points="801.57,-290.22 793.65,-283.18 795.46,-293.62 801.57,-290.22"/>
<text text-anchor="start" x="871.08" y="-523.29" font-family="Times New Roman,serif" font-size="14.00">employee</text>
</g>
<!-- Entity76 -->
<g id="node46" class="node entity">
<title>Entity76</title>
<ellipse fill="none" stroke="black" cx="1006.94" cy="-656.83" rx="77.19" ry="18"/>
<text text-anchor="start" x="955.44" y="-653.13" font-family="Times New Roman,serif" font-size="14.00">hollywood movies</text>
</g>
<!-- Entity25&#45;&gt;Entity76 -->
<g id="edge45" class="edge verb">
<title>Entity25&#45;&gt;Entity76</title>
<path fill="none" stroke="black" d="M1052.52,-746.98C1043.88,-729.89 1030.71,-703.85 1020.75,-684.14"/>
<polygon fill="black" stroke="black" points="1023.79,-682.39 1016.15,-675.05 1017.54,-685.55 1023.79,-682.39"/>
<text text-anchor="start" x="989.63" y="-719.36" font-family="Times New Roman,serif" font-size="14.00">produce</text>
</g>
<!-- Entity8&#45;&gt;Entity53 -->
<g id="edge60" class="edge verb">
<title>Entity8&#45;&gt;Entity53</title>
<path fill="none" stroke="black" d="M1700.37,-1224.91C1838.77,-1243.28 2200.09,-1291.26 2321.95,-1307.44"/>
<polygon fill="black" stroke="black" points="2321.61,-1310.92 2331.98,-1308.77 2322.53,-1303.98 2321.61,-1310.92"/>
<text text-anchor="start" x="2001.16" y="-1254.97" font-family="Times New Roman,serif" font-size="14.00">is</text>
</g>
<!-- Entity30 -->
<g id="node17" class="node entity">
<title>Entity30</title>
<ellipse fill="none" stroke="black" cx="1668.28" cy="-1804.93" rx="50.09" ry="18"/>
<text text-anchor="start" x="1637.78" y="-1801.23" font-family="Times New Roman,serif" font-size="14.00">john trump</text>
</g>
<!-- Entity8&#45;&gt;Entity30 -->
<g id="edge14" class="edge verb">
<title>Entity8&#45;&gt;Entity30</title>
<path fill="none" stroke="black" d="M1646.29,-1235.85C1649.55,-1320.29 1663.21,-1673.76 1667.19,-1776.69"/>
<polygon fill="black" stroke="black" points="1663.7,-1777.06 1667.58,-1786.92 1670.7,-1776.79 1663.7,-1777.06"/>
<text text-anchor="start" x="1613.74" y="-1510.07" font-family="Times New Roman,serif" font-size="14.00">nephew</text>
</g>
<!-- Entity17 -->
<g id="node18" class="node entity">
<title>Entity17</title>
<ellipse fill="none" stroke="black" cx="1719.72" cy="-2182.44" rx="27" ry="18"/>
<text text-anchor="start" x="1711.72" y="-2178.74" font-family="Times New Roman,serif" font-size="14.00">cia</text>
</g>
<!-- Entity30&#45;&gt;Entity17 -->
<g id="edge18" class="edge verb">
<title>Entity30&#45;&gt;Entity17</title>
<path fill="none" stroke="black" d="M1670.76,-1823.14C1679.05,-1883.94 1705.8,-2080.27 1715.85,-2154.06"/>
<polygon fill="black" stroke="black" points="1712.45,-2154.98 1717.26,-2164.42 1719.38,-2154.04 1712.45,-2154.98"/>
<text text-anchor="start" x="1647.31" y="-1992.4" font-family="Times New Roman,serif" font-size="14.00">member</text>
</g>
<!-- Entity67 -->
<g id="node36" class="node entity">
<title>Entity67</title>
<ellipse fill="none" stroke="black" cx="1723.62" cy="-1912.96" rx="50.89" ry="18"/>
<text text-anchor="start" x="1692.62" y="-1909.26" font-family="Times New Roman,serif" font-size="14.00">nikola tesla</text>
</g>
<!-- Entity30&#45;&gt;Entity67 -->
<g id="edge32" class="edge verb">
<title>Entity30&#45;&gt;Entity67</title>
<path fill="none" stroke="black" d="M1677.42,-1822.77C1686.23,-1839.97 1699.68,-1866.23 1709.8,-1885.98"/>
<polygon fill="black" stroke="black" points="1706.8,-1887.79 1714.47,-1895.09 1713.03,-1884.6 1706.8,-1887.79"/>
<text text-anchor="start" x="1662.61" y="-1858.18" font-family="Times New Roman,serif" font-size="14.00">study</text>
</g>
<!-- Entity17&#45;&gt;Entity55 -->
<g id="edge46" class="edge verb">
<title>Entity17&#45;&gt;Entity55</title>
<path fill="none" stroke="black" d="M1700.6,-2169.69C1639.96,-2129.26 1451.4,-2003.55 1373.52,-1951.62"/>
<polygon fill="black" stroke="black" points="1375.28,-1948.59 1365.02,-1945.95 1371.4,-1954.41 1375.28,-1948.59"/>
<text text-anchor="start" x="1473.06" y="-2064.46" font-family="Times New Roman,serif" font-size="14.00">investigates</text>
</g>
<!-- Entity54 -->
<g id="node19" class="node entity">
<title>Entity54</title>
<ellipse fill="none" stroke="black" cx="2031.67" cy="-2073.36" rx="27" ry="18"/>
<text text-anchor="start" x="2022.17" y="-2069.66" font-family="Times New Roman,serif" font-size="14.00">ufo</text>
</g>
<!-- Entity17&#45;&gt;Entity54 -->
<g id="edge15" class="edge verb">
<title>Entity17&#45;&gt;Entity54</title>
<path fill="none" stroke="black" d="M1743.68,-2174.07C1798.8,-2154.79 1934.7,-2107.27 1998.1,-2085.1"/>
<polygon fill="black" stroke="black" points="1999.34,-2088.37 2007.63,-2081.77 1997.03,-2081.76 1999.34,-2088.37"/>
<text text-anchor="start" x="1806.89" y="-2133.38" font-family="Times New Roman,serif" font-size="14.00">investigates</text>
</g>
<!-- Entity14 -->
<g id="node20" class="node entity">
<title>Entity14</title>
<ellipse fill="none" stroke="black" cx="2228.78" cy="-1735.49" rx="31.4" ry="18"/>
<text text-anchor="start" x="2212.78" y="-1731.79" font-family="Times New Roman,serif" font-size="14.00">carter</text>
</g>
<!-- Entity14&#45;&gt;Entity53 -->
<g id="edge41" class="edge verb">
<title>Entity14&#45;&gt;Entity53</title>
<path fill="none" stroke="black" d="M2234.45,-1717.6C2255.37,-1651.59 2328.35,-1421.38 2353.86,-1340.89"/>
<polygon fill="black" stroke="black" points="2357.32,-1341.57 2357.01,-1330.98 2350.65,-1339.46 2357.32,-1341.57"/>
<text text-anchor="start" x="2284.16" y="-1533.05" font-family="Times New Roman,serif" font-size="14.00">is</text>
</g>
<!-- Entity14&#45;&gt;Entity54 -->
<g id="edge17" class="edge verb">
<title>Entity14&#45;&gt;Entity54</title>
<path fill="none" stroke="black" d="M2218.73,-1752.71C2186.43,-1808.08 2085.1,-1981.77 2046.66,-2047.66"/>
<polygon fill="black" stroke="black" points="2043.48,-2046.18 2041.46,-2056.58 2049.52,-2049.7 2043.48,-2046.18"/>
<text text-anchor="start" x="2090.7" y="-1903.99" font-family="Times New Roman,serif" font-size="14.00">witness</text>
</g>
<!-- Entity34 -->
<g id="node21" class="node entity">
<title>Entity34</title>
<ellipse fill="none" stroke="black" cx="3858.74" cy="-820.5" rx="90.98" ry="18"/>
<text text-anchor="start" x="3796.74" y="-816.8" font-family="Times New Roman,serif" font-size="14.00">emma hardinge&#45;britten</text>
</g>
<!-- Entity38 -->
<g id="node22" class="node entity">
<title>Entity38</title>
<ellipse fill="none" stroke="black" cx="3050.87" cy="-1146.7" rx="67.69" ry="18"/>
<text text-anchor="start" x="3006.87" y="-1143" font-family="Times New Roman,serif" font-size="14.00">abraham lincoln</text>
</g>
<!-- Entity34&#45;&gt;Entity38 -->
<g id="edge19" class="edge verb">
<title>Entity34&#45;&gt;Entity38</title>
<path fill="none" stroke="black" d="M3818.68,-836.68C3683.29,-891.34 3243.18,-1069.05 3097.89,-1127.72"/>
<polygon fill="black" stroke="black" points="3096.31,-1124.58 3088.35,-1131.57 3098.93,-1131.07 3096.31,-1124.58"/>
<text text-anchor="start" x="3379.29" y="-986" font-family="Times New Roman,serif" font-size="14.00">spokesperson</text>
</g>
<!-- Entity59 -->
<g id="node28" class="node entity">
<title>Entity59</title>
<ellipse fill="none" stroke="black" cx="4644.13" cy="-837.68" rx="85.29" ry="18"/>
<text text-anchor="start" x="4586.63" y="-833.98" font-family="Times New Roman,serif" font-size="14.00">theosophical society</text>
</g>
<!-- Entity34&#45;&gt;Entity59 -->
<g id="edge47" class="edge verb">
<title>Entity34&#45;&gt;Entity59</title>
<path fill="none" stroke="black" d="M3949.22,-822.48C4098.85,-825.75 4396.47,-832.26 4549.07,-835.6"/>
<polygon fill="black" stroke="black" points="4549.28,-839.11 4559.36,-835.83 4549.43,-832.11 4549.28,-839.11"/>
<text text-anchor="start" x="4215.14" y="-832.84" font-family="Times New Roman,serif" font-size="14.00">create</text>
</g>
<!-- Entity69 -->
<g id="node47" class="node entity">
<title>Entity69</title>
<ellipse fill="none" stroke="black" cx="4424.11" cy="-528.38" rx="55.79" ry="18"/>
<text text-anchor="start" x="4389.11" y="-524.68" font-family="Times New Roman,serif" font-size="14.00">orphic circle</text>
</g>
<!-- Entity34&#45;&gt;Entity69 -->
<g id="edge48" class="edge verb">
<title>Entity34&#45;&gt;Entity69</title>
<path fill="none" stroke="black" d="M3891.58,-803.53C3989.61,-752.88 4279.82,-602.94 4385.26,-548.46"/>
<polygon fill="black" stroke="black" points="4387.01,-551.49 4394.29,-543.79 4383.8,-545.27 4387.01,-551.49"/>
<text text-anchor="start" x="4092.42" y="-679.79" font-family="Times New Roman,serif" font-size="14.00">member</text>
</g>
<!-- Entity68 -->
<g id="node48" class="node entity">
<title>Entity68</title>
<ellipse fill="none" stroke="black" cx="4224.19" cy="-369.26" rx="39.79" ry="18"/>
<text text-anchor="start" x="4201.69" y="-365.56" font-family="Times New Roman,serif" font-size="14.00">medium</text>
</g>
<!-- Entity34&#45;&gt;Entity68 -->
<g id="edge49" class="edge verb">
<title>Entity34&#45;&gt;Entity68</title>
<path fill="none" stroke="black" d="M3873.29,-802.53C3930.16,-732.31 4137.52,-476.28 4203.72,-394.53"/>
<polygon fill="black" stroke="black" points="4206.81,-396.28 4210.38,-386.3 4201.37,-391.87 4206.81,-396.28"/>
<text text-anchor="start" x="4028.51" y="-602.33" font-family="Times New Roman,serif" font-size="14.00">is</text>
</g>
<!-- Entity38&#45;&gt;Entity53 -->
<g id="edge51" class="edge verb">
<title>Entity38&#45;&gt;Entity53</title>
<path fill="none" stroke="black" d="M3000.55,-1158.85C2869.43,-1190.51 2519.28,-1275.06 2401.8,-1303.42"/>
<polygon fill="black" stroke="black" points="2400.71,-1300.09 2391.81,-1305.84 2402.35,-1306.89 2400.71,-1300.09"/>
<text text-anchor="start" x="2691.18" y="-1234.94" font-family="Times New Roman,serif" font-size="14.00">is</text>
</g>
<!-- Entity40 -->
<g id="node23" class="node entity">
<title>Entity40</title>
<ellipse fill="none" stroke="black" cx="2380.58" cy="-1146.39" rx="57.69" ry="18"/>
<text text-anchor="start" x="2344.08" y="-1142.69" font-family="Times New Roman,serif" font-size="14.00">michael pane</text>
</g>
<!-- Entity40&#45;&gt;Entity56 -->
<g id="edge34" class="edge verb">
<title>Entity40&#45;&gt;Entity56</title>
<path fill="none" stroke="black" d="M2359.78,-1163.39C2286.02,-1223.67 2036.87,-1427.27 1952.4,-1496.3"/>
<polygon fill="black" stroke="black" points="1950.05,-1493.7 1944.52,-1502.74 1954.48,-1499.12 1950.05,-1493.7"/>
<text text-anchor="start" x="2102.09" y="-1333.64" font-family="Times New Roman,serif" font-size="14.00">employee</text>
</g>
<!-- Entity37 -->
<g id="node24" class="node entity">
<title>Entity37</title>
<ellipse fill="none" stroke="black" cx="2676.6" cy="-1389.62" rx="74.99" ry="18"/>
<text text-anchor="start" x="2627.1" y="-1385.92" font-family="Times New Roman,serif" font-size="14.00">walter dornberger</text>
</g>
<!-- Entity40&#45;&gt;Entity37 -->
<g id="edge20" class="edge verb">
<title>Entity40&#45;&gt;Entity37</title>
<path fill="none" stroke="black" d="M2401.4,-1163.5C2453.18,-1206.05 2587.92,-1316.75 2647.51,-1365.72"/>
<polygon fill="black" stroke="black" points="2645.46,-1368.57 2655.41,-1372.21 2649.9,-1363.16 2645.46,-1368.57"/>
<text text-anchor="start" x="2470.46" y="-1268.41" font-family="Times New Roman,serif" font-size="14.00">employee</text>
</g>
<!-- Entity37&#45;&gt;Entity56 -->
<g id="edge33" class="edge verb">
<title>Entity37&#45;&gt;Entity56</title>
<path fill="none" stroke="black" d="M2608.8,-1397.2C2460.72,-1418.97 2110.99,-1479.42 1977.33,-1506.48"/>
<polygon fill="black" stroke="black" points="1976.42,-1503.09 1967.33,-1508.53 1977.83,-1509.95 1976.42,-1503.09"/>
<text text-anchor="start" x="2239.06" y="-1455.64" font-family="Times New Roman,serif" font-size="14.00">employee</text>
</g>
<!-- Entity37&#45;&gt;Entity56 -->
<g id="edge35" class="edge verb">
<title>Entity37&#45;&gt;Entity56</title>
<path fill="none" stroke="black" d="M2624.01,-1402.42C2489.03,-1429.78 2130.82,-1491.64 1986.09,-1512.68"/>
<polygon fill="black" stroke="black" points="1985.44,-1509.24 1976.04,-1514.12 1986.44,-1516.17 1985.44,-1509.24"/>
<text text-anchor="start" x="2305.05" y="-1461.35" font-family="Times New Roman,serif" font-size="14.00">vice&#45;president</text>
</g>
<!-- Entity51 -->
<g id="node37" class="node entity">
<title>Entity51</title>
<ellipse fill="none" stroke="black" cx="3117.37" cy="-1866.87" rx="32.49" ry="18"/>
<text text-anchor="start" x="3100.37" y="-1863.17" font-family="Times New Roman,serif" font-size="14.00">nsdap</text>
</g>
<!-- Entity37&#45;&gt;Entity51 -->
<g id="edge36" class="edge verb">
<title>Entity37&#45;&gt;Entity51</title>
<path fill="none" stroke="black" d="M2693.07,-1407.46C2760.9,-1480.9 3018.6,-1759.93 3095.55,-1843.24"/>
<polygon fill="black" stroke="black" points="3093.06,-1845.71 3102.42,-1850.68 3098.2,-1840.96 3093.06,-1845.71"/>
<text text-anchor="start" x="2848.31" y="-1629.15" font-family="Times New Roman,serif" font-size="14.00">member</text>
</g>
<!-- Entity72 -->
<g id="node53" class="node entity">
<title>Entity72</title>
<ellipse fill="none" stroke="black" cx="2931.82" cy="-760.71" rx="90.98" ry="18"/>
<text text-anchor="start" x="2869.82" y="-757.01" font-family="Times New Roman,serif" font-size="14.00">nsdap rocket program</text>
</g>
<!-- Entity37&#45;&gt;Entity72 -->
<g id="edge53" class="edge verb">
<title>Entity37&#45;&gt;Entity72</title>
<path fill="none" stroke="black" d="M2683.96,-1371.48C2719.91,-1282.9 2876.99,-895.82 2920.57,-788.43"/>
<polygon fill="black" stroke="black" points="2923.91,-789.51 2924.43,-778.93 2917.42,-786.88 2923.91,-789.51"/>
<text text-anchor="start" x="2768.27" y="-1083.75" font-family="Times New Roman,serif" font-size="14.00">create</text>
</g>
<!-- Entity73 -->
<g id="node54" class="node entity">
<title>Entity73</title>
<ellipse fill="none" stroke="black" cx="2687.78" cy="-1281.53" rx="65.79" ry="18"/>
<text text-anchor="start" x="2645.28" y="-1277.83" font-family="Times New Roman,serif" font-size="14.00">x series aircraft</text>
</g>
<!-- Entity37&#45;&gt;Entity73 -->
<g id="edge55" class="edge verb">
<title>Entity37&#45;&gt;Entity73</title>
<path fill="none" stroke="black" d="M2678.49,-1371.28C2680.24,-1354.41 2682.86,-1329.13 2684.87,-1309.7"/>
<polygon fill="black" stroke="black" points="2688.36,-1309.9 2685.91,-1299.59 2681.4,-1309.18 2688.36,-1309.9"/>
<text text-anchor="start" x="2647.68" y="-1344.29" font-family="Times New Roman,serif" font-size="14.00">create</text>
</g>
<!-- Entity22 -->
<g id="node25" class="node entity">
<title>Entity22</title>
<ellipse fill="none" stroke="black" cx="4319.19" cy="-1300.71" rx="58.49" ry="18"/>
<text text-anchor="start" x="4282.19" y="-1297.01" font-family="Times New Roman,serif" font-size="14.00">rudolf steiner</text>
</g>
<!-- Entity60 -->
<g id="node26" class="node entity">
<title>Entity60</title>
<ellipse fill="none" stroke="black" cx="4333.34" cy="-1408.66" rx="102.08" ry="18"/>
<text text-anchor="start" x="4262.84" y="-1404.96" font-family="Times New Roman,serif" font-size="14.00">anthroposophical society</text>
</g>
<!-- Entity22&#45;&gt;Entity60 -->
<g id="edge22" class="edge verb">
<title>Entity22&#45;&gt;Entity60</title>
<path fill="none" stroke="black" d="M4321.59,-1319.02C4323.8,-1335.87 4327.11,-1361.12 4329.65,-1380.53"/>
<polygon fill="black" stroke="black" points="4326.21,-1381.16 4330.98,-1390.62 4333.15,-1380.25 4326.21,-1381.16"/>
<text text-anchor="start" x="4291.62" y="-1353.57" font-family="Times New Roman,serif" font-size="14.00">create</text>
</g>
<!-- Entity22&#45;&gt;Entity59 -->
<g id="edge25" class="edge verb">
<title>Entity22&#45;&gt;Entity59</title>
<path fill="none" stroke="black" d="M4331.73,-1282.84C4381.69,-1211.65 4566.71,-948.01 4625.84,-863.75"/>
<polygon fill="black" stroke="black" points="4628.75,-865.69 4631.63,-855.5 4623.02,-861.67 4628.75,-865.69"/>
<text text-anchor="start" x="4432.79" y="-1077.1" font-family="Times New Roman,serif" font-size="14.00">member</text>
</g>
<!-- Entity24 -->
<g id="node27" class="node entity">
<title>Entity24</title>
<ellipse fill="none" stroke="black" cx="5298.11" cy="-712.75" rx="73.39" ry="18"/>
<text text-anchor="start" x="5249.61" y="-709.05" font-family="Times New Roman,serif" font-size="14.00">madam blavatsky</text>
</g>
<!-- Entity24&#45;&gt;Entity59 -->
<g id="edge23" class="edge verb">
<title>Entity24&#45;&gt;Entity59</title>
<path fill="none" stroke="black" d="M5240.08,-723.83C5120.95,-746.59 4849.02,-798.54 4717.74,-823.62"/>
<polygon fill="black" stroke="black" points="4716.94,-820.21 4707.77,-825.52 4718.25,-827.08 4716.94,-820.21"/>
<text text-anchor="start" x="4944.91" y="-777.53" font-family="Times New Roman,serif" font-size="14.00">create</text>
</g>
<!-- Entity31 -->
<g id="node35" class="node entity">
<title>Entity31</title>
<ellipse fill="none" stroke="black" cx="88.74" cy="-17.6" rx="69.59" ry="18"/>
<text text-anchor="start" x="43.24" y="-13.9" font-family="Times New Roman,serif" font-size="14.00">andrew breitbart</text>
</g>
<!-- Entity31&#45;&gt;Entity65 -->
<g id="edge31" class="edge verb">
<title>Entity31&#45;&gt;Entity65</title>
<path fill="none" stroke="black" d="M110.86,-34.75C186.76,-93.6 436.76,-287.43 523.69,-354.83"/>
<polygon fill="black" stroke="black" points="521.78,-357.78 531.82,-361.14 526.07,-352.24 521.78,-357.78"/>
<text text-anchor="start" x="283.28" y="-198.59" font-family="Times New Roman,serif" font-size="14.00">create</text>
</g>
<!-- Entity74 -->
<g id="node55" class="node entity">
<title>Entity74</title>
<ellipse fill="none" stroke="black" cx="3273.54" cy="-2246.5" rx="38.99" ry="18"/>
<text text-anchor="start" x="3251.54" y="-2242.8" font-family="Times New Roman,serif" font-size="14.00">far right</text>
</g>
<!-- Entity51&#45;&gt;Entity74 -->
<g id="edge58" class="edge verb">
<title>Entity51&#45;&gt;Entity74</title>
<path fill="none" stroke="black" d="M3124.69,-1884.67C3149.74,-1945.57 3232.14,-2145.88 3262.33,-2219.26"/>
<polygon fill="black" stroke="black" points="3259.19,-2220.82 3266.23,-2228.74 3265.66,-2218.16 3259.19,-2220.82"/>
<text text-anchor="start" x="3147.51" y="-2055.76" font-family="Times New Roman,serif" font-size="14.00">member</text>
</g>
<!-- Entity46 -->
<g id="node38" class="node entity">
<title>Entity46</title>
<ellipse fill="none" stroke="black" cx="2955.69" cy="-868.62" rx="46.29" ry="18"/>
<text text-anchor="start" x="2928.19" y="-864.92" font-family="Times New Roman,serif" font-size="14.00">van braun</text>
</g>
<!-- Entity46&#45;&gt;Entity37 -->
<g id="edge37" class="edge verb">
<title>Entity46&#45;&gt;Entity37</title>
<path fill="none" stroke="black" d="M2946.24,-886.25C2905.04,-963.16 2740.9,-1269.58 2691.04,-1362.66"/>
<polygon fill="black" stroke="black" points="2687.82,-1361.26 2686.18,-1371.72 2693.99,-1364.56 2687.82,-1361.26"/>
<text text-anchor="start" x="2764.64" y="-1128.26" font-family="Times New Roman,serif" font-size="14.00">employee</text>
</g>
<!-- Entity46&#45;&gt;Entity72 -->
<g id="edge54" class="edge verb">
<title>Entity46&#45;&gt;Entity72</title>
<path fill="none" stroke="black" d="M2951.64,-850.31C2947.9,-833.39 2942.28,-808 2937.98,-788.56"/>
<polygon fill="black" stroke="black" points="2941.39,-787.75 2935.81,-778.74 2934.55,-789.26 2941.39,-787.75"/>
<text text-anchor="start" x="2890.81" y="-823.24" font-family="Times New Roman,serif" font-size="14.00">employee</text>
</g>
<!-- Entity49 -->
<g id="node39" class="node entity">
<title>Entity49</title>
<ellipse fill="none" stroke="black" cx="3488.48" cy="-2108.53" rx="49.29" ry="18"/>
<text text-anchor="start" x="3458.48" y="-2104.83" font-family="Times New Roman,serif" font-size="14.00">adolf hitler</text>
</g>
<!-- Entity49&#45;&gt;Entity51 -->
<g id="edge38" class="edge verb">
<title>Entity49&#45;&gt;Entity51</title>
<path fill="none" stroke="black" d="M3464.13,-2092.67C3398.56,-2049.98 3218.44,-1932.68 3147.06,-1886.2"/>
<polygon fill="black" stroke="black" points="3148.81,-1883.16 3138.52,-1880.64 3144.99,-1889.03 3148.81,-1883.16"/>
<text text-anchor="start" x="3271.59" y="-1993.24" font-family="Times New Roman,serif" font-size="14.00">create</text>
</g>
<!-- Entity50 -->
<g id="node40" class="node entity">
<title>Entity50</title>
<ellipse fill="none" stroke="black" cx="3477.4" cy="-1618.56" rx="37.89" ry="18"/>
<text text-anchor="start" x="3456.4" y="-1614.86" font-family="Times New Roman,serif" font-size="14.00">hunt oil</text>
</g>
<!-- Entity48 -->
<g id="node41" class="node entity">
<title>Entity48</title>
<ellipse fill="none" stroke="black" cx="2948.29" cy="-1497.58" rx="77.99" ry="18"/>
<text text-anchor="start" x="2896.29" y="-1493.88" font-family="Times New Roman,serif" font-size="14.00">dwight eisenhower</text>
</g>
<!-- Entity50&#45;&gt;Entity48 -->
<g id="edge39" class="edge verb">
<title>Entity50&#45;&gt;Entity48</title>
<path fill="none" stroke="black" d="M3443.09,-1610.72C3356.4,-1590.9 3127.39,-1538.53 3013.92,-1512.59"/>
<polygon fill="black" stroke="black" points="3014.5,-1509.13 3003.97,-1510.31 3012.94,-1515.95 3014.5,-1509.13"/>
<text text-anchor="start" x="3202.5" y="-1565.45" font-family="Times New Roman,serif" font-size="14.00">fund</text>
</g>
<!-- Entity48&#45;&gt;Entity53 -->
<g id="edge56" class="edge verb">
<title>Entity48&#45;&gt;Entity53</title>
<path fill="none" stroke="black" d="M2901.85,-1482.93C2789.03,-1447.34 2502.24,-1356.86 2399.81,-1324.55"/>
<polygon fill="black" stroke="black" points="2400.8,-1321.19 2390.21,-1321.51 2398.69,-1327.86 2400.8,-1321.19"/>
<text text-anchor="start" x="2640.83" y="-1407.54" font-family="Times New Roman,serif" font-size="14.00">is</text>
</g>
<!-- Entity5 -->
<g id="node42" class="node entity">
<title>Entity5</title>
<ellipse fill="none" stroke="black" cx="2735.94" cy="-2137.05" rx="36.29" ry="18"/>
<text text-anchor="start" x="2715.94" y="-2133.35" font-family="Times New Roman,serif" font-size="14.00">oswald</text>
</g>
<!-- Entity5&#45;&gt;Entity7 -->
<g id="edge66" class="edge verb">
<title>Entity5&#45;&gt;Entity7</title>
<path fill="none" stroke="black" d="M2727.49,-2119.27C2697.54,-2056.21 2596.28,-1842.99 2560.55,-1767.76"/>
<polygon fill="black" stroke="black" points="2563.59,-1766.02 2556.14,-1758.49 2557.27,-1769.02 2563.59,-1766.02"/>
<text text-anchor="start" x="2582.02" y="-1947.31" font-family="Times New Roman,serif" font-size="14.00">assassinate</text>
</g>
<!-- Entity45 -->
<g id="node43" class="node entity">
<title>Entity45</title>
<ellipse fill="none" stroke="black" cx="2996.54" cy="-2539.29" rx="59.29" ry="18"/>
<text text-anchor="start" x="2959.04" y="-2535.59" font-family="Times New Roman,serif" font-size="14.00">guy bannister</text>
</g>
<!-- Entity5&#45;&gt;Entity45 -->
<g id="edge40" class="edge verb">
<title>Entity5&#45;&gt;Entity45</title>
<path fill="none" stroke="black" d="M2747.13,-2154.33C2788.14,-2217.62 2930.27,-2437 2979.56,-2513.07"/>
<polygon fill="black" stroke="black" points="2976.72,-2515.13 2985.09,-2521.62 2982.59,-2511.32 2976.72,-2515.13"/>
<text text-anchor="start" x="2809.34" y="-2337.5" font-family="Times New Roman,serif" font-size="14.00">employee</text>
</g>
<!-- Entity45&#45;&gt;Entity74 -->
<g id="edge57" class="edge verb">
<title>Entity45&#45;&gt;Entity74</title>
<path fill="none" stroke="black" d="M3013.04,-2521.85C3060.32,-2471.88 3196.36,-2328.08 3250.71,-2270.63"/>
<polygon fill="black" stroke="black" points="3253.49,-2272.79 3257.82,-2263.12 3248.4,-2267.98 3253.49,-2272.79"/>
<text text-anchor="start" x="3085.87" y="-2400.04" font-family="Times New Roman,serif" font-size="14.00">member</text>
</g>
<!-- Entity13 -->
<g id="node44" class="node entity">
<title>Entity13</title>
<ellipse fill="none" stroke="black" cx="2125.21" cy="-1627.44" rx="58.49" ry="18"/>
<text text-anchor="start" x="2088.21" y="-1623.74" font-family="Times New Roman,serif" font-size="14.00">richard nixon</text>
</g>
<!-- Entity13&#45;&gt;Entity53 -->
<g id="edge42" class="edge verb">
<title>Entity13&#45;&gt;Entity53</title>
<path fill="none" stroke="black" d="M2138.66,-1609.63C2178.78,-1556.49 2297.68,-1399.03 2343.99,-1337.7"/>
<polygon fill="black" stroke="black" points="2346.8,-1339.79 2350.03,-1329.7 2341.21,-1335.58 2346.8,-1339.79"/>
<text text-anchor="start" x="2231.33" y="-1477.46" font-family="Times New Roman,serif" font-size="14.00">is</text>
</g>
<!-- Entity21 -->
<g id="node45" class="node entity">
<title>Entity21</title>
<ellipse fill="none" stroke="black" cx="2569.59" cy="-1578.14" rx="35.19" ry="18"/>
<text text-anchor="start" x="2550.59" y="-1574.44" font-family="Times New Roman,serif" font-size="14.00">obama</text>
</g>
<!-- Entity21&#45;&gt;Entity53 -->
<g id="edge44" class="edge verb">
<title>Entity21&#45;&gt;Entity53</title>
<path fill="none" stroke="black" d="M2556.34,-1561.14C2520.79,-1515.55 2423.23,-1390.42 2381.78,-1337.26"/>
<polygon fill="black" stroke="black" points="2384.54,-1335.1 2375.63,-1329.37 2379.02,-1339.41 2384.54,-1335.1"/>
<text text-anchor="start" x="2459.06" y="-1453" font-family="Times New Roman,serif" font-size="14.00">is</text>
</g>
<!-- Entity44 -->
<g id="node49" class="node entity">
<title>Entity44</title>
<ellipse fill="none" stroke="black" cx="3698.94" cy="-1232.66" rx="53.89" ry="18"/>
<text text-anchor="start" x="3665.44" y="-1228.96" font-family="Times New Roman,serif" font-size="14.00">black magic</text>
</g>
<!-- Entity71 -->
<g id="node50" class="node entity">
<title>Entity71</title>
<ellipse fill="none" stroke="black" cx="3786.66" cy="-1344.64" rx="28.7" ry="18"/>
<text text-anchor="start" x="3772.66" y="-1340.94" font-family="Times New Roman,serif" font-size="14.00">x left</text>
</g>
<!-- Entity44&#45;&gt;Entity71 -->
<g id="edge50" class="edge verb">
<title>Entity44&#45;&gt;Entity71</title>
<path fill="none" stroke="black" d="M3712.64,-1250.16C3727.45,-1269.05 3751.14,-1299.29 3767.72,-1320.45"/>
<polygon fill="black" stroke="black" points="3764.98,-1322.64 3773.9,-1328.36 3770.49,-1318.32 3764.98,-1322.64"/>
<text text-anchor="start" x="3694.18" y="-1289.11" font-family="Times New Roman,serif" font-size="14.00">member</text>
</g>
<!-- Entity35 -->
<g id="node51" class="node entity">
<title>Entity35</title>
<ellipse fill="none" stroke="black" cx="2469.94" cy="-2204.66" rx="39.79" ry="18"/>
<text text-anchor="start" x="2447.44" y="-2200.96" font-family="Times New Roman,serif" font-size="14.00">crowley</text>
</g>
<!-- Entity70 -->
<g id="node52" class="node entity">
<title>Entity70</title>
<ellipse fill="none" stroke="black" cx="2557.66" cy="-2316.64" rx="38.99" ry="18"/>
<text text-anchor="start" x="2535.66" y="-2312.94" font-family="Times New Roman,serif" font-size="14.00">x magic</text>
</g>
<!-- Entity35&#45;&gt;Entity70 -->
<g id="edge52" class="edge verb">
<title>Entity35&#45;&gt;Entity70</title>
<path fill="none" stroke="black" d="M2483.26,-2221.67C2497.82,-2240.25 2521.28,-2270.2 2537.96,-2291.49"/>
<polygon fill="black" stroke="black" points="2535.29,-2293.76 2544.21,-2299.47 2540.8,-2289.44 2535.29,-2293.76"/>
<text text-anchor="start" x="2464.61" y="-2260.38" font-family="Times New Roman,serif" font-size="14.00">member</text>
</g>
<!-- Entity52 -->
<g id="node57" class="node entity">
<title>Entity52</title>
<ellipse fill="none" stroke="black" cx="104.53" cy="-2175.24" rx="94.48" ry="18"/>
<text text-anchor="start" x="40.03" y="-2171.54" font-family="Times New Roman,serif" font-size="14.00">egyptian gods in a ship</text>
</g>
<!-- Entity9&#45;&gt;Entity52 -->
<g id="edge61" class="edge verb">
<title>Entity9&#45;&gt;Entity52</title>
<path fill="none" stroke="black" d="M664.4,-2140.24C572.92,-2145.96 339.42,-2160.56 204.63,-2168.98"/>
<polygon fill="black" stroke="black" points="204.06,-2165.51 194.3,-2169.63 204.5,-2172.49 204.06,-2165.51"/>
<text text-anchor="start" x="404.51" y="-2158.41" font-family="Times New Roman,serif" font-size="14.00">claim</text>
</g>
<!-- Entity2 -->
<g id="node58" class="node entity">
<title>Entity2</title>
<ellipse fill="none" stroke="black" cx="64.19" cy="-2859.76" rx="64.19" ry="18"/>
<text text-anchor="start" x="22.69" y="-2856.06" font-family="Times New Roman,serif" font-size="14.00">andre puharich</text>
</g>
<!-- Entity2&#45;&gt;Entity1 -->
<g id="edge63" class="edge verb">
<title>Entity2&#45;&gt;Entity1</title>
<path fill="none" stroke="black" d="M82.84,-2842.37C144.22,-2785.1 340.07,-2602.42 409.99,-2537.19"/>
<polygon fill="black" stroke="black" points="412.57,-2539.57 417.49,-2530.19 407.79,-2534.45 412.57,-2539.57"/>
<text text-anchor="start" x="194.41" y="-2693.58" font-family="Times New Roman,serif" font-size="14.00">sponsore</text>
</g>
<!-- Entity4 -->
<g id="node59" class="node entity">
<title>Entity4</title>
<ellipse fill="none" stroke="black" cx="229.22" cy="-2374.64" rx="74.99" ry="18"/>
<text text-anchor="start" x="179.72" y="-2370.94" font-family="Times New Roman,serif" font-size="14.00">gene roddenberry</text>
</g>
<!-- Entity4&#45;&gt;Entity9 -->
<g id="edge65" class="edge verb">
<title>Entity4&#45;&gt;Entity9</title>
<path fill="none" stroke="black" d="M261.76,-2358.36C347.34,-2315.57 578.19,-2200.13 667.12,-2155.65"/>
<polygon fill="black" stroke="black" points="668.88,-2158.68 676.26,-2151.08 665.75,-2152.42 668.88,-2158.68"/>
<text text-anchor="start" x="360.44" y="-2260.81" font-family="Times New Roman,serif" font-size="14.00">claiemd to channel</text>
</g>
</g>
</svg>
