<?xml version="1.0" encoding="UTF-8" standalone="no"?>
<?xml-stylesheet href="../styles.css" type="text/css"?>
<!DOCTYPE svg PUBLIC "-//W3C//DTD SVG 1.1//EN"
 "http://www.w3.org/Graphics/SVG/1.1/DTD/svg11.dtd">
<!-- Generated by graphviz version 2.47.3 (20210619.1520)
 -->
<!-- Title: G Pages: 1 -->
<svg width="6894pt" height="4358pt"
 viewBox="0.00 0.00 6894.00 4358.00" xmlns="http://www.w3.org/2000/svg" xmlns:xlink="http://www.w3.org/1999/xlink">
<g id="graph0" class="graph" transform="scale(1 1) rotate(0) translate(4 4354)">
<title>G</title>
<polygon fill="white" stroke="transparent" points="-4,4 -4,-4354 6890,-4354 6890,4 -4,4"/>
<!-- Entity5 -->
<g id="node1" class="node entity">
<title>Entity5</title>
<ellipse fill="none" stroke="black" cx="4162.79" cy="-3062.91" rx="75.29" ry="18"/>
<text text-anchor="start" x="4112.79" y="-3059.21" font-family="Times New Roman,serif" font-size="14.00">lee harvey oswald</text>
</g>
<!-- Entity7 -->
<g id="node2" class="node entity">
<title>Entity7</title>
<ellipse fill="none" stroke="black" cx="3565.81" cy="-2626.87" rx="64.19" ry="18"/>
<text text-anchor="start" x="3524.31" y="-2623.17" font-family="Times New Roman,serif" font-size="14.00">john f kennedy</text>
</g>
<!-- Entity5&#45;&gt;Entity7 -->
<g id="edge1" class="edge verb">
<title>Entity5&#45;&gt;Entity7</title>
<path fill="none" stroke="black" d="M4143.48,-3045.47C4058.04,-2976.64 3713.79,-2724.94 3601.43,-2648.77"/>
<polygon fill="black" stroke="black" points="3603.38,-2645.86 3593.13,-2643.18 3599.47,-2651.67 3603.38,-2645.86"/>
<text text-anchor="start" x="3810.46" y="-2835.92" font-family="Times New Roman,serif" font-size="14.00">assassinate</text>
</g>
<!-- Entity5&#45;&gt;Entity7 -->
<g id="edge4" class="edge verb">
<title>Entity5&#45;&gt;Entity7</title>
<path fill="none" stroke="black" d="M4134.6,-3046.03C4033.77,-2978.53 3692.08,-2729.01 3592.94,-2650.55"/>
<polygon fill="black" stroke="black" points="3594.9,-2647.64 3584.9,-2644.14 3590.54,-2653.11 3594.9,-2647.64"/>
<text text-anchor="start" x="3823.77" y="-2852.09" font-family="Times New Roman,serif" font-size="14.00">oswald</text>
</g>
<!-- Entity45 -->
<g id="node29" class="node entity">
<title>Entity45</title>
<ellipse fill="none" stroke="black" cx="4775.5" cy="-3395.84" rx="59.29" ry="18"/>
<text text-anchor="start" x="4738" y="-3392.14" font-family="Times New Roman,serif" font-size="14.00">guy bannister</text>
</g>
<!-- Entity5&#45;&gt;Entity45 -->
<g id="edge23" class="edge verb">
<title>Entity5&#45;&gt;Entity45</title>
<path fill="none" stroke="black" d="M4193.17,-3079.42C4295.11,-3134.8 4624.8,-3313.95 4737.4,-3375.13"/>
<polygon fill="black" stroke="black" points="4735.91,-3378.31 4746.37,-3380.01 4739.26,-3372.16 4735.91,-3378.31"/>
<text text-anchor="start" x="4411.29" y="-3231.08" font-family="Times New Roman,serif" font-size="14.00">employee</text>
</g>
<!-- Entity53 -->
<g id="node28" class="node entity">
<title>Entity53</title>
<ellipse fill="none" stroke="black" cx="3108.3" cy="-2228.26" rx="31.4" ry="18"/>
<text text-anchor="start" x="3092.3" y="-2224.56" font-family="Times New Roman,serif" font-size="14.00">potus</text>
</g>
<!-- Entity7&#45;&gt;Entity53 -->
<g id="edge22" class="edge verb">
<title>Entity7&#45;&gt;Entity53</title>
<path fill="none" stroke="black" d="M3545.85,-2609.49C3472.19,-2545.31 3215.6,-2321.74 3133.66,-2250.35"/>
<polygon fill="black" stroke="black" points="3135.69,-2247.47 3125.85,-2243.54 3131.09,-2252.75 3135.69,-2247.47"/>
<text text-anchor="start" x="3329.76" y="-2433.72" font-family="Times New Roman,serif" font-size="14.00">is</text>
</g>
<!-- Entity1 -->
<g id="node3" class="node entity">
<title>Entity1</title>
<ellipse fill="none" stroke="black" cx="5921.15" cy="-1790.42" rx="41.69" ry="18"/>
<text text-anchor="start" x="5897.15" y="-1786.72" font-family="Times New Roman,serif" font-size="14.00">uri geller</text>
</g>
<!-- Entity9 -->
<g id="node4" class="node entity">
<title>Entity9</title>
<ellipse fill="none" stroke="black" cx="6301.82" cy="-1864.07" rx="38.19" ry="18"/>
<text text-anchor="start" x="6280.32" y="-1860.37" font-family="Times New Roman,serif" font-size="14.00">the nine</text>
</g>
<!-- Entity1&#45;&gt;Entity9 -->
<g id="edge2" class="edge verb">
<title>Entity1&#45;&gt;Entity9</title>
<path fill="none" stroke="black" d="M5959.39,-1797.82C6029.89,-1811.46 6180.05,-1840.51 6255.92,-1855.19"/>
<polygon fill="black" stroke="black" points="6255.63,-1858.7 6266.12,-1857.17 6256.96,-1851.83 6255.63,-1858.7"/>
<text text-anchor="start" x="6003.66" y="-1830.31" font-family="Times New Roman,serif" font-size="14.00">claiemd to channel</text>
</g>
<!-- Entity52 -->
<g id="node44" class="node entity">
<title>Entity52</title>
<ellipse fill="none" stroke="black" cx="6779.4" cy="-1528.8" rx="94.48" ry="18"/>
<text text-anchor="start" x="6714.9" y="-1525.1" font-family="Times New Roman,serif" font-size="14.00">egyptian gods in a ship</text>
</g>
<!-- Entity9&#45;&gt;Entity52 -->
<g id="edge37" class="edge verb">
<title>Entity9&#45;&gt;Entity52</title>
<path fill="none" stroke="black" d="M6323.27,-1849.02C6399.05,-1795.81 6654.57,-1616.43 6746.28,-1552.04"/>
<polygon fill="black" stroke="black" points="6748.46,-1554.79 6754.63,-1546.18 6744.44,-1549.06 6748.46,-1554.79"/>
<text text-anchor="start" x="6504.78" y="-1704.33" font-family="Times New Roman,serif" font-size="14.00">claim</text>
</g>
<!-- Entity4 -->
<g id="node5" class="node entity">
<title>Entity4</title>
<ellipse fill="none" stroke="black" cx="6810.88" cy="-1803.67" rx="74.99" ry="18"/>
<text text-anchor="start" x="6761.38" y="-1799.97" font-family="Times New Roman,serif" font-size="14.00">gene roddenberry</text>
</g>
<!-- Entity4&#45;&gt;Entity9 -->
<g id="edge3" class="edge verb">
<title>Entity4&#45;&gt;Entity9</title>
<path fill="none" stroke="black" d="M6743.81,-1811.63C6639.3,-1824.03 6440.19,-1847.66 6349.25,-1858.45"/>
<polygon fill="black" stroke="black" points="6348.75,-1854.98 6339.23,-1859.64 6349.57,-1861.93 6348.75,-1854.98"/>
<text text-anchor="start" x="6442.53" y="-1838.84" font-family="Times New Roman,serif" font-size="14.00">claiemd to channel</text>
</g>
<!-- Entity2 -->
<g id="node6" class="node entity">
<title>Entity2</title>
<ellipse fill="none" stroke="black" cx="6011.02" cy="-1682.42" rx="64.19" ry="18"/>
<text text-anchor="start" x="5969.52" y="-1678.72" font-family="Times New Roman,serif" font-size="14.00">andre puharich</text>
</g>
<!-- Entity2&#45;&gt;Entity1 -->
<g id="edge5" class="edge verb">
<title>Entity2&#45;&gt;Entity1</title>
<path fill="none" stroke="black" d="M5996.18,-1700.25C5981.37,-1718.05 5958.49,-1745.55 5941.89,-1765.5"/>
<polygon fill="black" stroke="black" points="5939.12,-1763.35 5935.42,-1773.27 5944.51,-1767.82 5939.12,-1763.35"/>
<text text-anchor="start" x="5917.03" y="-1736.68" font-family="Times New Roman,serif" font-size="14.00">sponsore</text>
</g>
<!-- Entity6 -->
<g id="node7" class="node entity">
<title>Entity6</title>
<ellipse fill="none" stroke="black" cx="5529.83" cy="-1571.47" rx="68.49" ry="18"/>
<text text-anchor="start" x="5485.33" y="-1567.77" font-family="Times New Roman,serif" font-size="14.00">jeffrey mishlove</text>
</g>
<!-- Entity6&#45;&gt;Entity1 -->
<g id="edge6" class="edge verb">
<title>Entity6&#45;&gt;Entity1</title>
<path fill="none" stroke="black" d="M5559.24,-1587.93C5630.15,-1627.6 5810.28,-1728.38 5886.37,-1770.96"/>
<polygon fill="black" stroke="black" points="5885.12,-1774.27 5895.55,-1776.1 5888.53,-1768.16 5885.12,-1774.27"/>
<text text-anchor="start" x="5674.81" y="-1683.24" font-family="Times New Roman,serif" font-size="14.00">promote</text>
</g>
<!-- Entity55 -->
<g id="node34" class="node entity">
<title>Entity55</title>
<ellipse fill="none" stroke="black" cx="5071.97" cy="-1910.87" rx="77.19" ry="18"/>
<text text-anchor="start" x="5020.47" y="-1907.17" font-family="Times New Roman,serif" font-size="14.00">psi&#45;consciousness</text>
</g>
<!-- Entity6&#45;&gt;Entity55 -->
<g id="edge58" class="edge verb">
<title>Entity6&#45;&gt;Entity55</title>
<path fill="none" stroke="black" d="M5501.91,-1588.01C5419.84,-1643.26 5180.34,-1820.73 5099.18,-1886.32"/>
<polygon fill="black" stroke="black" points="5096.49,-1884 5090.96,-1893.03 5100.92,-1889.42 5096.49,-1884"/>
<text text-anchor="start" x="5269.55" y="-1740.96" font-family="Times New Roman,serif" font-size="14.00">study</text>
</g>
<!-- Entity6&#45;&gt;Entity55 -->
<g id="edge60" class="edge verb">
<title>Entity6&#45;&gt;Entity55</title>
<path fill="none" stroke="black" d="M5511.34,-1588.89C5442.66,-1645.7 5201.75,-1824.61 5108.85,-1888.24"/>
<polygon fill="black" stroke="black" points="5106.64,-1885.52 5100.33,-1894.03 5110.57,-1891.31 5106.64,-1885.52"/>
<text text-anchor="start" x="5310.1" y="-1742.37" font-family="Times New Roman,serif" font-size="14.00">investigates</text>
</g>
<!-- Entity11 -->
<g id="node8" class="node entity">
<title>Entity11</title>
<ellipse fill="none" stroke="black" cx="2667.87" cy="-2407.52" rx="68.49" ry="18"/>
<text text-anchor="start" x="2623.37" y="-2403.82" font-family="Times New Roman,serif" font-size="14.00">george hw bush</text>
</g>
<!-- Entity18 -->
<g id="node9" class="node entity">
<title>Entity18</title>
<ellipse fill="none" stroke="black" cx="2823.69" cy="-2299.5" rx="63.89" ry="18"/>
<text text-anchor="start" x="2782.69" y="-2295.8" font-family="Times New Roman,serif" font-size="14.00">george w bush</text>
</g>
<!-- Entity11&#45;&gt;Entity18 -->
<g id="edge7" class="edge verb">
<title>Entity11&#45;&gt;Entity18</title>
<path fill="none" stroke="black" d="M2692.21,-2390.64C2718.86,-2372.17 2761.7,-2342.47 2791.2,-2322.03"/>
<polygon fill="black" stroke="black" points="2793.29,-2324.83 2799.52,-2316.26 2789.31,-2319.08 2793.29,-2324.83"/>
<text text-anchor="start" x="2709.71" y="-2360.13" font-family="Times New Roman,serif" font-size="14.00">father</text>
</g>
<!-- Entity11&#45;&gt;Entity53 -->
<g id="edge49" class="edge verb">
<title>Entity11&#45;&gt;Entity53</title>
<path fill="none" stroke="black" d="M2705.04,-2392.39C2788.84,-2358.28 2991.54,-2275.78 3073.27,-2242.51"/>
<polygon fill="black" stroke="black" points="3074.68,-2245.72 3082.62,-2238.71 3072.04,-2239.24 3074.68,-2245.72"/>
<text text-anchor="start" x="2879.16" y="-2321.25" font-family="Times New Roman,serif" font-size="14.00">is</text>
</g>
<!-- Entity18&#45;&gt;Entity53 -->
<g id="edge59" class="edge verb">
<title>Entity18&#45;&gt;Entity53</title>
<path fill="none" stroke="black" d="M2871.65,-2287.5C2927.35,-2273.55 3018.13,-2250.83 3069.56,-2237.95"/>
<polygon fill="black" stroke="black" points="3070.45,-2241.34 3079.3,-2235.52 3068.75,-2234.55 3070.45,-2241.34"/>
<text text-anchor="start" x="2960.61" y="-2266.52" font-family="Times New Roman,serif" font-size="14.00">is</text>
</g>
<!-- Entity3 -->
<g id="node10" class="node entity">
<title>Entity3</title>
<ellipse fill="none" stroke="black" cx="5810.32" cy="-2130.6" rx="65.79" ry="18"/>
<text text-anchor="start" x="5767.82" y="-2126.9" font-family="Times New Roman,serif" font-size="14.00">arthur m young</text>
</g>
<!-- Entity3&#45;&gt;Entity9 -->
<g id="edge8" class="edge verb">
<title>Entity3&#45;&gt;Entity9</title>
<path fill="none" stroke="black" d="M5839.96,-2114.53C5926.14,-2067.8 6176.32,-1932.13 6267.81,-1882.52"/>
<polygon fill="black" stroke="black" points="6269.53,-1885.57 6276.66,-1877.72 6266.2,-1879.41 6269.53,-1885.57"/>
<text text-anchor="start" x="6007.88" y="-2002.33" font-family="Times New Roman,serif" font-size="14.00">member</text>
</g>
<!-- Entity56 -->
<g id="node27" class="node entity">
<title>Entity56</title>
<ellipse fill="none" stroke="black" cx="6146.39" cy="-2652.83" rx="53.89" ry="18"/>
<text text-anchor="start" x="6112.89" y="-2649.13" font-family="Times New Roman,serif" font-size="14.00">bell aviation</text>
</g>
<!-- Entity3&#45;&gt;Entity56 -->
<g id="edge21" class="edge verb">
<title>Entity3&#45;&gt;Entity56</title>
<path fill="none" stroke="black" d="M5821.89,-2148.58C5871.99,-2226.43 6070.35,-2534.67 6129.59,-2626.73"/>
<polygon fill="black" stroke="black" points="6126.68,-2628.68 6135.04,-2635.19 6132.57,-2624.89 6126.68,-2628.68"/>
<text text-anchor="start" x="5941.74" y="-2391.46" font-family="Times New Roman,serif" font-size="14.00">create</text>
</g>
<!-- Entity3&#45;&gt;Entity55 -->
<g id="edge54" class="edge verb">
<title>Entity3&#45;&gt;Entity55</title>
<path fill="none" stroke="black" d="M5765.8,-2117.35C5638.37,-2079.43 5272.3,-1970.49 5129.75,-1928.07"/>
<polygon fill="black" stroke="black" points="5130.47,-1924.63 5119.88,-1925.13 5128.47,-1931.34 5130.47,-1924.63"/>
<text text-anchor="start" x="5416.78" y="-2026.51" font-family="Times New Roman,serif" font-size="14.00">study</text>
</g>
<!-- Entity16 -->
<g id="node11" class="node entity">
<title>Entity16</title>
<ellipse fill="none" stroke="black" cx="5246.33" cy="-1679.48" rx="63.89" ry="18"/>
<text text-anchor="start" x="5205.33" y="-1675.78" font-family="Times New Roman,serif" font-size="14.00">robert bigelow</text>
</g>
<!-- Entity16&#45;&gt;Entity6 -->
<g id="edge9" class="edge verb">
<title>Entity16&#45;&gt;Entity6</title>
<path fill="none" stroke="black" d="M5284.57,-1664.91C5335.46,-1645.52 5425.52,-1611.21 5481.2,-1590"/>
<polygon fill="black" stroke="black" points="5482.74,-1593.15 5490.84,-1586.32 5480.25,-1586.61 5482.74,-1593.15"/>
<text text-anchor="start" x="5350.88" y="-1631.25" font-family="Times New Roman,serif" font-size="14.00">funds</text>
</g>
<!-- Entity16&#45;&gt;Entity55 -->
<g id="edge50" class="edge verb">
<title>Entity16&#45;&gt;Entity55</title>
<path fill="none" stroke="black" d="M5232.94,-1697.25C5202.39,-1737.8 5127.42,-1837.29 5091.62,-1884.8"/>
<polygon fill="black" stroke="black" points="5088.63,-1882.95 5085.41,-1893.04 5094.22,-1887.16 5088.63,-1882.95"/>
<text text-anchor="start" x="5098.28" y="-1794.82" font-family="Times New Roman,serif" font-size="14.00">investigates</text>
</g>
<!-- Entity25 -->
<g id="node12" class="node entity">
<title>Entity25</title>
<ellipse fill="none" stroke="black" cx="3108.86" cy="-1006.41" rx="58.49" ry="18"/>
<text text-anchor="start" x="3071.86" y="-1002.71" font-family="Times New Roman,serif" font-size="14.00">steve bannon</text>
</g>
<!-- Entity8 -->
<g id="node13" class="node entity">
<title>Entity8</title>
<ellipse fill="none" stroke="black" cx="3332.61" cy="-1662.49" rx="59.59" ry="18"/>
<text text-anchor="start" x="3294.61" y="-1658.79" font-family="Times New Roman,serif" font-size="14.00">donald trump</text>
</g>
<!-- Entity25&#45;&gt;Entity8 -->
<g id="edge10" class="edge verb">
<title>Entity25&#45;&gt;Entity8</title>
<path fill="none" stroke="black" d="M3112.5,-1024.38C3137.55,-1115.31 3276.88,-1524.48 3320.08,-1634.94"/>
<polygon fill="black" stroke="black" points="3316.89,-1636.4 3323.84,-1644.4 3323.4,-1633.81 3316.89,-1636.4"/>
<text text-anchor="start" x="3168.29" y="-1333.46" font-family="Times New Roman,serif" font-size="14.00">promote</text>
</g>
<!-- Entity25&#45;&gt;Entity8 -->
<g id="edge11" class="edge verb">
<title>Entity25&#45;&gt;Entity8</title>
<path fill="none" stroke="black" d="M3117.65,-1024.54C3154.6,-1115.66 3293.8,-1523.36 3326.12,-1634.46"/>
<polygon fill="black" stroke="black" points="3322.8,-1635.6 3328.9,-1644.27 3329.54,-1633.69 3322.8,-1635.6"/>
<text text-anchor="start" x="3185.88" y="-1318.3" font-family="Times New Roman,serif" font-size="14.00">advise</text>
</g>
<!-- Entity76 -->
<g id="node38" class="node entity">
<title>Entity76</title>
<ellipse fill="none" stroke="black" cx="2604.9" cy="-705.14" rx="77.19" ry="18"/>
<text text-anchor="start" x="2553.4" y="-701.44" font-family="Times New Roman,serif" font-size="14.00">hollywood movies</text>
</g>
<!-- Entity25&#45;&gt;Entity76 -->
<g id="edge31" class="edge verb">
<title>Entity25&#45;&gt;Entity76</title>
<path fill="none" stroke="black" d="M3081.77,-990.21C2997.29,-939.71 2738.61,-785.08 2641.9,-727.26"/>
<polygon fill="black" stroke="black" points="2643.43,-724.1 2633.05,-721.98 2639.84,-730.11 2643.43,-724.1"/>
<text text-anchor="start" x="2814.83" y="-862.54" font-family="Times New Roman,serif" font-size="14.00">produce</text>
</g>
<!-- Entity64 -->
<g id="node46" class="node entity">
<title>Entity64</title>
<ellipse fill="none" stroke="black" cx="3090.7" cy="-571.13" rx="38.19" ry="18"/>
<text text-anchor="start" x="3069.2" y="-567.43" font-family="Times New Roman,serif" font-size="14.00">us navy</text>
</g>
<!-- Entity25&#45;&gt;Entity64 -->
<g id="edge40" class="edge verb">
<title>Entity25&#45;&gt;Entity64</title>
<path fill="none" stroke="black" d="M3108.1,-988.26C3105.28,-920.51 3095.33,-682.05 3091.88,-599.51"/>
<polygon fill="black" stroke="black" points="3095.37,-599.21 3091.46,-589.36 3088.38,-599.5 3095.37,-599.21"/>
<text text-anchor="start" x="3053.99" y="-797.68" font-family="Times New Roman,serif" font-size="14.00">member</text>
</g>
<!-- Entity77 -->
<g id="node49" class="node entity">
<title>Entity77</title>
<ellipse fill="none" stroke="black" cx="3400.62" cy="-532.12" rx="64.99" ry="18"/>
<text text-anchor="start" x="3358.62" y="-528.42" font-family="Times New Roman,serif" font-size="14.00">goldman sachs</text>
</g>
<!-- Entity25&#45;&gt;Entity77 -->
<g id="edge45" class="edge verb">
<title>Entity25&#45;&gt;Entity77</title>
<path fill="none" stroke="black" d="M3119.77,-988.68C3164.08,-916.64 3330.86,-645.53 3384.15,-558.91"/>
<polygon fill="black" stroke="black" points="3387.25,-560.54 3389.51,-550.19 3381.29,-556.87 3387.25,-560.54"/>
<text text-anchor="start" x="3197.96" y="-777.59" font-family="Times New Roman,serif" font-size="14.00">employee</text>
</g>
<!-- Entity63 -->
<g id="node51" class="node entity">
<title>Entity63</title>
<ellipse fill="none" stroke="black" cx="3045.72" cy="-444.46" rx="53.09" ry="18"/>
<text text-anchor="start" x="3012.72" y="-440.76" font-family="Times New Roman,serif" font-size="14.00">biosphere 2</text>
</g>
<!-- Entity25&#45;&gt;Entity63 -->
<g id="edge51" class="edge verb">
<title>Entity25&#45;&gt;Entity63</title>
<path fill="none" stroke="black" d="M3106.83,-988.35C3097.67,-906.77 3060.09,-572.37 3048.88,-472.65"/>
<polygon fill="black" stroke="black" points="3052.33,-472 3047.74,-462.45 3045.38,-472.78 3052.33,-472"/>
<text text-anchor="start" x="3043.86" y="-734.3" font-family="Times New Roman,serif" font-size="14.00">create</text>
</g>
<!-- Entity65 -->
<g id="node53" class="node entity">
<title>Entity65</title>
<ellipse fill="none" stroke="black" cx="2700.52" cy="-528.42" rx="61.99" ry="18"/>
<text text-anchor="start" x="2661.02" y="-524.72" font-family="Times New Roman,serif" font-size="14.00">breitbart news</text>
</g>
<!-- Entity25&#45;&gt;Entity65 -->
<g id="edge56" class="edge verb">
<title>Entity25&#45;&gt;Entity65</title>
<path fill="none" stroke="black" d="M3093.84,-988.83C3031.75,-916.14 2794.87,-638.86 2721.99,-553.55"/>
<polygon fill="black" stroke="black" points="2724.61,-551.24 2715.46,-545.91 2719.29,-555.78 2724.61,-551.24"/>
<text text-anchor="start" x="2873.92" y="-774.99" font-family="Times New Roman,serif" font-size="14.00">create</text>
</g>
<!-- Entity61 -->
<g id="node59" class="node entity">
<title>Entity61</title>
<ellipse fill="none" stroke="black" cx="3062.29" cy="-898.31" rx="35.19" ry="18"/>
<text text-anchor="start" x="3043.29" y="-894.61" font-family="Times New Roman,serif" font-size="14.00">gurgev</text>
</g>
<!-- Entity25&#45;&gt;Entity61 -->
<g id="edge66" class="edge verb">
<title>Entity25&#45;&gt;Entity61</title>
<path fill="none" stroke="black" d="M3101.17,-988.56C3093.79,-971.43 3082.54,-945.31 3074.04,-925.57"/>
<polygon fill="black" stroke="black" points="3077.16,-923.99 3069.99,-916.19 3070.74,-926.76 3077.16,-923.99"/>
<text text-anchor="start" x="3056.6" y="-960.87" font-family="Times New Roman,serif" font-size="14.00">study</text>
</g>
<!-- Entity30 -->
<g id="node18" class="node entity">
<title>Entity30</title>
<ellipse fill="none" stroke="black" cx="3945.35" cy="-1728.44" rx="50.09" ry="18"/>
<text text-anchor="start" x="3914.85" y="-1724.74" font-family="Times New Roman,serif" font-size="14.00">john trump</text>
</g>
<!-- Entity8&#45;&gt;Entity30 -->
<g id="edge17" class="edge verb">
<title>Entity8&#45;&gt;Entity30</title>
<path fill="none" stroke="black" d="M3389.16,-1668.58C3505.2,-1681.06 3769.19,-1709.48 3886.86,-1722.14"/>
<polygon fill="black" stroke="black" points="3886.79,-1725.65 3897.11,-1723.24 3887.54,-1718.69 3886.79,-1725.65"/>
<text text-anchor="start" x="3595.01" y="-1699.16" font-family="Times New Roman,serif" font-size="14.00">nephew</text>
</g>
<!-- Entity8&#45;&gt;Entity53 -->
<g id="edge26" class="edge verb">
<title>Entity8&#45;&gt;Entity53</title>
<path fill="none" stroke="black" d="M3325.4,-1680.67C3292.7,-1763.15 3158.22,-2102.34 3119.05,-2201.14"/>
<polygon fill="black" stroke="black" points="3115.69,-2200.12 3115.26,-2210.7 3122.2,-2202.7 3115.69,-2200.12"/>
<text text-anchor="start" x="3212.23" y="-1944.71" font-family="Times New Roman,serif" font-size="14.00">is</text>
</g>
<!-- Entity34 -->
<g id="node14" class="node entity">
<title>Entity34</title>
<ellipse fill="none" stroke="black" cx="1917.7" cy="-3163" rx="90.98" ry="18"/>
<text text-anchor="start" x="1855.7" y="-3159.3" font-family="Times New Roman,serif" font-size="14.00">emma hardinge&#45;britten</text>
</g>
<!-- Entity38 -->
<g id="node15" class="node entity">
<title>Entity38</title>
<ellipse fill="none" stroke="black" cx="2598.64" cy="-2655.82" rx="67.69" ry="18"/>
<text text-anchor="start" x="2554.64" y="-2652.12" font-family="Times New Roman,serif" font-size="14.00">abraham lincoln</text>
</g>
<!-- Entity34&#45;&gt;Entity38 -->
<g id="edge12" class="edge verb">
<title>Entity34&#45;&gt;Entity38</title>
<path fill="none" stroke="black" d="M1941.14,-3145.54C2043.46,-3069.32 2451.09,-2765.72 2567.47,-2679.03"/>
<polygon fill="black" stroke="black" points="2569.72,-2681.72 2575.65,-2672.94 2565.54,-2676.11 2569.72,-2681.72"/>
<text text-anchor="start" x="2175.3" y="-2916.09" font-family="Times New Roman,serif" font-size="14.00">spokesperson</text>
</g>
<!-- Entity59 -->
<g id="node37" class="node entity">
<title>Entity59</title>
<ellipse fill="none" stroke="black" cx="1164.65" cy="-3572.57" rx="85.29" ry="18"/>
<text text-anchor="start" x="1107.15" y="-3568.87" font-family="Times New Roman,serif" font-size="14.00">theosophical society</text>
</g>
<!-- Entity34&#45;&gt;Entity59 -->
<g id="edge42" class="edge verb">
<title>Entity34&#45;&gt;Entity59</title>
<path fill="none" stroke="black" d="M1886.3,-3180.07C1766.55,-3245.2 1338.6,-3477.96 1204.88,-3550.69"/>
<polygon fill="black" stroke="black" points="1202.88,-3547.79 1195.77,-3555.65 1206.22,-3553.94 1202.88,-3547.79"/>
<text text-anchor="start" x="1511.59" y="-3369.18" font-family="Times New Roman,serif" font-size="14.00">create</text>
</g>
<!-- Entity68 -->
<g id="node50" class="node entity">
<title>Entity68</title>
<ellipse fill="none" stroke="black" cx="1559.65" cy="-3586.42" rx="39.79" ry="18"/>
<text text-anchor="start" x="1537.15" y="-3582.72" font-family="Times New Roman,serif" font-size="14.00">medium</text>
</g>
<!-- Entity34&#45;&gt;Entity68 -->
<g id="edge46" class="edge verb">
<title>Entity34&#45;&gt;Entity68</title>
<path fill="none" stroke="black" d="M1902.54,-3180.92C1845.9,-3247.9 1646.59,-3483.6 1580.86,-3561.34"/>
<polygon fill="black" stroke="black" points="1578,-3559.29 1574.22,-3569.19 1583.35,-3563.81 1578,-3559.29"/>
<text text-anchor="start" x="1731.7" y="-3374.93" font-family="Times New Roman,serif" font-size="14.00">is</text>
</g>
<!-- Entity69 -->
<g id="node60" class="node entity">
<title>Entity69</title>
<ellipse fill="none" stroke="black" cx="2106.96" cy="-3271.03" rx="55.79" ry="18"/>
<text text-anchor="start" x="2071.96" y="-3267.33" font-family="Times New Roman,serif" font-size="14.00">orphic circle</text>
</g>
<!-- Entity34&#45;&gt;Entity69 -->
<g id="edge67" class="edge verb">
<title>Entity34&#45;&gt;Entity69</title>
<path fill="none" stroke="black" d="M1947.69,-3180.12C1980.89,-3199.07 2034.43,-3229.63 2070.15,-3250.02"/>
<polygon fill="black" stroke="black" points="2068.85,-3253.31 2079.27,-3255.22 2072.32,-3247.23 2068.85,-3253.31"/>
<text text-anchor="start" x="1962.92" y="-3218.87" font-family="Times New Roman,serif" font-size="14.00">member</text>
</g>
<!-- Entity38&#45;&gt;Entity53 -->
<g id="edge52" class="edge verb">
<title>Entity38&#45;&gt;Entity53</title>
<path fill="none" stroke="black" d="M2619.25,-2638.53C2699.89,-2570.88 2993.89,-2324.24 3082.72,-2249.72"/>
<polygon fill="black" stroke="black" points="3085.01,-2252.37 3090.42,-2243.26 3080.51,-2247 3085.01,-2252.37"/>
<text text-anchor="start" x="2840.98" y="-2447.92" font-family="Times New Roman,serif" font-size="14.00">is</text>
</g>
<!-- Entity26 -->
<g id="node16" class="node entity">
<title>Entity26</title>
<ellipse fill="none" stroke="black" cx="1944.86" cy="-2319.3" rx="53.89" ry="18"/>
<text text-anchor="start" x="1911.36" y="-2315.6" font-family="Times New Roman,serif" font-size="14.00">edgar casey</text>
</g>
<!-- Entity27 -->
<g id="node17" class="node entity">
<title>Entity27</title>
<ellipse fill="none" stroke="black" cx="2486.1" cy="-2191.46" rx="71.49" ry="18"/>
<text text-anchor="start" x="2439.1" y="-2187.76" font-family="Times New Roman,serif" font-size="14.00">woodrow wilson</text>
</g>
<!-- Entity26&#45;&gt;Entity27 -->
<g id="edge13" class="edge verb">
<title>Entity26&#45;&gt;Entity27</title>
<path fill="none" stroke="black" d="M1989.15,-2308.84C2085.24,-2286.14 2313.1,-2232.33 2423.71,-2206.2"/>
<polygon fill="black" stroke="black" points="2424.79,-2209.54 2433.71,-2203.84 2423.18,-2202.73 2424.79,-2209.54"/>
<text text-anchor="start" x="2170.43" y="-2261.32" font-family="Times New Roman,serif" font-size="14.00">advise</text>
</g>
<!-- Entity27&#45;&gt;Entity53 -->
<g id="edge39" class="edge verb">
<title>Entity27&#45;&gt;Entity53</title>
<path fill="none" stroke="black" d="M2555.96,-2195.6C2686.25,-2203.3 2962.56,-2219.64 3067.08,-2225.82"/>
<polygon fill="black" stroke="black" points="3067.04,-2229.32 3077.23,-2226.42 3067.45,-2222.33 3067.04,-2229.32"/>
<text text-anchor="start" x="2801.52" y="-2214.51" font-family="Times New Roman,serif" font-size="14.00">is</text>
</g>
<!-- Entity58 -->
<g id="node58" class="node entity">
<title>Entity58</title>
<ellipse fill="none" stroke="black" cx="1876.93" cy="-2057.44" rx="71.49" ry="18"/>
<text text-anchor="start" x="1829.93" y="-2053.74" font-family="Times New Roman,serif" font-size="14.00">leauge of nations</text>
</g>
<!-- Entity27&#45;&gt;Entity58 -->
<g id="edge65" class="edge verb">
<title>Entity27&#45;&gt;Entity58</title>
<path fill="none" stroke="black" d="M2432.04,-2179.57C2319.6,-2154.83 2061.02,-2097.94 1940.68,-2071.47"/>
<polygon fill="black" stroke="black" points="1941.39,-2068.04 1930.87,-2069.31 1939.88,-2074.87 1941.39,-2068.04"/>
<text text-anchor="start" x="2152.36" y="-2129.32" font-family="Times New Roman,serif" font-size="14.00">create</text>
</g>
<!-- Entity17 -->
<g id="node19" class="node entity">
<title>Entity17</title>
<ellipse fill="none" stroke="black" cx="4403.57" cy="-1893.23" rx="27" ry="18"/>
<text text-anchor="start" x="4395.57" y="-1889.53" font-family="Times New Roman,serif" font-size="14.00">cia</text>
</g>
<!-- Entity30&#45;&gt;Entity17 -->
<g id="edge14" class="edge verb">
<title>Entity30&#45;&gt;Entity17</title>
<path fill="none" stroke="black" d="M3980.92,-1741.23C4067.1,-1772.23 4286.12,-1851 4370.09,-1881.2"/>
<polygon fill="black" stroke="black" points="4369.05,-1884.54 4379.65,-1884.63 4371.42,-1877.95 4369.05,-1884.54"/>
<text text-anchor="start" x="4129.51" y="-1815.01" font-family="Times New Roman,serif" font-size="14.00">member</text>
</g>
<!-- Entity67 -->
<g id="node47" class="node entity">
<title>Entity67</title>
<ellipse fill="none" stroke="black" cx="3643.04" cy="-1770.42" rx="50.89" ry="18"/>
<text text-anchor="start" x="3612.04" y="-1766.72" font-family="Times New Roman,serif" font-size="14.00">nikola tesla</text>
</g>
<!-- Entity30&#45;&gt;Entity67 -->
<g id="edge41" class="edge verb">
<title>Entity30&#45;&gt;Entity67</title>
<path fill="none" stroke="black" d="M3898.44,-1734.95C3845.09,-1742.36 3757.96,-1754.46 3700.56,-1762.43"/>
<polygon fill="black" stroke="black" points="3699.98,-1758.98 3690.55,-1763.82 3700.94,-1765.91 3699.98,-1758.98"/>
<text text-anchor="start" x="3768.5" y="-1752.49" font-family="Times New Roman,serif" font-size="14.00">study</text>
</g>
<!-- Entity17&#45;&gt;Entity55 -->
<g id="edge28" class="edge verb">
<title>Entity17&#45;&gt;Entity55</title>
<path fill="none" stroke="black" d="M4430.6,-1893.95C4523.41,-1896.4 4831.78,-1904.53 4984.59,-1908.57"/>
<polygon fill="black" stroke="black" points="4984.78,-1912.07 4994.87,-1908.84 4984.97,-1905.07 4984.78,-1912.07"/>
<text text-anchor="start" x="4643.59" y="-1905.06" font-family="Times New Roman,serif" font-size="14.00">investigates</text>
</g>
<!-- Entity54 -->
<g id="node52" class="node entity">
<title>Entity54</title>
<ellipse fill="none" stroke="black" cx="4007.57" cy="-2031.73" rx="27" ry="18"/>
<text text-anchor="start" x="3998.07" y="-2028.03" font-family="Times New Roman,serif" font-size="14.00">ufo</text>
</g>
<!-- Entity17&#45;&gt;Entity54 -->
<g id="edge55" class="edge verb">
<title>Entity17&#45;&gt;Entity54</title>
<path fill="none" stroke="black" d="M4379.39,-1901.69C4311.65,-1925.38 4119.85,-1992.46 4041.52,-2019.86"/>
<polygon fill="black" stroke="black" points="4039.96,-2016.69 4031.68,-2023.3 4042.28,-2023.3 4039.96,-2016.69"/>
<text text-anchor="start" x="4146.46" y="-1964.57" font-family="Times New Roman,serif" font-size="14.00">investigates</text>
</g>
<!-- Entity40 -->
<g id="node20" class="node entity">
<title>Entity40</title>
<ellipse fill="none" stroke="black" cx="6566.52" cy="-2892.92" rx="57.69" ry="18"/>
<text text-anchor="start" x="6530.02" y="-2889.22" font-family="Times New Roman,serif" font-size="14.00">michael pane</text>
</g>
<!-- Entity37 -->
<g id="node21" class="node entity">
<title>Entity37</title>
<ellipse fill="none" stroke="black" cx="6201.18" cy="-3256.79" rx="74.99" ry="18"/>
<text text-anchor="start" x="6151.68" y="-3253.09" font-family="Times New Roman,serif" font-size="14.00">walter dornberger</text>
</g>
<!-- Entity40&#45;&gt;Entity37 -->
<g id="edge15" class="edge verb">
<title>Entity40&#45;&gt;Entity37</title>
<path fill="none" stroke="black" d="M6548.9,-2910.47C6489.47,-2969.66 6296.25,-3162.1 6226.55,-3231.52"/>
<polygon fill="black" stroke="black" points="6223.67,-3229.45 6219.05,-3238.99 6228.61,-3234.41 6223.67,-3229.45"/>
<text text-anchor="start" x="6333.72" y="-3074.8" font-family="Times New Roman,serif" font-size="14.00">employee</text>
</g>
<!-- Entity40&#45;&gt;Entity56 -->
<g id="edge63" class="edge verb">
<title>Entity40&#45;&gt;Entity56</title>
<path fill="none" stroke="black" d="M6538.63,-2876.98C6464.88,-2834.83 6264.75,-2720.47 6182.47,-2673.45"/>
<polygon fill="black" stroke="black" points="6184.14,-2670.37 6173.72,-2668.45 6180.67,-2676.45 6184.14,-2670.37"/>
<text text-anchor="start" x="6306.55" y="-2779.01" font-family="Times New Roman,serif" font-size="14.00">employee</text>
</g>
<!-- Entity51 -->
<g id="node22" class="node entity">
<title>Entity51</title>
<ellipse fill="none" stroke="black" cx="5750.88" cy="-3601.97" rx="32.49" ry="18"/>
<text text-anchor="start" x="5733.88" y="-3598.27" font-family="Times New Roman,serif" font-size="14.00">nsdap</text>
</g>
<!-- Entity37&#45;&gt;Entity51 -->
<g id="edge16" class="edge verb">
<title>Entity37&#45;&gt;Entity51</title>
<path fill="none" stroke="black" d="M6178.54,-3274.14C6103.17,-3331.91 5860.87,-3517.65 5778.55,-3580.76"/>
<polygon fill="black" stroke="black" points="5776.01,-3578.29 5770.21,-3587.15 5780.27,-3583.85 5776.01,-3578.29"/>
<text text-anchor="start" x="5932.55" y="-3431.25" font-family="Times New Roman,serif" font-size="14.00">member</text>
</g>
<!-- Entity37&#45;&gt;Entity56 -->
<g id="edge33" class="edge verb">
<title>Entity37&#45;&gt;Entity56</title>
<path fill="none" stroke="black" d="M6202.04,-3238.48C6199.69,-3152.21 6166.66,-2785.98 6152.04,-2681.04"/>
<polygon fill="black" stroke="black" points="6155.47,-2680.29 6150.56,-2670.9 6148.54,-2681.3 6155.47,-2680.29"/>
<text text-anchor="start" x="6123.04" y="-2948.56" font-family="Times New Roman,serif" font-size="14.00">employee</text>
</g>
<!-- Entity37&#45;&gt;Entity56 -->
<g id="edge43" class="edge verb">
<title>Entity37&#45;&gt;Entity56</title>
<path fill="none" stroke="black" d="M6196.99,-3238.61C6183.72,-3152.61 6150.32,-2786.37 6145.89,-2681.18"/>
<polygon fill="black" stroke="black" points="6149.38,-2680.89 6145.53,-2671.02 6142.38,-2681.14 6149.38,-2680.89"/>
<text text-anchor="start" x="6092.44" y="-2963.7" font-family="Times New Roman,serif" font-size="14.00">vice&#45;president</text>
</g>
<!-- Entity72 -->
<g id="node48" class="node entity">
<title>Entity72</title>
<ellipse fill="none" stroke="black" cx="6197.54" cy="-3364.68" rx="90.98" ry="18"/>
<text text-anchor="start" x="6135.54" y="-3360.98" font-family="Times New Roman,serif" font-size="14.00">nsdap rocket program</text>
</g>
<!-- Entity37&#45;&gt;Entity72 -->
<g id="edge44" class="edge verb">
<title>Entity37&#45;&gt;Entity72</title>
<path fill="none" stroke="black" d="M6200.56,-3275.09C6200,-3291.93 6199.14,-3317.16 6198.49,-3336.56"/>
<polygon fill="black" stroke="black" points="6194.99,-3336.54 6198.15,-3346.65 6201.99,-3336.77 6194.99,-3336.54"/>
<text text-anchor="start" x="6165.53" y="-3309.63" font-family="Times New Roman,serif" font-size="14.00">create</text>
</g>
<!-- Entity73 -->
<g id="node61" class="node entity">
<title>Entity73</title>
<ellipse fill="none" stroke="black" cx="6774.55" cy="-3463.05" rx="65.79" ry="18"/>
<text text-anchor="start" x="6732.05" y="-3459.35" font-family="Times New Roman,serif" font-size="14.00">x series aircraft</text>
</g>
<!-- Entity37&#45;&gt;Entity73 -->
<g id="edge68" class="edge verb">
<title>Entity37&#45;&gt;Entity73</title>
<path fill="none" stroke="black" d="M6242.88,-3271.79C6346.19,-3308.95 6613.68,-3405.18 6724.9,-3445.2"/>
<polygon fill="black" stroke="black" points="6723.94,-3448.57 6734.54,-3448.66 6726.31,-3441.98 6723.94,-3448.57"/>
<text text-anchor="start" x="6449.89" y="-3362.29" font-family="Times New Roman,serif" font-size="14.00">create</text>
</g>
<!-- Entity74 -->
<g id="node41" class="node entity">
<title>Entity74</title>
<ellipse fill="none" stroke="black" cx="5301.58" cy="-3566.67" rx="38.99" ry="18"/>
<text text-anchor="start" x="5279.58" y="-3562.97" font-family="Times New Roman,serif" font-size="14.00">far right</text>
</g>
<!-- Entity51&#45;&gt;Entity74 -->
<g id="edge48" class="edge verb">
<title>Entity51&#45;&gt;Entity74</title>
<path fill="none" stroke="black" d="M5718.57,-3599.43C5640.78,-3593.32 5442.72,-3577.76 5350.37,-3570.5"/>
<polygon fill="black" stroke="black" points="5350.42,-3566.99 5340.18,-3569.7 5349.87,-3573.97 5350.42,-3566.99"/>
<text text-anchor="start" x="5488.47" y="-3588.76" font-family="Times New Roman,serif" font-size="14.00">member</text>
</g>
<!-- Entity50 -->
<g id="node23" class="node entity">
<title>Entity50</title>
<ellipse fill="none" stroke="black" cx="2091.36" cy="-1672.11" rx="37.89" ry="18"/>
<text text-anchor="start" x="2070.36" y="-1668.41" font-family="Times New Roman,serif" font-size="14.00">hunt oil</text>
</g>
<!-- Entity48 -->
<g id="node24" class="node entity">
<title>Entity48</title>
<ellipse fill="none" stroke="black" cx="2547.62" cy="-1942.38" rx="77.99" ry="18"/>
<text text-anchor="start" x="2495.62" y="-1938.68" font-family="Times New Roman,serif" font-size="14.00">dwight eisenhower</text>
</g>
<!-- Entity50&#45;&gt;Entity48 -->
<g id="edge18" class="edge verb">
<title>Entity50&#45;&gt;Entity48</title>
<path fill="none" stroke="black" d="M2115.25,-1686.26C2189.97,-1730.52 2419.64,-1866.57 2510.28,-1920.26"/>
<polygon fill="black" stroke="black" points="2508.72,-1923.41 2519.11,-1925.5 2512.29,-1917.39 2508.72,-1923.41"/>
<text text-anchor="start" x="2286.76" y="-1807.06" font-family="Times New Roman,serif" font-size="14.00">fund</text>
</g>
<!-- Entity48&#45;&gt;Entity53 -->
<g id="edge53" class="edge verb">
<title>Entity48&#45;&gt;Entity53</title>
<path fill="none" stroke="black" d="M2580.19,-1958.99C2679.36,-2009.55 2976.87,-2161.24 3075.86,-2211.72"/>
<polygon fill="black" stroke="black" points="3074.31,-2214.85 3084.81,-2216.28 3077.49,-2208.62 3074.31,-2214.85"/>
<text text-anchor="start" x="2818.03" y="-2089.15" font-family="Times New Roman,serif" font-size="14.00">is</text>
</g>
<!-- Entity46 -->
<g id="node25" class="node entity">
<title>Entity46</title>
<ellipse fill="none" stroke="black" cx="6565.51" cy="-3650.78" rx="46.29" ry="18"/>
<text text-anchor="start" x="6538.01" y="-3647.08" font-family="Times New Roman,serif" font-size="14.00">van braun</text>
</g>
<!-- Entity46&#45;&gt;Entity37 -->
<g id="edge19" class="edge verb">
<title>Entity46&#45;&gt;Entity37</title>
<path fill="none" stroke="black" d="M6549.62,-3633.59C6491.87,-3571.14 6292.94,-3356.01 6224.51,-3282.02"/>
<polygon fill="black" stroke="black" points="6226.93,-3279.47 6217.57,-3274.51 6221.79,-3284.23 6226.93,-3279.47"/>
<text text-anchor="start" x="6333.07" y="-3461.61" font-family="Times New Roman,serif" font-size="14.00">employee</text>
</g>
<!-- Entity46&#45;&gt;Entity72 -->
<g id="edge47" class="edge verb">
<title>Entity46&#45;&gt;Entity72</title>
<path fill="none" stroke="black" d="M6544.67,-3634.57C6482.89,-3586.54 6300.53,-3444.76 6227.9,-3388.29"/>
<polygon fill="black" stroke="black" points="6230.04,-3385.52 6220,-3382.15 6225.75,-3391.05 6230.04,-3385.52"/>
<text text-anchor="start" x="6332.28" y="-3515.23" font-family="Times New Roman,serif" font-size="14.00">employee</text>
</g>
<!-- Entity49 -->
<g id="node26" class="node entity">
<title>Entity49</title>
<ellipse fill="none" stroke="black" cx="5902.57" cy="-3983.22" rx="49.29" ry="18"/>
<text text-anchor="start" x="5872.57" y="-3979.52" font-family="Times New Roman,serif" font-size="14.00">adolf hitler</text>
</g>
<!-- Entity49&#45;&gt;Entity51 -->
<g id="edge20" class="edge verb">
<title>Entity49&#45;&gt;Entity51</title>
<path fill="none" stroke="black" d="M5895.46,-3965.35C5871.12,-3904.18 5791.09,-3703.02 5761.77,-3629.33"/>
<polygon fill="black" stroke="black" points="5764.93,-3627.8 5757.98,-3619.8 5758.43,-3630.39 5764.93,-3627.8"/>
<text text-anchor="start" x="5794.61" y="-3801.14" font-family="Times New Roman,serif" font-size="14.00">create</text>
</g>
<!-- Entity45&#45;&gt;Entity74 -->
<g id="edge34" class="edge verb">
<title>Entity45&#45;&gt;Entity74</title>
<path fill="none" stroke="black" d="M4816.34,-3409.1C4914.14,-3440.85 5160.93,-3520.99 5259.73,-3553.08"/>
<polygon fill="black" stroke="black" points="5258.79,-3556.45 5269.38,-3556.21 5260.95,-3549.79 5258.79,-3556.45"/>
<text text-anchor="start" x="4992.04" y="-3484.89" font-family="Times New Roman,serif" font-size="14.00">member</text>
</g>
<!-- Entity79 -->
<g id="node30" class="node entity">
<title>Entity79</title>
<ellipse fill="none" stroke="black" cx="2636.94" cy="-1467.66" rx="27" ry="18"/>
<text text-anchor="start" x="2626.94" y="-1463.96" font-family="Times New Roman,serif" font-size="14.00">foo</text>
</g>
<!-- Entity80 -->
<g id="node31" class="node entity">
<title>Entity80</title>
<ellipse fill="none" stroke="black" cx="2724.66" cy="-1579.64" rx="27" ry="18"/>
<text text-anchor="start" x="2714.66" y="-1575.94" font-family="Times New Roman,serif" font-size="14.00">baz</text>
</g>
<!-- Entity79&#45;&gt;Entity80 -->
<g id="edge24" class="edge verb">
<title>Entity79&#45;&gt;Entity80</title>
<path fill="none" stroke="black" d="M2649.51,-1483.7C2664.23,-1502.5 2688.76,-1533.82 2705.78,-1555.53"/>
<polygon fill="black" stroke="black" points="2703.19,-1557.91 2712.11,-1563.62 2708.7,-1553.59 2703.19,-1557.91"/>
<text text-anchor="start" x="2657.64" y="-1523.42" font-family="Times New Roman,serif" font-size="14.00">baz</text>
</g>
<!-- Entity13 -->
<g id="node32" class="node entity">
<title>Entity13</title>
<ellipse fill="none" stroke="black" cx="3009.62" cy="-1832.46" rx="58.49" ry="18"/>
<text text-anchor="start" x="2972.62" y="-1828.76" font-family="Times New Roman,serif" font-size="14.00">richard nixon</text>
</g>
<!-- Entity13&#45;&gt;Entity53 -->
<g id="edge25" class="edge verb">
<title>Entity13&#45;&gt;Entity53</title>
<path fill="none" stroke="black" d="M3014.12,-1850.5C3029.82,-1913.47 3082.28,-2123.89 3101.32,-2200.26"/>
<polygon fill="black" stroke="black" points="3097.97,-2201.26 3103.78,-2210.12 3104.76,-2199.57 3097.97,-2201.26"/>
<text text-anchor="start" x="3047.72" y="-2029.18" font-family="Times New Roman,serif" font-size="14.00">is</text>
</g>
<!-- Entity10 -->
<g id="node33" class="node entity">
<title>Entity10</title>
<ellipse fill="none" stroke="black" cx="3079.21" cy="-2706.84" rx="56.59" ry="18"/>
<text text-anchor="start" x="3043.71" y="-2703.14" font-family="Times New Roman,serif" font-size="14.00">harry truman</text>
</g>
<!-- Entity10&#45;&gt;Entity53 -->
<g id="edge27" class="edge verb">
<title>Entity10&#45;&gt;Entity53</title>
<path fill="none" stroke="black" d="M3080.32,-2688.66C3084.74,-2615.89 3101.19,-2345.22 3106.58,-2256.57"/>
<polygon fill="black" stroke="black" points="3110.08,-2256.64 3107.2,-2246.45 3103.1,-2256.22 3110.08,-2256.64"/>
<text text-anchor="start" x="3083.45" y="-2476.41" font-family="Times New Roman,serif" font-size="14.00">is</text>
</g>
<!-- Entity57 -->
<g id="node43" class="node entity">
<title>Entity57</title>
<ellipse fill="none" stroke="black" cx="3024.47" cy="-3211.71" rx="55.79" ry="18"/>
<text text-anchor="start" x="2989.47" y="-3208.01" font-family="Times New Roman,serif" font-size="14.00">freemasonry</text>
</g>
<!-- Entity10&#45;&gt;Entity57 -->
<g id="edge36" class="edge verb">
<title>Entity10&#45;&gt;Entity57</title>
<path fill="none" stroke="black" d="M3077.23,-2725.11C3069.01,-2800.95 3037.52,-3091.34 3027.53,-3183.48"/>
<polygon fill="black" stroke="black" points="3024.05,-3183.15 3026.45,-3193.47 3031.01,-3183.91 3024.05,-3183.15"/>
<text text-anchor="start" x="3006.38" y="-2958.09" font-family="Times New Roman,serif" font-size="14.00">member</text>
</g>
<!-- Entity22 -->
<g id="node35" class="node entity">
<title>Entity22</title>
<ellipse fill="none" stroke="black" cx="647.81" cy="-3977.69" rx="58.49" ry="18"/>
<text text-anchor="start" x="610.81" y="-3973.99" font-family="Times New Roman,serif" font-size="14.00">rudolf steiner</text>
</g>
<!-- Entity60 -->
<g id="node36" class="node entity">
<title>Entity60</title>
<ellipse fill="none" stroke="black" cx="101.94" cy="-4332.11" rx="102.08" ry="18"/>
<text text-anchor="start" x="31.44" y="-4328.41" font-family="Times New Roman,serif" font-size="14.00">anthroposophical society</text>
</g>
<!-- Entity22&#45;&gt;Entity60 -->
<g id="edge29" class="edge verb">
<title>Entity22&#45;&gt;Entity60</title>
<path fill="none" stroke="black" d="M622.58,-3994.07C534.36,-4051.35 239.56,-4242.76 137.26,-4309.18"/>
<polygon fill="black" stroke="black" points="135.3,-4306.28 128.82,-4314.66 139.11,-4312.15 135.3,-4306.28"/>
<text text-anchor="start" x="345.92" y="-4155.43" font-family="Times New Roman,serif" font-size="14.00">create</text>
</g>
<!-- Entity22&#45;&gt;Entity59 -->
<g id="edge30" class="edge verb">
<title>Entity22&#45;&gt;Entity59</title>
<path fill="none" stroke="black" d="M669.36,-3960.79C750.77,-3896.98 1039.77,-3670.46 1134.4,-3596.28"/>
<polygon fill="black" stroke="black" points="1136.72,-3598.91 1142.43,-3589.99 1132.4,-3593.4 1136.72,-3598.91"/>
<text text-anchor="start" x="855.88" y="-3782.34" font-family="Times New Roman,serif" font-size="14.00">member</text>
</g>
<!-- Entity44 -->
<g id="node39" class="node entity">
<title>Entity44</title>
<ellipse fill="none" stroke="black" cx="4403.94" cy="-2627.66" rx="53.89" ry="18"/>
<text text-anchor="start" x="4370.44" y="-2623.96" font-family="Times New Roman,serif" font-size="14.00">black magic</text>
</g>
<!-- Entity71 -->
<g id="node40" class="node entity">
<title>Entity71</title>
<ellipse fill="none" stroke="black" cx="4491.66" cy="-2739.64" rx="28.7" ry="18"/>
<text text-anchor="start" x="4477.66" y="-2735.94" font-family="Times New Roman,serif" font-size="14.00">x left</text>
</g>
<!-- Entity44&#45;&gt;Entity71 -->
<g id="edge32" class="edge verb">
<title>Entity44&#45;&gt;Entity71</title>
<path fill="none" stroke="black" d="M4417.64,-2645.16C4432.45,-2664.05 4456.14,-2694.29 4472.72,-2715.45"/>
<polygon fill="black" stroke="black" points="4469.98,-2717.64 4478.9,-2723.36 4475.49,-2713.32 4469.98,-2717.64"/>
<text text-anchor="start" x="4399.18" y="-2684.11" font-family="Times New Roman,serif" font-size="14.00">member</text>
</g>
<!-- Entity21 -->
<g id="node42" class="node entity">
<title>Entity21</title>
<ellipse fill="none" stroke="black" cx="2886.91" cy="-2012.44" rx="35.19" ry="18"/>
<text text-anchor="start" x="2867.91" y="-2008.74" font-family="Times New Roman,serif" font-size="14.00">obama</text>
</g>
<!-- Entity21&#45;&gt;Entity53 -->
<g id="edge35" class="edge verb">
<title>Entity21&#45;&gt;Entity53</title>
<path fill="none" stroke="black" d="M2903.55,-2028.66C2942.62,-2066.75 3040.3,-2161.96 3085.14,-2205.67"/>
<polygon fill="black" stroke="black" points="3082.77,-2208.25 3092.37,-2212.72 3087.65,-2203.24 3082.77,-2208.25"/>
<text text-anchor="start" x="2984.35" y="-2120.97" font-family="Times New Roman,serif" font-size="14.00">is</text>
</g>
<!-- Entity14 -->
<g id="node45" class="node entity">
<title>Entity14</title>
<ellipse fill="none" stroke="black" cx="3572.15" cy="-2143.9" rx="31.4" ry="18"/>
<text text-anchor="start" x="3556.15" y="-2140.2" font-family="Times New Roman,serif" font-size="14.00">carter</text>
</g>
<!-- Entity14&#45;&gt;Entity53 -->
<g id="edge38" class="edge verb">
<title>Entity14&#45;&gt;Entity53</title>
<path fill="none" stroke="black" d="M3542.07,-2149.37C3461.27,-2164.07 3239.45,-2204.41 3148.26,-2220.99"/>
<polygon fill="black" stroke="black" points="3147.52,-2217.57 3138.31,-2222.8 3148.78,-2224.45 3147.52,-2217.57"/>
<text text-anchor="start" x="3335.17" y="-2188.98" font-family="Times New Roman,serif" font-size="14.00">is</text>
</g>
<!-- Entity14&#45;&gt;Entity54 -->
<g id="edge64" class="edge verb">
<title>Entity14&#45;&gt;Entity54</title>
<path fill="none" stroke="black" d="M3600.72,-2136.54C3677.55,-2116.75 3888.42,-2062.43 3972.39,-2040.79"/>
<polygon fill="black" stroke="black" points="3973.41,-2044.15 3982.22,-2038.26 3971.66,-2037.37 3973.41,-2044.15"/>
<text text-anchor="start" x="3744.56" y="-2092.47" font-family="Times New Roman,serif" font-size="14.00">witness</text>
</g>
<!-- Entity35 -->
<g id="node54" class="node entity">
<title>Entity35</title>
<ellipse fill="none" stroke="black" cx="4389.94" cy="-1467.66" rx="39.79" ry="18"/>
<text text-anchor="start" x="4367.44" y="-1463.96" font-family="Times New Roman,serif" font-size="14.00">crowley</text>
</g>
<!-- Entity70 -->
<g id="node55" class="node entity">
<title>Entity70</title>
<ellipse fill="none" stroke="black" cx="4477.66" cy="-1579.64" rx="38.99" ry="18"/>
<text text-anchor="start" x="4455.66" y="-1575.94" font-family="Times New Roman,serif" font-size="14.00">x magic</text>
</g>
<!-- Entity35&#45;&gt;Entity70 -->
<g id="edge57" class="edge verb">
<title>Entity35&#45;&gt;Entity70</title>
<path fill="none" stroke="black" d="M4403.26,-1484.67C4417.82,-1503.25 4441.28,-1533.2 4457.96,-1554.49"/>
<polygon fill="black" stroke="black" points="4455.29,-1556.76 4464.21,-1562.47 4460.8,-1552.44 4455.29,-1556.76"/>
<text text-anchor="start" x="4384.61" y="-1523.38" font-family="Times New Roman,serif" font-size="14.00">member</text>
</g>
<!-- Entity24 -->
<g id="node56" class="node entity">
<title>Entity24</title>
<ellipse fill="none" stroke="black" cx="528.9" cy="-3672.9" rx="73.39" ry="18"/>
<text text-anchor="start" x="480.4" y="-3669.2" font-family="Times New Roman,serif" font-size="14.00">madam blavatsky</text>
</g>
<!-- Entity24&#45;&gt;Entity59 -->
<g id="edge61" class="edge verb">
<title>Entity24&#45;&gt;Entity59</title>
<path fill="none" stroke="black" d="M590.73,-3663.14C706.93,-3644.8 957.73,-3605.22 1085.85,-3585.01"/>
<polygon fill="black" stroke="black" points="1086.65,-3588.42 1095.98,-3583.41 1085.56,-3581.51 1086.65,-3588.42"/>
<text text-anchor="start" x="804.29" y="-3627.88" font-family="Times New Roman,serif" font-size="14.00">create</text>
</g>
<!-- Entity31 -->
<g id="node57" class="node entity">
<title>Entity31</title>
<ellipse fill="none" stroke="black" cx="2422.47" cy="-17.69" rx="69.59" ry="18"/>
<text text-anchor="start" x="2376.97" y="-13.99" font-family="Times New Roman,serif" font-size="14.00">andrew breitbart</text>
</g>
<!-- Entity31&#45;&gt;Entity65 -->
<g id="edge62" class="edge verb">
<title>Entity31&#45;&gt;Entity65</title>
<path fill="none" stroke="black" d="M2432.2,-35.57C2473.7,-111.79 2635.99,-409.89 2685.86,-501.49"/>
<polygon fill="black" stroke="black" points="2682.87,-503.31 2690.72,-510.42 2689.01,-499.97 2682.87,-503.31"/>
<text text-anchor="start" x="2525.03" y="-272.33" font-family="Times New Roman,serif" font-size="14.00">create</text>
</g>
</g>
</svg>
