<?xml version="1.0" encoding="UTF-8" standalone="no"?>
<?xml-stylesheet href="../styles.css" type="text/css"?>
<!DOCTYPE svg PUBLIC "-//W3C//DTD SVG 1.1//EN"
 "http://www.w3.org/Graphics/SVG/1.1/DTD/svg11.dtd">
<!-- Generated by graphviz version 2.47.3 (20210619.1520)
 -->
<!-- Title: G Pages: 1 -->
<svg width="5831pt" height="4727pt"
 viewBox="0.00 0.00 5831.00 4727.00" xmlns="http://www.w3.org/2000/svg" xmlns:xlink="http://www.w3.org/1999/xlink">
<g id="graph0" class="graph" transform="scale(1 1) rotate(0) translate(4 4723)">
<title>G</title>
<polygon fill="white" stroke="transparent" points="-4,4 -4,-4723 5827,-4723 5827,4 -4,4"/>
<!-- Entity5 -->
<g id="node1" class="node entity">
<title>Entity5</title>
<ellipse fill="none" stroke="black" cx="2672.72" cy="-2967.19" rx="75.29" ry="18"/>
<text text-anchor="start" x="2622.72" y="-2963.49" font-family="Times New Roman,serif" font-size="14.00">lee harvey oswald</text>
</g>
<!-- Entity7 -->
<g id="node2" class="node entity">
<title>Entity7</title>
<ellipse fill="none" stroke="black" cx="1915.19" cy="-2924.66" rx="64.19" ry="18"/>
<text text-anchor="start" x="1873.69" y="-2920.96" font-family="Times New Roman,serif" font-size="14.00">john f kennedy</text>
</g>
<!-- Entity5&#45;&gt;Entity7 -->
<g id="edge1" class="edge verb">
<title>Entity5&#45;&gt;Entity7</title>
<path fill="none" stroke="black" d="M2599.05,-2963.05C2454.09,-2954.91 2133.34,-2936.91 1988.59,-2928.78"/>
<polygon fill="black" stroke="black" points="1988.66,-2925.28 1978.48,-2928.21 1988.27,-2932.27 1988.66,-2925.28"/>
<text text-anchor="start" x="2231.82" y="-2949.72" font-family="Times New Roman,serif" font-size="14.00">assassinate</text>
</g>
<!-- Entity45 -->
<g id="node27" class="node entity">
<title>Entity45</title>
<ellipse fill="none" stroke="black" cx="3390.59" cy="-3082.85" rx="59.29" ry="18"/>
<text text-anchor="start" x="3353.09" y="-3079.15" font-family="Times New Roman,serif" font-size="14.00">guy bannister</text>
</g>
<!-- Entity5&#45;&gt;Entity45 -->
<g id="edge20" class="edge verb">
<title>Entity5&#45;&gt;Entity45</title>
<path fill="none" stroke="black" d="M2735.49,-2977.3C2871.5,-2999.21 3192.09,-3050.87 3327.97,-3072.76"/>
<polygon fill="black" stroke="black" points="3327.78,-3076.27 3338.21,-3074.41 3328.89,-3069.36 3327.78,-3076.27"/>
<text text-anchor="start" x="2977.73" y="-3028.83" font-family="Times New Roman,serif" font-size="14.00">employee</text>
</g>
<!-- Entity53 -->
<g id="node29" class="node entity">
<title>Entity53</title>
<ellipse fill="none" stroke="black" cx="1299.1" cy="-2942.27" rx="31.4" ry="18"/>
<text text-anchor="start" x="1283.1" y="-2938.57" font-family="Times New Roman,serif" font-size="14.00">potus</text>
</g>
<!-- Entity7&#45;&gt;Entity53 -->
<g id="edge22" class="edge verb">
<title>Entity7&#45;&gt;Entity53</title>
<path fill="none" stroke="black" d="M1851,-2926.5C1724.52,-2930.11 1446.2,-2938.06 1340.73,-2941.08"/>
<polygon fill="black" stroke="black" points="1340.38,-2937.59 1330.48,-2941.37 1340.58,-2944.58 1340.38,-2937.59"/>
<text text-anchor="start" x="1585.87" y="-2937.59" font-family="Times New Roman,serif" font-size="14.00">is</text>
</g>
<!-- Entity2 -->
<g id="node3" class="node entity">
<title>Entity2</title>
<ellipse fill="none" stroke="black" cx="4537.37" cy="-2931.18" rx="64.19" ry="18"/>
<text text-anchor="start" x="4495.87" y="-2927.48" font-family="Times New Roman,serif" font-size="14.00">andre puharich</text>
</g>
<!-- Entity1 -->
<g id="node4" class="node entity">
<title>Entity1</title>
<ellipse fill="none" stroke="black" cx="4257.97" cy="-3337.92" rx="41.69" ry="18"/>
<text text-anchor="start" x="4233.97" y="-3334.22" font-family="Times New Roman,serif" font-size="14.00">uri geller</text>
</g>
<!-- Entity2&#45;&gt;Entity1 -->
<g id="edge2" class="edge verb">
<title>Entity2&#45;&gt;Entity1</title>
<path fill="none" stroke="black" d="M4525.19,-2948.92C4480.88,-3013.42 4328.18,-3235.71 4275.78,-3311.98"/>
<polygon fill="black" stroke="black" points="4272.68,-3310.32 4269.9,-3320.54 4278.45,-3314.28 4272.68,-3310.32"/>
<text text-anchor="start" x="4348.48" y="-3134.25" font-family="Times New Roman,serif" font-size="14.00">sponsore</text>
</g>
<!-- Entity9 -->
<g id="node6" class="node entity">
<title>Entity9</title>
<ellipse fill="none" stroke="black" cx="4348.78" cy="-3756.57" rx="38.19" ry="18"/>
<text text-anchor="start" x="4327.28" y="-3752.87" font-family="Times New Roman,serif" font-size="14.00">the nine</text>
</g>
<!-- Entity1&#45;&gt;Entity9 -->
<g id="edge4" class="edge verb">
<title>Entity1&#45;&gt;Entity9</title>
<path fill="none" stroke="black" d="M4261.87,-3355.9C4276.13,-3421.66 4325.51,-3649.29 4342.77,-3728.85"/>
<polygon fill="black" stroke="black" points="4339.36,-3729.61 4344.9,-3738.64 4346.2,-3728.13 4339.36,-3729.61"/>
<text text-anchor="start" x="4198.32" y="-3546.18" font-family="Times New Roman,serif" font-size="14.00">claiemd to channel</text>
</g>
<!-- Entity4 -->
<g id="node5" class="node entity">
<title>Entity4</title>
<ellipse fill="none" stroke="black" cx="4655.3" cy="-4184.01" rx="74.99" ry="18"/>
<text text-anchor="start" x="4605.8" y="-4180.31" font-family="Times New Roman,serif" font-size="14.00">gene roddenberry</text>
</g>
<!-- Entity4&#45;&gt;Entity9 -->
<g id="edge3" class="edge verb">
<title>Entity4&#45;&gt;Entity9</title>
<path fill="none" stroke="black" d="M4642.52,-4166.19C4594.41,-4099.1 4424.05,-3861.53 4367.32,-3782.42"/>
<polygon fill="black" stroke="black" points="4369.95,-3780.08 4361.28,-3773.99 4364.26,-3784.16 4369.95,-3780.08"/>
<text text-anchor="start" x="4400.92" y="-3978.1" font-family="Times New Roman,serif" font-size="14.00">claiemd to channel</text>
</g>
<!-- Entity52 -->
<g id="node42" class="node entity">
<title>Entity52</title>
<ellipse fill="none" stroke="black" cx="4401.6" cy="-3864.49" rx="94.48" ry="18"/>
<text text-anchor="start" x="4337.1" y="-3860.79" font-family="Times New Roman,serif" font-size="14.00">egyptian gods in a ship</text>
</g>
<!-- Entity9&#45;&gt;Entity52 -->
<g id="edge34" class="edge verb">
<title>Entity9&#45;&gt;Entity52</title>
<path fill="none" stroke="black" d="M4357.51,-3774.39C4365.86,-3791.47 4378.6,-3817.49 4388.24,-3837.19"/>
<polygon fill="black" stroke="black" points="4385.15,-3838.84 4392.69,-3846.28 4391.44,-3835.76 4385.15,-3838.84"/>
<text text-anchor="start" x="4342.87" y="-3809.59" font-family="Times New Roman,serif" font-size="14.00">claim</text>
</g>
<!-- Entity3 -->
<g id="node7" class="node entity">
<title>Entity3</title>
<ellipse fill="none" stroke="black" cx="3943.23" cy="-3472.64" rx="65.79" ry="18"/>
<text text-anchor="start" x="3900.73" y="-3468.94" font-family="Times New Roman,serif" font-size="14.00">arthur m young</text>
</g>
<!-- Entity3&#45;&gt;Entity9 -->
<g id="edge5" class="edge verb">
<title>Entity3&#45;&gt;Entity9</title>
<path fill="none" stroke="black" d="M3967.39,-3489.55C4037.66,-3538.75 4241.91,-3681.74 4318.93,-3735.66"/>
<polygon fill="black" stroke="black" points="4317.05,-3738.62 4327.25,-3741.49 4321.06,-3732.89 4317.05,-3738.62"/>
<text text-anchor="start" x="4097.16" y="-3616.41" font-family="Times New Roman,serif" font-size="14.00">member</text>
</g>
<!-- Entity56 -->
<g id="node28" class="node entity">
<title>Entity56</title>
<ellipse fill="none" stroke="black" cx="4544.63" cy="-3238.69" rx="53.89" ry="18"/>
<text text-anchor="start" x="4511.13" y="-3234.99" font-family="Times New Roman,serif" font-size="14.00">bell aviation</text>
</g>
<!-- Entity3&#45;&gt;Entity56 -->
<g id="edge21" class="edge verb">
<title>Entity3&#45;&gt;Entity56</title>
<path fill="none" stroke="black" d="M3981.31,-3457.83C4087.44,-3416.54 4386.2,-3300.32 4499.92,-3256.08"/>
<polygon fill="black" stroke="black" points="4501.33,-3259.29 4509.38,-3252.4 4498.79,-3252.76 4501.33,-3259.29"/>
<text text-anchor="start" x="4206.62" y="-3360.75" font-family="Times New Roman,serif" font-size="14.00">create</text>
</g>
<!-- Entity55 -->
<g id="node34" class="node entity">
<title>Entity55</title>
<ellipse fill="none" stroke="black" cx="3176.93" cy="-3438.03" rx="77.19" ry="18"/>
<text text-anchor="start" x="3125.43" y="-3434.33" font-family="Times New Roman,serif" font-size="14.00">psi&#45;consciousness</text>
</g>
<!-- Entity3&#45;&gt;Entity55 -->
<g id="edge53" class="edge verb">
<title>Entity3&#45;&gt;Entity55</title>
<path fill="none" stroke="black" d="M3878.23,-3469.7C3740.37,-3463.47 3418.61,-3448.94 3263.53,-3441.94"/>
<polygon fill="black" stroke="black" points="3263.26,-3438.42 3253.11,-3441.47 3262.94,-3445.41 3263.26,-3438.42"/>
<text text-anchor="start" x="3539.88" y="-3459.62" font-family="Times New Roman,serif" font-size="14.00">study</text>
</g>
<!-- Entity6 -->
<g id="node8" class="node entity">
<title>Entity6</title>
<ellipse fill="none" stroke="black" cx="3772.55" cy="-3122.05" rx="68.49" ry="18"/>
<text text-anchor="start" x="3728.05" y="-3118.35" font-family="Times New Roman,serif" font-size="14.00">jeffrey mishlove</text>
</g>
<!-- Entity6&#45;&gt;Entity1 -->
<g id="edge6" class="edge verb">
<title>Entity6&#45;&gt;Entity1</title>
<path fill="none" stroke="black" d="M3807.46,-3137.58C3895.75,-3176.84 4127.43,-3279.86 4219.47,-3320.8"/>
<polygon fill="black" stroke="black" points="4218.14,-3324.04 4228.7,-3324.9 4220.99,-3317.64 4218.14,-3324.04"/>
<text text-anchor="start" x="3965.46" y="-3232.99" font-family="Times New Roman,serif" font-size="14.00">promote</text>
</g>
<!-- Entity6&#45;&gt;Entity55 -->
<g id="edge57" class="edge verb">
<title>Entity6&#45;&gt;Entity55</title>
<path fill="none" stroke="black" d="M3736.37,-3137.42C3629.55,-3189.02 3316.64,-3354.99 3211.68,-3415.68"/>
<polygon fill="black" stroke="black" points="3209.64,-3412.82 3202.76,-3420.88 3213.16,-3418.87 3209.64,-3412.82"/>
<text text-anchor="start" x="3443.03" y="-3280.35" font-family="Times New Roman,serif" font-size="14.00">study</text>
</g>
<!-- Entity6&#45;&gt;Entity55 -->
<g id="edge59" class="edge verb">
<title>Entity6&#45;&gt;Entity55</title>
<path fill="none" stroke="black" d="M3747.21,-3138.9C3655.86,-3192.7 3342.77,-3359.08 3223.53,-3417.58"/>
<polygon fill="black" stroke="black" points="3221.73,-3414.56 3214.28,-3422.09 3224.8,-3420.85 3221.73,-3414.56"/>
<text text-anchor="start" x="3485.37" y="-3282.04" font-family="Times New Roman,serif" font-size="14.00">investigates</text>
</g>
<!-- Entity11 -->
<g id="node9" class="node entity">
<title>Entity11</title>
<ellipse fill="none" stroke="black" cx="1265.5" cy="-3050.32" rx="68.49" ry="18"/>
<text text-anchor="start" x="1221" y="-3046.62" font-family="Times New Roman,serif" font-size="14.00">george hw bush</text>
</g>
<!-- Entity18 -->
<g id="node10" class="node entity">
<title>Entity18</title>
<ellipse fill="none" stroke="black" cx="998.17" cy="-3239.3" rx="63.89" ry="18"/>
<text text-anchor="start" x="957.17" y="-3235.6" font-family="Times New Roman,serif" font-size="14.00">george w bush</text>
</g>
<!-- Entity11&#45;&gt;Entity18 -->
<g id="edge7" class="edge verb">
<title>Entity11&#45;&gt;Entity18</title>
<path fill="none" stroke="black" d="M1241.3,-3067.42C1192.99,-3101.58 1084.57,-3178.22 1030.34,-3216.56"/>
<polygon fill="black" stroke="black" points="1028.26,-3213.74 1022.12,-3222.37 1032.3,-3219.46 1028.26,-3213.74"/>
<text text-anchor="start" x="1103.82" y="-3145.79" font-family="Times New Roman,serif" font-size="14.00">father</text>
</g>
<!-- Entity11&#45;&gt;Entity53 -->
<g id="edge48" class="edge verb">
<title>Entity11&#45;&gt;Entity53</title>
<path fill="none" stroke="black" d="M1271.2,-3031.99C1276.49,-3014.97 1284.45,-2989.39 1290.51,-2969.89"/>
<polygon fill="black" stroke="black" points="1293.86,-2970.91 1293.48,-2960.33 1287.17,-2968.84 1293.86,-2970.91"/>
<text text-anchor="start" x="1270.85" y="-3004.74" font-family="Times New Roman,serif" font-size="14.00">is</text>
</g>
<!-- Entity18&#45;&gt;Entity53 -->
<g id="edge58" class="edge verb">
<title>Entity18&#45;&gt;Entity53</title>
<path fill="none" stroke="black" d="M1016.09,-3221.61C1067.92,-3170.45 1217.96,-3022.36 1275.89,-2965.18"/>
<polygon fill="black" stroke="black" points="1278.46,-2967.56 1283.12,-2958.04 1273.54,-2962.57 1278.46,-2967.56"/>
<text text-anchor="start" x="1135.99" y="-3097.19" font-family="Times New Roman,serif" font-size="14.00">is</text>
</g>
<!-- Entity26 -->
<g id="node11" class="node entity">
<title>Entity26</title>
<ellipse fill="none" stroke="black" cx="145.95" cy="-2752.21" rx="53.89" ry="18"/>
<text text-anchor="start" x="112.45" y="-2748.51" font-family="Times New Roman,serif" font-size="14.00">edgar casey</text>
</g>
<!-- Entity27 -->
<g id="node12" class="node entity">
<title>Entity27</title>
<ellipse fill="none" stroke="black" cx="689.06" cy="-2904.68" rx="71.49" ry="18"/>
<text text-anchor="start" x="642.06" y="-2900.98" font-family="Times New Roman,serif" font-size="14.00">woodrow wilson</text>
</g>
<!-- Entity26&#45;&gt;Entity27 -->
<g id="edge8" class="edge verb">
<title>Entity26&#45;&gt;Entity27</title>
<path fill="none" stroke="black" d="M187.66,-2763.92C283.77,-2790.9 520.96,-2857.49 631.12,-2888.41"/>
<polygon fill="black" stroke="black" points="630.48,-2891.87 641.05,-2891.2 632.37,-2885.13 630.48,-2891.87"/>
<text text-anchor="start" x="373.39" y="-2829.97" font-family="Times New Roman,serif" font-size="14.00">advise</text>
</g>
<!-- Entity27&#45;&gt;Entity53 -->
<g id="edge38" class="edge verb">
<title>Entity27&#45;&gt;Entity53</title>
<path fill="none" stroke="black" d="M758.74,-2908.97C886.59,-2916.85 1154.94,-2933.39 1257.78,-2939.72"/>
<polygon fill="black" stroke="black" points="1257.58,-2943.22 1267.78,-2940.34 1258.02,-2936.23 1257.58,-2943.22"/>
<text text-anchor="start" x="998.26" y="-2928.15" font-family="Times New Roman,serif" font-size="14.00">is</text>
</g>
<!-- Entity58 -->
<g id="node59" class="node entity">
<title>Entity58</title>
<ellipse fill="none" stroke="black" cx="71.28" cy="-3002.47" rx="71.49" ry="18"/>
<text text-anchor="start" x="24.28" y="-2998.77" font-family="Times New Roman,serif" font-size="14.00">leauge of nations</text>
</g>
<!-- Entity27&#45;&gt;Entity58 -->
<g id="edge65" class="edge verb">
<title>Entity27&#45;&gt;Entity58</title>
<path fill="none" stroke="black" d="M628.42,-2914.28C513.39,-2932.49 264.11,-2971.95 141.82,-2991.31"/>
<polygon fill="black" stroke="black" points="141.15,-2987.87 131.82,-2992.89 142.24,-2994.79 141.15,-2987.87"/>
<text text-anchor="start" x="351.12" y="-2956.59" font-family="Times New Roman,serif" font-size="14.00">create</text>
</g>
<!-- Entity25 -->
<g id="node13" class="node entity">
<title>Entity25</title>
<ellipse fill="none" stroke="black" cx="891.03" cy="-4183.3" rx="58.49" ry="18"/>
<text text-anchor="start" x="854.03" y="-4179.6" font-family="Times New Roman,serif" font-size="14.00">steve bannon</text>
</g>
<!-- Entity8 -->
<g id="node14" class="node entity">
<title>Entity8</title>
<ellipse fill="none" stroke="black" cx="1332.55" cy="-3581.68" rx="59.59" ry="18"/>
<text text-anchor="start" x="1294.55" y="-3577.98" font-family="Times New Roman,serif" font-size="14.00">donald trump</text>
</g>
<!-- Entity25&#45;&gt;Entity8 -->
<g id="edge9" class="edge verb">
<title>Entity25&#45;&gt;Entity8</title>
<path fill="none" stroke="black" d="M907.04,-4165.82C976.26,-4080.74 1248.1,-3710.52 1316.8,-3608.03"/>
<polygon fill="black" stroke="black" points="1319.85,-3609.77 1322.46,-3599.5 1314.02,-3605.9 1319.85,-3609.77"/>
<text text-anchor="start" x="1063.92" y="-3890.73" font-family="Times New Roman,serif" font-size="14.00">promote</text>
</g>
<!-- Entity25&#45;&gt;Entity8 -->
<g id="edge14" class="edge verb">
<title>Entity25&#45;&gt;Entity8</title>
<path fill="none" stroke="black" d="M901.13,-4165.48C957.32,-4079.47 1229.7,-3707.98 1310.2,-3607.04"/>
<polygon fill="black" stroke="black" points="1312.98,-3609.17 1316.52,-3599.18 1307.53,-3604.78 1312.98,-3609.17"/>
<text text-anchor="start" x="1069.66" y="-3875.06" font-family="Times New Roman,serif" font-size="14.00">advise</text>
</g>
<!-- Entity76 -->
<g id="node38" class="node entity">
<title>Entity76</title>
<ellipse fill="none" stroke="black" cx="341.48" cy="-4458.06" rx="77.19" ry="18"/>
<text text-anchor="start" x="289.98" y="-4454.36" font-family="Times New Roman,serif" font-size="14.00">hollywood movies</text>
</g>
<!-- Entity25&#45;&gt;Entity76 -->
<g id="edge30" class="edge verb">
<title>Entity25&#45;&gt;Entity76</title>
<path fill="none" stroke="black" d="M860.3,-4198.66C767.49,-4245.07 489.86,-4383.87 383.54,-4437.03"/>
<polygon fill="black" stroke="black" points="381.77,-4434 374.39,-4441.6 384.9,-4440.26 381.77,-4434"/>
<text text-anchor="start" x="574.92" y="-4321.65" font-family="Times New Roman,serif" font-size="14.00">produce</text>
</g>
<!-- Entity64 -->
<g id="node46" class="node entity">
<title>Entity64</title>
<ellipse fill="none" stroke="black" cx="980.83" cy="-4613.78" rx="38.19" ry="18"/>
<text text-anchor="start" x="959.33" y="-4610.08" font-family="Times New Roman,serif" font-size="14.00">us navy</text>
</g>
<!-- Entity25&#45;&gt;Entity64 -->
<g id="edge39" class="edge verb">
<title>Entity25&#45;&gt;Entity64</title>
<path fill="none" stroke="black" d="M894.83,-4201.52C908.89,-4268.91 957.99,-4504.31 974.99,-4585.78"/>
<polygon fill="black" stroke="black" points="971.61,-4586.71 977.08,-4595.79 978.46,-4585.28 971.61,-4586.71"/>
<text text-anchor="start" x="888.91" y="-4397.45" font-family="Times New Roman,serif" font-size="14.00">member</text>
</g>
<!-- Entity77 -->
<g id="node49" class="node entity">
<title>Entity77</title>
<ellipse fill="none" stroke="black" cx="507.24" cy="-4593.37" rx="64.99" ry="18"/>
<text text-anchor="start" x="465.24" y="-4589.67" font-family="Times New Roman,serif" font-size="14.00">goldman sachs</text>
</g>
<!-- Entity25&#45;&gt;Entity77 -->
<g id="edge44" class="edge verb">
<title>Entity25&#45;&gt;Entity77</title>
<path fill="none" stroke="black" d="M874.78,-4200.66C814.35,-4265.23 602.37,-4491.73 530.94,-4568.05"/>
<polygon fill="black" stroke="black" points="527.99,-4566.09 523.71,-4575.78 533.1,-4570.87 527.99,-4566.09"/>
<text text-anchor="start" x="648.86" y="-4388.16" font-family="Times New Roman,serif" font-size="14.00">employee</text>
</g>
<!-- Entity63 -->
<g id="node51" class="node entity">
<title>Entity63</title>
<ellipse fill="none" stroke="black" cx="705.94" cy="-4701.37" rx="53.09" ry="18"/>
<text text-anchor="start" x="672.94" y="-4697.67" font-family="Times New Roman,serif" font-size="14.00">biosphere 2</text>
</g>
<!-- Entity25&#45;&gt;Entity63 -->
<g id="edge49" class="edge verb">
<title>Entity25&#45;&gt;Entity63</title>
<path fill="none" stroke="black" d="M884.55,-4201.44C856.95,-4278.68 749.09,-4580.59 715.79,-4673.8"/>
<polygon fill="black" stroke="black" points="712.43,-4672.79 712.37,-4683.38 719.03,-4675.14 712.43,-4672.79"/>
<text text-anchor="start" x="766.17" y="-4441.42" font-family="Times New Roman,serif" font-size="14.00">create</text>
</g>
<!-- Entity65 -->
<g id="node53" class="node entity">
<title>Entity65</title>
<ellipse fill="none" stroke="black" cx="1251.02" cy="-4504.77" rx="61.99" ry="18"/>
<text text-anchor="start" x="1211.52" y="-4501.07" font-family="Times New Roman,serif" font-size="14.00">breitbart news</text>
</g>
<!-- Entity25&#45;&gt;Entity65 -->
<g id="edge55" class="edge verb">
<title>Entity25&#45;&gt;Entity65</title>
<path fill="none" stroke="black" d="M910.13,-4200.36C970.03,-4253.85 1154.36,-4418.45 1224,-4480.64"/>
<polygon fill="black" stroke="black" points="1221.74,-4483.31 1231.53,-4487.36 1226.4,-4478.09 1221.74,-4483.31"/>
<text text-anchor="start" x="1033.06" y="-4344.3" font-family="Times New Roman,serif" font-size="14.00">create</text>
</g>
<!-- Entity61 -->
<g id="node58" class="node entity">
<title>Entity61</title>
<ellipse fill="none" stroke="black" cx="461.43" cy="-4268.16" rx="35.19" ry="18"/>
<text text-anchor="start" x="442.43" y="-4264.46" font-family="Times New Roman,serif" font-size="14.00">gurgev</text>
</g>
<!-- Entity25&#45;&gt;Entity61 -->
<g id="edge64" class="edge verb">
<title>Entity25&#45;&gt;Entity61</title>
<path fill="none" stroke="black" d="M841.75,-4193.04C756.95,-4209.78 584.85,-4243.78 504.53,-4259.65"/>
<polygon fill="black" stroke="black" points="503.41,-4256.3 494.28,-4261.67 504.77,-4263.17 503.41,-4256.3"/>
<text text-anchor="start" x="642.14" y="-4230.14" font-family="Times New Roman,serif" font-size="14.00">study</text>
</g>
<!-- Entity30 -->
<g id="node18" class="node entity">
<title>Entity30</title>
<ellipse fill="none" stroke="black" cx="1980.55" cy="-3640.01" rx="50.09" ry="18"/>
<text text-anchor="start" x="1950.05" y="-3636.31" font-family="Times New Roman,serif" font-size="14.00">john trump</text>
</g>
<!-- Entity8&#45;&gt;Entity30 -->
<g id="edge13" class="edge verb">
<title>Entity8&#45;&gt;Entity30</title>
<path fill="none" stroke="black" d="M1390.06,-3586.86C1512.53,-3597.88 1797.99,-3623.58 1921.67,-3634.71"/>
<polygon fill="black" stroke="black" points="1921.43,-3638.2 1931.71,-3635.62 1922.06,-3631.23 1921.43,-3638.2"/>
<text text-anchor="start" x="1612.86" y="-3614.58" font-family="Times New Roman,serif" font-size="14.00">nephew</text>
</g>
<!-- Entity8&#45;&gt;Entity53 -->
<g id="edge26" class="edge verb">
<title>Entity8&#45;&gt;Entity53</title>
<path fill="none" stroke="black" d="M1331.61,-3563.57C1326.93,-3474.27 1306.34,-3080.63 1300.59,-2970.81"/>
<polygon fill="black" stroke="black" points="1304.07,-2970.32 1300.06,-2960.52 1297.08,-2970.69 1304.07,-2970.32"/>
<text text-anchor="start" x="1306.1" y="-3270.99" font-family="Times New Roman,serif" font-size="14.00">is</text>
</g>
<!-- Entity16 -->
<g id="node15" class="node entity">
<title>Entity16</title>
<ellipse fill="none" stroke="black" cx="3625.57" cy="-3230.05" rx="63.89" ry="18"/>
<text text-anchor="start" x="3584.57" y="-3226.35" font-family="Times New Roman,serif" font-size="14.00">robert bigelow</text>
</g>
<!-- Entity16&#45;&gt;Entity6 -->
<g id="edge10" class="edge verb">
<title>Entity16&#45;&gt;Entity6</title>
<path fill="none" stroke="black" d="M3648.54,-3213.17C3673.41,-3194.89 3713.26,-3165.61 3741.05,-3145.19"/>
<polygon fill="black" stroke="black" points="3743.27,-3147.9 3749.26,-3139.16 3739.13,-3142.26 3743.27,-3147.9"/>
<text text-anchor="start" x="3662.8" y="-3182.98" font-family="Times New Roman,serif" font-size="14.00">funds</text>
</g>
<!-- Entity16&#45;&gt;Entity55 -->
<g id="edge50" class="edge verb">
<title>Entity16&#45;&gt;Entity55</title>
<path fill="none" stroke="black" d="M3592.22,-3245.51C3512.39,-3282.51 3310.35,-3376.18 3220.81,-3417.68"/>
<polygon fill="black" stroke="black" points="3219.33,-3414.51 3211.73,-3421.89 3222.28,-3420.86 3219.33,-3414.51"/>
<text text-anchor="start" x="3342.51" y="-3335.4" font-family="Times New Roman,serif" font-size="14.00">investigates</text>
</g>
<!-- Entity34 -->
<g id="node16" class="node entity">
<title>Entity34</title>
<ellipse fill="none" stroke="black" cx="1055.32" cy="-1406.42" rx="90.98" ry="18"/>
<text text-anchor="start" x="993.32" y="-1402.72" font-family="Times New Roman,serif" font-size="14.00">emma hardinge&#45;britten</text>
</g>
<!-- Entity38 -->
<g id="node17" class="node entity">
<title>Entity38</title>
<ellipse fill="none" stroke="black" cx="1183.64" cy="-2269.66" rx="67.69" ry="18"/>
<text text-anchor="start" x="1139.64" y="-2265.96" font-family="Times New Roman,serif" font-size="14.00">abraham lincoln</text>
</g>
<!-- Entity34&#45;&gt;Entity38 -->
<g id="edge11" class="edge verb">
<title>Entity34&#45;&gt;Entity38</title>
<path fill="none" stroke="black" d="M1058,-1424.45C1074.25,-1533.71 1159.46,-2106.99 1179.44,-2241.43"/>
<polygon fill="black" stroke="black" points="1175.99,-2241.99 1180.92,-2251.37 1182.91,-2240.96 1175.99,-2241.99"/>
<text text-anchor="start" x="1039.72" y="-1836.74" font-family="Times New Roman,serif" font-size="14.00">spokesperson</text>
</g>
<!-- Entity59 -->
<g id="node37" class="node entity">
<title>Entity59</title>
<ellipse fill="none" stroke="black" cx="1059.94" cy="-1298.34" rx="85.29" ry="18"/>
<text text-anchor="start" x="1002.44" y="-1294.64" font-family="Times New Roman,serif" font-size="14.00">theosophical society</text>
</g>
<!-- Entity34&#45;&gt;Entity59 -->
<g id="edge40" class="edge verb">
<title>Entity34&#45;&gt;Entity59</title>
<path fill="none" stroke="black" d="M1056.11,-1388.08C1056.83,-1371.21 1057.91,-1345.94 1058.74,-1326.51"/>
<polygon fill="black" stroke="black" points="1062.24,-1326.54 1059.17,-1316.4 1055.25,-1326.25 1062.24,-1326.54"/>
<text text-anchor="start" x="1023.42" y="-1361.1" font-family="Times New Roman,serif" font-size="14.00">create</text>
</g>
<!-- Entity68 -->
<g id="node50" class="node entity">
<title>Entity68</title>
<ellipse fill="none" stroke="black" cx="584.96" cy="-1093.26" rx="39.79" ry="18"/>
<text text-anchor="start" x="562.46" y="-1089.56" font-family="Times New Roman,serif" font-size="14.00">medium</text>
</g>
<!-- Entity34&#45;&gt;Entity68 -->
<g id="edge46" class="edge verb">
<title>Entity34&#45;&gt;Entity68</title>
<path fill="none" stroke="black" d="M1029.37,-1389.13C948.74,-1335.46 702.87,-1171.76 615.86,-1113.84"/>
<polygon fill="black" stroke="black" points="617.74,-1110.88 607.48,-1108.25 613.86,-1116.71 617.74,-1110.88"/>
<text text-anchor="start" x="812.61" y="-1255.29" font-family="Times New Roman,serif" font-size="14.00">is</text>
</g>
<!-- Entity69 -->
<g id="node60" class="node entity">
<title>Entity69</title>
<ellipse fill="none" stroke="black" cx="740.61" cy="-878.25" rx="55.79" ry="18"/>
<text text-anchor="start" x="705.61" y="-874.55" font-family="Times New Roman,serif" font-size="14.00">orphic circle</text>
</g>
<!-- Entity34&#45;&gt;Entity69 -->
<g id="edge66" class="edge verb">
<title>Entity34&#45;&gt;Entity69</title>
<path fill="none" stroke="black" d="M1044.49,-1388.24C997.62,-1309.58 812.19,-998.38 756.5,-904.92"/>
<polygon fill="black" stroke="black" points="759.36,-902.88 751.24,-896.08 753.35,-906.47 759.36,-902.88"/>
<text text-anchor="start" x="854.5" y="-1150.38" font-family="Times New Roman,serif" font-size="14.00">member</text>
</g>
<!-- Entity38&#45;&gt;Entity53 -->
<g id="edge51" class="edge verb">
<title>Entity38&#45;&gt;Entity53</title>
<path fill="none" stroke="black" d="M1186.73,-2287.65C1202.59,-2380.04 1274.88,-2801.2 1294.29,-2914.26"/>
<polygon fill="black" stroke="black" points="1290.86,-2914.96 1296,-2924.22 1297.76,-2913.77 1290.86,-2914.96"/>
<text text-anchor="start" x="1230.51" y="-2604.76" font-family="Times New Roman,serif" font-size="14.00">is</text>
</g>
<!-- Entity17 -->
<g id="node19" class="node entity">
<title>Entity17</title>
<ellipse fill="none" stroke="black" cx="2483.4" cy="-3483.13" rx="27" ry="18"/>
<text text-anchor="start" x="2475.4" y="-3479.43" font-family="Times New Roman,serif" font-size="14.00">cia</text>
</g>
<!-- Entity30&#45;&gt;Entity17 -->
<g id="edge12" class="edge verb">
<title>Entity30&#45;&gt;Entity17</title>
<path fill="none" stroke="black" d="M2018.76,-3628.09C2113.54,-3598.52 2358.35,-3522.14 2448.99,-3493.87"/>
<polygon fill="black" stroke="black" points="2450.26,-3497.14 2458.76,-3490.82 2448.17,-3490.46 2450.26,-3497.14"/>
<text text-anchor="start" x="2187.87" y="-3564.78" font-family="Times New Roman,serif" font-size="14.00">member</text>
</g>
<!-- Entity67 -->
<g id="node47" class="node entity">
<title>Entity67</title>
<ellipse fill="none" stroke="black" cx="2104.4" cy="-4084.6" rx="50.89" ry="18"/>
<text text-anchor="start" x="2073.4" y="-4080.9" font-family="Times New Roman,serif" font-size="14.00">nikola tesla</text>
</g>
<!-- Entity30&#45;&gt;Entity67 -->
<g id="edge41" class="edge verb">
<title>Entity30&#45;&gt;Entity67</title>
<path fill="none" stroke="black" d="M1985.56,-3657.99C2004.7,-3726.69 2073.3,-3972.96 2096.59,-4056.59"/>
<polygon fill="black" stroke="black" points="2093.27,-4057.7 2099.33,-4066.4 2100.02,-4055.82 2093.27,-4057.7"/>
<text text-anchor="start" x="2010.08" y="-3861.09" font-family="Times New Roman,serif" font-size="14.00">study</text>
</g>
<!-- Entity17&#45;&gt;Entity55 -->
<g id="edge27" class="edge verb">
<title>Entity17&#45;&gt;Entity55</title>
<path fill="none" stroke="black" d="M2510.58,-3481.37C2607.01,-3475.09 2935.27,-3453.74 3092.12,-3443.54"/>
<polygon fill="black" stroke="black" points="3092.45,-3447.03 3102.2,-3442.89 3092,-3440.04 3092.45,-3447.03"/>
<text text-anchor="start" x="2737.35" y="-3466.25" font-family="Times New Roman,serif" font-size="14.00">investigates</text>
</g>
<!-- Entity54 -->
<g id="node52" class="node entity">
<title>Entity54</title>
<ellipse fill="none" stroke="black" cx="2110.16" cy="-3316.72" rx="27" ry="18"/>
<text text-anchor="start" x="2100.66" y="-3313.02" font-family="Times New Roman,serif" font-size="14.00">ufo</text>
</g>
<!-- Entity17&#45;&gt;Entity54 -->
<g id="edge54" class="edge verb">
<title>Entity17&#45;&gt;Entity54</title>
<path fill="none" stroke="black" d="M2460.89,-3473.1C2397.24,-3444.72 2215.77,-3363.81 2141.96,-3330.9"/>
<polygon fill="black" stroke="black" points="2143.25,-3327.64 2132.69,-3326.77 2140.4,-3334.04 2143.25,-3327.64"/>
<text text-anchor="start" x="2237.43" y="-3405.8" font-family="Times New Roman,serif" font-size="14.00">investigates</text>
</g>
<!-- Entity46 -->
<g id="node20" class="node entity">
<title>Entity46</title>
<ellipse fill="none" stroke="black" cx="5614.98" cy="-3397.23" rx="46.29" ry="18"/>
<text text-anchor="start" x="5587.48" y="-3393.53" font-family="Times New Roman,serif" font-size="14.00">van braun</text>
</g>
<!-- Entity37 -->
<g id="node21" class="node entity">
<title>Entity37</title>
<ellipse fill="none" stroke="black" cx="5100.9" cy="-3227.56" rx="74.99" ry="18"/>
<text text-anchor="start" x="5051.4" y="-3223.86" font-family="Times New Roman,serif" font-size="14.00">walter dornberger</text>
</g>
<!-- Entity46&#45;&gt;Entity37 -->
<g id="edge15" class="edge verb">
<title>Entity46&#45;&gt;Entity37</title>
<path fill="none" stroke="black" d="M5579.64,-3385.57C5491.3,-3356.41 5260.38,-3280.2 5154.88,-3245.38"/>
<polygon fill="black" stroke="black" points="5155.67,-3241.95 5145.07,-3242.14 5153.47,-3248.6 5155.67,-3241.95"/>
<text text-anchor="start" x="5313.26" y="-3319.27" font-family="Times New Roman,serif" font-size="14.00">employee</text>
</g>
<!-- Entity72 -->
<g id="node48" class="node entity">
<title>Entity72</title>
<ellipse fill="none" stroke="black" cx="5732.19" cy="-2941.56" rx="90.98" ry="18"/>
<text text-anchor="start" x="5670.19" y="-2937.86" font-family="Times New Roman,serif" font-size="14.00">nsdap rocket program</text>
</g>
<!-- Entity46&#45;&gt;Entity72 -->
<g id="edge45" class="edge verb">
<title>Entity46&#45;&gt;Entity72</title>
<path fill="none" stroke="black" d="M5619.65,-3379.09C5637.71,-3308.86 5703.12,-3054.55 5725,-2969.49"/>
<polygon fill="black" stroke="black" points="5728.4,-2970.32 5727.5,-2959.76 5721.62,-2968.57 5728.4,-2970.32"/>
<text text-anchor="start" x="5618.32" y="-3163.09" font-family="Times New Roman,serif" font-size="14.00">employee</text>
</g>
<!-- Entity51 -->
<g id="node25" class="node entity">
<title>Entity51</title>
<ellipse fill="none" stroke="black" cx="4532.84" cy="-3346.79" rx="32.49" ry="18"/>
<text text-anchor="start" x="4515.84" y="-3343.09" font-family="Times New Roman,serif" font-size="14.00">nsdap</text>
</g>
<!-- Entity37&#45;&gt;Entity51 -->
<g id="edge18" class="edge verb">
<title>Entity37&#45;&gt;Entity51</title>
<path fill="none" stroke="black" d="M5044.36,-3239.43C4929.84,-3263.46 4672.95,-3317.38 4573.37,-3338.28"/>
<polygon fill="black" stroke="black" points="4572.47,-3334.9 4563.4,-3340.38 4573.91,-3341.75 4572.47,-3334.9"/>
<text text-anchor="start" x="4762.86" y="-3292.66" font-family="Times New Roman,serif" font-size="14.00">member</text>
</g>
<!-- Entity37&#45;&gt;Entity56 -->
<g id="edge32" class="edge verb">
<title>Entity37&#45;&gt;Entity56</title>
<path fill="none" stroke="black" d="M5027.23,-3224.28C4916.69,-3223.73 4709.92,-3227.97 4606.64,-3233"/>
<polygon fill="black" stroke="black" points="4606.19,-3229.52 4596.38,-3233.52 4606.54,-3236.51 4606.19,-3229.52"/>
<text text-anchor="start" x="4762.93" y="-3232.44" font-family="Times New Roman,serif" font-size="14.00">employee</text>
</g>
<!-- Entity37&#45;&gt;Entity56 -->
<g id="edge42" class="edge verb">
<title>Entity37&#45;&gt;Entity56</title>
<path fill="none" stroke="black" d="M5030.54,-3233.64C4921.39,-3238.66 4712.92,-3242.77 4608.11,-3241.9"/>
<polygon fill="black" stroke="black" points="4608.03,-3238.4 4598,-3241.8 4607.96,-3245.4 4608.03,-3238.4"/>
<text text-anchor="start" x="4819.33" y="-3241.57" font-family="Times New Roman,serif" font-size="14.00">vice&#45;president</text>
</g>
<!-- Entity37&#45;&gt;Entity72 -->
<g id="edge43" class="edge verb">
<title>Entity37&#45;&gt;Entity72</title>
<path fill="none" stroke="black" d="M5136.2,-3211.57C5243.51,-3162.95 5565.94,-3016.88 5686.25,-2962.37"/>
<polygon fill="black" stroke="black" points="5687.91,-2965.47 5695.57,-2958.15 5685.02,-2959.09 5687.91,-2965.47"/>
<text text-anchor="start" x="5377.22" y="-3090.77" font-family="Times New Roman,serif" font-size="14.00">create</text>
</g>
<!-- Entity73 -->
<g id="node61" class="node entity">
<title>Entity73</title>
<ellipse fill="none" stroke="black" cx="5710.61" cy="-3190.74" rx="65.79" ry="18"/>
<text text-anchor="start" x="5668.11" y="-3187.04" font-family="Times New Roman,serif" font-size="14.00">x series aircraft</text>
</g>
<!-- Entity37&#45;&gt;Entity73 -->
<g id="edge67" class="edge verb">
<title>Entity37&#45;&gt;Entity73</title>
<path fill="none" stroke="black" d="M5173.54,-3223.18C5290.28,-3216.12 5518.48,-3202.34 5636.29,-3195.23"/>
<polygon fill="black" stroke="black" points="5636.53,-3198.72 5646.3,-3194.62 5636.11,-3191.73 5636.53,-3198.72"/>
<text text-anchor="start" x="5370.91" y="-3213" font-family="Times New Roman,serif" font-size="14.00">create</text>
</g>
<!-- Entity50 -->
<g id="node22" class="node entity">
<title>Entity50</title>
<ellipse fill="none" stroke="black" cx="1670.44" cy="-2468.89" rx="37.89" ry="18"/>
<text text-anchor="start" x="1649.44" y="-2465.19" font-family="Times New Roman,serif" font-size="14.00">hunt oil</text>
</g>
<!-- Entity48 -->
<g id="node23" class="node entity">
<title>Entity48</title>
<ellipse fill="none" stroke="black" cx="1601.37" cy="-2576.89" rx="77.99" ry="18"/>
<text text-anchor="start" x="1549.37" y="-2573.19" font-family="Times New Roman,serif" font-size="14.00">dwight eisenhower</text>
</g>
<!-- Entity50&#45;&gt;Entity48 -->
<g id="edge16" class="edge verb">
<title>Entity50&#45;&gt;Entity48</title>
<path fill="none" stroke="black" d="M1659.34,-2486.24C1648.3,-2503.51 1631.2,-2530.25 1618.43,-2550.22"/>
<polygon fill="black" stroke="black" points="1615.34,-2548.55 1612.9,-2558.86 1621.24,-2552.32 1615.34,-2548.55"/>
<text text-anchor="start" x="1612.88" y="-2522.03" font-family="Times New Roman,serif" font-size="14.00">fund</text>
</g>
<!-- Entity48&#45;&gt;Entity53 -->
<g id="edge52" class="edge verb">
<title>Entity48&#45;&gt;Entity53</title>
<path fill="none" stroke="black" d="M1586.59,-2594.76C1536.93,-2654.79 1376.04,-2849.27 1319.21,-2917.96"/>
<polygon fill="black" stroke="black" points="1316.48,-2915.76 1312.81,-2925.7 1321.88,-2920.22 1316.48,-2915.76"/>
<text text-anchor="start" x="1442.9" y="-2760.16" font-family="Times New Roman,serif" font-size="14.00">is</text>
</g>
<!-- Entity49 -->
<g id="node24" class="node entity">
<title>Entity49</title>
<ellipse fill="none" stroke="black" cx="4902.07" cy="-3540.27" rx="49.29" ry="18"/>
<text text-anchor="start" x="4872.07" y="-3536.57" font-family="Times New Roman,serif" font-size="14.00">adolf hitler</text>
</g>
<!-- Entity49&#45;&gt;Entity51 -->
<g id="edge17" class="edge verb">
<title>Entity49&#45;&gt;Entity51</title>
<path fill="none" stroke="black" d="M4873.71,-3525.41C4806.48,-3490.18 4637.7,-3401.74 4565.95,-3364.14"/>
<polygon fill="black" stroke="black" points="4567.37,-3360.93 4556.89,-3359.39 4564.12,-3367.13 4567.37,-3360.93"/>
<text text-anchor="start" x="4685.83" y="-3448.57" font-family="Times New Roman,serif" font-size="14.00">create</text>
</g>
<!-- Entity74 -->
<g id="node41" class="node entity">
<title>Entity74</title>
<ellipse fill="none" stroke="black" cx="4031.97" cy="-3229.92" rx="38.99" ry="18"/>
<text text-anchor="start" x="4009.97" y="-3226.22" font-family="Times New Roman,serif" font-size="14.00">far right</text>
</g>
<!-- Entity51&#45;&gt;Entity74 -->
<g id="edge47" class="edge verb">
<title>Entity51&#45;&gt;Entity74</title>
<path fill="none" stroke="black" d="M4502.64,-3339.74C4417.78,-3319.94 4176.89,-3263.74 4076.62,-3240.34"/>
<polygon fill="black" stroke="black" points="4077.33,-3236.91 4066.8,-3238.05 4075.74,-3243.73 4077.33,-3236.91"/>
<text text-anchor="start" x="4243.63" y="-3293.84" font-family="Times New Roman,serif" font-size="14.00">member</text>
</g>
<!-- Entity40 -->
<g id="node26" class="node entity">
<title>Entity40</title>
<ellipse fill="none" stroke="black" cx="5022.2" cy="-3119.62" rx="57.69" ry="18"/>
<text text-anchor="start" x="4985.7" y="-3115.92" font-family="Times New Roman,serif" font-size="14.00">michael pane</text>
</g>
<!-- Entity40&#45;&gt;Entity37 -->
<g id="edge19" class="edge verb">
<title>Entity40&#45;&gt;Entity37</title>
<path fill="none" stroke="black" d="M5035.2,-3137.45C5047.9,-3154.87 5067.38,-3181.59 5081.84,-3201.42"/>
<polygon fill="black" stroke="black" points="5079.17,-3203.69 5087.89,-3209.71 5084.82,-3199.57 5079.17,-3203.69"/>
<text text-anchor="start" x="5004.52" y="-3173.23" font-family="Times New Roman,serif" font-size="14.00">employee</text>
</g>
<!-- Entity40&#45;&gt;Entity56 -->
<g id="edge62" class="edge verb">
<title>Entity40&#45;&gt;Entity56</title>
<path fill="none" stroke="black" d="M4976.84,-3130.93C4888.22,-3153.03 4692.49,-3201.83 4597.89,-3225.41"/>
<polygon fill="black" stroke="black" points="4596.81,-3222.07 4587.96,-3227.89 4598.51,-3228.86 4596.81,-3222.07"/>
<text text-anchor="start" x="4733.37" y="-3181.97" font-family="Times New Roman,serif" font-size="14.00">employee</text>
</g>
<!-- Entity45&#45;&gt;Entity74 -->
<g id="edge33" class="edge verb">
<title>Entity45&#45;&gt;Entity74</title>
<path fill="none" stroke="black" d="M3438.01,-3093.72C3557.57,-3121.14 3870.08,-3192.8 3986.98,-3219.61"/>
<polygon fill="black" stroke="black" points="3986.49,-3223.09 3997.02,-3221.91 3988.05,-3216.26 3986.49,-3223.09"/>
<text text-anchor="start" x="3666.49" y="-3160.46" font-family="Times New Roman,serif" font-size="14.00">member</text>
</g>
<!-- Entity79 -->
<g id="node30" class="node entity">
<title>Entity79</title>
<ellipse fill="none" stroke="black" cx="2250.94" cy="-2519.66" rx="27" ry="18"/>
<text text-anchor="start" x="2240.94" y="-2515.96" font-family="Times New Roman,serif" font-size="14.00">foo</text>
</g>
<!-- Entity80 -->
<g id="node31" class="node entity">
<title>Entity80</title>
<ellipse fill="none" stroke="black" cx="2338.66" cy="-2631.64" rx="27" ry="18"/>
<text text-anchor="start" x="2328.66" y="-2627.94" font-family="Times New Roman,serif" font-size="14.00">baz</text>
</g>
<!-- Entity79&#45;&gt;Entity80 -->
<g id="edge23" class="edge verb">
<title>Entity79&#45;&gt;Entity80</title>
<path fill="none" stroke="black" d="M2263.51,-2535.7C2278.23,-2554.5 2302.76,-2585.82 2319.78,-2607.53"/>
<polygon fill="black" stroke="black" points="2317.19,-2609.91 2326.11,-2615.62 2322.7,-2605.59 2317.19,-2609.91"/>
<text text-anchor="start" x="2271.64" y="-2575.42" font-family="Times New Roman,serif" font-size="14.00">baz</text>
</g>
<!-- Entity10 -->
<g id="node32" class="node entity">
<title>Entity10</title>
<ellipse fill="none" stroke="black" cx="895.53" cy="-2655.19" rx="56.59" ry="18"/>
<text text-anchor="start" x="860.03" y="-2651.49" font-family="Times New Roman,serif" font-size="14.00">harry truman</text>
</g>
<!-- Entity10&#45;&gt;Entity53 -->
<g id="edge24" class="edge verb">
<title>Entity10&#45;&gt;Entity53</title>
<path fill="none" stroke="black" d="M918.68,-2671.66C988.21,-2721.12 1195.07,-2868.27 1270.86,-2922.18"/>
<polygon fill="black" stroke="black" points="1269.26,-2925.34 1279.44,-2928.28 1273.32,-2919.63 1269.26,-2925.34"/>
<text text-anchor="start" x="1084.77" y="-2800.72" font-family="Times New Roman,serif" font-size="14.00">is</text>
</g>
<!-- Entity57 -->
<g id="node43" class="node entity">
<title>Entity57</title>
<ellipse fill="none" stroke="black" cx="467.06" cy="-2364.54" rx="55.79" ry="18"/>
<text text-anchor="start" x="432.06" y="-2360.84" font-family="Times New Roman,serif" font-size="14.00">freemasonry</text>
</g>
<!-- Entity10&#45;&gt;Entity57 -->
<g id="edge35" class="edge verb">
<title>Entity10&#45;&gt;Entity57</title>
<path fill="none" stroke="black" d="M871.27,-2638.73C798.5,-2589.37 582.07,-2442.56 499.54,-2386.57"/>
<polygon fill="black" stroke="black" points="501.3,-2383.54 491.06,-2380.82 497.37,-2389.33 501.3,-2383.54"/>
<text text-anchor="start" x="639.4" y="-2516.45" font-family="Times New Roman,serif" font-size="14.00">member</text>
</g>
<!-- Entity13 -->
<g id="node33" class="node entity">
<title>Entity13</title>
<ellipse fill="none" stroke="black" cx="884.42" cy="-3012.64" rx="58.49" ry="18"/>
<text text-anchor="start" x="847.42" y="-3008.94" font-family="Times New Roman,serif" font-size="14.00">richard nixon</text>
</g>
<!-- Entity13&#45;&gt;Entity53 -->
<g id="edge25" class="edge verb">
<title>Entity13&#45;&gt;Entity53</title>
<path fill="none" stroke="black" d="M935.69,-3003.94C1019.3,-2989.75 1183.28,-2961.92 1259.01,-2949.07"/>
<polygon fill="black" stroke="black" points="1259.82,-2952.48 1269.1,-2947.36 1258.65,-2945.58 1259.82,-2952.48"/>
<text text-anchor="start" x="1087.35" y="-2980.31" font-family="Times New Roman,serif" font-size="14.00">is</text>
</g>
<!-- Entity22 -->
<g id="node35" class="node entity">
<title>Entity22</title>
<ellipse fill="none" stroke="black" cx="874.18" cy="-643.79" rx="58.49" ry="18"/>
<text text-anchor="start" x="837.18" y="-640.09" font-family="Times New Roman,serif" font-size="14.00">rudolf steiner</text>
</g>
<!-- Entity60 -->
<g id="node36" class="node entity">
<title>Entity60</title>
<ellipse fill="none" stroke="black" cx="658.44" cy="-17.55" rx="102.08" ry="18"/>
<text text-anchor="start" x="587.94" y="-13.85" font-family="Times New Roman,serif" font-size="14.00">anthroposophical society</text>
</g>
<!-- Entity22&#45;&gt;Entity60 -->
<g id="edge28" class="edge verb">
<title>Entity22&#45;&gt;Entity60</title>
<path fill="none" stroke="black" d="M867.96,-625.73C837.57,-537.52 704.79,-152.09 667.95,-45.15"/>
<polygon fill="black" stroke="black" points="671.26,-44.01 664.69,-35.69 664.64,-46.29 671.26,-44.01"/>
<text text-anchor="start" x="733.95" y="-339.24" font-family="Times New Roman,serif" font-size="14.00">create</text>
</g>
<!-- Entity22&#45;&gt;Entity59 -->
<g id="edge29" class="edge verb">
<title>Entity22&#45;&gt;Entity59</title>
<path fill="none" stroke="black" d="M879.34,-661.98C905.2,-753.09 1020.63,-1159.83 1052.04,-1270.48"/>
<polygon fill="black" stroke="black" points="1048.71,-1271.58 1054.81,-1280.24 1055.44,-1269.66 1048.71,-1271.58"/>
<text text-anchor="start" x="919.69" y="-970.03" font-family="Times New Roman,serif" font-size="14.00">member</text>
</g>
<!-- Entity44 -->
<g id="node39" class="node entity">
<title>Entity44</title>
<ellipse fill="none" stroke="black" cx="2833.94" cy="-2519.66" rx="53.89" ry="18"/>
<text text-anchor="start" x="2800.44" y="-2515.96" font-family="Times New Roman,serif" font-size="14.00">black magic</text>
</g>
<!-- Entity71 -->
<g id="node40" class="node entity">
<title>Entity71</title>
<ellipse fill="none" stroke="black" cx="2921.66" cy="-2631.64" rx="28.7" ry="18"/>
<text text-anchor="start" x="2907.66" y="-2627.94" font-family="Times New Roman,serif" font-size="14.00">x left</text>
</g>
<!-- Entity44&#45;&gt;Entity71 -->
<g id="edge31" class="edge verb">
<title>Entity44&#45;&gt;Entity71</title>
<path fill="none" stroke="black" d="M2847.64,-2537.16C2862.45,-2556.05 2886.14,-2586.29 2902.72,-2607.45"/>
<polygon fill="black" stroke="black" points="2899.98,-2609.64 2908.9,-2615.36 2905.49,-2605.32 2899.98,-2609.64"/>
<text text-anchor="start" x="2829.18" y="-2576.11" font-family="Times New Roman,serif" font-size="14.00">member</text>
</g>
<!-- Entity21 -->
<g id="node44" class="node entity">
<title>Entity21</title>
<ellipse fill="none" stroke="black" cx="1170.39" cy="-2630.74" rx="35.19" ry="18"/>
<text text-anchor="start" x="1151.39" y="-2627.04" font-family="Times New Roman,serif" font-size="14.00">obama</text>
</g>
<!-- Entity21&#45;&gt;Entity53 -->
<g id="edge36" class="edge verb">
<title>Entity21&#45;&gt;Entity53</title>
<path fill="none" stroke="black" d="M1177.68,-2648.38C1199.09,-2700.2 1261.9,-2852.23 1287.77,-2914.84"/>
<polygon fill="black" stroke="black" points="1284.68,-2916.53 1291.73,-2924.43 1291.15,-2913.85 1284.68,-2916.53"/>
<text text-anchor="start" x="1222.72" y="-2785.41" font-family="Times New Roman,serif" font-size="14.00">is</text>
</g>
<!-- Entity14 -->
<g id="node45" class="node entity">
<title>Entity14</title>
<ellipse fill="none" stroke="black" cx="1710.44" cy="-3140.98" rx="31.4" ry="18"/>
<text text-anchor="start" x="1694.44" y="-3137.28" font-family="Times New Roman,serif" font-size="14.00">carter</text>
</g>
<!-- Entity14&#45;&gt;Entity53 -->
<g id="edge37" class="edge verb">
<title>Entity14&#45;&gt;Entity53</title>
<path fill="none" stroke="black" d="M1686.24,-3129.29C1616.16,-3095.44 1412.9,-2997.24 1332.45,-2958.38"/>
<polygon fill="black" stroke="black" points="1333.79,-2955.14 1323.26,-2953.94 1330.75,-2961.44 1333.79,-2955.14"/>
<text text-anchor="start" x="1499.35" y="-3047.64" font-family="Times New Roman,serif" font-size="14.00">is</text>
</g>
<!-- Entity14&#45;&gt;Entity54 -->
<g id="edge63" class="edge verb">
<title>Entity14&#45;&gt;Entity54</title>
<path fill="none" stroke="black" d="M1735.44,-3151.97C1804.94,-3182.53 2000.38,-3268.46 2077.9,-3302.54"/>
<polygon fill="black" stroke="black" points="2076.61,-3305.8 2087.18,-3306.62 2079.43,-3299.39 2076.61,-3305.8"/>
<text text-anchor="start" x="1864.67" y="-3231.05" font-family="Times New Roman,serif" font-size="14.00">witness</text>
</g>
<!-- Entity35 -->
<g id="node54" class="node entity">
<title>Entity35</title>
<ellipse fill="none" stroke="black" cx="2819.94" cy="-1963.66" rx="39.79" ry="18"/>
<text text-anchor="start" x="2797.44" y="-1959.96" font-family="Times New Roman,serif" font-size="14.00">crowley</text>
</g>
<!-- Entity70 -->
<g id="node55" class="node entity">
<title>Entity70</title>
<ellipse fill="none" stroke="black" cx="2907.66" cy="-2075.64" rx="38.99" ry="18"/>
<text text-anchor="start" x="2885.66" y="-2071.94" font-family="Times New Roman,serif" font-size="14.00">x magic</text>
</g>
<!-- Entity35&#45;&gt;Entity70 -->
<g id="edge56" class="edge verb">
<title>Entity35&#45;&gt;Entity70</title>
<path fill="none" stroke="black" d="M2833.26,-1980.67C2847.82,-1999.25 2871.28,-2029.2 2887.96,-2050.49"/>
<polygon fill="black" stroke="black" points="2885.29,-2052.76 2894.21,-2058.47 2890.8,-2048.44 2885.29,-2052.76"/>
<text text-anchor="start" x="2814.61" y="-2019.38" font-family="Times New Roman,serif" font-size="14.00">member</text>
</g>
<!-- Entity24 -->
<g id="node56" class="node entity">
<title>Entity24</title>
<ellipse fill="none" stroke="black" cx="1270.17" cy="-679.69" rx="73.39" ry="18"/>
<text text-anchor="start" x="1221.67" y="-675.99" font-family="Times New Roman,serif" font-size="14.00">madam blavatsky</text>
</g>
<!-- Entity24&#45;&gt;Entity59 -->
<g id="edge60" class="edge verb">
<title>Entity24&#45;&gt;Entity59</title>
<path fill="none" stroke="black" d="M1263.99,-697.87C1234.22,-785.47 1105.56,-1164.11 1069.42,-1270.46"/>
<polygon fill="black" stroke="black" points="1066.03,-1269.57 1066.12,-1280.16 1072.65,-1271.82 1066.03,-1269.57"/>
<text text-anchor="start" x="1132.7" y="-987.97" font-family="Times New Roman,serif" font-size="14.00">create</text>
</g>
<!-- Entity31 -->
<g id="node57" class="node entity">
<title>Entity31</title>
<ellipse fill="none" stroke="black" cx="1304.97" cy="-4612.81" rx="69.59" ry="18"/>
<text text-anchor="start" x="1259.47" y="-4609.11" font-family="Times New Roman,serif" font-size="14.00">andrew breitbart</text>
</g>
<!-- Entity31&#45;&gt;Entity65 -->
<g id="edge61" class="edge verb">
<title>Entity31&#45;&gt;Entity65</title>
<path fill="none" stroke="black" d="M1295.82,-4594.48C1287.24,-4577.3 1274.31,-4551.41 1264.54,-4531.85"/>
<polygon fill="black" stroke="black" points="1267.63,-4530.21 1260.04,-4522.82 1261.37,-4533.33 1267.63,-4530.21"/>
<text text-anchor="start" x="1246.18" y="-4566.97" font-family="Times New Roman,serif" font-size="14.00">create</text>
</g>
</g>
</svg>
