<?xml version="1.0" encoding="UTF-8" standalone="no"?>
<?xml-stylesheet href="../styles.css" type="text/css"?>
<!DOCTYPE svg PUBLIC "-//W3C//DTD SVG 1.1//EN"
 "http://www.w3.org/Graphics/SVG/1.1/DTD/svg11.dtd">
<!-- Generated by graphviz version 2.47.3 (20210619.1520)
 -->
<!-- Title: G Pages: 1 -->
<svg width="7314pt" height="4809pt"
 viewBox="0.00 0.00 7314.00 4809.00" xmlns="http://www.w3.org/2000/svg" xmlns:xlink="http://www.w3.org/1999/xlink">
<g id="graph0" class="graph" transform="scale(1 1) rotate(0) translate(4 4805)">
<title>G</title>
<polygon fill="white" stroke="transparent" points="-4,4 -4,-4805 7310,-4805 7310,4 -4,4"/>
<!-- Entity2 -->
<g id="node1" class="node entity">
<title>Entity2</title>
<ellipse fill="none" stroke="black" cx="3940.64" cy="-1903.87" rx="75.29" ry="18"/>
<text text-anchor="start" x="3890.64" y="-1900.17" font-family="Times New Roman,serif" font-size="14.00">lee harvey oswald</text>
</g>
<!-- Entity14 -->
<g id="node2" class="node entity">
<title>Entity14</title>
<ellipse fill="none" stroke="black" cx="3480.63" cy="-2490.44" rx="64.19" ry="18"/>
<text text-anchor="start" x="3439.13" y="-2486.74" font-family="Times New Roman,serif" font-size="14.00">john f kennedy</text>
</g>
<!-- Entity2&#45;&gt;Entity14 -->
<g id="edge1" class="edge verb">
<title>Entity2&#45;&gt;Entity14</title>
<path fill="none" stroke="black" d="M3926.62,-1921.74C3860.41,-2006.16 3579.02,-2364.98 3500.85,-2464.66"/>
<polygon fill="black" stroke="black" points="3497.96,-2462.67 3494.54,-2472.7 3503.47,-2466.99 3497.96,-2462.67"/>
<text text-anchor="start" x="3651.73" y="-2197" font-family="Times New Roman,serif" font-size="14.00">assassinate</text>
</g>
<!-- Entity49 -->
<g id="node43" class="node entity">
<title>Entity49</title>
<ellipse fill="none" stroke="black" cx="4691.93" cy="-1556.24" rx="59.29" ry="18"/>
<text text-anchor="start" x="4654.43" y="-1552.54" font-family="Times New Roman,serif" font-size="14.00">guy bannister</text>
</g>
<!-- Entity2&#45;&gt;Entity49 -->
<g id="edge32" class="edge verb">
<title>Entity2&#45;&gt;Entity49</title>
<path fill="none" stroke="black" d="M3975.37,-1887.8C4098.81,-1830.68 4516.11,-1637.6 4650.13,-1575.59"/>
<polygon fill="black" stroke="black" points="4651.67,-1578.73 4659.28,-1571.36 4648.73,-1572.38 4651.67,-1578.73"/>
<text text-anchor="start" x="4258.75" y="-1735.49" font-family="Times New Roman,serif" font-size="14.00">employee</text>
</g>
<!-- Entity57 -->
<g id="node13" class="node entity">
<title>Entity57</title>
<ellipse fill="none" stroke="black" cx="3029.87" cy="-2878.03" rx="31.4" ry="18"/>
<text text-anchor="start" x="3013.87" y="-2874.33" font-family="Times New Roman,serif" font-size="14.00">potus</text>
</g>
<!-- Entity14&#45;&gt;Entity57 -->
<g id="edge7" class="edge verb">
<title>Entity14&#45;&gt;Entity57</title>
<path fill="none" stroke="black" d="M3460.68,-2507.59C3387.87,-2570.2 3136.51,-2786.34 3055.35,-2856.12"/>
<polygon fill="black" stroke="black" points="3052.91,-2853.61 3047.61,-2862.78 3057.47,-2858.92 3052.91,-2853.61"/>
<text text-anchor="start" x="3248.02" y="-2685.66" font-family="Times New Roman,serif" font-size="14.00">is</text>
</g>
<!-- Entity5 -->
<g id="node3" class="node entity">
<title>Entity5</title>
<ellipse fill="none" stroke="black" cx="7231.75" cy="-2991.77" rx="74.99" ry="18"/>
<text text-anchor="start" x="7182.25" y="-2988.07" font-family="Times New Roman,serif" font-size="14.00">gene roddenberry</text>
</g>
<!-- Entity8 -->
<g id="node4" class="node entity">
<title>Entity8</title>
<ellipse fill="none" stroke="black" cx="6219.81" cy="-3644.72" rx="38.19" ry="18"/>
<text text-anchor="start" x="6198.31" y="-3641.02" font-family="Times New Roman,serif" font-size="14.00">the nine</text>
</g>
<!-- Entity5&#45;&gt;Entity8 -->
<g id="edge2" class="edge verb">
<title>Entity5&#45;&gt;Entity8</title>
<path fill="none" stroke="black" d="M7205.46,-3008.73C7064.91,-3099.41 6402.96,-3526.54 6250.97,-3624.61"/>
<polygon fill="black" stroke="black" points="6249,-3621.71 6242.5,-3630.08 6252.8,-3627.6 6249,-3621.71"/>
<text text-anchor="start" x="6624.21" y="-3320.47" font-family="Times New Roman,serif" font-size="14.00">claiemd to channel</text>
</g>
<!-- Entity60 -->
<g id="node28" class="node entity">
<title>Entity60</title>
<ellipse fill="none" stroke="black" cx="7167.21" cy="-4502.44" rx="94.48" ry="18"/>
<text text-anchor="start" x="7102.71" y="-4498.74" font-family="Times New Roman,serif" font-size="14.00">egyptian gods in a ship</text>
</g>
<!-- Entity8&#45;&gt;Entity60 -->
<g id="edge16" class="edge verb">
<title>Entity8&#45;&gt;Entity60</title>
<path fill="none" stroke="black" d="M6237.47,-3660.71C6352.95,-3765.26 6999.89,-4350.95 7140.31,-4478.09"/>
<polygon fill="black" stroke="black" points="7137.97,-4480.69 7147.73,-4484.8 7142.67,-4475.5 7137.97,-4480.69"/>
<text text-anchor="start" x="6658.89" y="-4073.2" font-family="Times New Roman,serif" font-size="14.00">claim</text>
</g>
<!-- Entity10 -->
<g id="node5" class="node entity">
<title>Entity10</title>
<ellipse fill="none" stroke="black" cx="3025.32" cy="-2580.71" rx="68.49" ry="18"/>
<text text-anchor="start" x="2980.82" y="-2577.01" font-family="Times New Roman,serif" font-size="14.00">george hw bush</text>
</g>
<!-- Entity16 -->
<g id="node6" class="node entity">
<title>Entity16</title>
<ellipse fill="none" stroke="black" cx="2579.01" cy="-2730.56" rx="63.89" ry="18"/>
<text text-anchor="start" x="2538.01" y="-2726.86" font-family="Times New Roman,serif" font-size="14.00">george w bush</text>
</g>
<!-- Entity10&#45;&gt;Entity16 -->
<g id="edge3" class="edge verb">
<title>Entity10&#45;&gt;Entity16</title>
<path fill="none" stroke="black" d="M2982.93,-2594.95C2900.4,-2622.65 2718.49,-2683.73 2629.73,-2713.53"/>
<polygon fill="black" stroke="black" points="2628.51,-2710.24 2620.15,-2716.74 2630.74,-2716.88 2628.51,-2710.24"/>
<text text-anchor="start" x="2774.33" y="-2658.04" font-family="Times New Roman,serif" font-size="14.00">father</text>
</g>
<!-- Entity10&#45;&gt;Entity57 -->
<g id="edge61" class="edge verb">
<title>Entity10&#45;&gt;Entity57</title>
<path fill="none" stroke="black" d="M3025.6,-2598.86C3026.37,-2648.83 3028.51,-2788.72 3029.44,-2849.38"/>
<polygon fill="black" stroke="black" points="3025.94,-2849.8 3029.59,-2859.74 3032.94,-2849.69 3025.94,-2849.8"/>
<text text-anchor="start" x="3017.52" y="-2727.92" font-family="Times New Roman,serif" font-size="14.00">is</text>
</g>
<!-- Entity16&#45;&gt;Entity57 -->
<g id="edge24" class="edge verb">
<title>Entity16&#45;&gt;Entity57</title>
<path fill="none" stroke="black" d="M2621.02,-2744.3C2708.73,-2772.98 2910.02,-2838.83 2993.04,-2865.98"/>
<polygon fill="black" stroke="black" points="2991.97,-2869.31 3002.56,-2869.1 2994.14,-2862.66 2991.97,-2869.31"/>
<text text-anchor="start" x="2797.03" y="-2808.94" font-family="Times New Roman,serif" font-size="14.00">is</text>
</g>
<!-- Entity25 -->
<g id="node7" class="node entity">
<title>Entity25</title>
<ellipse fill="none" stroke="black" cx="3283.41" cy="-1596.01" rx="58.49" ry="18"/>
<text text-anchor="start" x="3246.41" y="-1592.31" font-family="Times New Roman,serif" font-size="14.00">steve bannon</text>
</g>
<!-- Entity13 -->
<g id="node8" class="node entity">
<title>Entity13</title>
<ellipse fill="none" stroke="black" cx="3193.77" cy="-2064.27" rx="59.59" ry="18"/>
<text text-anchor="start" x="3155.77" y="-2060.57" font-family="Times New Roman,serif" font-size="14.00">donald trump</text>
</g>
<!-- Entity25&#45;&gt;Entity13 -->
<g id="edge4" class="edge verb">
<title>Entity25&#45;&gt;Entity13</title>
<path fill="none" stroke="black" d="M3277.03,-1614.12C3258.24,-1685.68 3207.64,-1949.02 3195.7,-2036.11"/>
<polygon fill="black" stroke="black" points="3192.23,-2035.69 3194.42,-2046.06 3199.17,-2036.59 3192.23,-2035.69"/>
<text text-anchor="start" x="3200.37" y="-1828.91" font-family="Times New Roman,serif" font-size="14.00">advise</text>
</g>
<!-- Entity25&#45;&gt;Entity13 -->
<g id="edge21" class="edge verb">
<title>Entity25&#45;&gt;Entity13</title>
<path fill="none" stroke="black" d="M3282.78,-1614.03C3274.25,-1685.51 3223.98,-1949.33 3202.64,-2036.28"/>
<polygon fill="black" stroke="black" points="3199.19,-2035.65 3200.13,-2046.21 3205.98,-2037.37 3199.19,-2035.65"/>
<text text-anchor="start" x="3242.71" y="-1828.95" font-family="Times New Roman,serif" font-size="14.00">promote</text>
</g>
<!-- Entity64 -->
<g id="node18" class="node entity">
<title>Entity64</title>
<ellipse fill="none" stroke="black" cx="3062.82" cy="-1178.41" rx="35.19" ry="18"/>
<text text-anchor="start" x="3043.82" y="-1174.71" font-family="Times New Roman,serif" font-size="14.00">gurgev</text>
</g>
<!-- Entity25&#45;&gt;Entity64 -->
<g id="edge10" class="edge verb">
<title>Entity25&#45;&gt;Entity64</title>
<path fill="none" stroke="black" d="M3273.93,-1578.06C3239.13,-1512.19 3118.31,-1283.46 3076.88,-1205.04"/>
<polygon fill="black" stroke="black" points="3079.78,-1203.03 3072.02,-1195.82 3073.59,-1206.3 3079.78,-1203.03"/>
<text text-anchor="start" x="3144.4" y="-1395.35" font-family="Times New Roman,serif" font-size="14.00">study</text>
</g>
<!-- Entity65 -->
<g id="node19" class="node entity">
<title>Entity65</title>
<ellipse fill="none" stroke="black" cx="3131.45" cy="-271.34" rx="61.99" ry="18"/>
<text text-anchor="start" x="3091.95" y="-267.64" font-family="Times New Roman,serif" font-size="14.00">breitbart news</text>
</g>
<!-- Entity25&#45;&gt;Entity65 -->
<g id="edge11" class="edge verb">
<title>Entity25&#45;&gt;Entity65</title>
<path fill="none" stroke="black" d="M3281.32,-1577.79C3264.77,-1433.51 3155,-476.63 3134.68,-299.51"/>
<polygon fill="black" stroke="black" points="3138.14,-298.97 3133.52,-289.43 3131.19,-299.76 3138.14,-298.97"/>
<text text-anchor="start" x="3174" y="-942.45" font-family="Times New Roman,serif" font-size="14.00">create</text>
</g>
<!-- Entity75 -->
<g id="node29" class="node entity">
<title>Entity75</title>
<ellipse fill="none" stroke="black" cx="2294.64" cy="-1098.39" rx="38.19" ry="18"/>
<text text-anchor="start" x="2273.14" y="-1094.69" font-family="Times New Roman,serif" font-size="14.00">us navy</text>
</g>
<!-- Entity25&#45;&gt;Entity75 -->
<g id="edge17" class="edge verb">
<title>Entity25&#45;&gt;Entity75</title>
<path fill="none" stroke="black" d="M3252.73,-1580.57C3107.14,-1507.3 2486.44,-1194.92 2330.37,-1116.37"/>
<polygon fill="black" stroke="black" points="2331.69,-1113.11 2321.18,-1111.75 2328.54,-1119.37 2331.69,-1113.11"/>
<text text-anchor="start" x="2745.55" y="-1352.27" font-family="Times New Roman,serif" font-size="14.00">member</text>
</g>
<!-- Entity62 -->
<g id="node35" class="node entity">
<title>Entity62</title>
<ellipse fill="none" stroke="black" cx="3642.75" cy="-597.37" rx="53.09" ry="18"/>
<text text-anchor="start" x="3609.75" y="-593.67" font-family="Times New Roman,serif" font-size="14.00">biosphere 2</text>
</g>
<!-- Entity25&#45;&gt;Entity62 -->
<g id="edge25" class="edge verb">
<title>Entity25&#45;&gt;Entity62</title>
<path fill="none" stroke="black" d="M3289.95,-1577.82C3333.38,-1457.13 3579.87,-772.12 3632.75,-625.14"/>
<polygon fill="black" stroke="black" points="3636.13,-626.1 3636.22,-615.5 3629.54,-623.73 3636.13,-626.1"/>
<text text-anchor="start" x="3427.35" y="-1105.28" font-family="Times New Roman,serif" font-size="14.00">create</text>
</g>
<!-- Entity76 -->
<g id="node53" class="node entity">
<title>Entity76</title>
<ellipse fill="none" stroke="black" cx="4672.25" cy="-90.77" rx="64.99" ry="18"/>
<text text-anchor="start" x="4630.25" y="-87.07" font-family="Times New Roman,serif" font-size="14.00">goldman sachs</text>
</g>
<!-- Entity25&#45;&gt;Entity76 -->
<g id="edge44" class="edge verb">
<title>Entity25&#45;&gt;Entity76</title>
<path fill="none" stroke="black" d="M3299.48,-1578.58C3441.45,-1424.72 4479.61,-299.55 4648.93,-116.04"/>
<polygon fill="black" stroke="black" points="4651.69,-118.21 4655.9,-108.49 4646.54,-113.47 4651.69,-118.21"/>
<text text-anchor="start" x="3920.21" y="-851.11" font-family="Times New Roman,serif" font-size="14.00">employee</text>
</g>
<!-- Entity79 -->
<g id="node59" class="node entity">
<title>Entity79</title>
<ellipse fill="none" stroke="black" cx="4005.14" cy="-1226.68" rx="77.19" ry="18"/>
<text text-anchor="start" x="3953.64" y="-1222.98" font-family="Times New Roman,serif" font-size="14.00">hollywood movies</text>
</g>
<!-- Entity25&#45;&gt;Entity79 -->
<g id="edge54" class="edge verb">
<title>Entity25&#45;&gt;Entity79</title>
<path fill="none" stroke="black" d="M3313.96,-1580.37C3428.59,-1521.71 3833.2,-1314.66 3964.01,-1247.72"/>
<polygon fill="black" stroke="black" points="3965.64,-1250.82 3972.95,-1243.15 3962.45,-1244.59 3965.64,-1250.82"/>
<text text-anchor="start" x="3591.98" y="-1417.85" font-family="Times New Roman,serif" font-size="14.00">produce</text>
</g>
<!-- Entity13&#45;&gt;Entity57 -->
<g id="edge41" class="edge verb">
<title>Entity13&#45;&gt;Entity57</title>
<path fill="none" stroke="black" d="M3190.11,-2082.41C3168.89,-2187.79 3061.49,-2721.06 3035.53,-2849.96"/>
<polygon fill="black" stroke="black" points="3032.08,-2849.36 3033.54,-2859.85 3038.94,-2850.74 3032.08,-2849.36"/>
<text text-anchor="start" x="3102.82" y="-2469.98" font-family="Times New Roman,serif" font-size="14.00">is</text>
</g>
<!-- Entity33 -->
<g id="node38" class="node entity">
<title>Entity33</title>
<ellipse fill="none" stroke="black" cx="3885.19" cy="-2620.39" rx="50.09" ry="18"/>
<text text-anchor="start" x="3854.69" y="-2616.69" font-family="Times New Roman,serif" font-size="14.00">john trump</text>
</g>
<!-- Entity13&#45;&gt;Entity33 -->
<g id="edge59" class="edge verb">
<title>Entity13&#45;&gt;Entity33</title>
<path fill="none" stroke="black" d="M3214.84,-2081.22C3314.86,-2161.67 3741.66,-2504.94 3856.59,-2597.38"/>
<polygon fill="black" stroke="black" points="3854.64,-2600.3 3864.62,-2603.84 3859.02,-2594.85 3854.64,-2600.3"/>
<text text-anchor="start" x="3492.71" y="-2343.1" font-family="Times New Roman,serif" font-size="14.00">nephew</text>
</g>
<!-- Entity50 -->
<g id="node9" class="node entity">
<title>Entity50</title>
<ellipse fill="none" stroke="black" cx="6905.69" cy="-811.34" rx="49.29" ry="18"/>
<text text-anchor="start" x="6875.69" y="-807.64" font-family="Times New Roman,serif" font-size="14.00">adolf hitler</text>
</g>
<!-- Entity53 -->
<g id="node10" class="node entity">
<title>Entity53</title>
<ellipse fill="none" stroke="black" cx="5333.26" cy="-2121.97" rx="32.49" ry="18"/>
<text text-anchor="start" x="5316.26" y="-2118.27" font-family="Times New Roman,serif" font-size="14.00">nsdap</text>
</g>
<!-- Entity50&#45;&gt;Entity53 -->
<g id="edge5" class="edge verb">
<title>Entity50&#45;&gt;Entity53</title>
<path fill="none" stroke="black" d="M6885.81,-827.91C6718.63,-967.26 5548.83,-1942.29 5359.2,-2100.35"/>
<polygon fill="black" stroke="black" points="5356.84,-2097.76 5351.4,-2106.85 5361.33,-2103.13 5356.84,-2097.76"/>
<text text-anchor="start" x="6088.51" y="-1467.93" font-family="Times New Roman,serif" font-size="14.00">create</text>
</g>
<!-- Entity73 -->
<g id="node51" class="node entity">
<title>Entity73</title>
<ellipse fill="none" stroke="black" cx="5506.39" cy="-894.01" rx="38.99" ry="18"/>
<text text-anchor="start" x="5484.39" y="-890.31" font-family="Times New Roman,serif" font-size="14.00">far right</text>
</g>
<!-- Entity53&#45;&gt;Entity73 -->
<g id="edge47" class="edge verb">
<title>Entity53&#45;&gt;Entity73</title>
<path fill="none" stroke="black" d="M5335.85,-2103.66C5355.29,-1965.72 5478.69,-1090.49 5502.44,-922.04"/>
<polygon fill="black" stroke="black" points="5505.93,-922.37 5503.86,-911.98 5498.99,-921.39 5505.93,-922.37"/>
<text text-anchor="start" x="5373.14" y="-1516.65" font-family="Times New Roman,serif" font-size="14.00">member</text>
</g>
<!-- Entity52 -->
<g id="node11" class="node entity">
<title>Entity52</title>
<ellipse fill="none" stroke="black" cx="1629.69" cy="-1540.46" rx="37.89" ry="18"/>
<text text-anchor="start" x="1608.69" y="-1536.76" font-family="Times New Roman,serif" font-size="14.00">hunt oil</text>
</g>
<!-- Entity45 -->
<g id="node12" class="node entity">
<title>Entity45</title>
<ellipse fill="none" stroke="black" cx="2502.79" cy="-2166.53" rx="77.99" ry="18"/>
<text text-anchor="start" x="2450.79" y="-2162.83" font-family="Times New Roman,serif" font-size="14.00">dwight eisenhower</text>
</g>
<!-- Entity52&#45;&gt;Entity45 -->
<g id="edge6" class="edge verb">
<title>Entity52&#45;&gt;Entity45</title>
<path fill="none" stroke="black" d="M1650.84,-1555.62C1767.15,-1639.03 2328.88,-2041.82 2470.38,-2143.29"/>
<polygon fill="black" stroke="black" points="2468.54,-2146.28 2478.71,-2149.26 2472.62,-2140.59 2468.54,-2146.28"/>
<text text-anchor="start" x="2034.61" y="-1853.25" font-family="Times New Roman,serif" font-size="14.00">fund</text>
</g>
<!-- Entity45&#45;&gt;Entity57 -->
<g id="edge52" class="edge verb">
<title>Entity45&#45;&gt;Entity57</title>
<path fill="none" stroke="black" d="M2516.08,-2184.47C2587.82,-2281.31 2928.58,-2741.3 3011.61,-2853.37"/>
<polygon fill="black" stroke="black" points="3008.79,-2855.46 3017.56,-2861.41 3014.42,-2851.29 3008.79,-2855.46"/>
<text text-anchor="start" x="2753.84" y="-2522.72" font-family="Times New Roman,serif" font-size="14.00">is</text>
</g>
<!-- Entity7 -->
<g id="node14" class="node entity">
<title>Entity7</title>
<ellipse fill="none" stroke="black" cx="3228.92" cy="-3156.82" rx="56.59" ry="18"/>
<text text-anchor="start" x="3193.42" y="-3153.12" font-family="Times New Roman,serif" font-size="14.00">harry truman</text>
</g>
<!-- Entity7&#45;&gt;Entity57 -->
<g id="edge28" class="edge verb">
<title>Entity7&#45;&gt;Entity57</title>
<path fill="none" stroke="black" d="M3216.17,-3138.96C3181.8,-3090.82 3087.18,-2958.29 3047.62,-2902.89"/>
<polygon fill="black" stroke="black" points="3050.42,-2900.79 3041.76,-2894.68 3044.73,-2904.86 3050.42,-2900.79"/>
<text text-anchor="start" x="3121.89" y="-3024.72" font-family="Times New Roman,serif" font-size="14.00">is</text>
</g>
<!-- Entity55 -->
<g id="node15" class="node entity">
<title>Entity55</title>
<ellipse fill="none" stroke="black" cx="3527.53" cy="-3831.32" rx="55.79" ry="18"/>
<text text-anchor="start" x="3492.53" y="-3827.62" font-family="Times New Roman,serif" font-size="14.00">freemasonry</text>
</g>
<!-- Entity7&#45;&gt;Entity55 -->
<g id="edge8" class="edge verb">
<title>Entity7&#45;&gt;Entity55</title>
<path fill="none" stroke="black" d="M3236.91,-3174.86C3278.01,-3267.7 3465.66,-3691.56 3515.4,-3803.92"/>
<polygon fill="black" stroke="black" points="3512.27,-3805.5 3519.52,-3813.23 3518.67,-3802.66 3512.27,-3805.5"/>
<text text-anchor="start" x="3330.15" y="-3493.19" font-family="Times New Roman,serif" font-size="14.00">member</text>
</g>
<!-- Entity17 -->
<g id="node16" class="node entity">
<title>Entity17</title>
<ellipse fill="none" stroke="black" cx="3595.04" cy="-3063.93" rx="31.4" ry="18"/>
<text text-anchor="start" x="3579.04" y="-3060.23" font-family="Times New Roman,serif" font-size="14.00">carter</text>
</g>
<!-- Entity17&#45;&gt;Entity57 -->
<g id="edge48" class="edge verb">
<title>Entity17&#45;&gt;Entity57</title>
<path fill="none" stroke="black" d="M3567.78,-3054.97C3475.18,-3024.51 3172.6,-2924.98 3066.8,-2890.18"/>
<polygon fill="black" stroke="black" points="3067.78,-2886.82 3057.19,-2887.02 3065.6,-2893.47 3067.78,-2886.82"/>
<text text-anchor="start" x="3307.29" y="-2976.37" font-family="Times New Roman,serif" font-size="14.00">is</text>
</g>
<!-- Entity61 -->
<g id="node17" class="node entity">
<title>Entity61</title>
<ellipse fill="none" stroke="black" cx="3971.96" cy="-3877.38" rx="27" ry="18"/>
<text text-anchor="start" x="3962.46" y="-3873.68" font-family="Times New Roman,serif" font-size="14.00">ufo</text>
</g>
<!-- Entity17&#45;&gt;Entity61 -->
<g id="edge9" class="edge verb">
<title>Entity17&#45;&gt;Entity61</title>
<path fill="none" stroke="black" d="M3603.26,-3081.68C3651.79,-3186.42 3900.68,-3723.55 3959.49,-3850.48"/>
<polygon fill="black" stroke="black" points="3956.47,-3852.27 3963.85,-3859.87 3962.82,-3849.33 3956.47,-3852.27"/>
<text text-anchor="start" x="3739.38" y="-3469.88" font-family="Times New Roman,serif" font-size="14.00">witness</text>
</g>
<!-- Entity44 -->
<g id="node20" class="node entity">
<title>Entity44</title>
<ellipse fill="none" stroke="black" cx="5140.35" cy="-2711.7" rx="74.99" ry="18"/>
<text text-anchor="start" x="5090.85" y="-2708" font-family="Times New Roman,serif" font-size="14.00">walter dornberger</text>
</g>
<!-- Entity44&#45;&gt;Entity53 -->
<g id="edge22" class="edge verb">
<title>Entity44&#45;&gt;Entity53</title>
<path fill="none" stroke="black" d="M5146.23,-2693.73C5173.85,-2609.28 5290.82,-2251.72 5324.29,-2149.42"/>
<polygon fill="black" stroke="black" points="5327.65,-2150.39 5327.43,-2139.8 5321,-2148.22 5327.65,-2150.39"/>
<text text-anchor="start" x="5189.26" y="-2425.37" font-family="Times New Roman,serif" font-size="14.00">member</text>
</g>
<!-- Entity54 -->
<g id="node21" class="node entity">
<title>Entity54</title>
<ellipse fill="none" stroke="black" cx="6243.32" cy="-2718.74" rx="53.89" ry="18"/>
<text text-anchor="start" x="6209.82" y="-2715.04" font-family="Times New Roman,serif" font-size="14.00">bell aviation</text>
</g>
<!-- Entity44&#45;&gt;Entity54 -->
<g id="edge12" class="edge verb">
<title>Entity44&#45;&gt;Entity54</title>
<path fill="none" stroke="black" d="M5213.55,-2715.75C5417.14,-2721.35 5987.71,-2724.91 6179.51,-2721.7"/>
<polygon fill="black" stroke="black" points="6179.77,-2725.2 6189.7,-2721.52 6179.64,-2718.2 6179.77,-2725.2"/>
<text text-anchor="start" x="5617.53" y="-2722.52" font-family="Times New Roman,serif" font-size="14.00">vice&#45;president</text>
</g>
<!-- Entity44&#45;&gt;Entity54 -->
<g id="edge51" class="edge verb">
<title>Entity44&#45;&gt;Entity54</title>
<path fill="none" stroke="black" d="M5214.02,-2708.59C5418.19,-2705.6 5988.75,-2709.31 6179.95,-2714.97"/>
<polygon fill="black" stroke="black" points="6180.01,-2718.48 6190.12,-2715.29 6180.23,-2711.48 6180.01,-2718.48"/>
<text text-anchor="start" x="5642.99" y="-2700.58" font-family="Times New Roman,serif" font-size="14.00">employee</text>
</g>
<!-- Entity72 -->
<g id="node23" class="node entity">
<title>Entity72</title>
<ellipse fill="none" stroke="black" cx="4322.14" cy="-2645.6" rx="90.98" ry="18"/>
<text text-anchor="start" x="4260.14" y="-2641.9" font-family="Times New Roman,serif" font-size="14.00">nsdap rocket program</text>
</g>
<!-- Entity44&#45;&gt;Entity72 -->
<g id="edge67" class="edge verb">
<title>Entity44&#45;&gt;Entity72</title>
<path fill="none" stroke="black" d="M5069.17,-2705.95C4921.6,-2694.03 4582.29,-2666.62 4416.62,-2653.23"/>
<polygon fill="black" stroke="black" points="4416.69,-2649.73 4406.44,-2652.41 4416.13,-2656.71 4416.69,-2649.73"/>
<text text-anchor="start" x="4708.89" y="-2683.39" font-family="Times New Roman,serif" font-size="14.00">create</text>
</g>
<!-- Entity74 -->
<g id="node56" class="node entity">
<title>Entity74</title>
<ellipse fill="none" stroke="black" cx="5066.36" cy="-3102.5" rx="65.79" ry="18"/>
<text text-anchor="start" x="5023.86" y="-3098.8" font-family="Times New Roman,serif" font-size="14.00">x series aircraft</text>
</g>
<!-- Entity44&#45;&gt;Entity74 -->
<g id="edge46" class="edge verb">
<title>Entity44&#45;&gt;Entity74</title>
<path fill="none" stroke="black" d="M5136.93,-2729.77C5125.14,-2792.01 5086.17,-2997.86 5071.77,-3073.92"/>
<polygon fill="black" stroke="black" points="5068.25,-3073.7 5069.82,-3084.17 5075.12,-3075 5068.25,-3073.7"/>
<text text-anchor="start" x="5070.35" y="-2905.65" font-family="Times New Roman,serif" font-size="14.00">create</text>
</g>
<!-- Entity48 -->
<g id="node22" class="node entity">
<title>Entity48</title>
<ellipse fill="none" stroke="black" cx="4699.92" cy="-2593.79" rx="46.29" ry="18"/>
<text text-anchor="start" x="4672.42" y="-2590.09" font-family="Times New Roman,serif" font-size="14.00">van braun</text>
</g>
<!-- Entity48&#45;&gt;Entity44 -->
<g id="edge23" class="edge verb">
<title>Entity48&#45;&gt;Entity44</title>
<path fill="none" stroke="black" d="M4738.23,-2604.04C4815.07,-2624.61 4988.46,-2671.04 5080.43,-2695.66"/>
<polygon fill="black" stroke="black" points="5079.59,-2699.06 5090.16,-2698.27 5081.4,-2692.3 5079.59,-2699.06"/>
<text text-anchor="start" x="4855.33" y="-2653.65" font-family="Times New Roman,serif" font-size="14.00">employee</text>
</g>
<!-- Entity48&#45;&gt;Entity72 -->
<g id="edge13" class="edge verb">
<title>Entity48&#45;&gt;Entity72</title>
<path fill="none" stroke="black" d="M4656.21,-2599.78C4595.52,-2608.1 4484.48,-2623.33 4407.15,-2633.94"/>
<polygon fill="black" stroke="black" points="4406.38,-2630.51 4396.95,-2635.34 4407.33,-2637.45 4406.38,-2630.51"/>
<text text-anchor="start" x="4477.68" y="-2620.66" font-family="Times New Roman,serif" font-size="14.00">employee</text>
</g>
<!-- Entity4 -->
<g id="node24" class="node entity">
<title>Entity4</title>
<ellipse fill="none" stroke="black" cx="5994.44" cy="-4782.65" rx="64.19" ry="18"/>
<text text-anchor="start" x="5952.94" y="-4778.95" font-family="Times New Roman,serif" font-size="14.00">andre puharich</text>
</g>
<!-- Entity1 -->
<g id="node25" class="node entity">
<title>Entity1</title>
<ellipse fill="none" stroke="black" cx="5529.23" cy="-4237.12" rx="41.69" ry="18"/>
<text text-anchor="start" x="5505.23" y="-4233.42" font-family="Times New Roman,serif" font-size="14.00">uri geller</text>
</g>
<!-- Entity4&#45;&gt;Entity1 -->
<g id="edge14" class="edge verb">
<title>Entity4&#45;&gt;Entity1</title>
<path fill="none" stroke="black" d="M5979.49,-4765.11C5911.33,-4685.19 5629.94,-4355.22 5550.31,-4261.84"/>
<polygon fill="black" stroke="black" points="5552.82,-4259.39 5543.67,-4254.05 5547.49,-4263.93 5552.82,-4259.39"/>
<text text-anchor="start" x="5712.9" y="-4517.28" font-family="Times New Roman,serif" font-size="14.00">sponsore</text>
</g>
<!-- Entity1&#45;&gt;Entity8 -->
<g id="edge57" class="edge verb">
<title>Entity1&#45;&gt;Entity8</title>
<path fill="none" stroke="black" d="M5548.06,-4220.97C5644.34,-4138.38 6081.37,-3763.47 6193.52,-3667.27"/>
<polygon fill="black" stroke="black" points="6196.01,-3669.75 6201.32,-3660.58 6191.45,-3664.43 6196.01,-3669.75"/>
<text text-anchor="start" x="5766.79" y="-3947.92" font-family="Times New Roman,serif" font-size="14.00">claiemd to channel</text>
</g>
<!-- Entity21 -->
<g id="node26" class="node entity">
<title>Entity21</title>
<ellipse fill="none" stroke="black" cx="4600.83" cy="-3869.45" rx="63.89" ry="18"/>
<text text-anchor="start" x="4559.83" y="-3865.75" font-family="Times New Roman,serif" font-size="14.00">robert bigelow</text>
</g>
<!-- Entity6 -->
<g id="node27" class="node entity">
<title>Entity6</title>
<ellipse fill="none" stroke="black" cx="4668.5" cy="-4656.11" rx="68.49" ry="18"/>
<text text-anchor="start" x="4624" y="-4652.41" font-family="Times New Roman,serif" font-size="14.00">jeffrey mishlove</text>
</g>
<!-- Entity21&#45;&gt;Entity6 -->
<g id="edge15" class="edge verb">
<title>Entity21&#45;&gt;Entity6</title>
<path fill="none" stroke="black" d="M4602.41,-3887.74C4611.3,-3991.07 4655.22,-4501.73 4666.07,-4627.89"/>
<polygon fill="black" stroke="black" points="4662.59,-4628.26 4666.93,-4637.92 4669.56,-4627.66 4662.59,-4628.26"/>
<text text-anchor="start" x="4602.24" y="-4261.61" font-family="Times New Roman,serif" font-size="14.00">funds</text>
</g>
<!-- Entity56 -->
<g id="node44" class="node entity">
<title>Entity56</title>
<ellipse fill="none" stroke="black" cx="4729.05" cy="-3340.43" rx="77.19" ry="18"/>
<text text-anchor="start" x="4677.55" y="-3336.73" font-family="Times New Roman,serif" font-size="14.00">psi&#45;consciousness</text>
</g>
<!-- Entity21&#45;&gt;Entity56 -->
<g id="edge49" class="edge verb">
<title>Entity21&#45;&gt;Entity56</title>
<path fill="none" stroke="black" d="M4605.25,-3851.24C4624.26,-3772.79 4699.27,-3463.33 4722.29,-3368.32"/>
<polygon fill="black" stroke="black" points="4725.7,-3369.11 4724.66,-3358.56 4718.9,-3367.46 4725.7,-3369.11"/>
<text text-anchor="start" x="4599.77" y="-3613.58" font-family="Times New Roman,serif" font-size="14.00">investigates</text>
</g>
<!-- Entity6&#45;&gt;Entity1 -->
<g id="edge56" class="edge verb">
<title>Entity6&#45;&gt;Entity1</title>
<path fill="none" stroke="black" d="M4701.19,-4640.19C4836.12,-4574.51 5349.33,-4324.7 5492.15,-4255.17"/>
<polygon fill="black" stroke="black" points="5493.94,-4258.2 5501.4,-4250.67 5490.88,-4251.9 5493.94,-4258.2"/>
<text text-anchor="start" x="5048.67" y="-4451.48" font-family="Times New Roman,serif" font-size="14.00">promote</text>
</g>
<!-- Entity6&#45;&gt;Entity56 -->
<g id="edge33" class="edge verb">
<title>Entity6&#45;&gt;Entity56</title>
<path fill="none" stroke="black" d="M4671.07,-4638.09C4684.2,-4495.1 4728.08,-3544.71 4729.9,-3368.51"/>
<polygon fill="black" stroke="black" points="4733.4,-3368.5 4729.96,-3358.48 4726.4,-3368.45 4733.4,-3368.5"/>
<text text-anchor="start" x="4636.49" y="-3992.1" font-family="Times New Roman,serif" font-size="14.00">investigates</text>
</g>
<!-- Entity6&#45;&gt;Entity56 -->
<g id="edge62" class="edge verb">
<title>Entity6&#45;&gt;Entity56</title>
<path fill="none" stroke="black" d="M4667.59,-4637.93C4667.65,-4494.48 4711.17,-3545.94 4725.58,-3368.87"/>
<polygon fill="black" stroke="black" points="4729.08,-3369.04 4726.45,-3358.78 4722.11,-3368.44 4729.08,-3369.04"/>
<text text-anchor="start" x="4665.59" y="-4007.2" font-family="Times New Roman,serif" font-size="14.00">study</text>
</g>
<!-- Entity29 -->
<g id="node30" class="node entity">
<title>Entity29</title>
<ellipse fill="none" stroke="black" cx="73.64" cy="-3801.53" rx="73.39" ry="18"/>
<text text-anchor="start" x="25.14" y="-3797.83" font-family="Times New Roman,serif" font-size="14.00">madam blavatsky</text>
</g>
<!-- Entity63 -->
<g id="node31" class="node entity">
<title>Entity63</title>
<ellipse fill="none" stroke="black" cx="1465.48" cy="-3231.7" rx="85.29" ry="18"/>
<text text-anchor="start" x="1407.98" y="-3228" font-family="Times New Roman,serif" font-size="14.00">theosophical society</text>
</g>
<!-- Entity29&#45;&gt;Entity63 -->
<g id="edge18" class="edge verb">
<title>Entity29&#45;&gt;Entity63</title>
<path fill="none" stroke="black" d="M111.59,-3785.99C306.92,-3706.02 1198.29,-3341.09 1416.95,-3251.57"/>
<polygon fill="black" stroke="black" points="1418.32,-3254.79 1426.25,-3247.76 1415.67,-3248.31 1418.32,-3254.79"/>
<text text-anchor="start" x="730.27" y="-3522.58" font-family="Times New Roman,serif" font-size="14.00">create</text>
</g>
<!-- Entity36 -->
<g id="node32" class="node entity">
<title>Entity36</title>
<ellipse fill="none" stroke="black" cx="1823.06" cy="-3483.71" rx="90.98" ry="18"/>
<text text-anchor="start" x="1761.06" y="-3480.01" font-family="Times New Roman,serif" font-size="14.00">emma hardinge&#45;britten</text>
</g>
<!-- Entity36&#45;&gt;Entity63 -->
<g id="edge65" class="edge verb">
<title>Entity36&#45;&gt;Entity63</title>
<path fill="none" stroke="black" d="M1798.2,-3466.19C1735.32,-3421.87 1569.9,-3305.29 1498.77,-3255.16"/>
<polygon fill="black" stroke="black" points="1500.37,-3252 1490.18,-3249.1 1496.34,-3257.73 1500.37,-3252"/>
<text text-anchor="start" x="1614.48" y="-3364.48" font-family="Times New Roman,serif" font-size="14.00">create</text>
</g>
<!-- Entity78 -->
<g id="node33" class="node entity">
<title>Entity78</title>
<ellipse fill="none" stroke="black" cx="1058.14" cy="-4603.97" rx="39.79" ry="18"/>
<text text-anchor="start" x="1035.64" y="-4600.27" font-family="Times New Roman,serif" font-size="14.00">medium</text>
</g>
<!-- Entity36&#45;&gt;Entity78 -->
<g id="edge19" class="edge verb">
<title>Entity36&#45;&gt;Entity78</title>
<path fill="none" stroke="black" d="M1810.73,-3501.76C1721.99,-3631.73 1181.08,-4423.91 1075.87,-4578.01"/>
<polygon fill="black" stroke="black" points="1072.86,-4576.21 1070.11,-4586.44 1078.64,-4580.16 1072.86,-4576.21"/>
<text text-anchor="start" x="1433.3" y="-4043.68" font-family="Times New Roman,serif" font-size="14.00">is</text>
</g>
<!-- Entity41 -->
<g id="node34" class="node entity">
<title>Entity41</title>
<ellipse fill="none" stroke="black" cx="2153.12" cy="-2837.4" rx="67.69" ry="18"/>
<text text-anchor="start" x="2109.12" y="-2833.7" font-family="Times New Roman,serif" font-size="14.00">abraham lincoln</text>
</g>
<!-- Entity36&#45;&gt;Entity41 -->
<g id="edge30" class="edge verb">
<title>Entity36&#45;&gt;Entity41</title>
<path fill="none" stroke="black" d="M1832.23,-3465.75C1878.27,-3375.61 2084.1,-2972.55 2139.41,-2864.26"/>
<polygon fill="black" stroke="black" points="2142.56,-2865.77 2143.99,-2855.27 2136.33,-2862.59 2142.56,-2865.77"/>
<text text-anchor="start" x="1906.82" y="-3168.8" font-family="Times New Roman,serif" font-size="14.00">spokesperson</text>
</g>
<!-- Entity70 -->
<g id="node61" class="node entity">
<title>Entity70</title>
<ellipse fill="none" stroke="black" cx="860.32" cy="-3136.93" rx="55.79" ry="18"/>
<text text-anchor="start" x="825.32" y="-3133.23" font-family="Times New Roman,serif" font-size="14.00">orphic circle</text>
</g>
<!-- Entity36&#45;&gt;Entity70 -->
<g id="edge66" class="edge verb">
<title>Entity36&#45;&gt;Entity70</title>
<path fill="none" stroke="black" d="M1779.19,-3467.91C1619.84,-3410.51 1072.39,-3213.32 907.61,-3153.97"/>
<polygon fill="black" stroke="black" points="908.37,-3150.52 897.77,-3150.42 906,-3157.11 908.37,-3150.52"/>
<text text-anchor="start" x="1297.4" y="-3314.74" font-family="Times New Roman,serif" font-size="14.00">member</text>
</g>
<!-- Entity41&#45;&gt;Entity57 -->
<g id="edge20" class="edge verb">
<title>Entity41&#45;&gt;Entity57</title>
<path fill="none" stroke="black" d="M2219.74,-2840.49C2391.89,-2848.47 2847.84,-2869.6 2988.18,-2876.1"/>
<polygon fill="black" stroke="black" points="2988.34,-2879.61 2998.49,-2876.58 2988.66,-2872.62 2988.34,-2879.61"/>
<text text-anchor="start" x="2593.96" y="-2862.09" font-family="Times New Roman,serif" font-size="14.00">is</text>
</g>
<!-- Entity40 -->
<g id="node36" class="node entity">
<title>Entity40</title>
<ellipse fill="none" stroke="black" cx="2251.94" cy="-4099.66" rx="53.89" ry="18"/>
<text text-anchor="start" x="2218.44" y="-4095.96" font-family="Times New Roman,serif" font-size="14.00">black magic</text>
</g>
<!-- Entity69 -->
<g id="node37" class="node entity">
<title>Entity69</title>
<ellipse fill="none" stroke="black" cx="2339.66" cy="-4211.64" rx="28.7" ry="18"/>
<text text-anchor="start" x="2325.66" y="-4207.94" font-family="Times New Roman,serif" font-size="14.00">x left</text>
</g>
<!-- Entity40&#45;&gt;Entity69 -->
<g id="edge26" class="edge verb">
<title>Entity40&#45;&gt;Entity69</title>
<path fill="none" stroke="black" d="M2265.64,-4117.16C2280.45,-4136.05 2304.14,-4166.29 2320.72,-4187.45"/>
<polygon fill="black" stroke="black" points="2317.98,-4189.64 2326.9,-4195.36 2323.49,-4185.32 2317.98,-4189.64"/>
<text text-anchor="start" x="2247.18" y="-4156.11" font-family="Times New Roman,serif" font-size="14.00">member</text>
</g>
<!-- Entity15 -->
<g id="node39" class="node entity">
<title>Entity15</title>
<ellipse fill="none" stroke="black" cx="4201.51" cy="-3197.86" rx="27" ry="18"/>
<text text-anchor="start" x="4193.51" y="-3194.16" font-family="Times New Roman,serif" font-size="14.00">cia</text>
</g>
<!-- Entity33&#45;&gt;Entity15 -->
<g id="edge27" class="edge verb">
<title>Entity33&#45;&gt;Entity15</title>
<path fill="none" stroke="black" d="M3895,-2638.3C3940.72,-2721.76 4132.87,-3072.55 4187.16,-3171.67"/>
<polygon fill="black" stroke="black" points="4184.24,-3173.63 4192.12,-3180.72 4190.38,-3170.27 4184.24,-3173.63"/>
<text text-anchor="start" x="3995.08" y="-2908.79" font-family="Times New Roman,serif" font-size="14.00">member</text>
</g>
<!-- Entity77 -->
<g id="node50" class="node entity">
<title>Entity77</title>
<ellipse fill="none" stroke="black" cx="4332.44" cy="-2200.99" rx="50.89" ry="18"/>
<text text-anchor="start" x="4301.44" y="-2197.29" font-family="Times New Roman,serif" font-size="14.00">nikola tesla</text>
</g>
<!-- Entity33&#45;&gt;Entity77 -->
<g id="edge39" class="edge verb">
<title>Entity33&#45;&gt;Entity77</title>
<path fill="none" stroke="black" d="M3903.28,-2603.42C3973.1,-2537.95 4225.2,-2301.55 4306.78,-2225.05"/>
<polygon fill="black" stroke="black" points="4309.23,-2227.55 4314.13,-2218.16 4304.44,-2222.45 4309.23,-2227.55"/>
<text text-anchor="start" x="4074.03" y="-2418.04" font-family="Times New Roman,serif" font-size="14.00">study</text>
</g>
<!-- Entity15&#45;&gt;Entity61 -->
<g id="edge63" class="edge verb">
<title>Entity15&#45;&gt;Entity61</title>
<path fill="none" stroke="black" d="M4195.48,-3215.69C4164.1,-3308.59 4019.28,-3737.31 3981.17,-3850.12"/>
<polygon fill="black" stroke="black" points="3977.8,-3849.15 3977.92,-3859.75 3984.44,-3851.39 3977.8,-3849.15"/>
<text text-anchor="start" x="4024.33" y="-3536.71" font-family="Times New Roman,serif" font-size="14.00">investigates</text>
</g>
<!-- Entity15&#45;&gt;Entity56 -->
<g id="edge43" class="edge verb">
<title>Entity15&#45;&gt;Entity56</title>
<path fill="none" stroke="black" d="M4226.6,-3204.64C4305.98,-3226.1 4553.25,-3292.92 4668.63,-3324.1"/>
<polygon fill="black" stroke="black" points="4667.8,-3327.5 4678.37,-3326.73 4669.63,-3320.75 4667.8,-3327.5"/>
<text text-anchor="start" x="4383.61" y="-3268.17" font-family="Times New Roman,serif" font-size="14.00">investigates</text>
</g>
<!-- Entity20 -->
<g id="node40" class="node entity">
<title>Entity20</title>
<ellipse fill="none" stroke="black" cx="2609.17" cy="-3116.99" rx="71.49" ry="18"/>
<text text-anchor="start" x="2562.17" y="-3113.29" font-family="Times New Roman,serif" font-size="14.00">woodrow wilson</text>
</g>
<!-- Entity20&#45;&gt;Entity57 -->
<g id="edge34" class="edge verb">
<title>Entity20&#45;&gt;Entity57</title>
<path fill="none" stroke="black" d="M2638.41,-3100.37C2714.7,-3057.05 2919.24,-2940.87 2998.18,-2896.03"/>
<polygon fill="black" stroke="black" points="3000.2,-2898.91 3007.17,-2890.93 2996.75,-2892.82 3000.2,-2898.91"/>
<text text-anchor="start" x="2808.3" y="-3002" font-family="Times New Roman,serif" font-size="14.00">is</text>
</g>
<!-- Entity66 -->
<g id="node41" class="node entity">
<title>Entity66</title>
<ellipse fill="none" stroke="black" cx="2458.66" cy="-3532.98" rx="71.49" ry="18"/>
<text text-anchor="start" x="2411.66" y="-3529.28" font-family="Times New Roman,serif" font-size="14.00">leauge of nations</text>
</g>
<!-- Entity20&#45;&gt;Entity66 -->
<g id="edge29" class="edge verb">
<title>Entity20&#45;&gt;Entity66</title>
<path fill="none" stroke="black" d="M2602.6,-3135.13C2578.88,-3200.68 2497.52,-3425.57 2468.8,-3504.95"/>
<polygon fill="black" stroke="black" points="2465.37,-3504.14 2465.26,-3514.74 2471.95,-3506.53 2465.37,-3504.14"/>
<text text-anchor="start" x="2501.7" y="-3323.84" font-family="Times New Roman,serif" font-size="14.00">create</text>
</g>
<!-- Entity39 -->
<g id="node42" class="node entity">
<title>Entity39</title>
<ellipse fill="none" stroke="black" cx="5864.37" cy="-2373.41" rx="57.69" ry="18"/>
<text text-anchor="start" x="5827.87" y="-2369.71" font-family="Times New Roman,serif" font-size="14.00">michael pane</text>
</g>
<!-- Entity39&#45;&gt;Entity44 -->
<g id="edge31" class="edge verb">
<title>Entity39&#45;&gt;Entity44</title>
<path fill="none" stroke="black" d="M5831.85,-2388.6C5715.09,-2443.16 5316.93,-2629.2 5183.97,-2691.32"/>
<polygon fill="black" stroke="black" points="5182.44,-2688.17 5174.86,-2695.58 5185.41,-2694.51 5182.44,-2688.17"/>
<text text-anchor="start" x="5453.91" y="-2543.76" font-family="Times New Roman,serif" font-size="14.00">employee</text>
</g>
<!-- Entity39&#45;&gt;Entity54 -->
<g id="edge50" class="edge verb">
<title>Entity39&#45;&gt;Entity54</title>
<path fill="none" stroke="black" d="M5883.16,-2390.54C5945.28,-2447.15 6144.19,-2628.4 6216.61,-2694.41"/>
<polygon fill="black" stroke="black" points="6214.66,-2697.36 6224.41,-2701.51 6219.38,-2692.19 6214.66,-2697.36"/>
<text text-anchor="start" x="5995.89" y="-2546.27" font-family="Times New Roman,serif" font-size="14.00">employee</text>
</g>
<!-- Entity49&#45;&gt;Entity73 -->
<g id="edge40" class="edge verb">
<title>Entity49&#45;&gt;Entity73</title>
<path fill="none" stroke="black" d="M4712.89,-1539.21C4824.85,-1448.17 5352.21,-1019.38 5478.95,-916.32"/>
<polygon fill="black" stroke="black" points="5481.49,-918.76 5487.04,-909.74 5477.07,-913.33 5481.49,-918.76"/>
<text text-anchor="start" x="5049.92" y="-1231.56" font-family="Times New Roman,serif" font-size="14.00">member</text>
</g>
<!-- Entity42 -->
<g id="node45" class="node entity">
<title>Entity42</title>
<ellipse fill="none" stroke="black" cx="4749.94" cy="-2215.66" rx="39.79" ry="18"/>
<text text-anchor="start" x="4727.44" y="-2211.96" font-family="Times New Roman,serif" font-size="14.00">crowley</text>
</g>
<!-- Entity71 -->
<g id="node46" class="node entity">
<title>Entity71</title>
<ellipse fill="none" stroke="black" cx="4837.66" cy="-2327.64" rx="38.99" ry="18"/>
<text text-anchor="start" x="4815.66" y="-2323.94" font-family="Times New Roman,serif" font-size="14.00">x magic</text>
</g>
<!-- Entity42&#45;&gt;Entity71 -->
<g id="edge35" class="edge verb">
<title>Entity42&#45;&gt;Entity71</title>
<path fill="none" stroke="black" d="M4763.26,-2232.67C4777.82,-2251.25 4801.28,-2281.2 4817.96,-2302.49"/>
<polygon fill="black" stroke="black" points="4815.29,-2304.76 4824.21,-2310.47 4820.8,-2300.44 4815.29,-2304.76"/>
<text text-anchor="start" x="4744.61" y="-2271.38" font-family="Times New Roman,serif" font-size="14.00">member</text>
</g>
<!-- Entity3 -->
<g id="node47" class="node entity">
<title>Entity3</title>
<ellipse fill="none" stroke="black" cx="5542.22" cy="-3406.66" rx="65.79" ry="18"/>
<text text-anchor="start" x="5499.72" y="-3402.96" font-family="Times New Roman,serif" font-size="14.00">arthur m young</text>
</g>
<!-- Entity3&#45;&gt;Entity8 -->
<g id="edge55" class="edge verb">
<title>Entity3&#45;&gt;Entity8</title>
<path fill="none" stroke="black" d="M5582.83,-3420.93C5703.49,-3463.32 6058.95,-3588.21 6179.38,-3630.52"/>
<polygon fill="black" stroke="black" points="6178.37,-3633.87 6188.97,-3633.88 6180.69,-3627.27 6178.37,-3633.87"/>
<text text-anchor="start" x="5835.11" y="-3529.52" font-family="Times New Roman,serif" font-size="14.00">member</text>
</g>
<!-- Entity3&#45;&gt;Entity54 -->
<g id="edge60" class="edge verb">
<title>Entity3&#45;&gt;Entity54</title>
<path fill="none" stroke="black" d="M5559.9,-3389.31C5655.1,-3295.91 6106.46,-2853.03 6218.23,-2743.35"/>
<polygon fill="black" stroke="black" points="6221,-2745.54 6225.68,-2736.04 6216.09,-2740.55 6221,-2745.54"/>
<text text-anchor="start" x="5855.07" y="-3070.13" font-family="Times New Roman,serif" font-size="14.00">create</text>
</g>
<!-- Entity3&#45;&gt;Entity56 -->
<g id="edge36" class="edge verb">
<title>Entity3&#45;&gt;Entity56</title>
<path fill="none" stroke="black" d="M5479.09,-3401.52C5333.71,-3389.68 4975.3,-3360.49 4812.24,-3347.21"/>
<polygon fill="black" stroke="black" points="4812.51,-3343.72 4802.25,-3346.39 4811.94,-3350.69 4812.51,-3343.72"/>
<text text-anchor="start" x="5114.66" y="-3378.16" font-family="Times New Roman,serif" font-size="14.00">study</text>
</g>
<!-- Entity19 -->
<g id="node48" class="node entity">
<title>Entity19</title>
<ellipse fill="none" stroke="black" cx="2916.95" cy="-3289.56" rx="58.49" ry="18"/>
<text text-anchor="start" x="2879.95" y="-3285.86" font-family="Times New Roman,serif" font-size="14.00">richard nixon</text>
</g>
<!-- Entity19&#45;&gt;Entity57 -->
<g id="edge37" class="edge verb">
<title>Entity19&#45;&gt;Entity57</title>
<path fill="none" stroke="black" d="M2921.87,-3271.62C2939.67,-3206.77 3000.72,-2984.29 3022.27,-2905.75"/>
<polygon fill="black" stroke="black" points="3025.65,-2906.64 3024.92,-2896.07 3018.9,-2904.79 3025.65,-2906.64"/>
<text text-anchor="start" x="2962.07" y="-3092.48" font-family="Times New Roman,serif" font-size="14.00">is</text>
</g>
<!-- Entity34 -->
<g id="node49" class="node entity">
<title>Entity34</title>
<ellipse fill="none" stroke="black" cx="1746.09" cy="-18.31" rx="69.59" ry="18"/>
<text text-anchor="start" x="1700.59" y="-14.61" font-family="Times New Roman,serif" font-size="14.00">andrew breitbart</text>
</g>
<!-- Entity34&#45;&gt;Entity65 -->
<g id="edge38" class="edge verb">
<title>Entity34&#45;&gt;Entity65</title>
<path fill="none" stroke="black" d="M1802.98,-28.7C2025.61,-69.37 2836.87,-217.54 3069,-259.94"/>
<polygon fill="black" stroke="black" points="3068.5,-263.4 3078.97,-261.76 3069.76,-256.52 3068.5,-263.4"/>
<text text-anchor="start" x="2401.99" y="-148.12" font-family="Times New Roman,serif" font-size="14.00">create</text>
</g>
<!-- Entity11 -->
<g id="node52" class="node entity">
<title>Entity11</title>
<ellipse fill="none" stroke="black" cx="3331.05" cy="-4521.32" rx="35.19" ry="18"/>
<text text-anchor="start" x="3312.05" y="-4517.62" font-family="Times New Roman,serif" font-size="14.00">obama</text>
</g>
<!-- Entity11&#45;&gt;Entity57 -->
<g id="edge42" class="edge verb">
<title>Entity11&#45;&gt;Entity57</title>
<path fill="none" stroke="black" d="M3327.72,-4503.15C3297.58,-4338.68 3072.16,-3108.76 3035.04,-2906.22"/>
<polygon fill="black" stroke="black" points="3038.43,-2905.31 3033.19,-2896.1 3031.55,-2906.57 3038.43,-2905.31"/>
<text text-anchor="start" x="3171.38" y="-3708.49" font-family="Times New Roman,serif" font-size="14.00">is</text>
</g>
<!-- Entity28 -->
<g id="node54" class="node entity">
<title>Entity28</title>
<ellipse fill="none" stroke="black" cx="1394.13" cy="-2516.94" rx="58.49" ry="18"/>
<text text-anchor="start" x="1357.13" y="-2513.24" font-family="Times New Roman,serif" font-size="14.00">rudolf steiner</text>
</g>
<!-- Entity28&#45;&gt;Entity63 -->
<g id="edge64" class="edge verb">
<title>Entity28&#45;&gt;Entity63</title>
<path fill="none" stroke="black" d="M1395.93,-2534.97C1405.54,-2631.23 1450.81,-3084.76 1462.65,-3203.29"/>
<polygon fill="black" stroke="black" points="1459.18,-3203.79 1463.65,-3213.4 1466.14,-3203.1 1459.18,-3203.79"/>
<text text-anchor="start" x="1383.29" y="-2872.93" font-family="Times New Roman,serif" font-size="14.00">member</text>
</g>
<!-- Entity68 -->
<g id="node55" class="node entity">
<title>Entity68</title>
<ellipse fill="none" stroke="black" cx="286.3" cy="-1164.35" rx="102.08" ry="18"/>
<text text-anchor="start" x="215.8" y="-1160.65" font-family="Times New Roman,serif" font-size="14.00">anthroposophical society</text>
</g>
<!-- Entity28&#45;&gt;Entity68 -->
<g id="edge45" class="edge verb">
<title>Entity28&#45;&gt;Entity68</title>
<path fill="none" stroke="black" d="M1379.72,-2499.34C1261.31,-2354.78 449.74,-1363.9 307.54,-1190.29"/>
<polygon fill="black" stroke="black" points="310.14,-1187.94 301.1,-1182.42 304.73,-1192.37 310.14,-1187.94"/>
<text text-anchor="start" x="809.63" y="-1848.61" font-family="Times New Roman,serif" font-size="14.00">create</text>
</g>
<!-- Entity80 -->
<g id="node57" class="node entity">
<title>Entity80</title>
<ellipse fill="none" stroke="black" cx="4736.94" cy="-959.66" rx="27" ry="18"/>
<text text-anchor="start" x="4726.94" y="-955.96" font-family="Times New Roman,serif" font-size="14.00">foo</text>
</g>
<!-- Entity81 -->
<g id="node58" class="node entity">
<title>Entity81</title>
<ellipse fill="none" stroke="black" cx="4824.66" cy="-1071.64" rx="27" ry="18"/>
<text text-anchor="start" x="4814.66" y="-1067.94" font-family="Times New Roman,serif" font-size="14.00">baz</text>
</g>
<!-- Entity80&#45;&gt;Entity81 -->
<g id="edge53" class="edge verb">
<title>Entity80&#45;&gt;Entity81</title>
<path fill="none" stroke="black" d="M4749.51,-975.7C4764.23,-994.5 4788.76,-1025.82 4805.78,-1047.53"/>
<polygon fill="black" stroke="black" points="4803.19,-1049.91 4812.11,-1055.62 4808.7,-1045.59 4803.19,-1049.91"/>
<text text-anchor="start" x="4757.64" y="-1015.42" font-family="Times New Roman,serif" font-size="14.00">baz</text>
</g>
<!-- Entity23 -->
<g id="node60" class="node entity">
<title>Entity23</title>
<ellipse fill="none" stroke="black" cx="2359.7" cy="-4536.73" rx="53.89" ry="18"/>
<text text-anchor="start" x="2326.2" y="-4533.03" font-family="Times New Roman,serif" font-size="14.00">edgar casey</text>
</g>
<!-- Entity23&#45;&gt;Entity20 -->
<g id="edge58" class="edge verb">
<title>Entity23&#45;&gt;Entity20</title>
<path fill="none" stroke="black" d="M2362.9,-4518.52C2389.36,-4367.93 2571.82,-3329.52 2604.24,-3145"/>
<polygon fill="black" stroke="black" points="2607.72,-3145.45 2606,-3135 2600.82,-3144.24 2607.72,-3145.45"/>
<text text-anchor="start" x="2447.57" y="-3835.56" font-family="Times New Roman,serif" font-size="14.00">advise</text>
</g>
</g>
</svg>
