<?xml version="1.0" encoding="UTF-8" standalone="no"?>
<?xml-stylesheet href="../styles.css" type="text/css"?>
<!DOCTYPE svg PUBLIC "-//W3C//DTD SVG 1.1//EN"
 "http://www.w3.org/Graphics/SVG/1.1/DTD/svg11.dtd">
<!-- Generated by graphviz version 2.47.3 (20210619.1520)
 -->
<!-- Title: G Pages: 1 -->
<svg width="4927pt" height="6016pt"
 viewBox="0.00 0.00 4927.00 6016.00" xmlns="http://www.w3.org/2000/svg" xmlns:xlink="http://www.w3.org/1999/xlink">
<g id="graph0" class="graph" transform="scale(1 1) rotate(0) translate(4 6012)">
<title>G</title>
<polygon fill="white" stroke="transparent" points="-4,4 -4,-6012 4923,-6012 4923,4 -4,4"/>
<!-- Entity5 -->
<g id="node1" class="node entity">
<title>Entity5</title>
<ellipse fill="none" stroke="black" cx="2139.84" cy="-3253.98" rx="75.29" ry="18"/>
<text text-anchor="start" x="2089.84" y="-3250.28" font-family="Times New Roman,serif" font-size="14.00">lee harvey oswald</text>
</g>
<!-- Entity7 -->
<g id="node2" class="node entity">
<title>Entity7</title>
<ellipse fill="none" stroke="black" cx="1587.5" cy="-2792.7" rx="64.19" ry="18"/>
<text text-anchor="start" x="1546" y="-2789" font-family="Times New Roman,serif" font-size="14.00">john f kennedy</text>
</g>
<!-- Entity5&#45;&gt;Entity7 -->
<g id="edge1" class="edge verb">
<title>Entity5&#45;&gt;Entity7</title>
<path fill="none" stroke="black" d="M2118.86,-3236.46C2033.67,-3165.31 1713.47,-2897.89 1615.9,-2816.41"/>
<polygon fill="black" stroke="black" points="1618.13,-2813.71 1608.21,-2809.99 1613.64,-2819.08 1618.13,-2813.71"/>
<text text-anchor="start" x="1805.38" y="-3030.24" font-family="Times New Roman,serif" font-size="14.00">assassinate</text>
</g>
<!-- Entity45 -->
<g id="node26" class="node entity">
<title>Entity45</title>
<ellipse fill="none" stroke="black" cx="2718.53" cy="-3609.14" rx="59.29" ry="18"/>
<text text-anchor="start" x="2681.03" y="-3605.44" font-family="Times New Roman,serif" font-size="14.00">guy bannister</text>
</g>
<!-- Entity5&#45;&gt;Entity45 -->
<g id="edge19" class="edge verb">
<title>Entity5&#45;&gt;Entity45</title>
<path fill="none" stroke="black" d="M2167.36,-3270.88C2262.52,-3329.28 2577.56,-3522.63 2683.46,-3587.61"/>
<polygon fill="black" stroke="black" points="2681.82,-3590.72 2692.17,-3592.96 2685.48,-3584.75 2681.82,-3590.72"/>
<text text-anchor="start" x="2371.41" y="-3433.04" font-family="Times New Roman,serif" font-size="14.00">employee</text>
</g>
<!-- Entity53 -->
<g id="node29" class="node entity">
<title>Entity53</title>
<ellipse fill="none" stroke="black" cx="1173.82" cy="-2375.55" rx="31.4" ry="18"/>
<text text-anchor="start" x="1157.82" y="-2371.85" font-family="Times New Roman,serif" font-size="14.00">potus</text>
</g>
<!-- Entity7&#45;&gt;Entity53 -->
<g id="edge22" class="edge verb">
<title>Entity7&#45;&gt;Entity53</title>
<path fill="none" stroke="black" d="M1570.25,-2775.3C1504.61,-2709.11 1270.38,-2472.92 1196.39,-2398.31"/>
<polygon fill="black" stroke="black" points="1198.87,-2395.84 1189.34,-2391.2 1193.9,-2400.77 1198.87,-2395.84"/>
<text text-anchor="start" x="1373.32" y="-2590.6" font-family="Times New Roman,serif" font-size="14.00">is</text>
</g>
<!-- Entity3 -->
<g id="node3" class="node entity">
<title>Entity3</title>
<ellipse fill="none" stroke="black" cx="3819.13" cy="-2090.61" rx="65.79" ry="18"/>
<text text-anchor="start" x="3776.63" y="-2086.91" font-family="Times New Roman,serif" font-size="14.00">arthur m young</text>
</g>
<!-- Entity9 -->
<g id="node4" class="node entity">
<title>Entity9</title>
<ellipse fill="none" stroke="black" cx="4323.03" cy="-1789.07" rx="38.19" ry="18"/>
<text text-anchor="start" x="4301.53" y="-1785.37" font-family="Times New Roman,serif" font-size="14.00">the nine</text>
</g>
<!-- Entity3&#45;&gt;Entity9 -->
<g id="edge2" class="edge verb">
<title>Entity3&#45;&gt;Entity9</title>
<path fill="none" stroke="black" d="M3846.58,-2074.18C3932.74,-2022.62 4197.6,-1864.13 4290.46,-1808.56"/>
<polygon fill="black" stroke="black" points="4292.36,-1811.5 4299.15,-1803.36 4288.77,-1805.49 4292.36,-1811.5"/>
<text text-anchor="start" x="4022.52" y="-1945.17" font-family="Times New Roman,serif" font-size="14.00">member</text>
</g>
<!-- Entity56 -->
<g id="node28" class="node entity">
<title>Entity56</title>
<ellipse fill="none" stroke="black" cx="3923.59" cy="-2749.95" rx="53.89" ry="18"/>
<text text-anchor="start" x="3890.09" y="-2746.25" font-family="Times New Roman,serif" font-size="14.00">bell aviation</text>
</g>
<!-- Entity3&#45;&gt;Entity56 -->
<g id="edge21" class="edge verb">
<title>Entity3&#45;&gt;Entity56</title>
<path fill="none" stroke="black" d="M3822.03,-2108.93C3836.56,-2200.62 3901.36,-2609.6 3919.09,-2721.54"/>
<polygon fill="black" stroke="black" points="3915.68,-2722.38 3920.7,-2731.71 3922.6,-2721.29 3915.68,-2722.38"/>
<text text-anchor="start" x="3836.56" y="-2419.04" font-family="Times New Roman,serif" font-size="14.00">create</text>
</g>
<!-- Entity55 -->
<g id="node39" class="node entity">
<title>Entity55</title>
<ellipse fill="none" stroke="black" cx="3140.83" cy="-1713.5" rx="77.19" ry="18"/>
<text text-anchor="start" x="3089.33" y="-1709.8" font-family="Times New Roman,serif" font-size="14.00">psi&#45;consciousness</text>
</g>
<!-- Entity3&#45;&gt;Entity55 -->
<g id="edge54" class="edge verb">
<title>Entity3&#45;&gt;Entity55</title>
<path fill="none" stroke="black" d="M3789.98,-2074.4C3681.75,-2014.23 3302.85,-1803.57 3179.77,-1735.15"/>
<polygon fill="black" stroke="black" points="3181.46,-1732.08 3171.02,-1730.28 3178.06,-1738.2 3181.46,-1732.08"/>
<text text-anchor="start" x="3453.88" y="-1908.57" font-family="Times New Roman,serif" font-size="14.00">study</text>
</g>
<!-- Entity52 -->
<g id="node44" class="node entity">
<title>Entity52</title>
<ellipse fill="none" stroke="black" cx="4824.51" cy="-1487.5" rx="94.48" ry="18"/>
<text text-anchor="start" x="4760.01" y="-1483.8" font-family="Times New Roman,serif" font-size="14.00">egyptian gods in a ship</text>
</g>
<!-- Entity9&#45;&gt;Entity52 -->
<g id="edge37" class="edge verb">
<title>Entity9&#45;&gt;Entity52</title>
<path fill="none" stroke="black" d="M4346.88,-1774.72C4427.39,-1726.31 4689.49,-1568.69 4787.28,-1509.89"/>
<polygon fill="black" stroke="black" points="4789.18,-1512.83 4795.94,-1504.68 4785.57,-1506.83 4789.18,-1512.83"/>
<text text-anchor="start" x="4537.08" y="-1646.11" font-family="Times New Roman,serif" font-size="14.00">claim</text>
</g>
<!-- Entity30 -->
<g id="node5" class="node entity">
<title>Entity30</title>
<ellipse fill="none" stroke="black" cx="2013.4" cy="-1715.94" rx="50.09" ry="18"/>
<text text-anchor="start" x="1982.9" y="-1712.24" font-family="Times New Roman,serif" font-size="14.00">john trump</text>
</g>
<!-- Entity17 -->
<g id="node6" class="node entity">
<title>Entity17</title>
<ellipse fill="none" stroke="black" cx="2469.44" cy="-1813.74" rx="27" ry="18"/>
<text text-anchor="start" x="2461.44" y="-1810.04" font-family="Times New Roman,serif" font-size="14.00">cia</text>
</g>
<!-- Entity30&#45;&gt;Entity17 -->
<g id="edge3" class="edge verb">
<title>Entity30&#45;&gt;Entity17</title>
<path fill="none" stroke="black" d="M2056.71,-1725.22C2146.37,-1744.45 2350.82,-1788.3 2433.63,-1806.06"/>
<polygon fill="black" stroke="black" points="2433.06,-1809.51 2443.57,-1808.19 2434.53,-1802.67 2433.06,-1809.51"/>
<text text-anchor="start" x="2199.17" y="-1769.44" font-family="Times New Roman,serif" font-size="14.00">member</text>
</g>
<!-- Entity67 -->
<g id="node47" class="node entity">
<title>Entity67</title>
<ellipse fill="none" stroke="black" cx="2355.22" cy="-1921.69" rx="50.89" ry="18"/>
<text text-anchor="start" x="2324.22" y="-1917.99" font-family="Times New Roman,serif" font-size="14.00">nikola tesla</text>
</g>
<!-- Entity30&#45;&gt;Entity67 -->
<g id="edge41" class="edge verb">
<title>Entity30&#45;&gt;Entity67</title>
<path fill="none" stroke="black" d="M2039.09,-1731.4C2099.72,-1767.89 2251.74,-1859.4 2320.49,-1900.78"/>
<polygon fill="black" stroke="black" points="2318.86,-1903.89 2329.23,-1906.05 2322.47,-1897.89 2318.86,-1903.89"/>
<text text-anchor="start" x="2148.79" y="-1819.89" font-family="Times New Roman,serif" font-size="14.00">study</text>
</g>
<!-- Entity17&#45;&gt;Entity55 -->
<g id="edge30" class="edge verb">
<title>Entity17&#45;&gt;Entity55</title>
<path fill="none" stroke="black" d="M2496.18,-1809.75C2591.48,-1795.52 2916.83,-1746.94 3065.55,-1724.74"/>
<polygon fill="black" stroke="black" points="3066.14,-1728.19 3075.52,-1723.25 3065.11,-1721.26 3066.14,-1728.19"/>
<text text-anchor="start" x="2716.86" y="-1771.04" font-family="Times New Roman,serif" font-size="14.00">investigates</text>
</g>
<!-- Entity54 -->
<g id="node54" class="node entity">
<title>Entity54</title>
<ellipse fill="none" stroke="black" cx="2062.11" cy="-2010.68" rx="27" ry="18"/>
<text text-anchor="start" x="2052.61" y="-2006.98" font-family="Times New Roman,serif" font-size="14.00">ufo</text>
</g>
<!-- Entity17&#45;&gt;Entity54 -->
<g id="edge55" class="edge verb">
<title>Entity17&#45;&gt;Entity54</title>
<path fill="none" stroke="black" d="M2447.54,-1824.33C2379.72,-1857.12 2172.94,-1957.1 2093.58,-1995.47"/>
<polygon fill="black" stroke="black" points="2091.6,-1992.54 2084.12,-2000.04 2094.65,-1998.84 2091.6,-1992.54"/>
<text text-anchor="start" x="2206.56" y="-1913.7" font-family="Times New Roman,serif" font-size="14.00">investigates</text>
</g>
<!-- Entity4 -->
<g id="node7" class="node entity">
<title>Entity4</title>
<ellipse fill="none" stroke="black" cx="4834.85" cy="-1762.31" rx="74.99" ry="18"/>
<text text-anchor="start" x="4785.35" y="-1758.61" font-family="Times New Roman,serif" font-size="14.00">gene roddenberry</text>
</g>
<!-- Entity4&#45;&gt;Entity9 -->
<g id="edge4" class="edge verb">
<title>Entity4&#45;&gt;Entity9</title>
<path fill="none" stroke="black" d="M4761.79,-1766.13C4655.65,-1771.68 4461.67,-1781.82 4371.5,-1786.53"/>
<polygon fill="black" stroke="black" points="4371.1,-1783.05 4361.29,-1787.07 4371.46,-1790.04 4371.1,-1783.05"/>
<text text-anchor="start" x="4462.65" y="-1780.13" font-family="Times New Roman,serif" font-size="14.00">claiemd to channel</text>
</g>
<!-- Entity2 -->
<g id="node8" class="node entity">
<title>Entity2</title>
<ellipse fill="none" stroke="black" cx="3866.65" cy="-1515.66" rx="64.19" ry="18"/>
<text text-anchor="start" x="3825.15" y="-1511.96" font-family="Times New Roman,serif" font-size="14.00">andre puharich</text>
</g>
<!-- Entity1 -->
<g id="node9" class="node entity">
<title>Entity1</title>
<ellipse fill="none" stroke="black" cx="4184.44" cy="-1426.47" rx="41.69" ry="18"/>
<text text-anchor="start" x="4160.44" y="-1422.77" font-family="Times New Roman,serif" font-size="14.00">uri geller</text>
</g>
<!-- Entity2&#45;&gt;Entity1 -->
<g id="edge5" class="edge verb">
<title>Entity2&#45;&gt;Entity1</title>
<path fill="none" stroke="black" d="M3912.18,-1502.88C3972.7,-1485.9 4078.99,-1456.07 4139.3,-1439.14"/>
<polygon fill="black" stroke="black" points="4140.61,-1442.41 4149.29,-1436.33 4138.71,-1435.67 4140.61,-1442.41"/>
<text text-anchor="start" x="3973.74" y="-1474.81" font-family="Times New Roman,serif" font-size="14.00">sponsore</text>
</g>
<!-- Entity1&#45;&gt;Entity9 -->
<g id="edge6" class="edge verb">
<title>Entity1&#45;&gt;Entity9</title>
<path fill="none" stroke="black" d="M4191.31,-1444.45C4213.8,-1503.29 4285.31,-1690.37 4312.45,-1761.37"/>
<polygon fill="black" stroke="black" points="4309.28,-1762.89 4316.12,-1770.98 4315.82,-1760.39 4309.28,-1762.89"/>
<text text-anchor="start" x="4147.88" y="-1606.71" font-family="Times New Roman,serif" font-size="14.00">claiemd to channel</text>
</g>
<!-- Entity6 -->
<g id="node10" class="node entity">
<title>Entity6</title>
<ellipse fill="none" stroke="black" cx="3675.61" cy="-1407.61" rx="68.49" ry="18"/>
<text text-anchor="start" x="3631.11" y="-1403.91" font-family="Times New Roman,serif" font-size="14.00">jeffrey mishlove</text>
</g>
<!-- Entity6&#45;&gt;Entity1 -->
<g id="edge7" class="edge verb">
<title>Entity6&#45;&gt;Entity1</title>
<path fill="none" stroke="black" d="M3743.44,-1410.13C3846.48,-1413.95 4040.21,-1421.12 4132.72,-1424.55"/>
<polygon fill="black" stroke="black" points="4132.83,-1428.06 4142.95,-1424.93 4133.09,-1421.06 4132.83,-1428.06"/>
<text text-anchor="start" x="3890.08" y="-1421.14" font-family="Times New Roman,serif" font-size="14.00">promote</text>
</g>
<!-- Entity6&#45;&gt;Entity55 -->
<g id="edge57" class="edge verb">
<title>Entity6&#45;&gt;Entity55</title>
<path fill="none" stroke="black" d="M3641.25,-1423.29C3544.06,-1473.84 3268.28,-1631.55 3173.37,-1690.83"/>
<polygon fill="black" stroke="black" points="3171.36,-1687.96 3164.76,-1696.25 3175.09,-1693.88 3171.36,-1687.96"/>
<text text-anchor="start" x="3376.31" y="-1560.86" font-family="Times New Roman,serif" font-size="14.00">study</text>
</g>
<!-- Entity6&#45;&gt;Entity55 -->
<g id="edge60" class="edge verb">
<title>Entity6&#45;&gt;Entity55</title>
<path fill="none" stroke="black" d="M3652.06,-1424.62C3569.68,-1477.07 3293.84,-1635.15 3185.26,-1692.54"/>
<polygon fill="black" stroke="black" points="3183.43,-1689.55 3176.2,-1697.29 3186.68,-1695.74 3183.43,-1689.55"/>
<text text-anchor="start" x="3418.66" y="-1562.38" font-family="Times New Roman,serif" font-size="14.00">investigates</text>
</g>
<!-- Entity11 -->
<g id="node11" class="node entity">
<title>Entity11</title>
<ellipse fill="none" stroke="black" cx="1052.8" cy="-1947.12" rx="68.49" ry="18"/>
<text text-anchor="start" x="1008.3" y="-1943.42" font-family="Times New Roman,serif" font-size="14.00">george hw bush</text>
</g>
<!-- Entity18 -->
<g id="node12" class="node entity">
<title>Entity18</title>
<ellipse fill="none" stroke="black" cx="889.62" cy="-2055.07" rx="63.89" ry="18"/>
<text text-anchor="start" x="848.62" y="-2051.37" font-family="Times New Roman,serif" font-size="14.00">george w bush</text>
</g>
<!-- Entity11&#45;&gt;Entity18 -->
<g id="edge8" class="edge verb">
<title>Entity11&#45;&gt;Entity18</title>
<path fill="none" stroke="black" d="M1027.3,-1963.99C999.32,-1982.5 954.27,-2012.3 923.37,-2032.74"/>
<polygon fill="black" stroke="black" points="921.08,-2030.06 914.67,-2038.5 924.94,-2035.9 921.08,-2030.06"/>
<text text-anchor="start" x="943.34" y="-2002.16" font-family="Times New Roman,serif" font-size="14.00">father</text>
</g>
<!-- Entity11&#45;&gt;Entity53 -->
<g id="edge48" class="edge verb">
<title>Entity11&#45;&gt;Entity53</title>
<path fill="none" stroke="black" d="M1057.92,-1965.26C1076.87,-2032.32 1143.04,-2266.6 1165.94,-2347.68"/>
<polygon fill="black" stroke="black" points="1162.67,-2348.97 1168.76,-2357.64 1169.41,-2347.07 1162.67,-2348.97"/>
<text text-anchor="start" x="1101.93" y="-2160.27" font-family="Times New Roman,serif" font-size="14.00">is</text>
</g>
<!-- Entity18&#45;&gt;Entity53 -->
<g id="edge58" class="edge verb">
<title>Entity18&#45;&gt;Entity53</title>
<path fill="none" stroke="black" d="M905.3,-2072.76C953.3,-2126.88 1098.24,-2290.32 1152.77,-2351.81"/>
<polygon fill="black" stroke="black" points="1150.29,-2354.3 1159.55,-2359.46 1155.53,-2349.65 1150.29,-2354.3"/>
<text text-anchor="start" x="1019.03" y="-2216.08" font-family="Times New Roman,serif" font-size="14.00">is</text>
</g>
<!-- Entity16 -->
<g id="node13" class="node entity">
<title>Entity16</title>
<ellipse fill="none" stroke="black" cx="3180.35" cy="-1605.44" rx="63.89" ry="18"/>
<text text-anchor="start" x="3139.35" y="-1601.74" font-family="Times New Roman,serif" font-size="14.00">robert bigelow</text>
</g>
<!-- Entity16&#45;&gt;Entity6 -->
<g id="edge9" class="edge verb">
<title>Entity16&#45;&gt;Entity6</title>
<path fill="none" stroke="black" d="M3217.17,-1590.73C3305.69,-1555.38 3530.33,-1465.64 3628.5,-1426.43"/>
<polygon fill="black" stroke="black" points="3629.89,-1429.65 3637.87,-1422.69 3627.29,-1423.15 3629.89,-1429.65"/>
<text text-anchor="start" x="3390.84" y="-1512.38" font-family="Times New Roman,serif" font-size="14.00">funds</text>
</g>
<!-- Entity16&#45;&gt;Entity55 -->
<g id="edge49" class="edge verb">
<title>Entity16&#45;&gt;Entity55</title>
<path fill="none" stroke="black" d="M3173.65,-1623.77C3167.42,-1640.79 3158.07,-1666.38 3150.93,-1685.87"/>
<polygon fill="black" stroke="black" points="3147.58,-1684.84 3147.44,-1695.44 3154.16,-1687.25 3147.58,-1684.84"/>
<text text-anchor="start" x="3098.29" y="-1658.62" font-family="Times New Roman,serif" font-size="14.00">investigates</text>
</g>
<!-- Entity26 -->
<g id="node14" class="node entity">
<title>Entity26</title>
<ellipse fill="none" stroke="black" cx="154.01" cy="-1956.05" rx="53.89" ry="18"/>
<text text-anchor="start" x="120.51" y="-1952.35" font-family="Times New Roman,serif" font-size="14.00">edgar casey</text>
</g>
<!-- Entity27 -->
<g id="node15" class="node entity">
<title>Entity27</title>
<ellipse fill="none" stroke="black" cx="684.32" cy="-2163.08" rx="71.49" ry="18"/>
<text text-anchor="start" x="637.32" y="-2159.38" font-family="Times New Roman,serif" font-size="14.00">woodrow wilson</text>
</g>
<!-- Entity26&#45;&gt;Entity27 -->
<g id="edge10" class="edge verb">
<title>Entity26&#45;&gt;Entity27</title>
<path fill="none" stroke="black" d="M189.21,-1969.8C281.41,-2005.79 530.09,-2102.87 635.76,-2144.12"/>
<polygon fill="black" stroke="black" points="634.64,-2147.44 645.23,-2147.82 637.18,-2140.92 634.64,-2147.44"/>
<text text-anchor="start" x="376.48" y="-2060.76" font-family="Times New Roman,serif" font-size="14.00">advise</text>
</g>
<!-- Entity27&#45;&gt;Entity53 -->
<g id="edge40" class="edge verb">
<title>Entity27&#45;&gt;Entity53</title>
<path fill="none" stroke="black" d="M720.32,-2178.71C811.4,-2218.24 1050.12,-2321.86 1139.43,-2360.62"/>
<polygon fill="black" stroke="black" points="1138.27,-2363.93 1148.83,-2364.7 1141.05,-2357.51 1138.27,-2363.93"/>
<text text-anchor="start" x="919.88" y="-2273.46" font-family="Times New Roman,serif" font-size="14.00">is</text>
</g>
<!-- Entity58 -->
<g id="node59" class="node entity">
<title>Entity58</title>
<ellipse fill="none" stroke="black" cx="1295.16" cy="-2065.84" rx="71.49" ry="18"/>
<text text-anchor="start" x="1248.16" y="-2062.14" font-family="Times New Roman,serif" font-size="14.00">leauge of nations</text>
</g>
<!-- Entity27&#45;&gt;Entity58 -->
<g id="edge65" class="edge verb">
<title>Entity27&#45;&gt;Entity58</title>
<path fill="none" stroke="black" d="M744.85,-2153.45C858.58,-2135.34 1103.64,-2096.33 1224.63,-2077.07"/>
<polygon fill="black" stroke="black" points="1225.21,-2080.52 1234.54,-2075.49 1224.11,-2073.61 1225.21,-2080.52"/>
<text text-anchor="start" x="950.74" y="-2119.06" font-family="Times New Roman,serif" font-size="14.00">create</text>
</g>
<!-- Entity25 -->
<g id="node16" class="node entity">
<title>Entity25</title>
<ellipse fill="none" stroke="black" cx="1476.16" cy="-929.26" rx="58.49" ry="18"/>
<text text-anchor="start" x="1439.16" y="-925.56" font-family="Times New Roman,serif" font-size="14.00">steve bannon</text>
</g>
<!-- Entity8 -->
<g id="node17" class="node entity">
<title>Entity8</title>
<ellipse fill="none" stroke="black" cx="1423.41" cy="-1710.76" rx="59.59" ry="18"/>
<text text-anchor="start" x="1385.41" y="-1707.06" font-family="Times New Roman,serif" font-size="14.00">donald trump</text>
</g>
<!-- Entity25&#45;&gt;Entity8 -->
<g id="edge11" class="edge verb">
<title>Entity25&#45;&gt;Entity8</title>
<path fill="none" stroke="black" d="M1472.71,-947.27C1459.93,-1049.54 1425.53,-1556.84 1422.59,-1682.55"/>
<polygon fill="black" stroke="black" points="1419.09,-1682.48 1422.41,-1692.54 1426.08,-1682.61 1419.09,-1682.48"/>
<text text-anchor="start" x="1399.65" y="-1318.71" font-family="Times New Roman,serif" font-size="14.00">promote</text>
</g>
<!-- Entity25&#45;&gt;Entity8 -->
<g id="edge13" class="edge verb">
<title>Entity25&#45;&gt;Entity8</title>
<path fill="none" stroke="black" d="M1477.16,-947.57C1476.07,-1050.52 1442.07,-1556.85 1428.06,-1682.5"/>
<polygon fill="black" stroke="black" points="1424.58,-1682.16 1426.89,-1692.5 1431.53,-1682.98 1424.58,-1682.16"/>
<text text-anchor="start" x="1452.61" y="-1318.84" font-family="Times New Roman,serif" font-size="14.00">advise</text>
</g>
<!-- Entity76 -->
<g id="node41" class="node entity">
<title>Entity76</title>
<ellipse fill="none" stroke="black" cx="1734.77" cy="-359.57" rx="77.19" ry="18"/>
<text text-anchor="start" x="1683.27" y="-355.87" font-family="Times New Roman,serif" font-size="14.00">hollywood movies</text>
</g>
<!-- Entity25&#45;&gt;Entity76 -->
<g id="edge32" class="edge verb">
<title>Entity25&#45;&gt;Entity76</title>
<path fill="none" stroke="black" d="M1484.32,-911.27C1521.76,-828.8 1677.07,-486.68 1722.34,-386.96"/>
<polygon fill="black" stroke="black" points="1725.65,-388.12 1726.6,-377.56 1719.28,-385.22 1725.65,-388.12"/>
<text text-anchor="start" x="1556.33" y="-652.91" font-family="Times New Roman,serif" font-size="14.00">produce</text>
</g>
<!-- Entity64 -->
<g id="node42" class="node entity">
<title>Entity64</title>
<ellipse fill="none" stroke="black" cx="1387.51" cy="-421.71" rx="38.19" ry="18"/>
<text text-anchor="start" x="1366.01" y="-418.01" font-family="Times New Roman,serif" font-size="14.00">us navy</text>
</g>
<!-- Entity25&#45;&gt;Entity64 -->
<g id="edge34" class="edge verb">
<title>Entity25&#45;&gt;Entity64</title>
<path fill="none" stroke="black" d="M1473,-911.19C1459.75,-835.35 1408.57,-542.31 1392.42,-449.84"/>
<polygon fill="black" stroke="black" points="1395.84,-449.08 1390.67,-439.83 1388.94,-450.28 1395.84,-449.08"/>
<text text-anchor="start" x="1386.71" y="-684.32" font-family="Times New Roman,serif" font-size="14.00">member</text>
</g>
<!-- Entity77 -->
<g id="node49" class="node entity">
<title>Entity77</title>
<ellipse fill="none" stroke="black" cx="1697.58" cy="-471.06" rx="64.99" ry="18"/>
<text text-anchor="start" x="1655.58" y="-467.36" font-family="Times New Roman,serif" font-size="14.00">goldman sachs</text>
</g>
<!-- Entity25&#45;&gt;Entity77 -->
<g id="edge45" class="edge verb">
<title>Entity25&#45;&gt;Entity77</title>
<path fill="none" stroke="black" d="M1484.84,-911.29C1518.87,-840.88 1643.32,-583.34 1684.35,-498.42"/>
<polygon fill="black" stroke="black" points="1687.52,-499.92 1688.72,-489.39 1681.21,-496.88 1687.52,-499.92"/>
<text text-anchor="start" x="1530.6" y="-708.66" font-family="Times New Roman,serif" font-size="14.00">employee</text>
</g>
<!-- Entity63 -->
<g id="node51" class="node entity">
<title>Entity63</title>
<ellipse fill="none" stroke="black" cx="1134.24" cy="-529.8" rx="53.09" ry="18"/>
<text text-anchor="start" x="1101.24" y="-526.1" font-family="Times New Roman,serif" font-size="14.00">biosphere 2</text>
</g>
<!-- Entity25&#45;&gt;Entity63 -->
<g id="edge50" class="edge verb">
<title>Entity25&#45;&gt;Entity63</title>
<path fill="none" stroke="black" d="M1461.25,-911.83C1407.04,-848.5 1220.25,-630.29 1156.09,-555.33"/>
<polygon fill="black" stroke="black" points="1158.39,-552.63 1149.23,-547.31 1153.07,-557.19 1158.39,-552.63"/>
<text text-anchor="start" x="1274.67" y="-737.38" font-family="Times New Roman,serif" font-size="14.00">create</text>
</g>
<!-- Entity65 -->
<g id="node55" class="node entity">
<title>Entity65</title>
<ellipse fill="none" stroke="black" cx="1969.35" cy="-579.14" rx="61.99" ry="18"/>
<text text-anchor="start" x="1929.85" y="-575.44" font-family="Times New Roman,serif" font-size="14.00">breitbart news</text>
</g>
<!-- Entity25&#45;&gt;Entity65 -->
<g id="edge56" class="edge verb">
<title>Entity25&#45;&gt;Entity65</title>
<path fill="none" stroke="black" d="M1499.61,-912.6C1580.1,-855.47 1845.15,-667.31 1937.38,-601.84"/>
<polygon fill="black" stroke="black" points="1939.62,-604.53 1945.75,-595.89 1935.57,-598.83 1939.62,-604.53"/>
<text text-anchor="start" x="1684.5" y="-761.02" font-family="Times New Roman,serif" font-size="14.00">create</text>
</g>
<!-- Entity61 -->
<g id="node60" class="node entity">
<title>Entity61</title>
<ellipse fill="none" stroke="black" cx="1089.48" cy="-713.64" rx="35.19" ry="18"/>
<text text-anchor="start" x="1070.48" y="-709.94" font-family="Times New Roman,serif" font-size="14.00">gurgev</text>
</g>
<!-- Entity25&#45;&gt;Entity61 -->
<g id="edge66" class="edge verb">
<title>Entity25&#45;&gt;Entity61</title>
<path fill="none" stroke="black" d="M1447.72,-913.4C1377.64,-874.32 1196.92,-773.55 1122.38,-731.98"/>
<polygon fill="black" stroke="black" points="1123.85,-728.8 1113.41,-726.98 1120.44,-734.91 1123.85,-728.8"/>
<text text-anchor="start" x="1254.05" y="-826.49" font-family="Times New Roman,serif" font-size="14.00">study</text>
</g>
<!-- Entity8&#45;&gt;Entity30 -->
<g id="edge12" class="edge verb">
<title>Entity8&#45;&gt;Entity30</title>
<path fill="none" stroke="black" d="M1483.23,-1711.29C1596.15,-1712.28 1839.55,-1714.41 1952.95,-1715.41"/>
<polygon fill="black" stroke="black" points="1953.15,-1718.91 1963.19,-1715.49 1953.22,-1711.91 1953.15,-1718.91"/>
<text text-anchor="start" x="1675.09" y="-1717.15" font-family="Times New Roman,serif" font-size="14.00">nephew</text>
</g>
<!-- Entity8&#45;&gt;Entity53 -->
<g id="edge29" class="edge verb">
<title>Entity8&#45;&gt;Entity53</title>
<path fill="none" stroke="black" d="M1416.6,-1728.89C1382.02,-1821.01 1225.74,-2237.24 1184.06,-2348.26"/>
<polygon fill="black" stroke="black" points="1180.74,-2347.15 1180.5,-2357.75 1187.29,-2349.62 1180.74,-2347.15"/>
<text text-anchor="start" x="1290.33" y="-2027.37" font-family="Times New Roman,serif" font-size="14.00">is</text>
</g>
<!-- Entity34 -->
<g id="node18" class="node entity">
<title>Entity34</title>
<ellipse fill="none" stroke="black" cx="737.71" cy="-3875.63" rx="90.98" ry="18"/>
<text text-anchor="start" x="675.71" y="-3871.93" font-family="Times New Roman,serif" font-size="14.00">emma hardinge&#45;britten</text>
</g>
<!-- Entity38 -->
<g id="node19" class="node entity">
<title>Entity38</title>
<ellipse fill="none" stroke="black" cx="977.54" cy="-3032.04" rx="67.69" ry="18"/>
<text text-anchor="start" x="933.54" y="-3028.34" font-family="Times New Roman,serif" font-size="14.00">abraham lincoln</text>
</g>
<!-- Entity34&#45;&gt;Entity38 -->
<g id="edge14" class="edge verb">
<title>Entity34&#45;&gt;Entity38</title>
<path fill="none" stroke="black" d="M742.83,-3857.62C773.43,-3749.97 932.09,-3191.89 969.59,-3060"/>
<polygon fill="black" stroke="black" points="973,-3060.81 972.37,-3050.24 966.26,-3058.9 973,-3060.81"/>
<text text-anchor="start" x="777.21" y="-3462.61" font-family="Times New Roman,serif" font-size="14.00">spokesperson</text>
</g>
<!-- Entity59 -->
<g id="node33" class="node entity">
<title>Entity59</title>
<ellipse fill="none" stroke="black" cx="736.17" cy="-4733.16" rx="85.29" ry="18"/>
<text text-anchor="start" x="678.67" y="-4729.46" font-family="Times New Roman,serif" font-size="14.00">theosophical society</text>
</g>
<!-- Entity34&#45;&gt;Entity59 -->
<g id="edge35" class="edge verb">
<title>Entity34&#45;&gt;Entity59</title>
<path fill="none" stroke="black" d="M737.68,-3893.93C737.48,-4003.36 736.46,-4570.75 736.22,-4704.77"/>
<polygon fill="black" stroke="black" points="732.72,-4705.02 736.2,-4715.02 739.72,-4705.03 732.72,-4705.02"/>
<text text-anchor="start" x="702.95" y="-4303.15" font-family="Times New Roman,serif" font-size="14.00">create</text>
</g>
<!-- Entity68 -->
<g id="node50" class="node entity">
<title>Entity68</title>
<ellipse fill="none" stroke="black" cx="487.37" cy="-4364.18" rx="39.79" ry="18"/>
<text text-anchor="start" x="464.87" y="-4360.48" font-family="Times New Roman,serif" font-size="14.00">medium</text>
</g>
<!-- Entity34&#45;&gt;Entity68 -->
<g id="edge47" class="edge verb">
<title>Entity34&#45;&gt;Entity68</title>
<path fill="none" stroke="black" d="M728.5,-3893.59C690.58,-3967.6 546.35,-4249.07 501.06,-4337.46"/>
<polygon fill="black" stroke="black" points="497.84,-4336.07 496.4,-4346.56 504.07,-4339.26 497.84,-4336.07"/>
<text text-anchor="start" x="604.78" y="-4119.32" font-family="Times New Roman,serif" font-size="14.00">is</text>
</g>
<!-- Entity69 -->
<g id="node58" class="node entity">
<title>Entity69</title>
<ellipse fill="none" stroke="black" cx="226.59" cy="-4215.42" rx="55.79" ry="18"/>
<text text-anchor="start" x="191.59" y="-4211.72" font-family="Times New Roman,serif" font-size="14.00">orphic circle</text>
</g>
<!-- Entity34&#45;&gt;Entity69 -->
<g id="edge63" class="edge verb">
<title>Entity34&#45;&gt;Entity69</title>
<path fill="none" stroke="black" d="M711.66,-3892.94C626.14,-3949.79 354.06,-4130.68 259.41,-4193.59"/>
<polygon fill="black" stroke="black" points="257.47,-4190.68 251.08,-4199.13 261.35,-4196.51 257.47,-4190.68"/>
<text text-anchor="start" x="439.54" y="-4047.07" font-family="Times New Roman,serif" font-size="14.00">member</text>
</g>
<!-- Entity38&#45;&gt;Entity53 -->
<g id="edge51" class="edge verb">
<title>Entity38&#45;&gt;Entity53</title>
<path fill="none" stroke="black" d="M982.99,-3013.8C1010.34,-2922.31 1132.55,-2513.57 1165.57,-2403.13"/>
<polygon fill="black" stroke="black" points="1168.97,-2403.98 1168.48,-2393.39 1162.26,-2401.97 1168.97,-2403.98"/>
<text text-anchor="start" x="1064.28" y="-2712.26" font-family="Times New Roman,serif" font-size="14.00">is</text>
</g>
<!-- Entity37 -->
<g id="node20" class="node entity">
<title>Entity37</title>
<ellipse fill="none" stroke="black" cx="3998.35" cy="-3378.6" rx="74.99" ry="18"/>
<text text-anchor="start" x="3948.85" y="-3374.9" font-family="Times New Roman,serif" font-size="14.00">walter dornberger</text>
</g>
<!-- Entity51 -->
<g id="node21" class="node entity">
<title>Entity51</title>
<ellipse fill="none" stroke="black" cx="3654.45" cy="-3806.02" rx="32.49" ry="18"/>
<text text-anchor="start" x="3637.45" y="-3802.32" font-family="Times New Roman,serif" font-size="14.00">nsdap</text>
</g>
<!-- Entity37&#45;&gt;Entity51 -->
<g id="edge15" class="edge verb">
<title>Entity37&#45;&gt;Entity51</title>
<path fill="none" stroke="black" d="M3984.01,-3396.42C3929.68,-3463.95 3736.39,-3704.19 3674.01,-3781.72"/>
<polygon fill="black" stroke="black" points="3671.27,-3779.54 3667.73,-3789.53 3676.72,-3783.93 3671.27,-3779.54"/>
<text text-anchor="start" x="3783.01" y="-3592.87" font-family="Times New Roman,serif" font-size="14.00">member</text>
</g>
<!-- Entity37&#45;&gt;Entity56 -->
<g id="edge33" class="edge verb">
<title>Entity37&#45;&gt;Entity56</title>
<path fill="none" stroke="black" d="M3998.66,-3360.51C3993.74,-3272.15 3947.99,-2885.87 3929.97,-2778.01"/>
<polygon fill="black" stroke="black" points="3933.38,-2777.16 3928.22,-2767.9 3926.48,-2778.36 3933.38,-2777.16"/>
<text text-anchor="start" x="3910.32" y="-3058.06" font-family="Times New Roman,serif" font-size="14.00">employee</text>
</g>
<!-- Entity37&#45;&gt;Entity56 -->
<g id="edge43" class="edge verb">
<title>Entity37&#45;&gt;Entity56</title>
<path fill="none" stroke="black" d="M3993.69,-3360.42C3977.62,-3271.95 3931.6,-2886.4 3923.94,-2778.25"/>
<polygon fill="black" stroke="black" points="3927.42,-2777.86 3923.29,-2768.11 3920.44,-2778.31 3927.42,-2777.86"/>
<text text-anchor="start" x="3879.81" y="-3073.13" font-family="Times New Roman,serif" font-size="14.00">vice&#45;president</text>
</g>
<!-- Entity72 -->
<g id="node48" class="node entity">
<title>Entity72</title>
<ellipse fill="none" stroke="black" cx="4575.48" cy="-3257.21" rx="90.98" ry="18"/>
<text text-anchor="start" x="4513.48" y="-3253.51" font-family="Times New Roman,serif" font-size="14.00">nsdap rocket program</text>
</g>
<!-- Entity37&#45;&gt;Entity72 -->
<g id="edge42" class="edge verb">
<title>Entity37&#45;&gt;Entity72</title>
<path fill="none" stroke="black" d="M4054.74,-3366.74C4160.02,-3344.6 4386.34,-3296.99 4502.87,-3272.49"/>
<polygon fill="black" stroke="black" points="4503.7,-3275.89 4512.77,-3270.4 4502.26,-3269.04 4503.7,-3275.89"/>
<text text-anchor="start" x="4244.8" y="-3323.41" font-family="Times New Roman,serif" font-size="14.00">create</text>
</g>
<!-- Entity73 -->
<g id="node61" class="node entity">
<title>Entity73</title>
<ellipse fill="none" stroke="black" cx="4455.35" cy="-3772.17" rx="65.79" ry="18"/>
<text text-anchor="start" x="4412.85" y="-3768.47" font-family="Times New Roman,serif" font-size="14.00">x series aircraft</text>
</g>
<!-- Entity37&#45;&gt;Entity73 -->
<g id="edge67" class="edge verb">
<title>Entity37&#45;&gt;Entity73</title>
<path fill="none" stroke="black" d="M4018.58,-3396.02C4091.88,-3459.14 4343.66,-3675.98 4427.76,-3748.4"/>
<polygon fill="black" stroke="black" points="4425.5,-3751.08 4435.36,-3754.95 4430.07,-3745.77 4425.5,-3751.08"/>
<text text-anchor="start" x="4189.17" y="-3576.01" font-family="Times New Roman,serif" font-size="14.00">create</text>
</g>
<!-- Entity74 -->
<g id="node36" class="node entity">
<title>Entity74</title>
<ellipse fill="none" stroke="black" cx="3223.07" cy="-3787.54" rx="38.99" ry="18"/>
<text text-anchor="start" x="3201.07" y="-3783.84" font-family="Times New Roman,serif" font-size="14.00">far right</text>
</g>
<!-- Entity51&#45;&gt;Entity74 -->
<g id="edge44" class="edge verb">
<title>Entity51&#45;&gt;Entity74</title>
<path fill="none" stroke="black" d="M3622.03,-3804.64C3547.01,-3801.42 3361.12,-3793.45 3272.1,-3789.64"/>
<polygon fill="black" stroke="black" points="3272.14,-3786.14 3262,-3789.21 3271.84,-3793.13 3272.14,-3786.14"/>
<text text-anchor="start" x="3401.07" y="-3800.94" font-family="Times New Roman,serif" font-size="14.00">member</text>
</g>
<!-- Entity46 -->
<g id="node22" class="node entity">
<title>Entity46</title>
<ellipse fill="none" stroke="black" cx="4331.26" cy="-3149.05" rx="46.29" ry="18"/>
<text text-anchor="start" x="4303.76" y="-3145.35" font-family="Times New Roman,serif" font-size="14.00">van braun</text>
</g>
<!-- Entity46&#45;&gt;Entity37 -->
<g id="edge16" class="edge verb">
<title>Entity46&#45;&gt;Entity37</title>
<path fill="none" stroke="black" d="M4308.38,-3164.83C4250.74,-3204.58 4099.36,-3308.95 4031.77,-3355.56"/>
<polygon fill="black" stroke="black" points="4029.44,-3352.91 4023.19,-3361.47 4033.41,-3358.68 4029.44,-3352.91"/>
<text text-anchor="start" x="4116.08" y="-3263.99" font-family="Times New Roman,serif" font-size="14.00">employee</text>
</g>
<!-- Entity46&#45;&gt;Entity72 -->
<g id="edge46" class="edge verb">
<title>Entity46&#45;&gt;Entity72</title>
<path fill="none" stroke="black" d="M4362.19,-3162.75C4404.19,-3181.35 4479.61,-3214.75 4528.59,-3236.44"/>
<polygon fill="black" stroke="black" points="4527.45,-3239.77 4538.01,-3240.62 4530.29,-3233.37 4527.45,-3239.77"/>
<text text-anchor="start" x="4391.39" y="-3203.4" font-family="Times New Roman,serif" font-size="14.00">employee</text>
</g>
<!-- Entity40 -->
<g id="node23" class="node entity">
<title>Entity40</title>
<ellipse fill="none" stroke="black" cx="3932" cy="-2858.04" rx="57.69" ry="18"/>
<text text-anchor="start" x="3895.5" y="-2854.34" font-family="Times New Roman,serif" font-size="14.00">michael pane</text>
</g>
<!-- Entity40&#45;&gt;Entity37 -->
<g id="edge17" class="edge verb">
<title>Entity40&#45;&gt;Entity37</title>
<path fill="none" stroke="black" d="M3934.33,-2876.26C3944.2,-2953.72 3982.73,-3256.01 3994.75,-3350.33"/>
<polygon fill="black" stroke="black" points="3991.31,-3351.05 3996.05,-3360.53 3998.26,-3350.16 3991.31,-3351.05"/>
<text text-anchor="start" x="3910.54" y="-3117.09" font-family="Times New Roman,serif" font-size="14.00">employee</text>
</g>
<!-- Entity40&#45;&gt;Entity56 -->
<g id="edge62" class="edge verb">
<title>Entity40&#45;&gt;Entity56</title>
<path fill="none" stroke="black" d="M3930.58,-2839.7C3929.26,-2822.83 3927.3,-2797.55 3925.79,-2778.12"/>
<polygon fill="black" stroke="black" points="3929.26,-2777.71 3925,-2768.01 3922.29,-2778.25 3929.26,-2777.71"/>
<text text-anchor="start" x="3874.18" y="-2812.71" font-family="Times New Roman,serif" font-size="14.00">employee</text>
</g>
<!-- Entity50 -->
<g id="node24" class="node entity">
<title>Entity50</title>
<ellipse fill="none" stroke="black" cx="37.38" cy="-2536.22" rx="37.89" ry="18"/>
<text text-anchor="start" x="16.38" y="-2532.52" font-family="Times New Roman,serif" font-size="14.00">hunt oil</text>
</g>
<!-- Entity48 -->
<g id="node25" class="node entity">
<title>Entity48</title>
<ellipse fill="none" stroke="black" cx="576.11" cy="-2496.69" rx="77.99" ry="18"/>
<text text-anchor="start" x="524.11" y="-2492.99" font-family="Times New Roman,serif" font-size="14.00">dwight eisenhower</text>
</g>
<!-- Entity50&#45;&gt;Entity48 -->
<g id="edge18" class="edge verb">
<title>Entity50&#45;&gt;Entity48</title>
<path fill="none" stroke="black" d="M74.83,-2533.47C160.5,-2527.18 372.52,-2511.63 491.55,-2502.9"/>
<polygon fill="black" stroke="black" points="492,-2506.37 501.72,-2502.15 491.49,-2499.39 492,-2506.37"/>
<text text-anchor="start" x="257.19" y="-2521.98" font-family="Times New Roman,serif" font-size="14.00">fund</text>
</g>
<!-- Entity48&#45;&gt;Entity53 -->
<g id="edge52" class="edge verb">
<title>Entity48&#45;&gt;Entity53</title>
<path fill="none" stroke="black" d="M634.78,-2484.8C756.06,-2460.22 1031.61,-2404.37 1134.28,-2383.56"/>
<polygon fill="black" stroke="black" points="1135.13,-2386.96 1144.24,-2381.54 1133.74,-2380.1 1135.13,-2386.96"/>
<text text-anchor="start" x="874.53" y="-2437.98" font-family="Times New Roman,serif" font-size="14.00">is</text>
</g>
<!-- Entity45&#45;&gt;Entity74 -->
<g id="edge26" class="edge verb">
<title>Entity45&#45;&gt;Entity74</title>
<path fill="none" stroke="black" d="M2757.28,-3622.84C2850.55,-3655.82 3086.85,-3739.37 3182.22,-3773.1"/>
<polygon fill="black" stroke="black" points="3181.21,-3776.45 3191.8,-3776.48 3183.54,-3769.85 3181.21,-3776.45"/>
<text text-anchor="start" x="2923.75" y="-3701.77" font-family="Times New Roman,serif" font-size="14.00">member</text>
</g>
<!-- Entity49 -->
<g id="node27" class="node entity">
<title>Entity49</title>
<ellipse fill="none" stroke="black" cx="3841.76" cy="-4171.66" rx="49.29" ry="18"/>
<text text-anchor="start" x="3811.76" y="-4167.96" font-family="Times New Roman,serif" font-size="14.00">adolf hitler</text>
</g>
<!-- Entity49&#45;&gt;Entity51 -->
<g id="edge20" class="edge verb">
<title>Entity49&#45;&gt;Entity51</title>
<path fill="none" stroke="black" d="M3832.6,-4153.78C3802.16,-4094.35 3704.24,-3903.22 3668.06,-3832.59"/>
<polygon fill="black" stroke="black" points="3671.05,-3830.75 3663.38,-3823.45 3664.82,-3833.94 3671.05,-3830.75"/>
<text text-anchor="start" x="3716.33" y="-3996.98" font-family="Times New Roman,serif" font-size="14.00">create</text>
</g>
<!-- Entity79 -->
<g id="node30" class="node entity">
<title>Entity79</title>
<ellipse fill="none" stroke="black" cx="2618.94" cy="-2321.66" rx="27" ry="18"/>
<text text-anchor="start" x="2608.94" y="-2317.96" font-family="Times New Roman,serif" font-size="14.00">foo</text>
</g>
<!-- Entity80 -->
<g id="node31" class="node entity">
<title>Entity80</title>
<ellipse fill="none" stroke="black" cx="2706.66" cy="-2433.64" rx="27" ry="18"/>
<text text-anchor="start" x="2696.66" y="-2429.94" font-family="Times New Roman,serif" font-size="14.00">baz</text>
</g>
<!-- Entity79&#45;&gt;Entity80 -->
<g id="edge23" class="edge verb">
<title>Entity79&#45;&gt;Entity80</title>
<path fill="none" stroke="black" d="M2631.51,-2337.7C2646.23,-2356.5 2670.76,-2387.82 2687.78,-2409.53"/>
<polygon fill="black" stroke="black" points="2685.19,-2411.91 2694.11,-2417.62 2690.7,-2407.59 2685.19,-2411.91"/>
<text text-anchor="start" x="2639.64" y="-2377.42" font-family="Times New Roman,serif" font-size="14.00">baz</text>
</g>
<!-- Entity22 -->
<g id="node32" class="node entity">
<title>Entity22</title>
<ellipse fill="none" stroke="black" cx="903.54" cy="-5375.08" rx="58.49" ry="18"/>
<text text-anchor="start" x="866.54" y="-5371.38" font-family="Times New Roman,serif" font-size="14.00">rudolf steiner</text>
</g>
<!-- Entity22&#45;&gt;Entity59 -->
<g id="edge24" class="edge verb">
<title>Entity22&#45;&gt;Entity59</title>
<path fill="none" stroke="black" d="M898.8,-5356.91C875.38,-5267.06 771.95,-4870.4 743.46,-4761.12"/>
<polygon fill="black" stroke="black" points="746.78,-4759.97 740.87,-4751.18 740,-4761.74 746.78,-4759.97"/>
<text text-anchor="start" x="775.13" y="-5062.81" font-family="Times New Roman,serif" font-size="14.00">member</text>
</g>
<!-- Entity60 -->
<g id="node40" class="node entity">
<title>Entity60</title>
<ellipse fill="none" stroke="black" cx="1154.53" cy="-5989.76" rx="102.08" ry="18"/>
<text text-anchor="start" x="1084.03" y="-5986.06" font-family="Times New Roman,serif" font-size="14.00">anthroposophical society</text>
</g>
<!-- Entity22&#45;&gt;Entity60 -->
<g id="edge31" class="edge verb">
<title>Entity22&#45;&gt;Entity60</title>
<path fill="none" stroke="black" d="M910.92,-5393.15C946.49,-5480.27 1100.38,-5857.15 1143.35,-5962.38"/>
<polygon fill="black" stroke="black" points="1140.14,-5963.76 1147.16,-5971.7 1146.62,-5961.12 1140.14,-5963.76"/>
<text text-anchor="start" x="993.14" y="-5681.56" font-family="Times New Roman,serif" font-size="14.00">create</text>
</g>
<!-- Entity44 -->
<g id="node34" class="node entity">
<title>Entity44</title>
<ellipse fill="none" stroke="black" cx="2645.94" cy="-2897.66" rx="53.89" ry="18"/>
<text text-anchor="start" x="2612.44" y="-2893.96" font-family="Times New Roman,serif" font-size="14.00">black magic</text>
</g>
<!-- Entity71 -->
<g id="node35" class="node entity">
<title>Entity71</title>
<ellipse fill="none" stroke="black" cx="2733.66" cy="-3009.64" rx="28.7" ry="18"/>
<text text-anchor="start" x="2719.66" y="-3005.94" font-family="Times New Roman,serif" font-size="14.00">x left</text>
</g>
<!-- Entity44&#45;&gt;Entity71 -->
<g id="edge25" class="edge verb">
<title>Entity44&#45;&gt;Entity71</title>
<path fill="none" stroke="black" d="M2659.64,-2915.16C2674.45,-2934.05 2698.14,-2964.29 2714.72,-2985.45"/>
<polygon fill="black" stroke="black" points="2711.98,-2987.64 2720.9,-2993.36 2717.49,-2983.32 2711.98,-2987.64"/>
<text text-anchor="start" x="2641.18" y="-2954.11" font-family="Times New Roman,serif" font-size="14.00">member</text>
</g>
<!-- Entity10 -->
<g id="node37" class="node entity">
<title>Entity10</title>
<ellipse fill="none" stroke="black" cx="778.84" cy="-2671.89" rx="56.59" ry="18"/>
<text text-anchor="start" x="743.34" y="-2668.19" font-family="Times New Roman,serif" font-size="14.00">harry truman</text>
</g>
<!-- Entity10&#45;&gt;Entity53 -->
<g id="edge27" class="edge verb">
<title>Entity10&#45;&gt;Entity53</title>
<path fill="none" stroke="black" d="M801.2,-2655.11C868.95,-2604.28 1071.79,-2452.09 1146.12,-2396.32"/>
<polygon fill="black" stroke="black" points="1148.63,-2398.82 1154.53,-2390.01 1144.43,-2393.22 1148.63,-2398.82"/>
<text text-anchor="start" x="963.66" y="-2529.52" font-family="Times New Roman,serif" font-size="14.00">is</text>
</g>
<!-- Entity57 -->
<g id="node43" class="node entity">
<title>Entity57</title>
<ellipse fill="none" stroke="black" cx="328.94" cy="-2933.38" rx="55.79" ry="18"/>
<text text-anchor="start" x="293.94" y="-2929.68" font-family="Times New Roman,serif" font-size="14.00">freemasonry</text>
</g>
<!-- Entity10&#45;&gt;Entity57 -->
<g id="edge36" class="edge verb">
<title>Entity10&#45;&gt;Entity57</title>
<path fill="none" stroke="black" d="M751.37,-2687.85C673.61,-2733.05 451.96,-2861.88 364.79,-2912.55"/>
<polygon fill="black" stroke="black" points="362.93,-2909.57 356.05,-2917.63 366.45,-2915.63 362.93,-2909.57"/>
<text text-anchor="start" x="512.08" y="-2804" font-family="Times New Roman,serif" font-size="14.00">member</text>
</g>
<!-- Entity13 -->
<g id="node38" class="node entity">
<title>Entity13</title>
<ellipse fill="none" stroke="black" cx="777.56" cy="-2388.74" rx="58.49" ry="18"/>
<text text-anchor="start" x="740.56" y="-2385.04" font-family="Times New Roman,serif" font-size="14.00">richard nixon</text>
</g>
<!-- Entity13&#45;&gt;Entity53 -->
<g id="edge28" class="edge verb">
<title>Entity13&#45;&gt;Entity53</title>
<path fill="none" stroke="black" d="M836.03,-2386.79C917.02,-2384.1 1061.35,-2379.29 1132.22,-2376.93"/>
<polygon fill="black" stroke="black" points="1132.66,-2380.42 1142.53,-2376.59 1132.42,-2373.42 1132.66,-2380.42"/>
<text text-anchor="start" x="974.12" y="-2385.66" font-family="Times New Roman,serif" font-size="14.00">is</text>
</g>
<!-- Entity21 -->
<g id="node45" class="node entity">
<title>Entity21</title>
<ellipse fill="none" stroke="black" cx="1121.79" cy="-2704.38" rx="35.19" ry="18"/>
<text text-anchor="start" x="1102.79" y="-2700.68" font-family="Times New Roman,serif" font-size="14.00">obama</text>
</g>
<!-- Entity21&#45;&gt;Entity53 -->
<g id="edge38" class="edge verb">
<title>Entity21&#45;&gt;Entity53</title>
<path fill="none" stroke="black" d="M1124.66,-2686.24C1133.28,-2631.78 1158.96,-2469.46 1169.36,-2403.69"/>
<polygon fill="black" stroke="black" points="1172.85,-2404.06 1170.95,-2393.64 1165.93,-2402.97 1172.85,-2404.06"/>
<text text-anchor="start" x="1137.01" y="-2548.76" font-family="Times New Roman,serif" font-size="14.00">is</text>
</g>
<!-- Entity14 -->
<g id="node46" class="node entity">
<title>Entity14</title>
<ellipse fill="none" stroke="black" cx="1630.93" cy="-2198.69" rx="31.4" ry="18"/>
<text text-anchor="start" x="1614.93" y="-2194.99" font-family="Times New Roman,serif" font-size="14.00">carter</text>
</g>
<!-- Entity14&#45;&gt;Entity53 -->
<g id="edge39" class="edge verb">
<title>Entity14&#45;&gt;Entity53</title>
<path fill="none" stroke="black" d="M1604.71,-2208.83C1527,-2238.9 1297.81,-2327.57 1209.28,-2361.83"/>
<polygon fill="black" stroke="black" points="1207.99,-2358.57 1199.93,-2365.44 1210.52,-2365.1 1207.99,-2358.57"/>
<text text-anchor="start" x="1396.99" y="-2289.13" font-family="Times New Roman,serif" font-size="14.00">is</text>
</g>
<!-- Entity14&#45;&gt;Entity54 -->
<g id="edge64" class="edge verb">
<title>Entity14&#45;&gt;Entity54</title>
<path fill="none" stroke="black" d="M1655.97,-2187.77C1729.98,-2155.5 1947.63,-2060.6 2030.02,-2024.68"/>
<polygon fill="black" stroke="black" points="2031.61,-2027.8 2039.37,-2020.6 2028.81,-2021.38 2031.61,-2027.8"/>
<text text-anchor="start" x="1801" y="-2110.02" font-family="Times New Roman,serif" font-size="14.00">witness</text>
</g>
<!-- Entity35 -->
<g id="node52" class="node entity">
<title>Entity35</title>
<ellipse fill="none" stroke="black" cx="3207.94" cy="-2321.66" rx="39.79" ry="18"/>
<text text-anchor="start" x="3185.44" y="-2317.96" font-family="Times New Roman,serif" font-size="14.00">crowley</text>
</g>
<!-- Entity70 -->
<g id="node53" class="node entity">
<title>Entity70</title>
<ellipse fill="none" stroke="black" cx="3295.66" cy="-2433.64" rx="38.99" ry="18"/>
<text text-anchor="start" x="3273.66" y="-2429.94" font-family="Times New Roman,serif" font-size="14.00">x magic</text>
</g>
<!-- Entity35&#45;&gt;Entity70 -->
<g id="edge53" class="edge verb">
<title>Entity35&#45;&gt;Entity70</title>
<path fill="none" stroke="black" d="M3221.26,-2338.67C3235.82,-2357.25 3259.28,-2387.2 3275.96,-2408.49"/>
<polygon fill="black" stroke="black" points="3273.29,-2410.76 3282.21,-2416.47 3278.8,-2406.44 3273.29,-2410.76"/>
<text text-anchor="start" x="3202.61" y="-2377.38" font-family="Times New Roman,serif" font-size="14.00">member</text>
</g>
<!-- Entity24 -->
<g id="node56" class="node entity">
<title>Entity24</title>
<ellipse fill="none" stroke="black" cx="505.38" cy="-5337" rx="73.39" ry="18"/>
<text text-anchor="start" x="456.88" y="-5333.3" font-family="Times New Roman,serif" font-size="14.00">madam blavatsky</text>
</g>
<!-- Entity24&#45;&gt;Entity59 -->
<g id="edge59" class="edge verb">
<title>Entity24&#45;&gt;Entity59</title>
<path fill="none" stroke="black" d="M512.29,-5318.93C545.17,-5232.9 685.88,-4864.73 725.66,-4760.66"/>
<polygon fill="black" stroke="black" points="728.99,-4761.75 729.29,-4751.16 722.45,-4759.25 728.99,-4761.75"/>
<text text-anchor="start" x="584.97" y="-5043.59" font-family="Times New Roman,serif" font-size="14.00">create</text>
</g>
<!-- Entity31 -->
<g id="node57" class="node entity">
<title>Entity31</title>
<ellipse fill="none" stroke="black" cx="2115.56" cy="-17.66" rx="69.59" ry="18"/>
<text text-anchor="start" x="2070.06" y="-13.96" font-family="Times New Roman,serif" font-size="14.00">andrew breitbart</text>
</g>
<!-- Entity31&#45;&gt;Entity65 -->
<g id="edge61" class="edge verb">
<title>Entity31&#45;&gt;Entity65</title>
<path fill="none" stroke="black" d="M2110.87,-35.7C2089.62,-117.29 2002.46,-452.01 1976.61,-551.27"/>
<polygon fill="black" stroke="black" points="1973.17,-550.6 1974.03,-561.16 1979.94,-552.36 1973.17,-550.6"/>
<text text-anchor="start" x="2009.74" y="-297.29" font-family="Times New Roman,serif" font-size="14.00">create</text>
</g>
</g>
</svg>
